<?xml version="1.0" encoding="utf-8" standalone="no"?>
<!DOCTYPE svg PUBLIC "-//W3C//DTD SVG 1.1//EN"
  "http://www.w3.org/Graphics/SVG/1.1/DTD/svg11.dtd">
<svg xmlns:xlink="http://www.w3.org/1999/xlink" width="640.367812pt" height="315.830625pt" viewBox="0 0 640.367812 315.830625" xmlns="http://www.w3.org/2000/svg" version="1.1">
 <metadata>
  <rdf:RDF xmlns:dc="http://purl.org/dc/elements/1.1/" xmlns:cc="http://creativecommons.org/ns#" xmlns:rdf="http://www.w3.org/1999/02/22-rdf-syntax-ns#">
   <cc:Work>
    <dc:type rdf:resource="http://purl.org/dc/dcmitype/StillImage"/>
    <dc:date>2026-05-22T13:43:07.298982</dc:date>
    <dc:format>image/svg+xml</dc:format>
    <dc:creator>
     <cc:Agent>
      <dc:title>Matplotlib v3.10.9, https://matplotlib.org/</dc:title>
     </cc:Agent>
    </dc:creator>
   </cc:Work>
  </rdf:RDF>
 </metadata>
 <defs>
  <style type="text/css">*{stroke-linejoin: round; stroke-linecap: butt}</style>
 </defs>
 <g id="figure_1">
  <g id="patch_1">
   <path d="M 0 315.830625 
L 640.367812 315.830625 
L 640.367812 0 
L 0 0 
z
" style="fill: #ffffff"/>
  </g>
  <g id="axes_1">
   <g id="patch_2">
    <path d="M 48.367812 276.67125 
L 633.167812 276.67125 
L 633.167812 24.39125 
L 48.367812 24.39125 
z
" style="fill: #ffffff"/>
   </g>
   <g id="patch_3">
    <path d="M 50.804479 276.67125 
L 70.297812 276.67125 
L 70.297812 253.736705 
L 50.804479 253.736705 
z
" clip-path="url(#p17576b7d20)" style="fill: #5a6a80; stroke: #ffffff; stroke-width: 0.5; stroke-linejoin: miter"/>
   </g>
   <g id="patch_4">
    <path d="M 75.171146 276.67125 
L 94.664479 276.67125 
L 94.664479 265.203977 
L 75.171146 265.203977 
z
" clip-path="url(#p17576b7d20)" style="fill: #5a6a80; stroke: #ffffff; stroke-width: 0.5; stroke-linejoin: miter"/>
   </g>
   <g id="patch_5">
    <path d="M 99.537813 276.67125 
L 119.031146 276.67125 
L 119.031146 269.790886 
L 99.537813 269.790886 
z
" clip-path="url(#p17576b7d20)" style="fill: #5a6a80; stroke: #ffffff; stroke-width: 0.5; stroke-linejoin: miter"/>
   </g>
   <g id="patch_6">
    <path d="M 123.904479 276.67125 
L 143.397812 276.67125 
L 143.397812 272.084341 
L 123.904479 272.084341 
z
" clip-path="url(#p17576b7d20)" style="fill: #5a6a80; stroke: #ffffff; stroke-width: 0.5; stroke-linejoin: miter"/>
   </g>
   <g id="patch_7">
    <path d="M 148.271146 276.67125 
L 167.764479 276.67125 
L 167.764479 272.084341 
L 148.271146 272.084341 
z
" clip-path="url(#p17576b7d20)" style="fill: #5a6a80; stroke: #ffffff; stroke-width: 0.5; stroke-linejoin: miter"/>
   </g>
   <g id="patch_8">
    <path d="M 172.637812 276.67125 
L 192.131146 276.67125 
L 192.131146 269.790886 
L 172.637812 269.790886 
z
" clip-path="url(#p17576b7d20)" style="fill: #5a6a80; stroke: #ffffff; stroke-width: 0.5; stroke-linejoin: miter"/>
   </g>
   <g id="patch_9">
    <path d="M 197.004479 276.67125 
L 216.497812 276.67125 
L 216.497812 253.736705 
L 197.004479 253.736705 
z
" clip-path="url(#p17576b7d20)" style="fill: #5a6a80; stroke: #ffffff; stroke-width: 0.5; stroke-linejoin: miter"/>
   </g>
   <g id="patch_10">
    <path d="M 221.371146 276.67125 
L 240.864479 276.67125 
L 240.864479 207.867614 
L 221.371146 207.867614 
z
" clip-path="url(#p17576b7d20)" style="fill: #ffb8d0; stroke: #ffffff; stroke-width: 0.5; stroke-linejoin: miter"/>
   </g>
   <g id="patch_11">
    <path d="M 245.737812 276.67125 
L 265.231146 276.67125 
L 265.231146 150.53125 
L 245.737812 150.53125 
z
" clip-path="url(#p17576b7d20)" style="fill: #73bfaa; stroke: #ffffff; stroke-width: 0.5; stroke-linejoin: miter"/>
   </g>
   <g id="patch_12">
    <path d="M 270.104479 276.67125 
L 289.597812 276.67125 
L 289.597812 93.194886 
L 270.104479 93.194886 
z
" clip-path="url(#p17576b7d20)" style="fill: #5688cc; stroke: #ffffff; stroke-width: 0.5; stroke-linejoin: miter"/>
   </g>
   <g id="patch_13">
    <path d="M 294.471146 276.67125 
L 313.964479 276.67125 
L 313.964479 70.260341 
L 294.471146 70.260341 
z
" clip-path="url(#p17576b7d20)" style="fill: #5688cc; stroke: #ffffff; stroke-width: 0.5; stroke-linejoin: miter"/>
   </g>
   <g id="patch_14">
    <path d="M 318.837812 276.67125 
L 338.331146 276.67125 
L 338.331146 58.793068 
L 318.837812 58.793068 
z
" clip-path="url(#p17576b7d20)" style="fill: #5688cc; stroke: #ffffff; stroke-width: 0.5; stroke-linejoin: miter"/>
   </g>
   <g id="patch_15">
    <path d="M 343.204479 276.67125 
L 362.697812 276.67125 
L 362.697812 47.325795 
L 343.204479 47.325795 
z
" clip-path="url(#p17576b7d20)" style="fill: #5688cc; stroke: #ffffff; stroke-width: 0.5; stroke-linejoin: miter"/>
   </g>
   <g id="patch_16">
    <path d="M 367.571146 276.67125 
L 387.064479 276.67125 
L 387.064479 81.727614 
L 367.571146 81.727614 
z
" clip-path="url(#p17576b7d20)" style="fill: #5688cc; stroke: #ffffff; stroke-width: 0.5; stroke-linejoin: miter"/>
   </g>
   <g id="patch_17">
    <path d="M 391.937812 276.67125 
L 411.431146 276.67125 
L 411.431146 116.129432 
L 391.937812 116.129432 
z
" clip-path="url(#p17576b7d20)" style="fill: #73bfaa; stroke: #ffffff; stroke-width: 0.5; stroke-linejoin: miter"/>
   </g>
   <g id="patch_18">
    <path d="M 416.304479 276.67125 
L 435.797812 276.67125 
L 435.797812 104.662159 
L 416.304479 104.662159 
z
" clip-path="url(#p17576b7d20)" style="fill: #5688cc; stroke: #ffffff; stroke-width: 0.5; stroke-linejoin: miter"/>
   </g>
   <g id="patch_19">
    <path d="M 440.671146 276.67125 
L 460.164479 276.67125 
L 460.164479 81.727614 
L 440.671146 81.727614 
z
" clip-path="url(#p17576b7d20)" style="fill: #5688cc; stroke: #ffffff; stroke-width: 0.5; stroke-linejoin: miter"/>
   </g>
   <g id="patch_20">
    <path d="M 465.037812 276.67125 
L 484.531146 276.67125 
L 484.531146 93.194886 
L 465.037812 93.194886 
z
" clip-path="url(#p17576b7d20)" style="fill: #5688cc; stroke: #ffffff; stroke-width: 0.5; stroke-linejoin: miter"/>
   </g>
   <g id="patch_21">
    <path d="M 489.404479 276.67125 
L 508.897812 276.67125 
L 508.897812 127.596705 
L 489.404479 127.596705 
z
" clip-path="url(#p17576b7d20)" style="fill: #73bfaa; stroke: #ffffff; stroke-width: 0.5; stroke-linejoin: miter"/>
   </g>
   <g id="patch_22">
    <path d="M 513.771146 276.67125 
L 533.264479 276.67125 
L 533.264479 161.998523 
L 513.771146 161.998523 
z
" clip-path="url(#p17576b7d20)" style="fill: #73bfaa; stroke: #ffffff; stroke-width: 0.5; stroke-linejoin: miter"/>
   </g>
   <g id="patch_23">
    <path d="M 538.137812 276.67125 
L 557.631146 276.67125 
L 557.631146 184.933068 
L 538.137812 184.933068 
z
" clip-path="url(#p17576b7d20)" style="fill: #ffb8d0; stroke: #ffffff; stroke-width: 0.5; stroke-linejoin: miter"/>
   </g>
   <g id="patch_24">
    <path d="M 562.504479 276.67125 
L 581.997813 276.67125 
L 581.997813 196.400341 
L 562.504479 196.400341 
z
" clip-path="url(#p17576b7d20)" style="fill: #ffb8d0; stroke: #ffffff; stroke-width: 0.5; stroke-linejoin: miter"/>
   </g>
   <g id="patch_25">
    <path d="M 586.871146 276.67125 
L 606.364479 276.67125 
L 606.364479 207.867614 
L 586.871146 207.867614 
z
" clip-path="url(#p17576b7d20)" style="fill: #ffb8d0; stroke: #ffffff; stroke-width: 0.5; stroke-linejoin: miter"/>
   </g>
   <g id="patch_26">
    <path d="M 611.237812 276.67125 
L 630.731146 276.67125 
L 630.731146 230.802159 
L 611.237812 230.802159 
z
" clip-path="url(#p17576b7d20)" style="fill: #5a6a80; stroke: #ffffff; stroke-width: 0.5; stroke-linejoin: miter"/>
   </g>
   <g id="matplotlib.axis_1">
    <g id="xtick_1">
     <g id="line2d_1">
      <defs>
       <path id="ma94b193be0" d="M 0 0 
L 0 3.5 
" style="stroke: #000000; stroke-width: 0.8"/>
      </defs>
      <g>
       <use xlink:href="#ma94b193be0" x="60.551146" y="276.67125" style="stroke: #000000; stroke-width: 0.8"/>
      </g>
     </g>
     <g id="text_1">
      <!-- 0:00 -->
      <g transform="translate(52.551146 290.06625) scale(0.08 -0.08)">
       <defs>
        <path id="MicrosoftYaHei-30" d="M 284 2325 
Q 284 3606 709 4264 
Q 1134 4922 1941 4922 
Q 3478 4922 3478 2441 
Q 3478 1216 3045 567 
Q 2613 -81 1831 -81 
Q 1094 -81 689 534 
Q 284 1150 284 2325 
z
M 909 2353 
Q 909 425 1888 425 
Q 2850 425 2850 2384 
Q 2850 4413 1906 4413 
Q 909 4413 909 2353 
z
" transform="scale(0.015625)"/>
        <path id="MicrosoftYaHei-3a" d="M 372 3134 
Q 372 3303 490 3415 
Q 609 3528 775 3528 
Q 944 3528 1062 3414 
Q 1181 3300 1181 3134 
Q 1181 2969 1065 2853 
Q 950 2738 772 2738 
Q 603 2738 487 2853 
Q 372 2969 372 3134 
z
M 372 322 
Q 372 491 487 606 
Q 603 722 775 722 
Q 950 722 1065 605 
Q 1181 488 1181 322 
Q 1181 159 1065 42 
Q 950 -75 772 -75 
Q 600 -75 486 42 
Q 372 159 372 322 
z
" transform="scale(0.015625)"/>
       </defs>
       <use xlink:href="#MicrosoftYaHei-30"/>
       <use xlink:href="#MicrosoftYaHei-3a" transform="translate(58.642578 0)"/>
       <use xlink:href="#MicrosoftYaHei-30" transform="translate(82.714844 0)"/>
       <use xlink:href="#MicrosoftYaHei-30" transform="translate(141.357422 0)"/>
      </g>
     </g>
    </g>
    <g id="xtick_2">
     <g id="line2d_2">
      <g>
       <use xlink:href="#ma94b193be0" x="109.284479" y="276.67125" style="stroke: #000000; stroke-width: 0.8"/>
      </g>
     </g>
     <g id="text_2">
      <!-- 2:00 -->
      <g transform="translate(101.284479 290.06625) scale(0.08 -0.08)">
       <defs>
        <path id="MicrosoftYaHei-32" d="M 2666 3572 
Q 2666 3963 2419 4186 
Q 2172 4409 1747 4409 
Q 1447 4409 1140 4256 
Q 834 4103 569 3819 
L 569 4413 
Q 806 4659 1107 4790 
Q 1409 4922 1816 4922 
Q 2472 4922 2872 4570 
Q 3272 4219 3272 3619 
Q 3272 3084 3026 2693 
Q 2781 2303 2188 1894 
Q 1581 1475 1376 1294 
Q 1172 1113 1090 947 
Q 1009 781 1009 544 
L 3416 544 
L 3416 0 
L 372 0 
L 372 241 
Q 372 659 486 951 
Q 600 1244 862 1520 
Q 1125 1797 1681 2184 
Q 2250 2584 2458 2886 
Q 2666 3188 2666 3572 
z
" transform="scale(0.015625)"/>
       </defs>
       <use xlink:href="#MicrosoftYaHei-32"/>
       <use xlink:href="#MicrosoftYaHei-3a" transform="translate(58.642578 0)"/>
       <use xlink:href="#MicrosoftYaHei-30" transform="translate(82.714844 0)"/>
       <use xlink:href="#MicrosoftYaHei-30" transform="translate(141.357422 0)"/>
      </g>
     </g>
    </g>
    <g id="xtick_3">
     <g id="line2d_3">
      <g>
       <use xlink:href="#ma94b193be0" x="158.017812" y="276.67125" style="stroke: #000000; stroke-width: 0.8"/>
      </g>
     </g>
     <g id="text_3">
      <!-- 4:00 -->
      <g transform="translate(150.017812 290.06625) scale(0.08 -0.08)">
       <defs>
        <path id="MicrosoftYaHei-34" d="M 2906 4841 
L 2906 1644 
L 3631 1644 
L 3631 1138 
L 2906 1138 
L 2906 0 
L 2313 0 
L 2313 1138 
L 53 1138 
L 53 1616 
Q 656 2294 1265 3178 
Q 1875 4063 2272 4841 
L 2906 4841 
z
M 741 1644 
L 2313 1644 
L 2313 3950 
Q 1988 3366 1616 2817 
Q 1244 2269 741 1644 
z
" transform="scale(0.015625)"/>
       </defs>
       <use xlink:href="#MicrosoftYaHei-34"/>
       <use xlink:href="#MicrosoftYaHei-3a" transform="translate(58.642578 0)"/>
       <use xlink:href="#MicrosoftYaHei-30" transform="translate(82.714844 0)"/>
       <use xlink:href="#MicrosoftYaHei-30" transform="translate(141.357422 0)"/>
      </g>
     </g>
    </g>
    <g id="xtick_4">
     <g id="line2d_4">
      <g>
       <use xlink:href="#ma94b193be0" x="206.751146" y="276.67125" style="stroke: #000000; stroke-width: 0.8"/>
      </g>
     </g>
     <g id="text_4">
      <!-- 6:00 -->
      <g transform="translate(198.751146 290.06625) scale(0.08 -0.08)">
       <defs>
        <path id="MicrosoftYaHei-36" d="M 3181 4219 
Q 2803 4413 2391 4413 
Q 1763 4413 1381 3866 
Q 1000 3319 994 2372 
L 1009 2372 
Q 1353 3038 2106 3038 
Q 2734 3038 3109 2628 
Q 3484 2219 3484 1541 
Q 3484 831 3051 375 
Q 2619 -81 1947 -81 
Q 1209 -81 789 495 
Q 369 1072 369 2131 
Q 369 3413 920 4167 
Q 1472 4922 2372 4922 
Q 2888 4922 3181 4781 
L 3181 4219 
z
M 1031 1584 
Q 1031 1106 1286 765 
Q 1541 425 1963 425 
Q 2363 425 2613 719 
Q 2863 1013 2863 1475 
Q 2863 1975 2627 2253 
Q 2391 2531 1956 2531 
Q 1544 2531 1287 2250 
Q 1031 1969 1031 1584 
z
" transform="scale(0.015625)"/>
       </defs>
       <use xlink:href="#MicrosoftYaHei-36"/>
       <use xlink:href="#MicrosoftYaHei-3a" transform="translate(58.642578 0)"/>
       <use xlink:href="#MicrosoftYaHei-30" transform="translate(82.714844 0)"/>
       <use xlink:href="#MicrosoftYaHei-30" transform="translate(141.357422 0)"/>
      </g>
     </g>
    </g>
    <g id="xtick_5">
     <g id="line2d_5">
      <g>
       <use xlink:href="#ma94b193be0" x="255.484479" y="276.67125" style="stroke: #000000; stroke-width: 0.8"/>
      </g>
     </g>
     <g id="text_5">
      <!-- 8:00 -->
      <g transform="translate(247.484479 290.06625) scale(0.08 -0.08)">
       <defs>
        <path id="MicrosoftYaHei-38" d="M 306 1350 
Q 306 1769 556 2122 
Q 806 2475 1200 2625 
Q 884 2803 700 3081 
Q 516 3359 516 3684 
Q 516 4028 692 4312 
Q 869 4597 1183 4759 
Q 1497 4922 1875 4922 
Q 2256 4922 2572 4761 
Q 2888 4600 3063 4315 
Q 3238 4031 3238 3684 
Q 3238 3366 3058 3086 
Q 2878 2806 2559 2625 
Q 2953 2472 3200 2119 
Q 3447 1766 3447 1350 
Q 3447 938 3250 611 
Q 3053 284 2690 103 
Q 2328 -78 1875 -78 
Q 1425 -78 1065 103 
Q 706 284 506 612 
Q 306 941 306 1350 
z
M 906 1378 
Q 906 947 1172 687 
Q 1438 428 1878 428 
Q 2309 428 2582 692 
Q 2856 956 2856 1378 
Q 2856 1778 2579 2051 
Q 2303 2325 1878 2325 
Q 1456 2325 1181 2058 
Q 906 1791 906 1378 
z
M 1081 3634 
Q 1081 3309 1312 3076 
Q 1544 2844 1878 2844 
Q 2206 2844 2445 3078 
Q 2684 3313 2684 3634 
Q 2684 3963 2454 4191 
Q 2225 4419 1878 4419 
Q 1534 4419 1307 4195 
Q 1081 3972 1081 3634 
z
" transform="scale(0.015625)"/>
       </defs>
       <use xlink:href="#MicrosoftYaHei-38"/>
       <use xlink:href="#MicrosoftYaHei-3a" transform="translate(58.642578 0)"/>
       <use xlink:href="#MicrosoftYaHei-30" transform="translate(82.714844 0)"/>
       <use xlink:href="#MicrosoftYaHei-30" transform="translate(141.357422 0)"/>
      </g>
     </g>
    </g>
    <g id="xtick_6">
     <g id="line2d_6">
      <g>
       <use xlink:href="#ma94b193be0" x="304.217812" y="276.67125" style="stroke: #000000; stroke-width: 0.8"/>
      </g>
     </g>
     <g id="text_6">
      <!-- 10:00 -->
      <g transform="translate(293.872187 290.06625) scale(0.08 -0.08)">
       <defs>
        <path id="MicrosoftYaHei-31" d="M 1781 0 
L 1781 4141 
Q 1638 3997 1295 3819 
Q 953 3641 663 3569 
L 663 4169 
Q 1047 4275 1484 4508 
Q 1922 4741 2156 4947 
L 2388 4947 
L 2388 0 
L 1781 0 
z
" transform="scale(0.015625)"/>
       </defs>
       <use xlink:href="#MicrosoftYaHei-31"/>
       <use xlink:href="#MicrosoftYaHei-30" transform="translate(58.642578 0)"/>
       <use xlink:href="#MicrosoftYaHei-3a" transform="translate(117.285156 0)"/>
       <use xlink:href="#MicrosoftYaHei-30" transform="translate(141.357422 0)"/>
       <use xlink:href="#MicrosoftYaHei-30" transform="translate(200 0)"/>
      </g>
     </g>
    </g>
    <g id="xtick_7">
     <g id="line2d_7">
      <g>
       <use xlink:href="#ma94b193be0" x="352.951146" y="276.67125" style="stroke: #000000; stroke-width: 0.8"/>
      </g>
     </g>
     <g id="text_7">
      <!-- 12:00 -->
      <g transform="translate(342.605521 290.06625) scale(0.08 -0.08)">
       <use xlink:href="#MicrosoftYaHei-31"/>
       <use xlink:href="#MicrosoftYaHei-32" transform="translate(58.642578 0)"/>
       <use xlink:href="#MicrosoftYaHei-3a" transform="translate(117.285156 0)"/>
       <use xlink:href="#MicrosoftYaHei-30" transform="translate(141.357422 0)"/>
       <use xlink:href="#MicrosoftYaHei-30" transform="translate(200 0)"/>
      </g>
     </g>
    </g>
    <g id="xtick_8">
     <g id="line2d_8">
      <g>
       <use xlink:href="#ma94b193be0" x="401.684479" y="276.67125" style="stroke: #000000; stroke-width: 0.8"/>
      </g>
     </g>
     <g id="text_8">
      <!-- 14:00 -->
      <g transform="translate(391.338854 290.06625) scale(0.08 -0.08)">
       <use xlink:href="#MicrosoftYaHei-31"/>
       <use xlink:href="#MicrosoftYaHei-34" transform="translate(58.642578 0)"/>
       <use xlink:href="#MicrosoftYaHei-3a" transform="translate(117.285156 0)"/>
       <use xlink:href="#MicrosoftYaHei-30" transform="translate(141.357422 0)"/>
       <use xlink:href="#MicrosoftYaHei-30" transform="translate(200 0)"/>
      </g>
     </g>
    </g>
    <g id="xtick_9">
     <g id="line2d_9">
      <g>
       <use xlink:href="#ma94b193be0" x="450.417812" y="276.67125" style="stroke: #000000; stroke-width: 0.8"/>
      </g>
     </g>
     <g id="text_9">
      <!-- 16:00 -->
      <g transform="translate(440.072187 290.06625) scale(0.08 -0.08)">
       <use xlink:href="#MicrosoftYaHei-31"/>
       <use xlink:href="#MicrosoftYaHei-36" transform="translate(58.642578 0)"/>
       <use xlink:href="#MicrosoftYaHei-3a" transform="translate(117.285156 0)"/>
       <use xlink:href="#MicrosoftYaHei-30" transform="translate(141.357422 0)"/>
       <use xlink:href="#MicrosoftYaHei-30" transform="translate(200 0)"/>
      </g>
     </g>
    </g>
    <g id="xtick_10">
     <g id="line2d_10">
      <g>
       <use xlink:href="#ma94b193be0" x="499.151146" y="276.67125" style="stroke: #000000; stroke-width: 0.8"/>
      </g>
     </g>
     <g id="text_10">
      <!-- 18:00 -->
      <g transform="translate(488.805521 290.06625) scale(0.08 -0.08)">
       <use xlink:href="#MicrosoftYaHei-31"/>
       <use xlink:href="#MicrosoftYaHei-38" transform="translate(58.642578 0)"/>
       <use xlink:href="#MicrosoftYaHei-3a" transform="translate(117.285156 0)"/>
       <use xlink:href="#MicrosoftYaHei-30" transform="translate(141.357422 0)"/>
       <use xlink:href="#MicrosoftYaHei-30" transform="translate(200 0)"/>
      </g>
     </g>
    </g>
    <g id="xtick_11">
     <g id="line2d_11">
      <g>
       <use xlink:href="#ma94b193be0" x="547.884479" y="276.67125" style="stroke: #000000; stroke-width: 0.8"/>
      </g>
     </g>
     <g id="text_11">
      <!-- 20:00 -->
      <g transform="translate(537.538854 290.06625) scale(0.08 -0.08)">
       <use xlink:href="#MicrosoftYaHei-32"/>
       <use xlink:href="#MicrosoftYaHei-30" transform="translate(58.642578 0)"/>
       <use xlink:href="#MicrosoftYaHei-3a" transform="translate(117.285156 0)"/>
       <use xlink:href="#MicrosoftYaHei-30" transform="translate(141.357422 0)"/>
       <use xlink:href="#MicrosoftYaHei-30" transform="translate(200 0)"/>
      </g>
     </g>
    </g>
    <g id="xtick_12">
     <g id="line2d_12">
      <g>
       <use xlink:href="#ma94b193be0" x="596.617812" y="276.67125" style="stroke: #000000; stroke-width: 0.8"/>
      </g>
     </g>
     <g id="text_12">
      <!-- 22:00 -->
      <g transform="translate(586.272187 290.06625) scale(0.08 -0.08)">
       <use xlink:href="#MicrosoftYaHei-32"/>
       <use xlink:href="#MicrosoftYaHei-32" transform="translate(58.642578 0)"/>
       <use xlink:href="#MicrosoftYaHei-3a" transform="translate(117.285156 0)"/>
       <use xlink:href="#MicrosoftYaHei-30" transform="translate(141.357422 0)"/>
       <use xlink:href="#MicrosoftYaHei-30" transform="translate(200 0)"/>
      </g>
     </g>
    </g>
    <g id="text_13">
     <!-- 时间 -->
     <g transform="translate(328.767812 305.6475) scale(0.12 -0.12)">
      <defs>
       <path id="MicrosoftYaHei-65f6" d="M 344 4728 
L 2500 4728 
L 2500 -366 
L 2006 -366 
L 2006 153 
L 838 153 
L 838 -441 
L 344 -441 
L 344 4728 
z
M 2706 3941 
L 4925 3941 
L 4925 5322 
L 5425 5322 
L 5425 3941 
L 6313 3941 
L 6313 3478 
L 5425 3478 
L 5425 116 
Q 5425 -722 4625 -722 
Q 4263 -722 3563 -703 
Q 3531 -478 3463 -178 
Q 4119 -228 4488 -228 
Q 4925 -228 4925 216 
L 4925 3478 
L 2706 3478 
L 2706 3941 
z
M 838 616 
L 2006 616 
L 2006 2234 
L 838 2234 
L 838 616 
z
M 2006 4266 
L 838 4266 
L 838 2684 
L 2006 2684 
L 2006 4266 
z
M 3406 2878 
Q 3906 1966 4163 1422 
Q 4000 1347 3663 1172 
Q 3419 1766 2963 2653 
L 3406 2878 
z
" transform="scale(0.015625)"/>
       <path id="MicrosoftYaHei-95f4" d="M 1863 3647 
L 4513 3647 
L 4513 553 
L 2313 553 
L 2313 166 
L 1863 166 
L 1863 3647 
z
M 2388 4453 
L 2388 4922 
L 6013 4922 
L 6013 -28 
Q 6013 -816 5119 -816 
Q 4756 -816 4169 -803 
Q 4144 -616 4069 -297 
Q 4588 -334 5056 -334 
Q 5525 -334 5525 122 
L 5525 4453 
L 2388 4453 
z
M 419 4084 
L 906 4084 
L 906 -816 
L 419 -816 
L 419 4084 
z
M 2313 997 
L 4063 997 
L 4063 1884 
L 2313 1884 
L 2313 997 
z
M 4063 3203 
L 2313 3203 
L 2313 2328 
L 4063 2328 
L 4063 3203 
z
M 744 5003 
L 1100 5322 
Q 1575 4872 1981 4447 
L 1575 4091 
Q 1194 4541 744 5003 
z
" transform="scale(0.015625)"/>
      </defs>
      <use xlink:href="#MicrosoftYaHei-65f6"/>
      <use xlink:href="#MicrosoftYaHei-95f4" transform="translate(100 0)"/>
     </g>
    </g>
   </g>
   <g id="matplotlib.axis_2">
    <g id="ytick_1">
     <g id="line2d_13">
      <path d="M 48.367812 276.67125 
L 633.167812 276.67125 
" clip-path="url(#p17576b7d20)" style="fill: none; stroke: #b0b0b0; stroke-opacity: 0.2; stroke-width: 0.8; stroke-linecap: square"/>
     </g>
     <g id="line2d_14">
      <defs>
       <path id="m765ed4ba0c" d="M 0 0 
L -3.5 0 
" style="stroke: #000000; stroke-width: 0.8"/>
      </defs>
      <g>
       <use xlink:href="#m765ed4ba0c" x="48.367812" y="276.67125" style="stroke: #000000; stroke-width: 0.8"/>
      </g>
     </g>
     <g id="text_14">
      <!-- 0 -->
      <g transform="translate(35.50375 280.668125) scale(0.1 -0.1)">
       <use xlink:href="#MicrosoftYaHei-30"/>
      </g>
     </g>
    </g>
    <g id="ytick_2">
     <g id="line2d_15">
      <path d="M 48.367812 230.802159 
L 633.167812 230.802159 
" clip-path="url(#p17576b7d20)" style="fill: none; stroke: #b0b0b0; stroke-opacity: 0.2; stroke-width: 0.8; stroke-linecap: square"/>
     </g>
     <g id="line2d_16">
      <g>
       <use xlink:href="#m765ed4ba0c" x="48.367812" y="230.802159" style="stroke: #000000; stroke-width: 0.8"/>
      </g>
     </g>
     <g id="text_15">
      <!-- 20 -->
      <g transform="translate(29.639688 234.799034) scale(0.1 -0.1)">
       <use xlink:href="#MicrosoftYaHei-32"/>
       <use xlink:href="#MicrosoftYaHei-30" transform="translate(58.642578 0)"/>
      </g>
     </g>
    </g>
    <g id="ytick_3">
     <g id="line2d_17">
      <path d="M 48.367812 184.933068 
L 633.167812 184.933068 
" clip-path="url(#p17576b7d20)" style="fill: none; stroke: #b0b0b0; stroke-opacity: 0.2; stroke-width: 0.8; stroke-linecap: square"/>
     </g>
     <g id="line2d_18">
      <g>
       <use xlink:href="#m765ed4ba0c" x="48.367812" y="184.933068" style="stroke: #000000; stroke-width: 0.8"/>
      </g>
     </g>
     <g id="text_16">
      <!-- 40 -->
      <g transform="translate(29.639688 188.929943) scale(0.1 -0.1)">
       <use xlink:href="#MicrosoftYaHei-34"/>
       <use xlink:href="#MicrosoftYaHei-30" transform="translate(58.642578 0)"/>
      </g>
     </g>
    </g>
    <g id="ytick_4">
     <g id="line2d_19">
      <path d="M 48.367812 139.063977 
L 633.167812 139.063977 
" clip-path="url(#p17576b7d20)" style="fill: none; stroke: #b0b0b0; stroke-opacity: 0.2; stroke-width: 0.8; stroke-linecap: square"/>
     </g>
     <g id="line2d_20">
      <g>
       <use xlink:href="#m765ed4ba0c" x="48.367812" y="139.063977" style="stroke: #000000; stroke-width: 0.8"/>
      </g>
     </g>
     <g id="text_17">
      <!-- 60 -->
      <g transform="translate(29.639688 143.060852) scale(0.1 -0.1)">
       <use xlink:href="#MicrosoftYaHei-36"/>
       <use xlink:href="#MicrosoftYaHei-30" transform="translate(58.642578 0)"/>
      </g>
     </g>
    </g>
    <g id="ytick_5">
     <g id="line2d_21">
      <path d="M 48.367812 93.194886 
L 633.167812 93.194886 
" clip-path="url(#p17576b7d20)" style="fill: none; stroke: #b0b0b0; stroke-opacity: 0.2; stroke-width: 0.8; stroke-linecap: square"/>
     </g>
     <g id="line2d_22">
      <g>
       <use xlink:href="#m765ed4ba0c" x="48.367812" y="93.194886" style="stroke: #000000; stroke-width: 0.8"/>
      </g>
     </g>
     <g id="text_18">
      <!-- 80 -->
      <g transform="translate(29.639688 97.191761) scale(0.1 -0.1)">
       <use xlink:href="#MicrosoftYaHei-38"/>
       <use xlink:href="#MicrosoftYaHei-30" transform="translate(58.642578 0)"/>
      </g>
     </g>
    </g>
    <g id="ytick_6">
     <g id="line2d_23">
      <path d="M 48.367812 47.325795 
L 633.167812 47.325795 
" clip-path="url(#p17576b7d20)" style="fill: none; stroke: #b0b0b0; stroke-opacity: 0.2; stroke-width: 0.8; stroke-linecap: square"/>
     </g>
     <g id="line2d_24">
      <g>
       <use xlink:href="#m765ed4ba0c" x="48.367812" y="47.325795" style="stroke: #000000; stroke-width: 0.8"/>
      </g>
     </g>
     <g id="text_19">
      <!-- 100 -->
      <g transform="translate(23.775625 51.32267) scale(0.1 -0.1)">
       <use xlink:href="#MicrosoftYaHei-31"/>
       <use xlink:href="#MicrosoftYaHei-30" transform="translate(58.642578 0)"/>
       <use xlink:href="#MicrosoftYaHei-30" transform="translate(117.285156 0)"/>
      </g>
     </g>
    </g>
    <g id="text_20">
     <!-- 精力水平 -->
     <g transform="translate(16.7925 174.53125) rotate(-90) scale(0.12 -0.12)">
      <defs>
       <path id="MicrosoftYaHei-7cbe" d="M 3225 -822 
L 2775 -822 
L 2775 2347 
L 5919 2347 
L 5919 -91 
Q 5919 -772 5219 -772 
L 4200 -772 
Q 4169 -572 4106 -291 
Q 4688 -328 5063 -328 
Q 5469 -328 5469 9 
L 5469 297 
L 3225 297 
L 3225 -822 
z
M 2488 3122 
L 4106 3122 
L 4106 3553 
L 2750 3553 
L 2750 3947 
L 4106 3947 
L 4106 4366 
L 2588 4366 
L 2588 4759 
L 4106 4759 
L 4106 5322 
L 4556 5322 
L 4556 4759 
L 6200 4759 
L 6200 4366 
L 4556 4366 
L 4556 3947 
L 6013 3947 
L 6013 3553 
L 4556 3553 
L 4556 3122 
L 6288 3122 
L 6288 2728 
L 2488 2728 
L 2488 3122 
z
M 56 578 
Q 663 1497 1044 2628 
L 138 2628 
L 138 3028 
L 1094 3028 
L 1094 5303 
L 1506 5303 
L 1506 3028 
L 2313 3028 
L 2313 2628 
L 1506 2628 
L 1506 1853 
L 1738 2041 
Q 2263 1534 2581 1166 
L 2256 866 
Q 1863 1347 1506 1722 
L 1506 -847 
L 1094 -847 
L 1094 1784 
Q 731 841 250 72 
Q 150 353 56 578 
z
M 5469 1947 
L 3225 1947 
L 3225 1509 
L 5469 1509 
L 5469 1947 
z
M 3225 684 
L 5469 684 
L 5469 1122 
L 3225 1122 
L 3225 684 
z
M 1625 3559 
Q 1900 4166 2081 4834 
L 2481 4691 
Q 2250 3997 1994 3397 
L 1625 3559 
z
M 150 4709 
L 519 4841 
Q 744 4209 944 3572 
L 550 3409 
Q 338 4172 150 4709 
z
" transform="scale(0.015625)"/>
       <path id="MicrosoftYaHei-529b" d="M 400 3916 
L 2425 3916 
Q 2444 4603 2450 5316 
L 2994 5316 
Q 2981 4653 2963 3916 
L 5831 3916 
Q 5756 1472 5688 459 
Q 5606 -616 4538 -628 
Q 4025 -628 3300 -603 
Q 3275 -359 3206 -9 
L 3225 -9 
Q 4038 -84 4488 -78 
Q 5094 -66 5156 591 
Q 5231 1709 5269 3403 
L 2950 3403 
Q 2894 1775 2431 953 
Q 1938 41 506 -803 
Q 331 -578 131 -328 
Q 1488 434 1913 1209 
Q 2353 1913 2406 3403 
L 400 3403 
L 400 3916 
z
" transform="scale(0.015625)"/>
       <path id="MicrosoftYaHei-6c34" d="M 2925 5297 
L 3431 5297 
L 3431 4294 
Q 3700 3563 4047 2934 
Q 4738 3509 5425 4309 
L 5844 3934 
Q 5113 3169 4300 2506 
Q 5125 1200 6319 384 
Q 6056 122 5894 -84 
Q 4250 1209 3431 3119 
L 3431 197 
Q 3431 -734 2538 -734 
Q 2263 -734 1725 -728 
Q 1694 -497 1625 -166 
Q 2125 -216 2438 -216 
Q 2925 -216 2925 253 
L 2925 5297 
z
M 256 3297 
L 256 3772 
L 2413 3772 
L 2413 3316 
Q 1881 1266 475 -197 
Q 263 47 94 184 
Q 1506 1672 1913 3297 
L 256 3297 
z
" transform="scale(0.015625)"/>
       <path id="MicrosoftYaHei-5e73" d="M 169 1934 
L 2938 1934 
L 2938 4547 
L 450 4547 
L 450 5028 
L 5975 5028 
L 5975 4547 
L 3463 4547 
L 3463 1934 
L 6250 1934 
L 6250 1453 
L 3463 1453 
L 3463 -847 
L 2938 -847 
L 2938 1453 
L 169 1453 
L 169 1934 
z
M 3950 2559 
Q 4638 3284 5188 4159 
L 5656 3859 
Q 4950 2891 4338 2234 
L 3950 2559 
z
M 769 3859 
L 1163 4134 
Q 1863 3316 2369 2553 
L 1925 2222 
Q 1444 3003 769 3859 
z
" transform="scale(0.015625)"/>
      </defs>
      <use xlink:href="#MicrosoftYaHei-7cbe"/>
      <use xlink:href="#MicrosoftYaHei-529b" transform="translate(100 0)"/>
      <use xlink:href="#MicrosoftYaHei-6c34" transform="translate(200 0)"/>
      <use xlink:href="#MicrosoftYaHei-5e73" transform="translate(300 0)"/>
     </g>
    </g>
   </g>
   <g id="patch_27">
    <path d="M 48.367812 276.67125 
L 48.367812 24.39125 
" style="fill: none; stroke: #000000; stroke-width: 0.8; stroke-linejoin: miter; stroke-linecap: square"/>
   </g>
   <g id="patch_28">
    <path d="M 633.167812 276.67125 
L 633.167812 24.39125 
" style="fill: none; stroke: #000000; stroke-width: 0.8; stroke-linejoin: miter; stroke-linecap: square"/>
   </g>
   <g id="patch_29">
    <path d="M 48.367812 276.67125 
L 633.167812 276.67125 
" style="fill: none; stroke: #000000; stroke-width: 0.8; stroke-linejoin: miter; stroke-linecap: square"/>
   </g>
   <g id="patch_30">
    <path d="M 48.367812 24.39125 
L 633.167812 24.39125 
" style="fill: none; stroke: #000000; stroke-width: 0.8; stroke-linejoin: miter; stroke-linecap: square"/>
   </g>
   <g id="patch_31">
    <path d="M 231.117812 199.101689 
Q 231.117812 202.485216 231.117812 204.750709 
" style="fill: none; stroke: #d0a060; stroke-linecap: round"/>
    <path d="M 232.917812 201.150709 
L 231.117812 204.750709 
L 229.317812 201.150709 
" style="fill: none; stroke: #d0a060; stroke-linecap: round"/>
   </g>
   <g id="text_21">
    <!-- 起床最佳 -->
    <g style="fill: #d0a060" transform="translate(213.117812 192.867614) scale(0.09 -0.09)">
     <defs>
      <path id="MicrosoftYaHei-Bold-8d77" d="M 3281 2441 
L 2500 2441 
L 2500 1747 
L 3200 1747 
L 3200 978 
L 2500 978 
L 2500 188 
Q 2806 150 3797 150 
Q 4741 150 6313 184 
Q 6150 -222 6013 -703 
Q 3516 -703 2520 -643 
Q 1525 -584 1091 131 
Q 959 -431 744 -853 
Q 513 -597 88 -147 
Q 494 666 488 2191 
L 1288 2191 
Q 1288 1644 1247 1166 
Q 1403 775 1681 538 
L 1681 2441 
L 106 2441 
L 106 3209 
L 1325 3209 
L 1325 3784 
L 319 3784 
L 319 4553 
L 1325 4553 
L 1325 5353 
L 2181 5353 
L 2181 4553 
L 3106 4553 
L 3106 3784 
L 2181 3784 
L 2181 3209 
L 3281 3209 
L 3281 2441 
z
M 5369 2347 
Q 5888 2122 6225 2009 
Q 6138 1266 6025 1041 
Q 5844 497 5069 497 
L 4325 497 
Q 3475 497 3475 1397 
L 3475 3341 
L 5063 3341 
L 5063 4241 
L 3350 4241 
L 3350 5003 
L 5913 5003 
L 5913 2578 
L 4325 2578 
L 4325 1547 
Q 4325 1259 4638 1259 
L 4925 1259 
Q 5178 1259 5258 1400 
Q 5338 1541 5369 2347 
z
" transform="scale(0.015625)"/>
      <path id="MicrosoftYaHei-Bold-5e8a" d="M 2781 5116 
L 3788 5353 
L 4075 4634 
L 6225 4634 
L 6225 3847 
L 1438 3847 
L 1438 2491 
Q 1438 1294 1284 494 
Q 2306 1181 3047 2166 
L 1625 2166 
L 1625 2928 
L 3363 2928 
L 3363 3722 
L 4225 3722 
L 4225 2928 
L 6075 2928 
L 6075 2166 
L 4484 2166 
Q 5175 1172 6344 553 
Q 6038 172 5800 -222 
Q 4813 459 4225 1444 
L 4225 -834 
L 3363 -834 
L 3363 1459 
Q 2731 469 1763 -272 
Q 1572 -9 1247 328 
Q 1091 -394 800 -859 
L 94 -259 
Q 619 653 613 2603 
L 613 4634 
L 2981 4634 
Q 2875 4900 2781 5116 
z
" transform="scale(0.015625)"/>
      <path id="MicrosoftYaHei-Bold-6700" d="M 838 5109 
L 5563 5109 
L 5563 3134 
L 838 3134 
L 838 5109 
z
M 4700 4609 
L 1700 4609 
L 1700 4341 
L 4700 4341 
L 4700 4609 
z
M 4700 3634 
L 4700 3903 
L 1700 3903 
L 1700 3634 
L 4700 3634 
z
M 6038 1909 
L 6038 1328 
Q 5772 741 5366 294 
Q 5794 100 6313 -3 
Q 6156 -266 5938 -766 
Q 5284 -584 4747 -244 
Q 4256 -588 3631 -797 
Q 3534 -644 3363 -341 
Q 3259 -353 3163 -359 
L 3163 -866 
L 2400 -866 
L 2400 -428 
L 250 -641 
L 144 59 
L 613 84 
L 613 2241 
L 94 2241 
L 94 2853 
L 6306 2853 
L 6306 2241 
L 3163 2241 
L 3163 291 
L 3513 328 
Q 3488 169 3472 6 
Q 3819 109 4106 256 
Q 3741 609 3450 1066 
L 3813 1309 
L 3338 1309 
L 3338 1909 
L 6038 1909 
z
M 1375 1891 
L 2400 1891 
L 2400 2241 
L 1375 2241 
L 1375 1891 
z
M 1375 1066 
L 2400 1066 
L 2400 1416 
L 1375 1416 
L 1375 1066 
z
M 4722 672 
Q 5031 950 5238 1309 
L 4088 1309 
Q 4359 944 4722 672 
z
M 2400 219 
L 2400 591 
L 1375 591 
L 1375 138 
L 2400 219 
z
" transform="scale(0.015625)"/>
      <path id="MicrosoftYaHei-Bold-4f73" d="M 1363 5316 
L 2206 5066 
Q 1988 4375 1713 3741 
L 1713 -791 
L 894 -791 
L 894 2163 
Q 638 1753 356 1372 
Q 269 1878 88 2509 
Q 838 3603 1363 5316 
z
M 2069 3159 
L 3700 3159 
L 3700 3822 
L 2394 3822 
L 2394 4566 
L 3700 4566 
L 3700 5297 
L 4594 5297 
L 4594 4566 
L 5975 4566 
L 5975 3822 
L 4594 3822 
L 4594 3159 
L 6275 3159 
L 6275 2416 
L 2069 2416 
L 2069 3159 
z
M 2019 178 
L 3700 178 
L 3700 922 
L 2281 922 
L 2281 1666 
L 3700 1666 
L 3700 2247 
L 4594 2247 
L 4594 1666 
L 5969 1666 
L 5969 922 
L 4594 922 
L 4594 178 
L 6300 178 
L 6300 -566 
L 2019 -566 
L 2019 178 
z
" transform="scale(0.015625)"/>
     </defs>
     <use xlink:href="#MicrosoftYaHei-Bold-8d77"/>
     <use xlink:href="#MicrosoftYaHei-Bold-5e8a" transform="translate(100 0)"/>
     <use xlink:href="#MicrosoftYaHei-Bold-6700" transform="translate(200 0)"/>
     <use xlink:href="#MicrosoftYaHei-Bold-4f73" transform="translate(300 0)"/>
    </g>
   </g>
   <g id="text_22">
    <!-- 精力高峰 -->
    <g style="fill: #5688cc" transform="translate(334.951146 35.325795) scale(0.09 -0.09)">
     <defs>
      <path id="MicrosoftYaHei-Bold-7cbe" d="M 2463 3203 
L 3950 3203 
L 3950 3478 
L 2713 3478 
L 2713 4016 
L 3950 4016 
L 3950 4291 
L 2588 4291 
L 2588 4828 
L 3950 4828 
L 3950 5328 
L 4763 5328 
L 4763 4828 
L 6206 4828 
L 6206 4291 
L 4763 4291 
L 4763 4016 
L 6069 4016 
L 6069 3478 
L 4763 3478 
L 4763 3203 
L 6306 3203 
L 6306 2666 
L 2463 2666 
L 2463 3203 
z
M 131 3097 
L 906 3097 
L 906 5291 
L 1644 5291 
L 1644 3097 
L 2338 3097 
L 2338 2434 
L 1644 2434 
L 1644 1772 
L 1900 2016 
Q 2300 1634 2638 1272 
L 2138 784 
Q 1956 1013 1644 1356 
L 1644 -828 
L 906 -828 
L 906 1091 
Q 619 416 288 -72 
Q 181 322 25 859 
Q 472 1450 869 2434 
L 131 2434 
L 131 3097 
z
M 2038 4822 
L 2544 4666 
Q 2363 4047 2138 3409 
L 1675 3578 
L 2038 4822 
z
M 550 4822 
Q 738 4122 869 3572 
L 375 3416 
Q 244 4028 63 4672 
L 550 4822 
z
M 3506 -816 
L 2744 -816 
L 2744 2428 
L 6025 2428 
L 6025 72 
Q 6025 -356 5847 -572 
Q 5669 -788 5339 -792 
Q 5009 -797 4313 -797 
Q 4256 -509 4150 -153 
Q 4803 -191 4988 -191 
Q 5263 -191 5263 122 
L 5263 203 
L 3506 203 
L 3506 -816 
z
M 5263 1841 
L 3506 1841 
L 3506 1541 
L 5263 1541 
L 5263 1841 
z
M 3506 722 
L 5263 722 
L 5263 1022 
L 3506 1022 
L 3506 722 
z
" transform="scale(0.015625)"/>
      <path id="MicrosoftYaHei-Bold-529b" d="M 2094 5309 
L 3063 5309 
L 3022 4066 
L 5988 4066 
L 5931 2203 
Q 5897 1225 5859 593 
Q 5822 -38 5489 -373 
Q 5156 -709 4611 -721 
Q 4066 -734 3225 -728 
Q 3138 -184 3038 247 
Q 3531 197 4188 197 
Q 4503 197 4665 320 
Q 4828 444 4876 623 
Q 4925 803 4964 1515 
Q 5003 2228 5025 3241 
L 2978 3241 
Q 2919 603 769 -891 
Q 444 -491 38 -84 
Q 1963 1059 2031 3241 
L 381 3241 
L 381 4066 
L 2075 4066 
Q 2097 4644 2094 5309 
z
" transform="scale(0.015625)"/>
      <path id="MicrosoftYaHei-Bold-9ad8" d="M 138 4853 
L 2734 4853 
Q 2647 5063 2569 5234 
L 3575 5384 
Q 3688 5103 3778 4853 
L 6275 4853 
L 6275 4216 
L 138 4216 
L 138 4853 
z
M 1031 2553 
L 1031 3953 
L 5394 3953 
L 5394 2553 
L 1031 2553 
z
M 4556 3091 
L 4556 3416 
L 1869 3416 
L 1869 3091 
L 4556 3091 
z
M 438 2284 
L 6000 2284 
L 6000 222 
Q 6000 -225 5825 -469 
Q 5650 -713 5356 -764 
Q 5063 -816 4156 -816 
Q 4088 -434 3994 -84 
Q 4350 -116 4756 -116 
Q 5175 -116 5175 291 
L 5175 1659 
L 1263 1659 
L 1263 -797 
L 438 -797 
L 438 2284 
z
M 1806 -228 
L 1806 1384 
L 4619 1384 
L 4619 -34 
L 2556 -34 
L 2556 -228 
L 1806 -228 
z
M 3869 491 
L 3869 859 
L 2556 859 
L 2556 491 
L 3869 491 
z
" transform="scale(0.015625)"/>
      <path id="MicrosoftYaHei-Bold-5cf0" d="M 2425 4241 
L 2425 2972 
Q 3169 3116 3738 3353 
Q 3538 3522 3375 3703 
Q 3188 3509 2994 3322 
Q 2756 3603 2531 3797 
Q 3188 4403 3750 5322 
L 4613 5222 
Q 4481 5034 4344 4859 
L 5869 4859 
L 5869 4253 
Q 5588 3759 5106 3372 
Q 5638 3216 6338 3134 
Q 6250 2847 6138 2416 
Q 5069 2603 4400 2916 
Q 3669 2541 2663 2309 
Q 2544 2628 2425 2884 
L 2425 -266 
L 1888 -266 
L 1888 9 
L 250 -116 
L 250 4241 
L 788 4241 
L 788 647 
L 1006 666 
L 1006 5253 
L 1669 5253 
L 1669 716 
L 1888 734 
L 1888 4241 
L 2425 4241 
z
M 2613 566 
L 4013 566 
L 4013 903 
L 2894 903 
L 2894 1428 
L 4013 1428 
L 4013 1766 
L 2794 1766 
L 2794 2291 
L 4013 2291 
L 4013 2584 
L 4788 2584 
L 4788 2291 
L 5994 2291 
L 5994 1766 
L 4788 1766 
L 4788 1428 
L 5925 1428 
L 5925 903 
L 4788 903 
L 4788 566 
L 6213 566 
L 6213 -16 
L 4788 -16 
L 4788 -847 
L 4013 -847 
L 4013 -16 
L 2613 -16 
L 2613 566 
z
M 4381 3691 
Q 4744 3922 4994 4209 
L 3825 4209 
Q 3813 4197 3806 4184 
Q 4038 3916 4381 3691 
z
" transform="scale(0.015625)"/>
     </defs>
     <use xlink:href="#MicrosoftYaHei-Bold-7cbe"/>
     <use xlink:href="#MicrosoftYaHei-Bold-529b" transform="translate(100 0)"/>
     <use xlink:href="#MicrosoftYaHei-Bold-9ad8" transform="translate(200 0)"/>
     <use xlink:href="#MicrosoftYaHei-Bold-5cf0" transform="translate(300 0)"/>
    </g>
   </g>
   <g id="patch_32">
    <path d="M 426.051146 122.933576 
Q 426.051146 120.529866 426.051146 119.24419 
" style="fill: none; stroke: #d18080; stroke-linecap: round"/>
    <path d="M 424.251146 122.84419 
L 426.051146 119.24419 
L 427.851146 122.84419 
" style="fill: none; stroke: #d18080; stroke-linecap: round"/>
   </g>
   <g id="text_23">
    <!-- 午后低谷 -->
    <g style="fill: #d18080" transform="translate(408.051146 134.129432) scale(0.09 -0.09)">
     <defs>
      <path id="MicrosoftYaHei-Bold-5348" d="M 100 2291 
L 2869 2291 
L 2869 3728 
L 1825 3728 
Q 1491 3100 1150 2647 
Q 744 2941 319 3159 
Q 1175 4278 1531 5353 
L 2481 5134 
Q 2359 4838 2234 4566 
L 5800 4566 
L 5800 3728 
L 3856 3728 
L 3856 2291 
L 6325 2291 
L 6325 1441 
L 3856 1441 
L 3856 -841 
L 2869 -841 
L 2869 1441 
L 100 1441 
L 100 2291 
z
" transform="scale(0.015625)"/>
      <path id="MicrosoftYaHei-Bold-540e" d="M 1638 2266 
Q 1638 378 894 -897 
Q 538 -572 75 -209 
Q 750 791 750 2409 
L 750 4816 
Q 3744 4903 5525 5141 
L 6069 4322 
Q 4269 4122 1638 4009 
L 1638 3441 
L 6194 3441 
L 6194 2609 
L 1638 2609 
L 1638 2266 
z
M 1975 -834 
L 1975 2041 
L 5813 2041 
L 5813 -834 
L 4938 -834 
L 4938 -572 
L 2850 -572 
L 2850 -834 
L 1975 -834 
z
M 4938 1228 
L 2850 1228 
L 2850 241 
L 4938 241 
L 4938 1228 
z
" transform="scale(0.015625)"/>
      <path id="MicrosoftYaHei-Bold-4f4e" d="M 1331 5322 
L 2119 5072 
Q 1894 4341 1594 3669 
L 1594 -784 
L 788 -784 
L 788 2178 
Q 547 1806 281 1459 
Q 206 2009 81 2616 
Q 856 3759 1331 5322 
z
M 3000 741 
Q 3263 853 3975 1284 
Q 4013 903 4075 466 
Q 3969 409 3763 291 
Q 4022 -66 4281 -441 
L 3563 -859 
Q 3328 -416 3103 -88 
Q 2606 -366 2363 -572 
L 1919 147 
Q 2194 391 2194 884 
L 2194 4784 
Q 3606 4872 5850 5141 
Q 5950 4766 6044 4366 
Q 5503 4297 4759 4225 
Q 4759 3728 4800 3028 
L 6225 3028 
L 6225 2253 
L 4847 2253 
Q 4938 1047 5098 634 
Q 5259 222 5403 222 
Q 5469 222 5523 361 
Q 5578 500 5656 1366 
Q 5969 1184 6300 1041 
Q 6191 -94 6023 -412 
Q 5856 -731 5447 -731 
Q 4206 -731 4041 2253 
L 3000 2253 
L 3000 741 
z
M 3000 4072 
L 3000 3028 
L 4000 3028 
L 3956 4150 
L 3000 4072 
z
" transform="scale(0.015625)"/>
      <path id="MicrosoftYaHei-Bold-8c37" d="M 1088 -803 
L 1088 1641 
Q 850 1503 594 1366 
Q 413 1603 31 2053 
Q 1900 2816 2794 4197 
L 3925 4197 
L 3744 3966 
Q 4744 2734 6300 2116 
Q 5963 1716 5738 1416 
Q 5506 1516 5294 1628 
L 5294 -803 
L 4419 -803 
L 4419 -403 
L 1963 -403 
L 1963 -803 
L 1088 -803 
z
M 4419 1203 
L 1963 1203 
L 1963 322 
L 4419 322 
L 4419 1203 
z
M 2175 5366 
L 2831 4803 
Q 1650 3766 756 3203 
Q 544 3484 194 3897 
Q 1281 4466 2175 5366 
z
M 3225 3391 
Q 2650 2641 1550 1928 
L 4794 1928 
Q 3888 2522 3225 3391 
z
M 4181 5322 
Q 5456 4478 6200 3947 
L 5625 3266 
Q 5056 3766 3681 4803 
L 4181 5322 
z
" transform="scale(0.015625)"/>
     </defs>
     <use xlink:href="#MicrosoftYaHei-Bold-5348"/>
     <use xlink:href="#MicrosoftYaHei-Bold-540e" transform="translate(100 0)"/>
     <use xlink:href="#MicrosoftYaHei-Bold-4f4e" transform="translate(200 0)"/>
     <use xlink:href="#MicrosoftYaHei-Bold-8c37" transform="translate(300 0)"/>
    </g>
   </g>
   <g id="text_24">
    <!-- 第二次高峰 -->
    <g style="fill: #5688cc" transform="translate(525.384479 69.727614) scale(0.09 -0.09)">
     <defs>
      <path id="MicrosoftYaHei-Bold-7b2c" d="M 1113 5347 
L 1969 5347 
Q 1866 5125 1753 4916 
L 3306 4916 
L 3306 4347 
Q 3678 4806 3900 5347 
L 4763 5347 
Q 4678 5125 4584 4916 
L 6238 4916 
L 6238 4322 
L 5178 4322 
Q 5378 4150 5556 3972 
L 5178 3659 
L 5850 3659 
L 5850 1941 
L 3675 1941 
L 3675 1566 
L 6144 1566 
Q 6109 56 5954 -128 
Q 5800 -313 5619 -436 
Q 5438 -559 4131 -547 
Q 4050 -178 3919 222 
Q 4750 184 4772 184 
Q 4984 184 5101 256 
Q 5219 328 5244 442 
Q 5269 556 5294 891 
L 3675 891 
L 3675 -828 
L 2819 -828 
L 2819 713 
Q 2019 -191 556 -791 
Q 375 -484 88 -34 
Q 1234 338 1925 891 
L 450 891 
L 750 2616 
L 2819 2616 
L 2819 2991 
L 675 2991 
L 675 3528 
Q 600 3459 525 3397 
Q 288 3697 25 3972 
Q 750 4584 1113 5347 
z
M 2347 4322 
Q 2566 4134 2781 3928 
L 2450 3659 
L 3744 3659 
Q 3459 3869 3106 4097 
Q 3203 4206 3294 4322 
L 2347 4322 
z
M 1638 4122 
L 1897 4322 
L 1375 4322 
Q 1119 3963 809 3659 
L 2100 3659 
Q 1897 3872 1638 4122 
z
M 3784 3659 
L 4941 3659 
Q 4728 3884 4450 4134 
L 4672 4322 
L 4269 4322 
Q 4050 3966 3784 3659 
z
M 5006 2616 
L 5006 2991 
L 3675 2991 
L 3675 2616 
L 5006 2616 
z
M 1394 1566 
L 2819 1566 
L 2819 1941 
L 1463 1941 
L 1394 1566 
z
" transform="scale(0.015625)"/>
      <path id="MicrosoftYaHei-Bold-4e8c" d="M 650 4641 
L 5750 4641 
L 5750 3703 
L 650 3703 
L 650 4641 
z
M 200 778 
L 6213 778 
L 6213 -172 
L 200 -172 
L 200 778 
z
" transform="scale(0.015625)"/>
      <path id="MicrosoftYaHei-Bold-6b21" d="M 6163 4466 
L 6163 3741 
L 5663 2572 
L 4838 2734 
L 5288 3697 
L 3153 3697 
Q 2884 3081 2550 2528 
Q 2113 2778 1700 2966 
Q 2425 4059 2856 5353 
L 3706 5228 
Q 3594 4838 3459 4466 
L 6163 4466 
z
M 844 5109 
Q 1400 4422 1869 3766 
L 1081 3203 
Q 669 3922 138 4647 
L 844 5109 
z
M 3525 3328 
L 4350 3328 
Q 4334 2925 4278 2553 
Q 4934 606 6325 59 
Q 6050 -297 5800 -784 
Q 4588 -66 3978 1409 
Q 3422 -19 2031 -878 
Q 1725 -428 1400 -109 
Q 3469 916 3525 3328 
z
M 1150 2653 
Q 1588 2428 2006 2247 
Q 1500 1053 944 -391 
L 88 16 
Q 650 1209 1150 2653 
z
" transform="scale(0.015625)"/>
     </defs>
     <use xlink:href="#MicrosoftYaHei-Bold-7b2c"/>
     <use xlink:href="#MicrosoftYaHei-Bold-4e8c" transform="translate(100 0)"/>
     <use xlink:href="#MicrosoftYaHei-Bold-6b21" transform="translate(200 0)"/>
     <use xlink:href="#MicrosoftYaHei-Bold-9ad8" transform="translate(300 0)"/>
     <use xlink:href="#MicrosoftYaHei-Bold-5cf0" transform="translate(400 0)"/>
    </g>
   </g>
   <g id="text_25">
    <!-- 一日生物钟 精力变化规律 -->
    <g transform="translate(261.683125 18.39125) scale(0.14 -0.14)">
     <defs>
      <path id="MicrosoftYaHei-Bold-4e00" d="M 188 2716 
L 6225 2716 
L 6225 1791 
L 188 1791 
L 188 2716 
z
" transform="scale(0.015625)"/>
      <path id="MicrosoftYaHei-Bold-65e5" d="M 750 -778 
L 750 4972 
L 5688 4972 
L 5688 -778 
L 4725 -778 
L 4725 -341 
L 1713 -341 
L 1713 -778 
L 750 -778 
z
M 4725 4084 
L 1713 4084 
L 1713 2772 
L 4725 2772 
L 4725 4084 
z
M 1713 547 
L 4725 547 
L 4725 1909 
L 1713 1909 
L 1713 547 
z
" transform="scale(0.015625)"/>
      <path id="MicrosoftYaHei-Bold-751f" d="M 350 291 
L 2981 291 
L 2981 1353 
L 1131 1353 
L 1131 2197 
L 2981 2197 
L 2981 3234 
L 1469 3234 
Q 1059 2428 550 1728 
Q 356 2247 125 2803 
Q 769 3659 1219 5084 
L 2150 4853 
Q 2013 4456 1856 4078 
L 2981 4078 
L 2981 5316 
L 3919 5316 
L 3919 4078 
L 5994 4078 
L 5994 3234 
L 3919 3234 
L 3919 2197 
L 5750 2197 
L 5750 1353 
L 3919 1353 
L 3919 291 
L 6219 291 
L 6219 -578 
L 350 -578 
L 350 291 
z
" transform="scale(0.015625)"/>
      <path id="MicrosoftYaHei-Bold-7269" d="M 1969 -847 
L 1181 -847 
L 1181 1078 
Q 669 984 206 884 
L 94 1791 
Q 597 1838 1181 1922 
L 1181 3172 
L 775 3172 
Q 697 2731 594 2322 
Q 300 2509 88 2603 
Q 313 3566 381 4784 
L 956 4728 
Q 931 4344 891 3978 
L 1181 3978 
L 1181 5291 
L 1969 5291 
L 1969 3978 
L 2425 3978 
L 2425 3728 
Q 2856 4553 3100 5341 
Q 3550 5259 3938 5178 
Q 3772 4738 3609 4359 
L 6075 4359 
Q 6066 3275 6028 2016 
L 5972 400 
Q 5953 47 5834 -204 
Q 5716 -456 5466 -568 
Q 5216 -681 4150 -647 
Q 4056 -134 3934 216 
Q 3497 -331 2888 -772 
Q 2494 -353 2219 -109 
Q 4194 1163 4425 3534 
L 4116 3534 
Q 3891 1925 2781 966 
Q 2597 1144 2441 1284 
L 1969 1213 
L 1969 -847 
z
M 5300 3534 
L 5025 3534 
Q 4994 1578 3966 253 
Q 4356 222 4694 222 
Q 5122 222 5187 645 
Q 5253 1069 5300 3534 
z
M 2638 2647 
Q 2384 3003 2228 3172 
L 1969 3172 
L 1969 2044 
Q 2241 2088 2531 2141 
Q 2522 2006 2516 1850 
Q 3275 2559 3519 3534 
L 3213 3534 
Q 2925 3000 2638 2647 
z
" transform="scale(0.015625)"/>
      <path id="MicrosoftYaHei-Bold-949f" d="M 2388 3866 
L 1247 3866 
Q 1141 3628 1025 3409 
L 2213 3409 
L 2213 2703 
L 1688 2703 
L 1688 2072 
L 2350 2072 
L 2350 1366 
L 1688 1366 
L 1688 434 
Q 2006 603 2400 822 
Q 2425 372 2475 -3 
Q 1406 -584 1131 -859 
L 644 -241 
Q 850 -16 838 334 
L 838 1366 
L 106 1366 
L 106 2072 
L 838 2072 
L 838 2703 
L 613 2703 
Q 475 2497 331 2309 
Q 194 2897 81 3309 
Q 631 4234 888 5341 
Q 1719 5178 1731 5178 
Q 1634 4863 1528 4566 
L 2388 4566 
L 2388 3866 
z
M 4756 -834 
L 3906 -834 
L 3906 1222 
L 3338 1222 
L 3338 853 
L 2500 853 
L 2500 4091 
L 3906 4091 
L 3906 5303 
L 4756 5303 
L 4756 4091 
L 6163 4091 
L 6163 853 
L 5325 853 
L 5325 1222 
L 4756 1222 
L 4756 -834 
z
M 5325 3322 
L 4756 3322 
L 4756 1991 
L 5325 1991 
L 5325 3322 
z
M 3338 1991 
L 3906 1991 
L 3906 3322 
L 3338 3322 
L 3338 1991 
z
" transform="scale(0.015625)"/>
      <path id="MicrosoftYaHei-Bold-20" transform="scale(0.015625)"/>
      <path id="MicrosoftYaHei-Bold-53d8" d="M 231 4616 
L 2734 4616 
L 2525 5128 
L 3425 5353 
L 3741 4616 
L 6175 4616 
L 6175 3878 
L 4350 3878 
L 4350 2434 
L 3550 2434 
L 3550 3878 
L 2850 3878 
L 2850 2434 
L 2050 2434 
L 2050 3878 
L 231 3878 
L 231 4616 
z
M 1488 3778 
L 2019 3228 
Q 1338 2684 550 2184 
Q 325 2541 88 2828 
Q 844 3272 1488 3778 
z
M 4881 3728 
Q 5538 3328 6306 2778 
L 5769 2159 
Q 5119 2666 4406 3178 
L 4881 3728 
z
M 5300 2272 
L 5300 1566 
Q 4847 913 4144 422 
Q 5063 147 6288 84 
Q 6194 -84 5825 -822 
Q 4297 -663 3200 -116 
Q 2088 -634 544 -884 
Q 363 -497 94 -66 
Q 1359 84 2338 425 
Q 1741 894 1331 1534 
L 900 1534 
L 900 2272 
L 5300 2272 
z
M 3213 794 
Q 3834 1113 4300 1534 
L 2238 1534 
Q 2631 1100 3213 794 
z
" transform="scale(0.015625)"/>
      <path id="MicrosoftYaHei-Bold-5316" d="M 1625 5297 
L 2494 5009 
Q 2200 4284 1856 3641 
L 1856 -797 
L 956 -797 
L 956 2191 
Q 653 1775 325 1403 
Q 219 1991 88 2497 
Q 1063 3728 1625 5297 
z
M 5456 4447 
L 6238 3847 
Q 5306 2809 4106 1900 
L 4106 622 
Q 4106 153 4513 153 
L 4781 153 
Q 5091 153 5189 359 
Q 5288 566 5350 1597 
Q 5863 1434 6300 1322 
Q 6188 419 6105 37 
Q 6022 -344 5705 -542 
Q 5388 -741 4831 -741 
L 4294 -741 
Q 3169 -741 3169 378 
L 3169 1234 
Q 2806 994 2425 766 
Q 2225 1097 1875 1584 
Q 2553 1947 3169 2378 
L 3169 5272 
L 4106 5272 
L 4106 3100 
Q 4834 3719 5456 4447 
z
" transform="scale(0.015625)"/>
      <path id="MicrosoftYaHei-Bold-89c4" d="M 88 2766 
L 894 2766 
L 894 3516 
L 188 3516 
L 188 4291 
L 894 4291 
L 894 5284 
L 1694 5284 
L 1694 4291 
L 2400 4291 
L 2400 3516 
L 1694 3516 
L 1694 2766 
L 2488 2766 
L 2488 1984 
L 1675 1984 
Q 1666 1816 1647 1656 
Q 2091 1247 2650 666 
Q 2306 341 2088 91 
Q 1869 369 1506 788 
Q 1278 -194 769 -878 
Q 369 -447 75 -178 
Q 747 550 866 1984 
L 88 1984 
L 88 2766 
z
M 2650 1128 
L 2650 5066 
L 5913 5066 
L 5913 1197 
L 5100 1197 
L 5100 4259 
L 3463 4259 
L 3463 1128 
L 2650 1128 
z
M 5525 978 
Q 6000 747 6306 628 
Q 6184 -291 6031 -522 
Q 5878 -753 5469 -753 
L 4906 -753 
Q 4188 -753 4188 -78 
L 4188 644 
Q 3728 -297 2613 -884 
Q 2394 -572 2044 -172 
Q 3225 394 3540 1169 
Q 3856 1944 3856 3872 
L 4688 3872 
Q 4675 2513 4506 1641 
L 4931 1641 
L 4931 222 
Q 4931 -28 5150 -28 
L 5219 -28 
Q 5369 -28 5417 112 
Q 5466 253 5525 978 
z
" transform="scale(0.015625)"/>
      <path id="MicrosoftYaHei-Bold-5f8b" d="M 1475 5347 
L 2156 4791 
Q 1375 3741 456 2941 
Q 319 3428 144 3903 
Q 925 4497 1475 5347 
z
M 1875 522 
L 3513 522 
L 3513 953 
L 2100 953 
L 2100 1616 
L 3513 1616 
L 3513 2041 
L 2300 2041 
L 2300 2703 
L 3513 2703 
L 3513 3097 
L 2019 3097 
L 2156 2972 
Q 1891 2566 1600 2194 
L 1600 -834 
L 794 -834 
L 794 1281 
Q 575 1063 344 859 
Q 219 1391 81 1834 
Q 938 2584 1538 3547 
L 2013 3103 
L 2013 3784 
L 3513 3784 
L 3513 4191 
L 2313 4191 
L 2313 4853 
L 3513 4853 
L 3513 5316 
L 4338 5316 
L 4338 4853 
L 5900 4853 
L 5900 3784 
L 6313 3784 
L 6313 3097 
L 5900 3097 
L 5900 2041 
L 4338 2041 
L 4338 1616 
L 5950 1616 
L 5950 953 
L 4338 953 
L 4338 522 
L 6213 522 
L 6213 -141 
L 4338 -141 
L 4338 -834 
L 3513 -834 
L 3513 -141 
L 1875 -141 
L 1875 522 
z
M 5125 4191 
L 4338 4191 
L 4338 3784 
L 5125 3784 
L 5125 4191 
z
M 5125 2703 
L 5125 3097 
L 4338 3097 
L 4338 2703 
L 5125 2703 
z
" transform="scale(0.015625)"/>
     </defs>
     <use xlink:href="#MicrosoftYaHei-Bold-4e00"/>
     <use xlink:href="#MicrosoftYaHei-Bold-65e5" transform="translate(100 0)"/>
     <use xlink:href="#MicrosoftYaHei-Bold-751f" transform="translate(200 0)"/>
     <use xlink:href="#MicrosoftYaHei-Bold-7269" transform="translate(300 0)"/>
     <use xlink:href="#MicrosoftYaHei-Bold-949f" transform="translate(400 0)"/>
     <use xlink:href="#MicrosoftYaHei-Bold-20" transform="translate(500 0)"/>
     <use xlink:href="#MicrosoftYaHei-Bold-7cbe" transform="translate(529.785156 0)"/>
     <use xlink:href="#MicrosoftYaHei-Bold-529b" transform="translate(629.785156 0)"/>
     <use xlink:href="#MicrosoftYaHei-Bold-53d8" transform="translate(729.785156 0)"/>
     <use xlink:href="#MicrosoftYaHei-Bold-5316" transform="translate(829.785156 0)"/>
     <use xlink:href="#MicrosoftYaHei-Bold-89c4" transform="translate(929.785156 0)"/>
     <use xlink:href="#MicrosoftYaHei-Bold-5f8b" transform="translate(1029.785156 0)"/>
    </g>
   </g>
   <g id="line2d_25">
    <path d="M 60.551146 253.736705 
L 84.917812 265.203977 
L 109.284479 269.790886 
L 133.651146 272.084341 
L 158.017812 272.084341 
L 182.384479 269.790886 
L 206.751146 253.736705 
L 231.117812 207.867614 
L 255.484479 150.53125 
L 279.851146 93.194886 
L 304.217812 70.260341 
L 328.584479 58.793068 
L 352.951146 47.325795 
L 377.317813 81.727614 
L 401.684479 116.129432 
L 426.051146 104.662159 
L 450.417812 81.727614 
L 474.784479 93.194886 
L 499.151146 127.596705 
L 523.517812 161.998523 
L 547.884479 184.933068 
L 572.251146 196.400341 
L 596.617812 207.867614 
L 620.984479 230.802159 
" clip-path="url(#p17576b7d20)" style="fill: none; stroke: #5688cc; stroke-width: 2; stroke-linecap: square"/>
    <defs>
     <path id="mdd6abdbaf0" d="M 0 2.5 
C 0.663008 2.5 1.29895 2.236584 1.767767 1.767767 
C 2.236584 1.29895 2.5 0.663008 2.5 0 
C 2.5 -0.663008 2.236584 -1.29895 1.767767 -1.767767 
C 1.29895 -2.236584 0.663008 -2.5 0 -2.5 
C -0.663008 -2.5 -1.29895 -2.236584 -1.767767 -1.767767 
C -2.236584 -1.29895 -2.5 -0.663008 -2.5 0 
C -2.5 0.663008 -2.236584 1.29895 -1.767767 1.767767 
C -1.29895 2.236584 -0.663008 2.5 0 2.5 
z
" style="stroke: #5688cc"/>
    </defs>
    <g clip-path="url(#p17576b7d20)">
     <use xlink:href="#mdd6abdbaf0" x="60.551146" y="253.736705" style="fill: #5688cc; stroke: #5688cc"/>
     <use xlink:href="#mdd6abdbaf0" x="84.917812" y="265.203977" style="fill: #5688cc; stroke: #5688cc"/>
     <use xlink:href="#mdd6abdbaf0" x="109.284479" y="269.790886" style="fill: #5688cc; stroke: #5688cc"/>
     <use xlink:href="#mdd6abdbaf0" x="133.651146" y="272.084341" style="fill: #5688cc; stroke: #5688cc"/>
     <use xlink:href="#mdd6abdbaf0" x="158.017812" y="272.084341" style="fill: #5688cc; stroke: #5688cc"/>
     <use xlink:href="#mdd6abdbaf0" x="182.384479" y="269.790886" style="fill: #5688cc; stroke: #5688cc"/>
     <use xlink:href="#mdd6abdbaf0" x="206.751146" y="253.736705" style="fill: #5688cc; stroke: #5688cc"/>
     <use xlink:href="#mdd6abdbaf0" x="231.117812" y="207.867614" style="fill: #5688cc; stroke: #5688cc"/>
     <use xlink:href="#mdd6abdbaf0" x="255.484479" y="150.53125" style="fill: #5688cc; stroke: #5688cc"/>
     <use xlink:href="#mdd6abdbaf0" x="279.851146" y="93.194886" style="fill: #5688cc; stroke: #5688cc"/>
     <use xlink:href="#mdd6abdbaf0" x="304.217812" y="70.260341" style="fill: #5688cc; stroke: #5688cc"/>
     <use xlink:href="#mdd6abdbaf0" x="328.584479" y="58.793068" style="fill: #5688cc; stroke: #5688cc"/>
     <use xlink:href="#mdd6abdbaf0" x="352.951146" y="47.325795" style="fill: #5688cc; stroke: #5688cc"/>
     <use xlink:href="#mdd6abdbaf0" x="377.317813" y="81.727614" style="fill: #5688cc; stroke: #5688cc"/>
     <use xlink:href="#mdd6abdbaf0" x="401.684479" y="116.129432" style="fill: #5688cc; stroke: #5688cc"/>
     <use xlink:href="#mdd6abdbaf0" x="426.051146" y="104.662159" style="fill: #5688cc; stroke: #5688cc"/>
     <use xlink:href="#mdd6abdbaf0" x="450.417812" y="81.727614" style="fill: #5688cc; stroke: #5688cc"/>
     <use xlink:href="#mdd6abdbaf0" x="474.784479" y="93.194886" style="fill: #5688cc; stroke: #5688cc"/>
     <use xlink:href="#mdd6abdbaf0" x="499.151146" y="127.596705" style="fill: #5688cc; stroke: #5688cc"/>
     <use xlink:href="#mdd6abdbaf0" x="523.517812" y="161.998523" style="fill: #5688cc; stroke: #5688cc"/>
     <use xlink:href="#mdd6abdbaf0" x="547.884479" y="184.933068" style="fill: #5688cc; stroke: #5688cc"/>
     <use xlink:href="#mdd6abdbaf0" x="572.251146" y="196.400341" style="fill: #5688cc; stroke: #5688cc"/>
     <use xlink:href="#mdd6abdbaf0" x="596.617812" y="207.867614" style="fill: #5688cc; stroke: #5688cc"/>
     <use xlink:href="#mdd6abdbaf0" x="620.984479" y="230.802159" style="fill: #5688cc; stroke: #5688cc"/>
    </g>
   </g>
  </g>
 </g>
 <defs>
  <clipPath id="p17576b7d20">
   <rect x="48.367812" y="24.39125" width="584.8" height="252.28"/>
  </clipPath>
 </defs>
</svg>
