<?xml version="1.0" encoding="utf-8" standalone="no"?>
<!DOCTYPE svg PUBLIC "-//W3C//DTD SVG 1.1//EN"
  "http://www.w3.org/Graphics/SVG/1.1/DTD/svg11.dtd">
<svg xmlns:xlink="http://www.w3.org/1999/xlink" width="568.343906pt" height="351.125937pt" viewBox="0 0 568.343906 351.125937" xmlns="http://www.w3.org/2000/svg" version="1.1">
 <metadata>
  <rdf:RDF xmlns:dc="http://purl.org/dc/elements/1.1/" xmlns:cc="http://creativecommons.org/ns#" xmlns:rdf="http://www.w3.org/1999/02/22-rdf-syntax-ns#">
   <cc:Work>
    <dc:type rdf:resource="http://purl.org/dc/dcmitype/StillImage"/>
    <dc:date>2026-05-22T13:43:05.782857</dc:date>
    <dc:format>image/svg+xml</dc:format>
    <dc:creator>
     <cc:Agent>
      <dc:title>Matplotlib v3.10.9, https://matplotlib.org/</dc:title>
     </cc:Agent>
    </dc:creator>
   </cc:Work>
  </rdf:RDF>
 </metadata>
 <defs>
  <style type="text/css">*{stroke-linejoin: round; stroke-linecap: butt}</style>
 </defs>
 <g id="figure_1">
  <g id="patch_1">
   <path d="M 0 351.125937 
L 568.343906 351.125937 
L 568.343906 0 
L 0 0 
z
" style="fill: #ffffff"/>
  </g>
  <g id="axes_1">
   <g id="patch_2">
    <path d="M 48.367813 309.870625 
L 552.347813 309.870625 
L 552.347813 25.190625 
L 48.367813 25.190625 
z
" style="fill: #ffffff"/>
   </g>
   <g id="matplotlib.axis_1">
    <g id="xtick_1">
     <g id="line2d_1">
      <path d="M 48.367813 309.870625 
L 48.367813 25.190625 
" clip-path="url(#p5ecaccf618)" style="fill: none; stroke: #b0b0b0; stroke-opacity: 0.3; stroke-width: 0.8; stroke-linecap: square"/>
     </g>
     <g id="line2d_2">
      <defs>
       <path id="m7496b97aa0" d="M 0 0 
L 0 3.5 
" style="stroke: #000000; stroke-width: 0.8"/>
      </defs>
      <g>
       <use xlink:href="#m7496b97aa0" x="48.367813" y="309.870625" style="stroke: #000000; stroke-width: 0.8"/>
      </g>
     </g>
     <g id="text_1">
      <!-- 0 -->
      <g transform="translate(45.435781 324.864375) scale(0.1 -0.1)">
       <defs>
        <path id="MicrosoftYaHei-30" d="M 284 2325 
Q 284 3606 709 4264 
Q 1134 4922 1941 4922 
Q 3478 4922 3478 2441 
Q 3478 1216 3045 567 
Q 2613 -81 1831 -81 
Q 1094 -81 689 534 
Q 284 1150 284 2325 
z
M 909 2353 
Q 909 425 1888 425 
Q 2850 425 2850 2384 
Q 2850 4413 1906 4413 
Q 909 4413 909 2353 
z
" transform="scale(0.015625)"/>
       </defs>
       <use xlink:href="#MicrosoftYaHei-30"/>
      </g>
     </g>
    </g>
    <g id="xtick_2">
     <g id="line2d_3">
      <path d="M 149.163813 309.870625 
L 149.163813 25.190625 
" clip-path="url(#p5ecaccf618)" style="fill: none; stroke: #b0b0b0; stroke-opacity: 0.3; stroke-width: 0.8; stroke-linecap: square"/>
     </g>
     <g id="line2d_4">
      <g>
       <use xlink:href="#m7496b97aa0" x="149.163813" y="309.870625" style="stroke: #000000; stroke-width: 0.8"/>
      </g>
     </g>
     <g id="text_2">
      <!-- 20 -->
      <g transform="translate(143.29975 324.864375) scale(0.1 -0.1)">
       <defs>
        <path id="MicrosoftYaHei-32" d="M 2666 3572 
Q 2666 3963 2419 4186 
Q 2172 4409 1747 4409 
Q 1447 4409 1140 4256 
Q 834 4103 569 3819 
L 569 4413 
Q 806 4659 1107 4790 
Q 1409 4922 1816 4922 
Q 2472 4922 2872 4570 
Q 3272 4219 3272 3619 
Q 3272 3084 3026 2693 
Q 2781 2303 2188 1894 
Q 1581 1475 1376 1294 
Q 1172 1113 1090 947 
Q 1009 781 1009 544 
L 3416 544 
L 3416 0 
L 372 0 
L 372 241 
Q 372 659 486 951 
Q 600 1244 862 1520 
Q 1125 1797 1681 2184 
Q 2250 2584 2458 2886 
Q 2666 3188 2666 3572 
z
" transform="scale(0.015625)"/>
       </defs>
       <use xlink:href="#MicrosoftYaHei-32"/>
       <use xlink:href="#MicrosoftYaHei-30" transform="translate(58.642578 0)"/>
      </g>
     </g>
    </g>
    <g id="xtick_3">
     <g id="line2d_5">
      <path d="M 249.959813 309.870625 
L 249.959813 25.190625 
" clip-path="url(#p5ecaccf618)" style="fill: none; stroke: #b0b0b0; stroke-opacity: 0.3; stroke-width: 0.8; stroke-linecap: square"/>
     </g>
     <g id="line2d_6">
      <g>
       <use xlink:href="#m7496b97aa0" x="249.959813" y="309.870625" style="stroke: #000000; stroke-width: 0.8"/>
      </g>
     </g>
     <g id="text_3">
      <!-- 40 -->
      <g transform="translate(244.09575 324.864375) scale(0.1 -0.1)">
       <defs>
        <path id="MicrosoftYaHei-34" d="M 2906 4841 
L 2906 1644 
L 3631 1644 
L 3631 1138 
L 2906 1138 
L 2906 0 
L 2313 0 
L 2313 1138 
L 53 1138 
L 53 1616 
Q 656 2294 1265 3178 
Q 1875 4063 2272 4841 
L 2906 4841 
z
M 741 1644 
L 2313 1644 
L 2313 3950 
Q 1988 3366 1616 2817 
Q 1244 2269 741 1644 
z
" transform="scale(0.015625)"/>
       </defs>
       <use xlink:href="#MicrosoftYaHei-34"/>
       <use xlink:href="#MicrosoftYaHei-30" transform="translate(58.642578 0)"/>
      </g>
     </g>
    </g>
    <g id="xtick_4">
     <g id="line2d_7">
      <path d="M 350.755813 309.870625 
L 350.755813 25.190625 
" clip-path="url(#p5ecaccf618)" style="fill: none; stroke: #b0b0b0; stroke-opacity: 0.3; stroke-width: 0.8; stroke-linecap: square"/>
     </g>
     <g id="line2d_8">
      <g>
       <use xlink:href="#m7496b97aa0" x="350.755813" y="309.870625" style="stroke: #000000; stroke-width: 0.8"/>
      </g>
     </g>
     <g id="text_4">
      <!-- 60 -->
      <g transform="translate(344.89175 324.864375) scale(0.1 -0.1)">
       <defs>
        <path id="MicrosoftYaHei-36" d="M 3181 4219 
Q 2803 4413 2391 4413 
Q 1763 4413 1381 3866 
Q 1000 3319 994 2372 
L 1009 2372 
Q 1353 3038 2106 3038 
Q 2734 3038 3109 2628 
Q 3484 2219 3484 1541 
Q 3484 831 3051 375 
Q 2619 -81 1947 -81 
Q 1209 -81 789 495 
Q 369 1072 369 2131 
Q 369 3413 920 4167 
Q 1472 4922 2372 4922 
Q 2888 4922 3181 4781 
L 3181 4219 
z
M 1031 1584 
Q 1031 1106 1286 765 
Q 1541 425 1963 425 
Q 2363 425 2613 719 
Q 2863 1013 2863 1475 
Q 2863 1975 2627 2253 
Q 2391 2531 1956 2531 
Q 1544 2531 1287 2250 
Q 1031 1969 1031 1584 
z
" transform="scale(0.015625)"/>
       </defs>
       <use xlink:href="#MicrosoftYaHei-36"/>
       <use xlink:href="#MicrosoftYaHei-30" transform="translate(58.642578 0)"/>
      </g>
     </g>
    </g>
    <g id="xtick_5">
     <g id="line2d_9">
      <path d="M 451.551813 309.870625 
L 451.551813 25.190625 
" clip-path="url(#p5ecaccf618)" style="fill: none; stroke: #b0b0b0; stroke-opacity: 0.3; stroke-width: 0.8; stroke-linecap: square"/>
     </g>
     <g id="line2d_10">
      <g>
       <use xlink:href="#m7496b97aa0" x="451.551813" y="309.870625" style="stroke: #000000; stroke-width: 0.8"/>
      </g>
     </g>
     <g id="text_5">
      <!-- 80 -->
      <g transform="translate(445.68775 324.864375) scale(0.1 -0.1)">
       <defs>
        <path id="MicrosoftYaHei-38" d="M 306 1350 
Q 306 1769 556 2122 
Q 806 2475 1200 2625 
Q 884 2803 700 3081 
Q 516 3359 516 3684 
Q 516 4028 692 4312 
Q 869 4597 1183 4759 
Q 1497 4922 1875 4922 
Q 2256 4922 2572 4761 
Q 2888 4600 3063 4315 
Q 3238 4031 3238 3684 
Q 3238 3366 3058 3086 
Q 2878 2806 2559 2625 
Q 2953 2472 3200 2119 
Q 3447 1766 3447 1350 
Q 3447 938 3250 611 
Q 3053 284 2690 103 
Q 2328 -78 1875 -78 
Q 1425 -78 1065 103 
Q 706 284 506 612 
Q 306 941 306 1350 
z
M 906 1378 
Q 906 947 1172 687 
Q 1438 428 1878 428 
Q 2309 428 2582 692 
Q 2856 956 2856 1378 
Q 2856 1778 2579 2051 
Q 2303 2325 1878 2325 
Q 1456 2325 1181 2058 
Q 906 1791 906 1378 
z
M 1081 3634 
Q 1081 3309 1312 3076 
Q 1544 2844 1878 2844 
Q 2206 2844 2445 3078 
Q 2684 3313 2684 3634 
Q 2684 3963 2454 4191 
Q 2225 4419 1878 4419 
Q 1534 4419 1307 4195 
Q 1081 3972 1081 3634 
z
" transform="scale(0.015625)"/>
       </defs>
       <use xlink:href="#MicrosoftYaHei-38"/>
       <use xlink:href="#MicrosoftYaHei-30" transform="translate(58.642578 0)"/>
      </g>
     </g>
    </g>
    <g id="xtick_6">
     <g id="line2d_11">
      <path d="M 552.347813 309.870625 
L 552.347813 25.190625 
" clip-path="url(#p5ecaccf618)" style="fill: none; stroke: #b0b0b0; stroke-opacity: 0.3; stroke-width: 0.8; stroke-linecap: square"/>
     </g>
     <g id="line2d_12">
      <g>
       <use xlink:href="#m7496b97aa0" x="552.347813" y="309.870625" style="stroke: #000000; stroke-width: 0.8"/>
      </g>
     </g>
     <g id="text_6">
      <!-- 100 -->
      <g transform="translate(543.551719 324.864375) scale(0.1 -0.1)">
       <defs>
        <path id="MicrosoftYaHei-31" d="M 1781 0 
L 1781 4141 
Q 1638 3997 1295 3819 
Q 953 3641 663 3569 
L 663 4169 
Q 1047 4275 1484 4508 
Q 1922 4741 2156 4947 
L 2388 4947 
L 2388 0 
L 1781 0 
z
" transform="scale(0.015625)"/>
       </defs>
       <use xlink:href="#MicrosoftYaHei-31"/>
       <use xlink:href="#MicrosoftYaHei-30" transform="translate(58.642578 0)"/>
       <use xlink:href="#MicrosoftYaHei-30" transform="translate(117.285156 0)"/>
      </g>
     </g>
    </g>
    <g id="text_7">
     <!-- 练习时间 -->
     <g transform="translate(276.357813 340.942812) scale(0.12 -0.12)">
      <defs>
       <path id="MicrosoftYaHei-7ec3" d="M 2363 3403 
L 3059 3403 
Q 3203 3781 3344 4197 
L 2213 4197 
L 2213 4622 
L 3488 4622 
Q 3603 4975 3719 5353 
L 4219 5253 
Q 4109 4931 4000 4622 
L 6000 4622 
L 6000 4197 
L 3847 4197 
Q 3700 3791 3553 3403 
L 4763 3403 
L 4763 2016 
L 6025 2016 
L 6025 1591 
L 4763 1591 
L 4763 3 
Q 4763 -734 4056 -734 
Q 3788 -734 3369 -728 
Q 3331 -516 3263 -241 
Q 3638 -284 3931 -284 
Q 4300 -284 4300 109 
L 4300 1591 
L 2475 1591 
L 2475 1997 
Q 2688 2450 2897 2978 
L 2363 2978 
L 2363 3403 
z
M 888 1566 
Q 1531 1659 2219 1778 
Q 2181 1547 2163 1297 
Q 1600 1216 319 1003 
L 219 1472 
Q 669 1969 1175 2794 
Q 666 2763 219 2722 
L 100 3147 
Q 700 3966 1294 5366 
L 1750 5178 
Q 1088 3878 644 3184 
Q 1078 3194 1419 3203 
Q 1669 3638 1931 4147 
L 2388 3916 
Q 1656 2659 888 1566 
z
M 3013 2016 
L 4300 2016 
L 4300 2978 
L 3394 2978 
Q 3203 2484 3013 2016 
z
M 94 122 
Q 1031 291 2219 559 
Q 2200 316 2206 78 
Q 1231 -103 219 -353 
L 94 122 
z
M 3194 1272 
L 3638 1066 
Q 3194 203 2700 -547 
Q 2500 -397 2275 -278 
Q 2813 459 3194 1272 
z
M 5094 1041 
L 5500 1278 
Q 5963 578 6381 -122 
L 5950 -391 
Q 5544 366 5094 1041 
z
" transform="scale(0.015625)"/>
       <path id="MicrosoftYaHei-4e60" d="M 500 4803 
L 5725 4803 
Q 5663 1853 5606 784 
Q 5550 -616 4181 -616 
Q 3644 -616 3013 -591 
Q 2988 -347 2913 -9 
Q 3713 -66 4113 -66 
Q 4631 -72 4850 153 
Q 5056 378 5081 916 
Q 5144 2416 5169 4291 
L 500 4291 
L 500 4803 
z
M 363 834 
Q 2856 1591 4688 2253 
Q 4669 1834 4688 1709 
Q 2513 978 556 297 
L 363 834 
z
M 1131 3372 
L 1400 3778 
Q 2713 3203 3563 2766 
L 3275 2291 
Q 2069 2947 1131 3372 
z
" transform="scale(0.015625)"/>
       <path id="MicrosoftYaHei-65f6" d="M 344 4728 
L 2500 4728 
L 2500 -366 
L 2006 -366 
L 2006 153 
L 838 153 
L 838 -441 
L 344 -441 
L 344 4728 
z
M 2706 3941 
L 4925 3941 
L 4925 5322 
L 5425 5322 
L 5425 3941 
L 6313 3941 
L 6313 3478 
L 5425 3478 
L 5425 116 
Q 5425 -722 4625 -722 
Q 4263 -722 3563 -703 
Q 3531 -478 3463 -178 
Q 4119 -228 4488 -228 
Q 4925 -228 4925 216 
L 4925 3478 
L 2706 3478 
L 2706 3941 
z
M 838 616 
L 2006 616 
L 2006 2234 
L 838 2234 
L 838 616 
z
M 2006 4266 
L 838 4266 
L 838 2684 
L 2006 2684 
L 2006 4266 
z
M 3406 2878 
Q 3906 1966 4163 1422 
Q 4000 1347 3663 1172 
Q 3419 1766 2963 2653 
L 3406 2878 
z
" transform="scale(0.015625)"/>
       <path id="MicrosoftYaHei-95f4" d="M 1863 3647 
L 4513 3647 
L 4513 553 
L 2313 553 
L 2313 166 
L 1863 166 
L 1863 3647 
z
M 2388 4453 
L 2388 4922 
L 6013 4922 
L 6013 -28 
Q 6013 -816 5119 -816 
Q 4756 -816 4169 -803 
Q 4144 -616 4069 -297 
Q 4588 -334 5056 -334 
Q 5525 -334 5525 122 
L 5525 4453 
L 2388 4453 
z
M 419 4084 
L 906 4084 
L 906 -816 
L 419 -816 
L 419 4084 
z
M 2313 997 
L 4063 997 
L 4063 1884 
L 2313 1884 
L 2313 997 
z
M 4063 3203 
L 2313 3203 
L 2313 2328 
L 4063 2328 
L 4063 3203 
z
M 744 5003 
L 1100 5322 
Q 1575 4872 1981 4447 
L 1575 4091 
Q 1194 4541 744 5003 
z
" transform="scale(0.015625)"/>
      </defs>
      <use xlink:href="#MicrosoftYaHei-7ec3"/>
      <use xlink:href="#MicrosoftYaHei-4e60" transform="translate(100 0)"/>
      <use xlink:href="#MicrosoftYaHei-65f6" transform="translate(200 0)"/>
      <use xlink:href="#MicrosoftYaHei-95f4" transform="translate(300 0)"/>
     </g>
    </g>
   </g>
   <g id="matplotlib.axis_2">
    <g id="ytick_1">
     <g id="line2d_13">
      <path d="M 48.367813 309.870625 
L 552.347813 309.870625 
" clip-path="url(#p5ecaccf618)" style="fill: none; stroke: #b0b0b0; stroke-opacity: 0.3; stroke-width: 0.8; stroke-linecap: square"/>
     </g>
     <g id="line2d_14">
      <defs>
       <path id="mda0f66e459" d="M 0 0 
L -3.5 0 
" style="stroke: #000000; stroke-width: 0.8"/>
      </defs>
      <g>
       <use xlink:href="#mda0f66e459" x="48.367813" y="309.870625" style="stroke: #000000; stroke-width: 0.8"/>
      </g>
     </g>
     <g id="text_8">
      <!-- 0 -->
      <g transform="translate(35.50375 313.8675) scale(0.1 -0.1)">
       <use xlink:href="#MicrosoftYaHei-30"/>
      </g>
     </g>
    </g>
    <g id="ytick_2">
     <g id="line2d_15">
      <path d="M 48.367813 255.645863 
L 552.347813 255.645863 
" clip-path="url(#p5ecaccf618)" style="fill: none; stroke: #b0b0b0; stroke-opacity: 0.3; stroke-width: 0.8; stroke-linecap: square"/>
     </g>
     <g id="line2d_16">
      <g>
       <use xlink:href="#mda0f66e459" x="48.367813" y="255.645863" style="stroke: #000000; stroke-width: 0.8"/>
      </g>
     </g>
     <g id="text_9">
      <!-- 20 -->
      <g transform="translate(29.639688 259.642738) scale(0.1 -0.1)">
       <use xlink:href="#MicrosoftYaHei-32"/>
       <use xlink:href="#MicrosoftYaHei-30" transform="translate(58.642578 0)"/>
      </g>
     </g>
    </g>
    <g id="ytick_3">
     <g id="line2d_17">
      <path d="M 48.367813 201.421101 
L 552.347813 201.421101 
" clip-path="url(#p5ecaccf618)" style="fill: none; stroke: #b0b0b0; stroke-opacity: 0.3; stroke-width: 0.8; stroke-linecap: square"/>
     </g>
     <g id="line2d_18">
      <g>
       <use xlink:href="#mda0f66e459" x="48.367813" y="201.421101" style="stroke: #000000; stroke-width: 0.8"/>
      </g>
     </g>
     <g id="text_10">
      <!-- 40 -->
      <g transform="translate(29.639688 205.417976) scale(0.1 -0.1)">
       <use xlink:href="#MicrosoftYaHei-34"/>
       <use xlink:href="#MicrosoftYaHei-30" transform="translate(58.642578 0)"/>
      </g>
     </g>
    </g>
    <g id="ytick_4">
     <g id="line2d_19">
      <path d="M 48.367813 147.196339 
L 552.347813 147.196339 
" clip-path="url(#p5ecaccf618)" style="fill: none; stroke: #b0b0b0; stroke-opacity: 0.3; stroke-width: 0.8; stroke-linecap: square"/>
     </g>
     <g id="line2d_20">
      <g>
       <use xlink:href="#mda0f66e459" x="48.367813" y="147.196339" style="stroke: #000000; stroke-width: 0.8"/>
      </g>
     </g>
     <g id="text_11">
      <!-- 60 -->
      <g transform="translate(29.639688 151.193214) scale(0.1 -0.1)">
       <use xlink:href="#MicrosoftYaHei-36"/>
       <use xlink:href="#MicrosoftYaHei-30" transform="translate(58.642578 0)"/>
      </g>
     </g>
    </g>
    <g id="ytick_5">
     <g id="line2d_21">
      <path d="M 48.367813 92.971577 
L 552.347813 92.971577 
" clip-path="url(#p5ecaccf618)" style="fill: none; stroke: #b0b0b0; stroke-opacity: 0.3; stroke-width: 0.8; stroke-linecap: square"/>
     </g>
     <g id="line2d_22">
      <g>
       <use xlink:href="#mda0f66e459" x="48.367813" y="92.971577" style="stroke: #000000; stroke-width: 0.8"/>
      </g>
     </g>
     <g id="text_12">
      <!-- 80 -->
      <g transform="translate(29.639688 96.968452) scale(0.1 -0.1)">
       <use xlink:href="#MicrosoftYaHei-38"/>
       <use xlink:href="#MicrosoftYaHei-30" transform="translate(58.642578 0)"/>
      </g>
     </g>
    </g>
    <g id="ytick_6">
     <g id="line2d_23">
      <path d="M 48.367813 38.746815 
L 552.347813 38.746815 
" clip-path="url(#p5ecaccf618)" style="fill: none; stroke: #b0b0b0; stroke-opacity: 0.3; stroke-width: 0.8; stroke-linecap: square"/>
     </g>
     <g id="line2d_24">
      <g>
       <use xlink:href="#mda0f66e459" x="48.367813" y="38.746815" style="stroke: #000000; stroke-width: 0.8"/>
      </g>
     </g>
     <g id="text_13">
      <!-- 100 -->
      <g transform="translate(23.775625 42.74369) scale(0.1 -0.1)">
       <use xlink:href="#MicrosoftYaHei-31"/>
       <use xlink:href="#MicrosoftYaHei-30" transform="translate(58.642578 0)"/>
       <use xlink:href="#MicrosoftYaHei-30" transform="translate(117.285156 0)"/>
      </g>
     </g>
    </g>
    <g id="text_14">
     <!-- 技能水平 -->
     <g transform="translate(16.7925 191.530625) rotate(-90) scale(0.12 -0.12)">
      <defs>
       <path id="MicrosoftYaHei-6280" d="M 2394 2472 
L 2394 2884 
L 4000 2884 
L 4000 3841 
L 2369 3841 
L 2369 4297 
L 4000 4297 
L 4000 5303 
L 4500 5303 
L 4500 4297 
L 6200 4297 
L 6200 3841 
L 4500 3841 
L 4500 2884 
L 5831 2884 
L 5831 2509 
Q 5391 1259 4578 484 
Q 5281 -69 6319 -359 
Q 6081 -634 5919 -841 
Q 4903 -428 4197 163 
Q 3375 -456 2275 -891 
Q 2144 -691 1944 -447 
Q 3059 -84 3850 491 
Q 3156 1247 2809 2472 
L 2394 2472 
z
M 75 2009 
Q 547 2144 988 2275 
L 988 3622 
L 156 3622 
L 156 4053 
L 988 4053 
L 988 5266 
L 1469 5266 
L 1469 4053 
L 2200 4053 
L 2200 3622 
L 1469 3622 
L 1469 2425 
Q 1828 2541 2169 2653 
Q 2169 2353 2181 2166 
Q 1828 2053 1469 1938 
L 1469 -78 
Q 1469 -741 844 -747 
Q 594 -753 244 -747 
Q 206 -484 163 -216 
Q 531 -253 719 -253 
Q 988 -253 988 28 
L 988 1778 
Q 566 1638 138 1491 
L 75 2009 
z
M 5288 2472 
L 3291 2472 
Q 3572 1484 4228 803 
Q 4966 1503 5288 2472 
z
" transform="scale(0.015625)"/>
       <path id="MicrosoftYaHei-80fd" d="M 950 -759 
L 463 -759 
L 463 2928 
L 3000 2928 
L 3000 -28 
Q 3000 -703 2375 -703 
Q 2100 -709 1669 -709 
Q 1638 -516 1575 -234 
Q 1969 -266 2206 -266 
Q 2513 -266 2513 53 
L 2513 572 
L 950 572 
L 950 -759 
z
M 3606 2253 
L 4094 2253 
L 4094 1222 
Q 4981 1553 5950 2091 
L 6231 1659 
Q 5209 1122 4094 706 
L 4094 166 
Q 4094 -228 4400 -228 
L 5319 -228 
Q 5638 -228 5688 78 
Q 5731 353 5763 897 
Q 6000 803 6250 722 
Q 6200 172 6144 -109 
Q 6063 -659 5363 -659 
L 4319 -659 
Q 3606 -659 3606 72 
L 3606 2253 
z
M 3619 5303 
L 4106 5303 
L 4106 4231 
Q 4966 4572 5813 5053 
L 6094 4622 
Q 5119 4128 4106 3719 
L 4106 3359 
Q 4106 2941 4438 2941 
L 5231 2941 
Q 5625 2941 5675 3266 
Q 5719 3534 5750 4047 
Q 5988 3953 6238 3866 
Q 6188 3366 6131 3053 
Q 6038 2509 5288 2509 
L 4375 2509 
Q 3619 2509 3619 3259 
L 3619 5303 
z
M 2463 4772 
Q 3031 4034 3450 3353 
Q 3213 3191 3019 3066 
Q 2897 3281 2759 3506 
Q 1231 3394 313 3303 
L 113 3828 
Q 388 3978 719 4391 
Q 1063 4841 1394 5397 
L 1888 5216 
Q 1369 4466 794 3797 
Q 1731 3856 2497 3919 
Q 2300 4216 2075 4528 
L 2463 4772 
z
M 950 947 
L 2513 947 
L 2513 1553 
L 950 1553 
L 950 947 
z
M 2513 2528 
L 950 2528 
L 950 1928 
L 2513 1928 
L 2513 2528 
z
" transform="scale(0.015625)"/>
       <path id="MicrosoftYaHei-6c34" d="M 2925 5297 
L 3431 5297 
L 3431 4294 
Q 3700 3563 4047 2934 
Q 4738 3509 5425 4309 
L 5844 3934 
Q 5113 3169 4300 2506 
Q 5125 1200 6319 384 
Q 6056 122 5894 -84 
Q 4250 1209 3431 3119 
L 3431 197 
Q 3431 -734 2538 -734 
Q 2263 -734 1725 -728 
Q 1694 -497 1625 -166 
Q 2125 -216 2438 -216 
Q 2925 -216 2925 253 
L 2925 5297 
z
M 256 3297 
L 256 3772 
L 2413 3772 
L 2413 3316 
Q 1881 1266 475 -197 
Q 263 47 94 184 
Q 1506 1672 1913 3297 
L 256 3297 
z
" transform="scale(0.015625)"/>
       <path id="MicrosoftYaHei-5e73" d="M 169 1934 
L 2938 1934 
L 2938 4547 
L 450 4547 
L 450 5028 
L 5975 5028 
L 5975 4547 
L 3463 4547 
L 3463 1934 
L 6250 1934 
L 6250 1453 
L 3463 1453 
L 3463 -847 
L 2938 -847 
L 2938 1453 
L 169 1453 
L 169 1934 
z
M 3950 2559 
Q 4638 3284 5188 4159 
L 5656 3859 
Q 4950 2891 4338 2234 
L 3950 2559 
z
M 769 3859 
L 1163 4134 
Q 1863 3316 2369 2553 
L 1925 2222 
Q 1444 3003 769 3859 
z
" transform="scale(0.015625)"/>
      </defs>
      <use xlink:href="#MicrosoftYaHei-6280"/>
      <use xlink:href="#MicrosoftYaHei-80fd" transform="translate(100 0)"/>
      <use xlink:href="#MicrosoftYaHei-6c34" transform="translate(200 0)"/>
      <use xlink:href="#MicrosoftYaHei-5e73" transform="translate(300 0)"/>
     </g>
    </g>
   </g>
   <g id="line2d_25">
    <path d="M 48.367813 309.870625 
L 55.437672 300.527072 
L 63.517512 290.242361 
L 71.597352 280.361711 
L 79.677191 270.869248 
L 87.757031 261.74972 
L 95.836871 252.988477 
L 103.91671 244.571441 
L 111.99655 236.485091 
L 120.07639 228.716434 
L 128.156229 221.252988 
L 136.236069 214.082763 
L 144.315909 207.194239 
L 152.395748 200.576348 
L 160.475588 194.218458 
L 169.565408 187.363912 
L 178.655227 180.811573 
L 187.745047 174.548119 
L 196.834867 168.560812 
L 205.924686 162.837479 
L 215.014506 157.366479 
L 224.104326 152.136689 
L 234.204125 146.595793 
L 244.303925 141.325657 
L 254.403724 136.313051 
L 264.503524 131.545391 
L 274.603324 127.010707 
L 285.713103 122.27807 
L 296.822883 117.799194 
L 307.932662 113.560471 
L 319.042442 109.549025 
L 331.162201 105.417808 
L 343.281961 101.527643 
L 355.40172 97.864463 
L 368.53146 94.136824 
L 381.661199 90.64423 
L 394.790939 87.371859 
L 408.930658 84.078146 
L 423.070378 81.007539 
L 438.220077 77.948034 
L 453.369776 75.110025 
L 469.529456 72.308908 
L 486.699115 69.568759 
L 503.868774 67.052327 
L 522.048414 64.61144 
L 541.238033 62.262927 
L 552.347813 61.002013 
L 552.347813 61.002013 
" clip-path="url(#p5ecaccf618)" style="fill: none; stroke: #d0a060; stroke-width: 2; stroke-linecap: square"/>
   </g>
   <g id="line2d_26">
    <path d="M 48.367813 309.870625 
L 53.417712 296.62192 
L 58.467612 284.020625 
L 63.517512 272.035104 
L 68.567412 260.635265 
L 73.617311 249.79249 
L 78.667211 239.479556 
L 83.717111 229.670573 
L 88.767011 220.340915 
L 93.816911 211.467159 
L 98.86681 203.027027 
L 103.91671 194.999329 
L 108.96661 187.363912 
L 114.01651 180.101606 
L 119.06641 173.194179 
L 124.116309 166.62429 
L 129.166209 160.375444 
L 134.216109 154.431953 
L 139.266009 148.778897 
L 145.325889 142.358668 
L 151.385768 136.313051 
L 157.445648 130.620189 
L 163.505528 125.259497 
L 169.565408 120.211595 
L 175.625287 115.458231 
L 181.685167 110.98222 
L 187.745047 106.767378 
L 193.804927 102.798467 
L 199.864806 99.061136 
L 206.934666 94.975627 
L 214.004526 91.166858 
L 221.074386 87.616083 
L 228.144245 84.305827 
L 235.214105 81.219798 
L 243.293945 77.948034 
L 251.373784 74.9283 
L 259.453624 72.141181 
L 268.543444 69.261464 
L 277.633263 66.630075 
L 286.723083 64.2256 
L 296.822883 61.796353 
L 306.922682 59.598721 
L 318.032462 57.422547 
L 329.142241 55.473485 
L 341.262001 53.578474 
L 354.39174 51.767034 
L 367.52148 50.176832 
L 381.661199 48.680807 
L 396.810899 47.294511 
L 413.980558 45.955749 
L 432.160197 44.766052 
L 452.359796 43.672974 
L 474.579356 42.698408 
L 499.828855 41.822777 
L 528.108293 41.070273 
L 552.347813 40.573633 
L 552.347813 40.573633 
" clip-path="url(#p5ecaccf618)" style="fill: none; stroke: #5688cc; stroke-width: 2.5; stroke-linecap: square"/>
   </g>
   <g id="line2d_27">
    <path d="M 300.357813 92.971577 
L 451.551813 92.971577 
" clip-path="url(#p5ecaccf618)" style="fill: none; stroke-dasharray: 1,1.65; stroke-dashoffset: 0; stroke: #d18080"/>
   </g>
   <g id="patch_3">
    <path d="M 48.367813 309.870625 
L 48.367813 25.190625 
" style="fill: none; stroke: #000000; stroke-width: 0.8; stroke-linejoin: miter; stroke-linecap: square"/>
   </g>
   <g id="patch_4">
    <path d="M 552.347813 309.870625 
L 552.347813 25.190625 
" style="fill: none; stroke: #000000; stroke-width: 0.8; stroke-linejoin: miter; stroke-linecap: square"/>
   </g>
   <g id="patch_5">
    <path d="M 48.367813 309.870625 
L 552.347813 309.870625 
" style="fill: none; stroke: #000000; stroke-width: 0.8; stroke-linejoin: miter; stroke-linecap: square"/>
   </g>
   <g id="patch_6">
    <path d="M 48.367813 25.190625 
L 552.347813 25.190625 
" style="fill: none; stroke: #000000; stroke-width: 0.8; stroke-linejoin: miter; stroke-linecap: square"/>
   </g>
   <g id="text_15">
    <!-- 普通练习平台期 -->
    <g style="fill: #d18080" transform="translate(426.352813 87.549101) scale(0.09 -0.09)">
     <defs>
      <path id="MicrosoftYaHei-666e" d="M 1025 1934 
L 5375 1934 
L 5375 -828 
L 4900 -828 
L 4900 -541 
L 1500 -541 
L 1500 -828 
L 1025 -828 
L 1025 1934 
z
M 150 2872 
L 2256 2872 
L 2256 4159 
L 350 4159 
L 350 4584 
L 2066 4584 
Q 1881 4838 1638 5109 
L 2000 5372 
Q 2288 5078 2538 4772 
L 2275 4584 
L 3872 4584 
Q 4116 4938 4369 5359 
L 4825 5109 
Q 4619 4822 4438 4584 
L 6050 4584 
L 6050 4159 
L 4144 4159 
L 4144 2872 
L 6250 2872 
L 6250 2447 
L 150 2447 
L 150 2872 
z
M 1500 -116 
L 4900 -116 
L 4900 491 
L 1500 491 
L 1500 -116 
z
M 4900 1509 
L 1500 1509 
L 1500 903 
L 4900 903 
L 4900 1509 
z
M 2713 2872 
L 3688 2872 
L 3688 4159 
L 2713 4159 
L 2713 2872 
z
M 4513 3259 
Q 4850 3603 5175 4041 
L 5575 3753 
Q 5225 3334 4863 2966 
L 4513 3259 
z
M 788 3722 
L 1125 4028 
Q 1525 3647 1838 3309 
L 1475 2984 
Q 1194 3316 788 3722 
z
" transform="scale(0.015625)"/>
      <path id="MicrosoftYaHei-901a" d="M 2594 147 
L 2150 147 
L 2150 3666 
L 3656 3666 
Q 3188 3906 2688 4147 
L 2944 4447 
Q 3434 4209 3866 3994 
L 4981 4578 
L 2050 4578 
L 2050 4978 
L 5806 4978 
L 5806 4559 
L 4297 3775 
Q 4406 3719 4509 3666 
L 5850 3666 
L 5850 841 
Q 5850 128 5194 128 
Q 4869 128 4488 147 
Q 4456 384 4394 628 
Q 4788 584 5069 584 
Q 5406 584 5406 909 
L 5406 1216 
L 4213 1216 
L 4213 241 
L 3769 241 
L 3769 1216 
L 2594 1216 
L 2594 147 
z
M 2663 -197 
L 4219 -222 
L 6300 -172 
Q 6231 -378 6125 -666 
L 4056 -678 
L 2569 -641 
Q 1506 -628 1081 91 
Q 825 -147 331 -747 
L 75 -228 
Q 628 306 875 538 
L 875 2641 
L 131 2641 
L 131 3103 
L 1356 3103 
L 1356 431 
Q 1741 -191 2663 -197 
z
M 856 5203 
Q 1175 4816 1731 4022 
L 1288 3709 
Q 781 4503 456 4934 
L 856 5203 
z
M 5406 3266 
L 4213 3266 
L 4213 2641 
L 5406 2641 
L 5406 3266 
z
M 4213 1616 
L 5406 1616 
L 5406 2241 
L 4213 2241 
L 4213 1616 
z
M 2594 2641 
L 3769 2641 
L 3769 3266 
L 2594 3266 
L 2594 2641 
z
M 2594 1616 
L 3769 1616 
L 3769 2241 
L 2594 2241 
L 2594 1616 
z
" transform="scale(0.015625)"/>
      <path id="MicrosoftYaHei-53f0" d="M 5431 2022 
L 5431 -816 
L 4919 -816 
L 4919 -403 
L 1481 -403 
L 1481 -816 
L 969 -816 
L 969 2022 
L 5431 2022 
z
M 4513 4503 
Q 5494 3591 6369 2634 
L 5925 2266 
Q 5675 2559 5419 2844 
Q 2613 2725 1131 2641 
Q 788 2616 469 2541 
L 263 3078 
Q 550 3184 781 3372 
Q 1850 4247 2738 5391 
L 3206 5103 
Q 2269 4003 1250 3147 
Q 3166 3206 5019 3284 
Q 4591 3750 4150 4191 
L 4513 4503 
z
M 4919 1559 
L 1481 1559 
L 1481 47 
L 4919 47 
L 4919 1559 
z
" transform="scale(0.015625)"/>
      <path id="MicrosoftYaHei-671f" d="M 3769 5066 
L 5981 5066 
L 5981 -3 
Q 5981 -741 5281 -741 
Q 4931 -741 4594 -722 
Q 4569 -516 4519 -241 
Q 4975 -284 5175 -284 
Q 5519 -284 5519 59 
L 5519 1372 
L 4181 1372 
Q 4113 3 3350 -903 
Q 3181 -728 2975 -553 
Q 3481 28 3619 653 
Q 3769 1253 3769 2741 
L 3769 5066 
z
M 125 1141 
L 713 1141 
L 713 4028 
L 200 4028 
L 200 4453 
L 713 4453 
L 713 5216 
L 1175 5216 
L 1175 4453 
L 2475 4453 
L 2475 5241 
L 2938 5241 
L 2938 4453 
L 3444 4453 
L 3444 4028 
L 2938 4028 
L 2938 1141 
L 3438 1141 
L 3438 716 
L 125 716 
L 125 1141 
z
M 4209 1784 
L 5519 1784 
L 5519 3009 
L 4231 3009 
Q 4238 2203 4209 1784 
z
M 5519 4641 
L 4231 4641 
L 4231 3422 
L 5519 3422 
L 5519 4641 
z
M 1175 1141 
L 2475 1141 
L 2475 1841 
L 1175 1841 
L 1175 1141 
z
M 1175 2241 
L 2475 2241 
L 2475 2934 
L 1175 2934 
L 1175 2241 
z
M 1175 3334 
L 2475 3334 
L 2475 4028 
L 1175 4028 
L 1175 3334 
z
M 1175 597 
L 1556 297 
Q 925 -384 406 -847 
Q 275 -697 75 -516 
Q 669 -9 1175 597 
z
M 1994 303 
L 2294 609 
Q 2731 284 3119 -47 
L 2788 -403 
Q 2438 -53 1994 303 
z
" transform="scale(0.015625)"/>
     </defs>
     <use xlink:href="#MicrosoftYaHei-666e"/>
     <use xlink:href="#MicrosoftYaHei-901a" transform="translate(100 0)"/>
     <use xlink:href="#MicrosoftYaHei-7ec3" transform="translate(200 0)"/>
     <use xlink:href="#MicrosoftYaHei-4e60" transform="translate(300 0)"/>
     <use xlink:href="#MicrosoftYaHei-5e73" transform="translate(400 0)"/>
     <use xlink:href="#MicrosoftYaHei-53f0" transform="translate(500 0)"/>
     <use xlink:href="#MicrosoftYaHei-671f" transform="translate(600 0)"/>
    </g>
   </g>
   <g id="text_16">
    <!-- 刻意练习 vs 普通练习 -->
    <g transform="translate(227.859766 19.190625) scale(0.15 -0.15)">
     <defs>
      <path id="MicrosoftYaHei-Bold-523b" d="M 3688 3953 
L 2134 3953 
Q 1791 3453 1406 2978 
Q 1828 2988 2300 3009 
Q 2541 3322 2744 3666 
L 3444 3259 
Q 2363 1553 663 534 
Q 394 947 106 1272 
Q 978 1697 1641 2300 
Q 900 2231 594 2166 
L 319 2866 
Q 725 3128 1200 3953 
L 231 3953 
L 231 4678 
L 1659 4678 
Q 1556 4947 1438 5216 
L 2319 5384 
Q 2450 5109 2625 4678 
L 3688 4678 
L 3688 3953 
z
M 5138 5266 
L 5981 5266 
L 5981 166 
Q 5981 -275 5807 -512 
Q 5634 -750 5315 -786 
Q 4997 -822 4238 -828 
Q 4125 -316 4025 66 
Q 4806 47 4850 47 
Q 5138 47 5138 447 
L 5138 5266 
z
M 3881 4653 
L 4700 4653 
L 4700 659 
L 3881 659 
L 3881 4653 
z
M 3106 2278 
L 3819 1872 
Q 3447 1247 2956 722 
Q 3472 331 3944 -72 
L 3388 -716 
Q 2922 -272 2388 181 
Q 1672 -425 756 -878 
Q 494 -497 188 -128 
Q 2125 728 3106 2278 
z
" transform="scale(0.015625)"/>
      <path id="MicrosoftYaHei-Bold-610f" d="M 175 3897 
L 1622 3897 
Q 1497 4072 1400 4184 
L 1891 4366 
L 488 4366 
L 488 4903 
L 2731 4903 
L 2569 5272 
L 3631 5366 
Q 3716 5178 3813 4903 
L 5881 4903 
L 5881 4366 
L 4397 4366 
L 4963 4166 
L 4728 3897 
L 6238 3897 
L 6238 3334 
L 175 3334 
L 175 3897 
z
M 2578 3897 
L 3794 3897 
Q 3988 4184 4097 4366 
L 2219 4366 
Q 2416 4116 2578 3897 
z
M 794 966 
L 794 3053 
L 5600 3053 
L 5600 966 
L 3441 966 
Q 3734 734 3906 572 
L 3319 41 
Q 3069 341 2650 722 
L 2934 966 
L 794 966 
z
M 4794 2541 
L 1600 2541 
L 1600 2234 
L 4794 2234 
L 4794 2541 
z
M 4794 1478 
L 4794 1784 
L 1600 1784 
L 1600 1478 
L 4794 1478 
z
M 606 859 
L 1350 572 
Q 1094 -78 781 -634 
L 88 -291 
Q 425 322 606 859 
z
M 4194 728 
Q 4488 559 4975 366 
Q 4806 -363 4540 -548 
Q 4275 -734 3819 -734 
L 2544 -734 
Q 1594 -734 1594 28 
L 1594 834 
L 2419 834 
L 2419 253 
Q 2419 -47 2756 -47 
L 3550 -47 
Q 3888 -47 4016 79 
Q 4144 206 4194 728 
z
M 5688 834 
Q 6100 309 6338 -166 
L 5644 -578 
Q 5331 9 5000 466 
L 5688 834 
z
" transform="scale(0.015625)"/>
      <path id="MicrosoftYaHei-Bold-7ec3" d="M 2400 3516 
L 2984 3516 
L 3159 4028 
L 2263 4028 
L 2263 4753 
L 3394 4753 
L 3575 5347 
L 4413 5291 
L 4238 4753 
L 6000 4753 
L 6000 4028 
L 3994 4028 
L 3809 3516 
L 4969 3516 
L 4969 2191 
L 6025 2191 
L 6025 1484 
L 4969 1484 
L 4969 297 
Q 4969 -131 4831 -397 
Q 4694 -663 4444 -758 
Q 4194 -853 3394 -853 
Q 3294 -309 3225 -34 
Q 3525 -72 3756 -72 
Q 4125 -72 4125 491 
L 4125 1484 
L 2513 1484 
L 2513 2291 
Q 2613 2525 2716 2791 
L 2400 2791 
L 2400 3516 
z
M 3306 2191 
L 4125 2191 
L 4125 2791 
L 3541 2791 
L 3306 2191 
z
M 1013 3372 
L 1419 3388 
L 1744 3966 
L 2413 3659 
L 1356 1797 
Q 1894 1872 2294 1941 
Q 2263 1684 2231 1159 
Q 931 984 475 866 
L 244 1566 
Q 531 1816 1009 2653 
L 306 2584 
L 75 3297 
Q 575 3966 1219 5341 
L 2000 5028 
Q 1450 4053 1013 3372 
z
M 75 372 
Q 1100 478 2288 672 
Q 2275 350 2272 116 
Q 2722 741 3000 1309 
L 3706 1003 
Q 3294 197 2738 -597 
Q 2469 -409 2078 -191 
L 238 -503 
L 75 372 
z
M 5000 978 
L 5619 1278 
Q 5994 584 6369 -197 
L 5713 -534 
Q 5356 316 5000 978 
z
" transform="scale(0.015625)"/>
      <path id="MicrosoftYaHei-Bold-4e60" d="M 3431 -709 
Q 3344 -272 3206 241 
Q 3878 197 4350 197 
Q 4750 197 4826 562 
Q 4903 928 4925 4066 
L 500 4066 
L 500 4903 
L 5863 4903 
Q 5853 3694 5813 2238 
L 5750 353 
Q 5728 -75 5509 -334 
Q 5291 -594 4930 -647 
Q 4569 -700 3431 -709 
z
M 1300 3259 
L 1813 3916 
Q 2806 3241 3500 2709 
L 2881 1959 
Q 2088 2647 1300 3259 
z
M 300 1009 
Q 2669 1666 4656 2372 
Q 4656 2078 4669 1484 
Q 2856 822 625 53 
L 300 1009 
z
" transform="scale(0.015625)"/>
      <path id="MicrosoftYaHei-Bold-20" transform="scale(0.015625)"/>
      <path id="MicrosoftYaHei-Bold-76" d="M 3688 3456 
L 2391 0 
L 1250 0 
L 16 3456 
L 1097 3456 
L 1731 1281 
Q 1834 925 1847 684 
L 1863 684 
Q 1888 931 1984 1263 
L 2631 3456 
L 3688 3456 
z
" transform="scale(0.015625)"/>
      <path id="MicrosoftYaHei-Bold-73" d="M 369 928 
Q 888 613 1384 613 
Q 2009 613 2009 947 
Q 2009 1184 1494 1344 
Q 850 1544 609 1789 
Q 369 2034 369 2453 
Q 369 2963 781 3252 
Q 1194 3541 1863 3541 
Q 2338 3541 2778 3400 
L 2778 2606 
Q 2375 2844 1891 2844 
Q 1650 2844 1503 2758 
Q 1356 2672 1356 2531 
Q 1356 2294 1794 2147 
Q 2263 1991 2498 1862 
Q 2734 1734 2857 1525 
Q 2981 1316 2981 1041 
Q 2981 506 2553 211 
Q 2125 -84 1409 -84 
Q 847 -84 369 94 
L 369 928 
z
" transform="scale(0.015625)"/>
      <path id="MicrosoftYaHei-Bold-666e" d="M 131 3091 
L 1113 3091 
Q 881 3394 569 3734 
L 1081 4103 
L 375 4103 
L 375 4747 
L 1694 4747 
Q 1559 4947 1388 5178 
L 2281 5353 
L 2650 4747 
L 3753 4747 
L 4175 5359 
L 5106 5172 
L 4728 4747 
L 6050 4747 
L 6050 4103 
L 5341 4103 
L 5875 3697 
Q 5616 3447 5275 3091 
L 6288 3091 
L 6288 2453 
L 131 2453 
L 131 3091 
z
M 2919 3091 
L 3488 3091 
L 3488 4103 
L 2919 4103 
L 2919 3091 
z
M 1788 3422 
L 1359 3091 
L 2069 3091 
L 2069 4103 
L 1156 4103 
Q 1425 3822 1788 3422 
z
M 5216 4103 
L 4338 4103 
L 4338 3091 
L 4988 3091 
L 4600 3403 
Q 4941 3759 5216 4103 
z
M 850 -822 
L 850 2097 
L 5569 2097 
L 5569 -822 
L 4719 -822 
L 4719 -566 
L 1700 -566 
L 1700 -822 
L 850 -822 
z
M 4719 1453 
L 1700 1453 
L 1700 1059 
L 4719 1059 
L 4719 1453 
z
M 1700 78 
L 4719 78 
L 4719 472 
L 1700 472 
L 1700 78 
z
" transform="scale(0.015625)"/>
      <path id="MicrosoftYaHei-Bold-901a" d="M 913 5328 
Q 1450 4678 1781 4184 
L 1044 3697 
Q 625 4366 238 4884 
L 913 5328 
z
M 5944 5103 
L 5944 4384 
L 4644 3666 
L 5950 3666 
L 5950 972 
Q 5950 675 5833 503 
Q 5716 331 5503 278 
Q 5291 225 4569 234 
Q 4513 516 4406 878 
Q 4706 859 4900 859 
Q 5163 859 5163 1134 
L 5163 1241 
L 4319 1241 
L 4319 303 
L 3569 303 
L 3569 1241 
L 2750 1241 
L 2750 297 
L 1963 297 
L 1963 3666 
L 3150 3666 
L 2475 4084 
L 2794 4453 
L 1913 4453 
L 1913 5103 
L 5944 5103 
z
M 4863 4453 
L 3025 4453 
Q 3413 4231 3900 3938 
L 4863 4453 
z
M 5163 3103 
L 4319 3103 
L 4319 2722 
L 5163 2722 
L 5163 3103 
z
M 2750 2722 
L 3569 2722 
L 3569 3103 
L 2750 3103 
L 2750 2722 
z
M 4319 1791 
L 5163 1791 
L 5163 2172 
L 4319 2172 
L 4319 1791 
z
M 2750 1791 
L 3569 1791 
L 3569 2172 
L 2750 2172 
L 2750 1791 
z
M 6313 66 
Q 6119 -416 6006 -741 
L 2719 -716 
Q 2134 -700 1759 -542 
Q 1384 -384 1138 -103 
L 456 -884 
L 94 84 
L 694 597 
L 694 2309 
L 138 2309 
L 138 3134 
L 1475 3134 
L 1475 578 
Q 1847 59 2800 59 
L 4216 41 
Q 5144 41 6313 66 
z
" transform="scale(0.015625)"/>
     </defs>
     <use xlink:href="#MicrosoftYaHei-Bold-523b"/>
     <use xlink:href="#MicrosoftYaHei-Bold-610f" transform="translate(100 0)"/>
     <use xlink:href="#MicrosoftYaHei-Bold-7ec3" transform="translate(200 0)"/>
     <use xlink:href="#MicrosoftYaHei-Bold-4e60" transform="translate(300 0)"/>
     <use xlink:href="#MicrosoftYaHei-Bold-20" transform="translate(400 0)"/>
     <use xlink:href="#MicrosoftYaHei-Bold-76" transform="translate(429.785156 0)"/>
     <use xlink:href="#MicrosoftYaHei-Bold-73" transform="translate(487.5 0)"/>
     <use xlink:href="#MicrosoftYaHei-Bold-20" transform="translate(536.865234 0)"/>
     <use xlink:href="#MicrosoftYaHei-Bold-666e" transform="translate(566.650391 0)"/>
     <use xlink:href="#MicrosoftYaHei-Bold-901a" transform="translate(666.650391 0)"/>
     <use xlink:href="#MicrosoftYaHei-Bold-7ec3" transform="translate(766.650391 0)"/>
     <use xlink:href="#MicrosoftYaHei-Bold-4e60" transform="translate(866.650391 0)"/>
    </g>
   </g>
   <g id="legend_1">
    <g id="patch_7">
     <path d="M 56.067813 68.045937 
L 135.267813 68.045937 
Q 137.467813 68.045937 137.467813 65.845937 
L 137.467813 32.890625 
Q 137.467813 30.690625 135.267813 30.690625 
L 56.067813 30.690625 
Q 53.867813 30.690625 53.867813 32.890625 
L 53.867813 65.845937 
Q 53.867813 68.045937 56.067813 68.045937 
z
" style="fill: #ffffff; opacity: 0.8; stroke: #cccccc; stroke-linejoin: miter"/>
    </g>
    <g id="line2d_28">
     <path d="M 58.267813 40.03375 
L 69.267813 40.03375 
L 80.267813 40.03375 
" style="fill: none; stroke: #d0a060; stroke-width: 2; stroke-linecap: square"/>
    </g>
    <g id="text_17">
     <!-- 普通练习 -->
     <g transform="translate(89.067813 43.88375) scale(0.11 -0.11)">
      <use xlink:href="#MicrosoftYaHei-666e"/>
      <use xlink:href="#MicrosoftYaHei-901a" transform="translate(100 0)"/>
      <use xlink:href="#MicrosoftYaHei-7ec3" transform="translate(200 0)"/>
      <use xlink:href="#MicrosoftYaHei-4e60" transform="translate(300 0)"/>
     </g>
    </g>
    <g id="line2d_29">
     <path d="M 58.267813 57.061406 
L 69.267813 57.061406 
L 80.267813 57.061406 
" style="fill: none; stroke: #5688cc; stroke-width: 2.5; stroke-linecap: square"/>
    </g>
    <g id="text_18">
     <!-- 刻意练习 -->
     <g transform="translate(89.067813 60.911406) scale(0.11 -0.11)">
      <defs>
       <path id="MicrosoftYaHei-523b" d="M 3175 3478 
Q 2425 1747 413 272 
Q 256 491 75 672 
Q 1191 1394 1913 2294 
Q 1188 2256 569 2203 
L 438 2616 
Q 588 2741 694 2903 
Q 1053 3431 1350 4034 
L 275 4034 
L 275 4484 
L 2034 4484 
Q 1850 4800 1625 5134 
L 2056 5353 
Q 2325 4934 2488 4641 
L 2200 4484 
L 3900 4484 
L 3900 4034 
L 1903 4034 
Q 1422 3209 1050 2653 
Q 1303 2659 2206 2694 
Q 2516 3153 2731 3653 
L 3175 3478 
z
M 5475 5216 
L 5963 5216 
L 5963 28 
Q 5963 -722 5200 -728 
Q 4844 -734 4338 -722 
Q 4306 -478 4244 -209 
Q 4731 -266 5031 -266 
Q 5475 -266 5475 172 
L 5475 5216 
z
M 3750 2353 
Q 3359 1525 2806 850 
Q 3403 297 3994 -297 
L 3606 -666 
Q 3159 -141 2513 513 
Q 1756 -303 731 -878 
Q 581 -672 388 -478 
Q 2356 541 3306 2559 
L 3750 2353 
z
M 4269 4584 
L 4738 4584 
L 4738 634 
L 4269 634 
L 4269 4584 
z
" transform="scale(0.015625)"/>
       <path id="MicrosoftYaHei-610f" d="M 2706 759 
L 3022 1028 
L 1419 1028 
L 1419 834 
L 956 834 
L 956 2997 
L 5406 2997 
L 5406 834 
L 4944 834 
L 4944 1028 
L 3038 1028 
Q 3447 681 3756 353 
L 3388 47 
Q 3125 353 2706 759 
z
M 150 3722 
L 1906 3722 
Q 1659 3956 1406 4172 
L 1594 4347 
L 538 4347 
L 538 4722 
L 3028 4722 
Q 2900 4984 2763 5216 
L 3188 5397 
Q 3391 5044 3538 4722 
L 5863 4722 
L 5863 4347 
L 4772 4347 
L 4988 4184 
Q 4738 3953 4472 3722 
L 6250 3722 
L 6250 3347 
L 150 3347 
L 150 3722 
z
M 1650 791 
L 2125 791 
L 2125 78 
Q 2125 -284 2538 -284 
L 3819 -284 
Q 4269 -284 4350 59 
Q 4413 297 4463 622 
Q 4681 528 4931 447 
Q 4856 91 4794 -128 
Q 4644 -709 3950 -709 
L 2438 -709 
Q 1650 -709 1650 34 
L 1650 791 
z
M 1419 1391 
L 4944 1391 
L 4944 1841 
L 1419 1841 
L 1419 1391 
z
M 4944 2634 
L 1419 2634 
L 1419 2191 
L 4944 2191 
L 4944 2634 
z
M 3925 3834 
Q 4178 4047 4481 4347 
L 1838 4347 
Q 2116 4141 2381 3909 
L 2191 3722 
L 4038 3722 
L 3925 3834 
z
M 656 759 
L 1094 591 
Q 869 22 569 -559 
Q 381 -472 131 -366 
Q 388 97 656 759 
z
M 5175 503 
L 5531 778 
Q 5975 303 6325 -116 
L 5931 -428 
Q 5550 72 5175 503 
z
" transform="scale(0.015625)"/>
      </defs>
      <use xlink:href="#MicrosoftYaHei-523b"/>
      <use xlink:href="#MicrosoftYaHei-610f" transform="translate(100 0)"/>
      <use xlink:href="#MicrosoftYaHei-7ec3" transform="translate(200 0)"/>
      <use xlink:href="#MicrosoftYaHei-4e60" transform="translate(300 0)"/>
     </g>
    </g>
   </g>
  </g>
 </g>
 <defs>
  <clipPath id="p5ecaccf618">
   <rect x="48.367813" y="25.190625" width="503.98" height="284.68"/>
  </clipPath>
 </defs>
</svg>
