<?xml version="1.0" encoding="UTF-8" standalone="no"?>
<svg width="127mm" height="79.375mm"
 viewBox="0 0 360 225"
 xmlns="http://www.w3.org/2000/svg" xmlns:xlink="http://www.w3.org/1999/xlink"  version="1.2" baseProfile="tiny">


<defs>
</defs>
<g fill="none" stroke="black" stroke-width="1" fill-rule="evenodd" stroke-linecap="square" stroke-linejoin="bevel" >



<g fill="#333333" fill-opacity="1" stroke="#333333" stroke-opacity="1" stroke-width="2" stroke-linecap="butt" stroke-linejoin="round" transform="matrix(0.5,0,0,0.5,0,0)"
font-family="SimSun" font-size="9" font-weight="400" font-style="normal" 
>
<polyline fill="none" points="30,225 690,225 " />
<polyline fill="none" points="360,420 360,30 " />
</g>

<g fill="none" stroke="#333333" stroke-opacity="1" stroke-width="2" stroke-linecap="butt" stroke-linejoin="round" transform="matrix(0.5,0,0,0.5,0,0)"
font-family="SimSun" font-size="9" font-weight="400" font-style="normal" 
>
<polyline fill="none" points="682.5,231 690,225 682.5,219 " />
<polyline fill="none" points="354,412.5 360,420 366,412.5 " />
</g>

<g fill="#333333" fill-opacity="1" stroke="none" transform="matrix(0.5,0,0,0.5,346.5,122.75)"
font-family="SimSun" font-size="9" font-weight="400" font-style="normal" 
>
<path fill-rule="evenodd" d="M6.28125,-6.85938 L7.96875,-9.375 C8.15625,-9.625 8.23438,-9.84375 8.20313,-10.0313 C8.17188,-10.2188 7.9375,-10.3125 7.5,-10.3125 L6.9375,-10.3125 L6.9375,-10.875 L10.5938,-10.875 L10.5938,-10.3125 L10.125,-10.3125 C10,-10.3125 9.84375,-10.2969 9.65625,-10.2656 C9.46875,-10.2344 9.3125,-10.125 9.1875,-9.9375 L6.65625,-6.1875 L9.28125,-1.875 C9.46875,-1.5625 9.70313,-1.32813 9.98438,-1.17188 C10.2656,-1.01563 10.4688,-0.9375 10.5938,-0.9375 L10.9688,-0.9375 L10.9688,-0.375 L6.84375,-0.375 L6.84375,-0.9375 L7.40625,-0.9375 C7.78125,-0.9375 7.98438,-1.03125 8.01563,-1.21875 C8.04688,-1.40625 8,-1.625 7.875,-1.875 L5.90625,-5.0625 L3.65625,-1.78125 C3.59375,-1.46875 3.60938,-1.25 3.70313,-1.125 C3.79688,-1 3.96875,-0.9375 4.21875,-0.9375 L4.5,-0.9375 L4.5,-0.375 L0.84375,-0.375 L0.84375,-0.9375 L1.40625,-0.9375 C1.65625,-0.9375 1.9375,-1.03125 2.25,-1.21875 C2.5625,-1.40625 2.8125,-1.6875 3,-2.0625 L5.4375,-5.75 L3,-9.65625 C2.9375,-9.78125 2.8125,-9.92188 2.625,-10.0781 C2.4375,-10.2344 2.1875,-10.3125 1.875,-10.3125 L1.40625,-10.3125 L1.40625,-10.875 L5.4375,-10.875 L5.4375,-10.3125 L5.15625,-10.3125 C4.84375,-10.3125 4.65625,-10.2188 4.59375,-10.0313 C4.53125,-9.84375 4.5625,-9.625 4.6875,-9.375 L6.28125,-6.85938 M2.625,-10.3125"/>
</g>

<g fill="#333333" fill-opacity="1" stroke="none" transform="matrix(0.5,0,0,0.5,186,215.75)"
font-family="SimSun" font-size="9" font-weight="400" font-style="normal" 
>
<path fill-rule="evenodd" d="M6.1875,-3 L6.375,-3 L8.4375,-9.28125 C8.5625,-9.59375 8.54688,-9.84375 8.39063,-10.0313 C8.23438,-10.2188 8.03125,-10.3125 7.78125,-10.3125 L7.21875,-10.3125 L7.21875,-10.875 L11.1563,-10.875 L11.1563,-10.3125 L10.5938,-10.3125 C10.3438,-10.3125 10.0938,-10.2188 9.84375,-10.0313 C9.59375,-9.84375 9.40625,-9.59375 9.28125,-9.28125 L6.09375,0 C5.78125,0.9375 5.39063,1.67188 4.92188,2.20313 C4.45313,2.73438 3.84375,3 3.09375,3 C2.65625,3 2.3125,2.92188 2.0625,2.76563 C1.8125,2.60938 1.6875,2.375 1.6875,2.0625 C1.6875,1.875 1.76563,1.6875 1.92188,1.5 C2.07813,1.3125 2.3125,1.21875 2.625,1.21875 C2.875,1.21875 3.125,1.34375 3.375,1.59375 C3.625,1.78125 3.8125,1.875 3.9375,1.875 C4.125,1.875 4.28125,1.84375 4.40625,1.78125 C4.53125,1.71875 4.625,1.59375 4.6875,1.40625 C4.875,1.09375 5.0625,0.703125 5.25,0.234375 C5.4375,-0.234375 5.59375,-0.71875 5.71875,-1.21875 L2.53125,-9.46875 C2.46875,-9.71875 2.32813,-9.92188 2.10938,-10.0781 C1.89063,-10.2344 1.65625,-10.3125 1.40625,-10.3125 L1.03125,-10.3125 L1.03125,-10.875 L4.96875,-10.875 L4.96875,-10.3125 L4.59375,-10.3125 C4.34375,-10.3125 4.15625,-10.2344 4.03125,-10.0781 C3.90625,-9.92188 3.875,-9.6875 3.9375,-9.375 L6.1875,-3 M8.71875,-10.3125"/>
</g>

<g fill="#888888" fill-opacity="1" stroke="none" transform="matrix(0.5,0,0,0.5,172.5,108.75)"
font-family="SimSun" font-size="9" font-weight="400" font-style="normal" 
>
<path fill-rule="evenodd" d="M2.40625,-7.73438 C2.40625,-5.27604 2.70833,-3.48698 3.3125,-2.36719 C3.91667,-1.2474 4.67708,-0.6875 5.59375,-0.6875 C6.5625,-0.6875 7.33333,-1.21875 7.90625,-2.28125 C8.47917,-3.34375 8.76563,-5.16146 8.76563,-7.73438 C8.76563,-9.79688 8.52344,-11.4583 8.03906,-12.7188 C7.55469,-13.9792 6.73958,-14.6094 5.59375,-14.6094 C4.61458,-14.6094 3.83854,-14.0365 3.26563,-12.8906 C2.69271,-11.7448 2.40625,-10.026 2.40625,-7.73438 M10.4063,-7.73438 C10.4063,-5.39063 9.94792,-3.54427 9.03125,-2.19531 C8.11458,-0.846354 6.96875,-0.171875 5.59375,-0.171875 C4.27083,-0.171875 3.13802,-0.859375 2.19531,-2.23438 C1.2526,-3.60938 0.78125,-5.44271 0.78125,-7.73438 C0.78125,-9.97396 1.22396,-11.7813 2.10938,-13.1563 C2.99479,-14.5313 4.15625,-15.2188 5.59375,-15.2188 C7.08333,-15.2188 8.25781,-14.487 9.11719,-13.0234 C9.97656,-11.5599 10.4063,-9.79688 10.4063,-7.73438 "/>
</g>

<g fill="none" stroke="#e74c3c" stroke-opacity="1" stroke-width="5" stroke-linecap="butt" stroke-linejoin="round" transform="matrix(0.5,0,0,0.5,0,0)"
font-family="SimSun" font-size="9" font-weight="400" font-style="normal" 
>
<polyline fill="none" points="288,441 288.724,436.68 289.447,432.404 290.171,428.171 290.894,423.982 291.618,419.837 292.342,415.735 293.065,411.677 293.789,407.663 294.513,403.692 295.236,399.765 295.96,395.881 296.683,392.041 297.407,388.245 298.131,384.492 298.854,380.783 299.578,377.118 300.302,373.496 301.025,369.918 301.749,366.384 302.472,362.893 303.196,359.446 303.92,356.042 304.643,352.682 305.367,349.366 306.09,346.093 306.814,342.864 307.538,339.679 308.261,336.537 308.985,333.439 309.709,330.385 310.432,327.374 311.156,324.407 311.879,321.483 312.603,318.603 313.327,315.767 314.05,312.974 314.774,310.225 315.497,307.52 316.221,304.858 316.945,302.24 317.668,299.665 318.392,297.135 319.116,294.647 319.839,292.204 320.563,289.804 321.286,287.448 322.01,285.135 322.734,282.866 323.457,280.64 324.181,278.459 324.905,276.321 325.628,274.226 326.352,272.175 327.075,270.168 327.799,268.204 328.523,266.284 329.246,264.408 329.97,262.575 330.693,260.786 331.417,259.041 332.141,257.339 332.864,255.681 333.588,254.067 334.312,252.496 335.035,250.968 335.759,249.485 336.482,248.045 337.206,246.649 337.93,245.296 338.653,243.987 339.377,242.721 340.101,241.5 340.824,240.321 341.548,239.187 342.271,238.096 342.995,237.049 343.719,236.045 344.442,235.085 345.166,234.169 345.889,233.296 346.613,232.467 347.337,231.682 348.06,230.94 348.784,230.242 349.508,229.587 350.231,228.976 350.955,228.409 351.678,227.885 352.402,227.405 353.126,226.969 353.849,226.576 354.573,226.227 355.296,225.922 356.02,225.66 356.744,225.442 357.467,225.267 358.191,225.136 358.915,225.049 359.638,225.005 360.362,225.005 361.085,225.049 361.809,225.136 362.533,225.267 363.256,225.442 363.98,225.66 364.704,225.922 365.427,226.227 366.151,226.576 366.874,226.969 367.598,227.405 368.322,227.885 369.045,228.409 369.769,228.976 370.492,229.587 371.216,230.242 371.94,230.94 372.663,231.682 373.387,232.467 374.111,233.296 374.834,234.169 375.558,235.085 376.281,236.045 377.005,237.049 377.729,238.096 378.452,239.187 379.176,240.321 379.899,241.5 380.623,242.721 381.347,243.987 382.07,245.296 382.794,246.649 383.518,248.045 384.241,249.485 384.965,250.968 385.688,252.496 386.412,254.067 387.136,255.681 387.859,257.339 388.583,259.041 389.307,260.786 390.03,262.575 390.754,264.408 391.477,266.284 392.201,268.204 392.925,270.168 393.648,272.175 394.372,274.226 395.095,276.321 395.819,278.459 396.543,280.64 397.266,282.866 397.99,285.135 398.714,287.448 399.437,289.804 400.161,292.204 400.884,294.647 401.608,297.135 402.332,299.665 403.055,302.24 403.779,304.858 404.503,307.52 405.226,310.225 405.95,312.974 406.673,315.767 407.397,318.603 408.121,321.483 408.844,324.407 409.568,327.374 410.291,330.385 411.015,333.439 411.739,336.537 412.462,339.679 413.186,342.864 413.91,346.093 414.633,349.366 415.357,352.682 416.08,356.042 416.804,359.446 417.528,362.893 418.251,366.384 418.975,369.918 419.698,373.496 420.422,377.118 421.146,380.783 421.869,384.492 422.593,388.245 423.317,392.041 424.04,395.881 424.764,399.765 425.487,403.692 426.211,407.663 426.935,411.677 427.658,415.735 428.382,419.837 429.106,423.982 429.829,428.171 430.553,432.404 431.276,436.68 432,441 " />
</g>

<g fill="#e74c3c" fill-opacity="1" stroke="none" transform="matrix(0.5,0,0,0.5,180.6,220.83)"
font-family="SimSun" font-size="9" font-weight="400" font-style="normal" 
>
<path fill-rule="evenodd" d="M5.67188,-2.75 L5.84375,-2.75 L7.73438,-8.51563 C7.84896,-8.79688 7.83594,-9.02344 7.69531,-9.19531 C7.55469,-9.36719 7.36979,-9.45313 7.14063,-9.45313 L6.625,-9.45313 L6.625,-9.96875 L10.2344,-9.96875 L10.2344,-9.45313 L9.71875,-9.45313 C9.48958,-9.45313 9.26042,-9.36719 9.03125,-9.19531 C8.80208,-9.02344 8.63021,-8.79688 8.51563,-8.51563 L5.59375,0 C5.30208,0.864583 4.94271,1.53906 4.51563,2.02344 C4.08854,2.50781 3.53125,2.75 2.84375,2.75 C2.4375,2.75 2.11979,2.67969 1.89063,2.53906 C1.66146,2.39844 1.54688,2.18229 1.54688,1.89063 C1.54688,1.72396 1.61979,1.55469 1.76563,1.38281 C1.91146,1.21094 2.125,1.125 2.40625,1.125 C2.63542,1.125 2.86458,1.23958 3.09375,1.46875 C3.32292,1.63542 3.49479,1.71875 3.60938,1.71875 C3.78646,1.71875 3.93229,1.6901 4.04688,1.63281 C4.16146,1.57552 4.24479,1.46354 4.29688,1.29688 C4.47396,1.00521 4.64844,0.643229 4.82031,0.210938 C4.99219,-0.221354 5.13542,-0.666667 5.25,-1.125 L2.32813,-8.6875 C2.26563,-8.91667 2.13542,-9.10156 1.9375,-9.24219 C1.73958,-9.38281 1.52604,-9.45313 1.29688,-9.45313 L0.953125,-9.45313 L0.953125,-9.96875 L4.5625,-9.96875 L4.5625,-9.45313 L4.21875,-9.45313 C3.98958,-9.45313 3.81771,-9.38281 3.70313,-9.24219 C3.58854,-9.10156 3.55729,-8.88542 3.60938,-8.59375 L5.67188,-2.75 M22.6875,-9.71875 L22.6875,-10.4844 L32.2344,-10.4844 L32.2344,-9.71875 L22.6875,-9.71875 M22.6875,-5.32813 L22.6875,-6.10938 L32.2344,-6.10938 L32.2344,-5.32813 L22.6875,-5.32813 M49.7656,-6.28125 L51.3125,-8.59375 C51.4792,-8.82292 51.5495,-9.02344 51.5234,-9.19531 C51.4974,-9.36719 51.2813,-9.45313 50.875,-9.45313 L50.3594,-9.45313 L50.3594,-9.96875 L53.7188,-9.96875 L53.7188,-9.45313 L53.2813,-9.45313 C53.1667,-9.45313 53.0234,-9.4401 52.8516,-9.41406 C52.6797,-9.38802 52.5365,-9.28646 52.4219,-9.10938 L50.1094,-5.67188 L52.5156,-1.71875 C52.6823,-1.4375 52.8958,-1.22396 53.1563,-1.07813 C53.4167,-0.932292 53.6042,-0.859375 53.7188,-0.859375 L54.0625,-0.859375 L54.0625,-0.34375 L50.2813,-0.34375 L50.2813,-0.859375 L50.7969,-0.859375 C51.1406,-0.859375 51.3255,-0.945313 51.3516,-1.11719 C51.3776,-1.28906 51.3333,-1.48958 51.2188,-1.71875 L49.4219,-4.64063 L47.3594,-1.64063 C47.2969,-1.34896 47.3099,-1.14583 47.3984,-1.03125 C47.487,-0.916667 47.6458,-0.859375 47.875,-0.859375 L48.125,-0.859375 L48.125,-0.34375 L44.7813,-0.34375 L44.7813,-0.859375 L45.2969,-0.859375 C45.526,-0.859375 45.7839,-0.945313 46.0703,-1.11719 C46.3568,-1.28906 46.5833,-1.54688 46.75,-1.89063 L48.9844,-5.28125 L46.75,-8.85938 C46.6979,-8.97396 46.5859,-9.10156 46.4141,-9.24219 C46.2422,-9.38281 46.0104,-9.45313 45.7188,-9.45313 L45.2969,-9.45313 L45.2969,-9.96875 L48.9844,-9.96875 L48.9844,-9.45313 L48.7344,-9.45313 C48.4427,-9.45313 48.2682,-9.36719 48.2109,-9.19531 C48.1536,-9.02344 48.1823,-8.82292 48.2969,-8.59375 L49.7656,-6.28125 M61.1875,-10.4063 L60.5,-8.76563 L55.2656,-8.76563 L55.2656,-9.10938 C56.9844,-10.4844 58.1563,-11.6042 58.7813,-12.4688 C59.125,-12.9792 59.2969,-13.4792 59.2969,-13.9688 C59.2969,-14.4583 59.1406,-14.8464 58.8281,-15.1328 C58.5156,-15.4193 58.1432,-15.5625 57.7109,-15.5625 C57.2786,-15.5625 56.9193,-15.4609 56.6328,-15.2578 C56.3464,-15.0547 56.1198,-14.724 55.9531,-14.2656 L55.4375,-14.2656 C55.5521,-14.9531 55.8385,-15.4974 56.2969,-15.8984 C56.7552,-16.2995 57.3568,-16.5 58.1016,-16.5 C58.8464,-16.5 59.4479,-16.2995 59.9063,-15.8984 C60.3646,-15.4974 60.5938,-15.0547 60.5938,-14.5703 C60.5938,-14.0859 60.3776,-13.5 59.9453,-12.8125 C59.513,-12.125 58.526,-11.1198 56.9844,-9.79688 L58.9531,-9.79688 C59.5885,-9.79688 60.0052,-9.84115 60.2031,-9.92969 C60.401,-10.0182 60.5573,-10.1771 60.6719,-10.4063 L61.1875,-10.4063 M86.9688,-17.2813 C85.6563,-15.9063 84.6693,-14.4297 84.0078,-12.8516 C83.3464,-11.2734 83.0156,-9.625 83.0156,-7.90625 C83.0156,-6.13542 83.3464,-4.47656 84.0078,-2.92969 C84.6693,-1.38281 85.6563,0.0833333 86.9688,1.46875 L86.5469,1.89063 C84.9427,0.453125 83.7396,-1.08073 82.9375,-2.71094 C82.1354,-4.34115 81.7344,-6.07292 81.7344,-7.90625 C81.7344,-9.6875 82.1354,-11.3932 82.9375,-13.0234 C83.7396,-14.6536 84.9427,-16.2135 86.5469,-17.7031 L86.9688,-17.2813 M92.2188,-0.265625 C91.1875,-0.265625 90.3854,-0.507813 89.8125,-0.992188 C89.2396,-1.47656 88.9531,-2.03646 88.9531,-2.67188 C88.9531,-3.70313 89.3958,-4.54688 90.2813,-5.20313 C91.1667,-5.85938 92.9271,-6.33333 95.5625,-6.625 L95.5625,-7.65625 C95.5625,-8.22917 95.4349,-8.70052 95.1797,-9.07031 C94.9245,-9.4401 94.3385,-9.625 93.4219,-9.625 C92.4427,-9.625 91.7526,-9.46875 91.3516,-9.15625 C90.9505,-8.84375 90.8073,-8.51563 90.9219,-8.17188 C90.9844,-8.05729 91.0156,-7.94271 91.0156,-7.82813 C91.0156,-7.71354 90.9714,-7.57031 90.8828,-7.39844 C90.7943,-7.22656 90.5781,-7.14063 90.2344,-7.14063 C90.0052,-7.14063 89.8203,-7.21094 89.6797,-7.35156 C89.5391,-7.49219 89.4688,-7.70833 89.4688,-8 C89.4688,-8.51042 89.8411,-8.99479 90.5859,-9.45313 C91.3307,-9.91146 92.2448,-10.1406 93.3281,-10.1406 C94.474,-10.1406 95.3333,-9.92708 95.9063,-9.5 C96.4792,-9.07292 96.7656,-8.45833 96.7656,-7.65625 L96.7656,-1.98438 C96.7656,-1.52604 96.8099,-1.2526 96.8984,-1.16406 C96.987,-1.07552 97.1458,-1.03125 97.375,-1.03125 C97.6563,-1.03125 97.8542,-1.16146 97.9688,-1.42188 C98.0833,-1.68229 98.1406,-2.04167 98.1406,-2.5 L98.5781,-2.5 C98.5781,-1.69792 98.4349,-1.13802 98.1484,-0.820313 C97.862,-0.502604 97.4896,-0.34375 97.0313,-0.34375 C96.625,-0.34375 96.3073,-0.429688 96.0781,-0.601563 C95.849,-0.773438 95.6771,-1.0625 95.5625,-1.46875 C94.9896,-1.0625 94.4609,-0.760417 93.9766,-0.5625 C93.4922,-0.364583 92.9063,-0.265625 92.2188,-0.265625 M90.4063,-2.92188 C90.4063,-2.41146 90.5651,-1.9401 90.8828,-1.50781 C91.2005,-1.07552 91.7031,-0.859375 92.3906,-0.859375 C92.901,-0.859375 93.4141,-0.960938 93.9297,-1.16406 C94.4453,-1.36719 94.9896,-1.66667 95.5625,-2.0625 L95.5625,-6.10938 C93.6146,-5.88021 92.2682,-5.49219 91.5234,-4.94531 C90.7786,-4.39844 90.4063,-3.72396 90.4063,-2.92188 M108.625,-7.90625 L100.984,-0.265625 L100.469,-0.78125 L107.594,-7.90625 L100.469,-15.0469 L100.984,-15.5625 L108.625,-7.90625 M115.5,-14.5313 C114.698,-14.5313 114.026,-13.9141 113.484,-12.6797 C112.943,-11.4453 112.672,-9.79688 112.672,-7.73438 C112.672,-5.55729 112.943,-3.86719 113.484,-2.66406 C114.026,-1.46094 114.698,-0.859375 115.5,-0.859375 C116.365,-0.859375 117.039,-1.46094 117.523,-2.66406 C118.008,-3.86719 118.25,-5.55729 118.25,-7.73438 C118.25,-9.79688 118.021,-11.4453 117.563,-12.6797 C117.104,-13.9141 116.417,-14.5313 115.5,-14.5313 M115.5,-0.171875 C114.24,-0.171875 113.18,-0.830729 112.32,-2.14844 C111.461,-3.46615 111.031,-5.32813 111.031,-7.73438 C111.031,-9.97396 111.448,-11.7813 112.281,-13.1563 C113.115,-14.5313 114.188,-15.2188 115.5,-15.2188 C116.76,-15.2188 117.807,-14.5599 118.641,-13.2422 C119.474,-11.9245 119.891,-10.0885 119.891,-7.73438 C119.891,-5.39063 119.474,-3.54427 118.641,-2.19531 C117.807,-0.846354 116.76,-0.171875 115.5,-0.171875 M121.953,-17.2813 L122.375,-17.7031 C123.979,-16.2135 125.182,-14.6536 125.984,-13.0234 C126.786,-11.3932 127.188,-9.6875 127.188,-7.90625 C127.188,-6.07292 126.786,-4.34115 125.984,-2.71094 C125.182,-1.08073 123.979,0.453125 122.375,1.89063 L121.953,1.46875 C123.266,0.0833333 124.253,-1.38281 124.914,-2.92969 C125.576,-4.47656 125.906,-6.13542 125.906,-7.90625 C125.906,-9.625 125.576,-11.2734 124.914,-12.8516 C124.253,-14.4297 123.266,-15.9063 121.953,-17.2813 "/>
</g>

<g fill="none" stroke="#2ecc71" stroke-opacity="1" stroke-width="5" stroke-linecap="butt" stroke-linejoin="round" transform="matrix(0.5,0,0,0.5,0,0)"
font-family="SimSun" font-size="9" font-weight="400" font-style="normal" 
>
<polyline fill="none" points="288,57 288.724,61.3199 289.447,65.5962 290.171,69.8288 290.894,74.0178 291.618,78.1631 292.342,82.2648 293.065,86.3229 293.789,90.3373 294.513,94.3082 295.236,98.2353 295.96,102.119 296.683,105.959 297.407,109.755 298.131,113.508 298.854,117.217 299.578,120.882 300.302,124.504 301.025,128.082 301.749,131.616 302.472,135.107 303.196,138.554 303.92,141.958 304.643,145.318 305.367,148.634 306.09,151.907 306.814,155.136 307.538,158.321 308.261,161.463 308.985,164.561 309.709,167.615 310.432,170.626 311.156,173.593 311.879,176.517 312.603,179.397 313.327,182.233 314.05,185.026 314.774,187.775 315.497,190.48 316.221,193.142 316.945,195.76 317.668,198.335 318.392,200.865 319.116,203.353 319.839,205.796 320.563,208.196 321.286,210.552 322.01,212.865 322.734,215.134 323.457,217.36 324.181,219.541 324.905,221.679 325.628,223.774 326.352,225.825 327.075,227.832 327.799,229.796 328.523,231.716 329.246,233.592 329.97,235.425 330.693,237.214 331.417,238.959 332.141,240.661 332.864,242.319 333.588,243.933 334.312,245.504 335.035,247.032 335.759,248.515 336.482,249.955 337.206,251.351 337.93,252.704 338.653,254.013 339.377,255.279 340.101,256.5 340.824,257.679 341.548,258.813 342.271,259.904 342.995,260.951 343.719,261.955 344.442,262.915 345.166,263.831 345.889,264.704 346.613,265.533 347.337,266.318 348.06,267.06 348.784,267.758 349.508,268.413 350.231,269.024 350.955,269.591 351.678,270.115 352.402,270.595 353.126,271.031 353.849,271.424 354.573,271.773 355.296,272.078 356.02,272.34 356.744,272.558 357.467,272.733 358.191,272.864 358.915,272.951 359.638,272.995 360.362,272.995 361.085,272.951 361.809,272.864 362.533,272.733 363.256,272.558 363.98,272.34 364.704,272.078 365.427,271.773 366.151,271.424 366.874,271.031 367.598,270.595 368.322,270.115 369.045,269.591 369.769,269.024 370.492,268.413 371.216,267.758 371.94,267.06 372.663,266.318 373.387,265.533 374.111,264.704 374.834,263.831 375.558,262.915 376.281,261.955 377.005,260.951 377.729,259.904 378.452,258.813 379.176,257.679 379.899,256.5 380.623,255.279 381.347,254.013 382.07,252.704 382.794,251.351 383.518,249.955 384.241,248.515 384.965,247.032 385.688,245.504 386.412,243.933 387.136,242.319 387.859,240.661 388.583,238.959 389.307,237.214 390.03,235.425 390.754,233.592 391.477,231.716 392.201,229.796 392.925,227.832 393.648,225.825 394.372,223.774 395.095,221.679 395.819,219.541 396.543,217.36 397.266,215.134 397.99,212.865 398.714,210.552 399.437,208.196 400.161,205.796 400.884,203.353 401.608,200.865 402.332,198.335 403.055,195.76 403.779,193.142 404.503,190.48 405.226,187.775 405.95,185.026 406.673,182.233 407.397,179.397 408.121,176.517 408.844,173.593 409.568,170.626 410.291,167.615 411.015,164.561 411.739,161.463 412.462,158.321 413.186,155.136 413.91,151.907 414.633,148.634 415.357,145.318 416.08,141.958 416.804,138.554 417.528,135.107 418.251,131.616 418.975,128.082 419.698,124.504 420.422,120.882 421.146,117.217 421.869,113.508 422.593,109.755 423.317,105.959 424.04,102.119 424.764,98.2353 425.487,94.3082 426.211,90.3373 426.935,86.3229 427.658,82.2648 428.382,78.1631 429.106,74.0178 429.829,69.8288 430.553,65.5962 431.276,61.3199 432,57 " />
</g>

<g fill="#2ecc71" fill-opacity="1" stroke="none" transform="matrix(0.5,0,0,0.5,105.15,34.17)"
font-family="SimSun" font-size="9" font-weight="400" font-style="normal" 
>
<path fill-rule="evenodd" d="M5.67188,-2.75 L5.84375,-2.75 L7.73438,-8.51563 C7.84896,-8.79688 7.83594,-9.02344 7.69531,-9.19531 C7.55469,-9.36719 7.36979,-9.45313 7.14063,-9.45313 L6.625,-9.45313 L6.625,-9.96875 L10.2344,-9.96875 L10.2344,-9.45313 L9.71875,-9.45313 C9.48958,-9.45313 9.26042,-9.36719 9.03125,-9.19531 C8.80208,-9.02344 8.63021,-8.79688 8.51563,-8.51563 L5.59375,0 C5.30208,0.864583 4.94271,1.53906 4.51563,2.02344 C4.08854,2.50781 3.53125,2.75 2.84375,2.75 C2.4375,2.75 2.11979,2.67969 1.89063,2.53906 C1.66146,2.39844 1.54688,2.18229 1.54688,1.89063 C1.54688,1.72396 1.61979,1.55469 1.76563,1.38281 C1.91146,1.21094 2.125,1.125 2.40625,1.125 C2.63542,1.125 2.86458,1.23958 3.09375,1.46875 C3.32292,1.63542 3.49479,1.71875 3.60938,1.71875 C3.78646,1.71875 3.93229,1.6901 4.04688,1.63281 C4.16146,1.57552 4.24479,1.46354 4.29688,1.29688 C4.47396,1.00521 4.64844,0.643229 4.82031,0.210938 C4.99219,-0.221354 5.13542,-0.666667 5.25,-1.125 L2.32813,-8.6875 C2.26563,-8.91667 2.13542,-9.10156 1.9375,-9.24219 C1.73958,-9.38281 1.52604,-9.45313 1.29688,-9.45313 L0.953125,-9.45313 L0.953125,-9.96875 L4.5625,-9.96875 L4.5625,-9.45313 L4.21875,-9.45313 C3.98958,-9.45313 3.81771,-9.38281 3.70313,-9.24219 C3.58854,-9.10156 3.55729,-8.88542 3.60938,-8.59375 L5.67188,-2.75 M22.6875,-9.71875 L22.6875,-10.4844 L32.2344,-10.4844 L32.2344,-9.71875 L22.6875,-9.71875 M22.6875,-5.32813 L22.6875,-6.10938 L32.2344,-6.10938 L32.2344,-5.32813 L22.6875,-5.32813 M44.6875,-7.65625 L44.6875,-8.42188 L54.2344,-8.42188 L54.2344,-7.65625 L44.6875,-7.65625 M60.7656,-6.28125 L62.3125,-8.59375 C62.4792,-8.82292 62.5495,-9.02344 62.5234,-9.19531 C62.4974,-9.36719 62.2813,-9.45313 61.875,-9.45313 L61.3594,-9.45313 L61.3594,-9.96875 L64.7188,-9.96875 L64.7188,-9.45313 L64.2813,-9.45313 C64.1667,-9.45313 64.0234,-9.4401 63.8516,-9.41406 C63.6797,-9.38802 63.5365,-9.28646 63.4219,-9.10938 L61.1094,-5.67188 L63.5156,-1.71875 C63.6823,-1.4375 63.8958,-1.22396 64.1563,-1.07813 C64.4167,-0.932292 64.6042,-0.859375 64.7188,-0.859375 L65.0625,-0.859375 L65.0625,-0.34375 L61.2813,-0.34375 L61.2813,-0.859375 L61.7969,-0.859375 C62.1406,-0.859375 62.3255,-0.945313 62.3516,-1.11719 C62.3776,-1.28906 62.3333,-1.48958 62.2188,-1.71875 L60.4219,-4.64063 L58.3594,-1.64063 C58.2969,-1.34896 58.3099,-1.14583 58.3984,-1.03125 C58.487,-0.916667 58.6458,-0.859375 58.875,-0.859375 L59.125,-0.859375 L59.125,-0.34375 L55.7813,-0.34375 L55.7813,-0.859375 L56.2969,-0.859375 C56.526,-0.859375 56.7839,-0.945313 57.0703,-1.11719 C57.3568,-1.28906 57.5833,-1.54688 57.75,-1.89063 L59.9844,-5.28125 L57.75,-8.85938 C57.6979,-8.97396 57.5859,-9.10156 57.4141,-9.24219 C57.2422,-9.38281 57.0104,-9.45313 56.7188,-9.45313 L56.2969,-9.45313 L56.2969,-9.96875 L59.9844,-9.96875 L59.9844,-9.45313 L59.7344,-9.45313 C59.4427,-9.45313 59.2682,-9.36719 59.2109,-9.19531 C59.1536,-9.02344 59.1823,-8.82292 59.2969,-8.59375 L60.7656,-6.28125 M72.1875,-10.4063 L71.5,-8.76563 L66.2656,-8.76563 L66.2656,-9.10938 C67.9844,-10.4844 69.1563,-11.6042 69.7813,-12.4688 C70.125,-12.9792 70.2969,-13.4792 70.2969,-13.9688 C70.2969,-14.4583 70.1406,-14.8464 69.8281,-15.1328 C69.5156,-15.4193 69.1432,-15.5625 68.7109,-15.5625 C68.2786,-15.5625 67.9193,-15.4609 67.6328,-15.2578 C67.3464,-15.0547 67.1198,-14.724 66.9531,-14.2656 L66.4375,-14.2656 C66.5521,-14.9531 66.8385,-15.4974 67.2969,-15.8984 C67.7552,-16.2995 68.3568,-16.5 69.1016,-16.5 C69.8464,-16.5 70.4479,-16.2995 70.9063,-15.8984 C71.3646,-15.4974 71.5938,-15.0547 71.5938,-14.5703 C71.5938,-14.0859 71.3776,-13.5 70.9453,-12.8125 C70.513,-12.125 69.526,-11.1198 67.9844,-9.79688 L69.9531,-9.79688 C70.5885,-9.79688 71.0052,-9.84115 71.2031,-9.92969 C71.401,-10.0182 71.5573,-10.1771 71.6719,-10.4063 L72.1875,-10.4063 M82.25,-8.42188 L82.25,-13.3281 L83.0156,-13.3281 L83.0156,-8.42188 L87.3125,-8.42188 L87.3125,-7.65625 L83.0156,-7.65625 L83.0156,-2.75 L82.25,-2.75 L82.25,-7.65625 L77.9531,-7.65625 L77.9531,-8.42188 L82.25,-8.42188 M96,-11.4375 C96,-12.4688 95.7708,-13.2552 95.3125,-13.7969 C94.8542,-14.3385 94.1667,-14.6094 93.25,-14.6094 C92.5625,-14.6094 91.974,-14.4245 91.4844,-14.0547 C90.9948,-13.6849 90.75,-13.2135 90.75,-12.6406 C90.75,-12.2969 90.8646,-12.0104 91.0938,-11.7813 C91.2708,-11.5521 91.3594,-11.3229 91.3594,-11.0938 C91.3594,-10.8021 91.2865,-10.5859 91.1406,-10.4453 C90.9948,-10.3047 90.7813,-10.2344 90.5,-10.2344 C90.1563,-10.2344 89.8828,-10.3333 89.6797,-10.5313 C89.4766,-10.7292 89.375,-11.0573 89.375,-11.5156 C89.375,-12.724 89.8047,-13.6432 90.6641,-14.2734 C91.5234,-14.9036 92.4427,-15.2188 93.4219,-15.2188 C94.7969,-15.2188 95.8125,-14.875 96.4688,-14.1875 C97.125,-13.5 97.4531,-12.6406 97.4531,-11.6094 C97.4531,-10.9219 97.2969,-10.2344 96.9844,-9.54688 C96.6719,-8.85938 96.1719,-8.19792 95.4844,-7.5625 C93.8177,-5.95833 92.5417,-4.65625 91.6563,-3.65625 C90.7708,-2.65625 90.2396,-1.98438 90.0625,-1.64063 L95.1406,-1.64063 C95.651,-1.64063 96.0781,-1.84115 96.4219,-2.24219 C96.7656,-2.64323 96.9948,-3.24479 97.1094,-4.04688 L97.625,-4.04688 L97.1094,-0.34375 L89.125,-0.34375 L89.125,-1.46875 C89.4063,-1.97917 89.8776,-2.63542 90.5391,-3.4375 C91.2005,-4.23958 92.0729,-5.1875 93.1563,-6.28125 C94.1354,-7.25 94.8542,-8.16406 95.3125,-9.02344 C95.7708,-9.88281 96,-10.6875 96,-11.4375 M119.969,-17.2813 C118.656,-15.9063 117.669,-14.4297 117.008,-12.8516 C116.346,-11.2734 116.016,-9.625 116.016,-7.90625 C116.016,-6.13542 116.346,-4.47656 117.008,-2.92969 C117.669,-1.38281 118.656,0.0833333 119.969,1.46875 L119.547,1.89063 C117.943,0.453125 116.74,-1.08073 115.938,-2.71094 C115.135,-4.34115 114.734,-6.07292 114.734,-7.90625 C114.734,-9.6875 115.135,-11.3932 115.938,-13.0234 C116.74,-14.6536 117.943,-16.2135 119.547,-17.7031 L119.969,-17.2813 M125.219,-0.265625 C124.188,-0.265625 123.385,-0.507813 122.813,-0.992188 C122.24,-1.47656 121.953,-2.03646 121.953,-2.67188 C121.953,-3.70313 122.396,-4.54688 123.281,-5.20313 C124.167,-5.85938 125.927,-6.33333 128.563,-6.625 L128.563,-7.65625 C128.563,-8.22917 128.435,-8.70052 128.18,-9.07031 C127.924,-9.4401 127.339,-9.625 126.422,-9.625 C125.443,-9.625 124.753,-9.46875 124.352,-9.15625 C123.951,-8.84375 123.807,-8.51563 123.922,-8.17188 C123.984,-8.05729 124.016,-7.94271 124.016,-7.82813 C124.016,-7.71354 123.971,-7.57031 123.883,-7.39844 C123.794,-7.22656 123.578,-7.14063 123.234,-7.14063 C123.005,-7.14063 122.82,-7.21094 122.68,-7.35156 C122.539,-7.49219 122.469,-7.70833 122.469,-8 C122.469,-8.51042 122.841,-8.99479 123.586,-9.45313 C124.331,-9.91146 125.245,-10.1406 126.328,-10.1406 C127.474,-10.1406 128.333,-9.92708 128.906,-9.5 C129.479,-9.07292 129.766,-8.45833 129.766,-7.65625 L129.766,-1.98438 C129.766,-1.52604 129.81,-1.2526 129.898,-1.16406 C129.987,-1.07552 130.146,-1.03125 130.375,-1.03125 C130.656,-1.03125 130.854,-1.16146 130.969,-1.42188 C131.083,-1.68229 131.141,-2.04167 131.141,-2.5 L131.578,-2.5 C131.578,-1.69792 131.435,-1.13802 131.148,-0.820313 C130.862,-0.502604 130.49,-0.34375 130.031,-0.34375 C129.625,-0.34375 129.307,-0.429688 129.078,-0.601563 C128.849,-0.773438 128.677,-1.0625 128.563,-1.46875 C127.99,-1.0625 127.461,-0.760417 126.977,-0.5625 C126.492,-0.364583 125.906,-0.265625 125.219,-0.265625 M123.406,-2.92188 C123.406,-2.41146 123.565,-1.9401 123.883,-1.50781 C124.201,-1.07552 124.703,-0.859375 125.391,-0.859375 C125.901,-0.859375 126.414,-0.960938 126.93,-1.16406 C127.445,-1.36719 127.99,-1.66667 128.563,-2.0625 L128.563,-6.10938 C126.615,-5.88021 125.268,-5.49219 124.523,-4.94531 C123.779,-4.39844 123.406,-3.72396 123.406,-2.92188 M133.375,-7.90625 L141.031,-15.5625 L141.547,-15.0469 L134.406,-7.90625 L141.547,-0.78125 L141.031,-0.265625 L133.375,-7.90625 M148.5,-14.5313 C147.698,-14.5313 147.026,-13.9141 146.484,-12.6797 C145.943,-11.4453 145.672,-9.79688 145.672,-7.73438 C145.672,-5.55729 145.943,-3.86719 146.484,-2.66406 C147.026,-1.46094 147.698,-0.859375 148.5,-0.859375 C149.365,-0.859375 150.039,-1.46094 150.523,-2.66406 C151.008,-3.86719 151.25,-5.55729 151.25,-7.73438 C151.25,-9.79688 151.021,-11.4453 150.563,-12.6797 C150.104,-13.9141 149.417,-14.5313 148.5,-14.5313 M148.5,-0.171875 C147.24,-0.171875 146.18,-0.830729 145.32,-2.14844 C144.461,-3.46615 144.031,-5.32813 144.031,-7.73438 C144.031,-9.97396 144.448,-11.7813 145.281,-13.1563 C146.115,-14.5313 147.188,-15.2188 148.5,-15.2188 C149.76,-15.2188 150.807,-14.5599 151.641,-13.2422 C152.474,-11.9245 152.891,-10.0885 152.891,-7.73438 C152.891,-5.39063 152.474,-3.54427 151.641,-2.19531 C150.807,-0.846354 149.76,-0.171875 148.5,-0.171875 M154.953,-17.2813 L155.375,-17.7031 C156.979,-16.2135 158.182,-14.6536 158.984,-13.0234 C159.786,-11.3932 160.188,-9.6875 160.188,-7.90625 C160.188,-6.07292 159.786,-4.34115 158.984,-2.71094 C158.182,-1.08073 156.979,0.453125 155.375,1.89063 L154.953,1.46875 C156.266,0.0833333 157.253,-1.38281 157.914,-2.92969 C158.576,-4.47656 158.906,-6.13542 158.906,-7.90625 C158.906,-9.625 158.576,-11.2734 157.914,-12.8516 C157.253,-14.4297 156.266,-15.9063 154.953,-17.2813 "/>
</g>

<g fill="#333333" fill-opacity="1" stroke="none" transform="matrix(0.5,0,0,0.5,106.5,215.25)"
font-family="SimSun" font-size="9" font-weight="400" font-style="normal" 
>
<path fill-rule="evenodd" d="M4.26563,-17.0625 L20.3438,-17.0625 L21.875,-18.5938 L24.0625,-16.4063 L7.76563,-16.4063 C6.89063,-16.4063 6.05208,-16.2969 5.25,-16.0781 L4.26563,-17.0625 M1.53125,-1.85938 L21.875,-1.85938 L23.8438,-3.82813 L26.4688,-1.20313 L5.25,-1.20313 C4.22917,-1.20313 3.31771,-1.09375 2.51563,-0.875 L1.53125,-1.85938 M49.3281,-11.9219 L51.0781,-15.75 L42.1094,-15.75 C41.526,-14.7292 40.9063,-13.6901 40.25,-12.6328 C39.5938,-11.5755 38.5365,-10.3177 37.0781,-8.85938 L36.75,-9.1875 C38.4271,-11.3021 39.776,-13.7083 40.7969,-16.4063 C41.8177,-19.1042 42.4375,-21.2552 42.6563,-22.8594 L45.2813,-21.5469 C44.6979,-21.2552 44.2604,-20.7813 43.9688,-20.125 C43.6771,-19.4688 43.1302,-18.2292 42.3281,-16.4063 L50.9688,-16.4063 L52.1719,-17.6094 L54.1406,-15.5313 C53.4115,-15.3854 52.7917,-15.0938 52.2813,-14.6563 C51.7708,-14.2188 50.8958,-13.2344 49.6563,-11.7031 L49.3281,-11.9219 M45.7188,-12.6875 C45.2813,-7.80208 44.0052,-4.21094 41.8906,-1.91406 C39.776,0.382813 37.2604,1.96875 34.3438,2.84375 L34.125,2.51563 C37.8438,0.838542 40.4323,-1.33073 41.8906,-3.99219 C43.349,-6.65365 44.1146,-10.2813 44.1875,-14.875 L46.7031,-13.5625 L46.0469,-13.0156 C46.5573,-9.29688 47.5599,-6.28906 49.0547,-3.99219 C50.5495,-1.69531 52.5,-0.109375 54.9063,0.765625 L54.7969,1.09375 C53.7031,1.02083 52.901,1.38542 52.3906,2.1875 C50.5677,0.802083 49.0547,-1.13021 47.8516,-3.60938 C46.6484,-6.08854 45.9375,-9.11458 45.7188,-12.6875 M31.2813,-21.6563 C32.8125,-20.8542 33.888,-20.125 34.5078,-19.4688 C35.1276,-18.8125 35.4375,-18.2656 35.4375,-17.8281 C35.4375,-17.3906 35.2734,-16.9531 34.9453,-16.5156 C34.6172,-16.0781 34.4167,-15.8594 34.3438,-15.8594 C34.0521,-15.8594 33.7969,-16.3333 33.5781,-17.2813 C33.2135,-18.5938 32.375,-19.9427 31.0625,-21.3281 L31.2813,-21.6563 M29.8594,-7.21875 C30.3698,-7.14583 30.8438,-7.10938 31.2813,-7.10938 C31.9375,-7.10938 32.4479,-7.25521 32.8125,-7.54688 C33.1771,-7.83854 34.8906,-11.5938 37.9531,-18.8125 L38.3906,-18.5938 C35.5469,-11.1563 34.0521,-7.29167 33.9063,-7 C33.7604,-6.70833 33.6875,-6.10677 33.6875,-5.19531 C33.6875,-4.28385 33.7969,-3.0625 34.0156,-1.53125 C34.2344,0.0729167 33.9974,0.838542 33.3047,0.765625 C32.612,0.692708 32.1927,0.473958 32.0469,0.109375 C31.901,-0.255208 31.8281,-0.583333 31.8281,-0.875 C31.8281,-1.16667 31.901,-1.71354 32.0469,-2.51563 C32.2656,-3.68229 32.3385,-4.57552 32.2656,-5.19531 C32.1927,-5.8151 31.3906,-6.34375 29.8594,-6.78125 L29.8594,-7.21875 M69.3438,-9.95313 L69.3438,-13.125 C69.3438,-14.4375 69.3073,-15.6042 69.2344,-16.625 L70.3281,-15.8594 L75.4688,-19.5781 L63.2188,-19.5781 C62.2708,-19.5781 61.3958,-19.4688 60.5938,-19.25 L59.6094,-20.2344 L75.4688,-20.2344 L76.8906,-21.3281 L78.5313,-19.1406 C77.7292,-18.9948 76.8542,-18.7031 75.9063,-18.2656 C74.9583,-17.8281 73.2813,-16.9167 70.875,-15.5313 L71.5313,-15.0938 L70.7656,-14.5469 L70.7656,-10.5 C73.3177,-12.9063 74.9219,-14.6563 75.5781,-15.75 L77.3281,-13.7813 L76.2344,-13.6719 C73.3177,-11.6302 71.5313,-10.3906 70.875,-9.95313 C74.3021,-8.20313 76.1797,-7.05469 76.5078,-6.50781 C76.8359,-5.96094 77,-5.46875 77,-5.03125 C77,-4.66667 76.9271,-4.33854 76.7813,-4.04688 C76.6354,-3.75521 76.526,-3.60938 76.4531,-3.60938 C76.1615,-3.60938 75.724,-4.08333 75.1406,-5.03125 C74.2656,-6.34375 72.8073,-7.80208 70.7656,-9.40625 L70.7656,-3.17188 C70.7656,-2.07813 70.0365,-1.23958 68.5781,-0.65625 C68.5052,-1.53125 67.5208,-2.26042 65.625,-2.84375 L65.625,-3.28125 C67.375,-3.0625 68.4323,-2.98958 68.7969,-3.0625 C69.1615,-3.13542 69.3438,-3.35417 69.3438,-3.71875 L69.3438,-9.1875 C65.8438,-6.85417 63.7656,-5.28646 63.1094,-4.48438 L61.5781,-6.125 C62.4531,-6.34375 63.638,-6.81771 65.1328,-7.54688 C66.6276,-8.27604 68.0313,-9.07813 69.3438,-9.95313 M63.4375,-15.2031 L63.7656,-15.5313 C65.4427,-14.5104 66.4635,-13.7448 66.8281,-13.2344 C67.1927,-12.724 67.375,-12.3594 67.375,-12.1406 C67.375,-11.776 67.2292,-11.4115 66.9375,-11.0469 C66.6458,-10.6823 66.4271,-10.5 66.2813,-10.5 C66.0625,-10.5 65.8802,-10.7552 65.7344,-11.2656 C65.5156,-12.1406 64.75,-13.4531 63.4375,-15.2031 M78.5313,0 L78.5313,-9.51563 C78.5313,-11.1198 78.4948,-12.7969 78.4219,-14.5469 L81.0469,-13.3438 L80.0625,-12.4688 L80.0625,-2.29688 C80.0625,-1.05729 80.099,0.291667 80.1719,1.75 L78.5313,2.625 L78.5313,0.65625 L61.4688,0.65625 L60.375,1.64063 L58.9531,0.21875 L59.8281,-0.546875 L59.8281,-10.3906 C59.8281,-11.6302 59.7917,-13.1615 59.7188,-14.9844 L62.3438,-13.7813 L61.3594,-13.0156 L61.3594,0 L78.5313,0 M92.2031,-6.67188 C91.6198,-5.72396 91.0729,-4.8125 90.5625,-3.9375 C91.5104,-3.71875 92.6406,-3.46354 93.9531,-3.17188 C94.6094,-3.90104 95.2656,-5.06771 95.9219,-6.67188 L92.2031,-6.67188 M87.7188,-21.4375 C89.1042,-20.5625 89.9427,-19.9063 90.2344,-19.4688 C90.526,-19.0313 90.6719,-18.7031 90.6719,-18.4844 C90.6719,-18.1198 90.5443,-17.7552 90.2891,-17.3906 C90.0339,-17.026 89.8333,-16.8438 89.6875,-16.8438 C89.4688,-16.8438 89.25,-17.2083 89.0313,-17.9375 C88.7396,-18.9583 88.1927,-20.0521 87.3906,-21.2188 L87.7188,-21.4375 M97.125,-21.7656 L99.0938,-20.4531 C98.5104,-20.3073 98,-19.9427 97.5625,-19.3594 C97.0521,-18.776 96.2135,-17.901 95.0469,-16.7344 L94.7188,-16.9531 C96.1042,-19.1406 96.9063,-20.7448 97.125,-21.7656 M92.2031,-22.9688 L94.6094,-21.875 L93.7344,-21.1094 L93.7344,-16.0781 L96.4688,-16.0781 L97.6719,-17.2813 L99.5313,-15.4219 L93.7344,-15.4219 L93.7344,-14.4375 C95.4115,-14.0729 96.4505,-13.7266 96.8516,-13.3984 C97.2526,-13.0703 97.4531,-12.651 97.4531,-12.1406 C97.4531,-11.9219 97.4167,-11.6484 97.3438,-11.3203 C97.2708,-10.9922 97.1615,-10.8281 97.0156,-10.8281 C96.8698,-10.8281 96.6146,-11.0833 96.25,-11.5938 C95.6667,-12.3958 94.8281,-13.1615 93.7344,-13.8906 L93.7344,-10.5 L92.4219,-9.625 L93.9531,-8.96875 C93.5885,-8.82292 93.1146,-8.27604 92.5313,-7.32813 L95.9219,-7.32813 L96.6875,-8.3125 L98.3281,-6.89063 L97.3438,-6.34375 C96.6146,-4.66667 95.9583,-3.5 95.375,-2.84375 C96.5417,-2.55208 97.3255,-2.24219 97.7266,-1.91406 C98.1276,-1.58594 98.3281,-1.16667 98.3281,-0.65625 C98.3281,-0.145833 98.2188,0.109375 98,0.109375 C97.7813,0.109375 97.526,-0.0364583 97.2344,-0.328125 C96.4323,-0.911458 95.5208,-1.42188 94.5,-1.85938 C91.9479,0.182292 88.9219,1.53125 85.4219,2.1875 L85.3125,1.85938 C88.6667,0.765625 91.2917,-0.65625 93.1875,-2.40625 C91.7292,-2.91667 90.3073,-3.28125 88.9219,-3.5 C89.2135,-3.9375 89.7969,-4.99479 90.6719,-6.67188 L89.25,-6.67188 C88.3021,-6.67188 87.4271,-6.5625 86.625,-6.34375 L85.6406,-7.32813 L90.8906,-7.32813 C91.1823,-8.05729 91.474,-8.93229 91.7656,-9.95313 L92.3125,-9.73438 L92.3125,-14.2188 C90.3438,-11.9583 88.0833,-10.2083 85.5313,-8.96875 L85.3125,-9.29688 C88.0104,-11.1927 90.0521,-13.2344 91.4375,-15.4219 L89.4688,-15.4219 C88.5208,-15.4219 87.6458,-15.3125 86.8438,-15.0938 L85.8594,-16.0781 L92.3125,-16.0781 C92.3125,-18.7031 92.276,-21 92.2031,-22.9688 M101.172,-15.4219 C101.536,-11.1927 102.411,-7.65625 103.797,-4.8125 C104.964,-7.29167 105.693,-10.8281 105.984,-15.4219 L101.172,-15.4219 M101.719,-22.9688 L104.234,-21.5469 C103.651,-21.3281 103.214,-20.8906 102.922,-20.2344 C102.63,-19.5781 102.083,-18.1927 101.281,-16.0781 L107.516,-16.0781 L108.828,-17.3906 L110.797,-15.4219 L107.625,-15.4219 C107.188,-10.026 106.24,-6.01563 104.781,-3.39063 C106.458,-1.34896 108.427,-0.0729167 110.688,0.4375 L110.688,0.875 C109.302,1.09375 108.573,1.53125 108.5,2.1875 C106.604,0.875 105.036,-0.619792 103.797,-2.29688 C101.391,0.0364583 98.5104,1.75 95.1563,2.84375 L94.9375,2.51563 C98.2917,0.984375 100.953,-1.02083 102.922,-3.5 C101.536,-6.92708 100.807,-10.6823 100.734,-14.7656 C100.005,-12.8698 98.9479,-11.0833 97.5625,-9.40625 L97.2344,-9.625 C98.9844,-12.5417 100.479,-16.9896 101.719,-22.9688 M133.219,-3.5 L133.438,-3.5 L135.844,-10.8281 C135.99,-11.1927 135.971,-11.4844 135.789,-11.7031 C135.607,-11.9219 135.37,-12.0313 135.078,-12.0313 L134.422,-12.0313 L134.422,-12.6875 L139.016,-12.6875 L139.016,-12.0313 L138.359,-12.0313 C138.068,-12.0313 137.776,-11.9219 137.484,-11.7031 C137.193,-11.4844 136.974,-11.1927 136.828,-10.8281 L133.109,0 C132.745,1.09375 132.289,1.95052 131.742,2.57031 C131.195,3.1901 130.484,3.5 129.609,3.5 C129.099,3.5 128.698,3.40885 128.406,3.22656 C128.115,3.04427 127.969,2.77083 127.969,2.40625 C127.969,2.1875 128.06,1.96875 128.242,1.75 C128.424,1.53125 128.698,1.42188 129.063,1.42188 C129.354,1.42188 129.646,1.56771 129.938,1.85938 C130.229,2.07813 130.448,2.1875 130.594,2.1875 C130.813,2.1875 130.995,2.15104 131.141,2.07813 C131.286,2.00521 131.396,1.85938 131.469,1.64063 C131.688,1.27604 131.906,0.820313 132.125,0.273438 C132.344,-0.273438 132.526,-0.838542 132.672,-1.42188 L128.953,-11.0469 C128.88,-11.3385 128.716,-11.5755 128.461,-11.7578 C128.206,-11.9401 127.932,-12.0313 127.641,-12.0313 L127.203,-12.0313 L127.203,-12.6875 L131.797,-12.6875 L131.797,-12.0313 L131.359,-12.0313 C131.068,-12.0313 130.849,-11.9401 130.703,-11.7578 C130.557,-11.5755 130.521,-11.3021 130.594,-10.9375 L133.219,-3.5 M154.875,-12.3594 L154.875,-13.3438 L167.016,-13.3438 L167.016,-12.3594 L154.875,-12.3594 M154.875,-6.78125 L154.875,-7.76563 L167.016,-7.76563 L167.016,-6.78125 L154.875,-6.78125 M187.359,-0.328125 C186.047,-0.328125 185.026,-0.638021 184.297,-1.25781 C183.568,-1.8776 183.203,-2.58854 183.203,-3.39063 C183.203,-4.70313 183.768,-5.77865 184.898,-6.61719 C186.029,-7.45573 188.271,-8.05729 191.625,-8.42188 L191.625,-9.73438 C191.625,-10.4635 191.461,-11.0651 191.133,-11.5391 C190.805,-12.013 190.057,-12.25 188.891,-12.25 C187.651,-12.25 186.776,-12.0495 186.266,-11.6484 C185.755,-11.2474 185.573,-10.8281 185.719,-10.3906 C185.792,-10.2448 185.828,-10.099 185.828,-9.95313 C185.828,-9.80729 185.773,-9.625 185.664,-9.40625 C185.555,-9.1875 185.281,-9.07813 184.844,-9.07813 C184.552,-9.07813 184.315,-9.16927 184.133,-9.35156 C183.951,-9.53385 183.859,-9.80729 183.859,-10.1719 C183.859,-10.8281 184.333,-11.4479 185.281,-12.0313 C186.229,-12.6146 187.396,-12.9063 188.781,-12.9063 C190.24,-12.9063 191.333,-12.6328 192.063,-12.0859 C192.792,-11.5391 193.156,-10.7552 193.156,-9.73438 L193.156,-2.51563 C193.156,-1.93229 193.211,-1.58594 193.32,-1.47656 C193.43,-1.36719 193.63,-1.3125 193.922,-1.3125 C194.286,-1.3125 194.542,-1.47656 194.688,-1.80469 C194.833,-2.13281 194.906,-2.58854 194.906,-3.17188 L195.453,-3.17188 C195.453,-2.15104 195.271,-1.4401 194.906,-1.03906 C194.542,-0.638021 194.068,-0.4375 193.484,-0.4375 C192.974,-0.4375 192.573,-0.546875 192.281,-0.765625 C191.99,-0.984375 191.771,-1.34896 191.625,-1.85938 C190.896,-1.34896 190.221,-0.966146 189.602,-0.710938 C188.982,-0.455729 188.234,-0.328125 187.359,-0.328125 M185.063,-3.71875 C185.063,-3.0625 185.263,-2.46094 185.664,-1.91406 C186.065,-1.36719 186.703,-1.09375 187.578,-1.09375 C188.234,-1.09375 188.891,-1.22135 189.547,-1.47656 C190.203,-1.73177 190.896,-2.11458 191.625,-2.625 L191.625,-7.76563 C189.146,-7.47396 187.432,-6.98177 186.484,-6.28906 C185.536,-5.59635 185.063,-4.73958 185.063,-3.71875 M203.328,-8 L205.297,-10.9375 C205.516,-11.2292 205.607,-11.4844 205.57,-11.7031 C205.534,-11.9219 205.26,-12.0313 204.75,-12.0313 L204.094,-12.0313 L204.094,-12.6875 L208.359,-12.6875 L208.359,-12.0313 L207.813,-12.0313 C207.667,-12.0313 207.484,-12.013 207.266,-11.9766 C207.047,-11.9401 206.865,-11.8125 206.719,-11.5938 L203.766,-7.21875 L206.828,-2.1875 C207.047,-1.82292 207.32,-1.54948 207.648,-1.36719 C207.977,-1.1849 208.214,-1.09375 208.359,-1.09375 L208.797,-1.09375 L208.797,-0.4375 L203.984,-0.4375 L203.984,-1.09375 L204.641,-1.09375 C205.078,-1.09375 205.315,-1.20313 205.352,-1.42188 C205.388,-1.64063 205.333,-1.89583 205.188,-2.1875 L202.891,-5.90625 L200.266,-2.07813 C200.193,-1.71354 200.211,-1.45833 200.32,-1.3125 C200.43,-1.16667 200.63,-1.09375 200.922,-1.09375 L201.25,-1.09375 L201.25,-0.4375 L196.984,-0.4375 L196.984,-1.09375 L197.641,-1.09375 C197.932,-1.09375 198.26,-1.20313 198.625,-1.42188 C198.99,-1.64063 199.281,-1.96875 199.5,-2.40625 L202.344,-6.71875 L199.5,-11.2656 C199.427,-11.4115 199.281,-11.5755 199.063,-11.7578 C198.844,-11.9401 198.552,-12.0313 198.188,-12.0313 L197.641,-12.0313 L197.641,-12.6875 L202.344,-12.6875 L202.344,-12.0313 L202.016,-12.0313 C201.651,-12.0313 201.432,-11.9219 201.359,-11.7031 C201.286,-11.4844 201.323,-11.2292 201.469,-10.9375 L203.328,-8 M217.875,-13.2344 L217,-11.1563 L210.328,-11.1563 L210.328,-11.5938 C212.516,-13.3438 214.01,-14.7656 214.813,-15.8594 C215.25,-16.5156 215.469,-17.1536 215.469,-17.7734 C215.469,-18.3932 215.268,-18.8854 214.867,-19.25 C214.466,-19.6146 213.992,-19.7969 213.445,-19.7969 C212.898,-19.7969 212.443,-19.6693 212.078,-19.4141 C211.714,-19.1589 211.422,-18.7396 211.203,-18.1563 L210.547,-18.1563 C210.693,-19.0313 211.057,-19.724 211.641,-20.2344 C212.224,-20.7448 212.99,-21 213.938,-21 C214.885,-21 215.651,-20.7448 216.234,-20.2344 C216.818,-19.724 217.109,-19.1589 217.109,-18.5391 C217.109,-17.9193 216.836,-17.1719 216.289,-16.2969 C215.742,-15.4219 214.484,-14.1458 212.516,-12.4688 L215.031,-12.4688 C215.833,-12.4688 216.362,-12.5234 216.617,-12.6328 C216.872,-12.7422 217.073,-12.9427 217.219,-13.2344 L217.875,-13.2344 M230.672,-10.7188 L230.672,-16.9531 L231.656,-16.9531 L231.656,-10.7188 L237.125,-10.7188 L237.125,-9.73438 L231.656,-9.73438 L231.656,-3.5 L230.672,-3.5 L230.672,-9.73438 L225.203,-9.73438 L225.203,-10.7188 L230.672,-10.7188 M241.828,-10.1719 C242.193,-10.974 242.776,-11.612 243.578,-12.0859 C244.38,-12.5599 245.146,-12.7969 245.875,-12.7969 C247.406,-12.7969 248.555,-12.2682 249.32,-11.2109 C250.086,-10.1536 250.469,-8.60417 250.469,-6.5625 C250.469,-4.52083 249.977,-2.97135 248.992,-1.91406 C248.008,-0.856771 246.786,-0.328125 245.328,-0.328125 C244.599,-0.328125 243.924,-0.455729 243.305,-0.710938 C242.685,-0.966146 242.156,-1.3125 241.719,-1.75 L240.734,-0.4375 L240.297,-0.4375 L240.297,-17.6094 C240.297,-17.901 240.224,-18.1198 240.078,-18.2656 C239.932,-18.4115 239.677,-18.4844 239.313,-18.4844 L238.656,-18.4844 L238.656,-19.1406 L239.641,-19.1406 C240.005,-19.1406 240.37,-19.2135 240.734,-19.3594 C241.099,-19.5052 241.464,-19.724 241.828,-20.0156 L241.828,-10.1719 M241.828,-4.04688 C241.828,-3.24479 242.102,-2.55208 242.648,-1.96875 C243.195,-1.38542 244.016,-1.09375 245.109,-1.09375 C246.422,-1.09375 247.352,-1.54948 247.898,-2.46094 C248.445,-3.3724 248.719,-4.73958 248.719,-6.5625 C248.719,-8.3125 248.482,-9.64323 248.008,-10.5547 C247.534,-11.4661 246.786,-11.9219 245.766,-11.9219 C244.891,-11.9219 244.125,-11.6667 243.469,-11.1563 C242.813,-10.6458 242.266,-9.73438 241.828,-8.42188 L241.828,-4.04688 M259.328,-8 L261.297,-10.9375 C261.516,-11.2292 261.607,-11.4844 261.57,-11.7031 C261.534,-11.9219 261.26,-12.0313 260.75,-12.0313 L260.094,-12.0313 L260.094,-12.6875 L264.359,-12.6875 L264.359,-12.0313 L263.813,-12.0313 C263.667,-12.0313 263.484,-12.013 263.266,-11.9766 C263.047,-11.9401 262.865,-11.8125 262.719,-11.5938 L259.766,-7.21875 L262.828,-2.1875 C263.047,-1.82292 263.32,-1.54948 263.648,-1.36719 C263.977,-1.1849 264.214,-1.09375 264.359,-1.09375 L264.797,-1.09375 L264.797,-0.4375 L259.984,-0.4375 L259.984,-1.09375 L260.641,-1.09375 C261.078,-1.09375 261.315,-1.20313 261.352,-1.42188 C261.388,-1.64063 261.333,-1.89583 261.188,-2.1875 L258.891,-5.90625 L256.266,-2.07813 C256.193,-1.71354 256.211,-1.45833 256.32,-1.3125 C256.43,-1.16667 256.63,-1.09375 256.922,-1.09375 L257.25,-1.09375 L257.25,-0.4375 L252.984,-0.4375 L252.984,-1.09375 L253.641,-1.09375 C253.932,-1.09375 254.26,-1.20313 254.625,-1.42188 C254.99,-1.64063 255.281,-1.96875 255.5,-2.40625 L258.344,-6.71875 L255.5,-11.2656 C255.427,-11.4115 255.281,-11.5755 255.063,-11.7578 C254.844,-11.9401 254.552,-12.0313 254.188,-12.0313 L253.641,-12.0313 L253.641,-12.6875 L258.344,-12.6875 L258.344,-12.0313 L258.016,-12.0313 C257.651,-12.0313 257.432,-11.9219 257.359,-11.7031 C257.286,-11.4844 257.323,-11.2292 257.469,-10.9375 L259.328,-8 M272.672,-10.7188 L272.672,-16.9531 L273.656,-16.9531 L273.656,-10.7188 L279.125,-10.7188 L279.125,-9.73438 L273.656,-9.73438 L273.656,-3.5 L272.672,-3.5 L272.672,-9.73438 L267.203,-9.73438 L267.203,-10.7188 L272.672,-10.7188 M289.406,-9.73438 C289.406,-9.95313 289.443,-10.099 289.516,-10.1719 C289.516,-10.2448 289.552,-10.3906 289.625,-10.6094 C289.698,-10.901 289.552,-11.2474 289.188,-11.6484 C288.823,-12.0495 288.203,-12.25 287.328,-12.25 C286.234,-12.25 285.305,-11.7214 284.539,-10.6641 C283.773,-9.60677 283.391,-8.20313 283.391,-6.45313 C283.391,-4.84896 283.719,-3.55469 284.375,-2.57031 C285.031,-1.58594 286.125,-1.09375 287.656,-1.09375 C288.677,-1.09375 289.534,-1.42188 290.227,-2.07813 C290.919,-2.73438 291.411,-3.5 291.703,-4.375 L292.25,-4.15625 C291.958,-3.0625 291.411,-2.13281 290.609,-1.36719 C289.807,-0.601563 288.714,-0.21875 287.328,-0.21875 C285.578,-0.21875 284.193,-0.765625 283.172,-1.85938 C282.151,-2.95313 281.641,-4.52083 281.641,-6.5625 C281.641,-8.38542 282.188,-9.89844 283.281,-11.1016 C284.375,-12.3047 285.797,-12.9063 287.547,-12.9063 C288.786,-12.9063 289.753,-12.5781 290.445,-11.9219 C291.138,-11.2656 291.484,-10.6094 291.484,-9.95313 C291.484,-9.51563 291.393,-9.20573 291.211,-9.02344 C291.029,-8.84115 290.755,-8.75 290.391,-8.75 C290.099,-8.75 289.862,-8.84115 289.68,-9.02344 C289.497,-9.20573 289.406,-9.44271 289.406,-9.73438 "/>
</g>
</g>
</svg>
