<?xml version="1.0" encoding="UTF-8" standalone="no"?>
<svg width="127mm" height="79.375mm"
 viewBox="0 0 360 225"
 xmlns="http://www.w3.org/2000/svg" xmlns:xlink="http://www.w3.org/1999/xlink"  version="1.2" baseProfile="tiny">


<defs>
</defs>
<g fill="none" stroke="black" stroke-width="1" fill-rule="evenodd" stroke-linecap="square" stroke-linejoin="bevel" >



<g fill="#333333" fill-opacity="1" stroke="#333333" stroke-opacity="1" stroke-width="2" stroke-linecap="butt" stroke-linejoin="round" transform="matrix(0.5,0,0,0.5,0,0)"
font-family="SimSun" font-size="9" font-weight="400" font-style="normal" 
>
<polyline fill="none" points="30,225 690,225 " />
<polyline fill="none" points="360,420 360,30 " />
</g>

<g fill="none" stroke="#333333" stroke-opacity="1" stroke-width="2" stroke-linecap="butt" stroke-linejoin="round" transform="matrix(0.5,0,0,0.5,0,0)"
font-family="SimSun" font-size="9" font-weight="400" font-style="normal" 
>
<polyline fill="none" points="682.5,231 690,225 682.5,219 " />
<polyline fill="none" points="354,412.5 360,420 366,412.5 " />
</g>

<g fill="#333333" fill-opacity="1" stroke="none" transform="matrix(0.5,0,0,0.5,346.5,122.75)"
font-family="SimSun" font-size="9" font-weight="400" font-style="normal" 
>
<path fill-rule="evenodd" d="M6.28125,-6.85938 L7.96875,-9.375 C8.15625,-9.625 8.23438,-9.84375 8.20313,-10.0313 C8.17188,-10.2188 7.9375,-10.3125 7.5,-10.3125 L6.9375,-10.3125 L6.9375,-10.875 L10.5938,-10.875 L10.5938,-10.3125 L10.125,-10.3125 C10,-10.3125 9.84375,-10.2969 9.65625,-10.2656 C9.46875,-10.2344 9.3125,-10.125 9.1875,-9.9375 L6.65625,-6.1875 L9.28125,-1.875 C9.46875,-1.5625 9.70313,-1.32813 9.98438,-1.17188 C10.2656,-1.01563 10.4688,-0.9375 10.5938,-0.9375 L10.9688,-0.9375 L10.9688,-0.375 L6.84375,-0.375 L6.84375,-0.9375 L7.40625,-0.9375 C7.78125,-0.9375 7.98438,-1.03125 8.01563,-1.21875 C8.04688,-1.40625 8,-1.625 7.875,-1.875 L5.90625,-5.0625 L3.65625,-1.78125 C3.59375,-1.46875 3.60938,-1.25 3.70313,-1.125 C3.79688,-1 3.96875,-0.9375 4.21875,-0.9375 L4.5,-0.9375 L4.5,-0.375 L0.84375,-0.375 L0.84375,-0.9375 L1.40625,-0.9375 C1.65625,-0.9375 1.9375,-1.03125 2.25,-1.21875 C2.5625,-1.40625 2.8125,-1.6875 3,-2.0625 L5.4375,-5.75 L3,-9.65625 C2.9375,-9.78125 2.8125,-9.92188 2.625,-10.0781 C2.4375,-10.2344 2.1875,-10.3125 1.875,-10.3125 L1.40625,-10.3125 L1.40625,-10.875 L5.4375,-10.875 L5.4375,-10.3125 L5.15625,-10.3125 C4.84375,-10.3125 4.65625,-10.2188 4.59375,-10.0313 C4.53125,-9.84375 4.5625,-9.625 4.6875,-9.375 L6.28125,-6.85938 M2.625,-10.3125"/>
</g>

<g fill="#333333" fill-opacity="1" stroke="none" transform="matrix(0.5,0,0,0.5,186,215.75)"
font-family="SimSun" font-size="9" font-weight="400" font-style="normal" 
>
<path fill-rule="evenodd" d="M6.1875,-3 L6.375,-3 L8.4375,-9.28125 C8.5625,-9.59375 8.54688,-9.84375 8.39063,-10.0313 C8.23438,-10.2188 8.03125,-10.3125 7.78125,-10.3125 L7.21875,-10.3125 L7.21875,-10.875 L11.1563,-10.875 L11.1563,-10.3125 L10.5938,-10.3125 C10.3438,-10.3125 10.0938,-10.2188 9.84375,-10.0313 C9.59375,-9.84375 9.40625,-9.59375 9.28125,-9.28125 L6.09375,0 C5.78125,0.9375 5.39063,1.67188 4.92188,2.20313 C4.45313,2.73438 3.84375,3 3.09375,3 C2.65625,3 2.3125,2.92188 2.0625,2.76563 C1.8125,2.60938 1.6875,2.375 1.6875,2.0625 C1.6875,1.875 1.76563,1.6875 1.92188,1.5 C2.07813,1.3125 2.3125,1.21875 2.625,1.21875 C2.875,1.21875 3.125,1.34375 3.375,1.59375 C3.625,1.78125 3.8125,1.875 3.9375,1.875 C4.125,1.875 4.28125,1.84375 4.40625,1.78125 C4.53125,1.71875 4.625,1.59375 4.6875,1.40625 C4.875,1.09375 5.0625,0.703125 5.25,0.234375 C5.4375,-0.234375 5.59375,-0.71875 5.71875,-1.21875 L2.53125,-9.46875 C2.46875,-9.71875 2.32813,-9.92188 2.10938,-10.0781 C1.89063,-10.2344 1.65625,-10.3125 1.40625,-10.3125 L1.03125,-10.3125 L1.03125,-10.875 L4.96875,-10.875 L4.96875,-10.3125 L4.59375,-10.3125 C4.34375,-10.3125 4.15625,-10.2344 4.03125,-10.0781 C3.90625,-9.92188 3.875,-9.6875 3.9375,-9.375 L6.1875,-3 M8.71875,-10.3125"/>
</g>

<g fill="#888888" fill-opacity="1" stroke="none" transform="matrix(0.5,0,0,0.5,172.5,108.75)"
font-family="SimSun" font-size="9" font-weight="400" font-style="normal" 
>
<path fill-rule="evenodd" d="M2.40625,-7.73438 C2.40625,-5.27604 2.70833,-3.48698 3.3125,-2.36719 C3.91667,-1.2474 4.67708,-0.6875 5.59375,-0.6875 C6.5625,-0.6875 7.33333,-1.21875 7.90625,-2.28125 C8.47917,-3.34375 8.76563,-5.16146 8.76563,-7.73438 C8.76563,-9.79688 8.52344,-11.4583 8.03906,-12.7188 C7.55469,-13.9792 6.73958,-14.6094 5.59375,-14.6094 C4.61458,-14.6094 3.83854,-14.0365 3.26563,-12.8906 C2.69271,-11.7448 2.40625,-10.026 2.40625,-7.73438 M10.4063,-7.73438 C10.4063,-5.39063 9.94792,-3.54427 9.03125,-2.19531 C8.11458,-0.846354 6.96875,-0.171875 5.59375,-0.171875 C4.27083,-0.171875 3.13802,-0.859375 2.19531,-2.23438 C1.2526,-3.60938 0.78125,-5.44271 0.78125,-7.73438 C0.78125,-9.97396 1.22396,-11.7813 2.10938,-13.1563 C2.99479,-14.5313 4.15625,-15.2188 5.59375,-15.2188 C7.08333,-15.2188 8.25781,-14.487 9.11719,-13.0234 C9.97656,-11.5599 10.4063,-9.79688 10.4063,-7.73438 "/>
</g>

<g fill="none" stroke="#e74c3c" stroke-opacity="1" stroke-width="5" stroke-linecap="butt" stroke-linejoin="round" transform="matrix(0.5,0,0,0.5,0,0)"
font-family="SimSun" font-size="9" font-weight="400" font-style="normal" 
>
<polyline fill="none" points="150,99 154.242,102.394 158.485,105.788 162.727,109.182 166.97,112.576 171.212,115.97 175.455,119.364 179.697,122.758 183.939,126.152 188.182,129.545 192.424,132.939 196.667,136.333 200.909,139.727 205.152,143.121 209.394,146.515 213.636,149.909 217.879,153.303 222.121,156.697 226.364,160.091 230.606,163.485 234.848,166.879 239.091,170.273 243.333,173.667 247.576,177.061 251.818,180.455 256.061,183.848 260.303,187.242 264.545,190.636 268.788,194.03 273.03,197.424 277.273,200.818 281.515,204.212 285.758,207.606 290,211 294.242,214.394 298.485,217.788 302.727,221.182 306.97,224.576 311.212,227.97 315.455,231.364 319.697,234.758 323.939,238.152 328.182,241.545 332.424,244.939 336.667,248.333 340.909,251.727 345.152,255.121 349.394,258.515 353.636,261.909 357.879,265.303 362.121,268.697 366.364,272.091 370.606,275.485 374.848,278.879 379.091,282.273 383.333,285.667 387.576,289.061 391.818,292.455 396.061,295.848 400.303,299.242 404.545,302.636 408.788,306.03 413.03,309.424 417.273,312.818 421.515,316.212 425.758,319.606 430,323 434.242,326.394 438.485,329.788 442.727,333.182 446.97,336.576 451.212,339.97 455.455,343.364 459.697,346.758 463.939,350.152 468.182,353.545 472.424,356.939 476.667,360.333 480.909,363.727 485.152,367.121 489.394,370.515 493.636,373.909 497.879,377.303 502.121,380.697 506.364,384.091 510.606,387.485 514.849,390.879 519.091,394.273 523.333,397.667 527.576,401.061 531.818,404.455 536.061,407.848 540.303,411.242 544.545,414.636 548.788,418.03 553.03,421.424 557.273,424.818 561.515,428.212 565.758,431.606 570,435 " />
</g>

<g fill="#e74c3c" fill-opacity="1" stroke="none" transform="matrix(0.5,0,0,0.5,247,223.35)"
font-family="SimSun" font-size="9" font-weight="400" font-style="normal" 
>
<path fill-rule="evenodd" d="M5.67188,-2.75 L5.84375,-2.75 L7.73438,-8.51563 C7.84896,-8.79688 7.83594,-9.02344 7.69531,-9.19531 C7.55469,-9.36719 7.36979,-9.45313 7.14063,-9.45313 L6.625,-9.45313 L6.625,-9.96875 L10.2344,-9.96875 L10.2344,-9.45313 L9.71875,-9.45313 C9.48958,-9.45313 9.26042,-9.36719 9.03125,-9.19531 C8.80208,-9.02344 8.63021,-8.79688 8.51563,-8.51563 L5.59375,0 C5.30208,0.864583 4.94271,1.53906 4.51563,2.02344 C4.08854,2.50781 3.53125,2.75 2.84375,2.75 C2.4375,2.75 2.11979,2.67969 1.89063,2.53906 C1.66146,2.39844 1.54688,2.18229 1.54688,1.89063 C1.54688,1.72396 1.61979,1.55469 1.76563,1.38281 C1.91146,1.21094 2.125,1.125 2.40625,1.125 C2.63542,1.125 2.86458,1.23958 3.09375,1.46875 C3.32292,1.63542 3.49479,1.71875 3.60938,1.71875 C3.78646,1.71875 3.93229,1.6901 4.04688,1.63281 C4.16146,1.57552 4.24479,1.46354 4.29688,1.29688 C4.47396,1.00521 4.64844,0.643229 4.82031,0.210938 C4.99219,-0.221354 5.13542,-0.666667 5.25,-1.125 L2.32813,-8.6875 C2.26563,-8.91667 2.13542,-9.10156 1.9375,-9.24219 C1.73958,-9.38281 1.52604,-9.45313 1.29688,-9.45313 L0.953125,-9.45313 L0.953125,-9.96875 L4.5625,-9.96875 L4.5625,-9.45313 L4.21875,-9.45313 C3.98958,-9.45313 3.81771,-9.38281 3.70313,-9.24219 C3.58854,-9.10156 3.55729,-8.88542 3.60938,-8.59375 L5.67188,-2.75 M22.6875,-9.71875 L22.6875,-10.4844 L32.2344,-10.4844 L32.2344,-9.71875 L22.6875,-9.71875 M22.6875,-5.32813 L22.6875,-6.10938 L32.2344,-6.10938 L32.2344,-5.32813 L22.6875,-5.32813 M49.5,-14.5313 C48.6979,-14.5313 48.026,-13.9141 47.4844,-12.6797 C46.9427,-11.4453 46.6719,-9.79688 46.6719,-7.73438 C46.6719,-5.55729 46.9427,-3.86719 47.4844,-2.66406 C48.026,-1.46094 48.6979,-0.859375 49.5,-0.859375 C50.3646,-0.859375 51.0391,-1.46094 51.5234,-2.66406 C52.0078,-3.86719 52.25,-5.55729 52.25,-7.73438 C52.25,-9.79688 52.0208,-11.4453 51.5625,-12.6797 C51.1042,-13.9141 50.4167,-14.5313 49.5,-14.5313 M49.5,-0.171875 C48.2396,-0.171875 47.1797,-0.830729 46.3203,-2.14844 C45.4609,-3.46615 45.0313,-5.32813 45.0313,-7.73438 C45.0313,-9.97396 45.4479,-11.7813 46.2813,-13.1563 C47.1146,-14.5313 48.1875,-15.2188 49.5,-15.2188 C50.7604,-15.2188 51.8073,-14.5599 52.6406,-13.2422 C53.474,-11.9245 53.8906,-10.0885 53.8906,-7.73438 C53.8906,-5.39063 53.474,-3.54427 52.6406,-2.19531 C51.8073,-0.846354 50.7604,-0.171875 49.5,-0.171875 M57.75,-0.09375 C57.4063,-0.09375 57.1068,-0.208333 56.8516,-0.4375 C56.5964,-0.666667 56.4688,-0.979167 56.4688,-1.375 C56.4688,-1.78125 56.5964,-2.09896 56.8516,-2.32813 C57.1068,-2.55729 57.4063,-2.67188 57.75,-2.67188 C58.0938,-2.67188 58.3958,-2.54167 58.6563,-2.28125 C58.9167,-2.02083 59.0469,-1.71875 59.0469,-1.375 C59.0469,-0.979167 58.9167,-0.666667 58.6563,-0.4375 C58.3958,-0.208333 58.0938,-0.09375 57.75,-0.09375 M68.1563,-3.875 C68.1563,-2.95833 68.4557,-2.21354 69.0547,-1.64063 C69.6536,-1.06771 70.4115,-0.78125 71.3281,-0.78125 C72.4219,-0.78125 73.2109,-1.06771 73.6953,-1.64063 C74.1797,-2.21354 74.4219,-2.92708 74.4219,-3.78125 C74.4219,-4.53125 74.0781,-5.25 73.3906,-5.9375 C72.7031,-6.625 71.6719,-7.25521 70.2969,-7.82813 C69.6094,-7.36979 69.0807,-6.79688 68.7109,-6.10938 C68.3411,-5.42188 68.1563,-4.67708 68.1563,-3.875 M75.7188,-4.04688 C75.7188,-2.95313 75.3177,-2.03385 74.5156,-1.28906 C73.7135,-0.544271 72.651,-0.171875 71.3281,-0.171875 C70.1302,-0.171875 69.1016,-0.544271 68.2422,-1.28906 C67.3828,-2.03385 66.9531,-2.89583 66.9531,-3.875 C66.9531,-4.84375 67.1953,-5.67188 67.6797,-6.35938 C68.1641,-7.04688 68.8646,-7.65104 69.7813,-8.17188 C68.9792,-8.56771 68.3646,-9.06771 67.9375,-9.67188 C67.5104,-10.276 67.2969,-10.9479 67.2969,-11.6875 C67.2969,-12.6667 67.6693,-13.5 68.4141,-14.1875 C69.1589,-14.875 70.1875,-15.2188 71.5,-15.2188 C72.7083,-15.2188 73.6849,-14.875 74.4297,-14.1875 C75.1745,-13.5 75.5469,-12.6667 75.5469,-11.6875 C75.5469,-11 75.3307,-10.3568 74.8984,-9.75781 C74.4661,-9.15885 73.7917,-8.63021 72.875,-8.17188 C73.8542,-7.59896 74.5729,-6.96875 75.0313,-6.28125 C75.4896,-5.59375 75.7188,-4.84896 75.7188,-4.04688 M74.3438,-11.6094 C74.3438,-12.4115 74.1146,-13.112 73.6563,-13.7109 C73.1979,-14.3099 72.4792,-14.6094 71.5,-14.6094 C70.4167,-14.6094 69.6458,-14.3229 69.1875,-13.75 C68.7292,-13.1771 68.5,-12.5781 68.5,-11.9531 C68.5,-11.3177 68.8281,-10.7005 69.4844,-10.1016 C70.1406,-9.5026 71.0729,-8.97396 72.2813,-8.51563 C72.9688,-8.85938 73.4844,-9.28906 73.8281,-9.80469 C74.1719,-10.3203 74.3438,-10.9219 74.3438,-11.6094 M82.7656,-6.28125 L84.3125,-8.59375 C84.4792,-8.82292 84.5495,-9.02344 84.5234,-9.19531 C84.4974,-9.36719 84.2813,-9.45313 83.875,-9.45313 L83.3594,-9.45313 L83.3594,-9.96875 L86.7188,-9.96875 L86.7188,-9.45313 L86.2813,-9.45313 C86.1667,-9.45313 86.0234,-9.4401 85.8516,-9.41406 C85.6797,-9.38802 85.5365,-9.28646 85.4219,-9.10938 L83.1094,-5.67188 L85.5156,-1.71875 C85.6823,-1.4375 85.8958,-1.22396 86.1563,-1.07813 C86.4167,-0.932292 86.6042,-0.859375 86.7188,-0.859375 L87.0625,-0.859375 L87.0625,-0.34375 L83.2813,-0.34375 L83.2813,-0.859375 L83.7969,-0.859375 C84.1406,-0.859375 84.3255,-0.945313 84.3516,-1.11719 C84.3776,-1.28906 84.3333,-1.48958 84.2188,-1.71875 L82.4219,-4.64063 L80.3594,-1.64063 C80.2969,-1.34896 80.3099,-1.14583 80.3984,-1.03125 C80.487,-0.916667 80.6458,-0.859375 80.875,-0.859375 L81.125,-0.859375 L81.125,-0.34375 L77.7813,-0.34375 L77.7813,-0.859375 L78.2969,-0.859375 C78.526,-0.859375 78.7839,-0.945313 79.0703,-1.11719 C79.3568,-1.28906 79.5833,-1.54688 79.75,-1.89063 L81.9844,-5.28125 L79.75,-8.85938 C79.6979,-8.97396 79.5859,-9.10156 79.4141,-9.24219 C79.2422,-9.38281 79.0104,-9.45313 78.7188,-9.45313 L78.2969,-9.45313 L78.2969,-9.96875 L81.9844,-9.96875 L81.9844,-9.45313 L81.7344,-9.45313 C81.4427,-9.45313 81.2682,-9.36719 81.2109,-9.19531 C81.1536,-9.02344 81.1823,-8.82292 81.2969,-8.59375 L82.7656,-6.28125 M93.25,-8.42188 L93.25,-13.3281 L94.0156,-13.3281 L94.0156,-8.42188 L98.3125,-8.42188 L98.3125,-7.65625 L94.0156,-7.65625 L94.0156,-2.75 L93.25,-2.75 L93.25,-7.65625 L88.9531,-7.65625 L88.9531,-8.42188 L93.25,-8.42188 M105.281,-15.2969 L105.281,-2.23438 C105.281,-1.77604 105.424,-1.43229 105.711,-1.20313 C105.997,-0.973958 106.396,-0.859375 106.906,-0.859375 L107.766,-0.859375 L107.766,-0.34375 L101.5,-0.34375 L101.5,-0.859375 L102.266,-0.859375 C102.839,-0.859375 103.255,-0.973958 103.516,-1.20313 C103.776,-1.43229 103.906,-1.77604 103.906,-2.23438 L103.906,-12.6406 C103.906,-12.8698 103.833,-13.0547 103.688,-13.1953 C103.542,-13.3359 103.328,-13.4063 103.047,-13.4063 L101.5,-13.4063 L101.5,-13.9219 L102.266,-13.9219 C102.953,-13.9219 103.513,-14.0365 103.945,-14.2656 C104.378,-14.4948 104.708,-14.8385 104.938,-15.2969 L105.281,-15.2969"/>
</g>

<g fill="none" stroke="#2ecc71" stroke-opacity="1" stroke-width="5" stroke-linecap="butt" stroke-linejoin="round" transform="matrix(0.5,0,0,0.5,0,0)"
font-family="SimSun" font-size="9" font-weight="400" font-style="normal" 
>
<polyline fill="none" points="150,435 154.242,432.455 158.485,429.909 162.727,427.364 166.97,424.818 171.212,422.273 175.455,419.727 179.697,417.182 183.939,414.636 188.182,412.091 192.424,409.545 196.667,407 200.909,404.455 205.152,401.909 209.394,399.364 213.636,396.818 217.879,394.273 222.121,391.727 226.364,389.182 230.606,386.636 234.848,384.091 239.091,381.545 243.333,379 247.576,376.455 251.818,373.909 256.061,371.364 260.303,368.818 264.545,366.273 268.788,363.727 273.03,361.182 277.273,358.636 281.515,356.091 285.758,353.545 290,351 294.242,348.455 298.485,345.909 302.727,343.364 306.97,340.818 311.212,338.273 315.455,335.727 319.697,333.182 323.939,330.636 328.182,328.091 332.424,325.545 336.667,323 340.909,320.455 345.152,317.909 349.394,315.364 353.636,312.818 357.879,310.273 362.121,307.727 366.364,305.182 370.606,302.636 374.848,300.091 379.091,297.545 383.333,295 387.576,292.455 391.818,289.909 396.061,287.364 400.303,284.818 404.545,282.273 408.788,279.727 413.03,277.182 417.273,274.636 421.515,272.091 425.758,269.545 430,267 434.242,264.455 438.485,261.909 442.727,259.364 446.97,256.818 451.212,254.273 455.455,251.727 459.697,249.182 463.939,246.636 468.182,244.091 472.424,241.545 476.667,239 480.909,236.455 485.152,233.909 489.394,231.364 493.636,228.818 497.879,226.273 502.121,223.727 506.364,221.182 510.606,218.636 514.849,216.091 519.091,213.545 523.333,211 527.576,208.455 531.818,205.909 536.061,203.364 540.303,200.818 544.545,198.273 548.788,195.727 553.03,193.182 557.273,190.636 561.515,188.091 565.758,185.545 570,183 " />
</g>

<g fill="#2ecc71" fill-opacity="1" stroke="none" transform="matrix(0.5,0,0,0.5,244.25,89.55)"
font-family="SimSun" font-size="9" font-weight="400" font-style="normal" 
>
<path fill-rule="evenodd" d="M5.67188,-2.75 L5.84375,-2.75 L7.73438,-8.51563 C7.84896,-8.79688 7.83594,-9.02344 7.69531,-9.19531 C7.55469,-9.36719 7.36979,-9.45313 7.14063,-9.45313 L6.625,-9.45313 L6.625,-9.96875 L10.2344,-9.96875 L10.2344,-9.45313 L9.71875,-9.45313 C9.48958,-9.45313 9.26042,-9.36719 9.03125,-9.19531 C8.80208,-9.02344 8.63021,-8.79688 8.51563,-8.51563 L5.59375,0 C5.30208,0.864583 4.94271,1.53906 4.51563,2.02344 C4.08854,2.50781 3.53125,2.75 2.84375,2.75 C2.4375,2.75 2.11979,2.67969 1.89063,2.53906 C1.66146,2.39844 1.54688,2.18229 1.54688,1.89063 C1.54688,1.72396 1.61979,1.55469 1.76563,1.38281 C1.91146,1.21094 2.125,1.125 2.40625,1.125 C2.63542,1.125 2.86458,1.23958 3.09375,1.46875 C3.32292,1.63542 3.49479,1.71875 3.60938,1.71875 C3.78646,1.71875 3.93229,1.6901 4.04688,1.63281 C4.16146,1.57552 4.24479,1.46354 4.29688,1.29688 C4.47396,1.00521 4.64844,0.643229 4.82031,0.210938 C4.99219,-0.221354 5.13542,-0.666667 5.25,-1.125 L2.32813,-8.6875 C2.26563,-8.91667 2.13542,-9.10156 1.9375,-9.24219 C1.73958,-9.38281 1.52604,-9.45313 1.29688,-9.45313 L0.953125,-9.45313 L0.953125,-9.96875 L4.5625,-9.96875 L4.5625,-9.45313 L4.21875,-9.45313 C3.98958,-9.45313 3.81771,-9.38281 3.70313,-9.24219 C3.58854,-9.10156 3.55729,-8.88542 3.60938,-8.59375 L5.67188,-2.75 M22.6875,-9.71875 L22.6875,-10.4844 L32.2344,-10.4844 L32.2344,-9.71875 L22.6875,-9.71875 M22.6875,-5.32813 L22.6875,-6.10938 L32.2344,-6.10938 L32.2344,-5.32813 L22.6875,-5.32813 M44.6875,-7.65625 L44.6875,-8.42188 L54.2344,-8.42188 L54.2344,-7.65625 L44.6875,-7.65625 M60.5,-14.5313 C59.6979,-14.5313 59.026,-13.9141 58.4844,-12.6797 C57.9427,-11.4453 57.6719,-9.79688 57.6719,-7.73438 C57.6719,-5.55729 57.9427,-3.86719 58.4844,-2.66406 C59.026,-1.46094 59.6979,-0.859375 60.5,-0.859375 C61.3646,-0.859375 62.0391,-1.46094 62.5234,-2.66406 C63.0078,-3.86719 63.25,-5.55729 63.25,-7.73438 C63.25,-9.79688 63.0208,-11.4453 62.5625,-12.6797 C62.1042,-13.9141 61.4167,-14.5313 60.5,-14.5313 M60.5,-0.171875 C59.2396,-0.171875 58.1797,-0.830729 57.3203,-2.14844 C56.4609,-3.46615 56.0313,-5.32813 56.0313,-7.73438 C56.0313,-9.97396 56.4479,-11.7813 57.2813,-13.1563 C58.1146,-14.5313 59.1875,-15.2188 60.5,-15.2188 C61.7604,-15.2188 62.8073,-14.5599 63.6406,-13.2422 C64.474,-11.9245 64.8906,-10.0885 64.8906,-7.73438 C64.8906,-5.39063 64.474,-3.54427 63.6406,-2.19531 C62.8073,-0.846354 61.7604,-0.171875 60.5,-0.171875 M68.75,-0.09375 C68.4063,-0.09375 68.1068,-0.208333 67.8516,-0.4375 C67.5964,-0.666667 67.4688,-0.979167 67.4688,-1.375 C67.4688,-1.78125 67.5964,-2.09896 67.8516,-2.32813 C68.1068,-2.55729 68.4063,-2.67188 68.75,-2.67188 C69.0938,-2.67188 69.3958,-2.54167 69.6563,-2.28125 C69.9167,-2.02083 70.0469,-1.71875 70.0469,-1.375 C70.0469,-0.979167 69.9167,-0.666667 69.6563,-0.4375 C69.3958,-0.208333 69.0938,-0.09375 68.75,-0.09375 M79.6719,-6.1875 C79.6719,-4.46875 79.9714,-3.13802 80.5703,-2.19531 C81.1693,-1.2526 81.901,-0.78125 82.7656,-0.78125 C83.6198,-0.78125 84.276,-1.09635 84.7344,-1.72656 C85.1927,-2.35677 85.4219,-3.53125 85.4219,-5.25 C85.4219,-6.39583 85.1797,-7.28385 84.6953,-7.91406 C84.2109,-8.54427 83.625,-8.85938 82.9375,-8.85938 C82.3021,-8.85938 81.7135,-8.67188 81.1719,-8.29688 C80.6302,-7.92188 80.1302,-7.21875 79.6719,-6.1875 M83.0156,-9.71875 C84.3906,-9.71875 85.3802,-9.26042 85.9844,-8.34375 C86.5885,-7.42708 86.8906,-6.39583 86.8906,-5.25 C86.8906,-3.53125 86.474,-2.25521 85.6406,-1.42188 C84.8073,-0.588542 83.849,-0.171875 82.7656,-0.171875 C81.2135,-0.171875 80.0365,-0.760417 79.2344,-1.9375 C78.4323,-3.11458 78.0313,-4.81771 78.0313,-7.04688 C78.0313,-9.68229 78.5182,-11.7031 79.4922,-13.1094 C80.4661,-14.5156 81.7865,-15.2188 83.4531,-15.2188 C84.2552,-15.2188 84.8984,-14.9896 85.3828,-14.5313 C85.8672,-14.0729 86.1094,-13.6719 86.1094,-13.3281 C86.1094,-12.9844 86.0391,-12.7266 85.8984,-12.5547 C85.7578,-12.3828 85.5156,-12.2969 85.1719,-12.2969 C84.8802,-12.2969 84.6641,-12.3672 84.5234,-12.5078 C84.3828,-12.6484 84.3125,-12.8646 84.3125,-13.1563 C84.3125,-13.2708 84.3385,-13.3854 84.3906,-13.5 C84.3906,-13.6146 84.3906,-13.7292 84.3906,-13.8438 C84.3906,-14.0729 84.3047,-14.2578 84.1328,-14.3984 C83.9609,-14.5391 83.6458,-14.6094 83.1875,-14.6094 C82.2188,-14.6094 81.3906,-14.1667 80.7031,-13.2813 C80.0156,-12.3958 79.6719,-10.4635 79.6719,-7.48438 C80.0156,-8.22396 80.487,-8.78125 81.0859,-9.15625 C81.6849,-9.53125 82.3281,-9.71875 83.0156,-9.71875 M93.7656,-6.28125 L95.3125,-8.59375 C95.4792,-8.82292 95.5495,-9.02344 95.5234,-9.19531 C95.4974,-9.36719 95.2813,-9.45313 94.875,-9.45313 L94.3594,-9.45313 L94.3594,-9.96875 L97.7188,-9.96875 L97.7188,-9.45313 L97.2813,-9.45313 C97.1667,-9.45313 97.0234,-9.4401 96.8516,-9.41406 C96.6797,-9.38802 96.5365,-9.28646 96.4219,-9.10938 L94.1094,-5.67188 L96.5156,-1.71875 C96.6823,-1.4375 96.8958,-1.22396 97.1563,-1.07813 C97.4167,-0.932292 97.6042,-0.859375 97.7188,-0.859375 L98.0625,-0.859375 L98.0625,-0.34375 L94.2813,-0.34375 L94.2813,-0.859375 L94.7969,-0.859375 C95.1406,-0.859375 95.3255,-0.945313 95.3516,-1.11719 C95.3776,-1.28906 95.3333,-1.48958 95.2188,-1.71875 L93.4219,-4.64063 L91.3594,-1.64063 C91.2969,-1.34896 91.3099,-1.14583 91.3984,-1.03125 C91.487,-0.916667 91.6458,-0.859375 91.875,-0.859375 L92.125,-0.859375 L92.125,-0.34375 L88.7813,-0.34375 L88.7813,-0.859375 L89.2969,-0.859375 C89.526,-0.859375 89.7839,-0.945313 90.0703,-1.11719 C90.3568,-1.28906 90.5833,-1.54688 90.75,-1.89063 L92.9844,-5.28125 L90.75,-8.85938 C90.6979,-8.97396 90.5859,-9.10156 90.4141,-9.24219 C90.2422,-9.38281 90.0104,-9.45313 89.7188,-9.45313 L89.2969,-9.45313 L89.2969,-9.96875 L92.9844,-9.96875 L92.9844,-9.45313 L92.7344,-9.45313 C92.4427,-9.45313 92.2682,-9.36719 92.2109,-9.19531 C92.1536,-9.02344 92.1823,-8.82292 92.2969,-8.59375 L93.7656,-6.28125 M104.25,-8.42188 L104.25,-13.3281 L105.016,-13.3281 L105.016,-8.42188 L109.313,-8.42188 L109.313,-7.65625 L105.016,-7.65625 L105.016,-2.75 L104.25,-2.75 L104.25,-7.65625 L99.9531,-7.65625 L99.9531,-8.42188 L104.25,-8.42188 M118,-11.4375 C118,-12.4688 117.771,-13.2552 117.313,-13.7969 C116.854,-14.3385 116.167,-14.6094 115.25,-14.6094 C114.563,-14.6094 113.974,-14.4245 113.484,-14.0547 C112.995,-13.6849 112.75,-13.2135 112.75,-12.6406 C112.75,-12.2969 112.865,-12.0104 113.094,-11.7813 C113.271,-11.5521 113.359,-11.3229 113.359,-11.0938 C113.359,-10.8021 113.286,-10.5859 113.141,-10.4453 C112.995,-10.3047 112.781,-10.2344 112.5,-10.2344 C112.156,-10.2344 111.883,-10.3333 111.68,-10.5313 C111.477,-10.7292 111.375,-11.0573 111.375,-11.5156 C111.375,-12.724 111.805,-13.6432 112.664,-14.2734 C113.523,-14.9036 114.443,-15.2188 115.422,-15.2188 C116.797,-15.2188 117.813,-14.875 118.469,-14.1875 C119.125,-13.5 119.453,-12.6406 119.453,-11.6094 C119.453,-10.9219 119.297,-10.2344 118.984,-9.54688 C118.672,-8.85938 118.172,-8.19792 117.484,-7.5625 C115.818,-5.95833 114.542,-4.65625 113.656,-3.65625 C112.771,-2.65625 112.24,-1.98438 112.063,-1.64063 L117.141,-1.64063 C117.651,-1.64063 118.078,-1.84115 118.422,-2.24219 C118.766,-2.64323 118.995,-3.24479 119.109,-4.04688 L119.625,-4.04688 L119.109,-0.34375 L111.125,-0.34375 L111.125,-1.46875 C111.406,-1.97917 111.878,-2.63542 112.539,-3.4375 C113.201,-4.23958 114.073,-5.1875 115.156,-6.28125 C116.135,-7.25 116.854,-8.16406 117.313,-9.02344 C117.771,-9.88281 118,-10.6875 118,-11.4375 "/>
</g>

<g fill="#e74c3c" fill-opacity="1" stroke="none" transform="matrix(0.5,0,0,0.5,0,0)"
font-family="SimSun" font-size="9" font-weight="400" font-style="normal" 
>
<circle cx="360" cy="267" r="8"/>
</g>

<g fill="#2ecc71" fill-opacity="1" stroke="none" transform="matrix(0.5,0,0,0.5,0,0)"
font-family="SimSun" font-size="9" font-weight="400" font-style="normal" 
>
<circle cx="360" cy="309" r="8"/>
</g>

<g fill="#e74c3c" fill-opacity="1" stroke="none" transform="matrix(0.5,0,0,0.5,181.5,128.25)"
font-family="SimSun" font-size="9" font-weight="400" font-style="normal" 
>
<path fill-rule="evenodd" d="M2.73438,-7.26563 C2.99479,-7.83854 3.41146,-8.29427 3.98438,-8.63281 C4.55729,-8.97135 5.10417,-9.14063 5.625,-9.14063 C6.71875,-9.14063 7.53906,-8.76302 8.08594,-8.00781 C8.63281,-7.2526 8.90625,-6.14583 8.90625,-4.6875 C8.90625,-3.22917 8.55469,-2.1224 7.85156,-1.36719 C7.14844,-0.611979 6.27604,-0.234375 5.23438,-0.234375 C4.71354,-0.234375 4.23177,-0.325521 3.78906,-0.507813 C3.34635,-0.690104 2.96875,-0.9375 2.65625,-1.25 L1.95313,-0.3125 L1.64063,-0.3125 L1.64063,-12.5781 C1.64063,-12.7865 1.58854,-12.9427 1.48438,-13.0469 C1.38021,-13.151 1.19792,-13.2031 0.9375,-13.2031 L0.46875,-13.2031 L0.46875,-13.6719 L1.17188,-13.6719 C1.43229,-13.6719 1.69271,-13.724 1.95313,-13.8281 C2.21354,-13.9323 2.47396,-14.0885 2.73438,-14.2969 L2.73438,-7.26563 M2.73438,-2.89063 C2.73438,-2.31771 2.92969,-1.82292 3.32031,-1.40625 C3.71094,-0.989583 4.29688,-0.78125 5.07813,-0.78125 C6.01563,-0.78125 6.67969,-1.10677 7.07031,-1.75781 C7.46094,-2.40885 7.65625,-3.38542 7.65625,-4.6875 C7.65625,-5.9375 7.48698,-6.88802 7.14844,-7.53906 C6.8099,-8.1901 6.27604,-8.51563 5.54688,-8.51563 C4.92188,-8.51563 4.375,-8.33333 3.90625,-7.96875 C3.4375,-7.60417 3.04688,-6.95313 2.73438,-6.01563 L2.73438,-2.89063 M10.625,-8.82813 L10.625,-9.53125 L19.2969,-9.53125 L19.2969,-8.82813 L10.625,-8.82813 M10.625,-4.84375 L10.625,-5.54688 L19.2969,-5.54688 L19.2969,-4.84375 L10.625,-4.84375 M25.7031,-13.9063 L25.7031,-2.03125 C25.7031,-1.61458 25.8333,-1.30208 26.0938,-1.09375 C26.3542,-0.885417 26.7188,-0.78125 27.1875,-0.78125 L27.9688,-0.78125 L27.9688,-0.3125 L22.2656,-0.3125 L22.2656,-0.78125 L22.9688,-0.78125 C23.4896,-0.78125 23.8672,-0.885417 24.1016,-1.09375 C24.3359,-1.30208 24.4531,-1.61458 24.4531,-2.03125 L24.4531,-11.4844 C24.4531,-11.6927 24.388,-11.862 24.2578,-11.9922 C24.1276,-12.1224 23.9323,-12.1875 23.6719,-12.1875 L22.2656,-12.1875 L22.2656,-12.6563 L22.9688,-12.6563 C23.5938,-12.6563 24.1016,-12.7604 24.4922,-12.9688 C24.8828,-13.1771 25.1823,-13.4896 25.3906,-13.9063 L25.7031,-13.9063"/>
</g>

<g fill="#2ecc71" fill-opacity="1" stroke="none" transform="matrix(0.5,0,0,0.5,181.5,149.25)"
font-family="SimSun" font-size="9" font-weight="400" font-style="normal" 
>
<path fill-rule="evenodd" d="M2.73438,-7.26563 C2.99479,-7.83854 3.41146,-8.29427 3.98438,-8.63281 C4.55729,-8.97135 5.10417,-9.14063 5.625,-9.14063 C6.71875,-9.14063 7.53906,-8.76302 8.08594,-8.00781 C8.63281,-7.2526 8.90625,-6.14583 8.90625,-4.6875 C8.90625,-3.22917 8.55469,-2.1224 7.85156,-1.36719 C7.14844,-0.611979 6.27604,-0.234375 5.23438,-0.234375 C4.71354,-0.234375 4.23177,-0.325521 3.78906,-0.507813 C3.34635,-0.690104 2.96875,-0.9375 2.65625,-1.25 L1.95313,-0.3125 L1.64063,-0.3125 L1.64063,-12.5781 C1.64063,-12.7865 1.58854,-12.9427 1.48438,-13.0469 C1.38021,-13.151 1.19792,-13.2031 0.9375,-13.2031 L0.46875,-13.2031 L0.46875,-13.6719 L1.17188,-13.6719 C1.43229,-13.6719 1.69271,-13.724 1.95313,-13.8281 C2.21354,-13.9323 2.47396,-14.0885 2.73438,-14.2969 L2.73438,-7.26563 M2.73438,-2.89063 C2.73438,-2.31771 2.92969,-1.82292 3.32031,-1.40625 C3.71094,-0.989583 4.29688,-0.78125 5.07813,-0.78125 C6.01563,-0.78125 6.67969,-1.10677 7.07031,-1.75781 C7.46094,-2.40885 7.65625,-3.38542 7.65625,-4.6875 C7.65625,-5.9375 7.48698,-6.88802 7.14844,-7.53906 C6.8099,-8.1901 6.27604,-8.51563 5.54688,-8.51563 C4.92188,-8.51563 4.375,-8.33333 3.90625,-7.96875 C3.4375,-7.60417 3.04688,-6.95313 2.73438,-6.01563 L2.73438,-2.89063 M10.625,-8.82813 L10.625,-9.53125 L19.2969,-9.53125 L19.2969,-8.82813 L10.625,-8.82813 M10.625,-4.84375 L10.625,-5.54688 L19.2969,-5.54688 L19.2969,-4.84375 L10.625,-4.84375 M27.2656,-10.3906 C27.2656,-11.3281 27.0573,-12.0443 26.6406,-12.5391 C26.224,-13.0339 25.599,-13.2813 24.7656,-13.2813 C24.1406,-13.2813 23.6068,-13.112 23.1641,-12.7734 C22.7214,-12.4349 22.5,-12.0052 22.5,-11.4844 C22.5,-11.1719 22.6042,-10.9115 22.8125,-10.7031 C22.9688,-10.4948 23.0469,-10.2865 23.0469,-10.0781 C23.0469,-9.81771 22.9818,-9.6224 22.8516,-9.49219 C22.7214,-9.36198 22.526,-9.29688 22.2656,-9.29688 C21.9531,-9.29688 21.7057,-9.38802 21.5234,-9.57031 C21.3411,-9.7526 21.25,-10.0521 21.25,-10.4688 C21.25,-11.5625 21.6406,-12.3958 22.4219,-12.9688 C23.2031,-13.5417 24.0365,-13.8281 24.9219,-13.8281 C26.1719,-13.8281 27.0964,-13.5156 27.6953,-12.8906 C28.2943,-12.2656 28.5938,-11.4844 28.5938,-10.5469 C28.5938,-9.92188 28.4505,-9.29688 28.1641,-8.67188 C27.8776,-8.04688 27.4219,-7.44792 26.7969,-6.875 C25.2865,-5.41667 24.1276,-4.23177 23.3203,-3.32031 C22.513,-2.40885 22.0313,-1.79688 21.875,-1.48438 L26.4844,-1.48438 C26.9531,-1.48438 27.3438,-1.66667 27.6563,-2.03125 C27.9688,-2.39583 28.1771,-2.94271 28.2813,-3.67188 L28.75,-3.67188 L28.2813,-0.3125 L21.0156,-0.3125 L21.0156,-1.32813 C21.276,-1.79688 21.7057,-2.39583 22.3047,-3.125 C22.9036,-3.85417 23.6979,-4.71354 24.6875,-5.70313 C25.5729,-6.58854 26.224,-7.42188 26.6406,-8.20313 C27.0573,-8.98438 27.2656,-9.71354 27.2656,-10.3906 "/>
</g>

<g fill="#333333" fill-opacity="1" stroke="none" transform="matrix(0.5,0,0,0.5,113.5,215.25)"
font-family="SimSun" font-size="9" font-weight="400" font-style="normal" 
>
<path fill-rule="evenodd" d="M1.53125,-11.5938 L21.875,-11.5938 L24.0625,-13.3438 L26.4688,-10.9375 L5.46875,-10.9375 C4.30208,-10.9375 3.31771,-10.8281 2.51563,-10.6094 L1.53125,-11.5938 M49.3281,-11.9219 L51.0781,-15.75 L42.1094,-15.75 C41.526,-14.7292 40.9063,-13.6901 40.25,-12.6328 C39.5938,-11.5755 38.5365,-10.3177 37.0781,-8.85938 L36.75,-9.1875 C38.4271,-11.3021 39.776,-13.7083 40.7969,-16.4063 C41.8177,-19.1042 42.4375,-21.2552 42.6563,-22.8594 L45.2813,-21.5469 C44.6979,-21.2552 44.2604,-20.7813 43.9688,-20.125 C43.6771,-19.4688 43.1302,-18.2292 42.3281,-16.4063 L50.9688,-16.4063 L52.1719,-17.6094 L54.1406,-15.5313 C53.4115,-15.3854 52.7917,-15.0938 52.2813,-14.6563 C51.7708,-14.2188 50.8958,-13.2344 49.6563,-11.7031 L49.3281,-11.9219 M45.7188,-12.6875 C45.2813,-7.80208 44.0052,-4.21094 41.8906,-1.91406 C39.776,0.382813 37.2604,1.96875 34.3438,2.84375 L34.125,2.51563 C37.8438,0.838542 40.4323,-1.33073 41.8906,-3.99219 C43.349,-6.65365 44.1146,-10.2813 44.1875,-14.875 L46.7031,-13.5625 L46.0469,-13.0156 C46.5573,-9.29688 47.5599,-6.28906 49.0547,-3.99219 C50.5495,-1.69531 52.5,-0.109375 54.9063,0.765625 L54.7969,1.09375 C53.7031,1.02083 52.901,1.38542 52.3906,2.1875 C50.5677,0.802083 49.0547,-1.13021 47.8516,-3.60938 C46.6484,-6.08854 45.9375,-9.11458 45.7188,-12.6875 M31.2813,-21.6563 C32.8125,-20.8542 33.888,-20.125 34.5078,-19.4688 C35.1276,-18.8125 35.4375,-18.2656 35.4375,-17.8281 C35.4375,-17.3906 35.2734,-16.9531 34.9453,-16.5156 C34.6172,-16.0781 34.4167,-15.8594 34.3438,-15.8594 C34.0521,-15.8594 33.7969,-16.3333 33.5781,-17.2813 C33.2135,-18.5938 32.375,-19.9427 31.0625,-21.3281 L31.2813,-21.6563 M29.8594,-7.21875 C30.3698,-7.14583 30.8438,-7.10938 31.2813,-7.10938 C31.9375,-7.10938 32.4479,-7.25521 32.8125,-7.54688 C33.1771,-7.83854 34.8906,-11.5938 37.9531,-18.8125 L38.3906,-18.5938 C35.5469,-11.1563 34.0521,-7.29167 33.9063,-7 C33.7604,-6.70833 33.6875,-6.10677 33.6875,-5.19531 C33.6875,-4.28385 33.7969,-3.0625 34.0156,-1.53125 C34.2344,0.0729167 33.9974,0.838542 33.3047,0.765625 C32.612,0.692708 32.1927,0.473958 32.0469,0.109375 C31.901,-0.255208 31.8281,-0.583333 31.8281,-0.875 C31.8281,-1.16667 31.901,-1.71354 32.0469,-2.51563 C32.2656,-3.68229 32.3385,-4.57552 32.2656,-5.19531 C32.1927,-5.8151 31.3906,-6.34375 29.8594,-6.78125 L29.8594,-7.21875 M69.3438,-9.95313 L69.3438,-13.125 C69.3438,-14.4375 69.3073,-15.6042 69.2344,-16.625 L70.3281,-15.8594 L75.4688,-19.5781 L63.2188,-19.5781 C62.2708,-19.5781 61.3958,-19.4688 60.5938,-19.25 L59.6094,-20.2344 L75.4688,-20.2344 L76.8906,-21.3281 L78.5313,-19.1406 C77.7292,-18.9948 76.8542,-18.7031 75.9063,-18.2656 C74.9583,-17.8281 73.2813,-16.9167 70.875,-15.5313 L71.5313,-15.0938 L70.7656,-14.5469 L70.7656,-10.5 C73.3177,-12.9063 74.9219,-14.6563 75.5781,-15.75 L77.3281,-13.7813 L76.2344,-13.6719 C73.3177,-11.6302 71.5313,-10.3906 70.875,-9.95313 C74.3021,-8.20313 76.1797,-7.05469 76.5078,-6.50781 C76.8359,-5.96094 77,-5.46875 77,-5.03125 C77,-4.66667 76.9271,-4.33854 76.7813,-4.04688 C76.6354,-3.75521 76.526,-3.60938 76.4531,-3.60938 C76.1615,-3.60938 75.724,-4.08333 75.1406,-5.03125 C74.2656,-6.34375 72.8073,-7.80208 70.7656,-9.40625 L70.7656,-3.17188 C70.7656,-2.07813 70.0365,-1.23958 68.5781,-0.65625 C68.5052,-1.53125 67.5208,-2.26042 65.625,-2.84375 L65.625,-3.28125 C67.375,-3.0625 68.4323,-2.98958 68.7969,-3.0625 C69.1615,-3.13542 69.3438,-3.35417 69.3438,-3.71875 L69.3438,-9.1875 C65.8438,-6.85417 63.7656,-5.28646 63.1094,-4.48438 L61.5781,-6.125 C62.4531,-6.34375 63.638,-6.81771 65.1328,-7.54688 C66.6276,-8.27604 68.0313,-9.07813 69.3438,-9.95313 M63.4375,-15.2031 L63.7656,-15.5313 C65.4427,-14.5104 66.4635,-13.7448 66.8281,-13.2344 C67.1927,-12.724 67.375,-12.3594 67.375,-12.1406 C67.375,-11.776 67.2292,-11.4115 66.9375,-11.0469 C66.6458,-10.6823 66.4271,-10.5 66.2813,-10.5 C66.0625,-10.5 65.8802,-10.7552 65.7344,-11.2656 C65.5156,-12.1406 64.75,-13.4531 63.4375,-15.2031 M78.5313,0 L78.5313,-9.51563 C78.5313,-11.1198 78.4948,-12.7969 78.4219,-14.5469 L81.0469,-13.3438 L80.0625,-12.4688 L80.0625,-2.29688 C80.0625,-1.05729 80.099,0.291667 80.1719,1.75 L78.5313,2.625 L78.5313,0.65625 L61.4688,0.65625 L60.375,1.64063 L58.9531,0.21875 L59.8281,-0.546875 L59.8281,-10.3906 C59.8281,-11.6302 59.7917,-13.1615 59.7188,-14.9844 L62.3438,-13.7813 L61.3594,-13.0156 L61.3594,0 L78.5313,0 M92.2031,-6.67188 C91.6198,-5.72396 91.0729,-4.8125 90.5625,-3.9375 C91.5104,-3.71875 92.6406,-3.46354 93.9531,-3.17188 C94.6094,-3.90104 95.2656,-5.06771 95.9219,-6.67188 L92.2031,-6.67188 M87.7188,-21.4375 C89.1042,-20.5625 89.9427,-19.9063 90.2344,-19.4688 C90.526,-19.0313 90.6719,-18.7031 90.6719,-18.4844 C90.6719,-18.1198 90.5443,-17.7552 90.2891,-17.3906 C90.0339,-17.026 89.8333,-16.8438 89.6875,-16.8438 C89.4688,-16.8438 89.25,-17.2083 89.0313,-17.9375 C88.7396,-18.9583 88.1927,-20.0521 87.3906,-21.2188 L87.7188,-21.4375 M97.125,-21.7656 L99.0938,-20.4531 C98.5104,-20.3073 98,-19.9427 97.5625,-19.3594 C97.0521,-18.776 96.2135,-17.901 95.0469,-16.7344 L94.7188,-16.9531 C96.1042,-19.1406 96.9063,-20.7448 97.125,-21.7656 M92.2031,-22.9688 L94.6094,-21.875 L93.7344,-21.1094 L93.7344,-16.0781 L96.4688,-16.0781 L97.6719,-17.2813 L99.5313,-15.4219 L93.7344,-15.4219 L93.7344,-14.4375 C95.4115,-14.0729 96.4505,-13.7266 96.8516,-13.3984 C97.2526,-13.0703 97.4531,-12.651 97.4531,-12.1406 C97.4531,-11.9219 97.4167,-11.6484 97.3438,-11.3203 C97.2708,-10.9922 97.1615,-10.8281 97.0156,-10.8281 C96.8698,-10.8281 96.6146,-11.0833 96.25,-11.5938 C95.6667,-12.3958 94.8281,-13.1615 93.7344,-13.8906 L93.7344,-10.5 L92.4219,-9.625 L93.9531,-8.96875 C93.5885,-8.82292 93.1146,-8.27604 92.5313,-7.32813 L95.9219,-7.32813 L96.6875,-8.3125 L98.3281,-6.89063 L97.3438,-6.34375 C96.6146,-4.66667 95.9583,-3.5 95.375,-2.84375 C96.5417,-2.55208 97.3255,-2.24219 97.7266,-1.91406 C98.1276,-1.58594 98.3281,-1.16667 98.3281,-0.65625 C98.3281,-0.145833 98.2188,0.109375 98,0.109375 C97.7813,0.109375 97.526,-0.0364583 97.2344,-0.328125 C96.4323,-0.911458 95.5208,-1.42188 94.5,-1.85938 C91.9479,0.182292 88.9219,1.53125 85.4219,2.1875 L85.3125,1.85938 C88.6667,0.765625 91.2917,-0.65625 93.1875,-2.40625 C91.7292,-2.91667 90.3073,-3.28125 88.9219,-3.5 C89.2135,-3.9375 89.7969,-4.99479 90.6719,-6.67188 L89.25,-6.67188 C88.3021,-6.67188 87.4271,-6.5625 86.625,-6.34375 L85.6406,-7.32813 L90.8906,-7.32813 C91.1823,-8.05729 91.474,-8.93229 91.7656,-9.95313 L92.3125,-9.73438 L92.3125,-14.2188 C90.3438,-11.9583 88.0833,-10.2083 85.5313,-8.96875 L85.3125,-9.29688 C88.0104,-11.1927 90.0521,-13.2344 91.4375,-15.4219 L89.4688,-15.4219 C88.5208,-15.4219 87.6458,-15.3125 86.8438,-15.0938 L85.8594,-16.0781 L92.3125,-16.0781 C92.3125,-18.7031 92.276,-21 92.2031,-22.9688 M101.172,-15.4219 C101.536,-11.1927 102.411,-7.65625 103.797,-4.8125 C104.964,-7.29167 105.693,-10.8281 105.984,-15.4219 L101.172,-15.4219 M101.719,-22.9688 L104.234,-21.5469 C103.651,-21.3281 103.214,-20.8906 102.922,-20.2344 C102.63,-19.5781 102.083,-18.1927 101.281,-16.0781 L107.516,-16.0781 L108.828,-17.3906 L110.797,-15.4219 L107.625,-15.4219 C107.188,-10.026 106.24,-6.01563 104.781,-3.39063 C106.458,-1.34896 108.427,-0.0729167 110.688,0.4375 L110.688,0.875 C109.302,1.09375 108.573,1.53125 108.5,2.1875 C106.604,0.875 105.036,-0.619792 103.797,-2.29688 C101.391,0.0364583 98.5104,1.75 95.1563,2.84375 L94.9375,2.51563 C98.2917,0.984375 100.953,-1.02083 102.922,-3.5 C101.536,-6.92708 100.807,-10.6823 100.734,-14.7656 C100.005,-12.8698 98.9479,-11.0833 97.5625,-9.40625 L97.2344,-9.625 C98.9844,-12.5417 100.479,-16.9896 101.719,-22.9688 M133.219,-3.5 L133.438,-3.5 L135.844,-10.8281 C135.99,-11.1927 135.971,-11.4844 135.789,-11.7031 C135.607,-11.9219 135.37,-12.0313 135.078,-12.0313 L134.422,-12.0313 L134.422,-12.6875 L139.016,-12.6875 L139.016,-12.0313 L138.359,-12.0313 C138.068,-12.0313 137.776,-11.9219 137.484,-11.7031 C137.193,-11.4844 136.974,-11.1927 136.828,-10.8281 L133.109,0 C132.745,1.09375 132.289,1.95052 131.742,2.57031 C131.195,3.1901 130.484,3.5 129.609,3.5 C129.099,3.5 128.698,3.40885 128.406,3.22656 C128.115,3.04427 127.969,2.77083 127.969,2.40625 C127.969,2.1875 128.06,1.96875 128.242,1.75 C128.424,1.53125 128.698,1.42188 129.063,1.42188 C129.354,1.42188 129.646,1.56771 129.938,1.85938 C130.229,2.07813 130.448,2.1875 130.594,2.1875 C130.813,2.1875 130.995,2.15104 131.141,2.07813 C131.286,2.00521 131.396,1.85938 131.469,1.64063 C131.688,1.27604 131.906,0.820313 132.125,0.273438 C132.344,-0.273438 132.526,-0.838542 132.672,-1.42188 L128.953,-11.0469 C128.88,-11.3385 128.716,-11.5755 128.461,-11.7578 C128.206,-11.9401 127.932,-12.0313 127.641,-12.0313 L127.203,-12.0313 L127.203,-12.6875 L131.797,-12.6875 L131.797,-12.0313 L131.359,-12.0313 C131.068,-12.0313 130.849,-11.9401 130.703,-11.7578 C130.557,-11.5755 130.521,-11.3021 130.594,-10.9375 L133.219,-3.5 M154.875,-12.3594 L154.875,-13.3438 L167.016,-13.3438 L167.016,-12.3594 L154.875,-12.3594 M154.875,-6.78125 L154.875,-7.76563 L167.016,-7.76563 L167.016,-6.78125 L154.875,-6.78125 M189.328,-8.3125 L193.484,-1.85938 C193.703,-1.56771 193.904,-1.36719 194.086,-1.25781 C194.268,-1.14844 194.469,-1.09375 194.688,-1.09375 L195.125,-1.09375 L195.125,-0.4375 L190.641,-0.4375 L190.641,-1.09375 L190.969,-1.09375 C191.333,-1.09375 191.589,-1.14844 191.734,-1.25781 C191.88,-1.36719 191.844,-1.56771 191.625,-1.85938 L188.234,-7.23438 L186.047,-4.92188 L186.047,-1.96875 C186.047,-1.67708 186.138,-1.45833 186.32,-1.3125 C186.503,-1.16667 186.74,-1.09375 187.031,-1.09375 L187.578,-1.09375 L187.578,-0.4375 L182.984,-0.4375 L182.984,-1.09375 L183.531,-1.09375 C183.896,-1.09375 184.151,-1.16667 184.297,-1.3125 C184.443,-1.45833 184.516,-1.67708 184.516,-1.96875 L184.516,-17.6094 C184.516,-17.901 184.443,-18.1198 184.297,-18.2656 C184.151,-18.4115 183.896,-18.4844 183.531,-18.4844 L182.875,-18.4844 L182.875,-19.1406 L183.859,-19.1406 C184.297,-19.1406 184.68,-19.2135 185.008,-19.3594 C185.336,-19.5052 185.609,-19.724 185.828,-20.0156 L186.047,-20.0156 L186.047,-6.125 L190.641,-11.0469 C190.786,-11.3385 190.841,-11.5755 190.805,-11.7578 C190.768,-11.9401 190.604,-12.0313 190.313,-12.0313 L189.656,-12.0313 L189.656,-12.6875 L194.25,-12.6875 L194.25,-12.0313 L193.703,-12.0313 C193.484,-12.0313 193.211,-11.9766 192.883,-11.8672 C192.555,-11.7578 192.245,-11.5573 191.953,-11.2656 L189.328,-8.3125 M203.328,-8 L205.297,-10.9375 C205.516,-11.2292 205.607,-11.4844 205.57,-11.7031 C205.534,-11.9219 205.26,-12.0313 204.75,-12.0313 L204.094,-12.0313 L204.094,-12.6875 L208.359,-12.6875 L208.359,-12.0313 L207.813,-12.0313 C207.667,-12.0313 207.484,-12.013 207.266,-11.9766 C207.047,-11.9401 206.865,-11.8125 206.719,-11.5938 L203.766,-7.21875 L206.828,-2.1875 C207.047,-1.82292 207.32,-1.54948 207.648,-1.36719 C207.977,-1.1849 208.214,-1.09375 208.359,-1.09375 L208.797,-1.09375 L208.797,-0.4375 L203.984,-0.4375 L203.984,-1.09375 L204.641,-1.09375 C205.078,-1.09375 205.315,-1.20313 205.352,-1.42188 C205.388,-1.64063 205.333,-1.89583 205.188,-2.1875 L202.891,-5.90625 L200.266,-2.07813 C200.193,-1.71354 200.211,-1.45833 200.32,-1.3125 C200.43,-1.16667 200.63,-1.09375 200.922,-1.09375 L201.25,-1.09375 L201.25,-0.4375 L196.984,-0.4375 L196.984,-1.09375 L197.641,-1.09375 C197.932,-1.09375 198.26,-1.20313 198.625,-1.42188 C198.99,-1.64063 199.281,-1.96875 199.5,-2.40625 L202.344,-6.71875 L199.5,-11.2656 C199.427,-11.4115 199.281,-11.5755 199.063,-11.7578 C198.844,-11.9401 198.552,-12.0313 198.188,-12.0313 L197.641,-12.0313 L197.641,-12.6875 L202.344,-12.6875 L202.344,-12.0313 L202.016,-12.0313 C201.651,-12.0313 201.432,-11.9219 201.359,-11.7031 C201.286,-11.4844 201.323,-11.2292 201.469,-10.9375 L203.328,-8 M230.672,-10.7188 L230.672,-16.9531 L231.656,-16.9531 L231.656,-10.7188 L237.125,-10.7188 L237.125,-9.73438 L231.656,-9.73438 L231.656,-3.5 L230.672,-3.5 L230.672,-9.73438 L225.203,-9.73438 L225.203,-10.7188 L230.672,-10.7188 M255.828,-10.1719 C256.193,-10.974 256.776,-11.612 257.578,-12.0859 C258.38,-12.5599 259.146,-12.7969 259.875,-12.7969 C261.406,-12.7969 262.555,-12.2682 263.32,-11.2109 C264.086,-10.1536 264.469,-8.60417 264.469,-6.5625 C264.469,-4.52083 263.977,-2.97135 262.992,-1.91406 C262.008,-0.856771 260.786,-0.328125 259.328,-0.328125 C258.599,-0.328125 257.924,-0.455729 257.305,-0.710938 C256.685,-0.966146 256.156,-1.3125 255.719,-1.75 L254.734,-0.4375 L254.297,-0.4375 L254.297,-17.6094 C254.297,-17.901 254.224,-18.1198 254.078,-18.2656 C253.932,-18.4115 253.677,-18.4844 253.313,-18.4844 L252.656,-18.4844 L252.656,-19.1406 L253.641,-19.1406 C254.005,-19.1406 254.37,-19.2135 254.734,-19.3594 C255.099,-19.5052 255.464,-19.724 255.828,-20.0156 L255.828,-10.1719 M255.828,-4.04688 C255.828,-3.24479 256.102,-2.55208 256.648,-1.96875 C257.195,-1.38542 258.016,-1.09375 259.109,-1.09375 C260.422,-1.09375 261.352,-1.54948 261.898,-2.46094 C262.445,-3.3724 262.719,-4.73958 262.719,-6.5625 C262.719,-8.3125 262.482,-9.64323 262.008,-10.5547 C261.534,-11.4661 260.786,-11.9219 259.766,-11.9219 C258.891,-11.9219 258.125,-11.6667 257.469,-11.1563 C256.813,-10.6458 256.266,-9.73438 255.828,-8.42188 L255.828,-4.04688"/>
</g>
</g>
</svg>
