<?xml version="1.0" encoding="UTF-8" standalone="no"?>
<svg width="127mm" height="79.375mm"
 viewBox="0 0 360 225"
 xmlns="http://www.w3.org/2000/svg" xmlns:xlink="http://www.w3.org/1999/xlink"  version="1.2" baseProfile="tiny">


<defs>
</defs>
<g fill="none" stroke="black" stroke-width="1" fill-rule="evenodd" stroke-linecap="square" stroke-linejoin="bevel" >



<g fill="#333333" fill-opacity="1" stroke="#333333" stroke-opacity="1" stroke-width="2" stroke-linecap="butt" stroke-linejoin="round" transform="matrix(0.5,0,0,0.5,0,0)"
font-family="SimSun" font-size="9" font-weight="400" font-style="normal" 
>
<polyline fill="none" points="30,225 690,225 " />
<polyline fill="none" points="360,420 360,30 " />
</g>

<g fill="none" stroke="#333333" stroke-opacity="1" stroke-width="2" stroke-linecap="butt" stroke-linejoin="round" transform="matrix(0.5,0,0,0.5,0,0)"
font-family="SimSun" font-size="9" font-weight="400" font-style="normal" 
>
<polyline fill="none" points="682.5,231 690,225 682.5,219 " />
<polyline fill="none" points="354,412.5 360,420 366,412.5 " />
</g>

<g fill="#333333" fill-opacity="1" stroke="none" transform="matrix(0.5,0,0,0.5,346.5,122.75)"
font-family="SimSun" font-size="9" font-weight="400" font-style="normal" 
>
<path fill-rule="evenodd" d="M6.28125,-6.85938 L7.96875,-9.375 C8.15625,-9.625 8.23438,-9.84375 8.20313,-10.0313 C8.17188,-10.2188 7.9375,-10.3125 7.5,-10.3125 L6.9375,-10.3125 L6.9375,-10.875 L10.5938,-10.875 L10.5938,-10.3125 L10.125,-10.3125 C10,-10.3125 9.84375,-10.2969 9.65625,-10.2656 C9.46875,-10.2344 9.3125,-10.125 9.1875,-9.9375 L6.65625,-6.1875 L9.28125,-1.875 C9.46875,-1.5625 9.70313,-1.32813 9.98438,-1.17188 C10.2656,-1.01563 10.4688,-0.9375 10.5938,-0.9375 L10.9688,-0.9375 L10.9688,-0.375 L6.84375,-0.375 L6.84375,-0.9375 L7.40625,-0.9375 C7.78125,-0.9375 7.98438,-1.03125 8.01563,-1.21875 C8.04688,-1.40625 8,-1.625 7.875,-1.875 L5.90625,-5.0625 L3.65625,-1.78125 C3.59375,-1.46875 3.60938,-1.25 3.70313,-1.125 C3.79688,-1 3.96875,-0.9375 4.21875,-0.9375 L4.5,-0.9375 L4.5,-0.375 L0.84375,-0.375 L0.84375,-0.9375 L1.40625,-0.9375 C1.65625,-0.9375 1.9375,-1.03125 2.25,-1.21875 C2.5625,-1.40625 2.8125,-1.6875 3,-2.0625 L5.4375,-5.75 L3,-9.65625 C2.9375,-9.78125 2.8125,-9.92188 2.625,-10.0781 C2.4375,-10.2344 2.1875,-10.3125 1.875,-10.3125 L1.40625,-10.3125 L1.40625,-10.875 L5.4375,-10.875 L5.4375,-10.3125 L5.15625,-10.3125 C4.84375,-10.3125 4.65625,-10.2188 4.59375,-10.0313 C4.53125,-9.84375 4.5625,-9.625 4.6875,-9.375 L6.28125,-6.85938 M2.625,-10.3125"/>
</g>

<g fill="#333333" fill-opacity="1" stroke="none" transform="matrix(0.5,0,0,0.5,186,215.75)"
font-family="SimSun" font-size="9" font-weight="400" font-style="normal" 
>
<path fill-rule="evenodd" d="M6.1875,-3 L6.375,-3 L8.4375,-9.28125 C8.5625,-9.59375 8.54688,-9.84375 8.39063,-10.0313 C8.23438,-10.2188 8.03125,-10.3125 7.78125,-10.3125 L7.21875,-10.3125 L7.21875,-10.875 L11.1563,-10.875 L11.1563,-10.3125 L10.5938,-10.3125 C10.3438,-10.3125 10.0938,-10.2188 9.84375,-10.0313 C9.59375,-9.84375 9.40625,-9.59375 9.28125,-9.28125 L6.09375,0 C5.78125,0.9375 5.39063,1.67188 4.92188,2.20313 C4.45313,2.73438 3.84375,3 3.09375,3 C2.65625,3 2.3125,2.92188 2.0625,2.76563 C1.8125,2.60938 1.6875,2.375 1.6875,2.0625 C1.6875,1.875 1.76563,1.6875 1.92188,1.5 C2.07813,1.3125 2.3125,1.21875 2.625,1.21875 C2.875,1.21875 3.125,1.34375 3.375,1.59375 C3.625,1.78125 3.8125,1.875 3.9375,1.875 C4.125,1.875 4.28125,1.84375 4.40625,1.78125 C4.53125,1.71875 4.625,1.59375 4.6875,1.40625 C4.875,1.09375 5.0625,0.703125 5.25,0.234375 C5.4375,-0.234375 5.59375,-0.71875 5.71875,-1.21875 L2.53125,-9.46875 C2.46875,-9.71875 2.32813,-9.92188 2.10938,-10.0781 C1.89063,-10.2344 1.65625,-10.3125 1.40625,-10.3125 L1.03125,-10.3125 L1.03125,-10.875 L4.96875,-10.875 L4.96875,-10.3125 L4.59375,-10.3125 C4.34375,-10.3125 4.15625,-10.2344 4.03125,-10.0781 C3.90625,-9.92188 3.875,-9.6875 3.9375,-9.375 L6.1875,-3 M8.71875,-10.3125"/>
</g>

<g fill="#888888" fill-opacity="1" stroke="none" transform="matrix(0.5,0,0,0.5,172.5,108.75)"
font-family="SimSun" font-size="9" font-weight="400" font-style="normal" 
>
<path fill-rule="evenodd" d="M2.40625,-7.73438 C2.40625,-5.27604 2.70833,-3.48698 3.3125,-2.36719 C3.91667,-1.2474 4.67708,-0.6875 5.59375,-0.6875 C6.5625,-0.6875 7.33333,-1.21875 7.90625,-2.28125 C8.47917,-3.34375 8.76563,-5.16146 8.76563,-7.73438 C8.76563,-9.79688 8.52344,-11.4583 8.03906,-12.7188 C7.55469,-13.9792 6.73958,-14.6094 5.59375,-14.6094 C4.61458,-14.6094 3.83854,-14.0365 3.26563,-12.8906 C2.69271,-11.7448 2.40625,-10.026 2.40625,-7.73438 M10.4063,-7.73438 C10.4063,-5.39063 9.94792,-3.54427 9.03125,-2.19531 C8.11458,-0.846354 6.96875,-0.171875 5.59375,-0.171875 C4.27083,-0.171875 3.13802,-0.859375 2.19531,-2.23438 C1.2526,-3.60938 0.78125,-5.44271 0.78125,-7.73438 C0.78125,-9.97396 1.22396,-11.7813 2.10938,-13.1563 C2.99479,-14.5313 4.15625,-15.2188 5.59375,-15.2188 C7.08333,-15.2188 8.25781,-14.487 9.11719,-13.0234 C9.97656,-11.5599 10.4063,-9.79688 10.4063,-7.73438 "/>
</g>

<g fill="none" stroke="#e74c3c" stroke-opacity="1" stroke-width="4" stroke-linecap="butt" stroke-linejoin="round" transform="matrix(0.5,0,0,0.5,0,0)"
font-family="SimSun" font-size="9" font-weight="400" font-style="normal" 
>
<polyline fill="none" points="306,360 306.814,355.14 307.628,350.329 308.442,345.568 309.256,340.855 310.07,336.191 310.884,331.577 311.698,327.012 312.513,322.495 313.327,318.028 314.141,313.61 314.955,309.241 315.769,304.921 316.583,300.651 317.397,296.429 318.211,292.256 319.025,288.133 319.839,284.058 320.653,280.033 321.467,276.057 322.281,272.129 323.095,268.251 323.91,264.422 324.724,260.643 325.538,256.912 326.352,253.23 327.166,249.597 327.98,246.014 328.794,242.479 329.608,238.994 330.422,235.558 331.236,232.171 332.05,228.832 332.864,225.543 333.678,222.303 334.492,219.113 335.307,215.971 336.121,212.878 336.935,209.835 337.749,206.84 338.563,203.895 339.377,200.999 340.191,198.151 341.005,195.353 341.819,192.604 342.633,189.904 343.447,187.253 344.261,184.652 345.075,182.099 345.889,179.595 346.704,177.141 347.518,174.736 348.332,172.379 349.146,170.072 349.96,167.814 350.774,165.605 351.588,163.445 352.402,161.334 353.216,159.272 354.03,157.26 354.844,155.296 355.658,153.382 356.472,151.516 357.286,149.7 358.101,147.933 358.915,146.215 359.729,144.545 360.543,142.925 361.357,141.355 362.171,139.833 362.985,138.36 363.799,136.937 364.613,135.562 365.427,134.237 366.241,132.96 367.055,131.733 367.869,130.555 368.683,129.426 369.497,128.346 370.312,127.315 371.126,126.333 371.94,125.4 372.754,124.517 373.568,123.682 374.382,122.897 375.196,122.161 376.01,121.473 376.824,120.835 377.638,120.246 378.452,119.706 379.266,119.215 380.08,118.773 380.894,118.381 381.709,118.037 382.523,117.742 383.337,117.497 384.151,117.301 384.965,117.153 385.779,117.055 386.593,117.006 387.407,117.006 388.221,117.055 389.035,117.153 389.849,117.301 390.663,117.497 391.477,117.742 392.291,118.037 393.106,118.381 393.92,118.773 394.734,119.215 395.548,119.706 396.362,120.246 397.176,120.835 397.99,121.473 398.804,122.161 399.618,122.897 400.432,123.682 401.246,124.517 402.06,125.4 402.874,126.333 403.688,127.315 404.503,128.346 405.317,129.426 406.131,130.555 406.945,131.733 407.759,132.96 408.573,134.237 409.387,135.562 410.201,136.937 411.015,138.36 411.829,139.833 412.643,141.355 413.457,142.925 414.271,144.545 415.085,146.215 415.899,147.933 416.714,149.7 417.528,151.516 418.342,153.382 419.156,155.296 419.97,157.26 420.784,159.272 421.598,161.334 422.412,163.445 423.226,165.605 424.04,167.814 424.854,170.072 425.668,172.379 426.482,174.736 427.296,177.141 428.111,179.595 428.925,182.099 429.739,184.652 430.553,187.253 431.367,189.904 432.181,192.604 432.995,195.353 433.809,198.151 434.623,200.999 435.437,203.895 436.251,206.84 437.065,209.835 437.879,212.878 438.693,215.971 439.508,219.113 440.322,222.303 441.136,225.543 441.95,228.832 442.764,232.171 443.578,235.558 444.392,238.994 445.206,242.479 446.02,246.014 446.834,249.597 447.648,253.23 448.462,256.912 449.276,260.643 450.09,264.422 450.905,268.251 451.719,272.129 452.533,276.057 453.347,280.033 454.161,284.058 454.975,288.133 455.789,292.256 456.603,296.429 457.417,300.651 458.231,304.921 459.045,309.241 459.859,313.61 460.673,318.028 461.487,322.495 462.302,327.012 463.116,331.577 463.93,336.191 464.744,340.855 465.558,345.568 466.372,350.329 467.186,355.14 468,360 " />
</g>

<g fill="#e74c3c" fill-opacity="1" stroke="none" transform="matrix(0.5,0,0,0.5,206.5,192.75)"
font-family="SimSun" font-size="9" font-weight="400" font-style="normal" 
>
<path fill-rule="evenodd" d="M15.1563,-1.79688 L4.76563,-1.79688 L9.76563,-13.9844 L15.1563,-1.79688 M5.70313,-2.34375 L13.4375,-2.34375 L9.45313,-11.6406 L5.70313,-2.34375 M28.75,-7.1875 L21.7969,-0.234375 L21.3281,-0.703125 L27.8125,-7.1875 L21.3281,-13.6719 L21.7969,-14.1406 L28.75,-7.1875 M35,-13.2031 C34.2708,-13.2031 33.6589,-12.6432 33.1641,-11.5234 C32.6693,-10.4036 32.4219,-8.90625 32.4219,-7.03125 C32.4219,-5.05208 32.6693,-3.51563 33.1641,-2.42188 C33.6589,-1.32813 34.2708,-0.78125 35,-0.78125 C35.7813,-0.78125 36.3932,-1.32813 36.8359,-2.42188 C37.2786,-3.51563 37.5,-5.05208 37.5,-7.03125 C37.5,-8.90625 37.2917,-10.4036 36.875,-11.5234 C36.4583,-12.6432 35.8333,-13.2031 35,-13.2031 M35,-0.15625 C33.8542,-0.15625 32.8906,-0.755208 32.1094,-1.95313 C31.3281,-3.15104 30.9375,-4.84375 30.9375,-7.03125 C30.9375,-9.0625 31.3151,-10.7031 32.0703,-11.9531 C32.8255,-13.2031 33.8021,-13.8281 35,-13.8281 C36.1458,-13.8281 37.0964,-13.2292 37.8516,-12.0313 C38.6068,-10.8333 38.9844,-9.16667 38.9844,-7.03125 C38.9844,-4.89583 38.6068,-3.21615 37.8516,-1.99219 C37.0964,-0.768229 36.1458,-0.15625 35,-0.15625 M53.75,-10 L53.75,1.32813 L52.5781,1.95313 C52.6302,0.338542 52.6563,-2.00521 52.6563,-5.07813 C52.6563,-8.15104 52.6302,-10.1563 52.5781,-11.0938 L53.75,-10.4688 L56.9531,-10.4688 L56.9531,-14.1406 L53.4375,-14.1406 C52.7604,-14.1406 52.1354,-14.0625 51.5625,-13.9063 L50.8594,-14.6094 L66.25,-14.6094 L67.4219,-15.7813 L69.0625,-14.1406 L62.5781,-14.1406 L62.5781,-10.4688 L65.8594,-10.4688 L66.4844,-11.25 L67.8125,-10.2344 L67.1094,-9.76563 L67.1094,-0.390625 C67.1094,0.598958 66.5365,1.32813 65.3906,1.79688 C65.2865,1.06771 64.401,0.494792 62.7344,0.078125 L62.7344,-0.3125 C63.9844,-0.104167 64.8438,-0.0130208 65.3125,-0.0390625 C65.7813,-0.0651042 66.0156,-0.442708 66.0156,-1.17188 L66.0156,-10 L62.5781,-10 C62.526,-8.80208 62.4219,-7.8125 62.2656,-7.03125 C64.0365,-6.14583 64.987,-5.54688 65.1172,-5.23438 C65.2474,-4.92188 65.3125,-4.66146 65.3125,-4.45313 C65.3125,-4.19271 65.2344,-3.91927 65.0781,-3.63281 C64.9219,-3.34635 64.8177,-3.20313 64.7656,-3.20313 C64.6094,-3.20313 64.4271,-3.48958 64.2188,-4.0625 C63.8542,-4.89583 63.1771,-5.75521 62.1875,-6.64063 C61.5104,-4.50521 60.1563,-2.73438 58.125,-1.32813 L57.9688,-1.5625 C60.4167,-3.85417 61.5885,-6.66667 61.4844,-10 L58.0469,-10 C57.9948,-9.27083 57.9167,-8.48958 57.8125,-7.65625 C59.0104,-6.92708 59.6615,-6.34115 59.7656,-5.89844 C59.8698,-5.45573 59.8307,-5.11719 59.6484,-4.88281 C59.4661,-4.64844 59.3229,-4.53125 59.2188,-4.53125 C59.0625,-4.53125 58.9063,-4.79167 58.75,-5.3125 C58.5417,-6.04167 58.2031,-6.69271 57.7344,-7.26563 C57.1094,-5.13021 55.9115,-3.38542 54.1406,-2.03125 L53.9844,-2.26563 C55.9115,-4.29688 56.901,-6.875 56.9531,-10 L53.75,-10 M58.0469,-14.1406 L58.0469,-10.4688 L61.4844,-10.4688 L61.4844,-14.1406 L58.0469,-14.1406 M78.2031,-16.1719 L78.4375,-16.4063 C80.1042,-15.5729 80.9505,-14.9219 80.9766,-14.4531 C81.0026,-13.9844 80.8984,-13.6458 80.6641,-13.4375 C80.4297,-13.2292 80.2865,-13.125 80.2344,-13.125 C80.026,-13.125 79.8438,-13.3594 79.6875,-13.8281 C79.4271,-14.5052 78.9323,-15.2865 78.2031,-16.1719 M71.1719,-12.9688 L85.8594,-12.9688 L87.1094,-14.2188 L88.8281,-12.5 L73.6719,-12.5 C73.0469,-12.5 72.4479,-12.4219 71.875,-12.2656 L71.1719,-12.9688 M76.7188,-12.0313 L78.125,-10.7813 L77.3438,-10.5469 C75.0521,-8.46354 73.099,-7.10938 71.4844,-6.48438 L71.4063,-6.71875 C72.7083,-7.60417 73.8542,-8.56771 74.8438,-9.60938 C75.8333,-10.651 76.4583,-11.4583 76.7188,-12.0313 M81.9531,-11.4844 L82.1094,-11.7969 C83.9323,-10.9635 85.2474,-10.2865 86.0547,-9.76563 C86.862,-9.24479 87.2656,-8.72396 87.2656,-8.20313 C87.2656,-8.04688 87.2005,-7.8125 87.0703,-7.5 C86.9401,-7.1875 86.8229,-7.03125 86.7188,-7.03125 C86.5625,-7.03125 86.3802,-7.21354 86.1719,-7.57813 C85.7552,-8.20313 85.2474,-8.80208 84.6484,-9.375 C84.0495,-9.94792 83.151,-10.651 81.9531,-11.4844 M84.2188,-8.125 L83.4375,-7.73438 C82.4479,-5.49479 81.4323,-3.82813 80.3906,-2.73438 C82.6302,-0.703125 85.5469,0.234375 89.1406,0.078125 L89.1406,0.3125 C88.3073,0.677083 87.8385,1.11979 87.7344,1.64063 C84.2448,1.11979 81.6146,-0.104167 79.8438,-2.03125 C77.6563,-0.208333 74.8177,1.09375 71.3281,1.875 L71.25,1.5625 C74.4792,0.572917 77.1354,-0.859375 79.2188,-2.73438 C78.125,-4.29688 77.1875,-6.32813 76.4063,-8.82813 L76.7188,-8.90625 C77.6563,-6.66667 78.6979,-4.84375 79.8438,-3.4375 C80.9375,-4.84375 81.7969,-6.77083 82.4219,-9.21875 L84.2188,-8.125 M95.8594,-9.0625 L95.8594,-4.76563 L104.453,-4.76563 L104.453,-9.0625 L95.8594,-9.0625 M94.6094,-2.89063 C94.6615,-3.98438 94.6875,-5.15625 94.6875,-6.40625 C94.6875,-7.65625 94.6615,-8.90625 94.6094,-10.1563 L95.8594,-9.53125 L99.2188,-9.53125 C99.2188,-13.0208 99.1927,-15.2865 99.1406,-16.3281 L100.938,-15.625 L100.313,-15 L100.313,-13.125 L105.391,-13.125 L106.406,-14.1406 L107.813,-12.6563 L100.313,-12.6563 L100.313,-9.53125 L104.297,-9.53125 L105.078,-10.3125 L106.25,-9.14063 L105.547,-8.59375 C105.547,-6.14583 105.573,-4.47917 105.625,-3.59375 L104.453,-3.125 L104.453,-4.29688 L95.8594,-4.29688 L95.8594,-3.35938 L94.6094,-2.89063 M94.2188,-2.5 L94.5313,-2.5 C94.2188,-0.46875 93.8932,0.716146 93.5547,1.05469 C93.2161,1.39323 92.9167,1.5625 92.6563,1.5625 C92.5,1.5625 92.3177,1.4974 92.1094,1.36719 C91.901,1.23698 91.7969,1.09375 91.7969,0.9375 C91.7969,0.78125 91.9271,0.598958 92.1875,0.390625 C92.6563,0.0260417 93.0078,-0.3125 93.2422,-0.625 C93.4766,-0.9375 93.8021,-1.5625 94.2188,-2.5 M96.9531,-2.10938 L97.1094,-2.34375 C98.2031,-1.51042 98.8151,-0.924479 98.9453,-0.585938 C99.0755,-0.247396 99.1406,0 99.1406,0.15625 C99.1406,0.520833 99.0234,0.820313 98.7891,1.05469 C98.5547,1.28906 98.4115,1.40625 98.3594,1.40625 C98.151,1.40625 98.0208,1.14583 97.9688,0.625 C97.8646,-0.15625 97.526,-1.06771 96.9531,-2.10938 M101.094,-2.1875 L101.25,-2.42188 C102.24,-1.69271 102.852,-1.11979 103.086,-0.703125 C103.32,-0.286458 103.438,0 103.438,0.15625 C103.438,0.416667 103.32,0.677083 103.086,0.9375 C102.852,1.19792 102.708,1.32813 102.656,1.32813 C102.448,1.32813 102.292,1.01563 102.188,0.390625 C102.031,-0.494792 101.667,-1.35417 101.094,-2.1875 M105.313,-2.42188 L105.469,-2.65625 C106.51,-1.92708 107.227,-1.30208 107.617,-0.78125 C108.008,-0.260417 108.203,0.130208 108.203,0.390625 C108.203,0.651042 108.099,0.911458 107.891,1.17188 C107.682,1.43229 107.552,1.5625 107.5,1.5625 C107.292,1.5625 107.109,1.25 106.953,0.625 C106.693,-0.260417 106.146,-1.27604 105.313,-2.42188 "/>
</g>

<g fill="none" stroke="#2ecc71" stroke-opacity="1" stroke-width="4" stroke-linecap="butt" stroke-linejoin="round" transform="matrix(0.5,0,0,0.5,0,0)"
font-family="SimSun" font-size="9" font-weight="400" font-style="normal" 
>
<polyline fill="none" points="360,333 360.543,330.84 361.085,328.702 361.628,326.586 362.171,324.491 362.714,322.418 363.256,320.368 363.799,318.339 364.342,316.331 364.884,314.346 365.427,312.382 365.97,310.441 366.513,308.521 367.055,306.622 367.598,304.746 368.141,302.892 368.683,301.059 369.226,299.248 369.769,297.459 370.312,295.692 370.854,293.946 371.397,292.223 371.94,290.521 372.482,288.841 373.025,287.183 373.568,285.547 374.111,283.932 374.653,282.339 375.196,280.769 375.739,279.22 376.281,277.692 376.824,276.187 377.367,274.703 377.91,273.242 378.452,271.802 378.995,270.383 379.538,268.987 380.08,267.613 380.623,266.26 381.166,264.929 381.709,263.62 382.251,262.333 382.794,261.067 383.337,259.824 383.879,258.602 384.422,257.402 384.965,256.224 385.508,255.067 386.05,253.933 386.593,252.82 387.136,251.729 387.678,250.66 388.221,249.613 388.764,248.588 389.307,247.584 389.849,246.602 390.392,245.642 390.935,244.704 391.477,243.788 392.02,242.893 392.563,242.02 393.106,241.17 393.648,240.341 394.191,239.533 394.734,238.748 395.276,237.984 395.819,237.242 396.362,236.522 396.905,235.824 397.447,235.148 397.99,234.493 398.533,233.861 399.075,233.25 399.618,232.661 400.161,232.093 400.704,231.548 401.246,231.024 401.789,230.523 402.332,230.043 402.874,229.584 403.417,229.148 403.96,228.734 404.503,228.341 405.045,227.97 405.588,227.621 406.131,227.294 406.673,226.988 407.216,226.704 407.759,226.443 408.302,226.203 408.844,225.985 409.387,225.788 409.93,225.614 410.472,225.461 411.015,225.33 411.558,225.221 412.101,225.134 412.643,225.068 413.186,225.025 413.729,225.003 414.271,225.003 414.814,225.025 415.357,225.068 415.899,225.134 416.442,225.221 416.985,225.33 417.528,225.461 418.07,225.614 418.613,225.788 419.156,225.985 419.698,226.203 420.241,226.443 420.784,226.704 421.327,226.988 421.869,227.294 422.412,227.621 422.955,227.97 423.497,228.341 424.04,228.734 424.583,229.148 425.126,229.584 425.668,230.043 426.211,230.523 426.754,231.024 427.296,231.548 427.839,232.093 428.382,232.661 428.925,233.25 429.467,233.861 430.01,234.493 430.553,235.148 431.095,235.824 431.638,236.522 432.181,237.242 432.724,237.984 433.266,238.748 433.809,239.533 434.352,240.341 434.894,241.17 435.437,242.02 435.98,242.893 436.523,243.788 437.065,244.704 437.608,245.642 438.151,246.602 438.693,247.584 439.236,248.588 439.779,249.613 440.322,250.66 440.864,251.729 441.407,252.82 441.95,253.933 442.492,255.067 443.035,256.224 443.578,257.402 444.121,258.602 444.663,259.824 445.206,261.067 445.749,262.333 446.291,263.62 446.834,264.929 447.377,266.26 447.92,267.613 448.462,268.987 449.005,270.383 449.548,271.802 450.09,273.242 450.633,274.703 451.176,276.187 451.719,277.692 452.261,279.22 452.804,280.769 453.347,282.339 453.889,283.932 454.432,285.547 454.975,287.183 455.518,288.841 456.06,290.521 456.603,292.223 457.146,293.946 457.688,295.692 458.231,297.459 458.774,299.248 459.317,301.059 459.859,302.892 460.402,304.746 460.945,306.622 461.487,308.521 462.03,310.441 462.573,312.382 463.116,314.346 463.658,316.331 464.201,318.339 464.744,320.368 465.286,322.418 465.829,324.491 466.372,326.586 466.915,328.702 467.457,330.84 468,333 " />
</g>

<g fill="#2ecc71" fill-opacity="1" stroke="none" transform="matrix(0.5,0,0,0.5,211.5,159.75)"
font-family="SimSun" font-size="9" font-weight="400" font-style="normal" 
>
<path fill-rule="evenodd" d="M15.1563,-1.79688 L4.76563,-1.79688 L9.76563,-13.9844 L15.1563,-1.79688 M5.70313,-2.34375 L13.4375,-2.34375 L9.45313,-11.6406 L5.70313,-2.34375 M20.625,-8.82813 L20.625,-9.53125 L29.2969,-9.53125 L29.2969,-8.82813 L20.625,-8.82813 M20.625,-4.84375 L20.625,-5.54688 L29.2969,-5.54688 L29.2969,-4.84375 L20.625,-4.84375 M35,-13.2031 C34.2708,-13.2031 33.6589,-12.6432 33.1641,-11.5234 C32.6693,-10.4036 32.4219,-8.90625 32.4219,-7.03125 C32.4219,-5.05208 32.6693,-3.51563 33.1641,-2.42188 C33.6589,-1.32813 34.2708,-0.78125 35,-0.78125 C35.7813,-0.78125 36.3932,-1.32813 36.8359,-2.42188 C37.2786,-3.51563 37.5,-5.05208 37.5,-7.03125 C37.5,-8.90625 37.2917,-10.4036 36.875,-11.5234 C36.4583,-12.6432 35.8333,-13.2031 35,-13.2031 M35,-0.15625 C33.8542,-0.15625 32.8906,-0.755208 32.1094,-1.95313 C31.3281,-3.15104 30.9375,-4.84375 30.9375,-7.03125 C30.9375,-9.0625 31.3151,-10.7031 32.0703,-11.9531 C32.8255,-13.2031 33.8021,-13.8281 35,-13.8281 C36.1458,-13.8281 37.0964,-13.2292 37.8516,-12.0313 C38.6068,-10.8333 38.9844,-9.16667 38.9844,-7.03125 C38.9844,-4.89583 38.6068,-3.21615 37.8516,-1.99219 C37.0964,-0.768229 36.1458,-0.15625 35,-0.15625 M61.5625,-5 L61.5625,-0.625 L66.5625,-0.625 L66.5625,-5 L61.5625,-5 M60.3906,1.71875 C60.4427,0.3125 60.4688,-2.5 60.4688,-6.71875 C60.4688,-10.9375 60.4427,-13.6458 60.3906,-14.8438 L61.5625,-14.0625 L66.4063,-14.0625 L67.0313,-14.9219 L68.3594,-13.8281 L67.6563,-13.2813 C67.6563,-5 67.6823,-0.260417 67.7344,0.9375 L66.5625,1.48438 L66.5625,-0.15625 L61.5625,-0.15625 L61.5625,1.25 L60.3906,1.71875 M61.5625,-13.5938 L61.5625,-9.6875 L66.5625,-9.6875 L66.5625,-13.5938 L61.5625,-13.5938 M61.5625,-9.21875 L61.5625,-5.46875 L66.5625,-5.46875 L66.5625,-9.21875 L61.5625,-9.21875 M55.1563,-11.0938 C55.1563,-13.1771 55.1302,-14.8958 55.0781,-16.25 L56.875,-15.4688 L56.1719,-14.8438 L56.1719,-11.0938 L57.7344,-11.0938 L58.6719,-12.1094 L60,-10.625 L56.1719,-10.625 L56.1719,-8.75 C57.2135,-8.4375 57.9297,-8.125 58.3203,-7.8125 C58.7109,-7.5 58.9063,-7.16146 58.9063,-6.79688 C58.9063,-6.58854 58.8542,-6.32813 58.75,-6.01563 C58.6458,-5.70313 58.5417,-5.54688 58.4375,-5.54688 C58.3333,-5.54688 58.151,-5.80729 57.8906,-6.32813 C57.474,-7.10938 56.901,-7.78646 56.1719,-8.35938 C56.1719,-3.25521 56.1979,-0.0520833 56.25,1.25 L55.0781,1.79688 C55.1302,-1.43229 55.1563,-4.50521 55.1563,-7.42188 C54.1146,-5.07813 52.7344,-2.99479 51.0156,-1.17188 L50.7813,-1.32813 C52.8646,-4.40104 54.2708,-7.5 55,-10.625 L53.8281,-10.625 C53.151,-10.625 52.526,-10.5469 51.9531,-10.3906 L51.25,-11.0938 L55.1563,-11.0938 M74.0625,-10.0781 L74.0625,-12.5781 C74.0625,-13.8281 74.0365,-14.974 73.9844,-16.0156 L75.7813,-15.1563 L75.1563,-14.6094 L75.1563,-10.3125 L77.6563,-10.7031 L78.5156,-11.875 L80.0781,-10.625 L75.1563,-9.84375 L75.1563,-2.73438 L79.4531,-5.625 L79.6094,-5.3125 C76.7969,-3.02083 75.1563,-1.48438 74.6875,-0.703125 L73.6719,-1.95313 C73.9323,-2.21354 74.0625,-2.63021 74.0625,-3.20313 L74.0625,-9.60938 L72.0313,-9.29688 L71.4844,-9.0625 L70.7031,-9.60938 L74.0625,-10.0781 M78.0469,-13.8281 L86.5625,-13.8281 L87.1094,-14.6875 L88.5156,-13.6719 L87.8906,-13.125 C87.7344,-5.3125 87.4219,-0.950521 86.9531,-0.0390625 C86.4844,0.872396 85.7552,1.45833 84.7656,1.71875 C84.6615,0.885417 83.8281,0.260417 82.2656,-0.15625 L82.2656,-0.546875 C83.2552,-0.390625 84.0625,-0.286458 84.6875,-0.234375 C85.3125,-0.182292 85.7161,-0.403646 85.8984,-0.898438 C86.0807,-1.39323 86.224,-2.23958 86.3281,-3.4375 C86.4323,-4.63542 86.5625,-7.94271 86.7188,-13.3594 L83.2813,-13.3594 C83.2292,-11.7969 83.0599,-9.97396 82.7734,-7.89063 C82.487,-5.80729 81.8229,-3.95833 80.7813,-2.34375 C79.7396,-0.729167 78.0208,0.651042 75.625,1.79688 L75.4688,1.5625 C77.5,0.208333 78.9453,-1.22396 79.8047,-2.73438 C80.6641,-4.24479 81.237,-5.89844 81.5234,-7.69531 C81.8099,-9.49219 81.9792,-11.3802 82.0313,-13.3594 L80.625,-13.3594 C79.9479,-13.3594 79.3229,-13.2813 78.75,-13.125 L78.0469,-13.8281"/>
</g>

<g fill="none" stroke="#3498db" stroke-opacity="1" stroke-width="4" stroke-linecap="butt" stroke-linejoin="round" transform="matrix(0.5,0,0,0.5,0,0)"
font-family="SimSun" font-size="9" font-weight="400" font-style="normal" 
>
<polyline fill="none" points="279,387 279.543,384.84 280.085,382.702 280.628,380.586 281.171,378.491 281.714,376.418 282.256,374.368 282.799,372.339 283.342,370.331 283.884,368.346 284.427,366.382 284.97,364.441 285.513,362.521 286.055,360.622 286.598,358.746 287.141,356.892 287.683,355.059 288.226,353.248 288.769,351.459 289.312,349.692 289.854,347.946 290.397,346.223 290.94,344.521 291.482,342.841 292.025,341.183 292.568,339.547 293.111,337.932 293.653,336.339 294.196,334.769 294.739,333.22 295.281,331.692 295.824,330.187 296.367,328.703 296.91,327.242 297.452,325.802 297.995,324.383 298.538,322.987 299.08,321.613 299.623,320.26 300.166,318.929 300.709,317.62 301.251,316.333 301.794,315.067 302.337,313.824 302.879,312.602 303.422,311.402 303.965,310.224 304.508,309.067 305.05,307.933 305.593,306.82 306.136,305.729 306.678,304.66 307.221,303.613 307.764,302.588 308.307,301.584 308.849,300.602 309.392,299.642 309.935,298.704 310.477,297.788 311.02,296.893 311.563,296.02 312.106,295.17 312.648,294.341 313.191,293.533 313.734,292.748 314.276,291.984 314.819,291.242 315.362,290.522 315.905,289.824 316.447,289.148 316.99,288.493 317.533,287.861 318.075,287.25 318.618,286.661 319.161,286.093 319.704,285.548 320.246,285.024 320.789,284.523 321.332,284.043 321.874,283.584 322.417,283.148 322.96,282.734 323.503,282.341 324.045,281.97 324.588,281.621 325.131,281.294 325.673,280.988 326.216,280.704 326.759,280.443 327.302,280.203 327.844,279.985 328.387,279.788 328.93,279.614 329.472,279.461 330.015,279.33 330.558,279.221 331.101,279.134 331.643,279.068 332.186,279.025 332.729,279.003 333.271,279.003 333.814,279.025 334.357,279.068 334.899,279.134 335.442,279.221 335.985,279.33 336.528,279.461 337.07,279.614 337.613,279.788 338.156,279.985 338.698,280.203 339.241,280.443 339.784,280.704 340.327,280.988 340.869,281.294 341.412,281.621 341.955,281.97 342.497,282.341 343.04,282.734 343.583,283.148 344.126,283.584 344.668,284.043 345.211,284.523 345.754,285.024 346.296,285.548 346.839,286.093 347.382,286.661 347.925,287.25 348.467,287.861 349.01,288.493 349.553,289.148 350.095,289.824 350.638,290.522 351.181,291.242 351.724,291.984 352.266,292.748 352.809,293.533 353.352,294.341 353.894,295.17 354.437,296.02 354.98,296.893 355.523,297.788 356.065,298.704 356.608,299.642 357.151,300.602 357.693,301.584 358.236,302.588 358.779,303.613 359.322,304.66 359.864,305.729 360.407,306.82 360.95,307.933 361.492,309.067 362.035,310.224 362.578,311.402 363.121,312.602 363.663,313.824 364.206,315.067 364.749,316.333 365.291,317.62 365.834,318.929 366.377,320.26 366.92,321.613 367.462,322.987 368.005,324.383 368.548,325.802 369.09,327.242 369.633,328.703 370.176,330.187 370.719,331.692 371.261,333.22 371.804,334.769 372.347,336.339 372.889,337.932 373.432,339.547 373.975,341.183 374.518,342.841 375.06,344.521 375.603,346.223 376.146,347.946 376.688,349.692 377.231,351.459 377.774,353.248 378.317,355.059 378.859,356.892 379.402,358.746 379.945,360.622 380.487,362.521 381.03,364.441 381.573,366.382 382.116,368.346 382.658,370.331 383.201,372.339 383.744,374.368 384.286,376.418 384.829,378.491 385.372,380.586 385.915,382.702 386.457,384.84 387,387 " />
</g>

<g fill="#3498db" fill-opacity="1" stroke="none" transform="matrix(0.5,0,0,0.5,112,206.25)"
font-family="SimSun" font-size="9" font-weight="400" font-style="normal" 
>
<path fill-rule="evenodd" d="M15.1563,-1.79688 L4.76563,-1.79688 L9.76563,-13.9844 L15.1563,-1.79688 M5.70313,-2.34375 L13.4375,-2.34375 L9.45313,-11.6406 L5.70313,-2.34375 M21.25,-7.1875 L28.2031,-14.1406 L28.6719,-13.6719 L22.1875,-7.1875 L28.6719,-0.703125 L28.2031,-0.234375 L21.25,-7.1875 M35,-13.2031 C34.2708,-13.2031 33.6589,-12.6432 33.1641,-11.5234 C32.6693,-10.4036 32.4219,-8.90625 32.4219,-7.03125 C32.4219,-5.05208 32.6693,-3.51563 33.1641,-2.42188 C33.6589,-1.32813 34.2708,-0.78125 35,-0.78125 C35.7813,-0.78125 36.3932,-1.32813 36.8359,-2.42188 C37.2786,-3.51563 37.5,-5.05208 37.5,-7.03125 C37.5,-8.90625 37.2917,-10.4036 36.875,-11.5234 C36.4583,-12.6432 35.8333,-13.2031 35,-13.2031 M35,-0.15625 C33.8542,-0.15625 32.8906,-0.755208 32.1094,-1.95313 C31.3281,-3.15104 30.9375,-4.84375 30.9375,-7.03125 C30.9375,-9.0625 31.3151,-10.7031 32.0703,-11.9531 C32.8255,-13.2031 33.8021,-13.8281 35,-13.8281 C36.1458,-13.8281 37.0964,-13.2292 37.8516,-12.0313 C38.6068,-10.8333 38.9844,-9.16667 38.9844,-7.03125 C38.9844,-4.89583 38.6068,-3.21615 37.8516,-1.99219 C37.0964,-0.768229 36.1458,-0.15625 35,-0.15625 M58.8281,-9.0625 C58.9844,-10.9896 59.0885,-12.7344 59.1406,-14.2969 L54.9219,-14.2969 C54.2448,-14.2969 53.6198,-14.2188 53.0469,-14.0625 L52.3438,-14.7656 L64.9219,-14.7656 L66.0938,-15.9375 L67.7344,-14.2969 L60.3125,-14.2969 C60.2604,-13.151 60.1563,-11.4063 60,-9.0625 L65.625,-9.0625 L66.9531,-10.3906 L68.75,-8.59375 L61.7188,-8.59375 L61.7188,-0.78125 C61.7708,-0.104167 62.2135,0.208333 63.0469,0.15625 L66.25,0.15625 C66.875,0.104167 67.2396,-0.195313 67.3438,-0.742188 C67.4479,-1.28906 67.526,-2.29167 67.5781,-3.75 L67.9688,-3.75 C67.9167,-1.40625 68.3073,-0.234375 69.1406,-0.234375 C68.724,0.755208 67.8125,1.19792 66.4063,1.09375 L62.2656,1.09375 C61.1719,1.09375 60.625,0.651042 60.625,-0.234375 L60.625,-8.59375 L59.9219,-8.59375 C59.5573,-5.98958 58.75,-3.86719 57.5,-2.22656 C56.25,-0.585938 54.0885,0.807292 51.0156,1.95313 L50.9375,1.64063 C53.5417,0.390625 55.4036,-1.02865 56.5234,-2.61719 C57.6432,-4.20573 58.3854,-6.19792 58.75,-8.59375 L53.5938,-8.59375 C52.9167,-8.59375 52.2917,-8.51563 51.7188,-8.35938 L51.0156,-9.0625 L58.8281,-9.0625 M78.2031,-16.1719 L78.4375,-16.4063 C80.1042,-15.5729 80.9505,-14.9219 80.9766,-14.4531 C81.0026,-13.9844 80.8984,-13.6458 80.6641,-13.4375 C80.4297,-13.2292 80.2865,-13.125 80.2344,-13.125 C80.026,-13.125 79.8438,-13.3594 79.6875,-13.8281 C79.4271,-14.5052 78.9323,-15.2865 78.2031,-16.1719 M71.1719,-12.9688 L85.8594,-12.9688 L87.1094,-14.2188 L88.8281,-12.5 L73.6719,-12.5 C73.0469,-12.5 72.4479,-12.4219 71.875,-12.2656 L71.1719,-12.9688 M76.7188,-12.0313 L78.125,-10.7813 L77.3438,-10.5469 C75.0521,-8.46354 73.099,-7.10938 71.4844,-6.48438 L71.4063,-6.71875 C72.7083,-7.60417 73.8542,-8.56771 74.8438,-9.60938 C75.8333,-10.651 76.4583,-11.4583 76.7188,-12.0313 M81.9531,-11.4844 L82.1094,-11.7969 C83.9323,-10.9635 85.2474,-10.2865 86.0547,-9.76563 C86.862,-9.24479 87.2656,-8.72396 87.2656,-8.20313 C87.2656,-8.04688 87.2005,-7.8125 87.0703,-7.5 C86.9401,-7.1875 86.8229,-7.03125 86.7188,-7.03125 C86.5625,-7.03125 86.3802,-7.21354 86.1719,-7.57813 C85.7552,-8.20313 85.2474,-8.80208 84.6484,-9.375 C84.0495,-9.94792 83.151,-10.651 81.9531,-11.4844 M84.2188,-8.125 L83.4375,-7.73438 C82.4479,-5.49479 81.4323,-3.82813 80.3906,-2.73438 C82.6302,-0.703125 85.5469,0.234375 89.1406,0.078125 L89.1406,0.3125 C88.3073,0.677083 87.8385,1.11979 87.7344,1.64063 C84.2448,1.11979 81.6146,-0.104167 79.8438,-2.03125 C77.6563,-0.208333 74.8177,1.09375 71.3281,1.875 L71.25,1.5625 C74.4792,0.572917 77.1354,-0.859375 79.2188,-2.73438 C78.125,-4.29688 77.1875,-6.32813 76.4063,-8.82813 L76.7188,-8.90625 C77.6563,-6.66667 78.6979,-4.84375 79.8438,-3.4375 C80.9375,-4.84375 81.7969,-6.77083 82.4219,-9.21875 L84.2188,-8.125 M95.8594,-9.0625 L95.8594,-4.76563 L104.453,-4.76563 L104.453,-9.0625 L95.8594,-9.0625 M94.6094,-2.89063 C94.6615,-3.98438 94.6875,-5.15625 94.6875,-6.40625 C94.6875,-7.65625 94.6615,-8.90625 94.6094,-10.1563 L95.8594,-9.53125 L99.2188,-9.53125 C99.2188,-13.0208 99.1927,-15.2865 99.1406,-16.3281 L100.938,-15.625 L100.313,-15 L100.313,-13.125 L105.391,-13.125 L106.406,-14.1406 L107.813,-12.6563 L100.313,-12.6563 L100.313,-9.53125 L104.297,-9.53125 L105.078,-10.3125 L106.25,-9.14063 L105.547,-8.59375 C105.547,-6.14583 105.573,-4.47917 105.625,-3.59375 L104.453,-3.125 L104.453,-4.29688 L95.8594,-4.29688 L95.8594,-3.35938 L94.6094,-2.89063 M94.2188,-2.5 L94.5313,-2.5 C94.2188,-0.46875 93.8932,0.716146 93.5547,1.05469 C93.2161,1.39323 92.9167,1.5625 92.6563,1.5625 C92.5,1.5625 92.3177,1.4974 92.1094,1.36719 C91.901,1.23698 91.7969,1.09375 91.7969,0.9375 C91.7969,0.78125 91.9271,0.598958 92.1875,0.390625 C92.6563,0.0260417 93.0078,-0.3125 93.2422,-0.625 C93.4766,-0.9375 93.8021,-1.5625 94.2188,-2.5 M96.9531,-2.10938 L97.1094,-2.34375 C98.2031,-1.51042 98.8151,-0.924479 98.9453,-0.585938 C99.0755,-0.247396 99.1406,0 99.1406,0.15625 C99.1406,0.520833 99.0234,0.820313 98.7891,1.05469 C98.5547,1.28906 98.4115,1.40625 98.3594,1.40625 C98.151,1.40625 98.0208,1.14583 97.9688,0.625 C97.8646,-0.15625 97.526,-1.06771 96.9531,-2.10938 M101.094,-2.1875 L101.25,-2.42188 C102.24,-1.69271 102.852,-1.11979 103.086,-0.703125 C103.32,-0.286458 103.438,0 103.438,0.15625 C103.438,0.416667 103.32,0.677083 103.086,0.9375 C102.852,1.19792 102.708,1.32813 102.656,1.32813 C102.448,1.32813 102.292,1.01563 102.188,0.390625 C102.031,-0.494792 101.667,-1.35417 101.094,-2.1875 M105.313,-2.42188 L105.469,-2.65625 C106.51,-1.92708 107.227,-1.30208 107.617,-0.78125 C108.008,-0.260417 108.203,0.130208 108.203,0.390625 C108.203,0.651042 108.099,0.911458 107.891,1.17188 C107.682,1.43229 107.552,1.5625 107.5,1.5625 C107.292,1.5625 107.109,1.25 106.953,0.625 C106.693,-0.260417 106.146,-1.27604 105.313,-2.42188 "/>
</g>

<g fill="#333333" fill-opacity="1" stroke="none" transform="matrix(0.5,0,0,0.5,117,216.75)"
font-family="SimSun" font-size="9" font-weight="400" font-style="normal" 
>
<path fill-rule="evenodd" d="M3.71875,-20.125 C5.90625,-18.3021 7,-17.026 7,-16.2969 C7,-15.5677 6.83594,-15.0573 6.50781,-14.7656 C6.17969,-14.474 5.94271,-14.3281 5.79688,-14.3281 C5.50521,-14.3281 5.32292,-14.6927 5.25,-15.4219 C5.03125,-16.4427 4.41146,-17.9375 3.39063,-19.9063 L3.71875,-20.125 M8.85938,-19.0313 C8.85938,-20.0521 8.82292,-21.2917 8.75,-22.75 L11.2656,-21.7656 L10.2813,-20.7813 L10.2813,-12.6875 L13.5625,-12.6875 L14.875,-14 L16.8438,-12.0313 L10.2813,-12.0313 C10.2083,-10.6458 10.099,-9.15104 9.95313,-7.54688 L14.1094,-7.54688 L15.5313,-8.96875 L17.6094,-6.89063 L9.84375,-6.89063 C9.47917,-4.99479 8.54948,-3.1901 7.05469,-1.47656 C5.5599,0.236979 3.64583,1.64063 1.3125,2.73438 L1.09375,2.40625 C2.84375,1.23958 4.35677,-0.0546875 5.63281,-1.47656 C6.90885,-2.89844 7.83854,-4.70313 8.42188,-6.89063 L5.03125,-6.89063 C4.08333,-6.89063 3.20833,-6.78125 2.40625,-6.5625 L1.42188,-7.54688 L8.53125,-7.54688 C8.67708,-9.15104 8.78646,-10.6458 8.85938,-12.0313 L6.45313,-12.0313 C5.50521,-12.0313 4.63021,-11.9219 3.82813,-11.7031 L2.84375,-12.6875 L8.85938,-12.6875 L8.85938,-19.0313 M14.3281,-20.4531 L16.4063,-18.9219 C15.8229,-18.7031 15.0573,-17.974 14.1094,-16.7344 C13.1615,-15.4219 12.3229,-14.4375 11.5938,-13.7813 L11.2656,-14 C11.849,-14.9479 12.4505,-16.0417 13.0703,-17.2813 C13.6901,-18.5208 14.1094,-19.5781 14.3281,-20.4531 M20.125,-16.8438 L20.125,-6.34375 C20.125,-5.32292 20.1615,-4.33854 20.2344,-3.39063 L18.5938,-2.625 C18.6667,-4.95833 18.7031,-7.7474 18.7031,-10.9922 C18.7031,-14.237 18.6667,-16.8073 18.5938,-18.7031 L21,-17.6094 L20.125,-16.8438 M23.625,-1.20313 L23.625,-18.0469 C23.625,-20.2344 23.5885,-21.8385 23.5156,-22.8594 L25.9219,-21.7656 L25.0469,-20.8906 L25.0469,-0.765625 C25.1198,0.911458 24.2813,2.04167 22.5313,2.625 C22.3854,1.53125 21.2917,0.729167 19.25,0.21875 L19.25,-0.21875 C21,-0.0729167 22.1667,0 22.75,0 C23.3333,0 23.625,-0.401042 23.625,-1.20313 M34.0156,-20.2344 L34.0156,-14.875 L40.7969,-14.875 L40.7969,-20.2344 L34.0156,-20.2344 M32.375,-12.5781 C32.4479,-14.1094 32.4844,-15.6224 32.4844,-17.1172 C32.4844,-18.612 32.4479,-20.1615 32.375,-21.7656 L34.2344,-20.8906 L40.5781,-20.8906 L41.4531,-21.9844 L43.2031,-20.5625 L42.2188,-19.7969 L42.2188,-16.0781 C42.2188,-15.0573 42.2552,-14.1823 42.3281,-13.4531 L40.7969,-12.9063 L40.7969,-14.2188 L34.0156,-14.2188 L34.0156,-13.125 L32.375,-12.5781 M37.0781,-0.328125 C38.4635,-0.0364583 39.3385,0.109375 39.7031,0.109375 C40.0677,0.109375 40.3958,-0.0729167 40.6875,-0.4375 C40.9792,-0.802083 41.3438,-3.46354 41.7813,-8.42188 L37.2969,-8.42188 C37.0052,-5.94271 36.2943,-3.84635 35.1641,-2.13281 C34.0339,-0.419271 32.1927,1.09375 29.6406,2.40625 L29.4219,2.07813 C31.5365,0.619792 33.0677,-0.984375 34.0156,-2.73438 C34.9635,-4.48438 35.5469,-6.38021 35.7656,-8.42188 L31.9375,-8.42188 L30.7344,-8.20313 L29.8594,-9.07813 L35.7656,-9.07813 C35.8385,-10.4635 35.8385,-12.0313 35.7656,-13.7813 L38.2813,-12.6875 L37.5156,-12.0313 C37.4427,-11.0833 37.3698,-10.099 37.2969,-9.07813 L41.6719,-9.07813 L42.6563,-10.1719 L44.2969,-8.75 L43.3125,-7.98438 C42.9479,-3.09896 42.5286,-0.236979 42.0547,0.601563 C41.5807,1.4401 40.7969,2.04167 39.7031,2.40625 C39.4844,1.45833 38.5729,0.692708 36.9688,0.109375 L37.0781,-0.328125 M45.7188,-3.17188 C45.7917,-5.72396 45.8281,-8.40365 45.8281,-11.2109 C45.8281,-14.0182 45.7917,-16.4427 45.7188,-18.4844 L48.125,-17.3906 L47.3594,-16.625 L47.3594,-7.32813 C47.3594,-6.45313 47.3958,-5.39583 47.4688,-4.15625 L45.7188,-3.17188 M46.8125,-0.21875 C48.3438,0 49.5104,0.109375 50.3125,0.109375 C50.6771,0.109375 50.9323,0.0546875 51.0781,-0.0546875 C51.224,-0.164063 51.2969,-0.401042 51.2969,-0.765625 L51.2969,-19.1406 C51.2969,-19.8698 51.2604,-21 51.1875,-22.5313 L53.7031,-21.4375 L52.8281,-20.5625 L52.8281,-0.765625 C52.974,0.911458 52.1719,2.07813 50.4219,2.73438 C49.8385,1.56771 48.6354,0.765625 46.8125,0.328125 L46.8125,-0.21875 M65.625,-2.51563 L71.9688,-3.9375 L72.0781,-3.5 C67.6302,-2.11458 64.4401,-1.07552 62.5078,-0.382813 C60.5755,0.309896 59.4635,0.875 59.1719,1.3125 L57.6406,-0.765625 C59.974,-1.20313 62.125,-1.64063 64.0938,-2.07813 L64.0938,-10.5 L62.2344,-10.5 C61.2865,-10.5 60.4115,-10.3906 59.6094,-10.1719 L58.625,-11.1563 L67.4844,-11.1563 L68.9063,-12.5781 L70.9844,-10.5 L65.625,-10.5 L65.625,-2.51563 M75.3594,-21.7656 C76.7448,-21.2552 77.7474,-20.7995 78.3672,-20.3984 C78.987,-19.9974 79.2786,-19.5417 79.2422,-19.0313 C79.2057,-18.5208 79.0781,-18.1563 78.8594,-17.9375 C78.6406,-17.7188 78.4583,-17.6094 78.3125,-17.6094 C78.0208,-17.6094 77.7656,-17.901 77.5469,-18.4844 C77.1094,-19.3594 76.3073,-20.3438 75.1406,-21.4375 L75.3594,-21.7656 M72.9531,-20.8906 C72.9531,-19.2135 72.9896,-17.7552 73.0625,-16.5156 L78.0938,-16.5156 L79.8438,-18.2656 L82.25,-15.8594 L73.0625,-15.8594 C73.3542,-12.1406 73.8464,-9.27865 74.5391,-7.27344 C75.2318,-5.26823 76.0339,-3.71875 76.9453,-2.625 C77.8568,-1.53125 79.0417,-0.692708 80.5,-0.109375 C80.7188,-1.56771 80.974,-3.31771 81.2656,-5.35938 L81.8125,-5.35938 C81.7396,-2.51563 81.7943,-0.638021 81.9766,0.273438 C82.1589,1.1849 82.3958,1.85938 82.6875,2.29688 C82.8333,2.51563 82.7604,2.625 82.4688,2.625 C82.1771,2.625 81.3568,2.38802 80.0078,1.91406 C78.6589,1.4401 77.3646,0.528646 76.125,-0.820313 C74.8854,-2.16927 73.8646,-4.04688 73.0625,-6.45313 C72.2604,-8.85938 71.75,-11.9948 71.5313,-15.8594 L61.9063,-15.8594 C60.9583,-15.8594 60.0833,-15.75 59.2813,-15.5313 L58.2969,-16.5156 L71.4219,-16.5156 C71.349,-18.6302 71.276,-20.7448 71.2031,-22.8594 L73.9375,-21.6563 L72.9531,-20.8906 M119.219,-2.51563 L104.672,-2.51563 L111.672,-19.5781 L119.219,-2.51563 M105.984,-3.28125 L116.813,-3.28125 L111.234,-16.2969 L105.984,-3.28125 M140.875,-12.3594 L140.875,-13.3438 L153.016,-13.3438 L153.016,-12.3594 L140.875,-12.3594 M140.875,-6.78125 L140.875,-7.76563 L153.016,-7.76563 L153.016,-6.78125 L140.875,-6.78125 M171.828,-10.1719 C172.193,-10.974 172.776,-11.612 173.578,-12.0859 C174.38,-12.5599 175.146,-12.7969 175.875,-12.7969 C177.406,-12.7969 178.555,-12.2682 179.32,-11.2109 C180.086,-10.1536 180.469,-8.60417 180.469,-6.5625 C180.469,-4.52083 179.977,-2.97135 178.992,-1.91406 C178.008,-0.856771 176.786,-0.328125 175.328,-0.328125 C174.599,-0.328125 173.924,-0.455729 173.305,-0.710938 C172.685,-0.966146 172.156,-1.3125 171.719,-1.75 L170.734,-0.4375 L170.297,-0.4375 L170.297,-17.6094 C170.297,-17.901 170.224,-18.1198 170.078,-18.2656 C169.932,-18.4115 169.677,-18.4844 169.313,-18.4844 L168.656,-18.4844 L168.656,-19.1406 L169.641,-19.1406 C170.005,-19.1406 170.37,-19.2135 170.734,-19.3594 C171.099,-19.5052 171.464,-19.724 171.828,-20.0156 L171.828,-10.1719 M171.828,-4.04688 C171.828,-3.24479 172.102,-2.55208 172.648,-1.96875 C173.195,-1.38542 174.016,-1.09375 175.109,-1.09375 C176.422,-1.09375 177.352,-1.54948 177.898,-2.46094 C178.445,-3.3724 178.719,-4.73958 178.719,-6.5625 C178.719,-8.3125 178.482,-9.64323 178.008,-10.5547 C177.534,-11.4661 176.786,-11.9219 175.766,-11.9219 C174.891,-11.9219 174.125,-11.6667 173.469,-11.1563 C172.813,-10.6458 172.266,-9.73438 171.828,-8.42188 L171.828,-4.04688 M189.875,-13.2344 L189,-11.1563 L182.328,-11.1563 L182.328,-11.5938 C184.516,-13.3438 186.01,-14.7656 186.813,-15.8594 C187.25,-16.5156 187.469,-17.1536 187.469,-17.7734 C187.469,-18.3932 187.268,-18.8854 186.867,-19.25 C186.466,-19.6146 185.992,-19.7969 185.445,-19.7969 C184.898,-19.7969 184.443,-19.6693 184.078,-19.4141 C183.714,-19.1589 183.422,-18.7396 183.203,-18.1563 L182.547,-18.1563 C182.693,-19.0313 183.057,-19.724 183.641,-20.2344 C184.224,-20.7448 184.99,-21 185.938,-21 C186.885,-21 187.651,-20.7448 188.234,-20.2344 C188.818,-19.724 189.109,-19.1589 189.109,-18.5391 C189.109,-17.9193 188.836,-17.1719 188.289,-16.2969 C187.742,-15.4219 186.484,-14.1458 184.516,-12.4688 L187.031,-12.4688 C187.833,-12.4688 188.362,-12.5234 188.617,-12.6328 C188.872,-12.7422 189.073,-12.9427 189.219,-13.2344 L189.875,-13.2344 M196.875,-9.73438 L196.875,-10.7188 L209.016,-10.7188 L209.016,-9.73438 L196.875,-9.73438 M220.063,-2.51563 C220.063,-2.00521 220.208,-1.64063 220.5,-1.42188 C220.792,-1.20313 221.193,-1.09375 221.703,-1.09375 L222.688,-1.09375 L222.688,-0.4375 L215.469,-0.4375 L215.469,-1.09375 L216.672,-1.09375 C217.255,-1.09375 217.674,-1.20313 217.93,-1.42188 C218.185,-1.64063 218.313,-2.00521 218.313,-2.51563 L218.313,-6.125 L210.984,-6.125 L210.984,-6.67188 L218.969,-19.3594 L220.063,-19.3594 L220.063,-6.78125 L223.016,-6.78125 L223.016,-6.125 L220.063,-6.125 L220.063,-2.51563 M218.203,-16.7031 L211.969,-6.78125 L218.313,-6.78125 L218.313,-16.7031 L218.203,-16.7031 M229.359,-0.328125 C228.047,-0.328125 227.026,-0.638021 226.297,-1.25781 C225.568,-1.8776 225.203,-2.58854 225.203,-3.39063 C225.203,-4.70313 225.768,-5.77865 226.898,-6.61719 C228.029,-7.45573 230.271,-8.05729 233.625,-8.42188 L233.625,-9.73438 C233.625,-10.4635 233.461,-11.0651 233.133,-11.5391 C232.805,-12.013 232.057,-12.25 230.891,-12.25 C229.651,-12.25 228.776,-12.0495 228.266,-11.6484 C227.755,-11.2474 227.573,-10.8281 227.719,-10.3906 C227.792,-10.2448 227.828,-10.099 227.828,-9.95313 C227.828,-9.80729 227.773,-9.625 227.664,-9.40625 C227.555,-9.1875 227.281,-9.07813 226.844,-9.07813 C226.552,-9.07813 226.315,-9.16927 226.133,-9.35156 C225.951,-9.53385 225.859,-9.80729 225.859,-10.1719 C225.859,-10.8281 226.333,-11.4479 227.281,-12.0313 C228.229,-12.6146 229.396,-12.9063 230.781,-12.9063 C232.24,-12.9063 233.333,-12.6328 234.063,-12.0859 C234.792,-11.5391 235.156,-10.7552 235.156,-9.73438 L235.156,-2.51563 C235.156,-1.93229 235.211,-1.58594 235.32,-1.47656 C235.43,-1.36719 235.63,-1.3125 235.922,-1.3125 C236.286,-1.3125 236.542,-1.47656 236.688,-1.80469 C236.833,-2.13281 236.906,-2.58854 236.906,-3.17188 L237.453,-3.17188 C237.453,-2.15104 237.271,-1.4401 236.906,-1.03906 C236.542,-0.638021 236.068,-0.4375 235.484,-0.4375 C234.974,-0.4375 234.573,-0.546875 234.281,-0.765625 C233.99,-0.984375 233.771,-1.34896 233.625,-1.85938 C232.896,-1.34896 232.221,-0.966146 231.602,-0.710938 C230.982,-0.455729 230.234,-0.328125 229.359,-0.328125 M227.063,-3.71875 C227.063,-3.0625 227.263,-2.46094 227.664,-1.91406 C228.065,-1.36719 228.703,-1.09375 229.578,-1.09375 C230.234,-1.09375 230.891,-1.22135 231.547,-1.47656 C232.203,-1.73177 232.896,-2.11458 233.625,-2.625 L233.625,-7.76563 C231.146,-7.47396 229.432,-6.98177 228.484,-6.28906 C227.536,-5.59635 227.063,-4.73958 227.063,-3.71875 M247.406,-9.73438 C247.406,-9.95313 247.443,-10.099 247.516,-10.1719 C247.516,-10.2448 247.552,-10.3906 247.625,-10.6094 C247.698,-10.901 247.552,-11.2474 247.188,-11.6484 C246.823,-12.0495 246.203,-12.25 245.328,-12.25 C244.234,-12.25 243.305,-11.7214 242.539,-10.6641 C241.773,-9.60677 241.391,-8.20313 241.391,-6.45313 C241.391,-4.84896 241.719,-3.55469 242.375,-2.57031 C243.031,-1.58594 244.125,-1.09375 245.656,-1.09375 C246.677,-1.09375 247.534,-1.42188 248.227,-2.07813 C248.919,-2.73438 249.411,-3.5 249.703,-4.375 L250.25,-4.15625 C249.958,-3.0625 249.411,-2.13281 248.609,-1.36719 C247.807,-0.601563 246.714,-0.21875 245.328,-0.21875 C243.578,-0.21875 242.193,-0.765625 241.172,-1.85938 C240.151,-2.95313 239.641,-4.52083 239.641,-6.5625 C239.641,-8.38542 240.188,-9.89844 241.281,-11.1016 C242.375,-12.3047 243.797,-12.9063 245.547,-12.9063 C246.786,-12.9063 247.753,-12.5781 248.445,-11.9219 C249.138,-11.2656 249.484,-10.6094 249.484,-9.95313 C249.484,-9.51563 249.393,-9.20573 249.211,-9.02344 C249.029,-8.84115 248.755,-8.75 248.391,-8.75 C248.099,-8.75 247.862,-8.84115 247.68,-9.02344 C247.497,-9.20573 247.406,-9.44271 247.406,-9.73438 "/>
</g>
</g>
</svg>
