<?xml version="1.0" encoding="UTF-8" standalone="no"?>
<svg width="127mm" height="79.375mm"
 viewBox="0 0 360 225"
 xmlns="http://www.w3.org/2000/svg" xmlns:xlink="http://www.w3.org/1999/xlink"  version="1.2" baseProfile="tiny">


<defs>
</defs>
<g fill="none" stroke="black" stroke-width="1" fill-rule="evenodd" stroke-linecap="square" stroke-linejoin="bevel" >



<g fill="#333333" fill-opacity="1" stroke="#333333" stroke-opacity="1" stroke-width="2" stroke-linecap="butt" stroke-linejoin="round" transform="matrix(0.5,0,0,0.5,0,0)"
font-family="SimSun" font-size="9" font-weight="400" font-style="normal" 
>
<polyline fill="none" points="30,225 690,225 " />
<polyline fill="none" points="360,420 360,30 " />
</g>

<g fill="none" stroke="#333333" stroke-opacity="1" stroke-width="2" stroke-linecap="butt" stroke-linejoin="round" transform="matrix(0.5,0,0,0.5,0,0)"
font-family="SimSun" font-size="9" font-weight="400" font-style="normal" 
>
<polyline fill="none" points="682.5,231 690,225 682.5,219 " />
<polyline fill="none" points="354,412.5 360,420 366,412.5 " />
</g>

<g fill="#333333" fill-opacity="1" stroke="none" transform="matrix(0.5,0,0,0.5,346.5,122.75)"
font-family="SimSun" font-size="9" font-weight="400" font-style="normal" 
>
<path fill-rule="evenodd" d="M6.28125,-6.85938 L7.96875,-9.375 C8.15625,-9.625 8.23438,-9.84375 8.20313,-10.0313 C8.17188,-10.2188 7.9375,-10.3125 7.5,-10.3125 L6.9375,-10.3125 L6.9375,-10.875 L10.5938,-10.875 L10.5938,-10.3125 L10.125,-10.3125 C10,-10.3125 9.84375,-10.2969 9.65625,-10.2656 C9.46875,-10.2344 9.3125,-10.125 9.1875,-9.9375 L6.65625,-6.1875 L9.28125,-1.875 C9.46875,-1.5625 9.70313,-1.32813 9.98438,-1.17188 C10.2656,-1.01563 10.4688,-0.9375 10.5938,-0.9375 L10.9688,-0.9375 L10.9688,-0.375 L6.84375,-0.375 L6.84375,-0.9375 L7.40625,-0.9375 C7.78125,-0.9375 7.98438,-1.03125 8.01563,-1.21875 C8.04688,-1.40625 8,-1.625 7.875,-1.875 L5.90625,-5.0625 L3.65625,-1.78125 C3.59375,-1.46875 3.60938,-1.25 3.70313,-1.125 C3.79688,-1 3.96875,-0.9375 4.21875,-0.9375 L4.5,-0.9375 L4.5,-0.375 L0.84375,-0.375 L0.84375,-0.9375 L1.40625,-0.9375 C1.65625,-0.9375 1.9375,-1.03125 2.25,-1.21875 C2.5625,-1.40625 2.8125,-1.6875 3,-2.0625 L5.4375,-5.75 L3,-9.65625 C2.9375,-9.78125 2.8125,-9.92188 2.625,-10.0781 C2.4375,-10.2344 2.1875,-10.3125 1.875,-10.3125 L1.40625,-10.3125 L1.40625,-10.875 L5.4375,-10.875 L5.4375,-10.3125 L5.15625,-10.3125 C4.84375,-10.3125 4.65625,-10.2188 4.59375,-10.0313 C4.53125,-9.84375 4.5625,-9.625 4.6875,-9.375 L6.28125,-6.85938 M2.625,-10.3125"/>
</g>

<g fill="#333333" fill-opacity="1" stroke="none" transform="matrix(0.5,0,0,0.5,186,215.75)"
font-family="SimSun" font-size="9" font-weight="400" font-style="normal" 
>
<path fill-rule="evenodd" d="M6.1875,-3 L6.375,-3 L8.4375,-9.28125 C8.5625,-9.59375 8.54688,-9.84375 8.39063,-10.0313 C8.23438,-10.2188 8.03125,-10.3125 7.78125,-10.3125 L7.21875,-10.3125 L7.21875,-10.875 L11.1563,-10.875 L11.1563,-10.3125 L10.5938,-10.3125 C10.3438,-10.3125 10.0938,-10.2188 9.84375,-10.0313 C9.59375,-9.84375 9.40625,-9.59375 9.28125,-9.28125 L6.09375,0 C5.78125,0.9375 5.39063,1.67188 4.92188,2.20313 C4.45313,2.73438 3.84375,3 3.09375,3 C2.65625,3 2.3125,2.92188 2.0625,2.76563 C1.8125,2.60938 1.6875,2.375 1.6875,2.0625 C1.6875,1.875 1.76563,1.6875 1.92188,1.5 C2.07813,1.3125 2.3125,1.21875 2.625,1.21875 C2.875,1.21875 3.125,1.34375 3.375,1.59375 C3.625,1.78125 3.8125,1.875 3.9375,1.875 C4.125,1.875 4.28125,1.84375 4.40625,1.78125 C4.53125,1.71875 4.625,1.59375 4.6875,1.40625 C4.875,1.09375 5.0625,0.703125 5.25,0.234375 C5.4375,-0.234375 5.59375,-0.71875 5.71875,-1.21875 L2.53125,-9.46875 C2.46875,-9.71875 2.32813,-9.92188 2.10938,-10.0781 C1.89063,-10.2344 1.65625,-10.3125 1.40625,-10.3125 L1.03125,-10.3125 L1.03125,-10.875 L4.96875,-10.875 L4.96875,-10.3125 L4.59375,-10.3125 C4.34375,-10.3125 4.15625,-10.2344 4.03125,-10.0781 C3.90625,-9.92188 3.875,-9.6875 3.9375,-9.375 L6.1875,-3 M8.71875,-10.3125"/>
</g>

<g fill="#888888" fill-opacity="1" stroke="none" transform="matrix(0.5,0,0,0.5,172.5,108.75)"
font-family="SimSun" font-size="9" font-weight="400" font-style="normal" 
>
<path fill-rule="evenodd" d="M2.40625,-7.73438 C2.40625,-5.27604 2.70833,-3.48698 3.3125,-2.36719 C3.91667,-1.2474 4.67708,-0.6875 5.59375,-0.6875 C6.5625,-0.6875 7.33333,-1.21875 7.90625,-2.28125 C8.47917,-3.34375 8.76563,-5.16146 8.76563,-7.73438 C8.76563,-9.79688 8.52344,-11.4583 8.03906,-12.7188 C7.55469,-13.9792 6.73958,-14.6094 5.59375,-14.6094 C4.61458,-14.6094 3.83854,-14.0365 3.26563,-12.8906 C2.69271,-11.7448 2.40625,-10.026 2.40625,-7.73438 M10.4063,-7.73438 C10.4063,-5.39063 9.94792,-3.54427 9.03125,-2.19531 C8.11458,-0.846354 6.96875,-0.171875 5.59375,-0.171875 C4.27083,-0.171875 3.13802,-0.859375 2.19531,-2.23438 C1.2526,-3.60938 0.78125,-5.44271 0.78125,-7.73438 C0.78125,-9.97396 1.22396,-11.7813 2.10938,-13.1563 C2.99479,-14.5313 4.15625,-15.2188 5.59375,-15.2188 C7.08333,-15.2188 8.25781,-14.487 9.11719,-13.0234 C9.97656,-11.5599 10.4063,-9.79688 10.4063,-7.73438 "/>
</g>

<g fill="none" stroke="#e74c3c" stroke-opacity="1" stroke-width="5" stroke-linecap="butt" stroke-linejoin="round" transform="matrix(0.5,0,0,0.5,0,0)"
font-family="SimSun" font-size="9" font-weight="400" font-style="normal" 
>
<polyline fill="none" points="385.01,450 385.553,445.133 386.57,436.702 387.588,428.893 388.606,421.64 389.623,414.885 390.641,408.579 391.658,402.679 392.676,397.145 393.693,391.946 394.711,387.052 395.729,382.437 396.746,378.077 397.764,373.952 398.781,370.044 399.799,366.335 400.817,362.812 401.834,359.459 402.852,356.266 403.869,353.222 404.887,350.315 405.905,347.537 406.922,344.88 407.94,342.335 408.957,339.896 409.975,337.557 410.992,335.31 412.01,333.152 413.028,331.077 414.045,329.079 415.063,327.156 416.08,325.302 417.098,323.515 418.116,321.79 419.133,320.124 420.151,318.515 421.168,316.959 422.186,315.455 423.204,313.998 424.221,312.588 425.239,311.222 426.256,309.898 427.274,308.613 428.291,307.368 429.309,306.158 430.327,304.984 431.344,303.843 432.362,302.734 433.379,301.656 434.397,300.608 435.415,299.588 436.432,298.595 437.45,297.628 438.467,296.686 439.485,295.768 440.503,294.874 441.52,294.001 442.538,293.151 443.555,292.321 444.573,291.511 445.59,290.72 446.608,289.948 447.626,289.194 448.643,288.457 449.661,287.736 450.678,287.032 451.696,286.344 452.714,285.671 453.731,285.012 454.749,284.368 455.766,283.737 456.784,283.119 457.802,282.514 458.819,281.922 459.837,281.342 460.854,280.774 461.872,280.216 462.889,279.67 463.907,279.135 464.925,278.61 465.942,278.095 466.96,277.59 467.977,277.094 468.995,276.608 470.013,276.131 471.03,275.662 472.048,275.202 473.065,274.75 474.083,274.306 475.101,273.87 476.118,273.442 477.136,273.021 478.153,272.608 479.171,272.201 480.188,271.802 481.206,271.409 482.224,271.022 483.241,270.642 484.259,270.268 485.276,269.901 486.294,269.539 487.312,269.183 488.329,268.833 489.347,268.488 490.364,268.148 491.382,267.814 492.399,267.485 493.417,267.161 494.435,266.842 495.452,266.528 496.47,266.218 497.487,265.913 498.505,265.612 499.523,265.316 500.54,265.024 501.558,264.736 502.575,264.453 503.593,264.173 504.611,263.898 505.628,263.626 506.646,263.358 507.663,263.093 508.681,262.833 509.698,262.576 510.716,262.322 511.734,262.072 512.751,261.825 513.769,261.581 514.786,261.34 515.804,261.103 516.822,260.869 517.839,260.638 518.857,260.409 519.874,260.184 520.892,259.961 521.91,259.742 522.927,259.525 523.945,259.31 524.962,259.099 525.98,258.89 526.997,258.683 528.015,258.479 529.033,258.278 530.05,258.078 531.068,257.882 532.085,257.687 533.103,257.495 534.121,257.305 535.138,257.117 536.156,256.932 537.173,256.749 538.191,256.567 539.208,256.388 540.226,256.211 541.244,256.036 542.261,255.862 543.279,255.691 544.297,255.521 545.314,255.354 546.332,255.188 547.349,255.024 548.367,254.862 549.384,254.701 550.402,254.543 551.42,254.386 552.437,254.23 553.455,254.077 554.472,253.924 555.49,253.774 556.508,253.625 557.525,253.477 558.543,253.331 559.56,253.187 560.578,253.044 561.595,252.902 562.613,252.762 563.631,252.624 564.648,252.486 565.666,252.35 566.683,252.216 567.701,252.082 568.719,251.95 569.736,251.819 570.754,251.69 571.771,251.562 572.789,251.435 573.807,251.309 574.824,251.184 575.842,251.061 576.859,250.938 577.877,250.817 578.894,250.697 579.912,250.578 580.93,250.461 581.947,250.344 582.965,250.228 583.982,250.114 585,250 " />
</g>

<g fill="#e74c3c" fill-opacity="1" stroke="none" transform="matrix(0.5,0,0,0.5,255.75,135)"
font-family="SimSun" font-size="9" font-weight="400" font-style="normal" 
>
<path fill-rule="evenodd" d="M5.76563,-6.53125 L9.03125,-1.46875 C9.19792,-1.23958 9.35417,-1.08073 9.5,-0.992188 C9.64583,-0.903646 9.80208,-0.859375 9.96875,-0.859375 L10.3125,-0.859375 L10.3125,-0.34375 L6.79688,-0.34375 L6.79688,-0.859375 L7.04688,-0.859375 C7.33854,-0.859375 7.54167,-0.903646 7.65625,-0.992188 C7.77083,-1.08073 7.73958,-1.23958 7.5625,-1.46875 L4.90625,-5.6875 L3.1875,-3.875 L3.1875,-1.54688 C3.1875,-1.31771 3.25781,-1.14583 3.39844,-1.03125 C3.53906,-0.916667 3.72396,-0.859375 3.95313,-0.859375 L4.39063,-0.859375 L4.39063,-0.34375 L0.78125,-0.34375 L0.78125,-0.859375 L1.20313,-0.859375 C1.49479,-0.859375 1.69792,-0.916667 1.8125,-1.03125 C1.92708,-1.14583 1.98438,-1.31771 1.98438,-1.54688 L1.98438,-13.8438 C1.98438,-14.0729 1.92708,-14.2448 1.8125,-14.3594 C1.69792,-14.474 1.49479,-14.5313 1.20313,-14.5313 L0.6875,-14.5313 L0.6875,-15.0469 L1.46875,-15.0469 C1.8125,-15.0469 2.11198,-15.1042 2.36719,-15.2188 C2.6224,-15.3333 2.83854,-15.5052 3.01563,-15.7344 L3.1875,-15.7344 L3.1875,-4.8125 L6.79688,-8.6875 C6.91146,-8.91667 6.95313,-9.10156 6.92188,-9.24219 C6.89063,-9.38281 6.76042,-9.45313 6.53125,-9.45313 L6.01563,-9.45313 L6.01563,-9.96875 L9.625,-9.96875 L9.625,-9.45313 L9.20313,-9.45313 C9.02604,-9.45313 8.8099,-9.41146 8.55469,-9.32813 C8.29948,-9.24479 8.05729,-9.08854 7.82813,-8.85938 L5.76563,-6.53125 M11.6875,-9.71875 L11.6875,-10.4844 L21.2344,-10.4844 L21.2344,-9.71875 L11.6875,-9.71875 M11.6875,-5.32813 L11.6875,-6.10938 L21.2344,-6.10938 L21.2344,-5.32813 L11.6875,-5.32813 M29.9063,-1.98438 C29.9063,-1.57813 30.0208,-1.28906 30.25,-1.11719 C30.4792,-0.945313 30.7969,-0.859375 31.2031,-0.859375 L31.9688,-0.859375 L31.9688,-0.34375 L26.2969,-0.34375 L26.2969,-0.859375 L27.25,-0.859375 C27.7083,-0.859375 28.0365,-0.945313 28.2344,-1.11719 C28.4323,-1.28906 28.5313,-1.57813 28.5313,-1.98438 L28.5313,-4.8125 L22.7813,-4.8125 L22.7813,-5.25 L29.0469,-15.2188 L29.9063,-15.2188 L29.9063,-5.32813 L32.2344,-5.32813 L32.2344,-4.8125 L29.9063,-4.8125 L29.9063,-1.98438 M28.4531,-13.125 L23.5469,-5.32813 L28.5313,-5.32813 L28.5313,-13.125 L28.4531,-13.125"/>
</g>

<g fill="none" stroke="#3498db" stroke-opacity="1" stroke-width="5" stroke-linecap="butt" stroke-linejoin="round" transform="matrix(0.5,0,0,0.5,0,0)"
font-family="SimSun" font-size="9" font-weight="400" font-style="normal" 
>
<polyline fill="none" points="410.001,450 410.992,445.621 412.01,441.304 413.028,437.154 414.045,433.159 415.063,429.312 416.08,425.605 417.098,422.03 418.116,418.58 419.133,415.249 420.151,412.03 421.168,408.919 422.186,405.909 423.204,402.996 424.221,400.176 425.239,397.444 426.256,394.795 427.274,392.227 428.291,389.735 429.309,387.316 430.327,384.968 431.344,382.686 432.362,380.469 433.379,378.313 434.397,376.216 435.415,374.175 436.432,372.189 437.45,370.255 438.467,368.372 439.485,366.536 440.503,364.747 441.52,363.003 442.538,361.301 443.555,359.641 444.573,358.021 445.59,356.44 446.608,354.896 447.626,353.387 448.643,351.913 449.661,350.473 450.678,349.065 451.696,347.688 452.714,346.341 453.731,345.024 454.749,343.735 455.766,342.473 456.784,341.238 457.802,340.029 458.819,338.844 459.837,337.684 460.854,336.547 461.872,335.433 462.889,334.341 463.907,333.27 464.925,332.22 465.942,331.19 466.96,330.18 467.977,329.188 468.995,328.216 470.013,327.261 471.03,326.324 472.048,325.404 473.065,324.5 474.083,323.612 475.101,322.741 476.118,321.884 477.136,321.042 478.153,320.215 479.171,319.402 480.188,318.603 481.206,317.817 482.224,317.044 483.241,316.284 484.259,315.537 485.276,314.801 486.294,314.078 487.312,313.366 488.329,312.665 489.347,311.976 490.364,311.297 491.382,310.628 492.399,309.97 493.417,309.322 494.435,308.684 495.452,308.055 496.47,307.436 497.487,306.826 498.505,306.224 499.523,305.632 500.54,305.048 501.558,304.473 502.575,303.906 503.593,303.346 504.611,302.795 505.628,302.252 506.646,301.715 507.663,301.187 508.681,300.665 509.698,300.151 510.716,299.644 511.734,299.143 512.751,298.649 513.769,298.162 514.786,297.681 515.804,297.206 516.822,296.738 517.839,296.275 518.857,295.819 519.874,295.368 520.892,294.923 521.91,294.483 522.927,294.049 523.945,293.621 524.962,293.197 525.98,292.779 526.997,292.366 528.015,291.958 529.033,291.555 530.05,291.157 531.068,290.763 532.085,290.375 533.103,289.99 534.121,289.61 535.138,289.235 536.156,288.864 537.173,288.497 538.191,288.135 539.208,287.776 540.226,287.422 541.244,287.071 542.261,286.725 543.279,286.382 544.297,286.043 545.314,285.708 546.332,285.376 547.349,285.048 548.367,284.724 549.384,284.403 550.402,284.086 551.42,283.771 552.437,283.461 553.455,283.153 554.472,282.849 555.49,282.548 556.508,282.25 557.525,281.955 558.543,281.663 559.56,281.374 560.578,281.088 561.595,280.805 562.613,280.525 563.631,280.247 564.648,279.972 565.666,279.7 566.683,279.431 567.701,279.164 568.719,278.9 569.736,278.639 570.754,278.38 571.771,278.123 572.789,277.869 573.807,277.618 574.824,277.368 575.842,277.122 576.859,276.877 577.877,276.635 578.894,276.395 579.912,276.157 580.93,275.921 581.947,275.688 582.965,275.456 583.982,275.227 585,275 " />
</g>

<g fill="#3498db" fill-opacity="1" stroke="none" transform="matrix(0.5,0,0,0.5,237,166.25)"
font-family="SimSun" font-size="9" font-weight="400" font-style="normal" 
>
<path fill-rule="evenodd" d="M5.76563,-6.53125 L9.03125,-1.46875 C9.19792,-1.23958 9.35417,-1.08073 9.5,-0.992188 C9.64583,-0.903646 9.80208,-0.859375 9.96875,-0.859375 L10.3125,-0.859375 L10.3125,-0.34375 L6.79688,-0.34375 L6.79688,-0.859375 L7.04688,-0.859375 C7.33854,-0.859375 7.54167,-0.903646 7.65625,-0.992188 C7.77083,-1.08073 7.73958,-1.23958 7.5625,-1.46875 L4.90625,-5.6875 L3.1875,-3.875 L3.1875,-1.54688 C3.1875,-1.31771 3.25781,-1.14583 3.39844,-1.03125 C3.53906,-0.916667 3.72396,-0.859375 3.95313,-0.859375 L4.39063,-0.859375 L4.39063,-0.34375 L0.78125,-0.34375 L0.78125,-0.859375 L1.20313,-0.859375 C1.49479,-0.859375 1.69792,-0.916667 1.8125,-1.03125 C1.92708,-1.14583 1.98438,-1.31771 1.98438,-1.54688 L1.98438,-13.8438 C1.98438,-14.0729 1.92708,-14.2448 1.8125,-14.3594 C1.69792,-14.474 1.49479,-14.5313 1.20313,-14.5313 L0.6875,-14.5313 L0.6875,-15.0469 L1.46875,-15.0469 C1.8125,-15.0469 2.11198,-15.1042 2.36719,-15.2188 C2.6224,-15.3333 2.83854,-15.5052 3.01563,-15.7344 L3.1875,-15.7344 L3.1875,-4.8125 L6.79688,-8.6875 C6.91146,-8.91667 6.95313,-9.10156 6.92188,-9.24219 C6.89063,-9.38281 6.76042,-9.45313 6.53125,-9.45313 L6.01563,-9.45313 L6.01563,-9.96875 L9.625,-9.96875 L9.625,-9.45313 L9.20313,-9.45313 C9.02604,-9.45313 8.8099,-9.41146 8.55469,-9.32813 C8.29948,-9.24479 8.05729,-9.08854 7.82813,-8.85938 L5.76563,-6.53125 M11.6875,-9.71875 L11.6875,-10.4844 L21.2344,-10.4844 L21.2344,-9.71875 L11.6875,-9.71875 M11.6875,-5.32813 L11.6875,-6.10938 L21.2344,-6.10938 L21.2344,-5.32813 L11.6875,-5.32813 M24.1563,-3.875 C24.1563,-2.95833 24.4557,-2.21354 25.0547,-1.64063 C25.6536,-1.06771 26.4115,-0.78125 27.3281,-0.78125 C28.4219,-0.78125 29.2109,-1.06771 29.6953,-1.64063 C30.1797,-2.21354 30.4219,-2.92708 30.4219,-3.78125 C30.4219,-4.53125 30.0781,-5.25 29.3906,-5.9375 C28.7031,-6.625 27.6719,-7.25521 26.2969,-7.82813 C25.6094,-7.36979 25.0807,-6.79688 24.7109,-6.10938 C24.3411,-5.42188 24.1563,-4.67708 24.1563,-3.875 M31.7188,-4.04688 C31.7188,-2.95313 31.3177,-2.03385 30.5156,-1.28906 C29.7135,-0.544271 28.651,-0.171875 27.3281,-0.171875 C26.1302,-0.171875 25.1016,-0.544271 24.2422,-1.28906 C23.3828,-2.03385 22.9531,-2.89583 22.9531,-3.875 C22.9531,-4.84375 23.1953,-5.67188 23.6797,-6.35938 C24.1641,-7.04688 24.8646,-7.65104 25.7813,-8.17188 C24.9792,-8.56771 24.3646,-9.06771 23.9375,-9.67188 C23.5104,-10.276 23.2969,-10.9479 23.2969,-11.6875 C23.2969,-12.6667 23.6693,-13.5 24.4141,-14.1875 C25.1589,-14.875 26.1875,-15.2188 27.5,-15.2188 C28.7083,-15.2188 29.6849,-14.875 30.4297,-14.1875 C31.1745,-13.5 31.5469,-12.6667 31.5469,-11.6875 C31.5469,-11 31.3307,-10.3568 30.8984,-9.75781 C30.4661,-9.15885 29.7917,-8.63021 28.875,-8.17188 C29.8542,-7.59896 30.5729,-6.96875 31.0313,-6.28125 C31.4896,-5.59375 31.7188,-4.84896 31.7188,-4.04688 M30.3438,-11.6094 C30.3438,-12.4115 30.1146,-13.112 29.6563,-13.7109 C29.1979,-14.3099 28.4792,-14.6094 27.5,-14.6094 C26.4167,-14.6094 25.6458,-14.3229 25.1875,-13.75 C24.7292,-13.1771 24.5,-12.5781 24.5,-11.9531 C24.5,-11.3177 24.8281,-10.7005 25.4844,-10.1016 C26.1406,-9.5026 27.0729,-8.97396 28.2813,-8.51563 C28.9688,-8.85938 29.4844,-9.28906 29.8281,-9.80469 C30.1719,-10.3203 30.3438,-10.9219 30.3438,-11.6094 "/>
</g>

<g fill="none" stroke="#888888" stroke-opacity="1" stroke-dasharray="12,12" stroke-dashoffset="0" stroke-width="3" stroke-linecap="butt" stroke-linejoin="round" transform="matrix(0.5,0,0,0.5,0,0)"
font-family="SimSun" font-size="9" font-weight="400" font-style="normal" 
>
<polyline fill="none" points="382.5,287.5 383.518,284.796 384.535,282.316 385.553,280.033 386.57,277.926 387.588,275.973 388.606,274.16 389.623,272.471 390.641,270.895 391.658,269.42 392.676,268.036 393.693,266.737 394.711,265.513 395.729,264.359 396.746,263.269 397.764,262.238 398.781,261.261 399.799,260.334 400.817,259.453 401.834,258.615 402.852,257.817 403.869,257.055 404.887,256.329 405.905,255.634 406.922,254.97 407.94,254.334 408.957,253.724 409.975,253.139 410.992,252.578 412.01,252.038 413.028,251.519 414.045,251.02 415.063,250.539 416.08,250.076 417.098,249.629 418.116,249.197 419.133,248.781 420.151,248.379 421.168,247.99 422.186,247.614 423.204,247.25 424.221,246.897 425.239,246.555 426.256,246.224 427.274,245.903 428.291,245.592 429.309,245.29 430.327,244.996 431.344,244.711 432.362,244.434 433.379,244.164 434.397,243.902 435.415,243.647 436.432,243.399 437.45,243.157 438.467,242.921 439.485,242.692 440.503,242.468 441.52,242.25 442.538,242.038 443.555,241.83 444.573,241.628 445.59,241.43 446.608,241.237 447.626,241.048 448.643,240.864 449.661,240.684 450.678,240.508 451.696,240.336 452.714,240.168 453.731,240.003 454.749,239.842 455.766,239.684 456.784,239.53 457.802,239.379 458.819,239.231 459.837,239.086 460.854,238.943 461.872,238.804 462.889,238.668 463.907,238.534 464.925,238.402 465.942,238.274 466.96,238.147 467.977,238.024 468.995,237.902 470.013,237.783 471.03,237.665 472.048,237.55 473.065,237.438 474.083,237.327 475.101,237.218 476.118,237.111 477.136,237.005 478.153,236.902 479.171,236.8 480.188,236.7 481.206,236.602 482.224,236.506 483.241,236.411 484.259,236.317 485.276,236.225 486.294,236.135 487.312,236.046 488.329,235.958 489.347,235.872 490.364,235.787 491.382,235.704 492.399,235.621 493.417,235.54 494.435,235.46 495.452,235.382 496.47,235.304 497.487,235.228 498.505,235.153 499.523,235.079 500.54,235.006 501.558,234.934 502.575,234.863 503.593,234.793 504.611,234.724 505.628,234.656 506.646,234.589 507.663,234.523 508.681,234.458 509.698,234.394 510.716,234.33 511.734,234.268 512.751,234.206 513.769,234.145 514.786,234.085 515.804,234.026 516.822,233.967 517.839,233.909 518.857,233.852 519.874,233.796 520.892,233.74 521.91,233.685 522.927,233.631 523.945,233.578 524.962,233.525 525.98,233.472 526.997,233.421 528.015,233.37 529.033,233.319 530.05,233.27 531.068,233.22 532.085,233.172 533.103,233.124 534.121,233.076 535.138,233.029 536.156,232.983 537.173,232.937 538.191,232.892 539.208,232.847 540.226,232.803 541.244,232.759 542.261,232.716 543.279,232.673 544.297,232.63 545.314,232.588 546.332,232.547 547.349,232.506 548.367,232.465 549.384,232.425 550.402,232.386 551.42,232.346 552.437,232.308 553.455,232.269 554.472,232.231 555.49,232.193 556.508,232.156 557.525,232.119 558.543,232.083 559.56,232.047 560.578,232.011 561.595,231.976 562.613,231.941 563.631,231.906 564.648,231.872 565.666,231.838 566.683,231.804 567.701,231.771 568.719,231.738 569.736,231.705 570.754,231.672 571.771,231.64 572.789,231.609 573.807,231.577 574.824,231.546 575.842,231.515 576.859,231.485 577.877,231.454 578.894,231.424 579.912,231.395 580.93,231.365 581.947,231.336 582.965,231.307 583.982,231.278 585,231.25 " />
</g>

<g fill="#888888" fill-opacity="1" stroke="none" transform="matrix(0.5,0,0,0.5,275.25,120)"
font-family="SimSun" font-size="9" font-weight="400" font-style="normal" 
>
<path fill-rule="evenodd" d="M5.23438,-5.9375 L8.20313,-1.32813 C8.35938,-1.11979 8.5026,-0.976563 8.63281,-0.898438 C8.76302,-0.820313 8.90625,-0.78125 9.0625,-0.78125 L9.375,-0.78125 L9.375,-0.3125 L6.17188,-0.3125 L6.17188,-0.78125 L6.40625,-0.78125 C6.66667,-0.78125 6.84896,-0.820313 6.95313,-0.898438 C7.05729,-0.976563 7.03125,-1.11979 6.875,-1.32813 L4.45313,-5.17188 L2.89063,-3.51563 L2.89063,-1.40625 C2.89063,-1.19792 2.95573,-1.04167 3.08594,-0.9375 C3.21615,-0.833333 3.38542,-0.78125 3.59375,-0.78125 L3.98438,-0.78125 L3.98438,-0.3125 L0.703125,-0.3125 L0.703125,-0.78125 L1.09375,-0.78125 C1.35417,-0.78125 1.53646,-0.833333 1.64063,-0.9375 C1.74479,-1.04167 1.79688,-1.19792 1.79688,-1.40625 L1.79688,-12.5781 C1.79688,-12.7865 1.74479,-12.9427 1.64063,-13.0469 C1.53646,-13.151 1.35417,-13.2031 1.09375,-13.2031 L0.625,-13.2031 L0.625,-13.6719 L1.32813,-13.6719 C1.64063,-13.6719 1.91406,-13.724 2.14844,-13.8281 C2.38281,-13.9323 2.57813,-14.0885 2.73438,-14.2969 L2.89063,-14.2969 L2.89063,-4.375 L6.17188,-7.89063 C6.27604,-8.09896 6.3151,-8.26823 6.28906,-8.39844 C6.26302,-8.52865 6.14583,-8.59375 5.9375,-8.59375 L5.46875,-8.59375 L5.46875,-9.0625 L8.75,-9.0625 L8.75,-8.59375 L8.35938,-8.59375 C8.20313,-8.59375 8.00781,-8.55469 7.77344,-8.47656 C7.53906,-8.39844 7.31771,-8.25521 7.10938,-8.04688 L5.23438,-5.9375 M10.625,-8.82813 L10.625,-9.53125 L19.2969,-9.53125 L19.2969,-8.82813 L10.625,-8.82813 M10.625,-4.84375 L10.625,-5.54688 L19.2969,-5.54688 L19.2969,-4.84375 L10.625,-4.84375 M25.7031,-13.9063 L25.7031,-2.03125 C25.7031,-1.61458 25.8333,-1.30208 26.0938,-1.09375 C26.3542,-0.885417 26.7188,-0.78125 27.1875,-0.78125 L27.9688,-0.78125 L27.9688,-0.3125 L22.2656,-0.3125 L22.2656,-0.78125 L22.9688,-0.78125 C23.4896,-0.78125 23.8672,-0.885417 24.1016,-1.09375 C24.3359,-1.30208 24.4531,-1.61458 24.4531,-2.03125 L24.4531,-11.4844 C24.4531,-11.6927 24.388,-11.862 24.2578,-11.9922 C24.1276,-12.1224 23.9323,-12.1875 23.6719,-12.1875 L22.2656,-12.1875 L22.2656,-12.6563 L22.9688,-12.6563 C23.5938,-12.6563 24.1016,-12.7604 24.4922,-12.9688 C24.8828,-13.1771 25.1823,-13.4896 25.3906,-13.9063 L25.7031,-13.9063"/>
</g>

<g fill="#e6f2ff" fill-opacity="0.2" stroke="none" transform="matrix(5e-05,0,0,5e-05,0,0)"
font-family="SimSun" font-size="9" font-weight="400" font-style="normal" 
>
<path fill-rule="evenodd" d="M5.2875e+06,3e+06 L5.2875e+06,2.25e+06 L4.35e+06,2.25e+06 L4.35e+06,3e+06 L5.2875e+06,3e+06"/>
</g>

<g fill="none" stroke="#e74c3c" stroke-opacity="1" stroke-dasharray="10,6" stroke-dashoffset="0" stroke-width="1" stroke-linecap="square" stroke-linejoin="miter" stroke-miterlimit="2" transform="matrix(0.5,0,0,0.5,0,0)"
font-family="SimSun" font-size="9" font-weight="400" font-style="normal" 
>
<polyline fill="none" points="435,225 528.75,225 528.75,300 435,300 435,225 " />
</g>

<g fill="#e74c3c" fill-opacity="1" stroke="none" transform="matrix(0.5,0,0,0.5,202.438,104.25)"
font-family="SimSun" font-size="9" font-weight="400" font-style="normal" 
>
<path fill-rule="evenodd" d="M10.75,0.265625 C10.75,-8.84896 10.7188,-14.3802 10.6563,-16.3281 L11.9531,-15.5625 L18.1406,-15.5625 L19.0781,-16.5 L20.4531,-15.0469 L11.8594,-15.0469 L11.8594,-10.9219 L17.3594,-10.9219 L18.1406,-11.6875 L19.25,-10.5781 L18.5625,-10.0625 C18.5625,-9.19792 18.5938,-7.36458 18.6563,-4.5625 L17.4531,-3.95313 L17.4531,-4.98438 L11.8594,-4.98438 L11.8594,0.4375 L18.4844,0.4375 L19.5156,-0.609375 L20.9688,0.953125 L11.9531,0.953125 L11.2656,1.8125 L10.1406,0.78125 L10.75,0.265625 M11.8594,-10.4063 L11.8594,-5.5 L17.4531,-5.5 L17.4531,-10.4063 L11.8594,-10.4063 M6.28125,-12.9844 L6.28125,-8.17188 L8.34375,-8.17188 L9.28125,-9.10938 L10.6563,-7.65625 L6.28125,-7.65625 C6.21875,-7.08333 6.13021,-6.42188 6.01563,-5.67188 C7.91146,-4.35938 8.95833,-3.48698 9.15625,-3.05469 C9.35417,-2.6224 9.45313,-2.23438 9.45313,-1.89063 C9.45313,-1.60938 9.38281,-1.35417 9.24219,-1.125 C9.10156,-0.895833 8.97396,-0.78125 8.85938,-0.78125 C8.74479,-0.78125 8.59896,-0.979167 8.42188,-1.375 C8.19271,-2.01042 7.89323,-2.64323 7.52344,-3.27344 C7.15365,-3.90365 6.625,-4.5625 5.9375,-5.25 C5.64583,-3.8125 5.14323,-2.49219 4.42969,-1.28906 C3.71615,-0.0859375 2.58333,1.03125 1.03125,2.0625 L0.953125,1.8125 C2.44271,0.427083 3.47396,-1.01042 4.04688,-2.5 C4.61979,-3.98958 4.98958,-5.70833 5.15625,-7.65625 L3.60938,-7.65625 C2.86979,-7.65625 2.18229,-7.56771 1.54688,-7.39063 L0.78125,-8.17188 L5.15625,-8.17188 L5.15625,-12.9844 L3.4375,-12.9844 C2.69792,-11.8906 1.92708,-10.8854 1.125,-9.96875 L0.859375,-10.1406 C1.72396,-11.5156 2.39844,-12.849 2.88281,-14.1406 C3.36719,-15.4323 3.75521,-16.6771 4.04688,-17.875 L5.84375,-16.8438 L5.15625,-16.4219 C4.53125,-15.2135 4.01563,-14.2396 3.60938,-13.5 L7.5625,-13.5 L8.51563,-14.4375 L9.89063,-12.9844 L6.28125,-12.9844 M39.7969,-17.2813 L41.4219,-16.0781 C40.9115,-15.901 40.1094,-15.2396 39.0156,-14.0938 C37.9323,-12.8958 36.6458,-11.7813 35.1563,-10.75 L34.9844,-11 C35.7865,-11.6875 36.6458,-12.6198 37.5625,-13.7969 C38.4792,-14.974 39.224,-16.1354 39.7969,-17.2813 M40.6563,-11.5156 L42.1094,-10.1406 C41.599,-9.97396 40.625,-9.26042 39.1875,-8 C37.7604,-6.67708 36.1302,-5.55729 34.2969,-4.64063 L34.125,-4.90625 C35.7813,-6.10417 37.1693,-7.32031 38.2891,-8.55469 C39.4089,-9.78906 40.1979,-10.776 40.6563,-11.5156 M41.4219,-5.84375 L42.9688,-4.29688 C42.3958,-4.24479 41.5365,-3.70313 40.3906,-2.67188 C39.1927,-1.57813 37.8906,-0.614583 36.4844,0.21875 C35.0781,1.05208 33.8594,1.64063 32.8281,1.98438 L32.6563,1.71875 C33.2292,1.4375 34.1615,0.851563 35.4531,-0.0390625 C36.7448,-0.929688 37.9635,-1.96354 39.1094,-3.14063 C40.2552,-4.31771 41.026,-5.21875 41.4219,-5.84375 M28.1875,-15.4688 L28.1875,-9.625 L31.375,-9.625 L31.375,-15.4688 L28.1875,-15.4688 M31.2813,1.125 C31.3438,-0.71875 31.375,-4.13021 31.375,-9.10938 L28.1875,-9.10938 C28.0729,-4.24479 26.4427,-0.604167 23.2969,1.8125 L23.125,1.54688 C25.5313,-1.03646 26.8177,-4.58854 26.9844,-9.10938 L24.9219,-9.10938 L23.8906,-8.9375 L23.2031,-9.625 L26.9844,-9.625 L26.9844,-15.4688 L25.5313,-15.4688 L24.5,-15.2969 L23.8125,-15.9844 L33.0938,-15.9844 L34.2031,-17.1094 L35.8438,-15.4688 L32.4844,-15.4688 L32.4844,-9.625 L33.3438,-9.625 L34.4688,-10.75 L36.0938,-9.10938 L32.4844,-9.10938 C32.4844,-3.90104 32.5156,-0.75 32.5781,0.34375 L31.2813,1.125 M53.1094,-4.04688 L53.1094,-0.265625 L56.7188,-0.265625 L56.7188,-4.04688 L53.1094,-4.04688 M52.5156,-12.2969 C52.974,-13.6094 53.2865,-14.8385 53.4531,-15.9844 L47.9531,-15.9844 C47.099,-15.9844 46.3542,-15.901 45.7188,-15.7344 L44.9531,-16.5 L62.1406,-16.5 L63.5156,-17.7969 L65.0625,-15.9844 L54.3125,-15.9844 L55.6094,-15.2969 L54.75,-15.0469 C54.0625,-14.0677 53.4896,-13.151 53.0313,-12.2969 L61.4531,-12.2969 L62.0469,-13.1563 L63.4219,-12.125 L62.8281,-11.5156 C62.8281,-6.35938 62.8542,-2.0625 62.9063,1.375 L61.625,1.98438 L61.625,0.265625 L48.2969,0.265625 L48.2969,1.46875 L47.0156,2.0625 C47.0677,0.0520833 47.0938,-2.51302 47.0938,-5.63281 C47.0938,-8.7526 47.0677,-11.2031 47.0156,-12.9844 L48.2969,-12.2969 L52.5156,-12.2969 M48.2969,-11.7813 L48.2969,-0.265625 L52,-0.265625 L52,-11.7813 L48.2969,-11.7813 M57.8438,-11.7813 L57.8438,-0.265625 L61.625,-0.265625 L61.625,-11.7813 L57.8438,-11.7813 M53.1094,-11.7813 L53.1094,-8.51563 L56.7188,-8.51563 L56.7188,-11.7813 L53.1094,-11.7813 M53.1094,-8 L53.1094,-4.5625 L56.7188,-4.5625 L56.7188,-8 L53.1094,-8 M76.75,-6.01563 C76.8021,-7.68229 76.8281,-9.375 76.8281,-11.0938 C76.8281,-12.8125 76.8021,-14.5313 76.75,-16.25 L78.0313,-15.5625 L83.9688,-15.5625 L84.8281,-16.4219 L86.1094,-15.125 L85.25,-14.6094 C85.25,-10.1406 85.2813,-7.53646 85.3438,-6.79688 L84.1406,-6.35938 L84.1406,-7.48438 L77.9531,-7.48438 L77.9531,-6.45313 L76.75,-6.01563 M77.9531,-15.0469 L77.9531,-8 L84.1406,-8 L84.1406,-15.0469 L77.9531,-15.0469 M79.1563,-5.84375 L80.7813,-4.46875 L80.0156,-4.21875 C77.8385,-1.22917 75.6875,0.807292 73.5625,1.89063 L73.4844,1.54688 C74.9115,0.401042 76.112,-0.830729 77.0859,-2.14844 C78.0599,-3.46615 78.75,-4.69792 79.1563,-5.84375 M82.1563,-5.5 C84.5104,-3.32292 85.8307,-1.90625 86.1172,-1.25 C86.4036,-0.59375 86.5469,-0.0885417 86.5469,0.265625 C86.5469,0.609375 86.4609,0.908854 86.2891,1.16406 C86.1172,1.41927 85.974,1.54688 85.8594,1.54688 C85.7448,1.54688 85.599,1.31771 85.4219,0.859375 C85.1406,0.109375 84.7995,-0.695313 84.3984,-1.55469 C83.9974,-2.41406 83.1927,-3.64583 81.9844,-5.25 L82.1563,-5.5 M72.4531,-8.85938 C72.4531,-3.47396 72.4792,-0.0625 72.5313,1.375 L71.25,2.15625 C71.3021,0.427083 71.3281,-2.98438 71.3281,-8.07813 C70.1302,-5.61979 68.6979,-3.64583 67.0313,-2.15625 L66.8594,-2.40625 C67.724,-3.55208 68.5417,-4.88542 69.3125,-6.40625 C70.0833,-7.92708 70.6979,-9.45833 71.1563,-11 L69.875,-11 C69.125,-11 68.4375,-10.9167 67.8125,-10.75 L67.0313,-11.5156 L71.3281,-11.5156 L71.3281,-15.3906 C69.8385,-15.1615 68.6667,-15.0156 67.8125,-14.9531 L67.8125,-15.2969 C69.0729,-15.526 70.2188,-15.8281 71.25,-16.2031 C72.2813,-16.5781 73.2552,-17.0781 74.1719,-17.7031 L75.375,-16.1563 C74.6875,-16.1563 73.7135,-15.9844 72.4531,-15.6406 L72.4531,-11.5156 L73.7344,-11.5156 L74.7656,-12.5469 L76.2344,-11 L72.4531,-11 L72.4531,-9.20313 C73.8281,-8.56771 74.6719,-8.03646 74.9844,-7.60938 C75.2969,-7.18229 75.4531,-6.85417 75.4531,-6.625 C75.4531,-6.33333 75.3542,-6.04427 75.1563,-5.75781 C74.9583,-5.47135 74.8281,-5.32813 74.7656,-5.32813 C74.5365,-5.32813 74.3385,-5.61458 74.1719,-6.1875 C73.8802,-7.05208 73.3073,-7.94271 72.4531,-8.85938 M99.6875,-9.71875 L99.6875,-10.4844 L109.234,-10.4844 L109.234,-9.71875 L99.6875,-9.71875 M99.6875,-5.32813 L99.6875,-6.10938 L109.234,-6.10938 L109.234,-5.32813 L99.6875,-5.32813 M126.156,3.01563 L126.156,-18.9063 L126.672,-18.9063 L126.672,3.01563 L126.156,3.01563 M137.766,-6.53125 L141.031,-1.46875 C141.198,-1.23958 141.354,-1.08073 141.5,-0.992188 C141.646,-0.903646 141.802,-0.859375 141.969,-0.859375 L142.313,-0.859375 L142.313,-0.34375 L138.797,-0.34375 L138.797,-0.859375 L139.047,-0.859375 C139.339,-0.859375 139.542,-0.903646 139.656,-0.992188 C139.771,-1.08073 139.74,-1.23958 139.563,-1.46875 L136.906,-5.6875 L135.188,-3.875 L135.188,-1.54688 C135.188,-1.31771 135.258,-1.14583 135.398,-1.03125 C135.539,-0.916667 135.724,-0.859375 135.953,-0.859375 L136.391,-0.859375 L136.391,-0.34375 L132.781,-0.34375 L132.781,-0.859375 L133.203,-0.859375 C133.495,-0.859375 133.698,-0.916667 133.813,-1.03125 C133.927,-1.14583 133.984,-1.31771 133.984,-1.54688 L133.984,-13.8438 C133.984,-14.0729 133.927,-14.2448 133.813,-14.3594 C133.698,-14.474 133.495,-14.5313 133.203,-14.5313 L132.688,-14.5313 L132.688,-15.0469 L133.469,-15.0469 C133.813,-15.0469 134.112,-15.1042 134.367,-15.2188 C134.622,-15.3333 134.839,-15.5052 135.016,-15.7344 L135.188,-15.7344 L135.188,-4.8125 L138.797,-8.6875 C138.911,-8.91667 138.953,-9.10156 138.922,-9.24219 C138.891,-9.38281 138.76,-9.45313 138.531,-9.45313 L138.016,-9.45313 L138.016,-9.96875 L141.625,-9.96875 L141.625,-9.45313 L141.203,-9.45313 C141.026,-9.45313 140.81,-9.41146 140.555,-9.32813 C140.299,-9.24479 140.057,-9.08854 139.828,-8.85938 L137.766,-6.53125 M148.156,3.01563 L148.156,-18.9063 L148.672,-18.9063 L148.672,3.01563 L148.156,3.01563"/>
</g>

<g fill="#333333" fill-opacity="1" stroke="none" transform="matrix(0.5,0,0,0.5,92.5,215.25)"
font-family="SimSun" font-size="9" font-weight="400" font-style="normal" 
>
<path fill-rule="evenodd" d="M4.70313,-3.55469 C5.50521,-5.77865 5.90625,-8.73177 5.90625,-12.4141 C5.90625,-16.0964 5.86979,-18.8125 5.79688,-20.5625 L7.4375,-19.6875 C10.3542,-19.9063 13.3802,-20.3073 16.5156,-20.8906 C19.651,-21.474 21.5833,-21.9844 22.3125,-22.4219 L24.0625,-20.2344 C23.1146,-20.3073 20.8177,-20.1615 17.1719,-19.7969 C13.526,-19.4323 10.2813,-19.1771 7.4375,-19.0313 L7.4375,-13.6719 L21,-13.6719 L22.0938,-14.7656 L23.9531,-13.0156 L22.8594,-12.25 C20.7448,-8.3125 18.9219,-5.54167 17.3906,-3.9375 C20.0885,-1.75 23.2969,-0.328125 27.0156,0.328125 L27.0156,0.65625 C25.849,0.875 25.0104,1.42188 24.5,2.29688 C21.2917,0.838542 18.5938,-0.875 16.4063,-2.84375 C13.2708,-0.583333 9.40625,1.13021 4.8125,2.29688 L4.8125,1.85938 C9.77083,-0.0364583 13.3073,-1.96875 15.4219,-3.9375 C13.0885,-6.48958 11.3385,-9.51563 10.1719,-13.0156 L7.4375,-13.0156 C7.51042,-8.93229 7.07292,-5.76042 6.125,-3.5 C5.17708,-1.23958 3.64583,0.802083 1.53125,2.625 L1.20313,2.29688 C2.73438,0.619792 3.90104,-1.33073 4.70313,-3.55469 M10.8281,-13.0156 C12.651,-9.29688 14.474,-6.63542 16.2969,-5.03125 C18.2656,-7.21875 19.8698,-9.88021 21.1094,-13.0156 L10.8281,-13.0156 M32.5938,-14.875 C32.5938,-18.1563 32.5573,-20.599 32.4844,-22.2031 L35.1094,-21 L34.125,-20.125 L34.125,-12.7969 L38.5,-12.7969 L39.8125,-14.1094 L41.7813,-12.1406 L34.125,-12.1406 L34.125,-1.53125 L41.3438,-4.04688 L41.5625,-3.60938 C37.2604,-1.64063 34.5625,-0.0729167 33.4688,1.09375 L32.1563,-0.765625 C32.4479,-1.05729 32.5938,-1.56771 32.5938,-2.29688 L32.5938,-14.875 M42.9844,-16.7344 C42.9844,-18.9219 42.9479,-20.8177 42.875,-22.4219 L45.6094,-21.1094 L44.5156,-20.2344 L44.5156,-11.0469 C46.0469,-12.2135 47.4141,-13.4896 48.6172,-14.875 C49.8203,-16.2604 50.6406,-17.3906 51.0781,-18.2656 L53.2656,-16.1875 C52.3906,-16.0417 51.2969,-15.3854 49.9844,-14.2188 C48.599,-13.0521 46.776,-11.776 44.5156,-10.3906 L44.5156,-1.85938 C44.5156,-0.984375 44.9896,-0.546875 45.9375,-0.546875 L50.4219,-0.546875 C51.0052,-0.546875 51.4063,-0.875 51.625,-1.53125 C51.8438,-2.1875 51.9896,-3.75521 52.0625,-6.23438 L52.6094,-6.23438 C52.6094,-4.48438 52.737,-3.20833 52.9922,-2.40625 C53.2474,-1.60417 53.6667,-1.05729 54.25,-0.765625 C53.8854,-0.182292 53.4661,0.236979 52.9922,0.492188 C52.5182,0.747396 51.8802,0.875 51.0781,0.875 L45.3906,0.875 C43.7865,0.875 42.9844,0.182292 42.9844,-1.20313 L42.9844,-16.7344 M73.0625,-13.125 C72.2604,-9.77083 71.3854,-7.21875 70.4375,-5.46875 C69.4896,-3.71875 68.3958,-2.26042 67.1563,-1.09375 C65.9167,0.0729167 64.5677,1.02083 63.1094,1.75 L62.8906,1.42188 C64.6406,0.182292 66.026,-1.13021 67.0469,-2.51563 C68.0677,-3.90104 68.9245,-5.43229 69.6172,-7.10938 C70.3099,-8.78646 70.9479,-10.901 71.5313,-13.4531 L67.8125,-13.4531 C67.375,-12.4323 66.9375,-11.5208 66.5,-10.7188 C67.5938,-9.98958 68.2865,-9.40625 68.5781,-8.96875 C68.8698,-8.53125 69.0156,-8.20313 69.0156,-7.98438 C69.0156,-7.61979 68.888,-7.27344 68.6328,-6.94531 C68.3776,-6.61719 68.2135,-6.45313 68.1406,-6.45313 C67.9219,-6.45313 67.7396,-6.81771 67.5938,-7.54688 C67.375,-8.49479 66.9375,-9.40625 66.2813,-10.2813 C65.625,-9.11458 64.75,-7.94792 63.6563,-6.78125 L63.3281,-7.10938 C64.5677,-8.78646 65.5703,-10.8099 66.3359,-13.1797 C67.1016,-15.5495 67.5573,-17.3542 67.7031,-18.5938 L66.1719,-18.5938 L64.9688,-18.375 L63.9844,-19.25 L71.75,-19.25 L72.9531,-20.4531 L74.8125,-18.5938 L69.4531,-18.5938 C69.2344,-17.7917 68.7604,-16.2969 68.0313,-14.1094 L71.4219,-14.1094 L72.2969,-15.2031 L74.1563,-13.7813 L73.0625,-13.125 M76.6719,-8.75 C76.6719,-8.02083 76.7083,-6.52604 76.7813,-4.26563 L75.1406,-3.5 C75.2135,-5.90625 75.25,-7.51042 75.25,-8.3125 L75.25,-14.4375 C75.25,-15.6771 75.2135,-16.8073 75.1406,-17.8281 L77.5469,-16.7344 L76.6719,-15.8594 L76.6719,-8.75 M79.4063,-17.2813 C79.4063,-18.5208 79.3698,-20.2344 79.2969,-22.4219 L81.7031,-21.2188 L80.8281,-20.5625 L80.8281,0.109375 C80.901,1.27604 80.1719,2.11458 78.6406,2.625 C78.5677,1.67708 77.4375,0.984375 75.25,0.546875 L75.3594,0 C77.1823,0.291667 78.3125,0.382813 78.75,0.273438 C79.1875,0.164063 79.4063,-0.255208 79.4063,-0.984375 L79.4063,-17.2813 M60.8125,2.625 C60.8854,0.21875 60.9219,-1.49479 60.9219,-2.51563 L60.9219,-13.7813 C59.4635,-11.5208 58.2969,-9.91667 57.4219,-8.96875 L57.0938,-9.1875 C58.6979,-11.8854 59.901,-14.3646 60.7031,-16.625 C61.5052,-18.8854 62.0885,-20.9271 62.4531,-22.75 L64.8594,-21.4375 L63.9844,-20.8906 C62.8177,-18.1198 62.0521,-16.2969 61.6875,-15.4219 L63.2188,-14.7656 L62.3438,-14 L62.3438,-2.29688 C62.3438,-1.05729 62.3802,0.328125 62.4531,1.85938 L60.8125,2.625 M97.3438,-9.95313 L97.3438,-13.125 C97.3438,-14.4375 97.3073,-15.6042 97.2344,-16.625 L98.3281,-15.8594 L103.469,-19.5781 L91.2188,-19.5781 C90.2708,-19.5781 89.3958,-19.4688 88.5938,-19.25 L87.6094,-20.2344 L103.469,-20.2344 L104.891,-21.3281 L106.531,-19.1406 C105.729,-18.9948 104.854,-18.7031 103.906,-18.2656 C102.958,-17.8281 101.281,-16.9167 98.875,-15.5313 L99.5313,-15.0938 L98.7656,-14.5469 L98.7656,-10.5 C101.318,-12.9063 102.922,-14.6563 103.578,-15.75 L105.328,-13.7813 L104.234,-13.6719 C101.318,-11.6302 99.5313,-10.3906 98.875,-9.95313 C102.302,-8.20313 104.18,-7.05469 104.508,-6.50781 C104.836,-5.96094 105,-5.46875 105,-5.03125 C105,-4.66667 104.927,-4.33854 104.781,-4.04688 C104.635,-3.75521 104.526,-3.60938 104.453,-3.60938 C104.161,-3.60938 103.724,-4.08333 103.141,-5.03125 C102.266,-6.34375 100.807,-7.80208 98.7656,-9.40625 L98.7656,-3.17188 C98.7656,-2.07813 98.0365,-1.23958 96.5781,-0.65625 C96.5052,-1.53125 95.5208,-2.26042 93.625,-2.84375 L93.625,-3.28125 C95.375,-3.0625 96.4323,-2.98958 96.7969,-3.0625 C97.1615,-3.13542 97.3438,-3.35417 97.3438,-3.71875 L97.3438,-9.1875 C93.8438,-6.85417 91.7656,-5.28646 91.1094,-4.48438 L89.5781,-6.125 C90.4531,-6.34375 91.638,-6.81771 93.1328,-7.54688 C94.6276,-8.27604 96.0313,-9.07813 97.3438,-9.95313 M91.4375,-15.2031 L91.7656,-15.5313 C93.4427,-14.5104 94.4635,-13.7448 94.8281,-13.2344 C95.1927,-12.724 95.375,-12.3594 95.375,-12.1406 C95.375,-11.776 95.2292,-11.4115 94.9375,-11.0469 C94.6458,-10.6823 94.4271,-10.5 94.2813,-10.5 C94.0625,-10.5 93.8802,-10.7552 93.7344,-11.2656 C93.5156,-12.1406 92.75,-13.4531 91.4375,-15.2031 M106.531,0 L106.531,-9.51563 C106.531,-11.1198 106.495,-12.7969 106.422,-14.5469 L109.047,-13.3438 L108.063,-12.4688 L108.063,-2.29688 C108.063,-1.05729 108.099,0.291667 108.172,1.75 L106.531,2.625 L106.531,0.65625 L89.4688,0.65625 L88.375,1.64063 L86.9531,0.21875 L87.8281,-0.546875 L87.8281,-10.3906 C87.8281,-11.6302 87.7917,-13.1615 87.7188,-14.9844 L90.3438,-13.7813 L89.3594,-13.0156 L89.3594,0 L106.531,0 M120.203,-6.67188 C119.62,-5.72396 119.073,-4.8125 118.563,-3.9375 C119.51,-3.71875 120.641,-3.46354 121.953,-3.17188 C122.609,-3.90104 123.266,-5.06771 123.922,-6.67188 L120.203,-6.67188 M115.719,-21.4375 C117.104,-20.5625 117.943,-19.9063 118.234,-19.4688 C118.526,-19.0313 118.672,-18.7031 118.672,-18.4844 C118.672,-18.1198 118.544,-17.7552 118.289,-17.3906 C118.034,-17.026 117.833,-16.8438 117.688,-16.8438 C117.469,-16.8438 117.25,-17.2083 117.031,-17.9375 C116.74,-18.9583 116.193,-20.0521 115.391,-21.2188 L115.719,-21.4375 M125.125,-21.7656 L127.094,-20.4531 C126.51,-20.3073 126,-19.9427 125.563,-19.3594 C125.052,-18.776 124.214,-17.901 123.047,-16.7344 L122.719,-16.9531 C124.104,-19.1406 124.906,-20.7448 125.125,-21.7656 M120.203,-22.9688 L122.609,-21.875 L121.734,-21.1094 L121.734,-16.0781 L124.469,-16.0781 L125.672,-17.2813 L127.531,-15.4219 L121.734,-15.4219 L121.734,-14.4375 C123.411,-14.0729 124.451,-13.7266 124.852,-13.3984 C125.253,-13.0703 125.453,-12.651 125.453,-12.1406 C125.453,-11.9219 125.417,-11.6484 125.344,-11.3203 C125.271,-10.9922 125.161,-10.8281 125.016,-10.8281 C124.87,-10.8281 124.615,-11.0833 124.25,-11.5938 C123.667,-12.3958 122.828,-13.1615 121.734,-13.8906 L121.734,-10.5 L120.422,-9.625 L121.953,-8.96875 C121.589,-8.82292 121.115,-8.27604 120.531,-7.32813 L123.922,-7.32813 L124.688,-8.3125 L126.328,-6.89063 L125.344,-6.34375 C124.615,-4.66667 123.958,-3.5 123.375,-2.84375 C124.542,-2.55208 125.326,-2.24219 125.727,-1.91406 C126.128,-1.58594 126.328,-1.16667 126.328,-0.65625 C126.328,-0.145833 126.219,0.109375 126,0.109375 C125.781,0.109375 125.526,-0.0364583 125.234,-0.328125 C124.432,-0.911458 123.521,-1.42188 122.5,-1.85938 C119.948,0.182292 116.922,1.53125 113.422,2.1875 L113.313,1.85938 C116.667,0.765625 119.292,-0.65625 121.188,-2.40625 C119.729,-2.91667 118.307,-3.28125 116.922,-3.5 C117.214,-3.9375 117.797,-4.99479 118.672,-6.67188 L117.25,-6.67188 C116.302,-6.67188 115.427,-6.5625 114.625,-6.34375 L113.641,-7.32813 L118.891,-7.32813 C119.182,-8.05729 119.474,-8.93229 119.766,-9.95313 L120.313,-9.73438 L120.313,-14.2188 C118.344,-11.9583 116.083,-10.2083 113.531,-8.96875 L113.313,-9.29688 C116.01,-11.1927 118.052,-13.2344 119.438,-15.4219 L117.469,-15.4219 C116.521,-15.4219 115.646,-15.3125 114.844,-15.0938 L113.859,-16.0781 L120.313,-16.0781 C120.313,-18.7031 120.276,-21 120.203,-22.9688 M129.172,-15.4219 C129.536,-11.1927 130.411,-7.65625 131.797,-4.8125 C132.964,-7.29167 133.693,-10.8281 133.984,-15.4219 L129.172,-15.4219 M129.719,-22.9688 L132.234,-21.5469 C131.651,-21.3281 131.214,-20.8906 130.922,-20.2344 C130.63,-19.5781 130.083,-18.1927 129.281,-16.0781 L135.516,-16.0781 L136.828,-17.3906 L138.797,-15.4219 L135.625,-15.4219 C135.188,-10.026 134.24,-6.01563 132.781,-3.39063 C134.458,-1.34896 136.427,-0.0729167 138.688,0.4375 L138.688,0.875 C137.302,1.09375 136.573,1.53125 136.5,2.1875 C134.604,0.875 133.036,-0.619792 131.797,-2.29688 C129.391,0.0364583 126.51,1.75 123.156,2.84375 L122.938,2.51563 C126.292,0.984375 128.953,-1.02083 130.922,-3.5 C129.536,-6.92708 128.807,-10.6823 128.734,-14.7656 C128.005,-12.8698 126.948,-11.0833 125.563,-9.40625 L125.234,-9.625 C126.984,-12.5417 128.479,-16.9896 129.719,-22.9688 M160.563,3.82813 L160.563,-24.0625 L161.219,-24.0625 L161.219,3.82813 L160.563,3.82813 M175.328,-8.3125 L179.484,-1.85938 C179.703,-1.56771 179.904,-1.36719 180.086,-1.25781 C180.268,-1.14844 180.469,-1.09375 180.688,-1.09375 L181.125,-1.09375 L181.125,-0.4375 L176.641,-0.4375 L176.641,-1.09375 L176.969,-1.09375 C177.333,-1.09375 177.589,-1.14844 177.734,-1.25781 C177.88,-1.36719 177.844,-1.56771 177.625,-1.85938 L174.234,-7.23438 L172.047,-4.92188 L172.047,-1.96875 C172.047,-1.67708 172.138,-1.45833 172.32,-1.3125 C172.503,-1.16667 172.74,-1.09375 173.031,-1.09375 L173.578,-1.09375 L173.578,-0.4375 L168.984,-0.4375 L168.984,-1.09375 L169.531,-1.09375 C169.896,-1.09375 170.151,-1.16667 170.297,-1.3125 C170.443,-1.45833 170.516,-1.67708 170.516,-1.96875 L170.516,-17.6094 C170.516,-17.901 170.443,-18.1198 170.297,-18.2656 C170.151,-18.4115 169.896,-18.4844 169.531,-18.4844 L168.875,-18.4844 L168.875,-19.1406 L169.859,-19.1406 C170.297,-19.1406 170.68,-19.2135 171.008,-19.3594 C171.336,-19.5052 171.609,-19.724 171.828,-20.0156 L172.047,-20.0156 L172.047,-6.125 L176.641,-11.0469 C176.786,-11.3385 176.841,-11.5755 176.805,-11.7578 C176.768,-11.9401 176.604,-12.0313 176.313,-12.0313 L175.656,-12.0313 L175.656,-12.6875 L180.25,-12.6875 L180.25,-12.0313 L179.703,-12.0313 C179.484,-12.0313 179.211,-11.9766 178.883,-11.8672 C178.555,-11.7578 178.245,-11.5573 177.953,-11.2656 L175.328,-8.3125 M188.563,3.82813 L188.563,-24.0625 L189.219,-24.0625 L189.219,3.82813 L188.563,3.82813 M214.922,-16.5156 L214.922,-9.51563 L220.609,-9.51563 L220.609,-16.5156 L214.922,-16.5156 M214.922,-8.85938 L214.922,-1.20313 L220.609,-1.20313 L220.609,-8.85938 L214.922,-8.85938 M222.031,-15.8594 C222.031,-7.32813 222.068,-1.75 222.141,0.875 L220.609,1.75 L220.609,-0.546875 L214.922,-0.546875 L214.922,1.3125 L213.391,2.1875 C213.464,-1.23958 213.5,-4.64844 213.5,-8.03906 C213.5,-11.4297 213.464,-14.8021 213.391,-18.1563 L215.031,-17.1719 L216.125,-17.1719 C216.854,-19.651 217.255,-21.5469 217.328,-22.8594 L219.734,-21.5469 C219.005,-21.1823 218.021,-19.724 216.781,-17.1719 L220.391,-17.1719 L221.484,-18.2656 L223.125,-16.625 L222.031,-15.8594 M227.391,-22.75 L229.797,-21.3281 C229.214,-20.9635 228.302,-19.4688 227.063,-16.8438 L232.969,-16.8438 L234.172,-18.0469 L235.813,-16.4063 L234.828,-15.6406 C234.682,-7.10938 234.482,-2.27865 234.227,-1.14844 C233.971,-0.0182292 233.607,0.765625 233.133,1.20313 C232.659,1.64063 231.911,2.04167 230.891,2.40625 C230.526,1.23958 229.323,0.364583 227.281,-0.21875 L227.281,-0.765625 C229.104,-0.401042 230.417,-0.21875 231.219,-0.21875 C232.021,-0.21875 232.513,-0.838542 232.695,-2.07813 C232.878,-3.31771 233.042,-8.02083 233.188,-16.1875 L226.844,-16.1875 C225.531,-14.0729 224.146,-12.2865 222.688,-10.8281 L222.359,-11.0469 C223.891,-13.3802 225.021,-15.4583 225.75,-17.2813 C226.479,-19.1042 227.026,-20.9271 227.391,-22.75 M225.422,-12.0313 C227.172,-10.7188 228.193,-9.7526 228.484,-9.13281 C228.776,-8.51302 228.922,-8.05729 228.922,-7.76563 C228.922,-7.25521 228.776,-6.81771 228.484,-6.45313 C228.193,-6.08854 227.974,-5.90625 227.828,-5.90625 C227.536,-5.90625 227.318,-6.41667 227.172,-7.4375 C226.88,-8.89583 226.224,-10.3177 225.203,-11.7031 L225.422,-12.0313 M247.953,-19.7969 C248.026,-13.8906 247.935,-9.9349 247.68,-7.92969 C247.424,-5.92448 246.786,-4.0651 245.766,-2.35156 C244.745,-0.638021 242.74,1.13021 239.75,2.95313 L239.641,2.51563 C242.411,0.401042 244.216,-1.78646 245.055,-4.04688 C245.893,-6.30729 246.313,-9.09635 246.313,-12.4141 C246.313,-15.7318 246.276,-18.776 246.203,-21.5469 L248.063,-20.4531 L255.609,-20.4531 L256.594,-21.5469 L258.453,-20.0156 L257.359,-19.25 L257.359,-1.85938 C257.286,-0.546875 257.87,0.109375 259.109,0.109375 L261.188,0.109375 C261.917,0.182292 262.336,-0.291667 262.445,-1.3125 C262.555,-2.33333 262.646,-3.90104 262.719,-6.01563 L263.266,-6.01563 C263.339,-4.11979 263.448,-2.80729 263.594,-2.07813 C263.74,-1.34896 264.177,-0.729167 264.906,-0.21875 C264.25,0.875 263.302,1.45833 262.063,1.53125 L258.344,1.53125 C256.594,1.53125 255.719,0.619792 255.719,-1.20313 L255.719,-19.7969 L247.953,-19.7969 M283.281,-0.109375 C284.885,0.182292 286.016,0.309896 286.672,0.273438 C287.328,0.236979 287.656,-0.145833 287.656,-0.875 L287.656,-18.7031 L279.125,-18.7031 C278.177,-18.7031 277.302,-18.5938 276.5,-18.375 L275.516,-19.3594 L289.625,-19.3594 L290.938,-20.6719 L292.906,-18.7031 L289.078,-18.7031 L289.078,-0.109375 C289.224,1.13021 288.495,2.07813 286.891,2.73438 C286.745,1.85938 285.505,1.05729 283.172,0.328125 L283.281,-0.109375 M276.5,-3.9375 C276.573,-5.76042 276.609,-7.60156 276.609,-9.46094 C276.609,-11.3203 276.573,-13.1615 276.5,-14.9844 L278.031,-14.1094 L282.625,-14.1094 L283.391,-15.0938 L285.141,-13.7813 L284.266,-13.125 L284.266,-8.85938 C284.266,-7.76563 284.302,-6.67188 284.375,-5.57813 L282.734,-4.8125 L282.734,-6.45313 L278.031,-6.45313 L278.031,-4.59375 L276.5,-3.9375 M278.031,-13.4531 L278.031,-7.10938 L282.734,-7.10938 L282.734,-13.4531 L278.031,-13.4531 M271.469,2.73438 C271.542,-0.838542 271.578,-3.35417 271.578,-4.8125 L271.578,-13.5625 C270.703,-12.1042 269.427,-10.5729 267.75,-8.96875 L267.531,-9.29688 C269.5,-11.9948 270.958,-14.6016 271.906,-17.1172 C272.854,-19.6328 273.474,-21.5104 273.766,-22.75 L276.063,-21.2188 L275.078,-20.5625 C274.13,-18.6667 273.328,-16.9896 272.672,-15.5313 L273.875,-14.7656 L273,-14.1094 L273,-2.625 C273,-1.02083 273.036,0.473958 273.109,1.85938 L271.469,2.73438 M306.25,-22.9688 C307.781,-22.3125 308.656,-21.7109 308.875,-21.1641 C309.094,-20.6172 308.911,-20.0885 308.328,-19.5781 L313.141,-19.5781 L314.563,-21 L316.641,-18.9219 L311.391,-18.9219 L313.031,-17.8281 C312.302,-17.6094 311.281,-16.6979 309.969,-15.0938 L316.203,-15.0938 L317.844,-16.7344 L320.141,-14.4375 L299.469,-14.4375 C298.521,-14.4375 297.646,-14.3281 296.844,-14.1094 L295.859,-15.0938 L309.313,-15.0938 C310.188,-16.7708 310.734,-18.0469 310.953,-18.9219 L303.734,-18.9219 C304.828,-18.2656 305.484,-17.7917 305.703,-17.5 C305.922,-17.2083 306.031,-16.9167 306.031,-16.625 C306.031,-16.4063 305.958,-16.151 305.813,-15.8594 C305.667,-15.5677 305.43,-15.4036 305.102,-15.3672 C304.773,-15.3307 304.573,-15.6406 304.5,-16.2969 C304.427,-16.8802 303.99,-17.7552 303.188,-18.9219 L301.109,-18.9219 L299.688,-18.7031 L298.813,-19.5781 L307.453,-19.5781 C307.453,-20.526 306.979,-21.5833 306.031,-22.75 L306.25,-22.9688 M300.125,-13.4531 L301.656,-12.5781 L313.469,-12.5781 L314.234,-13.4531 L315.875,-12.25 L315.109,-11.5938 C315.109,-8.45833 315.146,-6.48958 315.219,-5.6875 L313.688,-5.03125 L313.688,-6.01563 L301.656,-6.01563 L301.656,-5.46875 L300.125,-4.92188 C300.198,-6.23438 300.234,-7.63802 300.234,-9.13281 C300.234,-10.6276 300.198,-12.0677 300.125,-13.4531 M301.656,-11.9219 L301.656,-9.625 L313.688,-9.625 L313.688,-11.9219 L301.656,-11.9219 M301.656,-8.96875 L301.656,-6.67188 L313.688,-6.67188 L313.688,-8.96875 L301.656,-8.96875 M299.25,-4.04688 L299.688,-3.9375 C299.615,-1.89583 299.414,-0.565104 299.086,0.0546875 C298.758,0.674479 298.32,1.03906 297.773,1.14844 C297.227,1.25781 296.844,1.22135 296.625,1.03906 C296.406,0.856771 296.297,0.692708 296.297,0.546875 C296.297,0.255208 296.625,-0.109375 297.281,-0.546875 C298.156,-1.20313 298.813,-2.36979 299.25,-4.04688 M305.594,-5.46875 L305.813,-5.79688 C307.635,-4.99479 308.711,-4.41146 309.039,-4.04688 C309.367,-3.68229 309.531,-3.31771 309.531,-2.95313 C309.531,-2.66146 309.44,-2.33333 309.258,-1.96875 C309.076,-1.60417 308.948,-1.42188 308.875,-1.42188 C308.656,-1.42188 308.401,-1.71354 308.109,-2.29688 C307.672,-3.17188 306.833,-4.22917 305.594,-5.46875 M314.672,-4.04688 L315,-4.375 C317.042,-3.35417 318.281,-2.60677 318.719,-2.13281 C319.156,-1.65885 319.375,-1.23958 319.375,-0.875 C319.375,-0.583333 319.266,-0.236979 319.047,0.164063 C318.828,0.565104 318.646,0.765625 318.5,0.765625 C318.281,0.765625 318.026,0.401042 317.734,-0.328125 C317.224,-1.34896 316.203,-2.58854 314.672,-4.04688 M302.203,-0.4375 C302.203,-2.625 302.167,-4.11979 302.094,-4.92188 L304.5,-3.71875 L303.625,-3.0625 L303.625,-0.984375 C303.552,-0.109375 303.953,0.364583 304.828,0.4375 L311.391,0.4375 C312.047,0.510417 312.466,0.255208 312.648,-0.328125 C312.831,-0.911458 312.958,-1.89583 313.031,-3.28125 L313.469,-3.28125 C313.469,-2.04167 313.542,-1.14844 313.688,-0.601563 C313.833,-0.0546875 314.161,0.255208 314.672,0.328125 C314.307,1.20313 313.396,1.64063 311.938,1.64063 L304.281,1.64063 C302.823,1.56771 302.13,0.875 302.203,-0.4375 M333.266,-22.8594 C334.651,-21.9115 335.708,-21.0911 336.438,-20.3984 C337.167,-19.7057 337.531,-19.1042 337.531,-18.5938 C337.531,-18.2292 337.367,-17.7917 337.039,-17.2813 C336.711,-16.7708 336.438,-16.5156 336.219,-16.5156 C335.927,-16.5156 335.708,-16.9167 335.563,-17.7188 C335.198,-19.0313 334.323,-20.6719 332.938,-22.6406 L333.266,-22.8594 M342.016,-20.8906 L344.75,-19.0313 L343.656,-18.4844 C341.76,-12.651 339.719,-8.3125 337.531,-5.46875 C341.25,-1.96875 344.932,0 348.578,0.4375 L348.578,0.875 C347.266,1.09375 346.391,1.64063 345.953,2.51563 C342.672,1.20313 339.536,-1.09375 336.547,-4.375 C332.974,-0.947917 328.635,1.42188 323.531,2.73438 L323.422,2.29688 C328.089,0.765625 332.135,-1.82292 335.563,-5.46875 C333.083,-8.89583 330.859,-13.2708 328.891,-18.5938 L329.328,-18.8125 C332.026,-12.9792 334.432,-8.93229 336.547,-6.67188 C337.714,-8.42188 338.734,-10.4089 339.609,-12.6328 C340.484,-14.8568 341.286,-17.6094 342.016,-20.8906 "/>
</g>
</g>
</svg>
