<?xml version="1.0" encoding="UTF-8" standalone="no"?>
<svg width="127mm" height="79.375mm"
 viewBox="0 0 360 225"
 xmlns="http://www.w3.org/2000/svg" xmlns:xlink="http://www.w3.org/1999/xlink"  version="1.2" baseProfile="tiny">


<defs>
</defs>
<g fill="none" stroke="black" stroke-width="1" fill-rule="evenodd" stroke-linecap="square" stroke-linejoin="bevel" >



<g fill="#333333" fill-opacity="1" stroke="#333333" stroke-opacity="1" stroke-width="2" stroke-linecap="butt" stroke-linejoin="round" transform="matrix(0.5,0,0,0.5,0,0)"
font-family="SimSun" font-size="9" font-weight="400" font-style="normal" 
>
<polyline fill="none" points="30,225 690,225 " />
<polyline fill="none" points="360,420 360,30 " />
</g>

<g fill="none" stroke="#333333" stroke-opacity="1" stroke-width="2" stroke-linecap="butt" stroke-linejoin="round" transform="matrix(0.5,0,0,0.5,0,0)"
font-family="SimSun" font-size="9" font-weight="400" font-style="normal" 
>
<polyline fill="none" points="682.5,231 690,225 682.5,219 " />
<polyline fill="none" points="354,412.5 360,420 366,412.5 " />
</g>

<g fill="#333333" fill-opacity="1" stroke="none" transform="matrix(0.5,0,0,0.5,346.5,122.75)"
font-family="SimSun" font-size="9" font-weight="400" font-style="normal" 
>
<path fill-rule="evenodd" d="M6.28125,-6.85938 L7.96875,-9.375 C8.15625,-9.625 8.23438,-9.84375 8.20313,-10.0313 C8.17188,-10.2188 7.9375,-10.3125 7.5,-10.3125 L6.9375,-10.3125 L6.9375,-10.875 L10.5938,-10.875 L10.5938,-10.3125 L10.125,-10.3125 C10,-10.3125 9.84375,-10.2969 9.65625,-10.2656 C9.46875,-10.2344 9.3125,-10.125 9.1875,-9.9375 L6.65625,-6.1875 L9.28125,-1.875 C9.46875,-1.5625 9.70313,-1.32813 9.98438,-1.17188 C10.2656,-1.01563 10.4688,-0.9375 10.5938,-0.9375 L10.9688,-0.9375 L10.9688,-0.375 L6.84375,-0.375 L6.84375,-0.9375 L7.40625,-0.9375 C7.78125,-0.9375 7.98438,-1.03125 8.01563,-1.21875 C8.04688,-1.40625 8,-1.625 7.875,-1.875 L5.90625,-5.0625 L3.65625,-1.78125 C3.59375,-1.46875 3.60938,-1.25 3.70313,-1.125 C3.79688,-1 3.96875,-0.9375 4.21875,-0.9375 L4.5,-0.9375 L4.5,-0.375 L0.84375,-0.375 L0.84375,-0.9375 L1.40625,-0.9375 C1.65625,-0.9375 1.9375,-1.03125 2.25,-1.21875 C2.5625,-1.40625 2.8125,-1.6875 3,-2.0625 L5.4375,-5.75 L3,-9.65625 C2.9375,-9.78125 2.8125,-9.92188 2.625,-10.0781 C2.4375,-10.2344 2.1875,-10.3125 1.875,-10.3125 L1.40625,-10.3125 L1.40625,-10.875 L5.4375,-10.875 L5.4375,-10.3125 L5.15625,-10.3125 C4.84375,-10.3125 4.65625,-10.2188 4.59375,-10.0313 C4.53125,-9.84375 4.5625,-9.625 4.6875,-9.375 L6.28125,-6.85938 M2.625,-10.3125"/>
</g>

<g fill="#333333" fill-opacity="1" stroke="none" transform="matrix(0.5,0,0,0.5,186,215.75)"
font-family="SimSun" font-size="9" font-weight="400" font-style="normal" 
>
<path fill-rule="evenodd" d="M6.1875,-3 L6.375,-3 L8.4375,-9.28125 C8.5625,-9.59375 8.54688,-9.84375 8.39063,-10.0313 C8.23438,-10.2188 8.03125,-10.3125 7.78125,-10.3125 L7.21875,-10.3125 L7.21875,-10.875 L11.1563,-10.875 L11.1563,-10.3125 L10.5938,-10.3125 C10.3438,-10.3125 10.0938,-10.2188 9.84375,-10.0313 C9.59375,-9.84375 9.40625,-9.59375 9.28125,-9.28125 L6.09375,0 C5.78125,0.9375 5.39063,1.67188 4.92188,2.20313 C4.45313,2.73438 3.84375,3 3.09375,3 C2.65625,3 2.3125,2.92188 2.0625,2.76563 C1.8125,2.60938 1.6875,2.375 1.6875,2.0625 C1.6875,1.875 1.76563,1.6875 1.92188,1.5 C2.07813,1.3125 2.3125,1.21875 2.625,1.21875 C2.875,1.21875 3.125,1.34375 3.375,1.59375 C3.625,1.78125 3.8125,1.875 3.9375,1.875 C4.125,1.875 4.28125,1.84375 4.40625,1.78125 C4.53125,1.71875 4.625,1.59375 4.6875,1.40625 C4.875,1.09375 5.0625,0.703125 5.25,0.234375 C5.4375,-0.234375 5.59375,-0.71875 5.71875,-1.21875 L2.53125,-9.46875 C2.46875,-9.71875 2.32813,-9.92188 2.10938,-10.0781 C1.89063,-10.2344 1.65625,-10.3125 1.40625,-10.3125 L1.03125,-10.3125 L1.03125,-10.875 L4.96875,-10.875 L4.96875,-10.3125 L4.59375,-10.3125 C4.34375,-10.3125 4.15625,-10.2344 4.03125,-10.0781 C3.90625,-9.92188 3.875,-9.6875 3.9375,-9.375 L6.1875,-3 M8.71875,-10.3125"/>
</g>

<g fill="#888888" fill-opacity="1" stroke="none" transform="matrix(0.5,0,0,0.5,172.5,108.75)"
font-family="SimSun" font-size="9" font-weight="400" font-style="normal" 
>
<path fill-rule="evenodd" d="M2.40625,-7.73438 C2.40625,-5.27604 2.70833,-3.48698 3.3125,-2.36719 C3.91667,-1.2474 4.67708,-0.6875 5.59375,-0.6875 C6.5625,-0.6875 7.33333,-1.21875 7.90625,-2.28125 C8.47917,-3.34375 8.76563,-5.16146 8.76563,-7.73438 C8.76563,-9.79688 8.52344,-11.4583 8.03906,-12.7188 C7.55469,-13.9792 6.73958,-14.6094 5.59375,-14.6094 C4.61458,-14.6094 3.83854,-14.0365 3.26563,-12.8906 C2.69271,-11.7448 2.40625,-10.026 2.40625,-7.73438 M10.4063,-7.73438 C10.4063,-5.39063 9.94792,-3.54427 9.03125,-2.19531 C8.11458,-0.846354 6.96875,-0.171875 5.59375,-0.171875 C4.27083,-0.171875 3.13802,-0.859375 2.19531,-2.23438 C1.2526,-3.60938 0.78125,-5.44271 0.78125,-7.73438 C0.78125,-9.97396 1.22396,-11.7813 2.10938,-13.1563 C2.99479,-14.5313 4.15625,-15.2188 5.59375,-15.2188 C7.08333,-15.2188 8.25781,-14.487 9.11719,-13.0234 C9.97656,-11.5599 10.4063,-9.79688 10.4063,-7.73438 "/>
</g>

<g fill="none" stroke="#e74c3c" stroke-opacity="1" stroke-width="5" stroke-linecap="butt" stroke-linejoin="round" transform="matrix(0.5,0,0,0.5,0,0)"
font-family="SimSun" font-size="9" font-weight="400" font-style="normal" 
>
<polyline fill="none" points="342,441 342.543,437.76 343.085,434.553 343.628,431.378 344.171,428.237 344.714,425.128 345.256,422.051 345.799,419.008 346.342,415.997 346.884,413.019 347.427,410.074 347.97,407.161 348.513,404.281 349.055,401.434 349.598,398.619 350.141,395.837 350.683,393.088 351.226,390.372 351.769,387.689 352.312,385.038 352.854,382.42 353.397,379.834 353.94,377.282 354.482,374.762 355.025,372.274 355.568,369.82 356.111,367.398 356.653,365.009 357.196,362.653 357.739,360.329 358.281,358.038 358.824,355.78 359.367,353.555 359.91,351.362 360.452,349.202 360.995,347.075 361.538,344.981 362.08,342.919 362.623,340.89 363.166,338.893 363.709,336.93 364.251,334.999 364.794,333.101 365.337,331.236 365.879,329.403 366.422,327.603 366.965,325.836 367.508,324.101 368.05,322.399 368.593,320.73 369.136,319.094 369.678,317.49 370.221,315.92 370.764,314.381 371.307,312.876 371.849,311.403 372.392,309.963 372.935,308.556 373.477,307.182 374.02,305.84 374.563,304.531 375.106,303.254 375.648,302.011 376.191,300.8 376.734,299.622 377.276,298.476 377.819,297.364 378.362,296.284 378.905,295.236 379.447,294.222 379.99,293.24 380.533,292.291 381.075,291.375 381.618,290.491 382.161,289.64 382.704,288.822 383.246,288.037 383.789,287.284 384.332,286.564 384.874,285.877 385.417,285.222 385.96,284.6 386.503,284.011 387.045,283.455 387.588,282.931 388.131,282.44 388.673,281.982 389.216,281.557 389.759,281.164 390.302,280.804 390.844,280.477 391.387,280.182 391.93,279.92 392.472,279.691 393.015,279.495 393.558,279.331 394.101,279.2 394.643,279.102 395.186,279.037 395.729,279.004 396.271,279.004 396.814,279.037 397.357,279.102 397.899,279.2 398.442,279.331 398.985,279.495 399.528,279.691 400.07,279.92 400.613,280.182 401.156,280.477 401.698,280.804 402.241,281.164 402.784,281.557 403.327,281.982 403.869,282.44 404.412,282.931 404.955,283.455 405.497,284.011 406.04,284.6 406.583,285.222 407.126,285.877 407.668,286.564 408.211,287.284 408.754,288.037 409.296,288.822 409.839,289.64 410.382,290.491 410.925,291.375 411.467,292.291 412.01,293.24 412.553,294.222 413.095,295.236 413.638,296.284 414.181,297.364 414.724,298.476 415.266,299.622 415.809,300.8 416.352,302.011 416.894,303.254 417.437,304.531 417.98,305.84 418.523,307.182 419.065,308.556 419.608,309.963 420.151,311.403 420.693,312.876 421.236,314.381 421.779,315.92 422.322,317.49 422.864,319.094 423.407,320.73 423.95,322.399 424.492,324.101 425.035,325.836 425.578,327.603 426.121,329.403 426.663,331.236 427.206,333.101 427.749,334.999 428.291,336.93 428.834,338.893 429.377,340.89 429.92,342.919 430.462,344.981 431.005,347.075 431.548,349.202 432.09,351.362 432.633,353.555 433.176,355.78 433.719,358.038 434.261,360.329 434.804,362.653 435.347,365.009 435.889,367.398 436.432,369.82 436.975,372.274 437.518,374.762 438.06,377.282 438.603,379.834 439.146,382.42 439.688,385.038 440.231,387.689 440.774,390.372 441.317,393.088 441.859,395.837 442.402,398.619 442.945,401.434 443.487,404.281 444.03,407.161 444.573,410.074 445.116,413.019 445.658,415.997 446.201,419.008 446.744,422.051 447.286,425.128 447.829,428.237 448.372,431.378 448.915,434.553 449.457,437.76 450,441 " />
</g>

<g fill="#e74c3c" fill-opacity="1" stroke="none" transform="matrix(0.5,0,0,0.5,190.2,224.31)"
font-family="SimSun" font-size="9" font-weight="400" font-style="normal" 
>
<path fill-rule="evenodd" d="M5.67188,-2.75 L5.84375,-2.75 L7.73438,-8.51563 C7.84896,-8.79688 7.83594,-9.02344 7.69531,-9.19531 C7.55469,-9.36719 7.36979,-9.45313 7.14063,-9.45313 L6.625,-9.45313 L6.625,-9.96875 L10.2344,-9.96875 L10.2344,-9.45313 L9.71875,-9.45313 C9.48958,-9.45313 9.26042,-9.36719 9.03125,-9.19531 C8.80208,-9.02344 8.63021,-8.79688 8.51563,-8.51563 L5.59375,0 C5.30208,0.864583 4.94271,1.53906 4.51563,2.02344 C4.08854,2.50781 3.53125,2.75 2.84375,2.75 C2.4375,2.75 2.11979,2.67969 1.89063,2.53906 C1.66146,2.39844 1.54688,2.18229 1.54688,1.89063 C1.54688,1.72396 1.61979,1.55469 1.76563,1.38281 C1.91146,1.21094 2.125,1.125 2.40625,1.125 C2.63542,1.125 2.86458,1.23958 3.09375,1.46875 C3.32292,1.63542 3.49479,1.71875 3.60938,1.71875 C3.78646,1.71875 3.93229,1.6901 4.04688,1.63281 C4.16146,1.57552 4.24479,1.46354 4.29688,1.29688 C4.47396,1.00521 4.64844,0.643229 4.82031,0.210938 C4.99219,-0.221354 5.13542,-0.666667 5.25,-1.125 L2.32813,-8.6875 C2.26563,-8.91667 2.13542,-9.10156 1.9375,-9.24219 C1.73958,-9.38281 1.52604,-9.45313 1.29688,-9.45313 L0.953125,-9.45313 L0.953125,-9.96875 L4.5625,-9.96875 L4.5625,-9.45313 L4.21875,-9.45313 C3.98958,-9.45313 3.81771,-9.38281 3.70313,-9.24219 C3.58854,-9.10156 3.55729,-8.88542 3.60938,-8.59375 L5.67188,-2.75 M22.6875,-9.71875 L22.6875,-10.4844 L32.2344,-10.4844 L32.2344,-9.71875 L22.6875,-9.71875 M22.6875,-5.32813 L22.6875,-6.10938 L32.2344,-6.10938 L32.2344,-5.32813 L22.6875,-5.32813 M53.9688,-17.2813 C52.6563,-15.9063 51.6693,-14.4297 51.0078,-12.8516 C50.3464,-11.2734 50.0156,-9.625 50.0156,-7.90625 C50.0156,-6.13542 50.3464,-4.47656 51.0078,-2.92969 C51.6693,-1.38281 52.6563,0.0833333 53.9688,1.46875 L53.5469,1.89063 C51.9427,0.453125 50.7396,-1.08073 49.9375,-2.71094 C49.1354,-4.34115 48.7344,-6.07292 48.7344,-7.90625 C48.7344,-9.6875 49.1354,-11.3932 49.9375,-13.0234 C50.7396,-14.6536 51.9427,-16.2135 53.5469,-17.7031 L53.9688,-17.2813 M60.7656,-6.28125 L62.3125,-8.59375 C62.4792,-8.82292 62.5495,-9.02344 62.5234,-9.19531 C62.4974,-9.36719 62.2813,-9.45313 61.875,-9.45313 L61.3594,-9.45313 L61.3594,-9.96875 L64.7188,-9.96875 L64.7188,-9.45313 L64.2813,-9.45313 C64.1667,-9.45313 64.0234,-9.4401 63.8516,-9.41406 C63.6797,-9.38802 63.5365,-9.28646 63.4219,-9.10938 L61.1094,-5.67188 L63.5156,-1.71875 C63.6823,-1.4375 63.8958,-1.22396 64.1563,-1.07813 C64.4167,-0.932292 64.6042,-0.859375 64.7188,-0.859375 L65.0625,-0.859375 L65.0625,-0.34375 L61.2813,-0.34375 L61.2813,-0.859375 L61.7969,-0.859375 C62.1406,-0.859375 62.3255,-0.945313 62.3516,-1.11719 C62.3776,-1.28906 62.3333,-1.48958 62.2188,-1.71875 L60.4219,-4.64063 L58.3594,-1.64063 C58.2969,-1.34896 58.3099,-1.14583 58.3984,-1.03125 C58.487,-0.916667 58.6458,-0.859375 58.875,-0.859375 L59.125,-0.859375 L59.125,-0.34375 L55.7813,-0.34375 L55.7813,-0.859375 L56.2969,-0.859375 C56.526,-0.859375 56.7839,-0.945313 57.0703,-1.11719 C57.3568,-1.28906 57.5833,-1.54688 57.75,-1.89063 L59.9844,-5.28125 L57.75,-8.85938 C57.6979,-8.97396 57.5859,-9.10156 57.4141,-9.24219 C57.2422,-9.38281 57.0104,-9.45313 56.7188,-9.45313 L56.2969,-9.45313 L56.2969,-9.96875 L59.9844,-9.96875 L59.9844,-9.45313 L59.7344,-9.45313 C59.4427,-9.45313 59.2682,-9.36719 59.2109,-9.19531 C59.1536,-9.02344 59.1823,-8.82292 59.2969,-8.59375 L60.7656,-6.28125 M66.6875,-7.65625 L66.6875,-8.42188 L76.2344,-8.42188 L76.2344,-7.65625 L66.6875,-7.65625 M85,-11.4375 C85,-12.4688 84.7708,-13.2552 84.3125,-13.7969 C83.8542,-14.3385 83.1667,-14.6094 82.25,-14.6094 C81.5625,-14.6094 80.974,-14.4245 80.4844,-14.0547 C79.9948,-13.6849 79.75,-13.2135 79.75,-12.6406 C79.75,-12.2969 79.8646,-12.0104 80.0938,-11.7813 C80.2708,-11.5521 80.3594,-11.3229 80.3594,-11.0938 C80.3594,-10.8021 80.2865,-10.5859 80.1406,-10.4453 C79.9948,-10.3047 79.7813,-10.2344 79.5,-10.2344 C79.1563,-10.2344 78.8828,-10.3333 78.6797,-10.5313 C78.4766,-10.7292 78.375,-11.0573 78.375,-11.5156 C78.375,-12.724 78.8047,-13.6432 79.6641,-14.2734 C80.5234,-14.9036 81.4427,-15.2188 82.4219,-15.2188 C83.7969,-15.2188 84.8125,-14.875 85.4688,-14.1875 C86.125,-13.5 86.4531,-12.6406 86.4531,-11.6094 C86.4531,-10.9219 86.2969,-10.2344 85.9844,-9.54688 C85.6719,-8.85938 85.1719,-8.19792 84.4844,-7.5625 C82.8177,-5.95833 81.5417,-4.65625 80.6563,-3.65625 C79.7708,-2.65625 79.2396,-1.98438 79.0625,-1.64063 L84.1406,-1.64063 C84.651,-1.64063 85.0781,-1.84115 85.4219,-2.24219 C85.7656,-2.64323 85.9948,-3.24479 86.1094,-4.04688 L86.625,-4.04688 L86.1094,-0.34375 L78.125,-0.34375 L78.125,-1.46875 C78.4063,-1.97917 78.8776,-2.63542 79.5391,-3.4375 C80.2005,-4.23958 81.0729,-5.1875 82.1563,-6.28125 C83.1354,-7.25 83.8542,-8.16406 84.3125,-9.02344 C84.7708,-9.88281 85,-10.6875 85,-11.4375 M88.9531,-17.2813 L89.375,-17.7031 C90.9792,-16.2135 92.1823,-14.6536 92.9844,-13.0234 C93.7865,-11.3932 94.1875,-9.6875 94.1875,-7.90625 C94.1875,-6.07292 93.7865,-4.34115 92.9844,-2.71094 C92.1823,-1.08073 90.9792,0.453125 89.375,1.89063 L88.9531,1.46875 C90.2656,0.0833333 91.2526,-1.38281 91.9141,-2.92969 C92.5755,-4.47656 92.9063,-6.13542 92.9063,-7.90625 C92.9063,-9.625 92.5755,-11.2734 91.9141,-12.8516 C91.2526,-14.4297 90.2656,-15.9063 88.9531,-17.2813 M105.188,-10.4063 L104.5,-8.76563 L99.2656,-8.76563 L99.2656,-9.10938 C100.984,-10.4844 102.156,-11.6042 102.781,-12.4688 C103.125,-12.9792 103.297,-13.4792 103.297,-13.9688 C103.297,-14.4583 103.141,-14.8464 102.828,-15.1328 C102.516,-15.4193 102.143,-15.5625 101.711,-15.5625 C101.279,-15.5625 100.919,-15.4609 100.633,-15.2578 C100.346,-15.0547 100.12,-14.724 99.9531,-14.2656 L99.4375,-14.2656 C99.5521,-14.9531 99.8385,-15.4974 100.297,-15.8984 C100.755,-16.2995 101.357,-16.5 102.102,-16.5 C102.846,-16.5 103.448,-16.2995 103.906,-15.8984 C104.365,-15.4974 104.594,-15.0547 104.594,-14.5703 C104.594,-14.0859 104.378,-13.5 103.945,-12.8125 C103.513,-12.125 102.526,-11.1198 100.984,-9.79688 L102.953,-9.79688 C103.589,-9.79688 104.005,-9.84115 104.203,-9.92969 C104.401,-10.0182 104.557,-10.1771 104.672,-10.4063 L105.188,-10.4063 M115.25,-8.42188 L115.25,-13.3281 L116.016,-13.3281 L116.016,-8.42188 L120.313,-8.42188 L120.313,-7.65625 L116.016,-7.65625 L116.016,-2.75 L115.25,-2.75 L115.25,-7.65625 L110.953,-7.65625 L110.953,-8.42188 L115.25,-8.42188 M130.625,-4.29688 C130.625,-3.21354 130.224,-2.25521 129.422,-1.42188 C128.62,-0.588542 127.505,-0.171875 126.078,-0.171875 C125.047,-0.171875 124.159,-0.458333 123.414,-1.03125 C122.669,-1.60417 122.297,-2.26563 122.297,-3.01563 C122.297,-3.35938 122.411,-3.65885 122.641,-3.91406 C122.87,-4.16927 123.099,-4.29688 123.328,-4.29688 C123.672,-4.29688 123.914,-4.16927 124.055,-3.91406 C124.195,-3.65885 124.266,-3.44271 124.266,-3.26563 C124.266,-2.98438 124.208,-2.75521 124.094,-2.57813 C123.979,-2.34896 123.922,-2.15104 123.922,-1.98438 C123.922,-1.64063 124.138,-1.35417 124.57,-1.125 C125.003,-0.895833 125.474,-0.78125 125.984,-0.78125 C127.016,-0.78125 127.789,-1.08073 128.305,-1.67969 C128.82,-2.27865 129.078,-3.20833 129.078,-4.46875 C129.078,-5.5 128.807,-6.33073 128.266,-6.96094 C127.724,-7.59115 126.708,-7.90625 125.219,-7.90625 L125.219,-8.51563 C126.365,-8.51563 127.208,-8.78646 127.75,-9.32813 C128.292,-9.86979 128.563,-10.6302 128.563,-11.6094 C128.563,-12.4115 128.349,-13.112 127.922,-13.7109 C127.495,-14.3099 126.823,-14.6094 125.906,-14.6094 C125.5,-14.6094 125.068,-14.5104 124.609,-14.3125 C124.151,-14.1146 123.922,-13.7865 123.922,-13.3281 C123.922,-12.8698 123.979,-12.5833 124.094,-12.4688 C124.208,-12.3542 124.266,-12.2083 124.266,-12.0313 C124.266,-11.75 124.208,-11.5234 124.094,-11.3516 C123.979,-11.1797 123.781,-11.0938 123.5,-11.0938 C123.271,-11.0938 123.055,-11.1797 122.852,-11.3516 C122.648,-11.5234 122.547,-11.8385 122.547,-12.2969 C122.547,-13.151 122.919,-13.8516 123.664,-14.3984 C124.409,-14.9453 125.271,-15.2188 126.25,-15.2188 C127.396,-15.2188 128.313,-14.8594 129,-14.1406 C129.688,-13.4219 130.031,-12.6615 130.031,-11.8594 C130.031,-11.0052 129.815,-10.276 129.383,-9.67188 C128.951,-9.06771 128.276,-8.625 127.359,-8.34375 C128.62,-7.88542 129.479,-7.28385 129.938,-6.53906 C130.396,-5.79427 130.625,-5.04688 130.625,-4.29688 "/>
</g>

<g fill="#e74c3c" fill-opacity="1" stroke="none" transform="matrix(0.5,0,0,0.5,0,0)"
font-family="SimSun" font-size="9" font-weight="400" font-style="normal" 
>
<circle cx="396" cy="279" r="10"/>
</g>

<g fill="#e74c3c" fill-opacity="1" stroke="none" transform="matrix(0.5,0,0,0.5,182.5,150.75)"
font-family="SimSun" font-size="9" font-weight="400" font-style="normal" 
>
<path fill-rule="evenodd" d="M1.89063,-2.23438 L1.89063,-2.57813 C3.32813,-2.41146 4.20313,-2.32813 4.51563,-2.32813 C4.82813,-2.32813 4.98438,-2.5 4.98438,-2.84375 L4.98438,-15.3906 L3.70313,-15.3906 C2.95313,-15.3906 2.26563,-15.3021 1.64063,-15.125 L0.859375,-15.9063 L6.96875,-15.9063 L8,-16.9375 L9.45313,-15.3906 L6.10938,-15.3906 L6.10938,-2.32813 C6.10938,-1.80729 5.99479,-1.43229 5.76563,-1.20313 C5.53646,-0.973958 5.04688,-0.6875 4.29688,-0.34375 C4.18229,-1.20833 3.38021,-1.83854 1.89063,-2.23438 M10.0625,-2.75 C10.1146,-4.23958 10.1406,-5.97396 10.1406,-7.95313 C10.1406,-9.93229 10.1146,-11.7813 10.0625,-13.5 L11.3438,-12.8125 L13.2344,-12.8125 C13.526,-14.0104 13.7292,-15.125 13.8438,-16.1563 L11.8594,-16.1563 C11.1198,-16.1563 10.4323,-16.0729 9.79688,-15.9063 L9.03125,-16.6719 L18.2188,-16.6719 L19.3438,-17.7969 L20.8906,-16.1563 L15.5625,-16.1563 C15.1042,-15.6979 14.5313,-14.5833 13.8438,-12.8125 L17.7031,-12.8125 L18.6563,-13.75 L19.8594,-12.5469 L19.0781,-12.0313 L19.0781,-6.79688 C19.0781,-5.81771 19.1094,-4.75521 19.1719,-3.60938 L17.9688,-3.01563 L17.9688,-12.2969 L11.2656,-12.2969 L11.2656,-3.53125 L10.0625,-2.75 M15.9844,-9.71875 L15.2969,-9.10938 C15.2448,-6.07813 14.9896,-3.96094 14.5313,-2.75781 C14.0729,-1.55469 13.3281,-0.578125 12.2969,0.171875 C11.2656,0.921875 9.71875,1.60938 7.65625,2.23438 L7.5625,1.89063 C10.0313,0.859375 11.6667,-0.1875 12.4688,-1.25 C13.2708,-2.3125 13.7422,-3.6875 13.8828,-5.375 C14.0234,-7.0625 14.0677,-8.88021 14.0156,-10.8281 L15.9844,-9.71875 M15.4688,-2.84375 C17.7083,-1.8125 19.0417,-1.08073 19.4688,-0.648438 C19.8958,-0.216146 20.1094,0.260417 20.1094,0.78125 C20.1094,1.01042 20.0677,1.26823 19.9844,1.55469 C19.901,1.84115 19.8281,1.98438 19.7656,1.98438 C19.599,1.98438 19.401,1.78125 19.1719,1.375 C18.7135,0.6875 18.1979,0.0416667 17.625,-0.5625 C17.0521,-1.16667 16.276,-1.83854 15.2969,-2.57813 L15.4688,-2.84375 M28.4531,-9.96875 L28.4531,-5.25 L37.9063,-5.25 L37.9063,-9.96875 L28.4531,-9.96875 M27.0781,-3.1875 C27.1302,-4.38542 27.1563,-5.67188 27.1563,-7.04688 C27.1563,-8.42188 27.1302,-9.79688 27.0781,-11.1719 L28.4531,-10.4844 L32.1406,-10.4844 C32.1406,-14.3281 32.1146,-16.8229 32.0625,-17.9688 L34.0313,-17.1875 L33.3438,-16.5 L33.3438,-14.4375 L38.9375,-14.4375 L40.0469,-15.5625 L41.5938,-13.9219 L33.3438,-13.9219 L33.3438,-10.4844 L37.7344,-10.4844 L38.5938,-11.3438 L39.875,-10.0625 L39.1094,-9.45313 C39.1094,-6.76563 39.1354,-4.93229 39.1875,-3.95313 L37.9063,-3.4375 L37.9063,-4.73438 L28.4531,-4.73438 L28.4531,-3.70313 L27.0781,-3.1875 M26.6406,-2.75 L26.9844,-2.75 C26.6406,-0.510417 26.2839,0.794271 25.9141,1.16406 C25.5443,1.53385 25.2135,1.71875 24.9219,1.71875 C24.7552,1.71875 24.5573,1.64844 24.3281,1.50781 C24.099,1.36719 23.9844,1.20833 23.9844,1.03125 C23.9844,0.864583 24.125,0.666667 24.4063,0.4375 C24.9271,0.03125 25.3151,-0.34375 25.5703,-0.6875 C25.8255,-1.03125 26.1823,-1.71875 26.6406,-2.75 M29.6563,-2.32813 L29.8281,-2.57813 C31.026,-1.66146 31.6979,-1.01823 31.8438,-0.648438 C31.9896,-0.278646 32.0625,-0.00520833 32.0625,0.171875 C32.0625,0.578125 31.9323,0.908854 31.6719,1.16406 C31.4115,1.41927 31.2552,1.54688 31.2031,1.54688 C30.974,1.54688 30.8281,1.26042 30.7656,0.6875 C30.651,-0.177083 30.2813,-1.18229 29.6563,-2.32813 M34.2031,-2.40625 L34.375,-2.67188 C35.4688,-1.86979 36.1432,-1.23958 36.3984,-0.78125 C36.6536,-0.322917 36.7813,-0.00520833 36.7813,0.171875 C36.7813,0.463542 36.6536,0.752604 36.3984,1.03906 C36.1432,1.32552 35.9844,1.46875 35.9219,1.46875 C35.6927,1.46875 35.5208,1.125 35.4063,0.4375 C35.2396,-0.541667 34.8385,-1.48958 34.2031,-2.40625 M38.8438,-2.67188 L39.0156,-2.92188 C40.1615,-2.11979 40.9505,-1.43229 41.3828,-0.859375 C41.8151,-0.286458 42.0313,0.145833 42.0313,0.4375 C42.0313,0.71875 41.9167,1.0026 41.6875,1.28906 C41.4583,1.57552 41.3125,1.71875 41.25,1.71875 C41.0208,1.71875 40.8229,1.375 40.6563,0.6875 C40.3646,-0.291667 39.7604,-1.41146 38.8438,-2.67188 M64.9688,-17.2813 C63.6563,-15.9063 62.6693,-14.4297 62.0078,-12.8516 C61.3464,-11.2734 61.0156,-9.625 61.0156,-7.90625 C61.0156,-6.13542 61.3464,-4.47656 62.0078,-2.92969 C62.6693,-1.38281 63.6563,0.0833333 64.9688,1.46875 L64.5469,1.89063 C62.9427,0.453125 61.7396,-1.08073 60.9375,-2.71094 C60.1354,-4.34115 59.7344,-6.07292 59.7344,-7.90625 C59.7344,-9.6875 60.1354,-11.3932 60.9375,-13.0234 C61.7396,-14.6536 62.9427,-16.2135 64.5469,-17.7031 L64.9688,-17.2813 M74,-11.4375 C74,-12.4688 73.7708,-13.2552 73.3125,-13.7969 C72.8542,-14.3385 72.1667,-14.6094 71.25,-14.6094 C70.5625,-14.6094 69.974,-14.4245 69.4844,-14.0547 C68.9948,-13.6849 68.75,-13.2135 68.75,-12.6406 C68.75,-12.2969 68.8646,-12.0104 69.0938,-11.7813 C69.2708,-11.5521 69.3594,-11.3229 69.3594,-11.0938 C69.3594,-10.8021 69.2865,-10.5859 69.1406,-10.4453 C68.9948,-10.3047 68.7813,-10.2344 68.5,-10.2344 C68.1563,-10.2344 67.8828,-10.3333 67.6797,-10.5313 C67.4766,-10.7292 67.375,-11.0573 67.375,-11.5156 C67.375,-12.724 67.8047,-13.6432 68.6641,-14.2734 C69.5234,-14.9036 70.4427,-15.2188 71.4219,-15.2188 C72.7969,-15.2188 73.8125,-14.875 74.4688,-14.1875 C75.125,-13.5 75.4531,-12.6406 75.4531,-11.6094 C75.4531,-10.9219 75.2969,-10.2344 74.9844,-9.54688 C74.6719,-8.85938 74.1719,-8.19792 73.4844,-7.5625 C71.8177,-5.95833 70.5417,-4.65625 69.6563,-3.65625 C68.7708,-2.65625 68.2396,-1.98438 68.0625,-1.64063 L73.1406,-1.64063 C73.651,-1.64063 74.0781,-1.84115 74.4219,-2.24219 C74.7656,-2.64323 74.9948,-3.24479 75.1094,-4.04688 L75.625,-4.04688 L75.1094,-0.34375 L67.125,-0.34375 L67.125,-1.46875 C67.4063,-1.97917 67.8776,-2.63542 68.5391,-3.4375 C69.2005,-4.23958 70.0729,-5.1875 71.1563,-6.28125 C72.1354,-7.25 72.8542,-8.16406 73.3125,-9.02344 C73.7708,-9.88281 74,-10.6875 74,-11.4375 M78.5469,-1.89063 C78.5469,-2.11979 78.6484,-2.34896 78.8516,-2.57813 C79.0547,-2.80729 79.3542,-2.92188 79.75,-2.92188 C80.2083,-2.92188 80.5677,-2.73698 80.8281,-2.36719 C81.0885,-1.9974 81.2188,-1.60938 81.2188,-1.20313 C81.2188,-0.401042 80.9896,0.34375 80.5313,1.03125 C80.0729,1.71875 79.4115,2.23438 78.5469,2.57813 L78.2031,2.15625 C78.776,1.8125 79.2057,1.45313 79.4922,1.07813 C79.7786,0.703125 79.9219,0.3125 79.9219,-0.09375 C79.9219,-0.375 79.6927,-0.630208 79.2344,-0.859375 C78.776,-1.08854 78.5469,-1.43229 78.5469,-1.89063 M97.625,-4.29688 C97.625,-3.21354 97.224,-2.25521 96.4219,-1.42188 C95.6198,-0.588542 94.5052,-0.171875 93.0781,-0.171875 C92.0469,-0.171875 91.1589,-0.458333 90.4141,-1.03125 C89.6693,-1.60417 89.2969,-2.26563 89.2969,-3.01563 C89.2969,-3.35938 89.4115,-3.65885 89.6406,-3.91406 C89.8698,-4.16927 90.099,-4.29688 90.3281,-4.29688 C90.6719,-4.29688 90.9141,-4.16927 91.0547,-3.91406 C91.1953,-3.65885 91.2656,-3.44271 91.2656,-3.26563 C91.2656,-2.98438 91.2083,-2.75521 91.0938,-2.57813 C90.9792,-2.34896 90.9219,-2.15104 90.9219,-1.98438 C90.9219,-1.64063 91.138,-1.35417 91.5703,-1.125 C92.0026,-0.895833 92.474,-0.78125 92.9844,-0.78125 C94.0156,-0.78125 94.7891,-1.08073 95.3047,-1.67969 C95.8203,-2.27865 96.0781,-3.20833 96.0781,-4.46875 C96.0781,-5.5 95.8073,-6.33073 95.2656,-6.96094 C94.724,-7.59115 93.7083,-7.90625 92.2188,-7.90625 L92.2188,-8.51563 C93.3646,-8.51563 94.2083,-8.78646 94.75,-9.32813 C95.2917,-9.86979 95.5625,-10.6302 95.5625,-11.6094 C95.5625,-12.4115 95.349,-13.112 94.9219,-13.7109 C94.4948,-14.3099 93.8229,-14.6094 92.9063,-14.6094 C92.5,-14.6094 92.0677,-14.5104 91.6094,-14.3125 C91.151,-14.1146 90.9219,-13.7865 90.9219,-13.3281 C90.9219,-12.8698 90.9792,-12.5833 91.0938,-12.4688 C91.2083,-12.3542 91.2656,-12.2083 91.2656,-12.0313 C91.2656,-11.75 91.2083,-11.5234 91.0938,-11.3516 C90.9792,-11.1797 90.7813,-11.0938 90.5,-11.0938 C90.2708,-11.0938 90.0547,-11.1797 89.8516,-11.3516 C89.6484,-11.5234 89.5469,-11.8385 89.5469,-12.2969 C89.5469,-13.151 89.9193,-13.8516 90.6641,-14.3984 C91.4089,-14.9453 92.2708,-15.2188 93.25,-15.2188 C94.3958,-15.2188 95.3125,-14.8594 96,-14.1406 C96.6875,-13.4219 97.0313,-12.6615 97.0313,-11.8594 C97.0313,-11.0052 96.8151,-10.276 96.3828,-9.67188 C95.9505,-9.06771 95.276,-8.625 94.3594,-8.34375 C95.6198,-7.88542 96.4792,-7.28385 96.9375,-6.53906 C97.3958,-5.79427 97.625,-5.04688 97.625,-4.29688 M99.9531,-17.2813 L100.375,-17.7031 C101.979,-16.2135 103.182,-14.6536 103.984,-13.0234 C104.786,-11.3932 105.188,-9.6875 105.188,-7.90625 C105.188,-6.07292 104.786,-4.34115 103.984,-2.71094 C103.182,-1.08073 101.979,0.453125 100.375,1.89063 L99.9531,1.46875 C101.266,0.0833333 102.253,-1.38281 102.914,-2.92969 C103.576,-4.47656 103.906,-6.13542 103.906,-7.90625 C103.906,-9.625 103.576,-11.2734 102.914,-12.8516 C102.253,-14.4297 101.266,-15.9063 99.9531,-17.2813 "/>
</g>

<g fill="#e74c3c" fill-opacity="1" stroke="#e74c3c" stroke-opacity="1" stroke-dasharray="10,6" stroke-dashoffset="0" stroke-width="2" stroke-linecap="butt" stroke-linejoin="round" transform="matrix(0.5,0,0,0.5,0,0)"
font-family="SimSun" font-size="9" font-weight="400" font-style="normal" 
>
<polyline fill="none" points="396,420 396,30 " />
</g>

<g fill="#333333" fill-opacity="1" stroke="none" transform="matrix(0.5,0,0,0.5,103,215.25)"
font-family="SimSun" font-size="9" font-weight="400" font-style="normal" 
>
<path fill-rule="evenodd" d="M2.40625,-2.84375 L2.40625,-3.28125 C4.22917,-3.0625 5.34115,-2.95313 5.74219,-2.95313 C6.14323,-2.95313 6.34375,-3.17188 6.34375,-3.60938 L6.34375,-19.5781 L4.70313,-19.5781 C3.75521,-19.5781 2.88021,-19.4688 2.07813,-19.25 L1.09375,-20.2344 L8.85938,-20.2344 L10.1719,-21.5469 L12.0313,-19.5781 L7.76563,-19.5781 L7.76563,-2.95313 C7.76563,-2.29688 7.61979,-1.82292 7.32813,-1.53125 C7.03646,-1.23958 6.41667,-0.875 5.46875,-0.4375 C5.32292,-1.53125 4.30208,-2.33333 2.40625,-2.84375 M12.7969,-3.5 C12.8698,-5.39583 12.9063,-7.60156 12.9063,-10.1172 C12.9063,-12.6328 12.8698,-14.9844 12.7969,-17.1719 L14.4375,-16.2969 L16.8438,-16.2969 C17.2083,-17.8281 17.4635,-19.25 17.6094,-20.5625 L15.0938,-20.5625 C14.1458,-20.5625 13.2708,-20.4531 12.4688,-20.2344 L11.4844,-21.2188 L23.1875,-21.2188 L24.6094,-22.6406 L26.5781,-20.5625 L19.7969,-20.5625 C19.2135,-19.9792 18.4844,-18.5573 17.6094,-16.2969 L22.5313,-16.2969 L23.7344,-17.5 L25.2656,-15.9688 L24.2813,-15.3125 L24.2813,-8.64063 C24.2813,-7.40104 24.3177,-6.05208 24.3906,-4.59375 L22.8594,-3.82813 L22.8594,-15.6406 L14.3281,-15.6406 L14.3281,-4.48438 L12.7969,-3.5 M20.3438,-12.3594 L19.4688,-11.5938 C19.3958,-7.72917 19.0677,-5.03125 18.4844,-3.5 C17.901,-1.96875 16.9531,-0.729167 15.6406,0.21875 C14.3281,1.16667 12.3594,2.04167 9.73438,2.84375 L9.625,2.40625 C12.7604,1.09375 14.8385,-0.236979 15.8594,-1.58594 C16.8802,-2.9349 17.4818,-4.6849 17.6641,-6.83594 C17.8464,-8.98698 17.901,-11.3021 17.8281,-13.7813 L20.3438,-12.3594 M19.6875,-3.60938 C22.5313,-2.29688 24.2266,-1.36719 24.7734,-0.820313 C25.3203,-0.273438 25.5938,0.328125 25.5938,0.984375 C25.5938,1.27604 25.5391,1.60417 25.4297,1.96875 C25.3203,2.33333 25.2292,2.51563 25.1563,2.51563 C24.9375,2.51563 24.6823,2.26042 24.3906,1.75 C23.8073,0.875 23.151,0.0546875 22.4219,-0.710938 C21.6927,-1.47656 20.7083,-2.33333 19.4688,-3.28125 L19.6875,-3.60938 M36.2031,-12.6875 L36.2031,-6.67188 L48.2344,-6.67188 L48.2344,-12.6875 L36.2031,-12.6875 M34.4531,-4.04688 C34.526,-5.57813 34.5625,-7.21875 34.5625,-8.96875 C34.5625,-10.7188 34.526,-12.4688 34.4531,-14.2188 L36.2031,-13.3438 L40.9063,-13.3438 C40.9063,-18.2292 40.8698,-21.401 40.7969,-22.8594 L43.3125,-21.875 L42.4375,-21 L42.4375,-18.375 L49.5469,-18.375 L50.9688,-19.7969 L52.9375,-17.7188 L42.4375,-17.7188 L42.4375,-13.3438 L48.0156,-13.3438 L49.1094,-14.4375 L50.75,-12.7969 L49.7656,-12.0313 C49.7656,-8.60417 49.8021,-6.27083 49.875,-5.03125 L48.2344,-4.375 L48.2344,-6.01563 L36.2031,-6.01563 L36.2031,-4.70313 L34.4531,-4.04688 M33.9063,-3.5 L34.3438,-3.5 C33.9063,-0.65625 33.4505,1.0026 32.9766,1.47656 C32.5026,1.95052 32.0833,2.1875 31.7188,2.1875 C31.5,2.1875 31.2448,2.09635 30.9531,1.91406 C30.6615,1.73177 30.5156,1.53125 30.5156,1.3125 C30.5156,1.09375 30.6979,0.838542 31.0625,0.546875 C31.7188,0.0364583 32.2109,-0.4375 32.5391,-0.875 C32.8672,-1.3125 33.3229,-2.1875 33.9063,-3.5 M37.7344,-2.95313 L37.9531,-3.28125 C39.4844,-2.11458 40.3411,-1.29427 40.5234,-0.820313 C40.7057,-0.346354 40.7969,0 40.7969,0.21875 C40.7969,0.729167 40.6328,1.14844 40.3047,1.47656 C39.9766,1.80469 39.776,1.96875 39.7031,1.96875 C39.4115,1.96875 39.2292,1.60417 39.1563,0.875 C39.0104,-0.21875 38.5365,-1.49479 37.7344,-2.95313 M43.5313,-3.0625 L43.75,-3.39063 C45.1354,-2.36979 45.9922,-1.56771 46.3203,-0.984375 C46.6484,-0.401042 46.8125,0 46.8125,0.21875 C46.8125,0.583333 46.6484,0.947917 46.3203,1.3125 C45.9922,1.67708 45.7917,1.85938 45.7188,1.85938 C45.4271,1.85938 45.2083,1.42188 45.0625,0.546875 C44.8438,-0.692708 44.3333,-1.89583 43.5313,-3.0625 M49.4375,-3.39063 L49.6563,-3.71875 C51.1146,-2.69792 52.1172,-1.82292 52.6641,-1.09375 C53.2109,-0.364583 53.4844,0.182292 53.4844,0.546875 C53.4844,0.911458 53.3385,1.27604 53.0469,1.64063 C52.7552,2.00521 52.5729,2.1875 52.5,2.1875 C52.2083,2.1875 51.9531,1.75 51.7344,0.875 C51.3698,-0.364583 50.6042,-1.78646 49.4375,-3.39063 M65.625,-2.51563 L71.9688,-3.9375 L72.0781,-3.5 C67.6302,-2.11458 64.4401,-1.07552 62.5078,-0.382813 C60.5755,0.309896 59.4635,0.875 59.1719,1.3125 L57.6406,-0.765625 C59.974,-1.20313 62.125,-1.64063 64.0938,-2.07813 L64.0938,-10.5 L62.2344,-10.5 C61.2865,-10.5 60.4115,-10.3906 59.6094,-10.1719 L58.625,-11.1563 L67.4844,-11.1563 L68.9063,-12.5781 L70.9844,-10.5 L65.625,-10.5 L65.625,-2.51563 M75.3594,-21.7656 C76.7448,-21.2552 77.7474,-20.7995 78.3672,-20.3984 C78.987,-19.9974 79.2786,-19.5417 79.2422,-19.0313 C79.2057,-18.5208 79.0781,-18.1563 78.8594,-17.9375 C78.6406,-17.7188 78.4583,-17.6094 78.3125,-17.6094 C78.0208,-17.6094 77.7656,-17.901 77.5469,-18.4844 C77.1094,-19.3594 76.3073,-20.3438 75.1406,-21.4375 L75.3594,-21.7656 M72.9531,-20.8906 C72.9531,-19.2135 72.9896,-17.7552 73.0625,-16.5156 L78.0938,-16.5156 L79.8438,-18.2656 L82.25,-15.8594 L73.0625,-15.8594 C73.3542,-12.1406 73.8464,-9.27865 74.5391,-7.27344 C75.2318,-5.26823 76.0339,-3.71875 76.9453,-2.625 C77.8568,-1.53125 79.0417,-0.692708 80.5,-0.109375 C80.7188,-1.56771 80.974,-3.31771 81.2656,-5.35938 L81.8125,-5.35938 C81.7396,-2.51563 81.7943,-0.638021 81.9766,0.273438 C82.1589,1.1849 82.3958,1.85938 82.6875,2.29688 C82.8333,2.51563 82.7604,2.625 82.4688,2.625 C82.1771,2.625 81.3568,2.38802 80.0078,1.91406 C78.6589,1.4401 77.3646,0.528646 76.125,-0.820313 C74.8854,-2.16927 73.8646,-4.04688 73.0625,-6.45313 C72.2604,-8.85938 71.75,-11.9948 71.5313,-15.8594 L61.9063,-15.8594 C60.9583,-15.8594 60.0833,-15.75 59.2813,-15.5313 L58.2969,-16.5156 L71.4219,-16.5156 C71.349,-18.6302 71.276,-20.7448 71.2031,-22.8594 L73.9375,-21.6563 L72.9531,-20.8906 M105.219,-3.5 L105.438,-3.5 L107.844,-10.8281 C107.99,-11.1927 107.971,-11.4844 107.789,-11.7031 C107.607,-11.9219 107.37,-12.0313 107.078,-12.0313 L106.422,-12.0313 L106.422,-12.6875 L111.016,-12.6875 L111.016,-12.0313 L110.359,-12.0313 C110.068,-12.0313 109.776,-11.9219 109.484,-11.7031 C109.193,-11.4844 108.974,-11.1927 108.828,-10.8281 L105.109,0 C104.745,1.09375 104.289,1.95052 103.742,2.57031 C103.195,3.1901 102.484,3.5 101.609,3.5 C101.099,3.5 100.698,3.40885 100.406,3.22656 C100.115,3.04427 99.9688,2.77083 99.9688,2.40625 C99.9688,2.1875 100.06,1.96875 100.242,1.75 C100.424,1.53125 100.698,1.42188 101.063,1.42188 C101.354,1.42188 101.646,1.56771 101.938,1.85938 C102.229,2.07813 102.448,2.1875 102.594,2.1875 C102.813,2.1875 102.995,2.15104 103.141,2.07813 C103.286,2.00521 103.396,1.85938 103.469,1.64063 C103.688,1.27604 103.906,0.820313 104.125,0.273438 C104.344,-0.273438 104.526,-0.838542 104.672,-1.42188 L100.953,-11.0469 C100.88,-11.3385 100.716,-11.5755 100.461,-11.7578 C100.206,-11.9401 99.9323,-12.0313 99.6406,-12.0313 L99.2031,-12.0313 L99.2031,-12.6875 L103.797,-12.6875 L103.797,-12.0313 L103.359,-12.0313 C103.068,-12.0313 102.849,-11.9401 102.703,-11.7578 C102.557,-11.5755 102.521,-11.3021 102.594,-10.9375 L105.219,-3.5 M126.875,-12.3594 L126.875,-13.3438 L139.016,-13.3438 L139.016,-12.3594 L126.875,-12.3594 M126.875,-6.78125 L126.875,-7.76563 L139.016,-7.76563 L139.016,-6.78125 L126.875,-6.78125 M159.359,-0.328125 C158.047,-0.328125 157.026,-0.638021 156.297,-1.25781 C155.568,-1.8776 155.203,-2.58854 155.203,-3.39063 C155.203,-4.70313 155.768,-5.77865 156.898,-6.61719 C158.029,-7.45573 160.271,-8.05729 163.625,-8.42188 L163.625,-9.73438 C163.625,-10.4635 163.461,-11.0651 163.133,-11.5391 C162.805,-12.013 162.057,-12.25 160.891,-12.25 C159.651,-12.25 158.776,-12.0495 158.266,-11.6484 C157.755,-11.2474 157.573,-10.8281 157.719,-10.3906 C157.792,-10.2448 157.828,-10.099 157.828,-9.95313 C157.828,-9.80729 157.773,-9.625 157.664,-9.40625 C157.555,-9.1875 157.281,-9.07813 156.844,-9.07813 C156.552,-9.07813 156.315,-9.16927 156.133,-9.35156 C155.951,-9.53385 155.859,-9.80729 155.859,-10.1719 C155.859,-10.8281 156.333,-11.4479 157.281,-12.0313 C158.229,-12.6146 159.396,-12.9063 160.781,-12.9063 C162.24,-12.9063 163.333,-12.6328 164.063,-12.0859 C164.792,-11.5391 165.156,-10.7552 165.156,-9.73438 L165.156,-2.51563 C165.156,-1.93229 165.211,-1.58594 165.32,-1.47656 C165.43,-1.36719 165.63,-1.3125 165.922,-1.3125 C166.286,-1.3125 166.542,-1.47656 166.688,-1.80469 C166.833,-2.13281 166.906,-2.58854 166.906,-3.17188 L167.453,-3.17188 C167.453,-2.15104 167.271,-1.4401 166.906,-1.03906 C166.542,-0.638021 166.068,-0.4375 165.484,-0.4375 C164.974,-0.4375 164.573,-0.546875 164.281,-0.765625 C163.99,-0.984375 163.771,-1.34896 163.625,-1.85938 C162.896,-1.34896 162.221,-0.966146 161.602,-0.710938 C160.982,-0.455729 160.234,-0.328125 159.359,-0.328125 M157.063,-3.71875 C157.063,-3.0625 157.263,-2.46094 157.664,-1.91406 C158.065,-1.36719 158.703,-1.09375 159.578,-1.09375 C160.234,-1.09375 160.891,-1.22135 161.547,-1.47656 C162.203,-1.73177 162.896,-2.11458 163.625,-2.625 L163.625,-7.76563 C161.146,-7.47396 159.432,-6.98177 158.484,-6.28906 C157.536,-5.59635 157.063,-4.73958 157.063,-3.71875 M180.688,-21.9844 C179.01,-20.2344 177.753,-18.3568 176.914,-16.3516 C176.076,-14.3464 175.656,-12.25 175.656,-10.0625 C175.656,-7.80208 176.076,-5.6875 176.914,-3.71875 C177.753,-1.75 179.01,0.109375 180.688,1.85938 L180.141,2.40625 C178.099,0.583333 176.568,-1.36719 175.547,-3.44531 C174.526,-5.52344 174.016,-7.72917 174.016,-10.0625 C174.016,-12.3229 174.526,-14.4922 175.547,-16.5703 C176.568,-18.6484 178.099,-20.6354 180.141,-22.5313 L180.688,-21.9844 M189.328,-8 L191.297,-10.9375 C191.516,-11.2292 191.607,-11.4844 191.57,-11.7031 C191.534,-11.9219 191.26,-12.0313 190.75,-12.0313 L190.094,-12.0313 L190.094,-12.6875 L194.359,-12.6875 L194.359,-12.0313 L193.813,-12.0313 C193.667,-12.0313 193.484,-12.013 193.266,-11.9766 C193.047,-11.9401 192.865,-11.8125 192.719,-11.5938 L189.766,-7.21875 L192.828,-2.1875 C193.047,-1.82292 193.32,-1.54948 193.648,-1.36719 C193.977,-1.1849 194.214,-1.09375 194.359,-1.09375 L194.797,-1.09375 L194.797,-0.4375 L189.984,-0.4375 L189.984,-1.09375 L190.641,-1.09375 C191.078,-1.09375 191.315,-1.20313 191.352,-1.42188 C191.388,-1.64063 191.333,-1.89583 191.188,-2.1875 L188.891,-5.90625 L186.266,-2.07813 C186.193,-1.71354 186.211,-1.45833 186.32,-1.3125 C186.43,-1.16667 186.63,-1.09375 186.922,-1.09375 L187.25,-1.09375 L187.25,-0.4375 L182.984,-0.4375 L182.984,-1.09375 L183.641,-1.09375 C183.932,-1.09375 184.26,-1.20313 184.625,-1.42188 C184.99,-1.64063 185.281,-1.96875 185.5,-2.40625 L188.344,-6.71875 L185.5,-11.2656 C185.427,-11.4115 185.281,-11.5755 185.063,-11.7578 C184.844,-11.9401 184.552,-12.0313 184.188,-12.0313 L183.641,-12.0313 L183.641,-12.6875 L188.344,-12.6875 L188.344,-12.0313 L188.016,-12.0313 C187.651,-12.0313 187.432,-11.9219 187.359,-11.7031 C187.286,-11.4844 187.323,-11.2292 187.469,-10.9375 L189.328,-8 M196.875,-9.73438 L196.875,-10.7188 L209.016,-10.7188 L209.016,-9.73438 L196.875,-9.73438 M210.875,-0.4375 L210.875,-1.09375 L211.422,-1.09375 C211.786,-1.09375 212.042,-1.16667 212.188,-1.3125 C212.333,-1.45833 212.406,-1.67708 212.406,-1.96875 L212.406,-17.6094 C212.406,-17.901 212.333,-18.1198 212.188,-18.2656 C212.042,-18.4115 211.786,-18.4844 211.422,-18.4844 L210.766,-18.4844 L210.766,-19.1406 L211.969,-19.1406 C212.26,-19.1406 212.552,-19.2135 212.844,-19.3594 C213.135,-19.5052 213.427,-19.724 213.719,-20.0156 L213.938,-20.0156 L213.938,-10.7188 C214.594,-11.5208 215.268,-12.0859 215.961,-12.4141 C216.654,-12.7422 217.401,-12.9063 218.203,-12.9063 C219.297,-12.9063 220.135,-12.5964 220.719,-11.9766 C221.302,-11.3568 221.594,-10.3906 221.594,-9.07813 L221.594,-1.96875 C221.594,-1.67708 221.685,-1.45833 221.867,-1.3125 C222.049,-1.16667 222.286,-1.09375 222.578,-1.09375 L223.125,-1.09375 L223.125,-0.4375 L218.531,-0.4375 L218.531,-1.09375 L219.078,-1.09375 C219.443,-1.09375 219.698,-1.16667 219.844,-1.3125 C219.99,-1.45833 220.063,-1.67708 220.063,-1.96875 L220.063,-8.85938 C220.063,-10.099 219.862,-10.9193 219.461,-11.3203 C219.06,-11.7214 218.531,-11.9219 217.875,-11.9219 C217.292,-11.9219 216.654,-11.7396 215.961,-11.375 C215.268,-11.0104 214.594,-10.3906 213.938,-9.51563 L213.938,-1.96875 C213.938,-1.67708 214.029,-1.45833 214.211,-1.3125 C214.393,-1.16667 214.63,-1.09375 214.922,-1.09375 L215.469,-1.09375 L215.469,-0.4375 L210.875,-0.4375 M225.203,-21.9844 L225.75,-22.5313 C227.792,-20.6354 229.323,-18.6484 230.344,-16.5703 C231.365,-14.4922 231.875,-12.3229 231.875,-10.0625 C231.875,-7.72917 231.365,-5.52344 230.344,-3.44531 C229.323,-1.36719 227.792,0.583333 225.75,2.40625 L225.203,1.85938 C226.88,0.109375 228.138,-1.75 228.977,-3.71875 C229.815,-5.6875 230.234,-7.80208 230.234,-10.0625 C230.234,-12.25 229.815,-14.3464 228.977,-16.3516 C228.138,-18.3568 226.88,-20.2344 225.203,-21.9844 M245.875,-13.2344 L245,-11.1563 L238.328,-11.1563 L238.328,-11.5938 C240.516,-13.3438 242.01,-14.7656 242.813,-15.8594 C243.25,-16.5156 243.469,-17.1536 243.469,-17.7734 C243.469,-18.3932 243.268,-18.8854 242.867,-19.25 C242.466,-19.6146 241.992,-19.7969 241.445,-19.7969 C240.898,-19.7969 240.443,-19.6693 240.078,-19.4141 C239.714,-19.1589 239.422,-18.7396 239.203,-18.1563 L238.547,-18.1563 C238.693,-19.0313 239.057,-19.724 239.641,-20.2344 C240.224,-20.7448 240.99,-21 241.938,-21 C242.885,-21 243.651,-20.7448 244.234,-20.2344 C244.818,-19.724 245.109,-19.1589 245.109,-18.5391 C245.109,-17.9193 244.836,-17.1719 244.289,-16.2969 C243.742,-15.4219 242.484,-14.1458 240.516,-12.4688 L243.031,-12.4688 C243.833,-12.4688 244.362,-12.5234 244.617,-12.6328 C244.872,-12.7422 245.073,-12.9427 245.219,-13.2344 L245.875,-13.2344 M272.672,-10.7188 L272.672,-16.9531 L273.656,-16.9531 L273.656,-10.7188 L279.125,-10.7188 L279.125,-9.73438 L273.656,-9.73438 L273.656,-3.5 L272.672,-3.5 L272.672,-9.73438 L267.203,-9.73438 L267.203,-10.7188 L272.672,-10.7188 M301.328,-8.3125 L305.484,-1.85938 C305.703,-1.56771 305.904,-1.36719 306.086,-1.25781 C306.268,-1.14844 306.469,-1.09375 306.688,-1.09375 L307.125,-1.09375 L307.125,-0.4375 L302.641,-0.4375 L302.641,-1.09375 L302.969,-1.09375 C303.333,-1.09375 303.589,-1.14844 303.734,-1.25781 C303.88,-1.36719 303.844,-1.56771 303.625,-1.85938 L300.234,-7.23438 L298.047,-4.92188 L298.047,-1.96875 C298.047,-1.67708 298.138,-1.45833 298.32,-1.3125 C298.503,-1.16667 298.74,-1.09375 299.031,-1.09375 L299.578,-1.09375 L299.578,-0.4375 L294.984,-0.4375 L294.984,-1.09375 L295.531,-1.09375 C295.896,-1.09375 296.151,-1.16667 296.297,-1.3125 C296.443,-1.45833 296.516,-1.67708 296.516,-1.96875 L296.516,-17.6094 C296.516,-17.901 296.443,-18.1198 296.297,-18.2656 C296.151,-18.4115 295.896,-18.4844 295.531,-18.4844 L294.875,-18.4844 L294.875,-19.1406 L295.859,-19.1406 C296.297,-19.1406 296.68,-19.2135 297.008,-19.3594 C297.336,-19.5052 297.609,-19.724 297.828,-20.0156 L298.047,-20.0156 L298.047,-6.125 L302.641,-11.0469 C302.786,-11.3385 302.841,-11.5755 302.805,-11.7578 C302.768,-11.9401 302.604,-12.0313 302.313,-12.0313 L301.656,-12.0313 L301.656,-12.6875 L306.25,-12.6875 L306.25,-12.0313 L305.703,-12.0313 C305.484,-12.0313 305.211,-11.9766 304.883,-11.8672 C304.555,-11.7578 304.245,-11.5573 303.953,-11.2656 L301.328,-8.3125 M306.031,-1.09375"/>
</g>
</g>
</svg>
