<?xml version="1.0" encoding="UTF-8" standalone="no"?>
<svg width="127mm" height="79.375mm"
 viewBox="0 0 360 225"
 xmlns="http://www.w3.org/2000/svg" xmlns:xlink="http://www.w3.org/1999/xlink"  version="1.2" baseProfile="tiny">


<defs>
</defs>
<g fill="none" stroke="black" stroke-width="1" fill-rule="evenodd" stroke-linecap="square" stroke-linejoin="bevel" >



<g fill="#333333" fill-opacity="1" stroke="#333333" stroke-opacity="1" stroke-width="3" stroke-linecap="butt" stroke-linejoin="round" transform="matrix(0.5,0,0,0.5,0,0)"
font-family="SimSun" font-size="9" font-weight="400" font-style="normal" 
>
<polyline fill="none" points="360,375 75,60 " />
<polyline fill="none" points="360,375 645,60 " />
<polyline fill="none" points="75,60 645,60 " />
</g>

<g fill="#e74c3c" fill-opacity="1" stroke="#e74c3c" stroke-opacity="1" stroke-width="3" stroke-linecap="butt" stroke-linejoin="round" transform="matrix(0.5,0,0,0.5,0,0)"
font-family="SimSun" font-size="9" font-weight="400" font-style="normal" 
>
<polyline fill="none" points="360,375 360,60 " />
</g>

<g fill="#e74c3c" fill-opacity="1" stroke="#e74c3c" stroke-opacity="1" stroke-dasharray="12,12" stroke-dashoffset="0" stroke-width="3" stroke-linecap="butt" stroke-linejoin="round" transform="matrix(0.5,0,0,0.5,0,0)"
font-family="SimSun" font-size="9" font-weight="400" font-style="normal" 
>
<polyline fill="none" points="360,60 360,0 " />
</g>

<g fill="#2ecc71" fill-opacity="1" stroke="#2ecc71" stroke-opacity="1" stroke-dasharray="12,12" stroke-dashoffset="0" stroke-width="3" stroke-linecap="butt" stroke-linejoin="round" transform="matrix(0.5,0,0,0.5,0,0)"
font-family="SimSun" font-size="9" font-weight="400" font-style="normal" 
>
<polyline fill="none" points="75,60 129.286,0 " />
<polyline fill="none" points="645,60 590.714,0 " />
</g>

<g fill="#e74c3c" fill-opacity="1" stroke="#e74c3c" stroke-opacity="1" stroke-width="3" stroke-linecap="butt" stroke-linejoin="round" transform="matrix(0.5,0,0,0.5,0,0)"
font-family="SimSun" font-size="9" font-weight="400" font-style="normal" 
>
<polyline fill="none" points="367.5,217.5 352.5,217.5 " />
</g>

<g fill="#333333" fill-opacity="1" stroke="none" transform="matrix(0.5,0,0,0.5,0,0)"
font-family="SimSun" font-size="9" font-weight="400" font-style="normal" 
>
<circle cx="360" cy="375" r="6"/>
<circle cx="75" cy="60" r="6"/>
<circle cx="645" cy="60" r="6"/>
<circle cx="360" cy="60" r="6"/>
</g>

<g fill="#333333" fill-opacity="1" stroke="none" transform="matrix(0.5,0,0,0.5,176.5,206.25)"
font-family="SimSun" font-size="9" font-weight="400" font-style="normal" 
>
<path fill-rule="evenodd" d="M8.85938,-7.4375 L3.9375,-7.4375 L2.95313,-3.28125 C2.88021,-2.91667 2.84375,-2.625 2.84375,-2.40625 C2.84375,-2.11458 2.89844,-1.82292 3.00781,-1.53125 C3.11719,-1.23958 3.42708,-1.09375 3.9375,-1.09375 L4.26563,-1.09375 L4.26563,-0.4375 L0.21875,-0.4375 L0.21875,-1.09375 L0.546875,-1.09375 C0.838542,-1.09375 1.09375,-1.1849 1.3125,-1.36719 C1.53125,-1.54948 1.67708,-1.85938 1.75,-2.29688 L6.01563,-19.0313 L7.65625,-19.5781 L11.8125,-2.29688 C11.9583,-1.85938 12.1406,-1.54948 12.3594,-1.36719 C12.5781,-1.1849 12.8333,-1.09375 13.125,-1.09375 L13.4531,-1.09375 L13.4531,-0.4375 L8.75,-0.4375 L8.75,-1.09375 L9.1875,-1.09375 C9.625,-1.09375 9.88021,-1.1849 9.95313,-1.36719 C10.026,-1.54948 10.0625,-1.71354 10.0625,-1.85938 C10.0625,-2.15104 10.026,-2.40625 9.95313,-2.625 L8.85938,-7.4375 M6.5625,-17.1719 L6.45313,-17.1719 L4.15625,-8.09375 L8.75,-8.09375 L6.5625,-17.1719"/>
</g>

<g fill="#333333" fill-opacity="1" stroke="none" transform="matrix(0.5,0,0,0.5,20.5,21.75)"
font-family="SimSun" font-size="9" font-weight="400" font-style="normal" 
>
<path fill-rule="evenodd" d="M0.4375,-0.4375 L0.4375,-1.09375 L1.3125,-1.09375 C1.67708,-1.09375 1.93229,-1.16667 2.07813,-1.3125 C2.22396,-1.45833 2.29688,-1.67708 2.29688,-1.96875 L2.29688,-17.6094 C2.29688,-17.901 2.22396,-18.1198 2.07813,-18.2656 C1.93229,-18.4115 1.67708,-18.4844 1.3125,-18.4844 L0.65625,-18.4844 L0.65625,-19.1406 L7,-19.1406 C8.75,-19.1406 10.0443,-18.7943 10.8828,-18.1016 C11.7214,-17.4089 12.1406,-16.3333 12.1406,-14.875 C12.1406,-13.8542 11.9219,-13.0156 11.4844,-12.3594 C11.0469,-11.7031 10.1354,-11.1198 8.75,-10.6094 C10.4271,-10.099 11.5573,-9.36979 12.1406,-8.42188 C12.724,-7.47396 13.0156,-6.41667 13.0156,-5.25 C13.0156,-3.79167 12.5052,-2.625 11.4844,-1.75 C10.4635,-0.875 9.07813,-0.4375 7.32813,-0.4375 L0.4375,-0.4375 M7,-1.09375 C8.23958,-1.09375 9.20573,-1.47656 9.89844,-2.24219 C10.5911,-3.00781 10.9375,-4.08333 10.9375,-5.46875 C10.9375,-7.07292 10.5729,-8.25781 9.84375,-9.02344 C9.11458,-9.78906 8.02083,-10.1719 6.5625,-10.1719 L4.04688,-10.1719 L4.04688,-1.96875 C4.04688,-1.67708 4.13802,-1.45833 4.32031,-1.3125 C4.5026,-1.16667 4.73958,-1.09375 5.03125,-1.09375 L7,-1.09375 M10.2813,-14.875 C10.2813,-16.1875 9.91667,-17.1172 9.1875,-17.6641 C8.45833,-18.2109 7.51042,-18.4844 6.34375,-18.4844 L5.03125,-18.4844 C4.73958,-18.4844 4.5026,-18.4115 4.32031,-18.2656 C4.13802,-18.1198 4.04688,-17.901 4.04688,-17.6094 L4.04688,-10.8281 L6.89063,-10.8281 C7.69271,-10.8281 8.45833,-11.1563 9.1875,-11.8125 C9.91667,-12.4688 10.2813,-13.4896 10.2813,-14.875 "/>
</g>

<g fill="#333333" fill-opacity="1" stroke="none" transform="matrix(0.5,0,0,0.5,332.5,21.75)"
font-family="SimSun" font-size="9" font-weight="400" font-style="normal" 
>
<path fill-rule="evenodd" d="M7.54688,-0.21875 C5.50521,-0.21875 3.88281,-0.984375 2.67969,-2.51563 C1.47656,-4.04688 0.875,-6.45313 0.875,-9.73438 C0.875,-12.5052 1.51302,-14.8021 2.78906,-16.625 C4.0651,-18.4479 5.79688,-19.3594 7.98438,-19.3594 C8.49479,-19.3594 9.00521,-19.2865 9.51563,-19.1406 C10.026,-18.9219 10.4635,-18.8125 10.8281,-18.8125 C11.1198,-18.8125 11.3568,-18.849 11.5391,-18.9219 C11.7214,-18.9948 11.8854,-19.1406 12.0313,-19.3594 L13.0156,-14.5469 L12.3594,-14.3281 C11.9219,-15.7135 11.3385,-16.7708 10.6094,-17.5 C9.88021,-18.2292 8.93229,-18.5938 7.76563,-18.5938 C6.23438,-18.5938 5.04948,-17.7552 4.21094,-16.0781 C3.3724,-14.401 2.95313,-12.3229 2.95313,-9.84375 C2.95313,-7.14583 3.31771,-5.03125 4.04688,-3.5 C4.77604,-1.96875 5.97917,-1.20313 7.65625,-1.20313 C8.82292,-1.20313 9.82552,-1.6224 10.6641,-2.46094 C11.5026,-3.29948 12.0677,-4.41146 12.3594,-5.79688 L13.0156,-5.46875 C12.651,-3.9375 11.9766,-2.67969 10.9922,-1.69531 C10.0078,-0.710938 8.85938,-0.21875 7.54688,-0.21875 "/>
</g>

<g fill="#333333" fill-opacity="1" stroke="none" transform="matrix(0.5,0,0,0.5,165.25,21.75)"
font-family="SimSun" font-size="9" font-weight="400" font-style="normal" 
>
<path fill-rule="evenodd" d="M12.25,-1.96875 C12.25,-1.67708 12.3411,-1.45833 12.5234,-1.3125 C12.7057,-1.16667 12.9427,-1.09375 13.2344,-1.09375 L13.6719,-1.09375 L13.6719,-0.4375 L8.96875,-0.4375 L8.96875,-1.09375 L9.51563,-1.09375 C9.88021,-1.09375 10.1354,-1.16667 10.2813,-1.3125 C10.4271,-1.45833 10.5,-1.67708 10.5,-1.96875 L10.5,-16.2656 L10.2813,-16.2656 L6.5625,-0.4375 L5.90625,-0.4375 L2.51563,-15.9688 L2.29688,-15.9688 L2.29688,-1.96875 C2.29688,-1.67708 2.38802,-1.45833 2.57031,-1.3125 C2.7526,-1.16667 2.98958,-1.09375 3.28125,-1.09375 L3.60938,-1.09375 L3.60938,-0.4375 L0.328125,-0.4375 L0.328125,-1.09375 L0.65625,-1.09375 C1.02083,-1.09375 1.27604,-1.16667 1.42188,-1.3125 C1.56771,-1.45833 1.64063,-1.67708 1.64063,-1.96875 L1.64063,-17.6094 C1.64063,-17.901 1.56771,-18.1198 1.42188,-18.2656 C1.27604,-18.4115 1.02083,-18.4844 0.65625,-18.4844 L0.21875,-18.4844 L0.21875,-19.1406 L3.39063,-19.1406 L6.5625,-4.54688 L6.78125,-4.54688 L10.1719,-19.1406 L13.6719,-19.1406 L13.6719,-18.4844 L13.2344,-18.4844 C12.9427,-18.4844 12.7057,-18.4115 12.5234,-18.2656 C12.3411,-18.1198 12.25,-17.901 12.25,-17.6094 L12.25,-1.96875"/>
</g>

<g fill="#333333" fill-opacity="1" stroke="none" transform="matrix(0.5,0,0,0.5,176.5,-135.75)"
font-family="SimSun" font-size="9" font-weight="400" font-style="normal" 
>
<path fill-rule="evenodd" d="M10.9375,-9.95313 C10.9375,-13.0885 10.4635,-15.2943 9.51563,-16.5703 C8.56771,-17.8464 7.25521,-18.4844 5.57813,-18.4844 C5.06771,-18.4844 4.6849,-18.4115 4.42969,-18.2656 C4.17448,-18.1198 4.04688,-17.901 4.04688,-17.6094 L4.04688,-1.96875 C4.04688,-1.67708 4.15625,-1.45833 4.375,-1.3125 C4.59375,-1.16667 4.88542,-1.09375 5.25,-1.09375 C6.85417,-1.09375 8.20313,-1.69531 9.29688,-2.89844 C10.3906,-4.10156 10.9375,-6.45313 10.9375,-9.95313 M2.29688,-17.6094 C2.29688,-17.901 2.22396,-18.1198 2.07813,-18.2656 C1.93229,-18.4115 1.67708,-18.4844 1.3125,-18.4844 L0.65625,-18.4844 L0.65625,-19.1406 L5.57813,-19.1406 C7.83854,-19.1406 9.64323,-18.4115 10.9922,-16.9531 C12.3411,-15.4948 13.0156,-13.2344 13.0156,-10.1719 C13.0156,-6.81771 12.3594,-4.35677 11.0469,-2.78906 C9.73438,-1.22135 7.80208,-0.4375 5.25,-0.4375 L0.546875,-0.4375 L0.546875,-1.09375 L1.3125,-1.09375 C1.67708,-1.09375 1.93229,-1.16667 2.07813,-1.3125 C2.22396,-1.45833 2.29688,-1.67708 2.29688,-1.96875 L2.29688,-17.6094"/>
</g>
</g>
</svg>
