<?xml version="1.0" encoding="UTF-8" standalone="no"?>
<svg width="127mm" height="79.375mm"
 viewBox="0 0 360 225"
 xmlns="http://www.w3.org/2000/svg" xmlns:xlink="http://www.w3.org/1999/xlink"  version="1.2" baseProfile="tiny">


<defs>
</defs>
<g fill="none" stroke="black" stroke-width="1" fill-rule="evenodd" stroke-linecap="square" stroke-linejoin="bevel" >



<g fill="#333399" fill-opacity="1" stroke="#333399" stroke-opacity="1" stroke-width="4" stroke-linecap="butt" stroke-linejoin="round" transform="matrix(0.5,0,0,0.5,0,0)"
font-family="SimSun" font-size="9" font-weight="400" font-style="normal" 
>
<polyline fill="none" points="30,195 690,195 " />
</g>

<g fill="#2ecc71" fill-opacity="1" stroke="#2ecc71" stroke-opacity="1" stroke-width="4" stroke-linecap="butt" stroke-linejoin="round" transform="matrix(0.5,0,0,0.5,0,0)"
font-family="SimSun" font-size="9" font-weight="400" font-style="normal" 
>
<polyline fill="none" points="120,75 360,195 " />
<polyline fill="none" points="360,195 600,75 " />
</g>

<g fill="#e74c3c" fill-opacity="1" stroke="#e74c3c" stroke-opacity="1" stroke-dasharray="12,12" stroke-dashoffset="0" stroke-width="3" stroke-linecap="butt" stroke-linejoin="round" transform="matrix(0.5,0,0,0.5,0,0)"
font-family="SimSun" font-size="9" font-weight="400" font-style="normal" 
>
<polyline fill="none" points="120,315 360,195 " />
</g>

<g fill="#999999" fill-opacity="1" stroke="#999999" stroke-opacity="1" stroke-dasharray="12,12" stroke-dashoffset="0" stroke-width="3" stroke-linecap="butt" stroke-linejoin="round" transform="matrix(0.5,0,0,0.5,0,0)"
font-family="SimSun" font-size="9" font-weight="400" font-style="normal" 
>
<polyline fill="none" points="120,75 120,315 " />
</g>

<g fill="none" stroke="#999999" stroke-opacity="1" stroke-width="3" stroke-linecap="butt" stroke-linejoin="round" transform="matrix(0.5,0,0,0.5,0,0)"
font-family="SimSun" font-size="9" font-weight="400" font-style="normal" 
>
<polyline fill="none" points="97.5,172.5 112.5,172.5 112.5,187.5 " />
</g>

<g fill="#e74c3c" fill-opacity="1" stroke="none" transform="matrix(0.5,0,0,0.5,0,0)"
font-family="SimSun" font-size="9" font-weight="400" font-style="normal" 
>
<circle cx="120" cy="75" r="6"/>
<circle cx="600" cy="75" r="6"/>
</g>

<g fill="#2ecc71" fill-opacity="1" stroke="none" transform="matrix(0.5,0,0,0.5,0,0)"
font-family="SimSun" font-size="9" font-weight="400" font-style="normal" 
>
<circle cx="360" cy="195" r="6"/>
</g>

<g fill="#aaaaaa" fill-opacity="1" stroke="none" transform="matrix(0.5,0,0,0.5,0,0)"
font-family="SimSun" font-size="9" font-weight="400" font-style="normal" 
>
<circle cx="120" cy="315" r="6"/>
</g>

<g fill="#333333" fill-opacity="1" stroke="none" transform="matrix(0.5,0,0,0.5,56.5,54)"
font-family="SimSun" font-size="9" font-weight="400" font-style="normal" 
>
<path fill-rule="evenodd" d="M8.85938,-7.4375 L3.9375,-7.4375 L2.95313,-3.28125 C2.88021,-2.91667 2.84375,-2.625 2.84375,-2.40625 C2.84375,-2.11458 2.89844,-1.82292 3.00781,-1.53125 C3.11719,-1.23958 3.42708,-1.09375 3.9375,-1.09375 L4.26563,-1.09375 L4.26563,-0.4375 L0.21875,-0.4375 L0.21875,-1.09375 L0.546875,-1.09375 C0.838542,-1.09375 1.09375,-1.1849 1.3125,-1.36719 C1.53125,-1.54948 1.67708,-1.85938 1.75,-2.29688 L6.01563,-19.0313 L7.65625,-19.5781 L11.8125,-2.29688 C11.9583,-1.85938 12.1406,-1.54948 12.3594,-1.36719 C12.5781,-1.1849 12.8333,-1.09375 13.125,-1.09375 L13.4531,-1.09375 L13.4531,-0.4375 L8.75,-0.4375 L8.75,-1.09375 L9.1875,-1.09375 C9.625,-1.09375 9.88021,-1.1849 9.95313,-1.36719 C10.026,-1.54948 10.0625,-1.71354 10.0625,-1.85938 C10.0625,-2.15104 10.026,-2.40625 9.95313,-2.625 L8.85938,-7.4375 M6.5625,-17.1719 L6.45313,-17.1719 L4.15625,-8.09375 L8.75,-8.09375 L6.5625,-17.1719"/>
</g>

<g fill="#333333" fill-opacity="1" stroke="none" transform="matrix(0.5,0,0,0.5,307.75,54)"
font-family="SimSun" font-size="9" font-weight="400" font-style="normal" 
>
<path fill-rule="evenodd" d="M0.4375,-0.4375 L0.4375,-1.09375 L1.3125,-1.09375 C1.67708,-1.09375 1.93229,-1.16667 2.07813,-1.3125 C2.22396,-1.45833 2.29688,-1.67708 2.29688,-1.96875 L2.29688,-17.6094 C2.29688,-17.901 2.22396,-18.1198 2.07813,-18.2656 C1.93229,-18.4115 1.67708,-18.4844 1.3125,-18.4844 L0.65625,-18.4844 L0.65625,-19.1406 L7,-19.1406 C8.75,-19.1406 10.0443,-18.7943 10.8828,-18.1016 C11.7214,-17.4089 12.1406,-16.3333 12.1406,-14.875 C12.1406,-13.8542 11.9219,-13.0156 11.4844,-12.3594 C11.0469,-11.7031 10.1354,-11.1198 8.75,-10.6094 C10.4271,-10.099 11.5573,-9.36979 12.1406,-8.42188 C12.724,-7.47396 13.0156,-6.41667 13.0156,-5.25 C13.0156,-3.79167 12.5052,-2.625 11.4844,-1.75 C10.4635,-0.875 9.07813,-0.4375 7.32813,-0.4375 L0.4375,-0.4375 M7,-1.09375 C8.23958,-1.09375 9.20573,-1.47656 9.89844,-2.24219 C10.5911,-3.00781 10.9375,-4.08333 10.9375,-5.46875 C10.9375,-7.07292 10.5729,-8.25781 9.84375,-9.02344 C9.11458,-9.78906 8.02083,-10.1719 6.5625,-10.1719 L4.04688,-10.1719 L4.04688,-1.96875 C4.04688,-1.67708 4.13802,-1.45833 4.32031,-1.3125 C4.5026,-1.16667 4.73958,-1.09375 5.03125,-1.09375 L7,-1.09375 M10.2813,-14.875 C10.2813,-16.1875 9.91667,-17.1172 9.1875,-17.6641 C8.45833,-18.2109 7.51042,-18.4844 6.34375,-18.4844 L5.03125,-18.4844 C4.73958,-18.4844 4.5026,-18.4115 4.32031,-18.2656 C4.13802,-18.1198 4.04688,-17.901 4.04688,-17.6094 L4.04688,-10.8281 L6.89063,-10.8281 C7.69271,-10.8281 8.45833,-11.1563 9.1875,-11.8125 C9.91667,-12.4688 10.2813,-13.4896 10.2813,-14.875 "/>
</g>

<g fill="#333333" fill-opacity="1" stroke="none" transform="matrix(0.5,0,0,0.5,176.5,111.75)"
font-family="SimSun" font-size="9" font-weight="400" font-style="normal" 
>
<path fill-rule="evenodd" d="M4.15625,-9.1875 L4.15625,-1.96875 C4.15625,-1.67708 4.2474,-1.45833 4.42969,-1.3125 C4.61198,-1.16667 4.84896,-1.09375 5.14063,-1.09375 L5.90625,-1.09375 L5.90625,-0.4375 L0.65625,-0.4375 L0.65625,-1.09375 L1.42188,-1.09375 C1.78646,-1.09375 2.04167,-1.16667 2.1875,-1.3125 C2.33333,-1.45833 2.40625,-1.67708 2.40625,-1.96875 L2.40625,-17.6094 C2.40625,-17.901 2.33333,-18.1198 2.1875,-18.2656 C2.04167,-18.4115 1.78646,-18.4844 1.42188,-18.4844 L0.765625,-18.4844 L0.765625,-19.1406 L7.21875,-19.1406 C9.04167,-19.1406 10.4453,-18.6849 11.4297,-17.7734 C12.4141,-16.862 12.9063,-15.7135 12.9063,-14.3281 C12.9063,-12.651 12.3776,-11.375 11.3203,-10.5 C10.263,-9.625 9.00521,-9.1875 7.54688,-9.1875 L4.15625,-9.1875 M6.89063,-9.84375 C7.98438,-9.84375 8.95052,-10.1719 9.78906,-10.8281 C10.6276,-11.4844 11.0469,-12.6146 11.0469,-14.2188 C11.0469,-15.6771 10.7005,-16.7526 10.0078,-17.4453 C9.3151,-18.138 8.20313,-18.4844 6.67188,-18.4844 L5.14063,-18.4844 C4.84896,-18.4844 4.61198,-18.4115 4.42969,-18.2656 C4.2474,-18.1198 4.15625,-17.901 4.15625,-17.6094 L4.15625,-9.84375 L6.89063,-9.84375"/>
</g>

<g fill="#333333" fill-opacity="1" stroke="none" transform="matrix(0.5,0,0,0.5,53,149.25)"
font-family="SimSun" font-size="9" font-weight="400" font-style="normal" 
>
<path fill-rule="evenodd" d="M8.85938,-7.4375 L3.9375,-7.4375 L2.95313,-3.28125 C2.88021,-2.91667 2.84375,-2.625 2.84375,-2.40625 C2.84375,-2.11458 2.89844,-1.82292 3.00781,-1.53125 C3.11719,-1.23958 3.42708,-1.09375 3.9375,-1.09375 L4.26563,-1.09375 L4.26563,-0.4375 L0.21875,-0.4375 L0.21875,-1.09375 L0.546875,-1.09375 C0.838542,-1.09375 1.09375,-1.1849 1.3125,-1.36719 C1.53125,-1.54948 1.67708,-1.85938 1.75,-2.29688 L6.01563,-19.0313 L7.65625,-19.5781 L11.8125,-2.29688 C11.9583,-1.85938 12.1406,-1.54948 12.3594,-1.36719 C12.5781,-1.1849 12.8333,-1.09375 13.125,-1.09375 L13.4531,-1.09375 L13.4531,-0.4375 L8.75,-0.4375 L8.75,-1.09375 L9.1875,-1.09375 C9.625,-1.09375 9.88021,-1.1849 9.95313,-1.36719 C10.026,-1.54948 10.0625,-1.71354 10.0625,-1.85938 C10.0625,-2.15104 10.026,-2.40625 9.95313,-2.625 L8.85938,-7.4375 M6.5625,-17.1719 L6.45313,-17.1719 L4.15625,-8.09375 L8.75,-8.09375 L6.5625,-17.1719 M15.9688,-21.1094 C15.9688,-21.401 16.0964,-21.6927 16.3516,-21.9844 C16.6068,-22.276 16.9896,-22.4219 17.5,-22.4219 C18.0833,-22.4219 18.5391,-22.1849 18.8672,-21.7109 C19.1953,-21.237 19.3594,-20.7448 19.3594,-20.2344 C19.3594,-19.2135 19.0677,-18.2656 18.4844,-17.3906 C17.901,-16.5156 17.0625,-15.8594 15.9688,-15.4219 L15.5313,-15.9688 C16.2604,-16.4063 16.8073,-16.862 17.1719,-17.3359 C17.5365,-17.8099 17.7188,-18.3021 17.7188,-18.8125 C17.7188,-19.1771 17.4271,-19.5052 16.8438,-19.7969 C16.2604,-20.0885 15.9688,-20.526 15.9688,-21.1094 "/>
</g>

<g fill="#333399" fill-opacity="1" stroke="none" transform="matrix(0.5,0,0,0.5,157.25,113.5)"
font-family="SimSun" font-size="9" font-weight="400" font-style="normal" 
>
<path fill-rule="evenodd" d="M3.76563,-17.7813 C4.36979,-17.7813 4.94271,-17.849 5.48438,-17.9844 C6.02604,-18.1198 6.53646,-18.3229 7.01563,-18.5938 L7.21875,-18.5938 L7.21875,-1.82813 C7.21875,-1.55729 7.30208,-1.35417 7.46875,-1.21875 C7.63542,-1.08333 7.85417,-1.01563 8.125,-1.01563 L10.4688,-1.01563 L10.4688,-0.40625 L2.54688,-0.40625 L2.54688,-1.01563 L4.875,-1.01563 C5.21875,-1.01563 5.45833,-1.08333 5.59375,-1.21875 C5.72917,-1.35417 5.79688,-1.55729 5.79688,-1.82813 L5.79688,-16.3594 C5.79688,-16.6302 5.72917,-16.8333 5.59375,-16.9688 C5.45833,-17.1042 5.21875,-17.1719 4.875,-17.1719 L2.64063,-17.1719 L2.64063,-17.7813 L3.76563,-17.7813 M33.6719,-0.8125 C34.724,0 35.1823,0.473958 35.0469,0.609375 C34.9115,0.744792 34.2682,0.421875 33.1172,-0.359375 C31.9661,-1.14063 30.8646,-2.17448 29.8125,-3.46094 C28.7604,-4.7474 28.151,-6.4401 27.9844,-8.53906 C27.8177,-10.638 28.2422,-12.5156 29.2578,-14.1719 C30.2734,-15.8281 31.474,-17.1484 32.8594,-18.1328 C34.2448,-19.1172 34.9557,-19.5234 34.9922,-19.3516 C35.0286,-19.1797 34.5729,-18.724 33.625,-17.9844 C32.6771,-17.1719 31.7448,-16.0547 30.8281,-14.6328 C29.9115,-13.2109 29.4531,-11.3828 29.4531,-9.14844 C29.4531,-6.91406 29.8932,-5.16927 30.7734,-3.91406 C31.6536,-2.65885 32.6198,-1.625 33.6719,-0.8125 M55.25,-0.40625 C57.2813,-0.135417 58.4323,-0.0182292 58.7031,-0.0546875 C58.974,-0.0911458 59.1094,-0.34375 59.1094,-0.8125 L59.1094,-17.7813 L50.2813,-17.7813 C49.3958,-17.7813 48.5833,-17.6771 47.8438,-17.4688 L46.9219,-18.3906 L60.6406,-18.3906 L61.9531,-19.6094 L63.6875,-17.7813 L60.4375,-17.7813 L60.4375,-0.109375 C60.4375,0.505208 60.3021,1 60.0313,1.375 C59.7604,1.75 59.2188,2.07292 58.4063,2.34375 C58,1.26042 56.9479,0.479167 55.25,0 L55.25,-0.40625 M48.6563,-3.25 C48.7188,-4.46875 48.75,-6.34896 48.75,-8.89063 C48.75,-11.4323 48.7188,-13.2083 48.6563,-14.2188 L50.1719,-13.4063 L53.9375,-13.4063 L54.9531,-14.4219 L56.2656,-13.1094 L55.3594,-12.3906 C55.3594,-8.40104 55.3906,-5.86458 55.4531,-4.78125 L54.1406,-4.0625 L54.1406,-5.79688 L50.0781,-5.79688 L50.0781,-3.85938 L48.6563,-3.25 M50.0781,-12.7969 L50.0781,-6.40625 L54.1406,-6.40625 L54.1406,-12.7969 L50.0781,-12.7969 M47.3281,-15.9531 C45.4323,-9.31771 44.3672,-5.57552 44.1328,-4.72656 C43.8984,-3.8776 43.7969,-2.84375 43.8281,-1.625 C43.8594,-0.40625 43.9115,0.442708 43.9844,0.921875 C43.9844,1.19271 43.8125,1.32813 43.4688,1.32813 C43.1979,1.32813 42.8594,1.26042 42.4531,1.125 C42.0469,0.989583 41.8438,0.682292 41.8438,0.203125 C41.8438,-0.140625 41.9479,-0.651042 42.1563,-1.32813 C42.3542,-2.00521 42.4531,-2.54688 42.4531,-2.95313 C42.4531,-3.42188 42.3021,-3.79167 42,-4.0625 C41.6979,-4.33333 41.0365,-4.60417 40.0156,-4.875 L40.0156,-5.28125 C41.2344,-5.14583 41.9974,-5.09635 42.3047,-5.13281 C42.612,-5.16927 42.9505,-5.47396 43.3203,-6.04688 C43.6901,-6.61979 44.8906,-9.95313 46.9219,-16.0469 L47.3281,-15.9531 M40.0156,-15.2344 C42.0469,-14.151 43.1146,-13.2552 43.2188,-12.5469 C43.3229,-11.8385 43.2396,-11.3646 42.9688,-11.125 C42.6979,-10.8854 42.526,-10.7656 42.4531,-10.7656 C42.1823,-10.7656 41.9115,-11.1719 41.6406,-11.9844 C41.3073,-13.0052 40.7344,-13.9896 39.9219,-14.9375 L40.0156,-15.2344 M42.1563,-20.2188 C43.9792,-19.2708 44.9922,-18.5599 45.1953,-18.0859 C45.3984,-17.612 45.5,-17.3073 45.5,-17.1719 C45.5,-16.901 45.3828,-16.612 45.1484,-16.3047 C44.9141,-15.9974 44.7292,-15.8438 44.5938,-15.8438 C44.3854,-15.8438 44.1823,-16.151 43.9844,-16.7656 C43.6406,-17.6406 42.9635,-18.724 41.9531,-20.0156 L42.1563,-20.2188 M74.5,-3.55469 C73.3854,-2.13281 72.1667,-1.03125 70.8438,-0.25 C69.5208,0.53125 68.8438,0.835938 68.8125,0.664063 C68.7813,0.492188 69.2708,0.03125 70.2813,-0.71875 C71.2292,-1.39583 72.2292,-2.52865 73.2813,-4.11719 C74.3333,-5.70573 74.7917,-7.54948 74.6563,-9.64844 C74.5208,-11.7474 73.9948,-13.4922 73.0781,-14.8828 C72.1615,-16.2734 71.2292,-17.375 70.2813,-18.1875 C69.2708,-19 68.7813,-19.4896 68.8125,-19.6563 C68.8438,-19.8229 69.487,-19.4844 70.7422,-18.6406 C71.9974,-17.7969 73.2344,-16.5443 74.4531,-14.8828 C75.6719,-13.2214 76.263,-11.2734 76.2266,-9.03906 C76.1901,-6.80469 75.6146,-4.97656 74.5,-3.55469 "/>
</g>
</g>
</svg>
