<?xml version="1.0" encoding="UTF-8" standalone="no"?>
<svg width="127mm" height="79.375mm"
 viewBox="0 0 360 225"
 xmlns="http://www.w3.org/2000/svg" xmlns:xlink="http://www.w3.org/1999/xlink"  version="1.2" baseProfile="tiny">


<defs>
</defs>
<g fill="none" stroke="black" stroke-width="1" fill-rule="evenodd" stroke-linecap="square" stroke-linejoin="bevel" >



<g fill="none" stroke="#e74c3c" stroke-opacity="1" stroke-width="5" stroke-linecap="butt" stroke-linejoin="round" transform="matrix(0.5,0,0,0.5,0,0)"
font-family="SimSun" font-size="9" font-weight="400" font-style="normal" 
>
<polyline fill="none" points="217.5,341.913 227.105,335.814 236.163,328.928 244.609,321.303 252.382,312.994 259.428,304.06 265.697,294.564 271.144,284.575 275.73,274.162 279.424,263.4 282.198,252.365 284.032,241.135 284.915,229.791 284.839,218.413 283.806,207.082 281.822,195.878 278.901,184.881 275.065,174.169 270.34,163.818 264.761,153.902 258.366,144.49 251.202,135.651 243.318,127.446 234.772,119.935 225.623,113.169 215.938,107.198 205.784,102.064 195.233,97.8035 184.362,94.4463 173.246,92.0164 161.965,90.5313 150.599,90.0013 139.229,90.4304 127.935,91.8154 116.798,94.1465 105.897,97.4071 95.3095,101.574 85.1103,106.618 75.372,112.503 66.1638,119.187 57.5512,126.622 49.5953,134.756 42.3527,143.532 35.8747,152.886 30.2075,162.753 25.3912,173.061 21.4601,183.739 18.4421,194.709 16.3586,205.895 15.2245,217.217 15.0478,228.594 15.8298,239.945 17.5649,251.19 20.2407,262.249 23.8383,273.044 28.3321,283.497 33.6902,293.535 39.8745,303.086 46.8412,312.082 54.5406,320.459 " />
</g>

<g fill="none" stroke="#2ecc71" stroke-opacity="1" stroke-width="5" stroke-linecap="butt" stroke-linejoin="round" transform="matrix(0.5,0,0,0.5,0,0)"
font-family="SimSun" font-size="9" font-weight="400" font-style="normal" 
>
<polyline fill="none" points="218.516,255.505 220.841,249.627 222.664,243.574 223.97,237.39 224.75,231.117 225,224.8 224.717,218.485 223.903,212.217 222.564,206.039 220.709,199.996 218.353,194.13 215.51,188.484 212.203,183.097 208.453,178.008 204.288,173.253 199.738,168.865 194.834,164.876 189.612,161.314 184.109,158.205 178.363,155.57 172.415,153.428 166.309,151.795 160.086,150.681 153.792,150.096 147.471,150.043 141.168,150.522 134.928,151.53 128.795,153.06 122.812,155.101 117.022,157.639 111.467,160.655 106.186,164.129 101.216,168.034 96.5918,172.345 92.3475,177.029 88.5127,182.054 85.1148,187.385 82.1777,192.982 79.7224,198.807 77.7664,204.818 76.3235,210.973 75.4039,217.227 75.0143,223.536 75.1573,229.855 75.832,236.141 77.0336,242.347 78.7535,248.429 80.9795,254.346 83.6958,260.054 86.8831,265.512 90.5188,270.684 94.577,275.53 99.0289,280.018 103.843,284.114 108.985,287.791 114.418,291.022 120.104,293.784 126.002,296.057 132.071,297.826 138.267,299.077 " />
</g>

<g fill="#cccccc" fill-opacity="1" stroke="#cccccc" stroke-opacity="1" stroke-dasharray="12,12" stroke-dashoffset="0" stroke-width="3" stroke-linecap="butt" stroke-linejoin="round" transform="matrix(0.5,0,0,0.5,0,0)"
font-family="SimSun" font-size="9" font-weight="400" font-style="normal" 
>
<polyline fill="none" points="150,225 217.5,341.913 " />
<polyline fill="none" points="150,225 218.516,255.505 " />
</g>

<g fill="#999999" fill-opacity="1" stroke="#999999" stroke-opacity="1" stroke-dasharray="8,3,2,3" stroke-dashoffset="0" stroke-width="2" stroke-linecap="butt" stroke-linejoin="round" transform="matrix(0.5,0,0,0.5,0,0)"
font-family="SimSun" font-size="9" font-weight="400" font-style="normal" 
>
<polyline fill="none" points="217.5,341.913 218.516,255.505 " />
</g>

<g fill="#cccccc" fill-opacity="1" stroke="#cccccc" stroke-opacity="1" stroke-dasharray="12,12" stroke-dashoffset="0" stroke-width="3" stroke-linecap="butt" stroke-linejoin="round" transform="matrix(0.5,0,0,0.5,0,0)"
font-family="SimSun" font-size="9" font-weight="400" font-style="normal" 
>
<polyline fill="none" points="150,225 284.815,232.065 " />
<polyline fill="none" points="150,225 212.9,184.152 " />
<polyline fill="none" points="150,225 229.351,115.783 " />
<polyline fill="none" points="150,225 150,150 " />
</g>

<g fill="#999999" fill-opacity="1" stroke="#999999" stroke-opacity="1" stroke-dasharray="8,3,2,3" stroke-dashoffset="0" stroke-width="2" stroke-linecap="butt" stroke-linejoin="round" transform="matrix(0.5,0,0,0.5,0,0)"
font-family="SimSun" font-size="9" font-weight="400" font-style="normal" 
>
<polyline fill="none" points="229.351,115.783 150,150 " />
</g>

<g fill="#cccccc" fill-opacity="1" stroke="#cccccc" stroke-opacity="1" stroke-dasharray="12,12" stroke-dashoffset="0" stroke-width="3" stroke-linecap="butt" stroke-linejoin="round" transform="matrix(0.5,0,0,0.5,0,0)"
font-family="SimSun" font-size="9" font-weight="400" font-style="normal" 
>
<polyline fill="none" points="150,225 101.62,98.9667 " />
<polyline fill="none" points="150,225 87.0997,184.152 " />
<polyline fill="none" points="150,225 17.9501,196.932 " />
<polyline fill="none" points="150,225 81.4841,255.505 " />
<polyline fill="none" points="150,225 54.5406,320.459 " />
<polyline fill="none" points="150,225 138.267,299.077 " />
</g>

<g fill="#e74c3c" fill-opacity="1" stroke="none" transform="matrix(0.5,0,0,0.5,0,0)"
font-family="SimSun" font-size="9" font-weight="400" font-style="normal" 
>
<circle cx="217.5" cy="341.913" r="8"/>
</g>

<g fill="#2ecc71" fill-opacity="1" stroke="none" transform="matrix(0.5,0,0,0.5,0,0)"
font-family="SimSun" font-size="9" font-weight="400" font-style="normal" 
>
<circle cx="218.516" cy="255.505" r="8"/>
</g>

<g fill="#e74c3c" fill-opacity="1" stroke="none" transform="matrix(0.5,0,0,0.5,0,0)"
font-family="SimSun" font-size="9" font-weight="400" font-style="normal" 
>
<circle cx="284.815" cy="232.065" r="8"/>
</g>

<g fill="#2ecc71" fill-opacity="1" stroke="none" transform="matrix(0.5,0,0,0.5,0,0)"
font-family="SimSun" font-size="9" font-weight="400" font-style="normal" 
>
<circle cx="212.9" cy="184.152" r="8"/>
</g>

<g fill="#e74c3c" fill-opacity="1" stroke="none" transform="matrix(0.5,0,0,0.5,0,0)"
font-family="SimSun" font-size="9" font-weight="400" font-style="normal" 
>
<circle cx="229.351" cy="115.783" r="8"/>
</g>

<g fill="#2ecc71" fill-opacity="1" stroke="none" transform="matrix(0.5,0,0,0.5,0,0)"
font-family="SimSun" font-size="9" font-weight="400" font-style="normal" 
>
<circle cx="150" cy="150" r="8"/>
</g>

<g fill="#e74c3c" fill-opacity="1" stroke="none" transform="matrix(0.5,0,0,0.5,0,0)"
font-family="SimSun" font-size="9" font-weight="400" font-style="normal" 
>
<circle cx="101.62" cy="98.9667" r="8"/>
</g>

<g fill="#2ecc71" fill-opacity="1" stroke="none" transform="matrix(0.5,0,0,0.5,0,0)"
font-family="SimSun" font-size="9" font-weight="400" font-style="normal" 
>
<circle cx="87.0997" cy="184.152" r="8"/>
</g>

<g fill="#e74c3c" fill-opacity="1" stroke="none" transform="matrix(0.5,0,0,0.5,0,0)"
font-family="SimSun" font-size="9" font-weight="400" font-style="normal" 
>
<circle cx="17.9501" cy="196.932" r="8"/>
</g>

<g fill="#2ecc71" fill-opacity="1" stroke="none" transform="matrix(0.5,0,0,0.5,0,0)"
font-family="SimSun" font-size="9" font-weight="400" font-style="normal" 
>
<circle cx="81.4841" cy="255.505" r="8"/>
</g>

<g fill="#e74c3c" fill-opacity="1" stroke="none" transform="matrix(0.5,0,0,0.5,0,0)"
font-family="SimSun" font-size="9" font-weight="400" font-style="normal" 
>
<circle cx="54.5406" cy="320.459" r="8"/>
</g>

<g fill="#2ecc71" fill-opacity="1" stroke="none" transform="matrix(0.5,0,0,0.5,0,0)"
font-family="SimSun" font-size="9" font-weight="400" font-style="normal" 
>
<circle cx="138.267" cy="299.077" r="8"/>
</g>

<g fill="#333333" fill-opacity="1" stroke="none" transform="matrix(0.5,0,0,0.5,0,0)"
font-family="SimSun" font-size="9" font-weight="400" font-style="normal" 
>
<circle cx="150" cy="225" r="10"/>
</g>

<g fill="#333333" fill-opacity="1" stroke="none" transform="matrix(0.5,0,0,0.5,57.75,131.25)"
font-family="SimSun" font-size="9" font-weight="400" font-style="normal" 
>
<path fill-rule="evenodd" d="M3.28125,-10.5469 C3.28125,-7.19271 3.69271,-4.7526 4.51563,-3.22656 C5.33854,-1.70052 6.375,-0.9375 7.625,-0.9375 C8.94792,-0.9375 10,-1.66146 10.7813,-3.10938 C11.5625,-4.55729 11.9531,-7.03646 11.9531,-10.5469 C11.9531,-13.3594 11.6224,-15.625 10.9609,-17.3438 C10.2995,-19.0625 9.1875,-19.9219 7.625,-19.9219 C6.29167,-19.9219 5.23438,-19.1406 4.45313,-17.5781 C3.67188,-16.0156 3.28125,-13.6719 3.28125,-10.5469 M14.1875,-10.5469 C14.1875,-7.34896 13.5625,-4.83073 12.3125,-2.99219 C11.0625,-1.15365 9.5,-0.234375 7.625,-0.234375 C5.82292,-0.234375 4.27865,-1.17188 2.99219,-3.04688 C1.70573,-4.92188 1.0625,-7.42188 1.0625,-10.5469 C1.0625,-13.599 1.66667,-16.0625 2.875,-17.9375 C4.08333,-19.8125 5.66667,-20.75 7.625,-20.75 C9.65625,-20.75 11.2578,-19.7526 12.4297,-17.7578 C13.6016,-15.763 14.1875,-13.3594 14.1875,-10.5469 "/>
</g>

<g fill="#e74c3c" fill-opacity="1" stroke="none" transform="matrix(0.5,0,0,0.5,84.4255,48.1414)"
font-family="SimSun" font-size="9" font-weight="400" font-style="normal" 
>
<path fill-rule="evenodd" d="M3.26563,-7.21875 L3.26563,-1.54688 C3.26563,-1.31771 3.33854,-1.14583 3.48438,-1.03125 C3.63021,-0.916667 3.81771,-0.859375 4.04688,-0.859375 L4.64063,-0.859375 L4.64063,-0.34375 L0.515625,-0.34375 L0.515625,-0.859375 L1.125,-0.859375 C1.40625,-0.859375 1.60417,-0.916667 1.71875,-1.03125 C1.83333,-1.14583 1.89063,-1.31771 1.89063,-1.54688 L1.89063,-13.8438 C1.89063,-14.0729 1.83333,-14.2448 1.71875,-14.3594 C1.60417,-14.474 1.40625,-14.5313 1.125,-14.5313 L0.609375,-14.5313 L0.609375,-15.0469 L5.67188,-15.0469 C7.10938,-15.0469 8.21354,-14.6875 8.98438,-13.9688 C9.75521,-13.25 10.1406,-12.349 10.1406,-11.2656 C10.1406,-9.94271 9.72656,-8.9375 8.89844,-8.25 C8.07031,-7.5625 7.08333,-7.21875 5.9375,-7.21875 L3.26563,-7.21875 M5.42188,-7.73438 C6.27604,-7.73438 7.03385,-7.99219 7.69531,-8.50781 C8.35677,-9.02344 8.6875,-9.91146 8.6875,-11.1719 C8.6875,-12.3177 8.41406,-13.1641 7.86719,-13.7109 C7.32031,-14.2578 6.44792,-14.5313 5.25,-14.5313 L4.04688,-14.5313 C3.81771,-14.5313 3.63021,-14.474 3.48438,-14.3594 C3.33854,-14.2448 3.26563,-14.0729 3.26563,-13.8438 L3.26563,-7.73438 L5.42188,-7.73438 M28.4922,-0.6875 C29.3828,0 29.7708,0.401042 29.6563,0.515625 C29.5417,0.630208 28.9974,0.356771 28.0234,-0.304688 C27.0495,-0.966146 26.1172,-1.84115 25.2266,-2.92969 C24.3359,-4.01823 23.8203,-5.45052 23.6797,-7.22656 C23.5391,-9.0026 23.8984,-10.5911 24.7578,-11.9922 C25.6172,-13.3932 26.6328,-14.5104 27.8047,-15.3438 C28.9766,-16.1771 29.5781,-16.5208 29.6094,-16.375 C29.6406,-16.2292 29.2552,-15.8438 28.4531,-15.2188 C27.651,-14.5313 26.862,-13.5859 26.0859,-12.3828 C25.3099,-11.1797 24.9219,-9.63281 24.9219,-7.74219 C24.9219,-5.85156 25.2943,-4.375 26.0391,-3.3125 C26.7839,-2.25 27.6016,-1.375 28.4922,-0.6875 M41.4219,-17.5313 C42.974,-16.7292 43.9922,-16.1146 44.4766,-15.6875 C44.9609,-15.2604 45.2031,-14.8438 45.2031,-14.4375 C45.2031,-14.1563 45.0755,-13.8438 44.8203,-13.5 C44.5651,-13.1563 44.3802,-12.9844 44.2656,-12.9844 C44.0365,-12.9844 43.8333,-13.2708 43.6563,-13.8438 C43.375,-14.6979 42.5729,-15.8438 41.25,-17.2813 L41.4219,-17.5313 M35.3281,-12.6406 L49.8438,-12.6406 L51.1406,-13.9219 L52.9375,-12.125 L44.6094,-12.125 L44.6094,-6.53125 L48.5625,-6.53125 L49.7656,-7.73438 L51.4844,-6.01563 L44.6094,-6.01563 L44.6094,0.34375 L50.5313,0.34375 L51.9063,-1.03125 L53.7969,0.859375 L36.875,0.859375 C36.125,0.859375 35.4375,0.947917 34.8125,1.125 L34.0313,0.34375 L43.3125,0.34375 L43.3125,-5.9375 L39.5313,-5.9375 C38.7917,-5.9375 38.1042,-5.84896 37.4688,-5.67188 L36.7031,-6.45313 L43.3125,-6.45313 L43.3125,-12.125 L38.1563,-12.125 C37.4167,-12.125 36.7292,-12.0365 36.0938,-11.8594 L35.3281,-12.6406 M75.4531,-12.0313 L74.7656,-11.4375 C74.7135,-5.36458 74.5286,-1.71094 74.2109,-0.476563 C73.8932,0.757813 73.0469,1.57813 71.6719,1.98438 C71.6198,1.34896 70.7344,0.65625 69.0156,-0.09375 L69.0938,-0.515625 C70.3021,-0.234375 71.25,-0.09375 71.9375,-0.09375 C72.2813,-0.09375 72.5521,-0.164063 72.75,-0.304688 C72.9479,-0.445313 73.1198,-1.1901 73.2656,-2.53906 C73.4115,-3.88802 73.5417,-6.96875 73.6563,-11.7813 L70.0469,-11.7813 C69.9844,-9.60417 69.7396,-7.65625 69.3125,-5.9375 C68.8854,-4.21875 68.112,-2.69792 66.9922,-1.375 C65.8724,-0.0520833 64.3958,1.125 62.5625,2.15625 L62.3125,1.89063 C64.1458,0.630208 65.5052,-0.645833 66.3906,-1.9375 C67.276,-3.22917 67.9063,-4.67708 68.2813,-6.28125 C68.6563,-7.88542 68.8698,-9.71875 68.9219,-11.7813 L67.375,-11.7813 L66.3438,-11.6094 L65.6563,-12.2969 L68.9219,-12.2969 C68.9219,-14.7031 68.8958,-16.5365 68.8438,-17.7969 L70.6406,-16.9375 L70.0469,-16.3281 L70.0469,-12.2969 L73.4844,-12.2969 L74.1719,-13.0625 L75.4531,-12.0313 M56.6406,-14.875 L62.8281,-14.875 L63.8594,-15.9063 L65.4063,-14.3594 L59.125,-14.3594 C58.5,-14.3594 57.9271,-14.2708 57.4063,-14.0938 L56.6406,-14.875 M55.9531,-10.4844 L64.0313,-10.4844 L65.0625,-11.5156 L66.6094,-9.96875 L60.8438,-9.96875 L62.2188,-8.9375 C61.6458,-8.70833 60.901,-7.88021 59.9844,-6.45313 C59.0156,-5.01563 58.1302,-3.86979 57.3281,-3.01563 L64.1094,-3.78125 C63.5365,-4.92708 62.9375,-5.98958 62.3125,-6.96875 L62.5625,-7.14063 C64.5729,-5.30729 65.6354,-4.0599 65.75,-3.39844 C65.8646,-2.73698 65.7917,-2.27865 65.5313,-2.02344 C65.2708,-1.76823 65.1146,-1.64063 65.0625,-1.64063 C64.8854,-1.64063 64.7708,-1.78125 64.7188,-2.0625 C64.6042,-2.46875 64.4583,-2.90104 64.2813,-3.35938 C60.1042,-2.60938 57.6979,-1.89063 57.0625,-1.20313 L56.125,-2.92188 C56.75,-3.09896 57.5495,-4.0599 58.5234,-5.80469 C59.4974,-7.54948 60.099,-8.9375 60.3281,-9.96875 L57.5781,-9.96875 L56.6406,-9.79688 L55.9531,-10.4844 M83.4531,-9.96875 L83.4531,-5.25 L92.9063,-5.25 L92.9063,-9.96875 L83.4531,-9.96875 M82.0781,-3.1875 C82.1302,-4.38542 82.1563,-5.67188 82.1563,-7.04688 C82.1563,-8.42188 82.1302,-9.79688 82.0781,-11.1719 L83.4531,-10.4844 L87.1406,-10.4844 C87.1406,-14.3281 87.1146,-16.8229 87.0625,-17.9688 L89.0313,-17.1875 L88.3438,-16.5 L88.3438,-14.4375 L93.9375,-14.4375 L95.0469,-15.5625 L96.5938,-13.9219 L88.3438,-13.9219 L88.3438,-10.4844 L92.7344,-10.4844 L93.5938,-11.3438 L94.875,-10.0625 L94.1094,-9.45313 C94.1094,-6.76563 94.1354,-4.93229 94.1875,-3.95313 L92.9063,-3.4375 L92.9063,-4.73438 L83.4531,-4.73438 L83.4531,-3.70313 L82.0781,-3.1875 M81.6406,-2.75 L81.9844,-2.75 C81.6406,-0.510417 81.2839,0.794271 80.9141,1.16406 C80.5443,1.53385 80.2135,1.71875 79.9219,1.71875 C79.7552,1.71875 79.5573,1.64844 79.3281,1.50781 C79.099,1.36719 78.9844,1.20833 78.9844,1.03125 C78.9844,0.864583 79.125,0.666667 79.4063,0.4375 C79.9271,0.03125 80.3151,-0.34375 80.5703,-0.6875 C80.8255,-1.03125 81.1823,-1.71875 81.6406,-2.75 M84.6563,-2.32813 L84.8281,-2.57813 C86.026,-1.66146 86.6979,-1.01823 86.8438,-0.648438 C86.9896,-0.278646 87.0625,-0.00520833 87.0625,0.171875 C87.0625,0.578125 86.9323,0.908854 86.6719,1.16406 C86.4115,1.41927 86.2552,1.54688 86.2031,1.54688 C85.974,1.54688 85.8281,1.26042 85.7656,0.6875 C85.651,-0.177083 85.2813,-1.18229 84.6563,-2.32813 M89.2031,-2.40625 L89.375,-2.67188 C90.4688,-1.86979 91.1432,-1.23958 91.3984,-0.78125 C91.6536,-0.322917 91.7813,-0.00520833 91.7813,0.171875 C91.7813,0.463542 91.6536,0.752604 91.3984,1.03906 C91.1432,1.32552 90.9844,1.46875 90.9219,1.46875 C90.6927,1.46875 90.5208,1.125 90.4063,0.4375 C90.2396,-0.541667 89.8385,-1.48958 89.2031,-2.40625 M93.8438,-2.67188 L94.0156,-2.92188 C95.1615,-2.11979 95.9505,-1.43229 96.3828,-0.859375 C96.8151,-0.286458 97.0313,0.145833 97.0313,0.4375 C97.0313,0.71875 96.9167,1.0026 96.6875,1.28906 C96.4583,1.57552 96.3125,1.71875 96.25,1.71875 C96.0208,1.71875 95.8229,1.375 95.6563,0.6875 C95.3646,-0.291667 94.7604,-1.41146 93.8438,-2.67188 M107.039,-3.00781 C106.096,-1.80469 105.065,-0.872396 103.945,-0.210938 C102.826,0.450521 102.253,0.708333 102.227,0.5625 C102.201,0.416667 102.615,0.0260417 103.469,-0.609375 C104.271,-1.18229 105.117,-2.14063 106.008,-3.48438 C106.898,-4.82813 107.286,-6.38802 107.172,-8.16406 C107.057,-9.9401 106.612,-11.4167 105.836,-12.5938 C105.06,-13.7708 104.271,-14.7031 103.469,-15.3906 C102.615,-16.0781 102.201,-16.4922 102.227,-16.6328 C102.253,-16.7734 102.797,-16.487 103.859,-15.7734 C104.922,-15.0599 105.969,-14 107,-12.5938 C108.031,-11.1875 108.531,-9.53906 108.5,-7.64844 C108.469,-5.75781 107.982,-4.21094 107.039,-3.00781 "/>
</g>

<g fill="#2ecc71" fill-opacity="1" stroke="none" transform="matrix(0.5,0,0,0.5,44.75,92.25)"
font-family="SimSun" font-size="9" font-weight="400" font-style="normal" 
>
<path fill-rule="evenodd" d="M6.35938,-0.953125 C6.19271,-1.80729 5.99479,-2.50781 5.76563,-3.05469 C5.53646,-3.60156 5.19271,-3.875 4.73438,-3.875 C4.50521,-3.875 4.23177,-3.76042 3.91406,-3.53125 C3.59635,-3.30208 3.4375,-2.92708 3.4375,-2.40625 C3.4375,-2.01042 3.63802,-1.65365 4.03906,-1.33594 C4.4401,-1.01823 4.92708,-0.859375 5.5,-0.859375 C5.72917,-0.859375 5.91667,-0.859375 6.0625,-0.859375 C6.20833,-0.859375 6.30729,-0.890625 6.35938,-0.953125 M4.90625,-4.73438 C5.59375,-4.73438 6.1224,-4.48958 6.49219,-4 C6.86198,-3.51042 7.19271,-2.78125 7.48438,-1.8125 C7.88021,-2.09375 8.17969,-2.73698 8.38281,-3.74219 C8.58594,-4.7474 8.6875,-6.07813 8.6875,-7.73438 C8.6875,-9.97396 8.44271,-11.6797 7.95313,-12.8516 C7.46354,-14.0234 6.64583,-14.6094 5.5,-14.6094 C4.53125,-14.6094 3.76042,-14.0365 3.1875,-12.8906 C2.61458,-11.7448 2.32813,-10.026 2.32813,-7.73438 C2.32813,-6.58854 2.36979,-5.63021 2.45313,-4.85938 C2.53646,-4.08854 2.66667,-3.53125 2.84375,-3.1875 C3.07292,-3.69792 3.33073,-4.08333 3.61719,-4.34375 C3.90365,-4.60417 4.33333,-4.73438 4.90625,-4.73438 M5.5,-0.265625 C4.23958,-0.265625 3.1224,-0.838542 2.14844,-1.98438 C1.17448,-3.13021 0.6875,-5.04688 0.6875,-7.73438 C0.6875,-10.026 1.11719,-11.8464 1.97656,-13.1953 C2.83594,-14.5443 4.01042,-15.2188 5.5,-15.2188 C6.875,-15.2188 8.02083,-14.5729 8.9375,-13.2813 C9.85417,-11.9896 10.3125,-10.1406 10.3125,-7.73438 C10.3125,-5.73438 10.0703,-4.21875 9.58594,-3.1875 C9.10156,-2.15625 8.51563,-1.38021 7.82813,-0.859375 C7.94271,-0.463542 8.08594,-0.177083 8.25781,0 C8.42969,0.177083 8.59896,0.265625 8.76563,0.265625 C8.99479,0.265625 9.19531,0.205729 9.36719,0.0859375 C9.53906,-0.0338542 9.65625,-0.234375 9.71875,-0.515625 L10.0625,-0.34375 C9.88542,0.34375 9.65365,0.846354 9.36719,1.16406 C9.08073,1.48177 8.73958,1.64063 8.34375,1.64063 C8.05208,1.64063 7.77865,1.55469 7.52344,1.38281 C7.26823,1.21094 6.9375,0.635417 6.53125,-0.34375 C6.47917,-0.291667 6.36719,-0.265625 6.19531,-0.265625 C6.02344,-0.265625 5.79167,-0.265625 5.5,-0.265625 M28.4922,-0.6875 C29.3828,0 29.7708,0.401042 29.6563,0.515625 C29.5417,0.630208 28.9974,0.356771 28.0234,-0.304688 C27.0495,-0.966146 26.1172,-1.84115 25.2266,-2.92969 C24.3359,-4.01823 23.8203,-5.45052 23.6797,-7.22656 C23.5391,-9.0026 23.8984,-10.5911 24.7578,-11.9922 C25.6172,-13.3932 26.6328,-14.5104 27.8047,-15.3438 C28.9766,-16.1771 29.5781,-16.5208 29.6094,-16.375 C29.6406,-16.2292 29.2552,-15.8438 28.4531,-15.2188 C27.651,-14.5313 26.862,-13.5859 26.0859,-12.3828 C25.3099,-11.1797 24.9219,-9.63281 24.9219,-7.74219 C24.9219,-5.85156 25.2943,-4.375 26.0391,-3.3125 C26.7839,-2.25 27.6016,-1.375 28.4922,-0.6875 M40.5625,-16.1563 C40.3333,-12.5521 40.1042,-10.1771 39.875,-9.03125 C41.1979,-8 42.1302,-7.16927 42.6719,-6.53906 C43.2135,-5.90885 43.4844,-5.33594 43.4844,-4.82031 C43.4844,-4.30469 43.3698,-3.94531 43.1406,-3.74219 C42.9115,-3.53906 42.7708,-3.4375 42.7188,-3.4375 C42.4896,-3.4375 42.2292,-3.86979 41.9375,-4.73438 C41.5938,-5.81771 40.8802,-7.07813 39.7969,-8.51563 C39.1615,-5.88021 38.3568,-3.84635 37.3828,-2.41406 C36.4089,-0.981771 35.4063,0.223958 34.375,1.20313 L34.125,0.953125 C35.3854,-0.598958 36.3438,-2.11979 37,-3.60938 C37.6563,-5.09896 38.1849,-6.91927 38.5859,-9.07031 C38.987,-11.2214 39.1875,-14.099 39.1875,-17.7031 L41.3438,-16.7656 L40.5625,-16.1563 M47.6094,-16.0781 C47.4948,-13.9531 47.6536,-11.8464 48.0859,-9.75781 C48.5182,-7.66927 49.263,-5.65104 50.3203,-3.70313 C51.3776,-1.75521 52.651,-0.463542 54.1406,0.171875 L54.1406,0.515625 C53.0573,0.630208 52.4583,0.916667 52.3438,1.375 C51.3125,0.34375 50.4818,-0.817708 49.8516,-2.10938 C49.2214,-3.40104 48.6901,-4.76302 48.2578,-6.19531 C47.8255,-7.6276 47.4948,-9.51563 47.2656,-11.8594 C47.099,-8.82813 46.6432,-6.4375 45.8984,-4.6875 C45.1536,-2.9375 44.1641,-1.51823 42.9297,-0.429688 C41.6953,0.658854 40.4792,1.52083 39.2813,2.15625 L39.0156,1.89063 C40.1094,1.15104 41.1146,0.291667 42.0313,-0.6875 C42.9479,-1.66667 43.6641,-2.72917 44.1797,-3.875 C44.6953,-5.02083 45.0964,-6.22396 45.3828,-7.48438 C45.6693,-8.74479 45.8828,-10.2344 46.0234,-11.9531 C46.1641,-13.6719 46.2083,-15.6198 46.1563,-17.7969 L48.3906,-16.7656 L47.6094,-16.0781 M75.4531,-12.0313 L74.7656,-11.4375 C74.7135,-5.36458 74.5286,-1.71094 74.2109,-0.476563 C73.8932,0.757813 73.0469,1.57813 71.6719,1.98438 C71.6198,1.34896 70.7344,0.65625 69.0156,-0.09375 L69.0938,-0.515625 C70.3021,-0.234375 71.25,-0.09375 71.9375,-0.09375 C72.2813,-0.09375 72.5521,-0.164063 72.75,-0.304688 C72.9479,-0.445313 73.1198,-1.1901 73.2656,-2.53906 C73.4115,-3.88802 73.5417,-6.96875 73.6563,-11.7813 L70.0469,-11.7813 C69.9844,-9.60417 69.7396,-7.65625 69.3125,-5.9375 C68.8854,-4.21875 68.112,-2.69792 66.9922,-1.375 C65.8724,-0.0520833 64.3958,1.125 62.5625,2.15625 L62.3125,1.89063 C64.1458,0.630208 65.5052,-0.645833 66.3906,-1.9375 C67.276,-3.22917 67.9063,-4.67708 68.2813,-6.28125 C68.6563,-7.88542 68.8698,-9.71875 68.9219,-11.7813 L67.375,-11.7813 L66.3438,-11.6094 L65.6563,-12.2969 L68.9219,-12.2969 C68.9219,-14.7031 68.8958,-16.5365 68.8438,-17.7969 L70.6406,-16.9375 L70.0469,-16.3281 L70.0469,-12.2969 L73.4844,-12.2969 L74.1719,-13.0625 L75.4531,-12.0313 M56.6406,-14.875 L62.8281,-14.875 L63.8594,-15.9063 L65.4063,-14.3594 L59.125,-14.3594 C58.5,-14.3594 57.9271,-14.2708 57.4063,-14.0938 L56.6406,-14.875 M55.9531,-10.4844 L64.0313,-10.4844 L65.0625,-11.5156 L66.6094,-9.96875 L60.8438,-9.96875 L62.2188,-8.9375 C61.6458,-8.70833 60.901,-7.88021 59.9844,-6.45313 C59.0156,-5.01563 58.1302,-3.86979 57.3281,-3.01563 L64.1094,-3.78125 C63.5365,-4.92708 62.9375,-5.98958 62.3125,-6.96875 L62.5625,-7.14063 C64.5729,-5.30729 65.6354,-4.0599 65.75,-3.39844 C65.8646,-2.73698 65.7917,-2.27865 65.5313,-2.02344 C65.2708,-1.76823 65.1146,-1.64063 65.0625,-1.64063 C64.8854,-1.64063 64.7708,-1.78125 64.7188,-2.0625 C64.6042,-2.46875 64.4583,-2.90104 64.2813,-3.35938 C60.1042,-2.60938 57.6979,-1.89063 57.0625,-1.20313 L56.125,-2.92188 C56.75,-3.09896 57.5495,-4.0599 58.5234,-5.80469 C59.4974,-7.54948 60.099,-8.9375 60.3281,-9.96875 L57.5781,-9.96875 L56.6406,-9.79688 L55.9531,-10.4844 M83.4531,-9.96875 L83.4531,-5.25 L92.9063,-5.25 L92.9063,-9.96875 L83.4531,-9.96875 M82.0781,-3.1875 C82.1302,-4.38542 82.1563,-5.67188 82.1563,-7.04688 C82.1563,-8.42188 82.1302,-9.79688 82.0781,-11.1719 L83.4531,-10.4844 L87.1406,-10.4844 C87.1406,-14.3281 87.1146,-16.8229 87.0625,-17.9688 L89.0313,-17.1875 L88.3438,-16.5 L88.3438,-14.4375 L93.9375,-14.4375 L95.0469,-15.5625 L96.5938,-13.9219 L88.3438,-13.9219 L88.3438,-10.4844 L92.7344,-10.4844 L93.5938,-11.3438 L94.875,-10.0625 L94.1094,-9.45313 C94.1094,-6.76563 94.1354,-4.93229 94.1875,-3.95313 L92.9063,-3.4375 L92.9063,-4.73438 L83.4531,-4.73438 L83.4531,-3.70313 L82.0781,-3.1875 M81.6406,-2.75 L81.9844,-2.75 C81.6406,-0.510417 81.2839,0.794271 80.9141,1.16406 C80.5443,1.53385 80.2135,1.71875 79.9219,1.71875 C79.7552,1.71875 79.5573,1.64844 79.3281,1.50781 C79.099,1.36719 78.9844,1.20833 78.9844,1.03125 C78.9844,0.864583 79.125,0.666667 79.4063,0.4375 C79.9271,0.03125 80.3151,-0.34375 80.5703,-0.6875 C80.8255,-1.03125 81.1823,-1.71875 81.6406,-2.75 M84.6563,-2.32813 L84.8281,-2.57813 C86.026,-1.66146 86.6979,-1.01823 86.8438,-0.648438 C86.9896,-0.278646 87.0625,-0.00520833 87.0625,0.171875 C87.0625,0.578125 86.9323,0.908854 86.6719,1.16406 C86.4115,1.41927 86.2552,1.54688 86.2031,1.54688 C85.974,1.54688 85.8281,1.26042 85.7656,0.6875 C85.651,-0.177083 85.2813,-1.18229 84.6563,-2.32813 M89.2031,-2.40625 L89.375,-2.67188 C90.4688,-1.86979 91.1432,-1.23958 91.3984,-0.78125 C91.6536,-0.322917 91.7813,-0.00520833 91.7813,0.171875 C91.7813,0.463542 91.6536,0.752604 91.3984,1.03906 C91.1432,1.32552 90.9844,1.46875 90.9219,1.46875 C90.6927,1.46875 90.5208,1.125 90.4063,0.4375 C90.2396,-0.541667 89.8385,-1.48958 89.2031,-2.40625 M93.8438,-2.67188 L94.0156,-2.92188 C95.1615,-2.11979 95.9505,-1.43229 96.3828,-0.859375 C96.8151,-0.286458 97.0313,0.145833 97.0313,0.4375 C97.0313,0.71875 96.9167,1.0026 96.6875,1.28906 C96.4583,1.57552 96.3125,1.71875 96.25,1.71875 C96.0208,1.71875 95.8229,1.375 95.6563,0.6875 C95.3646,-0.291667 94.7604,-1.41146 93.8438,-2.67188 M107.039,-3.00781 C106.096,-1.80469 105.065,-0.872396 103.945,-0.210938 C102.826,0.450521 102.253,0.708333 102.227,0.5625 C102.201,0.416667 102.615,0.0260417 103.469,-0.609375 C104.271,-1.18229 105.117,-2.14063 106.008,-3.48438 C106.898,-4.82813 107.286,-6.38802 107.172,-8.16406 C107.057,-9.9401 106.612,-11.4167 105.836,-12.5938 C105.06,-13.7708 104.271,-14.7031 103.469,-15.3906 C102.615,-16.0781 102.201,-16.4922 102.227,-16.6328 C102.253,-16.7734 102.797,-16.487 103.859,-15.7734 C104.922,-15.0599 105.969,-14 107,-12.5938 C108.031,-11.1875 108.531,-9.53906 108.5,-7.64844 C108.469,-5.75781 107.982,-4.21094 107.039,-3.00781 "/>
</g>
</g>
</svg>
