<?xml version="1.0" encoding="UTF-8" standalone="no"?>
<svg width="127mm" height="79.375mm"
 viewBox="0 0 360 225"
 xmlns="http://www.w3.org/2000/svg" xmlns:xlink="http://www.w3.org/1999/xlink"  version="1.2" baseProfile="tiny">


<defs>
</defs>
<g fill="none" stroke="black" stroke-width="1" fill-rule="evenodd" stroke-linecap="square" stroke-linejoin="bevel" >



<g fill="#333333" fill-opacity="1" stroke="#333333" stroke-opacity="1" stroke-width="3" stroke-linecap="butt" stroke-linejoin="round" transform="matrix(0.5,0,0,0.5,0,0)"
font-family="SimSun" font-size="9" font-weight="400" font-style="normal" 
>
<polyline fill="none" points="247.5,112.5 247.5,337.5 " />
<polyline fill="none" points="247.5,337.5 472.5,337.5 " />
<polyline fill="none" points="472.5,337.5 472.5,112.5 " />
<polyline fill="none" points="472.5,112.5 247.5,112.5 " />
</g>

<g fill="#e74c3c" fill-opacity="1" stroke="#e74c3c" stroke-opacity="1" stroke-width="4" stroke-linecap="butt" stroke-linejoin="round" transform="matrix(0.5,0,0,0.5,0,0)"
font-family="SimSun" font-size="9" font-weight="400" font-style="normal" 
>
<polyline fill="none" points="247.5,112.5 337.5,337.5 " />
<polyline fill="none" points="247.5,112.5 472.5,202.5 " />
<polyline fill="none" points="337.5,337.5 472.5,202.5 " />
</g>

<g fill="none" stroke="#e74c3c" stroke-opacity="1" stroke-width="3" stroke-linecap="butt" stroke-linejoin="round" transform="matrix(0.5,0,0,0.5,0,0)"
font-family="SimSun" font-size="9" font-weight="400" font-style="normal" 
>
<polyline fill="none" points="285,112.5 284.995,111.899 284.981,111.298 284.957,110.697 284.923,110.097 284.88,109.498 284.827,108.899 284.764,108.301 284.692,107.705 284.61,107.109 284.519,106.515 284.419,105.922 284.308,105.332 284.189,104.743 284.06,104.155 283.921,103.571 283.774,102.988 283.616,102.408 283.45,101.83 283.274,101.255 283.09,100.683 282.896,100.115 282.693,99.5488 282.48,98.9864 282.259,98.4275 282.029,97.8722 281.79,97.3206 281.543,96.773 281.286,96.2294 281.021,95.6899 280.747,95.1548 280.465,94.6241 280.174,94.0981 279.875,93.5768 279.568,93.0603 279.252,92.5488 278.928,92.0424 278.596,91.5413 278.256,91.0456 277.909,90.5554 277.553,90.0709 277.19,89.592 276.819,89.1191 276.44,88.6522 276.054,88.1914 275.661,87.7369 275.26,87.2887 274.853,86.847 274.438,86.4119 274.017,85.9835 " />
</g>

<g fill="#e74c3c" fill-opacity="1" stroke="none" transform="matrix(0.5,0,0,0.5,138,71.75)"
font-family="SimSun" font-size="9" font-weight="400" font-style="normal" 
>
<path fill-rule="evenodd" d="M8.625,-2.15625 C8.625,-1.71875 8.75,-1.40625 9,-1.21875 C9.25,-1.03125 9.59375,-0.9375 10.0313,-0.9375 L10.875,-0.9375 L10.875,-0.375 L4.6875,-0.375 L4.6875,-0.9375 L5.71875,-0.9375 C6.21875,-0.9375 6.57813,-1.03125 6.79688,-1.21875 C7.01563,-1.40625 7.125,-1.71875 7.125,-2.15625 L7.125,-5.25 L0.84375,-5.25 L0.84375,-5.71875 L7.6875,-16.5938 L8.625,-16.5938 L8.625,-5.8125 L11.1563,-5.8125 L11.1563,-5.25 L8.625,-5.25 L8.625,-2.15625 M7.03125,-14.3125 L1.6875,-5.8125 L7.125,-5.8125 L7.125,-14.3125 L7.03125,-14.3125 M18.4688,-10.6875 C19.6563,-10.6875 20.625,-10.2344 21.375,-9.32813 C22.125,-8.42188 22.5,-7.21875 22.5,-5.71875 C22.5,-4.03125 22.1094,-2.6875 21.3281,-1.6875 C20.5469,-0.6875 19.3438,-0.1875 17.7188,-0.1875 C16.5938,-0.1875 15.5938,-0.515625 14.7188,-1.17188 C13.8438,-1.82813 13.4063,-2.625 13.4063,-3.5625 C13.4063,-3.9375 13.5156,-4.26563 13.7344,-4.54688 C13.9531,-4.82813 14.25,-4.96875 14.625,-4.96875 C15,-4.96875 15.25,-4.84375 15.375,-4.59375 C15.5,-4.34375 15.5625,-4.125 15.5625,-3.9375 C15.5625,-3.5625 15.4688,-3.28125 15.2813,-3.09375 C15.0938,-2.84375 15,-2.59375 15,-2.34375 C15,-1.84375 15.2969,-1.46875 15.8906,-1.21875 C16.4844,-0.96875 17.125,-0.84375 17.8125,-0.84375 C18.8125,-0.84375 19.5781,-1.25 20.1094,-2.0625 C20.6406,-2.875 20.9063,-4.03125 20.9063,-5.53125 C20.9063,-6.78125 20.6719,-7.79688 20.2031,-8.57813 C19.7344,-9.35938 19.0313,-9.75 18.0938,-9.75 C17.4063,-9.75 16.8125,-9.625 16.3125,-9.375 C15.8125,-9.125 15.3438,-8.59375 14.9063,-7.78125 L14.0625,-7.875 L14.5313,-16.4063 L22.2188,-16.4063 L21.9375,-15 L15.1875,-15 L14.8125,-8.8125 C15.4375,-9.6875 16.0469,-10.2188 16.6406,-10.4063 C17.2344,-10.5938 17.8438,-10.6875 18.4688,-10.6875 M31.6406,-12.6094 C31.1094,-12.2031 30.4531,-12.0313 29.6719,-12.0938 C28.8906,-12.1563 28.2656,-12.4375 27.7969,-12.9375 C27.3281,-13.4375 27.1094,-14.0625 27.1406,-14.8125 C27.1719,-15.5625 27.375,-16.1406 27.75,-16.5469 C28.125,-16.9531 28.5938,-17.2344 29.1563,-17.3906 C29.7188,-17.5469 30.2656,-17.5625 30.7969,-17.4375 C31.3281,-17.3125 31.7813,-16.9844 32.1563,-16.4531 C32.5313,-15.9219 32.6719,-15.25 32.5781,-14.4375 C32.4844,-13.625 32.1719,-13.0156 31.6406,-12.6094 M28.5469,-16.2188 C28.2031,-15.9063 28,-15.5156 27.9375,-15.0469 C27.875,-14.5781 27.9688,-14.125 28.2188,-13.6875 C28.4688,-13.25 28.9219,-12.9844 29.5781,-12.8906 C30.2344,-12.7969 30.7656,-12.9375 31.1719,-13.3125 C31.5781,-13.6875 31.7813,-14.2031 31.7813,-14.8594 C31.7813,-15.5156 31.5781,-16.0156 31.1719,-16.3594 C30.7656,-16.7031 30.3125,-16.8438 29.8125,-16.7813 C29.3125,-16.7188 28.8906,-16.5313 28.5469,-16.2188 "/>
</g>

<g fill="#333333" fill-opacity="1" stroke="none" transform="matrix(0.5,0,0,0.5,0,0)"
font-family="SimSun" font-size="9" font-weight="400" font-style="normal" 
>
<circle cx="247.5" cy="112.5" r="6"/>
<circle cx="247.5" cy="337.5" r="6"/>
<circle cx="472.5" cy="337.5" r="6"/>
<circle cx="472.5" cy="112.5" r="6"/>
<circle cx="337.5" cy="337.5" r="6"/>
<circle cx="472.5" cy="202.5" r="6"/>
</g>

<g fill="#333333" fill-opacity="1" stroke="none" transform="matrix(0.5,0,0,0.5,109,61.5)"
font-family="SimSun" font-size="9" font-weight="400" font-style="normal" 
>
<path fill-rule="evenodd" d="M8.85938,-7.4375 L3.9375,-7.4375 L2.95313,-3.28125 C2.88021,-2.91667 2.84375,-2.625 2.84375,-2.40625 C2.84375,-2.11458 2.89844,-1.82292 3.00781,-1.53125 C3.11719,-1.23958 3.42708,-1.09375 3.9375,-1.09375 L4.26563,-1.09375 L4.26563,-0.4375 L0.21875,-0.4375 L0.21875,-1.09375 L0.546875,-1.09375 C0.838542,-1.09375 1.09375,-1.1849 1.3125,-1.36719 C1.53125,-1.54948 1.67708,-1.85938 1.75,-2.29688 L6.01563,-19.0313 L7.65625,-19.5781 L11.8125,-2.29688 C11.9583,-1.85938 12.1406,-1.54948 12.3594,-1.36719 C12.5781,-1.1849 12.8333,-1.09375 13.125,-1.09375 L13.4531,-1.09375 L13.4531,-0.4375 L8.75,-0.4375 L8.75,-1.09375 L9.1875,-1.09375 C9.625,-1.09375 9.88021,-1.1849 9.95313,-1.36719 C10.026,-1.54948 10.0625,-1.71354 10.0625,-1.85938 C10.0625,-2.15104 10.026,-2.40625 9.95313,-2.625 L8.85938,-7.4375 M6.5625,-17.1719 L6.45313,-17.1719 L4.15625,-8.09375 L8.75,-8.09375 L6.5625,-17.1719"/>
</g>

<g fill="#333333" fill-opacity="1" stroke="none" transform="matrix(0.5,0,0,0.5,109,185.25)"
font-family="SimSun" font-size="9" font-weight="400" font-style="normal" 
>
<path fill-rule="evenodd" d="M0.4375,-0.4375 L0.4375,-1.09375 L1.3125,-1.09375 C1.67708,-1.09375 1.93229,-1.16667 2.07813,-1.3125 C2.22396,-1.45833 2.29688,-1.67708 2.29688,-1.96875 L2.29688,-17.6094 C2.29688,-17.901 2.22396,-18.1198 2.07813,-18.2656 C1.93229,-18.4115 1.67708,-18.4844 1.3125,-18.4844 L0.65625,-18.4844 L0.65625,-19.1406 L7,-19.1406 C8.75,-19.1406 10.0443,-18.7943 10.8828,-18.1016 C11.7214,-17.4089 12.1406,-16.3333 12.1406,-14.875 C12.1406,-13.8542 11.9219,-13.0156 11.4844,-12.3594 C11.0469,-11.7031 10.1354,-11.1198 8.75,-10.6094 C10.4271,-10.099 11.5573,-9.36979 12.1406,-8.42188 C12.724,-7.47396 13.0156,-6.41667 13.0156,-5.25 C13.0156,-3.79167 12.5052,-2.625 11.4844,-1.75 C10.4635,-0.875 9.07813,-0.4375 7.32813,-0.4375 L0.4375,-0.4375 M7,-1.09375 C8.23958,-1.09375 9.20573,-1.47656 9.89844,-2.24219 C10.5911,-3.00781 10.9375,-4.08333 10.9375,-5.46875 C10.9375,-7.07292 10.5729,-8.25781 9.84375,-9.02344 C9.11458,-9.78906 8.02083,-10.1719 6.5625,-10.1719 L4.04688,-10.1719 L4.04688,-1.96875 C4.04688,-1.67708 4.13802,-1.45833 4.32031,-1.3125 C4.5026,-1.16667 4.73958,-1.09375 5.03125,-1.09375 L7,-1.09375 M10.2813,-14.875 C10.2813,-16.1875 9.91667,-17.1172 9.1875,-17.6641 C8.45833,-18.2109 7.51042,-18.4844 6.34375,-18.4844 L5.03125,-18.4844 C4.73958,-18.4844 4.5026,-18.4115 4.32031,-18.2656 C4.13802,-18.1198 4.04688,-17.901 4.04688,-17.6094 L4.04688,-10.8281 L6.89063,-10.8281 C7.69271,-10.8281 8.45833,-11.1563 9.1875,-11.8125 C9.91667,-12.4688 10.2813,-13.4896 10.2813,-14.875 "/>
</g>

<g fill="#333333" fill-opacity="1" stroke="none" transform="matrix(0.5,0,0,0.5,244,185.25)"
font-family="SimSun" font-size="9" font-weight="400" font-style="normal" 
>
<path fill-rule="evenodd" d="M7.54688,-0.21875 C5.50521,-0.21875 3.88281,-0.984375 2.67969,-2.51563 C1.47656,-4.04688 0.875,-6.45313 0.875,-9.73438 C0.875,-12.5052 1.51302,-14.8021 2.78906,-16.625 C4.0651,-18.4479 5.79688,-19.3594 7.98438,-19.3594 C8.49479,-19.3594 9.00521,-19.2865 9.51563,-19.1406 C10.026,-18.9219 10.4635,-18.8125 10.8281,-18.8125 C11.1198,-18.8125 11.3568,-18.849 11.5391,-18.9219 C11.7214,-18.9948 11.8854,-19.1406 12.0313,-19.3594 L13.0156,-14.5469 L12.3594,-14.3281 C11.9219,-15.7135 11.3385,-16.7708 10.6094,-17.5 C9.88021,-18.2292 8.93229,-18.5938 7.76563,-18.5938 C6.23438,-18.5938 5.04948,-17.7552 4.21094,-16.0781 C3.3724,-14.401 2.95313,-12.3229 2.95313,-9.84375 C2.95313,-7.14583 3.31771,-5.03125 4.04688,-3.5 C4.77604,-1.96875 5.97917,-1.20313 7.65625,-1.20313 C8.82292,-1.20313 9.82552,-1.6224 10.6641,-2.46094 C11.5026,-3.29948 12.0677,-4.41146 12.3594,-5.79688 L13.0156,-5.46875 C12.651,-3.9375 11.9766,-2.67969 10.9922,-1.69531 C10.0078,-0.710938 8.85938,-0.21875 7.54688,-0.21875 "/>
</g>

<g fill="#333333" fill-opacity="1" stroke="none" transform="matrix(0.5,0,0,0.5,244,50.25)"
font-family="SimSun" font-size="9" font-weight="400" font-style="normal" 
>
<path fill-rule="evenodd" d="M10.9375,-9.95313 C10.9375,-13.0885 10.4635,-15.2943 9.51563,-16.5703 C8.56771,-17.8464 7.25521,-18.4844 5.57813,-18.4844 C5.06771,-18.4844 4.6849,-18.4115 4.42969,-18.2656 C4.17448,-18.1198 4.04688,-17.901 4.04688,-17.6094 L4.04688,-1.96875 C4.04688,-1.67708 4.15625,-1.45833 4.375,-1.3125 C4.59375,-1.16667 4.88542,-1.09375 5.25,-1.09375 C6.85417,-1.09375 8.20313,-1.69531 9.29688,-2.89844 C10.3906,-4.10156 10.9375,-6.45313 10.9375,-9.95313 M2.29688,-17.6094 C2.29688,-17.901 2.22396,-18.1198 2.07813,-18.2656 C1.93229,-18.4115 1.67708,-18.4844 1.3125,-18.4844 L0.65625,-18.4844 L0.65625,-19.1406 L5.57813,-19.1406 C7.83854,-19.1406 9.64323,-18.4115 10.9922,-16.9531 C12.3411,-15.4948 13.0156,-13.2344 13.0156,-10.1719 C13.0156,-6.81771 12.3594,-4.35677 11.0469,-2.78906 C9.73438,-1.22135 7.80208,-0.4375 5.25,-0.4375 L0.546875,-0.4375 L0.546875,-1.09375 L1.3125,-1.09375 C1.67708,-1.09375 1.93229,-1.16667 2.07813,-1.3125 C2.22396,-1.45833 2.29688,-1.67708 2.29688,-1.96875 L2.29688,-17.6094"/>
</g>

<g fill="#333333" fill-opacity="1" stroke="none" transform="matrix(0.5,0,0,0.5,165.25,185.25)"
font-family="SimSun" font-size="9" font-weight="400" font-style="normal" 
>
<path fill-rule="evenodd" d="M0.875,-18.4844 L0.875,-19.1406 L11.5938,-19.1406 L12.7969,-15.4219 L12.25,-15.2031 C11.6667,-16.2969 11.0469,-17.1172 10.3906,-17.6641 C9.73438,-18.2109 9.00521,-18.4844 8.20313,-18.4844 L5.14063,-18.4844 C4.84896,-18.4844 4.61198,-18.4115 4.42969,-18.2656 C4.2474,-18.1198 4.15625,-17.901 4.15625,-17.6094 L4.15625,-10.8281 L7.32813,-10.8281 C8.05729,-10.8281 8.58594,-11.0104 8.91406,-11.375 C9.24219,-11.7396 9.40625,-12.2865 9.40625,-13.0156 L9.40625,-13.6719 L10.0625,-13.6719 L10.0625,-7.21875 L9.40625,-7.21875 L9.40625,-7.65625 C9.40625,-8.45833 9.24219,-9.07813 8.91406,-9.51563 C8.58594,-9.95313 8.05729,-10.1719 7.32813,-10.1719 L4.15625,-10.1719 L4.15625,-1.96875 C4.15625,-1.67708 4.2474,-1.45833 4.42969,-1.3125 C4.61198,-1.16667 4.84896,-1.09375 5.14063,-1.09375 L7.98438,-1.09375 C9.07813,-1.09375 10.0078,-1.40365 10.7734,-2.02344 C11.5391,-2.64323 12.1406,-3.60938 12.5781,-4.92188 L13.125,-4.70313 L11.9219,-0.4375 L0.765625,-0.4375 L0.765625,-1.09375 L1.42188,-1.09375 C1.78646,-1.09375 2.04167,-1.16667 2.1875,-1.3125 C2.33333,-1.45833 2.40625,-1.67708 2.40625,-1.96875 L2.40625,-17.6094 C2.40625,-17.901 2.33333,-18.1198 2.1875,-18.2656 C2.04167,-18.4115 1.78646,-18.4844 1.42188,-18.4844 L0.875,-18.4844"/>
</g>

<g fill="#333333" fill-opacity="1" stroke="none" transform="matrix(0.5,0,0,0.5,244,106.5)"
font-family="SimSun" font-size="9" font-weight="400" font-style="normal" 
>
<path fill-rule="evenodd" d="M5.90625,-1.09375 L5.90625,-0.4375 L0.65625,-0.4375 L0.65625,-1.09375 L1.42188,-1.09375 C1.78646,-1.09375 2.04167,-1.16667 2.1875,-1.3125 C2.33333,-1.45833 2.40625,-1.67708 2.40625,-1.96875 L2.40625,-17.6094 C2.40625,-17.901 2.33333,-18.1198 2.1875,-18.2656 C2.04167,-18.4115 1.78646,-18.4844 1.42188,-18.4844 L0.765625,-18.4844 L0.765625,-19.1406 L12.1406,-19.1406 L13.4531,-15.2031 L12.9063,-14.9844 C12.3229,-16.151 11.6302,-17.026 10.8281,-17.6094 C10.026,-18.1927 9.15104,-18.4844 8.20313,-18.4844 L5.14063,-18.4844 C4.84896,-18.4844 4.61198,-18.4115 4.42969,-18.2656 C4.2474,-18.1198 4.15625,-17.901 4.15625,-17.6094 L4.15625,-10.6094 L7.76563,-10.6094 C8.49479,-10.6094 9.02344,-10.7734 9.35156,-11.1016 C9.67969,-11.4297 9.84375,-11.9583 9.84375,-12.6875 L9.84375,-13.2344 L10.5,-13.2344 L10.5,-6.89063 L9.84375,-6.89063 L9.84375,-7.32813 C9.84375,-8.20313 9.67969,-8.85938 9.35156,-9.29688 C9.02344,-9.73438 8.49479,-9.95313 7.76563,-9.95313 L4.15625,-9.95313 L4.15625,-1.96875 C4.15625,-1.67708 4.2474,-1.45833 4.42969,-1.3125 C4.61198,-1.16667 4.84896,-1.09375 5.14063,-1.09375 L5.90625,-1.09375"/>
</g>
</g>
</svg>
