<?xml version="1.0" encoding="UTF-8" standalone="no"?>
<svg width="127mm" height="79.375mm"
 viewBox="0 0 360 225"
 xmlns="http://www.w3.org/2000/svg" xmlns:xlink="http://www.w3.org/1999/xlink"  version="1.2" baseProfile="tiny">


<defs>
</defs>
<g fill="none" stroke="black" stroke-width="1" fill-rule="evenodd" stroke-linecap="square" stroke-linejoin="bevel" >



<g fill="#333333" fill-opacity="1" stroke="#333333" stroke-opacity="1" stroke-width="3" stroke-linecap="butt" stroke-linejoin="round" transform="matrix(0.5,0,0,0.5,0,0)"
font-family="SimSun" font-size="9" font-weight="400" font-style="normal" 
>
<polyline fill="none" points="360,390 90,60 " />
<polyline fill="none" points="360,390 630,60 " />
<polyline fill="none" points="90,60 630,60 " />
</g>

<g fill="#e74c3c" fill-opacity="1" stroke="#e74c3c" stroke-opacity="1" stroke-width="4" stroke-linecap="butt" stroke-linejoin="round" transform="matrix(0.5,0,0,0.5,0,0)"
font-family="SimSun" font-size="9" font-weight="400" font-style="normal" 
>
<polyline fill="none" points="360,215.885 360,390 " />
</g>

<g fill="#2ecc71" fill-opacity="1" stroke="#2ecc71" stroke-opacity="1" stroke-width="4" stroke-linecap="butt" stroke-linejoin="round" transform="matrix(0.5,0,0,0.5,0,0)"
font-family="SimSun" font-size="9" font-weight="400" font-style="normal" 
>
<polyline fill="none" points="360,215.885 90,60 " />
<polyline fill="none" points="360,215.885 630,60 " />
</g>

<g fill="none" stroke="#333333" stroke-opacity="1" stroke-width="3" stroke-linecap="butt" stroke-linejoin="round" transform="matrix(0.5,0,0,0.5,0,0)"
font-family="SimSun" font-size="9" font-weight="400" font-style="normal" 
>
<polyline fill="none" points="360,245.885 362.561,245.775 365.104,245.447 367.61,244.903 370.06,244.148 372.436,243.186 374.722,242.024 376.9,240.672 378.954,239.138 380.87,237.435 382.634,235.574 384.233,233.57 385.654,231.436 386.888,229.189 387.926,226.845 388.76,224.42 389.384,221.934 389.793,219.403 389.985,216.846 389.957,214.283 389.711,211.731 389.248,209.209 388.571,206.736 387.686,204.33 386.598,202.008 385.316,199.788 383.849,197.685 382.208,195.716 380.405,193.893 378.453,192.231 376.366,190.742 374.16,189.436 371.85,188.324 369.453,187.413 366.988,186.71 364.471,186.22 361.922,185.946 359.359,185.891 356.8,186.056 354.265,186.438 351.772,187.035 349.339,187.843 346.984,188.856 344.723,190.066 342.575,191.464 340.553,193.041 338.674,194.785 336.95,196.683 335.395,198.721 334.019,200.885 " />
</g>

<g fill="#333333" fill-opacity="1" stroke="none" transform="matrix(0.5,0,0,0.5,193.383,98.1923)"
font-family="SimSun" font-size="9" font-weight="400" font-style="normal" 
>
<path fill-rule="evenodd" d="M6.28125,-15.2969 L6.28125,-2.23438 C6.28125,-1.77604 6.42448,-1.43229 6.71094,-1.20313 C6.9974,-0.973958 7.39583,-0.859375 7.90625,-0.859375 L8.76563,-0.859375 L8.76563,-0.34375 L2.5,-0.34375 L2.5,-0.859375 L3.26563,-0.859375 C3.83854,-0.859375 4.25521,-0.973958 4.51563,-1.20313 C4.77604,-1.43229 4.90625,-1.77604 4.90625,-2.23438 L4.90625,-12.6406 C4.90625,-12.8698 4.83333,-13.0547 4.6875,-13.1953 C4.54167,-13.3359 4.32813,-13.4063 4.04688,-13.4063 L2.5,-13.4063 L2.5,-13.9219 L3.26563,-13.9219 C3.95313,-13.9219 4.51302,-14.0365 4.94531,-14.2656 C5.3776,-14.4948 5.70833,-14.8385 5.9375,-15.2969 L6.28125,-15.2969 M19,-11.4375 C19,-12.4688 18.7708,-13.2552 18.3125,-13.7969 C17.8542,-14.3385 17.1667,-14.6094 16.25,-14.6094 C15.5625,-14.6094 14.974,-14.4245 14.4844,-14.0547 C13.9948,-13.6849 13.75,-13.2135 13.75,-12.6406 C13.75,-12.2969 13.8646,-12.0104 14.0938,-11.7813 C14.2708,-11.5521 14.3594,-11.3229 14.3594,-11.0938 C14.3594,-10.8021 14.2865,-10.5859 14.1406,-10.4453 C13.9948,-10.3047 13.7813,-10.2344 13.5,-10.2344 C13.1563,-10.2344 12.8828,-10.3333 12.6797,-10.5313 C12.4766,-10.7292 12.375,-11.0573 12.375,-11.5156 C12.375,-12.724 12.8047,-13.6432 13.6641,-14.2734 C14.5234,-14.9036 15.4427,-15.2188 16.4219,-15.2188 C17.7969,-15.2188 18.8125,-14.875 19.4688,-14.1875 C20.125,-13.5 20.4531,-12.6406 20.4531,-11.6094 C20.4531,-10.9219 20.2969,-10.2344 19.9844,-9.54688 C19.6719,-8.85938 19.1719,-8.19792 18.4844,-7.5625 C16.8177,-5.95833 15.5417,-4.65625 14.6563,-3.65625 C13.7708,-2.65625 13.2396,-1.98438 13.0625,-1.64063 L18.1406,-1.64063 C18.651,-1.64063 19.0781,-1.84115 19.4219,-2.24219 C19.7656,-2.64323 19.9948,-3.24479 20.1094,-4.04688 L20.625,-4.04688 L20.1094,-0.34375 L12.125,-0.34375 L12.125,-1.46875 C12.4063,-1.97917 12.8776,-2.63542 13.5391,-3.4375 C14.2005,-4.23958 15.0729,-5.1875 16.1563,-6.28125 C17.1354,-7.25 17.8542,-8.16406 18.3125,-9.02344 C18.7708,-9.88281 19,-10.6875 19,-11.4375 M27.5,-14.5313 C26.6979,-14.5313 26.026,-13.9141 25.4844,-12.6797 C24.9427,-11.4453 24.6719,-9.79688 24.6719,-7.73438 C24.6719,-5.55729 24.9427,-3.86719 25.4844,-2.66406 C26.026,-1.46094 26.6979,-0.859375 27.5,-0.859375 C28.3646,-0.859375 29.0391,-1.46094 29.5234,-2.66406 C30.0078,-3.86719 30.25,-5.55729 30.25,-7.73438 C30.25,-9.79688 30.0208,-11.4453 29.5625,-12.6797 C29.1042,-13.9141 28.4167,-14.5313 27.5,-14.5313 M27.5,-0.171875 C26.2396,-0.171875 25.1797,-0.830729 24.3203,-2.14844 C23.4609,-3.46615 23.0313,-5.32813 23.0313,-7.73438 C23.0313,-9.97396 23.4479,-11.7813 24.2813,-13.1563 C25.1146,-14.5313 26.1875,-15.2188 27.5,-15.2188 C28.7604,-15.2188 29.8073,-14.5599 30.6406,-13.2422 C31.474,-11.9245 31.8906,-10.0885 31.8906,-7.73438 C31.8906,-5.39063 31.474,-3.54427 30.6406,-2.19531 C29.8073,-0.846354 28.7604,-0.171875 27.5,-0.171875 M40.0078,-11.5625 C39.5234,-11.1875 38.9219,-11.0286 38.2031,-11.0859 C37.4844,-11.1432 36.9115,-11.401 36.4844,-11.8594 C36.0573,-12.3177 35.8568,-12.8906 35.8828,-13.5781 C35.9089,-14.2656 36.0938,-14.7969 36.4375,-15.1719 C36.7813,-15.5469 37.2109,-15.8047 37.7266,-15.9453 C38.2422,-16.0859 38.7448,-16.099 39.2344,-15.9844 C39.724,-15.8698 40.1406,-15.5703 40.4844,-15.0859 C40.8281,-14.6016 40.9557,-13.987 40.8672,-13.2422 C40.7786,-12.4974 40.4922,-11.9375 40.0078,-11.5625 M37.1719,-14.8672 C36.8594,-14.5807 36.6745,-14.224 36.6172,-13.7969 C36.5599,-13.3698 36.6458,-12.9557 36.875,-12.5547 C37.1042,-12.1536 37.5182,-11.9089 38.1172,-11.8203 C38.7161,-11.7318 39.2031,-11.8594 39.5781,-12.2031 C39.9531,-12.5469 40.1406,-13.0208 40.1406,-13.625 C40.1406,-14.2292 39.9531,-14.6875 39.5781,-15 C39.2031,-15.3125 38.7865,-15.4401 38.3281,-15.3828 C37.8698,-15.3255 37.4844,-15.1536 37.1719,-14.8672 "/>
</g>

<g fill="#333333" fill-opacity="1" stroke="none" transform="matrix(0.5,0,0,0.5,0,0)"
font-family="SimSun" font-size="9" font-weight="400" font-style="normal" 
>
<circle cx="360" cy="390" r="6"/>
<circle cx="90" cy="60" r="6"/>
<circle cx="630" cy="60" r="6"/>
<circle cx="360" cy="215.885" r="6"/>
</g>

<g fill="#333333" fill-opacity="1" stroke="none" transform="matrix(0.5,0,0,0.5,176.5,213.75)"
font-family="SimSun" font-size="9" font-weight="400" font-style="normal" 
>
<path fill-rule="evenodd" d="M8.85938,-7.4375 L3.9375,-7.4375 L2.95313,-3.28125 C2.88021,-2.91667 2.84375,-2.625 2.84375,-2.40625 C2.84375,-2.11458 2.89844,-1.82292 3.00781,-1.53125 C3.11719,-1.23958 3.42708,-1.09375 3.9375,-1.09375 L4.26563,-1.09375 L4.26563,-0.4375 L0.21875,-0.4375 L0.21875,-1.09375 L0.546875,-1.09375 C0.838542,-1.09375 1.09375,-1.1849 1.3125,-1.36719 C1.53125,-1.54948 1.67708,-1.85938 1.75,-2.29688 L6.01563,-19.0313 L7.65625,-19.5781 L11.8125,-2.29688 C11.9583,-1.85938 12.1406,-1.54948 12.3594,-1.36719 C12.5781,-1.1849 12.8333,-1.09375 13.125,-1.09375 L13.4531,-1.09375 L13.4531,-0.4375 L8.75,-0.4375 L8.75,-1.09375 L9.1875,-1.09375 C9.625,-1.09375 9.88021,-1.1849 9.95313,-1.36719 C10.026,-1.54948 10.0625,-1.71354 10.0625,-1.85938 C10.0625,-2.15104 10.026,-2.40625 9.95313,-2.625 L8.85938,-7.4375 M6.5625,-17.1719 L6.45313,-17.1719 L4.15625,-8.09375 L8.75,-8.09375 L6.5625,-17.1719"/>
</g>

<g fill="#333333" fill-opacity="1" stroke="none" transform="matrix(0.5,0,0,0.5,28,21.75)"
font-family="SimSun" font-size="9" font-weight="400" font-style="normal" 
>
<path fill-rule="evenodd" d="M0.4375,-0.4375 L0.4375,-1.09375 L1.3125,-1.09375 C1.67708,-1.09375 1.93229,-1.16667 2.07813,-1.3125 C2.22396,-1.45833 2.29688,-1.67708 2.29688,-1.96875 L2.29688,-17.6094 C2.29688,-17.901 2.22396,-18.1198 2.07813,-18.2656 C1.93229,-18.4115 1.67708,-18.4844 1.3125,-18.4844 L0.65625,-18.4844 L0.65625,-19.1406 L7,-19.1406 C8.75,-19.1406 10.0443,-18.7943 10.8828,-18.1016 C11.7214,-17.4089 12.1406,-16.3333 12.1406,-14.875 C12.1406,-13.8542 11.9219,-13.0156 11.4844,-12.3594 C11.0469,-11.7031 10.1354,-11.1198 8.75,-10.6094 C10.4271,-10.099 11.5573,-9.36979 12.1406,-8.42188 C12.724,-7.47396 13.0156,-6.41667 13.0156,-5.25 C13.0156,-3.79167 12.5052,-2.625 11.4844,-1.75 C10.4635,-0.875 9.07813,-0.4375 7.32813,-0.4375 L0.4375,-0.4375 M7,-1.09375 C8.23958,-1.09375 9.20573,-1.47656 9.89844,-2.24219 C10.5911,-3.00781 10.9375,-4.08333 10.9375,-5.46875 C10.9375,-7.07292 10.5729,-8.25781 9.84375,-9.02344 C9.11458,-9.78906 8.02083,-10.1719 6.5625,-10.1719 L4.04688,-10.1719 L4.04688,-1.96875 C4.04688,-1.67708 4.13802,-1.45833 4.32031,-1.3125 C4.5026,-1.16667 4.73958,-1.09375 5.03125,-1.09375 L7,-1.09375 M10.2813,-14.875 C10.2813,-16.1875 9.91667,-17.1172 9.1875,-17.6641 C8.45833,-18.2109 7.51042,-18.4844 6.34375,-18.4844 L5.03125,-18.4844 C4.73958,-18.4844 4.5026,-18.4115 4.32031,-18.2656 C4.13802,-18.1198 4.04688,-17.901 4.04688,-17.6094 L4.04688,-10.8281 L6.89063,-10.8281 C7.69271,-10.8281 8.45833,-11.1563 9.1875,-11.8125 C9.91667,-12.4688 10.2813,-13.4896 10.2813,-14.875 "/>
</g>

<g fill="#333333" fill-opacity="1" stroke="none" transform="matrix(0.5,0,0,0.5,325,21.75)"
font-family="SimSun" font-size="9" font-weight="400" font-style="normal" 
>
<path fill-rule="evenodd" d="M7.54688,-0.21875 C5.50521,-0.21875 3.88281,-0.984375 2.67969,-2.51563 C1.47656,-4.04688 0.875,-6.45313 0.875,-9.73438 C0.875,-12.5052 1.51302,-14.8021 2.78906,-16.625 C4.0651,-18.4479 5.79688,-19.3594 7.98438,-19.3594 C8.49479,-19.3594 9.00521,-19.2865 9.51563,-19.1406 C10.026,-18.9219 10.4635,-18.8125 10.8281,-18.8125 C11.1198,-18.8125 11.3568,-18.849 11.5391,-18.9219 C11.7214,-18.9948 11.8854,-19.1406 12.0313,-19.3594 L13.0156,-14.5469 L12.3594,-14.3281 C11.9219,-15.7135 11.3385,-16.7708 10.6094,-17.5 C9.88021,-18.2292 8.93229,-18.5938 7.76563,-18.5938 C6.23438,-18.5938 5.04948,-17.7552 4.21094,-16.0781 C3.3724,-14.401 2.95313,-12.3229 2.95313,-9.84375 C2.95313,-7.14583 3.31771,-5.03125 4.04688,-3.5 C4.77604,-1.96875 5.97917,-1.20313 7.65625,-1.20313 C8.82292,-1.20313 9.82552,-1.6224 10.6641,-2.46094 C11.5026,-3.29948 12.0677,-4.41146 12.3594,-5.79688 L13.0156,-5.46875 C12.651,-3.9375 11.9766,-2.67969 10.9922,-1.69531 C10.0078,-0.710938 8.85938,-0.21875 7.54688,-0.21875 "/>
</g>

<g fill="#333333" fill-opacity="1" stroke="none" transform="matrix(0.5,0,0,0.5,165.25,113.192)"
font-family="SimSun" font-size="9" font-weight="400" font-style="normal" 
>
<path fill-rule="evenodd" d="M4.15625,-9.1875 L4.15625,-1.96875 C4.15625,-1.67708 4.2474,-1.45833 4.42969,-1.3125 C4.61198,-1.16667 4.84896,-1.09375 5.14063,-1.09375 L5.90625,-1.09375 L5.90625,-0.4375 L0.65625,-0.4375 L0.65625,-1.09375 L1.42188,-1.09375 C1.78646,-1.09375 2.04167,-1.16667 2.1875,-1.3125 C2.33333,-1.45833 2.40625,-1.67708 2.40625,-1.96875 L2.40625,-17.6094 C2.40625,-17.901 2.33333,-18.1198 2.1875,-18.2656 C2.04167,-18.4115 1.78646,-18.4844 1.42188,-18.4844 L0.765625,-18.4844 L0.765625,-19.1406 L7.21875,-19.1406 C9.04167,-19.1406 10.4453,-18.6849 11.4297,-17.7734 C12.4141,-16.862 12.9063,-15.7135 12.9063,-14.3281 C12.9063,-12.651 12.3776,-11.375 11.3203,-10.5 C10.263,-9.625 9.00521,-9.1875 7.54688,-9.1875 L4.15625,-9.1875 M6.89063,-9.84375 C7.98438,-9.84375 8.95052,-10.1719 9.78906,-10.8281 C10.6276,-11.4844 11.0469,-12.6146 11.0469,-14.2188 C11.0469,-15.6771 10.7005,-16.7526 10.0078,-17.4453 C9.3151,-18.138 8.20313,-18.4844 6.67188,-18.4844 L5.14063,-18.4844 C4.84896,-18.4844 4.61198,-18.4115 4.42969,-18.2656 C4.2474,-18.1198 4.15625,-17.901 4.15625,-17.6094 L4.15625,-9.84375 L6.89063,-9.84375"/>
</g>
</g>
</svg>
