<?xml version="1.0" encoding="UTF-8" standalone="no"?>
<svg width="127mm" height="79.375mm"
 viewBox="0 0 360 225"
 xmlns="http://www.w3.org/2000/svg" xmlns:xlink="http://www.w3.org/1999/xlink"  version="1.2" baseProfile="tiny">


<defs>
</defs>
<g fill="none" stroke="black" stroke-width="1" fill-rule="evenodd" stroke-linecap="square" stroke-linejoin="bevel" >



<g fill="#f5f0e0" fill-opacity="0.34902" stroke="none" transform="matrix(5e-05,0,0,5e-05,0,0)"
font-family="SimSun" font-size="9" font-weight="400" font-style="normal" 
>
<path fill-rule="evenodd" d="M450000,4.5e+06 L6.75e+06,4.5e+06 L6.75e+06,750000 L450000,750000 L450000,4.5e+06"/>
</g>

<g fill="#333333" fill-opacity="1" stroke="#333333" stroke-opacity="1" stroke-width="5" stroke-linecap="butt" stroke-linejoin="round" transform="matrix(0.5,0,0,0.5,0,0)"
font-family="SimSun" font-size="9" font-weight="400" font-style="normal" 
>
<polyline fill="none" points="45,75 675,75 " />
</g>

<g fill="#e74c3c" fill-opacity="1" stroke="#e74c3c" stroke-opacity="1" stroke-width="5" stroke-linecap="butt" stroke-linejoin="round" transform="matrix(0.5,0,0,0.5,0,0)"
font-family="SimSun" font-size="9" font-weight="400" font-style="normal" 
>
<polyline fill="none" points="210,270 322.583,75 " />
</g>

<g fill="#e74c3c" fill-opacity="1" stroke="#e74c3c" stroke-opacity="1" stroke-width="4" stroke-linecap="butt" stroke-linejoin="round" transform="matrix(0.5,0,0,0.5,0,0)"
font-family="SimSun" font-size="9" font-weight="400" font-style="normal" 
>
<polyline fill="none" points="322.583,75 630,75 " />
</g>

<g fill="#999999" fill-opacity="1" stroke="#999999" stroke-opacity="1" stroke-dasharray="12,12" stroke-dashoffset="0" stroke-width="3" stroke-linecap="butt" stroke-linejoin="round" transform="matrix(0.5,0,0,0.5,0,0)"
font-family="SimSun" font-size="9" font-weight="400" font-style="normal" 
>
<polyline fill="none" points="210,270 210,75 " />
</g>

<g fill="none" stroke="#e74c3c" stroke-opacity="1" stroke-width="3" stroke-linecap="butt" stroke-linejoin="round" transform="matrix(0.5,0,0,0.5,0,0)"
font-family="SimSun" font-size="9" font-weight="400" font-style="normal" 
>
<polyline fill="none" points="306.083,103.579 306.39,103.754 306.698,103.925 307.008,104.093 307.32,104.258 307.633,104.419 307.948,104.577 308.265,104.732 308.584,104.883 308.904,105.031 309.225,105.176 309.549,105.317 309.873,105.454 310.199,105.588 310.527,105.719 310.856,105.846 311.186,105.969 311.518,106.089 311.851,106.206 312.185,106.319 312.52,106.428 312.856,106.534 313.194,106.636 313.532,106.735 313.872,106.829 314.213,106.921 314.554,107.008 314.897,107.092 315.24,107.173 315.584,107.249 315.929,107.322 316.275,107.391 316.622,107.457 316.969,107.519 317.317,107.577 317.665,107.631 318.014,107.682 318.363,107.729 318.713,107.772 319.064,107.812 319.415,107.848 319.766,107.879 320.117,107.908 320.469,107.932 320.821,107.953 321.173,107.97 321.526,107.983 321.878,107.992 322.231,107.998 322.583,108 " />
</g>

<g fill="#e74c3c" fill-opacity="1" stroke="none" transform="matrix(0.5,0,0,0.5,180.292,58.75)"
font-family="SimSun" font-size="9" font-weight="400" font-style="normal" 
>
<path fill-rule="evenodd" d="M12.9531,-13.3594 C13.4635,-13.1927 14.0208,-12.7031 14.625,-11.8906 C14.625,-12.6302 14.7786,-13.1198 15.0859,-13.3594 C15.3932,-13.599 15.7318,-13.6849 16.1016,-13.6172 C16.4714,-13.5495 16.6563,-13.4479 16.6563,-13.3125 C16.6563,-13.2396 16.5573,-13.1719 16.3594,-13.1094 C15.8802,-12.8385 15.6094,-11.9896 15.5469,-10.5625 L15.5469,-5.59375 C15.474,-4.30208 15.8438,-3.65625 16.6563,-3.65625 C16.7917,-3.65625 17.0625,-3.72396 17.4688,-3.85938 C17.6042,-3.79688 17.6719,-3.72917 17.6719,-3.65625 C17.6719,-3.45833 17.3177,-3.27344 16.6094,-3.10156 C15.901,-2.92969 15.4115,-2.84375 15.1406,-2.84375 C14.3281,-2.84375 13.9896,-3.35417 14.125,-4.375 C13.5104,-3.5625 12.9167,-3.08854 12.3438,-2.95313 C11.7708,-2.81771 11.4167,-2.75 11.2813,-2.75 C10.9375,-2.75 10.4609,-2.85156 9.85156,-3.05469 C9.24219,-3.25781 8.61719,-3.7474 7.97656,-4.52344 C7.33594,-5.29948 6.98177,-6.46615 6.91406,-8.02344 C6.84635,-9.58073 7.1849,-10.8333 7.92969,-11.7813 C8.67448,-12.7292 9.33333,-13.2708 9.90625,-13.4063 C10.4792,-13.5417 11.0052,-13.6094 11.4844,-13.6094 C11.9531,-13.6094 12.4427,-13.526 12.9531,-13.3594 M11.1797,-3.5625 C12.1953,-3.42708 13.1771,-4.13542 14.125,-5.6875 L14.125,-10.4688 C14.125,-11.0729 13.8698,-11.6641 13.3594,-12.2422 C12.849,-12.8203 12.2057,-13.0911 11.4297,-13.0547 C10.6536,-13.0182 9.96094,-12.526 9.35156,-11.5781 C8.74219,-10.6302 8.4375,-9.46354 8.4375,-8.07813 C8.4375,-6.69271 8.64063,-5.6276 9.04688,-4.88281 C9.45313,-4.13802 10.1641,-3.69792 11.1797,-3.5625 "/>
</g>

<g fill="#e74c3c" fill-opacity="1" stroke="none" transform="matrix(0.5,0,0,0.5,0,0)"
font-family="SimSun" font-size="9" font-weight="400" font-style="normal" 
>
<circle cx="210" cy="270" r="8"/>
</g>

<g fill="#2ecc71" fill-opacity="1" stroke="none" transform="matrix(0.5,0,0,0.5,0,0)"
font-family="SimSun" font-size="9" font-weight="400" font-style="normal" 
>
<circle cx="630" cy="75" r="8"/>
</g>

<g fill="#333333" fill-opacity="1" stroke="none" transform="matrix(0.5,0,0,0.5,0,0)"
font-family="SimSun" font-size="9" font-weight="400" font-style="normal" 
>
<circle cx="322.583" cy="75" r="6"/>
</g>

<g fill="#e74c3c" fill-opacity="1" stroke="none" transform="matrix(0.5,0,0,0.5,78,152.75)"
font-family="SimSun" font-size="9" font-weight="400" font-style="normal" 
>
<path fill-rule="evenodd" d="M3.5625,-7.875 L3.5625,-1.6875 C3.5625,-1.4375 3.64063,-1.25 3.79688,-1.125 C3.95313,-1 4.15625,-0.9375 4.40625,-0.9375 L5.0625,-0.9375 L5.0625,-0.375 L0.5625,-0.375 L0.5625,-0.9375 L1.21875,-0.9375 C1.53125,-0.9375 1.75,-1 1.875,-1.125 C2,-1.25 2.0625,-1.4375 2.0625,-1.6875 L2.0625,-15.0938 C2.0625,-15.3438 2,-15.5313 1.875,-15.6563 C1.75,-15.7813 1.53125,-15.8438 1.21875,-15.8438 L0.65625,-15.8438 L0.65625,-16.4063 L6.1875,-16.4063 C7.75,-16.4063 8.95313,-16.0156 9.79688,-15.2344 C10.6406,-14.4531 11.0625,-13.4688 11.0625,-12.2813 C11.0625,-10.8438 10.6094,-9.75 9.70313,-9 C8.79688,-8.25 7.71875,-7.875 6.46875,-7.875 L3.5625,-7.875 M5.90625,-8.4375 C6.84375,-8.4375 7.67188,-8.71875 8.39063,-9.28125 C9.10938,-9.84375 9.46875,-10.8125 9.46875,-12.1875 C9.46875,-13.4375 9.17188,-14.3594 8.57813,-14.9531 C7.98438,-15.5469 7.03125,-15.8438 5.71875,-15.8438 L4.40625,-15.8438 C4.15625,-15.8438 3.95313,-15.7813 3.79688,-15.6563 C3.64063,-15.5313 3.5625,-15.3438 3.5625,-15.0938 L3.5625,-8.4375 L5.90625,-8.4375 M31.0781,-0.75 C32.0469,0 32.4688,0.4375 32.3438,0.5625 C32.2188,0.6875 31.625,0.390625 30.5625,-0.328125 C29.5,-1.04688 28.4844,-2 27.5156,-3.1875 C26.5469,-4.375 25.9844,-5.9375 25.8281,-7.875 C25.6719,-9.8125 26.0625,-11.5469 27,-13.0781 C27.9375,-14.6094 29.0469,-15.8281 30.3281,-16.7344 C31.6094,-17.6406 32.2656,-18.0156 32.2969,-17.8594 C32.3281,-17.7031 31.9063,-17.2813 31.0313,-16.5938 C30.1563,-15.8438 29.2969,-14.8125 28.4531,-13.5 C27.6094,-12.1875 27.1875,-10.5 27.1875,-8.4375 C27.1875,-6.375 27.5938,-4.76563 28.4063,-3.60938 C29.2188,-2.45313 30.1094,-1.5 31.0781,-0.75 M50.1563,-19.5 L52.3125,-18.5625 L51.5625,-18 L51.5625,-8.625 C51.5625,-7.625 51.5938,-6.5 51.6563,-5.25 L50.1563,-4.78125 C50.2188,-6.40625 50.25,-7.71875 50.25,-8.71875 L50.25,-16.2188 C50.25,-17.0938 50.2188,-18.1875 50.1563,-19.5 M46.6875,-14.5313 L48.5625,-13.125 C48.0625,-13 47.3438,-12.0938 46.4063,-10.4063 C45.4063,-8.65625 44.2813,-7.1875 43.0313,-6 L42.75,-6.28125 C44.5625,-8.78125 45.875,-11.5313 46.6875,-14.5313 M53.4375,-14.4375 C55.5,-13.5625 56.8438,-12.875 57.4688,-12.375 C58.0938,-11.875 58.4063,-11.3438 58.4063,-10.7813 C58.4063,-10.4688 58.3281,-10.125 58.1719,-9.75 C58.0156,-9.375 57.9063,-9.1875 57.8438,-9.1875 C57.5938,-9.1875 57.2813,-9.5625 56.9063,-10.3125 C56.2813,-11.4375 55.0625,-12.7188 53.25,-14.1563 L53.4375,-14.4375 M55.7813,-9 L57.4688,-7.125 L56.4375,-6.75 C55,-4.9375 53.6719,-3.5 52.4531,-2.4375 C51.2344,-1.375 49.7188,-0.453125 47.9063,0.328125 C46.0938,1.10938 44.2813,1.625 42.4688,1.875 L42.375,1.59375 C44.0625,1.15625 45.7813,0.46875 47.5313,-0.46875 C49.2813,-1.40625 50.875,-2.625 52.3125,-4.125 C53.75,-5.625 54.9063,-7.25 55.7813,-9 M44.7188,-15.4688 C42.5313,-8.84375 41.3594,-5.125 41.2031,-4.3125 C41.0469,-3.5 40.9531,-2.53125 40.9219,-1.40625 C40.8906,-0.28125 40.875,0.53125 40.875,1.03125 C40.875,1.34375 40.75,1.5 40.5,1.5 C40.375,1.5 40.0938,1.39063 39.6563,1.17188 C39.2188,0.953125 39,0.59375 39,0.09375 C39,-0.34375 39.0625,-0.78125 39.1875,-1.21875 C39.375,-1.84375 39.4688,-2.34375 39.4688,-2.71875 C39.4688,-3.09375 39.3281,-3.40625 39.0469,-3.65625 C38.7656,-3.90625 38.1563,-4.15625 37.2188,-4.40625 L37.2188,-4.78125 C38.3438,-4.65625 39.0313,-4.60938 39.2813,-4.64063 C39.5313,-4.67188 39.8438,-4.95313 40.2188,-5.48438 C40.5938,-6.01563 41.9688,-9.375 44.3438,-15.5625 L44.7188,-15.4688 M37.3125,-13.5 C39.375,-12.5 40.4219,-11.6875 40.4531,-11.0625 C40.4844,-10.4375 40.375,-9.98438 40.125,-9.70313 C39.875,-9.42188 39.7188,-9.28125 39.6563,-9.28125 C39.4688,-9.28125 39.2813,-9.59375 39.0938,-10.2188 C38.7813,-11.0938 38.125,-12.0938 37.125,-13.2188 L37.3125,-13.5 M39.4688,-18.75 C41.1563,-17.9375 42.0938,-17.3594 42.2813,-17.0156 C42.4688,-16.6719 42.5625,-16.4063 42.5625,-16.2188 C42.5625,-15.9688 42.4375,-15.6563 42.1875,-15.2813 C41.9375,-14.9063 41.75,-14.7188 41.625,-14.7188 C41.4375,-14.7188 41.2813,-14.9688 41.1563,-15.4688 C40.8438,-16.2813 40.2188,-17.2813 39.2813,-18.4688 L39.4688,-18.75 M76.3125,-16.125 C76.3125,-17.4375 76.2813,-18.5 76.2188,-19.3125 L78.2813,-18.375 L77.5313,-17.7188 L77.5313,-16.125 L79.875,-16.125 L81,-17.25 L82.5938,-15.5625 L77.5313,-15.5625 C77.5313,-15.0625 77.5625,-14.5938 77.625,-14.1563 L76.3125,-13.5938 L76.3125,-15.5625 L73.125,-15.5625 L73.125,-14.0625 L71.8125,-13.6875 C71.875,-14.3125 71.9063,-14.9375 71.9063,-15.5625 L70.4063,-15.5625 C69.5938,-15.5625 68.8438,-15.4688 68.1563,-15.2813 L67.3125,-16.125 L71.9063,-16.125 C71.9063,-17.6875 71.875,-18.7813 71.8125,-19.4063 L73.875,-18.5625 L73.125,-17.8125 L73.125,-16.125 L76.3125,-16.125 M69.4688,-5.25 C69.5313,-6.3125 69.5625,-7.75 69.5625,-9.5625 C69.5625,-11.375 69.5313,-12.7813 69.4688,-13.7813 L70.7813,-13.0313 L78.4688,-13.0313 L79.0313,-13.875 L80.5313,-12.8438 L79.875,-12.1875 C79.875,-8.8125 79.9063,-6.75 79.9688,-6 L78.6563,-5.53125 L78.6563,-6.375 L74.7188,-6.375 C74.5938,-5.5625 74.4375,-4.78125 74.25,-4.03125 L79.7813,-4.03125 L81,-5.25 L82.6875,-3.46875 L75.2813,-3.46875 C77.2813,-0.96875 79.8438,0.40625 82.9688,0.65625 L82.9688,1.03125 C81.8438,1.21875 81.1875,1.625 81,2.25 C78.0625,0.9375 76,-0.96875 74.8125,-3.46875 L74.0625,-3.46875 C72.8125,-0.09375 69.9375,1.84375 65.4375,2.34375 L65.3438,2.0625 C69.0938,1.1875 71.5625,-0.65625 72.75,-3.46875 L68.9063,-3.46875 C68.0938,-3.46875 67.3438,-3.375 66.6563,-3.1875 L65.8125,-4.03125 L72.9375,-4.03125 C73.1875,-4.96875 73.3125,-5.75 73.3125,-6.375 L70.7813,-6.375 L70.7813,-5.8125 L69.4688,-5.25 M70.7813,-12.4688 L70.7813,-9.84375 L78.6563,-9.84375 L78.6563,-12.4688 L70.7813,-12.4688 M70.7813,-9.28125 L70.7813,-6.9375 L78.6563,-6.9375 L78.6563,-9.28125 L70.7813,-9.28125 M68.0625,-14.25 C66.0625,-8.375 64.9688,-5.04688 64.7813,-4.26563 C64.5938,-3.48438 64.5,-2.53125 64.5,-1.40625 C64.5,-0.28125 64.5313,0.5 64.5938,0.9375 C64.5938,1.1875 64.4375,1.3125 64.125,1.3125 C63.875,1.3125 63.5625,1.25 63.1875,1.125 C62.8125,1 62.625,0.71875 62.625,0.28125 C62.625,-0.03125 62.7188,-0.5 62.9063,-1.125 C63.0938,-1.75 63.1875,-2.25 63.1875,-2.625 C63.1875,-3.0625 63.0469,-3.40625 62.7656,-3.65625 C62.4844,-3.90625 61.875,-4.15625 60.9375,-4.40625 L60.9375,-4.78125 C62.0625,-4.65625 62.7656,-4.60938 63.0469,-4.64063 C63.3281,-4.67188 63.6406,-4.95313 63.9844,-5.48438 C64.3281,-6.01563 65.5625,-8.96875 67.6875,-14.3438 L68.0625,-14.25 M61.2188,-13.5 C63.0938,-12.5625 64.0781,-11.7969 64.1719,-11.2031 C64.2656,-10.6094 64.1875,-10.1719 63.9375,-9.89063 C63.6875,-9.60938 63.5313,-9.46875 63.4688,-9.46875 C63.2813,-9.46875 63.0938,-9.78125 62.9063,-10.4063 C62.5938,-11.2188 61.9688,-12.1563 61.0313,-13.2188 L61.2188,-13.5 M63.1875,-18.75 C64.8125,-17.9375 65.7188,-17.3594 65.9063,-17.0156 C66.0938,-16.6719 66.1875,-16.4063 66.1875,-16.2188 C66.1875,-15.9688 66.0781,-15.6719 65.8594,-15.3281 C65.6406,-14.9844 65.4688,-14.8125 65.3438,-14.8125 C65.1563,-14.8125 65,-15.0625 64.875,-15.5625 C64.5625,-16.375 63.9375,-17.3438 63,-18.4688 L63.1875,-18.75 M92.7656,-3.28125 C91.7344,-1.96875 90.6094,-0.953125 89.3906,-0.234375 C88.1719,0.484375 87.5469,0.765625 87.5156,0.609375 C87.4844,0.453125 87.9375,0.03125 88.875,-0.65625 C89.75,-1.28125 90.6719,-2.32813 91.6406,-3.79688 C92.6094,-5.26563 93.0313,-6.96875 92.9063,-8.90625 C92.7813,-10.8438 92.2969,-12.4531 91.4531,-13.7344 C90.6094,-15.0156 89.75,-16.0313 88.875,-16.7813 C87.9375,-17.5313 87.4844,-17.9844 87.5156,-18.1406 C87.5469,-18.2969 88.1406,-17.9844 89.2969,-17.2031 C90.4531,-16.4219 91.5938,-15.2656 92.7188,-13.7344 C93.8438,-12.2031 94.3906,-10.4063 94.3594,-8.34375 C94.3281,-6.28125 93.7969,-4.59375 92.7656,-3.28125 "/>
</g>

<g fill="#2ecc71" fill-opacity="1" stroke="none" transform="matrix(0.5,0,0,0.5,323,53.5)"
font-family="SimSun" font-size="9" font-weight="400" font-style="normal" 
>
<path fill-rule="evenodd" d="M8.23438,-6.90625 L3.65625,-6.90625 L2.75,-3.04688 C2.67708,-2.71354 2.64063,-2.44271 2.64063,-2.23438 C2.64063,-1.96354 2.69271,-1.69271 2.79688,-1.42188 C2.90104,-1.15104 3.1875,-1.01563 3.65625,-1.01563 L3.96875,-1.01563 L3.96875,-0.40625 L0.203125,-0.40625 L0.203125,-1.01563 L0.515625,-1.01563 C0.786458,-1.01563 1.02344,-1.10156 1.22656,-1.27344 C1.42969,-1.44531 1.5625,-1.73438 1.625,-2.14063 L5.59375,-17.6719 L7.10938,-18.1875 L10.9688,-2.14063 C11.1042,-1.73438 11.2734,-1.44531 11.4766,-1.27344 C11.6797,-1.10156 11.9167,-1.01563 12.1875,-1.01563 L12.5,-1.01563 L12.5,-0.40625 L8.125,-0.40625 L8.125,-1.01563 L8.53125,-1.01563 C8.9375,-1.01563 9.17448,-1.10156 9.24219,-1.27344 C9.3099,-1.44531 9.34375,-1.59896 9.34375,-1.73438 C9.34375,-2.00521 9.3125,-2.23958 9.25,-2.4375 L8.23438,-6.90625 M6.09375,-15.9531 L6,-15.9531 L3.85938,-7.51563 L8.125,-7.51563 L6.09375,-15.9531"/>
</g>

<g fill="#333333" fill-opacity="1" stroke="none" transform="matrix(0.5,0,0,0.5,146.542,31.5)"
font-family="SimSun" font-size="9" font-weight="400" font-style="normal" 
>
<path fill-rule="evenodd" d="M9.73438,-0.4375 L4.04688,-0.4375 L4.04688,-1.09375 L5.03125,-1.09375 C5.39583,-1.09375 5.65104,-1.16667 5.79688,-1.3125 C5.94271,-1.45833 6.01563,-1.67708 6.01563,-1.96875 L6.01563,-17.2813 C6.01563,-17.8646 5.97917,-18.1927 5.90625,-18.2656 C5.83333,-18.3385 5.54167,-18.375 5.03125,-18.375 C4.01042,-18.375 3.29948,-18.1927 2.89844,-17.8281 C2.4974,-17.4635 2.00521,-16.4792 1.42188,-14.875 L0.765625,-14.9844 L1.75,-19.1406 L12.1406,-19.1406 L13.0156,-14.9844 L12.4688,-14.875 C11.8854,-16.4063 11.4297,-17.3724 11.1016,-17.7734 C10.7734,-18.1745 10.099,-18.375 9.07813,-18.375 C8.34896,-18.375 7.94792,-18.3385 7.875,-18.2656 C7.80208,-18.1927 7.76563,-17.8281 7.76563,-17.1719 L7.76563,-1.96875 C7.76563,-1.67708 7.85677,-1.45833 8.03906,-1.3125 C8.22135,-1.16667 8.45833,-1.09375 8.75,-1.09375 L9.73438,-1.09375 L9.73438,-0.4375"/>
</g>

<g fill="#333333" fill-opacity="1" stroke="none" transform="matrix(0.5,0,0,0.5,204.75,53.5)"
font-family="SimSun" font-size="9" font-weight="400" font-style="normal" 
>
<path fill-rule="evenodd" d="M14.0156,-19 C14.7656,-17.5104 15.75,-16.1875 16.9688,-15.0313 C18.25,-16.3229 19.2656,-17.6458 20.0156,-19 L14.0156,-19 M17.4688,-3.5625 C17.4688,-0.84375 17.5052,0.921875 17.5781,1.73438 L16.0469,2.4375 C16.1198,0.541667 16.1563,-1.45833 16.1563,-3.5625 L13.4063,-3.5625 C12.5313,-3.5625 11.7188,-3.45833 10.9688,-3.25 L10.0625,-4.17188 L16.1563,-4.17188 L16.1563,-7.625 L14.7344,-7.625 C13.849,-7.625 13.0365,-7.52083 12.2969,-7.3125 L11.375,-8.23438 L16.1563,-8.23438 C16.1563,-9.31771 16.1198,-10.5365 16.0469,-11.8906 L18.3906,-10.9688 L17.4688,-10.2656 L17.4688,-8.23438 L19.9063,-8.23438 L21.3281,-9.54688 L23.0625,-7.625 L17.4688,-7.625 L17.4688,-4.17188 L21.4375,-4.17188 L22.75,-5.59375 L24.6875,-3.5625 L17.4688,-3.5625 M21.4375,-18.4844 C20.2188,-16.7969 19.0313,-15.4115 17.875,-14.3281 C19.6354,-13.0365 21.974,-12.2917 24.8906,-12.0938 L24.8906,-11.6875 C23.8698,-11.6146 23.2604,-11.1719 23.0625,-10.3594 C20.4896,-11.1719 18.4583,-12.224 16.9688,-13.5156 C15.0729,-12.026 12.6667,-10.9427 9.75,-10.2656 L9.65625,-10.5625 C12.5625,-11.7813 14.6927,-13 16.0469,-14.2188 C14.901,-15.7813 14.0208,-17.375 13.4063,-19 C13,-19 12.4948,-18.8958 11.8906,-18.6875 L11.0781,-19.6094 L19.9063,-19.6094 L20.9219,-20.625 L22.5469,-18.8906 L21.4375,-18.4844 M2.64063,-9.54688 C3.11979,-13.5469 3.39063,-16.224 3.45313,-17.5781 L5.48438,-16.3594 L4.67188,-15.75 L3.85938,-9.14063 L6.70313,-9.14063 L7.82813,-18.3906 L5.07813,-18.3906 C4.20313,-18.3906 3.39063,-18.2865 2.64063,-18.0781 L1.73438,-19 L7.82813,-19 L8.53125,-19.9063 L10.0625,-18.5938 L9.14063,-17.9844 L8.03125,-9.14063 L8.73438,-9.14063 L9.45313,-10.1563 L10.875,-8.84375 L10.0625,-8.23438 C9.71875,-4.30729 9.41146,-1.88542 9.14063,-0.96875 C8.86979,-0.0520833 8.4974,0.59375 8.02344,0.96875 C7.54948,1.34375 6.97396,1.63021 6.29688,1.82813 C6.36979,1.01563 5.39063,0.270833 3.35938,-0.40625 L3.35938,-0.8125 C5.18229,-0.479167 6.34896,-0.346354 6.85938,-0.414063 C7.36979,-0.481771 7.76042,-1.05729 8.03125,-2.14063 C8.30208,-3.22396 8.53646,-5.35417 8.73438,-8.53125 L3.85938,-8.53125 L3.04688,-7.71875 L1.82813,-8.9375 L2.64063,-9.54688 M0.921875,-4.17188 C1.73438,-4.30729 4.13542,-5.01563 8.125,-6.29688 L8.23438,-6 C4.36979,-4.30208 2.30208,-3.15104 2.03125,-2.54688 L0.921875,-4.17188 M36.9688,-20.625 L37.1719,-20.9219 C38.1927,-20.4531 38.9896,-19.9635 39.5625,-19.4531 C40.1354,-18.9427 40.4063,-18.4688 40.375,-18.0313 C40.3438,-17.5938 40.1927,-17.2734 39.9219,-17.0703 C39.651,-16.8672 39.4792,-16.7656 39.4063,-16.7656 C39.1354,-16.7656 38.9323,-17.1042 38.7969,-17.7813 C38.526,-18.6563 37.9167,-19.6042 36.9688,-20.625 M38.2969,-12.7031 L38.2969,-10.2656 L45.9063,-10.2656 L45.9063,-12.7031 L38.2969,-12.7031 M38.2969,-9.65625 L38.2969,-6.90625 L45.9063,-6.90625 L45.9063,-9.65625 L38.2969,-9.65625 M38.2969,-6.29688 L38.2969,-3.76563 L45.9063,-3.76563 L45.9063,-6.29688 L38.2969,-6.29688 M40.5313,-13.3125 L40.8281,-15.75 L37.2813,-15.75 C36.3958,-15.75 35.5833,-15.6458 34.8438,-15.4375 L33.9219,-16.3594 L42.8594,-16.3594 C44.0156,-18.3906 44.7969,-20.0469 45.2031,-21.3281 L47.2344,-19.9063 C46.7552,-19.7083 46.2292,-19.3385 45.6563,-18.7969 C45.0833,-18.2552 44.3906,-17.4427 43.5781,-16.3594 L47.4375,-16.3594 L48.75,-17.6719 L50.5781,-15.75 L42.4531,-15.75 L41.1406,-13.3125 L45.8125,-13.3125 L46.8281,-14.3281 L48.25,-12.9063 L47.2344,-12.1875 L47.2344,-7.625 C47.2344,-5.72917 47.2656,-3.96875 47.3281,-2.34375 L45.9063,-1.73438 L45.9063,-3.15625 L38.2969,-3.15625 L38.2969,-2.03125 L36.875,-1.42188 C36.9375,-3.79688 36.9688,-5.98177 36.9688,-7.97656 C36.9688,-9.97135 36.9375,-12.0208 36.875,-14.125 L38.3906,-13.3125 L40.5313,-13.3125 M29.25,-20.5156 L29.4531,-20.8281 C30.6719,-20.2135 31.5365,-19.6536 32.0469,-19.1484 C32.5573,-18.6432 32.7943,-18.1198 32.7578,-17.5781 C32.7214,-17.0365 32.5859,-16.6979 32.3516,-16.5625 C32.1172,-16.4271 31.9323,-16.3594 31.7969,-16.3594 C31.4531,-16.3594 31.1823,-16.7656 30.9844,-17.5781 C30.7135,-18.526 30.1354,-19.5052 29.25,-20.5156 M32.4063,-3.45313 C32.9479,-2.77604 33.7422,-2.09896 34.7891,-1.42188 C35.8359,-0.744792 37.1901,-0.320313 38.8516,-0.148438 C40.513,0.0234375 41.849,0.109375 42.8594,0.109375 C44.8281,0.109375 47.4688,-0.03125 50.7813,-0.3125 L50.7813,0.109375 C49.6979,0.307292 49.0885,0.8125 48.9531,1.625 C45.776,1.69792 43.138,1.63281 41.0391,1.42969 C38.9401,1.22656 37.3307,0.903646 36.2109,0.460938 C35.0911,0.0182292 34.125,-0.677083 33.3125,-1.625 C32.4375,-2.57292 31.8802,-3.03125 31.6406,-3 C31.401,-2.96875 30.875,-2.52865 30.0625,-1.67969 C29.25,-0.830729 28.7448,-0.203125 28.5469,0.203125 L27.2188,-1.21875 C28.375,-1.89583 29.6615,-2.67708 31.0781,-3.5625 L31.0781,-11.9844 L30.2656,-11.9844 C29.3906,-11.9844 28.5781,-11.8854 27.8281,-11.6875 L26.9219,-12.5938 L30.875,-12.5938 L32,-13.7188 L33.4219,-12.2969 L32.4063,-11.5781 L32.4063,-3.45313 M72.6719,-0.8125 C73.724,0 74.1823,0.473958 74.0469,0.609375 C73.9115,0.744792 73.2682,0.421875 72.1172,-0.359375 C70.9661,-1.14063 69.8646,-2.17448 68.8125,-3.46094 C67.7604,-4.7474 67.151,-6.4401 66.9844,-8.53906 C66.8177,-10.638 67.2422,-12.5156 68.2578,-14.1719 C69.2734,-15.8281 70.474,-17.1484 71.8594,-18.1328 C73.2448,-19.1172 73.9557,-19.5234 73.9922,-19.3516 C74.0286,-19.1797 73.5729,-18.724 72.625,-17.9844 C71.6771,-17.1719 70.7448,-16.0547 69.8281,-14.6328 C68.9115,-13.2109 68.4531,-11.3828 68.4531,-9.14844 C68.4531,-6.91406 68.8932,-5.16927 69.7734,-3.91406 C70.6536,-2.65885 71.6198,-1.625 72.6719,-0.8125 M84.6094,-0.3125 L84,-0.3125 L80.5469,-10.2656 C80.474,-10.5365 80.3359,-10.7552 80.1328,-10.9219 C79.9297,-11.0885 79.6927,-11.1719 79.4219,-11.1719 L78.9219,-11.1719 L78.9219,-11.7813 L83.2813,-11.7813 L83.2813,-11.1719 L82.875,-11.1719 C82.4688,-11.1719 82.2318,-11.1042 82.1641,-10.9688 C82.0964,-10.8333 82.0625,-10.6979 82.0625,-10.5625 C82.0625,-10.2917 82.099,-10.0573 82.1719,-9.85938 L84.6094,-2.6875 L84.8125,-2.6875 L87.25,-9.75 C87.3854,-10.0938 87.4531,-10.3333 87.4531,-10.4688 C87.4531,-10.5313 87.3854,-10.6641 87.25,-10.8672 C87.1146,-11.0703 86.8438,-11.1719 86.4375,-11.1719 L86.2344,-11.1719 L86.2344,-11.7813 L89.8906,-11.7813 L89.8906,-11.1719 L89.6875,-11.1719 C89.2813,-11.1719 88.9583,-11.0547 88.7188,-10.8203 C88.4792,-10.5859 88.2604,-10.2292 88.0625,-9.75 L84.6094,-0.3125 M100.5,-3.55469 C99.3854,-2.13281 98.1667,-1.03125 96.8438,-0.25 C95.5208,0.53125 94.8438,0.835938 94.8125,0.664063 C94.7813,0.492188 95.2708,0.03125 96.2813,-0.71875 C97.2292,-1.39583 98.2292,-2.52865 99.2813,-4.11719 C100.333,-5.70573 100.792,-7.54948 100.656,-9.64844 C100.521,-11.7474 99.9948,-13.4922 99.0781,-14.8828 C98.1615,-16.2734 97.2292,-17.375 96.2813,-18.1875 C95.2708,-19 94.7813,-19.4896 94.8125,-19.6563 C94.8438,-19.8229 95.487,-19.4844 96.7422,-18.6406 C97.9974,-17.7969 99.2344,-16.5443 100.453,-14.8828 C101.672,-13.2214 102.263,-11.2734 102.227,-9.03906 C102.19,-6.80469 101.615,-4.97656 100.5,-3.55469 "/>
</g>

<g fill="#b8860b" fill-opacity="1" stroke="none" transform="matrix(0.5,0,0,0.5,201.5,136)"
font-family="SimSun" font-size="9" font-weight="400" font-style="normal" 
>
<path fill-rule="evenodd" d="M15.3438,-21.125 L17.6719,-20.1094 L16.8594,-19.5 L16.8594,-9.34375 C16.8594,-8.26042 16.8958,-7.04167 16.9688,-5.6875 L15.3438,-5.1875 C15.4063,-6.94792 15.4375,-8.36979 15.4375,-9.45313 L15.4375,-17.5781 C15.4375,-18.526 15.4063,-19.7083 15.3438,-21.125 M11.5781,-15.75 L13.6094,-14.2188 C13.0677,-14.0833 12.2917,-13.1042 11.2813,-11.2813 C10.1979,-9.38542 8.97917,-7.79167 7.625,-6.5 L7.3125,-6.8125 C9.28125,-9.52083 10.7031,-12.5 11.5781,-15.75 M18.8906,-15.6406 C21.1302,-14.6927 22.5885,-13.9479 23.2656,-13.4063 C23.9427,-12.8646 24.2813,-12.2917 24.2813,-11.6875 C24.2813,-11.3438 24.1953,-10.9688 24.0234,-10.5625 C23.8516,-10.1563 23.7344,-9.95313 23.6719,-9.95313 C23.401,-9.95313 23.0625,-10.3594 22.6563,-11.1719 C21.9792,-12.3906 20.6563,-13.7813 18.6875,-15.3438 L18.8906,-15.6406 M21.4375,-9.75 L23.2656,-7.71875 L22.1406,-7.3125 C20.5885,-5.35417 19.151,-3.79948 17.8281,-2.64844 C16.5052,-1.4974 14.862,-0.497396 12.8984,0.351563 C10.9349,1.20052 8.97396,1.76042 7.01563,2.03125 L6.90625,1.73438 C8.73958,1.25521 10.6042,0.507813 12.5,-0.507813 C14.3958,-1.52344 16.1224,-2.84375 17.6797,-4.46875 C19.237,-6.09375 20.4896,-7.85417 21.4375,-9.75 M9.45313,-16.7656 C7.07813,-9.58854 5.80729,-5.5599 5.64063,-4.67969 C5.47396,-3.79948 5.3724,-2.7474 5.33594,-1.52344 C5.29948,-0.299479 5.28125,0.583333 5.28125,1.125 C5.28125,1.45833 5.14583,1.625 4.875,1.625 C4.73958,1.625 4.4349,1.50781 3.96094,1.27344 C3.48698,1.03906 3.25,0.651042 3.25,0.109375 C3.25,-0.369792 3.31771,-0.848958 3.45313,-1.32813 C3.66146,-2.00521 3.76563,-2.54688 3.76563,-2.95313 C3.76563,-3.35938 3.61198,-3.69792 3.30469,-3.96875 C2.9974,-4.23958 2.33854,-4.51042 1.32813,-4.78125 L1.32813,-5.1875 C2.54688,-5.05208 3.29167,-5 3.5625,-5.03125 C3.83333,-5.0625 4.17188,-5.36719 4.57813,-5.94531 C4.98438,-6.52344 6.47396,-10.1615 9.04688,-16.8594 L9.45313,-16.7656 M1.42188,-14.625 C3.66146,-13.5417 4.79688,-12.6615 4.82813,-11.9844 C4.85938,-11.3073 4.73958,-10.8177 4.46875,-10.5156 C4.19792,-10.2135 4.03125,-10.0625 3.96875,-10.0625 C3.76042,-10.0625 3.55729,-10.401 3.35938,-11.0781 C3.01563,-12.026 2.30208,-13.1094 1.21875,-14.3281 L1.42188,-14.625 M3.76563,-20.3125 C5.58854,-19.4375 6.60156,-18.8125 6.80469,-18.4375 C7.00781,-18.0625 7.10938,-17.776 7.10938,-17.5781 C7.10938,-17.3073 6.97396,-16.9688 6.70313,-16.5625 C6.43229,-16.1563 6.22917,-15.9531 6.09375,-15.9531 C5.89583,-15.9531 5.72917,-16.224 5.59375,-16.7656 C5.25,-17.6406 4.57292,-18.724 3.5625,-20.0156 L3.76563,-20.3125 M43.6719,-6.20313 C45.2969,-5.99479 46.2109,-5.92448 46.4141,-5.99219 C46.6172,-6.0599 46.7188,-6.29688 46.7188,-6.70313 L46.7188,-14.125 L43.0625,-12.7031 C43.0625,-8.23438 43.099,-5.08333 43.1719,-3.25 L41.6406,-2.54688 C41.7135,-4.91146 41.75,-8.125 41.75,-12.1875 L38.5938,-10.9688 L38.5938,-1.125 C38.5938,-0.302083 39.0365,0.109375 39.9219,0.109375 L47.6406,0.109375 C48.3802,-0.0364583 48.8021,-0.583333 48.9063,-1.53125 C49.0104,-2.47917 49.0625,-3.59375 49.0625,-4.875 L49.5625,-4.875 C49.6354,-3.52083 49.7396,-2.50521 49.875,-1.82813 C50.0104,-1.15104 50.3802,-0.677083 50.9844,-0.40625 C50.4427,0.75 49.6667,1.32813 48.6563,1.32813 L39.4063,1.32813 C37.9896,1.32813 37.2813,0.546875 37.2813,-1.01563 L37.2813,-10.5625 L35.0469,-9.75 L34.4375,-9.25 L33.4219,-9.75 L37.2813,-11.1719 L37.2813,-14.8281 C37.2813,-15.7135 37.2448,-16.7656 37.1719,-17.9844 L39.3125,-16.8594 L38.5938,-16.25 L38.5938,-11.5781 L41.75,-12.7969 L41.75,-17.6719 C41.75,-18.8906 41.7135,-20.0417 41.6406,-21.125 L43.9844,-20.1094 L43.0625,-19.2969 L43.0625,-13.3125 L46.4219,-14.7344 L47.2344,-15.75 L48.8594,-14.5313 L48.0469,-13.7188 L48.0469,-6 C48.0469,-5.59375 47.8932,-5.20313 47.5859,-4.82813 C47.2786,-4.45313 46.8229,-4.13021 46.2188,-3.85938 C46.1458,-4.60938 45.2969,-5.25521 43.6719,-5.79688 L43.6719,-6.20313 M32.2969,-3.04688 L36.3594,-4.46875 L36.4688,-3.96875 C31.5938,-1.86458 28.849,-0.40625 28.2344,0.40625 L27.0156,-1.42188 C27.8281,-1.63021 29.1146,-2.03646 30.875,-2.64063 L30.875,-11.7813 L30.4688,-11.7813 C29.5938,-11.7813 28.7813,-11.6823 28.0313,-11.4844 L27.125,-12.3906 L30.875,-12.3906 L30.875,-17.0625 C30.875,-18.0104 30.8438,-19.1615 30.7813,-20.5156 L33.1094,-19.4063 L32.2969,-18.6875 L32.2969,-12.3906 L33.3125,-12.3906 L34.4375,-13.5156 L36.1563,-11.7813 L32.2969,-11.7813 L32.2969,-3.04688 M72.6719,-0.8125 C73.724,0 74.1823,0.473958 74.0469,0.609375 C73.9115,0.744792 73.2682,0.421875 72.1172,-0.359375 C70.9661,-1.14063 69.8646,-2.17448 68.8125,-3.46094 C67.7604,-4.7474 67.151,-6.4401 66.9844,-8.53906 C66.8177,-10.638 67.2422,-12.5156 68.2578,-14.1719 C69.2734,-15.8281 70.474,-17.1484 71.8594,-18.1328 C73.2448,-19.1172 73.9557,-19.5234 73.9922,-19.3516 C74.0286,-19.1797 73.5729,-18.724 72.625,-17.9844 C71.6771,-17.1719 70.7448,-16.0547 69.8281,-14.6328 C68.9115,-13.2109 68.4531,-11.3828 68.4531,-9.14844 C68.4531,-6.91406 68.8932,-5.16927 69.7734,-3.91406 C70.6536,-2.65885 71.6198,-1.625 72.6719,-0.8125 M84.6094,-0.3125 L84,-0.3125 L80.5469,-10.2656 C80.474,-10.5365 80.3359,-10.7552 80.1328,-10.9219 C79.9297,-11.0885 79.6927,-11.1719 79.4219,-11.1719 L78.9219,-11.1719 L78.9219,-11.7813 L83.2813,-11.7813 L83.2813,-11.1719 L82.875,-11.1719 C82.4688,-11.1719 82.2318,-11.1042 82.1641,-10.9688 C82.0964,-10.8333 82.0625,-10.6979 82.0625,-10.5625 C82.0625,-10.2917 82.099,-10.0573 82.1719,-9.85938 L84.6094,-2.6875 L84.8125,-2.6875 L87.25,-9.75 C87.3854,-10.0938 87.4531,-10.3333 87.4531,-10.4688 C87.4531,-10.5313 87.3854,-10.6641 87.25,-10.8672 C87.1146,-11.0703 86.8438,-11.1719 86.4375,-11.1719 L86.2344,-11.1719 L86.2344,-11.7813 L89.8906,-11.7813 L89.8906,-11.1719 L89.6875,-11.1719 C89.2813,-11.1719 88.9583,-11.0547 88.7188,-10.8203 C88.4792,-10.5859 88.2604,-10.2292 88.0625,-9.75 L84.6094,-0.3125 M92.8281,-19.6094 C92.8281,-19.8802 92.9479,-20.151 93.1875,-20.4219 C93.4271,-20.6927 93.7813,-20.8281 94.25,-20.8281 C94.7917,-20.8281 95.2161,-20.6068 95.5234,-20.1641 C95.8307,-19.7214 95.9844,-19.2656 95.9844,-18.7969 C95.9844,-17.849 95.7135,-16.9688 95.1719,-16.1563 C94.6302,-15.3438 93.849,-14.7344 92.8281,-14.3281 L92.4219,-14.8281 C93.099,-15.2344 93.6068,-15.6589 93.9453,-16.1016 C94.2839,-16.5443 94.4531,-17 94.4531,-17.4688 C94.4531,-17.8125 94.1823,-18.1198 93.6406,-18.3906 C93.099,-18.6615 92.8281,-19.0677 92.8281,-19.6094 M113.5,-3.55469 C112.385,-2.13281 111.167,-1.03125 109.844,-0.25 C108.521,0.53125 107.844,0.835938 107.813,0.664063 C107.781,0.492188 108.271,0.03125 109.281,-0.71875 C110.229,-1.39583 111.229,-2.52865 112.281,-4.11719 C113.333,-5.70573 113.792,-7.54948 113.656,-9.64844 C113.521,-11.7474 112.995,-13.4922 112.078,-14.8828 C111.161,-16.2734 110.229,-17.375 109.281,-18.1875 C108.271,-19 107.781,-19.4896 107.813,-19.6563 C107.844,-19.8229 108.487,-19.4844 109.742,-18.6406 C110.997,-17.7969 112.234,-16.5443 113.453,-14.8828 C114.672,-13.2214 115.263,-11.2734 115.227,-9.03906 C115.19,-6.80469 114.615,-4.97656 113.5,-3.55469 "/>
</g>

<g fill="#888888" fill-opacity="1" stroke="none" transform="matrix(0.5,0,0,0.5,54,166.75)"
font-family="SimSun" font-size="9" font-weight="400" font-style="normal" 
>
<path fill-rule="evenodd" d="M2.34375,-8.15625 C2.34375,-9.09375 2.70313,-9.8125 3.42188,-10.3125 C4.14063,-10.8125 5,-11.0625 6,-11.0625 C6.5625,-11.0625 7.09375,-11 7.59375,-10.875 C8.09375,-10.6875 8.4375,-10.5938 8.625,-10.5938 C8.8125,-10.5938 8.96875,-10.625 9.09375,-10.6875 C9.21875,-10.75 9.375,-10.875 9.5625,-11.0625 L9.9375,-7.96875 L9.375,-7.875 C9.125,-8.6875 8.70313,-9.32813 8.10938,-9.79688 C7.51563,-10.2656 6.84375,-10.5 6.09375,-10.5 C5.28125,-10.5 4.64063,-10.3438 4.17188,-10.0313 C3.70313,-9.71875 3.46875,-9.28125 3.46875,-8.71875 C3.46875,-8.21875 3.57813,-7.82813 3.79688,-7.54688 C4.01563,-7.26563 4.40625,-7.0625 4.96875,-6.9375 C5.40625,-6.75 5.96875,-6.5625 6.65625,-6.375 C7.28125,-6.125 7.875,-5.875 8.4375,-5.625 C8.9375,-5.375 9.35938,-5.04688 9.70313,-4.64063 C10.0469,-4.23438 10.2188,-3.78125 10.2188,-3.28125 C10.2188,-2.34375 9.89063,-1.60938 9.23438,-1.07813 C8.57813,-0.546875 7.625,-0.28125 6.375,-0.28125 C5.5625,-0.28125 4.96875,-0.375 4.59375,-0.5625 C4.15625,-0.6875 3.8125,-0.75 3.5625,-0.75 C3.375,-0.75 3.17188,-0.703125 2.95313,-0.609375 C2.73438,-0.515625 2.5,-0.40625 2.25,-0.28125 L1.96875,-3.75 L2.53125,-3.84375 C2.71875,-2.84375 3.125,-2.09375 3.75,-1.59375 C4.375,-1.09375 5.25,-0.84375 6.375,-0.84375 C7.25,-0.84375 7.92188,-1 8.39063,-1.3125 C8.85938,-1.625 9.09375,-2.09375 9.09375,-2.71875 C9.09375,-3.15625 8.96875,-3.51563 8.71875,-3.79688 C8.46875,-4.07813 8.21875,-4.28125 7.96875,-4.40625 C7.34375,-4.65625 6.65625,-4.9375 5.90625,-5.25 C5.15625,-5.5 4.5,-5.75 3.9375,-6 C3.375,-6.25 2.96875,-6.5625 2.71875,-6.9375 C2.46875,-7.3125 2.34375,-7.71875 2.34375,-8.15625 M17.3438,-9.5 C17.3438,-9.76042 17.2813,-9.96875 17.1563,-10.125 C17.0313,-10.2813 16.8125,-10.3594 16.5,-10.3594 L14.5313,-10.3125 L14.5313,-10.875 L15.4688,-10.8906 C16.0313,-10.8802 16.5625,-10.9219 17.0625,-11.0156 C17.5625,-11.1094 18.0313,-11.2813 18.4688,-11.5313 L18.6563,-11.5313 L18.6563,-1.6875 C18.6563,-1.4375 18.7344,-1.25 18.8906,-1.125 C19.0469,-1 19.25,-0.9375 19.5,-0.9375 L21.4688,-0.9375 L21.4688,-0.375 L14.5313,-0.375 L14.5313,-0.9375 L16.5,-0.9375 C16.8125,-0.9375 17.0313,-1 17.1563,-1.125 C17.2813,-1.25 17.3438,-1.4375 17.3438,-1.6875 L17.3438,-9.5 M18.0938,-16.5938 C18.4063,-16.5938 18.6875,-16.4844 18.9375,-16.2656 C19.1875,-16.0469 19.3125,-15.7813 19.3125,-15.4688 C19.3125,-15.1563 19.1875,-14.875 18.9375,-14.625 C18.6875,-14.375 18.4063,-14.25 18.0938,-14.25 C17.7813,-14.25 17.5,-14.375 17.25,-14.625 C17,-14.875 16.875,-15.1563 16.875,-15.4688 C16.875,-15.7813 17,-16.0469 17.25,-16.2656 C17.5,-16.4844 17.7813,-16.5938 18.0938,-16.5938 M24.75,-0.375 L24.75,-0.9375 L25.2188,-0.9375 C25.5313,-0.9375 25.75,-1 25.875,-1.125 C26,-1.25 26.0625,-1.4375 26.0625,-1.6875 L26.0625,-9.75 C26.0625,-9.9375 26.0313,-10.0781 25.9688,-10.1719 C25.9063,-10.2656 25.7813,-10.3125 25.5938,-10.3125 L24.8438,-10.3125 L24.8438,-10.875 L25.5,-10.875 C25.8125,-10.875 26.1094,-10.9063 26.3906,-10.9688 C26.6719,-11.0313 26.9375,-11.1563 27.1875,-11.3438 L27.375,-11.3438 L27.375,-9.1875 C27.9375,-9.8125 28.5,-10.2813 29.0625,-10.5938 C29.625,-10.9063 30.2188,-11.0625 30.8438,-11.0625 C31.9063,-11.0625 32.6875,-10.7813 33.1875,-10.2188 C33.6875,-9.65625 33.9375,-8.8125 33.9375,-7.6875 L33.9375,-1.6875 C33.9375,-1.4375 34.0156,-1.25 34.1719,-1.125 C34.3281,-1 34.5313,-0.9375 34.7813,-0.9375 L35.25,-0.9375 L35.25,-0.375 L31.3125,-0.375 L31.3125,-0.9375 L31.7813,-0.9375 C32.0938,-0.9375 32.3125,-1 32.4375,-1.125 C32.5625,-1.25 32.625,-1.4375 32.625,-1.6875 L32.625,-7.96875 C32.625,-8.71875 32.4688,-9.29688 32.1563,-9.70313 C31.8438,-10.1094 31.375,-10.3125 30.75,-10.3125 C30.1875,-10.3125 29.6094,-10.125 29.0156,-9.75 C28.4219,-9.375 27.875,-8.84375 27.375,-8.15625 L27.375,-1.6875 C27.375,-1.4375 27.4531,-1.25 27.6094,-1.125 C27.7656,-1 27.9688,-0.9375 28.2188,-0.9375 L28.6875,-0.9375 L28.6875,-0.375 L24.75,-0.375 M47.9531,-12.3281 C48.4219,-12.1719 48.9375,-11.7188 49.5,-10.9688 C49.5,-11.6563 49.6406,-12.1094 49.9219,-12.3281 C50.2031,-12.5469 50.5156,-12.625 50.8594,-12.5625 C51.2031,-12.5 51.375,-12.4063 51.375,-12.2813 C51.375,-12.2188 51.2813,-12.1563 51.0938,-12.0938 C50.6563,-11.8438 50.4063,-11.0625 50.3438,-9.75 L50.3438,-5.15625 C50.2813,-3.96875 50.625,-3.375 51.375,-3.375 C51.5,-3.375 51.75,-3.4375 52.125,-3.5625 C52.25,-3.5 52.3125,-3.4375 52.3125,-3.375 C52.3125,-3.1875 51.9844,-3.01563 51.3281,-2.85938 C50.6719,-2.70313 50.2188,-2.625 49.9688,-2.625 C49.2188,-2.625 48.9063,-3.09375 49.0313,-4.03125 C48.4688,-3.28125 47.9219,-2.84375 47.3906,-2.71875 C46.8594,-2.59375 46.5313,-2.53125 46.4063,-2.53125 C46.0938,-2.53125 45.6563,-2.625 45.0938,-2.8125 C44.5313,-3 43.9531,-3.45313 43.3594,-4.17188 C42.7656,-4.89063 42.4375,-5.96875 42.375,-7.40625 C42.3125,-8.84375 42.625,-10 43.3125,-10.875 C44,-11.75 44.6094,-12.25 45.1406,-12.375 C45.6719,-12.5 46.1563,-12.5625 46.5938,-12.5625 C47.0313,-12.5625 47.4844,-12.4844 47.9531,-12.3281 M46.3125,-3.28125 C47.25,-3.15625 48.1563,-3.8125 49.0313,-5.25 L49.0313,-9.65625 C49.0313,-10.2188 48.7969,-10.7656 48.3281,-11.2969 C47.8594,-11.8281 47.2656,-12.0781 46.5469,-12.0469 C45.8281,-12.0156 45.1875,-11.5625 44.625,-10.6875 C44.0625,-9.8125 43.7813,-8.73438 43.7813,-7.45313 C43.7813,-6.17188 43.9688,-5.1875 44.3438,-4.5 C44.7188,-3.8125 45.375,-3.40625 46.3125,-3.28125 M72.75,-10.5938 L72.75,-11.4375 L83.1563,-11.4375 L83.1563,-10.5938 L72.75,-10.5938 M72.75,-5.8125 L72.75,-6.65625 L83.1563,-6.65625 L83.1563,-5.8125 L72.75,-5.8125 M102.094,-0.28125 L101.531,-0.28125 L98.3438,-9.46875 C98.2813,-9.71875 98.1563,-9.92188 97.9688,-10.0781 C97.7813,-10.2344 97.5625,-10.3125 97.3125,-10.3125 L96.8438,-10.3125 L96.8438,-10.875 L100.875,-10.875 L100.875,-10.3125 L100.5,-10.3125 C100.125,-10.3125 99.9063,-10.25 99.8438,-10.125 C99.7813,-10 99.75,-9.875 99.75,-9.75 C99.75,-9.5 99.7813,-9.28125 99.8438,-9.09375 L102.094,-2.48438 L102.281,-2.48438 L104.531,-9 C104.656,-9.3125 104.719,-9.53125 104.719,-9.65625 C104.719,-9.71875 104.656,-9.84375 104.531,-10.0313 C104.406,-10.2188 104.156,-10.3125 103.781,-10.3125 L103.594,-10.3125 L103.594,-10.875 L106.969,-10.875 L106.969,-10.3125 L106.781,-10.3125 C106.406,-10.3125 106.109,-10.2031 105.891,-9.98438 C105.672,-9.76563 105.469,-9.4375 105.281,-9 L102.094,-0.28125 M109.688,-18.0938 C109.688,-18.3438 109.797,-18.5938 110.016,-18.8438 C110.234,-19.0938 110.563,-19.2188 111,-19.2188 C111.5,-19.2188 111.891,-19.0156 112.172,-18.6094 C112.453,-18.2031 112.594,-17.7813 112.594,-17.3438 C112.594,-16.4688 112.344,-15.6563 111.844,-14.9063 C111.344,-14.1563 110.625,-13.5938 109.688,-13.2188 L109.313,-13.6875 C109.938,-14.0625 110.406,-14.4531 110.719,-14.8594 C111.031,-15.2656 111.188,-15.6875 111.188,-16.125 C111.188,-16.4375 110.938,-16.7188 110.438,-16.9688 C109.938,-17.2188 109.688,-17.5938 109.688,-18.0938 M121.5,1.78125 L120.844,1.40625 L130.406,-18.6563 L131.063,-18.2813 L121.5,1.78125 M138.094,-0.28125 L137.531,-0.28125 L134.344,-9.46875 C134.281,-9.71875 134.156,-9.92188 133.969,-10.0781 C133.781,-10.2344 133.563,-10.3125 133.313,-10.3125 L132.844,-10.3125 L132.844,-10.875 L136.875,-10.875 L136.875,-10.3125 L136.5,-10.3125 C136.125,-10.3125 135.906,-10.25 135.844,-10.125 C135.781,-10 135.75,-9.875 135.75,-9.75 C135.75,-9.5 135.781,-9.28125 135.844,-9.09375 L138.094,-2.48438 L138.281,-2.48438 L140.531,-9 C140.656,-9.3125 140.719,-9.53125 140.719,-9.65625 C140.719,-9.71875 140.656,-9.84375 140.531,-10.0313 C140.406,-10.2188 140.156,-10.3125 139.781,-10.3125 L139.594,-10.3125 L139.594,-10.875 L142.969,-10.875 L142.969,-10.3125 L142.781,-10.3125 C142.406,-10.3125 142.109,-10.2031 141.891,-9.98438 C141.672,-9.76563 141.469,-9.4375 141.281,-9 L138.094,-0.28125 M134.063,-10.3125"/>
</g>
</g>
</svg>
