<?xml version="1.0" encoding="UTF-8" standalone="no"?>
<svg width="127mm" height="79.375mm"
 viewBox="0 0 360 225"
 xmlns="http://www.w3.org/2000/svg" xmlns:xlink="http://www.w3.org/1999/xlink"  version="1.2" baseProfile="tiny">


<defs>
</defs>
<g fill="none" stroke="black" stroke-width="1" fill-rule="evenodd" stroke-linecap="square" stroke-linejoin="bevel" >



<g fill="#333333" fill-opacity="1" stroke="#333333" stroke-opacity="1" stroke-width="3" stroke-linecap="butt" stroke-linejoin="round" transform="matrix(0.5,0,0,0.5,0,0)"
font-family="SimSun" font-size="9" font-weight="400" font-style="normal" 
>
<polyline fill="none" points="82.5,82.5 637.5,82.5 " />
</g>

<g fill="#333333" fill-opacity="1" stroke="none" transform="matrix(5e-05,0,0,5e-05,0,0)"
font-family="SimSun" font-size="9" font-weight="400" font-style="normal" 
>
<path fill-rule="evenodd" d="M6.375e+06,825000 L6.2451e+06,750000 L6.2451e+06,900000 L6.375e+06,825000"/>
</g>

<g fill="#333333" fill-opacity="1" stroke="#333333" stroke-opacity="1" stroke-width="3" stroke-linecap="butt" stroke-linejoin="round" transform="matrix(0.5,0,0,0.5,0,0)"
font-family="SimSun" font-size="9" font-weight="400" font-style="normal" 
>
<polyline fill="none" points="82.5,82.5 82.5,352.5 " />
</g>

<g fill="#333333" fill-opacity="1" stroke="none" transform="matrix(5e-05,0,0,5e-05,0,0)"
font-family="SimSun" font-size="9" font-weight="400" font-style="normal" 
>
<path fill-rule="evenodd" d="M825000,3.525e+06 L900000,3.3951e+06 L750000,3.3951e+06 L825000,3.525e+06"/>
</g>

<g fill="#333333" fill-opacity="1" stroke="none" transform="matrix(0.5,0,0,0.5,302.25,45.5)"
font-family="SimSun" font-size="9" font-weight="400" font-style="normal" 
>
<path fill-rule="evenodd" d="M16.875,-13.5 C16.875,-15.9375 16.8438,-17.9688 16.7813,-19.5938 L19.125,-18.375 L18.1875,-17.7188 L18.1875,-13.5 L19.5938,-13.5 L20.8125,-14.7188 L22.5938,-12.9375 L18.1875,-12.9375 L18.1875,-0.375 C18.1875,0.8125 17.5,1.65625 16.125,2.15625 C16.0625,1.21875 15.0313,0.53125 13.0313,0.09375 L13.0313,-0.375 C14.7188,-0.125 15.7813,-0.03125 16.2188,-0.09375 C16.6563,-0.15625 16.875,-0.53125 16.875,-1.21875 L16.875,-12.9375 L12,-12.9375 C11.1875,-12.9375 10.4375,-12.8438 9.75,-12.6563 L8.90625,-13.5 L16.875,-13.5 M10.7813,-10.5938 C12.4063,-9.46875 13.3594,-8.6875 13.6406,-8.25 C13.9219,-7.8125 14.0625,-7.46875 14.0625,-7.21875 C14.0625,-6.90625 13.9219,-6.54688 13.6406,-6.14063 C13.3594,-5.73438 13.1563,-5.53125 13.0313,-5.53125 C12.8438,-5.53125 12.6563,-5.90625 12.4688,-6.65625 C12.1563,-7.78125 11.5,-9 10.5,-10.3125 L10.7813,-10.5938 M3.46875,-15.5625 L3.46875,-9.9375 L7.3125,-9.9375 L7.3125,-15.5625 L3.46875,-15.5625 M3.46875,-9.375 L3.46875,-3.375 L7.3125,-3.375 L7.3125,-9.375 L3.46875,-9.375 M8.625,-7.5 C8.625,-4.5 8.65625,-2.5625 8.71875,-1.6875 L7.3125,-0.9375 L7.3125,-2.8125 L3.46875,-2.8125 L3.46875,-0.84375 L2.0625,-0.09375 C2.125,-2.09375 2.15625,-5.09375 2.15625,-9.09375 C2.15625,-13.0938 2.125,-15.6875 2.0625,-16.875 L3.5625,-16.125 L7.125,-16.125 L7.875,-17.0625 L9.375,-15.8438 L8.625,-15.1875 L8.625,-7.5 M32.0625,-1.96875 C32.125,-3.96875 32.1563,-5.95313 32.1563,-7.92188 C32.1563,-9.89063 32.125,-11.8438 32.0625,-13.7813 L33.4688,-12.9375 L38.0625,-12.9375 L39,-13.875 L40.2188,-12.6563 L39.4688,-12 C39.4688,-7.875 39.5,-4.84375 39.5625,-2.90625 L38.25,-2.15625 L38.25,-3.65625 L33.375,-3.65625 L33.375,-2.625 L32.0625,-1.96875 M33.375,-12.375 L33.375,-8.71875 L38.25,-8.71875 L38.25,-12.375 L33.375,-12.375 M33.375,-8.15625 L33.375,-4.21875 L38.25,-4.21875 L38.25,-8.15625 L33.375,-8.15625 M28.7813,-19.5 C30.2188,-18.5625 31.0625,-17.9063 31.3125,-17.5313 C31.5625,-17.1563 31.6875,-16.8438 31.6875,-16.5938 C31.6875,-16.2188 31.5625,-15.8594 31.3125,-15.5156 C31.0625,-15.1719 30.9063,-15 30.8438,-15 C30.6563,-15 30.4688,-15.3438 30.2813,-16.0313 C29.9688,-16.9688 29.375,-18.0313 28.5,-19.2188 L28.7813,-19.5 M28.2188,-1.59375 C28.2188,-0.59375 28.25,0.40625 28.3125,1.40625 L26.8125,1.96875 C26.875,1.03125 26.9063,-2.0625 26.9063,-7.3125 C26.9063,-12.5625 26.875,-15.6563 26.8125,-16.5938 L29.0625,-15.4688 L28.2188,-14.9063 L28.2188,-1.59375 M39.8438,-0.46875 C41.8438,-0.15625 42.9688,-0.046875 43.2188,-0.140625 C43.4688,-0.234375 43.5938,-0.5 43.5938,-0.9375 L43.5938,-16.6875 L36.0938,-16.6875 C35.2813,-16.6875 34.5313,-16.5938 33.8438,-16.4063 L33,-17.25 L43.4063,-17.25 L44.3438,-18.1875 L45.6563,-16.875 L44.9063,-16.3125 L44.9063,-0.84375 C44.9063,-0.03125 44.7656,0.5625 44.4844,0.9375 C44.2031,1.3125 43.625,1.6875 42.75,2.0625 C42.25,1 41.2813,0.28125 39.8438,-0.09375 L39.8438,-0.46875 M49.5,1.78125 L48.8438,1.40625 L58.4063,-18.6563 L59.0625,-18.2813 L49.5,1.78125 M60.6563,-10.875 C60.9688,-10.875 61.2813,-10.9063 61.5938,-10.9688 C61.9063,-11.0313 62.1563,-11.125 62.3438,-11.25 L62.5313,-11.25 L62.5313,-9.65625 C62.8438,-10.1563 63.1875,-10.5156 63.5625,-10.7344 C63.9375,-10.9531 64.3438,-11.0625 64.7813,-11.0625 C65.3438,-11.0625 65.7813,-10.9531 66.0938,-10.7344 C66.4063,-10.5156 66.5938,-10.1563 66.6563,-9.65625 C66.9688,-10.1563 67.3281,-10.5156 67.7344,-10.7344 C68.1406,-10.9531 68.5625,-11.0625 69,-11.0625 C69.75,-11.0625 70.2656,-10.8438 70.5469,-10.4063 C70.8281,-9.96875 70.9688,-9.40625 70.9688,-8.71875 L70.9688,-1.59375 C70.9688,-1.34375 71.0313,-1.17188 71.1563,-1.07813 C71.2813,-0.984375 71.4688,-0.9375 71.7188,-0.9375 L71.9063,-0.9375 L71.9063,-0.375 L68.7188,-0.375 L68.7188,-0.9375 L68.9063,-0.9375 C69.1563,-0.9375 69.3438,-0.984375 69.4688,-1.07813 C69.5938,-1.17188 69.6563,-1.34375 69.6563,-1.59375 L69.6563,-8.625 C69.6563,-9.3125 69.5781,-9.76563 69.4219,-9.98438 C69.2656,-10.2031 69.0313,-10.3125 68.7188,-10.3125 C68.2813,-10.3125 67.8906,-10.1563 67.5469,-9.84375 C67.2031,-9.53125 66.9375,-9.09375 66.75,-8.53125 L66.75,-1.59375 C66.75,-1.34375 66.8125,-1.17188 66.9375,-1.07813 C67.0625,-0.984375 67.25,-0.9375 67.5,-0.9375 L67.6875,-0.9375 L67.6875,-0.375 L64.5,-0.375 L64.5,-0.9375 L64.6875,-0.9375 C64.9375,-0.9375 65.125,-0.984375 65.25,-1.07813 C65.375,-1.17188 65.4375,-1.34375 65.4375,-1.59375 L65.4375,-8.625 C65.4375,-9.1875 65.375,-9.60938 65.25,-9.89063 C65.125,-10.1719 64.875,-10.3125 64.5,-10.3125 C64.0625,-10.3125 63.6719,-10.1563 63.3281,-9.84375 C62.9844,-9.53125 62.7188,-9.0625 62.5313,-8.4375 L62.5313,-1.59375 C62.5313,-1.34375 62.5938,-1.17188 62.7188,-1.07813 C62.8438,-0.984375 63.0313,-0.9375 63.2813,-0.9375 L63.4688,-0.9375 L63.4688,-0.375 L60.2813,-0.375 L60.2813,-0.9375 L60.4688,-0.9375 C60.7188,-0.9375 60.9063,-0.984375 61.0313,-1.07813 C61.1563,-1.17188 61.2188,-1.34375 61.2188,-1.59375 L61.2188,-9.75 C61.2188,-9.9375 61.1875,-10.0781 61.125,-10.1719 C61.0625,-10.2656 60.9375,-10.3125 60.75,-10.3125 L60.375,-10.3125 L60.375,-10.875 L60.6563,-10.875 M77.3438,-9.5 C77.3438,-9.76042 77.2813,-9.96875 77.1563,-10.125 C77.0313,-10.2813 76.8125,-10.3594 76.5,-10.3594 L74.5313,-10.3125 L74.5313,-10.875 L75.4688,-10.8906 C76.0313,-10.8802 76.5625,-10.9219 77.0625,-11.0156 C77.5625,-11.1094 78.0313,-11.2813 78.4688,-11.5313 L78.6563,-11.5313 L78.6563,-1.6875 C78.6563,-1.4375 78.7344,-1.25 78.8906,-1.125 C79.0469,-1 79.25,-0.9375 79.5,-0.9375 L81.4688,-0.9375 L81.4688,-0.375 L74.5313,-0.375 L74.5313,-0.9375 L76.5,-0.9375 C76.8125,-0.9375 77.0313,-1 77.1563,-1.125 C77.2813,-1.25 77.3438,-1.4375 77.3438,-1.6875 L77.3438,-9.5 M78.0938,-16.5938 C78.4063,-16.5938 78.6875,-16.4844 78.9375,-16.2656 C79.1875,-16.0469 79.3125,-15.7813 79.3125,-15.4688 C79.3125,-15.1563 79.1875,-14.875 78.9375,-14.625 C78.6875,-14.375 78.4063,-14.25 78.0938,-14.25 C77.7813,-14.25 77.5,-14.375 77.25,-14.625 C77,-14.875 76.875,-15.1563 76.875,-15.4688 C76.875,-15.7813 77,-16.0469 77.25,-16.2656 C77.5,-16.4844 77.7813,-16.5938 78.0938,-16.5938 M84.75,-0.375 L84.75,-0.9375 L85.2188,-0.9375 C85.5313,-0.9375 85.75,-1 85.875,-1.125 C86,-1.25 86.0625,-1.4375 86.0625,-1.6875 L86.0625,-9.75 C86.0625,-9.9375 86.0313,-10.0781 85.9688,-10.1719 C85.9063,-10.2656 85.7813,-10.3125 85.5938,-10.3125 L84.8438,-10.3125 L84.8438,-10.875 L85.5,-10.875 C85.8125,-10.875 86.1094,-10.9063 86.3906,-10.9688 C86.6719,-11.0313 86.9375,-11.1563 87.1875,-11.3438 L87.375,-11.3438 L87.375,-9.1875 C87.9375,-9.8125 88.5,-10.2813 89.0625,-10.5938 C89.625,-10.9063 90.2188,-11.0625 90.8438,-11.0625 C91.9063,-11.0625 92.6875,-10.7813 93.1875,-10.2188 C93.6875,-9.65625 93.9375,-8.8125 93.9375,-7.6875 L93.9375,-1.6875 C93.9375,-1.4375 94.0156,-1.25 94.1719,-1.125 C94.3281,-1 94.5313,-0.9375 94.7813,-0.9375 L95.25,-0.9375 L95.25,-0.375 L91.3125,-0.375 L91.3125,-0.9375 L91.7813,-0.9375 C92.0938,-0.9375 92.3125,-1 92.4375,-1.125 C92.5625,-1.25 92.625,-1.4375 92.625,-1.6875 L92.625,-7.96875 C92.625,-8.71875 92.4688,-9.29688 92.1563,-9.70313 C91.8438,-10.1094 91.375,-10.3125 90.75,-10.3125 C90.1875,-10.3125 89.6094,-10.125 89.0156,-9.75 C88.4219,-9.375 87.875,-8.84375 87.375,-8.15625 L87.375,-1.6875 C87.375,-1.4375 87.4531,-1.25 87.6094,-1.125 C87.7656,-1 87.9688,-0.9375 88.2188,-0.9375 L88.6875,-0.9375 L88.6875,-0.375 L84.75,-0.375"/>
</g>

<g fill="#333333" fill-opacity="1" stroke="none" transform="matrix(0.5,0,0,0.5,12.75,184.25)"
font-family="SimSun" font-size="9" font-weight="400" font-style="normal" 
>
<path fill-rule="evenodd" d="M10.4063,-17.1563 L10.4063,-14.25 L17.8125,-14.25 L17.8125,-17.1563 L10.4063,-17.1563 M10.4063,-13.6875 L10.4063,-10.3125 L17.8125,-10.3125 L17.8125,-13.6875 L10.4063,-13.6875 M8.8125,-6.375 L8.8125,0.65625 L11.5313,0.65625 L11.5313,-6.375 L8.8125,-6.375 M12.6563,-6.375 L12.6563,0.65625 L15.2813,0.65625 L15.2813,-6.375 L12.6563,-6.375 M16.4063,-6.375 L16.4063,0.65625 L19.125,0.65625 L19.125,-6.375 L16.4063,-6.375 M9.09375,-8.4375 C9.15625,-9.625 9.1875,-11.4375 9.1875,-13.875 C9.1875,-16.3125 9.15625,-17.9063 9.09375,-18.6563 L10.4063,-17.7188 L17.625,-17.7188 L18.2813,-18.6563 L19.6875,-17.625 L19.0313,-17.0625 C19.0313,-13.3125 19.0625,-10.6875 19.125,-9.1875 L17.8125,-8.71875 L17.8125,-9.75 L10.4063,-9.75 L10.4063,-9 L9.09375,-8.4375 M7.5,-7.78125 L8.8125,-6.9375 L19.0313,-6.9375 L19.5938,-7.78125 L21,-6.75 L20.3438,-6.09375 L20.3438,0.65625 L20.625,0.65625 L21.75,-0.46875 L23.1563,1.21875 L8.15625,1.21875 C7.34375,1.21875 6.59375,1.3125 5.90625,1.5 L5.0625,0.65625 L7.59375,0.65625 L7.59375,-5.53125 C7.59375,-6.15625 7.5625,-6.90625 7.5,-7.78125 M7.96875,-15.6563 C6.15625,-8.78125 5.17188,-4.95313 5.01563,-4.17188 C4.85938,-3.39063 4.76563,-2.4375 4.73438,-1.3125 C4.70313,-0.1875 4.71875,0.59375 4.78125,1.03125 C4.78125,1.28125 4.65625,1.40625 4.40625,1.40625 C4.15625,1.40625 3.82813,1.32813 3.42188,1.17188 C3.01563,1.01563 2.8125,0.71875 2.8125,0.28125 C2.8125,-0.09375 2.90625,-0.5625 3.09375,-1.125 C3.28125,-1.75 3.375,-2.25 3.375,-2.625 C3.375,-3 3.23438,-3.3125 2.95313,-3.5625 C2.67188,-3.8125 2.0625,-4.0625 1.125,-4.3125 L1.125,-4.6875 C2.25,-4.5625 2.9375,-4.51563 3.1875,-4.54688 C3.4375,-4.57813 3.73438,-4.85938 4.07813,-5.39063 C4.42188,-5.92188 5.59375,-9.375 7.59375,-15.75 L7.96875,-15.6563 M1.40625,-13.5 C3.09375,-12.75 4,-12.125 4.125,-11.625 C4.25,-11.125 4.1875,-10.7031 3.9375,-10.3594 C3.6875,-10.0156 3.5,-9.84375 3.375,-9.84375 C3.25,-9.84375 3.125,-10.0625 3,-10.5 C2.75,-11.125 2.15625,-12.0625 1.21875,-13.3125 L1.40625,-13.5 M3.1875,-18.75 C4.375,-18.3125 5.15625,-17.9375 5.53125,-17.625 C5.90625,-17.3125 6.09375,-17 6.09375,-16.6875 C6.09375,-16.4375 6.01563,-16.1406 5.85938,-15.7969 C5.70313,-15.4531 5.5625,-15.2813 5.4375,-15.2813 C5.3125,-15.2813 5.15625,-15.5 4.96875,-15.9375 C4.59375,-16.625 3.9375,-17.5 3,-18.5625 L3.1875,-18.75 M33.5625,-7.59375 C33.625,-8.84375 33.6563,-10.2813 33.6563,-11.9063 L31.2188,-11.9063 L30.0938,-11.7188 L29.3438,-12.4688 L33.6563,-12.4688 C33.6563,-13.4063 33.625,-14.4375 33.5625,-15.5625 L35.625,-14.5313 L34.875,-14.0625 L34.875,-12.4688 L40.125,-12.4688 C40.125,-13.5313 40.0938,-14.5313 40.0313,-15.4688 L42.1875,-14.5313 L41.3438,-13.9688 L41.3438,-12.4688 L43.125,-12.4688 L44.3438,-13.6875 L46.125,-11.9063 L41.3438,-11.9063 C41.3438,-10.0938 41.375,-8.90625 41.4375,-8.34375 L40.125,-7.78125 L40.125,-8.625 L34.875,-8.625 L34.875,-8.15625 L33.5625,-7.59375 M42.2813,-5.625 C40.8438,-3.8125 39.625,-2.46875 38.625,-1.59375 C40.625,-0.34375 43.2813,0.34375 46.5938,0.46875 L46.5938,0.84375 C45.5938,1.03125 45,1.4375 44.8125,2.0625 C41.875,1.5 39.5313,0.53125 37.7813,-0.84375 C34.7813,0.84375 31.5313,1.90625 28.0313,2.34375 L27.9375,1.96875 C31.25,1.34375 34.25,0.125 36.9375,-1.6875 C35.75,-2.875 34.6563,-4.34375 33.6563,-6.09375 L32.7188,-6.09375 L31.875,-5.90625 L31.125,-6.65625 L40.9688,-6.65625 L41.8125,-7.5 L43.2188,-6.09375 L42.2813,-5.625 M34.125,-6.09375 C35.3125,-4.46875 36.5,-3.21875 37.6875,-2.34375 C38.9375,-3.53125 40,-4.78125 40.875,-6.09375 L34.125,-6.09375 M34.875,-11.9063 L34.875,-9.1875 L40.125,-9.1875 L40.125,-11.9063 L34.875,-11.9063 M27.6563,-17.4375 L29.25,-16.5 L36.6563,-16.5 C36.5938,-16.875 36.4531,-17.2813 36.2344,-17.7188 C36.0156,-18.1563 35.5625,-18.7813 34.875,-19.5938 L35.1563,-19.7813 C36.5938,-19.1563 37.4219,-18.6719 37.6406,-18.3281 C37.8594,-17.9844 37.9688,-17.7813 37.9688,-17.7188 C37.9688,-17.3438 37.7188,-16.9375 37.2188,-16.5 L43.3125,-16.5 L44.625,-17.8125 L46.5,-15.9375 L29.1563,-15.9375 C29.2188,-12.1875 29.1094,-9.26563 28.8281,-7.17188 C28.5469,-5.07813 28.0938,-3.28125 27.4688,-1.78125 C26.8438,-0.28125 26.0625,1.09375 25.125,2.34375 L24.8438,2.15625 C26.0938,-0.03125 26.8906,-2.3125 27.2344,-4.6875 C27.5781,-7.0625 27.7656,-9.48438 27.7969,-11.9531 C27.8281,-14.4219 27.7813,-16.25 27.6563,-17.4375 M49.5,1.78125 L48.8438,1.40625 L58.4063,-18.6563 L59.0625,-18.2813 L49.5,1.78125 M79.7813,-14.8125 L79.7813,-15.9375 L80.5313,-15.9375 L80.5313,-10.875 L79.7813,-10.875 L79.7813,-12.5625 C79.5313,-13.75 78.9063,-14.6719 77.9063,-15.3281 C76.9063,-15.9844 75.875,-16.3125 74.8125,-16.3125 C74.4375,-16.3125 73.7813,-16.2344 72.8438,-16.0781 C71.9063,-15.9219 71,-15.2031 70.125,-13.9219 C69.25,-12.6406 68.8281,-10.9063 68.8594,-8.71875 C68.8906,-6.53125 69.3125,-4.8125 70.125,-3.5625 C70.9375,-2.3125 71.8125,-1.60938 72.75,-1.45313 C73.6875,-1.29688 74.2813,-1.21875 74.5313,-1.21875 C75.3438,-1.21875 76.2344,-1.4375 77.2031,-1.875 C78.1719,-2.3125 78.9688,-2.90625 79.5938,-3.65625 C80.1563,-4.34375 80.4844,-4.59375 80.5781,-4.40625 C80.6719,-4.21875 80.4219,-3.73438 79.8281,-2.95313 C79.2344,-2.17188 78.3438,-1.46875 77.1563,-0.84375 C75.9688,-0.21875 74.5938,0 73.0313,-0.1875 C71.4688,-0.375 70.1406,-1.15625 69.0469,-2.53125 C67.9531,-3.90625 67.3438,-5.78125 67.2188,-8.15625 C67.0938,-10.5313 67.5469,-12.4844 68.5781,-14.0156 C69.6094,-15.5469 70.6406,-16.4688 71.6719,-16.7813 C72.7031,-17.0938 73.5625,-17.25 74.25,-17.25 C74.5625,-17.25 75.0938,-17.1719 75.8438,-17.0156 C76.5938,-16.8594 77.3281,-16.5625 78.0469,-16.125 C78.7656,-15.6875 79.3438,-15.25 79.7813,-14.8125 M62.7656,-15.375 C62.7344,-16 62.9219,-16.5 63.3281,-16.875 C63.7344,-17.25 64.0625,-17.4688 64.3125,-17.5313 C64.5625,-17.5938 64.7813,-17.625 64.9688,-17.625 C65.2188,-17.625 65.5313,-17.5625 65.9063,-17.4375 C66.2813,-17.3125 66.5781,-17.0313 66.7969,-16.5938 C67.0156,-16.1563 67.0781,-15.6563 66.9844,-15.0938 C66.8906,-14.5313 66.6406,-14.0938 66.2344,-13.7813 C65.8281,-13.4688 65.3438,-13.3281 64.7813,-13.3594 C64.2188,-13.3906 63.75,-13.5781 63.375,-13.9219 C63,-14.2656 62.7969,-14.75 62.7656,-15.375 M65.7188,-14.3438 C66.0313,-14.5313 66.1719,-14.9375 66.1406,-15.5625 C66.1094,-16.1875 65.9531,-16.5625 65.6719,-16.6875 C65.3906,-16.8125 65.1875,-16.875 65.0625,-16.875 C64.75,-16.875 64.4219,-16.75 64.0781,-16.5 C63.7344,-16.25 63.5938,-15.8438 63.6563,-15.2813 C63.7188,-14.7188 63.9219,-14.375 64.2656,-14.25 C64.6094,-14.125 64.8438,-14.0625 64.9688,-14.0625 C65.1563,-14.0625 65.4063,-14.1563 65.7188,-14.3438 "/>
</g>

<g fill="#333333" fill-opacity="1" stroke="none" transform="matrix(0.5,0,0,0.5,31,36)"
font-family="SimSun" font-size="9" font-weight="400" font-style="normal" 
>
<path fill-rule="evenodd" d="M2.40625,-7.73438 C2.40625,-5.27604 2.70833,-3.48698 3.3125,-2.36719 C3.91667,-1.2474 4.67708,-0.6875 5.59375,-0.6875 C6.5625,-0.6875 7.33333,-1.21875 7.90625,-2.28125 C8.47917,-3.34375 8.76563,-5.16146 8.76563,-7.73438 C8.76563,-9.79688 8.52344,-11.4583 8.03906,-12.7188 C7.55469,-13.9792 6.73958,-14.6094 5.59375,-14.6094 C4.61458,-14.6094 3.83854,-14.0365 3.26563,-12.8906 C2.69271,-11.7448 2.40625,-10.026 2.40625,-7.73438 M10.4063,-7.73438 C10.4063,-5.39063 9.94792,-3.54427 9.03125,-2.19531 C8.11458,-0.846354 6.96875,-0.171875 5.59375,-0.171875 C4.27083,-0.171875 3.13802,-0.859375 2.19531,-2.23438 C1.2526,-3.60938 0.78125,-5.44271 0.78125,-7.73438 C0.78125,-9.97396 1.22396,-11.7813 2.10938,-13.1563 C2.99479,-14.5313 4.15625,-15.2188 5.59375,-15.2188 C7.08333,-15.2188 8.25781,-14.487 9.11719,-13.0234 C9.97656,-11.5599 10.4063,-9.79688 10.4063,-7.73438 "/>
</g>

<g fill="#e74c3c" fill-opacity="1" stroke="#e74c3c" stroke-opacity="1" stroke-width="5" stroke-linecap="butt" stroke-linejoin="round" transform="matrix(0.5,0,0,0.5,0,0)"
font-family="SimSun" font-size="9" font-weight="400" font-style="normal" 
>
<polyline fill="none" points="105,105 249,190.5 " />
<polyline fill="none" points="249,190.5 387.75,190.5 " />
<polyline fill="none" points="387.75,190.5 554.25,306.6 " />
</g>

<g fill="#888888" fill-opacity="1" stroke="#888888" stroke-opacity="1" stroke-dasharray="12,12" stroke-dashoffset="0" stroke-width="3" stroke-linecap="butt" stroke-linejoin="round" transform="matrix(0.5,0,0,0.5,0,0)"
font-family="SimSun" font-size="9" font-weight="400" font-style="normal" 
>
<polyline fill="none" points="90,190.5 415.5,190.5 " />
</g>

<g fill="#888888" fill-opacity="1" stroke="none" transform="matrix(0.5,0,0,0.5,19.75,99)"
font-family="SimSun" font-size="9" font-weight="400" font-style="normal" 
>
<path fill-rule="evenodd" d="M11.6875,-4.64063 L11.6875,-0.09375 L17.0156,-0.09375 L17.0156,-4.64063 L11.6875,-4.64063 M12.8125,-17.9688 C13.8438,-17.4479 14.5156,-17.0443 14.8281,-16.7578 C15.1406,-16.4714 15.2969,-16.2135 15.2969,-15.9844 C15.2969,-15.7031 15.099,-15.3333 14.7031,-14.875 L18.3125,-14.875 L19,-15.6406 L20.4531,-14.1875 C19.599,-14.125 18.7135,-13.4635 17.7969,-12.2031 L17.5313,-12.375 L18.3906,-14.3594 L10.2344,-14.3594 C10.2865,-13.9531 10.3125,-13.6354 10.3125,-13.4063 C10.3125,-13.125 10.2708,-12.8542 10.1875,-12.5938 C10.1042,-12.3333 9.94792,-12.1745 9.71875,-12.1172 C9.48958,-12.0599 9.28646,-12.0313 9.10938,-12.0313 C8.94271,-12.0313 8.77344,-12.0755 8.60156,-12.1641 C8.42969,-12.2526 8.54167,-12.5521 8.9375,-13.0625 C9.28125,-13.5208 9.56771,-14.3802 9.79688,-15.6406 L10.1406,-15.6406 L10.2344,-14.875 L14.0156,-14.875 C13.8385,-15.9583 13.3802,-16.9323 12.6406,-17.7969 L12.8125,-17.9688 M11.9531,-13.3281 L13.4063,-12.125 C12.9479,-11.9479 12.3177,-11.4896 11.5156,-10.75 C10.7135,-10 9.85417,-9.33854 8.9375,-8.76563 L8.76563,-9.03125 C10.1406,-10.2292 11.2031,-11.6615 11.9531,-13.3281 M15.2188,-12.8125 C16.6458,-12.3542 17.5755,-11.9531 18.0078,-11.6094 C18.4401,-11.2656 18.6563,-10.8906 18.6563,-10.4844 C18.6563,-10.3177 18.599,-10.0625 18.4844,-9.71875 C18.3698,-9.375 18.2552,-9.20313 18.1406,-9.20313 C17.9635,-9.20313 17.7604,-9.45833 17.5313,-9.96875 C17.0729,-10.7188 16.2448,-11.5781 15.0469,-12.5469 L15.2188,-12.8125 M13.6719,-11.3438 L15.125,-10.2344 C14.8438,-10.1719 14.5885,-9.96875 14.3594,-9.625 C16.1927,-7.5625 18.4531,-6.33333 21.1406,-5.9375 L21.1406,-5.59375 C20.401,-5.36458 19.9427,-5.02083 19.7656,-4.5625 C17.0156,-5.9375 15.125,-7.54167 14.0938,-9.375 C13.0104,-7.88542 11.8646,-6.65104 10.6563,-5.67188 L11.6875,-5.15625 L16.8438,-5.15625 L17.3594,-5.84375 L18.7344,-4.73438 L18.1406,-4.29688 C18.1406,-1.02604 18.1667,0.864583 18.2188,1.375 L17.0156,1.89063 L17.0156,0.4375 L11.6875,0.4375 L11.6875,1.64063 L10.4844,2.15625 C10.5469,1.29167 10.5781,-1.29167 10.5781,-5.59375 C9.71354,-4.95833 8.73958,-4.38542 7.65625,-3.875 L7.48438,-4.125 C8.56771,-4.8125 9.68229,-5.78646 10.8281,-7.04688 C11.974,-8.30729 12.9219,-9.73958 13.6719,-11.3438 M4.125,-17.7031 L6.01563,-16.8438 L5.32813,-16.1563 L5.32813,-10.4844 C6.35938,-11.974 6.98958,-13.1198 7.21875,-13.9219 L8.42188,-12.6406 C8.02604,-12.4635 7.625,-12.1458 7.21875,-11.6875 C6.76042,-11.2292 6.13021,-10.6302 5.32813,-9.89063 C5.27604,-7.25521 5.21875,-5.67708 5.15625,-5.15625 C6.47917,-4.46875 7.29688,-3.9401 7.60938,-3.57031 C7.92188,-3.20052 8.07813,-2.84375 8.07813,-2.5 C8.07813,-2.27083 7.99219,-1.98438 7.82031,-1.64063 C7.64844,-1.29688 7.53646,-1.125 7.48438,-1.125 C7.30729,-1.125 7.13542,-1.41146 6.96875,-1.98438 C6.625,-2.78646 5.99479,-3.70313 5.07813,-4.73438 C4.50521,-1.69271 3.1875,0.604167 1.125,2.15625 L0.953125,1.98438 C2.38021,0.255208 3.28125,-1.58333 3.65625,-3.53125 C4.03125,-5.47917 4.21875,-7.57031 4.21875,-9.80469 C4.21875,-12.0391 4.1875,-14.6719 4.125,-17.7031 M2.75,-12.2031 C2.97917,-10.4844 3.03646,-9.38281 2.92188,-8.89844 C2.80729,-8.41406 2.59375,-8.1276 2.28125,-8.03906 C1.96875,-7.95052 1.75521,-7.90625 1.64063,-7.90625 C1.46354,-7.90625 1.33333,-7.9349 1.25,-7.99219 C1.16667,-8.04948 1.125,-8.10938 1.125,-8.17188 C1.125,-8.33854 1.26563,-8.65104 1.54688,-9.10938 C1.89063,-9.68229 2.17708,-10.7135 2.40625,-12.2031 L2.75,-12.2031 M28.4531,-9.96875 L28.4531,-5.25 L37.9063,-5.25 L37.9063,-9.96875 L28.4531,-9.96875 M27.0781,-3.1875 C27.1302,-4.38542 27.1563,-5.67188 27.1563,-7.04688 C27.1563,-8.42188 27.1302,-9.79688 27.0781,-11.1719 L28.4531,-10.4844 L32.1406,-10.4844 C32.1406,-14.3281 32.1146,-16.8229 32.0625,-17.9688 L34.0313,-17.1875 L33.3438,-16.5 L33.3438,-14.4375 L38.9375,-14.4375 L40.0469,-15.5625 L41.5938,-13.9219 L33.3438,-13.9219 L33.3438,-10.4844 L37.7344,-10.4844 L38.5938,-11.3438 L39.875,-10.0625 L39.1094,-9.45313 C39.1094,-6.76563 39.1354,-4.93229 39.1875,-3.95313 L37.9063,-3.4375 L37.9063,-4.73438 L28.4531,-4.73438 L28.4531,-3.70313 L27.0781,-3.1875 M26.6406,-2.75 L26.9844,-2.75 C26.6406,-0.510417 26.2839,0.794271 25.9141,1.16406 C25.5443,1.53385 25.2135,1.71875 24.9219,1.71875 C24.7552,1.71875 24.5573,1.64844 24.3281,1.50781 C24.099,1.36719 23.9844,1.20833 23.9844,1.03125 C23.9844,0.864583 24.125,0.666667 24.4063,0.4375 C24.9271,0.03125 25.3151,-0.34375 25.5703,-0.6875 C25.8255,-1.03125 26.1823,-1.71875 26.6406,-2.75 M29.6563,-2.32813 L29.8281,-2.57813 C31.026,-1.66146 31.6979,-1.01823 31.8438,-0.648438 C31.9896,-0.278646 32.0625,-0.00520833 32.0625,0.171875 C32.0625,0.578125 31.9323,0.908854 31.6719,1.16406 C31.4115,1.41927 31.2552,1.54688 31.2031,1.54688 C30.974,1.54688 30.8281,1.26042 30.7656,0.6875 C30.651,-0.177083 30.2813,-1.18229 29.6563,-2.32813 M34.2031,-2.40625 L34.375,-2.67188 C35.4688,-1.86979 36.1432,-1.23958 36.3984,-0.78125 C36.6536,-0.322917 36.7813,-0.00520833 36.7813,0.171875 C36.7813,0.463542 36.6536,0.752604 36.3984,1.03906 C36.1432,1.32552 35.9844,1.46875 35.9219,1.46875 C35.6927,1.46875 35.5208,1.125 35.4063,0.4375 C35.2396,-0.541667 34.8385,-1.48958 34.2031,-2.40625 M38.8438,-2.67188 L39.0156,-2.92188 C40.1615,-2.11979 40.9505,-1.43229 41.3828,-0.859375 C41.8151,-0.286458 42.0313,0.145833 42.0313,0.4375 C42.0313,0.71875 41.9167,1.0026 41.6875,1.28906 C41.4583,1.57552 41.3125,1.71875 41.25,1.71875 C41.0208,1.71875 40.8229,1.375 40.6563,0.6875 C40.3646,-0.291667 39.7604,-1.41146 38.8438,-2.67188 "/>
</g>

<g fill="#e74c3c" fill-opacity="1" stroke="none" transform="matrix(0.5,0,0,0.5,69.1,60)"
font-family="SimSun" font-size="9" font-weight="400" font-style="normal" 
>
<path fill-rule="evenodd" d="M14.9531,-8 C14.9531,-5.1875 14.9844,-3.23958 15.0469,-2.15625 L13.8438,-1.64063 L13.8438,-3.4375 L8.34375,-3.4375 L8.34375,-2.15625 L7.14063,-1.54688 C7.19271,-2.92188 7.21875,-4.26823 7.21875,-5.58594 C7.21875,-6.90365 7.19271,-8.22396 7.14063,-9.54688 L8.25,-8.76563 L10.4063,-8.76563 L10.4063,-11.8594 L7.65625,-11.8594 C6.90625,-11.8594 6.21875,-11.776 5.59375,-11.6094 L4.8125,-12.375 L10.4063,-12.375 C10.4063,-13.4688 10.375,-14.6719 10.3125,-15.9844 L12.2031,-15.0469 L11.5156,-14.5313 L11.5156,-12.375 L14.6094,-12.375 L15.6406,-13.4063 L17.1875,-11.8594 L11.5156,-11.8594 L11.5156,-8.76563 L13.6719,-8.76563 L14.3594,-9.54688 L15.6406,-8.51563 L14.9531,-8 M8.34375,-8.25 L8.34375,-3.95313 L13.8438,-3.95313 L13.8438,-8.25 L8.34375,-8.25 M2.75,2.15625 C2.8125,0.65625 2.84375,-0.4375 2.84375,-1.125 L2.84375,-14.0156 C2.84375,-14.9844 2.8125,-16.2135 2.75,-17.7031 L3.95313,-16.9375 L17.625,-16.9375 L18.3906,-17.7969 L19.7656,-16.6719 L19,-16.0781 L19,-2.5 C19,-1.35417 19.026,-0.0625 19.0781,1.375 L17.7969,1.98438 L17.7969,0.09375 L4.04688,0.09375 L4.04688,1.54688 L2.75,2.15625 M4.04688,-16.4219 L4.04688,-0.4375 L17.7969,-0.4375 L17.7969,-16.4219 L4.04688,-16.4219 M31.7969,-17.9688 L34.0313,-16.9375 L33.1719,-16.5 C33.0573,-15.7604 32.9167,-14.875 32.75,-13.8438 L39.3594,-13.8438 L40.6563,-15.125 L42.4531,-13.3281 L33.5156,-13.3281 C34.724,-11.2031 36.2161,-9.68229 37.9922,-8.76563 C39.7682,-7.84896 41.401,-7.33333 42.8906,-7.21875 L42.8906,-6.875 C41.7969,-6.70833 41.1927,-6.33854 41.0781,-5.76563 C38.7344,-6.61979 36.9453,-7.75 35.7109,-9.15625 C34.4766,-10.5625 33.6042,-11.9531 33.0938,-13.3281 L32.6563,-13.3281 C32.0833,-11.6094 31.3958,-10.2344 30.5938,-9.20313 C31.625,-8.79688 32.4714,-8.39323 33.1328,-7.99219 C33.7943,-7.59115 34.125,-7.17708 34.125,-6.75 C34.125,-6.32292 34.0521,-6.02344 33.9063,-5.85156 C33.7604,-5.67969 33.6615,-5.59375 33.6094,-5.59375 C33.3802,-5.59375 33.0938,-5.88021 32.75,-6.45313 C32.2292,-7.25521 31.4271,-8.05729 30.3438,-8.85938 C28.5625,-7.25521 26.125,-6.07813 23.0313,-5.32813 L22.8594,-5.67188 C25.099,-6.30729 26.9349,-7.23958 28.3672,-8.46875 C29.7995,-9.69792 30.8021,-11.3177 31.375,-13.3281 L26.2188,-13.3281 C25.4688,-13.3281 24.7813,-13.2396 24.1563,-13.0625 L23.375,-13.8438 L31.4531,-13.8438 C31.6823,-15.5 31.7969,-16.875 31.7969,-17.9688 M26.5625,-4.29688 C26.5625,-3.26563 26.4609,-2.36458 26.2578,-1.59375 C26.0547,-0.822917 25.7969,-0.364583 25.4844,-0.21875 C25.1719,-0.0729167 24.901,0 24.6719,0 C24.3802,0 24.1354,-0.0442708 23.9375,-0.132813 C23.7396,-0.221354 23.6406,-0.322917 23.6406,-0.4375 C23.6406,-0.604167 23.8698,-0.890625 24.3281,-1.29688 C25.0156,-1.80729 25.6458,-2.83854 26.2188,-4.39063 L26.5625,-4.29688 M30.9375,-5.5 L31.1094,-5.76563 C32.2031,-5.30729 33.0208,-4.89063 33.5625,-4.51563 C34.1042,-4.14063 34.362,-3.7526 34.3359,-3.35156 C34.3099,-2.95052 34.1953,-2.63542 33.9922,-2.40625 C33.7891,-2.17708 33.6615,-2.0625 33.6094,-2.0625 C33.3802,-2.0625 33.1771,-2.32292 33,-2.84375 C32.7188,-3.53125 32.0313,-4.41667 30.9375,-5.5 M37.9063,-4.46875 L38.1563,-4.64063 C39.5313,-3.90104 40.4766,-3.28646 40.9922,-2.79688 C41.5078,-2.30729 41.724,-1.83333 41.6406,-1.375 C41.5573,-0.916667 41.4141,-0.601563 41.2109,-0.429688 C41.0078,-0.257813 40.8802,-0.171875 40.8281,-0.171875 C40.599,-0.171875 40.3698,-0.515625 40.1406,-1.20313 C39.7969,-2.11979 39.0521,-3.20833 37.9063,-4.46875 M28.5313,-0.171875 C28.5313,-2.52604 28.5052,-4.33333 28.4531,-5.59375 L30.4219,-4.5625 L29.7344,-3.95313 L29.7344,-0.609375 C29.6198,0.140625 29.9635,0.489583 30.7656,0.4375 L35.3281,0.4375 C36.0156,0.4375 36.4167,0.148438 36.5313,-0.429688 C36.6458,-1.00781 36.7031,-1.89583 36.7031,-3.09375 L37.125,-3.09375 C37.1875,-2.0625 37.276,-1.26042 37.3906,-0.6875 C37.5052,-0.114583 37.849,0.229167 38.4219,0.34375 C37.9635,1.14583 37.1615,1.52083 36.0156,1.46875 L30.8594,1.46875 C29.2552,1.58333 28.4792,1.03646 28.5313,-0.171875 "/>
</g>

<g fill="#e74c3c" fill-opacity="1" stroke="none" transform="matrix(0.5,0,0,0.5,148.188,109.5)"
font-family="SimSun" font-size="9" font-weight="400" font-style="normal" 
>
<path fill-rule="evenodd" d="M11.6875,-4.64063 L11.6875,-0.09375 L17.0156,-0.09375 L17.0156,-4.64063 L11.6875,-4.64063 M12.8125,-17.9688 C13.8438,-17.4479 14.5156,-17.0443 14.8281,-16.7578 C15.1406,-16.4714 15.2969,-16.2135 15.2969,-15.9844 C15.2969,-15.7031 15.099,-15.3333 14.7031,-14.875 L18.3125,-14.875 L19,-15.6406 L20.4531,-14.1875 C19.599,-14.125 18.7135,-13.4635 17.7969,-12.2031 L17.5313,-12.375 L18.3906,-14.3594 L10.2344,-14.3594 C10.2865,-13.9531 10.3125,-13.6354 10.3125,-13.4063 C10.3125,-13.125 10.2708,-12.8542 10.1875,-12.5938 C10.1042,-12.3333 9.94792,-12.1745 9.71875,-12.1172 C9.48958,-12.0599 9.28646,-12.0313 9.10938,-12.0313 C8.94271,-12.0313 8.77344,-12.0755 8.60156,-12.1641 C8.42969,-12.2526 8.54167,-12.5521 8.9375,-13.0625 C9.28125,-13.5208 9.56771,-14.3802 9.79688,-15.6406 L10.1406,-15.6406 L10.2344,-14.875 L14.0156,-14.875 C13.8385,-15.9583 13.3802,-16.9323 12.6406,-17.7969 L12.8125,-17.9688 M11.9531,-13.3281 L13.4063,-12.125 C12.9479,-11.9479 12.3177,-11.4896 11.5156,-10.75 C10.7135,-10 9.85417,-9.33854 8.9375,-8.76563 L8.76563,-9.03125 C10.1406,-10.2292 11.2031,-11.6615 11.9531,-13.3281 M15.2188,-12.8125 C16.6458,-12.3542 17.5755,-11.9531 18.0078,-11.6094 C18.4401,-11.2656 18.6563,-10.8906 18.6563,-10.4844 C18.6563,-10.3177 18.599,-10.0625 18.4844,-9.71875 C18.3698,-9.375 18.2552,-9.20313 18.1406,-9.20313 C17.9635,-9.20313 17.7604,-9.45833 17.5313,-9.96875 C17.0729,-10.7188 16.2448,-11.5781 15.0469,-12.5469 L15.2188,-12.8125 M13.6719,-11.3438 L15.125,-10.2344 C14.8438,-10.1719 14.5885,-9.96875 14.3594,-9.625 C16.1927,-7.5625 18.4531,-6.33333 21.1406,-5.9375 L21.1406,-5.59375 C20.401,-5.36458 19.9427,-5.02083 19.7656,-4.5625 C17.0156,-5.9375 15.125,-7.54167 14.0938,-9.375 C13.0104,-7.88542 11.8646,-6.65104 10.6563,-5.67188 L11.6875,-5.15625 L16.8438,-5.15625 L17.3594,-5.84375 L18.7344,-4.73438 L18.1406,-4.29688 C18.1406,-1.02604 18.1667,0.864583 18.2188,1.375 L17.0156,1.89063 L17.0156,0.4375 L11.6875,0.4375 L11.6875,1.64063 L10.4844,2.15625 C10.5469,1.29167 10.5781,-1.29167 10.5781,-5.59375 C9.71354,-4.95833 8.73958,-4.38542 7.65625,-3.875 L7.48438,-4.125 C8.56771,-4.8125 9.68229,-5.78646 10.8281,-7.04688 C11.974,-8.30729 12.9219,-9.73958 13.6719,-11.3438 M4.125,-17.7031 L6.01563,-16.8438 L5.32813,-16.1563 L5.32813,-10.4844 C6.35938,-11.974 6.98958,-13.1198 7.21875,-13.9219 L8.42188,-12.6406 C8.02604,-12.4635 7.625,-12.1458 7.21875,-11.6875 C6.76042,-11.2292 6.13021,-10.6302 5.32813,-9.89063 C5.27604,-7.25521 5.21875,-5.67708 5.15625,-5.15625 C6.47917,-4.46875 7.29688,-3.9401 7.60938,-3.57031 C7.92188,-3.20052 8.07813,-2.84375 8.07813,-2.5 C8.07813,-2.27083 7.99219,-1.98438 7.82031,-1.64063 C7.64844,-1.29688 7.53646,-1.125 7.48438,-1.125 C7.30729,-1.125 7.13542,-1.41146 6.96875,-1.98438 C6.625,-2.78646 5.99479,-3.70313 5.07813,-4.73438 C4.50521,-1.69271 3.1875,0.604167 1.125,2.15625 L0.953125,1.98438 C2.38021,0.255208 3.28125,-1.58333 3.65625,-3.53125 C4.03125,-5.47917 4.21875,-7.57031 4.21875,-9.80469 C4.21875,-12.0391 4.1875,-14.6719 4.125,-17.7031 M2.75,-12.2031 C2.97917,-10.4844 3.03646,-9.38281 2.92188,-8.89844 C2.80729,-8.41406 2.59375,-8.1276 2.28125,-8.03906 C1.96875,-7.95052 1.75521,-7.90625 1.64063,-7.90625 C1.46354,-7.90625 1.33333,-7.9349 1.25,-7.99219 C1.16667,-8.04948 1.125,-8.10938 1.125,-8.17188 C1.125,-8.33854 1.26563,-8.65104 1.54688,-9.10938 C1.89063,-9.68229 2.17708,-10.7135 2.40625,-12.2031 L2.75,-12.2031 M26.7344,2.0625 C26.7865,0.229167 26.8125,-1.52083 26.8125,-3.1875 L26.8125,-10.75 C25.5521,-8.85417 24.349,-7.30729 23.2031,-6.10938 L22.9531,-6.35938 C24.2135,-8.14063 25.388,-10.2057 26.4766,-12.5547 C27.5651,-14.9036 28.25,-16.6771 28.5313,-17.875 L30.4219,-16.7656 L29.5625,-16.25 C28.8229,-14.5833 28.1354,-13.151 27.5,-11.9531 L28.7031,-11.2656 L28.0156,-10.5781 L28.0156,-1.20313 C28.0156,-0.578125 28.0469,0.28125 28.1094,1.375 L26.7344,2.0625 M33.8594,-7.3125 L33.8594,-13.5 C33.8594,-14.7604 33.8333,-16.2188 33.7813,-17.875 L35.75,-16.9375 L35.0625,-16.25 L35.0625,-8.25 C35.8646,-9 36.7396,-9.94792 37.6875,-11.0938 C38.6354,-12.2396 39.3073,-13.1563 39.7031,-13.8438 L41.25,-12.375 L40.3125,-12.125 C38.6458,-10.2292 36.8958,-8.47917 35.0625,-6.875 L35.0625,-1.46875 C35.0625,-0.489583 35.5521,0 36.5313,0 L40.2188,0 C40.6771,0 40.9635,-0.372396 41.0781,-1.11719 C41.1927,-1.86198 41.25,-3.01042 41.25,-4.5625 L41.6875,-4.5625 C41.8021,-3.01042 41.9453,-1.97656 42.1172,-1.46094 C42.2891,-0.945313 42.6042,-0.604167 43.0625,-0.4375 C42.5417,0.604167 41.7083,1.125 40.5625,1.125 L36.0156,1.125 C34.5781,1.125 33.8594,0.463542 33.8594,-0.859375 L33.8594,-6.10938 C32.3698,-4.96354 30.651,-3.98958 28.7031,-3.1875 L28.625,-3.53125 C30.625,-4.67708 32.3698,-5.9375 33.8594,-7.3125 "/>
</g>

<g fill="#e74c3c" fill-opacity="1" stroke="none" transform="matrix(0.5,0,0,0.5,224.5,60)"
font-family="SimSun" font-size="9" font-weight="400" font-style="normal" 
>
<path fill-rule="evenodd" d="M6.875,-14.875 L13.1563,-14.875 C12.9792,-15.9063 12.4323,-16.8802 11.5156,-17.7969 L11.6875,-17.9688 C13.0625,-17.4479 13.8516,-17.0313 14.0547,-16.7188 C14.2578,-16.4063 14.3594,-16.1354 14.3594,-15.9063 C14.3594,-15.5625 14.1875,-15.2188 13.8438,-14.875 L17.7031,-14.875 L19,-16.0781 L20.5469,-14.3594 L9.71875,-14.3594 C8.96875,-14.3594 8.28125,-14.2708 7.65625,-14.0938 L6.875,-14.875 M9.625,-1.125 C9.625,-0.197917 9.65625,0.75 9.71875,1.71875 L8.51563,2.15625 C8.56771,0.895833 8.59375,-0.255208 8.59375,-1.29688 L8.59375,-8.17188 C7.85417,-7.02604 6.9375,-5.9375 5.84375,-4.90625 L5.67188,-5.15625 C6.81771,-6.64583 7.83594,-8.30729 8.72656,-10.1406 C9.61719,-11.974 10.1771,-13.349 10.4063,-14.2656 L12.0313,-13.1563 L11.4375,-12.8125 C10.75,-11.6667 10.0885,-10.5469 9.45313,-9.45313 L10.4063,-8.76563 L9.625,-8.25 L9.625,-1.125 M15.7344,-13.1563 L15.0469,-12.8125 C14.7031,-12.0625 14.4427,-11.4896 14.2656,-11.0938 L17.7031,-11.0938 L18.3125,-11.9531 L19.5938,-10.75 L19,-10.3125 C18.3125,-7.16667 17.3385,-4.58854 16.0781,-2.57813 C17.3906,-1.03646 19.0521,-0.0625 21.0625,0.34375 L21.0625,0.6875 C20.1458,0.802083 19.6302,1.14583 19.5156,1.71875 C17.9635,0.916667 16.5573,-0.203125 15.2969,-1.64063 C13.8073,-0.0260417 12.0625,1.23958 10.0625,2.15625 L9.89063,1.89063 C11.5469,0.859375 13.1198,-0.604167 14.6094,-2.5 C13.7552,-4.21875 13.125,-5.96354 12.7188,-7.73438 C12.0938,-6.65104 11.4375,-5.76563 10.75,-5.07813 L10.4844,-5.25 C11.4635,-6.79167 12.2526,-8.4375 12.8516,-10.1875 C13.4505,-11.9375 13.8385,-13.2396 14.0156,-14.0938 L15.7344,-13.1563 M14.0938,-10.5781 L12.9844,-8.17188 C13.5573,-6.33854 14.3021,-4.76042 15.2188,-3.4375 C16.4167,-5.33333 17.276,-7.71354 17.7969,-10.5781 L14.0938,-10.5781 M14.1875,-9.28125 C15.1042,-8.59375 15.6484,-8.09375 15.8203,-7.78125 C15.9922,-7.46875 16.0781,-7.28125 16.0781,-7.21875 C16.0781,-6.98958 15.9635,-6.73177 15.7344,-6.44531 C15.5052,-6.15885 15.3594,-6.01563 15.2969,-6.01563 C15.1302,-6.01563 15.0156,-6.21875 14.9531,-6.625 C14.8385,-7.25 14.526,-8.07813 14.0156,-9.10938 L14.1875,-9.28125 M7.39063,-13.5781 C5.73438,-7.61979 4.82031,-4.28385 4.64844,-3.57031 C4.47656,-2.85677 4.39063,-1.98177 4.39063,-0.945313 C4.39063,0.0911458 4.39063,0.765625 4.39063,1.07813 C4.39063,1.39063 4.27604,1.54688 4.04688,1.54688 C3.86979,1.54688 3.59635,1.46094 3.22656,1.28906 C2.85677,1.11719 2.67188,0.833333 2.67188,0.4375 C2.67188,0.208333 2.75521,-0.197917 2.92188,-0.78125 C3.03646,-1.23958 3.09375,-1.66667 3.09375,-2.0625 C3.09375,-2.46875 2.97917,-2.78646 2.75,-3.01563 C2.52083,-3.24479 1.97917,-3.47396 1.125,-3.70313 L1.125,-4.04688 C2.15625,-3.93229 2.78646,-3.88802 3.01563,-3.91406 C3.24479,-3.9401 3.53125,-4.19792 3.875,-4.6875 C4.21875,-5.17708 5.27604,-8.17188 7.04688,-13.6719 L7.39063,-13.5781 M1.20313,-11.8594 C3.09896,-10.8906 4.07552,-10.1328 4.13281,-9.58594 C4.1901,-9.03906 4.11719,-8.65104 3.91406,-8.42188 C3.71094,-8.19271 3.55208,-8.07813 3.4375,-8.07813 C3.27083,-8.07813 3.09896,-8.33854 2.92188,-8.85938 C2.64063,-9.54688 2.01042,-10.4896 1.03125,-11.6875 L1.20313,-11.8594 M2.67188,-16.8438 C4.27604,-16.1042 5.14844,-15.5755 5.28906,-15.2578 C5.42969,-14.9401 5.5,-14.724 5.5,-14.6094 C5.5,-14.3281 5.40104,-14.0286 5.20313,-13.7109 C5.00521,-13.3932 4.84896,-13.2344 4.73438,-13.2344 C4.55729,-13.2344 4.41146,-13.4635 4.29688,-13.9219 C4.01563,-14.6719 3.41667,-15.5885 2.5,-16.6719 L2.67188,-16.8438 M31.7969,-17.9688 L34.0313,-16.9375 L33.1719,-16.5 C33.0573,-15.7604 32.9167,-14.875 32.75,-13.8438 L39.3594,-13.8438 L40.6563,-15.125 L42.4531,-13.3281 L33.5156,-13.3281 C34.724,-11.2031 36.2161,-9.68229 37.9922,-8.76563 C39.7682,-7.84896 41.401,-7.33333 42.8906,-7.21875 L42.8906,-6.875 C41.7969,-6.70833 41.1927,-6.33854 41.0781,-5.76563 C38.7344,-6.61979 36.9453,-7.75 35.7109,-9.15625 C34.4766,-10.5625 33.6042,-11.9531 33.0938,-13.3281 L32.6563,-13.3281 C32.0833,-11.6094 31.3958,-10.2344 30.5938,-9.20313 C31.625,-8.79688 32.4714,-8.39323 33.1328,-7.99219 C33.7943,-7.59115 34.125,-7.17708 34.125,-6.75 C34.125,-6.32292 34.0521,-6.02344 33.9063,-5.85156 C33.7604,-5.67969 33.6615,-5.59375 33.6094,-5.59375 C33.3802,-5.59375 33.0938,-5.88021 32.75,-6.45313 C32.2292,-7.25521 31.4271,-8.05729 30.3438,-8.85938 C28.5625,-7.25521 26.125,-6.07813 23.0313,-5.32813 L22.8594,-5.67188 C25.099,-6.30729 26.9349,-7.23958 28.3672,-8.46875 C29.7995,-9.69792 30.8021,-11.3177 31.375,-13.3281 L26.2188,-13.3281 C25.4688,-13.3281 24.7813,-13.2396 24.1563,-13.0625 L23.375,-13.8438 L31.4531,-13.8438 C31.6823,-15.5 31.7969,-16.875 31.7969,-17.9688 M26.5625,-4.29688 C26.5625,-3.26563 26.4609,-2.36458 26.2578,-1.59375 C26.0547,-0.822917 25.7969,-0.364583 25.4844,-0.21875 C25.1719,-0.0729167 24.901,0 24.6719,0 C24.3802,0 24.1354,-0.0442708 23.9375,-0.132813 C23.7396,-0.221354 23.6406,-0.322917 23.6406,-0.4375 C23.6406,-0.604167 23.8698,-0.890625 24.3281,-1.29688 C25.0156,-1.80729 25.6458,-2.83854 26.2188,-4.39063 L26.5625,-4.29688 M30.9375,-5.5 L31.1094,-5.76563 C32.2031,-5.30729 33.0208,-4.89063 33.5625,-4.51563 C34.1042,-4.14063 34.362,-3.7526 34.3359,-3.35156 C34.3099,-2.95052 34.1953,-2.63542 33.9922,-2.40625 C33.7891,-2.17708 33.6615,-2.0625 33.6094,-2.0625 C33.3802,-2.0625 33.1771,-2.32292 33,-2.84375 C32.7188,-3.53125 32.0313,-4.41667 30.9375,-5.5 M37.9063,-4.46875 L38.1563,-4.64063 C39.5313,-3.90104 40.4766,-3.28646 40.9922,-2.79688 C41.5078,-2.30729 41.724,-1.83333 41.6406,-1.375 C41.5573,-0.916667 41.4141,-0.601563 41.2109,-0.429688 C41.0078,-0.257813 40.8802,-0.171875 40.8281,-0.171875 C40.599,-0.171875 40.3698,-0.515625 40.1406,-1.20313 C39.7969,-2.11979 39.0521,-3.20833 37.9063,-4.46875 M28.5313,-0.171875 C28.5313,-2.52604 28.5052,-4.33333 28.4531,-5.59375 L30.4219,-4.5625 L29.7344,-3.95313 L29.7344,-0.609375 C29.6198,0.140625 29.9635,0.489583 30.7656,0.4375 L35.3281,0.4375 C36.0156,0.4375 36.4167,0.148438 36.5313,-0.429688 C36.6458,-1.00781 36.7031,-1.89583 36.7031,-3.09375 L37.125,-3.09375 C37.1875,-2.0625 37.276,-1.26042 37.3906,-0.6875 C37.5052,-0.114583 37.849,0.229167 38.4219,0.34375 C37.9635,1.14583 37.1615,1.52083 36.0156,1.46875 L30.8594,1.46875 C29.2552,1.58333 28.4792,1.03646 28.5313,-0.171875 "/>
</g>
</g>
</svg>
