<?xml version="1.0" encoding="UTF-8" standalone="no"?>
<svg width="127mm" height="79.375mm"
 viewBox="0 0 360 225"
 xmlns="http://www.w3.org/2000/svg" xmlns:xlink="http://www.w3.org/1999/xlink"  version="1.2" baseProfile="tiny">


<defs>
</defs>
<g fill="none" stroke="black" stroke-width="1" fill-rule="evenodd" stroke-linecap="square" stroke-linejoin="bevel" >



<g fill="#999999" fill-opacity="1" stroke="#999999" stroke-opacity="1" stroke-width="3" stroke-linecap="butt" stroke-linejoin="round" transform="matrix(0.5,0,0,0.5,0,0)"
font-family="SimSun" font-size="9" font-weight="400" font-style="normal" 
>
<polyline fill="none" points="45,270 675,270 " />
</g>

<g fill="none" stroke="#333333" stroke-opacity="1" stroke-width="4" stroke-linecap="butt" stroke-linejoin="round" transform="matrix(0.5,0,0,0.5,0,0)"
font-family="SimSun" font-size="9" font-weight="400" font-style="normal" 
>
<polyline fill="none" points="300,270 420,270 420,180 300,180 300,270 " />
</g>

<g fill="#f2f7ff" fill-opacity="0.501961" stroke="none" transform="matrix(5e-05,0,0,5e-05,0,0)"
font-family="SimSun" font-size="9" font-weight="400" font-style="normal" 
>
<path fill-rule="evenodd" d="M3e+06,2.7e+06 L4.2e+06,2.7e+06 L4.2e+06,1.8e+06 L3e+06,1.8e+06 L3e+06,2.7e+06"/>
</g>

<g fill="#e74c3c" fill-opacity="1" stroke="#e74c3c" stroke-opacity="1" stroke-width="5" stroke-linecap="butt" stroke-linejoin="round" transform="matrix(0.5,0,0,0.5,0,0)"
font-family="SimSun" font-size="9" font-weight="400" font-style="normal" 
>
<polyline fill="none" points="360,225 360,90 " />
</g>

<g fill="#e74c3c" fill-opacity="1" stroke="none" transform="matrix(5e-05,0,0,5e-05,0,0)"
font-family="SimSun" font-size="9" font-weight="400" font-style="normal" 
>
<path fill-rule="evenodd" d="M3.6e+06,900000 L3.525e+06,1.0299e+06 L3.675e+06,1.0299e+06 L3.6e+06,900000"/>
</g>

<g fill="#e74c3c" fill-opacity="1" stroke="none" transform="matrix(0.5,0,0,0.5,172.5,76.5)"
font-family="SimSun" font-size="9" font-weight="400" font-style="normal" 
>
<path fill-rule="evenodd" d="M7.10938,-18.5938 C6.01563,-18.5938 5.01302,-17.8464 4.10156,-16.3516 C3.1901,-14.8568 2.73438,-12.5781 2.73438,-9.51563 C2.73438,-7.47396 3.08073,-5.54167 3.77344,-3.71875 C4.46615,-1.89583 5.61458,-0.984375 7.21875,-0.984375 C8.02083,-0.984375 8.65885,-1.14844 9.13281,-1.47656 C9.60677,-1.80469 9.88021,-2.29688 9.95313,-2.95313 L9.95313,-6.67188 C9.95313,-7.10938 9.84375,-7.4375 9.625,-7.65625 C9.40625,-7.875 9.07813,-7.98438 8.64063,-7.98438 L7.98438,-7.98438 L7.98438,-8.64063 L13.4531,-8.64063 L13.4531,-7.98438 L12.9063,-7.98438 C12.5417,-7.98438 12.25,-7.875 12.0313,-7.65625 C11.8125,-7.4375 11.7031,-7.14583 11.7031,-6.78125 L11.7031,-1.3125 C11.5573,-1.38542 11.4297,-1.4401 11.3203,-1.47656 C11.2109,-1.51302 11.0833,-1.53125 10.9375,-1.53125 C10.7917,-1.53125 10.6458,-1.51302 10.5,-1.47656 C10.3542,-1.4401 10.2083,-1.34896 10.0625,-1.20313 C9.625,-0.838542 9.16927,-0.583333 8.69531,-0.4375 C8.22135,-0.291667 7.69271,-0.21875 7.10938,-0.21875 C4.92188,-0.21875 3.31771,-1.1849 2.29688,-3.11719 C1.27604,-5.04948 0.765625,-7.18229 0.765625,-9.51563 C0.765625,-12.2135 1.36719,-14.5286 2.57031,-16.4609 C3.77344,-18.3932 5.28646,-19.3594 7.10938,-19.3594 C7.54688,-19.3594 8.05729,-19.25 8.64063,-19.0313 C9.22396,-18.8125 9.58854,-18.7031 9.73438,-18.7031 C9.95313,-18.7031 10.1719,-18.7578 10.3906,-18.8672 C10.6094,-18.9766 10.7917,-19.1406 10.9375,-19.3594 L11.8125,-14.4375 L11.1563,-14.2188 C10.7188,-15.75 10.1719,-16.862 9.51563,-17.5547 C8.85938,-18.2474 8.05729,-18.5938 7.10938,-18.5938 M28.875,-12.3594 L28.875,-13.3438 L41.0156,-13.3438 L41.0156,-12.3594 L28.875,-12.3594 M28.875,-6.78125 L28.875,-7.76563 L41.0156,-7.76563 L41.0156,-6.78125 L28.875,-6.78125 M56.7656,-12.6875 C57.1302,-12.6875 57.4948,-12.724 57.8594,-12.7969 C58.224,-12.8698 58.5156,-12.9792 58.7344,-13.125 L58.9531,-13.125 L58.9531,-11.2656 C59.3177,-11.849 59.7188,-12.2682 60.1563,-12.5234 C60.5938,-12.7786 61.0677,-12.9063 61.5781,-12.9063 C62.2344,-12.9063 62.7448,-12.7786 63.1094,-12.5234 C63.474,-12.2682 63.6927,-11.849 63.7656,-11.2656 C64.1302,-11.849 64.5495,-12.2682 65.0234,-12.5234 C65.4974,-12.7786 65.9896,-12.9063 66.5,-12.9063 C67.375,-12.9063 67.9766,-12.651 68.3047,-12.1406 C68.6328,-11.6302 68.7969,-10.974 68.7969,-10.1719 L68.7969,-1.85938 C68.7969,-1.56771 68.8698,-1.36719 69.0156,-1.25781 C69.1615,-1.14844 69.3802,-1.09375 69.6719,-1.09375 L69.8906,-1.09375 L69.8906,-0.4375 L66.1719,-0.4375 L66.1719,-1.09375 L66.3906,-1.09375 C66.6823,-1.09375 66.901,-1.14844 67.0469,-1.25781 C67.1927,-1.36719 67.2656,-1.56771 67.2656,-1.85938 L67.2656,-10.0625 C67.2656,-10.8646 67.1745,-11.3932 66.9922,-11.6484 C66.8099,-11.9036 66.5365,-12.0313 66.1719,-12.0313 C65.6615,-12.0313 65.2057,-11.849 64.8047,-11.4844 C64.4036,-11.1198 64.0938,-10.6094 63.875,-9.95313 L63.875,-1.85938 C63.875,-1.56771 63.9479,-1.36719 64.0938,-1.25781 C64.2396,-1.14844 64.4583,-1.09375 64.75,-1.09375 L64.9688,-1.09375 L64.9688,-0.4375 L61.25,-0.4375 L61.25,-1.09375 L61.4688,-1.09375 C61.7604,-1.09375 61.9792,-1.14844 62.125,-1.25781 C62.2708,-1.36719 62.3438,-1.56771 62.3438,-1.85938 L62.3438,-10.0625 C62.3438,-10.7188 62.2708,-11.2109 62.125,-11.5391 C61.9792,-11.8672 61.6875,-12.0313 61.25,-12.0313 C60.7396,-12.0313 60.2839,-11.849 59.8828,-11.4844 C59.4818,-11.1198 59.1719,-10.5729 58.9531,-9.84375 L58.9531,-1.85938 C58.9531,-1.56771 59.026,-1.36719 59.1719,-1.25781 C59.3177,-1.14844 59.5365,-1.09375 59.8281,-1.09375 L60.0469,-1.09375 L60.0469,-0.4375 L56.3281,-0.4375 L56.3281,-1.09375 L56.5469,-1.09375 C56.8385,-1.09375 57.0573,-1.14844 57.2031,-1.25781 C57.349,-1.36719 57.4219,-1.56771 57.4219,-1.85938 L57.4219,-11.375 C57.4219,-11.5938 57.3854,-11.7578 57.3125,-11.8672 C57.2396,-11.9766 57.0938,-12.0313 56.875,-12.0313 L56.4375,-12.0313 L56.4375,-12.6875 L56.7656,-12.6875 M73.8281,-8.64063 C73.8281,-7.76563 74.0833,-7.01823 74.5938,-6.39844 C75.1042,-5.77865 75.7969,-5.46875 76.6719,-5.46875 C77.6198,-5.46875 78.3307,-5.74219 78.8047,-6.28906 C79.2786,-6.83594 79.5156,-7.61979 79.5156,-8.64063 C79.5156,-9.88021 79.2422,-10.7734 78.6953,-11.3203 C78.1484,-11.8672 77.474,-12.1406 76.6719,-12.1406 C75.8698,-12.1406 75.1953,-11.8672 74.6484,-11.3203 C74.1016,-10.7734 73.8281,-9.88021 73.8281,-8.64063 M79.1875,-2.73438 C80.2813,-2.58854 81.0833,-2.27865 81.5938,-1.80469 C82.1042,-1.33073 82.3594,-0.692708 82.3594,0.109375 C82.3594,1.20313 81.9036,2.07813 80.9922,2.73438 C80.0807,3.39063 78.6406,3.71875 76.6719,3.71875 C75.1406,3.71875 73.901,3.40885 72.9531,2.78906 C72.0052,2.16927 71.5313,1.45833 71.5313,0.65625 C71.5313,0.145833 71.7135,-0.364583 72.0781,-0.875 C72.4427,-1.38542 73.026,-1.78646 73.8281,-2.07813 C73.3906,-2.29688 73.0443,-2.53385 72.7891,-2.78906 C72.5339,-3.04427 72.4063,-3.35417 72.4063,-3.71875 C72.4063,-4.15625 72.5521,-4.53906 72.8438,-4.86719 C73.1354,-5.19531 73.5,-5.46875 73.9375,-5.6875 C73.5,-6.05208 73.1172,-6.48958 72.7891,-7 C72.4609,-7.51042 72.2969,-8.05729 72.2969,-8.64063 C72.2969,-9.73438 72.6797,-10.7005 73.4453,-11.5391 C74.2109,-12.3776 75.2865,-12.7969 76.6719,-12.7969 C77.2552,-12.7969 77.8203,-12.724 78.3672,-12.5781 C78.9141,-12.4323 79.3698,-12.1771 79.7344,-11.8125 C80.2448,-12.1771 80.7005,-12.4505 81.1016,-12.6328 C81.5026,-12.8151 81.849,-12.9063 82.1406,-12.9063 C82.5052,-12.9063 82.7604,-12.7786 82.9063,-12.5234 C83.0521,-12.2682 83.125,-12.0313 83.125,-11.8125 C83.125,-11.5208 83.0703,-11.2839 82.9609,-11.1016 C82.8516,-10.9193 82.651,-10.8281 82.3594,-10.8281 C82.1406,-10.8281 81.9583,-10.8828 81.8125,-10.9922 C81.6667,-11.1016 81.5573,-11.2656 81.4844,-11.4844 C81.4115,-11.7031 81.2474,-11.7943 80.9922,-11.7578 C80.737,-11.7214 80.4635,-11.5938 80.1719,-11.375 C80.4635,-11.0833 80.6823,-10.6823 80.8281,-10.1719 C80.974,-9.66146 81.0469,-9.15104 81.0469,-8.64063 C81.0469,-7.76563 80.7005,-6.90885 80.0078,-6.07031 C79.3151,-5.23177 78.2031,-4.8125 76.6719,-4.8125 C76.2344,-4.8125 75.8333,-4.86719 75.4688,-4.97656 C75.1042,-5.08594 74.8125,-5.21354 74.5938,-5.35938 C74.3021,-5.21354 74.0833,-5.03125 73.9375,-4.8125 C73.7917,-4.59375 73.7188,-4.41146 73.7188,-4.26563 C73.7188,-3.97396 73.7917,-3.75521 73.9375,-3.60938 C74.0833,-3.46354 74.3021,-3.39063 74.5938,-3.39063 C75.5417,-3.24479 76.3984,-3.11719 77.1641,-3.00781 C77.9297,-2.89844 78.6042,-2.80729 79.1875,-2.73438 M74.7031,-1.85938 C74.0469,-1.56771 73.5911,-1.22135 73.3359,-0.820313 C73.0807,-0.419271 72.9531,0.0729167 72.9531,0.65625 C72.9531,1.23958 73.2813,1.78646 73.9375,2.29688 C74.5938,2.80729 75.5781,3.0625 76.8906,3.0625 C78.1302,3.0625 79.1146,2.86198 79.8438,2.46094 C80.5729,2.0599 80.9375,1.45833 80.9375,0.65625 C80.9375,0.145833 80.8464,-0.255208 80.6641,-0.546875 C80.4818,-0.838542 80.2083,-1.02083 79.8438,-1.09375 C79.1146,-1.23958 78.3125,-1.38542 77.4375,-1.53125 C76.5625,-1.60417 75.651,-1.71354 74.7031,-1.85938 "/>
</g>

<g fill="#2ecc71" fill-opacity="1" stroke="#2ecc71" stroke-opacity="1" stroke-width="5" stroke-linecap="butt" stroke-linejoin="round" transform="matrix(0.5,0,0,0.5,0,0)"
font-family="SimSun" font-size="9" font-weight="400" font-style="normal" 
>
<polyline fill="none" points="360,225 360,360 " />
</g>

<g fill="#2ecc71" fill-opacity="1" stroke="none" transform="matrix(5e-05,0,0,5e-05,0,0)"
font-family="SimSun" font-size="9" font-weight="400" font-style="normal" 
>
<path fill-rule="evenodd" d="M3.6e+06,3.6e+06 L3.675e+06,3.4701e+06 L3.525e+06,3.4701e+06 L3.6e+06,3.6e+06"/>
</g>

<g fill="#2ecc71" fill-opacity="1" stroke="none" transform="matrix(0.5,0,0,0.5,190,159)"
font-family="SimSun" font-size="9" font-weight="400" font-style="normal" 
>
<path fill-rule="evenodd" d="M11.0469,-4.875 L11.2656,-4.875 L11.2656,-17.6094 C11.2656,-17.901 11.1927,-18.1198 11.0469,-18.2656 C10.901,-18.4115 10.6458,-18.4844 10.2813,-18.4844 L9.40625,-18.4844 L9.40625,-19.1406 L13.7813,-19.1406 L13.7813,-18.4844 L12.9063,-18.4844 C12.6146,-18.4844 12.3776,-18.4115 12.1953,-18.2656 C12.013,-18.1198 11.9219,-17.901 11.9219,-17.6094 L11.9219,-0.4375 L11.2656,-0.4375 L2.95313,-16.8125 L2.73438,-16.8125 L2.73438,-1.96875 C2.73438,-1.67708 2.82552,-1.45833 3.00781,-1.3125 C3.1901,-1.16667 3.42708,-1.09375 3.71875,-1.09375 L4.59375,-1.09375 L4.59375,-0.4375 L0.21875,-0.4375 L0.21875,-1.09375 L1.09375,-1.09375 C1.45833,-1.09375 1.71354,-1.16667 1.85938,-1.3125 C2.00521,-1.45833 2.07813,-1.67708 2.07813,-1.96875 L2.07813,-17.6094 C2.07813,-17.901 2.00521,-18.1198 1.85938,-18.2656 C1.71354,-18.4115 1.45833,-18.4844 1.09375,-18.4844 L0.4375,-18.4844 L0.4375,-19.1406 L3.60938,-19.1406 L11.0469,-4.875"/>
</g>

<g fill="#3498db" fill-opacity="1" stroke="#3498db" stroke-opacity="1" stroke-width="5" stroke-linecap="butt" stroke-linejoin="round" transform="matrix(0.5,0,0,0.5,0,0)"
font-family="SimSun" font-size="9" font-weight="400" font-style="normal" 
>
<polyline fill="none" points="360,225 510,225 " />
</g>

<g fill="#3498db" fill-opacity="1" stroke="none" transform="matrix(5e-05,0,0,5e-05,0,0)"
font-family="SimSun" font-size="9" font-weight="400" font-style="normal" 
>
<path fill-rule="evenodd" d="M5.1e+06,2.25e+06 L4.9701e+06,2.175e+06 L4.9701e+06,2.325e+06 L5.1e+06,2.25e+06"/>
</g>

<g fill="#3498db" fill-opacity="1" stroke="none" transform="matrix(0.5,0,0,0.5,225.25,129)"
font-family="SimSun" font-size="9" font-weight="400" font-style="normal" 
>
<path fill-rule="evenodd" d="M5.90625,-1.09375 L5.90625,-0.4375 L0.65625,-0.4375 L0.65625,-1.09375 L1.42188,-1.09375 C1.78646,-1.09375 2.04167,-1.16667 2.1875,-1.3125 C2.33333,-1.45833 2.40625,-1.67708 2.40625,-1.96875 L2.40625,-17.6094 C2.40625,-17.901 2.33333,-18.1198 2.1875,-18.2656 C2.04167,-18.4115 1.78646,-18.4844 1.42188,-18.4844 L0.765625,-18.4844 L0.765625,-19.1406 L12.1406,-19.1406 L13.4531,-15.2031 L12.9063,-14.9844 C12.3229,-16.151 11.6302,-17.026 10.8281,-17.6094 C10.026,-18.1927 9.15104,-18.4844 8.20313,-18.4844 L5.14063,-18.4844 C4.84896,-18.4844 4.61198,-18.4115 4.42969,-18.2656 C4.2474,-18.1198 4.15625,-17.901 4.15625,-17.6094 L4.15625,-10.6094 L7.76563,-10.6094 C8.49479,-10.6094 9.02344,-10.7734 9.35156,-11.1016 C9.67969,-11.4297 9.84375,-11.9583 9.84375,-12.6875 L9.84375,-13.2344 L10.5,-13.2344 L10.5,-6.89063 L9.84375,-6.89063 L9.84375,-7.32813 C9.84375,-8.20313 9.67969,-8.85938 9.35156,-9.29688 C9.02344,-9.73438 8.49479,-9.95313 7.76563,-9.95313 L4.15625,-9.95313 L4.15625,-1.96875 C4.15625,-1.67708 4.2474,-1.45833 4.42969,-1.3125 C4.61198,-1.16667 4.84896,-1.09375 5.14063,-1.09375 L5.90625,-1.09375"/>
</g>

<g fill="#e67e22" fill-opacity="1" stroke="#e67e22" stroke-opacity="1" stroke-width="5" stroke-linecap="butt" stroke-linejoin="round" transform="matrix(0.5,0,0,0.5,0,0)"
font-family="SimSun" font-size="9" font-weight="400" font-style="normal" 
>
<polyline fill="none" points="360,210 240,210 " />
</g>

<g fill="#e67e22" fill-opacity="1" stroke="none" transform="matrix(5e-05,0,0,5e-05,0,0)"
font-family="SimSun" font-size="9" font-weight="400" font-style="normal" 
>
<path fill-rule="evenodd" d="M2.4e+06,2.1e+06 L2.5299e+06,2.175e+06 L2.5299e+06,2.025e+06 L2.4e+06,2.1e+06"/>
</g>

<g fill="#e67e22" fill-opacity="1" stroke="none" transform="matrix(0.5,0,0,0.5,139,99)"
font-family="SimSun" font-size="9" font-weight="400" font-style="normal" 
>
<path fill-rule="evenodd" d="M4.92188,-14.5469 C4.92188,-16.0781 5.39583,-17.2266 6.34375,-17.9922 C7.29167,-18.7578 8.34896,-19.1406 9.51563,-19.1406 C10.7552,-19.1406 11.6849,-18.9219 12.3047,-18.4844 C12.9245,-18.0469 13.2344,-17.5365 13.2344,-16.9531 C13.2344,-16.6615 13.1615,-16.4063 13.0156,-16.1875 C12.8698,-15.9688 12.5781,-15.8594 12.1406,-15.8594 C11.849,-15.8594 11.612,-15.9323 11.4297,-16.0781 C11.2474,-16.224 11.1563,-16.4792 11.1563,-16.8438 C11.1563,-16.9167 11.1927,-17.026 11.2656,-17.1719 C11.2656,-17.3177 11.2656,-17.4271 11.2656,-17.5 C11.2656,-17.7917 11.1563,-18.0286 10.9375,-18.2109 C10.7188,-18.3932 10.2083,-18.4844 9.40625,-18.4844 C8.53125,-18.4844 7.82031,-18.2109 7.27344,-17.6641 C6.72656,-17.1172 6.45313,-16.1875 6.45313,-14.875 L6.45313,-12.6875 L11.0469,-12.6875 L11.0469,-12.0313 L6.45313,-12.0313 L6.45313,-1.96875 C6.45313,-1.67708 6.54427,-1.45833 6.72656,-1.3125 C6.90885,-1.16667 7.14583,-1.09375 7.4375,-1.09375 L10.0625,-1.09375 L10.0625,-0.4375 L2.07813,-0.4375 L2.07813,-1.09375 L3.9375,-1.09375 C4.30208,-1.09375 4.55729,-1.16667 4.70313,-1.3125 C4.84896,-1.45833 4.92188,-1.67708 4.92188,-1.96875 L4.92188,-12.0313 L1.53125,-12.0313 L1.53125,-12.6875 L4.92188,-12.6875 L4.92188,-14.5469"/>
</g>

<g fill="#333333" fill-opacity="1" stroke="none" transform="matrix(0.5,0,0,0.5,117,18.75)"
font-family="SimSun" font-size="9" font-weight="400" font-style="normal" 
>
<path fill-rule="evenodd" d="M4.26563,-19.6875 C7.54688,-19.9063 10.9375,-20.2891 14.4375,-20.8359 C17.9375,-21.3828 20.3438,-22.0208 21.6563,-22.75 L23.4063,-20.5625 C20.0521,-20.2708 17.026,-20.0156 14.3281,-19.7969 C11.5573,-19.5052 8.20313,-19.3229 4.26563,-19.25 L4.26563,-19.6875 M17.6094,-13.5625 C18.5573,-15.2396 19.3958,-17.2448 20.125,-19.5781 L22.6406,-17.9375 L21.4375,-17.5 C20.1979,-15.9688 19.1771,-14.6563 18.375,-13.5625 L23.2969,-13.5625 L24.2813,-14.7656 L26.4688,-12.5781 C25.1563,-12.4323 23.7708,-11.375 22.3125,-9.40625 L21.9844,-9.625 L23.4063,-12.9063 L4.92188,-12.9063 C5.06771,-11.375 4.92188,-10.3906 4.48438,-9.95313 C4.04688,-9.51563 3.55469,-9.35156 3.00781,-9.46094 C2.46094,-9.57031 2.1875,-9.73438 2.1875,-9.95313 C2.1875,-10.1719 2.40625,-10.5365 2.84375,-11.0469 C3.57292,-11.9219 4.08333,-13.2344 4.375,-14.9844 L4.8125,-14.9844 L4.92188,-13.5625 L7.4375,-13.5625 C7.36458,-14 7.21875,-14.6016 7,-15.3672 C6.78125,-16.1328 6.27083,-17.0625 5.46875,-18.1563 L5.79688,-18.375 C6.89063,-17.7917 7.71094,-17.2083 8.25781,-16.625 C8.80469,-16.0417 9.07813,-15.5677 9.07813,-15.2031 C9.07813,-14.6927 8.78646,-14.1458 8.20313,-13.5625 L13.2344,-13.5625 C13.0885,-14.5833 12.9063,-15.4219 12.6875,-16.0781 C12.4688,-16.7344 12.0677,-17.5729 11.4844,-18.5938 L11.8125,-18.8125 C12.7604,-18.2292 13.5078,-17.6094 14.0547,-16.9531 C14.6016,-16.2969 14.875,-15.75 14.875,-15.3125 C14.875,-14.7292 14.5469,-14.1458 13.8906,-13.5625 L17.6094,-13.5625 M5.57813,-9.51563 L18.0469,-9.51563 L19.1406,-10.6094 L21.1094,-8.75 L19.7969,-8.20313 C18.4844,-6.16146 16.9167,-4.30208 15.0938,-2.625 C18.2292,-0.583333 22.1302,0.291667 26.7969,0 L26.7969,0.4375 C25.3385,0.802083 24.5365,1.38542 24.3906,2.1875 C20.526,1.75 17.026,0.401042 13.8906,-1.85938 C10.3906,0.473958 6.34375,1.93229 1.75,2.51563 L1.64063,2.07813 C6.23438,1.05729 9.95313,-0.546875 12.7969,-2.73438 C11.1198,-4.55729 9.84375,-6.59896 8.96875,-8.85938 L7.4375,-8.85938 L6.45313,-8.64063 L5.57813,-9.51563 M9.51563,-8.85938 C10.6823,-6.81771 12.1406,-5.03125 13.8906,-3.5 C15.7135,-5.10417 17.1354,-6.89063 18.1563,-8.85938 L9.51563,-8.85938 M42.875,-21 C42.7292,-18.8854 42.6198,-17.026 42.5469,-15.4219 L50.75,-15.4219 L51.625,-16.625 L53.5938,-15.0938 L52.5,-14.2188 C52.1354,-8.75 51.7891,-5.08594 51.4609,-3.22656 C51.1328,-1.36719 50.6224,-0.0364583 49.9297,0.765625 C49.237,1.56771 48.1615,2.11458 46.7031,2.40625 C46.849,1.38542 45.7188,0.328125 43.3125,-0.765625 L43.4219,-1.3125 C45.2448,-0.802083 46.5573,-0.492188 47.3594,-0.382813 C48.1615,-0.273438 48.8177,-0.838542 49.3281,-2.07813 C49.8385,-3.31771 50.349,-7.54688 50.8594,-14.7656 L42.4375,-14.7656 C42.0729,-12.1406 41.4349,-9.78906 40.5234,-7.71094 C39.612,-5.63281 38.3177,-3.70052 36.6406,-1.91406 C34.9635,-0.127604 32.6302,1.45833 29.6406,2.84375 L29.5313,2.40625 C32.0104,0.947917 34.0703,-0.783854 35.7109,-2.78906 C37.3516,-4.79427 38.5547,-6.81771 39.3203,-8.85938 C40.0859,-10.901 40.5781,-12.8698 40.7969,-14.7656 L35.3281,-14.7656 C34.3802,-14.7656 33.5052,-14.6563 32.7031,-14.4375 L31.7188,-15.4219 L40.9063,-15.4219 C41.0521,-18.9219 41.0885,-21.474 41.0156,-23.0781 L43.8594,-21.875 L42.875,-21 M66.2813,-22.0938 L68.4688,-20.4531 L67.4844,-19.9063 C66.2448,-17.5729 64.8776,-15.4948 63.3828,-13.6719 C61.888,-11.849 59.974,-10.2448 57.6406,-8.85938 L57.4219,-9.1875 C59.3177,-10.7188 60.9948,-12.5234 62.4531,-14.6016 C63.9115,-16.6797 65.1875,-19.1771 66.2813,-22.0938 M73.9375,-21.7656 L73.0625,-21.2188 C73.8646,-18.3021 75.1771,-16.0417 77,-14.4375 C78.8229,-12.8333 80.7552,-11.849 82.7969,-11.4844 L82.7969,-11.1563 C81.7031,-11.0104 80.9375,-10.5365 80.5,-9.73438 C78.0938,-11.0469 76.1797,-12.7969 74.7578,-14.9844 C73.3359,-17.1719 72.3698,-19.724 71.8594,-22.6406 L73.9375,-21.7656 M62.0156,-11.4844 L74.4844,-11.4844 L75.5781,-12.5781 L77.1094,-11.0469 L76.2344,-10.3906 C76.0885,-4.63021 75.724,-1.14844 75.1406,0.0546875 C74.5573,1.25781 73.5365,2.11458 72.0781,2.625 C71.8594,1.45833 70.8385,0.619792 69.0156,0.109375 L69.0156,-0.328125 C70.8385,-0.0364583 72.0234,0.0911458 72.5703,0.0546875 C73.1172,0.0182292 73.5365,-0.401042 73.8281,-1.20313 C74.1198,-2.00521 74.4115,-5.21354 74.7031,-10.8281 L69.0156,-10.8281 C68.5781,-7.69271 67.7031,-5.04948 66.3906,-2.89844 C65.0781,-0.747396 62.5625,1.13021 58.8438,2.73438 L58.625,2.29688 C61.9063,0.619792 64.112,-1.36719 65.2422,-3.66406 C66.3724,-5.96094 67.0469,-8.34896 67.2656,-10.8281 L63.875,-10.8281 L62.8906,-10.6094 L62.0156,-11.4844 M104.125,2.51563 C104.198,-0.765625 104.234,-5.76042 104.234,-12.4688 L98.875,-12.4688 C98.875,-8.60417 98.4922,-5.65104 97.7266,-3.60938 C96.9609,-1.56771 95.3021,0.510417 92.75,2.625 L92.5313,2.29688 C94.4271,0.109375 95.7031,-1.96875 96.3594,-3.9375 C97.0156,-5.90625 97.3438,-8.6224 97.3438,-12.0859 C97.3438,-15.5495 97.3073,-18.5938 97.2344,-21.2188 L98.875,-20.125 C100.188,-20.2708 101.682,-20.5443 103.359,-20.9453 C105.036,-21.3464 106.385,-21.875 107.406,-22.5313 L109.266,-20.5625 C108.318,-20.6354 104.854,-20.3073 98.875,-19.5781 L98.875,-13.125 L107.516,-13.125 L108.828,-14.4375 L110.797,-12.4688 L105.766,-12.4688 L105.766,-4.04688 C105.766,-2.73438 105.802,-0.838542 105.875,1.64063 L104.125,2.51563 M91.4375,-12.25 C91.4375,-4.73958 91.474,0.0364583 91.5469,2.07813 L89.7969,2.73438 C89.8698,-0.765625 89.9063,-5.17708 89.9063,-10.5 C88.8125,-7.94792 87.4271,-5.61458 85.75,-3.5 L85.4219,-3.71875 C87.5365,-7.29167 89.0313,-11.3021 89.9063,-15.75 L87.1719,-15.75 L86.1875,-15.5313 L85.3125,-16.4063 L89.9063,-16.4063 C89.9063,-19.0313 89.8698,-21.2188 89.7969,-22.9688 L92.3125,-21.7656 L91.4375,-21 L91.4375,-16.4063 L92.9688,-16.4063 L94.1719,-17.6094 L96.0313,-15.75 L91.4375,-15.75 L91.4375,-12.9063 C93.1146,-12.0313 94.1719,-11.375 94.6094,-10.9375 C95.0469,-10.5 95.2656,-10.099 95.2656,-9.73438 C95.2656,-9.44271 95.138,-9.0599 94.8828,-8.58594 C94.6276,-8.11198 94.4271,-7.875 94.2813,-7.875 C94.0625,-7.875 93.8438,-8.20313 93.625,-8.85938 C93.2604,-9.88021 92.5313,-11.0104 91.4375,-12.25 M134.258,-0.875 C135.388,0 135.88,0.510417 135.734,0.65625 C135.589,0.802083 134.896,0.455729 133.656,-0.382813 C132.417,-1.22135 131.232,-2.33333 130.102,-3.71875 C128.971,-5.10417 128.315,-6.92708 128.133,-9.1875 C127.951,-11.4479 128.406,-13.4714 129.5,-15.2578 C130.594,-17.0443 131.888,-18.4661 133.383,-19.5234 C134.878,-20.5807 135.643,-21.0182 135.68,-20.8359 C135.716,-20.6536 135.224,-20.1615 134.203,-19.3594 C133.182,-18.4844 132.18,-17.2813 131.195,-15.75 C130.211,-14.2188 129.719,-12.25 129.719,-9.84375 C129.719,-7.4375 130.193,-5.5599 131.141,-4.21094 C132.089,-2.86198 133.128,-1.75 134.258,-0.875 M152.906,-22.75 L155.75,-21.5469 L154.656,-20.6719 C154.583,-18.9948 154.729,-17.5729 155.094,-16.4063 C155.458,-15.2396 156.042,-13.8177 156.844,-12.1406 C159.688,-14.474 161.62,-16.4792 162.641,-18.1563 L164.5,-16.1875 C163.771,-16.1146 162.859,-15.6771 161.766,-14.875 C160.599,-14.0729 159.031,-12.9792 157.063,-11.5938 C159.906,-6.125 163.115,-2.80729 166.688,-1.64063 L166.688,-1.20313 C165.302,-1.13021 164.464,-0.692708 164.172,0.109375 C159.724,-3.17188 156.552,-8.49479 154.656,-15.8594 L154.656,-0.546875 C154.729,1.27604 153.854,2.40625 152.031,2.84375 C152.104,1.82292 150.974,1.02083 148.641,0.4375 L148.641,0 C150.318,0.145833 151.466,0.21875 152.086,0.21875 C152.706,0.21875 153.016,-0.21875 153.016,-1.09375 L153.016,-18.7031 C153.016,-20.0885 152.979,-21.4375 152.906,-22.75 M141.641,0.65625 L141.422,0.328125 C145.068,-3.31771 147.583,-7.98438 148.969,-13.6719 L145.578,-13.6719 C144.63,-13.6719 143.755,-13.5625 142.953,-13.3438 L141.969,-14.3281 L148.859,-14.3281 L149.844,-15.6406 L151.813,-13.8906 L150.719,-13.3438 C148.896,-6.85417 145.87,-2.1875 141.641,0.65625 M182.766,-3.28125 C182.766,-1.67708 182.802,-0.0729167 182.875,1.53125 L181.016,2.29688 C181.089,0.0364583 181.125,-2.00521 181.125,-3.82813 L181.125,-10.1719 L172.594,-10.1719 C171.646,-10.1719 170.771,-10.0625 169.969,-9.84375 L168.984,-10.8281 L181.125,-10.8281 L181.125,-20.0156 L175,-20.0156 C174.052,-20.0156 173.177,-19.9063 172.375,-19.6875 L171.391,-20.6719 L189.219,-20.6719 L190.75,-22.2031 L192.938,-20.0156 L182.766,-20.0156 L182.766,-10.8281 L190.75,-10.8281 L192.391,-12.4688 L194.688,-10.1719 L182.766,-10.1719 L182.766,-3.28125 M188.781,-18.9219 L191.078,-17.1719 C190.495,-17.1719 189.693,-16.5156 188.672,-15.2031 C187.578,-13.8906 186.411,-12.651 185.172,-11.4844 L184.844,-11.7031 C186.74,-14.2552 188.052,-16.6615 188.781,-18.9219 M173.688,-18.375 C175.802,-16.8438 177.042,-15.8047 177.406,-15.2578 C177.771,-14.7109 177.953,-14.2188 177.953,-13.7813 C177.953,-13.5625 177.898,-13.2891 177.789,-12.9609 C177.68,-12.6328 177.424,-12.3229 177.023,-12.0313 C176.622,-11.7396 176.24,-12.25 175.875,-13.5625 C175.51,-14.8021 174.672,-16.3333 173.359,-18.1563 L173.688,-18.375 M207.594,-5.14063 L207.594,-0.328125 L212.188,-0.328125 L212.188,-5.14063 L207.594,-5.14063 M206.828,-15.6406 C207.411,-17.3177 207.813,-18.8854 208.031,-20.3438 L201.031,-20.3438 C199.938,-20.3438 198.99,-20.2344 198.188,-20.0156 L197.203,-21 L219.078,-21 L220.828,-22.6406 L222.797,-20.3438 L209.125,-20.3438 L210.766,-19.4688 L209.672,-19.1406 C208.797,-17.901 208.068,-16.7344 207.484,-15.6406 L218.203,-15.6406 L218.969,-16.7344 L220.719,-15.4219 L219.953,-14.6563 C219.953,-8.09375 219.99,-2.625 220.063,1.75 L218.422,2.51563 L218.422,0.328125 L201.469,0.328125 L201.469,1.85938 L199.828,2.625 C199.901,0.0729167 199.938,-3.1901 199.938,-7.16406 C199.938,-11.138 199.901,-14.2552 199.828,-16.5156 L201.469,-15.6406 L206.828,-15.6406 M201.469,-14.9844 L201.469,-0.328125 L206.172,-0.328125 L206.172,-14.9844 L201.469,-14.9844 M213.609,-14.9844 L213.609,-0.328125 L218.422,-0.328125 L218.422,-14.9844 L213.609,-14.9844 M207.594,-14.9844 L207.594,-10.8281 L212.188,-10.8281 L212.188,-14.9844 L207.594,-14.9844 M207.594,-10.1719 L207.594,-5.79688 L212.188,-5.79688 L212.188,-10.1719 L207.594,-10.1719 M234.227,-3.82813 C233.023,-2.29688 231.711,-1.11198 230.289,-0.273438 C228.867,0.565104 228.138,0.893229 228.102,0.710938 C228.065,0.528646 228.594,0.0364583 229.688,-0.765625 C230.708,-1.49479 231.784,-2.71615 232.914,-4.42969 C234.044,-6.14323 234.536,-8.13021 234.391,-10.3906 C234.245,-12.651 233.68,-14.5286 232.695,-16.0234 C231.711,-17.5182 230.708,-18.7031 229.688,-19.5781 C228.594,-20.4531 228.065,-20.9818 228.102,-21.1641 C228.138,-21.3464 228.831,-20.9818 230.18,-20.0703 C231.529,-19.1589 232.859,-17.8099 234.172,-16.0234 C235.484,-14.237 236.122,-12.1406 236.086,-9.73438 C236.049,-7.32813 235.43,-5.35938 234.227,-3.82813 "/>
</g>
</g>
</svg>
