<?xml version="1.0" encoding="UTF-8" standalone="no"?>
<svg width="127mm" height="79.375mm"
 viewBox="0 0 360 225"
 xmlns="http://www.w3.org/2000/svg" xmlns:xlink="http://www.w3.org/1999/xlink"  version="1.2" baseProfile="tiny">


<defs>
</defs>
<g fill="none" stroke="black" stroke-width="1" fill-rule="evenodd" stroke-linecap="square" stroke-linejoin="bevel" >



<g fill="#666666" fill-opacity="1" stroke="#666666" stroke-opacity="1" stroke-width="5" stroke-linecap="butt" stroke-linejoin="round" transform="matrix(0.5,0,0,0.5,0,0)"
font-family="SimSun" font-size="9" font-weight="400" font-style="normal" 
>
<polyline fill="none" points="240,90 240,375 " />
<polyline fill="none" points="270,375 450,375 " />
<polyline fill="none" points="480,90 480,375 " />
<polyline fill="none" points="240,90 480,90 " />
</g>

<g fill="#3498db" fill-opacity="1" stroke="#3498db" stroke-opacity="1" stroke-width="4" stroke-linecap="butt" stroke-linejoin="round" transform="matrix(0.5,0,0,0.5,0,0)"
font-family="SimSun" font-size="9" font-weight="400" font-style="normal" 
>
<polyline fill="none" points="243,300 477,300 " />
</g>

<g fill="#cce6ff" fill-opacity="0.301961" stroke="none" transform="matrix(5e-05,0,0,5e-05,0,0)"
font-family="SimSun" font-size="9" font-weight="400" font-style="normal" 
>
<path fill-rule="evenodd" d="M2.43e+06,3e+06 L4.77e+06,3e+06 L4.77e+06,930000 L2.43e+06,930000 L2.43e+06,3e+06"/>
</g>

<g fill="none" stroke="#333333" stroke-opacity="1" stroke-width="4" stroke-linecap="butt" stroke-linejoin="round" transform="matrix(0.5,0,0,0.5,0,0)"
font-family="SimSun" font-size="9" font-weight="400" font-style="normal" 
>
<polyline fill="none" points="322.5,240 397.5,240 397.5,180 322.5,180 322.5,240 " />
</g>

<g fill="#f2f2f2" fill-opacity="0.6" stroke="none" transform="matrix(5e-05,0,0,5e-05,0,0)"
font-family="SimSun" font-size="9" font-weight="400" font-style="normal" 
>
<path fill-rule="evenodd" d="M3.225e+06,2.4e+06 L3.975e+06,2.4e+06 L3.975e+06,1.8e+06 L3.225e+06,1.8e+06 L3.225e+06,2.4e+06"/>
</g>

<g fill="#e74c3c" fill-opacity="1" stroke="#e74c3c" stroke-opacity="1" stroke-width="5" stroke-linecap="butt" stroke-linejoin="round" transform="matrix(0.5,0,0,0.5,0,0)"
font-family="SimSun" font-size="9" font-weight="400" font-style="normal" 
>
<polyline fill="none" points="360,180 360,90 " />
</g>

<g fill="#e74c3c" fill-opacity="1" stroke="none" transform="matrix(5e-05,0,0,5e-05,0,0)"
font-family="SimSun" font-size="9" font-weight="400" font-style="normal" 
>
<path fill-rule="evenodd" d="M3.6e+06,900000 L3.525e+06,1.0299e+06 L3.675e+06,1.0299e+06 L3.6e+06,900000"/>
</g>

<g fill="#e74c3c" fill-opacity="1" stroke="none" transform="matrix(0.5,0,0,0.5,190,69)"
font-family="SimSun" font-size="9" font-weight="400" font-style="normal" 
>
<path fill-rule="evenodd" d="M7.10938,-18.5938 C6.01563,-18.5938 5.01302,-17.8464 4.10156,-16.3516 C3.1901,-14.8568 2.73438,-12.5781 2.73438,-9.51563 C2.73438,-7.47396 3.08073,-5.54167 3.77344,-3.71875 C4.46615,-1.89583 5.61458,-0.984375 7.21875,-0.984375 C8.02083,-0.984375 8.65885,-1.14844 9.13281,-1.47656 C9.60677,-1.80469 9.88021,-2.29688 9.95313,-2.95313 L9.95313,-6.67188 C9.95313,-7.10938 9.84375,-7.4375 9.625,-7.65625 C9.40625,-7.875 9.07813,-7.98438 8.64063,-7.98438 L7.98438,-7.98438 L7.98438,-8.64063 L13.4531,-8.64063 L13.4531,-7.98438 L12.9063,-7.98438 C12.5417,-7.98438 12.25,-7.875 12.0313,-7.65625 C11.8125,-7.4375 11.7031,-7.14583 11.7031,-6.78125 L11.7031,-1.3125 C11.5573,-1.38542 11.4297,-1.4401 11.3203,-1.47656 C11.2109,-1.51302 11.0833,-1.53125 10.9375,-1.53125 C10.7917,-1.53125 10.6458,-1.51302 10.5,-1.47656 C10.3542,-1.4401 10.2083,-1.34896 10.0625,-1.20313 C9.625,-0.838542 9.16927,-0.583333 8.69531,-0.4375 C8.22135,-0.291667 7.69271,-0.21875 7.10938,-0.21875 C4.92188,-0.21875 3.31771,-1.1849 2.29688,-3.11719 C1.27604,-5.04948 0.765625,-7.18229 0.765625,-9.51563 C0.765625,-12.2135 1.36719,-14.5286 2.57031,-16.4609 C3.77344,-18.3932 5.28646,-19.3594 7.10938,-19.3594 C7.54688,-19.3594 8.05729,-19.25 8.64063,-19.0313 C9.22396,-18.8125 9.58854,-18.7031 9.73438,-18.7031 C9.95313,-18.7031 10.1719,-18.7578 10.3906,-18.8672 C10.6094,-18.9766 10.7917,-19.1406 10.9375,-19.3594 L11.8125,-14.4375 L11.1563,-14.2188 C10.7188,-15.75 10.1719,-16.862 9.51563,-17.5547 C8.85938,-18.2474 8.05729,-18.5938 7.10938,-18.5938 "/>
</g>

<g fill="#2ecc71" fill-opacity="1" stroke="#2ecc71" stroke-opacity="1" stroke-width="5" stroke-linecap="butt" stroke-linejoin="round" transform="matrix(0.5,0,0,0.5,0,0)"
font-family="SimSun" font-size="9" font-weight="400" font-style="normal" 
>
<polyline fill="none" points="360,180 360,270 " />
</g>

<g fill="#2ecc71" fill-opacity="1" stroke="none" transform="matrix(5e-05,0,0,5e-05,0,0)"
font-family="SimSun" font-size="9" font-weight="400" font-style="normal" 
>
<path fill-rule="evenodd" d="M3.6e+06,2.7e+06 L3.675e+06,2.5701e+06 L3.525e+06,2.5701e+06 L3.6e+06,2.7e+06"/>
</g>

<g fill="#2ecc71" fill-opacity="1" stroke="none" transform="matrix(0.5,0,0,0.5,183,121.5)"
font-family="SimSun" font-size="9" font-weight="400" font-style="normal" 
>
<path fill-rule="evenodd" d="M5.90625,-1.09375 L5.90625,-0.4375 L0.65625,-0.4375 L0.65625,-1.09375 L1.42188,-1.09375 C1.78646,-1.09375 2.04167,-1.16667 2.1875,-1.3125 C2.33333,-1.45833 2.40625,-1.67708 2.40625,-1.96875 L2.40625,-17.6094 C2.40625,-17.901 2.33333,-18.1198 2.1875,-18.2656 C2.04167,-18.4115 1.78646,-18.4844 1.42188,-18.4844 L0.765625,-18.4844 L0.765625,-19.1406 L12.1406,-19.1406 L13.4531,-15.2031 L12.9063,-14.9844 C12.3229,-16.151 11.6302,-17.026 10.8281,-17.6094 C10.026,-18.1927 9.15104,-18.4844 8.20313,-18.4844 L5.14063,-18.4844 C4.84896,-18.4844 4.61198,-18.4115 4.42969,-18.2656 C4.2474,-18.1198 4.15625,-17.901 4.15625,-17.6094 L4.15625,-10.6094 L7.76563,-10.6094 C8.49479,-10.6094 9.02344,-10.7734 9.35156,-11.1016 C9.67969,-11.4297 9.84375,-11.9583 9.84375,-12.6875 L9.84375,-13.2344 L10.5,-13.2344 L10.5,-6.89063 L9.84375,-6.89063 L9.84375,-7.32813 C9.84375,-8.20313 9.67969,-8.85938 9.35156,-9.29688 C9.02344,-9.73438 8.49479,-9.95313 7.76563,-9.95313 L4.15625,-9.95313 L4.15625,-1.96875 C4.15625,-1.67708 4.2474,-1.45833 4.42969,-1.3125 C4.61198,-1.16667 4.84896,-1.09375 5.14063,-1.09375 L5.90625,-1.09375 M26.4688,-0.21875 C28.6563,0.0729167 29.8776,0.200521 30.1328,0.164063 C30.388,0.127604 30.5156,-0.0729167 30.5156,-0.4375 L30.5156,-6.34375 L25.1563,-6.34375 C24.2083,-6.34375 23.3333,-6.23438 22.5313,-6.01563 L21.5469,-7 L30.5156,-7 C30.5156,-8.45833 30.4427,-9.51563 30.2969,-10.1719 L31.7188,-9.1875 L34.7813,-11.9219 L27.6719,-11.9219 C26.724,-11.9219 25.849,-11.8125 25.0469,-11.5938 L24.0625,-12.5781 L34.8906,-12.5781 L36.3125,-13.7813 L37.7344,-11.7031 C37.0052,-11.776 36.1484,-11.5026 35.1641,-10.8828 C34.1797,-10.263 33.1406,-9.58854 32.0469,-8.85938 L32.7031,-8.53125 L32.0469,-7.875 L32.0469,-7 L37.4063,-7 L38.8281,-8.42188 L40.6875,-6.34375 L32.0469,-6.34375 L32.0469,-0.109375 C32.0469,0.619792 31.8828,1.1849 31.5547,1.58594 C31.2266,1.98698 30.5521,2.33333 29.5313,2.625 C29.3125,1.53125 28.2552,0.729167 26.3594,0.21875 L26.4688,-0.21875 M36.8594,-18.8125 L38.8281,-17.2813 L37.8438,-16.9531 C36.3854,-15.7865 35.1823,-14.7656 34.2344,-13.8906 L34.0156,-14.2188 C35.6927,-16.4792 36.6406,-18.0104 36.8594,-18.8125 M24.9375,-18.1563 L25.1563,-18.375 C26.6146,-17.4271 27.4714,-16.7161 27.7266,-16.2422 C27.9818,-15.7682 28.1094,-15.3854 28.1094,-15.0938 C28.1094,-14.7292 27.9818,-14.401 27.7266,-14.1094 C27.4714,-13.8177 27.3073,-13.6719 27.2344,-13.6719 C26.9427,-13.6719 26.6875,-14.1094 26.4688,-14.9844 C26.1771,-16.151 25.6667,-17.2083 24.9375,-18.1563 M29.2031,-18.8125 L29.4219,-19.0313 C30.8073,-18.2292 31.6823,-17.6094 32.0469,-17.1719 C32.4115,-16.7344 32.5938,-16.3698 32.5938,-16.0781 C32.5938,-15.7865 32.4844,-15.4583 32.2656,-15.0938 C32.0469,-14.7292 31.8646,-14.5469 31.7188,-14.5469 C31.5,-14.5469 31.2813,-14.9115 31.0625,-15.6406 C30.6979,-16.6615 30.0781,-17.7188 29.2031,-18.8125 M36.4219,-22.5313 L38.0625,-20.4531 C37.0417,-20.4531 34.8177,-20.2708 31.3906,-19.9063 C27.8906,-19.4688 25.1563,-19.25 23.1875,-19.25 L23.1875,-19.6875 C26.3958,-20.0521 29.1302,-20.4714 31.3906,-20.9453 C33.651,-21.4193 35.3281,-21.9479 36.4219,-22.5313 M23.7344,-17.2813 C21.3281,-9.98958 19.9974,-5.88802 19.7422,-4.97656 C19.487,-4.0651 19.3776,-2.95313 19.4141,-1.64063 C19.4505,-0.328125 19.5052,0.583333 19.5781,1.09375 C19.5781,1.38542 19.3958,1.53125 19.0313,1.53125 C18.7396,1.53125 18.375,1.45833 17.9375,1.3125 C17.5,1.16667 17.2813,0.838542 17.2813,0.328125 C17.2813,-0.0364583 17.3906,-0.583333 17.6094,-1.3125 C17.8281,-2.04167 17.9375,-2.625 17.9375,-3.0625 C17.9375,-3.57292 17.7734,-3.97396 17.4453,-4.26563 C17.1172,-4.55729 16.4063,-4.84896 15.3125,-5.14063 L15.4219,-5.57813 C16.6615,-5.43229 17.4635,-5.3776 17.8281,-5.41406 C18.1927,-5.45052 18.5573,-5.77865 18.9219,-6.39844 C19.2865,-7.01823 20.7448,-10.6823 23.2969,-17.3906 L23.7344,-17.2813 M15.5313,-16.0781 C17.9375,-14.9115 19.1406,-13.9089 19.1406,-13.0703 C19.1406,-12.2318 18.9401,-11.6667 18.5391,-11.375 C18.138,-11.0833 17.7917,-11.4479 17.5,-12.4688 C17.1354,-13.4167 16.4063,-14.5104 15.3125,-15.75 L15.5313,-16.0781 M17.8281,-22.2031 C19.8698,-21.1823 20.9818,-20.4167 21.1641,-19.9063 C21.3464,-19.3958 21.4375,-19.0313 21.4375,-18.8125 C21.4375,-18.4479 21.3099,-18.1198 21.0547,-17.8281 C20.7995,-17.5365 20.599,-17.3906 20.4531,-17.3906 C20.2344,-17.3906 20.0156,-17.7552 19.7969,-18.4844 C19.4323,-19.4323 18.7031,-20.5625 17.6094,-21.875 L17.8281,-22.2031"/>
</g>

<g fill="#888888" fill-opacity="1" stroke="none" transform="matrix(0.5,0,0,0.5,144,58.25)"
font-family="SimSun" font-size="9" font-weight="400" font-style="normal" 
>
<path fill-rule="evenodd" d="M7.5,-16.2188 L14.3438,-16.2188 C14.1563,-17.3438 13.5625,-18.4063 12.5625,-19.4063 L12.75,-19.5938 C14.25,-19.0313 15.1094,-18.5781 15.3281,-18.2344 C15.5469,-17.8906 15.6563,-17.5938 15.6563,-17.3438 C15.6563,-16.9688 15.4688,-16.5938 15.0938,-16.2188 L19.3125,-16.2188 L20.7188,-17.5313 L22.4063,-15.6563 L10.5938,-15.6563 C9.78125,-15.6563 9.03125,-15.5625 8.34375,-15.375 L7.5,-16.2188 M10.5,-1.21875 C10.5,-0.21875 10.5313,0.8125 10.5938,1.875 L9.28125,2.34375 C9.34375,0.96875 9.375,-0.28125 9.375,-1.40625 L9.375,-8.90625 C8.5625,-7.65625 7.5625,-6.46875 6.375,-5.34375 L6.1875,-5.625 C7.4375,-7.25 8.54688,-9.0625 9.51563,-11.0625 C10.4844,-13.0625 11.0938,-14.5625 11.3438,-15.5625 L13.125,-14.3438 L12.4688,-13.9688 C11.7188,-12.7188 11,-11.5 10.3125,-10.3125 L11.3438,-9.5625 L10.5,-9 L10.5,-1.21875 M17.1563,-14.3438 L16.4063,-13.9688 C16.0313,-13.1563 15.75,-12.5313 15.5625,-12.0938 L19.3125,-12.0938 L19.9688,-13.0313 L21.375,-11.7188 L20.7188,-11.25 C19.9688,-7.8125 18.9063,-5 17.5313,-2.8125 C18.9688,-1.125 20.7813,-0.0625 22.9688,0.375 L22.9688,0.75 C21.9688,0.875 21.4063,1.25 21.2813,1.875 C19.5938,1 18.0625,-0.21875 16.6875,-1.78125 C15.0625,-0.03125 13.1563,1.34375 10.9688,2.34375 L10.7813,2.0625 C12.5938,0.9375 14.3125,-0.65625 15.9375,-2.71875 C15,-4.59375 14.3125,-6.5 13.875,-8.4375 C13.1875,-7.25 12.4688,-6.28125 11.7188,-5.53125 L11.4375,-5.71875 C12.5,-7.40625 13.3594,-9.20313 14.0156,-11.1094 C14.6719,-13.0156 15.0938,-14.4375 15.2813,-15.375 L17.1563,-14.3438 M15.375,-11.5313 L14.1563,-8.90625 C14.7813,-6.90625 15.5938,-5.1875 16.5938,-3.75 C17.9063,-5.8125 18.8438,-8.40625 19.4063,-11.5313 L15.375,-11.5313 M15.4688,-10.125 C16.4688,-9.375 17.0625,-8.82813 17.25,-8.48438 C17.4375,-8.14063 17.5313,-7.9375 17.5313,-7.875 C17.5313,-7.625 17.4063,-7.34375 17.1563,-7.03125 C16.9063,-6.71875 16.75,-6.5625 16.6875,-6.5625 C16.5,-6.5625 16.375,-6.78125 16.3125,-7.21875 C16.1875,-7.90625 15.8438,-8.8125 15.2813,-9.9375 L15.4688,-10.125 M8.0625,-14.8125 C6.25,-8.3125 5.25,-4.67188 5.0625,-3.89063 C4.875,-3.10938 4.78125,-2.15625 4.78125,-1.03125 C4.78125,0.09375 4.78125,0.828125 4.78125,1.17188 C4.78125,1.51563 4.65625,1.6875 4.40625,1.6875 C4.21875,1.6875 3.92188,1.59375 3.51563,1.40625 C3.10938,1.21875 2.90625,0.90625 2.90625,0.46875 C2.90625,0.21875 3,-0.21875 3.1875,-0.84375 C3.3125,-1.34375 3.375,-1.8125 3.375,-2.25 C3.375,-2.6875 3.25,-3.03125 3,-3.28125 C2.75,-3.53125 2.15625,-3.78125 1.21875,-4.03125 L1.21875,-4.40625 C2.34375,-4.28125 3.03125,-4.23438 3.28125,-4.26563 C3.53125,-4.29688 3.84375,-4.57813 4.21875,-5.10938 C4.59375,-5.64063 5.75,-8.90625 7.6875,-14.9063 L8.0625,-14.8125 M1.3125,-12.9375 C3.375,-11.875 4.4375,-11.0469 4.5,-10.4531 C4.5625,-9.85938 4.48438,-9.4375 4.26563,-9.1875 C4.04688,-8.9375 3.875,-8.8125 3.75,-8.8125 C3.5625,-8.8125 3.375,-9.09375 3.1875,-9.65625 C2.875,-10.4063 2.1875,-11.4375 1.125,-12.75 L1.3125,-12.9375 M2.90625,-18.375 C4.65625,-17.5625 5.60938,-16.9844 5.76563,-16.6406 C5.92188,-16.2969 6,-16.0625 6,-15.9375 C6,-15.625 5.89063,-15.2969 5.67188,-14.9531 C5.45313,-14.6094 5.28125,-14.4375 5.15625,-14.4375 C4.96875,-14.4375 4.8125,-14.6875 4.6875,-15.1875 C4.375,-16 3.71875,-17 2.71875,-18.1875 L2.90625,-18.375 M28.7813,2.25 C28.8438,0.25 28.875,-1.3125 28.875,-2.4375 L28.875,-12.0938 C27.875,-10.4688 26.6563,-8.9375 25.2188,-7.5 L24.9375,-7.78125 C26.375,-9.59375 27.6094,-11.7656 28.6406,-14.2969 C29.6719,-16.8281 30.2813,-18.5938 30.4688,-19.5938 L32.4375,-18.2813 L31.6875,-17.9063 C30.6875,-15.8438 29.9063,-14.2188 29.3438,-13.0313 L30.8438,-12.1875 L30.0938,-11.5313 L30.0938,1.5 L28.7813,2.25 M39.375,-2.15625 C39.375,-0.96875 39.4063,0.25 39.4688,1.5 L37.9688,2.15625 C38.0313,0.15625 38.0625,-1.1875 38.0625,-1.875 L38.0625,-3.09375 L36.5625,-3.09375 C35.75,-3.09375 35,-3 34.3125,-2.8125 L33.4688,-3.65625 L38.0625,-3.65625 L38.0625,-12.6563 C37.125,-10.3438 36.0313,-8.34375 34.7813,-6.65625 C33.5313,-4.96875 32.1875,-3.5625 30.75,-2.4375 L30.4688,-2.71875 C31.6563,-3.84375 32.8594,-5.4375 34.0781,-7.5 C35.2969,-9.5625 36.2188,-11.5313 36.8438,-13.4063 L34.7813,-13.4063 C33.9688,-13.4063 33.2188,-13.3125 32.5313,-13.125 L31.6875,-13.9688 L38.0625,-13.9688 L38.0625,-16.7813 C38.0625,-17.4063 38.0313,-18.3125 37.9688,-19.5 L40.2188,-18.4688 L39.375,-17.8125 L39.375,-13.9688 L43.5938,-13.9688 L44.8125,-15.1875 L46.5938,-13.4063 L40.2188,-13.4063 C41.0938,-10.7813 42.1719,-8.67188 43.4531,-7.07813 C44.7344,-5.48438 45.9063,-4.5 46.9688,-4.125 L46.9688,-3.75 C45.9688,-3.75 45.3125,-3.46875 45,-2.90625 C44.125,-3.59375 43.1719,-4.9375 42.1406,-6.9375 C41.1094,-8.9375 40.3125,-11.0938 39.75,-13.4063 L39.375,-13.4063 L39.375,-3.65625 L41.25,-3.65625 L42.375,-4.78125 L44.0625,-3.09375 L39.375,-3.09375 L39.375,-2.15625 M67.0781,-0.75 C68.0469,0 68.4688,0.4375 68.3438,0.5625 C68.2188,0.6875 67.625,0.390625 66.5625,-0.328125 C65.5,-1.04688 64.4844,-2 63.5156,-3.1875 C62.5469,-4.375 61.9844,-5.9375 61.8281,-7.875 C61.6719,-9.8125 62.0625,-11.5469 63,-13.0781 C63.9375,-14.6094 65.0469,-15.8281 66.3281,-16.7344 C67.6094,-17.6406 68.2656,-18.0156 68.2969,-17.8594 C68.3281,-17.7031 67.9063,-17.2813 67.0313,-16.5938 C66.1563,-15.8438 65.2969,-14.8125 64.4531,-13.5 C63.6094,-12.1875 63.1875,-10.5 63.1875,-8.4375 C63.1875,-6.375 63.5938,-4.76563 64.4063,-3.60938 C65.2188,-2.45313 66.1094,-1.5 67.0781,-0.75 M80.8125,-1.125 C80.75,-0.5 81.2188,-0.1875 82.2188,-0.1875 L82.2188,0.375 L77.9063,0.375 L77.9063,-0.1875 C78.9688,-0.125 79.4688,-0.375 79.4063,-0.9375 L79.4063,-7.875 C79.5938,-9.875 80.2188,-11.1563 81.2813,-11.7188 C82.3438,-12.2813 83.2813,-12.5625 84.0938,-12.5625 C84.5313,-12.5625 85.125,-12.4531 85.875,-12.2344 C86.625,-12.0156 87.2344,-11.4375 87.7031,-10.5 C88.1719,-9.5625 88.4063,-8.6875 88.4063,-7.875 C88.4063,-7.25 88.25,-6.34375 87.9375,-5.15625 C87.625,-3.96875 86.9688,-3.23438 85.9688,-2.95313 C84.9688,-2.67188 84.3125,-2.53125 84,-2.53125 C82.875,-2.53125 81.8125,-3.0625 80.8125,-4.125 L80.8125,-5.34375 C81.5625,-4.09375 82.5469,-3.46875 83.7656,-3.46875 C84.9844,-3.46875 85.7656,-3.89063 86.1094,-4.73438 C86.4531,-5.57813 86.625,-6.42188 86.625,-7.26563 C86.625,-8.10938 86.5313,-9 86.3438,-9.9375 C86.1563,-10.875 85.75,-11.4375 85.125,-11.625 C84.5,-11.8125 84.0313,-11.9063 83.7188,-11.9063 C83.0938,-11.9063 82.4844,-11.7031 81.8906,-11.2969 C81.2969,-10.8906 80.9375,-9.90625 80.8125,-8.34375 L80.8125,-1.125 M103.5,-16.2188 L110.344,-16.2188 C110.156,-17.3438 109.563,-18.4063 108.563,-19.4063 L108.75,-19.5938 C110.25,-19.0313 111.109,-18.5781 111.328,-18.2344 C111.547,-17.8906 111.656,-17.5938 111.656,-17.3438 C111.656,-16.9688 111.469,-16.5938 111.094,-16.2188 L115.313,-16.2188 L116.719,-17.5313 L118.406,-15.6563 L106.594,-15.6563 C105.781,-15.6563 105.031,-15.5625 104.344,-15.375 L103.5,-16.2188 M106.5,-1.21875 C106.5,-0.21875 106.531,0.8125 106.594,1.875 L105.281,2.34375 C105.344,0.96875 105.375,-0.28125 105.375,-1.40625 L105.375,-8.90625 C104.563,-7.65625 103.563,-6.46875 102.375,-5.34375 L102.188,-5.625 C103.438,-7.25 104.547,-9.0625 105.516,-11.0625 C106.484,-13.0625 107.094,-14.5625 107.344,-15.5625 L109.125,-14.3438 L108.469,-13.9688 C107.719,-12.7188 107,-11.5 106.313,-10.3125 L107.344,-9.5625 L106.5,-9 L106.5,-1.21875 M113.156,-14.3438 L112.406,-13.9688 C112.031,-13.1563 111.75,-12.5313 111.563,-12.0938 L115.313,-12.0938 L115.969,-13.0313 L117.375,-11.7188 L116.719,-11.25 C115.969,-7.8125 114.906,-5 113.531,-2.8125 C114.969,-1.125 116.781,-0.0625 118.969,0.375 L118.969,0.75 C117.969,0.875 117.406,1.25 117.281,1.875 C115.594,1 114.063,-0.21875 112.688,-1.78125 C111.063,-0.03125 109.156,1.34375 106.969,2.34375 L106.781,2.0625 C108.594,0.9375 110.313,-0.65625 111.938,-2.71875 C111,-4.59375 110.313,-6.5 109.875,-8.4375 C109.188,-7.25 108.469,-6.28125 107.719,-5.53125 L107.438,-5.71875 C108.5,-7.40625 109.359,-9.20313 110.016,-11.1094 C110.672,-13.0156 111.094,-14.4375 111.281,-15.375 L113.156,-14.3438 M111.375,-11.5313 L110.156,-8.90625 C110.781,-6.90625 111.594,-5.1875 112.594,-3.75 C113.906,-5.8125 114.844,-8.40625 115.406,-11.5313 L111.375,-11.5313 M111.469,-10.125 C112.469,-9.375 113.063,-8.82813 113.25,-8.48438 C113.438,-8.14063 113.531,-7.9375 113.531,-7.875 C113.531,-7.625 113.406,-7.34375 113.156,-7.03125 C112.906,-6.71875 112.75,-6.5625 112.688,-6.5625 C112.5,-6.5625 112.375,-6.78125 112.313,-7.21875 C112.188,-7.90625 111.844,-8.8125 111.281,-9.9375 L111.469,-10.125 M104.063,-14.8125 C102.25,-8.3125 101.25,-4.67188 101.063,-3.89063 C100.875,-3.10938 100.781,-2.15625 100.781,-1.03125 C100.781,0.09375 100.781,0.828125 100.781,1.17188 C100.781,1.51563 100.656,1.6875 100.406,1.6875 C100.219,1.6875 99.9219,1.59375 99.5156,1.40625 C99.1094,1.21875 98.9063,0.90625 98.9063,0.46875 C98.9063,0.21875 99,-0.21875 99.1875,-0.84375 C99.3125,-1.34375 99.375,-1.8125 99.375,-2.25 C99.375,-2.6875 99.25,-3.03125 99,-3.28125 C98.75,-3.53125 98.1563,-3.78125 97.2188,-4.03125 L97.2188,-4.40625 C98.3438,-4.28125 99.0313,-4.23438 99.2813,-4.26563 C99.5313,-4.29688 99.8438,-4.57813 100.219,-5.10938 C100.594,-5.64063 101.75,-8.90625 103.688,-14.9063 L104.063,-14.8125 M97.3125,-12.9375 C99.375,-11.875 100.438,-11.0469 100.5,-10.4531 C100.563,-9.85938 100.484,-9.4375 100.266,-9.1875 C100.047,-8.9375 99.875,-8.8125 99.75,-8.8125 C99.5625,-8.8125 99.375,-9.09375 99.1875,-9.65625 C98.875,-10.4063 98.1875,-11.4375 97.125,-12.75 L97.3125,-12.9375 M98.9063,-18.375 C100.656,-17.5625 101.609,-16.9844 101.766,-16.6406 C101.922,-16.2969 102,-16.0625 102,-15.9375 C102,-15.625 101.891,-15.2969 101.672,-14.9531 C101.453,-14.6094 101.281,-14.4375 101.156,-14.4375 C100.969,-14.4375 100.813,-14.6875 100.688,-15.1875 C100.375,-16 99.7188,-17 98.7188,-18.1875 L98.9063,-18.375 M128.766,-3.28125 C127.734,-1.96875 126.609,-0.953125 125.391,-0.234375 C124.172,0.484375 123.547,0.765625 123.516,0.609375 C123.484,0.453125 123.938,0.03125 124.875,-0.65625 C125.75,-1.28125 126.672,-2.32813 127.641,-3.79688 C128.609,-5.26563 129.031,-6.96875 128.906,-8.90625 C128.781,-10.8438 128.297,-12.4531 127.453,-13.7344 C126.609,-15.0156 125.75,-16.0313 124.875,-16.7813 C123.938,-17.5313 123.484,-17.9844 123.516,-18.1406 C123.547,-18.2969 124.141,-17.9844 125.297,-17.2031 C126.453,-16.4219 127.594,-15.2656 128.719,-13.7344 C129.844,-12.2031 130.391,-10.4063 130.359,-8.34375 C130.328,-6.28125 129.797,-4.59375 128.766,-3.28125 "/>
</g>

<g fill="#e74c3c" fill-opacity="1" stroke="none" transform="matrix(0.5,0,0,0.5,120,215.25)"
font-family="SimSun" font-size="9" font-weight="400" font-style="normal" 
>
<path fill-rule="evenodd" d="M6.32813,-1.17188 L6.32813,-0.46875 L0.703125,-0.46875 L0.703125,-1.17188 L1.53125,-1.17188 C1.91667,-1.17188 2.1875,-1.25 2.34375,-1.40625 C2.5,-1.5625 2.57813,-1.79688 2.57813,-2.10938 L2.57813,-18.875 C2.57813,-19.1875 2.5,-19.4219 2.34375,-19.5781 C2.1875,-19.7344 1.91667,-19.8125 1.53125,-19.8125 L0.828125,-19.8125 L0.828125,-20.5156 L13.0156,-20.5156 L14.4219,-16.2969 L13.8281,-16.0625 C13.2031,-17.3125 12.4609,-18.25 11.6016,-18.875 C10.7422,-19.5 9.80729,-19.8125 8.79688,-19.8125 L5.51563,-19.8125 C5.20313,-19.8125 4.94792,-19.7344 4.75,-19.5781 C4.55208,-19.4219 4.45313,-19.1875 4.45313,-18.875 L4.45313,-11.375 L8.32813,-11.375 C9.10938,-11.375 9.67448,-11.5495 10.0234,-11.8984 C10.3724,-12.2474 10.5469,-12.8125 10.5469,-13.5938 L10.5469,-14.1875 L11.25,-14.1875 L11.25,-7.39063 L10.5469,-7.39063 L10.5469,-7.85938 C10.5469,-8.79688 10.3724,-9.5 10.0234,-9.96875 C9.67448,-10.4375 9.10938,-10.6719 8.32813,-10.6719 L4.45313,-10.6719 L4.45313,-2.10938 C4.45313,-1.79688 4.55208,-1.5625 4.75,-1.40625 C4.94792,-1.25 5.20313,-1.17188 5.51563,-1.17188 L6.32813,-1.17188 M28.3594,-0.234375 C30.7031,0.078125 32.013,0.216146 32.2891,0.179688 C32.5651,0.143229 32.7031,-0.0729167 32.7031,-0.46875 L32.7031,-6.79688 L26.9531,-6.79688 C25.9427,-6.79688 25.0052,-6.68229 24.1406,-6.45313 L23.0938,-7.5 L32.7031,-7.5 C32.7031,-9.0625 32.625,-10.1979 32.4688,-10.9063 L33.9844,-9.84375 L37.2656,-12.7813 L29.6563,-12.7813 C28.6354,-12.7813 27.6979,-12.6615 26.8438,-12.4219 L25.7813,-13.4844 L37.3906,-13.4844 L38.9063,-14.7656 L40.4375,-12.5469 C39.6563,-12.6198 38.737,-12.3255 37.6797,-11.6641 C36.6224,-11.0026 35.5104,-10.2813 34.3438,-9.5 L35.0469,-9.14063 L34.3438,-8.4375 L34.3438,-7.5 L40.0781,-7.5 L41.6094,-9.03125 L43.5938,-6.79688 L34.3438,-6.79688 L34.3438,-0.125 C34.3438,0.666667 34.1667,1.27604 33.8125,1.70313 C33.4583,2.13021 32.7344,2.5 31.6406,2.8125 C31.4115,1.64583 30.2813,0.786458 28.25,0.234375 L28.3594,-0.234375 M39.5,-20.1563 L41.6094,-18.5156 L40.5469,-18.1719 C38.9844,-16.9219 37.6979,-15.8281 36.6875,-14.8906 L36.4531,-15.2344 C38.2448,-17.6615 39.2604,-19.3021 39.5,-20.1563 M26.7188,-19.4531 L26.9531,-19.6875 C28.5156,-18.6771 29.4349,-17.9167 29.7109,-17.4063 C29.987,-16.8958 30.125,-16.4844 30.125,-16.1719 C30.125,-15.7865 29.987,-15.4375 29.7109,-15.125 C29.4349,-14.8125 29.2604,-14.6563 29.1875,-14.6563 C28.875,-14.6563 28.599,-15.125 28.3594,-16.0625 C28.0469,-17.3125 27.5,-18.4427 26.7188,-19.4531 M31.2969,-20.1563 L31.5313,-20.3906 C33.0104,-19.5365 33.9453,-18.875 34.3359,-18.4063 C34.7266,-17.9375 34.9219,-17.5469 34.9219,-17.2344 C34.9219,-16.9219 34.8047,-16.5703 34.5703,-16.1797 C34.3359,-15.7891 34.1406,-15.5938 33.9844,-15.5938 C33.7552,-15.5938 33.5208,-15.9844 33.2813,-16.7656 C32.8958,-17.8594 32.2344,-18.9896 31.2969,-20.1563 M39.0313,-24.1406 L40.7813,-21.9219 C39.6875,-21.9219 37.3073,-21.724 33.6406,-21.3281 C29.8906,-20.8594 26.9583,-20.625 24.8438,-20.625 L24.8438,-21.0938 C28.2813,-21.4896 31.2109,-21.9401 33.6328,-22.4453 C36.0547,-22.9505 37.8542,-23.5156 39.0313,-24.1406 M25.4375,-18.5156 C22.8542,-10.7031 21.4271,-6.3099 21.1563,-5.33594 C20.8854,-4.36198 20.7682,-3.16927 20.8047,-1.75781 C20.8411,-0.346354 20.901,0.630208 20.9844,1.17188 C20.9844,1.48438 20.7865,1.64063 20.3906,1.64063 C20.0781,1.64063 19.6875,1.5625 19.2188,1.40625 C18.75,1.25 18.5156,0.901042 18.5156,0.359375 C18.5156,-0.0364583 18.6354,-0.625 18.875,-1.40625 C19.1042,-2.1875 19.2188,-2.8125 19.2188,-3.28125 C19.2188,-3.83333 19.0443,-4.26563 18.6953,-4.57813 C18.3464,-4.89063 17.5833,-5.20313 16.4063,-5.51563 L16.5313,-5.98438 C17.8542,-5.82813 18.7109,-5.76823 19.1016,-5.80469 C19.4922,-5.84115 19.8828,-6.19271 20.2734,-6.85938 C20.6641,-7.52604 22.2292,-11.4531 24.9688,-18.6406 L25.4375,-18.5156 M16.6406,-17.2344 C19.224,-15.9844 20.5156,-14.9089 20.5156,-14.0078 C20.5156,-13.1068 20.2995,-12.5 19.8672,-12.1875 C19.4349,-11.875 19.0625,-12.2656 18.75,-13.3594 C18.3646,-14.3802 17.5833,-15.5521 16.4063,-16.875 L16.6406,-17.2344 M19.1094,-23.7969 C21.2969,-22.7031 22.487,-21.8828 22.6797,-21.3359 C22.8724,-20.7891 22.9688,-20.3958 22.9688,-20.1563 C22.9688,-19.7708 22.8333,-19.4219 22.5625,-19.1094 C22.2917,-18.7969 22.0781,-18.6406 21.9219,-18.6406 C21.6823,-18.6406 21.4479,-19.0313 21.2188,-19.8125 C20.8229,-20.8229 20.0417,-22.0313 18.875,-23.4375 L19.1094,-23.7969 M60.9375,-13.25 L60.9375,-14.2969 L73.9531,-14.2969 L73.9531,-13.25 L60.9375,-13.25 M60.9375,-7.26563 L60.9375,-8.32813 L73.9531,-8.32813 L73.9531,-7.26563 L60.9375,-7.26563 M101.016,-1.40625 C100.943,-0.625 101.531,-0.234375 102.781,-0.234375 L102.781,0.46875 L97.3906,0.46875 L97.3906,-0.234375 C98.7135,-0.161458 99.3385,-0.473958 99.2656,-1.17188 L99.2656,-9.84375 C99.4948,-12.3438 100.273,-13.9453 101.602,-14.6484 C102.93,-15.3516 104.104,-15.7031 105.125,-15.7031 C105.667,-15.7031 106.406,-15.5677 107.344,-15.2969 C108.281,-15.026 109.044,-14.3047 109.633,-13.1328 C110.221,-11.9609 110.516,-10.8646 110.516,-9.84375 C110.516,-9.0625 110.32,-7.92969 109.93,-6.44531 C109.539,-4.96094 108.719,-4.04427 107.469,-3.69531 C106.219,-3.34635 105.396,-3.17188 105,-3.17188 C103.594,-3.17188 102.266,-3.83333 101.016,-5.15625 L101.016,-6.6875 C101.953,-5.125 103.185,-4.34375 104.711,-4.34375 C106.237,-4.34375 107.214,-4.86979 107.641,-5.92188 C108.068,-6.97396 108.281,-8.02865 108.281,-9.08594 C108.281,-10.1432 108.164,-11.2578 107.93,-12.4297 C107.695,-13.6016 107.188,-14.3047 106.406,-14.5391 C105.625,-14.7734 105.042,-14.8906 104.656,-14.8906 C103.875,-14.8906 103.112,-14.6354 102.367,-14.125 C101.622,-13.6146 101.172,-12.3854 101.016,-10.4375 L101.016,-1.40625 M129.375,-20.2813 L137.938,-20.2813 C137.698,-21.6875 136.953,-23.0156 135.703,-24.2656 L135.938,-24.5 C137.813,-23.7917 138.888,-23.224 139.164,-22.7969 C139.44,-22.3698 139.578,-22 139.578,-21.6875 C139.578,-21.2188 139.344,-20.75 138.875,-20.2813 L144.141,-20.2813 L145.906,-21.9219 L148.016,-19.5781 L133.25,-19.5781 C132.229,-19.5781 131.292,-19.4583 130.438,-19.2188 L129.375,-20.2813 M133.125,-1.53125 C133.125,-0.270833 133.167,1.02083 133.25,2.34375 L131.609,2.9375 C131.682,1.21875 131.719,-0.348958 131.719,-1.76563 L131.719,-11.1406 C130.708,-9.57813 129.458,-8.09375 127.969,-6.6875 L127.734,-7.03125 C129.297,-9.0625 130.685,-11.3281 131.898,-13.8281 C133.112,-16.3281 133.875,-18.2031 134.188,-19.4531 L136.406,-17.9375 L135.594,-17.4688 C134.656,-15.9063 133.755,-14.3802 132.891,-12.8906 L134.188,-11.9531 L133.125,-11.25 L133.125,-1.53125 M141.453,-17.9375 L140.516,-17.4688 C140.047,-16.4479 139.693,-15.6667 139.453,-15.125 L144.141,-15.125 L144.969,-16.2969 L146.719,-14.6563 L145.906,-14.0625 C144.969,-9.77083 143.641,-6.25521 141.922,-3.51563 C143.714,-1.41146 145.979,-0.0833333 148.719,0.46875 L148.719,0.9375 C147.469,1.09375 146.766,1.5625 146.609,2.34375 C144.495,1.25 142.578,-0.276042 140.859,-2.23438 C138.828,-0.0364583 136.448,1.6875 133.719,2.9375 L133.484,2.57813 C135.745,1.17188 137.891,-0.822917 139.922,-3.40625 C138.755,-5.75 137.896,-8.13021 137.344,-10.5469 C136.49,-9.06771 135.594,-7.85938 134.656,-6.92188 L134.297,-7.15625 C135.63,-9.26042 136.706,-11.5052 137.523,-13.8906 C138.341,-16.276 138.87,-18.0521 139.109,-19.2188 L141.453,-17.9375 M139.219,-14.4219 L137.703,-11.1406 C138.484,-8.64063 139.5,-6.48958 140.75,-4.6875 C142.385,-7.27083 143.557,-10.5156 144.266,-14.4219 L139.219,-14.4219 M139.344,-12.6563 C140.594,-11.7188 141.336,-11.0365 141.57,-10.6094 C141.805,-10.1823 141.922,-9.92708 141.922,-9.84375 C141.922,-9.53125 141.766,-9.17969 141.453,-8.78906 C141.141,-8.39844 140.943,-8.20313 140.859,-8.20313 C140.63,-8.20313 140.474,-8.47917 140.391,-9.03125 C140.234,-9.88542 139.807,-11.0156 139.109,-12.4219 L139.344,-12.6563 M130.078,-18.5156 C127.818,-10.3906 126.57,-5.84115 126.336,-4.86719 C126.102,-3.89323 125.984,-2.70052 125.984,-1.28906 C125.984,0.122396 125.984,1.04167 125.984,1.46875 C125.984,1.89583 125.828,2.10938 125.516,2.10938 C125.276,2.10938 124.904,1.99219 124.398,1.75781 C123.893,1.52344 123.641,1.13542 123.641,0.59375 C123.641,0.28125 123.755,-0.270833 123.984,-1.0625 C124.141,-1.6875 124.219,-2.27083 124.219,-2.8125 C124.219,-3.36458 124.063,-3.79688 123.75,-4.10938 C123.438,-4.42188 122.698,-4.73438 121.531,-5.04688 L121.531,-5.51563 C122.938,-5.35938 123.797,-5.29948 124.109,-5.33594 C124.422,-5.3724 124.813,-5.72396 125.281,-6.39063 C125.75,-7.05729 127.193,-11.1406 129.609,-18.6406 L130.078,-18.5156 M121.641,-16.1719 C124.224,-14.849 125.555,-13.8151 125.633,-13.0703 C125.711,-12.3255 125.612,-11.7969 125.336,-11.4844 C125.06,-11.1719 124.844,-11.0156 124.688,-11.0156 C124.458,-11.0156 124.224,-11.3698 123.984,-12.0781 C123.599,-13.0156 122.74,-14.3021 121.406,-15.9375 L121.641,-16.1719 M123.641,-22.9688 C125.828,-21.9583 127.018,-21.237 127.211,-20.8047 C127.404,-20.3724 127.5,-20.0781 127.5,-19.9219 C127.5,-19.5365 127.365,-19.1276 127.094,-18.6953 C126.823,-18.263 126.609,-18.0469 126.453,-18.0469 C126.214,-18.0469 126.016,-18.3594 125.859,-18.9844 C125.474,-20.0052 124.656,-21.2552 123.406,-22.7344 L123.641,-22.9688 M169.109,-9.26563 C169.109,-8.32813 169.383,-7.52604 169.93,-6.85938 C170.477,-6.19271 171.219,-5.85938 172.156,-5.85938 C173.167,-5.85938 173.927,-6.15365 174.438,-6.74219 C174.948,-7.33073 175.203,-8.17188 175.203,-9.26563 C175.203,-10.5885 174.909,-11.5443 174.32,-12.1328 C173.732,-12.7214 173.01,-13.0156 172.156,-13.0156 C171.292,-13.0156 170.568,-12.7214 169.984,-12.1328 C169.401,-11.5443 169.109,-10.5885 169.109,-9.26563 M174.844,-2.9375 C176.021,-2.78125 176.883,-2.44792 177.43,-1.9375 C177.977,-1.42708 178.25,-0.739583 178.25,0.125 C178.25,1.29167 177.76,2.22656 176.781,2.92969 C175.802,3.63281 174.26,3.98438 172.156,3.98438 C170.51,3.98438 169.18,3.65365 168.164,2.99219 C167.148,2.33073 166.641,1.56771 166.641,0.703125 C166.641,0.151042 166.836,-0.398438 167.227,-0.945313 C167.617,-1.49219 168.245,-1.92188 169.109,-2.23438 C168.641,-2.46354 168.268,-2.71615 167.992,-2.99219 C167.716,-3.26823 167.578,-3.59896 167.578,-3.98438 C167.578,-4.45313 167.734,-4.86458 168.047,-5.21875 C168.359,-5.57292 168.75,-5.86458 169.219,-6.09375 C168.75,-6.48958 168.341,-6.96094 167.992,-7.50781 C167.643,-8.05469 167.469,-8.64063 167.469,-9.26563 C167.469,-10.4323 167.878,-11.4661 168.695,-12.3672 C169.513,-13.2682 170.667,-13.7188 172.156,-13.7188 C172.781,-13.7188 173.385,-13.6406 173.969,-13.4844 C174.552,-13.3281 175.042,-13.0521 175.438,-12.6563 C175.979,-13.0521 176.466,-13.3464 176.898,-13.5391 C177.331,-13.7318 177.703,-13.8281 178.016,-13.8281 C178.401,-13.8281 178.672,-13.6927 178.828,-13.4219 C178.984,-13.151 179.063,-12.8958 179.063,-12.6563 C179.063,-12.3438 179.005,-12.0911 178.891,-11.8984 C178.776,-11.7057 178.563,-11.6094 178.25,-11.6094 C178.01,-11.6094 177.813,-11.6667 177.656,-11.7813 C177.5,-11.8958 177.385,-12.0729 177.313,-12.3125 C177.229,-12.5417 177.052,-12.638 176.781,-12.6016 C176.51,-12.5651 176.219,-12.4271 175.906,-12.1875 C176.219,-11.875 176.453,-11.4453 176.609,-10.8984 C176.766,-10.3516 176.844,-9.80729 176.844,-9.26563 C176.844,-8.32813 176.471,-7.40885 175.727,-6.50781 C174.982,-5.60677 173.792,-5.15625 172.156,-5.15625 C171.688,-5.15625 171.258,-5.21615 170.867,-5.33594 C170.477,-5.45573 170.161,-5.59375 169.922,-5.75 C169.609,-5.59375 169.375,-5.39844 169.219,-5.16406 C169.063,-4.92969 168.984,-4.73438 168.984,-4.57813 C168.984,-4.26563 169.063,-4.03125 169.219,-3.875 C169.375,-3.71875 169.609,-3.64063 169.922,-3.64063 C170.943,-3.48438 171.862,-3.34635 172.68,-3.22656 C173.497,-3.10677 174.219,-3.01042 174.844,-2.9375 M170.047,-2 C169.339,-1.6875 168.849,-1.3151 168.578,-0.882813 C168.307,-0.450521 168.172,0.078125 168.172,0.703125 C168.172,1.32813 168.523,1.91406 169.227,2.46094 C169.93,3.00781 170.984,3.28125 172.391,3.28125 C173.714,3.28125 174.766,3.06771 175.547,2.64063 C176.328,2.21354 176.719,1.56771 176.719,0.703125 C176.719,0.151042 176.622,-0.28125 176.43,-0.59375 C176.237,-0.90625 175.943,-1.09896 175.547,-1.17188 C174.766,-1.32813 173.906,-1.48438 172.969,-1.64063 C172.031,-1.72396 171.057,-1.84375 170.047,-2 M204.969,-19.8125 L204.969,-20.5156 L209.188,-20.5156 L209.188,-19.8125 L208.719,-19.8125 C208.406,-19.8125 208.112,-19.6953 207.836,-19.4609 C207.56,-19.2266 207.344,-18.7969 207.188,-18.1719 L202.391,-0.46875 L201.688,-0.46875 L197.344,-18.1719 C197.271,-18.7135 197.135,-19.1224 196.938,-19.3984 C196.74,-19.6745 196.448,-19.8125 196.063,-19.8125 L195.469,-19.8125 L195.469,-20.5156 L200.516,-20.5156 L200.516,-19.8125 L200.047,-19.8125 C199.651,-19.8125 199.396,-19.6953 199.281,-19.4609 C199.167,-19.2266 199.146,-18.9115 199.219,-18.5156 L202.5,-4.8125 L202.734,-4.8125 L206.25,-18.1719 C206.333,-18.4844 206.375,-18.7188 206.375,-18.875 C206.375,-19.1042 206.315,-19.3177 206.195,-19.5156 C206.076,-19.7135 205.781,-19.8125 205.313,-19.8125 L204.969,-19.8125 M225.938,2.70313 C226.021,0.661458 226.063,-2.11458 226.063,-5.625 L221.719,-5.625 L220.672,-5.39063 L219.734,-6.32813 L226.063,-6.32813 L226.063,-11.7188 L223.594,-11.7188 L222.547,-11.4844 L221.609,-12.4219 L226.063,-12.4219 L226.063,-17.7031 L223.016,-17.7031 L221.844,-17.4688 L220.906,-18.4063 L226.063,-18.4063 C226.063,-21.2917 226.021,-23.3229 225.938,-24.5 L228.641,-23.0938 L227.578,-22.2656 L227.578,1.875 L225.938,2.70313 M232.156,-5.51563 C232.156,-2.46354 232.193,0 232.266,1.875 L230.625,2.70313 L230.625,-18.9844 C230.625,-21.1719 230.589,-22.9688 230.516,-24.375 L233.328,-23.0938 L232.156,-22.2656 L232.156,-18.2813 L235.547,-18.2813 L236.719,-19.4531 L238.594,-17.5781 L232.156,-17.5781 L232.156,-12.3125 L235.203,-12.3125 L236.375,-13.4844 L238.25,-11.6094 L232.156,-11.6094 L232.156,-6.21875 L235.547,-6.21875 L236.844,-7.5 L238.828,-5.51563 L232.156,-5.51563 M216.219,-17.5781 C216.219,-20.7865 216.177,-23.1302 216.094,-24.6094 L218.797,-23.3281 L217.734,-22.625 L217.734,-17.5781 L218.672,-17.5781 L219.844,-18.75 L221.719,-16.875 L217.734,-16.875 L217.734,-12.0781 L221.375,-13.7188 L221.609,-13.3594 L217.734,-10.9063 L217.734,-0.9375 C217.818,0.708333 217,1.88021 215.281,2.57813 C215.354,1.72396 214.339,0.90625 212.234,0.125 L212.234,-0.359375 C213.714,-0.119792 214.747,0 215.336,0 C215.924,0 216.219,-0.46875 216.219,-1.40625 L216.219,-10.0781 C214.188,-8.91146 212.974,-8.01563 212.578,-7.39063 L211.172,-9.60938 C212.036,-9.76563 213.719,-10.3906 216.219,-11.4844 L216.219,-16.875 L213.406,-16.875 L212.234,-16.6406 L211.297,-17.5781 L216.219,-17.5781"/>
</g>
</g>
</svg>
