<?xml version="1.0" encoding="UTF-8" standalone="no"?>
<svg width="127mm" height="79.375mm"
 viewBox="0 0 360 225"
 xmlns="http://www.w3.org/2000/svg" xmlns:xlink="http://www.w3.org/1999/xlink"  version="1.2" baseProfile="tiny">


<defs>
</defs>
<g fill="none" stroke="black" stroke-width="1" fill-rule="evenodd" stroke-linecap="square" stroke-linejoin="bevel" >



<g fill="#333333" fill-opacity="1" stroke="#333333" stroke-opacity="1" stroke-width="3" stroke-linecap="butt" stroke-linejoin="round" transform="matrix(0.5,0,0,0.5,0,0)"
font-family="SimSun" font-size="9" font-weight="400" font-style="normal" 
>
<polyline fill="none" points="82.5,82.5 637.5,82.5 " />
</g>

<g fill="#333333" fill-opacity="1" stroke="none" transform="matrix(5e-05,0,0,5e-05,0,0)"
font-family="SimSun" font-size="9" font-weight="400" font-style="normal" 
>
<path fill-rule="evenodd" d="M6.375e+06,825000 L6.2451e+06,750000 L6.2451e+06,900000 L6.375e+06,825000"/>
</g>

<g fill="#333333" fill-opacity="1" stroke="#333333" stroke-opacity="1" stroke-width="3" stroke-linecap="butt" stroke-linejoin="round" transform="matrix(0.5,0,0,0.5,0,0)"
font-family="SimSun" font-size="9" font-weight="400" font-style="normal" 
>
<polyline fill="none" points="82.5,82.5 82.5,352.5 " />
</g>

<g fill="#333333" fill-opacity="1" stroke="none" transform="matrix(5e-05,0,0,5e-05,0,0)"
font-family="SimSun" font-size="9" font-weight="400" font-style="normal" 
>
<path fill-rule="evenodd" d="M825000,3.525e+06 L900000,3.3951e+06 L750000,3.3951e+06 L825000,3.525e+06"/>
</g>

<g fill="#333333" fill-opacity="1" stroke="none" transform="matrix(0.5,0,0,0.5,317.25,45.5)"
font-family="SimSun" font-size="9" font-weight="400" font-style="normal" 
>
<path fill-rule="evenodd" d="M6.09375,-0.9375 C7.03125,-0.9375 7.82813,-1.25 8.48438,-1.875 C9.14063,-2.5 9.46875,-3.28125 9.46875,-4.21875 L9.46875,-15.0938 C9.46875,-15.3438 9.40625,-15.5313 9.28125,-15.6563 C9.15625,-15.7813 8.9375,-15.8438 8.625,-15.8438 L8.0625,-15.8438 L8.0625,-16.4063 L11.4375,-16.4063 L11.4375,-15.8438 L10.875,-15.8438 C10.625,-15.8438 10.4219,-15.7813 10.2656,-15.6563 C10.1094,-15.5313 10.0313,-15.3438 10.0313,-15.0938 L10.0313,-4.21875 C10.0313,-2.96875 9.60938,-1.98438 8.76563,-1.26563 C7.92188,-0.546875 6.96875,-0.1875 5.90625,-0.1875 C4.78125,-0.1875 3.79688,-0.5 2.95313,-1.125 C2.10938,-1.75 1.6875,-2.75 1.6875,-4.125 L1.6875,-15.0938 C1.6875,-15.3438 1.625,-15.5313 1.5,-15.6563 C1.375,-15.7813 1.15625,-15.8438 0.84375,-15.8438 L0.375,-15.8438 L0.375,-16.4063 L4.5,-16.4063 L4.5,-15.8438 L4.03125,-15.8438 C3.78125,-15.8438 3.57813,-15.7813 3.42188,-15.6563 C3.26563,-15.5313 3.1875,-15.3438 3.1875,-15.0938 L3.1875,-4.125 C3.1875,-2.875 3.45313,-2.03125 3.98438,-1.59375 C4.51563,-1.15625 5.21875,-0.9375 6.09375,-0.9375 M13.5,1.78125 L12.8438,1.40625 L22.4063,-18.6563 L23.0625,-18.2813 L13.5,1.78125 M31.9688,-15.8438 L31.9688,-16.4063 L35.3438,-16.4063 L35.3438,-15.8438 L34.9688,-15.8438 C34.7188,-15.8438 34.4844,-15.75 34.2656,-15.5625 C34.0469,-15.375 33.875,-15.0313 33.75,-14.5313 L29.9063,-0.375 L29.3438,-0.375 L25.875,-14.5313 C25.8125,-14.9688 25.7031,-15.2969 25.5469,-15.5156 C25.3906,-15.7344 25.1563,-15.8438 24.8438,-15.8438 L24.375,-15.8438 L24.375,-16.4063 L28.4063,-16.4063 L28.4063,-15.8438 L28.0313,-15.8438 C27.7188,-15.8438 27.5156,-15.75 27.4219,-15.5625 C27.3281,-15.375 27.3125,-15.125 27.375,-14.8125 L30,-3.84375 L30.1875,-3.84375 L33,-14.5313 C33.0625,-14.7813 33.0938,-14.9688 33.0938,-15.0938 C33.0938,-15.2813 33.0469,-15.4531 32.9531,-15.6094 C32.8594,-15.7656 32.625,-15.8438 32.25,-15.8438 L31.9688,-15.8438 M33.375,-15.8438"/>
</g>

<g fill="#333333" fill-opacity="1" stroke="none" transform="matrix(0.5,0,0,0.5,24.75,184.25)"
font-family="SimSun" font-size="9" font-weight="400" font-style="normal" 
>
<path fill-rule="evenodd" d="M2.25,-15.8438 L2.25,-16.4063 L9.75,-16.4063 L9.75,-15.8438 L7.59375,-15.8438 C7.34375,-15.8438 7.14063,-15.7813 6.98438,-15.6563 C6.82813,-15.5313 6.75,-15.3438 6.75,-15.0938 L6.75,-1.6875 C6.75,-1.4375 6.82813,-1.25 6.98438,-1.125 C7.14063,-1 7.34375,-0.9375 7.59375,-0.9375 L9.75,-0.9375 L9.75,-0.375 L2.25,-0.375 L2.25,-0.9375 L4.40625,-0.9375 C4.71875,-0.9375 4.9375,-1 5.0625,-1.125 C5.1875,-1.25 5.25,-1.4375 5.25,-1.6875 L5.25,-15.0938 C5.25,-15.3438 5.1875,-15.5313 5.0625,-15.6563 C4.9375,-15.7813 4.71875,-15.8438 4.40625,-15.8438 L2.25,-15.8438 M13.5,1.78125 L12.8438,1.40625 L22.4063,-18.6563 L23.0625,-18.2813 L13.5,1.78125 M31.5938,-6.375 L27.375,-6.375 L26.5313,-2.8125 C26.4688,-2.5 26.4375,-2.25 26.4375,-2.0625 C26.4375,-1.8125 26.4844,-1.5625 26.5781,-1.3125 C26.6719,-1.0625 26.9375,-0.9375 27.375,-0.9375 L27.6563,-0.9375 L27.6563,-0.375 L24.1875,-0.375 L24.1875,-0.9375 L24.4688,-0.9375 C24.7188,-0.9375 24.9375,-1.01563 25.125,-1.17188 C25.3125,-1.32813 25.4375,-1.59375 25.5,-1.96875 L29.1563,-16.3125 L30.5625,-16.7813 L34.125,-1.96875 C34.25,-1.59375 34.4063,-1.32813 34.5938,-1.17188 C34.7813,-1.01563 35,-0.9375 35.25,-0.9375 L35.5313,-0.9375 L35.5313,-0.375 L31.5,-0.375 L31.5,-0.9375 L31.875,-0.9375 C32.25,-0.9375 32.4688,-1.01563 32.5313,-1.17188 C32.5938,-1.32813 32.625,-1.46875 32.625,-1.59375 C32.625,-1.84375 32.5938,-2.0625 32.5313,-2.25 L31.5938,-6.375 M29.625,-14.7188 L29.5313,-14.7188 L27.5625,-6.9375 L31.5,-6.9375 L29.625,-14.7188"/>
</g>

<g fill="#333333" fill-opacity="1" stroke="none" transform="matrix(0.5,0,0,0.5,31,36)"
font-family="SimSun" font-size="9" font-weight="400" font-style="normal" 
>
<path fill-rule="evenodd" d="M2.40625,-7.73438 C2.40625,-5.27604 2.70833,-3.48698 3.3125,-2.36719 C3.91667,-1.2474 4.67708,-0.6875 5.59375,-0.6875 C6.5625,-0.6875 7.33333,-1.21875 7.90625,-2.28125 C8.47917,-3.34375 8.76563,-5.16146 8.76563,-7.73438 C8.76563,-9.79688 8.52344,-11.4583 8.03906,-12.7188 C7.55469,-13.9792 6.73958,-14.6094 5.59375,-14.6094 C4.61458,-14.6094 3.83854,-14.0365 3.26563,-12.8906 C2.69271,-11.7448 2.40625,-10.026 2.40625,-7.73438 M10.4063,-7.73438 C10.4063,-5.39063 9.94792,-3.54427 9.03125,-2.19531 C8.11458,-0.846354 6.96875,-0.171875 5.59375,-0.171875 C4.27083,-0.171875 3.13802,-0.859375 2.19531,-2.23438 C1.2526,-3.60938 0.78125,-5.44271 0.78125,-7.73438 C0.78125,-9.97396 1.22396,-11.7813 2.10938,-13.1563 C2.99479,-14.5313 4.15625,-15.2188 5.59375,-15.2188 C7.08333,-15.2188 8.25781,-14.487 9.11719,-13.0234 C9.97656,-11.5599 10.4063,-9.79688 10.4063,-7.73438 "/>
</g>

<g fill="#e74c3c" fill-opacity="1" stroke="#e74c3c" stroke-opacity="1" stroke-width="5" stroke-linecap="butt" stroke-linejoin="round" transform="matrix(0.5,0,0,0.5,0,0)"
font-family="SimSun" font-size="9" font-weight="400" font-style="normal" 
>
<polyline fill="none" points="97.5,82.5 515.4,255.3 " />
</g>

<g fill="#e74c3c" fill-opacity="1" stroke="none" transform="matrix(0.5,0,0,0.5,251.2,131.4)"
font-family="SimSun" font-size="9" font-weight="400" font-style="normal" 
>
<path fill-rule="evenodd" d="M8.82813,-10.5469 C8.82813,-9.50521 8.54167,-8.69792 7.96875,-8.125 C7.39583,-7.55208 6.74479,-7.21354 6.01563,-7.10938 L8.35938,-1.32813 C8.46354,-1.11979 8.58073,-0.976563 8.71094,-0.898438 C8.84115,-0.820313 8.98438,-0.78125 9.14063,-0.78125 L9.60938,-0.78125 L9.60938,-0.3125 L7.42188,-0.3125 L4.84375,-7.03125 L3.04688,-7.03125 L3.04688,-1.40625 C3.04688,-1.19792 3.11198,-1.04167 3.24219,-0.9375 C3.3724,-0.833333 3.54167,-0.78125 3.75,-0.78125 L4.21875,-0.78125 L4.21875,-0.3125 L0.625,-0.3125 L0.625,-0.78125 L1.09375,-0.78125 C1.35417,-0.78125 1.53646,-0.833333 1.64063,-0.9375 C1.74479,-1.04167 1.79688,-1.19792 1.79688,-1.40625 L1.79688,-12.5781 C1.79688,-12.7865 1.74479,-12.9427 1.64063,-13.0469 C1.53646,-13.151 1.35417,-13.2031 1.09375,-13.2031 L0.625,-13.2031 L0.625,-13.6719 L5.07813,-13.6719 C6.27604,-13.6719 7.20052,-13.4115 7.85156,-12.8906 C8.5026,-12.3698 8.82813,-11.5885 8.82813,-10.5469 M3.04688,-7.5 L4.76563,-7.5 C5.54688,-7.5 6.19792,-7.73438 6.71875,-8.20313 C7.23958,-8.67188 7.5,-9.40104 7.5,-10.3906 C7.5,-11.276 7.26563,-11.9661 6.79688,-12.4609 C6.32813,-12.9557 5.59896,-13.2031 4.60938,-13.2031 L3.75,-13.2031 C3.54167,-13.2031 3.3724,-13.151 3.24219,-13.0469 C3.11198,-12.9427 3.04688,-12.7865 3.04688,-12.5781 L3.04688,-7.5 M10.625,-8.82813 L10.625,-9.53125 L19.2969,-9.53125 L19.2969,-8.82813 L10.625,-8.82813 M10.625,-4.84375 L10.625,-5.54688 L19.2969,-5.54688 L19.2969,-4.84375 L10.625,-4.84375 M25.3906,-8.90625 C26.3802,-8.90625 27.1875,-8.52865 27.8125,-7.77344 C28.4375,-7.01823 28.75,-6.01563 28.75,-4.76563 C28.75,-3.35938 28.4245,-2.23958 27.7734,-1.40625 C27.1224,-0.572917 26.1198,-0.15625 24.7656,-0.15625 C23.8281,-0.15625 22.9948,-0.429688 22.2656,-0.976563 C21.5365,-1.52344 21.1719,-2.1875 21.1719,-2.96875 C21.1719,-3.28125 21.263,-3.55469 21.4453,-3.78906 C21.6276,-4.02344 21.875,-4.14063 22.1875,-4.14063 C22.5,-4.14063 22.7083,-4.03646 22.8125,-3.82813 C22.9167,-3.61979 22.9688,-3.4375 22.9688,-3.28125 C22.9688,-2.96875 22.8906,-2.73438 22.7344,-2.57813 C22.5781,-2.36979 22.5,-2.16146 22.5,-1.95313 C22.5,-1.53646 22.7474,-1.22396 23.2422,-1.01563 C23.737,-0.807292 24.2708,-0.703125 24.8438,-0.703125 C25.6771,-0.703125 26.3151,-1.04167 26.7578,-1.71875 C27.2005,-2.39583 27.4219,-3.35938 27.4219,-4.60938 C27.4219,-5.65104 27.2266,-6.4974 26.8359,-7.14844 C26.4453,-7.79948 25.8594,-8.125 25.0781,-8.125 C24.5052,-8.125 24.0104,-8.02083 23.5938,-7.8125 C23.1771,-7.60417 22.7865,-7.16146 22.4219,-6.48438 L21.7188,-6.5625 L22.1094,-13.6719 L28.5156,-13.6719 L28.2813,-12.5 L22.6563,-12.5 L22.3438,-7.34375 C22.8646,-8.07292 23.3724,-8.51563 23.8672,-8.67188 C24.362,-8.82813 24.8698,-8.90625 25.3906,-8.90625 M41.4063,-4.14063 L41.4063,-2.96875 L44.2969,-2.96875 L44.6875,-4.21875 L45.0781,-4.21875 L44.8438,-1.79688 L40.8594,-1.79688 L40.8594,-4.45313 C41.849,-4.81771 42.5781,-5.3125 43.0469,-5.9375 C43.5156,-6.5625 43.75,-7.5 43.75,-8.75 C43.75,-10 43.3854,-11.1068 42.6563,-12.0703 C41.9271,-13.0339 41.0938,-13.5286 40.1563,-13.5547 C39.2188,-13.5807 38.3464,-13.151 37.5391,-12.2656 C36.7318,-11.3802 36.3151,-10.2474 36.2891,-8.86719 C36.263,-7.48698 36.5365,-6.44531 37.1094,-5.74219 C37.6823,-5.03906 38.3073,-4.58333 38.9844,-4.375 L38.9844,-1.79688 L35,-1.79688 L34.7656,-4.21875 L35.1563,-4.21875 L35.625,-2.96875 L38.4375,-2.96875 L38.4375,-4.0625 C36.3542,-4.63542 35.2344,-5.45573 35.0781,-6.52344 C34.9219,-7.59115 34.8438,-8.33333 34.8438,-8.75 C34.8438,-10.0521 35.2474,-11.1849 36.0547,-12.1484 C36.862,-13.112 37.6172,-13.6849 38.3203,-13.8672 C39.0234,-14.0495 39.6094,-14.1406 40.0781,-14.1406 C40.651,-14.1406 41.3281,-14.0104 42.1094,-13.75 C42.8906,-13.4896 43.6198,-12.8776 44.2969,-11.9141 C44.974,-10.9505 45.3125,-9.94792 45.3125,-8.90625 C45.3125,-8.38542 45.1953,-7.59115 44.9609,-6.52344 C44.7266,-5.45573 43.5417,-4.66146 41.4063,-4.14063 "/>
</g>

<g fill="#3498db" fill-opacity="1" stroke="#3498db" stroke-opacity="1" stroke-width="5" stroke-linecap="butt" stroke-linejoin="round" transform="matrix(0.5,0,0,0.5,0,0)"
font-family="SimSun" font-size="9" font-weight="400" font-style="normal" 
>
<polyline fill="none" points="97.5,82.5 515.4,168.9 " />
</g>

<g fill="#3498db" fill-opacity="1" stroke="none" transform="matrix(0.5,0,0,0.5,248.7,88.2)"
font-family="SimSun" font-size="9" font-weight="400" font-style="normal" 
>
<path fill-rule="evenodd" d="M8.82813,-10.5469 C8.82813,-9.50521 8.54167,-8.69792 7.96875,-8.125 C7.39583,-7.55208 6.74479,-7.21354 6.01563,-7.10938 L8.35938,-1.32813 C8.46354,-1.11979 8.58073,-0.976563 8.71094,-0.898438 C8.84115,-0.820313 8.98438,-0.78125 9.14063,-0.78125 L9.60938,-0.78125 L9.60938,-0.3125 L7.42188,-0.3125 L4.84375,-7.03125 L3.04688,-7.03125 L3.04688,-1.40625 C3.04688,-1.19792 3.11198,-1.04167 3.24219,-0.9375 C3.3724,-0.833333 3.54167,-0.78125 3.75,-0.78125 L4.21875,-0.78125 L4.21875,-0.3125 L0.625,-0.3125 L0.625,-0.78125 L1.09375,-0.78125 C1.35417,-0.78125 1.53646,-0.833333 1.64063,-0.9375 C1.74479,-1.04167 1.79688,-1.19792 1.79688,-1.40625 L1.79688,-12.5781 C1.79688,-12.7865 1.74479,-12.9427 1.64063,-13.0469 C1.53646,-13.151 1.35417,-13.2031 1.09375,-13.2031 L0.625,-13.2031 L0.625,-13.6719 L5.07813,-13.6719 C6.27604,-13.6719 7.20052,-13.4115 7.85156,-12.8906 C8.5026,-12.3698 8.82813,-11.5885 8.82813,-10.5469 M3.04688,-7.5 L4.76563,-7.5 C5.54688,-7.5 6.19792,-7.73438 6.71875,-8.20313 C7.23958,-8.67188 7.5,-9.40104 7.5,-10.3906 C7.5,-11.276 7.26563,-11.9661 6.79688,-12.4609 C6.32813,-12.9557 5.59896,-13.2031 4.60938,-13.2031 L3.75,-13.2031 C3.54167,-13.2031 3.3724,-13.151 3.24219,-13.0469 C3.11198,-12.9427 3.04688,-12.7865 3.04688,-12.5781 L3.04688,-7.5 M10.625,-8.82813 L10.625,-9.53125 L19.2969,-9.53125 L19.2969,-8.82813 L10.625,-8.82813 M10.625,-4.84375 L10.625,-5.54688 L19.2969,-5.54688 L19.2969,-4.84375 L10.625,-4.84375 M25.7031,-13.9063 L25.7031,-2.03125 C25.7031,-1.61458 25.8333,-1.30208 26.0938,-1.09375 C26.3542,-0.885417 26.7188,-0.78125 27.1875,-0.78125 L27.9688,-0.78125 L27.9688,-0.3125 L22.2656,-0.3125 L22.2656,-0.78125 L22.9688,-0.78125 C23.4896,-0.78125 23.8672,-0.885417 24.1016,-1.09375 C24.3359,-1.30208 24.4531,-1.61458 24.4531,-2.03125 L24.4531,-11.4844 C24.4531,-11.6927 24.388,-11.862 24.2578,-11.9922 C24.1276,-12.1224 23.9323,-12.1875 23.6719,-12.1875 L22.2656,-12.1875 L22.2656,-12.6563 L22.9688,-12.6563 C23.5938,-12.6563 24.1016,-12.7604 24.4922,-12.9688 C24.8828,-13.1771 25.1823,-13.4896 25.3906,-13.9063 L25.7031,-13.9063 M35,-13.2031 C34.2708,-13.2031 33.6589,-12.6432 33.1641,-11.5234 C32.6693,-10.4036 32.4219,-8.90625 32.4219,-7.03125 C32.4219,-5.05208 32.6693,-3.51563 33.1641,-2.42188 C33.6589,-1.32813 34.2708,-0.78125 35,-0.78125 C35.7813,-0.78125 36.3932,-1.32813 36.8359,-2.42188 C37.2786,-3.51563 37.5,-5.05208 37.5,-7.03125 C37.5,-8.90625 37.2917,-10.4036 36.875,-11.5234 C36.4583,-12.6432 35.8333,-13.2031 35,-13.2031 M35,-0.15625 C33.8542,-0.15625 32.8906,-0.755208 32.1094,-1.95313 C31.3281,-3.15104 30.9375,-4.84375 30.9375,-7.03125 C30.9375,-9.0625 31.3151,-10.7031 32.0703,-11.9531 C32.8255,-13.2031 33.8021,-13.8281 35,-13.8281 C36.1458,-13.8281 37.0964,-13.2292 37.8516,-12.0313 C38.6068,-10.8333 38.9844,-9.16667 38.9844,-7.03125 C38.9844,-4.89583 38.6068,-3.21615 37.8516,-1.99219 C37.0964,-0.768229 36.1458,-0.15625 35,-0.15625 M51.4063,-4.14063 L51.4063,-2.96875 L54.2969,-2.96875 L54.6875,-4.21875 L55.0781,-4.21875 L54.8438,-1.79688 L50.8594,-1.79688 L50.8594,-4.45313 C51.849,-4.81771 52.5781,-5.3125 53.0469,-5.9375 C53.5156,-6.5625 53.75,-7.5 53.75,-8.75 C53.75,-10 53.3854,-11.1068 52.6563,-12.0703 C51.9271,-13.0339 51.0938,-13.5286 50.1563,-13.5547 C49.2188,-13.5807 48.3464,-13.151 47.5391,-12.2656 C46.7318,-11.3802 46.3151,-10.2474 46.2891,-8.86719 C46.263,-7.48698 46.5365,-6.44531 47.1094,-5.74219 C47.6823,-5.03906 48.3073,-4.58333 48.9844,-4.375 L48.9844,-1.79688 L45,-1.79688 L44.7656,-4.21875 L45.1563,-4.21875 L45.625,-2.96875 L48.4375,-2.96875 L48.4375,-4.0625 C46.3542,-4.63542 45.2344,-5.45573 45.0781,-6.52344 C44.9219,-7.59115 44.8438,-8.33333 44.8438,-8.75 C44.8438,-10.0521 45.2474,-11.1849 46.0547,-12.1484 C46.862,-13.112 47.6172,-13.6849 48.3203,-13.8672 C49.0234,-14.0495 49.6094,-14.1406 50.0781,-14.1406 C50.651,-14.1406 51.3281,-14.0104 52.1094,-13.75 C52.8906,-13.4896 53.6198,-12.8776 54.2969,-11.9141 C54.974,-10.9505 55.3125,-9.94792 55.3125,-8.90625 C55.3125,-8.38542 55.1953,-7.59115 54.9609,-6.52344 C54.7266,-5.45573 53.5417,-4.66146 51.4063,-4.14063 "/>
</g>

<g fill="#2ecc71" fill-opacity="1" stroke="#2ecc71" stroke-opacity="1" stroke-width="5" stroke-linecap="butt" stroke-linejoin="round" transform="matrix(0.5,0,0,0.5,0,0)"
font-family="SimSun" font-size="9" font-weight="400" font-style="normal" 
>
<polyline fill="none" points="97.5,82.5 515.4,125.7 " />
</g>

<g fill="#2ecc71" fill-opacity="1" stroke="none" transform="matrix(0.5,0,0,0.5,248.7,66.6)"
font-family="SimSun" font-size="9" font-weight="400" font-style="normal" 
>
<path fill-rule="evenodd" d="M8.82813,-10.5469 C8.82813,-9.50521 8.54167,-8.69792 7.96875,-8.125 C7.39583,-7.55208 6.74479,-7.21354 6.01563,-7.10938 L8.35938,-1.32813 C8.46354,-1.11979 8.58073,-0.976563 8.71094,-0.898438 C8.84115,-0.820313 8.98438,-0.78125 9.14063,-0.78125 L9.60938,-0.78125 L9.60938,-0.3125 L7.42188,-0.3125 L4.84375,-7.03125 L3.04688,-7.03125 L3.04688,-1.40625 C3.04688,-1.19792 3.11198,-1.04167 3.24219,-0.9375 C3.3724,-0.833333 3.54167,-0.78125 3.75,-0.78125 L4.21875,-0.78125 L4.21875,-0.3125 L0.625,-0.3125 L0.625,-0.78125 L1.09375,-0.78125 C1.35417,-0.78125 1.53646,-0.833333 1.64063,-0.9375 C1.74479,-1.04167 1.79688,-1.19792 1.79688,-1.40625 L1.79688,-12.5781 C1.79688,-12.7865 1.74479,-12.9427 1.64063,-13.0469 C1.53646,-13.151 1.35417,-13.2031 1.09375,-13.2031 L0.625,-13.2031 L0.625,-13.6719 L5.07813,-13.6719 C6.27604,-13.6719 7.20052,-13.4115 7.85156,-12.8906 C8.5026,-12.3698 8.82813,-11.5885 8.82813,-10.5469 M3.04688,-7.5 L4.76563,-7.5 C5.54688,-7.5 6.19792,-7.73438 6.71875,-8.20313 C7.23958,-8.67188 7.5,-9.40104 7.5,-10.3906 C7.5,-11.276 7.26563,-11.9661 6.79688,-12.4609 C6.32813,-12.9557 5.59896,-13.2031 4.60938,-13.2031 L3.75,-13.2031 C3.54167,-13.2031 3.3724,-13.151 3.24219,-13.0469 C3.11198,-12.9427 3.04688,-12.7865 3.04688,-12.5781 L3.04688,-7.5 M10.625,-8.82813 L10.625,-9.53125 L19.2969,-9.53125 L19.2969,-8.82813 L10.625,-8.82813 M10.625,-4.84375 L10.625,-5.54688 L19.2969,-5.54688 L19.2969,-4.84375 L10.625,-4.84375 M27.2656,-10.3906 C27.2656,-11.3281 27.0573,-12.0443 26.6406,-12.5391 C26.224,-13.0339 25.599,-13.2813 24.7656,-13.2813 C24.1406,-13.2813 23.6068,-13.112 23.1641,-12.7734 C22.7214,-12.4349 22.5,-12.0052 22.5,-11.4844 C22.5,-11.1719 22.6042,-10.9115 22.8125,-10.7031 C22.9688,-10.4948 23.0469,-10.2865 23.0469,-10.0781 C23.0469,-9.81771 22.9818,-9.6224 22.8516,-9.49219 C22.7214,-9.36198 22.526,-9.29688 22.2656,-9.29688 C21.9531,-9.29688 21.7057,-9.38802 21.5234,-9.57031 C21.3411,-9.7526 21.25,-10.0521 21.25,-10.4688 C21.25,-11.5625 21.6406,-12.3958 22.4219,-12.9688 C23.2031,-13.5417 24.0365,-13.8281 24.9219,-13.8281 C26.1719,-13.8281 27.0964,-13.5156 27.6953,-12.8906 C28.2943,-12.2656 28.5938,-11.4844 28.5938,-10.5469 C28.5938,-9.92188 28.4505,-9.29688 28.1641,-8.67188 C27.8776,-8.04688 27.4219,-7.44792 26.7969,-6.875 C25.2865,-5.41667 24.1276,-4.23177 23.3203,-3.32031 C22.513,-2.40885 22.0313,-1.79688 21.875,-1.48438 L26.4844,-1.48438 C26.9531,-1.48438 27.3438,-1.66667 27.6563,-2.03125 C27.9688,-2.39583 28.1771,-2.94271 28.2813,-3.67188 L28.75,-3.67188 L28.2813,-0.3125 L21.0156,-0.3125 L21.0156,-1.32813 C21.276,-1.79688 21.7057,-2.39583 22.3047,-3.125 C22.9036,-3.85417 23.6979,-4.71354 24.6875,-5.70313 C25.5729,-6.58854 26.224,-7.42188 26.6406,-8.20313 C27.0573,-8.98438 27.2656,-9.71354 27.2656,-10.3906 M35,-13.2031 C34.2708,-13.2031 33.6589,-12.6432 33.1641,-11.5234 C32.6693,-10.4036 32.4219,-8.90625 32.4219,-7.03125 C32.4219,-5.05208 32.6693,-3.51563 33.1641,-2.42188 C33.6589,-1.32813 34.2708,-0.78125 35,-0.78125 C35.7813,-0.78125 36.3932,-1.32813 36.8359,-2.42188 C37.2786,-3.51563 37.5,-5.05208 37.5,-7.03125 C37.5,-8.90625 37.2917,-10.4036 36.875,-11.5234 C36.4583,-12.6432 35.8333,-13.2031 35,-13.2031 M35,-0.15625 C33.8542,-0.15625 32.8906,-0.755208 32.1094,-1.95313 C31.3281,-3.15104 30.9375,-4.84375 30.9375,-7.03125 C30.9375,-9.0625 31.3151,-10.7031 32.0703,-11.9531 C32.8255,-13.2031 33.8021,-13.8281 35,-13.8281 C36.1458,-13.8281 37.0964,-13.2292 37.8516,-12.0313 C38.6068,-10.8333 38.9844,-9.16667 38.9844,-7.03125 C38.9844,-4.89583 38.6068,-3.21615 37.8516,-1.99219 C37.0964,-0.768229 36.1458,-0.15625 35,-0.15625 M51.4063,-4.14063 L51.4063,-2.96875 L54.2969,-2.96875 L54.6875,-4.21875 L55.0781,-4.21875 L54.8438,-1.79688 L50.8594,-1.79688 L50.8594,-4.45313 C51.849,-4.81771 52.5781,-5.3125 53.0469,-5.9375 C53.5156,-6.5625 53.75,-7.5 53.75,-8.75 C53.75,-10 53.3854,-11.1068 52.6563,-12.0703 C51.9271,-13.0339 51.0938,-13.5286 50.1563,-13.5547 C49.2188,-13.5807 48.3464,-13.151 47.5391,-12.2656 C46.7318,-11.3802 46.3151,-10.2474 46.2891,-8.86719 C46.263,-7.48698 46.5365,-6.44531 47.1094,-5.74219 C47.6823,-5.03906 48.3073,-4.58333 48.9844,-4.375 L48.9844,-1.79688 L45,-1.79688 L44.7656,-4.21875 L45.1563,-4.21875 L45.625,-2.96875 L48.4375,-2.96875 L48.4375,-4.0625 C46.3542,-4.63542 45.2344,-5.45573 45.0781,-6.52344 C44.9219,-7.59115 44.8438,-8.33333 44.8438,-8.75 C44.8438,-10.0521 45.2474,-11.1849 46.0547,-12.1484 C46.862,-13.112 47.6172,-13.6849 48.3203,-13.8672 C49.0234,-14.0495 49.6094,-14.1406 50.0781,-14.1406 C50.651,-14.1406 51.3281,-14.0104 52.1094,-13.75 C52.8906,-13.4896 53.6198,-12.8776 54.2969,-11.9141 C54.974,-10.9505 55.3125,-9.94792 55.3125,-8.90625 C55.3125,-8.38542 55.1953,-7.59115 54.9609,-6.52344 C54.7266,-5.45573 53.5417,-4.66146 51.4063,-4.14063 "/>
</g>
</g>
</svg>
