<?xml version="1.0" encoding="utf-8" standalone="no"?>
<!DOCTYPE svg PUBLIC "-//W3C//DTD SVG 1.1//EN"
  "http://www.w3.org/Graphics/SVG/1.1/DTD/svg11.dtd">
<svg xmlns:xlink="http://www.w3.org/1999/xlink" width="595.06125pt" height="301.27125pt" viewBox="0 0 595.06125 301.27125" xmlns="http://www.w3.org/2000/svg" version="1.1">
 <metadata>
  <rdf:RDF xmlns:dc="http://purl.org/dc/elements/1.1/" xmlns:cc="http://creativecommons.org/ns#" xmlns:rdf="http://www.w3.org/1999/02/22-rdf-syntax-ns#">
   <cc:Work>
    <dc:type rdf:resource="http://purl.org/dc/dcmitype/StillImage"/>
    <dc:date>2026-05-22T22:24:24.563215</dc:date>
    <dc:format>image/svg+xml</dc:format>
    <dc:creator>
     <cc:Agent>
      <dc:title>Matplotlib v3.10.9, https://matplotlib.org/</dc:title>
     </cc:Agent>
    </dc:creator>
   </cc:Work>
  </rdf:RDF>
 </metadata>
 <defs>
  <style type="text/css">*{stroke-linejoin: round; stroke-linecap: butt}</style>
 </defs>
 <g id="figure_1">
  <g id="patch_1">
   <path d="M 0 301.27125 
L 595.06125 301.27125 
L 595.06125 0 
L 0 0 
z
" style="fill: #ffffff"/>
  </g>
  <g id="axes_1">
   <g id="patch_2">
    <path d="M 110.88 104.299821 
L 147.168 104.299821 
L 147.168 77.731821 
L 110.88 77.731821 
z
" clip-path="url(#p4e3eaab20a)" style="fill: #e74c3c; stroke: #333333; stroke-width: 2; stroke-linejoin: miter"/>
   </g>
   <g id="patch_3">
    <path d="M 222.336 104.299821 
C 227.147845 104.299821 231.763257 102.900135 235.165745 100.409028 
C 238.568234 97.91792 240.48 94.538779 240.48 91.015821 
C 240.48 87.492863 238.568234 84.113722 235.165745 81.622615 
C 231.763257 79.131507 227.147845 77.731821 222.336 77.731821 
C 217.524155 77.731821 212.908743 79.131507 209.506255 81.622615 
C 206.103766 84.113722 204.192 87.492863 204.192 91.015821 
C 204.192 94.538779 206.103766 97.91792 209.506255 100.409028 
C 212.908743 102.900135 217.524155 104.299821 222.336 104.299821 
z
" clip-path="url(#p4e3eaab20a)" style="fill: #ffffff; stroke: #333333; stroke-width: 2; stroke-linejoin: miter"/>
   </g>
   <g id="patch_4">
    <path d="M 59.04 172.617536 
L 95.328 172.617536 
L 95.328 146.049536 
L 59.04 146.049536 
z
" clip-path="url(#p4e3eaab20a)" style="fill: #ffffff; stroke: #333333; stroke-width: 1.5; stroke-linejoin: miter"/>
   </g>
   <g id="patch_5">
    <path d="M 136.8 172.617536 
C 141.611845 172.617536 146.227257 171.21785 149.629745 168.726742 
C 153.032234 166.235635 154.944 162.856494 154.944 159.333536 
C 154.944 155.810578 153.032234 152.431437 149.629745 149.940329 
C 146.227257 147.449222 141.611845 146.049536 136.8 146.049536 
C 131.988155 146.049536 127.372743 147.449222 123.970255 149.940329 
C 120.567766 152.431437 118.656 155.810578 118.656 159.333536 
C 118.656 162.856494 120.567766 166.235635 123.970255 168.726742 
C 127.372743 171.21785 131.988155 172.617536 136.8 172.617536 
z
" clip-path="url(#p4e3eaab20a)" style="fill: #ffffff; stroke: #333333; stroke-width: 1.5; stroke-linejoin: miter"/>
   </g>
   <g id="patch_6">
    <path d="M 136.8 167.303936 
C 137.624888 167.303936 138.416101 167.06399 138.999385 166.636943 
C 139.582669 166.209896 139.9104 165.630614 139.9104 165.026679 
C 139.9104 164.422743 139.582669 163.843462 138.999385 163.416415 
C 138.416101 162.989368 137.624888 162.749421 136.8 162.749421 
C 135.975112 162.749421 135.183899 162.989368 134.600615 163.416415 
C 134.017331 163.843462 133.6896 164.422743 133.6896 165.026679 
C 133.6896 165.630614 134.017331 166.209896 134.600615 166.636943 
C 135.183899 167.06399 135.975112 167.303936 136.8 167.303936 
z
" clip-path="url(#p4e3eaab20a)" style="fill: #333333; stroke: #333333; stroke-linejoin: miter"/>
   </g>
   <g id="patch_7">
    <path d="M 222.336 172.617536 
L 258.624 172.617536 
L 258.624 146.049536 
L 222.336 146.049536 
z
" clip-path="url(#p4e3eaab20a)" style="fill: #e74c3c; stroke: #333333; stroke-width: 2; stroke-linejoin: miter"/>
   </g>
   <g id="patch_8">
    <path d="M 302.688 172.617536 
C 307.499845 172.617536 312.115257 171.21785 315.517745 168.726742 
C 318.920234 166.235635 320.832 162.856494 320.832 159.333536 
C 320.832 155.810578 318.920234 152.431437 315.517745 149.940329 
C 312.115257 147.449222 307.499845 146.049536 302.688 146.049536 
C 297.876155 146.049536 293.260743 147.449222 289.858255 149.940329 
C 286.455766 152.431437 284.544 155.810578 284.544 159.333536 
C 284.544 162.856494 286.455766 166.235635 289.858255 168.726742 
C 293.260743 171.21785 297.876155 172.617536 302.688 172.617536 
z
" clip-path="url(#p4e3eaab20a)" style="fill: #ffffff; stroke: #333333; stroke-width: 1.5; stroke-linejoin: miter"/>
   </g>
   <g id="patch_9">
    <path d="M 364.896 172.617536 
L 401.184 172.617536 
L 401.184 146.049536 
L 364.896 146.049536 
z
" clip-path="url(#p4e3eaab20a)" style="fill: #e74c3c; stroke: #333333; stroke-width: 2; stroke-linejoin: miter"/>
   </g>
   <g id="patch_10">
    <path d="M 100.512 239.037536 
C 105.323845 239.037536 109.939257 237.63785 113.341745 235.146742 
C 116.744234 232.655635 118.656 229.276494 118.656 225.753536 
C 118.656 222.230578 116.744234 218.851437 113.341745 216.360329 
C 109.939257 213.869222 105.323845 212.469536 100.512 212.469536 
C 95.700155 212.469536 91.084743 213.869222 87.682255 216.360329 
C 84.279766 218.851437 82.368 222.230578 82.368 225.753536 
C 82.368 229.276494 84.279766 232.655635 87.682255 235.146742 
C 91.084743 237.63785 95.700155 239.037536 100.512 239.037536 
z
" clip-path="url(#p4e3eaab20a)" style="fill: #ffffff; stroke: #333333; stroke-width: 1.5; stroke-linejoin: miter"/>
   </g>
   <g id="patch_11">
    <path d="M 162.72 239.037536 
L 199.008 239.037536 
L 199.008 212.469536 
L 162.72 212.469536 
z
" clip-path="url(#p4e3eaab20a)" style="fill: #e74c3c; stroke: #333333; stroke-width: 2; stroke-linejoin: miter"/>
   </g>
   <g id="patch_12">
    <path d="M 230.112 239.037536 
C 234.923845 239.037536 239.539257 237.63785 242.941745 235.146742 
C 246.344234 232.655635 248.256 229.276494 248.256 225.753536 
C 248.256 222.230578 246.344234 218.851437 242.941745 216.360329 
C 239.539257 213.869222 234.923845 212.469536 230.112 212.469536 
C 225.300155 212.469536 220.684743 213.869222 217.282255 216.360329 
C 213.879766 218.851437 211.968 222.230578 211.968 225.753536 
C 211.968 229.276494 213.879766 232.655635 217.282255 235.146742 
C 220.684743 237.63785 225.300155 239.037536 230.112 239.037536 
z
" clip-path="url(#p4e3eaab20a)" style="fill: #ffffff; stroke: #333333; stroke-width: 1.5; stroke-linejoin: miter"/>
   </g>
   <g id="line2d_1">
    <path d="M 147.168 91.015821 
L 204.192 91.015821 
" clip-path="url(#p4e3eaab20a)" style="fill: none; stroke: #000000; stroke-width: 1.5; stroke-linecap: square"/>
   </g>
   <g id="line2d_2">
    <path d="M 129.024 130.867821 
L 222.336 130.867821 
" clip-path="url(#p4e3eaab20a)" style="fill: none; stroke: #000000; stroke-width: 1.5; stroke-linecap: square"/>
   </g>
   <g id="line2d_3">
    <path d="M 175.68 130.867821 
L 175.68 117.583821 
" clip-path="url(#p4e3eaab20a)" style="fill: none; stroke: #000000; stroke-width: 1.5; stroke-linecap: square"/>
   </g>
   <g id="line2d_4">
    <path d="M 154.944 159.333536 
L 204.192 159.333536 
" clip-path="url(#p4e3eaab20a)" style="fill: none; stroke: #000000; stroke-width: 1.5; stroke-linecap: square"/>
   </g>
   <g id="line2d_5">
    <path d="M 136.8 195.390107 
L 240.48 195.390107 
" clip-path="url(#p4e3eaab20a)" style="fill: none; stroke: #000000; stroke-width: 1.5; stroke-linecap: square"/>
   </g>
   <g id="line2d_6">
    <path d="M 188.64 195.390107 
L 188.64 184.003821 
" clip-path="url(#p4e3eaab20a)" style="fill: none; stroke: #000000; stroke-width: 1.5; stroke-linecap: square"/>
   </g>
   <g id="text_1">
    <g id="patch_13">
     <path d="M 17.568 52.305737 
L 210.817688 52.305737 
Q 213.517688 52.305737 213.517688 49.605737 
L 213.517688 40.174018 
Q 213.517688 37.474018 210.817688 37.474018 
L 17.568 37.474018 
Q 14.868 37.474018 14.868 40.174018 
L 14.868 49.605737 
Q 14.868 52.305737 17.568 52.305737 
z
" style="fill: #f8f9fc; stroke: #dddddd; stroke-linejoin: miter"/>
    </g>
    <!-- ■ 患病男性  □ 正常男性  ● 患病女性  ○ 正常女性 -->
    <g style="fill: #555555" transform="translate(17.568 47.368393) scale(0.09 -0.09)">
     <defs>
      <path id="MicrosoftYaHei-25a0" d="M 456 2950 
L 3406 2950 
L 3406 0 
L 456 0 
L 456 2950 
z
" transform="scale(0.015625)"/>
      <path id="MicrosoftYaHei-20" transform="scale(0.015625)"/>
      <path id="MicrosoftYaHei-60a3" d="M 688 2947 
L 2969 2947 
L 2969 3434 
L 1200 3434 
L 1200 3259 
L 750 3259 
L 750 4772 
L 2969 4772 
L 2969 5297 
L 3431 5297 
L 3431 4772 
L 5650 4772 
L 5650 3259 
L 5200 3259 
L 5200 3434 
L 3431 3434 
L 3431 2947 
L 5713 2947 
L 5713 1334 
L 5263 1334 
L 5263 1572 
L 3431 1572 
L 3431 1184 
L 2969 1184 
L 2969 1572 
L 1138 1572 
L 1138 1334 
L 688 1334 
L 688 2947 
z
M 1613 1047 
L 2075 1047 
L 2075 166 
Q 2075 -216 2506 -216 
L 3819 -216 
Q 4288 -216 4350 153 
Q 4400 366 4463 816 
Q 4675 728 4956 628 
Q 4869 191 4794 -72 
Q 4638 -653 3900 -653 
L 2388 -653 
Q 1613 -653 1613 141 
L 1613 1047 
z
M 5263 2547 
L 3431 2547 
L 3431 1972 
L 5263 1972 
L 5263 2547 
z
M 1138 1972 
L 2969 1972 
L 2969 2547 
L 1138 2547 
L 1138 1972 
z
M 5200 4372 
L 3431 4372 
L 3431 3834 
L 5200 3834 
L 5200 4372 
z
M 1200 3834 
L 2969 3834 
L 2969 4372 
L 1200 4372 
L 1200 3834 
z
M 713 984 
L 1175 828 
Q 913 41 569 -566 
Q 406 -478 125 -347 
Q 500 259 713 984 
z
M 5125 803 
L 5488 1059 
Q 5931 516 6319 -16 
L 5894 -316 
Q 5519 272 5125 803 
z
M 2513 922 
L 2781 1272 
Q 3394 909 3813 647 
L 3506 247 
Q 3050 578 2513 922 
z
" transform="scale(0.015625)"/>
      <path id="MicrosoftYaHei-75c5" d="M 1725 3541 
L 6163 3541 
L 6163 3103 
L 4225 3103 
Q 4219 2728 4197 2416 
L 5981 2416 
L 5981 47 
Q 5981 -684 5225 -691 
Q 4788 -697 4163 -684 
Q 4125 -466 4063 -191 
Q 4563 -228 5081 -228 
Q 5506 -228 5506 147 
L 5506 1991 
L 4147 1991 
Q 4131 1878 4109 1775 
Q 4781 1056 5250 503 
L 4888 141 
Q 4428 747 3963 1288 
Q 3675 591 2819 -16 
Q 2675 166 2494 378 
Q 3575 1041 3688 1991 
L 2388 1991 
L 2388 -766 
L 1913 -766 
L 1913 2416 
L 3744 2416 
Q 3769 2722 3775 3103 
L 1725 3103 
L 1725 3541 
z
M 1481 2484 
Q 1481 178 506 -778 
Q 363 -572 163 -366 
Q 831 328 969 1619 
Q 666 1425 213 1153 
L 94 1678 
Q 669 1953 1013 2159 
L 1013 4584 
L 3472 4584 
Q 3309 4838 3094 5128 
L 3506 5366 
Q 3775 5022 3963 4734 
L 3713 4584 
L 6300 4584 
L 6300 4147 
L 1481 4147 
L 1481 2484 
z
M 175 3834 
L 581 3959 
Q 750 3384 919 2728 
L 469 2597 
Q 344 3247 175 3834 
z
" transform="scale(0.015625)"/>
      <path id="MicrosoftYaHei-7537" d="M 719 5022 
L 5681 5022 
L 5681 2041 
L 5206 2041 
L 5206 2303 
L 1194 2303 
L 1194 2041 
L 719 2041 
L 719 5022 
z
M 325 1553 
L 2581 1553 
Q 2616 1797 2644 2097 
L 3150 2097 
Q 3116 1788 3084 1553 
L 5963 1553 
Q 5900 747 5844 284 
Q 5725 -728 4781 -728 
Q 4181 -728 3550 -703 
Q 3525 -491 3456 -153 
Q 4144 -228 4706 -228 
Q 5275 -228 5344 328 
Q 5394 684 5431 1116 
L 3013 1116 
Q 2784 -269 513 -859 
Q 494 -834 188 -409 
Q 2250 69 2509 1116 
L 325 1116 
L 325 1553 
z
M 1194 2728 
L 2963 2728 
L 2963 3453 
L 1194 3453 
L 1194 2728 
z
M 3438 2728 
L 5206 2728 
L 5206 3453 
L 3438 3453 
L 3438 2728 
z
M 5206 4597 
L 3438 4597 
L 3438 3878 
L 5206 3878 
L 5206 4597 
z
M 1194 3878 
L 2963 3878 
L 2963 4597 
L 1194 4597 
L 1194 3878 
z
" transform="scale(0.015625)"/>
      <path id="MicrosoftYaHei-6027" d="M 1963 -153 
L 3988 -153 
L 3988 1522 
L 2375 1522 
L 2375 1959 
L 3988 1959 
L 3988 3472 
L 2975 3472 
Q 2744 2878 2438 2291 
Q 2169 2509 2019 2578 
Q 2644 3709 2894 4891 
L 3388 4759 
Q 3281 4328 3138 3909 
L 3988 3909 
L 3988 5284 
L 4481 5284 
L 4481 3909 
L 6125 3909 
L 6125 3472 
L 4481 3472 
L 4481 1959 
L 6000 1959 
L 6000 1522 
L 4481 1522 
L 4481 -153 
L 6319 -153 
L 6319 -591 
L 1963 -591 
L 1963 -153 
z
M 988 5291 
L 1469 5291 
L 1469 4091 
L 1738 4241 
Q 2063 3734 2294 3291 
L 1906 3041 
Q 1688 3503 1469 3859 
L 1469 -872 
L 988 -872 
L 988 5291 
z
M 406 3878 
L 819 3784 
Q 706 3028 506 2178 
Q 338 2241 75 2297 
Q 263 2978 406 3878 
z
" transform="scale(0.015625)"/>
      <path id="MicrosoftYaHei-25a1" d="M 494 3188 
L 3678 3188 
L 3678 0 
L 494 0 
L 494 3188 
z
M 747 2928 
L 747 256 
L 3422 256 
L 3422 2928 
L 747 2928 
z
" transform="scale(0.015625)"/>
      <path id="MicrosoftYaHei-6b63" d="M 88 66 
L 1106 66 
L 1106 3416 
L 1644 3416 
L 1644 66 
L 3231 66 
L 3231 4309 
L 375 4309 
L 375 4797 
L 6063 4797 
L 6063 4309 
L 3769 4309 
L 3769 2672 
L 5850 2672 
L 5850 2191 
L 3769 2191 
L 3769 66 
L 6313 66 
L 6313 -422 
L 88 -422 
L 88 66 
z
" transform="scale(0.015625)"/>
      <path id="MicrosoftYaHei-5e38" d="M 1213 -372 
L 725 -372 
L 725 1409 
L 2963 1409 
L 2963 1997 
L 1738 1997 
L 1738 1772 
L 1263 1772 
L 1263 3366 
L 5175 3366 
L 5175 1772 
L 4700 1772 
L 4700 1997 
L 3463 1997 
L 3463 1409 
L 5756 1409 
L 5756 341 
Q 5756 -378 5000 -378 
Q 4681 -378 4269 -372 
Q 4231 -153 4175 109 
Q 4556 72 4881 72 
Q 5269 72 5269 409 
L 5269 997 
L 3463 997 
L 3463 -853 
L 2963 -853 
L 2963 997 
L 1213 997 
L 1213 -372 
z
M 356 4216 
L 1828 4216 
Q 1409 4572 956 4903 
L 1244 5228 
Q 1713 4916 2188 4572 
L 1853 4216 
L 2956 4216 
L 2956 5309 
L 3456 5309 
L 3456 4216 
L 4488 4216 
L 4238 4528 
Q 4750 4866 5213 5247 
L 5575 4878 
Q 5128 4547 4631 4216 
L 6056 4216 
L 6056 3109 
L 5569 3109 
L 5569 3791 
L 844 3791 
L 844 3109 
L 356 3109 
L 356 4216 
z
M 4700 2966 
L 1738 2966 
L 1738 2397 
L 4700 2397 
L 4700 2966 
z
" transform="scale(0.015625)"/>
      <path id="MicrosoftYaHei-25cf" d="M 600 1950 
Q 600 2556 1040 2995 
Q 1481 3434 2084 3434 
Q 2691 3434 3133 2993 
Q 3575 2553 3575 1950 
Q 3575 1356 3134 909 
Q 2694 463 2094 463 
Q 1481 463 1040 898 
Q 600 1334 600 1950 
z
" transform="scale(0.015625)"/>
      <path id="MicrosoftYaHei-5973" d="M 5888 -341 
L 5544 -809 
Q 4509 -206 3344 384 
Q 2416 -325 413 -853 
Q 300 -634 119 -353 
Q 1941 50 2831 641 
Q 1956 1075 1013 1503 
Q 1438 2428 1769 3309 
L 175 3309 
L 175 3772 
L 1934 3772 
Q 2216 4566 2419 5328 
L 2975 5216 
Q 2725 4434 2491 3772 
L 6219 3772 
L 6219 3309 
L 4916 3309 
Q 4644 1663 3741 741 
Q 4841 209 5888 -341 
z
M 4394 3309 
L 2322 3309 
Q 1978 2384 1663 1709 
Q 2469 1347 3250 975 
Q 4159 1841 4394 3309 
z
" transform="scale(0.015625)"/>
      <path id="MicrosoftYaHei-25cb" d="M 1934 3181 
Q 2278 3181 2609 3003 
Q 2941 2825 3125 2494 
Q 3309 2163 3309 1806 
Q 3309 1234 2906 831 
Q 2503 428 1934 428 
Q 1363 428 959 831 
Q 556 1234 556 1806 
Q 556 2166 740 2495 
Q 925 2825 1256 3003 
Q 1588 3181 1934 3181 
z
M 1934 2944 
Q 1644 2944 1372 2797 
Q 1100 2650 947 2375 
Q 794 2100 794 1806 
Q 794 1334 1128 1000 
Q 1463 666 1934 666 
Q 2406 666 2739 1000 
Q 3072 1334 3072 1806 
Q 3072 2100 2919 2375 
Q 2766 2650 2494 2797 
Q 2222 2944 1934 2944 
z
" transform="scale(0.015625)"/>
     </defs>
     <use xlink:href="#MicrosoftYaHei-25a0"/>
     <use xlink:href="#MicrosoftYaHei-20" transform="translate(60.400391 0)"/>
     <use xlink:href="#MicrosoftYaHei-60a3" transform="translate(89.990234 0)"/>
     <use xlink:href="#MicrosoftYaHei-75c5" transform="translate(189.990234 0)"/>
     <use xlink:href="#MicrosoftYaHei-7537" transform="translate(289.990234 0)"/>
     <use xlink:href="#MicrosoftYaHei-6027" transform="translate(389.990234 0)"/>
     <use xlink:href="#MicrosoftYaHei-20" transform="translate(489.990234 0)"/>
     <use xlink:href="#MicrosoftYaHei-20" transform="translate(519.580078 0)"/>
     <use xlink:href="#MicrosoftYaHei-25a1" transform="translate(549.169922 0)"/>
     <use xlink:href="#MicrosoftYaHei-20" transform="translate(614.404297 0)"/>
     <use xlink:href="#MicrosoftYaHei-6b63" transform="translate(643.994141 0)"/>
     <use xlink:href="#MicrosoftYaHei-5e38" transform="translate(743.994141 0)"/>
     <use xlink:href="#MicrosoftYaHei-7537" transform="translate(843.994141 0)"/>
     <use xlink:href="#MicrosoftYaHei-6027" transform="translate(943.994141 0)"/>
     <use xlink:href="#MicrosoftYaHei-20" transform="translate(1043.994141 0)"/>
     <use xlink:href="#MicrosoftYaHei-20" transform="translate(1073.583984 0)"/>
     <use xlink:href="#MicrosoftYaHei-25cf" transform="translate(1103.173828 0)"/>
     <use xlink:href="#MicrosoftYaHei-20" transform="translate(1168.408203 0)"/>
     <use xlink:href="#MicrosoftYaHei-60a3" transform="translate(1197.998047 0)"/>
     <use xlink:href="#MicrosoftYaHei-75c5" transform="translate(1297.998047 0)"/>
     <use xlink:href="#MicrosoftYaHei-5973" transform="translate(1397.998047 0)"/>
     <use xlink:href="#MicrosoftYaHei-6027" transform="translate(1497.998047 0)"/>
     <use xlink:href="#MicrosoftYaHei-20" transform="translate(1597.998047 0)"/>
     <use xlink:href="#MicrosoftYaHei-20" transform="translate(1627.587891 0)"/>
     <use xlink:href="#MicrosoftYaHei-25cb" transform="translate(1657.177734 0)"/>
     <use xlink:href="#MicrosoftYaHei-20" transform="translate(1717.578125 0)"/>
     <use xlink:href="#MicrosoftYaHei-6b63" transform="translate(1747.167969 0)"/>
     <use xlink:href="#MicrosoftYaHei-5e38" transform="translate(1847.167969 0)"/>
     <use xlink:href="#MicrosoftYaHei-5973" transform="translate(1947.167969 0)"/>
     <use xlink:href="#MicrosoftYaHei-6027" transform="translate(2047.167969 0)"/>
    </g>
   </g>
   <g id="text_2">
    <!-- ■ -->
    <g style="fill: #ffffff" transform="translate(124.795563 94.87129) scale(0.14 -0.14)">
     <use xlink:href="#MicrosoftYaHei-25a0"/>
    </g>
   </g>
   <g id="text_3">
    <!-- Ⅰ-1 -->
    <g style="fill: #555555" transform="translate(121.957281 77.731821) scale(0.07 -0.07)">
     <defs>
      <path id="MicrosoftYaHei-2160" d="M 4434 538 
L 4434 0 
L 1966 0 
L 1966 538 
L 2888 538 
L 2888 4300 
L 1966 4300 
L 1966 4838 
L 4434 4838 
L 4434 4300 
L 3513 4300 
L 3513 538 
L 4434 538 
z
" transform="scale(0.015625)"/>
      <path id="MicrosoftYaHei-2d" d="M 2328 1681 
L 488 1681 
L 488 2153 
L 2328 2153 
L 2328 1681 
z
" transform="scale(0.015625)"/>
      <path id="MicrosoftYaHei-31" d="M 1781 0 
L 1781 4141 
Q 1638 3997 1295 3819 
Q 953 3641 663 3569 
L 663 4169 
Q 1047 4275 1484 4508 
Q 1922 4741 2156 4947 
L 2388 4947 
L 2388 0 
L 1781 0 
z
" transform="scale(0.015625)"/>
     </defs>
     <use xlink:href="#MicrosoftYaHei-2160"/>
     <use xlink:href="#MicrosoftYaHei-2d" transform="translate(100 0)"/>
     <use xlink:href="#MicrosoftYaHei-31" transform="translate(143.261719 0)"/>
    </g>
   </g>
   <g id="text_4">
    <!-- ○ -->
    <g transform="translate(218.711625 94.320509) scale(0.12 -0.12)">
     <use xlink:href="#MicrosoftYaHei-25cb"/>
    </g>
   </g>
   <g id="text_5">
    <!-- Ⅰ-2 -->
    <g style="fill: #555555" transform="translate(215.269281 77.731821) scale(0.07 -0.07)">
     <defs>
      <path id="MicrosoftYaHei-32" d="M 2666 3572 
Q 2666 3963 2419 4186 
Q 2172 4409 1747 4409 
Q 1447 4409 1140 4256 
Q 834 4103 569 3819 
L 569 4413 
Q 806 4659 1107 4790 
Q 1409 4922 1816 4922 
Q 2472 4922 2872 4570 
Q 3272 4219 3272 3619 
Q 3272 3084 3026 2693 
Q 2781 2303 2188 1894 
Q 1581 1475 1376 1294 
Q 1172 1113 1090 947 
Q 1009 781 1009 544 
L 3416 544 
L 3416 0 
L 372 0 
L 372 241 
Q 372 659 486 951 
Q 600 1244 862 1520 
Q 1125 1797 1681 2184 
Q 2250 2584 2458 2886 
Q 2666 3188 2666 3572 
z
" transform="scale(0.015625)"/>
     </defs>
     <use xlink:href="#MicrosoftYaHei-2160"/>
     <use xlink:href="#MicrosoftYaHei-2d" transform="translate(100 0)"/>
     <use xlink:href="#MicrosoftYaHei-32" transform="translate(143.261719 0)"/>
    </g>
   </g>
   <g id="text_6">
    <!-- □ -->
    <g transform="translate(73.269937 162.638223) scale(0.12 -0.12)">
     <use xlink:href="#MicrosoftYaHei-25a1"/>
    </g>
   </g>
   <g id="text_7">
    <!-- Ⅱ-1 -->
    <g style="fill: #555555" transform="translate(70.117281 146.049536) scale(0.07 -0.07)">
     <defs>
      <path id="MicrosoftYaHei-2161" d="M 838 0 
L 838 538 
L 1656 538 
L 1656 4300 
L 838 4300 
L 838 4838 
L 5563 4838 
L 5563 4300 
L 4744 4300 
L 4744 538 
L 5563 538 
L 5563 0 
L 838 0 
z
M 2272 538 
L 4128 538 
L 4128 4300 
L 2272 4300 
L 2272 538 
z
" transform="scale(0.015625)"/>
     </defs>
     <use xlink:href="#MicrosoftYaHei-2161"/>
     <use xlink:href="#MicrosoftYaHei-2d" transform="translate(100 0)"/>
     <use xlink:href="#MicrosoftYaHei-31" transform="translate(143.261719 0)"/>
    </g>
   </g>
   <g id="text_8">
    <!-- ○ -->
    <g transform="translate(133.175625 162.638223) scale(0.12 -0.12)">
     <use xlink:href="#MicrosoftYaHei-25cb"/>
    </g>
   </g>
   <g id="text_9">
    <!-- Ⅱ-2 -->
    <g style="fill: #555555" transform="translate(129.733281 146.049536) scale(0.07 -0.07)">
     <use xlink:href="#MicrosoftYaHei-2161"/>
     <use xlink:href="#MicrosoftYaHei-2d" transform="translate(100 0)"/>
     <use xlink:href="#MicrosoftYaHei-32" transform="translate(143.261719 0)"/>
    </g>
   </g>
   <g id="text_10">
    <!-- ■ -->
    <g style="fill: #ffffff" transform="translate(236.251562 163.189004) scale(0.14 -0.14)">
     <use xlink:href="#MicrosoftYaHei-25a0"/>
    </g>
   </g>
   <g id="text_11">
    <!-- Ⅱ-3 -->
    <g style="fill: #555555" transform="translate(233.413281 146.049536) scale(0.07 -0.07)">
     <defs>
      <path id="MicrosoftYaHei-33" d="M 447 809 
Q 944 425 1569 425 
Q 2069 425 2361 670 
Q 2653 916 2653 1328 
Q 2653 2247 1338 2247 
L 934 2247 
L 934 2753 
L 1319 2753 
Q 2484 2753 2484 3616 
Q 2484 4413 1594 4413 
Q 1084 4413 634 4069 
L 634 4647 
Q 1109 4922 1744 4922 
Q 2363 4922 2738 4598 
Q 3113 4275 3113 3759 
Q 3113 2809 2144 2538 
L 2144 2525 
Q 2669 2469 2973 2155 
Q 3278 1841 3278 1372 
Q 3278 719 2808 319 
Q 2338 -81 1556 -81 
Q 869 -81 447 175 
L 447 809 
z
" transform="scale(0.015625)"/>
     </defs>
     <use xlink:href="#MicrosoftYaHei-2161"/>
     <use xlink:href="#MicrosoftYaHei-2d" transform="translate(100 0)"/>
     <use xlink:href="#MicrosoftYaHei-33" transform="translate(143.261719 0)"/>
    </g>
   </g>
   <g id="text_12">
    <!-- ○ -->
    <g transform="translate(299.063625 162.638223) scale(0.12 -0.12)">
     <use xlink:href="#MicrosoftYaHei-25cb"/>
    </g>
   </g>
   <g id="text_13">
    <!-- Ⅱ-4 -->
    <g style="fill: #555555" transform="translate(295.621281 146.049536) scale(0.07 -0.07)">
     <defs>
      <path id="MicrosoftYaHei-34" d="M 2906 4841 
L 2906 1644 
L 3631 1644 
L 3631 1138 
L 2906 1138 
L 2906 0 
L 2313 0 
L 2313 1138 
L 53 1138 
L 53 1616 
Q 656 2294 1265 3178 
Q 1875 4063 2272 4841 
L 2906 4841 
z
M 741 1644 
L 2313 1644 
L 2313 3950 
Q 1988 3366 1616 2817 
Q 1244 2269 741 1644 
z
" transform="scale(0.015625)"/>
     </defs>
     <use xlink:href="#MicrosoftYaHei-2161"/>
     <use xlink:href="#MicrosoftYaHei-2d" transform="translate(100 0)"/>
     <use xlink:href="#MicrosoftYaHei-34" transform="translate(143.261719 0)"/>
    </g>
   </g>
   <g id="text_14">
    <!-- ■ -->
    <g style="fill: #ffffff" transform="translate(378.811562 163.189004) scale(0.14 -0.14)">
     <use xlink:href="#MicrosoftYaHei-25a0"/>
    </g>
   </g>
   <g id="text_15">
    <!-- Ⅱ-5 -->
    <g style="fill: #555555" transform="translate(375.973281 146.049536) scale(0.07 -0.07)">
     <defs>
      <path id="MicrosoftYaHei-35" d="M 3294 1494 
Q 3294 784 2823 350 
Q 2353 -84 1559 -84 
Q 878 -84 544 119 
L 544 744 
Q 1034 425 1544 425 
Q 2050 425 2361 704 
Q 2672 984 2672 1447 
Q 2672 1909 2348 2167 
Q 2025 2425 1434 2425 
Q 978 2425 613 2384 
L 791 4841 
L 3053 4841 
L 3053 4303 
L 1306 4303 
L 1206 2931 
L 1647 2950 
Q 2416 2950 2855 2567 
Q 3294 2184 3294 1494 
z
" transform="scale(0.015625)"/>
     </defs>
     <use xlink:href="#MicrosoftYaHei-2161"/>
     <use xlink:href="#MicrosoftYaHei-2d" transform="translate(100 0)"/>
     <use xlink:href="#MicrosoftYaHei-35" transform="translate(143.261719 0)"/>
    </g>
   </g>
   <g id="text_16">
    <!-- ○ -->
    <g transform="translate(96.887625 229.058223) scale(0.12 -0.12)">
     <use xlink:href="#MicrosoftYaHei-25cb"/>
    </g>
   </g>
   <g id="text_17">
    <!-- Ⅲ-1 -->
    <g style="fill: #555555" transform="translate(93.445281 212.469536) scale(0.07 -0.07)">
     <defs>
      <path id="MicrosoftYaHei-2162" d="M 569 538 
L 1106 538 
L 1106 4300 
L 569 4300 
L 569 4838 
L 5831 4838 
L 5831 4300 
L 5294 4300 
L 5294 538 
L 5831 538 
L 5831 0 
L 569 0 
L 569 538 
z
M 3494 538 
L 4703 538 
L 4703 4300 
L 3494 4300 
L 3494 538 
z
M 2906 4300 
L 1697 4300 
L 1697 538 
L 2906 538 
L 2906 4300 
z
" transform="scale(0.015625)"/>
     </defs>
     <use xlink:href="#MicrosoftYaHei-2162"/>
     <use xlink:href="#MicrosoftYaHei-2d" transform="translate(100 0)"/>
     <use xlink:href="#MicrosoftYaHei-31" transform="translate(143.261719 0)"/>
    </g>
   </g>
   <g id="text_18">
    <!-- ■ -->
    <g style="fill: #ffffff" transform="translate(176.635562 229.609004) scale(0.14 -0.14)">
     <use xlink:href="#MicrosoftYaHei-25a0"/>
    </g>
   </g>
   <g id="text_19">
    <!-- Ⅲ-2 -->
    <g style="fill: #555555" transform="translate(173.797281 212.469536) scale(0.07 -0.07)">
     <use xlink:href="#MicrosoftYaHei-2162"/>
     <use xlink:href="#MicrosoftYaHei-2d" transform="translate(100 0)"/>
     <use xlink:href="#MicrosoftYaHei-32" transform="translate(143.261719 0)"/>
    </g>
   </g>
   <g id="text_20">
    <!-- ○ -->
    <g transform="translate(226.487625 229.058223) scale(0.12 -0.12)">
     <use xlink:href="#MicrosoftYaHei-25cb"/>
    </g>
   </g>
   <g id="text_21">
    <!-- Ⅲ-3 -->
    <g style="fill: #555555" transform="translate(223.045281 212.469536) scale(0.07 -0.07)">
     <use xlink:href="#MicrosoftYaHei-2162"/>
     <use xlink:href="#MicrosoftYaHei-2d" transform="translate(100 0)"/>
     <use xlink:href="#MicrosoftYaHei-33" transform="translate(143.261719 0)"/>
    </g>
   </g>
   <g id="text_22">
    <!-- ? -->
    <g style="fill: #888888" transform="translate(379.2475 195.390107) scale(0.16 -0.16)">
     <defs>
      <path id="MicrosoftYaHei-Bold-3f" d="M 919 1394 
Q 844 1597 844 1813 
Q 844 2341 1344 2763 
Q 1653 3025 1762 3200 
Q 1872 3375 1872 3578 
Q 1872 3800 1715 3942 
Q 1559 4084 1313 4084 
Q 734 4084 238 3641 
L 238 4609 
Q 759 4922 1425 4922 
Q 2100 4922 2490 4609 
Q 2881 4297 2881 3719 
Q 2881 3372 2728 3090 
Q 2575 2809 2166 2475 
Q 1838 2200 1759 2047 
Q 1681 1894 1681 1722 
Q 1681 1553 1766 1394 
L 919 1394 
z
M 791 463 
Q 791 694 966 845 
Q 1141 997 1391 997 
Q 1631 997 1804 845 
Q 1978 694 1978 463 
Q 1978 234 1815 79 
Q 1653 -75 1425 -75 
Q 1134 -75 962 84 
Q 791 244 791 463 
z
" transform="scale(0.015625)"/>
     </defs>
     <use xlink:href="#MicrosoftYaHei-Bold-3f"/>
    </g>
   </g>
   <g id="text_23">
    <!-- Ⅰ -->
    <g style="fill: #1a1a2e" transform="translate(17.568 66.345536) scale(0.12 -0.12)">
     <defs>
      <path id="MicrosoftYaHei-Bold-2160" d="M 4506 850 
L 4506 0 
L 1894 0 
L 1894 850 
L 2681 850 
L 2681 3988 
L 1894 3988 
L 1894 4838 
L 4506 4838 
L 4506 3988 
L 3713 3988 
L 3713 850 
L 4506 850 
z
" transform="scale(0.015625)"/>
     </defs>
     <use xlink:href="#MicrosoftYaHei-Bold-2160"/>
    </g>
   </g>
   <g id="text_24">
    <!-- Ⅱ -->
    <g style="fill: #1a1a2e" transform="translate(17.568 127.072393) scale(0.12 -0.12)">
     <defs>
      <path id="MicrosoftYaHei-Bold-2161" d="M 628 0 
L 628 850 
L 1422 850 
L 1422 3988 
L 628 3988 
L 628 4838 
L 5772 4838 
L 5772 3988 
L 4978 3988 
L 4978 850 
L 5772 850 
L 5772 0 
L 628 0 
z
M 2425 850 
L 3975 850 
L 3975 3988 
L 2425 3988 
L 2425 850 
z
" transform="scale(0.015625)"/>
     </defs>
     <use xlink:href="#MicrosoftYaHei-Bold-2161"/>
    </g>
   </g>
   <g id="text_25">
    <!-- Ⅲ -->
    <g style="fill: #1a1a2e" transform="translate(17.568 187.79925) scale(0.12 -0.12)">
     <defs>
      <path id="MicrosoftYaHei-Bold-2162" d="M 441 850 
L 916 850 
L 916 3988 
L 441 3988 
L 441 4838 
L 5959 4838 
L 5959 3988 
L 5484 3988 
L 5484 850 
L 5959 850 
L 5959 0 
L 441 0 
L 441 850 
z
M 3669 850 
L 4550 850 
L 4550 3988 
L 3669 3988 
L 3669 850 
z
M 2731 3988 
L 1850 3988 
L 1850 850 
L 2731 850 
L 2731 3988 
z
" transform="scale(0.015625)"/>
     </defs>
     <use xlink:href="#MicrosoftYaHei-Bold-2162"/>
    </g>
   </g>
   <g id="patch_14">
    <path d="M 351.409023 108.979351 
Q 296.883928 129.066082 243.407942 148.766327 
" style="fill: none; stroke: #e74c3c; stroke-linecap: round"/>
    <path d="M 246.963759 149.161503 
L 243.407942 148.766327 
L 245.857573 146.158779 
" style="fill: none; stroke: #e74c3c; stroke-linecap: round"/>
   </g>
   <g id="text_26">
    <!-- 常染色体显性? -->
    <g style="fill: #e74c3c" transform="translate(344.16 104.299821) scale(0.08 -0.08)">
     <defs>
      <path id="MicrosoftYaHei-67d3" d="M 6338 -109 
Q 6100 -366 5950 -584 
Q 4269 -16 3431 1172 
L 3431 -897 
L 2944 -897 
L 2944 1172 
Q 2069 116 463 -666 
Q 313 -472 106 -234 
Q 1525 297 2406 1178 
L 213 1178 
L 213 1616 
L 2944 1616 
L 2944 2309 
L 3431 2309 
L 3431 1616 
L 6244 1616 
L 6244 1178 
L 3906 1178 
Q 4738 241 6338 -109 
z
M 2300 4497 
L 3075 4497 
Q 3088 4809 3100 5309 
L 3581 5309 
Q 3569 4847 3556 4497 
L 5138 4497 
L 5138 2866 
Q 5138 2622 5369 2622 
L 5513 2622 
Q 5756 2622 5806 2941 
Q 5844 3203 5869 3609 
Q 6106 3516 6338 3453 
Q 6300 3066 6250 2791 
Q 6156 2197 5600 2197 
L 5275 2197 
Q 4663 2197 4663 2803 
L 4663 4072 
L 3531 4072 
Q 3413 2634 2144 1941 
Q 1988 2134 1800 2334 
Q 2956 2878 3056 4072 
L 2300 4072 
L 2300 4497 
z
M 1900 3416 
Q 2000 3134 2088 2947 
Q 1269 2472 475 1953 
L 181 2397 
Q 1044 2878 1900 3416 
z
M 944 5291 
Q 1550 4984 2044 4697 
Q 1875 4484 1750 4291 
Q 1206 4641 694 4922 
L 944 5291 
z
M 381 4341 
Q 869 4116 1450 3791 
Q 1294 3541 1181 3366 
Q 513 3766 144 3941 
L 381 4341 
z
" transform="scale(0.015625)"/>
      <path id="MicrosoftYaHei-8272" d="M 56 3253 
Q 1275 4178 1988 5384 
L 2513 5253 
Q 2344 4984 2153 4728 
L 4625 4728 
L 4625 4284 
Q 4275 3875 3894 3466 
L 5581 3466 
L 5581 1184 
L 5081 1184 
L 5081 1403 
L 1325 1403 
L 1325 297 
Q 1325 -128 1719 -128 
L 5094 -128 
Q 5513 -128 5600 134 
Q 5719 516 5769 1091 
Q 5950 1009 6281 897 
Q 6194 309 6100 -9 
Q 5938 -603 5188 -603 
L 1663 -603 
Q 825 -603 825 253 
L 825 3263 
Q 641 3097 444 2934 
Q 275 3091 56 3253 
z
M 5081 3016 
L 3444 3016 
L 3444 1853 
L 5081 1853 
L 5081 3016 
z
M 1325 1853 
L 2956 1853 
L 2956 3016 
L 1325 3016 
L 1325 1853 
z
M 3994 4291 
L 1809 4291 
Q 1456 3863 1041 3466 
L 3284 3466 
Q 3659 3891 3994 4291 
z
" transform="scale(0.015625)"/>
      <path id="MicrosoftYaHei-4f53" d="M 6350 778 
Q 6138 522 5981 316 
Q 4731 1278 4144 3572 
L 4144 934 
L 5063 934 
L 5063 484 
L 4144 484 
L 4144 -822 
L 3681 -822 
L 3681 484 
L 2763 484 
L 2763 934 
L 3681 934 
L 3681 3572 
L 3666 3572 
Q 3084 1413 1750 216 
Q 1606 397 1419 609 
Q 2625 1713 3225 3572 
L 1756 3572 
L 1756 4022 
L 3681 4022 
L 3681 5297 
L 4144 5297 
L 4144 4022 
L 6138 4022 
L 6138 3572 
L 4547 3572 
Q 5144 1628 6350 778 
z
M 56 2297 
Q 963 3622 1406 5316 
L 1881 5178 
Q 1638 4381 1331 3681 
L 1331 -816 
L 869 -816 
L 869 2741 
Q 588 2231 269 1784 
Q 175 2041 56 2297 
z
" transform="scale(0.015625)"/>
      <path id="MicrosoftYaHei-663e" d="M 875 5041 
L 5525 5041 
L 5525 2209 
L 5044 2209 
L 5044 2434 
L 1356 2434 
L 1356 2209 
L 875 2209 
L 875 5041 
z
M 156 -147 
L 2238 -147 
L 2238 2259 
L 2713 2259 
L 2713 -147 
L 3656 -147 
L 3656 2259 
L 4131 2259 
L 4131 -147 
L 6244 -147 
L 6244 -597 
L 156 -597 
L 156 -147 
z
M 5044 4591 
L 1356 4591 
L 1356 3947 
L 5044 3947 
L 5044 4591 
z
M 1356 2884 
L 5044 2884 
L 5044 3528 
L 1356 3528 
L 1356 2884 
z
M 506 1734 
L 875 2009 
Q 1519 1178 1888 597 
L 1456 284 
Q 1038 984 506 1734 
z
M 5925 1753 
Q 5413 941 4938 309 
L 4531 591 
Q 5006 1216 5481 2009 
L 5925 1753 
z
" transform="scale(0.015625)"/>
      <path id="MicrosoftYaHei-3f" d="M 1103 1350 
Q 1025 1581 1025 1844 
Q 1025 2050 1119 2261 
Q 1213 2472 1597 2844 
Q 1991 3216 2080 3403 
Q 2169 3591 2169 3759 
Q 2169 4059 1956 4232 
Q 1744 4406 1416 4406 
Q 844 4406 416 3956 
L 416 4597 
Q 938 4922 1500 4922 
Q 2075 4922 2423 4631 
Q 2772 4341 2772 3838 
Q 2772 3597 2669 3348 
Q 2566 3100 2131 2688 
Q 1803 2378 1690 2203 
Q 1578 2028 1578 1825 
Q 1578 1597 1688 1350 
L 1103 1350 
z
M 1025 328 
Q 1025 491 1144 608 
Q 1263 725 1428 725 
Q 1594 725 1712 608 
Q 1831 491 1831 328 
Q 1831 172 1714 54 
Q 1597 -63 1444 -63 
Q 1256 -63 1140 56 
Q 1025 175 1025 328 
z
" transform="scale(0.015625)"/>
     </defs>
     <use xlink:href="#MicrosoftYaHei-5e38"/>
     <use xlink:href="#MicrosoftYaHei-67d3" transform="translate(100 0)"/>
     <use xlink:href="#MicrosoftYaHei-8272" transform="translate(200 0)"/>
     <use xlink:href="#MicrosoftYaHei-4f53" transform="translate(300 0)"/>
     <use xlink:href="#MicrosoftYaHei-663e" transform="translate(400 0)"/>
     <use xlink:href="#MicrosoftYaHei-6027" transform="translate(500 0)"/>
     <use xlink:href="#MicrosoftYaHei-3f" transform="translate(600 0)"/>
    </g>
   </g>
   <g id="patch_15">
    <path d="M 66.580224 246.962638 
Q 100.766506 232.941467 133.918376 219.344549 
" style="fill: none; stroke: #2980b9; stroke-linecap: round"/>
    <path d="M 130.350572 219.078505 
L 133.918376 219.344549 
L 131.564859 222.039165 
" style="fill: none; stroke: #2980b9; stroke-linecap: round"/>
   </g>
   <g id="text_27">
    <!-- 伴X隐性? -->
    <g style="fill: #2980b9" transform="translate(33.12 256.116964) scale(0.08 -0.08)">
     <defs>
      <path id="MicrosoftYaHei-4f34" d="M 1863 1472 
L 3825 1472 
L 3825 2497 
L 2113 2497 
L 2113 2972 
L 3825 2972 
L 3825 5284 
L 4325 5284 
L 4325 2972 
L 6038 2972 
L 6038 2497 
L 4325 2497 
L 4325 1472 
L 6300 1472 
L 6300 997 
L 4325 997 
L 4325 -816 
L 3825 -816 
L 3825 997 
L 1863 997 
L 1863 1472 
z
M 81 2228 
Q 1081 3591 1594 5334 
L 2106 5184 
Q 1825 4394 1513 3719 
L 1513 -816 
L 1025 -816 
L 1025 2775 
Q 675 2163 294 1678 
Q 206 1953 81 2228 
z
M 4806 3572 
Q 5331 4228 5675 4741 
L 6125 4416 
Q 5844 4047 5200 3259 
L 4806 3572 
z
M 2113 4403 
L 2525 4691 
Q 2925 4172 3338 3622 
L 2900 3291 
Q 2425 3978 2113 4403 
z
" transform="scale(0.015625)"/>
      <path id="MicrosoftYaHei-58" d="M 4034 0 
L 3275 0 
L 2194 1822 
Q 2156 1884 2084 2072 
L 2069 2072 
Q 2063 2047 1956 1819 
L 844 0 
L 81 0 
L 1691 2431 
L 209 4841 
L 975 4841 
L 1931 3166 
Q 2016 3019 2100 2822 
L 2113 2822 
Q 2188 2991 2297 3181 
L 3297 4841 
L 4013 4841 
L 2500 2441 
L 4034 0 
z
" transform="scale(0.015625)"/>
      <path id="MicrosoftYaHei-9690" d="M 2481 1791 
L 5425 1791 
L 5425 2353 
L 2631 2353 
L 2631 2741 
L 5425 2741 
L 5425 3291 
L 2619 3291 
L 2619 3581 
Q 2459 3394 2294 3216 
Q 2213 3366 2019 3572 
Q 2800 4397 3300 5353 
L 3763 5228 
Q 3606 4953 3438 4691 
L 5356 4691 
L 5356 4272 
Q 5088 3947 4869 3691 
L 5875 3691 
L 5875 1228 
L 5425 1228 
L 5425 1391 
L 2481 1391 
L 2481 1791 
z
M 2181 1897 
Q 2319 866 1613 741 
Q 1388 697 1019 734 
Q 969 991 881 1228 
Q 1181 1153 1444 1178 
Q 1850 1216 1719 1916 
Q 1644 2422 1181 3028 
Q 1588 4022 1788 4616 
L 856 4616 
L 856 -847 
L 400 -847 
L 400 5053 
L 2256 5053 
L 2256 4616 
Q 1963 3834 1650 3103 
Q 2113 2472 2181 1897 
z
M 2881 1109 
L 3319 1109 
L 3319 147 
Q 3319 -234 3631 -234 
L 4319 -234 
Q 4769 -234 4819 53 
Q 4863 272 4888 659 
Q 5119 559 5338 484 
Q 5275 78 5225 -109 
Q 5106 -647 4481 -641 
L 3525 -641 
Q 2881 -641 2881 116 
L 2881 1109 
z
M 4775 4291 
L 3169 4291 
Q 2947 3981 2709 3691 
L 4316 3691 
Q 4553 4000 4775 4291 
z
M 2238 978 
L 2650 834 
Q 2438 153 2106 -422 
Q 1956 -341 1700 -216 
Q 2031 303 2238 978 
z
M 5256 859 
L 5588 1091 
Q 5969 647 6338 116 
L 5950 -141 
Q 5594 416 5256 859 
z
M 3588 1103 
L 3913 1347 
Q 4338 891 4525 616 
L 4156 334 
Q 3938 697 3588 1103 
z
" transform="scale(0.015625)"/>
     </defs>
     <use xlink:href="#MicrosoftYaHei-4f34"/>
     <use xlink:href="#MicrosoftYaHei-58" transform="translate(100 0)"/>
     <use xlink:href="#MicrosoftYaHei-9690" transform="translate(164.501953 0)"/>
     <use xlink:href="#MicrosoftYaHei-6027" transform="translate(264.501953 0)"/>
     <use xlink:href="#MicrosoftYaHei-3f" transform="translate(364.501953 0)"/>
    </g>
   </g>
   <g id="text_28">
    <g id="patch_16">
     <path d="M 396 174.311714 
L 587.86125 174.311714 
Q 591.86125 174.311714 591.86125 170.311714 
L 591.86125 123.276964 
Q 591.86125 119.276964 587.86125 119.276964 
L 396 119.276964 
Q 392 119.276964 392 123.276964 
L 392 170.311714 
Q 392 174.311714 396 174.311714 
z
" style="fill: #fef9e7; stroke: #f0c040; stroke-linejoin: miter"/>
    </g>
    <!-- 解题关键: -->
    <g style="fill: #2d3436" transform="translate(396 129.671964) scale(0.08 -0.08)">
     <defs>
      <path id="MicrosoftYaHei-89e3" d="M 75 3559 
Q 756 4316 1188 5322 
L 1625 5203 
Q 1497 4941 1366 4697 
L 2544 4697 
L 2544 4309 
L 2084 3641 
L 2881 3641 
L 2881 -128 
Q 2881 -753 2263 -759 
Q 1994 -766 1706 -747 
Q 1688 -591 1638 -328 
Q 1938 -359 2175 -359 
Q 2475 -359 2475 -66 
L 2475 953 
L 1913 953 
L 1913 -203 
L 1506 -203 
L 1506 953 
L 950 953 
Q 897 -225 438 -847 
Q 294 -684 88 -528 
Q 550 153 550 1303 
L 550 3428 
Q 463 3319 375 3216 
Q 269 3359 75 3559 
z
M 3075 897 
L 4550 897 
L 4550 1797 
L 3794 1797 
Q 3659 1438 3513 1122 
Q 3331 1228 3106 1309 
Q 3456 2059 3663 2828 
L 4094 2709 
Q 4019 2456 3941 2222 
L 4550 2222 
L 4550 2897 
L 5013 2897 
L 5013 2222 
L 6131 2222 
L 6131 1797 
L 5013 1797 
L 5013 897 
L 6281 897 
L 6281 472 
L 5013 472 
L 5013 -841 
L 4550 -841 
L 4550 472 
L 3075 472 
L 3075 897 
z
M 3138 4997 
L 5950 4997 
Q 5931 4384 5888 3847 
Q 5844 3084 5081 3084 
Q 4819 3084 4438 3103 
Q 4400 3366 4350 3603 
Q 4800 3547 5056 3547 
Q 5394 3547 5425 3909 
Q 5456 4191 5469 4572 
L 4284 4572 
Q 4263 3950 4063 3584 
Q 3844 3159 3219 2759 
Q 3119 2916 2919 3159 
Q 3438 3441 3638 3778 
Q 3806 4050 3828 4572 
L 3138 4572 
L 3138 4997 
z
M 709 3641 
L 1581 3641 
L 2038 4316 
L 1150 4316 
Q 934 3950 709 3641 
z
M 1913 1322 
L 2475 1322 
L 2475 2116 
L 1913 2116 
L 1913 1322 
z
M 2475 3272 
L 1913 3272 
L 1913 2484 
L 2475 2484 
L 2475 3272 
z
M 956 1322 
L 1506 1322 
L 1506 2116 
L 956 2116 
L 956 1322 
z
M 956 2484 
L 1506 2484 
L 1506 3272 
L 956 3272 
L 956 2484 
z
" transform="scale(0.015625)"/>
      <path id="MicrosoftYaHei-9898" d="M 88 -291 
Q 544 328 581 1622 
L 1013 1622 
Q 994 1234 950 884 
Q 1181 466 1538 209 
L 1538 1916 
L 138 1916 
L 138 2322 
L 3025 2322 
L 3025 1916 
L 1950 1916 
L 1950 1253 
L 2956 1253 
L 2956 847 
L 1950 847 
L 1950 -16 
Q 2369 -184 2906 -197 
Q 4006 -266 6300 -166 
Q 6231 -372 6125 -659 
Q 3888 -716 2906 -634 
Q 1513 -597 850 347 
Q 688 -359 363 -878 
Q 238 -584 88 -291 
z
M 525 5041 
L 2725 5041 
L 2725 2634 
L 2313 2634 
L 2313 2828 
L 938 2828 
L 938 2634 
L 525 2634 
L 525 5041 
z
M 3263 3878 
L 4169 3878 
Q 4231 4247 4275 4591 
L 3031 4591 
L 3031 4997 
L 6169 4997 
L 6169 4591 
L 4738 4591 
Q 4681 4222 4613 3878 
L 5838 3878 
L 5838 1228 
L 5425 1228 
L 5425 3472 
L 3675 3472 
L 3675 1228 
L 3263 1228 
L 3263 3878 
z
M 4344 3203 
L 4756 3203 
L 4756 2422 
Q 4756 1809 4631 1372 
Q 5594 678 6050 284 
L 5713 -47 
Q 5213 422 4481 972 
Q 4444 903 4406 841 
Q 4031 241 3131 -109 
Q 2988 72 2794 259 
Q 3669 547 4006 1028 
Q 4344 1503 4344 2441 
L 4344 3203 
z
M 938 3203 
L 2313 3203 
L 2313 3753 
L 938 3753 
L 938 3203 
z
M 2313 4666 
L 938 4666 
L 938 4122 
L 2313 4122 
L 2313 4666 
z
" transform="scale(0.015625)"/>
      <path id="MicrosoftYaHei-5173" d="M 131 -397 
Q 2372 400 2803 1897 
L 256 1897 
L 256 2372 
L 2894 2372 
Q 2906 2506 2906 3566 
L 625 3566 
L 625 4041 
L 2125 4041 
Q 1588 4631 1206 4991 
L 1569 5316 
Q 2106 4834 2550 4397 
L 2150 4041 
L 3641 4041 
Q 4125 4725 4494 5322 
L 5013 5034 
Q 4581 4484 4219 4041 
L 5800 4041 
L 5800 3566 
L 3438 3566 
Q 3438 2647 3428 2372 
L 6169 2372 
L 6169 1897 
L 3516 1897 
Q 4250 325 6281 -259 
Q 6025 -522 5819 -766 
Q 3894 -16 3203 1491 
Q 2694 28 494 -847 
Q 331 -634 131 -397 
z
" transform="scale(0.015625)"/>
      <path id="MicrosoftYaHei-952e" d="M 3450 4347 
L 3450 4709 
L 4313 4709 
L 4313 5322 
L 4738 5322 
L 4738 4709 
L 5831 4709 
L 5831 3822 
L 6244 3822 
L 6244 3459 
L 5831 3459 
L 5831 2416 
L 5419 2416 
L 5419 2566 
L 4738 2566 
L 4738 2009 
L 5844 2009 
L 5844 1647 
L 4738 1647 
L 4738 1078 
L 5913 1078 
L 5913 716 
L 4738 716 
L 4738 3 
L 4313 3 
L 4313 716 
L 3225 716 
L 3225 1078 
L 4313 1078 
L 4313 1647 
L 3350 1647 
L 3350 2009 
L 4313 2009 
L 4313 2566 
L 3456 2566 
L 3456 2928 
L 4313 2928 
L 4313 3459 
L 3156 3459 
L 3156 3822 
L 4313 3822 
L 4313 4347 
L 3450 4347 
z
M 2200 1809 
Q 2350 1353 2544 1006 
Q 2741 1628 2763 2403 
L 1981 2403 
L 1981 2828 
L 2750 4309 
L 2025 4309 
L 2025 4697 
L 3206 4697 
L 3206 4297 
L 2425 2791 
L 3169 2791 
L 3169 2434 
Q 3141 1397 2825 581 
Q 3391 -122 4244 -172 
Q 5013 -228 6319 -153 
Q 6231 -353 6131 -609 
Q 5063 -653 4294 -597 
Q 3294 -584 2634 156 
Q 2344 -406 1894 -847 
Q 1806 -703 1588 -478 
Q 2069 -59 2353 528 
Q 2053 994 1844 1653 
L 2200 1809 
z
M 125 2197 
L 794 2197 
L 794 2891 
L 469 2891 
L 469 3203 
Q 403 3081 331 2966 
Q 169 3178 38 3341 
Q 569 4234 819 5341 
L 1256 5234 
Q 1141 4794 1000 4391 
L 1888 4391 
L 1888 3978 
L 841 3978 
Q 694 3622 522 3303 
L 1794 3303 
L 1794 2891 
L 1219 2891 
L 1219 2197 
L 1981 2197 
L 1981 1784 
L 1219 1784 
L 1219 409 
Q 1450 591 1781 897 
Q 1819 666 1881 409 
Q 1575 166 1231 -109 
Q 1056 -247 888 -428 
L 575 -22 
Q 794 184 794 509 
L 794 1784 
L 125 1784 
L 125 2197 
z
M 4738 2928 
L 5419 2928 
L 5419 3459 
L 4738 3459 
L 4738 2928 
z
M 5419 4347 
L 4738 4347 
L 4738 3822 
L 5419 3822 
L 5419 4347 
z
" transform="scale(0.015625)"/>
      <path id="MicrosoftYaHei-3a" d="M 372 3134 
Q 372 3303 490 3415 
Q 609 3528 775 3528 
Q 944 3528 1062 3414 
Q 1181 3300 1181 3134 
Q 1181 2969 1065 2853 
Q 950 2738 772 2738 
Q 603 2738 487 2853 
Q 372 2969 372 3134 
z
M 372 322 
Q 372 491 487 606 
Q 603 722 775 722 
Q 950 722 1065 605 
Q 1181 488 1181 322 
Q 1181 159 1065 42 
Q 950 -75 772 -75 
Q 600 -75 486 42 
Q 372 159 372 322 
z
" transform="scale(0.015625)"/>
     </defs>
     <use xlink:href="#MicrosoftYaHei-89e3"/>
     <use xlink:href="#MicrosoftYaHei-9898" transform="translate(100 0)"/>
     <use xlink:href="#MicrosoftYaHei-5173" transform="translate(200 0)"/>
     <use xlink:href="#MicrosoftYaHei-952e" transform="translate(300 0)"/>
     <use xlink:href="#MicrosoftYaHei-3a" transform="translate(400 0)"/>
    </g>
    <!-- ① 无中生有为隐性 Ⅱ-2×Ⅱ-3→Ⅲ-2患病 → 隐性遗传 -->
    <g style="fill: #2d3436" transform="translate(396 139.334714) scale(0.08 -0.08)">
     <defs>
      <path id="MicrosoftYaHei-2460" d="M 3200 4684 
Q 4416 4684 5286 3814 
Q 6156 2944 6156 1728 
Q 6156 513 5286 -357 
Q 4416 -1228 3200 -1228 
Q 1984 -1228 1114 -357 
Q 244 513 244 1728 
Q 244 2944 1114 3814 
Q 1984 4684 3200 4684 
z
M 3200 -844 
Q 4259 -844 5015 -87 
Q 5772 669 5772 1728 
Q 5772 2788 5015 3544 
Q 4259 4300 3200 4300 
Q 2141 4300 1384 3544 
Q 628 2788 628 1728 
Q 628 669 1384 -87 
Q 2141 -844 3200 -844 
z
M 2266 91 
L 2266 538 
L 3066 538 
L 3066 3097 
Q 2909 3059 2228 2847 
L 2228 3322 
L 3572 3694 
L 3572 538 
L 4353 538 
L 4353 91 
L 2266 91 
z
" transform="scale(0.015625)"/>
      <path id="MicrosoftYaHei-65e0" d="M 200 2878 
L 2650 2878 
Q 2781 3528 2806 4328 
L 675 4328 
L 675 4816 
L 5750 4816 
L 5750 4328 
L 3331 4328 
Q 3288 3528 3169 2878 
L 6225 2878 
L 6225 2391 
L 3063 2391 
Q 2588 278 450 -884 
Q 313 -672 113 -441 
Q 1975 491 2538 2391 
L 200 2391 
L 200 2878 
z
M 3400 1941 
L 3906 1941 
L 3906 297 
Q 3906 -197 4363 -197 
L 5219 -197 
Q 5644 -197 5700 172 
Q 5750 528 5775 1097 
Q 6013 1009 6300 916 
Q 6238 297 6188 -16 
Q 6106 -641 5300 -641 
L 4219 -641 
Q 3400 -641 3400 222 
L 3400 1941 
z
" transform="scale(0.015625)"/>
      <path id="MicrosoftYaHei-4e2d" d="M 525 3972 
L 2931 3972 
L 2931 5334 
L 3469 5334 
L 3469 3972 
L 5900 3972 
L 5900 1122 
L 5388 1122 
L 5388 1459 
L 3469 1459 
L 3469 -866 
L 2931 -866 
L 2931 1459 
L 1038 1459 
L 1038 1122 
L 525 1122 
L 525 3972 
z
M 5388 3509 
L 3469 3509 
L 3469 1922 
L 5388 1922 
L 5388 3509 
z
M 1038 1922 
L 2931 1922 
L 2931 3509 
L 1038 3509 
L 1038 1922 
z
" transform="scale(0.015625)"/>
      <path id="MicrosoftYaHei-751f" d="M 125 16 
L 3025 16 
L 3025 1609 
L 813 1609 
L 813 2091 
L 3025 2091 
L 3025 3534 
L 1375 3534 
Q 959 2784 419 2178 
Q 288 2384 81 2616 
Q 963 3603 1475 5028 
L 1988 4891 
Q 1822 4434 1622 4016 
L 3025 4016 
L 3025 5341 
L 3563 5341 
L 3563 4016 
L 5950 4016 
L 5950 3534 
L 3563 3534 
L 3563 2091 
L 5775 2091 
L 5775 1609 
L 3563 1609 
L 3563 16 
L 6288 16 
L 6288 -453 
L 125 -453 
L 125 16 
z
" transform="scale(0.015625)"/>
      <path id="MicrosoftYaHei-6709" d="M 1856 -816 
L 1363 -816 
L 1363 2419 
Q 909 1891 363 1403 
Q 231 1622 63 1859 
Q 1269 2869 1947 4097 
L 238 4097 
L 238 4559 
L 2181 4559 
Q 2359 4950 2488 5359 
L 3006 5241 
Q 2881 4894 2731 4559 
L 6263 4559 
L 6263 4097 
L 2506 4097 
Q 2313 3728 2081 3378 
L 5506 3378 
L 5506 41 
Q 5506 -734 4750 -734 
Q 4419 -741 3744 -741 
Q 3713 -528 3650 -228 
Q 4225 -272 4575 -272 
Q 5006 -272 5006 153 
L 5006 597 
L 1856 597 
L 1856 -816 
z
M 1856 1022 
L 5006 1022 
L 5006 1772 
L 1856 1772 
L 1856 1022 
z
M 5006 2941 
L 1856 2941 
L 1856 2197 
L 5006 2197 
L 5006 2941 
z
" transform="scale(0.015625)"/>
      <path id="MicrosoftYaHei-4e3a" d="M 356 3684 
L 2703 3684 
Q 2794 4450 2794 5341 
L 3331 5341 
Q 3331 4413 3244 3684 
L 5900 3684 
Q 5863 1753 5788 497 
Q 5725 -672 4550 -672 
Q 4063 -672 3394 -641 
Q 3369 -397 3300 -59 
Q 3888 -141 4456 -141 
Q 5206 -141 5244 597 
Q 5331 1822 5356 3197 
L 3175 3197 
Q 2716 441 606 -903 
Q 431 -684 225 -441 
Q 2169 706 2628 3197 
L 356 3197 
L 356 3684 
z
M 3325 2072 
L 3669 2378 
Q 4269 1822 4756 1284 
L 4369 934 
Q 3888 1503 3325 2072 
z
M 800 4922 
L 1138 5234 
Q 1656 4784 2138 4309 
L 1756 3953 
Q 1294 4459 800 4922 
z
" transform="scale(0.015625)"/>
      <path id="MicrosoftYaHei-d7" d="M 3856 869 
L 3519 531 
L 2372 1678 
L 1231 531 
L 894 869 
L 2044 2009 
L 894 3156 
L 1231 3491 
L 2372 2344 
L 3522 3491 
L 3856 3153 
L 2709 2009 
L 3856 869 
z
" transform="scale(0.015625)"/>
      <path id="MicrosoftYaHei-2192" d="M 4859 3766 
Q 5241 3344 5514 3125 
Q 5788 2906 6150 2713 
L 6150 2572 
Q 5788 2381 5517 2164 
Q 5247 1947 4859 1519 
L 4622 1519 
Q 4766 1822 4866 1983 
Q 4966 2144 5141 2369 
L 247 2369 
L 247 2916 
L 5141 2916 
Q 4972 3131 4869 3298 
Q 4766 3466 4622 3766 
L 4859 3766 
z
" transform="scale(0.015625)"/>
      <path id="MicrosoftYaHei-9057" d="M 1713 3091 
L 3806 3091 
L 3806 3547 
L 2669 3547 
L 2669 3341 
L 2244 3341 
L 2244 4791 
L 3806 4791 
L 3806 5278 
L 4244 5278 
L 4244 4791 
L 5806 4791 
L 5806 3347 
L 5381 3347 
L 5381 3547 
L 4244 3547 
L 4244 3091 
L 6275 3091 
L 6275 2716 
L 1713 2716 
L 1713 3091 
z
M 2644 -228 
Q 4063 -259 6294 -203 
Q 6225 -409 6119 -697 
Q 3819 -703 2594 -672 
Q 1513 -666 1075 72 
Q 756 -241 325 -778 
L 69 -259 
Q 519 184 894 534 
L 894 2628 
L 131 2628 
L 131 3066 
L 1344 3066 
L 1344 422 
Q 1719 -216 2644 -228 
z
M 2244 2341 
L 5744 2341 
L 5744 841 
L 5306 841 
L 5306 1972 
L 2681 1972 
L 2681 841 
L 2244 841 
L 2244 2341 
z
M 3781 1828 
L 4231 1828 
Q 4231 1422 4144 1172 
Q 5119 734 5925 303 
L 5638 -91 
Q 4913 353 3963 784 
Q 3625 209 2200 -72 
Q 2075 147 1944 328 
Q 3238 522 3588 984 
Q 3781 1272 3781 1828 
z
M 856 5178 
Q 1269 4653 1731 3997 
L 1288 3684 
Q 825 4416 456 4909 
L 856 5178 
z
M 5381 4422 
L 4244 4422 
L 4244 3916 
L 5381 3916 
L 5381 4422 
z
M 2669 3916 
L 3806 3916 
L 3806 4422 
L 2669 4422 
L 2669 3916 
z
" transform="scale(0.015625)"/>
      <path id="MicrosoftYaHei-4f20" d="M 2413 684 
L 2681 1053 
Q 3397 666 4056 278 
L 5269 1472 
L 2606 1472 
L 2606 1916 
Q 2731 2306 2847 2691 
L 1869 2691 
L 1869 3128 
L 2975 3128 
Q 3097 3550 3203 3959 
L 2175 3959 
L 2175 4397 
L 3316 4397 
Q 3425 4831 3519 5253 
L 4056 5253 
Q 3959 4838 3847 4397 
L 6050 4397 
L 6050 3959 
L 3734 3959 
Q 3625 3553 3503 3128 
L 6300 3128 
L 6300 2691 
L 3378 2691 
Q 3266 2306 3144 1909 
L 5906 1909 
L 5906 1453 
L 4481 22 
Q 4869 -209 5238 -447 
L 4913 -872 
Q 3594 34 2413 684 
z
M 88 2241 
Q 963 3528 1469 5297 
L 1975 5147 
Q 1741 4422 1475 3791 
L 1475 -803 
L 981 -803 
L 981 2763 
Q 663 2175 306 1691 
Q 213 1959 88 2241 
z
" transform="scale(0.015625)"/>
     </defs>
     <use xlink:href="#MicrosoftYaHei-2460"/>
     <use xlink:href="#MicrosoftYaHei-20" transform="translate(100 0)"/>
     <use xlink:href="#MicrosoftYaHei-65e0" transform="translate(129.589844 0)"/>
     <use xlink:href="#MicrosoftYaHei-4e2d" transform="translate(229.589844 0)"/>
     <use xlink:href="#MicrosoftYaHei-751f" transform="translate(329.589844 0)"/>
     <use xlink:href="#MicrosoftYaHei-6709" transform="translate(429.589844 0)"/>
     <use xlink:href="#MicrosoftYaHei-4e3a" transform="translate(529.589844 0)"/>
     <use xlink:href="#MicrosoftYaHei-9690" transform="translate(629.589844 0)"/>
     <use xlink:href="#MicrosoftYaHei-6027" transform="translate(729.589844 0)"/>
     <use xlink:href="#MicrosoftYaHei-20" transform="translate(829.589844 0)"/>
     <use xlink:href="#MicrosoftYaHei-2161" transform="translate(859.179688 0)"/>
     <use xlink:href="#MicrosoftYaHei-2d" transform="translate(959.179688 0)"/>
     <use xlink:href="#MicrosoftYaHei-32" transform="translate(1002.441406 0)"/>
     <use xlink:href="#MicrosoftYaHei-d7" transform="translate(1061.083984 0)"/>
     <use xlink:href="#MicrosoftYaHei-2161" transform="translate(1135.253906 0)"/>
     <use xlink:href="#MicrosoftYaHei-2d" transform="translate(1235.253906 0)"/>
     <use xlink:href="#MicrosoftYaHei-33" transform="translate(1278.515625 0)"/>
     <use xlink:href="#MicrosoftYaHei-2192" transform="translate(1337.158203 0)"/>
     <use xlink:href="#MicrosoftYaHei-2162" transform="translate(1437.158203 0)"/>
     <use xlink:href="#MicrosoftYaHei-2d" transform="translate(1537.158203 0)"/>
     <use xlink:href="#MicrosoftYaHei-32" transform="translate(1580.419922 0)"/>
     <use xlink:href="#MicrosoftYaHei-60a3" transform="translate(1639.0625 0)"/>
     <use xlink:href="#MicrosoftYaHei-75c5" transform="translate(1739.0625 0)"/>
     <use xlink:href="#MicrosoftYaHei-20" transform="translate(1839.0625 0)"/>
     <use xlink:href="#MicrosoftYaHei-2192" transform="translate(1868.652344 0)"/>
     <use xlink:href="#MicrosoftYaHei-20" transform="translate(1968.652344 0)"/>
     <use xlink:href="#MicrosoftYaHei-9690" transform="translate(1998.242188 0)"/>
     <use xlink:href="#MicrosoftYaHei-6027" transform="translate(2098.242188 0)"/>
     <use xlink:href="#MicrosoftYaHei-9057" transform="translate(2198.242188 0)"/>
     <use xlink:href="#MicrosoftYaHei-4f20" transform="translate(2298.242188 0)"/>
    </g>
    <!-- ② 若为伴X隐性: Ⅱ-2为携带者, Ⅲ-2基因型X^aY ✓ -->
    <g style="fill: #2d3436" transform="translate(396 148.997464) scale(0.08 -0.08)">
     <defs>
      <path id="MicrosoftYaHei-2461" d="M 3200 4684 
Q 4416 4684 5286 3814 
Q 6156 2944 6156 1728 
Q 6156 513 5286 -357 
Q 4416 -1228 3200 -1228 
Q 1984 -1228 1114 -357 
Q 244 513 244 1728 
Q 244 2944 1114 3814 
Q 1984 4684 3200 4684 
z
M 3200 -844 
Q 4259 -844 5015 -87 
Q 5772 669 5772 1728 
Q 5772 2788 5015 3544 
Q 4259 4300 3200 4300 
Q 2141 4300 1384 3544 
Q 628 2788 628 1728 
Q 628 669 1384 -87 
Q 2141 -844 3200 -844 
z
M 2009 91 
L 2009 519 
L 3138 1622 
Q 3447 1925 3608 2164 
Q 3769 2403 3769 2663 
Q 3769 3225 3138 3225 
Q 2697 3225 2188 2828 
L 2188 3353 
Q 2659 3675 3213 3675 
Q 3719 3675 4003 3415 
Q 4288 3156 4288 2713 
Q 4288 2456 4170 2200 
Q 4053 1944 3828 1700 
Q 3603 1456 3025 900 
L 2656 538 
L 4263 538 
L 4263 91 
L 2009 91 
z
" transform="scale(0.015625)"/>
      <path id="MicrosoftYaHei-82e5" d="M 225 3128 
L 2531 3128 
Q 2753 3453 2919 3803 
L 3369 3622 
Q 3256 3372 3109 3128 
L 6188 3128 
L 6188 2678 
L 2809 2678 
Q 2466 2209 1997 1766 
L 5475 1766 
L 5475 -834 
L 4988 -834 
L 4988 -441 
L 1888 -441 
L 1888 -847 
L 1400 -847 
L 1400 1250 
Q 969 909 463 584 
Q 281 797 81 972 
Q 1400 1725 2194 2678 
L 225 2678 
L 225 3128 
z
M 4988 1322 
L 1888 1322 
L 1888 3 
L 4988 3 
L 4988 1322 
z
M 213 4641 
L 1850 4641 
L 1850 5328 
L 2338 5328 
L 2338 4641 
L 4225 4641 
L 4225 5322 
L 4725 5322 
L 4725 4641 
L 6269 4641 
L 6269 4191 
L 4725 4191 
L 4725 3584 
L 4225 3584 
L 4225 4191 
L 2338 4191 
L 2338 3622 
L 1850 3622 
L 1850 4191 
L 213 4191 
L 213 4641 
z
" transform="scale(0.015625)"/>
      <path id="MicrosoftYaHei-643a" d="M 94 2028 
Q 522 2147 919 2266 
L 919 3697 
L 150 3697 
L 150 4116 
L 919 4116 
L 919 5253 
L 1381 5253 
L 1381 4116 
L 1972 4116 
L 1972 3697 
L 1381 3697 
L 1381 2409 
Q 1722 2516 2038 2622 
Q 2044 2347 2075 2147 
Q 1719 2031 1381 1922 
L 1381 -66 
Q 1381 -759 775 -759 
Q 588 -759 213 -747 
Q 194 -516 138 -247 
Q 413 -284 638 -284 
Q 919 -284 919 16 
L 919 1766 
Q 522 1631 156 1503 
L 94 2028 
z
M 1569 -459 
Q 2875 -109 2972 1028 
L 1988 1028 
L 1988 1397 
L 5231 1397 
L 5019 641 
L 6125 641 
L 6013 -159 
Q 5938 -784 5138 -784 
Q 4694 -784 4288 -766 
Q 4238 -534 4156 -291 
Q 4706 -353 5106 -359 
Q 5531 -372 5581 -84 
L 5631 278 
L 4456 278 
L 4688 1028 
L 3416 1028 
Q 3300 -416 1819 -853 
Q 1719 -666 1569 -459 
z
M 2813 2197 
L 4125 2197 
L 4125 2641 
L 2813 2641 
L 2813 2197 
z
M 2813 2991 
L 4125 2991 
L 4125 3428 
L 2813 3428 
L 2813 2991 
z
M 2813 3778 
L 4125 3778 
L 4125 4216 
L 2825 4216 
Q 2819 4200 2813 4188 
L 2813 3778 
z
M 3263 5084 
Q 3147 4828 3019 4578 
L 4209 4578 
Q 4038 4869 3825 5159 
L 4200 5372 
Q 4456 5041 4644 4728 
L 4391 4578 
L 6119 4578 
L 6119 4216 
L 4550 4216 
L 4550 3778 
L 5969 3778 
L 5969 3428 
L 4550 3428 
L 4550 2991 
L 5969 2991 
L 5969 2641 
L 4550 2641 
L 4550 2197 
L 6175 2197 
L 6175 1834 
L 2813 1834 
L 2813 1666 
L 2388 1666 
L 2388 3481 
Q 2238 3250 2075 3022 
Q 1919 3178 1713 3328 
Q 2356 4125 2838 5253 
L 3263 5084 
z
" transform="scale(0.015625)"/>
      <path id="MicrosoftYaHei-5e26" d="M 1500 -303 
L 1013 -303 
L 1013 1959 
L 2956 1959 
L 2956 2541 
L 3456 2541 
L 3456 1959 
L 5406 1959 
L 5406 341 
Q 5406 -234 4775 -234 
Q 4550 -234 3956 -228 
Q 3925 -28 3863 241 
Q 4431 203 4625 203 
Q 4919 203 4919 466 
L 4919 1522 
L 3456 1522 
L 3456 -841 
L 2956 -841 
L 2956 1522 
L 1500 1522 
L 1500 -303 
z
M 125 4534 
L 1413 4534 
L 1413 5297 
L 1881 5297 
L 1881 4534 
L 2956 4534 
L 2956 5297 
L 3425 5297 
L 3425 4534 
L 4506 4534 
L 4506 5297 
L 4975 5297 
L 4975 4534 
L 6263 4534 
L 6263 4097 
L 4975 4097 
L 4975 3409 
L 4506 3409 
L 4506 4097 
L 3425 4097 
L 3425 3409 
L 2956 3409 
L 2956 4097 
L 1881 4097 
L 1881 3409 
L 1413 3409 
L 1413 4097 
L 125 4097 
L 125 4534 
z
M 338 3159 
L 6069 3159 
L 6069 2022 
L 5581 2022 
L 5581 2722 
L 825 2722 
L 825 2022 
L 338 2022 
L 338 3159 
z
" transform="scale(0.015625)"/>
      <path id="MicrosoftYaHei-8005" d="M 194 3303 
L 2569 3303 
L 2569 4091 
L 813 4091 
L 813 4516 
L 2569 4516 
L 2569 5309 
L 3069 5309 
L 3069 4516 
L 4600 4516 
L 4600 4091 
L 3069 4091 
L 3069 3303 
L 3681 3303 
Q 4706 4028 5363 4891 
L 5806 4591 
Q 5241 3913 4466 3303 
L 6256 3303 
L 6256 2878 
L 3888 2878 
Q 3372 2522 2778 2191 
L 5256 2191 
L 5256 -822 
L 4769 -822 
L 4769 -453 
L 1875 -453 
L 1875 -822 
L 1388 -822 
L 1388 1497 
Q 875 1269 319 1053 
Q 213 1247 38 1509 
Q 1766 2109 3031 2878 
L 194 2878 
L 194 3303 
z
M 1875 -41 
L 4769 -41 
L 4769 678 
L 1875 678 
L 1875 -41 
z
M 1875 1722 
L 1875 1066 
L 4769 1066 
L 4769 1778 
L 1988 1778 
Q 1931 1750 1875 1722 
z
" transform="scale(0.015625)"/>
      <path id="MicrosoftYaHei-2c" d="M 1109 778 
L 575 -888 
L 131 -888 
L 519 778 
L 1109 778 
z
" transform="scale(0.015625)"/>
      <path id="MicrosoftYaHei-57fa" d="M 6319 697 
Q 6113 441 5981 247 
Q 5406 519 4925 897 
L 4925 553 
L 3431 553 
L 3431 -97 
L 5875 -97 
L 5875 -503 
L 519 -503 
L 519 -97 
L 2963 -97 
L 2963 553 
L 1450 553 
L 1450 894 
Q 953 478 413 172 
Q 294 341 88 566 
Q 1050 1034 1753 1753 
L 156 1753 
L 156 2159 
L 1400 2159 
L 1400 4253 
L 350 4253 
L 350 4659 
L 1400 4659 
L 1400 5334 
L 1869 5334 
L 1869 4659 
L 4550 4659 
L 4550 5334 
L 5019 5334 
L 5019 4659 
L 6069 4659 
L 6069 4253 
L 5019 4253 
L 5019 2159 
L 6244 2159 
L 6244 1753 
L 4600 1753 
Q 5303 1053 6319 697 
z
M 2963 1553 
L 3431 1553 
L 3431 947 
L 4863 947 
Q 4416 1306 4047 1753 
L 2325 1753 
Q 1934 1309 1513 947 
L 2963 947 
L 2963 1553 
z
M 1869 2159 
L 4550 2159 
L 4550 2603 
L 1869 2603 
L 1869 2159 
z
M 1869 2991 
L 4550 2991 
L 4550 3428 
L 1869 3428 
L 1869 2991 
z
M 1869 3816 
L 4550 3816 
L 4550 4253 
L 1869 4253 
L 1869 3816 
z
" transform="scale(0.015625)"/>
      <path id="MicrosoftYaHei-56e0" d="M 525 4934 
L 5869 4934 
L 5869 -834 
L 5369 -834 
L 5369 -434 
L 1025 -434 
L 1025 -834 
L 525 -834 
L 525 4934 
z
M 5369 4466 
L 1025 4466 
L 1025 22 
L 5369 22 
L 5369 4466 
z
M 1400 3209 
L 2944 3209 
L 2944 4259 
L 3419 4259 
L 3419 3209 
L 5000 3209 
L 5000 2772 
L 3400 2772 
Q 3388 2522 3331 2291 
Q 4206 1591 5131 778 
L 4750 384 
Q 4031 1116 3194 1853 
Q 2788 866 1550 266 
Q 1381 497 1219 684 
Q 2844 1416 2925 2772 
L 1400 2772 
L 1400 3209 
z
" transform="scale(0.015625)"/>
      <path id="MicrosoftYaHei-578b" d="M 150 3503 
L 1100 3503 
Q 1106 3638 1106 4547 
L 413 4547 
L 413 4959 
L 3675 4959 
L 3675 4547 
L 2994 4547 
L 2994 3503 
L 3881 3503 
L 3881 3091 
L 2994 3091 
L 2994 1747 
L 2538 1747 
L 2538 3091 
L 1528 3091 
Q 1450 2191 638 1534 
Q 475 1716 294 1897 
Q 1013 2453 1066 3091 
L 150 3091 
L 150 3503 
z
M 138 -103 
L 2938 -103 
L 2938 741 
L 706 741 
L 706 1172 
L 2938 1172 
L 2938 1659 
L 3425 1659 
L 3425 1172 
L 5713 1172 
L 5713 741 
L 3425 741 
L 3425 -103 
L 6256 -103 
L 6256 -534 
L 138 -534 
L 138 -103 
z
M 5856 5209 
L 5856 2334 
Q 5856 1672 5200 1659 
Q 4825 1647 4331 1659 
Q 4306 1897 4256 2153 
Q 4781 2122 5044 2122 
Q 5400 2122 5400 2516 
L 5400 5209 
L 5856 5209 
z
M 1556 3503 
L 2538 3503 
L 2538 4547 
L 1563 4547 
Q 1563 3791 1556 3503 
z
M 4138 4859 
L 4588 4859 
L 4588 2697 
L 4138 2697 
L 4138 4859 
z
" transform="scale(0.015625)"/>
      <path id="MicrosoftYaHei-5e" d="M 3991 2100 
L 3450 2100 
L 2344 4175 
L 2328 4175 
L 1297 2100 
L 766 2100 
L 2194 4922 
L 2450 4922 
L 3991 2100 
z
" transform="scale(0.015625)"/>
      <path id="MicrosoftYaHei-61" d="M 628 3216 
Q 1144 3538 1819 3538 
Q 3069 3538 3069 2225 
L 3069 0 
L 2463 0 
L 2463 534 
L 2447 534 
Q 2088 -81 1388 -81 
Q 884 -81 587 191 
Q 291 463 291 925 
Q 291 1894 1438 2053 
L 2463 2197 
Q 2463 3044 1763 3044 
Q 1141 3044 628 2625 
L 628 3216 
z
M 1653 1625 
Q 1228 1569 1067 1412 
Q 906 1256 906 975 
Q 906 728 1081 572 
Q 1256 416 1544 416 
Q 1944 416 2203 697 
Q 2463 978 2463 1403 
L 2463 1734 
L 1653 1625 
z
" transform="scale(0.015625)"/>
      <path id="MicrosoftYaHei-59" d="M 3828 4841 
L 2234 1781 
L 2234 0 
L 1606 0 
L 1606 1766 
L 53 4841 
L 769 4841 
L 1816 2697 
Q 1819 2694 1931 2388 
L 1941 2388 
Q 1978 2519 2069 2694 
L 3163 4841 
L 3828 4841 
z
" transform="scale(0.015625)"/>
      <path id="MicrosoftYaHei-2713" d="M 559 0 
L 559 4719 
L 3900 4719 
L 3900 0 
L 559 0 
z
M 1059 500 
L 3403 500 
L 3403 4219 
L 1059 4219 
L 1059 500 
z
" transform="scale(0.015625)"/>
     </defs>
     <use xlink:href="#MicrosoftYaHei-2461"/>
     <use xlink:href="#MicrosoftYaHei-20" transform="translate(100 0)"/>
     <use xlink:href="#MicrosoftYaHei-82e5" transform="translate(129.589844 0)"/>
     <use xlink:href="#MicrosoftYaHei-4e3a" transform="translate(229.589844 0)"/>
     <use xlink:href="#MicrosoftYaHei-4f34" transform="translate(329.589844 0)"/>
     <use xlink:href="#MicrosoftYaHei-58" transform="translate(429.589844 0)"/>
     <use xlink:href="#MicrosoftYaHei-9690" transform="translate(494.091797 0)"/>
     <use xlink:href="#MicrosoftYaHei-6027" transform="translate(594.091797 0)"/>
     <use xlink:href="#MicrosoftYaHei-3a" transform="translate(694.091797 0)"/>
     <use xlink:href="#MicrosoftYaHei-20" transform="translate(718.164062 0)"/>
     <use xlink:href="#MicrosoftYaHei-2161" transform="translate(747.753906 0)"/>
     <use xlink:href="#MicrosoftYaHei-2d" transform="translate(847.753906 0)"/>
     <use xlink:href="#MicrosoftYaHei-32" transform="translate(891.015625 0)"/>
     <use xlink:href="#MicrosoftYaHei-4e3a" transform="translate(949.658203 0)"/>
     <use xlink:href="#MicrosoftYaHei-643a" transform="translate(1049.658203 0)"/>
     <use xlink:href="#MicrosoftYaHei-5e26" transform="translate(1149.658203 0)"/>
     <use xlink:href="#MicrosoftYaHei-8005" transform="translate(1249.658203 0)"/>
     <use xlink:href="#MicrosoftYaHei-2c" transform="translate(1349.658203 0)"/>
     <use xlink:href="#MicrosoftYaHei-20" transform="translate(1373.730469 0)"/>
     <use xlink:href="#MicrosoftYaHei-2162" transform="translate(1403.320312 0)"/>
     <use xlink:href="#MicrosoftYaHei-2d" transform="translate(1503.320312 0)"/>
     <use xlink:href="#MicrosoftYaHei-32" transform="translate(1546.582031 0)"/>
     <use xlink:href="#MicrosoftYaHei-57fa" transform="translate(1605.224609 0)"/>
     <use xlink:href="#MicrosoftYaHei-56e0" transform="translate(1705.224609 0)"/>
     <use xlink:href="#MicrosoftYaHei-578b" transform="translate(1805.224609 0)"/>
     <use xlink:href="#MicrosoftYaHei-58" transform="translate(1905.224609 0)"/>
     <use xlink:href="#MicrosoftYaHei-5e" transform="translate(1969.726562 0)"/>
     <use xlink:href="#MicrosoftYaHei-61" transform="translate(2043.896484 0)"/>
     <use xlink:href="#MicrosoftYaHei-59" transform="translate(2099.169922 0)"/>
     <use xlink:href="#MicrosoftYaHei-20" transform="translate(2159.521484 0)"/>
     <use xlink:href="#MicrosoftYaHei-2713" transform="translate(2189.111328 0)"/>
    </g>
    <!-- ③ 若为常隐: Ⅱ-2×Ⅱ-3均为Aa, Ⅲ-2为aa ✓ -->
    <g style="fill: #2d3436" transform="translate(396 158.660214) scale(0.08 -0.08)">
     <defs>
      <path id="MicrosoftYaHei-2462" d="M 3200 4684 
Q 4416 4684 5286 3814 
Q 6156 2944 6156 1728 
Q 6156 513 5286 -357 
Q 4416 -1228 3200 -1228 
Q 1984 -1228 1114 -357 
Q 244 513 244 1728 
Q 244 2944 1114 3814 
Q 1984 4684 3200 4684 
z
M 3200 -844 
Q 4259 -844 5015 -87 
Q 5772 669 5772 1728 
Q 5772 2788 5015 3544 
Q 4259 4300 3200 4300 
Q 2141 4300 1384 3544 
Q 628 2788 628 1728 
Q 628 669 1384 -87 
Q 2141 -844 3200 -844 
z
M 2124 231 
L 2124 722 
Q 2540 469 2971 469 
Q 3755 469 3755 1069 
Q 3755 1366 3507 1525 
Q 3259 1684 2809 1684 
L 2477 1684 
L 2477 2119 
L 2784 2119 
Q 3202 2119 3419 2278 
Q 3637 2438 3637 2706 
Q 3637 2944 3477 3084 
Q 3318 3225 3009 3225 
Q 2609 3225 2259 3009 
L 2259 3488 
Q 2677 3659 3099 3659 
Q 3593 3659 3872 3421 
Q 4152 3184 4152 2791 
Q 4152 2200 3596 1931 
Q 4274 1753 4274 1088 
Q 4274 584 3935 304 
Q 3596 25 2977 25 
Q 2484 25 2124 231 
z
" transform="scale(0.015625)"/>
      <path id="MicrosoftYaHei-5747" d="M 2244 2803 
Q 2931 3953 3338 5322 
L 3838 5172 
Q 3691 4744 3531 4347 
L 6013 4347 
Q 5925 1053 5875 297 
Q 5831 -697 4806 -697 
Q 4188 -697 3706 -672 
Q 3669 -422 3606 -141 
L 3625 -141 
Q 4250 -209 4775 -209 
Q 5350 -209 5394 378 
Q 5456 1447 5513 3891 
L 3341 3891 
Q 3028 3172 2675 2572 
Q 2481 2691 2244 2803 
z
M 81 428 
Q 559 600 1006 769 
L 1006 3253 
L 169 3253 
L 169 3697 
L 1006 3697 
L 1006 5259 
L 1469 5259 
L 1469 3697 
L 2281 3697 
L 2281 3253 
L 1469 3253 
L 1469 947 
Q 1922 1125 2338 1303 
Q 2350 991 2369 784 
Q 1363 403 250 -53 
L 81 428 
z
M 2513 853 
Q 3769 1353 5119 1934 
Q 5150 1641 5188 1434 
Q 4031 947 2706 359 
L 2513 853 
z
M 3138 2909 
L 3481 3216 
Q 4025 2716 4531 2216 
L 4125 1859 
Q 3644 2409 3138 2909 
z
" transform="scale(0.015625)"/>
      <path id="MicrosoftYaHei-41" d="M 4428 0 
L 3738 0 
L 3244 1325 
L 1228 1325 
L 763 0 
L 72 0 
L 1916 4841 
L 2584 4841 
L 4428 0 
z
M 3050 1872 
L 2319 3884 
Q 2284 3981 2244 4222 
L 2228 4222 
Q 2194 4003 2150 3884 
L 1425 1872 
L 3050 1872 
z
" transform="scale(0.015625)"/>
     </defs>
     <use xlink:href="#MicrosoftYaHei-2462"/>
     <use xlink:href="#MicrosoftYaHei-20" transform="translate(100 0)"/>
     <use xlink:href="#MicrosoftYaHei-82e5" transform="translate(129.589844 0)"/>
     <use xlink:href="#MicrosoftYaHei-4e3a" transform="translate(229.589844 0)"/>
     <use xlink:href="#MicrosoftYaHei-5e38" transform="translate(329.589844 0)"/>
     <use xlink:href="#MicrosoftYaHei-9690" transform="translate(429.589844 0)"/>
     <use xlink:href="#MicrosoftYaHei-3a" transform="translate(529.589844 0)"/>
     <use xlink:href="#MicrosoftYaHei-20" transform="translate(553.662109 0)"/>
     <use xlink:href="#MicrosoftYaHei-2161" transform="translate(583.251953 0)"/>
     <use xlink:href="#MicrosoftYaHei-2d" transform="translate(683.251953 0)"/>
     <use xlink:href="#MicrosoftYaHei-32" transform="translate(726.513672 0)"/>
     <use xlink:href="#MicrosoftYaHei-d7" transform="translate(785.15625 0)"/>
     <use xlink:href="#MicrosoftYaHei-2161" transform="translate(859.326172 0)"/>
     <use xlink:href="#MicrosoftYaHei-2d" transform="translate(959.326172 0)"/>
     <use xlink:href="#MicrosoftYaHei-33" transform="translate(1002.587891 0)"/>
     <use xlink:href="#MicrosoftYaHei-5747" transform="translate(1061.230469 0)"/>
     <use xlink:href="#MicrosoftYaHei-4e3a" transform="translate(1161.230469 0)"/>
     <use xlink:href="#MicrosoftYaHei-41" transform="translate(1261.230469 0)"/>
     <use xlink:href="#MicrosoftYaHei-61" transform="translate(1331.591797 0)"/>
     <use xlink:href="#MicrosoftYaHei-2c" transform="translate(1386.865234 0)"/>
     <use xlink:href="#MicrosoftYaHei-20" transform="translate(1410.9375 0)"/>
     <use xlink:href="#MicrosoftYaHei-2162" transform="translate(1440.527344 0)"/>
     <use xlink:href="#MicrosoftYaHei-2d" transform="translate(1540.527344 0)"/>
     <use xlink:href="#MicrosoftYaHei-32" transform="translate(1583.789062 0)"/>
     <use xlink:href="#MicrosoftYaHei-4e3a" transform="translate(1642.431641 0)"/>
     <use xlink:href="#MicrosoftYaHei-61" transform="translate(1742.431641 0)"/>
     <use xlink:href="#MicrosoftYaHei-61" transform="translate(1797.705078 0)"/>
     <use xlink:href="#MicrosoftYaHei-20" transform="translate(1852.978516 0)"/>
     <use xlink:href="#MicrosoftYaHei-2713" transform="translate(1882.568359 0)"/>
    </g>
    <!-- ④ 结合Ⅱ-5患病但Ⅱ-4正常 → 优先考虑常染色体隐性 -->
    <g style="fill: #2d3436" transform="translate(396 168.322964) scale(0.08 -0.08)">
     <defs>
      <path id="MicrosoftYaHei-2463" d="M 3200 4684 
Q 4416 4684 5286 3814 
Q 6156 2944 6156 1728 
Q 6156 513 5286 -357 
Q 4416 -1228 3200 -1228 
Q 1984 -1228 1114 -357 
Q 244 513 244 1728 
Q 244 2944 1114 3814 
Q 1984 4684 3200 4684 
z
M 3200 -844 
Q 4259 -844 5015 -87 
Q 5772 669 5772 1728 
Q 5772 2788 5015 3544 
Q 4259 4300 3200 4300 
Q 2141 4300 1384 3544 
Q 628 2788 628 1728 
Q 628 669 1384 -87 
Q 2141 -844 3200 -844 
z
M 3835 959 
L 3835 91 
L 3357 91 
L 3357 959 
L 1716 959 
L 1716 1319 
L 3347 3603 
L 3835 3603 
L 3835 1388 
L 4297 1388 
L 4297 959 
L 3835 959 
z
M 3357 2706 
Q 3357 2928 3369 2988 
Q 3316 2841 3257 2759 
L 2272 1388 
L 3357 1388 
L 3357 2706 
z
" transform="scale(0.015625)"/>
      <path id="MicrosoftYaHei-7ed3" d="M 2625 1709 
L 5925 1709 
L 5925 -828 
L 5438 -828 
L 5438 -441 
L 3113 -441 
L 3113 -828 
L 2625 -828 
L 2625 1709 
z
M 2500 2897 
L 4025 2897 
L 4025 3872 
L 2294 3872 
L 2294 4322 
L 4025 4322 
L 4025 5322 
L 4525 5322 
L 4525 4322 
L 6275 4322 
L 6275 3872 
L 4525 3872 
L 4525 2897 
L 6056 2897 
L 6056 2447 
L 2500 2447 
L 2500 2897 
z
M 894 1566 
Q 1725 1684 2269 1778 
Q 2231 1534 2213 1303 
Q 1519 1203 319 1009 
L 219 1472 
Q 619 1888 1172 2791 
Q 647 2756 219 2722 
L 100 3147 
Q 675 3916 1294 5366 
L 1769 5178 
Q 1094 3853 663 3184 
Q 1025 3194 1419 3206 
Q 1631 3569 1863 3997 
L 2325 3766 
Q 1613 2578 894 1566 
z
M 5438 1272 
L 3113 1272 
L 3113 -3 
L 5438 -3 
L 5438 1272 
z
M 75 91 
Q 1231 316 2331 584 
Q 2313 334 2313 109 
Q 1300 -103 213 -391 
L 75 91 
z
" transform="scale(0.015625)"/>
      <path id="MicrosoftYaHei-5408" d="M 1025 1909 
L 5381 1909 
L 5381 -866 
L 4881 -866 
L 4881 -447 
L 1525 -447 
L 1525 -878 
L 1025 -878 
L 1025 1909 
z
M 3700 5234 
L 3550 5053 
Q 4594 3697 6319 3009 
Q 6125 2734 5988 2509 
Q 5481 2753 5025 3059 
L 5025 2703 
L 1369 2703 
L 1369 3016 
Q 913 2716 394 2428 
Q 269 2641 81 2897 
Q 2013 3866 3000 5234 
L 3700 5234 
z
M 4881 1453 
L 1525 1453 
L 1525 -3 
L 4881 -3 
L 4881 1453 
z
M 3219 4691 
Q 2581 3872 1550 3147 
L 4894 3147 
Q 3944 3797 3219 4691 
z
" transform="scale(0.015625)"/>
      <path id="MicrosoftYaHei-4f46" d="M 2419 4884 
L 5794 4884 
L 5794 647 
L 5306 647 
L 5306 1053 
L 2906 1053 
L 2906 647 
L 2419 647 
L 2419 4884 
z
M 81 2334 
Q 1069 3678 1556 5284 
L 2063 5116 
Q 1750 4247 1388 3516 
L 1388 -809 
L 913 -809 
L 913 2659 
Q 616 2175 288 1772 
Q 200 2034 81 2334 
z
M 2906 1491 
L 5306 1491 
L 5306 2759 
L 2906 2759 
L 2906 1491 
z
M 5306 4447 
L 2906 4447 
L 2906 3184 
L 5306 3184 
L 5306 4447 
z
M 1850 28 
L 6319 28 
L 6319 -403 
L 1850 -403 
L 1850 28 
z
" transform="scale(0.015625)"/>
      <path id="MicrosoftYaHei-4f18" d="M 1825 3609 
L 3184 3609 
Q 3216 4322 3213 5272 
L 3713 5272 
Q 3719 4338 3688 3609 
L 6188 3609 
L 6188 3153 
L 4475 3153 
L 4475 228 
Q 4475 -122 4838 -122 
L 5244 -122 
Q 5656 -122 5700 303 
Q 5750 659 5781 1266 
Q 6031 1166 6294 1066 
Q 6244 528 6175 109 
Q 6100 -291 5900 -447 
Q 5713 -603 5275 -597 
L 4763 -597 
Q 4325 -597 4150 -422 
Q 3969 -259 3969 184 
L 3969 3153 
L 3663 3153 
Q 3600 791 1950 -803 
Q 1775 -597 1575 -397 
Q 3100 1028 3159 3153 
L 1825 3153 
L 1825 3609 
z
M 88 2334 
Q 1056 3641 1556 5291 
L 2063 5122 
Q 1753 4253 1388 3522 
L 1388 -809 
L 913 -809 
L 913 2666 
Q 616 2184 288 1778 
Q 194 2047 88 2334 
z
M 4600 5184 
Q 5269 4759 5713 4391 
Q 5538 4197 5388 3991 
Q 4875 4447 4325 4841 
L 4600 5184 
z
" transform="scale(0.015625)"/>
      <path id="MicrosoftYaHei-5148" d="M 225 2453 
L 2956 2453 
L 2956 3784 
L 1459 3784 
Q 1153 3166 800 2709 
Q 569 2891 394 2997 
Q 1094 3903 1481 5166 
L 1969 5028 
Q 1828 4613 1672 4247 
L 2956 4247 
L 2956 5309 
L 3469 5309 
L 3469 4247 
L 5788 4247 
L 5788 3784 
L 3469 3784 
L 3469 2453 
L 6219 2453 
L 6219 1991 
L 4206 1991 
L 4206 222 
Q 4169 -259 4638 -216 
L 5275 -216 
Q 5706 -216 5750 109 
Q 5794 428 5819 1022 
Q 6056 922 6344 834 
Q 6313 372 6231 -122 
Q 6169 -434 5956 -559 
Q 5769 -678 5281 -678 
L 4538 -678 
Q 3663 -716 3700 141 
L 3700 1991 
L 2478 1991 
Q 2428 909 2044 328 
Q 1581 -397 369 -847 
Q 244 -647 50 -397 
Q 1163 -16 1581 584 
Q 1925 1047 1978 1991 
L 225 1991 
L 225 2453 
z
" transform="scale(0.015625)"/>
      <path id="MicrosoftYaHei-8003" d="M 225 3334 
L 2413 3334 
L 2413 4128 
L 738 4128 
L 738 4553 
L 2413 4553 
L 2413 5303 
L 2900 5303 
L 2900 4553 
L 4213 4553 
L 4213 4128 
L 2900 4128 
L 2900 3334 
L 3534 3334 
Q 4500 4041 5325 4884 
L 5706 4559 
Q 5000 3900 4278 3334 
L 6200 3334 
L 6200 2903 
L 3709 2903 
Q 3350 2641 2991 2403 
L 5769 2403 
L 5769 1978 
L 2859 1978 
L 2594 1428 
L 5100 1428 
Q 4975 366 4919 128 
Q 4775 -678 3931 -678 
Q 3300 -678 2563 -653 
Q 2519 -384 2431 -109 
Q 3181 -172 3838 -172 
Q 4325 -172 4431 253 
Q 4488 484 4556 1003 
L 2100 1003 
L 2100 1428 
L 2378 1978 
L 2316 1978 
Q 1353 1403 369 984 
Q 231 1222 69 1434 
Q 1606 2053 2906 2903 
L 225 2903 
L 225 3334 
z
" transform="scale(0.015625)"/>
      <path id="MicrosoftYaHei-8651" d="M 1206 3647 
L 1206 2297 
Q 1206 222 456 -841 
Q 300 -628 113 -428 
Q 738 509 738 2203 
L 738 4066 
L 2819 4066 
L 2819 5334 
L 3288 5334 
L 3288 4891 
L 5700 4891 
L 5700 4497 
L 3288 4497 
L 3288 4066 
L 6119 4066 
L 6063 3022 
Q 5850 3047 5606 3047 
L 5656 3647 
L 1206 3647 
z
M 1406 2947 
L 2844 3013 
L 2844 3559 
L 3313 3559 
L 3313 3034 
L 5144 3122 
L 5163 2722 
L 3313 2631 
L 3313 2522 
Q 3313 2109 3769 2109 
L 4850 2109 
Q 5319 2109 5419 2497 
Q 5463 2659 5488 2872 
Q 5756 2753 5969 2684 
Q 5925 2478 5863 2291 
Q 5688 1709 4931 1709 
L 3669 1709 
Q 2844 1709 2844 2484 
L 2844 2609 
L 1425 2541 
L 1406 2947 
z
M 2431 1291 
L 2906 1291 
L 2906 197 
Q 2906 -247 3363 -247 
L 4113 -247 
Q 4613 -247 4700 191 
Q 4763 509 4800 891 
Q 5063 772 5281 703 
Q 5206 253 5131 -47 
Q 4981 -684 4206 -684 
L 3256 -684 
Q 2431 -684 2431 141 
L 2431 1291 
z
M 1669 1378 
L 2131 1241 
Q 1888 397 1588 -309 
Q 1313 -178 1131 -116 
Q 1481 609 1669 1378 
z
M 5269 1241 
L 5706 1434 
Q 6019 859 6381 59 
L 5900 -159 
Q 5625 559 5269 1241 
z
M 3288 1428 
L 3725 1603 
Q 4000 1116 4244 578 
L 3775 384 
Q 3575 897 3288 1428 
z
" transform="scale(0.015625)"/>
     </defs>
     <use xlink:href="#MicrosoftYaHei-2463"/>
     <use xlink:href="#MicrosoftYaHei-20" transform="translate(100 0)"/>
     <use xlink:href="#MicrosoftYaHei-7ed3" transform="translate(129.589844 0)"/>
     <use xlink:href="#MicrosoftYaHei-5408" transform="translate(229.589844 0)"/>
     <use xlink:href="#MicrosoftYaHei-2161" transform="translate(329.589844 0)"/>
     <use xlink:href="#MicrosoftYaHei-2d" transform="translate(429.589844 0)"/>
     <use xlink:href="#MicrosoftYaHei-35" transform="translate(472.851562 0)"/>
     <use xlink:href="#MicrosoftYaHei-60a3" transform="translate(531.494141 0)"/>
     <use xlink:href="#MicrosoftYaHei-75c5" transform="translate(631.494141 0)"/>
     <use xlink:href="#MicrosoftYaHei-4f46" transform="translate(731.494141 0)"/>
     <use xlink:href="#MicrosoftYaHei-2161" transform="translate(831.494141 0)"/>
     <use xlink:href="#MicrosoftYaHei-2d" transform="translate(931.494141 0)"/>
     <use xlink:href="#MicrosoftYaHei-34" transform="translate(974.755859 0)"/>
     <use xlink:href="#MicrosoftYaHei-6b63" transform="translate(1033.398438 0)"/>
     <use xlink:href="#MicrosoftYaHei-5e38" transform="translate(1133.398438 0)"/>
     <use xlink:href="#MicrosoftYaHei-20" transform="translate(1233.398438 0)"/>
     <use xlink:href="#MicrosoftYaHei-2192" transform="translate(1262.988281 0)"/>
     <use xlink:href="#MicrosoftYaHei-20" transform="translate(1362.988281 0)"/>
     <use xlink:href="#MicrosoftYaHei-4f18" transform="translate(1392.578125 0)"/>
     <use xlink:href="#MicrosoftYaHei-5148" transform="translate(1492.578125 0)"/>
     <use xlink:href="#MicrosoftYaHei-8003" transform="translate(1592.578125 0)"/>
     <use xlink:href="#MicrosoftYaHei-8651" transform="translate(1692.578125 0)"/>
     <use xlink:href="#MicrosoftYaHei-5e38" transform="translate(1792.578125 0)"/>
     <use xlink:href="#MicrosoftYaHei-67d3" transform="translate(1892.578125 0)"/>
     <use xlink:href="#MicrosoftYaHei-8272" transform="translate(1992.578125 0)"/>
     <use xlink:href="#MicrosoftYaHei-4f53" transform="translate(2092.578125 0)"/>
     <use xlink:href="#MicrosoftYaHei-9690" transform="translate(2192.578125 0)"/>
     <use xlink:href="#MicrosoftYaHei-6027" transform="translate(2292.578125 0)"/>
    </g>
   </g>
   <g id="text_29">
    <!-- 人类遗传病系谱图分析 -->
    <g style="fill: #1a1a2e" transform="translate(196.4 18.39125) scale(0.14 -0.14)">
     <defs>
      <path id="MicrosoftYaHei-Bold-4eba" d="M 2731 5297 
L 3644 5297 
Q 3647 4619 3584 3984 
Q 4053 1066 6300 147 
Q 5806 -434 5581 -759 
Q 3900 94 3206 2147 
Q 2547 313 719 -822 
Q 525 -478 88 72 
Q 1491 872 2117 2009 
Q 2744 3147 2731 5297 
z
" transform="scale(0.015625)"/>
      <path id="MicrosoftYaHei-Bold-7c7b" d="M 331 3953 
L 1781 3953 
Q 1319 4347 838 4728 
L 1306 5247 
Q 1863 4866 2431 4422 
Q 2425 4409 1975 3953 
L 2763 3953 
L 2763 5303 
L 3613 5303 
L 3613 3953 
L 4456 3953 
L 4038 4372 
Q 4513 4753 5106 5259 
L 5663 4728 
Q 5138 4297 4688 3953 
L 6069 3953 
L 6069 3216 
L 3925 3216 
Q 5069 2809 6025 2441 
L 5675 1734 
Q 4844 2122 3613 2653 
L 3613 2141 
L 2763 2141 
L 2763 2722 
Q 2038 2116 813 1747 
Q 644 2122 400 2509 
Q 1588 2747 2256 3216 
L 331 3216 
L 331 3953 
z
M 225 1603 
L 2719 1603 
Q 2744 1772 2750 1966 
L 3606 1966 
Q 3588 1772 3563 1603 
L 6181 1603 
L 6181 841 
L 4013 841 
Q 4788 66 6238 -91 
Q 5863 -603 5681 -891 
Q 4006 -528 3225 734 
Q 2850 -359 694 -872 
Q 388 -391 169 -109 
Q 1844 134 2419 841 
L 225 841 
L 225 1603 
z
" transform="scale(0.015625)"/>
      <path id="MicrosoftYaHei-Bold-9057" d="M 2069 4997 
L 3606 4997 
L 3606 5341 
L 4394 5341 
L 4394 4997 
L 5931 4997 
L 5931 3578 
L 4394 3578 
L 4394 3297 
L 6250 3297 
L 6250 2734 
L 1750 2734 
L 1750 3297 
L 3606 3297 
L 3606 3578 
L 2069 3578 
L 2069 4997 
z
M 5156 4459 
L 4394 4459 
L 4394 4116 
L 5156 4116 
L 5156 4459 
z
M 2844 4116 
L 3606 4116 
L 3606 4459 
L 2844 4459 
L 2844 4116 
z
M 938 5322 
Q 1475 4672 1806 4178 
Q 1400 3922 1069 3691 
Q 669 4359 263 4878 
L 938 5322 
z
M 3588 1784 
L 4400 1784 
Q 4388 1500 4306 1259 
Q 5416 878 6106 591 
L 5753 38 
L 6300 47 
L 5994 -753 
L 3772 -728 
L 2447 -703 
Q 2153 -694 1789 -562 
Q 1425 -431 1138 -103 
L 456 -884 
L 100 78 
Q 356 306 694 594 
L 694 2309 
L 138 2309 
L 138 3134 
L 1475 3134 
L 1475 572 
Q 1709 247 2178 119 
Q 2053 372 1875 697 
Q 2772 759 3181 1001 
Q 3591 1244 3588 1784 
z
M 2503 56 
Q 2856 22 3963 22 
Q 4613 22 5525 34 
Q 4838 356 3975 713 
Q 3594 284 2503 56 
z
M 2875 1009 
L 2088 1009 
L 2088 2453 
L 5906 2453 
L 5906 1009 
L 5119 1009 
L 5119 1922 
L 2875 1922 
L 2875 1009 
z
" transform="scale(0.015625)"/>
      <path id="MicrosoftYaHei-Bold-4f20" d="M 1306 5347 
L 2131 5128 
Q 1891 4375 1600 3681 
L 1600 -853 
L 806 -853 
L 806 2041 
Q 556 1597 281 1178 
Q 206 1672 75 2347 
Q 856 3609 1306 5347 
z
M 2325 334 
L 2738 1009 
Q 3278 816 4028 516 
L 4819 1297 
L 2450 1297 
L 2450 1978 
Q 2550 2263 2647 2559 
L 1875 2559 
L 1875 3272 
L 2866 3272 
L 3025 3828 
L 2175 3828 
L 2175 4528 
L 3209 4528 
L 3388 5278 
L 4319 5278 
L 4134 4528 
L 6075 4528 
L 6075 3828 
L 3950 3828 
L 3794 3272 
L 6300 3272 
L 6300 2559 
L 3578 2559 
Q 3488 2269 3394 1997 
L 6019 1997 
L 6019 1341 
L 4872 169 
L 5650 -159 
L 5206 -897 
Q 4088 -359 2325 334 
z
" transform="scale(0.015625)"/>
      <path id="MicrosoftYaHei-Bold-75c5" d="M 3094 5284 
L 4125 5366 
L 4244 4853 
L 6300 4853 
L 6300 4116 
L 1756 4116 
L 1756 2491 
Q 1756 981 1429 176 
Q 1103 -628 888 -872 
Q 463 -409 200 -216 
Q 728 391 891 1381 
Q 566 1175 256 991 
L 75 1928 
Q 478 2113 959 2400 
L 956 2825 
L 381 2659 
Q 219 3728 119 4191 
L 675 4353 
Q 866 3503 956 2981 
L 956 4853 
L 3203 4853 
L 3094 5284 
z
M 2800 -816 
L 2025 -816 
L 2025 2522 
L 3672 2522 
Q 3700 2759 3703 3016 
L 2000 3016 
L 2000 3728 
L 6200 3728 
L 6200 3016 
L 4534 3016 
Q 4528 2766 4506 2522 
L 6069 2522 
L 6069 72 
Q 6069 -306 5876 -525 
Q 5684 -744 5311 -794 
Q 4938 -844 4194 -834 
Q 4075 -284 3994 -9 
Q 4253 -28 4650 -28 
L 4822 -31 
Q 5063 -31 5177 64 
Q 5291 159 5294 359 
L 5294 759 
L 4850 297 
Q 4509 675 4100 1084 
Q 3803 534 3306 103 
Q 3044 369 2800 591 
L 2800 -816 
z
M 3538 1859 
L 2800 1859 
L 2800 763 
Q 3316 1169 3538 1859 
z
M 4363 1716 
Q 4825 1366 5294 975 
L 5294 1859 
L 4403 1859 
Q 4384 1788 4363 1716 
z
" transform="scale(0.015625)"/>
      <path id="MicrosoftYaHei-Bold-7cfb" d="M 344 4916 
Q 3406 4903 5900 5159 
L 6025 4472 
Q 4769 4353 3397 4278 
Q 2747 3884 2019 3528 
L 4084 3622 
Q 4550 3884 5038 4178 
L 5625 3591 
Q 3875 2622 1900 1878 
Q 3247 1938 4613 2034 
Q 4372 2272 4156 2466 
L 4738 2934 
Q 5219 2516 6263 1466 
L 5669 922 
Q 5447 1169 5241 1388 
L 3731 1328 
L 3731 -141 
Q 3731 -456 3547 -622 
Q 3363 -788 2984 -802 
Q 2606 -816 1975 -816 
Q 1919 -359 1813 34 
Q 2119 9 2466 9 
Q 2719 9 2800 65 
Q 2881 122 2881 278 
L 2881 1288 
Q 1481 1216 738 1128 
L 519 1903 
Q 1575 2303 2803 2931 
Q 1563 2856 888 2759 
L 656 3522 
Q 1338 3775 2075 4213 
L 481 4166 
Q 438 4522 344 4916 
z
M 4738 1153 
Q 5431 678 6294 -3 
L 5719 -603 
Q 5050 -28 4213 603 
L 4738 1153 
z
M 1569 1091 
L 2200 534 
Q 1494 -128 656 -678 
Q 369 -309 88 -9 
Q 894 447 1569 1091 
z
" transform="scale(0.015625)"/>
      <path id="MicrosoftYaHei-Bold-8c31" d="M 1625 3041 
L 2300 3041 
Q 2094 3384 1863 3716 
L 2338 4028 
L 1775 4028 
L 1775 4678 
L 2706 4678 
Q 2544 4934 2400 5172 
L 3269 5347 
Q 3406 5059 3600 4678 
L 4206 4678 
Q 4413 4984 4594 5353 
L 5500 5159 
Q 5319 4928 5113 4678 
L 6069 4678 
L 6069 4028 
L 5513 4028 
Q 5706 3916 6006 3741 
Q 5744 3378 5513 3041 
L 6250 3041 
L 6250 2403 
L 1625 2403 
L 1625 3041 
z
M 2100 -872 
L 2100 2066 
L 5738 2066 
L 5738 -872 
L 4900 -872 
L 4900 -616 
L 2938 -616 
L 2938 -872 
L 2100 -872 
z
M 1781 1059 
Q 1800 497 1850 97 
Q 1225 -359 863 -791 
L 431 -178 
Q 588 34 588 347 
L 588 2366 
L 100 2366 
L 100 3178 
L 1344 3178 
L 1344 728 
Q 1519 859 1781 1059 
z
M 894 5247 
Q 1300 4684 1650 4097 
Q 1350 3916 969 3678 
Q 644 4303 263 4872 
L 894 5247 
z
M 2938 34 
L 4900 34 
L 4900 428 
L 2938 428 
L 2938 34 
z
M 4900 1422 
L 2938 1422 
L 2938 1028 
L 4900 1028 
L 4900 1422 
z
M 3688 3041 
L 4125 3041 
L 4125 4028 
L 3688 4028 
L 3688 3041 
z
M 2881 3347 
Q 2638 3197 2400 3041 
L 2950 3041 
L 2950 4028 
L 2400 4028 
Q 2644 3684 2881 3347 
z
M 5406 4028 
L 4875 4028 
L 4875 3041 
L 5350 3041 
L 4931 3328 
Q 5150 3616 5406 4028 
z
" transform="scale(0.015625)"/>
      <path id="MicrosoftYaHei-Bold-56fe" d="M 369 -841 
L 369 5072 
L 6019 5072 
L 6019 -834 
L 5156 -834 
L 5156 -591 
L 1231 -591 
L 1231 -841 
L 369 -841 
z
M 4875 3978 
L 4875 3466 
Q 4547 3022 4006 2678 
Q 4513 2541 5156 2463 
L 5156 4316 
L 3256 4316 
Q 3141 4144 3009 3978 
L 4875 3978 
z
M 2394 4316 
L 1231 4316 
L 1231 3231 
Q 2016 3747 2394 4316 
z
M 3228 2959 
Q 3666 3163 3919 3416 
L 2575 3416 
Q 2828 3156 3228 2959 
z
M 1644 2747 
Q 1481 2925 1231 3147 
L 1231 2400 
Q 1950 2522 2500 2688 
Q 2266 2863 2078 3063 
Q 1872 2900 1644 2747 
z
M 1669 1303 
Q 3319 1084 4775 841 
L 4600 166 
L 5156 166 
L 5156 2388 
Q 5019 2159 4825 1822 
Q 3897 1978 3219 2275 
Q 2872 2134 2472 2019 
Q 3509 1888 4500 1722 
L 4375 1128 
Q 3344 1309 2063 1484 
L 2159 1934 
Q 1856 1859 1525 1797 
Q 1409 2059 1231 2347 
L 1231 166 
L 4569 166 
Q 3297 425 1494 647 
L 1669 1303 
z
" transform="scale(0.015625)"/>
      <path id="MicrosoftYaHei-Bold-5206" d="M 6350 3028 
Q 6088 2703 5750 2228 
Q 5519 2409 5303 2603 
Q 5219 606 5172 190 
Q 5125 -225 4862 -451 
Q 4600 -678 4128 -678 
Q 3484 -678 2913 -659 
Q 2856 -141 2781 284 
Q 3594 216 3956 216 
Q 4172 216 4230 408 
Q 4288 600 4325 1978 
L 2781 1978 
Q 2728 1100 2529 631 
Q 2331 163 1907 -215 
Q 1484 -594 844 -872 
Q 456 -353 194 -78 
Q 750 144 1111 414 
Q 1472 684 1630 989 
Q 1788 1294 1841 1978 
L 950 1978 
L 950 2475 
Q 794 2356 631 2247 
Q 344 2653 63 2953 
Q 1475 3947 2194 5316 
L 3031 4953 
Q 2378 3722 1391 2841 
L 5047 2841 
Q 4088 3766 3463 4903 
L 4238 5303 
Q 5038 3922 6350 3028 
z
" transform="scale(0.015625)"/>
      <path id="MicrosoftYaHei-Bold-6790" d="M 94 1559 
Q 653 2478 878 3297 
L 150 3297 
L 150 4116 
L 888 4116 
L 888 5266 
L 1725 5266 
L 1725 4116 
L 2363 4116 
L 2363 3297 
L 1725 3297 
L 1725 2722 
Q 2256 2453 2594 2253 
L 2181 1528 
Q 1978 1678 1725 1841 
L 1725 -822 
L 888 -822 
L 888 1563 
Q 653 1003 319 459 
Q 225 997 94 1559 
z
M 5963 5191 
L 6238 4353 
Q 5244 4178 3506 4041 
L 3506 3091 
L 6306 3091 
L 6306 2266 
L 5275 2266 
L 5275 -791 
L 4425 -791 
L 4425 2266 
L 3506 2266 
Q 3506 281 2656 -859 
Q 2331 -453 1988 -141 
Q 2656 716 2656 2216 
L 2656 4859 
Q 4756 4966 5963 5191 
z
" transform="scale(0.015625)"/>
     </defs>
     <use xlink:href="#MicrosoftYaHei-Bold-4eba"/>
     <use xlink:href="#MicrosoftYaHei-Bold-7c7b" transform="translate(100 0)"/>
     <use xlink:href="#MicrosoftYaHei-Bold-9057" transform="translate(200 0)"/>
     <use xlink:href="#MicrosoftYaHei-Bold-4f20" transform="translate(300 0)"/>
     <use xlink:href="#MicrosoftYaHei-Bold-75c5" transform="translate(400 0)"/>
     <use xlink:href="#MicrosoftYaHei-Bold-7cfb" transform="translate(500 0)"/>
     <use xlink:href="#MicrosoftYaHei-Bold-8c31" transform="translate(600 0)"/>
     <use xlink:href="#MicrosoftYaHei-Bold-56fe" transform="translate(700 0)"/>
     <use xlink:href="#MicrosoftYaHei-Bold-5206" transform="translate(800 0)"/>
     <use xlink:href="#MicrosoftYaHei-Bold-6790" transform="translate(900 0)"/>
    </g>
   </g>
  </g>
 </g>
 <defs>
  <clipPath id="p4e3eaab20a">
   <rect x="7.2" y="28.39125" width="518.4" height="265.68"/>
  </clipPath>
 </defs>
</svg>
