<?xml version="1.0" encoding="utf-8" standalone="no"?>
<!DOCTYPE svg PUBLIC "-//W3C//DTD SVG 1.1//EN"
  "http://www.w3.org/Graphics/SVG/1.1/DTD/svg11.dtd">
<svg xmlns:xlink="http://www.w3.org/1999/xlink" width="490.827655pt" height="252.739304pt" viewBox="0 0 490.827655 252.739304" xmlns="http://www.w3.org/2000/svg" version="1.1">
 <metadata>
  <rdf:RDF xmlns:dc="http://purl.org/dc/elements/1.1/" xmlns:cc="http://creativecommons.org/ns#" xmlns:rdf="http://www.w3.org/1999/02/22-rdf-syntax-ns#">
   <cc:Work>
    <dc:type rdf:resource="http://purl.org/dc/dcmitype/StillImage"/>
    <dc:date>2026-05-22T14:15:58.028542</dc:date>
    <dc:format>image/svg+xml</dc:format>
    <dc:creator>
     <cc:Agent>
      <dc:title>Matplotlib v3.10.9, https://matplotlib.org/</dc:title>
     </cc:Agent>
    </dc:creator>
   </cc:Work>
  </rdf:RDF>
 </metadata>
 <defs>
  <style type="text/css">*{stroke-linejoin: round; stroke-linecap: butt}</style>
 </defs>
 <g id="figure_1">
  <g id="patch_1">
   <path d="M 0 252.739304 
L 490.827655 252.739304 
L 490.827655 0 
L 0 0 
L 0 252.739304 
z
" style="fill: none"/>
  </g>
  <g id="axes_1">
   <g id="patch_2">
    <path d="M 118.922386 44.439009 
C 104.81831 44.439009 90.912489 47.777501 78.345665 54.180617 
C 65.778841 60.583734 54.904307 69.871463 46.614139 81.281901 
C 38.323971 92.692338 32.851231 105.9047 30.644868 119.835132 
C 28.438504 133.765564 29.560544 148.022437 33.918944 161.43621 
L 118.922386 133.816918 
z
" style="fill: #8bc34a"/>
   </g>
   <g id="patch_3">
    <path d="M 33.918941 161.436209 
C 39.750656 179.384388 51.119719 195.03256 66.387349 206.12515 
C 81.654979 217.217739 100.050557 223.194827 118.922387 223.194827 
L 118.922386 133.816918 
z
" style="fill: #ff9800"/>
   </g>
   <g id="patch_4">
    <path d="M 118.922387 223.194827 
C 133.026464 223.194827 146.932302 219.856327 159.499123 213.453208 
C 172.065944 207.050088 182.940459 197.762379 191.230629 186.351939 
L 118.922386 133.816918 
z
" style="fill: #9c27b0"/>
   </g>
   <g id="patch_5">
    <path d="M 191.230629 186.351939 
C 199.520794 174.94151 204.993537 161.729156 207.199902 147.798735 
C 209.406272 133.868313 208.284234 119.611447 203.925847 106.19768 
L 118.922386 133.816918 
z
" style="fill: #4caf50"/>
   </g>
   <g id="patch_6">
    <path d="M 203.925847 106.19768 
C 201.027631 97.277864 196.74338 88.869545 191.230634 81.281902 
C 185.717889 73.694258 179.045045 67.02141 171.457397 61.508664 
L 118.922386 133.816918 
z
" style="fill: #f44336"/>
   </g>
   <g id="patch_7">
    <path d="M 171.457397 61.508664 
C 163.869759 55.995924 155.461461 51.711683 146.541661 48.813467 
C 137.621861 45.915251 128.301232 44.439009 118.922399 44.439009 
L 118.922386 133.816918 
z
" style="fill: #2196f3"/>
   </g>
   <g id="matplotlib.axis_1"/>
   <g id="matplotlib.axis_2"/>
   <g id="text_1">
    <!-- 细胞壁 -->
    <g transform="translate(18.38331 78.366295) scale(0.07 -0.07)">
     <defs>
      <path id="SimHei-7ec6" d="M 5950 4475 
Q 5925 4075 5925 3700 
L 5925 500 
Q 5925 225 5950 -450 
L 5450 -450 
L 5450 25 
L 3300 25 
L 3300 -500 
L 2825 -500 
Q 2850 -150 2850 400 
L 2850 3625 
Q 2850 4075 2825 4475 
L 5950 4475 
z
M 2000 4900 
Q 1800 4675 1562 4212 
Q 1325 3750 975 3200 
Q 1325 3200 1775 3225 
Q 2000 3675 2125 4025 
Q 2375 3850 2625 3775 
Q 2500 3575 2062 2837 
Q 1625 2100 1225 1625 
Q 2075 1700 2525 1750 
Q 2425 1550 2400 1300 
Q 2175 1300 1587 1237 
Q 1000 1175 700 1100 
Q 600 1375 500 1550 
Q 825 1800 1050 2087 
Q 1275 2375 1550 2825 
Q 1300 2825 1037 2787 
Q 775 2750 550 2650 
Q 475 2925 325 3125 
Q 600 3375 925 3962 
Q 1250 4550 1450 5150 
Q 1700 4975 2000 4900 
z
M 5450 425 
L 5450 2125 
L 4575 2125 
L 4575 425 
L 5450 425 
z
M 4125 425 
L 4125 2125 
L 3300 2125 
L 3300 425 
L 4125 425 
z
M 5450 2500 
L 5450 4075 
L 4575 4075 
L 4575 2500 
L 5450 2500 
z
M 4125 2500 
L 4125 4075 
L 3300 4075 
L 3300 2500 
L 4125 2500 
z
M 2625 675 
Q 2575 425 2575 200 
Q 2075 125 1487 -25 
Q 900 -175 525 -300 
Q 475 -75 350 225 
Q 900 325 1425 425 
Q 1950 525 2625 675 
z
" transform="scale(0.015625)"/>
      <path id="SimHei-80de" d="M 4950 1275 
Q 5150 1275 5275 1337 
Q 5400 1400 5425 1800 
Q 5450 2200 5475 3825 
L 3650 3825 
Q 3500 3525 3250 3100 
L 4875 3100 
Q 4850 2800 4850 2175 
Q 4850 1575 4875 1250 
L 3575 1250 
L 3575 325 
Q 3575 0 3875 -25 
L 5175 -25 
Q 5425 -25 5487 112 
Q 5550 250 5625 675 
Q 5875 450 6150 400 
Q 5950 -225 5787 -312 
Q 5625 -400 5275 -400 
L 3825 -400 
Q 3175 -400 3175 150 
L 3175 2950 
Q 3075 2800 2950 2650 
Q 2775 2900 2600 3025 
Q 3000 3475 3275 4125 
Q 3550 4775 3675 5300 
Q 3950 5125 4225 5000 
Q 4125 4950 4012 4712 
Q 3900 4475 3800 4225 
L 5950 4225 
Q 5925 3775 5900 2912 
Q 5875 2050 5850 1575 
Q 5825 1125 5687 1012 
Q 5550 900 5150 775 
Q 5050 1075 4950 1275 
z
M 1425 -25 
Q 1750 -50 1925 0 
Q 2100 50 2100 325 
L 2100 1575 
L 1200 1575 
Q 1125 375 650 -575 
Q 450 -350 225 -300 
Q 450 75 600 637 
Q 750 1200 775 1975 
Q 800 2750 800 3600 
Q 800 4450 775 4800 
L 2550 4800 
Q 2525 4325 2525 3825 
L 2525 225 
Q 2550 -200 2350 -350 
Q 2150 -500 1650 -575 
Q 1600 -275 1425 -25 
z
M 4425 1600 
L 4425 2725 
L 3575 2725 
L 3575 1600 
L 4425 1600 
z
M 2100 1975 
L 2100 3025 
L 1225 3025 
L 1225 1975 
L 2100 1975 
z
M 2100 3400 
L 2100 4425 
L 1225 4425 
L 1225 3400 
L 2100 3400 
z
" transform="scale(0.015625)"/>
      <path id="SimHei-58c1" d="M 2875 4925 
Q 2850 4575 2850 4250 
Q 2850 3950 2875 3625 
L 1175 3625 
Q 1150 3375 1100 3150 
L 2950 3150 
Q 2925 2850 2925 2475 
Q 2925 2100 2950 1725 
L 1075 1725 
Q 1100 2025 1100 2225 
L 1100 3075 
Q 950 2450 575 1875 
Q 475 2000 200 2150 
Q 500 2625 625 3025 
Q 750 3425 762 3937 
Q 775 4450 750 4925 
L 2875 4925 
z
M 3000 1000 
Q 3000 1350 2975 1650 
L 3475 1650 
Q 3450 1200 3450 1000 
L 4450 1000 
Q 4850 1000 5225 1050 
L 5225 575 
Q 4850 600 4450 600 
L 3450 600 
L 3450 -50 
L 5125 -50 
Q 5575 -50 5925 -25 
L 5925 -475 
Q 5625 -450 5150 -450 
L 1325 -450 
Q 825 -450 475 -475 
L 475 -25 
Q 825 -50 1325 -50 
L 3000 -50 
L 3000 600 
L 2025 600 
Q 1550 600 1150 575 
L 1150 1050 
Q 1550 1000 2025 1000 
L 3000 1000 
z
M 4050 4225 
Q 4200 3950 4375 3600 
Q 4175 3550 3975 3400 
L 4650 3400 
Q 4825 3850 4925 4275 
L 3950 4275 
Q 3575 4275 3225 4250 
L 3225 4700 
Q 3575 4675 3800 4675 
L 4175 4675 
Q 4125 4900 4050 5175 
Q 4325 5225 4550 5275 
Q 4600 5000 4675 4675 
L 5175 4675 
Q 5400 4675 5775 4700 
L 5775 4250 
Q 5475 4275 5000 4275 
Q 5275 4150 5450 4050 
Q 5325 3950 5225 3750 
Q 5125 3550 5075 3400 
L 5250 3400 
Q 5650 3400 5925 3425 
L 5925 3025 
Q 5650 3050 5250 3050 
L 4700 3050 
L 4700 2475 
L 5050 2475 
Q 5400 2475 5775 2500 
L 5775 2100 
Q 5425 2125 5075 2125 
L 4700 2125 
Q 4700 1775 4725 1450 
L 4250 1450 
Q 4275 1750 4275 2125 
L 3975 2125 
Q 3600 2125 3250 2100 
L 3250 2500 
Q 3600 2475 3975 2475 
L 4275 2475 
L 4275 3050 
L 3900 3050 
Q 3550 3050 3175 3025 
L 3175 3425 
Q 3525 3400 3925 3400 
Q 3825 3700 3625 4025 
Q 3825 4075 4050 4225 
z
M 2450 3975 
L 2450 4575 
L 1225 4575 
L 1225 3975 
L 2450 3975 
z
M 2525 2100 
L 2525 2800 
L 1525 2800 
L 1525 2100 
L 2525 2100 
z
" transform="scale(0.015625)"/>
     </defs>
     <use xlink:href="#SimHei-7ec6"/>
     <use xlink:href="#SimHei-80de" transform="translate(100 0)"/>
     <use xlink:href="#SimHei-58c1" transform="translate(200 0)"/>
    </g>
   </g>
   <g id="text_2">
    <!-- 细胞膜 -->
    <g transform="translate(40.133848 215.762226) scale(0.07 -0.07)">
     <defs>
      <path id="SimHei-819c" d="M 5650 2375 
Q 5650 1975 5675 1650 
L 4425 1650 
Q 4400 1400 4375 1100 
L 5200 1100 
Q 5650 1100 6000 1125 
L 6000 725 
Q 5650 750 5200 750 
L 4800 750 
Q 5000 400 5375 137 
Q 5750 -125 6125 -225 
Q 5900 -400 5775 -675 
Q 5125 -325 4800 37 
Q 4475 400 4350 750 
L 4300 750 
Q 4125 300 3787 -37 
Q 3450 -375 2825 -700 
Q 2675 -475 2450 -300 
Q 3050 -75 3362 150 
Q 3675 375 3825 750 
L 3350 750 
Q 2900 750 2475 725 
L 2475 1125 
Q 2900 1100 3350 1100 
L 3925 1100 
Q 3975 1400 3975 1650 
L 2800 1650 
Q 2825 2100 2825 2400 
L 2825 2875 
Q 2825 3275 2800 3575 
L 5675 3575 
Q 5650 3350 5650 2900 
L 5650 2375 
z
M 175 -300 
Q 450 100 575 625 
Q 700 1150 700 1725 
L 700 4000 
Q 700 4450 675 4850 
L 2275 4850 
Q 2250 4475 2250 3950 
L 2250 -25 
Q 2225 -450 1425 -525 
Q 1425 -250 1275 50 
Q 1875 0 1850 175 
L 1850 1475 
L 1150 1475 
Q 1125 1150 1025 587 
Q 925 25 625 -550 
Q 425 -400 175 -300 
z
M 3475 3925 
L 3475 4150 
L 3200 4150 
Q 2875 4150 2575 4125 
L 2575 4525 
Q 2875 4500 3225 4500 
L 3475 4500 
Q 3475 4925 3450 5150 
L 3900 5150 
Q 3875 4925 3875 4500 
L 4600 4500 
Q 4600 4925 4575 5150 
L 5025 5150 
Q 5000 4975 5000 4500 
L 5350 4500 
Q 5600 4500 5925 4525 
L 5925 4125 
Q 5600 4150 5350 4150 
L 5000 4150 
L 5000 3850 
L 5025 3700 
L 4600 3700 
L 4600 4150 
L 3850 4150 
L 3850 3700 
L 3450 3700 
L 3475 3925 
z
M 5225 2775 
L 5225 3225 
L 3250 3225 
L 3250 2775 
L 5225 2775 
z
M 5225 2000 
L 5225 2425 
L 3250 2425 
L 3250 2000 
L 5225 2000 
z
M 1850 3350 
L 1850 4475 
L 1125 4475 
L 1125 3350 
L 1850 3350 
z
M 1850 1850 
L 1850 2975 
L 1125 2975 
L 1125 1850 
L 1850 1850 
z
" transform="scale(0.015625)"/>
     </defs>
     <use xlink:href="#SimHei-7ec6"/>
     <use xlink:href="#SimHei-80de" transform="translate(100 0)"/>
     <use xlink:href="#SimHei-819c" transform="translate(200 0)"/>
    </g>
   </g>
   <g id="text_3">
    <!-- 细胞核 -->
    <g transform="translate(163.556798 223.782073) scale(0.07 -0.07)">
     <defs>
      <path id="SimHei-6838" d="M 1275 4375 
Q 1275 4800 1250 5150 
L 1775 5150 
Q 1750 4850 1750 4375 
L 1750 3825 
Q 2075 3825 2450 3850 
L 2450 3350 
Q 2075 3375 1750 3375 
L 1750 2500 
Q 1800 2550 2050 2725 
Q 2375 2225 2625 1850 
Q 2375 1700 2200 1575 
Q 1950 2025 1750 2350 
L 1750 500 
Q 1750 -25 1775 -550 
L 1250 -550 
Q 1300 0 1275 500 
L 1275 2225 
Q 1025 1625 525 925 
Q 325 1250 200 1400 
Q 475 1675 775 2175 
Q 1075 2675 1250 3375 
Q 875 3375 450 3350 
L 450 3850 
Q 900 3825 1275 3825 
L 1275 4375 
z
M 2725 2650 
Q 2875 2650 3175 2937 
Q 3475 3225 3775 3825 
L 4300 3525 
Q 4100 3400 3912 3175 
Q 3725 2950 3425 2650 
L 4525 2675 
Q 4775 3000 4925 3400 
L 5500 3150 
Q 5375 3075 5150 2725 
Q 4925 2375 4500 1900 
Q 4075 1425 3675 1112 
Q 3275 800 2825 525 
Q 2650 725 2400 925 
Q 2925 1125 3400 1487 
Q 3875 1850 4225 2275 
Q 3825 2275 3525 2250 
Q 3225 2225 2875 2150 
L 2725 2650 
z
M 5950 2050 
Q 5800 1950 5612 1675 
Q 5425 1400 5100 975 
Q 5600 525 5862 250 
Q 6125 -25 6150 -50 
Q 5925 -200 5675 -450 
Q 5525 -225 5312 25 
Q 5100 275 4750 625 
Q 4400 300 4100 87 
Q 3800 -125 3462 -300 
Q 3125 -475 2775 -625 
Q 2650 -375 2400 -175 
Q 3075 25 3600 350 
Q 4125 675 4500 1062 
Q 4875 1450 5087 1775 
Q 5300 2100 5400 2350 
Q 5650 2175 5950 2050 
z
M 3100 3875 
Q 2875 3875 2650 3850 
L 2650 4350 
Q 2975 4300 3325 4300 
L 5200 4300 
Q 5600 4300 6025 4350 
L 6025 3850 
Q 5600 3875 5200 3875 
L 3100 3875 
z
M 4350 5225 
Q 4500 4975 4725 4575 
Q 4350 4425 4225 4325 
Q 4050 4750 3850 5000 
Q 4225 5175 4350 5225 
z
" transform="scale(0.015625)"/>
     </defs>
     <use xlink:href="#SimHei-7ec6"/>
     <use xlink:href="#SimHei-80de" transform="translate(100 0)"/>
     <use xlink:href="#SimHei-6838" transform="translate(200 0)"/>
    </g>
   </g>
   <g id="text_4">
    <!-- 叶绿体 -->
    <g transform="translate(216.027659 151.52109) scale(0.07 -0.07)">
     <defs>
      <path id="SimHei-53f6" d="M 2350 4625 
Q 2325 4100 2325 3600 
L 2325 1475 
Q 2325 950 2350 500 
L 1825 500 
L 1825 1150 
L 875 1150 
L 875 150 
L 350 150 
Q 375 650 375 1125 
L 375 3600 
Q 375 3950 350 4625 
L 2350 4625 
z
M 4150 3200 
L 4150 4450 
Q 4150 4950 4125 5150 
L 4725 5150 
Q 4675 4950 4675 4450 
L 4675 3200 
L 5575 3200 
Q 6050 3200 6175 3225 
L 6175 2725 
Q 6025 2750 5600 2750 
L 4675 2750 
L 4675 275 
Q 4675 -275 4700 -550 
L 4125 -550 
Q 4150 -275 4150 250 
L 4150 2750 
L 3275 2750 
Q 2775 2750 2600 2725 
L 2600 3225 
Q 2775 3200 3250 3200 
L 4150 3200 
z
M 1825 1600 
L 1825 4175 
L 875 4175 
L 875 1600 
L 1825 1600 
z
" transform="scale(0.015625)"/>
      <path id="SimHei-7eff" d="M 3750 3525 
Q 3300 3525 2900 3500 
L 2900 3950 
Q 3275 3900 3725 3900 
L 5050 3900 
L 5100 4500 
L 3525 4500 
Q 3075 4500 2700 4475 
L 2700 4900 
Q 3075 4875 3525 4875 
L 5600 4875 
Q 5500 4050 5425 2925 
Q 5700 2925 6075 2950 
L 6075 2500 
Q 5675 2525 5275 2525 
L 4425 2525 
L 4425 2075 
Q 4600 1700 4775 1500 
Q 4925 1600 5112 1775 
Q 5300 1950 5550 2175 
Q 5700 1975 5900 1725 
Q 5775 1700 5525 1562 
Q 5275 1425 4975 1200 
Q 5175 925 5437 675 
Q 5700 425 6150 300 
Q 5900 -25 5825 -275 
Q 5225 125 4975 462 
Q 4725 800 4425 1325 
L 4425 -75 
Q 4425 -475 4162 -562 
Q 3900 -650 3625 -700 
Q 3550 -400 3425 -150 
Q 3850 -150 3912 -62 
Q 3975 25 3975 225 
L 3975 1050 
Q 3675 750 3350 462 
Q 3025 175 2625 -100 
Q 2450 225 2300 400 
Q 2750 575 3137 875 
Q 3525 1175 3975 1575 
L 3975 2525 
L 3250 2525 
Q 2850 2525 2375 2500 
L 2375 2950 
Q 2875 2925 3250 2925 
L 4975 2925 
L 5025 3525 
L 3750 3525 
z
M 1800 4825 
Q 1625 4600 1400 4137 
Q 1175 3675 850 3150 
L 1675 3150 
Q 1950 3700 2050 4075 
Q 2275 3825 2550 3675 
Q 2375 3550 2137 3137 
Q 1900 2725 1175 1600 
Q 1650 1650 2350 1775 
Q 2325 1500 2300 1325 
Q 1875 1275 1475 1225 
Q 1075 1175 600 1075 
Q 550 1300 450 1525 
Q 700 1625 950 1975 
Q 1200 2325 1475 2775 
Q 1125 2750 900 2725 
Q 675 2700 450 2625 
Q 375 2875 275 3100 
Q 550 3300 825 3912 
Q 1100 4525 1250 5150 
Q 1525 4950 1800 4825 
z
M 2250 725 
Q 2250 475 2275 325 
Q 1975 250 1487 112 
Q 1000 -25 575 -200 
Q 500 50 375 300 
Q 925 375 1325 475 
Q 1725 575 2250 725 
z
M 3050 2175 
Q 3150 2025 3525 1450 
Q 3300 1325 3125 1175 
Q 2950 1525 2650 1900 
Q 2850 2050 3050 2175 
z
" transform="scale(0.015625)"/>
      <path id="SimHei-4f53" d="M 3650 3850 
Q 3650 4750 3625 5125 
L 4125 5125 
Q 4100 4775 4100 3850 
L 5200 3850 
Q 5700 3850 5925 3875 
L 5925 3425 
Q 5700 3450 5200 3450 
L 4525 3450 
Q 4925 1850 6200 1200 
Q 5925 1050 5775 775 
Q 4425 1800 4100 3425 
L 4100 1025 
Q 4825 1025 5050 1050 
L 5050 600 
Q 4825 625 4100 625 
Q 4100 75 4125 -575 
L 3625 -575 
Q 3650 100 3650 625 
Q 3200 625 2700 600 
L 2700 1050 
Q 3200 1025 3650 1025 
L 3650 3450 
Q 3375 1800 2000 650 
Q 1850 875 1550 1025 
Q 2850 1875 3200 3450 
L 2675 3450 
Q 2275 3450 1975 3425 
L 1975 3875 
Q 2275 3850 2675 3850 
L 3650 3850 
z
M 2000 4900 
Q 1825 4675 1525 3775 
L 1525 575 
Q 1525 -200 1550 -550 
L 1050 -550 
Q 1075 -225 1075 550 
L 1075 2900 
Q 950 2625 575 2050 
Q 450 2275 225 2425 
Q 525 2725 925 3612 
Q 1325 4500 1425 5125 
Q 1700 5000 2000 4900 
z
" transform="scale(0.015625)"/>
     </defs>
     <use xlink:href="#SimHei-53f6"/>
     <use xlink:href="#SimHei-7eff" transform="translate(100 0)"/>
     <use xlink:href="#SimHei-4f53" transform="translate(200 0)"/>
    </g>
   </g>
   <g id="text_5">
    <!-- 线粒体 -->
    <g transform="translate(198.461489 78.421019) scale(0.07 -0.07)">
     <defs>
      <path id="SimHei-7ebf" d="M 3450 4300 
Q 3450 4675 3375 5125 
Q 3700 5100 4050 5050 
Q 3975 4900 3950 4562 
Q 3925 4225 3950 3600 
L 4800 3750 
Q 5225 3850 5650 3975 
L 5750 3500 
Q 5325 3450 4875 3375 
L 3975 3200 
Q 3975 2800 4025 2500 
L 5000 2675 
Q 5500 2775 5950 2925 
L 6025 2450 
Q 5575 2375 5075 2275 
L 4100 2100 
Q 4150 1600 4350 1175 
Q 4575 1350 4787 1575 
Q 5000 1800 5175 2075 
Q 5550 1775 5750 1675 
Q 5425 1525 5237 1337 
Q 5050 1150 4625 750 
Q 4925 250 5162 112 
Q 5400 -25 5500 100 
Q 5600 225 5675 625 
Q 5900 450 6200 350 
Q 5775 -750 5275 -537 
Q 4775 -325 4225 450 
Q 3875 175 3537 -62 
Q 3200 -300 2700 -550 
Q 2575 -300 2325 -100 
Q 2825 75 3175 275 
Q 3525 475 3975 850 
Q 3750 1350 3650 2025 
Q 2900 1900 2600 1800 
L 2525 2275 
Q 2825 2275 3550 2425 
Q 3500 2825 3500 3100 
Q 2825 2950 2575 2875 
L 2475 3350 
Q 2725 3350 3450 3500 
L 3450 4300 
z
M 1950 4875 
Q 1700 4650 1462 4237 
Q 1225 3825 825 3225 
Q 1425 3250 1650 3250 
Q 1875 3625 2050 4075 
Q 2300 3900 2600 3800 
Q 2350 3550 2087 3125 
Q 1825 2700 1175 1675 
Q 1850 1725 2375 1775 
Q 2300 1525 2300 1350 
Q 2125 1350 1525 1287 
Q 925 1225 550 1125 
Q 525 1375 400 1650 
Q 700 1725 950 2050 
Q 1200 2375 1475 2875 
Q 650 2825 425 2675 
Q 350 2950 200 3225 
Q 525 3450 825 3962 
Q 1125 4475 1375 5150 
Q 1625 4975 1950 4875 
z
M 2575 875 
Q 2550 600 2575 450 
Q 1950 325 1450 200 
Q 950 75 525 -75 
Q 450 200 250 475 
Q 950 550 1325 612 
Q 1700 675 2575 875 
z
M 4850 4025 
Q 4675 4300 4375 4675 
L 4775 4875 
Q 4875 4750 5275 4275 
Q 5025 4175 4850 4025 
z
" transform="scale(0.015625)"/>
      <path id="SimHei-7c92" d="M 225 575 
Q 625 1075 925 1612 
Q 1225 2150 1375 2650 
Q 750 2650 300 2625 
L 300 3075 
Q 850 3050 1225 3050 
L 1450 3050 
L 1450 4475 
Q 1450 4625 1425 5200 
L 1925 5200 
Q 1900 4650 1900 4450 
L 1900 3050 
L 2150 3050 
Q 2350 3050 2950 3075 
L 2950 2625 
Q 2350 2650 2125 2650 
L 1900 2650 
L 1900 175 
Q 1900 -25 1925 -625 
L 1425 -625 
Q 1450 -25 1450 175 
L 1450 1700 
Q 1200 1100 675 300 
Q 425 475 225 575 
z
M 5700 3025 
Q 5525 2625 5375 1975 
Q 5225 1325 4875 125 
L 5600 125 
Q 5825 125 6175 150 
L 6175 -300 
Q 5850 -275 5600 -275 
L 3325 -275 
Q 3150 -275 2625 -300 
L 2625 150 
Q 3125 125 3275 125 
L 4400 125 
Q 4875 1600 5100 3200 
Q 5425 3100 5700 3025 
z
M 5375 3975 
Q 5650 3975 5950 4000 
L 5950 3550 
Q 5600 3575 5350 3575 
L 3475 3575 
Q 3225 3575 2950 3550 
L 2950 4000 
Q 3225 3975 3475 3975 
L 5375 3975 
z
M 3625 2950 
Q 3825 2225 3975 1687 
Q 4125 1150 4225 625 
Q 3975 575 3750 475 
Q 3625 1100 3525 1550 
Q 3425 2000 3175 2800 
Q 3400 2850 3625 2950 
z
M 2325 2300 
Q 2750 1800 3100 1350 
Q 2875 1175 2700 1025 
Q 2400 1525 1975 2000 
Q 2200 2125 2325 2300 
z
M 4200 5225 
Q 4500 4725 4725 4225 
Q 4425 4125 4250 4025 
Q 4075 4475 3725 5025 
Q 4000 5125 4200 5225 
z
M 2425 3300 
Q 2250 3425 2025 3500 
Q 2250 3875 2525 4675 
Q 2725 4575 2975 4475 
Q 2800 4150 2700 3912 
Q 2600 3675 2425 3300 
z
M 700 4625 
Q 975 4075 1250 3500 
Q 975 3400 825 3300 
Q 675 3725 275 4400 
Q 500 4500 700 4625 
z
" transform="scale(0.015625)"/>
     </defs>
     <use xlink:href="#SimHei-7ebf"/>
     <use xlink:href="#SimHei-7c92" transform="translate(100 0)"/>
     <use xlink:href="#SimHei-4f53" transform="translate(200 0)"/>
    </g>
   </g>
   <g id="text_6">
    <!-- 液泡 -->
    <g transform="translate(149.303544 42.678344) scale(0.07 -0.07)">
     <defs>
      <path id="SimHei-6db2" d="M 4800 3775 
Q 4625 3575 4500 3250 
L 5950 3250 
Q 5825 2550 5587 1737 
Q 5350 925 5025 500 
Q 5600 0 6200 -150 
Q 5875 -375 5800 -600 
Q 5175 -275 4700 175 
Q 4300 -200 3675 -600 
Q 3525 -375 3175 -200 
Q 3875 25 4400 525 
Q 4100 875 3725 1725 
Q 3650 1575 3500 1325 
Q 3325 1525 3100 1700 
Q 3375 1975 3725 2700 
Q 4075 3425 4200 3950 
Q 4450 3850 4800 3775 
z
M 3600 3725 
Q 3475 3600 3337 3337 
Q 3200 3075 2975 2675 
L 2975 250 
Q 2975 -100 3000 -625 
L 2475 -625 
Q 2500 -25 2500 325 
L 2500 2100 
Q 2300 1825 2000 1475 
Q 1875 1650 1625 1850 
Q 1925 2100 2200 2450 
Q 2475 2800 2712 3225 
Q 2950 3650 3025 3925 
Q 3350 3775 3600 3725 
z
M 4275 5300 
Q 4400 4975 4500 4550 
L 5275 4550 
Q 5650 4550 6100 4600 
L 6100 4125 
Q 5750 4150 5275 4150 
L 3025 4150 
Q 2625 4150 2175 4100 
L 2175 4600 
Q 2500 4550 2875 4550 
L 3925 4550 
Q 3875 4850 3725 5175 
Q 4025 5225 4275 5300 
z
M 4025 2200 
Q 4300 1400 4700 850 
Q 5125 1375 5375 2825 
L 4300 2825 
Q 4150 2475 4025 2200 
z
M 1550 1600 
Q 1325 875 1175 287 
Q 1025 -300 925 -625 
Q 650 -450 300 -375 
Q 500 -50 687 450 
Q 875 950 1100 1925 
Q 1325 1725 1550 1600 
z
M 550 3500 
Q 1200 3150 1625 2925 
Q 1400 2650 1300 2450 
Q 875 2725 275 3050 
Q 425 3300 550 3500 
z
M 975 5025 
Q 1400 4675 1950 4275 
Q 1775 4100 1600 3850 
Q 1175 4250 675 4625 
Q 850 4825 975 5025 
z
M 4850 2500 
Q 4925 2150 4975 1750 
Q 4700 1725 4525 1675 
Q 4475 2100 4400 2425 
Q 4575 2475 4850 2500 
z
" transform="scale(0.015625)"/>
      <path id="SimHei-6ce1" d="M 6200 325 
Q 6100 -250 5887 -375 
Q 5675 -500 5400 -475 
L 3325 -475 
Q 2650 -500 2625 125 
L 2625 3100 
Q 2525 2950 2325 2675 
Q 2125 2925 1825 2975 
Q 2200 3300 2625 4100 
Q 3050 4900 3075 5300 
Q 3375 5175 3725 5100 
Q 3550 4950 3325 4350 
L 5775 4350 
Q 5775 3875 5762 3175 
Q 5750 2475 5737 1887 
Q 5725 1300 5537 1150 
Q 5350 1000 4875 875 
Q 4850 1125 4625 1400 
Q 4875 1425 5037 1462 
Q 5200 1500 5237 2025 
Q 5275 2550 5275 3975 
L 3150 3975 
Q 2950 3575 2700 3200 
L 4500 3200 
Q 4475 2800 4475 2225 
Q 4475 1675 4500 1325 
L 3100 1325 
L 3100 275 
Q 3075 -100 3475 -75 
L 5350 -75 
Q 5525 -75 5587 50 
Q 5650 175 5650 550 
Q 5900 375 6200 325 
z
M 1900 1625 
Q 1625 1025 1375 400 
Q 1125 -225 1000 -625 
Q 750 -450 400 -300 
Q 625 -75 1012 750 
Q 1400 1575 1475 1950 
Q 1675 1725 1900 1625 
z
M 4000 1700 
L 4000 2800 
L 3100 2800 
L 3100 1700 
L 4000 1700 
z
M 975 4975 
Q 1450 4725 2050 4300 
Q 1825 4100 1700 3850 
Q 1250 4275 675 4575 
Q 825 4750 975 4975 
z
M 1400 2450 
Q 925 2800 300 3125 
Q 450 3275 575 3525 
Q 1325 3125 1675 2900 
Q 1525 2700 1400 2450 
z
" transform="scale(0.015625)"/>
     </defs>
     <use xlink:href="#SimHei-6db2"/>
     <use xlink:href="#SimHei-6ce1" transform="translate(100 0)"/>
    </g>
   </g>
   <g id="text_7">
    <!-- 植物细胞结构 -->
    <g transform="translate(85.922386 16.094531) scale(0.11 -0.11)">
     <defs>
      <path id="SimHei-690d" d="M 4275 5075 
Q 4250 4800 4250 4475 
Q 5625 4475 5950 4500 
L 5950 4050 
Q 5625 4075 4250 4075 
L 4250 3525 
L 5475 3525 
Q 5450 3225 5450 2700 
L 5450 150 
Q 5950 150 6175 175 
L 6175 -275 
Q 5950 -250 5275 -250 
L 2950 -250 
Q 2375 -250 2050 -275 
L 2050 175 
Q 2250 150 2700 150 
L 2700 2700 
Q 2700 3250 2675 3525 
L 3800 3525 
L 3800 4075 
Q 2500 4075 2200 4050 
L 2200 4500 
Q 2475 4475 3800 4475 
Q 3800 4900 3775 5075 
L 4275 5075 
z
M 2050 1725 
Q 1975 1875 1837 2100 
Q 1700 2325 1600 2450 
L 1600 275 
Q 1600 -100 1625 -550 
L 1125 -550 
Q 1150 -100 1150 275 
L 1150 2250 
Q 1025 1975 875 1675 
Q 725 1375 525 1050 
Q 375 1375 200 1575 
Q 450 1850 737 2412 
Q 1025 2975 1050 3425 
Q 675 3425 275 3400 
L 275 3850 
Q 700 3825 1150 3825 
Q 1150 4825 1125 5125 
L 1625 5125 
Q 1600 4825 1600 3825 
Q 2000 3825 2325 3850 
L 2325 3400 
Q 1900 3425 1600 3425 
L 1600 2550 
Q 1775 2625 1950 2775 
Q 2200 2425 2450 2025 
Q 2225 1875 2050 1725 
z
M 5025 2650 
L 5025 3150 
L 3125 3150 
L 3125 2650 
L 5025 2650 
z
M 5025 150 
L 5025 625 
L 3125 625 
L 3125 150 
L 5025 150 
z
M 5025 1000 
L 5025 1475 
L 3125 1475 
L 3125 1000 
L 5025 1000 
z
M 5025 1825 
L 5025 2275 
L 3125 2275 
L 3125 1825 
L 5025 1825 
z
" transform="scale(0.015625)"/>
      <path id="SimHei-7269" d="M 5550 3775 
L 5225 3775 
Q 5175 2925 5062 2312 
Q 4950 1700 4700 1225 
Q 4450 750 4087 337 
Q 3725 -75 3100 -475 
Q 2950 -250 2650 -75 
Q 3275 175 3662 575 
Q 4050 975 4275 1462 
Q 4500 1950 4600 2537 
Q 4700 3125 4750 3775 
L 4325 3775 
Q 4250 3025 3912 2275 
Q 3575 1525 3075 1025 
Q 2925 1250 2600 1350 
Q 3175 1825 3462 2400 
Q 3750 2975 3875 3775 
L 3500 3775 
Q 3175 3125 2950 2800 
Q 2750 2975 2500 3050 
Q 3025 3750 3275 4375 
Q 3525 5000 3575 5275 
Q 3925 5125 4200 5050 
Q 4075 4950 3962 4725 
Q 3850 4500 3725 4200 
L 6075 4200 
Q 5975 3100 5937 1850 
Q 5900 600 5862 225 
Q 5825 -150 5500 -287 
Q 5175 -425 4550 -500 
Q 4525 -225 4300 75 
Q 5025 25 5187 100 
Q 5350 175 5375 525 
L 5550 3775 
z
M 1250 4325 
Q 1100 4125 1025 3700 
L 1600 3700 
L 1600 4525 
Q 1600 4900 1550 5200 
L 2100 5200 
Q 2075 4900 2075 4525 
L 2075 3700 
Q 2325 3700 2650 3725 
L 2650 3275 
Q 2300 3300 2075 3300 
L 2075 2000 
Q 2500 2100 2775 2225 
Q 2775 2000 2800 1775 
Q 2475 1675 2075 1550 
L 2075 375 
Q 2075 -50 2100 -600 
L 1550 -600 
Q 1600 -100 1600 375 
L 1600 1425 
Q 1325 1350 1062 1262 
Q 800 1175 500 1025 
Q 425 1250 250 1575 
Q 700 1625 1600 1850 
L 1600 3300 
L 950 3300 
Q 850 2825 725 2375 
Q 475 2500 225 2500 
Q 450 3025 537 3512 
Q 625 4000 650 4425 
Q 925 4350 1250 4325 
z
" transform="scale(0.015625)"/>
      <path id="SimHei-7ed3" d="M 5725 1925 
Q 5700 1600 5700 1200 
L 5700 350 
Q 5700 -125 5725 -475 
L 5225 -475 
L 5225 0 
L 3525 0 
L 3525 -525 
L 3025 -525 
Q 3050 125 3050 325 
L 3050 1250 
Q 3050 1550 3025 1925 
L 5725 1925 
z
M 1900 4850 
Q 1700 4600 1475 4200 
Q 1250 3800 925 3200 
Q 1475 3225 1725 3225 
Q 1950 3625 2100 4000 
Q 2350 3825 2650 3675 
Q 2525 3575 2212 3125 
Q 1900 2675 1225 1650 
Q 2050 1775 2525 1850 
Q 2450 1575 2450 1375 
Q 2225 1350 1650 1275 
Q 1075 1200 525 1050 
Q 425 1300 350 1550 
Q 650 1625 950 2012 
Q 1250 2400 1475 2825 
Q 1300 2825 962 2787 
Q 625 2750 375 2675 
Q 300 2925 225 3150 
Q 500 3375 812 3925 
Q 1125 4475 1300 5125 
Q 1600 4975 1900 4850 
z
M 4075 4175 
Q 4075 4600 4050 5175 
L 4575 5175 
Q 4550 4725 4550 4175 
L 5275 4175 
Q 5750 4175 6150 4200 
L 6150 3750 
Q 5750 3775 5300 3775 
L 4550 3775 
L 4550 2950 
L 5125 2950 
Q 5475 2950 5825 2975 
L 5825 2525 
Q 5525 2550 5100 2550 
L 3650 2550 
Q 3225 2550 2900 2525 
L 2900 2975 
Q 3225 2950 3600 2950 
L 4075 2950 
L 4075 3775 
L 3525 3775 
Q 3075 3775 2675 3750 
L 2675 4200 
Q 3000 4175 3475 4175 
L 4075 4175 
z
M 5225 400 
L 5225 1525 
L 3525 1525 
L 3525 400 
L 5225 400 
z
M 2575 650 
Q 2500 425 2525 175 
Q 2050 100 1450 0 
Q 850 -100 425 -225 
Q 325 100 225 350 
Q 750 375 1175 437 
Q 1600 500 2575 650 
z
" transform="scale(0.015625)"/>
      <path id="SimHei-6784" d="M 2250 1625 
Q 2050 2100 1825 2475 
L 1825 575 
Q 1825 50 1850 -500 
L 1325 -500 
Q 1350 75 1350 575 
L 1350 2375 
Q 1075 1750 525 1000 
Q 375 1200 175 1400 
Q 625 1900 912 2512 
Q 1200 3125 1250 3500 
Q 850 3500 475 3475 
L 475 3925 
Q 850 3900 1350 3900 
L 1350 4475 
Q 1350 4850 1325 5150 
L 1850 5150 
Q 1825 4900 1825 4475 
L 1825 3900 
Q 2150 3900 2525 3925 
L 2525 3475 
Q 2150 3500 1825 3500 
L 1825 2525 
Q 2025 2625 2225 2750 
Q 2475 2300 2700 1875 
Q 2475 1775 2250 1625 
z
M 4000 5050 
Q 3875 4875 3762 4625 
Q 3650 4375 3550 4125 
L 6025 4125 
Q 6000 3750 5975 3200 
Q 5975 1675 5875 350 
Q 5775 -200 5462 -337 
Q 5150 -475 4500 -525 
Q 4450 -250 4300 50 
Q 4825 25 5100 75 
Q 5375 125 5425 725 
Q 5525 2125 5500 3700 
L 3375 3700 
Q 3150 3200 2875 2750 
Q 2675 2900 2450 2975 
Q 2825 3525 3075 4150 
Q 3325 4775 3425 5250 
Q 3725 5100 4000 5050 
z
M 4450 1050 
Q 4175 1025 3662 950 
Q 3150 875 2800 725 
Q 2700 1025 2575 1300 
Q 2725 1350 2925 1675 
Q 3125 2000 3250 2337 
Q 3375 2675 3500 3150 
Q 3800 3025 4075 2875 
Q 3925 2725 3637 2162 
Q 3350 1600 3175 1350 
Q 3725 1375 4375 1425 
Q 4275 1775 4125 2175 
L 4625 2325 
Q 4775 1900 4900 1525 
Q 5025 1150 5075 800 
Q 4800 750 4550 650 
Q 4500 875 4450 1050 
z
" transform="scale(0.015625)"/>
     </defs>
     <use xlink:href="#SimHei-690d"/>
     <use xlink:href="#SimHei-7269" transform="translate(100 0)"/>
     <use xlink:href="#SimHei-7ec6" transform="translate(200 0)"/>
     <use xlink:href="#SimHei-80de" transform="translate(300 0)"/>
     <use xlink:href="#SimHei-7ed3" transform="translate(400 0)"/>
     <use xlink:href="#SimHei-6784" transform="translate(500 0)"/>
    </g>
   </g>
  </g>
  <g id="axes_2">
   <g id="patch_8">
    <path d="M 365.522389 44.439009 
C 341.826984 44.439009 319.077844 53.862011 302.322663 70.617192 
C 285.567482 87.372373 276.144479 110.121513 276.144479 133.816918 
L 365.522389 133.816918 
z
" style="fill: #ff9800"/>
   </g>
   <g id="patch_9">
    <path d="M 276.144479 133.816925 
C 276.144479 157.512328 285.567492 180.261475 302.322675 197.016653 
C 319.077857 213.77183 341.826986 223.194827 365.52239 223.194827 
L 365.522389 133.816918 
z
" style="fill: #9c27b0"/>
   </g>
   <g id="patch_10">
    <path d="M 365.52239 223.194827 
C 384.39422 223.194827 402.789796 217.217739 418.057426 206.12515 
C 433.325056 195.03256 444.694119 179.384382 450.525833 161.436206 
L 365.522389 133.816918 
z
" style="fill: #f44336"/>
   </g>
   <g id="patch_11">
    <path d="M 450.525833 161.436206 
C 454.88423 148.022431 456.006274 133.765585 453.799909 119.835153 
C 451.593549 105.904722 446.120806 92.692341 437.830637 81.281902 
L 365.522389 133.816918 
z
" style="fill: #00bcd4"/>
   </g>
   <g id="patch_12">
    <path d="M 437.830637 81.281902 
C 429.540467 69.871462 418.665925 60.583726 406.099099 54.180612 
C 393.532272 47.777497 379.626477 44.439009 365.522401 44.439009 
L 365.522389 133.816918 
z
" style="fill: #ff5722"/>
   </g>
   <g id="matplotlib.axis_3"/>
   <g id="matplotlib.axis_4"/>
   <g id="text_8">
    <!-- 细胞膜 -->
    <g transform="translate(275.00269 66.70347) scale(0.07 -0.07)">
     <use xlink:href="#SimHei-7ec6"/>
     <use xlink:href="#SimHei-80de" transform="translate(100 0)"/>
     <use xlink:href="#SimHei-819c" transform="translate(200 0)"/>
    </g>
   </g>
   <g id="text_9">
    <!-- 细胞核 -->
    <g transform="translate(275.002702 205.701862) scale(0.07 -0.07)">
     <use xlink:href="#SimHei-7ec6"/>
     <use xlink:href="#SimHei-80de" transform="translate(100 0)"/>
     <use xlink:href="#SimHei-6838" transform="translate(200 0)"/>
    </g>
   </g>
   <g id="text_10">
    <!-- 线粒体 -->
    <g transform="translate(423.310928 215.748552) scale(0.07 -0.07)">
     <use xlink:href="#SimHei-7ebf"/>
     <use xlink:href="#SimHei-7c92" transform="translate(100 0)"/>
     <use xlink:href="#SimHei-4f53" transform="translate(200 0)"/>
    </g>
   </g>
   <g id="text_11">
    <!-- 内质网 -->
    <g transform="translate(462.627655 120.747477) scale(0.07 -0.07)">
     <defs>
      <path id="SimHei-5185" d="M 1425 1300 
Q 2175 1825 2537 2375 
Q 2900 2925 2925 3750 
L 1225 3750 
L 1225 -500 
L 650 -500 
Q 700 0 700 350 
L 700 3125 
Q 700 3625 675 4175 
L 2950 4175 
Q 2950 4850 2925 5175 
Q 3325 5150 3550 5150 
Q 3425 4825 3425 4175 
L 5775 4175 
Q 5725 3650 5725 3125 
L 5725 75 
Q 5725 -300 5425 -387 
Q 5125 -475 4600 -550 
Q 4525 -300 4250 0 
Q 4850 0 5025 37 
Q 5200 75 5200 275 
L 5200 3750 
L 3400 3750 
Q 3400 3300 3325 2875 
Q 3550 2700 4125 2262 
Q 4700 1825 4950 1575 
Q 4675 1350 4525 1175 
Q 4100 1675 3175 2425 
Q 2725 1650 2000 975 
Q 1700 1225 1425 1300 
z
" transform="scale(0.015625)"/>
      <path id="SimHei-8d28" d="M 1700 3700 
Q 2125 3675 2550 3675 
L 3400 3675 
L 3400 4325 
Q 1875 4250 1575 4250 
L 1575 3675 
Q 1550 2525 1525 1962 
Q 1500 1400 1387 837 
Q 1275 275 875 -450 
Q 650 -300 300 -225 
Q 700 300 850 862 
Q 1000 1425 1037 2325 
Q 1075 3225 1075 3725 
Q 1075 4250 1050 4650 
Q 1775 4650 2437 4675 
Q 3100 4700 3900 4775 
Q 4700 4850 5275 5075 
Q 5325 4825 5600 4500 
Q 5300 4500 4912 4462 
Q 4525 4425 3875 4375 
L 3875 3675 
L 5125 3675 
Q 5475 3675 5900 3700 
L 5900 3225 
Q 5525 3250 5125 3250 
L 3875 3250 
L 3875 2600 
L 5425 2600 
Q 5400 2175 5400 1750 
Q 5400 1325 5425 900 
L 4900 900 
L 4900 2200 
L 2575 2200 
L 2575 750 
L 2075 750 
Q 2100 1225 2100 1700 
Q 2100 2175 2075 2600 
L 3400 2600 
L 3400 3250 
L 2550 3250 
Q 2125 3250 1700 3225 
L 1700 3700 
z
M 4000 1800 
Q 3900 1400 3837 912 
Q 3775 425 3262 25 
Q 2750 -375 1875 -650 
Q 1825 -450 1525 -250 
Q 2225 -75 2637 150 
Q 3050 375 3225 687 
Q 3400 1000 3425 1350 
Q 3450 1700 3425 1875 
Q 3725 1850 4000 1800 
z
M 4250 850 
Q 4650 650 5137 375 
Q 5625 100 6000 -175 
Q 5850 -300 5675 -575 
Q 5125 -125 4000 425 
Q 4150 675 4250 850 
z
" transform="scale(0.015625)"/>
      <path id="SimHei-7f51" d="M 5875 4900 
Q 5825 4575 5825 3975 
L 5825 0 
Q 5825 -400 5537 -462 
Q 5250 -525 4775 -600 
Q 4725 -350 4525 -50 
Q 5025 -75 5175 -25 
Q 5325 25 5325 250 
L 5325 4475 
L 1100 4475 
L 1100 -600 
L 550 -600 
Q 600 -100 600 250 
L 600 3975 
Q 600 4375 550 4900 
L 5875 4900 
z
M 3675 3525 
Q 4050 2800 4175 2600 
Q 4475 3625 4550 4050 
Q 4825 3900 5100 3775 
Q 4975 3600 4825 3150 
Q 4675 2700 4450 2100 
Q 4725 1575 5125 875 
Q 4850 800 4625 675 
L 4175 1575 
Q 4000 1225 3825 962 
Q 3650 700 3350 300 
Q 3175 500 2850 575 
Q 3075 800 3337 1125 
Q 3600 1450 3925 2075 
Q 3575 2800 3200 3300 
Q 3400 3375 3675 3525 
z
M 1725 3800 
Q 1875 3525 2037 3237 
Q 2200 2950 2375 2675 
Q 2675 3675 2725 4050 
Q 3000 3950 3325 3850 
Q 3175 3675 3050 3312 
Q 2925 2950 2650 2200 
Q 2875 1850 3200 1300 
Q 2950 1150 2775 975 
Q 2525 1500 2400 1700 
Q 1950 775 1600 325 
Q 1400 500 1175 575 
Q 1575 1000 2150 2175 
Q 1550 3250 1250 3600 
Q 1475 3700 1725 3800 
z
" transform="scale(0.015625)"/>
     </defs>
     <use xlink:href="#SimHei-5185"/>
     <use xlink:href="#SimHei-8d28" transform="translate(100 0)"/>
     <use xlink:href="#SimHei-7f51" transform="translate(200 0)"/>
    </g>
   </g>
   <g id="text_12">
    <!-- 高尔基体 -->
    <g transform="translate(410.156811 48.554893) scale(0.07 -0.07)">
     <defs>
      <path id="SimHei-9ad8" d="M 5825 -25 
Q 5850 -400 5550 -500 
Q 5250 -600 4975 -625 
Q 4875 -325 4725 -100 
Q 4975 -100 5175 -87 
Q 5375 -75 5350 250 
L 5350 1825 
L 1100 1825 
L 1100 -575 
L 600 -575 
Q 625 -225 625 850 
Q 625 1950 600 2200 
L 5850 2200 
Q 5825 1850 5825 1425 
L 5825 -25 
z
M 4925 3800 
Q 4900 3475 4900 3175 
Q 4900 2900 4925 2600 
L 1400 2600 
Q 1425 2825 1425 3175 
Q 1425 3525 1400 3800 
L 4925 3800 
z
M 4500 1400 
Q 4475 1125 4475 800 
Q 4475 500 4500 200 
L 1950 200 
Q 2000 500 2000 800 
Q 2000 1125 1950 1400 
L 4500 1400 
z
M 425 4600 
Q 750 4575 1125 4575 
L 2925 4575 
Q 2850 4875 2750 5100 
Q 3050 5125 3350 5200 
Q 3400 4950 3525 4575 
L 5250 4575 
Q 5600 4575 5975 4600 
L 5975 4150 
Q 5600 4175 5050 4175 
L 1150 4175 
Q 750 4175 425 4150 
L 425 4600 
z
M 4450 2975 
L 4450 3425 
L 1900 3425 
L 1900 2975 
L 4450 2975 
z
M 4025 550 
L 4025 1050 
L 2400 1050 
L 2400 550 
L 4025 550 
z
" transform="scale(0.015625)"/>
      <path id="SimHei-5c14" d="M 4825 2900 
Q 5025 3250 5175 3650 
L 1875 3650 
Q 1375 3025 925 2600 
Q 800 2800 525 2950 
Q 1150 3425 1600 4162 
Q 2050 4900 2200 5250 
Q 2575 5050 2700 5025 
Q 2450 4625 2125 4100 
L 5925 4100 
Q 5550 3225 5325 2725 
Q 5050 2850 4825 2900 
z
M 3550 3225 
Q 3525 2850 3525 2500 
L 3525 375 
Q 3525 -225 3225 -387 
Q 2925 -550 2350 -625 
Q 2300 -350 2125 -25 
Q 2725 -50 2862 25 
Q 3000 100 3000 375 
L 3000 2450 
Q 3000 2825 2975 3225 
L 3550 3225 
z
M 4575 2300 
Q 5550 1125 6100 475 
Q 5875 350 5625 100 
Q 4625 1475 4175 1950 
Q 4400 2125 4575 2300 
z
M 2325 2025 
Q 2125 1800 1737 1300 
Q 1350 800 725 125 
Q 625 325 325 525 
Q 675 800 1100 1312 
Q 1525 1825 1850 2400 
Q 2125 2125 2325 2025 
z
" transform="scale(0.015625)"/>
      <path id="SimHei-57fa" d="M 1800 4550 
Q 1800 4900 1775 5200 
L 2300 5200 
Q 2275 4875 2275 4550 
L 4075 4550 
Q 4075 4900 4050 5200 
L 4575 5200 
Q 4550 4875 4550 4550 
L 4925 4550 
Q 5200 4550 5625 4575 
L 5625 4175 
Q 5200 4200 4925 4200 
L 4550 4200 
L 4550 2225 
L 5100 2225 
Q 5600 2225 6025 2250 
L 6025 1800 
Q 5625 1850 5125 1850 
L 4500 1850 
Q 4875 1450 5225 1237 
Q 5575 1025 6125 900 
Q 5900 625 5850 350 
Q 5200 650 4737 1037 
Q 4275 1425 4000 1850 
L 2500 1850 
Q 2200 1375 1712 1000 
Q 1225 625 550 350 
Q 475 575 275 825 
Q 700 925 1212 1212 
Q 1725 1500 1950 1850 
L 1300 1850 
Q 850 1850 400 1800 
L 400 2250 
Q 850 2225 1300 2225 
L 1800 2225 
L 1800 4200 
Q 1200 4200 775 4175 
L 775 4575 
Q 1200 4550 1625 4550 
L 1800 4550 
z
M 2950 950 
Q 2950 1200 2925 1575 
L 3475 1575 
Q 3425 1300 3425 950 
L 3900 950 
Q 4250 950 4575 975 
L 4575 500 
Q 4250 550 3875 550 
L 3425 550 
L 3425 -100 
L 4500 -100 
Q 5075 -100 5550 -75 
L 5550 -525 
Q 5075 -500 4500 -500 
L 1800 -500 
Q 1300 -500 850 -525 
L 850 -75 
Q 1275 -100 1800 -100 
L 2950 -100 
L 2950 550 
L 2550 550 
Q 2125 550 1775 525 
L 1775 975 
Q 2125 950 2500 950 
L 2950 950 
z
M 4075 2225 
L 4075 2650 
L 2275 2650 
L 2275 2225 
L 4075 2225 
z
M 4075 3775 
L 4075 4200 
L 2275 4200 
L 2275 3775 
L 4075 3775 
z
M 4075 3025 
L 4075 3375 
L 2275 3375 
L 2275 3025 
L 4075 3025 
z
" transform="scale(0.015625)"/>
     </defs>
     <use xlink:href="#SimHei-9ad8"/>
     <use xlink:href="#SimHei-5c14" transform="translate(100 0)"/>
     <use xlink:href="#SimHei-57fa" transform="translate(200 0)"/>
     <use xlink:href="#SimHei-4f53" transform="translate(300 0)"/>
    </g>
   </g>
   <g id="text_13">
    <!-- 动物细胞结构 -->
    <g transform="translate(332.522389 16.094531) scale(0.11 -0.11)">
     <defs>
      <path id="SimHei-52a8" d="M 4125 5150 
Q 4425 5075 4700 5075 
Q 4650 4825 4637 4512 
Q 4625 4200 4625 3750 
L 6025 3750 
Q 6000 3425 5975 3025 
L 5850 175 
Q 5775 -325 5437 -437 
Q 5100 -550 4675 -600 
Q 4600 -300 4425 -50 
Q 4975 -75 5175 12 
Q 5375 100 5375 350 
L 5525 3325 
L 4625 3325 
Q 4575 2225 4462 1650 
Q 4350 1075 4112 587 
Q 3875 100 3150 -675 
Q 2900 -425 2700 -350 
Q 3175 25 3475 437 
Q 3775 850 3900 1287 
Q 4025 1725 4075 2200 
Q 4125 2675 4150 3325 
L 3725 3325 
Q 3450 3325 3075 3300 
L 3075 3775 
Q 3450 3750 3775 3750 
L 4150 3750 
L 4150 4450 
Q 4150 4800 4125 5150 
z
M 275 3025 
Q 650 3000 1175 3000 
L 2125 3000 
Q 2575 3000 3150 3025 
L 3150 2575 
Q 2575 2600 2150 2600 
L 1875 2600 
Q 1725 2200 1537 1750 
Q 1350 1300 1100 850 
Q 2075 950 2575 1050 
Q 2450 1350 2175 1800 
Q 2450 1950 2575 2050 
Q 2825 1600 3000 1287 
Q 3175 975 3375 525 
Q 3175 400 2925 275 
Q 2825 500 2750 650 
Q 1950 525 1462 450 
Q 975 375 625 250 
Q 525 500 375 725 
Q 700 925 962 1525 
Q 1225 2125 1350 2600 
L 1175 2600 
Q 650 2600 275 2575 
L 275 3025 
z
M 2000 4425 
Q 2425 4425 2950 4450 
L 2950 3975 
Q 2425 4000 2000 4000 
L 1400 4000 
Q 1000 4000 625 3975 
L 625 4450 
Q 975 4425 1375 4425 
L 2000 4425 
z
" transform="scale(0.015625)"/>
     </defs>
     <use xlink:href="#SimHei-52a8"/>
     <use xlink:href="#SimHei-7269" transform="translate(100 0)"/>
     <use xlink:href="#SimHei-7ec6" transform="translate(200 0)"/>
     <use xlink:href="#SimHei-80de" transform="translate(300 0)"/>
     <use xlink:href="#SimHei-7ed3" transform="translate(400 0)"/>
     <use xlink:href="#SimHei-6784" transform="translate(500 0)"/>
    </g>
   </g>
  </g>
 </g>
</svg>
