<?xml version="1.0" encoding="utf-8" standalone="no"?>
<!DOCTYPE svg PUBLIC "-//W3C//DTD SVG 1.1//EN"
  "http://www.w3.org/Graphics/SVG/1.1/DTD/svg11.dtd">
<svg xmlns:xlink="http://www.w3.org/1999/xlink" width="648.583906pt" height="276.062313pt" viewBox="0 0 648.583906 276.062313" xmlns="http://www.w3.org/2000/svg" version="1.1">
 <metadata>
  <rdf:RDF xmlns:dc="http://purl.org/dc/elements/1.1/" xmlns:cc="http://creativecommons.org/ns#" xmlns:rdf="http://www.w3.org/1999/02/22-rdf-syntax-ns#">
   <cc:Work>
    <dc:type rdf:resource="http://purl.org/dc/dcmitype/StillImage"/>
    <dc:date>2026-05-22T22:24:24.213825</dc:date>
    <dc:format>image/svg+xml</dc:format>
    <dc:creator>
     <cc:Agent>
      <dc:title>Matplotlib v3.10.9, https://matplotlib.org/</dc:title>
     </cc:Agent>
    </dc:creator>
   </cc:Work>
  </rdf:RDF>
 </metadata>
 <defs>
  <style type="text/css">*{stroke-linejoin: round; stroke-linecap: butt}</style>
 </defs>
 <g id="figure_1">
  <g id="patch_1">
   <path d="M 0 276.062313 
L 648.583906 276.062313 
L 648.583906 0 
L 0 0 
z
" style="fill: #ffffff"/>
  </g>
  <g id="axes_1">
   <g id="patch_2">
    <path d="M 45.223906 241.56 
L 220.565083 241.56 
L 220.565083 45 
L 45.223906 45 
z
" style="fill: #ffffff"/>
   </g>
   <g id="patch_3">
    <path d="M 53.19396 241.56 
L 89.978822 241.56 
L 89.978822 84.312 
L 53.19396 84.312 
z
" clip-path="url(#paf3b231459)" style="fill: #27ae60; opacity: 0.85; stroke: #ffffff; stroke-linejoin: miter"/>
   </g>
   <g id="patch_4">
    <path d="M 114.502063 241.56 
L 151.286926 241.56 
L 151.286926 84.312 
L 114.502063 84.312 
z
" clip-path="url(#paf3b231459)" style="fill: #27ae60; opacity: 0.85; stroke: #ffffff; stroke-linejoin: miter"/>
   </g>
   <g id="patch_5">
    <path d="M 175.810167 241.56 
L 212.595029 241.56 
L 212.595029 123.624 
L 175.810167 123.624 
z
" clip-path="url(#paf3b231459)" style="fill: #27ae60; opacity: 0.85; stroke: #ffffff; stroke-linejoin: miter"/>
   </g>
   <g id="patch_6">
    <path d="M 53.19396 84.312 
L 89.978822 84.312 
L 89.978822 84.312 
L 53.19396 84.312 
z
" clip-path="url(#paf3b231459)" style="fill: #e67e22; opacity: 0.85; stroke: #ffffff; stroke-linejoin: miter"/>
   </g>
   <g id="patch_7">
    <path d="M 114.502063 84.312 
L 151.286926 84.312 
L 151.286926 84.312 
L 114.502063 84.312 
z
" clip-path="url(#paf3b231459)" style="fill: #e67e22; opacity: 0.85; stroke: #ffffff; stroke-linejoin: miter"/>
   </g>
   <g id="patch_8">
    <path d="M 175.810167 123.624 
L 212.595029 123.624 
L 212.595029 84.312 
L 175.810167 84.312 
z
" clip-path="url(#paf3b231459)" style="fill: #e67e22; opacity: 0.85; stroke: #ffffff; stroke-linejoin: miter"/>
   </g>
   <g id="matplotlib.axis_1">
    <g id="xtick_1">
     <g id="line2d_1">
      <defs>
       <path id="mf84eda4c33" d="M 0 0 
L 0 3.5 
" style="stroke: #000000; stroke-width: 0.8"/>
      </defs>
      <g>
       <use xlink:href="#mf84eda4c33" x="71.586391" y="241.56" style="stroke: #000000; stroke-width: 0.8"/>
      </g>
     </g>
     <g id="text_1">
      <!-- P -->
      <g transform="translate(68.832953 255.754375) scale(0.09 -0.09)">
       <defs>
        <path id="MicrosoftYaHei-50" d="M 1250 1809 
L 1250 0 
L 625 0 
L 625 4841 
L 2000 4841 
Q 2784 4841 3217 4462 
Q 3650 4084 3650 3381 
Q 3650 2669 3144 2226 
Q 2638 1784 1878 1809 
L 1250 1809 
z
M 1250 4291 
L 1250 2359 
L 1828 2359 
Q 2400 2359 2697 2617 
Q 2994 2875 2994 3356 
Q 2994 4291 1888 4291 
L 1250 4291 
z
" transform="scale(0.015625)"/>
       </defs>
       <use xlink:href="#MicrosoftYaHei-50"/>
      </g>
      <!-- 高茎×矮茎 -->
      <g transform="translate(50.248656 266.624969) scale(0.09 -0.09)">
       <defs>
        <path id="MicrosoftYaHei-9ad8" d="M 1194 3922 
L 5250 3922 
L 5250 2397 
L 4775 2397 
L 4775 2597 
L 1669 2597 
L 1669 2403 
L 1194 2403 
L 1194 3922 
z
M 969 -784 
L 494 -784 
L 494 2147 
L 5956 2147 
L 5956 22 
Q 5956 -747 5231 -747 
Q 4825 -747 4319 -734 
Q 4281 -522 4219 -241 
Q 4794 -284 5100 -284 
Q 5481 -284 5481 97 
L 5481 1747 
L 969 1747 
L 969 -784 
z
M 1813 1334 
L 4638 1334 
L 4638 28 
L 2263 28 
L 2263 -241 
L 1813 -241 
L 1813 1334 
z
M 125 4747 
L 2988 4747 
Q 2850 5013 2725 5216 
L 3194 5403 
Q 3372 5094 3541 4747 
L 6275 4747 
L 6275 4334 
L 125 4334 
L 125 4747 
z
M 4775 3534 
L 1669 3534 
L 1669 2984 
L 4775 2984 
L 4775 3534 
z
M 4188 416 
L 4188 947 
L 2263 947 
L 2263 416 
L 4188 416 
z
" transform="scale(0.015625)"/>
        <path id="MicrosoftYaHei-830e" d="M 725 3141 
L 725 3578 
L 5000 3578 
L 5000 3141 
Q 4569 2763 4019 2453 
Q 5241 2159 6288 1859 
L 6094 1366 
Q 4847 1791 3425 2156 
Q 2138 1581 306 1309 
Q 219 1522 88 1766 
Q 2750 2109 4313 3141 
L 725 3141 
z
M 288 -141 
L 2975 -141 
L 2975 834 
L 1175 834 
L 1175 1266 
L 5275 1266 
L 5275 834 
L 3475 834 
L 3475 -141 
L 6150 -141 
L 6150 -578 
L 288 -578 
L 288 -141 
z
M 138 4691 
L 1863 4691 
L 1863 5328 
L 2350 5328 
L 2350 4691 
L 4063 4691 
L 4063 5328 
L 4550 5328 
L 4550 4691 
L 6263 4691 
L 6263 4253 
L 4550 4253 
L 4550 3766 
L 4063 3766 
L 4063 4253 
L 2350 4253 
L 2350 3766 
L 1863 3766 
L 1863 4253 
L 138 4253 
L 138 4691 
z
" transform="scale(0.015625)"/>
        <path id="MicrosoftYaHei-d7" d="M 3856 869 
L 3519 531 
L 2372 1678 
L 1231 531 
L 894 869 
L 2044 2009 
L 894 3156 
L 1231 3491 
L 2372 2344 
L 3522 3491 
L 3856 3153 
L 2709 2009 
L 3856 869 
z
" transform="scale(0.015625)"/>
        <path id="MicrosoftYaHei-77ee" d="M 2125 -409 
Q 3275 -228 3913 109 
Q 3344 359 2738 616 
Q 3019 966 3256 1334 
L 2238 1334 
L 2238 1747 
L 3500 1747 
Q 3656 2009 3781 2284 
L 4031 2184 
L 4031 3209 
Q 3400 2503 2513 2041 
Q 2381 2259 2231 2441 
Q 3081 2797 3744 3428 
L 2350 3428 
L 2350 3841 
L 4031 3841 
L 4031 4466 
Q 3363 4434 2681 4416 
Q 2631 4666 2581 4872 
Q 4281 4897 5813 5016 
L 5913 4559 
Q 5206 4516 4481 4484 
L 4481 3841 
L 6200 3841 
L 6200 3428 
L 4725 3428 
Q 5425 2734 6300 2534 
Q 6106 2297 6000 2084 
Q 5069 2459 4481 3209 
L 4481 2172 
L 4063 2172 
L 4244 2097 
Q 4138 1916 4025 1747 
L 6275 1747 
L 6275 1334 
L 5431 1334 
Q 5200 647 4769 203 
Q 5575 -116 6213 -391 
L 5956 -841 
Q 5219 -478 4394 -103 
Q 3681 -597 2363 -872 
Q 2256 -622 2125 -409 
z
M 106 2566 
L 1075 2566 
L 1075 3928 
L 800 3928 
Q 656 3503 488 3097 
Q 250 3209 69 3272 
Q 456 4134 713 5322 
L 1163 5228 
Q 1063 4784 931 4359 
L 2188 4359 
L 2188 3928 
L 1519 3928 
L 1519 2584 
L 1519 2566 
L 2200 2566 
L 2200 2134 
L 1513 2134 
Q 1494 1753 1456 1447 
Q 2088 753 2463 297 
L 2056 -9 
Q 1738 459 1363 928 
Q 1150 53 419 -822 
Q 256 -609 106 -428 
Q 1038 566 1069 2134 
L 106 2134 
L 106 2566 
z
M 3381 759 
Q 3875 566 4325 384 
Q 4756 753 4950 1334 
L 3763 1334 
Q 3575 1041 3381 759 
z
" transform="scale(0.015625)"/>
       </defs>
       <use xlink:href="#MicrosoftYaHei-9ad8"/>
       <use xlink:href="#MicrosoftYaHei-830e" transform="translate(100 0)"/>
       <use xlink:href="#MicrosoftYaHei-d7" transform="translate(200 0)"/>
       <use xlink:href="#MicrosoftYaHei-77ee" transform="translate(274.169922 0)"/>
       <use xlink:href="#MicrosoftYaHei-830e" transform="translate(374.169922 0)"/>
      </g>
     </g>
    </g>
    <g id="xtick_2">
     <g id="line2d_2">
      <g>
       <use xlink:href="#mf84eda4c33" x="132.894494" y="241.56" style="stroke: #000000; stroke-width: 0.8"/>
      </g>
     </g>
     <g id="text_2">
      <!-- F₁ -->
      <g transform="translate(127.365823 255.754375) scale(0.09 -0.09)">
       <defs>
        <path id="MicrosoftYaHei-46" d="M 3119 4284 
L 1250 4284 
L 1250 2666 
L 2981 2666 
L 2981 2116 
L 1250 2116 
L 1250 0 
L 625 0 
L 625 4841 
L 3119 4841 
L 3119 4284 
z
" transform="scale(0.015625)"/>
        <path id="MicrosoftYaHei-2081" d="M 559 0 
L 559 4719 
L 3900 4719 
L 3900 0 
L 559 0 
z
M 1059 500 
L 3403 500 
L 3403 4219 
L 1059 4219 
L 1059 500 
z
" transform="scale(0.015625)"/>
       </defs>
       <use xlink:href="#MicrosoftYaHei-46"/>
       <use xlink:href="#MicrosoftYaHei-2081" transform="translate(53.125 0)"/>
      </g>
     </g>
    </g>
    <g id="xtick_3">
     <g id="line2d_3">
      <g>
       <use xlink:href="#mf84eda4c33" x="194.202598" y="241.56" style="stroke: #000000; stroke-width: 0.8"/>
      </g>
     </g>
     <g id="text_3">
      <!-- F₂ -->
      <g transform="translate(188.673926 255.754375) scale(0.09 -0.09)">
       <defs>
        <path id="MicrosoftYaHei-2082" d="M 559 0 
L 559 4719 
L 3900 4719 
L 3900 0 
L 559 0 
z
M 1059 500 
L 3403 500 
L 3403 4219 
L 1059 4219 
L 1059 500 
z
" transform="scale(0.015625)"/>
       </defs>
       <use xlink:href="#MicrosoftYaHei-46"/>
       <use xlink:href="#MicrosoftYaHei-2082" transform="translate(53.125 0)"/>
      </g>
     </g>
    </g>
   </g>
   <g id="matplotlib.axis_2">
    <g id="ytick_1">
     <g id="line2d_4">
      <defs>
       <path id="m619775d2cc" d="M 0 0 
L -3.5 0 
" style="stroke: #000000; stroke-width: 0.8"/>
      </defs>
      <g>
       <use xlink:href="#m619775d2cc" x="45.223906" y="241.56" style="stroke: #000000; stroke-width: 0.8"/>
      </g>
     </g>
     <g id="text_4">
      <!-- 0 -->
      <g transform="translate(32.359844 245.556875) scale(0.1 -0.1)">
       <defs>
        <path id="MicrosoftYaHei-30" d="M 284 2325 
Q 284 3606 709 4264 
Q 1134 4922 1941 4922 
Q 3478 4922 3478 2441 
Q 3478 1216 3045 567 
Q 2613 -81 1831 -81 
Q 1094 -81 689 534 
Q 284 1150 284 2325 
z
M 909 2353 
Q 909 425 1888 425 
Q 2850 425 2850 2384 
Q 2850 4413 1906 4413 
Q 909 4413 909 2353 
z
" transform="scale(0.015625)"/>
       </defs>
       <use xlink:href="#MicrosoftYaHei-30"/>
      </g>
     </g>
    </g>
    <g id="ytick_2">
     <g id="line2d_5">
      <g>
       <use xlink:href="#m619775d2cc" x="45.223906" y="210.1104" style="stroke: #000000; stroke-width: 0.8"/>
      </g>
     </g>
     <g id="text_5">
      <!-- 20 -->
      <g transform="translate(26.495781 214.107275) scale(0.1 -0.1)">
       <defs>
        <path id="MicrosoftYaHei-32" d="M 2666 3572 
Q 2666 3963 2419 4186 
Q 2172 4409 1747 4409 
Q 1447 4409 1140 4256 
Q 834 4103 569 3819 
L 569 4413 
Q 806 4659 1107 4790 
Q 1409 4922 1816 4922 
Q 2472 4922 2872 4570 
Q 3272 4219 3272 3619 
Q 3272 3084 3026 2693 
Q 2781 2303 2188 1894 
Q 1581 1475 1376 1294 
Q 1172 1113 1090 947 
Q 1009 781 1009 544 
L 3416 544 
L 3416 0 
L 372 0 
L 372 241 
Q 372 659 486 951 
Q 600 1244 862 1520 
Q 1125 1797 1681 2184 
Q 2250 2584 2458 2886 
Q 2666 3188 2666 3572 
z
" transform="scale(0.015625)"/>
       </defs>
       <use xlink:href="#MicrosoftYaHei-32"/>
       <use xlink:href="#MicrosoftYaHei-30" transform="translate(58.642578 0)"/>
      </g>
     </g>
    </g>
    <g id="ytick_3">
     <g id="line2d_6">
      <g>
       <use xlink:href="#m619775d2cc" x="45.223906" y="178.6608" style="stroke: #000000; stroke-width: 0.8"/>
      </g>
     </g>
     <g id="text_6">
      <!-- 40 -->
      <g transform="translate(26.495781 182.657675) scale(0.1 -0.1)">
       <defs>
        <path id="MicrosoftYaHei-34" d="M 2906 4841 
L 2906 1644 
L 3631 1644 
L 3631 1138 
L 2906 1138 
L 2906 0 
L 2313 0 
L 2313 1138 
L 53 1138 
L 53 1616 
Q 656 2294 1265 3178 
Q 1875 4063 2272 4841 
L 2906 4841 
z
M 741 1644 
L 2313 1644 
L 2313 3950 
Q 1988 3366 1616 2817 
Q 1244 2269 741 1644 
z
" transform="scale(0.015625)"/>
       </defs>
       <use xlink:href="#MicrosoftYaHei-34"/>
       <use xlink:href="#MicrosoftYaHei-30" transform="translate(58.642578 0)"/>
      </g>
     </g>
    </g>
    <g id="ytick_4">
     <g id="line2d_7">
      <g>
       <use xlink:href="#m619775d2cc" x="45.223906" y="147.2112" style="stroke: #000000; stroke-width: 0.8"/>
      </g>
     </g>
     <g id="text_7">
      <!-- 60 -->
      <g transform="translate(26.495781 151.208075) scale(0.1 -0.1)">
       <defs>
        <path id="MicrosoftYaHei-36" d="M 3181 4219 
Q 2803 4413 2391 4413 
Q 1763 4413 1381 3866 
Q 1000 3319 994 2372 
L 1009 2372 
Q 1353 3038 2106 3038 
Q 2734 3038 3109 2628 
Q 3484 2219 3484 1541 
Q 3484 831 3051 375 
Q 2619 -81 1947 -81 
Q 1209 -81 789 495 
Q 369 1072 369 2131 
Q 369 3413 920 4167 
Q 1472 4922 2372 4922 
Q 2888 4922 3181 4781 
L 3181 4219 
z
M 1031 1584 
Q 1031 1106 1286 765 
Q 1541 425 1963 425 
Q 2363 425 2613 719 
Q 2863 1013 2863 1475 
Q 2863 1975 2627 2253 
Q 2391 2531 1956 2531 
Q 1544 2531 1287 2250 
Q 1031 1969 1031 1584 
z
" transform="scale(0.015625)"/>
       </defs>
       <use xlink:href="#MicrosoftYaHei-36"/>
       <use xlink:href="#MicrosoftYaHei-30" transform="translate(58.642578 0)"/>
      </g>
     </g>
    </g>
    <g id="ytick_5">
     <g id="line2d_8">
      <g>
       <use xlink:href="#m619775d2cc" x="45.223906" y="115.7616" style="stroke: #000000; stroke-width: 0.8"/>
      </g>
     </g>
     <g id="text_8">
      <!-- 80 -->
      <g transform="translate(26.495781 119.758475) scale(0.1 -0.1)">
       <defs>
        <path id="MicrosoftYaHei-38" d="M 306 1350 
Q 306 1769 556 2122 
Q 806 2475 1200 2625 
Q 884 2803 700 3081 
Q 516 3359 516 3684 
Q 516 4028 692 4312 
Q 869 4597 1183 4759 
Q 1497 4922 1875 4922 
Q 2256 4922 2572 4761 
Q 2888 4600 3063 4315 
Q 3238 4031 3238 3684 
Q 3238 3366 3058 3086 
Q 2878 2806 2559 2625 
Q 2953 2472 3200 2119 
Q 3447 1766 3447 1350 
Q 3447 938 3250 611 
Q 3053 284 2690 103 
Q 2328 -78 1875 -78 
Q 1425 -78 1065 103 
Q 706 284 506 612 
Q 306 941 306 1350 
z
M 906 1378 
Q 906 947 1172 687 
Q 1438 428 1878 428 
Q 2309 428 2582 692 
Q 2856 956 2856 1378 
Q 2856 1778 2579 2051 
Q 2303 2325 1878 2325 
Q 1456 2325 1181 2058 
Q 906 1791 906 1378 
z
M 1081 3634 
Q 1081 3309 1312 3076 
Q 1544 2844 1878 2844 
Q 2206 2844 2445 3078 
Q 2684 3313 2684 3634 
Q 2684 3963 2454 4191 
Q 2225 4419 1878 4419 
Q 1534 4419 1307 4195 
Q 1081 3972 1081 3634 
z
" transform="scale(0.015625)"/>
       </defs>
       <use xlink:href="#MicrosoftYaHei-38"/>
       <use xlink:href="#MicrosoftYaHei-30" transform="translate(58.642578 0)"/>
      </g>
     </g>
    </g>
    <g id="ytick_6">
     <g id="line2d_9">
      <g>
       <use xlink:href="#m619775d2cc" x="45.223906" y="84.312" style="stroke: #000000; stroke-width: 0.8"/>
      </g>
     </g>
     <g id="text_9">
      <!-- 100 -->
      <g transform="translate(20.631719 88.308875) scale(0.1 -0.1)">
       <defs>
        <path id="MicrosoftYaHei-31" d="M 1781 0 
L 1781 4141 
Q 1638 3997 1295 3819 
Q 953 3641 663 3569 
L 663 4169 
Q 1047 4275 1484 4508 
Q 1922 4741 2156 4947 
L 2388 4947 
L 2388 0 
L 1781 0 
z
" transform="scale(0.015625)"/>
       </defs>
       <use xlink:href="#MicrosoftYaHei-31"/>
       <use xlink:href="#MicrosoftYaHei-30" transform="translate(58.642578 0)"/>
       <use xlink:href="#MicrosoftYaHei-30" transform="translate(117.285156 0)"/>
      </g>
     </g>
    </g>
    <g id="ytick_7">
     <g id="line2d_10">
      <g>
       <use xlink:href="#m619775d2cc" x="45.223906" y="52.8624" style="stroke: #000000; stroke-width: 0.8"/>
      </g>
     </g>
     <g id="text_10">
      <!-- 120 -->
      <g transform="translate(20.631719 56.859275) scale(0.1 -0.1)">
       <use xlink:href="#MicrosoftYaHei-31"/>
       <use xlink:href="#MicrosoftYaHei-32" transform="translate(58.642578 0)"/>
       <use xlink:href="#MicrosoftYaHei-30" transform="translate(117.285156 0)"/>
      </g>
     </g>
    </g>
    <g id="text_11">
     <!-- 比例 / % -->
     <g transform="translate(14.394375 160.869375) rotate(-90) scale(0.09 -0.09)">
      <defs>
       <path id="MicrosoftYaHei-6bd4" d="M 3225 5316 
L 3744 5316 
L 3744 2672 
Q 4959 3550 5744 4509 
L 6188 4178 
Q 5175 3063 3744 2056 
L 3744 247 
Q 3744 -166 4106 -166 
L 5175 -166 
Q 5588 -166 5650 203 
Q 5725 678 5763 1247 
Q 6025 1147 6300 1066 
Q 6244 484 6150 22 
Q 6019 -622 5319 -622 
L 3944 -622 
Q 3225 -622 3225 159 
L 3225 5316 
z
M 1063 5153 
L 1063 3278 
L 2825 3278 
L 2825 2809 
L 1063 2809 
L 1063 153 
Q 1713 428 2763 928 
Q 2763 634 2788 366 
Q 1869 -3 1231 -328 
Q 956 -472 725 -672 
L 344 -184 
Q 544 -34 544 272 
L 544 5153 
L 1063 5153 
z
" transform="scale(0.015625)"/>
       <path id="MicrosoftYaHei-4f8b" d="M 2381 1841 
L 2631 2191 
Q 2916 1997 3247 1738 
Q 3488 2378 3581 3128 
L 2703 3128 
Q 2350 1984 1831 1291 
Q 1700 1491 1531 1678 
Q 2238 2694 2578 4522 
L 1900 4522 
L 1900 4959 
L 4319 4959 
L 4319 4522 
L 3044 4522 
Q 2947 4009 2828 3559 
L 4044 3559 
L 4044 3128 
Q 3788 666 2038 -822 
Q 1900 -634 1694 -416 
Q 2578 297 3063 1303 
Q 2753 1556 2381 1841 
z
M 88 2291 
Q 894 3659 1281 5322 
L 1744 5234 
Q 1578 4534 1325 3853 
L 1325 -809 
L 900 -809 
L 900 2847 
Q 625 2275 288 1716 
Q 213 1966 88 2291 
z
M 5575 5303 
L 6031 5303 
L 6031 84 
Q 6031 -391 5881 -566 
Q 5750 -728 5356 -734 
Q 5088 -741 4488 -722 
Q 4463 -466 4400 -203 
Q 4881 -253 5188 -253 
Q 5431 -259 5500 -166 
Q 5575 -84 5575 234 
L 5575 5303 
z
M 4913 653 
L 4469 653 
L 4469 4322 
L 4913 4322 
L 4913 653 
z
" transform="scale(0.015625)"/>
       <path id="MicrosoftYaHei-20" transform="scale(0.015625)"/>
       <path id="MicrosoftYaHei-2f" d="M 2791 4841 
L 469 -803 
L -103 -803 
L 2219 4841 
L 2791 4841 
z
" transform="scale(0.015625)"/>
       <path id="MicrosoftYaHei-25" d="M 272 3619 
Q 272 4213 589 4563 
Q 906 4913 1444 4913 
Q 1959 4913 2248 4591 
Q 2538 4269 2538 3694 
Q 2538 3122 2219 2765 
Q 1900 2409 1372 2409 
Q 872 2409 572 2740 
Q 272 3072 272 3619 
z
M 753 3650 
Q 753 3247 928 3028 
Q 1103 2809 1406 2809 
Q 1719 2809 1889 3036 
Q 2059 3263 2059 3675 
Q 2059 4078 1892 4298 
Q 1725 4519 1422 4519 
Q 1113 4519 933 4289 
Q 753 4059 753 3650 
z
M 4647 4841 
L 1538 -31 
L 1016 -31 
L 4125 4841 
L 4647 4841 
z
M 3172 1134 
Q 3172 1728 3489 2083 
Q 3806 2438 4341 2438 
Q 4853 2438 5143 2114 
Q 5434 1791 5434 1203 
Q 5434 634 5112 279 
Q 4791 -75 4272 -75 
Q 3769 -75 3470 261 
Q 3172 597 3172 1134 
z
M 3650 1163 
Q 3650 769 3825 548 
Q 4000 328 4303 328 
Q 4616 328 4786 556 
Q 4956 784 4956 1194 
Q 4956 1600 4786 1815 
Q 4616 2031 4319 2031 
Q 4000 2031 3825 1801 
Q 3650 1572 3650 1163 
z
" transform="scale(0.015625)"/>
      </defs>
      <use xlink:href="#MicrosoftYaHei-6bd4"/>
      <use xlink:href="#MicrosoftYaHei-4f8b" transform="translate(100 0)"/>
      <use xlink:href="#MicrosoftYaHei-20" transform="translate(200 0)"/>
      <use xlink:href="#MicrosoftYaHei-2f" transform="translate(229.589844 0)"/>
      <use xlink:href="#MicrosoftYaHei-20" transform="translate(272.314453 0)"/>
      <use xlink:href="#MicrosoftYaHei-25" transform="translate(301.904297 0)"/>
     </g>
    </g>
   </g>
   <g id="patch_9">
    <path d="M 45.223906 241.56 
L 45.223906 45 
" style="fill: none; stroke: #000000; stroke-width: 0.8; stroke-linejoin: miter; stroke-linecap: square"/>
   </g>
   <g id="patch_10">
    <path d="M 45.223906 241.56 
L 220.565083 241.56 
" style="fill: none; stroke: #000000; stroke-width: 0.8; stroke-linejoin: miter; stroke-linecap: square"/>
   </g>
   <g id="text_12">
    <!-- 100% -->
    <g style="fill: #27ae60" transform="translate(60.461391 82.73952) scale(0.08 -0.08)">
     <defs>
      <path id="MicrosoftYaHei-Bold-31" d="M 2716 4947 
L 2716 0 
L 1700 0 
L 1700 3809 
Q 1513 3647 1188 3517 
Q 863 3388 591 3356 
L 591 4222 
Q 1447 4472 2072 4947 
L 2716 4947 
z
" transform="scale(0.015625)"/>
      <path id="MicrosoftYaHei-Bold-30" d="M 244 2341 
Q 244 3597 706 4259 
Q 1169 4922 2044 4922 
Q 3713 4922 3713 2453 
Q 3713 1238 3259 577 
Q 2806 -84 1950 -84 
Q 244 -84 244 2341 
z
M 1266 2366 
Q 1266 691 1981 691 
Q 2684 691 2684 2416 
Q 2684 4147 2000 4147 
Q 1266 4147 1266 2366 
z
" transform="scale(0.015625)"/>
      <path id="MicrosoftYaHei-Bold-25" d="M 297 3597 
Q 297 4191 626 4548 
Q 956 4906 1519 4906 
Q 2056 4906 2354 4581 
Q 2653 4256 2653 3684 
Q 2653 3097 2322 2744 
Q 1991 2391 1438 2391 
Q 919 2391 608 2722 
Q 297 3053 297 3597 
z
M 984 3631 
Q 984 2959 1478 2959 
Q 1981 2959 1981 3659 
Q 1981 4338 1500 4338 
Q 984 4338 984 3631 
z
M 4938 4841 
L 1791 -3 
L 1006 -3 
L 4147 4841 
L 4938 4841 
z
M 3297 1141 
Q 3297 1741 3631 2095 
Q 3966 2450 4522 2450 
Q 5059 2450 5357 2131 
Q 5656 1813 5656 1234 
Q 5656 641 5322 286 
Q 4988 -69 4438 -69 
Q 3922 -69 3609 264 
Q 3297 597 3297 1141 
z
M 3981 1175 
Q 3981 500 4478 500 
Q 4978 500 4978 1200 
Q 4978 1528 4845 1704 
Q 4713 1881 4491 1881 
Q 3981 1881 3981 1175 
z
" transform="scale(0.015625)"/>
     </defs>
     <use xlink:href="#MicrosoftYaHei-Bold-31"/>
     <use xlink:href="#MicrosoftYaHei-Bold-30" transform="translate(61.669922 0)"/>
     <use xlink:href="#MicrosoftYaHei-Bold-30" transform="translate(123.339844 0)"/>
     <use xlink:href="#MicrosoftYaHei-Bold-25" transform="translate(185.009766 0)"/>
    </g>
   </g>
   <g id="text_13">
    <!-- 100% -->
    <g style="fill: #27ae60" transform="translate(121.769494 82.73952) scale(0.08 -0.08)">
     <use xlink:href="#MicrosoftYaHei-Bold-31"/>
     <use xlink:href="#MicrosoftYaHei-Bold-30" transform="translate(61.669922 0)"/>
     <use xlink:href="#MicrosoftYaHei-Bold-30" transform="translate(123.339844 0)"/>
     <use xlink:href="#MicrosoftYaHei-Bold-25" transform="translate(185.009766 0)"/>
    </g>
   </g>
   <g id="text_14">
    <!-- 75% -->
    <g style="fill: #27ae60" transform="translate(185.544473 122.05152) scale(0.08 -0.08)">
     <defs>
      <path id="MicrosoftYaHei-Bold-37" d="M 3675 4225 
Q 3088 3172 2798 2528 
Q 2509 1884 2328 1275 
Q 2147 666 2050 0 
L 966 0 
Q 1122 947 1517 1917 
Q 1913 2888 2609 4009 
L 300 4009 
L 300 4841 
L 3675 4841 
L 3675 4225 
z
" transform="scale(0.015625)"/>
      <path id="MicrosoftYaHei-Bold-35" d="M 541 125 
L 541 997 
Q 1044 691 1613 691 
Q 2041 691 2283 902 
Q 2525 1113 2525 1472 
Q 2525 2225 1494 2225 
Q 1113 2225 616 2169 
L 797 4841 
L 3359 4841 
L 3359 4009 
L 1613 4009 
L 1544 2991 
Q 1803 3013 2022 3013 
Q 2731 3013 3142 2625 
Q 3553 2238 3553 1575 
Q 3553 844 3056 380 
Q 2559 -84 1706 -84 
Q 1016 -84 541 125 
z
" transform="scale(0.015625)"/>
     </defs>
     <use xlink:href="#MicrosoftYaHei-Bold-37"/>
     <use xlink:href="#MicrosoftYaHei-Bold-35" transform="translate(61.669922 0)"/>
     <use xlink:href="#MicrosoftYaHei-Bold-25" transform="translate(123.339844 0)"/>
    </g>
   </g>
   <g id="text_15">
    <!-- 3:1 -->
    <g style="fill: #c0392b" transform="translate(185.847754 76.4496) scale(0.11 -0.11)">
     <defs>
      <path id="MicrosoftYaHei-Bold-33" d="M 494 1053 
Q 978 691 1625 691 
Q 2034 691 2275 872 
Q 2516 1053 2516 1388 
Q 2516 1731 2230 1912 
Q 1944 2094 1428 2094 
L 997 2094 
L 997 2872 
L 1394 2872 
Q 2369 2872 2369 3528 
Q 2369 4147 1622 4147 
Q 1134 4147 675 3828 
L 675 4663 
Q 1175 4922 1853 4922 
Q 2541 4922 2969 4605 
Q 3397 4288 3397 3725 
Q 3397 2775 2434 2531 
L 2434 2516 
Q 2941 2459 3244 2145 
Q 3547 1831 3547 1381 
Q 3547 691 3042 303 
Q 2538 -84 1697 -84 
Q 950 -84 494 163 
L 494 1053 
z
" transform="scale(0.015625)"/>
      <path id="MicrosoftYaHei-Bold-3a" d="M 313 2969 
Q 313 3200 491 3350 
Q 669 3500 916 3500 
Q 1166 3500 1337 3350 
Q 1509 3200 1509 2969 
Q 1509 2728 1337 2579 
Q 1166 2431 903 2431 
Q 653 2431 483 2584 
Q 313 2738 313 2969 
z
M 313 453 
Q 313 688 491 838 
Q 669 988 916 988 
Q 1166 988 1337 834 
Q 1509 681 1509 453 
Q 1509 213 1337 64 
Q 1166 -84 903 -84 
Q 659 -84 486 69 
Q 313 222 313 453 
z
" transform="scale(0.015625)"/>
     </defs>
     <use xlink:href="#MicrosoftYaHei-Bold-33"/>
     <use xlink:href="#MicrosoftYaHei-Bold-3a" transform="translate(61.669922 0)"/>
     <use xlink:href="#MicrosoftYaHei-Bold-31" transform="translate(90.234375 0)"/>
    </g>
   </g>
   <g id="text_16">
    <!-- 一对相对性状的杂交实验 -->
    <g style="fill: #1a1a2e" transform="translate(72.394494 39) scale(0.11 -0.11)">
     <defs>
      <path id="MicrosoftYaHei-Bold-4e00" d="M 188 2716 
L 6225 2716 
L 6225 1791 
L 188 1791 
L 188 2716 
z
" transform="scale(0.015625)"/>
      <path id="MicrosoftYaHei-Bold-5bf9" d="M 3050 4234 
L 4850 4234 
L 4850 5309 
L 5744 5309 
L 5744 4234 
L 6319 4234 
L 6319 3409 
L 5744 3409 
L 5744 216 
Q 5744 -250 5539 -490 
Q 5334 -731 4987 -754 
Q 4641 -778 3656 -778 
Q 3594 -359 3450 147 
Q 3931 109 4409 109 
Q 4850 109 4850 516 
L 4850 3409 
L 3050 3409 
L 3050 4234 
z
M 863 3772 
L 1691 2509 
Q 1934 3206 2025 4016 
L 188 4016 
L 188 4834 
L 2900 4834 
L 2900 4028 
Q 2709 2722 2247 1669 
L 3169 278 
L 2394 -228 
L 1781 778 
Q 1269 -47 550 -684 
Q 369 -316 88 153 
Q 816 772 1278 1594 
L 181 3341 
L 863 3772 
z
M 3463 3047 
Q 4069 2278 4588 1528 
L 3844 1041 
Q 3375 1841 2813 2609 
L 3463 3047 
z
" transform="scale(0.015625)"/>
      <path id="MicrosoftYaHei-Bold-76f8" d="M 75 1559 
Q 663 2469 916 3297 
L 138 3297 
L 138 4116 
L 938 4116 
L 938 5272 
L 1763 5272 
L 1763 4116 
L 2456 4116 
L 2456 3297 
L 1763 3297 
L 1763 2741 
Q 2194 2503 2569 2266 
L 2200 1553 
Q 1988 1722 1763 1888 
L 1763 -834 
L 938 -834 
L 938 1641 
Q 672 1034 306 459 
Q 194 1047 75 1559 
z
M 2625 4966 
L 6050 4966 
L 6050 -859 
L 5188 -859 
L 5188 -547 
L 3488 -547 
L 3488 -859 
L 2625 -859 
L 2625 4966 
z
M 5188 4166 
L 3488 4166 
L 3488 3391 
L 5188 3391 
L 5188 4166 
z
M 3488 1828 
L 5188 1828 
L 5188 2603 
L 3488 2603 
L 3488 1828 
z
M 3488 253 
L 5188 253 
L 5188 1041 
L 3488 1041 
L 3488 253 
z
" transform="scale(0.015625)"/>
      <path id="MicrosoftYaHei-Bold-6027" d="M 2250 216 
L 3975 216 
L 3975 1378 
L 2563 1378 
L 2563 2191 
L 3975 2191 
L 3975 3303 
L 3213 3303 
Q 3075 2734 2913 2272 
Q 2538 2491 2175 2684 
Q 2563 3684 2738 4947 
L 3506 4891 
Q 3447 4484 3381 4116 
L 3975 4116 
L 3975 5316 
L 4825 5316 
L 4825 4116 
L 6125 4116 
L 6125 3303 
L 4825 3303 
L 4825 2191 
L 6100 2191 
L 6100 1378 
L 4825 1378 
L 4825 216 
L 6313 216 
L 6313 -597 
L 2250 -597 
L 2250 216 
z
M 1788 5316 
L 1788 4456 
Q 2125 4316 2494 4134 
L 2175 3453 
L 1788 3713 
L 1788 -841 
L 950 -841 
L 950 5316 
L 1788 5316 
z
M 269 4103 
L 800 4041 
Q 719 3009 619 2178 
Q 350 2284 106 2316 
Q 225 3284 269 4103 
z
" transform="scale(0.015625)"/>
      <path id="MicrosoftYaHei-Bold-72b6" d="M 2300 5316 
L 2300 -34 
Q 3438 963 3656 2728 
L 2513 2728 
L 2513 3547 
L 3709 3547 
Q 3738 4566 3731 5316 
L 4588 5316 
Q 4588 4419 4556 3547 
L 6163 3547 
L 6163 2728 
L 4706 2728 
Q 5091 722 6325 -41 
Q 6019 -347 5694 -828 
Q 4669 -81 4266 1772 
Q 3928 100 2863 -872 
Q 2603 -469 2300 -119 
L 2300 -847 
L 1463 -847 
L 1463 1206 
Q 934 813 369 334 
L 94 1328 
Q 709 1706 1463 2288 
L 1463 5316 
L 2300 5316 
z
M 5363 5234 
Q 5719 4866 6181 4284 
L 5531 3778 
Q 5113 4391 4769 4809 
L 5363 5234 
z
M 850 4516 
Q 1169 3766 1444 2878 
L 713 2616 
Q 488 3459 181 4284 
L 850 4516 
z
" transform="scale(0.015625)"/>
      <path id="MicrosoftYaHei-Bold-7684" d="M 1250 5303 
L 2181 5159 
L 1900 4309 
L 2963 4309 
L 2963 3091 
Q 3466 3934 3925 5316 
L 4788 5091 
Q 4650 4675 4494 4278 
L 6106 4278 
L 6034 681 
Q 6019 100 5937 -133 
Q 5856 -366 5684 -512 
Q 5513 -659 5205 -712 
Q 4897 -766 3863 -766 
Q 3769 -216 3625 178 
Q 4088 141 4609 141 
Q 4759 141 4868 175 
Q 4978 209 5048 279 
Q 5119 350 5144 437 
Q 5169 525 5184 1206 
L 5213 2484 
Q 5225 3081 5225 3453 
L 4138 3453 
Q 3931 3016 3700 2603 
Q 3403 2797 2963 2988 
L 2963 -734 
L 2094 -734 
L 2094 -284 
L 1206 -284 
L 1206 -772 
L 338 -772 
L 338 4309 
L 997 4309 
Q 1178 4922 1250 5303 
z
M 2094 3491 
L 1206 3491 
L 1206 2422 
L 2094 2422 
L 2094 3491 
z
M 1206 534 
L 2094 534 
L 2094 1603 
L 1206 1603 
L 1206 534 
z
M 3944 2703 
Q 4394 2166 4913 1397 
L 4125 872 
Q 3650 1653 3219 2203 
L 3944 2703 
z
" transform="scale(0.015625)"/>
      <path id="MicrosoftYaHei-Bold-6742" d="M 5500 4203 
Q 5919 4078 6338 3978 
Q 6269 3328 6188 2984 
Q 6063 2453 5400 2453 
L 4600 2453 
Q 3900 2453 3900 3153 
L 3900 3997 
L 2781 3997 
Q 2588 2603 613 2141 
Q 419 2466 106 2884 
Q 1644 3172 1869 3997 
L 456 3997 
L 456 4753 
L 1981 4753 
Q 2006 5053 2006 5328 
L 2894 5328 
Q 2894 5084 2869 4753 
L 4800 4753 
L 4800 3459 
Q 4800 3203 5056 3203 
L 5206 3203 
Q 5394 3203 5431 3466 
Q 5469 3816 5500 4203 
z
M 188 2072 
L 2800 2072 
L 2800 2666 
L 3706 2666 
L 3706 2072 
L 6175 2072 
L 6175 1309 
L 3706 1309 
L 3706 159 
Q 3706 -684 2900 -766 
Q 2613 -797 2000 -803 
Q 1906 -334 1794 72 
Q 2200 41 2456 41 
Q 2800 41 2800 403 
L 2800 1309 
L 188 1309 
L 188 2072 
z
M 4000 597 
L 4519 1172 
Q 5425 628 6263 34 
L 5725 -634 
Q 4956 -34 4000 597 
z
M 1675 1166 
L 2263 559 
Q 1406 -84 538 -634 
Q 288 -247 63 66 
Q 963 566 1675 1166 
z
" transform="scale(0.015625)"/>
      <path id="MicrosoftYaHei-Bold-4ea4" d="M 163 4559 
L 2684 4559 
Q 2559 4856 2463 5072 
L 3388 5353 
Q 3538 5056 3775 4559 
L 6194 4559 
L 6194 3772 
L 163 3772 
L 163 4559 
z
M 200 2322 
Q 1238 3016 2006 3759 
L 2681 3141 
Q 1788 2328 788 1597 
Q 581 1891 200 2322 
z
M 4331 3741 
Q 5363 3009 6188 2372 
L 5538 1653 
Q 4675 2441 3756 3134 
L 4331 3741 
z
M 2294 2503 
Q 2703 1794 3203 1309 
Q 3741 1819 4075 2516 
L 4813 2022 
Q 4419 1309 3909 769 
Q 4819 250 6300 78 
Q 5988 -447 5781 -816 
Q 4291 -613 3206 150 
Q 2128 -597 594 -841 
Q 438 -491 88 53 
Q 1525 234 2494 778 
Q 1978 1319 1594 1984 
L 2294 2503 
z
" transform="scale(0.015625)"/>
      <path id="MicrosoftYaHei-Bold-5b9e" d="M 4219 3716 
Q 4181 2422 4056 1653 
L 6238 1653 
L 6238 878 
L 3863 878 
Q 3850 841 3813 766 
Q 5019 372 6206 -66 
L 5881 -847 
Q 4619 -316 3369 153 
Q 2550 -616 863 -916 
Q 556 -384 331 -78 
Q 2338 209 2894 878 
L 169 878 
L 169 1653 
L 2144 1653 
Q 1481 2053 931 2328 
L 1319 2934 
Q 1894 2659 2638 2247 
L 2244 1653 
L 3175 1653 
Q 3331 2453 3350 3716 
L 4219 3716 
z
M 300 3078 
L 300 4703 
L 2819 4703 
Q 2700 5009 2606 5228 
L 3675 5341 
Q 3769 5084 3888 4703 
L 6094 4703 
L 6094 3078 
L 5225 3078 
L 5225 3953 
L 1169 3953 
L 1169 3078 
L 300 3078 
z
M 1813 3772 
Q 2469 3484 3163 3134 
L 2769 2497 
Q 2031 2909 1450 3184 
L 1813 3772 
z
" transform="scale(0.015625)"/>
      <path id="MicrosoftYaHei-Bold-9a8c" d="M 1138 4053 
L 969 2491 
L 1419 2491 
L 1563 4241 
L 200 4241 
L 200 4991 
L 2369 4991 
L 2163 2491 
L 2525 2491 
Q 2463 691 2413 203 
Q 2369 -553 1838 -672 
Q 1581 -709 644 -709 
Q 588 -253 519 134 
Q 906 91 1350 78 
Q 1669 78 1694 378 
Q 1731 791 1763 1741 
L 181 1741 
L 400 4053 
L 1138 4053 
z
M 5544 2647 
L 3163 2647 
L 3163 2997 
Q 2944 2797 2706 2603 
Q 2525 2991 2300 3391 
Q 3313 4134 3925 5278 
L 4875 5278 
L 4738 5053 
Q 5469 3984 6381 3466 
Q 6163 3116 5950 2691 
Q 5738 2828 5544 2984 
L 5544 2647 
z
M 2556 116 
L 4694 116 
Q 5063 1253 5250 2303 
L 6025 2103 
Q 5775 1141 5438 116 
L 6213 116 
L 6213 -634 
L 2556 -634 
L 2556 116 
z
M 3263 2172 
Q 3569 1397 3856 503 
L 3175 259 
Q 2981 978 2625 1934 
L 3263 2172 
z
M 4425 2428 
Q 4644 1584 4806 753 
L 4113 584 
Q 3988 1366 3763 2278 
L 4425 2428 
z
M 75 1216 
Q 763 1278 1525 1378 
Q 1531 984 1538 628 
Q 838 541 175 428 
L 75 1216 
z
M 4300 4347 
Q 4013 3897 3544 3384 
L 5113 3384 
Q 4663 3859 4300 4347 
z
" transform="scale(0.015625)"/>
     </defs>
     <use xlink:href="#MicrosoftYaHei-Bold-4e00"/>
     <use xlink:href="#MicrosoftYaHei-Bold-5bf9" transform="translate(100 0)"/>
     <use xlink:href="#MicrosoftYaHei-Bold-76f8" transform="translate(200 0)"/>
     <use xlink:href="#MicrosoftYaHei-Bold-5bf9" transform="translate(300 0)"/>
     <use xlink:href="#MicrosoftYaHei-Bold-6027" transform="translate(400 0)"/>
     <use xlink:href="#MicrosoftYaHei-Bold-72b6" transform="translate(500 0)"/>
     <use xlink:href="#MicrosoftYaHei-Bold-7684" transform="translate(600 0)"/>
     <use xlink:href="#MicrosoftYaHei-Bold-6742" transform="translate(700 0)"/>
     <use xlink:href="#MicrosoftYaHei-Bold-4ea4" transform="translate(800 0)"/>
     <use xlink:href="#MicrosoftYaHei-Bold-5b9e" transform="translate(900 0)"/>
     <use xlink:href="#MicrosoftYaHei-Bold-9a8c" transform="translate(1000 0)"/>
    </g>
   </g>
   <g id="legend_1">
    <g id="patch_11">
     <path d="M 173.365083 76.1675 
L 214.965083 76.1675 
Q 216.565083 76.1675 216.565083 74.5675 
L 216.565083 50.6 
Q 216.565083 49 214.965083 49 
L 173.365083 49 
Q 171.765083 49 171.765083 50.6 
L 171.765083 74.5675 
Q 171.765083 76.1675 173.365083 76.1675 
z
" style="fill: #ffffff; opacity: 0.8; stroke: #cccccc; stroke-linejoin: miter"/>
    </g>
    <g id="patch_12">
     <path d="M 174.965083 58.595 
L 190.965083 58.595 
L 190.965083 52.995 
L 174.965083 52.995 
z
" style="fill: #27ae60; opacity: 0.85; stroke: #ffffff; stroke-linejoin: miter"/>
    </g>
    <g id="text_17">
     <!-- 高茎 -->
     <g transform="translate(197.365083 58.595) scale(0.08 -0.08)">
      <use xlink:href="#MicrosoftYaHei-9ad8"/>
      <use xlink:href="#MicrosoftYaHei-830e" transform="translate(100 0)"/>
     </g>
    </g>
    <g id="patch_13">
     <path d="M 174.965083 70.97875 
L 190.965083 70.97875 
L 190.965083 65.37875 
L 174.965083 65.37875 
z
" style="fill: #e67e22; opacity: 0.85; stroke: #ffffff; stroke-linejoin: miter"/>
    </g>
    <g id="text_18">
     <!-- 矮茎 -->
     <g transform="translate(197.365083 70.97875) scale(0.08 -0.08)">
      <use xlink:href="#MicrosoftYaHei-77ee"/>
      <use xlink:href="#MicrosoftYaHei-830e" transform="translate(100 0)"/>
     </g>
    </g>
   </g>
  </g>
  <g id="axes_2">
   <g id="text_19">
    <!-- P -->
    <g style="fill: #2d3436" transform="translate(277.550965 71.208) scale(0.1 -0.1)">
     <defs>
      <path id="MicrosoftYaHei-Bold-50" d="M 1591 1688 
L 1591 0 
L 559 0 
L 559 4841 
L 2225 4841 
Q 4031 4841 4031 3309 
Q 4031 2566 3486 2117 
Q 2941 1669 2122 1688 
L 1591 1688 
z
M 1591 4041 
L 1591 2478 
L 2038 2478 
Q 2947 2478 2947 3269 
Q 2947 4041 2047 4041 
L 1591 4041 
z
" transform="scale(0.015625)"/>
     </defs>
     <use xlink:href="#MicrosoftYaHei-Bold-50"/>
    </g>
   </g>
   <g id="text_20">
    <!-- 高茎(DD) -->
    <g style="fill: #27ae60" transform="translate(308.235671 71.208) scale(0.09 -0.09)">
     <defs>
      <path id="MicrosoftYaHei-28" d="M 1531 -1100 
Q 478 100 478 1847 
Q 478 3594 1531 4841 
L 2072 4841 
Q 1016 3544 1016 1853 
Q 1016 166 2066 -1100 
L 1531 -1100 
z
" transform="scale(0.015625)"/>
      <path id="MicrosoftYaHei-44" d="M 625 0 
L 625 4841 
L 2006 4841 
Q 3106 4841 3836 4200 
Q 4566 3559 4566 2481 
Q 4566 1356 3836 678 
Q 3106 0 1956 0 
L 625 0 
z
M 1250 4284 
L 1250 553 
L 1953 553 
Q 2875 553 3392 1056 
Q 3909 1559 3909 2466 
Q 3909 3372 3378 3828 
Q 2847 4284 1981 4284 
L 1250 4284 
z
" transform="scale(0.015625)"/>
      <path id="MicrosoftYaHei-29" d="M 78 -1100 
Q 1131 163 1131 1853 
Q 1131 3547 72 4841 
L 616 4841 
Q 1672 3603 1672 1847 
Q 1672 91 616 -1100 
L 78 -1100 
z
" transform="scale(0.015625)"/>
     </defs>
     <use xlink:href="#MicrosoftYaHei-9ad8"/>
     <use xlink:href="#MicrosoftYaHei-830e" transform="translate(100 0)"/>
     <use xlink:href="#MicrosoftYaHei-28" transform="translate(200 0)"/>
     <use xlink:href="#MicrosoftYaHei-44" transform="translate(233.398438 0)"/>
     <use xlink:href="#MicrosoftYaHei-44" transform="translate(309.570312 0)"/>
     <use xlink:href="#MicrosoftYaHei-29" transform="translate(385.742188 0)"/>
    </g>
   </g>
   <g id="text_21">
    <!-- × -->
    <g style="fill: #888888" transform="translate(378.372142 71.208) scale(0.1 -0.1)">
     <use xlink:href="#MicrosoftYaHei-d7"/>
    </g>
   </g>
   <g id="text_22">
    <!-- 矮茎(dd) -->
    <g style="fill: #e67e22" transform="translate(400.289789 71.208) scale(0.09 -0.09)">
     <defs>
      <path id="MicrosoftYaHei-64" d="M 3547 0 
L 2934 0 
L 2934 575 
L 2922 575 
Q 2544 -81 1747 -81 
Q 1091 -81 703 386 
Q 316 853 316 1647 
Q 316 2503 753 3020 
Q 1191 3538 1897 3538 
Q 2603 3538 2922 2988 
L 2934 2988 
L 2934 5116 
L 3547 5116 
L 3547 0 
z
M 2938 2056 
Q 2938 2472 2664 2751 
Q 2391 3031 1991 3031 
Q 1503 3031 1222 2667 
Q 941 2303 941 1675 
Q 941 1097 1211 761 
Q 1481 425 1931 425 
Q 2375 425 2656 754 
Q 2938 1084 2938 1575 
L 2938 2056 
z
" transform="scale(0.015625)"/>
     </defs>
     <use xlink:href="#MicrosoftYaHei-77ee"/>
     <use xlink:href="#MicrosoftYaHei-830e" transform="translate(100 0)"/>
     <use xlink:href="#MicrosoftYaHei-28" transform="translate(200 0)"/>
     <use xlink:href="#MicrosoftYaHei-64" transform="translate(233.398438 0)"/>
     <use xlink:href="#MicrosoftYaHei-64" transform="translate(297.363281 0)"/>
     <use xlink:href="#MicrosoftYaHei-29" transform="translate(361.328125 0)"/>
    </g>
   </g>
   <g id="patch_14">
    <path d="M 363.222959 94.14 
Q 343.304308 94.14 324.503691 94.14 
" style="fill: none; stroke: #888888; stroke-linecap: round"/>
    <path d="M 328.503691 96.14 
L 324.503691 94.14 
L 328.503691 92.14 
" style="fill: none; stroke: #888888; stroke-linecap: round"/>
   </g>
   <g id="text_23">
    <!-- F₁ -->
    <g style="fill: #2d3436" transform="translate(277.550965 117.072) scale(0.1 -0.1)">
     <defs>
      <path id="MicrosoftYaHei-Bold-46" d="M 3319 3997 
L 1591 3997 
L 1591 2753 
L 3181 2753 
L 3181 1909 
L 1591 1909 
L 1591 0 
L 559 0 
L 559 4841 
L 3319 4841 
L 3319 3997 
z
" transform="scale(0.015625)"/>
      <path id="MicrosoftYaHei-Bold-2081" d="M 559 0 
L 559 4719 
L 3900 4719 
L 3900 0 
L 559 0 
z
M 1059 500 
L 3403 500 
L 3403 4219 
L 1059 4219 
L 1059 500 
z
" transform="scale(0.015625)"/>
     </defs>
     <use xlink:href="#MicrosoftYaHei-Bold-46"/>
     <use xlink:href="#MicrosoftYaHei-Bold-2081" transform="translate(55.810547 0)"/>
    </g>
   </g>
   <g id="text_24">
    <!-- 高茎(Dd) -->
    <g style="fill: #27ae60" transform="translate(324.991016 117.072) scale(0.09 -0.09)">
     <use xlink:href="#MicrosoftYaHei-9ad8"/>
     <use xlink:href="#MicrosoftYaHei-830e" transform="translate(100 0)"/>
     <use xlink:href="#MicrosoftYaHei-28" transform="translate(200 0)"/>
     <use xlink:href="#MicrosoftYaHei-44" transform="translate(233.398438 0)"/>
     <use xlink:href="#MicrosoftYaHei-64" transform="translate(309.570312 0)"/>
     <use xlink:href="#MicrosoftYaHei-29" transform="translate(373.535156 0)"/>
    </g>
   </g>
   <g id="patch_15">
    <path d="M 363.222959 136.728 
Q 343.304308 136.728 324.503691 136.728 
" style="fill: none; stroke: #888888; stroke-linecap: round"/>
    <path d="M 328.503691 138.728 
L 324.503691 136.728 
L 328.503691 134.728 
" style="fill: none; stroke: #888888; stroke-linecap: round"/>
   </g>
   <g id="text_25">
    <!-- 自交 -->
    <g style="fill: #888888" transform="translate(321.386259 130.176) scale(0.08 -0.08)">
     <defs>
      <path id="MicrosoftYaHei-81ea" d="M 775 4466 
L 2391 4466 
Q 2525 4828 2688 5328 
L 3219 5166 
Q 3059 4778 2909 4466 
L 5625 4466 
L 5625 -822 
L 5125 -822 
L 5125 -447 
L 1275 -447 
L 1275 -822 
L 775 -822 
L 775 4466 
z
M 1275 3 
L 5125 3 
L 5125 1053 
L 1275 1053 
L 1275 3 
z
M 1275 1497 
L 5125 1497 
L 5125 2534 
L 1275 2534 
L 1275 1497 
z
M 5125 4016 
L 1275 4016 
L 1275 2978 
L 5125 2978 
L 5125 4016 
z
" transform="scale(0.015625)"/>
      <path id="MicrosoftYaHei-4ea4" d="M 4194 2641 
L 4675 2434 
Q 4209 1375 3566 713 
Q 4503 19 6225 -278 
Q 5994 -591 5850 -803 
Q 4184 -378 3194 375 
Q 2334 -297 463 -847 
Q 325 -628 150 -366 
Q 1909 78 2803 713 
Q 2184 1344 1738 2359 
L 2156 2597 
Q 2566 1669 3194 1041 
Q 3766 1609 4194 2641 
z
M 194 4384 
L 3122 4384 
Q 2975 4691 2700 5128 
L 3163 5353 
Q 3431 4978 3638 4566 
L 3288 4384 
L 6194 4384 
L 6194 3922 
L 194 3922 
L 194 4384 
z
M 2044 3634 
L 2444 3309 
Q 1569 2391 625 1666 
Q 469 1859 275 2066 
Q 1219 2734 2044 3634 
z
M 4288 3666 
Q 5431 2766 6075 2159 
Q 5900 1984 5700 1753 
Q 4994 2478 3944 3341 
L 4288 3666 
z
" transform="scale(0.015625)"/>
     </defs>
     <use xlink:href="#MicrosoftYaHei-81ea"/>
     <use xlink:href="#MicrosoftYaHei-4ea4" transform="translate(100 0)"/>
    </g>
   </g>
   <g id="text_26">
    <!-- F₂ -->
    <g style="fill: #2d3436" transform="translate(277.550965 159.66) scale(0.1 -0.1)">
     <defs>
      <path id="MicrosoftYaHei-Bold-2082" d="M 559 0 
L 559 4719 
L 3900 4719 
L 3900 0 
L 559 0 
z
M 1059 500 
L 3403 500 
L 3403 4219 
L 1059 4219 
L 1059 500 
z
" transform="scale(0.015625)"/>
     </defs>
     <use xlink:href="#MicrosoftYaHei-Bold-46"/>
     <use xlink:href="#MicrosoftYaHei-Bold-2082" transform="translate(55.810547 0)"/>
    </g>
   </g>
   <g id="text_27">
    <!-- DD(高茎) -->
    <g style="fill: #27ae60" transform="translate(312.6192 159.66) scale(0.08 -0.08)">
     <use xlink:href="#MicrosoftYaHei-44"/>
     <use xlink:href="#MicrosoftYaHei-44" transform="translate(76.171875 0)"/>
     <use xlink:href="#MicrosoftYaHei-28" transform="translate(152.34375 0)"/>
     <use xlink:href="#MicrosoftYaHei-9ad8" transform="translate(185.742188 0)"/>
     <use xlink:href="#MicrosoftYaHei-830e" transform="translate(285.742188 0)"/>
     <use xlink:href="#MicrosoftYaHei-29" transform="translate(385.742188 0)"/>
    </g>
   </g>
   <g id="text_28">
    <!-- Dd(高茎) -->
    <g style="fill: #27ae60" transform="translate(343.303906 159.66) scale(0.08 -0.08)">
     <use xlink:href="#MicrosoftYaHei-44"/>
     <use xlink:href="#MicrosoftYaHei-64" transform="translate(76.171875 0)"/>
     <use xlink:href="#MicrosoftYaHei-28" transform="translate(140.136719 0)"/>
     <use xlink:href="#MicrosoftYaHei-9ad8" transform="translate(173.535156 0)"/>
     <use xlink:href="#MicrosoftYaHei-830e" transform="translate(273.535156 0)"/>
     <use xlink:href="#MicrosoftYaHei-29" transform="translate(373.535156 0)"/>
    </g>
   </g>
   <g id="text_29">
    <!-- Dd(高茎) -->
    <g style="fill: #27ae60" transform="translate(343.303906 176.04) scale(0.08 -0.08)">
     <use xlink:href="#MicrosoftYaHei-44"/>
     <use xlink:href="#MicrosoftYaHei-64" transform="translate(76.171875 0)"/>
     <use xlink:href="#MicrosoftYaHei-28" transform="translate(140.136719 0)"/>
     <use xlink:href="#MicrosoftYaHei-9ad8" transform="translate(173.535156 0)"/>
     <use xlink:href="#MicrosoftYaHei-830e" transform="translate(273.535156 0)"/>
     <use xlink:href="#MicrosoftYaHei-29" transform="translate(373.535156 0)"/>
    </g>
   </g>
   <g id="text_30">
    <!-- dd(矮茎) -->
    <g style="fill: #e67e22" transform="translate(387.1392 176.04) scale(0.08 -0.08)">
     <use xlink:href="#MicrosoftYaHei-64"/>
     <use xlink:href="#MicrosoftYaHei-64" transform="translate(63.964844 0)"/>
     <use xlink:href="#MicrosoftYaHei-28" transform="translate(127.929688 0)"/>
     <use xlink:href="#MicrosoftYaHei-77ee" transform="translate(161.328125 0)"/>
     <use xlink:href="#MicrosoftYaHei-830e" transform="translate(261.328125 0)"/>
     <use xlink:href="#MicrosoftYaHei-29" transform="translate(361.328125 0)"/>
    </g>
   </g>
   <g id="text_31">
    <!-- 比例  3    :   1 -->
    <g style="fill: #c0392b" transform="translate(334.536847 198.972) scale(0.1 -0.1)">
     <defs>
      <path id="MicrosoftYaHei-Bold-6bd4" d="M 5481 4441 
L 6294 3803 
Q 5234 2791 4119 1894 
L 4119 547 
Q 4119 153 4438 153 
L 4875 153 
Q 5119 153 5197 325 
Q 5275 497 5363 1597 
Q 5856 1409 6294 1278 
Q 6231 688 6131 248 
Q 6031 -191 5900 -358 
Q 5769 -525 5511 -617 
Q 5253 -709 4881 -709 
L 4094 -709 
Q 3194 -709 3194 247 
L 3194 5316 
L 4119 5316 
L 4119 3009 
Q 4797 3656 5481 4441 
z
M 1419 5241 
L 1419 3453 
L 2850 3453 
L 2850 2591 
L 1419 2591 
L 1419 372 
L 2869 866 
Q 2856 372 2888 -78 
Q 1500 -503 725 -922 
L 275 -184 
Q 494 -16 494 366 
L 494 5241 
L 1419 5241 
z
" transform="scale(0.015625)"/>
      <path id="MicrosoftYaHei-Bold-4f8b" d="M 1025 5303 
L 1756 5159 
Q 1619 4544 1431 3950 
L 1431 -803 
L 700 -803 
L 700 2103 
Q 513 1713 300 1334 
Q 250 1722 100 2497 
Q 731 3853 1025 5303 
z
M 5275 5234 
L 6056 5234 
L 6056 184 
Q 6056 -244 5868 -472 
Q 5681 -700 5342 -731 
Q 5003 -763 4381 -747 
Q 4338 -391 4225 116 
Q 4706 84 4963 84 
Q 5275 84 5275 484 
L 5275 5234 
z
M 1788 5022 
L 3975 5022 
L 3975 4259 
L 2922 4259 
Q 2878 3944 2813 3647 
L 3938 3647 
Q 3938 428 2131 -822 
Q 1888 -534 1519 -197 
Q 2294 338 2703 1131 
Q 2425 1422 2106 1688 
Q 1991 1475 1856 1284 
Q 1700 1628 1463 2059 
Q 2006 3003 2156 4259 
L 1788 4259 
L 1788 5022 
z
M 3003 1909 
Q 3125 2366 3156 2891 
L 2622 2891 
Q 2534 2613 2428 2353 
Q 2722 2134 3003 1909 
z
M 4194 4766 
L 4894 4766 
L 4894 572 
L 4194 572 
L 4194 4766 
z
" transform="scale(0.015625)"/>
      <path id="MicrosoftYaHei-Bold-20" transform="scale(0.015625)"/>
     </defs>
     <use xlink:href="#MicrosoftYaHei-Bold-6bd4"/>
     <use xlink:href="#MicrosoftYaHei-Bold-4f8b" transform="translate(100 0)"/>
     <use xlink:href="#MicrosoftYaHei-Bold-20" transform="translate(200 0)"/>
     <use xlink:href="#MicrosoftYaHei-Bold-20" transform="translate(229.785156 0)"/>
     <use xlink:href="#MicrosoftYaHei-Bold-33" transform="translate(259.570312 0)"/>
     <use xlink:href="#MicrosoftYaHei-Bold-20" transform="translate(321.240234 0)"/>
     <use xlink:href="#MicrosoftYaHei-Bold-20" transform="translate(351.025391 0)"/>
     <use xlink:href="#MicrosoftYaHei-Bold-20" transform="translate(380.810547 0)"/>
     <use xlink:href="#MicrosoftYaHei-Bold-20" transform="translate(410.595703 0)"/>
     <use xlink:href="#MicrosoftYaHei-Bold-3a" transform="translate(440.380859 0)"/>
     <use xlink:href="#MicrosoftYaHei-Bold-20" transform="translate(468.945312 0)"/>
     <use xlink:href="#MicrosoftYaHei-Bold-20" transform="translate(498.730469 0)"/>
     <use xlink:href="#MicrosoftYaHei-Bold-20" transform="translate(528.515625 0)"/>
     <use xlink:href="#MicrosoftYaHei-Bold-31" transform="translate(558.300781 0)"/>
    </g>
   </g>
   <g id="text_32">
    <!-- 配子: D  d -->
    <g style="fill: #555555" transform="translate(316.416847 107.244) scale(0.08 -0.08)">
     <defs>
      <path id="MicrosoftYaHei-914d" d="M 388 3697 
L 1244 3697 
L 1244 4516 
L 194 4516 
L 194 4928 
L 3506 4928 
L 3506 4516 
L 2469 4516 
L 2469 3697 
L 3375 3697 
L 3375 -766 
L 2956 -766 
L 2956 -366 
L 806 -366 
L 806 -772 
L 388 -772 
L 388 3697 
z
M 3831 2916 
L 5488 2916 
L 5488 4541 
L 3725 4541 
L 3725 4978 
L 5938 4978 
L 5938 2234 
L 5488 2234 
L 5488 2478 
L 4281 2478 
L 4281 316 
Q 4281 -178 4706 -178 
L 5300 -178 
Q 5669 -178 5719 191 
Q 5800 609 5831 1203 
Q 6006 1116 6300 997 
Q 6256 491 6169 34 
Q 6063 -628 5381 -628 
L 4575 -628 
Q 3831 -628 3831 253 
L 3831 2916 
z
M 2069 2291 
L 2069 3297 
L 1644 3297 
L 1644 3047 
Q 1644 2047 1125 1391 
Q 975 1538 806 1697 
L 806 1178 
L 2956 1178 
L 2956 1778 
L 2513 1778 
Q 2069 1778 2069 2291 
z
M 806 34 
L 2956 34 
L 2956 784 
L 806 784 
L 806 34 
z
M 2956 3297 
L 2469 3297 
L 2469 2428 
Q 2456 2147 2700 2166 
L 2956 2166 
L 2956 3297 
z
M 806 1738 
Q 1244 2234 1244 3078 
L 1244 3297 
L 806 3297 
L 806 1738 
z
M 1644 3697 
L 2069 3697 
L 2069 4516 
L 1644 4516 
L 1644 3697 
z
" transform="scale(0.015625)"/>
      <path id="MicrosoftYaHei-5b50" d="M 125 2497 
L 3031 2497 
L 3031 3184 
L 4825 4491 
L 781 4491 
L 781 4959 
L 5656 4959 
L 5656 4472 
L 3563 2941 
L 3563 2497 
L 6300 2497 
L 6300 2028 
L 3563 2028 
L 3563 59 
Q 3563 -778 2688 -778 
Q 2400 -778 1700 -766 
Q 1675 -516 1625 -197 
Q 2081 -253 2588 -259 
Q 3031 -259 3031 191 
L 3031 2028 
L 125 2028 
L 125 2497 
z
" transform="scale(0.015625)"/>
      <path id="MicrosoftYaHei-3a" d="M 372 3134 
Q 372 3303 490 3415 
Q 609 3528 775 3528 
Q 944 3528 1062 3414 
Q 1181 3300 1181 3134 
Q 1181 2969 1065 2853 
Q 950 2738 772 2738 
Q 603 2738 487 2853 
Q 372 2969 372 3134 
z
M 372 322 
Q 372 491 487 606 
Q 603 722 775 722 
Q 950 722 1065 605 
Q 1181 488 1181 322 
Q 1181 159 1065 42 
Q 950 -75 772 -75 
Q 600 -75 486 42 
Q 372 159 372 322 
z
" transform="scale(0.015625)"/>
     </defs>
     <use xlink:href="#MicrosoftYaHei-914d"/>
     <use xlink:href="#MicrosoftYaHei-5b50" transform="translate(100 0)"/>
     <use xlink:href="#MicrosoftYaHei-3a" transform="translate(200 0)"/>
     <use xlink:href="#MicrosoftYaHei-20" transform="translate(224.072266 0)"/>
     <use xlink:href="#MicrosoftYaHei-44" transform="translate(253.662109 0)"/>
     <use xlink:href="#MicrosoftYaHei-20" transform="translate(329.833984 0)"/>
     <use xlink:href="#MicrosoftYaHei-20" transform="translate(359.423828 0)"/>
     <use xlink:href="#MicrosoftYaHei-64" transform="translate(389.013672 0)"/>
    </g>
   </g>
   <g id="text_33">
    <!-- 遗传图解 -->
    <g style="fill: #1a1a2e" transform="translate(321.303906 35) scale(0.11 -0.11)">
     <defs>
      <path id="MicrosoftYaHei-Bold-9057" d="M 2069 4997 
L 3606 4997 
L 3606 5341 
L 4394 5341 
L 4394 4997 
L 5931 4997 
L 5931 3578 
L 4394 3578 
L 4394 3297 
L 6250 3297 
L 6250 2734 
L 1750 2734 
L 1750 3297 
L 3606 3297 
L 3606 3578 
L 2069 3578 
L 2069 4997 
z
M 5156 4459 
L 4394 4459 
L 4394 4116 
L 5156 4116 
L 5156 4459 
z
M 2844 4116 
L 3606 4116 
L 3606 4459 
L 2844 4459 
L 2844 4116 
z
M 938 5322 
Q 1475 4672 1806 4178 
Q 1400 3922 1069 3691 
Q 669 4359 263 4878 
L 938 5322 
z
M 3588 1784 
L 4400 1784 
Q 4388 1500 4306 1259 
Q 5416 878 6106 591 
L 5753 38 
L 6300 47 
L 5994 -753 
L 3772 -728 
L 2447 -703 
Q 2153 -694 1789 -562 
Q 1425 -431 1138 -103 
L 456 -884 
L 100 78 
Q 356 306 694 594 
L 694 2309 
L 138 2309 
L 138 3134 
L 1475 3134 
L 1475 572 
Q 1709 247 2178 119 
Q 2053 372 1875 697 
Q 2772 759 3181 1001 
Q 3591 1244 3588 1784 
z
M 2503 56 
Q 2856 22 3963 22 
Q 4613 22 5525 34 
Q 4838 356 3975 713 
Q 3594 284 2503 56 
z
M 2875 1009 
L 2088 1009 
L 2088 2453 
L 5906 2453 
L 5906 1009 
L 5119 1009 
L 5119 1922 
L 2875 1922 
L 2875 1009 
z
" transform="scale(0.015625)"/>
      <path id="MicrosoftYaHei-Bold-4f20" d="M 1306 5347 
L 2131 5128 
Q 1891 4375 1600 3681 
L 1600 -853 
L 806 -853 
L 806 2041 
Q 556 1597 281 1178 
Q 206 1672 75 2347 
Q 856 3609 1306 5347 
z
M 2325 334 
L 2738 1009 
Q 3278 816 4028 516 
L 4819 1297 
L 2450 1297 
L 2450 1978 
Q 2550 2263 2647 2559 
L 1875 2559 
L 1875 3272 
L 2866 3272 
L 3025 3828 
L 2175 3828 
L 2175 4528 
L 3209 4528 
L 3388 5278 
L 4319 5278 
L 4134 4528 
L 6075 4528 
L 6075 3828 
L 3950 3828 
L 3794 3272 
L 6300 3272 
L 6300 2559 
L 3578 2559 
Q 3488 2269 3394 1997 
L 6019 1997 
L 6019 1341 
L 4872 169 
L 5650 -159 
L 5206 -897 
Q 4088 -359 2325 334 
z
" transform="scale(0.015625)"/>
      <path id="MicrosoftYaHei-Bold-56fe" d="M 369 -841 
L 369 5072 
L 6019 5072 
L 6019 -834 
L 5156 -834 
L 5156 -591 
L 1231 -591 
L 1231 -841 
L 369 -841 
z
M 4875 3978 
L 4875 3466 
Q 4547 3022 4006 2678 
Q 4513 2541 5156 2463 
L 5156 4316 
L 3256 4316 
Q 3141 4144 3009 3978 
L 4875 3978 
z
M 2394 4316 
L 1231 4316 
L 1231 3231 
Q 2016 3747 2394 4316 
z
M 3228 2959 
Q 3666 3163 3919 3416 
L 2575 3416 
Q 2828 3156 3228 2959 
z
M 1644 2747 
Q 1481 2925 1231 3147 
L 1231 2400 
Q 1950 2522 2500 2688 
Q 2266 2863 2078 3063 
Q 1872 2900 1644 2747 
z
M 1669 1303 
Q 3319 1084 4775 841 
L 4600 166 
L 5156 166 
L 5156 2388 
Q 5019 2159 4825 1822 
Q 3897 1978 3219 2275 
Q 2872 2134 2472 2019 
Q 3509 1888 4500 1722 
L 4375 1128 
Q 3344 1309 2063 1484 
L 2159 1934 
Q 1856 1859 1525 1797 
Q 1409 2059 1231 2347 
L 1231 166 
L 4569 166 
Q 3297 425 1494 647 
L 1669 1303 
z
" transform="scale(0.015625)"/>
      <path id="MicrosoftYaHei-Bold-89e3" d="M 3188 953 
L 4475 953 
L 4475 1641 
L 3888 1641 
Q 3769 1331 3619 1078 
Q 3288 1263 3013 1381 
L 3013 47 
Q 3013 -316 2888 -517 
Q 2763 -719 2517 -758 
Q 2272 -797 1963 -797 
L 1884 -403 
L 1406 -403 
L 1406 778 
L 1034 778 
Q 941 -281 656 -897 
Q 350 -516 69 -259 
Q 419 541 419 2078 
L 419 3113 
Q 359 3053 300 2997 
Q 225 3403 81 3866 
Q 725 4522 1075 5359 
L 1838 5259 
Q 1759 5072 1672 4891 
L 2806 4891 
L 2806 4303 
L 2488 3734 
L 3013 3734 
L 3013 1541 
Q 3384 2147 3488 2803 
L 4169 2709 
Q 4134 2513 4091 2328 
L 4475 2328 
L 4475 2853 
L 5263 2853 
L 5263 2328 
L 6131 2328 
L 6131 1641 
L 5263 1641 
L 5263 953 
L 6281 953 
L 6281 266 
L 5263 266 
L 5263 -822 
L 4475 -822 
L 4475 266 
L 3188 266 
L 3188 953 
z
M 963 3734 
L 1697 3734 
L 2000 4278 
L 1338 4278 
Q 1166 3997 963 3734 
z
M 2363 3134 
L 2006 3134 
L 2006 2541 
L 2363 2541 
L 2363 3134 
z
M 1081 2541 
L 1406 2541 
L 1406 3134 
L 1081 3134 
L 1081 2541 
z
M 2006 1366 
L 2363 1366 
L 2363 1953 
L 2006 1953 
L 2006 1366 
z
M 1072 1366 
L 1406 1366 
L 1406 1953 
L 1081 1953 
Q 1081 1909 1072 1366 
z
M 2363 778 
L 2006 778 
L 2006 -81 
Q 2231 -91 2297 -22 
Q 2363 47 2363 247 
L 2363 778 
z
M 4581 2978 
Q 4522 3366 4416 3697 
Q 4206 3203 3581 2816 
Q 3338 3153 3019 3484 
Q 3725 3841 3775 4416 
L 3194 4416 
L 3194 5097 
L 6119 5097 
Q 6103 3772 5973 3492 
Q 5844 3213 5614 3095 
Q 5384 2978 4581 2978 
z
M 4428 3725 
Q 4741 3709 4894 3709 
Q 5122 3709 5198 3821 
Q 5275 3934 5275 4416 
L 4581 4416 
Q 4544 4019 4428 3725 
z
" transform="scale(0.015625)"/>
     </defs>
     <use xlink:href="#MicrosoftYaHei-Bold-9057"/>
     <use xlink:href="#MicrosoftYaHei-Bold-4f20" transform="translate(100 0)"/>
     <use xlink:href="#MicrosoftYaHei-Bold-56fe" transform="translate(200 0)"/>
     <use xlink:href="#MicrosoftYaHei-Bold-89e3" transform="translate(300 0)"/>
    </g>
   </g>
  </g>
  <g id="axes_3">
   <g id="patch_16">
    <path d="M 509.878024 96.1056 
C 513.365601 96.1056 516.710805 94.862952 519.176894 92.651335 
C 521.642983 90.439717 523.028612 87.439699 523.028612 84.312 
C 523.028612 81.184301 521.642983 78.184283 519.176894 75.972665 
C 516.710805 73.761048 513.365601 72.5184 509.878024 72.5184 
C 506.390447 72.5184 503.045243 73.761048 500.579154 75.972665 
C 498.113065 78.184283 496.727436 81.184301 496.727436 84.312 
C 496.727436 87.439699 498.113065 90.439717 500.579154 92.651335 
C 503.045243 94.862952 506.390447 96.1056 509.878024 96.1056 
z
" clip-path="url(#p85d7bd248e)" style="fill: #3498db; opacity: 0.3; stroke: #3498db; stroke-linejoin: miter"/>
   </g>
   <g id="patch_17">
    <path d="M 575.630965 96.1056 
C 579.118542 96.1056 582.463746 94.862952 584.929835 92.651335 
C 587.395924 90.439717 588.781553 87.439699 588.781553 84.312 
C 588.781553 81.184301 587.395924 78.184283 584.929835 75.972665 
C 582.463746 73.761048 579.118542 72.5184 575.630965 72.5184 
C 572.143388 72.5184 568.798184 73.761048 566.332095 75.972665 
C 563.866006 78.184283 562.480377 81.184301 562.480377 84.312 
C 562.480377 87.439699 563.866006 90.439717 566.332095 92.651335 
C 568.798184 94.862952 572.143388 96.1056 575.630965 96.1056 
z
" clip-path="url(#p85d7bd248e)" style="fill: #e74c3c; opacity: 0.3; stroke: #e74c3c; stroke-linejoin: miter"/>
   </g>
   <g id="patch_18">
    <path d="M 509.878024 123.624 
C 513.365601 123.624 516.710805 122.381352 519.176894 120.169735 
C 521.642983 117.958117 523.028612 114.958099 523.028612 111.8304 
C 523.028612 108.702701 521.642983 105.702683 519.176894 103.491065 
C 516.710805 101.279448 513.365601 100.0368 509.878024 100.0368 
C 506.390447 100.0368 503.045243 101.279448 500.579154 103.491065 
C 498.113065 105.702683 496.727436 108.702701 496.727436 111.8304 
C 496.727436 114.958099 498.113065 117.958117 500.579154 120.169735 
C 503.045243 122.381352 506.390447 123.624 509.878024 123.624 
z
" clip-path="url(#p85d7bd248e)" style="fill: #3498db; opacity: 0.3; stroke: #3498db; stroke-linejoin: miter"/>
   </g>
   <g id="patch_19">
    <path d="M 575.630965 123.624 
C 579.118542 123.624 582.463746 122.381352 584.929835 120.169735 
C 587.395924 117.958117 588.781553 114.958099 588.781553 111.8304 
C 588.781553 108.702701 587.395924 105.702683 584.929835 103.491065 
C 582.463746 101.279448 579.118542 100.0368 575.630965 100.0368 
C 572.143388 100.0368 568.798184 101.279448 566.332095 103.491065 
C 563.866006 105.702683 562.480377 108.702701 562.480377 111.8304 
C 562.480377 114.958099 563.866006 117.958117 566.332095 120.169735 
C 568.798184 122.381352 572.143388 123.624 575.630965 123.624 
z
" clip-path="url(#p85d7bd248e)" style="fill: #e74c3c; opacity: 0.3; stroke: #e74c3c; stroke-linejoin: miter"/>
   </g>
   <g id="patch_20">
    <path d="M 509.878024 180.6264 
C 512.784338 180.6264 515.572008 179.59086 517.627082 177.747845 
C 519.682157 175.904831 520.836847 173.404816 520.836847 170.7984 
C 520.836847 168.191984 519.682157 165.691969 517.627082 163.848955 
C 515.572008 162.00594 512.784338 160.9704 509.878024 160.9704 
C 506.97171 160.9704 504.18404 162.00594 502.128965 163.848955 
C 500.073891 165.691969 498.9192 168.191984 498.9192 170.7984 
C 498.9192 173.404816 500.073891 175.904831 502.128965 177.747845 
C 504.18404 179.59086 506.97171 180.6264 509.878024 180.6264 
z
" clip-path="url(#p85d7bd248e)" style="fill: #3498db; opacity: 0.5; stroke: #3498db; stroke-linejoin: miter"/>
   </g>
   <g id="patch_21">
    <path d="M 540.56273 180.6264 
C 543.469044 180.6264 546.256714 179.59086 548.311788 177.747845 
C 550.366863 175.904831 551.521553 173.404816 551.521553 170.7984 
C 551.521553 168.191984 550.366863 165.691969 548.311788 163.848955 
C 546.256714 162.00594 543.469044 160.9704 540.56273 160.9704 
C 537.656416 160.9704 534.868746 162.00594 532.813671 163.848955 
C 530.758597 165.691969 529.603906 168.191984 529.603906 170.7984 
C 529.603906 173.404816 530.758597 175.904831 532.813671 177.747845 
C 534.868746 179.59086 537.656416 180.6264 540.56273 180.6264 
z
" clip-path="url(#p85d7bd248e)" style="fill: #3498db; opacity: 0.5; stroke: #3498db; stroke-linejoin: miter"/>
   </g>
   <g id="patch_22">
    <path d="M 571.247436 180.6264 
C 574.15375 180.6264 576.94142 179.59086 578.996494 177.747845 
C 581.051568 175.904831 582.206259 173.404816 582.206259 170.7984 
C 582.206259 168.191984 581.051568 165.691969 578.996494 163.848955 
C 576.94142 162.00594 574.15375 160.9704 571.247436 160.9704 
C 568.341122 160.9704 565.553452 162.00594 563.498377 163.848955 
C 561.443303 165.691969 560.288612 168.191984 560.288612 170.7984 
C 560.288612 173.404816 561.443303 175.904831 563.498377 177.747845 
C 565.553452 179.59086 568.341122 180.6264 571.247436 180.6264 
z
" clip-path="url(#p85d7bd248e)" style="fill: #e74c3c; opacity: 0.5; stroke: #e74c3c; stroke-linejoin: miter"/>
   </g>
   <g id="patch_23">
    <path d="M 601.932142 180.6264 
C 604.838456 180.6264 607.626126 179.59086 609.6812 177.747845 
C 611.736274 175.904831 612.890965 173.404816 612.890965 170.7984 
C 612.890965 168.191984 611.736274 165.691969 609.6812 163.848955 
C 607.626126 162.00594 604.838456 160.9704 601.932142 160.9704 
C 599.025828 160.9704 596.238157 162.00594 594.183083 163.848955 
C 592.128009 165.691969 590.973318 168.191984 590.973318 170.7984 
C 590.973318 173.404816 592.128009 175.904831 594.183083 177.747845 
C 596.238157 179.59086 599.025828 180.6264 601.932142 180.6264 
z
" clip-path="url(#p85d7bd248e)" style="fill: #e74c3c; opacity: 0.5; stroke: #e74c3c; stroke-linejoin: miter"/>
   </g>
   <g id="text_34">
    <!-- D -->
    <g style="fill: #3498db" transform="translate(505.128649 87.616688) scale(0.12 -0.12)">
     <defs>
      <path id="MicrosoftYaHei-Bold-44" d="M 559 0 
L 559 4841 
L 2231 4841 
Q 4809 4841 4809 2481 
Q 4809 1359 4087 679 
Q 3366 0 2225 0 
L 559 0 
z
M 1591 3997 
L 1591 844 
L 2153 844 
Q 2888 844 3306 1281 
Q 3725 1719 3725 2466 
Q 3725 3188 3287 3592 
Q 2850 3997 2150 3997 
L 1591 3997 
z
" transform="scale(0.015625)"/>
     </defs>
     <use xlink:href="#MicrosoftYaHei-Bold-44"/>
    </g>
   </g>
   <g id="text_35">
    <!-- d -->
    <g style="fill: #e74c3c" transform="translate(571.643778 87.616688) scale(0.12 -0.12)">
     <defs>
      <path id="MicrosoftYaHei-Bold-64" d="M 3794 0 
L 2788 0 
L 2788 488 
L 2772 488 
Q 2406 -84 1691 -84 
Q 1031 -84 642 381 
Q 253 847 253 1650 
Q 253 2500 689 3020 
Q 1125 3541 1828 3541 
Q 2503 3541 2772 3053 
L 2788 3053 
L 2788 5116 
L 3794 5116 
L 3794 0 
z
M 2803 1956 
Q 2803 2306 2592 2536 
Q 2381 2766 2066 2766 
Q 1697 2766 1486 2473 
Q 1275 2181 1275 1681 
Q 1275 1206 1478 948 
Q 1681 691 2038 691 
Q 2372 691 2587 962 
Q 2803 1234 2803 1669 
L 2803 1956 
z
" transform="scale(0.015625)"/>
     </defs>
     <use xlink:href="#MicrosoftYaHei-Bold-64"/>
    </g>
   </g>
   <g id="text_36">
    <!-- 母本 -->
    <g style="fill: #555555" transform="translate(457.275671 84.312) scale(0.08 -0.08)">
     <defs>
      <path id="MicrosoftYaHei-6bcd" d="M 119 2891 
L 897 2891 
L 1175 4959 
L 5513 4959 
Q 5463 3803 5419 2891 
L 6288 2891 
L 6288 2441 
L 5400 2441 
Q 5353 1444 5319 778 
L 6031 778 
L 6031 341 
L 5291 341 
Q 5231 -256 5000 -472 
Q 4750 -709 4056 -709 
Q 3569 -709 3094 -672 
Q 3056 -359 2994 -116 
Q 3606 -203 4038 -203 
Q 4450 -203 4600 -53 
Q 4706 47 4756 341 
L 619 341 
L 619 809 
L 838 2441 
L 119 2441 
L 119 2891 
z
M 1138 778 
L 4800 778 
Q 4847 1491 4891 2441 
L 1353 2441 
L 1138 778 
z
M 4975 4522 
L 1625 4522 
L 1413 2891 
L 4913 2891 
Q 4944 3641 4975 4522 
z
M 2406 1966 
L 2763 2272 
Q 3281 1803 3738 1278 
L 3331 928 
Q 2881 1459 2406 1966 
z
M 2531 4066 
L 2894 4378 
Q 3413 3903 3869 3384 
L 3456 3034 
Q 3069 3522 2531 4066 
z
" transform="scale(0.015625)"/>
      <path id="MicrosoftYaHei-672c" d="M 6281 803 
Q 6119 641 5856 366 
Q 4344 1531 3444 3353 
L 3444 878 
L 4875 878 
L 4875 441 
L 3444 441 
L 3444 -841 
L 2956 -841 
L 2956 441 
L 1475 441 
L 1475 878 
L 2956 878 
L 2956 3353 
Q 2159 1766 513 291 
Q 269 522 100 666 
Q 1878 2125 2759 3753 
L 238 3753 
L 238 4216 
L 2956 4216 
L 2956 5341 
L 3444 5341 
L 3444 4216 
L 6163 4216 
L 6163 3753 
L 3622 3753 
Q 4616 1884 6281 803 
z
" transform="scale(0.015625)"/>
     </defs>
     <use xlink:href="#MicrosoftYaHei-6bcd"/>
     <use xlink:href="#MicrosoftYaHei-672c" transform="translate(100 0)"/>
    </g>
   </g>
   <g id="text_37">
    <!-- d -->
    <g style="fill: #3498db" transform="translate(505.890836 115.135087) scale(0.12 -0.12)">
     <use xlink:href="#MicrosoftYaHei-Bold-64"/>
    </g>
   </g>
   <g id="text_38">
    <!-- d -->
    <g style="fill: #e74c3c" transform="translate(571.643778 115.135087) scale(0.12 -0.12)">
     <use xlink:href="#MicrosoftYaHei-Bold-64"/>
    </g>
   </g>
   <g id="text_39">
    <!-- 父本 -->
    <g style="fill: #555555" transform="translate(457.275671 111.8304) scale(0.08 -0.08)">
     <defs>
      <path id="MicrosoftYaHei-7236" d="M 4513 3397 
L 5000 3209 
Q 4541 1822 3616 875 
Q 4406 294 6244 -197 
Q 5956 -522 5806 -741 
Q 4022 -116 3225 513 
Q 2294 -247 506 -791 
Q 344 -572 131 -303 
Q 1969 166 2853 853 
Q 1931 1806 1494 3172 
L 1950 3391 
Q 2344 2063 3238 1203 
Q 4113 2122 4513 3397 
z
M 2338 5178 
L 2769 4872 
Q 1800 3641 650 2703 
Q 494 2891 294 3103 
Q 1413 3972 2338 5178 
z
M 4025 5172 
Q 5369 4103 6269 3228 
L 5894 2816 
Q 4875 3841 3681 4828 
L 4025 5172 
z
" transform="scale(0.015625)"/>
     </defs>
     <use xlink:href="#MicrosoftYaHei-7236"/>
     <use xlink:href="#MicrosoftYaHei-672c" transform="translate(100 0)"/>
    </g>
   </g>
   <g id="patch_24">
    <path d="M 542.754494 93.981697 
Q 542.754494 111.733709 542.754494 128.367688 
" style="fill: none; stroke: #888888; stroke-linecap: round"/>
    <path d="M 544.154494 125.567688 
L 542.754494 128.367688 
L 541.354494 125.567688 
" style="fill: none; stroke: #888888; stroke-linecap: round"/>
   </g>
   <g id="text_40">
    <!-- 减数 -->
    <g style="fill: #888888" transform="translate(535.754494 79.788294) scale(0.07 -0.07)">
     <defs>
      <path id="MicrosoftYaHei-51cf" d="M 3406 -484 
Q 4103 84 4628 878 
Q 4381 1866 4347 3872 
L 2269 3872 
L 2269 2278 
Q 2269 366 1381 -809 
Q 1150 -566 1000 -466 
Q 1831 584 1831 2303 
L 1831 4297 
L 4338 4297 
Q 4331 4800 4331 5278 
L 4788 5278 
Q 4788 4803 4791 4297 
L 6300 4297 
L 6300 3872 
L 4794 3872 
Q 4806 2363 4972 1453 
Q 5403 2256 5688 3253 
L 6138 3097 
Q 5716 1794 5122 813 
Q 5281 250 5488 -47 
Q 5688 -291 5763 53 
Q 5831 422 5881 953 
Q 6175 847 6344 797 
Q 6256 134 6150 -297 
Q 6013 -791 5700 -784 
Q 5431 -791 5194 -478 
Q 4959 -128 4797 316 
Q 4347 -313 3813 -784 
Q 3619 -616 3406 -484 
z
M 2656 2347 
L 4069 2347 
L 4069 509 
L 3069 509 
L 3069 122 
L 2656 122 
L 2656 2347 
z
M 131 16 
Q 519 1059 925 2609 
Q 1163 2497 1388 2409 
Q 1106 1403 638 -153 
L 131 16 
z
M 244 4541 
L 631 4809 
Q 1069 4303 1506 3728 
L 1075 3416 
Q 563 4153 244 4541 
z
M 3656 897 
L 3656 1959 
L 3069 1959 
L 3069 897 
L 3656 897 
z
M 2544 3316 
L 4088 3316 
L 4088 2916 
L 2544 2916 
L 2544 3316 
z
M 5050 5041 
L 5369 5291 
Q 5681 4978 5963 4666 
L 5606 4384 
Q 5350 4709 5050 5041 
z
" transform="scale(0.015625)"/>
      <path id="MicrosoftYaHei-6570" d="M 4175 5303 
L 4675 5228 
Q 4544 4622 4369 4097 
L 6281 4097 
L 6281 3672 
L 5888 3672 
Q 5731 1834 5088 753 
Q 5594 66 6375 -372 
Q 6175 -647 6038 -866 
Q 5275 -372 4769 309 
Q 4194 -403 3400 -928 
Q 3263 -747 3044 -534 
Q 3919 41 4463 772 
Q 3956 1647 3794 2791 
Q 3663 2559 3519 2359 
Q 3394 2541 3206 2759 
Q 3931 3803 4175 5303 
z
M 150 1697 
L 1100 1697 
Q 1238 1934 1369 2184 
L 1819 2041 
Q 1719 1866 1619 1697 
L 3150 1697 
L 3150 1291 
Q 2913 678 2431 216 
Q 2775 53 3131 -109 
L 2856 -541 
Q 2469 -322 2050 -103 
Q 1344 -609 269 -903 
Q 169 -703 56 -466 
Q 969 -259 1600 128 
Q 1063 403 475 691 
Q 675 978 863 1284 
L 150 1284 
L 150 1697 
z
M 219 3847 
L 1656 3847 
L 1656 5247 
L 2119 5247 
L 2119 3847 
L 3319 3847 
L 3319 3434 
L 2119 3434 
L 2119 3053 
L 2306 3266 
Q 2888 2841 3281 2516 
L 2981 2166 
Q 2638 2491 2119 2897 
L 2119 2184 
L 1656 2184 
L 1656 3059 
Q 1088 2466 331 2016 
Q 213 2197 63 2397 
Q 850 2822 1506 3434 
L 219 3434 
L 219 3847 
z
M 5388 3672 
L 4219 3672 
Q 4188 3591 4150 3516 
Q 4263 2191 4775 1247 
Q 5275 2159 5388 3672 
z
M 1088 834 
Q 1531 634 2000 416 
Q 2431 784 2675 1284 
L 1375 1284 
Q 1231 1053 1088 834 
z
M 3038 5091 
L 3425 4834 
Q 3081 4384 2738 4003 
Q 2594 4128 2400 4266 
Q 2725 4647 3038 5091 
z
M 381 4816 
L 738 5059 
Q 1019 4716 1319 4322 
L 931 4047 
Q 656 4453 381 4816 
z
" transform="scale(0.015625)"/>
     </defs>
     <use xlink:href="#MicrosoftYaHei-51cf"/>
     <use xlink:href="#MicrosoftYaHei-6570" transform="translate(100 0)"/>
    </g>
    <!-- 分裂 -->
    <g style="fill: #888888" transform="translate(535.754494 88.2432) scale(0.07 -0.07)">
     <defs>
      <path id="MicrosoftYaHei-5206" d="M 900 2559 
L 5056 2559 
Q 5025 1497 4963 484 
Q 4888 -684 3856 -678 
Q 3350 -684 2788 -647 
Q 2750 -384 2700 -116 
Q 3181 -184 3775 -191 
Q 4400 -203 4463 541 
Q 4513 1216 4538 2097 
L 2616 2097 
Q 2541 1053 2181 416 
Q 1706 -422 588 -878 
Q 425 -666 231 -459 
Q 1269 -72 1725 666 
Q 2053 1225 2103 2097 
L 900 2097 
L 900 2559 
z
M 3488 5159 
L 3938 5353 
Q 4625 3678 6350 2847 
Q 6069 2553 5944 2372 
Q 4225 3366 3488 5159 
z
M 50 2766 
Q 1338 3678 2250 5253 
L 2694 5009 
Q 1744 3347 413 2341 
Q 281 2534 50 2766 
z
" transform="scale(0.015625)"/>
      <path id="MicrosoftYaHei-88c2" d="M 3563 178 
Q 3556 -72 3563 -303 
Q 2800 -516 2350 -678 
Q 2100 -772 1881 -891 
L 1625 -503 
Q 1794 -403 1775 -9 
L 1775 384 
Q 1150 47 350 -253 
Q 238 -41 81 172 
Q 1613 647 2513 1366 
L 306 1366 
L 306 1791 
L 3206 1791 
Q 3031 2078 2800 2378 
L 3194 2622 
Q 3456 2297 3644 2003 
L 3275 1791 
L 6125 1791 
L 6125 1366 
L 3450 1366 
Q 3713 903 4150 572 
Q 4913 909 5519 1247 
L 5769 822 
Q 5181 553 4569 303 
Q 5269 -59 6300 -191 
Q 6113 -434 5956 -659 
Q 3850 -272 3031 1266 
Q 2700 953 2238 653 
L 2238 -234 
Q 2900 -41 3563 178 
z
M 1306 3234 
L 1569 3528 
Q 1975 3259 2306 3016 
Q 2756 3328 3063 3741 
L 1519 3741 
Q 1063 3266 494 2916 
Q 381 3122 250 3303 
Q 1131 3816 1644 4578 
L 538 4578 
L 538 4991 
L 3750 4991 
L 3750 4578 
L 2175 4578 
Q 2038 4353 1875 4153 
L 3594 4153 
L 3594 3766 
Q 2838 2466 819 1872 
Q 725 2072 588 2284 
Q 1344 2472 1913 2778 
Q 1613 3016 1306 3234 
z
M 5856 5247 
L 5856 2878 
Q 5856 2159 5169 2153 
Q 4881 2147 4425 2153 
Q 4419 2178 4338 2628 
Q 4756 2591 5031 2591 
Q 5394 2591 5394 2978 
L 5394 5247 
L 5856 5247 
z
M 4150 4884 
L 4600 4884 
L 4600 3016 
L 4150 3016 
L 4150 4884 
z
" transform="scale(0.015625)"/>
     </defs>
     <use xlink:href="#MicrosoftYaHei-5206"/>
     <use xlink:href="#MicrosoftYaHei-88c2" transform="translate(100 0)"/>
    </g>
   </g>
   <g id="text_41">
    <!-- D -->
    <g style="fill: #1a1a2e" transform="translate(505.920211 173.552306) scale(0.1 -0.1)">
     <use xlink:href="#MicrosoftYaHei-Bold-44"/>
    </g>
   </g>
   <g id="text_42">
    <!-- D -->
    <g style="fill: #1a1a2e" transform="translate(536.604917 173.552306) scale(0.1 -0.1)">
     <use xlink:href="#MicrosoftYaHei-Bold-44"/>
    </g>
   </g>
   <g id="text_43">
    <!-- d -->
    <g style="fill: #1a1a2e" transform="translate(567.924779 173.552306) scale(0.1 -0.1)">
     <use xlink:href="#MicrosoftYaHei-Bold-64"/>
    </g>
   </g>
   <g id="text_44">
    <!-- d -->
    <g style="fill: #1a1a2e" transform="translate(598.609485 173.552306) scale(0.1 -0.1)">
     <use xlink:href="#MicrosoftYaHei-Bold-64"/>
    </g>
   </g>
   <g id="text_45">
    <!-- 配子种类: D 和 d 各占 50% -->
    <g style="fill: #555555" transform="translate(487.924807 194.3856) scale(0.09 -0.09)">
     <defs>
      <path id="MicrosoftYaHei-79cd" d="M 2700 4066 
L 4113 4066 
L 4113 5316 
L 4588 5316 
L 4588 4066 
L 6006 4066 
L 6006 1053 
L 5556 1053 
L 5556 1353 
L 4588 1353 
L 4588 -841 
L 4113 -841 
L 4113 1353 
L 3150 1353 
L 3150 1053 
L 2700 1053 
L 2700 4066 
z
M 88 878 
Q 669 1691 1063 2972 
L 119 2972 
L 119 3416 
L 1119 3416 
L 1119 4434 
Q 738 4403 294 4372 
Q 263 4584 200 4828 
Q 1475 4897 2425 5034 
L 2538 4559 
Q 2141 4519 1581 4472 
L 1581 3416 
L 2475 3416 
L 2475 2972 
L 1581 2972 
L 1581 2159 
L 1850 2378 
Q 2188 2028 2606 1516 
L 2225 1203 
Q 1888 1669 1581 2025 
L 1581 -828 
L 1119 -828 
L 1119 1894 
Q 791 972 306 341 
Q 206 603 88 878 
z
M 5556 3634 
L 4588 3634 
L 4588 1784 
L 5556 1784 
L 5556 3634 
z
M 3150 1784 
L 4113 1784 
L 4113 3634 
L 3150 3634 
L 3150 1784 
z
" transform="scale(0.015625)"/>
      <path id="MicrosoftYaHei-7c7b" d="M 6338 -359 
Q 6213 -503 6006 -853 
Q 3975 -459 3200 884 
Q 2644 -497 400 -897 
Q 288 -684 131 -434 
Q 2244 -147 2744 1047 
L 275 1047 
L 275 1484 
L 2875 1484 
Q 2925 1691 2956 1978 
L 3456 1978 
Q 3413 1697 3369 1484 
L 6125 1484 
L 6125 1047 
L 3619 1047 
Q 4450 -159 6338 -359 
z
M 325 3741 
L 2975 3741 
L 2975 5303 
L 3450 5303 
L 3450 3741 
L 6075 3741 
L 6075 3322 
L 3450 3322 
L 3450 2953 
L 3625 3191 
Q 5325 2528 6231 2128 
L 6013 1722 
Q 4956 2266 3450 2847 
L 3450 2197 
L 2975 2197 
L 2975 3241 
Q 1863 2191 450 1741 
Q 319 1934 144 2153 
Q 1569 2553 2538 3322 
L 325 3322 
L 325 3741 
z
M 5550 4784 
Q 5163 4459 4394 3891 
L 4069 4222 
Q 4569 4578 5194 5122 
L 5550 4784 
z
M 900 4791 
L 1206 5122 
Q 1875 4647 2306 4266 
L 1969 3897 
Q 1581 4284 900 4791 
z
" transform="scale(0.015625)"/>
      <path id="MicrosoftYaHei-548c" d="M 3263 4553 
L 6025 4553 
L 6025 -666 
L 5525 -666 
L 5525 -59 
L 3763 -59 
L 3763 -666 
L 3263 -666 
L 3263 4553 
z
M 5525 4091 
L 3763 4091 
L 3763 391 
L 5525 391 
L 5525 4091 
z
M 75 897 
Q 788 1841 1206 2997 
L 113 2997 
L 113 3422 
L 1306 3422 
L 1306 4409 
Q 819 4334 319 4272 
Q 263 4478 181 4703 
Q 1481 4847 2700 5128 
L 2844 4691 
Q 2325 4584 1781 4491 
L 1781 3422 
L 2950 3422 
L 2950 2997 
L 1781 2997 
L 1781 2191 
L 2006 2416 
Q 2500 1991 2975 1516 
L 2619 1153 
Q 2244 1584 1781 2034 
L 1781 -872 
L 1306 -872 
L 1306 2128 
Q 938 1203 313 359 
Q 213 603 75 897 
z
" transform="scale(0.015625)"/>
      <path id="MicrosoftYaHei-5404" d="M 1838 5366 
L 2325 5191 
Q 2191 4934 2038 4691 
L 5463 4691 
L 5463 4234 
Q 4819 3428 3806 2831 
Q 4881 2366 6375 2266 
Q 6169 1953 6025 1703 
Q 4388 1947 3272 2544 
Q 2022 1925 300 1578 
Q 169 1828 31 2059 
Q 1591 2303 2775 2844 
Q 2041 3347 1588 4038 
Q 1138 3444 569 2916 
Q 400 3122 225 3278 
Q 1288 4191 1838 5366 
z
M 1100 1666 
L 5363 1666 
L 5363 -803 
L 4875 -803 
L 4875 -441 
L 1588 -441 
L 1588 -803 
L 1100 -803 
L 1100 1666 
z
M 4875 1216 
L 1588 1216 
L 1588 -3 
L 4875 -3 
L 4875 1216 
z
M 4794 4241 
L 1988 4241 
Q 2494 3547 3275 3094 
Q 4153 3575 4794 4241 
z
" transform="scale(0.015625)"/>
      <path id="MicrosoftYaHei-5360" d="M 863 2434 
L 2775 2434 
L 2775 5259 
L 3288 5259 
L 3288 4209 
L 6150 4209 
L 6150 3747 
L 3288 3747 
L 3288 2434 
L 5525 2434 
L 5525 -841 
L 5025 -841 
L 5025 -453 
L 1363 -453 
L 1363 -853 
L 863 -853 
L 863 2434 
z
M 5025 1984 
L 1363 1984 
L 1363 -9 
L 5025 -9 
L 5025 1984 
z
" transform="scale(0.015625)"/>
      <path id="MicrosoftYaHei-35" d="M 3294 1494 
Q 3294 784 2823 350 
Q 2353 -84 1559 -84 
Q 878 -84 544 119 
L 544 744 
Q 1034 425 1544 425 
Q 2050 425 2361 704 
Q 2672 984 2672 1447 
Q 2672 1909 2348 2167 
Q 2025 2425 1434 2425 
Q 978 2425 613 2384 
L 791 4841 
L 3053 4841 
L 3053 4303 
L 1306 4303 
L 1206 2931 
L 1647 2950 
Q 2416 2950 2855 2567 
Q 3294 2184 3294 1494 
z
" transform="scale(0.015625)"/>
     </defs>
     <use xlink:href="#MicrosoftYaHei-914d"/>
     <use xlink:href="#MicrosoftYaHei-5b50" transform="translate(100 0)"/>
     <use xlink:href="#MicrosoftYaHei-79cd" transform="translate(200 0)"/>
     <use xlink:href="#MicrosoftYaHei-7c7b" transform="translate(300 0)"/>
     <use xlink:href="#MicrosoftYaHei-3a" transform="translate(400 0)"/>
     <use xlink:href="#MicrosoftYaHei-20" transform="translate(424.072266 0)"/>
     <use xlink:href="#MicrosoftYaHei-44" transform="translate(453.662109 0)"/>
     <use xlink:href="#MicrosoftYaHei-20" transform="translate(529.833984 0)"/>
     <use xlink:href="#MicrosoftYaHei-548c" transform="translate(559.423828 0)"/>
     <use xlink:href="#MicrosoftYaHei-20" transform="translate(659.423828 0)"/>
     <use xlink:href="#MicrosoftYaHei-64" transform="translate(689.013672 0)"/>
     <use xlink:href="#MicrosoftYaHei-20" transform="translate(752.978516 0)"/>
     <use xlink:href="#MicrosoftYaHei-5404" transform="translate(782.568359 0)"/>
     <use xlink:href="#MicrosoftYaHei-5360" transform="translate(882.568359 0)"/>
     <use xlink:href="#MicrosoftYaHei-20" transform="translate(982.568359 0)"/>
     <use xlink:href="#MicrosoftYaHei-35" transform="translate(1012.158203 0)"/>
     <use xlink:href="#MicrosoftYaHei-30" transform="translate(1070.800781 0)"/>
     <use xlink:href="#MicrosoftYaHei-25" transform="translate(1129.443359 0)"/>
    </g>
   </g>
   <g id="text_46">
    <!-- 同源染色体分离→等位基因分离 -->
    <g style="fill: #c0392b" transform="translate(479.754494 221.904) scale(0.09 -0.09)">
     <defs>
      <path id="MicrosoftYaHei-Bold-540c" d="M 381 5078 
L 6019 5078 
L 6019 291 
Q 6019 -253 5776 -523 
Q 5534 -794 5107 -801 
Q 4681 -809 4075 -809 
Q 3981 -309 3881 59 
Q 4272 19 4597 19 
Q 4847 19 4950 45 
Q 5053 72 5117 165 
Q 5181 259 5181 416 
L 5181 4297 
L 1219 4297 
L 1219 -797 
L 381 -797 
L 381 5078 
z
M 4875 3078 
L 1525 3078 
L 1525 3791 
L 4875 3791 
L 4875 3078 
z
M 1738 2591 
L 4638 2591 
L 4638 403 
L 2550 403 
L 2550 3 
L 1738 3 
L 1738 2591 
z
M 3825 1103 
L 3825 1891 
L 2550 1891 
L 2550 1103 
L 3825 1103 
z
" transform="scale(0.015625)"/>
      <path id="MicrosoftYaHei-Bold-6e90" d="M 719 5278 
Q 1425 4772 1744 4509 
L 1163 3878 
Q 719 4309 200 4734 
L 719 5278 
z
M 3281 1053 
L 3894 678 
Q 3688 344 3422 -22 
Q 3584 -47 3844 -53 
Q 4119 -16 4125 203 
L 4125 1191 
L 3019 1191 
L 3019 3834 
L 3691 3834 
Q 3803 4094 3888 4372 
L 2669 4372 
L 2669 2491 
Q 2669 141 1975 -884 
Q 1575 -484 1269 -284 
Q 1875 616 1869 2603 
L 1869 5072 
L 6250 5072 
L 6250 4372 
L 4709 4372 
Q 4634 4188 4459 3834 
L 5981 3834 
L 5981 1191 
L 4925 1191 
L 4925 9 
Q 4925 -347 4776 -547 
Q 4628 -747 4323 -790 
Q 4019 -834 3525 -822 
Q 3472 -481 3372 -91 
Q 3191 -334 2988 -591 
L 2406 -122 
Q 2863 359 3281 1053 
z
M 5206 3197 
L 3781 3197 
L 3781 2803 
L 5206 2803 
L 5206 3197 
z
M 5206 1828 
L 5206 2228 
L 3781 2228 
L 3781 1828 
L 5206 1828 
z
M 594 3666 
Q 1069 3322 1581 2878 
L 1019 2203 
Q 563 2647 81 3072 
L 594 3666 
z
M 781 1878 
Q 1250 1666 1550 1578 
L 988 -778 
Q 575 -622 163 -522 
Q 481 434 781 1878 
z
M 5569 1078 
Q 5963 566 6350 -91 
L 5706 -472 
Q 5406 103 4981 734 
L 5569 1078 
z
" transform="scale(0.015625)"/>
      <path id="MicrosoftYaHei-Bold-67d3" d="M 2138 3953 
L 2138 4666 
L 2913 4666 
Q 2925 4941 2925 5291 
L 3756 5291 
Q 3756 4966 3744 4666 
L 5163 4666 
L 5163 3059 
Q 5163 2809 5331 2809 
L 5394 2809 
Q 5563 2809 5594 3059 
Q 5644 3409 5663 3772 
Q 6000 3622 6363 3509 
Q 6306 3053 6238 2709 
Q 6113 2072 5469 2072 
L 5106 2072 
Q 4338 2072 4338 2928 
L 4338 3953 
L 3681 3953 
Q 3531 2866 2769 2241 
L 3619 2241 
L 3619 1741 
L 6213 1741 
L 6213 1028 
L 4056 1028 
Q 4875 397 6306 28 
Q 6081 -359 5913 -784 
Q 4500 -272 3619 584 
L 3619 -872 
L 2769 -872 
L 2769 584 
Q 1925 -191 481 -784 
Q 300 -428 75 -66 
Q 1456 397 2306 1028 
L 200 1028 
L 200 1741 
L 2769 1741 
L 2769 2234 
Q 2575 2078 2338 1916 
Q 2056 2247 1731 2547 
Q 2738 3128 2850 3953 
L 2138 3953 
z
M 1638 3497 
Q 1794 3197 2006 2872 
Q 1244 2366 481 1822 
L 88 2534 
Q 806 2941 1638 3497 
z
M 806 5378 
Q 1413 5103 2025 4772 
L 1606 4191 
Q 1031 4541 400 4859 
L 806 5378 
z
M 419 4459 
Q 963 4197 1550 3872 
L 1138 3278 
Q 606 3597 19 3903 
L 419 4459 
z
" transform="scale(0.015625)"/>
      <path id="MicrosoftYaHei-Bold-8272" d="M 4919 4853 
L 4919 4166 
L 4378 3566 
L 5669 3566 
L 5669 1241 
L 1619 1241 
L 1619 691 
Q 1619 97 2231 97 
L 4756 97 
Q 5013 97 5163 180 
Q 5313 263 5361 414 
Q 5409 566 5506 1197 
Q 6056 984 6294 909 
Q 6159 263 6056 -51 
Q 5953 -366 5623 -531 
Q 5294 -697 4738 -697 
L 1963 -697 
Q 731 -697 731 453 
L 731 2834 
Q 616 2744 494 2659 
Q 306 3053 63 3453 
Q 1269 4253 1913 5341 
L 2881 5272 
Q 2766 5059 2634 4853 
L 4919 4853 
z
M 1581 3566 
L 3341 3566 
L 3856 4147 
L 2119 4147 
Q 1869 3847 1581 3566 
z
M 1619 1953 
L 2775 1953 
L 2775 2853 
L 1619 2853 
L 1619 1953 
z
M 4794 1953 
L 4794 2853 
L 3638 2853 
L 3638 1953 
L 4794 1953 
z
" transform="scale(0.015625)"/>
      <path id="MicrosoftYaHei-Bold-4f53" d="M 1100 5309 
L 1906 5103 
Q 1697 4303 1450 3613 
L 1450 1072 
Q 2450 2116 2934 3516 
L 1806 3516 
L 1806 4297 
L 3438 4297 
L 3438 5309 
L 4263 5309 
L 4263 4297 
L 6063 4297 
L 6063 3516 
L 4716 3516 
Q 5191 2188 6313 1166 
Q 6044 759 5769 278 
Q 5519 538 5300 853 
L 5300 209 
L 4263 209 
L 4263 -841 
L 3438 -841 
L 3438 209 
L 2431 209 
L 2431 878 
Q 2191 519 1906 191 
Q 1722 491 1450 900 
L 1450 -828 
L 700 -828 
L 700 1922 
Q 500 1563 288 1253 
Q 213 1822 88 2434 
Q 581 3359 1100 5309 
z
M 2509 997 
L 3438 997 
L 3438 3163 
Q 3138 1972 2509 997 
z
M 4263 3128 
L 4263 997 
L 5203 997 
Q 4634 1866 4263 3128 
z
" transform="scale(0.015625)"/>
      <path id="MicrosoftYaHei-Bold-5206" d="M 6350 3028 
Q 6088 2703 5750 2228 
Q 5519 2409 5303 2603 
Q 5219 606 5172 190 
Q 5125 -225 4862 -451 
Q 4600 -678 4128 -678 
Q 3484 -678 2913 -659 
Q 2856 -141 2781 284 
Q 3594 216 3956 216 
Q 4172 216 4230 408 
Q 4288 600 4325 1978 
L 2781 1978 
Q 2728 1100 2529 631 
Q 2331 163 1907 -215 
Q 1484 -594 844 -872 
Q 456 -353 194 -78 
Q 750 144 1111 414 
Q 1472 684 1630 989 
Q 1788 1294 1841 1978 
L 950 1978 
L 950 2475 
Q 794 2356 631 2247 
Q 344 2653 63 2953 
Q 1475 3947 2194 5316 
L 3031 4953 
Q 2378 3722 1391 2841 
L 5047 2841 
Q 4088 3766 3463 4903 
L 4238 5303 
Q 5038 3922 6350 3028 
z
" transform="scale(0.015625)"/>
      <path id="MicrosoftYaHei-Bold-79bb" d="M 1956 4209 
L 3253 3741 
Q 3788 3953 4253 4216 
L 94 4216 
L 94 4841 
L 2769 4841 
Q 2684 5059 2594 5272 
L 3588 5341 
Q 3659 5150 3763 4841 
L 6306 4841 
L 6306 4216 
L 4303 4216 
L 4656 3797 
Q 4313 3628 3959 3475 
L 4775 3166 
L 4563 2678 
L 4963 2678 
L 4963 3978 
L 5763 3978 
L 5763 2066 
L 3538 2066 
L 3313 1716 
L 5988 1716 
L 5988 22 
Q 5988 -366 5858 -548 
Q 5728 -731 5464 -768 
Q 5200 -806 4231 -797 
Q 4156 -422 4069 -147 
L 4403 -159 
L 4225 78 
Q 2422 16 1788 -103 
L 1500 516 
Q 1747 588 2122 1103 
L 1313 1103 
L 1313 -834 
L 475 -834 
L 475 1716 
L 2516 1716 
Q 2613 1878 2719 2066 
L 663 2066 
L 663 3978 
L 1463 3978 
L 1463 2678 
L 4441 2678 
L 3238 3184 
Q 2541 2916 1813 2703 
Q 1681 3041 1575 3234 
Q 2056 3341 2500 3478 
Q 2041 3656 1688 3778 
L 1956 4209 
z
M 5031 159 
L 4584 -163 
Q 4997 -181 5073 -106 
Q 5150 -31 5150 91 
L 5150 1103 
L 4200 1103 
Q 4641 625 5031 159 
z
M 3519 947 
L 3756 1103 
L 2903 1103 
Q 2728 844 2544 584 
Q 3066 603 3775 644 
L 3519 947 
z
" transform="scale(0.015625)"/>
      <path id="MicrosoftYaHei-Bold-2192" d="M 4859 3766 
Q 5241 3344 5514 3125 
Q 5788 2906 6150 2713 
L 6150 2572 
Q 5788 2381 5517 2164 
Q 5247 1947 4859 1519 
L 4622 1519 
Q 4766 1822 4866 1983 
Q 4966 2144 5141 2369 
L 247 2369 
L 247 2916 
L 5141 2916 
Q 4972 3131 4869 3298 
Q 4766 3466 4622 3766 
L 4859 3766 
z
" transform="scale(0.015625)"/>
      <path id="MicrosoftYaHei-Bold-7b49" d="M 338 1328 
L 4069 1328 
L 4069 1666 
L 125 1666 
L 125 2328 
L 2750 2328 
L 2750 2703 
L 563 2703 
L 563 3366 
L 2750 3366 
L 2750 3822 
L 3516 3822 
L 3181 4047 
Q 3247 4131 3313 4222 
L 2144 4222 
Q 2403 3938 2531 3784 
L 1950 3378 
Q 1825 3559 1463 3997 
L 1769 4222 
L 1272 4222 
Q 981 3838 656 3503 
Q 425 3753 81 4053 
Q 675 4653 1063 5347 
L 2000 5347 
Q 1847 5072 1684 4816 
L 3363 4816 
L 3363 4291 
Q 3722 4797 3975 5347 
L 4931 5347 
Q 4803 5069 4666 4816 
L 6225 4816 
L 6225 4222 
L 5231 4222 
Q 5434 4013 5625 3803 
L 5031 3397 
Q 4731 3778 4488 4047 
L 4734 4222 
L 4309 4222 
Q 4084 3881 3838 3591 
Q 3756 3653 3606 3759 
L 3606 3366 
L 5850 3366 
L 5850 2703 
L 3606 2703 
L 3606 2328 
L 6288 2328 
L 6288 1666 
L 4938 1666 
L 4938 1328 
L 6075 1328 
L 6075 653 
L 4938 653 
L 4938 16 
Q 4938 -375 4758 -576 
Q 4578 -778 4236 -790 
Q 3894 -803 3019 -809 
Q 2956 -434 2850 59 
Q 3566 28 3728 28 
Q 4069 28 4069 416 
L 4069 653 
L 2225 653 
Q 2463 341 2675 47 
L 1931 -441 
Q 1609 94 1231 653 
L 338 653 
L 338 1328 
z
" transform="scale(0.015625)"/>
      <path id="MicrosoftYaHei-Bold-4f4d" d="M 2075 4297 
L 3725 4297 
Q 3584 4663 3381 5103 
L 4281 5347 
Q 4513 4878 4706 4428 
L 4213 4297 
L 6106 4297 
L 6106 3491 
L 2075 3491 
L 2075 4297 
z
M 1363 5297 
L 2163 5053 
Q 1919 4388 1669 3791 
L 1669 -866 
L 831 -866 
L 831 2050 
Q 597 1628 356 1259 
Q 263 1709 81 2328 
Q 719 3384 1363 5297 
z
M 1944 234 
L 4047 234 
Q 4566 1672 4925 3266 
L 5906 2991 
Q 5756 2584 4938 234 
L 6319 234 
L 6319 -572 
L 1944 -572 
L 1944 234 
z
M 3075 3228 
Q 3313 2597 3913 834 
L 3056 559 
Q 2619 2066 2288 2972 
L 3075 3228 
z
" transform="scale(0.015625)"/>
      <path id="MicrosoftYaHei-Bold-57fa" d="M 6319 853 
Q 6063 484 5856 159 
Q 5369 428 4925 791 
L 4925 384 
L 3631 384 
L 3631 3 
L 5875 3 
L 5875 -653 
L 525 -653 
L 525 3 
L 2775 3 
L 2775 384 
L 1450 384 
L 1450 766 
Q 1016 422 544 159 
Q 363 447 75 847 
Q 856 1141 1397 1584 
L 156 1584 
L 156 2241 
L 1244 2241 
L 1244 4141 
L 338 4141 
L 338 4797 
L 1244 4797 
L 1244 5341 
L 2100 5341 
L 2100 4797 
L 4313 4797 
L 4313 5341 
L 5163 5341 
L 5163 4797 
L 6069 4797 
L 6069 4141 
L 5163 4141 
L 5163 2241 
L 6244 2241 
L 6244 1584 
L 5013 1584 
Q 5675 1091 6319 853 
z
M 2100 3828 
L 4313 3828 
L 4313 4141 
L 2100 4141 
L 2100 3828 
z
M 2100 3028 
L 4313 3028 
L 4313 3341 
L 2100 3341 
L 2100 3028 
z
M 2100 2241 
L 4313 2241 
L 4313 2553 
L 2100 2553 
L 2100 2241 
z
M 2775 1466 
L 3631 1466 
L 3631 1028 
L 4647 1028 
Q 4359 1284 4091 1584 
L 2319 1584 
Q 2050 1284 1759 1028 
L 2775 1028 
L 2775 1466 
z
" transform="scale(0.015625)"/>
      <path id="MicrosoftYaHei-Bold-56e0" d="M 431 -822 
L 431 5059 
L 5969 5059 
L 5969 -816 
L 5088 -816 
L 5088 -534 
L 1313 -534 
L 1313 -822 
L 431 -822 
z
M 5088 4228 
L 1313 4228 
L 1313 297 
L 5088 297 
L 5088 4228 
z
M 2781 4103 
L 3650 4103 
Q 3647 3663 3628 3316 
L 4900 3316 
L 4900 2528 
L 3563 2528 
Q 3541 2359 3500 2200 
Q 4188 1753 4975 1172 
L 4394 416 
Q 3866 903 3175 1466 
Q 2741 813 1844 416 
Q 1669 728 1338 1209 
Q 2475 1603 2675 2528 
L 1500 2528 
L 1500 3316 
L 2759 3316 
Q 2778 3666 2781 4103 
z
" transform="scale(0.015625)"/>
     </defs>
     <use xlink:href="#MicrosoftYaHei-Bold-540c"/>
     <use xlink:href="#MicrosoftYaHei-Bold-6e90" transform="translate(100 0)"/>
     <use xlink:href="#MicrosoftYaHei-Bold-67d3" transform="translate(200 0)"/>
     <use xlink:href="#MicrosoftYaHei-Bold-8272" transform="translate(300 0)"/>
     <use xlink:href="#MicrosoftYaHei-Bold-4f53" transform="translate(400 0)"/>
     <use xlink:href="#MicrosoftYaHei-Bold-5206" transform="translate(500 0)"/>
     <use xlink:href="#MicrosoftYaHei-Bold-79bb" transform="translate(600 0)"/>
     <use xlink:href="#MicrosoftYaHei-Bold-2192" transform="translate(700 0)"/>
     <use xlink:href="#MicrosoftYaHei-Bold-7b49" transform="translate(800 0)"/>
     <use xlink:href="#MicrosoftYaHei-Bold-4f4d" transform="translate(900 0)"/>
     <use xlink:href="#MicrosoftYaHei-Bold-57fa" transform="translate(1000 0)"/>
     <use xlink:href="#MicrosoftYaHei-Bold-56e0" transform="translate(1100 0)"/>
     <use xlink:href="#MicrosoftYaHei-Bold-5206" transform="translate(1200 0)"/>
     <use xlink:href="#MicrosoftYaHei-Bold-79bb" transform="translate(1300 0)"/>
    </g>
   </g>
   <g id="text_47">
    <!-- 分离定律的本质 -->
    <g style="fill: #1a1a2e" transform="translate(515.213318 35) scale(0.11 -0.11)">
     <defs>
      <path id="MicrosoftYaHei-Bold-5b9a" d="M 2581 5128 
L 3538 5353 
Q 3666 5028 3806 4634 
L 6063 4634 
L 6063 3403 
L 5200 3403 
L 5200 3872 
L 1225 3872 
L 1225 3403 
L 363 3403 
L 363 4634 
L 2772 4634 
L 2581 5128 
z
M 5831 1741 
L 5831 972 
L 3744 972 
L 3744 125 
Q 4766 103 6313 147 
Q 6138 -372 6044 -697 
Q 3819 -697 2809 -630 
Q 1800 -563 1388 219 
Q 1069 -425 613 -859 
Q 331 -441 94 -134 
Q 875 659 1094 2122 
L 1931 2022 
Q 1850 1541 1728 1122 
Q 2047 300 2850 175 
L 2850 2416 
L 263 2416 
L 263 3184 
L 6156 3184 
L 6156 2416 
L 3744 2416 
L 3744 1741 
L 5831 1741 
z
" transform="scale(0.015625)"/>
      <path id="MicrosoftYaHei-Bold-5f8b" d="M 1475 5347 
L 2156 4791 
Q 1375 3741 456 2941 
Q 319 3428 144 3903 
Q 925 4497 1475 5347 
z
M 1875 522 
L 3513 522 
L 3513 953 
L 2100 953 
L 2100 1616 
L 3513 1616 
L 3513 2041 
L 2300 2041 
L 2300 2703 
L 3513 2703 
L 3513 3097 
L 2019 3097 
L 2156 2972 
Q 1891 2566 1600 2194 
L 1600 -834 
L 794 -834 
L 794 1281 
Q 575 1063 344 859 
Q 219 1391 81 1834 
Q 938 2584 1538 3547 
L 2013 3103 
L 2013 3784 
L 3513 3784 
L 3513 4191 
L 2313 4191 
L 2313 4853 
L 3513 4853 
L 3513 5316 
L 4338 5316 
L 4338 4853 
L 5900 4853 
L 5900 3784 
L 6313 3784 
L 6313 3097 
L 5900 3097 
L 5900 2041 
L 4338 2041 
L 4338 1616 
L 5950 1616 
L 5950 953 
L 4338 953 
L 4338 522 
L 6213 522 
L 6213 -141 
L 4338 -141 
L 4338 -834 
L 3513 -834 
L 3513 -141 
L 1875 -141 
L 1875 522 
z
M 5125 4191 
L 4338 4191 
L 4338 3784 
L 5125 3784 
L 5125 4191 
z
M 5125 2703 
L 5125 3097 
L 4338 3097 
L 4338 2703 
L 5125 2703 
z
" transform="scale(0.015625)"/>
      <path id="MicrosoftYaHei-Bold-672c" d="M 356 4403 
L 2744 4403 
L 2744 5328 
L 3619 5328 
L 3619 4403 
L 6044 4403 
L 6044 3591 
L 3878 3591 
Q 4894 2006 6325 1166 
Q 6056 884 5656 366 
Q 4409 1409 3619 2741 
L 3619 1047 
L 4875 1047 
L 4875 259 
L 3619 259 
L 3619 -828 
L 2744 -828 
L 2744 259 
L 1481 259 
L 1481 1016 
Q 1119 634 713 291 
Q 369 741 75 1066 
Q 1553 2069 2506 3591 
L 356 3591 
L 356 4403 
z
M 1509 1047 
L 2744 1047 
L 2744 2681 
Q 2209 1794 1509 1047 
z
" transform="scale(0.015625)"/>
      <path id="MicrosoftYaHei-Bold-8d28" d="M 1706 3847 
L 3400 3847 
L 3400 4313 
Q 2384 4256 1475 4228 
L 1475 2309 
Q 1475 191 781 -853 
Q 519 -578 81 -209 
Q 625 684 625 2347 
L 625 5016 
Q 3150 4997 5763 5266 
L 6150 4497 
L 4256 4363 
L 4256 3847 
L 6038 3847 
L 6038 3141 
L 4256 3141 
L 4256 2716 
L 5825 2716 
L 5825 541 
L 5013 541 
L 5013 2009 
L 2700 2009 
L 2700 541 
L 1888 541 
L 1888 2716 
L 3400 2716 
L 3400 3141 
L 1706 3141 
L 1706 3847 
z
M 3488 1778 
L 4363 1778 
Q 4347 1203 4197 772 
Q 5091 431 6275 -84 
L 5769 -834 
Q 4819 -297 3869 166 
Q 3269 -522 1756 -859 
Q 1538 -428 1331 -128 
Q 2506 119 2979 478 
Q 3453 838 3488 1778 
z
" transform="scale(0.015625)"/>
     </defs>
     <use xlink:href="#MicrosoftYaHei-Bold-5206"/>
     <use xlink:href="#MicrosoftYaHei-Bold-79bb" transform="translate(100 0)"/>
     <use xlink:href="#MicrosoftYaHei-Bold-5b9a" transform="translate(200 0)"/>
     <use xlink:href="#MicrosoftYaHei-Bold-5f8b" transform="translate(300 0)"/>
     <use xlink:href="#MicrosoftYaHei-Bold-7684" transform="translate(400 0)"/>
     <use xlink:href="#MicrosoftYaHei-Bold-672c" transform="translate(500 0)"/>
     <use xlink:href="#MicrosoftYaHei-Bold-8d28" transform="translate(600 0)"/>
    </g>
   </g>
  </g>
  <g id="text_48">
   <!-- 孟德尔分离定律 -->
   <g style="fill: #1a1a2e" transform="translate(294.303906 18.39125) scale(0.14 -0.14)">
    <defs>
     <path id="MicrosoftYaHei-5b5f" d="M 138 -28 
L 800 -28 
L 800 1859 
L 5625 1859 
L 5625 -28 
L 6256 -28 
L 6256 -453 
L 138 -453 
L 138 -28 
z
M 225 3647 
L 3244 3647 
L 3244 3928 
L 4519 4566 
L 1025 4566 
L 1025 4997 
L 5544 4997 
L 5544 4566 
L 3731 3647 
L 6200 3647 
L 6200 3222 
L 3706 3222 
L 3706 2772 
Q 3706 2053 2900 2059 
Q 2581 2059 1994 2072 
Q 1975 2284 1919 2591 
Q 2475 2541 2800 2534 
Q 3244 2522 3244 2859 
L 3244 3222 
L 225 3222 
L 225 3647 
z
M 2713 -28 
L 3713 -28 
L 3713 1434 
L 2713 1434 
L 2713 -28 
z
M 5163 1434 
L 4175 1434 
L 4175 -28 
L 5163 -28 
L 5163 1434 
z
M 1263 -28 
L 2250 -28 
L 2250 1434 
L 1263 1434 
L 1263 -28 
z
" transform="scale(0.015625)"/>
     <path id="MicrosoftYaHei-5fb7" d="M 2150 3853 
L 3775 3853 
L 3775 4353 
L 1981 4353 
L 1981 4747 
L 3775 4747 
L 3775 5328 
L 4225 5328 
L 4225 4747 
L 6150 4747 
L 6150 4353 
L 4225 4353 
L 4225 3853 
L 5881 3853 
L 5881 2097 
L 5463 2097 
L 5463 2291 
L 2569 2291 
L 2569 2097 
L 2150 2097 
L 2150 3853 
z
M 75 1597 
Q 875 2378 1544 3641 
L 1963 3428 
Q 1691 2925 1400 2484 
L 1400 -828 
L 950 -828 
L 950 1863 
Q 628 1453 281 1109 
Q 188 1353 75 1597 
z
M 2775 1034 
L 3213 1034 
L 3213 122 
Q 3213 -247 3550 -247 
L 4325 -247 
Q 4744 -247 4800 41 
Q 4856 334 4881 722 
Q 5088 641 5350 547 
Q 5269 134 5213 -122 
Q 5106 -659 4519 -659 
L 3450 -659 
Q 2775 -659 2775 78 
L 2775 1034 
z
M 1825 1772 
L 6244 1772 
L 6244 1378 
L 1825 1378 
L 1825 1772 
z
M 106 3584 
Q 894 4272 1519 5322 
L 1944 5066 
Q 1163 3866 344 3134 
Q 231 3359 106 3584 
z
M 2138 1041 
L 2550 891 
Q 2281 159 1963 -409 
Q 1806 -328 1569 -197 
Q 1919 372 2138 1041 
z
M 5463 3472 
L 4756 3472 
L 4756 2672 
L 5463 2672 
L 5463 3472 
z
M 3663 2672 
L 4363 2672 
L 4363 3472 
L 3663 3472 
L 3663 2672 
z
M 2569 2672 
L 3269 2672 
L 3269 3472 
L 2569 3472 
L 2569 2672 
z
M 5325 922 
L 5700 1128 
Q 5969 747 6331 72 
L 5913 -153 
Q 5681 372 5325 922 
z
M 3500 1097 
L 3813 1328 
Q 4163 953 4456 559 
L 4094 291 
Q 3844 666 3500 1097 
z
" transform="scale(0.015625)"/>
     <path id="MicrosoftYaHei-5c14" d="M 1919 5328 
L 2413 5166 
Q 2247 4806 2050 4466 
L 6163 4466 
L 6163 3991 
Q 5831 3341 5456 2803 
Q 5288 2903 4981 3022 
Q 5325 3484 5588 3991 
L 1753 3991 
Q 1219 3184 494 2466 
Q 369 2616 94 2841 
Q 1344 3984 1919 5328 
z
M 3044 3672 
L 3550 3672 
L 3550 34 
Q 3550 -747 2775 -747 
Q 2444 -747 1913 -734 
Q 1881 -484 1813 -203 
Q 2406 -253 2644 -253 
Q 3044 -253 3044 159 
L 3044 3672 
z
M 1763 2678 
L 2250 2459 
Q 1538 1003 669 -116 
Q 475 16 225 203 
Q 1150 1309 1763 2678 
z
M 4213 2391 
L 4613 2666 
Q 5513 1434 6250 247 
L 5781 -59 
Q 5056 1191 4213 2391 
z
" transform="scale(0.015625)"/>
     <path id="MicrosoftYaHei-79bb" d="M 2381 459 
Q 3106 484 3878 519 
Q 3716 700 3550 878 
L 3863 1122 
Q 4350 634 4781 147 
L 4450 -141 
Q 4331 0 4213 141 
Q 3416 103 2450 41 
Q 2175 22 1863 -28 
L 1688 416 
Q 1950 578 2131 822 
Q 2278 1025 2425 1278 
L 1056 1278 
L 1056 -822 
L 588 -822 
L 588 1691 
L 2650 1691 
Q 2784 1950 2916 2253 
L 825 2253 
L 825 4066 
L 1281 4066 
L 1281 2653 
L 5113 2653 
L 5113 4072 
L 5569 4072 
L 5569 2028 
L 5113 2028 
L 5113 2253 
L 3472 2253 
Q 3322 1963 3169 1691 
L 5800 1691 
L 5800 -122 
Q 5800 -791 5175 -791 
Q 4875 -791 4519 -778 
Q 4494 -559 4431 -297 
Q 4800 -334 5063 -334 
Q 5331 -334 5331 -53 
L 5331 1278 
L 2928 1278 
Q 2659 838 2381 459 
z
M 200 4734 
L 2919 4734 
Q 2788 4969 2669 5153 
L 3150 5372 
Q 3309 5141 3541 4734 
L 6200 4734 
L 6200 4309 
L 200 4309 
L 200 4734 
z
M 1613 3884 
L 1781 4216 
Q 2500 3984 3294 3700 
Q 3934 3956 4500 4247 
L 4688 3928 
Q 4269 3709 3816 3513 
Q 4281 3341 4775 3153 
L 4606 2797 
Q 3938 3072 3325 3303 
Q 2569 3000 1731 2747 
Q 1619 2947 1506 3103 
Q 2169 3288 2772 3503 
Q 2159 3719 1613 3884 
z
" transform="scale(0.015625)"/>
     <path id="MicrosoftYaHei-5b9a" d="M 81 -384 
Q 1119 509 1281 2241 
L 1806 2159 
Q 1731 1581 1578 1081 
Q 2063 50 3081 -103 
L 3081 2647 
L 225 2647 
L 225 3116 
L 6163 3116 
L 6163 2647 
L 3600 2647 
L 3600 1634 
L 5775 1634 
L 5775 1172 
L 3600 1172 
L 3600 -138 
Q 4844 -169 6306 -116 
Q 6200 -359 6125 -634 
Q 4594 -653 3450 -616 
Q 2041 -616 1378 528 
Q 1022 -300 413 -872 
Q 269 -628 81 -384 
z
M 450 4566 
L 3116 4566 
Q 2931 4834 2725 5091 
L 3200 5347 
Q 3444 5066 3731 4716 
L 3450 4566 
L 5981 4566 
L 5981 3378 
L 5488 3378 
L 5488 4097 
L 944 4097 
L 944 3384 
L 450 3384 
L 450 4566 
z
" transform="scale(0.015625)"/>
     <path id="MicrosoftYaHei-5f8b" d="M 2288 2666 
L 3681 2666 
L 3681 3253 
L 2063 3253 
L 2063 3653 
L 3681 3653 
L 3681 4234 
L 2338 4234 
L 2338 4634 
L 3681 4634 
L 3681 5291 
L 4150 5291 
L 4150 4634 
L 5700 4634 
L 5700 3653 
L 6313 3653 
L 6313 3253 
L 5700 3253 
L 5700 2034 
L 5238 2034 
L 5238 2266 
L 4150 2266 
L 4150 1634 
L 5900 1634 
L 5900 1234 
L 4150 1234 
L 4150 647 
L 6206 647 
L 6206 247 
L 4150 247 
L 4150 -828 
L 3681 -828 
L 3681 247 
L 1813 247 
L 1813 647 
L 3681 647 
L 3681 1234 
L 2163 1234 
L 2163 1634 
L 3681 1634 
L 3681 2266 
L 2288 2266 
L 2288 2666 
z
M 81 1634 
Q 850 2409 1550 3678 
L 1975 3453 
Q 1694 2963 1406 2531 
L 1406 -828 
L 944 -828 
L 944 1888 
Q 625 1475 300 1134 
Q 200 1409 81 1634 
z
M 106 3584 
Q 975 4284 1581 5341 
L 2019 5091 
Q 1363 4041 363 3134 
Q 256 3366 106 3584 
z
M 4150 2666 
L 5238 2666 
L 5238 3253 
L 4150 3253 
L 4150 2666 
z
M 5238 4234 
L 4150 4234 
L 4150 3653 
L 5238 3653 
L 5238 4234 
z
" transform="scale(0.015625)"/>
    </defs>
    <use xlink:href="#MicrosoftYaHei-5b5f"/>
    <use xlink:href="#MicrosoftYaHei-5fb7" transform="translate(100 0)"/>
    <use xlink:href="#MicrosoftYaHei-5c14" transform="translate(200 0)"/>
    <use xlink:href="#MicrosoftYaHei-5206" transform="translate(300 0)"/>
    <use xlink:href="#MicrosoftYaHei-79bb" transform="translate(400 0)"/>
    <use xlink:href="#MicrosoftYaHei-5b9a" transform="translate(500 0)"/>
    <use xlink:href="#MicrosoftYaHei-5f8b" transform="translate(600 0)"/>
   </g>
  </g>
 </g>
 <defs>
  <clipPath id="paf3b231459">
   <rect x="45.223906" y="45" width="175.341176" height="196.56"/>
  </clipPath>
  <clipPath id="p85d7bd248e">
   <rect x="466.04273" y="45" width="175.341176" height="196.56"/>
  </clipPath>
 </defs>
</svg>
