<?xml version="1.0" encoding="utf-8" standalone="no"?>
<!DOCTYPE svg PUBLIC "-//W3C//DTD SVG 1.1//EN"
  "http://www.w3.org/Graphics/SVG/1.1/DTD/svg11.dtd">
<svg xmlns:xlink="http://www.w3.org/1999/xlink" width="538.56pt" height="278.77115pt" viewBox="0 0 538.56 278.77115" xmlns="http://www.w3.org/2000/svg" version="1.1">
 <metadata>
  <rdf:RDF xmlns:dc="http://purl.org/dc/elements/1.1/" xmlns:cc="http://creativecommons.org/ns#" xmlns:rdf="http://www.w3.org/1999/02/22-rdf-syntax-ns#">
   <cc:Work>
    <dc:type rdf:resource="http://purl.org/dc/dcmitype/StillImage"/>
    <dc:date>2026-05-22T22:24:24.679667</dc:date>
    <dc:format>image/svg+xml</dc:format>
    <dc:creator>
     <cc:Agent>
      <dc:title>Matplotlib v3.10.9, https://matplotlib.org/</dc:title>
     </cc:Agent>
    </dc:creator>
   </cc:Work>
  </rdf:RDF>
 </metadata>
 <defs>
  <style type="text/css">*{stroke-linejoin: round; stroke-linecap: butt}</style>
 </defs>
 <g id="figure_1">
  <g id="patch_1">
   <path d="M 0 278.77115 
L 538.56 278.77115 
L 538.56 0 
L 0 0 
z
" style="fill: #ffffff"/>
  </g>
  <g id="axes_1">
   <g id="text_1">
    <!-- 亲代 -->
    <g style="fill: #555555" transform="translate(26.357895 75.38112) scale(0.09 -0.09)">
     <defs>
      <path id="MicrosoftYaHei-Bold-4eb2" d="M 425 4678 
L 2781 4678 
Q 2650 4978 2550 5191 
L 3613 5303 
Q 3719 5053 3850 4678 
L 5950 4678 
L 5950 3978 
L 4325 3978 
L 5088 3728 
Q 4819 3384 4625 3128 
L 6250 3128 
L 6250 2403 
L 3694 2403 
L 3694 1841 
L 5950 1841 
L 5950 1128 
L 3694 1128 
L 3694 3 
Q 3694 -766 3000 -791 
Q 2388 -797 1813 -803 
Q 1738 -353 1638 34 
Q 2031 -3 2531 -3 
Q 2819 -3 2819 266 
L 2819 1128 
L 1631 1128 
L 2163 597 
Q 1563 16 700 -584 
Q 363 -159 181 28 
Q 944 553 1575 1128 
L 425 1128 
L 425 1841 
L 2819 1841 
L 2819 2403 
L 150 2403 
L 150 3128 
L 1800 3128 
Q 1644 3384 1406 3772 
L 2150 3978 
L 425 3978 
L 425 4678 
z
M 4794 1097 
Q 5700 422 6256 -22 
L 5669 -666 
Q 4800 91 4269 534 
L 4794 1097 
z
M 2750 3128 
L 3681 3128 
Q 3950 3566 4169 3978 
L 2281 3978 
Q 2525 3559 2750 3128 
z
" transform="scale(0.015625)"/>
      <path id="MicrosoftYaHei-Bold-4ee3" d="M 1469 5347 
L 2319 5078 
Q 2078 4359 1750 3691 
L 1750 -797 
L 931 -797 
L 931 2300 
Q 641 1884 313 1491 
Q 225 2041 88 2647 
Q 956 3797 1469 5347 
z
M 4869 5303 
Q 5444 4891 5950 4434 
Q 5600 4097 5369 3859 
Q 4844 4397 4344 4772 
L 4869 5303 
z
M 1975 3291 
L 3247 3441 
Q 3172 4288 3144 5284 
L 4013 5284 
Q 4016 4356 4088 3541 
L 6113 3784 
L 6188 3003 
L 4175 2750 
Q 4406 1206 4711 643 
Q 5016 81 5203 81 
Q 5263 81 5311 147 
Q 5359 213 5436 547 
Q 5513 881 5550 1222 
Q 5925 972 6319 797 
Q 6191 16 5970 -409 
Q 5750 -834 5275 -834 
Q 3756 -834 3334 2647 
L 2075 2491 
L 1975 3291 
z
" transform="scale(0.015625)"/>
     </defs>
     <use xlink:href="#MicrosoftYaHei-Bold-4eb2"/>
     <use xlink:href="#MicrosoftYaHei-Bold-4ee3" transform="translate(100 0)"/>
    </g>
   </g>
   <g id="text_2">
    <!-- 女性携带者 × 正常男性 -->
    <g style="fill: #333333" transform="translate(83.831579 75.38112) scale(0.09 -0.09)">
     <defs>
      <path id="MicrosoftYaHei-5973" d="M 5888 -341 
L 5544 -809 
Q 4509 -206 3344 384 
Q 2416 -325 413 -853 
Q 300 -634 119 -353 
Q 1941 50 2831 641 
Q 1956 1075 1013 1503 
Q 1438 2428 1769 3309 
L 175 3309 
L 175 3772 
L 1934 3772 
Q 2216 4566 2419 5328 
L 2975 5216 
Q 2725 4434 2491 3772 
L 6219 3772 
L 6219 3309 
L 4916 3309 
Q 4644 1663 3741 741 
Q 4841 209 5888 -341 
z
M 4394 3309 
L 2322 3309 
Q 1978 2384 1663 1709 
Q 2469 1347 3250 975 
Q 4159 1841 4394 3309 
z
" transform="scale(0.015625)"/>
      <path id="MicrosoftYaHei-6027" d="M 1963 -153 
L 3988 -153 
L 3988 1522 
L 2375 1522 
L 2375 1959 
L 3988 1959 
L 3988 3472 
L 2975 3472 
Q 2744 2878 2438 2291 
Q 2169 2509 2019 2578 
Q 2644 3709 2894 4891 
L 3388 4759 
Q 3281 4328 3138 3909 
L 3988 3909 
L 3988 5284 
L 4481 5284 
L 4481 3909 
L 6125 3909 
L 6125 3472 
L 4481 3472 
L 4481 1959 
L 6000 1959 
L 6000 1522 
L 4481 1522 
L 4481 -153 
L 6319 -153 
L 6319 -591 
L 1963 -591 
L 1963 -153 
z
M 988 5291 
L 1469 5291 
L 1469 4091 
L 1738 4241 
Q 2063 3734 2294 3291 
L 1906 3041 
Q 1688 3503 1469 3859 
L 1469 -872 
L 988 -872 
L 988 5291 
z
M 406 3878 
L 819 3784 
Q 706 3028 506 2178 
Q 338 2241 75 2297 
Q 263 2978 406 3878 
z
" transform="scale(0.015625)"/>
      <path id="MicrosoftYaHei-643a" d="M 94 2028 
Q 522 2147 919 2266 
L 919 3697 
L 150 3697 
L 150 4116 
L 919 4116 
L 919 5253 
L 1381 5253 
L 1381 4116 
L 1972 4116 
L 1972 3697 
L 1381 3697 
L 1381 2409 
Q 1722 2516 2038 2622 
Q 2044 2347 2075 2147 
Q 1719 2031 1381 1922 
L 1381 -66 
Q 1381 -759 775 -759 
Q 588 -759 213 -747 
Q 194 -516 138 -247 
Q 413 -284 638 -284 
Q 919 -284 919 16 
L 919 1766 
Q 522 1631 156 1503 
L 94 2028 
z
M 1569 -459 
Q 2875 -109 2972 1028 
L 1988 1028 
L 1988 1397 
L 5231 1397 
L 5019 641 
L 6125 641 
L 6013 -159 
Q 5938 -784 5138 -784 
Q 4694 -784 4288 -766 
Q 4238 -534 4156 -291 
Q 4706 -353 5106 -359 
Q 5531 -372 5581 -84 
L 5631 278 
L 4456 278 
L 4688 1028 
L 3416 1028 
Q 3300 -416 1819 -853 
Q 1719 -666 1569 -459 
z
M 2813 2197 
L 4125 2197 
L 4125 2641 
L 2813 2641 
L 2813 2197 
z
M 2813 2991 
L 4125 2991 
L 4125 3428 
L 2813 3428 
L 2813 2991 
z
M 2813 3778 
L 4125 3778 
L 4125 4216 
L 2825 4216 
Q 2819 4200 2813 4188 
L 2813 3778 
z
M 3263 5084 
Q 3147 4828 3019 4578 
L 4209 4578 
Q 4038 4869 3825 5159 
L 4200 5372 
Q 4456 5041 4644 4728 
L 4391 4578 
L 6119 4578 
L 6119 4216 
L 4550 4216 
L 4550 3778 
L 5969 3778 
L 5969 3428 
L 4550 3428 
L 4550 2991 
L 5969 2991 
L 5969 2641 
L 4550 2641 
L 4550 2197 
L 6175 2197 
L 6175 1834 
L 2813 1834 
L 2813 1666 
L 2388 1666 
L 2388 3481 
Q 2238 3250 2075 3022 
Q 1919 3178 1713 3328 
Q 2356 4125 2838 5253 
L 3263 5084 
z
" transform="scale(0.015625)"/>
      <path id="MicrosoftYaHei-5e26" d="M 1500 -303 
L 1013 -303 
L 1013 1959 
L 2956 1959 
L 2956 2541 
L 3456 2541 
L 3456 1959 
L 5406 1959 
L 5406 341 
Q 5406 -234 4775 -234 
Q 4550 -234 3956 -228 
Q 3925 -28 3863 241 
Q 4431 203 4625 203 
Q 4919 203 4919 466 
L 4919 1522 
L 3456 1522 
L 3456 -841 
L 2956 -841 
L 2956 1522 
L 1500 1522 
L 1500 -303 
z
M 125 4534 
L 1413 4534 
L 1413 5297 
L 1881 5297 
L 1881 4534 
L 2956 4534 
L 2956 5297 
L 3425 5297 
L 3425 4534 
L 4506 4534 
L 4506 5297 
L 4975 5297 
L 4975 4534 
L 6263 4534 
L 6263 4097 
L 4975 4097 
L 4975 3409 
L 4506 3409 
L 4506 4097 
L 3425 4097 
L 3425 3409 
L 2956 3409 
L 2956 4097 
L 1881 4097 
L 1881 3409 
L 1413 3409 
L 1413 4097 
L 125 4097 
L 125 4534 
z
M 338 3159 
L 6069 3159 
L 6069 2022 
L 5581 2022 
L 5581 2722 
L 825 2722 
L 825 2022 
L 338 2022 
L 338 3159 
z
" transform="scale(0.015625)"/>
      <path id="MicrosoftYaHei-8005" d="M 194 3303 
L 2569 3303 
L 2569 4091 
L 813 4091 
L 813 4516 
L 2569 4516 
L 2569 5309 
L 3069 5309 
L 3069 4516 
L 4600 4516 
L 4600 4091 
L 3069 4091 
L 3069 3303 
L 3681 3303 
Q 4706 4028 5363 4891 
L 5806 4591 
Q 5241 3913 4466 3303 
L 6256 3303 
L 6256 2878 
L 3888 2878 
Q 3372 2522 2778 2191 
L 5256 2191 
L 5256 -822 
L 4769 -822 
L 4769 -453 
L 1875 -453 
L 1875 -822 
L 1388 -822 
L 1388 1497 
Q 875 1269 319 1053 
Q 213 1247 38 1509 
Q 1766 2109 3031 2878 
L 194 2878 
L 194 3303 
z
M 1875 -41 
L 4769 -41 
L 4769 678 
L 1875 678 
L 1875 -41 
z
M 1875 1722 
L 1875 1066 
L 4769 1066 
L 4769 1778 
L 1988 1778 
Q 1931 1750 1875 1722 
z
" transform="scale(0.015625)"/>
      <path id="MicrosoftYaHei-20" transform="scale(0.015625)"/>
      <path id="MicrosoftYaHei-d7" d="M 3856 869 
L 3519 531 
L 2372 1678 
L 1231 531 
L 894 869 
L 2044 2009 
L 894 3156 
L 1231 3491 
L 2372 2344 
L 3522 3491 
L 3856 3153 
L 2709 2009 
L 3856 869 
z
" transform="scale(0.015625)"/>
      <path id="MicrosoftYaHei-6b63" d="M 88 66 
L 1106 66 
L 1106 3416 
L 1644 3416 
L 1644 66 
L 3231 66 
L 3231 4309 
L 375 4309 
L 375 4797 
L 6063 4797 
L 6063 4309 
L 3769 4309 
L 3769 2672 
L 5850 2672 
L 5850 2191 
L 3769 2191 
L 3769 66 
L 6313 66 
L 6313 -422 
L 88 -422 
L 88 66 
z
" transform="scale(0.015625)"/>
      <path id="MicrosoftYaHei-5e38" d="M 1213 -372 
L 725 -372 
L 725 1409 
L 2963 1409 
L 2963 1997 
L 1738 1997 
L 1738 1772 
L 1263 1772 
L 1263 3366 
L 5175 3366 
L 5175 1772 
L 4700 1772 
L 4700 1997 
L 3463 1997 
L 3463 1409 
L 5756 1409 
L 5756 341 
Q 5756 -378 5000 -378 
Q 4681 -378 4269 -372 
Q 4231 -153 4175 109 
Q 4556 72 4881 72 
Q 5269 72 5269 409 
L 5269 997 
L 3463 997 
L 3463 -853 
L 2963 -853 
L 2963 997 
L 1213 997 
L 1213 -372 
z
M 356 4216 
L 1828 4216 
Q 1409 4572 956 4903 
L 1244 5228 
Q 1713 4916 2188 4572 
L 1853 4216 
L 2956 4216 
L 2956 5309 
L 3456 5309 
L 3456 4216 
L 4488 4216 
L 4238 4528 
Q 4750 4866 5213 5247 
L 5575 4878 
Q 5128 4547 4631 4216 
L 6056 4216 
L 6056 3109 
L 5569 3109 
L 5569 3791 
L 844 3791 
L 844 3109 
L 356 3109 
L 356 4216 
z
M 4700 2966 
L 1738 2966 
L 1738 2397 
L 4700 2397 
L 4700 2966 
z
" transform="scale(0.015625)"/>
      <path id="MicrosoftYaHei-7537" d="M 719 5022 
L 5681 5022 
L 5681 2041 
L 5206 2041 
L 5206 2303 
L 1194 2303 
L 1194 2041 
L 719 2041 
L 719 5022 
z
M 325 1553 
L 2581 1553 
Q 2616 1797 2644 2097 
L 3150 2097 
Q 3116 1788 3084 1553 
L 5963 1553 
Q 5900 747 5844 284 
Q 5725 -728 4781 -728 
Q 4181 -728 3550 -703 
Q 3525 -491 3456 -153 
Q 4144 -228 4706 -228 
Q 5275 -228 5344 328 
Q 5394 684 5431 1116 
L 3013 1116 
Q 2784 -269 513 -859 
Q 494 -834 188 -409 
Q 2250 69 2509 1116 
L 325 1116 
L 325 1553 
z
M 1194 2728 
L 2963 2728 
L 2963 3453 
L 1194 3453 
L 1194 2728 
z
M 3438 2728 
L 5206 2728 
L 5206 3453 
L 3438 3453 
L 3438 2728 
z
M 5206 4597 
L 3438 4597 
L 3438 3878 
L 5206 3878 
L 5206 4597 
z
M 1194 3878 
L 2963 3878 
L 2963 4597 
L 1194 4597 
L 1194 3878 
z
" transform="scale(0.015625)"/>
     </defs>
     <use xlink:href="#MicrosoftYaHei-5973"/>
     <use xlink:href="#MicrosoftYaHei-6027" transform="translate(100 0)"/>
     <use xlink:href="#MicrosoftYaHei-643a" transform="translate(200 0)"/>
     <use xlink:href="#MicrosoftYaHei-5e26" transform="translate(300 0)"/>
     <use xlink:href="#MicrosoftYaHei-8005" transform="translate(400 0)"/>
     <use xlink:href="#MicrosoftYaHei-20" transform="translate(500 0)"/>
     <use xlink:href="#MicrosoftYaHei-d7" transform="translate(529.589844 0)"/>
     <use xlink:href="#MicrosoftYaHei-20" transform="translate(603.759766 0)"/>
     <use xlink:href="#MicrosoftYaHei-6b63" transform="translate(633.349609 0)"/>
     <use xlink:href="#MicrosoftYaHei-5e38" transform="translate(733.349609 0)"/>
     <use xlink:href="#MicrosoftYaHei-7537" transform="translate(833.349609 0)"/>
     <use xlink:href="#MicrosoftYaHei-6027" transform="translate(933.349609 0)"/>
    </g>
   </g>
   <g id="text_3">
    <!--    X^B X^b       X^B Y -->
    <g style="fill: #2980b9" transform="translate(83.831579 92.45376) scale(0.09 -0.09)">
     <defs>
      <path id="MicrosoftYaHei-Bold-20" transform="scale(0.015625)"/>
      <path id="MicrosoftYaHei-Bold-58" d="M 4447 0 
L 3222 0 
L 2353 1606 
Q 2306 1694 2256 1922 
L 2244 1922 
Q 2219 1809 2131 1597 
L 1259 0 
L 25 0 
L 1578 2422 
L 159 4841 
L 1416 4841 
L 2138 3359 
Q 2225 3178 2288 2959 
L 2300 2959 
Q 2366 3156 2459 3375 
L 3256 4841 
L 4409 4841 
L 2947 2441 
L 4447 0 
z
" transform="scale(0.015625)"/>
      <path id="MicrosoftYaHei-Bold-5e" d="M 4188 2066 
L 3400 2066 
L 2419 4056 
L 2400 4056 
L 1475 2066 
L 694 2066 
L 2144 4922 
L 2653 4922 
L 4188 2066 
z
" transform="scale(0.015625)"/>
      <path id="MicrosoftYaHei-Bold-42" d="M 559 0 
L 559 4841 
L 2278 4841 
Q 3069 4841 3497 4541 
Q 3925 4241 3925 3709 
Q 3925 3316 3659 3019 
Q 3394 2722 2991 2609 
L 2991 2597 
Q 3497 2534 3808 2221 
Q 4119 1909 4119 1438 
Q 4119 778 3650 389 
Q 3181 0 2369 0 
L 559 0 
z
M 1591 4072 
L 1591 2875 
L 2081 2875 
Q 2434 2875 2637 3044 
Q 2841 3213 2841 3516 
Q 2841 4072 2028 4072 
L 1591 4072 
z
M 1591 2097 
L 1591 769 
L 2203 769 
Q 2594 769 2814 950 
Q 3034 1131 3034 1453 
Q 3034 1759 2815 1928 
Q 2597 2097 2194 2097 
L 1591 2097 
z
" transform="scale(0.015625)"/>
      <path id="MicrosoftYaHei-Bold-62" d="M 1469 416 
L 1469 0 
L 459 0 
L 459 5116 
L 1469 5116 
L 1469 2928 
L 1481 2928 
Q 1878 3541 2613 3541 
Q 3266 3541 3636 3084 
Q 4006 2628 4006 1825 
Q 4006 966 3581 441 
Q 3156 -84 2453 -84 
Q 1809 -84 1481 416 
L 1469 416 
z
M 1453 1494 
Q 1453 1153 1656 922 
Q 1859 691 2172 691 
Q 2550 691 2761 984 
Q 2972 1278 2972 1816 
Q 2972 2263 2780 2514 
Q 2588 2766 2231 2766 
Q 1894 2766 1673 2512 
Q 1453 2259 1453 1863 
L 1453 1494 
z
" transform="scale(0.015625)"/>
      <path id="MicrosoftYaHei-Bold-59" d="M 4156 4841 
L 2575 1728 
L 2575 0 
L 1544 0 
L 1544 1709 
L 6 4841 
L 1184 4841 
L 1997 2991 
Q 2022 2934 2113 2609 
L 2125 2609 
Q 2163 2828 2228 2981 
L 3063 4841 
L 4156 4841 
z
" transform="scale(0.015625)"/>
     </defs>
     <use xlink:href="#MicrosoftYaHei-Bold-20"/>
     <use xlink:href="#MicrosoftYaHei-Bold-20" transform="translate(29.785156 0)"/>
     <use xlink:href="#MicrosoftYaHei-Bold-20" transform="translate(59.570312 0)"/>
     <use xlink:href="#MicrosoftYaHei-Bold-58" transform="translate(89.355469 0)"/>
     <use xlink:href="#MicrosoftYaHei-Bold-5e" transform="translate(159.375 0)"/>
     <use xlink:href="#MicrosoftYaHei-Bold-42" transform="translate(235.498047 0)"/>
     <use xlink:href="#MicrosoftYaHei-Bold-20" transform="translate(303.857422 0)"/>
     <use xlink:href="#MicrosoftYaHei-Bold-58" transform="translate(333.642578 0)"/>
     <use xlink:href="#MicrosoftYaHei-Bold-5e" transform="translate(403.662109 0)"/>
     <use xlink:href="#MicrosoftYaHei-Bold-62" transform="translate(479.785156 0)"/>
     <use xlink:href="#MicrosoftYaHei-Bold-20" transform="translate(546.386719 0)"/>
     <use xlink:href="#MicrosoftYaHei-Bold-20" transform="translate(576.171875 0)"/>
     <use xlink:href="#MicrosoftYaHei-Bold-20" transform="translate(605.957031 0)"/>
     <use xlink:href="#MicrosoftYaHei-Bold-20" transform="translate(635.742188 0)"/>
     <use xlink:href="#MicrosoftYaHei-Bold-20" transform="translate(665.527344 0)"/>
     <use xlink:href="#MicrosoftYaHei-Bold-20" transform="translate(695.3125 0)"/>
     <use xlink:href="#MicrosoftYaHei-Bold-20" transform="translate(725.097656 0)"/>
     <use xlink:href="#MicrosoftYaHei-Bold-58" transform="translate(754.882812 0)"/>
     <use xlink:href="#MicrosoftYaHei-Bold-5e" transform="translate(824.902344 0)"/>
     <use xlink:href="#MicrosoftYaHei-Bold-42" transform="translate(901.025391 0)"/>
     <use xlink:href="#MicrosoftYaHei-Bold-20" transform="translate(969.384766 0)"/>
     <use xlink:href="#MicrosoftYaHei-Bold-59" transform="translate(999.169922 0)"/>
    </g>
   </g>
   <g id="patch_2">
    <path d="M 158.465985 109.5264 
Q 122.148675 109.5264 86.9494 109.5264 
" style="fill: none; stroke: #888888; stroke-linecap: round"/>
    <path d="M 90.9494 111.5264 
L 86.9494 109.5264 
L 90.9494 107.5264 
" style="fill: none; stroke: #888888; stroke-linecap: round"/>
   </g>
   <g id="text_4">
    <!-- 配子 -->
    <g style="fill: #555555" transform="translate(53.178947 130.8672) scale(0.09 -0.09)">
     <defs>
      <path id="MicrosoftYaHei-Bold-914d" d="M 163 5009 
L 3406 5009 
L 3406 4297 
L 2519 4297 
L 2519 3753 
L 3325 3753 
L 3325 -797 
L 2663 -797 
L 2663 -391 
L 994 -391 
L 994 -784 
L 331 -784 
L 331 3753 
L 1138 3753 
L 1138 4297 
L 163 4297 
L 163 5009 
z
M 1700 3753 
L 1981 3753 
L 1981 4297 
L 1700 4297 
L 1700 3753 
z
M 1350 1397 
Q 1166 1556 994 1694 
L 994 1266 
L 2663 1266 
L 2663 1634 
L 2531 1634 
Q 1981 1634 1981 2197 
L 1981 3097 
L 1697 3097 
Q 1672 1950 1350 1397 
z
M 2738 2159 
L 2781 2159 
L 2781 3097 
L 2519 3097 
L 2519 2397 
Q 2519 2159 2738 2159 
z
M 888 1941 
Q 1131 2303 1131 3097 
L 888 3097 
L 888 1941 
z
M 994 259 
L 2663 259 
L 2663 647 
L 994 647 
L 994 259 
z
M 5538 1334 
Q 5819 1209 6331 1047 
Q 6209 119 6125 -164 
Q 6041 -447 5842 -578 
Q 5644 -709 5325 -709 
L 4513 -709 
Q 3713 -709 3713 153 
L 3713 3003 
L 5188 3003 
L 5188 4184 
L 3619 4184 
L 3619 4984 
L 6000 4984 
L 6000 2203 
L 4519 2203 
L 4519 359 
Q 4519 78 4788 78 
L 5081 78 
Q 5316 78 5394 250 
Q 5472 422 5538 1334 
z
" transform="scale(0.015625)"/>
      <path id="MicrosoftYaHei-Bold-5b50" d="M 144 2572 
L 2819 2572 
L 2819 3303 
L 4338 4147 
L 569 4147 
L 569 4978 
L 5831 4978 
L 5831 4147 
L 3769 2916 
L 3769 2572 
L 6275 2572 
L 6275 1722 
L 3769 1722 
L 3769 528 
Q 3769 -113 3487 -425 
Q 3206 -738 2609 -738 
L 1456 -728 
Q 1369 -266 1225 222 
Q 1788 159 2306 159 
Q 2825 159 2819 709 
L 2819 1722 
L 144 1722 
L 144 2572 
z
" transform="scale(0.015625)"/>
     </defs>
     <use xlink:href="#MicrosoftYaHei-Bold-914d"/>
     <use xlink:href="#MicrosoftYaHei-Bold-5b50" transform="translate(100 0)"/>
    </g>
   </g>
   <g id="text_5">
    <!-- X^B    X^b      X^B    Y -->
    <g style="fill: #c0392b" transform="translate(102.989474 130.8672) scale(0.09 -0.09)">
     <defs>
      <path id="MicrosoftYaHei-58" d="M 4034 0 
L 3275 0 
L 2194 1822 
Q 2156 1884 2084 2072 
L 2069 2072 
Q 2063 2047 1956 1819 
L 844 0 
L 81 0 
L 1691 2431 
L 209 4841 
L 975 4841 
L 1931 3166 
Q 2016 3019 2100 2822 
L 2113 2822 
Q 2188 2991 2297 3181 
L 3297 4841 
L 4013 4841 
L 2500 2441 
L 4034 0 
z
" transform="scale(0.015625)"/>
      <path id="MicrosoftYaHei-5e" d="M 3991 2100 
L 3450 2100 
L 2344 4175 
L 2328 4175 
L 1297 2100 
L 766 2100 
L 2194 4922 
L 2450 4922 
L 3991 2100 
z
" transform="scale(0.015625)"/>
      <path id="MicrosoftYaHei-42" d="M 625 0 
L 625 4841 
L 2047 4841 
Q 2684 4841 3065 4536 
Q 3447 4231 3447 3728 
Q 3447 3328 3220 3022 
Q 2994 2716 2597 2588 
L 2597 2575 
Q 3091 2519 3386 2201 
Q 3681 1884 3681 1397 
Q 3681 772 3232 386 
Q 2784 0 2084 0 
L 625 0 
z
M 1250 4294 
L 1250 2778 
L 1819 2778 
Q 2272 2778 2530 2998 
Q 2788 3219 2788 3609 
Q 2788 4294 1875 4294 
L 1250 4294 
z
M 1250 2234 
L 1250 547 
L 2000 547 
Q 2491 547 2758 773 
Q 3025 1000 3025 1403 
Q 3025 2234 1897 2234 
L 1250 2234 
z
" transform="scale(0.015625)"/>
      <path id="MicrosoftYaHei-62" d="M 1159 488 
L 1159 0 
L 547 0 
L 547 5116 
L 1159 5116 
L 1159 2859 
L 1172 2859 
Q 1578 3538 2359 3538 
Q 3009 3538 3392 3080 
Q 3775 2622 3775 1828 
Q 3775 953 3345 436 
Q 2916 -81 2200 -81 
Q 1525 -81 1172 488 
L 1159 488 
z
M 1156 1422 
Q 1156 1003 1428 714 
Q 1700 425 2109 425 
Q 2597 425 2872 800 
Q 3147 1175 3147 1838 
Q 3147 2384 2890 2707 
Q 2634 3031 2191 3031 
Q 1741 3031 1448 2709 
Q 1156 2388 1156 1891 
L 1156 1422 
z
" transform="scale(0.015625)"/>
      <path id="MicrosoftYaHei-59" d="M 3828 4841 
L 2234 1781 
L 2234 0 
L 1606 0 
L 1606 1766 
L 53 4841 
L 769 4841 
L 1816 2697 
Q 1819 2694 1931 2388 
L 1941 2388 
Q 1978 2519 2069 2694 
L 3163 4841 
L 3828 4841 
z
" transform="scale(0.015625)"/>
     </defs>
     <use xlink:href="#MicrosoftYaHei-58"/>
     <use xlink:href="#MicrosoftYaHei-5e" transform="translate(64.501953 0)"/>
     <use xlink:href="#MicrosoftYaHei-42" transform="translate(138.671875 0)"/>
     <use xlink:href="#MicrosoftYaHei-20" transform="translate(201.416016 0)"/>
     <use xlink:href="#MicrosoftYaHei-20" transform="translate(231.005859 0)"/>
     <use xlink:href="#MicrosoftYaHei-20" transform="translate(260.595703 0)"/>
     <use xlink:href="#MicrosoftYaHei-20" transform="translate(290.185547 0)"/>
     <use xlink:href="#MicrosoftYaHei-58" transform="translate(319.775391 0)"/>
     <use xlink:href="#MicrosoftYaHei-5e" transform="translate(384.277344 0)"/>
     <use xlink:href="#MicrosoftYaHei-62" transform="translate(458.447266 0)"/>
     <use xlink:href="#MicrosoftYaHei-20" transform="translate(522.314453 0)"/>
     <use xlink:href="#MicrosoftYaHei-20" transform="translate(551.904297 0)"/>
     <use xlink:href="#MicrosoftYaHei-20" transform="translate(581.494141 0)"/>
     <use xlink:href="#MicrosoftYaHei-20" transform="translate(611.083984 0)"/>
     <use xlink:href="#MicrosoftYaHei-20" transform="translate(640.673828 0)"/>
     <use xlink:href="#MicrosoftYaHei-20" transform="translate(670.263672 0)"/>
     <use xlink:href="#MicrosoftYaHei-58" transform="translate(699.853516 0)"/>
     <use xlink:href="#MicrosoftYaHei-5e" transform="translate(764.355469 0)"/>
     <use xlink:href="#MicrosoftYaHei-42" transform="translate(838.525391 0)"/>
     <use xlink:href="#MicrosoftYaHei-20" transform="translate(901.269531 0)"/>
     <use xlink:href="#MicrosoftYaHei-20" transform="translate(930.859375 0)"/>
     <use xlink:href="#MicrosoftYaHei-20" transform="translate(960.449219 0)"/>
     <use xlink:href="#MicrosoftYaHei-20" transform="translate(990.039062 0)"/>
     <use xlink:href="#MicrosoftYaHei-59" transform="translate(1019.628906 0)"/>
    </g>
   </g>
   <g id="patch_3">
    <path d="M 158.465985 147.93984 
Q 122.148675 147.93984 86.9494 147.93984 
" style="fill: none; stroke: #888888; stroke-linecap: round"/>
    <path d="M 90.9494 149.93984 
L 86.9494 147.93984 
L 90.9494 145.93984 
" style="fill: none; stroke: #888888; stroke-linecap: round"/>
   </g>
   <g id="text_6">
    <!-- 子代 -->
    <g style="fill: #555555" transform="translate(26.357895 169.28064) scale(0.09 -0.09)">
     <use xlink:href="#MicrosoftYaHei-Bold-5b50"/>
     <use xlink:href="#MicrosoftYaHei-Bold-4ee3" transform="translate(100 0)"/>
    </g>
   </g>
   <g id="text_7">
    <!-- X^BX^B  X^BX^b  X^BY  X^bY -->
    <g style="fill: #2d3436" transform="translate(83.831579 169.28064) scale(0.09 -0.09)">
     <use xlink:href="#MicrosoftYaHei-58"/>
     <use xlink:href="#MicrosoftYaHei-5e" transform="translate(64.501953 0)"/>
     <use xlink:href="#MicrosoftYaHei-42" transform="translate(138.671875 0)"/>
     <use xlink:href="#MicrosoftYaHei-58" transform="translate(201.416016 0)"/>
     <use xlink:href="#MicrosoftYaHei-5e" transform="translate(265.917969 0)"/>
     <use xlink:href="#MicrosoftYaHei-42" transform="translate(340.087891 0)"/>
     <use xlink:href="#MicrosoftYaHei-20" transform="translate(402.832031 0)"/>
     <use xlink:href="#MicrosoftYaHei-20" transform="translate(432.421875 0)"/>
     <use xlink:href="#MicrosoftYaHei-58" transform="translate(462.011719 0)"/>
     <use xlink:href="#MicrosoftYaHei-5e" transform="translate(526.513672 0)"/>
     <use xlink:href="#MicrosoftYaHei-42" transform="translate(600.683594 0)"/>
     <use xlink:href="#MicrosoftYaHei-58" transform="translate(663.427734 0)"/>
     <use xlink:href="#MicrosoftYaHei-5e" transform="translate(727.929688 0)"/>
     <use xlink:href="#MicrosoftYaHei-62" transform="translate(802.099609 0)"/>
     <use xlink:href="#MicrosoftYaHei-20" transform="translate(865.966797 0)"/>
     <use xlink:href="#MicrosoftYaHei-20" transform="translate(895.556641 0)"/>
     <use xlink:href="#MicrosoftYaHei-58" transform="translate(925.146484 0)"/>
     <use xlink:href="#MicrosoftYaHei-5e" transform="translate(989.648438 0)"/>
     <use xlink:href="#MicrosoftYaHei-42" transform="translate(1063.818359 0)"/>
     <use xlink:href="#MicrosoftYaHei-59" transform="translate(1123.0625 0)"/>
     <use xlink:href="#MicrosoftYaHei-20" transform="translate(1183.414062 0)"/>
     <use xlink:href="#MicrosoftYaHei-20" transform="translate(1213.003906 0)"/>
     <use xlink:href="#MicrosoftYaHei-58" transform="translate(1242.59375 0)"/>
     <use xlink:href="#MicrosoftYaHei-5e" transform="translate(1307.095703 0)"/>
     <use xlink:href="#MicrosoftYaHei-62" transform="translate(1381.265625 0)"/>
     <use xlink:href="#MicrosoftYaHei-59" transform="translate(1445.132812 0)"/>
    </g>
   </g>
   <g id="text_8">
    <!-- 正常女  携带者  正常男  色盲男 -->
    <g style="fill: #555555" transform="translate(83.831579 186.35328) scale(0.08 -0.08)">
     <defs>
      <path id="MicrosoftYaHei-8272" d="M 56 3253 
Q 1275 4178 1988 5384 
L 2513 5253 
Q 2344 4984 2153 4728 
L 4625 4728 
L 4625 4284 
Q 4275 3875 3894 3466 
L 5581 3466 
L 5581 1184 
L 5081 1184 
L 5081 1403 
L 1325 1403 
L 1325 297 
Q 1325 -128 1719 -128 
L 5094 -128 
Q 5513 -128 5600 134 
Q 5719 516 5769 1091 
Q 5950 1009 6281 897 
Q 6194 309 6100 -9 
Q 5938 -603 5188 -603 
L 1663 -603 
Q 825 -603 825 253 
L 825 3263 
Q 641 3097 444 2934 
Q 275 3091 56 3253 
z
M 5081 3016 
L 3444 3016 
L 3444 1853 
L 5081 1853 
L 5081 3016 
z
M 1325 1853 
L 2956 1853 
L 2956 3016 
L 1325 3016 
L 1325 1853 
z
M 3994 4291 
L 1809 4291 
Q 1456 3863 1041 3466 
L 3284 3466 
Q 3659 3891 3994 4291 
z
" transform="scale(0.015625)"/>
      <path id="MicrosoftYaHei-76f2" d="M 1056 2609 
L 5469 2609 
L 5469 -834 
L 4994 -834 
L 4994 -522 
L 1531 -522 
L 1531 -834 
L 1056 -834 
L 1056 2609 
z
M 1431 3528 
L 5750 3528 
L 5750 3116 
L 950 3116 
L 950 4166 
L 150 4166 
L 150 4603 
L 3106 4603 
Q 2959 4841 2756 5134 
L 3138 5372 
Q 3394 5084 3613 4753 
L 3384 4603 
L 6250 4603 
L 6250 4166 
L 1431 4166 
L 1431 3528 
z
M 1531 -122 
L 4994 -122 
L 4994 409 
L 1531 409 
L 1531 -122 
z
M 4994 2209 
L 1531 2209 
L 1531 1684 
L 4994 1684 
L 4994 2209 
z
M 1531 784 
L 4994 784 
L 4994 1309 
L 1531 1309 
L 1531 784 
z
" transform="scale(0.015625)"/>
     </defs>
     <use xlink:href="#MicrosoftYaHei-6b63"/>
     <use xlink:href="#MicrosoftYaHei-5e38" transform="translate(100 0)"/>
     <use xlink:href="#MicrosoftYaHei-5973" transform="translate(200 0)"/>
     <use xlink:href="#MicrosoftYaHei-20" transform="translate(300 0)"/>
     <use xlink:href="#MicrosoftYaHei-20" transform="translate(329.589844 0)"/>
     <use xlink:href="#MicrosoftYaHei-643a" transform="translate(359.179688 0)"/>
     <use xlink:href="#MicrosoftYaHei-5e26" transform="translate(459.179688 0)"/>
     <use xlink:href="#MicrosoftYaHei-8005" transform="translate(559.179688 0)"/>
     <use xlink:href="#MicrosoftYaHei-20" transform="translate(659.179688 0)"/>
     <use xlink:href="#MicrosoftYaHei-20" transform="translate(688.769531 0)"/>
     <use xlink:href="#MicrosoftYaHei-6b63" transform="translate(718.359375 0)"/>
     <use xlink:href="#MicrosoftYaHei-5e38" transform="translate(818.359375 0)"/>
     <use xlink:href="#MicrosoftYaHei-7537" transform="translate(918.359375 0)"/>
     <use xlink:href="#MicrosoftYaHei-20" transform="translate(1018.359375 0)"/>
     <use xlink:href="#MicrosoftYaHei-20" transform="translate(1047.949219 0)"/>
     <use xlink:href="#MicrosoftYaHei-8272" transform="translate(1077.539062 0)"/>
     <use xlink:href="#MicrosoftYaHei-76f2" transform="translate(1177.539062 0)"/>
     <use xlink:href="#MicrosoftYaHei-7537" transform="translate(1277.539062 0)"/>
    </g>
   </g>
   <g id="text_9">
    <!-- 比例   1  :  1  :  1  :  1 -->
    <g style="fill: #c0392b" transform="translate(83.831579 203.42592) scale(0.09 -0.09)">
     <defs>
      <path id="MicrosoftYaHei-Bold-6bd4" d="M 5481 4441 
L 6294 3803 
Q 5234 2791 4119 1894 
L 4119 547 
Q 4119 153 4438 153 
L 4875 153 
Q 5119 153 5197 325 
Q 5275 497 5363 1597 
Q 5856 1409 6294 1278 
Q 6231 688 6131 248 
Q 6031 -191 5900 -358 
Q 5769 -525 5511 -617 
Q 5253 -709 4881 -709 
L 4094 -709 
Q 3194 -709 3194 247 
L 3194 5316 
L 4119 5316 
L 4119 3009 
Q 4797 3656 5481 4441 
z
M 1419 5241 
L 1419 3453 
L 2850 3453 
L 2850 2591 
L 1419 2591 
L 1419 372 
L 2869 866 
Q 2856 372 2888 -78 
Q 1500 -503 725 -922 
L 275 -184 
Q 494 -16 494 366 
L 494 5241 
L 1419 5241 
z
" transform="scale(0.015625)"/>
      <path id="MicrosoftYaHei-Bold-4f8b" d="M 1025 5303 
L 1756 5159 
Q 1619 4544 1431 3950 
L 1431 -803 
L 700 -803 
L 700 2103 
Q 513 1713 300 1334 
Q 250 1722 100 2497 
Q 731 3853 1025 5303 
z
M 5275 5234 
L 6056 5234 
L 6056 184 
Q 6056 -244 5868 -472 
Q 5681 -700 5342 -731 
Q 5003 -763 4381 -747 
Q 4338 -391 4225 116 
Q 4706 84 4963 84 
Q 5275 84 5275 484 
L 5275 5234 
z
M 1788 5022 
L 3975 5022 
L 3975 4259 
L 2922 4259 
Q 2878 3944 2813 3647 
L 3938 3647 
Q 3938 428 2131 -822 
Q 1888 -534 1519 -197 
Q 2294 338 2703 1131 
Q 2425 1422 2106 1688 
Q 1991 1475 1856 1284 
Q 1700 1628 1463 2059 
Q 2006 3003 2156 4259 
L 1788 4259 
L 1788 5022 
z
M 3003 1909 
Q 3125 2366 3156 2891 
L 2622 2891 
Q 2534 2613 2428 2353 
Q 2722 2134 3003 1909 
z
M 4194 4766 
L 4894 4766 
L 4894 572 
L 4194 572 
L 4194 4766 
z
" transform="scale(0.015625)"/>
      <path id="MicrosoftYaHei-Bold-31" d="M 2716 4947 
L 2716 0 
L 1700 0 
L 1700 3809 
Q 1513 3647 1188 3517 
Q 863 3388 591 3356 
L 591 4222 
Q 1447 4472 2072 4947 
L 2716 4947 
z
" transform="scale(0.015625)"/>
      <path id="MicrosoftYaHei-Bold-3a" d="M 313 2969 
Q 313 3200 491 3350 
Q 669 3500 916 3500 
Q 1166 3500 1337 3350 
Q 1509 3200 1509 2969 
Q 1509 2728 1337 2579 
Q 1166 2431 903 2431 
Q 653 2431 483 2584 
Q 313 2738 313 2969 
z
M 313 453 
Q 313 688 491 838 
Q 669 988 916 988 
Q 1166 988 1337 834 
Q 1509 681 1509 453 
Q 1509 213 1337 64 
Q 1166 -84 903 -84 
Q 659 -84 486 69 
Q 313 222 313 453 
z
" transform="scale(0.015625)"/>
     </defs>
     <use xlink:href="#MicrosoftYaHei-Bold-6bd4"/>
     <use xlink:href="#MicrosoftYaHei-Bold-4f8b" transform="translate(100 0)"/>
     <use xlink:href="#MicrosoftYaHei-Bold-20" transform="translate(200 0)"/>
     <use xlink:href="#MicrosoftYaHei-Bold-20" transform="translate(229.785156 0)"/>
     <use xlink:href="#MicrosoftYaHei-Bold-20" transform="translate(259.570312 0)"/>
     <use xlink:href="#MicrosoftYaHei-Bold-31" transform="translate(289.355469 0)"/>
     <use xlink:href="#MicrosoftYaHei-Bold-20" transform="translate(351.025391 0)"/>
     <use xlink:href="#MicrosoftYaHei-Bold-20" transform="translate(380.810547 0)"/>
     <use xlink:href="#MicrosoftYaHei-Bold-3a" transform="translate(410.595703 0)"/>
     <use xlink:href="#MicrosoftYaHei-Bold-20" transform="translate(439.160156 0)"/>
     <use xlink:href="#MicrosoftYaHei-Bold-20" transform="translate(468.945312 0)"/>
     <use xlink:href="#MicrosoftYaHei-Bold-31" transform="translate(498.730469 0)"/>
     <use xlink:href="#MicrosoftYaHei-Bold-20" transform="translate(560.400391 0)"/>
     <use xlink:href="#MicrosoftYaHei-Bold-20" transform="translate(590.185547 0)"/>
     <use xlink:href="#MicrosoftYaHei-Bold-3a" transform="translate(619.970703 0)"/>
     <use xlink:href="#MicrosoftYaHei-Bold-20" transform="translate(648.535156 0)"/>
     <use xlink:href="#MicrosoftYaHei-Bold-20" transform="translate(678.320312 0)"/>
     <use xlink:href="#MicrosoftYaHei-Bold-31" transform="translate(708.105469 0)"/>
     <use xlink:href="#MicrosoftYaHei-Bold-20" transform="translate(769.775391 0)"/>
     <use xlink:href="#MicrosoftYaHei-Bold-20" transform="translate(799.560547 0)"/>
     <use xlink:href="#MicrosoftYaHei-Bold-3a" transform="translate(829.345703 0)"/>
     <use xlink:href="#MicrosoftYaHei-Bold-20" transform="translate(857.910156 0)"/>
     <use xlink:href="#MicrosoftYaHei-Bold-20" transform="translate(887.695312 0)"/>
     <use xlink:href="#MicrosoftYaHei-Bold-31" transform="translate(917.480469 0)"/>
    </g>
   </g>
   <g id="text_10">
    <g id="patch_4">
     <path d="M 122.147368 251.29627 
L 213.697368 251.29627 
Q 216.897368 251.29627 216.897368 248.09627 
L 216.897368 220.38702 
Q 216.897368 217.18702 213.697368 217.18702 
L 122.147368 217.18702 
Q 118.947368 217.18702 118.947368 220.38702 
L 118.947368 248.09627 
Q 118.947368 251.29627 122.147368 251.29627 
z
" style="fill: #fef5f5; stroke: #e74c3c; stroke-linejoin: miter"/>
    </g>
    <!-- 特点: 男性患者多于女性 -->
    <g style="fill: #555555" transform="translate(122.147368 226.78202) scale(0.08 -0.08)">
     <defs>
      <path id="MicrosoftYaHei-7279" d="M 81 1609 
Q 666 1806 1238 2003 
L 1238 3472 
L 744 3472 
Q 616 2878 431 2384 
Q 238 2522 19 2659 
Q 369 3484 475 4716 
L 925 4641 
Q 884 4250 822 3891 
L 1238 3891 
L 1238 5291 
L 1706 5291 
L 1706 3891 
L 2488 3891 
L 2488 3472 
L 1706 3472 
L 1706 2166 
Q 2059 2291 2406 2416 
Q 2438 2141 2475 1941 
Q 2113 1813 1706 1663 
L 1706 -828 
L 1238 -828 
L 1238 1488 
Q 734 1297 175 1078 
L 81 1609 
z
M 2263 3103 
L 3981 3103 
L 3981 4028 
L 2525 4028 
L 2525 4453 
L 3981 4453 
L 3981 5322 
L 4469 5322 
L 4469 4453 
L 5988 4453 
L 5988 4028 
L 4469 4028 
L 4469 3103 
L 6275 3103 
L 6275 2678 
L 2263 2678 
L 2263 3103 
z
M 2394 1834 
L 4906 1834 
L 4906 2497 
L 5394 2497 
L 5394 1834 
L 6306 1834 
L 6306 1409 
L 5394 1409 
L 5394 34 
Q 5394 -747 4606 -753 
Q 4325 -759 3756 -747 
Q 3719 -503 3663 -209 
Q 4156 -259 4513 -259 
Q 4906 -259 4906 178 
L 4906 1409 
L 2394 1409 
L 2394 1834 
z
M 2744 978 
L 3106 1266 
Q 3556 772 3881 366 
L 3481 59 
Q 3125 541 2744 978 
z
" transform="scale(0.015625)"/>
      <path id="MicrosoftYaHei-70b9" d="M 900 3378 
L 2863 3378 
L 2863 5341 
L 3388 5341 
L 3388 4591 
L 6181 4591 
L 6181 4141 
L 3388 4141 
L 3388 3378 
L 5600 3378 
L 5600 991 
L 5088 991 
L 5088 1253 
L 1413 1253 
L 1413 991 
L 900 991 
L 900 3378 
z
M 5088 2928 
L 1413 2928 
L 1413 1703 
L 5088 1703 
L 5088 2928 
z
M 5425 847 
Q 5925 91 6225 -516 
L 5750 -772 
Q 5438 -134 4994 622 
L 5425 847 
z
M 1369 553 
Q 894 -303 531 -791 
L 100 -484 
Q 506 53 931 803 
L 1369 553 
z
M 2413 828 
Q 2700 197 2913 -503 
L 2406 -678 
Q 2213 3 1963 666 
L 2413 828 
z
M 3906 872 
Q 4206 253 4450 -422 
L 3956 -616 
Q 3781 -53 3450 697 
L 3906 872 
z
" transform="scale(0.015625)"/>
      <path id="MicrosoftYaHei-3a" d="M 372 3134 
Q 372 3303 490 3415 
Q 609 3528 775 3528 
Q 944 3528 1062 3414 
Q 1181 3300 1181 3134 
Q 1181 2969 1065 2853 
Q 950 2738 772 2738 
Q 603 2738 487 2853 
Q 372 2969 372 3134 
z
M 372 322 
Q 372 491 487 606 
Q 603 722 775 722 
Q 950 722 1065 605 
Q 1181 488 1181 322 
Q 1181 159 1065 42 
Q 950 -75 772 -75 
Q 600 -75 486 42 
Q 372 159 372 322 
z
" transform="scale(0.015625)"/>
      <path id="MicrosoftYaHei-60a3" d="M 688 2947 
L 2969 2947 
L 2969 3434 
L 1200 3434 
L 1200 3259 
L 750 3259 
L 750 4772 
L 2969 4772 
L 2969 5297 
L 3431 5297 
L 3431 4772 
L 5650 4772 
L 5650 3259 
L 5200 3259 
L 5200 3434 
L 3431 3434 
L 3431 2947 
L 5713 2947 
L 5713 1334 
L 5263 1334 
L 5263 1572 
L 3431 1572 
L 3431 1184 
L 2969 1184 
L 2969 1572 
L 1138 1572 
L 1138 1334 
L 688 1334 
L 688 2947 
z
M 1613 1047 
L 2075 1047 
L 2075 166 
Q 2075 -216 2506 -216 
L 3819 -216 
Q 4288 -216 4350 153 
Q 4400 366 4463 816 
Q 4675 728 4956 628 
Q 4869 191 4794 -72 
Q 4638 -653 3900 -653 
L 2388 -653 
Q 1613 -653 1613 141 
L 1613 1047 
z
M 5263 2547 
L 3431 2547 
L 3431 1972 
L 5263 1972 
L 5263 2547 
z
M 1138 1972 
L 2969 1972 
L 2969 2547 
L 1138 2547 
L 1138 1972 
z
M 5200 4372 
L 3431 4372 
L 3431 3834 
L 5200 3834 
L 5200 4372 
z
M 1200 3834 
L 2969 3834 
L 2969 4372 
L 1200 4372 
L 1200 3834 
z
M 713 984 
L 1175 828 
Q 913 41 569 -566 
Q 406 -478 125 -347 
Q 500 259 713 984 
z
M 5125 803 
L 5488 1059 
Q 5931 516 6319 -16 
L 5894 -316 
Q 5519 272 5125 803 
z
M 2513 922 
L 2781 1272 
Q 3394 909 3813 647 
L 3506 247 
Q 3050 578 2513 922 
z
" transform="scale(0.015625)"/>
      <path id="MicrosoftYaHei-591a" d="M 3719 2803 
L 4338 2803 
Q 4050 2522 3744 2272 
L 6019 2272 
L 6019 1816 
Q 4006 -366 650 -891 
Q 538 -666 369 -422 
Q 1894 -203 3100 322 
Q 2919 559 2581 903 
L 2956 1178 
Q 3275 847 3538 522 
Q 4588 1059 5344 1834 
L 3200 1834 
Q 2100 1009 881 484 
Q 769 666 581 909 
Q 2319 1609 3719 2803 
z
M 2775 5316 
L 3406 5316 
Q 3088 4972 2756 4672 
L 5700 4672 
L 5700 4247 
Q 3550 2516 481 1666 
Q 350 1916 194 2103 
Q 1481 2441 2506 2872 
Q 2281 3122 1913 3484 
L 2263 3759 
Q 2631 3403 2944 3066 
Q 4088 3584 4950 4234 
L 2256 4234 
Q 1606 3678 713 3172 
Q 575 3359 369 3566 
Q 1800 4328 2775 5316 
z
" transform="scale(0.015625)"/>
      <path id="MicrosoftYaHei-4e8e" d="M 125 2759 
L 3031 2759 
L 3031 4372 
L 625 4372 
L 625 4866 
L 5800 4866 
L 5800 4372 
L 3556 4372 
L 3556 2759 
L 6275 2759 
L 6275 2266 
L 3556 2266 
L 3556 122 
Q 3556 -303 3400 -491 
Q 3225 -709 2744 -722 
Q 2463 -722 1688 -716 
Q 1656 -428 1588 -147 
Q 2294 -197 2569 -197 
Q 2850 -197 2944 -91 
Q 3031 -3 3031 303 
L 3031 2266 
L 125 2266 
L 125 2759 
z
" transform="scale(0.015625)"/>
     </defs>
     <use xlink:href="#MicrosoftYaHei-7279"/>
     <use xlink:href="#MicrosoftYaHei-70b9" transform="translate(100 0)"/>
     <use xlink:href="#MicrosoftYaHei-3a" transform="translate(200 0)"/>
     <use xlink:href="#MicrosoftYaHei-20" transform="translate(224.072266 0)"/>
     <use xlink:href="#MicrosoftYaHei-7537" transform="translate(253.662109 0)"/>
     <use xlink:href="#MicrosoftYaHei-6027" transform="translate(353.662109 0)"/>
     <use xlink:href="#MicrosoftYaHei-60a3" transform="translate(453.662109 0)"/>
     <use xlink:href="#MicrosoftYaHei-8005" transform="translate(553.662109 0)"/>
     <use xlink:href="#MicrosoftYaHei-591a" transform="translate(653.662109 0)"/>
     <use xlink:href="#MicrosoftYaHei-4e8e" transform="translate(753.662109 0)"/>
     <use xlink:href="#MicrosoftYaHei-5973" transform="translate(853.662109 0)"/>
     <use xlink:href="#MicrosoftYaHei-6027" transform="translate(953.662109 0)"/>
    </g>
    <!--       交叉遗传(外公→外孙) -->
    <g style="fill: #555555" transform="translate(122.147368 236.44477) scale(0.08 -0.08)">
     <defs>
      <path id="MicrosoftYaHei-4ea4" d="M 4194 2641 
L 4675 2434 
Q 4209 1375 3566 713 
Q 4503 19 6225 -278 
Q 5994 -591 5850 -803 
Q 4184 -378 3194 375 
Q 2334 -297 463 -847 
Q 325 -628 150 -366 
Q 1909 78 2803 713 
Q 2184 1344 1738 2359 
L 2156 2597 
Q 2566 1669 3194 1041 
Q 3766 1609 4194 2641 
z
M 194 4384 
L 3122 4384 
Q 2975 4691 2700 5128 
L 3163 5353 
Q 3431 4978 3638 4566 
L 3288 4384 
L 6194 4384 
L 6194 3922 
L 194 3922 
L 194 4384 
z
M 2044 3634 
L 2444 3309 
Q 1569 2391 625 1666 
Q 469 1859 275 2066 
Q 1219 2734 2044 3634 
z
M 4288 3666 
Q 5431 2766 6075 2159 
Q 5900 1984 5700 1753 
Q 4994 2478 3944 3341 
L 4288 3666 
z
" transform="scale(0.015625)"/>
      <path id="MicrosoftYaHei-53c9" d="M 613 4809 
L 5438 4809 
L 5438 4341 
Q 4934 2241 3600 897 
Q 4516 238 6313 -228 
Q 6081 -516 5881 -784 
Q 4119 -169 3197 541 
Q 2181 -241 438 -809 
Q 288 -584 94 -322 
Q 1863 181 2803 881 
Q 1434 2169 1025 4353 
L 613 4353 
L 613 4809 
z
M 4894 4353 
L 1550 4353 
Q 1838 2469 3203 1225 
Q 4463 2425 4894 4353 
z
M 2531 3728 
L 2906 3984 
Q 3425 3353 3781 2884 
L 3356 2591 
Q 2719 3509 2531 3728 
z
" transform="scale(0.015625)"/>
      <path id="MicrosoftYaHei-9057" d="M 1713 3091 
L 3806 3091 
L 3806 3547 
L 2669 3547 
L 2669 3341 
L 2244 3341 
L 2244 4791 
L 3806 4791 
L 3806 5278 
L 4244 5278 
L 4244 4791 
L 5806 4791 
L 5806 3347 
L 5381 3347 
L 5381 3547 
L 4244 3547 
L 4244 3091 
L 6275 3091 
L 6275 2716 
L 1713 2716 
L 1713 3091 
z
M 2644 -228 
Q 4063 -259 6294 -203 
Q 6225 -409 6119 -697 
Q 3819 -703 2594 -672 
Q 1513 -666 1075 72 
Q 756 -241 325 -778 
L 69 -259 
Q 519 184 894 534 
L 894 2628 
L 131 2628 
L 131 3066 
L 1344 3066 
L 1344 422 
Q 1719 -216 2644 -228 
z
M 2244 2341 
L 5744 2341 
L 5744 841 
L 5306 841 
L 5306 1972 
L 2681 1972 
L 2681 841 
L 2244 841 
L 2244 2341 
z
M 3781 1828 
L 4231 1828 
Q 4231 1422 4144 1172 
Q 5119 734 5925 303 
L 5638 -91 
Q 4913 353 3963 784 
Q 3625 209 2200 -72 
Q 2075 147 1944 328 
Q 3238 522 3588 984 
Q 3781 1272 3781 1828 
z
M 856 5178 
Q 1269 4653 1731 3997 
L 1288 3684 
Q 825 4416 456 4909 
L 856 5178 
z
M 5381 4422 
L 4244 4422 
L 4244 3916 
L 5381 3916 
L 5381 4422 
z
M 2669 3916 
L 3806 3916 
L 3806 4422 
L 2669 4422 
L 2669 3916 
z
" transform="scale(0.015625)"/>
      <path id="MicrosoftYaHei-4f20" d="M 2413 684 
L 2681 1053 
Q 3397 666 4056 278 
L 5269 1472 
L 2606 1472 
L 2606 1916 
Q 2731 2306 2847 2691 
L 1869 2691 
L 1869 3128 
L 2975 3128 
Q 3097 3550 3203 3959 
L 2175 3959 
L 2175 4397 
L 3316 4397 
Q 3425 4831 3519 5253 
L 4056 5253 
Q 3959 4838 3847 4397 
L 6050 4397 
L 6050 3959 
L 3734 3959 
Q 3625 3553 3503 3128 
L 6300 3128 
L 6300 2691 
L 3378 2691 
Q 3266 2306 3144 1909 
L 5906 1909 
L 5906 1453 
L 4481 22 
Q 4869 -209 5238 -447 
L 4913 -872 
Q 3594 34 2413 684 
z
M 88 2241 
Q 963 3528 1469 5297 
L 1975 5147 
Q 1741 4422 1475 3791 
L 1475 -803 
L 981 -803 
L 981 2763 
Q 663 2175 306 1691 
Q 213 1959 88 2241 
z
" transform="scale(0.015625)"/>
      <path id="MicrosoftYaHei-28" d="M 1531 -1100 
Q 478 100 478 1847 
Q 478 3594 1531 4841 
L 2072 4841 
Q 1016 3544 1016 1853 
Q 1016 166 2066 -1100 
L 1531 -1100 
z
" transform="scale(0.015625)"/>
      <path id="MicrosoftYaHei-5916" d="M 38 2084 
Q 969 3503 1438 5316 
L 1950 5172 
Q 1800 4666 1638 4197 
L 3375 4197 
L 3375 3734 
Q 3044 628 569 -822 
Q 438 -616 244 -378 
Q 1456 341 2106 1422 
Q 1669 1791 1125 2172 
L 1444 2553 
Q 1975 2166 2350 1872 
Q 2738 2678 2850 3722 
L 1456 3722 
Q 1019 2616 325 1553 
Q 200 1809 38 2084 
z
M 3988 5266 
L 4513 5266 
L 4513 3116 
L 4763 3397 
Q 5656 2703 6356 2128 
L 6000 1666 
Q 5338 2278 4513 2972 
L 4513 -859 
L 3988 -859 
L 3988 5266 
z
" transform="scale(0.015625)"/>
      <path id="MicrosoftYaHei-516c" d="M 4144 1591 
Q 5044 422 5663 -534 
L 5188 -847 
Q 5013 -559 4816 -250 
Q 2753 -350 1463 -453 
Q 1225 -478 888 -559 
L 613 -28 
Q 894 84 1131 316 
Q 1863 1159 2719 2809 
L 3256 2566 
Q 2481 1234 1600 78 
Q 2891 119 4522 194 
Q 4166 734 3738 1334 
L 4144 1591 
z
M 3606 4953 
L 4069 5134 
Q 4675 3503 6325 2547 
Q 6156 2372 5938 2059 
Q 4213 3247 3606 4953 
z
M 75 2366 
Q 1469 3503 2156 5047 
L 2650 4841 
Q 1806 3084 475 1966 
Q 313 2172 75 2366 
z
" transform="scale(0.015625)"/>
      <path id="MicrosoftYaHei-2192" d="M 4859 3766 
Q 5241 3344 5514 3125 
Q 5788 2906 6150 2713 
L 6150 2572 
Q 5788 2381 5517 2164 
Q 5247 1947 4859 1519 
L 4622 1519 
Q 4766 1822 4866 1983 
Q 4966 2144 5141 2369 
L 247 2369 
L 247 2916 
L 5141 2916 
Q 4972 3131 4869 3298 
Q 4766 3466 4622 3766 
L 4859 3766 
z
" transform="scale(0.015625)"/>
      <path id="MicrosoftYaHei-5b59" d="M 81 1897 
Q 569 2053 1044 2216 
L 1044 3284 
L 1900 4397 
L 194 4397 
L 194 4853 
L 2513 4853 
L 2513 4359 
L 1519 3128 
L 1519 2378 
Q 1975 2541 2413 2703 
Q 2419 2391 2431 2191 
Q 1938 2016 1519 1859 
L 1519 -9 
Q 1519 -709 850 -709 
Q 488 -709 181 -703 
Q 156 -484 106 -203 
Q 450 -241 750 -241 
Q 1044 -241 1044 66 
L 1044 1691 
Q 556 1509 181 1366 
L 81 1897 
z
M 4131 5272 
L 4625 5272 
L 4625 9 
Q 4625 -734 3881 -734 
Q 3556 -734 3081 -728 
Q 3050 -478 2981 -191 
Q 3413 -241 3756 -241 
Q 4131 -241 4131 122 
L 4131 5272 
z
M 5019 3622 
L 5456 3741 
Q 5888 2366 6319 897 
L 5819 728 
Q 5481 2034 5019 3622 
z
M 3131 3741 
L 3619 3641 
Q 3225 1841 2800 684 
Q 2581 778 2331 866 
Q 2888 2284 3131 3741 
z
" transform="scale(0.015625)"/>
      <path id="MicrosoftYaHei-29" d="M 78 -1100 
Q 1131 163 1131 1853 
Q 1131 3547 72 4841 
L 616 4841 
Q 1672 3603 1672 1847 
Q 1672 91 616 -1100 
L 78 -1100 
z
" transform="scale(0.015625)"/>
     </defs>
     <use xlink:href="#MicrosoftYaHei-20"/>
     <use xlink:href="#MicrosoftYaHei-20" transform="translate(29.589844 0)"/>
     <use xlink:href="#MicrosoftYaHei-20" transform="translate(59.179688 0)"/>
     <use xlink:href="#MicrosoftYaHei-20" transform="translate(88.769531 0)"/>
     <use xlink:href="#MicrosoftYaHei-20" transform="translate(118.359375 0)"/>
     <use xlink:href="#MicrosoftYaHei-20" transform="translate(147.949219 0)"/>
     <use xlink:href="#MicrosoftYaHei-4ea4" transform="translate(177.539062 0)"/>
     <use xlink:href="#MicrosoftYaHei-53c9" transform="translate(277.539062 0)"/>
     <use xlink:href="#MicrosoftYaHei-9057" transform="translate(377.539062 0)"/>
     <use xlink:href="#MicrosoftYaHei-4f20" transform="translate(477.539062 0)"/>
     <use xlink:href="#MicrosoftYaHei-28" transform="translate(577.539062 0)"/>
     <use xlink:href="#MicrosoftYaHei-5916" transform="translate(610.9375 0)"/>
     <use xlink:href="#MicrosoftYaHei-516c" transform="translate(710.9375 0)"/>
     <use xlink:href="#MicrosoftYaHei-2192" transform="translate(810.9375 0)"/>
     <use xlink:href="#MicrosoftYaHei-5916" transform="translate(910.9375 0)"/>
     <use xlink:href="#MicrosoftYaHei-5b59" transform="translate(1010.9375 0)"/>
     <use xlink:href="#MicrosoftYaHei-29" transform="translate(1110.9375 0)"/>
    </g>
    <!--       女性患病→父必患 -->
    <g style="fill: #555555" transform="translate(122.147368 246.10752) scale(0.08 -0.08)">
     <defs>
      <path id="MicrosoftYaHei-75c5" d="M 1725 3541 
L 6163 3541 
L 6163 3103 
L 4225 3103 
Q 4219 2728 4197 2416 
L 5981 2416 
L 5981 47 
Q 5981 -684 5225 -691 
Q 4788 -697 4163 -684 
Q 4125 -466 4063 -191 
Q 4563 -228 5081 -228 
Q 5506 -228 5506 147 
L 5506 1991 
L 4147 1991 
Q 4131 1878 4109 1775 
Q 4781 1056 5250 503 
L 4888 141 
Q 4428 747 3963 1288 
Q 3675 591 2819 -16 
Q 2675 166 2494 378 
Q 3575 1041 3688 1991 
L 2388 1991 
L 2388 -766 
L 1913 -766 
L 1913 2416 
L 3744 2416 
Q 3769 2722 3775 3103 
L 1725 3103 
L 1725 3541 
z
M 1481 2484 
Q 1481 178 506 -778 
Q 363 -572 163 -366 
Q 831 328 969 1619 
Q 666 1425 213 1153 
L 94 1678 
Q 669 1953 1013 2159 
L 1013 4584 
L 3472 4584 
Q 3309 4838 3094 5128 
L 3506 5366 
Q 3775 5022 3963 4734 
L 3713 4584 
L 6300 4584 
L 6300 4147 
L 1481 4147 
L 1481 2484 
z
M 175 3834 
L 581 3959 
Q 750 3384 919 2728 
L 469 2597 
Q 344 3247 175 3834 
z
" transform="scale(0.015625)"/>
      <path id="MicrosoftYaHei-7236" d="M 4513 3397 
L 5000 3209 
Q 4541 1822 3616 875 
Q 4406 294 6244 -197 
Q 5956 -522 5806 -741 
Q 4022 -116 3225 513 
Q 2294 -247 506 -791 
Q 344 -572 131 -303 
Q 1969 166 2853 853 
Q 1931 1806 1494 3172 
L 1950 3391 
Q 2344 2063 3238 1203 
Q 4113 2122 4513 3397 
z
M 2338 5178 
L 2769 4872 
Q 1800 3641 650 2703 
Q 494 2891 294 3103 
Q 1413 3972 2338 5178 
z
M 4025 5172 
Q 5369 4103 6269 3228 
L 5894 2816 
Q 4875 3841 3681 4828 
L 4025 5172 
z
" transform="scale(0.015625)"/>
      <path id="MicrosoftYaHei-5fc5" d="M 119 47 
Q 991 497 1750 1053 
L 1750 4259 
L 2238 4259 
L 2238 1431 
Q 3956 2834 5038 4834 
L 5506 4597 
Q 4222 2306 2238 769 
L 2238 391 
Q 2238 -41 2638 -41 
L 4213 -41 
Q 4631 -41 4700 372 
Q 4756 622 4794 1184 
Q 5100 1059 5306 997 
Q 5219 359 5150 122 
Q 4994 -503 4300 -503 
L 2513 -503 
Q 1750 -503 1750 297 
L 1750 409 
Q 1138 -16 469 -378 
Q 344 -191 119 47 
z
M 825 3559 
L 1306 3409 
Q 938 1953 613 1184 
Q 413 1284 144 1384 
Q 506 2284 825 3559 
z
M 4913 2941 
L 5350 3153 
Q 5856 2259 6275 1359 
L 5781 1091 
Q 5444 1916 4913 2941 
z
M 2431 5009 
L 2781 5328 
Q 3356 4816 3906 4247 
L 3519 3884 
Q 3113 4353 2431 5009 
z
" transform="scale(0.015625)"/>
     </defs>
     <use xlink:href="#MicrosoftYaHei-20"/>
     <use xlink:href="#MicrosoftYaHei-20" transform="translate(29.589844 0)"/>
     <use xlink:href="#MicrosoftYaHei-20" transform="translate(59.179688 0)"/>
     <use xlink:href="#MicrosoftYaHei-20" transform="translate(88.769531 0)"/>
     <use xlink:href="#MicrosoftYaHei-20" transform="translate(118.359375 0)"/>
     <use xlink:href="#MicrosoftYaHei-20" transform="translate(147.949219 0)"/>
     <use xlink:href="#MicrosoftYaHei-5973" transform="translate(177.539062 0)"/>
     <use xlink:href="#MicrosoftYaHei-6027" transform="translate(277.539062 0)"/>
     <use xlink:href="#MicrosoftYaHei-60a3" transform="translate(377.539062 0)"/>
     <use xlink:href="#MicrosoftYaHei-75c5" transform="translate(477.539062 0)"/>
     <use xlink:href="#MicrosoftYaHei-2192" transform="translate(577.539062 0)"/>
     <use xlink:href="#MicrosoftYaHei-7236" transform="translate(677.539062 0)"/>
     <use xlink:href="#MicrosoftYaHei-5fc5" transform="translate(777.539062 0)"/>
     <use xlink:href="#MicrosoftYaHei-60a3" transform="translate(877.539062 0)"/>
    </g>
   </g>
   <g id="text_11">
    <!-- 红绿色盲的遗传 (伴X隐性) -->
    <g style="fill: #1a1a2e" transform="translate(57.371978 35.504) scale(0.11 -0.11)">
     <defs>
      <path id="MicrosoftYaHei-Bold-7ea2" d="M 1075 3447 
Q 1284 3450 1581 3466 
Q 1788 3816 1988 4197 
L 2788 3803 
Q 2256 2866 1381 1753 
Q 1938 1816 2463 1891 
Q 2400 1384 2388 1066 
Q 875 941 500 803 
L 163 1641 
Q 475 1741 1097 2703 
Q 575 2669 331 2609 
L 75 3366 
Q 425 3628 1213 5366 
L 2075 5016 
Q 1475 4009 1075 3447 
z
M 263 -472 
L 113 409 
Q 1288 553 2406 728 
L 2388 291 
L 3875 291 
L 3875 4016 
L 2563 4016 
L 2563 4853 
L 6075 4853 
L 6075 4016 
L 4775 4016 
L 4775 291 
L 6244 291 
L 6244 -547 
L 2338 -547 
L 2338 -159 
Q 1241 -300 263 -472 
z
" transform="scale(0.015625)"/>
      <path id="MicrosoftYaHei-Bold-7eff" d="M 1213 1653 
L 2106 1766 
Q 2050 1372 2056 1022 
Q 1250 959 456 816 
L 244 1541 
Q 519 1794 1000 2713 
Q 556 2678 294 2634 
L 69 3347 
Q 500 3922 1006 5359 
L 1788 5128 
Q 1363 4197 875 3416 
L 1363 3438 
Q 1541 3803 1738 4241 
L 2494 3916 
Q 1725 2397 1213 1653 
z
M 2575 4059 
L 4834 4059 
L 4856 4397 
L 2413 4397 
L 2413 5103 
L 5738 5103 
L 5597 3078 
L 6300 3078 
L 6300 2384 
L 4588 2384 
L 4588 2131 
Q 4700 1859 4841 1622 
Q 5231 1944 5669 2366 
L 6263 1809 
L 5228 1094 
Q 5672 594 6300 291 
Q 6006 -84 5775 -466 
Q 5034 47 4588 838 
L 4588 66 
Q 4588 -369 4391 -589 
Q 4194 -809 3848 -818 
Q 3503 -828 2969 -828 
Q 2900 -422 2781 -28 
Q 3084 -53 3350 -53 
Q 3588 -53 3669 14 
Q 3750 81 3750 259 
L 3750 803 
Q 3203 363 2513 -141 
L 2053 447 
Q 2019 109 2031 -216 
L 250 -528 
L 88 297 
Q 1228 419 2041 578 
Q 3022 1063 3750 1591 
L 3750 2384 
L 2697 2384 
Q 3075 2097 3513 1716 
L 3006 1197 
Q 2681 1522 2188 1916 
L 2638 2384 
L 2088 2384 
L 2088 3078 
L 4775 3078 
L 4794 3416 
L 2575 3416 
L 2575 4059 
z
" transform="scale(0.015625)"/>
      <path id="MicrosoftYaHei-Bold-8272" d="M 4919 4853 
L 4919 4166 
L 4378 3566 
L 5669 3566 
L 5669 1241 
L 1619 1241 
L 1619 691 
Q 1619 97 2231 97 
L 4756 97 
Q 5013 97 5163 180 
Q 5313 263 5361 414 
Q 5409 566 5506 1197 
Q 6056 984 6294 909 
Q 6159 263 6056 -51 
Q 5953 -366 5623 -531 
Q 5294 -697 4738 -697 
L 1963 -697 
Q 731 -697 731 453 
L 731 2834 
Q 616 2744 494 2659 
Q 306 3053 63 3453 
Q 1269 4253 1913 5341 
L 2881 5272 
Q 2766 5059 2634 4853 
L 4919 4853 
z
M 1581 3566 
L 3341 3566 
L 3856 4147 
L 2119 4147 
Q 1869 3847 1581 3566 
z
M 1619 1953 
L 2775 1953 
L 2775 2853 
L 1619 2853 
L 1619 1953 
z
M 4794 1953 
L 4794 2853 
L 3638 2853 
L 3638 1953 
L 4794 1953 
z
" transform="scale(0.015625)"/>
      <path id="MicrosoftYaHei-Bold-76f2" d="M 150 4791 
L 2697 4791 
L 2544 5178 
L 3475 5359 
Q 3584 5091 3684 4791 
L 6250 4791 
L 6250 4103 
L 1631 4103 
L 1631 3634 
L 5869 3634 
L 5869 2997 
L 756 2997 
L 756 4103 
L 150 4103 
L 150 4791 
z
M 856 -847 
L 856 2659 
L 5681 2659 
L 5681 -847 
L 4856 -847 
L 4856 -622 
L 1681 -622 
L 1681 -847 
L 856 -847 
z
M 4856 2034 
L 1681 2034 
L 1681 1691 
L 4856 1691 
L 4856 2034 
z
M 1681 847 
L 4856 847 
L 4856 1191 
L 1681 1191 
L 1681 847 
z
M 1681 3 
L 4856 3 
L 4856 347 
L 1681 347 
L 1681 3 
z
" transform="scale(0.015625)"/>
      <path id="MicrosoftYaHei-Bold-7684" d="M 1250 5303 
L 2181 5159 
L 1900 4309 
L 2963 4309 
L 2963 3091 
Q 3466 3934 3925 5316 
L 4788 5091 
Q 4650 4675 4494 4278 
L 6106 4278 
L 6034 681 
Q 6019 100 5937 -133 
Q 5856 -366 5684 -512 
Q 5513 -659 5205 -712 
Q 4897 -766 3863 -766 
Q 3769 -216 3625 178 
Q 4088 141 4609 141 
Q 4759 141 4868 175 
Q 4978 209 5048 279 
Q 5119 350 5144 437 
Q 5169 525 5184 1206 
L 5213 2484 
Q 5225 3081 5225 3453 
L 4138 3453 
Q 3931 3016 3700 2603 
Q 3403 2797 2963 2988 
L 2963 -734 
L 2094 -734 
L 2094 -284 
L 1206 -284 
L 1206 -772 
L 338 -772 
L 338 4309 
L 997 4309 
Q 1178 4922 1250 5303 
z
M 2094 3491 
L 1206 3491 
L 1206 2422 
L 2094 2422 
L 2094 3491 
z
M 1206 534 
L 2094 534 
L 2094 1603 
L 1206 1603 
L 1206 534 
z
M 3944 2703 
Q 4394 2166 4913 1397 
L 4125 872 
Q 3650 1653 3219 2203 
L 3944 2703 
z
" transform="scale(0.015625)"/>
      <path id="MicrosoftYaHei-Bold-9057" d="M 2069 4997 
L 3606 4997 
L 3606 5341 
L 4394 5341 
L 4394 4997 
L 5931 4997 
L 5931 3578 
L 4394 3578 
L 4394 3297 
L 6250 3297 
L 6250 2734 
L 1750 2734 
L 1750 3297 
L 3606 3297 
L 3606 3578 
L 2069 3578 
L 2069 4997 
z
M 5156 4459 
L 4394 4459 
L 4394 4116 
L 5156 4116 
L 5156 4459 
z
M 2844 4116 
L 3606 4116 
L 3606 4459 
L 2844 4459 
L 2844 4116 
z
M 938 5322 
Q 1475 4672 1806 4178 
Q 1400 3922 1069 3691 
Q 669 4359 263 4878 
L 938 5322 
z
M 3588 1784 
L 4400 1784 
Q 4388 1500 4306 1259 
Q 5416 878 6106 591 
L 5753 38 
L 6300 47 
L 5994 -753 
L 3772 -728 
L 2447 -703 
Q 2153 -694 1789 -562 
Q 1425 -431 1138 -103 
L 456 -884 
L 100 78 
Q 356 306 694 594 
L 694 2309 
L 138 2309 
L 138 3134 
L 1475 3134 
L 1475 572 
Q 1709 247 2178 119 
Q 2053 372 1875 697 
Q 2772 759 3181 1001 
Q 3591 1244 3588 1784 
z
M 2503 56 
Q 2856 22 3963 22 
Q 4613 22 5525 34 
Q 4838 356 3975 713 
Q 3594 284 2503 56 
z
M 2875 1009 
L 2088 1009 
L 2088 2453 
L 5906 2453 
L 5906 1009 
L 5119 1009 
L 5119 1922 
L 2875 1922 
L 2875 1009 
z
" transform="scale(0.015625)"/>
      <path id="MicrosoftYaHei-Bold-4f20" d="M 1306 5347 
L 2131 5128 
Q 1891 4375 1600 3681 
L 1600 -853 
L 806 -853 
L 806 2041 
Q 556 1597 281 1178 
Q 206 1672 75 2347 
Q 856 3609 1306 5347 
z
M 2325 334 
L 2738 1009 
Q 3278 816 4028 516 
L 4819 1297 
L 2450 1297 
L 2450 1978 
Q 2550 2263 2647 2559 
L 1875 2559 
L 1875 3272 
L 2866 3272 
L 3025 3828 
L 2175 3828 
L 2175 4528 
L 3209 4528 
L 3388 5278 
L 4319 5278 
L 4134 4528 
L 6075 4528 
L 6075 3828 
L 3950 3828 
L 3794 3272 
L 6300 3272 
L 6300 2559 
L 3578 2559 
Q 3488 2269 3394 1997 
L 6019 1997 
L 6019 1341 
L 4872 169 
L 5650 -159 
L 5206 -897 
Q 4088 -359 2325 334 
z
" transform="scale(0.015625)"/>
      <path id="MicrosoftYaHei-Bold-28" d="M 1606 -1100 
Q 525 97 525 1853 
Q 525 3550 1606 4841 
L 2431 4841 
Q 1406 3497 1406 1853 
Q 1406 216 2438 -1100 
L 1606 -1100 
z
" transform="scale(0.015625)"/>
      <path id="MicrosoftYaHei-Bold-4f34" d="M 1294 5316 
L 2150 5041 
Q 1941 4406 1713 3831 
L 1713 -778 
L 875 -778 
L 875 2044 
Q 631 1603 369 1209 
L 94 2428 
Q 756 3534 1294 5316 
z
M 1988 1397 
L 3725 1397 
L 3725 2066 
L 2213 2066 
L 2213 2866 
L 3725 2866 
L 3725 5291 
L 4625 5291 
L 4625 2866 
L 6113 2866 
L 6113 2066 
L 4625 2066 
L 4625 1397 
L 6306 1397 
L 6306 597 
L 4625 597 
L 4625 -809 
L 3725 -809 
L 3725 597 
L 1988 597 
L 1988 1397 
z
M 5481 4878 
L 6250 4572 
L 5575 3134 
L 4863 3441 
Q 5188 4141 5481 4878 
z
M 2931 4841 
Q 3041 4572 3481 3447 
L 2725 3166 
Q 2538 3666 2156 4566 
L 2931 4841 
z
" transform="scale(0.015625)"/>
      <path id="MicrosoftYaHei-Bold-9690" d="M 2631 2741 
L 5213 2741 
L 5213 3028 
L 2619 3028 
L 2619 3219 
Q 2503 3113 2388 3016 
Q 2338 3491 2275 3909 
Q 2838 4472 3238 5303 
L 4163 5303 
Q 4019 5031 3869 4784 
L 5588 4784 
L 5588 4259 
L 5203 3716 
L 6000 3716 
L 6000 1228 
L 4809 1228 
L 5038 703 
L 4275 353 
Q 4153 797 4009 1228 
L 2538 1228 
L 2538 1916 
L 5213 1916 
L 5213 2203 
L 2631 2203 
L 2631 2741 
z
M 3097 3716 
L 4378 3716 
L 4644 4097 
L 3403 4097 
Q 3253 3897 3097 3716 
z
M 2000 2616 
Q 2400 1834 2400 1225 
Q 2400 681 2147 445 
Q 1894 209 1269 203 
Q 1225 434 1163 700 
L 1163 -859 
L 388 -859 
L 388 5059 
L 2331 5059 
L 2331 4303 
L 2000 2616 
z
M 1275 2541 
L 1613 4297 
L 1163 4297 
L 1163 950 
Q 1438 947 1569 1003 
Q 1700 1059 1700 1297 
Q 1700 1728 1275 2541 
z
M 2463 928 
L 3081 700 
L 3081 1109 
L 3844 1109 
L 3844 259 
Q 3844 -122 4150 -122 
L 4456 -122 
Q 4616 -122 4716 -36 
Q 4816 50 4888 597 
Q 5156 478 5428 375 
L 5263 916 
L 5925 1066 
Q 6144 434 6344 -266 
L 5663 -434 
L 5538 3 
Q 5366 -516 5148 -666 
Q 4931 -816 4600 -816 
L 3931 -816 
Q 3081 -816 3081 22 
L 3081 628 
Q 2853 88 2569 -541 
Q 2231 -372 1944 -247 
Q 2225 297 2463 928 
z
" transform="scale(0.015625)"/>
      <path id="MicrosoftYaHei-Bold-6027" d="M 2250 216 
L 3975 216 
L 3975 1378 
L 2563 1378 
L 2563 2191 
L 3975 2191 
L 3975 3303 
L 3213 3303 
Q 3075 2734 2913 2272 
Q 2538 2491 2175 2684 
Q 2563 3684 2738 4947 
L 3506 4891 
Q 3447 4484 3381 4116 
L 3975 4116 
L 3975 5316 
L 4825 5316 
L 4825 4116 
L 6125 4116 
L 6125 3303 
L 4825 3303 
L 4825 2191 
L 6100 2191 
L 6100 1378 
L 4825 1378 
L 4825 216 
L 6313 216 
L 6313 -597 
L 2250 -597 
L 2250 216 
z
M 1788 5316 
L 1788 4456 
Q 2125 4316 2494 4134 
L 2175 3453 
L 1788 3713 
L 1788 -841 
L 950 -841 
L 950 5316 
L 1788 5316 
z
M 269 4103 
L 800 4041 
Q 719 3009 619 2178 
Q 350 2284 106 2316 
Q 225 3284 269 4103 
z
" transform="scale(0.015625)"/>
      <path id="MicrosoftYaHei-Bold-29" d="M 59 -1100 
Q 1097 216 1097 1853 
Q 1097 3484 59 4841 
L 888 4841 
Q 1978 3544 1978 1853 
Q 1978 113 881 -1100 
L 59 -1100 
z
" transform="scale(0.015625)"/>
     </defs>
     <use xlink:href="#MicrosoftYaHei-Bold-7ea2"/>
     <use xlink:href="#MicrosoftYaHei-Bold-7eff" transform="translate(100 0)"/>
     <use xlink:href="#MicrosoftYaHei-Bold-8272" transform="translate(200 0)"/>
     <use xlink:href="#MicrosoftYaHei-Bold-76f2" transform="translate(300 0)"/>
     <use xlink:href="#MicrosoftYaHei-Bold-7684" transform="translate(400 0)"/>
     <use xlink:href="#MicrosoftYaHei-Bold-9057" transform="translate(500 0)"/>
     <use xlink:href="#MicrosoftYaHei-Bold-4f20" transform="translate(600 0)"/>
     <use xlink:href="#MicrosoftYaHei-Bold-20" transform="translate(700 0)"/>
     <use xlink:href="#MicrosoftYaHei-Bold-28" transform="translate(729.785156 0)"/>
     <use xlink:href="#MicrosoftYaHei-Bold-4f34" transform="translate(768.75 0)"/>
     <use xlink:href="#MicrosoftYaHei-Bold-58" transform="translate(868.75 0)"/>
     <use xlink:href="#MicrosoftYaHei-Bold-9690" transform="translate(938.769531 0)"/>
     <use xlink:href="#MicrosoftYaHei-Bold-6027" transform="translate(1038.769531 0)"/>
     <use xlink:href="#MicrosoftYaHei-Bold-29" transform="translate(1138.769531 0)"/>
    </g>
   </g>
  </g>
  <g id="axes_2">
   <g id="patch_5">
    <path d="M 301.465263 89.5194 
L 445.149474 89.5194 
L 445.149474 76.1814 
L 301.465263 76.1814 
z
" clip-path="url(#p3c2b74b430)" style="fill: #3498db; opacity: 0.8"/>
   </g>
   <g id="patch_6">
    <path d="M 301.465263 108.1926 
L 312.96 108.1926 
L 312.96 94.8546 
L 301.465263 94.8546 
z
" clip-path="url(#p3c2b74b430)" style="fill: #e74c3c; opacity: 0.8"/>
   </g>
   <g id="text_12">
    <!-- 红绿色盲 -->
    <g style="fill: #333333" transform="translate(312.96 82.8504) scale(0.08 -0.08)">
     <defs>
      <path id="MicrosoftYaHei-7ea2" d="M 2213 16 
L 4038 16 
L 4038 4253 
L 2538 4253 
L 2538 4741 
L 6081 4741 
L 6081 4253 
L 4569 4253 
L 4569 16 
L 6313 16 
L 6313 -472 
L 2213 -472 
L 2213 16 
z
M 919 1597 
Q 2063 1759 2488 1828 
Q 2450 1584 2431 1353 
Q 1644 1247 319 1041 
L 200 1503 
Q 716 2006 1241 2759 
Q 572 2719 256 2691 
L 131 3116 
Q 831 4022 1431 5347 
L 1938 5159 
Q 1319 4022 725 3153 
Q 1138 3163 1516 3175 
Q 1769 3566 2025 4016 
L 2506 3784 
Q 1688 2528 919 1597 
z
M 119 222 
Q 1231 459 2500 747 
Q 2481 497 2481 259 
Q 1475 28 263 -284 
L 119 222 
z
" transform="scale(0.015625)"/>
      <path id="MicrosoftYaHei-7eff" d="M 2138 2972 
L 5088 2972 
L 5131 3566 
L 2575 3566 
L 2575 3978 
L 5159 3978 
L 5200 4559 
L 2475 4559 
L 2475 4984 
L 5694 4984 
L 5550 2972 
L 6313 2972 
L 6313 2547 
L 4456 2547 
L 4456 2272 
Q 4638 1781 4881 1388 
Q 5381 1788 5794 2266 
L 6163 1947 
Q 5728 1497 5141 1025 
Q 5634 416 6338 116 
Q 6106 -78 5919 -284 
Q 5016 213 4456 1294 
L 4456 28 
Q 4456 -772 3681 -772 
Q 3406 -772 2869 -766 
Q 2831 -528 2775 -247 
Q 3256 -297 3563 -297 
Q 3981 -297 3981 147 
L 3981 2547 
L 2138 2547 
L 2138 2972 
z
M 875 1578 
Q 1463 1659 2094 1766 
Q 2056 1522 2038 1291 
Q 1188 1166 319 1022 
L 225 1484 
Q 553 1819 1119 2791 
Q 566 2756 231 2722 
L 113 3147 
Q 669 3891 1275 5347 
L 1744 5159 
Q 1094 3872 656 3184 
Q 997 3194 1353 3200 
Q 1581 3609 1844 4109 
L 2306 3903 
Q 1513 2522 875 1578 
z
M 94 103 
Q 931 278 2025 559 
Q 2006 222 2006 97 
Q 1156 -109 225 -372 
L 94 103 
z
M 3681 1303 
Q 3763 1072 3881 872 
Q 3313 509 2381 -116 
L 2088 297 
Q 2925 778 3681 1303 
z
M 2594 2328 
Q 3013 1984 3444 1559 
Q 3263 1397 3088 1228 
Q 2663 1697 2288 2041 
L 2594 2328 
z
" transform="scale(0.015625)"/>
     </defs>
     <use xlink:href="#MicrosoftYaHei-7ea2"/>
     <use xlink:href="#MicrosoftYaHei-7eff" transform="translate(100 0)"/>
     <use xlink:href="#MicrosoftYaHei-8272" transform="translate(200 0)"/>
     <use xlink:href="#MicrosoftYaHei-76f2" transform="translate(300 0)"/>
    </g>
   </g>
   <g id="text_13">
    <!-- 男 7% -->
    <g style="fill: #3498db" transform="translate(450.896842 84.778134) scale(0.07 -0.07)">
     <defs>
      <path id="MicrosoftYaHei-37" d="M 3422 4463 
Q 2659 3131 2223 1998 
Q 1788 866 1684 0 
L 1047 0 
Q 1163 853 1594 1947 
Q 2025 3041 2747 4300 
L 347 4300 
L 347 4841 
L 3422 4841 
L 3422 4463 
z
" transform="scale(0.015625)"/>
      <path id="MicrosoftYaHei-25" d="M 272 3619 
Q 272 4213 589 4563 
Q 906 4913 1444 4913 
Q 1959 4913 2248 4591 
Q 2538 4269 2538 3694 
Q 2538 3122 2219 2765 
Q 1900 2409 1372 2409 
Q 872 2409 572 2740 
Q 272 3072 272 3619 
z
M 753 3650 
Q 753 3247 928 3028 
Q 1103 2809 1406 2809 
Q 1719 2809 1889 3036 
Q 2059 3263 2059 3675 
Q 2059 4078 1892 4298 
Q 1725 4519 1422 4519 
Q 1113 4519 933 4289 
Q 753 4059 753 3650 
z
M 4647 4841 
L 1538 -31 
L 1016 -31 
L 4125 4841 
L 4647 4841 
z
M 3172 1134 
Q 3172 1728 3489 2083 
Q 3806 2438 4341 2438 
Q 4853 2438 5143 2114 
Q 5434 1791 5434 1203 
Q 5434 634 5112 279 
Q 4791 -75 4272 -75 
Q 3769 -75 3470 261 
Q 3172 597 3172 1134 
z
M 3650 1163 
Q 3650 769 3825 548 
Q 4000 328 4303 328 
Q 4616 328 4786 556 
Q 4956 784 4956 1194 
Q 4956 1600 4786 1815 
Q 4616 2031 4319 2031 
Q 4000 2031 3825 1801 
Q 3650 1572 3650 1163 
z
" transform="scale(0.015625)"/>
     </defs>
     <use xlink:href="#MicrosoftYaHei-7537"/>
     <use xlink:href="#MicrosoftYaHei-20" transform="translate(100 0)"/>
     <use xlink:href="#MicrosoftYaHei-37" transform="translate(129.589844 0)"/>
     <use xlink:href="#MicrosoftYaHei-25" transform="translate(188.232422 0)"/>
    </g>
   </g>
   <g id="text_14">
    <!-- 女 0.5% -->
    <g style="fill: #e74c3c" transform="translate(318.707368 103.451334) scale(0.07 -0.07)">
     <defs>
      <path id="MicrosoftYaHei-30" d="M 284 2325 
Q 284 3606 709 4264 
Q 1134 4922 1941 4922 
Q 3478 4922 3478 2441 
Q 3478 1216 3045 567 
Q 2613 -81 1831 -81 
Q 1094 -81 689 534 
Q 284 1150 284 2325 
z
M 909 2353 
Q 909 425 1888 425 
Q 2850 425 2850 2384 
Q 2850 4413 1906 4413 
Q 909 4413 909 2353 
z
" transform="scale(0.015625)"/>
      <path id="MicrosoftYaHei-2e" d="M 372 322 
Q 372 491 487 606 
Q 603 722 775 722 
Q 950 722 1065 605 
Q 1181 488 1181 322 
Q 1181 159 1065 42 
Q 950 -75 772 -75 
Q 600 -75 486 42 
Q 372 159 372 322 
z
" transform="scale(0.015625)"/>
      <path id="MicrosoftYaHei-35" d="M 3294 1494 
Q 3294 784 2823 350 
Q 2353 -84 1559 -84 
Q 878 -84 544 119 
L 544 744 
Q 1034 425 1544 425 
Q 2050 425 2361 704 
Q 2672 984 2672 1447 
Q 2672 1909 2348 2167 
Q 2025 2425 1434 2425 
Q 978 2425 613 2384 
L 791 4841 
L 3053 4841 
L 3053 4303 
L 1306 4303 
L 1206 2931 
L 1647 2950 
Q 2416 2950 2855 2567 
Q 3294 2184 3294 1494 
z
" transform="scale(0.015625)"/>
     </defs>
     <use xlink:href="#MicrosoftYaHei-5973"/>
     <use xlink:href="#MicrosoftYaHei-20" transform="translate(100 0)"/>
     <use xlink:href="#MicrosoftYaHei-30" transform="translate(129.589844 0)"/>
     <use xlink:href="#MicrosoftYaHei-2e" transform="translate(188.232422 0)"/>
     <use xlink:href="#MicrosoftYaHei-35" transform="translate(212.304688 0)"/>
     <use xlink:href="#MicrosoftYaHei-25" transform="translate(270.947266 0)"/>
    </g>
   </g>
   <g id="text_15">
    <!-- 血友病 -->
    <g style="fill: #333333" transform="translate(312.96 141.5376) scale(0.08 -0.08)">
     <defs>
      <path id="MicrosoftYaHei-8840" d="M 144 66 
L 825 66 
L 825 4353 
L 2378 4353 
Q 2544 4806 2694 5359 
L 3244 5247 
Q 3106 4828 2938 4353 
L 5563 4353 
L 5563 66 
L 6263 66 
L 6263 -409 
L 144 -409 
L 144 66 
z
M 1300 66 
L 2250 66 
L 2250 3884 
L 1300 3884 
L 1300 66 
z
M 2719 66 
L 3669 66 
L 3669 3884 
L 2719 3884 
L 2719 66 
z
M 5088 3884 
L 4138 3884 
L 4138 66 
L 5088 66 
L 5088 3884 
z
" transform="scale(0.015625)"/>
      <path id="MicrosoftYaHei-53cb" d="M 288 4359 
L 2038 4359 
Q 2116 4828 2175 5334 
L 2706 5266 
Q 2647 4797 2572 4359 
L 6206 4359 
L 6206 3884 
L 2481 3884 
Q 2384 3400 2266 2959 
L 5531 2959 
L 5531 2509 
Q 5063 1225 4181 488 
Q 5050 -63 6294 -278 
Q 6075 -566 5888 -834 
Q 4616 -453 3756 172 
Q 2838 -441 1488 -878 
Q 1313 -622 1163 -384 
Q 2466 -34 3344 509 
Q 2497 1291 2134 2509 
Q 1513 494 388 -584 
Q 225 -359 56 -159 
Q 1403 1219 1947 3884 
L 288 3884 
L 288 4359 
z
M 4963 2509 
L 2616 2509 
Q 2972 1472 3756 800 
Q 4669 1541 4963 2509 
z
" transform="scale(0.015625)"/>
     </defs>
     <use xlink:href="#MicrosoftYaHei-8840"/>
     <use xlink:href="#MicrosoftYaHei-53cb" transform="translate(100 0)"/>
     <use xlink:href="#MicrosoftYaHei-75c5" transform="translate(200 0)"/>
    </g>
   </g>
   <g id="text_16">
    <!-- 男 0.01% -->
    <g style="fill: #3498db" transform="translate(307.442526 143.465334) scale(0.07 -0.07)">
     <defs>
      <path id="MicrosoftYaHei-31" d="M 1781 0 
L 1781 4141 
Q 1638 3997 1295 3819 
Q 953 3641 663 3569 
L 663 4169 
Q 1047 4275 1484 4508 
Q 1922 4741 2156 4947 
L 2388 4947 
L 2388 0 
L 1781 0 
z
" transform="scale(0.015625)"/>
     </defs>
     <use xlink:href="#MicrosoftYaHei-7537"/>
     <use xlink:href="#MicrosoftYaHei-20" transform="translate(100 0)"/>
     <use xlink:href="#MicrosoftYaHei-30" transform="translate(129.589844 0)"/>
     <use xlink:href="#MicrosoftYaHei-2e" transform="translate(188.232422 0)"/>
     <use xlink:href="#MicrosoftYaHei-30" transform="translate(212.304688 0)"/>
     <use xlink:href="#MicrosoftYaHei-31" transform="translate(270.947266 0)"/>
     <use xlink:href="#MicrosoftYaHei-25" transform="translate(329.589844 0)"/>
    </g>
   </g>
   <g id="text_17">
    <!-- 女 0.0001% -->
    <g style="fill: #e74c3c" transform="translate(307.214931 162.138534) scale(0.07 -0.07)">
     <use xlink:href="#MicrosoftYaHei-5973"/>
     <use xlink:href="#MicrosoftYaHei-20" transform="translate(100 0)"/>
     <use xlink:href="#MicrosoftYaHei-30" transform="translate(129.589844 0)"/>
     <use xlink:href="#MicrosoftYaHei-2e" transform="translate(188.232422 0)"/>
     <use xlink:href="#MicrosoftYaHei-30" transform="translate(212.304688 0)"/>
     <use xlink:href="#MicrosoftYaHei-30" transform="translate(270.947266 0)"/>
     <use xlink:href="#MicrosoftYaHei-30" transform="translate(329.589844 0)"/>
     <use xlink:href="#MicrosoftYaHei-31" transform="translate(388.232422 0)"/>
     <use xlink:href="#MicrosoftYaHei-25" transform="translate(446.875 0)"/>
    </g>
   </g>
   <g id="text_18">
    <!-- 进行性肌 -->
    <g style="fill: #333333" transform="translate(312.96 190.56205) scale(0.08 -0.08)">
     <defs>
      <path id="MicrosoftYaHei-8fdb" d="M 1756 2416 
L 2828 2416 
Q 2838 2903 2838 3741 
L 2050 3741 
L 2050 4191 
L 2838 4191 
L 2838 5291 
L 3338 5291 
L 3338 4191 
L 4575 4191 
L 4575 5291 
L 5075 5291 
L 5075 4191 
L 6000 4191 
L 6000 3741 
L 5075 3741 
L 5075 2416 
L 6244 2416 
L 6244 1966 
L 5075 1966 
L 5075 66 
L 4575 66 
L 4575 1966 
L 3291 1966 
Q 3106 691 2213 66 
Q 2050 247 1831 447 
Q 2597 931 2778 1966 
L 1756 1966 
L 1756 2416 
z
M 2606 -191 
L 4088 -222 
L 6300 -166 
Q 6231 -372 6125 -659 
L 4050 -666 
L 2544 -634 
Q 1513 -616 1081 91 
Q 825 -147 331 -747 
L 75 -228 
Q 628 306 875 538 
L 875 2641 
L 131 2641 
L 131 3103 
L 1356 3103 
L 1356 438 
Q 1744 -175 2606 -191 
z
M 3331 2416 
L 4575 2416 
L 4575 3741 
L 3338 3741 
Q 3338 2666 3331 2416 
z
M 813 5216 
Q 1288 4622 1688 4034 
Q 1425 3866 1225 3722 
Q 881 4322 413 4947 
L 813 5216 
z
" transform="scale(0.015625)"/>
      <path id="MicrosoftYaHei-884c" d="M 2363 2978 
L 6319 2978 
L 6319 2509 
L 5106 2509 
L 5106 66 
Q 5106 -709 4325 -709 
Q 3800 -709 3256 -703 
Q 3219 -453 3163 -141 
Q 3650 -191 4144 -191 
Q 4575 -191 4575 234 
L 4575 2509 
L 2363 2509 
L 2363 2978 
z
M 100 1578 
Q 1069 2372 1863 3809 
L 2300 3541 
Q 1978 2984 1619 2500 
L 1619 -809 
L 1100 -809 
L 1100 1856 
Q 725 1431 319 1072 
Q 219 1334 100 1578 
z
M 2725 4866 
L 5969 4866 
L 5969 4397 
L 2725 4397 
L 2725 4866 
z
M 131 3559 
Q 1125 4328 1731 5347 
L 2181 5072 
Q 1456 3959 381 3078 
Q 269 3316 131 3559 
z
" transform="scale(0.015625)"/>
      <path id="MicrosoftYaHei-808c" d="M 569 4941 
L 2344 4941 
L 2344 -78 
Q 2344 -722 1738 -722 
Q 1444 -722 1125 -709 
Q 1106 -534 1050 -247 
Q 1381 -284 1638 -284 
Q 1875 -284 1875 -16 
L 1875 1416 
L 1038 1416 
Q 1034 -50 469 -847 
Q 306 -666 81 -497 
Q 569 272 569 1447 
L 569 4941 
z
M 3638 4459 
L 3638 2778 
Q 3638 1209 3475 566 
Q 3300 -159 2744 -834 
Q 2588 -628 2406 -434 
Q 2869 116 3025 772 
Q 3163 1359 3163 2778 
L 3163 4928 
L 5219 4928 
L 5219 53 
Q 5219 -153 5400 -153 
L 5550 -153 
Q 5744 -153 5781 216 
Q 5813 491 5850 1253 
Q 6106 1147 6319 1059 
Q 6294 753 6231 53 
Q 6156 -603 5644 -603 
L 5344 -603 
Q 4744 -603 4744 66 
L 4744 4459 
L 3638 4459 
z
M 1038 1828 
L 1875 1828 
L 1875 2972 
L 1038 2972 
L 1038 1828 
z
M 1875 4522 
L 1038 4522 
L 1038 3384 
L 1875 3384 
L 1875 4522 
z
" transform="scale(0.015625)"/>
     </defs>
     <use xlink:href="#MicrosoftYaHei-8fdb"/>
     <use xlink:href="#MicrosoftYaHei-884c" transform="translate(100 0)"/>
     <use xlink:href="#MicrosoftYaHei-6027" transform="translate(200 0)"/>
     <use xlink:href="#MicrosoftYaHei-808c" transform="translate(300 0)"/>
    </g>
    <!-- 营养不良 -->
    <g style="fill: #333333" transform="translate(312.96 200.2248) scale(0.08 -0.08)">
     <defs>
      <path id="MicrosoftYaHei-8425" d="M 863 1059 
L 5538 1059 
L 5538 -847 
L 5063 -847 
L 5063 -534 
L 1338 -534 
L 1338 -847 
L 863 -847 
L 863 1059 
z
M 1313 2984 
L 5088 2984 
L 5088 1422 
L 4613 1422 
L 4613 1566 
L 1788 1566 
L 1788 1422 
L 1313 1422 
L 1313 2984 
z
M 3938 5328 
L 4394 5328 
L 4394 4816 
L 6269 4816 
L 6269 4403 
L 4394 4403 
L 4394 4028 
L 3938 4028 
L 3938 4403 
L 2456 4403 
L 2456 4028 
L 2000 4028 
L 2000 4403 
L 150 4403 
L 150 4816 
L 2000 4816 
L 2000 5328 
L 2456 5328 
L 2456 4816 
L 3938 4816 
L 3938 5328 
z
M 338 3859 
L 6063 3859 
L 6063 2716 
L 5588 2716 
L 5588 3447 
L 813 3447 
L 813 2716 
L 338 2716 
L 338 3859 
z
M 5063 672 
L 1338 672 
L 1338 -147 
L 5063 -147 
L 5063 672 
z
M 4613 2597 
L 1788 2597 
L 1788 1953 
L 4613 1953 
L 4613 2597 
z
" transform="scale(0.015625)"/>
      <path id="MicrosoftYaHei-517b" d="M 3950 1347 
L 4431 1347 
Q 3994 1641 3669 2047 
L 2806 2047 
Q 2550 1684 1988 1341 
L 2400 1341 
Q 2400 397 2100 -28 
Q 1813 -466 869 -897 
Q 744 -697 556 -472 
Q 1456 -97 1669 222 
Q 1906 497 1913 1291 
Q 1319 947 413 622 
Q 288 841 106 1066 
Q 1588 1491 2169 2047 
L 238 2047 
L 238 2478 
L 2500 2478 
Q 2644 2722 2731 3059 
L 756 3059 
L 756 3491 
L 2813 3491 
Q 2844 3753 2850 4059 
L 531 4059 
L 531 4491 
L 2138 4491 
Q 1900 4784 1638 5047 
L 1963 5334 
Q 2300 5053 2600 4716 
L 2350 4491 
L 3700 4491 
Q 3981 4828 4356 5341 
L 4794 5066 
Q 4544 4772 4269 4491 
L 5869 4491 
L 5869 4059 
L 3338 4059 
Q 3325 3753 3294 3491 
L 5569 3491 
L 5569 3059 
L 3225 3059 
Q 3156 2728 3050 2478 
L 6163 2478 
L 6163 2047 
L 4275 2047 
Q 4994 1397 6300 1203 
Q 6150 947 6013 684 
Q 5094 897 4438 1341 
L 4438 -859 
L 3950 -859 
L 3950 1347 
z
" transform="scale(0.015625)"/>
      <path id="MicrosoftYaHei-4e0d" d="M 225 4772 
L 6181 4772 
L 6181 4284 
L 3881 4284 
Q 3581 3766 3081 3053 
L 3444 3053 
L 3444 -866 
L 2906 -866 
L 2906 2859 
Q 1838 1541 388 609 
Q 231 834 38 1059 
Q 2006 2291 3213 4284 
L 225 4284 
L 225 4772 
z
M 4069 2859 
Q 5238 2147 6325 1409 
L 5969 916 
Q 4681 1872 3763 2434 
L 4069 2859 
z
" transform="scale(0.015625)"/>
      <path id="MicrosoftYaHei-826f" d="M 2694 5197 
L 3150 5378 
Q 3344 5047 3506 4703 
L 3206 4578 
L 5463 4578 
L 5463 1672 
L 4988 1672 
L 4988 1809 
L 2994 1809 
Q 3300 1178 3819 734 
Q 4813 1216 5663 1734 
L 5975 1316 
Q 5206 891 4238 428 
Q 5069 -97 6313 -278 
Q 6156 -497 5994 -797 
Q 3388 -278 2494 1809 
L 1306 1809 
L 1306 -134 
Q 2300 128 2994 341 
Q 3000 91 3031 -141 
Q 2100 -409 1263 -678 
Q 1056 -759 869 -891 
L 563 -453 
Q 819 -209 819 72 
L 819 4578 
L 3013 4578 
Q 2863 4903 2694 5197 
z
M 4988 2266 
L 4988 2978 
L 1306 2978 
L 1306 2266 
L 4988 2266 
z
M 4988 4122 
L 1306 4122 
L 1306 3416 
L 4988 3416 
L 4988 4122 
z
" transform="scale(0.015625)"/>
     </defs>
     <use xlink:href="#MicrosoftYaHei-8425"/>
     <use xlink:href="#MicrosoftYaHei-517b" transform="translate(100 0)"/>
     <use xlink:href="#MicrosoftYaHei-4e0d" transform="translate(200 0)"/>
     <use xlink:href="#MicrosoftYaHei-826f" transform="translate(300 0)"/>
    </g>
   </g>
   <g id="text_19">
    <!-- 男 0.003% -->
    <g style="fill: #3498db" transform="translate(307.2816 202.152534) scale(0.07 -0.07)">
     <defs>
      <path id="MicrosoftYaHei-33" d="M 447 809 
Q 944 425 1569 425 
Q 2069 425 2361 670 
Q 2653 916 2653 1328 
Q 2653 2247 1338 2247 
L 934 2247 
L 934 2753 
L 1319 2753 
Q 2484 2753 2484 3616 
Q 2484 4413 1594 4413 
Q 1084 4413 634 4069 
L 634 4647 
Q 1109 4922 1744 4922 
Q 2363 4922 2738 4598 
Q 3113 4275 3113 3759 
Q 3113 2809 2144 2538 
L 2144 2525 
Q 2669 2469 2973 2155 
Q 3278 1841 3278 1372 
Q 3278 719 2808 319 
Q 2338 -81 1556 -81 
Q 869 -81 447 175 
L 447 809 
z
" transform="scale(0.015625)"/>
     </defs>
     <use xlink:href="#MicrosoftYaHei-7537"/>
     <use xlink:href="#MicrosoftYaHei-20" transform="translate(100 0)"/>
     <use xlink:href="#MicrosoftYaHei-30" transform="translate(129.589844 0)"/>
     <use xlink:href="#MicrosoftYaHei-2e" transform="translate(188.232422 0)"/>
     <use xlink:href="#MicrosoftYaHei-30" transform="translate(212.304688 0)"/>
     <use xlink:href="#MicrosoftYaHei-30" transform="translate(270.947266 0)"/>
     <use xlink:href="#MicrosoftYaHei-33" transform="translate(329.589844 0)"/>
     <use xlink:href="#MicrosoftYaHei-25" transform="translate(388.232422 0)"/>
    </g>
   </g>
   <g id="text_20">
    <!-- 女 1e-05% -->
    <g style="fill: #e74c3c" transform="translate(307.212861 220.825734) scale(0.07 -0.07)">
     <defs>
      <path id="MicrosoftYaHei-65" d="M 3363 1572 
L 944 1572 
Q 959 1019 1246 717 
Q 1534 416 2050 416 
Q 2631 416 3116 788 
L 3116 241 
Q 2659 -81 1906 -81 
Q 1156 -81 736 394 
Q 316 869 316 1713 
Q 316 2506 777 3022 
Q 1238 3538 1922 3538 
Q 2600 3538 2981 3102 
Q 3363 2666 3363 1881 
L 3363 1572 
z
M 2750 2063 
Q 2747 2531 2528 2787 
Q 2309 3044 1913 3044 
Q 1547 3044 1280 2772 
Q 1013 2500 944 2063 
L 2750 2063 
z
" transform="scale(0.015625)"/>
      <path id="MicrosoftYaHei-2d" d="M 2328 1681 
L 488 1681 
L 488 2153 
L 2328 2153 
L 2328 1681 
z
" transform="scale(0.015625)"/>
     </defs>
     <use xlink:href="#MicrosoftYaHei-5973"/>
     <use xlink:href="#MicrosoftYaHei-20" transform="translate(100 0)"/>
     <use xlink:href="#MicrosoftYaHei-31" transform="translate(129.589844 0)"/>
     <use xlink:href="#MicrosoftYaHei-65" transform="translate(188.232422 0)"/>
     <use xlink:href="#MicrosoftYaHei-2d" transform="translate(244.970703 0)"/>
     <use xlink:href="#MicrosoftYaHei-30" transform="translate(288.232422 0)"/>
     <use xlink:href="#MicrosoftYaHei-35" transform="translate(346.875 0)"/>
     <use xlink:href="#MicrosoftYaHei-25" transform="translate(405.517578 0)"/>
    </g>
   </g>
   <g id="text_21">
    <!-- ■ 男性   ■ 女性 -->
    <g style="fill: #555555" transform="translate(330.202105 269.5824) scale(0.08 -0.08)">
     <defs>
      <path id="MicrosoftYaHei-25a0" d="M 456 2950 
L 3406 2950 
L 3406 0 
L 456 0 
L 456 2950 
z
" transform="scale(0.015625)"/>
     </defs>
     <use xlink:href="#MicrosoftYaHei-25a0"/>
     <use xlink:href="#MicrosoftYaHei-20" transform="translate(60.400391 0)"/>
     <use xlink:href="#MicrosoftYaHei-7537" transform="translate(89.990234 0)"/>
     <use xlink:href="#MicrosoftYaHei-6027" transform="translate(189.990234 0)"/>
     <use xlink:href="#MicrosoftYaHei-20" transform="translate(289.990234 0)"/>
     <use xlink:href="#MicrosoftYaHei-20" transform="translate(319.580078 0)"/>
     <use xlink:href="#MicrosoftYaHei-20" transform="translate(349.169922 0)"/>
     <use xlink:href="#MicrosoftYaHei-25a0" transform="translate(378.759766 0)"/>
     <use xlink:href="#MicrosoftYaHei-20" transform="translate(439.160156 0)"/>
     <use xlink:href="#MicrosoftYaHei-5973" transform="translate(468.75 0)"/>
     <use xlink:href="#MicrosoftYaHei-6027" transform="translate(568.75 0)"/>
    </g>
   </g>
   <g id="text_22">
    <!-- 伴X隐性遗传病发病率对比 -->
    <g style="fill: #1a1a2e" transform="translate(352.061772 39.504) scale(0.11 -0.11)">
     <defs>
      <path id="MicrosoftYaHei-Bold-75c5" d="M 3094 5284 
L 4125 5366 
L 4244 4853 
L 6300 4853 
L 6300 4116 
L 1756 4116 
L 1756 2491 
Q 1756 981 1429 176 
Q 1103 -628 888 -872 
Q 463 -409 200 -216 
Q 728 391 891 1381 
Q 566 1175 256 991 
L 75 1928 
Q 478 2113 959 2400 
L 956 2825 
L 381 2659 
Q 219 3728 119 4191 
L 675 4353 
Q 866 3503 956 2981 
L 956 4853 
L 3203 4853 
L 3094 5284 
z
M 2800 -816 
L 2025 -816 
L 2025 2522 
L 3672 2522 
Q 3700 2759 3703 3016 
L 2000 3016 
L 2000 3728 
L 6200 3728 
L 6200 3016 
L 4534 3016 
Q 4528 2766 4506 2522 
L 6069 2522 
L 6069 72 
Q 6069 -306 5876 -525 
Q 5684 -744 5311 -794 
Q 4938 -844 4194 -834 
Q 4075 -284 3994 -9 
Q 4253 -28 4650 -28 
L 4822 -31 
Q 5063 -31 5177 64 
Q 5291 159 5294 359 
L 5294 759 
L 4850 297 
Q 4509 675 4100 1084 
Q 3803 534 3306 103 
Q 3044 369 2800 591 
L 2800 -816 
z
M 3538 1859 
L 2800 1859 
L 2800 763 
Q 3316 1169 3538 1859 
z
M 4363 1716 
Q 4825 1366 5294 975 
L 5294 1859 
L 4403 1859 
Q 4384 1788 4363 1716 
z
" transform="scale(0.015625)"/>
      <path id="MicrosoftYaHei-Bold-53d1" d="M 5656 2059 
Q 5175 1228 4406 603 
Q 5119 284 6313 103 
Q 6038 -347 5781 -809 
Q 4506 -522 3613 47 
Q 2694 -491 1438 -872 
Q 1213 -459 963 -66 
Q 2006 228 2844 616 
Q 2388 1041 2019 1591 
Q 1294 434 356 -372 
Q 225 216 81 672 
Q 1300 1816 1900 3328 
L 331 3328 
L 331 4078 
Q 506 4591 644 5153 
L 1500 5059 
Q 1406 4672 1244 4097 
L 2144 4097 
Q 2288 4628 2431 5334 
L 3338 5259 
L 3075 4097 
L 4825 4097 
Q 4475 4441 4106 4784 
L 4656 5303 
Q 5231 4859 5631 4497 
L 5238 4097 
L 6294 4097 
L 6294 3328 
L 2838 3328 
Q 2744 3066 2619 2753 
L 5656 2753 
L 5656 2059 
z
M 3600 1053 
Q 4250 1516 4613 2028 
L 2713 2028 
Q 3063 1472 3600 1053 
z
" transform="scale(0.015625)"/>
      <path id="MicrosoftYaHei-Bold-7387" d="M 213 4766 
L 2719 4766 
L 2613 5303 
L 3588 5341 
Q 3631 5119 3684 4766 
L 6200 4766 
L 6200 4028 
L 3447 4028 
L 2775 3391 
L 3391 3403 
Q 3672 3675 3969 3991 
L 4606 3622 
Q 3894 2928 2919 2122 
L 3684 2172 
Q 3588 2322 3500 2447 
L 4069 2772 
Q 4506 2203 4888 1603 
L 4263 1253 
L 4063 1581 
Q 2722 1488 1938 1397 
L 1681 2053 
Q 2163 2328 2722 2797 
Q 2322 2766 2013 2728 
L 1719 3309 
Q 2050 3463 2519 4028 
L 213 4028 
L 213 4766 
z
M 5944 3484 
L 5119 2803 
Q 5609 2513 6188 2141 
L 5725 1472 
Q 5125 1972 4488 2416 
L 4800 2844 
L 4500 3216 
Q 5044 3616 5438 3966 
L 5944 3484 
z
M 375 3472 
L 856 3959 
Q 1225 3672 1650 3272 
L 1144 2759 
Q 713 3191 375 3472 
z
M 1569 2941 
L 1950 2372 
L 544 1372 
L 175 2122 
Q 700 2397 1569 2941 
z
M 88 1066 
L 2763 1066 
L 2763 1341 
L 3638 1341 
L 3638 1066 
L 6288 1066 
L 6288 328 
L 3638 328 
L 3638 -872 
L 2763 -872 
L 2763 328 
L 88 328 
L 88 1066 
z
" transform="scale(0.015625)"/>
      <path id="MicrosoftYaHei-Bold-5bf9" d="M 3050 4234 
L 4850 4234 
L 4850 5309 
L 5744 5309 
L 5744 4234 
L 6319 4234 
L 6319 3409 
L 5744 3409 
L 5744 216 
Q 5744 -250 5539 -490 
Q 5334 -731 4987 -754 
Q 4641 -778 3656 -778 
Q 3594 -359 3450 147 
Q 3931 109 4409 109 
Q 4850 109 4850 516 
L 4850 3409 
L 3050 3409 
L 3050 4234 
z
M 863 3772 
L 1691 2509 
Q 1934 3206 2025 4016 
L 188 4016 
L 188 4834 
L 2900 4834 
L 2900 4028 
Q 2709 2722 2247 1669 
L 3169 278 
L 2394 -228 
L 1781 778 
Q 1269 -47 550 -684 
Q 369 -316 88 153 
Q 816 772 1278 1594 
L 181 3341 
L 863 3772 
z
M 3463 3047 
Q 4069 2278 4588 1528 
L 3844 1041 
Q 3375 1841 2813 2609 
L 3463 3047 
z
" transform="scale(0.015625)"/>
     </defs>
     <use xlink:href="#MicrosoftYaHei-Bold-4f34"/>
     <use xlink:href="#MicrosoftYaHei-Bold-58" transform="translate(100 0)"/>
     <use xlink:href="#MicrosoftYaHei-Bold-9690" transform="translate(170.019531 0)"/>
     <use xlink:href="#MicrosoftYaHei-Bold-6027" transform="translate(270.019531 0)"/>
     <use xlink:href="#MicrosoftYaHei-Bold-9057" transform="translate(370.019531 0)"/>
     <use xlink:href="#MicrosoftYaHei-Bold-4f20" transform="translate(470.019531 0)"/>
     <use xlink:href="#MicrosoftYaHei-Bold-75c5" transform="translate(570.019531 0)"/>
     <use xlink:href="#MicrosoftYaHei-Bold-53d1" transform="translate(670.019531 0)"/>
     <use xlink:href="#MicrosoftYaHei-Bold-75c5" transform="translate(770.019531 0)"/>
     <use xlink:href="#MicrosoftYaHei-Bold-7387" transform="translate(870.019531 0)"/>
     <use xlink:href="#MicrosoftYaHei-Bold-5bf9" transform="translate(970.019531 0)"/>
     <use xlink:href="#MicrosoftYaHei-Bold-6bd4" transform="translate(1070.019531 0)"/>
    </g>
   </g>
  </g>
  <g id="text_23">
   <!-- 伴性遗传 -->
   <g style="fill: #1a1a2e" transform="translate(232.64 18.39125) scale(0.14 -0.14)">
    <defs>
     <path id="MicrosoftYaHei-4f34" d="M 1863 1472 
L 3825 1472 
L 3825 2497 
L 2113 2497 
L 2113 2972 
L 3825 2972 
L 3825 5284 
L 4325 5284 
L 4325 2972 
L 6038 2972 
L 6038 2497 
L 4325 2497 
L 4325 1472 
L 6300 1472 
L 6300 997 
L 4325 997 
L 4325 -816 
L 3825 -816 
L 3825 997 
L 1863 997 
L 1863 1472 
z
M 81 2228 
Q 1081 3591 1594 5334 
L 2106 5184 
Q 1825 4394 1513 3719 
L 1513 -816 
L 1025 -816 
L 1025 2775 
Q 675 2163 294 1678 
Q 206 1953 81 2228 
z
M 4806 3572 
Q 5331 4228 5675 4741 
L 6125 4416 
Q 5844 4047 5200 3259 
L 4806 3572 
z
M 2113 4403 
L 2525 4691 
Q 2925 4172 3338 3622 
L 2900 3291 
Q 2425 3978 2113 4403 
z
" transform="scale(0.015625)"/>
    </defs>
    <use xlink:href="#MicrosoftYaHei-4f34"/>
    <use xlink:href="#MicrosoftYaHei-6027" transform="translate(100 0)"/>
    <use xlink:href="#MicrosoftYaHei-9057" transform="translate(200 0)"/>
    <use xlink:href="#MicrosoftYaHei-4f20" transform="translate(300 0)"/>
   </g>
  </g>
 </g>
 <defs>
  <clipPath id="p3c2b74b430">
   <rect x="301.465263" y="45.504" width="229.894737" height="213.408"/>
  </clipPath>
 </defs>
</svg>
