<?xml version="1.0" encoding="utf-8" standalone="no"?>
<!DOCTYPE svg PUBLIC "-//W3C//DTD SVG 1.1//EN"
  "http://www.w3.org/Graphics/SVG/1.1/DTD/svg11.dtd">
<svg xmlns:xlink="http://www.w3.org/1999/xlink" width="532.8pt" height="267.75125pt" viewBox="0 0 532.8 267.75125" xmlns="http://www.w3.org/2000/svg" version="1.1">
 <metadata>
  <rdf:RDF xmlns:dc="http://purl.org/dc/elements/1.1/" xmlns:cc="http://creativecommons.org/ns#" xmlns:rdf="http://www.w3.org/1999/02/22-rdf-syntax-ns#">
   <cc:Work>
    <dc:type rdf:resource="http://purl.org/dc/dcmitype/StillImage"/>
    <dc:date>2026-05-22T22:24:28.802632</dc:date>
    <dc:format>image/svg+xml</dc:format>
    <dc:creator>
     <cc:Agent>
      <dc:title>Matplotlib v3.10.9, https://matplotlib.org/</dc:title>
     </cc:Agent>
    </dc:creator>
   </cc:Work>
  </rdf:RDF>
 </metadata>
 <defs>
  <style type="text/css">*{stroke-linejoin: round; stroke-linecap: butt}</style>
 </defs>
 <g id="figure_1">
  <g id="patch_1">
   <path d="M 0 267.75125 
L 532.8 267.75125 
L 532.8 0 
L 0 0 
z
" style="fill: #ffffff"/>
  </g>
  <g id="axes_1">
   <g id="patch_2">
    <path d="M 13.68 57.45365 
L 162.72 57.45365 
L 162.72 38.56085 
L 13.68 38.56085 
z
" clip-path="url(#pefd0d322d4)" style="fill: #e8f5e9; stroke: #dddddd; stroke-linejoin: miter"/>
   </g>
   <g id="patch_3">
    <path d="M 175.68 57.45365 
L 324.72 57.45365 
L 324.72 38.56085 
L 175.68 38.56085 
z
" clip-path="url(#pefd0d322d4)" style="fill: #e8f5e9; stroke: #dddddd; stroke-linejoin: miter"/>
   </g>
   <g id="patch_4">
    <path d="M 337.68 57.45365 
L 486.72 57.45365 
L 486.72 38.56085 
L 337.68 38.56085 
z
" clip-path="url(#pefd0d322d4)" style="fill: #e8f5e9; stroke: #dddddd; stroke-linejoin: miter"/>
   </g>
   <g id="patch_5">
    <path d="M 13.68 78.70805 
L 162.72 78.70805 
L 162.72 59.81525 
L 13.68 59.81525 
z
" clip-path="url(#pefd0d322d4)" style="fill: #f8f9fc; stroke: #dddddd; stroke-linejoin: miter"/>
   </g>
   <g id="patch_6">
    <path d="M 175.68 78.70805 
L 324.72 78.70805 
L 324.72 59.81525 
L 175.68 59.81525 
z
" clip-path="url(#pefd0d322d4)" style="fill: #e3f2fd; stroke: #dddddd; stroke-linejoin: miter"/>
   </g>
   <g id="patch_7">
    <path d="M 337.68 78.70805 
L 486.72 78.70805 
L 486.72 59.81525 
L 337.68 59.81525 
z
" clip-path="url(#pefd0d322d4)" style="fill: #fce4ec; stroke: #dddddd; stroke-linejoin: miter"/>
   </g>
   <g id="patch_8">
    <path d="M 13.68 99.96245 
L 162.72 99.96245 
L 162.72 81.06965 
L 13.68 81.06965 
z
" clip-path="url(#pefd0d322d4)" style="fill: #f8f9fc; stroke: #dddddd; stroke-linejoin: miter"/>
   </g>
   <g id="patch_9">
    <path d="M 175.68 99.96245 
L 324.72 99.96245 
L 324.72 81.06965 
L 175.68 81.06965 
z
" clip-path="url(#pefd0d322d4)" style="fill: #e3f2fd; stroke: #dddddd; stroke-linejoin: miter"/>
   </g>
   <g id="patch_10">
    <path d="M 337.68 99.96245 
L 486.72 99.96245 
L 486.72 81.06965 
L 337.68 81.06965 
z
" clip-path="url(#pefd0d322d4)" style="fill: #fce4ec; stroke: #dddddd; stroke-linejoin: miter"/>
   </g>
   <g id="patch_11">
    <path d="M 13.68 121.21685 
L 162.72 121.21685 
L 162.72 102.32405 
L 13.68 102.32405 
z
" clip-path="url(#pefd0d322d4)" style="fill: #f8f9fc; stroke: #dddddd; stroke-linejoin: miter"/>
   </g>
   <g id="patch_12">
    <path d="M 175.68 121.21685 
L 324.72 121.21685 
L 324.72 102.32405 
L 175.68 102.32405 
z
" clip-path="url(#pefd0d322d4)" style="fill: #e3f2fd; stroke: #dddddd; stroke-linejoin: miter"/>
   </g>
   <g id="patch_13">
    <path d="M 337.68 121.21685 
L 486.72 121.21685 
L 486.72 102.32405 
L 337.68 102.32405 
z
" clip-path="url(#pefd0d322d4)" style="fill: #fce4ec; stroke: #dddddd; stroke-linejoin: miter"/>
   </g>
   <g id="patch_14">
    <path d="M 13.68 142.47125 
L 162.72 142.47125 
L 162.72 123.57845 
L 13.68 123.57845 
z
" clip-path="url(#pefd0d322d4)" style="fill: #f8f9fc; stroke: #dddddd; stroke-linejoin: miter"/>
   </g>
   <g id="patch_15">
    <path d="M 175.68 142.47125 
L 324.72 142.47125 
L 324.72 123.57845 
L 175.68 123.57845 
z
" clip-path="url(#pefd0d322d4)" style="fill: #e3f2fd; stroke: #dddddd; stroke-linejoin: miter"/>
   </g>
   <g id="patch_16">
    <path d="M 337.68 142.47125 
L 486.72 142.47125 
L 486.72 123.57845 
L 337.68 123.57845 
z
" clip-path="url(#pefd0d322d4)" style="fill: #fce4ec; stroke: #dddddd; stroke-linejoin: miter"/>
   </g>
   <g id="patch_17">
    <path d="M 13.68 163.72565 
L 162.72 163.72565 
L 162.72 144.83285 
L 13.68 144.83285 
z
" clip-path="url(#pefd0d322d4)" style="fill: #f8f9fc; stroke: #dddddd; stroke-linejoin: miter"/>
   </g>
   <g id="patch_18">
    <path d="M 175.68 163.72565 
L 324.72 163.72565 
L 324.72 144.83285 
L 175.68 144.83285 
z
" clip-path="url(#pefd0d322d4)" style="fill: #e3f2fd; stroke: #dddddd; stroke-linejoin: miter"/>
   </g>
   <g id="patch_19">
    <path d="M 337.68 163.72565 
L 486.72 163.72565 
L 486.72 144.83285 
L 337.68 144.83285 
z
" clip-path="url(#pefd0d322d4)" style="fill: #fce4ec; stroke: #dddddd; stroke-linejoin: miter"/>
   </g>
   <g id="patch_20">
    <path d="M 13.68 184.98005 
L 162.72 184.98005 
L 162.72 166.08725 
L 13.68 166.08725 
z
" clip-path="url(#pefd0d322d4)" style="fill: #f8f9fc; stroke: #dddddd; stroke-linejoin: miter"/>
   </g>
   <g id="patch_21">
    <path d="M 175.68 184.98005 
L 324.72 184.98005 
L 324.72 166.08725 
L 175.68 166.08725 
z
" clip-path="url(#pefd0d322d4)" style="fill: #e3f2fd; stroke: #dddddd; stroke-linejoin: miter"/>
   </g>
   <g id="patch_22">
    <path d="M 337.68 184.98005 
L 486.72 184.98005 
L 486.72 166.08725 
L 337.68 166.08725 
z
" clip-path="url(#pefd0d322d4)" style="fill: #fce4ec; stroke: #dddddd; stroke-linejoin: miter"/>
   </g>
   <g id="text_1">
    <!-- 比较项目 -->
    <g style="fill: #333333" transform="translate(26.64 54.79588) scale(0.075 -0.075)">
     <defs>
      <path id="MicrosoftYaHei-Bold-6bd4" d="M 5481 4441 
L 6294 3803 
Q 5234 2791 4119 1894 
L 4119 547 
Q 4119 153 4438 153 
L 4875 153 
Q 5119 153 5197 325 
Q 5275 497 5363 1597 
Q 5856 1409 6294 1278 
Q 6231 688 6131 248 
Q 6031 -191 5900 -358 
Q 5769 -525 5511 -617 
Q 5253 -709 4881 -709 
L 4094 -709 
Q 3194 -709 3194 247 
L 3194 5316 
L 4119 5316 
L 4119 3009 
Q 4797 3656 5481 4441 
z
M 1419 5241 
L 1419 3453 
L 2850 3453 
L 2850 2591 
L 1419 2591 
L 1419 372 
L 2869 866 
Q 2856 372 2888 -78 
Q 1500 -503 725 -922 
L 275 -184 
Q 494 -16 494 366 
L 494 5241 
L 1419 5241 
z
" transform="scale(0.015625)"/>
      <path id="MicrosoftYaHei-Bold-8f83" d="M 2447 2416 
Q 2975 2934 3525 3716 
L 2750 3716 
L 2750 4484 
L 3997 4484 
Q 3841 4809 3681 5109 
L 4469 5353 
Q 4713 4947 4869 4634 
L 4400 4484 
L 6206 4484 
L 6206 3716 
L 5147 3716 
Q 5775 3147 6325 2553 
L 5725 2003 
Q 5325 2491 4563 3291 
L 5088 3716 
L 3581 3716 
L 4213 3316 
Q 3669 2553 2963 1891 
Q 2863 2013 2519 2369 
L 2519 1678 
L 2063 1678 
L 2063 1150 
L 2806 1241 
Q 2750 991 2756 466 
L 2063 394 
L 2063 -859 
L 1313 -859 
L 1313 309 
Q 650 234 163 166 
L 88 953 
L 1313 1069 
L 1313 1678 
L 188 1678 
L 188 2403 
Q 372 3075 534 3753 
L 106 3753 
L 106 4491 
L 706 4491 
L 888 5334 
L 1656 5228 
L 1488 4491 
L 2494 4491 
L 2494 3753 
L 1303 3753 
Q 1138 3097 944 2416 
L 1313 2416 
L 1313 3428 
L 2063 3428 
L 2063 2416 
L 2447 2416 
z
M 3881 2328 
Q 4081 1788 4384 1366 
Q 4703 1828 4869 2403 
L 5625 2109 
Q 5350 1366 4925 775 
Q 5506 275 6325 34 
L 5863 -822 
Q 5022 -456 4394 159 
Q 3753 -475 2869 -872 
Q 2663 -516 2369 -72 
Q 3269 244 3866 778 
Q 3456 1344 3175 2059 
L 3881 2328 
z
" transform="scale(0.015625)"/>
      <path id="MicrosoftYaHei-Bold-9879" d="M 2450 5072 
L 6225 5072 
L 6225 4303 
L 4572 4303 
L 4459 3703 
L 5981 3703 
L 5981 847 
L 5131 847 
L 5131 2953 
L 3238 2953 
L 3238 803 
L 2388 803 
L 2388 3703 
L 3519 3703 
L 3631 4303 
L 2450 4303 
L 2450 5072 
z
M 263 -109 
L 88 828 
L 713 966 
L 713 4053 
L 150 4053 
L 150 4909 
L 2175 4909 
L 2175 4053 
L 1569 4053 
L 1569 1175 
Q 1884 1256 2206 1347 
Q 2188 903 2188 403 
Q 1138 153 263 -109 
z
M 3825 2566 
L 4650 2566 
Q 4644 1741 4422 1106 
Q 5369 516 6331 -184 
L 5800 -859 
Q 5131 -306 4094 431 
Q 3525 -422 2269 -884 
Q 2038 -403 1794 -34 
Q 2953 244 3389 844 
Q 3825 1444 3825 2566 
z
" transform="scale(0.015625)"/>
      <path id="MicrosoftYaHei-Bold-76ee" d="M 738 -834 
L 738 4941 
L 5663 4941 
L 5663 -834 
L 4775 -834 
L 4775 -409 
L 1625 -409 
L 1625 -834 
L 738 -834 
z
M 4775 4116 
L 1625 4116 
L 1625 3428 
L 4775 3428 
L 4775 4116 
z
M 1625 1941 
L 4775 1941 
L 4775 2628 
L 1625 2628 
L 1625 1941 
z
M 1625 416 
L 4775 416 
L 4775 1141 
L 1625 1141 
L 1625 416 
z
" transform="scale(0.015625)"/>
     </defs>
     <use xlink:href="#MicrosoftYaHei-Bold-6bd4"/>
     <use xlink:href="#MicrosoftYaHei-Bold-8f83" transform="translate(100 0)"/>
     <use xlink:href="#MicrosoftYaHei-Bold-9879" transform="translate(200 0)"/>
     <use xlink:href="#MicrosoftYaHei-Bold-76ee" transform="translate(300 0)"/>
    </g>
   </g>
   <g id="text_2">
    <!-- 体液免疫 -->
    <g style="fill: #333333" transform="translate(188.64 54.79588) scale(0.075 -0.075)">
     <defs>
      <path id="MicrosoftYaHei-Bold-4f53" d="M 1100 5309 
L 1906 5103 
Q 1697 4303 1450 3613 
L 1450 1072 
Q 2450 2116 2934 3516 
L 1806 3516 
L 1806 4297 
L 3438 4297 
L 3438 5309 
L 4263 5309 
L 4263 4297 
L 6063 4297 
L 6063 3516 
L 4716 3516 
Q 5191 2188 6313 1166 
Q 6044 759 5769 278 
Q 5519 538 5300 853 
L 5300 209 
L 4263 209 
L 4263 -841 
L 3438 -841 
L 3438 209 
L 2431 209 
L 2431 878 
Q 2191 519 1906 191 
Q 1722 491 1450 900 
L 1450 -828 
L 700 -828 
L 700 1922 
Q 500 1563 288 1253 
Q 213 1822 88 2434 
Q 581 3359 1100 5309 
z
M 2509 997 
L 3438 997 
L 3438 3163 
Q 3138 1972 2509 997 
z
M 4263 3128 
L 4263 997 
L 5203 997 
Q 4634 1866 4263 3128 
z
" transform="scale(0.015625)"/>
      <path id="MicrosoftYaHei-Bold-6db2" d="M 2750 -866 
L 1975 -866 
L 1975 1753 
Q 1769 1428 1544 1091 
Q 1500 1259 1456 1416 
Q 1206 453 919 -822 
Q 488 -653 113 -528 
Q 419 459 713 1872 
Q 1088 1691 1413 1572 
Q 1344 1834 1269 2041 
Q 2000 3041 2281 3941 
L 1663 3941 
L 1663 4691 
L 3600 4691 
Q 3500 4922 3381 5184 
L 4313 5353 
Q 4450 5084 4619 4691 
L 6275 4691 
L 6275 3941 
L 3794 3941 
L 4488 3784 
Q 4425 3609 4356 3447 
L 6075 3447 
L 6075 2778 
Q 5894 1491 5131 566 
Q 5638 209 6363 -22 
Q 6138 -384 5888 -847 
Q 5056 -472 4531 -28 
Q 4038 -441 3250 -884 
Q 3000 -534 2750 -241 
L 2750 -866 
z
M 5263 2709 
L 4025 2709 
Q 3938 2522 3838 2341 
Q 4119 1609 4544 1103 
Q 5138 1803 5263 2709 
z
M 3963 572 
Q 3638 991 3381 1547 
Q 3231 1309 3075 1078 
Q 2900 1478 2750 1784 
L 2750 -153 
Q 3506 241 3963 572 
z
M 606 3609 
Q 1056 3247 1538 2834 
L 944 2147 
Q 513 2591 81 2972 
L 606 3609 
z
M 644 5266 
Q 1125 4897 1575 4497 
L 1000 3853 
Q 544 4291 113 4684 
L 644 5266 
z
M 3106 3834 
Q 2944 3478 2750 3103 
L 2750 1997 
Q 3369 2903 3738 3941 
L 2719 3941 
L 3106 3834 
z
M 4038 2447 
L 4550 2697 
Q 4788 2272 4975 1928 
L 4456 1659 
Q 4269 2028 4038 2447 
z
" transform="scale(0.015625)"/>
      <path id="MicrosoftYaHei-Bold-514d" d="M 4919 4841 
L 4919 4153 
L 4388 3566 
L 5669 3566 
L 5669 1284 
L 3281 1284 
Q 2581 -22 694 -884 
Q 469 -566 88 -116 
Q 1694 478 2275 1284 
L 1619 1284 
L 1619 1016 
L 750 1016 
L 750 2822 
Q 625 2734 506 2647 
Q 313 3041 69 3441 
Q 1231 4191 1938 5334 
L 2913 5266 
Q 2794 5047 2656 4841 
L 4919 4841 
z
M 4800 1991 
L 4800 2859 
L 3613 2859 
Q 3556 2366 3469 1991 
L 4800 1991 
z
M 1613 3566 
L 3350 3566 
L 3856 4134 
L 2138 4134 
Q 1894 3841 1613 3566 
z
M 2794 2859 
L 1619 2859 
L 1619 1991 
L 2619 1991 
Q 2731 2359 2794 2859 
z
M 3194 1078 
L 4025 1078 
L 4025 422 
Q 4025 22 4381 22 
L 4888 22 
Q 5344 22 5375 309 
Q 5400 478 5438 1159 
Q 5906 997 6288 884 
Q 6200 141 6119 -153 
Q 5988 -741 4975 -741 
L 4038 -741 
Q 3194 -741 3194 172 
L 3194 1078 
z
" transform="scale(0.015625)"/>
      <path id="MicrosoftYaHei-Bold-75ab" d="M 5650 2103 
L 5650 1353 
Q 5219 791 4656 359 
Q 5363 134 6288 3 
Q 6150 -322 6006 -866 
Q 4725 -672 3775 -197 
Q 2925 -634 1863 -878 
Q 1631 -384 1419 -84 
Q 2256 78 2931 322 
Q 2556 609 2263 959 
L 2700 1378 
L 1931 1378 
L 1931 2103 
L 2363 2103 
Q 2100 2422 1831 2653 
Q 2500 2872 2475 3816 
L 5344 3816 
L 5344 3159 
Q 5344 2903 5619 2903 
L 6194 2903 
Q 6138 2666 6063 2234 
L 5181 2234 
Q 4544 2234 4544 2803 
L 4544 3091 
L 3200 3091 
Q 3213 2447 2531 2103 
L 5650 2103 
z
M 3131 5272 
L 4163 5353 
Q 4200 5172 4281 4841 
L 6250 4841 
L 6250 4103 
L 1750 4103 
L 1750 2478 
Q 1781 328 888 -884 
Q 550 -591 181 -284 
Q 669 347 844 1334 
Q 581 1172 256 978 
L 75 1916 
Q 619 2178 944 2372 
Q 950 2478 950 4841 
L 3238 4841 
Q 3188 5047 3131 5272 
z
M 94 4184 
L 638 4341 
Q 869 3322 944 2822 
L 356 2653 
Q 200 3678 94 4184 
z
M 3794 709 
Q 4331 1003 4725 1378 
L 2888 1378 
Q 3238 997 3794 709 
z
" transform="scale(0.015625)"/>
     </defs>
     <use xlink:href="#MicrosoftYaHei-Bold-4f53"/>
     <use xlink:href="#MicrosoftYaHei-Bold-6db2" transform="translate(100 0)"/>
     <use xlink:href="#MicrosoftYaHei-Bold-514d" transform="translate(200 0)"/>
     <use xlink:href="#MicrosoftYaHei-Bold-75ab" transform="translate(300 0)"/>
    </g>
   </g>
   <g id="text_3">
    <!-- 细胞免疫 -->
    <g style="fill: #333333" transform="translate(350.64 54.79588) scale(0.075 -0.075)">
     <defs>
      <path id="MicrosoftYaHei-Bold-7ec6" d="M 1225 1722 
Q 1444 1741 2156 1834 
Q 2100 1366 2088 1084 
Q 750 941 431 841 
L 181 1584 
Q 488 1828 1031 2728 
Q 400 2691 300 2634 
L 75 3359 
Q 475 3716 1156 5359 
L 1894 5053 
Q 1206 3753 981 3409 
L 1425 3425 
Q 1581 3722 1738 4041 
L 2288 3781 
L 2288 5053 
L 6050 5053 
L 6050 -809 
L 5250 -809 
L 5250 -428 
L 3088 -428 
L 3088 -809 
L 2288 -809 
L 2288 3497 
Q 1634 2338 1225 1722 
z
M 5250 4291 
L 4569 4291 
L 4569 2722 
L 5250 2722 
L 5250 4291 
z
M 3088 2722 
L 3769 2722 
L 3769 4291 
L 3088 4291 
L 3088 2722 
z
M 3088 334 
L 3769 334 
L 3769 1959 
L 3088 1959 
L 3088 334 
z
M 4569 334 
L 5250 334 
L 5250 1959 
L 4569 1959 
L 4569 334 
z
M 238 -572 
L 94 259 
Q 1156 384 2175 534 
Q 2131 84 2119 -266 
L 238 -572 
z
" transform="scale(0.015625)"/>
      <path id="MicrosoftYaHei-Bold-80de" d="M 5944 1959 
Q 5938 1341 5719 1041 
Q 6025 878 6325 728 
Q 6194 28 6100 -216 
Q 5906 -709 5181 -709 
L 3581 -709 
Q 2725 -709 2725 216 
L 2725 2922 
Q 2681 2859 2644 2803 
Q 2563 2916 2319 3191 
L 2319 -41 
Q 2319 -584 1894 -678 
Q 1644 -741 1188 -759 
Q 1138 -403 975 66 
Q 869 -441 638 -884 
Q 394 -553 63 -166 
Q 294 334 356 922 
Q 425 1472 425 2934 
L 425 5016 
L 2319 5016 
L 2319 3734 
Q 2856 4559 3156 5359 
L 3931 5191 
Q 3838 4972 3744 4759 
L 5988 4759 
L 5944 1959 
z
M 3044 3434 
L 4813 3434 
L 4813 1497 
L 4900 1497 
Q 5206 1491 5206 1959 
Q 5219 2997 5219 4028 
L 3381 4028 
Q 3219 3728 3044 3434 
z
M 3863 47 
L 4925 47 
Q 5381 47 5431 253 
Q 5519 497 5575 891 
Q 5400 759 5131 753 
Q 4669 741 4269 734 
Q 4219 984 4169 1216 
L 3475 1216 
L 3475 409 
Q 3475 47 3863 47 
z
M 1100 1091 
Q 1069 509 981 84 
Q 1150 66 1350 59 
Q 1606 53 1606 416 
L 1606 1091 
L 1100 1091 
z
M 4081 1891 
L 4081 2759 
L 3475 2759 
L 3475 1891 
L 4081 1891 
z
M 1606 4216 
L 1138 4216 
L 1138 3359 
L 1606 3359 
L 1606 4216 
z
M 1131 1834 
L 1606 1834 
L 1606 2616 
L 1138 2616 
Q 1138 2191 1131 1834 
z
" transform="scale(0.015625)"/>
     </defs>
     <use xlink:href="#MicrosoftYaHei-Bold-7ec6"/>
     <use xlink:href="#MicrosoftYaHei-Bold-80de" transform="translate(100 0)"/>
     <use xlink:href="#MicrosoftYaHei-Bold-514d" transform="translate(200 0)"/>
     <use xlink:href="#MicrosoftYaHei-Bold-75ab" transform="translate(300 0)"/>
    </g>
   </g>
   <g id="text_4">
    <!-- 作用对象 -->
    <g style="fill: #333333" transform="translate(26.64 76.05028) scale(0.075 -0.075)">
     <defs>
      <path id="MicrosoftYaHei-Bold-4f5c" d="M 5944 1984 
L 4250 1984 
L 4250 1216 
L 6088 1216 
L 6088 428 
L 4250 428 
L 4250 -834 
L 3369 -834 
L 3369 3541 
L 3184 3541 
Q 2800 2681 2313 2041 
Q 2131 2384 1831 2853 
Q 2544 3922 2944 5328 
L 3756 5134 
Q 3638 4722 3506 4347 
L 6300 4347 
L 6300 3541 
L 4250 3541 
L 4250 2772 
L 5944 2772 
L 5944 1984 
z
M 1319 5291 
L 2156 5047 
Q 1956 4419 1706 3828 
L 1706 -828 
L 856 -828 
L 856 2163 
Q 600 1744 313 1347 
Q 244 1828 100 2509 
Q 856 3703 1319 5291 
z
" transform="scale(0.015625)"/>
      <path id="MicrosoftYaHei-Bold-7528" d="M 5925 134 
Q 5925 -263 5744 -480 
Q 5563 -697 5189 -736 
Q 4816 -775 4206 -766 
Q 4100 -284 3956 141 
Q 4600 103 4656 103 
Q 5050 103 5050 484 
L 5050 1053 
L 3750 1053 
L 3750 -697 
L 2869 -697 
L 2869 1053 
L 1516 1053 
Q 1419 -325 988 -872 
Q 588 -584 181 -347 
Q 688 341 669 2097 
L 669 5041 
L 5925 5041 
L 5925 134 
z
M 1544 3441 
L 2869 3441 
L 2869 4216 
L 1544 4216 
L 1544 3441 
z
M 5050 4216 
L 3750 4216 
L 3750 3441 
L 5050 3441 
L 5050 4216 
z
M 1544 1859 
L 2869 1859 
L 2869 2634 
L 1544 2634 
L 1544 1859 
z
M 3750 1859 
L 5050 1859 
L 5050 2634 
L 3750 2634 
L 3750 1859 
z
" transform="scale(0.015625)"/>
      <path id="MicrosoftYaHei-Bold-5bf9" d="M 3050 4234 
L 4850 4234 
L 4850 5309 
L 5744 5309 
L 5744 4234 
L 6319 4234 
L 6319 3409 
L 5744 3409 
L 5744 216 
Q 5744 -250 5539 -490 
Q 5334 -731 4987 -754 
Q 4641 -778 3656 -778 
Q 3594 -359 3450 147 
Q 3931 109 4409 109 
Q 4850 109 4850 516 
L 4850 3409 
L 3050 3409 
L 3050 4234 
z
M 863 3772 
L 1691 2509 
Q 1934 3206 2025 4016 
L 188 4016 
L 188 4834 
L 2900 4834 
L 2900 4028 
Q 2709 2722 2247 1669 
L 3169 278 
L 2394 -228 
L 1781 778 
Q 1269 -47 550 -684 
Q 369 -316 88 153 
Q 816 772 1278 1594 
L 181 3341 
L 863 3772 
z
M 3463 3047 
Q 4069 2278 4588 1528 
L 3844 1041 
Q 3375 1841 2813 2609 
L 3463 3047 
z
" transform="scale(0.015625)"/>
      <path id="MicrosoftYaHei-Bold-8c61" d="M 1931 5334 
L 2913 5334 
Q 2763 5128 2597 4934 
L 5000 4934 
L 5000 4366 
L 4506 3966 
L 5944 3966 
L 5944 2366 
L 5491 2366 
L 5869 1822 
L 4975 1406 
Q 5506 509 6313 22 
Q 5900 -341 5638 -622 
Q 4900 -13 4334 1116 
L 4050 991 
Q 4184 584 4184 197 
Q 4184 -325 3028 -834 
L 2075 -834 
Q 2003 -541 1900 -203 
Q 1244 -538 431 -803 
Q 300 -503 94 -122 
Q 1875 300 3059 1231 
Q 3006 1338 2934 1450 
Q 1959 756 500 291 
Q 375 566 200 891 
Q 1781 1225 2700 1775 
Q 2628 1863 2547 1956 
Q 1753 1569 425 1253 
Q 294 1528 106 1853 
Q 1359 2059 2009 2366 
L 569 2366 
L 569 3506 
Q 381 3684 106 3916 
Q 1294 4553 1931 5334 
z
M 1538 3966 
L 3425 3966 
L 3881 4359 
L 2028 4359 
Q 1797 4153 1538 3966 
z
M 5150 2966 
L 5150 3366 
L 3778 3366 
Q 3709 3141 3644 2966 
L 5150 2966 
z
M 1363 2966 
L 2706 2966 
Q 2800 3134 2866 3366 
L 1363 3366 
L 1363 2966 
z
M 5191 2366 
L 3216 2366 
Q 3181 2338 3144 2309 
Q 3506 1991 3741 1628 
Q 4431 1931 5191 2366 
z
M 3247 700 
Q 2769 272 2128 -78 
Q 2569 -109 2791 -109 
Q 3288 -109 3288 378 
Q 3288 519 3247 700 
z
" transform="scale(0.015625)"/>
     </defs>
     <use xlink:href="#MicrosoftYaHei-Bold-4f5c"/>
     <use xlink:href="#MicrosoftYaHei-Bold-7528" transform="translate(100 0)"/>
     <use xlink:href="#MicrosoftYaHei-Bold-5bf9" transform="translate(200 0)"/>
     <use xlink:href="#MicrosoftYaHei-Bold-8c61" transform="translate(300 0)"/>
    </g>
   </g>
   <g id="text_5">
    <!-- 细胞外病原体/毒素 -->
    <g style="fill: #333333" transform="translate(188.64 76.05028) scale(0.075 -0.075)">
     <defs>
      <path id="MicrosoftYaHei-7ec6" d="M 2444 4791 
L 6013 4791 
L 6013 -747 
L 5525 -747 
L 5525 -228 
L 2931 -228 
L 2931 -759 
L 2444 -759 
L 2444 4791 
z
M 894 1572 
Q 1531 1666 2200 1778 
Q 2163 1534 2144 1297 
Q 1313 1172 319 1003 
L 219 1478 
Q 634 1906 1178 2794 
Q 675 2763 219 2722 
L 100 3147 
Q 675 3916 1294 5366 
L 1769 5178 
Q 1094 3853 663 3184 
Q 1003 3194 1425 3206 
Q 1634 3569 1863 3997 
L 2325 3766 
Q 1750 2778 894 1572 
z
M 4463 241 
L 5525 241 
L 5525 2091 
L 4463 2091 
L 4463 241 
z
M 2931 241 
L 3988 241 
L 3988 2091 
L 2931 2091 
L 2931 241 
z
M 5525 4322 
L 4463 4322 
L 4463 2541 
L 5525 2541 
L 5525 4322 
z
M 2931 2541 
L 3988 2541 
L 3988 4322 
L 2931 4322 
L 2931 2541 
z
M 81 84 
Q 1150 284 2219 528 
Q 2200 278 2200 53 
Q 1294 -122 219 -397 
L 81 84 
z
" transform="scale(0.015625)"/>
      <path id="MicrosoftYaHei-80de" d="M 2169 3128 
Q 2819 4034 3206 5309 
L 3663 5159 
Q 3544 4822 3419 4522 
L 5913 4522 
Q 5888 1972 5856 1641 
Q 5819 522 4725 553 
Q 4400 553 3956 572 
Q 3925 841 3863 1072 
Q 4425 1016 4675 1016 
Q 5388 959 5394 1766 
Q 5419 2172 5438 4084 
L 3231 4084 
Q 3050 3678 2850 3334 
L 4844 3334 
L 4844 1528 
L 3225 1528 
L 3225 253 
Q 3225 -241 3681 -241 
L 5081 -241 
Q 5575 -241 5700 134 
Q 5781 372 5869 866 
Q 6094 747 6319 672 
Q 6213 178 6119 -97 
Q 5919 -678 5200 -678 
L 3588 -678 
Q 2781 -678 2781 191 
L 2781 3216 
Q 2644 2984 2531 2816 
Q 2338 2997 2169 3128 
z
M 525 4972 
L 2138 4972 
L 2138 -166 
Q 2138 -678 1656 -741 
Q 1456 -766 963 -741 
Q 931 -491 888 -278 
Q 1231 -316 1450 -316 
Q 1700 -316 1700 -53 
L 1700 1397 
L 963 1397 
Q 975 -28 425 -878 
Q 256 -678 56 -528 
Q 563 259 525 1566 
L 525 4972 
z
M 4406 1953 
L 4406 2909 
L 3225 2909 
L 3225 1953 
L 4406 1953 
z
M 963 1809 
L 1700 1809 
L 1700 2984 
L 963 2984 
L 963 1809 
z
M 1700 4559 
L 963 4559 
L 963 3397 
L 1700 3397 
L 1700 4559 
z
" transform="scale(0.015625)"/>
      <path id="MicrosoftYaHei-5916" d="M 38 2084 
Q 969 3503 1438 5316 
L 1950 5172 
Q 1800 4666 1638 4197 
L 3375 4197 
L 3375 3734 
Q 3044 628 569 -822 
Q 438 -616 244 -378 
Q 1456 341 2106 1422 
Q 1669 1791 1125 2172 
L 1444 2553 
Q 1975 2166 2350 1872 
Q 2738 2678 2850 3722 
L 1456 3722 
Q 1019 2616 325 1553 
Q 200 1809 38 2084 
z
M 3988 5266 
L 4513 5266 
L 4513 3116 
L 4763 3397 
Q 5656 2703 6356 2128 
L 6000 1666 
Q 5338 2278 4513 2972 
L 4513 -859 
L 3988 -859 
L 3988 5266 
z
" transform="scale(0.015625)"/>
      <path id="MicrosoftYaHei-75c5" d="M 1725 3541 
L 6163 3541 
L 6163 3103 
L 4225 3103 
Q 4219 2728 4197 2416 
L 5981 2416 
L 5981 47 
Q 5981 -684 5225 -691 
Q 4788 -697 4163 -684 
Q 4125 -466 4063 -191 
Q 4563 -228 5081 -228 
Q 5506 -228 5506 147 
L 5506 1991 
L 4147 1991 
Q 4131 1878 4109 1775 
Q 4781 1056 5250 503 
L 4888 141 
Q 4428 747 3963 1288 
Q 3675 591 2819 -16 
Q 2675 166 2494 378 
Q 3575 1041 3688 1991 
L 2388 1991 
L 2388 -766 
L 1913 -766 
L 1913 2416 
L 3744 2416 
Q 3769 2722 3775 3103 
L 1725 3103 
L 1725 3541 
z
M 1481 2484 
Q 1481 178 506 -778 
Q 363 -572 163 -366 
Q 831 328 969 1619 
Q 666 1425 213 1153 
L 94 1678 
Q 669 1953 1013 2159 
L 1013 4584 
L 3472 4584 
Q 3309 4838 3094 5128 
L 3506 5366 
Q 3775 5022 3963 4734 
L 3713 4584 
L 6300 4584 
L 6300 4147 
L 1481 4147 
L 1481 2484 
z
M 175 3834 
L 581 3959 
Q 750 3384 919 2728 
L 469 2597 
Q 344 3247 175 3834 
z
" transform="scale(0.015625)"/>
      <path id="MicrosoftYaHei-539f" d="M 1950 3853 
L 3081 3853 
Q 3200 4153 3306 4472 
L 1256 4472 
L 1256 2772 
Q 1256 1322 1088 634 
Q 919 -103 394 -866 
Q 238 -653 44 -434 
Q 475 209 613 834 
Q 756 1428 756 2659 
L 756 4928 
L 6219 4928 
L 6219 4472 
L 3856 4472 
Q 3716 4134 3584 3853 
L 5719 3853 
L 5719 1291 
L 5250 1291 
L 5250 1416 
L 4094 1416 
L 4094 16 
Q 4094 -772 3381 -766 
Q 3163 -766 2594 -753 
Q 2569 -516 2513 -209 
Q 3000 -272 3281 -272 
Q 3594 -272 3594 91 
L 3594 1416 
L 2419 1416 
L 2419 1291 
L 1950 1291 
L 1950 3853 
z
M 2419 1834 
L 5250 1834 
L 5250 2434 
L 2419 2434 
L 2419 1834 
z
M 5250 3434 
L 2419 3434 
L 2419 2841 
L 5250 2841 
L 5250 3434 
z
M 2488 1172 
L 2919 891 
Q 2313 -9 1613 -703 
Q 1450 -566 1206 -397 
Q 1838 184 2488 1172 
z
M 4925 1159 
Q 5738 391 6313 -266 
L 5894 -641 
Q 5294 122 4556 859 
L 4925 1159 
z
" transform="scale(0.015625)"/>
      <path id="MicrosoftYaHei-4f53" d="M 6350 778 
Q 6138 522 5981 316 
Q 4731 1278 4144 3572 
L 4144 934 
L 5063 934 
L 5063 484 
L 4144 484 
L 4144 -822 
L 3681 -822 
L 3681 484 
L 2763 484 
L 2763 934 
L 3681 934 
L 3681 3572 
L 3666 3572 
Q 3084 1413 1750 216 
Q 1606 397 1419 609 
Q 2625 1713 3225 3572 
L 1756 3572 
L 1756 4022 
L 3681 4022 
L 3681 5297 
L 4144 5297 
L 4144 4022 
L 6138 4022 
L 6138 3572 
L 4547 3572 
Q 5144 1628 6350 778 
z
M 56 2297 
Q 963 3622 1406 5316 
L 1881 5178 
Q 1638 4381 1331 3681 
L 1331 -816 
L 869 -816 
L 869 2741 
Q 588 2231 269 1784 
Q 175 2041 56 2297 
z
" transform="scale(0.015625)"/>
      <path id="MicrosoftYaHei-2f" d="M 2791 4841 
L 469 -803 
L -103 -803 
L 2219 4841 
L 2791 4841 
z
" transform="scale(0.015625)"/>
      <path id="MicrosoftYaHei-6bd2" d="M 200 1459 
L 966 1459 
L 1088 2522 
L 5388 2522 
Q 5369 1953 5356 1459 
L 6200 1459 
L 6200 1084 
L 5344 1084 
Q 5331 716 5322 391 
L 5888 391 
L 5888 16 
L 5297 16 
Q 5169 -797 4300 -797 
Q 3800 -797 3419 -778 
Q 3388 -491 3325 -291 
Q 3775 -341 4194 -353 
Q 4663 -375 4791 16 
L 794 16 
L 922 1084 
L 200 1084 
L 200 1459 
z
M 250 3278 
L 2969 3278 
L 2969 3703 
L 869 3703 
L 869 4078 
L 2969 4078 
L 2969 4503 
L 538 4503 
L 538 4878 
L 2969 4878 
L 2969 5284 
L 3444 5284 
L 3444 4878 
L 5856 4878 
L 5856 4503 
L 3444 4503 
L 3444 4078 
L 5531 4078 
L 5531 3703 
L 3444 3703 
L 3444 3278 
L 6144 3278 
L 6144 2903 
L 250 2903 
L 250 3278 
z
M 2813 1984 
L 3175 2147 
L 1519 2147 
L 1441 1459 
L 4878 1459 
Q 4888 1788 4894 2147 
L 3200 2147 
Q 3353 1919 3513 1653 
L 3119 1466 
Q 2981 1753 2813 1984 
z
M 4866 1084 
L 3116 1084 
Q 3288 828 3425 584 
L 3050 391 
L 4838 391 
Q 4856 719 4866 1084 
z
M 1319 391 
L 3028 391 
Q 2894 672 2725 909 
L 3091 1084 
L 1397 1084 
L 1319 391 
z
" transform="scale(0.015625)"/>
      <path id="MicrosoftYaHei-7d20" d="M 4669 2009 
Q 5413 1391 5988 816 
Q 5863 716 5619 466 
Q 5431 666 5238 863 
Q 4294 819 3538 781 
L 3538 -3 
Q 3538 -747 2756 -747 
Q 2456 -747 2013 -734 
Q 1988 -522 1938 -228 
Q 2406 -278 2656 -278 
Q 3050 -278 3050 47 
L 3050 756 
Q 2219 716 1625 684 
Q 1206 659 900 603 
L 644 1097 
Q 1125 1191 1475 1322 
Q 2172 1591 2831 1881 
Q 2069 1825 1456 1772 
Q 1219 1747 981 1709 
L 763 2172 
Q 1088 2241 1338 2359 
Q 1738 2566 2103 2778 
L 188 2778 
L 188 3172 
L 2950 3172 
L 2950 3603 
L 775 3603 
L 775 3997 
L 2950 3997 
L 2950 4416 
L 425 4416 
L 425 4809 
L 2950 4809 
L 2950 5347 
L 3450 5347 
L 3450 4809 
L 6000 4809 
L 6000 4416 
L 3450 4416 
L 3450 3997 
L 5563 3997 
L 5563 3603 
L 3450 3603 
L 3450 3172 
L 6238 3172 
L 6238 2778 
L 2859 2778 
Q 2231 2434 1569 2122 
Q 2522 2175 3634 2247 
Q 4131 2484 4606 2734 
L 4956 2447 
Q 3356 1666 1775 1053 
Q 3347 1119 4888 1206 
Q 4625 1463 4344 1716 
L 4669 2009 
z
M 1819 559 
L 2131 209 
Q 1181 -372 475 -716 
Q 381 -553 219 -316 
Q 906 -16 1819 559 
z
M 4113 253 
L 4388 591 
Q 5056 253 6019 -291 
L 5706 -691 
Q 4813 -116 4113 253 
z
" transform="scale(0.015625)"/>
     </defs>
     <use xlink:href="#MicrosoftYaHei-7ec6"/>
     <use xlink:href="#MicrosoftYaHei-80de" transform="translate(100 0)"/>
     <use xlink:href="#MicrosoftYaHei-5916" transform="translate(200 0)"/>
     <use xlink:href="#MicrosoftYaHei-75c5" transform="translate(300 0)"/>
     <use xlink:href="#MicrosoftYaHei-539f" transform="translate(400 0)"/>
     <use xlink:href="#MicrosoftYaHei-4f53" transform="translate(500 0)"/>
     <use xlink:href="#MicrosoftYaHei-2f" transform="translate(600 0)"/>
     <use xlink:href="#MicrosoftYaHei-6bd2" transform="translate(642.724609 0)"/>
     <use xlink:href="#MicrosoftYaHei-7d20" transform="translate(742.724609 0)"/>
    </g>
   </g>
   <g id="text_6">
    <!-- 胞内病原体/癌细胞 -->
    <g style="fill: #333333" transform="translate(350.64 76.05028) scale(0.075 -0.075)">
     <defs>
      <path id="MicrosoftYaHei-5185" d="M 638 4184 
L 2944 4184 
L 2944 5259 
L 3456 5259 
L 3456 4184 
L 5750 4184 
L 5750 59 
Q 5750 -734 4969 -728 
Q 4556 -728 3956 -716 
Q 3938 -503 3863 -172 
Q 4456 -222 4850 -228 
Q 5244 -241 5244 166 
L 5244 3709 
L 3444 3709 
Q 3419 3141 3306 2697 
Q 4413 1809 5094 1134 
L 4713 728 
Q 4044 1459 3156 2247 
Q 2731 1328 1538 647 
Q 1275 1009 1188 1097 
Q 2206 1634 2581 2291 
Q 2881 2772 2931 3709 
L 1144 3709 
L 1144 -784 
L 638 -784 
L 638 4184 
z
" transform="scale(0.015625)"/>
      <path id="MicrosoftYaHei-764c" d="M 3119 5116 
L 3531 5353 
Q 3725 5078 3950 4684 
L 6250 4684 
L 6250 4272 
L 1463 4272 
L 1463 2391 
Q 1463 141 594 -878 
Q 450 -672 250 -466 
Q 925 372 988 1616 
Q 600 1372 213 1134 
L 94 1659 
Q 600 1897 1013 2147 
Q 1019 2253 1019 2372 
L 1019 4684 
L 3388 4684 
Q 3250 4903 3119 5116 
z
M 2094 3897 
L 5506 3897 
L 5506 2528 
L 5081 2528 
L 5081 2678 
L 2531 2678 
L 2531 2528 
L 2094 2528 
L 2094 3897 
z
M 2225 -153 
L 3600 -153 
L 3600 766 
L 4013 766 
L 4013 -153 
L 5388 -153 
L 5388 578 
L 5788 578 
L 5788 -809 
L 5388 -809 
L 5388 -553 
L 1825 -553 
L 1825 578 
L 2225 578 
L 2225 -153 
z
M 4038 2284 
L 5900 2284 
L 5900 809 
L 5513 809 
L 5513 978 
L 4425 978 
L 4425 841 
L 4038 841 
L 4038 2284 
z
M 1719 2284 
L 3569 2284 
L 3569 841 
L 3188 841 
L 3188 978 
L 2113 978 
L 2113 809 
L 1719 809 
L 1719 2284 
z
M 2531 3053 
L 5081 3053 
L 5081 3522 
L 2531 3522 
L 2531 3053 
z
M 4425 1341 
L 5513 1341 
L 5513 1922 
L 4425 1922 
L 4425 1341 
z
M 2113 1341 
L 3188 1341 
L 3188 1922 
L 2113 1922 
L 2113 1341 
z
M 106 3772 
L 494 3928 
Q 713 3428 956 2734 
L 525 2566 
Q 325 3228 106 3772 
z
" transform="scale(0.015625)"/>
     </defs>
     <use xlink:href="#MicrosoftYaHei-80de"/>
     <use xlink:href="#MicrosoftYaHei-5185" transform="translate(100 0)"/>
     <use xlink:href="#MicrosoftYaHei-75c5" transform="translate(200 0)"/>
     <use xlink:href="#MicrosoftYaHei-539f" transform="translate(300 0)"/>
     <use xlink:href="#MicrosoftYaHei-4f53" transform="translate(400 0)"/>
     <use xlink:href="#MicrosoftYaHei-2f" transform="translate(500 0)"/>
     <use xlink:href="#MicrosoftYaHei-764c" transform="translate(542.724609 0)"/>
     <use xlink:href="#MicrosoftYaHei-7ec6" transform="translate(642.724609 0)"/>
     <use xlink:href="#MicrosoftYaHei-80de" transform="translate(742.724609 0)"/>
    </g>
   </g>
   <g id="text_7">
    <!-- 主要细胞 -->
    <g style="fill: #333333" transform="translate(26.64 97.30468) scale(0.075 -0.075)">
     <defs>
      <path id="MicrosoftYaHei-Bold-4e3b" d="M 138 241 
L 2725 241 
L 2725 1409 
L 800 1409 
L 800 2222 
L 2725 2222 
L 2725 3353 
L 500 3353 
L 500 4178 
L 2922 4178 
Q 2713 4591 2450 4991 
L 3306 5378 
Q 3588 4966 3869 4459 
L 3266 4178 
L 5925 4178 
L 5925 3353 
L 3669 3353 
L 3669 2222 
L 5638 2222 
L 5638 1409 
L 3669 1409 
L 3669 241 
L 6263 241 
L 6263 -597 
L 138 -597 
L 138 241 
z
" transform="scale(0.015625)"/>
      <path id="MicrosoftYaHei-Bold-8981" d="M 106 1741 
L 1947 1741 
Q 2088 1950 2203 2153 
L 413 2153 
L 413 3991 
L 2031 3991 
L 2031 4422 
L 219 4422 
L 219 5084 
L 6181 5084 
L 6181 4422 
L 4363 4422 
L 4363 3991 
L 5981 3991 
L 5981 2153 
L 3113 2153 
Q 2981 1938 2853 1741 
L 6288 1741 
L 6288 1078 
L 5094 1078 
Q 4769 650 4322 309 
L 6000 -116 
L 5619 -878 
Q 4469 -475 3503 -181 
Q 2322 -731 569 -878 
Q 475 -522 281 -141 
Q 1525 -84 2406 131 
Q 1591 350 938 472 
Q 1219 778 1459 1078 
L 106 1078 
L 106 1741 
z
M 2781 3991 
L 3613 3991 
L 3613 4422 
L 2781 4422 
L 2781 3991 
z
M 2781 2791 
L 3613 2791 
L 3613 3353 
L 2781 3353 
L 2781 2791 
z
M 1200 2791 
L 2031 2791 
L 2031 3353 
L 1200 3353 
L 1200 2791 
z
M 5194 2791 
L 5194 3353 
L 4363 3353 
L 4363 2791 
L 5194 2791 
z
M 2169 784 
Q 2678 694 3447 519 
Q 3872 756 4147 1078 
L 2397 1078 
Q 2281 922 2169 784 
z
" transform="scale(0.015625)"/>
     </defs>
     <use xlink:href="#MicrosoftYaHei-Bold-4e3b"/>
     <use xlink:href="#MicrosoftYaHei-Bold-8981" transform="translate(100 0)"/>
     <use xlink:href="#MicrosoftYaHei-Bold-7ec6" transform="translate(200 0)"/>
     <use xlink:href="#MicrosoftYaHei-Bold-80de" transform="translate(300 0)"/>
    </g>
   </g>
   <g id="text_8">
    <!-- B细胞 → 浆细胞 -->
    <g style="fill: #333333" transform="translate(188.64 97.30468) scale(0.075 -0.075)">
     <defs>
      <path id="MicrosoftYaHei-42" d="M 625 0 
L 625 4841 
L 2047 4841 
Q 2684 4841 3065 4536 
Q 3447 4231 3447 3728 
Q 3447 3328 3220 3022 
Q 2994 2716 2597 2588 
L 2597 2575 
Q 3091 2519 3386 2201 
Q 3681 1884 3681 1397 
Q 3681 772 3232 386 
Q 2784 0 2084 0 
L 625 0 
z
M 1250 4294 
L 1250 2778 
L 1819 2778 
Q 2272 2778 2530 2998 
Q 2788 3219 2788 3609 
Q 2788 4294 1875 4294 
L 1250 4294 
z
M 1250 2234 
L 1250 547 
L 2000 547 
Q 2491 547 2758 773 
Q 3025 1000 3025 1403 
Q 3025 2234 1897 2234 
L 1250 2234 
z
" transform="scale(0.015625)"/>
      <path id="MicrosoftYaHei-20" transform="scale(0.015625)"/>
      <path id="MicrosoftYaHei-2192" d="M 4859 3766 
Q 5241 3344 5514 3125 
Q 5788 2906 6150 2713 
L 6150 2572 
Q 5788 2381 5517 2164 
Q 5247 1947 4859 1519 
L 4622 1519 
Q 4766 1822 4866 1983 
Q 4966 2144 5141 2369 
L 247 2369 
L 247 2916 
L 5141 2916 
Q 4972 3131 4869 3298 
Q 4766 3466 4622 3766 
L 4859 3766 
z
" transform="scale(0.015625)"/>
      <path id="MicrosoftYaHei-6d46" d="M 5331 2041 
L 5675 1684 
Q 5056 1272 4381 878 
Q 5138 309 6313 -3 
Q 6100 -247 5963 -459 
Q 4269 59 3456 1184 
L 3456 -22 
Q 3456 -772 2669 -772 
Q 2281 -772 1988 -759 
Q 1938 -503 1869 -247 
Q 2288 -291 2581 -291 
Q 2988 -291 2988 116 
L 2988 2166 
L 3456 2166 
L 3456 1922 
Q 3688 1509 4038 1172 
Q 4694 1559 5331 2041 
z
M 2413 3741 
Q 3169 4341 3756 5291 
L 4231 5159 
Q 4069 4897 3894 4666 
L 6013 4666 
L 6013 4241 
Q 4913 2784 2850 2153 
Q 2706 2397 2569 2584 
Q 3294 2784 3913 3097 
Q 3694 3291 3338 3603 
L 3631 3916 
Q 4050 3597 4338 3334 
Q 4944 3684 5419 4247 
L 3569 4247 
Q 3206 3816 2731 3403 
Q 2631 3534 2413 3741 
z
M 1850 5259 
L 2319 5259 
L 2319 2091 
L 1850 2091 
L 1850 3041 
Q 1025 2641 413 2347 
L 188 2809 
Q 838 3047 1850 3541 
L 1850 5259 
z
M 419 1222 
L 419 1647 
L 2519 1647 
L 2519 1203 
Q 1850 147 381 -534 
Q 288 -353 75 -109 
Q 1381 378 1981 1222 
L 419 1222 
z
M 800 5003 
Q 1213 4478 1506 4034 
L 1081 3759 
Q 813 4228 419 4772 
L 800 5003 
z
" transform="scale(0.015625)"/>
     </defs>
     <use xlink:href="#MicrosoftYaHei-42"/>
     <use xlink:href="#MicrosoftYaHei-7ec6" transform="translate(62.744141 0)"/>
     <use xlink:href="#MicrosoftYaHei-80de" transform="translate(162.744141 0)"/>
     <use xlink:href="#MicrosoftYaHei-20" transform="translate(262.744141 0)"/>
     <use xlink:href="#MicrosoftYaHei-2192" transform="translate(292.333984 0)"/>
     <use xlink:href="#MicrosoftYaHei-20" transform="translate(392.333984 0)"/>
     <use xlink:href="#MicrosoftYaHei-6d46" transform="translate(421.923828 0)"/>
     <use xlink:href="#MicrosoftYaHei-7ec6" transform="translate(521.923828 0)"/>
     <use xlink:href="#MicrosoftYaHei-80de" transform="translate(621.923828 0)"/>
    </g>
   </g>
   <g id="text_9">
    <!-- T细胞 → 效应T细胞 -->
    <g style="fill: #333333" transform="translate(350.64 97.30468) scale(0.075 -0.075)">
     <defs>
      <path id="MicrosoftYaHei-54" d="M 3550 4284 
L 2153 4284 
L 2153 0 
L 1525 0 
L 1525 4284 
L 134 4284 
L 134 4841 
L 3550 4841 
L 3550 4284 
z
" transform="scale(0.015625)"/>
      <path id="MicrosoftYaHei-6548" d="M 4088 5334 
L 4581 5253 
Q 4453 4653 4259 4122 
L 6269 4122 
L 6269 3697 
L 5838 3697 
Q 5672 1869 5050 841 
Q 5572 128 6388 -347 
Q 6188 -622 6050 -841 
Q 5250 -313 4728 391 
Q 4153 -328 3300 -891 
Q 3163 -709 2944 -497 
Q 3872 125 4428 853 
Q 3897 1797 3753 3025 
Q 3603 2766 3431 2528 
Q 3300 2716 3119 2928 
Q 3844 3941 4088 5334 
z
M 694 1909 
L 1031 2203 
Q 1456 1800 1863 1394 
Q 2138 1847 2350 2378 
L 2800 2141 
Q 2538 1550 2209 1047 
Q 2659 591 3088 134 
L 2669 -222 
Q 2275 225 1913 625 
Q 1250 -238 356 -809 
Q 238 -641 31 -397 
Q 947 128 1584 981 
Q 1113 1491 694 1909 
z
M 5344 3697 
L 4125 3697 
Q 4222 2322 4741 1338 
Q 5263 2306 5344 3697 
z
M 175 4297 
L 3325 4297 
L 3325 3872 
L 175 3872 
L 175 4297 
z
M 1063 3628 
L 1475 3372 
Q 963 2641 413 1953 
Q 256 2084 44 2241 
Q 506 2797 1063 3628 
z
M 2344 3609 
Q 2744 3197 3263 2591 
L 2894 2278 
Q 2506 2759 2006 3341 
L 2344 3609 
z
M 1306 5141 
L 1731 5359 
Q 1988 4953 2206 4547 
L 1769 4322 
Q 1544 4772 1306 5141 
z
" transform="scale(0.015625)"/>
      <path id="MicrosoftYaHei-5e94" d="M 2969 5134 
L 3425 5378 
Q 3694 5034 3938 4634 
L 3634 4459 
L 6169 4459 
L 6169 3984 
L 1300 3984 
L 1300 2453 
Q 1300 241 388 -853 
Q 238 -647 25 -422 
Q 775 416 775 2441 
L 775 4459 
L 3419 4459 
Q 3216 4803 2969 5134 
z
M 1263 -9 
L 4153 -9 
Q 4641 1238 5188 3403 
L 5731 3253 
Q 5147 1191 4694 -9 
L 6238 -9 
L 6238 -484 
L 1263 -484 
L 1263 -9 
z
M 1600 3059 
L 2075 3222 
Q 2463 2084 2825 672 
L 2294 509 
Q 2006 1747 1600 3059 
z
M 3106 3372 
L 3588 3509 
Q 3913 2384 4163 991 
L 3613 847 
Q 3431 2084 3106 3372 
z
" transform="scale(0.015625)"/>
     </defs>
     <use xlink:href="#MicrosoftYaHei-54"/>
     <use xlink:href="#MicrosoftYaHei-7ec6" transform="translate(57.324219 0)"/>
     <use xlink:href="#MicrosoftYaHei-80de" transform="translate(157.324219 0)"/>
     <use xlink:href="#MicrosoftYaHei-20" transform="translate(257.324219 0)"/>
     <use xlink:href="#MicrosoftYaHei-2192" transform="translate(286.914062 0)"/>
     <use xlink:href="#MicrosoftYaHei-20" transform="translate(386.914062 0)"/>
     <use xlink:href="#MicrosoftYaHei-6548" transform="translate(416.503906 0)"/>
     <use xlink:href="#MicrosoftYaHei-5e94" transform="translate(516.503906 0)"/>
     <use xlink:href="#MicrosoftYaHei-54" transform="translate(616.503906 0)"/>
     <use xlink:href="#MicrosoftYaHei-7ec6" transform="translate(673.828125 0)"/>
     <use xlink:href="#MicrosoftYaHei-80de" transform="translate(773.828125 0)"/>
    </g>
   </g>
   <g id="text_10">
    <!-- 效应分子 -->
    <g style="fill: #333333" transform="translate(26.64 118.55908) scale(0.075 -0.075)">
     <defs>
      <path id="MicrosoftYaHei-Bold-6548" d="M 1169 2122 
L 1806 1500 
Q 2019 1891 2131 2341 
L 2778 2159 
Q 2425 2663 1944 3203 
L 2550 3634 
Q 2841 3325 3084 3041 
Q 3653 4084 3956 5359 
L 4769 5247 
Q 4666 4809 4506 4366 
L 6294 4366 
L 6294 3534 
L 5931 3534 
Q 5778 1931 5213 928 
Q 5666 353 6319 22 
Q 6100 -278 5788 -809 
Q 5156 -378 4703 216 
Q 4141 -419 3331 -866 
Q 3069 -478 2756 -147 
Q 3644 325 4213 1000 
Q 3863 1697 3688 2556 
Q 3534 2281 3363 2003 
Q 3259 2166 3128 2363 
L 2838 2144 
L 2919 2122 
Q 2725 1472 2394 919 
Q 2791 519 3081 209 
L 2475 -372 
Q 2219 -59 1928 266 
Q 1375 -388 581 -866 
Q 350 -484 56 -91 
Q 856 300 1366 872 
Q 1013 1241 619 1628 
L 1169 2122 
z
M 4713 1772 
Q 5038 2481 5147 3534 
L 4256 3534 
Q 4378 2525 4713 1772 
z
M 200 4553 
L 1388 4553 
Q 1294 4847 1163 5178 
L 2000 5359 
Q 2163 4922 2259 4553 
L 3325 4553 
L 3325 3778 
L 200 3778 
L 200 4553 
z
M 950 3609 
L 1663 3272 
Q 1200 2441 625 1872 
Q 269 2284 75 2466 
Q 588 2984 950 3609 
z
" transform="scale(0.015625)"/>
      <path id="MicrosoftYaHei-Bold-5e94" d="M 1438 2491 
Q 1438 119 794 -866 
Q 506 -597 88 -266 
Q 619 622 613 2603 
L 613 4566 
L 3009 4566 
Q 2894 4853 2781 5116 
L 3788 5353 
Q 3928 5016 4103 4566 
L 6225 4566 
L 6225 3797 
L 1438 3797 
L 1438 2491 
z
M 3013 3309 
L 3794 3541 
Q 4125 2678 4513 1316 
L 3669 1084 
Q 3300 2416 3013 3309 
z
M 1325 316 
L 4300 316 
Q 4681 1541 5200 3453 
L 6069 3228 
Q 5744 2006 5184 316 
L 6250 316 
L 6250 -553 
L 1325 -553 
L 1325 316 
z
M 1475 2984 
L 2225 3303 
Q 2775 2103 3244 828 
L 2406 516 
Q 2006 1684 1475 2984 
z
" transform="scale(0.015625)"/>
      <path id="MicrosoftYaHei-Bold-5206" d="M 6350 3028 
Q 6088 2703 5750 2228 
Q 5519 2409 5303 2603 
Q 5219 606 5172 190 
Q 5125 -225 4862 -451 
Q 4600 -678 4128 -678 
Q 3484 -678 2913 -659 
Q 2856 -141 2781 284 
Q 3594 216 3956 216 
Q 4172 216 4230 408 
Q 4288 600 4325 1978 
L 2781 1978 
Q 2728 1100 2529 631 
Q 2331 163 1907 -215 
Q 1484 -594 844 -872 
Q 456 -353 194 -78 
Q 750 144 1111 414 
Q 1472 684 1630 989 
Q 1788 1294 1841 1978 
L 950 1978 
L 950 2475 
Q 794 2356 631 2247 
Q 344 2653 63 2953 
Q 1475 3947 2194 5316 
L 3031 4953 
Q 2378 3722 1391 2841 
L 5047 2841 
Q 4088 3766 3463 4903 
L 4238 5303 
Q 5038 3922 6350 3028 
z
" transform="scale(0.015625)"/>
      <path id="MicrosoftYaHei-Bold-5b50" d="M 144 2572 
L 2819 2572 
L 2819 3303 
L 4338 4147 
L 569 4147 
L 569 4978 
L 5831 4978 
L 5831 4147 
L 3769 2916 
L 3769 2572 
L 6275 2572 
L 6275 1722 
L 3769 1722 
L 3769 528 
Q 3769 -113 3487 -425 
Q 3206 -738 2609 -738 
L 1456 -728 
Q 1369 -266 1225 222 
Q 1788 159 2306 159 
Q 2825 159 2819 709 
L 2819 1722 
L 144 1722 
L 144 2572 
z
" transform="scale(0.015625)"/>
     </defs>
     <use xlink:href="#MicrosoftYaHei-Bold-6548"/>
     <use xlink:href="#MicrosoftYaHei-Bold-5e94" transform="translate(100 0)"/>
     <use xlink:href="#MicrosoftYaHei-Bold-5206" transform="translate(200 0)"/>
     <use xlink:href="#MicrosoftYaHei-Bold-5b50" transform="translate(300 0)"/>
    </g>
   </g>
   <g id="text_11">
    <!-- 抗体(免疫球蛋白) -->
    <g style="fill: #333333" transform="translate(188.64 118.55908) scale(0.075 -0.075)">
     <defs>
      <path id="MicrosoftYaHei-6297" d="M 3238 2634 
L 3238 1728 
Q 3238 28 2019 -866 
Q 1931 -747 1650 -497 
Q 2750 266 2750 1716 
L 2750 3084 
L 5106 3084 
L 5106 -53 
Q 5106 -266 5325 -266 
L 5538 -266 
Q 5788 -266 5825 128 
Q 5850 372 5881 922 
Q 6131 809 6350 728 
Q 6313 272 6269 -41 
Q 6188 -716 5594 -716 
L 5163 -716 
Q 4619 -716 4619 -141 
L 4619 2634 
L 3238 2634 
z
M 175 4041 
L 981 4041 
L 981 5266 
L 1463 5266 
L 1463 4041 
L 2150 4041 
L 2150 3609 
L 1463 3609 
L 1463 2403 
Q 1838 2519 2219 2641 
Q 2219 2347 2231 2153 
Q 1841 2031 1463 1909 
L 1463 -41 
Q 1463 -741 831 -747 
Q 619 -753 238 -747 
Q 200 -484 156 -216 
Q 506 -253 713 -253 
Q 981 -253 981 34 
L 981 1753 
Q 563 1616 156 1478 
L 94 1997 
Q 534 2122 981 2256 
L 981 3609 
L 175 3609 
L 175 4041 
z
M 2275 4359 
L 3925 4359 
Q 3694 4841 3513 5147 
L 3950 5359 
Q 4219 4909 4394 4553 
L 3988 4359 
L 6025 4359 
L 6025 3909 
L 2275 3909 
L 2275 4359 
z
" transform="scale(0.015625)"/>
      <path id="MicrosoftYaHei-28" d="M 1531 -1100 
Q 478 100 478 1847 
Q 478 3594 1531 4841 
L 2072 4841 
Q 1016 3544 1016 1853 
Q 1016 166 2066 -1100 
L 1531 -1100 
z
" transform="scale(0.015625)"/>
      <path id="MicrosoftYaHei-514d" d="M 131 -447 
Q 1950 147 2556 1472 
L 1319 1472 
L 1319 1234 
L 838 1234 
L 838 3109 
Q 625 2928 406 2766 
Q 331 2872 69 3178 
Q 1188 3934 2138 5322 
L 2613 5147 
Q 2444 4897 2275 4666 
L 4719 4666 
L 4719 4222 
L 4019 3522 
L 5519 3522 
L 5519 1234 
L 5038 1234 
L 5038 1472 
L 3081 1472 
Q 2500 -122 456 -909 
Q 281 -597 131 -447 
z
M 5038 3084 
L 3381 3084 
Q 3338 2428 3213 1909 
L 5038 1909 
L 5038 3084 
z
M 1319 1909 
L 2713 1909 
Q 2863 2416 2894 3084 
L 1319 3084 
L 1319 1909 
z
M 4063 4228 
L 1931 4228 
Q 1619 3853 1288 3522 
L 3369 3522 
L 4063 4228 
z
M 3156 1153 
L 3638 1153 
L 3638 228 
Q 3638 -47 3731 -134 
Q 3831 -234 4125 -234 
L 5200 -234 
Q 5650 -234 5713 141 
Q 5788 547 5813 1053 
Q 6056 953 6294 872 
Q 6250 384 6181 -16 
Q 6081 -697 5225 -697 
L 3981 -697 
Q 3506 -697 3331 -503 
Q 3156 -341 3156 141 
L 3156 1153 
z
" transform="scale(0.015625)"/>
      <path id="MicrosoftYaHei-75ab" d="M 2025 1341 
L 2025 1766 
L 5519 1766 
L 5519 1378 
Q 5050 653 4331 147 
Q 5156 -222 6294 -297 
Q 6106 -641 6044 -816 
Q 4750 -672 3844 -153 
Q 2931 -653 1688 -866 
Q 1544 -591 1419 -397 
Q 2544 -222 3375 153 
Q 2756 634 2375 1341 
L 2025 1341 
z
M 3100 5097 
L 3538 5316 
Q 3688 5091 3963 4628 
L 6238 4628 
L 6238 4191 
L 1494 4191 
L 1494 2422 
Q 1494 309 625 -872 
Q 406 -603 256 -466 
Q 856 322 981 1603 
Q 675 1403 213 1128 
L 94 1659 
Q 681 1934 1019 2147 
L 1019 4628 
L 3388 4628 
Q 3244 4872 3100 5097 
z
M 5456 2553 
Q 5775 2553 6156 2572 
L 6069 2103 
Q 5700 2091 5375 2091 
Q 4656 2091 4656 2791 
L 4656 3272 
L 3069 3272 
L 3069 3097 
Q 3069 2216 2075 1809 
Q 1963 1978 1731 2184 
Q 2594 2472 2594 3166 
L 2594 3697 
L 5131 3697 
L 5131 2853 
Q 5131 2553 5456 2553 
z
M 4919 1341 
L 2919 1341 
Q 3288 778 3856 409 
Q 4494 797 4919 1341 
z
M 113 3766 
L 494 3922 
Q 719 3422 956 2728 
L 531 2559 
Q 338 3216 113 3766 
z
" transform="scale(0.015625)"/>
      <path id="MicrosoftYaHei-7403" d="M 2244 766 
Q 3059 1263 3950 1872 
L 3950 3691 
L 2350 3691 
L 2350 4141 
L 3950 4141 
L 3950 5253 
L 4425 5253 
L 4425 4141 
L 6200 4141 
L 6200 3691 
L 4425 3691 
L 4425 3134 
Q 4581 2622 4791 2184 
Q 5331 2709 5694 3153 
L 6100 2809 
Q 5584 2300 5003 1778 
Q 5547 838 6356 322 
Q 6319 266 6194 128 
Q 6056 -16 6000 -97 
Q 4975 644 4425 2034 
L 4425 16 
Q 4425 -728 3650 -728 
Q 3344 -728 2994 -722 
Q 2956 -484 2894 -209 
Q 3263 -253 3563 -253 
Q 3950 -253 3950 128 
L 3950 1319 
Q 3303 869 2556 316 
L 2244 766 
z
M 94 359 
Q 516 403 981 463 
L 981 2353 
L 213 2353 
L 213 2803 
L 981 2803 
L 981 4272 
L 131 4272 
L 131 4722 
L 2269 4722 
L 2269 4272 
L 1438 4272 
L 1438 2803 
L 2163 2803 
L 2163 2353 
L 1438 2353 
L 1438 522 
Q 1813 575 2213 634 
Q 2188 384 2181 153 
Q 1013 3 156 -128 
L 94 359 
z
M 2381 3022 
L 2763 3253 
Q 3169 2722 3569 2078 
L 3169 1803 
Q 2738 2534 2381 3022 
z
M 4763 4884 
L 5038 5197 
Q 5481 4903 5850 4591 
L 5550 4247 
Q 5181 4591 4763 4884 
z
" transform="scale(0.015625)"/>
      <path id="MicrosoftYaHei-86cb" d="M 4769 291 
L 5100 578 
Q 5813 -103 6238 -559 
L 5856 -897 
Q 5681 -684 5500 -484 
Q 2994 -522 300 -609 
L 263 -147 
Q 1738 -134 2975 -116 
L 2975 609 
L 1350 609 
L 1350 341 
L 900 341 
L 900 2116 
L 2975 2116 
L 2975 2541 
L 3438 2541 
L 3438 2116 
L 5513 2116 
L 5513 609 
L 3438 609 
L 3438 -109 
Q 4350 -97 5125 -78 
Q 4950 109 4769 291 
z
M 338 4597 
L 338 5003 
L 6019 5003 
L 6019 4634 
L 5763 3684 
Q 5538 3759 5319 3809 
L 5550 4597 
L 3419 4597 
L 3419 4041 
L 5081 4041 
L 5081 3641 
L 3419 3641 
L 3419 3084 
Q 4856 3078 6275 3116 
Q 6163 2853 6100 2653 
Q 4725 2647 2894 2672 
Q 1938 2678 1431 3216 
Q 1106 2578 500 2128 
Q 375 2334 219 2509 
Q 1156 3216 1306 4366 
L 1763 4316 
Q 1713 3941 1594 3609 
Q 2025 3134 2956 3091 
L 2956 4597 
L 338 4597 
z
M 1350 1016 
L 2975 1016 
L 2975 1709 
L 1350 1709 
L 1350 1016 
z
M 5063 1016 
L 5063 1709 
L 3438 1709 
L 3438 1016 
L 5063 1016 
z
" transform="scale(0.015625)"/>
      <path id="MicrosoftYaHei-767d" d="M 638 4409 
L 2275 4409 
Q 2497 4894 2656 5378 
L 3200 5234 
Q 3009 4809 2809 4409 
L 5738 4409 
L 5738 -753 
L 5225 -753 
L 5225 -316 
L 1150 -316 
L 1150 -753 
L 638 -753 
L 638 4409 
z
M 1150 147 
L 5225 147 
L 5225 1859 
L 1150 1859 
L 1150 147 
z
M 5225 3947 
L 1150 3947 
L 1150 2309 
L 5225 2309 
L 5225 3947 
z
" transform="scale(0.015625)"/>
      <path id="MicrosoftYaHei-29" d="M 78 -1100 
Q 1131 163 1131 1853 
Q 1131 3547 72 4841 
L 616 4841 
Q 1672 3603 1672 1847 
Q 1672 91 616 -1100 
L 78 -1100 
z
" transform="scale(0.015625)"/>
     </defs>
     <use xlink:href="#MicrosoftYaHei-6297"/>
     <use xlink:href="#MicrosoftYaHei-4f53" transform="translate(100 0)"/>
     <use xlink:href="#MicrosoftYaHei-28" transform="translate(200 0)"/>
     <use xlink:href="#MicrosoftYaHei-514d" transform="translate(233.398438 0)"/>
     <use xlink:href="#MicrosoftYaHei-75ab" transform="translate(333.398438 0)"/>
     <use xlink:href="#MicrosoftYaHei-7403" transform="translate(433.398438 0)"/>
     <use xlink:href="#MicrosoftYaHei-86cb" transform="translate(533.398438 0)"/>
     <use xlink:href="#MicrosoftYaHei-767d" transform="translate(633.398438 0)"/>
     <use xlink:href="#MicrosoftYaHei-29" transform="translate(733.398438 0)"/>
    </g>
   </g>
   <g id="text_12">
    <!-- 细胞因子(穿孔素等) -->
    <g style="fill: #333333" transform="translate(350.64 118.55908) scale(0.075 -0.075)">
     <defs>
      <path id="MicrosoftYaHei-56e0" d="M 525 4934 
L 5869 4934 
L 5869 -834 
L 5369 -834 
L 5369 -434 
L 1025 -434 
L 1025 -834 
L 525 -834 
L 525 4934 
z
M 5369 4466 
L 1025 4466 
L 1025 22 
L 5369 22 
L 5369 4466 
z
M 1400 3209 
L 2944 3209 
L 2944 4259 
L 3419 4259 
L 3419 3209 
L 5000 3209 
L 5000 2772 
L 3400 2772 
Q 3388 2522 3331 2291 
Q 4206 1591 5131 778 
L 4750 384 
Q 4031 1116 3194 1853 
Q 2788 866 1550 266 
Q 1381 497 1219 684 
Q 2844 1416 2925 2772 
L 1400 2772 
L 1400 3209 
z
" transform="scale(0.015625)"/>
      <path id="MicrosoftYaHei-5b50" d="M 125 2497 
L 3031 2497 
L 3031 3184 
L 4825 4491 
L 781 4491 
L 781 4959 
L 5656 4959 
L 5656 4472 
L 3563 2941 
L 3563 2497 
L 6300 2497 
L 6300 2028 
L 3563 2028 
L 3563 59 
Q 3563 -778 2688 -778 
Q 2400 -778 1700 -766 
Q 1675 -516 1625 -197 
Q 2081 -253 2588 -259 
Q 3031 -259 3031 191 
L 3031 2028 
L 125 2028 
L 125 2497 
z
" transform="scale(0.015625)"/>
      <path id="MicrosoftYaHei-7a7f" d="M 738 1153 
L 738 1603 
L 1119 2403 
L 1613 2303 
L 1269 1603 
L 3913 1603 
L 3913 2484 
L 325 2484 
L 325 2934 
L 6163 2934 
L 6163 2484 
L 4413 2484 
L 4413 1603 
L 6250 1603 
L 6250 1153 
L 4413 1153 
L 4413 22 
Q 4413 -747 3669 -747 
Q 3244 -747 2744 -741 
Q 2706 -503 2650 -216 
Q 3069 -266 3519 -266 
Q 3913 -266 3913 128 
L 3913 1153 
L 3750 1153 
Q 2619 -56 338 -691 
Q 231 -484 63 -222 
Q 1816 166 3063 1153 
L 738 1153 
z
M 300 4691 
L 3019 4691 
Q 2884 4931 2738 5153 
L 3213 5366 
Q 3428 5038 3616 4691 
L 6106 4691 
L 6106 3641 
L 5600 3641 
L 5600 4241 
L 800 4241 
L 800 3616 
L 300 3616 
L 300 4691 
z
M 2581 4066 
L 2825 3653 
Q 1900 3309 875 3003 
Q 781 3203 650 3441 
Q 1700 3709 2581 4066 
z
M 3775 4066 
Q 4869 3753 5694 3478 
L 5506 3022 
Q 4681 3334 3594 3659 
L 3775 4066 
z
" transform="scale(0.015625)"/>
      <path id="MicrosoftYaHei-5b54" d="M 88 1953 
Q 878 2144 1638 2338 
L 1638 3341 
L 2625 4459 
L 413 4459 
L 413 4916 
L 3288 4916 
L 3288 4428 
L 2138 3184 
L 2138 2469 
Q 2788 2641 3413 2816 
Q 3400 2503 3400 2291 
Q 2750 2125 2138 1959 
L 2138 78 
Q 2138 -691 1350 -691 
Q 1031 -691 544 -678 
Q 519 -472 456 -147 
Q 925 -191 1244 -191 
Q 1638 -191 1638 197 
L 1638 1825 
Q 906 1622 225 1416 
L 88 1953 
z
M 3856 5247 
L 4356 5247 
L 4356 259 
Q 4356 -159 4763 -159 
L 5219 -159 
Q 5638 -159 5700 278 
Q 5756 747 5781 1466 
Q 5963 1384 6319 1266 
Q 6238 309 6175 3 
Q 6050 -641 5294 -641 
L 4613 -641 
Q 3863 -641 3856 178 
L 3856 5247 
z
" transform="scale(0.015625)"/>
      <path id="MicrosoftYaHei-7b49" d="M 125 2303 
L 2913 2303 
L 2913 2922 
L 563 2922 
L 563 3328 
L 2913 3328 
L 2913 3822 
L 3400 3822 
L 3400 3328 
L 5850 3328 
L 5850 2922 
L 3400 2922 
L 3400 2303 
L 6288 2303 
L 6288 1884 
L 125 1884 
L 125 2303 
z
M 338 1272 
L 4250 1272 
L 4250 1766 
L 4738 1766 
L 4738 1272 
L 6075 1272 
L 6075 853 
L 4738 853 
L 4738 22 
Q 4738 -766 3925 -766 
Q 3450 -766 2969 -759 
Q 2938 -534 2875 -228 
Q 3375 -278 3794 -278 
Q 4250 -278 4250 91 
L 4250 853 
L 338 853 
L 338 1272 
z
M 1294 5347 
L 1831 5347 
Q 1688 5041 1513 4759 
L 3325 4759 
L 3325 4372 
L 1244 4372 
Q 875 3878 388 3459 
Q 263 3609 75 3797 
Q 856 4428 1294 5347 
z
M 3969 5347 
L 4506 5347 
Q 4366 5038 4213 4759 
L 6225 4759 
L 6225 4372 
L 3984 4372 
Q 3772 4038 3538 3759 
Q 3275 3947 3119 4009 
Q 3663 4597 3969 5347 
z
M 1500 491 
L 1831 809 
Q 2256 447 2700 28 
L 2338 -316 
Q 2000 41 1500 491 
z
M 2019 3441 
Q 1781 3753 1500 4078 
L 1825 4309 
Q 2125 4022 2388 3722 
L 2019 3441 
z
M 4744 3441 
Q 4625 3628 4238 4078 
L 4563 4309 
Q 4900 3984 5113 3722 
L 4744 3441 
z
" transform="scale(0.015625)"/>
     </defs>
     <use xlink:href="#MicrosoftYaHei-7ec6"/>
     <use xlink:href="#MicrosoftYaHei-80de" transform="translate(100 0)"/>
     <use xlink:href="#MicrosoftYaHei-56e0" transform="translate(200 0)"/>
     <use xlink:href="#MicrosoftYaHei-5b50" transform="translate(300 0)"/>
     <use xlink:href="#MicrosoftYaHei-28" transform="translate(400 0)"/>
     <use xlink:href="#MicrosoftYaHei-7a7f" transform="translate(433.398438 0)"/>
     <use xlink:href="#MicrosoftYaHei-5b54" transform="translate(533.398438 0)"/>
     <use xlink:href="#MicrosoftYaHei-7d20" transform="translate(633.398438 0)"/>
     <use xlink:href="#MicrosoftYaHei-7b49" transform="translate(733.398438 0)"/>
     <use xlink:href="#MicrosoftYaHei-29" transform="translate(833.398438 0)"/>
    </g>
   </g>
   <g id="text_13">
    <!-- 作用方式 -->
    <g style="fill: #333333" transform="translate(26.64 139.81348) scale(0.075 -0.075)">
     <defs>
      <path id="MicrosoftYaHei-Bold-65b9" d="M 2975 -747 
Q 2863 -184 2750 209 
Q 3528 178 3822 178 
Q 4031 178 4142 214 
Q 4253 250 4325 329 
Q 4397 409 4422 509 
Q 4447 609 4476 1196 
Q 4506 1784 4506 2003 
L 2531 2003 
Q 2341 213 769 -878 
Q 613 -653 94 -53 
Q 784 397 1142 962 
Q 1500 1528 1562 2073 
Q 1625 2619 1641 3628 
L 231 3628 
L 231 4453 
L 2828 4453 
L 2581 5084 
L 3575 5316 
Q 3781 4800 3888 4453 
L 6175 4453 
L 6175 3628 
L 2594 3628 
Q 2588 3241 2572 2828 
L 5494 2828 
Q 5466 2006 5419 1132 
Q 5372 259 5330 46 
Q 5288 -166 5152 -352 
Q 5016 -538 4825 -617 
Q 4634 -697 4232 -722 
Q 3831 -747 2975 -747 
z
" transform="scale(0.015625)"/>
      <path id="MicrosoftYaHei-Bold-5f0f" d="M 100 4222 
L 3350 4222 
L 3281 5322 
L 4219 5322 
Q 4234 4769 4266 4222 
L 5125 4222 
Q 4856 4572 4594 4853 
L 5150 5272 
Q 5519 4891 5863 4478 
L 5531 4222 
L 6169 4222 
L 6169 3397 
L 4322 3397 
Q 4463 1363 4698 727 
Q 4934 91 5144 91 
Q 5200 91 5247 156 
Q 5294 222 5358 530 
Q 5422 838 5481 1347 
Q 5913 1072 6300 909 
Q 6131 -263 5887 -561 
Q 5644 -859 5150 -859 
Q 4269 -859 3916 128 
Q 3563 1116 3409 3397 
L 100 3397 
L 100 4222 
z
M 375 2716 
L 3200 2716 
L 3200 1897 
L 2263 1897 
L 2263 681 
L 3500 866 
Q 3481 253 3488 -34 
L 200 -516 
L 94 416 
L 1369 566 
L 1369 1897 
L 375 1897 
L 375 2716 
z
" transform="scale(0.015625)"/>
     </defs>
     <use xlink:href="#MicrosoftYaHei-Bold-4f5c"/>
     <use xlink:href="#MicrosoftYaHei-Bold-7528" transform="translate(100 0)"/>
     <use xlink:href="#MicrosoftYaHei-Bold-65b9" transform="translate(200 0)"/>
     <use xlink:href="#MicrosoftYaHei-Bold-5f0f" transform="translate(300 0)"/>
    </g>
   </g>
   <g id="text_14">
    <!-- 抗体中和抗原 -->
    <g style="fill: #333333" transform="translate(188.64 139.81348) scale(0.075 -0.075)">
     <defs>
      <path id="MicrosoftYaHei-4e2d" d="M 525 3972 
L 2931 3972 
L 2931 5334 
L 3469 5334 
L 3469 3972 
L 5900 3972 
L 5900 1122 
L 5388 1122 
L 5388 1459 
L 3469 1459 
L 3469 -866 
L 2931 -866 
L 2931 1459 
L 1038 1459 
L 1038 1122 
L 525 1122 
L 525 3972 
z
M 5388 3509 
L 3469 3509 
L 3469 1922 
L 5388 1922 
L 5388 3509 
z
M 1038 1922 
L 2931 1922 
L 2931 3509 
L 1038 3509 
L 1038 1922 
z
" transform="scale(0.015625)"/>
      <path id="MicrosoftYaHei-548c" d="M 3263 4553 
L 6025 4553 
L 6025 -666 
L 5525 -666 
L 5525 -59 
L 3763 -59 
L 3763 -666 
L 3263 -666 
L 3263 4553 
z
M 5525 4091 
L 3763 4091 
L 3763 391 
L 5525 391 
L 5525 4091 
z
M 75 897 
Q 788 1841 1206 2997 
L 113 2997 
L 113 3422 
L 1306 3422 
L 1306 4409 
Q 819 4334 319 4272 
Q 263 4478 181 4703 
Q 1481 4847 2700 5128 
L 2844 4691 
Q 2325 4584 1781 4491 
L 1781 3422 
L 2950 3422 
L 2950 2997 
L 1781 2997 
L 1781 2191 
L 2006 2416 
Q 2500 1991 2975 1516 
L 2619 1153 
Q 2244 1584 1781 2034 
L 1781 -872 
L 1306 -872 
L 1306 2128 
Q 938 1203 313 359 
Q 213 603 75 897 
z
" transform="scale(0.015625)"/>
     </defs>
     <use xlink:href="#MicrosoftYaHei-6297"/>
     <use xlink:href="#MicrosoftYaHei-4f53" transform="translate(100 0)"/>
     <use xlink:href="#MicrosoftYaHei-4e2d" transform="translate(200 0)"/>
     <use xlink:href="#MicrosoftYaHei-548c" transform="translate(300 0)"/>
     <use xlink:href="#MicrosoftYaHei-6297" transform="translate(400 0)"/>
     <use xlink:href="#MicrosoftYaHei-539f" transform="translate(500 0)"/>
    </g>
   </g>
   <g id="text_15">
    <!-- 效应T细胞裂解靶细胞 -->
    <g style="fill: #333333" transform="translate(350.64 139.81348) scale(0.075 -0.075)">
     <defs>
      <path id="MicrosoftYaHei-88c2" d="M 3563 178 
Q 3556 -72 3563 -303 
Q 2800 -516 2350 -678 
Q 2100 -772 1881 -891 
L 1625 -503 
Q 1794 -403 1775 -9 
L 1775 384 
Q 1150 47 350 -253 
Q 238 -41 81 172 
Q 1613 647 2513 1366 
L 306 1366 
L 306 1791 
L 3206 1791 
Q 3031 2078 2800 2378 
L 3194 2622 
Q 3456 2297 3644 2003 
L 3275 1791 
L 6125 1791 
L 6125 1366 
L 3450 1366 
Q 3713 903 4150 572 
Q 4913 909 5519 1247 
L 5769 822 
Q 5181 553 4569 303 
Q 5269 -59 6300 -191 
Q 6113 -434 5956 -659 
Q 3850 -272 3031 1266 
Q 2700 953 2238 653 
L 2238 -234 
Q 2900 -41 3563 178 
z
M 1306 3234 
L 1569 3528 
Q 1975 3259 2306 3016 
Q 2756 3328 3063 3741 
L 1519 3741 
Q 1063 3266 494 2916 
Q 381 3122 250 3303 
Q 1131 3816 1644 4578 
L 538 4578 
L 538 4991 
L 3750 4991 
L 3750 4578 
L 2175 4578 
Q 2038 4353 1875 4153 
L 3594 4153 
L 3594 3766 
Q 2838 2466 819 1872 
Q 725 2072 588 2284 
Q 1344 2472 1913 2778 
Q 1613 3016 1306 3234 
z
M 5856 5247 
L 5856 2878 
Q 5856 2159 5169 2153 
Q 4881 2147 4425 2153 
Q 4419 2178 4338 2628 
Q 4756 2591 5031 2591 
Q 5394 2591 5394 2978 
L 5394 5247 
L 5856 5247 
z
M 4150 4884 
L 4600 4884 
L 4600 3016 
L 4150 3016 
L 4150 4884 
z
" transform="scale(0.015625)"/>
      <path id="MicrosoftYaHei-89e3" d="M 75 3559 
Q 756 4316 1188 5322 
L 1625 5203 
Q 1497 4941 1366 4697 
L 2544 4697 
L 2544 4309 
L 2084 3641 
L 2881 3641 
L 2881 -128 
Q 2881 -753 2263 -759 
Q 1994 -766 1706 -747 
Q 1688 -591 1638 -328 
Q 1938 -359 2175 -359 
Q 2475 -359 2475 -66 
L 2475 953 
L 1913 953 
L 1913 -203 
L 1506 -203 
L 1506 953 
L 950 953 
Q 897 -225 438 -847 
Q 294 -684 88 -528 
Q 550 153 550 1303 
L 550 3428 
Q 463 3319 375 3216 
Q 269 3359 75 3559 
z
M 3075 897 
L 4550 897 
L 4550 1797 
L 3794 1797 
Q 3659 1438 3513 1122 
Q 3331 1228 3106 1309 
Q 3456 2059 3663 2828 
L 4094 2709 
Q 4019 2456 3941 2222 
L 4550 2222 
L 4550 2897 
L 5013 2897 
L 5013 2222 
L 6131 2222 
L 6131 1797 
L 5013 1797 
L 5013 897 
L 6281 897 
L 6281 472 
L 5013 472 
L 5013 -841 
L 4550 -841 
L 4550 472 
L 3075 472 
L 3075 897 
z
M 3138 4997 
L 5950 4997 
Q 5931 4384 5888 3847 
Q 5844 3084 5081 3084 
Q 4819 3084 4438 3103 
Q 4400 3366 4350 3603 
Q 4800 3547 5056 3547 
Q 5394 3547 5425 3909 
Q 5456 4191 5469 4572 
L 4284 4572 
Q 4263 3950 4063 3584 
Q 3844 3159 3219 2759 
Q 3119 2916 2919 3159 
Q 3438 3441 3638 3778 
Q 3806 4050 3828 4572 
L 3138 4572 
L 3138 4997 
z
M 709 3641 
L 1581 3641 
L 2038 4316 
L 1150 4316 
Q 934 3950 709 3641 
z
M 1913 1322 
L 2475 1322 
L 2475 2116 
L 1913 2116 
L 1913 1322 
z
M 2475 3272 
L 1913 3272 
L 1913 2484 
L 2475 2484 
L 2475 3272 
z
M 956 1322 
L 1506 1322 
L 1506 2116 
L 956 2116 
L 956 1322 
z
M 956 2484 
L 1506 2484 
L 1506 3272 
L 956 3272 
L 956 2484 
z
" transform="scale(0.015625)"/>
      <path id="MicrosoftYaHei-9776" d="M 3063 4959 
L 5931 4959 
L 5931 1847 
L 5506 1847 
L 5506 2128 
L 3488 2128 
L 3488 266 
Q 3488 -209 4013 -209 
L 5056 -209 
Q 5675 -209 5738 253 
Q 5794 541 5863 1228 
Q 6100 1128 6331 1047 
Q 6244 441 6156 47 
Q 6019 -641 5181 -641 
L 3919 -641 
Q 3063 -641 3063 184 
L 3063 4959 
z
M 1988 5303 
L 2388 5303 
L 2388 4622 
L 2888 4622 
L 2888 4247 
L 2388 4247 
L 2388 3166 
L 1988 3166 
L 1988 3328 
L 1725 3328 
L 1725 2759 
L 2700 2759 
L 2700 1109 
L 2300 1109 
L 2300 1284 
L 1725 1284 
L 1725 666 
L 2913 666 
L 2913 291 
L 1725 291 
L 1725 -878 
L 1313 -878 
L 1313 291 
L 81 291 
L 81 666 
L 1313 666 
L 1313 1284 
L 738 1284 
L 738 1109 
L 338 1109 
L 338 2759 
L 1313 2759 
L 1313 3328 
L 1050 3328 
L 1050 3172 
L 650 3172 
L 650 4247 
L 81 4247 
L 81 4622 
L 650 4622 
L 650 5303 
L 1050 5303 
L 1050 4622 
L 1988 4622 
L 1988 5303 
z
M 5506 4516 
L 4706 4516 
L 4706 2572 
L 5506 2572 
L 5506 4516 
z
M 3488 2572 
L 4281 2572 
L 4281 4516 
L 3488 4516 
L 3488 2572 
z
M 1050 3678 
L 1988 3678 
L 1988 4247 
L 1050 4247 
L 1050 3678 
z
M 2300 2397 
L 1725 2397 
L 1725 1647 
L 2300 1647 
L 2300 2397 
z
M 738 1647 
L 1313 1647 
L 1313 2397 
L 738 2397 
L 738 1647 
z
" transform="scale(0.015625)"/>
     </defs>
     <use xlink:href="#MicrosoftYaHei-6548"/>
     <use xlink:href="#MicrosoftYaHei-5e94" transform="translate(100 0)"/>
     <use xlink:href="#MicrosoftYaHei-54" transform="translate(200 0)"/>
     <use xlink:href="#MicrosoftYaHei-7ec6" transform="translate(257.324219 0)"/>
     <use xlink:href="#MicrosoftYaHei-80de" transform="translate(357.324219 0)"/>
     <use xlink:href="#MicrosoftYaHei-88c2" transform="translate(457.324219 0)"/>
     <use xlink:href="#MicrosoftYaHei-89e3" transform="translate(557.324219 0)"/>
     <use xlink:href="#MicrosoftYaHei-9776" transform="translate(657.324219 0)"/>
     <use xlink:href="#MicrosoftYaHei-7ec6" transform="translate(757.324219 0)"/>
     <use xlink:href="#MicrosoftYaHei-80de" transform="translate(857.324219 0)"/>
    </g>
   </g>
   <g id="text_16">
    <!-- 与抗原接触 -->
    <g style="fill: #333333" transform="translate(26.64 161.06788) scale(0.075 -0.075)">
     <defs>
      <path id="MicrosoftYaHei-Bold-4e0e" d="M 6138 3747 
L 2000 3747 
L 1956 3041 
L 5838 3041 
L 5738 541 
Q 5709 -169 5351 -453 
Q 4994 -738 4381 -741 
L 3031 -741 
Q 2956 -359 2813 166 
Q 3463 134 4081 134 
Q 4731 134 4784 526 
Q 4838 919 4863 2234 
L 969 2234 
L 1144 5272 
L 2094 5272 
L 2050 4566 
L 6138 4566 
L 6138 3747 
z
M 4456 766 
L 181 766 
L 181 1584 
L 4456 1584 
L 4456 766 
z
" transform="scale(0.015625)"/>
      <path id="MicrosoftYaHei-Bold-6297" d="M 2250 4466 
L 3716 4466 
L 3450 5109 
L 4356 5353 
L 4697 4466 
L 6025 4466 
L 6025 3672 
L 2250 3672 
L 2250 4466 
z
M 144 4153 
L 813 4153 
L 813 5303 
L 1613 5303 
L 1613 4153 
L 2125 4153 
L 2125 3353 
L 1613 3353 
L 1613 2616 
L 2225 2803 
Q 2194 2272 2200 1953 
L 1613 1769 
L 1613 -47 
Q 1613 -359 1472 -534 
Q 1331 -709 1050 -746 
Q 769 -784 300 -784 
Q 256 -366 156 66 
Q 341 47 509 47 
Q 688 47 750 114 
Q 813 181 813 347 
L 813 1509 
L 138 1284 
L 88 2184 
Q 366 2253 813 2378 
L 813 3353 
L 144 3353 
L 144 4153 
z
M 5650 1572 
Q 6050 1403 6306 1309 
Q 6272 716 6212 214 
Q 6153 -288 5954 -514 
Q 5756 -741 5375 -741 
L 5150 -741 
Q 4356 -741 4356 122 
L 4356 2316 
L 3563 2316 
Q 3563 2072 3536 1292 
Q 3509 513 3265 -18 
Q 3022 -550 2588 -859 
Q 2363 -603 1944 -197 
Q 2278 47 2456 398 
Q 2634 750 2676 1154 
Q 2719 1559 2719 3116 
L 5213 3116 
L 5213 259 
Q 5213 53 5350 53 
L 5406 53 
Q 5531 53 5570 259 
Q 5609 466 5650 1572 
z
" transform="scale(0.015625)"/>
      <path id="MicrosoftYaHei-Bold-539f" d="M 2450 1178 
L 3150 709 
Q 2894 375 2594 41 
Q 2922 9 3200 9 
Q 3525 9 3525 284 
L 3525 1253 
L 1950 1253 
L 1950 3872 
L 3006 3872 
Q 3106 4106 3184 4347 
L 1556 4347 
L 1556 2491 
Q 1556 216 775 -872 
Q 438 -528 69 -272 
Q 694 559 694 2603 
L 694 5078 
L 6250 5078 
L 6250 4347 
L 4106 4347 
Q 4003 4097 3888 3872 
L 5888 3872 
L 5888 1253 
L 4400 1253 
L 4400 34 
Q 4400 -344 4217 -547 
Q 4034 -750 3636 -767 
Q 3238 -784 2719 -778 
Q 2666 -359 2556 0 
Q 2266 -319 1938 -641 
L 1306 -84 
Q 1975 534 2450 1178 
z
M 5063 3234 
L 2775 3234 
L 2775 2853 
L 5063 2853 
L 5063 3234 
z
M 5063 1891 
L 5063 2278 
L 2775 2278 
L 2775 1891 
L 5063 1891 
z
M 5181 1203 
Q 5744 616 6325 -91 
L 5613 -609 
Q 5106 66 4531 759 
L 5181 1203 
z
" transform="scale(0.015625)"/>
      <path id="MicrosoftYaHei-Bold-63a5" d="M 6106 4059 
L 5156 4059 
L 5738 3828 
L 5344 3303 
L 6300 3303 
L 6300 2603 
L 3475 2603 
L 4150 2409 
L 3975 2097 
L 6238 2097 
L 6238 1397 
L 5609 1397 
Q 5406 831 5000 397 
L 6213 -103 
L 5794 -841 
Q 5016 -441 4353 -128 
Q 3528 -650 2238 -859 
Q 2075 -509 1844 -116 
Q 2806 -3 3463 275 
Q 2825 550 2331 716 
Q 2541 1047 2722 1397 
L 2075 1397 
L 2075 1631 
Q 1859 1600 1625 1556 
L 1625 3 
Q 1625 -359 1467 -556 
Q 1309 -753 1001 -779 
Q 694 -806 281 -816 
Q 225 -409 94 9 
Q 325 -3 503 -3 
Q 694 -3 753 59 
Q 813 122 813 291 
L 813 1403 
L 194 1272 
L 94 2166 
Q 394 2200 813 2259 
L 813 3347 
L 194 3347 
L 194 4147 
L 813 4147 
L 813 5303 
L 1625 5303 
L 1625 4147 
L 2156 4147 
L 2156 3347 
L 1625 3347 
L 1625 2384 
L 2119 2466 
Q 2109 2266 2109 2097 
L 3056 2097 
Q 3163 2344 3259 2603 
L 2081 2603 
L 2081 3303 
L 2969 3303 
Q 2784 3628 2650 3828 
L 3169 4059 
L 2300 4059 
L 2300 4759 
L 3688 4759 
Q 3597 4991 3500 5197 
L 4438 5353 
Q 4547 5091 4653 4759 
L 6106 4759 
L 6106 4059 
z
M 3931 3472 
L 3541 3303 
L 4391 3303 
Q 4700 3781 4850 4059 
L 3525 4059 
Q 3703 3819 3931 3472 
z
M 3375 1034 
L 4200 716 
Q 4544 1009 4709 1397 
L 3581 1397 
L 3375 1034 
z
" transform="scale(0.015625)"/>
      <path id="MicrosoftYaHei-Bold-89e6" d="M 1069 5359 
L 1825 5259 
Q 1747 5069 1659 4891 
L 2781 4891 
L 2781 4303 
L 2466 3734 
L 2988 3734 
L 2988 -9 
Q 2988 -372 2861 -569 
Q 2734 -766 2501 -806 
Q 2269 -847 1944 -847 
Q 1909 -656 1872 -472 
L 1394 -472 
L 1394 778 
L 1025 778 
Q 934 -347 669 -916 
Q 369 -616 56 -366 
Q 419 459 419 2241 
L 419 3119 
Q 359 3059 300 3003 
Q 225 3403 81 3872 
Q 719 4528 1069 5359 
z
M 953 3734 
L 1681 3734 
L 1981 4278 
L 1328 4278 
Q 1153 3994 953 3734 
z
M 2344 3134 
L 1988 3134 
L 1988 2541 
L 2344 2541 
L 2344 3134 
z
M 1075 2541 
L 1394 2541 
L 1394 3134 
L 1075 3134 
L 1075 2541 
z
M 1988 1366 
L 2344 1366 
L 2344 1953 
L 1988 1953 
L 1988 1366 
z
M 1059 1366 
L 1394 1366 
L 1394 1953 
L 1075 1953 
Q 1072 1644 1059 1366 
z
M 2344 778 
L 1988 778 
L 1988 -131 
Q 2213 -141 2278 -72 
Q 2344 -3 2344 197 
L 2344 778 
z
M 3244 4197 
L 4281 4197 
L 4281 5291 
L 5019 5291 
L 5019 4197 
L 6063 4197 
L 6063 1378 
L 5019 1378 
L 5019 300 
L 5413 338 
L 5244 934 
L 5825 1103 
Q 6144 122 6325 -647 
L 5713 -828 
L 5603 -381 
Q 4516 -488 3188 -653 
L 3069 166 
L 4281 241 
L 4281 1378 
L 3888 1378 
L 3888 1028 
L 3244 1028 
L 3244 4197 
z
M 5413 2078 
L 5413 3497 
L 5019 3497 
L 5019 2078 
L 5413 2078 
z
M 3888 2078 
L 4281 2078 
L 4281 3497 
L 3888 3497 
L 3888 2078 
z
" transform="scale(0.015625)"/>
     </defs>
     <use xlink:href="#MicrosoftYaHei-Bold-4e0e"/>
     <use xlink:href="#MicrosoftYaHei-Bold-6297" transform="translate(100 0)"/>
     <use xlink:href="#MicrosoftYaHei-Bold-539f" transform="translate(200 0)"/>
     <use xlink:href="#MicrosoftYaHei-Bold-63a5" transform="translate(300 0)"/>
     <use xlink:href="#MicrosoftYaHei-Bold-89e6" transform="translate(400 0)"/>
    </g>
   </g>
   <g id="text_17">
    <!-- 直接接触 -->
    <g style="fill: #333333" transform="translate(188.64 161.06788) scale(0.075 -0.075)">
     <defs>
      <path id="MicrosoftYaHei-76f4" d="M 119 -153 
L 969 -153 
L 969 3741 
L 2900 3741 
L 2900 4316 
L 244 4316 
L 244 4753 
L 2900 4753 
L 2900 5328 
L 3400 5328 
L 3400 4753 
L 6175 4753 
L 6175 4316 
L 3400 4316 
L 3400 3741 
L 5400 3741 
L 5400 -153 
L 6294 -153 
L 6294 -591 
L 119 -591 
L 119 -153 
z
M 1450 -153 
L 4919 -153 
L 4919 422 
L 1450 422 
L 1450 -153 
z
M 4919 3328 
L 1450 3328 
L 1450 2759 
L 4919 2759 
L 4919 3328 
z
M 1450 822 
L 4919 822 
L 4919 1391 
L 1450 1391 
L 1450 822 
z
M 1450 1791 
L 4919 1791 
L 4919 2359 
L 1450 2359 
L 1450 1791 
z
" transform="scale(0.015625)"/>
      <path id="MicrosoftYaHei-63a5" d="M 1800 -366 
Q 3019 -188 3784 222 
Q 3200 484 2531 772 
Q 2800 1119 3028 1466 
L 2000 1466 
L 2000 1884 
L 3291 1884 
Q 3491 2222 3656 2559 
L 4119 2366 
Q 3969 2116 3822 1884 
L 6225 1884 
L 6225 1466 
L 5403 1466 
Q 5156 778 4672 306 
Q 5469 -25 6219 -353 
L 5944 -816 
Q 5241 -444 4288 -3 
Q 3450 -572 2038 -841 
Q 1950 -634 1800 -366 
z
M 100 1966 
Q 544 2088 963 2213 
L 963 3641 
L 175 3641 
L 175 4091 
L 963 4091 
L 963 5259 
L 1425 5259 
L 1425 4091 
L 2144 4091 
L 2144 3641 
L 1425 3641 
L 1425 2356 
Q 1722 2450 2006 2547 
Q 2013 2266 2044 2059 
Q 1722 1956 1425 1856 
L 1425 -72 
Q 1425 -747 819 -753 
Q 588 -759 231 -747 
Q 206 -491 156 -228 
Q 531 -266 688 -266 
Q 963 -266 963 66 
L 963 1703 
Q 534 1559 163 1428 
L 100 1966 
z
M 2019 3072 
L 4453 3072 
Q 4850 3622 5156 4103 
L 5625 3847 
Q 5300 3456 4966 3072 
L 6269 3072 
L 6269 2653 
L 2019 2653 
L 2019 3072 
z
M 2263 4591 
L 4028 4591 
Q 3881 4875 3719 5153 
L 4138 5347 
Q 4338 5009 4519 4666 
L 4359 4591 
L 6119 4591 
L 6119 4172 
L 2263 4172 
L 2263 4591 
z
M 3181 909 
Q 3703 703 4203 497 
Q 4694 894 4900 1466 
L 3553 1466 
Q 3363 1175 3181 909 
z
M 2825 3853 
L 3188 4097 
Q 3481 3753 3756 3372 
L 3356 3103 
Q 3119 3491 2825 3853 
z
" transform="scale(0.015625)"/>
      <path id="MicrosoftYaHei-89e6" d="M 75 3541 
Q 694 4309 1150 5341 
L 1588 5222 
Q 1475 4972 1356 4741 
L 2575 4741 
L 2575 4359 
L 2094 3666 
L 2888 3666 
L 2888 -128 
Q 2888 -759 2238 -759 
Q 2006 -759 1706 -747 
Q 1681 -547 1638 -328 
Q 1938 -359 2150 -359 
Q 2481 -359 2481 -72 
L 2481 928 
L 1881 928 
L 1881 -266 
L 1475 -266 
L 1475 928 
L 900 928 
Q 850 -297 425 -872 
Q 281 -709 75 -553 
Q 500 16 500 1278 
L 500 3378 
Q 438 3303 381 3228 
Q 256 3372 75 3541 
z
M 5219 809 
L 5600 978 
Q 5994 216 6319 -622 
L 5875 -822 
Q 5775 -528 5669 -247 
Q 4394 -397 3119 -566 
L 3063 -78 
Q 3713 -28 4456 34 
L 4456 1616 
L 3763 1616 
L 3763 1303 
L 3338 1303 
L 3338 4053 
L 4456 4053 
L 4456 5259 
L 4894 5259 
L 4894 4053 
L 6013 4053 
L 6013 1616 
L 4894 1616 
L 4894 78 
Q 5194 109 5513 147 
Q 5369 484 5219 809 
z
M 3763 2016 
L 4456 2016 
L 4456 3653 
L 3763 3653 
L 3763 2016 
z
M 5588 3653 
L 4894 3653 
L 4894 2016 
L 5588 2016 
L 5588 3653 
z
M 706 3666 
L 1594 3666 
L 2063 4366 
L 1150 4366 
Q 944 3997 706 3666 
z
M 1881 1297 
L 2481 1297 
L 2481 2116 
L 1881 2116 
L 1881 1297 
z
M 2481 3297 
L 1881 3297 
L 1881 2484 
L 2481 2484 
L 2481 3297 
z
M 906 1297 
L 1475 1297 
L 1475 2116 
L 906 2116 
L 906 1297 
z
M 906 2484 
L 1475 2484 
L 1475 3297 
L 906 3297 
L 906 2484 
z
" transform="scale(0.015625)"/>
     </defs>
     <use xlink:href="#MicrosoftYaHei-76f4"/>
     <use xlink:href="#MicrosoftYaHei-63a5" transform="translate(100 0)"/>
     <use xlink:href="#MicrosoftYaHei-63a5" transform="translate(200 0)"/>
     <use xlink:href="#MicrosoftYaHei-89e6" transform="translate(300 0)"/>
    </g>
   </g>
   <g id="text_18">
    <!-- 需APC提呈 -->
    <g style="fill: #333333" transform="translate(350.64 161.06788) scale(0.075 -0.075)">
     <defs>
      <path id="MicrosoftYaHei-9700" d="M 1188 -822 
L 713 -822 
L 713 1228 
L 2750 1228 
L 2853 1716 
L 125 1716 
L 125 2103 
L 6275 2103 
L 6275 1716 
L 3338 1716 
L 3213 1228 
L 5719 1228 
L 5719 -172 
Q 5719 -791 5100 -791 
Q 4800 -791 4444 -778 
Q 4425 -572 4356 -297 
Q 4725 -334 4963 -334 
Q 5244 -334 5244 -84 
L 5244 841 
L 4169 841 
L 4169 -647 
L 3725 -647 
L 3725 841 
L 2688 841 
L 2688 -647 
L 2244 -647 
L 2244 841 
L 1188 841 
L 1188 -822 
z
M 338 4266 
L 2975 4266 
L 2975 4628 
L 650 4628 
L 650 5016 
L 5700 5016 
L 5700 4628 
L 3419 4628 
L 3419 4266 
L 6063 4266 
L 6063 3103 
L 5581 3103 
L 5581 3878 
L 3419 3878 
L 3419 2391 
L 2975 2391 
L 2975 3878 
L 819 3878 
L 819 3103 
L 338 3103 
L 338 4266 
z
M 3750 2816 
L 5219 2816 
L 5219 2478 
L 3750 2478 
L 3750 2816 
z
M 1175 3516 
L 2644 3516 
L 2644 3178 
L 1175 3178 
L 1175 3516 
z
M 1175 2816 
L 2644 2816 
L 2644 2478 
L 1175 2478 
L 1175 2816 
z
M 3750 3516 
L 5219 3516 
L 5219 3178 
L 3750 3178 
L 3750 3516 
z
" transform="scale(0.015625)"/>
      <path id="MicrosoftYaHei-41" d="M 4428 0 
L 3738 0 
L 3244 1325 
L 1228 1325 
L 763 0 
L 72 0 
L 1916 4841 
L 2584 4841 
L 4428 0 
z
M 3050 1872 
L 2319 3884 
Q 2284 3981 2244 4222 
L 2228 4222 
Q 2194 4003 2150 3884 
L 1425 1872 
L 3050 1872 
z
" transform="scale(0.015625)"/>
      <path id="MicrosoftYaHei-50" d="M 1250 1809 
L 1250 0 
L 625 0 
L 625 4841 
L 2000 4841 
Q 2784 4841 3217 4462 
Q 3650 4084 3650 3381 
Q 3650 2669 3144 2226 
Q 2638 1784 1878 1809 
L 1250 1809 
z
M 1250 4291 
L 1250 2359 
L 1828 2359 
Q 2400 2359 2697 2617 
Q 2994 2875 2994 3356 
Q 2994 4291 1888 4291 
L 1250 4291 
z
" transform="scale(0.015625)"/>
      <path id="MicrosoftYaHei-43" d="M 3938 200 
Q 3403 -81 2597 -81 
Q 1556 -81 934 580 
Q 313 1241 313 2328 
Q 313 3497 1013 4209 
Q 1713 4922 2791 4922 
Q 3484 4922 3938 4725 
L 3938 4072 
Q 3419 4359 2797 4359 
Q 1988 4359 1478 3820 
Q 969 3281 969 2366 
Q 969 1497 1444 986 
Q 1919 475 2688 475 
Q 3406 475 3938 800 
L 3938 200 
z
" transform="scale(0.015625)"/>
      <path id="MicrosoftYaHei-63d0" d="M 2569 5041 
L 5688 5041 
L 5688 2572 
L 5238 2572 
L 5238 2753 
L 3019 2753 
L 3019 2572 
L 2569 2572 
L 2569 5041 
z
M 1594 -559 
Q 2475 178 2581 1553 
L 3050 1553 
Q 3019 1116 2922 734 
Q 3319 128 3956 -84 
L 3956 1797 
L 2025 1797 
L 2025 2209 
L 6238 2209 
L 6238 1797 
L 4425 1797 
L 4425 1097 
L 5994 1097 
L 5994 697 
L 4425 697 
L 4425 -184 
Q 4850 -234 6313 -178 
Q 6300 -209 6169 -641 
Q 5425 -659 4625 -622 
Q 3363 -606 2769 266 
Q 2506 -388 2006 -853 
Q 1819 -697 1594 -559 
z
M 81 2003 
Q 481 2175 888 2366 
L 888 3697 
L 131 3697 
L 131 4122 
L 888 4122 
L 888 5284 
L 1363 5284 
L 1363 4122 
L 2163 4122 
L 2163 3697 
L 1363 3697 
L 1363 2597 
Q 1722 2775 2081 2972 
Q 2100 2728 2131 2472 
Q 1747 2281 1363 2088 
L 1363 -91 
Q 1363 -697 900 -747 
Q 575 -778 169 -766 
Q 131 -503 88 -247 
Q 431 -284 675 -284 
Q 888 -284 888 -53 
L 888 1844 
Q 513 1650 144 1453 
L 81 2003 
z
M 3019 3153 
L 5238 3153 
L 5238 3703 
L 3019 3703 
L 3019 3153 
z
M 5238 4641 
L 3019 4641 
L 3019 4097 
L 5238 4097 
L 5238 4641 
z
" transform="scale(0.015625)"/>
      <path id="MicrosoftYaHei-5448" d="M 950 4997 
L 5450 4997 
L 5450 2809 
L 4963 2809 
L 4963 3091 
L 1438 3091 
L 1438 2809 
L 950 2809 
L 950 4997 
z
M 225 -153 
L 2963 -153 
L 2963 759 
L 869 759 
L 869 1191 
L 2963 1191 
L 2963 2022 
L 500 2022 
L 500 2453 
L 5938 2453 
L 5938 2022 
L 3463 2022 
L 3463 1191 
L 5581 1191 
L 5581 759 
L 3463 759 
L 3463 -153 
L 6213 -153 
L 6213 -584 
L 225 -584 
L 225 -153 
z
M 4963 4566 
L 1438 4566 
L 1438 3522 
L 4963 3522 
L 4963 4566 
z
" transform="scale(0.015625)"/>
     </defs>
     <use xlink:href="#MicrosoftYaHei-9700"/>
     <use xlink:href="#MicrosoftYaHei-41" transform="translate(100 0)"/>
     <use xlink:href="#MicrosoftYaHei-50" transform="translate(170.361328 0)"/>
     <use xlink:href="#MicrosoftYaHei-43" transform="translate(231.542969 0)"/>
     <use xlink:href="#MicrosoftYaHei-63d0" transform="translate(298.4375 0)"/>
     <use xlink:href="#MicrosoftYaHei-5448" transform="translate(398.4375 0)"/>
    </g>
   </g>
   <g id="text_19">
    <!-- 记忆细胞 -->
    <g style="fill: #333333" transform="translate(26.64 182.32228) scale(0.075 -0.075)">
     <defs>
      <path id="MicrosoftYaHei-Bold-8bb0" d="M 1213 5291 
Q 1619 4766 2050 4134 
Q 1750 3959 1238 3628 
Q 863 4316 481 4859 
L 1213 5291 
z
M 5400 1422 
Q 5800 1278 6319 1134 
Q 6153 144 6043 -109 
Q 5934 -363 5681 -492 
Q 5428 -622 5031 -622 
L 3469 -622 
Q 2550 -622 2550 409 
L 2550 3009 
L 4944 3009 
L 4944 4191 
L 2438 4191 
L 2438 4991 
L 5844 4991 
L 5844 2209 
L 3450 2209 
L 3450 578 
Q 3450 166 3863 166 
L 4794 166 
Q 5109 166 5215 352 
Q 5322 538 5400 1422 
z
M 2244 1259 
Q 2306 666 2388 322 
Q 1456 -359 1044 -778 
L 594 -159 
Q 731 3 738 353 
L 738 2403 
L 125 2403 
L 125 3247 
L 1594 3247 
L 1594 753 
Q 1781 884 2244 1259 
z
" transform="scale(0.015625)"/>
      <path id="MicrosoftYaHei-Bold-5fc6" d="M 981 5303 
L 1775 5303 
L 1775 4213 
Q 2288 3894 2763 3553 
L 2363 2891 
Q 2094 3128 1775 3381 
L 1775 -859 
L 981 -859 
L 981 5303 
z
M 5931 4928 
L 5931 4097 
Q 4875 3044 4248 2350 
Q 3622 1656 3355 1272 
Q 3088 888 3088 669 
Q 3088 178 3775 184 
L 4738 184 
Q 5041 184 5203 312 
Q 5366 441 5417 803 
Q 5469 1166 5513 1728 
L 6319 1391 
Q 6244 747 6128 223 
Q 6013 -300 5648 -454 
Q 5284 -609 4769 -609 
L 3444 -609 
Q 2172 -609 2172 566 
Q 2172 931 2426 1381 
Q 2681 1831 3257 2509 
Q 3834 3188 4750 4091 
L 2413 4091 
L 2413 4928 
L 5931 4928 
z
M 44 2253 
Q 231 3166 350 4178 
L 919 4097 
Q 775 3022 600 2153 
Q 319 2222 44 2253 
z
" transform="scale(0.015625)"/>
     </defs>
     <use xlink:href="#MicrosoftYaHei-Bold-8bb0"/>
     <use xlink:href="#MicrosoftYaHei-Bold-5fc6" transform="translate(100 0)"/>
     <use xlink:href="#MicrosoftYaHei-Bold-7ec6" transform="translate(200 0)"/>
     <use xlink:href="#MicrosoftYaHei-Bold-80de" transform="translate(300 0)"/>
    </g>
   </g>
   <g id="text_20">
    <!-- 记忆B细胞 -->
    <g style="fill: #333333" transform="translate(188.64 182.32228) scale(0.075 -0.075)">
     <defs>
      <path id="MicrosoftYaHei-8bb0" d="M 2975 2466 
L 2975 341 
Q 2975 -128 3425 -128 
L 5019 -128 
Q 5588 -128 5663 291 
Q 5731 628 5794 1266 
Q 6063 1159 6319 1084 
Q 6238 503 6138 72 
Q 6000 -603 5125 -603 
L 3250 -603 
Q 2488 -603 2488 197 
L 2488 2928 
L 5375 2928 
L 5375 4534 
L 2225 4534 
L 2225 4997 
L 5863 4997 
L 5863 2166 
L 5375 2166 
L 5375 2466 
L 2975 2466 
z
M 2206 716 
Q 2225 391 2250 178 
Q 1438 -366 994 -722 
L 700 -303 
Q 913 -141 913 259 
L 913 2703 
L 100 2703 
L 100 3166 
L 1400 3166 
L 1400 147 
Q 1775 403 2206 716 
z
M 806 5222 
Q 1488 4522 1794 4184 
L 1356 3816 
Q 963 4334 425 4891 
L 806 5222 
z
" transform="scale(0.015625)"/>
      <path id="MicrosoftYaHei-5fc6" d="M 1038 5259 
L 1531 5259 
L 1531 3947 
L 1769 4134 
Q 2200 3703 2563 3228 
L 2188 2922 
Q 1881 3397 1531 3772 
L 1531 -847 
L 1038 -847 
L 1038 5259 
z
M 381 3816 
L 819 3753 
Q 700 2903 531 2153 
Q 344 2203 88 2253 
Q 263 2903 381 3816 
z
M 5794 1628 
Q 5950 1553 6319 1441 
Q 6269 772 6175 234 
Q 6044 -547 5119 -566 
Q 4075 -603 3181 -566 
Q 2363 -522 2194 -34 
Q 2038 453 2581 1241 
Q 3350 2334 5131 4322 
L 2350 4322 
L 2350 4797 
L 5769 4797 
L 5769 4278 
Q 4069 2409 3150 1153 
Q 2625 422 2681 172 
Q 2731 -78 3369 -91 
Q 4131 -122 5025 -84 
Q 5594 -66 5675 422 
Q 5750 816 5794 1628 
z
" transform="scale(0.015625)"/>
     </defs>
     <use xlink:href="#MicrosoftYaHei-8bb0"/>
     <use xlink:href="#MicrosoftYaHei-5fc6" transform="translate(100 0)"/>
     <use xlink:href="#MicrosoftYaHei-42" transform="translate(200 0)"/>
     <use xlink:href="#MicrosoftYaHei-7ec6" transform="translate(262.744141 0)"/>
     <use xlink:href="#MicrosoftYaHei-80de" transform="translate(362.744141 0)"/>
    </g>
   </g>
   <g id="text_21">
    <!-- 记忆T细胞 -->
    <g style="fill: #333333" transform="translate(350.64 182.32228) scale(0.075 -0.075)">
     <use xlink:href="#MicrosoftYaHei-8bb0"/>
     <use xlink:href="#MicrosoftYaHei-5fc6" transform="translate(100 0)"/>
     <use xlink:href="#MicrosoftYaHei-54" transform="translate(200 0)"/>
     <use xlink:href="#MicrosoftYaHei-7ec6" transform="translate(257.324219 0)"/>
     <use xlink:href="#MicrosoftYaHei-80de" transform="translate(357.324219 0)"/>
    </g>
   </g>
   <g id="text_22">
    <!-- 相互关系 -->
    <g style="fill: #c0392b" transform="translate(26.64 206.23445) scale(0.09 -0.09)">
     <defs>
      <path id="MicrosoftYaHei-Bold-76f8" d="M 75 1559 
Q 663 2469 916 3297 
L 138 3297 
L 138 4116 
L 938 4116 
L 938 5272 
L 1763 5272 
L 1763 4116 
L 2456 4116 
L 2456 3297 
L 1763 3297 
L 1763 2741 
Q 2194 2503 2569 2266 
L 2200 1553 
Q 1988 1722 1763 1888 
L 1763 -834 
L 938 -834 
L 938 1641 
Q 672 1034 306 459 
Q 194 1047 75 1559 
z
M 2625 4966 
L 6050 4966 
L 6050 -859 
L 5188 -859 
L 5188 -547 
L 3488 -547 
L 3488 -859 
L 2625 -859 
L 2625 4966 
z
M 5188 4166 
L 3488 4166 
L 3488 3391 
L 5188 3391 
L 5188 4166 
z
M 3488 1828 
L 5188 1828 
L 5188 2603 
L 3488 2603 
L 3488 1828 
z
M 3488 253 
L 5188 253 
L 5188 1041 
L 3488 1041 
L 3488 253 
z
" transform="scale(0.015625)"/>
      <path id="MicrosoftYaHei-Bold-4e92" d="M 144 247 
L 4313 247 
L 4359 903 
L 794 903 
L 1234 4134 
L 325 4134 
L 325 4934 
L 6094 4934 
L 6094 4134 
L 2166 4134 
L 2072 3497 
L 5475 3497 
L 5244 247 
L 6269 247 
L 6269 -553 
L 144 -553 
L 144 247 
z
M 4494 2709 
L 1959 2709 
L 1813 1691 
L 4419 1691 
L 4494 2709 
z
" transform="scale(0.015625)"/>
      <path id="MicrosoftYaHei-Bold-5173" d="M 156 2459 
L 2725 2459 
Q 2725 2491 2741 3266 
L 481 3266 
L 481 4066 
L 1834 4066 
Q 1475 4538 1219 4841 
L 1925 5341 
Q 2188 5053 2813 4347 
L 2406 4066 
L 3488 4066 
Q 3975 4731 4331 5341 
L 5231 4872 
L 4550 4066 
L 5938 4066 
L 5938 3266 
L 3672 3266 
Q 3672 3009 3666 2459 
L 6250 2459 
L 6250 1659 
L 3819 1659 
Q 4416 441 6300 72 
Q 5856 -503 5663 -797 
Q 3906 -300 3203 1031 
Q 2600 -128 781 -866 
Q 488 -509 94 -72 
Q 2059 541 2556 1659 
L 156 1659 
L 156 2459 
z
" transform="scale(0.015625)"/>
      <path id="MicrosoftYaHei-Bold-7cfb" d="M 344 4916 
Q 3406 4903 5900 5159 
L 6025 4472 
Q 4769 4353 3397 4278 
Q 2747 3884 2019 3528 
L 4084 3622 
Q 4550 3884 5038 4178 
L 5625 3591 
Q 3875 2622 1900 1878 
Q 3247 1938 4613 2034 
Q 4372 2272 4156 2466 
L 4738 2934 
Q 5219 2516 6263 1466 
L 5669 922 
Q 5447 1169 5241 1388 
L 3731 1328 
L 3731 -141 
Q 3731 -456 3547 -622 
Q 3363 -788 2984 -802 
Q 2606 -816 1975 -816 
Q 1919 -359 1813 34 
Q 2119 9 2466 9 
Q 2719 9 2800 65 
Q 2881 122 2881 278 
L 2881 1288 
Q 1481 1216 738 1128 
L 519 1903 
Q 1575 2303 2803 2931 
Q 1563 2856 888 2759 
L 656 3522 
Q 1338 3775 2075 4213 
L 481 4166 
Q 438 4522 344 4916 
z
M 4738 1153 
Q 5431 678 6294 -3 
L 5719 -603 
Q 5050 -28 4213 603 
L 4738 1153 
z
M 1569 1091 
L 2200 534 
Q 1494 -128 656 -678 
Q 369 -309 88 -9 
Q 894 447 1569 1091 
z
" transform="scale(0.015625)"/>
     </defs>
     <use xlink:href="#MicrosoftYaHei-Bold-76f8"/>
     <use xlink:href="#MicrosoftYaHei-Bold-4e92" transform="translate(100 0)"/>
     <use xlink:href="#MicrosoftYaHei-Bold-5173" transform="translate(200 0)"/>
     <use xlink:href="#MicrosoftYaHei-Bold-7cfb" transform="translate(300 0)"/>
    </g>
   </g>
   <g id="text_23">
    <!-- 相互配合, 共同清除病原体 -->
    <g style="fill: #c0392b" transform="translate(188.64 206.23445) scale(0.09 -0.09)">
     <defs>
      <path id="MicrosoftYaHei-Bold-914d" d="M 163 5009 
L 3406 5009 
L 3406 4297 
L 2519 4297 
L 2519 3753 
L 3325 3753 
L 3325 -797 
L 2663 -797 
L 2663 -391 
L 994 -391 
L 994 -784 
L 331 -784 
L 331 3753 
L 1138 3753 
L 1138 4297 
L 163 4297 
L 163 5009 
z
M 1700 3753 
L 1981 3753 
L 1981 4297 
L 1700 4297 
L 1700 3753 
z
M 1350 1397 
Q 1166 1556 994 1694 
L 994 1266 
L 2663 1266 
L 2663 1634 
L 2531 1634 
Q 1981 1634 1981 2197 
L 1981 3097 
L 1697 3097 
Q 1672 1950 1350 1397 
z
M 2738 2159 
L 2781 2159 
L 2781 3097 
L 2519 3097 
L 2519 2397 
Q 2519 2159 2738 2159 
z
M 888 1941 
Q 1131 2303 1131 3097 
L 888 3097 
L 888 1941 
z
M 994 259 
L 2663 259 
L 2663 647 
L 994 647 
L 994 259 
z
M 5538 1334 
Q 5819 1209 6331 1047 
Q 6209 119 6125 -164 
Q 6041 -447 5842 -578 
Q 5644 -709 5325 -709 
L 4513 -709 
Q 3713 -709 3713 153 
L 3713 3003 
L 5188 3003 
L 5188 4184 
L 3619 4184 
L 3619 4984 
L 6000 4984 
L 6000 2203 
L 4519 2203 
L 4519 359 
Q 4519 78 4788 78 
L 5081 78 
Q 5316 78 5394 250 
Q 5472 422 5538 1334 
z
" transform="scale(0.015625)"/>
      <path id="MicrosoftYaHei-Bold-5408" d="M 875 -872 
L 875 2028 
L 5525 2028 
L 5525 -872 
L 4675 -872 
L 4675 -584 
L 1725 -584 
L 1725 -872 
L 875 -872 
z
M 3988 5316 
L 3763 5041 
Q 4619 3947 6306 3228 
Q 5975 2809 5738 2484 
Q 5338 2672 4975 2897 
L 4975 2553 
L 1425 2553 
L 1425 2922 
Q 1063 2684 644 2441 
Q 388 2828 88 3178 
Q 2031 4178 2800 5316 
L 3988 5316 
z
M 4675 1216 
L 1725 1216 
L 1725 228 
L 4675 228 
L 4675 1216 
z
M 3194 4409 
Q 2756 3891 2031 3353 
L 4313 3353 
Q 3694 3822 3194 4409 
z
" transform="scale(0.015625)"/>
      <path id="MicrosoftYaHei-Bold-2c" d="M 1419 841 
L 916 -859 
L 134 -859 
L 484 841 
L 1419 841 
z
" transform="scale(0.015625)"/>
      <path id="MicrosoftYaHei-Bold-20" transform="scale(0.015625)"/>
      <path id="MicrosoftYaHei-Bold-5171" d="M 138 2028 
L 1513 2028 
L 1513 3428 
L 338 3428 
L 338 4228 
L 1513 4228 
L 1513 5316 
L 2413 5316 
L 2413 4228 
L 3988 4228 
L 3988 5316 
L 4888 5316 
L 4888 4228 
L 6069 4228 
L 6069 3428 
L 4888 3428 
L 4888 2028 
L 6263 2028 
L 6263 1228 
L 138 1228 
L 138 2028 
z
M 2413 2028 
L 3988 2028 
L 3988 3428 
L 2413 3428 
L 2413 2028 
z
M 4188 1141 
Q 5356 497 6300 -84 
L 5725 -822 
Q 4894 -234 3675 509 
L 4188 1141 
z
M 2150 1103 
L 2763 459 
Q 1650 -272 606 -853 
Q 381 -491 94 -109 
Q 1081 359 2150 1103 
z
" transform="scale(0.015625)"/>
      <path id="MicrosoftYaHei-Bold-540c" d="M 381 5078 
L 6019 5078 
L 6019 291 
Q 6019 -253 5776 -523 
Q 5534 -794 5107 -801 
Q 4681 -809 4075 -809 
Q 3981 -309 3881 59 
Q 4272 19 4597 19 
Q 4847 19 4950 45 
Q 5053 72 5117 165 
Q 5181 259 5181 416 
L 5181 4297 
L 1219 4297 
L 1219 -797 
L 381 -797 
L 381 5078 
z
M 4875 3078 
L 1525 3078 
L 1525 3791 
L 4875 3791 
L 4875 3078 
z
M 1738 2591 
L 4638 2591 
L 4638 403 
L 2550 403 
L 2550 3 
L 1738 3 
L 1738 2591 
z
M 3825 1103 
L 3825 1891 
L 2550 1891 
L 2550 1103 
L 3825 1103 
z
" transform="scale(0.015625)"/>
      <path id="MicrosoftYaHei-Bold-6e05" d="M 1656 3209 
L 3500 3209 
L 3500 3478 
L 2000 3478 
L 2000 4016 
L 3500 4016 
L 3500 4284 
L 1856 4284 
L 1856 4822 
L 3500 4822 
L 3500 5322 
L 4394 5322 
L 4394 4822 
L 6150 4822 
L 6150 4284 
L 4394 4284 
L 4394 4016 
L 5981 4016 
L 5981 3478 
L 4394 3478 
L 4394 3209 
L 6300 3209 
L 6300 2672 
L 1656 2672 
L 1656 3209 
z
M 775 5253 
Q 1288 4897 1800 4484 
L 1219 3853 
Q 763 4303 256 4709 
L 775 5253 
z
M 600 3622 
Q 1100 3253 1588 2834 
L 1025 2159 
Q 531 2628 88 3028 
L 600 3622 
z
M 2888 -803 
L 2050 -803 
L 2050 2422 
L 5913 2422 
L 5913 -22 
Q 5913 -366 5739 -556 
Q 5566 -747 5264 -781 
Q 4963 -816 3969 -816 
Q 3881 -466 3781 -153 
Q 4444 -184 4775 -184 
Q 5075 -184 5075 109 
L 5075 203 
L 2888 203 
L 2888 -803 
z
M 5075 1841 
L 2888 1841 
L 2888 1528 
L 5075 1528 
L 5075 1841 
z
M 2888 722 
L 5075 722 
L 5075 1009 
L 2888 1009 
L 2888 722 
z
M 838 1834 
Q 1263 1659 1644 1541 
L 1050 -822 
Q 638 -678 225 -566 
Q 550 472 838 1834 
z
" transform="scale(0.015625)"/>
      <path id="MicrosoftYaHei-Bold-9664" d="M 4675 5303 
L 4588 5116 
Q 5269 4066 6313 3616 
Q 6131 3209 6013 2766 
Q 5719 2909 5463 3091 
L 5463 2716 
L 4606 2716 
L 4606 2166 
L 6063 2166 
L 6063 1466 
L 4606 1466 
L 4606 -22 
Q 4606 -753 3925 -803 
Q 3694 -828 3156 -828 
Q 3106 -372 2988 41 
Q 2794 -272 2563 -603 
Q 2281 -378 1863 -166 
Q 2431 503 2756 1259 
L 3475 941 
Q 3275 509 2994 53 
Q 3250 16 3400 16 
Q 3775 16 3775 409 
L 3775 1466 
L 2438 1466 
L 2438 2166 
L 3775 2166 
L 3775 2716 
L 2888 2716 
L 2888 3003 
Q 2681 2841 2463 2691 
Q 2275 3053 2044 3391 
Q 1931 3041 1825 2728 
Q 2331 2116 2331 1309 
Q 2331 766 2094 528 
Q 1844 272 1225 272 
Q 1188 659 1075 1141 
Q 1213 1109 1300 1109 
Q 1569 1109 1569 1491 
Q 1569 2097 1094 2659 
Q 1363 3528 1538 4316 
L 1063 4316 
L 1063 -841 
L 331 -841 
L 331 5034 
L 2363 5034 
L 2363 4441 
Q 2213 3941 2075 3497 
Q 3194 4128 3825 5303 
L 4675 5303 
z
M 5431 1259 
Q 5856 666 6319 -153 
L 5594 -547 
Q 5188 247 4756 884 
L 5431 1259 
z
M 4175 4409 
Q 3825 3878 3350 3416 
L 5044 3416 
Q 4538 3866 4175 4409 
z
" transform="scale(0.015625)"/>
      <path id="MicrosoftYaHei-Bold-75c5" d="M 3094 5284 
L 4125 5366 
L 4244 4853 
L 6300 4853 
L 6300 4116 
L 1756 4116 
L 1756 2491 
Q 1756 981 1429 176 
Q 1103 -628 888 -872 
Q 463 -409 200 -216 
Q 728 391 891 1381 
Q 566 1175 256 991 
L 75 1928 
Q 478 2113 959 2400 
L 956 2825 
L 381 2659 
Q 219 3728 119 4191 
L 675 4353 
Q 866 3503 956 2981 
L 956 4853 
L 3203 4853 
L 3094 5284 
z
M 2800 -816 
L 2025 -816 
L 2025 2522 
L 3672 2522 
Q 3700 2759 3703 3016 
L 2000 3016 
L 2000 3728 
L 6200 3728 
L 6200 3016 
L 4534 3016 
Q 4528 2766 4506 2522 
L 6069 2522 
L 6069 72 
Q 6069 -306 5876 -525 
Q 5684 -744 5311 -794 
Q 4938 -844 4194 -834 
Q 4075 -284 3994 -9 
Q 4253 -28 4650 -28 
L 4822 -31 
Q 5063 -31 5177 64 
Q 5291 159 5294 359 
L 5294 759 
L 4850 297 
Q 4509 675 4100 1084 
Q 3803 534 3306 103 
Q 3044 369 2800 591 
L 2800 -816 
z
M 3538 1859 
L 2800 1859 
L 2800 763 
Q 3316 1169 3538 1859 
z
M 4363 1716 
Q 4825 1366 5294 975 
L 5294 1859 
L 4403 1859 
Q 4384 1788 4363 1716 
z
" transform="scale(0.015625)"/>
     </defs>
     <use xlink:href="#MicrosoftYaHei-Bold-76f8"/>
     <use xlink:href="#MicrosoftYaHei-Bold-4e92" transform="translate(100 0)"/>
     <use xlink:href="#MicrosoftYaHei-Bold-914d" transform="translate(200 0)"/>
     <use xlink:href="#MicrosoftYaHei-Bold-5408" transform="translate(300 0)"/>
     <use xlink:href="#MicrosoftYaHei-Bold-2c" transform="translate(400 0)"/>
     <use xlink:href="#MicrosoftYaHei-Bold-20" transform="translate(428.564453 0)"/>
     <use xlink:href="#MicrosoftYaHei-Bold-5171" transform="translate(458.349609 0)"/>
     <use xlink:href="#MicrosoftYaHei-Bold-540c" transform="translate(558.349609 0)"/>
     <use xlink:href="#MicrosoftYaHei-Bold-6e05" transform="translate(658.349609 0)"/>
     <use xlink:href="#MicrosoftYaHei-Bold-9664" transform="translate(758.349609 0)"/>
     <use xlink:href="#MicrosoftYaHei-Bold-75c5" transform="translate(858.349609 0)"/>
     <use xlink:href="#MicrosoftYaHei-Bold-539f" transform="translate(958.349609 0)"/>
     <use xlink:href="#MicrosoftYaHei-Bold-4f53" transform="translate(1058.349609 0)"/>
    </g>
   </g>
   <g id="text_24">
    <!-- 体液免疫 vs 细胞免疫对比 -->
    <g style="fill: #1a1a2e" transform="translate(184.735156 18.39125) scale(0.14 -0.14)">
     <defs>
      <path id="MicrosoftYaHei-Bold-76" d="M 3688 3456 
L 2391 0 
L 1250 0 
L 16 3456 
L 1097 3456 
L 1731 1281 
Q 1834 925 1847 684 
L 1863 684 
Q 1888 931 1984 1263 
L 2631 3456 
L 3688 3456 
z
" transform="scale(0.015625)"/>
      <path id="MicrosoftYaHei-Bold-73" d="M 369 928 
Q 888 613 1384 613 
Q 2009 613 2009 947 
Q 2009 1184 1494 1344 
Q 850 1544 609 1789 
Q 369 2034 369 2453 
Q 369 2963 781 3252 
Q 1194 3541 1863 3541 
Q 2338 3541 2778 3400 
L 2778 2606 
Q 2375 2844 1891 2844 
Q 1650 2844 1503 2758 
Q 1356 2672 1356 2531 
Q 1356 2294 1794 2147 
Q 2263 1991 2498 1862 
Q 2734 1734 2857 1525 
Q 2981 1316 2981 1041 
Q 2981 506 2553 211 
Q 2125 -84 1409 -84 
Q 847 -84 369 94 
L 369 928 
z
" transform="scale(0.015625)"/>
     </defs>
     <use xlink:href="#MicrosoftYaHei-Bold-4f53"/>
     <use xlink:href="#MicrosoftYaHei-Bold-6db2" transform="translate(100 0)"/>
     <use xlink:href="#MicrosoftYaHei-Bold-514d" transform="translate(200 0)"/>
     <use xlink:href="#MicrosoftYaHei-Bold-75ab" transform="translate(300 0)"/>
     <use xlink:href="#MicrosoftYaHei-Bold-20" transform="translate(400 0)"/>
     <use xlink:href="#MicrosoftYaHei-Bold-76" transform="translate(429.785156 0)"/>
     <use xlink:href="#MicrosoftYaHei-Bold-73" transform="translate(487.5 0)"/>
     <use xlink:href="#MicrosoftYaHei-Bold-20" transform="translate(536.865234 0)"/>
     <use xlink:href="#MicrosoftYaHei-Bold-7ec6" transform="translate(566.650391 0)"/>
     <use xlink:href="#MicrosoftYaHei-Bold-80de" transform="translate(666.650391 0)"/>
     <use xlink:href="#MicrosoftYaHei-Bold-514d" transform="translate(766.650391 0)"/>
     <use xlink:href="#MicrosoftYaHei-Bold-75ab" transform="translate(866.650391 0)"/>
     <use xlink:href="#MicrosoftYaHei-Bold-5bf9" transform="translate(966.650391 0)"/>
     <use xlink:href="#MicrosoftYaHei-Bold-6bd4" transform="translate(1066.650391 0)"/>
    </g>
   </g>
  </g>
 </g>
 <defs>
  <clipPath id="pefd0d322d4">
   <rect x="7.2" y="24.39125" width="518.4" height="236.16"/>
  </clipPath>
 </defs>
</svg>
