<?xml version="1.0" encoding="utf-8" standalone="no"?>
<!DOCTYPE svg PUBLIC "-//W3C//DTD SVG 1.1//EN"
  "http://www.w3.org/Graphics/SVG/1.1/DTD/svg11.dtd">
<svg xmlns:xlink="http://www.w3.org/1999/xlink" width="492.48pt" height="239.823281pt" viewBox="0 0 492.48 239.823281" xmlns="http://www.w3.org/2000/svg" version="1.1">
 <metadata>
  <rdf:RDF xmlns:dc="http://purl.org/dc/elements/1.1/" xmlns:cc="http://creativecommons.org/ns#" xmlns:rdf="http://www.w3.org/1999/02/22-rdf-syntax-ns#">
   <cc:Work>
    <dc:type rdf:resource="http://purl.org/dc/dcmitype/StillImage"/>
    <dc:date>2026-05-25T15:25:19.708956</dc:date>
    <dc:format>image/svg+xml</dc:format>
    <dc:creator>
     <cc:Agent>
      <dc:title>Matplotlib v3.10.9, https://matplotlib.org/</dc:title>
     </cc:Agent>
    </dc:creator>
   </cc:Work>
  </rdf:RDF>
 </metadata>
 <defs>
  <style type="text/css">*{stroke-linejoin: round; stroke-linecap: butt}</style>
 </defs>
 <g id="figure_1">
  <g id="patch_1">
   <path d="M 0 239.823281 
L 492.48 239.823281 
L 492.48 0 
L 0 0 
z
" style="fill: #ffffff"/>
  </g>
  <g id="axes_1">
   <g id="patch_2">
    <path d="M 50.2 201.711875 
L 485.28 201.711875 
L 485.28 23.591875 
L 50.2 23.591875 
z
" style="fill: #ffffff"/>
   </g>
   <g id="patch_3">
    <path d="M 50.2 193.615511 
L 393.684211 193.615511 
L 393.684211 180.831779 
L 50.2 180.831779 
z
" clip-path="url(#pa2f74352fb)" style="fill: #34495e"/>
   </g>
   <g id="patch_4">
    <path d="M 50.2 172.309291 
L 95.997895 172.309291 
L 95.997895 159.525559 
L 50.2 159.525559 
z
" clip-path="url(#pa2f74352fb)" style="fill: #e8a060"/>
   </g>
   <g id="patch_5">
    <path d="M 50.2 151.003071 
L 187.593684 151.003071 
L 187.593684 138.219339 
L 50.2 138.219339 
z
" clip-path="url(#pa2f74352fb)" style="fill: #d18080"/>
   </g>
   <g id="patch_6">
    <path d="M 50.2 129.696851 
L 84.548421 129.696851 
L 84.548421 116.913119 
L 50.2 116.913119 
z
" clip-path="url(#pa2f74352fb)" style="fill: #95a5a6"/>
   </g>
   <g id="patch_7">
    <path d="M 50.2 108.390631 
L 187.593684 108.390631 
L 187.593684 95.606899 
L 50.2 95.606899 
z
" clip-path="url(#pa2f74352fb)" style="fill: #c46565"/>
   </g>
   <g id="patch_8">
    <path d="M 50.2 87.084411 
L 73.098947 87.084411 
L 73.098947 74.300679 
L 50.2 74.300679 
z
" clip-path="url(#pa2f74352fb)" style="fill: #27ae60"/>
   </g>
   <g id="patch_9">
    <path d="M 50.2 65.778191 
L 210.492632 65.778191 
L 210.492632 52.994459 
L 50.2 52.994459 
z
" clip-path="url(#pa2f74352fb)" style="fill: #c0392b"/>
   </g>
   <g id="patch_10">
    <path d="M 50.2 44.471971 
L 95.997895 44.471971 
L 95.997895 31.688239 
L 50.2 31.688239 
z
" clip-path="url(#pa2f74352fb)" style="fill: #73bfaa"/>
   </g>
   <g id="matplotlib.axis_1">
    <g id="xtick_1">
     <g id="line2d_1">
      <defs>
       <path id="m1e1d009176" d="M 0 0 
L 0 3.5 
" style="stroke: #000000; stroke-width: 0.8"/>
      </defs>
      <g>
       <use xlink:href="#m1e1d009176" x="50.2" y="201.711875" style="stroke: #000000; stroke-width: 0.8"/>
      </g>
     </g>
     <g id="text_1">
      <!-- 0 -->
      <g transform="translate(47.561172 215.90625) scale(0.09 -0.09)">
       <defs>
        <path id="MicrosoftYaHei-30" d="M 284 2325 
Q 284 3606 709 4264 
Q 1134 4922 1941 4922 
Q 3478 4922 3478 2441 
Q 3478 1216 3045 567 
Q 2613 -81 1831 -81 
Q 1094 -81 689 534 
Q 284 1150 284 2325 
z
M 909 2353 
Q 909 425 1888 425 
Q 2850 425 2850 2384 
Q 2850 4413 1906 4413 
Q 909 4413 909 2353 
z
" transform="scale(0.015625)"/>
       </defs>
       <use xlink:href="#MicrosoftYaHei-30"/>
      </g>
     </g>
    </g>
    <g id="xtick_2">
     <g id="line2d_2">
      <g>
       <use xlink:href="#m1e1d009176" x="141.795789" y="201.711875" style="stroke: #000000; stroke-width: 0.8"/>
      </g>
     </g>
     <g id="text_2">
      <!-- 2 -->
      <g transform="translate(139.156961 215.90625) scale(0.09 -0.09)">
       <defs>
        <path id="MicrosoftYaHei-32" d="M 2666 3572 
Q 2666 3963 2419 4186 
Q 2172 4409 1747 4409 
Q 1447 4409 1140 4256 
Q 834 4103 569 3819 
L 569 4413 
Q 806 4659 1107 4790 
Q 1409 4922 1816 4922 
Q 2472 4922 2872 4570 
Q 3272 4219 3272 3619 
Q 3272 3084 3026 2693 
Q 2781 2303 2188 1894 
Q 1581 1475 1376 1294 
Q 1172 1113 1090 947 
Q 1009 781 1009 544 
L 3416 544 
L 3416 0 
L 372 0 
L 372 241 
Q 372 659 486 951 
Q 600 1244 862 1520 
Q 1125 1797 1681 2184 
Q 2250 2584 2458 2886 
Q 2666 3188 2666 3572 
z
" transform="scale(0.015625)"/>
       </defs>
       <use xlink:href="#MicrosoftYaHei-32"/>
      </g>
     </g>
    </g>
    <g id="xtick_3">
     <g id="line2d_3">
      <g>
       <use xlink:href="#m1e1d009176" x="233.391579" y="201.711875" style="stroke: #000000; stroke-width: 0.8"/>
      </g>
     </g>
     <g id="text_3">
      <!-- 4 -->
      <g transform="translate(230.752751 215.90625) scale(0.09 -0.09)">
       <defs>
        <path id="MicrosoftYaHei-34" d="M 2906 4841 
L 2906 1644 
L 3631 1644 
L 3631 1138 
L 2906 1138 
L 2906 0 
L 2313 0 
L 2313 1138 
L 53 1138 
L 53 1616 
Q 656 2294 1265 3178 
Q 1875 4063 2272 4841 
L 2906 4841 
z
M 741 1644 
L 2313 1644 
L 2313 3950 
Q 1988 3366 1616 2817 
Q 1244 2269 741 1644 
z
" transform="scale(0.015625)"/>
       </defs>
       <use xlink:href="#MicrosoftYaHei-34"/>
      </g>
     </g>
    </g>
    <g id="xtick_4">
     <g id="line2d_4">
      <g>
       <use xlink:href="#m1e1d009176" x="324.987368" y="201.711875" style="stroke: #000000; stroke-width: 0.8"/>
      </g>
     </g>
     <g id="text_4">
      <!-- 6 -->
      <g transform="translate(322.34854 215.90625) scale(0.09 -0.09)">
       <defs>
        <path id="MicrosoftYaHei-36" d="M 3181 4219 
Q 2803 4413 2391 4413 
Q 1763 4413 1381 3866 
Q 1000 3319 994 2372 
L 1009 2372 
Q 1353 3038 2106 3038 
Q 2734 3038 3109 2628 
Q 3484 2219 3484 1541 
Q 3484 831 3051 375 
Q 2619 -81 1947 -81 
Q 1209 -81 789 495 
Q 369 1072 369 2131 
Q 369 3413 920 4167 
Q 1472 4922 2372 4922 
Q 2888 4922 3181 4781 
L 3181 4219 
z
M 1031 1584 
Q 1031 1106 1286 765 
Q 1541 425 1963 425 
Q 2363 425 2613 719 
Q 2863 1013 2863 1475 
Q 2863 1975 2627 2253 
Q 2391 2531 1956 2531 
Q 1544 2531 1287 2250 
Q 1031 1969 1031 1584 
z
" transform="scale(0.015625)"/>
       </defs>
       <use xlink:href="#MicrosoftYaHei-36"/>
      </g>
     </g>
    </g>
    <g id="xtick_5">
     <g id="line2d_5">
      <g>
       <use xlink:href="#m1e1d009176" x="416.583158" y="201.711875" style="stroke: #000000; stroke-width: 0.8"/>
      </g>
     </g>
     <g id="text_5">
      <!-- 8 -->
      <g transform="translate(413.94433 215.90625) scale(0.09 -0.09)">
       <defs>
        <path id="MicrosoftYaHei-38" d="M 306 1350 
Q 306 1769 556 2122 
Q 806 2475 1200 2625 
Q 884 2803 700 3081 
Q 516 3359 516 3684 
Q 516 4028 692 4312 
Q 869 4597 1183 4759 
Q 1497 4922 1875 4922 
Q 2256 4922 2572 4761 
Q 2888 4600 3063 4315 
Q 3238 4031 3238 3684 
Q 3238 3366 3058 3086 
Q 2878 2806 2559 2625 
Q 2953 2472 3200 2119 
Q 3447 1766 3447 1350 
Q 3447 938 3250 611 
Q 3053 284 2690 103 
Q 2328 -78 1875 -78 
Q 1425 -78 1065 103 
Q 706 284 506 612 
Q 306 941 306 1350 
z
M 906 1378 
Q 906 947 1172 687 
Q 1438 428 1878 428 
Q 2309 428 2582 692 
Q 2856 956 2856 1378 
Q 2856 1778 2579 2051 
Q 2303 2325 1878 2325 
Q 1456 2325 1181 2058 
Q 906 1791 906 1378 
z
M 1081 3634 
Q 1081 3309 1312 3076 
Q 1544 2844 1878 2844 
Q 2206 2844 2445 3078 
Q 2684 3313 2684 3634 
Q 2684 3963 2454 4191 
Q 2225 4419 1878 4419 
Q 1534 4419 1307 4195 
Q 1081 3972 1081 3634 
z
" transform="scale(0.015625)"/>
       </defs>
       <use xlink:href="#MicrosoftYaHei-38"/>
      </g>
     </g>
    </g>
    <g id="text_6">
     <!-- 时长 (小时) -->
     <g transform="translate(242.919688 230.137344) scale(0.1 -0.1)">
      <defs>
       <path id="MicrosoftYaHei-65f6" d="M 344 4728 
L 2500 4728 
L 2500 -366 
L 2006 -366 
L 2006 153 
L 838 153 
L 838 -441 
L 344 -441 
L 344 4728 
z
M 2706 3941 
L 4925 3941 
L 4925 5322 
L 5425 5322 
L 5425 3941 
L 6313 3941 
L 6313 3478 
L 5425 3478 
L 5425 116 
Q 5425 -722 4625 -722 
Q 4263 -722 3563 -703 
Q 3531 -478 3463 -178 
Q 4119 -228 4488 -228 
Q 4925 -228 4925 216 
L 4925 3478 
L 2706 3478 
L 2706 3941 
z
M 838 616 
L 2006 616 
L 2006 2234 
L 838 2234 
L 838 616 
z
M 2006 4266 
L 838 4266 
L 838 2684 
L 2006 2684 
L 2006 4266 
z
M 3406 2878 
Q 3906 1966 4163 1422 
Q 4000 1347 3663 1172 
Q 3419 1766 2963 2653 
L 3406 2878 
z
" transform="scale(0.015625)"/>
       <path id="MicrosoftYaHei-957f" d="M 169 2766 
L 1269 2766 
L 1269 5316 
L 1781 5316 
L 1781 2766 
L 6194 2766 
L 6194 2278 
L 3456 2278 
Q 4238 566 6325 -78 
Q 6113 -359 5944 -591 
Q 3697 266 2925 2278 
L 1781 2278 
L 1781 16 
Q 2494 303 3294 678 
Q 3294 384 3319 116 
Q 2575 -191 1894 -528 
Q 1644 -666 1431 -834 
L 1056 -353 
Q 1269 -184 1269 103 
L 1269 2278 
L 169 2278 
L 169 2766 
z
M 2156 3528 
Q 3706 4047 5138 5109 
L 5463 4703 
Q 4000 3634 2400 3066 
Q 2300 3278 2156 3528 
z
" transform="scale(0.015625)"/>
       <path id="MicrosoftYaHei-20" transform="scale(0.015625)"/>
       <path id="MicrosoftYaHei-28" d="M 1531 -1100 
Q 478 100 478 1847 
Q 478 3594 1531 4841 
L 2072 4841 
Q 1016 3544 1016 1853 
Q 1016 166 2066 -1100 
L 1531 -1100 
z
" transform="scale(0.015625)"/>
       <path id="MicrosoftYaHei-5c0f" d="M 1513 3878 
L 2025 3697 
Q 1425 1984 625 478 
Q 413 609 113 759 
Q 831 1972 1513 3878 
z
M 4300 3641 
L 4769 3866 
Q 5563 2422 6319 828 
L 5750 559 
Q 4988 2328 4300 3641 
z
M 3000 5247 
L 3556 5247 
L 3556 66 
Q 3556 -747 2675 -747 
Q 2325 -747 1744 -728 
Q 1700 -453 1638 -141 
Q 2238 -197 2556 -197 
Q 3000 -197 3000 203 
L 3000 5247 
z
" transform="scale(0.015625)"/>
       <path id="MicrosoftYaHei-29" d="M 78 -1100 
Q 1131 163 1131 1853 
Q 1131 3547 72 4841 
L 616 4841 
Q 1672 3603 1672 1847 
Q 1672 91 616 -1100 
L 78 -1100 
z
" transform="scale(0.015625)"/>
      </defs>
      <use xlink:href="#MicrosoftYaHei-65f6"/>
      <use xlink:href="#MicrosoftYaHei-957f" transform="translate(100 0)"/>
      <use xlink:href="#MicrosoftYaHei-20" transform="translate(200 0)"/>
      <use xlink:href="#MicrosoftYaHei-28" transform="translate(229.589844 0)"/>
      <use xlink:href="#MicrosoftYaHei-5c0f" transform="translate(262.988281 0)"/>
      <use xlink:href="#MicrosoftYaHei-65f6" transform="translate(362.988281 0)"/>
      <use xlink:href="#MicrosoftYaHei-29" transform="translate(462.988281 0)"/>
     </g>
    </g>
   </g>
   <g id="matplotlib.axis_2">
    <g id="ytick_1">
     <g id="line2d_6">
      <defs>
       <path id="mb48cbc7685" d="M 0 0 
L -3.5 0 
" style="stroke: #000000; stroke-width: 0.8"/>
      </defs>
      <g>
       <use xlink:href="#mb48cbc7685" x="50.2" y="187.223645" style="stroke: #000000; stroke-width: 0.8"/>
      </g>
     </g>
     <g id="text_7">
      <!-- 睡眠 -->
      <g transform="translate(25.2 190.820833) scale(0.09 -0.09)">
       <defs>
        <path id="MicrosoftYaHei-7761" d="M 2356 -116 
L 3950 -116 
L 3950 734 
L 2225 734 
L 2225 1134 
L 2825 1134 
L 2825 2041 
L 2088 2041 
L 2088 2453 
L 2825 2453 
L 2825 3353 
L 2213 3353 
L 2213 3753 
L 3950 3753 
L 3950 4503 
Q 3184 4456 2413 4428 
Q 2375 4641 2325 4872 
Q 3994 4916 5869 5103 
L 5956 4653 
Q 5175 4584 4388 4531 
L 4388 3753 
L 6125 3753 
L 6125 3353 
L 5513 3353 
L 5513 2453 
L 6306 2453 
L 6306 2041 
L 5513 2041 
L 5513 1134 
L 6138 1134 
L 6138 734 
L 4388 734 
L 4388 -116 
L 5994 -116 
L 5994 -516 
L 2356 -516 
L 2356 -116 
z
M 338 4859 
L 1938 4859 
L 1938 -434 
L 1500 -434 
L 1500 9 
L 775 9 
L 775 -609 
L 338 -609 
L 338 4859 
z
M 775 441 
L 1500 441 
L 1500 1503 
L 775 1503 
L 775 441 
z
M 1500 4428 
L 775 4428 
L 775 3384 
L 1500 3384 
L 1500 4428 
z
M 775 1922 
L 1500 1922 
L 1500 2966 
L 775 2966 
L 775 1922 
z
M 3250 1134 
L 3950 1134 
L 3950 2041 
L 3250 2041 
L 3250 1134 
z
M 4388 1134 
L 5088 1134 
L 5088 2041 
L 4388 2041 
L 4388 1134 
z
M 3250 2453 
L 3950 2453 
L 3950 3353 
L 3250 3353 
L 3250 2453 
z
M 4388 2453 
L 5088 2453 
L 5088 3353 
L 4388 3353 
L 4388 2453 
z
" transform="scale(0.015625)"/>
        <path id="MicrosoftYaHei-7720" d="M 2650 5016 
L 6013 5016 
L 6013 2828 
L 5550 2828 
L 5550 3103 
L 4709 3103 
Q 4709 2516 4734 2084 
L 6288 2084 
L 6288 1647 
L 4769 1647 
Q 4884 453 5300 -28 
Q 5488 -253 5650 -253 
Q 5800 -253 5831 -59 
Q 5888 272 5925 778 
Q 6163 666 6363 616 
Q 6313 116 6244 -247 
Q 6138 -797 5738 -797 
Q 5300 -797 4900 -278 
Q 4438 353 4309 1647 
L 3125 1647 
L 3125 -28 
Q 3613 241 4163 572 
Q 4206 278 4256 72 
Q 3744 -209 3106 -603 
Q 2931 -716 2756 -872 
L 2444 -453 
Q 2650 -278 2650 59 
L 2650 5016 
z
M 425 4978 
L 2138 4978 
L 2138 -503 
L 1688 -503 
L 1688 -66 
L 875 -66 
L 875 -584 
L 425 -584 
L 425 4978 
z
M 5550 4591 
L 3125 4591 
L 3125 3528 
L 5550 3528 
L 5550 4591 
z
M 4238 3103 
L 3125 3103 
L 3125 2084 
L 4272 2084 
Q 4247 2500 4238 3103 
z
M 875 372 
L 1688 372 
L 1688 1491 
L 875 1491 
L 875 372 
z
M 1688 4541 
L 875 4541 
L 875 3441 
L 1688 3441 
L 1688 4541 
z
M 875 1916 
L 1688 1916 
L 1688 3016 
L 875 3016 
L 875 1916 
z
" transform="scale(0.015625)"/>
       </defs>
       <use xlink:href="#MicrosoftYaHei-7761"/>
       <use xlink:href="#MicrosoftYaHei-7720" transform="translate(100 0)"/>
      </g>
     </g>
    </g>
    <g id="ytick_2">
     <g id="line2d_7">
      <g>
       <use xlink:href="#mb48cbc7685" x="50.2" y="165.917425" style="stroke: #000000; stroke-width: 0.8"/>
      </g>
     </g>
     <g id="text_8">
      <!-- 早读记忆 -->
      <g transform="translate(7.2 169.514613) scale(0.09 -0.09)">
       <defs>
        <path id="MicrosoftYaHei-65e9" d="M 150 1009 
L 2956 1009 
L 2956 1897 
L 1381 1897 
L 1381 1584 
L 894 1584 
L 894 4984 
L 5513 4984 
L 5513 1584 
L 5025 1584 
L 5025 1897 
L 3456 1897 
L 3456 1009 
L 6256 1009 
L 6256 559 
L 3456 559 
L 3456 -847 
L 2956 -847 
L 2956 559 
L 150 559 
L 150 1009 
z
M 1381 2341 
L 5025 2341 
L 5025 3228 
L 1381 3228 
L 1381 2341 
z
M 5025 4541 
L 1381 4541 
L 1381 3659 
L 5025 3659 
L 5025 4541 
z
" transform="scale(0.015625)"/>
        <path id="MicrosoftYaHei-8bfb" d="M 1844 3516 
L 3750 3516 
L 3750 4141 
L 2075 4141 
L 2075 4578 
L 3750 4578 
L 3750 5303 
L 4225 5303 
L 4225 4578 
L 6013 4578 
L 6013 4141 
L 4225 4141 
L 4225 3516 
L 6138 3516 
L 6063 2291 
Q 5838 2316 5581 2322 
L 5650 3078 
L 1844 3078 
L 1844 3516 
z
M 1794 1291 
L 4063 1291 
Q 4188 1803 4156 2916 
L 4631 2916 
Q 4650 1741 4556 1291 
L 6219 1291 
L 6219 853 
L 4463 853 
Q 4419 734 4369 634 
Q 5300 134 6200 -391 
L 5888 -816 
Q 4950 -222 4125 247 
Q 3563 -434 2044 -884 
Q 1906 -666 1731 -434 
Q 3544 53 3950 853 
L 1794 853 
L 1794 1291 
z
M 2025 672 
Q 2038 384 2069 128 
Q 1381 -316 913 -691 
L 625 -278 
Q 838 -91 838 259 
L 838 2678 
L 88 2678 
L 88 3128 
L 1306 3128 
L 1306 166 
Q 1619 378 2025 672 
z
M 813 5147 
Q 1288 4672 1763 4141 
L 1331 3784 
Q 894 4334 431 4834 
L 813 5147 
z
M 2056 1997 
L 2281 2334 
Q 2869 2053 3425 1728 
L 3181 1353 
Q 2675 1678 2056 1997 
z
M 2513 2678 
L 2744 3022 
Q 3331 2734 3869 2434 
L 3619 2053 
Q 3088 2384 2513 2678 
z
" transform="scale(0.015625)"/>
        <path id="MicrosoftYaHei-8bb0" d="M 2975 2466 
L 2975 341 
Q 2975 -128 3425 -128 
L 5019 -128 
Q 5588 -128 5663 291 
Q 5731 628 5794 1266 
Q 6063 1159 6319 1084 
Q 6238 503 6138 72 
Q 6000 -603 5125 -603 
L 3250 -603 
Q 2488 -603 2488 197 
L 2488 2928 
L 5375 2928 
L 5375 4534 
L 2225 4534 
L 2225 4997 
L 5863 4997 
L 5863 2166 
L 5375 2166 
L 5375 2466 
L 2975 2466 
z
M 2206 716 
Q 2225 391 2250 178 
Q 1438 -366 994 -722 
L 700 -303 
Q 913 -141 913 259 
L 913 2703 
L 100 2703 
L 100 3166 
L 1400 3166 
L 1400 147 
Q 1775 403 2206 716 
z
M 806 5222 
Q 1488 4522 1794 4184 
L 1356 3816 
Q 963 4334 425 4891 
L 806 5222 
z
" transform="scale(0.015625)"/>
        <path id="MicrosoftYaHei-5fc6" d="M 1038 5259 
L 1531 5259 
L 1531 3947 
L 1769 4134 
Q 2200 3703 2563 3228 
L 2188 2922 
Q 1881 3397 1531 3772 
L 1531 -847 
L 1038 -847 
L 1038 5259 
z
M 381 3816 
L 819 3753 
Q 700 2903 531 2153 
Q 344 2203 88 2253 
Q 263 2903 381 3816 
z
M 5794 1628 
Q 5950 1553 6319 1441 
Q 6269 772 6175 234 
Q 6044 -547 5119 -566 
Q 4075 -603 3181 -566 
Q 2363 -522 2194 -34 
Q 2038 453 2581 1241 
Q 3350 2334 5131 4322 
L 2350 4322 
L 2350 4797 
L 5769 4797 
L 5769 4278 
Q 4069 2409 3150 1153 
Q 2625 422 2681 172 
Q 2731 -78 3369 -91 
Q 4131 -122 5025 -84 
Q 5594 -66 5675 422 
Q 5750 816 5794 1628 
z
" transform="scale(0.015625)"/>
       </defs>
       <use xlink:href="#MicrosoftYaHei-65e9"/>
       <use xlink:href="#MicrosoftYaHei-8bfb" transform="translate(100 0)"/>
       <use xlink:href="#MicrosoftYaHei-8bb0" transform="translate(200 0)"/>
       <use xlink:href="#MicrosoftYaHei-5fc6" transform="translate(300 0)"/>
      </g>
     </g>
    </g>
    <g id="ytick_3">
     <g id="line2d_8">
      <g>
       <use xlink:href="#mb48cbc7685" x="50.2" y="144.611205" style="stroke: #000000; stroke-width: 0.8"/>
      </g>
     </g>
     <g id="text_9">
      <!-- 上午学习 -->
      <g transform="translate(7.2 148.208393) scale(0.09 -0.09)">
       <defs>
        <path id="MicrosoftYaHei-4e0a" d="M 163 47 
L 2613 47 
L 2613 5209 
L 3181 5209 
L 3181 3328 
L 5750 3328 
L 5750 2828 
L 3181 2828 
L 3181 47 
L 6244 47 
L 6244 -453 
L 163 -453 
L 163 47 
z
" transform="scale(0.015625)"/>
        <path id="MicrosoftYaHei-5348" d="M 175 2184 
L 3175 2184 
L 3175 4034 
L 1647 4034 
Q 1281 3328 794 2734 
Q 606 2891 356 3053 
Q 1275 4066 1681 5372 
L 2169 5278 
Q 2038 4878 1872 4509 
L 5794 4509 
L 5794 4034 
L 3700 4034 
L 3700 2184 
L 6300 2184 
L 6300 1709 
L 3700 1709 
L 3700 -847 
L 3175 -847 
L 3175 1709 
L 175 1709 
L 175 2184 
z
" transform="scale(0.015625)"/>
        <path id="MicrosoftYaHei-5b66" d="M 144 1359 
L 3069 1359 
L 3069 1709 
L 4263 2384 
L 1325 2384 
L 1325 2841 
L 4994 2841 
L 4994 2316 
L 3575 1497 
L 3575 1359 
L 6263 1359 
L 6263 903 
L 3575 903 
L 3575 -41 
Q 3575 -778 2831 -778 
Q 2419 -778 1863 -766 
Q 1844 -553 1788 -234 
Q 2288 -284 2744 -291 
Q 3069 -297 3069 53 
L 3069 903 
L 144 903 
L 144 1359 
z
M 356 3909 
L 6056 3909 
L 6056 2647 
L 5563 2647 
L 5563 3453 
L 850 3453 
L 850 2647 
L 356 2647 
L 356 3909 
z
M 4313 4272 
Q 4731 4722 5100 5241 
L 5550 4909 
Q 5144 4447 4681 3941 
L 4313 4272 
z
M 2538 5116 
L 2944 5353 
Q 3325 4853 3650 4334 
L 3200 4078 
Q 2925 4566 2538 5116 
z
M 850 4928 
L 1219 5197 
Q 1600 4778 1969 4291 
L 1544 3991 
Q 1194 4522 850 4928 
z
" transform="scale(0.015625)"/>
        <path id="MicrosoftYaHei-4e60" d="M 500 4803 
L 5725 4803 
Q 5663 1853 5606 784 
Q 5550 -616 4181 -616 
Q 3644 -616 3013 -591 
Q 2988 -347 2913 -9 
Q 3713 -66 4113 -66 
Q 4631 -72 4850 153 
Q 5056 378 5081 916 
Q 5144 2416 5169 4291 
L 500 4291 
L 500 4803 
z
M 363 834 
Q 2856 1591 4688 2253 
Q 4669 1834 4688 1709 
Q 2513 978 556 297 
L 363 834 
z
M 1131 3372 
L 1400 3778 
Q 2713 3203 3563 2766 
L 3275 2291 
Q 2069 2947 1131 3372 
z
" transform="scale(0.015625)"/>
       </defs>
       <use xlink:href="#MicrosoftYaHei-4e0a"/>
       <use xlink:href="#MicrosoftYaHei-5348" transform="translate(100 0)"/>
       <use xlink:href="#MicrosoftYaHei-5b66" transform="translate(200 0)"/>
       <use xlink:href="#MicrosoftYaHei-4e60" transform="translate(300 0)"/>
      </g>
     </g>
    </g>
    <g id="ytick_4">
     <g id="line2d_9">
      <g>
       <use xlink:href="#mb48cbc7685" x="50.2" y="123.304985" style="stroke: #000000; stroke-width: 0.8"/>
      </g>
     </g>
     <g id="text_10">
      <!-- 午休 -->
      <g transform="translate(25.2 126.902173) scale(0.09 -0.09)">
       <defs>
        <path id="MicrosoftYaHei-4f11" d="M 6375 534 
Q 6131 291 5944 72 
Q 4844 1156 4200 2944 
L 4200 -841 
L 3725 -841 
L 3725 3016 
Q 3144 1356 1906 3 
Q 1744 203 1544 416 
Q 2856 1784 3519 3484 
L 1869 3484 
L 1869 3934 
L 3725 3934 
L 3725 5303 
L 4200 5303 
L 4200 3934 
L 6119 3934 
L 6119 3484 
L 4391 3484 
Q 5066 1616 6375 534 
z
M 81 2391 
Q 1063 3716 1556 5341 
L 2063 5172 
Q 1753 4303 1388 3572 
L 1388 -841 
L 913 -841 
L 913 2716 
Q 616 2234 288 1828 
Q 200 2097 81 2391 
z
" transform="scale(0.015625)"/>
       </defs>
       <use xlink:href="#MicrosoftYaHei-5348"/>
       <use xlink:href="#MicrosoftYaHei-4f11" transform="translate(100 0)"/>
      </g>
     </g>
    </g>
    <g id="ytick_5">
     <g id="line2d_10">
      <g>
       <use xlink:href="#mb48cbc7685" x="50.2" y="101.998765" style="stroke: #000000; stroke-width: 0.8"/>
      </g>
     </g>
     <g id="text_11">
      <!-- 下午学习 -->
      <g transform="translate(7.2 105.595952) scale(0.09 -0.09)">
       <defs>
        <path id="MicrosoftYaHei-4e0b" d="M 163 4803 
L 6238 4803 
L 6238 4291 
L 3200 4291 
L 3200 2928 
L 3488 3328 
Q 4919 2484 5888 1809 
L 5519 1303 
Q 4550 2047 3200 2872 
L 3200 -797 
L 2631 -797 
L 2631 4291 
L 163 4291 
L 163 4803 
z
" transform="scale(0.015625)"/>
       </defs>
       <use xlink:href="#MicrosoftYaHei-4e0b"/>
       <use xlink:href="#MicrosoftYaHei-5348" transform="translate(100 0)"/>
       <use xlink:href="#MicrosoftYaHei-5b66" transform="translate(200 0)"/>
       <use xlink:href="#MicrosoftYaHei-4e60" transform="translate(300 0)"/>
      </g>
     </g>
    </g>
    <g id="ytick_6">
     <g id="line2d_11">
      <g>
       <use xlink:href="#mb48cbc7685" x="50.2" y="80.692545" style="stroke: #000000; stroke-width: 0.8"/>
      </g>
     </g>
     <g id="text_12">
      <!-- 体育锻炼 -->
      <g transform="translate(7.2 84.289732) scale(0.09 -0.09)">
       <defs>
        <path id="MicrosoftYaHei-4f53" d="M 6350 778 
Q 6138 522 5981 316 
Q 4731 1278 4144 3572 
L 4144 934 
L 5063 934 
L 5063 484 
L 4144 484 
L 4144 -822 
L 3681 -822 
L 3681 484 
L 2763 484 
L 2763 934 
L 3681 934 
L 3681 3572 
L 3666 3572 
Q 3084 1413 1750 216 
Q 1606 397 1419 609 
Q 2625 1713 3225 3572 
L 1756 3572 
L 1756 4022 
L 3681 4022 
L 3681 5297 
L 4144 5297 
L 4144 4022 
L 6138 4022 
L 6138 3572 
L 4547 3572 
Q 5144 1628 6350 778 
z
M 56 2297 
Q 963 3622 1406 5316 
L 1881 5178 
Q 1638 4381 1331 3681 
L 1331 -816 
L 869 -816 
L 869 2741 
Q 588 2231 269 1784 
Q 175 2041 56 2297 
z
" transform="scale(0.015625)"/>
        <path id="MicrosoftYaHei-80b2" d="M 988 2578 
L 5438 2578 
L 5438 -3 
Q 5438 -741 4563 -741 
Q 4269 -741 3844 -734 
Q 3831 -672 3744 -222 
Q 4175 -284 4531 -284 
Q 4950 -284 4963 72 
L 4963 266 
L 1463 266 
L 1463 -797 
L 988 -797 
L 988 2578 
z
M 4519 4128 
Q 5319 3578 6100 2984 
L 5744 2628 
Q 5484 2853 5203 3078 
Q 2753 3069 1463 3009 
Q 1069 2991 788 2941 
L 613 3466 
Q 1044 3547 1306 3703 
Q 1681 3925 2050 4228 
L 169 4228 
L 169 4666 
L 3100 4666 
Q 2969 4894 2813 5147 
L 3244 5359 
Q 3528 4916 3666 4666 
L 6238 4666 
L 6238 4228 
L 2788 4228 
Q 2169 3791 1656 3466 
Q 3122 3466 4650 3497 
Q 4444 3650 4225 3803 
L 4519 4128 
z
M 1463 678 
L 4963 678 
L 4963 1209 
L 1463 1209 
L 1463 678 
z
M 4963 2153 
L 1463 2153 
L 1463 1622 
L 4963 1622 
L 4963 2153 
z
" transform="scale(0.015625)"/>
        <path id="MicrosoftYaHei-953b" d="M 3694 2003 
L 3694 2434 
L 5950 2434 
L 5950 2022 
Q 5675 1097 5128 425 
Q 5606 -34 6331 -291 
Q 6181 -472 6006 -759 
Q 5281 -453 4788 53 
Q 4209 -500 3400 -841 
Q 3288 -641 3119 -409 
Q 3934 -91 4484 416 
Q 4006 1075 3828 2003 
L 3694 2003 
z
M 125 1972 
L 819 1972 
L 819 2816 
L 531 2816 
L 531 3200 
Q 463 3072 388 2947 
Q 238 3184 88 3359 
Q 594 4159 850 5316 
L 1300 5216 
Q 1191 4781 1050 4384 
L 2031 4384 
L 2031 3966 
L 891 3966 
Q 734 3581 550 3234 
L 1856 3234 
L 1856 2816 
L 1250 2816 
L 1250 1972 
L 2000 1972 
L 2000 1553 
L 1250 1553 
L 1250 47 
Q 1575 222 1919 434 
Q 1938 159 1988 -22 
Q 1606 -234 1250 -472 
Q 1031 -628 919 -747 
L 613 -372 
Q 819 -197 819 122 
L 819 1553 
L 125 1553 
L 125 1972 
z
M 1719 984 
Q 1959 1019 2231 1063 
L 2231 4928 
Q 2981 4991 3588 5147 
L 3756 4722 
Q 3275 4622 2669 4553 
L 2669 3766 
L 3563 3766 
L 3563 3347 
L 2669 3347 
L 2669 2497 
L 3525 2497 
L 3525 2078 
L 2669 2078 
L 2669 1131 
Q 3119 1209 3638 1303 
Q 3631 1178 3631 853 
Q 3106 763 2669 678 
L 2669 -828 
L 2231 -828 
L 2231 594 
Q 2019 550 1831 509 
L 1719 984 
z
M 5925 3228 
Q 6019 3228 6338 3241 
L 6250 2797 
Q 6006 2791 5831 2791 
Q 5213 2791 5213 3459 
L 5213 4584 
L 4488 4584 
L 4488 4122 
Q 4488 3072 3869 2497 
Q 3675 2697 3531 2803 
Q 4063 3247 4063 4134 
L 4063 5009 
L 5638 5009 
L 5638 3503 
Q 5638 3228 5925 3228 
z
M 5450 2003 
L 4288 2003 
Q 4438 1291 4822 772 
Q 5253 1306 5450 2003 
z
" transform="scale(0.015625)"/>
        <path id="MicrosoftYaHei-70bc" d="M 2263 4578 
L 3309 4578 
Q 3419 4944 3525 5341 
L 4031 5341 
Q 3916 4950 3800 4578 
L 6163 4578 
L 6163 4141 
L 3659 4141 
Q 3534 3759 3409 3397 
L 4619 3397 
L 4619 2128 
L 6156 2128 
L 6156 1691 
L 4619 1691 
L 4619 22 
Q 4619 -716 3888 -716 
Q 3681 -716 3194 -703 
Q 3169 -447 3113 -191 
Q 3569 -241 3819 -241 
Q 4150 -241 4150 78 
L 4150 1691 
L 2438 1691 
L 2438 2128 
Q 2606 2516 2772 2959 
L 2300 2959 
L 2300 3397 
L 2931 3397 
Q 3056 3753 3175 4141 
L 2263 4141 
L 2263 4578 
z
M 975 5272 
L 1431 5272 
Q 1425 2141 1306 1578 
L 1550 1722 
Q 1938 1128 2313 391 
L 1894 134 
Q 1613 778 1272 1350 
Q 1044 -31 400 -759 
Q 256 -572 63 -378 
Q 944 647 950 2966 
Q 975 3928 975 5272 
z
M 2944 2128 
L 4150 2128 
L 4150 2959 
L 3256 2959 
Q 3100 2531 2944 2128 
z
M 3113 1384 
L 3531 1159 
Q 3050 291 2513 -441 
Q 2363 -322 2119 -172 
Q 2688 547 3113 1384 
z
M 5031 1147 
L 5413 1359 
Q 5881 678 6338 -109 
L 5888 -359 
Q 5456 472 5031 1147 
z
M 1406 2747 
Q 1656 3316 1956 4166 
L 2369 3978 
Q 2081 3234 1775 2566 
L 1406 2747 
z
M 63 3959 
L 450 4084 
Q 650 3441 881 2653 
L 444 2484 
Q 219 3428 63 3959 
z
" transform="scale(0.015625)"/>
       </defs>
       <use xlink:href="#MicrosoftYaHei-4f53"/>
       <use xlink:href="#MicrosoftYaHei-80b2" transform="translate(100 0)"/>
       <use xlink:href="#MicrosoftYaHei-953b" transform="translate(200 0)"/>
       <use xlink:href="#MicrosoftYaHei-70bc" transform="translate(300 0)"/>
      </g>
     </g>
    </g>
    <g id="ytick_7">
     <g id="line2d_12">
      <g>
       <use xlink:href="#mb48cbc7685" x="50.2" y="59.386325" style="stroke: #000000; stroke-width: 0.8"/>
      </g>
     </g>
     <g id="text_13">
      <!-- 晚间自习 -->
      <g transform="translate(7.2 62.983512) scale(0.09 -0.09)">
       <defs>
        <path id="MicrosoftYaHei-665a" d="M 2219 3497 
Q 3038 4303 3494 5316 
L 3988 5228 
Q 3838 4922 3669 4634 
L 5456 4634 
L 5456 4222 
L 4869 3428 
L 5931 3428 
L 5931 1266 
L 5488 1266 
L 5488 1497 
L 4256 1497 
Q 4025 16 2313 -884 
Q 2169 -691 1994 -484 
Q 3550 291 3794 1497 
L 2963 1497 
L 2963 1266 
L 2519 1266 
L 2519 3259 
Q 2388 3372 2219 3497 
z
M 425 4709 
L 2075 4709 
L 2075 134 
L 875 134 
L 875 -284 
L 425 -284 
L 425 4709 
z
M 1625 559 
L 1625 2228 
L 875 2228 
L 875 559 
L 1625 559 
z
M 5488 3016 
L 4394 3016 
Q 4388 2397 4325 1909 
L 5488 1909 
L 5488 3016 
z
M 1625 4284 
L 875 4284 
L 875 2641 
L 1625 2641 
L 1625 4284 
z
M 4875 4222 
L 3413 4222 
Q 3131 3797 2813 3428 
L 4319 3428 
L 4875 4222 
z
M 2963 1909 
L 3875 1909 
Q 3944 2384 3950 3016 
L 2963 3016 
L 2963 1909 
z
M 4356 1266 
L 4800 1266 
L 4800 59 
Q 4800 -247 5081 -247 
L 5463 -247 
Q 5775 -247 5831 53 
Q 5888 334 5919 766 
Q 6119 672 6363 584 
Q 6306 172 6244 -122 
Q 6131 -678 5575 -678 
L 4969 -678 
Q 4356 -678 4356 -3 
L 4356 1266 
z
" transform="scale(0.015625)"/>
        <path id="MicrosoftYaHei-95f4" d="M 1863 3647 
L 4513 3647 
L 4513 553 
L 2313 553 
L 2313 166 
L 1863 166 
L 1863 3647 
z
M 2388 4453 
L 2388 4922 
L 6013 4922 
L 6013 -28 
Q 6013 -816 5119 -816 
Q 4756 -816 4169 -803 
Q 4144 -616 4069 -297 
Q 4588 -334 5056 -334 
Q 5525 -334 5525 122 
L 5525 4453 
L 2388 4453 
z
M 419 4084 
L 906 4084 
L 906 -816 
L 419 -816 
L 419 4084 
z
M 2313 997 
L 4063 997 
L 4063 1884 
L 2313 1884 
L 2313 997 
z
M 4063 3203 
L 2313 3203 
L 2313 2328 
L 4063 2328 
L 4063 3203 
z
M 744 5003 
L 1100 5322 
Q 1575 4872 1981 4447 
L 1575 4091 
Q 1194 4541 744 5003 
z
" transform="scale(0.015625)"/>
        <path id="MicrosoftYaHei-81ea" d="M 775 4466 
L 2391 4466 
Q 2525 4828 2688 5328 
L 3219 5166 
Q 3059 4778 2909 4466 
L 5625 4466 
L 5625 -822 
L 5125 -822 
L 5125 -447 
L 1275 -447 
L 1275 -822 
L 775 -822 
L 775 4466 
z
M 1275 3 
L 5125 3 
L 5125 1053 
L 1275 1053 
L 1275 3 
z
M 1275 1497 
L 5125 1497 
L 5125 2534 
L 1275 2534 
L 1275 1497 
z
M 5125 4016 
L 1275 4016 
L 1275 2978 
L 5125 2978 
L 5125 4016 
z
" transform="scale(0.015625)"/>
       </defs>
       <use xlink:href="#MicrosoftYaHei-665a"/>
       <use xlink:href="#MicrosoftYaHei-95f4" transform="translate(100 0)"/>
       <use xlink:href="#MicrosoftYaHei-81ea" transform="translate(200 0)"/>
       <use xlink:href="#MicrosoftYaHei-4e60" transform="translate(300 0)"/>
      </g>
     </g>
    </g>
    <g id="ytick_8">
     <g id="line2d_13">
      <g>
       <use xlink:href="#mb48cbc7685" x="50.2" y="38.080105" style="stroke: #000000; stroke-width: 0.8"/>
      </g>
     </g>
     <g id="text_14">
      <!-- 休息放松 -->
      <g transform="translate(7.2 41.677292) scale(0.09 -0.09)">
       <defs>
        <path id="MicrosoftYaHei-606f" d="M 913 4709 
L 2441 4709 
Q 2575 5044 2663 5353 
L 3150 5222 
Q 3047 4956 2934 4709 
L 5425 4709 
L 5425 1297 
L 4944 1297 
L 4944 1491 
L 1394 1491 
L 1394 1297 
L 913 1297 
L 913 4709 
z
M 1569 1059 
L 2044 1059 
L 2044 141 
Q 2044 -247 2456 -247 
L 3844 -247 
Q 4344 -247 4425 97 
Q 4488 322 4550 778 
Q 4781 684 5038 597 
Q 4963 166 4888 -97 
Q 4744 -691 3956 -691 
L 2381 -691 
Q 1569 -691 1569 84 
L 1569 1059 
z
M 1394 2841 
L 4944 2841 
L 4944 3366 
L 1394 3366 
L 1394 2841 
z
M 1394 1916 
L 4944 1916 
L 4944 2441 
L 1394 2441 
L 1394 1916 
z
M 4944 4284 
L 1394 4284 
L 1394 3766 
L 4944 3766 
L 4944 4284 
z
M 638 1122 
L 1094 966 
Q 819 216 519 -403 
Q 319 -316 56 -222 
Q 363 322 638 1122 
z
M 5119 922 
L 5481 1203 
Q 5925 722 6388 147 
L 5988 -159 
Q 5563 416 5119 922 
z
M 2663 1128 
L 3000 1416 
Q 3381 1066 3838 578 
L 3456 253 
Q 2994 797 2663 1128 
z
" transform="scale(0.015625)"/>
        <path id="MicrosoftYaHei-653e" d="M 3956 5359 
L 4456 5272 
Q 4322 4681 4106 4128 
L 6281 4128 
L 6281 3666 
L 5759 3666 
Q 5638 1816 4884 725 
Q 5447 25 6338 -353 
Q 6131 -628 5994 -847 
Q 5153 -394 4559 322 
Q 3947 -356 3094 -903 
Q 2950 -722 2738 -509 
Q 3669 56 4259 731 
Q 3713 1625 3563 2988 
Q 3378 2669 3163 2366 
Q 3031 2553 2850 2766 
Q 3663 3884 3956 5359 
z
M 156 4184 
L 3169 4184 
L 3169 3722 
L 1400 3722 
Q 1394 3166 1378 2703 
L 2813 2703 
Q 2750 1166 2694 241 
Q 2638 -584 1981 -616 
Q 1600 -622 1263 -609 
Q 1225 -378 1156 -84 
Q 1569 -128 1794 -128 
Q 2175 -128 2206 347 
Q 2269 1078 2306 2241 
L 1359 2241 
Q 1338 216 369 -853 
Q 225 -641 38 -416 
Q 625 247 750 1003 
Q 909 1713 906 3722 
L 156 3722 
L 156 4184 
z
M 5263 3666 
L 3934 3666 
Q 4034 2134 4584 1166 
Q 5188 2131 5263 3666 
z
M 1206 5141 
L 1631 5366 
Q 1900 4966 2144 4503 
L 1706 4272 
Q 1456 4753 1206 5141 
z
" transform="scale(0.015625)"/>
        <path id="MicrosoftYaHei-677e" d="M 69 1384 
Q 750 2328 1106 3603 
L 163 3603 
L 163 4022 
L 1100 4022 
L 1100 5259 
L 1556 5259 
L 1556 4022 
L 2388 4022 
L 2388 3603 
L 1556 3603 
L 1556 2584 
L 1788 2791 
Q 2213 2366 2600 1934 
L 2263 1603 
Q 1769 2172 1556 2397 
L 1556 -834 
L 1100 -834 
L 1100 2372 
Q 763 1459 294 841 
Q 200 1109 69 1384 
z
M 5063 1472 
Q 5575 547 6100 -603 
L 5619 -828 
Q 5506 -566 5394 -309 
Q 4075 -391 3088 -491 
Q 2806 -528 2606 -597 
L 2375 -153 
Q 2594 -41 2744 184 
Q 3375 1216 3906 2891 
L 4438 2703 
Q 3781 1028 3163 -28 
Q 4006 16 5213 91 
Q 4938 697 4644 1266 
L 5063 1472 
z
M 4425 5103 
L 4844 5253 
Q 5369 3578 6375 2578 
Q 6138 2384 5938 2191 
Q 4931 3366 4425 5103 
z
M 3463 5128 
L 3938 4972 
Q 3456 3478 2694 2316 
Q 2500 2478 2288 2628 
Q 3094 3772 3463 5128 
z
" transform="scale(0.015625)"/>
       </defs>
       <use xlink:href="#MicrosoftYaHei-4f11"/>
       <use xlink:href="#MicrosoftYaHei-606f" transform="translate(100 0)"/>
       <use xlink:href="#MicrosoftYaHei-653e" transform="translate(200 0)"/>
       <use xlink:href="#MicrosoftYaHei-677e" transform="translate(300 0)"/>
      </g>
     </g>
    </g>
   </g>
   <g id="patch_11">
    <path d="M 50.2 201.711875 
L 50.2 23.591875 
" style="fill: none; stroke: #000000; stroke-width: 0.8; stroke-linejoin: miter; stroke-linecap: square"/>
   </g>
   <g id="patch_12">
    <path d="M 50.2 201.711875 
L 485.28 201.711875 
" style="fill: none; stroke: #000000; stroke-width: 0.8; stroke-linejoin: miter; stroke-linecap: square"/>
   </g>
   <g id="text_15">
    <!-- 7.5h -->
    <g style="fill: #555555" transform="translate(395.974105 189.702161) scale(0.09 -0.09)">
     <defs>
      <path id="MicrosoftYaHei-37" d="M 3422 4463 
Q 2659 3131 2223 1998 
Q 1788 866 1684 0 
L 1047 0 
Q 1163 853 1594 1947 
Q 2025 3041 2747 4300 
L 347 4300 
L 347 4841 
L 3422 4841 
L 3422 4463 
z
" transform="scale(0.015625)"/>
      <path id="MicrosoftYaHei-2e" d="M 372 322 
Q 372 491 487 606 
Q 603 722 775 722 
Q 950 722 1065 605 
Q 1181 488 1181 322 
Q 1181 159 1065 42 
Q 950 -75 772 -75 
Q 600 -75 486 42 
Q 372 159 372 322 
z
" transform="scale(0.015625)"/>
      <path id="MicrosoftYaHei-35" d="M 3294 1494 
Q 3294 784 2823 350 
Q 2353 -84 1559 -84 
Q 878 -84 544 119 
L 544 744 
Q 1034 425 1544 425 
Q 2050 425 2361 704 
Q 2672 984 2672 1447 
Q 2672 1909 2348 2167 
Q 2025 2425 1434 2425 
Q 978 2425 613 2384 
L 791 4841 
L 3053 4841 
L 3053 4303 
L 1306 4303 
L 1206 2931 
L 1647 2950 
Q 2416 2950 2855 2567 
Q 3294 2184 3294 1494 
z
" transform="scale(0.015625)"/>
      <path id="MicrosoftYaHei-68" d="M 3466 0 
L 2856 0 
L 2856 1988 
Q 2856 3031 2081 3031 
Q 1684 3031 1421 2726 
Q 1159 2422 1159 1959 
L 1159 0 
L 547 0 
L 547 5116 
L 1159 5116 
L 1159 2888 
L 1172 2888 
Q 1569 3538 2300 3538 
Q 3466 3538 3466 2128 
L 3466 0 
z
" transform="scale(0.015625)"/>
     </defs>
     <use xlink:href="#MicrosoftYaHei-37"/>
     <use xlink:href="#MicrosoftYaHei-2e" transform="translate(58.642578 0)"/>
     <use xlink:href="#MicrosoftYaHei-35" transform="translate(82.714844 0)"/>
     <use xlink:href="#MicrosoftYaHei-68" transform="translate(141.357422 0)"/>
    </g>
   </g>
   <g id="text_16">
    <!-- 1.0h -->
    <g style="fill: #555555" transform="translate(98.287789 168.395941) scale(0.09 -0.09)">
     <defs>
      <path id="MicrosoftYaHei-31" d="M 1781 0 
L 1781 4141 
Q 1638 3997 1295 3819 
Q 953 3641 663 3569 
L 663 4169 
Q 1047 4275 1484 4508 
Q 1922 4741 2156 4947 
L 2388 4947 
L 2388 0 
L 1781 0 
z
" transform="scale(0.015625)"/>
     </defs>
     <use xlink:href="#MicrosoftYaHei-31"/>
     <use xlink:href="#MicrosoftYaHei-2e" transform="translate(58.642578 0)"/>
     <use xlink:href="#MicrosoftYaHei-30" transform="translate(82.714844 0)"/>
     <use xlink:href="#MicrosoftYaHei-68" transform="translate(141.357422 0)"/>
    </g>
   </g>
   <g id="text_17">
    <!-- 3.0h -->
    <g style="fill: #555555" transform="translate(189.883579 147.089721) scale(0.09 -0.09)">
     <defs>
      <path id="MicrosoftYaHei-33" d="M 447 809 
Q 944 425 1569 425 
Q 2069 425 2361 670 
Q 2653 916 2653 1328 
Q 2653 2247 1338 2247 
L 934 2247 
L 934 2753 
L 1319 2753 
Q 2484 2753 2484 3616 
Q 2484 4413 1594 4413 
Q 1084 4413 634 4069 
L 634 4647 
Q 1109 4922 1744 4922 
Q 2363 4922 2738 4598 
Q 3113 4275 3113 3759 
Q 3113 2809 2144 2538 
L 2144 2525 
Q 2669 2469 2973 2155 
Q 3278 1841 3278 1372 
Q 3278 719 2808 319 
Q 2338 -81 1556 -81 
Q 869 -81 447 175 
L 447 809 
z
" transform="scale(0.015625)"/>
     </defs>
     <use xlink:href="#MicrosoftYaHei-33"/>
     <use xlink:href="#MicrosoftYaHei-2e" transform="translate(58.642578 0)"/>
     <use xlink:href="#MicrosoftYaHei-30" transform="translate(82.714844 0)"/>
     <use xlink:href="#MicrosoftYaHei-68" transform="translate(141.357422 0)"/>
    </g>
   </g>
   <g id="text_18">
    <!-- 0.8h -->
    <g style="fill: #555555" transform="translate(86.838316 125.783501) scale(0.09 -0.09)">
     <use xlink:href="#MicrosoftYaHei-30"/>
     <use xlink:href="#MicrosoftYaHei-2e" transform="translate(58.642578 0)"/>
     <use xlink:href="#MicrosoftYaHei-38" transform="translate(82.714844 0)"/>
     <use xlink:href="#MicrosoftYaHei-68" transform="translate(141.357422 0)"/>
    </g>
   </g>
   <g id="text_19">
    <!-- 3.0h -->
    <g style="fill: #555555" transform="translate(189.883579 104.477281) scale(0.09 -0.09)">
     <use xlink:href="#MicrosoftYaHei-33"/>
     <use xlink:href="#MicrosoftYaHei-2e" transform="translate(58.642578 0)"/>
     <use xlink:href="#MicrosoftYaHei-30" transform="translate(82.714844 0)"/>
     <use xlink:href="#MicrosoftYaHei-68" transform="translate(141.357422 0)"/>
    </g>
   </g>
   <g id="text_20">
    <!-- 0.5h -->
    <g style="fill: #555555" transform="translate(75.388842 83.17106) scale(0.09 -0.09)">
     <use xlink:href="#MicrosoftYaHei-30"/>
     <use xlink:href="#MicrosoftYaHei-2e" transform="translate(58.642578 0)"/>
     <use xlink:href="#MicrosoftYaHei-35" transform="translate(82.714844 0)"/>
     <use xlink:href="#MicrosoftYaHei-68" transform="translate(141.357422 0)"/>
    </g>
   </g>
   <g id="text_21">
    <!-- 3.5h -->
    <g style="fill: #555555" transform="translate(212.782526 61.86484) scale(0.09 -0.09)">
     <use xlink:href="#MicrosoftYaHei-33"/>
     <use xlink:href="#MicrosoftYaHei-2e" transform="translate(58.642578 0)"/>
     <use xlink:href="#MicrosoftYaHei-35" transform="translate(82.714844 0)"/>
     <use xlink:href="#MicrosoftYaHei-68" transform="translate(141.357422 0)"/>
    </g>
   </g>
   <g id="text_22">
    <!-- 1.0h -->
    <g style="fill: #555555" transform="translate(98.287789 40.55862) scale(0.09 -0.09)">
     <use xlink:href="#MicrosoftYaHei-31"/>
     <use xlink:href="#MicrosoftYaHei-2e" transform="translate(58.642578 0)"/>
     <use xlink:href="#MicrosoftYaHei-30" transform="translate(82.714844 0)"/>
     <use xlink:href="#MicrosoftYaHei-68" transform="translate(141.357422 0)"/>
    </g>
   </g>
   <g id="text_23">
    <!-- 合计 20.2h -->
    <g style="fill: #999999" transform="translate(413.927724 193.615511) scale(0.08 -0.08)">
     <defs>
      <path id="MicrosoftYaHei-5408" d="M 1025 1909 
L 5381 1909 
L 5381 -866 
L 4881 -866 
L 4881 -447 
L 1525 -447 
L 1525 -878 
L 1025 -878 
L 1025 1909 
z
M 3700 5234 
L 3550 5053 
Q 4594 3697 6319 3009 
Q 6125 2734 5988 2509 
Q 5481 2753 5025 3059 
L 5025 2703 
L 1369 2703 
L 1369 3016 
Q 913 2716 394 2428 
Q 269 2641 81 2897 
Q 2013 3866 3000 5234 
L 3700 5234 
z
M 4881 1453 
L 1525 1453 
L 1525 -3 
L 4881 -3 
L 4881 1453 
z
M 3219 4691 
Q 2581 3872 1550 3147 
L 4894 3147 
Q 3944 3797 3219 4691 
z
" transform="scale(0.015625)"/>
      <path id="MicrosoftYaHei-8ba1" d="M 2100 3153 
L 3919 3153 
L 3919 5303 
L 4456 5303 
L 4456 3153 
L 6288 3153 
L 6288 2703 
L 4456 2703 
L 4456 -822 
L 3919 -822 
L 3919 2703 
L 2100 2703 
L 2100 3153 
z
M 2675 903 
Q 2694 578 2719 359 
Q 1719 -266 1069 -728 
L 769 -303 
Q 988 -116 988 266 
L 988 2741 
L 100 2741 
L 100 3191 
L 1488 3191 
L 1488 153 
Q 2031 484 2675 903 
z
M 738 5222 
Q 1419 4522 1725 4184 
L 1288 3816 
Q 894 4334 356 4891 
L 738 5222 
z
" transform="scale(0.015625)"/>
     </defs>
     <use xlink:href="#MicrosoftYaHei-5408"/>
     <use xlink:href="#MicrosoftYaHei-8ba1" transform="translate(100 0)"/>
     <use xlink:href="#MicrosoftYaHei-20" transform="translate(200 0)"/>
     <use xlink:href="#MicrosoftYaHei-32" transform="translate(229.589844 0)"/>
     <use xlink:href="#MicrosoftYaHei-30" transform="translate(288.232422 0)"/>
     <use xlink:href="#MicrosoftYaHei-2e" transform="translate(346.875 0)"/>
     <use xlink:href="#MicrosoftYaHei-32" transform="translate(370.947266 0)"/>
     <use xlink:href="#MicrosoftYaHei-68" transform="translate(429.589844 0)"/>
    </g>
   </g>
   <g id="text_24">
    <!-- 冲刺期推荐每日作息安排 -->
    <g style="fill: #1a1a2e" transform="translate(196.24 17.591875) scale(0.13 -0.13)">
     <defs>
      <path id="MicrosoftYaHei-Bold-51b2" d="M 3563 -809 
L 3563 1234 
L 2769 1234 
L 2769 853 
L 1913 853 
L 1913 4222 
L 3563 4222 
L 3563 5291 
L 4425 5291 
L 4425 4222 
L 6075 4222 
L 6075 866 
L 5219 866 
L 5219 1234 
L 4425 1234 
L 4425 -809 
L 3563 -809 
z
M 5219 3447 
L 4425 3447 
L 4425 2009 
L 5219 2009 
L 5219 3447 
z
M 2769 2009 
L 3563 2009 
L 3563 3447 
L 2769 3447 
L 2769 2009 
z
M 663 5003 
Q 1113 4559 1769 3791 
L 1100 3172 
Q 600 3834 50 4441 
L 663 5003 
z
M 1031 2484 
Q 1431 2241 1825 2041 
Q 1525 1253 775 -584 
Q 444 -309 19 -47 
Q 481 947 1031 2484 
z
" transform="scale(0.015625)"/>
      <path id="MicrosoftYaHei-Bold-523a" d="M 375 3584 
L 1588 3584 
L 1588 4034 
L 200 4034 
L 200 4772 
L 1588 4772 
L 1588 5328 
L 2350 5328 
L 2350 4772 
L 3788 4772 
L 3788 4034 
L 2350 4034 
L 2350 3584 
L 3688 3584 
L 3688 2166 
Q 3688 1903 3581 1742 
Q 3475 1581 3289 1529 
Q 3103 1478 2569 1478 
Q 2513 1891 2431 2259 
Q 2603 2241 2694 2241 
Q 2938 2241 2938 2441 
L 2938 2884 
L 2350 2884 
L 2350 972 
L 2625 1341 
Q 3206 1028 3888 616 
L 3425 -47 
Q 2844 353 2350 675 
L 2350 -822 
L 1588 -822 
L 1588 938 
Q 1141 138 419 -522 
Q 269 -84 75 359 
Q 1088 1106 1588 2194 
L 1588 2884 
L 1131 2884 
L 1131 1484 
L 375 1484 
L 375 3584 
z
M 5213 5322 
L 6025 5322 
L 6025 103 
Q 6025 -275 5856 -492 
Q 5688 -709 5406 -759 
Q 5125 -809 4281 -809 
Q 4200 -322 4119 72 
Q 4538 41 4863 41 
Q 5213 41 5213 397 
L 5213 5322 
z
M 4056 4834 
L 4819 4834 
L 4819 653 
L 4056 653 
L 4056 4834 
z
" transform="scale(0.015625)"/>
      <path id="MicrosoftYaHei-Bold-671f" d="M 3444 3997 
L 3088 3997 
L 3088 1334 
L 3444 1334 
L 3444 597 
L 2500 597 
Q 2850 253 3191 -131 
Q 3638 484 3638 2191 
L 3638 5059 
L 5994 5059 
L 5994 -72 
Q 5994 -391 5845 -561 
Q 5697 -731 5423 -757 
Q 5150 -784 4581 -784 
Q 4525 -466 4394 47 
Q 4738 22 4938 22 
Q 5219 22 5219 309 
L 5219 1109 
L 4375 1109 
Q 4313 -47 3775 -878 
Q 3516 -678 3172 -459 
L 2719 -803 
Q 2319 -291 1900 172 
L 2469 597 
L 1094 597 
L 1656 172 
Q 1194 -403 719 -872 
Q 406 -572 131 -341 
Q 597 84 969 597 
L 106 597 
L 106 1334 
L 588 1334 
L 588 3997 
L 188 3997 
L 188 4734 
L 588 4734 
L 588 5253 
L 1350 5253 
L 1350 4734 
L 2306 4734 
L 2306 5253 
L 3088 5253 
L 3088 4734 
L 3444 4734 
L 3444 3997 
z
M 5219 4259 
L 4413 4259 
L 4413 3403 
L 5219 3403 
L 5219 4259 
z
M 1350 3572 
L 2306 3572 
L 2306 3997 
L 1350 3997 
L 1350 3572 
z
M 1350 2472 
L 2306 2472 
L 2306 2897 
L 1350 2897 
L 1350 2472 
z
M 4409 1853 
L 5219 1853 
L 5219 2659 
L 4413 2659 
L 4409 1853 
z
M 1350 1334 
L 2306 1334 
L 2306 1797 
L 1350 1797 
L 1350 1334 
z
" transform="scale(0.015625)"/>
      <path id="MicrosoftYaHei-Bold-63a8" d="M 4488 5353 
Q 4863 4822 5081 4459 
L 4650 4234 
L 6175 4234 
L 6175 3559 
L 4988 3559 
L 4988 2891 
L 6125 2891 
L 6125 2247 
L 4988 2247 
L 4988 1572 
L 6125 1572 
L 6125 928 
L 4988 928 
L 4988 253 
L 6250 253 
L 6250 -409 
L 3200 -409 
L 3200 -847 
L 2388 -847 
L 2388 2484 
Q 2319 2384 2256 2284 
Q 2063 2722 1856 3072 
Q 2650 4209 2944 5347 
L 3744 5153 
Q 3575 4703 3356 4234 
L 4306 4234 
Q 4119 4597 3869 5009 
L 4488 5353 
z
M 144 4172 
L 788 4172 
L 788 5303 
L 1613 5303 
L 1613 4172 
L 2031 4172 
L 2031 3372 
L 1613 3372 
L 1613 2484 
Q 1813 2547 2031 2616 
Q 2000 2084 2006 1766 
Q 1806 1703 1613 1634 
L 1613 -59 
Q 1613 -759 1013 -784 
Q 669 -816 319 -822 
Q 256 -447 131 3 
Q 313 -16 581 -16 
Q 788 -16 788 284 
L 788 1366 
Q 456 1253 119 1141 
L 69 2041 
Q 356 2109 788 2234 
L 788 3372 
L 144 3372 
L 144 4172 
z
M 3200 253 
L 4175 253 
L 4175 928 
L 3200 928 
L 3200 253 
z
M 3200 1572 
L 4175 1572 
L 4175 2247 
L 3200 2247 
L 3200 1572 
z
M 3200 2891 
L 4175 2891 
L 4175 3559 
L 3200 3559 
L 3200 2891 
z
" transform="scale(0.015625)"/>
      <path id="MicrosoftYaHei-Bold-8350" d="M 4825 5297 
L 4825 4828 
L 6238 4828 
L 6238 4116 
L 4825 4116 
L 4825 3753 
L 3975 3753 
L 3975 4116 
L 2456 4116 
L 2456 3816 
L 2781 3759 
Q 2738 3663 2691 3566 
L 6225 3566 
L 6225 2853 
L 2306 2853 
Q 2084 2488 1819 2134 
L 1819 -822 
L 975 -822 
L 975 1163 
Q 666 850 319 547 
Q 219 1034 94 1541 
Q 831 2163 1319 2853 
L 175 2853 
L 175 3566 
L 1741 3566 
Q 1788 3659 1828 3753 
L 1606 3753 
L 1606 4116 
L 150 4116 
L 150 4828 
L 1606 4828 
L 1606 5278 
L 2456 5278 
L 2456 4828 
L 3975 4828 
L 3975 5297 
L 4825 5297 
z
M 2100 1284 
L 3906 1284 
L 3906 1522 
L 4713 1853 
L 2456 1853 
L 2456 2541 
L 5913 2541 
L 5913 1803 
L 4763 1322 
L 4763 1284 
L 6263 1284 
L 6263 584 
L 4763 584 
L 4763 47 
Q 4763 -200 4678 -372 
Q 4594 -544 4414 -650 
Q 4234 -756 3915 -770 
Q 3597 -784 2906 -791 
Q 2844 -459 2744 -28 
Q 3213 -53 3488 -53 
Q 3781 -53 3843 36 
Q 3906 125 3906 234 
L 3906 584 
L 2100 584 
L 2100 1284 
z
" transform="scale(0.015625)"/>
      <path id="MicrosoftYaHei-Bold-6bcf" d="M 119 2384 
L 869 2384 
L 1009 3381 
Q 759 3106 494 2872 
Q 325 3284 113 3734 
Q 869 4384 1369 5353 
L 2313 5353 
Q 2209 5147 2103 4953 
L 6181 4953 
L 6181 4266 
L 1691 4266 
Q 1566 4078 1434 3903 
L 5688 3903 
L 5622 2384 
L 6325 2384 
L 6325 1697 
L 5591 1697 
L 5547 841 
L 6125 841 
L 6125 166 
L 5509 166 
Q 5453 -378 5142 -570 
Q 4831 -763 4453 -786 
Q 4075 -809 3056 -809 
Q 2950 -434 2825 -84 
Q 3519 -103 3969 -103 
Q 4509 -103 4613 166 
L 563 166 
L 775 1697 
L 119 1697 
L 119 2384 
z
M 3988 2728 
L 3644 2384 
L 4775 2384 
L 4813 3228 
L 3297 3228 
Q 3669 2984 3988 2728 
z
M 2531 2891 
L 2872 3228 
L 1844 3228 
L 1722 2384 
L 3172 2384 
Q 2866 2644 2531 2891 
z
M 3838 1178 
L 3481 841 
L 4697 841 
Q 4719 1172 4744 1697 
L 3116 1697 
Q 3456 1466 3838 1178 
z
M 2369 1353 
L 2728 1697 
L 1622 1697 
L 1500 841 
L 3019 841 
Q 2725 1094 2369 1353 
z
" transform="scale(0.015625)"/>
      <path id="MicrosoftYaHei-Bold-65e5" d="M 750 -778 
L 750 4972 
L 5688 4972 
L 5688 -778 
L 4725 -778 
L 4725 -341 
L 1713 -341 
L 1713 -778 
L 750 -778 
z
M 4725 4084 
L 1713 4084 
L 1713 2772 
L 4725 2772 
L 4725 4084 
z
M 1713 547 
L 4725 547 
L 4725 1909 
L 1713 1909 
L 1713 547 
z
" transform="scale(0.015625)"/>
      <path id="MicrosoftYaHei-Bold-4f5c" d="M 5944 1984 
L 4250 1984 
L 4250 1216 
L 6088 1216 
L 6088 428 
L 4250 428 
L 4250 -834 
L 3369 -834 
L 3369 3541 
L 3184 3541 
Q 2800 2681 2313 2041 
Q 2131 2384 1831 2853 
Q 2544 3922 2944 5328 
L 3756 5134 
Q 3638 4722 3506 4347 
L 6300 4347 
L 6300 3541 
L 4250 3541 
L 4250 2772 
L 5944 2772 
L 5944 1984 
z
M 1319 5291 
L 2156 5047 
Q 1956 4419 1706 3828 
L 1706 -828 
L 856 -828 
L 856 2163 
Q 600 1744 313 1347 
Q 244 1828 100 2509 
Q 856 3703 1319 5291 
z
" transform="scale(0.015625)"/>
      <path id="MicrosoftYaHei-Bold-606f" d="M 706 4828 
L 2531 4828 
Q 2606 5075 2669 5353 
L 3738 5241 
L 3547 4828 
L 5713 4828 
L 5713 1384 
L 3550 1384 
L 4094 716 
L 3400 228 
Q 3175 578 2738 1134 
L 3122 1384 
L 706 1384 
L 706 4828 
z
M 4894 4184 
L 1525 4184 
L 1525 3834 
L 4894 3834 
L 4894 4184 
z
M 1525 2934 
L 4894 2934 
L 4894 3284 
L 1525 3284 
L 1525 2934 
z
M 4894 2028 
L 4894 2384 
L 1525 2384 
L 1525 2028 
L 4894 2028 
z
M 5569 1328 
Q 6081 466 6313 22 
L 5569 -372 
Q 5275 309 4863 991 
L 5569 1328 
z
M 644 1197 
L 1425 922 
Q 1019 -97 819 -534 
L 88 -197 
Q 431 484 644 1197 
z
M 4288 791 
Q 4806 484 5106 347 
Q 4875 -384 4609 -559 
Q 4344 -734 3938 -734 
L 2531 -734 
Q 1594 -734 1594 78 
L 1594 1122 
L 2456 1122 
L 2456 284 
Q 2456 -28 2863 -28 
L 3606 -28 
Q 3947 -28 4078 105 
Q 4209 238 4288 791 
z
" transform="scale(0.015625)"/>
      <path id="MicrosoftYaHei-Bold-5b89" d="M 2581 5134 
L 3613 5341 
L 3850 4672 
L 6069 4672 
L 6069 3309 
L 5163 3309 
L 5163 3897 
L 1263 3897 
L 1263 3334 
L 356 3334 
L 356 4672 
L 2756 4672 
Q 2669 4916 2581 5134 
z
M 113 2847 
L 2006 2847 
Q 2222 3303 2413 3784 
L 3419 3522 
L 3050 2847 
L 6294 2847 
L 6294 2059 
L 5156 2059 
Q 4863 1197 4328 647 
L 6125 -34 
L 5675 -872 
L 3547 59 
Q 2484 -528 550 -847 
Q 294 -328 106 -9 
Q 1584 172 2488 506 
Q 1663 844 1006 1091 
Q 1322 1556 1600 2059 
L 113 2059 
L 113 2847 
z
M 2219 1434 
L 3413 991 
Q 3894 1369 4153 2059 
L 2600 2059 
Q 2400 1719 2219 1434 
z
" transform="scale(0.015625)"/>
      <path id="MicrosoftYaHei-Bold-6392" d="M 4300 5316 
L 5100 5316 
L 5100 4228 
L 6188 4228 
L 6188 3428 
L 5100 3428 
L 5100 2778 
L 6075 2778 
L 6075 1978 
L 5100 1978 
L 5100 1316 
L 6294 1316 
L 6294 516 
L 5100 516 
L 5100 -847 
L 4300 -847 
L 4300 5316 
z
M 1844 1316 
L 2925 1316 
L 2925 1978 
L 2150 1978 
L 2150 2778 
L 2925 2778 
L 2925 3428 
L 2138 3428 
L 2138 4228 
L 2925 4228 
L 2925 5316 
L 3750 5316 
L 3750 -847 
L 2925 -847 
L 2925 516 
L 1844 516 
L 1844 1316 
z
M 113 4153 
L 738 4153 
L 738 5253 
L 1531 5253 
L 1531 4153 
L 2000 4153 
L 2000 3378 
L 1531 3378 
L 1531 2597 
Q 1759 2681 1938 2753 
Q 1981 2259 2025 1922 
L 1531 1719 
L 1531 -3 
Q 1531 -350 1406 -542 
Q 1281 -734 1007 -771 
Q 734 -809 250 -809 
Q 188 -447 94 3 
L 581 3 
Q 738 3 738 253 
L 738 1375 
L 263 1159 
L 100 2059 
L 738 2297 
L 738 3378 
L 113 3378 
L 113 4153 
z
" transform="scale(0.015625)"/>
     </defs>
     <use xlink:href="#MicrosoftYaHei-Bold-51b2"/>
     <use xlink:href="#MicrosoftYaHei-Bold-523a" transform="translate(100 0)"/>
     <use xlink:href="#MicrosoftYaHei-Bold-671f" transform="translate(200 0)"/>
     <use xlink:href="#MicrosoftYaHei-Bold-63a8" transform="translate(300 0)"/>
     <use xlink:href="#MicrosoftYaHei-Bold-8350" transform="translate(400 0)"/>
     <use xlink:href="#MicrosoftYaHei-Bold-6bcf" transform="translate(500 0)"/>
     <use xlink:href="#MicrosoftYaHei-Bold-65e5" transform="translate(600 0)"/>
     <use xlink:href="#MicrosoftYaHei-Bold-4f5c" transform="translate(700 0)"/>
     <use xlink:href="#MicrosoftYaHei-Bold-606f" transform="translate(800 0)"/>
     <use xlink:href="#MicrosoftYaHei-Bold-5b89" transform="translate(900 0)"/>
     <use xlink:href="#MicrosoftYaHei-Bold-6392" transform="translate(1000 0)"/>
    </g>
   </g>
  </g>
 </g>
 <defs>
  <clipPath id="pa2f74352fb">
   <rect x="50.2" y="23.591875" width="435.08" height="178.12"/>
  </clipPath>
 </defs>
</svg>
