<?xml version="1.0" encoding="utf-8" standalone="no"?>
<!DOCTYPE svg PUBLIC "-//W3C//DTD SVG 1.1//EN"
  "http://www.w3.org/Graphics/SVG/1.1/DTD/svg11.dtd">
<svg xmlns:xlink="http://www.w3.org/1999/xlink" width="396pt" height="252pt" viewBox="0 0 396 252" xmlns="http://www.w3.org/2000/svg" version="1.1">
 <metadata>
  <rdf:RDF xmlns:dc="http://purl.org/dc/elements/1.1/" xmlns:cc="http://creativecommons.org/ns#" xmlns:rdf="http://www.w3.org/1999/02/22-rdf-syntax-ns#">
   <cc:Work>
    <dc:type rdf:resource="http://purl.org/dc/dcmitype/StillImage"/>
    <dc:date>2026-05-22T22:03:22.346676</dc:date>
    <dc:format>image/svg+xml</dc:format>
    <dc:creator>
     <cc:Agent>
      <dc:title>Matplotlib v3.10.9, https://matplotlib.org/</dc:title>
     </cc:Agent>
    </dc:creator>
   </cc:Work>
  </rdf:RDF>
 </metadata>
 <defs>
  <style type="text/css">*{stroke-linejoin: round; stroke-linecap: butt}</style>
 </defs>
 <g id="figure_1">
  <g id="patch_1">
   <path d="M 0 252 
L 396 252 
L 396 0 
L 0 0 
z
" style="fill: #ffffff"/>
  </g>
  <g id="axes_1">
   <g id="patch_2">
    <path d="M 39.6 221.76 
L 376.2 221.76 
L 376.2 20.16 
L 39.6 20.16 
z
" style="fill: #ffffff"/>
   </g>
   <g id="matplotlib.axis_1">
    <g id="xtick_1">
     <g id="line2d_1">
      <path d="M 88.9 221.76 
L 88.9 20.16 
" clip-path="url(#p662576cefa)" style="fill: none; stroke: #b0b0b0; stroke-opacity: 0.3; stroke-width: 0.8; stroke-linecap: square"/>
     </g>
     <g id="line2d_2">
      <defs>
       <path id="mfe390120f6" d="M 0 0 
L 0 3.5 
" style="stroke: #000000; stroke-width: 0.8"/>
      </defs>
      <g>
       <use xlink:href="#mfe390120f6" x="88.9" y="221.76" style="stroke: #000000; stroke-width: 0.8"/>
      </g>
     </g>
     <g id="text_1">
      <!-- -1 -->
      <g transform="translate(83.804688 236.75375) scale(0.1 -0.1)">
       <defs>
        <path id="MicrosoftYaHei-2d" d="M 2328 1681 
L 488 1681 
L 488 2153 
L 2328 2153 
L 2328 1681 
z
" transform="scale(0.015625)"/>
        <path id="MicrosoftYaHei-31" d="M 1781 0 
L 1781 4141 
Q 1638 3997 1295 3819 
Q 953 3641 663 3569 
L 663 4169 
Q 1047 4275 1484 4508 
Q 1922 4741 2156 4947 
L 2388 4947 
L 2388 0 
L 1781 0 
z
" transform="scale(0.015625)"/>
       </defs>
       <use xlink:href="#MicrosoftYaHei-2d"/>
       <use xlink:href="#MicrosoftYaHei-31" transform="translate(43.261719 0)"/>
      </g>
     </g>
    </g>
    <g id="xtick_2">
     <g id="line2d_3">
      <path d="M 156.9 221.76 
L 156.9 20.16 
" clip-path="url(#p662576cefa)" style="fill: none; stroke: #b0b0b0; stroke-opacity: 0.3; stroke-width: 0.8; stroke-linecap: square"/>
     </g>
     <g id="line2d_4">
      <g>
       <use xlink:href="#mfe390120f6" x="156.9" y="221.76" style="stroke: #000000; stroke-width: 0.8"/>
      </g>
     </g>
     <g id="text_2">
      <!-- 0 -->
      <g transform="translate(153.967969 236.75375) scale(0.1 -0.1)">
       <defs>
        <path id="MicrosoftYaHei-30" d="M 284 2325 
Q 284 3606 709 4264 
Q 1134 4922 1941 4922 
Q 3478 4922 3478 2441 
Q 3478 1216 3045 567 
Q 2613 -81 1831 -81 
Q 1094 -81 689 534 
Q 284 1150 284 2325 
z
M 909 2353 
Q 909 425 1888 425 
Q 2850 425 2850 2384 
Q 2850 4413 1906 4413 
Q 909 4413 909 2353 
z
" transform="scale(0.015625)"/>
       </defs>
       <use xlink:href="#MicrosoftYaHei-30"/>
      </g>
     </g>
    </g>
    <g id="xtick_3">
     <g id="line2d_5">
      <path d="M 224.9 221.76 
L 224.9 20.16 
" clip-path="url(#p662576cefa)" style="fill: none; stroke: #b0b0b0; stroke-opacity: 0.3; stroke-width: 0.8; stroke-linecap: square"/>
     </g>
     <g id="line2d_6">
      <g>
       <use xlink:href="#mfe390120f6" x="224.9" y="221.76" style="stroke: #000000; stroke-width: 0.8"/>
      </g>
     </g>
     <g id="text_3">
      <!-- 1 -->
      <g transform="translate(221.967969 236.75375) scale(0.1 -0.1)">
       <use xlink:href="#MicrosoftYaHei-31"/>
      </g>
     </g>
    </g>
    <g id="xtick_4">
     <g id="line2d_7">
      <path d="M 292.9 221.76 
L 292.9 20.16 
" clip-path="url(#p662576cefa)" style="fill: none; stroke: #b0b0b0; stroke-opacity: 0.3; stroke-width: 0.8; stroke-linecap: square"/>
     </g>
     <g id="line2d_8">
      <g>
       <use xlink:href="#mfe390120f6" x="292.9" y="221.76" style="stroke: #000000; stroke-width: 0.8"/>
      </g>
     </g>
     <g id="text_4">
      <!-- 2 -->
      <g transform="translate(289.967969 236.75375) scale(0.1 -0.1)">
       <defs>
        <path id="MicrosoftYaHei-32" d="M 2666 3572 
Q 2666 3963 2419 4186 
Q 2172 4409 1747 4409 
Q 1447 4409 1140 4256 
Q 834 4103 569 3819 
L 569 4413 
Q 806 4659 1107 4790 
Q 1409 4922 1816 4922 
Q 2472 4922 2872 4570 
Q 3272 4219 3272 3619 
Q 3272 3084 3026 2693 
Q 2781 2303 2188 1894 
Q 1581 1475 1376 1294 
Q 1172 1113 1090 947 
Q 1009 781 1009 544 
L 3416 544 
L 3416 0 
L 372 0 
L 372 241 
Q 372 659 486 951 
Q 600 1244 862 1520 
Q 1125 1797 1681 2184 
Q 2250 2584 2458 2886 
Q 2666 3188 2666 3572 
z
" transform="scale(0.015625)"/>
       </defs>
       <use xlink:href="#MicrosoftYaHei-32"/>
      </g>
     </g>
    </g>
    <g id="xtick_5">
     <g id="line2d_9">
      <path d="M 360.9 221.76 
L 360.9 20.16 
" clip-path="url(#p662576cefa)" style="fill: none; stroke: #b0b0b0; stroke-opacity: 0.3; stroke-width: 0.8; stroke-linecap: square"/>
     </g>
     <g id="line2d_10">
      <g>
       <use xlink:href="#mfe390120f6" x="360.9" y="221.76" style="stroke: #000000; stroke-width: 0.8"/>
      </g>
     </g>
     <g id="text_5">
      <!-- 3 -->
      <g transform="translate(357.967969 236.75375) scale(0.1 -0.1)">
       <defs>
        <path id="MicrosoftYaHei-33" d="M 447 809 
Q 944 425 1569 425 
Q 2069 425 2361 670 
Q 2653 916 2653 1328 
Q 2653 2247 1338 2247 
L 934 2247 
L 934 2753 
L 1319 2753 
Q 2484 2753 2484 3616 
Q 2484 4413 1594 4413 
Q 1084 4413 634 4069 
L 634 4647 
Q 1109 4922 1744 4922 
Q 2363 4922 2738 4598 
Q 3113 4275 3113 3759 
Q 3113 2809 2144 2538 
L 2144 2525 
Q 2669 2469 2973 2155 
Q 3278 1841 3278 1372 
Q 3278 719 2808 319 
Q 2338 -81 1556 -81 
Q 869 -81 447 175 
L 447 809 
z
" transform="scale(0.015625)"/>
       </defs>
       <use xlink:href="#MicrosoftYaHei-33"/>
      </g>
     </g>
    </g>
   </g>
   <g id="matplotlib.axis_2">
    <g id="ytick_1">
     <g id="line2d_11">
      <path d="M 39.6 221.76 
L 376.2 221.76 
" clip-path="url(#p662576cefa)" style="fill: none; stroke: #b0b0b0; stroke-opacity: 0.3; stroke-width: 0.8; stroke-linecap: square"/>
     </g>
     <g id="line2d_12">
      <defs>
       <path id="m709464c236" d="M 0 0 
L -3.5 0 
" style="stroke: #000000; stroke-width: 0.8"/>
      </defs>
      <g>
       <use xlink:href="#m709464c236" x="39.6" y="221.76" style="stroke: #000000; stroke-width: 0.8"/>
      </g>
     </g>
     <g id="text_6">
      <!-- -2 -->
      <g transform="translate(22.409375 225.756875) scale(0.1 -0.1)">
       <use xlink:href="#MicrosoftYaHei-2d"/>
       <use xlink:href="#MicrosoftYaHei-32" transform="translate(43.261719 0)"/>
      </g>
     </g>
    </g>
    <g id="ytick_2">
     <g id="line2d_13">
      <path d="M 39.6 196.56 
L 376.2 196.56 
" clip-path="url(#p662576cefa)" style="fill: none; stroke: #b0b0b0; stroke-opacity: 0.3; stroke-width: 0.8; stroke-linecap: square"/>
     </g>
     <g id="line2d_14">
      <g>
       <use xlink:href="#m709464c236" x="39.6" y="196.56" style="stroke: #000000; stroke-width: 0.8"/>
      </g>
     </g>
     <g id="text_7">
      <!-- -1 -->
      <g transform="translate(22.409375 200.556875) scale(0.1 -0.1)">
       <use xlink:href="#MicrosoftYaHei-2d"/>
       <use xlink:href="#MicrosoftYaHei-31" transform="translate(43.261719 0)"/>
      </g>
     </g>
    </g>
    <g id="ytick_3">
     <g id="line2d_15">
      <path d="M 39.6 171.36 
L 376.2 171.36 
" clip-path="url(#p662576cefa)" style="fill: none; stroke: #b0b0b0; stroke-opacity: 0.3; stroke-width: 0.8; stroke-linecap: square"/>
     </g>
     <g id="line2d_16">
      <g>
       <use xlink:href="#m709464c236" x="39.6" y="171.36" style="stroke: #000000; stroke-width: 0.8"/>
      </g>
     </g>
     <g id="text_8">
      <!-- 0 -->
      <g transform="translate(26.735938 175.356875) scale(0.1 -0.1)">
       <use xlink:href="#MicrosoftYaHei-30"/>
      </g>
     </g>
    </g>
    <g id="ytick_4">
     <g id="line2d_17">
      <path d="M 39.6 146.16 
L 376.2 146.16 
" clip-path="url(#p662576cefa)" style="fill: none; stroke: #b0b0b0; stroke-opacity: 0.3; stroke-width: 0.8; stroke-linecap: square"/>
     </g>
     <g id="line2d_18">
      <g>
       <use xlink:href="#m709464c236" x="39.6" y="146.16" style="stroke: #000000; stroke-width: 0.8"/>
      </g>
     </g>
     <g id="text_9">
      <!-- 1 -->
      <g transform="translate(26.735938 150.156875) scale(0.1 -0.1)">
       <use xlink:href="#MicrosoftYaHei-31"/>
      </g>
     </g>
    </g>
    <g id="ytick_5">
     <g id="line2d_19">
      <path d="M 39.6 120.96 
L 376.2 120.96 
" clip-path="url(#p662576cefa)" style="fill: none; stroke: #b0b0b0; stroke-opacity: 0.3; stroke-width: 0.8; stroke-linecap: square"/>
     </g>
     <g id="line2d_20">
      <g>
       <use xlink:href="#m709464c236" x="39.6" y="120.96" style="stroke: #000000; stroke-width: 0.8"/>
      </g>
     </g>
     <g id="text_10">
      <!-- 2 -->
      <g transform="translate(26.735938 124.956875) scale(0.1 -0.1)">
       <use xlink:href="#MicrosoftYaHei-32"/>
      </g>
     </g>
    </g>
    <g id="ytick_6">
     <g id="line2d_21">
      <path d="M 39.6 95.76 
L 376.2 95.76 
" clip-path="url(#p662576cefa)" style="fill: none; stroke: #b0b0b0; stroke-opacity: 0.3; stroke-width: 0.8; stroke-linecap: square"/>
     </g>
     <g id="line2d_22">
      <g>
       <use xlink:href="#m709464c236" x="39.6" y="95.76" style="stroke: #000000; stroke-width: 0.8"/>
      </g>
     </g>
     <g id="text_11">
      <!-- 3 -->
      <g transform="translate(26.735938 99.756875) scale(0.1 -0.1)">
       <use xlink:href="#MicrosoftYaHei-33"/>
      </g>
     </g>
    </g>
    <g id="ytick_7">
     <g id="line2d_23">
      <path d="M 39.6 70.56 
L 376.2 70.56 
" clip-path="url(#p662576cefa)" style="fill: none; stroke: #b0b0b0; stroke-opacity: 0.3; stroke-width: 0.8; stroke-linecap: square"/>
     </g>
     <g id="line2d_24">
      <g>
       <use xlink:href="#m709464c236" x="39.6" y="70.56" style="stroke: #000000; stroke-width: 0.8"/>
      </g>
     </g>
     <g id="text_12">
      <!-- 4 -->
      <g transform="translate(26.735938 74.556875) scale(0.1 -0.1)">
       <defs>
        <path id="MicrosoftYaHei-34" d="M 2906 4841 
L 2906 1644 
L 3631 1644 
L 3631 1138 
L 2906 1138 
L 2906 0 
L 2313 0 
L 2313 1138 
L 53 1138 
L 53 1616 
Q 656 2294 1265 3178 
Q 1875 4063 2272 4841 
L 2906 4841 
z
M 741 1644 
L 2313 1644 
L 2313 3950 
Q 1988 3366 1616 2817 
Q 1244 2269 741 1644 
z
" transform="scale(0.015625)"/>
       </defs>
       <use xlink:href="#MicrosoftYaHei-34"/>
      </g>
     </g>
    </g>
    <g id="ytick_8">
     <g id="line2d_25">
      <path d="M 39.6 45.36 
L 376.2 45.36 
" clip-path="url(#p662576cefa)" style="fill: none; stroke: #b0b0b0; stroke-opacity: 0.3; stroke-width: 0.8; stroke-linecap: square"/>
     </g>
     <g id="line2d_26">
      <g>
       <use xlink:href="#m709464c236" x="39.6" y="45.36" style="stroke: #000000; stroke-width: 0.8"/>
      </g>
     </g>
     <g id="text_13">
      <!-- 5 -->
      <g transform="translate(26.735938 49.356875) scale(0.1 -0.1)">
       <defs>
        <path id="MicrosoftYaHei-35" d="M 3294 1494 
Q 3294 784 2823 350 
Q 2353 -84 1559 -84 
Q 878 -84 544 119 
L 544 744 
Q 1034 425 1544 425 
Q 2050 425 2361 704 
Q 2672 984 2672 1447 
Q 2672 1909 2348 2167 
Q 2025 2425 1434 2425 
Q 978 2425 613 2384 
L 791 4841 
L 3053 4841 
L 3053 4303 
L 1306 4303 
L 1206 2931 
L 1647 2950 
Q 2416 2950 2855 2567 
Q 3294 2184 3294 1494 
z
" transform="scale(0.015625)"/>
       </defs>
       <use xlink:href="#MicrosoftYaHei-35"/>
      </g>
     </g>
    </g>
    <g id="ytick_9">
     <g id="line2d_27">
      <path d="M 39.6 20.16 
L 376.2 20.16 
" clip-path="url(#p662576cefa)" style="fill: none; stroke: #b0b0b0; stroke-opacity: 0.3; stroke-width: 0.8; stroke-linecap: square"/>
     </g>
     <g id="line2d_28">
      <g>
       <use xlink:href="#m709464c236" x="39.6" y="20.16" style="stroke: #000000; stroke-width: 0.8"/>
      </g>
     </g>
     <g id="text_14">
      <!-- 6 -->
      <g transform="translate(26.735938 24.156875) scale(0.1 -0.1)">
       <defs>
        <path id="MicrosoftYaHei-36" d="M 3181 4219 
Q 2803 4413 2391 4413 
Q 1763 4413 1381 3866 
Q 1000 3319 994 2372 
L 1009 2372 
Q 1353 3038 2106 3038 
Q 2734 3038 3109 2628 
Q 3484 2219 3484 1541 
Q 3484 831 3051 375 
Q 2619 -81 1947 -81 
Q 1209 -81 789 495 
Q 369 1072 369 2131 
Q 369 3413 920 4167 
Q 1472 4922 2372 4922 
Q 2888 4922 3181 4781 
L 3181 4219 
z
M 1031 1584 
Q 1031 1106 1286 765 
Q 1541 425 1963 425 
Q 2363 425 2613 719 
Q 2863 1013 2863 1475 
Q 2863 1975 2627 2253 
Q 2391 2531 1956 2531 
Q 1544 2531 1287 2250 
Q 1031 1969 1031 1584 
z
" transform="scale(0.015625)"/>
       </defs>
       <use xlink:href="#MicrosoftYaHei-36"/>
      </g>
     </g>
    </g>
   </g>
   <g id="line2d_29">
    <path d="M 54.9 165.73712 
L 67.937594 164.548766 
L 80.208271 163.201793 
L 90.945113 161.806389 
L 100.915038 160.29778 
L 110.118045 158.694597 
L 119.321053 156.859075 
L 127.757143 154.943736 
L 135.426316 152.983834 
L 143.095489 150.789943 
L 149.997744 148.59236 
L 156.9 146.16 
L 163.035338 143.780588 
L 169.170677 141.176509 
L 175.306015 138.32655 
L 181.441353 135.207495 
L 186.809774 132.237662 
L 192.178195 129.023865 
L 197.546617 125.546063 
L 202.915038 121.782568 
L 208.283459 117.709913 
L 212.884962 113.953803 
L 217.486466 109.934722 
L 222.08797 105.634261 
L 226.689474 101.032719 
L 231.290977 96.109018 
L 235.892481 90.840602 
L 240.493985 85.203337 
L 245.095489 79.1714 
L 249.696992 72.71716 
L 254.298496 65.811051 
L 258.133083 59.688023 
L 261.967669 53.209791 
L 265.802256 46.355748 
L 269.636842 39.104094 
L 273.471429 31.431762 
L 277.306015 23.314348 
L 281.140602 14.726033 
L 284.975188 5.639499 
L 287.64533 -1 
L 287.64533 -1 
" clip-path="url(#p662576cefa)" style="fill: none; stroke: #0000ff; stroke-width: 2; stroke-linecap: square"/>
   </g>
   <g id="line2d_30">
    <path d="M 54.9 183.96 
L 360.9 70.56 
L 360.9 70.56 
" clip-path="url(#p662576cefa)" style="fill: none; stroke-dasharray: 7.4,3.2; stroke-dashoffset: 0; stroke: #ff0000; stroke-width: 2"/>
   </g>
   <g id="line2d_31">
    <path d="M 91.581788 253 
L 91.71203 251.637146 
L 92.478947 245.559862 
L 93.245865 240.667131 
L 94.779699 233.049653 
L 96.313534 227.208252 
L 97.847368 222.469336 
L 99.381203 218.482091 
L 100.915038 215.040387 
L 102.448872 212.012751 
L 104.749624 208.06032 
L 107.050376 204.644574 
L 109.351128 201.637036 
L 111.65188 198.95047 
L 114.719549 195.76307 
L 117.787218 192.933934 
L 120.854887 190.390601 
L 124.689474 187.534718 
L 128.52406 184.969794 
L 133.125564 182.201159 
L 137.727068 179.706817 
L 143.095489 177.078133 
L 148.46391 174.697938 
L 154.599248 172.22739 
L 161.501504 169.709956 
L 169.170677 167.179404 
L 176.83985 164.879937 
L 185.27594 162.571528 
L 194.478947 160.273228 
L 205.215789 157.832612 
L 216.719549 155.455983 
L 228.990226 153.14597 
L 242.794737 150.777619 
L 258.133083 148.383415 
L 275.005263 145.988521 
L 293.411278 143.611891 
L 313.351128 141.267413 
L 334.824812 138.964943 
L 358.599248 136.639447 
L 360.9 136.425382 
L 360.9 136.425382 
" clip-path="url(#p662576cefa)" style="fill: none; stroke: #008000; stroke-width: 2; stroke-linecap: square"/>
   </g>
   <g id="line2d_32">
    <path d="M 39.6 171.36 
L 376.2 171.36 
" clip-path="url(#p662576cefa)" style="fill: none; stroke: #808080; stroke-width: 0.5; stroke-linecap: square"/>
   </g>
   <g id="line2d_33">
    <path d="M 156.9 221.76 
L 156.9 20.16 
" clip-path="url(#p662576cefa)" style="fill: none; stroke: #808080; stroke-width: 0.5; stroke-linecap: square"/>
   </g>
   <g id="patch_3">
    <path d="M 39.6 221.76 
L 39.6 20.16 
" style="fill: none; stroke: #000000; stroke-width: 0.8; stroke-linejoin: miter; stroke-linecap: square"/>
   </g>
   <g id="patch_4">
    <path d="M 376.2 221.76 
L 376.2 20.16 
" style="fill: none; stroke: #000000; stroke-width: 0.8; stroke-linejoin: miter; stroke-linecap: square"/>
   </g>
   <g id="patch_5">
    <path d="M 39.6 221.76 
L 376.2 221.76 
" style="fill: none; stroke: #000000; stroke-width: 0.8; stroke-linejoin: miter; stroke-linecap: square"/>
   </g>
   <g id="patch_6">
    <path d="M 39.6 20.16 
L 376.2 20.16 
" style="fill: none; stroke: #000000; stroke-width: 0.8; stroke-linejoin: miter; stroke-linecap: square"/>
   </g>
   <g id="text_15">
    <!-- 常用切线放缩：e^x &gt;= x+1, ln(x+1) &lt;= x -->
    <g style="fill: #1a1a2e" transform="translate(92.51625 14.16) scale(0.12 -0.12)">
     <defs>
      <path id="MicrosoftYaHei-5e38" d="M 1213 -372 
L 725 -372 
L 725 1409 
L 2963 1409 
L 2963 1997 
L 1738 1997 
L 1738 1772 
L 1263 1772 
L 1263 3366 
L 5175 3366 
L 5175 1772 
L 4700 1772 
L 4700 1997 
L 3463 1997 
L 3463 1409 
L 5756 1409 
L 5756 341 
Q 5756 -378 5000 -378 
Q 4681 -378 4269 -372 
Q 4231 -153 4175 109 
Q 4556 72 4881 72 
Q 5269 72 5269 409 
L 5269 997 
L 3463 997 
L 3463 -853 
L 2963 -853 
L 2963 997 
L 1213 997 
L 1213 -372 
z
M 356 4216 
L 1828 4216 
Q 1409 4572 956 4903 
L 1244 5228 
Q 1713 4916 2188 4572 
L 1853 4216 
L 2956 4216 
L 2956 5309 
L 3456 5309 
L 3456 4216 
L 4488 4216 
L 4238 4528 
Q 4750 4866 5213 5247 
L 5575 4878 
Q 5128 4547 4631 4216 
L 6056 4216 
L 6056 3109 
L 5569 3109 
L 5569 3791 
L 844 3791 
L 844 3109 
L 356 3109 
L 356 4216 
z
M 4700 2966 
L 1738 2966 
L 1738 2397 
L 4700 2397 
L 4700 2966 
z
" transform="scale(0.015625)"/>
      <path id="MicrosoftYaHei-7528" d="M 3088 -734 
L 3088 1253 
L 1269 1253 
Q 1163 -47 513 -903 
Q 350 -697 144 -472 
Q 550 103 694 803 
Q 831 1478 831 2716 
L 831 4947 
L 5925 4947 
L 5925 -22 
Q 5925 -766 5219 -766 
Q 4788 -766 4250 -747 
Q 4219 -541 4156 -228 
Q 4700 -266 5038 -266 
Q 5425 -266 5425 103 
L 5425 1253 
L 3588 1253 
L 3588 -734 
L 3088 -734 
z
M 3588 1703 
L 5425 1703 
L 5425 2872 
L 3588 2872 
L 3588 1703 
z
M 5425 4484 
L 3588 4484 
L 3588 3322 
L 5425 3322 
L 5425 4484 
z
M 1303 1703 
L 3088 1703 
L 3088 2872 
L 1331 2872 
Q 1350 2266 1303 1703 
z
M 1331 4484 
L 1331 3322 
L 3088 3322 
L 3088 4484 
L 1331 4484 
z
" transform="scale(0.015625)"/>
      <path id="MicrosoftYaHei-5207" d="M 2356 4897 
L 5981 4897 
Q 5875 1528 5806 384 
Q 5731 -659 4831 -653 
Q 4325 -653 3781 -622 
Q 3744 -322 3675 -34 
Q 4231 -128 4744 -128 
Q 5250 -128 5288 459 
Q 5394 1672 5450 4428 
L 3972 4428 
Q 3925 3144 3869 2297 
Q 3763 203 2225 -859 
Q 2069 -678 1831 -453 
Q 3300 497 3381 2353 
Q 3444 3191 3469 4428 
L 2356 4428 
L 2356 4897 
z
M 2694 1722 
Q 2713 1328 2744 1141 
Q 2019 684 1356 228 
Q 1181 103 1044 -34 
L 706 434 
Q 919 634 919 1003 
L 919 3013 
L 144 2928 
L 106 3409 
L 919 3500 
L 919 5353 
L 1406 5353 
L 1406 3553 
L 2681 3697 
L 2719 3216 
L 1406 3069 
L 1406 916 
Q 2056 1309 2694 1722 
z
" transform="scale(0.015625)"/>
      <path id="MicrosoftYaHei-7ebf" d="M 1969 -347 
Q 3144 75 4003 631 
Q 3781 1197 3653 1972 
L 2319 1784 
L 2244 2234 
L 3591 2422 
Q 3538 2859 3513 3356 
L 2381 3228 
L 2306 3678 
L 3488 3809 
Q 3453 4459 3425 5303 
L 3938 5303 
Q 3953 4497 3978 3866 
L 6069 4103 
L 6125 3659 
L 3997 3413 
Q 4019 2919 4069 2488 
L 6225 2791 
L 6281 2347 
L 4128 2041 
Q 4234 1394 4416 916 
Q 5078 1416 5519 2009 
L 5925 1703 
Q 5363 1025 4619 475 
Q 4859 44 5194 -184 
Q 5606 -428 5725 66 
Q 5806 466 5856 953 
Q 6144 828 6338 772 
Q 6231 97 6125 -247 
Q 5944 -778 5506 -778 
Q 5050 -778 4663 -403 
Q 4409 -163 4209 194 
Q 3350 -363 2281 -772 
Q 2169 -597 1969 -347 
z
M 900 1541 
Q 1456 1622 2213 1753 
Q 2175 1522 2156 1272 
Q 1113 1109 325 978 
L 225 1447 
Q 659 1913 1178 2775 
Q 672 2747 225 2703 
L 106 3128 
Q 688 3922 1300 5353 
L 1775 5166 
Q 1131 3897 669 3166 
Q 1041 3178 1422 3194 
Q 1638 3578 1869 4028 
L 2331 3797 
Q 1569 2478 900 1541 
z
M 106 97 
Q 1206 334 2331 616 
Q 2313 366 2313 141 
Q 1269 -103 244 -378 
L 106 97 
z
M 4463 4972 
L 4731 5284 
Q 5175 5003 5681 4609 
L 5381 4247 
Q 4863 4691 4463 4972 
z
" transform="scale(0.015625)"/>
      <path id="MicrosoftYaHei-653e" d="M 3956 5359 
L 4456 5272 
Q 4322 4681 4106 4128 
L 6281 4128 
L 6281 3666 
L 5759 3666 
Q 5638 1816 4884 725 
Q 5447 25 6338 -353 
Q 6131 -628 5994 -847 
Q 5153 -394 4559 322 
Q 3947 -356 3094 -903 
Q 2950 -722 2738 -509 
Q 3669 56 4259 731 
Q 3713 1625 3563 2988 
Q 3378 2669 3163 2366 
Q 3031 2553 2850 2766 
Q 3663 3884 3956 5359 
z
M 156 4184 
L 3169 4184 
L 3169 3722 
L 1400 3722 
Q 1394 3166 1378 2703 
L 2813 2703 
Q 2750 1166 2694 241 
Q 2638 -584 1981 -616 
Q 1600 -622 1263 -609 
Q 1225 -378 1156 -84 
Q 1569 -128 1794 -128 
Q 2175 -128 2206 347 
Q 2269 1078 2306 2241 
L 1359 2241 
Q 1338 216 369 -853 
Q 225 -641 38 -416 
Q 625 247 750 1003 
Q 909 1713 906 3722 
L 156 3722 
L 156 4184 
z
M 5263 3666 
L 3934 3666 
Q 4034 2134 4584 1166 
Q 5188 2131 5263 3666 
z
M 1206 5141 
L 1631 5366 
Q 1900 4966 2144 4503 
L 1706 4272 
Q 1456 4753 1206 5141 
z
" transform="scale(0.015625)"/>
      <path id="MicrosoftYaHei-7f29" d="M 3388 3453 
L 6263 3453 
L 6263 3041 
L 4956 3041 
Q 4875 2713 4797 2422 
L 5888 2422 
L 5888 -797 
L 5438 -797 
L 5438 -491 
L 3994 -491 
L 3994 -797 
L 3544 -797 
L 3544 2422 
L 4325 2422 
Q 4397 2719 4456 3041 
L 3388 3041 
L 3388 3453 
z
M 831 1641 
Q 1375 1709 1788 1791 
Q 1763 1566 1750 1366 
Q 863 1222 288 1103 
L 213 1553 
Q 566 1916 1072 2828 
Q 541 2791 200 2759 
L 88 3141 
Q 625 3947 1144 5291 
L 1613 5128 
Q 1088 4009 600 3191 
Q 819 3191 1272 3200 
Q 1444 3525 1631 3909 
L 2069 3709 
Q 1188 2178 831 1641 
z
M 2194 4503 
L 4078 4503 
Q 3919 4816 3688 5159 
L 4100 5359 
Q 4406 4966 4569 4666 
L 4247 4503 
L 6138 4503 
L 6138 3591 
L 5663 3591 
L 5663 4078 
L 2669 4078 
L 2669 3503 
L 2194 3503 
L 2194 4503 
z
M 1863 1753 
Q 2481 2641 2931 3797 
L 3369 3653 
Q 3144 3113 2900 2628 
L 2900 -809 
L 2463 -809 
L 2463 1838 
Q 2288 1547 2106 1284 
Q 2013 1522 1863 1753 
z
M 3994 -84 
L 5438 -84 
L 5438 766 
L 3994 766 
L 3994 -84 
z
M 5438 2016 
L 3994 2016 
L 3994 1166 
L 5438 1166 
L 5438 2016 
z
M 106 191 
Q 1181 366 2056 553 
Q 2019 284 2013 159 
Q 1463 28 219 -284 
L 106 191 
z
" transform="scale(0.015625)"/>
      <path id="MicrosoftYaHei-ff1a" d="M 1606 3531 
Q 1772 3531 1890 3415 
Q 2009 3300 2009 3138 
Q 2009 2975 1893 2858 
Q 1778 2741 1606 2741 
Q 1434 2741 1318 2858 
Q 1203 2975 1203 3138 
Q 1203 3300 1322 3415 
Q 1441 3531 1606 3531 
z
M 1606 716 
Q 1772 716 1890 600 
Q 2009 484 2009 319 
Q 2009 150 1890 36 
Q 1772 -78 1606 -78 
Q 1441 -78 1322 36 
Q 1203 150 1203 319 
Q 1203 484 1322 600 
Q 1441 716 1606 716 
z
" transform="scale(0.015625)"/>
      <path id="MicrosoftYaHei-65" d="M 3363 1572 
L 944 1572 
Q 959 1019 1246 717 
Q 1534 416 2050 416 
Q 2631 416 3116 788 
L 3116 241 
Q 2659 -81 1906 -81 
Q 1156 -81 736 394 
Q 316 869 316 1713 
Q 316 2506 777 3022 
Q 1238 3538 1922 3538 
Q 2600 3538 2981 3102 
Q 3363 2666 3363 1881 
L 3363 1572 
z
M 2750 2063 
Q 2747 2531 2528 2787 
Q 2309 3044 1913 3044 
Q 1547 3044 1280 2772 
Q 1013 2500 944 2063 
L 2750 2063 
z
" transform="scale(0.015625)"/>
      <path id="MicrosoftYaHei-5e" d="M 3991 2100 
L 3450 2100 
L 2344 4175 
L 2328 4175 
L 1297 2100 
L 766 2100 
L 2194 4922 
L 2450 4922 
L 3991 2100 
z
" transform="scale(0.015625)"/>
      <path id="MicrosoftYaHei-78" d="M 3163 3456 
L 2006 1716 
L 3147 0 
L 2434 0 
L 1775 1100 
Q 1722 1188 1625 1369 
L 1613 1369 
Q 1609 1350 1456 1100 
L 784 0 
L 81 0 
L 1256 1697 
L 134 3456 
L 847 3456 
L 1494 2300 
Q 1553 2194 1638 2025 
L 1650 2025 
L 2491 3456 
L 3163 3456 
z
" transform="scale(0.015625)"/>
      <path id="MicrosoftYaHei-20" transform="scale(0.015625)"/>
      <path id="MicrosoftYaHei-3e" d="M 3844 1866 
L 913 409 
L 913 947 
L 3094 1981 
L 3094 2003 
L 913 3175 
L 913 3716 
L 3844 2103 
L 3844 1866 
z
" transform="scale(0.015625)"/>
      <path id="MicrosoftYaHei-3d" d="M 3972 2497 
L 788 2497 
L 788 2969 
L 3972 2969 
L 3972 2497 
z
M 3972 1053 
L 788 1053 
L 788 1525 
L 3972 1525 
L 3972 1053 
z
" transform="scale(0.015625)"/>
      <path id="MicrosoftYaHei-2b" d="M 3972 1772 
L 2613 1772 
L 2613 419 
L 2141 419 
L 2141 1772 
L 788 1772 
L 788 2250 
L 2141 2250 
L 2141 3603 
L 2613 3603 
L 2613 2250 
L 3972 2250 
L 3972 1772 
z
" transform="scale(0.015625)"/>
      <path id="MicrosoftYaHei-2c" d="M 1109 778 
L 575 -888 
L 131 -888 
L 519 778 
L 1109 778 
z
" transform="scale(0.015625)"/>
      <path id="MicrosoftYaHei-6c" d="M 544 0 
L 544 5116 
L 1156 5116 
L 1156 0 
L 544 0 
z
" transform="scale(0.015625)"/>
      <path id="MicrosoftYaHei-6e" d="M 3469 0 
L 2859 0 
L 2859 1966 
Q 2859 3031 2081 3031 
Q 1678 3031 1418 2731 
Q 1159 2431 1159 1972 
L 1159 0 
L 547 0 
L 547 3456 
L 1159 3456 
L 1159 2884 
L 1172 2884 
Q 1563 3538 2306 3538 
Q 2875 3538 3172 3173 
Q 3469 2809 3469 2113 
L 3469 0 
z
" transform="scale(0.015625)"/>
      <path id="MicrosoftYaHei-28" d="M 1531 -1100 
Q 478 100 478 1847 
Q 478 3594 1531 4841 
L 2072 4841 
Q 1016 3544 1016 1853 
Q 1016 166 2066 -1100 
L 1531 -1100 
z
" transform="scale(0.015625)"/>
      <path id="MicrosoftYaHei-29" d="M 78 -1100 
Q 1131 163 1131 1853 
Q 1131 3547 72 4841 
L 616 4841 
Q 1672 3603 1672 1847 
Q 1672 91 616 -1100 
L 78 -1100 
z
" transform="scale(0.015625)"/>
      <path id="MicrosoftYaHei-3c" d="M 3844 403 
L 913 1859 
L 913 2097 
L 3844 3713 
L 3844 3172 
L 1666 2000 
L 1666 1984 
L 3844 941 
L 3844 403 
z
" transform="scale(0.015625)"/>
     </defs>
     <use xlink:href="#MicrosoftYaHei-5e38"/>
     <use xlink:href="#MicrosoftYaHei-7528" transform="translate(100 0)"/>
     <use xlink:href="#MicrosoftYaHei-5207" transform="translate(200 0)"/>
     <use xlink:href="#MicrosoftYaHei-7ebf" transform="translate(300 0)"/>
     <use xlink:href="#MicrosoftYaHei-653e" transform="translate(400 0)"/>
     <use xlink:href="#MicrosoftYaHei-7f29" transform="translate(500 0)"/>
     <use xlink:href="#MicrosoftYaHei-ff1a" transform="translate(600 0)"/>
     <use xlink:href="#MicrosoftYaHei-65" transform="translate(700 0)"/>
     <use xlink:href="#MicrosoftYaHei-5e" transform="translate(756.738281 0)"/>
     <use xlink:href="#MicrosoftYaHei-78" transform="translate(830.908203 0)"/>
     <use xlink:href="#MicrosoftYaHei-20" transform="translate(881.591797 0)"/>
     <use xlink:href="#MicrosoftYaHei-3e" transform="translate(911.181641 0)"/>
     <use xlink:href="#MicrosoftYaHei-3d" transform="translate(985.351562 0)"/>
     <use xlink:href="#MicrosoftYaHei-20" transform="translate(1059.521484 0)"/>
     <use xlink:href="#MicrosoftYaHei-78" transform="translate(1089.111328 0)"/>
     <use xlink:href="#MicrosoftYaHei-2b" transform="translate(1139.794922 0)"/>
     <use xlink:href="#MicrosoftYaHei-31" transform="translate(1213.964844 0)"/>
     <use xlink:href="#MicrosoftYaHei-2c" transform="translate(1272.607422 0)"/>
     <use xlink:href="#MicrosoftYaHei-20" transform="translate(1296.679688 0)"/>
     <use xlink:href="#MicrosoftYaHei-6c" transform="translate(1326.269531 0)"/>
     <use xlink:href="#MicrosoftYaHei-6e" transform="translate(1352.880859 0)"/>
     <use xlink:href="#MicrosoftYaHei-28" transform="translate(1414.501953 0)"/>
     <use xlink:href="#MicrosoftYaHei-78" transform="translate(1447.900391 0)"/>
     <use xlink:href="#MicrosoftYaHei-2b" transform="translate(1498.583984 0)"/>
     <use xlink:href="#MicrosoftYaHei-31" transform="translate(1572.753906 0)"/>
     <use xlink:href="#MicrosoftYaHei-29" transform="translate(1631.396484 0)"/>
     <use xlink:href="#MicrosoftYaHei-20" transform="translate(1664.794922 0)"/>
     <use xlink:href="#MicrosoftYaHei-3c" transform="translate(1694.384766 0)"/>
     <use xlink:href="#MicrosoftYaHei-3d" transform="translate(1768.554688 0)"/>
     <use xlink:href="#MicrosoftYaHei-20" transform="translate(1842.724609 0)"/>
     <use xlink:href="#MicrosoftYaHei-78" transform="translate(1872.314453 0)"/>
    </g>
   </g>
   <g id="legend_1">
    <g id="patch_7">
     <path d="M 46.6 75.163125 
L 169.660938 75.163125 
Q 171.660938 75.163125 171.660938 73.163125 
L 171.660938 27.16 
Q 171.660938 25.16 169.660938 25.16 
L 46.6 25.16 
Q 44.6 25.16 44.6 27.16 
L 44.6 73.163125 
Q 44.6 75.163125 46.6 75.163125 
z
" style="fill: #ffffff; opacity: 0.8; stroke: #cccccc; stroke-linejoin: miter"/>
    </g>
    <g id="line2d_34">
     <path d="M 48.6 33.65375 
L 58.6 33.65375 
L 68.6 33.65375 
" style="fill: none; stroke: #0000ff; stroke-width: 2; stroke-linecap: square"/>
    </g>
    <g id="text_16">
     <!-- y=eˣ -->
     <g transform="translate(76.6 37.15375) scale(0.1 -0.1)">
      <defs>
       <path id="MicrosoftYaHei-79" d="M 3359 3456 
L 1791 -522 
Q 1353 -1628 556 -1628 
Q 328 -1628 166 -1578 
L 166 -1041 
Q 344 -1109 509 -1109 
Q 925 -1109 1131 -622 
L 1397 6 
L 41 3456 
L 719 3456 
L 1622 859 
L 1697 575 
L 1713 575 
Q 1731 672 1788 853 
L 2731 3456 
L 3359 3456 
z
" transform="scale(0.015625)"/>
       <path id="MicrosoftYaHei-2e3" d="M 559 0 
L 559 4719 
L 3900 4719 
L 3900 0 
L 559 0 
z
M 1059 500 
L 3403 500 
L 3403 4219 
L 1059 4219 
L 1059 500 
z
" transform="scale(0.015625)"/>
      </defs>
      <use xlink:href="#MicrosoftYaHei-79"/>
      <use xlink:href="#MicrosoftYaHei-3d" transform="translate(52.929688 0)"/>
      <use xlink:href="#MicrosoftYaHei-65" transform="translate(127.099609 0)"/>
      <use xlink:href="#MicrosoftYaHei-2e3" transform="translate(183.837891 0)"/>
     </g>
    </g>
    <g id="line2d_35">
     <path d="M 48.6 49.581875 
L 58.6 49.581875 
L 68.6 49.581875 
" style="fill: none; stroke-dasharray: 7.4,3.2; stroke-dashoffset: 0; stroke: #ff0000; stroke-width: 2"/>
    </g>
    <g id="text_17">
     <!-- y=x+1（切线放缩） -->
     <g transform="translate(76.6 53.081875) scale(0.1 -0.1)">
      <defs>
       <path id="MicrosoftYaHei-ff08" d="M 5288 -1100 
Q 4172 119 4172 1850 
Q 4172 3603 5288 4838 
L 5825 4838 
Q 4716 3572 4716 1856 
Q 4716 166 5819 -1100 
L 5288 -1100 
z
" transform="scale(0.015625)"/>
       <path id="MicrosoftYaHei-ff09" d="M 1113 -1100 
L 575 -1100 
Q 1684 163 1684 1888 
Q 1684 3581 581 4838 
L 1113 4838 
Q 2222 3628 2222 1888 
Q 2222 128 1113 -1100 
z
" transform="scale(0.015625)"/>
      </defs>
      <use xlink:href="#MicrosoftYaHei-79"/>
      <use xlink:href="#MicrosoftYaHei-3d" transform="translate(52.929688 0)"/>
      <use xlink:href="#MicrosoftYaHei-78" transform="translate(127.099609 0)"/>
      <use xlink:href="#MicrosoftYaHei-2b" transform="translate(177.783203 0)"/>
      <use xlink:href="#MicrosoftYaHei-31" transform="translate(251.953125 0)"/>
      <use xlink:href="#MicrosoftYaHei-ff08" transform="translate(310.595703 0)"/>
      <use xlink:href="#MicrosoftYaHei-5207" transform="translate(410.595703 0)"/>
      <use xlink:href="#MicrosoftYaHei-7ebf" transform="translate(510.595703 0)"/>
      <use xlink:href="#MicrosoftYaHei-653e" transform="translate(610.595703 0)"/>
      <use xlink:href="#MicrosoftYaHei-7f29" transform="translate(710.595703 0)"/>
      <use xlink:href="#MicrosoftYaHei-ff09" transform="translate(810.595703 0)"/>
     </g>
    </g>
    <g id="line2d_36">
     <path d="M 48.6 65.119375 
L 58.6 65.119375 
L 68.6 65.119375 
" style="fill: none; stroke: #008000; stroke-width: 2; stroke-linecap: square"/>
    </g>
    <g id="text_18">
     <!-- y=ln(x+1) -->
     <g transform="translate(76.6 68.619375) scale(0.1 -0.1)">
      <use xlink:href="#MicrosoftYaHei-79"/>
      <use xlink:href="#MicrosoftYaHei-3d" transform="translate(52.929688 0)"/>
      <use xlink:href="#MicrosoftYaHei-6c" transform="translate(127.099609 0)"/>
      <use xlink:href="#MicrosoftYaHei-6e" transform="translate(153.710938 0)"/>
      <use xlink:href="#MicrosoftYaHei-28" transform="translate(215.332031 0)"/>
      <use xlink:href="#MicrosoftYaHei-78" transform="translate(248.730469 0)"/>
      <use xlink:href="#MicrosoftYaHei-2b" transform="translate(299.414062 0)"/>
      <use xlink:href="#MicrosoftYaHei-31" transform="translate(373.583984 0)"/>
      <use xlink:href="#MicrosoftYaHei-29" transform="translate(432.226562 0)"/>
     </g>
    </g>
   </g>
  </g>
 </g>
 <defs>
  <clipPath id="p662576cefa">
   <rect x="39.6" y="20.16" width="336.6" height="201.6"/>
  </clipPath>
 </defs>
</svg>
