<?xml version="1.0" encoding="utf-8" standalone="no"?>
<!DOCTYPE svg PUBLIC "-//W3C//DTD SVG 1.1//EN"
  "http://www.w3.org/Graphics/SVG/1.1/DTD/svg11.dtd">
<svg xmlns:xlink="http://www.w3.org/1999/xlink" width="540pt" height="230.4pt" viewBox="0 0 540 230.4" xmlns="http://www.w3.org/2000/svg" version="1.1">
 <metadata>
  <rdf:RDF xmlns:dc="http://purl.org/dc/elements/1.1/" xmlns:cc="http://creativecommons.org/ns#" xmlns:rdf="http://www.w3.org/1999/02/22-rdf-syntax-ns#">
   <cc:Work>
    <dc:type rdf:resource="http://purl.org/dc/dcmitype/StillImage"/>
    <dc:date>2026-05-22T22:03:21.889559</dc:date>
    <dc:format>image/svg+xml</dc:format>
    <dc:creator>
     <cc:Agent>
      <dc:title>Matplotlib v3.10.9, https://matplotlib.org/</dc:title>
     </cc:Agent>
    </dc:creator>
   </cc:Work>
  </rdf:RDF>
 </metadata>
 <defs>
  <style type="text/css">*{stroke-linejoin: round; stroke-linecap: butt}</style>
 </defs>
 <g id="figure_1">
  <g id="patch_1">
   <path d="M 0 230.4 
L 540 230.4 
L 540 0 
L 0 0 
z
" style="fill: #ffffff"/>
  </g>
  <g id="axes_1">
   <g id="patch_2">
    <path d="M 43.2 195.84 
L 247.46087 195.84 
L 247.46087 23.04 
L 43.2 23.04 
z
" style="fill: #ffffff"/>
   </g>
   <g id="patch_3">
    <path d="M 52.484585 195.84 
L 114.381818 195.84 
L 114.381818 23.04 
L 52.484585 23.04 
z
" clip-path="url(#pa0884d00a0)" style="fill: #e74c3c; opacity: 0.1; stroke: #e74c3c; stroke-linejoin: miter"/>
   </g>
   <g id="patch_4">
    <path d="M 176.279051 195.84 
L 238.176285 195.84 
L 238.176285 23.04 
L 176.279051 23.04 
z
" clip-path="url(#pa0884d00a0)" style="fill: #e74c3c; opacity: 0.1; stroke: #e74c3c; stroke-linejoin: miter"/>
   </g>
   <g id="patch_5">
    <path d="M 114.381818 195.84 
L 176.279051 195.84 
L 176.279051 23.04 
L 114.381818 23.04 
z
" clip-path="url(#pa0884d00a0)" style="fill: #27ae60; opacity: 0.1; stroke: #27ae60; stroke-linejoin: miter"/>
   </g>
   <g id="matplotlib.axis_1">
    <g id="xtick_1">
     <g id="line2d_1">
      <path d="M 83.433202 195.84 
L 83.433202 23.04 
" clip-path="url(#pa0884d00a0)" style="fill: none; stroke: #b0b0b0; stroke-opacity: 0.3; stroke-width: 0.8; stroke-linecap: square"/>
     </g>
     <g id="line2d_2">
      <defs>
       <path id="m00045fe610" d="M 0 0 
L 0 3.5 
" style="stroke: #000000; stroke-width: 0.8"/>
      </defs>
      <g>
       <use xlink:href="#m00045fe610" x="83.433202" y="195.84" style="stroke: #000000; stroke-width: 0.8"/>
      </g>
     </g>
     <g id="text_1">
      <!-- -2 -->
      <g transform="translate(78.337889 210.83375) scale(0.1 -0.1)">
       <defs>
        <path id="MicrosoftYaHei-2d" d="M 2328 1681 
L 488 1681 
L 488 2153 
L 2328 2153 
L 2328 1681 
z
" transform="scale(0.015625)"/>
        <path id="MicrosoftYaHei-32" d="M 2666 3572 
Q 2666 3963 2419 4186 
Q 2172 4409 1747 4409 
Q 1447 4409 1140 4256 
Q 834 4103 569 3819 
L 569 4413 
Q 806 4659 1107 4790 
Q 1409 4922 1816 4922 
Q 2472 4922 2872 4570 
Q 3272 4219 3272 3619 
Q 3272 3084 3026 2693 
Q 2781 2303 2188 1894 
Q 1581 1475 1376 1294 
Q 1172 1113 1090 947 
Q 1009 781 1009 544 
L 3416 544 
L 3416 0 
L 372 0 
L 372 241 
Q 372 659 486 951 
Q 600 1244 862 1520 
Q 1125 1797 1681 2184 
Q 2250 2584 2458 2886 
Q 2666 3188 2666 3572 
z
" transform="scale(0.015625)"/>
       </defs>
       <use xlink:href="#MicrosoftYaHei-2d"/>
       <use xlink:href="#MicrosoftYaHei-32" transform="translate(43.261719 0)"/>
      </g>
     </g>
    </g>
    <g id="xtick_2">
     <g id="line2d_3">
      <path d="M 145.330435 195.84 
L 145.330435 23.04 
" clip-path="url(#pa0884d00a0)" style="fill: none; stroke: #b0b0b0; stroke-opacity: 0.3; stroke-width: 0.8; stroke-linecap: square"/>
     </g>
     <g id="line2d_4">
      <g>
       <use xlink:href="#m00045fe610" x="145.330435" y="195.84" style="stroke: #000000; stroke-width: 0.8"/>
      </g>
     </g>
     <g id="text_2">
      <!-- 0 -->
      <g transform="translate(142.398404 210.83375) scale(0.1 -0.1)">
       <defs>
        <path id="MicrosoftYaHei-30" d="M 284 2325 
Q 284 3606 709 4264 
Q 1134 4922 1941 4922 
Q 3478 4922 3478 2441 
Q 3478 1216 3045 567 
Q 2613 -81 1831 -81 
Q 1094 -81 689 534 
Q 284 1150 284 2325 
z
M 909 2353 
Q 909 425 1888 425 
Q 2850 425 2850 2384 
Q 2850 4413 1906 4413 
Q 909 4413 909 2353 
z
" transform="scale(0.015625)"/>
       </defs>
       <use xlink:href="#MicrosoftYaHei-30"/>
      </g>
     </g>
    </g>
    <g id="xtick_3">
     <g id="line2d_5">
      <path d="M 207.227668 195.84 
L 207.227668 23.04 
" clip-path="url(#pa0884d00a0)" style="fill: none; stroke: #b0b0b0; stroke-opacity: 0.3; stroke-width: 0.8; stroke-linecap: square"/>
     </g>
     <g id="line2d_6">
      <g>
       <use xlink:href="#m00045fe610" x="207.227668" y="195.84" style="stroke: #000000; stroke-width: 0.8"/>
      </g>
     </g>
     <g id="text_3">
      <!-- 2 -->
      <g transform="translate(204.295637 210.83375) scale(0.1 -0.1)">
       <use xlink:href="#MicrosoftYaHei-32"/>
      </g>
     </g>
    </g>
   </g>
   <g id="matplotlib.axis_2">
    <g id="ytick_1">
     <g id="line2d_7">
      <path d="M 43.2 174.894545 
L 247.46087 174.894545 
" clip-path="url(#pa0884d00a0)" style="fill: none; stroke: #b0b0b0; stroke-opacity: 0.3; stroke-width: 0.8; stroke-linecap: square"/>
     </g>
     <g id="line2d_8">
      <defs>
       <path id="maed9a1fdca" d="M 0 0 
L -3.5 0 
" style="stroke: #000000; stroke-width: 0.8"/>
      </defs>
      <g>
       <use xlink:href="#maed9a1fdca" x="43.2" y="174.894545" style="stroke: #000000; stroke-width: 0.8"/>
      </g>
     </g>
     <g id="text_4">
      <!-- -15 -->
      <g transform="translate(20.145313 178.89142) scale(0.1 -0.1)">
       <defs>
        <path id="MicrosoftYaHei-31" d="M 1781 0 
L 1781 4141 
Q 1638 3997 1295 3819 
Q 953 3641 663 3569 
L 663 4169 
Q 1047 4275 1484 4508 
Q 1922 4741 2156 4947 
L 2388 4947 
L 2388 0 
L 1781 0 
z
" transform="scale(0.015625)"/>
        <path id="MicrosoftYaHei-35" d="M 3294 1494 
Q 3294 784 2823 350 
Q 2353 -84 1559 -84 
Q 878 -84 544 119 
L 544 744 
Q 1034 425 1544 425 
Q 2050 425 2361 704 
Q 2672 984 2672 1447 
Q 2672 1909 2348 2167 
Q 2025 2425 1434 2425 
Q 978 2425 613 2384 
L 791 4841 
L 3053 4841 
L 3053 4303 
L 1306 4303 
L 1206 2931 
L 1647 2950 
Q 2416 2950 2855 2567 
Q 3294 2184 3294 1494 
z
" transform="scale(0.015625)"/>
       </defs>
       <use xlink:href="#MicrosoftYaHei-2d"/>
       <use xlink:href="#MicrosoftYaHei-31" transform="translate(43.261719 0)"/>
       <use xlink:href="#MicrosoftYaHei-35" transform="translate(101.904297 0)"/>
      </g>
     </g>
    </g>
    <g id="ytick_2">
     <g id="line2d_9">
      <path d="M 43.2 153.076364 
L 247.46087 153.076364 
" clip-path="url(#pa0884d00a0)" style="fill: none; stroke: #b0b0b0; stroke-opacity: 0.3; stroke-width: 0.8; stroke-linecap: square"/>
     </g>
     <g id="line2d_10">
      <g>
       <use xlink:href="#maed9a1fdca" x="43.2" y="153.076364" style="stroke: #000000; stroke-width: 0.8"/>
      </g>
     </g>
     <g id="text_5">
      <!-- -10 -->
      <g transform="translate(20.145313 157.073239) scale(0.1 -0.1)">
       <use xlink:href="#MicrosoftYaHei-2d"/>
       <use xlink:href="#MicrosoftYaHei-31" transform="translate(43.261719 0)"/>
       <use xlink:href="#MicrosoftYaHei-30" transform="translate(101.904297 0)"/>
      </g>
     </g>
    </g>
    <g id="ytick_3">
     <g id="line2d_11">
      <path d="M 43.2 131.258182 
L 247.46087 131.258182 
" clip-path="url(#pa0884d00a0)" style="fill: none; stroke: #b0b0b0; stroke-opacity: 0.3; stroke-width: 0.8; stroke-linecap: square"/>
     </g>
     <g id="line2d_12">
      <g>
       <use xlink:href="#maed9a1fdca" x="43.2" y="131.258182" style="stroke: #000000; stroke-width: 0.8"/>
      </g>
     </g>
     <g id="text_6">
      <!-- -5 -->
      <g transform="translate(26.009375 135.255057) scale(0.1 -0.1)">
       <use xlink:href="#MicrosoftYaHei-2d"/>
       <use xlink:href="#MicrosoftYaHei-35" transform="translate(43.261719 0)"/>
      </g>
     </g>
    </g>
    <g id="ytick_4">
     <g id="line2d_13">
      <path d="M 43.2 109.44 
L 247.46087 109.44 
" clip-path="url(#pa0884d00a0)" style="fill: none; stroke: #b0b0b0; stroke-opacity: 0.3; stroke-width: 0.8; stroke-linecap: square"/>
     </g>
     <g id="line2d_14">
      <g>
       <use xlink:href="#maed9a1fdca" x="43.2" y="109.44" style="stroke: #000000; stroke-width: 0.8"/>
      </g>
     </g>
     <g id="text_7">
      <!-- 0 -->
      <g transform="translate(30.335938 113.436875) scale(0.1 -0.1)">
       <use xlink:href="#MicrosoftYaHei-30"/>
      </g>
     </g>
    </g>
    <g id="ytick_5">
     <g id="line2d_15">
      <path d="M 43.2 87.621818 
L 247.46087 87.621818 
" clip-path="url(#pa0884d00a0)" style="fill: none; stroke: #b0b0b0; stroke-opacity: 0.3; stroke-width: 0.8; stroke-linecap: square"/>
     </g>
     <g id="line2d_16">
      <g>
       <use xlink:href="#maed9a1fdca" x="43.2" y="87.621818" style="stroke: #000000; stroke-width: 0.8"/>
      </g>
     </g>
     <g id="text_8">
      <!-- 5 -->
      <g transform="translate(30.335938 91.618693) scale(0.1 -0.1)">
       <use xlink:href="#MicrosoftYaHei-35"/>
      </g>
     </g>
    </g>
    <g id="ytick_6">
     <g id="line2d_17">
      <path d="M 43.2 65.803636 
L 247.46087 65.803636 
" clip-path="url(#pa0884d00a0)" style="fill: none; stroke: #b0b0b0; stroke-opacity: 0.3; stroke-width: 0.8; stroke-linecap: square"/>
     </g>
     <g id="line2d_18">
      <g>
       <use xlink:href="#maed9a1fdca" x="43.2" y="65.803636" style="stroke: #000000; stroke-width: 0.8"/>
      </g>
     </g>
     <g id="text_9">
      <!-- 10 -->
      <g transform="translate(24.471875 69.800511) scale(0.1 -0.1)">
       <use xlink:href="#MicrosoftYaHei-31"/>
       <use xlink:href="#MicrosoftYaHei-30" transform="translate(58.642578 0)"/>
      </g>
     </g>
    </g>
    <g id="ytick_7">
     <g id="line2d_19">
      <path d="M 43.2 43.985455 
L 247.46087 43.985455 
" clip-path="url(#pa0884d00a0)" style="fill: none; stroke: #b0b0b0; stroke-opacity: 0.3; stroke-width: 0.8; stroke-linecap: square"/>
     </g>
     <g id="line2d_20">
      <g>
       <use xlink:href="#maed9a1fdca" x="43.2" y="43.985455" style="stroke: #000000; stroke-width: 0.8"/>
      </g>
     </g>
     <g id="text_10">
      <!-- 15 -->
      <g transform="translate(24.471875 47.98233) scale(0.1 -0.1)">
       <use xlink:href="#MicrosoftYaHei-31"/>
       <use xlink:href="#MicrosoftYaHei-35" transform="translate(58.642578 0)"/>
      </g>
     </g>
    </g>
   </g>
   <g id="line2d_21">
    <path d="M 52.484585 187.985455 
L 55.742334 177.391596 
L 59.000083 167.637511 
L 61.79244 159.922109 
L 64.584796 152.782017 
L 67.377152 146.198004 
L 70.169509 140.15084 
L 72.961865 134.621295 
L 75.754222 129.590138 
L 78.546578 125.038139 
L 81.338934 120.946067 
L 84.131291 117.294693 
L 86.923647 114.064785 
L 89.250611 111.681274 
L 91.577574 109.565966 
L 93.904538 107.707731 
L 96.231502 106.09544 
L 98.558465 104.717965 
L 100.885429 103.564178 
L 103.212393 102.622948 
L 106.004749 101.758381 
L 108.797105 101.164642 
L 111.589462 100.822501 
L 114.381818 100.712727 
L 117.174175 100.816091 
L 120.431924 101.180408 
L 123.689673 101.778116 
L 127.412815 102.707823 
L 131.601349 104.013689 
L 136.255277 105.711336 
L 142.770775 108.359762 
L 155.336378 113.524931 
L 159.990306 115.177173 
L 164.17884 116.42695 
L 167.901982 117.294693 
L 171.159731 117.828834 
L 174.41748 118.120859 
L 177.209837 118.155313 
L 180.002193 117.97022 
L 182.79455 117.54635 
L 185.586906 116.864472 
L 187.91387 116.085276 
L 190.240833 115.102426 
L 192.567797 113.904791 
L 194.894761 112.481243 
L 197.221724 110.820654 
L 199.548688 108.911894 
L 201.875652 106.743836 
L 204.202615 104.30535 
L 206.529579 101.585307 
L 208.856543 98.57258 
L 211.648899 94.555293 
L 214.441255 90.081284 
L 217.233612 85.131322 
L 220.025968 79.686177 
L 222.818324 73.726619 
L 225.610681 67.233416 
L 228.403037 60.187339 
L 231.195394 52.569158 
L 233.98775 44.359641 
L 236.780106 35.539558 
L 238.176285 30.894545 
L 238.176285 30.894545 
" clip-path="url(#pa0884d00a0)" style="fill: none; stroke: #5688cc; stroke-width: 2; stroke-linecap: square"/>
   </g>
   <g id="line2d_22">
    <path d="M 43.2 109.44 
L 247.46087 109.44 
" clip-path="url(#pa0884d00a0)" style="fill: none; stroke: #808080; stroke-width: 0.5; stroke-linecap: square"/>
   </g>
   <g id="line2d_23">
    <path d="M 145.330435 195.84 
L 145.330435 23.04 
" clip-path="url(#pa0884d00a0)" style="fill: none; stroke: #808080; stroke-width: 0.5; stroke-linecap: square"/>
   </g>
   <g id="patch_6">
    <path d="M 43.2 195.84 
L 43.2 23.04 
" style="fill: none; stroke: #000000; stroke-width: 0.8; stroke-linejoin: miter; stroke-linecap: square"/>
   </g>
   <g id="patch_7">
    <path d="M 247.46087 195.84 
L 247.46087 23.04 
" style="fill: none; stroke: #000000; stroke-width: 0.8; stroke-linejoin: miter; stroke-linecap: square"/>
   </g>
   <g id="patch_8">
    <path d="M 43.2 195.84 
L 247.46087 195.84 
" style="fill: none; stroke: #000000; stroke-width: 0.8; stroke-linejoin: miter; stroke-linecap: square"/>
   </g>
   <g id="patch_9">
    <path d="M 43.2 23.04 
L 247.46087 23.04 
" style="fill: none; stroke: #000000; stroke-width: 0.8; stroke-linejoin: miter; stroke-linecap: square"/>
   </g>
   <g id="text_11">
    <!-- f'(x)&gt;0 -->
    <g style="fill: #e74c3c" transform="translate(67.901952 88.63429) scale(0.1 -0.1)">
     <defs>
      <path id="MicrosoftYaHei-66" d="M 2319 4594 
Q 2147 4684 1947 4684 
Q 1372 4684 1372 3972 
L 1372 3456 
L 2181 3456 
L 2181 2950 
L 1372 2950 
L 1372 0 
L 766 0 
L 766 2950 
L 175 2950 
L 175 3456 
L 766 3456 
L 766 4000 
Q 766 4556 1086 4873 
Q 1406 5191 1900 5191 
Q 2163 5191 2319 5131 
L 2319 4594 
z
" transform="scale(0.015625)"/>
      <path id="MicrosoftYaHei-27" d="M 1131 4847 
L 1028 3341 
L 609 3341 
L 509 4847 
L 1131 4847 
z
" transform="scale(0.015625)"/>
      <path id="MicrosoftYaHei-28" d="M 1531 -1100 
Q 478 100 478 1847 
Q 478 3594 1531 4841 
L 2072 4841 
Q 1016 3544 1016 1853 
Q 1016 166 2066 -1100 
L 1531 -1100 
z
" transform="scale(0.015625)"/>
      <path id="MicrosoftYaHei-78" d="M 3163 3456 
L 2006 1716 
L 3147 0 
L 2434 0 
L 1775 1100 
Q 1722 1188 1625 1369 
L 1613 1369 
Q 1609 1350 1456 1100 
L 784 0 
L 81 0 
L 1256 1697 
L 134 3456 
L 847 3456 
L 1494 2300 
Q 1553 2194 1638 2025 
L 1650 2025 
L 2491 3456 
L 3163 3456 
z
" transform="scale(0.015625)"/>
      <path id="MicrosoftYaHei-29" d="M 78 -1100 
Q 1131 163 1131 1853 
Q 1131 3547 72 4841 
L 616 4841 
Q 1672 3603 1672 1847 
Q 1672 91 616 -1100 
L 78 -1100 
z
" transform="scale(0.015625)"/>
      <path id="MicrosoftYaHei-3e" d="M 3844 1866 
L 913 409 
L 913 947 
L 3094 1981 
L 3094 2003 
L 913 3175 
L 913 3716 
L 3844 2103 
L 3844 1866 
z
" transform="scale(0.015625)"/>
     </defs>
     <use xlink:href="#MicrosoftYaHei-66"/>
     <use xlink:href="#MicrosoftYaHei-27" transform="translate(34.667969 0)"/>
     <use xlink:href="#MicrosoftYaHei-28" transform="translate(60.302734 0)"/>
     <use xlink:href="#MicrosoftYaHei-78" transform="translate(93.701172 0)"/>
     <use xlink:href="#MicrosoftYaHei-29" transform="translate(144.384766 0)"/>
     <use xlink:href="#MicrosoftYaHei-3e" transform="translate(177.783203 0)"/>
     <use xlink:href="#MicrosoftYaHei-30" transform="translate(251.953125 0)"/>
    </g>
    <!-- 增 -->
    <g style="fill: #e74c3c" transform="translate(78.433202 100.712727) scale(0.1 -0.1)">
     <defs>
      <path id="MicrosoftYaHei-589e" d="M 2188 4459 
L 3259 4459 
Q 3041 4781 2775 5116 
L 3131 5366 
Q 3456 4991 3694 4666 
L 3403 4459 
L 4453 4459 
Q 4759 4888 5050 5372 
L 5500 5116 
Q 5234 4772 4978 4459 
L 6038 4459 
L 6038 2122 
L 5600 2122 
L 5600 2309 
L 2625 2309 
L 2625 2122 
L 2188 2122 
L 2188 4459 
z
M 2438 1797 
L 5788 1797 
L 5788 -847 
L 5338 -847 
L 5338 -547 
L 2888 -547 
L 2888 -847 
L 2438 -847 
L 2438 1797 
z
M 81 428 
Q 466 538 894 672 
L 894 3253 
L 144 3253 
L 144 3697 
L 894 3697 
L 894 5259 
L 1356 5259 
L 1356 3697 
L 2000 3697 
L 2000 3253 
L 1356 3253 
L 1356 819 
Q 1709 931 2094 1059 
Q 2106 759 2125 553 
Q 1306 316 250 -53 
L 81 428 
z
M 5600 4084 
L 4325 4084 
L 4325 2684 
L 5600 2684 
L 5600 4084 
z
M 2625 2684 
L 3894 2684 
L 3894 4084 
L 2625 4084 
L 2625 2684 
z
M 5338 1409 
L 2888 1409 
L 2888 809 
L 5338 809 
L 5338 1409 
z
M 2888 -159 
L 5338 -159 
L 5338 434 
L 2888 434 
L 2888 -159 
z
M 5350 3609 
Q 5006 3066 4856 2884 
L 4519 3084 
Q 4744 3391 4981 3828 
L 5350 3609 
z
M 2863 3597 
L 3181 3803 
Q 3463 3441 3669 3122 
L 3319 2897 
Q 3119 3228 2863 3597 
z
" transform="scale(0.015625)"/>
     </defs>
     <use xlink:href="#MicrosoftYaHei-589e"/>
    </g>
   </g>
   <g id="text_12">
    <!-- f'(x)&lt;0 -->
    <g style="fill: #27ae60" transform="translate(129.799185 106.088835) scale(0.1 -0.1)">
     <defs>
      <path id="MicrosoftYaHei-3c" d="M 3844 403 
L 913 1859 
L 913 2097 
L 3844 3713 
L 3844 3172 
L 1666 2000 
L 1666 1984 
L 3844 941 
L 3844 403 
z
" transform="scale(0.015625)"/>
     </defs>
     <use xlink:href="#MicrosoftYaHei-66"/>
     <use xlink:href="#MicrosoftYaHei-27" transform="translate(34.667969 0)"/>
     <use xlink:href="#MicrosoftYaHei-28" transform="translate(60.302734 0)"/>
     <use xlink:href="#MicrosoftYaHei-78" transform="translate(93.701172 0)"/>
     <use xlink:href="#MicrosoftYaHei-29" transform="translate(144.384766 0)"/>
     <use xlink:href="#MicrosoftYaHei-3c" transform="translate(177.783203 0)"/>
     <use xlink:href="#MicrosoftYaHei-30" transform="translate(251.953125 0)"/>
    </g>
    <!-- 减 -->
    <g style="fill: #27ae60" transform="translate(140.330435 118.167273) scale(0.1 -0.1)">
     <defs>
      <path id="MicrosoftYaHei-51cf" d="M 3406 -484 
Q 4103 84 4628 878 
Q 4381 1866 4347 3872 
L 2269 3872 
L 2269 2278 
Q 2269 366 1381 -809 
Q 1150 -566 1000 -466 
Q 1831 584 1831 2303 
L 1831 4297 
L 4338 4297 
Q 4331 4800 4331 5278 
L 4788 5278 
Q 4788 4803 4791 4297 
L 6300 4297 
L 6300 3872 
L 4794 3872 
Q 4806 2363 4972 1453 
Q 5403 2256 5688 3253 
L 6138 3097 
Q 5716 1794 5122 813 
Q 5281 250 5488 -47 
Q 5688 -291 5763 53 
Q 5831 422 5881 953 
Q 6175 847 6344 797 
Q 6256 134 6150 -297 
Q 6013 -791 5700 -784 
Q 5431 -791 5194 -478 
Q 4959 -128 4797 316 
Q 4347 -313 3813 -784 
Q 3619 -616 3406 -484 
z
M 2656 2347 
L 4069 2347 
L 4069 509 
L 3069 509 
L 3069 122 
L 2656 122 
L 2656 2347 
z
M 131 16 
Q 519 1059 925 2609 
Q 1163 2497 1388 2409 
Q 1106 1403 638 -153 
L 131 16 
z
M 244 4541 
L 631 4809 
Q 1069 4303 1506 3728 
L 1075 3416 
Q 563 4153 244 4541 
z
M 3656 897 
L 3656 1959 
L 3069 1959 
L 3069 897 
L 3656 897 
z
M 2544 3316 
L 4088 3316 
L 4088 2916 
L 2544 2916 
L 2544 3316 
z
M 5050 5041 
L 5369 5291 
Q 5681 4978 5963 4666 
L 5606 4384 
Q 5350 4709 5050 5041 
z
" transform="scale(0.015625)"/>
     </defs>
     <use xlink:href="#MicrosoftYaHei-51cf"/>
    </g>
   </g>
   <g id="text_13">
    <!-- f'(x)&gt;0 -->
    <g style="fill: #e74c3c" transform="translate(191.696418 88.63429) scale(0.1 -0.1)">
     <use xlink:href="#MicrosoftYaHei-66"/>
     <use xlink:href="#MicrosoftYaHei-27" transform="translate(34.667969 0)"/>
     <use xlink:href="#MicrosoftYaHei-28" transform="translate(60.302734 0)"/>
     <use xlink:href="#MicrosoftYaHei-78" transform="translate(93.701172 0)"/>
     <use xlink:href="#MicrosoftYaHei-29" transform="translate(144.384766 0)"/>
     <use xlink:href="#MicrosoftYaHei-3e" transform="translate(177.783203 0)"/>
     <use xlink:href="#MicrosoftYaHei-30" transform="translate(251.953125 0)"/>
    </g>
    <!-- 增 -->
    <g style="fill: #e74c3c" transform="translate(202.227668 100.712727) scale(0.1 -0.1)">
     <use xlink:href="#MicrosoftYaHei-589e"/>
    </g>
   </g>
   <g id="text_14">
    <!-- f'(x)正负决定单调性 -->
    <g style="fill: #1a1a2e" transform="translate(97.050747 17.04) scale(0.11 -0.11)">
     <defs>
      <path id="MicrosoftYaHei-6b63" d="M 88 66 
L 1106 66 
L 1106 3416 
L 1644 3416 
L 1644 66 
L 3231 66 
L 3231 4309 
L 375 4309 
L 375 4797 
L 6063 4797 
L 6063 4309 
L 3769 4309 
L 3769 2672 
L 5850 2672 
L 5850 2191 
L 3769 2191 
L 3769 66 
L 6313 66 
L 6313 -422 
L 88 -422 
L 88 66 
z
" transform="scale(0.015625)"/>
      <path id="MicrosoftYaHei-8d1f" d="M 963 3353 
L 3250 3353 
Q 3556 3659 4031 4216 
L 1819 4216 
Q 1163 3503 463 3009 
Q 325 3172 94 3384 
Q 1356 4303 2094 5334 
L 2600 5147 
Q 2406 4891 2213 4659 
L 4700 4659 
L 4700 4241 
Q 4294 3778 3881 3353 
L 5600 3353 
L 5600 641 
L 5100 641 
L 5100 2909 
L 1463 2909 
L 1463 603 
L 963 603 
L 963 3353 
z
M 188 -403 
Q 1806 -97 2550 422 
Q 3019 728 3019 1603 
L 3019 2609 
L 3525 2609 
L 3525 1716 
Q 3525 1297 3469 997 
Q 4906 334 6163 -416 
L 5831 -878 
Q 4513 -53 3325 534 
Q 2863 -391 475 -891 
Q 344 -653 188 -403 
z
" transform="scale(0.015625)"/>
      <path id="MicrosoftYaHei-51b3" d="M 1688 2253 
L 3394 2253 
Q 3450 2803 3456 3716 
L 2050 3716 
L 2050 4166 
L 3459 4166 
Q 3469 4722 3469 5284 
L 3963 5284 
Q 3963 4728 3953 4166 
L 5556 4166 
L 5556 2253 
L 6300 2253 
L 6300 1803 
L 3997 1803 
Q 4563 375 6200 -241 
Q 5950 -516 5769 -741 
Q 4272 22 3700 1391 
Q 3316 6 1650 -853 
Q 1525 -666 1294 -378 
Q 3056 459 3328 1803 
L 1688 1803 
L 1688 2253 
z
M 5075 3716 
L 3947 3716 
Q 3938 2844 3891 2253 
L 5075 2253 
L 5075 3716 
z
M 1013 2578 
Q 1244 2416 1506 2291 
Q 988 841 613 -334 
L 106 -59 
Q 600 1072 1013 2578 
z
M 581 4934 
Q 1200 4316 1675 3784 
L 1250 3397 
Q 744 4047 213 4603 
L 581 4934 
z
" transform="scale(0.015625)"/>
      <path id="MicrosoftYaHei-5b9a" d="M 81 -384 
Q 1119 509 1281 2241 
L 1806 2159 
Q 1731 1581 1578 1081 
Q 2063 50 3081 -103 
L 3081 2647 
L 225 2647 
L 225 3116 
L 6163 3116 
L 6163 2647 
L 3600 2647 
L 3600 1634 
L 5775 1634 
L 5775 1172 
L 3600 1172 
L 3600 -138 
Q 4844 -169 6306 -116 
Q 6200 -359 6125 -634 
Q 4594 -653 3450 -616 
Q 2041 -616 1378 528 
Q 1022 -300 413 -872 
Q 269 -628 81 -384 
z
M 450 4566 
L 3116 4566 
Q 2931 4834 2725 5091 
L 3200 5347 
Q 3444 5066 3731 4716 
L 3450 4566 
L 5981 4566 
L 5981 3378 
L 5488 3378 
L 5488 4097 
L 944 4097 
L 944 3384 
L 450 3384 
L 450 4566 
z
" transform="scale(0.015625)"/>
      <path id="MicrosoftYaHei-5355" d="M 125 909 
L 2956 909 
L 2956 1616 
L 1225 1616 
L 1225 1322 
L 750 1322 
L 750 4353 
L 2047 4353 
Q 1747 4703 1400 5072 
L 1756 5366 
Q 2219 4922 2569 4547 
L 2338 4353 
L 3803 4353 
Q 4147 4809 4500 5347 
L 5000 5078 
Q 4678 4688 4378 4353 
L 5656 4353 
L 5656 1322 
L 5181 1322 
L 5181 1616 
L 3444 1616 
L 3444 909 
L 6275 909 
L 6275 459 
L 3444 459 
L 3444 -859 
L 2956 -859 
L 2956 459 
L 125 459 
L 125 909 
z
M 3444 2053 
L 5181 2053 
L 5181 2778 
L 3444 2778 
L 3444 2053 
z
M 1225 2053 
L 2956 2053 
L 2956 2778 
L 1225 2778 
L 1225 2053 
z
M 5181 3916 
L 3444 3916 
L 3444 3203 
L 5181 3203 
L 5181 3916 
z
M 1225 3203 
L 2956 3203 
L 2956 3916 
L 1225 3916 
L 1225 3203 
z
" transform="scale(0.015625)"/>
      <path id="MicrosoftYaHei-8c03" d="M 2600 4509 
L 2600 1941 
Q 2600 109 1606 -841 
Q 1450 -616 1281 -441 
Q 2144 384 2144 1891 
L 2144 4934 
L 5994 4934 
L 5994 -66 
Q 5994 -759 5356 -759 
Q 4988 -759 4369 -741 
Q 4338 -509 4275 -259 
Q 4938 -303 5225 -303 
Q 5538 -303 5538 28 
L 5538 4509 
L 2600 4509 
z
M 3081 1884 
L 4994 1884 
L 4994 291 
L 3519 291 
L 3519 3 
L 3081 3 
L 3081 1884 
z
M 2794 2791 
L 3844 2791 
L 3844 3366 
L 2969 3366 
L 2969 3766 
L 3844 3766 
L 3844 4359 
L 4294 4359 
L 4294 3766 
L 5156 3766 
L 5156 3366 
L 4294 3366 
L 4294 2791 
L 5344 2791 
L 5344 2391 
L 2794 2391 
L 2794 2791 
z
M 1944 1466 
Q 1956 1184 1988 922 
Q 1338 447 863 28 
L 575 434 
Q 781 659 781 997 
L 781 2903 
L 100 2903 
L 100 3341 
L 1238 3341 
L 1238 909 
Q 1569 1153 1944 1466 
z
M 4556 1484 
L 3519 1484 
L 3519 691 
L 4556 691 
L 4556 1484 
z
M 863 5197 
Q 1281 4784 1800 4216 
L 1388 3866 
Q 900 4484 506 4897 
L 863 5197 
z
" transform="scale(0.015625)"/>
      <path id="MicrosoftYaHei-6027" d="M 1963 -153 
L 3988 -153 
L 3988 1522 
L 2375 1522 
L 2375 1959 
L 3988 1959 
L 3988 3472 
L 2975 3472 
Q 2744 2878 2438 2291 
Q 2169 2509 2019 2578 
Q 2644 3709 2894 4891 
L 3388 4759 
Q 3281 4328 3138 3909 
L 3988 3909 
L 3988 5284 
L 4481 5284 
L 4481 3909 
L 6125 3909 
L 6125 3472 
L 4481 3472 
L 4481 1959 
L 6000 1959 
L 6000 1522 
L 4481 1522 
L 4481 -153 
L 6319 -153 
L 6319 -591 
L 1963 -591 
L 1963 -153 
z
M 988 5291 
L 1469 5291 
L 1469 4091 
L 1738 4241 
Q 2063 3734 2294 3291 
L 1906 3041 
Q 1688 3503 1469 3859 
L 1469 -872 
L 988 -872 
L 988 5291 
z
M 406 3878 
L 819 3784 
Q 706 3028 506 2178 
Q 338 2241 75 2297 
Q 263 2978 406 3878 
z
" transform="scale(0.015625)"/>
     </defs>
     <use xlink:href="#MicrosoftYaHei-66"/>
     <use xlink:href="#MicrosoftYaHei-27" transform="translate(34.667969 0)"/>
     <use xlink:href="#MicrosoftYaHei-28" transform="translate(60.302734 0)"/>
     <use xlink:href="#MicrosoftYaHei-78" transform="translate(93.701172 0)"/>
     <use xlink:href="#MicrosoftYaHei-29" transform="translate(144.384766 0)"/>
     <use xlink:href="#MicrosoftYaHei-6b63" transform="translate(177.783203 0)"/>
     <use xlink:href="#MicrosoftYaHei-8d1f" transform="translate(277.783203 0)"/>
     <use xlink:href="#MicrosoftYaHei-51b3" transform="translate(377.783203 0)"/>
     <use xlink:href="#MicrosoftYaHei-5b9a" transform="translate(477.783203 0)"/>
     <use xlink:href="#MicrosoftYaHei-5355" transform="translate(577.783203 0)"/>
     <use xlink:href="#MicrosoftYaHei-8c03" transform="translate(677.783203 0)"/>
     <use xlink:href="#MicrosoftYaHei-6027" transform="translate(777.783203 0)"/>
    </g>
   </g>
  </g>
  <g id="axes_2">
   <g id="patch_10">
    <path d="M 308.73913 195.84 
L 513 195.84 
L 513 23.04 
L 308.73913 23.04 
z
" style="fill: #ffffff"/>
   </g>
   <g id="patch_11">
    <path d="M 322.666008 195.84 
L 364.44664 195.84 
L 364.44664 23.04 
L 322.666008 23.04 
z
" clip-path="url(#peaf1e7772b)" style="fill: #27ae60; opacity: 0.1; stroke: #27ae60; stroke-linejoin: miter"/>
   </g>
   <g id="patch_12">
    <path d="M 364.44664 195.84 
L 503.715415 195.84 
L 503.715415 23.04 
L 364.44664 23.04 
z
" clip-path="url(#peaf1e7772b)" style="fill: #e74c3c; opacity: 0.1; stroke: #e74c3c; stroke-linejoin: miter"/>
   </g>
   <g id="matplotlib.axis_3">
    <g id="xtick_4">
     <g id="line2d_24">
      <path d="M 318.023715 195.84 
L 318.023715 23.04 
" clip-path="url(#peaf1e7772b)" style="fill: none; stroke: #b0b0b0; stroke-opacity: 0.3; stroke-width: 0.8; stroke-linecap: square"/>
     </g>
     <g id="line2d_25">
      <g>
       <use xlink:href="#m00045fe610" x="318.023715" y="195.84" style="stroke: #000000; stroke-width: 0.8"/>
      </g>
     </g>
     <g id="text_15">
      <!-- 0 -->
      <g transform="translate(315.091684 210.83375) scale(0.1 -0.1)">
       <use xlink:href="#MicrosoftYaHei-30"/>
      </g>
     </g>
    </g>
    <g id="xtick_5">
     <g id="line2d_26">
      <path d="M 364.44664 195.84 
L 364.44664 23.04 
" clip-path="url(#peaf1e7772b)" style="fill: none; stroke: #b0b0b0; stroke-opacity: 0.3; stroke-width: 0.8; stroke-linecap: square"/>
     </g>
     <g id="line2d_27">
      <g>
       <use xlink:href="#m00045fe610" x="364.44664" y="195.84" style="stroke: #000000; stroke-width: 0.8"/>
      </g>
     </g>
     <g id="text_16">
      <!-- 1 -->
      <g transform="translate(361.514609 210.83375) scale(0.1 -0.1)">
       <use xlink:href="#MicrosoftYaHei-31"/>
      </g>
     </g>
    </g>
    <g id="xtick_6">
     <g id="line2d_28">
      <path d="M 410.869565 195.84 
L 410.869565 23.04 
" clip-path="url(#peaf1e7772b)" style="fill: none; stroke: #b0b0b0; stroke-opacity: 0.3; stroke-width: 0.8; stroke-linecap: square"/>
     </g>
     <g id="line2d_29">
      <g>
       <use xlink:href="#m00045fe610" x="410.869565" y="195.84" style="stroke: #000000; stroke-width: 0.8"/>
      </g>
     </g>
     <g id="text_17">
      <!-- 2 -->
      <g transform="translate(407.937534 210.83375) scale(0.1 -0.1)">
       <use xlink:href="#MicrosoftYaHei-32"/>
      </g>
     </g>
    </g>
    <g id="xtick_7">
     <g id="line2d_30">
      <path d="M 457.29249 195.84 
L 457.29249 23.04 
" clip-path="url(#peaf1e7772b)" style="fill: none; stroke: #b0b0b0; stroke-opacity: 0.3; stroke-width: 0.8; stroke-linecap: square"/>
     </g>
     <g id="line2d_31">
      <g>
       <use xlink:href="#m00045fe610" x="457.29249" y="195.84" style="stroke: #000000; stroke-width: 0.8"/>
      </g>
     </g>
     <g id="text_18">
      <!-- 3 -->
      <g transform="translate(454.360459 210.83375) scale(0.1 -0.1)">
       <defs>
        <path id="MicrosoftYaHei-33" d="M 447 809 
Q 944 425 1569 425 
Q 2069 425 2361 670 
Q 2653 916 2653 1328 
Q 2653 2247 1338 2247 
L 934 2247 
L 934 2753 
L 1319 2753 
Q 2484 2753 2484 3616 
Q 2484 4413 1594 4413 
Q 1084 4413 634 4069 
L 634 4647 
Q 1109 4922 1744 4922 
Q 2363 4922 2738 4598 
Q 3113 4275 3113 3759 
Q 3113 2809 2144 2538 
L 2144 2525 
Q 2669 2469 2973 2155 
Q 3278 1841 3278 1372 
Q 3278 719 2808 319 
Q 2338 -81 1556 -81 
Q 869 -81 447 175 
L 447 809 
z
" transform="scale(0.015625)"/>
       </defs>
       <use xlink:href="#MicrosoftYaHei-33"/>
      </g>
     </g>
    </g>
    <g id="xtick_8">
     <g id="line2d_32">
      <path d="M 503.715415 195.84 
L 503.715415 23.04 
" clip-path="url(#peaf1e7772b)" style="fill: none; stroke: #b0b0b0; stroke-opacity: 0.3; stroke-width: 0.8; stroke-linecap: square"/>
     </g>
     <g id="line2d_33">
      <g>
       <use xlink:href="#m00045fe610" x="503.715415" y="195.84" style="stroke: #000000; stroke-width: 0.8"/>
      </g>
     </g>
     <g id="text_19">
      <!-- 4 -->
      <g transform="translate(500.783384 210.83375) scale(0.1 -0.1)">
       <defs>
        <path id="MicrosoftYaHei-34" d="M 2906 4841 
L 2906 1644 
L 3631 1644 
L 3631 1138 
L 2906 1138 
L 2906 0 
L 2313 0 
L 2313 1138 
L 53 1138 
L 53 1616 
Q 656 2294 1265 3178 
Q 1875 4063 2272 4841 
L 2906 4841 
z
M 741 1644 
L 2313 1644 
L 2313 3950 
Q 1988 3366 1616 2817 
Q 1244 2269 741 1644 
z
" transform="scale(0.015625)"/>
       </defs>
       <use xlink:href="#MicrosoftYaHei-34"/>
      </g>
     </g>
    </g>
   </g>
   <g id="matplotlib.axis_4">
    <g id="ytick_8">
     <g id="line2d_34">
      <path d="M 308.73913 187.985648 
L 513 187.985648 
" clip-path="url(#peaf1e7772b)" style="fill: none; stroke: #b0b0b0; stroke-opacity: 0.3; stroke-width: 0.8; stroke-linecap: square"/>
     </g>
     <g id="line2d_35">
      <g>
       <use xlink:href="#maed9a1fdca" x="308.73913" y="187.985648" style="stroke: #000000; stroke-width: 0.8"/>
      </g>
     </g>
     <g id="text_20">
      <!-- -1.0 -->
      <g transform="translate(283.27663 191.982523) scale(0.1 -0.1)">
       <defs>
        <path id="MicrosoftYaHei-2e" d="M 372 322 
Q 372 491 487 606 
Q 603 722 775 722 
Q 950 722 1065 605 
Q 1181 488 1181 322 
Q 1181 159 1065 42 
Q 950 -75 772 -75 
Q 600 -75 486 42 
Q 372 159 372 322 
z
" transform="scale(0.015625)"/>
       </defs>
       <use xlink:href="#MicrosoftYaHei-2d"/>
       <use xlink:href="#MicrosoftYaHei-31" transform="translate(43.261719 0)"/>
       <use xlink:href="#MicrosoftYaHei-2e" transform="translate(101.904297 0)"/>
       <use xlink:href="#MicrosoftYaHei-30" transform="translate(125.976562 0)"/>
      </g>
     </g>
    </g>
    <g id="ytick_9">
     <g id="line2d_36">
      <path d="M 308.73913 157.125108 
L 513 157.125108 
" clip-path="url(#peaf1e7772b)" style="fill: none; stroke: #b0b0b0; stroke-opacity: 0.3; stroke-width: 0.8; stroke-linecap: square"/>
     </g>
     <g id="line2d_37">
      <g>
       <use xlink:href="#maed9a1fdca" x="308.73913" y="157.125108" style="stroke: #000000; stroke-width: 0.8"/>
      </g>
     </g>
     <g id="text_21">
      <!-- -0.5 -->
      <g transform="translate(283.27663 161.121983) scale(0.1 -0.1)">
       <use xlink:href="#MicrosoftYaHei-2d"/>
       <use xlink:href="#MicrosoftYaHei-30" transform="translate(43.261719 0)"/>
       <use xlink:href="#MicrosoftYaHei-2e" transform="translate(101.904297 0)"/>
       <use xlink:href="#MicrosoftYaHei-35" transform="translate(125.976562 0)"/>
      </g>
     </g>
    </g>
    <g id="ytick_10">
     <g id="line2d_38">
      <path d="M 308.73913 126.264567 
L 513 126.264567 
" clip-path="url(#peaf1e7772b)" style="fill: none; stroke: #b0b0b0; stroke-opacity: 0.3; stroke-width: 0.8; stroke-linecap: square"/>
     </g>
     <g id="line2d_39">
      <g>
       <use xlink:href="#maed9a1fdca" x="308.73913" y="126.264567" style="stroke: #000000; stroke-width: 0.8"/>
      </g>
     </g>
     <g id="text_22">
      <!-- 0.0 -->
      <g transform="translate(287.603193 130.261442) scale(0.1 -0.1)">
       <use xlink:href="#MicrosoftYaHei-30"/>
       <use xlink:href="#MicrosoftYaHei-2e" transform="translate(58.642578 0)"/>
       <use xlink:href="#MicrosoftYaHei-30" transform="translate(82.714844 0)"/>
      </g>
     </g>
    </g>
    <g id="ytick_11">
     <g id="line2d_40">
      <path d="M 308.73913 95.404027 
L 513 95.404027 
" clip-path="url(#peaf1e7772b)" style="fill: none; stroke: #b0b0b0; stroke-opacity: 0.3; stroke-width: 0.8; stroke-linecap: square"/>
     </g>
     <g id="line2d_41">
      <g>
       <use xlink:href="#maed9a1fdca" x="308.73913" y="95.404027" style="stroke: #000000; stroke-width: 0.8"/>
      </g>
     </g>
     <g id="text_23">
      <!-- 0.5 -->
      <g transform="translate(287.603193 99.400902) scale(0.1 -0.1)">
       <use xlink:href="#MicrosoftYaHei-30"/>
       <use xlink:href="#MicrosoftYaHei-2e" transform="translate(58.642578 0)"/>
       <use xlink:href="#MicrosoftYaHei-35" transform="translate(82.714844 0)"/>
      </g>
     </g>
    </g>
    <g id="ytick_12">
     <g id="line2d_42">
      <path d="M 308.73913 64.543487 
L 513 64.543487 
" clip-path="url(#peaf1e7772b)" style="fill: none; stroke: #b0b0b0; stroke-opacity: 0.3; stroke-width: 0.8; stroke-linecap: square"/>
     </g>
     <g id="line2d_43">
      <g>
       <use xlink:href="#maed9a1fdca" x="308.73913" y="64.543487" style="stroke: #000000; stroke-width: 0.8"/>
      </g>
     </g>
     <g id="text_24">
      <!-- 1.0 -->
      <g transform="translate(287.603193 68.540362) scale(0.1 -0.1)">
       <use xlink:href="#MicrosoftYaHei-31"/>
       <use xlink:href="#MicrosoftYaHei-2e" transform="translate(58.642578 0)"/>
       <use xlink:href="#MicrosoftYaHei-30" transform="translate(82.714844 0)"/>
      </g>
     </g>
    </g>
    <g id="ytick_13">
     <g id="line2d_44">
      <path d="M 308.73913 33.682946 
L 513 33.682946 
" clip-path="url(#peaf1e7772b)" style="fill: none; stroke: #b0b0b0; stroke-opacity: 0.3; stroke-width: 0.8; stroke-linecap: square"/>
     </g>
     <g id="line2d_45">
      <g>
       <use xlink:href="#maed9a1fdca" x="308.73913" y="33.682946" style="stroke: #000000; stroke-width: 0.8"/>
      </g>
     </g>
     <g id="text_25">
      <!-- 1.5 -->
      <g transform="translate(287.603193 37.679821) scale(0.1 -0.1)">
       <use xlink:href="#MicrosoftYaHei-31"/>
       <use xlink:href="#MicrosoftYaHei-2e" transform="translate(58.642578 0)"/>
       <use xlink:href="#MicrosoftYaHei-35" transform="translate(82.714844 0)"/>
      </g>
     </g>
    </g>
   </g>
   <g id="line2d_46">
    <path d="M 318.489108 129.731261 
L 319.419894 134.625323 
L 320.816072 140.412738 
L 322.21225 145.228861 
L 324.073821 150.699513 
L 325.935392 155.396121 
L 327.796963 159.504873 
L 329.658534 163.139297 
L 331.985497 167.129857 
L 334.312461 170.602371 
L 336.639425 173.6314 
L 338.966388 176.272692 
L 341.293352 178.569519 
L 343.620316 180.556449 
L 345.947279 182.261737 
L 348.274243 183.70891 
L 350.601207 184.917864 
L 352.92817 185.905645 
L 355.255134 186.68702 
L 358.04749 187.370293 
L 360.839847 187.794341 
L 363.632203 187.976094 
L 366.424559 187.930406 
L 369.216916 187.670413 
L 372.009272 187.207818 
L 375.267021 186.42599 
L 378.52477 185.397532 
L 381.78252 184.135738 
L 385.040269 182.652539 
L 388.763411 180.700119 
L 392.486552 178.487048 
L 396.209694 176.026372 
L 400.398229 172.976793 
L 404.586763 169.643932 
L 408.775298 166.041507 
L 413.429225 161.737761 
L 418.083153 157.132063 
L 423.202473 151.733776 
L 428.321793 146.004076 
L 433.906505 139.39357 
L 439.491218 132.425089 
L 445.075931 125.115105 
L 451.126036 116.827968 
L 457.176142 108.175075 
L 463.69164 98.465758 
L 470.207138 88.368846 
L 477.188029 77.139451 
L 484.16892 65.502849 
L 491.615204 52.660902 
L 499.52688 38.551284 
L 503.715415 30.894545 
L 503.715415 30.894545 
" clip-path="url(#peaf1e7772b)" style="fill: none; stroke: #e67e22; stroke-width: 2; stroke-linecap: square"/>
   </g>
   <g id="line2d_47">
    <path d="M 308.73913 126.264567 
L 513 126.264567 
" clip-path="url(#peaf1e7772b)" style="fill: none; stroke: #808080; stroke-width: 0.5; stroke-linecap: square"/>
   </g>
   <g id="line2d_48">
    <path d="M 318.023715 195.84 
L 318.023715 23.04 
" clip-path="url(#peaf1e7772b)" style="fill: none; stroke: #808080; stroke-width: 0.5; stroke-linecap: square"/>
   </g>
   <g id="patch_13">
    <path d="M 308.73913 195.84 
L 308.73913 23.04 
" style="fill: none; stroke: #000000; stroke-width: 0.8; stroke-linejoin: miter; stroke-linecap: square"/>
   </g>
   <g id="patch_14">
    <path d="M 513 195.84 
L 513 23.04 
" style="fill: none; stroke: #000000; stroke-width: 0.8; stroke-linejoin: miter; stroke-linecap: square"/>
   </g>
   <g id="patch_15">
    <path d="M 308.73913 195.84 
L 513 195.84 
" style="fill: none; stroke: #000000; stroke-width: 0.8; stroke-linejoin: miter; stroke-linecap: square"/>
   </g>
   <g id="patch_16">
    <path d="M 308.73913 23.04 
L 513 23.04 
" style="fill: none; stroke: #000000; stroke-width: 0.8; stroke-linejoin: miter; stroke-linecap: square"/>
   </g>
   <g id="text_26">
    <!-- 递减 -->
    <g style="fill: #27ae60" transform="translate(331.235178 157.125108) scale(0.1 -0.1)">
     <defs>
      <path id="MicrosoftYaHei-9012" d="M 1975 4359 
L 3150 4359 
Q 2872 4688 2469 5059 
L 2806 5359 
Q 3213 5016 3525 4691 
L 3163 4359 
L 4559 4359 
L 4306 4559 
Q 4663 4922 4969 5353 
L 5388 5066 
Q 5069 4694 4744 4359 
L 5819 4359 
L 5819 2659 
L 5356 2659 
L 5356 2891 
L 4156 2891 
L 4156 2253 
L 6081 2253 
Q 6056 1597 6006 1109 
Q 5950 434 5256 434 
Q 4919 434 4600 441 
Q 4556 659 4494 928 
Q 4863 897 5200 897 
Q 5525 903 5550 1209 
Q 5581 1484 5594 1841 
L 4156 1841 
L 4156 -28 
L 3694 -28 
L 3694 1706 
Q 2975 703 1831 184 
Q 1719 353 1550 559 
Q 2625 1022 3294 1841 
L 1956 1841 
L 1956 2259 
L 2250 3303 
L 3694 3303 
L 3694 3947 
L 1975 3947 
L 1975 4359 
z
M 2750 -228 
L 4075 -247 
L 6319 -197 
Q 6213 -447 6113 -678 
L 4075 -703 
L 2650 -678 
Q 1575 -666 1088 47 
Q 906 -97 356 -753 
L 88 -222 
Q 478 131 863 459 
L 863 2641 
L 150 2641 
L 150 3097 
L 1350 3097 
L 1350 366 
Q 1819 -213 2750 -228 
z
M 5356 3947 
L 4156 3947 
L 4156 3303 
L 5356 3303 
L 5356 3947 
z
M 2431 2253 
L 3694 2253 
L 3694 2891 
L 2600 2891 
L 2431 2253 
z
M 731 5266 
Q 1125 4809 1600 4197 
L 1150 3897 
Q 719 4534 344 4984 
L 731 5266 
z
" transform="scale(0.015625)"/>
     </defs>
     <use xlink:href="#MicrosoftYaHei-9012"/>
     <use xlink:href="#MicrosoftYaHei-51cf" transform="translate(100 0)"/>
    </g>
   </g>
   <g id="text_27">
    <!-- 递增 -->
    <g style="fill: #e74c3c" transform="translate(400.869565 95.404027) scale(0.1 -0.1)">
     <use xlink:href="#MicrosoftYaHei-9012"/>
     <use xlink:href="#MicrosoftYaHei-589e" transform="translate(100 0)"/>
    </g>
   </g>
   <g id="text_28">
    <!-- f'(x)符号变化与单调区间 -->
    <g style="fill: #1a1a2e" transform="translate(351.589878 17.04) scale(0.11 -0.11)">
     <defs>
      <path id="MicrosoftYaHei-7b26" d="M 1975 2516 
L 4713 2516 
L 4713 3247 
L 5206 3247 
L 5206 2516 
L 6281 2516 
L 6281 2066 
L 5206 2066 
L 5206 -22 
Q 5206 -772 4506 -772 
Q 4019 -772 3575 -759 
Q 3544 -522 3494 -241 
Q 3969 -297 4381 -297 
Q 4713 -297 4713 41 
L 4713 2066 
L 1975 2066 
L 1975 2516 
z
M 81 1347 
Q 900 2134 1619 3497 
L 2075 3253 
Q 1828 2809 1575 2416 
L 1575 -809 
L 1081 -809 
L 1081 1709 
Q 713 1225 331 841 
Q 219 1091 81 1347 
z
M 4000 5353 
L 4544 5353 
Q 4416 5025 4272 4716 
L 6275 4716 
L 6275 4284 
L 4053 4284 
Q 3706 3634 3263 3059 
Q 3125 3209 2875 3403 
Q 3631 4366 4000 5353 
z
M 1319 5353 
L 1863 5353 
Q 1734 5022 1584 4716 
L 3394 4716 
L 3394 4284 
L 1350 4284 
Q 963 3622 450 3097 
Q 313 3241 88 3453 
Q 881 4234 1319 5353 
z
M 2456 1572 
L 2856 1834 
Q 3306 1259 3638 722 
L 3200 422 
Q 2888 959 2456 1572 
z
M 2238 3284 
Q 2106 3478 1669 4022 
L 2025 4278 
Q 2350 3934 2625 3578 
L 2238 3284 
z
M 5000 3316 
Q 4744 3659 4419 4022 
L 4756 4278 
Q 5169 3891 5394 3616 
L 5000 3316 
z
" transform="scale(0.015625)"/>
      <path id="MicrosoftYaHei-53f7" d="M 1075 5028 
L 5319 5028 
L 5319 2966 
L 4825 2966 
L 4825 3222 
L 1569 3222 
L 1569 2934 
L 1075 2934 
L 1075 5028 
z
M 1194 1053 
L 1194 1509 
L 1466 2153 
L 106 2153 
L 106 2609 
L 6300 2609 
L 6300 2153 
L 1981 2153 
L 1713 1503 
L 5444 1503 
Q 5369 778 5300 316 
Q 5150 -703 4125 -703 
Q 3406 -703 2588 -678 
Q 2550 -466 2481 -134 
Q 3375 -209 4038 -209 
Q 4713 -209 4800 397 
Q 4844 647 4888 1053 
L 1194 1053 
z
M 4825 4578 
L 1569 4578 
L 1569 3672 
L 4825 3672 
L 4825 4578 
z
" transform="scale(0.015625)"/>
      <path id="MicrosoftYaHei-53d8" d="M 838 1634 
L 838 2066 
L 5088 2066 
L 5088 1634 
Q 4494 853 3659 309 
Q 4675 -178 6313 -297 
Q 6088 -609 5950 -822 
Q 4275 -594 3178 34 
Q 2122 -509 425 -866 
Q 269 -622 106 -403 
Q 1741 -122 2728 328 
Q 2047 838 1553 1634 
L 838 1634 
z
M 231 4534 
L 3081 4534 
Q 2888 4884 2725 5141 
L 3175 5359 
Q 3481 4884 3600 4659 
L 3359 4534 
L 6200 4534 
L 6200 4091 
L 4181 4091 
L 4181 2353 
L 3700 2353 
L 3700 4091 
L 2694 4091 
L 2694 2341 
L 2213 2341 
L 2213 4091 
L 231 4091 
L 231 4534 
z
M 4475 1634 
L 2116 1634 
Q 2575 953 3197 572 
Q 3947 1016 4475 1634 
z
M 4556 3434 
L 4900 3728 
Q 5700 3009 6213 2459 
L 5825 2116 
Q 5219 2797 4556 3434 
z
M 1381 3741 
L 1756 3422 
Q 1119 2691 500 2097 
Q 344 2272 138 2447 
Q 794 3009 1381 3741 
z
" transform="scale(0.015625)"/>
      <path id="MicrosoftYaHei-5316" d="M 1844 1453 
Q 2663 1834 3375 2331 
L 3375 5197 
L 3913 5197 
L 3913 2734 
Q 4869 3506 5613 4516 
L 6069 4184 
Q 5159 2975 3913 2069 
L 3913 303 
Q 3913 -122 4363 -122 
L 5156 -122 
Q 5581 -122 5650 284 
Q 5738 709 5763 1266 
Q 6025 1166 6313 1084 
Q 6263 559 6181 122 
Q 6063 -597 5281 -597 
L 4225 -597 
Q 3375 -597 3375 241 
L 3375 1703 
Q 2791 1328 2144 1016 
Q 2013 1222 1844 1453 
z
M 88 2222 
Q 1175 3666 1688 5291 
L 2231 5134 
Q 1934 4359 1588 3675 
L 1588 -797 
L 1063 -797 
L 1063 2734 
Q 716 2172 325 1678 
Q 219 1947 88 2222 
z
" transform="scale(0.015625)"/>
      <path id="MicrosoftYaHei-4e0e" d="M 1163 2384 
L 1163 2859 
L 1413 5328 
L 1931 5328 
L 1834 4334 
L 6269 4334 
L 6269 3859 
L 1791 3859 
L 1694 2859 
L 5813 2859 
Q 5738 1547 5644 416 
Q 5556 -247 5263 -478 
Q 4981 -703 4322 -703 
Q 3706 -697 2900 -678 
Q 2863 -466 2794 -134 
Q 3744 -203 4213 -209 
Q 5050 -266 5125 447 
Q 5206 1278 5263 2384 
L 1163 2384 
z
M 106 1409 
L 4738 1409 
L 4738 934 
L 106 934 
L 106 1409 
z
" transform="scale(0.015625)"/>
      <path id="MicrosoftYaHei-533a" d="M 600 4872 
L 5975 4872 
L 5975 4384 
L 1131 4384 
L 1131 22 
L 6075 22 
L 6075 -453 
L 600 -453 
L 600 4872 
z
M 1613 3697 
L 1963 4028 
Q 2744 3384 3597 2616 
Q 4250 3322 4850 4153 
L 5306 3847 
Q 4650 2997 3975 2272 
Q 4753 1563 5588 753 
L 5156 316 
Q 4400 1106 3600 1878 
Q 2697 963 1763 266 
Q 1613 459 1363 672 
Q 2344 1341 3228 2231 
Q 2444 2972 1613 3697 
z
" transform="scale(0.015625)"/>
      <path id="MicrosoftYaHei-95f4" d="M 1863 3647 
L 4513 3647 
L 4513 553 
L 2313 553 
L 2313 166 
L 1863 166 
L 1863 3647 
z
M 2388 4453 
L 2388 4922 
L 6013 4922 
L 6013 -28 
Q 6013 -816 5119 -816 
Q 4756 -816 4169 -803 
Q 4144 -616 4069 -297 
Q 4588 -334 5056 -334 
Q 5525 -334 5525 122 
L 5525 4453 
L 2388 4453 
z
M 419 4084 
L 906 4084 
L 906 -816 
L 419 -816 
L 419 4084 
z
M 2313 997 
L 4063 997 
L 4063 1884 
L 2313 1884 
L 2313 997 
z
M 4063 3203 
L 2313 3203 
L 2313 2328 
L 4063 2328 
L 4063 3203 
z
M 744 5003 
L 1100 5322 
Q 1575 4872 1981 4447 
L 1575 4091 
Q 1194 4541 744 5003 
z
" transform="scale(0.015625)"/>
     </defs>
     <use xlink:href="#MicrosoftYaHei-66"/>
     <use xlink:href="#MicrosoftYaHei-27" transform="translate(34.667969 0)"/>
     <use xlink:href="#MicrosoftYaHei-28" transform="translate(60.302734 0)"/>
     <use xlink:href="#MicrosoftYaHei-78" transform="translate(93.701172 0)"/>
     <use xlink:href="#MicrosoftYaHei-29" transform="translate(144.384766 0)"/>
     <use xlink:href="#MicrosoftYaHei-7b26" transform="translate(177.783203 0)"/>
     <use xlink:href="#MicrosoftYaHei-53f7" transform="translate(277.783203 0)"/>
     <use xlink:href="#MicrosoftYaHei-53d8" transform="translate(377.783203 0)"/>
     <use xlink:href="#MicrosoftYaHei-5316" transform="translate(477.783203 0)"/>
     <use xlink:href="#MicrosoftYaHei-4e0e" transform="translate(577.783203 0)"/>
     <use xlink:href="#MicrosoftYaHei-5355" transform="translate(677.783203 0)"/>
     <use xlink:href="#MicrosoftYaHei-8c03" transform="translate(777.783203 0)"/>
     <use xlink:href="#MicrosoftYaHei-533a" transform="translate(877.783203 0)"/>
     <use xlink:href="#MicrosoftYaHei-95f4" transform="translate(977.783203 0)"/>
    </g>
   </g>
  </g>
 </g>
 <defs>
  <clipPath id="pa0884d00a0">
   <rect x="43.2" y="23.04" width="204.26087" height="172.8"/>
  </clipPath>
  <clipPath id="peaf1e7772b">
   <rect x="308.73913" y="23.04" width="204.26087" height="172.8"/>
  </clipPath>
 </defs>
</svg>
