<?xml version="1.0" encoding="utf-8" standalone="no"?>
<!DOCTYPE svg PUBLIC "-//W3C//DTD SVG 1.1//EN"
  "http://www.w3.org/Graphics/SVG/1.1/DTD/svg11.dtd">
<svg xmlns:xlink="http://www.w3.org/1999/xlink" width="492.583125pt" height="276.4075pt" viewBox="0 0 492.583125 276.4075" xmlns="http://www.w3.org/2000/svg" version="1.1">
 <metadata>
  <rdf:RDF xmlns:dc="http://purl.org/dc/elements/1.1/" xmlns:cc="http://creativecommons.org/ns#" xmlns:rdf="http://www.w3.org/1999/02/22-rdf-syntax-ns#">
   <cc:Work>
    <dc:type rdf:resource="http://purl.org/dc/dcmitype/StillImage"/>
    <dc:date>2026-05-25T15:33:27.288603</dc:date>
    <dc:format>image/svg+xml</dc:format>
    <dc:creator>
     <cc:Agent>
      <dc:title>Matplotlib v3.10.9, https://matplotlib.org/</dc:title>
     </cc:Agent>
    </dc:creator>
   </cc:Work>
  </rdf:RDF>
 </metadata>
 <defs>
  <style type="text/css">*{stroke-linejoin: round; stroke-linecap: butt}</style>
 </defs>
 <g id="figure_1">
  <g id="patch_1">
   <path d="M 0 276.4075 
L 492.583125 276.4075 
L 492.583125 0 
L 0 0 
z
" style="fill: #ffffff"/>
  </g>
  <g id="axes_1">
   <g id="patch_2">
    <path d="M 57.143125 249.631875 
L 485.383125 249.631875 
L 485.383125 23.591875 
L 57.143125 23.591875 
z
" style="fill: #ffffff"/>
   </g>
   <g id="patch_3">
    <path d="M 57.143125 239.35733 
L 108.124077 239.35733 
L 108.124077 216.525006 
L 57.143125 216.525006 
z
" clip-path="url(#p8888fde22a)" style="fill: #95a5a6; stroke: #ffffff; stroke-linejoin: miter"/>
   </g>
   <g id="patch_4">
    <path d="M 57.143125 193.692683 
L 125.117728 193.692683 
L 125.117728 170.86036 
L 57.143125 170.86036 
z
" clip-path="url(#p8888fde22a)" style="fill: #95a5a6; stroke: #ffffff; stroke-linejoin: miter"/>
   </g>
   <g id="patch_5">
    <path d="M 57.143125 148.028037 
L 125.117728 148.028037 
L 125.117728 125.195713 
L 57.143125 125.195713 
z
" clip-path="url(#p8888fde22a)" style="fill: #95a5a6; stroke: #ffffff; stroke-linejoin: miter"/>
   </g>
   <g id="patch_6">
    <path d="M 57.143125 102.36339 
L 91.130427 102.36339 
L 91.130427 79.531067 
L 57.143125 79.531067 
z
" clip-path="url(#p8888fde22a)" style="fill: #95a5a6; stroke: #ffffff; stroke-linejoin: miter"/>
   </g>
   <g id="patch_7">
    <path d="M 57.143125 56.698744 
L 91.130427 56.698744 
L 91.130427 33.86642 
L 57.143125 33.86642 
z
" clip-path="url(#p8888fde22a)" style="fill: #95a5a6; stroke: #ffffff; stroke-linejoin: miter"/>
   </g>
   <g id="patch_8">
    <path d="M 108.124077 239.35733 
L 227.079633 239.35733 
L 227.079633 216.525006 
L 108.124077 216.525006 
z
" clip-path="url(#p8888fde22a)" style="fill: #73bfaa; stroke: #ffffff; stroke-linejoin: miter"/>
   </g>
   <g id="patch_9">
    <path d="M 125.117728 193.692683 
L 176.098681 193.692683 
L 176.098681 170.86036 
L 125.117728 170.86036 
z
" clip-path="url(#p8888fde22a)" style="fill: #73bfaa; stroke: #ffffff; stroke-linejoin: miter"/>
   </g>
   <g id="patch_10">
    <path d="M 125.117728 148.028037 
L 210.085982 148.028037 
L 210.085982 125.195713 
L 125.117728 125.195713 
z
" clip-path="url(#p8888fde22a)" style="fill: #73bfaa; stroke: #ffffff; stroke-linejoin: miter"/>
   </g>
   <g id="patch_11">
    <path d="M 91.130427 102.36339 
L 176.098681 102.36339 
L 176.098681 79.531067 
L 91.130427 79.531067 
z
" clip-path="url(#p8888fde22a)" style="fill: #73bfaa; stroke: #ffffff; stroke-linejoin: miter"/>
   </g>
   <g id="patch_12">
    <path d="M 91.130427 56.698744 
L 159.10503 56.698744 
L 159.10503 33.86642 
L 91.130427 33.86642 
z
" clip-path="url(#p8888fde22a)" style="fill: #73bfaa; stroke: #ffffff; stroke-linejoin: miter"/>
   </g>
   <g id="patch_13">
    <path d="M 227.079633 239.35733 
L 295.054236 239.35733 
L 295.054236 216.525006 
L 227.079633 216.525006 
z
" clip-path="url(#p8888fde22a)" style="fill: #e8a060; stroke: #ffffff; stroke-linejoin: miter"/>
   </g>
   <g id="patch_14">
    <path d="M 176.098681 193.692683 
L 244.073284 193.692683 
L 244.073284 170.86036 
L 176.098681 170.86036 
z
" clip-path="url(#p8888fde22a)" style="fill: #e8a060; stroke: #ffffff; stroke-linejoin: miter"/>
   </g>
   <g id="patch_15">
    <path d="M 210.085982 148.028037 
L 278.060585 148.028037 
L 278.060585 125.195713 
L 210.085982 125.195713 
z
" clip-path="url(#p8888fde22a)" style="fill: #e8a060; stroke: #ffffff; stroke-linejoin: miter"/>
   </g>
   <g id="patch_16">
    <path d="M 176.098681 102.36339 
L 227.079633 102.36339 
L 227.079633 79.531067 
L 176.098681 79.531067 
z
" clip-path="url(#p8888fde22a)" style="fill: #e8a060; stroke: #ffffff; stroke-linejoin: miter"/>
   </g>
   <g id="patch_17">
    <path d="M 159.10503 56.698744 
L 193.092331 56.698744 
L 193.092331 33.86642 
L 159.10503 33.86642 
z
" clip-path="url(#p8888fde22a)" style="fill: #e8a060; stroke: #ffffff; stroke-linejoin: miter"/>
   </g>
   <g id="patch_18">
    <path d="M 295.054236 239.35733 
L 363.028839 239.35733 
L 363.028839 216.525006 
L 295.054236 216.525006 
z
" clip-path="url(#p8888fde22a)" style="fill: #d18080; stroke: #ffffff; stroke-linejoin: miter"/>
   </g>
   <g id="patch_19">
    <path d="M 244.073284 193.692683 
L 329.041538 193.692683 
L 329.041538 170.86036 
L 244.073284 170.86036 
z
" clip-path="url(#p8888fde22a)" style="fill: #d18080; stroke: #ffffff; stroke-linejoin: miter"/>
   </g>
   <g id="patch_20">
    <path d="M 278.060585 148.028037 
L 329.041538 148.028037 
L 329.041538 125.195713 
L 278.060585 125.195713 
z
" clip-path="url(#p8888fde22a)" style="fill: #d18080; stroke: #ffffff; stroke-linejoin: miter"/>
   </g>
   <g id="patch_21">
    <path d="M 227.079633 102.36339 
L 261.066935 102.36339 
L 261.066935 79.531067 
L 227.079633 79.531067 
z
" clip-path="url(#p8888fde22a)" style="fill: #d18080; stroke: #ffffff; stroke-linejoin: miter"/>
   </g>
   <g id="patch_22">
    <path d="M 193.092331 56.698744 
L 210.085982 56.698744 
L 210.085982 33.86642 
L 193.092331 33.86642 
z
" clip-path="url(#p8888fde22a)" style="fill: #d18080; stroke: #ffffff; stroke-linejoin: miter"/>
   </g>
   <g id="patch_23">
    <path d="M 363.028839 239.35733 
L 380.02249 239.35733 
L 380.02249 216.525006 
L 363.028839 216.525006 
z
" clip-path="url(#p8888fde22a)" style="fill: #3498db; stroke: #ffffff; stroke-linejoin: miter"/>
   </g>
   <g id="patch_24">
    <path d="M 329.041538 193.692683 
L 380.02249 193.692683 
L 380.02249 170.86036 
L 329.041538 170.86036 
z
" clip-path="url(#p8888fde22a)" style="fill: #3498db; stroke: #ffffff; stroke-linejoin: miter"/>
   </g>
   <g id="patch_25">
    <path d="M 329.041538 148.028037 
L 363.028839 148.028037 
L 363.028839 125.195713 
L 329.041538 125.195713 
z
" clip-path="url(#p8888fde22a)" style="fill: #3498db; stroke: #ffffff; stroke-linejoin: miter"/>
   </g>
   <g id="patch_26">
    <path d="M 261.066935 102.36339 
L 278.060585 102.36339 
L 278.060585 79.531067 
L 261.066935 79.531067 
z
" clip-path="url(#p8888fde22a)" style="fill: #3498db; stroke: #ffffff; stroke-linejoin: miter"/>
   </g>
   <g id="patch_27">
    <path d="M 210.085982 56.698744 
L 220.282173 56.698744 
L 220.282173 33.86642 
L 210.085982 33.86642 
z
" clip-path="url(#p8888fde22a)" style="fill: #3498db; stroke: #ffffff; stroke-linejoin: miter"/>
   </g>
   <g id="patch_28">
    <path d="M 380.02249 239.35733 
L 464.990744 239.35733 
L 464.990744 216.525006 
L 380.02249 216.525006 
z
" clip-path="url(#p8888fde22a)" style="fill: #bdc3c7; stroke: #ffffff; stroke-linejoin: miter"/>
   </g>
   <g id="patch_29">
    <path d="M 380.02249 193.692683 
L 464.990744 193.692683 
L 464.990744 170.86036 
L 380.02249 170.86036 
z
" clip-path="url(#p8888fde22a)" style="fill: #bdc3c7; stroke: #ffffff; stroke-linejoin: miter"/>
   </g>
   <g id="patch_30">
    <path d="M 363.028839 148.028037 
L 397.016141 148.028037 
L 397.016141 125.195713 
L 363.028839 125.195713 
z
" clip-path="url(#p8888fde22a)" style="fill: #bdc3c7; stroke: #ffffff; stroke-linejoin: miter"/>
   </g>
   <g id="patch_31">
    <path d="M 278.060585 102.36339 
L 295.054236 102.36339 
L 295.054236 79.531067 
L 278.060585 79.531067 
z
" clip-path="url(#p8888fde22a)" style="fill: #bdc3c7; stroke: #ffffff; stroke-linejoin: miter"/>
   </g>
   <g id="patch_32">
    <path d="M 220.282173 56.698744 
L 227.079633 56.698744 
L 227.079633 33.86642 
L 220.282173 33.86642 
z
" clip-path="url(#p8888fde22a)" style="fill: #bdc3c7; stroke: #ffffff; stroke-linejoin: miter"/>
   </g>
   <g id="matplotlib.axis_1">
    <g id="xtick_1">
     <g id="line2d_1">
      <defs>
       <path id="mc15a37c3ea" d="M 0 0 
L 0 3.5 
" style="stroke: #000000; stroke-width: 0.8"/>
      </defs>
      <g>
       <use xlink:href="#mc15a37c3ea" x="57.143125" y="249.631875" style="stroke: #000000; stroke-width: 0.8"/>
      </g>
     </g>
     <g id="text_1">
      <!-- 0 -->
      <g transform="translate(53.624688 266.224375) scale(0.12 -0.12)">
       <defs>
        <path id="MicrosoftYaHei-30" d="M 284 2325 
Q 284 3606 709 4264 
Q 1134 4922 1941 4922 
Q 3478 4922 3478 2441 
Q 3478 1216 3045 567 
Q 2613 -81 1831 -81 
Q 1094 -81 689 534 
Q 284 1150 284 2325 
z
M 909 2353 
Q 909 425 1888 425 
Q 2850 425 2850 2384 
Q 2850 4413 1906 4413 
Q 909 4413 909 2353 
z
" transform="scale(0.015625)"/>
       </defs>
       <use xlink:href="#MicrosoftYaHei-30"/>
      </g>
     </g>
    </g>
    <g id="xtick_2">
     <g id="line2d_2">
      <g>
       <use xlink:href="#mc15a37c3ea" x="125.117728" y="249.631875" style="stroke: #000000; stroke-width: 0.8"/>
      </g>
     </g>
     <g id="text_2">
      <!-- 20 -->
      <g transform="translate(118.080853 266.224375) scale(0.12 -0.12)">
       <defs>
        <path id="MicrosoftYaHei-32" d="M 2666 3572 
Q 2666 3963 2419 4186 
Q 2172 4409 1747 4409 
Q 1447 4409 1140 4256 
Q 834 4103 569 3819 
L 569 4413 
Q 806 4659 1107 4790 
Q 1409 4922 1816 4922 
Q 2472 4922 2872 4570 
Q 3272 4219 3272 3619 
Q 3272 3084 3026 2693 
Q 2781 2303 2188 1894 
Q 1581 1475 1376 1294 
Q 1172 1113 1090 947 
Q 1009 781 1009 544 
L 3416 544 
L 3416 0 
L 372 0 
L 372 241 
Q 372 659 486 951 
Q 600 1244 862 1520 
Q 1125 1797 1681 2184 
Q 2250 2584 2458 2886 
Q 2666 3188 2666 3572 
z
" transform="scale(0.015625)"/>
       </defs>
       <use xlink:href="#MicrosoftYaHei-32"/>
       <use xlink:href="#MicrosoftYaHei-30" transform="translate(58.642578 0)"/>
      </g>
     </g>
    </g>
    <g id="xtick_3">
     <g id="line2d_3">
      <g>
       <use xlink:href="#mc15a37c3ea" x="193.092331" y="249.631875" style="stroke: #000000; stroke-width: 0.8"/>
      </g>
     </g>
     <g id="text_3">
      <!-- 40 -->
      <g transform="translate(186.055456 266.224375) scale(0.12 -0.12)">
       <defs>
        <path id="MicrosoftYaHei-34" d="M 2906 4841 
L 2906 1644 
L 3631 1644 
L 3631 1138 
L 2906 1138 
L 2906 0 
L 2313 0 
L 2313 1138 
L 53 1138 
L 53 1616 
Q 656 2294 1265 3178 
Q 1875 4063 2272 4841 
L 2906 4841 
z
M 741 1644 
L 2313 1644 
L 2313 3950 
Q 1988 3366 1616 2817 
Q 1244 2269 741 1644 
z
" transform="scale(0.015625)"/>
       </defs>
       <use xlink:href="#MicrosoftYaHei-34"/>
       <use xlink:href="#MicrosoftYaHei-30" transform="translate(58.642578 0)"/>
      </g>
     </g>
    </g>
    <g id="xtick_4">
     <g id="line2d_4">
      <g>
       <use xlink:href="#mc15a37c3ea" x="261.066935" y="249.631875" style="stroke: #000000; stroke-width: 0.8"/>
      </g>
     </g>
     <g id="text_4">
      <!-- 60 -->
      <g transform="translate(254.03006 266.224375) scale(0.12 -0.12)">
       <defs>
        <path id="MicrosoftYaHei-36" d="M 3181 4219 
Q 2803 4413 2391 4413 
Q 1763 4413 1381 3866 
Q 1000 3319 994 2372 
L 1009 2372 
Q 1353 3038 2106 3038 
Q 2734 3038 3109 2628 
Q 3484 2219 3484 1541 
Q 3484 831 3051 375 
Q 2619 -81 1947 -81 
Q 1209 -81 789 495 
Q 369 1072 369 2131 
Q 369 3413 920 4167 
Q 1472 4922 2372 4922 
Q 2888 4922 3181 4781 
L 3181 4219 
z
M 1031 1584 
Q 1031 1106 1286 765 
Q 1541 425 1963 425 
Q 2363 425 2613 719 
Q 2863 1013 2863 1475 
Q 2863 1975 2627 2253 
Q 2391 2531 1956 2531 
Q 1544 2531 1287 2250 
Q 1031 1969 1031 1584 
z
" transform="scale(0.015625)"/>
       </defs>
       <use xlink:href="#MicrosoftYaHei-36"/>
       <use xlink:href="#MicrosoftYaHei-30" transform="translate(58.642578 0)"/>
      </g>
     </g>
    </g>
    <g id="xtick_5">
     <g id="line2d_5">
      <g>
       <use xlink:href="#mc15a37c3ea" x="329.041538" y="249.631875" style="stroke: #000000; stroke-width: 0.8"/>
      </g>
     </g>
     <g id="text_5">
      <!-- 80 -->
      <g transform="translate(322.004663 266.224375) scale(0.12 -0.12)">
       <defs>
        <path id="MicrosoftYaHei-38" d="M 306 1350 
Q 306 1769 556 2122 
Q 806 2475 1200 2625 
Q 884 2803 700 3081 
Q 516 3359 516 3684 
Q 516 4028 692 4312 
Q 869 4597 1183 4759 
Q 1497 4922 1875 4922 
Q 2256 4922 2572 4761 
Q 2888 4600 3063 4315 
Q 3238 4031 3238 3684 
Q 3238 3366 3058 3086 
Q 2878 2806 2559 2625 
Q 2953 2472 3200 2119 
Q 3447 1766 3447 1350 
Q 3447 938 3250 611 
Q 3053 284 2690 103 
Q 2328 -78 1875 -78 
Q 1425 -78 1065 103 
Q 706 284 506 612 
Q 306 941 306 1350 
z
M 906 1378 
Q 906 947 1172 687 
Q 1438 428 1878 428 
Q 2309 428 2582 692 
Q 2856 956 2856 1378 
Q 2856 1778 2579 2051 
Q 2303 2325 1878 2325 
Q 1456 2325 1181 2058 
Q 906 1791 906 1378 
z
M 1081 3634 
Q 1081 3309 1312 3076 
Q 1544 2844 1878 2844 
Q 2206 2844 2445 3078 
Q 2684 3313 2684 3634 
Q 2684 3963 2454 4191 
Q 2225 4419 1878 4419 
Q 1534 4419 1307 4195 
Q 1081 3972 1081 3634 
z
" transform="scale(0.015625)"/>
       </defs>
       <use xlink:href="#MicrosoftYaHei-38"/>
       <use xlink:href="#MicrosoftYaHei-30" transform="translate(58.642578 0)"/>
      </g>
     </g>
    </g>
    <g id="xtick_6">
     <g id="line2d_6">
      <g>
       <use xlink:href="#mc15a37c3ea" x="397.016141" y="249.631875" style="stroke: #000000; stroke-width: 0.8"/>
      </g>
     </g>
     <g id="text_6">
      <!-- 100 -->
      <g transform="translate(386.460828 266.224375) scale(0.12 -0.12)">
       <defs>
        <path id="MicrosoftYaHei-31" d="M 1781 0 
L 1781 4141 
Q 1638 3997 1295 3819 
Q 953 3641 663 3569 
L 663 4169 
Q 1047 4275 1484 4508 
Q 1922 4741 2156 4947 
L 2388 4947 
L 2388 0 
L 1781 0 
z
" transform="scale(0.015625)"/>
       </defs>
       <use xlink:href="#MicrosoftYaHei-31"/>
       <use xlink:href="#MicrosoftYaHei-30" transform="translate(58.642578 0)"/>
       <use xlink:href="#MicrosoftYaHei-30" transform="translate(117.285156 0)"/>
      </g>
     </g>
    </g>
    <g id="xtick_7">
     <g id="line2d_7">
      <g>
       <use xlink:href="#mc15a37c3ea" x="464.990744" y="249.631875" style="stroke: #000000; stroke-width: 0.8"/>
      </g>
     </g>
     <g id="text_7">
      <!-- 120 -->
      <g transform="translate(454.435432 266.224375) scale(0.12 -0.12)">
       <use xlink:href="#MicrosoftYaHei-31"/>
       <use xlink:href="#MicrosoftYaHei-32" transform="translate(58.642578 0)"/>
       <use xlink:href="#MicrosoftYaHei-30" transform="translate(117.285156 0)"/>
      </g>
     </g>
    </g>
   </g>
   <g id="matplotlib.axis_2">
    <g id="ytick_1">
     <g id="line2d_8">
      <defs>
       <path id="m73e3e9a3ac" d="M 0 0 
L -3.5 0 
" style="stroke: #000000; stroke-width: 0.8"/>
      </defs>
      <g>
       <use xlink:href="#m73e3e9a3ac" x="57.143125" y="227.941168" style="stroke: #000000; stroke-width: 0.8"/>
      </g>
     </g>
     <g id="text_8">
      <!-- 语文 -->
      <g transform="translate(26.143125 226.449605) scale(0.12 -0.12)">
       <defs>
        <path id="MicrosoftYaHei-8bed" d="M 1825 2547 
L 2881 2547 
L 3006 3428 
L 2113 3428 
L 2113 3859 
L 3066 3859 
L 3169 4584 
L 1975 4584 
L 1975 5022 
L 6025 5022 
L 6025 4584 
L 3641 4584 
L 3541 3859 
L 5506 3859 
L 5506 2547 
L 6288 2547 
L 6288 2109 
L 1825 2109 
L 1825 2547 
z
M 2375 1466 
L 5719 1466 
L 5719 -822 
L 5250 -822 
L 5250 -441 
L 2844 -441 
L 2844 -822 
L 2375 -822 
L 2375 1466 
z
M 2094 716 
Q 2113 391 2138 178 
Q 1519 -216 888 -722 
L 594 -303 
Q 806 -103 806 259 
L 806 2716 
L 100 2716 
L 100 3166 
L 1288 3166 
L 1288 147 
Q 1725 441 2094 716 
z
M 5250 1028 
L 2844 1028 
L 2844 -3 
L 5250 -3 
L 5250 1028 
z
M 5038 3428 
L 3481 3428 
L 3363 2547 
L 5038 2547 
L 5038 3428 
z
M 738 5222 
Q 1419 4522 1725 4184 
L 1288 3816 
Q 894 4334 356 4891 
L 738 5222 
z
" transform="scale(0.015625)"/>
        <path id="MicrosoftYaHei-6587" d="M 194 4241 
L 3194 4241 
Q 2878 4841 2700 5116 
L 3181 5341 
Q 3356 5072 3706 4466 
L 3256 4241 
L 6194 4241 
L 6194 3778 
L 5041 3778 
Q 4706 1994 3603 909 
Q 4434 303 6244 -178 
Q 5956 -503 5806 -722 
Q 4044 -113 3203 553 
Q 2359 -103 506 -772 
Q 344 -553 131 -284 
Q 1919 253 2822 913 
Q 1681 2131 1372 3778 
L 194 3778 
L 194 4241 
z
M 4506 3778 
L 1872 3778 
Q 2153 2241 3216 1238 
Q 4231 2181 4506 3778 
z
" transform="scale(0.015625)"/>
       </defs>
       <use xlink:href="#MicrosoftYaHei-8bed"/>
       <use xlink:href="#MicrosoftYaHei-6587" transform="translate(100 0)"/>
      </g>
      <!-- 120min -->
      <g transform="translate(7.2 240.94373) scale(0.12 -0.12)">
       <defs>
        <path id="MicrosoftYaHei-6d" d="M 5522 0 
L 4909 0 
L 4909 1984 
Q 4909 2547 4734 2789 
Q 4559 3031 4159 3031 
Q 3822 3031 3581 2715 
Q 3341 2400 3341 1969 
L 3341 0 
L 2728 0 
L 2728 2047 
Q 2728 3031 1969 3031 
Q 1619 3031 1389 2731 
Q 1159 2431 1159 1966 
L 1159 0 
L 547 0 
L 547 3456 
L 1159 3456 
L 1159 2909 
L 1172 2909 
Q 1541 3538 2250 3538 
Q 2597 3538 2862 3347 
Q 3128 3156 3231 2831 
Q 3616 3538 4381 3538 
Q 5522 3538 5522 2131 
L 5522 0 
z
" transform="scale(0.015625)"/>
        <path id="MicrosoftYaHei-69" d="M 472 4675 
Q 472 4838 583 4948 
Q 694 5059 856 5059 
Q 1022 5059 1136 4950 
Q 1250 4841 1250 4675 
Q 1250 4513 1136 4405 
Q 1022 4297 856 4297 
Q 691 4297 581 4405 
Q 472 4513 472 4675 
z
M 544 0 
L 544 3456 
L 1156 3456 
L 1156 0 
L 544 0 
z
" transform="scale(0.015625)"/>
        <path id="MicrosoftYaHei-6e" d="M 3469 0 
L 2859 0 
L 2859 1966 
Q 2859 3031 2081 3031 
Q 1678 3031 1418 2731 
Q 1159 2431 1159 1972 
L 1159 0 
L 547 0 
L 547 3456 
L 1159 3456 
L 1159 2884 
L 1172 2884 
Q 1563 3538 2306 3538 
Q 2875 3538 3172 3173 
Q 3469 2809 3469 2113 
L 3469 0 
z
" transform="scale(0.015625)"/>
       </defs>
       <use xlink:href="#MicrosoftYaHei-31"/>
       <use xlink:href="#MicrosoftYaHei-32" transform="translate(58.642578 0)"/>
       <use xlink:href="#MicrosoftYaHei-30" transform="translate(117.285156 0)"/>
       <use xlink:href="#MicrosoftYaHei-6d" transform="translate(175.927734 0)"/>
       <use xlink:href="#MicrosoftYaHei-69" transform="translate(269.628906 0)"/>
       <use xlink:href="#MicrosoftYaHei-6e" transform="translate(296.240234 0)"/>
      </g>
     </g>
    </g>
    <g id="ytick_2">
     <g id="line2d_9">
      <g>
       <use xlink:href="#m73e3e9a3ac" x="57.143125" y="182.276521" style="stroke: #000000; stroke-width: 0.8"/>
      </g>
     </g>
     <g id="text_9">
      <!-- 数学 -->
      <g transform="translate(26.143125 180.784959) scale(0.12 -0.12)">
       <defs>
        <path id="MicrosoftYaHei-6570" d="M 4175 5303 
L 4675 5228 
Q 4544 4622 4369 4097 
L 6281 4097 
L 6281 3672 
L 5888 3672 
Q 5731 1834 5088 753 
Q 5594 66 6375 -372 
Q 6175 -647 6038 -866 
Q 5275 -372 4769 309 
Q 4194 -403 3400 -928 
Q 3263 -747 3044 -534 
Q 3919 41 4463 772 
Q 3956 1647 3794 2791 
Q 3663 2559 3519 2359 
Q 3394 2541 3206 2759 
Q 3931 3803 4175 5303 
z
M 150 1697 
L 1100 1697 
Q 1238 1934 1369 2184 
L 1819 2041 
Q 1719 1866 1619 1697 
L 3150 1697 
L 3150 1291 
Q 2913 678 2431 216 
Q 2775 53 3131 -109 
L 2856 -541 
Q 2469 -322 2050 -103 
Q 1344 -609 269 -903 
Q 169 -703 56 -466 
Q 969 -259 1600 128 
Q 1063 403 475 691 
Q 675 978 863 1284 
L 150 1284 
L 150 1697 
z
M 219 3847 
L 1656 3847 
L 1656 5247 
L 2119 5247 
L 2119 3847 
L 3319 3847 
L 3319 3434 
L 2119 3434 
L 2119 3053 
L 2306 3266 
Q 2888 2841 3281 2516 
L 2981 2166 
Q 2638 2491 2119 2897 
L 2119 2184 
L 1656 2184 
L 1656 3059 
Q 1088 2466 331 2016 
Q 213 2197 63 2397 
Q 850 2822 1506 3434 
L 219 3434 
L 219 3847 
z
M 5388 3672 
L 4219 3672 
Q 4188 3591 4150 3516 
Q 4263 2191 4775 1247 
Q 5275 2159 5388 3672 
z
M 1088 834 
Q 1531 634 2000 416 
Q 2431 784 2675 1284 
L 1375 1284 
Q 1231 1053 1088 834 
z
M 3038 5091 
L 3425 4834 
Q 3081 4384 2738 4003 
Q 2594 4128 2400 4266 
Q 2725 4647 3038 5091 
z
M 381 4816 
L 738 5059 
Q 1019 4716 1319 4322 
L 931 4047 
Q 656 4453 381 4816 
z
" transform="scale(0.015625)"/>
        <path id="MicrosoftYaHei-5b66" d="M 144 1359 
L 3069 1359 
L 3069 1709 
L 4263 2384 
L 1325 2384 
L 1325 2841 
L 4994 2841 
L 4994 2316 
L 3575 1497 
L 3575 1359 
L 6263 1359 
L 6263 903 
L 3575 903 
L 3575 -41 
Q 3575 -778 2831 -778 
Q 2419 -778 1863 -766 
Q 1844 -553 1788 -234 
Q 2288 -284 2744 -291 
Q 3069 -297 3069 53 
L 3069 903 
L 144 903 
L 144 1359 
z
M 356 3909 
L 6056 3909 
L 6056 2647 
L 5563 2647 
L 5563 3453 
L 850 3453 
L 850 2647 
L 356 2647 
L 356 3909 
z
M 4313 4272 
Q 4731 4722 5100 5241 
L 5550 4909 
Q 5144 4447 4681 3941 
L 4313 4272 
z
M 2538 5116 
L 2944 5353 
Q 3325 4853 3650 4334 
L 3200 4078 
Q 2925 4566 2538 5116 
z
M 850 4928 
L 1219 5197 
Q 1600 4778 1969 4291 
L 1544 3991 
Q 1194 4522 850 4928 
z
" transform="scale(0.015625)"/>
       </defs>
       <use xlink:href="#MicrosoftYaHei-6570"/>
       <use xlink:href="#MicrosoftYaHei-5b66" transform="translate(100 0)"/>
      </g>
      <!-- 120min -->
      <g transform="translate(7.2 195.279084) scale(0.12 -0.12)">
       <use xlink:href="#MicrosoftYaHei-31"/>
       <use xlink:href="#MicrosoftYaHei-32" transform="translate(58.642578 0)"/>
       <use xlink:href="#MicrosoftYaHei-30" transform="translate(117.285156 0)"/>
       <use xlink:href="#MicrosoftYaHei-6d" transform="translate(175.927734 0)"/>
       <use xlink:href="#MicrosoftYaHei-69" transform="translate(269.628906 0)"/>
       <use xlink:href="#MicrosoftYaHei-6e" transform="translate(296.240234 0)"/>
      </g>
     </g>
    </g>
    <g id="ytick_3">
     <g id="line2d_10">
      <g>
       <use xlink:href="#m73e3e9a3ac" x="57.143125" y="136.611875" style="stroke: #000000; stroke-width: 0.8"/>
      </g>
     </g>
     <g id="text_10">
      <!-- 英语 -->
      <g transform="translate(26.143125 135.120313) scale(0.12 -0.12)">
       <defs>
        <path id="MicrosoftYaHei-82f1" d="M 144 1572 
L 931 1572 
L 931 3222 
L 2966 3222 
Q 2966 3513 2963 3834 
L 3463 3834 
Q 3463 3513 3459 3222 
L 5469 3222 
L 5469 1572 
L 6281 1572 
L 6281 1134 
L 3572 1134 
Q 4300 -91 6319 -278 
Q 6106 -553 5956 -784 
Q 3847 -363 3209 963 
Q 2734 -159 444 -878 
Q 300 -672 88 -422 
Q 2288 150 2797 1134 
L 144 1134 
L 144 1572 
z
M 175 4591 
L 1813 4591 
L 1813 5328 
L 2300 5328 
L 2300 4591 
L 4113 4591 
L 4113 5328 
L 4600 5328 
L 4600 4591 
L 6250 4591 
L 6250 4153 
L 4600 4153 
L 4600 3584 
L 4113 3584 
L 4113 4153 
L 2300 4153 
L 2300 3584 
L 1813 3584 
L 1813 4153 
L 175 4153 
L 175 4591 
z
M 2963 2797 
L 1419 2797 
L 1419 1572 
L 2934 1572 
Q 2956 2069 2963 2797 
z
M 3431 1572 
L 4981 1572 
L 4981 2797 
L 3456 2797 
Q 3450 2072 3431 1572 
z
" transform="scale(0.015625)"/>
       </defs>
       <use xlink:href="#MicrosoftYaHei-82f1"/>
       <use xlink:href="#MicrosoftYaHei-8bed" transform="translate(100 0)"/>
      </g>
      <!-- 100min -->
      <g transform="translate(7.2 149.614438) scale(0.12 -0.12)">
       <use xlink:href="#MicrosoftYaHei-31"/>
       <use xlink:href="#MicrosoftYaHei-30" transform="translate(58.642578 0)"/>
       <use xlink:href="#MicrosoftYaHei-30" transform="translate(117.285156 0)"/>
       <use xlink:href="#MicrosoftYaHei-6d" transform="translate(175.927734 0)"/>
       <use xlink:href="#MicrosoftYaHei-69" transform="translate(269.628906 0)"/>
       <use xlink:href="#MicrosoftYaHei-6e" transform="translate(296.240234 0)"/>
      </g>
     </g>
    </g>
    <g id="ytick_4">
     <g id="line2d_11">
      <g>
       <use xlink:href="#m73e3e9a3ac" x="57.143125" y="90.947229" style="stroke: #000000; stroke-width: 0.8"/>
      </g>
     </g>
     <g id="text_11">
      <!-- 物理 -->
      <g transform="translate(26.143125 89.455666) scale(0.12 -0.12)">
       <defs>
        <path id="MicrosoftYaHei-7269" d="M 2131 2866 
Q 2750 3816 3263 5341 
L 3719 5203 
Q 3541 4706 3363 4278 
L 6075 4278 
Q 5950 1759 5869 422 
Q 5800 -622 4869 -622 
Q 4519 -622 4044 -603 
Q 4013 -372 3956 -72 
Q 4500 -134 4819 -134 
Q 5325 -134 5375 441 
Q 5488 1759 5575 3834 
L 5097 3834 
Q 4934 2241 4569 1322 
Q 4069 134 2869 -716 
Q 2731 -522 2550 -334 
Q 3719 491 4169 1559 
Q 4531 2438 4634 3834 
L 4078 3834 
Q 3909 2641 3575 1916 
Q 3163 1097 2444 447 
Q 2288 647 2119 816 
Q 2831 1434 3175 2116 
Q 3509 2809 3619 3834 
L 3169 3834 
Q 2850 3125 2531 2628 
Q 2375 2734 2131 2866 
z
M 94 1584 
Q 669 1775 1288 1991 
L 1288 3466 
L 722 3466 
Q 597 2872 419 2378 
Q 219 2522 13 2653 
Q 363 3509 456 4709 
L 906 4634 
Q 863 4244 800 3884 
L 1288 3884 
L 1288 5291 
L 1756 5291 
L 1756 3884 
L 2375 3884 
L 2375 3466 
L 1756 3466 
L 1756 2156 
Q 2063 2269 2381 2384 
Q 2413 2109 2450 1909 
Q 2141 1797 1756 1653 
L 1756 -834 
L 1288 -834 
L 1288 1475 
Q 788 1288 188 1053 
L 94 1584 
z
" transform="scale(0.015625)"/>
        <path id="MicrosoftYaHei-7406" d="M 2031 -166 
L 3988 -166 
L 3988 734 
L 2394 734 
L 2394 1172 
L 3988 1172 
L 3988 1997 
L 2988 1997 
L 2988 1766 
L 2525 1766 
L 2525 4991 
L 5913 4991 
L 5913 1766 
L 5450 1766 
L 5450 1997 
L 4450 1997 
L 4450 1172 
L 6044 1172 
L 6044 734 
L 4450 734 
L 4450 -166 
L 6319 -166 
L 6319 -603 
L 2031 -603 
L 2031 -166 
z
M 44 203 
Q 525 319 975 434 
L 975 2328 
L 194 2328 
L 194 2766 
L 975 2766 
L 975 4328 
L 131 4328 
L 131 4766 
L 2281 4766 
L 2281 4328 
L 1438 4328 
L 1438 2766 
L 2231 2766 
L 2231 2328 
L 1438 2328 
L 1438 559 
Q 1850 675 2238 791 
Q 2269 509 2306 303 
Q 1238 16 213 -303 
L 44 203 
z
M 4450 2422 
L 5450 2422 
L 5450 3291 
L 4450 3291 
L 4450 2422 
z
M 2988 2422 
L 3988 2422 
L 3988 3291 
L 2988 3291 
L 2988 2422 
z
M 5450 4566 
L 4450 4566 
L 4450 3703 
L 5450 3703 
L 5450 4566 
z
M 2988 3703 
L 3988 3703 
L 3988 4566 
L 2988 4566 
L 2988 3703 
z
" transform="scale(0.015625)"/>
       </defs>
       <use xlink:href="#MicrosoftYaHei-7269"/>
       <use xlink:href="#MicrosoftYaHei-7406" transform="translate(100 0)"/>
      </g>
      <!-- 70min -->
      <g transform="translate(14.236875 103.949791) scale(0.12 -0.12)">
       <defs>
        <path id="MicrosoftYaHei-37" d="M 3422 4463 
Q 2659 3131 2223 1998 
Q 1788 866 1684 0 
L 1047 0 
Q 1163 853 1594 1947 
Q 2025 3041 2747 4300 
L 347 4300 
L 347 4841 
L 3422 4841 
L 3422 4463 
z
" transform="scale(0.015625)"/>
       </defs>
       <use xlink:href="#MicrosoftYaHei-37"/>
       <use xlink:href="#MicrosoftYaHei-30" transform="translate(58.642578 0)"/>
       <use xlink:href="#MicrosoftYaHei-6d" transform="translate(117.285156 0)"/>
       <use xlink:href="#MicrosoftYaHei-69" transform="translate(210.986328 0)"/>
       <use xlink:href="#MicrosoftYaHei-6e" transform="translate(237.597656 0)"/>
      </g>
     </g>
    </g>
    <g id="ytick_5">
     <g id="line2d_12">
      <g>
       <use xlink:href="#m73e3e9a3ac" x="57.143125" y="45.282582" style="stroke: #000000; stroke-width: 0.8"/>
      </g>
     </g>
     <g id="text_12">
      <!-- 化学 -->
      <g transform="translate(26.143125 43.79102) scale(0.12 -0.12)">
       <defs>
        <path id="MicrosoftYaHei-5316" d="M 1844 1453 
Q 2663 1834 3375 2331 
L 3375 5197 
L 3913 5197 
L 3913 2734 
Q 4869 3506 5613 4516 
L 6069 4184 
Q 5159 2975 3913 2069 
L 3913 303 
Q 3913 -122 4363 -122 
L 5156 -122 
Q 5581 -122 5650 284 
Q 5738 709 5763 1266 
Q 6025 1166 6313 1084 
Q 6263 559 6181 122 
Q 6063 -597 5281 -597 
L 4225 -597 
Q 3375 -597 3375 241 
L 3375 1703 
Q 2791 1328 2144 1016 
Q 2013 1222 1844 1453 
z
M 88 2222 
Q 1175 3666 1688 5291 
L 2231 5134 
Q 1934 4359 1588 3675 
L 1588 -797 
L 1063 -797 
L 1063 2734 
Q 716 2172 325 1678 
Q 219 1947 88 2222 
z
" transform="scale(0.015625)"/>
       </defs>
       <use xlink:href="#MicrosoftYaHei-5316"/>
       <use xlink:href="#MicrosoftYaHei-5b66" transform="translate(100 0)"/>
      </g>
      <!-- 50min -->
      <g transform="translate(14.236875 58.285145) scale(0.12 -0.12)">
       <defs>
        <path id="MicrosoftYaHei-35" d="M 3294 1494 
Q 3294 784 2823 350 
Q 2353 -84 1559 -84 
Q 878 -84 544 119 
L 544 744 
Q 1034 425 1544 425 
Q 2050 425 2361 704 
Q 2672 984 2672 1447 
Q 2672 1909 2348 2167 
Q 2025 2425 1434 2425 
Q 978 2425 613 2384 
L 791 4841 
L 3053 4841 
L 3053 4303 
L 1306 4303 
L 1206 2931 
L 1647 2950 
Q 2416 2950 2855 2567 
Q 3294 2184 3294 1494 
z
" transform="scale(0.015625)"/>
       </defs>
       <use xlink:href="#MicrosoftYaHei-35"/>
       <use xlink:href="#MicrosoftYaHei-30" transform="translate(58.642578 0)"/>
       <use xlink:href="#MicrosoftYaHei-6d" transform="translate(117.285156 0)"/>
       <use xlink:href="#MicrosoftYaHei-69" transform="translate(210.986328 0)"/>
       <use xlink:href="#MicrosoftYaHei-6e" transform="translate(237.597656 0)"/>
      </g>
     </g>
    </g>
   </g>
   <g id="patch_33">
    <path d="M 57.143125 249.631875 
L 57.143125 23.591875 
" style="fill: none; stroke: #000000; stroke-width: 0.8; stroke-linejoin: miter; stroke-linecap: square"/>
   </g>
   <g id="patch_34">
    <path d="M 57.143125 249.631875 
L 485.383125 249.631875 
" style="fill: none; stroke: #000000; stroke-width: 0.8; stroke-linejoin: miter; stroke-linecap: square"/>
   </g>
   <g id="text_13">
    <!-- 15% -->
    <g style="fill: #ffffff" transform="translate(75.057742 229.868902) scale(0.07 -0.07)">
     <defs>
      <path id="MicrosoftYaHei-Bold-31" d="M 2716 4947 
L 2716 0 
L 1700 0 
L 1700 3809 
Q 1513 3647 1188 3517 
Q 863 3388 591 3356 
L 591 4222 
Q 1447 4472 2072 4947 
L 2716 4947 
z
" transform="scale(0.015625)"/>
      <path id="MicrosoftYaHei-Bold-35" d="M 541 125 
L 541 997 
Q 1044 691 1613 691 
Q 2041 691 2283 902 
Q 2525 1113 2525 1472 
Q 2525 2225 1494 2225 
Q 1113 2225 616 2169 
L 797 4841 
L 3359 4841 
L 3359 4009 
L 1613 4009 
L 1544 2991 
Q 1803 3013 2022 3013 
Q 2731 3013 3142 2625 
Q 3553 2238 3553 1575 
Q 3553 844 3056 380 
Q 2559 -84 1706 -84 
Q 1016 -84 541 125 
z
" transform="scale(0.015625)"/>
      <path id="MicrosoftYaHei-Bold-25" d="M 297 3597 
Q 297 4191 626 4548 
Q 956 4906 1519 4906 
Q 2056 4906 2354 4581 
Q 2653 4256 2653 3684 
Q 2653 3097 2322 2744 
Q 1991 2391 1438 2391 
Q 919 2391 608 2722 
Q 297 3053 297 3597 
z
M 984 3631 
Q 984 2959 1478 2959 
Q 1981 2959 1981 3659 
Q 1981 4338 1500 4338 
Q 984 4338 984 3631 
z
M 4938 4841 
L 1791 -3 
L 1006 -3 
L 4147 4841 
L 4938 4841 
z
M 3297 1141 
Q 3297 1741 3631 2095 
Q 3966 2450 4522 2450 
Q 5059 2450 5357 2131 
Q 5656 1813 5656 1234 
Q 5656 641 5322 286 
Q 4988 -69 4438 -69 
Q 3922 -69 3609 264 
Q 3297 597 3297 1141 
z
M 3981 1175 
Q 3981 500 4478 500 
Q 4978 500 4978 1200 
Q 4978 1528 4845 1704 
Q 4713 1881 4491 1881 
Q 3981 1881 3981 1175 
z
" transform="scale(0.015625)"/>
     </defs>
     <use xlink:href="#MicrosoftYaHei-Bold-31"/>
     <use xlink:href="#MicrosoftYaHei-Bold-35" transform="translate(61.669922 0)"/>
     <use xlink:href="#MicrosoftYaHei-Bold-25" transform="translate(123.339844 0)"/>
    </g>
   </g>
   <g id="text_14">
    <!-- 35% -->
    <g style="fill: #ffffff" transform="translate(160.025996 229.868902) scale(0.07 -0.07)">
     <defs>
      <path id="MicrosoftYaHei-Bold-33" d="M 494 1053 
Q 978 691 1625 691 
Q 2034 691 2275 872 
Q 2516 1053 2516 1388 
Q 2516 1731 2230 1912 
Q 1944 2094 1428 2094 
L 997 2094 
L 997 2872 
L 1394 2872 
Q 2369 2872 2369 3528 
Q 2369 4147 1622 4147 
Q 1134 4147 675 3828 
L 675 4663 
Q 1175 4922 1853 4922 
Q 2541 4922 2969 4605 
Q 3397 4288 3397 3725 
Q 3397 2775 2434 2531 
L 2434 2516 
Q 2941 2459 3244 2145 
Q 3547 1831 3547 1381 
Q 3547 691 3042 303 
Q 2538 -84 1697 -84 
Q 950 -84 494 163 
L 494 1053 
z
" transform="scale(0.015625)"/>
     </defs>
     <use xlink:href="#MicrosoftYaHei-Bold-33"/>
     <use xlink:href="#MicrosoftYaHei-Bold-35" transform="translate(61.669922 0)"/>
     <use xlink:href="#MicrosoftYaHei-Bold-25" transform="translate(123.339844 0)"/>
    </g>
   </g>
   <g id="text_15">
    <!-- 20% -->
    <g style="fill: #ffffff" transform="translate(253.491075 229.868902) scale(0.07 -0.07)">
     <defs>
      <path id="MicrosoftYaHei-Bold-32" d="M 1500 841 
L 3553 841 
L 3553 0 
L 334 0 
L 334 359 
Q 334 738 473 1050 
Q 613 1363 856 1633 
Q 1100 1903 1613 2266 
Q 2081 2616 2268 2886 
Q 2456 3156 2456 3459 
Q 2456 4113 1744 4113 
Q 1119 4113 550 3613 
L 550 4513 
Q 1184 4922 1975 4922 
Q 2700 4922 3122 4551 
Q 3544 4181 3544 3531 
Q 3544 3169 3422 2876 
Q 3300 2584 3069 2328 
Q 2838 2072 2328 1713 
Q 1838 1363 1669 1172 
Q 1500 981 1500 841 
z
" transform="scale(0.015625)"/>
      <path id="MicrosoftYaHei-Bold-30" d="M 244 2341 
Q 244 3597 706 4259 
Q 1169 4922 2044 4922 
Q 3713 4922 3713 2453 
Q 3713 1238 3259 577 
Q 2806 -84 1950 -84 
Q 244 -84 244 2341 
z
M 1266 2366 
Q 1266 691 1981 691 
Q 2684 691 2684 2416 
Q 2684 4147 2000 4147 
Q 1266 4147 1266 2366 
z
" transform="scale(0.015625)"/>
     </defs>
     <use xlink:href="#MicrosoftYaHei-Bold-32"/>
     <use xlink:href="#MicrosoftYaHei-Bold-30" transform="translate(61.669922 0)"/>
     <use xlink:href="#MicrosoftYaHei-Bold-25" transform="translate(123.339844 0)"/>
    </g>
   </g>
   <g id="text_16">
    <!-- 20% -->
    <g style="fill: #ffffff" transform="translate(321.465678 229.868902) scale(0.07 -0.07)">
     <use xlink:href="#MicrosoftYaHei-Bold-32"/>
     <use xlink:href="#MicrosoftYaHei-Bold-30" transform="translate(61.669922 0)"/>
     <use xlink:href="#MicrosoftYaHei-Bold-25" transform="translate(123.339844 0)"/>
    </g>
   </g>
   <g id="text_17">
    <!-- 25% -->
    <g style="fill: #ffffff" transform="translate(414.930758 229.868902) scale(0.07 -0.07)">
     <use xlink:href="#MicrosoftYaHei-Bold-32"/>
     <use xlink:href="#MicrosoftYaHei-Bold-35" transform="translate(61.669922 0)"/>
     <use xlink:href="#MicrosoftYaHei-Bold-25" transform="translate(123.339844 0)"/>
    </g>
   </g>
   <g id="text_18">
    <!-- 20% -->
    <g style="fill: #ffffff" transform="translate(83.554567 184.204256) scale(0.07 -0.07)">
     <use xlink:href="#MicrosoftYaHei-Bold-32"/>
     <use xlink:href="#MicrosoftYaHei-Bold-30" transform="translate(61.669922 0)"/>
     <use xlink:href="#MicrosoftYaHei-Bold-25" transform="translate(123.339844 0)"/>
    </g>
   </g>
   <g id="text_19">
    <!-- 15% -->
    <g style="fill: #ffffff" transform="translate(143.032345 184.204256) scale(0.07 -0.07)">
     <use xlink:href="#MicrosoftYaHei-Bold-31"/>
     <use xlink:href="#MicrosoftYaHei-Bold-35" transform="translate(61.669922 0)"/>
     <use xlink:href="#MicrosoftYaHei-Bold-25" transform="translate(123.339844 0)"/>
    </g>
   </g>
   <g id="text_20">
    <!-- 20% -->
    <g style="fill: #ffffff" transform="translate(202.510123 184.204256) scale(0.07 -0.07)">
     <use xlink:href="#MicrosoftYaHei-Bold-32"/>
     <use xlink:href="#MicrosoftYaHei-Bold-30" transform="translate(61.669922 0)"/>
     <use xlink:href="#MicrosoftYaHei-Bold-25" transform="translate(123.339844 0)"/>
    </g>
   </g>
   <g id="text_21">
    <!-- 25% -->
    <g style="fill: #ffffff" transform="translate(278.981551 184.204256) scale(0.07 -0.07)">
     <use xlink:href="#MicrosoftYaHei-Bold-32"/>
     <use xlink:href="#MicrosoftYaHei-Bold-35" transform="translate(61.669922 0)"/>
     <use xlink:href="#MicrosoftYaHei-Bold-25" transform="translate(123.339844 0)"/>
    </g>
   </g>
   <g id="text_22">
    <!-- 15% -->
    <g style="fill: #ffffff" transform="translate(346.956155 184.204256) scale(0.07 -0.07)">
     <use xlink:href="#MicrosoftYaHei-Bold-31"/>
     <use xlink:href="#MicrosoftYaHei-Bold-35" transform="translate(61.669922 0)"/>
     <use xlink:href="#MicrosoftYaHei-Bold-25" transform="translate(123.339844 0)"/>
    </g>
   </g>
   <g id="text_23">
    <!-- 25% -->
    <g style="fill: #ffffff" transform="translate(414.930758 184.204256) scale(0.07 -0.07)">
     <use xlink:href="#MicrosoftYaHei-Bold-32"/>
     <use xlink:href="#MicrosoftYaHei-Bold-35" transform="translate(61.669922 0)"/>
     <use xlink:href="#MicrosoftYaHei-Bold-25" transform="translate(123.339844 0)"/>
    </g>
   </g>
   <g id="text_24">
    <!-- 20% -->
    <g style="fill: #ffffff" transform="translate(83.554567 138.539609) scale(0.07 -0.07)">
     <use xlink:href="#MicrosoftYaHei-Bold-32"/>
     <use xlink:href="#MicrosoftYaHei-Bold-30" transform="translate(61.669922 0)"/>
     <use xlink:href="#MicrosoftYaHei-Bold-25" transform="translate(123.339844 0)"/>
    </g>
   </g>
   <g id="text_25">
    <!-- 25% -->
    <g style="fill: #ffffff" transform="translate(160.025996 138.539609) scale(0.07 -0.07)">
     <use xlink:href="#MicrosoftYaHei-Bold-32"/>
     <use xlink:href="#MicrosoftYaHei-Bold-35" transform="translate(61.669922 0)"/>
     <use xlink:href="#MicrosoftYaHei-Bold-25" transform="translate(123.339844 0)"/>
    </g>
   </g>
   <g id="text_26">
    <!-- 20% -->
    <g style="fill: #ffffff" transform="translate(236.497424 138.539609) scale(0.07 -0.07)">
     <use xlink:href="#MicrosoftYaHei-Bold-32"/>
     <use xlink:href="#MicrosoftYaHei-Bold-30" transform="translate(61.669922 0)"/>
     <use xlink:href="#MicrosoftYaHei-Bold-25" transform="translate(123.339844 0)"/>
    </g>
   </g>
   <g id="text_27">
    <!-- 15% -->
    <g style="fill: #ffffff" transform="translate(295.975202 138.539609) scale(0.07 -0.07)">
     <use xlink:href="#MicrosoftYaHei-Bold-31"/>
     <use xlink:href="#MicrosoftYaHei-Bold-35" transform="translate(61.669922 0)"/>
     <use xlink:href="#MicrosoftYaHei-Bold-25" transform="translate(123.339844 0)"/>
    </g>
   </g>
   <g id="text_28">
    <!-- 10% -->
    <g style="fill: #ffffff" transform="translate(338.459329 138.539609) scale(0.07 -0.07)">
     <use xlink:href="#MicrosoftYaHei-Bold-31"/>
     <use xlink:href="#MicrosoftYaHei-Bold-30" transform="translate(61.669922 0)"/>
     <use xlink:href="#MicrosoftYaHei-Bold-25" transform="translate(123.339844 0)"/>
    </g>
   </g>
   <g id="text_29">
    <!-- 10% -->
    <g style="fill: #ffffff" transform="translate(372.446631 138.539609) scale(0.07 -0.07)">
     <use xlink:href="#MicrosoftYaHei-Bold-31"/>
     <use xlink:href="#MicrosoftYaHei-Bold-30" transform="translate(61.669922 0)"/>
     <use xlink:href="#MicrosoftYaHei-Bold-25" transform="translate(123.339844 0)"/>
    </g>
   </g>
   <g id="text_30">
    <!-- 10% -->
    <g style="fill: #ffffff" transform="translate(66.560916 92.874963) scale(0.07 -0.07)">
     <use xlink:href="#MicrosoftYaHei-Bold-31"/>
     <use xlink:href="#MicrosoftYaHei-Bold-30" transform="translate(61.669922 0)"/>
     <use xlink:href="#MicrosoftYaHei-Bold-25" transform="translate(123.339844 0)"/>
    </g>
   </g>
   <g id="text_31">
    <!-- 25% -->
    <g style="fill: #ffffff" transform="translate(126.038694 92.874963) scale(0.07 -0.07)">
     <use xlink:href="#MicrosoftYaHei-Bold-32"/>
     <use xlink:href="#MicrosoftYaHei-Bold-35" transform="translate(61.669922 0)"/>
     <use xlink:href="#MicrosoftYaHei-Bold-25" transform="translate(123.339844 0)"/>
    </g>
   </g>
   <g id="text_32">
    <!-- 15% -->
    <g style="fill: #ffffff" transform="translate(194.013297 92.874963) scale(0.07 -0.07)">
     <use xlink:href="#MicrosoftYaHei-Bold-31"/>
     <use xlink:href="#MicrosoftYaHei-Bold-35" transform="translate(61.669922 0)"/>
     <use xlink:href="#MicrosoftYaHei-Bold-25" transform="translate(123.339844 0)"/>
    </g>
   </g>
   <g id="text_33">
    <!-- 10% -->
    <g style="fill: #ffffff" transform="translate(236.497424 92.874963) scale(0.07 -0.07)">
     <use xlink:href="#MicrosoftYaHei-Bold-31"/>
     <use xlink:href="#MicrosoftYaHei-Bold-30" transform="translate(61.669922 0)"/>
     <use xlink:href="#MicrosoftYaHei-Bold-25" transform="translate(123.339844 0)"/>
    </g>
   </g>
   <g id="text_34">
    <!-- 10% -->
    <g style="fill: #ffffff" transform="translate(66.560916 47.210316) scale(0.07 -0.07)">
     <use xlink:href="#MicrosoftYaHei-Bold-31"/>
     <use xlink:href="#MicrosoftYaHei-Bold-30" transform="translate(61.669922 0)"/>
     <use xlink:href="#MicrosoftYaHei-Bold-25" transform="translate(123.339844 0)"/>
    </g>
   </g>
   <g id="text_35">
    <!-- 20% -->
    <g style="fill: #ffffff" transform="translate(117.541869 47.210316) scale(0.07 -0.07)">
     <use xlink:href="#MicrosoftYaHei-Bold-32"/>
     <use xlink:href="#MicrosoftYaHei-Bold-30" transform="translate(61.669922 0)"/>
     <use xlink:href="#MicrosoftYaHei-Bold-25" transform="translate(123.339844 0)"/>
    </g>
   </g>
   <g id="text_36">
    <!-- 10% -->
    <g style="fill: #ffffff" transform="translate(168.522821 47.210316) scale(0.07 -0.07)">
     <use xlink:href="#MicrosoftYaHei-Bold-31"/>
     <use xlink:href="#MicrosoftYaHei-Bold-30" transform="translate(61.669922 0)"/>
     <use xlink:href="#MicrosoftYaHei-Bold-25" transform="translate(123.339844 0)"/>
    </g>
   </g>
   <g id="text_37">
    <!-- 过来人经验 · 考场时间分配建议 -->
    <g style="fill: #1a1a2e" transform="translate(180.034609 17.591875) scale(0.13 -0.13)">
     <defs>
      <path id="MicrosoftYaHei-Bold-8fc7" d="M 988 5347 
Q 1450 4691 1769 4172 
Q 1656 4103 969 3716 
Q 625 4347 275 4922 
L 988 5347 
z
M 4413 5309 
L 5319 5309 
L 5319 4278 
L 6225 4278 
L 6225 3522 
L 5319 3522 
L 5319 1441 
Q 5319 906 5073 632 
Q 4828 359 4384 343 
Q 3941 328 3163 328 
Q 3081 722 2931 1222 
Q 3675 1172 3950 1172 
Q 4413 1172 4413 1684 
L 4413 3522 
L 1925 3522 
L 1925 4278 
L 4413 4278 
L 4413 5309 
z
M 2731 3434 
Q 3150 2959 3813 2109 
Q 3469 1859 3075 1547 
Q 2600 2197 2038 2922 
L 2731 3434 
z
M 6313 134 
Q 6131 -384 6031 -703 
L 2469 -650 
Q 2034 -641 1711 -498 
Q 1388 -356 1188 -84 
Q 656 -597 431 -853 
L 81 128 
L 700 653 
L 700 2378 
L 131 2378 
L 131 3203 
L 1563 3203 
L 1563 659 
Q 2016 116 2794 116 
L 3759 103 
Q 4725 103 6313 134 
z
" transform="scale(0.015625)"/>
      <path id="MicrosoftYaHei-Bold-6765" d="M 513 4628 
L 2731 4628 
L 2731 5316 
L 3638 5316 
L 3638 4628 
L 5888 4628 
L 5888 3816 
L 4872 3816 
L 5494 3353 
Q 5078 2844 4722 2516 
L 6213 2516 
L 6213 1709 
L 4159 1709 
Q 5028 816 6269 347 
Q 5988 -22 5713 -441 
Q 4388 281 3638 1263 
L 3638 -809 
L 2731 -809 
L 2731 1256 
Q 1959 253 656 -478 
Q 369 -66 106 266 
Q 1325 794 2175 1709 
L 213 1709 
L 213 2516 
L 1609 2516 
Q 1363 2856 906 3378 
L 1488 3816 
L 513 3816 
L 513 4628 
z
M 4847 3816 
L 3638 3816 
L 3638 2516 
L 4638 2516 
L 4081 2984 
Q 4469 3347 4847 3816 
z
M 2294 2966 
L 1688 2516 
L 2731 2516 
L 2731 3816 
L 1531 3816 
Q 1897 3441 2294 2966 
z
" transform="scale(0.015625)"/>
      <path id="MicrosoftYaHei-Bold-4eba" d="M 2731 5297 
L 3644 5297 
Q 3647 4619 3584 3984 
Q 4053 1066 6300 147 
Q 5806 -434 5581 -759 
Q 3900 94 3206 2147 
Q 2547 313 719 -822 
Q 525 -478 88 72 
Q 1491 872 2117 2009 
Q 2744 3147 2731 5297 
z
" transform="scale(0.015625)"/>
      <path id="MicrosoftYaHei-Bold-7ecf" d="M 988 3397 
L 1513 3419 
Q 1744 3784 1988 4209 
L 2738 3834 
Q 1788 2472 1238 1797 
Q 1863 1841 2263 1884 
Q 2213 1441 2213 1122 
Q 888 1034 331 928 
L 138 1647 
Q 550 2034 1025 2694 
Q 606 2663 319 2616 
L 31 3328 
Q 613 4028 1181 5366 
L 2006 5072 
Q 1488 4109 988 3397 
z
M 5769 5047 
L 5769 4353 
Q 5447 3906 5053 3525 
Q 5694 3203 6331 2859 
L 5831 2147 
Q 5094 2622 4431 2997 
Q 3638 2406 2619 2022 
Q 2406 2434 2188 2778 
Q 3813 3341 4744 4297 
L 2594 4297 
L 2594 5047 
L 5769 5047 
z
M 2613 1959 
L 6000 1959 
L 6000 1209 
L 4756 1209 
L 4756 91 
L 6263 91 
L 6263 -659 
L 2288 -659 
L 2288 -200 
Q 1194 -306 219 -466 
L 88 409 
Q 1106 484 2344 672 
Q 2322 400 2319 91 
L 3863 91 
L 3863 1209 
L 2613 1209 
L 2613 1959 
z
" transform="scale(0.015625)"/>
      <path id="MicrosoftYaHei-Bold-9a8c" d="M 1138 4053 
L 969 2491 
L 1419 2491 
L 1563 4241 
L 200 4241 
L 200 4991 
L 2369 4991 
L 2163 2491 
L 2525 2491 
Q 2463 691 2413 203 
Q 2369 -553 1838 -672 
Q 1581 -709 644 -709 
Q 588 -253 519 134 
Q 906 91 1350 78 
Q 1669 78 1694 378 
Q 1731 791 1763 1741 
L 181 1741 
L 400 4053 
L 1138 4053 
z
M 5544 2647 
L 3163 2647 
L 3163 2997 
Q 2944 2797 2706 2603 
Q 2525 2991 2300 3391 
Q 3313 4134 3925 5278 
L 4875 5278 
L 4738 5053 
Q 5469 3984 6381 3466 
Q 6163 3116 5950 2691 
Q 5738 2828 5544 2984 
L 5544 2647 
z
M 2556 116 
L 4694 116 
Q 5063 1253 5250 2303 
L 6025 2103 
Q 5775 1141 5438 116 
L 6213 116 
L 6213 -634 
L 2556 -634 
L 2556 116 
z
M 3263 2172 
Q 3569 1397 3856 503 
L 3175 259 
Q 2981 978 2625 1934 
L 3263 2172 
z
M 4425 2428 
Q 4644 1584 4806 753 
L 4113 584 
Q 3988 1366 3763 2278 
L 4425 2428 
z
M 75 1216 
Q 763 1278 1525 1378 
Q 1531 984 1538 628 
Q 838 541 175 428 
L 75 1216 
z
M 4300 4347 
Q 4013 3897 3544 3384 
L 5113 3384 
Q 4663 3859 4300 4347 
z
" transform="scale(0.015625)"/>
      <path id="MicrosoftYaHei-Bold-20" transform="scale(0.015625)"/>
      <path id="MicrosoftYaHei-Bold-b7" d="M 1406 2959 
Q 1769 2959 2028 2700 
Q 2288 2441 2288 2078 
Q 2288 1713 2028 1455 
Q 1769 1197 1406 1197 
Q 1041 1197 783 1455 
Q 525 1713 525 2078 
Q 525 2441 783 2700 
Q 1041 2959 1406 2959 
z
" transform="scale(0.015625)"/>
      <path id="MicrosoftYaHei-Bold-8003" d="M 144 3584 
L 2294 3584 
L 2294 4084 
L 650 4084 
L 650 4797 
L 2294 4797 
L 2294 5353 
L 3144 5353 
L 3144 4797 
L 4644 4797 
L 4644 4188 
Q 5056 4569 5469 5028 
L 6094 4553 
Q 5616 4028 5088 3584 
L 6319 3584 
L 6319 2872 
L 4131 2872 
Q 3847 2684 3550 2516 
L 5794 2516 
L 5794 1816 
L 3081 1816 
L 3006 1428 
L 5375 1428 
Q 5297 719 5222 231 
Q 5147 -256 4805 -504 
Q 4463 -753 3850 -753 
Q 3269 -753 2575 -741 
Q 2494 -253 2388 103 
Q 2984 47 3763 47 
Q 4019 47 4164 137 
Q 4309 228 4343 389 
Q 4378 550 4406 728 
L 1925 728 
L 2209 1816 
L 2075 1816 
Q 1266 1488 350 1222 
Q 263 1553 94 1997 
Q 1709 2350 2772 2872 
L 144 2872 
L 144 3584 
z
M 4528 4084 
L 3144 4084 
L 3144 3584 
L 3919 3584 
Q 4222 3813 4528 4084 
z
" transform="scale(0.015625)"/>
      <path id="MicrosoftYaHei-Bold-573a" d="M 3869 3053 
L 6113 3053 
Q 6113 1753 6038 378 
Q 5994 -659 5094 -722 
Q 4756 -747 4294 -759 
Q 4250 -391 4138 109 
Q 3781 -403 3300 -816 
Q 2944 -541 2544 -278 
Q 3906 759 4225 2303 
L 3719 2303 
Q 3375 1041 2550 284 
Q 2400 416 2256 534 
Q 2250 322 2256 72 
Q 1150 -153 244 -366 
L 81 528 
Q 444 591 813 659 
L 813 2866 
L 144 2866 
L 144 3722 
L 813 3722 
L 813 5303 
L 1644 5303 
L 1644 3722 
L 2238 3722 
L 2238 2866 
L 1644 2866 
L 1644 822 
Q 1794 853 1938 884 
Q 2631 1434 2925 2303 
L 2369 2303 
L 2369 3047 
L 4231 4253 
L 2363 4253 
L 2363 5003 
L 5700 5003 
L 5700 4284 
L 3869 3053 
z
M 4694 116 
Q 5213 116 5244 559 
Q 5300 1203 5325 2303 
L 5000 2303 
Q 4769 1047 4156 134 
Q 4450 116 4694 116 
z
" transform="scale(0.015625)"/>
      <path id="MicrosoftYaHei-Bold-65f6" d="M 3038 4241 
L 4888 4241 
L 4888 5291 
L 5781 5291 
L 5781 4241 
L 6306 4241 
L 6306 3409 
L 5781 3409 
L 5781 316 
Q 5781 -209 5547 -478 
Q 5313 -747 4898 -762 
Q 4484 -778 3669 -778 
Q 3569 -209 3456 134 
Q 4344 109 4431 109 
Q 4888 109 4888 584 
L 4888 3409 
L 3038 3409 
L 3038 4241 
z
M 394 -497 
L 394 4897 
L 2856 4897 
L 2856 -459 
L 2031 -459 
L 2031 -28 
L 1219 -28 
L 1219 -497 
L 394 -497 
z
M 2031 4072 
L 1219 4072 
L 1219 2834 
L 2031 2834 
L 2031 4072 
z
M 1219 797 
L 2031 797 
L 2031 2034 
L 1219 2034 
L 1219 797 
z
M 3588 3072 
Q 4013 2541 4713 1559 
L 3956 1066 
Q 3388 2009 2938 2641 
L 3588 3072 
z
" transform="scale(0.015625)"/>
      <path id="MicrosoftYaHei-Bold-95f4" d="M 1088 5059 
L 1906 5347 
Q 2200 4884 2506 4334 
L 1638 4003 
Q 1356 4597 1088 5059 
z
M 6056 347 
Q 6056 -106 5904 -378 
Q 5753 -650 5422 -736 
Q 5091 -822 3950 -822 
Q 3875 -359 3750 53 
Q 4150 28 4769 28 
Q 5188 28 5188 397 
L 5188 4278 
L 2719 4278 
L 2719 5047 
L 6056 5047 
L 6056 347 
z
M 344 4522 
L 1213 4522 
L 1213 -803 
L 344 -803 
L 344 4522 
z
M 1788 3772 
L 4581 3772 
L 4581 484 
L 2575 484 
L 2575 141 
L 1788 141 
L 1788 3772 
z
M 3794 3072 
L 2575 3072 
L 2575 2478 
L 3794 2478 
L 3794 3072 
z
M 3794 1184 
L 3794 1778 
L 2575 1778 
L 2575 1184 
L 3794 1184 
z
" transform="scale(0.015625)"/>
      <path id="MicrosoftYaHei-Bold-5206" d="M 6350 3028 
Q 6088 2703 5750 2228 
Q 5519 2409 5303 2603 
Q 5219 606 5172 190 
Q 5125 -225 4862 -451 
Q 4600 -678 4128 -678 
Q 3484 -678 2913 -659 
Q 2856 -141 2781 284 
Q 3594 216 3956 216 
Q 4172 216 4230 408 
Q 4288 600 4325 1978 
L 2781 1978 
Q 2728 1100 2529 631 
Q 2331 163 1907 -215 
Q 1484 -594 844 -872 
Q 456 -353 194 -78 
Q 750 144 1111 414 
Q 1472 684 1630 989 
Q 1788 1294 1841 1978 
L 950 1978 
L 950 2475 
Q 794 2356 631 2247 
Q 344 2653 63 2953 
Q 1475 3947 2194 5316 
L 3031 4953 
Q 2378 3722 1391 2841 
L 5047 2841 
Q 4088 3766 3463 4903 
L 4238 5303 
Q 5038 3922 6350 3028 
z
" transform="scale(0.015625)"/>
      <path id="MicrosoftYaHei-Bold-914d" d="M 163 5009 
L 3406 5009 
L 3406 4297 
L 2519 4297 
L 2519 3753 
L 3325 3753 
L 3325 -797 
L 2663 -797 
L 2663 -391 
L 994 -391 
L 994 -784 
L 331 -784 
L 331 3753 
L 1138 3753 
L 1138 4297 
L 163 4297 
L 163 5009 
z
M 1700 3753 
L 1981 3753 
L 1981 4297 
L 1700 4297 
L 1700 3753 
z
M 1350 1397 
Q 1166 1556 994 1694 
L 994 1266 
L 2663 1266 
L 2663 1634 
L 2531 1634 
Q 1981 1634 1981 2197 
L 1981 3097 
L 1697 3097 
Q 1672 1950 1350 1397 
z
M 2738 2159 
L 2781 2159 
L 2781 3097 
L 2519 3097 
L 2519 2397 
Q 2519 2159 2738 2159 
z
M 888 1941 
Q 1131 2303 1131 3097 
L 888 3097 
L 888 1941 
z
M 994 259 
L 2663 259 
L 2663 647 
L 994 647 
L 994 259 
z
M 5538 1334 
Q 5819 1209 6331 1047 
Q 6209 119 6125 -164 
Q 6041 -447 5842 -578 
Q 5644 -709 5325 -709 
L 4513 -709 
Q 3713 -709 3713 153 
L 3713 3003 
L 5188 3003 
L 5188 4184 
L 3619 4184 
L 3619 4984 
L 6000 4984 
L 6000 2203 
L 4519 2203 
L 4519 359 
Q 4519 78 4788 78 
L 5081 78 
Q 5316 78 5394 250 
Q 5472 422 5538 1334 
z
" transform="scale(0.015625)"/>
      <path id="MicrosoftYaHei-Bold-5efa" d="M 356 -853 
Q 250 -422 94 16 
Q 394 278 619 597 
Q 316 1075 100 1778 
L 744 2059 
Q 872 1666 1019 1363 
Q 1172 1769 1238 2241 
L 300 2241 
L 300 3053 
L 1025 4091 
L 175 4091 
L 175 4853 
L 1988 4853 
L 1988 4134 
L 1163 3003 
L 2000 3003 
L 2000 2228 
Q 1866 1334 1528 628 
Q 2094 91 3475 91 
L 3475 484 
L 2075 484 
L 2075 1053 
L 3475 1053 
L 3475 1391 
L 2288 1391 
L 2288 1966 
L 3475 1966 
L 3475 2297 
L 2375 2297 
L 2375 2841 
L 3475 2841 
L 3475 3203 
L 2050 3203 
L 2050 3841 
L 3475 3841 
L 3475 4203 
L 2375 4203 
L 2375 4816 
L 3475 4816 
L 3475 5316 
L 4275 5316 
L 4275 4816 
L 5863 4816 
L 5863 3841 
L 6244 3841 
L 6244 3203 
L 5863 3203 
L 5863 2297 
L 4275 2297 
L 4275 1966 
L 5863 1966 
L 5863 1391 
L 4275 1391 
L 4275 1053 
L 6075 1053 
L 6075 484 
L 4275 484 
L 4275 94 
L 6319 122 
Q 6206 -247 6113 -666 
L 3506 -666 
Q 2478 -666 1928 -441 
Q 1378 -216 1150 -13 
Q 816 -488 356 -853 
z
M 5125 4203 
L 4275 4203 
L 4275 3841 
L 5125 3841 
L 5125 4203 
z
M 4275 2841 
L 5125 2841 
L 5125 3203 
L 4275 3203 
L 4275 2841 
z
" transform="scale(0.015625)"/>
      <path id="MicrosoftYaHei-Bold-8bae" d="M 4075 5353 
Q 4425 4641 4719 3934 
L 3994 3616 
Q 3706 4347 3375 5084 
L 4075 5353 
z
M 1106 5259 
Q 1563 4659 1931 4103 
L 1144 3622 
Q 725 4359 381 4847 
L 1106 5259 
z
M 6056 4634 
Q 5734 2438 4684 1066 
Q 5388 409 6325 22 
Q 6006 -397 5738 -822 
Q 4778 -372 4053 363 
Q 3331 -331 2319 -878 
Q 2056 -447 1731 -78 
Q 2738 391 3463 1066 
Q 2519 2400 2075 4534 
L 2850 4797 
Q 3244 2925 4081 1750 
Q 4994 2991 5250 4822 
L 6056 4634 
z
M 2244 1528 
Q 2306 922 2388 578 
Q 1406 -147 1044 -522 
L 594 97 
Q 731 259 738 609 
L 738 2484 
L 125 2484 
L 125 3328 
L 1588 3328 
L 1588 991 
Q 1894 1222 2244 1528 
z
" transform="scale(0.015625)"/>
     </defs>
     <use xlink:href="#MicrosoftYaHei-Bold-8fc7"/>
     <use xlink:href="#MicrosoftYaHei-Bold-6765" transform="translate(100 0)"/>
     <use xlink:href="#MicrosoftYaHei-Bold-4eba" transform="translate(200 0)"/>
     <use xlink:href="#MicrosoftYaHei-Bold-7ecf" transform="translate(300 0)"/>
     <use xlink:href="#MicrosoftYaHei-Bold-9a8c" transform="translate(400 0)"/>
     <use xlink:href="#MicrosoftYaHei-Bold-20" transform="translate(500 0)"/>
     <use xlink:href="#MicrosoftYaHei-Bold-b7" transform="translate(529.785156 0)"/>
     <use xlink:href="#MicrosoftYaHei-Bold-20" transform="translate(573.730469 0)"/>
     <use xlink:href="#MicrosoftYaHei-Bold-8003" transform="translate(603.515625 0)"/>
     <use xlink:href="#MicrosoftYaHei-Bold-573a" transform="translate(703.515625 0)"/>
     <use xlink:href="#MicrosoftYaHei-Bold-65f6" transform="translate(803.515625 0)"/>
     <use xlink:href="#MicrosoftYaHei-Bold-95f4" transform="translate(903.515625 0)"/>
     <use xlink:href="#MicrosoftYaHei-Bold-5206" transform="translate(1003.515625 0)"/>
     <use xlink:href="#MicrosoftYaHei-Bold-914d" transform="translate(1103.515625 0)"/>
     <use xlink:href="#MicrosoftYaHei-Bold-5efa" transform="translate(1203.515625 0)"/>
     <use xlink:href="#MicrosoftYaHei-Bold-8bae" transform="translate(1303.515625 0)"/>
    </g>
   </g>
   <g id="legend_1">
    <g id="patch_35">
     <path d="M 313.383125 245.631875 
L 479.783125 245.631875 
Q 481.383125 245.631875 481.383125 244.031875 
L 481.383125 220.064375 
Q 481.383125 218.464375 479.783125 218.464375 
L 313.383125 218.464375 
Q 311.783125 218.464375 311.783125 220.064375 
L 311.783125 244.031875 
Q 311.783125 245.631875 313.383125 245.631875 
z
" style="fill: #ffffff; opacity: 0.8; stroke: #cccccc; stroke-linejoin: miter"/>
    </g>
    <g id="patch_36">
     <path d="M 314.983125 228.059375 
L 330.983125 228.059375 
L 330.983125 222.459375 
L 314.983125 222.459375 
z
" style="fill: #95a5a6; stroke: #ffffff; stroke-linejoin: miter"/>
    </g>
    <g id="text_38">
     <!-- 审题 -->
     <g transform="translate(337.383125 228.059375) scale(0.08 -0.08)">
      <defs>
       <path id="MicrosoftYaHei-5ba1" d="M 900 3297 
L 2956 3297 
L 2956 3972 
L 3444 3972 
L 3444 3297 
L 5506 3297 
L 5506 234 
L 5044 234 
L 5044 528 
L 3444 528 
L 3444 -834 
L 2956 -834 
L 2956 528 
L 1363 528 
L 1363 234 
L 900 234 
L 900 3297 
z
M 344 4603 
L 3075 4603 
Q 2916 4863 2713 5147 
L 3144 5403 
Q 3400 5078 3594 4784 
L 3300 4603 
L 6063 4603 
L 6063 3434 
L 5575 3434 
L 5575 4153 
L 831 4153 
L 831 3434 
L 344 3434 
L 344 4603 
z
M 3444 966 
L 5044 966 
L 5044 1703 
L 3444 1703 
L 3444 966 
z
M 1363 966 
L 2956 966 
L 2956 1703 
L 1363 1703 
L 1363 966 
z
M 5044 2859 
L 3444 2859 
L 3444 2128 
L 5044 2128 
L 5044 2859 
z
M 1363 2128 
L 2956 2128 
L 2956 2859 
L 1363 2859 
L 1363 2128 
z
" transform="scale(0.015625)"/>
       <path id="MicrosoftYaHei-9898" d="M 88 -291 
Q 544 328 581 1622 
L 1013 1622 
Q 994 1234 950 884 
Q 1181 466 1538 209 
L 1538 1916 
L 138 1916 
L 138 2322 
L 3025 2322 
L 3025 1916 
L 1950 1916 
L 1950 1253 
L 2956 1253 
L 2956 847 
L 1950 847 
L 1950 -16 
Q 2369 -184 2906 -197 
Q 4006 -266 6300 -166 
Q 6231 -372 6125 -659 
Q 3888 -716 2906 -634 
Q 1513 -597 850 347 
Q 688 -359 363 -878 
Q 238 -584 88 -291 
z
M 525 5041 
L 2725 5041 
L 2725 2634 
L 2313 2634 
L 2313 2828 
L 938 2828 
L 938 2634 
L 525 2634 
L 525 5041 
z
M 3263 3878 
L 4169 3878 
Q 4231 4247 4275 4591 
L 3031 4591 
L 3031 4997 
L 6169 4997 
L 6169 4591 
L 4738 4591 
Q 4681 4222 4613 3878 
L 5838 3878 
L 5838 1228 
L 5425 1228 
L 5425 3472 
L 3675 3472 
L 3675 1228 
L 3263 1228 
L 3263 3878 
z
M 4344 3203 
L 4756 3203 
L 4756 2422 
Q 4756 1809 4631 1372 
Q 5594 678 6050 284 
L 5713 -47 
Q 5213 422 4481 972 
Q 4444 903 4406 841 
Q 4031 241 3131 -109 
Q 2988 72 2794 259 
Q 3669 547 4006 1028 
Q 4344 1503 4344 2441 
L 4344 3203 
z
M 938 3203 
L 2313 3203 
L 2313 3753 
L 938 3753 
L 938 3203 
z
M 2313 4666 
L 938 4666 
L 938 4122 
L 2313 4122 
L 2313 4666 
z
" transform="scale(0.015625)"/>
      </defs>
      <use xlink:href="#MicrosoftYaHei-5ba1"/>
      <use xlink:href="#MicrosoftYaHei-9898" transform="translate(100 0)"/>
     </g>
    </g>
    <g id="patch_37">
     <path d="M 314.983125 240.443125 
L 330.983125 240.443125 
L 330.983125 234.843125 
L 314.983125 234.843125 
z
" style="fill: #73bfaa; stroke: #ffffff; stroke-linejoin: miter"/>
    </g>
    <g id="text_39">
     <!-- 基础题 -->
     <g transform="translate(337.383125 240.443125) scale(0.08 -0.08)">
      <defs>
       <path id="MicrosoftYaHei-57fa" d="M 6319 697 
Q 6113 441 5981 247 
Q 5406 519 4925 897 
L 4925 553 
L 3431 553 
L 3431 -97 
L 5875 -97 
L 5875 -503 
L 519 -503 
L 519 -97 
L 2963 -97 
L 2963 553 
L 1450 553 
L 1450 894 
Q 953 478 413 172 
Q 294 341 88 566 
Q 1050 1034 1753 1753 
L 156 1753 
L 156 2159 
L 1400 2159 
L 1400 4253 
L 350 4253 
L 350 4659 
L 1400 4659 
L 1400 5334 
L 1869 5334 
L 1869 4659 
L 4550 4659 
L 4550 5334 
L 5019 5334 
L 5019 4659 
L 6069 4659 
L 6069 4253 
L 5019 4253 
L 5019 2159 
L 6244 2159 
L 6244 1753 
L 4600 1753 
Q 5303 1053 6319 697 
z
M 2963 1553 
L 3431 1553 
L 3431 947 
L 4863 947 
Q 4416 1306 4047 1753 
L 2325 1753 
Q 1934 1309 1513 947 
L 2963 947 
L 2963 1553 
z
M 1869 2159 
L 4550 2159 
L 4550 2603 
L 1869 2603 
L 1869 2159 
z
M 1869 2991 
L 4550 2991 
L 4550 3428 
L 1869 3428 
L 1869 2991 
z
M 1869 3816 
L 4550 3816 
L 4550 4253 
L 1869 4253 
L 1869 3816 
z
" transform="scale(0.015625)"/>
       <path id="MicrosoftYaHei-7840" d="M 5500 2222 
L 5500 2516 
L 4594 2516 
L 4594 3 
L 5613 3 
L 5613 1803 
L 6075 1803 
L 6075 -728 
L 5613 -728 
L 5613 -447 
L 2663 -447 
L 2663 1803 
L 3125 1803 
L 3125 3 
L 4131 3 
L 4131 2516 
L 2775 2516 
L 2775 4622 
L 3238 4622 
L 3238 2966 
L 4131 2966 
L 4131 5272 
L 4594 5272 
L 4594 2966 
L 5500 2966 
L 5500 4616 
L 5963 4616 
L 5963 2222 
L 5500 2222 
z
M 19 1784 
Q 725 2956 1038 4366 
L 225 4366 
L 225 4778 
L 2444 4778 
L 2444 4366 
L 1453 4366 
Q 1294 3641 1059 2991 
L 2200 2991 
L 2200 -197 
L 1788 -197 
L 1788 222 
L 1100 222 
L 1100 -372 
L 688 -372 
L 688 2106 
Q 522 1763 331 1447 
Q 200 1616 19 1784 
z
M 1788 2591 
L 1100 2591 
L 1100 622 
L 1788 622 
L 1788 2591 
z
" transform="scale(0.015625)"/>
      </defs>
      <use xlink:href="#MicrosoftYaHei-57fa"/>
      <use xlink:href="#MicrosoftYaHei-7840" transform="translate(100 0)"/>
      <use xlink:href="#MicrosoftYaHei-9898" transform="translate(200 0)"/>
     </g>
    </g>
    <g id="patch_38">
     <path d="M 377.383125 228.059375 
L 393.383125 228.059375 
L 393.383125 222.459375 
L 377.383125 222.459375 
z
" style="fill: #e8a060; stroke: #ffffff; stroke-linejoin: miter"/>
    </g>
    <g id="text_40">
     <!-- 中档题 -->
     <g transform="translate(399.783125 228.059375) scale(0.08 -0.08)">
      <defs>
       <path id="MicrosoftYaHei-4e2d" d="M 525 3972 
L 2931 3972 
L 2931 5334 
L 3469 5334 
L 3469 3972 
L 5900 3972 
L 5900 1122 
L 5388 1122 
L 5388 1459 
L 3469 1459 
L 3469 -866 
L 2931 -866 
L 2931 1459 
L 1038 1459 
L 1038 1122 
L 525 1122 
L 525 3972 
z
M 5388 3509 
L 3469 3509 
L 3469 1922 
L 5388 1922 
L 5388 3509 
z
M 1038 1922 
L 2931 1922 
L 2931 3509 
L 1038 3509 
L 1038 1922 
z
" transform="scale(0.015625)"/>
       <path id="MicrosoftYaHei-6863" d="M 2225 -34 
L 5575 -34 
L 5575 1066 
L 2494 1066 
L 2494 1497 
L 5575 1497 
L 5575 2547 
L 2388 2547 
L 2388 2991 
L 3981 2991 
L 3981 5259 
L 4456 5259 
L 4456 2991 
L 6050 2991 
L 6050 -828 
L 5575 -828 
L 5575 -478 
L 2225 -478 
L 2225 -34 
z
M 25 1303 
Q 681 2272 1025 3572 
L 88 3572 
L 88 3997 
L 1038 3997 
L 1038 5253 
L 1506 5253 
L 1506 3997 
L 2381 3997 
L 2381 3572 
L 1506 3572 
L 1506 2628 
L 1706 2822 
Q 2225 2303 2606 1897 
L 2231 1559 
Q 1894 1978 1506 2397 
L 1506 -809 
L 1038 -809 
L 1038 2397 
Q 700 1416 244 759 
Q 144 1022 25 1303 
z
M 4950 3603 
Q 5381 4197 5794 4953 
L 6250 4684 
Q 5775 3916 5344 3316 
L 4950 3603 
z
M 2263 4697 
L 2650 4941 
Q 3119 4297 3556 3622 
L 3113 3334 
Q 2713 4034 2263 4697 
z
" transform="scale(0.015625)"/>
      </defs>
      <use xlink:href="#MicrosoftYaHei-4e2d"/>
      <use xlink:href="#MicrosoftYaHei-6863" transform="translate(100 0)"/>
      <use xlink:href="#MicrosoftYaHei-9898" transform="translate(200 0)"/>
     </g>
    </g>
    <g id="patch_39">
     <path d="M 377.383125 240.443125 
L 393.383125 240.443125 
L 393.383125 234.843125 
L 377.383125 234.843125 
z
" style="fill: #d18080; stroke: #ffffff; stroke-linejoin: miter"/>
    </g>
    <g id="text_41">
     <!-- 压轴题 -->
     <g transform="translate(399.783125 240.443125) scale(0.08 -0.08)">
      <defs>
       <path id="MicrosoftYaHei-538b" d="M 1363 3 
L 3538 3 
L 3538 2216 
L 1819 2216 
L 1819 2684 
L 3538 2684 
L 3538 4078 
L 4063 4078 
L 4063 2684 
L 5994 2684 
L 5994 2216 
L 4063 2216 
L 4063 3 
L 6250 3 
L 6250 -459 
L 1363 -459 
L 1363 3 
z
M 1363 2772 
Q 1363 1378 1188 672 
Q 1006 -59 488 -803 
Q 338 -622 100 -384 
Q 563 303 694 884 
Q 838 1459 838 2653 
L 838 4866 
L 6219 4866 
L 6219 4391 
L 1363 4391 
L 1363 2772 
z
M 4588 1516 
L 4938 1803 
Q 5413 1316 5881 791 
L 5469 459 
Q 4875 1191 4588 1516 
z
" transform="scale(0.015625)"/>
       <path id="MicrosoftYaHei-8f74" d="M 2775 4078 
L 4163 4078 
L 4163 5253 
L 4613 5253 
L 4613 4078 
L 6000 4078 
L 6000 -784 
L 5538 -784 
L 5538 -384 
L 3238 -384 
L 3238 -784 
L 2775 -784 
L 2775 4078 
z
M 706 2516 
L 1369 2516 
L 1369 3622 
L 1819 3622 
L 1819 2516 
L 2400 2516 
L 2400 2091 
L 1819 2091 
L 1819 1000 
Q 2144 1044 2488 1091 
Q 2456 847 2444 647 
Q 2141 613 1819 569 
L 1819 -841 
L 1369 -841 
L 1369 509 
Q 784 431 131 334 
L 81 803 
Q 691 863 1369 944 
L 1369 2091 
L 244 2091 
L 244 2516 
Q 538 3275 769 3941 
L 156 3941 
L 156 4366 
L 913 4366 
Q 1084 4888 1213 5347 
L 1688 5247 
Q 1547 4809 1391 4366 
L 2488 4366 
L 2488 3941 
L 1244 3941 
Q 991 3234 706 2516 
z
M 4613 53 
L 5538 53 
L 5538 1653 
L 4613 1653 
L 4613 53 
z
M 3238 53 
L 4163 53 
L 4163 1653 
L 3238 1653 
L 3238 53 
z
M 5538 3641 
L 4613 3641 
L 4613 2078 
L 5538 2078 
L 5538 3641 
z
M 3238 2078 
L 4163 2078 
L 4163 3641 
L 3238 3641 
L 3238 2078 
z
" transform="scale(0.015625)"/>
      </defs>
      <use xlink:href="#MicrosoftYaHei-538b"/>
      <use xlink:href="#MicrosoftYaHei-8f74" transform="translate(100 0)"/>
      <use xlink:href="#MicrosoftYaHei-9898" transform="translate(200 0)"/>
     </g>
    </g>
    <g id="patch_40">
     <path d="M 439.783125 228.059375 
L 455.783125 228.059375 
L 455.783125 222.459375 
L 439.783125 222.459375 
z
" style="fill: #3498db; stroke: #ffffff; stroke-linejoin: miter"/>
    </g>
    <g id="text_42">
     <!-- 检查 -->
     <g transform="translate(462.183125 228.059375) scale(0.08 -0.08)">
      <defs>
       <path id="MicrosoftYaHei-68c0" d="M 81 1378 
Q 675 2328 988 3597 
L 144 3597 
L 144 4009 
L 1044 4009 
L 1044 5266 
L 1481 5266 
L 1481 4009 
L 2319 4009 
L 2319 3597 
L 1481 3597 
L 1481 2672 
L 1756 2872 
Q 2094 2459 2350 2097 
L 2006 1828 
Q 1788 2197 1481 2597 
L 1481 -841 
L 1044 -841 
L 1044 2647 
Q 725 1534 281 828 
Q 206 1103 81 1378 
z
M 2163 -122 
L 4544 -122 
Q 4881 791 5244 2203 
L 5750 2059 
Q 5331 741 5013 -122 
L 6188 -122 
L 6188 -566 
L 2163 -566 
L 2163 -122 
z
M 4538 5216 
L 4456 5091 
Q 5119 3891 6344 3166 
Q 6175 2978 6000 2741 
Q 4781 3603 4181 4672 
Q 3438 3466 2475 2666 
Q 2325 2866 2119 3059 
Q 3281 3941 3944 5216 
L 4538 5216 
z
M 2900 2972 
L 5463 2972 
L 5463 2534 
L 2900 2534 
L 2900 2972 
z
M 3656 2197 
L 4094 2303 
Q 4338 1441 4500 578 
L 4031 459 
Q 3875 1441 3656 2197 
z
M 2469 1947 
L 2900 2072 
Q 3138 1378 3388 378 
L 2925 241 
Q 2719 1172 2469 1947 
z
" transform="scale(0.015625)"/>
       <path id="MicrosoftYaHei-67e5" d="M 306 4659 
L 2975 4659 
L 2975 5328 
L 3419 5328 
L 3419 4659 
L 6125 4659 
L 6125 4241 
L 3809 4241 
Q 4797 3488 6306 3103 
Q 6144 2859 6019 2659 
Q 5681 2775 5369 2909 
L 5369 197 
L 4894 197 
L 4894 478 
L 1525 478 
L 1525 191 
L 1050 191 
L 1050 2878 
Q 731 2731 381 2597 
Q 250 2791 88 2997 
Q 1700 3506 2559 4241 
L 306 4241 
L 306 4659 
z
M 156 -141 
L 6244 -141 
L 6244 -591 
L 156 -591 
L 156 -141 
z
M 2975 3066 
L 2975 4138 
Q 2256 3444 1119 2909 
L 5366 2909 
Q 4213 3400 3419 4125 
L 3419 3066 
L 2975 3066 
z
M 1525 909 
L 4894 909 
L 4894 1484 
L 1525 1484 
L 1525 909 
z
M 4894 2478 
L 1525 2478 
L 1525 1909 
L 4894 1909 
L 4894 2478 
z
" transform="scale(0.015625)"/>
      </defs>
      <use xlink:href="#MicrosoftYaHei-68c0"/>
      <use xlink:href="#MicrosoftYaHei-67e5" transform="translate(100 0)"/>
     </g>
    </g>
    <g id="patch_41">
     <path d="M 439.783125 240.443125 
L 455.783125 240.443125 
L 455.783125 234.843125 
L 439.783125 234.843125 
z
" style="fill: #bdc3c7; stroke: #ffffff; stroke-linejoin: miter"/>
    </g>
    <g id="text_43">
     <!-- 机动 -->
     <g transform="translate(462.183125 240.443125) scale(0.08 -0.08)">
      <defs>
       <path id="MicrosoftYaHei-673a" d="M 3375 4434 
L 3375 2366 
Q 3375 128 2256 -878 
Q 2081 -666 1888 -453 
Q 2875 416 2875 2253 
L 2875 4909 
L 5200 4909 
L 5200 209 
Q 5200 -103 5419 -103 
L 5563 -103 
Q 5763 -103 5819 247 
Q 5881 728 5906 1284 
Q 6125 1178 6381 1084 
Q 6325 466 6269 72 
Q 6169 -591 5631 -591 
L 5300 -591 
Q 4700 -591 4700 122 
L 4700 4434 
L 3375 4434 
z
M 81 1403 
Q 781 2447 1078 3653 
L 144 3653 
L 144 4078 
L 1119 4078 
L 1119 5309 
L 1569 5309 
L 1569 4078 
L 2444 4078 
L 2444 3653 
L 1569 3653 
L 1569 2616 
L 1819 2866 
Q 2300 2428 2575 2153 
L 2238 1809 
Q 1853 2234 1569 2516 
L 1569 -784 
L 1119 -784 
L 1119 2566 
Q 784 1506 288 853 
Q 188 1134 81 1403 
z
" transform="scale(0.015625)"/>
       <path id="MicrosoftYaHei-52a8" d="M 2975 4022 
L 3906 4022 
Q 3916 4650 3913 5309 
L 4425 5309 
Q 4422 4656 4409 4022 
L 6094 4022 
Q 6050 1659 5969 216 
Q 5900 -666 5150 -678 
Q 4763 -678 4306 -659 
Q 4263 -397 4206 -109 
Q 4638 -166 4994 -172 
Q 5456 -172 5475 347 
Q 5569 1897 5588 3547 
L 4400 3547 
Q 4394 3278 4388 3016 
Q 4356 553 2900 -872 
Q 2725 -659 2525 -447 
Q 3831 716 3888 3028 
Q 3894 3284 3900 3547 
L 2975 3547 
L 2975 4022 
z
M 2338 1866 
Q 2731 1016 3063 178 
Q 2788 59 2594 -28 
Q 2550 91 2506 209 
Q 1316 97 338 -16 
L 119 491 
Q 394 647 563 997 
Q 869 1613 1200 2559 
L 144 2559 
L 144 3022 
L 3163 3022 
L 3163 2559 
L 1725 2559 
Q 1191 1228 800 491 
Q 1519 544 2347 631 
Q 2138 1163 1906 1672 
L 2338 1866 
z
M 406 4778 
L 2913 4778 
L 2913 4316 
L 406 4316 
L 406 4778 
z
" transform="scale(0.015625)"/>
      </defs>
      <use xlink:href="#MicrosoftYaHei-673a"/>
      <use xlink:href="#MicrosoftYaHei-52a8" transform="translate(100 0)"/>
     </g>
    </g>
   </g>
  </g>
 </g>
 <defs>
  <clipPath id="p8888fde22a">
   <rect x="57.143125" y="23.591875" width="428.24" height="226.04"/>
  </clipPath>
 </defs>
</svg>
