<?xml version="1.0" encoding="utf-8" standalone="no"?>
<!DOCTYPE svg PUBLIC "-//W3C//DTD SVG 1.1//EN"
  "http://www.w3.org/Graphics/SVG/1.1/DTD/svg11.dtd">
<svg xmlns:xlink="http://www.w3.org/1999/xlink" width="419.490312pt" height="239.142187pt" viewBox="0 0 419.490312 239.142187" xmlns="http://www.w3.org/2000/svg" version="1.1">
 <metadata>
  <rdf:RDF xmlns:dc="http://purl.org/dc/elements/1.1/" xmlns:cc="http://creativecommons.org/ns#" xmlns:rdf="http://www.w3.org/1999/02/22-rdf-syntax-ns#">
   <cc:Work>
    <dc:type rdf:resource="http://purl.org/dc/dcmitype/StillImage"/>
    <dc:date>2026-05-25T15:25:19.628181</dc:date>
    <dc:format>image/svg+xml</dc:format>
    <dc:creator>
     <cc:Agent>
      <dc:title>Matplotlib v3.10.9, https://matplotlib.org/</dc:title>
     </cc:Agent>
    </dc:creator>
   </cc:Work>
  </rdf:RDF>
 </metadata>
 <defs>
  <style type="text/css">*{stroke-linejoin: round; stroke-linecap: butt}</style>
 </defs>
 <g id="figure_1">
  <g id="patch_1">
   <path d="M 0 239.142187 
L 419.490312 239.142187 
L 419.490312 0 
L 0 0 
z
" style="fill: #ffffff"/>
  </g>
  <g id="axes_1">
   <g id="patch_2">
    <path d="M 49.790313 197.886875 
L 412.290312 197.886875 
L 412.290312 23.591875 
L 49.790313 23.591875 
z
" style="fill: #ffffff"/>
   </g>
   <g id="matplotlib.axis_1">
    <g id="xtick_1">
     <g id="line2d_1">
      <path d="M 60.775161 197.886875 
L 60.775161 23.591875 
" clip-path="url(#pc731545fa0)" style="fill: none; stroke: #b0b0b0; stroke-opacity: 0.3; stroke-width: 0.8; stroke-linecap: square"/>
     </g>
     <g id="line2d_2">
      <defs>
       <path id="m60c7bb4e00" d="M 0 0 
L 0 3.5 
" style="stroke: #000000; stroke-width: 0.8"/>
      </defs>
      <g>
       <use xlink:href="#m60c7bb4e00" x="60.775161" y="197.886875" style="stroke: #000000; stroke-width: 0.8"/>
      </g>
     </g>
     <g id="text_1">
      <!-- 0 -->
      <g transform="translate(57.256723 214.479375) scale(0.12 -0.12)">
       <defs>
        <path id="MicrosoftYaHei-30" d="M 284 2325 
Q 284 3606 709 4264 
Q 1134 4922 1941 4922 
Q 3478 4922 3478 2441 
Q 3478 1216 3045 567 
Q 2613 -81 1831 -81 
Q 1094 -81 689 534 
Q 284 1150 284 2325 
z
M 909 2353 
Q 909 425 1888 425 
Q 2850 425 2850 2384 
Q 2850 4413 1906 4413 
Q 909 4413 909 2353 
z
" transform="scale(0.015625)"/>
       </defs>
       <use xlink:href="#MicrosoftYaHei-30"/>
      </g>
     </g>
    </g>
    <g id="xtick_2">
     <g id="line2d_3">
      <path d="M 115.699403 197.886875 
L 115.699403 23.591875 
" clip-path="url(#pc731545fa0)" style="fill: none; stroke: #b0b0b0; stroke-opacity: 0.3; stroke-width: 0.8; stroke-linecap: square"/>
     </g>
     <g id="line2d_4">
      <g>
       <use xlink:href="#m60c7bb4e00" x="115.699403" y="197.886875" style="stroke: #000000; stroke-width: 0.8"/>
      </g>
     </g>
     <g id="text_2">
      <!-- 5 -->
      <g transform="translate(112.180966 214.479375) scale(0.12 -0.12)">
       <defs>
        <path id="MicrosoftYaHei-35" d="M 3294 1494 
Q 3294 784 2823 350 
Q 2353 -84 1559 -84 
Q 878 -84 544 119 
L 544 744 
Q 1034 425 1544 425 
Q 2050 425 2361 704 
Q 2672 984 2672 1447 
Q 2672 1909 2348 2167 
Q 2025 2425 1434 2425 
Q 978 2425 613 2384 
L 791 4841 
L 3053 4841 
L 3053 4303 
L 1306 4303 
L 1206 2931 
L 1647 2950 
Q 2416 2950 2855 2567 
Q 3294 2184 3294 1494 
z
" transform="scale(0.015625)"/>
       </defs>
       <use xlink:href="#MicrosoftYaHei-35"/>
      </g>
     </g>
    </g>
    <g id="xtick_3">
     <g id="line2d_5">
      <path d="M 170.623646 197.886875 
L 170.623646 23.591875 
" clip-path="url(#pc731545fa0)" style="fill: none; stroke: #b0b0b0; stroke-opacity: 0.3; stroke-width: 0.8; stroke-linecap: square"/>
     </g>
     <g id="line2d_6">
      <g>
       <use xlink:href="#m60c7bb4e00" x="170.623646" y="197.886875" style="stroke: #000000; stroke-width: 0.8"/>
      </g>
     </g>
     <g id="text_3">
      <!-- 10 -->
      <g transform="translate(163.586771 214.479375) scale(0.12 -0.12)">
       <defs>
        <path id="MicrosoftYaHei-31" d="M 1781 0 
L 1781 4141 
Q 1638 3997 1295 3819 
Q 953 3641 663 3569 
L 663 4169 
Q 1047 4275 1484 4508 
Q 1922 4741 2156 4947 
L 2388 4947 
L 2388 0 
L 1781 0 
z
" transform="scale(0.015625)"/>
       </defs>
       <use xlink:href="#MicrosoftYaHei-31"/>
       <use xlink:href="#MicrosoftYaHei-30" transform="translate(58.642578 0)"/>
      </g>
     </g>
    </g>
    <g id="xtick_4">
     <g id="line2d_7">
      <path d="M 225.547888 197.886875 
L 225.547888 23.591875 
" clip-path="url(#pc731545fa0)" style="fill: none; stroke: #b0b0b0; stroke-opacity: 0.3; stroke-width: 0.8; stroke-linecap: square"/>
     </g>
     <g id="line2d_8">
      <g>
       <use xlink:href="#m60c7bb4e00" x="225.547888" y="197.886875" style="stroke: #000000; stroke-width: 0.8"/>
      </g>
     </g>
     <g id="text_4">
      <!-- 15 -->
      <g transform="translate(218.511013 214.479375) scale(0.12 -0.12)">
       <use xlink:href="#MicrosoftYaHei-31"/>
       <use xlink:href="#MicrosoftYaHei-35" transform="translate(58.642578 0)"/>
      </g>
     </g>
    </g>
    <g id="xtick_5">
     <g id="line2d_9">
      <path d="M 280.472131 197.886875 
L 280.472131 23.591875 
" clip-path="url(#pc731545fa0)" style="fill: none; stroke: #b0b0b0; stroke-opacity: 0.3; stroke-width: 0.8; stroke-linecap: square"/>
     </g>
     <g id="line2d_10">
      <g>
       <use xlink:href="#m60c7bb4e00" x="280.472131" y="197.886875" style="stroke: #000000; stroke-width: 0.8"/>
      </g>
     </g>
     <g id="text_5">
      <!-- 20 -->
      <g transform="translate(273.435256 214.479375) scale(0.12 -0.12)">
       <defs>
        <path id="MicrosoftYaHei-32" d="M 2666 3572 
Q 2666 3963 2419 4186 
Q 2172 4409 1747 4409 
Q 1447 4409 1140 4256 
Q 834 4103 569 3819 
L 569 4413 
Q 806 4659 1107 4790 
Q 1409 4922 1816 4922 
Q 2472 4922 2872 4570 
Q 3272 4219 3272 3619 
Q 3272 3084 3026 2693 
Q 2781 2303 2188 1894 
Q 1581 1475 1376 1294 
Q 1172 1113 1090 947 
Q 1009 781 1009 544 
L 3416 544 
L 3416 0 
L 372 0 
L 372 241 
Q 372 659 486 951 
Q 600 1244 862 1520 
Q 1125 1797 1681 2184 
Q 2250 2584 2458 2886 
Q 2666 3188 2666 3572 
z
" transform="scale(0.015625)"/>
       </defs>
       <use xlink:href="#MicrosoftYaHei-32"/>
       <use xlink:href="#MicrosoftYaHei-30" transform="translate(58.642578 0)"/>
      </g>
     </g>
    </g>
    <g id="xtick_6">
     <g id="line2d_11">
      <path d="M 335.396373 197.886875 
L 335.396373 23.591875 
" clip-path="url(#pc731545fa0)" style="fill: none; stroke: #b0b0b0; stroke-opacity: 0.3; stroke-width: 0.8; stroke-linecap: square"/>
     </g>
     <g id="line2d_12">
      <g>
       <use xlink:href="#m60c7bb4e00" x="335.396373" y="197.886875" style="stroke: #000000; stroke-width: 0.8"/>
      </g>
     </g>
     <g id="text_6">
      <!-- 25 -->
      <g transform="translate(328.359498 214.479375) scale(0.12 -0.12)">
       <use xlink:href="#MicrosoftYaHei-32"/>
       <use xlink:href="#MicrosoftYaHei-35" transform="translate(58.642578 0)"/>
      </g>
     </g>
    </g>
    <g id="xtick_7">
     <g id="line2d_13">
      <path d="M 390.320616 197.886875 
L 390.320616 23.591875 
" clip-path="url(#pc731545fa0)" style="fill: none; stroke: #b0b0b0; stroke-opacity: 0.3; stroke-width: 0.8; stroke-linecap: square"/>
     </g>
     <g id="line2d_14">
      <g>
       <use xlink:href="#m60c7bb4e00" x="390.320616" y="197.886875" style="stroke: #000000; stroke-width: 0.8"/>
      </g>
     </g>
     <g id="text_7">
      <!-- 30 -->
      <g transform="translate(383.283741 214.479375) scale(0.12 -0.12)">
       <defs>
        <path id="MicrosoftYaHei-33" d="M 447 809 
Q 944 425 1569 425 
Q 2069 425 2361 670 
Q 2653 916 2653 1328 
Q 2653 2247 1338 2247 
L 934 2247 
L 934 2753 
L 1319 2753 
Q 2484 2753 2484 3616 
Q 2484 4413 1594 4413 
Q 1084 4413 634 4069 
L 634 4647 
Q 1109 4922 1744 4922 
Q 2363 4922 2738 4598 
Q 3113 4275 3113 3759 
Q 3113 2809 2144 2538 
L 2144 2525 
Q 2669 2469 2973 2155 
Q 3278 1841 3278 1372 
Q 3278 719 2808 319 
Q 2338 -81 1556 -81 
Q 869 -81 447 175 
L 447 809 
z
" transform="scale(0.015625)"/>
       </defs>
       <use xlink:href="#MicrosoftYaHei-33"/>
       <use xlink:href="#MicrosoftYaHei-30" transform="translate(58.642578 0)"/>
      </g>
     </g>
    </g>
    <g id="text_8">
     <!-- 天数 (天) -->
     <g transform="translate(211.22 229.45625) scale(0.1 -0.1)">
      <defs>
       <path id="MicrosoftYaHei-5929" d="M 88 -353 
Q 2428 644 2813 2422 
L 169 2422 
L 169 2897 
L 2878 2897 
Q 2906 3341 2906 4428 
L 513 4428 
L 513 4903 
L 5913 4903 
L 5913 4428 
L 3456 4428 
Q 3450 3775 3431 2897 
L 6231 2897 
L 6231 2422 
L 3516 2422 
Q 4113 441 6319 -228 
Q 6063 -534 5888 -747 
Q 3850 75 3206 1969 
Q 2713 206 475 -828 
Q 344 -659 88 -353 
z
" transform="scale(0.015625)"/>
       <path id="MicrosoftYaHei-6570" d="M 4175 5303 
L 4675 5228 
Q 4544 4622 4369 4097 
L 6281 4097 
L 6281 3672 
L 5888 3672 
Q 5731 1834 5088 753 
Q 5594 66 6375 -372 
Q 6175 -647 6038 -866 
Q 5275 -372 4769 309 
Q 4194 -403 3400 -928 
Q 3263 -747 3044 -534 
Q 3919 41 4463 772 
Q 3956 1647 3794 2791 
Q 3663 2559 3519 2359 
Q 3394 2541 3206 2759 
Q 3931 3803 4175 5303 
z
M 150 1697 
L 1100 1697 
Q 1238 1934 1369 2184 
L 1819 2041 
Q 1719 1866 1619 1697 
L 3150 1697 
L 3150 1291 
Q 2913 678 2431 216 
Q 2775 53 3131 -109 
L 2856 -541 
Q 2469 -322 2050 -103 
Q 1344 -609 269 -903 
Q 169 -703 56 -466 
Q 969 -259 1600 128 
Q 1063 403 475 691 
Q 675 978 863 1284 
L 150 1284 
L 150 1697 
z
M 219 3847 
L 1656 3847 
L 1656 5247 
L 2119 5247 
L 2119 3847 
L 3319 3847 
L 3319 3434 
L 2119 3434 
L 2119 3053 
L 2306 3266 
Q 2888 2841 3281 2516 
L 2981 2166 
Q 2638 2491 2119 2897 
L 2119 2184 
L 1656 2184 
L 1656 3059 
Q 1088 2466 331 2016 
Q 213 2197 63 2397 
Q 850 2822 1506 3434 
L 219 3434 
L 219 3847 
z
M 5388 3672 
L 4219 3672 
Q 4188 3591 4150 3516 
Q 4263 2191 4775 1247 
Q 5275 2159 5388 3672 
z
M 1088 834 
Q 1531 634 2000 416 
Q 2431 784 2675 1284 
L 1375 1284 
Q 1231 1053 1088 834 
z
M 3038 5091 
L 3425 4834 
Q 3081 4384 2738 4003 
Q 2594 4128 2400 4266 
Q 2725 4647 3038 5091 
z
M 381 4816 
L 738 5059 
Q 1019 4716 1319 4322 
L 931 4047 
Q 656 4453 381 4816 
z
" transform="scale(0.015625)"/>
       <path id="MicrosoftYaHei-20" transform="scale(0.015625)"/>
       <path id="MicrosoftYaHei-28" d="M 1531 -1100 
Q 478 100 478 1847 
Q 478 3594 1531 4841 
L 2072 4841 
Q 1016 3544 1016 1853 
Q 1016 166 2066 -1100 
L 1531 -1100 
z
" transform="scale(0.015625)"/>
       <path id="MicrosoftYaHei-29" d="M 78 -1100 
Q 1131 163 1131 1853 
Q 1131 3547 72 4841 
L 616 4841 
Q 1672 3603 1672 1847 
Q 1672 91 616 -1100 
L 78 -1100 
z
" transform="scale(0.015625)"/>
      </defs>
      <use xlink:href="#MicrosoftYaHei-5929"/>
      <use xlink:href="#MicrosoftYaHei-6570" transform="translate(100 0)"/>
      <use xlink:href="#MicrosoftYaHei-20" transform="translate(200 0)"/>
      <use xlink:href="#MicrosoftYaHei-28" transform="translate(229.589844 0)"/>
      <use xlink:href="#MicrosoftYaHei-5929" transform="translate(262.988281 0)"/>
      <use xlink:href="#MicrosoftYaHei-29" transform="translate(362.988281 0)"/>
     </g>
    </g>
   </g>
   <g id="matplotlib.axis_2">
    <g id="ytick_1">
     <g id="line2d_15">
      <path d="M 49.790313 197.886875 
L 412.290312 197.886875 
" clip-path="url(#pc731545fa0)" style="fill: none; stroke: #b0b0b0; stroke-opacity: 0.3; stroke-width: 0.8; stroke-linecap: square"/>
     </g>
     <g id="line2d_16">
      <defs>
       <path id="mbc7610832c" d="M 0 0 
L -3.5 0 
" style="stroke: #000000; stroke-width: 0.8"/>
      </defs>
      <g>
       <use xlink:href="#mbc7610832c" x="49.790313" y="197.886875" style="stroke: #000000; stroke-width: 0.8"/>
      </g>
     </g>
     <g id="text_9">
      <!-- 0 -->
      <g transform="translate(35.753438 202.683125) scale(0.12 -0.12)">
       <use xlink:href="#MicrosoftYaHei-30"/>
      </g>
     </g>
    </g>
    <g id="ytick_2">
     <g id="line2d_17">
      <path d="M 49.790313 164.687827 
L 412.290312 164.687827 
" clip-path="url(#pc731545fa0)" style="fill: none; stroke: #b0b0b0; stroke-opacity: 0.3; stroke-width: 0.8; stroke-linecap: square"/>
     </g>
     <g id="line2d_18">
      <g>
       <use xlink:href="#mbc7610832c" x="49.790313" y="164.687827" style="stroke: #000000; stroke-width: 0.8"/>
      </g>
     </g>
     <g id="text_10">
      <!-- 20 -->
      <g transform="translate(28.716563 169.484077) scale(0.12 -0.12)">
       <use xlink:href="#MicrosoftYaHei-32"/>
       <use xlink:href="#MicrosoftYaHei-30" transform="translate(58.642578 0)"/>
      </g>
     </g>
    </g>
    <g id="ytick_3">
     <g id="line2d_19">
      <path d="M 49.790313 131.48878 
L 412.290312 131.48878 
" clip-path="url(#pc731545fa0)" style="fill: none; stroke: #b0b0b0; stroke-opacity: 0.3; stroke-width: 0.8; stroke-linecap: square"/>
     </g>
     <g id="line2d_20">
      <g>
       <use xlink:href="#mbc7610832c" x="49.790313" y="131.48878" style="stroke: #000000; stroke-width: 0.8"/>
      </g>
     </g>
     <g id="text_11">
      <!-- 40 -->
      <g transform="translate(28.716563 136.28503) scale(0.12 -0.12)">
       <defs>
        <path id="MicrosoftYaHei-34" d="M 2906 4841 
L 2906 1644 
L 3631 1644 
L 3631 1138 
L 2906 1138 
L 2906 0 
L 2313 0 
L 2313 1138 
L 53 1138 
L 53 1616 
Q 656 2294 1265 3178 
Q 1875 4063 2272 4841 
L 2906 4841 
z
M 741 1644 
L 2313 1644 
L 2313 3950 
Q 1988 3366 1616 2817 
Q 1244 2269 741 1644 
z
" transform="scale(0.015625)"/>
       </defs>
       <use xlink:href="#MicrosoftYaHei-34"/>
       <use xlink:href="#MicrosoftYaHei-30" transform="translate(58.642578 0)"/>
      </g>
     </g>
    </g>
    <g id="ytick_4">
     <g id="line2d_21">
      <path d="M 49.790313 98.289732 
L 412.290312 98.289732 
" clip-path="url(#pc731545fa0)" style="fill: none; stroke: #b0b0b0; stroke-opacity: 0.3; stroke-width: 0.8; stroke-linecap: square"/>
     </g>
     <g id="line2d_22">
      <g>
       <use xlink:href="#mbc7610832c" x="49.790313" y="98.289732" style="stroke: #000000; stroke-width: 0.8"/>
      </g>
     </g>
     <g id="text_12">
      <!-- 60 -->
      <g transform="translate(28.716563 103.085982) scale(0.12 -0.12)">
       <defs>
        <path id="MicrosoftYaHei-36" d="M 3181 4219 
Q 2803 4413 2391 4413 
Q 1763 4413 1381 3866 
Q 1000 3319 994 2372 
L 1009 2372 
Q 1353 3038 2106 3038 
Q 2734 3038 3109 2628 
Q 3484 2219 3484 1541 
Q 3484 831 3051 375 
Q 2619 -81 1947 -81 
Q 1209 -81 789 495 
Q 369 1072 369 2131 
Q 369 3413 920 4167 
Q 1472 4922 2372 4922 
Q 2888 4922 3181 4781 
L 3181 4219 
z
M 1031 1584 
Q 1031 1106 1286 765 
Q 1541 425 1963 425 
Q 2363 425 2613 719 
Q 2863 1013 2863 1475 
Q 2863 1975 2627 2253 
Q 2391 2531 1956 2531 
Q 1544 2531 1287 2250 
Q 1031 1969 1031 1584 
z
" transform="scale(0.015625)"/>
       </defs>
       <use xlink:href="#MicrosoftYaHei-36"/>
       <use xlink:href="#MicrosoftYaHei-30" transform="translate(58.642578 0)"/>
      </g>
     </g>
    </g>
    <g id="ytick_5">
     <g id="line2d_23">
      <path d="M 49.790313 65.090685 
L 412.290312 65.090685 
" clip-path="url(#pc731545fa0)" style="fill: none; stroke: #b0b0b0; stroke-opacity: 0.3; stroke-width: 0.8; stroke-linecap: square"/>
     </g>
     <g id="line2d_24">
      <g>
       <use xlink:href="#mbc7610832c" x="49.790313" y="65.090685" style="stroke: #000000; stroke-width: 0.8"/>
      </g>
     </g>
     <g id="text_13">
      <!-- 80 -->
      <g transform="translate(28.716563 69.886935) scale(0.12 -0.12)">
       <defs>
        <path id="MicrosoftYaHei-38" d="M 306 1350 
Q 306 1769 556 2122 
Q 806 2475 1200 2625 
Q 884 2803 700 3081 
Q 516 3359 516 3684 
Q 516 4028 692 4312 
Q 869 4597 1183 4759 
Q 1497 4922 1875 4922 
Q 2256 4922 2572 4761 
Q 2888 4600 3063 4315 
Q 3238 4031 3238 3684 
Q 3238 3366 3058 3086 
Q 2878 2806 2559 2625 
Q 2953 2472 3200 2119 
Q 3447 1766 3447 1350 
Q 3447 938 3250 611 
Q 3053 284 2690 103 
Q 2328 -78 1875 -78 
Q 1425 -78 1065 103 
Q 706 284 506 612 
Q 306 941 306 1350 
z
M 906 1378 
Q 906 947 1172 687 
Q 1438 428 1878 428 
Q 2309 428 2582 692 
Q 2856 956 2856 1378 
Q 2856 1778 2579 2051 
Q 2303 2325 1878 2325 
Q 1456 2325 1181 2058 
Q 906 1791 906 1378 
z
M 1081 3634 
Q 1081 3309 1312 3076 
Q 1544 2844 1878 2844 
Q 2206 2844 2445 3078 
Q 2684 3313 2684 3634 
Q 2684 3963 2454 4191 
Q 2225 4419 1878 4419 
Q 1534 4419 1307 4195 
Q 1081 3972 1081 3634 
z
" transform="scale(0.015625)"/>
       </defs>
       <use xlink:href="#MicrosoftYaHei-38"/>
       <use xlink:href="#MicrosoftYaHei-30" transform="translate(58.642578 0)"/>
      </g>
     </g>
    </g>
    <g id="ytick_6">
     <g id="line2d_25">
      <path d="M 49.790313 31.891637 
L 412.290312 31.891637 
" clip-path="url(#pc731545fa0)" style="fill: none; stroke: #b0b0b0; stroke-opacity: 0.3; stroke-width: 0.8; stroke-linecap: square"/>
     </g>
     <g id="line2d_26">
      <g>
       <use xlink:href="#mbc7610832c" x="49.790313" y="31.891637" style="stroke: #000000; stroke-width: 0.8"/>
      </g>
     </g>
     <g id="text_14">
      <!-- 100 -->
      <g transform="translate(21.679688 36.687887) scale(0.12 -0.12)">
       <use xlink:href="#MicrosoftYaHei-31"/>
       <use xlink:href="#MicrosoftYaHei-30" transform="translate(58.642578 0)"/>
       <use xlink:href="#MicrosoftYaHei-30" transform="translate(117.285156 0)"/>
      </g>
     </g>
    </g>
    <g id="text_15">
     <!-- 记忆保留率 (%) -->
     <g transform="translate(15.19375 145.008125) rotate(-90) scale(0.1 -0.1)">
      <defs>
       <path id="MicrosoftYaHei-8bb0" d="M 2975 2466 
L 2975 341 
Q 2975 -128 3425 -128 
L 5019 -128 
Q 5588 -128 5663 291 
Q 5731 628 5794 1266 
Q 6063 1159 6319 1084 
Q 6238 503 6138 72 
Q 6000 -603 5125 -603 
L 3250 -603 
Q 2488 -603 2488 197 
L 2488 2928 
L 5375 2928 
L 5375 4534 
L 2225 4534 
L 2225 4997 
L 5863 4997 
L 5863 2166 
L 5375 2166 
L 5375 2466 
L 2975 2466 
z
M 2206 716 
Q 2225 391 2250 178 
Q 1438 -366 994 -722 
L 700 -303 
Q 913 -141 913 259 
L 913 2703 
L 100 2703 
L 100 3166 
L 1400 3166 
L 1400 147 
Q 1775 403 2206 716 
z
M 806 5222 
Q 1488 4522 1794 4184 
L 1356 3816 
Q 963 4334 425 4891 
L 806 5222 
z
" transform="scale(0.015625)"/>
       <path id="MicrosoftYaHei-5fc6" d="M 1038 5259 
L 1531 5259 
L 1531 3947 
L 1769 4134 
Q 2200 3703 2563 3228 
L 2188 2922 
Q 1881 3397 1531 3772 
L 1531 -847 
L 1038 -847 
L 1038 5259 
z
M 381 3816 
L 819 3753 
Q 700 2903 531 2153 
Q 344 2203 88 2253 
Q 263 2903 381 3816 
z
M 5794 1628 
Q 5950 1553 6319 1441 
Q 6269 772 6175 234 
Q 6044 -547 5119 -566 
Q 4075 -603 3181 -566 
Q 2363 -522 2194 -34 
Q 2038 453 2581 1241 
Q 3350 2334 5131 4322 
L 2350 4322 
L 2350 4797 
L 5769 4797 
L 5769 4278 
Q 4069 2409 3150 1153 
Q 2625 422 2681 172 
Q 2731 -78 3369 -91 
Q 4131 -122 5025 -84 
Q 5594 -66 5675 422 
Q 5750 816 5794 1628 
z
" transform="scale(0.015625)"/>
       <path id="MicrosoftYaHei-4fdd" d="M 2263 5003 
L 5750 5003 
L 5750 2647 
L 5275 2647 
L 5275 2884 
L 4225 2884 
L 4225 2041 
L 6288 2041 
L 6288 1616 
L 4588 1616 
Q 5163 659 6338 109 
Q 6144 -159 6025 -353 
Q 4850 359 4225 1572 
L 4225 -847 
L 3769 -847 
L 3769 1597 
Q 3013 234 1875 -478 
Q 1731 -303 1525 -97 
Q 2638 516 3331 1616 
L 1694 1616 
L 1694 2041 
L 3769 2041 
L 3769 2884 
L 2738 2884 
L 2738 2603 
L 2263 2603 
L 2263 5003 
z
M 69 2247 
Q 906 3497 1369 5278 
L 1831 5141 
Q 1575 4316 1275 3597 
L 1275 -816 
L 825 -816 
L 825 2653 
Q 556 2159 263 1734 
Q 175 1997 69 2247 
z
M 5275 4584 
L 2738 4584 
L 2738 3303 
L 5275 3303 
L 5275 4584 
z
" transform="scale(0.015625)"/>
       <path id="MicrosoftYaHei-7559" d="M 825 2284 
L 5594 2284 
L 5594 -791 
L 5125 -791 
L 5125 -528 
L 1294 -528 
L 1294 -803 
L 825 -803 
L 825 2284 
z
M 3131 4553 
L 3131 4978 
L 5931 4978 
Q 5900 4166 5863 3478 
Q 5794 2609 5050 2609 
Q 4700 2609 4281 2628 
Q 4244 2859 4188 3128 
Q 4638 3059 4956 3059 
Q 5356 3059 5400 3553 
Q 5431 4047 5444 4553 
L 4247 4553 
Q 4250 3066 3119 2316 
Q 2969 2503 2756 2672 
Q 3788 3278 3781 4553 
L 3131 4553 
z
M 1869 4103 
L 2244 4341 
Q 2656 3809 3075 3159 
L 2663 2891 
Q 2550 3078 2431 3269 
Q 1706 2975 1038 2678 
Q 844 2578 700 2428 
L 331 2853 
Q 519 3059 519 3378 
L 519 4903 
Q 1613 4984 2744 5272 
L 2919 4809 
Q 2069 4634 981 4491 
L 981 3191 
Q 1563 3403 2188 3644 
Q 2034 3872 1869 4103 
z
M 3444 -103 
L 5125 -103 
L 5125 678 
L 3444 678 
L 3444 -103 
z
M 1294 -103 
L 2975 -103 
L 2975 678 
L 1294 678 
L 1294 -103 
z
M 5125 1859 
L 3444 1859 
L 3444 1097 
L 5125 1097 
L 5125 1859 
z
M 1294 1097 
L 2975 1097 
L 2975 1859 
L 1294 1859 
L 1294 1097 
z
" transform="scale(0.015625)"/>
       <path id="MicrosoftYaHei-7387" d="M 2525 2009 
Q 2622 2016 3928 2081 
Q 3772 2300 3625 2491 
L 3963 2703 
Q 4413 2203 4794 1653 
L 4394 1403 
Q 4284 1569 4178 1725 
Q 2991 1659 2213 1597 
Q 2075 1584 1881 1541 
L 1725 1966 
Q 1913 2028 2006 2084 
Q 2534 2441 3050 2913 
Q 2597 2894 2275 2866 
Q 2144 2847 1988 2809 
L 1800 3191 
Q 1956 3247 2088 3366 
Q 2509 3722 2875 4228 
L 231 4228 
L 231 4666 
L 3031 4666 
Q 2878 4944 2744 5153 
L 3194 5372 
Q 3438 5000 3616 4666 
L 6175 4666 
L 6175 4228 
L 3053 4228 
L 3350 4072 
Q 2844 3553 2494 3247 
Q 2850 3256 3425 3269 
Q 3675 3519 3925 3797 
L 4356 3547 
Q 3363 2603 2525 2009 
z
M 144 991 
L 2994 991 
L 2994 1541 
L 3488 1541 
L 3488 991 
L 6275 991 
L 6275 553 
L 3488 553 
L 3488 -853 
L 2994 -853 
L 2994 553 
L 144 553 
L 144 991 
z
M 1719 2672 
L 1944 2303 
Q 1200 1866 425 1409 
L 163 1828 
Q 813 2134 1719 2672 
z
M 4856 2678 
Q 5750 2172 6250 1816 
L 5975 1409 
Q 5331 1909 4600 2341 
L 4856 2678 
z
M 5994 3591 
Q 5519 3178 4963 2809 
L 4644 3141 
Q 5244 3534 5638 3928 
L 5994 3591 
z
M 363 3634 
L 681 3941 
Q 1200 3528 1588 3159 
L 1238 2816 
Q 875 3197 363 3634 
z
" transform="scale(0.015625)"/>
       <path id="MicrosoftYaHei-25" d="M 272 3619 
Q 272 4213 589 4563 
Q 906 4913 1444 4913 
Q 1959 4913 2248 4591 
Q 2538 4269 2538 3694 
Q 2538 3122 2219 2765 
Q 1900 2409 1372 2409 
Q 872 2409 572 2740 
Q 272 3072 272 3619 
z
M 753 3650 
Q 753 3247 928 3028 
Q 1103 2809 1406 2809 
Q 1719 2809 1889 3036 
Q 2059 3263 2059 3675 
Q 2059 4078 1892 4298 
Q 1725 4519 1422 4519 
Q 1113 4519 933 4289 
Q 753 4059 753 3650 
z
M 4647 4841 
L 1538 -31 
L 1016 -31 
L 4125 4841 
L 4647 4841 
z
M 3172 1134 
Q 3172 1728 3489 2083 
Q 3806 2438 4341 2438 
Q 4853 2438 5143 2114 
Q 5434 1791 5434 1203 
Q 5434 634 5112 279 
Q 4791 -75 4272 -75 
Q 3769 -75 3470 261 
Q 3172 597 3172 1134 
z
M 3650 1163 
Q 3650 769 3825 548 
Q 4000 328 4303 328 
Q 4616 328 4786 556 
Q 4956 784 4956 1194 
Q 4956 1600 4786 1815 
Q 4616 2031 4319 2031 
Q 4000 2031 3825 1801 
Q 3650 1572 3650 1163 
z
" transform="scale(0.015625)"/>
      </defs>
      <use xlink:href="#MicrosoftYaHei-8bb0"/>
      <use xlink:href="#MicrosoftYaHei-5fc6" transform="translate(100 0)"/>
      <use xlink:href="#MicrosoftYaHei-4fdd" transform="translate(200 0)"/>
      <use xlink:href="#MicrosoftYaHei-7559" transform="translate(300 0)"/>
      <use xlink:href="#MicrosoftYaHei-7387" transform="translate(400 0)"/>
      <use xlink:href="#MicrosoftYaHei-20" transform="translate(500 0)"/>
      <use xlink:href="#MicrosoftYaHei-28" transform="translate(529.589844 0)"/>
      <use xlink:href="#MicrosoftYaHei-25" transform="translate(562.988281 0)"/>
      <use xlink:href="#MicrosoftYaHei-29" transform="translate(651.953125 0)"/>
     </g>
    </g>
   </g>
   <g id="line2d_27">
    <path d="M 60.775161 6.992351 
L 71.760009 37.082183 
L 82.744858 61.717654 
L 104.714555 98.401121 
L 137.6691 132.053668 
L 225.547888 164.723173 
L 390.320616 172.576128 
" clip-path="url(#pc731545fa0)" style="fill: none; stroke: #c46565; stroke-width: 2.5; stroke-linecap: square"/>
    <defs>
     <path id="m8cb33c7de3" d="M 0 3.5 
C 0.928211 3.5 1.81853 3.131218 2.474874 2.474874 
C 3.131218 1.81853 3.5 0.928211 3.5 0 
C 3.5 -0.928211 3.131218 -1.81853 2.474874 -2.474874 
C 1.81853 -3.131218 0.928211 -3.5 0 -3.5 
C -0.928211 -3.5 -1.81853 -3.131218 -2.474874 -2.474874 
C -3.131218 -1.81853 -3.5 -0.928211 -3.5 0 
C -3.5 0.928211 -3.131218 1.81853 -2.474874 2.474874 
C -1.81853 3.131218 -0.928211 3.5 0 3.5 
z
" style="stroke: #c46565"/>
    </defs>
    <g clip-path="url(#pc731545fa0)">
     <use xlink:href="#m8cb33c7de3" x="60.775161" y="6.992351" style="fill: #c46565; stroke: #c46565"/>
     <use xlink:href="#m8cb33c7de3" x="71.760009" y="37.082183" style="fill: #c46565; stroke: #c46565"/>
     <use xlink:href="#m8cb33c7de3" x="82.744858" y="61.717654" style="fill: #c46565; stroke: #c46565"/>
     <use xlink:href="#m8cb33c7de3" x="104.714555" y="98.401121" style="fill: #c46565; stroke: #c46565"/>
     <use xlink:href="#m8cb33c7de3" x="137.6691" y="132.053668" style="fill: #c46565; stroke: #c46565"/>
     <use xlink:href="#m8cb33c7de3" x="225.547888" y="164.723173" style="fill: #c46565; stroke: #c46565"/>
     <use xlink:href="#m8cb33c7de3" x="390.320616" y="172.576128" style="fill: #c46565; stroke: #c46565"/>
    </g>
   </g>
   <g id="patch_3">
    <path d="M 49.790313 197.886875 
L 49.790313 23.591875 
" style="fill: none; stroke: #000000; stroke-width: 0.8; stroke-linejoin: miter; stroke-linecap: square"/>
   </g>
   <g id="patch_4">
    <path d="M 49.790313 197.886875 
L 412.290312 197.886875 
" style="fill: none; stroke: #000000; stroke-width: 0.8; stroke-linejoin: miter; stroke-linecap: square"/>
   </g>
   <g id="text_16">
    <!-- 复习 -->
    <g style="fill: #e67e22" transform="translate(64.260009 46.023355) scale(0.075 -0.075)">
     <defs>
      <path id="MicrosoftYaHei-Bold-590d" d="M 5738 1528 
L 5738 1003 
Q 5091 600 4322 259 
Q 5197 78 6306 -16 
Q 6000 -428 5819 -791 
Q 4391 -569 3278 -153 
Q 2125 -559 744 -853 
Q 550 -541 275 -178 
Q 1394 3 2341 256 
Q 1872 500 1478 788 
Q 1069 416 581 116 
Q 363 391 75 691 
Q 925 1194 1459 1816 
L 844 1816 
L 844 3406 
Q 600 3128 325 2872 
Q 238 3266 94 3759 
Q 831 4484 1188 5334 
L 2063 5334 
Q 1978 5144 1888 4959 
L 6181 4959 
L 6181 4334 
L 1538 4334 
Q 1434 4172 1325 4016 
L 5738 4016 
L 5738 1816 
L 2372 1816 
Q 2272 1666 2163 1528 
L 5738 1528 
z
M 4906 3478 
L 1675 3478 
L 1675 3141 
L 4906 3141 
L 4906 3478 
z
M 4906 2353 
L 4906 2691 
L 1675 2691 
L 1675 2353 
L 4906 2353 
z
M 3269 541 
Q 3897 753 4438 1009 
L 2231 1009 
Q 2669 744 3269 541 
z
" transform="scale(0.015625)"/>
      <path id="MicrosoftYaHei-Bold-4e60" d="M 3431 -709 
Q 3344 -272 3206 241 
Q 3878 197 4350 197 
Q 4750 197 4826 562 
Q 4903 928 4925 4066 
L 500 4066 
L 500 4903 
L 5863 4903 
Q 5853 3694 5813 2238 
L 5750 353 
Q 5728 -75 5509 -334 
Q 5291 -594 4930 -647 
Q 4569 -700 3431 -709 
z
M 1300 3259 
L 1813 3916 
Q 2806 3241 3500 2709 
L 2881 1959 
Q 2088 2647 1300 3259 
z
M 300 1009 
Q 2669 1666 4656 2372 
Q 4656 2078 4669 1484 
Q 2856 822 625 53 
L 300 1009 
z
" transform="scale(0.015625)"/>
     </defs>
     <use xlink:href="#MicrosoftYaHei-Bold-590d"/>
     <use xlink:href="#MicrosoftYaHei-Bold-4e60" transform="translate(100 0)"/>
    </g>
    <!-- 97% -->
    <g style="fill: #e67e22" transform="translate(63.643017 55.082183) scale(0.075 -0.075)">
     <defs>
      <path id="MicrosoftYaHei-Bold-39" d="M 544 941 
Q 931 691 1456 691 
Q 2628 691 2653 2216 
L 2634 2222 
Q 2316 1731 1650 1731 
Q 1047 1731 658 2154 
Q 269 2578 269 3222 
Q 269 3978 737 4450 
Q 1206 4922 1959 4922 
Q 2744 4922 3191 4325 
Q 3638 3728 3638 2659 
Q 3638 1391 3098 653 
Q 2559 -84 1547 -84 
Q 975 -84 544 100 
L 544 941 
z
M 1259 3313 
Q 1259 2928 1445 2709 
Q 1631 2491 1953 2491 
Q 2241 2491 2427 2700 
Q 2613 2909 2613 3219 
Q 2613 3591 2427 3869 
Q 2241 4147 1928 4147 
Q 1625 4147 1442 3906 
Q 1259 3666 1259 3313 
z
" transform="scale(0.015625)"/>
      <path id="MicrosoftYaHei-Bold-37" d="M 3675 4225 
Q 3088 3172 2798 2528 
Q 2509 1884 2328 1275 
Q 2147 666 2050 0 
L 966 0 
Q 1122 947 1517 1917 
Q 1913 2888 2609 4009 
L 300 4009 
L 300 4841 
L 3675 4841 
L 3675 4225 
z
" transform="scale(0.015625)"/>
      <path id="MicrosoftYaHei-Bold-25" d="M 297 3597 
Q 297 4191 626 4548 
Q 956 4906 1519 4906 
Q 2056 4906 2354 4581 
Q 2653 4256 2653 3684 
Q 2653 3097 2322 2744 
Q 1991 2391 1438 2391 
Q 919 2391 608 2722 
Q 297 3053 297 3597 
z
M 984 3631 
Q 984 2959 1478 2959 
Q 1981 2959 1981 3659 
Q 1981 4338 1500 4338 
Q 984 4338 984 3631 
z
M 4938 4841 
L 1791 -3 
L 1006 -3 
L 4147 4841 
L 4938 4841 
z
M 3297 1141 
Q 3297 1741 3631 2095 
Q 3966 2450 4522 2450 
Q 5059 2450 5357 2131 
Q 5656 1813 5656 1234 
Q 5656 641 5322 286 
Q 4988 -69 4438 -69 
Q 3922 -69 3609 264 
Q 3297 597 3297 1141 
z
M 3981 1175 
Q 3981 500 4478 500 
Q 4978 500 4978 1200 
Q 4978 1528 4845 1704 
Q 4713 1881 4491 1881 
Q 3981 1881 3981 1175 
z
" transform="scale(0.015625)"/>
     </defs>
     <use xlink:href="#MicrosoftYaHei-Bold-39"/>
     <use xlink:href="#MicrosoftYaHei-Bold-37" transform="translate(61.669922 0)"/>
     <use xlink:href="#MicrosoftYaHei-Bold-25" transform="translate(123.339844 0)"/>
    </g>
   </g>
   <g id="text_17">
    <!-- 复习 -->
    <g style="fill: #e67e22" transform="translate(75.244858 70.658826) scale(0.075 -0.075)">
     <use xlink:href="#MicrosoftYaHei-Bold-590d"/>
     <use xlink:href="#MicrosoftYaHei-Bold-4e60" transform="translate(100 0)"/>
    </g>
    <!-- 82% -->
    <g style="fill: #e67e22" transform="translate(74.627866 79.717654) scale(0.075 -0.075)">
     <defs>
      <path id="MicrosoftYaHei-Bold-38" d="M 269 1303 
Q 269 1725 512 2053 
Q 756 2381 1219 2534 
Q 850 2719 648 3003 
Q 447 3288 447 3634 
Q 447 3997 645 4292 
Q 844 4588 1200 4755 
Q 1556 4922 1997 4922 
Q 2441 4922 2800 4758 
Q 3159 4594 3359 4298 
Q 3559 4003 3559 3647 
Q 3559 3309 3339 3018 
Q 3119 2728 2747 2559 
Q 3200 2403 3453 2076 
Q 3706 1750 3706 1313 
Q 3706 697 3228 309 
Q 2750 -78 1988 -78 
Q 1225 -78 747 309 
Q 269 697 269 1303 
z
M 1278 1394 
Q 1278 1056 1472 853 
Q 1666 650 1991 650 
Q 2303 650 2503 853 
Q 2703 1056 2703 1394 
Q 2703 1709 2500 1920 
Q 2297 2131 1991 2131 
Q 1675 2131 1476 1920 
Q 1278 1709 1278 1394 
z
M 1428 3531 
Q 1428 3266 1592 3077 
Q 1756 2888 2006 2888 
Q 2247 2888 2415 3072 
Q 2584 3256 2584 3531 
Q 2584 3806 2420 3997 
Q 2256 4188 2006 4188 
Q 1750 4188 1589 3997 
Q 1428 3806 1428 3531 
z
" transform="scale(0.015625)"/>
      <path id="MicrosoftYaHei-Bold-32" d="M 1500 841 
L 3553 841 
L 3553 0 
L 334 0 
L 334 359 
Q 334 738 473 1050 
Q 613 1363 856 1633 
Q 1100 1903 1613 2266 
Q 2081 2616 2268 2886 
Q 2456 3156 2456 3459 
Q 2456 4113 1744 4113 
Q 1119 4113 550 3613 
L 550 4513 
Q 1184 4922 1975 4922 
Q 2700 4922 3122 4551 
Q 3544 4181 3544 3531 
Q 3544 3169 3422 2876 
Q 3300 2584 3069 2328 
Q 2838 2072 2328 1713 
Q 1838 1363 1669 1172 
Q 1500 981 1500 841 
z
" transform="scale(0.015625)"/>
     </defs>
     <use xlink:href="#MicrosoftYaHei-Bold-38"/>
     <use xlink:href="#MicrosoftYaHei-Bold-32" transform="translate(61.669922 0)"/>
     <use xlink:href="#MicrosoftYaHei-Bold-25" transform="translate(123.339844 0)"/>
    </g>
   </g>
   <g id="text_18">
    <!-- 复习 -->
    <g style="fill: #e67e22" transform="translate(97.214555 107.342293) scale(0.075 -0.075)">
     <use xlink:href="#MicrosoftYaHei-Bold-590d"/>
     <use xlink:href="#MicrosoftYaHei-Bold-4e60" transform="translate(100 0)"/>
    </g>
    <!-- 60% -->
    <g style="fill: #e67e22" transform="translate(96.597563 116.401121) scale(0.075 -0.075)">
     <defs>
      <path id="MicrosoftYaHei-Bold-36" d="M 3378 3938 
Q 3009 4147 2575 4147 
Q 2016 4147 1680 3708 
Q 1344 3269 1344 2572 
L 1363 2572 
Q 1709 3103 2391 3103 
Q 3000 3103 3358 2686 
Q 3716 2269 3716 1600 
Q 3716 869 3250 392 
Q 2784 -84 2059 -84 
Q 1228 -84 786 516 
Q 344 1116 344 2159 
Q 344 3388 917 4155 
Q 1491 4922 2513 4922 
Q 3063 4922 3378 4791 
L 3378 3938 
z
M 1378 1591 
Q 1378 1216 1565 953 
Q 1753 691 2059 691 
Q 2369 691 2547 931 
Q 2725 1172 2725 1534 
Q 2725 2350 2053 2350 
Q 1750 2350 1564 2134 
Q 1378 1919 1378 1591 
z
" transform="scale(0.015625)"/>
      <path id="MicrosoftYaHei-Bold-30" d="M 244 2341 
Q 244 3597 706 4259 
Q 1169 4922 2044 4922 
Q 3713 4922 3713 2453 
Q 3713 1238 3259 577 
Q 2806 -84 1950 -84 
Q 244 -84 244 2341 
z
M 1266 2366 
Q 1266 691 1981 691 
Q 2684 691 2684 2416 
Q 2684 4147 2000 4147 
Q 1266 4147 1266 2366 
z
" transform="scale(0.015625)"/>
     </defs>
     <use xlink:href="#MicrosoftYaHei-Bold-36"/>
     <use xlink:href="#MicrosoftYaHei-Bold-30" transform="translate(61.669922 0)"/>
     <use xlink:href="#MicrosoftYaHei-Bold-25" transform="translate(123.339844 0)"/>
    </g>
   </g>
   <g id="text_19">
    <!-- 复习 -->
    <g style="fill: #e67e22" transform="translate(130.1691 140.994839) scale(0.075 -0.075)">
     <use xlink:href="#MicrosoftYaHei-Bold-590d"/>
     <use xlink:href="#MicrosoftYaHei-Bold-4e60" transform="translate(100 0)"/>
    </g>
    <!-- 40% -->
    <g style="fill: #e67e22" transform="translate(129.552108 150.053668) scale(0.075 -0.075)">
     <defs>
      <path id="MicrosoftYaHei-Bold-34" d="M 3184 4841 
L 3184 1766 
L 3869 1766 
L 3869 1031 
L 3184 1031 
L 3184 0 
L 2266 0 
L 2266 1031 
L 103 1031 
L 103 1772 
Q 775 2522 1362 3359 
Q 1950 4197 2250 4841 
L 3184 4841 
z
M 997 1766 
L 2266 1766 
L 2266 3541 
Q 2116 3259 1836 2859 
Q 1556 2459 997 1766 
z
" transform="scale(0.015625)"/>
     </defs>
     <use xlink:href="#MicrosoftYaHei-Bold-34"/>
     <use xlink:href="#MicrosoftYaHei-Bold-30" transform="translate(61.669922 0)"/>
     <use xlink:href="#MicrosoftYaHei-Bold-25" transform="translate(123.339844 0)"/>
    </g>
   </g>
   <g id="text_20">
    <!-- 复习 -->
    <g style="fill: #e67e22" transform="translate(218.047888 173.664345) scale(0.075 -0.075)">
     <use xlink:href="#MicrosoftYaHei-Bold-590d"/>
     <use xlink:href="#MicrosoftYaHei-Bold-4e60" transform="translate(100 0)"/>
    </g>
    <!-- 20% -->
    <g style="fill: #e67e22" transform="translate(217.430896 182.723173) scale(0.075 -0.075)">
     <use xlink:href="#MicrosoftYaHei-Bold-32"/>
     <use xlink:href="#MicrosoftYaHei-Bold-30" transform="translate(61.669922 0)"/>
     <use xlink:href="#MicrosoftYaHei-Bold-25" transform="translate(123.339844 0)"/>
    </g>
   </g>
   <g id="text_21">
    <!-- 复习 -->
    <g style="fill: #e67e22" transform="translate(382.820616 181.5173) scale(0.075 -0.075)">
     <use xlink:href="#MicrosoftYaHei-Bold-590d"/>
     <use xlink:href="#MicrosoftYaHei-Bold-4e60" transform="translate(100 0)"/>
    </g>
    <!-- 15% -->
    <g style="fill: #e67e22" transform="translate(382.203623 190.576128) scale(0.075 -0.075)">
     <defs>
      <path id="MicrosoftYaHei-Bold-31" d="M 2716 4947 
L 2716 0 
L 1700 0 
L 1700 3809 
Q 1513 3647 1188 3517 
Q 863 3388 591 3356 
L 591 4222 
Q 1447 4472 2072 4947 
L 2716 4947 
z
" transform="scale(0.015625)"/>
      <path id="MicrosoftYaHei-Bold-35" d="M 541 125 
L 541 997 
Q 1044 691 1613 691 
Q 2041 691 2283 902 
Q 2525 1113 2525 1472 
Q 2525 2225 1494 2225 
Q 1113 2225 616 2169 
L 797 4841 
L 3359 4841 
L 3359 4009 
L 1613 4009 
L 1544 2991 
Q 1803 3013 2022 3013 
Q 2731 3013 3142 2625 
Q 3553 2238 3553 1575 
Q 3553 844 3056 380 
Q 2559 -84 1706 -84 
Q 1016 -84 541 125 
z
" transform="scale(0.015625)"/>
     </defs>
     <use xlink:href="#MicrosoftYaHei-Bold-31"/>
     <use xlink:href="#MicrosoftYaHei-Bold-35" transform="translate(61.669922 0)"/>
     <use xlink:href="#MicrosoftYaHei-Bold-25" transform="translate(123.339844 0)"/>
    </g>
   </g>
   <g id="text_22">
    <!-- 艾宾浩斯遗忘曲线 · 冲刺期复习节奏 -->
    <g style="fill: #1a1a2e" transform="translate(126.811797 17.591875) scale(0.13 -0.13)">
     <defs>
      <path id="MicrosoftYaHei-Bold-827e" d="M 125 4666 
L 1638 4666 
L 1638 5309 
L 2550 5309 
L 2550 4666 
L 3863 4666 
L 3863 5309 
L 4775 5309 
L 4775 4666 
L 6263 4666 
L 6263 3853 
L 4775 3853 
L 4775 3328 
L 3863 3328 
L 3863 3853 
L 2550 3853 
L 2550 3328 
L 1638 3328 
L 1638 3853 
L 125 3853 
L 125 4666 
z
M 1938 3253 
Q 2459 2244 3200 1553 
Q 3956 2263 4388 3253 
L 5238 2853 
Q 4597 1681 3928 981 
Q 4950 316 6300 122 
Q 5969 -409 5763 -816 
Q 4275 -513 3175 334 
Q 2069 -453 575 -853 
Q 419 -459 88 78 
Q 1469 353 2456 978 
Q 1709 1753 1163 2841 
L 1938 3253 
z
" transform="scale(0.015625)"/>
      <path id="MicrosoftYaHei-Bold-5bbe" d="M 2575 5247 
L 3644 5353 
Q 3722 5138 3828 4803 
L 6088 4803 
L 6088 3466 
L 5225 3466 
L 5225 4116 
L 1175 4116 
L 1175 3466 
L 313 3466 
L 313 4803 
L 2756 4803 
L 2575 5247 
z
M 219 1203 
L 1250 1203 
L 1250 3634 
Q 3213 3666 4906 3784 
L 5231 3109 
Q 3506 3016 2113 2984 
L 2113 2584 
L 5788 2584 
L 5788 1922 
L 4625 1922 
L 4625 1203 
L 6181 1203 
L 6181 516 
L 219 516 
L 219 1203 
z
M 2113 1203 
L 3775 1203 
L 3775 1922 
L 2113 1922 
L 2113 1203 
z
M 4025 459 
Q 5306 209 6225 -97 
L 5894 -859 
Q 4825 -478 3700 -209 
L 4025 459 
z
M 2338 447 
L 2738 -203 
Q 1706 -591 538 -853 
Q 381 -478 194 -91 
Q 1263 84 2338 447 
z
" transform="scale(0.015625)"/>
      <path id="MicrosoftYaHei-Bold-6d69" d="M 2075 -822 
L 2075 1759 
L 5913 1759 
L 5913 -822 
L 5013 -822 
L 5013 -559 
L 2975 -559 
L 2975 -822 
L 2075 -822 
z
M 1725 2972 
L 3663 2972 
L 3663 3734 
L 2769 3734 
Q 2631 3384 2475 3047 
Q 2031 3234 1675 3353 
Q 2125 4216 2350 5128 
L 3150 4916 
Q 3088 4691 3025 4472 
L 3663 4472 
L 3663 5316 
L 4563 5316 
L 4563 4472 
L 6000 4472 
L 6000 3734 
L 4563 3734 
L 4563 2972 
L 6275 2972 
L 6275 2234 
L 1725 2234 
L 1725 2972 
z
M 838 1916 
Q 1231 1734 1656 1591 
Q 1369 572 981 -797 
Q 538 -628 131 -503 
Q 500 491 838 1916 
z
M 5013 1034 
L 2975 1034 
L 2975 166 
L 5013 166 
L 5013 1034 
z
M 631 3591 
Q 1206 3172 1656 2784 
L 1069 2134 
Q 625 2559 88 3003 
L 631 3591 
z
M 700 5266 
Q 1225 4872 1725 4447 
L 1163 3809 
Q 619 4347 181 4697 
L 700 5266 
z
" transform="scale(0.015625)"/>
      <path id="MicrosoftYaHei-Bold-65af" d="M 3613 4047 
L 3256 4047 
L 3256 1422 
L 3575 1422 
L 3575 722 
L 997 722 
L 1700 247 
Q 1388 -203 825 -847 
Q 444 -547 106 -328 
Q 656 222 975 722 
L 94 722 
L 94 1422 
L 500 1422 
L 500 4047 
L 206 4047 
L 206 4747 
L 500 4747 
L 500 5309 
L 1288 5309 
L 1288 4747 
L 2469 4747 
L 2469 5309 
L 3256 5309 
L 3256 4747 
L 3613 4747 
L 3613 4047 
z
M 1288 3584 
L 2469 3584 
L 2469 4047 
L 1288 4047 
L 1288 3584 
z
M 1288 2503 
L 2469 2503 
L 2469 2966 
L 1288 2966 
L 1288 2503 
z
M 1288 1422 
L 2469 1422 
L 2469 1884 
L 1288 1884 
L 1288 1422 
z
M 6300 2484 
L 5894 2484 
L 5894 -766 
L 5069 -766 
L 5069 2484 
L 4606 2484 
L 4606 1722 
Q 4606 28 3963 -853 
Q 3722 -650 3366 -391 
L 2844 -784 
Q 2488 -291 2019 253 
L 2663 697 
Q 2972 366 3388 -122 
Q 3794 547 3794 1741 
L 3794 4778 
Q 5088 5022 5925 5291 
L 6281 4472 
L 4606 4097 
L 4606 3303 
L 6300 3303 
L 6300 2484 
z
" transform="scale(0.015625)"/>
      <path id="MicrosoftYaHei-Bold-9057" d="M 2069 4997 
L 3606 4997 
L 3606 5341 
L 4394 5341 
L 4394 4997 
L 5931 4997 
L 5931 3578 
L 4394 3578 
L 4394 3297 
L 6250 3297 
L 6250 2734 
L 1750 2734 
L 1750 3297 
L 3606 3297 
L 3606 3578 
L 2069 3578 
L 2069 4997 
z
M 5156 4459 
L 4394 4459 
L 4394 4116 
L 5156 4116 
L 5156 4459 
z
M 2844 4116 
L 3606 4116 
L 3606 4459 
L 2844 4459 
L 2844 4116 
z
M 938 5322 
Q 1475 4672 1806 4178 
Q 1400 3922 1069 3691 
Q 669 4359 263 4878 
L 938 5322 
z
M 3588 1784 
L 4400 1784 
Q 4388 1500 4306 1259 
Q 5416 878 6106 591 
L 5753 38 
L 6300 47 
L 5994 -753 
L 3772 -728 
L 2447 -703 
Q 2153 -694 1789 -562 
Q 1425 -431 1138 -103 
L 456 -884 
L 100 78 
Q 356 306 694 594 
L 694 2309 
L 138 2309 
L 138 3134 
L 1475 3134 
L 1475 572 
Q 1709 247 2178 119 
Q 2053 372 1875 697 
Q 2772 759 3181 1001 
Q 3591 1244 3588 1784 
z
M 2503 56 
Q 2856 22 3963 22 
Q 4613 22 5525 34 
Q 4838 356 3975 713 
Q 3594 284 2503 56 
z
M 2875 1009 
L 2088 1009 
L 2088 2453 
L 5906 2453 
L 5906 1009 
L 5119 1009 
L 5119 1922 
L 2875 1922 
L 2875 1009 
z
" transform="scale(0.015625)"/>
      <path id="MicrosoftYaHei-Bold-5fd8" d="M 2544 5153 
L 3556 5359 
Q 3650 5116 3838 4566 
L 6269 4566 
L 6269 3778 
L 1825 3778 
L 1825 2853 
L 5750 2853 
L 5750 2066 
L 3241 2066 
Q 3616 1716 4081 1247 
L 3438 684 
Q 3050 1128 2563 1659 
L 3041 2066 
L 900 2066 
L 900 3778 
L 125 3778 
L 125 4566 
L 2766 4566 
Q 2647 4906 2544 5153 
z
M 5581 1734 
Q 5894 1159 6350 234 
L 5575 -128 
Q 5144 834 4838 1391 
L 5581 1734 
z
M 688 1666 
L 1475 1378 
Q 1144 416 844 -297 
L 75 59 
Q 431 822 688 1666 
z
M 4294 966 
Q 4806 728 5156 591 
Q 4944 -375 4642 -558 
Q 4341 -741 3950 -741 
L 2488 -741 
Q 1550 -741 1550 184 
L 1550 1541 
L 2375 1541 
L 2375 397 
Q 2375 9 2781 9 
L 3656 9 
Q 3972 9 4089 137 
Q 4206 266 4294 966 
z
" transform="scale(0.015625)"/>
      <path id="MicrosoftYaHei-Bold-66f2" d="M 413 -822 
L 413 4466 
L 1988 4466 
L 1988 5328 
L 2825 5328 
L 2825 4466 
L 3575 4466 
L 3575 5328 
L 4413 5328 
L 4413 4466 
L 5988 4466 
L 5988 -822 
L 5163 -822 
L 5163 -428 
L 1238 -428 
L 1238 -822 
L 413 -822 
z
M 5163 3647 
L 4413 3647 
L 4413 2453 
L 5163 2453 
L 5163 3647 
z
M 1238 2453 
L 1988 2453 
L 1988 3647 
L 1238 3647 
L 1238 2453 
z
M 2825 2453 
L 3575 2453 
L 3575 3647 
L 2825 3647 
L 2825 2453 
z
M 1238 391 
L 1988 391 
L 1988 1634 
L 1238 1634 
L 1238 391 
z
M 4413 391 
L 5163 391 
L 5163 1634 
L 4413 1634 
L 4413 391 
z
M 2825 391 
L 3575 391 
L 3575 1634 
L 2825 1634 
L 2825 391 
z
" transform="scale(0.015625)"/>
      <path id="MicrosoftYaHei-Bold-7ebf" d="M 225 -528 
L 63 347 
Q 1188 491 2369 678 
Q 2353 481 2350 256 
Q 3069 481 3691 806 
Q 3550 1250 3466 1859 
L 2413 1734 
L 2306 2491 
L 3384 2619 
L 3347 3244 
L 2525 3159 
L 2488 3494 
Q 1859 2456 1356 1778 
Q 1919 1859 2294 1928 
Q 2263 1672 2231 1147 
Q 888 972 431 847 
L 200 1547 
Q 597 1922 1075 2641 
Q 738 2613 294 2566 
L 63 3278 
Q 581 3916 1194 5322 
L 1988 5009 
Q 1438 4034 1000 3353 
Q 1234 3356 1531 3372 
Q 1700 3663 1881 3991 
L 2466 3716 
L 2444 3922 
L 3303 4006 
L 3250 5303 
L 4094 5303 
Q 4103 4669 4128 4088 
L 5219 4194 
Q 4844 4469 4350 4778 
L 4756 5316 
Q 5263 5041 5769 4716 
L 5388 4213 
L 5988 4272 
L 6063 3522 
L 4169 3328 
L 4216 2716 
L 6156 2947 
L 6238 2197 
L 5484 2106 
L 6038 1666 
Q 5431 1003 4731 509 
Q 4991 100 5203 100 
Q 5316 100 5387 251 
Q 5459 403 5581 1047 
Q 6013 822 6313 684 
Q 6072 -288 5839 -564 
Q 5606 -841 5300 -841 
Q 4503 -841 4006 56 
Q 3259 -353 2419 -597 
Q 2325 -400 2200 -178 
Q 1084 -353 225 -528 
z
M 5413 2097 
L 4309 1963 
Q 4369 1603 4447 1266 
Q 4972 1638 5413 2097 
z
" transform="scale(0.015625)"/>
      <path id="MicrosoftYaHei-Bold-20" transform="scale(0.015625)"/>
      <path id="MicrosoftYaHei-Bold-b7" d="M 1406 2959 
Q 1769 2959 2028 2700 
Q 2288 2441 2288 2078 
Q 2288 1713 2028 1455 
Q 1769 1197 1406 1197 
Q 1041 1197 783 1455 
Q 525 1713 525 2078 
Q 525 2441 783 2700 
Q 1041 2959 1406 2959 
z
" transform="scale(0.015625)"/>
      <path id="MicrosoftYaHei-Bold-51b2" d="M 3563 -809 
L 3563 1234 
L 2769 1234 
L 2769 853 
L 1913 853 
L 1913 4222 
L 3563 4222 
L 3563 5291 
L 4425 5291 
L 4425 4222 
L 6075 4222 
L 6075 866 
L 5219 866 
L 5219 1234 
L 4425 1234 
L 4425 -809 
L 3563 -809 
z
M 5219 3447 
L 4425 3447 
L 4425 2009 
L 5219 2009 
L 5219 3447 
z
M 2769 2009 
L 3563 2009 
L 3563 3447 
L 2769 3447 
L 2769 2009 
z
M 663 5003 
Q 1113 4559 1769 3791 
L 1100 3172 
Q 600 3834 50 4441 
L 663 5003 
z
M 1031 2484 
Q 1431 2241 1825 2041 
Q 1525 1253 775 -584 
Q 444 -309 19 -47 
Q 481 947 1031 2484 
z
" transform="scale(0.015625)"/>
      <path id="MicrosoftYaHei-Bold-523a" d="M 375 3584 
L 1588 3584 
L 1588 4034 
L 200 4034 
L 200 4772 
L 1588 4772 
L 1588 5328 
L 2350 5328 
L 2350 4772 
L 3788 4772 
L 3788 4034 
L 2350 4034 
L 2350 3584 
L 3688 3584 
L 3688 2166 
Q 3688 1903 3581 1742 
Q 3475 1581 3289 1529 
Q 3103 1478 2569 1478 
Q 2513 1891 2431 2259 
Q 2603 2241 2694 2241 
Q 2938 2241 2938 2441 
L 2938 2884 
L 2350 2884 
L 2350 972 
L 2625 1341 
Q 3206 1028 3888 616 
L 3425 -47 
Q 2844 353 2350 675 
L 2350 -822 
L 1588 -822 
L 1588 938 
Q 1141 138 419 -522 
Q 269 -84 75 359 
Q 1088 1106 1588 2194 
L 1588 2884 
L 1131 2884 
L 1131 1484 
L 375 1484 
L 375 3584 
z
M 5213 5322 
L 6025 5322 
L 6025 103 
Q 6025 -275 5856 -492 
Q 5688 -709 5406 -759 
Q 5125 -809 4281 -809 
Q 4200 -322 4119 72 
Q 4538 41 4863 41 
Q 5213 41 5213 397 
L 5213 5322 
z
M 4056 4834 
L 4819 4834 
L 4819 653 
L 4056 653 
L 4056 4834 
z
" transform="scale(0.015625)"/>
      <path id="MicrosoftYaHei-Bold-671f" d="M 3444 3997 
L 3088 3997 
L 3088 1334 
L 3444 1334 
L 3444 597 
L 2500 597 
Q 2850 253 3191 -131 
Q 3638 484 3638 2191 
L 3638 5059 
L 5994 5059 
L 5994 -72 
Q 5994 -391 5845 -561 
Q 5697 -731 5423 -757 
Q 5150 -784 4581 -784 
Q 4525 -466 4394 47 
Q 4738 22 4938 22 
Q 5219 22 5219 309 
L 5219 1109 
L 4375 1109 
Q 4313 -47 3775 -878 
Q 3516 -678 3172 -459 
L 2719 -803 
Q 2319 -291 1900 172 
L 2469 597 
L 1094 597 
L 1656 172 
Q 1194 -403 719 -872 
Q 406 -572 131 -341 
Q 597 84 969 597 
L 106 597 
L 106 1334 
L 588 1334 
L 588 3997 
L 188 3997 
L 188 4734 
L 588 4734 
L 588 5253 
L 1350 5253 
L 1350 4734 
L 2306 4734 
L 2306 5253 
L 3088 5253 
L 3088 4734 
L 3444 4734 
L 3444 3997 
z
M 5219 4259 
L 4413 4259 
L 4413 3403 
L 5219 3403 
L 5219 4259 
z
M 1350 3572 
L 2306 3572 
L 2306 3997 
L 1350 3997 
L 1350 3572 
z
M 1350 2472 
L 2306 2472 
L 2306 2897 
L 1350 2897 
L 1350 2472 
z
M 4409 1853 
L 5219 1853 
L 5219 2659 
L 4413 2659 
L 4409 1853 
z
M 1350 1334 
L 2306 1334 
L 2306 1797 
L 1350 1797 
L 1350 1334 
z
" transform="scale(0.015625)"/>
      <path id="MicrosoftYaHei-Bold-8282" d="M 125 4666 
L 1638 4666 
L 1638 5309 
L 2563 5309 
L 2563 4666 
L 3850 4666 
L 3850 5309 
L 4775 5309 
L 4775 4666 
L 6263 4666 
L 6263 3853 
L 4775 3853 
L 4775 3328 
L 3850 3328 
L 3850 3853 
L 2563 3853 
L 2563 3328 
L 1638 3328 
L 1638 3853 
L 125 3853 
L 125 4666 
z
M 3363 -128 
Q 3294 272 3156 803 
Q 3806 747 4213 747 
Q 4456 747 4590 853 
Q 4725 959 4751 1154 
Q 4778 1350 4794 2159 
L 2775 2159 
L 2775 -859 
L 1800 -859 
L 1800 2159 
L 419 2159 
L 419 2972 
L 5788 2972 
Q 5728 1291 5692 905 
Q 5656 519 5484 281 
Q 5313 44 5023 -45 
Q 4734 -134 3363 -128 
z
" transform="scale(0.015625)"/>
      <path id="MicrosoftYaHei-Bold-594f" d="M 963 1016 
L 2738 1016 
Q 2775 1184 2788 1397 
L 1906 1397 
L 1906 1672 
Q 1338 1191 556 809 
Q 300 1253 88 1516 
Q 913 1872 1469 2366 
L 150 2366 
L 150 2991 
L 2019 2991 
Q 2119 3134 2206 3309 
L 625 3309 
L 625 3941 
L 2450 3941 
Q 2500 4091 2538 4259 
L 400 4259 
L 400 4884 
L 2663 4884 
Q 2700 5097 2725 5334 
L 3575 5334 
Q 3544 5097 3506 4884 
L 5994 4884 
L 5994 4259 
L 3388 4259 
Q 3350 4091 3313 3941 
L 5781 3941 
L 5781 3309 
L 3100 3309 
Q 3044 3166 2963 2991 
L 6244 2991 
L 6244 2366 
L 4738 2366 
Q 5381 1809 6319 1634 
Q 6106 1291 5881 884 
Q 5063 1172 4481 1691 
L 4481 1397 
L 3600 1397 
Q 3581 1191 3556 1016 
L 5513 1016 
L 5513 422 
L 3569 422 
Q 4731 134 5800 -209 
L 5469 -884 
Q 4131 -397 3063 -91 
Q 2381 -678 781 -891 
Q 619 -478 444 -134 
Q 2000 -41 2444 422 
L 963 422 
L 963 1016 
z
M 3881 2366 
L 2575 2366 
Q 2413 2159 2219 1966 
L 4206 1966 
Q 4031 2153 3881 2366 
z
" transform="scale(0.015625)"/>
     </defs>
     <use xlink:href="#MicrosoftYaHei-Bold-827e"/>
     <use xlink:href="#MicrosoftYaHei-Bold-5bbe" transform="translate(100 0)"/>
     <use xlink:href="#MicrosoftYaHei-Bold-6d69" transform="translate(200 0)"/>
     <use xlink:href="#MicrosoftYaHei-Bold-65af" transform="translate(300 0)"/>
     <use xlink:href="#MicrosoftYaHei-Bold-9057" transform="translate(400 0)"/>
     <use xlink:href="#MicrosoftYaHei-Bold-5fd8" transform="translate(500 0)"/>
     <use xlink:href="#MicrosoftYaHei-Bold-66f2" transform="translate(600 0)"/>
     <use xlink:href="#MicrosoftYaHei-Bold-7ebf" transform="translate(700 0)"/>
     <use xlink:href="#MicrosoftYaHei-Bold-20" transform="translate(800 0)"/>
     <use xlink:href="#MicrosoftYaHei-Bold-b7" transform="translate(829.785156 0)"/>
     <use xlink:href="#MicrosoftYaHei-Bold-20" transform="translate(873.730469 0)"/>
     <use xlink:href="#MicrosoftYaHei-Bold-51b2" transform="translate(903.515625 0)"/>
     <use xlink:href="#MicrosoftYaHei-Bold-523a" transform="translate(1003.515625 0)"/>
     <use xlink:href="#MicrosoftYaHei-Bold-671f" transform="translate(1103.515625 0)"/>
     <use xlink:href="#MicrosoftYaHei-Bold-590d" transform="translate(1203.515625 0)"/>
     <use xlink:href="#MicrosoftYaHei-Bold-4e60" transform="translate(1303.515625 0)"/>
     <use xlink:href="#MicrosoftYaHei-Bold-8282" transform="translate(1403.515625 0)"/>
     <use xlink:href="#MicrosoftYaHei-Bold-594f" transform="translate(1503.515625 0)"/>
    </g>
   </g>
   <g id="PathCollection_1">
    <defs>
     <path id="m8f0cd22f00" d="M 0 -3.872983 
L -0.869539 -1.196818 
L -3.683426 -1.196818 
L -1.406944 0.457144 
L -2.276482 3.133309 
L -0 1.479348 
L 2.276482 3.133309 
L 1.406944 0.457144 
L 3.683426 -1.196818 
L 0.869539 -1.196818 
z
" style="stroke: #e8a060"/>
    </defs>
    <g clip-path="url(#pc731545fa0)">
     <use xlink:href="#m8f0cd22f00" x="71.760009" y="37.082183" style="fill: #e8a060; stroke: #e8a060"/>
     <use xlink:href="#m8f0cd22f00" x="82.744858" y="61.717654" style="fill: #e8a060; stroke: #e8a060"/>
     <use xlink:href="#m8f0cd22f00" x="104.714555" y="98.401121" style="fill: #e8a060; stroke: #e8a060"/>
     <use xlink:href="#m8f0cd22f00" x="137.6691" y="132.053668" style="fill: #e8a060; stroke: #e8a060"/>
     <use xlink:href="#m8f0cd22f00" x="225.547888" y="164.723173" style="fill: #e8a060; stroke: #e8a060"/>
     <use xlink:href="#m8f0cd22f00" x="390.320616" y="172.576128" style="fill: #e8a060; stroke: #e8a060"/>
    </g>
   </g>
   <g id="legend_1">
    <g id="patch_5">
     <path d="M 332.190313 58.655312 
L 405.990313 58.655312 
Q 407.790313 58.655312 407.790313 56.855312 
L 407.790313 29.891875 
Q 407.790313 28.091875 405.990313 28.091875 
L 332.190313 28.091875 
Q 330.390312 28.091875 330.390312 29.891875 
L 330.390312 56.855312 
Q 330.390312 58.655312 332.190313 58.655312 
z
" style="fill: #ffffff; opacity: 0.8; stroke: #cccccc; stroke-linejoin: miter"/>
    </g>
    <g id="line2d_28">
     <path d="M 333.990313 35.73625 
L 342.990313 35.73625 
L 351.990313 35.73625 
" style="fill: none; stroke: #c46565; stroke-width: 2.5; stroke-linecap: square"/>
     <g>
      <use xlink:href="#m8cb33c7de3" x="342.990313" y="35.73625" style="fill: #c46565; stroke: #c46565"/>
     </g>
    </g>
    <g id="text_23">
     <!-- 自然遗忘 -->
     <g transform="translate(359.190313 38.88625) scale(0.09 -0.09)">
      <defs>
       <path id="MicrosoftYaHei-81ea" d="M 775 4466 
L 2391 4466 
Q 2525 4828 2688 5328 
L 3219 5166 
Q 3059 4778 2909 4466 
L 5625 4466 
L 5625 -822 
L 5125 -822 
L 5125 -447 
L 1275 -447 
L 1275 -822 
L 775 -822 
L 775 4466 
z
M 1275 3 
L 5125 3 
L 5125 1053 
L 1275 1053 
L 1275 3 
z
M 1275 1497 
L 5125 1497 
L 5125 2534 
L 1275 2534 
L 1275 1497 
z
M 5125 4016 
L 1275 4016 
L 1275 2978 
L 5125 2978 
L 5125 4016 
z
" transform="scale(0.015625)"/>
       <path id="MicrosoftYaHei-7136" d="M 31 2834 
Q 956 3959 1400 5341 
L 1869 5184 
Q 1775 4934 1675 4697 
L 3163 4697 
L 3163 4241 
Q 2731 1866 556 666 
Q 419 828 206 1041 
Q 1063 1497 1606 2097 
Q 1200 2409 806 2678 
L 1025 3003 
Q 1463 2734 1881 2428 
Q 2056 2672 2181 2897 
Q 1781 3191 1331 3447 
L 1538 3784 
Q 1981 3547 2375 3284 
Q 2581 3753 2669 4247 
L 1469 4247 
Q 1000 3309 375 2478 
Q 231 2641 31 2834 
z
M 3175 3841 
L 4181 3841 
Q 4200 4466 4200 5278 
L 4675 5278 
Q 4675 4434 4656 3841 
L 6213 3841 
L 6213 3391 
L 4725 3391 
Q 5081 1934 6356 1297 
Q 6156 1078 5969 866 
Q 4875 1522 4469 2841 
Q 4131 1634 2719 797 
Q 2594 984 2406 1209 
Q 3931 2053 4144 3391 
L 3175 3391 
L 3175 3841 
z
M 5044 609 
L 5444 847 
Q 5919 141 6250 -422 
L 5806 -684 
Q 5481 -109 5044 609 
z
M 919 716 
L 1369 553 
Q 1131 -28 694 -816 
Q 481 -716 244 -622 
Q 706 153 919 716 
z
M 1956 447 
L 2369 634 
Q 2663 97 2963 -528 
L 2500 -728 
Q 2275 -172 1956 447 
z
M 3519 491 
L 3931 672 
Q 4256 122 4538 -472 
L 4088 -666 
Q 3813 -41 3519 491 
z
M 4950 4891 
L 5244 5172 
Q 5681 4784 6056 4447 
L 5725 4122 
Q 5394 4478 4950 4891 
z
" transform="scale(0.015625)"/>
       <path id="MicrosoftYaHei-9057" d="M 1713 3091 
L 3806 3091 
L 3806 3547 
L 2669 3547 
L 2669 3341 
L 2244 3341 
L 2244 4791 
L 3806 4791 
L 3806 5278 
L 4244 5278 
L 4244 4791 
L 5806 4791 
L 5806 3347 
L 5381 3347 
L 5381 3547 
L 4244 3547 
L 4244 3091 
L 6275 3091 
L 6275 2716 
L 1713 2716 
L 1713 3091 
z
M 2644 -228 
Q 4063 -259 6294 -203 
Q 6225 -409 6119 -697 
Q 3819 -703 2594 -672 
Q 1513 -666 1075 72 
Q 756 -241 325 -778 
L 69 -259 
Q 519 184 894 534 
L 894 2628 
L 131 2628 
L 131 3066 
L 1344 3066 
L 1344 422 
Q 1719 -216 2644 -228 
z
M 2244 2341 
L 5744 2341 
L 5744 841 
L 5306 841 
L 5306 1972 
L 2681 1972 
L 2681 841 
L 2244 841 
L 2244 2341 
z
M 3781 1828 
L 4231 1828 
Q 4231 1422 4144 1172 
Q 5119 734 5925 303 
L 5638 -91 
Q 4913 353 3963 784 
Q 3625 209 2200 -72 
Q 2075 147 1944 328 
Q 3238 522 3588 984 
Q 3781 1272 3781 1828 
z
M 856 5178 
Q 1269 4653 1731 3997 
L 1288 3684 
Q 825 4416 456 4909 
L 856 5178 
z
M 5381 4422 
L 4244 4422 
L 4244 3916 
L 5381 3916 
L 5381 4422 
z
M 2669 3916 
L 3806 3916 
L 3806 4422 
L 2669 4422 
L 2669 3916 
z
" transform="scale(0.015625)"/>
       <path id="MicrosoftYaHei-5fd8" d="M 150 4428 
L 3159 4428 
Q 2981 4784 2738 5134 
L 3181 5359 
Q 3456 4959 3669 4584 
L 3378 4428 
L 6263 4428 
L 6263 3978 
L 1569 3978 
L 1569 2553 
L 5744 2553 
L 5744 2103 
L 1056 2103 
L 1056 3978 
L 150 3978 
L 150 4428 
z
M 1650 1478 
L 2138 1478 
L 2138 272 
Q 2138 -228 2556 -228 
L 3919 -228 
Q 4400 -228 4481 209 
Q 4544 522 4575 872 
Q 4831 753 5056 684 
Q 4981 284 4900 -28 
Q 4750 -666 4069 -666 
L 2463 -666 
Q 1650 -666 1650 184 
L 1650 1478 
z
M 719 1622 
L 1219 1453 
Q 900 478 550 -253 
Q 256 -103 88 -47 
Q 456 734 719 1622 
z
M 4881 1303 
L 5244 1578 
Q 5819 928 6325 297 
L 5906 -34 
Q 5438 622 4881 1303 
z
M 2713 1772 
L 3094 2041 
Q 3569 1484 3956 991 
L 3538 678 
Q 3219 1134 2713 1772 
z
" transform="scale(0.015625)"/>
      </defs>
      <use xlink:href="#MicrosoftYaHei-81ea"/>
      <use xlink:href="#MicrosoftYaHei-7136" transform="translate(100 0)"/>
      <use xlink:href="#MicrosoftYaHei-9057" transform="translate(200 0)"/>
      <use xlink:href="#MicrosoftYaHei-5fd8" transform="translate(300 0)"/>
     </g>
    </g>
    <g id="PathCollection_2">
     <g>
      <use xlink:href="#m8f0cd22f00" x="342.990313" y="50.455469" style="fill: #e8a060; stroke: #e8a060"/>
     </g>
    </g>
    <g id="text_24">
     <!-- 最佳复习点 -->
     <g transform="translate(359.190313 52.817969) scale(0.09 -0.09)">
      <defs>
       <path id="MicrosoftYaHei-6700" d="M 169 -28 
Q 475 3 781 38 
L 781 2416 
L 94 2416 
L 94 2791 
L 6288 2791 
L 6288 2416 
L 3025 2416 
L 3025 331 
Q 3325 375 3625 422 
Q 3619 309 3631 22 
Q 3338 -19 3025 -63 
L 3025 -859 
L 2600 -859 
L 2600 -125 
Q 1525 -278 281 -472 
L 169 -28 
z
M 1038 5053 
L 5363 5053 
L 5363 3047 
L 4925 3047 
L 4925 3191 
L 1475 3191 
L 1475 3047 
L 1038 3047 
L 1038 5053 
z
M 3338 1609 
L 3338 1972 
L 5819 1972 
L 5819 1609 
Q 5500 844 4981 278 
Q 5516 -113 6306 -316 
Q 6144 -553 6025 -753 
Q 5219 -488 4666 -34 
Q 4128 -516 3413 -822 
Q 3306 -634 3125 -428 
Q 3834 -156 4347 266 
Q 3825 825 3603 1609 
L 3338 1609 
z
M 1475 3553 
L 4925 3553 
L 4925 3953 
L 1475 3953 
L 1475 3553 
z
M 4925 4691 
L 1475 4691 
L 1475 4291 
L 4925 4291 
L 4925 4691 
z
M 5344 1609 
L 4025 1609 
Q 4222 994 4659 556 
Q 5094 1013 5344 1609 
z
M 2600 269 
L 2600 691 
L 1206 691 
L 1206 88 
Q 1913 172 2600 269 
z
M 1206 1916 
L 2600 1916 
L 2600 2416 
L 1206 2416 
L 1206 1916 
z
M 1206 1053 
L 2600 1053 
L 2600 1553 
L 1206 1553 
L 1206 1053 
z
" transform="scale(0.015625)"/>
       <path id="MicrosoftYaHei-4f73" d="M 1925 -122 
L 3875 -122 
L 3875 966 
L 2175 966 
L 2175 1416 
L 3875 1416 
L 3875 2253 
L 4363 2253 
L 4363 1416 
L 6063 1416 
L 6063 966 
L 4363 966 
L 4363 -122 
L 6313 -122 
L 6313 -572 
L 1925 -572 
L 1925 -122 
z
M 1975 2872 
L 3863 2872 
L 3863 3841 
L 2213 3841 
L 2213 4291 
L 3863 4291 
L 3863 5259 
L 4350 5259 
L 4350 4291 
L 6000 4291 
L 6000 3841 
L 4350 3841 
L 4350 2872 
L 6238 2872 
L 6238 2422 
L 1975 2422 
L 1975 2872 
z
M 88 2309 
Q 1025 3716 1500 5334 
L 2000 5184 
Q 1763 4434 1450 3744 
L 1450 -822 
L 963 -822 
L 963 2791 
Q 659 2256 306 1766 
Q 213 2059 88 2309 
z
" transform="scale(0.015625)"/>
       <path id="MicrosoftYaHei-590d" d="M 81 3559 
Q 975 4259 1563 5347 
L 2113 5347 
Q 1963 5084 1803 4841 
L 6200 4841 
L 6200 4441 
L 1525 4441 
Q 1356 4209 1175 3997 
L 5575 3997 
L 5575 1697 
L 5138 1697 
L 5138 1859 
L 1463 1859 
L 1463 1634 
L 1031 1634 
L 1031 3828 
Q 716 3475 369 3166 
Q 263 3347 81 3559 
z
M 81 291 
Q 1231 853 1931 1709 
L 2488 1709 
Q 2350 1534 2206 1372 
L 5588 1372 
L 5588 1034 
Q 4981 494 4038 69 
Q 5016 -188 6319 -284 
Q 6150 -566 6025 -797 
Q 4503 -584 3416 -175 
Q 2303 -563 725 -872 
Q 606 -666 438 -447 
Q 1988 -191 2856 59 
Q 2153 397 1678 838 
Q 1084 303 388 -53 
Q 250 128 81 291 
z
M 1463 2247 
L 5138 2247 
L 5138 2747 
L 1463 2747 
L 1463 2247 
z
M 5138 3609 
L 1463 3609 
L 1463 3116 
L 5138 3116 
L 5138 3609 
z
M 4869 1009 
L 2025 1009 
Q 2572 553 3428 253 
Q 4297 591 4869 1009 
z
" transform="scale(0.015625)"/>
       <path id="MicrosoftYaHei-4e60" d="M 500 4803 
L 5725 4803 
Q 5663 1853 5606 784 
Q 5550 -616 4181 -616 
Q 3644 -616 3013 -591 
Q 2988 -347 2913 -9 
Q 3713 -66 4113 -66 
Q 4631 -72 4850 153 
Q 5056 378 5081 916 
Q 5144 2416 5169 4291 
L 500 4291 
L 500 4803 
z
M 363 834 
Q 2856 1591 4688 2253 
Q 4669 1834 4688 1709 
Q 2513 978 556 297 
L 363 834 
z
M 1131 3372 
L 1400 3778 
Q 2713 3203 3563 2766 
L 3275 2291 
Q 2069 2947 1131 3372 
z
" transform="scale(0.015625)"/>
       <path id="MicrosoftYaHei-70b9" d="M 900 3378 
L 2863 3378 
L 2863 5341 
L 3388 5341 
L 3388 4591 
L 6181 4591 
L 6181 4141 
L 3388 4141 
L 3388 3378 
L 5600 3378 
L 5600 991 
L 5088 991 
L 5088 1253 
L 1413 1253 
L 1413 991 
L 900 991 
L 900 3378 
z
M 5088 2928 
L 1413 2928 
L 1413 1703 
L 5088 1703 
L 5088 2928 
z
M 5425 847 
Q 5925 91 6225 -516 
L 5750 -772 
Q 5438 -134 4994 622 
L 5425 847 
z
M 1369 553 
Q 894 -303 531 -791 
L 100 -484 
Q 506 53 931 803 
L 1369 553 
z
M 2413 828 
Q 2700 197 2913 -503 
L 2406 -678 
Q 2213 3 1963 666 
L 2413 828 
z
M 3906 872 
Q 4206 253 4450 -422 
L 3956 -616 
Q 3781 -53 3450 697 
L 3906 872 
z
" transform="scale(0.015625)"/>
      </defs>
      <use xlink:href="#MicrosoftYaHei-6700"/>
      <use xlink:href="#MicrosoftYaHei-4f73" transform="translate(100 0)"/>
      <use xlink:href="#MicrosoftYaHei-590d" transform="translate(200 0)"/>
      <use xlink:href="#MicrosoftYaHei-4e60" transform="translate(300 0)"/>
      <use xlink:href="#MicrosoftYaHei-70b9" transform="translate(400 0)"/>
     </g>
    </g>
   </g>
  </g>
 </g>
 <defs>
  <clipPath id="pc731545fa0">
   <rect x="49.790313" y="23.591875" width="362.5" height="174.295"/>
  </clipPath>
 </defs>
</svg>
