<?xml version="1.0" encoding="utf-8" standalone="no"?>
<!DOCTYPE svg PUBLIC "-//W3C//DTD SVG 1.1//EN"
  "http://www.w3.org/Graphics/SVG/1.1/DTD/svg11.dtd">
<svg xmlns:xlink="http://www.w3.org/1999/xlink" width="426.8025pt" height="236.16pt" viewBox="0 0 426.8025 236.16" xmlns="http://www.w3.org/2000/svg" version="1.1">
 <metadata>
  <rdf:RDF xmlns:dc="http://purl.org/dc/elements/1.1/" xmlns:cc="http://creativecommons.org/ns#" xmlns:rdf="http://www.w3.org/1999/02/22-rdf-syntax-ns#">
   <cc:Work>
    <dc:type rdf:resource="http://purl.org/dc/dcmitype/StillImage"/>
    <dc:date>2026-05-25T22:47:16.586302</dc:date>
    <dc:format>image/svg+xml</dc:format>
    <dc:creator>
     <cc:Agent>
      <dc:title>Matplotlib v3.10.9, https://matplotlib.org/</dc:title>
     </cc:Agent>
    </dc:creator>
   </cc:Work>
  </rdf:RDF>
 </metadata>
 <defs>
  <style type="text/css">*{stroke-linejoin: round; stroke-linecap: butt}</style>
 </defs>
 <g id="figure_1">
  <g id="patch_1">
   <path d="M 0 236.16 
L 426.8025 236.16 
L 426.8025 0 
L 0 0 
z
" style="fill: #ffffff"/>
  </g>
  <g id="axes_1">
   <g id="text_1">
    <g id="patch_2">
     <path d="M 146.359766 40.266688 
L 277.478984 40.266688 
Q 281.378984 40.266688 281.378984 36.366688 
L 281.378984 22.680125 
Q 281.378984 18.780125 277.478984 18.780125 
L 146.359766 18.780125 
Q 142.459766 18.780125 142.459766 22.680125 
L 142.459766 36.366688 
Q 142.459766 40.266688 146.359766 40.266688 
z
" style="fill: #e8e8e8; stroke: #888888; stroke-linejoin: miter"/>
    </g>
    <!-- Triangles (by Angle) -->
    <g style="fill: #2c3e50" transform="translate(146.359766 33.072) scale(0.13 -0.13)">
     <defs>
      <path id="MicrosoftYaHei-Bold-54" d="M 3900 3997 
L 2519 3997 
L 2519 0 
L 1484 0 
L 1484 3997 
L 106 3997 
L 106 4841 
L 3900 4841 
L 3900 3997 
z
" transform="scale(0.015625)"/>
      <path id="MicrosoftYaHei-Bold-72" d="M 2663 2541 
Q 2478 2647 2216 2647 
Q 1872 2647 1670 2384 
Q 1469 2122 1469 1663 
L 1469 0 
L 459 0 
L 459 3456 
L 1469 3456 
L 1469 2806 
L 1481 2806 
Q 1731 3516 2391 3516 
Q 2569 3516 2663 3475 
L 2663 2541 
z
" transform="scale(0.015625)"/>
      <path id="MicrosoftYaHei-Bold-69" d="M 369 4572 
Q 369 4803 533 4948 
Q 697 5094 953 5094 
Q 1216 5094 1378 4945 
Q 1541 4797 1541 4572 
Q 1541 4344 1375 4192 
Q 1209 4041 953 4041 
Q 700 4041 534 4194 
Q 369 4347 369 4572 
z
M 444 0 
L 444 3456 
L 1450 3456 
L 1450 0 
L 444 0 
z
" transform="scale(0.015625)"/>
      <path id="MicrosoftYaHei-Bold-61" d="M 544 3247 
Q 778 3378 1170 3459 
Q 1563 3541 1841 3541 
Q 3291 3541 3291 2088 
L 3291 0 
L 2331 0 
L 2331 503 
L 2319 503 
Q 1966 -84 1284 -84 
Q 794 -84 498 195 
Q 203 475 203 956 
Q 203 1950 1388 2113 
L 2338 2241 
Q 2338 2844 1709 2844 
Q 1091 2844 544 2469 
L 544 3247 
z
M 1684 1566 
Q 1138 1494 1138 1072 
Q 1138 878 1270 759 
Q 1403 641 1628 641 
Q 1938 641 2138 859 
Q 2338 1078 2338 1403 
L 2338 1650 
L 1684 1566 
z
" transform="scale(0.015625)"/>
      <path id="MicrosoftYaHei-Bold-6e" d="M 3744 0 
L 2741 0 
L 2741 1928 
Q 2741 2766 2138 2766 
Q 1850 2766 1659 2542 
Q 1469 2319 1469 1972 
L 1469 0 
L 459 0 
L 459 3456 
L 1469 3456 
L 1469 2906 
L 1481 2906 
Q 1859 3541 2594 3541 
Q 3744 3541 3744 2116 
L 3744 0 
z
" transform="scale(0.015625)"/>
      <path id="MicrosoftYaHei-Bold-67" d="M 3800 381 
Q 3800 -581 3251 -1101 
Q 2703 -1622 1672 -1622 
Q 972 -1622 559 -1422 
L 559 -559 
Q 1097 -872 1644 -872 
Q 2184 -872 2489 -583 
Q 2794 -294 2794 219 
L 2794 506 
L 2778 506 
Q 2413 -84 1691 -84 
Q 1038 -84 645 381 
Q 253 847 253 1628 
Q 253 2500 686 3020 
Q 1119 3541 1822 3541 
Q 2459 3541 2778 3044 
L 2794 3044 
L 2794 3456 
L 3800 3456 
L 3800 381 
z
M 2803 1950 
Q 2803 2294 2595 2530 
Q 2388 2766 2072 2766 
Q 1703 2766 1489 2477 
Q 1275 2188 1275 1666 
Q 1275 1213 1481 952 
Q 1688 691 2028 691 
Q 2372 691 2587 956 
Q 2803 1222 2803 1647 
L 2803 1950 
z
" transform="scale(0.015625)"/>
      <path id="MicrosoftYaHei-Bold-6c" d="M 444 0 
L 444 5116 
L 1450 5116 
L 1450 0 
L 444 0 
z
" transform="scale(0.015625)"/>
      <path id="MicrosoftYaHei-Bold-65" d="M 3528 1444 
L 1253 1444 
Q 1306 641 2222 641 
Q 2794 641 3231 922 
L 3231 181 
Q 2759 -84 1994 -84 
Q 1169 -84 711 381 
Q 253 847 253 1678 
Q 253 2506 740 3023 
Q 1228 3541 1966 3541 
Q 2700 3541 3114 3095 
Q 3528 2650 3528 1872 
L 3528 1444 
z
M 2588 2075 
Q 2588 2850 1959 2850 
Q 1700 2850 1500 2637 
Q 1300 2425 1250 2075 
L 2588 2075 
z
" transform="scale(0.015625)"/>
      <path id="MicrosoftYaHei-Bold-73" d="M 369 928 
Q 888 613 1384 613 
Q 2009 613 2009 947 
Q 2009 1184 1494 1344 
Q 850 1544 609 1789 
Q 369 2034 369 2453 
Q 369 2963 781 3252 
Q 1194 3541 1863 3541 
Q 2338 3541 2778 3400 
L 2778 2606 
Q 2375 2844 1891 2844 
Q 1650 2844 1503 2758 
Q 1356 2672 1356 2531 
Q 1356 2294 1794 2147 
Q 2263 1991 2498 1862 
Q 2734 1734 2857 1525 
Q 2981 1316 2981 1041 
Q 2981 506 2553 211 
Q 2125 -84 1409 -84 
Q 847 -84 369 94 
L 369 928 
z
" transform="scale(0.015625)"/>
      <path id="MicrosoftYaHei-Bold-20" transform="scale(0.015625)"/>
      <path id="MicrosoftYaHei-Bold-28" d="M 1606 -1100 
Q 525 97 525 1853 
Q 525 3550 1606 4841 
L 2431 4841 
Q 1406 3497 1406 1853 
Q 1406 216 2438 -1100 
L 1606 -1100 
z
" transform="scale(0.015625)"/>
      <path id="MicrosoftYaHei-Bold-62" d="M 1469 416 
L 1469 0 
L 459 0 
L 459 5116 
L 1469 5116 
L 1469 2928 
L 1481 2928 
Q 1878 3541 2613 3541 
Q 3266 3541 3636 3084 
Q 4006 2628 4006 1825 
Q 4006 966 3581 441 
Q 3156 -84 2453 -84 
Q 1809 -84 1481 416 
L 1469 416 
z
M 1453 1494 
Q 1453 1153 1656 922 
Q 1859 691 2172 691 
Q 2550 691 2761 984 
Q 2972 1278 2972 1816 
Q 2972 2263 2780 2514 
Q 2588 2766 2231 2766 
Q 1894 2766 1673 2512 
Q 1453 2259 1453 1863 
L 1453 1494 
z
" transform="scale(0.015625)"/>
      <path id="MicrosoftYaHei-Bold-79" d="M 3691 3456 
L 2266 -309 
Q 1769 -1622 778 -1622 
Q 388 -1622 172 -1541 
L 172 -731 
Q 375 -847 619 -847 
Q 1031 -847 1200 -447 
L 1391 6 
L -6 3456 
L 1113 3456 
L 1788 1291 
Q 1850 1094 1878 850 
L 1897 850 
Q 1919 1016 2000 1284 
L 2691 3456 
L 3691 3456 
z
" transform="scale(0.015625)"/>
      <path id="MicrosoftYaHei-Bold-41" d="M 4759 0 
L 3634 0 
L 3272 1109 
L 1513 1109 
L 1156 0 
L 38 0 
L 1809 4841 
L 3022 4841 
L 4759 0 
z
M 3028 1906 
L 2478 3584 
Q 2425 3744 2403 4006 
L 2375 4006 
Q 2356 3794 2291 3597 
L 1738 1906 
L 3028 1906 
z
" transform="scale(0.015625)"/>
      <path id="MicrosoftYaHei-Bold-29" d="M 59 -1100 
Q 1097 216 1097 1853 
Q 1097 3484 59 4841 
L 888 4841 
Q 1978 3544 1978 1853 
Q 1978 113 881 -1100 
L 59 -1100 
z
" transform="scale(0.015625)"/>
     </defs>
     <use xlink:href="#MicrosoftYaHei-Bold-54"/>
     <use xlink:href="#MicrosoftYaHei-Bold-72" transform="translate(54.298828 0)"/>
     <use xlink:href="#MicrosoftYaHei-Bold-69" transform="translate(97.056641 0)"/>
     <use xlink:href="#MicrosoftYaHei-Bold-61" transform="translate(126.646484 0)"/>
     <use xlink:href="#MicrosoftYaHei-Bold-6e" transform="translate(184.410156 0)"/>
     <use xlink:href="#MicrosoftYaHei-Bold-67" transform="translate(249.205078 0)"/>
     <use xlink:href="#MicrosoftYaHei-Bold-6c" transform="translate(315.660156 0)"/>
     <use xlink:href="#MicrosoftYaHei-Bold-65" transform="translate(345.25 0)"/>
     <use xlink:href="#MicrosoftYaHei-Bold-73" transform="translate(403.453125 0)"/>
     <use xlink:href="#MicrosoftYaHei-Bold-20" transform="translate(452.818359 0)"/>
     <use xlink:href="#MicrosoftYaHei-Bold-28" transform="translate(482.603516 0)"/>
     <use xlink:href="#MicrosoftYaHei-Bold-62" transform="translate(521.568359 0)"/>
     <use xlink:href="#MicrosoftYaHei-Bold-79" transform="translate(588.169922 0)"/>
     <use xlink:href="#MicrosoftYaHei-Bold-20" transform="translate(645.591797 0)"/>
     <use xlink:href="#MicrosoftYaHei-Bold-41" transform="translate(675.376953 0)"/>
     <use xlink:href="#MicrosoftYaHei-Bold-6e" transform="translate(750.572266 0)"/>
     <use xlink:href="#MicrosoftYaHei-Bold-67" transform="translate(815.367188 0)"/>
     <use xlink:href="#MicrosoftYaHei-Bold-6c" transform="translate(881.822266 0)"/>
     <use xlink:href="#MicrosoftYaHei-Bold-65" transform="translate(911.412109 0)"/>
     <use xlink:href="#MicrosoftYaHei-Bold-29" transform="translate(969.615234 0)"/>
    </g>
   </g>
   <g id="patch_3">
    <path d="M 209.956124 51.92354 
Q 153.330509 62.639785 98.352698 73.044188 
" style="fill: none; stroke: #555555; stroke-width: 1.5; stroke-linecap: round"/>
    <path d="M 102.654831 74.265521 
L 98.352698 73.044188 
L 101.911044 70.335281 
" style="fill: none; stroke: #555555; stroke-width: 1.5; stroke-linecap: round"/>
   </g>
   <g id="patch_4">
    <path d="M 213.882626 51.92354 
Q 270.508241 62.639785 325.486052 73.044188 
" style="fill: none; stroke: #555555; stroke-width: 1.5; stroke-linecap: round"/>
    <path d="M 321.927706 70.335281 
L 325.486052 73.044188 
L 321.183919 74.265521 
" style="fill: none; stroke: #555555; stroke-width: 1.5; stroke-linecap: round"/>
   </g>
   <g id="text_2">
    <g id="patch_5">
     <path d="M 59.173906 93.492937 
L 130.304844 93.492937 
Q 133.004844 93.492937 133.004844 90.792937 
L 133.004844 70.403437 
Q 133.004844 67.703437 130.304844 67.703437 
L 59.173906 67.703437 
Q 56.473906 67.703437 56.473906 70.403437 
L 56.473906 90.792937 
Q 56.473906 93.492937 59.173906 93.492937 
z
" style="fill: #e6f7e6; stroke: #27ae60; stroke-linejoin: miter"/>
    </g>
    <!-- Acute Triangle -->
    <g style="fill: #27ae60" transform="translate(62.158672 77.597813) scale(0.09 -0.09)">
     <defs>
      <path id="MicrosoftYaHei-Bold-63" d="M 3050 128 
Q 2688 -84 2019 -84 
Q 1228 -84 740 397 
Q 253 878 253 1644 
Q 253 2525 778 3033 
Q 1303 3541 2178 3541 
Q 2769 3541 3053 3378 
L 3053 2513 
Q 2706 2766 2297 2766 
Q 1834 2766 1554 2484 
Q 1275 2203 1275 1713 
Q 1275 1238 1540 964 
Q 1806 691 2263 691 
Q 2666 691 3050 947 
L 3050 128 
z
" transform="scale(0.015625)"/>
      <path id="MicrosoftYaHei-Bold-75" d="M 3691 0 
L 2688 0 
L 2688 528 
L 2672 528 
Q 2284 -84 1613 -84 
Q 406 -84 406 1372 
L 406 3456 
L 1416 3456 
L 1416 1466 
Q 1416 691 2022 691 
Q 2325 691 2506 903 
Q 2688 1116 2688 1478 
L 2688 3456 
L 3691 3456 
L 3691 0 
z
" transform="scale(0.015625)"/>
      <path id="MicrosoftYaHei-Bold-74" d="M 2494 41 
Q 2266 -84 1803 -84 
Q 703 -84 703 1072 
L 703 2703 
L 134 2703 
L 134 3456 
L 703 3456 
L 703 4216 
L 1706 4503 
L 1706 3456 
L 2494 3456 
L 2494 2703 
L 1706 2703 
L 1706 1247 
Q 1706 694 2144 694 
Q 2313 694 2494 794 
L 2494 41 
z
" transform="scale(0.015625)"/>
     </defs>
     <use xlink:href="#MicrosoftYaHei-Bold-41"/>
     <use xlink:href="#MicrosoftYaHei-Bold-63" transform="translate(75.195312 0)"/>
     <use xlink:href="#MicrosoftYaHei-Bold-75" transform="translate(126.855469 0)"/>
     <use xlink:href="#MicrosoftYaHei-Bold-74" transform="translate(191.650391 0)"/>
     <use xlink:href="#MicrosoftYaHei-Bold-65" transform="translate(232.556641 0)"/>
     <use xlink:href="#MicrosoftYaHei-Bold-20" transform="translate(290.759766 0)"/>
     <use xlink:href="#MicrosoftYaHei-Bold-54" transform="translate(320.544922 0)"/>
     <use xlink:href="#MicrosoftYaHei-Bold-72" transform="translate(374.84375 0)"/>
     <use xlink:href="#MicrosoftYaHei-Bold-69" transform="translate(417.601562 0)"/>
     <use xlink:href="#MicrosoftYaHei-Bold-61" transform="translate(447.191406 0)"/>
     <use xlink:href="#MicrosoftYaHei-Bold-6e" transform="translate(504.955078 0)"/>
     <use xlink:href="#MicrosoftYaHei-Bold-67" transform="translate(569.75 0)"/>
     <use xlink:href="#MicrosoftYaHei-Bold-6c" transform="translate(636.205078 0)"/>
     <use xlink:href="#MicrosoftYaHei-Bold-65" transform="translate(665.794922 0)"/>
    </g>
    <!-- All angles &lt; 90° -->
    <g style="fill: #27ae60" transform="translate(59.173906 88.512) scale(0.09 -0.09)">
     <defs>
      <path id="MicrosoftYaHei-Bold-3c" d="M 4000 238 
L 878 1678 
L 878 2184 
L 4000 3706 
L 4000 2938 
L 1763 1947 
L 1763 1928 
L 4000 1006 
L 4000 238 
z
" transform="scale(0.015625)"/>
      <path id="MicrosoftYaHei-Bold-39" d="M 544 941 
Q 931 691 1456 691 
Q 2628 691 2653 2216 
L 2634 2222 
Q 2316 1731 1650 1731 
Q 1047 1731 658 2154 
Q 269 2578 269 3222 
Q 269 3978 737 4450 
Q 1206 4922 1959 4922 
Q 2744 4922 3191 4325 
Q 3638 3728 3638 2659 
Q 3638 1391 3098 653 
Q 2559 -84 1547 -84 
Q 975 -84 544 100 
L 544 941 
z
M 1259 3313 
Q 1259 2928 1445 2709 
Q 1631 2491 1953 2491 
Q 2241 2491 2427 2700 
Q 2613 2909 2613 3219 
Q 2613 3591 2427 3869 
Q 2241 4147 1928 4147 
Q 1625 4147 1442 3906 
Q 1259 3666 1259 3313 
z
" transform="scale(0.015625)"/>
      <path id="MicrosoftYaHei-Bold-30" d="M 244 2341 
Q 244 3597 706 4259 
Q 1169 4922 2044 4922 
Q 3713 4922 3713 2453 
Q 3713 1238 3259 577 
Q 2806 -84 1950 -84 
Q 244 -84 244 2341 
z
M 1266 2366 
Q 1266 691 1981 691 
Q 2684 691 2684 2416 
Q 2684 4147 2000 4147 
Q 1266 4147 1266 2366 
z
" transform="scale(0.015625)"/>
      <path id="MicrosoftYaHei-Bold-b0" d="M 1344 4922 
Q 1744 4922 2023 4642 
Q 2303 4363 2303 3975 
Q 2303 3591 2020 3308 
Q 1738 3025 1344 3025 
Q 953 3025 670 3303 
Q 388 3581 388 3975 
Q 388 4369 669 4645 
Q 950 4922 1344 4922 
z
M 1344 3525 
Q 1528 3525 1659 3656 
Q 1791 3788 1791 3975 
Q 1791 4163 1658 4294 
Q 1525 4425 1344 4425 
Q 1166 4425 1033 4294 
Q 900 4163 900 3975 
Q 900 3791 1029 3658 
Q 1159 3525 1344 3525 
z
" transform="scale(0.015625)"/>
     </defs>
     <use xlink:href="#MicrosoftYaHei-Bold-41"/>
     <use xlink:href="#MicrosoftYaHei-Bold-6c" transform="translate(75.195312 0)"/>
     <use xlink:href="#MicrosoftYaHei-Bold-6c" transform="translate(104.785156 0)"/>
     <use xlink:href="#MicrosoftYaHei-Bold-20" transform="translate(134.375 0)"/>
     <use xlink:href="#MicrosoftYaHei-Bold-61" transform="translate(164.160156 0)"/>
     <use xlink:href="#MicrosoftYaHei-Bold-6e" transform="translate(221.923828 0)"/>
     <use xlink:href="#MicrosoftYaHei-Bold-67" transform="translate(286.71875 0)"/>
     <use xlink:href="#MicrosoftYaHei-Bold-6c" transform="translate(353.173828 0)"/>
     <use xlink:href="#MicrosoftYaHei-Bold-65" transform="translate(382.763672 0)"/>
     <use xlink:href="#MicrosoftYaHei-Bold-73" transform="translate(440.966797 0)"/>
     <use xlink:href="#MicrosoftYaHei-Bold-20" transform="translate(490.332031 0)"/>
     <use xlink:href="#MicrosoftYaHei-Bold-3c" transform="translate(520.117188 0)"/>
     <use xlink:href="#MicrosoftYaHei-Bold-20" transform="translate(596.240234 0)"/>
     <use xlink:href="#MicrosoftYaHei-Bold-39" transform="translate(626.025391 0)"/>
     <use xlink:href="#MicrosoftYaHei-Bold-30" transform="translate(687.695312 0)"/>
     <use xlink:href="#MicrosoftYaHei-Bold-b0" transform="translate(749.365234 0)"/>
    </g>
   </g>
   <g id="text_3">
    <g id="patch_6">
     <path d="M 292.584688 93.492937 
L 365.614063 93.492937 
Q 368.314063 93.492937 368.314063 90.792937 
L 368.314063 70.403437 
Q 368.314063 67.703437 365.614063 67.703437 
L 292.584688 67.703437 
Q 289.884688 67.703437 289.884688 70.403437 
L 289.884688 90.792937 
Q 289.884688 93.492937 292.584688 93.492937 
z
" style="fill: #fde8e8; stroke: #e74c3c; stroke-linejoin: miter"/>
    </g>
    <!-- Obtuse Triangle -->
    <g style="fill: #e74c3c" transform="translate(293.303281 77.597813) scale(0.09 -0.09)">
     <defs>
      <path id="MicrosoftYaHei-Bold-4f" d="M 256 2356 
Q 256 3494 920 4208 
Q 1584 4922 2675 4922 
Q 3713 4922 4345 4231 
Q 4978 3541 4978 2456 
Q 4978 1325 4320 620 
Q 3663 -84 2597 -84 
Q 1556 -84 906 598 
Q 256 1281 256 2356 
z
M 1341 2413 
Q 1341 1706 1681 1257 
Q 2022 809 2616 809 
Q 3222 809 3559 1239 
Q 3897 1669 3897 2394 
Q 3897 3150 3569 3589 
Q 3241 4028 2644 4028 
Q 2038 4028 1689 3578 
Q 1341 3128 1341 2413 
z
" transform="scale(0.015625)"/>
     </defs>
     <use xlink:href="#MicrosoftYaHei-Bold-4f"/>
     <use xlink:href="#MicrosoftYaHei-Bold-62" transform="translate(81.835938 0)"/>
     <use xlink:href="#MicrosoftYaHei-Bold-74" transform="translate(148.4375 0)"/>
     <use xlink:href="#MicrosoftYaHei-Bold-75" transform="translate(189.84375 0)"/>
     <use xlink:href="#MicrosoftYaHei-Bold-73" transform="translate(254.638672 0)"/>
     <use xlink:href="#MicrosoftYaHei-Bold-65" transform="translate(304.003906 0)"/>
     <use xlink:href="#MicrosoftYaHei-Bold-20" transform="translate(362.207031 0)"/>
     <use xlink:href="#MicrosoftYaHei-Bold-54" transform="translate(391.992188 0)"/>
     <use xlink:href="#MicrosoftYaHei-Bold-72" transform="translate(446.291016 0)"/>
     <use xlink:href="#MicrosoftYaHei-Bold-69" transform="translate(489.048828 0)"/>
     <use xlink:href="#MicrosoftYaHei-Bold-61" transform="translate(518.638672 0)"/>
     <use xlink:href="#MicrosoftYaHei-Bold-6e" transform="translate(576.402344 0)"/>
     <use xlink:href="#MicrosoftYaHei-Bold-67" transform="translate(641.197266 0)"/>
     <use xlink:href="#MicrosoftYaHei-Bold-6c" transform="translate(707.652344 0)"/>
     <use xlink:href="#MicrosoftYaHei-Bold-65" transform="translate(737.242188 0)"/>
    </g>
    <!-- One angle &gt; 90° -->
    <g style="fill: #e74c3c" transform="translate(292.584688 88.512) scale(0.09 -0.09)">
     <defs>
      <path id="MicrosoftYaHei-Bold-3e" d="M 4000 1716 
L 878 275 
L 878 1041 
L 3122 1959 
L 3122 1975 
L 878 2969 
L 878 3738 
L 4000 2222 
L 4000 1716 
z
" transform="scale(0.015625)"/>
     </defs>
     <use xlink:href="#MicrosoftYaHei-Bold-4f"/>
     <use xlink:href="#MicrosoftYaHei-Bold-6e" transform="translate(81.835938 0)"/>
     <use xlink:href="#MicrosoftYaHei-Bold-65" transform="translate(146.630859 0)"/>
     <use xlink:href="#MicrosoftYaHei-Bold-20" transform="translate(204.833984 0)"/>
     <use xlink:href="#MicrosoftYaHei-Bold-61" transform="translate(234.619141 0)"/>
     <use xlink:href="#MicrosoftYaHei-Bold-6e" transform="translate(292.382812 0)"/>
     <use xlink:href="#MicrosoftYaHei-Bold-67" transform="translate(357.177734 0)"/>
     <use xlink:href="#MicrosoftYaHei-Bold-6c" transform="translate(423.632812 0)"/>
     <use xlink:href="#MicrosoftYaHei-Bold-65" transform="translate(453.222656 0)"/>
     <use xlink:href="#MicrosoftYaHei-Bold-20" transform="translate(511.425781 0)"/>
     <use xlink:href="#MicrosoftYaHei-Bold-3e" transform="translate(541.210938 0)"/>
     <use xlink:href="#MicrosoftYaHei-Bold-20" transform="translate(617.333984 0)"/>
     <use xlink:href="#MicrosoftYaHei-Bold-39" transform="translate(647.119141 0)"/>
     <use xlink:href="#MicrosoftYaHei-Bold-30" transform="translate(708.789062 0)"/>
     <use xlink:href="#MicrosoftYaHei-Bold-b0" transform="translate(770.458984 0)"/>
    </g>
   </g>
   <g id="patch_7">
    <path d="M 211.919375 53.552496 
Q 211.919375 62.637876 211.919375 70.046205 
" style="fill: none; stroke: #555555; stroke-width: 1.5; stroke-linecap: round"/>
    <path d="M 213.919375 66.046205 
L 211.919375 70.046205 
L 209.919375 66.046205 
" style="fill: none; stroke: #555555; stroke-width: 1.5; stroke-linecap: round"/>
   </g>
   <g id="text_4">
    <g id="patch_8">
     <path d="M 175.404687 93.492937 
L 248.434062 93.492937 
Q 251.134062 93.492937 251.134062 90.792937 
L 251.134062 70.403437 
Q 251.134062 67.703437 248.434062 67.703437 
L 175.404687 67.703437 
Q 172.704688 67.703437 172.704688 70.403437 
L 172.704688 90.792937 
Q 172.704688 93.492937 175.404687 93.492937 
z
" style="fill: #e3f2fd; stroke: #2980b9; stroke-linejoin: miter"/>
    </g>
    <!-- Right Triangle -->
    <g style="fill: #2980b9" transform="translate(180.190859 77.597813) scale(0.09 -0.09)">
     <defs>
      <path id="MicrosoftYaHei-Bold-52" d="M 4553 0 
L 3366 0 
L 2606 1259 
Q 2372 1650 2222 1762 
Q 2072 1875 1903 1875 
L 1591 1875 
L 1591 0 
L 559 0 
L 559 4841 
L 2256 4841 
Q 3984 4841 3984 3528 
Q 3984 3034 3695 2681 
Q 3406 2328 2900 2184 
L 2900 2172 
Q 3234 2059 3641 1434 
L 4553 0 
z
M 1591 4056 
L 1591 2663 
L 2097 2663 
Q 2459 2663 2679 2873 
Q 2900 3084 2900 3400 
Q 2900 4056 2116 4056 
L 1591 4056 
z
" transform="scale(0.015625)"/>
      <path id="MicrosoftYaHei-Bold-68" d="M 3725 0 
L 2719 0 
L 2719 1969 
Q 2719 2766 2138 2766 
Q 1847 2766 1658 2544 
Q 1469 2322 1469 1969 
L 1469 0 
L 459 0 
L 459 5116 
L 1469 5116 
L 1469 2938 
L 1481 2938 
Q 1878 3541 2550 3541 
Q 3725 3541 3725 2122 
L 3725 0 
z
" transform="scale(0.015625)"/>
     </defs>
     <use xlink:href="#MicrosoftYaHei-Bold-52"/>
     <use xlink:href="#MicrosoftYaHei-Bold-69" transform="translate(69.824219 0)"/>
     <use xlink:href="#MicrosoftYaHei-Bold-67" transform="translate(99.414062 0)"/>
     <use xlink:href="#MicrosoftYaHei-Bold-68" transform="translate(165.869141 0)"/>
     <use xlink:href="#MicrosoftYaHei-Bold-74" transform="translate(230.419922 0)"/>
     <use xlink:href="#MicrosoftYaHei-Bold-20" transform="translate(271.826172 0)"/>
     <use xlink:href="#MicrosoftYaHei-Bold-54" transform="translate(301.611328 0)"/>
     <use xlink:href="#MicrosoftYaHei-Bold-72" transform="translate(355.910156 0)"/>
     <use xlink:href="#MicrosoftYaHei-Bold-69" transform="translate(398.667969 0)"/>
     <use xlink:href="#MicrosoftYaHei-Bold-61" transform="translate(428.257812 0)"/>
     <use xlink:href="#MicrosoftYaHei-Bold-6e" transform="translate(486.021484 0)"/>
     <use xlink:href="#MicrosoftYaHei-Bold-67" transform="translate(550.816406 0)"/>
     <use xlink:href="#MicrosoftYaHei-Bold-6c" transform="translate(617.271484 0)"/>
     <use xlink:href="#MicrosoftYaHei-Bold-65" transform="translate(646.861328 0)"/>
    </g>
    <!-- One angle = 90° -->
    <g style="fill: #2980b9" transform="translate(175.404687 88.512) scale(0.09 -0.09)">
     <defs>
      <path id="MicrosoftYaHei-Bold-3d" d="M 4072 2378 
L 797 2378 
L 797 3041 
L 4072 3041 
L 4072 2378 
z
M 4072 916 
L 797 916 
L 797 1578 
L 4072 1578 
L 4072 916 
z
" transform="scale(0.015625)"/>
     </defs>
     <use xlink:href="#MicrosoftYaHei-Bold-4f"/>
     <use xlink:href="#MicrosoftYaHei-Bold-6e" transform="translate(81.835938 0)"/>
     <use xlink:href="#MicrosoftYaHei-Bold-65" transform="translate(146.630859 0)"/>
     <use xlink:href="#MicrosoftYaHei-Bold-20" transform="translate(204.833984 0)"/>
     <use xlink:href="#MicrosoftYaHei-Bold-61" transform="translate(234.619141 0)"/>
     <use xlink:href="#MicrosoftYaHei-Bold-6e" transform="translate(292.382812 0)"/>
     <use xlink:href="#MicrosoftYaHei-Bold-67" transform="translate(357.177734 0)"/>
     <use xlink:href="#MicrosoftYaHei-Bold-6c" transform="translate(423.632812 0)"/>
     <use xlink:href="#MicrosoftYaHei-Bold-65" transform="translate(453.222656 0)"/>
     <use xlink:href="#MicrosoftYaHei-Bold-20" transform="translate(511.425781 0)"/>
     <use xlink:href="#MicrosoftYaHei-Bold-3d" transform="translate(541.210938 0)"/>
     <use xlink:href="#MicrosoftYaHei-Bold-20" transform="translate(617.333984 0)"/>
     <use xlink:href="#MicrosoftYaHei-Bold-39" transform="translate(647.119141 0)"/>
     <use xlink:href="#MicrosoftYaHei-Bold-30" transform="translate(708.789062 0)"/>
     <use xlink:href="#MicrosoftYaHei-Bold-b0" transform="translate(770.458984 0)"/>
    </g>
   </g>
   <g id="patch_9">
    <path d="M 93.047903 104.363021 
Q 65.444269 121.776067 38.786241 138.592601 
" style="fill: none; stroke: #cccccc; stroke-linecap: round"/>
    <path d="M 43.236422 138.150008 
L 38.786241 138.592601 
L 41.102275 134.7669 
" style="fill: none; stroke: #cccccc; stroke-linecap: round"/>
   </g>
   <g id="text_5">
    <g id="patch_10">
     <path d="M 7.2 158.6675 
L 65.09875 158.6675 
Q 66.69875 158.6675 66.69875 157.0675 
L 66.69875 129.35825 
Q 66.69875 127.75825 65.09875 127.75825 
L 7.2 127.75825 
Q 5.6 127.75825 5.6 129.35825 
L 5.6 157.0675 
Q 5.6 158.6675 7.2 158.6675 
z
" style="fill: #fff3e0; opacity: 0.9; stroke: #e67e22; stroke-linejoin: miter"/>
    </g>
    <!-- Equilateral -->
    <g style="fill: #e67e22" transform="translate(14.78 135.7145) scale(0.08 -0.08)">
     <defs>
      <path id="MicrosoftYaHei-Bold-45" d="M 3425 0 
L 559 0 
L 559 4841 
L 3313 4841 
L 3313 3997 
L 1591 3997 
L 1591 2856 
L 3191 2856 
L 3191 2016 
L 1591 2016 
L 1591 844 
L 3425 844 
L 3425 0 
z
" transform="scale(0.015625)"/>
      <path id="MicrosoftYaHei-Bold-71" d="M 3794 -1591 
L 2788 -1591 
L 2788 488 
L 2772 488 
Q 2409 -84 1697 -84 
Q 1044 -84 648 370 
Q 253 825 253 1644 
Q 253 2509 689 3025 
Q 1125 3541 1825 3541 
Q 2466 3541 2772 3044 
L 2788 3044 
L 2788 3456 
L 3794 3456 
L 3794 -1591 
z
M 2803 1944 
Q 2803 2288 2597 2527 
Q 2391 2766 2072 2766 
Q 1709 2766 1492 2478 
Q 1275 2191 1275 1672 
Q 1275 1206 1484 948 
Q 1694 691 2022 691 
Q 2375 691 2589 955 
Q 2803 1219 2803 1641 
L 2803 1944 
z
" transform="scale(0.015625)"/>
     </defs>
     <use xlink:href="#MicrosoftYaHei-Bold-45"/>
     <use xlink:href="#MicrosoftYaHei-Bold-71" transform="translate(57.177734 0)"/>
     <use xlink:href="#MicrosoftYaHei-Bold-75" transform="translate(123.632812 0)"/>
     <use xlink:href="#MicrosoftYaHei-Bold-69" transform="translate(188.427734 0)"/>
     <use xlink:href="#MicrosoftYaHei-Bold-6c" transform="translate(218.017578 0)"/>
     <use xlink:href="#MicrosoftYaHei-Bold-61" transform="translate(247.607422 0)"/>
     <use xlink:href="#MicrosoftYaHei-Bold-74" transform="translate(305.371094 0)"/>
     <use xlink:href="#MicrosoftYaHei-Bold-65" transform="translate(346.277344 0)"/>
     <use xlink:href="#MicrosoftYaHei-Bold-72" transform="translate(404.480469 0)"/>
     <use xlink:href="#MicrosoftYaHei-Bold-61" transform="translate(446.863281 0)"/>
     <use xlink:href="#MicrosoftYaHei-Bold-6c" transform="translate(504.626953 0)"/>
    </g>
    <!-- All sides equal -->
    <g style="fill: #e67e22" transform="translate(7.2 145.37725) scale(0.08 -0.08)">
     <defs>
      <path id="MicrosoftYaHei-Bold-64" d="M 3794 0 
L 2788 0 
L 2788 488 
L 2772 488 
Q 2406 -84 1691 -84 
Q 1031 -84 642 381 
Q 253 847 253 1650 
Q 253 2500 689 3020 
Q 1125 3541 1828 3541 
Q 2503 3541 2772 3053 
L 2788 3053 
L 2788 5116 
L 3794 5116 
L 3794 0 
z
M 2803 1956 
Q 2803 2306 2592 2536 
Q 2381 2766 2066 2766 
Q 1697 2766 1486 2473 
Q 1275 2181 1275 1681 
Q 1275 1206 1478 948 
Q 1681 691 2038 691 
Q 2372 691 2587 962 
Q 2803 1234 2803 1669 
L 2803 1956 
z
" transform="scale(0.015625)"/>
     </defs>
     <use xlink:href="#MicrosoftYaHei-Bold-41"/>
     <use xlink:href="#MicrosoftYaHei-Bold-6c" transform="translate(75.195312 0)"/>
     <use xlink:href="#MicrosoftYaHei-Bold-6c" transform="translate(104.785156 0)"/>
     <use xlink:href="#MicrosoftYaHei-Bold-20" transform="translate(134.375 0)"/>
     <use xlink:href="#MicrosoftYaHei-Bold-73" transform="translate(164.160156 0)"/>
     <use xlink:href="#MicrosoftYaHei-Bold-69" transform="translate(213.525391 0)"/>
     <use xlink:href="#MicrosoftYaHei-Bold-64" transform="translate(243.115234 0)"/>
     <use xlink:href="#MicrosoftYaHei-Bold-65" transform="translate(309.570312 0)"/>
     <use xlink:href="#MicrosoftYaHei-Bold-73" transform="translate(367.773438 0)"/>
     <use xlink:href="#MicrosoftYaHei-Bold-20" transform="translate(417.138672 0)"/>
     <use xlink:href="#MicrosoftYaHei-Bold-65" transform="translate(446.923828 0)"/>
     <use xlink:href="#MicrosoftYaHei-Bold-71" transform="translate(505.126953 0)"/>
     <use xlink:href="#MicrosoftYaHei-Bold-75" transform="translate(571.582031 0)"/>
     <use xlink:href="#MicrosoftYaHei-Bold-61" transform="translate(636.376953 0)"/>
     <use xlink:href="#MicrosoftYaHei-Bold-6c" transform="translate(694.140625 0)"/>
    </g>
    <!-- All angles 60° -->
    <g style="fill: #e67e22" transform="translate(8.771875 155.04) scale(0.08 -0.08)">
     <defs>
      <path id="MicrosoftYaHei-Bold-36" d="M 3378 3938 
Q 3009 4147 2575 4147 
Q 2016 4147 1680 3708 
Q 1344 3269 1344 2572 
L 1363 2572 
Q 1709 3103 2391 3103 
Q 3000 3103 3358 2686 
Q 3716 2269 3716 1600 
Q 3716 869 3250 392 
Q 2784 -84 2059 -84 
Q 1228 -84 786 516 
Q 344 1116 344 2159 
Q 344 3388 917 4155 
Q 1491 4922 2513 4922 
Q 3063 4922 3378 4791 
L 3378 3938 
z
M 1378 1591 
Q 1378 1216 1565 953 
Q 1753 691 2059 691 
Q 2369 691 2547 931 
Q 2725 1172 2725 1534 
Q 2725 2350 2053 2350 
Q 1750 2350 1564 2134 
Q 1378 1919 1378 1591 
z
" transform="scale(0.015625)"/>
     </defs>
     <use xlink:href="#MicrosoftYaHei-Bold-41"/>
     <use xlink:href="#MicrosoftYaHei-Bold-6c" transform="translate(75.195312 0)"/>
     <use xlink:href="#MicrosoftYaHei-Bold-6c" transform="translate(104.785156 0)"/>
     <use xlink:href="#MicrosoftYaHei-Bold-20" transform="translate(134.375 0)"/>
     <use xlink:href="#MicrosoftYaHei-Bold-61" transform="translate(164.160156 0)"/>
     <use xlink:href="#MicrosoftYaHei-Bold-6e" transform="translate(221.923828 0)"/>
     <use xlink:href="#MicrosoftYaHei-Bold-67" transform="translate(286.71875 0)"/>
     <use xlink:href="#MicrosoftYaHei-Bold-6c" transform="translate(353.173828 0)"/>
     <use xlink:href="#MicrosoftYaHei-Bold-65" transform="translate(382.763672 0)"/>
     <use xlink:href="#MicrosoftYaHei-Bold-73" transform="translate(440.966797 0)"/>
     <use xlink:href="#MicrosoftYaHei-Bold-20" transform="translate(490.332031 0)"/>
     <use xlink:href="#MicrosoftYaHei-Bold-36" transform="translate(520.117188 0)"/>
     <use xlink:href="#MicrosoftYaHei-Bold-30" transform="translate(581.787109 0)"/>
     <use xlink:href="#MicrosoftYaHei-Bold-b0" transform="translate(643.457031 0)"/>
    </g>
   </g>
   <g id="patch_11">
    <path d="M 96.430847 104.363021 
Q 124.034481 121.776067 150.692509 138.592601 
" style="fill: none; stroke: #cccccc; stroke-linecap: round"/>
    <path d="M 148.376475 134.7669 
L 150.692509 138.592601 
L 146.242328 138.150008 
" style="fill: none; stroke: #cccccc; stroke-linecap: round"/>
   </g>
   <g id="text_6">
    <g id="patch_12">
     <path d="M 117.48 158.6675 
L 189.17875 158.6675 
Q 190.77875 158.6675 190.77875 157.0675 
L 190.77875 129.35825 
Q 190.77875 127.75825 189.17875 127.75825 
L 117.48 127.75825 
Q 115.88 127.75825 115.88 129.35825 
L 115.88 157.0675 
Q 115.88 158.6675 117.48 158.6675 
z
" style="fill: #f3e8ff; opacity: 0.9; stroke: #9b59b6; stroke-linejoin: miter"/>
    </g>
    <!-- Isosceles -->
    <g style="fill: #9b59b6" transform="translate(135.529375 135.7145) scale(0.08 -0.08)">
     <defs>
      <path id="MicrosoftYaHei-Bold-49" d="M 1588 4841 
L 1588 0 
L 556 0 
L 556 4841 
L 1588 4841 
z
" transform="scale(0.015625)"/>
      <path id="MicrosoftYaHei-Bold-6f" d="M 253 1713 
Q 253 2566 764 3053 
Q 1275 3541 2138 3541 
Q 2972 3541 3462 3061 
Q 3953 2581 3953 1772 
Q 3953 922 3450 419 
Q 2947 -84 2088 -84 
Q 1244 -84 748 398 
Q 253 881 253 1713 
z
M 1275 1725 
Q 1275 691 2119 691 
Q 2928 691 2928 1753 
Q 2928 2766 2113 2766 
Q 1716 2766 1495 2494 
Q 1275 2222 1275 1725 
z
" transform="scale(0.015625)"/>
     </defs>
     <use xlink:href="#MicrosoftYaHei-Bold-49"/>
     <use xlink:href="#MicrosoftYaHei-Bold-73" transform="translate(33.544922 0)"/>
     <use xlink:href="#MicrosoftYaHei-Bold-6f" transform="translate(82.910156 0)"/>
     <use xlink:href="#MicrosoftYaHei-Bold-73" transform="translate(148.632812 0)"/>
     <use xlink:href="#MicrosoftYaHei-Bold-63" transform="translate(197.998047 0)"/>
     <use xlink:href="#MicrosoftYaHei-Bold-65" transform="translate(249.658203 0)"/>
     <use xlink:href="#MicrosoftYaHei-Bold-6c" transform="translate(307.861328 0)"/>
     <use xlink:href="#MicrosoftYaHei-Bold-65" transform="translate(337.451172 0)"/>
     <use xlink:href="#MicrosoftYaHei-Bold-73" transform="translate(395.654297 0)"/>
    </g>
    <!-- Two sides equal -->
    <g style="fill: #9b59b6" transform="translate(121.43375 145.37725) scale(0.08 -0.08)">
     <defs>
      <path id="MicrosoftYaHei-Bold-77" d="M 5391 3456 
L 4391 0 
L 3331 0 
L 2800 2075 
Q 2747 2284 2744 2503 
L 2722 2503 
Q 2700 2256 2656 2088 
L 2084 0 
L 1038 0 
L 53 3456 
L 1084 3456 
L 1588 1163 
Q 1619 1025 1638 784 
L 1659 784 
Q 1675 1016 1719 1175 
L 2338 3456 
L 3294 3456 
L 3847 1159 
Q 3869 1066 3894 778 
L 3919 778 
Q 3928 944 3972 1159 
L 4453 3456 
L 5391 3456 
z
" transform="scale(0.015625)"/>
     </defs>
     <use xlink:href="#MicrosoftYaHei-Bold-54"/>
     <use xlink:href="#MicrosoftYaHei-Bold-77" transform="translate(57.673828 0)"/>
     <use xlink:href="#MicrosoftYaHei-Bold-6f" transform="translate(142.330078 0)"/>
     <use xlink:href="#MicrosoftYaHei-Bold-20" transform="translate(208.052734 0)"/>
     <use xlink:href="#MicrosoftYaHei-Bold-73" transform="translate(237.837891 0)"/>
     <use xlink:href="#MicrosoftYaHei-Bold-69" transform="translate(287.203125 0)"/>
     <use xlink:href="#MicrosoftYaHei-Bold-64" transform="translate(316.792969 0)"/>
     <use xlink:href="#MicrosoftYaHei-Bold-65" transform="translate(383.248047 0)"/>
     <use xlink:href="#MicrosoftYaHei-Bold-73" transform="translate(441.451172 0)"/>
     <use xlink:href="#MicrosoftYaHei-Bold-20" transform="translate(490.816406 0)"/>
     <use xlink:href="#MicrosoftYaHei-Bold-65" transform="translate(520.601562 0)"/>
     <use xlink:href="#MicrosoftYaHei-Bold-71" transform="translate(578.804688 0)"/>
     <use xlink:href="#MicrosoftYaHei-Bold-75" transform="translate(645.259766 0)"/>
     <use xlink:href="#MicrosoftYaHei-Bold-61" transform="translate(710.054688 0)"/>
     <use xlink:href="#MicrosoftYaHei-Bold-6c" transform="translate(767.818359 0)"/>
    </g>
    <!-- Base angles equal -->
    <g style="fill: #9b59b6" transform="translate(117.48 155.04) scale(0.08 -0.08)">
     <defs>
      <path id="MicrosoftYaHei-Bold-42" d="M 559 0 
L 559 4841 
L 2278 4841 
Q 3069 4841 3497 4541 
Q 3925 4241 3925 3709 
Q 3925 3316 3659 3019 
Q 3394 2722 2991 2609 
L 2991 2597 
Q 3497 2534 3808 2221 
Q 4119 1909 4119 1438 
Q 4119 778 3650 389 
Q 3181 0 2369 0 
L 559 0 
z
M 1591 4072 
L 1591 2875 
L 2081 2875 
Q 2434 2875 2637 3044 
Q 2841 3213 2841 3516 
Q 2841 4072 2028 4072 
L 1591 4072 
z
M 1591 2097 
L 1591 769 
L 2203 769 
Q 2594 769 2814 950 
Q 3034 1131 3034 1453 
Q 3034 1759 2815 1928 
Q 2597 2097 2194 2097 
L 1591 2097 
z
" transform="scale(0.015625)"/>
     </defs>
     <use xlink:href="#MicrosoftYaHei-Bold-42"/>
     <use xlink:href="#MicrosoftYaHei-Bold-61" transform="translate(68.359375 0)"/>
     <use xlink:href="#MicrosoftYaHei-Bold-73" transform="translate(126.123047 0)"/>
     <use xlink:href="#MicrosoftYaHei-Bold-65" transform="translate(175.488281 0)"/>
     <use xlink:href="#MicrosoftYaHei-Bold-20" transform="translate(233.691406 0)"/>
     <use xlink:href="#MicrosoftYaHei-Bold-61" transform="translate(263.476562 0)"/>
     <use xlink:href="#MicrosoftYaHei-Bold-6e" transform="translate(321.240234 0)"/>
     <use xlink:href="#MicrosoftYaHei-Bold-67" transform="translate(386.035156 0)"/>
     <use xlink:href="#MicrosoftYaHei-Bold-6c" transform="translate(452.490234 0)"/>
     <use xlink:href="#MicrosoftYaHei-Bold-65" transform="translate(482.080078 0)"/>
     <use xlink:href="#MicrosoftYaHei-Bold-73" transform="translate(540.283203 0)"/>
     <use xlink:href="#MicrosoftYaHei-Bold-20" transform="translate(589.648438 0)"/>
     <use xlink:href="#MicrosoftYaHei-Bold-65" transform="translate(619.433594 0)"/>
     <use xlink:href="#MicrosoftYaHei-Bold-71" transform="translate(677.636719 0)"/>
     <use xlink:href="#MicrosoftYaHei-Bold-75" transform="translate(744.091797 0)"/>
     <use xlink:href="#MicrosoftYaHei-Bold-61" transform="translate(808.886719 0)"/>
     <use xlink:href="#MicrosoftYaHei-Bold-6c" transform="translate(866.650391 0)"/>
    </g>
   </g>
   <g id="patch_13">
    <path d="M 327.407903 104.363021 
Q 299.804269 121.776067 273.146241 138.592601 
" style="fill: none; stroke: #cccccc; stroke-linecap: round"/>
    <path d="M 277.596422 138.150008 
L 273.146241 138.592601 
L 275.462275 134.7669 
" style="fill: none; stroke: #cccccc; stroke-linecap: round"/>
   </g>
   <g id="text_7">
    <g id="patch_14">
     <path d="M 235.49625 158.62875 
L 305.5225 158.62875 
Q 307.1225 158.62875 307.1225 157.02875 
L 307.1225 138.98225 
Q 307.1225 137.38225 305.5225 137.38225 
L 235.49625 137.38225 
Q 233.89625 137.38225 233.89625 138.98225 
L 233.89625 157.02875 
Q 233.89625 158.62875 235.49625 158.62875 
z
" style="fill: #f3e8ff; opacity: 0.9; stroke: #9b59b6; stroke-linejoin: miter"/>
    </g>
    <!-- Isosceles -->
    <g style="fill: #9b59b6" transform="translate(252.709375 145.37725) scale(0.08 -0.08)">
     <use xlink:href="#MicrosoftYaHei-Bold-49"/>
     <use xlink:href="#MicrosoftYaHei-Bold-73" transform="translate(33.544922 0)"/>
     <use xlink:href="#MicrosoftYaHei-Bold-6f" transform="translate(82.910156 0)"/>
     <use xlink:href="#MicrosoftYaHei-Bold-73" transform="translate(148.632812 0)"/>
     <use xlink:href="#MicrosoftYaHei-Bold-63" transform="translate(197.998047 0)"/>
     <use xlink:href="#MicrosoftYaHei-Bold-65" transform="translate(249.658203 0)"/>
     <use xlink:href="#MicrosoftYaHei-Bold-6c" transform="translate(307.861328 0)"/>
     <use xlink:href="#MicrosoftYaHei-Bold-65" transform="translate(337.451172 0)"/>
     <use xlink:href="#MicrosoftYaHei-Bold-73" transform="translate(395.654297 0)"/>
    </g>
    <!-- (Two sides equal) -->
    <g style="fill: #9b59b6" transform="translate(235.49625 155.04) scale(0.08 -0.08)">
     <use xlink:href="#MicrosoftYaHei-Bold-28"/>
     <use xlink:href="#MicrosoftYaHei-Bold-54" transform="translate(38.964844 0)"/>
     <use xlink:href="#MicrosoftYaHei-Bold-77" transform="translate(96.638672 0)"/>
     <use xlink:href="#MicrosoftYaHei-Bold-6f" transform="translate(181.294922 0)"/>
     <use xlink:href="#MicrosoftYaHei-Bold-20" transform="translate(247.017578 0)"/>
     <use xlink:href="#MicrosoftYaHei-Bold-73" transform="translate(276.802734 0)"/>
     <use xlink:href="#MicrosoftYaHei-Bold-69" transform="translate(326.167969 0)"/>
     <use xlink:href="#MicrosoftYaHei-Bold-64" transform="translate(355.757812 0)"/>
     <use xlink:href="#MicrosoftYaHei-Bold-65" transform="translate(422.212891 0)"/>
     <use xlink:href="#MicrosoftYaHei-Bold-73" transform="translate(480.416016 0)"/>
     <use xlink:href="#MicrosoftYaHei-Bold-20" transform="translate(529.78125 0)"/>
     <use xlink:href="#MicrosoftYaHei-Bold-65" transform="translate(559.566406 0)"/>
     <use xlink:href="#MicrosoftYaHei-Bold-71" transform="translate(617.769531 0)"/>
     <use xlink:href="#MicrosoftYaHei-Bold-75" transform="translate(684.224609 0)"/>
     <use xlink:href="#MicrosoftYaHei-Bold-61" transform="translate(749.019531 0)"/>
     <use xlink:href="#MicrosoftYaHei-Bold-6c" transform="translate(806.783203 0)"/>
     <use xlink:href="#MicrosoftYaHei-Bold-29" transform="translate(836.373047 0)"/>
    </g>
   </g>
   <g id="patch_15">
    <path d="M 330.790847 104.363021 
Q 358.394481 121.776067 385.052509 138.592601 
" style="fill: none; stroke: #cccccc; stroke-linecap: round"/>
    <path d="M 382.736475 134.7669 
L 385.052509 138.592601 
L 380.602328 138.150008 
" style="fill: none; stroke: #cccccc; stroke-linecap: round"/>
   </g>
   <g id="text_8">
    <g id="patch_16">
     <path d="M 355.77625 158.6675 
L 419.6025 158.6675 
Q 421.2025 158.6675 421.2025 157.0675 
L 421.2025 129.23675 
Q 421.2025 127.63675 419.6025 127.63675 
L 355.77625 127.63675 
Q 354.17625 127.63675 354.17625 129.23675 
L 354.17625 157.0675 
Q 354.17625 158.6675 355.77625 158.6675 
z
" style="fill: #fde8e8; opacity: 0.9; stroke: #e74c3c; stroke-linejoin: miter"/>
    </g>
    <!-- Scalene -->
    <g style="fill: #e74c3c" transform="translate(372.474375 135.593) scale(0.08 -0.08)">
     <defs>
      <path id="MicrosoftYaHei-Bold-53" d="M 338 1219 
Q 922 734 1666 734 
Q 2088 734 2300 879 
Q 2513 1025 2513 1253 
Q 2513 1450 2344 1625 
Q 2175 1800 1453 2100 
Q 319 2581 319 3500 
Q 319 4175 833 4548 
Q 1347 4922 2194 4922 
Q 2903 4922 3384 4738 
L 3384 3769 
Q 2897 4100 2244 4100 
Q 1863 4100 1634 3961 
Q 1406 3822 1406 3588 
Q 1406 3400 1562 3242 
Q 1719 3084 2334 2816 
Q 3056 2506 3326 2162 
Q 3597 1819 3597 1344 
Q 3597 647 3103 281 
Q 2609 -84 1700 -84 
Q 869 -84 338 184 
L 338 1219 
z
" transform="scale(0.015625)"/>
     </defs>
     <use xlink:href="#MicrosoftYaHei-Bold-53"/>
     <use xlink:href="#MicrosoftYaHei-Bold-63" transform="translate(60.15625 0)"/>
     <use xlink:href="#MicrosoftYaHei-Bold-61" transform="translate(111.816406 0)"/>
     <use xlink:href="#MicrosoftYaHei-Bold-6c" transform="translate(169.580078 0)"/>
     <use xlink:href="#MicrosoftYaHei-Bold-65" transform="translate(199.169922 0)"/>
     <use xlink:href="#MicrosoftYaHei-Bold-6e" transform="translate(257.373047 0)"/>
     <use xlink:href="#MicrosoftYaHei-Bold-65" transform="translate(322.167969 0)"/>
    </g>
    <!-- No sides equal -->
    <g style="fill: #e74c3c" transform="translate(358.094375 145.25575) scale(0.08 -0.08)">
     <defs>
      <path id="MicrosoftYaHei-Bold-4e" d="M 4863 0 
L 3806 0 
L 1756 3131 
Q 1597 3375 1525 3525 
L 1509 3525 
Q 1538 3275 1538 2753 
L 1538 0 
L 559 0 
L 559 4841 
L 1684 4841 
L 3659 1797 
Q 3856 1494 3900 1413 
L 3916 1413 
Q 3884 1588 3884 2081 
L 3884 4841 
L 4863 4841 
L 4863 0 
z
" transform="scale(0.015625)"/>
     </defs>
     <use xlink:href="#MicrosoftYaHei-Bold-4e"/>
     <use xlink:href="#MicrosoftYaHei-Bold-6f" transform="translate(84.814453 0)"/>
     <use xlink:href="#MicrosoftYaHei-Bold-20" transform="translate(150.537109 0)"/>
     <use xlink:href="#MicrosoftYaHei-Bold-73" transform="translate(180.322266 0)"/>
     <use xlink:href="#MicrosoftYaHei-Bold-69" transform="translate(229.6875 0)"/>
     <use xlink:href="#MicrosoftYaHei-Bold-64" transform="translate(259.277344 0)"/>
     <use xlink:href="#MicrosoftYaHei-Bold-65" transform="translate(325.732422 0)"/>
     <use xlink:href="#MicrosoftYaHei-Bold-73" transform="translate(383.935547 0)"/>
     <use xlink:href="#MicrosoftYaHei-Bold-20" transform="translate(433.300781 0)"/>
     <use xlink:href="#MicrosoftYaHei-Bold-65" transform="translate(463.085938 0)"/>
     <use xlink:href="#MicrosoftYaHei-Bold-71" transform="translate(521.289062 0)"/>
     <use xlink:href="#MicrosoftYaHei-Bold-75" transform="translate(587.744141 0)"/>
     <use xlink:href="#MicrosoftYaHei-Bold-61" transform="translate(652.539062 0)"/>
     <use xlink:href="#MicrosoftYaHei-Bold-6c" transform="translate(710.302734 0)"/>
    </g>
    <!-- All angles differ -->
    <g style="fill: #e74c3c" transform="translate(355.77625 155.04) scale(0.08 -0.08)">
     <defs>
      <path id="MicrosoftYaHei-Bold-66" d="M 2653 4338 
Q 2447 4419 2263 4419 
Q 1744 4419 1744 3844 
L 1744 3456 
L 2531 3456 
L 2531 2703 
L 1744 2703 
L 1744 0 
L 734 0 
L 734 2703 
L 156 2703 
L 156 3456 
L 734 3456 
L 734 3900 
Q 734 4491 1118 4844 
Q 1503 5197 2128 5197 
Q 2447 5197 2653 5131 
L 2653 4338 
z
" transform="scale(0.015625)"/>
     </defs>
     <use xlink:href="#MicrosoftYaHei-Bold-41"/>
     <use xlink:href="#MicrosoftYaHei-Bold-6c" transform="translate(75.195312 0)"/>
     <use xlink:href="#MicrosoftYaHei-Bold-6c" transform="translate(104.785156 0)"/>
     <use xlink:href="#MicrosoftYaHei-Bold-20" transform="translate(134.375 0)"/>
     <use xlink:href="#MicrosoftYaHei-Bold-61" transform="translate(164.160156 0)"/>
     <use xlink:href="#MicrosoftYaHei-Bold-6e" transform="translate(221.923828 0)"/>
     <use xlink:href="#MicrosoftYaHei-Bold-67" transform="translate(286.71875 0)"/>
     <use xlink:href="#MicrosoftYaHei-Bold-6c" transform="translate(353.173828 0)"/>
     <use xlink:href="#MicrosoftYaHei-Bold-65" transform="translate(382.763672 0)"/>
     <use xlink:href="#MicrosoftYaHei-Bold-73" transform="translate(440.966797 0)"/>
     <use xlink:href="#MicrosoftYaHei-Bold-20" transform="translate(490.332031 0)"/>
     <use xlink:href="#MicrosoftYaHei-Bold-64" transform="translate(520.117188 0)"/>
     <use xlink:href="#MicrosoftYaHei-Bold-69" transform="translate(586.572266 0)"/>
     <use xlink:href="#MicrosoftYaHei-Bold-66" transform="translate(616.162109 0)"/>
     <use xlink:href="#MicrosoftYaHei-Bold-66" transform="translate(656.689453 0)"/>
     <use xlink:href="#MicrosoftYaHei-Bold-65" transform="translate(697.216797 0)"/>
     <use xlink:href="#MicrosoftYaHei-Bold-72" transform="translate(755.419922 0)"/>
    </g>
   </g>
   <g id="patch_17">
    <path d="M 211.919375 105.294691 
Q 211.919375 121.774561 211.919375 137.136397 
" style="fill: none; stroke: #cccccc; stroke-linecap: round"/>
    <path d="M 213.919375 133.136397 
L 211.919375 137.136397 
L 209.919375 133.136397 
" style="fill: none; stroke: #cccccc; stroke-linecap: round"/>
   </g>
   <g id="text_9">
    <g id="patch_18">
     <path d="M 182.055 158.62875 
L 241.78375 158.62875 
Q 243.38375 158.62875 243.38375 157.02875 
L 243.38375 138.90475 
Q 243.38375 137.30475 241.78375 137.30475 
L 182.055 137.30475 
Q 180.455 137.30475 180.455 138.90475 
L 180.455 157.02875 
Q 180.455 158.62875 182.055 158.62875 
z
" style="fill: #e6f7e6; opacity: 0.9; stroke: #1abc9c; stroke-linejoin: miter"/>
    </g>
    <!-- Isosceles Right -->
    <g style="fill: #1abc9c" transform="translate(182.055 145.3385) scale(0.08 -0.08)">
     <use xlink:href="#MicrosoftYaHei-Bold-49"/>
     <use xlink:href="#MicrosoftYaHei-Bold-73" transform="translate(33.544922 0)"/>
     <use xlink:href="#MicrosoftYaHei-Bold-6f" transform="translate(82.910156 0)"/>
     <use xlink:href="#MicrosoftYaHei-Bold-73" transform="translate(148.632812 0)"/>
     <use xlink:href="#MicrosoftYaHei-Bold-63" transform="translate(197.998047 0)"/>
     <use xlink:href="#MicrosoftYaHei-Bold-65" transform="translate(249.658203 0)"/>
     <use xlink:href="#MicrosoftYaHei-Bold-6c" transform="translate(307.861328 0)"/>
     <use xlink:href="#MicrosoftYaHei-Bold-65" transform="translate(337.451172 0)"/>
     <use xlink:href="#MicrosoftYaHei-Bold-73" transform="translate(395.654297 0)"/>
     <use xlink:href="#MicrosoftYaHei-Bold-20" transform="translate(445.019531 0)"/>
     <use xlink:href="#MicrosoftYaHei-Bold-52" transform="translate(474.804688 0)"/>
     <use xlink:href="#MicrosoftYaHei-Bold-69" transform="translate(544.628906 0)"/>
     <use xlink:href="#MicrosoftYaHei-Bold-67" transform="translate(574.21875 0)"/>
     <use xlink:href="#MicrosoftYaHei-Bold-68" transform="translate(640.673828 0)"/>
     <use xlink:href="#MicrosoftYaHei-Bold-74" transform="translate(705.224609 0)"/>
    </g>
    <!-- 45°-45°-90° -->
    <g style="fill: #1abc9c" transform="translate(188.709375 155.04) scale(0.08 -0.08)">
     <defs>
      <path id="MicrosoftYaHei-Bold-34" d="M 3184 4841 
L 3184 1766 
L 3869 1766 
L 3869 1031 
L 3184 1031 
L 3184 0 
L 2266 0 
L 2266 1031 
L 103 1031 
L 103 1772 
Q 775 2522 1362 3359 
Q 1950 4197 2250 4841 
L 3184 4841 
z
M 997 1766 
L 2266 1766 
L 2266 3541 
Q 2116 3259 1836 2859 
Q 1556 2459 997 1766 
z
" transform="scale(0.015625)"/>
      <path id="MicrosoftYaHei-Bold-35" d="M 541 125 
L 541 997 
Q 1044 691 1613 691 
Q 2041 691 2283 902 
Q 2525 1113 2525 1472 
Q 2525 2225 1494 2225 
Q 1113 2225 616 2169 
L 797 4841 
L 3359 4841 
L 3359 4009 
L 1613 4009 
L 1544 2991 
Q 1803 3013 2022 3013 
Q 2731 3013 3142 2625 
Q 3553 2238 3553 1575 
Q 3553 844 3056 380 
Q 2559 -84 1706 -84 
Q 1016 -84 541 125 
z
" transform="scale(0.015625)"/>
      <path id="MicrosoftYaHei-Bold-2d" d="M 2328 1497 
L 481 1497 
L 481 2209 
L 2328 2209 
L 2328 1497 
z
" transform="scale(0.015625)"/>
     </defs>
     <use xlink:href="#MicrosoftYaHei-Bold-34"/>
     <use xlink:href="#MicrosoftYaHei-Bold-35" transform="translate(61.669922 0)"/>
     <use xlink:href="#MicrosoftYaHei-Bold-b0" transform="translate(123.339844 0)"/>
     <use xlink:href="#MicrosoftYaHei-Bold-2d" transform="translate(164.306641 0)"/>
     <use xlink:href="#MicrosoftYaHei-Bold-34" transform="translate(207.958984 0)"/>
     <use xlink:href="#MicrosoftYaHei-Bold-35" transform="translate(269.628906 0)"/>
     <use xlink:href="#MicrosoftYaHei-Bold-b0" transform="translate(331.298828 0)"/>
     <use xlink:href="#MicrosoftYaHei-Bold-2d" transform="translate(372.265625 0)"/>
     <use xlink:href="#MicrosoftYaHei-Bold-39" transform="translate(415.917969 0)"/>
     <use xlink:href="#MicrosoftYaHei-Bold-30" transform="translate(477.587891 0)"/>
     <use xlink:href="#MicrosoftYaHei-Bold-b0" transform="translate(539.257812 0)"/>
    </g>
   </g>
   <g id="text_10">
    <!-- Tip: Triangle angles sum = 180°  |  Side-angle relation: larger side opposite larger angle -->
    <g style="fill: #888888" transform="translate(24.822734 210.48) scale(0.09 -0.09)">
     <defs>
      <path id="MicrosoftYaHei-54" d="M 3550 4284 
L 2153 4284 
L 2153 0 
L 1525 0 
L 1525 4284 
L 134 4284 
L 134 4841 
L 3550 4841 
L 3550 4284 
z
" transform="scale(0.015625)"/>
      <path id="MicrosoftYaHei-69" d="M 472 4675 
Q 472 4838 583 4948 
Q 694 5059 856 5059 
Q 1022 5059 1136 4950 
Q 1250 4841 1250 4675 
Q 1250 4513 1136 4405 
Q 1022 4297 856 4297 
Q 691 4297 581 4405 
Q 472 4513 472 4675 
z
M 544 0 
L 544 3456 
L 1156 3456 
L 1156 0 
L 544 0 
z
" transform="scale(0.015625)"/>
      <path id="MicrosoftYaHei-70" d="M 1159 488 
L 1159 -1591 
L 547 -1591 
L 547 3456 
L 1159 3456 
L 1159 2859 
L 1172 2859 
Q 1578 3538 2359 3538 
Q 3022 3538 3398 3073 
Q 3775 2609 3775 1828 
Q 3775 966 3348 442 
Q 2922 -81 2200 -81 
Q 1534 -81 1172 488 
L 1159 488 
z
M 1156 1425 
Q 1156 1003 1428 714 
Q 1700 425 2109 425 
Q 2597 425 2872 800 
Q 3147 1175 3147 1838 
Q 3147 2397 2890 2714 
Q 2634 3031 2191 3031 
Q 1738 3031 1447 2709 
Q 1156 2388 1156 1884 
L 1156 1425 
z
" transform="scale(0.015625)"/>
      <path id="MicrosoftYaHei-3a" d="M 372 3134 
Q 372 3303 490 3415 
Q 609 3528 775 3528 
Q 944 3528 1062 3414 
Q 1181 3300 1181 3134 
Q 1181 2969 1065 2853 
Q 950 2738 772 2738 
Q 603 2738 487 2853 
Q 372 2969 372 3134 
z
M 372 322 
Q 372 491 487 606 
Q 603 722 775 722 
Q 950 722 1065 605 
Q 1181 488 1181 322 
Q 1181 159 1065 42 
Q 950 -75 772 -75 
Q 600 -75 486 42 
Q 372 159 372 322 
z
" transform="scale(0.015625)"/>
      <path id="MicrosoftYaHei-20" transform="scale(0.015625)"/>
      <path id="MicrosoftYaHei-72" d="M 2400 2850 
Q 2247 2959 1978 2959 
Q 1622 2959 1390 2626 
Q 1159 2294 1159 1750 
L 1159 0 
L 547 0 
L 547 3456 
L 1159 3456 
L 1159 2753 
L 1172 2753 
Q 1434 3516 2078 3516 
Q 2288 3516 2400 3469 
L 2400 2850 
z
" transform="scale(0.015625)"/>
      <path id="MicrosoftYaHei-61" d="M 628 3216 
Q 1144 3538 1819 3538 
Q 3069 3538 3069 2225 
L 3069 0 
L 2463 0 
L 2463 534 
L 2447 534 
Q 2088 -81 1388 -81 
Q 884 -81 587 191 
Q 291 463 291 925 
Q 291 1894 1438 2053 
L 2463 2197 
Q 2463 3044 1763 3044 
Q 1141 3044 628 2625 
L 628 3216 
z
M 1653 1625 
Q 1228 1569 1067 1412 
Q 906 1256 906 975 
Q 906 728 1081 572 
Q 1256 416 1544 416 
Q 1944 416 2203 697 
Q 2463 978 2463 1403 
L 2463 1734 
L 1653 1625 
z
" transform="scale(0.015625)"/>
      <path id="MicrosoftYaHei-6e" d="M 3469 0 
L 2859 0 
L 2859 1966 
Q 2859 3031 2081 3031 
Q 1678 3031 1418 2731 
Q 1159 2431 1159 1972 
L 1159 0 
L 547 0 
L 547 3456 
L 1159 3456 
L 1159 2884 
L 1172 2884 
Q 1563 3538 2306 3538 
Q 2875 3538 3172 3173 
Q 3469 2809 3469 2113 
L 3469 0 
z
" transform="scale(0.015625)"/>
      <path id="MicrosoftYaHei-67" d="M 3547 291 
Q 3547 -1628 1684 -1628 
Q 1041 -1628 566 -1388 
L 566 -797 
Q 1144 -1119 1675 -1119 
Q 2934 -1119 2934 206 
L 2934 572 
L 2922 572 
Q 2528 -81 1747 -81 
Q 1097 -81 706 384 
Q 316 850 316 1619 
Q 316 2503 747 3020 
Q 1178 3538 1897 3538 
Q 2588 3538 2922 2988 
L 2934 2988 
L 2934 3456 
L 3547 3456 
L 3547 291 
z
M 2934 2056 
Q 2938 2456 2666 2743 
Q 2394 3031 1997 3031 
Q 1497 3031 1219 2664 
Q 941 2297 941 1656 
Q 941 1106 1209 765 
Q 1478 425 1922 425 
Q 2369 425 2653 750 
Q 2938 1075 2934 1575 
L 2934 2056 
z
" transform="scale(0.015625)"/>
      <path id="MicrosoftYaHei-6c" d="M 544 0 
L 544 5116 
L 1156 5116 
L 1156 0 
L 544 0 
z
" transform="scale(0.015625)"/>
      <path id="MicrosoftYaHei-65" d="M 3363 1572 
L 944 1572 
Q 959 1019 1246 717 
Q 1534 416 2050 416 
Q 2631 416 3116 788 
L 3116 241 
Q 2659 -81 1906 -81 
Q 1156 -81 736 394 
Q 316 869 316 1713 
Q 316 2506 777 3022 
Q 1238 3538 1922 3538 
Q 2600 3538 2981 3102 
Q 3363 2666 3363 1881 
L 3363 1572 
z
M 2750 2063 
Q 2747 2531 2528 2787 
Q 2309 3044 1913 3044 
Q 1547 3044 1280 2772 
Q 1013 2500 944 2063 
L 2750 2063 
z
" transform="scale(0.015625)"/>
      <path id="MicrosoftYaHei-73" d="M 353 747 
Q 816 413 1350 413 
Q 2066 413 2066 881 
Q 2066 1081 1909 1211 
Q 1753 1341 1275 1519 
Q 700 1750 528 1976 
Q 356 2203 356 2525 
Q 356 2984 745 3261 
Q 1134 3538 1703 3538 
Q 2144 3538 2522 3384 
L 2522 2794 
Q 2134 3044 1644 3044 
Q 1350 3044 1165 2916 
Q 981 2788 981 2578 
Q 981 2372 1114 2256 
Q 1247 2141 1703 1959 
Q 2281 1744 2484 1512 
Q 2688 1281 2688 941 
Q 2688 466 2298 192 
Q 1909 -81 1291 -81 
Q 753 -81 353 122 
L 353 747 
z
" transform="scale(0.015625)"/>
      <path id="MicrosoftYaHei-75" d="M 3400 0 
L 2784 0 
L 2784 544 
L 2772 544 
Q 2425 -81 1706 -81 
Q 478 -81 478 1388 
L 478 3456 
L 1084 3456 
L 1084 1478 
Q 1084 425 1891 425 
Q 2291 425 2537 720 
Q 2784 1016 2784 1466 
L 2784 3456 
L 3400 3456 
L 3400 0 
z
" transform="scale(0.015625)"/>
      <path id="MicrosoftYaHei-6d" d="M 5522 0 
L 4909 0 
L 4909 1984 
Q 4909 2547 4734 2789 
Q 4559 3031 4159 3031 
Q 3822 3031 3581 2715 
Q 3341 2400 3341 1969 
L 3341 0 
L 2728 0 
L 2728 2047 
Q 2728 3031 1969 3031 
Q 1619 3031 1389 2731 
Q 1159 2431 1159 1966 
L 1159 0 
L 547 0 
L 547 3456 
L 1159 3456 
L 1159 2909 
L 1172 2909 
Q 1541 3538 2250 3538 
Q 2597 3538 2862 3347 
Q 3128 3156 3231 2831 
Q 3616 3538 4381 3538 
Q 5522 3538 5522 2131 
L 5522 0 
z
" transform="scale(0.015625)"/>
      <path id="MicrosoftYaHei-3d" d="M 3972 2497 
L 788 2497 
L 788 2969 
L 3972 2969 
L 3972 2497 
z
M 3972 1053 
L 788 1053 
L 788 1525 
L 3972 1525 
L 3972 1053 
z
" transform="scale(0.015625)"/>
      <path id="MicrosoftYaHei-31" d="M 1781 0 
L 1781 4141 
Q 1638 3997 1295 3819 
Q 953 3641 663 3569 
L 663 4169 
Q 1047 4275 1484 4508 
Q 1922 4741 2156 4947 
L 2388 4947 
L 2388 0 
L 1781 0 
z
" transform="scale(0.015625)"/>
      <path id="MicrosoftYaHei-38" d="M 306 1350 
Q 306 1769 556 2122 
Q 806 2475 1200 2625 
Q 884 2803 700 3081 
Q 516 3359 516 3684 
Q 516 4028 692 4312 
Q 869 4597 1183 4759 
Q 1497 4922 1875 4922 
Q 2256 4922 2572 4761 
Q 2888 4600 3063 4315 
Q 3238 4031 3238 3684 
Q 3238 3366 3058 3086 
Q 2878 2806 2559 2625 
Q 2953 2472 3200 2119 
Q 3447 1766 3447 1350 
Q 3447 938 3250 611 
Q 3053 284 2690 103 
Q 2328 -78 1875 -78 
Q 1425 -78 1065 103 
Q 706 284 506 612 
Q 306 941 306 1350 
z
M 906 1378 
Q 906 947 1172 687 
Q 1438 428 1878 428 
Q 2309 428 2582 692 
Q 2856 956 2856 1378 
Q 2856 1778 2579 2051 
Q 2303 2325 1878 2325 
Q 1456 2325 1181 2058 
Q 906 1791 906 1378 
z
M 1081 3634 
Q 1081 3309 1312 3076 
Q 1544 2844 1878 2844 
Q 2206 2844 2445 3078 
Q 2684 3313 2684 3634 
Q 2684 3963 2454 4191 
Q 2225 4419 1878 4419 
Q 1534 4419 1307 4195 
Q 1081 3972 1081 3634 
z
" transform="scale(0.015625)"/>
      <path id="MicrosoftYaHei-30" d="M 284 2325 
Q 284 3606 709 4264 
Q 1134 4922 1941 4922 
Q 3478 4922 3478 2441 
Q 3478 1216 3045 567 
Q 2613 -81 1831 -81 
Q 1094 -81 689 534 
Q 284 1150 284 2325 
z
M 909 2353 
Q 909 425 1888 425 
Q 2850 425 2850 2384 
Q 2850 4413 1906 4413 
Q 909 4413 909 2353 
z
" transform="scale(0.015625)"/>
      <path id="MicrosoftYaHei-b0" d="M 1306 4894 
Q 1691 4894 1967 4620 
Q 2244 4347 2244 3959 
Q 2244 3569 1967 3295 
Q 1691 3022 1306 3022 
Q 922 3022 645 3295 
Q 369 3569 369 3959 
Q 369 4347 645 4620 
Q 922 4894 1306 4894 
z
M 1306 3438 
Q 1522 3438 1675 3592 
Q 1828 3747 1828 3959 
Q 1828 4175 1673 4326 
Q 1519 4478 1306 4478 
Q 1094 4478 941 4326 
Q 788 4175 788 3959 
Q 788 3747 939 3592 
Q 1091 3438 1306 3438 
z
" transform="scale(0.015625)"/>
      <path id="MicrosoftYaHei-7c" d="M 1134 -1628 
L 597 -1628 
L 597 5284 
L 1134 5284 
L 1134 -1628 
z
" transform="scale(0.015625)"/>
      <path id="MicrosoftYaHei-53" d="M 400 909 
Q 622 716 994 591 
Q 1366 466 1700 466 
Q 2719 466 2719 1191 
Q 2719 1394 2609 1556 
Q 2500 1719 2309 1844 
Q 2119 1969 1594 2228 
Q 866 2591 634 2902 
Q 403 3213 403 3613 
Q 403 4216 887 4569 
Q 1372 4922 2109 4922 
Q 2831 4922 3169 4747 
L 3169 4066 
Q 2731 4369 2063 4369 
Q 1619 4369 1339 4183 
Q 1059 3997 1059 3666 
Q 1059 3372 1253 3187 
Q 1447 3003 2094 2684 
Q 2806 2344 3090 2003 
Q 3375 1663 3375 1238 
Q 3375 600 2912 259 
Q 2450 -81 1628 -81 
Q 1341 -81 958 -1 
Q 575 78 400 197 
L 400 909 
z
" transform="scale(0.015625)"/>
      <path id="MicrosoftYaHei-64" d="M 3547 0 
L 2934 0 
L 2934 575 
L 2922 575 
Q 2544 -81 1747 -81 
Q 1091 -81 703 386 
Q 316 853 316 1647 
Q 316 2503 753 3020 
Q 1191 3538 1897 3538 
Q 2603 3538 2922 2988 
L 2934 2988 
L 2934 5116 
L 3547 5116 
L 3547 0 
z
M 2938 2056 
Q 2938 2472 2664 2751 
Q 2391 3031 1991 3031 
Q 1503 3031 1222 2667 
Q 941 2303 941 1675 
Q 941 1097 1211 761 
Q 1481 425 1931 425 
Q 2375 425 2656 754 
Q 2938 1084 2938 1575 
L 2938 2056 
z
" transform="scale(0.015625)"/>
      <path id="MicrosoftYaHei-2d" d="M 2328 1681 
L 488 1681 
L 488 2153 
L 2328 2153 
L 2328 1681 
z
" transform="scale(0.015625)"/>
      <path id="MicrosoftYaHei-74" d="M 2206 34 
Q 2006 -75 1666 -75 
Q 738 -75 738 953 
L 738 2950 
L 144 2950 
L 144 3456 
L 738 3456 
L 738 4288 
L 1347 4481 
L 1347 3456 
L 2206 3456 
L 2206 2950 
L 1347 2950 
L 1347 1063 
Q 1347 722 1462 575 
Q 1578 428 1847 428 
Q 2053 428 2206 544 
L 2206 34 
z
" transform="scale(0.015625)"/>
      <path id="MicrosoftYaHei-6f" d="M 316 1691 
Q 316 2547 794 3042 
Q 1272 3538 2091 3538 
Q 2869 3538 3311 3061 
Q 3753 2584 3753 1744 
Q 3753 925 3281 422 
Q 2809 -81 2016 -81 
Q 1241 -81 778 406 
Q 316 894 316 1691 
z
M 941 1709 
Q 941 1113 1242 769 
Q 1544 425 2053 425 
Q 2578 425 2853 761 
Q 3128 1097 3128 1725 
Q 3128 2356 2853 2693 
Q 2578 3031 2053 3031 
Q 1538 3031 1239 2678 
Q 941 2325 941 1709 
z
" transform="scale(0.015625)"/>
     </defs>
     <use xlink:href="#MicrosoftYaHei-54"/>
     <use xlink:href="#MicrosoftYaHei-69" transform="translate(57.324219 0)"/>
     <use xlink:href="#MicrosoftYaHei-70" transform="translate(83.935547 0)"/>
     <use xlink:href="#MicrosoftYaHei-3a" transform="translate(147.802734 0)"/>
     <use xlink:href="#MicrosoftYaHei-20" transform="translate(171.875 0)"/>
     <use xlink:href="#MicrosoftYaHei-54" transform="translate(201.464844 0)"/>
     <use xlink:href="#MicrosoftYaHei-72" transform="translate(249.414062 0)"/>
     <use xlink:href="#MicrosoftYaHei-69" transform="translate(287.597656 0)"/>
     <use xlink:href="#MicrosoftYaHei-61" transform="translate(314.208984 0)"/>
     <use xlink:href="#MicrosoftYaHei-6e" transform="translate(369.482422 0)"/>
     <use xlink:href="#MicrosoftYaHei-67" transform="translate(431.103516 0)"/>
     <use xlink:href="#MicrosoftYaHei-6c" transform="translate(495.068359 0)"/>
     <use xlink:href="#MicrosoftYaHei-65" transform="translate(521.679688 0)"/>
     <use xlink:href="#MicrosoftYaHei-20" transform="translate(578.417969 0)"/>
     <use xlink:href="#MicrosoftYaHei-61" transform="translate(608.007812 0)"/>
     <use xlink:href="#MicrosoftYaHei-6e" transform="translate(663.28125 0)"/>
     <use xlink:href="#MicrosoftYaHei-67" transform="translate(724.902344 0)"/>
     <use xlink:href="#MicrosoftYaHei-6c" transform="translate(788.867188 0)"/>
     <use xlink:href="#MicrosoftYaHei-65" transform="translate(815.478516 0)"/>
     <use xlink:href="#MicrosoftYaHei-73" transform="translate(872.216797 0)"/>
     <use xlink:href="#MicrosoftYaHei-20" transform="translate(918.505859 0)"/>
     <use xlink:href="#MicrosoftYaHei-73" transform="translate(948.095703 0)"/>
     <use xlink:href="#MicrosoftYaHei-75" transform="translate(994.384766 0)"/>
     <use xlink:href="#MicrosoftYaHei-6d" transform="translate(1056.005859 0)"/>
     <use xlink:href="#MicrosoftYaHei-20" transform="translate(1149.707031 0)"/>
     <use xlink:href="#MicrosoftYaHei-3d" transform="translate(1179.296875 0)"/>
     <use xlink:href="#MicrosoftYaHei-20" transform="translate(1253.466797 0)"/>
     <use xlink:href="#MicrosoftYaHei-31" transform="translate(1283.056641 0)"/>
     <use xlink:href="#MicrosoftYaHei-38" transform="translate(1341.699219 0)"/>
     <use xlink:href="#MicrosoftYaHei-30" transform="translate(1400.341797 0)"/>
     <use xlink:href="#MicrosoftYaHei-b0" transform="translate(1458.984375 0)"/>
     <use xlink:href="#MicrosoftYaHei-20" transform="translate(1499.755859 0)"/>
     <use xlink:href="#MicrosoftYaHei-20" transform="translate(1529.345703 0)"/>
     <use xlink:href="#MicrosoftYaHei-7c" transform="translate(1558.935547 0)"/>
     <use xlink:href="#MicrosoftYaHei-20" transform="translate(1585.839844 0)"/>
     <use xlink:href="#MicrosoftYaHei-20" transform="translate(1615.429688 0)"/>
     <use xlink:href="#MicrosoftYaHei-53" transform="translate(1645.019531 0)"/>
     <use xlink:href="#MicrosoftYaHei-69" transform="translate(1702.734375 0)"/>
     <use xlink:href="#MicrosoftYaHei-64" transform="translate(1729.345703 0)"/>
     <use xlink:href="#MicrosoftYaHei-65" transform="translate(1793.310547 0)"/>
     <use xlink:href="#MicrosoftYaHei-2d" transform="translate(1850.048828 0)"/>
     <use xlink:href="#MicrosoftYaHei-61" transform="translate(1893.310547 0)"/>
     <use xlink:href="#MicrosoftYaHei-6e" transform="translate(1948.583984 0)"/>
     <use xlink:href="#MicrosoftYaHei-67" transform="translate(2010.205078 0)"/>
     <use xlink:href="#MicrosoftYaHei-6c" transform="translate(2074.169922 0)"/>
     <use xlink:href="#MicrosoftYaHei-65" transform="translate(2100.78125 0)"/>
     <use xlink:href="#MicrosoftYaHei-20" transform="translate(2157.519531 0)"/>
     <use xlink:href="#MicrosoftYaHei-72" transform="translate(2187.109375 0)"/>
     <use xlink:href="#MicrosoftYaHei-65" transform="translate(2223.917969 0)"/>
     <use xlink:href="#MicrosoftYaHei-6c" transform="translate(2280.65625 0)"/>
     <use xlink:href="#MicrosoftYaHei-61" transform="translate(2307.267578 0)"/>
     <use xlink:href="#MicrosoftYaHei-74" transform="translate(2362.541016 0)"/>
     <use xlink:href="#MicrosoftYaHei-69" transform="translate(2399.796875 0)"/>
     <use xlink:href="#MicrosoftYaHei-6f" transform="translate(2426.408203 0)"/>
     <use xlink:href="#MicrosoftYaHei-6e" transform="translate(2489.982422 0)"/>
     <use xlink:href="#MicrosoftYaHei-3a" transform="translate(2551.603516 0)"/>
     <use xlink:href="#MicrosoftYaHei-20" transform="translate(2575.675781 0)"/>
     <use xlink:href="#MicrosoftYaHei-6c" transform="translate(2605.265625 0)"/>
     <use xlink:href="#MicrosoftYaHei-61" transform="translate(2631.876953 0)"/>
     <use xlink:href="#MicrosoftYaHei-72" transform="translate(2687.150391 0)"/>
     <use xlink:href="#MicrosoftYaHei-67" transform="translate(2723.958984 0)"/>
     <use xlink:href="#MicrosoftYaHei-65" transform="translate(2787.923828 0)"/>
     <use xlink:href="#MicrosoftYaHei-72" transform="translate(2844.662109 0)"/>
     <use xlink:href="#MicrosoftYaHei-20" transform="translate(2882.845703 0)"/>
     <use xlink:href="#MicrosoftYaHei-73" transform="translate(2912.435547 0)"/>
     <use xlink:href="#MicrosoftYaHei-69" transform="translate(2958.724609 0)"/>
     <use xlink:href="#MicrosoftYaHei-64" transform="translate(2985.335938 0)"/>
     <use xlink:href="#MicrosoftYaHei-65" transform="translate(3049.300781 0)"/>
     <use xlink:href="#MicrosoftYaHei-20" transform="translate(3106.039062 0)"/>
     <use xlink:href="#MicrosoftYaHei-6f" transform="translate(3135.628906 0)"/>
     <use xlink:href="#MicrosoftYaHei-70" transform="translate(3199.203125 0)"/>
     <use xlink:href="#MicrosoftYaHei-70" transform="translate(3263.070312 0)"/>
     <use xlink:href="#MicrosoftYaHei-6f" transform="translate(3326.9375 0)"/>
     <use xlink:href="#MicrosoftYaHei-73" transform="translate(3390.511719 0)"/>
     <use xlink:href="#MicrosoftYaHei-69" transform="translate(3436.800781 0)"/>
     <use xlink:href="#MicrosoftYaHei-74" transform="translate(3463.412109 0)"/>
     <use xlink:href="#MicrosoftYaHei-65" transform="translate(3499.792969 0)"/>
     <use xlink:href="#MicrosoftYaHei-20" transform="translate(3556.53125 0)"/>
     <use xlink:href="#MicrosoftYaHei-6c" transform="translate(3586.121094 0)"/>
     <use xlink:href="#MicrosoftYaHei-61" transform="translate(3612.732422 0)"/>
     <use xlink:href="#MicrosoftYaHei-72" transform="translate(3668.005859 0)"/>
     <use xlink:href="#MicrosoftYaHei-67" transform="translate(3704.814453 0)"/>
     <use xlink:href="#MicrosoftYaHei-65" transform="translate(3768.779297 0)"/>
     <use xlink:href="#MicrosoftYaHei-72" transform="translate(3825.517578 0)"/>
     <use xlink:href="#MicrosoftYaHei-20" transform="translate(3863.701172 0)"/>
     <use xlink:href="#MicrosoftYaHei-61" transform="translate(3893.291016 0)"/>
     <use xlink:href="#MicrosoftYaHei-6e" transform="translate(3948.564453 0)"/>
     <use xlink:href="#MicrosoftYaHei-67" transform="translate(4010.185547 0)"/>
     <use xlink:href="#MicrosoftYaHei-6c" transform="translate(4074.150391 0)"/>
     <use xlink:href="#MicrosoftYaHei-65" transform="translate(4100.761719 0)"/>
    </g>
   </g>
  </g>
 </g>
</svg>
