<?xml version="1.0" encoding="utf-8" standalone="no"?>
<!DOCTYPE svg PUBLIC "-//W3C//DTD SVG 1.1//EN"
  "http://www.w3.org/Graphics/SVG/1.1/DTD/svg11.dtd">
<svg xmlns:xlink="http://www.w3.org/1999/xlink" width="496.8pt" height="280.47125pt" viewBox="0 0 496.8 280.47125" xmlns="http://www.w3.org/2000/svg" version="1.1">
 <metadata>
  <rdf:RDF xmlns:dc="http://purl.org/dc/elements/1.1/" xmlns:cc="http://creativecommons.org/ns#" xmlns:rdf="http://www.w3.org/1999/02/22-rdf-syntax-ns#">
   <cc:Work>
    <dc:type rdf:resource="http://purl.org/dc/dcmitype/StillImage"/>
    <dc:date>2026-05-25T22:47:16.421442</dc:date>
    <dc:format>image/svg+xml</dc:format>
    <dc:creator>
     <cc:Agent>
      <dc:title>Matplotlib v3.10.9, https://matplotlib.org/</dc:title>
     </cc:Agent>
    </dc:creator>
   </cc:Work>
  </rdf:RDF>
 </metadata>
 <defs>
  <style type="text/css">*{stroke-linejoin: round; stroke-linecap: butt}</style>
 </defs>
 <g id="figure_1">
  <g id="patch_1">
   <path d="M 0 280.47125 
L 496.8 280.47125 
L 496.8 0 
L 0 0 
z
" style="fill: #ffffff"/>
  </g>
  <g id="axes_1">
   <g id="patch_2">
    <path d="M 7.2 269.189917 
L 393.12 269.189917 
L 393.12 236.53925 
L 7.2 236.53925 
z
" clip-path="url(#pf29661d0ef)" style="fill: #e74c3c; opacity: 0.15"/>
   </g>
   <g id="patch_3">
    <path d="M 7.2 228.376583 
L 393.12 228.376583 
L 393.12 195.725917 
L 7.2 195.725917 
z
" clip-path="url(#pf29661d0ef)" style="fill: #3498db; opacity: 0.15"/>
   </g>
   <g id="patch_4">
    <path d="M 7.2 187.56325 
L 393.12 187.56325 
L 393.12 154.912583 
L 7.2 154.912583 
z
" clip-path="url(#pf29661d0ef)" style="fill: #2ecc71; opacity: 0.15"/>
   </g>
   <g id="patch_5">
    <path d="M 7.2 146.749917 
L 393.12 146.749917 
L 393.12 114.09925 
L 7.2 114.09925 
z
" clip-path="url(#pf29661d0ef)" style="fill: #f39c12; opacity: 0.15"/>
   </g>
   <g id="patch_6">
    <path d="M 7.2 105.936583 
L 393.12 105.936583 
L 393.12 73.285917 
L 7.2 73.285917 
z
" clip-path="url(#pf29661d0ef)" style="fill: #9b59b6; opacity: 0.15"/>
   </g>
   <g id="patch_7">
    <path d="M 7.2 65.12325 
L 393.12 65.12325 
L 393.12 32.472583 
L 7.2 32.472583 
z
" clip-path="url(#pf29661d0ef)" style="fill: #1abc9c; opacity: 0.15"/>
   </g>
   <g id="text_1">
    <!-- Triangle -->
    <g style="fill: #e74c3c" transform="translate(179.986562 249.555052) scale(0.1 -0.1)">
     <defs>
      <path id="MicrosoftYaHei-Bold-54" d="M 3900 3997 
L 2519 3997 
L 2519 0 
L 1484 0 
L 1484 3997 
L 106 3997 
L 106 4841 
L 3900 4841 
L 3900 3997 
z
" transform="scale(0.015625)"/>
      <path id="MicrosoftYaHei-Bold-72" d="M 2663 2541 
Q 2478 2647 2216 2647 
Q 1872 2647 1670 2384 
Q 1469 2122 1469 1663 
L 1469 0 
L 459 0 
L 459 3456 
L 1469 3456 
L 1469 2806 
L 1481 2806 
Q 1731 3516 2391 3516 
Q 2569 3516 2663 3475 
L 2663 2541 
z
" transform="scale(0.015625)"/>
      <path id="MicrosoftYaHei-Bold-69" d="M 369 4572 
Q 369 4803 533 4948 
Q 697 5094 953 5094 
Q 1216 5094 1378 4945 
Q 1541 4797 1541 4572 
Q 1541 4344 1375 4192 
Q 1209 4041 953 4041 
Q 700 4041 534 4194 
Q 369 4347 369 4572 
z
M 444 0 
L 444 3456 
L 1450 3456 
L 1450 0 
L 444 0 
z
" transform="scale(0.015625)"/>
      <path id="MicrosoftYaHei-Bold-61" d="M 544 3247 
Q 778 3378 1170 3459 
Q 1563 3541 1841 3541 
Q 3291 3541 3291 2088 
L 3291 0 
L 2331 0 
L 2331 503 
L 2319 503 
Q 1966 -84 1284 -84 
Q 794 -84 498 195 
Q 203 475 203 956 
Q 203 1950 1388 2113 
L 2338 2241 
Q 2338 2844 1709 2844 
Q 1091 2844 544 2469 
L 544 3247 
z
M 1684 1566 
Q 1138 1494 1138 1072 
Q 1138 878 1270 759 
Q 1403 641 1628 641 
Q 1938 641 2138 859 
Q 2338 1078 2338 1403 
L 2338 1650 
L 1684 1566 
z
" transform="scale(0.015625)"/>
      <path id="MicrosoftYaHei-Bold-6e" d="M 3744 0 
L 2741 0 
L 2741 1928 
Q 2741 2766 2138 2766 
Q 1850 2766 1659 2542 
Q 1469 2319 1469 1972 
L 1469 0 
L 459 0 
L 459 3456 
L 1469 3456 
L 1469 2906 
L 1481 2906 
Q 1859 3541 2594 3541 
Q 3744 3541 3744 2116 
L 3744 0 
z
" transform="scale(0.015625)"/>
      <path id="MicrosoftYaHei-Bold-67" d="M 3800 381 
Q 3800 -581 3251 -1101 
Q 2703 -1622 1672 -1622 
Q 972 -1622 559 -1422 
L 559 -559 
Q 1097 -872 1644 -872 
Q 2184 -872 2489 -583 
Q 2794 -294 2794 219 
L 2794 506 
L 2778 506 
Q 2413 -84 1691 -84 
Q 1038 -84 645 381 
Q 253 847 253 1628 
Q 253 2500 686 3020 
Q 1119 3541 1822 3541 
Q 2459 3541 2778 3044 
L 2794 3044 
L 2794 3456 
L 3800 3456 
L 3800 381 
z
M 2803 1950 
Q 2803 2294 2595 2530 
Q 2388 2766 2072 2766 
Q 1703 2766 1489 2477 
Q 1275 2188 1275 1666 
Q 1275 1213 1481 952 
Q 1688 691 2028 691 
Q 2372 691 2587 956 
Q 2803 1222 2803 1647 
L 2803 1950 
z
" transform="scale(0.015625)"/>
      <path id="MicrosoftYaHei-Bold-6c" d="M 444 0 
L 444 5116 
L 1450 5116 
L 1450 0 
L 444 0 
z
" transform="scale(0.015625)"/>
      <path id="MicrosoftYaHei-Bold-65" d="M 3528 1444 
L 1253 1444 
Q 1306 641 2222 641 
Q 2794 641 3231 922 
L 3231 181 
Q 2759 -84 1994 -84 
Q 1169 -84 711 381 
Q 253 847 253 1678 
Q 253 2506 740 3023 
Q 1228 3541 1966 3541 
Q 2700 3541 3114 3095 
Q 3528 2650 3528 1872 
L 3528 1444 
z
M 2588 2075 
Q 2588 2850 1959 2850 
Q 1700 2850 1500 2637 
Q 1300 2425 1250 2075 
L 2588 2075 
z
" transform="scale(0.015625)"/>
     </defs>
     <use xlink:href="#MicrosoftYaHei-Bold-54"/>
     <use xlink:href="#MicrosoftYaHei-Bold-72" transform="translate(54.298828 0)"/>
     <use xlink:href="#MicrosoftYaHei-Bold-69" transform="translate(97.056641 0)"/>
     <use xlink:href="#MicrosoftYaHei-Bold-61" transform="translate(126.646484 0)"/>
     <use xlink:href="#MicrosoftYaHei-Bold-6e" transform="translate(184.410156 0)"/>
     <use xlink:href="#MicrosoftYaHei-Bold-67" transform="translate(249.205078 0)"/>
     <use xlink:href="#MicrosoftYaHei-Bold-6c" transform="translate(315.660156 0)"/>
     <use xlink:href="#MicrosoftYaHei-Bold-65" transform="translate(345.25 0)"/>
    </g>
    <!-- (1/2)ah -->
    <g style="fill: #e74c3c" transform="translate(181.617031 261.681927) scale(0.1 -0.1)">
     <defs>
      <path id="MicrosoftYaHei-Bold-28" d="M 1606 -1100 
Q 525 97 525 1853 
Q 525 3550 1606 4841 
L 2431 4841 
Q 1406 3497 1406 1853 
Q 1406 216 2438 -1100 
L 1606 -1100 
z
" transform="scale(0.015625)"/>
      <path id="MicrosoftYaHei-Bold-31" d="M 2716 4947 
L 2716 0 
L 1700 0 
L 1700 3809 
Q 1513 3647 1188 3517 
Q 863 3388 591 3356 
L 591 4222 
Q 1447 4472 2072 4947 
L 2716 4947 
z
" transform="scale(0.015625)"/>
      <path id="MicrosoftYaHei-Bold-2f" d="M 3100 4841 
L 747 -803 
L -156 -803 
L 2188 4841 
L 3100 4841 
z
" transform="scale(0.015625)"/>
      <path id="MicrosoftYaHei-Bold-32" d="M 1500 841 
L 3553 841 
L 3553 0 
L 334 0 
L 334 359 
Q 334 738 473 1050 
Q 613 1363 856 1633 
Q 1100 1903 1613 2266 
Q 2081 2616 2268 2886 
Q 2456 3156 2456 3459 
Q 2456 4113 1744 4113 
Q 1119 4113 550 3613 
L 550 4513 
Q 1184 4922 1975 4922 
Q 2700 4922 3122 4551 
Q 3544 4181 3544 3531 
Q 3544 3169 3422 2876 
Q 3300 2584 3069 2328 
Q 2838 2072 2328 1713 
Q 1838 1363 1669 1172 
Q 1500 981 1500 841 
z
" transform="scale(0.015625)"/>
      <path id="MicrosoftYaHei-Bold-29" d="M 59 -1100 
Q 1097 216 1097 1853 
Q 1097 3484 59 4841 
L 888 4841 
Q 1978 3544 1978 1853 
Q 1978 113 881 -1100 
L 59 -1100 
z
" transform="scale(0.015625)"/>
      <path id="MicrosoftYaHei-Bold-68" d="M 3725 0 
L 2719 0 
L 2719 1969 
Q 2719 2766 2138 2766 
Q 1847 2766 1658 2544 
Q 1469 2322 1469 1969 
L 1469 0 
L 459 0 
L 459 5116 
L 1469 5116 
L 1469 2938 
L 1481 2938 
Q 1878 3541 2550 3541 
Q 3725 3541 3725 2122 
L 3725 0 
z
" transform="scale(0.015625)"/>
     </defs>
     <use xlink:href="#MicrosoftYaHei-Bold-28"/>
     <use xlink:href="#MicrosoftYaHei-Bold-31" transform="translate(38.964844 0)"/>
     <use xlink:href="#MicrosoftYaHei-Bold-2f" transform="translate(100.634766 0)"/>
     <use xlink:href="#MicrosoftYaHei-Bold-32" transform="translate(147.900391 0)"/>
     <use xlink:href="#MicrosoftYaHei-Bold-29" transform="translate(209.570312 0)"/>
     <use xlink:href="#MicrosoftYaHei-Bold-61" transform="translate(248.535156 0)"/>
     <use xlink:href="#MicrosoftYaHei-Bold-68" transform="translate(306.298828 0)"/>
    </g>
   </g>
   <g id="text_2">
    <!-- S = ½ah -->
    <g style="fill: #2c3e50" transform="translate(343.290937 255.899896) scale(0.11 -0.11)">
     <defs>
      <path id="DejaVuSerif-Bold-53" d="M 494 225 
L 494 1331 
L 891 1331 
Q 981 806 1318 547 
Q 1656 288 2253 288 
Q 2738 288 2991 472 
Q 3244 656 3244 1013 
Q 3244 1294 3072 1450 
Q 2900 1606 2363 1741 
L 1663 1913 
Q 978 2088 700 2398 
Q 422 2709 422 3284 
Q 422 3978 883 4364 
Q 1344 4750 2175 4750 
Q 2584 4750 3026 4681 
Q 3469 4613 3944 4475 
L 3944 3444 
L 3547 3444 
Q 3456 3925 3150 4148 
Q 2844 4372 2278 4372 
Q 1816 4372 1580 4211 
Q 1344 4050 1344 3731 
Q 1344 3441 1506 3289 
Q 1669 3138 2303 2975 
L 3003 2803 
Q 3653 2641 3945 2297 
Q 4238 1953 4238 1350 
Q 4238 644 3750 276 
Q 3263 -91 2316 -91 
Q 1859 -91 1409 -12 
Q 959 66 494 225 
z
" transform="scale(0.015625)"/>
      <path id="DejaVuSerif-Bold-20" transform="scale(0.015625)"/>
      <path id="DejaVuSerif-Bold-3d" d="M 678 1650 
L 4684 1650 
L 4684 941 
L 678 941 
L 678 1650 
z
M 678 3072 
L 4684 3072 
L 4684 2363 
L 678 2363 
L 678 3072 
z
" transform="scale(0.015625)"/>
      <path id="DejaVuSerif-Bold-bd" d="M 506 2138 
L 506 2431 
L 1019 2431 
L 1019 4347 
L 447 4031 
L 447 4359 
L 1141 4750 
L 1850 4750 
L 1850 2431 
L 2363 2431 
L 2363 2138 
L 506 2138 
z
M 4528 4750 
L 5059 4750 
L 2141 -91 
L 1609 -91 
L 4528 4750 
z
M 4460 1901 
L 4166 1901 
L 4166 2510 
Q 4391 2572 4627 2605 
Q 4863 2638 5113 2638 
Q 5678 2638 5990 2438 
Q 6303 2238 6303 1882 
Q 6303 1626 6133 1424 
Q 5963 1222 5472 941 
L 4710 507 
L 6003 507 
L 6003 807 
L 6316 807 
L 6316 26 
L 4141 26 
L 4141 441 
L 4544 704 
Q 5128 1088 5284 1307 
Q 5441 1526 5441 1816 
Q 5441 2079 5311 2227 
Q 5181 2376 4953 2376 
Q 4756 2376 4620 2246 
Q 4485 2116 4460 1901 
z
" transform="scale(0.015625)"/>
      <path id="DejaVuSerif-Bold-61" d="M 3525 2041 
L 3525 378 
L 4000 378 
L 4000 0 
L 2419 0 
L 2419 422 
Q 2200 159 1931 34 
Q 1663 -91 1319 -91 
Q 809 -91 536 182 
Q 263 456 263 966 
Q 263 1525 655 1803 
Q 1047 2081 1838 2081 
L 2419 2081 
L 2419 2278 
Q 2419 2681 2228 2873 
Q 2038 3066 1638 3066 
Q 1306 3066 1126 2930 
Q 947 2794 872 2484 
L 519 2484 
L 519 3200 
Q 816 3306 1134 3359 
Q 1453 3413 1806 3413 
Q 2697 3413 3111 3081 
Q 3525 2750 3525 2041 
z
M 2419 1044 
L 2419 1709 
L 2003 1709 
Q 1694 1709 1528 1540 
Q 1363 1372 1363 1056 
Q 1363 741 1483 584 
Q 1603 428 1850 428 
Q 2106 428 2262 597 
Q 2419 766 2419 1044 
z
" transform="scale(0.015625)"/>
      <path id="DejaVuSerif-Bold-68" d="M 219 0 
L 219 378 
L 691 378 
L 691 4488 
L 197 4488 
L 197 4863 
L 1797 4863 
L 1797 2853 
Q 1997 3150 2253 3281 
Q 2509 3413 2900 3413 
Q 3459 3413 3745 3083 
Q 4031 2753 4031 2113 
L 4031 378 
L 4506 378 
L 4506 0 
L 2522 0 
L 2522 378 
L 2925 378 
L 2925 2144 
Q 2925 2566 2817 2730 
Q 2709 2894 2444 2894 
Q 2109 2894 1953 2648 
Q 1797 2403 1797 1869 
L 1797 378 
L 2203 378 
L 2203 0 
L 219 0 
z
" transform="scale(0.015625)"/>
     </defs>
     <use xlink:href="#DejaVuSerif-Bold-53"/>
     <use xlink:href="#DejaVuSerif-Bold-20" transform="translate(72.216797 0)"/>
     <use xlink:href="#DejaVuSerif-Bold-3d" transform="translate(107.03125 0)"/>
     <use xlink:href="#DejaVuSerif-Bold-20" transform="translate(190.820312 0)"/>
     <use xlink:href="#DejaVuSerif-Bold-bd" transform="translate(225.634766 0)"/>
     <use xlink:href="#DejaVuSerif-Bold-61" transform="translate(329.931641 0)"/>
     <use xlink:href="#DejaVuSerif-Bold-68" transform="translate(394.726562 0)"/>
    </g>
   </g>
   <g id="text_3">
    <!-- Rectangle -->
    <g style="fill: #3498db" transform="translate(175.402187 208.741719) scale(0.1 -0.1)">
     <defs>
      <path id="MicrosoftYaHei-Bold-52" d="M 4553 0 
L 3366 0 
L 2606 1259 
Q 2372 1650 2222 1762 
Q 2072 1875 1903 1875 
L 1591 1875 
L 1591 0 
L 559 0 
L 559 4841 
L 2256 4841 
Q 3984 4841 3984 3528 
Q 3984 3034 3695 2681 
Q 3406 2328 2900 2184 
L 2900 2172 
Q 3234 2059 3641 1434 
L 4553 0 
z
M 1591 4056 
L 1591 2663 
L 2097 2663 
Q 2459 2663 2679 2873 
Q 2900 3084 2900 3400 
Q 2900 4056 2116 4056 
L 1591 4056 
z
" transform="scale(0.015625)"/>
      <path id="MicrosoftYaHei-Bold-63" d="M 3050 128 
Q 2688 -84 2019 -84 
Q 1228 -84 740 397 
Q 253 878 253 1644 
Q 253 2525 778 3033 
Q 1303 3541 2178 3541 
Q 2769 3541 3053 3378 
L 3053 2513 
Q 2706 2766 2297 2766 
Q 1834 2766 1554 2484 
Q 1275 2203 1275 1713 
Q 1275 1238 1540 964 
Q 1806 691 2263 691 
Q 2666 691 3050 947 
L 3050 128 
z
" transform="scale(0.015625)"/>
      <path id="MicrosoftYaHei-Bold-74" d="M 2494 41 
Q 2266 -84 1803 -84 
Q 703 -84 703 1072 
L 703 2703 
L 134 2703 
L 134 3456 
L 703 3456 
L 703 4216 
L 1706 4503 
L 1706 3456 
L 2494 3456 
L 2494 2703 
L 1706 2703 
L 1706 1247 
Q 1706 694 2144 694 
Q 2313 694 2494 794 
L 2494 41 
z
" transform="scale(0.015625)"/>
     </defs>
     <use xlink:href="#MicrosoftYaHei-Bold-52"/>
     <use xlink:href="#MicrosoftYaHei-Bold-65" transform="translate(67.074219 0)"/>
     <use xlink:href="#MicrosoftYaHei-Bold-63" transform="translate(125.277344 0)"/>
     <use xlink:href="#MicrosoftYaHei-Bold-74" transform="translate(176.9375 0)"/>
     <use xlink:href="#MicrosoftYaHei-Bold-61" transform="translate(218.34375 0)"/>
     <use xlink:href="#MicrosoftYaHei-Bold-6e" transform="translate(276.107422 0)"/>
     <use xlink:href="#MicrosoftYaHei-Bold-67" transform="translate(340.902344 0)"/>
     <use xlink:href="#MicrosoftYaHei-Bold-6c" transform="translate(407.357422 0)"/>
     <use xlink:href="#MicrosoftYaHei-Bold-65" transform="translate(436.947266 0)"/>
    </g>
    <!-- ab -->
    <g style="fill: #3498db" transform="translate(193.94125 220.868594) scale(0.1 -0.1)">
     <defs>
      <path id="MicrosoftYaHei-Bold-62" d="M 1469 416 
L 1469 0 
L 459 0 
L 459 5116 
L 1469 5116 
L 1469 2928 
L 1481 2928 
Q 1878 3541 2613 3541 
Q 3266 3541 3636 3084 
Q 4006 2628 4006 1825 
Q 4006 966 3581 441 
Q 3156 -84 2453 -84 
Q 1809 -84 1481 416 
L 1469 416 
z
M 1453 1494 
Q 1453 1153 1656 922 
Q 1859 691 2172 691 
Q 2550 691 2761 984 
Q 2972 1278 2972 1816 
Q 2972 2263 2780 2514 
Q 2588 2766 2231 2766 
Q 1894 2766 1673 2512 
Q 1453 2259 1453 1863 
L 1453 1494 
z
" transform="scale(0.015625)"/>
     </defs>
     <use xlink:href="#MicrosoftYaHei-Bold-61"/>
     <use xlink:href="#MicrosoftYaHei-Bold-62" transform="translate(57.763672 0)"/>
    </g>
   </g>
   <g id="text_4">
    <!-- S = ab -->
    <g style="fill: #2c3e50" transform="translate(349.180234 215.086563) scale(0.11 -0.11)">
     <defs>
      <path id="DejaVuSerif-Bold-62" d="M 622 378 
L 622 4488 
L 147 4488 
L 147 4863 
L 1728 4863 
L 1728 2900 
Q 1869 3159 2106 3286 
Q 2344 3413 2694 3413 
Q 3403 3413 3811 2945 
Q 4219 2478 4219 1663 
Q 4219 847 3811 378 
Q 3403 -91 2694 -91 
Q 2344 -91 2106 36 
Q 1869 163 1728 422 
L 1728 0 
L 147 0 
L 147 378 
L 622 378 
z
M 1728 1497 
Q 1728 916 1876 656 
Q 2025 397 2356 397 
Q 2697 397 2836 672 
Q 2975 947 2975 1663 
Q 2975 2378 2836 2651 
Q 2697 2925 2356 2925 
Q 2025 2925 1876 2665 
Q 1728 2406 1728 1825 
L 1728 1497 
z
" transform="scale(0.015625)"/>
     </defs>
     <use xlink:href="#DejaVuSerif-Bold-53"/>
     <use xlink:href="#DejaVuSerif-Bold-20" transform="translate(72.216797 0)"/>
     <use xlink:href="#DejaVuSerif-Bold-3d" transform="translate(107.03125 0)"/>
     <use xlink:href="#DejaVuSerif-Bold-20" transform="translate(190.820312 0)"/>
     <use xlink:href="#DejaVuSerif-Bold-61" transform="translate(225.634766 0)"/>
     <use xlink:href="#DejaVuSerif-Bold-62" transform="translate(290.429688 0)"/>
    </g>
   </g>
   <g id="text_5">
    <!-- Square -->
    <g style="fill: #2ecc71" transform="translate(182.696719 167.952604) scale(0.1 -0.1)">
     <defs>
      <path id="MicrosoftYaHei-Bold-53" d="M 338 1219 
Q 922 734 1666 734 
Q 2088 734 2300 879 
Q 2513 1025 2513 1253 
Q 2513 1450 2344 1625 
Q 2175 1800 1453 2100 
Q 319 2581 319 3500 
Q 319 4175 833 4548 
Q 1347 4922 2194 4922 
Q 2903 4922 3384 4738 
L 3384 3769 
Q 2897 4100 2244 4100 
Q 1863 4100 1634 3961 
Q 1406 3822 1406 3588 
Q 1406 3400 1562 3242 
Q 1719 3084 2334 2816 
Q 3056 2506 3326 2162 
Q 3597 1819 3597 1344 
Q 3597 647 3103 281 
Q 2609 -84 1700 -84 
Q 869 -84 338 184 
L 338 1219 
z
" transform="scale(0.015625)"/>
      <path id="MicrosoftYaHei-Bold-71" d="M 3794 -1591 
L 2788 -1591 
L 2788 488 
L 2772 488 
Q 2409 -84 1697 -84 
Q 1044 -84 648 370 
Q 253 825 253 1644 
Q 253 2509 689 3025 
Q 1125 3541 1825 3541 
Q 2466 3541 2772 3044 
L 2788 3044 
L 2788 3456 
L 3794 3456 
L 3794 -1591 
z
M 2803 1944 
Q 2803 2288 2597 2527 
Q 2391 2766 2072 2766 
Q 1709 2766 1492 2478 
Q 1275 2191 1275 1672 
Q 1275 1206 1484 948 
Q 1694 691 2022 691 
Q 2375 691 2589 955 
Q 2803 1219 2803 1641 
L 2803 1944 
z
" transform="scale(0.015625)"/>
      <path id="MicrosoftYaHei-Bold-75" d="M 3691 0 
L 2688 0 
L 2688 528 
L 2672 528 
Q 2284 -84 1613 -84 
Q 406 -84 406 1372 
L 406 3456 
L 1416 3456 
L 1416 1466 
Q 1416 691 2022 691 
Q 2325 691 2506 903 
Q 2688 1116 2688 1478 
L 2688 3456 
L 3691 3456 
L 3691 0 
z
" transform="scale(0.015625)"/>
     </defs>
     <use xlink:href="#MicrosoftYaHei-Bold-53"/>
     <use xlink:href="#MicrosoftYaHei-Bold-71" transform="translate(60.15625 0)"/>
     <use xlink:href="#MicrosoftYaHei-Bold-75" transform="translate(126.611328 0)"/>
     <use xlink:href="#MicrosoftYaHei-Bold-61" transform="translate(191.40625 0)"/>
     <use xlink:href="#MicrosoftYaHei-Bold-72" transform="translate(249.169922 0)"/>
     <use xlink:href="#MicrosoftYaHei-Bold-65" transform="translate(291.052734 0)"/>
    </g>
    <!-- a^2 -->
    <g style="fill: #2ecc71" transform="translate(190.381875 180.031042) scale(0.1 -0.1)">
     <defs>
      <path id="MicrosoftYaHei-Bold-5e" d="M 4188 2066 
L 3400 2066 
L 2419 4056 
L 2400 4056 
L 1475 2066 
L 694 2066 
L 2144 4922 
L 2653 4922 
L 4188 2066 
z
" transform="scale(0.015625)"/>
     </defs>
     <use xlink:href="#MicrosoftYaHei-Bold-61"/>
     <use xlink:href="#MicrosoftYaHei-Bold-5e" transform="translate(57.763672 0)"/>
     <use xlink:href="#MicrosoftYaHei-Bold-32" transform="translate(133.886719 0)"/>
    </g>
   </g>
   <g id="text_6">
    <!-- S = a² -->
    <g style="fill: #2c3e50" transform="translate(350.617109 174.273229) scale(0.11 -0.11)">
     <defs>
      <path id="DejaVuSerif-Bold-b2" d="M 588 4013 
L 294 4013 
L 294 4622 
Q 519 4684 755 4717 
Q 991 4750 1241 4750 
Q 1806 4750 2118 4550 
Q 2431 4350 2431 3994 
Q 2431 3738 2261 3536 
Q 2091 3334 1600 3053 
L 838 2619 
L 2131 2619 
L 2131 2919 
L 2444 2919 
L 2444 2138 
L 269 2138 
L 269 2553 
L 672 2816 
Q 1256 3200 1412 3419 
Q 1569 3638 1569 3928 
Q 1569 4191 1439 4339 
Q 1309 4488 1081 4488 
Q 884 4488 748 4358 
Q 613 4228 588 4013 
z
" transform="scale(0.015625)"/>
     </defs>
     <use xlink:href="#DejaVuSerif-Bold-53"/>
     <use xlink:href="#DejaVuSerif-Bold-20" transform="translate(72.216797 0)"/>
     <use xlink:href="#DejaVuSerif-Bold-3d" transform="translate(107.03125 0)"/>
     <use xlink:href="#DejaVuSerif-Bold-20" transform="translate(190.820312 0)"/>
     <use xlink:href="#DejaVuSerif-Bold-61" transform="translate(225.634766 0)"/>
     <use xlink:href="#DejaVuSerif-Bold-b2" transform="translate(290.429688 0)"/>
    </g>
   </g>
   <g id="text_7">
    <!-- Parallelogram -->
    <g style="fill: #f39c12" transform="translate(165.240469 127.115052) scale(0.1 -0.1)">
     <defs>
      <path id="MicrosoftYaHei-Bold-50" d="M 1591 1688 
L 1591 0 
L 559 0 
L 559 4841 
L 2225 4841 
Q 4031 4841 4031 3309 
Q 4031 2566 3486 2117 
Q 2941 1669 2122 1688 
L 1591 1688 
z
M 1591 4041 
L 1591 2478 
L 2038 2478 
Q 2947 2478 2947 3269 
Q 2947 4041 2047 4041 
L 1591 4041 
z
" transform="scale(0.015625)"/>
      <path id="MicrosoftYaHei-Bold-6f" d="M 253 1713 
Q 253 2566 764 3053 
Q 1275 3541 2138 3541 
Q 2972 3541 3462 3061 
Q 3953 2581 3953 1772 
Q 3953 922 3450 419 
Q 2947 -84 2088 -84 
Q 1244 -84 748 398 
Q 253 881 253 1713 
z
M 1275 1725 
Q 1275 691 2119 691 
Q 2928 691 2928 1753 
Q 2928 2766 2113 2766 
Q 1716 2766 1495 2494 
Q 1275 2222 1275 1725 
z
" transform="scale(0.015625)"/>
      <path id="MicrosoftYaHei-Bold-6d" d="M 5881 0 
L 4875 0 
L 4875 1972 
Q 4875 2766 4297 2766 
Q 4028 2766 3850 2525 
Q 3672 2284 3672 1938 
L 3672 0 
L 2666 0 
L 2666 1997 
Q 2666 2766 2094 2766 
Q 1809 2766 1639 2536 
Q 1469 2306 1469 1928 
L 1469 0 
L 459 0 
L 459 3456 
L 1469 3456 
L 1469 2916 
L 1481 2916 
Q 1663 3213 1963 3377 
Q 2263 3541 2594 3541 
Q 3322 3541 3591 2888 
Q 3991 3541 4753 3541 
Q 5881 3541 5881 2147 
L 5881 0 
z
" transform="scale(0.015625)"/>
     </defs>
     <use xlink:href="#MicrosoftYaHei-Bold-50"/>
     <use xlink:href="#MicrosoftYaHei-Bold-61" transform="translate(62.972656 0)"/>
     <use xlink:href="#MicrosoftYaHei-Bold-72" transform="translate(120.736328 0)"/>
     <use xlink:href="#MicrosoftYaHei-Bold-61" transform="translate(163.119141 0)"/>
     <use xlink:href="#MicrosoftYaHei-Bold-6c" transform="translate(220.882812 0)"/>
     <use xlink:href="#MicrosoftYaHei-Bold-6c" transform="translate(250.472656 0)"/>
     <use xlink:href="#MicrosoftYaHei-Bold-65" transform="translate(280.0625 0)"/>
     <use xlink:href="#MicrosoftYaHei-Bold-6c" transform="translate(338.265625 0)"/>
     <use xlink:href="#MicrosoftYaHei-Bold-6f" transform="translate(367.855469 0)"/>
     <use xlink:href="#MicrosoftYaHei-Bold-67" transform="translate(433.578125 0)"/>
     <use xlink:href="#MicrosoftYaHei-Bold-72" transform="translate(500.033203 0)"/>
     <use xlink:href="#MicrosoftYaHei-Bold-61" transform="translate(542.416016 0)"/>
     <use xlink:href="#MicrosoftYaHei-Bold-6d" transform="translate(600.179688 0)"/>
    </g>
    <!-- ah -->
    <g style="fill: #f39c12" transform="translate(194.044375 139.241927) scale(0.1 -0.1)">
     <use xlink:href="#MicrosoftYaHei-Bold-61"/>
     <use xlink:href="#MicrosoftYaHei-Bold-68" transform="translate(57.763672 0)"/>
    </g>
   </g>
   <g id="text_8">
    <!-- S = ah -->
    <g style="fill: #2c3e50" transform="translate(349.027266 133.459896) scale(0.11 -0.11)">
     <use xlink:href="#DejaVuSerif-Bold-53"/>
     <use xlink:href="#DejaVuSerif-Bold-20" transform="translate(72.216797 0)"/>
     <use xlink:href="#DejaVuSerif-Bold-3d" transform="translate(107.03125 0)"/>
     <use xlink:href="#DejaVuSerif-Bold-20" transform="translate(190.820312 0)"/>
     <use xlink:href="#DejaVuSerif-Bold-61" transform="translate(225.634766 0)"/>
     <use xlink:href="#DejaVuSerif-Bold-68" transform="translate(290.429688 0)"/>
    </g>
   </g>
   <g id="text_9">
    <!-- Trapezoid -->
    <g style="fill: #9b59b6" transform="translate(175.539687 86.325938) scale(0.1 -0.1)">
     <defs>
      <path id="MicrosoftYaHei-Bold-70" d="M 1469 416 
L 1469 -1591 
L 459 -1591 
L 459 3456 
L 1469 3456 
L 1469 2928 
L 1481 2928 
Q 1878 3541 2603 3541 
Q 3263 3541 3634 3080 
Q 4006 2619 4006 1825 
Q 4006 959 3575 437 
Q 3144 -84 2444 -84 
Q 1809 -84 1481 416 
L 1469 416 
z
M 1453 1528 
Q 1453 1159 1653 925 
Q 1853 691 2172 691 
Q 2550 691 2761 984 
Q 2972 1278 2972 1816 
Q 2972 2766 2231 2766 
Q 1888 2766 1670 2503 
Q 1453 2241 1453 1828 
L 1453 1528 
z
" transform="scale(0.015625)"/>
      <path id="MicrosoftYaHei-Bold-7a" d="M 3159 0 
L 88 0 
L 88 409 
L 1856 2703 
L 263 2703 
L 263 3456 
L 3150 3456 
L 3150 2969 
L 1459 753 
L 3159 753 
L 3159 0 
z
" transform="scale(0.015625)"/>
      <path id="MicrosoftYaHei-Bold-64" d="M 3794 0 
L 2788 0 
L 2788 488 
L 2772 488 
Q 2406 -84 1691 -84 
Q 1031 -84 642 381 
Q 253 847 253 1650 
Q 253 2500 689 3020 
Q 1125 3541 1828 3541 
Q 2503 3541 2772 3053 
L 2788 3053 
L 2788 5116 
L 3794 5116 
L 3794 0 
z
M 2803 1956 
Q 2803 2306 2592 2536 
Q 2381 2766 2066 2766 
Q 1697 2766 1486 2473 
Q 1275 2181 1275 1681 
Q 1275 1206 1478 948 
Q 1681 691 2038 691 
Q 2372 691 2587 962 
Q 2803 1234 2803 1669 
L 2803 1956 
z
" transform="scale(0.015625)"/>
     </defs>
     <use xlink:href="#MicrosoftYaHei-Bold-54"/>
     <use xlink:href="#MicrosoftYaHei-Bold-72" transform="translate(54.298828 0)"/>
     <use xlink:href="#MicrosoftYaHei-Bold-61" transform="translate(96.681641 0)"/>
     <use xlink:href="#MicrosoftYaHei-Bold-70" transform="translate(154.445312 0)"/>
     <use xlink:href="#MicrosoftYaHei-Bold-65" transform="translate(221.046875 0)"/>
     <use xlink:href="#MicrosoftYaHei-Bold-7a" transform="translate(279.25 0)"/>
     <use xlink:href="#MicrosoftYaHei-Bold-6f" transform="translate(330.617188 0)"/>
     <use xlink:href="#MicrosoftYaHei-Bold-69" transform="translate(396.339844 0)"/>
     <use xlink:href="#MicrosoftYaHei-Bold-64" transform="translate(425.929688 0)"/>
    </g>
    <!-- (1/2)(a+b)h -->
    <g style="fill: #9b59b6" transform="translate(170.583438 98.404375) scale(0.1 -0.1)">
     <defs>
      <path id="MicrosoftYaHei-Bold-2b" d="M 4072 1653 
L 2766 1653 
L 2766 347 
L 2109 347 
L 2109 1653 
L 797 1653 
L 797 2313 
L 2109 2313 
L 2109 3625 
L 2766 3625 
L 2766 2313 
L 4072 2313 
L 4072 1653 
z
" transform="scale(0.015625)"/>
     </defs>
     <use xlink:href="#MicrosoftYaHei-Bold-28"/>
     <use xlink:href="#MicrosoftYaHei-Bold-31" transform="translate(38.964844 0)"/>
     <use xlink:href="#MicrosoftYaHei-Bold-2f" transform="translate(100.634766 0)"/>
     <use xlink:href="#MicrosoftYaHei-Bold-32" transform="translate(147.900391 0)"/>
     <use xlink:href="#MicrosoftYaHei-Bold-29" transform="translate(209.570312 0)"/>
     <use xlink:href="#MicrosoftYaHei-Bold-28" transform="translate(248.535156 0)"/>
     <use xlink:href="#MicrosoftYaHei-Bold-61" transform="translate(287.5 0)"/>
     <use xlink:href="#MicrosoftYaHei-Bold-2b" transform="translate(345.263672 0)"/>
     <use xlink:href="#MicrosoftYaHei-Bold-62" transform="translate(421.386719 0)"/>
     <use xlink:href="#MicrosoftYaHei-Bold-29" transform="translate(487.988281 0)"/>
     <use xlink:href="#MicrosoftYaHei-Bold-68" transform="translate(526.953125 0)"/>
    </g>
   </g>
   <g id="text_10">
    <!-- S = ½(a+b)h -->
    <g style="fill: #2c3e50" transform="translate(329.632031 92.646563) scale(0.11 -0.11)">
     <defs>
      <path id="DejaVuSerif-Bold-28" d="M 2694 -997 
Q 1641 -606 1122 122 
Q 603 850 603 1931 
Q 603 3013 1115 3731 
Q 1628 4450 2694 4863 
L 2694 4488 
Q 2200 4188 1983 3598 
Q 1766 3009 1766 1931 
Q 1766 856 1983 267 
Q 2200 -322 2694 -622 
L 2694 -997 
z
" transform="scale(0.015625)"/>
      <path id="DejaVuSerif-Bold-2b" d="M 3041 4013 
L 3041 2369 
L 4684 2369 
L 4684 1650 
L 3041 1650 
L 3041 6 
L 2322 6 
L 2322 1650 
L 678 1650 
L 678 2369 
L 2322 2369 
L 2322 4013 
L 3041 4013 
z
" transform="scale(0.015625)"/>
      <path id="DejaVuSerif-Bold-29" d="M 325 -997 
L 325 -622 
Q 819 -322 1036 267 
Q 1253 856 1253 1931 
Q 1253 3009 1036 3598 
Q 819 4188 325 4488 
L 325 4863 
Q 1391 4450 1905 3731 
Q 2419 3013 2419 1931 
Q 2419 850 1898 122 
Q 1378 -606 325 -997 
z
" transform="scale(0.015625)"/>
     </defs>
     <use xlink:href="#DejaVuSerif-Bold-53"/>
     <use xlink:href="#DejaVuSerif-Bold-20" transform="translate(72.216797 0)"/>
     <use xlink:href="#DejaVuSerif-Bold-3d" transform="translate(107.03125 0)"/>
     <use xlink:href="#DejaVuSerif-Bold-20" transform="translate(190.820312 0)"/>
     <use xlink:href="#DejaVuSerif-Bold-bd" transform="translate(225.634766 0)"/>
     <use xlink:href="#DejaVuSerif-Bold-28" transform="translate(329.931641 0)"/>
     <use xlink:href="#DejaVuSerif-Bold-61" transform="translate(377.246094 0)"/>
     <use xlink:href="#DejaVuSerif-Bold-2b" transform="translate(442.041016 0)"/>
     <use xlink:href="#DejaVuSerif-Bold-62" transform="translate(525.830078 0)"/>
     <use xlink:href="#DejaVuSerif-Bold-29" transform="translate(595.751953 0)"/>
     <use xlink:href="#DejaVuSerif-Bold-68" transform="translate(643.066406 0)"/>
    </g>
   </g>
   <g id="text_11">
    <!-- Circle -->
    <g style="fill: #1abc9c" transform="translate(186.246719 45.512604) scale(0.1 -0.1)">
     <defs>
      <path id="MicrosoftYaHei-Bold-43" d="M 4013 175 
Q 3484 -84 2634 -84 
Q 1541 -84 898 570 
Q 256 1225 256 2316 
Q 256 3463 973 4192 
Q 1691 4922 2825 4922 
Q 3534 4922 4013 4738 
L 4013 3741 
Q 3522 4028 2900 4028 
Q 2191 4028 1766 3575 
Q 1341 3122 1341 2391 
Q 1341 1678 1744 1243 
Q 2147 809 2834 809 
Q 3481 809 4013 1122 
L 4013 175 
z
" transform="scale(0.015625)"/>
     </defs>
     <use xlink:href="#MicrosoftYaHei-Bold-43"/>
     <use xlink:href="#MicrosoftYaHei-Bold-69" transform="translate(67.333984 0)"/>
     <use xlink:href="#MicrosoftYaHei-Bold-72" transform="translate(96.923828 0)"/>
     <use xlink:href="#MicrosoftYaHei-Bold-63" transform="translate(138.806641 0)"/>
     <use xlink:href="#MicrosoftYaHei-Bold-6c" transform="translate(190.466797 0)"/>
     <use xlink:href="#MicrosoftYaHei-Bold-65" transform="translate(220.056641 0)"/>
    </g>
    <!-- pir^2 -->
    <g style="fill: #1abc9c" transform="translate(186.340469 57.591042) scale(0.1 -0.1)">
     <use xlink:href="#MicrosoftYaHei-Bold-70"/>
     <use xlink:href="#MicrosoftYaHei-Bold-69" transform="translate(66.601562 0)"/>
     <use xlink:href="#MicrosoftYaHei-Bold-72" transform="translate(96.191406 0)"/>
     <use xlink:href="#MicrosoftYaHei-Bold-5e" transform="translate(138.574219 0)"/>
     <use xlink:href="#MicrosoftYaHei-Bold-32" transform="translate(214.697266 0)"/>
    </g>
   </g>
   <g id="text_12">
    <!-- S = πr² -->
    <g style="fill: #2c3e50" transform="translate(347.257812 51.833229) scale(0.11 -0.11)">
     <defs>
      <path id="DejaVuSerif-Bold-3c0" d="M 219 0 
L 219 378 
L 691 378 
L 691 2944 
L 219 2944 
L 219 3322 
L 4469 3322 
L 4469 2944 
L 3994 2944 
L 3994 378 
L 4469 378 
L 4469 0 
L 2478 0 
L 2478 378 
L 2888 378 
L 2888 2944 
L 1797 2944 
L 1797 378 
L 2203 378 
L 2203 0 
L 219 0 
z
" transform="scale(0.015625)"/>
      <path id="DejaVuSerif-Bold-72" d="M 3438 3359 
L 3438 2369 
L 3084 2369 
Q 3066 2634 2941 2764 
Q 2816 2894 2578 2894 
Q 2216 2894 2006 2575 
Q 1797 2256 1797 1691 
L 1797 378 
L 2400 378 
L 2400 0 
L 219 0 
L 219 378 
L 691 378 
L 691 2944 
L 184 2944 
L 184 3322 
L 1797 3322 
L 1797 2731 
Q 1959 3078 2226 3245 
Q 2494 3413 2881 3413 
Q 2978 3413 3117 3398 
Q 3256 3384 3438 3359 
z
" transform="scale(0.015625)"/>
     </defs>
     <use xlink:href="#DejaVuSerif-Bold-53"/>
     <use xlink:href="#DejaVuSerif-Bold-20" transform="translate(72.216797 0)"/>
     <use xlink:href="#DejaVuSerif-Bold-3d" transform="translate(107.03125 0)"/>
     <use xlink:href="#DejaVuSerif-Bold-20" transform="translate(190.820312 0)"/>
     <use xlink:href="#DejaVuSerif-Bold-3c0" transform="translate(225.634766 0)"/>
     <use xlink:href="#DejaVuSerif-Bold-72" transform="translate(298.828125 0)"/>
     <use xlink:href="#DejaVuSerif-Bold-b2" transform="translate(351.513672 0)"/>
    </g>
   </g>
   <g id="text_13">
    <!-- Common Plane Figure Area Formulas -->
    <g style="fill: #2c3e50" transform="translate(117.582031 18.39125) scale(0.14 -0.14)">
     <defs>
      <path id="MicrosoftYaHei-Bold-20" transform="scale(0.015625)"/>
      <path id="MicrosoftYaHei-Bold-46" d="M 3319 3997 
L 1591 3997 
L 1591 2753 
L 3181 2753 
L 3181 1909 
L 1591 1909 
L 1591 0 
L 559 0 
L 559 4841 
L 3319 4841 
L 3319 3997 
z
" transform="scale(0.015625)"/>
      <path id="MicrosoftYaHei-Bold-41" d="M 4759 0 
L 3634 0 
L 3272 1109 
L 1513 1109 
L 1156 0 
L 38 0 
L 1809 4841 
L 3022 4841 
L 4759 0 
z
M 3028 1906 
L 2478 3584 
Q 2425 3744 2403 4006 
L 2375 4006 
Q 2356 3794 2291 3597 
L 1738 1906 
L 3028 1906 
z
" transform="scale(0.015625)"/>
      <path id="MicrosoftYaHei-Bold-73" d="M 369 928 
Q 888 613 1384 613 
Q 2009 613 2009 947 
Q 2009 1184 1494 1344 
Q 850 1544 609 1789 
Q 369 2034 369 2453 
Q 369 2963 781 3252 
Q 1194 3541 1863 3541 
Q 2338 3541 2778 3400 
L 2778 2606 
Q 2375 2844 1891 2844 
Q 1650 2844 1503 2758 
Q 1356 2672 1356 2531 
Q 1356 2294 1794 2147 
Q 2263 1991 2498 1862 
Q 2734 1734 2857 1525 
Q 2981 1316 2981 1041 
Q 2981 506 2553 211 
Q 2125 -84 1409 -84 
Q 847 -84 369 94 
L 369 928 
z
" transform="scale(0.015625)"/>
     </defs>
     <use xlink:href="#MicrosoftYaHei-Bold-43"/>
     <use xlink:href="#MicrosoftYaHei-Bold-6f" transform="translate(67.333984 0)"/>
     <use xlink:href="#MicrosoftYaHei-Bold-6d" transform="translate(133.056641 0)"/>
     <use xlink:href="#MicrosoftYaHei-Bold-6d" transform="translate(231.25 0)"/>
     <use xlink:href="#MicrosoftYaHei-Bold-6f" transform="translate(329.443359 0)"/>
     <use xlink:href="#MicrosoftYaHei-Bold-6e" transform="translate(395.166016 0)"/>
     <use xlink:href="#MicrosoftYaHei-Bold-20" transform="translate(459.960938 0)"/>
     <use xlink:href="#MicrosoftYaHei-Bold-50" transform="translate(489.746094 0)"/>
     <use xlink:href="#MicrosoftYaHei-Bold-6c" transform="translate(555.46875 0)"/>
     <use xlink:href="#MicrosoftYaHei-Bold-61" transform="translate(585.058594 0)"/>
     <use xlink:href="#MicrosoftYaHei-Bold-6e" transform="translate(642.822266 0)"/>
     <use xlink:href="#MicrosoftYaHei-Bold-65" transform="translate(707.617188 0)"/>
     <use xlink:href="#MicrosoftYaHei-Bold-20" transform="translate(765.820312 0)"/>
     <use xlink:href="#MicrosoftYaHei-Bold-46" transform="translate(795.605469 0)"/>
     <use xlink:href="#MicrosoftYaHei-Bold-69" transform="translate(851.416016 0)"/>
     <use xlink:href="#MicrosoftYaHei-Bold-67" transform="translate(881.005859 0)"/>
     <use xlink:href="#MicrosoftYaHei-Bold-75" transform="translate(947.460938 0)"/>
     <use xlink:href="#MicrosoftYaHei-Bold-72" transform="translate(1012.255859 0)"/>
     <use xlink:href="#MicrosoftYaHei-Bold-65" transform="translate(1054.138672 0)"/>
     <use xlink:href="#MicrosoftYaHei-Bold-20" transform="translate(1112.341797 0)"/>
     <use xlink:href="#MicrosoftYaHei-Bold-41" transform="translate(1142.126953 0)"/>
     <use xlink:href="#MicrosoftYaHei-Bold-72" transform="translate(1217.322266 0)"/>
     <use xlink:href="#MicrosoftYaHei-Bold-65" transform="translate(1259.205078 0)"/>
     <use xlink:href="#MicrosoftYaHei-Bold-61" transform="translate(1317.408203 0)"/>
     <use xlink:href="#MicrosoftYaHei-Bold-20" transform="translate(1375.171875 0)"/>
     <use xlink:href="#MicrosoftYaHei-Bold-46" transform="translate(1404.957031 0)"/>
     <use xlink:href="#MicrosoftYaHei-Bold-6f" transform="translate(1460.767578 0)"/>
     <use xlink:href="#MicrosoftYaHei-Bold-72" transform="translate(1526.490234 0)"/>
     <use xlink:href="#MicrosoftYaHei-Bold-6d" transform="translate(1569.123047 0)"/>
     <use xlink:href="#MicrosoftYaHei-Bold-75" transform="translate(1667.316406 0)"/>
     <use xlink:href="#MicrosoftYaHei-Bold-6c" transform="translate(1732.111328 0)"/>
     <use xlink:href="#MicrosoftYaHei-Bold-61" transform="translate(1761.701172 0)"/>
     <use xlink:href="#MicrosoftYaHei-Bold-73" transform="translate(1819.464844 0)"/>
    </g>
   </g>
  </g>
 </g>
 <defs>
  <clipPath id="pf29661d0ef">
   <rect x="7.2" y="28.39125" width="482.4" height="244.88"/>
  </clipPath>
 </defs>
</svg>
