<?xml version="1.0" encoding="utf-8" standalone="no"?>
<!DOCTYPE svg PUBLIC "-//W3C//DTD SVG 1.1//EN"
  "http://www.w3.org/Graphics/SVG/1.1/DTD/svg11.dtd">
<svg xmlns:xlink="http://www.w3.org/1999/xlink" width="416.718pt" height="515.956425pt" viewBox="0 0 416.718 515.956425" xmlns="http://www.w3.org/2000/svg" version="1.1">
 <metadata>
  <rdf:RDF xmlns:dc="http://purl.org/dc/elements/1.1/" xmlns:cc="http://creativecommons.org/ns#" xmlns:rdf="http://www.w3.org/1999/02/22-rdf-syntax-ns#">
   <cc:Work>
    <dc:type rdf:resource="http://purl.org/dc/dcmitype/StillImage"/>
    <dc:date>2026-05-25T22:47:19.268811</dc:date>
    <dc:format>image/svg+xml</dc:format>
    <dc:creator>
     <cc:Agent>
      <dc:title>Matplotlib v3.10.9, https://matplotlib.org/</dc:title>
     </cc:Agent>
    </dc:creator>
   </cc:Work>
  </rdf:RDF>
 </metadata>
 <defs>
  <style type="text/css">*{stroke-linejoin: round; stroke-linecap: butt}</style>
 </defs>
 <g id="figure_1">
  <g id="patch_1">
   <path d="M 0 515.956425 
L 416.718 515.956425 
L 416.718 0 
L 0 0 
z
" style="fill: #ffffff"/>
  </g>
  <g id="axes_1">
   <g id="FillBetweenPolyCollection_1">
    <defs>
     <path id="me81518694e" d="M 18.918 -124.943925 
L 18.918 -25.151925 
L 175.158 -25.151925 
L 253.278 -25.151925 
L 409.518 -25.151925 
L 409.518 -524.111925 
L 409.518 -524.111925 
L 253.278 -324.527925 
L 175.158 -324.527925 
L 18.918 -124.943925 
z
" style="stroke: #3498db; stroke-opacity: 0.1"/>
    </defs>
    <g clip-path="url(#p236badb182)">
     <use xlink:href="#me81518694e" x="0" y="515.956425" style="fill: #3498db; fill-opacity: 0.1; stroke: #3498db; stroke-opacity: 0.1"/>
    </g>
   </g>
   <g id="line2d_1">
    <path d="M 18.918 490.8045 
L 409.518 490.8045 
" clip-path="url(#p236badb182)" style="fill: none; stroke: #000000; stroke-width: 0.8; stroke-linecap: square"/>
   </g>
   <g id="line2d_2">
    <path d="M 18.918 490.8045 
L 18.918 -1 
" clip-path="url(#p236badb182)" style="fill: none; stroke: #000000; stroke-width: 0.8; stroke-linecap: square"/>
   </g>
   <g id="line2d_3">
    <path d="M 18.918 391.0125 
L 175.158 191.4285 
" clip-path="url(#p236badb182)" style="fill: none; stroke: #0000ff; stroke-width: 2; stroke-linecap: square"/>
   </g>
   <g id="line2d_4">
    <path d="M 175.158 191.4285 
L 253.278 191.4285 
" clip-path="url(#p236badb182)" style="fill: none; stroke: #0000ff; stroke-width: 2; stroke-linecap: square"/>
   </g>
   <g id="line2d_5">
    <path d="M 253.278 191.4285 
L 403.916472 -1 
" clip-path="url(#p236badb182)" style="fill: none; stroke: #0000ff; stroke-width: 2; stroke-linecap: square"/>
   </g>
   <g id="line2d_6">
    <path d="M 18.918 391.0125 
L 175.158 191.4285 
L 253.278 191.4285 
L 403.916472 -1 
" clip-path="url(#p236badb182)" style="fill: none; stroke: #0000ff; stroke-width: 2.5; stroke-linecap: square"/>
   </g>
   <g id="text_1">
    <g id="patch_2">
     <path d="M 163.830656 419.997844 
L 264.605344 419.997844 
Q 266.405344 419.997844 266.405344 418.197844 
L 266.405344 408.766125 
Q 266.405344 406.966125 264.605344 406.966125 
L 163.830656 406.966125 
Q 162.030656 406.966125 162.030656 408.766125 
L 162.030656 418.197844 
Q 162.030656 419.997844 163.830656 419.997844 
z
" style="fill: #ffffff; opacity: 0.8; stroke: #3498db; stroke-linejoin: miter"/>
    </g>
    <!-- Area = displacement s -->
    <g style="fill: #3498db" transform="translate(163.830656 415.9605) scale(0.09 -0.09)">
     <defs>
      <path id="MicrosoftYaHei-Bold-41" d="M 4759 0 
L 3634 0 
L 3272 1109 
L 1513 1109 
L 1156 0 
L 38 0 
L 1809 4841 
L 3022 4841 
L 4759 0 
z
M 3028 1906 
L 2478 3584 
Q 2425 3744 2403 4006 
L 2375 4006 
Q 2356 3794 2291 3597 
L 1738 1906 
L 3028 1906 
z
" transform="scale(0.015625)"/>
      <path id="MicrosoftYaHei-Bold-72" d="M 2663 2541 
Q 2478 2647 2216 2647 
Q 1872 2647 1670 2384 
Q 1469 2122 1469 1663 
L 1469 0 
L 459 0 
L 459 3456 
L 1469 3456 
L 1469 2806 
L 1481 2806 
Q 1731 3516 2391 3516 
Q 2569 3516 2663 3475 
L 2663 2541 
z
" transform="scale(0.015625)"/>
      <path id="MicrosoftYaHei-Bold-65" d="M 3528 1444 
L 1253 1444 
Q 1306 641 2222 641 
Q 2794 641 3231 922 
L 3231 181 
Q 2759 -84 1994 -84 
Q 1169 -84 711 381 
Q 253 847 253 1678 
Q 253 2506 740 3023 
Q 1228 3541 1966 3541 
Q 2700 3541 3114 3095 
Q 3528 2650 3528 1872 
L 3528 1444 
z
M 2588 2075 
Q 2588 2850 1959 2850 
Q 1700 2850 1500 2637 
Q 1300 2425 1250 2075 
L 2588 2075 
z
" transform="scale(0.015625)"/>
      <path id="MicrosoftYaHei-Bold-61" d="M 544 3247 
Q 778 3378 1170 3459 
Q 1563 3541 1841 3541 
Q 3291 3541 3291 2088 
L 3291 0 
L 2331 0 
L 2331 503 
L 2319 503 
Q 1966 -84 1284 -84 
Q 794 -84 498 195 
Q 203 475 203 956 
Q 203 1950 1388 2113 
L 2338 2241 
Q 2338 2844 1709 2844 
Q 1091 2844 544 2469 
L 544 3247 
z
M 1684 1566 
Q 1138 1494 1138 1072 
Q 1138 878 1270 759 
Q 1403 641 1628 641 
Q 1938 641 2138 859 
Q 2338 1078 2338 1403 
L 2338 1650 
L 1684 1566 
z
" transform="scale(0.015625)"/>
      <path id="MicrosoftYaHei-Bold-20" transform="scale(0.015625)"/>
      <path id="MicrosoftYaHei-Bold-3d" d="M 4072 2378 
L 797 2378 
L 797 3041 
L 4072 3041 
L 4072 2378 
z
M 4072 916 
L 797 916 
L 797 1578 
L 4072 1578 
L 4072 916 
z
" transform="scale(0.015625)"/>
      <path id="MicrosoftYaHei-Bold-64" d="M 3794 0 
L 2788 0 
L 2788 488 
L 2772 488 
Q 2406 -84 1691 -84 
Q 1031 -84 642 381 
Q 253 847 253 1650 
Q 253 2500 689 3020 
Q 1125 3541 1828 3541 
Q 2503 3541 2772 3053 
L 2788 3053 
L 2788 5116 
L 3794 5116 
L 3794 0 
z
M 2803 1956 
Q 2803 2306 2592 2536 
Q 2381 2766 2066 2766 
Q 1697 2766 1486 2473 
Q 1275 2181 1275 1681 
Q 1275 1206 1478 948 
Q 1681 691 2038 691 
Q 2372 691 2587 962 
Q 2803 1234 2803 1669 
L 2803 1956 
z
" transform="scale(0.015625)"/>
      <path id="MicrosoftYaHei-Bold-69" d="M 369 4572 
Q 369 4803 533 4948 
Q 697 5094 953 5094 
Q 1216 5094 1378 4945 
Q 1541 4797 1541 4572 
Q 1541 4344 1375 4192 
Q 1209 4041 953 4041 
Q 700 4041 534 4194 
Q 369 4347 369 4572 
z
M 444 0 
L 444 3456 
L 1450 3456 
L 1450 0 
L 444 0 
z
" transform="scale(0.015625)"/>
      <path id="MicrosoftYaHei-Bold-73" d="M 369 928 
Q 888 613 1384 613 
Q 2009 613 2009 947 
Q 2009 1184 1494 1344 
Q 850 1544 609 1789 
Q 369 2034 369 2453 
Q 369 2963 781 3252 
Q 1194 3541 1863 3541 
Q 2338 3541 2778 3400 
L 2778 2606 
Q 2375 2844 1891 2844 
Q 1650 2844 1503 2758 
Q 1356 2672 1356 2531 
Q 1356 2294 1794 2147 
Q 2263 1991 2498 1862 
Q 2734 1734 2857 1525 
Q 2981 1316 2981 1041 
Q 2981 506 2553 211 
Q 2125 -84 1409 -84 
Q 847 -84 369 94 
L 369 928 
z
" transform="scale(0.015625)"/>
      <path id="MicrosoftYaHei-Bold-70" d="M 1469 416 
L 1469 -1591 
L 459 -1591 
L 459 3456 
L 1469 3456 
L 1469 2928 
L 1481 2928 
Q 1878 3541 2603 3541 
Q 3263 3541 3634 3080 
Q 4006 2619 4006 1825 
Q 4006 959 3575 437 
Q 3144 -84 2444 -84 
Q 1809 -84 1481 416 
L 1469 416 
z
M 1453 1528 
Q 1453 1159 1653 925 
Q 1853 691 2172 691 
Q 2550 691 2761 984 
Q 2972 1278 2972 1816 
Q 2972 2766 2231 2766 
Q 1888 2766 1670 2503 
Q 1453 2241 1453 1828 
L 1453 1528 
z
" transform="scale(0.015625)"/>
      <path id="MicrosoftYaHei-Bold-6c" d="M 444 0 
L 444 5116 
L 1450 5116 
L 1450 0 
L 444 0 
z
" transform="scale(0.015625)"/>
      <path id="MicrosoftYaHei-Bold-63" d="M 3050 128 
Q 2688 -84 2019 -84 
Q 1228 -84 740 397 
Q 253 878 253 1644 
Q 253 2525 778 3033 
Q 1303 3541 2178 3541 
Q 2769 3541 3053 3378 
L 3053 2513 
Q 2706 2766 2297 2766 
Q 1834 2766 1554 2484 
Q 1275 2203 1275 1713 
Q 1275 1238 1540 964 
Q 1806 691 2263 691 
Q 2666 691 3050 947 
L 3050 128 
z
" transform="scale(0.015625)"/>
      <path id="MicrosoftYaHei-Bold-6d" d="M 5881 0 
L 4875 0 
L 4875 1972 
Q 4875 2766 4297 2766 
Q 4028 2766 3850 2525 
Q 3672 2284 3672 1938 
L 3672 0 
L 2666 0 
L 2666 1997 
Q 2666 2766 2094 2766 
Q 1809 2766 1639 2536 
Q 1469 2306 1469 1928 
L 1469 0 
L 459 0 
L 459 3456 
L 1469 3456 
L 1469 2916 
L 1481 2916 
Q 1663 3213 1963 3377 
Q 2263 3541 2594 3541 
Q 3322 3541 3591 2888 
Q 3991 3541 4753 3541 
Q 5881 3541 5881 2147 
L 5881 0 
z
" transform="scale(0.015625)"/>
      <path id="MicrosoftYaHei-Bold-6e" d="M 3744 0 
L 2741 0 
L 2741 1928 
Q 2741 2766 2138 2766 
Q 1850 2766 1659 2542 
Q 1469 2319 1469 1972 
L 1469 0 
L 459 0 
L 459 3456 
L 1469 3456 
L 1469 2906 
L 1481 2906 
Q 1859 3541 2594 3541 
Q 3744 3541 3744 2116 
L 3744 0 
z
" transform="scale(0.015625)"/>
      <path id="MicrosoftYaHei-Bold-74" d="M 2494 41 
Q 2266 -84 1803 -84 
Q 703 -84 703 1072 
L 703 2703 
L 134 2703 
L 134 3456 
L 703 3456 
L 703 4216 
L 1706 4503 
L 1706 3456 
L 2494 3456 
L 2494 2703 
L 1706 2703 
L 1706 1247 
Q 1706 694 2144 694 
Q 2313 694 2494 794 
L 2494 41 
z
" transform="scale(0.015625)"/>
     </defs>
     <use xlink:href="#MicrosoftYaHei-Bold-41"/>
     <use xlink:href="#MicrosoftYaHei-Bold-72" transform="translate(75.195312 0)"/>
     <use xlink:href="#MicrosoftYaHei-Bold-65" transform="translate(117.078125 0)"/>
     <use xlink:href="#MicrosoftYaHei-Bold-61" transform="translate(175.28125 0)"/>
     <use xlink:href="#MicrosoftYaHei-Bold-20" transform="translate(233.044922 0)"/>
     <use xlink:href="#MicrosoftYaHei-Bold-3d" transform="translate(262.830078 0)"/>
     <use xlink:href="#MicrosoftYaHei-Bold-20" transform="translate(338.953125 0)"/>
     <use xlink:href="#MicrosoftYaHei-Bold-64" transform="translate(368.738281 0)"/>
     <use xlink:href="#MicrosoftYaHei-Bold-69" transform="translate(435.193359 0)"/>
     <use xlink:href="#MicrosoftYaHei-Bold-73" transform="translate(464.783203 0)"/>
     <use xlink:href="#MicrosoftYaHei-Bold-70" transform="translate(514.148438 0)"/>
     <use xlink:href="#MicrosoftYaHei-Bold-6c" transform="translate(580.75 0)"/>
     <use xlink:href="#MicrosoftYaHei-Bold-61" transform="translate(610.339844 0)"/>
     <use xlink:href="#MicrosoftYaHei-Bold-63" transform="translate(668.103516 0)"/>
     <use xlink:href="#MicrosoftYaHei-Bold-65" transform="translate(719.763672 0)"/>
     <use xlink:href="#MicrosoftYaHei-Bold-6d" transform="translate(777.966797 0)"/>
     <use xlink:href="#MicrosoftYaHei-Bold-65" transform="translate(876.160156 0)"/>
     <use xlink:href="#MicrosoftYaHei-Bold-6e" transform="translate(934.363281 0)"/>
     <use xlink:href="#MicrosoftYaHei-Bold-74" transform="translate(999.158203 0)"/>
     <use xlink:href="#MicrosoftYaHei-Bold-20" transform="translate(1040.564453 0)"/>
     <use xlink:href="#MicrosoftYaHei-Bold-73" transform="translate(1070.349609 0)"/>
    </g>
   </g>
   <g id="text_2">
    <!-- t -->
    <g transform="translate(389.988 505.7733) scale(0.12 -0.12)">
     <use xlink:href="#MicrosoftYaHei-Bold-74"/>
    </g>
   </g>
   <g id="text_3">
    <!-- v -->
    <g transform="translate(7.2 16.7925) scale(0.12 -0.12)">
     <defs>
      <path id="MicrosoftYaHei-Bold-76" d="M 3688 3456 
L 2391 0 
L 1250 0 
L 16 3456 
L 1097 3456 
L 1731 1281 
Q 1834 925 1847 684 
L 1863 684 
Q 1888 931 1984 1263 
L 2631 3456 
L 3688 3456 
z
" transform="scale(0.015625)"/>
     </defs>
     <use xlink:href="#MicrosoftYaHei-Bold-76"/>
    </g>
   </g>
   <g id="text_4">
    <!-- v = v₀ + at -->
    <g style="fill: #e74c3c" transform="translate(38.448 66.6885) scale(0.1 -0.1)">
     <defs>
      <path id="MicrosoftYaHei-Bold-2080" d="M 559 0 
L 559 4719 
L 3900 4719 
L 3900 0 
L 559 0 
z
M 1059 500 
L 3403 500 
L 3403 4219 
L 1059 4219 
L 1059 500 
z
" transform="scale(0.015625)"/>
      <path id="MicrosoftYaHei-Bold-2b" d="M 4072 1653 
L 2766 1653 
L 2766 347 
L 2109 347 
L 2109 1653 
L 797 1653 
L 797 2313 
L 2109 2313 
L 2109 3625 
L 2766 3625 
L 2766 2313 
L 4072 2313 
L 4072 1653 
z
" transform="scale(0.015625)"/>
     </defs>
     <use xlink:href="#MicrosoftYaHei-Bold-76"/>
     <use xlink:href="#MicrosoftYaHei-Bold-20" transform="translate(57.714844 0)"/>
     <use xlink:href="#MicrosoftYaHei-Bold-3d" transform="translate(87.5 0)"/>
     <use xlink:href="#MicrosoftYaHei-Bold-20" transform="translate(163.623047 0)"/>
     <use xlink:href="#MicrosoftYaHei-Bold-76" transform="translate(193.408203 0)"/>
     <use xlink:href="#MicrosoftYaHei-Bold-2080" transform="translate(251.123047 0)"/>
     <use xlink:href="#MicrosoftYaHei-Bold-20" transform="translate(320.849609 0)"/>
     <use xlink:href="#MicrosoftYaHei-Bold-2b" transform="translate(350.634766 0)"/>
     <use xlink:href="#MicrosoftYaHei-Bold-20" transform="translate(426.757812 0)"/>
     <use xlink:href="#MicrosoftYaHei-Bold-61" transform="translate(456.542969 0)"/>
     <use xlink:href="#MicrosoftYaHei-Bold-74" transform="translate(514.306641 0)"/>
    </g>
   </g>
   <g id="text_5">
    <!-- s = v₀t + ½at² -->
    <g style="fill: #e74c3c" transform="translate(38.448 116.5845) scale(0.1 -0.1)">
     <defs>
      <path id="MicrosoftYaHei-Bold-bd" d="M 2267 1972 
L 389 1972 
L 389 2528 
L 986 2528 
L 986 4184 
L 339 4038 
L 339 4628 
L 1680 4906 
L 1680 2528 
L 2267 2528 
L 2267 1972 
z
M 5117 4841 
L 2123 0 
L 1339 0 
L 4333 4841 
L 5117 4841 
z
M 5949 -12 
L 3927 -12 
L 3927 500 
L 4761 1291 
Q 5033 1547 5098 1675 
Q 5164 1804 5164 1966 
Q 5164 2116 5065 2211 
Q 4967 2307 4802 2307 
Q 4461 2307 4086 1960 
L 4086 2660 
Q 4470 2922 4924 2922 
Q 5374 2922 5641 2692 
Q 5908 2463 5908 2060 
Q 5908 1754 5766 1535 
Q 5624 1316 5177 916 
L 4802 579 
L 4802 566 
L 5949 566 
L 5949 -12 
z
" transform="scale(0.015625)"/>
      <path id="MicrosoftYaHei-Bold-b2" d="M 2413 1972 
L 391 1972 
L 391 2484 
L 1225 3275 
Q 1497 3531 1562 3659 
Q 1628 3788 1628 3950 
Q 1628 4100 1529 4195 
Q 1431 4291 1266 4291 
Q 925 4291 550 3944 
L 550 4644 
Q 934 4906 1388 4906 
Q 1838 4906 2105 4676 
Q 2372 4447 2372 4044 
Q 2372 3738 2230 3519 
Q 2088 3300 1641 2900 
L 1266 2563 
L 1266 2550 
L 2413 2550 
L 2413 1972 
z
" transform="scale(0.015625)"/>
     </defs>
     <use xlink:href="#MicrosoftYaHei-Bold-73"/>
     <use xlink:href="#MicrosoftYaHei-Bold-20" transform="translate(49.365234 0)"/>
     <use xlink:href="#MicrosoftYaHei-Bold-3d" transform="translate(79.150391 0)"/>
     <use xlink:href="#MicrosoftYaHei-Bold-20" transform="translate(155.273438 0)"/>
     <use xlink:href="#MicrosoftYaHei-Bold-76" transform="translate(185.058594 0)"/>
     <use xlink:href="#MicrosoftYaHei-Bold-2080" transform="translate(242.773438 0)"/>
     <use xlink:href="#MicrosoftYaHei-Bold-74" transform="translate(312.5 0)"/>
     <use xlink:href="#MicrosoftYaHei-Bold-20" transform="translate(353.90625 0)"/>
     <use xlink:href="#MicrosoftYaHei-Bold-2b" transform="translate(383.691406 0)"/>
     <use xlink:href="#MicrosoftYaHei-Bold-20" transform="translate(459.814453 0)"/>
     <use xlink:href="#MicrosoftYaHei-Bold-bd" transform="translate(489.599609 0)"/>
     <use xlink:href="#MicrosoftYaHei-Bold-61" transform="translate(593.359375 0)"/>
     <use xlink:href="#MicrosoftYaHei-Bold-74" transform="translate(651.123047 0)"/>
     <use xlink:href="#MicrosoftYaHei-Bold-b2" transform="translate(692.529297 0)"/>
    </g>
   </g>
   <g id="text_6">
    <!-- v² - v₀² = 2as -->
    <g style="fill: #e74c3c" transform="translate(38.448 166.4805) scale(0.1 -0.1)">
     <defs>
      <path id="MicrosoftYaHei-Bold-2d" d="M 2328 1497 
L 481 1497 
L 481 2209 
L 2328 2209 
L 2328 1497 
z
" transform="scale(0.015625)"/>
      <path id="MicrosoftYaHei-Bold-32" d="M 1500 841 
L 3553 841 
L 3553 0 
L 334 0 
L 334 359 
Q 334 738 473 1050 
Q 613 1363 856 1633 
Q 1100 1903 1613 2266 
Q 2081 2616 2268 2886 
Q 2456 3156 2456 3459 
Q 2456 4113 1744 4113 
Q 1119 4113 550 3613 
L 550 4513 
Q 1184 4922 1975 4922 
Q 2700 4922 3122 4551 
Q 3544 4181 3544 3531 
Q 3544 3169 3422 2876 
Q 3300 2584 3069 2328 
Q 2838 2072 2328 1713 
Q 1838 1363 1669 1172 
Q 1500 981 1500 841 
z
" transform="scale(0.015625)"/>
     </defs>
     <use xlink:href="#MicrosoftYaHei-Bold-76"/>
     <use xlink:href="#MicrosoftYaHei-Bold-b2" transform="translate(57.714844 0)"/>
     <use xlink:href="#MicrosoftYaHei-Bold-20" transform="translate(100.927734 0)"/>
     <use xlink:href="#MicrosoftYaHei-Bold-2d" transform="translate(130.712891 0)"/>
     <use xlink:href="#MicrosoftYaHei-Bold-20" transform="translate(174.365234 0)"/>
     <use xlink:href="#MicrosoftYaHei-Bold-76" transform="translate(204.150391 0)"/>
     <use xlink:href="#MicrosoftYaHei-Bold-2080" transform="translate(261.865234 0)"/>
     <use xlink:href="#MicrosoftYaHei-Bold-b2" transform="translate(331.591797 0)"/>
     <use xlink:href="#MicrosoftYaHei-Bold-20" transform="translate(374.804688 0)"/>
     <use xlink:href="#MicrosoftYaHei-Bold-3d" transform="translate(404.589844 0)"/>
     <use xlink:href="#MicrosoftYaHei-Bold-20" transform="translate(480.712891 0)"/>
     <use xlink:href="#MicrosoftYaHei-Bold-32" transform="translate(510.498047 0)"/>
     <use xlink:href="#MicrosoftYaHei-Bold-61" transform="translate(572.167969 0)"/>
     <use xlink:href="#MicrosoftYaHei-Bold-73" transform="translate(629.931641 0)"/>
    </g>
   </g>
   <g id="text_7">
    <!-- s = (v₀+v)t/2 -->
    <g style="fill: #e74c3c" transform="translate(38.448 216.3765) scale(0.1 -0.1)">
     <defs>
      <path id="MicrosoftYaHei-Bold-28" d="M 1606 -1100 
Q 525 97 525 1853 
Q 525 3550 1606 4841 
L 2431 4841 
Q 1406 3497 1406 1853 
Q 1406 216 2438 -1100 
L 1606 -1100 
z
" transform="scale(0.015625)"/>
      <path id="MicrosoftYaHei-Bold-29" d="M 59 -1100 
Q 1097 216 1097 1853 
Q 1097 3484 59 4841 
L 888 4841 
Q 1978 3544 1978 1853 
Q 1978 113 881 -1100 
L 59 -1100 
z
" transform="scale(0.015625)"/>
      <path id="MicrosoftYaHei-Bold-2f" d="M 3100 4841 
L 747 -803 
L -156 -803 
L 2188 4841 
L 3100 4841 
z
" transform="scale(0.015625)"/>
     </defs>
     <use xlink:href="#MicrosoftYaHei-Bold-73"/>
     <use xlink:href="#MicrosoftYaHei-Bold-20" transform="translate(49.365234 0)"/>
     <use xlink:href="#MicrosoftYaHei-Bold-3d" transform="translate(79.150391 0)"/>
     <use xlink:href="#MicrosoftYaHei-Bold-20" transform="translate(155.273438 0)"/>
     <use xlink:href="#MicrosoftYaHei-Bold-28" transform="translate(185.058594 0)"/>
     <use xlink:href="#MicrosoftYaHei-Bold-76" transform="translate(224.023438 0)"/>
     <use xlink:href="#MicrosoftYaHei-Bold-2080" transform="translate(281.738281 0)"/>
     <use xlink:href="#MicrosoftYaHei-Bold-2b" transform="translate(351.464844 0)"/>
     <use xlink:href="#MicrosoftYaHei-Bold-76" transform="translate(427.587891 0)"/>
     <use xlink:href="#MicrosoftYaHei-Bold-29" transform="translate(485.302734 0)"/>
     <use xlink:href="#MicrosoftYaHei-Bold-74" transform="translate(524.267578 0)"/>
     <use xlink:href="#MicrosoftYaHei-Bold-2f" transform="translate(565.673828 0)"/>
     <use xlink:href="#MicrosoftYaHei-Bold-32" transform="translate(612.939453 0)"/>
    </g>
   </g>
   <g id="text_8">
    <!-- v₀ -->
    <g transform="translate(26.73 391.0125) scale(0.09 -0.09)">
     <use xlink:href="#MicrosoftYaHei-Bold-76"/>
     <use xlink:href="#MicrosoftYaHei-Bold-2080" transform="translate(57.714844 0)"/>
    </g>
   </g>
   <g id="text_9">
    <!-- v -->
    <g transform="translate(167.346 181.4493) scale(0.09 -0.09)">
     <use xlink:href="#MicrosoftYaHei-Bold-76"/>
    </g>
   </g>
   <g id="text_10">
    <!-- Kinematics: v-t Graph &amp; Key Formulas -->
    <g style="fill: #2c3e50" transform="translate(80.049875 231.3245) scale(0.14 -0.14)">
     <defs>
      <path id="MicrosoftYaHei-Bold-4b" d="M 4506 0 
L 3200 0 
L 1734 2116 
Q 1678 2197 1606 2369 
L 1591 2369 
L 1591 0 
L 559 0 
L 559 4841 
L 1591 4841 
L 1591 2553 
L 1606 2553 
Q 1675 2703 1744 2813 
L 3131 4841 
L 4363 4841 
L 2631 2531 
L 4506 0 
z
" transform="scale(0.015625)"/>
      <path id="MicrosoftYaHei-Bold-3a" d="M 313 2969 
Q 313 3200 491 3350 
Q 669 3500 916 3500 
Q 1166 3500 1337 3350 
Q 1509 3200 1509 2969 
Q 1509 2728 1337 2579 
Q 1166 2431 903 2431 
Q 653 2431 483 2584 
Q 313 2738 313 2969 
z
M 313 453 
Q 313 688 491 838 
Q 669 988 916 988 
Q 1166 988 1337 834 
Q 1509 681 1509 453 
Q 1509 213 1337 64 
Q 1166 -84 903 -84 
Q 659 -84 486 69 
Q 313 222 313 453 
z
" transform="scale(0.015625)"/>
      <path id="MicrosoftYaHei-Bold-47" d="M 4494 325 
Q 3784 -84 2750 -84 
Q 1594 -84 925 566 
Q 256 1216 256 2344 
Q 256 3488 992 4205 
Q 1728 4922 2931 4922 
Q 3706 4922 4284 4703 
L 4284 3725 
Q 3722 4053 2909 4053 
Q 2209 4053 1775 3597 
Q 1341 3141 1341 2394 
Q 1341 1634 1733 1209 
Q 2125 784 2803 784 
Q 3206 784 3463 909 
L 3463 1903 
L 2484 1903 
L 2484 2731 
L 4494 2731 
L 4494 325 
z
" transform="scale(0.015625)"/>
      <path id="MicrosoftYaHei-Bold-68" d="M 3725 0 
L 2719 0 
L 2719 1969 
Q 2719 2766 2138 2766 
Q 1847 2766 1658 2544 
Q 1469 2322 1469 1969 
L 1469 0 
L 459 0 
L 459 5116 
L 1469 5116 
L 1469 2938 
L 1481 2938 
Q 1878 3541 2550 3541 
Q 3725 3541 3725 2122 
L 3725 0 
z
" transform="scale(0.015625)"/>
      <path id="MicrosoftYaHei-Bold-26" d="M 3831 538 
Q 3075 -78 2078 -78 
Q 1247 -78 759 314 
Q 272 706 272 1394 
Q 272 2344 1441 2800 
Q 853 3259 853 3809 
Q 853 4319 1242 4620 
Q 1631 4922 2297 4922 
Q 2906 4922 3289 4628 
Q 3672 4334 3672 3872 
Q 3672 3134 2806 2772 
Q 3475 2472 3975 1731 
Q 4494 2384 4494 3319 
Q 4494 3578 4428 3784 
L 5297 3784 
Q 5363 3600 5363 3334 
Q 5363 2094 4428 1091 
Q 4794 700 5122 700 
Q 5450 700 5725 834 
L 5725 63 
Q 5381 -78 4981 -78 
Q 4369 -78 3831 538 
z
M 2188 3153 
Q 2775 3369 2775 3800 
Q 2775 3997 2633 4119 
Q 2491 4241 2297 4241 
Q 2066 4241 1912 4108 
Q 1759 3975 1759 3781 
Q 1759 3403 2188 3153 
z
M 3391 1181 
Q 2853 2041 2028 2381 
Q 1297 2044 1297 1434 
Q 1297 1100 1526 895 
Q 1756 691 2128 691 
Q 2822 691 3391 1181 
z
" transform="scale(0.015625)"/>
      <path id="MicrosoftYaHei-Bold-79" d="M 3691 3456 
L 2266 -309 
Q 1769 -1622 778 -1622 
Q 388 -1622 172 -1541 
L 172 -731 
Q 375 -847 619 -847 
Q 1031 -847 1200 -447 
L 1391 6 
L -6 3456 
L 1113 3456 
L 1788 1291 
Q 1850 1094 1878 850 
L 1897 850 
Q 1919 1016 2000 1284 
L 2691 3456 
L 3691 3456 
z
" transform="scale(0.015625)"/>
      <path id="MicrosoftYaHei-Bold-46" d="M 3319 3997 
L 1591 3997 
L 1591 2753 
L 3181 2753 
L 3181 1909 
L 1591 1909 
L 1591 0 
L 559 0 
L 559 4841 
L 3319 4841 
L 3319 3997 
z
" transform="scale(0.015625)"/>
      <path id="MicrosoftYaHei-Bold-6f" d="M 253 1713 
Q 253 2566 764 3053 
Q 1275 3541 2138 3541 
Q 2972 3541 3462 3061 
Q 3953 2581 3953 1772 
Q 3953 922 3450 419 
Q 2947 -84 2088 -84 
Q 1244 -84 748 398 
Q 253 881 253 1713 
z
M 1275 1725 
Q 1275 691 2119 691 
Q 2928 691 2928 1753 
Q 2928 2766 2113 2766 
Q 1716 2766 1495 2494 
Q 1275 2222 1275 1725 
z
" transform="scale(0.015625)"/>
      <path id="MicrosoftYaHei-Bold-75" d="M 3691 0 
L 2688 0 
L 2688 528 
L 2672 528 
Q 2284 -84 1613 -84 
Q 406 -84 406 1372 
L 406 3456 
L 1416 3456 
L 1416 1466 
Q 1416 691 2022 691 
Q 2325 691 2506 903 
Q 2688 1116 2688 1478 
L 2688 3456 
L 3691 3456 
L 3691 0 
z
" transform="scale(0.015625)"/>
     </defs>
     <use xlink:href="#MicrosoftYaHei-Bold-4b"/>
     <use xlink:href="#MicrosoftYaHei-Bold-69" transform="translate(69.287109 0)"/>
     <use xlink:href="#MicrosoftYaHei-Bold-6e" transform="translate(98.876953 0)"/>
     <use xlink:href="#MicrosoftYaHei-Bold-65" transform="translate(163.671875 0)"/>
     <use xlink:href="#MicrosoftYaHei-Bold-6d" transform="translate(221.875 0)"/>
     <use xlink:href="#MicrosoftYaHei-Bold-61" transform="translate(320.068359 0)"/>
     <use xlink:href="#MicrosoftYaHei-Bold-74" transform="translate(377.832031 0)"/>
     <use xlink:href="#MicrosoftYaHei-Bold-69" transform="translate(419.238281 0)"/>
     <use xlink:href="#MicrosoftYaHei-Bold-63" transform="translate(448.828125 0)"/>
     <use xlink:href="#MicrosoftYaHei-Bold-73" transform="translate(500.488281 0)"/>
     <use xlink:href="#MicrosoftYaHei-Bold-3a" transform="translate(549.853516 0)"/>
     <use xlink:href="#MicrosoftYaHei-Bold-20" transform="translate(578.417969 0)"/>
     <use xlink:href="#MicrosoftYaHei-Bold-76" transform="translate(608.203125 0)"/>
     <use xlink:href="#MicrosoftYaHei-Bold-2d" transform="translate(665.917969 0)"/>
     <use xlink:href="#MicrosoftYaHei-Bold-74" transform="translate(709.570312 0)"/>
     <use xlink:href="#MicrosoftYaHei-Bold-20" transform="translate(750.976562 0)"/>
     <use xlink:href="#MicrosoftYaHei-Bold-47" transform="translate(780.761719 0)"/>
     <use xlink:href="#MicrosoftYaHei-Bold-72" transform="translate(857.275391 0)"/>
     <use xlink:href="#MicrosoftYaHei-Bold-61" transform="translate(899.658203 0)"/>
     <use xlink:href="#MicrosoftYaHei-Bold-70" transform="translate(957.421875 0)"/>
     <use xlink:href="#MicrosoftYaHei-Bold-68" transform="translate(1024.023438 0)"/>
     <use xlink:href="#MicrosoftYaHei-Bold-20" transform="translate(1088.574219 0)"/>
     <use xlink:href="#MicrosoftYaHei-Bold-26" transform="translate(1118.359375 0)"/>
     <use xlink:href="#MicrosoftYaHei-Bold-20" transform="translate(1209.472656 0)"/>
     <use xlink:href="#MicrosoftYaHei-Bold-4b" transform="translate(1239.257812 0)"/>
     <use xlink:href="#MicrosoftYaHei-Bold-65" transform="translate(1307.419922 0)"/>
     <use xlink:href="#MicrosoftYaHei-Bold-79" transform="translate(1365.623047 0)"/>
     <use xlink:href="#MicrosoftYaHei-Bold-20" transform="translate(1423.044922 0)"/>
     <use xlink:href="#MicrosoftYaHei-Bold-46" transform="translate(1452.830078 0)"/>
     <use xlink:href="#MicrosoftYaHei-Bold-6f" transform="translate(1508.640625 0)"/>
     <use xlink:href="#MicrosoftYaHei-Bold-72" transform="translate(1574.363281 0)"/>
     <use xlink:href="#MicrosoftYaHei-Bold-6d" transform="translate(1616.996094 0)"/>
     <use xlink:href="#MicrosoftYaHei-Bold-75" transform="translate(1715.189453 0)"/>
     <use xlink:href="#MicrosoftYaHei-Bold-6c" transform="translate(1779.984375 0)"/>
     <use xlink:href="#MicrosoftYaHei-Bold-61" transform="translate(1809.574219 0)"/>
     <use xlink:href="#MicrosoftYaHei-Bold-73" transform="translate(1867.337891 0)"/>
    </g>
   </g>
  </g>
 </g>
 <defs>
  <clipPath id="p236badb182">
   <rect x="18.918" y="241.3245" width="390.6" height="249.48"/>
  </clipPath>
 </defs>
</svg>
