<?xml version="1.0" encoding="utf-8" standalone="no"?>
<!DOCTYPE svg PUBLIC "-//W3C//DTD SVG 1.1//EN"
  "http://www.w3.org/Graphics/SVG/1.1/DTD/svg11.dtd">
<svg xmlns:xlink="http://www.w3.org/1999/xlink" width="405pt" height="224.63125pt" viewBox="0 0 405 224.63125" xmlns="http://www.w3.org/2000/svg" version="1.1">
 <metadata>
  <rdf:RDF xmlns:dc="http://purl.org/dc/elements/1.1/" xmlns:cc="http://creativecommons.org/ns#" xmlns:rdf="http://www.w3.org/1999/02/22-rdf-syntax-ns#">
   <cc:Work>
    <dc:type rdf:resource="http://purl.org/dc/dcmitype/StillImage"/>
    <dc:date>2026-05-25T22:47:19.382573</dc:date>
    <dc:format>image/svg+xml</dc:format>
    <dc:creator>
     <cc:Agent>
      <dc:title>Matplotlib v3.10.9, https://matplotlib.org/</dc:title>
     </cc:Agent>
    </dc:creator>
   </cc:Work>
  </rdf:RDF>
 </metadata>
 <defs>
  <style type="text/css">*{stroke-linejoin: round; stroke-linecap: butt}</style>
 </defs>
 <g id="figure_1">
  <g id="patch_1">
   <path d="M 0 224.63125 
L 405 224.63125 
L 405 0 
L 0 0 
z
" style="fill: #ffffff"/>
  </g>
  <g id="axes_1">
   <g id="patch_2">
    <path d="M 26.73 182.50405 
L 136.098 182.50405 
Q 139.2228 182.50405 139.2228 178.62325 
L 139.2228 33.09325 
Q 139.2228 29.21245 136.098 29.21245 
L 26.73 29.21245 
Q 23.6052 29.21245 23.6052 33.09325 
L 23.6052 178.62325 
Q 23.6052 182.50405 26.73 182.50405 
z
" clip-path="url(#p0e2c18d155)" style="fill: #3498db; opacity: 0.08; stroke: #3498db; stroke-width: 1.5; stroke-linejoin: miter"/>
   </g>
   <g id="patch_3">
    <path d="M 81.414 120.41125 
C 86.593417 120.41125 91.561395 117.85559 95.223795 113.307125 
C 98.886196 108.75866 100.944 102.588751 100.944 96.15625 
C 100.944 89.723749 98.886196 83.55384 95.223795 79.005375 
C 91.561395 74.45691 86.593417 71.90125 81.414 71.90125 
C 76.234583 71.90125 71.266605 74.45691 67.604205 79.005375 
C 63.941804 83.55384 61.884 89.723749 61.884 96.15625 
C 61.884 102.588751 63.941804 108.75866 67.604205 113.307125 
C 71.266605 117.85559 76.234583 120.41125 81.414 120.41125 
z
" clip-path="url(#p0e2c18d155)" style="fill: #3498db; opacity: 0.4; stroke: #3498db; stroke-width: 2; stroke-linejoin: miter"/>
   </g>
   <g id="patch_4">
    <path d="M 155.628 182.50405 
L 264.996 182.50405 
Q 268.1208 182.50405 268.1208 178.62325 
L 268.1208 33.09325 
Q 268.1208 29.21245 264.996 29.21245 
L 155.628 29.21245 
Q 152.5032 29.21245 152.5032 33.09325 
L 152.5032 178.62325 
Q 152.5032 182.50405 155.628 182.50405 
z
" clip-path="url(#p0e2c18d155)" style="fill: #27ae60; opacity: 0.08; stroke: #27ae60; stroke-width: 1.5; stroke-linejoin: miter"/>
   </g>
   <g id="patch_5">
    <path d="M 210.312 134.96425 
C 215.491417 134.96425 220.459395 132.40859 224.121795 127.860125 
C 227.784196 123.31166 229.842 117.141751 229.842 110.70925 
C 229.842 104.276749 227.784196 98.10684 224.121795 93.558375 
C 220.459395 89.00991 215.491417 86.45425 210.312 86.45425 
C 205.132583 86.45425 200.164605 89.00991 196.502205 93.558375 
C 192.839804 98.10684 190.782 104.276749 190.782 110.70925 
C 190.782 117.141751 192.839804 123.31166 196.502205 127.860125 
C 200.164605 132.40859 205.132583 134.96425 210.312 134.96425 
z
" clip-path="url(#p0e2c18d155)" style="fill: #27ae60; opacity: 0.4; stroke: #27ae60; stroke-width: 2; stroke-linejoin: miter"/>
   </g>
   <g id="patch_6">
    <path d="M 284.526 182.50405 
L 393.894 182.50405 
Q 397.0188 182.50405 397.0188 178.62325 
L 397.0188 33.09325 
Q 397.0188 29.21245 393.894 29.21245 
L 284.526 29.21245 
Q 281.4012 29.21245 281.4012 33.09325 
L 281.4012 178.62325 
Q 281.4012 182.50405 284.526 182.50405 
z
" clip-path="url(#p0e2c18d155)" style="fill: #e74c3c; opacity: 0.08; stroke: #e74c3c; stroke-width: 1.5; stroke-linejoin: miter"/>
   </g>
   <g id="patch_7">
    <path d="M 339.21 168.92125 
C 344.389417 168.92125 349.357395 166.36559 353.019795 161.817125 
C 356.682196 157.26866 358.74 151.098751 358.74 144.66625 
C 358.74 138.233749 356.682196 132.06384 353.019795 127.515375 
C 349.357395 122.96691 344.389417 120.41125 339.21 120.41125 
C 334.030583 120.41125 329.062605 122.96691 325.400205 127.515375 
C 321.737804 132.06384 319.68 138.233749 319.68 144.66625 
C 319.68 151.098751 321.737804 157.26866 325.400205 161.817125 
C 329.062605 166.36559 334.030583 168.92125 339.21 168.92125 
z
" clip-path="url(#p0e2c18d155)" style="fill: #e74c3c; opacity: 0.4; stroke: #e74c3c; stroke-width: 2; stroke-linejoin: miter"/>
   </g>
   <g id="line2d_1">
    <path d="M 26.73 110.70925 
L 136.098 110.70925 
" clip-path="url(#p0e2c18d155)" style="fill: none; stroke-dasharray: 3.7,1.6; stroke-dashoffset: 0; stroke: #3498db; stroke-opacity: 0.5"/>
   </g>
   <g id="line2d_2">
    <path d="M 155.628 110.70925 
L 264.996 110.70925 
" clip-path="url(#p0e2c18d155)" style="fill: none; stroke-dasharray: 3.7,1.6; stroke-dashoffset: 0; stroke: #27ae60; stroke-opacity: 0.5"/>
   </g>
   <g id="line2d_3">
    <path d="M 284.526 110.70925 
L 393.894 110.70925 
" clip-path="url(#p0e2c18d155)" style="fill: none; stroke-dasharray: 3.7,1.6; stroke-dashoffset: 0; stroke: #e74c3c; stroke-opacity: 0.5"/>
   </g>
   <g id="text_1">
    <!-- Floating -->
    <g style="fill: #3498db" transform="translate(58.863141 42.79525) scale(0.11 -0.11)">
     <defs>
      <path id="MicrosoftYaHei-Bold-46" d="M 3319 3997 
L 1591 3997 
L 1591 2753 
L 3181 2753 
L 3181 1909 
L 1591 1909 
L 1591 0 
L 559 0 
L 559 4841 
L 3319 4841 
L 3319 3997 
z
" transform="scale(0.015625)"/>
      <path id="MicrosoftYaHei-Bold-6c" d="M 444 0 
L 444 5116 
L 1450 5116 
L 1450 0 
L 444 0 
z
" transform="scale(0.015625)"/>
      <path id="MicrosoftYaHei-Bold-6f" d="M 253 1713 
Q 253 2566 764 3053 
Q 1275 3541 2138 3541 
Q 2972 3541 3462 3061 
Q 3953 2581 3953 1772 
Q 3953 922 3450 419 
Q 2947 -84 2088 -84 
Q 1244 -84 748 398 
Q 253 881 253 1713 
z
M 1275 1725 
Q 1275 691 2119 691 
Q 2928 691 2928 1753 
Q 2928 2766 2113 2766 
Q 1716 2766 1495 2494 
Q 1275 2222 1275 1725 
z
" transform="scale(0.015625)"/>
      <path id="MicrosoftYaHei-Bold-61" d="M 544 3247 
Q 778 3378 1170 3459 
Q 1563 3541 1841 3541 
Q 3291 3541 3291 2088 
L 3291 0 
L 2331 0 
L 2331 503 
L 2319 503 
Q 1966 -84 1284 -84 
Q 794 -84 498 195 
Q 203 475 203 956 
Q 203 1950 1388 2113 
L 2338 2241 
Q 2338 2844 1709 2844 
Q 1091 2844 544 2469 
L 544 3247 
z
M 1684 1566 
Q 1138 1494 1138 1072 
Q 1138 878 1270 759 
Q 1403 641 1628 641 
Q 1938 641 2138 859 
Q 2338 1078 2338 1403 
L 2338 1650 
L 1684 1566 
z
" transform="scale(0.015625)"/>
      <path id="MicrosoftYaHei-Bold-74" d="M 2494 41 
Q 2266 -84 1803 -84 
Q 703 -84 703 1072 
L 703 2703 
L 134 2703 
L 134 3456 
L 703 3456 
L 703 4216 
L 1706 4503 
L 1706 3456 
L 2494 3456 
L 2494 2703 
L 1706 2703 
L 1706 1247 
Q 1706 694 2144 694 
Q 2313 694 2494 794 
L 2494 41 
z
" transform="scale(0.015625)"/>
      <path id="MicrosoftYaHei-Bold-69" d="M 369 4572 
Q 369 4803 533 4948 
Q 697 5094 953 5094 
Q 1216 5094 1378 4945 
Q 1541 4797 1541 4572 
Q 1541 4344 1375 4192 
Q 1209 4041 953 4041 
Q 700 4041 534 4194 
Q 369 4347 369 4572 
z
M 444 0 
L 444 3456 
L 1450 3456 
L 1450 0 
L 444 0 
z
" transform="scale(0.015625)"/>
      <path id="MicrosoftYaHei-Bold-6e" d="M 3744 0 
L 2741 0 
L 2741 1928 
Q 2741 2766 2138 2766 
Q 1850 2766 1659 2542 
Q 1469 2319 1469 1972 
L 1469 0 
L 459 0 
L 459 3456 
L 1469 3456 
L 1469 2906 
L 1481 2906 
Q 1859 3541 2594 3541 
Q 3744 3541 3744 2116 
L 3744 0 
z
" transform="scale(0.015625)"/>
      <path id="MicrosoftYaHei-Bold-67" d="M 3800 381 
Q 3800 -581 3251 -1101 
Q 2703 -1622 1672 -1622 
Q 972 -1622 559 -1422 
L 559 -559 
Q 1097 -872 1644 -872 
Q 2184 -872 2489 -583 
Q 2794 -294 2794 219 
L 2794 506 
L 2778 506 
Q 2413 -84 1691 -84 
Q 1038 -84 645 381 
Q 253 847 253 1628 
Q 253 2500 686 3020 
Q 1119 3541 1822 3541 
Q 2459 3541 2778 3044 
L 2794 3044 
L 2794 3456 
L 3800 3456 
L 3800 381 
z
M 2803 1950 
Q 2803 2294 2595 2530 
Q 2388 2766 2072 2766 
Q 1703 2766 1489 2477 
Q 1275 2188 1275 1666 
Q 1275 1213 1481 952 
Q 1688 691 2028 691 
Q 2372 691 2587 956 
Q 2803 1222 2803 1647 
L 2803 1950 
z
" transform="scale(0.015625)"/>
     </defs>
     <use xlink:href="#MicrosoftYaHei-Bold-46"/>
     <use xlink:href="#MicrosoftYaHei-Bold-6c" transform="translate(55.810547 0)"/>
     <use xlink:href="#MicrosoftYaHei-Bold-6f" transform="translate(85.400391 0)"/>
     <use xlink:href="#MicrosoftYaHei-Bold-61" transform="translate(149.998047 0)"/>
     <use xlink:href="#MicrosoftYaHei-Bold-74" transform="translate(207.761719 0)"/>
     <use xlink:href="#MicrosoftYaHei-Bold-69" transform="translate(249.167969 0)"/>
     <use xlink:href="#MicrosoftYaHei-Bold-6e" transform="translate(278.757812 0)"/>
     <use xlink:href="#MicrosoftYaHei-Bold-67" transform="translate(343.552734 0)"/>
    </g>
   </g>
   <g id="text_2">
    <g id="patch_8">
     <path d="M 52.334859 65.454719 
L 110.493141 65.454719 
Q 111.393141 65.454719 111.393141 64.554719 
L 111.393141 55.004875 
Q 111.393141 54.104875 110.493141 54.104875 
L 52.334859 54.104875 
Q 51.434859 54.104875 51.434859 55.004875 
L 51.434859 64.554719 
Q 51.434859 65.454719 52.334859 65.454719 
z
" style="fill: #fffbe6"/>
    </g>
    <!-- ρ_obj &lt; ρ_liq -->
    <g style="fill: #555555" transform="translate(52.334859 62.19925) scale(0.09 -0.09)">
     <defs>
      <path id="MicrosoftYaHei-Bold-3c1" d="M 1459 250 
L 1459 -1334 
L 447 -1334 
L 447 1722 
Q 447 2594 901 3067 
Q 1356 3541 2197 3541 
Q 3016 3541 3506 3058 
Q 3997 2575 3997 1759 
Q 3997 919 3567 417 
Q 3138 -84 2422 -84 
Q 1844 -84 1472 250 
L 1459 250 
z
M 1459 1019 
Q 1747 694 2163 694 
Q 2969 694 2969 1734 
Q 2969 2178 2745 2470 
Q 2522 2763 2175 2763 
Q 1459 2763 1459 1819 
L 1459 1019 
z
" transform="scale(0.015625)"/>
      <path id="MicrosoftYaHei-Bold-5f" d="M 2869 -1675 
L 0 -1675 
L 0 -1272 
L 2869 -1272 
L 2869 -1675 
z
" transform="scale(0.015625)"/>
      <path id="MicrosoftYaHei-Bold-62" d="M 1469 416 
L 1469 0 
L 459 0 
L 459 5116 
L 1469 5116 
L 1469 2928 
L 1481 2928 
Q 1878 3541 2613 3541 
Q 3266 3541 3636 3084 
Q 4006 2628 4006 1825 
Q 4006 966 3581 441 
Q 3156 -84 2453 -84 
Q 1809 -84 1481 416 
L 1469 416 
z
M 1453 1494 
Q 1453 1153 1656 922 
Q 1859 691 2172 691 
Q 2550 691 2761 984 
Q 2972 1278 2972 1816 
Q 2972 2263 2780 2514 
Q 2588 2766 2231 2766 
Q 1894 2766 1673 2512 
Q 1453 2259 1453 1863 
L 1453 1494 
z
" transform="scale(0.015625)"/>
      <path id="MicrosoftYaHei-Bold-6a" d="M 391 4572 
Q 391 4803 555 4948 
Q 719 5094 975 5094 
Q 1238 5094 1400 4945 
Q 1563 4797 1563 4572 
Q 1563 4344 1397 4192 
Q 1231 4041 975 4041 
Q 722 4041 556 4194 
Q 391 4347 391 4572 
z
M 1472 69 
Q 1472 -753 1105 -1187 
Q 738 -1622 31 -1622 
Q -197 -1622 -472 -1522 
L -472 -722 
Q -244 -847 -66 -847 
Q 466 -847 466 -9 
L 466 3456 
L 1472 3456 
L 1472 69 
z
" transform="scale(0.015625)"/>
      <path id="MicrosoftYaHei-Bold-20" transform="scale(0.015625)"/>
      <path id="MicrosoftYaHei-Bold-3c" d="M 4000 238 
L 878 1678 
L 878 2184 
L 4000 3706 
L 4000 2938 
L 1763 1947 
L 1763 1928 
L 4000 1006 
L 4000 238 
z
" transform="scale(0.015625)"/>
      <path id="MicrosoftYaHei-Bold-71" d="M 3794 -1591 
L 2788 -1591 
L 2788 488 
L 2772 488 
Q 2409 -84 1697 -84 
Q 1044 -84 648 370 
Q 253 825 253 1644 
Q 253 2509 689 3025 
Q 1125 3541 1825 3541 
Q 2466 3541 2772 3044 
L 2788 3044 
L 2788 3456 
L 3794 3456 
L 3794 -1591 
z
M 2803 1944 
Q 2803 2288 2597 2527 
Q 2391 2766 2072 2766 
Q 1709 2766 1492 2478 
Q 1275 2191 1275 1672 
Q 1275 1206 1484 948 
Q 1694 691 2022 691 
Q 2375 691 2589 955 
Q 2803 1219 2803 1641 
L 2803 1944 
z
" transform="scale(0.015625)"/>
     </defs>
     <use xlink:href="#MicrosoftYaHei-Bold-3c1"/>
     <use xlink:href="#MicrosoftYaHei-Bold-5f" transform="translate(66.357422 0)"/>
     <use xlink:href="#MicrosoftYaHei-Bold-6f" transform="translate(111.181641 0)"/>
     <use xlink:href="#MicrosoftYaHei-Bold-62" transform="translate(176.904297 0)"/>
     <use xlink:href="#MicrosoftYaHei-Bold-6a" transform="translate(243.505859 0)"/>
     <use xlink:href="#MicrosoftYaHei-Bold-20" transform="translate(273.681641 0)"/>
     <use xlink:href="#MicrosoftYaHei-Bold-3c" transform="translate(303.466797 0)"/>
     <use xlink:href="#MicrosoftYaHei-Bold-20" transform="translate(379.589844 0)"/>
     <use xlink:href="#MicrosoftYaHei-Bold-3c1" transform="translate(409.375 0)"/>
     <use xlink:href="#MicrosoftYaHei-Bold-5f" transform="translate(475.732422 0)"/>
     <use xlink:href="#MicrosoftYaHei-Bold-6c" transform="translate(520.556641 0)"/>
     <use xlink:href="#MicrosoftYaHei-Bold-69" transform="translate(550.146484 0)"/>
     <use xlink:href="#MicrosoftYaHei-Bold-71" transform="translate(579.736328 0)"/>
    </g>
   </g>
   <g id="text_3">
    <!-- V_displaced &lt; V_obj -->
    <g style="fill: #666666" transform="translate(42.77775 188.19825) scale(0.08 -0.08)">
     <defs>
      <path id="MicrosoftYaHei-56" d="M 4272 4841 
L 2494 0 
L 1800 0 
L 56 4841 
L 750 4841 
L 2053 1056 
Q 2119 869 2150 622 
L 2166 622 
Q 2191 838 2275 1063 
L 3603 4841 
L 4272 4841 
z
" transform="scale(0.015625)"/>
      <path id="MicrosoftYaHei-5f" d="M 2869 -1634 
L 0 -1634 
L 0 -1231 
L 2869 -1231 
L 2869 -1634 
z
" transform="scale(0.015625)"/>
      <path id="MicrosoftYaHei-64" d="M 3547 0 
L 2934 0 
L 2934 575 
L 2922 575 
Q 2544 -81 1747 -81 
Q 1091 -81 703 386 
Q 316 853 316 1647 
Q 316 2503 753 3020 
Q 1191 3538 1897 3538 
Q 2603 3538 2922 2988 
L 2934 2988 
L 2934 5116 
L 3547 5116 
L 3547 0 
z
M 2938 2056 
Q 2938 2472 2664 2751 
Q 2391 3031 1991 3031 
Q 1503 3031 1222 2667 
Q 941 2303 941 1675 
Q 941 1097 1211 761 
Q 1481 425 1931 425 
Q 2375 425 2656 754 
Q 2938 1084 2938 1575 
L 2938 2056 
z
" transform="scale(0.015625)"/>
      <path id="MicrosoftYaHei-69" d="M 472 4675 
Q 472 4838 583 4948 
Q 694 5059 856 5059 
Q 1022 5059 1136 4950 
Q 1250 4841 1250 4675 
Q 1250 4513 1136 4405 
Q 1022 4297 856 4297 
Q 691 4297 581 4405 
Q 472 4513 472 4675 
z
M 544 0 
L 544 3456 
L 1156 3456 
L 1156 0 
L 544 0 
z
" transform="scale(0.015625)"/>
      <path id="MicrosoftYaHei-73" d="M 353 747 
Q 816 413 1350 413 
Q 2066 413 2066 881 
Q 2066 1081 1909 1211 
Q 1753 1341 1275 1519 
Q 700 1750 528 1976 
Q 356 2203 356 2525 
Q 356 2984 745 3261 
Q 1134 3538 1703 3538 
Q 2144 3538 2522 3384 
L 2522 2794 
Q 2134 3044 1644 3044 
Q 1350 3044 1165 2916 
Q 981 2788 981 2578 
Q 981 2372 1114 2256 
Q 1247 2141 1703 1959 
Q 2281 1744 2484 1512 
Q 2688 1281 2688 941 
Q 2688 466 2298 192 
Q 1909 -81 1291 -81 
Q 753 -81 353 122 
L 353 747 
z
" transform="scale(0.015625)"/>
      <path id="MicrosoftYaHei-70" d="M 1159 488 
L 1159 -1591 
L 547 -1591 
L 547 3456 
L 1159 3456 
L 1159 2859 
L 1172 2859 
Q 1578 3538 2359 3538 
Q 3022 3538 3398 3073 
Q 3775 2609 3775 1828 
Q 3775 966 3348 442 
Q 2922 -81 2200 -81 
Q 1534 -81 1172 488 
L 1159 488 
z
M 1156 1425 
Q 1156 1003 1428 714 
Q 1700 425 2109 425 
Q 2597 425 2872 800 
Q 3147 1175 3147 1838 
Q 3147 2397 2890 2714 
Q 2634 3031 2191 3031 
Q 1738 3031 1447 2709 
Q 1156 2388 1156 1884 
L 1156 1425 
z
" transform="scale(0.015625)"/>
      <path id="MicrosoftYaHei-6c" d="M 544 0 
L 544 5116 
L 1156 5116 
L 1156 0 
L 544 0 
z
" transform="scale(0.015625)"/>
      <path id="MicrosoftYaHei-61" d="M 628 3216 
Q 1144 3538 1819 3538 
Q 3069 3538 3069 2225 
L 3069 0 
L 2463 0 
L 2463 534 
L 2447 534 
Q 2088 -81 1388 -81 
Q 884 -81 587 191 
Q 291 463 291 925 
Q 291 1894 1438 2053 
L 2463 2197 
Q 2463 3044 1763 3044 
Q 1141 3044 628 2625 
L 628 3216 
z
M 1653 1625 
Q 1228 1569 1067 1412 
Q 906 1256 906 975 
Q 906 728 1081 572 
Q 1256 416 1544 416 
Q 1944 416 2203 697 
Q 2463 978 2463 1403 
L 2463 1734 
L 1653 1625 
z
" transform="scale(0.015625)"/>
      <path id="MicrosoftYaHei-63" d="M 2934 156 
Q 2538 -81 1978 -81 
Q 1228 -81 772 400 
Q 316 881 316 1647 
Q 316 2497 808 3017 
Q 1300 3538 2125 3538 
Q 2600 3538 2938 3369 
L 2938 2763 
Q 2572 3031 2125 3031 
Q 1600 3031 1270 2667 
Q 941 2303 941 1697 
Q 941 1100 1252 762 
Q 1563 425 2091 425 
Q 2538 425 2934 719 
L 2934 156 
z
" transform="scale(0.015625)"/>
      <path id="MicrosoftYaHei-65" d="M 3363 1572 
L 944 1572 
Q 959 1019 1246 717 
Q 1534 416 2050 416 
Q 2631 416 3116 788 
L 3116 241 
Q 2659 -81 1906 -81 
Q 1156 -81 736 394 
Q 316 869 316 1713 
Q 316 2506 777 3022 
Q 1238 3538 1922 3538 
Q 2600 3538 2981 3102 
Q 3363 2666 3363 1881 
L 3363 1572 
z
M 2750 2063 
Q 2747 2531 2528 2787 
Q 2309 3044 1913 3044 
Q 1547 3044 1280 2772 
Q 1013 2500 944 2063 
L 2750 2063 
z
" transform="scale(0.015625)"/>
      <path id="MicrosoftYaHei-20" transform="scale(0.015625)"/>
      <path id="MicrosoftYaHei-3c" d="M 3844 403 
L 913 1859 
L 913 2097 
L 3844 3713 
L 3844 3172 
L 1666 2000 
L 1666 1984 
L 3844 941 
L 3844 403 
z
" transform="scale(0.015625)"/>
      <path id="MicrosoftYaHei-6f" d="M 316 1691 
Q 316 2547 794 3042 
Q 1272 3538 2091 3538 
Q 2869 3538 3311 3061 
Q 3753 2584 3753 1744 
Q 3753 925 3281 422 
Q 2809 -81 2016 -81 
Q 1241 -81 778 406 
Q 316 894 316 1691 
z
M 941 1709 
Q 941 1113 1242 769 
Q 1544 425 2053 425 
Q 2578 425 2853 761 
Q 3128 1097 3128 1725 
Q 3128 2356 2853 2693 
Q 2578 3031 2053 3031 
Q 1538 3031 1239 2678 
Q 941 2325 941 1709 
z
" transform="scale(0.015625)"/>
      <path id="MicrosoftYaHei-62" d="M 1159 488 
L 1159 0 
L 547 0 
L 547 5116 
L 1159 5116 
L 1159 2859 
L 1172 2859 
Q 1578 3538 2359 3538 
Q 3009 3538 3392 3080 
Q 3775 2622 3775 1828 
Q 3775 953 3345 436 
Q 2916 -81 2200 -81 
Q 1525 -81 1172 488 
L 1159 488 
z
M 1156 1422 
Q 1156 1003 1428 714 
Q 1700 425 2109 425 
Q 2597 425 2872 800 
Q 3147 1175 3147 1838 
Q 3147 2384 2890 2707 
Q 2634 3031 2191 3031 
Q 1741 3031 1448 2709 
Q 1156 2388 1156 1891 
L 1156 1422 
z
" transform="scale(0.015625)"/>
      <path id="MicrosoftYaHei-6a" d="M 475 4675 
Q 475 4838 584 4948 
Q 694 5059 859 5059 
Q 1028 5059 1140 4950 
Q 1253 4841 1253 4675 
Q 1253 4516 1139 4406 
Q 1025 4297 859 4297 
Q 694 4297 584 4408 
Q 475 4519 475 4675 
z
M 1159 134 
Q 1159 -706 811 -1167 
Q 463 -1628 -178 -1628 
Q -416 -1628 -644 -1519 
L -644 -966 
Q -400 -1116 -181 -1116 
Q 547 -1116 547 44 
L 547 3456 
L 1159 3456 
L 1159 134 
z
" transform="scale(0.015625)"/>
     </defs>
     <use xlink:href="#MicrosoftYaHei-56"/>
     <use xlink:href="#MicrosoftYaHei-5f" transform="translate(67.626953 0)"/>
     <use xlink:href="#MicrosoftYaHei-64" transform="translate(112.451172 0)"/>
     <use xlink:href="#MicrosoftYaHei-69" transform="translate(176.416016 0)"/>
     <use xlink:href="#MicrosoftYaHei-73" transform="translate(203.027344 0)"/>
     <use xlink:href="#MicrosoftYaHei-70" transform="translate(249.316406 0)"/>
     <use xlink:href="#MicrosoftYaHei-6c" transform="translate(313.183594 0)"/>
     <use xlink:href="#MicrosoftYaHei-61" transform="translate(339.794922 0)"/>
     <use xlink:href="#MicrosoftYaHei-63" transform="translate(395.068359 0)"/>
     <use xlink:href="#MicrosoftYaHei-65" transform="translate(445.214844 0)"/>
     <use xlink:href="#MicrosoftYaHei-64" transform="translate(501.953125 0)"/>
     <use xlink:href="#MicrosoftYaHei-20" transform="translate(565.917969 0)"/>
     <use xlink:href="#MicrosoftYaHei-3c" transform="translate(595.507812 0)"/>
     <use xlink:href="#MicrosoftYaHei-20" transform="translate(669.677734 0)"/>
     <use xlink:href="#MicrosoftYaHei-56" transform="translate(699.267578 0)"/>
     <use xlink:href="#MicrosoftYaHei-5f" transform="translate(766.894531 0)"/>
     <use xlink:href="#MicrosoftYaHei-6f" transform="translate(811.71875 0)"/>
     <use xlink:href="#MicrosoftYaHei-62" transform="translate(875.292969 0)"/>
     <use xlink:href="#MicrosoftYaHei-6a" transform="translate(939.160156 0)"/>
    </g>
    <!-- F_float = G = mg -->
    <g style="fill: #666666" transform="translate(48.90525 198.02725) scale(0.08 -0.08)">
     <defs>
      <path id="MicrosoftYaHei-46" d="M 3119 4284 
L 1250 4284 
L 1250 2666 
L 2981 2666 
L 2981 2116 
L 1250 2116 
L 1250 0 
L 625 0 
L 625 4841 
L 3119 4841 
L 3119 4284 
z
" transform="scale(0.015625)"/>
      <path id="MicrosoftYaHei-66" d="M 2319 4594 
Q 2147 4684 1947 4684 
Q 1372 4684 1372 3972 
L 1372 3456 
L 2181 3456 
L 2181 2950 
L 1372 2950 
L 1372 0 
L 766 0 
L 766 2950 
L 175 2950 
L 175 3456 
L 766 3456 
L 766 4000 
Q 766 4556 1086 4873 
Q 1406 5191 1900 5191 
Q 2163 5191 2319 5131 
L 2319 4594 
z
" transform="scale(0.015625)"/>
      <path id="MicrosoftYaHei-74" d="M 2206 34 
Q 2006 -75 1666 -75 
Q 738 -75 738 953 
L 738 2950 
L 144 2950 
L 144 3456 
L 738 3456 
L 738 4288 
L 1347 4481 
L 1347 3456 
L 2206 3456 
L 2206 2950 
L 1347 2950 
L 1347 1063 
Q 1347 722 1462 575 
Q 1578 428 1847 428 
Q 2053 428 2206 544 
L 2206 34 
z
" transform="scale(0.015625)"/>
      <path id="MicrosoftYaHei-3d" d="M 3972 2497 
L 788 2497 
L 788 2969 
L 3972 2969 
L 3972 2497 
z
M 3972 1053 
L 788 1053 
L 788 1525 
L 3972 1525 
L 3972 1053 
z
" transform="scale(0.015625)"/>
      <path id="MicrosoftYaHei-47" d="M 4284 331 
Q 3559 -81 2647 -81 
Q 1597 -81 955 583 
Q 313 1247 313 2356 
Q 313 3478 1022 4200 
Q 1731 4922 2841 4922 
Q 3625 4922 4169 4672 
L 4169 3997 
Q 3588 4363 2784 4363 
Q 1994 4363 1481 3822 
Q 969 3281 969 2397 
Q 969 1488 1441 981 
Q 1913 475 2716 475 
Q 3269 475 3656 688 
L 3656 1997 
L 2606 1997 
L 2606 2550 
L 4284 2550 
L 4284 331 
z
" transform="scale(0.015625)"/>
      <path id="MicrosoftYaHei-6d" d="M 5522 0 
L 4909 0 
L 4909 1984 
Q 4909 2547 4734 2789 
Q 4559 3031 4159 3031 
Q 3822 3031 3581 2715 
Q 3341 2400 3341 1969 
L 3341 0 
L 2728 0 
L 2728 2047 
Q 2728 3031 1969 3031 
Q 1619 3031 1389 2731 
Q 1159 2431 1159 1966 
L 1159 0 
L 547 0 
L 547 3456 
L 1159 3456 
L 1159 2909 
L 1172 2909 
Q 1541 3538 2250 3538 
Q 2597 3538 2862 3347 
Q 3128 3156 3231 2831 
Q 3616 3538 4381 3538 
Q 5522 3538 5522 2131 
L 5522 0 
z
" transform="scale(0.015625)"/>
      <path id="MicrosoftYaHei-67" d="M 3547 291 
Q 3547 -1628 1684 -1628 
Q 1041 -1628 566 -1388 
L 566 -797 
Q 1144 -1119 1675 -1119 
Q 2934 -1119 2934 206 
L 2934 572 
L 2922 572 
Q 2528 -81 1747 -81 
Q 1097 -81 706 384 
Q 316 850 316 1619 
Q 316 2503 747 3020 
Q 1178 3538 1897 3538 
Q 2588 3538 2922 2988 
L 2934 2988 
L 2934 3456 
L 3547 3456 
L 3547 291 
z
M 2934 2056 
Q 2938 2456 2666 2743 
Q 2394 3031 1997 3031 
Q 1497 3031 1219 2664 
Q 941 2297 941 1656 
Q 941 1106 1209 765 
Q 1478 425 1922 425 
Q 2369 425 2653 750 
Q 2938 1075 2934 1575 
L 2934 2056 
z
" transform="scale(0.015625)"/>
     </defs>
     <use xlink:href="#MicrosoftYaHei-46"/>
     <use xlink:href="#MicrosoftYaHei-5f" transform="translate(53.125 0)"/>
     <use xlink:href="#MicrosoftYaHei-66" transform="translate(97.949219 0)"/>
     <use xlink:href="#MicrosoftYaHei-6c" transform="translate(132.617188 0)"/>
     <use xlink:href="#MicrosoftYaHei-6f" transform="translate(159.228516 0)"/>
     <use xlink:href="#MicrosoftYaHei-61" transform="translate(221.427734 0)"/>
     <use xlink:href="#MicrosoftYaHei-74" transform="translate(276.701172 0)"/>
     <use xlink:href="#MicrosoftYaHei-20" transform="translate(313.957031 0)"/>
     <use xlink:href="#MicrosoftYaHei-3d" transform="translate(343.546875 0)"/>
     <use xlink:href="#MicrosoftYaHei-20" transform="translate(417.716797 0)"/>
     <use xlink:href="#MicrosoftYaHei-47" transform="translate(447.306641 0)"/>
     <use xlink:href="#MicrosoftYaHei-20" transform="translate(521.671875 0)"/>
     <use xlink:href="#MicrosoftYaHei-3d" transform="translate(551.261719 0)"/>
     <use xlink:href="#MicrosoftYaHei-20" transform="translate(625.431641 0)"/>
     <use xlink:href="#MicrosoftYaHei-6d" transform="translate(655.021484 0)"/>
     <use xlink:href="#MicrosoftYaHei-67" transform="translate(748.722656 0)"/>
    </g>
   </g>
   <g id="text_4">
    <!-- Suspending -->
    <g style="fill: #27ae60" transform="translate(177.794969 42.79525) scale(0.11 -0.11)">
     <defs>
      <path id="MicrosoftYaHei-Bold-53" d="M 338 1219 
Q 922 734 1666 734 
Q 2088 734 2300 879 
Q 2513 1025 2513 1253 
Q 2513 1450 2344 1625 
Q 2175 1800 1453 2100 
Q 319 2581 319 3500 
Q 319 4175 833 4548 
Q 1347 4922 2194 4922 
Q 2903 4922 3384 4738 
L 3384 3769 
Q 2897 4100 2244 4100 
Q 1863 4100 1634 3961 
Q 1406 3822 1406 3588 
Q 1406 3400 1562 3242 
Q 1719 3084 2334 2816 
Q 3056 2506 3326 2162 
Q 3597 1819 3597 1344 
Q 3597 647 3103 281 
Q 2609 -84 1700 -84 
Q 869 -84 338 184 
L 338 1219 
z
" transform="scale(0.015625)"/>
      <path id="MicrosoftYaHei-Bold-75" d="M 3691 0 
L 2688 0 
L 2688 528 
L 2672 528 
Q 2284 -84 1613 -84 
Q 406 -84 406 1372 
L 406 3456 
L 1416 3456 
L 1416 1466 
Q 1416 691 2022 691 
Q 2325 691 2506 903 
Q 2688 1116 2688 1478 
L 2688 3456 
L 3691 3456 
L 3691 0 
z
" transform="scale(0.015625)"/>
      <path id="MicrosoftYaHei-Bold-73" d="M 369 928 
Q 888 613 1384 613 
Q 2009 613 2009 947 
Q 2009 1184 1494 1344 
Q 850 1544 609 1789 
Q 369 2034 369 2453 
Q 369 2963 781 3252 
Q 1194 3541 1863 3541 
Q 2338 3541 2778 3400 
L 2778 2606 
Q 2375 2844 1891 2844 
Q 1650 2844 1503 2758 
Q 1356 2672 1356 2531 
Q 1356 2294 1794 2147 
Q 2263 1991 2498 1862 
Q 2734 1734 2857 1525 
Q 2981 1316 2981 1041 
Q 2981 506 2553 211 
Q 2125 -84 1409 -84 
Q 847 -84 369 94 
L 369 928 
z
" transform="scale(0.015625)"/>
      <path id="MicrosoftYaHei-Bold-70" d="M 1469 416 
L 1469 -1591 
L 459 -1591 
L 459 3456 
L 1469 3456 
L 1469 2928 
L 1481 2928 
Q 1878 3541 2603 3541 
Q 3263 3541 3634 3080 
Q 4006 2619 4006 1825 
Q 4006 959 3575 437 
Q 3144 -84 2444 -84 
Q 1809 -84 1481 416 
L 1469 416 
z
M 1453 1528 
Q 1453 1159 1653 925 
Q 1853 691 2172 691 
Q 2550 691 2761 984 
Q 2972 1278 2972 1816 
Q 2972 2766 2231 2766 
Q 1888 2766 1670 2503 
Q 1453 2241 1453 1828 
L 1453 1528 
z
" transform="scale(0.015625)"/>
      <path id="MicrosoftYaHei-Bold-65" d="M 3528 1444 
L 1253 1444 
Q 1306 641 2222 641 
Q 2794 641 3231 922 
L 3231 181 
Q 2759 -84 1994 -84 
Q 1169 -84 711 381 
Q 253 847 253 1678 
Q 253 2506 740 3023 
Q 1228 3541 1966 3541 
Q 2700 3541 3114 3095 
Q 3528 2650 3528 1872 
L 3528 1444 
z
M 2588 2075 
Q 2588 2850 1959 2850 
Q 1700 2850 1500 2637 
Q 1300 2425 1250 2075 
L 2588 2075 
z
" transform="scale(0.015625)"/>
      <path id="MicrosoftYaHei-Bold-64" d="M 3794 0 
L 2788 0 
L 2788 488 
L 2772 488 
Q 2406 -84 1691 -84 
Q 1031 -84 642 381 
Q 253 847 253 1650 
Q 253 2500 689 3020 
Q 1125 3541 1828 3541 
Q 2503 3541 2772 3053 
L 2788 3053 
L 2788 5116 
L 3794 5116 
L 3794 0 
z
M 2803 1956 
Q 2803 2306 2592 2536 
Q 2381 2766 2066 2766 
Q 1697 2766 1486 2473 
Q 1275 2181 1275 1681 
Q 1275 1206 1478 948 
Q 1681 691 2038 691 
Q 2372 691 2587 962 
Q 2803 1234 2803 1669 
L 2803 1956 
z
" transform="scale(0.015625)"/>
     </defs>
     <use xlink:href="#MicrosoftYaHei-Bold-53"/>
     <use xlink:href="#MicrosoftYaHei-Bold-75" transform="translate(60.15625 0)"/>
     <use xlink:href="#MicrosoftYaHei-Bold-73" transform="translate(124.951172 0)"/>
     <use xlink:href="#MicrosoftYaHei-Bold-70" transform="translate(174.316406 0)"/>
     <use xlink:href="#MicrosoftYaHei-Bold-65" transform="translate(240.917969 0)"/>
     <use xlink:href="#MicrosoftYaHei-Bold-6e" transform="translate(299.121094 0)"/>
     <use xlink:href="#MicrosoftYaHei-Bold-64" transform="translate(363.916016 0)"/>
     <use xlink:href="#MicrosoftYaHei-Bold-69" transform="translate(430.371094 0)"/>
     <use xlink:href="#MicrosoftYaHei-Bold-6e" transform="translate(459.960938 0)"/>
     <use xlink:href="#MicrosoftYaHei-Bold-67" transform="translate(524.755859 0)"/>
    </g>
   </g>
   <g id="text_5">
    <g id="patch_9">
     <path d="M 181.232859 65.454719 
L 239.391141 65.454719 
Q 240.291141 65.454719 240.291141 64.554719 
L 240.291141 55.004875 
Q 240.291141 54.104875 239.391141 54.104875 
L 181.232859 54.104875 
Q 180.332859 54.104875 180.332859 55.004875 
L 180.332859 64.554719 
Q 180.332859 65.454719 181.232859 65.454719 
z
" style="fill: #fffbe6"/>
    </g>
    <!-- ρ_obj = ρ_liq -->
    <g style="fill: #555555" transform="translate(181.232859 62.19925) scale(0.09 -0.09)">
     <defs>
      <path id="MicrosoftYaHei-Bold-3d" d="M 4072 2378 
L 797 2378 
L 797 3041 
L 4072 3041 
L 4072 2378 
z
M 4072 916 
L 797 916 
L 797 1578 
L 4072 1578 
L 4072 916 
z
" transform="scale(0.015625)"/>
     </defs>
     <use xlink:href="#MicrosoftYaHei-Bold-3c1"/>
     <use xlink:href="#MicrosoftYaHei-Bold-5f" transform="translate(66.357422 0)"/>
     <use xlink:href="#MicrosoftYaHei-Bold-6f" transform="translate(111.181641 0)"/>
     <use xlink:href="#MicrosoftYaHei-Bold-62" transform="translate(176.904297 0)"/>
     <use xlink:href="#MicrosoftYaHei-Bold-6a" transform="translate(243.505859 0)"/>
     <use xlink:href="#MicrosoftYaHei-Bold-20" transform="translate(273.681641 0)"/>
     <use xlink:href="#MicrosoftYaHei-Bold-3d" transform="translate(303.466797 0)"/>
     <use xlink:href="#MicrosoftYaHei-Bold-20" transform="translate(379.589844 0)"/>
     <use xlink:href="#MicrosoftYaHei-Bold-3c1" transform="translate(409.375 0)"/>
     <use xlink:href="#MicrosoftYaHei-Bold-5f" transform="translate(475.732422 0)"/>
     <use xlink:href="#MicrosoftYaHei-Bold-6c" transform="translate(520.556641 0)"/>
     <use xlink:href="#MicrosoftYaHei-Bold-69" transform="translate(550.146484 0)"/>
     <use xlink:href="#MicrosoftYaHei-Bold-71" transform="translate(579.736328 0)"/>
    </g>
   </g>
   <g id="text_6">
    <!-- V_displaced = V_obj -->
    <g style="fill: #666666" transform="translate(171.67575 188.19825) scale(0.08 -0.08)">
     <use xlink:href="#MicrosoftYaHei-56"/>
     <use xlink:href="#MicrosoftYaHei-5f" transform="translate(67.626953 0)"/>
     <use xlink:href="#MicrosoftYaHei-64" transform="translate(112.451172 0)"/>
     <use xlink:href="#MicrosoftYaHei-69" transform="translate(176.416016 0)"/>
     <use xlink:href="#MicrosoftYaHei-73" transform="translate(203.027344 0)"/>
     <use xlink:href="#MicrosoftYaHei-70" transform="translate(249.316406 0)"/>
     <use xlink:href="#MicrosoftYaHei-6c" transform="translate(313.183594 0)"/>
     <use xlink:href="#MicrosoftYaHei-61" transform="translate(339.794922 0)"/>
     <use xlink:href="#MicrosoftYaHei-63" transform="translate(395.068359 0)"/>
     <use xlink:href="#MicrosoftYaHei-65" transform="translate(445.214844 0)"/>
     <use xlink:href="#MicrosoftYaHei-64" transform="translate(501.953125 0)"/>
     <use xlink:href="#MicrosoftYaHei-20" transform="translate(565.917969 0)"/>
     <use xlink:href="#MicrosoftYaHei-3d" transform="translate(595.507812 0)"/>
     <use xlink:href="#MicrosoftYaHei-20" transform="translate(669.677734 0)"/>
     <use xlink:href="#MicrosoftYaHei-56" transform="translate(699.267578 0)"/>
     <use xlink:href="#MicrosoftYaHei-5f" transform="translate(766.894531 0)"/>
     <use xlink:href="#MicrosoftYaHei-6f" transform="translate(811.71875 0)"/>
     <use xlink:href="#MicrosoftYaHei-62" transform="translate(875.292969 0)"/>
     <use xlink:href="#MicrosoftYaHei-6a" transform="translate(939.160156 0)"/>
    </g>
    <!-- F_float = G = mg -->
    <g style="fill: #666666" transform="translate(177.80325 198.02725) scale(0.08 -0.08)">
     <use xlink:href="#MicrosoftYaHei-46"/>
     <use xlink:href="#MicrosoftYaHei-5f" transform="translate(53.125 0)"/>
     <use xlink:href="#MicrosoftYaHei-66" transform="translate(97.949219 0)"/>
     <use xlink:href="#MicrosoftYaHei-6c" transform="translate(132.617188 0)"/>
     <use xlink:href="#MicrosoftYaHei-6f" transform="translate(159.228516 0)"/>
     <use xlink:href="#MicrosoftYaHei-61" transform="translate(221.427734 0)"/>
     <use xlink:href="#MicrosoftYaHei-74" transform="translate(276.701172 0)"/>
     <use xlink:href="#MicrosoftYaHei-20" transform="translate(313.957031 0)"/>
     <use xlink:href="#MicrosoftYaHei-3d" transform="translate(343.546875 0)"/>
     <use xlink:href="#MicrosoftYaHei-20" transform="translate(417.716797 0)"/>
     <use xlink:href="#MicrosoftYaHei-47" transform="translate(447.306641 0)"/>
     <use xlink:href="#MicrosoftYaHei-20" transform="translate(521.671875 0)"/>
     <use xlink:href="#MicrosoftYaHei-3d" transform="translate(551.261719 0)"/>
     <use xlink:href="#MicrosoftYaHei-20" transform="translate(625.431641 0)"/>
     <use xlink:href="#MicrosoftYaHei-6d" transform="translate(655.021484 0)"/>
     <use xlink:href="#MicrosoftYaHei-67" transform="translate(748.722656 0)"/>
    </g>
   </g>
   <g id="text_7">
    <!-- Sinking -->
    <g style="fill: #e74c3c" transform="translate(318.584141 42.79525) scale(0.11 -0.11)">
     <defs>
      <path id="MicrosoftYaHei-Bold-6b" d="M 3856 0 
L 2631 0 
L 1481 1709 
L 1469 1709 
L 1469 0 
L 459 0 
L 459 5116 
L 1469 5116 
L 1469 1859 
L 1481 1859 
L 2559 3456 
L 3763 3456 
L 2481 1825 
L 3856 0 
z
" transform="scale(0.015625)"/>
     </defs>
     <use xlink:href="#MicrosoftYaHei-Bold-53"/>
     <use xlink:href="#MicrosoftYaHei-Bold-69" transform="translate(60.15625 0)"/>
     <use xlink:href="#MicrosoftYaHei-Bold-6e" transform="translate(89.746094 0)"/>
     <use xlink:href="#MicrosoftYaHei-Bold-6b" transform="translate(154.541016 0)"/>
     <use xlink:href="#MicrosoftYaHei-Bold-69" transform="translate(214.160156 0)"/>
     <use xlink:href="#MicrosoftYaHei-Bold-6e" transform="translate(243.75 0)"/>
     <use xlink:href="#MicrosoftYaHei-Bold-67" transform="translate(308.544922 0)"/>
    </g>
   </g>
   <g id="text_8">
    <g id="patch_10">
     <path d="M 310.130859 65.454719 
L 368.289141 65.454719 
Q 369.189141 65.454719 369.189141 64.554719 
L 369.189141 55.004875 
Q 369.189141 54.104875 368.289141 54.104875 
L 310.130859 54.104875 
Q 309.230859 54.104875 309.230859 55.004875 
L 309.230859 64.554719 
Q 309.230859 65.454719 310.130859 65.454719 
z
" style="fill: #fffbe6"/>
    </g>
    <!-- ρ_obj &gt; ρ_liq -->
    <g style="fill: #555555" transform="translate(310.130859 62.19925) scale(0.09 -0.09)">
     <defs>
      <path id="MicrosoftYaHei-Bold-3e" d="M 4000 1716 
L 878 275 
L 878 1041 
L 3122 1959 
L 3122 1975 
L 878 2969 
L 878 3738 
L 4000 2222 
L 4000 1716 
z
" transform="scale(0.015625)"/>
     </defs>
     <use xlink:href="#MicrosoftYaHei-Bold-3c1"/>
     <use xlink:href="#MicrosoftYaHei-Bold-5f" transform="translate(66.357422 0)"/>
     <use xlink:href="#MicrosoftYaHei-Bold-6f" transform="translate(111.181641 0)"/>
     <use xlink:href="#MicrosoftYaHei-Bold-62" transform="translate(176.904297 0)"/>
     <use xlink:href="#MicrosoftYaHei-Bold-6a" transform="translate(243.505859 0)"/>
     <use xlink:href="#MicrosoftYaHei-Bold-20" transform="translate(273.681641 0)"/>
     <use xlink:href="#MicrosoftYaHei-Bold-3e" transform="translate(303.466797 0)"/>
     <use xlink:href="#MicrosoftYaHei-Bold-20" transform="translate(379.589844 0)"/>
     <use xlink:href="#MicrosoftYaHei-Bold-3c1" transform="translate(409.375 0)"/>
     <use xlink:href="#MicrosoftYaHei-Bold-5f" transform="translate(475.732422 0)"/>
     <use xlink:href="#MicrosoftYaHei-Bold-6c" transform="translate(520.556641 0)"/>
     <use xlink:href="#MicrosoftYaHei-Bold-69" transform="translate(550.146484 0)"/>
     <use xlink:href="#MicrosoftYaHei-Bold-71" transform="translate(579.736328 0)"/>
    </g>
   </g>
   <g id="text_9">
    <!-- V_displaced = V_obj -->
    <g style="fill: #666666" transform="translate(300.57375 188.19825) scale(0.08 -0.08)">
     <use xlink:href="#MicrosoftYaHei-56"/>
     <use xlink:href="#MicrosoftYaHei-5f" transform="translate(67.626953 0)"/>
     <use xlink:href="#MicrosoftYaHei-64" transform="translate(112.451172 0)"/>
     <use xlink:href="#MicrosoftYaHei-69" transform="translate(176.416016 0)"/>
     <use xlink:href="#MicrosoftYaHei-73" transform="translate(203.027344 0)"/>
     <use xlink:href="#MicrosoftYaHei-70" transform="translate(249.316406 0)"/>
     <use xlink:href="#MicrosoftYaHei-6c" transform="translate(313.183594 0)"/>
     <use xlink:href="#MicrosoftYaHei-61" transform="translate(339.794922 0)"/>
     <use xlink:href="#MicrosoftYaHei-63" transform="translate(395.068359 0)"/>
     <use xlink:href="#MicrosoftYaHei-65" transform="translate(445.214844 0)"/>
     <use xlink:href="#MicrosoftYaHei-64" transform="translate(501.953125 0)"/>
     <use xlink:href="#MicrosoftYaHei-20" transform="translate(565.917969 0)"/>
     <use xlink:href="#MicrosoftYaHei-3d" transform="translate(595.507812 0)"/>
     <use xlink:href="#MicrosoftYaHei-20" transform="translate(669.677734 0)"/>
     <use xlink:href="#MicrosoftYaHei-56" transform="translate(699.267578 0)"/>
     <use xlink:href="#MicrosoftYaHei-5f" transform="translate(766.894531 0)"/>
     <use xlink:href="#MicrosoftYaHei-6f" transform="translate(811.71875 0)"/>
     <use xlink:href="#MicrosoftYaHei-62" transform="translate(875.292969 0)"/>
     <use xlink:href="#MicrosoftYaHei-6a" transform="translate(939.160156 0)"/>
    </g>
    <!-- F_float &lt; G, sinks -->
    <g style="fill: #666666" transform="translate(306.785 198.02725) scale(0.08 -0.08)">
     <defs>
      <path id="MicrosoftYaHei-2c" d="M 1109 778 
L 575 -888 
L 131 -888 
L 519 778 
L 1109 778 
z
" transform="scale(0.015625)"/>
      <path id="MicrosoftYaHei-6e" d="M 3469 0 
L 2859 0 
L 2859 1966 
Q 2859 3031 2081 3031 
Q 1678 3031 1418 2731 
Q 1159 2431 1159 1972 
L 1159 0 
L 547 0 
L 547 3456 
L 1159 3456 
L 1159 2884 
L 1172 2884 
Q 1563 3538 2306 3538 
Q 2875 3538 3172 3173 
Q 3469 2809 3469 2113 
L 3469 0 
z
" transform="scale(0.015625)"/>
      <path id="MicrosoftYaHei-6b" d="M 3484 0 
L 2650 0 
L 1172 1666 
L 1159 1666 
L 1159 0 
L 547 0 
L 547 5116 
L 1159 5116 
L 1159 1872 
L 1172 1872 
L 2575 3456 
L 3363 3456 
L 1800 1794 
L 3484 0 
z
" transform="scale(0.015625)"/>
     </defs>
     <use xlink:href="#MicrosoftYaHei-46"/>
     <use xlink:href="#MicrosoftYaHei-5f" transform="translate(53.125 0)"/>
     <use xlink:href="#MicrosoftYaHei-66" transform="translate(97.949219 0)"/>
     <use xlink:href="#MicrosoftYaHei-6c" transform="translate(132.617188 0)"/>
     <use xlink:href="#MicrosoftYaHei-6f" transform="translate(159.228516 0)"/>
     <use xlink:href="#MicrosoftYaHei-61" transform="translate(221.427734 0)"/>
     <use xlink:href="#MicrosoftYaHei-74" transform="translate(276.701172 0)"/>
     <use xlink:href="#MicrosoftYaHei-20" transform="translate(313.957031 0)"/>
     <use xlink:href="#MicrosoftYaHei-3c" transform="translate(343.546875 0)"/>
     <use xlink:href="#MicrosoftYaHei-20" transform="translate(417.716797 0)"/>
     <use xlink:href="#MicrosoftYaHei-47" transform="translate(447.306641 0)"/>
     <use xlink:href="#MicrosoftYaHei-2c" transform="translate(521.671875 0)"/>
     <use xlink:href="#MicrosoftYaHei-20" transform="translate(545.744141 0)"/>
     <use xlink:href="#MicrosoftYaHei-73" transform="translate(575.333984 0)"/>
     <use xlink:href="#MicrosoftYaHei-69" transform="translate(621.623047 0)"/>
     <use xlink:href="#MicrosoftYaHei-6e" transform="translate(648.234375 0)"/>
     <use xlink:href="#MicrosoftYaHei-6b" transform="translate(709.855469 0)"/>
     <use xlink:href="#MicrosoftYaHei-73" transform="translate(764.298828 0)"/>
    </g>
   </g>
   <g id="text_10">
    <!-- Buoyancy: Three States Compared -->
    <g style="fill: #2c3e50" transform="translate(82.288125 18.39125) scale(0.14 -0.14)">
     <defs>
      <path id="MicrosoftYaHei-Bold-42" d="M 559 0 
L 559 4841 
L 2278 4841 
Q 3069 4841 3497 4541 
Q 3925 4241 3925 3709 
Q 3925 3316 3659 3019 
Q 3394 2722 2991 2609 
L 2991 2597 
Q 3497 2534 3808 2221 
Q 4119 1909 4119 1438 
Q 4119 778 3650 389 
Q 3181 0 2369 0 
L 559 0 
z
M 1591 4072 
L 1591 2875 
L 2081 2875 
Q 2434 2875 2637 3044 
Q 2841 3213 2841 3516 
Q 2841 4072 2028 4072 
L 1591 4072 
z
M 1591 2097 
L 1591 769 
L 2203 769 
Q 2594 769 2814 950 
Q 3034 1131 3034 1453 
Q 3034 1759 2815 1928 
Q 2597 2097 2194 2097 
L 1591 2097 
z
" transform="scale(0.015625)"/>
      <path id="MicrosoftYaHei-Bold-79" d="M 3691 3456 
L 2266 -309 
Q 1769 -1622 778 -1622 
Q 388 -1622 172 -1541 
L 172 -731 
Q 375 -847 619 -847 
Q 1031 -847 1200 -447 
L 1391 6 
L -6 3456 
L 1113 3456 
L 1788 1291 
Q 1850 1094 1878 850 
L 1897 850 
Q 1919 1016 2000 1284 
L 2691 3456 
L 3691 3456 
z
" transform="scale(0.015625)"/>
      <path id="MicrosoftYaHei-Bold-63" d="M 3050 128 
Q 2688 -84 2019 -84 
Q 1228 -84 740 397 
Q 253 878 253 1644 
Q 253 2525 778 3033 
Q 1303 3541 2178 3541 
Q 2769 3541 3053 3378 
L 3053 2513 
Q 2706 2766 2297 2766 
Q 1834 2766 1554 2484 
Q 1275 2203 1275 1713 
Q 1275 1238 1540 964 
Q 1806 691 2263 691 
Q 2666 691 3050 947 
L 3050 128 
z
" transform="scale(0.015625)"/>
      <path id="MicrosoftYaHei-Bold-3a" d="M 313 2969 
Q 313 3200 491 3350 
Q 669 3500 916 3500 
Q 1166 3500 1337 3350 
Q 1509 3200 1509 2969 
Q 1509 2728 1337 2579 
Q 1166 2431 903 2431 
Q 653 2431 483 2584 
Q 313 2738 313 2969 
z
M 313 453 
Q 313 688 491 838 
Q 669 988 916 988 
Q 1166 988 1337 834 
Q 1509 681 1509 453 
Q 1509 213 1337 64 
Q 1166 -84 903 -84 
Q 659 -84 486 69 
Q 313 222 313 453 
z
" transform="scale(0.015625)"/>
      <path id="MicrosoftYaHei-Bold-54" d="M 3900 3997 
L 2519 3997 
L 2519 0 
L 1484 0 
L 1484 3997 
L 106 3997 
L 106 4841 
L 3900 4841 
L 3900 3997 
z
" transform="scale(0.015625)"/>
      <path id="MicrosoftYaHei-Bold-68" d="M 3725 0 
L 2719 0 
L 2719 1969 
Q 2719 2766 2138 2766 
Q 1847 2766 1658 2544 
Q 1469 2322 1469 1969 
L 1469 0 
L 459 0 
L 459 5116 
L 1469 5116 
L 1469 2938 
L 1481 2938 
Q 1878 3541 2550 3541 
Q 3725 3541 3725 2122 
L 3725 0 
z
" transform="scale(0.015625)"/>
      <path id="MicrosoftYaHei-Bold-72" d="M 2663 2541 
Q 2478 2647 2216 2647 
Q 1872 2647 1670 2384 
Q 1469 2122 1469 1663 
L 1469 0 
L 459 0 
L 459 3456 
L 1469 3456 
L 1469 2806 
L 1481 2806 
Q 1731 3516 2391 3516 
Q 2569 3516 2663 3475 
L 2663 2541 
z
" transform="scale(0.015625)"/>
      <path id="MicrosoftYaHei-Bold-43" d="M 4013 175 
Q 3484 -84 2634 -84 
Q 1541 -84 898 570 
Q 256 1225 256 2316 
Q 256 3463 973 4192 
Q 1691 4922 2825 4922 
Q 3534 4922 4013 4738 
L 4013 3741 
Q 3522 4028 2900 4028 
Q 2191 4028 1766 3575 
Q 1341 3122 1341 2391 
Q 1341 1678 1744 1243 
Q 2147 809 2834 809 
Q 3481 809 4013 1122 
L 4013 175 
z
" transform="scale(0.015625)"/>
      <path id="MicrosoftYaHei-Bold-6d" d="M 5881 0 
L 4875 0 
L 4875 1972 
Q 4875 2766 4297 2766 
Q 4028 2766 3850 2525 
Q 3672 2284 3672 1938 
L 3672 0 
L 2666 0 
L 2666 1997 
Q 2666 2766 2094 2766 
Q 1809 2766 1639 2536 
Q 1469 2306 1469 1928 
L 1469 0 
L 459 0 
L 459 3456 
L 1469 3456 
L 1469 2916 
L 1481 2916 
Q 1663 3213 1963 3377 
Q 2263 3541 2594 3541 
Q 3322 3541 3591 2888 
Q 3991 3541 4753 3541 
Q 5881 3541 5881 2147 
L 5881 0 
z
" transform="scale(0.015625)"/>
     </defs>
     <use xlink:href="#MicrosoftYaHei-Bold-42"/>
     <use xlink:href="#MicrosoftYaHei-Bold-75" transform="translate(68.359375 0)"/>
     <use xlink:href="#MicrosoftYaHei-Bold-6f" transform="translate(133.154297 0)"/>
     <use xlink:href="#MicrosoftYaHei-Bold-79" transform="translate(198.876953 0)"/>
     <use xlink:href="#MicrosoftYaHei-Bold-61" transform="translate(256.298828 0)"/>
     <use xlink:href="#MicrosoftYaHei-Bold-6e" transform="translate(314.0625 0)"/>
     <use xlink:href="#MicrosoftYaHei-Bold-63" transform="translate(378.857422 0)"/>
     <use xlink:href="#MicrosoftYaHei-Bold-79" transform="translate(430.517578 0)"/>
     <use xlink:href="#MicrosoftYaHei-Bold-3a" transform="translate(487.939453 0)"/>
     <use xlink:href="#MicrosoftYaHei-Bold-20" transform="translate(516.503906 0)"/>
     <use xlink:href="#MicrosoftYaHei-Bold-54" transform="translate(546.289062 0)"/>
     <use xlink:href="#MicrosoftYaHei-Bold-68" transform="translate(608.837891 0)"/>
     <use xlink:href="#MicrosoftYaHei-Bold-72" transform="translate(673.388672 0)"/>
     <use xlink:href="#MicrosoftYaHei-Bold-65" transform="translate(715.271484 0)"/>
     <use xlink:href="#MicrosoftYaHei-Bold-65" transform="translate(773.474609 0)"/>
     <use xlink:href="#MicrosoftYaHei-Bold-20" transform="translate(831.677734 0)"/>
     <use xlink:href="#MicrosoftYaHei-Bold-53" transform="translate(861.462891 0)"/>
     <use xlink:href="#MicrosoftYaHei-Bold-74" transform="translate(918.869141 0)"/>
     <use xlink:href="#MicrosoftYaHei-Bold-61" transform="translate(960.275391 0)"/>
     <use xlink:href="#MicrosoftYaHei-Bold-74" transform="translate(1018.039062 0)"/>
     <use xlink:href="#MicrosoftYaHei-Bold-65" transform="translate(1058.945312 0)"/>
     <use xlink:href="#MicrosoftYaHei-Bold-73" transform="translate(1117.148438 0)"/>
     <use xlink:href="#MicrosoftYaHei-Bold-20" transform="translate(1166.513672 0)"/>
     <use xlink:href="#MicrosoftYaHei-Bold-43" transform="translate(1196.298828 0)"/>
     <use xlink:href="#MicrosoftYaHei-Bold-6f" transform="translate(1263.632812 0)"/>
     <use xlink:href="#MicrosoftYaHei-Bold-6d" transform="translate(1329.355469 0)"/>
     <use xlink:href="#MicrosoftYaHei-Bold-70" transform="translate(1427.548828 0)"/>
     <use xlink:href="#MicrosoftYaHei-Bold-61" transform="translate(1493.025391 0)"/>
     <use xlink:href="#MicrosoftYaHei-Bold-72" transform="translate(1550.789062 0)"/>
     <use xlink:href="#MicrosoftYaHei-Bold-65" transform="translate(1592.671875 0)"/>
     <use xlink:href="#MicrosoftYaHei-Bold-64" transform="translate(1650.875 0)"/>
    </g>
   </g>
  </g>
 </g>
 <defs>
  <clipPath id="p0e2c18d155">
   <rect x="7.2" y="23.39125" width="390.6" height="194.04"/>
  </clipPath>
 </defs>
</svg>
