<?xml version="1.0" encoding="utf-8" standalone="no"?>
<!DOCTYPE svg PUBLIC "-//W3C//DTD SVG 1.1//EN"
  "http://www.w3.org/Graphics/SVG/1.1/DTD/svg11.dtd">
<svg xmlns:xlink="http://www.w3.org/1999/xlink" width="460.8pt" height="153pt" viewBox="0 0 460.8 153" xmlns="http://www.w3.org/2000/svg" version="1.1">
 <metadata>
  <rdf:RDF xmlns:dc="http://purl.org/dc/elements/1.1/" xmlns:cc="http://creativecommons.org/ns#" xmlns:rdf="http://www.w3.org/1999/02/22-rdf-syntax-ns#">
   <cc:Work>
    <dc:type rdf:resource="http://purl.org/dc/dcmitype/StillImage"/>
    <dc:date>2026-05-25T22:33:52.855910</dc:date>
    <dc:format>image/svg+xml</dc:format>
    <dc:creator>
     <cc:Agent>
      <dc:title>Matplotlib v3.10.9, https://matplotlib.org/</dc:title>
     </cc:Agent>
    </dc:creator>
   </cc:Work>
  </rdf:RDF>
 </metadata>
 <defs>
  <style type="text/css">*{stroke-linejoin: round; stroke-linecap: butt}</style>
 </defs>
 <g id="figure_1">
  <g id="patch_1">
   <path d="M 0 153 
L 460.8 153 
L 460.8 0 
L 0 0 
z
" style="fill: #ffffff"/>
  </g>
  <g id="axes_1">
   <g id="patch_2">
    <path d="M 29.52 129.63 
L 109.872 129.63 
Q 116.568 129.63 116.568 122.7 
L 116.568 30.3 
Q 116.568 23.37 109.872 23.37 
L 29.52 23.37 
Q 22.824 23.37 22.824 30.3 
L 22.824 122.7 
Q 22.824 129.63 29.52 129.63 
z
" clip-path="url(#p8d4a73294f)" style="fill: #2980b9; opacity: 0.9"/>
   </g>
   <g id="patch_3">
    <path d="M 118.8 129.63 
L 199.152 129.63 
Q 205.848 129.63 205.848 122.7 
L 205.848 30.3 
Q 205.848 23.37 199.152 23.37 
L 118.8 23.37 
Q 112.104 23.37 112.104 30.3 
L 112.104 122.7 
Q 112.104 129.63 118.8 129.63 
z
" clip-path="url(#p8d4a73294f)" style="fill: #3498db; opacity: 0.9"/>
   </g>
   <g id="patch_4">
    <path d="M 208.08 129.63 
L 288.432 129.63 
Q 295.128 129.63 295.128 122.7 
L 295.128 30.3 
Q 295.128 23.37 288.432 23.37 
L 208.08 23.37 
Q 201.384 23.37 201.384 30.3 
L 201.384 122.7 
Q 201.384 129.63 208.08 129.63 
z
" clip-path="url(#p8d4a73294f)" style="fill: #5dade2; opacity: 0.9"/>
   </g>
   <g id="patch_5">
    <path d="M 297.36 129.63 
L 377.712 129.63 
Q 384.408 129.63 384.408 122.7 
L 384.408 30.3 
Q 384.408 23.37 377.712 23.37 
L 297.36 23.37 
Q 290.664 23.37 290.664 30.3 
L 290.664 122.7 
Q 290.664 129.63 297.36 129.63 
z
" clip-path="url(#p8d4a73294f)" style="fill: #85c1e9; opacity: 0.9"/>
   </g>
   <g id="text_1">
    <!-- Step 1 -->
    <g style="fill: #ffffff" transform="translate(53.967094 72.015625) scale(0.1 -0.1)">
     <defs>
      <path id="MicrosoftYaHei-Bold-53" d="M 338 1219 
Q 922 734 1666 734 
Q 2088 734 2300 879 
Q 2513 1025 2513 1253 
Q 2513 1450 2344 1625 
Q 2175 1800 1453 2100 
Q 319 2581 319 3500 
Q 319 4175 833 4548 
Q 1347 4922 2194 4922 
Q 2903 4922 3384 4738 
L 3384 3769 
Q 2897 4100 2244 4100 
Q 1863 4100 1634 3961 
Q 1406 3822 1406 3588 
Q 1406 3400 1562 3242 
Q 1719 3084 2334 2816 
Q 3056 2506 3326 2162 
Q 3597 1819 3597 1344 
Q 3597 647 3103 281 
Q 2609 -84 1700 -84 
Q 869 -84 338 184 
L 338 1219 
z
" transform="scale(0.015625)"/>
      <path id="MicrosoftYaHei-Bold-74" d="M 2494 41 
Q 2266 -84 1803 -84 
Q 703 -84 703 1072 
L 703 2703 
L 134 2703 
L 134 3456 
L 703 3456 
L 703 4216 
L 1706 4503 
L 1706 3456 
L 2494 3456 
L 2494 2703 
L 1706 2703 
L 1706 1247 
Q 1706 694 2144 694 
Q 2313 694 2494 794 
L 2494 41 
z
" transform="scale(0.015625)"/>
      <path id="MicrosoftYaHei-Bold-65" d="M 3528 1444 
L 1253 1444 
Q 1306 641 2222 641 
Q 2794 641 3231 922 
L 3231 181 
Q 2759 -84 1994 -84 
Q 1169 -84 711 381 
Q 253 847 253 1678 
Q 253 2506 740 3023 
Q 1228 3541 1966 3541 
Q 2700 3541 3114 3095 
Q 3528 2650 3528 1872 
L 3528 1444 
z
M 2588 2075 
Q 2588 2850 1959 2850 
Q 1700 2850 1500 2637 
Q 1300 2425 1250 2075 
L 2588 2075 
z
" transform="scale(0.015625)"/>
      <path id="MicrosoftYaHei-Bold-70" d="M 1469 416 
L 1469 -1591 
L 459 -1591 
L 459 3456 
L 1469 3456 
L 1469 2928 
L 1481 2928 
Q 1878 3541 2603 3541 
Q 3263 3541 3634 3080 
Q 4006 2619 4006 1825 
Q 4006 959 3575 437 
Q 3144 -84 2444 -84 
Q 1809 -84 1481 416 
L 1469 416 
z
M 1453 1528 
Q 1453 1159 1653 925 
Q 1853 691 2172 691 
Q 2550 691 2761 984 
Q 2972 1278 2972 1816 
Q 2972 2766 2231 2766 
Q 1888 2766 1670 2503 
Q 1453 2241 1453 1828 
L 1453 1528 
z
" transform="scale(0.015625)"/>
      <path id="MicrosoftYaHei-Bold-20" transform="scale(0.015625)"/>
      <path id="MicrosoftYaHei-Bold-31" d="M 2716 4947 
L 2716 0 
L 1700 0 
L 1700 3809 
Q 1513 3647 1188 3517 
Q 863 3388 591 3356 
L 591 4222 
Q 1447 4472 2072 4947 
L 2716 4947 
z
" transform="scale(0.015625)"/>
     </defs>
     <use xlink:href="#MicrosoftYaHei-Bold-53"/>
     <use xlink:href="#MicrosoftYaHei-Bold-74" transform="translate(57.40625 0)"/>
     <use xlink:href="#MicrosoftYaHei-Bold-65" transform="translate(98.3125 0)"/>
     <use xlink:href="#MicrosoftYaHei-Bold-70" transform="translate(156.515625 0)"/>
     <use xlink:href="#MicrosoftYaHei-Bold-20" transform="translate(223.117188 0)"/>
     <use xlink:href="#MicrosoftYaHei-Bold-31" transform="translate(252.902344 0)"/>
    </g>
    <!-- Read &amp; Understand -->
    <g style="fill: #ffffff" transform="translate(20.192875 86.492188) scale(0.1 -0.1)">
     <defs>
      <path id="MicrosoftYaHei-Bold-52" d="M 4553 0 
L 3366 0 
L 2606 1259 
Q 2372 1650 2222 1762 
Q 2072 1875 1903 1875 
L 1591 1875 
L 1591 0 
L 559 0 
L 559 4841 
L 2256 4841 
Q 3984 4841 3984 3528 
Q 3984 3034 3695 2681 
Q 3406 2328 2900 2184 
L 2900 2172 
Q 3234 2059 3641 1434 
L 4553 0 
z
M 1591 4056 
L 1591 2663 
L 2097 2663 
Q 2459 2663 2679 2873 
Q 2900 3084 2900 3400 
Q 2900 4056 2116 4056 
L 1591 4056 
z
" transform="scale(0.015625)"/>
      <path id="MicrosoftYaHei-Bold-61" d="M 544 3247 
Q 778 3378 1170 3459 
Q 1563 3541 1841 3541 
Q 3291 3541 3291 2088 
L 3291 0 
L 2331 0 
L 2331 503 
L 2319 503 
Q 1966 -84 1284 -84 
Q 794 -84 498 195 
Q 203 475 203 956 
Q 203 1950 1388 2113 
L 2338 2241 
Q 2338 2844 1709 2844 
Q 1091 2844 544 2469 
L 544 3247 
z
M 1684 1566 
Q 1138 1494 1138 1072 
Q 1138 878 1270 759 
Q 1403 641 1628 641 
Q 1938 641 2138 859 
Q 2338 1078 2338 1403 
L 2338 1650 
L 1684 1566 
z
" transform="scale(0.015625)"/>
      <path id="MicrosoftYaHei-Bold-64" d="M 3794 0 
L 2788 0 
L 2788 488 
L 2772 488 
Q 2406 -84 1691 -84 
Q 1031 -84 642 381 
Q 253 847 253 1650 
Q 253 2500 689 3020 
Q 1125 3541 1828 3541 
Q 2503 3541 2772 3053 
L 2788 3053 
L 2788 5116 
L 3794 5116 
L 3794 0 
z
M 2803 1956 
Q 2803 2306 2592 2536 
Q 2381 2766 2066 2766 
Q 1697 2766 1486 2473 
Q 1275 2181 1275 1681 
Q 1275 1206 1478 948 
Q 1681 691 2038 691 
Q 2372 691 2587 962 
Q 2803 1234 2803 1669 
L 2803 1956 
z
" transform="scale(0.015625)"/>
      <path id="MicrosoftYaHei-Bold-26" d="M 3831 538 
Q 3075 -78 2078 -78 
Q 1247 -78 759 314 
Q 272 706 272 1394 
Q 272 2344 1441 2800 
Q 853 3259 853 3809 
Q 853 4319 1242 4620 
Q 1631 4922 2297 4922 
Q 2906 4922 3289 4628 
Q 3672 4334 3672 3872 
Q 3672 3134 2806 2772 
Q 3475 2472 3975 1731 
Q 4494 2384 4494 3319 
Q 4494 3578 4428 3784 
L 5297 3784 
Q 5363 3600 5363 3334 
Q 5363 2094 4428 1091 
Q 4794 700 5122 700 
Q 5450 700 5725 834 
L 5725 63 
Q 5381 -78 4981 -78 
Q 4369 -78 3831 538 
z
M 2188 3153 
Q 2775 3369 2775 3800 
Q 2775 3997 2633 4119 
Q 2491 4241 2297 4241 
Q 2066 4241 1912 4108 
Q 1759 3975 1759 3781 
Q 1759 3403 2188 3153 
z
M 3391 1181 
Q 2853 2041 2028 2381 
Q 1297 2044 1297 1434 
Q 1297 1100 1526 895 
Q 1756 691 2128 691 
Q 2822 691 3391 1181 
z
" transform="scale(0.015625)"/>
      <path id="MicrosoftYaHei-Bold-55" d="M 4466 2081 
Q 4466 -84 2453 -84 
Q 509 -84 509 2025 
L 509 4841 
L 1544 4841 
L 1544 2019 
Q 1544 809 2497 809 
Q 3434 809 3434 1975 
L 3434 4841 
L 4466 4841 
L 4466 2081 
z
" transform="scale(0.015625)"/>
      <path id="MicrosoftYaHei-Bold-6e" d="M 3744 0 
L 2741 0 
L 2741 1928 
Q 2741 2766 2138 2766 
Q 1850 2766 1659 2542 
Q 1469 2319 1469 1972 
L 1469 0 
L 459 0 
L 459 3456 
L 1469 3456 
L 1469 2906 
L 1481 2906 
Q 1859 3541 2594 3541 
Q 3744 3541 3744 2116 
L 3744 0 
z
" transform="scale(0.015625)"/>
      <path id="MicrosoftYaHei-Bold-72" d="M 2663 2541 
Q 2478 2647 2216 2647 
Q 1872 2647 1670 2384 
Q 1469 2122 1469 1663 
L 1469 0 
L 459 0 
L 459 3456 
L 1469 3456 
L 1469 2806 
L 1481 2806 
Q 1731 3516 2391 3516 
Q 2569 3516 2663 3475 
L 2663 2541 
z
" transform="scale(0.015625)"/>
      <path id="MicrosoftYaHei-Bold-73" d="M 369 928 
Q 888 613 1384 613 
Q 2009 613 2009 947 
Q 2009 1184 1494 1344 
Q 850 1544 609 1789 
Q 369 2034 369 2453 
Q 369 2963 781 3252 
Q 1194 3541 1863 3541 
Q 2338 3541 2778 3400 
L 2778 2606 
Q 2375 2844 1891 2844 
Q 1650 2844 1503 2758 
Q 1356 2672 1356 2531 
Q 1356 2294 1794 2147 
Q 2263 1991 2498 1862 
Q 2734 1734 2857 1525 
Q 2981 1316 2981 1041 
Q 2981 506 2553 211 
Q 2125 -84 1409 -84 
Q 847 -84 369 94 
L 369 928 
z
" transform="scale(0.015625)"/>
     </defs>
     <use xlink:href="#MicrosoftYaHei-Bold-52"/>
     <use xlink:href="#MicrosoftYaHei-Bold-65" transform="translate(67.074219 0)"/>
     <use xlink:href="#MicrosoftYaHei-Bold-61" transform="translate(125.277344 0)"/>
     <use xlink:href="#MicrosoftYaHei-Bold-64" transform="translate(183.041016 0)"/>
     <use xlink:href="#MicrosoftYaHei-Bold-20" transform="translate(249.496094 0)"/>
     <use xlink:href="#MicrosoftYaHei-Bold-26" transform="translate(279.28125 0)"/>
     <use xlink:href="#MicrosoftYaHei-Bold-20" transform="translate(370.394531 0)"/>
     <use xlink:href="#MicrosoftYaHei-Bold-55" transform="translate(400.179688 0)"/>
     <use xlink:href="#MicrosoftYaHei-Bold-6e" transform="translate(477.816406 0)"/>
     <use xlink:href="#MicrosoftYaHei-Bold-64" transform="translate(542.611328 0)"/>
     <use xlink:href="#MicrosoftYaHei-Bold-65" transform="translate(609.066406 0)"/>
     <use xlink:href="#MicrosoftYaHei-Bold-72" transform="translate(667.269531 0)"/>
     <use xlink:href="#MicrosoftYaHei-Bold-73" transform="translate(710.277344 0)"/>
     <use xlink:href="#MicrosoftYaHei-Bold-74" transform="translate(759.642578 0)"/>
     <use xlink:href="#MicrosoftYaHei-Bold-61" transform="translate(801.048828 0)"/>
     <use xlink:href="#MicrosoftYaHei-Bold-6e" transform="translate(858.8125 0)"/>
     <use xlink:href="#MicrosoftYaHei-Bold-64" transform="translate(923.607422 0)"/>
    </g>
   </g>
   <g id="text_2">
    <!-- Step 2 -->
    <g style="fill: #ffffff" transform="translate(143.247094 72.015625) scale(0.1 -0.1)">
     <defs>
      <path id="MicrosoftYaHei-Bold-32" d="M 1500 841 
L 3553 841 
L 3553 0 
L 334 0 
L 334 359 
Q 334 738 473 1050 
Q 613 1363 856 1633 
Q 1100 1903 1613 2266 
Q 2081 2616 2268 2886 
Q 2456 3156 2456 3459 
Q 2456 4113 1744 4113 
Q 1119 4113 550 3613 
L 550 4513 
Q 1184 4922 1975 4922 
Q 2700 4922 3122 4551 
Q 3544 4181 3544 3531 
Q 3544 3169 3422 2876 
Q 3300 2584 3069 2328 
Q 2838 2072 2328 1713 
Q 1838 1363 1669 1172 
Q 1500 981 1500 841 
z
" transform="scale(0.015625)"/>
     </defs>
     <use xlink:href="#MicrosoftYaHei-Bold-53"/>
     <use xlink:href="#MicrosoftYaHei-Bold-74" transform="translate(57.40625 0)"/>
     <use xlink:href="#MicrosoftYaHei-Bold-65" transform="translate(98.3125 0)"/>
     <use xlink:href="#MicrosoftYaHei-Bold-70" transform="translate(156.515625 0)"/>
     <use xlink:href="#MicrosoftYaHei-Bold-20" transform="translate(223.117188 0)"/>
     <use xlink:href="#MicrosoftYaHei-Bold-32" transform="translate(252.902344 0)"/>
    </g>
    <!-- Plan the Plot -->
    <g style="fill: #ffffff" transform="translate(126.774438 86.492188) scale(0.1 -0.1)">
     <defs>
      <path id="MicrosoftYaHei-Bold-50" d="M 1591 1688 
L 1591 0 
L 559 0 
L 559 4841 
L 2225 4841 
Q 4031 4841 4031 3309 
Q 4031 2566 3486 2117 
Q 2941 1669 2122 1688 
L 1591 1688 
z
M 1591 4041 
L 1591 2478 
L 2038 2478 
Q 2947 2478 2947 3269 
Q 2947 4041 2047 4041 
L 1591 4041 
z
" transform="scale(0.015625)"/>
      <path id="MicrosoftYaHei-Bold-6c" d="M 444 0 
L 444 5116 
L 1450 5116 
L 1450 0 
L 444 0 
z
" transform="scale(0.015625)"/>
      <path id="MicrosoftYaHei-Bold-68" d="M 3725 0 
L 2719 0 
L 2719 1969 
Q 2719 2766 2138 2766 
Q 1847 2766 1658 2544 
Q 1469 2322 1469 1969 
L 1469 0 
L 459 0 
L 459 5116 
L 1469 5116 
L 1469 2938 
L 1481 2938 
Q 1878 3541 2550 3541 
Q 3725 3541 3725 2122 
L 3725 0 
z
" transform="scale(0.015625)"/>
      <path id="MicrosoftYaHei-Bold-6f" d="M 253 1713 
Q 253 2566 764 3053 
Q 1275 3541 2138 3541 
Q 2972 3541 3462 3061 
Q 3953 2581 3953 1772 
Q 3953 922 3450 419 
Q 2947 -84 2088 -84 
Q 1244 -84 748 398 
Q 253 881 253 1713 
z
M 1275 1725 
Q 1275 691 2119 691 
Q 2928 691 2928 1753 
Q 2928 2766 2113 2766 
Q 1716 2766 1495 2494 
Q 1275 2222 1275 1725 
z
" transform="scale(0.015625)"/>
     </defs>
     <use xlink:href="#MicrosoftYaHei-Bold-50"/>
     <use xlink:href="#MicrosoftYaHei-Bold-6c" transform="translate(65.722656 0)"/>
     <use xlink:href="#MicrosoftYaHei-Bold-61" transform="translate(95.3125 0)"/>
     <use xlink:href="#MicrosoftYaHei-Bold-6e" transform="translate(153.076172 0)"/>
     <use xlink:href="#MicrosoftYaHei-Bold-20" transform="translate(217.871094 0)"/>
     <use xlink:href="#MicrosoftYaHei-Bold-74" transform="translate(247.65625 0)"/>
     <use xlink:href="#MicrosoftYaHei-Bold-68" transform="translate(289.0625 0)"/>
     <use xlink:href="#MicrosoftYaHei-Bold-65" transform="translate(353.613281 0)"/>
     <use xlink:href="#MicrosoftYaHei-Bold-20" transform="translate(411.816406 0)"/>
     <use xlink:href="#MicrosoftYaHei-Bold-50" transform="translate(441.601562 0)"/>
     <use xlink:href="#MicrosoftYaHei-Bold-6c" transform="translate(507.324219 0)"/>
     <use xlink:href="#MicrosoftYaHei-Bold-6f" transform="translate(536.914062 0)"/>
     <use xlink:href="#MicrosoftYaHei-Bold-74" transform="translate(602.636719 0)"/>
    </g>
   </g>
   <g id="text_3">
    <!-- Step 3 -->
    <g style="fill: #ffffff" transform="translate(232.527094 72.015625) scale(0.1 -0.1)">
     <defs>
      <path id="MicrosoftYaHei-Bold-33" d="M 494 1053 
Q 978 691 1625 691 
Q 2034 691 2275 872 
Q 2516 1053 2516 1388 
Q 2516 1731 2230 1912 
Q 1944 2094 1428 2094 
L 997 2094 
L 997 2872 
L 1394 2872 
Q 2369 2872 2369 3528 
Q 2369 4147 1622 4147 
Q 1134 4147 675 3828 
L 675 4663 
Q 1175 4922 1853 4922 
Q 2541 4922 2969 4605 
Q 3397 4288 3397 3725 
Q 3397 2775 2434 2531 
L 2434 2516 
Q 2941 2459 3244 2145 
Q 3547 1831 3547 1381 
Q 3547 691 3042 303 
Q 2538 -84 1697 -84 
Q 950 -84 494 163 
L 494 1053 
z
" transform="scale(0.015625)"/>
     </defs>
     <use xlink:href="#MicrosoftYaHei-Bold-53"/>
     <use xlink:href="#MicrosoftYaHei-Bold-74" transform="translate(57.40625 0)"/>
     <use xlink:href="#MicrosoftYaHei-Bold-65" transform="translate(98.3125 0)"/>
     <use xlink:href="#MicrosoftYaHei-Bold-70" transform="translate(156.515625 0)"/>
     <use xlink:href="#MicrosoftYaHei-Bold-20" transform="translate(223.117188 0)"/>
     <use xlink:href="#MicrosoftYaHei-Bold-33" transform="translate(252.902344 0)"/>
    </g>
    <!-- Write with Detail -->
    <g style="fill: #ffffff" transform="translate(205.502094 86.492188) scale(0.1 -0.1)">
     <defs>
      <path id="MicrosoftYaHei-Bold-57" d="M 6825 4841 
L 5534 0 
L 4388 0 
L 3563 3156 
Q 3497 3413 3484 3691 
L 3472 3691 
Q 3441 3366 3384 3156 
L 2541 0 
L 1350 0 
L 59 4841 
L 1191 4841 
L 1909 1559 
Q 1956 1344 1975 1016 
L 1997 1016 
Q 2013 1272 2094 1575 
L 2994 4841 
L 4091 4841 
L 4909 1534 
Q 4959 1338 4988 1022 
L 5003 1022 
Q 5016 1294 5075 1553 
L 5778 4841 
L 6825 4841 
z
" transform="scale(0.015625)"/>
      <path id="MicrosoftYaHei-Bold-69" d="M 369 4572 
Q 369 4803 533 4948 
Q 697 5094 953 5094 
Q 1216 5094 1378 4945 
Q 1541 4797 1541 4572 
Q 1541 4344 1375 4192 
Q 1209 4041 953 4041 
Q 700 4041 534 4194 
Q 369 4347 369 4572 
z
M 444 0 
L 444 3456 
L 1450 3456 
L 1450 0 
L 444 0 
z
" transform="scale(0.015625)"/>
      <path id="MicrosoftYaHei-Bold-77" d="M 5391 3456 
L 4391 0 
L 3331 0 
L 2800 2075 
Q 2747 2284 2744 2503 
L 2722 2503 
Q 2700 2256 2656 2088 
L 2084 0 
L 1038 0 
L 53 3456 
L 1084 3456 
L 1588 1163 
Q 1619 1025 1638 784 
L 1659 784 
Q 1675 1016 1719 1175 
L 2338 3456 
L 3294 3456 
L 3847 1159 
Q 3869 1066 3894 778 
L 3919 778 
Q 3928 944 3972 1159 
L 4453 3456 
L 5391 3456 
z
" transform="scale(0.015625)"/>
      <path id="MicrosoftYaHei-Bold-44" d="M 559 0 
L 559 4841 
L 2231 4841 
Q 4809 4841 4809 2481 
Q 4809 1359 4087 679 
Q 3366 0 2225 0 
L 559 0 
z
M 1591 3997 
L 1591 844 
L 2153 844 
Q 2888 844 3306 1281 
Q 3725 1719 3725 2466 
Q 3725 3188 3287 3592 
Q 2850 3997 2150 3997 
L 1591 3997 
z
" transform="scale(0.015625)"/>
     </defs>
     <use xlink:href="#MicrosoftYaHei-Bold-57"/>
     <use xlink:href="#MicrosoftYaHei-Bold-72" transform="translate(107.617188 0)"/>
     <use xlink:href="#MicrosoftYaHei-Bold-69" transform="translate(150.375 0)"/>
     <use xlink:href="#MicrosoftYaHei-Bold-74" transform="translate(179.964844 0)"/>
     <use xlink:href="#MicrosoftYaHei-Bold-65" transform="translate(220.871094 0)"/>
     <use xlink:href="#MicrosoftYaHei-Bold-20" transform="translate(279.074219 0)"/>
     <use xlink:href="#MicrosoftYaHei-Bold-77" transform="translate(308.859375 0)"/>
     <use xlink:href="#MicrosoftYaHei-Bold-69" transform="translate(394.015625 0)"/>
     <use xlink:href="#MicrosoftYaHei-Bold-74" transform="translate(423.605469 0)"/>
     <use xlink:href="#MicrosoftYaHei-Bold-68" transform="translate(465.011719 0)"/>
     <use xlink:href="#MicrosoftYaHei-Bold-20" transform="translate(529.5625 0)"/>
     <use xlink:href="#MicrosoftYaHei-Bold-44" transform="translate(559.347656 0)"/>
     <use xlink:href="#MicrosoftYaHei-Bold-65" transform="translate(638.498047 0)"/>
     <use xlink:href="#MicrosoftYaHei-Bold-74" transform="translate(696.701172 0)"/>
     <use xlink:href="#MicrosoftYaHei-Bold-61" transform="translate(738.107422 0)"/>
     <use xlink:href="#MicrosoftYaHei-Bold-69" transform="translate(795.871094 0)"/>
     <use xlink:href="#MicrosoftYaHei-Bold-6c" transform="translate(825.460938 0)"/>
    </g>
   </g>
   <g id="text_4">
    <!-- Step 4 -->
    <g style="fill: #ffffff" transform="translate(321.807094 72.015625) scale(0.1 -0.1)">
     <defs>
      <path id="MicrosoftYaHei-Bold-34" d="M 3184 4841 
L 3184 1766 
L 3869 1766 
L 3869 1031 
L 3184 1031 
L 3184 0 
L 2266 0 
L 2266 1031 
L 103 1031 
L 103 1772 
Q 775 2522 1362 3359 
Q 1950 4197 2250 4841 
L 3184 4841 
z
M 997 1766 
L 2266 1766 
L 2266 3541 
Q 2116 3259 1836 2859 
Q 1556 2459 997 1766 
z
" transform="scale(0.015625)"/>
     </defs>
     <use xlink:href="#MicrosoftYaHei-Bold-53"/>
     <use xlink:href="#MicrosoftYaHei-Bold-74" transform="translate(57.40625 0)"/>
     <use xlink:href="#MicrosoftYaHei-Bold-65" transform="translate(98.3125 0)"/>
     <use xlink:href="#MicrosoftYaHei-Bold-70" transform="translate(156.515625 0)"/>
     <use xlink:href="#MicrosoftYaHei-Bold-20" transform="translate(223.117188 0)"/>
     <use xlink:href="#MicrosoftYaHei-Bold-34" transform="translate(252.902344 0)"/>
    </g>
    <!-- Polish &amp; Check -->
    <g style="fill: #ffffff" transform="translate(299.876625 86.492188) scale(0.1 -0.1)">
     <defs>
      <path id="MicrosoftYaHei-Bold-43" d="M 4013 175 
Q 3484 -84 2634 -84 
Q 1541 -84 898 570 
Q 256 1225 256 2316 
Q 256 3463 973 4192 
Q 1691 4922 2825 4922 
Q 3534 4922 4013 4738 
L 4013 3741 
Q 3522 4028 2900 4028 
Q 2191 4028 1766 3575 
Q 1341 3122 1341 2391 
Q 1341 1678 1744 1243 
Q 2147 809 2834 809 
Q 3481 809 4013 1122 
L 4013 175 
z
" transform="scale(0.015625)"/>
      <path id="MicrosoftYaHei-Bold-63" d="M 3050 128 
Q 2688 -84 2019 -84 
Q 1228 -84 740 397 
Q 253 878 253 1644 
Q 253 2525 778 3033 
Q 1303 3541 2178 3541 
Q 2769 3541 3053 3378 
L 3053 2513 
Q 2706 2766 2297 2766 
Q 1834 2766 1554 2484 
Q 1275 2203 1275 1713 
Q 1275 1238 1540 964 
Q 1806 691 2263 691 
Q 2666 691 3050 947 
L 3050 128 
z
" transform="scale(0.015625)"/>
      <path id="MicrosoftYaHei-Bold-6b" d="M 3856 0 
L 2631 0 
L 1481 1709 
L 1469 1709 
L 1469 0 
L 459 0 
L 459 5116 
L 1469 5116 
L 1469 1859 
L 1481 1859 
L 2559 3456 
L 3763 3456 
L 2481 1825 
L 3856 0 
z
" transform="scale(0.015625)"/>
     </defs>
     <use xlink:href="#MicrosoftYaHei-Bold-50"/>
     <use xlink:href="#MicrosoftYaHei-Bold-6f" transform="translate(62.347656 0)"/>
     <use xlink:href="#MicrosoftYaHei-Bold-6c" transform="translate(128.070312 0)"/>
     <use xlink:href="#MicrosoftYaHei-Bold-69" transform="translate(157.660156 0)"/>
     <use xlink:href="#MicrosoftYaHei-Bold-73" transform="translate(187.25 0)"/>
     <use xlink:href="#MicrosoftYaHei-Bold-68" transform="translate(236.615234 0)"/>
     <use xlink:href="#MicrosoftYaHei-Bold-20" transform="translate(301.166016 0)"/>
     <use xlink:href="#MicrosoftYaHei-Bold-26" transform="translate(330.951172 0)"/>
     <use xlink:href="#MicrosoftYaHei-Bold-20" transform="translate(422.064453 0)"/>
     <use xlink:href="#MicrosoftYaHei-Bold-43" transform="translate(451.849609 0)"/>
     <use xlink:href="#MicrosoftYaHei-Bold-68" transform="translate(519.183594 0)"/>
     <use xlink:href="#MicrosoftYaHei-Bold-65" transform="translate(583.734375 0)"/>
     <use xlink:href="#MicrosoftYaHei-Bold-63" transform="translate(641.9375 0)"/>
     <use xlink:href="#MicrosoftYaHei-Bold-6b" transform="translate(693.597656 0)"/>
    </g>
   </g>
   <g id="patch_6">
    <path d="M 111.872953 76.5 
Q 118.799859 76.5 122.93168 76.5 
" style="fill: none; stroke: #2980b9; stroke-width: 2.5; stroke-linecap: round"/>
    <path d="M 118.93168 74.5 
L 122.93168 76.5 
L 118.93168 78.5 
" style="fill: none; stroke: #2980b9; stroke-width: 2.5; stroke-linecap: round"/>
   </g>
   <g id="patch_7">
    <path d="M 201.152953 76.5 
Q 208.079859 76.5 212.21168 76.5 
" style="fill: none; stroke: #2980b9; stroke-width: 2.5; stroke-linecap: round"/>
    <path d="M 208.21168 74.5 
L 212.21168 76.5 
L 208.21168 78.5 
" style="fill: none; stroke: #2980b9; stroke-width: 2.5; stroke-linecap: round"/>
   </g>
   <g id="patch_8">
    <path d="M 290.432953 76.5 
Q 297.359859 76.5 301.49168 76.5 
" style="fill: none; stroke: #2980b9; stroke-width: 2.5; stroke-linecap: round"/>
    <path d="M 297.49168 74.5 
L 301.49168 76.5 
L 297.49168 78.5 
" style="fill: none; stroke: #2980b9; stroke-width: 2.5; stroke-linecap: round"/>
   </g>
  </g>
 </g>
 <defs>
  <clipPath id="p8d4a73294f">
   <rect x="7.2" y="7.2" width="446.4" height="138.6"/>
  </clipPath>
 </defs>
</svg>
