<?xml version="1.0" encoding="utf-8" standalone="no"?>
<!DOCTYPE svg PUBLIC "-//W3C//DTD SVG 1.1//EN"
  "http://www.w3.org/Graphics/SVG/1.1/DTD/svg11.dtd">
<svg xmlns:xlink="http://www.w3.org/1999/xlink" width="496.389375pt" height="279.438594pt" viewBox="0 0 496.389375 279.438594" xmlns="http://www.w3.org/2000/svg" version="1.1">
 <metadata>
  <rdf:RDF xmlns:dc="http://purl.org/dc/elements/1.1/" xmlns:cc="http://creativecommons.org/ns#" xmlns:rdf="http://www.w3.org/1999/02/22-rdf-syntax-ns#">
   <cc:Work>
    <dc:type rdf:resource="http://purl.org/dc/dcmitype/StillImage"/>
    <dc:date>2026-05-25T22:33:52.924389</dc:date>
    <dc:format>image/svg+xml</dc:format>
    <dc:creator>
     <cc:Agent>
      <dc:title>Matplotlib v3.10.9, https://matplotlib.org/</dc:title>
     </cc:Agent>
    </dc:creator>
   </cc:Work>
  </rdf:RDF>
 </metadata>
 <defs>
  <style type="text/css">*{stroke-linejoin: round; stroke-linecap: butt}</style>
 </defs>
 <g id="figure_1">
  <g id="patch_1">
   <path d="M 0 279.438594 
L 496.389375 279.438594 
L 496.389375 0 
L 0 0 
z
" style="fill: #ffffff"/>
  </g>
  <g id="axes_1">
   <g id="patch_2">
    <path d="M 87.769375 239.23125 
L 489.189375 239.23125 
L 489.189375 28.39125 
L 87.769375 28.39125 
z
" style="fill: #ffffff"/>
   </g>
   <g id="patch_3">
    <path d="M 87.769375 229.647614 
L 434.450284 229.647614 
L 434.450284 214.515556 
L 87.769375 214.515556 
z
" clip-path="url(#p99f12740c7)" style="fill: #e74c3c; stroke: #ffffff; stroke-linejoin: miter"/>
   </g>
   <g id="patch_4">
    <path d="M 87.769375 204.427518 
L 408.905375 204.427518 
L 408.905375 189.295461 
L 87.769375 189.295461 
z
" clip-path="url(#p99f12740c7)" style="fill: #e67e22; stroke: #ffffff; stroke-linejoin: miter"/>
   </g>
   <g id="patch_5">
    <path d="M 87.769375 179.207422 
L 387.009739 179.207422 
L 387.009739 164.075365 
L 87.769375 164.075365 
z
" clip-path="url(#p99f12740c7)" style="fill: #f1c40f; stroke: #ffffff; stroke-linejoin: miter"/>
   </g>
   <g id="patch_6">
    <path d="M 87.769375 153.987327 
L 372.412648 153.987327 
L 372.412648 138.855269 
L 87.769375 138.855269 
z
" clip-path="url(#p99f12740c7)" style="fill: #2ecc71; stroke: #ffffff; stroke-linejoin: miter"/>
   </g>
   <g id="patch_7">
    <path d="M 87.769375 128.767231 
L 350.517011 128.767231 
L 350.517011 113.635173 
L 87.769375 113.635173 
z
" clip-path="url(#p99f12740c7)" style="fill: #3498db; stroke: #ffffff; stroke-linejoin: miter"/>
   </g>
   <g id="patch_8">
    <path d="M 87.769375 103.547135 
L 335.91992 103.547135 
L 335.91992 88.415078 
L 87.769375 88.415078 
z
" clip-path="url(#p99f12740c7)" style="fill: #9b59b6; stroke: #ffffff; stroke-linejoin: miter"/>
   </g>
   <g id="patch_9">
    <path d="M 87.769375 78.327039 
L 324.972102 78.327039 
L 324.972102 63.194982 
L 87.769375 63.194982 
z
" clip-path="url(#p99f12740c7)" style="fill: #1abc9c; stroke: #ffffff; stroke-linejoin: miter"/>
   </g>
   <g id="patch_10">
    <path d="M 87.769375 53.106944 
L 306.725739 53.106944 
L 306.725739 37.974886 
L 87.769375 37.974886 
z
" clip-path="url(#p99f12740c7)" style="fill: #34495e; stroke: #ffffff; stroke-linejoin: miter"/>
   </g>
   <g id="matplotlib.axis_1">
    <g id="xtick_1">
     <g id="line2d_1">
      <defs>
       <path id="me67bafbba0" d="M 0 0 
L 0 3.5 
" style="stroke: #000000; stroke-width: 0.8"/>
      </defs>
      <g>
       <use xlink:href="#me67bafbba0" x="87.769375" y="239.23125" style="stroke: #000000; stroke-width: 0.8"/>
      </g>
     </g>
     <g id="text_1">
      <!-- 0 -->
      <g transform="translate(84.837344 254.225) scale(0.1 -0.1)">
       <defs>
        <path id="MicrosoftYaHei-30" d="M 284 2325 
Q 284 3606 709 4264 
Q 1134 4922 1941 4922 
Q 3478 4922 3478 2441 
Q 3478 1216 3045 567 
Q 2613 -81 1831 -81 
Q 1094 -81 689 534 
Q 284 1150 284 2325 
z
M 909 2353 
Q 909 425 1888 425 
Q 2850 425 2850 2384 
Q 2850 4413 1906 4413 
Q 909 4413 909 2353 
z
" transform="scale(0.015625)"/>
       </defs>
       <use xlink:href="#MicrosoftYaHei-30"/>
      </g>
     </g>
    </g>
    <g id="xtick_2">
     <g id="line2d_2">
      <g>
       <use xlink:href="#me67bafbba0" x="160.75483" y="239.23125" style="stroke: #000000; stroke-width: 0.8"/>
      </g>
     </g>
     <g id="text_2">
      <!-- 20 -->
      <g transform="translate(154.890767 254.225) scale(0.1 -0.1)">
       <defs>
        <path id="MicrosoftYaHei-32" d="M 2666 3572 
Q 2666 3963 2419 4186 
Q 2172 4409 1747 4409 
Q 1447 4409 1140 4256 
Q 834 4103 569 3819 
L 569 4413 
Q 806 4659 1107 4790 
Q 1409 4922 1816 4922 
Q 2472 4922 2872 4570 
Q 3272 4219 3272 3619 
Q 3272 3084 3026 2693 
Q 2781 2303 2188 1894 
Q 1581 1475 1376 1294 
Q 1172 1113 1090 947 
Q 1009 781 1009 544 
L 3416 544 
L 3416 0 
L 372 0 
L 372 241 
Q 372 659 486 951 
Q 600 1244 862 1520 
Q 1125 1797 1681 2184 
Q 2250 2584 2458 2886 
Q 2666 3188 2666 3572 
z
" transform="scale(0.015625)"/>
       </defs>
       <use xlink:href="#MicrosoftYaHei-32"/>
       <use xlink:href="#MicrosoftYaHei-30" transform="translate(58.642578 0)"/>
      </g>
     </g>
    </g>
    <g id="xtick_3">
     <g id="line2d_3">
      <g>
       <use xlink:href="#me67bafbba0" x="233.740284" y="239.23125" style="stroke: #000000; stroke-width: 0.8"/>
      </g>
     </g>
     <g id="text_3">
      <!-- 40 -->
      <g transform="translate(227.876222 254.225) scale(0.1 -0.1)">
       <defs>
        <path id="MicrosoftYaHei-34" d="M 2906 4841 
L 2906 1644 
L 3631 1644 
L 3631 1138 
L 2906 1138 
L 2906 0 
L 2313 0 
L 2313 1138 
L 53 1138 
L 53 1616 
Q 656 2294 1265 3178 
Q 1875 4063 2272 4841 
L 2906 4841 
z
M 741 1644 
L 2313 1644 
L 2313 3950 
Q 1988 3366 1616 2817 
Q 1244 2269 741 1644 
z
" transform="scale(0.015625)"/>
       </defs>
       <use xlink:href="#MicrosoftYaHei-34"/>
       <use xlink:href="#MicrosoftYaHei-30" transform="translate(58.642578 0)"/>
      </g>
     </g>
    </g>
    <g id="xtick_4">
     <g id="line2d_4">
      <g>
       <use xlink:href="#me67bafbba0" x="306.725739" y="239.23125" style="stroke: #000000; stroke-width: 0.8"/>
      </g>
     </g>
     <g id="text_4">
      <!-- 60 -->
      <g transform="translate(300.861676 254.225) scale(0.1 -0.1)">
       <defs>
        <path id="MicrosoftYaHei-36" d="M 3181 4219 
Q 2803 4413 2391 4413 
Q 1763 4413 1381 3866 
Q 1000 3319 994 2372 
L 1009 2372 
Q 1353 3038 2106 3038 
Q 2734 3038 3109 2628 
Q 3484 2219 3484 1541 
Q 3484 831 3051 375 
Q 2619 -81 1947 -81 
Q 1209 -81 789 495 
Q 369 1072 369 2131 
Q 369 3413 920 4167 
Q 1472 4922 2372 4922 
Q 2888 4922 3181 4781 
L 3181 4219 
z
M 1031 1584 
Q 1031 1106 1286 765 
Q 1541 425 1963 425 
Q 2363 425 2613 719 
Q 2863 1013 2863 1475 
Q 2863 1975 2627 2253 
Q 2391 2531 1956 2531 
Q 1544 2531 1287 2250 
Q 1031 1969 1031 1584 
z
" transform="scale(0.015625)"/>
       </defs>
       <use xlink:href="#MicrosoftYaHei-36"/>
       <use xlink:href="#MicrosoftYaHei-30" transform="translate(58.642578 0)"/>
      </g>
     </g>
    </g>
    <g id="xtick_5">
     <g id="line2d_5">
      <g>
       <use xlink:href="#me67bafbba0" x="379.711193" y="239.23125" style="stroke: #000000; stroke-width: 0.8"/>
      </g>
     </g>
     <g id="text_5">
      <!-- 80 -->
      <g transform="translate(373.847131 254.225) scale(0.1 -0.1)">
       <defs>
        <path id="MicrosoftYaHei-38" d="M 306 1350 
Q 306 1769 556 2122 
Q 806 2475 1200 2625 
Q 884 2803 700 3081 
Q 516 3359 516 3684 
Q 516 4028 692 4312 
Q 869 4597 1183 4759 
Q 1497 4922 1875 4922 
Q 2256 4922 2572 4761 
Q 2888 4600 3063 4315 
Q 3238 4031 3238 3684 
Q 3238 3366 3058 3086 
Q 2878 2806 2559 2625 
Q 2953 2472 3200 2119 
Q 3447 1766 3447 1350 
Q 3447 938 3250 611 
Q 3053 284 2690 103 
Q 2328 -78 1875 -78 
Q 1425 -78 1065 103 
Q 706 284 506 612 
Q 306 941 306 1350 
z
M 906 1378 
Q 906 947 1172 687 
Q 1438 428 1878 428 
Q 2309 428 2582 692 
Q 2856 956 2856 1378 
Q 2856 1778 2579 2051 
Q 2303 2325 1878 2325 
Q 1456 2325 1181 2058 
Q 906 1791 906 1378 
z
M 1081 3634 
Q 1081 3309 1312 3076 
Q 1544 2844 1878 2844 
Q 2206 2844 2445 3078 
Q 2684 3313 2684 3634 
Q 2684 3963 2454 4191 
Q 2225 4419 1878 4419 
Q 1534 4419 1307 4195 
Q 1081 3972 1081 3634 
z
" transform="scale(0.015625)"/>
       </defs>
       <use xlink:href="#MicrosoftYaHei-38"/>
       <use xlink:href="#MicrosoftYaHei-30" transform="translate(58.642578 0)"/>
      </g>
     </g>
    </g>
    <g id="xtick_6">
     <g id="line2d_6">
      <g>
       <use xlink:href="#me67bafbba0" x="452.696648" y="239.23125" style="stroke: #000000; stroke-width: 0.8"/>
      </g>
     </g>
     <g id="text_6">
      <!-- 100 -->
      <g transform="translate(443.900554 254.225) scale(0.1 -0.1)">
       <defs>
        <path id="MicrosoftYaHei-31" d="M 1781 0 
L 1781 4141 
Q 1638 3997 1295 3819 
Q 953 3641 663 3569 
L 663 4169 
Q 1047 4275 1484 4508 
Q 1922 4741 2156 4947 
L 2388 4947 
L 2388 0 
L 1781 0 
z
" transform="scale(0.015625)"/>
       </defs>
       <use xlink:href="#MicrosoftYaHei-31"/>
       <use xlink:href="#MicrosoftYaHei-30" transform="translate(58.642578 0)"/>
       <use xlink:href="#MicrosoftYaHei-30" transform="translate(117.285156 0)"/>
      </g>
     </g>
    </g>
    <g id="text_7">
     <!-- Frequency (Last 5 Years) -->
     <g style="fill: #555555" transform="translate(225.439063 269.440469) scale(0.11 -0.11)">
      <defs>
       <path id="MicrosoftYaHei-46" d="M 3119 4284 
L 1250 4284 
L 1250 2666 
L 2981 2666 
L 2981 2116 
L 1250 2116 
L 1250 0 
L 625 0 
L 625 4841 
L 3119 4841 
L 3119 4284 
z
" transform="scale(0.015625)"/>
       <path id="MicrosoftYaHei-72" d="M 2400 2850 
Q 2247 2959 1978 2959 
Q 1622 2959 1390 2626 
Q 1159 2294 1159 1750 
L 1159 0 
L 547 0 
L 547 3456 
L 1159 3456 
L 1159 2753 
L 1172 2753 
Q 1434 3516 2078 3516 
Q 2288 3516 2400 3469 
L 2400 2850 
z
" transform="scale(0.015625)"/>
       <path id="MicrosoftYaHei-65" d="M 3363 1572 
L 944 1572 
Q 959 1019 1246 717 
Q 1534 416 2050 416 
Q 2631 416 3116 788 
L 3116 241 
Q 2659 -81 1906 -81 
Q 1156 -81 736 394 
Q 316 869 316 1713 
Q 316 2506 777 3022 
Q 1238 3538 1922 3538 
Q 2600 3538 2981 3102 
Q 3363 2666 3363 1881 
L 3363 1572 
z
M 2750 2063 
Q 2747 2531 2528 2787 
Q 2309 3044 1913 3044 
Q 1547 3044 1280 2772 
Q 1013 2500 944 2063 
L 2750 2063 
z
" transform="scale(0.015625)"/>
       <path id="MicrosoftYaHei-71" d="M 3547 -1591 
L 2934 -1591 
L 2934 581 
L 2922 581 
Q 2559 -81 1753 -81 
Q 1100 -81 708 380 
Q 316 841 316 1647 
Q 316 2506 747 3022 
Q 1178 3538 1903 3538 
Q 2603 3538 2922 2988 
L 2934 2988 
L 2934 3456 
L 3547 3456 
L 3547 -1591 
z
M 2934 2044 
Q 2938 2453 2673 2742 
Q 2409 3031 1984 3031 
Q 1497 3031 1219 2668 
Q 941 2306 941 1663 
Q 941 1081 1208 753 
Q 1475 425 1909 425 
Q 2384 425 2661 751 
Q 2938 1078 2934 1566 
L 2934 2044 
z
" transform="scale(0.015625)"/>
       <path id="MicrosoftYaHei-75" d="M 3400 0 
L 2784 0 
L 2784 544 
L 2772 544 
Q 2425 -81 1706 -81 
Q 478 -81 478 1388 
L 478 3456 
L 1084 3456 
L 1084 1478 
Q 1084 425 1891 425 
Q 2291 425 2537 720 
Q 2784 1016 2784 1466 
L 2784 3456 
L 3400 3456 
L 3400 0 
z
" transform="scale(0.015625)"/>
       <path id="MicrosoftYaHei-6e" d="M 3469 0 
L 2859 0 
L 2859 1966 
Q 2859 3031 2081 3031 
Q 1678 3031 1418 2731 
Q 1159 2431 1159 1972 
L 1159 0 
L 547 0 
L 547 3456 
L 1159 3456 
L 1159 2884 
L 1172 2884 
Q 1563 3538 2306 3538 
Q 2875 3538 3172 3173 
Q 3469 2809 3469 2113 
L 3469 0 
z
" transform="scale(0.015625)"/>
       <path id="MicrosoftYaHei-63" d="M 2934 156 
Q 2538 -81 1978 -81 
Q 1228 -81 772 400 
Q 316 881 316 1647 
Q 316 2497 808 3017 
Q 1300 3538 2125 3538 
Q 2600 3538 2938 3369 
L 2938 2763 
Q 2572 3031 2125 3031 
Q 1600 3031 1270 2667 
Q 941 2303 941 1697 
Q 941 1100 1252 762 
Q 1563 425 2091 425 
Q 2538 425 2934 719 
L 2934 156 
z
" transform="scale(0.015625)"/>
       <path id="MicrosoftYaHei-79" d="M 3359 3456 
L 1791 -522 
Q 1353 -1628 556 -1628 
Q 328 -1628 166 -1578 
L 166 -1041 
Q 344 -1109 509 -1109 
Q 925 -1109 1131 -622 
L 1397 6 
L 41 3456 
L 719 3456 
L 1622 859 
L 1697 575 
L 1713 575 
Q 1731 672 1788 853 
L 2731 3456 
L 3359 3456 
z
" transform="scale(0.015625)"/>
       <path id="MicrosoftYaHei-20" transform="scale(0.015625)"/>
       <path id="MicrosoftYaHei-28" d="M 1531 -1100 
Q 478 100 478 1847 
Q 478 3594 1531 4841 
L 2072 4841 
Q 1016 3544 1016 1853 
Q 1016 166 2066 -1100 
L 1531 -1100 
z
" transform="scale(0.015625)"/>
       <path id="MicrosoftYaHei-4c" d="M 3178 0 
L 625 0 
L 625 4841 
L 1250 4841 
L 1250 553 
L 3178 553 
L 3178 0 
z
" transform="scale(0.015625)"/>
       <path id="MicrosoftYaHei-61" d="M 628 3216 
Q 1144 3538 1819 3538 
Q 3069 3538 3069 2225 
L 3069 0 
L 2463 0 
L 2463 534 
L 2447 534 
Q 2088 -81 1388 -81 
Q 884 -81 587 191 
Q 291 463 291 925 
Q 291 1894 1438 2053 
L 2463 2197 
Q 2463 3044 1763 3044 
Q 1141 3044 628 2625 
L 628 3216 
z
M 1653 1625 
Q 1228 1569 1067 1412 
Q 906 1256 906 975 
Q 906 728 1081 572 
Q 1256 416 1544 416 
Q 1944 416 2203 697 
Q 2463 978 2463 1403 
L 2463 1734 
L 1653 1625 
z
" transform="scale(0.015625)"/>
       <path id="MicrosoftYaHei-73" d="M 353 747 
Q 816 413 1350 413 
Q 2066 413 2066 881 
Q 2066 1081 1909 1211 
Q 1753 1341 1275 1519 
Q 700 1750 528 1976 
Q 356 2203 356 2525 
Q 356 2984 745 3261 
Q 1134 3538 1703 3538 
Q 2144 3538 2522 3384 
L 2522 2794 
Q 2134 3044 1644 3044 
Q 1350 3044 1165 2916 
Q 981 2788 981 2578 
Q 981 2372 1114 2256 
Q 1247 2141 1703 1959 
Q 2281 1744 2484 1512 
Q 2688 1281 2688 941 
Q 2688 466 2298 192 
Q 1909 -81 1291 -81 
Q 753 -81 353 122 
L 353 747 
z
" transform="scale(0.015625)"/>
       <path id="MicrosoftYaHei-74" d="M 2206 34 
Q 2006 -75 1666 -75 
Q 738 -75 738 953 
L 738 2950 
L 144 2950 
L 144 3456 
L 738 3456 
L 738 4288 
L 1347 4481 
L 1347 3456 
L 2206 3456 
L 2206 2950 
L 1347 2950 
L 1347 1063 
Q 1347 722 1462 575 
Q 1578 428 1847 428 
Q 2053 428 2206 544 
L 2206 34 
z
" transform="scale(0.015625)"/>
       <path id="MicrosoftYaHei-35" d="M 3294 1494 
Q 3294 784 2823 350 
Q 2353 -84 1559 -84 
Q 878 -84 544 119 
L 544 744 
Q 1034 425 1544 425 
Q 2050 425 2361 704 
Q 2672 984 2672 1447 
Q 2672 1909 2348 2167 
Q 2025 2425 1434 2425 
Q 978 2425 613 2384 
L 791 4841 
L 3053 4841 
L 3053 4303 
L 1306 4303 
L 1206 2931 
L 1647 2950 
Q 2416 2950 2855 2567 
Q 3294 2184 3294 1494 
z
" transform="scale(0.015625)"/>
       <path id="MicrosoftYaHei-59" d="M 3828 4841 
L 2234 1781 
L 2234 0 
L 1606 0 
L 1606 1766 
L 53 4841 
L 769 4841 
L 1816 2697 
Q 1819 2694 1931 2388 
L 1941 2388 
Q 1978 2519 2069 2694 
L 3163 4841 
L 3828 4841 
z
" transform="scale(0.015625)"/>
       <path id="MicrosoftYaHei-29" d="M 78 -1100 
Q 1131 163 1131 1853 
Q 1131 3547 72 4841 
L 616 4841 
Q 1672 3603 1672 1847 
Q 1672 91 616 -1100 
L 78 -1100 
z
" transform="scale(0.015625)"/>
      </defs>
      <use xlink:href="#MicrosoftYaHei-46"/>
      <use xlink:href="#MicrosoftYaHei-72" transform="translate(53.125 0)"/>
      <use xlink:href="#MicrosoftYaHei-65" transform="translate(89.933594 0)"/>
      <use xlink:href="#MicrosoftYaHei-71" transform="translate(146.671875 0)"/>
      <use xlink:href="#MicrosoftYaHei-75" transform="translate(210.636719 0)"/>
      <use xlink:href="#MicrosoftYaHei-65" transform="translate(272.257812 0)"/>
      <use xlink:href="#MicrosoftYaHei-6e" transform="translate(328.996094 0)"/>
      <use xlink:href="#MicrosoftYaHei-63" transform="translate(390.617188 0)"/>
      <use xlink:href="#MicrosoftYaHei-79" transform="translate(440.763672 0)"/>
      <use xlink:href="#MicrosoftYaHei-20" transform="translate(493.693359 0)"/>
      <use xlink:href="#MicrosoftYaHei-28" transform="translate(523.283203 0)"/>
      <use xlink:href="#MicrosoftYaHei-4c" transform="translate(556.681641 0)"/>
      <use xlink:href="#MicrosoftYaHei-61" transform="translate(608 0)"/>
      <use xlink:href="#MicrosoftYaHei-73" transform="translate(663.273438 0)"/>
      <use xlink:href="#MicrosoftYaHei-74" transform="translate(709.5625 0)"/>
      <use xlink:href="#MicrosoftYaHei-20" transform="translate(746.818359 0)"/>
      <use xlink:href="#MicrosoftYaHei-35" transform="translate(776.408203 0)"/>
      <use xlink:href="#MicrosoftYaHei-20" transform="translate(835.050781 0)"/>
      <use xlink:href="#MicrosoftYaHei-59" transform="translate(864.640625 0)"/>
      <use xlink:href="#MicrosoftYaHei-65" transform="translate(915.492188 0)"/>
      <use xlink:href="#MicrosoftYaHei-61" transform="translate(972.230469 0)"/>
      <use xlink:href="#MicrosoftYaHei-72" transform="translate(1027.503906 0)"/>
      <use xlink:href="#MicrosoftYaHei-73" transform="translate(1066.4375 0)"/>
      <use xlink:href="#MicrosoftYaHei-29" transform="translate(1112.726562 0)"/>
     </g>
    </g>
   </g>
   <g id="matplotlib.axis_2">
    <g id="ytick_1">
     <g id="line2d_7">
      <defs>
       <path id="m58797496b7" d="M 0 0 
L -3.5 0 
" style="stroke: #000000; stroke-width: 0.8"/>
      </defs>
      <g>
       <use xlink:href="#m58797496b7" x="87.769375" y="222.081585" style="stroke: #000000; stroke-width: 0.8"/>
      </g>
     </g>
     <g id="text_8">
      <!-- Growth &amp; Dream -->
      <g transform="translate(7.2 225.678772) scale(0.09 -0.09)">
       <defs>
        <path id="MicrosoftYaHei-47" d="M 4284 331 
Q 3559 -81 2647 -81 
Q 1597 -81 955 583 
Q 313 1247 313 2356 
Q 313 3478 1022 4200 
Q 1731 4922 2841 4922 
Q 3625 4922 4169 4672 
L 4169 3997 
Q 3588 4363 2784 4363 
Q 1994 4363 1481 3822 
Q 969 3281 969 2397 
Q 969 1488 1441 981 
Q 1913 475 2716 475 
Q 3269 475 3656 688 
L 3656 1997 
L 2606 1997 
L 2606 2550 
L 4284 2550 
L 4284 331 
z
" transform="scale(0.015625)"/>
        <path id="MicrosoftYaHei-6f" d="M 316 1691 
Q 316 2547 794 3042 
Q 1272 3538 2091 3538 
Q 2869 3538 3311 3061 
Q 3753 2584 3753 1744 
Q 3753 925 3281 422 
Q 2809 -81 2016 -81 
Q 1241 -81 778 406 
Q 316 894 316 1691 
z
M 941 1709 
Q 941 1113 1242 769 
Q 1544 425 2053 425 
Q 2578 425 2853 761 
Q 3128 1097 3128 1725 
Q 3128 2356 2853 2693 
Q 2578 3031 2053 3031 
Q 1538 3031 1239 2678 
Q 941 2325 941 1709 
z
" transform="scale(0.015625)"/>
        <path id="MicrosoftYaHei-77" d="M 4975 3456 
L 3944 0 
L 3306 0 
L 2619 2425 
Q 2575 2581 2563 2756 
L 2550 2756 
Q 2541 2625 2478 2431 
L 1734 0 
L 1116 0 
L 78 3456 
L 716 3456 
L 1406 894 
Q 1438 778 1453 578 
L 1478 578 
Q 1491 750 1538 903 
L 2281 3456 
L 2847 3456 
L 3572 891 
Q 3603 778 3622 572 
L 3650 572 
Q 3656 709 3706 891 
L 4381 3456 
L 4975 3456 
z
" transform="scale(0.015625)"/>
        <path id="MicrosoftYaHei-68" d="M 3466 0 
L 2856 0 
L 2856 1988 
Q 2856 3031 2081 3031 
Q 1684 3031 1421 2726 
Q 1159 2422 1159 1959 
L 1159 0 
L 547 0 
L 547 5116 
L 1159 5116 
L 1159 2888 
L 1172 2888 
Q 1569 3538 2300 3538 
Q 3466 3538 3466 2128 
L 3466 0 
z
" transform="scale(0.015625)"/>
        <path id="MicrosoftYaHei-26" d="M 3788 656 
Q 3072 -78 2047 -78 
Q 1284 -78 836 295 
Q 388 669 388 1325 
Q 388 2313 1513 2797 
Q 950 3225 950 3813 
Q 950 4319 1303 4620 
Q 1656 4922 2231 4922 
Q 2772 4922 3108 4636 
Q 3444 4350 3444 3891 
Q 3444 3141 2525 2766 
Q 3222 2497 3847 1544 
Q 4394 2297 4394 3319 
Q 4394 3563 4331 3784 
L 4913 3784 
Q 4959 3597 4959 3334 
Q 4959 2788 4745 2189 
Q 4531 1591 4150 1081 
Q 4409 728 4586 598 
Q 4763 469 4991 469 
Q 5178 469 5434 569 
L 5434 22 
Q 5172 -78 4891 -78 
Q 4597 -78 4361 59 
Q 4125 197 3788 656 
z
M 2063 3022 
Q 2872 3300 2872 3841 
Q 2872 4119 2687 4283 
Q 2503 4447 2231 4447 
Q 1906 4447 1715 4270 
Q 1525 4094 1525 3809 
Q 1525 3316 2063 3022 
z
M 3500 1094 
Q 3113 1700 2784 2008 
Q 2456 2316 1953 2506 
Q 1444 2300 1225 2026 
Q 1006 1753 1006 1347 
Q 1006 925 1297 683 
Q 1588 441 2053 441 
Q 2909 441 3500 1094 
z
" transform="scale(0.015625)"/>
        <path id="MicrosoftYaHei-44" d="M 625 0 
L 625 4841 
L 2006 4841 
Q 3106 4841 3836 4200 
Q 4566 3559 4566 2481 
Q 4566 1356 3836 678 
Q 3106 0 1956 0 
L 625 0 
z
M 1250 4284 
L 1250 553 
L 1953 553 
Q 2875 553 3392 1056 
Q 3909 1559 3909 2466 
Q 3909 3372 3378 3828 
Q 2847 4284 1981 4284 
L 1250 4284 
z
" transform="scale(0.015625)"/>
        <path id="MicrosoftYaHei-6d" d="M 5522 0 
L 4909 0 
L 4909 1984 
Q 4909 2547 4734 2789 
Q 4559 3031 4159 3031 
Q 3822 3031 3581 2715 
Q 3341 2400 3341 1969 
L 3341 0 
L 2728 0 
L 2728 2047 
Q 2728 3031 1969 3031 
Q 1619 3031 1389 2731 
Q 1159 2431 1159 1966 
L 1159 0 
L 547 0 
L 547 3456 
L 1159 3456 
L 1159 2909 
L 1172 2909 
Q 1541 3538 2250 3538 
Q 2597 3538 2862 3347 
Q 3128 3156 3231 2831 
Q 3616 3538 4381 3538 
Q 5522 3538 5522 2131 
L 5522 0 
z
" transform="scale(0.015625)"/>
       </defs>
       <use xlink:href="#MicrosoftYaHei-47"/>
       <use xlink:href="#MicrosoftYaHei-72" transform="translate(74.365234 0)"/>
       <use xlink:href="#MicrosoftYaHei-6f" transform="translate(111.173828 0)"/>
       <use xlink:href="#MicrosoftYaHei-77" transform="translate(174.748047 0)"/>
       <use xlink:href="#MicrosoftYaHei-74" transform="translate(253.703125 0)"/>
       <use xlink:href="#MicrosoftYaHei-68" transform="translate(290.958984 0)"/>
       <use xlink:href="#MicrosoftYaHei-20" transform="translate(352.53125 0)"/>
       <use xlink:href="#MicrosoftYaHei-26" transform="translate(382.121094 0)"/>
       <use xlink:href="#MicrosoftYaHei-20" transform="translate(469.132812 0)"/>
       <use xlink:href="#MicrosoftYaHei-44" transform="translate(498.722656 0)"/>
       <use xlink:href="#MicrosoftYaHei-72" transform="translate(574.894531 0)"/>
       <use xlink:href="#MicrosoftYaHei-65" transform="translate(611.703125 0)"/>
       <use xlink:href="#MicrosoftYaHei-61" transform="translate(668.441406 0)"/>
       <use xlink:href="#MicrosoftYaHei-6d" transform="translate(723.714844 0)"/>
      </g>
     </g>
    </g>
    <g id="ytick_2">
     <g id="line2d_8">
      <g>
       <use xlink:href="#m58797496b7" x="87.769375" y="196.861489" style="stroke: #000000; stroke-width: 0.8"/>
      </g>
     </g>
     <g id="text_9">
      <!-- Social Issues -->
      <g transform="translate(27.113906 200.458677) scale(0.09 -0.09)">
       <defs>
        <path id="MicrosoftYaHei-53" d="M 400 909 
Q 622 716 994 591 
Q 1366 466 1700 466 
Q 2719 466 2719 1191 
Q 2719 1394 2609 1556 
Q 2500 1719 2309 1844 
Q 2119 1969 1594 2228 
Q 866 2591 634 2902 
Q 403 3213 403 3613 
Q 403 4216 887 4569 
Q 1372 4922 2109 4922 
Q 2831 4922 3169 4747 
L 3169 4066 
Q 2731 4369 2063 4369 
Q 1619 4369 1339 4183 
Q 1059 3997 1059 3666 
Q 1059 3372 1253 3187 
Q 1447 3003 2094 2684 
Q 2806 2344 3090 2003 
Q 3375 1663 3375 1238 
Q 3375 600 2912 259 
Q 2450 -81 1628 -81 
Q 1341 -81 958 -1 
Q 575 78 400 197 
L 400 909 
z
" transform="scale(0.015625)"/>
        <path id="MicrosoftYaHei-69" d="M 472 4675 
Q 472 4838 583 4948 
Q 694 5059 856 5059 
Q 1022 5059 1136 4950 
Q 1250 4841 1250 4675 
Q 1250 4513 1136 4405 
Q 1022 4297 856 4297 
Q 691 4297 581 4405 
Q 472 4513 472 4675 
z
M 544 0 
L 544 3456 
L 1156 3456 
L 1156 0 
L 544 0 
z
" transform="scale(0.015625)"/>
        <path id="MicrosoftYaHei-6c" d="M 544 0 
L 544 5116 
L 1156 5116 
L 1156 0 
L 544 0 
z
" transform="scale(0.015625)"/>
        <path id="MicrosoftYaHei-49" d="M 1250 4841 
L 1250 0 
L 625 0 
L 625 4841 
L 1250 4841 
z
" transform="scale(0.015625)"/>
       </defs>
       <use xlink:href="#MicrosoftYaHei-53"/>
       <use xlink:href="#MicrosoftYaHei-6f" transform="translate(57.714844 0)"/>
       <use xlink:href="#MicrosoftYaHei-63" transform="translate(121.289062 0)"/>
       <use xlink:href="#MicrosoftYaHei-69" transform="translate(171.435547 0)"/>
       <use xlink:href="#MicrosoftYaHei-61" transform="translate(198.046875 0)"/>
       <use xlink:href="#MicrosoftYaHei-6c" transform="translate(253.320312 0)"/>
       <use xlink:href="#MicrosoftYaHei-20" transform="translate(279.931641 0)"/>
       <use xlink:href="#MicrosoftYaHei-49" transform="translate(309.521484 0)"/>
       <use xlink:href="#MicrosoftYaHei-73" transform="translate(338.916016 0)"/>
       <use xlink:href="#MicrosoftYaHei-73" transform="translate(385.205078 0)"/>
       <use xlink:href="#MicrosoftYaHei-75" transform="translate(431.494141 0)"/>
       <use xlink:href="#MicrosoftYaHei-65" transform="translate(493.115234 0)"/>
       <use xlink:href="#MicrosoftYaHei-73" transform="translate(549.853516 0)"/>
      </g>
     </g>
    </g>
    <g id="ytick_3">
     <g id="line2d_9">
      <g>
       <use xlink:href="#m58797496b7" x="87.769375" y="171.641394" style="stroke: #000000; stroke-width: 0.8"/>
      </g>
     </g>
     <g id="text_10">
      <!-- Campus Life -->
      <g transform="translate(27.975938 175.291315) scale(0.09 -0.09)">
       <defs>
        <path id="MicrosoftYaHei-43" d="M 3938 200 
Q 3403 -81 2597 -81 
Q 1556 -81 934 580 
Q 313 1241 313 2328 
Q 313 3497 1013 4209 
Q 1713 4922 2791 4922 
Q 3484 4922 3938 4725 
L 3938 4072 
Q 3419 4359 2797 4359 
Q 1988 4359 1478 3820 
Q 969 3281 969 2366 
Q 969 1497 1444 986 
Q 1919 475 2688 475 
Q 3406 475 3938 800 
L 3938 200 
z
" transform="scale(0.015625)"/>
        <path id="MicrosoftYaHei-70" d="M 1159 488 
L 1159 -1591 
L 547 -1591 
L 547 3456 
L 1159 3456 
L 1159 2859 
L 1172 2859 
Q 1578 3538 2359 3538 
Q 3022 3538 3398 3073 
Q 3775 2609 3775 1828 
Q 3775 966 3348 442 
Q 2922 -81 2200 -81 
Q 1534 -81 1172 488 
L 1159 488 
z
M 1156 1425 
Q 1156 1003 1428 714 
Q 1700 425 2109 425 
Q 2597 425 2872 800 
Q 3147 1175 3147 1838 
Q 3147 2397 2890 2714 
Q 2634 3031 2191 3031 
Q 1738 3031 1447 2709 
Q 1156 2388 1156 1884 
L 1156 1425 
z
" transform="scale(0.015625)"/>
        <path id="MicrosoftYaHei-66" d="M 2319 4594 
Q 2147 4684 1947 4684 
Q 1372 4684 1372 3972 
L 1372 3456 
L 2181 3456 
L 2181 2950 
L 1372 2950 
L 1372 0 
L 766 0 
L 766 2950 
L 175 2950 
L 175 3456 
L 766 3456 
L 766 4000 
Q 766 4556 1086 4873 
Q 1406 5191 1900 5191 
Q 2163 5191 2319 5131 
L 2319 4594 
z
" transform="scale(0.015625)"/>
       </defs>
       <use xlink:href="#MicrosoftYaHei-43"/>
       <use xlink:href="#MicrosoftYaHei-61" transform="translate(66.894531 0)"/>
       <use xlink:href="#MicrosoftYaHei-6d" transform="translate(122.167969 0)"/>
       <use xlink:href="#MicrosoftYaHei-70" transform="translate(215.869141 0)"/>
       <use xlink:href="#MicrosoftYaHei-75" transform="translate(279.736328 0)"/>
       <use xlink:href="#MicrosoftYaHei-73" transform="translate(341.357422 0)"/>
       <use xlink:href="#MicrosoftYaHei-20" transform="translate(387.646484 0)"/>
       <use xlink:href="#MicrosoftYaHei-4c" transform="translate(417.236328 0)"/>
       <use xlink:href="#MicrosoftYaHei-69" transform="translate(468.554688 0)"/>
       <use xlink:href="#MicrosoftYaHei-66" transform="translate(495.166016 0)"/>
       <use xlink:href="#MicrosoftYaHei-65" transform="translate(529.833984 0)"/>
      </g>
     </g>
    </g>
    <g id="ytick_4">
     <g id="line2d_10">
      <g>
       <use xlink:href="#m58797496b7" x="87.769375" y="146.421298" style="stroke: #000000; stroke-width: 0.8"/>
      </g>
     </g>
     <g id="text_11">
      <!-- Environment -->
      <g transform="translate(26.136562 150.018485) scale(0.09 -0.09)">
       <defs>
        <path id="MicrosoftYaHei-45" d="M 3228 0 
L 625 0 
L 625 4841 
L 3119 4841 
L 3119 4284 
L 1250 4284 
L 1250 2734 
L 2981 2734 
L 2981 2181 
L 1250 2181 
L 1250 553 
L 3228 553 
L 3228 0 
z
" transform="scale(0.015625)"/>
        <path id="MicrosoftYaHei-76" d="M 3331 3456 
L 1963 0 
L 1344 0 
L 44 3456 
L 713 3456 
L 1556 988 
Q 1659 691 1678 491 
L 1694 491 
Q 1725 753 1803 975 
L 2688 3456 
L 3331 3456 
z
" transform="scale(0.015625)"/>
       </defs>
       <use xlink:href="#MicrosoftYaHei-45"/>
       <use xlink:href="#MicrosoftYaHei-6e" transform="translate(54.980469 0)"/>
       <use xlink:href="#MicrosoftYaHei-76" transform="translate(116.601562 0)"/>
       <use xlink:href="#MicrosoftYaHei-69" transform="translate(169.091797 0)"/>
       <use xlink:href="#MicrosoftYaHei-72" transform="translate(195.703125 0)"/>
       <use xlink:href="#MicrosoftYaHei-6f" transform="translate(232.511719 0)"/>
       <use xlink:href="#MicrosoftYaHei-6e" transform="translate(296.085938 0)"/>
       <use xlink:href="#MicrosoftYaHei-6d" transform="translate(357.707031 0)"/>
       <use xlink:href="#MicrosoftYaHei-65" transform="translate(451.408203 0)"/>
       <use xlink:href="#MicrosoftYaHei-6e" transform="translate(508.146484 0)"/>
       <use xlink:href="#MicrosoftYaHei-74" transform="translate(569.767578 0)"/>
      </g>
     </g>
    </g>
    <g id="ytick_5">
     <g id="line2d_11">
      <g>
       <use xlink:href="#m58797496b7" x="87.769375" y="121.201202" style="stroke: #000000; stroke-width: 0.8"/>
      </g>
     </g>
     <g id="text_12">
      <!-- Tech &amp; Life -->
      <g transform="translate(33.0525 124.79839) scale(0.09 -0.09)">
       <defs>
        <path id="MicrosoftYaHei-54" d="M 3550 4284 
L 2153 4284 
L 2153 0 
L 1525 0 
L 1525 4284 
L 134 4284 
L 134 4841 
L 3550 4841 
L 3550 4284 
z
" transform="scale(0.015625)"/>
       </defs>
       <use xlink:href="#MicrosoftYaHei-54"/>
       <use xlink:href="#MicrosoftYaHei-65" transform="translate(46.199219 0)"/>
       <use xlink:href="#MicrosoftYaHei-63" transform="translate(102.9375 0)"/>
       <use xlink:href="#MicrosoftYaHei-68" transform="translate(153.083984 0)"/>
       <use xlink:href="#MicrosoftYaHei-20" transform="translate(214.65625 0)"/>
       <use xlink:href="#MicrosoftYaHei-26" transform="translate(244.246094 0)"/>
       <use xlink:href="#MicrosoftYaHei-20" transform="translate(331.257812 0)"/>
       <use xlink:href="#MicrosoftYaHei-4c" transform="translate(360.847656 0)"/>
       <use xlink:href="#MicrosoftYaHei-69" transform="translate(412.166016 0)"/>
       <use xlink:href="#MicrosoftYaHei-66" transform="translate(438.777344 0)"/>
       <use xlink:href="#MicrosoftYaHei-65" transform="translate(473.445312 0)"/>
      </g>
     </g>
    </g>
    <g id="ytick_6">
     <g id="line2d_12">
      <g>
       <use xlink:href="#m58797496b7" x="87.769375" y="95.981106" style="stroke: #000000; stroke-width: 0.8"/>
      </g>
     </g>
     <g id="text_13">
      <!-- Health &amp; Sports -->
      <g transform="translate(11.376563 99.578294) scale(0.09 -0.09)">
       <defs>
        <path id="MicrosoftYaHei-48" d="M 4325 0 
L 3700 0 
L 3700 2181 
L 1250 2181 
L 1250 0 
L 625 0 
L 625 4841 
L 1250 4841 
L 1250 2738 
L 3700 2738 
L 3700 4841 
L 4325 4841 
L 4325 0 
z
" transform="scale(0.015625)"/>
       </defs>
       <use xlink:href="#MicrosoftYaHei-48"/>
       <use xlink:href="#MicrosoftYaHei-65" transform="translate(77.34375 0)"/>
       <use xlink:href="#MicrosoftYaHei-61" transform="translate(134.082031 0)"/>
       <use xlink:href="#MicrosoftYaHei-6c" transform="translate(189.355469 0)"/>
       <use xlink:href="#MicrosoftYaHei-74" transform="translate(215.966797 0)"/>
       <use xlink:href="#MicrosoftYaHei-68" transform="translate(253.222656 0)"/>
       <use xlink:href="#MicrosoftYaHei-20" transform="translate(314.794922 0)"/>
       <use xlink:href="#MicrosoftYaHei-26" transform="translate(344.384766 0)"/>
       <use xlink:href="#MicrosoftYaHei-20" transform="translate(431.396484 0)"/>
       <use xlink:href="#MicrosoftYaHei-53" transform="translate(460.986328 0)"/>
       <use xlink:href="#MicrosoftYaHei-70" transform="translate(518.701172 0)"/>
       <use xlink:href="#MicrosoftYaHei-6f" transform="translate(582.568359 0)"/>
       <use xlink:href="#MicrosoftYaHei-72" transform="translate(646.142578 0)"/>
       <use xlink:href="#MicrosoftYaHei-74" transform="translate(687.451172 0)"/>
       <use xlink:href="#MicrosoftYaHei-73" transform="translate(724.707031 0)"/>
      </g>
     </g>
    </g>
    <g id="ytick_7">
     <g id="line2d_13">
      <g>
       <use xlink:href="#m58797496b7" x="87.769375" y="70.761011" style="stroke: #000000; stroke-width: 0.8"/>
      </g>
     </g>
     <g id="text_14">
      <!-- Culture -->
      <g transform="translate(49.490156 74.358198) scale(0.09 -0.09)">
       <use xlink:href="#MicrosoftYaHei-43"/>
       <use xlink:href="#MicrosoftYaHei-75" transform="translate(66.894531 0)"/>
       <use xlink:href="#MicrosoftYaHei-6c" transform="translate(128.515625 0)"/>
       <use xlink:href="#MicrosoftYaHei-74" transform="translate(155.126953 0)"/>
       <use xlink:href="#MicrosoftYaHei-75" transform="translate(192.382812 0)"/>
       <use xlink:href="#MicrosoftYaHei-72" transform="translate(254.003906 0)"/>
       <use xlink:href="#MicrosoftYaHei-65" transform="translate(290.8125 0)"/>
      </g>
     </g>
    </g>
    <g id="ytick_8">
     <g id="line2d_14">
      <g>
       <use xlink:href="#m58797496b7" x="87.769375" y="45.540915" style="stroke: #000000; stroke-width: 0.8"/>
      </g>
     </g>
     <g id="text_15">
      <!-- Relationships -->
      <g transform="translate(23.653125 49.138103) scale(0.09 -0.09)">
       <defs>
        <path id="MicrosoftYaHei-52" d="M 4159 0 
L 3422 0 
L 2619 1344 
Q 2378 1747 2178 1892 
Q 1978 2038 1700 2038 
L 1250 2038 
L 1250 0 
L 625 0 
L 625 4841 
L 2100 4841 
Q 2806 4841 3206 4500 
Q 3606 4159 3606 3547 
Q 3606 2541 2531 2241 
L 2531 2225 
Q 2731 2141 2876 1984 
Q 3022 1828 3253 1450 
L 4159 0 
z
M 1250 4294 
L 1250 2584 
L 1988 2584 
Q 2416 2584 2683 2834 
Q 2950 3084 2950 3491 
Q 2950 3869 2706 4081 
Q 2463 4294 1997 4294 
L 1250 4294 
z
" transform="scale(0.015625)"/>
       </defs>
       <use xlink:href="#MicrosoftYaHei-52"/>
       <use xlink:href="#MicrosoftYaHei-65" transform="translate(62.283203 0)"/>
       <use xlink:href="#MicrosoftYaHei-6c" transform="translate(119.021484 0)"/>
       <use xlink:href="#MicrosoftYaHei-61" transform="translate(145.632812 0)"/>
       <use xlink:href="#MicrosoftYaHei-74" transform="translate(200.90625 0)"/>
       <use xlink:href="#MicrosoftYaHei-69" transform="translate(238.162109 0)"/>
       <use xlink:href="#MicrosoftYaHei-6f" transform="translate(264.773438 0)"/>
       <use xlink:href="#MicrosoftYaHei-6e" transform="translate(328.347656 0)"/>
       <use xlink:href="#MicrosoftYaHei-73" transform="translate(389.96875 0)"/>
       <use xlink:href="#MicrosoftYaHei-68" transform="translate(436.257812 0)"/>
       <use xlink:href="#MicrosoftYaHei-69" transform="translate(497.830078 0)"/>
       <use xlink:href="#MicrosoftYaHei-70" transform="translate(524.441406 0)"/>
       <use xlink:href="#MicrosoftYaHei-73" transform="translate(588.308594 0)"/>
      </g>
     </g>
    </g>
   </g>
   <g id="patch_11">
    <path d="M 87.769375 239.23125 
L 87.769375 28.39125 
" style="fill: none; stroke: #000000; stroke-width: 0.8; stroke-linejoin: miter; stroke-linecap: square"/>
   </g>
   <g id="patch_12">
    <path d="M 87.769375 239.23125 
L 489.189375 239.23125 
" style="fill: none; stroke: #000000; stroke-width: 0.8; stroke-linejoin: miter; stroke-linecap: square"/>
   </g>
   <g id="text_16">
    <!-- 95 -->
    <g style="fill: #2c3e50" transform="translate(438.099557 224.835491) scale(0.1 -0.1)">
     <defs>
      <path id="MicrosoftYaHei-Bold-39" d="M 544 941 
Q 931 691 1456 691 
Q 2628 691 2653 2216 
L 2634 2222 
Q 2316 1731 1650 1731 
Q 1047 1731 658 2154 
Q 269 2578 269 3222 
Q 269 3978 737 4450 
Q 1206 4922 1959 4922 
Q 2744 4922 3191 4325 
Q 3638 3728 3638 2659 
Q 3638 1391 3098 653 
Q 2559 -84 1547 -84 
Q 975 -84 544 100 
L 544 941 
z
M 1259 3313 
Q 1259 2928 1445 2709 
Q 1631 2491 1953 2491 
Q 2241 2491 2427 2700 
Q 2613 2909 2613 3219 
Q 2613 3591 2427 3869 
Q 2241 4147 1928 4147 
Q 1625 4147 1442 3906 
Q 1259 3666 1259 3313 
z
" transform="scale(0.015625)"/>
      <path id="MicrosoftYaHei-Bold-35" d="M 541 125 
L 541 997 
Q 1044 691 1613 691 
Q 2041 691 2283 902 
Q 2525 1113 2525 1472 
Q 2525 2225 1494 2225 
Q 1113 2225 616 2169 
L 797 4841 
L 3359 4841 
L 3359 4009 
L 1613 4009 
L 1544 2991 
Q 1803 3013 2022 3013 
Q 2731 3013 3142 2625 
Q 3553 2238 3553 1575 
Q 3553 844 3056 380 
Q 2559 -84 1706 -84 
Q 1016 -84 541 125 
z
" transform="scale(0.015625)"/>
     </defs>
     <use xlink:href="#MicrosoftYaHei-Bold-39"/>
     <use xlink:href="#MicrosoftYaHei-Bold-35" transform="translate(61.669922 0)"/>
    </g>
   </g>
   <g id="text_17">
    <!-- 88 -->
    <g style="fill: #2c3e50" transform="translate(412.554648 199.615395) scale(0.1 -0.1)">
     <defs>
      <path id="MicrosoftYaHei-Bold-38" d="M 269 1303 
Q 269 1725 512 2053 
Q 756 2381 1219 2534 
Q 850 2719 648 3003 
Q 447 3288 447 3634 
Q 447 3997 645 4292 
Q 844 4588 1200 4755 
Q 1556 4922 1997 4922 
Q 2441 4922 2800 4758 
Q 3159 4594 3359 4298 
Q 3559 4003 3559 3647 
Q 3559 3309 3339 3018 
Q 3119 2728 2747 2559 
Q 3200 2403 3453 2076 
Q 3706 1750 3706 1313 
Q 3706 697 3228 309 
Q 2750 -78 1988 -78 
Q 1225 -78 747 309 
Q 269 697 269 1303 
z
M 1278 1394 
Q 1278 1056 1472 853 
Q 1666 650 1991 650 
Q 2303 650 2503 853 
Q 2703 1056 2703 1394 
Q 2703 1709 2500 1920 
Q 2297 2131 1991 2131 
Q 1675 2131 1476 1920 
Q 1278 1709 1278 1394 
z
M 1428 3531 
Q 1428 3266 1592 3077 
Q 1756 2888 2006 2888 
Q 2247 2888 2415 3072 
Q 2584 3256 2584 3531 
Q 2584 3806 2420 3997 
Q 2256 4188 2006 4188 
Q 1750 4188 1589 3997 
Q 1428 3806 1428 3531 
z
" transform="scale(0.015625)"/>
     </defs>
     <use xlink:href="#MicrosoftYaHei-Bold-38"/>
     <use xlink:href="#MicrosoftYaHei-Bold-38" transform="translate(61.669922 0)"/>
    </g>
   </g>
   <g id="text_18">
    <!-- 82 -->
    <g style="fill: #2c3e50" transform="translate(390.659011 174.3953) scale(0.1 -0.1)">
     <defs>
      <path id="MicrosoftYaHei-Bold-32" d="M 1500 841 
L 3553 841 
L 3553 0 
L 334 0 
L 334 359 
Q 334 738 473 1050 
Q 613 1363 856 1633 
Q 1100 1903 1613 2266 
Q 2081 2616 2268 2886 
Q 2456 3156 2456 3459 
Q 2456 4113 1744 4113 
Q 1119 4113 550 3613 
L 550 4513 
Q 1184 4922 1975 4922 
Q 2700 4922 3122 4551 
Q 3544 4181 3544 3531 
Q 3544 3169 3422 2876 
Q 3300 2584 3069 2328 
Q 2838 2072 2328 1713 
Q 1838 1363 1669 1172 
Q 1500 981 1500 841 
z
" transform="scale(0.015625)"/>
     </defs>
     <use xlink:href="#MicrosoftYaHei-Bold-38"/>
     <use xlink:href="#MicrosoftYaHei-Bold-32" transform="translate(61.669922 0)"/>
    </g>
   </g>
   <g id="text_19">
    <!-- 78 -->
    <g style="fill: #2c3e50" transform="translate(376.06192 149.175204) scale(0.1 -0.1)">
     <defs>
      <path id="MicrosoftYaHei-Bold-37" d="M 3675 4225 
Q 3088 3172 2798 2528 
Q 2509 1884 2328 1275 
Q 2147 666 2050 0 
L 966 0 
Q 1122 947 1517 1917 
Q 1913 2888 2609 4009 
L 300 4009 
L 300 4841 
L 3675 4841 
L 3675 4225 
z
" transform="scale(0.015625)"/>
     </defs>
     <use xlink:href="#MicrosoftYaHei-Bold-37"/>
     <use xlink:href="#MicrosoftYaHei-Bold-38" transform="translate(61.669922 0)"/>
    </g>
   </g>
   <g id="text_20">
    <!-- 72 -->
    <g style="fill: #2c3e50" transform="translate(354.166284 123.955108) scale(0.1 -0.1)">
     <use xlink:href="#MicrosoftYaHei-Bold-37"/>
     <use xlink:href="#MicrosoftYaHei-Bold-32" transform="translate(61.669922 0)"/>
    </g>
   </g>
   <g id="text_21">
    <!-- 68 -->
    <g style="fill: #2c3e50" transform="translate(339.569193 98.735013) scale(0.1 -0.1)">
     <defs>
      <path id="MicrosoftYaHei-Bold-36" d="M 3378 3938 
Q 3009 4147 2575 4147 
Q 2016 4147 1680 3708 
Q 1344 3269 1344 2572 
L 1363 2572 
Q 1709 3103 2391 3103 
Q 3000 3103 3358 2686 
Q 3716 2269 3716 1600 
Q 3716 869 3250 392 
Q 2784 -84 2059 -84 
Q 1228 -84 786 516 
Q 344 1116 344 2159 
Q 344 3388 917 4155 
Q 1491 4922 2513 4922 
Q 3063 4922 3378 4791 
L 3378 3938 
z
M 1378 1591 
Q 1378 1216 1565 953 
Q 1753 691 2059 691 
Q 2369 691 2547 931 
Q 2725 1172 2725 1534 
Q 2725 2350 2053 2350 
Q 1750 2350 1564 2134 
Q 1378 1919 1378 1591 
z
" transform="scale(0.015625)"/>
     </defs>
     <use xlink:href="#MicrosoftYaHei-Bold-36"/>
     <use xlink:href="#MicrosoftYaHei-Bold-38" transform="translate(61.669922 0)"/>
    </g>
   </g>
   <g id="text_22">
    <!-- 65 -->
    <g style="fill: #2c3e50" transform="translate(328.621375 73.514917) scale(0.1 -0.1)">
     <use xlink:href="#MicrosoftYaHei-Bold-36"/>
     <use xlink:href="#MicrosoftYaHei-Bold-35" transform="translate(61.669922 0)"/>
    </g>
   </g>
   <g id="text_23">
    <!-- 60 -->
    <g style="fill: #2c3e50" transform="translate(310.375011 48.294821) scale(0.1 -0.1)">
     <defs>
      <path id="MicrosoftYaHei-Bold-30" d="M 244 2341 
Q 244 3597 706 4259 
Q 1169 4922 2044 4922 
Q 3713 4922 3713 2453 
Q 3713 1238 3259 577 
Q 2806 -84 1950 -84 
Q 244 -84 244 2341 
z
M 1266 2366 
Q 1266 691 1981 691 
Q 2684 691 2684 2416 
Q 2684 4147 2000 4147 
Q 1266 4147 1266 2366 
z
" transform="scale(0.015625)"/>
     </defs>
     <use xlink:href="#MicrosoftYaHei-Bold-36"/>
     <use xlink:href="#MicrosoftYaHei-Bold-30" transform="translate(61.669922 0)"/>
    </g>
   </g>
   <g id="text_24">
    <!-- Gaokao Essay: High-Frequency Topics -->
    <g style="fill: #2c3e50" transform="translate(155.9475 18.39125) scale(0.14 -0.14)">
     <defs>
      <path id="MicrosoftYaHei-Bold-47" d="M 4494 325 
Q 3784 -84 2750 -84 
Q 1594 -84 925 566 
Q 256 1216 256 2344 
Q 256 3488 992 4205 
Q 1728 4922 2931 4922 
Q 3706 4922 4284 4703 
L 4284 3725 
Q 3722 4053 2909 4053 
Q 2209 4053 1775 3597 
Q 1341 3141 1341 2394 
Q 1341 1634 1733 1209 
Q 2125 784 2803 784 
Q 3206 784 3463 909 
L 3463 1903 
L 2484 1903 
L 2484 2731 
L 4494 2731 
L 4494 325 
z
" transform="scale(0.015625)"/>
      <path id="MicrosoftYaHei-Bold-61" d="M 544 3247 
Q 778 3378 1170 3459 
Q 1563 3541 1841 3541 
Q 3291 3541 3291 2088 
L 3291 0 
L 2331 0 
L 2331 503 
L 2319 503 
Q 1966 -84 1284 -84 
Q 794 -84 498 195 
Q 203 475 203 956 
Q 203 1950 1388 2113 
L 2338 2241 
Q 2338 2844 1709 2844 
Q 1091 2844 544 2469 
L 544 3247 
z
M 1684 1566 
Q 1138 1494 1138 1072 
Q 1138 878 1270 759 
Q 1403 641 1628 641 
Q 1938 641 2138 859 
Q 2338 1078 2338 1403 
L 2338 1650 
L 1684 1566 
z
" transform="scale(0.015625)"/>
      <path id="MicrosoftYaHei-Bold-6f" d="M 253 1713 
Q 253 2566 764 3053 
Q 1275 3541 2138 3541 
Q 2972 3541 3462 3061 
Q 3953 2581 3953 1772 
Q 3953 922 3450 419 
Q 2947 -84 2088 -84 
Q 1244 -84 748 398 
Q 253 881 253 1713 
z
M 1275 1725 
Q 1275 691 2119 691 
Q 2928 691 2928 1753 
Q 2928 2766 2113 2766 
Q 1716 2766 1495 2494 
Q 1275 2222 1275 1725 
z
" transform="scale(0.015625)"/>
      <path id="MicrosoftYaHei-Bold-6b" d="M 3856 0 
L 2631 0 
L 1481 1709 
L 1469 1709 
L 1469 0 
L 459 0 
L 459 5116 
L 1469 5116 
L 1469 1859 
L 1481 1859 
L 2559 3456 
L 3763 3456 
L 2481 1825 
L 3856 0 
z
" transform="scale(0.015625)"/>
      <path id="MicrosoftYaHei-Bold-20" transform="scale(0.015625)"/>
      <path id="MicrosoftYaHei-Bold-45" d="M 3425 0 
L 559 0 
L 559 4841 
L 3313 4841 
L 3313 3997 
L 1591 3997 
L 1591 2856 
L 3191 2856 
L 3191 2016 
L 1591 2016 
L 1591 844 
L 3425 844 
L 3425 0 
z
" transform="scale(0.015625)"/>
      <path id="MicrosoftYaHei-Bold-73" d="M 369 928 
Q 888 613 1384 613 
Q 2009 613 2009 947 
Q 2009 1184 1494 1344 
Q 850 1544 609 1789 
Q 369 2034 369 2453 
Q 369 2963 781 3252 
Q 1194 3541 1863 3541 
Q 2338 3541 2778 3400 
L 2778 2606 
Q 2375 2844 1891 2844 
Q 1650 2844 1503 2758 
Q 1356 2672 1356 2531 
Q 1356 2294 1794 2147 
Q 2263 1991 2498 1862 
Q 2734 1734 2857 1525 
Q 2981 1316 2981 1041 
Q 2981 506 2553 211 
Q 2125 -84 1409 -84 
Q 847 -84 369 94 
L 369 928 
z
" transform="scale(0.015625)"/>
      <path id="MicrosoftYaHei-Bold-79" d="M 3691 3456 
L 2266 -309 
Q 1769 -1622 778 -1622 
Q 388 -1622 172 -1541 
L 172 -731 
Q 375 -847 619 -847 
Q 1031 -847 1200 -447 
L 1391 6 
L -6 3456 
L 1113 3456 
L 1788 1291 
Q 1850 1094 1878 850 
L 1897 850 
Q 1919 1016 2000 1284 
L 2691 3456 
L 3691 3456 
z
" transform="scale(0.015625)"/>
      <path id="MicrosoftYaHei-Bold-3a" d="M 313 2969 
Q 313 3200 491 3350 
Q 669 3500 916 3500 
Q 1166 3500 1337 3350 
Q 1509 3200 1509 2969 
Q 1509 2728 1337 2579 
Q 1166 2431 903 2431 
Q 653 2431 483 2584 
Q 313 2738 313 2969 
z
M 313 453 
Q 313 688 491 838 
Q 669 988 916 988 
Q 1166 988 1337 834 
Q 1509 681 1509 453 
Q 1509 213 1337 64 
Q 1166 -84 903 -84 
Q 659 -84 486 69 
Q 313 222 313 453 
z
" transform="scale(0.015625)"/>
      <path id="MicrosoftYaHei-Bold-48" d="M 4684 0 
L 3653 0 
L 3653 1997 
L 1591 1997 
L 1591 0 
L 559 0 
L 559 4841 
L 1591 4841 
L 1591 2888 
L 3653 2888 
L 3653 4841 
L 4684 4841 
L 4684 0 
z
" transform="scale(0.015625)"/>
      <path id="MicrosoftYaHei-Bold-69" d="M 369 4572 
Q 369 4803 533 4948 
Q 697 5094 953 5094 
Q 1216 5094 1378 4945 
Q 1541 4797 1541 4572 
Q 1541 4344 1375 4192 
Q 1209 4041 953 4041 
Q 700 4041 534 4194 
Q 369 4347 369 4572 
z
M 444 0 
L 444 3456 
L 1450 3456 
L 1450 0 
L 444 0 
z
" transform="scale(0.015625)"/>
      <path id="MicrosoftYaHei-Bold-67" d="M 3800 381 
Q 3800 -581 3251 -1101 
Q 2703 -1622 1672 -1622 
Q 972 -1622 559 -1422 
L 559 -559 
Q 1097 -872 1644 -872 
Q 2184 -872 2489 -583 
Q 2794 -294 2794 219 
L 2794 506 
L 2778 506 
Q 2413 -84 1691 -84 
Q 1038 -84 645 381 
Q 253 847 253 1628 
Q 253 2500 686 3020 
Q 1119 3541 1822 3541 
Q 2459 3541 2778 3044 
L 2794 3044 
L 2794 3456 
L 3800 3456 
L 3800 381 
z
M 2803 1950 
Q 2803 2294 2595 2530 
Q 2388 2766 2072 2766 
Q 1703 2766 1489 2477 
Q 1275 2188 1275 1666 
Q 1275 1213 1481 952 
Q 1688 691 2028 691 
Q 2372 691 2587 956 
Q 2803 1222 2803 1647 
L 2803 1950 
z
" transform="scale(0.015625)"/>
      <path id="MicrosoftYaHei-Bold-68" d="M 3725 0 
L 2719 0 
L 2719 1969 
Q 2719 2766 2138 2766 
Q 1847 2766 1658 2544 
Q 1469 2322 1469 1969 
L 1469 0 
L 459 0 
L 459 5116 
L 1469 5116 
L 1469 2938 
L 1481 2938 
Q 1878 3541 2550 3541 
Q 3725 3541 3725 2122 
L 3725 0 
z
" transform="scale(0.015625)"/>
      <path id="MicrosoftYaHei-Bold-2d" d="M 2328 1497 
L 481 1497 
L 481 2209 
L 2328 2209 
L 2328 1497 
z
" transform="scale(0.015625)"/>
      <path id="MicrosoftYaHei-Bold-46" d="M 3319 3997 
L 1591 3997 
L 1591 2753 
L 3181 2753 
L 3181 1909 
L 1591 1909 
L 1591 0 
L 559 0 
L 559 4841 
L 3319 4841 
L 3319 3997 
z
" transform="scale(0.015625)"/>
      <path id="MicrosoftYaHei-Bold-72" d="M 2663 2541 
Q 2478 2647 2216 2647 
Q 1872 2647 1670 2384 
Q 1469 2122 1469 1663 
L 1469 0 
L 459 0 
L 459 3456 
L 1469 3456 
L 1469 2806 
L 1481 2806 
Q 1731 3516 2391 3516 
Q 2569 3516 2663 3475 
L 2663 2541 
z
" transform="scale(0.015625)"/>
      <path id="MicrosoftYaHei-Bold-65" d="M 3528 1444 
L 1253 1444 
Q 1306 641 2222 641 
Q 2794 641 3231 922 
L 3231 181 
Q 2759 -84 1994 -84 
Q 1169 -84 711 381 
Q 253 847 253 1678 
Q 253 2506 740 3023 
Q 1228 3541 1966 3541 
Q 2700 3541 3114 3095 
Q 3528 2650 3528 1872 
L 3528 1444 
z
M 2588 2075 
Q 2588 2850 1959 2850 
Q 1700 2850 1500 2637 
Q 1300 2425 1250 2075 
L 2588 2075 
z
" transform="scale(0.015625)"/>
      <path id="MicrosoftYaHei-Bold-71" d="M 3794 -1591 
L 2788 -1591 
L 2788 488 
L 2772 488 
Q 2409 -84 1697 -84 
Q 1044 -84 648 370 
Q 253 825 253 1644 
Q 253 2509 689 3025 
Q 1125 3541 1825 3541 
Q 2466 3541 2772 3044 
L 2788 3044 
L 2788 3456 
L 3794 3456 
L 3794 -1591 
z
M 2803 1944 
Q 2803 2288 2597 2527 
Q 2391 2766 2072 2766 
Q 1709 2766 1492 2478 
Q 1275 2191 1275 1672 
Q 1275 1206 1484 948 
Q 1694 691 2022 691 
Q 2375 691 2589 955 
Q 2803 1219 2803 1641 
L 2803 1944 
z
" transform="scale(0.015625)"/>
      <path id="MicrosoftYaHei-Bold-75" d="M 3691 0 
L 2688 0 
L 2688 528 
L 2672 528 
Q 2284 -84 1613 -84 
Q 406 -84 406 1372 
L 406 3456 
L 1416 3456 
L 1416 1466 
Q 1416 691 2022 691 
Q 2325 691 2506 903 
Q 2688 1116 2688 1478 
L 2688 3456 
L 3691 3456 
L 3691 0 
z
" transform="scale(0.015625)"/>
      <path id="MicrosoftYaHei-Bold-6e" d="M 3744 0 
L 2741 0 
L 2741 1928 
Q 2741 2766 2138 2766 
Q 1850 2766 1659 2542 
Q 1469 2319 1469 1972 
L 1469 0 
L 459 0 
L 459 3456 
L 1469 3456 
L 1469 2906 
L 1481 2906 
Q 1859 3541 2594 3541 
Q 3744 3541 3744 2116 
L 3744 0 
z
" transform="scale(0.015625)"/>
      <path id="MicrosoftYaHei-Bold-63" d="M 3050 128 
Q 2688 -84 2019 -84 
Q 1228 -84 740 397 
Q 253 878 253 1644 
Q 253 2525 778 3033 
Q 1303 3541 2178 3541 
Q 2769 3541 3053 3378 
L 3053 2513 
Q 2706 2766 2297 2766 
Q 1834 2766 1554 2484 
Q 1275 2203 1275 1713 
Q 1275 1238 1540 964 
Q 1806 691 2263 691 
Q 2666 691 3050 947 
L 3050 128 
z
" transform="scale(0.015625)"/>
      <path id="MicrosoftYaHei-Bold-54" d="M 3900 3997 
L 2519 3997 
L 2519 0 
L 1484 0 
L 1484 3997 
L 106 3997 
L 106 4841 
L 3900 4841 
L 3900 3997 
z
" transform="scale(0.015625)"/>
      <path id="MicrosoftYaHei-Bold-70" d="M 1469 416 
L 1469 -1591 
L 459 -1591 
L 459 3456 
L 1469 3456 
L 1469 2928 
L 1481 2928 
Q 1878 3541 2603 3541 
Q 3263 3541 3634 3080 
Q 4006 2619 4006 1825 
Q 4006 959 3575 437 
Q 3144 -84 2444 -84 
Q 1809 -84 1481 416 
L 1469 416 
z
M 1453 1528 
Q 1453 1159 1653 925 
Q 1853 691 2172 691 
Q 2550 691 2761 984 
Q 2972 1278 2972 1816 
Q 2972 2766 2231 2766 
Q 1888 2766 1670 2503 
Q 1453 2241 1453 1828 
L 1453 1528 
z
" transform="scale(0.015625)"/>
     </defs>
     <use xlink:href="#MicrosoftYaHei-Bold-47"/>
     <use xlink:href="#MicrosoftYaHei-Bold-61" transform="translate(76.513672 0)"/>
     <use xlink:href="#MicrosoftYaHei-Bold-6f" transform="translate(134.277344 0)"/>
     <use xlink:href="#MicrosoftYaHei-Bold-6b" transform="translate(200 0)"/>
     <use xlink:href="#MicrosoftYaHei-Bold-61" transform="translate(259.619141 0)"/>
     <use xlink:href="#MicrosoftYaHei-Bold-6f" transform="translate(317.382812 0)"/>
     <use xlink:href="#MicrosoftYaHei-Bold-20" transform="translate(383.105469 0)"/>
     <use xlink:href="#MicrosoftYaHei-Bold-45" transform="translate(412.890625 0)"/>
     <use xlink:href="#MicrosoftYaHei-Bold-73" transform="translate(470.068359 0)"/>
     <use xlink:href="#MicrosoftYaHei-Bold-73" transform="translate(519.433594 0)"/>
     <use xlink:href="#MicrosoftYaHei-Bold-61" transform="translate(568.798828 0)"/>
     <use xlink:href="#MicrosoftYaHei-Bold-79" transform="translate(626.5625 0)"/>
     <use xlink:href="#MicrosoftYaHei-Bold-3a" transform="translate(683.984375 0)"/>
     <use xlink:href="#MicrosoftYaHei-Bold-20" transform="translate(712.548828 0)"/>
     <use xlink:href="#MicrosoftYaHei-Bold-48" transform="translate(742.333984 0)"/>
     <use xlink:href="#MicrosoftYaHei-Bold-69" transform="translate(824.462891 0)"/>
     <use xlink:href="#MicrosoftYaHei-Bold-67" transform="translate(854.052734 0)"/>
     <use xlink:href="#MicrosoftYaHei-Bold-68" transform="translate(920.507812 0)"/>
     <use xlink:href="#MicrosoftYaHei-Bold-2d" transform="translate(985.058594 0)"/>
     <use xlink:href="#MicrosoftYaHei-Bold-46" transform="translate(1028.710938 0)"/>
     <use xlink:href="#MicrosoftYaHei-Bold-72" transform="translate(1084.521484 0)"/>
     <use xlink:href="#MicrosoftYaHei-Bold-65" transform="translate(1126.404297 0)"/>
     <use xlink:href="#MicrosoftYaHei-Bold-71" transform="translate(1184.607422 0)"/>
     <use xlink:href="#MicrosoftYaHei-Bold-75" transform="translate(1251.0625 0)"/>
     <use xlink:href="#MicrosoftYaHei-Bold-65" transform="translate(1315.857422 0)"/>
     <use xlink:href="#MicrosoftYaHei-Bold-6e" transform="translate(1374.060547 0)"/>
     <use xlink:href="#MicrosoftYaHei-Bold-63" transform="translate(1438.855469 0)"/>
     <use xlink:href="#MicrosoftYaHei-Bold-79" transform="translate(1490.515625 0)"/>
     <use xlink:href="#MicrosoftYaHei-Bold-20" transform="translate(1547.9375 0)"/>
     <use xlink:href="#MicrosoftYaHei-Bold-54" transform="translate(1577.722656 0)"/>
     <use xlink:href="#MicrosoftYaHei-Bold-6f" transform="translate(1630.396484 0)"/>
     <use xlink:href="#MicrosoftYaHei-Bold-70" transform="translate(1696.119141 0)"/>
     <use xlink:href="#MicrosoftYaHei-Bold-69" transform="translate(1762.720703 0)"/>
     <use xlink:href="#MicrosoftYaHei-Bold-63" transform="translate(1792.310547 0)"/>
     <use xlink:href="#MicrosoftYaHei-Bold-73" transform="translate(1843.970703 0)"/>
    </g>
   </g>
  </g>
 </g>
 <defs>
  <clipPath id="p99f12740c7">
   <rect x="87.769375" y="28.39125" width="401.42" height="210.84"/>
  </clipPath>
 </defs>
</svg>
