<?xml version="1.0" encoding="utf-8" standalone="no"?>
<!DOCTYPE svg PUBLIC "-//W3C//DTD SVG 1.1//EN"
  "http://www.w3.org/Graphics/SVG/1.1/DTD/svg11.dtd">
<svg xmlns:xlink="http://www.w3.org/1999/xlink" width="460.8pt" height="153pt" viewBox="0 0 460.8 153" xmlns="http://www.w3.org/2000/svg" version="1.1">
 <metadata>
  <rdf:RDF xmlns:dc="http://purl.org/dc/elements/1.1/" xmlns:cc="http://creativecommons.org/ns#" xmlns:rdf="http://www.w3.org/1999/02/22-rdf-syntax-ns#">
   <cc:Work>
    <dc:type rdf:resource="http://purl.org/dc/dcmitype/StillImage"/>
    <dc:date>2026-05-25T22:33:54.151753</dc:date>
    <dc:format>image/svg+xml</dc:format>
    <dc:creator>
     <cc:Agent>
      <dc:title>Matplotlib v3.10.9, https://matplotlib.org/</dc:title>
     </cc:Agent>
    </dc:creator>
   </cc:Work>
  </rdf:RDF>
 </metadata>
 <defs>
  <style type="text/css">*{stroke-linejoin: round; stroke-linecap: butt}</style>
 </defs>
 <g id="figure_1">
  <g id="patch_1">
   <path d="M 0 153 
L 460.8 153 
L 460.8 0 
L 0 0 
z
" style="fill: #ffffff"/>
  </g>
  <g id="axes_1">
   <g id="line2d_1">
    <path d="M 51.84 131.94 
L 51.84 76.5 
" clip-path="url(#p905c80f8b2)" style="fill: none; stroke-dasharray: 1.5,2.475; stroke-dashoffset: 0; stroke: #e74c3c; stroke-opacity: 0.5; stroke-width: 1.5"/>
   </g>
   <g id="line2d_2">
    <path d="M 150.048 131.94 
L 150.048 76.5 
" clip-path="url(#p905c80f8b2)" style="fill: none; stroke-dasharray: 1.5,2.475; stroke-dashoffset: 0; stroke: #2980b9; stroke-opacity: 0.5; stroke-width: 1.5"/>
   </g>
   <g id="line2d_3">
    <path d="M 297.36 131.94 
L 297.36 76.5 
" clip-path="url(#p905c80f8b2)" style="fill: none; stroke-dasharray: 1.5,2.475; stroke-dashoffset: 0; stroke: #27ae60; stroke-opacity: 0.5; stroke-width: 1.5"/>
   </g>
   <g id="line2d_4">
    <path d="M 364.32 131.94 
L 364.32 76.5 
" clip-path="url(#p905c80f8b2)" style="fill: none; stroke-dasharray: 1.5,2.475; stroke-dashoffset: 0; stroke: #f39c12; stroke-opacity: 0.5; stroke-width: 1.5"/>
   </g>
   <g id="text_1">
    <!-- The research, which has been conducted over the past decade, -->
    <g style="fill: #2c3e50" transform="translate(42.035625 25.68) scale(0.12 -0.12)">
     <defs>
      <path id="MicrosoftYaHei-Bold-54" d="M 3900 3997 
L 2519 3997 
L 2519 0 
L 1484 0 
L 1484 3997 
L 106 3997 
L 106 4841 
L 3900 4841 
L 3900 3997 
z
" transform="scale(0.015625)"/>
      <path id="MicrosoftYaHei-Bold-68" d="M 3725 0 
L 2719 0 
L 2719 1969 
Q 2719 2766 2138 2766 
Q 1847 2766 1658 2544 
Q 1469 2322 1469 1969 
L 1469 0 
L 459 0 
L 459 5116 
L 1469 5116 
L 1469 2938 
L 1481 2938 
Q 1878 3541 2550 3541 
Q 3725 3541 3725 2122 
L 3725 0 
z
" transform="scale(0.015625)"/>
      <path id="MicrosoftYaHei-Bold-65" d="M 3528 1444 
L 1253 1444 
Q 1306 641 2222 641 
Q 2794 641 3231 922 
L 3231 181 
Q 2759 -84 1994 -84 
Q 1169 -84 711 381 
Q 253 847 253 1678 
Q 253 2506 740 3023 
Q 1228 3541 1966 3541 
Q 2700 3541 3114 3095 
Q 3528 2650 3528 1872 
L 3528 1444 
z
M 2588 2075 
Q 2588 2850 1959 2850 
Q 1700 2850 1500 2637 
Q 1300 2425 1250 2075 
L 2588 2075 
z
" transform="scale(0.015625)"/>
      <path id="MicrosoftYaHei-Bold-20" transform="scale(0.015625)"/>
      <path id="MicrosoftYaHei-Bold-72" d="M 2663 2541 
Q 2478 2647 2216 2647 
Q 1872 2647 1670 2384 
Q 1469 2122 1469 1663 
L 1469 0 
L 459 0 
L 459 3456 
L 1469 3456 
L 1469 2806 
L 1481 2806 
Q 1731 3516 2391 3516 
Q 2569 3516 2663 3475 
L 2663 2541 
z
" transform="scale(0.015625)"/>
      <path id="MicrosoftYaHei-Bold-73" d="M 369 928 
Q 888 613 1384 613 
Q 2009 613 2009 947 
Q 2009 1184 1494 1344 
Q 850 1544 609 1789 
Q 369 2034 369 2453 
Q 369 2963 781 3252 
Q 1194 3541 1863 3541 
Q 2338 3541 2778 3400 
L 2778 2606 
Q 2375 2844 1891 2844 
Q 1650 2844 1503 2758 
Q 1356 2672 1356 2531 
Q 1356 2294 1794 2147 
Q 2263 1991 2498 1862 
Q 2734 1734 2857 1525 
Q 2981 1316 2981 1041 
Q 2981 506 2553 211 
Q 2125 -84 1409 -84 
Q 847 -84 369 94 
L 369 928 
z
" transform="scale(0.015625)"/>
      <path id="MicrosoftYaHei-Bold-61" d="M 544 3247 
Q 778 3378 1170 3459 
Q 1563 3541 1841 3541 
Q 3291 3541 3291 2088 
L 3291 0 
L 2331 0 
L 2331 503 
L 2319 503 
Q 1966 -84 1284 -84 
Q 794 -84 498 195 
Q 203 475 203 956 
Q 203 1950 1388 2113 
L 2338 2241 
Q 2338 2844 1709 2844 
Q 1091 2844 544 2469 
L 544 3247 
z
M 1684 1566 
Q 1138 1494 1138 1072 
Q 1138 878 1270 759 
Q 1403 641 1628 641 
Q 1938 641 2138 859 
Q 2338 1078 2338 1403 
L 2338 1650 
L 1684 1566 
z
" transform="scale(0.015625)"/>
      <path id="MicrosoftYaHei-Bold-63" d="M 3050 128 
Q 2688 -84 2019 -84 
Q 1228 -84 740 397 
Q 253 878 253 1644 
Q 253 2525 778 3033 
Q 1303 3541 2178 3541 
Q 2769 3541 3053 3378 
L 3053 2513 
Q 2706 2766 2297 2766 
Q 1834 2766 1554 2484 
Q 1275 2203 1275 1713 
Q 1275 1238 1540 964 
Q 1806 691 2263 691 
Q 2666 691 3050 947 
L 3050 128 
z
" transform="scale(0.015625)"/>
      <path id="MicrosoftYaHei-Bold-2c" d="M 1419 841 
L 916 -859 
L 134 -859 
L 484 841 
L 1419 841 
z
" transform="scale(0.015625)"/>
      <path id="MicrosoftYaHei-Bold-77" d="M 5391 3456 
L 4391 0 
L 3331 0 
L 2800 2075 
Q 2747 2284 2744 2503 
L 2722 2503 
Q 2700 2256 2656 2088 
L 2084 0 
L 1038 0 
L 53 3456 
L 1084 3456 
L 1588 1163 
Q 1619 1025 1638 784 
L 1659 784 
Q 1675 1016 1719 1175 
L 2338 3456 
L 3294 3456 
L 3847 1159 
Q 3869 1066 3894 778 
L 3919 778 
Q 3928 944 3972 1159 
L 4453 3456 
L 5391 3456 
z
" transform="scale(0.015625)"/>
      <path id="MicrosoftYaHei-Bold-69" d="M 369 4572 
Q 369 4803 533 4948 
Q 697 5094 953 5094 
Q 1216 5094 1378 4945 
Q 1541 4797 1541 4572 
Q 1541 4344 1375 4192 
Q 1209 4041 953 4041 
Q 700 4041 534 4194 
Q 369 4347 369 4572 
z
M 444 0 
L 444 3456 
L 1450 3456 
L 1450 0 
L 444 0 
z
" transform="scale(0.015625)"/>
      <path id="MicrosoftYaHei-Bold-62" d="M 1469 416 
L 1469 0 
L 459 0 
L 459 5116 
L 1469 5116 
L 1469 2928 
L 1481 2928 
Q 1878 3541 2613 3541 
Q 3266 3541 3636 3084 
Q 4006 2628 4006 1825 
Q 4006 966 3581 441 
Q 3156 -84 2453 -84 
Q 1809 -84 1481 416 
L 1469 416 
z
M 1453 1494 
Q 1453 1153 1656 922 
Q 1859 691 2172 691 
Q 2550 691 2761 984 
Q 2972 1278 2972 1816 
Q 2972 2263 2780 2514 
Q 2588 2766 2231 2766 
Q 1894 2766 1673 2512 
Q 1453 2259 1453 1863 
L 1453 1494 
z
" transform="scale(0.015625)"/>
      <path id="MicrosoftYaHei-Bold-6e" d="M 3744 0 
L 2741 0 
L 2741 1928 
Q 2741 2766 2138 2766 
Q 1850 2766 1659 2542 
Q 1469 2319 1469 1972 
L 1469 0 
L 459 0 
L 459 3456 
L 1469 3456 
L 1469 2906 
L 1481 2906 
Q 1859 3541 2594 3541 
Q 3744 3541 3744 2116 
L 3744 0 
z
" transform="scale(0.015625)"/>
      <path id="MicrosoftYaHei-Bold-6f" d="M 253 1713 
Q 253 2566 764 3053 
Q 1275 3541 2138 3541 
Q 2972 3541 3462 3061 
Q 3953 2581 3953 1772 
Q 3953 922 3450 419 
Q 2947 -84 2088 -84 
Q 1244 -84 748 398 
Q 253 881 253 1713 
z
M 1275 1725 
Q 1275 691 2119 691 
Q 2928 691 2928 1753 
Q 2928 2766 2113 2766 
Q 1716 2766 1495 2494 
Q 1275 2222 1275 1725 
z
" transform="scale(0.015625)"/>
      <path id="MicrosoftYaHei-Bold-64" d="M 3794 0 
L 2788 0 
L 2788 488 
L 2772 488 
Q 2406 -84 1691 -84 
Q 1031 -84 642 381 
Q 253 847 253 1650 
Q 253 2500 689 3020 
Q 1125 3541 1828 3541 
Q 2503 3541 2772 3053 
L 2788 3053 
L 2788 5116 
L 3794 5116 
L 3794 0 
z
M 2803 1956 
Q 2803 2306 2592 2536 
Q 2381 2766 2066 2766 
Q 1697 2766 1486 2473 
Q 1275 2181 1275 1681 
Q 1275 1206 1478 948 
Q 1681 691 2038 691 
Q 2372 691 2587 962 
Q 2803 1234 2803 1669 
L 2803 1956 
z
" transform="scale(0.015625)"/>
      <path id="MicrosoftYaHei-Bold-75" d="M 3691 0 
L 2688 0 
L 2688 528 
L 2672 528 
Q 2284 -84 1613 -84 
Q 406 -84 406 1372 
L 406 3456 
L 1416 3456 
L 1416 1466 
Q 1416 691 2022 691 
Q 2325 691 2506 903 
Q 2688 1116 2688 1478 
L 2688 3456 
L 3691 3456 
L 3691 0 
z
" transform="scale(0.015625)"/>
      <path id="MicrosoftYaHei-Bold-74" d="M 2494 41 
Q 2266 -84 1803 -84 
Q 703 -84 703 1072 
L 703 2703 
L 134 2703 
L 134 3456 
L 703 3456 
L 703 4216 
L 1706 4503 
L 1706 3456 
L 2494 3456 
L 2494 2703 
L 1706 2703 
L 1706 1247 
Q 1706 694 2144 694 
Q 2313 694 2494 794 
L 2494 41 
z
" transform="scale(0.015625)"/>
      <path id="MicrosoftYaHei-Bold-76" d="M 3688 3456 
L 2391 0 
L 1250 0 
L 16 3456 
L 1097 3456 
L 1731 1281 
Q 1834 925 1847 684 
L 1863 684 
Q 1888 931 1984 1263 
L 2631 3456 
L 3688 3456 
z
" transform="scale(0.015625)"/>
      <path id="MicrosoftYaHei-Bold-70" d="M 1469 416 
L 1469 -1591 
L 459 -1591 
L 459 3456 
L 1469 3456 
L 1469 2928 
L 1481 2928 
Q 1878 3541 2603 3541 
Q 3263 3541 3634 3080 
Q 4006 2619 4006 1825 
Q 4006 959 3575 437 
Q 3144 -84 2444 -84 
Q 1809 -84 1481 416 
L 1469 416 
z
M 1453 1528 
Q 1453 1159 1653 925 
Q 1853 691 2172 691 
Q 2550 691 2761 984 
Q 2972 1278 2972 1816 
Q 2972 2766 2231 2766 
Q 1888 2766 1670 2503 
Q 1453 2241 1453 1828 
L 1453 1528 
z
" transform="scale(0.015625)"/>
     </defs>
     <use xlink:href="#MicrosoftYaHei-Bold-54"/>
     <use xlink:href="#MicrosoftYaHei-Bold-68" transform="translate(62.548828 0)"/>
     <use xlink:href="#MicrosoftYaHei-Bold-65" transform="translate(127.099609 0)"/>
     <use xlink:href="#MicrosoftYaHei-Bold-20" transform="translate(185.302734 0)"/>
     <use xlink:href="#MicrosoftYaHei-Bold-72" transform="translate(215.087891 0)"/>
     <use xlink:href="#MicrosoftYaHei-Bold-65" transform="translate(256.970703 0)"/>
     <use xlink:href="#MicrosoftYaHei-Bold-73" transform="translate(315.173828 0)"/>
     <use xlink:href="#MicrosoftYaHei-Bold-65" transform="translate(364.539062 0)"/>
     <use xlink:href="#MicrosoftYaHei-Bold-61" transform="translate(422.742188 0)"/>
     <use xlink:href="#MicrosoftYaHei-Bold-72" transform="translate(480.505859 0)"/>
     <use xlink:href="#MicrosoftYaHei-Bold-63" transform="translate(522.388672 0)"/>
     <use xlink:href="#MicrosoftYaHei-Bold-68" transform="translate(574.048828 0)"/>
     <use xlink:href="#MicrosoftYaHei-Bold-2c" transform="translate(638.599609 0)"/>
     <use xlink:href="#MicrosoftYaHei-Bold-20" transform="translate(667.164062 0)"/>
     <use xlink:href="#MicrosoftYaHei-Bold-77" transform="translate(696.949219 0)"/>
     <use xlink:href="#MicrosoftYaHei-Bold-68" transform="translate(782.105469 0)"/>
     <use xlink:href="#MicrosoftYaHei-Bold-69" transform="translate(846.65625 0)"/>
     <use xlink:href="#MicrosoftYaHei-Bold-63" transform="translate(876.246094 0)"/>
     <use xlink:href="#MicrosoftYaHei-Bold-68" transform="translate(927.90625 0)"/>
     <use xlink:href="#MicrosoftYaHei-Bold-20" transform="translate(992.457031 0)"/>
     <use xlink:href="#MicrosoftYaHei-Bold-68" transform="translate(1022.242188 0)"/>
     <use xlink:href="#MicrosoftYaHei-Bold-61" transform="translate(1086.792969 0)"/>
     <use xlink:href="#MicrosoftYaHei-Bold-73" transform="translate(1144.556641 0)"/>
     <use xlink:href="#MicrosoftYaHei-Bold-20" transform="translate(1193.921875 0)"/>
     <use xlink:href="#MicrosoftYaHei-Bold-62" transform="translate(1223.707031 0)"/>
     <use xlink:href="#MicrosoftYaHei-Bold-65" transform="translate(1290.308594 0)"/>
     <use xlink:href="#MicrosoftYaHei-Bold-65" transform="translate(1348.511719 0)"/>
     <use xlink:href="#MicrosoftYaHei-Bold-6e" transform="translate(1406.714844 0)"/>
     <use xlink:href="#MicrosoftYaHei-Bold-20" transform="translate(1471.509766 0)"/>
     <use xlink:href="#MicrosoftYaHei-Bold-63" transform="translate(1501.294922 0)"/>
     <use xlink:href="#MicrosoftYaHei-Bold-6f" transform="translate(1552.955078 0)"/>
     <use xlink:href="#MicrosoftYaHei-Bold-6e" transform="translate(1618.677734 0)"/>
     <use xlink:href="#MicrosoftYaHei-Bold-64" transform="translate(1683.472656 0)"/>
     <use xlink:href="#MicrosoftYaHei-Bold-75" transform="translate(1749.927734 0)"/>
     <use xlink:href="#MicrosoftYaHei-Bold-63" transform="translate(1814.722656 0)"/>
     <use xlink:href="#MicrosoftYaHei-Bold-74" transform="translate(1866.382812 0)"/>
     <use xlink:href="#MicrosoftYaHei-Bold-65" transform="translate(1907.289062 0)"/>
     <use xlink:href="#MicrosoftYaHei-Bold-64" transform="translate(1965.492188 0)"/>
     <use xlink:href="#MicrosoftYaHei-Bold-20" transform="translate(2031.947266 0)"/>
     <use xlink:href="#MicrosoftYaHei-Bold-6f" transform="translate(2061.732422 0)"/>
     <use xlink:href="#MicrosoftYaHei-Bold-76" transform="translate(2127.455078 0)"/>
     <use xlink:href="#MicrosoftYaHei-Bold-65" transform="translate(2184.044922 0)"/>
     <use xlink:href="#MicrosoftYaHei-Bold-72" transform="translate(2242.248047 0)"/>
     <use xlink:href="#MicrosoftYaHei-Bold-20" transform="translate(2284.630859 0)"/>
     <use xlink:href="#MicrosoftYaHei-Bold-74" transform="translate(2314.416016 0)"/>
     <use xlink:href="#MicrosoftYaHei-Bold-68" transform="translate(2355.822266 0)"/>
     <use xlink:href="#MicrosoftYaHei-Bold-65" transform="translate(2420.373047 0)"/>
     <use xlink:href="#MicrosoftYaHei-Bold-20" transform="translate(2478.576172 0)"/>
     <use xlink:href="#MicrosoftYaHei-Bold-70" transform="translate(2508.361328 0)"/>
     <use xlink:href="#MicrosoftYaHei-Bold-61" transform="translate(2573.837891 0)"/>
     <use xlink:href="#MicrosoftYaHei-Bold-73" transform="translate(2631.601562 0)"/>
     <use xlink:href="#MicrosoftYaHei-Bold-74" transform="translate(2680.966797 0)"/>
     <use xlink:href="#MicrosoftYaHei-Bold-20" transform="translate(2722.373047 0)"/>
     <use xlink:href="#MicrosoftYaHei-Bold-64" transform="translate(2752.158203 0)"/>
     <use xlink:href="#MicrosoftYaHei-Bold-65" transform="translate(2818.613281 0)"/>
     <use xlink:href="#MicrosoftYaHei-Bold-63" transform="translate(2876.816406 0)"/>
     <use xlink:href="#MicrosoftYaHei-Bold-61" transform="translate(2928.476562 0)"/>
     <use xlink:href="#MicrosoftYaHei-Bold-64" transform="translate(2986.240234 0)"/>
     <use xlink:href="#MicrosoftYaHei-Bold-65" transform="translate(3052.695312 0)"/>
     <use xlink:href="#MicrosoftYaHei-Bold-2c" transform="translate(3110.898438 0)"/>
    </g>
   </g>
   <g id="text_2">
    <!-- suggests that the key to success lies not in talent alone -->
    <g style="fill: #2c3e50" transform="translate(64.22625 44.16) scale(0.12 -0.12)">
     <defs>
      <path id="MicrosoftYaHei-Bold-67" d="M 3800 381 
Q 3800 -581 3251 -1101 
Q 2703 -1622 1672 -1622 
Q 972 -1622 559 -1422 
L 559 -559 
Q 1097 -872 1644 -872 
Q 2184 -872 2489 -583 
Q 2794 -294 2794 219 
L 2794 506 
L 2778 506 
Q 2413 -84 1691 -84 
Q 1038 -84 645 381 
Q 253 847 253 1628 
Q 253 2500 686 3020 
Q 1119 3541 1822 3541 
Q 2459 3541 2778 3044 
L 2794 3044 
L 2794 3456 
L 3800 3456 
L 3800 381 
z
M 2803 1950 
Q 2803 2294 2595 2530 
Q 2388 2766 2072 2766 
Q 1703 2766 1489 2477 
Q 1275 2188 1275 1666 
Q 1275 1213 1481 952 
Q 1688 691 2028 691 
Q 2372 691 2587 956 
Q 2803 1222 2803 1647 
L 2803 1950 
z
" transform="scale(0.015625)"/>
      <path id="MicrosoftYaHei-Bold-6b" d="M 3856 0 
L 2631 0 
L 1481 1709 
L 1469 1709 
L 1469 0 
L 459 0 
L 459 5116 
L 1469 5116 
L 1469 1859 
L 1481 1859 
L 2559 3456 
L 3763 3456 
L 2481 1825 
L 3856 0 
z
" transform="scale(0.015625)"/>
      <path id="MicrosoftYaHei-Bold-79" d="M 3691 3456 
L 2266 -309 
Q 1769 -1622 778 -1622 
Q 388 -1622 172 -1541 
L 172 -731 
Q 375 -847 619 -847 
Q 1031 -847 1200 -447 
L 1391 6 
L -6 3456 
L 1113 3456 
L 1788 1291 
Q 1850 1094 1878 850 
L 1897 850 
Q 1919 1016 2000 1284 
L 2691 3456 
L 3691 3456 
z
" transform="scale(0.015625)"/>
      <path id="MicrosoftYaHei-Bold-6c" d="M 444 0 
L 444 5116 
L 1450 5116 
L 1450 0 
L 444 0 
z
" transform="scale(0.015625)"/>
     </defs>
     <use xlink:href="#MicrosoftYaHei-Bold-73"/>
     <use xlink:href="#MicrosoftYaHei-Bold-75" transform="translate(49.365234 0)"/>
     <use xlink:href="#MicrosoftYaHei-Bold-67" transform="translate(114.160156 0)"/>
     <use xlink:href="#MicrosoftYaHei-Bold-67" transform="translate(180.615234 0)"/>
     <use xlink:href="#MicrosoftYaHei-Bold-65" transform="translate(247.070312 0)"/>
     <use xlink:href="#MicrosoftYaHei-Bold-73" transform="translate(305.273438 0)"/>
     <use xlink:href="#MicrosoftYaHei-Bold-74" transform="translate(354.638672 0)"/>
     <use xlink:href="#MicrosoftYaHei-Bold-73" transform="translate(396.044922 0)"/>
     <use xlink:href="#MicrosoftYaHei-Bold-20" transform="translate(445.410156 0)"/>
     <use xlink:href="#MicrosoftYaHei-Bold-74" transform="translate(475.195312 0)"/>
     <use xlink:href="#MicrosoftYaHei-Bold-68" transform="translate(516.601562 0)"/>
     <use xlink:href="#MicrosoftYaHei-Bold-61" transform="translate(581.152344 0)"/>
     <use xlink:href="#MicrosoftYaHei-Bold-74" transform="translate(638.916016 0)"/>
     <use xlink:href="#MicrosoftYaHei-Bold-20" transform="translate(680.322266 0)"/>
     <use xlink:href="#MicrosoftYaHei-Bold-74" transform="translate(710.107422 0)"/>
     <use xlink:href="#MicrosoftYaHei-Bold-68" transform="translate(751.513672 0)"/>
     <use xlink:href="#MicrosoftYaHei-Bold-65" transform="translate(816.064453 0)"/>
     <use xlink:href="#MicrosoftYaHei-Bold-20" transform="translate(874.267578 0)"/>
     <use xlink:href="#MicrosoftYaHei-Bold-6b" transform="translate(904.052734 0)"/>
     <use xlink:href="#MicrosoftYaHei-Bold-65" transform="translate(962.171875 0)"/>
     <use xlink:href="#MicrosoftYaHei-Bold-79" transform="translate(1020.375 0)"/>
     <use xlink:href="#MicrosoftYaHei-Bold-20" transform="translate(1077.796875 0)"/>
     <use xlink:href="#MicrosoftYaHei-Bold-74" transform="translate(1107.582031 0)"/>
     <use xlink:href="#MicrosoftYaHei-Bold-6f" transform="translate(1148.488281 0)"/>
     <use xlink:href="#MicrosoftYaHei-Bold-20" transform="translate(1214.210938 0)"/>
     <use xlink:href="#MicrosoftYaHei-Bold-73" transform="translate(1243.996094 0)"/>
     <use xlink:href="#MicrosoftYaHei-Bold-75" transform="translate(1293.361328 0)"/>
     <use xlink:href="#MicrosoftYaHei-Bold-63" transform="translate(1358.15625 0)"/>
     <use xlink:href="#MicrosoftYaHei-Bold-63" transform="translate(1409.816406 0)"/>
     <use xlink:href="#MicrosoftYaHei-Bold-65" transform="translate(1461.476562 0)"/>
     <use xlink:href="#MicrosoftYaHei-Bold-73" transform="translate(1519.679688 0)"/>
     <use xlink:href="#MicrosoftYaHei-Bold-73" transform="translate(1569.044922 0)"/>
     <use xlink:href="#MicrosoftYaHei-Bold-20" transform="translate(1618.410156 0)"/>
     <use xlink:href="#MicrosoftYaHei-Bold-6c" transform="translate(1648.195312 0)"/>
     <use xlink:href="#MicrosoftYaHei-Bold-69" transform="translate(1677.785156 0)"/>
     <use xlink:href="#MicrosoftYaHei-Bold-65" transform="translate(1707.375 0)"/>
     <use xlink:href="#MicrosoftYaHei-Bold-73" transform="translate(1765.578125 0)"/>
     <use xlink:href="#MicrosoftYaHei-Bold-20" transform="translate(1814.943359 0)"/>
     <use xlink:href="#MicrosoftYaHei-Bold-6e" transform="translate(1844.728516 0)"/>
     <use xlink:href="#MicrosoftYaHei-Bold-6f" transform="translate(1909.523438 0)"/>
     <use xlink:href="#MicrosoftYaHei-Bold-74" transform="translate(1975.246094 0)"/>
     <use xlink:href="#MicrosoftYaHei-Bold-20" transform="translate(2016.652344 0)"/>
     <use xlink:href="#MicrosoftYaHei-Bold-69" transform="translate(2046.4375 0)"/>
     <use xlink:href="#MicrosoftYaHei-Bold-6e" transform="translate(2076.027344 0)"/>
     <use xlink:href="#MicrosoftYaHei-Bold-20" transform="translate(2140.822266 0)"/>
     <use xlink:href="#MicrosoftYaHei-Bold-74" transform="translate(2170.607422 0)"/>
     <use xlink:href="#MicrosoftYaHei-Bold-61" transform="translate(2212.013672 0)"/>
     <use xlink:href="#MicrosoftYaHei-Bold-6c" transform="translate(2269.777344 0)"/>
     <use xlink:href="#MicrosoftYaHei-Bold-65" transform="translate(2299.367188 0)"/>
     <use xlink:href="#MicrosoftYaHei-Bold-6e" transform="translate(2357.570312 0)"/>
     <use xlink:href="#MicrosoftYaHei-Bold-74" transform="translate(2422.365234 0)"/>
     <use xlink:href="#MicrosoftYaHei-Bold-20" transform="translate(2463.771484 0)"/>
     <use xlink:href="#MicrosoftYaHei-Bold-61" transform="translate(2493.556641 0)"/>
     <use xlink:href="#MicrosoftYaHei-Bold-6c" transform="translate(2551.320312 0)"/>
     <use xlink:href="#MicrosoftYaHei-Bold-6f" transform="translate(2580.910156 0)"/>
     <use xlink:href="#MicrosoftYaHei-Bold-6e" transform="translate(2646.632812 0)"/>
     <use xlink:href="#MicrosoftYaHei-Bold-65" transform="translate(2711.427734 0)"/>
    </g>
   </g>
   <g id="text_3">
    <!-- but in persistent effort and effective strategies. -->
    <g style="fill: #2c3e50" transform="translate(87.276562 62.64) scale(0.12 -0.12)">
     <defs>
      <path id="MicrosoftYaHei-Bold-66" d="M 2653 4338 
Q 2447 4419 2263 4419 
Q 1744 4419 1744 3844 
L 1744 3456 
L 2531 3456 
L 2531 2703 
L 1744 2703 
L 1744 0 
L 734 0 
L 734 2703 
L 156 2703 
L 156 3456 
L 734 3456 
L 734 3900 
Q 734 4491 1118 4844 
Q 1503 5197 2128 5197 
Q 2447 5197 2653 5131 
L 2653 4338 
z
" transform="scale(0.015625)"/>
      <path id="MicrosoftYaHei-Bold-2e" d="M 313 453 
Q 313 688 491 838 
Q 669 988 916 988 
Q 1166 988 1337 834 
Q 1509 681 1509 453 
Q 1509 213 1337 64 
Q 1166 -84 903 -84 
Q 659 -84 486 69 
Q 313 222 313 453 
z
" transform="scale(0.015625)"/>
     </defs>
     <use xlink:href="#MicrosoftYaHei-Bold-62"/>
     <use xlink:href="#MicrosoftYaHei-Bold-75" transform="translate(66.601562 0)"/>
     <use xlink:href="#MicrosoftYaHei-Bold-74" transform="translate(131.396484 0)"/>
     <use xlink:href="#MicrosoftYaHei-Bold-20" transform="translate(172.802734 0)"/>
     <use xlink:href="#MicrosoftYaHei-Bold-69" transform="translate(202.587891 0)"/>
     <use xlink:href="#MicrosoftYaHei-Bold-6e" transform="translate(232.177734 0)"/>
     <use xlink:href="#MicrosoftYaHei-Bold-20" transform="translate(296.972656 0)"/>
     <use xlink:href="#MicrosoftYaHei-Bold-70" transform="translate(326.757812 0)"/>
     <use xlink:href="#MicrosoftYaHei-Bold-65" transform="translate(393.359375 0)"/>
     <use xlink:href="#MicrosoftYaHei-Bold-72" transform="translate(451.5625 0)"/>
     <use xlink:href="#MicrosoftYaHei-Bold-73" transform="translate(494.570312 0)"/>
     <use xlink:href="#MicrosoftYaHei-Bold-69" transform="translate(543.935547 0)"/>
     <use xlink:href="#MicrosoftYaHei-Bold-73" transform="translate(573.525391 0)"/>
     <use xlink:href="#MicrosoftYaHei-Bold-74" transform="translate(622.890625 0)"/>
     <use xlink:href="#MicrosoftYaHei-Bold-65" transform="translate(663.796875 0)"/>
     <use xlink:href="#MicrosoftYaHei-Bold-6e" transform="translate(722 0)"/>
     <use xlink:href="#MicrosoftYaHei-Bold-74" transform="translate(786.794922 0)"/>
     <use xlink:href="#MicrosoftYaHei-Bold-20" transform="translate(828.201172 0)"/>
     <use xlink:href="#MicrosoftYaHei-Bold-65" transform="translate(857.986328 0)"/>
     <use xlink:href="#MicrosoftYaHei-Bold-66" transform="translate(916.189453 0)"/>
     <use xlink:href="#MicrosoftYaHei-Bold-66" transform="translate(956.716797 0)"/>
     <use xlink:href="#MicrosoftYaHei-Bold-6f" transform="translate(997.244141 0)"/>
     <use xlink:href="#MicrosoftYaHei-Bold-72" transform="translate(1062.966797 0)"/>
     <use xlink:href="#MicrosoftYaHei-Bold-74" transform="translate(1108.474609 0)"/>
     <use xlink:href="#MicrosoftYaHei-Bold-20" transform="translate(1149.880859 0)"/>
     <use xlink:href="#MicrosoftYaHei-Bold-61" transform="translate(1179.666016 0)"/>
     <use xlink:href="#MicrosoftYaHei-Bold-6e" transform="translate(1237.429688 0)"/>
     <use xlink:href="#MicrosoftYaHei-Bold-64" transform="translate(1302.224609 0)"/>
     <use xlink:href="#MicrosoftYaHei-Bold-20" transform="translate(1368.679688 0)"/>
     <use xlink:href="#MicrosoftYaHei-Bold-65" transform="translate(1398.464844 0)"/>
     <use xlink:href="#MicrosoftYaHei-Bold-66" transform="translate(1456.667969 0)"/>
     <use xlink:href="#MicrosoftYaHei-Bold-66" transform="translate(1497.195312 0)"/>
     <use xlink:href="#MicrosoftYaHei-Bold-65" transform="translate(1537.722656 0)"/>
     <use xlink:href="#MicrosoftYaHei-Bold-63" transform="translate(1595.925781 0)"/>
     <use xlink:href="#MicrosoftYaHei-Bold-74" transform="translate(1647.585938 0)"/>
     <use xlink:href="#MicrosoftYaHei-Bold-69" transform="translate(1688.992188 0)"/>
     <use xlink:href="#MicrosoftYaHei-Bold-76" transform="translate(1718.582031 0)"/>
     <use xlink:href="#MicrosoftYaHei-Bold-65" transform="translate(1775.171875 0)"/>
     <use xlink:href="#MicrosoftYaHei-Bold-20" transform="translate(1833.375 0)"/>
     <use xlink:href="#MicrosoftYaHei-Bold-73" transform="translate(1863.160156 0)"/>
     <use xlink:href="#MicrosoftYaHei-Bold-74" transform="translate(1912.525391 0)"/>
     <use xlink:href="#MicrosoftYaHei-Bold-72" transform="translate(1953.931641 0)"/>
     <use xlink:href="#MicrosoftYaHei-Bold-61" transform="translate(1996.314453 0)"/>
     <use xlink:href="#MicrosoftYaHei-Bold-74" transform="translate(2054.078125 0)"/>
     <use xlink:href="#MicrosoftYaHei-Bold-65" transform="translate(2094.984375 0)"/>
     <use xlink:href="#MicrosoftYaHei-Bold-67" transform="translate(2153.1875 0)"/>
     <use xlink:href="#MicrosoftYaHei-Bold-69" transform="translate(2219.642578 0)"/>
     <use xlink:href="#MicrosoftYaHei-Bold-65" transform="translate(2249.232422 0)"/>
     <use xlink:href="#MicrosoftYaHei-Bold-73" transform="translate(2307.435547 0)"/>
     <use xlink:href="#MicrosoftYaHei-Bold-2e" transform="translate(2356.800781 0)"/>
    </g>
   </g>
   <g id="text_4">
    <g id="patch_2">
     <path d="M 24.699766 94.173047 
L 78.980234 94.173047 
Q 80.680234 94.173047 80.680234 92.473047 
L 80.680234 83.565313 
Q 80.680234 81.865313 78.980234 81.865313 
L 24.699766 81.865313 
Q 22.999766 81.865313 22.999766 83.565313 
L 22.999766 92.473047 
Q 22.999766 94.173047 24.699766 94.173047 
z
" style="fill: #ffffff; opacity: 0.8; stroke: #e74c3c; stroke-linejoin: miter"/>
    </g>
    <!-- The research -->
    <g style="fill: #e74c3c" transform="translate(24.699766 90.36) scale(0.085 -0.085)">
     <use xlink:href="#MicrosoftYaHei-Bold-54"/>
     <use xlink:href="#MicrosoftYaHei-Bold-68" transform="translate(62.548828 0)"/>
     <use xlink:href="#MicrosoftYaHei-Bold-65" transform="translate(127.099609 0)"/>
     <use xlink:href="#MicrosoftYaHei-Bold-20" transform="translate(185.302734 0)"/>
     <use xlink:href="#MicrosoftYaHei-Bold-72" transform="translate(215.087891 0)"/>
     <use xlink:href="#MicrosoftYaHei-Bold-65" transform="translate(256.970703 0)"/>
     <use xlink:href="#MicrosoftYaHei-Bold-73" transform="translate(315.173828 0)"/>
     <use xlink:href="#MicrosoftYaHei-Bold-65" transform="translate(364.539062 0)"/>
     <use xlink:href="#MicrosoftYaHei-Bold-61" transform="translate(422.742188 0)"/>
     <use xlink:href="#MicrosoftYaHei-Bold-72" transform="translate(480.505859 0)"/>
     <use xlink:href="#MicrosoftYaHei-Bold-63" transform="translate(522.388672 0)"/>
     <use xlink:href="#MicrosoftYaHei-Bold-68" transform="translate(574.048828 0)"/>
    </g>
   </g>
   <g id="text_5">
    <!-- Subject (S) -->
    <g style="fill: #e74c3c" transform="translate(31.557188 127.32) scale(0.075 -0.075)">
     <defs>
      <path id="MicrosoftYaHei-Bold-53" d="M 338 1219 
Q 922 734 1666 734 
Q 2088 734 2300 879 
Q 2513 1025 2513 1253 
Q 2513 1450 2344 1625 
Q 2175 1800 1453 2100 
Q 319 2581 319 3500 
Q 319 4175 833 4548 
Q 1347 4922 2194 4922 
Q 2903 4922 3384 4738 
L 3384 3769 
Q 2897 4100 2244 4100 
Q 1863 4100 1634 3961 
Q 1406 3822 1406 3588 
Q 1406 3400 1562 3242 
Q 1719 3084 2334 2816 
Q 3056 2506 3326 2162 
Q 3597 1819 3597 1344 
Q 3597 647 3103 281 
Q 2609 -84 1700 -84 
Q 869 -84 338 184 
L 338 1219 
z
" transform="scale(0.015625)"/>
      <path id="MicrosoftYaHei-Bold-6a" d="M 391 4572 
Q 391 4803 555 4948 
Q 719 5094 975 5094 
Q 1238 5094 1400 4945 
Q 1563 4797 1563 4572 
Q 1563 4344 1397 4192 
Q 1231 4041 975 4041 
Q 722 4041 556 4194 
Q 391 4347 391 4572 
z
M 1472 69 
Q 1472 -753 1105 -1187 
Q 738 -1622 31 -1622 
Q -197 -1622 -472 -1522 
L -472 -722 
Q -244 -847 -66 -847 
Q 466 -847 466 -9 
L 466 3456 
L 1472 3456 
L 1472 69 
z
" transform="scale(0.015625)"/>
      <path id="MicrosoftYaHei-Bold-28" d="M 1606 -1100 
Q 525 97 525 1853 
Q 525 3550 1606 4841 
L 2431 4841 
Q 1406 3497 1406 1853 
Q 1406 216 2438 -1100 
L 1606 -1100 
z
" transform="scale(0.015625)"/>
      <path id="MicrosoftYaHei-Bold-29" d="M 59 -1100 
Q 1097 216 1097 1853 
Q 1097 3484 59 4841 
L 888 4841 
Q 1978 3544 1978 1853 
Q 1978 113 881 -1100 
L 59 -1100 
z
" transform="scale(0.015625)"/>
     </defs>
     <use xlink:href="#MicrosoftYaHei-Bold-53"/>
     <use xlink:href="#MicrosoftYaHei-Bold-75" transform="translate(60.15625 0)"/>
     <use xlink:href="#MicrosoftYaHei-Bold-62" transform="translate(124.951172 0)"/>
     <use xlink:href="#MicrosoftYaHei-Bold-6a" transform="translate(191.552734 0)"/>
     <use xlink:href="#MicrosoftYaHei-Bold-65" transform="translate(221.728516 0)"/>
     <use xlink:href="#MicrosoftYaHei-Bold-63" transform="translate(279.931641 0)"/>
     <use xlink:href="#MicrosoftYaHei-Bold-74" transform="translate(331.591797 0)"/>
     <use xlink:href="#MicrosoftYaHei-Bold-20" transform="translate(372.998047 0)"/>
     <use xlink:href="#MicrosoftYaHei-Bold-28" transform="translate(402.783203 0)"/>
     <use xlink:href="#MicrosoftYaHei-Bold-53" transform="translate(441.748047 0)"/>
     <use xlink:href="#MicrosoftYaHei-Bold-29" transform="translate(501.904297 0)"/>
    </g>
   </g>
   <g id="text_6">
    <g id="patch_3">
     <path d="M 89.670109 94.173047 
L 210.425891 94.173047 
Q 212.125891 94.173047 212.125891 92.473047 
L 212.125891 83.565313 
Q 212.125891 81.865313 210.425891 81.865313 
L 89.670109 81.865313 
Q 87.970109 81.865313 87.970109 83.565313 
L 87.970109 92.473047 
Q 87.970109 94.173047 89.670109 94.173047 
z
" style="fill: #ffffff; opacity: 0.8; stroke: #2980b9; stroke-linejoin: miter"/>
    </g>
    <!-- which has been conducted... -->
    <g style="fill: #2980b9" transform="translate(89.670109 90.36) scale(0.085 -0.085)">
     <use xlink:href="#MicrosoftYaHei-Bold-77"/>
     <use xlink:href="#MicrosoftYaHei-Bold-68" transform="translate(85.15625 0)"/>
     <use xlink:href="#MicrosoftYaHei-Bold-69" transform="translate(149.707031 0)"/>
     <use xlink:href="#MicrosoftYaHei-Bold-63" transform="translate(179.296875 0)"/>
     <use xlink:href="#MicrosoftYaHei-Bold-68" transform="translate(230.957031 0)"/>
     <use xlink:href="#MicrosoftYaHei-Bold-20" transform="translate(295.507812 0)"/>
     <use xlink:href="#MicrosoftYaHei-Bold-68" transform="translate(325.292969 0)"/>
     <use xlink:href="#MicrosoftYaHei-Bold-61" transform="translate(389.84375 0)"/>
     <use xlink:href="#MicrosoftYaHei-Bold-73" transform="translate(447.607422 0)"/>
     <use xlink:href="#MicrosoftYaHei-Bold-20" transform="translate(496.972656 0)"/>
     <use xlink:href="#MicrosoftYaHei-Bold-62" transform="translate(526.757812 0)"/>
     <use xlink:href="#MicrosoftYaHei-Bold-65" transform="translate(593.359375 0)"/>
     <use xlink:href="#MicrosoftYaHei-Bold-65" transform="translate(651.5625 0)"/>
     <use xlink:href="#MicrosoftYaHei-Bold-6e" transform="translate(709.765625 0)"/>
     <use xlink:href="#MicrosoftYaHei-Bold-20" transform="translate(774.560547 0)"/>
     <use xlink:href="#MicrosoftYaHei-Bold-63" transform="translate(804.345703 0)"/>
     <use xlink:href="#MicrosoftYaHei-Bold-6f" transform="translate(856.005859 0)"/>
     <use xlink:href="#MicrosoftYaHei-Bold-6e" transform="translate(921.728516 0)"/>
     <use xlink:href="#MicrosoftYaHei-Bold-64" transform="translate(986.523438 0)"/>
     <use xlink:href="#MicrosoftYaHei-Bold-75" transform="translate(1052.978516 0)"/>
     <use xlink:href="#MicrosoftYaHei-Bold-63" transform="translate(1117.773438 0)"/>
     <use xlink:href="#MicrosoftYaHei-Bold-74" transform="translate(1169.433594 0)"/>
     <use xlink:href="#MicrosoftYaHei-Bold-65" transform="translate(1210.339844 0)"/>
     <use xlink:href="#MicrosoftYaHei-Bold-64" transform="translate(1268.542969 0)"/>
     <use xlink:href="#MicrosoftYaHei-Bold-2e" transform="translate(1334.998047 0)"/>
     <use xlink:href="#MicrosoftYaHei-Bold-2e" transform="translate(1363.5625 0)"/>
     <use xlink:href="#MicrosoftYaHei-Bold-2e" transform="translate(1392.126953 0)"/>
    </g>
   </g>
   <g id="text_7">
    <!-- Attributive clause -->
    <g style="fill: #2980b9" transform="translate(116.795461 127.32) scale(0.075 -0.075)">
     <defs>
      <path id="MicrosoftYaHei-Bold-41" d="M 4759 0 
L 3634 0 
L 3272 1109 
L 1513 1109 
L 1156 0 
L 38 0 
L 1809 4841 
L 3022 4841 
L 4759 0 
z
M 3028 1906 
L 2478 3584 
Q 2425 3744 2403 4006 
L 2375 4006 
Q 2356 3794 2291 3597 
L 1738 1906 
L 3028 1906 
z
" transform="scale(0.015625)"/>
     </defs>
     <use xlink:href="#MicrosoftYaHei-Bold-41"/>
     <use xlink:href="#MicrosoftYaHei-Bold-74" transform="translate(73.195312 0)"/>
     <use xlink:href="#MicrosoftYaHei-Bold-74" transform="translate(114.601562 0)"/>
     <use xlink:href="#MicrosoftYaHei-Bold-72" transform="translate(156.007812 0)"/>
     <use xlink:href="#MicrosoftYaHei-Bold-69" transform="translate(198.765625 0)"/>
     <use xlink:href="#MicrosoftYaHei-Bold-62" transform="translate(228.355469 0)"/>
     <use xlink:href="#MicrosoftYaHei-Bold-75" transform="translate(294.957031 0)"/>
     <use xlink:href="#MicrosoftYaHei-Bold-74" transform="translate(359.751953 0)"/>
     <use xlink:href="#MicrosoftYaHei-Bold-69" transform="translate(401.158203 0)"/>
     <use xlink:href="#MicrosoftYaHei-Bold-76" transform="translate(430.748047 0)"/>
     <use xlink:href="#MicrosoftYaHei-Bold-65" transform="translate(487.337891 0)"/>
     <use xlink:href="#MicrosoftYaHei-Bold-20" transform="translate(545.541016 0)"/>
     <use xlink:href="#MicrosoftYaHei-Bold-63" transform="translate(575.326172 0)"/>
     <use xlink:href="#MicrosoftYaHei-Bold-6c" transform="translate(626.986328 0)"/>
     <use xlink:href="#MicrosoftYaHei-Bold-61" transform="translate(656.576172 0)"/>
     <use xlink:href="#MicrosoftYaHei-Bold-75" transform="translate(714.339844 0)"/>
     <use xlink:href="#MicrosoftYaHei-Bold-73" transform="translate(779.134766 0)"/>
     <use xlink:href="#MicrosoftYaHei-Bold-65" transform="translate(828.5 0)"/>
    </g>
   </g>
   <g id="text_8">
    <g id="patch_4">
     <path d="M 278.430898 94.214219 
L 316.289102 94.214219 
Q 317.989102 94.214219 317.989102 92.514219 
L 317.989102 83.606484 
Q 317.989102 81.906484 316.289102 81.906484 
L 278.430898 81.906484 
Q 276.730898 81.906484 276.730898 83.606484 
L 276.730898 92.514219 
Q 276.730898 94.214219 278.430898 94.214219 
z
" style="fill: #ffffff; opacity: 0.8; stroke: #27ae60; stroke-linejoin: miter"/>
    </g>
    <!-- suggests -->
    <g style="fill: #27ae60" transform="translate(278.430898 90.36) scale(0.085 -0.085)">
     <use xlink:href="#MicrosoftYaHei-Bold-73"/>
     <use xlink:href="#MicrosoftYaHei-Bold-75" transform="translate(49.365234 0)"/>
     <use xlink:href="#MicrosoftYaHei-Bold-67" transform="translate(114.160156 0)"/>
     <use xlink:href="#MicrosoftYaHei-Bold-67" transform="translate(180.615234 0)"/>
     <use xlink:href="#MicrosoftYaHei-Bold-65" transform="translate(247.070312 0)"/>
     <use xlink:href="#MicrosoftYaHei-Bold-73" transform="translate(305.273438 0)"/>
     <use xlink:href="#MicrosoftYaHei-Bold-74" transform="translate(354.638672 0)"/>
     <use xlink:href="#MicrosoftYaHei-Bold-73" transform="translate(396.044922 0)"/>
    </g>
   </g>
   <g id="text_9">
    <!-- Predicate (V) -->
    <g style="fill: #27ae60" transform="translate(273.000234 127.32) scale(0.075 -0.075)">
     <defs>
      <path id="MicrosoftYaHei-Bold-50" d="M 1591 1688 
L 1591 0 
L 559 0 
L 559 4841 
L 2225 4841 
Q 4031 4841 4031 3309 
Q 4031 2566 3486 2117 
Q 2941 1669 2122 1688 
L 1591 1688 
z
M 1591 4041 
L 1591 2478 
L 2038 2478 
Q 2947 2478 2947 3269 
Q 2947 4041 2047 4041 
L 1591 4041 
z
" transform="scale(0.015625)"/>
      <path id="MicrosoftYaHei-Bold-56" d="M 4541 4841 
L 2859 0 
L 1694 0 
L 34 4841 
L 1147 4841 
L 2194 1419 
Q 2272 1166 2291 941 
L 2309 941 
Q 2334 1172 2416 1431 
L 3463 4841 
L 4541 4841 
z
" transform="scale(0.015625)"/>
     </defs>
     <use xlink:href="#MicrosoftYaHei-Bold-50"/>
     <use xlink:href="#MicrosoftYaHei-Bold-72" transform="translate(65.722656 0)"/>
     <use xlink:href="#MicrosoftYaHei-Bold-65" transform="translate(107.605469 0)"/>
     <use xlink:href="#MicrosoftYaHei-Bold-64" transform="translate(165.808594 0)"/>
     <use xlink:href="#MicrosoftYaHei-Bold-69" transform="translate(232.263672 0)"/>
     <use xlink:href="#MicrosoftYaHei-Bold-63" transform="translate(261.853516 0)"/>
     <use xlink:href="#MicrosoftYaHei-Bold-61" transform="translate(313.513672 0)"/>
     <use xlink:href="#MicrosoftYaHei-Bold-74" transform="translate(371.277344 0)"/>
     <use xlink:href="#MicrosoftYaHei-Bold-65" transform="translate(412.183594 0)"/>
     <use xlink:href="#MicrosoftYaHei-Bold-20" transform="translate(470.386719 0)"/>
     <use xlink:href="#MicrosoftYaHei-Bold-28" transform="translate(500.171875 0)"/>
     <use xlink:href="#MicrosoftYaHei-Bold-56" transform="translate(539.136719 0)"/>
     <use xlink:href="#MicrosoftYaHei-Bold-29" transform="translate(610.621094 0)"/>
    </g>
   </g>
   <g id="text_10">
    <g id="patch_5">
     <path d="M 326.715469 94.214219 
L 401.924531 94.214219 
Q 403.624531 94.214219 403.624531 92.514219 
L 403.624531 83.565313 
Q 403.624531 81.865313 401.924531 81.865313 
L 326.715469 81.865313 
Q 325.015469 81.865313 325.015469 83.565313 
L 325.015469 92.514219 
Q 325.015469 94.214219 326.715469 94.214219 
z
" style="fill: #ffffff; opacity: 0.8; stroke: #f39c12; stroke-linejoin: miter"/>
    </g>
    <!-- that the key lies... -->
    <g style="fill: #f39c12" transform="translate(326.715469 90.36) scale(0.085 -0.085)">
     <use xlink:href="#MicrosoftYaHei-Bold-74"/>
     <use xlink:href="#MicrosoftYaHei-Bold-68" transform="translate(41.40625 0)"/>
     <use xlink:href="#MicrosoftYaHei-Bold-61" transform="translate(105.957031 0)"/>
     <use xlink:href="#MicrosoftYaHei-Bold-74" transform="translate(163.720703 0)"/>
     <use xlink:href="#MicrosoftYaHei-Bold-20" transform="translate(205.126953 0)"/>
     <use xlink:href="#MicrosoftYaHei-Bold-74" transform="translate(234.912109 0)"/>
     <use xlink:href="#MicrosoftYaHei-Bold-68" transform="translate(276.318359 0)"/>
     <use xlink:href="#MicrosoftYaHei-Bold-65" transform="translate(340.869141 0)"/>
     <use xlink:href="#MicrosoftYaHei-Bold-20" transform="translate(399.072266 0)"/>
     <use xlink:href="#MicrosoftYaHei-Bold-6b" transform="translate(428.857422 0)"/>
     <use xlink:href="#MicrosoftYaHei-Bold-65" transform="translate(486.976562 0)"/>
     <use xlink:href="#MicrosoftYaHei-Bold-79" transform="translate(545.179688 0)"/>
     <use xlink:href="#MicrosoftYaHei-Bold-20" transform="translate(602.601562 0)"/>
     <use xlink:href="#MicrosoftYaHei-Bold-6c" transform="translate(632.386719 0)"/>
     <use xlink:href="#MicrosoftYaHei-Bold-69" transform="translate(661.976562 0)"/>
     <use xlink:href="#MicrosoftYaHei-Bold-65" transform="translate(691.566406 0)"/>
     <use xlink:href="#MicrosoftYaHei-Bold-73" transform="translate(749.769531 0)"/>
     <use xlink:href="#MicrosoftYaHei-Bold-2e" transform="translate(799.134766 0)"/>
     <use xlink:href="#MicrosoftYaHei-Bold-2e" transform="translate(827.699219 0)"/>
     <use xlink:href="#MicrosoftYaHei-Bold-2e" transform="translate(856.263672 0)"/>
    </g>
   </g>
   <g id="text_11">
    <!-- Object clause (O) -->
    <g style="fill: #f39c12" transform="translate(332.047148 127.32) scale(0.075 -0.075)">
     <defs>
      <path id="MicrosoftYaHei-Bold-4f" d="M 256 2356 
Q 256 3494 920 4208 
Q 1584 4922 2675 4922 
Q 3713 4922 4345 4231 
Q 4978 3541 4978 2456 
Q 4978 1325 4320 620 
Q 3663 -84 2597 -84 
Q 1556 -84 906 598 
Q 256 1281 256 2356 
z
M 1341 2413 
Q 1341 1706 1681 1257 
Q 2022 809 2616 809 
Q 3222 809 3559 1239 
Q 3897 1669 3897 2394 
Q 3897 3150 3569 3589 
Q 3241 4028 2644 4028 
Q 2038 4028 1689 3578 
Q 1341 3128 1341 2413 
z
" transform="scale(0.015625)"/>
     </defs>
     <use xlink:href="#MicrosoftYaHei-Bold-4f"/>
     <use xlink:href="#MicrosoftYaHei-Bold-62" transform="translate(81.835938 0)"/>
     <use xlink:href="#MicrosoftYaHei-Bold-6a" transform="translate(148.4375 0)"/>
     <use xlink:href="#MicrosoftYaHei-Bold-65" transform="translate(178.613281 0)"/>
     <use xlink:href="#MicrosoftYaHei-Bold-63" transform="translate(236.816406 0)"/>
     <use xlink:href="#MicrosoftYaHei-Bold-74" transform="translate(288.476562 0)"/>
     <use xlink:href="#MicrosoftYaHei-Bold-20" transform="translate(329.882812 0)"/>
     <use xlink:href="#MicrosoftYaHei-Bold-63" transform="translate(359.667969 0)"/>
     <use xlink:href="#MicrosoftYaHei-Bold-6c" transform="translate(411.328125 0)"/>
     <use xlink:href="#MicrosoftYaHei-Bold-61" transform="translate(440.917969 0)"/>
     <use xlink:href="#MicrosoftYaHei-Bold-75" transform="translate(498.681641 0)"/>
     <use xlink:href="#MicrosoftYaHei-Bold-73" transform="translate(563.476562 0)"/>
     <use xlink:href="#MicrosoftYaHei-Bold-65" transform="translate(612.841797 0)"/>
     <use xlink:href="#MicrosoftYaHei-Bold-20" transform="translate(671.044922 0)"/>
     <use xlink:href="#MicrosoftYaHei-Bold-28" transform="translate(700.830078 0)"/>
     <use xlink:href="#MicrosoftYaHei-Bold-4f" transform="translate(739.794922 0)"/>
     <use xlink:href="#MicrosoftYaHei-Bold-29" transform="translate(821.630859 0)"/>
    </g>
   </g>
   <g id="text_12">
    <!-- Sentence core: The research + suggests + that... (SVO structure with attributive clause inserted) -->
    <g style="fill: #888888" transform="translate(25.813125 143.49) scale(0.09 -0.09)">
     <defs>
      <path id="MicrosoftYaHei-53" d="M 400 909 
Q 622 716 994 591 
Q 1366 466 1700 466 
Q 2719 466 2719 1191 
Q 2719 1394 2609 1556 
Q 2500 1719 2309 1844 
Q 2119 1969 1594 2228 
Q 866 2591 634 2902 
Q 403 3213 403 3613 
Q 403 4216 887 4569 
Q 1372 4922 2109 4922 
Q 2831 4922 3169 4747 
L 3169 4066 
Q 2731 4369 2063 4369 
Q 1619 4369 1339 4183 
Q 1059 3997 1059 3666 
Q 1059 3372 1253 3187 
Q 1447 3003 2094 2684 
Q 2806 2344 3090 2003 
Q 3375 1663 3375 1238 
Q 3375 600 2912 259 
Q 2450 -81 1628 -81 
Q 1341 -81 958 -1 
Q 575 78 400 197 
L 400 909 
z
" transform="scale(0.015625)"/>
      <path id="MicrosoftYaHei-65" d="M 3363 1572 
L 944 1572 
Q 959 1019 1246 717 
Q 1534 416 2050 416 
Q 2631 416 3116 788 
L 3116 241 
Q 2659 -81 1906 -81 
Q 1156 -81 736 394 
Q 316 869 316 1713 
Q 316 2506 777 3022 
Q 1238 3538 1922 3538 
Q 2600 3538 2981 3102 
Q 3363 2666 3363 1881 
L 3363 1572 
z
M 2750 2063 
Q 2747 2531 2528 2787 
Q 2309 3044 1913 3044 
Q 1547 3044 1280 2772 
Q 1013 2500 944 2063 
L 2750 2063 
z
" transform="scale(0.015625)"/>
      <path id="MicrosoftYaHei-6e" d="M 3469 0 
L 2859 0 
L 2859 1966 
Q 2859 3031 2081 3031 
Q 1678 3031 1418 2731 
Q 1159 2431 1159 1972 
L 1159 0 
L 547 0 
L 547 3456 
L 1159 3456 
L 1159 2884 
L 1172 2884 
Q 1563 3538 2306 3538 
Q 2875 3538 3172 3173 
Q 3469 2809 3469 2113 
L 3469 0 
z
" transform="scale(0.015625)"/>
      <path id="MicrosoftYaHei-74" d="M 2206 34 
Q 2006 -75 1666 -75 
Q 738 -75 738 953 
L 738 2950 
L 144 2950 
L 144 3456 
L 738 3456 
L 738 4288 
L 1347 4481 
L 1347 3456 
L 2206 3456 
L 2206 2950 
L 1347 2950 
L 1347 1063 
Q 1347 722 1462 575 
Q 1578 428 1847 428 
Q 2053 428 2206 544 
L 2206 34 
z
" transform="scale(0.015625)"/>
      <path id="MicrosoftYaHei-63" d="M 2934 156 
Q 2538 -81 1978 -81 
Q 1228 -81 772 400 
Q 316 881 316 1647 
Q 316 2497 808 3017 
Q 1300 3538 2125 3538 
Q 2600 3538 2938 3369 
L 2938 2763 
Q 2572 3031 2125 3031 
Q 1600 3031 1270 2667 
Q 941 2303 941 1697 
Q 941 1100 1252 762 
Q 1563 425 2091 425 
Q 2538 425 2934 719 
L 2934 156 
z
" transform="scale(0.015625)"/>
      <path id="MicrosoftYaHei-20" transform="scale(0.015625)"/>
      <path id="MicrosoftYaHei-6f" d="M 316 1691 
Q 316 2547 794 3042 
Q 1272 3538 2091 3538 
Q 2869 3538 3311 3061 
Q 3753 2584 3753 1744 
Q 3753 925 3281 422 
Q 2809 -81 2016 -81 
Q 1241 -81 778 406 
Q 316 894 316 1691 
z
M 941 1709 
Q 941 1113 1242 769 
Q 1544 425 2053 425 
Q 2578 425 2853 761 
Q 3128 1097 3128 1725 
Q 3128 2356 2853 2693 
Q 2578 3031 2053 3031 
Q 1538 3031 1239 2678 
Q 941 2325 941 1709 
z
" transform="scale(0.015625)"/>
      <path id="MicrosoftYaHei-72" d="M 2400 2850 
Q 2247 2959 1978 2959 
Q 1622 2959 1390 2626 
Q 1159 2294 1159 1750 
L 1159 0 
L 547 0 
L 547 3456 
L 1159 3456 
L 1159 2753 
L 1172 2753 
Q 1434 3516 2078 3516 
Q 2288 3516 2400 3469 
L 2400 2850 
z
" transform="scale(0.015625)"/>
      <path id="MicrosoftYaHei-3a" d="M 372 3134 
Q 372 3303 490 3415 
Q 609 3528 775 3528 
Q 944 3528 1062 3414 
Q 1181 3300 1181 3134 
Q 1181 2969 1065 2853 
Q 950 2738 772 2738 
Q 603 2738 487 2853 
Q 372 2969 372 3134 
z
M 372 322 
Q 372 491 487 606 
Q 603 722 775 722 
Q 950 722 1065 605 
Q 1181 488 1181 322 
Q 1181 159 1065 42 
Q 950 -75 772 -75 
Q 600 -75 486 42 
Q 372 159 372 322 
z
" transform="scale(0.015625)"/>
      <path id="MicrosoftYaHei-54" d="M 3550 4284 
L 2153 4284 
L 2153 0 
L 1525 0 
L 1525 4284 
L 134 4284 
L 134 4841 
L 3550 4841 
L 3550 4284 
z
" transform="scale(0.015625)"/>
      <path id="MicrosoftYaHei-68" d="M 3466 0 
L 2856 0 
L 2856 1988 
Q 2856 3031 2081 3031 
Q 1684 3031 1421 2726 
Q 1159 2422 1159 1959 
L 1159 0 
L 547 0 
L 547 5116 
L 1159 5116 
L 1159 2888 
L 1172 2888 
Q 1569 3538 2300 3538 
Q 3466 3538 3466 2128 
L 3466 0 
z
" transform="scale(0.015625)"/>
      <path id="MicrosoftYaHei-73" d="M 353 747 
Q 816 413 1350 413 
Q 2066 413 2066 881 
Q 2066 1081 1909 1211 
Q 1753 1341 1275 1519 
Q 700 1750 528 1976 
Q 356 2203 356 2525 
Q 356 2984 745 3261 
Q 1134 3538 1703 3538 
Q 2144 3538 2522 3384 
L 2522 2794 
Q 2134 3044 1644 3044 
Q 1350 3044 1165 2916 
Q 981 2788 981 2578 
Q 981 2372 1114 2256 
Q 1247 2141 1703 1959 
Q 2281 1744 2484 1512 
Q 2688 1281 2688 941 
Q 2688 466 2298 192 
Q 1909 -81 1291 -81 
Q 753 -81 353 122 
L 353 747 
z
" transform="scale(0.015625)"/>
      <path id="MicrosoftYaHei-61" d="M 628 3216 
Q 1144 3538 1819 3538 
Q 3069 3538 3069 2225 
L 3069 0 
L 2463 0 
L 2463 534 
L 2447 534 
Q 2088 -81 1388 -81 
Q 884 -81 587 191 
Q 291 463 291 925 
Q 291 1894 1438 2053 
L 2463 2197 
Q 2463 3044 1763 3044 
Q 1141 3044 628 2625 
L 628 3216 
z
M 1653 1625 
Q 1228 1569 1067 1412 
Q 906 1256 906 975 
Q 906 728 1081 572 
Q 1256 416 1544 416 
Q 1944 416 2203 697 
Q 2463 978 2463 1403 
L 2463 1734 
L 1653 1625 
z
" transform="scale(0.015625)"/>
      <path id="MicrosoftYaHei-2b" d="M 3972 1772 
L 2613 1772 
L 2613 419 
L 2141 419 
L 2141 1772 
L 788 1772 
L 788 2250 
L 2141 2250 
L 2141 3603 
L 2613 3603 
L 2613 2250 
L 3972 2250 
L 3972 1772 
z
" transform="scale(0.015625)"/>
      <path id="MicrosoftYaHei-75" d="M 3400 0 
L 2784 0 
L 2784 544 
L 2772 544 
Q 2425 -81 1706 -81 
Q 478 -81 478 1388 
L 478 3456 
L 1084 3456 
L 1084 1478 
Q 1084 425 1891 425 
Q 2291 425 2537 720 
Q 2784 1016 2784 1466 
L 2784 3456 
L 3400 3456 
L 3400 0 
z
" transform="scale(0.015625)"/>
      <path id="MicrosoftYaHei-67" d="M 3547 291 
Q 3547 -1628 1684 -1628 
Q 1041 -1628 566 -1388 
L 566 -797 
Q 1144 -1119 1675 -1119 
Q 2934 -1119 2934 206 
L 2934 572 
L 2922 572 
Q 2528 -81 1747 -81 
Q 1097 -81 706 384 
Q 316 850 316 1619 
Q 316 2503 747 3020 
Q 1178 3538 1897 3538 
Q 2588 3538 2922 2988 
L 2934 2988 
L 2934 3456 
L 3547 3456 
L 3547 291 
z
M 2934 2056 
Q 2938 2456 2666 2743 
Q 2394 3031 1997 3031 
Q 1497 3031 1219 2664 
Q 941 2297 941 1656 
Q 941 1106 1209 765 
Q 1478 425 1922 425 
Q 2369 425 2653 750 
Q 2938 1075 2934 1575 
L 2934 2056 
z
" transform="scale(0.015625)"/>
      <path id="MicrosoftYaHei-2e" d="M 372 322 
Q 372 491 487 606 
Q 603 722 775 722 
Q 950 722 1065 605 
Q 1181 488 1181 322 
Q 1181 159 1065 42 
Q 950 -75 772 -75 
Q 600 -75 486 42 
Q 372 159 372 322 
z
" transform="scale(0.015625)"/>
      <path id="MicrosoftYaHei-28" d="M 1531 -1100 
Q 478 100 478 1847 
Q 478 3594 1531 4841 
L 2072 4841 
Q 1016 3544 1016 1853 
Q 1016 166 2066 -1100 
L 1531 -1100 
z
" transform="scale(0.015625)"/>
      <path id="MicrosoftYaHei-56" d="M 4272 4841 
L 2494 0 
L 1800 0 
L 56 4841 
L 750 4841 
L 2053 1056 
Q 2119 869 2150 622 
L 2166 622 
Q 2191 838 2275 1063 
L 3603 4841 
L 4272 4841 
z
" transform="scale(0.015625)"/>
      <path id="MicrosoftYaHei-4f" d="M 313 2363 
Q 313 3534 947 4228 
Q 1581 4922 2666 4922 
Q 3675 4922 4290 4244 
Q 4906 3566 4906 2478 
Q 4906 1300 4275 609 
Q 3644 -81 2588 -81 
Q 1556 -81 934 597 
Q 313 1275 313 2363 
z
M 969 2413 
Q 969 1534 1417 1004 
Q 1866 475 2588 475 
Q 3363 475 3805 983 
Q 4247 1491 4247 2403 
Q 4247 3341 3814 3850 
Q 3381 4359 2628 4359 
Q 1888 4359 1428 3821 
Q 969 3284 969 2413 
z
" transform="scale(0.015625)"/>
      <path id="MicrosoftYaHei-77" d="M 4975 3456 
L 3944 0 
L 3306 0 
L 2619 2425 
Q 2575 2581 2563 2756 
L 2550 2756 
Q 2541 2625 2478 2431 
L 1734 0 
L 1116 0 
L 78 3456 
L 716 3456 
L 1406 894 
Q 1438 778 1453 578 
L 1478 578 
Q 1491 750 1538 903 
L 2281 3456 
L 2847 3456 
L 3572 891 
Q 3603 778 3622 572 
L 3650 572 
Q 3656 709 3706 891 
L 4381 3456 
L 4975 3456 
z
" transform="scale(0.015625)"/>
      <path id="MicrosoftYaHei-69" d="M 472 4675 
Q 472 4838 583 4948 
Q 694 5059 856 5059 
Q 1022 5059 1136 4950 
Q 1250 4841 1250 4675 
Q 1250 4513 1136 4405 
Q 1022 4297 856 4297 
Q 691 4297 581 4405 
Q 472 4513 472 4675 
z
M 544 0 
L 544 3456 
L 1156 3456 
L 1156 0 
L 544 0 
z
" transform="scale(0.015625)"/>
      <path id="MicrosoftYaHei-62" d="M 1159 488 
L 1159 0 
L 547 0 
L 547 5116 
L 1159 5116 
L 1159 2859 
L 1172 2859 
Q 1578 3538 2359 3538 
Q 3009 3538 3392 3080 
Q 3775 2622 3775 1828 
Q 3775 953 3345 436 
Q 2916 -81 2200 -81 
Q 1525 -81 1172 488 
L 1159 488 
z
M 1156 1422 
Q 1156 1003 1428 714 
Q 1700 425 2109 425 
Q 2597 425 2872 800 
Q 3147 1175 3147 1838 
Q 3147 2384 2890 2707 
Q 2634 3031 2191 3031 
Q 1741 3031 1448 2709 
Q 1156 2388 1156 1891 
L 1156 1422 
z
" transform="scale(0.015625)"/>
      <path id="MicrosoftYaHei-76" d="M 3331 3456 
L 1963 0 
L 1344 0 
L 44 3456 
L 713 3456 
L 1556 988 
Q 1659 691 1678 491 
L 1694 491 
Q 1725 753 1803 975 
L 2688 3456 
L 3331 3456 
z
" transform="scale(0.015625)"/>
      <path id="MicrosoftYaHei-6c" d="M 544 0 
L 544 5116 
L 1156 5116 
L 1156 0 
L 544 0 
z
" transform="scale(0.015625)"/>
      <path id="MicrosoftYaHei-64" d="M 3547 0 
L 2934 0 
L 2934 575 
L 2922 575 
Q 2544 -81 1747 -81 
Q 1091 -81 703 386 
Q 316 853 316 1647 
Q 316 2503 753 3020 
Q 1191 3538 1897 3538 
Q 2603 3538 2922 2988 
L 2934 2988 
L 2934 5116 
L 3547 5116 
L 3547 0 
z
M 2938 2056 
Q 2938 2472 2664 2751 
Q 2391 3031 1991 3031 
Q 1503 3031 1222 2667 
Q 941 2303 941 1675 
Q 941 1097 1211 761 
Q 1481 425 1931 425 
Q 2375 425 2656 754 
Q 2938 1084 2938 1575 
L 2938 2056 
z
" transform="scale(0.015625)"/>
      <path id="MicrosoftYaHei-29" d="M 78 -1100 
Q 1131 163 1131 1853 
Q 1131 3547 72 4841 
L 616 4841 
Q 1672 3603 1672 1847 
Q 1672 91 616 -1100 
L 78 -1100 
z
" transform="scale(0.015625)"/>
     </defs>
     <use xlink:href="#MicrosoftYaHei-53"/>
     <use xlink:href="#MicrosoftYaHei-65" transform="translate(57.714844 0)"/>
     <use xlink:href="#MicrosoftYaHei-6e" transform="translate(114.453125 0)"/>
     <use xlink:href="#MicrosoftYaHei-74" transform="translate(176.074219 0)"/>
     <use xlink:href="#MicrosoftYaHei-65" transform="translate(212.455078 0)"/>
     <use xlink:href="#MicrosoftYaHei-6e" transform="translate(269.193359 0)"/>
     <use xlink:href="#MicrosoftYaHei-63" transform="translate(330.814453 0)"/>
     <use xlink:href="#MicrosoftYaHei-65" transform="translate(380.960938 0)"/>
     <use xlink:href="#MicrosoftYaHei-20" transform="translate(437.699219 0)"/>
     <use xlink:href="#MicrosoftYaHei-63" transform="translate(467.289062 0)"/>
     <use xlink:href="#MicrosoftYaHei-6f" transform="translate(517.435547 0)"/>
     <use xlink:href="#MicrosoftYaHei-72" transform="translate(581.009766 0)"/>
     <use xlink:href="#MicrosoftYaHei-65" transform="translate(617.818359 0)"/>
     <use xlink:href="#MicrosoftYaHei-3a" transform="translate(674.556641 0)"/>
     <use xlink:href="#MicrosoftYaHei-20" transform="translate(698.628906 0)"/>
     <use xlink:href="#MicrosoftYaHei-54" transform="translate(728.21875 0)"/>
     <use xlink:href="#MicrosoftYaHei-68" transform="translate(785.542969 0)"/>
     <use xlink:href="#MicrosoftYaHei-65" transform="translate(847.115234 0)"/>
     <use xlink:href="#MicrosoftYaHei-20" transform="translate(903.853516 0)"/>
     <use xlink:href="#MicrosoftYaHei-72" transform="translate(933.443359 0)"/>
     <use xlink:href="#MicrosoftYaHei-65" transform="translate(970.251953 0)"/>
     <use xlink:href="#MicrosoftYaHei-73" transform="translate(1026.990234 0)"/>
     <use xlink:href="#MicrosoftYaHei-65" transform="translate(1073.279297 0)"/>
     <use xlink:href="#MicrosoftYaHei-61" transform="translate(1130.017578 0)"/>
     <use xlink:href="#MicrosoftYaHei-72" transform="translate(1185.291016 0)"/>
     <use xlink:href="#MicrosoftYaHei-63" transform="translate(1222.099609 0)"/>
     <use xlink:href="#MicrosoftYaHei-68" transform="translate(1272.246094 0)"/>
     <use xlink:href="#MicrosoftYaHei-20" transform="translate(1333.818359 0)"/>
     <use xlink:href="#MicrosoftYaHei-2b" transform="translate(1363.408203 0)"/>
     <use xlink:href="#MicrosoftYaHei-20" transform="translate(1437.578125 0)"/>
     <use xlink:href="#MicrosoftYaHei-73" transform="translate(1467.167969 0)"/>
     <use xlink:href="#MicrosoftYaHei-75" transform="translate(1513.457031 0)"/>
     <use xlink:href="#MicrosoftYaHei-67" transform="translate(1575.078125 0)"/>
     <use xlink:href="#MicrosoftYaHei-67" transform="translate(1639.042969 0)"/>
     <use xlink:href="#MicrosoftYaHei-65" transform="translate(1703.007812 0)"/>
     <use xlink:href="#MicrosoftYaHei-73" transform="translate(1759.746094 0)"/>
     <use xlink:href="#MicrosoftYaHei-74" transform="translate(1806.035156 0)"/>
     <use xlink:href="#MicrosoftYaHei-73" transform="translate(1843.291016 0)"/>
     <use xlink:href="#MicrosoftYaHei-20" transform="translate(1889.580078 0)"/>
     <use xlink:href="#MicrosoftYaHei-2b" transform="translate(1919.169922 0)"/>
     <use xlink:href="#MicrosoftYaHei-20" transform="translate(1993.339844 0)"/>
     <use xlink:href="#MicrosoftYaHei-74" transform="translate(2022.929688 0)"/>
     <use xlink:href="#MicrosoftYaHei-68" transform="translate(2060.185547 0)"/>
     <use xlink:href="#MicrosoftYaHei-61" transform="translate(2121.757812 0)"/>
     <use xlink:href="#MicrosoftYaHei-74" transform="translate(2177.03125 0)"/>
     <use xlink:href="#MicrosoftYaHei-2e" transform="translate(2214.287109 0)"/>
     <use xlink:href="#MicrosoftYaHei-2e" transform="translate(2238.359375 0)"/>
     <use xlink:href="#MicrosoftYaHei-2e" transform="translate(2262.431641 0)"/>
     <use xlink:href="#MicrosoftYaHei-20" transform="translate(2286.503906 0)"/>
     <use xlink:href="#MicrosoftYaHei-28" transform="translate(2316.09375 0)"/>
     <use xlink:href="#MicrosoftYaHei-53" transform="translate(2349.492188 0)"/>
     <use xlink:href="#MicrosoftYaHei-56" transform="translate(2407.207031 0)"/>
     <use xlink:href="#MicrosoftYaHei-4f" transform="translate(2474.208984 0)"/>
     <use xlink:href="#MicrosoftYaHei-20" transform="translate(2555.703125 0)"/>
     <use xlink:href="#MicrosoftYaHei-73" transform="translate(2585.292969 0)"/>
     <use xlink:href="#MicrosoftYaHei-74" transform="translate(2631.582031 0)"/>
     <use xlink:href="#MicrosoftYaHei-72" transform="translate(2668.837891 0)"/>
     <use xlink:href="#MicrosoftYaHei-75" transform="translate(2707.021484 0)"/>
     <use xlink:href="#MicrosoftYaHei-63" transform="translate(2768.642578 0)"/>
     <use xlink:href="#MicrosoftYaHei-74" transform="translate(2818.789062 0)"/>
     <use xlink:href="#MicrosoftYaHei-75" transform="translate(2856.044922 0)"/>
     <use xlink:href="#MicrosoftYaHei-72" transform="translate(2917.666016 0)"/>
     <use xlink:href="#MicrosoftYaHei-65" transform="translate(2954.474609 0)"/>
     <use xlink:href="#MicrosoftYaHei-20" transform="translate(3011.212891 0)"/>
     <use xlink:href="#MicrosoftYaHei-77" transform="translate(3040.802734 0)"/>
     <use xlink:href="#MicrosoftYaHei-69" transform="translate(3119.757812 0)"/>
     <use xlink:href="#MicrosoftYaHei-74" transform="translate(3146.369141 0)"/>
     <use xlink:href="#MicrosoftYaHei-68" transform="translate(3183.625 0)"/>
     <use xlink:href="#MicrosoftYaHei-20" transform="translate(3245.197266 0)"/>
     <use xlink:href="#MicrosoftYaHei-61" transform="translate(3274.787109 0)"/>
     <use xlink:href="#MicrosoftYaHei-74" transform="translate(3330.060547 0)"/>
     <use xlink:href="#MicrosoftYaHei-74" transform="translate(3367.316406 0)"/>
     <use xlink:href="#MicrosoftYaHei-72" transform="translate(3404.572266 0)"/>
     <use xlink:href="#MicrosoftYaHei-69" transform="translate(3442.755859 0)"/>
     <use xlink:href="#MicrosoftYaHei-62" transform="translate(3469.367188 0)"/>
     <use xlink:href="#MicrosoftYaHei-75" transform="translate(3533.234375 0)"/>
     <use xlink:href="#MicrosoftYaHei-74" transform="translate(3594.855469 0)"/>
     <use xlink:href="#MicrosoftYaHei-69" transform="translate(3632.111328 0)"/>
     <use xlink:href="#MicrosoftYaHei-76" transform="translate(3658.722656 0)"/>
     <use xlink:href="#MicrosoftYaHei-65" transform="translate(3710.587891 0)"/>
     <use xlink:href="#MicrosoftYaHei-20" transform="translate(3767.326172 0)"/>
     <use xlink:href="#MicrosoftYaHei-63" transform="translate(3796.916016 0)"/>
     <use xlink:href="#MicrosoftYaHei-6c" transform="translate(3847.0625 0)"/>
     <use xlink:href="#MicrosoftYaHei-61" transform="translate(3873.673828 0)"/>
     <use xlink:href="#MicrosoftYaHei-75" transform="translate(3928.947266 0)"/>
     <use xlink:href="#MicrosoftYaHei-73" transform="translate(3990.568359 0)"/>
     <use xlink:href="#MicrosoftYaHei-65" transform="translate(4036.857422 0)"/>
     <use xlink:href="#MicrosoftYaHei-20" transform="translate(4093.595703 0)"/>
     <use xlink:href="#MicrosoftYaHei-69" transform="translate(4123.185547 0)"/>
     <use xlink:href="#MicrosoftYaHei-6e" transform="translate(4149.796875 0)"/>
     <use xlink:href="#MicrosoftYaHei-73" transform="translate(4211.417969 0)"/>
     <use xlink:href="#MicrosoftYaHei-65" transform="translate(4257.707031 0)"/>
     <use xlink:href="#MicrosoftYaHei-72" transform="translate(4314.445312 0)"/>
     <use xlink:href="#MicrosoftYaHei-74" transform="translate(4355.753906 0)"/>
     <use xlink:href="#MicrosoftYaHei-65" transform="translate(4392.134766 0)"/>
     <use xlink:href="#MicrosoftYaHei-64" transform="translate(4448.873047 0)"/>
     <use xlink:href="#MicrosoftYaHei-29" transform="translate(4512.837891 0)"/>
    </g>
   </g>
  </g>
 </g>
 <defs>
  <clipPath id="p905c80f8b2">
   <rect x="7.2" y="7.2" width="446.4" height="138.6"/>
  </clipPath>
 </defs>
</svg>
