<?xml version="1.0" encoding="utf-8" standalone="no"?>
<!DOCTYPE svg PUBLIC "-//W3C//DTD SVG 1.1//EN"
  "http://www.w3.org/Graphics/SVG/1.1/DTD/svg11.dtd">
<svg xmlns:xlink="http://www.w3.org/1999/xlink" width="425.044062pt" height="279.438594pt" viewBox="0 0 425.044062 279.438594" xmlns="http://www.w3.org/2000/svg" version="1.1">
 <metadata>
  <rdf:RDF xmlns:dc="http://purl.org/dc/elements/1.1/" xmlns:cc="http://creativecommons.org/ns#" xmlns:rdf="http://www.w3.org/1999/02/22-rdf-syntax-ns#">
   <cc:Work>
    <dc:type rdf:resource="http://purl.org/dc/dcmitype/StillImage"/>
    <dc:date>2026-05-25T22:33:52.798606</dc:date>
    <dc:format>image/svg+xml</dc:format>
    <dc:creator>
     <cc:Agent>
      <dc:title>Matplotlib v3.10.9, https://matplotlib.org/</dc:title>
     </cc:Agent>
    </dc:creator>
   </cc:Work>
  </rdf:RDF>
 </metadata>
 <defs>
  <style type="text/css">*{stroke-linejoin: round; stroke-linecap: butt}</style>
 </defs>
 <g id="figure_1">
  <g id="patch_1">
   <path d="M 0 279.438594 
L 425.044062 279.438594 
L 425.044062 0 
L 0 0 
z
" style="fill: #ffffff"/>
  </g>
  <g id="axes_1">
   <g id="patch_2">
    <path d="M 71.85 239.23125 
L 411.98 239.23125 
L 411.98 28.39125 
L 71.85 28.39125 
z
" style="fill: #ffffff"/>
   </g>
   <g id="patch_3">
    <path d="M 71.85 229.647614 
L 343.954 229.647614 
L 343.954 213.361696 
L 71.85 213.361696 
z
" clip-path="url(#p4827f5568b)" style="fill: #2980b9; stroke: #ffffff; stroke-linejoin: miter"/>
   </g>
   <g id="patch_4">
    <path d="M 71.85 204.592355 
L 188.466 204.592355 
L 188.466 188.306437 
L 71.85 188.306437 
z
" clip-path="url(#p4827f5568b)" style="fill: #3498db; stroke: #ffffff; stroke-linejoin: miter"/>
   </g>
   <g id="patch_5">
    <path d="M 71.85 179.537097 
L 246.774 179.537097 
L 246.774 163.251179 
L 71.85 163.251179 
z
" clip-path="url(#p4827f5568b)" style="fill: #5dade2; stroke: #ffffff; stroke-linejoin: miter"/>
   </g>
   <g id="patch_6">
    <path d="M 71.85 154.481838 
L 149.594 154.481838 
L 149.594 138.19592 
L 71.85 138.19592 
z
" clip-path="url(#p4827f5568b)" style="fill: #85c1e9; stroke: #ffffff; stroke-linejoin: miter"/>
   </g>
   <g id="patch_7">
    <path d="M 71.85 129.42658 
L 207.902 129.42658 
L 207.902 113.140662 
L 71.85 113.140662 
z
" clip-path="url(#p4827f5568b)" style="fill: #aed6f1; stroke: #ffffff; stroke-linejoin: miter"/>
   </g>
   <g id="patch_8">
    <path d="M 71.85 104.371321 
L 169.03 104.371321 
L 169.03 88.085403 
L 71.85 88.085403 
z
" clip-path="url(#p4827f5568b)" style="fill: #1a5276; stroke: #ffffff; stroke-linejoin: miter"/>
   </g>
   <g id="patch_9">
    <path d="M 71.85 79.316063 
L 120.44 79.316063 
L 120.44 63.030145 
L 71.85 63.030145 
z
" clip-path="url(#p4827f5568b)" style="fill: #2e86c1; stroke: #ffffff; stroke-linejoin: miter"/>
   </g>
   <g id="patch_10">
    <path d="M 71.85 54.260804 
L 120.44 54.260804 
L 120.44 37.974886 
L 71.85 37.974886 
z
" clip-path="url(#p4827f5568b)" style="fill: #7fb3d8; stroke: #ffffff; stroke-linejoin: miter"/>
   </g>
   <g id="matplotlib.axis_1">
    <g id="xtick_1">
     <g id="line2d_1">
      <defs>
       <path id="ma345f48ab2" d="M 0 0 
L 0 3.5 
" style="stroke: #000000; stroke-width: 0.8"/>
      </defs>
      <g>
       <use xlink:href="#ma345f48ab2" x="71.85" y="239.23125" style="stroke: #000000; stroke-width: 0.8"/>
      </g>
     </g>
     <g id="text_1">
      <!-- 0 -->
      <g transform="translate(68.917969 254.225) scale(0.1 -0.1)">
       <defs>
        <path id="MicrosoftYaHei-30" d="M 284 2325 
Q 284 3606 709 4264 
Q 1134 4922 1941 4922 
Q 3478 4922 3478 2441 
Q 3478 1216 3045 567 
Q 2613 -81 1831 -81 
Q 1094 -81 689 534 
Q 284 1150 284 2325 
z
M 909 2353 
Q 909 425 1888 425 
Q 2850 425 2850 2384 
Q 2850 4413 1906 4413 
Q 909 4413 909 2353 
z
" transform="scale(0.015625)"/>
       </defs>
       <use xlink:href="#MicrosoftYaHei-30"/>
      </g>
     </g>
    </g>
    <g id="xtick_2">
     <g id="line2d_2">
      <g>
       <use xlink:href="#ma345f48ab2" x="120.44" y="239.23125" style="stroke: #000000; stroke-width: 0.8"/>
      </g>
     </g>
     <g id="text_2">
      <!-- 5 -->
      <g transform="translate(117.507969 254.225) scale(0.1 -0.1)">
       <defs>
        <path id="MicrosoftYaHei-35" d="M 3294 1494 
Q 3294 784 2823 350 
Q 2353 -84 1559 -84 
Q 878 -84 544 119 
L 544 744 
Q 1034 425 1544 425 
Q 2050 425 2361 704 
Q 2672 984 2672 1447 
Q 2672 1909 2348 2167 
Q 2025 2425 1434 2425 
Q 978 2425 613 2384 
L 791 4841 
L 3053 4841 
L 3053 4303 
L 1306 4303 
L 1206 2931 
L 1647 2950 
Q 2416 2950 2855 2567 
Q 3294 2184 3294 1494 
z
" transform="scale(0.015625)"/>
       </defs>
       <use xlink:href="#MicrosoftYaHei-35"/>
      </g>
     </g>
    </g>
    <g id="xtick_3">
     <g id="line2d_3">
      <g>
       <use xlink:href="#ma345f48ab2" x="169.03" y="239.23125" style="stroke: #000000; stroke-width: 0.8"/>
      </g>
     </g>
     <g id="text_3">
      <!-- 10 -->
      <g transform="translate(163.165937 254.225) scale(0.1 -0.1)">
       <defs>
        <path id="MicrosoftYaHei-31" d="M 1781 0 
L 1781 4141 
Q 1638 3997 1295 3819 
Q 953 3641 663 3569 
L 663 4169 
Q 1047 4275 1484 4508 
Q 1922 4741 2156 4947 
L 2388 4947 
L 2388 0 
L 1781 0 
z
" transform="scale(0.015625)"/>
       </defs>
       <use xlink:href="#MicrosoftYaHei-31"/>
       <use xlink:href="#MicrosoftYaHei-30" transform="translate(58.642578 0)"/>
      </g>
     </g>
    </g>
    <g id="xtick_4">
     <g id="line2d_4">
      <g>
       <use xlink:href="#ma345f48ab2" x="217.62" y="239.23125" style="stroke: #000000; stroke-width: 0.8"/>
      </g>
     </g>
     <g id="text_4">
      <!-- 15 -->
      <g transform="translate(211.755938 254.225) scale(0.1 -0.1)">
       <use xlink:href="#MicrosoftYaHei-31"/>
       <use xlink:href="#MicrosoftYaHei-35" transform="translate(58.642578 0)"/>
      </g>
     </g>
    </g>
    <g id="xtick_5">
     <g id="line2d_5">
      <g>
       <use xlink:href="#ma345f48ab2" x="266.21" y="239.23125" style="stroke: #000000; stroke-width: 0.8"/>
      </g>
     </g>
     <g id="text_5">
      <!-- 20 -->
      <g transform="translate(260.345937 254.225) scale(0.1 -0.1)">
       <defs>
        <path id="MicrosoftYaHei-32" d="M 2666 3572 
Q 2666 3963 2419 4186 
Q 2172 4409 1747 4409 
Q 1447 4409 1140 4256 
Q 834 4103 569 3819 
L 569 4413 
Q 806 4659 1107 4790 
Q 1409 4922 1816 4922 
Q 2472 4922 2872 4570 
Q 3272 4219 3272 3619 
Q 3272 3084 3026 2693 
Q 2781 2303 2188 1894 
Q 1581 1475 1376 1294 
Q 1172 1113 1090 947 
Q 1009 781 1009 544 
L 3416 544 
L 3416 0 
L 372 0 
L 372 241 
Q 372 659 486 951 
Q 600 1244 862 1520 
Q 1125 1797 1681 2184 
Q 2250 2584 2458 2886 
Q 2666 3188 2666 3572 
z
" transform="scale(0.015625)"/>
       </defs>
       <use xlink:href="#MicrosoftYaHei-32"/>
       <use xlink:href="#MicrosoftYaHei-30" transform="translate(58.642578 0)"/>
      </g>
     </g>
    </g>
    <g id="xtick_6">
     <g id="line2d_6">
      <g>
       <use xlink:href="#ma345f48ab2" x="314.8" y="239.23125" style="stroke: #000000; stroke-width: 0.8"/>
      </g>
     </g>
     <g id="text_6">
      <!-- 25 -->
      <g transform="translate(308.935937 254.225) scale(0.1 -0.1)">
       <use xlink:href="#MicrosoftYaHei-32"/>
       <use xlink:href="#MicrosoftYaHei-35" transform="translate(58.642578 0)"/>
      </g>
     </g>
    </g>
    <g id="xtick_7">
     <g id="line2d_7">
      <g>
       <use xlink:href="#ma345f48ab2" x="363.39" y="239.23125" style="stroke: #000000; stroke-width: 0.8"/>
      </g>
     </g>
     <g id="text_7">
      <!-- 30 -->
      <g transform="translate(357.525937 254.225) scale(0.1 -0.1)">
       <defs>
        <path id="MicrosoftYaHei-33" d="M 447 809 
Q 944 425 1569 425 
Q 2069 425 2361 670 
Q 2653 916 2653 1328 
Q 2653 2247 1338 2247 
L 934 2247 
L 934 2753 
L 1319 2753 
Q 2484 2753 2484 3616 
Q 2484 4413 1594 4413 
Q 1084 4413 634 4069 
L 634 4647 
Q 1109 4922 1744 4922 
Q 2363 4922 2738 4598 
Q 3113 4275 3113 3759 
Q 3113 2809 2144 2538 
L 2144 2525 
Q 2669 2469 2973 2155 
Q 3278 1841 3278 1372 
Q 3278 719 2808 319 
Q 2338 -81 1556 -81 
Q 869 -81 447 175 
L 447 809 
z
" transform="scale(0.015625)"/>
       </defs>
       <use xlink:href="#MicrosoftYaHei-33"/>
       <use xlink:href="#MicrosoftYaHei-30" transform="translate(58.642578 0)"/>
      </g>
     </g>
    </g>
    <g id="xtick_8">
     <g id="line2d_8">
      <g>
       <use xlink:href="#ma345f48ab2" x="411.98" y="239.23125" style="stroke: #000000; stroke-width: 0.8"/>
      </g>
     </g>
     <g id="text_8">
      <!-- 35 -->
      <g transform="translate(406.115937 254.225) scale(0.1 -0.1)">
       <use xlink:href="#MicrosoftYaHei-33"/>
       <use xlink:href="#MicrosoftYaHei-35" transform="translate(58.642578 0)"/>
      </g>
     </g>
    </g>
    <g id="text_9">
     <!-- Test Frequency (%) -->
     <g style="fill: #555555" transform="translate(192.681406 269.440469) scale(0.11 -0.11)">
      <defs>
       <path id="MicrosoftYaHei-54" d="M 3550 4284 
L 2153 4284 
L 2153 0 
L 1525 0 
L 1525 4284 
L 134 4284 
L 134 4841 
L 3550 4841 
L 3550 4284 
z
" transform="scale(0.015625)"/>
       <path id="MicrosoftYaHei-65" d="M 3363 1572 
L 944 1572 
Q 959 1019 1246 717 
Q 1534 416 2050 416 
Q 2631 416 3116 788 
L 3116 241 
Q 2659 -81 1906 -81 
Q 1156 -81 736 394 
Q 316 869 316 1713 
Q 316 2506 777 3022 
Q 1238 3538 1922 3538 
Q 2600 3538 2981 3102 
Q 3363 2666 3363 1881 
L 3363 1572 
z
M 2750 2063 
Q 2747 2531 2528 2787 
Q 2309 3044 1913 3044 
Q 1547 3044 1280 2772 
Q 1013 2500 944 2063 
L 2750 2063 
z
" transform="scale(0.015625)"/>
       <path id="MicrosoftYaHei-73" d="M 353 747 
Q 816 413 1350 413 
Q 2066 413 2066 881 
Q 2066 1081 1909 1211 
Q 1753 1341 1275 1519 
Q 700 1750 528 1976 
Q 356 2203 356 2525 
Q 356 2984 745 3261 
Q 1134 3538 1703 3538 
Q 2144 3538 2522 3384 
L 2522 2794 
Q 2134 3044 1644 3044 
Q 1350 3044 1165 2916 
Q 981 2788 981 2578 
Q 981 2372 1114 2256 
Q 1247 2141 1703 1959 
Q 2281 1744 2484 1512 
Q 2688 1281 2688 941 
Q 2688 466 2298 192 
Q 1909 -81 1291 -81 
Q 753 -81 353 122 
L 353 747 
z
" transform="scale(0.015625)"/>
       <path id="MicrosoftYaHei-74" d="M 2206 34 
Q 2006 -75 1666 -75 
Q 738 -75 738 953 
L 738 2950 
L 144 2950 
L 144 3456 
L 738 3456 
L 738 4288 
L 1347 4481 
L 1347 3456 
L 2206 3456 
L 2206 2950 
L 1347 2950 
L 1347 1063 
Q 1347 722 1462 575 
Q 1578 428 1847 428 
Q 2053 428 2206 544 
L 2206 34 
z
" transform="scale(0.015625)"/>
       <path id="MicrosoftYaHei-20" transform="scale(0.015625)"/>
       <path id="MicrosoftYaHei-46" d="M 3119 4284 
L 1250 4284 
L 1250 2666 
L 2981 2666 
L 2981 2116 
L 1250 2116 
L 1250 0 
L 625 0 
L 625 4841 
L 3119 4841 
L 3119 4284 
z
" transform="scale(0.015625)"/>
       <path id="MicrosoftYaHei-72" d="M 2400 2850 
Q 2247 2959 1978 2959 
Q 1622 2959 1390 2626 
Q 1159 2294 1159 1750 
L 1159 0 
L 547 0 
L 547 3456 
L 1159 3456 
L 1159 2753 
L 1172 2753 
Q 1434 3516 2078 3516 
Q 2288 3516 2400 3469 
L 2400 2850 
z
" transform="scale(0.015625)"/>
       <path id="MicrosoftYaHei-71" d="M 3547 -1591 
L 2934 -1591 
L 2934 581 
L 2922 581 
Q 2559 -81 1753 -81 
Q 1100 -81 708 380 
Q 316 841 316 1647 
Q 316 2506 747 3022 
Q 1178 3538 1903 3538 
Q 2603 3538 2922 2988 
L 2934 2988 
L 2934 3456 
L 3547 3456 
L 3547 -1591 
z
M 2934 2044 
Q 2938 2453 2673 2742 
Q 2409 3031 1984 3031 
Q 1497 3031 1219 2668 
Q 941 2306 941 1663 
Q 941 1081 1208 753 
Q 1475 425 1909 425 
Q 2384 425 2661 751 
Q 2938 1078 2934 1566 
L 2934 2044 
z
" transform="scale(0.015625)"/>
       <path id="MicrosoftYaHei-75" d="M 3400 0 
L 2784 0 
L 2784 544 
L 2772 544 
Q 2425 -81 1706 -81 
Q 478 -81 478 1388 
L 478 3456 
L 1084 3456 
L 1084 1478 
Q 1084 425 1891 425 
Q 2291 425 2537 720 
Q 2784 1016 2784 1466 
L 2784 3456 
L 3400 3456 
L 3400 0 
z
" transform="scale(0.015625)"/>
       <path id="MicrosoftYaHei-6e" d="M 3469 0 
L 2859 0 
L 2859 1966 
Q 2859 3031 2081 3031 
Q 1678 3031 1418 2731 
Q 1159 2431 1159 1972 
L 1159 0 
L 547 0 
L 547 3456 
L 1159 3456 
L 1159 2884 
L 1172 2884 
Q 1563 3538 2306 3538 
Q 2875 3538 3172 3173 
Q 3469 2809 3469 2113 
L 3469 0 
z
" transform="scale(0.015625)"/>
       <path id="MicrosoftYaHei-63" d="M 2934 156 
Q 2538 -81 1978 -81 
Q 1228 -81 772 400 
Q 316 881 316 1647 
Q 316 2497 808 3017 
Q 1300 3538 2125 3538 
Q 2600 3538 2938 3369 
L 2938 2763 
Q 2572 3031 2125 3031 
Q 1600 3031 1270 2667 
Q 941 2303 941 1697 
Q 941 1100 1252 762 
Q 1563 425 2091 425 
Q 2538 425 2934 719 
L 2934 156 
z
" transform="scale(0.015625)"/>
       <path id="MicrosoftYaHei-79" d="M 3359 3456 
L 1791 -522 
Q 1353 -1628 556 -1628 
Q 328 -1628 166 -1578 
L 166 -1041 
Q 344 -1109 509 -1109 
Q 925 -1109 1131 -622 
L 1397 6 
L 41 3456 
L 719 3456 
L 1622 859 
L 1697 575 
L 1713 575 
Q 1731 672 1788 853 
L 2731 3456 
L 3359 3456 
z
" transform="scale(0.015625)"/>
       <path id="MicrosoftYaHei-28" d="M 1531 -1100 
Q 478 100 478 1847 
Q 478 3594 1531 4841 
L 2072 4841 
Q 1016 3544 1016 1853 
Q 1016 166 2066 -1100 
L 1531 -1100 
z
" transform="scale(0.015625)"/>
       <path id="MicrosoftYaHei-25" d="M 272 3619 
Q 272 4213 589 4563 
Q 906 4913 1444 4913 
Q 1959 4913 2248 4591 
Q 2538 4269 2538 3694 
Q 2538 3122 2219 2765 
Q 1900 2409 1372 2409 
Q 872 2409 572 2740 
Q 272 3072 272 3619 
z
M 753 3650 
Q 753 3247 928 3028 
Q 1103 2809 1406 2809 
Q 1719 2809 1889 3036 
Q 2059 3263 2059 3675 
Q 2059 4078 1892 4298 
Q 1725 4519 1422 4519 
Q 1113 4519 933 4289 
Q 753 4059 753 3650 
z
M 4647 4841 
L 1538 -31 
L 1016 -31 
L 4125 4841 
L 4647 4841 
z
M 3172 1134 
Q 3172 1728 3489 2083 
Q 3806 2438 4341 2438 
Q 4853 2438 5143 2114 
Q 5434 1791 5434 1203 
Q 5434 634 5112 279 
Q 4791 -75 4272 -75 
Q 3769 -75 3470 261 
Q 3172 597 3172 1134 
z
M 3650 1163 
Q 3650 769 3825 548 
Q 4000 328 4303 328 
Q 4616 328 4786 556 
Q 4956 784 4956 1194 
Q 4956 1600 4786 1815 
Q 4616 2031 4319 2031 
Q 4000 2031 3825 1801 
Q 3650 1572 3650 1163 
z
" transform="scale(0.015625)"/>
       <path id="MicrosoftYaHei-29" d="M 78 -1100 
Q 1131 163 1131 1853 
Q 1131 3547 72 4841 
L 616 4841 
Q 1672 3603 1672 1847 
Q 1672 91 616 -1100 
L 78 -1100 
z
" transform="scale(0.015625)"/>
      </defs>
      <use xlink:href="#MicrosoftYaHei-54"/>
      <use xlink:href="#MicrosoftYaHei-65" transform="translate(46.199219 0)"/>
      <use xlink:href="#MicrosoftYaHei-73" transform="translate(102.9375 0)"/>
      <use xlink:href="#MicrosoftYaHei-74" transform="translate(149.226562 0)"/>
      <use xlink:href="#MicrosoftYaHei-20" transform="translate(186.482422 0)"/>
      <use xlink:href="#MicrosoftYaHei-46" transform="translate(216.072266 0)"/>
      <use xlink:href="#MicrosoftYaHei-72" transform="translate(269.197266 0)"/>
      <use xlink:href="#MicrosoftYaHei-65" transform="translate(306.005859 0)"/>
      <use xlink:href="#MicrosoftYaHei-71" transform="translate(362.744141 0)"/>
      <use xlink:href="#MicrosoftYaHei-75" transform="translate(426.708984 0)"/>
      <use xlink:href="#MicrosoftYaHei-65" transform="translate(488.330078 0)"/>
      <use xlink:href="#MicrosoftYaHei-6e" transform="translate(545.068359 0)"/>
      <use xlink:href="#MicrosoftYaHei-63" transform="translate(606.689453 0)"/>
      <use xlink:href="#MicrosoftYaHei-79" transform="translate(656.835938 0)"/>
      <use xlink:href="#MicrosoftYaHei-20" transform="translate(709.765625 0)"/>
      <use xlink:href="#MicrosoftYaHei-28" transform="translate(739.355469 0)"/>
      <use xlink:href="#MicrosoftYaHei-25" transform="translate(772.753906 0)"/>
      <use xlink:href="#MicrosoftYaHei-29" transform="translate(861.71875 0)"/>
     </g>
    </g>
   </g>
   <g id="matplotlib.axis_2">
    <g id="ytick_1">
     <g id="line2d_9">
      <defs>
       <path id="m585fde9927" d="M 0 0 
L -3.5 0 
" style="stroke: #000000; stroke-width: 0.8"/>
      </defs>
      <g>
       <use xlink:href="#m585fde9927" x="71.85" y="221.504655" style="stroke: #000000; stroke-width: 0.8"/>
      </g>
     </g>
     <g id="text_10">
      <!-- Letter/Email -->
      <g transform="translate(7.2 225.50153) scale(0.1 -0.1)">
       <defs>
        <path id="MicrosoftYaHei-4c" d="M 3178 0 
L 625 0 
L 625 4841 
L 1250 4841 
L 1250 553 
L 3178 553 
L 3178 0 
z
" transform="scale(0.015625)"/>
        <path id="MicrosoftYaHei-2f" d="M 2791 4841 
L 469 -803 
L -103 -803 
L 2219 4841 
L 2791 4841 
z
" transform="scale(0.015625)"/>
        <path id="MicrosoftYaHei-45" d="M 3228 0 
L 625 0 
L 625 4841 
L 3119 4841 
L 3119 4284 
L 1250 4284 
L 1250 2734 
L 2981 2734 
L 2981 2181 
L 1250 2181 
L 1250 553 
L 3228 553 
L 3228 0 
z
" transform="scale(0.015625)"/>
        <path id="MicrosoftYaHei-6d" d="M 5522 0 
L 4909 0 
L 4909 1984 
Q 4909 2547 4734 2789 
Q 4559 3031 4159 3031 
Q 3822 3031 3581 2715 
Q 3341 2400 3341 1969 
L 3341 0 
L 2728 0 
L 2728 2047 
Q 2728 3031 1969 3031 
Q 1619 3031 1389 2731 
Q 1159 2431 1159 1966 
L 1159 0 
L 547 0 
L 547 3456 
L 1159 3456 
L 1159 2909 
L 1172 2909 
Q 1541 3538 2250 3538 
Q 2597 3538 2862 3347 
Q 3128 3156 3231 2831 
Q 3616 3538 4381 3538 
Q 5522 3538 5522 2131 
L 5522 0 
z
" transform="scale(0.015625)"/>
        <path id="MicrosoftYaHei-61" d="M 628 3216 
Q 1144 3538 1819 3538 
Q 3069 3538 3069 2225 
L 3069 0 
L 2463 0 
L 2463 534 
L 2447 534 
Q 2088 -81 1388 -81 
Q 884 -81 587 191 
Q 291 463 291 925 
Q 291 1894 1438 2053 
L 2463 2197 
Q 2463 3044 1763 3044 
Q 1141 3044 628 2625 
L 628 3216 
z
M 1653 1625 
Q 1228 1569 1067 1412 
Q 906 1256 906 975 
Q 906 728 1081 572 
Q 1256 416 1544 416 
Q 1944 416 2203 697 
Q 2463 978 2463 1403 
L 2463 1734 
L 1653 1625 
z
" transform="scale(0.015625)"/>
        <path id="MicrosoftYaHei-69" d="M 472 4675 
Q 472 4838 583 4948 
Q 694 5059 856 5059 
Q 1022 5059 1136 4950 
Q 1250 4841 1250 4675 
Q 1250 4513 1136 4405 
Q 1022 4297 856 4297 
Q 691 4297 581 4405 
Q 472 4513 472 4675 
z
M 544 0 
L 544 3456 
L 1156 3456 
L 1156 0 
L 544 0 
z
" transform="scale(0.015625)"/>
        <path id="MicrosoftYaHei-6c" d="M 544 0 
L 544 5116 
L 1156 5116 
L 1156 0 
L 544 0 
z
" transform="scale(0.015625)"/>
       </defs>
       <use xlink:href="#MicrosoftYaHei-4c"/>
       <use xlink:href="#MicrosoftYaHei-65" transform="translate(51.318359 0)"/>
       <use xlink:href="#MicrosoftYaHei-74" transform="translate(108.056641 0)"/>
       <use xlink:href="#MicrosoftYaHei-74" transform="translate(145.3125 0)"/>
       <use xlink:href="#MicrosoftYaHei-65" transform="translate(181.693359 0)"/>
       <use xlink:href="#MicrosoftYaHei-72" transform="translate(238.431641 0)"/>
       <use xlink:href="#MicrosoftYaHei-2f" transform="translate(276.615234 0)"/>
       <use xlink:href="#MicrosoftYaHei-45" transform="translate(319.339844 0)"/>
       <use xlink:href="#MicrosoftYaHei-6d" transform="translate(374.320312 0)"/>
       <use xlink:href="#MicrosoftYaHei-61" transform="translate(468.021484 0)"/>
       <use xlink:href="#MicrosoftYaHei-69" transform="translate(523.294922 0)"/>
       <use xlink:href="#MicrosoftYaHei-6c" transform="translate(549.90625 0)"/>
      </g>
     </g>
    </g>
    <g id="ytick_2">
     <g id="line2d_10">
      <g>
       <use xlink:href="#m585fde9927" x="71.85" y="196.449396" style="stroke: #000000; stroke-width: 0.8"/>
      </g>
     </g>
     <g id="text_11">
      <!-- Notice -->
      <g transform="translate(33.289063 200.446271) scale(0.1 -0.1)">
       <defs>
        <path id="MicrosoftYaHei-4e" d="M 4578 0 
L 3838 0 
L 1403 3766 
Q 1300 3925 1238 4081 
L 1219 4081 
Q 1244 3919 1244 3403 
L 1244 0 
L 625 0 
L 625 4841 
L 1409 4841 
L 3778 1141 
Q 3947 878 3978 806 
L 3991 806 
Q 3959 1013 3959 1513 
L 3959 4841 
L 4578 4841 
L 4578 0 
z
" transform="scale(0.015625)"/>
        <path id="MicrosoftYaHei-6f" d="M 316 1691 
Q 316 2547 794 3042 
Q 1272 3538 2091 3538 
Q 2869 3538 3311 3061 
Q 3753 2584 3753 1744 
Q 3753 925 3281 422 
Q 2809 -81 2016 -81 
Q 1241 -81 778 406 
Q 316 894 316 1691 
z
M 941 1709 
Q 941 1113 1242 769 
Q 1544 425 2053 425 
Q 2578 425 2853 761 
Q 3128 1097 3128 1725 
Q 3128 2356 2853 2693 
Q 2578 3031 2053 3031 
Q 1538 3031 1239 2678 
Q 941 2325 941 1709 
z
" transform="scale(0.015625)"/>
       </defs>
       <use xlink:href="#MicrosoftYaHei-4e"/>
       <use xlink:href="#MicrosoftYaHei-6f" transform="translate(81.298828 0)"/>
       <use xlink:href="#MicrosoftYaHei-74" transform="translate(144.873047 0)"/>
       <use xlink:href="#MicrosoftYaHei-69" transform="translate(182.128906 0)"/>
       <use xlink:href="#MicrosoftYaHei-63" transform="translate(208.740234 0)"/>
       <use xlink:href="#MicrosoftYaHei-65" transform="translate(258.886719 0)"/>
      </g>
     </g>
    </g>
    <g id="ytick_3">
     <g id="line2d_11">
      <g>
       <use xlink:href="#m585fde9927" x="71.85" y="171.394138" style="stroke: #000000; stroke-width: 0.8"/>
      </g>
     </g>
     <g id="text_12">
      <!-- Speech -->
      <g transform="translate(30.171875 175.391013) scale(0.1 -0.1)">
       <defs>
        <path id="MicrosoftYaHei-53" d="M 400 909 
Q 622 716 994 591 
Q 1366 466 1700 466 
Q 2719 466 2719 1191 
Q 2719 1394 2609 1556 
Q 2500 1719 2309 1844 
Q 2119 1969 1594 2228 
Q 866 2591 634 2902 
Q 403 3213 403 3613 
Q 403 4216 887 4569 
Q 1372 4922 2109 4922 
Q 2831 4922 3169 4747 
L 3169 4066 
Q 2731 4369 2063 4369 
Q 1619 4369 1339 4183 
Q 1059 3997 1059 3666 
Q 1059 3372 1253 3187 
Q 1447 3003 2094 2684 
Q 2806 2344 3090 2003 
Q 3375 1663 3375 1238 
Q 3375 600 2912 259 
Q 2450 -81 1628 -81 
Q 1341 -81 958 -1 
Q 575 78 400 197 
L 400 909 
z
" transform="scale(0.015625)"/>
        <path id="MicrosoftYaHei-70" d="M 1159 488 
L 1159 -1591 
L 547 -1591 
L 547 3456 
L 1159 3456 
L 1159 2859 
L 1172 2859 
Q 1578 3538 2359 3538 
Q 3022 3538 3398 3073 
Q 3775 2609 3775 1828 
Q 3775 966 3348 442 
Q 2922 -81 2200 -81 
Q 1534 -81 1172 488 
L 1159 488 
z
M 1156 1425 
Q 1156 1003 1428 714 
Q 1700 425 2109 425 
Q 2597 425 2872 800 
Q 3147 1175 3147 1838 
Q 3147 2397 2890 2714 
Q 2634 3031 2191 3031 
Q 1738 3031 1447 2709 
Q 1156 2388 1156 1884 
L 1156 1425 
z
" transform="scale(0.015625)"/>
        <path id="MicrosoftYaHei-68" d="M 3466 0 
L 2856 0 
L 2856 1988 
Q 2856 3031 2081 3031 
Q 1684 3031 1421 2726 
Q 1159 2422 1159 1959 
L 1159 0 
L 547 0 
L 547 5116 
L 1159 5116 
L 1159 2888 
L 1172 2888 
Q 1569 3538 2300 3538 
Q 3466 3538 3466 2128 
L 3466 0 
z
" transform="scale(0.015625)"/>
       </defs>
       <use xlink:href="#MicrosoftYaHei-53"/>
       <use xlink:href="#MicrosoftYaHei-70" transform="translate(57.714844 0)"/>
       <use xlink:href="#MicrosoftYaHei-65" transform="translate(121.582031 0)"/>
       <use xlink:href="#MicrosoftYaHei-65" transform="translate(178.320312 0)"/>
       <use xlink:href="#MicrosoftYaHei-63" transform="translate(235.058594 0)"/>
       <use xlink:href="#MicrosoftYaHei-68" transform="translate(285.205078 0)"/>
      </g>
     </g>
    </g>
    <g id="ytick_4">
     <g id="line2d_12">
      <g>
       <use xlink:href="#m585fde9927" x="71.85" y="146.338879" style="stroke: #000000; stroke-width: 0.8"/>
      </g>
     </g>
     <g id="text_13">
      <!-- Report -->
      <g transform="translate(32.346875 150.335754) scale(0.1 -0.1)">
       <defs>
        <path id="MicrosoftYaHei-52" d="M 4159 0 
L 3422 0 
L 2619 1344 
Q 2378 1747 2178 1892 
Q 1978 2038 1700 2038 
L 1250 2038 
L 1250 0 
L 625 0 
L 625 4841 
L 2100 4841 
Q 2806 4841 3206 4500 
Q 3606 4159 3606 3547 
Q 3606 2541 2531 2241 
L 2531 2225 
Q 2731 2141 2876 1984 
Q 3022 1828 3253 1450 
L 4159 0 
z
M 1250 4294 
L 1250 2584 
L 1988 2584 
Q 2416 2584 2683 2834 
Q 2950 3084 2950 3491 
Q 2950 3869 2706 4081 
Q 2463 4294 1997 4294 
L 1250 4294 
z
" transform="scale(0.015625)"/>
       </defs>
       <use xlink:href="#MicrosoftYaHei-52"/>
       <use xlink:href="#MicrosoftYaHei-65" transform="translate(62.283203 0)"/>
       <use xlink:href="#MicrosoftYaHei-70" transform="translate(119.021484 0)"/>
       <use xlink:href="#MicrosoftYaHei-6f" transform="translate(182.888672 0)"/>
       <use xlink:href="#MicrosoftYaHei-72" transform="translate(246.462891 0)"/>
       <use xlink:href="#MicrosoftYaHei-74" transform="translate(287.771484 0)"/>
      </g>
     </g>
    </g>
    <g id="ytick_5">
     <g id="line2d_13">
      <g>
       <use xlink:href="#m585fde9927" x="71.85" y="121.283621" style="stroke: #000000; stroke-width: 0.8"/>
      </g>
     </g>
     <g id="text_14">
      <!-- Proposal -->
      <g transform="translate(23.128125 125.280496) scale(0.1 -0.1)">
       <defs>
        <path id="MicrosoftYaHei-50" d="M 1250 1809 
L 1250 0 
L 625 0 
L 625 4841 
L 2000 4841 
Q 2784 4841 3217 4462 
Q 3650 4084 3650 3381 
Q 3650 2669 3144 2226 
Q 2638 1784 1878 1809 
L 1250 1809 
z
M 1250 4291 
L 1250 2359 
L 1828 2359 
Q 2400 2359 2697 2617 
Q 2994 2875 2994 3356 
Q 2994 4291 1888 4291 
L 1250 4291 
z
" transform="scale(0.015625)"/>
       </defs>
       <use xlink:href="#MicrosoftYaHei-50"/>
       <use xlink:href="#MicrosoftYaHei-72" transform="translate(61.181641 0)"/>
       <use xlink:href="#MicrosoftYaHei-6f" transform="translate(97.990234 0)"/>
       <use xlink:href="#MicrosoftYaHei-70" transform="translate(161.564453 0)"/>
       <use xlink:href="#MicrosoftYaHei-6f" transform="translate(225.431641 0)"/>
       <use xlink:href="#MicrosoftYaHei-73" transform="translate(289.005859 0)"/>
       <use xlink:href="#MicrosoftYaHei-61" transform="translate(335.294922 0)"/>
       <use xlink:href="#MicrosoftYaHei-6c" transform="translate(390.568359 0)"/>
      </g>
     </g>
    </g>
    <g id="ytick_6">
     <g id="line2d_14">
      <g>
       <use xlink:href="#m585fde9927" x="71.85" y="96.228362" style="stroke: #000000; stroke-width: 0.8"/>
      </g>
     </g>
     <g id="text_15">
      <!-- Invitation -->
      <g transform="translate(19.679688 100.225237) scale(0.1 -0.1)">
       <defs>
        <path id="MicrosoftYaHei-49" d="M 1250 4841 
L 1250 0 
L 625 0 
L 625 4841 
L 1250 4841 
z
" transform="scale(0.015625)"/>
        <path id="MicrosoftYaHei-76" d="M 3331 3456 
L 1963 0 
L 1344 0 
L 44 3456 
L 713 3456 
L 1556 988 
Q 1659 691 1678 491 
L 1694 491 
Q 1725 753 1803 975 
L 2688 3456 
L 3331 3456 
z
" transform="scale(0.015625)"/>
       </defs>
       <use xlink:href="#MicrosoftYaHei-49"/>
       <use xlink:href="#MicrosoftYaHei-6e" transform="translate(29.394531 0)"/>
       <use xlink:href="#MicrosoftYaHei-76" transform="translate(91.015625 0)"/>
       <use xlink:href="#MicrosoftYaHei-69" transform="translate(143.505859 0)"/>
       <use xlink:href="#MicrosoftYaHei-74" transform="translate(170.117188 0)"/>
       <use xlink:href="#MicrosoftYaHei-61" transform="translate(207.373047 0)"/>
       <use xlink:href="#MicrosoftYaHei-74" transform="translate(262.646484 0)"/>
       <use xlink:href="#MicrosoftYaHei-69" transform="translate(299.902344 0)"/>
       <use xlink:href="#MicrosoftYaHei-6f" transform="translate(326.513672 0)"/>
       <use xlink:href="#MicrosoftYaHei-6e" transform="translate(390.087891 0)"/>
      </g>
     </g>
    </g>
    <g id="ytick_7">
     <g id="line2d_15">
      <g>
       <use xlink:href="#m585fde9927" x="71.85" y="71.173104" style="stroke: #000000; stroke-width: 0.8"/>
      </g>
     </g>
     <g id="text_16">
      <!-- Thanks -->
      <g transform="translate(31.195313 75.169979) scale(0.1 -0.1)">
       <defs>
        <path id="MicrosoftYaHei-6b" d="M 3484 0 
L 2650 0 
L 1172 1666 
L 1159 1666 
L 1159 0 
L 547 0 
L 547 5116 
L 1159 5116 
L 1159 1872 
L 1172 1872 
L 2575 3456 
L 3363 3456 
L 1800 1794 
L 3484 0 
z
" transform="scale(0.015625)"/>
       </defs>
       <use xlink:href="#MicrosoftYaHei-54"/>
       <use xlink:href="#MicrosoftYaHei-68" transform="translate(57.324219 0)"/>
       <use xlink:href="#MicrosoftYaHei-61" transform="translate(118.896484 0)"/>
       <use xlink:href="#MicrosoftYaHei-6e" transform="translate(174.169922 0)"/>
       <use xlink:href="#MicrosoftYaHei-6b" transform="translate(235.791016 0)"/>
       <use xlink:href="#MicrosoftYaHei-73" transform="translate(290.234375 0)"/>
      </g>
     </g>
    </g>
    <g id="ytick_8">
     <g id="line2d_16">
      <g>
       <use xlink:href="#m585fde9927" x="71.85" y="46.117845" style="stroke: #000000; stroke-width: 0.8"/>
      </g>
     </g>
     <g id="text_17">
      <!-- Application -->
      <g transform="translate(10.26875 50.11472) scale(0.1 -0.1)">
       <defs>
        <path id="MicrosoftYaHei-41" d="M 4428 0 
L 3738 0 
L 3244 1325 
L 1228 1325 
L 763 0 
L 72 0 
L 1916 4841 
L 2584 4841 
L 4428 0 
z
M 3050 1872 
L 2319 3884 
Q 2284 3981 2244 4222 
L 2228 4222 
Q 2194 4003 2150 3884 
L 1425 1872 
L 3050 1872 
z
" transform="scale(0.015625)"/>
       </defs>
       <use xlink:href="#MicrosoftYaHei-41"/>
       <use xlink:href="#MicrosoftYaHei-70" transform="translate(70.361328 0)"/>
       <use xlink:href="#MicrosoftYaHei-70" transform="translate(134.228516 0)"/>
       <use xlink:href="#MicrosoftYaHei-6c" transform="translate(198.095703 0)"/>
       <use xlink:href="#MicrosoftYaHei-69" transform="translate(224.707031 0)"/>
       <use xlink:href="#MicrosoftYaHei-63" transform="translate(251.318359 0)"/>
       <use xlink:href="#MicrosoftYaHei-61" transform="translate(301.464844 0)"/>
       <use xlink:href="#MicrosoftYaHei-74" transform="translate(356.738281 0)"/>
       <use xlink:href="#MicrosoftYaHei-69" transform="translate(393.994141 0)"/>
       <use xlink:href="#MicrosoftYaHei-6f" transform="translate(420.605469 0)"/>
       <use xlink:href="#MicrosoftYaHei-6e" transform="translate(484.179688 0)"/>
      </g>
     </g>
    </g>
   </g>
   <g id="patch_11">
    <path d="M 71.85 239.23125 
L 71.85 28.39125 
" style="fill: none; opacity: 0.3; stroke: #000000; stroke-width: 0.8; stroke-linejoin: miter; stroke-linecap: square"/>
   </g>
   <g id="patch_12">
    <path d="M 71.85 239.23125 
L 411.98 239.23125 
" style="fill: none; opacity: 0.3; stroke: #000000; stroke-width: 0.8; stroke-linejoin: miter; stroke-linecap: square"/>
   </g>
   <g id="text_18">
    <!-- 28% -->
    <g style="fill: #2c3e50" transform="translate(348.813 224.258561) scale(0.1 -0.1)">
     <defs>
      <path id="MicrosoftYaHei-Bold-32" d="M 1500 841 
L 3553 841 
L 3553 0 
L 334 0 
L 334 359 
Q 334 738 473 1050 
Q 613 1363 856 1633 
Q 1100 1903 1613 2266 
Q 2081 2616 2268 2886 
Q 2456 3156 2456 3459 
Q 2456 4113 1744 4113 
Q 1119 4113 550 3613 
L 550 4513 
Q 1184 4922 1975 4922 
Q 2700 4922 3122 4551 
Q 3544 4181 3544 3531 
Q 3544 3169 3422 2876 
Q 3300 2584 3069 2328 
Q 2838 2072 2328 1713 
Q 1838 1363 1669 1172 
Q 1500 981 1500 841 
z
" transform="scale(0.015625)"/>
      <path id="MicrosoftYaHei-Bold-38" d="M 269 1303 
Q 269 1725 512 2053 
Q 756 2381 1219 2534 
Q 850 2719 648 3003 
Q 447 3288 447 3634 
Q 447 3997 645 4292 
Q 844 4588 1200 4755 
Q 1556 4922 1997 4922 
Q 2441 4922 2800 4758 
Q 3159 4594 3359 4298 
Q 3559 4003 3559 3647 
Q 3559 3309 3339 3018 
Q 3119 2728 2747 2559 
Q 3200 2403 3453 2076 
Q 3706 1750 3706 1313 
Q 3706 697 3228 309 
Q 2750 -78 1988 -78 
Q 1225 -78 747 309 
Q 269 697 269 1303 
z
M 1278 1394 
Q 1278 1056 1472 853 
Q 1666 650 1991 650 
Q 2303 650 2503 853 
Q 2703 1056 2703 1394 
Q 2703 1709 2500 1920 
Q 2297 2131 1991 2131 
Q 1675 2131 1476 1920 
Q 1278 1709 1278 1394 
z
M 1428 3531 
Q 1428 3266 1592 3077 
Q 1756 2888 2006 2888 
Q 2247 2888 2415 3072 
Q 2584 3256 2584 3531 
Q 2584 3806 2420 3997 
Q 2256 4188 2006 4188 
Q 1750 4188 1589 3997 
Q 1428 3806 1428 3531 
z
" transform="scale(0.015625)"/>
      <path id="MicrosoftYaHei-Bold-25" d="M 297 3597 
Q 297 4191 626 4548 
Q 956 4906 1519 4906 
Q 2056 4906 2354 4581 
Q 2653 4256 2653 3684 
Q 2653 3097 2322 2744 
Q 1991 2391 1438 2391 
Q 919 2391 608 2722 
Q 297 3053 297 3597 
z
M 984 3631 
Q 984 2959 1478 2959 
Q 1981 2959 1981 3659 
Q 1981 4338 1500 4338 
Q 984 4338 984 3631 
z
M 4938 4841 
L 1791 -3 
L 1006 -3 
L 4147 4841 
L 4938 4841 
z
M 3297 1141 
Q 3297 1741 3631 2095 
Q 3966 2450 4522 2450 
Q 5059 2450 5357 2131 
Q 5656 1813 5656 1234 
Q 5656 641 5322 286 
Q 4988 -69 4438 -69 
Q 3922 -69 3609 264 
Q 3297 597 3297 1141 
z
M 3981 1175 
Q 3981 500 4478 500 
Q 4978 500 4978 1200 
Q 4978 1528 4845 1704 
Q 4713 1881 4491 1881 
Q 3981 1881 3981 1175 
z
" transform="scale(0.015625)"/>
     </defs>
     <use xlink:href="#MicrosoftYaHei-Bold-32"/>
     <use xlink:href="#MicrosoftYaHei-Bold-38" transform="translate(61.669922 0)"/>
     <use xlink:href="#MicrosoftYaHei-Bold-25" transform="translate(123.339844 0)"/>
    </g>
   </g>
   <g id="text_19">
    <!-- 12% -->
    <g style="fill: #2c3e50" transform="translate(193.325 199.203302) scale(0.1 -0.1)">
     <defs>
      <path id="MicrosoftYaHei-Bold-31" d="M 2716 4947 
L 2716 0 
L 1700 0 
L 1700 3809 
Q 1513 3647 1188 3517 
Q 863 3388 591 3356 
L 591 4222 
Q 1447 4472 2072 4947 
L 2716 4947 
z
" transform="scale(0.015625)"/>
     </defs>
     <use xlink:href="#MicrosoftYaHei-Bold-31"/>
     <use xlink:href="#MicrosoftYaHei-Bold-32" transform="translate(61.669922 0)"/>
     <use xlink:href="#MicrosoftYaHei-Bold-25" transform="translate(123.339844 0)"/>
    </g>
   </g>
   <g id="text_20">
    <!-- 18% -->
    <g style="fill: #2c3e50" transform="translate(251.633 174.148044) scale(0.1 -0.1)">
     <use xlink:href="#MicrosoftYaHei-Bold-31"/>
     <use xlink:href="#MicrosoftYaHei-Bold-38" transform="translate(61.669922 0)"/>
     <use xlink:href="#MicrosoftYaHei-Bold-25" transform="translate(123.339844 0)"/>
    </g>
   </g>
   <g id="text_21">
    <!-- 8% -->
    <g style="fill: #2c3e50" transform="translate(154.453 149.092785) scale(0.1 -0.1)">
     <use xlink:href="#MicrosoftYaHei-Bold-38"/>
     <use xlink:href="#MicrosoftYaHei-Bold-25" transform="translate(61.669922 0)"/>
    </g>
   </g>
   <g id="text_22">
    <!-- 14% -->
    <g style="fill: #2c3e50" transform="translate(212.761 124.037527) scale(0.1 -0.1)">
     <defs>
      <path id="MicrosoftYaHei-Bold-34" d="M 3184 4841 
L 3184 1766 
L 3869 1766 
L 3869 1031 
L 3184 1031 
L 3184 0 
L 2266 0 
L 2266 1031 
L 103 1031 
L 103 1772 
Q 775 2522 1362 3359 
Q 1950 4197 2250 4841 
L 3184 4841 
z
M 997 1766 
L 2266 1766 
L 2266 3541 
Q 2116 3259 1836 2859 
Q 1556 2459 997 1766 
z
" transform="scale(0.015625)"/>
     </defs>
     <use xlink:href="#MicrosoftYaHei-Bold-31"/>
     <use xlink:href="#MicrosoftYaHei-Bold-34" transform="translate(61.669922 0)"/>
     <use xlink:href="#MicrosoftYaHei-Bold-25" transform="translate(123.339844 0)"/>
    </g>
   </g>
   <g id="text_23">
    <!-- 10% -->
    <g style="fill: #2c3e50" transform="translate(173.889 98.982269) scale(0.1 -0.1)">
     <defs>
      <path id="MicrosoftYaHei-Bold-30" d="M 244 2341 
Q 244 3597 706 4259 
Q 1169 4922 2044 4922 
Q 3713 4922 3713 2453 
Q 3713 1238 3259 577 
Q 2806 -84 1950 -84 
Q 244 -84 244 2341 
z
M 1266 2366 
Q 1266 691 1981 691 
Q 2684 691 2684 2416 
Q 2684 4147 2000 4147 
Q 1266 4147 1266 2366 
z
" transform="scale(0.015625)"/>
     </defs>
     <use xlink:href="#MicrosoftYaHei-Bold-31"/>
     <use xlink:href="#MicrosoftYaHei-Bold-30" transform="translate(61.669922 0)"/>
     <use xlink:href="#MicrosoftYaHei-Bold-25" transform="translate(123.339844 0)"/>
    </g>
   </g>
   <g id="text_24">
    <!-- 5% -->
    <g style="fill: #2c3e50" transform="translate(125.299 73.92701) scale(0.1 -0.1)">
     <defs>
      <path id="MicrosoftYaHei-Bold-35" d="M 541 125 
L 541 997 
Q 1044 691 1613 691 
Q 2041 691 2283 902 
Q 2525 1113 2525 1472 
Q 2525 2225 1494 2225 
Q 1113 2225 616 2169 
L 797 4841 
L 3359 4841 
L 3359 4009 
L 1613 4009 
L 1544 2991 
Q 1803 3013 2022 3013 
Q 2731 3013 3142 2625 
Q 3553 2238 3553 1575 
Q 3553 844 3056 380 
Q 2559 -84 1706 -84 
Q 1016 -84 541 125 
z
" transform="scale(0.015625)"/>
     </defs>
     <use xlink:href="#MicrosoftYaHei-Bold-35"/>
     <use xlink:href="#MicrosoftYaHei-Bold-25" transform="translate(61.669922 0)"/>
    </g>
   </g>
   <g id="text_25">
    <!-- 5% -->
    <g style="fill: #2c3e50" transform="translate(125.299 48.871752) scale(0.1 -0.1)">
     <use xlink:href="#MicrosoftYaHei-Bold-35"/>
     <use xlink:href="#MicrosoftYaHei-Bold-25" transform="translate(61.669922 0)"/>
    </g>
   </g>
   <g id="text_26">
    <!-- Gaokao Practical Writing: Genre Distribution -->
    <g style="fill: #2c3e50" transform="translate(84.766094 18.39125) scale(0.14 -0.14)">
     <defs>
      <path id="MicrosoftYaHei-Bold-47" d="M 4494 325 
Q 3784 -84 2750 -84 
Q 1594 -84 925 566 
Q 256 1216 256 2344 
Q 256 3488 992 4205 
Q 1728 4922 2931 4922 
Q 3706 4922 4284 4703 
L 4284 3725 
Q 3722 4053 2909 4053 
Q 2209 4053 1775 3597 
Q 1341 3141 1341 2394 
Q 1341 1634 1733 1209 
Q 2125 784 2803 784 
Q 3206 784 3463 909 
L 3463 1903 
L 2484 1903 
L 2484 2731 
L 4494 2731 
L 4494 325 
z
" transform="scale(0.015625)"/>
      <path id="MicrosoftYaHei-Bold-61" d="M 544 3247 
Q 778 3378 1170 3459 
Q 1563 3541 1841 3541 
Q 3291 3541 3291 2088 
L 3291 0 
L 2331 0 
L 2331 503 
L 2319 503 
Q 1966 -84 1284 -84 
Q 794 -84 498 195 
Q 203 475 203 956 
Q 203 1950 1388 2113 
L 2338 2241 
Q 2338 2844 1709 2844 
Q 1091 2844 544 2469 
L 544 3247 
z
M 1684 1566 
Q 1138 1494 1138 1072 
Q 1138 878 1270 759 
Q 1403 641 1628 641 
Q 1938 641 2138 859 
Q 2338 1078 2338 1403 
L 2338 1650 
L 1684 1566 
z
" transform="scale(0.015625)"/>
      <path id="MicrosoftYaHei-Bold-6f" d="M 253 1713 
Q 253 2566 764 3053 
Q 1275 3541 2138 3541 
Q 2972 3541 3462 3061 
Q 3953 2581 3953 1772 
Q 3953 922 3450 419 
Q 2947 -84 2088 -84 
Q 1244 -84 748 398 
Q 253 881 253 1713 
z
M 1275 1725 
Q 1275 691 2119 691 
Q 2928 691 2928 1753 
Q 2928 2766 2113 2766 
Q 1716 2766 1495 2494 
Q 1275 2222 1275 1725 
z
" transform="scale(0.015625)"/>
      <path id="MicrosoftYaHei-Bold-6b" d="M 3856 0 
L 2631 0 
L 1481 1709 
L 1469 1709 
L 1469 0 
L 459 0 
L 459 5116 
L 1469 5116 
L 1469 1859 
L 1481 1859 
L 2559 3456 
L 3763 3456 
L 2481 1825 
L 3856 0 
z
" transform="scale(0.015625)"/>
      <path id="MicrosoftYaHei-Bold-20" transform="scale(0.015625)"/>
      <path id="MicrosoftYaHei-Bold-50" d="M 1591 1688 
L 1591 0 
L 559 0 
L 559 4841 
L 2225 4841 
Q 4031 4841 4031 3309 
Q 4031 2566 3486 2117 
Q 2941 1669 2122 1688 
L 1591 1688 
z
M 1591 4041 
L 1591 2478 
L 2038 2478 
Q 2947 2478 2947 3269 
Q 2947 4041 2047 4041 
L 1591 4041 
z
" transform="scale(0.015625)"/>
      <path id="MicrosoftYaHei-Bold-72" d="M 2663 2541 
Q 2478 2647 2216 2647 
Q 1872 2647 1670 2384 
Q 1469 2122 1469 1663 
L 1469 0 
L 459 0 
L 459 3456 
L 1469 3456 
L 1469 2806 
L 1481 2806 
Q 1731 3516 2391 3516 
Q 2569 3516 2663 3475 
L 2663 2541 
z
" transform="scale(0.015625)"/>
      <path id="MicrosoftYaHei-Bold-63" d="M 3050 128 
Q 2688 -84 2019 -84 
Q 1228 -84 740 397 
Q 253 878 253 1644 
Q 253 2525 778 3033 
Q 1303 3541 2178 3541 
Q 2769 3541 3053 3378 
L 3053 2513 
Q 2706 2766 2297 2766 
Q 1834 2766 1554 2484 
Q 1275 2203 1275 1713 
Q 1275 1238 1540 964 
Q 1806 691 2263 691 
Q 2666 691 3050 947 
L 3050 128 
z
" transform="scale(0.015625)"/>
      <path id="MicrosoftYaHei-Bold-74" d="M 2494 41 
Q 2266 -84 1803 -84 
Q 703 -84 703 1072 
L 703 2703 
L 134 2703 
L 134 3456 
L 703 3456 
L 703 4216 
L 1706 4503 
L 1706 3456 
L 2494 3456 
L 2494 2703 
L 1706 2703 
L 1706 1247 
Q 1706 694 2144 694 
Q 2313 694 2494 794 
L 2494 41 
z
" transform="scale(0.015625)"/>
      <path id="MicrosoftYaHei-Bold-69" d="M 369 4572 
Q 369 4803 533 4948 
Q 697 5094 953 5094 
Q 1216 5094 1378 4945 
Q 1541 4797 1541 4572 
Q 1541 4344 1375 4192 
Q 1209 4041 953 4041 
Q 700 4041 534 4194 
Q 369 4347 369 4572 
z
M 444 0 
L 444 3456 
L 1450 3456 
L 1450 0 
L 444 0 
z
" transform="scale(0.015625)"/>
      <path id="MicrosoftYaHei-Bold-6c" d="M 444 0 
L 444 5116 
L 1450 5116 
L 1450 0 
L 444 0 
z
" transform="scale(0.015625)"/>
      <path id="MicrosoftYaHei-Bold-57" d="M 6825 4841 
L 5534 0 
L 4388 0 
L 3563 3156 
Q 3497 3413 3484 3691 
L 3472 3691 
Q 3441 3366 3384 3156 
L 2541 0 
L 1350 0 
L 59 4841 
L 1191 4841 
L 1909 1559 
Q 1956 1344 1975 1016 
L 1997 1016 
Q 2013 1272 2094 1575 
L 2994 4841 
L 4091 4841 
L 4909 1534 
Q 4959 1338 4988 1022 
L 5003 1022 
Q 5016 1294 5075 1553 
L 5778 4841 
L 6825 4841 
z
" transform="scale(0.015625)"/>
      <path id="MicrosoftYaHei-Bold-6e" d="M 3744 0 
L 2741 0 
L 2741 1928 
Q 2741 2766 2138 2766 
Q 1850 2766 1659 2542 
Q 1469 2319 1469 1972 
L 1469 0 
L 459 0 
L 459 3456 
L 1469 3456 
L 1469 2906 
L 1481 2906 
Q 1859 3541 2594 3541 
Q 3744 3541 3744 2116 
L 3744 0 
z
" transform="scale(0.015625)"/>
      <path id="MicrosoftYaHei-Bold-67" d="M 3800 381 
Q 3800 -581 3251 -1101 
Q 2703 -1622 1672 -1622 
Q 972 -1622 559 -1422 
L 559 -559 
Q 1097 -872 1644 -872 
Q 2184 -872 2489 -583 
Q 2794 -294 2794 219 
L 2794 506 
L 2778 506 
Q 2413 -84 1691 -84 
Q 1038 -84 645 381 
Q 253 847 253 1628 
Q 253 2500 686 3020 
Q 1119 3541 1822 3541 
Q 2459 3541 2778 3044 
L 2794 3044 
L 2794 3456 
L 3800 3456 
L 3800 381 
z
M 2803 1950 
Q 2803 2294 2595 2530 
Q 2388 2766 2072 2766 
Q 1703 2766 1489 2477 
Q 1275 2188 1275 1666 
Q 1275 1213 1481 952 
Q 1688 691 2028 691 
Q 2372 691 2587 956 
Q 2803 1222 2803 1647 
L 2803 1950 
z
" transform="scale(0.015625)"/>
      <path id="MicrosoftYaHei-Bold-3a" d="M 313 2969 
Q 313 3200 491 3350 
Q 669 3500 916 3500 
Q 1166 3500 1337 3350 
Q 1509 3200 1509 2969 
Q 1509 2728 1337 2579 
Q 1166 2431 903 2431 
Q 653 2431 483 2584 
Q 313 2738 313 2969 
z
M 313 453 
Q 313 688 491 838 
Q 669 988 916 988 
Q 1166 988 1337 834 
Q 1509 681 1509 453 
Q 1509 213 1337 64 
Q 1166 -84 903 -84 
Q 659 -84 486 69 
Q 313 222 313 453 
z
" transform="scale(0.015625)"/>
      <path id="MicrosoftYaHei-Bold-65" d="M 3528 1444 
L 1253 1444 
Q 1306 641 2222 641 
Q 2794 641 3231 922 
L 3231 181 
Q 2759 -84 1994 -84 
Q 1169 -84 711 381 
Q 253 847 253 1678 
Q 253 2506 740 3023 
Q 1228 3541 1966 3541 
Q 2700 3541 3114 3095 
Q 3528 2650 3528 1872 
L 3528 1444 
z
M 2588 2075 
Q 2588 2850 1959 2850 
Q 1700 2850 1500 2637 
Q 1300 2425 1250 2075 
L 2588 2075 
z
" transform="scale(0.015625)"/>
      <path id="MicrosoftYaHei-Bold-44" d="M 559 0 
L 559 4841 
L 2231 4841 
Q 4809 4841 4809 2481 
Q 4809 1359 4087 679 
Q 3366 0 2225 0 
L 559 0 
z
M 1591 3997 
L 1591 844 
L 2153 844 
Q 2888 844 3306 1281 
Q 3725 1719 3725 2466 
Q 3725 3188 3287 3592 
Q 2850 3997 2150 3997 
L 1591 3997 
z
" transform="scale(0.015625)"/>
      <path id="MicrosoftYaHei-Bold-73" d="M 369 928 
Q 888 613 1384 613 
Q 2009 613 2009 947 
Q 2009 1184 1494 1344 
Q 850 1544 609 1789 
Q 369 2034 369 2453 
Q 369 2963 781 3252 
Q 1194 3541 1863 3541 
Q 2338 3541 2778 3400 
L 2778 2606 
Q 2375 2844 1891 2844 
Q 1650 2844 1503 2758 
Q 1356 2672 1356 2531 
Q 1356 2294 1794 2147 
Q 2263 1991 2498 1862 
Q 2734 1734 2857 1525 
Q 2981 1316 2981 1041 
Q 2981 506 2553 211 
Q 2125 -84 1409 -84 
Q 847 -84 369 94 
L 369 928 
z
" transform="scale(0.015625)"/>
      <path id="MicrosoftYaHei-Bold-62" d="M 1469 416 
L 1469 0 
L 459 0 
L 459 5116 
L 1469 5116 
L 1469 2928 
L 1481 2928 
Q 1878 3541 2613 3541 
Q 3266 3541 3636 3084 
Q 4006 2628 4006 1825 
Q 4006 966 3581 441 
Q 3156 -84 2453 -84 
Q 1809 -84 1481 416 
L 1469 416 
z
M 1453 1494 
Q 1453 1153 1656 922 
Q 1859 691 2172 691 
Q 2550 691 2761 984 
Q 2972 1278 2972 1816 
Q 2972 2263 2780 2514 
Q 2588 2766 2231 2766 
Q 1894 2766 1673 2512 
Q 1453 2259 1453 1863 
L 1453 1494 
z
" transform="scale(0.015625)"/>
      <path id="MicrosoftYaHei-Bold-75" d="M 3691 0 
L 2688 0 
L 2688 528 
L 2672 528 
Q 2284 -84 1613 -84 
Q 406 -84 406 1372 
L 406 3456 
L 1416 3456 
L 1416 1466 
Q 1416 691 2022 691 
Q 2325 691 2506 903 
Q 2688 1116 2688 1478 
L 2688 3456 
L 3691 3456 
L 3691 0 
z
" transform="scale(0.015625)"/>
     </defs>
     <use xlink:href="#MicrosoftYaHei-Bold-47"/>
     <use xlink:href="#MicrosoftYaHei-Bold-61" transform="translate(76.513672 0)"/>
     <use xlink:href="#MicrosoftYaHei-Bold-6f" transform="translate(134.277344 0)"/>
     <use xlink:href="#MicrosoftYaHei-Bold-6b" transform="translate(200 0)"/>
     <use xlink:href="#MicrosoftYaHei-Bold-61" transform="translate(259.619141 0)"/>
     <use xlink:href="#MicrosoftYaHei-Bold-6f" transform="translate(317.382812 0)"/>
     <use xlink:href="#MicrosoftYaHei-Bold-20" transform="translate(383.105469 0)"/>
     <use xlink:href="#MicrosoftYaHei-Bold-50" transform="translate(412.890625 0)"/>
     <use xlink:href="#MicrosoftYaHei-Bold-72" transform="translate(478.613281 0)"/>
     <use xlink:href="#MicrosoftYaHei-Bold-61" transform="translate(520.996094 0)"/>
     <use xlink:href="#MicrosoftYaHei-Bold-63" transform="translate(578.759766 0)"/>
     <use xlink:href="#MicrosoftYaHei-Bold-74" transform="translate(630.419922 0)"/>
     <use xlink:href="#MicrosoftYaHei-Bold-69" transform="translate(671.826172 0)"/>
     <use xlink:href="#MicrosoftYaHei-Bold-63" transform="translate(701.416016 0)"/>
     <use xlink:href="#MicrosoftYaHei-Bold-61" transform="translate(753.076172 0)"/>
     <use xlink:href="#MicrosoftYaHei-Bold-6c" transform="translate(810.839844 0)"/>
     <use xlink:href="#MicrosoftYaHei-Bold-20" transform="translate(840.429688 0)"/>
     <use xlink:href="#MicrosoftYaHei-Bold-57" transform="translate(870.214844 0)"/>
     <use xlink:href="#MicrosoftYaHei-Bold-72" transform="translate(977.832031 0)"/>
     <use xlink:href="#MicrosoftYaHei-Bold-69" transform="translate(1020.589844 0)"/>
     <use xlink:href="#MicrosoftYaHei-Bold-74" transform="translate(1050.179688 0)"/>
     <use xlink:href="#MicrosoftYaHei-Bold-69" transform="translate(1091.585938 0)"/>
     <use xlink:href="#MicrosoftYaHei-Bold-6e" transform="translate(1121.175781 0)"/>
     <use xlink:href="#MicrosoftYaHei-Bold-67" transform="translate(1185.970703 0)"/>
     <use xlink:href="#MicrosoftYaHei-Bold-3a" transform="translate(1252.425781 0)"/>
     <use xlink:href="#MicrosoftYaHei-Bold-20" transform="translate(1280.990234 0)"/>
     <use xlink:href="#MicrosoftYaHei-Bold-47" transform="translate(1310.775391 0)"/>
     <use xlink:href="#MicrosoftYaHei-Bold-65" transform="translate(1387.289062 0)"/>
     <use xlink:href="#MicrosoftYaHei-Bold-6e" transform="translate(1445.492188 0)"/>
     <use xlink:href="#MicrosoftYaHei-Bold-72" transform="translate(1510.287109 0)"/>
     <use xlink:href="#MicrosoftYaHei-Bold-65" transform="translate(1552.169922 0)"/>
     <use xlink:href="#MicrosoftYaHei-Bold-20" transform="translate(1610.373047 0)"/>
     <use xlink:href="#MicrosoftYaHei-Bold-44" transform="translate(1640.158203 0)"/>
     <use xlink:href="#MicrosoftYaHei-Bold-69" transform="translate(1719.308594 0)"/>
     <use xlink:href="#MicrosoftYaHei-Bold-73" transform="translate(1748.898438 0)"/>
     <use xlink:href="#MicrosoftYaHei-Bold-74" transform="translate(1798.263672 0)"/>
     <use xlink:href="#MicrosoftYaHei-Bold-72" transform="translate(1839.669922 0)"/>
     <use xlink:href="#MicrosoftYaHei-Bold-69" transform="translate(1882.427734 0)"/>
     <use xlink:href="#MicrosoftYaHei-Bold-62" transform="translate(1912.017578 0)"/>
     <use xlink:href="#MicrosoftYaHei-Bold-75" transform="translate(1978.619141 0)"/>
     <use xlink:href="#MicrosoftYaHei-Bold-74" transform="translate(2043.414062 0)"/>
     <use xlink:href="#MicrosoftYaHei-Bold-69" transform="translate(2084.820312 0)"/>
     <use xlink:href="#MicrosoftYaHei-Bold-6f" transform="translate(2114.410156 0)"/>
     <use xlink:href="#MicrosoftYaHei-Bold-6e" transform="translate(2180.132812 0)"/>
    </g>
   </g>
  </g>
 </g>
 <defs>
  <clipPath id="p4827f5568b">
   <rect x="71.85" y="28.39125" width="340.13" height="210.84"/>
  </clipPath>
 </defs>
</svg>
