<?xml version="1.0" encoding="utf-8" standalone="no"?>
<!DOCTYPE svg PUBLIC "-//W3C//DTD SVG 1.1//EN"
  "http://www.w3.org/Graphics/SVG/1.1/DTD/svg11.dtd">
<svg xmlns:xlink="http://www.w3.org/1999/xlink" width="491.473437pt" height="262.147188pt" viewBox="0 0 491.473437 262.147188" xmlns="http://www.w3.org/2000/svg" version="1.1">
 <metadata>
  <rdf:RDF xmlns:dc="http://purl.org/dc/elements/1.1/" xmlns:cc="http://creativecommons.org/ns#" xmlns:rdf="http://www.w3.org/1999/02/22-rdf-syntax-ns#">
   <cc:Work>
    <dc:type rdf:resource="http://purl.org/dc/dcmitype/StillImage"/>
    <dc:date>2026-05-25T15:44:38.422600</dc:date>
    <dc:format>image/svg+xml</dc:format>
    <dc:creator>
     <cc:Agent>
      <dc:title>Matplotlib v3.10.9, https://matplotlib.org/</dc:title>
     </cc:Agent>
    </dc:creator>
   </cc:Work>
  </rdf:RDF>
 </metadata>
 <defs>
  <style type="text/css">*{stroke-linejoin: round; stroke-linecap: butt}</style>
 </defs>
 <g id="figure_1">
  <g id="patch_1">
   <path d="M 0 262.147188 
L 491.473437 262.147188 
L 491.473437 0 
L 0 0 
z
" style="fill: #ffffff"/>
  </g>
  <g id="axes_1">
   <g id="patch_2">
    <path d="M 42.753437 227.644875 
L 484.273438 227.644875 
L 484.273438 23.591875 
L 42.753437 23.591875 
z
" style="fill: #ffffff"/>
   </g>
   <g id="patch_3">
    <path d="M 62.822528 227.644875 
L 79.975598 227.644875 
L 79.975598 64.402475 
L 62.822528 64.402475 
z
" clip-path="url(#p43397d5ba0)" style="fill: #5688cc; stroke: #ffffff; stroke-linejoin: miter"/>
   </g>
   <g id="patch_4">
    <path d="M 131.434805 227.644875 
L 148.587874 227.644875 
L 148.587874 74.605125 
L 131.434805 74.605125 
z
" clip-path="url(#p43397d5ba0)" style="fill: #5688cc; stroke: #ffffff; stroke-linejoin: miter"/>
   </g>
   <g id="patch_5">
    <path d="M 200.047082 227.644875 
L 217.200151 227.644875 
L 217.200151 146.023675 
L 200.047082 146.023675 
z
" clip-path="url(#p43397d5ba0)" style="fill: #5688cc; stroke: #ffffff; stroke-linejoin: miter"/>
   </g>
   <g id="patch_6">
    <path d="M 268.659358 227.644875 
L 285.812427 227.644875 
L 285.812427 207.239575 
L 268.659358 207.239575 
z
" clip-path="url(#p43397d5ba0)" style="fill: #5688cc; stroke: #ffffff; stroke-linejoin: miter"/>
   </g>
   <g id="patch_7">
    <path d="M 337.271635 227.644875 
L 354.424704 227.644875 
L 354.424704 197.036925 
L 337.271635 197.036925 
z
" clip-path="url(#p43397d5ba0)" style="fill: #5688cc; stroke: #ffffff; stroke-linejoin: miter"/>
   </g>
   <g id="patch_8">
    <path d="M 405.883911 227.644875 
L 423.036981 227.644875 
L 423.036981 186.834275 
L 405.883911 186.834275 
z
" clip-path="url(#p43397d5ba0)" style="fill: #5688cc; stroke: #ffffff; stroke-linejoin: miter"/>
   </g>
   <g id="patch_9">
    <path d="M 83.406211 227.644875 
L 100.559281 227.644875 
L 100.559281 125.618375 
L 83.406211 125.618375 
z
" clip-path="url(#p43397d5ba0)" style="fill: #73bfaa; stroke: #ffffff; stroke-linejoin: miter"/>
   </g>
   <g id="patch_10">
    <path d="M 152.018488 227.644875 
L 169.171557 227.644875 
L 169.171557 64.402475 
L 152.018488 64.402475 
z
" clip-path="url(#p43397d5ba0)" style="fill: #73bfaa; stroke: #ffffff; stroke-linejoin: miter"/>
   </g>
   <g id="patch_11">
    <path d="M 220.630765 227.644875 
L 237.783834 227.644875 
L 237.783834 105.213075 
L 220.630765 105.213075 
z
" clip-path="url(#p43397d5ba0)" style="fill: #73bfaa; stroke: #ffffff; stroke-linejoin: miter"/>
   </g>
   <g id="patch_12">
    <path d="M 289.243041 227.644875 
L 306.39611 227.644875 
L 306.39611 197.036925 
L 289.243041 197.036925 
z
" clip-path="url(#p43397d5ba0)" style="fill: #73bfaa; stroke: #ffffff; stroke-linejoin: miter"/>
   </g>
   <g id="patch_13">
    <path d="M 357.855318 227.644875 
L 375.008387 227.644875 
L 375.008387 186.834275 
L 357.855318 186.834275 
z
" clip-path="url(#p43397d5ba0)" style="fill: #73bfaa; stroke: #ffffff; stroke-linejoin: miter"/>
   </g>
   <g id="patch_14">
    <path d="M 426.467594 227.644875 
L 443.620664 227.644875 
L 443.620664 197.036925 
L 426.467594 197.036925 
z
" clip-path="url(#p43397d5ba0)" style="fill: #73bfaa; stroke: #ffffff; stroke-linejoin: miter"/>
   </g>
   <g id="patch_15">
    <path d="M 103.989894 227.644875 
L 121.142964 227.644875 
L 121.142964 84.807775 
L 103.989894 84.807775 
z
" clip-path="url(#p43397d5ba0)" style="fill: #e8a060; stroke: #ffffff; stroke-linejoin: miter"/>
   </g>
   <g id="patch_16">
    <path d="M 172.602171 227.644875 
L 189.75524 227.644875 
L 189.75524 64.402475 
L 172.602171 64.402475 
z
" clip-path="url(#p43397d5ba0)" style="fill: #e8a060; stroke: #ffffff; stroke-linejoin: miter"/>
   </g>
   <g id="patch_17">
    <path d="M 241.214448 227.644875 
L 258.367517 227.644875 
L 258.367517 135.821025 
L 241.214448 135.821025 
z
" clip-path="url(#p43397d5ba0)" style="fill: #e8a060; stroke: #ffffff; stroke-linejoin: miter"/>
   </g>
   <g id="patch_18">
    <path d="M 309.826724 227.644875 
L 326.979793 227.644875 
L 326.979793 197.036925 
L 309.826724 197.036925 
z
" clip-path="url(#p43397d5ba0)" style="fill: #e8a060; stroke: #ffffff; stroke-linejoin: miter"/>
   </g>
   <g id="patch_19">
    <path d="M 378.439001 227.644875 
L 395.59207 227.644875 
L 395.59207 197.036925 
L 378.439001 197.036925 
z
" clip-path="url(#p43397d5ba0)" style="fill: #e8a060; stroke: #ffffff; stroke-linejoin: miter"/>
   </g>
   <g id="patch_20">
    <path d="M 447.051277 227.644875 
L 464.204347 227.644875 
L 464.204347 197.036925 
L 447.051277 197.036925 
z
" clip-path="url(#p43397d5ba0)" style="fill: #e8a060; stroke: #ffffff; stroke-linejoin: miter"/>
   </g>
   <g id="matplotlib.axis_1">
    <g id="xtick_1">
     <g id="line2d_1">
      <defs>
       <path id="m08f7fd9e60" d="M 0 0 
L 0 3.5 
" style="stroke: #000000; stroke-width: 0.8"/>
      </defs>
      <g>
       <use xlink:href="#m08f7fd9e60" x="91.982746" y="227.644875" style="stroke: #000000; stroke-width: 0.8"/>
      </g>
     </g>
     <g id="text_1">
      <!-- 学习 -->
      <g transform="translate(82.982746 241.83925) scale(0.09 -0.09)">
       <defs>
        <path id="MicrosoftYaHei-5b66" d="M 144 1359 
L 3069 1359 
L 3069 1709 
L 4263 2384 
L 1325 2384 
L 1325 2841 
L 4994 2841 
L 4994 2316 
L 3575 1497 
L 3575 1359 
L 6263 1359 
L 6263 903 
L 3575 903 
L 3575 -41 
Q 3575 -778 2831 -778 
Q 2419 -778 1863 -766 
Q 1844 -553 1788 -234 
Q 2288 -284 2744 -291 
Q 3069 -297 3069 53 
L 3069 903 
L 144 903 
L 144 1359 
z
M 356 3909 
L 6056 3909 
L 6056 2647 
L 5563 2647 
L 5563 3453 
L 850 3453 
L 850 2647 
L 356 2647 
L 356 3909 
z
M 4313 4272 
Q 4731 4722 5100 5241 
L 5550 4909 
Q 5144 4447 4681 3941 
L 4313 4272 
z
M 2538 5116 
L 2944 5353 
Q 3325 4853 3650 4334 
L 3200 4078 
Q 2925 4566 2538 5116 
z
M 850 4928 
L 1219 5197 
Q 1600 4778 1969 4291 
L 1544 3991 
Q 1194 4522 850 4928 
z
" transform="scale(0.015625)"/>
        <path id="MicrosoftYaHei-4e60" d="M 500 4803 
L 5725 4803 
Q 5663 1853 5606 784 
Q 5550 -616 4181 -616 
Q 3644 -616 3013 -591 
Q 2988 -347 2913 -9 
Q 3713 -66 4113 -66 
Q 4631 -72 4850 153 
Q 5056 378 5081 916 
Q 5144 2416 5169 4291 
L 500 4291 
L 500 4803 
z
M 363 834 
Q 2856 1591 4688 2253 
Q 4669 1834 4688 1709 
Q 2513 978 556 297 
L 363 834 
z
M 1131 3372 
L 1400 3778 
Q 2713 3203 3563 2766 
L 3275 2291 
Q 2069 2947 1131 3372 
z
" transform="scale(0.015625)"/>
       </defs>
       <use xlink:href="#MicrosoftYaHei-5b66"/>
       <use xlink:href="#MicrosoftYaHei-4e60" transform="translate(100 0)"/>
      </g>
     </g>
    </g>
    <g id="xtick_2">
     <g id="line2d_2">
      <g>
       <use xlink:href="#m08f7fd9e60" x="160.595023" y="227.644875" style="stroke: #000000; stroke-width: 0.8"/>
      </g>
     </g>
     <g id="text_2">
      <!-- 睡眠 -->
      <g transform="translate(151.595023 241.83925) scale(0.09 -0.09)">
       <defs>
        <path id="MicrosoftYaHei-7761" d="M 2356 -116 
L 3950 -116 
L 3950 734 
L 2225 734 
L 2225 1134 
L 2825 1134 
L 2825 2041 
L 2088 2041 
L 2088 2453 
L 2825 2453 
L 2825 3353 
L 2213 3353 
L 2213 3753 
L 3950 3753 
L 3950 4503 
Q 3184 4456 2413 4428 
Q 2375 4641 2325 4872 
Q 3994 4916 5869 5103 
L 5956 4653 
Q 5175 4584 4388 4531 
L 4388 3753 
L 6125 3753 
L 6125 3353 
L 5513 3353 
L 5513 2453 
L 6306 2453 
L 6306 2041 
L 5513 2041 
L 5513 1134 
L 6138 1134 
L 6138 734 
L 4388 734 
L 4388 -116 
L 5994 -116 
L 5994 -516 
L 2356 -516 
L 2356 -116 
z
M 338 4859 
L 1938 4859 
L 1938 -434 
L 1500 -434 
L 1500 9 
L 775 9 
L 775 -609 
L 338 -609 
L 338 4859 
z
M 775 441 
L 1500 441 
L 1500 1503 
L 775 1503 
L 775 441 
z
M 1500 4428 
L 775 4428 
L 775 3384 
L 1500 3384 
L 1500 4428 
z
M 775 1922 
L 1500 1922 
L 1500 2966 
L 775 2966 
L 775 1922 
z
M 3250 1134 
L 3950 1134 
L 3950 2041 
L 3250 2041 
L 3250 1134 
z
M 4388 1134 
L 5088 1134 
L 5088 2041 
L 4388 2041 
L 4388 1134 
z
M 3250 2453 
L 3950 2453 
L 3950 3353 
L 3250 3353 
L 3250 2453 
z
M 4388 2453 
L 5088 2453 
L 5088 3353 
L 4388 3353 
L 4388 2453 
z
" transform="scale(0.015625)"/>
        <path id="MicrosoftYaHei-7720" d="M 2650 5016 
L 6013 5016 
L 6013 2828 
L 5550 2828 
L 5550 3103 
L 4709 3103 
Q 4709 2516 4734 2084 
L 6288 2084 
L 6288 1647 
L 4769 1647 
Q 4884 453 5300 -28 
Q 5488 -253 5650 -253 
Q 5800 -253 5831 -59 
Q 5888 272 5925 778 
Q 6163 666 6363 616 
Q 6313 116 6244 -247 
Q 6138 -797 5738 -797 
Q 5300 -797 4900 -278 
Q 4438 353 4309 1647 
L 3125 1647 
L 3125 -28 
Q 3613 241 4163 572 
Q 4206 278 4256 72 
Q 3744 -209 3106 -603 
Q 2931 -716 2756 -872 
L 2444 -453 
Q 2650 -278 2650 59 
L 2650 5016 
z
M 425 4978 
L 2138 4978 
L 2138 -503 
L 1688 -503 
L 1688 -66 
L 875 -66 
L 875 -584 
L 425 -584 
L 425 4978 
z
M 5550 4591 
L 3125 4591 
L 3125 3528 
L 5550 3528 
L 5550 4591 
z
M 4238 3103 
L 3125 3103 
L 3125 2084 
L 4272 2084 
Q 4247 2500 4238 3103 
z
M 875 372 
L 1688 372 
L 1688 1491 
L 875 1491 
L 875 372 
z
M 1688 4541 
L 875 4541 
L 875 3441 
L 1688 3441 
L 1688 4541 
z
M 875 1916 
L 1688 1916 
L 1688 3016 
L 875 3016 
L 875 1916 
z
" transform="scale(0.015625)"/>
       </defs>
       <use xlink:href="#MicrosoftYaHei-7761"/>
       <use xlink:href="#MicrosoftYaHei-7720" transform="translate(100 0)"/>
      </g>
     </g>
    </g>
    <g id="xtick_3">
     <g id="line2d_3">
      <g>
       <use xlink:href="#m08f7fd9e60" x="229.207299" y="227.644875" style="stroke: #000000; stroke-width: 0.8"/>
      </g>
     </g>
     <g id="text_3">
      <!-- 休息 -->
      <g transform="translate(220.207299 241.83925) scale(0.09 -0.09)">
       <defs>
        <path id="MicrosoftYaHei-4f11" d="M 6375 534 
Q 6131 291 5944 72 
Q 4844 1156 4200 2944 
L 4200 -841 
L 3725 -841 
L 3725 3016 
Q 3144 1356 1906 3 
Q 1744 203 1544 416 
Q 2856 1784 3519 3484 
L 1869 3484 
L 1869 3934 
L 3725 3934 
L 3725 5303 
L 4200 5303 
L 4200 3934 
L 6119 3934 
L 6119 3484 
L 4391 3484 
Q 5066 1616 6375 534 
z
M 81 2391 
Q 1063 3716 1556 5341 
L 2063 5172 
Q 1753 4303 1388 3572 
L 1388 -841 
L 913 -841 
L 913 2716 
Q 616 2234 288 1828 
Q 200 2097 81 2391 
z
" transform="scale(0.015625)"/>
        <path id="MicrosoftYaHei-606f" d="M 913 4709 
L 2441 4709 
Q 2575 5044 2663 5353 
L 3150 5222 
Q 3047 4956 2934 4709 
L 5425 4709 
L 5425 1297 
L 4944 1297 
L 4944 1491 
L 1394 1491 
L 1394 1297 
L 913 1297 
L 913 4709 
z
M 1569 1059 
L 2044 1059 
L 2044 141 
Q 2044 -247 2456 -247 
L 3844 -247 
Q 4344 -247 4425 97 
Q 4488 322 4550 778 
Q 4781 684 5038 597 
Q 4963 166 4888 -97 
Q 4744 -691 3956 -691 
L 2381 -691 
Q 1569 -691 1569 84 
L 1569 1059 
z
M 1394 2841 
L 4944 2841 
L 4944 3366 
L 1394 3366 
L 1394 2841 
z
M 1394 1916 
L 4944 1916 
L 4944 2441 
L 1394 2441 
L 1394 1916 
z
M 4944 4284 
L 1394 4284 
L 1394 3766 
L 4944 3766 
L 4944 4284 
z
M 638 1122 
L 1094 966 
Q 819 216 519 -403 
Q 319 -316 56 -222 
Q 363 322 638 1122 
z
M 5119 922 
L 5481 1203 
Q 5925 722 6388 147 
L 5988 -159 
Q 5563 416 5119 922 
z
M 2663 1128 
L 3000 1416 
Q 3381 1066 3838 578 
L 3456 253 
Q 2994 797 2663 1128 
z
" transform="scale(0.015625)"/>
       </defs>
       <use xlink:href="#MicrosoftYaHei-4f11"/>
       <use xlink:href="#MicrosoftYaHei-606f" transform="translate(100 0)"/>
      </g>
      <!-- 娱乐 -->
      <g transform="translate(220.207299 252.709844) scale(0.09 -0.09)">
       <defs>
        <path id="MicrosoftYaHei-5a31" d="M 2406 372 
L 2075 3 
Q 1850 259 1569 538 
Q 1138 -184 400 -797 
Q 263 -597 88 -416 
Q 831 159 1234 856 
Q 828 1234 325 1647 
Q 528 2622 663 3634 
L 163 3634 
L 163 4059 
L 719 4059 
Q 791 4666 838 5284 
L 1319 5247 
Q 1250 4631 1172 4059 
L 2281 4059 
L 2281 3709 
Q 2228 1941 1788 953 
Q 2134 644 2406 372 
z
M 2263 1397 
L 3872 1397 
Q 3938 1738 3944 2172 
L 2525 2172 
L 2525 2597 
L 5975 2597 
L 5975 2172 
L 4419 2172 
Q 4416 1753 4350 1397 
L 6206 1397 
L 6206 972 
L 4556 972 
Q 5134 -72 6313 -284 
Q 6081 -559 5938 -791 
Q 4759 -388 4188 813 
Q 3775 -297 2238 -866 
Q 2094 -641 1888 -409 
Q 3363 16 3753 972 
L 2263 972 
L 2263 1397 
z
M 2688 5066 
L 5769 5066 
L 5769 3003 
L 5313 3003 
L 5313 3266 
L 3144 3266 
L 3144 3003 
L 2688 3003 
L 2688 5066 
z
M 5313 4641 
L 3144 4641 
L 3144 3691 
L 5313 3691 
L 5313 4641 
z
M 1844 3634 
L 1113 3634 
Q 969 2638 800 1784 
Q 1138 1509 1431 1259 
Q 1788 2138 1844 3634 
z
" transform="scale(0.015625)"/>
        <path id="MicrosoftYaHei-4e50" d="M 963 4803 
Q 3331 4853 5450 5091 
L 5619 4603 
Q 3394 4397 1425 4359 
L 1188 2559 
L 3013 2559 
L 3013 3978 
L 3531 3978 
L 3531 2559 
L 5994 2559 
L 5994 2084 
L 3531 2084 
L 3531 122 
Q 3531 -359 3356 -541 
Q 3163 -741 2725 -741 
Q 2494 -741 1894 -734 
Q 1863 -484 1794 -197 
Q 2425 -253 2613 -247 
Q 3013 -259 3013 166 
L 3013 2084 
L 600 2084 
L 963 4803 
z
M 4669 1722 
Q 5588 791 6319 -128 
L 5900 -503 
Q 5175 447 4275 1422 
L 4669 1722 
z
M 1688 1709 
L 2125 1403 
Q 1219 197 488 -503 
Q 313 -347 94 -153 
Q 956 703 1688 1709 
z
" transform="scale(0.015625)"/>
       </defs>
       <use xlink:href="#MicrosoftYaHei-5a31"/>
       <use xlink:href="#MicrosoftYaHei-4e50" transform="translate(100 0)"/>
      </g>
     </g>
    </g>
    <g id="xtick_4">
     <g id="line2d_4">
      <g>
       <use xlink:href="#m08f7fd9e60" x="297.819576" y="227.644875" style="stroke: #000000; stroke-width: 0.8"/>
      </g>
     </g>
     <g id="text_4">
      <!-- 运动 -->
      <g transform="translate(288.819576 241.83925) scale(0.09 -0.09)">
       <defs>
        <path id="MicrosoftYaHei-8fd0" d="M 4319 2197 
L 4713 2447 
Q 5419 1522 5963 666 
L 5513 359 
Q 5372 597 5225 834 
Q 3450 722 2681 622 
Q 2469 591 2238 516 
L 2006 966 
Q 2250 1134 2413 1366 
Q 2838 2009 3250 2859 
L 1919 2859 
L 1919 3334 
L 6200 3334 
L 6200 2859 
L 3844 2859 
Q 3303 1866 2800 1116 
Q 3750 1172 4959 1253 
Q 4650 1731 4319 2197 
z
M 2756 -141 
L 4588 -178 
L 6313 -109 
Q 6206 -366 6113 -609 
L 4250 -622 
L 2650 -603 
Q 1656 -578 1156 122 
Q 769 -209 369 -697 
L 100 -166 
Q 116 -147 931 547 
L 931 2678 
L 131 2678 
L 131 3141 
L 1431 3141 
L 1431 459 
Q 1903 -125 2756 -141 
z
M 2338 4947 
L 5838 4947 
L 5838 4472 
L 2338 4472 
L 2338 4947 
z
M 794 5278 
Q 1275 4697 1744 4078 
L 1300 3778 
Q 881 4403 413 5003 
L 794 5278 
z
" transform="scale(0.015625)"/>
        <path id="MicrosoftYaHei-52a8" d="M 2975 4022 
L 3906 4022 
Q 3916 4650 3913 5309 
L 4425 5309 
Q 4422 4656 4409 4022 
L 6094 4022 
Q 6050 1659 5969 216 
Q 5900 -666 5150 -678 
Q 4763 -678 4306 -659 
Q 4263 -397 4206 -109 
Q 4638 -166 4994 -172 
Q 5456 -172 5475 347 
Q 5569 1897 5588 3547 
L 4400 3547 
Q 4394 3278 4388 3016 
Q 4356 553 2900 -872 
Q 2725 -659 2525 -447 
Q 3831 716 3888 3028 
Q 3894 3284 3900 3547 
L 2975 3547 
L 2975 4022 
z
M 2338 1866 
Q 2731 1016 3063 178 
Q 2788 59 2594 -28 
Q 2550 91 2506 209 
Q 1316 97 338 -16 
L 119 491 
Q 394 647 563 997 
Q 869 1613 1200 2559 
L 144 2559 
L 144 3022 
L 3163 3022 
L 3163 2559 
L 1725 2559 
Q 1191 1228 800 491 
Q 1519 544 2347 631 
Q 2138 1163 1906 1672 
L 2338 1866 
z
M 406 4778 
L 2913 4778 
L 2913 4316 
L 406 4316 
L 406 4778 
z
" transform="scale(0.015625)"/>
       </defs>
       <use xlink:href="#MicrosoftYaHei-8fd0"/>
       <use xlink:href="#MicrosoftYaHei-52a8" transform="translate(100 0)"/>
      </g>
      <!-- 锻炼 -->
      <g transform="translate(288.819576 252.709844) scale(0.09 -0.09)">
       <defs>
        <path id="MicrosoftYaHei-953b" d="M 3694 2003 
L 3694 2434 
L 5950 2434 
L 5950 2022 
Q 5675 1097 5128 425 
Q 5606 -34 6331 -291 
Q 6181 -472 6006 -759 
Q 5281 -453 4788 53 
Q 4209 -500 3400 -841 
Q 3288 -641 3119 -409 
Q 3934 -91 4484 416 
Q 4006 1075 3828 2003 
L 3694 2003 
z
M 125 1972 
L 819 1972 
L 819 2816 
L 531 2816 
L 531 3200 
Q 463 3072 388 2947 
Q 238 3184 88 3359 
Q 594 4159 850 5316 
L 1300 5216 
Q 1191 4781 1050 4384 
L 2031 4384 
L 2031 3966 
L 891 3966 
Q 734 3581 550 3234 
L 1856 3234 
L 1856 2816 
L 1250 2816 
L 1250 1972 
L 2000 1972 
L 2000 1553 
L 1250 1553 
L 1250 47 
Q 1575 222 1919 434 
Q 1938 159 1988 -22 
Q 1606 -234 1250 -472 
Q 1031 -628 919 -747 
L 613 -372 
Q 819 -197 819 122 
L 819 1553 
L 125 1553 
L 125 1972 
z
M 1719 984 
Q 1959 1019 2231 1063 
L 2231 4928 
Q 2981 4991 3588 5147 
L 3756 4722 
Q 3275 4622 2669 4553 
L 2669 3766 
L 3563 3766 
L 3563 3347 
L 2669 3347 
L 2669 2497 
L 3525 2497 
L 3525 2078 
L 2669 2078 
L 2669 1131 
Q 3119 1209 3638 1303 
Q 3631 1178 3631 853 
Q 3106 763 2669 678 
L 2669 -828 
L 2231 -828 
L 2231 594 
Q 2019 550 1831 509 
L 1719 984 
z
M 5925 3228 
Q 6019 3228 6338 3241 
L 6250 2797 
Q 6006 2791 5831 2791 
Q 5213 2791 5213 3459 
L 5213 4584 
L 4488 4584 
L 4488 4122 
Q 4488 3072 3869 2497 
Q 3675 2697 3531 2803 
Q 4063 3247 4063 4134 
L 4063 5009 
L 5638 5009 
L 5638 3503 
Q 5638 3228 5925 3228 
z
M 5450 2003 
L 4288 2003 
Q 4438 1291 4822 772 
Q 5253 1306 5450 2003 
z
" transform="scale(0.015625)"/>
        <path id="MicrosoftYaHei-70bc" d="M 2263 4578 
L 3309 4578 
Q 3419 4944 3525 5341 
L 4031 5341 
Q 3916 4950 3800 4578 
L 6163 4578 
L 6163 4141 
L 3659 4141 
Q 3534 3759 3409 3397 
L 4619 3397 
L 4619 2128 
L 6156 2128 
L 6156 1691 
L 4619 1691 
L 4619 22 
Q 4619 -716 3888 -716 
Q 3681 -716 3194 -703 
Q 3169 -447 3113 -191 
Q 3569 -241 3819 -241 
Q 4150 -241 4150 78 
L 4150 1691 
L 2438 1691 
L 2438 2128 
Q 2606 2516 2772 2959 
L 2300 2959 
L 2300 3397 
L 2931 3397 
Q 3056 3753 3175 4141 
L 2263 4141 
L 2263 4578 
z
M 975 5272 
L 1431 5272 
Q 1425 2141 1306 1578 
L 1550 1722 
Q 1938 1128 2313 391 
L 1894 134 
Q 1613 778 1272 1350 
Q 1044 -31 400 -759 
Q 256 -572 63 -378 
Q 944 647 950 2966 
Q 975 3928 975 5272 
z
M 2944 2128 
L 4150 2128 
L 4150 2959 
L 3256 2959 
Q 3100 2531 2944 2128 
z
M 3113 1384 
L 3531 1159 
Q 3050 291 2513 -441 
Q 2363 -322 2119 -172 
Q 2688 547 3113 1384 
z
M 5031 1147 
L 5413 1359 
Q 5881 678 6338 -109 
L 5888 -359 
Q 5456 472 5031 1147 
z
M 1406 2747 
Q 1656 3316 1956 4166 
L 2369 3978 
Q 2081 3234 1775 2566 
L 1406 2747 
z
M 63 3959 
L 450 4084 
Q 650 3441 881 2653 
L 444 2484 
Q 219 3428 63 3959 
z
" transform="scale(0.015625)"/>
       </defs>
       <use xlink:href="#MicrosoftYaHei-953b"/>
       <use xlink:href="#MicrosoftYaHei-70bc" transform="translate(100 0)"/>
      </g>
     </g>
    </g>
    <g id="xtick_5">
     <g id="line2d_5">
      <g>
       <use xlink:href="#m08f7fd9e60" x="366.431852" y="227.644875" style="stroke: #000000; stroke-width: 0.8"/>
      </g>
     </g>
     <g id="text_5">
      <!-- 用餐 -->
      <g transform="translate(357.431852 241.83925) scale(0.09 -0.09)">
       <defs>
        <path id="MicrosoftYaHei-7528" d="M 3088 -734 
L 3088 1253 
L 1269 1253 
Q 1163 -47 513 -903 
Q 350 -697 144 -472 
Q 550 103 694 803 
Q 831 1478 831 2716 
L 831 4947 
L 5925 4947 
L 5925 -22 
Q 5925 -766 5219 -766 
Q 4788 -766 4250 -747 
Q 4219 -541 4156 -228 
Q 4700 -266 5038 -266 
Q 5425 -266 5425 103 
L 5425 1253 
L 3588 1253 
L 3588 -734 
L 3088 -734 
z
M 3588 1703 
L 5425 1703 
L 5425 2872 
L 3588 2872 
L 3588 1703 
z
M 5425 4484 
L 3588 4484 
L 3588 3322 
L 5425 3322 
L 5425 4484 
z
M 1303 1703 
L 3088 1703 
L 3088 2872 
L 1331 2872 
Q 1350 2266 1303 1703 
z
M 1331 4484 
L 1331 3322 
L 3088 3322 
L 3088 4484 
L 1331 4484 
z
" transform="scale(0.015625)"/>
        <path id="MicrosoftYaHei-9910" d="M 3581 3347 
L 3475 3222 
Q 4719 2228 6381 1753 
Q 6231 1566 6088 1341 
Q 5475 1572 4938 1828 
L 4938 372 
Q 5175 509 5419 684 
L 5694 359 
Q 5275 122 4769 -122 
Q 5381 -303 5894 -472 
L 5694 -859 
Q 4244 -322 2700 72 
L 2856 397 
Q 3619 197 4281 16 
Q 4613 184 4863 328 
L 4538 328 
L 4538 472 
L 1831 472 
L 1831 -359 
Q 2344 -259 3150 -78 
Q 3138 -266 3138 -484 
Q 2363 -628 1788 -772 
Q 1663 -809 1506 -891 
L 1263 -516 
Q 1419 -384 1419 -191 
L 1419 1747 
Q 881 1447 319 1191 
Q 200 1397 63 1566 
Q 1875 2297 3106 3347 
L 3581 3347 
z
M 906 3391 
L 1163 3641 
Q 1456 3422 1706 3216 
Q 2138 3497 2488 3853 
L 1038 3853 
Q 781 3553 475 3291 
Q 281 3441 131 3522 
Q 763 4028 1125 4622 
L 1513 4509 
Q 1406 4334 1288 4178 
L 1788 4178 
L 1788 5309 
L 2200 5309 
L 2200 4941 
L 3238 4941 
L 3238 4616 
L 2200 4616 
L 2200 4178 
L 2963 4178 
L 2963 3834 
Q 2000 2728 406 2159 
Q 294 2334 125 2509 
Q 800 2703 1363 3003 
Q 1181 3166 906 3391 
z
M 3538 4103 
L 3763 4397 
Q 4225 4166 4688 3928 
Q 5106 4228 5463 4634 
L 3631 4634 
L 3631 4991 
L 5975 4991 
L 5975 4653 
Q 5563 4116 5075 3728 
Q 5619 3441 6163 3141 
L 5894 2772 
Q 5300 3122 4713 3459 
Q 4344 3216 3944 3047 
Q 3819 3197 3644 3391 
Q 3988 3509 4300 3684 
Q 3919 3897 3538 4103 
z
M 4538 784 
L 4538 1134 
L 1831 1134 
L 1831 784 
L 4538 784 
z
M 1831 1778 
L 1831 1434 
L 4538 1434 
L 4538 1778 
L 1831 1778 
z
M 2881 2441 
L 3250 2584 
Q 3400 2347 3513 2091 
L 4469 2091 
Q 3881 2416 3213 2947 
Q 2631 2491 1988 2091 
L 3075 2091 
Q 2981 2272 2881 2441 
z
" transform="scale(0.015625)"/>
       </defs>
       <use xlink:href="#MicrosoftYaHei-7528"/>
       <use xlink:href="#MicrosoftYaHei-9910" transform="translate(100 0)"/>
      </g>
     </g>
    </g>
    <g id="xtick_6">
     <g id="line2d_6">
      <g>
       <use xlink:href="#m08f7fd9e60" x="435.044129" y="227.644875" style="stroke: #000000; stroke-width: 0.8"/>
      </g>
     </g>
     <g id="text_6">
      <!-- 其他 -->
      <g transform="translate(426.044129 241.83925) scale(0.09 -0.09)">
       <defs>
        <path id="MicrosoftYaHei-5176" d="M 5206 5284 
L 5206 4509 
L 6150 4509 
L 6150 4059 
L 5206 4059 
L 5206 1153 
L 6288 1153 
L 6288 703 
L 125 703 
L 125 1153 
L 1194 1153 
L 1194 4059 
L 250 4059 
L 250 4509 
L 1194 4509 
L 1194 5284 
L 1675 5284 
L 1675 4509 
L 4725 4509 
L 4725 5284 
L 5206 5284 
z
M 1675 1153 
L 4725 1153 
L 4725 1834 
L 1675 1834 
L 1675 1153 
z
M 1675 2272 
L 4725 2272 
L 4725 2947 
L 1675 2947 
L 1675 2272 
z
M 1675 3384 
L 4725 3384 
L 4725 4059 
L 1675 4059 
L 1675 3384 
z
M 3794 184 
L 4069 609 
Q 5581 3 6306 -353 
L 6044 -841 
Q 4975 -284 3794 184 
z
M 2269 603 
L 2569 184 
Q 1381 -472 350 -872 
Q 269 -672 94 -403 
Q 1400 72 2269 603 
z
" transform="scale(0.015625)"/>
        <path id="MicrosoftYaHei-4ed6" d="M 3850 5259 
L 4338 5259 
L 4338 3706 
L 5963 4078 
Q 5919 2691 5894 2159 
Q 5863 1603 5713 1428 
Q 5544 1216 5113 1216 
Q 4919 1216 4619 1228 
Q 4581 1466 4525 1741 
Q 4794 1709 5063 1697 
Q 5400 1678 5413 2184 
Q 5444 2709 5456 3497 
L 4338 3238 
L 4338 466 
L 3850 466 
L 3850 3122 
L 2800 2878 
L 2800 353 
Q 2800 -172 3319 -172 
L 5056 -172 
Q 5625 -172 5706 247 
Q 5788 647 5844 1216 
Q 6106 1116 6363 1041 
Q 6281 447 6181 41 
Q 6025 -647 5138 -647 
L 3219 -647 
Q 2313 -647 2313 253 
L 2313 2766 
L 1750 2634 
L 1669 3097 
L 2313 3244 
L 2313 4528 
L 2800 4528 
L 2800 3353 
L 3850 3594 
L 3850 5259 
z
M 50 2366 
Q 1019 3672 1519 5322 
L 2025 5153 
Q 1719 4300 1363 3578 
L 1363 -816 
L 888 -816 
L 888 2716 
Q 584 2225 250 1809 
Q 156 2078 50 2366 
z
" transform="scale(0.015625)"/>
       </defs>
       <use xlink:href="#MicrosoftYaHei-5176"/>
       <use xlink:href="#MicrosoftYaHei-4ed6" transform="translate(100 0)"/>
      </g>
     </g>
    </g>
   </g>
   <g id="matplotlib.axis_2">
    <g id="ytick_1">
     <g id="line2d_7">
      <defs>
       <path id="m9da9775894" d="M 0 0 
L -3.5 0 
" style="stroke: #000000; stroke-width: 0.8"/>
      </defs>
      <g>
       <use xlink:href="#m9da9775894" x="42.753437" y="227.644875" style="stroke: #000000; stroke-width: 0.8"/>
      </g>
     </g>
     <g id="text_7">
      <!-- 0 -->
      <g transform="translate(28.716562 232.441125) scale(0.12 -0.12)">
       <defs>
        <path id="MicrosoftYaHei-30" d="M 284 2325 
Q 284 3606 709 4264 
Q 1134 4922 1941 4922 
Q 3478 4922 3478 2441 
Q 3478 1216 3045 567 
Q 2613 -81 1831 -81 
Q 1094 -81 689 534 
Q 284 1150 284 2325 
z
M 909 2353 
Q 909 425 1888 425 
Q 2850 425 2850 2384 
Q 2850 4413 1906 4413 
Q 909 4413 909 2353 
z
" transform="scale(0.015625)"/>
       </defs>
       <use xlink:href="#MicrosoftYaHei-30"/>
      </g>
     </g>
    </g>
    <g id="ytick_2">
     <g id="line2d_8">
      <g>
       <use xlink:href="#m9da9775894" x="42.753437" y="186.834275" style="stroke: #000000; stroke-width: 0.8"/>
      </g>
     </g>
     <g id="text_8">
      <!-- 2 -->
      <g transform="translate(28.716562 191.630525) scale(0.12 -0.12)">
       <defs>
        <path id="MicrosoftYaHei-32" d="M 2666 3572 
Q 2666 3963 2419 4186 
Q 2172 4409 1747 4409 
Q 1447 4409 1140 4256 
Q 834 4103 569 3819 
L 569 4413 
Q 806 4659 1107 4790 
Q 1409 4922 1816 4922 
Q 2472 4922 2872 4570 
Q 3272 4219 3272 3619 
Q 3272 3084 3026 2693 
Q 2781 2303 2188 1894 
Q 1581 1475 1376 1294 
Q 1172 1113 1090 947 
Q 1009 781 1009 544 
L 3416 544 
L 3416 0 
L 372 0 
L 372 241 
Q 372 659 486 951 
Q 600 1244 862 1520 
Q 1125 1797 1681 2184 
Q 2250 2584 2458 2886 
Q 2666 3188 2666 3572 
z
" transform="scale(0.015625)"/>
       </defs>
       <use xlink:href="#MicrosoftYaHei-32"/>
      </g>
     </g>
    </g>
    <g id="ytick_3">
     <g id="line2d_9">
      <g>
       <use xlink:href="#m9da9775894" x="42.753437" y="146.023675" style="stroke: #000000; stroke-width: 0.8"/>
      </g>
     </g>
     <g id="text_9">
      <!-- 4 -->
      <g transform="translate(28.716562 150.819925) scale(0.12 -0.12)">
       <defs>
        <path id="MicrosoftYaHei-34" d="M 2906 4841 
L 2906 1644 
L 3631 1644 
L 3631 1138 
L 2906 1138 
L 2906 0 
L 2313 0 
L 2313 1138 
L 53 1138 
L 53 1616 
Q 656 2294 1265 3178 
Q 1875 4063 2272 4841 
L 2906 4841 
z
M 741 1644 
L 2313 1644 
L 2313 3950 
Q 1988 3366 1616 2817 
Q 1244 2269 741 1644 
z
" transform="scale(0.015625)"/>
       </defs>
       <use xlink:href="#MicrosoftYaHei-34"/>
      </g>
     </g>
    </g>
    <g id="ytick_4">
     <g id="line2d_10">
      <g>
       <use xlink:href="#m9da9775894" x="42.753437" y="105.213075" style="stroke: #000000; stroke-width: 0.8"/>
      </g>
     </g>
     <g id="text_10">
      <!-- 6 -->
      <g transform="translate(28.716562 110.009325) scale(0.12 -0.12)">
       <defs>
        <path id="MicrosoftYaHei-36" d="M 3181 4219 
Q 2803 4413 2391 4413 
Q 1763 4413 1381 3866 
Q 1000 3319 994 2372 
L 1009 2372 
Q 1353 3038 2106 3038 
Q 2734 3038 3109 2628 
Q 3484 2219 3484 1541 
Q 3484 831 3051 375 
Q 2619 -81 1947 -81 
Q 1209 -81 789 495 
Q 369 1072 369 2131 
Q 369 3413 920 4167 
Q 1472 4922 2372 4922 
Q 2888 4922 3181 4781 
L 3181 4219 
z
M 1031 1584 
Q 1031 1106 1286 765 
Q 1541 425 1963 425 
Q 2363 425 2613 719 
Q 2863 1013 2863 1475 
Q 2863 1975 2627 2253 
Q 2391 2531 1956 2531 
Q 1544 2531 1287 2250 
Q 1031 1969 1031 1584 
z
" transform="scale(0.015625)"/>
       </defs>
       <use xlink:href="#MicrosoftYaHei-36"/>
      </g>
     </g>
    </g>
    <g id="ytick_5">
     <g id="line2d_11">
      <g>
       <use xlink:href="#m9da9775894" x="42.753437" y="64.402475" style="stroke: #000000; stroke-width: 0.8"/>
      </g>
     </g>
     <g id="text_11">
      <!-- 8 -->
      <g transform="translate(28.716562 69.198725) scale(0.12 -0.12)">
       <defs>
        <path id="MicrosoftYaHei-38" d="M 306 1350 
Q 306 1769 556 2122 
Q 806 2475 1200 2625 
Q 884 2803 700 3081 
Q 516 3359 516 3684 
Q 516 4028 692 4312 
Q 869 4597 1183 4759 
Q 1497 4922 1875 4922 
Q 2256 4922 2572 4761 
Q 2888 4600 3063 4315 
Q 3238 4031 3238 3684 
Q 3238 3366 3058 3086 
Q 2878 2806 2559 2625 
Q 2953 2472 3200 2119 
Q 3447 1766 3447 1350 
Q 3447 938 3250 611 
Q 3053 284 2690 103 
Q 2328 -78 1875 -78 
Q 1425 -78 1065 103 
Q 706 284 506 612 
Q 306 941 306 1350 
z
M 906 1378 
Q 906 947 1172 687 
Q 1438 428 1878 428 
Q 2309 428 2582 692 
Q 2856 956 2856 1378 
Q 2856 1778 2579 2051 
Q 2303 2325 1878 2325 
Q 1456 2325 1181 2058 
Q 906 1791 906 1378 
z
M 1081 3634 
Q 1081 3309 1312 3076 
Q 1544 2844 1878 2844 
Q 2206 2844 2445 3078 
Q 2684 3313 2684 3634 
Q 2684 3963 2454 4191 
Q 2225 4419 1878 4419 
Q 1534 4419 1307 4195 
Q 1081 3972 1081 3634 
z
" transform="scale(0.015625)"/>
       </defs>
       <use xlink:href="#MicrosoftYaHei-38"/>
      </g>
     </g>
    </g>
    <g id="ytick_6">
     <g id="line2d_12">
      <g>
       <use xlink:href="#m9da9775894" x="42.753437" y="23.591875" style="stroke: #000000; stroke-width: 0.8"/>
      </g>
     </g>
     <g id="text_12">
      <!-- 10 -->
      <g transform="translate(21.679688 28.388125) scale(0.12 -0.12)">
       <defs>
        <path id="MicrosoftYaHei-31" d="M 1781 0 
L 1781 4141 
Q 1638 3997 1295 3819 
Q 953 3641 663 3569 
L 663 4169 
Q 1047 4275 1484 4508 
Q 1922 4741 2156 4947 
L 2388 4947 
L 2388 0 
L 1781 0 
z
" transform="scale(0.015625)"/>
       </defs>
       <use xlink:href="#MicrosoftYaHei-31"/>
       <use xlink:href="#MicrosoftYaHei-30" transform="translate(58.642578 0)"/>
      </g>
     </g>
    </g>
    <g id="text_13">
     <!-- 小时/天 -->
     <g transform="translate(15.19375 142.754313) rotate(-90) scale(0.1 -0.1)">
      <defs>
       <path id="MicrosoftYaHei-5c0f" d="M 1513 3878 
L 2025 3697 
Q 1425 1984 625 478 
Q 413 609 113 759 
Q 831 1972 1513 3878 
z
M 4300 3641 
L 4769 3866 
Q 5563 2422 6319 828 
L 5750 559 
Q 4988 2328 4300 3641 
z
M 3000 5247 
L 3556 5247 
L 3556 66 
Q 3556 -747 2675 -747 
Q 2325 -747 1744 -728 
Q 1700 -453 1638 -141 
Q 2238 -197 2556 -197 
Q 3000 -197 3000 203 
L 3000 5247 
z
" transform="scale(0.015625)"/>
       <path id="MicrosoftYaHei-65f6" d="M 344 4728 
L 2500 4728 
L 2500 -366 
L 2006 -366 
L 2006 153 
L 838 153 
L 838 -441 
L 344 -441 
L 344 4728 
z
M 2706 3941 
L 4925 3941 
L 4925 5322 
L 5425 5322 
L 5425 3941 
L 6313 3941 
L 6313 3478 
L 5425 3478 
L 5425 116 
Q 5425 -722 4625 -722 
Q 4263 -722 3563 -703 
Q 3531 -478 3463 -178 
Q 4119 -228 4488 -228 
Q 4925 -228 4925 216 
L 4925 3478 
L 2706 3478 
L 2706 3941 
z
M 838 616 
L 2006 616 
L 2006 2234 
L 838 2234 
L 838 616 
z
M 2006 4266 
L 838 4266 
L 838 2684 
L 2006 2684 
L 2006 4266 
z
M 3406 2878 
Q 3906 1966 4163 1422 
Q 4000 1347 3663 1172 
Q 3419 1766 2963 2653 
L 3406 2878 
z
" transform="scale(0.015625)"/>
       <path id="MicrosoftYaHei-2f" d="M 2791 4841 
L 469 -803 
L -103 -803 
L 2219 4841 
L 2791 4841 
z
" transform="scale(0.015625)"/>
       <path id="MicrosoftYaHei-5929" d="M 88 -353 
Q 2428 644 2813 2422 
L 169 2422 
L 169 2897 
L 2878 2897 
Q 2906 3341 2906 4428 
L 513 4428 
L 513 4903 
L 5913 4903 
L 5913 4428 
L 3456 4428 
Q 3450 3775 3431 2897 
L 6231 2897 
L 6231 2422 
L 3516 2422 
Q 4113 441 6319 -228 
Q 6063 -534 5888 -747 
Q 3850 75 3206 1969 
Q 2713 206 475 -828 
Q 344 -659 88 -353 
z
" transform="scale(0.015625)"/>
      </defs>
      <use xlink:href="#MicrosoftYaHei-5c0f"/>
      <use xlink:href="#MicrosoftYaHei-65f6" transform="translate(100 0)"/>
      <use xlink:href="#MicrosoftYaHei-2f" transform="translate(200 0)"/>
      <use xlink:href="#MicrosoftYaHei-5929" transform="translate(242.724609 0)"/>
     </g>
    </g>
   </g>
   <g id="patch_21">
    <path d="M 42.753437 227.644875 
L 42.753437 23.591875 
" style="fill: none; stroke: #000000; stroke-width: 0.8; stroke-linejoin: miter; stroke-linecap: square"/>
   </g>
   <g id="patch_22">
    <path d="M 42.753437 227.644875 
L 484.273438 227.644875 
" style="fill: none; stroke: #000000; stroke-width: 0.8; stroke-linejoin: miter; stroke-linecap: square"/>
   </g>
   <g id="text_14">
    <!-- 寒暑假是"弯道超车"的黄金期——每天多出3-4小时学习时间 -->
    <g style="fill: #999999" transform="translate(88.353036 241.928585) scale(0.08 -0.08)">
     <defs>
      <path id="MicrosoftYaHei-5bd2" d="M 6294 409 
Q 6113 203 5956 -9 
Q 4597 497 3853 1459 
L 2556 1459 
Q 1716 553 425 -103 
Q 281 97 100 284 
Q 1200 744 2003 1459 
L 288 1459 
L 288 1853 
L 2013 1853 
L 2013 2378 
L 738 2378 
L 738 2772 
L 2013 2772 
L 2013 3297 
L 600 3297 
L 600 3691 
L 2013 3691 
L 2013 4128 
L 2463 4128 
L 2463 3691 
L 3938 3691 
L 3938 4128 
L 4388 4128 
L 4388 3691 
L 5825 3691 
L 5825 3297 
L 4388 3297 
L 4388 2772 
L 5681 2772 
L 5681 2378 
L 4388 2378 
L 4388 1853 
L 6113 1853 
L 6113 1459 
L 4347 1459 
Q 5056 747 6294 409 
z
M 350 4722 
L 3034 4722 
Q 2913 4938 2769 5153 
L 3225 5366 
Q 3444 5047 3619 4722 
L 6069 4722 
L 6069 3797 
L 5606 3797 
L 5606 4309 
L 813 4309 
L 813 3797 
L 350 3797 
L 350 4722 
z
M 1613 -147 
L 1781 234 
Q 3113 -34 4813 -453 
L 4600 -866 
Q 2963 -441 1613 -147 
z
M 2263 691 
L 2425 1084 
Q 3231 922 4394 666 
L 4225 253 
Q 3281 491 2263 691 
z
M 2463 1853 
L 3938 1853 
L 3938 2378 
L 2463 2378 
L 2463 1853 
z
M 2463 2772 
L 3938 2772 
L 3938 3297 
L 2463 3297 
L 2463 2772 
z
" transform="scale(0.015625)"/>
      <path id="MicrosoftYaHei-6691" d="M 119 834 
Q 1638 1241 2981 1803 
L 256 1803 
L 256 2166 
L 2769 2166 
L 2769 2591 
L 906 2591 
L 906 2947 
L 2769 2947 
L 2769 3266 
L 3231 3266 
L 3231 2947 
L 4669 2947 
L 4669 2609 
Q 5194 2897 5694 3216 
L 6006 2891 
Q 5381 2509 4700 2166 
L 6275 2166 
L 6275 1803 
L 3950 1803 
Q 3431 1559 2875 1334 
L 5413 1334 
L 5413 -866 
L 4963 -866 
L 4963 -659 
L 1869 -659 
L 1869 -866 
L 1419 -866 
L 1419 784 
Q 881 597 325 428 
Q 231 647 119 834 
z
M 925 5066 
L 5463 5066 
L 5463 3203 
L 5025 3203 
L 5025 3334 
L 1363 3334 
L 1363 3203 
L 925 3203 
L 925 5066 
z
M 1869 -297 
L 4963 -297 
L 4963 178 
L 1869 178 
L 1869 -297 
z
M 4963 984 
L 1969 984 
L 1869 947 
L 1869 516 
L 4963 516 
L 4963 984 
z
M 1363 3691 
L 5025 3691 
L 5025 4047 
L 1363 4047 
L 1363 3691 
z
M 5025 4716 
L 1363 4716 
L 1363 4384 
L 5025 4384 
L 5025 4716 
z
M 4631 2591 
L 3231 2591 
L 3231 2166 
L 3794 2166 
Q 4219 2366 4631 2591 
z
" transform="scale(0.015625)"/>
      <path id="MicrosoftYaHei-5047" d="M 3763 4953 
L 3763 2841 
L 3325 2841 
L 3325 3034 
L 2319 3034 
L 2319 2247 
L 3625 2247 
L 3625 1847 
L 2319 1847 
L 2319 1047 
L 3706 1047 
L 3706 647 
L 2319 647 
L 2319 -847 
L 1856 -847 
L 1856 4953 
L 3763 4953 
z
M 3756 2109 
L 3756 2497 
L 5963 2497 
L 5963 2122 
Q 5763 1094 5191 369 
Q 5663 -106 6381 -378 
Q 6138 -659 6031 -816 
Q 5350 -463 4888 34 
Q 4309 -531 3450 -872 
Q 3325 -684 3156 -472 
Q 4044 -159 4606 375 
Q 4081 1109 3941 2109 
L 3756 2109 
z
M 63 2247 
Q 863 3666 1175 5316 
L 1638 5228 
Q 1478 4528 1256 3881 
L 1256 -859 
L 819 -859 
L 819 2788 
Q 566 2244 263 1741 
Q 181 1984 63 2247 
z
M 3969 3447 
L 5475 3447 
L 5475 4559 
L 4006 4559 
L 4006 4959 
L 5913 4959 
L 5913 2809 
L 5475 2809 
L 5475 3047 
L 3969 3047 
L 3969 3447 
z
M 3325 4553 
L 2319 4553 
L 2319 3434 
L 3325 3434 
L 3325 4553 
z
M 5513 2109 
L 4350 2109 
Q 4484 1288 4903 703 
Q 5366 1297 5513 2109 
z
" transform="scale(0.015625)"/>
      <path id="MicrosoftYaHei-662f" d="M 1088 5078 
L 5338 5078 
L 5338 2472 
L 4863 2472 
L 4863 2722 
L 1563 2722 
L 1563 2472 
L 1088 2472 
L 1088 5078 
z
M 1400 1553 
L 1875 1409 
Q 1775 1081 1647 788 
Q 2122 19 3063 -134 
L 3063 1747 
L 213 1747 
L 213 2184 
L 6225 2184 
L 6225 1747 
L 3563 1747 
L 3563 1122 
L 5788 1122 
L 5788 697 
L 3563 697 
L 3563 -172 
Q 4763 -197 6344 -147 
Q 6244 -416 6169 -641 
Q 4331 -647 3344 -622 
Q 2022 -606 1434 359 
Q 1006 -413 350 -891 
Q 225 -703 44 -484 
Q 1050 191 1400 1553 
z
M 1563 3147 
L 4863 3147 
L 4863 3697 
L 1563 3697 
L 1563 3147 
z
M 4863 4653 
L 1563 4653 
L 1563 4109 
L 4863 4109 
L 4863 4653 
z
" transform="scale(0.015625)"/>
      <path id="MicrosoftYaHei-22" d="M 1284 4847 
L 1181 3341 
L 763 3341 
L 663 4847 
L 1284 4847 
z
M 2128 4847 
L 2028 3341 
L 1606 3341 
L 1503 4847 
L 2128 4847 
z
" transform="scale(0.015625)"/>
      <path id="MicrosoftYaHei-5f2f" d="M 863 2822 
L 5288 2822 
L 5288 1347 
L 4825 1347 
L 4825 1516 
L 1356 1516 
L 1281 1047 
L 5581 1047 
Q 5544 547 5500 178 
Q 5400 -759 4425 -759 
Q 3981 -753 3044 -734 
Q 3025 -503 2956 -234 
Q 3794 -291 4425 -291 
Q 4950 -291 5025 241 
Q 5056 434 5081 628 
L 738 628 
L 969 1934 
L 4825 1934 
L 4825 2403 
L 863 2403 
L 863 2822 
z
M 238 4709 
L 3006 4709 
Q 2900 4944 2763 5203 
L 3219 5366 
Q 3400 5009 3528 4709 
L 6188 4709 
L 6188 4278 
L 4088 4278 
L 4088 3009 
L 3625 3009 
L 3625 4278 
L 2775 4278 
L 2775 3009 
L 2313 3009 
L 2313 4278 
L 238 4278 
L 238 4709 
z
M 4750 4116 
Q 5688 3553 6306 3066 
L 6000 2672 
Q 5431 3153 4481 3772 
L 4750 4116 
z
M 1513 4128 
L 1888 3841 
Q 1138 3128 438 2616 
Q 275 2791 88 2959 
Q 844 3459 1513 4128 
z
" transform="scale(0.015625)"/>
      <path id="MicrosoftYaHei-9053" d="M 2213 3559 
L 3500 3559 
L 3622 4103 
L 1856 4103 
L 1856 4516 
L 3031 4516 
Q 2884 4725 2575 5097 
L 2938 5366 
Q 3263 5016 3494 4728 
L 3209 4516 
L 4359 4516 
Q 4631 4891 4906 5347 
L 5381 5103 
Q 5181 4847 4903 4516 
L 6231 4516 
L 6231 4103 
L 4128 4103 
L 3969 3559 
L 5775 3559 
L 5775 153 
L 5313 153 
L 5313 384 
L 2675 384 
L 2675 153 
L 2213 153 
L 2213 3559 
z
M 2688 -228 
L 4200 -247 
L 6319 -197 
Q 6213 -441 6113 -678 
L 4031 -697 
L 2644 -672 
Q 1594 -666 1088 47 
Q 906 -97 356 -753 
L 88 -222 
Q 494 141 875 469 
L 875 2641 
L 150 2641 
L 150 3097 
L 1350 3097 
L 1350 363 
Q 1803 -200 2688 -228 
z
M 2675 766 
L 5313 766 
L 5313 1328 
L 2675 1328 
L 2675 766 
z
M 2675 1697 
L 5313 1697 
L 5313 2253 
L 2675 2253 
L 2675 1697 
z
M 5313 3178 
L 2675 3178 
L 2675 2622 
L 5313 2622 
L 5313 3178 
z
M 700 5178 
Q 1131 4678 1550 4091 
L 1113 3791 
Q 694 4441 319 4903 
L 700 5178 
z
" transform="scale(0.015625)"/>
      <path id="MicrosoftYaHei-8d85" d="M 106 -266 
Q 581 566 619 2241 
L 1081 2216 
Q 1059 1606 991 1091 
Q 1213 603 1581 306 
L 1581 2616 
L 138 2616 
L 138 3072 
L 1388 3072 
L 1388 3966 
L 356 3966 
L 356 4422 
L 1388 4422 
L 1388 5309 
L 1875 5309 
L 1875 4422 
L 2806 4422 
L 2806 3966 
L 1875 3966 
L 1875 3072 
L 2888 3072 
L 2888 2616 
L 2050 2616 
L 2050 1647 
L 2944 1647 
L 2944 1197 
L 2050 1197 
L 2050 28 
Q 2500 -159 3094 -166 
Q 4281 -184 6313 -141 
Q 6200 -422 6138 -634 
Q 4250 -641 2938 -616 
Q 1428 -584 884 472 
Q 706 -341 381 -853 
Q 256 -559 106 -266 
z
M 3275 2447 
L 5888 2447 
L 5888 209 
L 5425 209 
L 5425 478 
L 3738 478 
L 3738 172 
L 3275 172 
L 3275 2447 
z
M 2969 4616 
L 2969 5041 
L 5956 5041 
Q 5925 4184 5869 3603 
Q 5800 2884 5125 2866 
Q 4788 2859 4344 2884 
Q 4306 3116 4250 3384 
Q 4713 3309 5031 3316 
Q 5388 3316 5425 3716 
Q 5469 4072 5488 4616 
L 4303 4616 
Q 4250 3203 3250 2641 
Q 3131 2834 2944 3041 
Q 3813 3516 3831 4616 
L 2969 4616 
z
M 5425 2022 
L 3738 2022 
L 3738 903 
L 5425 903 
L 5425 2022 
z
" transform="scale(0.015625)"/>
      <path id="MicrosoftYaHei-8f66" d="M 163 922 
L 3206 922 
L 3206 1991 
L 913 1991 
L 913 2447 
Q 1334 3200 1688 3909 
L 400 3909 
L 400 4372 
L 1913 4372 
Q 2156 4878 2363 5359 
L 2831 5216 
Q 2625 4772 2434 4372 
L 5950 4372 
L 5950 3909 
L 2209 3909 
Q 1797 3063 1456 2441 
L 3206 2441 
L 3206 3647 
L 3694 3647 
L 3694 2441 
L 5500 2441 
L 5500 1991 
L 3694 1991 
L 3694 922 
L 6188 922 
L 6188 459 
L 3694 459 
L 3694 -853 
L 3206 -853 
L 3206 459 
L 163 459 
L 163 922 
z
" transform="scale(0.015625)"/>
      <path id="MicrosoftYaHei-7684" d="M 356 4284 
L 988 4284 
Q 1219 4853 1369 5322 
L 1894 5172 
Q 1697 4694 1513 4284 
L 2763 4284 
L 2763 -691 
L 2263 -691 
L 2263 -203 
L 856 -203 
L 856 -734 
L 356 -734 
L 356 4284 
z
M 2856 3003 
Q 3444 3934 3850 5322 
L 4375 5191 
Q 4216 4719 4050 4303 
L 6063 4303 
Q 5988 1091 5938 259 
Q 5894 -722 4906 -722 
Q 4338 -722 3750 -684 
Q 3713 -372 3650 -128 
L 3669 -128 
Q 4294 -216 4813 -216 
Q 5381 -216 5425 384 
Q 5494 1316 5525 3834 
L 3850 3834 
Q 3578 3231 3288 2772 
Q 3119 2891 2856 3003 
z
M 856 266 
L 2263 266 
L 2263 1847 
L 856 1847 
L 856 266 
z
M 2263 3816 
L 856 3816 
L 856 2297 
L 2263 2297 
L 2263 3816 
z
M 3406 2578 
L 3788 2859 
Q 4481 2041 4894 1441 
L 4431 1116 
Q 3988 1841 3406 2578 
z
" transform="scale(0.015625)"/>
      <path id="MicrosoftYaHei-9ec4" d="M 900 2759 
L 2963 2759 
L 2963 3303 
L 175 3303 
L 175 3728 
L 1869 3728 
L 1869 4328 
L 369 4328 
L 369 4753 
L 1869 4753 
L 1869 5341 
L 2344 5341 
L 2344 4753 
L 4069 4753 
L 4069 5341 
L 4544 5341 
L 4544 4753 
L 6044 4753 
L 6044 4328 
L 4544 4328 
L 4544 3728 
L 6250 3728 
L 6250 3303 
L 3438 3303 
L 3438 2759 
L 5506 2759 
L 5506 172 
L 5038 172 
L 5038 359 
L 1369 359 
L 1369 172 
L 900 172 
L 900 2759 
z
M 3744 -134 
L 3925 241 
Q 5250 -109 6156 -422 
L 5956 -847 
Q 4788 -453 3744 -134 
z
M 2344 3728 
L 4069 3728 
L 4069 4328 
L 2344 4328 
L 2344 3728 
z
M 2325 241 
L 2600 -153 
Q 1513 -622 456 -909 
Q 369 -722 238 -484 
Q 1363 -209 2325 241 
z
M 5038 2347 
L 3438 2347 
L 3438 1759 
L 5038 1759 
L 5038 2347 
z
M 3438 772 
L 5038 772 
L 5038 1359 
L 3438 1359 
L 3438 772 
z
M 1369 1759 
L 2963 1759 
L 2963 2347 
L 1369 2347 
L 1369 1759 
z
M 1369 772 
L 2963 772 
L 2963 1359 
L 1369 1359 
L 1369 772 
z
" transform="scale(0.015625)"/>
      <path id="MicrosoftYaHei-91d1" d="M 300 -141 
L 2950 -141 
L 2950 1384 
L 713 1384 
L 713 1841 
L 2950 1841 
L 2950 2716 
L 1325 2716 
L 1325 3153 
Q 881 2872 363 2591 
Q 231 2828 50 3059 
Q 2131 4034 2994 5297 
L 3675 5297 
L 3531 5122 
Q 4525 3853 6344 3147 
Q 6175 2909 6013 2647 
Q 5525 2853 5069 3141 
L 5069 2716 
L 3450 2716 
L 3450 1841 
L 5675 1841 
L 5675 1384 
L 3450 1384 
L 3450 -141 
L 6113 -141 
L 6113 -603 
L 300 -603 
L 300 -141 
z
M 3206 4766 
Q 2563 3953 1350 3172 
L 5019 3172 
Q 4044 3791 3206 4766 
z
M 4094 284 
Q 4600 809 4950 1309 
L 5388 1028 
Q 4950 484 4469 -16 
L 4094 284 
z
M 1000 1003 
L 1369 1297 
Q 1825 834 2263 334 
L 1838 -3 
Q 1463 491 1000 1003 
z
" transform="scale(0.015625)"/>
      <path id="MicrosoftYaHei-671f" d="M 3769 5066 
L 5981 5066 
L 5981 -3 
Q 5981 -741 5281 -741 
Q 4931 -741 4594 -722 
Q 4569 -516 4519 -241 
Q 4975 -284 5175 -284 
Q 5519 -284 5519 59 
L 5519 1372 
L 4181 1372 
Q 4113 3 3350 -903 
Q 3181 -728 2975 -553 
Q 3481 28 3619 653 
Q 3769 1253 3769 2741 
L 3769 5066 
z
M 125 1141 
L 713 1141 
L 713 4028 
L 200 4028 
L 200 4453 
L 713 4453 
L 713 5216 
L 1175 5216 
L 1175 4453 
L 2475 4453 
L 2475 5241 
L 2938 5241 
L 2938 4453 
L 3444 4453 
L 3444 4028 
L 2938 4028 
L 2938 1141 
L 3438 1141 
L 3438 716 
L 125 716 
L 125 1141 
z
M 4209 1784 
L 5519 1784 
L 5519 3009 
L 4231 3009 
Q 4238 2203 4209 1784 
z
M 5519 4641 
L 4231 4641 
L 4231 3422 
L 5519 3422 
L 5519 4641 
z
M 1175 1141 
L 2475 1141 
L 2475 1841 
L 1175 1841 
L 1175 1141 
z
M 1175 2241 
L 2475 2241 
L 2475 2934 
L 1175 2934 
L 1175 2241 
z
M 1175 3334 
L 2475 3334 
L 2475 4028 
L 1175 4028 
L 1175 3334 
z
M 1175 597 
L 1556 297 
Q 925 -384 406 -847 
Q 275 -697 75 -516 
Q 669 -9 1175 597 
z
M 1994 303 
L 2294 609 
Q 2731 284 3119 -47 
L 2788 -403 
Q 2438 -53 1994 303 
z
" transform="scale(0.015625)"/>
      <path id="MicrosoftYaHei-2014" d="M 6913 1681 
L 0 1681 
L 0 2153 
L 6913 2153 
L 6913 1681 
z
" transform="scale(0.015625)"/>
      <path id="MicrosoftYaHei-6bcf" d="M 125 2203 
L 1044 2203 
L 1325 3766 
L 5456 3766 
Q 5422 2928 5391 2203 
L 6300 2203 
L 6300 1753 
L 5372 1753 
Q 5344 1141 5319 616 
L 6075 616 
L 6075 178 
L 5284 178 
Q 5222 -278 5031 -484 
Q 4788 -753 4181 -753 
Q 3831 -753 3288 -728 
Q 3256 -516 3194 -222 
Q 3838 -278 4119 -278 
Q 4513 -278 4638 -128 
Q 4722 -41 4766 178 
L 763 178 
L 763 647 
L 963 1753 
L 125 1753 
L 125 2203 
z
M 4866 1753 
L 1472 1753 
L 1275 616 
L 4813 616 
Q 4844 1172 4866 1753 
z
M 4925 3328 
L 1750 3328 
L 1553 2203 
L 4888 2203 
Q 4906 2753 4925 3328 
z
M 100 3522 
Q 1025 4309 1550 5359 
L 2113 5359 
Q 1966 5069 1803 4803 
L 6156 4803 
L 6156 4353 
L 1509 4353 
Q 1022 3659 413 3134 
Q 281 3316 100 3522 
z
M 2619 2978 
L 2913 3303 
Q 3388 2934 3750 2622 
L 3413 2247 
Q 3025 2628 2619 2978 
z
M 2569 1391 
L 2863 1716 
Q 3338 1347 3700 1034 
L 3369 666 
Q 2888 1116 2569 1391 
z
" transform="scale(0.015625)"/>
      <path id="MicrosoftYaHei-591a" d="M 3719 2803 
L 4338 2803 
Q 4050 2522 3744 2272 
L 6019 2272 
L 6019 1816 
Q 4006 -366 650 -891 
Q 538 -666 369 -422 
Q 1894 -203 3100 322 
Q 2919 559 2581 903 
L 2956 1178 
Q 3275 847 3538 522 
Q 4588 1059 5344 1834 
L 3200 1834 
Q 2100 1009 881 484 
Q 769 666 581 909 
Q 2319 1609 3719 2803 
z
M 2775 5316 
L 3406 5316 
Q 3088 4972 2756 4672 
L 5700 4672 
L 5700 4247 
Q 3550 2516 481 1666 
Q 350 1916 194 2103 
Q 1481 2441 2506 2872 
Q 2281 3122 1913 3484 
L 2263 3759 
Q 2631 3403 2944 3066 
Q 4088 3584 4950 4234 
L 2256 4234 
Q 1606 3678 713 3172 
Q 575 3359 369 3566 
Q 1800 4328 2775 5316 
z
" transform="scale(0.015625)"/>
      <path id="MicrosoftYaHei-51fa" d="M 5100 2172 
L 5100 2403 
L 3456 2403 
L 3456 -47 
L 5288 -47 
L 5288 1734 
L 5813 1734 
L 5813 -747 
L 5288 -747 
L 5288 -522 
L 588 -522 
L 588 1734 
L 1119 1734 
L 1119 -47 
L 2913 -47 
L 2913 2403 
L 756 2403 
L 756 4647 
L 1288 4647 
L 1288 2878 
L 2913 2878 
L 2913 5222 
L 3456 5222 
L 3456 2878 
L 5100 2878 
L 5100 4647 
L 5631 4647 
L 5631 2172 
L 5100 2172 
z
" transform="scale(0.015625)"/>
      <path id="MicrosoftYaHei-33" d="M 447 809 
Q 944 425 1569 425 
Q 2069 425 2361 670 
Q 2653 916 2653 1328 
Q 2653 2247 1338 2247 
L 934 2247 
L 934 2753 
L 1319 2753 
Q 2484 2753 2484 3616 
Q 2484 4413 1594 4413 
Q 1084 4413 634 4069 
L 634 4647 
Q 1109 4922 1744 4922 
Q 2363 4922 2738 4598 
Q 3113 4275 3113 3759 
Q 3113 2809 2144 2538 
L 2144 2525 
Q 2669 2469 2973 2155 
Q 3278 1841 3278 1372 
Q 3278 719 2808 319 
Q 2338 -81 1556 -81 
Q 869 -81 447 175 
L 447 809 
z
" transform="scale(0.015625)"/>
      <path id="MicrosoftYaHei-2d" d="M 2328 1681 
L 488 1681 
L 488 2153 
L 2328 2153 
L 2328 1681 
z
" transform="scale(0.015625)"/>
      <path id="MicrosoftYaHei-95f4" d="M 1863 3647 
L 4513 3647 
L 4513 553 
L 2313 553 
L 2313 166 
L 1863 166 
L 1863 3647 
z
M 2388 4453 
L 2388 4922 
L 6013 4922 
L 6013 -28 
Q 6013 -816 5119 -816 
Q 4756 -816 4169 -803 
Q 4144 -616 4069 -297 
Q 4588 -334 5056 -334 
Q 5525 -334 5525 122 
L 5525 4453 
L 2388 4453 
z
M 419 4084 
L 906 4084 
L 906 -816 
L 419 -816 
L 419 4084 
z
M 2313 997 
L 4063 997 
L 4063 1884 
L 2313 1884 
L 2313 997 
z
M 4063 3203 
L 2313 3203 
L 2313 2328 
L 4063 2328 
L 4063 3203 
z
M 744 5003 
L 1100 5322 
Q 1575 4872 1981 4447 
L 1575 4091 
Q 1194 4541 744 5003 
z
" transform="scale(0.015625)"/>
     </defs>
     <use xlink:href="#MicrosoftYaHei-5bd2"/>
     <use xlink:href="#MicrosoftYaHei-6691" transform="translate(100 0)"/>
     <use xlink:href="#MicrosoftYaHei-5047" transform="translate(200 0)"/>
     <use xlink:href="#MicrosoftYaHei-662f" transform="translate(300 0)"/>
     <use xlink:href="#MicrosoftYaHei-22" transform="translate(400 0)"/>
     <use xlink:href="#MicrosoftYaHei-5f2f" transform="translate(443.554688 0)"/>
     <use xlink:href="#MicrosoftYaHei-9053" transform="translate(543.554688 0)"/>
     <use xlink:href="#MicrosoftYaHei-8d85" transform="translate(643.554688 0)"/>
     <use xlink:href="#MicrosoftYaHei-8f66" transform="translate(743.554688 0)"/>
     <use xlink:href="#MicrosoftYaHei-22" transform="translate(843.554688 0)"/>
     <use xlink:href="#MicrosoftYaHei-7684" transform="translate(887.109375 0)"/>
     <use xlink:href="#MicrosoftYaHei-9ec4" transform="translate(987.109375 0)"/>
     <use xlink:href="#MicrosoftYaHei-91d1" transform="translate(1087.109375 0)"/>
     <use xlink:href="#MicrosoftYaHei-671f" transform="translate(1187.109375 0)"/>
     <use xlink:href="#MicrosoftYaHei-2014" transform="translate(1287.109375 0)"/>
     <use xlink:href="#MicrosoftYaHei-2014" transform="translate(1395.117188 0)"/>
     <use xlink:href="#MicrosoftYaHei-6bcf" transform="translate(1503.125 0)"/>
     <use xlink:href="#MicrosoftYaHei-5929" transform="translate(1603.125 0)"/>
     <use xlink:href="#MicrosoftYaHei-591a" transform="translate(1703.125 0)"/>
     <use xlink:href="#MicrosoftYaHei-51fa" transform="translate(1803.125 0)"/>
     <use xlink:href="#MicrosoftYaHei-33" transform="translate(1903.125 0)"/>
     <use xlink:href="#MicrosoftYaHei-2d" transform="translate(1961.767578 0)"/>
     <use xlink:href="#MicrosoftYaHei-34" transform="translate(2005.029297 0)"/>
     <use xlink:href="#MicrosoftYaHei-5c0f" transform="translate(2063.671875 0)"/>
     <use xlink:href="#MicrosoftYaHei-65f6" transform="translate(2163.671875 0)"/>
     <use xlink:href="#MicrosoftYaHei-5b66" transform="translate(2263.671875 0)"/>
     <use xlink:href="#MicrosoftYaHei-4e60" transform="translate(2363.671875 0)"/>
     <use xlink:href="#MicrosoftYaHei-65f6" transform="translate(2463.671875 0)"/>
     <use xlink:href="#MicrosoftYaHei-95f4" transform="translate(2563.671875 0)"/>
    </g>
   </g>
   <g id="text_15">
    <!-- 不同时段每日时间分配对比 -->
    <g style="fill: #1a1a2e" transform="translate(185.513438 17.591875) scale(0.13 -0.13)">
     <defs>
      <path id="MicrosoftYaHei-Bold-4e0d" d="M 350 4928 
L 6088 4928 
L 6088 4078 
L 3866 4078 
Q 3659 3556 3375 3072 
L 3675 3072 
L 3675 2341 
L 4300 2928 
Q 5144 2178 6338 1078 
L 5606 359 
Q 4809 1284 3675 2316 
L 3675 -853 
L 2731 -853 
L 2731 2141 
Q 1925 1138 725 303 
Q 525 591 88 1128 
Q 2069 2419 2813 4078 
L 350 4078 
L 350 4928 
z
" transform="scale(0.015625)"/>
      <path id="MicrosoftYaHei-Bold-540c" d="M 381 5078 
L 6019 5078 
L 6019 291 
Q 6019 -253 5776 -523 
Q 5534 -794 5107 -801 
Q 4681 -809 4075 -809 
Q 3981 -309 3881 59 
Q 4272 19 4597 19 
Q 4847 19 4950 45 
Q 5053 72 5117 165 
Q 5181 259 5181 416 
L 5181 4297 
L 1219 4297 
L 1219 -797 
L 381 -797 
L 381 5078 
z
M 4875 3078 
L 1525 3078 
L 1525 3791 
L 4875 3791 
L 4875 3078 
z
M 1738 2591 
L 4638 2591 
L 4638 403 
L 2550 403 
L 2550 3 
L 1738 3 
L 1738 2591 
z
M 3825 1103 
L 3825 1891 
L 2550 1891 
L 2550 1103 
L 3825 1103 
z
" transform="scale(0.015625)"/>
      <path id="MicrosoftYaHei-Bold-65f6" d="M 3038 4241 
L 4888 4241 
L 4888 5291 
L 5781 5291 
L 5781 4241 
L 6306 4241 
L 6306 3409 
L 5781 3409 
L 5781 316 
Q 5781 -209 5547 -478 
Q 5313 -747 4898 -762 
Q 4484 -778 3669 -778 
Q 3569 -209 3456 134 
Q 4344 109 4431 109 
Q 4888 109 4888 584 
L 4888 3409 
L 3038 3409 
L 3038 4241 
z
M 394 -497 
L 394 4897 
L 2856 4897 
L 2856 -459 
L 2031 -459 
L 2031 -28 
L 1219 -28 
L 1219 -497 
L 394 -497 
z
M 2031 4072 
L 1219 4072 
L 1219 2834 
L 2031 2834 
L 2031 4072 
z
M 1219 797 
L 2031 797 
L 2031 2034 
L 1219 2034 
L 1219 797 
z
M 3588 3072 
Q 4013 2541 4713 1559 
L 3956 1066 
Q 3388 2009 2938 2641 
L 3588 3072 
z
" transform="scale(0.015625)"/>
      <path id="MicrosoftYaHei-Bold-6bb5" d="M 113 22 
L 94 859 
L 525 897 
L 525 4947 
Q 1238 4978 2713 5228 
L 2988 4447 
Q 2094 4303 1356 4241 
L 1356 3716 
L 2625 3716 
L 2625 2953 
L 1356 2953 
L 1356 2397 
L 2625 2397 
L 2625 1634 
L 1356 1634 
L 1356 981 
L 2775 1141 
Q 2750 766 2750 347 
L 1356 178 
L 1356 -822 
L 525 -822 
L 525 75 
L 113 22 
z
M 5900 3816 
L 6319 3816 
Q 6231 3422 6169 3047 
L 5519 3047 
Q 4844 3047 4844 3734 
L 4844 4303 
L 3956 4303 
Q 3956 3672 3806 3372 
Q 3656 3072 3319 2791 
Q 3038 3047 2688 3322 
Q 3181 3628 3181 4278 
L 3181 5078 
L 5638 5078 
L 5638 4109 
Q 5638 3816 5900 3816 
z
M 6038 2728 
L 6038 1978 
Q 5703 1163 5119 541 
Q 5684 209 6356 16 
Q 6138 -378 5906 -816 
Q 5088 -503 4438 -53 
Q 3775 -538 2894 -853 
Q 2731 -578 2350 -66 
Q 3138 163 3731 525 
Q 3284 959 2950 1484 
L 3581 1941 
Q 3953 1431 4413 1041 
Q 4834 1447 5100 1959 
L 2788 1959 
L 2788 2728 
L 6038 2728 
z
" transform="scale(0.015625)"/>
      <path id="MicrosoftYaHei-Bold-6bcf" d="M 119 2384 
L 869 2384 
L 1009 3381 
Q 759 3106 494 2872 
Q 325 3284 113 3734 
Q 869 4384 1369 5353 
L 2313 5353 
Q 2209 5147 2103 4953 
L 6181 4953 
L 6181 4266 
L 1691 4266 
Q 1566 4078 1434 3903 
L 5688 3903 
L 5622 2384 
L 6325 2384 
L 6325 1697 
L 5591 1697 
L 5547 841 
L 6125 841 
L 6125 166 
L 5509 166 
Q 5453 -378 5142 -570 
Q 4831 -763 4453 -786 
Q 4075 -809 3056 -809 
Q 2950 -434 2825 -84 
Q 3519 -103 3969 -103 
Q 4509 -103 4613 166 
L 563 166 
L 775 1697 
L 119 1697 
L 119 2384 
z
M 3988 2728 
L 3644 2384 
L 4775 2384 
L 4813 3228 
L 3297 3228 
Q 3669 2984 3988 2728 
z
M 2531 2891 
L 2872 3228 
L 1844 3228 
L 1722 2384 
L 3172 2384 
Q 2866 2644 2531 2891 
z
M 3838 1178 
L 3481 841 
L 4697 841 
Q 4719 1172 4744 1697 
L 3116 1697 
Q 3456 1466 3838 1178 
z
M 2369 1353 
L 2728 1697 
L 1622 1697 
L 1500 841 
L 3019 841 
Q 2725 1094 2369 1353 
z
" transform="scale(0.015625)"/>
      <path id="MicrosoftYaHei-Bold-65e5" d="M 750 -778 
L 750 4972 
L 5688 4972 
L 5688 -778 
L 4725 -778 
L 4725 -341 
L 1713 -341 
L 1713 -778 
L 750 -778 
z
M 4725 4084 
L 1713 4084 
L 1713 2772 
L 4725 2772 
L 4725 4084 
z
M 1713 547 
L 4725 547 
L 4725 1909 
L 1713 1909 
L 1713 547 
z
" transform="scale(0.015625)"/>
      <path id="MicrosoftYaHei-Bold-95f4" d="M 1088 5059 
L 1906 5347 
Q 2200 4884 2506 4334 
L 1638 4003 
Q 1356 4597 1088 5059 
z
M 6056 347 
Q 6056 -106 5904 -378 
Q 5753 -650 5422 -736 
Q 5091 -822 3950 -822 
Q 3875 -359 3750 53 
Q 4150 28 4769 28 
Q 5188 28 5188 397 
L 5188 4278 
L 2719 4278 
L 2719 5047 
L 6056 5047 
L 6056 347 
z
M 344 4522 
L 1213 4522 
L 1213 -803 
L 344 -803 
L 344 4522 
z
M 1788 3772 
L 4581 3772 
L 4581 484 
L 2575 484 
L 2575 141 
L 1788 141 
L 1788 3772 
z
M 3794 3072 
L 2575 3072 
L 2575 2478 
L 3794 2478 
L 3794 3072 
z
M 3794 1184 
L 3794 1778 
L 2575 1778 
L 2575 1184 
L 3794 1184 
z
" transform="scale(0.015625)"/>
      <path id="MicrosoftYaHei-Bold-5206" d="M 6350 3028 
Q 6088 2703 5750 2228 
Q 5519 2409 5303 2603 
Q 5219 606 5172 190 
Q 5125 -225 4862 -451 
Q 4600 -678 4128 -678 
Q 3484 -678 2913 -659 
Q 2856 -141 2781 284 
Q 3594 216 3956 216 
Q 4172 216 4230 408 
Q 4288 600 4325 1978 
L 2781 1978 
Q 2728 1100 2529 631 
Q 2331 163 1907 -215 
Q 1484 -594 844 -872 
Q 456 -353 194 -78 
Q 750 144 1111 414 
Q 1472 684 1630 989 
Q 1788 1294 1841 1978 
L 950 1978 
L 950 2475 
Q 794 2356 631 2247 
Q 344 2653 63 2953 
Q 1475 3947 2194 5316 
L 3031 4953 
Q 2378 3722 1391 2841 
L 5047 2841 
Q 4088 3766 3463 4903 
L 4238 5303 
Q 5038 3922 6350 3028 
z
" transform="scale(0.015625)"/>
      <path id="MicrosoftYaHei-Bold-914d" d="M 163 5009 
L 3406 5009 
L 3406 4297 
L 2519 4297 
L 2519 3753 
L 3325 3753 
L 3325 -797 
L 2663 -797 
L 2663 -391 
L 994 -391 
L 994 -784 
L 331 -784 
L 331 3753 
L 1138 3753 
L 1138 4297 
L 163 4297 
L 163 5009 
z
M 1700 3753 
L 1981 3753 
L 1981 4297 
L 1700 4297 
L 1700 3753 
z
M 1350 1397 
Q 1166 1556 994 1694 
L 994 1266 
L 2663 1266 
L 2663 1634 
L 2531 1634 
Q 1981 1634 1981 2197 
L 1981 3097 
L 1697 3097 
Q 1672 1950 1350 1397 
z
M 2738 2159 
L 2781 2159 
L 2781 3097 
L 2519 3097 
L 2519 2397 
Q 2519 2159 2738 2159 
z
M 888 1941 
Q 1131 2303 1131 3097 
L 888 3097 
L 888 1941 
z
M 994 259 
L 2663 259 
L 2663 647 
L 994 647 
L 994 259 
z
M 5538 1334 
Q 5819 1209 6331 1047 
Q 6209 119 6125 -164 
Q 6041 -447 5842 -578 
Q 5644 -709 5325 -709 
L 4513 -709 
Q 3713 -709 3713 153 
L 3713 3003 
L 5188 3003 
L 5188 4184 
L 3619 4184 
L 3619 4984 
L 6000 4984 
L 6000 2203 
L 4519 2203 
L 4519 359 
Q 4519 78 4788 78 
L 5081 78 
Q 5316 78 5394 250 
Q 5472 422 5538 1334 
z
" transform="scale(0.015625)"/>
      <path id="MicrosoftYaHei-Bold-5bf9" d="M 3050 4234 
L 4850 4234 
L 4850 5309 
L 5744 5309 
L 5744 4234 
L 6319 4234 
L 6319 3409 
L 5744 3409 
L 5744 216 
Q 5744 -250 5539 -490 
Q 5334 -731 4987 -754 
Q 4641 -778 3656 -778 
Q 3594 -359 3450 147 
Q 3931 109 4409 109 
Q 4850 109 4850 516 
L 4850 3409 
L 3050 3409 
L 3050 4234 
z
M 863 3772 
L 1691 2509 
Q 1934 3206 2025 4016 
L 188 4016 
L 188 4834 
L 2900 4834 
L 2900 4028 
Q 2709 2722 2247 1669 
L 3169 278 
L 2394 -228 
L 1781 778 
Q 1269 -47 550 -684 
Q 369 -316 88 153 
Q 816 772 1278 1594 
L 181 3341 
L 863 3772 
z
M 3463 3047 
Q 4069 2278 4588 1528 
L 3844 1041 
Q 3375 1841 2813 2609 
L 3463 3047 
z
" transform="scale(0.015625)"/>
      <path id="MicrosoftYaHei-Bold-6bd4" d="M 5481 4441 
L 6294 3803 
Q 5234 2791 4119 1894 
L 4119 547 
Q 4119 153 4438 153 
L 4875 153 
Q 5119 153 5197 325 
Q 5275 497 5363 1597 
Q 5856 1409 6294 1278 
Q 6231 688 6131 248 
Q 6031 -191 5900 -358 
Q 5769 -525 5511 -617 
Q 5253 -709 4881 -709 
L 4094 -709 
Q 3194 -709 3194 247 
L 3194 5316 
L 4119 5316 
L 4119 3009 
Q 4797 3656 5481 4441 
z
M 1419 5241 
L 1419 3453 
L 2850 3453 
L 2850 2591 
L 1419 2591 
L 1419 372 
L 2869 866 
Q 2856 372 2888 -78 
Q 1500 -503 725 -922 
L 275 -184 
Q 494 -16 494 366 
L 494 5241 
L 1419 5241 
z
" transform="scale(0.015625)"/>
     </defs>
     <use xlink:href="#MicrosoftYaHei-Bold-4e0d"/>
     <use xlink:href="#MicrosoftYaHei-Bold-540c" transform="translate(100 0)"/>
     <use xlink:href="#MicrosoftYaHei-Bold-65f6" transform="translate(200 0)"/>
     <use xlink:href="#MicrosoftYaHei-Bold-6bb5" transform="translate(300 0)"/>
     <use xlink:href="#MicrosoftYaHei-Bold-6bcf" transform="translate(400 0)"/>
     <use xlink:href="#MicrosoftYaHei-Bold-65e5" transform="translate(500 0)"/>
     <use xlink:href="#MicrosoftYaHei-Bold-65f6" transform="translate(600 0)"/>
     <use xlink:href="#MicrosoftYaHei-Bold-95f4" transform="translate(700 0)"/>
     <use xlink:href="#MicrosoftYaHei-Bold-5206" transform="translate(800 0)"/>
     <use xlink:href="#MicrosoftYaHei-Bold-914d" transform="translate(900 0)"/>
     <use xlink:href="#MicrosoftYaHei-Bold-5bf9" transform="translate(1000 0)"/>
     <use xlink:href="#MicrosoftYaHei-Bold-6bd4" transform="translate(1100 0)"/>
    </g>
   </g>
   <g id="legend_1">
    <g id="patch_23">
     <path d="M 422.173438 72.587031 
L 477.973438 72.587031 
Q 479.773438 72.587031 479.773438 70.787031 
L 479.773438 29.891875 
Q 479.773438 28.091875 477.973438 28.091875 
L 422.173438 28.091875 
Q 420.373438 28.091875 420.373438 29.891875 
L 420.373438 70.787031 
Q 420.373438 72.587031 422.173438 72.587031 
z
" style="fill: #ffffff; opacity: 0.8; stroke: #cccccc; stroke-linejoin: miter"/>
    </g>
    <g id="patch_24">
     <path d="M 423.973438 38.88625 
L 441.973438 38.88625 
L 441.973438 32.58625 
L 423.973438 32.58625 
z
" style="fill: #5688cc; stroke: #ffffff; stroke-linejoin: miter"/>
    </g>
    <g id="text_16">
     <!-- 平日 -->
     <g transform="translate(449.173438 38.88625) scale(0.09 -0.09)">
      <defs>
       <path id="MicrosoftYaHei-5e73" d="M 169 1934 
L 2938 1934 
L 2938 4547 
L 450 4547 
L 450 5028 
L 5975 5028 
L 5975 4547 
L 3463 4547 
L 3463 1934 
L 6250 1934 
L 6250 1453 
L 3463 1453 
L 3463 -847 
L 2938 -847 
L 2938 1453 
L 169 1453 
L 169 1934 
z
M 3950 2559 
Q 4638 3284 5188 4159 
L 5656 3859 
Q 4950 2891 4338 2234 
L 3950 2559 
z
M 769 3859 
L 1163 4134 
Q 1863 3316 2369 2553 
L 1925 2222 
Q 1444 3003 769 3859 
z
" transform="scale(0.015625)"/>
       <path id="MicrosoftYaHei-65e5" d="M 975 4909 
L 5431 4909 
L 5431 -766 
L 4900 -766 
L 4900 -322 
L 1506 -322 
L 1506 -766 
L 975 -766 
L 975 4909 
z
M 1506 2103 
L 1506 134 
L 4900 134 
L 4900 2103 
L 1506 2103 
z
M 1506 4441 
L 1506 2572 
L 4900 2572 
L 4900 4441 
L 1506 4441 
z
" transform="scale(0.015625)"/>
      </defs>
      <use xlink:href="#MicrosoftYaHei-5e73"/>
      <use xlink:href="#MicrosoftYaHei-65e5" transform="translate(100 0)"/>
     </g>
    </g>
    <g id="patch_25">
     <path d="M 423.973438 52.817969 
L 441.973438 52.817969 
L 441.973438 46.517969 
L 423.973438 46.517969 
z
" style="fill: #73bfaa; stroke: #ffffff; stroke-linejoin: miter"/>
    </g>
    <g id="text_17">
     <!-- 周末 -->
     <g transform="translate(449.173438 52.817969) scale(0.09 -0.09)">
      <defs>
       <path id="MicrosoftYaHei-5468" d="M 1175 2753 
Q 1175 1166 1038 572 
Q 888 -153 413 -822 
Q 231 -591 56 -403 
Q 450 197 575 803 
Q 675 1328 675 2634 
L 675 5059 
L 5981 5059 
L 5981 72 
Q 5981 -734 5206 -747 
Q 4763 -753 4219 -734 
Q 4194 -547 4119 -228 
Q 4725 -266 5050 -266 
Q 5494 -266 5494 153 
L 5494 4609 
L 1175 4609 
L 1175 2753 
z
M 1988 1897 
L 4663 1897 
L 4663 209 
L 2463 209 
L 2463 -191 
L 1988 -191 
L 1988 1897 
z
M 1475 2841 
L 3081 2841 
L 3081 3472 
L 1763 3472 
L 1763 3897 
L 3081 3897 
L 3081 4447 
L 3569 4447 
L 3569 3897 
L 4888 3897 
L 4888 3472 
L 3569 3472 
L 3569 2841 
L 5181 2841 
L 5181 2416 
L 1475 2416 
L 1475 2841 
z
M 4188 634 
L 4188 1472 
L 2463 1472 
L 2463 634 
L 4188 634 
z
" transform="scale(0.015625)"/>
       <path id="MicrosoftYaHei-672b" d="M 6306 9 
Q 6119 -222 5963 -441 
Q 4328 450 3444 1844 
L 3444 -841 
L 2956 -841 
L 2956 1853 
Q 2072 488 419 -441 
Q 275 -203 88 -16 
Q 1769 866 2713 2172 
L 631 2172 
L 631 2634 
L 2956 2634 
L 2956 3784 
L 300 3784 
L 300 4247 
L 2956 4247 
L 2956 5341 
L 3444 5341 
L 3444 4247 
L 6094 4247 
L 6094 3784 
L 3444 3784 
L 3444 2634 
L 5763 2634 
L 5763 2172 
L 3659 2172 
Q 4516 894 6306 9 
z
" transform="scale(0.015625)"/>
      </defs>
      <use xlink:href="#MicrosoftYaHei-5468"/>
      <use xlink:href="#MicrosoftYaHei-672b" transform="translate(100 0)"/>
     </g>
    </g>
    <g id="patch_26">
     <path d="M 423.973438 66.749688 
L 441.973438 66.749688 
L 441.973438 60.449688 
L 423.973438 60.449688 
z
" style="fill: #e8a060; stroke: #ffffff; stroke-linejoin: miter"/>
    </g>
    <g id="text_18">
     <!-- 寒暑假 -->
     <g transform="translate(449.173438 66.749688) scale(0.09 -0.09)">
      <use xlink:href="#MicrosoftYaHei-5bd2"/>
      <use xlink:href="#MicrosoftYaHei-6691" transform="translate(100 0)"/>
      <use xlink:href="#MicrosoftYaHei-5047" transform="translate(200 0)"/>
     </g>
    </g>
   </g>
  </g>
 </g>
 <defs>
  <clipPath id="p43397d5ba0">
   <rect x="42.753437" y="23.591875" width="441.52" height="204.053"/>
  </clipPath>
 </defs>
</svg>
