<?xml version="1.0" encoding="utf-8" standalone="no"?>
<!DOCTYPE svg PUBLIC "-//W3C//DTD SVG 1.1//EN"
  "http://www.w3.org/Graphics/SVG/1.1/DTD/svg11.dtd">
<svg xmlns:xlink="http://www.w3.org/1999/xlink" width="496.8pt" height="172.47125pt" viewBox="0 0 496.8 172.47125" xmlns="http://www.w3.org/2000/svg" version="1.1">
 <metadata>
  <rdf:RDF xmlns:dc="http://purl.org/dc/elements/1.1/" xmlns:cc="http://creativecommons.org/ns#" xmlns:rdf="http://www.w3.org/1999/02/22-rdf-syntax-ns#">
   <cc:Work>
    <dc:type rdf:resource="http://purl.org/dc/dcmitype/StillImage"/>
    <dc:date>2026-05-22T23:20:28.916226</dc:date>
    <dc:format>image/svg+xml</dc:format>
    <dc:creator>
     <cc:Agent>
      <dc:title>Matplotlib v3.10.9, https://matplotlib.org/</dc:title>
     </cc:Agent>
    </dc:creator>
   </cc:Work>
  </rdf:RDF>
 </metadata>
 <defs>
  <style type="text/css">*{stroke-linejoin: round; stroke-linecap: butt}</style>
 </defs>
 <g id="figure_1">
  <g id="patch_1">
   <path d="M 0 172.47125 
L 496.8 172.47125 
L 496.8 0 
L 0 0 
z
" style="fill: #ffffff"/>
  </g>
  <g id="axes_1">
   <g id="patch_2">
    <path d="M 15.24 165.27125 
L 111.72 165.27125 
Q 119.76 165.27125 119.76 157.444583 
L 119.76 63.524583 
Q 119.76 55.697917 111.72 55.697917 
L 15.24 55.697917 
Q 7.2 55.697917 7.2 63.524583 
L 7.2 157.444583 
Q 7.2 165.27125 15.24 165.27125 
z
" clip-path="url(#p70cd58aa7a)" style="fill: #ffffff; stroke: #85c1e9; stroke-width: 2.5; stroke-linejoin: miter"/>
   </g>
   <g id="patch_3">
    <path d="M 135.84 165.27125 
L 232.32 165.27125 
Q 240.36 165.27125 240.36 157.444583 
L 240.36 63.524583 
Q 240.36 55.697917 232.32 55.697917 
L 135.84 55.697917 
Q 127.8 55.697917 127.8 63.524583 
L 127.8 157.444583 
Q 127.8 165.27125 135.84 165.27125 
z
" clip-path="url(#p70cd58aa7a)" style="fill: #ffffff; stroke: #f39c12; stroke-width: 2.5; stroke-linejoin: miter"/>
   </g>
   <g id="patch_4">
    <path d="M 256.44 165.27125 
L 352.92 165.27125 
Q 360.96 165.27125 360.96 157.444583 
L 360.96 63.524583 
Q 360.96 55.697917 352.92 55.697917 
L 256.44 55.697917 
Q 248.4 55.697917 248.4 63.524583 
L 248.4 157.444583 
Q 248.4 165.27125 256.44 165.27125 
z
" clip-path="url(#p70cd58aa7a)" style="fill: #ffffff; stroke: #c0392b; stroke-width: 2.5; stroke-linejoin: miter"/>
   </g>
   <g id="patch_5">
    <path d="M 377.04 165.27125 
L 473.52 165.27125 
Q 481.56 165.27125 481.56 157.444583 
L 481.56 63.524583 
Q 481.56 55.697917 473.52 55.697917 
L 377.04 55.697917 
Q 369 55.697917 369 63.524583 
L 369 157.444583 
Q 369 165.27125 377.04 165.27125 
z
" clip-path="url(#p70cd58aa7a)" style="fill: #ffffff; stroke: #27ae60; stroke-width: 2.5; stroke-linejoin: miter"/>
   </g>
   <g id="patch_6">
    <path d="M 63.48 167.61925 
C 65.185786 167.61925 66.821938 166.959516 68.028111 165.785348 
C 69.234284 164.611179 69.912 163.018442 69.912 161.357917 
C 69.912 159.697392 69.234284 158.104654 68.028111 156.930485 
C 66.821938 155.756317 65.185786 155.096583 63.48 155.096583 
C 61.774214 155.096583 60.138062 155.756317 58.931889 156.930485 
C 57.725716 158.104654 57.048 159.697392 57.048 161.357917 
C 57.048 163.018442 57.725716 164.611179 58.931889 165.785348 
C 60.138062 166.959516 61.774214 167.61925 63.48 167.61925 
z
" clip-path="url(#p70cd58aa7a)" style="fill: #555555; stroke: #333333; stroke-linejoin: miter"/>
   </g>
   <g id="patch_7">
    <path d="M 184.08 167.61925 
C 185.785786 167.61925 187.421938 166.959516 188.628111 165.785348 
C 189.834284 164.611179 190.512 163.018442 190.512 161.357917 
C 190.512 159.697392 189.834284 158.104654 188.628111 156.930485 
C 187.421938 155.756317 185.785786 155.096583 184.08 155.096583 
C 182.374214 155.096583 180.738062 155.756317 179.531889 156.930485 
C 178.325716 158.104654 177.648 159.697392 177.648 161.357917 
C 177.648 163.018442 178.325716 164.611179 179.531889 165.785348 
C 180.738062 166.959516 182.374214 167.61925 184.08 167.61925 
z
" clip-path="url(#p70cd58aa7a)" style="fill: #555555; stroke: #333333; stroke-linejoin: miter"/>
   </g>
   <g id="patch_8">
    <path d="M 304.68 167.61925 
C 306.385786 167.61925 308.021938 166.959516 309.228111 165.785348 
C 310.434284 164.611179 311.112 163.018442 311.112 161.357917 
C 311.112 159.697392 310.434284 158.104654 309.228111 156.930485 
C 308.021938 155.756317 306.385786 155.096583 304.68 155.096583 
C 302.974214 155.096583 301.338062 155.756317 300.131889 156.930485 
C 298.925716 158.104654 298.248 159.697392 298.248 161.357917 
C 298.248 163.018442 298.925716 164.611179 300.131889 165.785348 
C 301.338062 166.959516 302.974214 167.61925 304.68 167.61925 
z
" clip-path="url(#p70cd58aa7a)" style="fill: #555555; stroke: #333333; stroke-linejoin: miter"/>
   </g>
   <g id="patch_9">
    <path d="M 425.28 167.61925 
C 426.985786 167.61925 428.621938 166.959516 429.828111 165.785348 
C 431.034284 164.611179 431.712 163.018442 431.712 161.357917 
C 431.712 159.697392 431.034284 158.104654 429.828111 156.930485 
C 428.621938 155.756317 426.985786 155.096583 425.28 155.096583 
C 423.574214 155.096583 421.938062 155.756317 420.731889 156.930485 
C 419.525716 158.104654 418.848 159.697392 418.848 161.357917 
C 418.848 163.018442 419.525716 164.611179 420.731889 165.785348 
C 421.938062 166.959516 423.574214 167.61925 425.28 167.61925 
z
" clip-path="url(#p70cd58aa7a)" style="fill: #555555; stroke: #333333; stroke-linejoin: miter"/>
   </g>
   <g id="line2d_1">
    <path d="M 63.48 161.357917 
L 184.08 161.357917 
L 304.68 161.357917 
L 425.28 161.357917 
" clip-path="url(#p70cd58aa7a)" style="fill: none; stroke: #555555; stroke-width: 2; stroke-linecap: square"/>
   </g>
   <g id="text_1">
    <!-- 吸气冲程 -->
    <g style="fill: #85c1e9" transform="translate(47.48 103.024958) scale(0.08 -0.08)">
     <defs>
      <path id="MicrosoftYaHei-Bold-5438" d="M 313 4853 
L 2188 4853 
L 2188 416 
Q 2738 1447 2800 3197 
Q 2813 3503 2819 4209 
L 2388 4209 
L 2388 4978 
L 5694 4978 
L 5694 4259 
L 5219 3266 
L 6075 3266 
L 6075 2534 
Q 5856 1472 5269 659 
Q 5744 209 6319 -28 
Q 6025 -422 5775 -822 
Q 5194 -472 4731 28 
Q 4181 -491 3438 -891 
Q 3163 -428 2925 -128 
Q 3681 222 4194 716 
Q 3775 1353 3475 2178 
Q 3288 216 2375 -878 
Q 2106 -466 1800 -147 
Q 2013 97 2181 416 
L 1063 416 
L 1063 -84 
L 313 -84 
L 313 4853 
z
M 3625 3791 
Q 4031 2272 4706 1316 
Q 5063 1853 5206 2509 
L 4313 2509 
L 4313 3266 
L 4744 4209 
L 3631 4209 
Q 3625 3978 3625 3791 
z
M 1463 1178 
L 1463 4091 
L 1063 4091 
L 1063 1178 
L 1463 1178 
z
" transform="scale(0.015625)"/>
      <path id="MicrosoftYaHei-Bold-6c14" d="M 1281 5316 
L 2238 5316 
Q 2134 5053 2006 4791 
L 5988 4791 
L 5988 4053 
L 1606 4053 
Q 1166 3328 544 2597 
Q 294 3147 81 3522 
Q 919 4459 1281 5316 
z
M 1413 3678 
L 5575 3678 
L 5575 2966 
L 1413 2966 
L 1413 3678 
z
M 738 1841 
L 738 2578 
L 5138 2578 
L 5138 1534 
Q 5138 122 5475 122 
Q 5719 122 5775 1141 
Q 6063 928 6319 822 
Q 6247 -47 6056 -444 
Q 5866 -841 5500 -841 
Q 4891 -841 4595 -292 
Q 4300 256 4300 1453 
L 4300 1841 
L 738 1841 
z
" transform="scale(0.015625)"/>
      <path id="MicrosoftYaHei-Bold-51b2" d="M 3563 -809 
L 3563 1234 
L 2769 1234 
L 2769 853 
L 1913 853 
L 1913 4222 
L 3563 4222 
L 3563 5291 
L 4425 5291 
L 4425 4222 
L 6075 4222 
L 6075 866 
L 5219 866 
L 5219 1234 
L 4425 1234 
L 4425 -809 
L 3563 -809 
z
M 5219 3447 
L 4425 3447 
L 4425 2009 
L 5219 2009 
L 5219 3447 
z
M 2769 2009 
L 3563 2009 
L 3563 3447 
L 2769 3447 
L 2769 2009 
z
M 663 5003 
Q 1113 4559 1769 3791 
L 1100 3172 
Q 600 3834 50 4441 
L 663 5003 
z
M 1031 2484 
Q 1431 2241 1825 2041 
Q 1525 1253 775 -584 
Q 444 -309 19 -47 
Q 481 947 1031 2484 
z
" transform="scale(0.015625)"/>
      <path id="MicrosoftYaHei-Bold-7a0b" d="M 125 3484 
L 956 3484 
L 956 4172 
Q 584 4134 213 4109 
Q 169 4584 100 4909 
Q 1088 4959 2325 5172 
L 2519 4391 
Q 2138 4322 1756 4269 
L 1756 3484 
L 2469 3484 
L 2469 2741 
L 1756 2741 
L 1756 2053 
L 1931 2228 
Q 2244 1966 2744 1491 
L 2188 953 
Q 1966 1228 1756 1466 
L 1756 -866 
L 956 -866 
L 956 1544 
Q 725 841 388 203 
Q 269 741 88 1253 
Q 500 1825 838 2741 
L 125 2741 
L 125 3484 
z
M 2688 5066 
L 5944 5066 
L 5944 2966 
L 2688 2966 
L 2688 5066 
z
M 5113 4341 
L 3519 4341 
L 3519 3691 
L 5113 3691 
L 5113 4341 
z
M 2238 53 
L 3888 53 
L 3888 591 
L 2663 591 
L 2663 1291 
L 3888 1291 
L 3888 1809 
L 2550 1809 
L 2550 2534 
L 6150 2534 
L 6150 1809 
L 4744 1809 
L 4744 1291 
L 5981 1291 
L 5981 591 
L 4744 591 
L 4744 53 
L 6300 53 
L 6300 -672 
L 2238 -672 
L 2238 53 
z
" transform="scale(0.015625)"/>
     </defs>
     <use xlink:href="#MicrosoftYaHei-Bold-5438"/>
     <use xlink:href="#MicrosoftYaHei-Bold-6c14" transform="translate(100 0)"/>
     <use xlink:href="#MicrosoftYaHei-Bold-51b2" transform="translate(200 0)"/>
     <use xlink:href="#MicrosoftYaHei-Bold-7a0b" transform="translate(300 0)"/>
    </g>
    <!-- (进气门开) -->
    <g style="fill: #85c1e9" transform="translate(44.3625 112.687708) scale(0.08 -0.08)">
     <defs>
      <path id="MicrosoftYaHei-Bold-28" d="M 1606 -1100 
Q 525 97 525 1853 
Q 525 3550 1606 4841 
L 2431 4841 
Q 1406 3497 1406 1853 
Q 1406 216 2438 -1100 
L 1606 -1100 
z
" transform="scale(0.015625)"/>
      <path id="MicrosoftYaHei-Bold-8fdb" d="M 1806 2516 
L 2700 2516 
Q 2719 2728 2719 3591 
L 2044 3591 
L 2044 4341 
L 2719 4341 
L 2719 5291 
L 3556 5291 
L 3556 4341 
L 4494 4341 
L 4494 5291 
L 5331 5291 
L 5331 4341 
L 6000 4341 
L 6000 3591 
L 5331 3591 
L 5331 2516 
L 6244 2516 
L 6244 1766 
L 5331 1766 
L 5331 291 
L 4494 291 
L 4494 1766 
L 3463 1766 
Q 3309 844 2900 178 
Q 2519 509 2088 803 
Q 2413 1200 2572 1766 
L 1806 1766 
L 1806 2516 
z
M 3544 2516 
L 4494 2516 
L 4494 3591 
L 3556 3591 
Q 3556 2959 3544 2516 
z
M 988 5253 
Q 1456 4641 1831 4103 
L 1100 3609 
Q 719 4259 319 4841 
L 988 5253 
z
M 6319 141 
Q 6144 -309 6050 -691 
Q 5634 -703 4181 -703 
L 3075 -703 
Q 2434 -703 1956 -553 
Q 1478 -403 1175 -103 
L 450 -847 
L 94 109 
Q 425 428 738 694 
L 738 2309 
L 138 2309 
L 138 3103 
L 1556 3103 
L 1556 613 
Q 2047 97 3019 97 
Q 5722 97 6319 141 
z
" transform="scale(0.015625)"/>
      <path id="MicrosoftYaHei-Bold-95e8" d="M 1194 5072 
L 1988 5359 
Q 2338 4778 2681 4047 
L 1813 3734 
Q 1481 4503 1194 5072 
z
M 6019 372 
Q 6019 -178 5792 -447 
Q 5566 -716 5150 -762 
Q 4734 -809 3625 -809 
Q 3538 -366 3394 116 
Q 3919 84 4494 84 
Q 5113 84 5113 622 
L 5113 4084 
L 2844 4084 
L 2844 4922 
L 6019 4922 
L 6019 372 
z
M 369 4453 
L 1275 4453 
L 1275 -766 
L 369 -766 
L 369 4453 
z
" transform="scale(0.015625)"/>
      <path id="MicrosoftYaHei-Bold-5f00" d="M 119 2622 
L 1569 2622 
L 1569 4153 
L 463 4153 
L 463 4966 
L 6044 4966 
L 6044 4153 
L 5038 4153 
L 5038 2622 
L 6306 2622 
L 6306 1809 
L 5038 1809 
L 5038 -753 
L 4131 -753 
L 4131 1809 
L 2456 1809 
Q 2394 672 2030 101 
Q 1666 -469 919 -878 
Q 569 -572 131 -241 
Q 709 69 1092 500 
Q 1475 931 1534 1809 
L 119 1809 
L 119 2622 
z
M 2475 2622 
L 4131 2622 
L 4131 4153 
L 2475 4153 
L 2475 2622 
z
" transform="scale(0.015625)"/>
      <path id="MicrosoftYaHei-Bold-29" d="M 59 -1100 
Q 1097 216 1097 1853 
Q 1097 3484 59 4841 
L 888 4841 
Q 1978 3544 1978 1853 
Q 1978 113 881 -1100 
L 59 -1100 
z
" transform="scale(0.015625)"/>
     </defs>
     <use xlink:href="#MicrosoftYaHei-Bold-28"/>
     <use xlink:href="#MicrosoftYaHei-Bold-8fdb" transform="translate(38.964844 0)"/>
     <use xlink:href="#MicrosoftYaHei-Bold-6c14" transform="translate(138.964844 0)"/>
     <use xlink:href="#MicrosoftYaHei-Bold-95e8" transform="translate(238.964844 0)"/>
     <use xlink:href="#MicrosoftYaHei-Bold-5f00" transform="translate(338.964844 0)"/>
     <use xlink:href="#MicrosoftYaHei-Bold-29" transform="translate(438.964844 0)"/>
    </g>
    <!-- 活塞向下 -->
    <g style="fill: #85c1e9" transform="translate(47.48 122.350458) scale(0.08 -0.08)">
     <defs>
      <path id="MicrosoftYaHei-Bold-6d3b" d="M 831 5166 
Q 1438 4716 1900 4322 
L 1325 3709 
Q 1000 4016 313 4609 
L 831 5166 
z
M 1825 3528 
L 3581 3528 
L 3581 4263 
L 2031 4203 
Q 1994 4528 1919 4922 
Q 4000 4966 5906 5141 
L 6013 4416 
Q 5263 4356 4456 4309 
L 4456 3528 
L 6225 3528 
L 6225 2778 
L 4456 2778 
L 4456 1991 
L 5975 1991 
L 5975 -847 
L 5125 -847 
L 5125 -534 
L 2919 -534 
L 2919 -853 
L 2069 -853 
L 2069 1991 
L 3581 1991 
L 3581 2778 
L 1825 2778 
L 1825 3528 
z
M 5125 1253 
L 2919 1253 
L 2919 203 
L 5125 203 
L 5125 1253 
z
M 600 3616 
Q 1225 3134 1756 2672 
L 1175 2028 
Q 594 2572 88 3003 
L 600 3616 
z
M 881 1853 
Q 1306 1684 1719 1572 
Q 1388 184 1056 -797 
Q 613 -653 194 -547 
Q 531 422 881 1853 
z
" transform="scale(0.015625)"/>
      <path id="MicrosoftYaHei-Bold-585e" d="M 6269 791 
Q 6200 684 5875 116 
Q 5325 384 4800 841 
L 4800 397 
L 3606 397 
L 3606 -16 
L 5775 -16 
L 5775 -666 
L 575 -666 
L 575 -16 
L 2794 -16 
L 2794 397 
L 1600 397 
L 1600 878 
Q 1100 459 538 141 
Q 369 422 119 784 
Q 888 1097 1419 1503 
L 275 1503 
L 275 2141 
L 1825 2141 
L 1825 2441 
L 719 2441 
L 719 2966 
L 1825 2966 
L 1825 3266 
L 1213 3266 
L 1213 3791 
L 1825 3791 
L 1825 4128 
L 2613 4128 
L 2613 3791 
L 3800 3791 
L 3800 4128 
L 4588 4128 
L 4588 3791 
L 5200 3791 
L 5200 3266 
L 4588 3266 
L 4588 2966 
L 5713 2966 
L 5713 2441 
L 4588 2441 
L 4588 2141 
L 6150 2141 
L 6150 1503 
L 5019 1503 
Q 5638 1028 6269 791 
z
M 2794 1403 
L 3606 1403 
L 3606 1016 
L 4606 1016 
Q 4369 1241 4131 1503 
L 2256 1503 
Q 2013 1241 1756 1016 
L 2794 1016 
L 2794 1403 
z
M 2613 2141 
L 3800 2141 
L 3800 2441 
L 2613 2441 
L 2613 2141 
z
M 2613 2966 
L 3800 2966 
L 3800 3266 
L 2613 3266 
L 2613 2966 
z
M 6113 3528 
L 5350 3528 
L 5350 4241 
L 1063 4241 
L 1063 3528 
L 300 3528 
L 300 4878 
L 2750 4878 
Q 2675 5066 2594 5259 
L 3588 5328 
Q 3669 5103 3744 4878 
L 6113 4878 
L 6113 3528 
z
" transform="scale(0.015625)"/>
      <path id="MicrosoftYaHei-Bold-5411" d="M 400 4466 
L 2253 4466 
Q 2388 4928 2475 5347 
L 3438 5203 
L 3197 4466 
L 6006 4466 
L 6006 409 
Q 6006 -166 5743 -464 
Q 5481 -763 4928 -780 
Q 4375 -797 3625 -797 
Q 3538 -366 3394 116 
Q 3856 84 4209 84 
Q 4622 84 4781 131 
Q 4941 178 5033 315 
Q 5125 453 5125 672 
L 5125 3603 
L 1288 3603 
L 1288 -766 
L 400 -766 
L 400 4466 
z
M 4613 3091 
L 4613 666 
L 2650 666 
L 2650 291 
L 1800 291 
L 1800 3091 
L 4613 3091 
z
M 2650 2291 
L 2650 1466 
L 3763 1466 
L 3763 2291 
L 2650 2291 
z
" transform="scale(0.015625)"/>
      <path id="MicrosoftYaHei-Bold-4e0b" d="M 4038 3372 
Q 5050 2647 6069 1866 
L 5425 1078 
Q 4363 1997 3488 2647 
L 3488 -822 
L 2475 -822 
L 2475 4066 
L 175 4066 
L 175 4947 
L 6213 4947 
L 6213 4066 
L 3488 4066 
L 3488 2822 
L 4038 3372 
z
" transform="scale(0.015625)"/>
     </defs>
     <use xlink:href="#MicrosoftYaHei-Bold-6d3b"/>
     <use xlink:href="#MicrosoftYaHei-Bold-585e" transform="translate(100 0)"/>
     <use xlink:href="#MicrosoftYaHei-Bold-5411" transform="translate(200 0)"/>
     <use xlink:href="#MicrosoftYaHei-Bold-4e0b" transform="translate(300 0)"/>
    </g>
   </g>
   <g id="text_2">
    <!-- ① -->
    <g style="fill: #85c1e9" transform="translate(55.48 47.87125) scale(0.16 -0.16)">
     <defs>
      <path id="MicrosoftYaHei-Bold-2460" d="M 3200 4781 
Q 4453 4781 5353 3881 
Q 6253 2981 6253 1728 
Q 6253 475 5353 -425 
Q 4453 -1325 3200 -1325 
Q 1947 -1325 1047 -425 
Q 147 475 147 1728 
Q 147 2981 1047 3881 
Q 1947 4781 3200 4781 
z
M 3200 -800 
Q 4238 -800 4983 -59 
Q 5728 681 5728 1728 
Q 5728 2769 4984 3512 
Q 4241 4256 3200 4256 
Q 2156 4256 1414 3512 
Q 672 2769 672 1728 
Q 672 684 1417 -58 
Q 2163 -800 3200 -800 
z
M 2234 197 
L 2234 884 
L 2919 884 
L 2919 2731 
L 2216 2566 
L 2216 3278 
L 3719 3584 
L 3719 884 
L 4391 884 
L 4391 197 
L 2234 197 
z
" transform="scale(0.015625)"/>
     </defs>
     <use xlink:href="#MicrosoftYaHei-Bold-2460"/>
    </g>
   </g>
   <g id="text_3">
    <!-- 压缩冲程 -->
    <g style="fill: #f39c12" transform="translate(168.08 103.024958) scale(0.08 -0.08)">
     <defs>
      <path id="MicrosoftYaHei-Bold-538b" d="M 1563 2459 
Q 1563 322 681 -803 
Q 356 -278 69 59 
Q 688 959 688 2428 
L 688 4922 
L 6219 4922 
L 6219 4109 
L 1563 4109 
L 1563 2459 
z
M 5994 1953 
L 4188 1953 
L 4188 259 
L 6250 259 
L 6250 -541 
L 1363 -541 
L 1363 259 
L 3288 259 
L 3288 1953 
L 1825 1953 
L 1825 2728 
L 3288 2728 
L 3288 3953 
L 4188 3953 
L 4188 2728 
L 5994 2728 
L 5994 1953 
z
M 4469 1409 
L 5050 1884 
Q 5525 1397 5994 872 
L 5350 353 
Q 4944 866 4469 1409 
z
" transform="scale(0.015625)"/>
      <path id="MicrosoftYaHei-Bold-7f29" d="M 938 3416 
Q 1097 3419 1347 3428 
Q 1456 3625 1569 3841 
L 2125 3628 
L 2125 4616 
L 3725 4616 
Q 3641 4888 3538 5159 
L 4438 5297 
Q 4541 4991 4647 4616 
L 6175 4616 
L 6175 3628 
L 5375 3628 
L 5375 3928 
L 2925 3928 
L 2925 3750 
L 3469 3566 
L 3434 3491 
L 6263 3491 
L 6263 2828 
L 5091 2828 
L 4984 2422 
L 6075 2422 
L 6075 -809 
L 5300 -809 
L 5300 -503 
L 4263 -503 
L 4263 -809 
L 3488 -809 
L 3488 2422 
L 4197 2422 
L 4284 2828 
L 3388 2828 
L 3388 3391 
Q 3244 3091 3088 2803 
L 3088 -834 
L 2325 -834 
L 2325 1572 
Q 2163 1341 1988 1116 
Q 1922 1366 1828 1697 
Q 1800 1272 1800 1003 
Q 944 934 363 809 
L 144 1509 
Q 491 1941 959 2741 
Q 606 2719 288 2684 
L 88 3359 
Q 444 3828 1100 5328 
L 1863 5066 
Q 1325 4034 938 3416 
z
M 1125 1653 
L 1819 1725 
Q 1775 1888 1750 1953 
Q 2263 2697 2603 3503 
L 2222 3503 
Q 1559 2313 1125 1653 
z
M 5300 1759 
L 4263 1759 
L 4263 1266 
L 5300 1266 
L 5300 1759 
z
M 4263 159 
L 5300 159 
L 5300 653 
L 4263 653 
L 4263 159 
z
M 125 228 
Q 1400 378 2000 472 
L 1981 -284 
L 288 -559 
L 125 228 
z
" transform="scale(0.015625)"/>
     </defs>
     <use xlink:href="#MicrosoftYaHei-Bold-538b"/>
     <use xlink:href="#MicrosoftYaHei-Bold-7f29" transform="translate(100 0)"/>
     <use xlink:href="#MicrosoftYaHei-Bold-51b2" transform="translate(200 0)"/>
     <use xlink:href="#MicrosoftYaHei-Bold-7a0b" transform="translate(300 0)"/>
    </g>
    <!-- (机械→内能) -->
    <g style="fill: #f39c12" transform="translate(160.9625 112.687708) scale(0.08 -0.08)">
     <defs>
      <path id="MicrosoftYaHei-Bold-673a" d="M 81 1597 
Q 594 2397 841 3372 
L 138 3372 
L 138 4203 
L 856 4203 
L 856 5322 
L 1675 5322 
L 1675 4203 
L 2400 4203 
L 2400 3372 
L 1675 3372 
L 1675 2788 
Q 2072 2559 2538 2272 
L 2131 1566 
L 1675 1888 
L 1675 -809 
L 856 -809 
L 856 1388 
Q 647 919 369 491 
Q 269 903 81 1597 
z
M 5694 1634 
Q 5988 1503 6306 1391 
Q 6241 91 6181 -189 
Q 6122 -469 5961 -580 
Q 5800 -691 5525 -691 
L 5038 -691 
Q 4438 -691 4438 59 
L 4438 4159 
L 3550 4159 
L 3550 2409 
Q 3550 1031 3328 412 
Q 3106 -206 2531 -828 
Q 2238 -478 1875 -84 
Q 2391 466 2548 1023 
Q 2706 1581 2706 2941 
L 2706 5041 
L 5331 5041 
L 5331 316 
Q 5331 103 5469 103 
Q 5544 103 5580 151 
Q 5616 200 5648 562 
Q 5681 925 5694 1634 
z
" transform="scale(0.015625)"/>
      <path id="MicrosoftYaHei-Bold-68b0" d="M 2169 4328 
L 4231 4328 
L 4231 5309 
L 4981 5309 
L 4984 4328 
L 5528 4328 
Q 5231 4766 5025 5003 
L 5544 5303 
Q 5875 4972 6138 4628 
L 5644 4328 
L 6200 4328 
L 6200 3591 
L 4994 3591 
Q 5000 2509 5044 1938 
Q 5328 2556 5500 3297 
L 6181 3141 
Q 5838 1800 5200 769 
Q 5363 84 5525 84 
Q 5659 84 5738 1166 
Q 6025 1009 6325 872 
Q 6225 -131 6036 -489 
Q 5847 -847 5525 -847 
Q 4953 -847 4647 -9 
Q 4425 -275 4181 -516 
Q 4016 -222 3863 0 
L 3863 -647 
L 3213 -647 
L 3213 1441 
L 2894 1441 
Q 2828 69 2338 -759 
Q 2044 -472 1725 -253 
Q 2166 419 2241 1441 
L 1925 1441 
L 1925 2169 
L 1800 1953 
Q 1666 2122 1538 2272 
L 1538 -816 
L 838 -816 
L 838 1969 
Q 616 1259 344 666 
Q 244 1122 81 1741 
Q 491 2541 750 3441 
L 175 3441 
L 175 4178 
L 838 4178 
L 838 5316 
L 1538 5316 
L 1538 4178 
L 2013 4178 
L 2013 3441 
L 1538 3441 
L 1538 3172 
Q 1875 2922 2206 2653 
L 1928 2178 
L 2256 2178 
L 2256 3309 
L 2906 3309 
L 2906 2178 
L 3213 2178 
L 3213 3309 
L 3863 3309 
L 3863 2178 
L 4125 2178 
L 4125 1441 
L 3863 1441 
L 3863 272 
Q 4166 556 4419 891 
Q 4250 1884 4238 3591 
L 2169 3591 
L 2169 4328 
z
" transform="scale(0.015625)"/>
      <path id="MicrosoftYaHei-Bold-2192" d="M 4859 3766 
Q 5241 3344 5514 3125 
Q 5788 2906 6150 2713 
L 6150 2572 
Q 5788 2381 5517 2164 
Q 5247 1947 4859 1519 
L 4622 1519 
Q 4766 1822 4866 1983 
Q 4966 2144 5141 2369 
L 247 2369 
L 247 2916 
L 5141 2916 
Q 4972 3131 4869 3298 
Q 4766 3466 4622 3766 
L 4859 3766 
z
" transform="scale(0.015625)"/>
      <path id="MicrosoftYaHei-Bold-5185" d="M 488 4347 
L 2806 4347 
Q 2822 4881 2825 5353 
L 3644 5353 
Q 3644 4803 3634 4347 
L 5925 4347 
L 5925 266 
Q 5925 -203 5711 -451 
Q 5497 -700 5084 -734 
Q 4672 -769 3950 -753 
Q 3881 -397 3763 66 
Q 4181 34 4575 34 
Q 4791 34 4878 62 
Q 4966 91 5020 186 
Q 5075 281 5075 434 
L 5075 3528 
L 3613 3528 
Q 3575 3028 3503 2666 
Q 4150 2197 5031 1478 
L 4400 847 
Q 3984 1275 3206 1963 
Q 2806 1284 2013 759 
Q 1694 1134 1369 1416 
Q 2700 2216 2781 3528 
L 1338 3528 
L 1338 -803 
L 488 -803 
L 488 4347 
z
" transform="scale(0.015625)"/>
      <path id="MicrosoftYaHei-Bold-80fd" d="M 2644 4797 
Q 3100 4172 3569 3447 
Q 3188 3222 2906 3066 
L 2731 3369 
L 319 3197 
L 100 3897 
Q 519 4116 1331 5353 
L 2125 5053 
L 1213 3947 
L 2353 3994 
Q 2200 4238 2044 4472 
L 2644 4797 
z
M 5513 3916 
Q 5981 3697 6288 3597 
Q 6200 3228 6114 2942 
Q 6028 2656 5798 2520 
Q 5569 2384 5200 2384 
L 4556 2384 
Q 3594 2384 3588 3322 
L 3588 5291 
L 4381 5291 
L 4381 4347 
Q 5153 4700 5681 5003 
L 6231 4366 
Q 5553 4056 4381 3616 
L 4381 3422 
Q 4381 3072 4800 3072 
L 5000 3072 
Q 5341 3072 5392 3269 
Q 5444 3466 5513 3916 
z
M 1213 -797 
L 431 -797 
L 431 2978 
L 3106 2978 
L 3106 41 
Q 3106 -325 2972 -525 
Q 2838 -725 2566 -759 
Q 2294 -794 1681 -784 
Q 1594 -422 1481 -41 
Q 1791 -59 1969 -59 
Q 2213 -59 2269 28 
Q 2325 116 2325 228 
L 2325 378 
L 1213 378 
L 1213 -797 
z
M 2325 2303 
L 1213 2303 
L 1213 1947 
L 2325 1947 
L 2325 2303 
z
M 1213 984 
L 2325 984 
L 2325 1341 
L 1213 1341 
L 1213 984 
z
M 5531 953 
Q 5913 797 6313 647 
Q 6194 -78 6081 -287 
Q 5969 -497 5750 -605 
Q 5531 -713 5206 -716 
L 4550 -716 
Q 3588 -716 3588 228 
L 3588 2216 
L 4381 2216 
L 4381 1438 
Q 5072 1781 5675 2147 
L 6225 1491 
Q 5372 1084 4381 672 
L 4381 353 
Q 4381 -28 4738 -28 
L 5000 -28 
Q 5275 -28 5365 90 
Q 5456 209 5531 953 
z
" transform="scale(0.015625)"/>
     </defs>
     <use xlink:href="#MicrosoftYaHei-Bold-28"/>
     <use xlink:href="#MicrosoftYaHei-Bold-673a" transform="translate(38.964844 0)"/>
     <use xlink:href="#MicrosoftYaHei-Bold-68b0" transform="translate(138.964844 0)"/>
     <use xlink:href="#MicrosoftYaHei-Bold-2192" transform="translate(238.964844 0)"/>
     <use xlink:href="#MicrosoftYaHei-Bold-5185" transform="translate(338.964844 0)"/>
     <use xlink:href="#MicrosoftYaHei-Bold-80fd" transform="translate(438.964844 0)"/>
     <use xlink:href="#MicrosoftYaHei-Bold-29" transform="translate(538.964844 0)"/>
    </g>
    <!-- 活塞向上 -->
    <g style="fill: #f39c12" transform="translate(168.08 122.350458) scale(0.08 -0.08)">
     <defs>
      <path id="MicrosoftYaHei-Bold-4e0a" d="M 181 359 
L 2500 359 
L 2500 5278 
L 3513 5278 
L 3513 3547 
L 5825 3547 
L 5825 2653 
L 3513 2653 
L 3513 359 
L 6231 359 
L 6231 -522 
L 181 -522 
L 181 359 
z
" transform="scale(0.015625)"/>
     </defs>
     <use xlink:href="#MicrosoftYaHei-Bold-6d3b"/>
     <use xlink:href="#MicrosoftYaHei-Bold-585e" transform="translate(100 0)"/>
     <use xlink:href="#MicrosoftYaHei-Bold-5411" transform="translate(200 0)"/>
     <use xlink:href="#MicrosoftYaHei-Bold-4e0a" transform="translate(300 0)"/>
    </g>
   </g>
   <g id="text_4">
    <!-- ② -->
    <g style="fill: #f39c12" transform="translate(176.08 47.87125) scale(0.16 -0.16)">
     <defs>
      <path id="MicrosoftYaHei-Bold-2461" d="M 3200 4781 
Q 4453 4781 5353 3881 
Q 6253 2981 6253 1728 
Q 6253 475 5353 -425 
Q 4453 -1325 3200 -1325 
Q 1947 -1325 1047 -425 
Q 147 475 147 1728 
Q 147 2981 1047 3881 
Q 1947 4781 3200 4781 
z
M 3200 -800 
Q 4238 -800 4983 -59 
Q 5728 681 5728 1728 
Q 5728 2769 4984 3512 
Q 4241 4256 3200 4256 
Q 2156 4256 1414 3512 
Q 672 2769 672 1728 
Q 672 684 1417 -58 
Q 2163 -800 3200 -800 
z
M 2053 197 
L 2053 819 
Q 3106 1791 3315 2031 
Q 3525 2272 3525 2516 
Q 3525 2881 3097 2881 
Q 2753 2881 2209 2472 
L 2209 3256 
Q 2681 3566 3231 3566 
Q 3753 3566 4042 3300 
Q 4331 3034 4331 2591 
Q 4331 2209 4079 1865 
Q 3828 1522 3097 903 
L 4300 903 
L 4300 197 
L 2053 197 
z
" transform="scale(0.015625)"/>
     </defs>
     <use xlink:href="#MicrosoftYaHei-Bold-2461"/>
    </g>
   </g>
   <g id="text_5">
    <!-- 做功冲程 -->
    <g style="fill: #c0392b" transform="translate(288.68 103.024958) scale(0.08 -0.08)">
     <defs>
      <path id="MicrosoftYaHei-Bold-505a" d="M 1713 4197 
L 2413 4197 
L 2413 5347 
L 3263 5347 
L 3263 4197 
L 3900 4197 
L 3900 3478 
Q 4269 4231 4556 5353 
L 5375 5197 
Q 5250 4722 5084 4278 
L 6306 4278 
L 6306 3534 
L 6066 3534 
Q 5991 1997 5472 881 
Q 5813 384 6313 53 
L 5938 -834 
Q 5397 -431 5016 100 
Q 4619 -453 4069 -866 
Q 3963 -644 3616 -141 
L 2594 -141 
L 2594 -403 
L 1831 -403 
L 1831 2547 
L 2413 2547 
L 2413 3447 
L 1713 3447 
L 1713 4197 
z
M 5019 1797 
Q 5275 2553 5303 3534 
L 4763 3534 
Q 4747 3500 4728 3466 
Q 4769 2522 5019 1797 
z
M 4166 2506 
Q 4084 2388 4000 2272 
Q 3888 2572 3631 2997 
Q 3763 3200 3881 3447 
L 3263 3447 
L 3263 2547 
L 3863 2547 
L 3863 138 
Q 4278 456 4572 894 
Q 4263 1613 4166 2506 
z
M 3100 578 
L 3100 1828 
L 2594 1828 
L 2594 578 
L 3100 578 
z
M 1094 5341 
L 1869 5159 
Q 1694 4509 1481 3900 
L 1481 -841 
L 731 -841 
L 731 2125 
Q 544 1750 338 1397 
L 119 2503 
Q 794 3903 1094 5341 
z
" transform="scale(0.015625)"/>
      <path id="MicrosoftYaHei-Bold-529f" d="M 4038 -753 
Q 3925 -191 3813 184 
Q 4253 166 4625 166 
Q 5056 166 5095 556 
Q 5134 947 5163 3441 
L 4181 3441 
Q 4141 1638 3672 658 
Q 3203 -322 2450 -884 
Q 2119 -534 1756 -203 
Q 3350 803 3353 3441 
L 2650 3441 
L 2650 4266 
L 3375 4266 
Q 3384 4750 3381 5322 
L 4213 5322 
L 4200 4266 
L 6038 4266 
L 5969 713 
Q 5950 72 5887 -129 
Q 5825 -331 5664 -478 
Q 5503 -625 5264 -684 
Q 5025 -744 4038 -753 
z
M 306 41 
L 94 972 
L 950 1194 
L 950 3916 
L 169 3916 
L 169 4772 
L 2525 4772 
L 2525 3916 
L 1806 3916 
L 1806 1428 
L 2650 1672 
Q 2634 1444 2634 1234 
Q 2634 984 2656 759 
Q 1369 397 306 41 
z
" transform="scale(0.015625)"/>
     </defs>
     <use xlink:href="#MicrosoftYaHei-Bold-505a"/>
     <use xlink:href="#MicrosoftYaHei-Bold-529f" transform="translate(100 0)"/>
     <use xlink:href="#MicrosoftYaHei-Bold-51b2" transform="translate(200 0)"/>
     <use xlink:href="#MicrosoftYaHei-Bold-7a0b" transform="translate(300 0)"/>
    </g>
    <!-- (内能→机械) -->
    <g style="fill: #c0392b" transform="translate(281.5625 112.687708) scale(0.08 -0.08)">
     <use xlink:href="#MicrosoftYaHei-Bold-28"/>
     <use xlink:href="#MicrosoftYaHei-Bold-5185" transform="translate(38.964844 0)"/>
     <use xlink:href="#MicrosoftYaHei-Bold-80fd" transform="translate(138.964844 0)"/>
     <use xlink:href="#MicrosoftYaHei-Bold-2192" transform="translate(238.964844 0)"/>
     <use xlink:href="#MicrosoftYaHei-Bold-673a" transform="translate(338.964844 0)"/>
     <use xlink:href="#MicrosoftYaHei-Bold-68b0" transform="translate(438.964844 0)"/>
     <use xlink:href="#MicrosoftYaHei-Bold-29" transform="translate(538.964844 0)"/>
    </g>
    <!-- 活塞向下 -->
    <g style="fill: #c0392b" transform="translate(288.68 122.350458) scale(0.08 -0.08)">
     <use xlink:href="#MicrosoftYaHei-Bold-6d3b"/>
     <use xlink:href="#MicrosoftYaHei-Bold-585e" transform="translate(100 0)"/>
     <use xlink:href="#MicrosoftYaHei-Bold-5411" transform="translate(200 0)"/>
     <use xlink:href="#MicrosoftYaHei-Bold-4e0b" transform="translate(300 0)"/>
    </g>
   </g>
   <g id="text_6">
    <!-- ③ -->
    <g style="fill: #c0392b" transform="translate(296.68 47.87125) scale(0.16 -0.16)">
     <defs>
      <path id="MicrosoftYaHei-Bold-2462" d="M 3200 4781 
Q 4453 4781 5353 3881 
Q 6253 2981 6253 1728 
Q 6253 475 5353 -425 
Q 4453 -1325 3200 -1325 
Q 1947 -1325 1047 -425 
Q 147 475 147 1728 
Q 147 2981 1047 3881 
Q 1947 4781 3200 4781 
z
M 3200 -800 
Q 4238 -800 4983 -59 
Q 5728 681 5728 1728 
Q 5728 2769 4984 3512 
Q 4241 4256 3200 4256 
Q 2156 4256 1414 3512 
Q 672 2769 672 1728 
Q 672 684 1417 -58 
Q 2163 -800 3200 -800 
z
M 2105 347 
L 2105 1100 
Q 2490 819 2930 819 
Q 3474 819 3474 1184 
Q 3474 1563 2796 1563 
L 2440 1563 
L 2440 2228 
L 2784 2228 
Q 3359 2228 3359 2578 
Q 3359 2900 2924 2900 
Q 2534 2900 2221 2694 
L 2221 3372 
Q 2602 3559 3084 3559 
Q 3609 3559 3894 3318 
Q 4180 3078 4180 2700 
Q 4180 2144 3743 1941 
Q 3999 1847 4139 1636 
Q 4280 1425 4280 1184 
Q 4280 716 3928 431 
Q 3577 147 2977 147 
Q 2499 147 2105 347 
z
" transform="scale(0.015625)"/>
     </defs>
     <use xlink:href="#MicrosoftYaHei-Bold-2462"/>
    </g>
   </g>
   <g id="text_7">
    <!-- 排气冲程 -->
    <g style="fill: #27ae60" transform="translate(409.28 103.024958) scale(0.08 -0.08)">
     <defs>
      <path id="MicrosoftYaHei-Bold-6392" d="M 4300 5316 
L 5100 5316 
L 5100 4228 
L 6188 4228 
L 6188 3428 
L 5100 3428 
L 5100 2778 
L 6075 2778 
L 6075 1978 
L 5100 1978 
L 5100 1316 
L 6294 1316 
L 6294 516 
L 5100 516 
L 5100 -847 
L 4300 -847 
L 4300 5316 
z
M 1844 1316 
L 2925 1316 
L 2925 1978 
L 2150 1978 
L 2150 2778 
L 2925 2778 
L 2925 3428 
L 2138 3428 
L 2138 4228 
L 2925 4228 
L 2925 5316 
L 3750 5316 
L 3750 -847 
L 2925 -847 
L 2925 516 
L 1844 516 
L 1844 1316 
z
M 113 4153 
L 738 4153 
L 738 5253 
L 1531 5253 
L 1531 4153 
L 2000 4153 
L 2000 3378 
L 1531 3378 
L 1531 2597 
Q 1759 2681 1938 2753 
Q 1981 2259 2025 1922 
L 1531 1719 
L 1531 -3 
Q 1531 -350 1406 -542 
Q 1281 -734 1007 -771 
Q 734 -809 250 -809 
Q 188 -447 94 3 
L 581 3 
Q 738 3 738 253 
L 738 1375 
L 263 1159 
L 100 2059 
L 738 2297 
L 738 3378 
L 113 3378 
L 113 4153 
z
" transform="scale(0.015625)"/>
     </defs>
     <use xlink:href="#MicrosoftYaHei-Bold-6392"/>
     <use xlink:href="#MicrosoftYaHei-Bold-6c14" transform="translate(100 0)"/>
     <use xlink:href="#MicrosoftYaHei-Bold-51b2" transform="translate(200 0)"/>
     <use xlink:href="#MicrosoftYaHei-Bold-7a0b" transform="translate(300 0)"/>
    </g>
    <!-- (排气门开) -->
    <g style="fill: #27ae60" transform="translate(406.1625 112.687708) scale(0.08 -0.08)">
     <use xlink:href="#MicrosoftYaHei-Bold-28"/>
     <use xlink:href="#MicrosoftYaHei-Bold-6392" transform="translate(38.964844 0)"/>
     <use xlink:href="#MicrosoftYaHei-Bold-6c14" transform="translate(138.964844 0)"/>
     <use xlink:href="#MicrosoftYaHei-Bold-95e8" transform="translate(238.964844 0)"/>
     <use xlink:href="#MicrosoftYaHei-Bold-5f00" transform="translate(338.964844 0)"/>
     <use xlink:href="#MicrosoftYaHei-Bold-29" transform="translate(438.964844 0)"/>
    </g>
    <!-- 活塞向上 -->
    <g style="fill: #27ae60" transform="translate(409.28 122.350458) scale(0.08 -0.08)">
     <use xlink:href="#MicrosoftYaHei-Bold-6d3b"/>
     <use xlink:href="#MicrosoftYaHei-Bold-585e" transform="translate(100 0)"/>
     <use xlink:href="#MicrosoftYaHei-Bold-5411" transform="translate(200 0)"/>
     <use xlink:href="#MicrosoftYaHei-Bold-4e0a" transform="translate(300 0)"/>
    </g>
   </g>
   <g id="text_8">
    <!-- ④ -->
    <g style="fill: #27ae60" transform="translate(417.28 47.87125) scale(0.16 -0.16)">
     <defs>
      <path id="MicrosoftYaHei-Bold-2463" d="M 3200 4781 
Q 4453 4781 5353 3881 
Q 6253 2981 6253 1728 
Q 6253 475 5353 -425 
Q 4453 -1325 3200 -1325 
Q 1947 -1325 1047 -425 
Q 147 475 147 1728 
Q 147 2981 1047 3881 
Q 1947 4781 3200 4781 
z
M 3200 -800 
Q 4238 -800 4983 -59 
Q 5728 681 5728 1728 
Q 5728 2769 4984 3512 
Q 4241 4256 3200 4256 
Q 2156 4256 1414 3512 
Q 672 2769 672 1728 
Q 672 684 1417 -58 
Q 2163 -800 3200 -800 
z
M 3872 903 
L 3872 197 
L 3138 197 
L 3138 903 
L 1704 903 
L 1704 1422 
L 3113 3513 
L 3872 3513 
L 3872 1538 
L 4275 1538 
L 4275 903 
L 3872 903 
z
M 3138 2497 
Q 3079 2400 2638 1750 
Q 2572 1653 2497 1538 
L 3138 1538 
L 3138 2497 
z
" transform="scale(0.015625)"/>
     </defs>
     <use xlink:href="#MicrosoftYaHei-Bold-2463"/>
    </g>
   </g>
   <g id="text_9">
    <!-- 汽油机四冲程工作循环 -->
    <g style="fill: #e67e22" transform="translate(178.4 18.39125) scale(0.14 -0.14)">
     <defs>
      <path id="MicrosoftYaHei-Bold-6c7d" d="M 2625 5309 
L 3500 5309 
Q 3406 5044 3291 4784 
L 6063 4784 
L 6063 4047 
L 2928 4047 
Q 2825 3856 2709 3666 
L 5750 3666 
L 5750 2953 
L 2619 2953 
L 2619 3519 
Q 2356 3106 2044 2697 
Q 1788 3209 1544 3628 
Q 2275 4484 2625 5309 
z
M 694 5297 
Q 1406 4828 1838 4459 
L 1275 3822 
Q 788 4284 175 4741 
L 694 5297 
z
M 625 3634 
Q 1213 3234 1738 2784 
L 1150 2134 
Q 738 2541 81 3047 
L 625 3634 
z
M 2031 1822 
L 2031 2559 
L 5500 2559 
L 5500 1509 
Q 5500 697 5547 415 
Q 5594 134 5688 134 
Q 5791 134 5856 1116 
Q 6075 947 6325 797 
Q 6259 -184 6087 -531 
Q 5916 -878 5606 -878 
Q 5056 -878 4840 -362 
Q 4625 153 4625 1409 
L 4625 1822 
L 2031 1822 
z
M 956 1947 
Q 1281 1778 1775 1622 
Q 1394 491 1000 -759 
Q 556 -591 150 -466 
Q 606 678 956 1947 
z
" transform="scale(0.015625)"/>
      <path id="MicrosoftYaHei-Bold-6cb9" d="M 713 5253 
Q 1194 4922 1763 4447 
L 1188 3809 
Q 681 4284 181 4697 
L 713 5253 
z
M 2013 -797 
L 2013 4328 
L 3650 4328 
L 3650 5241 
L 4419 5241 
L 4419 4328 
L 6056 4328 
L 6056 -797 
L 5231 -797 
L 5231 -359 
L 2838 -359 
L 2838 -797 
L 2013 -797 
z
M 5231 3528 
L 4419 3528 
L 4419 2378 
L 5231 2378 
L 5231 3528 
z
M 2838 2378 
L 3650 2378 
L 3650 3528 
L 2838 3528 
L 2838 2378 
z
M 2838 441 
L 3650 441 
L 3650 1628 
L 2838 1628 
L 2838 441 
z
M 4419 441 
L 5231 441 
L 5231 1628 
L 4419 1628 
L 4419 441 
z
M 644 3591 
Q 1200 3197 1663 2803 
L 1056 2153 
Q 675 2534 88 3003 
L 644 3591 
z
M 888 1903 
Q 1363 1697 1750 1572 
Q 1369 278 1013 -809 
Q 556 -641 144 -516 
Q 556 622 888 1903 
z
" transform="scale(0.015625)"/>
      <path id="MicrosoftYaHei-Bold-56db" d="M 388 -797 
L 388 4953 
L 6013 4953 
L 6013 -791 
L 5106 -791 
L 5106 -397 
L 1294 -397 
L 1294 -797 
L 388 -797 
z
M 5100 2084 
Q 4994 1684 4938 1259 
L 4200 1259 
Q 3463 1259 3463 2028 
L 3463 4109 
L 2844 4109 
L 2844 2847 
Q 2844 1609 1938 997 
Q 1700 1197 1294 1491 
L 1294 447 
L 5106 447 
L 5106 4109 
L 4288 4109 
L 4288 2378 
Q 4288 2084 4581 2084 
L 5100 2084 
z
M 2019 2916 
L 2019 4109 
L 1294 4109 
L 1294 1544 
Q 2019 1950 2019 2916 
z
" transform="scale(0.015625)"/>
      <path id="MicrosoftYaHei-Bold-5de5" d="M 163 384 
L 2675 384 
L 2675 3966 
L 500 3966 
L 500 4853 
L 5925 4853 
L 5925 3966 
L 3700 3966 
L 3700 384 
L 6244 384 
L 6244 -503 
L 163 -503 
L 163 384 
z
" transform="scale(0.015625)"/>
      <path id="MicrosoftYaHei-Bold-4f5c" d="M 5944 1984 
L 4250 1984 
L 4250 1216 
L 6088 1216 
L 6088 428 
L 4250 428 
L 4250 -834 
L 3369 -834 
L 3369 3541 
L 3184 3541 
Q 2800 2681 2313 2041 
Q 2131 2384 1831 2853 
Q 2544 3922 2944 5328 
L 3756 5134 
Q 3638 4722 3506 4347 
L 6300 4347 
L 6300 3541 
L 4250 3541 
L 4250 2772 
L 5944 2772 
L 5944 1984 
z
M 1319 5291 
L 2156 5047 
Q 1956 4419 1706 3828 
L 1706 -828 
L 856 -828 
L 856 2163 
Q 600 1744 313 1347 
Q 244 1828 100 2509 
Q 856 3703 1319 5291 
z
" transform="scale(0.015625)"/>
      <path id="MicrosoftYaHei-Bold-5faa" d="M 1425 3534 
L 2038 3128 
L 2038 4922 
Q 4244 4984 5963 5172 
L 6188 4509 
Q 5575 4441 4963 4391 
L 4963 3897 
L 6238 3897 
L 6238 3259 
L 4963 3259 
L 4963 2841 
L 6100 2841 
L 6100 -847 
L 5363 -847 
L 5363 -628 
L 3838 -628 
L 3838 -847 
L 3100 -847 
L 3100 2841 
L 4181 2841 
L 4181 3259 
L 2775 3259 
L 2775 2028 
Q 2788 222 2075 -866 
Q 1806 -522 1525 -234 
L 1525 -828 
L 781 -828 
L 781 1372 
Q 575 1159 363 966 
Q 250 1316 63 1803 
Q 744 2409 1425 3534 
z
M 1350 5316 
L 2006 4891 
Q 1350 3816 500 3059 
Q 300 3403 56 3784 
Q 819 4384 1350 5316 
z
M 1525 2266 
L 1525 -184 
Q 2050 653 2038 2234 
L 2038 3034 
Q 1794 2634 1525 2266 
z
M 3838 -16 
L 5363 -16 
L 5363 353 
L 3838 353 
L 3838 -16 
z
M 3838 928 
L 5363 928 
L 5363 1291 
L 3838 1291 
L 3838 928 
z
M 5363 2228 
L 3838 2228 
L 3838 1866 
L 5363 1866 
L 5363 2228 
z
M 2775 4272 
L 2775 3897 
L 4181 3897 
L 4181 4341 
Q 3475 4297 2775 4272 
z
" transform="scale(0.015625)"/>
      <path id="MicrosoftYaHei-Bold-73af" d="M 5163 2916 
Q 5825 1797 6300 878 
L 5544 472 
Q 5081 1400 4550 2413 
L 4550 -834 
L 3706 -834 
L 3706 2013 
Q 3272 1200 2700 484 
Q 2525 641 2378 766 
Q 2347 503 2331 9 
L 175 -328 
L 81 522 
L 863 613 
L 863 2003 
L 213 2003 
L 213 2834 
L 863 2834 
L 863 4066 
L 175 4066 
L 175 4897 
L 2375 4897 
L 2375 4066 
L 1694 4066 
L 1694 2834 
L 2356 2834 
L 2356 2003 
L 1694 2003 
L 1694 728 
L 2306 825 
Q 2134 972 2000 1072 
Q 3194 2478 3675 4084 
L 2606 4084 
L 2606 4916 
L 6075 4916 
L 6075 4084 
L 4556 4084 
Q 4400 3559 4200 3066 
L 4550 3066 
L 4550 2591 
L 5163 2916 
z
" transform="scale(0.015625)"/>
     </defs>
     <use xlink:href="#MicrosoftYaHei-Bold-6c7d"/>
     <use xlink:href="#MicrosoftYaHei-Bold-6cb9" transform="translate(100 0)"/>
     <use xlink:href="#MicrosoftYaHei-Bold-673a" transform="translate(200 0)"/>
     <use xlink:href="#MicrosoftYaHei-Bold-56db" transform="translate(300 0)"/>
     <use xlink:href="#MicrosoftYaHei-Bold-51b2" transform="translate(400 0)"/>
     <use xlink:href="#MicrosoftYaHei-Bold-7a0b" transform="translate(500 0)"/>
     <use xlink:href="#MicrosoftYaHei-Bold-5de5" transform="translate(600 0)"/>
     <use xlink:href="#MicrosoftYaHei-Bold-4f5c" transform="translate(700 0)"/>
     <use xlink:href="#MicrosoftYaHei-Bold-5faa" transform="translate(800 0)"/>
     <use xlink:href="#MicrosoftYaHei-Bold-73af" transform="translate(900 0)"/>
    </g>
   </g>
  </g>
 </g>
 <defs>
  <clipPath id="p70cd58aa7a">
   <rect x="7.2" y="24.39125" width="482.4" height="140.88"/>
  </clipPath>
 </defs>
</svg>
