<?xml version="1.0" encoding="utf-8" standalone="no"?>
<!DOCTYPE svg PUBLIC "-//W3C//DTD SVG 1.1//EN"
  "http://www.w3.org/Graphics/SVG/1.1/DTD/svg11.dtd">
<svg xmlns:xlink="http://www.w3.org/1999/xlink" width="313.522656pt" height="270.031563pt" viewBox="0 0 313.522656 270.031563" xmlns="http://www.w3.org/2000/svg" version="1.1">
 <metadata>
  <rdf:RDF xmlns:dc="http://purl.org/dc/elements/1.1/" xmlns:cc="http://creativecommons.org/ns#" xmlns:rdf="http://www.w3.org/1999/02/22-rdf-syntax-ns#">
   <cc:Work>
    <dc:type rdf:resource="http://purl.org/dc/dcmitype/StillImage"/>
    <dc:date>2026-05-22T22:58:42.835044</dc:date>
    <dc:format>image/svg+xml</dc:format>
    <dc:creator>
     <cc:Agent>
      <dc:title>Matplotlib v3.10.9, https://matplotlib.org/</dc:title>
     </cc:Agent>
    </dc:creator>
   </cc:Work>
  </rdf:RDF>
 </metadata>
 <defs>
  <style type="text/css">*{stroke-linejoin: round; stroke-linecap: butt}</style>
 </defs>
 <g id="figure_1">
  <g id="patch_1">
   <path d="M 0 270.031563 
L 313.522656 270.031563 
L 313.522656 0 
L 0 0 
z
" style="fill: #ffffff"/>
  </g>
  <g id="axes_1">
   <g id="patch_2">
    <path d="M 24.390625 245.351875 
L 303.390625 245.351875 
L 303.390625 23.591875 
L 24.390625 23.591875 
z
" style="fill: #ffffff"/>
   </g>
   <g id="matplotlib.axis_1">
    <g id="xtick_1">
     <g id="line2d_1">
      <path d="M 24.390625 245.351875 
L 24.390625 23.591875 
" clip-path="url(#p53c6c0dd0d)" style="fill: none; stroke: #b0b0b0; stroke-opacity: 0.3; stroke-width: 0.8; stroke-linecap: square"/>
     </g>
     <g id="line2d_2">
      <defs>
       <path id="ma3150a6402" d="M 0 0 
L 0 3.5 
" style="stroke: #000000; stroke-width: 0.8"/>
      </defs>
      <g>
       <use xlink:href="#ma3150a6402" x="24.390625" y="245.351875" style="stroke: #000000; stroke-width: 0.8"/>
      </g>
     </g>
     <g id="text_1">
      <!-- -4 -->
      <g transform="translate(19.295313 260.345625) scale(0.1 -0.1)">
       <defs>
        <path id="MicrosoftYaHei-2d" d="M 2328 1681 
L 488 1681 
L 488 2153 
L 2328 2153 
L 2328 1681 
z
" transform="scale(0.015625)"/>
        <path id="MicrosoftYaHei-34" d="M 2906 4841 
L 2906 1644 
L 3631 1644 
L 3631 1138 
L 2906 1138 
L 2906 0 
L 2313 0 
L 2313 1138 
L 53 1138 
L 53 1616 
Q 656 2294 1265 3178 
Q 1875 4063 2272 4841 
L 2906 4841 
z
M 741 1644 
L 2313 1644 
L 2313 3950 
Q 1988 3366 1616 2817 
Q 1244 2269 741 1644 
z
" transform="scale(0.015625)"/>
       </defs>
       <use xlink:href="#MicrosoftYaHei-2d"/>
       <use xlink:href="#MicrosoftYaHei-34" transform="translate(43.261719 0)"/>
      </g>
     </g>
    </g>
    <g id="xtick_2">
     <g id="line2d_3">
      <path d="M 55.390625 245.351875 
L 55.390625 23.591875 
" clip-path="url(#p53c6c0dd0d)" style="fill: none; stroke: #b0b0b0; stroke-opacity: 0.3; stroke-width: 0.8; stroke-linecap: square"/>
     </g>
     <g id="line2d_4">
      <g>
       <use xlink:href="#ma3150a6402" x="55.390625" y="245.351875" style="stroke: #000000; stroke-width: 0.8"/>
      </g>
     </g>
     <g id="text_2">
      <!-- -3 -->
      <g transform="translate(50.295313 260.345625) scale(0.1 -0.1)">
       <defs>
        <path id="MicrosoftYaHei-33" d="M 447 809 
Q 944 425 1569 425 
Q 2069 425 2361 670 
Q 2653 916 2653 1328 
Q 2653 2247 1338 2247 
L 934 2247 
L 934 2753 
L 1319 2753 
Q 2484 2753 2484 3616 
Q 2484 4413 1594 4413 
Q 1084 4413 634 4069 
L 634 4647 
Q 1109 4922 1744 4922 
Q 2363 4922 2738 4598 
Q 3113 4275 3113 3759 
Q 3113 2809 2144 2538 
L 2144 2525 
Q 2669 2469 2973 2155 
Q 3278 1841 3278 1372 
Q 3278 719 2808 319 
Q 2338 -81 1556 -81 
Q 869 -81 447 175 
L 447 809 
z
" transform="scale(0.015625)"/>
       </defs>
       <use xlink:href="#MicrosoftYaHei-2d"/>
       <use xlink:href="#MicrosoftYaHei-33" transform="translate(43.261719 0)"/>
      </g>
     </g>
    </g>
    <g id="xtick_3">
     <g id="line2d_5">
      <path d="M 86.390625 245.351875 
L 86.390625 23.591875 
" clip-path="url(#p53c6c0dd0d)" style="fill: none; stroke: #b0b0b0; stroke-opacity: 0.3; stroke-width: 0.8; stroke-linecap: square"/>
     </g>
     <g id="line2d_6">
      <g>
       <use xlink:href="#ma3150a6402" x="86.390625" y="245.351875" style="stroke: #000000; stroke-width: 0.8"/>
      </g>
     </g>
     <g id="text_3">
      <!-- -2 -->
      <g transform="translate(81.295312 260.345625) scale(0.1 -0.1)">
       <defs>
        <path id="MicrosoftYaHei-32" d="M 2666 3572 
Q 2666 3963 2419 4186 
Q 2172 4409 1747 4409 
Q 1447 4409 1140 4256 
Q 834 4103 569 3819 
L 569 4413 
Q 806 4659 1107 4790 
Q 1409 4922 1816 4922 
Q 2472 4922 2872 4570 
Q 3272 4219 3272 3619 
Q 3272 3084 3026 2693 
Q 2781 2303 2188 1894 
Q 1581 1475 1376 1294 
Q 1172 1113 1090 947 
Q 1009 781 1009 544 
L 3416 544 
L 3416 0 
L 372 0 
L 372 241 
Q 372 659 486 951 
Q 600 1244 862 1520 
Q 1125 1797 1681 2184 
Q 2250 2584 2458 2886 
Q 2666 3188 2666 3572 
z
" transform="scale(0.015625)"/>
       </defs>
       <use xlink:href="#MicrosoftYaHei-2d"/>
       <use xlink:href="#MicrosoftYaHei-32" transform="translate(43.261719 0)"/>
      </g>
     </g>
    </g>
    <g id="xtick_4">
     <g id="line2d_7">
      <path d="M 117.390625 245.351875 
L 117.390625 23.591875 
" clip-path="url(#p53c6c0dd0d)" style="fill: none; stroke: #b0b0b0; stroke-opacity: 0.3; stroke-width: 0.8; stroke-linecap: square"/>
     </g>
     <g id="line2d_8">
      <g>
       <use xlink:href="#ma3150a6402" x="117.390625" y="245.351875" style="stroke: #000000; stroke-width: 0.8"/>
      </g>
     </g>
     <g id="text_4">
      <!-- -1 -->
      <g transform="translate(112.295312 260.345625) scale(0.1 -0.1)">
       <defs>
        <path id="MicrosoftYaHei-31" d="M 1781 0 
L 1781 4141 
Q 1638 3997 1295 3819 
Q 953 3641 663 3569 
L 663 4169 
Q 1047 4275 1484 4508 
Q 1922 4741 2156 4947 
L 2388 4947 
L 2388 0 
L 1781 0 
z
" transform="scale(0.015625)"/>
       </defs>
       <use xlink:href="#MicrosoftYaHei-2d"/>
       <use xlink:href="#MicrosoftYaHei-31" transform="translate(43.261719 0)"/>
      </g>
     </g>
    </g>
    <g id="xtick_5">
     <g id="line2d_9">
      <path d="M 148.390625 245.351875 
L 148.390625 23.591875 
" clip-path="url(#p53c6c0dd0d)" style="fill: none; stroke: #b0b0b0; stroke-opacity: 0.3; stroke-width: 0.8; stroke-linecap: square"/>
     </g>
     <g id="line2d_10">
      <g>
       <use xlink:href="#ma3150a6402" x="148.390625" y="245.351875" style="stroke: #000000; stroke-width: 0.8"/>
      </g>
     </g>
     <g id="text_5">
      <!-- 0 -->
      <g transform="translate(145.458594 260.345625) scale(0.1 -0.1)">
       <defs>
        <path id="MicrosoftYaHei-30" d="M 284 2325 
Q 284 3606 709 4264 
Q 1134 4922 1941 4922 
Q 3478 4922 3478 2441 
Q 3478 1216 3045 567 
Q 2613 -81 1831 -81 
Q 1094 -81 689 534 
Q 284 1150 284 2325 
z
M 909 2353 
Q 909 425 1888 425 
Q 2850 425 2850 2384 
Q 2850 4413 1906 4413 
Q 909 4413 909 2353 
z
" transform="scale(0.015625)"/>
       </defs>
       <use xlink:href="#MicrosoftYaHei-30"/>
      </g>
     </g>
    </g>
    <g id="xtick_6">
     <g id="line2d_11">
      <path d="M 179.390625 245.351875 
L 179.390625 23.591875 
" clip-path="url(#p53c6c0dd0d)" style="fill: none; stroke: #b0b0b0; stroke-opacity: 0.3; stroke-width: 0.8; stroke-linecap: square"/>
     </g>
     <g id="line2d_12">
      <g>
       <use xlink:href="#ma3150a6402" x="179.390625" y="245.351875" style="stroke: #000000; stroke-width: 0.8"/>
      </g>
     </g>
     <g id="text_6">
      <!-- 1 -->
      <g transform="translate(176.458594 260.345625) scale(0.1 -0.1)">
       <use xlink:href="#MicrosoftYaHei-31"/>
      </g>
     </g>
    </g>
    <g id="xtick_7">
     <g id="line2d_13">
      <path d="M 210.390625 245.351875 
L 210.390625 23.591875 
" clip-path="url(#p53c6c0dd0d)" style="fill: none; stroke: #b0b0b0; stroke-opacity: 0.3; stroke-width: 0.8; stroke-linecap: square"/>
     </g>
     <g id="line2d_14">
      <g>
       <use xlink:href="#ma3150a6402" x="210.390625" y="245.351875" style="stroke: #000000; stroke-width: 0.8"/>
      </g>
     </g>
     <g id="text_7">
      <!-- 2 -->
      <g transform="translate(207.458594 260.345625) scale(0.1 -0.1)">
       <use xlink:href="#MicrosoftYaHei-32"/>
      </g>
     </g>
    </g>
    <g id="xtick_8">
     <g id="line2d_15">
      <path d="M 241.390625 245.351875 
L 241.390625 23.591875 
" clip-path="url(#p53c6c0dd0d)" style="fill: none; stroke: #b0b0b0; stroke-opacity: 0.3; stroke-width: 0.8; stroke-linecap: square"/>
     </g>
     <g id="line2d_16">
      <g>
       <use xlink:href="#ma3150a6402" x="241.390625" y="245.351875" style="stroke: #000000; stroke-width: 0.8"/>
      </g>
     </g>
     <g id="text_8">
      <!-- 3 -->
      <g transform="translate(238.458594 260.345625) scale(0.1 -0.1)">
       <use xlink:href="#MicrosoftYaHei-33"/>
      </g>
     </g>
    </g>
    <g id="xtick_9">
     <g id="line2d_17">
      <path d="M 272.390625 245.351875 
L 272.390625 23.591875 
" clip-path="url(#p53c6c0dd0d)" style="fill: none; stroke: #b0b0b0; stroke-opacity: 0.3; stroke-width: 0.8; stroke-linecap: square"/>
     </g>
     <g id="line2d_18">
      <g>
       <use xlink:href="#ma3150a6402" x="272.390625" y="245.351875" style="stroke: #000000; stroke-width: 0.8"/>
      </g>
     </g>
     <g id="text_9">
      <!-- 4 -->
      <g transform="translate(269.458594 260.345625) scale(0.1 -0.1)">
       <use xlink:href="#MicrosoftYaHei-34"/>
      </g>
     </g>
    </g>
    <g id="xtick_10">
     <g id="line2d_19">
      <path d="M 303.390625 245.351875 
L 303.390625 23.591875 
" clip-path="url(#p53c6c0dd0d)" style="fill: none; stroke: #b0b0b0; stroke-opacity: 0.3; stroke-width: 0.8; stroke-linecap: square"/>
     </g>
     <g id="line2d_20">
      <g>
       <use xlink:href="#ma3150a6402" x="303.390625" y="245.351875" style="stroke: #000000; stroke-width: 0.8"/>
      </g>
     </g>
     <g id="text_10">
      <!-- 5 -->
      <g transform="translate(300.458594 260.345625) scale(0.1 -0.1)">
       <defs>
        <path id="MicrosoftYaHei-35" d="M 3294 1494 
Q 3294 784 2823 350 
Q 2353 -84 1559 -84 
Q 878 -84 544 119 
L 544 744 
Q 1034 425 1544 425 
Q 2050 425 2361 704 
Q 2672 984 2672 1447 
Q 2672 1909 2348 2167 
Q 2025 2425 1434 2425 
Q 978 2425 613 2384 
L 791 4841 
L 3053 4841 
L 3053 4303 
L 1306 4303 
L 1206 2931 
L 1647 2950 
Q 2416 2950 2855 2567 
Q 3294 2184 3294 1494 
z
" transform="scale(0.015625)"/>
       </defs>
       <use xlink:href="#MicrosoftYaHei-35"/>
      </g>
     </g>
    </g>
   </g>
   <g id="matplotlib.axis_2">
    <g id="ytick_1">
     <g id="line2d_21">
      <path d="M 24.390625 245.351875 
L 303.390625 245.351875 
" clip-path="url(#p53c6c0dd0d)" style="fill: none; stroke: #b0b0b0; stroke-opacity: 0.3; stroke-width: 0.8; stroke-linecap: square"/>
     </g>
     <g id="line2d_22">
      <defs>
       <path id="mb7bf256ad4" d="M 0 0 
L -3.5 0 
" style="stroke: #000000; stroke-width: 0.8"/>
      </defs>
      <g>
       <use xlink:href="#mb7bf256ad4" x="24.390625" y="245.351875" style="stroke: #000000; stroke-width: 0.8"/>
      </g>
     </g>
     <g id="text_11">
      <!-- -2 -->
      <g transform="translate(7.2 249.34875) scale(0.1 -0.1)">
       <use xlink:href="#MicrosoftYaHei-2d"/>
       <use xlink:href="#MicrosoftYaHei-32" transform="translate(43.261719 0)"/>
      </g>
     </g>
    </g>
    <g id="ytick_2">
     <g id="line2d_23">
      <path d="M 24.390625 220.711875 
L 303.390625 220.711875 
" clip-path="url(#p53c6c0dd0d)" style="fill: none; stroke: #b0b0b0; stroke-opacity: 0.3; stroke-width: 0.8; stroke-linecap: square"/>
     </g>
     <g id="line2d_24">
      <g>
       <use xlink:href="#mb7bf256ad4" x="24.390625" y="220.711875" style="stroke: #000000; stroke-width: 0.8"/>
      </g>
     </g>
     <g id="text_12">
      <!-- -1 -->
      <g transform="translate(7.2 224.70875) scale(0.1 -0.1)">
       <use xlink:href="#MicrosoftYaHei-2d"/>
       <use xlink:href="#MicrosoftYaHei-31" transform="translate(43.261719 0)"/>
      </g>
     </g>
    </g>
    <g id="ytick_3">
     <g id="line2d_25">
      <path d="M 24.390625 196.071875 
L 303.390625 196.071875 
" clip-path="url(#p53c6c0dd0d)" style="fill: none; stroke: #b0b0b0; stroke-opacity: 0.3; stroke-width: 0.8; stroke-linecap: square"/>
     </g>
     <g id="line2d_26">
      <g>
       <use xlink:href="#mb7bf256ad4" x="24.390625" y="196.071875" style="stroke: #000000; stroke-width: 0.8"/>
      </g>
     </g>
     <g id="text_13">
      <!-- 0 -->
      <g transform="translate(11.526563 200.06875) scale(0.1 -0.1)">
       <use xlink:href="#MicrosoftYaHei-30"/>
      </g>
     </g>
    </g>
    <g id="ytick_4">
     <g id="line2d_27">
      <path d="M 24.390625 171.431875 
L 303.390625 171.431875 
" clip-path="url(#p53c6c0dd0d)" style="fill: none; stroke: #b0b0b0; stroke-opacity: 0.3; stroke-width: 0.8; stroke-linecap: square"/>
     </g>
     <g id="line2d_28">
      <g>
       <use xlink:href="#mb7bf256ad4" x="24.390625" y="171.431875" style="stroke: #000000; stroke-width: 0.8"/>
      </g>
     </g>
     <g id="text_14">
      <!-- 1 -->
      <g transform="translate(11.526563 175.42875) scale(0.1 -0.1)">
       <use xlink:href="#MicrosoftYaHei-31"/>
      </g>
     </g>
    </g>
    <g id="ytick_5">
     <g id="line2d_29">
      <path d="M 24.390625 146.791875 
L 303.390625 146.791875 
" clip-path="url(#p53c6c0dd0d)" style="fill: none; stroke: #b0b0b0; stroke-opacity: 0.3; stroke-width: 0.8; stroke-linecap: square"/>
     </g>
     <g id="line2d_30">
      <g>
       <use xlink:href="#mb7bf256ad4" x="24.390625" y="146.791875" style="stroke: #000000; stroke-width: 0.8"/>
      </g>
     </g>
     <g id="text_15">
      <!-- 2 -->
      <g transform="translate(11.526563 150.78875) scale(0.1 -0.1)">
       <use xlink:href="#MicrosoftYaHei-32"/>
      </g>
     </g>
    </g>
    <g id="ytick_6">
     <g id="line2d_31">
      <path d="M 24.390625 122.151875 
L 303.390625 122.151875 
" clip-path="url(#p53c6c0dd0d)" style="fill: none; stroke: #b0b0b0; stroke-opacity: 0.3; stroke-width: 0.8; stroke-linecap: square"/>
     </g>
     <g id="line2d_32">
      <g>
       <use xlink:href="#mb7bf256ad4" x="24.390625" y="122.151875" style="stroke: #000000; stroke-width: 0.8"/>
      </g>
     </g>
     <g id="text_16">
      <!-- 3 -->
      <g transform="translate(11.526563 126.14875) scale(0.1 -0.1)">
       <use xlink:href="#MicrosoftYaHei-33"/>
      </g>
     </g>
    </g>
    <g id="ytick_7">
     <g id="line2d_33">
      <path d="M 24.390625 97.511875 
L 303.390625 97.511875 
" clip-path="url(#p53c6c0dd0d)" style="fill: none; stroke: #b0b0b0; stroke-opacity: 0.3; stroke-width: 0.8; stroke-linecap: square"/>
     </g>
     <g id="line2d_34">
      <g>
       <use xlink:href="#mb7bf256ad4" x="24.390625" y="97.511875" style="stroke: #000000; stroke-width: 0.8"/>
      </g>
     </g>
     <g id="text_17">
      <!-- 4 -->
      <g transform="translate(11.526563 101.50875) scale(0.1 -0.1)">
       <use xlink:href="#MicrosoftYaHei-34"/>
      </g>
     </g>
    </g>
    <g id="ytick_8">
     <g id="line2d_35">
      <path d="M 24.390625 72.871875 
L 303.390625 72.871875 
" clip-path="url(#p53c6c0dd0d)" style="fill: none; stroke: #b0b0b0; stroke-opacity: 0.3; stroke-width: 0.8; stroke-linecap: square"/>
     </g>
     <g id="line2d_36">
      <g>
       <use xlink:href="#mb7bf256ad4" x="24.390625" y="72.871875" style="stroke: #000000; stroke-width: 0.8"/>
      </g>
     </g>
     <g id="text_18">
      <!-- 5 -->
      <g transform="translate(11.526563 76.86875) scale(0.1 -0.1)">
       <use xlink:href="#MicrosoftYaHei-35"/>
      </g>
     </g>
    </g>
    <g id="ytick_9">
     <g id="line2d_37">
      <path d="M 24.390625 48.231875 
L 303.390625 48.231875 
" clip-path="url(#p53c6c0dd0d)" style="fill: none; stroke: #b0b0b0; stroke-opacity: 0.3; stroke-width: 0.8; stroke-linecap: square"/>
     </g>
     <g id="line2d_38">
      <g>
       <use xlink:href="#mb7bf256ad4" x="24.390625" y="48.231875" style="stroke: #000000; stroke-width: 0.8"/>
      </g>
     </g>
     <g id="text_19">
      <!-- 6 -->
      <g transform="translate(11.526563 52.22875) scale(0.1 -0.1)">
       <defs>
        <path id="MicrosoftYaHei-36" d="M 3181 4219 
Q 2803 4413 2391 4413 
Q 1763 4413 1381 3866 
Q 1000 3319 994 2372 
L 1009 2372 
Q 1353 3038 2106 3038 
Q 2734 3038 3109 2628 
Q 3484 2219 3484 1541 
Q 3484 831 3051 375 
Q 2619 -81 1947 -81 
Q 1209 -81 789 495 
Q 369 1072 369 2131 
Q 369 3413 920 4167 
Q 1472 4922 2372 4922 
Q 2888 4922 3181 4781 
L 3181 4219 
z
M 1031 1584 
Q 1031 1106 1286 765 
Q 1541 425 1963 425 
Q 2363 425 2613 719 
Q 2863 1013 2863 1475 
Q 2863 1975 2627 2253 
Q 2391 2531 1956 2531 
Q 1544 2531 1287 2250 
Q 1031 1969 1031 1584 
z
" transform="scale(0.015625)"/>
       </defs>
       <use xlink:href="#MicrosoftYaHei-36"/>
      </g>
     </g>
    </g>
    <g id="ytick_10">
     <g id="line2d_39">
      <path d="M 24.390625 23.591875 
L 303.390625 23.591875 
" clip-path="url(#p53c6c0dd0d)" style="fill: none; stroke: #b0b0b0; stroke-opacity: 0.3; stroke-width: 0.8; stroke-linecap: square"/>
     </g>
     <g id="line2d_40">
      <g>
       <use xlink:href="#mb7bf256ad4" x="24.390625" y="23.591875" style="stroke: #000000; stroke-width: 0.8"/>
      </g>
     </g>
     <g id="text_20">
      <!-- 7 -->
      <g transform="translate(11.526563 27.58875) scale(0.1 -0.1)">
       <defs>
        <path id="MicrosoftYaHei-37" d="M 3422 4463 
Q 2659 3131 2223 1998 
Q 1788 866 1684 0 
L 1047 0 
Q 1163 853 1594 1947 
Q 2025 3041 2747 4300 
L 347 4300 
L 347 4841 
L 3422 4841 
L 3422 4463 
z
" transform="scale(0.015625)"/>
       </defs>
       <use xlink:href="#MicrosoftYaHei-37"/>
      </g>
     </g>
    </g>
   </g>
   <g id="line2d_41">
    <path d="M 24.390625 196.071875 
L 303.390625 196.071875 
" clip-path="url(#p53c6c0dd0d)" style="fill: none; stroke: #333333; stroke-width: 0.8; stroke-linecap: square"/>
   </g>
   <g id="line2d_42">
    <path d="M 148.390625 245.351875 
L 148.390625 23.591875 
" clip-path="url(#p53c6c0dd0d)" style="fill: none; stroke: #333333; stroke-width: 0.8; stroke-linecap: square"/>
   </g>
   <g id="line2d_43">
    <path d="M 60.720517 -1 
L 64.721729 16.579751 
L 69.387281 36.039346 
L 73.27524 51.402999 
L 77.1632 65.991494 
L 81.05116 79.804829 
L 84.93912 92.843006 
L 88.82708 105.106023 
L 92.71504 116.593881 
L 96.603 127.30658 
L 100.490959 137.24412 
L 103.601327 144.636037 
L 106.711695 151.531852 
L 109.822063 157.931566 
L 112.932431 163.835178 
L 116.042799 169.242688 
L 119.153167 174.154096 
L 122.263535 178.569402 
L 124.596311 181.555315 
L 126.929087 184.262171 
L 129.261862 186.689969 
L 131.594638 188.83871 
L 133.927414 190.708394 
L 136.26019 192.299021 
L 138.592966 193.61059 
L 140.925742 194.643102 
L 143.258518 195.396556 
L 145.591294 195.870954 
L 147.92407 196.066294 
L 150.256846 195.982577 
L 152.589622 195.619802 
L 154.922398 194.97797 
L 157.255173 194.057081 
L 159.587949 192.857135 
L 161.920725 191.378132 
L 164.253501 189.620071 
L 166.586277 187.582953 
L 168.919053 185.266777 
L 171.251829 182.671544 
L 173.584605 179.797254 
L 175.917381 176.643907 
L 179.027749 172.005355 
L 182.138117 166.870701 
L 185.248485 161.239945 
L 188.358852 155.113088 
L 191.46922 148.490128 
L 194.579588 141.371067 
L 197.689956 133.755904 
L 200.800324 125.644639 
L 204.688284 114.807914 
L 208.576244 103.196031 
L 212.464204 90.808988 
L 216.352163 77.646786 
L 220.240123 63.709425 
L 224.128083 48.996905 
L 228.016043 33.509226 
L 232.681595 13.900801 
L 236.060382 -1 
L 236.060382 -1 
" clip-path="url(#p53c6c0dd0d)" style="fill: none; stroke-dasharray: 9.25,4; stroke-dashoffset: 0; stroke: #999999; stroke-width: 2.5"/>
   </g>
   <g id="line2d_44">
    <path d="M 128.384191 -1 
L 132.37223 15.364784 
L 136.26019 30.532064 
L 140.14815 44.924185 
L 144.03611 58.541147 
L 147.92407 71.382949 
L 151.81203 83.449593 
L 155.69999 94.741077 
L 159.587949 105.257403 
L 162.698317 113.112348 
L 165.808685 120.471192 
L 168.919053 127.333934 
L 172.029421 133.700574 
L 175.139789 139.571113 
L 178.250157 144.945549 
L 181.360525 149.823884 
L 184.470893 154.206117 
L 186.803668 157.167225 
L 189.136444 159.849275 
L 191.46922 162.252269 
L 193.801996 164.376204 
L 196.134772 166.221083 
L 198.467548 167.786905 
L 200.800324 169.073669 
L 203.1331 170.081376 
L 205.465876 170.810025 
L 207.798652 171.259617 
L 210.131428 171.430152 
L 212.464204 171.32163 
L 214.79698 170.934051 
L 217.129755 170.267414 
L 219.462531 169.32172 
L 221.795307 168.096968 
L 224.128083 166.59316 
L 226.460859 164.810294 
L 228.793635 162.74837 
L 231.126411 160.40739 
L 233.459187 157.787352 
L 235.791963 154.888257 
L 238.124739 151.710105 
L 241.235107 147.038479 
L 244.345474 141.870752 
L 247.455842 136.206922 
L 250.56621 130.046991 
L 253.676578 123.390958 
L 256.786946 116.238823 
L 259.897314 108.590587 
L 263.007682 100.446248 
L 266.895642 89.568182 
L 270.783602 77.914957 
L 274.671561 65.486572 
L 278.559521 52.283029 
L 282.447481 38.304326 
L 286.335441 23.550464 
L 287.890625 17.431875 
L 287.890625 17.431875 
" clip-path="url(#p53c6c0dd0d)" style="fill: none; stroke: #e74c3c; stroke-width: 2.5; stroke-linecap: square"/>
   </g>
   <g id="line2d_45">
    <path d="M 55.390625 122.151875 
L 59.278585 134.125499 
L 63.166545 145.323965 
L 67.054505 155.747271 
L 70.164872 163.527801 
L 73.27524 170.81223 
L 76.385608 177.600557 
L 79.495976 183.892782 
L 82.606344 189.688905 
L 85.716712 194.988926 
L 88.82708 199.792845 
L 91.937448 204.100663 
L 94.270224 207.005959 
L 96.603 209.632198 
L 98.935776 211.97938 
L 101.268551 214.047505 
L 103.601327 215.836572 
L 105.934103 217.346582 
L 108.266879 218.577535 
L 110.599655 219.52943 
L 112.932431 220.202268 
L 115.265207 220.596049 
L 117.597983 220.710773 
L 119.930759 220.546439 
L 122.263535 220.103048 
L 124.596311 219.3806 
L 126.929087 218.379094 
L 129.261862 217.098531 
L 131.594638 215.538911 
L 133.927414 213.700234 
L 136.26019 211.582499 
L 138.592966 209.185707 
L 140.925742 206.509858 
L 143.258518 203.554951 
L 146.368886 199.180987 
L 149.479254 194.31092 
L 152.589622 188.944752 
L 155.69999 183.082482 
L 158.810357 176.72411 
L 161.920725 169.869637 
L 165.031093 162.519061 
L 168.141461 154.672384 
L 172.029421 144.166394 
L 175.917381 132.885245 
L 179.805341 120.828937 
L 183.693301 107.99747 
L 187.58126 94.390843 
L 191.46922 80.009058 
L 195.35718 64.852113 
L 199.24514 48.92001 
L 203.910692 28.778275 
L 208.576244 7.520312 
L 210.379827 -1 
L 210.379827 -1 
" clip-path="url(#p53c6c0dd0d)" style="fill: none; stroke: #2980b9; stroke-width: 2.5; stroke-linecap: square"/>
   </g>
   <g id="patch_3">
    <path d="M 24.390625 245.351875 
L 24.390625 23.591875 
" style="fill: none; stroke: #000000; stroke-width: 0.8; stroke-linejoin: miter; stroke-linecap: square"/>
   </g>
   <g id="patch_4">
    <path d="M 303.390625 245.351875 
L 303.390625 23.591875 
" style="fill: none; stroke: #000000; stroke-width: 0.8; stroke-linejoin: miter; stroke-linecap: square"/>
   </g>
   <g id="patch_5">
    <path d="M 24.390625 245.351875 
L 303.390625 245.351875 
" style="fill: none; stroke: #000000; stroke-width: 0.8; stroke-linejoin: miter; stroke-linecap: square"/>
   </g>
   <g id="patch_6">
    <path d="M 24.390625 23.591875 
L 303.390625 23.591875 
" style="fill: none; stroke: #000000; stroke-width: 0.8; stroke-linejoin: miter; stroke-linecap: square"/>
   </g>
   <g id="text_21">
    <!-- 顶点(0,0) -->
    <g style="fill: #999999" transform="translate(158.390625 188.071875) scale(0.08 -0.08)">
     <defs>
      <path id="MicrosoftYaHei-9876" d="M 2606 3647 
L 3775 3647 
L 3950 4491 
L 2538 4491 
L 2538 4941 
L 6263 4941 
L 6263 4491 
L 4456 4491 
L 4256 3647 
L 5981 3647 
L 5981 653 
L 5500 653 
L 5500 3197 
L 3088 3197 
L 3088 628 
L 2606 628 
L 2606 3647 
z
M 94 4791 
L 2419 4791 
L 2419 4334 
L 1588 4334 
L 1588 141 
Q 1588 -603 819 -603 
Q 500 -603 306 -591 
Q 275 -303 206 -34 
Q 494 -103 800 -103 
Q 1100 -103 1100 184 
L 1100 4334 
L 94 4334 
L 94 4791 
z
M 4044 2891 
L 4525 2891 
L 4525 2203 
Q 4525 1422 4356 872 
Q 5413 197 6281 -453 
L 5931 -872 
Q 5094 -178 4175 441 
Q 4113 316 4038 216 
Q 3519 -497 2244 -897 
Q 2125 -691 1944 -447 
Q 3125 -109 3613 491 
Q 4044 1053 4044 2191 
L 4044 2891 
z
" transform="scale(0.015625)"/>
      <path id="MicrosoftYaHei-70b9" d="M 900 3378 
L 2863 3378 
L 2863 5341 
L 3388 5341 
L 3388 4591 
L 6181 4591 
L 6181 4141 
L 3388 4141 
L 3388 3378 
L 5600 3378 
L 5600 991 
L 5088 991 
L 5088 1253 
L 1413 1253 
L 1413 991 
L 900 991 
L 900 3378 
z
M 5088 2928 
L 1413 2928 
L 1413 1703 
L 5088 1703 
L 5088 2928 
z
M 5425 847 
Q 5925 91 6225 -516 
L 5750 -772 
Q 5438 -134 4994 622 
L 5425 847 
z
M 1369 553 
Q 894 -303 531 -791 
L 100 -484 
Q 506 53 931 803 
L 1369 553 
z
M 2413 828 
Q 2700 197 2913 -503 
L 2406 -678 
Q 2213 3 1963 666 
L 2413 828 
z
M 3906 872 
Q 4206 253 4450 -422 
L 3956 -616 
Q 3781 -53 3450 697 
L 3906 872 
z
" transform="scale(0.015625)"/>
      <path id="MicrosoftYaHei-28" d="M 1531 -1100 
Q 478 100 478 1847 
Q 478 3594 1531 4841 
L 2072 4841 
Q 1016 3544 1016 1853 
Q 1016 166 2066 -1100 
L 1531 -1100 
z
" transform="scale(0.015625)"/>
      <path id="MicrosoftYaHei-2c" d="M 1109 778 
L 575 -888 
L 131 -888 
L 519 778 
L 1109 778 
z
" transform="scale(0.015625)"/>
      <path id="MicrosoftYaHei-29" d="M 78 -1100 
Q 1131 163 1131 1853 
Q 1131 3547 72 4841 
L 616 4841 
Q 1672 3603 1672 1847 
Q 1672 91 616 -1100 
L 78 -1100 
z
" transform="scale(0.015625)"/>
     </defs>
     <use xlink:href="#MicrosoftYaHei-9876"/>
     <use xlink:href="#MicrosoftYaHei-70b9" transform="translate(100 0)"/>
     <use xlink:href="#MicrosoftYaHei-28" transform="translate(200 0)"/>
     <use xlink:href="#MicrosoftYaHei-30" transform="translate(233.398438 0)"/>
     <use xlink:href="#MicrosoftYaHei-2c" transform="translate(292.041016 0)"/>
     <use xlink:href="#MicrosoftYaHei-30" transform="translate(316.113281 0)"/>
     <use xlink:href="#MicrosoftYaHei-29" transform="translate(374.755859 0)"/>
    </g>
   </g>
   <g id="text_22">
    <!-- 顶点(2,1) -->
    <g style="fill: #e74c3c" transform="translate(220.390625 163.431875) scale(0.08 -0.08)">
     <use xlink:href="#MicrosoftYaHei-9876"/>
     <use xlink:href="#MicrosoftYaHei-70b9" transform="translate(100 0)"/>
     <use xlink:href="#MicrosoftYaHei-28" transform="translate(200 0)"/>
     <use xlink:href="#MicrosoftYaHei-32" transform="translate(233.398438 0)"/>
     <use xlink:href="#MicrosoftYaHei-2c" transform="translate(292.041016 0)"/>
     <use xlink:href="#MicrosoftYaHei-31" transform="translate(316.113281 0)"/>
     <use xlink:href="#MicrosoftYaHei-29" transform="translate(374.755859 0)"/>
    </g>
   </g>
   <g id="text_23">
    <!-- 顶点(-1,-1) -->
    <g style="fill: #2980b9" transform="translate(127.390625 212.711875) scale(0.08 -0.08)">
     <use xlink:href="#MicrosoftYaHei-9876"/>
     <use xlink:href="#MicrosoftYaHei-70b9" transform="translate(100 0)"/>
     <use xlink:href="#MicrosoftYaHei-28" transform="translate(200 0)"/>
     <use xlink:href="#MicrosoftYaHei-2d" transform="translate(233.398438 0)"/>
     <use xlink:href="#MicrosoftYaHei-31" transform="translate(276.660156 0)"/>
     <use xlink:href="#MicrosoftYaHei-2c" transform="translate(335.302734 0)"/>
     <use xlink:href="#MicrosoftYaHei-2d" transform="translate(359.375 0)"/>
     <use xlink:href="#MicrosoftYaHei-31" transform="translate(402.636719 0)"/>
     <use xlink:href="#MicrosoftYaHei-29" transform="translate(461.279297 0)"/>
    </g>
   </g>
   <g id="text_24">
    <!-- 二次函数图像的平移 -->
    <g style="fill: #e67e22" transform="translate(105.390625 17.591875) scale(0.13 -0.13)">
     <defs>
      <path id="MicrosoftYaHei-Bold-4e8c" d="M 650 4641 
L 5750 4641 
L 5750 3703 
L 650 3703 
L 650 4641 
z
M 200 778 
L 6213 778 
L 6213 -172 
L 200 -172 
L 200 778 
z
" transform="scale(0.015625)"/>
      <path id="MicrosoftYaHei-Bold-6b21" d="M 6163 4466 
L 6163 3741 
L 5663 2572 
L 4838 2734 
L 5288 3697 
L 3153 3697 
Q 2884 3081 2550 2528 
Q 2113 2778 1700 2966 
Q 2425 4059 2856 5353 
L 3706 5228 
Q 3594 4838 3459 4466 
L 6163 4466 
z
M 844 5109 
Q 1400 4422 1869 3766 
L 1081 3203 
Q 669 3922 138 4647 
L 844 5109 
z
M 3525 3328 
L 4350 3328 
Q 4334 2925 4278 2553 
Q 4934 606 6325 59 
Q 6050 -297 5800 -784 
Q 4588 -66 3978 1409 
Q 3422 -19 2031 -878 
Q 1725 -428 1400 -109 
Q 3469 916 3525 3328 
z
M 1150 2653 
Q 1588 2428 2006 2247 
Q 1500 1053 944 -391 
L 88 16 
Q 650 1209 1150 2653 
z
" transform="scale(0.015625)"/>
      <path id="MicrosoftYaHei-Bold-51fd" d="M 3900 2378 
Q 4325 2097 5138 1616 
L 5138 3109 
Q 4750 2722 4356 2366 
L 3831 2828 
Q 4419 3409 4719 3722 
L 5138 3328 
L 5138 3728 
L 5975 3728 
L 5975 -841 
L 5138 -841 
L 5138 -622 
L 438 -622 
L 438 3728 
L 1275 3728 
L 1275 1691 
Q 1975 2053 2625 2478 
L 2825 2209 
L 2825 3747 
Q 3550 4084 4038 4341 
L 788 4341 
L 788 5103 
L 5563 5103 
L 5563 4353 
Q 4575 3803 3713 3378 
L 3713 2172 
L 3900 2378 
z
M 3125 403 
Q 2806 391 2156 384 
Q 2113 722 2013 1116 
Q 2300 1091 2581 1091 
Q 2825 1091 2825 1334 
L 2825 1766 
Q 2300 1416 1563 934 
Q 1506 1072 1275 1447 
L 1275 153 
L 5138 153 
L 5138 1341 
L 4750 866 
Q 4344 1184 3713 1628 
L 3713 1066 
Q 3713 441 3125 403 
z
M 1844 3766 
Q 2294 3347 2706 2934 
L 2081 2403 
Q 1638 2916 1281 3284 
L 1844 3766 
z
" transform="scale(0.015625)"/>
      <path id="MicrosoftYaHei-Bold-6570" d="M 238 4091 
L 725 4091 
Q 559 4425 281 4803 
L 844 5153 
Q 1038 4922 1369 4428 
L 806 4091 
L 1506 4091 
L 1506 5316 
L 2300 5316 
L 2300 4091 
L 2956 4091 
L 2438 4428 
Q 2750 4809 2963 5172 
L 3550 4822 
Q 3341 4466 3031 4091 
L 3394 4091 
L 3394 3453 
L 2300 3453 
L 2300 3016 
L 2513 3303 
Q 2903 3094 3253 2891 
Q 3766 3841 4138 5347 
L 4994 5266 
Q 4869 4781 4728 4341 
L 6294 4341 
L 6294 3578 
L 6041 3578 
Q 5906 1922 5338 856 
Q 5738 391 6319 53 
Q 6094 -203 5775 -778 
Q 5228 -413 4828 109 
Q 4313 -497 3631 -872 
Q 3378 -513 3072 -197 
L 2850 -566 
Q 2475 -350 2031 -128 
Q 1347 -584 394 -778 
Q 281 -434 63 -9 
Q 716 59 1213 253 
Q 781 444 300 641 
Q 513 950 681 1259 
L 169 1259 
L 169 1897 
L 991 1897 
Q 1094 2144 1169 2391 
L 1506 2359 
L 1506 2959 
Q 1044 2472 344 2053 
Q 213 2472 50 2803 
Q 672 3044 1172 3453 
L 238 3453 
L 238 4091 
z
M 4394 3400 
Q 4519 2359 4831 1659 
Q 5203 2478 5275 3578 
L 4463 3578 
Q 4431 3488 4394 3400 
z
M 2300 2216 
L 1984 2216 
Q 1913 2063 1825 1897 
L 3281 1897 
L 3281 1316 
Q 3038 806 2672 413 
L 3294 166 
L 3169 -38 
Q 3859 322 4347 894 
Q 4041 1522 3878 2300 
Q 3769 2103 3656 1922 
Q 3513 2172 3322 2438 
L 3138 2159 
Q 2750 2422 2300 2691 
L 2300 2216 
z
M 1300 934 
L 1950 691 
Q 2231 934 2413 1259 
L 1484 1259 
L 1300 934 
z
" transform="scale(0.015625)"/>
      <path id="MicrosoftYaHei-Bold-56fe" d="M 369 -841 
L 369 5072 
L 6019 5072 
L 6019 -834 
L 5156 -834 
L 5156 -591 
L 1231 -591 
L 1231 -841 
L 369 -841 
z
M 4875 3978 
L 4875 3466 
Q 4547 3022 4006 2678 
Q 4513 2541 5156 2463 
L 5156 4316 
L 3256 4316 
Q 3141 4144 3009 3978 
L 4875 3978 
z
M 2394 4316 
L 1231 4316 
L 1231 3231 
Q 2016 3747 2394 4316 
z
M 3228 2959 
Q 3666 3163 3919 3416 
L 2575 3416 
Q 2828 3156 3228 2959 
z
M 1644 2747 
Q 1481 2925 1231 3147 
L 1231 2400 
Q 1950 2522 2500 2688 
Q 2266 2863 2078 3063 
Q 1872 2900 1644 2747 
z
M 1669 1303 
Q 3319 1084 4775 841 
L 4600 166 
L 5156 166 
L 5156 2388 
Q 5019 2159 4825 1822 
Q 3897 1978 3219 2275 
Q 2872 2134 2472 2019 
Q 3509 1888 4500 1722 
L 4375 1128 
Q 3344 1309 2063 1484 
L 2159 1934 
Q 1856 1859 1525 1797 
Q 1409 2059 1231 2347 
L 1231 166 
L 4569 166 
Q 3297 425 1494 647 
L 1669 1303 
z
" transform="scale(0.015625)"/>
      <path id="MicrosoftYaHei-Bold-50cf" d="M 2913 5328 
L 3794 5328 
Q 3675 5125 3541 4934 
L 5406 4934 
L 5406 4391 
L 5028 3966 
L 6038 3966 
L 6038 2366 
L 5591 2366 
L 6063 1791 
L 5413 1431 
Q 5769 541 6363 53 
Q 6231 -72 5775 -603 
Q 5222 -44 4850 1122 
L 4644 1009 
Q 4722 688 4722 325 
Q 4722 -800 3844 -822 
L 3100 -822 
Q 3044 -534 2969 -200 
Q 2466 -544 1850 -809 
Q 1663 -266 1600 -116 
Q 2903 284 3803 1188 
Q 3763 1297 3709 1409 
Q 2944 688 1913 266 
Q 1806 572 1663 903 
Q 2841 1234 3528 1744 
Q 3481 1825 3425 1909 
Q 2828 1531 1838 1253 
Q 1731 1522 1538 1891 
Q 2494 2069 3009 2366 
L 1963 2366 
L 1963 3494 
Q 1756 3713 1544 3916 
Q 2450 4572 2913 5328 
z
M 2694 3966 
L 4119 3966 
L 4469 4359 
L 3084 4359 
Q 2897 4153 2694 3966 
z
M 2656 2966 
L 3584 2966 
Q 3663 3125 3706 3366 
L 2656 3366 
L 2656 2966 
z
M 5344 2966 
L 5344 3366 
L 4409 3366 
Q 4369 3153 4306 2966 
L 5344 2966 
z
M 5563 2366 
L 3975 2366 
L 3928 2313 
Q 4222 2000 4409 1644 
Q 5003 1969 5563 2366 
z
M 3944 659 
Q 3600 266 3163 -59 
Q 3513 -94 3675 -94 
Q 3975 -94 3975 334 
Q 3975 472 3944 659 
z
M 1025 5284 
L 1788 5153 
Q 1653 4559 1469 3981 
L 1469 -803 
L 719 -803 
L 719 2113 
Q 522 1709 300 1316 
Q 244 1703 81 2484 
Q 763 3909 1025 5284 
z
" transform="scale(0.015625)"/>
      <path id="MicrosoftYaHei-Bold-7684" d="M 1250 5303 
L 2181 5159 
L 1900 4309 
L 2963 4309 
L 2963 3091 
Q 3466 3934 3925 5316 
L 4788 5091 
Q 4650 4675 4494 4278 
L 6106 4278 
L 6034 681 
Q 6019 100 5937 -133 
Q 5856 -366 5684 -512 
Q 5513 -659 5205 -712 
Q 4897 -766 3863 -766 
Q 3769 -216 3625 178 
Q 4088 141 4609 141 
Q 4759 141 4868 175 
Q 4978 209 5048 279 
Q 5119 350 5144 437 
Q 5169 525 5184 1206 
L 5213 2484 
Q 5225 3081 5225 3453 
L 4138 3453 
Q 3931 3016 3700 2603 
Q 3403 2797 2963 2988 
L 2963 -734 
L 2094 -734 
L 2094 -284 
L 1206 -284 
L 1206 -772 
L 338 -772 
L 338 4309 
L 997 4309 
Q 1178 4922 1250 5303 
z
M 2094 3491 
L 1206 3491 
L 1206 2422 
L 2094 2422 
L 2094 3491 
z
M 1206 534 
L 2094 534 
L 2094 1603 
L 1206 1603 
L 1206 534 
z
M 3944 2703 
Q 4394 2166 4913 1397 
L 4125 872 
Q 3650 1653 3219 2203 
L 3944 2703 
z
" transform="scale(0.015625)"/>
      <path id="MicrosoftYaHei-Bold-5e73" d="M 175 1959 
L 2719 1959 
L 2719 4253 
L 450 4253 
L 450 5078 
L 5975 5078 
L 5975 4253 
L 3669 4253 
L 3669 1959 
L 6250 1959 
L 6250 1134 
L 3669 1134 
L 3669 -809 
L 2719 -809 
L 2719 1134 
L 175 1134 
L 175 1959 
z
M 538 3691 
L 1194 4134 
Q 1794 3434 2438 2584 
L 1681 2084 
Q 1050 3041 538 3691 
z
M 5988 3628 
Q 5325 2834 4588 2066 
L 3950 2584 
Q 4675 3334 5250 4128 
L 5988 3628 
z
" transform="scale(0.015625)"/>
      <path id="MicrosoftYaHei-Bold-79fb" d="M 3588 5303 
L 4469 5303 
Q 4303 5053 4119 4816 
L 6119 4816 
L 6119 4222 
Q 5447 3256 4400 2653 
L 5013 2653 
Q 4856 2441 4694 2247 
L 6250 2247 
L 6250 1628 
Q 5100 -441 2488 -853 
Q 2269 -366 2088 -91 
Q 3131 38 3891 381 
Q 3644 594 3363 809 
L 3906 1278 
Q 4191 1059 4556 759 
Q 5050 1109 5369 1597 
L 4081 1597 
Q 3406 966 2619 566 
Q 2400 891 2163 1172 
Q 3269 1706 3934 2409 
Q 3353 2141 2675 1966 
Q 2519 2297 2294 2659 
Q 3028 2806 3613 3050 
Q 3372 3256 3106 3466 
L 3631 3934 
Q 3934 3703 4291 3397 
Q 4816 3725 5163 4166 
L 3566 4166 
Q 3175 3744 2719 3353 
Q 2444 3634 2181 3872 
Q 3131 4603 3588 5303 
z
M 150 3566 
L 981 3566 
L 981 4272 
Q 641 4241 275 4222 
Q 231 4647 163 4991 
Q 1225 5047 2294 5253 
L 2469 4497 
Q 2131 4422 1750 4366 
L 1750 3566 
L 2413 3566 
L 2413 2822 
L 1750 2822 
L 1750 2388 
L 1838 2466 
Q 2150 2222 2544 1822 
L 2069 1284 
Q 1916 1491 1750 1694 
L 1750 -866 
L 981 -866 
L 981 1703 
Q 741 975 381 272 
Q 256 841 94 1322 
Q 541 1991 850 2822 
L 150 2822 
L 150 3566 
z
" transform="scale(0.015625)"/>
     </defs>
     <use xlink:href="#MicrosoftYaHei-Bold-4e8c"/>
     <use xlink:href="#MicrosoftYaHei-Bold-6b21" transform="translate(100 0)"/>
     <use xlink:href="#MicrosoftYaHei-Bold-51fd" transform="translate(200 0)"/>
     <use xlink:href="#MicrosoftYaHei-Bold-6570" transform="translate(300 0)"/>
     <use xlink:href="#MicrosoftYaHei-Bold-56fe" transform="translate(400 0)"/>
     <use xlink:href="#MicrosoftYaHei-Bold-50cf" transform="translate(500 0)"/>
     <use xlink:href="#MicrosoftYaHei-Bold-7684" transform="translate(600 0)"/>
     <use xlink:href="#MicrosoftYaHei-Bold-5e73" transform="translate(700 0)"/>
     <use xlink:href="#MicrosoftYaHei-Bold-79fb" transform="translate(800 0)"/>
    </g>
   </g>
   <g id="line2d_46">
    <defs>
     <path id="mdaf3e98be1" d="M 0 4 
C 1.060812 4 2.078319 3.578535 2.828427 2.828427 
C 3.578535 2.078319 4 1.060812 4 0 
C 4 -1.060812 3.578535 -2.078319 2.828427 -2.828427 
C 2.078319 -3.578535 1.060812 -4 0 -4 
C -1.060812 -4 -2.078319 -3.578535 -2.828427 -2.828427 
C -3.578535 -2.078319 -4 -1.060812 -4 0 
C -4 1.060812 -3.578535 2.078319 -2.828427 2.828427 
C -2.078319 3.578535 -1.060812 4 0 4 
z
" style="stroke: #999999"/>
    </defs>
    <g clip-path="url(#p53c6c0dd0d)">
     <use xlink:href="#mdaf3e98be1" x="148.390625" y="196.071875" style="fill: #999999; stroke: #999999"/>
    </g>
   </g>
   <g id="line2d_47">
    <defs>
     <path id="m9c5b4c57bf" d="M 0 4 
C 1.060812 4 2.078319 3.578535 2.828427 2.828427 
C 3.578535 2.078319 4 1.060812 4 0 
C 4 -1.060812 3.578535 -2.078319 2.828427 -2.828427 
C 2.078319 -3.578535 1.060812 -4 0 -4 
C -1.060812 -4 -2.078319 -3.578535 -2.828427 -2.828427 
C -3.578535 -2.078319 -4 -1.060812 -4 0 
C -4 1.060812 -3.578535 2.078319 -2.828427 2.828427 
C -2.078319 3.578535 -1.060812 4 0 4 
z
" style="stroke: #e74c3c"/>
    </defs>
    <g clip-path="url(#p53c6c0dd0d)">
     <use xlink:href="#m9c5b4c57bf" x="210.390625" y="171.431875" style="fill: #e74c3c; stroke: #e74c3c"/>
    </g>
   </g>
   <g id="line2d_48">
    <defs>
     <path id="mb0c842af8e" d="M 0 4 
C 1.060812 4 2.078319 3.578535 2.828427 2.828427 
C 3.578535 2.078319 4 1.060812 4 0 
C 4 -1.060812 3.578535 -2.078319 2.828427 -2.828427 
C 2.078319 -3.578535 1.060812 -4 0 -4 
C -1.060812 -4 -2.078319 -3.578535 -2.828427 -2.828427 
C -3.578535 -2.078319 -4 -1.060812 -4 0 
C -4 1.060812 -3.578535 2.078319 -2.828427 2.828427 
C -2.078319 3.578535 -1.060812 4 0 4 
z
" style="stroke: #2980b9"/>
    </defs>
    <g clip-path="url(#p53c6c0dd0d)">
     <use xlink:href="#mb0c842af8e" x="117.390625" y="220.711875" style="fill: #2980b9; stroke: #2980b9"/>
    </g>
   </g>
   <g id="legend_1">
    <g id="patch_7">
     <path d="M 29.990625 68.100625 
L 135.258125 68.100625 
Q 136.858125 68.100625 136.858125 66.500625 
L 136.858125 29.191875 
Q 136.858125 27.591875 135.258125 27.591875 
L 29.990625 27.591875 
Q 28.390625 27.591875 28.390625 29.191875 
L 28.390625 66.500625 
Q 28.390625 68.100625 29.990625 68.100625 
z
" style="fill: #ffffff; opacity: 0.8; stroke: #cccccc; stroke-linejoin: miter"/>
    </g>
    <g id="line2d_49">
     <path d="M 31.590625 34.659375 
L 39.590625 34.659375 
L 47.590625 34.659375 
" style="fill: none; stroke-dasharray: 9.25,4; stroke-dashoffset: 0; stroke: #999999; stroke-width: 2.5"/>
    </g>
    <g id="text_25">
     <!-- y=x²（基础） -->
     <g transform="translate(53.990625 37.459375) scale(0.08 -0.08)">
      <defs>
       <path id="MicrosoftYaHei-79" d="M 3359 3456 
L 1791 -522 
Q 1353 -1628 556 -1628 
Q 328 -1628 166 -1578 
L 166 -1041 
Q 344 -1109 509 -1109 
Q 925 -1109 1131 -622 
L 1397 6 
L 41 3456 
L 719 3456 
L 1622 859 
L 1697 575 
L 1713 575 
Q 1731 672 1788 853 
L 2731 3456 
L 3359 3456 
z
" transform="scale(0.015625)"/>
       <path id="MicrosoftYaHei-3d" d="M 3972 2497 
L 788 2497 
L 788 2969 
L 3972 2969 
L 3972 2497 
z
M 3972 1053 
L 788 1053 
L 788 1525 
L 3972 1525 
L 3972 1053 
z
" transform="scale(0.015625)"/>
       <path id="MicrosoftYaHei-78" d="M 3163 3456 
L 2006 1716 
L 3147 0 
L 2434 0 
L 1775 1100 
Q 1722 1188 1625 1369 
L 1613 1369 
Q 1609 1350 1456 1100 
L 784 0 
L 81 0 
L 1256 1697 
L 134 3456 
L 847 3456 
L 1494 2300 
Q 1553 2194 1638 2025 
L 1650 2025 
L 2491 3456 
L 3163 3456 
z
" transform="scale(0.015625)"/>
       <path id="MicrosoftYaHei-b2" d="M 2247 1972 
L 356 1972 
L 356 2372 
L 1169 3169 
Q 1503 3497 1597 3664 
Q 1691 3831 1691 4038 
Q 1691 4228 1567 4347 
Q 1444 4466 1238 4466 
Q 850 4466 513 4122 
L 513 4650 
Q 806 4906 1313 4906 
Q 1713 4906 1950 4682 
Q 2188 4459 2188 4091 
Q 2188 3581 1494 2919 
L 963 2419 
L 963 2403 
L 2247 2403 
L 2247 1972 
z
" transform="scale(0.015625)"/>
       <path id="MicrosoftYaHei-ff08" d="M 5288 -1100 
Q 4172 119 4172 1850 
Q 4172 3603 5288 4838 
L 5825 4838 
Q 4716 3572 4716 1856 
Q 4716 166 5819 -1100 
L 5288 -1100 
z
" transform="scale(0.015625)"/>
       <path id="MicrosoftYaHei-57fa" d="M 6319 697 
Q 6113 441 5981 247 
Q 5406 519 4925 897 
L 4925 553 
L 3431 553 
L 3431 -97 
L 5875 -97 
L 5875 -503 
L 519 -503 
L 519 -97 
L 2963 -97 
L 2963 553 
L 1450 553 
L 1450 894 
Q 953 478 413 172 
Q 294 341 88 566 
Q 1050 1034 1753 1753 
L 156 1753 
L 156 2159 
L 1400 2159 
L 1400 4253 
L 350 4253 
L 350 4659 
L 1400 4659 
L 1400 5334 
L 1869 5334 
L 1869 4659 
L 4550 4659 
L 4550 5334 
L 5019 5334 
L 5019 4659 
L 6069 4659 
L 6069 4253 
L 5019 4253 
L 5019 2159 
L 6244 2159 
L 6244 1753 
L 4600 1753 
Q 5303 1053 6319 697 
z
M 2963 1553 
L 3431 1553 
L 3431 947 
L 4863 947 
Q 4416 1306 4047 1753 
L 2325 1753 
Q 1934 1309 1513 947 
L 2963 947 
L 2963 1553 
z
M 1869 2159 
L 4550 2159 
L 4550 2603 
L 1869 2603 
L 1869 2159 
z
M 1869 2991 
L 4550 2991 
L 4550 3428 
L 1869 3428 
L 1869 2991 
z
M 1869 3816 
L 4550 3816 
L 4550 4253 
L 1869 4253 
L 1869 3816 
z
" transform="scale(0.015625)"/>
       <path id="MicrosoftYaHei-7840" d="M 5500 2222 
L 5500 2516 
L 4594 2516 
L 4594 3 
L 5613 3 
L 5613 1803 
L 6075 1803 
L 6075 -728 
L 5613 -728 
L 5613 -447 
L 2663 -447 
L 2663 1803 
L 3125 1803 
L 3125 3 
L 4131 3 
L 4131 2516 
L 2775 2516 
L 2775 4622 
L 3238 4622 
L 3238 2966 
L 4131 2966 
L 4131 5272 
L 4594 5272 
L 4594 2966 
L 5500 2966 
L 5500 4616 
L 5963 4616 
L 5963 2222 
L 5500 2222 
z
M 19 1784 
Q 725 2956 1038 4366 
L 225 4366 
L 225 4778 
L 2444 4778 
L 2444 4366 
L 1453 4366 
Q 1294 3641 1059 2991 
L 2200 2991 
L 2200 -197 
L 1788 -197 
L 1788 222 
L 1100 222 
L 1100 -372 
L 688 -372 
L 688 2106 
Q 522 1763 331 1447 
Q 200 1616 19 1784 
z
M 1788 2591 
L 1100 2591 
L 1100 622 
L 1788 622 
L 1788 2591 
z
" transform="scale(0.015625)"/>
       <path id="MicrosoftYaHei-ff09" d="M 1113 -1100 
L 575 -1100 
Q 1684 163 1684 1888 
Q 1684 3581 581 4838 
L 1113 4838 
Q 2222 3628 2222 1888 
Q 2222 128 1113 -1100 
z
" transform="scale(0.015625)"/>
      </defs>
      <use xlink:href="#MicrosoftYaHei-79"/>
      <use xlink:href="#MicrosoftYaHei-3d" transform="translate(52.929688 0)"/>
      <use xlink:href="#MicrosoftYaHei-78" transform="translate(127.099609 0)"/>
      <use xlink:href="#MicrosoftYaHei-b2" transform="translate(177.783203 0)"/>
      <use xlink:href="#MicrosoftYaHei-ff08" transform="translate(217.822266 0)"/>
      <use xlink:href="#MicrosoftYaHei-57fa" transform="translate(317.822266 0)"/>
      <use xlink:href="#MicrosoftYaHei-7840" transform="translate(417.822266 0)"/>
      <use xlink:href="#MicrosoftYaHei-ff09" transform="translate(517.822266 0)"/>
     </g>
    </g>
    <g id="line2d_50">
     <path d="M 31.590625 47.370625 
L 39.590625 47.370625 
L 47.590625 47.370625 
" style="fill: none; stroke: #e74c3c; stroke-width: 2.5; stroke-linecap: square"/>
    </g>
    <g id="text_26">
     <!-- y=(x-2)²+1  →右2上1 -->
     <g transform="translate(53.990625 50.170625) scale(0.08 -0.08)">
      <defs>
       <path id="MicrosoftYaHei-2b" d="M 3972 1772 
L 2613 1772 
L 2613 419 
L 2141 419 
L 2141 1772 
L 788 1772 
L 788 2250 
L 2141 2250 
L 2141 3603 
L 2613 3603 
L 2613 2250 
L 3972 2250 
L 3972 1772 
z
" transform="scale(0.015625)"/>
       <path id="MicrosoftYaHei-20" transform="scale(0.015625)"/>
       <path id="MicrosoftYaHei-2192" d="M 4859 3766 
Q 5241 3344 5514 3125 
Q 5788 2906 6150 2713 
L 6150 2572 
Q 5788 2381 5517 2164 
Q 5247 1947 4859 1519 
L 4622 1519 
Q 4766 1822 4866 1983 
Q 4966 2144 5141 2369 
L 247 2369 
L 247 2916 
L 5141 2916 
Q 4972 3131 4869 3298 
Q 4766 3466 4622 3766 
L 4859 3766 
z
" transform="scale(0.015625)"/>
       <path id="MicrosoftYaHei-53f3" d="M 250 4359 
L 2469 4359 
Q 2700 4834 2900 5341 
L 3406 5172 
Q 3225 4753 3031 4359 
L 6250 4359 
L 6250 3884 
L 2791 3884 
Q 2431 3200 2028 2584 
L 5688 2584 
L 5688 -803 
L 5188 -803 
L 5188 -266 
L 2000 -266 
L 2000 -803 
L 1500 -803 
L 1500 1828 
Q 1028 1197 506 647 
Q 388 784 119 1022 
Q 1366 2278 2228 3884 
L 250 3884 
L 250 4359 
z
M 5188 2109 
L 2000 2109 
L 2000 197 
L 5188 197 
L 5188 2109 
z
" transform="scale(0.015625)"/>
       <path id="MicrosoftYaHei-4e0a" d="M 163 47 
L 2613 47 
L 2613 5209 
L 3181 5209 
L 3181 3328 
L 5750 3328 
L 5750 2828 
L 3181 2828 
L 3181 47 
L 6244 47 
L 6244 -453 
L 163 -453 
L 163 47 
z
" transform="scale(0.015625)"/>
      </defs>
      <use xlink:href="#MicrosoftYaHei-79"/>
      <use xlink:href="#MicrosoftYaHei-3d" transform="translate(52.929688 0)"/>
      <use xlink:href="#MicrosoftYaHei-28" transform="translate(127.099609 0)"/>
      <use xlink:href="#MicrosoftYaHei-78" transform="translate(160.498047 0)"/>
      <use xlink:href="#MicrosoftYaHei-2d" transform="translate(211.181641 0)"/>
      <use xlink:href="#MicrosoftYaHei-32" transform="translate(254.443359 0)"/>
      <use xlink:href="#MicrosoftYaHei-29" transform="translate(313.085938 0)"/>
      <use xlink:href="#MicrosoftYaHei-b2" transform="translate(346.484375 0)"/>
      <use xlink:href="#MicrosoftYaHei-2b" transform="translate(386.523438 0)"/>
      <use xlink:href="#MicrosoftYaHei-31" transform="translate(460.693359 0)"/>
      <use xlink:href="#MicrosoftYaHei-20" transform="translate(519.335938 0)"/>
      <use xlink:href="#MicrosoftYaHei-20" transform="translate(548.925781 0)"/>
      <use xlink:href="#MicrosoftYaHei-2192" transform="translate(578.515625 0)"/>
      <use xlink:href="#MicrosoftYaHei-53f3" transform="translate(678.515625 0)"/>
      <use xlink:href="#MicrosoftYaHei-32" transform="translate(778.515625 0)"/>
      <use xlink:href="#MicrosoftYaHei-4e0a" transform="translate(837.158203 0)"/>
      <use xlink:href="#MicrosoftYaHei-31" transform="translate(937.158203 0)"/>
     </g>
    </g>
    <g id="line2d_51">
     <path d="M 31.590625 60.065625 
L 39.590625 60.065625 
L 47.590625 60.065625 
" style="fill: none; stroke: #2980b9; stroke-width: 2.5; stroke-linecap: square"/>
    </g>
    <g id="text_27">
     <!-- y=(x+1)²-1  →左1下1 -->
     <g transform="translate(53.990625 62.865625) scale(0.08 -0.08)">
      <defs>
       <path id="MicrosoftYaHei-5de6" d="M 1150 9 
L 3425 9 
L 3425 2034 
L 1884 2034 
Q 1363 913 413 -291 
Q 250 -53 69 128 
Q 1425 1803 1988 3878 
L 300 3878 
L 300 4359 
L 2106 4359 
Q 2209 4822 2281 5328 
L 2813 5259 
Q 2728 4784 2634 4359 
L 6250 4359 
L 6250 3878 
L 2519 3878 
Q 2363 3228 2088 2509 
L 5850 2509 
L 5850 2034 
L 3956 2034 
L 3956 9 
L 6250 9 
L 6250 -459 
L 1150 -459 
L 1150 9 
z
" transform="scale(0.015625)"/>
       <path id="MicrosoftYaHei-4e0b" d="M 163 4803 
L 6238 4803 
L 6238 4291 
L 3200 4291 
L 3200 2928 
L 3488 3328 
Q 4919 2484 5888 1809 
L 5519 1303 
Q 4550 2047 3200 2872 
L 3200 -797 
L 2631 -797 
L 2631 4291 
L 163 4291 
L 163 4803 
z
" transform="scale(0.015625)"/>
      </defs>
      <use xlink:href="#MicrosoftYaHei-79"/>
      <use xlink:href="#MicrosoftYaHei-3d" transform="translate(52.929688 0)"/>
      <use xlink:href="#MicrosoftYaHei-28" transform="translate(127.099609 0)"/>
      <use xlink:href="#MicrosoftYaHei-78" transform="translate(160.498047 0)"/>
      <use xlink:href="#MicrosoftYaHei-2b" transform="translate(211.181641 0)"/>
      <use xlink:href="#MicrosoftYaHei-31" transform="translate(285.351562 0)"/>
      <use xlink:href="#MicrosoftYaHei-29" transform="translate(343.994141 0)"/>
      <use xlink:href="#MicrosoftYaHei-b2" transform="translate(377.392578 0)"/>
      <use xlink:href="#MicrosoftYaHei-2d" transform="translate(417.431641 0)"/>
      <use xlink:href="#MicrosoftYaHei-31" transform="translate(460.693359 0)"/>
      <use xlink:href="#MicrosoftYaHei-20" transform="translate(519.335938 0)"/>
      <use xlink:href="#MicrosoftYaHei-20" transform="translate(548.925781 0)"/>
      <use xlink:href="#MicrosoftYaHei-2192" transform="translate(578.515625 0)"/>
      <use xlink:href="#MicrosoftYaHei-5de6" transform="translate(678.515625 0)"/>
      <use xlink:href="#MicrosoftYaHei-31" transform="translate(778.515625 0)"/>
      <use xlink:href="#MicrosoftYaHei-4e0b" transform="translate(837.158203 0)"/>
      <use xlink:href="#MicrosoftYaHei-31" transform="translate(937.158203 0)"/>
     </g>
    </g>
   </g>
  </g>
 </g>
 <defs>
  <clipPath id="p53c6c0dd0d">
   <rect x="24.390625" y="23.591875" width="279" height="221.76"/>
  </clipPath>
 </defs>
</svg>
