<?xml version="1.0" encoding="utf-8" standalone="no"?>
<!DOCTYPE svg PUBLIC "-//W3C//DTD SVG 1.1//EN"
  "http://www.w3.org/Graphics/SVG/1.1/DTD/svg11.dtd">
<svg xmlns:xlink="http://www.w3.org/1999/xlink" width="496.8pt" height="244.47125pt" viewBox="0 0 496.8 244.47125" xmlns="http://www.w3.org/2000/svg" version="1.1">
 <metadata>
  <rdf:RDF xmlns:dc="http://purl.org/dc/elements/1.1/" xmlns:cc="http://creativecommons.org/ns#" xmlns:rdf="http://www.w3.org/1999/02/22-rdf-syntax-ns#">
   <cc:Work>
    <dc:type rdf:resource="http://purl.org/dc/dcmitype/StillImage"/>
    <dc:date>2026-05-22T23:20:29.303282</dc:date>
    <dc:format>image/svg+xml</dc:format>
    <dc:creator>
     <cc:Agent>
      <dc:title>Matplotlib v3.10.9, https://matplotlib.org/</dc:title>
     </cc:Agent>
    </dc:creator>
   </cc:Work>
  </rdf:RDF>
 </metadata>
 <defs>
  <style type="text/css">*{stroke-linejoin: round; stroke-linecap: butt}</style>
 </defs>
 <g id="figure_1">
  <g id="patch_1">
   <path d="M 0 244.47125 
L 496.8 244.47125 
L 496.8 0 
L 0 0 
z
" style="fill: #ffffff"/>
  </g>
  <g id="axes_1">
   <g id="patch_2">
    <path d="M 182.618182 166.31125 
L 252.785455 237.27125 
L 252.785455 95.35125 
z
" clip-path="url(#pb9eab8c827)" style="fill: #d5f5e3; opacity: 0.6; stroke: #27ae60; stroke-width: 2; stroke-linejoin: miter"/>
   </g>
   <g id="line2d_1">
    <path d="M 252.785455 106.70485 
L 401.890909 102.44725 
" clip-path="url(#pb9eab8c827)" style="fill: none; stroke: #c0392b; stroke-width: 2.5; stroke-linecap: square"/>
   </g>
   <g id="line2d_2">
    <path d="M 252.785455 118.05845 
L 401.890909 119.47765 
" clip-path="url(#pb9eab8c827)" style="fill: none; stroke: #e67e22; stroke-width: 2.5; stroke-linecap: square"/>
   </g>
   <g id="line2d_3">
    <path d="M 252.785455 129.41205 
L 401.890909 136.50805 
" clip-path="url(#pb9eab8c827)" style="fill: none; stroke: #f1c40f; stroke-width: 2.5; stroke-linecap: square"/>
   </g>
   <g id="line2d_4">
    <path d="M 252.785455 140.76565 
L 401.890909 153.53845 
" clip-path="url(#pb9eab8c827)" style="fill: none; stroke: #27ae60; stroke-width: 2.5; stroke-linecap: square"/>
   </g>
   <g id="line2d_5">
    <path d="M 252.785455 152.11925 
L 401.890909 170.56885 
" clip-path="url(#pb9eab8c827)" style="fill: none; stroke: #2980b9; stroke-width: 2.5; stroke-linecap: square"/>
   </g>
   <g id="line2d_6">
    <path d="M 252.785455 163.47285 
L 401.890909 187.59925 
" clip-path="url(#pb9eab8c827)" style="fill: none; stroke: #8e44ad; stroke-width: 2.5; stroke-linecap: square"/>
   </g>
   <g id="line2d_7">
    <path d="M 252.785455 174.82645 
L 401.890909 204.62965 
" clip-path="url(#pb9eab8c827)" style="fill: none; stroke: #2c3e50; stroke-width: 2.5; stroke-linecap: square"/>
   </g>
   <g id="patch_3">
    <path d="M 53.058032 166.31125 
Q 116.839757 166.31125 177.26738 166.31125 
" style="fill: none; stroke: #333333; stroke-width: 3; stroke-linecap: round"/>
    <path d="M 173.26738 164.31125 
L 177.26738 166.31125 
L 173.26738 168.31125 
" style="fill: none; stroke: #333333; stroke-width: 3; stroke-linecap: round"/>
   </g>
   <g id="text_1">
    <!-- 白光 -->
    <g style="fill: #333333" transform="translate(81.909091 137.92725) scale(0.13 -0.13)">
     <defs>
      <path id="MicrosoftYaHei-Bold-767d" d="M 2363 5353 
L 3438 5209 
Q 3319 4900 3166 4528 
L 5788 4528 
L 5788 -797 
L 4825 -797 
L 4825 -409 
L 1538 -409 
L 1538 -809 
L 575 -809 
L 575 4528 
L 2156 4528 
Q 2306 5078 2363 5353 
z
M 4825 3641 
L 1538 3641 
L 1538 2491 
L 4825 2491 
L 4825 3641 
z
M 1538 478 
L 4825 478 
L 4825 1628 
L 1538 1628 
L 1538 478 
z
" transform="scale(0.015625)"/>
      <path id="MicrosoftYaHei-Bold-5149" d="M 5381 1547 
Q 5919 1366 6294 1259 
Q 6131 -197 5873 -469 
Q 5616 -741 5056 -741 
L 4450 -741 
Q 3444 -741 3444 284 
L 3444 2047 
L 2703 2047 
Q 2700 -172 763 -853 
Q 406 -403 81 -109 
Q 1763 528 1722 2047 
L 188 2047 
L 188 2916 
L 2700 2916 
L 2700 5322 
L 3650 5322 
L 3650 2916 
L 6213 2916 
L 6213 2047 
L 4369 2047 
L 4369 478 
Q 4369 78 4706 78 
L 4856 78 
Q 5113 78 5203 297 
Q 5294 516 5381 1547 
z
M 5163 4978 
L 5956 4403 
Q 5150 3466 4688 3034 
L 4000 3622 
Q 4525 4128 5163 4978 
z
M 1156 4978 
Q 1906 4222 2369 3678 
L 1613 3103 
Q 988 3891 463 4447 
L 1156 4978 
z
" transform="scale(0.015625)"/>
     </defs>
     <use xlink:href="#MicrosoftYaHei-Bold-767d"/>
     <use xlink:href="#MicrosoftYaHei-Bold-5149" transform="translate(100 0)"/>
    </g>
   </g>
   <g id="text_2">
    <!-- 红 -->
    <g style="fill: #c0392b" transform="translate(410.661818 104.925766) scale(0.09 -0.09)">
     <defs>
      <path id="MicrosoftYaHei-Bold-7ea2" d="M 1075 3447 
Q 1284 3450 1581 3466 
Q 1788 3816 1988 4197 
L 2788 3803 
Q 2256 2866 1381 1753 
Q 1938 1816 2463 1891 
Q 2400 1384 2388 1066 
Q 875 941 500 803 
L 163 1641 
Q 475 1741 1097 2703 
Q 575 2669 331 2609 
L 75 3366 
Q 425 3628 1213 5366 
L 2075 5016 
Q 1475 4009 1075 3447 
z
M 263 -472 
L 113 409 
Q 1288 553 2406 728 
L 2388 291 
L 3875 291 
L 3875 4016 
L 2563 4016 
L 2563 4853 
L 6075 4853 
L 6075 4016 
L 4775 4016 
L 4775 291 
L 6244 291 
L 6244 -547 
L 2338 -547 
L 2338 -159 
Q 1241 -300 263 -472 
z
" transform="scale(0.015625)"/>
     </defs>
     <use xlink:href="#MicrosoftYaHei-Bold-7ea2"/>
    </g>
   </g>
   <g id="text_3">
    <!-- 橙 -->
    <g style="fill: #e67e22" transform="translate(410.661818 121.956166) scale(0.09 -0.09)">
     <defs>
      <path id="MicrosoftYaHei-Bold-6a59" d="M 181 4159 
L 806 4159 
L 806 5322 
L 1500 5322 
L 1500 4159 
L 2044 4159 
L 2044 3975 
L 2425 4353 
Q 2684 4138 2950 3894 
Q 3131 4156 3244 4441 
L 1988 4441 
L 1988 5066 
L 3913 5066 
Q 3869 5197 3831 5334 
L 4519 5334 
Q 4603 5050 4713 4794 
Q 5031 5038 5356 5322 
L 5788 4791 
L 4994 4253 
Q 5088 4106 5191 3969 
Q 5534 4213 5881 4497 
L 6306 3991 
L 5569 3541 
Q 5919 3203 6363 2953 
Q 6156 2666 5906 2278 
Q 5781 2353 5663 2441 
L 5663 791 
L 4859 791 
L 5419 559 
Q 5253 300 5078 41 
L 6200 41 
L 6200 -647 
L 1925 -647 
L 1925 41 
L 2991 41 
Q 2822 300 2644 528 
L 3081 791 
L 2406 791 
L 2406 2356 
L 2306 2278 
Q 2050 2603 1806 2834 
Q 2241 3116 2559 3431 
L 2044 3844 
L 2044 3447 
L 1500 3447 
L 1500 2784 
Q 1828 2541 2175 2272 
L 1794 1584 
L 1500 1891 
L 1500 -809 
L 806 -809 
L 806 1816 
Q 613 1244 350 672 
Q 219 1241 88 1747 
Q 566 2588 778 3447 
L 181 3447 
L 181 4159 
z
M 3469 3472 
L 4669 3472 
Q 4281 4038 4009 4781 
Q 3897 4100 3469 3472 
z
M 5075 2847 
L 3094 2847 
L 3094 3000 
Q 2847 2725 2538 2466 
L 5628 2466 
Q 5331 2684 5075 2963 
L 5075 2847 
z
M 4888 1384 
L 4888 1872 
L 3181 1872 
L 3181 1384 
L 4888 1384 
z
M 3794 191 
L 3516 41 
L 4219 41 
Q 4438 391 4625 791 
L 3369 791 
Q 3569 519 3794 191 
z
" transform="scale(0.015625)"/>
     </defs>
     <use xlink:href="#MicrosoftYaHei-Bold-6a59"/>
    </g>
   </g>
   <g id="text_4">
    <!-- 黄 -->
    <g style="fill: #f1c40f" transform="translate(410.661818 138.986566) scale(0.09 -0.09)">
     <defs>
      <path id="MicrosoftYaHei-Bold-9ec4" d="M 781 2828 
L 2813 2828 
L 2813 3147 
L 175 3147 
L 175 3797 
L 1688 3797 
L 1688 4178 
L 425 4178 
L 425 4803 
L 1688 4803 
L 1688 5347 
L 2513 5347 
L 2513 4803 
L 3888 4803 
L 3888 5347 
L 4713 5347 
L 4713 4803 
L 5975 4803 
L 5975 4178 
L 4713 4178 
L 4713 3797 
L 6250 3797 
L 6250 3147 
L 3588 3147 
L 3588 2828 
L 5613 2828 
L 5613 384 
L 781 384 
L 781 2828 
z
M 2513 3797 
L 3888 3797 
L 3888 4178 
L 2513 4178 
L 2513 3797 
z
M 4781 2241 
L 3588 2241 
L 3588 1878 
L 4781 1878 
L 4781 2241 
z
M 1619 1878 
L 2813 1878 
L 2813 2241 
L 1619 2241 
L 1619 1878 
z
M 4781 978 
L 4781 1341 
L 3588 1341 
L 3588 978 
L 4781 978 
z
M 1619 978 
L 2813 978 
L 2813 1341 
L 1619 1341 
L 1619 978 
z
M 2363 341 
L 2788 -309 
Q 1713 -603 544 -859 
Q 406 -528 200 -109 
Q 1350 97 2363 341 
z
M 3988 328 
Q 5150 128 6213 -109 
L 5881 -859 
Q 5013 -622 3631 -334 
L 3988 328 
z
" transform="scale(0.015625)"/>
     </defs>
     <use xlink:href="#MicrosoftYaHei-Bold-9ec4"/>
    </g>
   </g>
   <g id="text_5">
    <!-- 绿 -->
    <g style="fill: #27ae60" transform="translate(410.661818 156.016966) scale(0.09 -0.09)">
     <defs>
      <path id="MicrosoftYaHei-Bold-7eff" d="M 1213 1653 
L 2106 1766 
Q 2050 1372 2056 1022 
Q 1250 959 456 816 
L 244 1541 
Q 519 1794 1000 2713 
Q 556 2678 294 2634 
L 69 3347 
Q 500 3922 1006 5359 
L 1788 5128 
Q 1363 4197 875 3416 
L 1363 3438 
Q 1541 3803 1738 4241 
L 2494 3916 
Q 1725 2397 1213 1653 
z
M 2575 4059 
L 4834 4059 
L 4856 4397 
L 2413 4397 
L 2413 5103 
L 5738 5103 
L 5597 3078 
L 6300 3078 
L 6300 2384 
L 4588 2384 
L 4588 2131 
Q 4700 1859 4841 1622 
Q 5231 1944 5669 2366 
L 6263 1809 
L 5228 1094 
Q 5672 594 6300 291 
Q 6006 -84 5775 -466 
Q 5034 47 4588 838 
L 4588 66 
Q 4588 -369 4391 -589 
Q 4194 -809 3848 -818 
Q 3503 -828 2969 -828 
Q 2900 -422 2781 -28 
Q 3084 -53 3350 -53 
Q 3588 -53 3669 14 
Q 3750 81 3750 259 
L 3750 803 
Q 3203 363 2513 -141 
L 2053 447 
Q 2019 109 2031 -216 
L 250 -528 
L 88 297 
Q 1228 419 2041 578 
Q 3022 1063 3750 1591 
L 3750 2384 
L 2697 2384 
Q 3075 2097 3513 1716 
L 3006 1197 
Q 2681 1522 2188 1916 
L 2638 2384 
L 2088 2384 
L 2088 3078 
L 4775 3078 
L 4794 3416 
L 2575 3416 
L 2575 4059 
z
" transform="scale(0.015625)"/>
     </defs>
     <use xlink:href="#MicrosoftYaHei-Bold-7eff"/>
    </g>
   </g>
   <g id="text_6">
    <!-- 蓝 -->
    <g style="fill: #2980b9" transform="translate(410.661818 173.047366) scale(0.09 -0.09)">
     <defs>
      <path id="MicrosoftYaHei-Bold-84dd" d="M 3794 5328 
L 4619 5328 
L 4619 4916 
L 6306 4916 
L 6306 4216 
L 4619 4216 
L 4619 3953 
L 3794 3953 
L 3794 4216 
L 2650 4216 
L 2650 3947 
L 1825 3947 
L 1825 4216 
L 106 4216 
L 106 4916 
L 1825 4916 
L 1825 5328 
L 2650 5328 
L 2650 4916 
L 3794 4916 
L 3794 5328 
z
M 4163 2522 
L 4544 2903 
L 3994 2903 
Q 3741 2256 3419 1772 
Q 3275 1903 2750 2191 
Q 3225 2941 3506 3953 
L 4288 3797 
L 4225 3578 
L 6169 3578 
L 6169 2903 
L 4856 2903 
Q 5328 2553 5681 2228 
L 5144 1678 
Q 4750 2078 4163 2522 
z
M 2663 1897 
L 1863 1897 
L 1863 3816 
L 2663 3816 
L 2663 1897 
z
M 1294 1897 
L 494 1897 
L 494 3734 
L 1294 3734 
L 1294 1897 
z
M 113 66 
L 688 66 
L 688 1666 
L 5713 1666 
L 5713 66 
L 6294 66 
L 6294 -634 
L 113 -634 
L 113 66 
z
M 4888 991 
L 4294 991 
L 4294 66 
L 4888 66 
L 4888 991 
z
M 1513 66 
L 2106 66 
L 2106 991 
L 1513 991 
L 1513 66 
z
M 2906 66 
L 3494 66 
L 3494 991 
L 2906 991 
L 2906 66 
z
" transform="scale(0.015625)"/>
     </defs>
     <use xlink:href="#MicrosoftYaHei-Bold-84dd"/>
    </g>
   </g>
   <g id="text_7">
    <!-- 靛 -->
    <g style="fill: #8e44ad" transform="translate(410.661818 190.077766) scale(0.09 -0.09)">
     <defs>
      <path id="MicrosoftYaHei-Bold-975b" d="M 1044 -828 
L 331 -828 
L 331 2391 
L 2675 2391 
L 2675 -78 
Q 3169 753 3188 2159 
L 3938 2072 
Q 3894 1484 3800 916 
Q 4013 422 4313 222 
L 4313 2434 
L 3050 2434 
L 3050 3184 
L 6256 3184 
L 6256 2434 
L 5094 2434 
L 5094 1766 
L 6125 1766 
L 6125 1016 
L 5094 1016 
L 5094 78 
Q 5719 66 6331 109 
Q 6231 -384 6169 -709 
Q 5450 -703 4588 -684 
Q 3938 -659 3556 -34 
Q 3388 -478 3138 -884 
Q 2919 -534 2669 -209 
Q 2638 -766 2181 -816 
Q 2013 -834 1444 -834 
Q 1381 -547 1288 -197 
Q 1519 -209 1806 -209 
Q 1963 -209 1963 -28 
L 1963 178 
L 1044 178 
L 1044 -828 
z
M 119 3178 
L 1119 3178 
L 1119 3447 
L 319 3447 
L 319 3991 
L 1119 3991 
L 1119 4259 
L 225 4259 
L 225 4797 
L 1119 4797 
L 1119 5316 
L 1888 5316 
L 1888 4797 
L 2788 4797 
L 2788 4259 
L 1888 4259 
L 1888 3991 
L 2688 3991 
L 2688 3447 
L 1888 3447 
L 1888 3178 
L 2825 3178 
L 2825 2641 
L 119 2641 
L 119 3178 
z
M 3994 5203 
L 4806 5366 
Q 4913 4997 5000 4647 
L 6225 4647 
L 6225 3391 
L 5488 3391 
L 5488 3897 
L 3781 3897 
L 3781 3391 
L 3038 3391 
L 3038 4647 
L 4150 4647 
Q 4081 4922 3994 5203 
z
M 1044 697 
L 1963 697 
L 1963 1003 
L 1044 1003 
L 1044 697 
z
M 1963 1822 
L 1044 1822 
L 1044 1522 
L 1963 1522 
L 1963 1822 
z
" transform="scale(0.015625)"/>
     </defs>
     <use xlink:href="#MicrosoftYaHei-Bold-975b"/>
    </g>
   </g>
   <g id="text_8">
    <!-- 紫 -->
    <g style="fill: #2c3e50" transform="translate(410.661818 207.108166) scale(0.09 -0.09)">
     <defs>
      <path id="MicrosoftYaHei-Bold-7d2b" d="M 5956 4597 
Q 5141 4153 4394 3853 
L 4394 3753 
Q 4394 3416 4725 3416 
L 5094 3416 
Q 5356 3416 5451 3547 
Q 5547 3678 5581 4341 
Q 6050 4134 6313 4047 
Q 6238 3531 6161 3273 
Q 6084 3016 5862 2881 
Q 5641 2747 5288 2747 
L 4556 2747 
L 5056 2309 
Q 3369 1628 2044 1172 
L 4528 1297 
L 4113 1634 
L 4588 2034 
Q 5381 1484 6063 941 
L 5519 434 
Q 5347 594 5153 763 
L 3706 709 
L 3706 -134 
Q 3706 -438 3537 -609 
Q 3369 -781 2981 -801 
Q 2594 -822 2075 -822 
Q 2031 -484 1922 -91 
Q 1244 -500 575 -791 
Q 456 -578 163 -153 
Q 981 156 1681 603 
Q 1150 566 788 528 
L 544 1234 
Q 1375 1434 2272 1794 
Q 1566 1756 1063 1703 
L 863 2316 
Q 1831 2581 2575 3022 
L 225 2684 
L 100 3441 
L 575 3497 
L 575 4991 
L 1325 4991 
L 1325 3588 
L 1813 3647 
L 1813 5316 
L 2563 5316 
L 2563 4859 
L 3381 4859 
L 3381 4191 
L 2563 4191 
L 2563 3741 
L 3375 3847 
Q 3344 3522 3338 3128 
L 2872 3066 
L 3394 2709 
Q 2856 2509 2113 2266 
L 3450 2313 
Q 3913 2534 4291 2756 
Q 3631 2831 3631 3634 
L 3631 5334 
L 4394 5334 
L 4394 4581 
Q 4925 4816 5500 5172 
L 5956 4597 
z
M 2888 672 
L 1953 622 
L 2350 178 
Q 2156 50 1966 -66 
Q 2256 -91 2506 -91 
Q 2731 -91 2809 -25 
Q 2888 41 2888 203 
L 2888 672 
z
M 4431 691 
Q 5400 272 6200 -166 
L 5794 -797 
Q 4950 -309 4038 103 
L 4431 691 
z
" transform="scale(0.015625)"/>
     </defs>
     <use xlink:href="#MicrosoftYaHei-Bold-7d2b"/>
    </g>
   </g>
   <g id="text_9">
    <!-- 光的色散 — 白光分解为七色光 -->
    <g style="fill: #3498db" transform="translate(152.669531 18.39125) scale(0.14 -0.14)">
     <defs>
      <path id="MicrosoftYaHei-Bold-7684" d="M 1250 5303 
L 2181 5159 
L 1900 4309 
L 2963 4309 
L 2963 3091 
Q 3466 3934 3925 5316 
L 4788 5091 
Q 4650 4675 4494 4278 
L 6106 4278 
L 6034 681 
Q 6019 100 5937 -133 
Q 5856 -366 5684 -512 
Q 5513 -659 5205 -712 
Q 4897 -766 3863 -766 
Q 3769 -216 3625 178 
Q 4088 141 4609 141 
Q 4759 141 4868 175 
Q 4978 209 5048 279 
Q 5119 350 5144 437 
Q 5169 525 5184 1206 
L 5213 2484 
Q 5225 3081 5225 3453 
L 4138 3453 
Q 3931 3016 3700 2603 
Q 3403 2797 2963 2988 
L 2963 -734 
L 2094 -734 
L 2094 -284 
L 1206 -284 
L 1206 -772 
L 338 -772 
L 338 4309 
L 997 4309 
Q 1178 4922 1250 5303 
z
M 2094 3491 
L 1206 3491 
L 1206 2422 
L 2094 2422 
L 2094 3491 
z
M 1206 534 
L 2094 534 
L 2094 1603 
L 1206 1603 
L 1206 534 
z
M 3944 2703 
Q 4394 2166 4913 1397 
L 4125 872 
Q 3650 1653 3219 2203 
L 3944 2703 
z
" transform="scale(0.015625)"/>
      <path id="MicrosoftYaHei-Bold-8272" d="M 4919 4853 
L 4919 4166 
L 4378 3566 
L 5669 3566 
L 5669 1241 
L 1619 1241 
L 1619 691 
Q 1619 97 2231 97 
L 4756 97 
Q 5013 97 5163 180 
Q 5313 263 5361 414 
Q 5409 566 5506 1197 
Q 6056 984 6294 909 
Q 6159 263 6056 -51 
Q 5953 -366 5623 -531 
Q 5294 -697 4738 -697 
L 1963 -697 
Q 731 -697 731 453 
L 731 2834 
Q 616 2744 494 2659 
Q 306 3053 63 3453 
Q 1269 4253 1913 5341 
L 2881 5272 
Q 2766 5059 2634 4853 
L 4919 4853 
z
M 1581 3566 
L 3341 3566 
L 3856 4147 
L 2119 4147 
Q 1869 3847 1581 3566 
z
M 1619 1953 
L 2775 1953 
L 2775 2853 
L 1619 2853 
L 1619 1953 
z
M 4794 1953 
L 4794 2853 
L 3638 2853 
L 3638 1953 
L 4794 1953 
z
" transform="scale(0.015625)"/>
      <path id="MicrosoftYaHei-Bold-6563" d="M 4069 5328 
L 4906 5247 
Q 4788 4791 4650 4366 
L 6294 4366 
L 6294 3603 
L 6000 3603 
Q 5888 1959 5300 909 
Q 5731 378 6350 9 
Q 6094 -291 5813 -803 
Q 5225 -372 4800 209 
Q 4313 -359 3638 -866 
Q 3500 -597 3256 -278 
Q 3144 -803 2619 -816 
Q 2325 -841 1800 -841 
Q 1744 -547 1638 -134 
Q 1994 -159 2238 -166 
Q 2519 -159 2519 134 
L 2519 209 
L 1125 209 
L 1125 -841 
L 356 -841 
L 356 2622 
L 3138 2622 
L 3081 2691 
Q 3156 2822 3231 2966 
L 88 2966 
L 88 3628 
L 694 3628 
L 694 4103 
L 231 4103 
L 231 4766 
L 694 4766 
L 694 5309 
L 1469 5309 
L 1469 4766 
L 2169 4766 
L 2169 5309 
L 2944 5309 
L 2944 4766 
L 3413 4766 
L 3413 4103 
L 2944 4103 
L 2944 3628 
L 3475 3628 
L 3475 3447 
Q 3869 4328 4069 5328 
z
M 3288 34 
Q 3919 434 4350 953 
Q 4013 1634 3844 2478 
Q 3713 2234 3569 2003 
Q 3438 2216 3288 2422 
L 3288 34 
z
M 4819 1703 
Q 5169 2491 5250 3603 
L 4369 3603 
L 4350 3566 
Q 4481 2472 4819 1703 
z
M 1125 759 
L 2519 759 
L 2519 1103 
L 1125 1103 
L 1125 759 
z
M 2519 1997 
L 1125 1997 
L 1125 1653 
L 2519 1653 
L 2519 1997 
z
M 1469 3628 
L 2169 3628 
L 2169 4103 
L 1469 4103 
L 1469 3628 
z
" transform="scale(0.015625)"/>
      <path id="MicrosoftYaHei-Bold-20" transform="scale(0.015625)"/>
      <path id="MicrosoftYaHei-Bold-2014" d="M 6913 1497 
L 0 1497 
L 0 2209 
L 6913 2209 
L 6913 1497 
z
" transform="scale(0.015625)"/>
      <path id="MicrosoftYaHei-Bold-5206" d="M 6350 3028 
Q 6088 2703 5750 2228 
Q 5519 2409 5303 2603 
Q 5219 606 5172 190 
Q 5125 -225 4862 -451 
Q 4600 -678 4128 -678 
Q 3484 -678 2913 -659 
Q 2856 -141 2781 284 
Q 3594 216 3956 216 
Q 4172 216 4230 408 
Q 4288 600 4325 1978 
L 2781 1978 
Q 2728 1100 2529 631 
Q 2331 163 1907 -215 
Q 1484 -594 844 -872 
Q 456 -353 194 -78 
Q 750 144 1111 414 
Q 1472 684 1630 989 
Q 1788 1294 1841 1978 
L 950 1978 
L 950 2475 
Q 794 2356 631 2247 
Q 344 2653 63 2953 
Q 1475 3947 2194 5316 
L 3031 4953 
Q 2378 3722 1391 2841 
L 5047 2841 
Q 4088 3766 3463 4903 
L 4238 5303 
Q 5038 3922 6350 3028 
z
" transform="scale(0.015625)"/>
      <path id="MicrosoftYaHei-Bold-89e3" d="M 3188 953 
L 4475 953 
L 4475 1641 
L 3888 1641 
Q 3769 1331 3619 1078 
Q 3288 1263 3013 1381 
L 3013 47 
Q 3013 -316 2888 -517 
Q 2763 -719 2517 -758 
Q 2272 -797 1963 -797 
L 1884 -403 
L 1406 -403 
L 1406 778 
L 1034 778 
Q 941 -281 656 -897 
Q 350 -516 69 -259 
Q 419 541 419 2078 
L 419 3113 
Q 359 3053 300 2997 
Q 225 3403 81 3866 
Q 725 4522 1075 5359 
L 1838 5259 
Q 1759 5072 1672 4891 
L 2806 4891 
L 2806 4303 
L 2488 3734 
L 3013 3734 
L 3013 1541 
Q 3384 2147 3488 2803 
L 4169 2709 
Q 4134 2513 4091 2328 
L 4475 2328 
L 4475 2853 
L 5263 2853 
L 5263 2328 
L 6131 2328 
L 6131 1641 
L 5263 1641 
L 5263 953 
L 6281 953 
L 6281 266 
L 5263 266 
L 5263 -822 
L 4475 -822 
L 4475 266 
L 3188 266 
L 3188 953 
z
M 963 3734 
L 1697 3734 
L 2000 4278 
L 1338 4278 
Q 1166 3997 963 3734 
z
M 2363 3134 
L 2006 3134 
L 2006 2541 
L 2363 2541 
L 2363 3134 
z
M 1081 2541 
L 1406 2541 
L 1406 3134 
L 1081 3134 
L 1081 2541 
z
M 2006 1366 
L 2363 1366 
L 2363 1953 
L 2006 1953 
L 2006 1366 
z
M 1072 1366 
L 1406 1366 
L 1406 1953 
L 1081 1953 
Q 1081 1909 1072 1366 
z
M 2363 778 
L 2006 778 
L 2006 -81 
Q 2231 -91 2297 -22 
Q 2363 47 2363 247 
L 2363 778 
z
M 4581 2978 
Q 4522 3366 4416 3697 
Q 4206 3203 3581 2816 
Q 3338 3153 3019 3484 
Q 3725 3841 3775 4416 
L 3194 4416 
L 3194 5097 
L 6119 5097 
Q 6103 3772 5973 3492 
Q 5844 3213 5614 3095 
Q 5384 2978 4581 2978 
z
M 4428 3725 
Q 4741 3709 4894 3709 
Q 5122 3709 5198 3821 
Q 5275 3934 5275 4416 
L 4581 4416 
Q 4544 4019 4428 3725 
z
" transform="scale(0.015625)"/>
      <path id="MicrosoftYaHei-Bold-4e3a" d="M 3225 -759 
Q 3169 -403 2994 178 
Q 3759 125 4203 125 
Q 4553 125 4689 192 
Q 4825 259 4876 386 
Q 4928 513 4981 1233 
Q 5034 1953 5094 3103 
L 3288 3103 
Q 3228 2550 3081 2053 
L 3644 2578 
Q 4081 2197 4694 1634 
L 4031 997 
Q 3472 1634 3069 2013 
Q 2528 206 850 -878 
Q 406 -459 106 -209 
Q 2091 988 2350 3103 
L 238 3103 
L 238 3928 
L 1356 3928 
Q 1028 4350 606 4791 
L 1219 5316 
Q 1706 4866 2100 4459 
L 1509 3928 
L 2413 3928 
L 2500 5322 
L 3463 5322 
L 3350 3928 
L 6013 3928 
L 5866 1500 
Q 5794 325 5745 93 
Q 5697 -138 5531 -344 
Q 5366 -550 5116 -644 
Q 4866 -738 4202 -755 
Q 3538 -772 3225 -759 
z
" transform="scale(0.015625)"/>
      <path id="MicrosoftYaHei-Bold-4e03" d="M 131 3103 
L 2119 3322 
L 2119 5291 
L 3063 5291 
L 3063 3425 
L 6156 3766 
L 6238 2897 
L 3063 2550 
L 3063 747 
Q 3063 184 3606 184 
L 4488 184 
Q 4753 184 4912 279 
Q 5072 375 5115 589 
Q 5159 803 5256 1616 
Q 5719 1416 6213 1253 
Q 6025 322 5934 -3 
Q 5844 -328 5512 -500 
Q 5181 -672 4600 -672 
L 3438 -672 
Q 2119 -672 2119 678 
L 2119 2447 
L 219 2241 
L 131 3103 
z
" transform="scale(0.015625)"/>
     </defs>
     <use xlink:href="#MicrosoftYaHei-Bold-5149"/>
     <use xlink:href="#MicrosoftYaHei-Bold-7684" transform="translate(100 0)"/>
     <use xlink:href="#MicrosoftYaHei-Bold-8272" transform="translate(200 0)"/>
     <use xlink:href="#MicrosoftYaHei-Bold-6563" transform="translate(300 0)"/>
     <use xlink:href="#MicrosoftYaHei-Bold-20" transform="translate(400 0)"/>
     <use xlink:href="#MicrosoftYaHei-Bold-2014" transform="translate(429.785156 0)"/>
     <use xlink:href="#MicrosoftYaHei-Bold-20" transform="translate(537.792969 0)"/>
     <use xlink:href="#MicrosoftYaHei-Bold-767d" transform="translate(567.578125 0)"/>
     <use xlink:href="#MicrosoftYaHei-Bold-5149" transform="translate(667.578125 0)"/>
     <use xlink:href="#MicrosoftYaHei-Bold-5206" transform="translate(767.578125 0)"/>
     <use xlink:href="#MicrosoftYaHei-Bold-89e3" transform="translate(867.578125 0)"/>
     <use xlink:href="#MicrosoftYaHei-Bold-4e3a" transform="translate(967.578125 0)"/>
     <use xlink:href="#MicrosoftYaHei-Bold-4e03" transform="translate(1067.578125 0)"/>
     <use xlink:href="#MicrosoftYaHei-Bold-8272" transform="translate(1167.578125 0)"/>
     <use xlink:href="#MicrosoftYaHei-Bold-5149" transform="translate(1267.578125 0)"/>
    </g>
   </g>
  </g>
 </g>
 <defs>
  <clipPath id="pb9eab8c827">
   <rect x="7.2" y="24.39125" width="482.4" height="212.88"/>
  </clipPath>
 </defs>
</svg>
