<?xml version="1.0" encoding="utf-8" standalone="no"?>
<!DOCTYPE svg PUBLIC "-//W3C//DTD SVG 1.1//EN"
  "http://www.w3.org/Graphics/SVG/1.1/DTD/svg11.dtd">
<svg xmlns:xlink="http://www.w3.org/1999/xlink" width="460.8pt" height="216.899943pt" viewBox="0 0 460.8 216.899943" xmlns="http://www.w3.org/2000/svg" version="1.1">
 <metadata>
  <rdf:RDF xmlns:dc="http://purl.org/dc/elements/1.1/" xmlns:cc="http://creativecommons.org/ns#" xmlns:rdf="http://www.w3.org/1999/02/22-rdf-syntax-ns#">
   <cc:Work>
    <dc:type rdf:resource="http://purl.org/dc/dcmitype/StillImage"/>
    <dc:date>2026-05-22T23:04:21.281549</dc:date>
    <dc:format>image/svg+xml</dc:format>
    <dc:creator>
     <cc:Agent>
      <dc:title>Matplotlib v3.10.9, https://matplotlib.org/</dc:title>
     </cc:Agent>
    </dc:creator>
   </cc:Work>
  </rdf:RDF>
 </metadata>
 <defs>
  <style type="text/css">*{stroke-linejoin: round; stroke-linecap: butt}</style>
 </defs>
 <g id="figure_1">
  <g id="patch_1">
   <path d="M 0 216.899943 
L 460.8 216.899943 
L 460.8 0 
L 0 0 
z
" style="fill: #ffffff"/>
  </g>
  <g id="axes_1">
   <g id="patch_2">
    <path d="M 33.596271 176.557958 
L 139.181357 176.557958 
L 86.388814 85.226859 
z
" clip-path="url(#pb18beb90f3)" style="fill: #e74c3c; fill-opacity: 0.501961; stroke: #e74c3c; stroke-width: 2; stroke-linejoin: miter"/>
   </g>
   <g id="patch_3">
    <path d="M 38.875526 187.116467 
L 118.064339 187.116467 
L 91.668068 118.486161 
z
" clip-path="url(#pb18beb90f3)" style="fill: #3498db; fill-opacity: 0.501961; stroke: #3498db; stroke-width: 2; stroke-linejoin: miter"/>
   </g>
   <g id="patch_4">
    <path d="M 149.739865 176.557958 
L 218.37017 176.557958 
L 149.739865 81.531381 
z
" clip-path="url(#pb18beb90f3)" style="fill: #27ae60; fill-opacity: 0.501961; stroke: #27ae60; stroke-width: 2; stroke-linejoin: miter"/>
   </g>
   <g id="text_1">
    <!-- 等边三角形 -->
    <g style="fill: #e74c3c" transform="translate(66.388814 187.116467) scale(0.08 -0.08)">
     <defs>
      <path id="MicrosoftYaHei-7b49" d="M 125 2303 
L 2913 2303 
L 2913 2922 
L 563 2922 
L 563 3328 
L 2913 3328 
L 2913 3822 
L 3400 3822 
L 3400 3328 
L 5850 3328 
L 5850 2922 
L 3400 2922 
L 3400 2303 
L 6288 2303 
L 6288 1884 
L 125 1884 
L 125 2303 
z
M 338 1272 
L 4250 1272 
L 4250 1766 
L 4738 1766 
L 4738 1272 
L 6075 1272 
L 6075 853 
L 4738 853 
L 4738 22 
Q 4738 -766 3925 -766 
Q 3450 -766 2969 -759 
Q 2938 -534 2875 -228 
Q 3375 -278 3794 -278 
Q 4250 -278 4250 91 
L 4250 853 
L 338 853 
L 338 1272 
z
M 1294 5347 
L 1831 5347 
Q 1688 5041 1513 4759 
L 3325 4759 
L 3325 4372 
L 1244 4372 
Q 875 3878 388 3459 
Q 263 3609 75 3797 
Q 856 4428 1294 5347 
z
M 3969 5347 
L 4506 5347 
Q 4366 5038 4213 4759 
L 6225 4759 
L 6225 4372 
L 3984 4372 
Q 3772 4038 3538 3759 
Q 3275 3947 3119 4009 
Q 3663 4597 3969 5347 
z
M 1500 491 
L 1831 809 
Q 2256 447 2700 28 
L 2338 -316 
Q 2000 41 1500 491 
z
M 2019 3441 
Q 1781 3753 1500 4078 
L 1825 4309 
Q 2125 4022 2388 3722 
L 2019 3441 
z
M 4744 3441 
Q 4625 3628 4238 4078 
L 4563 4309 
Q 4900 3984 5113 3722 
L 4744 3441 
z
" transform="scale(0.015625)"/>
      <path id="MicrosoftYaHei-8fb9" d="M 2050 4172 
L 3291 4172 
Q 3306 4772 3306 5291 
L 3831 5291 
Q 3825 4788 3806 4172 
L 5925 4172 
Q 5850 2334 5781 1441 
Q 5694 372 4819 372 
Q 4363 372 3831 397 
Q 3794 653 3738 959 
Q 4344 897 4681 897 
Q 5219 897 5275 1503 
Q 5350 2372 5394 3697 
L 3791 3697 
Q 3744 1225 2044 259 
Q 1894 447 1681 672 
Q 3219 1528 3278 3697 
L 2050 3697 
L 2050 4172 
z
M 2909 -153 
L 4425 -172 
L 6313 -109 
Q 6206 -366 6113 -609 
L 4356 -634 
L 2897 -619 
Q 1644 -597 1156 122 
Q 775 -209 369 -697 
L 100 -166 
Q 609 275 931 550 
L 931 2678 
L 131 2678 
L 131 3134 
L 1431 3134 
L 1431 456 
Q 1894 -125 2909 -153 
z
M 794 5266 
Q 1175 4803 1656 4147 
Q 1431 4016 1206 3853 
Q 819 4453 406 4997 
L 794 5266 
z
" transform="scale(0.015625)"/>
      <path id="MicrosoftYaHei-4e09" d="M 575 4691 
L 5813 4691 
L 5813 4153 
L 575 4153 
L 575 4691 
z
M 188 166 
L 6225 166 
L 6225 -359 
L 188 -359 
L 188 166 
z
M 856 2547 
L 5531 2547 
L 5531 2016 
L 856 2016 
L 856 2547 
z
" transform="scale(0.015625)"/>
      <path id="MicrosoftYaHei-89d2" d="M 94 3266 
Q 1263 4153 1981 5384 
L 2488 5247 
Q 2344 5013 2188 4791 
L 4694 4791 
L 4694 4347 
Q 4406 4034 4094 3691 
L 5794 3691 
L 5794 28 
Q 5794 -741 5075 -741 
Q 4675 -741 4169 -728 
Q 4131 -497 4081 -216 
Q 4525 -247 4888 -247 
Q 5300 -247 5300 122 
L 5300 741 
L 3556 741 
L 3556 -703 
L 3063 -703 
L 3063 741 
L 1303 741 
Q 1119 -325 594 -897 
Q 413 -684 219 -478 
Q 913 228 913 2009 
L 913 3319 
Q 700 3122 475 2934 
Q 306 3091 94 3266 
z
M 4063 4353 
L 1863 4353 
Q 1594 4009 1288 3691 
L 3494 3691 
Q 3806 4050 4063 4353 
z
M 5300 3241 
L 3556 3241 
L 3556 2428 
L 5300 2428 
L 5300 3241 
z
M 3556 1178 
L 5300 1178 
L 5300 1991 
L 3556 1991 
L 3556 1178 
z
M 1366 1178 
L 3063 1178 
L 3063 1991 
L 1406 1991 
Q 1403 1556 1366 1178 
z
M 1406 3241 
L 1406 2428 
L 3063 2428 
L 3063 3241 
L 1406 3241 
z
" transform="scale(0.015625)"/>
      <path id="MicrosoftYaHei-5f62" d="M 175 2647 
L 1019 2647 
L 1019 4422 
L 350 4422 
L 350 4872 
L 3775 4872 
L 3775 4422 
L 3006 4422 
L 3006 2647 
L 3975 2647 
L 3975 2197 
L 3006 2197 
L 3006 -791 
L 2525 -791 
L 2525 2197 
L 1497 2197 
Q 1500 128 406 -841 
Q 256 -622 75 -428 
Q 1025 366 1016 2197 
L 175 2197 
L 175 2647 
z
M 1500 2647 
L 2525 2647 
L 2525 4422 
L 1500 4422 
L 1500 2647 
z
M 6319 1353 
Q 5331 166 3738 -834 
Q 3631 -666 3388 -422 
Q 4925 397 5956 1672 
L 6319 1353 
z
M 6138 3172 
Q 5250 2159 4019 1347 
Q 3888 1528 3694 1722 
Q 4856 2441 5775 3484 
L 6138 3172 
z
M 6038 4934 
Q 5194 4009 3988 3266 
Q 3875 3428 3675 3666 
Q 4838 4322 5675 5253 
L 6038 4934 
z
" transform="scale(0.015625)"/>
     </defs>
     <use xlink:href="#MicrosoftYaHei-7b49"/>
     <use xlink:href="#MicrosoftYaHei-8fb9" transform="translate(100 0)"/>
     <use xlink:href="#MicrosoftYaHei-4e09" transform="translate(200 0)"/>
     <use xlink:href="#MicrosoftYaHei-89d2" transform="translate(300 0)"/>
     <use xlink:href="#MicrosoftYaHei-5f62" transform="translate(400 0)"/>
    </g>
   </g>
   <g id="text_2">
    <!-- 按边分类 -->
    <g style="fill: #999999" transform="translate(64.469933 197.674975) scale(0.07 -0.07)">
     <defs>
      <path id="MicrosoftYaHei-6309" d="M 1763 -366 
Q 3172 -25 3822 450 
Q 3184 791 2444 1147 
Q 2713 1622 2959 2153 
L 2194 2153 
L 2194 2603 
L 3159 2603 
Q 3384 3119 3588 3684 
L 4113 3503 
Q 3919 3069 3700 2603 
L 6263 2603 
L 6263 2153 
L 5444 2153 
Q 5219 1191 4650 547 
Q 5494 100 6238 -353 
L 5938 -828 
Q 5253 -338 4288 197 
Q 3566 -394 2013 -834 
Q 1938 -609 1763 -366 
z
M 88 1966 
Q 503 2094 938 2244 
L 938 3641 
L 175 3641 
L 175 4091 
L 938 4091 
L 938 5253 
L 1413 5253 
L 1413 4091 
L 2100 4091 
L 2100 3641 
L 1413 3641 
L 1413 2413 
Q 1691 2513 1975 2622 
Q 1988 2359 2025 2122 
Q 1722 2016 1413 1900 
L 1413 -78 
Q 1413 -753 763 -759 
Q 569 -766 206 -753 
Q 181 -497 131 -234 
Q 431 -272 681 -272 
Q 938 -272 938 28 
L 938 1722 
Q 550 1575 150 1416 
L 88 1966 
z
M 2300 4384 
L 4056 4384 
Q 3884 4734 3663 5122 
L 4113 5347 
Q 4419 4847 4550 4572 
L 4178 4384 
L 6119 4384 
L 6119 3322 
L 5619 3322 
L 5619 3934 
L 2800 3934 
L 2800 3322 
L 2300 3322 
L 2300 4384 
z
M 3088 1328 
Q 3656 1056 4188 784 
Q 4750 1384 4934 2153 
L 3488 2153 
Q 3297 1753 3088 1328 
z
" transform="scale(0.015625)"/>
      <path id="MicrosoftYaHei-5206" d="M 900 2559 
L 5056 2559 
Q 5025 1497 4963 484 
Q 4888 -684 3856 -678 
Q 3350 -684 2788 -647 
Q 2750 -384 2700 -116 
Q 3181 -184 3775 -191 
Q 4400 -203 4463 541 
Q 4513 1216 4538 2097 
L 2616 2097 
Q 2541 1053 2181 416 
Q 1706 -422 588 -878 
Q 425 -666 231 -459 
Q 1269 -72 1725 666 
Q 2053 1225 2103 2097 
L 900 2097 
L 900 2559 
z
M 3488 5159 
L 3938 5353 
Q 4625 3678 6350 2847 
Q 6069 2553 5944 2372 
Q 4225 3366 3488 5159 
z
M 50 2766 
Q 1338 3678 2250 5253 
L 2694 5009 
Q 1744 3347 413 2341 
Q 281 2534 50 2766 
z
" transform="scale(0.015625)"/>
      <path id="MicrosoftYaHei-7c7b" d="M 6338 -359 
Q 6213 -503 6006 -853 
Q 3975 -459 3200 884 
Q 2644 -497 400 -897 
Q 288 -684 131 -434 
Q 2244 -147 2744 1047 
L 275 1047 
L 275 1484 
L 2875 1484 
Q 2925 1691 2956 1978 
L 3456 1978 
Q 3413 1697 3369 1484 
L 6125 1484 
L 6125 1047 
L 3619 1047 
Q 4450 -159 6338 -359 
z
M 325 3741 
L 2975 3741 
L 2975 5303 
L 3450 5303 
L 3450 3741 
L 6075 3741 
L 6075 3322 
L 3450 3322 
L 3450 2953 
L 3625 3191 
Q 5325 2528 6231 2128 
L 6013 1722 
Q 4956 2266 3450 2847 
L 3450 2197 
L 2975 2197 
L 2975 3241 
Q 1863 2191 450 1741 
Q 319 1934 144 2153 
Q 1569 2553 2538 3322 
L 325 3322 
L 325 3741 
z
M 5550 4784 
Q 5163 4459 4394 3891 
L 4069 4222 
Q 4569 4578 5194 5122 
L 5550 4784 
z
M 900 4791 
L 1206 5122 
Q 1875 4647 2306 4266 
L 1969 3897 
Q 1581 4284 900 4791 
z
" transform="scale(0.015625)"/>
     </defs>
     <use xlink:href="#MicrosoftYaHei-6309"/>
     <use xlink:href="#MicrosoftYaHei-8fb9" transform="translate(100 0)"/>
     <use xlink:href="#MicrosoftYaHei-5206" transform="translate(200 0)"/>
     <use xlink:href="#MicrosoftYaHei-7c7b" transform="translate(300 0)"/>
    </g>
   </g>
   <g id="text_3">
    <!-- 等腰三角形 -->
    <g style="fill: #3498db" transform="translate(38.875526 70.972873) scale(0.08 -0.08)">
     <defs>
      <path id="MicrosoftYaHei-8170" d="M 2488 3941 
L 3563 3941 
L 3563 4541 
L 2388 4541 
L 2388 4966 
L 6188 4966 
L 6188 4541 
L 5013 4541 
L 5013 3941 
L 6088 3941 
L 6088 2072 
L 5688 2072 
L 5688 2241 
L 2888 2241 
L 2888 2072 
L 2488 2072 
L 2488 3941 
z
M 500 4966 
L 2044 4966 
L 2044 -147 
Q 2044 -734 1456 -734 
Q 1200 -734 913 -722 
Q 875 -503 838 -291 
Q 1125 -328 1338 -328 
Q 1631 -328 1631 -84 
L 1631 1428 
L 913 1428 
L 913 1147 
Q 913 -159 450 -822 
Q 288 -684 81 -541 
Q 500 41 500 1166 
L 500 4966 
z
M 2113 -366 
Q 3184 -225 3878 134 
Q 3306 384 2719 628 
Q 2950 938 3156 1247 
L 2325 1247 
L 2325 1659 
L 3419 1659 
Q 3572 1909 3706 2159 
L 4125 1966 
Q 4022 1803 3931 1659 
L 6250 1659 
L 6250 1247 
L 5469 1247 
Q 5238 659 4772 225 
Q 5416 -31 6169 -341 
L 5894 -803 
Q 5153 -438 4378 -88 
Q 3594 -619 2350 -841 
Q 2263 -634 2113 -366 
z
M 3350 797 
Q 3791 622 4316 409 
Q 4766 759 4972 1247 
L 3659 1247 
Q 3484 978 3350 797 
z
M 913 1853 
L 1631 1853 
L 1631 2978 
L 913 2978 
L 913 1853 
z
M 1631 4528 
L 913 4528 
L 913 3403 
L 1631 3403 
L 1631 4528 
z
M 3950 2641 
L 4625 2641 
L 4625 3541 
L 3950 3541 
L 3950 2641 
z
M 5688 3541 
L 5013 3541 
L 5013 2641 
L 5688 2641 
L 5688 3541 
z
M 2888 2641 
L 3563 2641 
L 3563 3541 
L 2888 3541 
L 2888 2641 
z
M 3950 3941 
L 4625 3941 
L 4625 4541 
L 3950 4541 
L 3950 3941 
z
" transform="scale(0.015625)"/>
     </defs>
     <use xlink:href="#MicrosoftYaHei-7b49"/>
     <use xlink:href="#MicrosoftYaHei-8170" transform="translate(100 0)"/>
     <use xlink:href="#MicrosoftYaHei-4e09" transform="translate(200 0)"/>
     <use xlink:href="#MicrosoftYaHei-89d2" transform="translate(300 0)"/>
     <use xlink:href="#MicrosoftYaHei-5f62" transform="translate(400 0)"/>
    </g>
   </g>
   <g id="text_4">
    <!-- 直角三角形 -->
    <g style="fill: #27ae60" transform="translate(184.055018 129.04467) scale(0.08 -0.08)">
     <defs>
      <path id="MicrosoftYaHei-76f4" d="M 119 -153 
L 969 -153 
L 969 3741 
L 2900 3741 
L 2900 4316 
L 244 4316 
L 244 4753 
L 2900 4753 
L 2900 5328 
L 3400 5328 
L 3400 4753 
L 6175 4753 
L 6175 4316 
L 3400 4316 
L 3400 3741 
L 5400 3741 
L 5400 -153 
L 6294 -153 
L 6294 -591 
L 119 -591 
L 119 -153 
z
M 1450 -153 
L 4919 -153 
L 4919 422 
L 1450 422 
L 1450 -153 
z
M 4919 3328 
L 1450 3328 
L 1450 2759 
L 4919 2759 
L 4919 3328 
z
M 1450 822 
L 4919 822 
L 4919 1391 
L 1450 1391 
L 1450 822 
z
M 1450 1791 
L 4919 1791 
L 4919 2359 
L 1450 2359 
L 1450 1791 
z
" transform="scale(0.015625)"/>
     </defs>
     <use xlink:href="#MicrosoftYaHei-76f4"/>
     <use xlink:href="#MicrosoftYaHei-89d2" transform="translate(100 0)"/>
     <use xlink:href="#MicrosoftYaHei-4e09" transform="translate(200 0)"/>
     <use xlink:href="#MicrosoftYaHei-89d2" transform="translate(300 0)"/>
     <use xlink:href="#MicrosoftYaHei-5f62" transform="translate(400 0)"/>
    </g>
   </g>
   <g id="text_5">
    <!-- 三角形分类 -->
    <g style="fill: #1a6fc4" transform="translate(85.285085 22.738839) scale(0.11 -0.11)">
     <defs>
      <path id="MicrosoftYaHei-Bold-4e09" d="M 575 4803 
L 5813 4803 
L 5813 3878 
L 575 3878 
L 575 4803 
z
M 856 2691 
L 5531 2691 
L 5531 1791 
L 856 1791 
L 856 2691 
z
M 188 466 
L 6225 466 
L 6225 -459 
L 188 -459 
L 188 466 
z
" transform="scale(0.015625)"/>
      <path id="MicrosoftYaHei-Bold-89d2" d="M 1800 5341 
L 2794 5341 
Q 2703 5147 2600 4959 
L 4900 4959 
L 4900 4278 
L 4516 3778 
L 5731 3778 
L 5731 109 
Q 5731 -275 5589 -489 
Q 5447 -703 5190 -750 
Q 4934 -797 4088 -791 
Q 4031 -372 3913 28 
Q 4213 3 4569 3 
Q 4869 3 4869 397 
L 4869 609 
L 3725 609 
L 3725 -722 
L 2863 -722 
L 2863 609 
L 1672 609 
Q 1497 -291 969 -866 
Q 656 -572 219 -228 
Q 900 516 900 1872 
L 900 2959 
L 700 2803 
Q 463 3103 106 3384 
Q 1188 4228 1800 5341 
z
M 1759 3778 
L 3428 3778 
L 3806 4284 
L 2169 4284 
Q 1978 4025 1759 3778 
z
M 4869 3047 
L 3725 3047 
L 3725 2497 
L 4869 2497 
L 4869 3047 
z
M 1763 2497 
L 2863 2497 
L 2863 3047 
L 1763 3047 
L 1763 2497 
z
M 3725 1278 
L 4869 1278 
L 4869 1828 
L 3725 1828 
L 3725 1278 
z
M 1753 1278 
L 2863 1278 
L 2863 1828 
L 1763 1828 
Q 1763 1597 1753 1278 
z
" transform="scale(0.015625)"/>
      <path id="MicrosoftYaHei-Bold-5f62" d="M 5488 5322 
L 6100 4797 
Q 5244 3897 4169 3209 
Q 3900 3591 3569 3934 
Q 4719 4497 5488 5322 
z
M 150 2797 
L 806 2797 
L 806 4216 
L 288 4216 
L 288 4966 
L 3744 4966 
L 3744 4216 
L 3188 4216 
L 3188 2797 
L 3894 2797 
L 3894 2094 
Q 4859 2678 5631 3547 
L 6244 3003 
Q 5325 2003 4188 1241 
Q 3944 1566 3594 1922 
Q 3706 1981 3816 2047 
L 3188 2047 
L 3188 -759 
L 2363 -759 
L 2363 2047 
L 1619 2047 
Q 1528 56 781 -872 
Q 375 -434 75 -172 
Q 725 528 797 2047 
L 150 2047 
L 150 2797 
z
M 1631 2797 
L 2363 2797 
L 2363 4216 
L 1631 4216 
L 1631 2797 
z
M 5669 1659 
L 6319 1134 
Q 5225 -141 3931 -872 
Q 3644 -453 3350 -91 
Q 4688 559 5669 1659 
z
" transform="scale(0.015625)"/>
      <path id="MicrosoftYaHei-Bold-5206" d="M 6350 3028 
Q 6088 2703 5750 2228 
Q 5519 2409 5303 2603 
Q 5219 606 5172 190 
Q 5125 -225 4862 -451 
Q 4600 -678 4128 -678 
Q 3484 -678 2913 -659 
Q 2856 -141 2781 284 
Q 3594 216 3956 216 
Q 4172 216 4230 408 
Q 4288 600 4325 1978 
L 2781 1978 
Q 2728 1100 2529 631 
Q 2331 163 1907 -215 
Q 1484 -594 844 -872 
Q 456 -353 194 -78 
Q 750 144 1111 414 
Q 1472 684 1630 989 
Q 1788 1294 1841 1978 
L 950 1978 
L 950 2475 
Q 794 2356 631 2247 
Q 344 2653 63 2953 
Q 1475 3947 2194 5316 
L 3031 4953 
Q 2378 3722 1391 2841 
L 5047 2841 
Q 4088 3766 3463 4903 
L 4238 5303 
Q 5038 3922 6350 3028 
z
" transform="scale(0.015625)"/>
      <path id="MicrosoftYaHei-Bold-7c7b" d="M 331 3953 
L 1781 3953 
Q 1319 4347 838 4728 
L 1306 5247 
Q 1863 4866 2431 4422 
Q 2425 4409 1975 3953 
L 2763 3953 
L 2763 5303 
L 3613 5303 
L 3613 3953 
L 4456 3953 
L 4038 4372 
Q 4513 4753 5106 5259 
L 5663 4728 
Q 5138 4297 4688 3953 
L 6069 3953 
L 6069 3216 
L 3925 3216 
Q 5069 2809 6025 2441 
L 5675 1734 
Q 4844 2122 3613 2653 
L 3613 2141 
L 2763 2141 
L 2763 2722 
Q 2038 2116 813 1747 
Q 644 2122 400 2509 
Q 1588 2747 2256 3216 
L 331 3216 
L 331 3953 
z
M 225 1603 
L 2719 1603 
Q 2744 1772 2750 1966 
L 3606 1966 
Q 3588 1772 3563 1603 
L 6181 1603 
L 6181 841 
L 4013 841 
Q 4788 66 6238 -91 
Q 5863 -603 5681 -891 
Q 4006 -528 3225 734 
Q 2850 -359 694 -872 
Q 388 -391 169 -109 
Q 1844 134 2419 841 
L 225 841 
L 225 1603 
z
" transform="scale(0.015625)"/>
     </defs>
     <use xlink:href="#MicrosoftYaHei-Bold-4e09"/>
     <use xlink:href="#MicrosoftYaHei-Bold-89d2" transform="translate(100 0)"/>
     <use xlink:href="#MicrosoftYaHei-Bold-5f62" transform="translate(200 0)"/>
     <use xlink:href="#MicrosoftYaHei-Bold-5206" transform="translate(300 0)"/>
     <use xlink:href="#MicrosoftYaHei-Bold-7c7b" transform="translate(400 0)"/>
    </g>
   </g>
  </g>
  <g id="axes_2">
   <g id="patch_5">
    <path d="M 265.893182 186.236591 
L 406.673295 186.236591 
L 265.893182 92.383182 
z
" clip-path="url(#pdea581babf)" style="fill: #f5f0e0; stroke: #c0392b; stroke-width: 2.5; stroke-linejoin: miter"/>
   </g>
   <g id="line2d_1">
    <path d="M 279.971193 186.236591 
L 279.971193 172.15858 
" clip-path="url(#pdea581babf)" style="fill: none; stroke: #333333; stroke-width: 1.5; stroke-linecap: square"/>
   </g>
   <g id="line2d_2">
    <path d="M 265.893182 172.15858 
L 279.971193 172.15858 
" clip-path="url(#pdea581babf)" style="fill: none; stroke: #333333; stroke-width: 1.5; stroke-linecap: square"/>
   </g>
   <g id="text_6">
    <!-- c -->
    <g style="fill: #c0392b" transform="translate(279.971193 172.15858) scale(0.12 -0.12)">
     <defs>
      <path id="MicrosoftYaHei-Bold-63" d="M 3050 128 
Q 2688 -84 2019 -84 
Q 1228 -84 740 397 
Q 253 878 253 1644 
Q 253 2525 778 3033 
Q 1303 3541 2178 3541 
Q 2769 3541 3053 3378 
L 3053 2513 
Q 2706 2766 2297 2766 
Q 1834 2766 1554 2484 
Q 1275 2203 1275 1713 
Q 1275 1238 1540 964 
Q 1806 691 2263 691 
Q 2666 691 3050 947 
L 3050 128 
z
" transform="scale(0.015625)"/>
     </defs>
     <use xlink:href="#MicrosoftYaHei-Bold-63"/>
    </g>
   </g>
   <g id="text_7">
    <!-- a -->
    <g style="fill: #e67e22" transform="translate(336.283239 197.968267) scale(0.12 -0.12)">
     <defs>
      <path id="MicrosoftYaHei-Bold-61" d="M 544 3247 
Q 778 3378 1170 3459 
Q 1563 3541 1841 3541 
Q 3291 3541 3291 2088 
L 3291 0 
L 2331 0 
L 2331 503 
L 2319 503 
Q 1966 -84 1284 -84 
Q 794 -84 498 195 
Q 203 475 203 956 
Q 203 1950 1388 2113 
L 2338 2241 
Q 2338 2844 1709 2844 
Q 1091 2844 544 2469 
L 544 3247 
z
M 1684 1566 
Q 1138 1494 1138 1072 
Q 1138 878 1270 759 
Q 1403 641 1628 641 
Q 1938 641 2138 859 
Q 2338 1078 2338 1403 
L 2338 1650 
L 1684 1566 
z
" transform="scale(0.015625)"/>
     </defs>
     <use xlink:href="#MicrosoftYaHei-Bold-61"/>
    </g>
   </g>
   <g id="text_8">
    <!-- b -->
    <g style="fill: #2980b9" transform="translate(254.161506 139.309886) scale(0.12 -0.12)">
     <defs>
      <path id="MicrosoftYaHei-Bold-62" d="M 1469 416 
L 1469 0 
L 459 0 
L 459 5116 
L 1469 5116 
L 1469 2928 
L 1481 2928 
Q 1878 3541 2613 3541 
Q 3266 3541 3636 3084 
Q 4006 2628 4006 1825 
Q 4006 966 3581 441 
Q 3156 -84 2453 -84 
Q 1809 -84 1481 416 
L 1469 416 
z
M 1453 1494 
Q 1453 1153 1656 922 
Q 1859 691 2172 691 
Q 2550 691 2761 984 
Q 2972 1278 2972 1816 
Q 2972 2263 2780 2514 
Q 2588 2766 2231 2766 
Q 1894 2766 1673 2512 
Q 1453 2259 1453 1863 
L 1453 1494 
z
" transform="scale(0.015625)"/>
     </defs>
     <use xlink:href="#MicrosoftYaHei-Bold-62"/>
    </g>
   </g>
   <g id="text_9">
    <!-- 勾股定理 a²+b²=c² -->
    <g style="fill: #c0392b" transform="translate(299.190384 15.993125) scale(0.11 -0.11)">
     <defs>
      <path id="MicrosoftYaHei-Bold-52fe" d="M 1556 5353 
L 2519 5197 
Q 2375 4825 2213 4478 
L 5988 4478 
L 5938 2191 
L 5884 550 
Q 5859 -75 5562 -398 
Q 5266 -722 4798 -740 
Q 4331 -759 3356 -759 
Q 3313 -359 3169 191 
Q 3581 141 4300 141 
Q 4481 141 4615 195 
Q 4750 250 4834 358 
Q 4919 466 4950 600 
Q 4981 734 5003 1344 
L 5056 3653 
L 1778 3653 
Q 1325 2884 769 2278 
Q 475 2572 63 2903 
Q 1069 3959 1556 5353 
z
M 3731 2684 
Q 4294 1672 4756 728 
L 3931 353 
L 3772 713 
Q 1834 619 969 503 
L 650 1253 
Q 1356 1822 2206 3422 
L 3194 3278 
Q 2500 2166 1906 1403 
L 3416 1478 
Q 3213 1903 2981 2353 
L 3731 2684 
z
" transform="scale(0.015625)"/>
      <path id="MicrosoftYaHei-Bold-80a1" d="M 6044 2722 
L 6044 1966 
Q 5706 1178 5084 506 
Q 5641 163 6300 -22 
Q 6019 -478 5856 -816 
Q 5209 -616 4469 -53 
Q 3853 -516 3044 -847 
Q 2881 -575 2553 -72 
Q 2534 -347 2404 -500 
Q 2275 -653 2014 -697 
Q 1753 -741 1269 -766 
Q 1225 -441 1025 84 
Q 1231 53 1431 53 
Q 1775 53 1775 409 
L 1775 1116 
L 1141 1116 
Q 1100 3 644 -866 
Q 350 -453 63 -122 
Q 300 403 359 1097 
Q 419 1791 419 2978 
L 419 5078 
L 2556 5078 
L 2556 -56 
Q 3219 113 3828 494 
Q 3325 988 3000 1522 
L 3613 1928 
Q 3966 1419 4456 978 
Q 4894 1400 5150 1947 
L 2794 1947 
L 2794 2722 
L 6044 2722 
z
M 1775 4278 
L 1175 4278 
L 1175 3441 
L 1775 3441 
L 1775 4278 
z
M 1169 1859 
L 1775 1859 
L 1775 2697 
L 1175 2697 
Q 1175 2453 1169 1859 
z
M 5944 3809 
L 6319 3809 
L 6169 3041 
L 5500 3041 
Q 4894 3041 4894 3709 
L 4894 4303 
L 3981 4303 
Q 3981 3719 3832 3383 
Q 3684 3047 3344 2791 
Q 3075 3041 2738 3316 
Q 3097 3547 3164 3876 
Q 3231 4206 3238 5078 
L 5644 5078 
L 5644 4091 
Q 5644 3809 5944 3809 
z
" transform="scale(0.015625)"/>
      <path id="MicrosoftYaHei-Bold-5b9a" d="M 2581 5128 
L 3538 5353 
Q 3666 5028 3806 4634 
L 6063 4634 
L 6063 3403 
L 5200 3403 
L 5200 3872 
L 1225 3872 
L 1225 3403 
L 363 3403 
L 363 4634 
L 2772 4634 
L 2581 5128 
z
M 5831 1741 
L 5831 972 
L 3744 972 
L 3744 125 
Q 4766 103 6313 147 
Q 6138 -372 6044 -697 
Q 3819 -697 2809 -630 
Q 1800 -563 1388 219 
Q 1069 -425 613 -859 
Q 331 -441 94 -134 
Q 875 659 1094 2122 
L 1931 2022 
Q 1850 1541 1728 1122 
Q 2047 300 2850 175 
L 2850 2416 
L 263 2416 
L 263 3184 
L 6156 3184 
L 6156 2416 
L 3744 2416 
L 3744 1741 
L 5831 1741 
z
" transform="scale(0.015625)"/>
      <path id="MicrosoftYaHei-Bold-7406" d="M 256 -503 
L 81 384 
L 825 553 
L 825 2091 
L 225 2091 
L 225 2866 
L 825 2866 
L 825 4178 
L 200 4178 
L 200 4966 
L 2250 4966 
L 2250 4178 
L 1625 4178 
L 1625 2866 
L 2206 2866 
L 2206 2091 
L 1625 2091 
L 1625 756 
Q 1959 847 2275 941 
Q 2250 497 2269 84 
L 3819 84 
L 3819 628 
L 2394 628 
L 2394 1341 
L 3819 1341 
L 3819 1791 
L 2425 1791 
L 2425 5034 
L 6013 5034 
L 6013 1791 
L 4619 1791 
L 4619 1341 
L 6044 1341 
L 6044 628 
L 4619 628 
L 4619 84 
L 6319 84 
L 6319 -628 
L 2031 -628 
L 2031 31 
Q 1206 -197 256 -503 
z
M 5231 4334 
L 4619 4334 
L 4619 3741 
L 5231 3741 
L 5231 4334 
z
M 3206 3741 
L 3819 3741 
L 3819 4334 
L 3206 4334 
L 3206 3741 
z
M 5231 2491 
L 5231 3091 
L 4619 3091 
L 4619 2491 
L 5231 2491 
z
M 3206 2491 
L 3819 2491 
L 3819 3091 
L 3206 3091 
L 3206 2491 
z
" transform="scale(0.015625)"/>
      <path id="MicrosoftYaHei-Bold-20" transform="scale(0.015625)"/>
      <path id="MicrosoftYaHei-Bold-b2" d="M 2413 1972 
L 391 1972 
L 391 2484 
L 1225 3275 
Q 1497 3531 1562 3659 
Q 1628 3788 1628 3950 
Q 1628 4100 1529 4195 
Q 1431 4291 1266 4291 
Q 925 4291 550 3944 
L 550 4644 
Q 934 4906 1388 4906 
Q 1838 4906 2105 4676 
Q 2372 4447 2372 4044 
Q 2372 3738 2230 3519 
Q 2088 3300 1641 2900 
L 1266 2563 
L 1266 2550 
L 2413 2550 
L 2413 1972 
z
" transform="scale(0.015625)"/>
      <path id="MicrosoftYaHei-Bold-2b" d="M 4072 1653 
L 2766 1653 
L 2766 347 
L 2109 347 
L 2109 1653 
L 797 1653 
L 797 2313 
L 2109 2313 
L 2109 3625 
L 2766 3625 
L 2766 2313 
L 4072 2313 
L 4072 1653 
z
" transform="scale(0.015625)"/>
      <path id="MicrosoftYaHei-Bold-3d" d="M 4072 2378 
L 797 2378 
L 797 3041 
L 4072 3041 
L 4072 2378 
z
M 4072 916 
L 797 916 
L 797 1578 
L 4072 1578 
L 4072 916 
z
" transform="scale(0.015625)"/>
     </defs>
     <use xlink:href="#MicrosoftYaHei-Bold-52fe"/>
     <use xlink:href="#MicrosoftYaHei-Bold-80a1" transform="translate(100 0)"/>
     <use xlink:href="#MicrosoftYaHei-Bold-5b9a" transform="translate(200 0)"/>
     <use xlink:href="#MicrosoftYaHei-Bold-7406" transform="translate(300 0)"/>
     <use xlink:href="#MicrosoftYaHei-Bold-20" transform="translate(400 0)"/>
     <use xlink:href="#MicrosoftYaHei-Bold-61" transform="translate(429.785156 0)"/>
     <use xlink:href="#MicrosoftYaHei-Bold-b2" transform="translate(487.548828 0)"/>
     <use xlink:href="#MicrosoftYaHei-Bold-2b" transform="translate(530.761719 0)"/>
     <use xlink:href="#MicrosoftYaHei-Bold-62" transform="translate(606.884766 0)"/>
     <use xlink:href="#MicrosoftYaHei-Bold-b2" transform="translate(673.486328 0)"/>
     <use xlink:href="#MicrosoftYaHei-Bold-3d" transform="translate(716.699219 0)"/>
     <use xlink:href="#MicrosoftYaHei-Bold-63" transform="translate(792.822266 0)"/>
     <use xlink:href="#MicrosoftYaHei-Bold-b2" transform="translate(844.482422 0)"/>
    </g>
   </g>
  </g>
 </g>
 <defs>
  <clipPath id="pb18beb90f3">
   <rect x="7.2" y="28.738839" width="211.17017" height="174.215391"/>
  </clipPath>
  <clipPath id="pdea581babf">
   <rect x="242.42983" y="21.993125" width="211.17017" height="187.706818"/>
  </clipPath>
 </defs>
</svg>
