<?xml version="1.0" encoding="utf-8" standalone="no"?>
<!DOCTYPE svg PUBLIC "-//W3C//DTD SVG 1.1//EN"
  "http://www.w3.org/Graphics/SVG/1.1/DTD/svg11.dtd">
<svg xmlns:xlink="http://www.w3.org/1999/xlink" width="496.82pt" height="279.179219pt" viewBox="0 0 496.82 279.179219" xmlns="http://www.w3.org/2000/svg" version="1.1">
 <metadata>
  <rdf:RDF xmlns:dc="http://purl.org/dc/elements/1.1/" xmlns:cc="http://creativecommons.org/ns#" xmlns:rdf="http://www.w3.org/1999/02/22-rdf-syntax-ns#">
   <cc:Work>
    <dc:type rdf:resource="http://purl.org/dc/dcmitype/StillImage"/>
    <dc:date>2026-05-22T23:20:28.851013</dc:date>
    <dc:format>image/svg+xml</dc:format>
    <dc:creator>
     <cc:Agent>
      <dc:title>Matplotlib v3.10.9, https://matplotlib.org/</dc:title>
     </cc:Agent>
    </dc:creator>
   </cc:Work>
  </rdf:RDF>
 </metadata>
 <defs>
  <style type="text/css">*{stroke-linejoin: round; stroke-linecap: butt}</style>
 </defs>
 <g id="figure_1">
  <g id="patch_1">
   <path d="M 0 279.179219 
L 496.82 279.179219 
L 496.82 0 
L 0 0 
z
" style="fill: #ffffff"/>
  </g>
  <g id="axes_1">
   <g id="patch_2">
    <path d="M 34.2 238.51125 
L 489.62 238.51125 
L 489.62 24.39125 
L 34.2 24.39125 
z
" style="fill: #ffffff"/>
   </g>
   <g id="patch_3">
    <path d="M 34.2 34.123977 
L 381.975273 34.123977 
L 381.975273 54.088546 
L 34.2 54.088546 
z
" clip-path="url(#pa72d82f8a1)" style="fill: #2980b9; stroke: #333333; stroke-linejoin: miter"/>
   </g>
   <g id="patch_4">
    <path d="M 34.2 59.079688 
L 208.087636 59.079688 
L 208.087636 79.044257 
L 34.2 79.044257 
z
" clip-path="url(#pa72d82f8a1)" style="fill: #85c1e9; stroke: #333333; stroke-linejoin: miter"/>
   </g>
   <g id="patch_5">
    <path d="M 34.2 84.035399 
L 232.928727 84.035399 
L 232.928727 103.999968 
L 34.2 103.999968 
z
" clip-path="url(#pa72d82f8a1)" style="fill: #f39c12; stroke: #333333; stroke-linejoin: miter"/>
   </g>
   <g id="patch_6">
    <path d="M 34.2 108.99111 
L 208.087636 108.99111 
L 208.087636 128.955679 
L 34.2 128.955679 
z
" clip-path="url(#pa72d82f8a1)" style="fill: #e67e22; stroke: #333333; stroke-linejoin: miter"/>
   </g>
   <g id="patch_7">
    <path d="M 34.2 133.946821 
L 110.379345 133.946821 
L 110.379345 153.91139 
L 34.2 153.91139 
z
" clip-path="url(#pa72d82f8a1)" style="fill: #a04000; stroke: #333333; stroke-linejoin: miter"/>
   </g>
   <g id="patch_8">
    <path d="M 34.2 158.902532 
L 107.0672 158.902532 
L 107.0672 178.867101 
L 34.2 178.867101 
z
" clip-path="url(#pa72d82f8a1)" style="fill: #7f8c8d; stroke: #333333; stroke-linejoin: miter"/>
   </g>
   <g id="patch_9">
    <path d="M 34.2 183.858243 
L 72.289673 183.858243 
L 72.289673 203.822812 
L 34.2 203.822812 
z
" clip-path="url(#pa72d82f8a1)" style="fill: #c0392b; stroke: #333333; stroke-linejoin: miter"/>
   </g>
   <g id="patch_10">
    <path d="M 34.2 208.813954 
L 66.493418 208.813954 
L 66.493418 228.778523 
L 34.2 228.778523 
z
" clip-path="url(#pa72d82f8a1)" style="fill: #e67e22; stroke: #333333; stroke-linejoin: miter"/>
   </g>
   <g id="matplotlib.axis_1">
    <g id="xtick_1">
     <g id="line2d_1">
      <defs>
       <path id="mfa4d668bf2" d="M 0 0 
L 0 3.5 
" style="stroke: #000000; stroke-width: 0.8"/>
      </defs>
      <g>
       <use xlink:href="#mfa4d668bf2" x="34.2" y="238.51125" style="stroke: #000000; stroke-width: 0.8"/>
      </g>
     </g>
     <g id="text_1">
      <!-- 0 -->
      <g transform="translate(31.267969 253.505) scale(0.1 -0.1)">
       <defs>
        <path id="MicrosoftYaHei-30" d="M 284 2325 
Q 284 3606 709 4264 
Q 1134 4922 1941 4922 
Q 3478 4922 3478 2441 
Q 3478 1216 3045 567 
Q 2613 -81 1831 -81 
Q 1094 -81 689 534 
Q 284 1150 284 2325 
z
M 909 2353 
Q 909 425 1888 425 
Q 2850 425 2850 2384 
Q 2850 4413 1906 4413 
Q 909 4413 909 2353 
z
" transform="scale(0.015625)"/>
       </defs>
       <use xlink:href="#MicrosoftYaHei-30"/>
      </g>
     </g>
    </g>
    <g id="xtick_2">
     <g id="line2d_2">
      <g>
       <use xlink:href="#mfa4d668bf2" x="117.003636" y="238.51125" style="stroke: #000000; stroke-width: 0.8"/>
      </g>
     </g>
     <g id="text_2">
      <!-- 1 -->
      <g transform="translate(114.071605 253.505) scale(0.1 -0.1)">
       <defs>
        <path id="MicrosoftYaHei-31" d="M 1781 0 
L 1781 4141 
Q 1638 3997 1295 3819 
Q 953 3641 663 3569 
L 663 4169 
Q 1047 4275 1484 4508 
Q 1922 4741 2156 4947 
L 2388 4947 
L 2388 0 
L 1781 0 
z
" transform="scale(0.015625)"/>
       </defs>
       <use xlink:href="#MicrosoftYaHei-31"/>
      </g>
     </g>
    </g>
    <g id="xtick_3">
     <g id="line2d_3">
      <g>
       <use xlink:href="#mfa4d668bf2" x="199.807273" y="238.51125" style="stroke: #000000; stroke-width: 0.8"/>
      </g>
     </g>
     <g id="text_3">
      <!-- 2 -->
      <g transform="translate(196.875241 253.505) scale(0.1 -0.1)">
       <defs>
        <path id="MicrosoftYaHei-32" d="M 2666 3572 
Q 2666 3963 2419 4186 
Q 2172 4409 1747 4409 
Q 1447 4409 1140 4256 
Q 834 4103 569 3819 
L 569 4413 
Q 806 4659 1107 4790 
Q 1409 4922 1816 4922 
Q 2472 4922 2872 4570 
Q 3272 4219 3272 3619 
Q 3272 3084 3026 2693 
Q 2781 2303 2188 1894 
Q 1581 1475 1376 1294 
Q 1172 1113 1090 947 
Q 1009 781 1009 544 
L 3416 544 
L 3416 0 
L 372 0 
L 372 241 
Q 372 659 486 951 
Q 600 1244 862 1520 
Q 1125 1797 1681 2184 
Q 2250 2584 2458 2886 
Q 2666 3188 2666 3572 
z
" transform="scale(0.015625)"/>
       </defs>
       <use xlink:href="#MicrosoftYaHei-32"/>
      </g>
     </g>
    </g>
    <g id="xtick_4">
     <g id="line2d_4">
      <g>
       <use xlink:href="#mfa4d668bf2" x="282.610909" y="238.51125" style="stroke: #000000; stroke-width: 0.8"/>
      </g>
     </g>
     <g id="text_4">
      <!-- 3 -->
      <g transform="translate(279.678878 253.505) scale(0.1 -0.1)">
       <defs>
        <path id="MicrosoftYaHei-33" d="M 447 809 
Q 944 425 1569 425 
Q 2069 425 2361 670 
Q 2653 916 2653 1328 
Q 2653 2247 1338 2247 
L 934 2247 
L 934 2753 
L 1319 2753 
Q 2484 2753 2484 3616 
Q 2484 4413 1594 4413 
Q 1084 4413 634 4069 
L 634 4647 
Q 1109 4922 1744 4922 
Q 2363 4922 2738 4598 
Q 3113 4275 3113 3759 
Q 3113 2809 2144 2538 
L 2144 2525 
Q 2669 2469 2973 2155 
Q 3278 1841 3278 1372 
Q 3278 719 2808 319 
Q 2338 -81 1556 -81 
Q 869 -81 447 175 
L 447 809 
z
" transform="scale(0.015625)"/>
       </defs>
       <use xlink:href="#MicrosoftYaHei-33"/>
      </g>
     </g>
    </g>
    <g id="xtick_5">
     <g id="line2d_5">
      <g>
       <use xlink:href="#mfa4d668bf2" x="365.414545" y="238.51125" style="stroke: #000000; stroke-width: 0.8"/>
      </g>
     </g>
     <g id="text_5">
      <!-- 4 -->
      <g transform="translate(362.482514 253.505) scale(0.1 -0.1)">
       <defs>
        <path id="MicrosoftYaHei-34" d="M 2906 4841 
L 2906 1644 
L 3631 1644 
L 3631 1138 
L 2906 1138 
L 2906 0 
L 2313 0 
L 2313 1138 
L 53 1138 
L 53 1616 
Q 656 2294 1265 3178 
Q 1875 4063 2272 4841 
L 2906 4841 
z
M 741 1644 
L 2313 1644 
L 2313 3950 
Q 1988 3366 1616 2817 
Q 1244 2269 741 1644 
z
" transform="scale(0.015625)"/>
       </defs>
       <use xlink:href="#MicrosoftYaHei-34"/>
      </g>
     </g>
    </g>
    <g id="xtick_6">
     <g id="line2d_6">
      <g>
       <use xlink:href="#mfa4d668bf2" x="448.218182" y="238.51125" style="stroke: #000000; stroke-width: 0.8"/>
      </g>
     </g>
     <g id="text_6">
      <!-- 5 -->
      <g transform="translate(445.286151 253.505) scale(0.1 -0.1)">
       <defs>
        <path id="MicrosoftYaHei-35" d="M 3294 1494 
Q 3294 784 2823 350 
Q 2353 -84 1559 -84 
Q 878 -84 544 119 
L 544 744 
Q 1034 425 1544 425 
Q 2050 425 2361 704 
Q 2672 984 2672 1447 
Q 2672 1909 2348 2167 
Q 2025 2425 1434 2425 
Q 978 2425 613 2384 
L 791 4841 
L 3053 4841 
L 3053 4303 
L 1306 4303 
L 1206 2931 
L 1647 2950 
Q 2416 2950 2855 2567 
Q 3294 2184 3294 1494 
z
" transform="scale(0.015625)"/>
       </defs>
       <use xlink:href="#MicrosoftYaHei-35"/>
      </g>
     </g>
    </g>
    <g id="text_7">
     <!-- 比热容 c / ×10³ J/(kg·℃) -->
     <g transform="translate(199.637969 269.181094) scale(0.11 -0.11)">
      <defs>
       <path id="MicrosoftYaHei-6bd4" d="M 3225 5316 
L 3744 5316 
L 3744 2672 
Q 4959 3550 5744 4509 
L 6188 4178 
Q 5175 3063 3744 2056 
L 3744 247 
Q 3744 -166 4106 -166 
L 5175 -166 
Q 5588 -166 5650 203 
Q 5725 678 5763 1247 
Q 6025 1147 6300 1066 
Q 6244 484 6150 22 
Q 6019 -622 5319 -622 
L 3944 -622 
Q 3225 -622 3225 159 
L 3225 5316 
z
M 1063 5153 
L 1063 3278 
L 2825 3278 
L 2825 2809 
L 1063 2809 
L 1063 153 
Q 1713 428 2763 928 
Q 2763 634 2788 366 
Q 1869 -3 1231 -328 
Q 956 -472 725 -672 
L 344 -184 
Q 544 -34 544 272 
L 544 5153 
L 1063 5153 
z
" transform="scale(0.015625)"/>
       <path id="MicrosoftYaHei-70ed" d="M 2456 3028 
L 2725 3384 
Q 3013 3209 3297 3031 
Q 3394 3453 3400 3953 
L 2631 3953 
L 2631 4403 
L 3409 4403 
Q 3422 4922 3419 5347 
L 3900 5347 
Q 3900 4941 3888 4403 
L 5338 4403 
Q 5281 2553 5419 1897 
Q 5500 1528 5656 1528 
Q 5781 1528 5819 1741 
Q 5875 2047 5919 2578 
Q 6156 2491 6381 2428 
Q 6319 1872 6250 1547 
Q 6119 972 5669 972 
Q 5131 972 4944 1841 
Q 4831 2422 4850 3953 
L 3878 3953 
Q 3869 3300 3728 2756 
Q 4169 2472 4594 2178 
L 4281 1734 
Q 3913 2019 3569 2269 
Q 3178 1334 2313 816 
Q 2156 1009 1950 1222 
Q 2803 1672 3153 2563 
Q 2791 2816 2456 3028 
z
M 175 2753 
Q 663 2878 1138 3013 
L 1138 3966 
L 250 3966 
L 250 4397 
L 1138 4397 
L 1138 5322 
L 1613 5322 
L 1613 4397 
L 2350 4397 
L 2350 3966 
L 1613 3966 
L 1613 3150 
Q 1956 3256 2294 3366 
Q 2294 3078 2306 2891 
Q 2272 2878 1613 2672 
L 1613 1753 
Q 1613 997 906 997 
Q 638 997 325 1009 
Q 300 1222 250 1522 
Q 556 1472 806 1472 
Q 1138 1472 1138 1809 
L 1138 2525 
Q 763 2406 269 2253 
L 175 2753 
z
M 5044 634 
L 5444 872 
Q 5850 272 6250 -397 
L 5806 -659 
Q 5475 -41 5044 634 
z
M 900 728 
L 1338 541 
Q 1056 -103 650 -791 
Q 463 -684 219 -572 
Q 650 103 900 728 
z
M 1919 478 
L 2331 659 
Q 2619 134 2925 -503 
L 2463 -703 
Q 2194 -59 1919 478 
z
M 3506 509 
L 3919 691 
Q 4238 134 4519 -453 
L 4063 -647 
Q 3825 -59 3506 509 
z
" transform="scale(0.015625)"/>
       <path id="MicrosoftYaHei-5bb9" d="M 3550 3147 
Q 3500 3091 3444 3022 
Q 4644 1872 6313 1447 
Q 6106 1134 6006 916 
Q 5594 1066 5225 1247 
L 5225 -859 
L 4725 -859 
L 4725 -578 
L 1669 -578 
L 1669 -859 
L 1169 -859 
L 1169 1191 
Q 763 972 338 797 
Q 225 1028 63 1241 
Q 2000 2059 3025 3228 
L 3550 3147 
z
M 363 4572 
L 3038 4572 
Q 2900 4822 2725 5109 
L 3206 5328 
Q 3438 4972 3644 4572 
L 6031 4572 
L 6031 3522 
L 5525 3522 
L 5525 4122 
L 863 4122 
L 863 3497 
L 363 3497 
L 363 4572 
z
M 4725 934 
L 1669 934 
L 1669 -128 
L 4725 -128 
L 4725 934 
z
M 3163 2684 
Q 2394 1928 1494 1384 
L 4950 1384 
Q 3869 1953 3163 2684 
z
M 2338 3847 
L 2638 3441 
Q 1488 2734 706 2359 
Q 594 2566 419 2791 
Q 1494 3259 2338 3847 
z
M 4006 3841 
Q 4944 3409 5938 2859 
L 5650 2416 
Q 4875 2891 3744 3453 
L 4006 3841 
z
" transform="scale(0.015625)"/>
       <path id="MicrosoftYaHei-20" transform="scale(0.015625)"/>
       <path id="MicrosoftYaHei-63" d="M 2934 156 
Q 2538 -81 1978 -81 
Q 1228 -81 772 400 
Q 316 881 316 1647 
Q 316 2497 808 3017 
Q 1300 3538 2125 3538 
Q 2600 3538 2938 3369 
L 2938 2763 
Q 2572 3031 2125 3031 
Q 1600 3031 1270 2667 
Q 941 2303 941 1697 
Q 941 1100 1252 762 
Q 1563 425 2091 425 
Q 2538 425 2934 719 
L 2934 156 
z
" transform="scale(0.015625)"/>
       <path id="MicrosoftYaHei-2f" d="M 2791 4841 
L 469 -803 
L -103 -803 
L 2219 4841 
L 2791 4841 
z
" transform="scale(0.015625)"/>
       <path id="MicrosoftYaHei-d7" d="M 3856 869 
L 3519 531 
L 2372 1678 
L 1231 531 
L 894 869 
L 2044 2009 
L 894 3156 
L 1231 3491 
L 2372 2344 
L 3522 3491 
L 3856 3153 
L 2709 2009 
L 3856 869 
z
" transform="scale(0.015625)"/>
       <path id="MicrosoftYaHei-b3" d="M 434 2575 
Q 775 2322 1172 2322 
Q 1441 2322 1591 2442 
Q 1741 2563 1741 2775 
Q 1741 3238 1022 3238 
L 725 3238 
L 725 3650 
L 1009 3650 
Q 1653 3650 1653 4091 
Q 1653 4481 1178 4481 
Q 853 4481 547 4250 
L 547 4731 
Q 838 4906 1275 4906 
Q 1656 4906 1890 4704 
Q 2125 4503 2125 4178 
Q 2125 3672 1634 3491 
L 1634 3478 
Q 2228 3338 2228 2797 
Q 2228 2400 1933 2150 
Q 1638 1900 1159 1900 
Q 703 1900 434 2078 
L 434 2575 
z
" transform="scale(0.015625)"/>
       <path id="MicrosoftYaHei-4a" d="M 1950 1756 
Q 1950 878 1578 398 
Q 1206 -81 566 -81 
Q 269 -81 75 6 
L 75 616 
Q 269 475 563 475 
Q 1325 475 1325 1756 
L 1325 4841 
L 1950 4841 
L 1950 1756 
z
" transform="scale(0.015625)"/>
       <path id="MicrosoftYaHei-28" d="M 1531 -1100 
Q 478 100 478 1847 
Q 478 3594 1531 4841 
L 2072 4841 
Q 1016 3544 1016 1853 
Q 1016 166 2066 -1100 
L 1531 -1100 
z
" transform="scale(0.015625)"/>
       <path id="MicrosoftYaHei-6b" d="M 3484 0 
L 2650 0 
L 1172 1666 
L 1159 1666 
L 1159 0 
L 547 0 
L 547 5116 
L 1159 5116 
L 1159 1872 
L 1172 1872 
L 2575 3456 
L 3363 3456 
L 1800 1794 
L 3484 0 
z
" transform="scale(0.015625)"/>
       <path id="MicrosoftYaHei-67" d="M 3547 291 
Q 3547 -1628 1684 -1628 
Q 1041 -1628 566 -1388 
L 566 -797 
Q 1144 -1119 1675 -1119 
Q 2934 -1119 2934 206 
L 2934 572 
L 2922 572 
Q 2528 -81 1747 -81 
Q 1097 -81 706 384 
Q 316 850 316 1619 
Q 316 2503 747 3020 
Q 1178 3538 1897 3538 
Q 2588 3538 2922 2988 
L 2934 2988 
L 2934 3456 
L 3547 3456 
L 3547 291 
z
M 2934 2056 
Q 2938 2456 2666 2743 
Q 2394 3031 1997 3031 
Q 1497 3031 1219 2664 
Q 941 2297 941 1656 
Q 941 1106 1209 765 
Q 1478 425 1922 425 
Q 2369 425 2653 750 
Q 2938 1075 2934 1575 
L 2934 2056 
z
" transform="scale(0.015625)"/>
       <path id="MicrosoftYaHei-b7" d="M 372 2113 
Q 372 2278 490 2395 
Q 609 2513 775 2513 
Q 941 2513 1061 2397 
Q 1181 2281 1181 2113 
Q 1181 1950 1064 1831 
Q 947 1713 772 1713 
Q 600 1713 486 1831 
Q 372 1950 372 2113 
z
" transform="scale(0.015625)"/>
       <path id="MicrosoftYaHei-2103" d="M 1119 3116 
Q 750 3116 487 3380 
Q 225 3644 225 4013 
Q 225 4391 489 4653 
Q 753 4916 1119 4916 
Q 1488 4916 1755 4653 
Q 2022 4391 2022 4013 
Q 2022 3641 1756 3378 
Q 1491 3116 1119 3116 
z
M 1125 4550 
Q 906 4550 750 4394 
Q 594 4238 594 4019 
Q 594 3800 750 3644 
Q 906 3488 1125 3488 
Q 1344 3488 1497 3644 
Q 1650 3800 1650 4019 
Q 1650 4238 1497 4394 
Q 1344 4550 1125 4550 
z
M 5997 172 
Q 5419 -78 4653 -78 
Q 3563 -78 2908 586 
Q 2253 1250 2253 2316 
Q 2253 3484 2975 4200 
Q 3697 4916 4831 4916 
Q 5463 4916 5997 4738 
L 5997 4122 
Q 5491 4366 4856 4366 
Q 3984 4366 3442 3825 
Q 2900 3284 2900 2369 
Q 2900 1488 3411 981 
Q 3922 475 4756 475 
Q 5463 475 5997 756 
L 5997 172 
z
" transform="scale(0.015625)"/>
       <path id="MicrosoftYaHei-29" d="M 78 -1100 
Q 1131 163 1131 1853 
Q 1131 3547 72 4841 
L 616 4841 
Q 1672 3603 1672 1847 
Q 1672 91 616 -1100 
L 78 -1100 
z
" transform="scale(0.015625)"/>
      </defs>
      <use xlink:href="#MicrosoftYaHei-6bd4"/>
      <use xlink:href="#MicrosoftYaHei-70ed" transform="translate(100 0)"/>
      <use xlink:href="#MicrosoftYaHei-5bb9" transform="translate(200 0)"/>
      <use xlink:href="#MicrosoftYaHei-20" transform="translate(300 0)"/>
      <use xlink:href="#MicrosoftYaHei-63" transform="translate(329.589844 0)"/>
      <use xlink:href="#MicrosoftYaHei-20" transform="translate(379.736328 0)"/>
      <use xlink:href="#MicrosoftYaHei-2f" transform="translate(409.326172 0)"/>
      <use xlink:href="#MicrosoftYaHei-20" transform="translate(452.050781 0)"/>
      <use xlink:href="#MicrosoftYaHei-d7" transform="translate(481.640625 0)"/>
      <use xlink:href="#MicrosoftYaHei-31" transform="translate(555.810547 0)"/>
      <use xlink:href="#MicrosoftYaHei-30" transform="translate(614.453125 0)"/>
      <use xlink:href="#MicrosoftYaHei-b3" transform="translate(673.095703 0)"/>
      <use xlink:href="#MicrosoftYaHei-20" transform="translate(713.134766 0)"/>
      <use xlink:href="#MicrosoftYaHei-4a" transform="translate(742.724609 0)"/>
      <use xlink:href="#MicrosoftYaHei-2f" transform="translate(782.324219 0)"/>
      <use xlink:href="#MicrosoftYaHei-28" transform="translate(825.048828 0)"/>
      <use xlink:href="#MicrosoftYaHei-6b" transform="translate(858.447266 0)"/>
      <use xlink:href="#MicrosoftYaHei-67" transform="translate(910.765625 0)"/>
      <use xlink:href="#MicrosoftYaHei-b7" transform="translate(974.730469 0)"/>
      <use xlink:href="#MicrosoftYaHei-2103" transform="translate(998.802734 0)"/>
      <use xlink:href="#MicrosoftYaHei-29" transform="translate(1098.802734 0)"/>
     </g>
    </g>
   </g>
   <g id="matplotlib.axis_2">
    <g id="ytick_1">
     <g id="line2d_7">
      <defs>
       <path id="mb7e0f8c4aa" d="M 0 0 
L -3.5 0 
" style="stroke: #000000; stroke-width: 0.8"/>
      </defs>
      <g>
       <use xlink:href="#mb7e0f8c4aa" x="34.2" y="44.106262" style="stroke: #000000; stroke-width: 0.8"/>
      </g>
     </g>
     <g id="text_8">
      <!-- 水 -->
      <g transform="translate(17.2 48.103137) scale(0.1 -0.1)">
       <defs>
        <path id="MicrosoftYaHei-6c34" d="M 2925 5297 
L 3431 5297 
L 3431 4294 
Q 3700 3563 4047 2934 
Q 4738 3509 5425 4309 
L 5844 3934 
Q 5113 3169 4300 2506 
Q 5125 1200 6319 384 
Q 6056 122 5894 -84 
Q 4250 1209 3431 3119 
L 3431 197 
Q 3431 -734 2538 -734 
Q 2263 -734 1725 -728 
Q 1694 -497 1625 -166 
Q 2125 -216 2438 -216 
Q 2925 -216 2925 253 
L 2925 5297 
z
M 256 3297 
L 256 3772 
L 2413 3772 
L 2413 3316 
Q 1881 1266 475 -197 
Q 263 47 94 184 
Q 1506 1672 1913 3297 
L 256 3297 
z
" transform="scale(0.015625)"/>
       </defs>
       <use xlink:href="#MicrosoftYaHei-6c34"/>
      </g>
     </g>
    </g>
    <g id="ytick_2">
     <g id="line2d_8">
      <g>
       <use xlink:href="#mb7e0f8c4aa" x="34.2" y="69.061973" style="stroke: #000000; stroke-width: 0.8"/>
      </g>
     </g>
     <g id="text_9">
      <!-- 冰 -->
      <g transform="translate(17.2 73.058848) scale(0.1 -0.1)">
       <defs>
        <path id="MicrosoftYaHei-51b0" d="M 3644 5284 
L 4131 5284 
L 4131 4434 
Q 4281 3594 4538 2900 
Q 5125 3413 5750 4072 
L 6144 3709 
Q 5431 3041 4719 2450 
Q 5313 1128 6338 416 
Q 6125 222 5913 -28 
Q 4706 872 4131 2916 
L 4131 66 
Q 4131 -722 3394 -728 
Q 3031 -728 2588 -722 
Q 2563 -491 2488 -191 
Q 2888 -241 3300 -241 
Q 3644 -241 3644 159 
L 3644 5284 
z
M 1863 3234 
L 1863 3672 
L 3350 3672 
L 3350 3241 
Q 3106 1091 1619 -216 
Q 1544 -141 1225 153 
Q 2650 1359 2869 3234 
L 1863 3234 
z
M 1150 2441 
Q 1381 2278 1644 2153 
Q 1156 791 713 -603 
L 206 -328 
Q 700 809 1150 2441 
z
M 675 5041 
Q 1144 4409 1631 3659 
L 1169 3347 
Q 731 4103 263 4753 
L 675 5041 
z
" transform="scale(0.015625)"/>
       </defs>
       <use xlink:href="#MicrosoftYaHei-51b0"/>
      </g>
     </g>
    </g>
    <g id="ytick_3">
     <g id="line2d_9">
      <g>
       <use xlink:href="#mb7e0f8c4aa" x="34.2" y="94.017684" style="stroke: #000000; stroke-width: 0.8"/>
      </g>
     </g>
     <g id="text_10">
      <!-- 酒精 -->
      <g transform="translate(7.2 98.014559) scale(0.1 -0.1)">
       <defs>
        <path id="MicrosoftYaHei-9152" d="M 1944 3747 
L 3138 3747 
L 3138 4572 
L 1800 4572 
L 1800 5003 
L 6269 5003 
L 6269 4572 
L 4763 4572 
L 4763 3747 
L 5988 3747 
L 5988 -853 
L 5538 -853 
L 5538 -497 
L 2394 -497 
L 2394 -853 
L 1944 -853 
L 1944 3747 
z
M 4313 2434 
L 4313 3322 
L 3588 3322 
L 3588 3203 
Q 3588 2047 2681 1397 
Q 2578 1541 2394 1728 
L 2394 1153 
L 5538 1153 
L 5538 1716 
L 5000 1716 
Q 4313 1716 4313 2434 
z
M 2394 -66 
L 5538 -66 
L 5538 728 
L 2394 728 
L 2394 -66 
z
M 1025 1772 
Q 1275 1622 1525 1522 
Q 1138 278 819 -766 
L 288 -516 
Q 731 584 1025 1772 
z
M 5100 2178 
Q 5247 2172 5538 2175 
L 5538 3322 
L 4763 3322 
L 4763 2497 
Q 4763 2178 5100 2178 
z
M 2394 1778 
Q 3138 2284 3138 3222 
L 3138 3322 
L 2394 3322 
L 2394 1778 
z
M 700 5197 
Q 1188 4816 1781 4316 
L 1406 3916 
Q 850 4453 375 4853 
L 700 5197 
z
M 400 3591 
Q 1038 3128 1481 2747 
L 1119 2334 
Q 594 2816 88 3228 
L 400 3591 
z
M 3588 3747 
L 4313 3747 
L 4313 4572 
L 3588 4572 
L 3588 3747 
z
" transform="scale(0.015625)"/>
        <path id="MicrosoftYaHei-7cbe" d="M 3225 -822 
L 2775 -822 
L 2775 2347 
L 5919 2347 
L 5919 -91 
Q 5919 -772 5219 -772 
L 4200 -772 
Q 4169 -572 4106 -291 
Q 4688 -328 5063 -328 
Q 5469 -328 5469 9 
L 5469 297 
L 3225 297 
L 3225 -822 
z
M 2488 3122 
L 4106 3122 
L 4106 3553 
L 2750 3553 
L 2750 3947 
L 4106 3947 
L 4106 4366 
L 2588 4366 
L 2588 4759 
L 4106 4759 
L 4106 5322 
L 4556 5322 
L 4556 4759 
L 6200 4759 
L 6200 4366 
L 4556 4366 
L 4556 3947 
L 6013 3947 
L 6013 3553 
L 4556 3553 
L 4556 3122 
L 6288 3122 
L 6288 2728 
L 2488 2728 
L 2488 3122 
z
M 56 578 
Q 663 1497 1044 2628 
L 138 2628 
L 138 3028 
L 1094 3028 
L 1094 5303 
L 1506 5303 
L 1506 3028 
L 2313 3028 
L 2313 2628 
L 1506 2628 
L 1506 1853 
L 1738 2041 
Q 2263 1534 2581 1166 
L 2256 866 
Q 1863 1347 1506 1722 
L 1506 -847 
L 1094 -847 
L 1094 1784 
Q 731 841 250 72 
Q 150 353 56 578 
z
M 5469 1947 
L 3225 1947 
L 3225 1509 
L 5469 1509 
L 5469 1947 
z
M 3225 684 
L 5469 684 
L 5469 1122 
L 3225 1122 
L 3225 684 
z
M 1625 3559 
Q 1900 4166 2081 4834 
L 2481 4691 
Q 2250 3997 1994 3397 
L 1625 3559 
z
M 150 4709 
L 519 4841 
Q 744 4209 944 3572 
L 550 3409 
Q 338 4172 150 4709 
z
" transform="scale(0.015625)"/>
       </defs>
       <use xlink:href="#MicrosoftYaHei-9152"/>
       <use xlink:href="#MicrosoftYaHei-7cbe" transform="translate(100 0)"/>
      </g>
     </g>
    </g>
    <g id="ytick_4">
     <g id="line2d_10">
      <g>
       <use xlink:href="#mb7e0f8c4aa" x="34.2" y="118.973395" style="stroke: #000000; stroke-width: 0.8"/>
      </g>
     </g>
     <g id="text_11">
      <!-- 煤油 -->
      <g transform="translate(7.2 122.97027) scale(0.1 -0.1)">
       <defs>
        <path id="MicrosoftYaHei-7164" d="M 6356 -103 
Q 6113 -403 6013 -541 
Q 5013 16 4413 941 
L 4413 -853 
L 3963 -853 
L 3963 916 
Q 3231 -59 2200 -672 
Q 2050 -497 1850 -291 
Q 2981 278 3650 1091 
L 2144 1091 
L 2144 1503 
L 3963 1503 
L 3963 2153 
L 3213 2153 
L 3213 1953 
L 2763 1953 
L 2763 4134 
L 2125 4134 
L 2125 4547 
L 2763 4547 
L 2763 5266 
L 3213 5266 
L 3213 4547 
L 5169 4547 
L 5169 5253 
L 5619 5253 
L 5619 4547 
L 6263 4547 
L 6263 4134 
L 5619 4134 
L 5619 1953 
L 5169 1953 
L 5169 2153 
L 4413 2153 
L 4413 1503 
L 6306 1503 
L 6306 1091 
L 4681 1091 
Q 5331 303 6356 -103 
z
M 969 5253 
L 1425 5253 
Q 1425 3253 1363 1934 
Q 1931 1103 2338 441 
L 1956 178 
Q 1669 703 1288 1316 
Q 1069 16 419 -853 
Q 288 -659 100 -447 
Q 856 603 931 2322 
Q 975 3291 969 5253 
z
M 3213 2553 
L 5169 2553 
L 5169 3147 
L 3213 3147 
L 3213 2553 
z
M 3213 3547 
L 5169 3547 
L 5169 4134 
L 3213 4134 
L 3213 3547 
z
M 56 3997 
L 450 4103 
Q 663 3353 788 2753 
L 356 2634 
Q 238 3397 56 3997 
z
M 2356 3972 
Q 2150 3259 1950 2703 
L 1544 2859 
Q 1800 3491 1944 4103 
L 2356 3972 
z
" transform="scale(0.015625)"/>
        <path id="MicrosoftYaHei-6cb9" d="M 2025 4216 
L 3825 4216 
L 3825 5303 
L 4313 5303 
L 4313 4216 
L 6119 4216 
L 6119 -791 
L 5631 -791 
L 5631 -409 
L 2513 -409 
L 2513 -803 
L 2025 -803 
L 2025 4216 
z
M 4313 41 
L 5631 41 
L 5631 1759 
L 4313 1759 
L 4313 41 
z
M 2513 41 
L 3825 41 
L 3825 1759 
L 2513 1759 
L 2513 41 
z
M 5631 3766 
L 4313 3766 
L 4313 2197 
L 5631 2197 
L 5631 3766 
z
M 2513 2197 
L 3825 2197 
L 3825 3766 
L 2513 3766 
L 2513 2197 
z
M 981 1728 
Q 1275 1572 1475 1491 
Q 1106 291 769 -797 
L 244 -559 
Q 675 547 981 1728 
z
M 388 3559 
Q 1025 3097 1469 2716 
Q 1238 2434 1106 2291 
Q 581 2772 75 3184 
L 388 3559 
z
M 688 5178 
Q 1294 4716 1769 4297 
Q 1550 4059 1394 3897 
Q 938 4353 363 4834 
L 688 5178 
z
" transform="scale(0.015625)"/>
       </defs>
       <use xlink:href="#MicrosoftYaHei-7164"/>
       <use xlink:href="#MicrosoftYaHei-6cb9" transform="translate(100 0)"/>
      </g>
     </g>
    </g>
    <g id="ytick_5">
     <g id="line2d_11">
      <g>
       <use xlink:href="#mb7e0f8c4aa" x="34.2" y="143.929105" style="stroke: #000000; stroke-width: 0.8"/>
      </g>
     </g>
     <g id="text_12">
      <!-- 沙石 -->
      <g transform="translate(7.2 147.92598) scale(0.1 -0.1)">
       <defs>
        <path id="MicrosoftYaHei-6c99" d="M 694 5259 
Q 1306 4841 1881 4384 
Q 1675 4147 1538 3966 
Q 1000 4434 388 4903 
L 694 5259 
z
M 350 3622 
Q 969 3216 1563 2778 
Q 1381 2553 1231 2353 
Q 675 2816 56 3234 
L 350 3622 
z
M 1106 1791 
Q 1363 1653 1613 1541 
Q 1325 716 844 -753 
L 300 -491 
Q 738 484 1106 1791 
z
M 3694 5341 
L 4206 5341 
L 4206 1172 
L 3694 1172 
L 3694 5341 
z
M 1488 -378 
Q 4188 272 5500 2278 
L 5956 1947 
Q 4431 -184 1763 -866 
Q 1644 -622 1488 -378 
z
M 1706 2134 
Q 2319 3128 2775 4253 
L 3275 4041 
Q 2650 2703 2150 1866 
Q 1944 2003 1706 2134 
z
M 4688 4009 
L 5075 4284 
Q 5781 3478 6331 2709 
L 5888 2378 
Q 5319 3241 4688 4009 
z
" transform="scale(0.015625)"/>
        <path id="MicrosoftYaHei-77f3" d="M 313 4841 
L 6175 4841 
L 6175 4378 
L 2881 4378 
Q 2525 3550 2022 2803 
L 5638 2803 
L 5638 -772 
L 5150 -772 
L 5150 -222 
L 1963 -222 
L 1963 -797 
L 1475 -797 
L 1475 2059 
Q 975 1444 369 891 
Q 244 1147 88 1366 
Q 1544 2622 2331 4378 
L 313 4378 
L 313 4841 
z
M 5150 2341 
L 1963 2341 
L 1963 241 
L 5150 241 
L 5150 2341 
z
" transform="scale(0.015625)"/>
       </defs>
       <use xlink:href="#MicrosoftYaHei-6c99"/>
       <use xlink:href="#MicrosoftYaHei-77f3" transform="translate(100 0)"/>
      </g>
     </g>
    </g>
    <g id="ytick_6">
     <g id="line2d_12">
      <g>
       <use xlink:href="#mb7e0f8c4aa" x="34.2" y="168.884816" style="stroke: #000000; stroke-width: 0.8"/>
      </g>
     </g>
     <g id="text_13">
      <!-- 铝 -->
      <g transform="translate(17.2 172.881691) scale(0.1 -0.1)">
       <defs>
        <path id="MicrosoftYaHei-94dd" d="M 2650 1984 
L 6013 1984 
L 6013 -828 
L 5550 -828 
L 5550 -416 
L 3113 -416 
L 3113 -828 
L 2650 -828 
L 2650 1984 
z
M 2863 4947 
L 5800 4947 
L 5800 2447 
L 5338 2447 
L 5338 2784 
L 3325 2784 
L 3325 2447 
L 2863 2447 
L 2863 4947 
z
M 5550 1547 
L 3113 1547 
L 3113 22 
L 5550 22 
L 5550 1547 
z
M 2331 484 
Q 2331 197 2363 -34 
Q 1819 -316 1363 -591 
Q 1250 -653 1100 -809 
L 781 -372 
Q 975 -178 975 103 
L 975 1541 
L 144 1541 
L 144 1972 
L 975 1972 
L 975 2841 
L 588 2841 
L 588 3272 
L 2169 3272 
L 2169 2841 
L 1438 2841 
L 1438 1972 
L 2356 1972 
L 2356 1541 
L 1438 1541 
L 1438 -9 
Q 1556 53 2331 484 
z
M 5338 4516 
L 3325 4516 
L 3325 3216 
L 5338 3216 
L 5338 4516 
z
M 88 3391 
Q 694 4234 1056 5322 
L 1525 5166 
Q 1356 4747 1169 4359 
L 2319 4359 
L 2319 3928 
L 944 3928 
Q 669 3422 350 2966 
Q 231 3191 88 3391 
z
" transform="scale(0.015625)"/>
       </defs>
       <use xlink:href="#MicrosoftYaHei-94dd"/>
      </g>
     </g>
    </g>
    <g id="ytick_7">
     <g id="line2d_13">
      <g>
       <use xlink:href="#mb7e0f8c4aa" x="34.2" y="193.840527" style="stroke: #000000; stroke-width: 0.8"/>
      </g>
     </g>
     <g id="text_14">
      <!-- 铁 -->
      <g transform="translate(17.2 197.837402) scale(0.1 -0.1)">
       <defs>
        <path id="MicrosoftYaHei-94c1" d="M 2506 2316 
L 4128 2316 
Q 4156 2700 4172 3578 
L 3188 3578 
Q 3038 3072 2881 2653 
Q 2581 2766 2394 2822 
Q 2806 3753 3006 4884 
L 3500 4784 
Q 3406 4384 3309 4022 
L 4178 4022 
Q 4184 4581 4188 5297 
L 4675 5297 
Q 4675 4581 4669 4022 
L 6081 4022 
L 6081 3578 
L 4666 3578 
Q 4653 2706 4628 2316 
L 6294 2316 
L 6294 1872 
L 4769 1872 
Q 5131 366 6331 -291 
Q 6325 -297 6306 -322 
Q 6063 -597 5969 -753 
Q 4847 -25 4447 1406 
Q 4103 9 2638 -853 
Q 2519 -672 2281 -409 
Q 3784 375 4066 1872 
L 2506 1872 
L 2506 2316 
z
M 2400 722 
Q 2400 447 2431 203 
Q 1775 -147 1431 -397 
Q 1313 -478 1150 -628 
L 838 -228 
Q 1038 -34 1038 266 
L 1038 1466 
L 219 1466 
L 219 1897 
L 1038 1897 
L 1038 2741 
L 563 2741 
L 563 3150 
Q 500 3047 438 2947 
Q 306 3166 150 3359 
Q 706 4216 1025 5334 
L 1500 5203 
Q 1359 4791 1197 4409 
L 2363 4409 
L 2363 3978 
L 1003 3978 
Q 803 3556 575 3172 
L 2225 3172 
L 2225 2741 
L 1525 2741 
L 1525 1897 
L 2356 1897 
L 2356 1466 
L 1525 1466 
L 1525 172 
Q 1888 384 2400 722 
z
" transform="scale(0.015625)"/>
       </defs>
       <use xlink:href="#MicrosoftYaHei-94c1"/>
      </g>
     </g>
    </g>
    <g id="ytick_8">
     <g id="line2d_14">
      <g>
       <use xlink:href="#mb7e0f8c4aa" x="34.2" y="218.796238" style="stroke: #000000; stroke-width: 0.8"/>
      </g>
     </g>
     <g id="text_15">
      <!-- 铜 -->
      <g transform="translate(17.2 222.793113) scale(0.1 -0.1)">
       <defs>
        <path id="MicrosoftYaHei-94dc" d="M 2894 -834 
L 2431 -834 
L 2431 4966 
L 6100 4966 
L 6100 -28 
Q 6100 -784 5425 -784 
Q 4994 -784 4319 -766 
Q 4281 -528 4225 -266 
Q 4844 -303 5256 -303 
Q 5638 -303 5638 84 
L 5638 4528 
L 2894 4528 
L 2894 -834 
z
M 2144 491 
Q 2144 216 2175 -28 
Q 1788 -216 1344 -497 
Q 1231 -559 1081 -709 
L 750 -278 
Q 950 -91 950 191 
L 950 1597 
L 238 1597 
L 238 2034 
L 950 2034 
L 950 2822 
L 556 2822 
L 556 3178 
Q 469 3041 388 2909 
Q 219 3203 88 3366 
Q 681 4266 975 5297 
L 1450 5166 
Q 1313 4753 1156 4384 
L 2200 4384 
L 2200 3947 
L 963 3947 
Q 794 3584 600 3259 
L 2063 3259 
L 2063 2822 
L 1406 2822 
L 1406 2034 
L 2238 2034 
L 2238 1597 
L 1406 1597 
L 1406 66 
Q 1713 247 2144 491 
z
M 3413 2678 
L 5113 2678 
L 5113 591 
L 3838 591 
L 3838 328 
L 3413 328 
L 3413 2678 
z
M 4688 2259 
L 3838 2259 
L 3838 1009 
L 4688 1009 
L 4688 2259 
z
M 3156 3797 
L 5413 3797 
L 5413 3384 
L 3156 3384 
L 3156 3797 
z
" transform="scale(0.015625)"/>
       </defs>
       <use xlink:href="#MicrosoftYaHei-94dc"/>
      </g>
     </g>
    </g>
   </g>
   <g id="patch_11">
    <path d="M 34.2 238.51125 
L 34.2 24.39125 
" style="fill: none; stroke: #000000; stroke-width: 0.8; stroke-linejoin: miter; stroke-linecap: square"/>
   </g>
   <g id="patch_12">
    <path d="M 489.62 238.51125 
L 489.62 24.39125 
" style="fill: none; stroke: #000000; stroke-width: 0.8; stroke-linejoin: miter; stroke-linecap: square"/>
   </g>
   <g id="patch_13">
    <path d="M 34.2 238.51125 
L 489.62 238.51125 
" style="fill: none; stroke: #000000; stroke-width: 0.8; stroke-linejoin: miter; stroke-linecap: square"/>
   </g>
   <g id="patch_14">
    <path d="M 34.2 24.39125 
L 489.62 24.39125 
" style="fill: none; stroke: #000000; stroke-width: 0.8; stroke-linejoin: miter; stroke-linecap: square"/>
   </g>
   <g id="text_16">
    <!-- 4.2 -->
    <g transform="translate(386.115455 46.860168) scale(0.1 -0.1)">
     <defs>
      <path id="MicrosoftYaHei-Bold-34" d="M 3184 4841 
L 3184 1766 
L 3869 1766 
L 3869 1031 
L 3184 1031 
L 3184 0 
L 2266 0 
L 2266 1031 
L 103 1031 
L 103 1772 
Q 775 2522 1362 3359 
Q 1950 4197 2250 4841 
L 3184 4841 
z
M 997 1766 
L 2266 1766 
L 2266 3541 
Q 2116 3259 1836 2859 
Q 1556 2459 997 1766 
z
" transform="scale(0.015625)"/>
      <path id="MicrosoftYaHei-Bold-2e" d="M 313 453 
Q 313 688 491 838 
Q 669 988 916 988 
Q 1166 988 1337 834 
Q 1509 681 1509 453 
Q 1509 213 1337 64 
Q 1166 -84 903 -84 
Q 659 -84 486 69 
Q 313 222 313 453 
z
" transform="scale(0.015625)"/>
      <path id="MicrosoftYaHei-Bold-32" d="M 1500 841 
L 3553 841 
L 3553 0 
L 334 0 
L 334 359 
Q 334 738 473 1050 
Q 613 1363 856 1633 
Q 1100 1903 1613 2266 
Q 2081 2616 2268 2886 
Q 2456 3156 2456 3459 
Q 2456 4113 1744 4113 
Q 1119 4113 550 3613 
L 550 4513 
Q 1184 4922 1975 4922 
Q 2700 4922 3122 4551 
Q 3544 4181 3544 3531 
Q 3544 3169 3422 2876 
Q 3300 2584 3069 2328 
Q 2838 2072 2328 1713 
Q 1838 1363 1669 1172 
Q 1500 981 1500 841 
z
" transform="scale(0.015625)"/>
     </defs>
     <use xlink:href="#MicrosoftYaHei-Bold-34"/>
     <use xlink:href="#MicrosoftYaHei-Bold-2e" transform="translate(61.669922 0)"/>
     <use xlink:href="#MicrosoftYaHei-Bold-32" transform="translate(90.234375 0)"/>
    </g>
   </g>
   <g id="text_17">
    <!-- 2.1 -->
    <g transform="translate(212.227818 71.815879) scale(0.1 -0.1)">
     <defs>
      <path id="MicrosoftYaHei-Bold-31" d="M 2716 4947 
L 2716 0 
L 1700 0 
L 1700 3809 
Q 1513 3647 1188 3517 
Q 863 3388 591 3356 
L 591 4222 
Q 1447 4472 2072 4947 
L 2716 4947 
z
" transform="scale(0.015625)"/>
     </defs>
     <use xlink:href="#MicrosoftYaHei-Bold-32"/>
     <use xlink:href="#MicrosoftYaHei-Bold-2e" transform="translate(61.669922 0)"/>
     <use xlink:href="#MicrosoftYaHei-Bold-31" transform="translate(90.234375 0)"/>
    </g>
   </g>
   <g id="text_18">
    <!-- 2.4 -->
    <g transform="translate(237.068909 96.77159) scale(0.1 -0.1)">
     <use xlink:href="#MicrosoftYaHei-Bold-32"/>
     <use xlink:href="#MicrosoftYaHei-Bold-2e" transform="translate(61.669922 0)"/>
     <use xlink:href="#MicrosoftYaHei-Bold-34" transform="translate(90.234375 0)"/>
    </g>
   </g>
   <g id="text_19">
    <!-- 2.1 -->
    <g transform="translate(212.227818 121.727301) scale(0.1 -0.1)">
     <use xlink:href="#MicrosoftYaHei-Bold-32"/>
     <use xlink:href="#MicrosoftYaHei-Bold-2e" transform="translate(61.669922 0)"/>
     <use xlink:href="#MicrosoftYaHei-Bold-31" transform="translate(90.234375 0)"/>
    </g>
   </g>
   <g id="text_20">
    <!-- 0.92 -->
    <g transform="translate(114.519527 146.683012) scale(0.1 -0.1)">
     <defs>
      <path id="MicrosoftYaHei-Bold-30" d="M 244 2341 
Q 244 3597 706 4259 
Q 1169 4922 2044 4922 
Q 3713 4922 3713 2453 
Q 3713 1238 3259 577 
Q 2806 -84 1950 -84 
Q 244 -84 244 2341 
z
M 1266 2366 
Q 1266 691 1981 691 
Q 2684 691 2684 2416 
Q 2684 4147 2000 4147 
Q 1266 4147 1266 2366 
z
" transform="scale(0.015625)"/>
      <path id="MicrosoftYaHei-Bold-39" d="M 544 941 
Q 931 691 1456 691 
Q 2628 691 2653 2216 
L 2634 2222 
Q 2316 1731 1650 1731 
Q 1047 1731 658 2154 
Q 269 2578 269 3222 
Q 269 3978 737 4450 
Q 1206 4922 1959 4922 
Q 2744 4922 3191 4325 
Q 3638 3728 3638 2659 
Q 3638 1391 3098 653 
Q 2559 -84 1547 -84 
Q 975 -84 544 100 
L 544 941 
z
M 1259 3313 
Q 1259 2928 1445 2709 
Q 1631 2491 1953 2491 
Q 2241 2491 2427 2700 
Q 2613 2909 2613 3219 
Q 2613 3591 2427 3869 
Q 2241 4147 1928 4147 
Q 1625 4147 1442 3906 
Q 1259 3666 1259 3313 
z
" transform="scale(0.015625)"/>
     </defs>
     <use xlink:href="#MicrosoftYaHei-Bold-30"/>
     <use xlink:href="#MicrosoftYaHei-Bold-2e" transform="translate(61.669922 0)"/>
     <use xlink:href="#MicrosoftYaHei-Bold-39" transform="translate(90.234375 0)"/>
     <use xlink:href="#MicrosoftYaHei-Bold-32" transform="translate(151.904297 0)"/>
    </g>
   </g>
   <g id="text_21">
    <!-- 0.88 -->
    <g transform="translate(111.207382 171.638723) scale(0.1 -0.1)">
     <defs>
      <path id="MicrosoftYaHei-Bold-38" d="M 269 1303 
Q 269 1725 512 2053 
Q 756 2381 1219 2534 
Q 850 2719 648 3003 
Q 447 3288 447 3634 
Q 447 3997 645 4292 
Q 844 4588 1200 4755 
Q 1556 4922 1997 4922 
Q 2441 4922 2800 4758 
Q 3159 4594 3359 4298 
Q 3559 4003 3559 3647 
Q 3559 3309 3339 3018 
Q 3119 2728 2747 2559 
Q 3200 2403 3453 2076 
Q 3706 1750 3706 1313 
Q 3706 697 3228 309 
Q 2750 -78 1988 -78 
Q 1225 -78 747 309 
Q 269 697 269 1303 
z
M 1278 1394 
Q 1278 1056 1472 853 
Q 1666 650 1991 650 
Q 2303 650 2503 853 
Q 2703 1056 2703 1394 
Q 2703 1709 2500 1920 
Q 2297 2131 1991 2131 
Q 1675 2131 1476 1920 
Q 1278 1709 1278 1394 
z
M 1428 3531 
Q 1428 3266 1592 3077 
Q 1756 2888 2006 2888 
Q 2247 2888 2415 3072 
Q 2584 3256 2584 3531 
Q 2584 3806 2420 3997 
Q 2256 4188 2006 4188 
Q 1750 4188 1589 3997 
Q 1428 3806 1428 3531 
z
" transform="scale(0.015625)"/>
     </defs>
     <use xlink:href="#MicrosoftYaHei-Bold-30"/>
     <use xlink:href="#MicrosoftYaHei-Bold-2e" transform="translate(61.669922 0)"/>
     <use xlink:href="#MicrosoftYaHei-Bold-38" transform="translate(90.234375 0)"/>
     <use xlink:href="#MicrosoftYaHei-Bold-38" transform="translate(151.904297 0)"/>
    </g>
   </g>
   <g id="text_22">
    <!-- 0.46 -->
    <g transform="translate(76.429855 196.594434) scale(0.1 -0.1)">
     <defs>
      <path id="MicrosoftYaHei-Bold-36" d="M 3378 3938 
Q 3009 4147 2575 4147 
Q 2016 4147 1680 3708 
Q 1344 3269 1344 2572 
L 1363 2572 
Q 1709 3103 2391 3103 
Q 3000 3103 3358 2686 
Q 3716 2269 3716 1600 
Q 3716 869 3250 392 
Q 2784 -84 2059 -84 
Q 1228 -84 786 516 
Q 344 1116 344 2159 
Q 344 3388 917 4155 
Q 1491 4922 2513 4922 
Q 3063 4922 3378 4791 
L 3378 3938 
z
M 1378 1591 
Q 1378 1216 1565 953 
Q 1753 691 2059 691 
Q 2369 691 2547 931 
Q 2725 1172 2725 1534 
Q 2725 2350 2053 2350 
Q 1750 2350 1564 2134 
Q 1378 1919 1378 1591 
z
" transform="scale(0.015625)"/>
     </defs>
     <use xlink:href="#MicrosoftYaHei-Bold-30"/>
     <use xlink:href="#MicrosoftYaHei-Bold-2e" transform="translate(61.669922 0)"/>
     <use xlink:href="#MicrosoftYaHei-Bold-34" transform="translate(90.234375 0)"/>
     <use xlink:href="#MicrosoftYaHei-Bold-36" transform="translate(151.904297 0)"/>
    </g>
   </g>
   <g id="text_23">
    <!-- 0.39 -->
    <g transform="translate(70.6336 221.550145) scale(0.1 -0.1)">
     <defs>
      <path id="MicrosoftYaHei-Bold-33" d="M 494 1053 
Q 978 691 1625 691 
Q 2034 691 2275 872 
Q 2516 1053 2516 1388 
Q 2516 1731 2230 1912 
Q 1944 2094 1428 2094 
L 997 2094 
L 997 2872 
L 1394 2872 
Q 2369 2872 2369 3528 
Q 2369 4147 1622 4147 
Q 1134 4147 675 3828 
L 675 4663 
Q 1175 4922 1853 4922 
Q 2541 4922 2969 4605 
Q 3397 4288 3397 3725 
Q 3397 2775 2434 2531 
L 2434 2516 
Q 2941 2459 3244 2145 
Q 3547 1831 3547 1381 
Q 3547 691 3042 303 
Q 2538 -84 1697 -84 
Q 950 -84 494 163 
L 494 1053 
z
" transform="scale(0.015625)"/>
     </defs>
     <use xlink:href="#MicrosoftYaHei-Bold-30"/>
     <use xlink:href="#MicrosoftYaHei-Bold-2e" transform="translate(61.669922 0)"/>
     <use xlink:href="#MicrosoftYaHei-Bold-33" transform="translate(90.234375 0)"/>
     <use xlink:href="#MicrosoftYaHei-Bold-39" transform="translate(151.904297 0)"/>
    </g>
   </g>
   <g id="text_24">
    <g id="patch_15">
     <path d="M 324.012727 61.518648 
L 417.211946 61.518648 
Q 419.411946 61.518648 419.411946 59.318648 
L 419.411946 34.504711 
Q 419.411946 32.304711 417.211946 32.304711 
L 324.012727 32.304711 
Q 321.812727 32.304711 321.812727 34.504711 
L 321.812727 59.318648 
Q 321.812727 61.518648 324.012727 61.518648 
z
" style="fill: #e8f4fd; opacity: 0.7; stroke: #2980b9; stroke-linejoin: miter"/>
    </g>
    <!-- 水比热容最大 → -->
    <g style="fill: #2980b9" transform="translate(324.012727 43.297836) scale(0.11 -0.11)">
     <defs>
      <path id="MicrosoftYaHei-Bold-6c34" d="M 6175 3903 
Q 5469 3197 4559 2472 
Q 5272 1403 6306 716 
Q 6063 372 5781 -172 
Q 4497 756 3688 2522 
L 3688 278 
Q 3688 -156 3498 -406 
Q 3309 -656 2967 -714 
Q 2625 -772 1750 -772 
Q 1656 -247 1525 203 
Q 1975 153 2419 153 
Q 2819 153 2819 641 
L 2819 5297 
L 3688 5297 
L 3688 4250 
Q 3881 3697 4131 3206 
Q 4897 3888 5463 4522 
L 6175 3903 
z
M 2488 3978 
L 2488 3222 
Q 2044 1047 500 -278 
Q 269 259 63 603 
Q 1200 1572 1663 3153 
L 275 3153 
L 275 3978 
L 2488 3978 
z
" transform="scale(0.015625)"/>
      <path id="MicrosoftYaHei-Bold-6bd4" d="M 5481 4441 
L 6294 3803 
Q 5234 2791 4119 1894 
L 4119 547 
Q 4119 153 4438 153 
L 4875 153 
Q 5119 153 5197 325 
Q 5275 497 5363 1597 
Q 5856 1409 6294 1278 
Q 6231 688 6131 248 
Q 6031 -191 5900 -358 
Q 5769 -525 5511 -617 
Q 5253 -709 4881 -709 
L 4094 -709 
Q 3194 -709 3194 247 
L 3194 5316 
L 4119 5316 
L 4119 3009 
Q 4797 3656 5481 4441 
z
M 1419 5241 
L 1419 3453 
L 2850 3453 
L 2850 2591 
L 1419 2591 
L 1419 372 
L 2869 866 
Q 2856 372 2888 -78 
Q 1500 -503 725 -922 
L 275 -184 
Q 494 -16 494 366 
L 494 5241 
L 1419 5241 
z
" transform="scale(0.015625)"/>
      <path id="MicrosoftYaHei-Bold-70ed" d="M 5731 2897 
Q 6038 2753 6350 2634 
Q 6297 1594 6090 1283 
Q 5884 972 5538 972 
Q 5106 972 4848 1230 
Q 4591 1488 4591 2306 
L 4100 1603 
L 3550 2022 
Q 3209 1366 2631 878 
Q 2331 1222 2031 1534 
Q 2556 1941 2856 2519 
Q 2572 2719 2288 2903 
Q 2291 2744 2306 2578 
L 1694 2463 
L 1694 1666 
Q 1694 1331 1556 1147 
Q 1419 963 1186 930 
Q 953 897 350 878 
Q 269 1334 156 1653 
Q 331 1634 625 1634 
Q 875 1634 875 1859 
L 875 2306 
L 219 2172 
L 113 2972 
L 875 3081 
L 875 3791 
L 163 3791 
L 163 4541 
L 875 4541 
L 875 5328 
L 1694 5328 
L 1694 4541 
L 2306 4541 
L 2306 3791 
L 1694 3791 
L 1694 3213 
L 2300 3316 
Q 2284 3122 2288 2919 
L 2731 3522 
L 3103 3288 
Q 3144 3525 3163 3784 
L 2525 3784 
L 2525 4534 
L 3175 4534 
L 3175 5316 
L 3981 5316 
L 3981 4534 
L 5400 4534 
Q 5375 3672 5375 2991 
Q 5375 2134 5400 2003 
Q 5425 1872 5538 1872 
Q 5634 1872 5667 2003 
Q 5700 2134 5731 2897 
z
M 3831 2825 
L 4591 2338 
L 4588 3784 
L 3963 3784 
Q 3931 3288 3831 2825 
z
M 5613 922 
Q 5931 328 6275 -509 
L 5481 -841 
Q 5200 -122 4850 584 
L 5613 922 
z
M 806 841 
L 1575 516 
Q 1263 -166 850 -903 
L 113 -516 
Q 563 247 806 841 
z
M 4163 803 
Q 4456 116 4663 -416 
L 3844 -691 
Q 3681 -159 3394 566 
L 4163 803 
z
M 2688 716 
Q 2919 103 3113 -509 
L 2313 -741 
Q 2113 -66 1906 503 
L 2688 716 
z
" transform="scale(0.015625)"/>
      <path id="MicrosoftYaHei-Bold-5bb9" d="M 1125 -866 
L 1125 1034 
Q 825 897 500 766 
Q 344 1109 100 1503 
Q 1769 2003 2900 3122 
L 3706 3122 
L 3625 3009 
Q 4731 1941 6319 1547 
Q 6100 1159 5925 766 
Q 5588 884 5281 1022 
L 5281 -866 
L 4469 -866 
L 4469 -541 
L 1938 -541 
L 1938 -866 
L 1125 -866 
z
M 2550 5216 
L 3581 5341 
Q 3669 5122 3806 4766 
L 6050 4766 
L 6050 3397 
L 5144 3397 
L 5144 4047 
L 1256 4047 
L 1256 3397 
L 350 3397 
L 350 4766 
L 2738 4766 
Q 2631 5028 2550 5216 
z
M 4469 878 
L 1938 878 
L 1938 159 
L 4469 159 
L 4469 878 
z
M 2381 3972 
L 2869 3403 
Q 2013 2791 819 2216 
Q 669 2491 388 2928 
Q 1431 3347 2381 3972 
z
M 3994 3928 
Q 4981 3466 6025 2903 
L 5581 2197 
Q 4706 2778 3594 3372 
L 3994 3928 
z
M 3200 2441 
Q 2763 1984 2119 1578 
L 4244 1578 
Q 3638 1966 3200 2441 
z
" transform="scale(0.015625)"/>
      <path id="MicrosoftYaHei-Bold-6700" d="M 838 5109 
L 5563 5109 
L 5563 3134 
L 838 3134 
L 838 5109 
z
M 4700 4609 
L 1700 4609 
L 1700 4341 
L 4700 4341 
L 4700 4609 
z
M 4700 3634 
L 4700 3903 
L 1700 3903 
L 1700 3634 
L 4700 3634 
z
M 6038 1909 
L 6038 1328 
Q 5772 741 5366 294 
Q 5794 100 6313 -3 
Q 6156 -266 5938 -766 
Q 5284 -584 4747 -244 
Q 4256 -588 3631 -797 
Q 3534 -644 3363 -341 
Q 3259 -353 3163 -359 
L 3163 -866 
L 2400 -866 
L 2400 -428 
L 250 -641 
L 144 59 
L 613 84 
L 613 2241 
L 94 2241 
L 94 2853 
L 6306 2853 
L 6306 2241 
L 3163 2241 
L 3163 291 
L 3513 328 
Q 3488 169 3472 6 
Q 3819 109 4106 256 
Q 3741 609 3450 1066 
L 3813 1309 
L 3338 1309 
L 3338 1909 
L 6038 1909 
z
M 1375 1891 
L 2400 1891 
L 2400 2241 
L 1375 2241 
L 1375 1891 
z
M 1375 1066 
L 2400 1066 
L 2400 1416 
L 1375 1416 
L 1375 1066 
z
M 4722 672 
Q 5031 950 5238 1309 
L 4088 1309 
Q 4359 944 4722 672 
z
M 2400 219 
L 2400 591 
L 1375 591 
L 1375 138 
L 2400 219 
z
" transform="scale(0.015625)"/>
      <path id="MicrosoftYaHei-Bold-5927" d="M 213 3728 
L 2681 3728 
Q 2725 4409 2719 5303 
L 3669 5303 
Q 3650 4375 3619 3728 
L 6200 3728 
L 6200 2866 
L 3691 2866 
Q 4228 778 6288 59 
Q 5844 -447 5575 -803 
Q 3872 -3 3203 1775 
Q 2684 147 806 -847 
Q 556 -528 100 -47 
Q 2375 984 2591 2866 
L 213 2866 
L 213 3728 
z
" transform="scale(0.015625)"/>
      <path id="MicrosoftYaHei-Bold-20" transform="scale(0.015625)"/>
      <path id="MicrosoftYaHei-Bold-2192" d="M 4859 3766 
Q 5241 3344 5514 3125 
Q 5788 2906 6150 2713 
L 6150 2572 
Q 5788 2381 5517 2164 
Q 5247 1947 4859 1519 
L 4622 1519 
Q 4766 1822 4866 1983 
Q 4966 2144 5141 2369 
L 247 2369 
L 247 2916 
L 5141 2916 
Q 4972 3131 4869 3298 
Q 4766 3466 4622 3766 
L 4859 3766 
z
" transform="scale(0.015625)"/>
     </defs>
     <use xlink:href="#MicrosoftYaHei-Bold-6c34"/>
     <use xlink:href="#MicrosoftYaHei-Bold-6bd4" transform="translate(100 0)"/>
     <use xlink:href="#MicrosoftYaHei-Bold-70ed" transform="translate(200 0)"/>
     <use xlink:href="#MicrosoftYaHei-Bold-5bb9" transform="translate(300 0)"/>
     <use xlink:href="#MicrosoftYaHei-Bold-6700" transform="translate(400 0)"/>
     <use xlink:href="#MicrosoftYaHei-Bold-5927" transform="translate(500 0)"/>
     <use xlink:href="#MicrosoftYaHei-Bold-20" transform="translate(600 0)"/>
     <use xlink:href="#MicrosoftYaHei-Bold-2192" transform="translate(629.785156 0)"/>
    </g>
    <!-- 常用作冷却剂/取暖 -->
    <g style="fill: #2980b9" transform="translate(324.012727 56.584117) scale(0.11 -0.11)">
     <defs>
      <path id="MicrosoftYaHei-Bold-5e38" d="M 2788 5303 
L 3613 5303 
L 3613 4403 
L 4341 4403 
L 4150 4566 
Q 4556 4934 4925 5316 
L 5519 4891 
Q 5275 4659 4988 4403 
L 6144 4403 
L 6144 3022 
L 5381 3022 
L 5381 3741 
L 1031 3741 
L 1031 3022 
L 269 3022 
L 269 4403 
L 1391 4403 
Q 1159 4659 925 4891 
L 1456 5316 
Q 1831 4984 2200 4603 
L 1950 4403 
L 2788 4403 
L 2788 5303 
z
M 1431 -484 
L 606 -484 
L 606 1509 
L 2781 1509 
L 2781 1859 
L 1250 1859 
L 1250 3397 
L 5163 3397 
L 5163 1859 
L 3631 1859 
L 3631 1509 
L 5863 1509 
L 5863 284 
Q 5863 53 5789 -109 
Q 5716 -272 5569 -367 
Q 5422 -463 5253 -483 
Q 5084 -503 4338 -503 
Q 4269 -191 4144 203 
Q 4466 184 4759 184 
Q 5038 184 5038 516 
L 5038 847 
L 3631 847 
L 3631 -853 
L 2781 -853 
L 2781 847 
L 1431 847 
L 1431 -484 
z
M 2013 2434 
L 4400 2434 
L 4400 2822 
L 2013 2822 
L 2013 2434 
z
" transform="scale(0.015625)"/>
      <path id="MicrosoftYaHei-Bold-7528" d="M 5925 134 
Q 5925 -263 5744 -480 
Q 5563 -697 5189 -736 
Q 4816 -775 4206 -766 
Q 4100 -284 3956 141 
Q 4600 103 4656 103 
Q 5050 103 5050 484 
L 5050 1053 
L 3750 1053 
L 3750 -697 
L 2869 -697 
L 2869 1053 
L 1516 1053 
Q 1419 -325 988 -872 
Q 588 -584 181 -347 
Q 688 341 669 2097 
L 669 5041 
L 5925 5041 
L 5925 134 
z
M 1544 3441 
L 2869 3441 
L 2869 4216 
L 1544 4216 
L 1544 3441 
z
M 5050 4216 
L 3750 4216 
L 3750 3441 
L 5050 3441 
L 5050 4216 
z
M 1544 1859 
L 2869 1859 
L 2869 2634 
L 1544 2634 
L 1544 1859 
z
M 3750 1859 
L 5050 1859 
L 5050 2634 
L 3750 2634 
L 3750 1859 
z
" transform="scale(0.015625)"/>
      <path id="MicrosoftYaHei-Bold-4f5c" d="M 5944 1984 
L 4250 1984 
L 4250 1216 
L 6088 1216 
L 6088 428 
L 4250 428 
L 4250 -834 
L 3369 -834 
L 3369 3541 
L 3184 3541 
Q 2800 2681 2313 2041 
Q 2131 2384 1831 2853 
Q 2544 3922 2944 5328 
L 3756 5134 
Q 3638 4722 3506 4347 
L 6300 4347 
L 6300 3541 
L 4250 3541 
L 4250 2772 
L 5944 2772 
L 5944 1984 
z
M 1319 5291 
L 2156 5047 
Q 1956 4419 1706 3828 
L 1706 -828 
L 856 -828 
L 856 2163 
Q 600 1744 313 1347 
Q 244 1828 100 2509 
Q 856 3703 1319 5291 
z
" transform="scale(0.015625)"/>
      <path id="MicrosoftYaHei-Bold-51b7" d="M 5769 2316 
L 5769 1566 
Q 5038 809 4456 203 
Q 4981 -28 5319 -191 
L 4825 -934 
Q 3744 -397 2006 447 
L 2419 1178 
Q 3138 834 3694 566 
Q 4125 1009 4631 1541 
L 1831 1541 
L 1831 2316 
L 5769 2316 
z
M 4481 5316 
L 4375 5141 
Q 5119 3922 6375 3391 
Q 6113 2872 5944 2509 
Q 4669 3197 3888 4516 
Q 3219 3366 1844 2509 
Q 1588 2947 1319 3309 
Q 2769 4034 3450 5316 
L 4481 5316 
z
M 794 2359 
Q 1213 2191 1606 2028 
Q 1463 1472 913 -691 
Q 569 -522 88 -366 
Q 538 1197 794 2359 
z
M 663 5053 
Q 1088 4628 1663 4003 
L 1006 3447 
Q 456 4116 75 4534 
L 663 5053 
z
M 3750 3734 
Q 4119 3234 4400 2772 
L 3725 2378 
Q 3469 2834 3144 3359 
L 3750 3734 
z
" transform="scale(0.015625)"/>
      <path id="MicrosoftYaHei-Bold-5374" d="M 1338 5353 
L 2213 5353 
L 2213 4366 
L 3200 4366 
L 3200 3591 
L 2213 3591 
L 2213 2728 
L 3350 2728 
L 3350 1953 
L 1956 1953 
Q 1572 1131 1219 522 
L 2328 606 
L 1994 1472 
L 2719 1716 
Q 3072 925 3506 -222 
L 3506 4941 
L 6000 4941 
L 6000 934 
Q 6000 513 5798 298 
Q 5597 84 5226 75 
Q 4856 66 4531 78 
Q 4475 578 4406 916 
Q 4766 878 4944 878 
Q 5169 878 5169 1141 
L 5169 4141 
L 4338 4141 
L 4338 -841 
L 3506 -841 
L 3506 -338 
L 2775 -641 
L 2603 -141 
Q 709 -266 400 -397 
L 94 409 
Q 547 753 1050 1953 
L 100 1953 
L 100 2728 
L 1338 2728 
L 1338 3591 
L 250 3591 
L 250 4366 
L 1338 4366 
L 1338 5353 
z
" transform="scale(0.015625)"/>
      <path id="MicrosoftYaHei-Bold-5242" d="M 2319 1666 
L 3072 1666 
L 2084 2334 
Q 1384 1803 388 1516 
Q 225 1884 13 2284 
Q 819 2438 1406 2784 
L 406 3441 
L 838 3878 
L 225 3878 
L 225 4584 
L 1575 4584 
Q 1469 4884 1356 5166 
L 2275 5341 
Q 2391 4984 2503 4584 
L 3675 4584 
L 3675 3878 
L 3319 3878 
Q 3066 3316 2666 2869 
L 3738 2209 
L 3256 1541 
L 3106 1644 
L 3106 -822 
L 2319 -822 
L 2319 1666 
z
M 2025 3263 
Q 2300 3534 2497 3878 
L 1003 3878 
L 2025 3263 
z
M 5238 5266 
L 6038 5266 
L 6038 116 
Q 6038 -306 5858 -531 
Q 5678 -756 5353 -786 
Q 5028 -816 4356 -822 
Q 4256 -359 4150 66 
Q 4531 47 4888 47 
Q 5238 47 5238 378 
L 5238 5266 
z
M 3888 4616 
L 4663 4616 
L 4663 647 
L 3888 647 
L 3888 4616 
z
M 875 1666 
L 1656 1666 
Q 1725 -72 631 -909 
Q 363 -634 13 -316 
Q 938 328 875 1666 
z
" transform="scale(0.015625)"/>
      <path id="MicrosoftYaHei-Bold-2f" d="M 3100 4841 
L 747 -803 
L -156 -803 
L 2188 4841 
L 3100 4841 
z
" transform="scale(0.015625)"/>
      <path id="MicrosoftYaHei-Bold-53d6" d="M 200 -178 
L 94 653 
L 363 691 
L 363 4253 
L 181 4253 
L 181 5053 
L 3150 5053 
L 3150 4253 
L 2925 4253 
L 2925 1059 
L 3288 1116 
Q 3281 872 3300 316 
L 2925 253 
L 2925 -822 
L 2088 -822 
L 2088 116 
L 200 -178 
z
M 1200 3634 
L 2088 3634 
L 2088 4253 
L 1200 4253 
L 1200 3634 
z
M 1200 2253 
L 2088 2253 
L 2088 2872 
L 1200 2872 
L 1200 2253 
z
M 2088 934 
L 2088 1491 
L 1200 1491 
L 1200 806 
L 2088 934 
z
M 6075 4947 
L 6075 4134 
Q 5841 2341 5144 1047 
Q 5613 388 6294 9 
Q 6088 -291 5781 -841 
Q 5109 -400 4622 231 
Q 4169 -372 3581 -834 
Q 3356 -416 3088 9 
Q 3672 459 4100 1063 
Q 3466 2325 3353 4134 
L 3238 4134 
L 3238 4947 
L 6075 4947 
z
M 5225 4134 
L 4175 4134 
Q 4281 2900 4638 1997 
Q 5066 2934 5225 4134 
z
" transform="scale(0.015625)"/>
      <path id="MicrosoftYaHei-Bold-6696" d="M 2294 5009 
Q 4081 5053 5994 5234 
L 6138 4553 
L 2450 4309 
Q 2381 4678 2294 5009 
z
M 5925 1791 
L 5925 1203 
Q 5625 622 5163 188 
Q 5703 6 6338 -66 
Q 6119 -416 5925 -816 
Q 5091 -653 4469 -322 
Q 3875 -663 3019 -878 
Q 2863 -544 2666 -253 
Q 2428 -544 2150 -803 
Q 1994 -400 1844 -72 
L 1050 -72 
L 1050 -422 
L 350 -422 
L 350 4891 
L 2163 4891 
L 2163 375 
Q 2756 1134 2981 2109 
L 2256 2109 
L 2256 2747 
L 3088 2747 
Q 3103 2900 3113 3059 
L 2375 3059 
L 2375 3684 
L 2781 3684 
Q 2688 3891 2594 4078 
L 3225 4297 
L 3491 3684 
L 3931 3684 
Q 3847 3956 3744 4241 
L 4413 4378 
Q 4522 4044 4625 3684 
L 4863 3684 
Q 5078 4053 5275 4459 
L 5969 4197 
Q 5794 3928 5625 3684 
L 6144 3684 
L 6144 3059 
L 3891 3059 
Q 3878 2900 3859 2747 
L 6238 2747 
L 6238 2109 
L 3753 2109 
Q 3719 1947 3678 1791 
L 5925 1791 
z
M 1488 4153 
L 1050 4153 
L 1050 2803 
L 1488 2803 
L 1488 4153 
z
M 1488 666 
L 1488 2066 
L 1050 2066 
L 1050 666 
L 1488 666 
z
M 4478 519 
Q 4847 791 5069 1153 
L 3806 1153 
Q 4113 766 4478 519 
z
M 2738 -159 
Q 3338 -38 3800 147 
Q 3516 406 3281 719 
Q 3053 247 2738 -159 
z
" transform="scale(0.015625)"/>
     </defs>
     <use xlink:href="#MicrosoftYaHei-Bold-5e38"/>
     <use xlink:href="#MicrosoftYaHei-Bold-7528" transform="translate(100 0)"/>
     <use xlink:href="#MicrosoftYaHei-Bold-4f5c" transform="translate(200 0)"/>
     <use xlink:href="#MicrosoftYaHei-Bold-51b7" transform="translate(300 0)"/>
     <use xlink:href="#MicrosoftYaHei-Bold-5374" transform="translate(400 0)"/>
     <use xlink:href="#MicrosoftYaHei-Bold-5242" transform="translate(500 0)"/>
     <use xlink:href="#MicrosoftYaHei-Bold-2f" transform="translate(600 0)"/>
     <use xlink:href="#MicrosoftYaHei-Bold-53d6" transform="translate(647.265625 0)"/>
     <use xlink:href="#MicrosoftYaHei-Bold-6696" transform="translate(747.265625 0)"/>
    </g>
   </g>
   <g id="text_25">
    <!-- 常见物质的比热容 -->
    <g style="fill: #e67e22" transform="translate(205.91 18.39125) scale(0.14 -0.14)">
     <defs>
      <path id="MicrosoftYaHei-Bold-89c1" d="M 813 1216 
L 813 5066 
L 5594 5066 
L 5594 1266 
L 4694 1266 
L 4694 4278 
L 1713 4278 
L 1713 1216 
L 813 1216 
z
M 5400 1178 
Q 5819 991 6325 853 
Q 6284 488 6218 144 
Q 6153 -200 6054 -361 
Q 5956 -522 5718 -619 
Q 5481 -716 5125 -716 
L 4038 -716 
Q 3169 -716 3169 172 
L 3169 1253 
Q 2581 -78 644 -878 
Q 344 -378 69 -28 
Q 1656 531 2201 1340 
Q 2747 2150 2706 3866 
L 3600 3866 
Q 3609 2822 3428 2041 
L 4069 2041 
L 4069 359 
Q 4069 78 4319 78 
L 4975 78 
Q 5163 78 5272 231 
Q 5381 384 5400 1178 
z
" transform="scale(0.015625)"/>
      <path id="MicrosoftYaHei-Bold-7269" d="M 1969 -847 
L 1181 -847 
L 1181 1078 
Q 669 984 206 884 
L 94 1791 
Q 597 1838 1181 1922 
L 1181 3172 
L 775 3172 
Q 697 2731 594 2322 
Q 300 2509 88 2603 
Q 313 3566 381 4784 
L 956 4728 
Q 931 4344 891 3978 
L 1181 3978 
L 1181 5291 
L 1969 5291 
L 1969 3978 
L 2425 3978 
L 2425 3728 
Q 2856 4553 3100 5341 
Q 3550 5259 3938 5178 
Q 3772 4738 3609 4359 
L 6075 4359 
Q 6066 3275 6028 2016 
L 5972 400 
Q 5953 47 5834 -204 
Q 5716 -456 5466 -568 
Q 5216 -681 4150 -647 
Q 4056 -134 3934 216 
Q 3497 -331 2888 -772 
Q 2494 -353 2219 -109 
Q 4194 1163 4425 3534 
L 4116 3534 
Q 3891 1925 2781 966 
Q 2597 1144 2441 1284 
L 1969 1213 
L 1969 -847 
z
M 5300 3534 
L 5025 3534 
Q 4994 1578 3966 253 
Q 4356 222 4694 222 
Q 5122 222 5187 645 
Q 5253 1069 5300 3534 
z
M 2638 2647 
Q 2384 3003 2228 3172 
L 1969 3172 
L 1969 2044 
Q 2241 2088 2531 2141 
Q 2522 2006 2516 1850 
Q 3275 2559 3519 3534 
L 3213 3534 
Q 2925 3000 2638 2647 
z
" transform="scale(0.015625)"/>
      <path id="MicrosoftYaHei-Bold-8d28" d="M 1706 3847 
L 3400 3847 
L 3400 4313 
Q 2384 4256 1475 4228 
L 1475 2309 
Q 1475 191 781 -853 
Q 519 -578 81 -209 
Q 625 684 625 2347 
L 625 5016 
Q 3150 4997 5763 5266 
L 6150 4497 
L 4256 4363 
L 4256 3847 
L 6038 3847 
L 6038 3141 
L 4256 3141 
L 4256 2716 
L 5825 2716 
L 5825 541 
L 5013 541 
L 5013 2009 
L 2700 2009 
L 2700 541 
L 1888 541 
L 1888 2716 
L 3400 2716 
L 3400 3141 
L 1706 3141 
L 1706 3847 
z
M 3488 1778 
L 4363 1778 
Q 4347 1203 4197 772 
Q 5091 431 6275 -84 
L 5769 -834 
Q 4819 -297 3869 166 
Q 3269 -522 1756 -859 
Q 1538 -428 1331 -128 
Q 2506 119 2979 478 
Q 3453 838 3488 1778 
z
" transform="scale(0.015625)"/>
      <path id="MicrosoftYaHei-Bold-7684" d="M 1250 5303 
L 2181 5159 
L 1900 4309 
L 2963 4309 
L 2963 3091 
Q 3466 3934 3925 5316 
L 4788 5091 
Q 4650 4675 4494 4278 
L 6106 4278 
L 6034 681 
Q 6019 100 5937 -133 
Q 5856 -366 5684 -512 
Q 5513 -659 5205 -712 
Q 4897 -766 3863 -766 
Q 3769 -216 3625 178 
Q 4088 141 4609 141 
Q 4759 141 4868 175 
Q 4978 209 5048 279 
Q 5119 350 5144 437 
Q 5169 525 5184 1206 
L 5213 2484 
Q 5225 3081 5225 3453 
L 4138 3453 
Q 3931 3016 3700 2603 
Q 3403 2797 2963 2988 
L 2963 -734 
L 2094 -734 
L 2094 -284 
L 1206 -284 
L 1206 -772 
L 338 -772 
L 338 4309 
L 997 4309 
Q 1178 4922 1250 5303 
z
M 2094 3491 
L 1206 3491 
L 1206 2422 
L 2094 2422 
L 2094 3491 
z
M 1206 534 
L 2094 534 
L 2094 1603 
L 1206 1603 
L 1206 534 
z
M 3944 2703 
Q 4394 2166 4913 1397 
L 4125 872 
Q 3650 1653 3219 2203 
L 3944 2703 
z
" transform="scale(0.015625)"/>
     </defs>
     <use xlink:href="#MicrosoftYaHei-Bold-5e38"/>
     <use xlink:href="#MicrosoftYaHei-Bold-89c1" transform="translate(100 0)"/>
     <use xlink:href="#MicrosoftYaHei-Bold-7269" transform="translate(200 0)"/>
     <use xlink:href="#MicrosoftYaHei-Bold-8d28" transform="translate(300 0)"/>
     <use xlink:href="#MicrosoftYaHei-Bold-7684" transform="translate(400 0)"/>
     <use xlink:href="#MicrosoftYaHei-Bold-6bd4" transform="translate(500 0)"/>
     <use xlink:href="#MicrosoftYaHei-Bold-70ed" transform="translate(600 0)"/>
     <use xlink:href="#MicrosoftYaHei-Bold-5bb9" transform="translate(700 0)"/>
    </g>
   </g>
  </g>
 </g>
 <defs>
  <clipPath id="pa72d82f8a1">
   <rect x="34.2" y="24.39125" width="455.42" height="214.12"/>
  </clipPath>
 </defs>
</svg>
