<?xml version="1.0" encoding="utf-8" standalone="no"?>
<!DOCTYPE svg PUBLIC "-//W3C//DTD SVG 1.1//EN"
  "http://www.w3.org/Graphics/SVG/1.1/DTD/svg11.dtd">
<svg xmlns:xlink="http://www.w3.org/1999/xlink" width="784.8pt" height="250.56pt" viewBox="0 0 784.8 250.56" xmlns="http://www.w3.org/2000/svg" version="1.1">
 <metadata>
  <rdf:RDF xmlns:dc="http://purl.org/dc/elements/1.1/" xmlns:cc="http://creativecommons.org/ns#" xmlns:rdf="http://www.w3.org/1999/02/22-rdf-syntax-ns#">
   <cc:Work>
    <dc:type rdf:resource="http://purl.org/dc/dcmitype/StillImage"/>
    <dc:date>2026-05-22T23:20:29.234536</dc:date>
    <dc:format>image/svg+xml</dc:format>
    <dc:creator>
     <cc:Agent>
      <dc:title>Matplotlib v3.10.9, https://matplotlib.org/</dc:title>
     </cc:Agent>
    </dc:creator>
   </cc:Work>
  </rdf:RDF>
 </metadata>
 <defs>
  <style type="text/css">*{stroke-linejoin: round; stroke-linecap: butt}</style>
 </defs>
 <g id="figure_1">
  <g id="patch_1">
   <path d="M 0 250.56 
L 784.8 250.56 
L 784.8 -0 
L 0 -0 
z
" style="fill: #ffffff"/>
  </g>
  <g id="axes_1">
   <g id="patch_2">
    <path d="M 132 115.3308 
C 130.759263 115.3308 129.568074 119.519822 128.69074 126.968385 
C 127.813407 134.416947 127.32 144.530142 127.32 155.064 
C 127.32 165.597858 127.813407 175.711053 128.69074 183.159615 
C 129.568074 190.608178 130.759263 194.7972 132 194.7972 
" clip-path="url(#pb54d8d3ba3)" style="fill: none; stroke: #555555; stroke-width: 2; stroke-linejoin: miter"/>
   </g>
   <g id="patch_3">
    <path d="M 132 194.7972 
C 133.240737 194.7972 134.431926 190.608178 135.30926 183.159615 
C 136.186593 175.711053 136.68 165.597858 136.68 155.064 
C 136.68 144.530142 136.186593 134.416947 135.30926 126.968385 
C 134.431926 119.519822 133.240737 115.3308 132 115.3308 
" clip-path="url(#pb54d8d3ba3)" style="fill: none; stroke: #555555; stroke-width: 2; stroke-linejoin: miter"/>
   </g>
   <g id="line2d_1">
    <path d="M 132 234.5304 
L 132 75.5976 
" clip-path="url(#pb54d8d3ba3)" style="fill: none; stroke: #555555; stroke-width: 3; stroke-linecap: square"/>
   </g>
   <g id="line2d_2">
    <path d="M -1 155.064 
L 288 155.064 
" clip-path="url(#pb54d8d3ba3)" style="fill: none; stroke: #333333; stroke-opacity: 0.5; stroke-linecap: square"/>
   </g>
   <g id="line2d_3">
    <defs>
     <path id="ma912e34446" d="M 0 2 
C 0.530406 2 1.03916 1.789267 1.414214 1.414214 
C 1.789267 1.03916 2 0.530406 2 0 
C 2 -0.530406 1.789267 -1.03916 1.414214 -1.414214 
C 1.03916 -1.789267 0.530406 -2 0 -2 
C -0.530406 -2 -1.03916 -1.789267 -1.414214 -1.414214 
C -1.789267 -1.03916 -2 -0.530406 -2 0 
C -2 0.530406 -1.789267 1.03916 -1.414214 1.414214 
C -1.03916 1.789267 -0.530406 2 0 2 
z
" style="stroke: #c0392b"/>
    </defs>
    <g clip-path="url(#pb54d8d3ba3)">
     <use xlink:href="#ma912e34446" x="94.56" y="155.064" style="fill: #c0392b; stroke: #c0392b"/>
    </g>
   </g>
   <g id="line2d_4">
    <g clip-path="url(#pb54d8d3ba3)">
     <use xlink:href="#ma912e34446" x="169.44" y="155.064" style="fill: #c0392b; stroke: #c0392b"/>
    </g>
   </g>
   <g id="text_1">
    <!-- F -->
    <g style="fill: #c0392b" transform="translate(172.56 148.4418) scale(0.1 -0.1)">
     <defs>
      <path id="MicrosoftYaHei-Bold-46" d="M 3319 3997 
L 1591 3997 
L 1591 2753 
L 3181 2753 
L 3181 1909 
L 1591 1909 
L 1591 0 
L 559 0 
L 559 4841 
L 3319 4841 
L 3319 3997 
z
" transform="scale(0.015625)"/>
     </defs>
     <use xlink:href="#MicrosoftYaHei-Bold-46"/>
    </g>
   </g>
   <g id="text_2">
    <!-- F -->
    <g style="fill: #c0392b" transform="translate(91.44 148.4418) scale(0.1 -0.1)">
     <use xlink:href="#MicrosoftYaHei-Bold-46"/>
    </g>
   </g>
   <g id="patch_4">
    <path d="M 54 153.067855 
Q 54 137.405338 54 124.537905 
" style="fill: none; stroke: #c0392b; stroke-width: 2.5; stroke-linecap: round"/>
    <path d="M 52 128.537905 
L 54 124.537905 
L 56 128.537905 
" style="fill: none; stroke: #c0392b; stroke-width: 2.5; stroke-linecap: round"/>
   </g>
   <g id="text_3">
    <!-- 物体 -->
    <g style="fill: #c0392b" transform="translate(47.76 132.99) scale(0.08 -0.08)">
     <defs>
      <path id="MicrosoftYaHei-Bold-7269" d="M 1969 -847 
L 1181 -847 
L 1181 1078 
Q 669 984 206 884 
L 94 1791 
Q 597 1838 1181 1922 
L 1181 3172 
L 775 3172 
Q 697 2731 594 2322 
Q 300 2509 88 2603 
Q 313 3566 381 4784 
L 956 4728 
Q 931 4344 891 3978 
L 1181 3978 
L 1181 5291 
L 1969 5291 
L 1969 3978 
L 2425 3978 
L 2425 3728 
Q 2856 4553 3100 5341 
Q 3550 5259 3938 5178 
Q 3772 4738 3609 4359 
L 6075 4359 
Q 6066 3275 6028 2016 
L 5972 400 
Q 5953 47 5834 -204 
Q 5716 -456 5466 -568 
Q 5216 -681 4150 -647 
Q 4056 -134 3934 216 
Q 3497 -331 2888 -772 
Q 2494 -353 2219 -109 
Q 4194 1163 4425 3534 
L 4116 3534 
Q 3891 1925 2781 966 
Q 2597 1144 2441 1284 
L 1969 1213 
L 1969 -847 
z
M 5300 3534 
L 5025 3534 
Q 4994 1578 3966 253 
Q 4356 222 4694 222 
Q 5122 222 5187 645 
Q 5253 1069 5300 3534 
z
M 2638 2647 
Q 2384 3003 2228 3172 
L 1969 3172 
L 1969 2044 
Q 2241 2088 2531 2141 
Q 2522 2006 2516 1850 
Q 3275 2559 3519 3534 
L 3213 3534 
Q 2925 3000 2638 2647 
z
" transform="scale(0.015625)"/>
      <path id="MicrosoftYaHei-Bold-4f53" d="M 1100 5309 
L 1906 5103 
Q 1697 4303 1450 3613 
L 1450 1072 
Q 2450 2116 2934 3516 
L 1806 3516 
L 1806 4297 
L 3438 4297 
L 3438 5309 
L 4263 5309 
L 4263 4297 
L 6063 4297 
L 6063 3516 
L 4716 3516 
Q 5191 2188 6313 1166 
Q 6044 759 5769 278 
Q 5519 538 5300 853 
L 5300 209 
L 4263 209 
L 4263 -841 
L 3438 -841 
L 3438 209 
L 2431 209 
L 2431 878 
Q 2191 519 1906 191 
Q 1722 491 1450 900 
L 1450 -828 
L 700 -828 
L 700 1922 
Q 500 1563 288 1253 
Q 213 1822 88 2434 
Q 581 3359 1100 5309 
z
M 2509 997 
L 3438 997 
L 3438 3163 
Q 3138 1972 2509 997 
z
M 4263 3128 
L 4263 997 
L 5203 997 
Q 4634 1866 4263 3128 
z
" transform="scale(0.015625)"/>
     </defs>
     <use xlink:href="#MicrosoftYaHei-Bold-7269"/>
     <use xlink:href="#MicrosoftYaHei-Bold-4f53" transform="translate(100 0)"/>
    </g>
   </g>
   <g id="patch_5">
    <path d="M 194.4 153.067855 
Q 194.4 146.2363 194.4 141.640814 
" style="fill: none; stroke-dasharray: 7.4,3.2; stroke-dashoffset: 0; stroke: #2980b9; stroke-width: 2; stroke-linecap: round"/>
    <path d="M 192.4 145.640814 
L 194.4 141.640814 
L 196.4 145.640814 
" style="fill: none; stroke-dasharray: 7.4,3.2; stroke-dashoffset: 0; stroke: #2980b9; stroke-width: 2; stroke-linecap: round"/>
   </g>
   <g id="text_4">
    <!-- 像 -->
    <g style="fill: #2980b9" transform="translate(197.52 144.027) scale(0.08 -0.08)">
     <defs>
      <path id="MicrosoftYaHei-50cf" d="M 5638 2322 
L 5963 1978 
Q 5575 1716 5147 1463 
Q 5481 547 6313 -9 
Q 6075 -197 5900 -391 
Q 5163 266 4794 1263 
Q 4647 1181 4497 1100 
Q 4606 709 4600 291 
Q 4588 -778 3625 -759 
Q 3388 -759 3013 -747 
Q 2969 -503 2906 -284 
Q 3400 -334 3594 -334 
Q 4150 -347 4169 316 
Q 4169 544 4131 766 
Q 3331 25 1913 -616 
Q 1794 -434 1625 -228 
Q 3072 294 4019 1197 
Q 3956 1369 3869 1534 
Q 3031 791 1875 303 
Q 1750 491 1588 678 
Q 2791 1091 3663 1859 
Q 3572 1984 3466 2106 
Q 2897 1666 1869 1216 
Q 1731 1409 1581 1578 
Q 2794 2053 3319 2516 
L 2606 2516 
L 2606 2372 
L 2175 2372 
L 2175 3578 
Q 2003 3428 1825 3284 
Q 1763 3409 1563 3684 
Q 2513 4403 3169 5316 
L 3700 5316 
Q 3534 5066 3350 4828 
L 5106 4828 
L 5106 4459 
L 4544 3878 
L 5894 3878 
L 5894 2516 
L 3891 2516 
Q 3834 2447 3769 2378 
Q 4159 1947 4366 1472 
Q 5122 1916 5638 2322 
z
M 81 2291 
Q 900 3534 1425 5322 
L 1894 5203 
Q 1600 4328 1275 3594 
L 1275 -828 
L 838 -828 
L 838 2700 
Q 566 2197 275 1778 
Q 188 2041 81 2291 
z
M 4506 4441 
L 3031 4441 
Q 2778 4150 2497 3878 
L 3994 3878 
L 4506 4441 
z
M 5463 2903 
L 5463 3491 
L 4306 3491 
Q 4247 3175 4122 2903 
L 5463 2903 
z
M 2606 2903 
L 3644 2903 
Q 3800 3169 3853 3491 
L 2606 3491 
L 2606 2903 
z
" transform="scale(0.015625)"/>
     </defs>
     <use xlink:href="#MicrosoftYaHei-50cf"/>
    </g>
   </g>
   <g id="text_5">
    <!-- u &gt; 2f -->
    <g style="fill: #3498db" transform="translate(115.352187 47.481719) scale(0.11 -0.11)">
     <defs>
      <path id="MicrosoftYaHei-Bold-75" d="M 3691 0 
L 2688 0 
L 2688 528 
L 2672 528 
Q 2284 -84 1613 -84 
Q 406 -84 406 1372 
L 406 3456 
L 1416 3456 
L 1416 1466 
Q 1416 691 2022 691 
Q 2325 691 2506 903 
Q 2688 1116 2688 1478 
L 2688 3456 
L 3691 3456 
L 3691 0 
z
" transform="scale(0.015625)"/>
      <path id="MicrosoftYaHei-Bold-20" transform="scale(0.015625)"/>
      <path id="MicrosoftYaHei-Bold-3e" d="M 4000 1716 
L 878 275 
L 878 1041 
L 3122 1959 
L 3122 1975 
L 878 2969 
L 878 3738 
L 4000 2222 
L 4000 1716 
z
" transform="scale(0.015625)"/>
      <path id="MicrosoftYaHei-Bold-32" d="M 1500 841 
L 3553 841 
L 3553 0 
L 334 0 
L 334 359 
Q 334 738 473 1050 
Q 613 1363 856 1633 
Q 1100 1903 1613 2266 
Q 2081 2616 2268 2886 
Q 2456 3156 2456 3459 
Q 2456 4113 1744 4113 
Q 1119 4113 550 3613 
L 550 4513 
Q 1184 4922 1975 4922 
Q 2700 4922 3122 4551 
Q 3544 4181 3544 3531 
Q 3544 3169 3422 2876 
Q 3300 2584 3069 2328 
Q 2838 2072 2328 1713 
Q 1838 1363 1669 1172 
Q 1500 981 1500 841 
z
" transform="scale(0.015625)"/>
      <path id="MicrosoftYaHei-Bold-66" d="M 2653 4338 
Q 2447 4419 2263 4419 
Q 1744 4419 1744 3844 
L 1744 3456 
L 2531 3456 
L 2531 2703 
L 1744 2703 
L 1744 0 
L 734 0 
L 734 2703 
L 156 2703 
L 156 3456 
L 734 3456 
L 734 3900 
Q 734 4491 1118 4844 
Q 1503 5197 2128 5197 
Q 2447 5197 2653 5131 
L 2653 4338 
z
" transform="scale(0.015625)"/>
     </defs>
     <use xlink:href="#MicrosoftYaHei-Bold-75"/>
     <use xlink:href="#MicrosoftYaHei-Bold-20" transform="translate(64.794922 0)"/>
     <use xlink:href="#MicrosoftYaHei-Bold-3e" transform="translate(94.580078 0)"/>
     <use xlink:href="#MicrosoftYaHei-Bold-20" transform="translate(170.703125 0)"/>
     <use xlink:href="#MicrosoftYaHei-Bold-32" transform="translate(200.488281 0)"/>
     <use xlink:href="#MicrosoftYaHei-Bold-66" transform="translate(262.158203 0)"/>
    </g>
    <!-- (照相机) -->
    <g style="fill: #3498db" transform="translate(111.213437 60.768) scale(0.11 -0.11)">
     <defs>
      <path id="MicrosoftYaHei-Bold-28" d="M 1606 -1100 
Q 525 97 525 1853 
Q 525 3550 1606 4841 
L 2431 4841 
Q 1406 3497 1406 1853 
Q 1406 216 2438 -1100 
L 1606 -1100 
z
" transform="scale(0.015625)"/>
      <path id="MicrosoftYaHei-Bold-7167" d="M 2950 4366 
L 2950 5053 
L 6113 5053 
L 6075 3872 
Q 6075 3463 5895 3261 
Q 5716 3059 5442 3012 
Q 5169 2966 4431 2997 
Q 4356 3391 4269 3691 
Q 4775 3641 5006 3641 
Q 5203 3641 5247 3759 
Q 5291 3878 5300 4366 
L 4331 4366 
Q 4191 3281 3419 2828 
Q 3188 3109 2850 3441 
Q 3447 3694 3569 4366 
L 2950 4366 
z
M 425 5028 
L 2675 5028 
L 2675 941 
L 425 941 
L 425 5028 
z
M 1900 4316 
L 1200 4316 
L 1200 3353 
L 1900 3353 
L 1900 4316 
z
M 1900 1653 
L 1900 2641 
L 1200 2641 
L 1200 1653 
L 1900 1653 
z
M 3063 2766 
L 5981 2766 
L 5981 897 
L 3063 897 
L 3063 2766 
z
M 5225 2116 
L 3819 2116 
L 3819 1547 
L 5225 1547 
L 5225 2116 
z
M 5538 872 
Q 5906 234 6263 -528 
L 5494 -822 
Q 5106 -3 4800 572 
L 5538 872 
z
M 875 847 
L 1625 516 
Q 1306 -153 850 -903 
L 125 -509 
Q 550 128 875 847 
z
M 4113 778 
Q 4338 328 4663 -447 
L 3850 -684 
Q 3563 66 3344 553 
L 4113 778 
z
M 2656 728 
Q 2919 91 3138 -541 
L 2300 -741 
Q 2069 -16 1863 522 
L 2656 728 
z
" transform="scale(0.015625)"/>
      <path id="MicrosoftYaHei-Bold-76f8" d="M 75 1559 
Q 663 2469 916 3297 
L 138 3297 
L 138 4116 
L 938 4116 
L 938 5272 
L 1763 5272 
L 1763 4116 
L 2456 4116 
L 2456 3297 
L 1763 3297 
L 1763 2741 
Q 2194 2503 2569 2266 
L 2200 1553 
Q 1988 1722 1763 1888 
L 1763 -834 
L 938 -834 
L 938 1641 
Q 672 1034 306 459 
Q 194 1047 75 1559 
z
M 2625 4966 
L 6050 4966 
L 6050 -859 
L 5188 -859 
L 5188 -547 
L 3488 -547 
L 3488 -859 
L 2625 -859 
L 2625 4966 
z
M 5188 4166 
L 3488 4166 
L 3488 3391 
L 5188 3391 
L 5188 4166 
z
M 3488 1828 
L 5188 1828 
L 5188 2603 
L 3488 2603 
L 3488 1828 
z
M 3488 253 
L 5188 253 
L 5188 1041 
L 3488 1041 
L 3488 253 
z
" transform="scale(0.015625)"/>
      <path id="MicrosoftYaHei-Bold-673a" d="M 81 1597 
Q 594 2397 841 3372 
L 138 3372 
L 138 4203 
L 856 4203 
L 856 5322 
L 1675 5322 
L 1675 4203 
L 2400 4203 
L 2400 3372 
L 1675 3372 
L 1675 2788 
Q 2072 2559 2538 2272 
L 2131 1566 
L 1675 1888 
L 1675 -809 
L 856 -809 
L 856 1388 
Q 647 919 369 491 
Q 269 903 81 1597 
z
M 5694 1634 
Q 5988 1503 6306 1391 
Q 6241 91 6181 -189 
Q 6122 -469 5961 -580 
Q 5800 -691 5525 -691 
L 5038 -691 
Q 4438 -691 4438 59 
L 4438 4159 
L 3550 4159 
L 3550 2409 
Q 3550 1031 3328 412 
Q 3106 -206 2531 -828 
Q 2238 -478 1875 -84 
Q 2391 466 2548 1023 
Q 2706 1581 2706 2941 
L 2706 5041 
L 5331 5041 
L 5331 316 
Q 5331 103 5469 103 
Q 5544 103 5580 151 
Q 5616 200 5648 562 
Q 5681 925 5694 1634 
z
" transform="scale(0.015625)"/>
      <path id="MicrosoftYaHei-Bold-29" d="M 59 -1100 
Q 1097 216 1097 1853 
Q 1097 3484 59 4841 
L 888 4841 
Q 1978 3544 1978 1853 
Q 1978 113 881 -1100 
L 59 -1100 
z
" transform="scale(0.015625)"/>
     </defs>
     <use xlink:href="#MicrosoftYaHei-Bold-28"/>
     <use xlink:href="#MicrosoftYaHei-Bold-7167" transform="translate(38.964844 0)"/>
     <use xlink:href="#MicrosoftYaHei-Bold-76f8" transform="translate(138.964844 0)"/>
     <use xlink:href="#MicrosoftYaHei-Bold-673a" transform="translate(238.964844 0)"/>
     <use xlink:href="#MicrosoftYaHei-Bold-29" transform="translate(338.964844 0)"/>
    </g>
   </g>
  </g>
  <g id="axes_2">
   <g id="patch_6">
    <path d="M 392.4 115.3308 
C 391.159263 115.3308 389.968074 119.519822 389.09074 126.968385 
C 388.213407 134.416947 387.72 144.530142 387.72 155.064 
C 387.72 165.597858 388.213407 175.711053 389.09074 183.159615 
C 389.968074 190.608178 391.159263 194.7972 392.4 194.7972 
" clip-path="url(#p859d83c625)" style="fill: none; stroke: #555555; stroke-width: 2; stroke-linejoin: miter"/>
   </g>
   <g id="patch_7">
    <path d="M 392.4 194.7972 
C 393.640737 194.7972 394.831926 190.608178 395.70926 183.159615 
C 396.586593 175.711053 397.08 165.597858 397.08 155.064 
C 397.08 144.530142 396.586593 134.416947 395.70926 126.968385 
C 394.831926 119.519822 393.640737 115.3308 392.4 115.3308 
" clip-path="url(#p859d83c625)" style="fill: none; stroke: #555555; stroke-width: 2; stroke-linejoin: miter"/>
   </g>
   <g id="line2d_5">
    <path d="M 392.4 234.5304 
L 392.4 75.5976 
" clip-path="url(#p859d83c625)" style="fill: none; stroke: #555555; stroke-width: 3; stroke-linecap: square"/>
   </g>
   <g id="line2d_6">
    <path d="M 236.4 155.064 
L 548.4 155.064 
" clip-path="url(#p859d83c625)" style="fill: none; stroke: #333333; stroke-opacity: 0.5; stroke-linecap: square"/>
   </g>
   <g id="line2d_7">
    <g clip-path="url(#p859d83c625)">
     <use xlink:href="#ma912e34446" x="354.96" y="155.064" style="fill: #c0392b; stroke: #c0392b"/>
    </g>
   </g>
   <g id="line2d_8">
    <g clip-path="url(#p859d83c625)">
     <use xlink:href="#ma912e34446" x="429.84" y="155.064" style="fill: #c0392b; stroke: #c0392b"/>
    </g>
   </g>
   <g id="text_6">
    <!-- F -->
    <g style="fill: #c0392b" transform="translate(432.96 148.4418) scale(0.1 -0.1)">
     <use xlink:href="#MicrosoftYaHei-Bold-46"/>
    </g>
   </g>
   <g id="text_7">
    <!-- F -->
    <g style="fill: #c0392b" transform="translate(351.84 148.4418) scale(0.1 -0.1)">
     <use xlink:href="#MicrosoftYaHei-Bold-46"/>
    </g>
   </g>
   <g id="patch_8">
    <path d="M 336.24 153.061927 
Q 336.24 132.988334 336.24 115.709827 
" style="fill: none; stroke: #c0392b; stroke-width: 2.5; stroke-linecap: round"/>
    <path d="M 334.24 119.709827 
L 336.24 115.709827 
L 338.24 119.709827 
" style="fill: none; stroke: #c0392b; stroke-width: 2.5; stroke-linecap: round"/>
   </g>
   <g id="text_8">
    <!-- 物体 -->
    <g style="fill: #c0392b" transform="translate(330 128.5752) scale(0.08 -0.08)">
     <use xlink:href="#MicrosoftYaHei-Bold-7269"/>
     <use xlink:href="#MicrosoftYaHei-Bold-4f53" transform="translate(100 0)"/>
    </g>
   </g>
   <g id="patch_9">
    <path d="M 479.76 153.063274 
Q 479.76 121.954135 479.76 93.081063 
" style="fill: none; stroke-dasharray: 7.4,3.2; stroke-dashoffset: 0; stroke: #2980b9; stroke-width: 2; stroke-linecap: round"/>
    <path d="M 477.76 97.081063 
L 479.76 93.081063 
L 481.76 97.081063 
" style="fill: none; stroke-dasharray: 7.4,3.2; stroke-dashoffset: 0; stroke: #2980b9; stroke-width: 2; stroke-linecap: round"/>
   </g>
   <g id="text_9">
    <!-- 像 -->
    <g style="fill: #2980b9" transform="translate(482.88 119.7456) scale(0.08 -0.08)">
     <use xlink:href="#MicrosoftYaHei-50cf"/>
    </g>
   </g>
   <g id="text_10">
    <!-- f &lt; u &lt; 2f -->
    <g style="fill: #3498db" transform="translate(366.060156 47.481719) scale(0.11 -0.11)">
     <defs>
      <path id="MicrosoftYaHei-Bold-3c" d="M 4000 238 
L 878 1678 
L 878 2184 
L 4000 3706 
L 4000 2938 
L 1763 1947 
L 1763 1928 
L 4000 1006 
L 4000 238 
z
" transform="scale(0.015625)"/>
     </defs>
     <use xlink:href="#MicrosoftYaHei-Bold-66"/>
     <use xlink:href="#MicrosoftYaHei-Bold-20" transform="translate(40.527344 0)"/>
     <use xlink:href="#MicrosoftYaHei-Bold-3c" transform="translate(70.3125 0)"/>
     <use xlink:href="#MicrosoftYaHei-Bold-20" transform="translate(146.435547 0)"/>
     <use xlink:href="#MicrosoftYaHei-Bold-75" transform="translate(176.220703 0)"/>
     <use xlink:href="#MicrosoftYaHei-Bold-20" transform="translate(241.015625 0)"/>
     <use xlink:href="#MicrosoftYaHei-Bold-3c" transform="translate(270.800781 0)"/>
     <use xlink:href="#MicrosoftYaHei-Bold-20" transform="translate(346.923828 0)"/>
     <use xlink:href="#MicrosoftYaHei-Bold-32" transform="translate(376.708984 0)"/>
     <use xlink:href="#MicrosoftYaHei-Bold-66" transform="translate(438.378906 0)"/>
    </g>
    <!-- (投影仪) -->
    <g style="fill: #3498db" transform="translate(371.613437 60.768) scale(0.11 -0.11)">
     <defs>
      <path id="MicrosoftYaHei-Bold-6295" d="M 188 4222 
L 863 4222 
L 863 5322 
L 1669 5322 
L 1669 4222 
L 2269 4222 
L 2269 3409 
L 1669 3409 
L 1669 2469 
L 2231 2591 
Q 2200 2053 2206 1772 
L 1669 1644 
L 1669 9 
Q 1669 -319 1505 -562 
Q 1341 -806 369 -816 
Q 306 -503 156 34 
Q 359 19 516 19 
Q 734 19 798 80 
Q 863 141 863 322 
L 863 1444 
L 188 1272 
L 100 2166 
L 863 2306 
L 863 3409 
L 188 3409 
L 188 4222 
z
M 6281 3859 
Q 6163 3353 6125 3091 
L 5341 3084 
Q 5006 3084 4840 3253 
Q 4675 3422 4675 3759 
L 4675 4353 
L 3669 4353 
Q 3688 3353 2856 2803 
Q 2556 3059 2194 3341 
Q 2584 3597 2737 3917 
Q 2891 4238 2863 5116 
L 5494 5116 
L 5494 4141 
Q 5494 3909 5655 3876 
Q 5816 3844 6281 3859 
z
M 5931 2759 
L 5931 2003 
Q 5538 1188 4888 566 
Q 5519 222 6306 3 
Q 5906 -497 5688 -822 
Q 4856 -506 4166 -16 
Q 3403 -531 2400 -866 
Q 2225 -584 1850 -72 
Q 2781 178 3463 553 
Q 2984 1003 2588 1559 
L 3263 1972 
Q 3641 1444 4169 1034 
Q 4669 1453 4956 1984 
L 2438 1984 
L 2438 2759 
L 5931 2759 
z
" transform="scale(0.015625)"/>
      <path id="MicrosoftYaHei-Bold-5f71" d="M 3750 4009 
Q 4750 4559 5563 5278 
L 6125 4691 
Q 5150 3853 4219 3291 
Q 3988 3684 3750 4009 
z
M 138 2853 
L 1650 2853 
L 1578 3109 
L 400 3109 
L 400 5047 
L 3619 5047 
L 3619 3109 
L 2384 3109 
L 2425 2853 
L 3969 2853 
L 3969 2253 
L 138 2253 
L 138 2853 
z
M 2925 4559 
L 1100 4559 
L 1100 4297 
L 2925 4297 
L 2925 4559 
z
M 2925 3597 
L 2925 3859 
L 1100 3859 
L 1100 3597 
L 2925 3597 
z
M 3750 2016 
Q 4819 2672 5775 3628 
L 6356 3034 
Q 5425 2103 4250 1284 
Q 4019 1672 3750 2016 
z
M 50 -259 
Q 550 159 963 659 
L 1481 253 
Q 1300 44 1122 -141 
L 1463 -166 
Q 1725 -166 1725 184 
L 1725 672 
L 513 672 
L 513 2022 
L 3513 2022 
L 3513 672 
L 2438 672 
L 2438 -72 
Q 2438 -366 2330 -530 
Q 2222 -694 2039 -734 
Q 1856 -775 1219 -766 
Q 1159 -450 1091 -175 
Q 788 -494 500 -753 
L 50 -259 
z
M 2813 1191 
L 2813 1503 
L 1213 1503 
L 1213 1191 
L 2813 1191 
z
M 2631 253 
L 3081 666 
Q 3431 356 3828 -19 
Q 4844 706 5738 1691 
L 6350 1072 
Q 5375 -9 4163 -903 
Q 4006 -659 3669 -241 
L 3350 -528 
Q 2975 -84 2631 253 
z
" transform="scale(0.015625)"/>
      <path id="MicrosoftYaHei-Bold-4eea" d="M 4106 5353 
Q 4456 4697 4763 3916 
L 4031 3528 
Q 3725 4366 3413 5028 
L 4106 5353 
z
M 1419 5347 
L 2244 5116 
Q 2009 4356 1663 3641 
L 1663 -847 
L 850 -847 
L 850 2231 
Q 597 1863 313 1503 
Q 219 2053 88 2659 
Q 944 3847 1419 5347 
z
M 6063 4634 
Q 5781 2522 4688 1069 
Q 5397 409 6325 16 
Q 6006 -397 5738 -822 
Q 4788 -381 4063 356 
Q 3328 -366 2331 -878 
Q 2050 -422 1744 -72 
Q 2750 391 3475 1066 
Q 2547 2391 2088 4534 
L 2863 4797 
Q 3263 2897 4084 1747 
Q 4988 2969 5256 4822 
L 6063 4634 
z
" transform="scale(0.015625)"/>
     </defs>
     <use xlink:href="#MicrosoftYaHei-Bold-28"/>
     <use xlink:href="#MicrosoftYaHei-Bold-6295" transform="translate(38.964844 0)"/>
     <use xlink:href="#MicrosoftYaHei-Bold-5f71" transform="translate(138.964844 0)"/>
     <use xlink:href="#MicrosoftYaHei-Bold-4eea" transform="translate(238.964844 0)"/>
     <use xlink:href="#MicrosoftYaHei-Bold-29" transform="translate(338.964844 0)"/>
    </g>
   </g>
  </g>
  <g id="axes_3">
   <g id="patch_10">
    <path d="M 652.8 115.3308 
C 651.559263 115.3308 650.368074 119.519822 649.49074 126.968385 
C 648.613407 134.416947 648.12 144.530142 648.12 155.064 
C 648.12 165.597858 648.613407 175.711053 649.49074 183.159615 
C 650.368074 190.608178 651.559263 194.7972 652.8 194.7972 
" clip-path="url(#p5d03908a38)" style="fill: none; stroke: #555555; stroke-width: 2; stroke-linejoin: miter"/>
   </g>
   <g id="patch_11">
    <path d="M 652.8 194.7972 
C 654.040737 194.7972 655.231926 190.608178 656.10926 183.159615 
C 656.986593 175.711053 657.48 165.597858 657.48 155.064 
C 657.48 144.530142 656.986593 134.416947 656.10926 126.968385 
C 655.231926 119.519822 654.040737 115.3308 652.8 115.3308 
" clip-path="url(#p5d03908a38)" style="fill: none; stroke: #555555; stroke-width: 2; stroke-linejoin: miter"/>
   </g>
   <g id="line2d_9">
    <path d="M 652.8 234.5304 
L 652.8 75.5976 
" clip-path="url(#p5d03908a38)" style="fill: none; stroke: #555555; stroke-width: 3; stroke-linecap: square"/>
   </g>
   <g id="line2d_10">
    <path d="M 496.8 155.064 
L 785.8 155.064 
" clip-path="url(#p5d03908a38)" style="fill: none; stroke: #333333; stroke-opacity: 0.5; stroke-linecap: square"/>
   </g>
   <g id="line2d_11">
    <g clip-path="url(#p5d03908a38)">
     <use xlink:href="#ma912e34446" x="615.36" y="155.064" style="fill: #c0392b; stroke: #c0392b"/>
    </g>
   </g>
   <g id="line2d_12">
    <g clip-path="url(#p5d03908a38)">
     <use xlink:href="#ma912e34446" x="690.24" y="155.064" style="fill: #c0392b; stroke: #c0392b"/>
    </g>
   </g>
   <g id="text_11">
    <!-- F -->
    <g style="fill: #c0392b" transform="translate(693.36 148.4418) scale(0.1 -0.1)">
     <use xlink:href="#MicrosoftYaHei-Bold-46"/>
    </g>
   </g>
   <g id="text_12">
    <!-- F -->
    <g style="fill: #c0392b" transform="translate(612.24 148.4418) scale(0.1 -0.1)">
     <use xlink:href="#MicrosoftYaHei-Bold-46"/>
    </g>
   </g>
   <g id="patch_12">
    <path d="M 621.6 153.062466 
Q 621.6 141.81871 621.6 133.370038 
" style="fill: none; stroke: #c0392b; stroke-width: 2.5; stroke-linecap: round"/>
    <path d="M 619.6 137.370038 
L 621.6 133.370038 
L 623.6 137.370038 
" style="fill: none; stroke: #c0392b; stroke-width: 2.5; stroke-linecap: round"/>
   </g>
   <g id="text_13">
    <!-- 物体 -->
    <g style="fill: #c0392b" transform="translate(615.36 137.4048) scale(0.08 -0.08)">
     <use xlink:href="#MicrosoftYaHei-Bold-7269"/>
     <use xlink:href="#MicrosoftYaHei-Bold-4f53" transform="translate(100 0)"/>
    </g>
   </g>
   <g id="patch_13">
    <path d="M 574.8 153.061927 
Q 574.8 132.988334 574.8 115.15081 
" style="fill: none; stroke-dasharray: 7.4,3.2; stroke-dashoffset: 0; stroke: #27ae60; stroke-width: 2; stroke-linecap: round"/>
    <path d="M 572.8 119.15081 
L 574.8 115.15081 
L 576.8 119.15081 
" style="fill: none; stroke-dasharray: 7.4,3.2; stroke-dashoffset: 0; stroke: #27ae60; stroke-width: 2; stroke-linecap: round"/>
   </g>
   <g id="text_14">
    <!-- 虚像 -->
    <g style="fill: #27ae60" transform="translate(568.56 128.5752) scale(0.08 -0.08)">
     <defs>
      <path id="MicrosoftYaHei-865a" d="M 1194 3622 
L 1194 2128 
Q 1194 128 381 -822 
Q 219 -628 25 -422 
Q 706 409 706 2047 
L 706 4047 
L 2806 4047 
L 2806 5341 
L 3306 5341 
L 3306 4853 
L 5831 4853 
L 5831 4441 
L 3306 4441 
L 3306 4047 
L 6156 4047 
L 6113 3034 
Q 5869 3053 5638 3053 
L 5681 3622 
L 1194 3622 
z
M 1075 -197 
L 2681 -197 
L 2681 1641 
L 3169 1641 
L 3169 -197 
L 3956 -197 
L 3956 1653 
L 4444 1653 
L 4444 -197 
L 6200 -197 
L 6200 -622 
L 1075 -622 
L 1075 -197 
z
M 1356 3022 
L 2725 3103 
L 2725 3522 
L 3188 3522 
L 3188 3128 
L 5063 3241 
L 5088 2834 
L 3188 2725 
L 3188 2566 
Q 3188 2284 3563 2284 
L 4819 2284 
Q 5244 2284 5306 2578 
Q 5350 2753 5381 3022 
Q 5588 2934 5831 2853 
Q 5775 2572 5719 2391 
Q 5588 1872 4888 1872 
L 3475 1872 
Q 2725 1872 2725 2528 
L 2725 2697 
L 1381 2622 
L 1356 3022 
z
M 4638 484 
Q 5038 953 5388 1528 
L 5813 1278 
Q 5406 691 5006 203 
L 4638 484 
z
M 1363 1253 
L 1738 1491 
Q 2113 1009 2469 453 
L 2050 184 
Q 1700 772 1363 1253 
z
" transform="scale(0.015625)"/>
     </defs>
     <use xlink:href="#MicrosoftYaHei-865a"/>
     <use xlink:href="#MicrosoftYaHei-50cf" transform="translate(100 0)"/>
    </g>
   </g>
   <g id="text_15">
    <!-- u &lt; f -->
    <g style="fill: #3498db" transform="translate(639.544141 47.481719) scale(0.11 -0.11)">
     <use xlink:href="#MicrosoftYaHei-Bold-75"/>
     <use xlink:href="#MicrosoftYaHei-Bold-20" transform="translate(64.794922 0)"/>
     <use xlink:href="#MicrosoftYaHei-Bold-3c" transform="translate(94.580078 0)"/>
     <use xlink:href="#MicrosoftYaHei-Bold-20" transform="translate(170.703125 0)"/>
     <use xlink:href="#MicrosoftYaHei-Bold-66" transform="translate(200.488281 0)"/>
    </g>
    <!-- (放大镜) -->
    <g style="fill: #3498db" transform="translate(632.013438 60.768) scale(0.11 -0.11)">
     <defs>
      <path id="MicrosoftYaHei-Bold-653e" d="M 3850 5353 
L 4706 5128 
Q 4600 4725 4481 4366 
L 6294 4366 
L 6294 3534 
L 5934 3534 
Q 5784 1897 5125 797 
Q 5616 303 6325 22 
Q 6056 -341 5775 -816 
Q 5097 -425 4616 109 
Q 4066 -488 3306 -859 
Q 3069 -403 2825 -41 
Q 3538 294 4088 825 
Q 3681 1516 3516 2384 
Q 3416 2247 3313 2128 
Q 3138 2378 2913 2647 
L 2847 941 
Q 2816 131 2762 -95 
Q 2709 -322 2562 -476 
Q 2416 -631 2137 -670 
Q 1859 -709 1306 -709 
Q 1213 -200 1113 144 
Q 900 -416 563 -853 
Q 406 -547 75 47 
Q 372 491 522 1056 
Q 672 1622 678 2234 
L 691 3509 
L 156 3509 
L 156 4328 
L 1356 4328 
Q 1163 4750 1000 5053 
L 1800 5359 
Q 2000 5022 2269 4466 
L 1925 4328 
L 3113 4328 
L 3113 3509 
L 1500 3509 
L 1488 2841 
L 2856 2841 
Q 3531 3778 3850 5353 
z
M 4600 1500 
Q 5000 2256 5141 3534 
L 4166 3534 
Q 4122 3434 4078 3341 
Q 4175 2263 4600 1500 
z
M 1116 147 
Q 1441 122 1669 122 
Q 2019 122 2019 563 
L 2081 2084 
L 1469 2084 
Q 1431 981 1116 147 
z
" transform="scale(0.015625)"/>
      <path id="MicrosoftYaHei-Bold-5927" d="M 213 3728 
L 2681 3728 
Q 2725 4409 2719 5303 
L 3669 5303 
Q 3650 4375 3619 3728 
L 6200 3728 
L 6200 2866 
L 3691 2866 
Q 4228 778 6288 59 
Q 5844 -447 5575 -803 
Q 3872 -3 3203 1775 
Q 2684 147 806 -847 
Q 556 -528 100 -47 
Q 2375 984 2591 2866 
L 213 2866 
L 213 3728 
z
" transform="scale(0.015625)"/>
      <path id="MicrosoftYaHei-Bold-955c" d="M 2138 3947 
L 1150 3947 
Q 1059 3700 953 3472 
L 2063 3472 
L 2063 2766 
L 1506 2766 
L 1506 2159 
L 2250 2159 
L 2250 1453 
L 1506 1453 
L 1506 634 
Q 1806 872 2156 1172 
Q 2175 697 2263 259 
Q 1450 -272 969 -753 
L 550 -166 
Q 719 3 719 366 
L 719 1453 
L 100 1453 
L 100 2159 
L 719 2159 
L 719 2766 
L 572 2766 
Q 459 2584 338 2416 
Q 238 2909 81 3422 
Q 581 4297 781 5353 
L 1531 5228 
Q 1466 4928 1384 4647 
L 2138 4647 
L 2138 3947 
z
M 6056 4241 
L 5025 4241 
L 5631 4084 
Q 5528 3928 5419 3772 
L 6231 3772 
L 6231 3147 
L 2175 3147 
L 2175 3772 
L 2947 3772 
Q 2856 3928 2750 4097 
L 3341 4241 
L 2350 4241 
L 2350 4866 
L 3694 4866 
Q 3606 5031 3500 5209 
L 4475 5328 
Q 4547 5091 4606 4866 
L 6056 4866 
L 6056 4241 
z
M 3825 3772 
L 4494 3772 
Q 4656 4013 4775 4241 
L 3519 4241 
Q 3681 4009 3825 3772 
z
M 2356 2891 
L 5919 2891 
L 5919 609 
L 5063 609 
L 5063 141 
Q 5063 -97 5256 -97 
L 5325 -97 
Q 5450 -97 5509 15 
Q 5569 128 5600 578 
Q 5956 422 6319 316 
Q 6219 -466 5980 -631 
Q 5741 -797 5400 -797 
L 5025 -797 
Q 4275 -797 4275 -103 
L 4275 609 
L 3881 609 
Q 3738 -459 2500 -897 
Q 2281 -572 1963 -234 
Q 2963 41 3078 609 
L 2356 609 
L 2356 2891 
z
M 5131 2297 
L 3144 2297 
L 3144 2016 
L 5131 2016 
L 5131 2297 
z
M 5131 1197 
L 5131 1478 
L 3144 1478 
L 3144 1197 
L 5131 1197 
z
" transform="scale(0.015625)"/>
     </defs>
     <use xlink:href="#MicrosoftYaHei-Bold-28"/>
     <use xlink:href="#MicrosoftYaHei-Bold-653e" transform="translate(38.964844 0)"/>
     <use xlink:href="#MicrosoftYaHei-Bold-5927" transform="translate(138.964844 0)"/>
     <use xlink:href="#MicrosoftYaHei-Bold-955c" transform="translate(238.964844 0)"/>
     <use xlink:href="#MicrosoftYaHei-Bold-29" transform="translate(338.964844 0)"/>
    </g>
   </g>
  </g>
  <g id="text_16">
   <!-- 凸透镜成像光路图 -->
   <g style="fill: #3498db" transform="translate(336.4 18.39125) scale(0.14 -0.14)">
    <defs>
     <path id="MicrosoftYaHei-Bold-51f8" d="M 450 -841 
L 450 3216 
L 1638 3216 
L 1638 5109 
L 4813 5109 
L 4813 3216 
L 6000 3216 
L 6000 -834 
L 5113 -834 
L 5113 -497 
L 1338 -497 
L 1338 -841 
L 450 -841 
z
M 5113 2441 
L 3938 2441 
L 3938 4334 
L 2513 4334 
L 2513 2441 
L 1338 2441 
L 1338 291 
L 5113 291 
L 5113 2441 
z
" transform="scale(0.015625)"/>
     <path id="MicrosoftYaHei-Bold-900f" d="M 913 5328 
Q 1450 4678 1781 4184 
Q 1350 3909 1044 3697 
Q 625 4366 238 4884 
L 913 5328 
z
M 5894 1797 
Q 5856 1084 5822 815 
Q 5788 547 5628 395 
Q 5469 244 5201 233 
Q 4934 222 4231 228 
Q 4188 497 4113 834 
Q 4509 809 4800 809 
Q 5091 809 5153 887 
Q 5216 966 5231 1278 
L 4231 1278 
L 4450 1972 
L 3588 1972 
Q 3481 728 2281 147 
Q 2081 403 1750 734 
Q 2778 1144 2897 1972 
L 2363 1972 
L 2363 2497 
Q 2203 2406 2038 2322 
Q 1838 2578 1563 2884 
Q 2394 3163 3009 3559 
L 1913 3559 
L 1913 4141 
L 3575 4141 
L 3575 4503 
L 2206 4453 
Q 2163 4734 2100 5053 
Q 4038 5103 5700 5216 
L 5794 4609 
L 4325 4534 
L 4325 4141 
L 6031 4141 
L 6031 3559 
L 4822 3559 
Q 5403 3175 6306 2966 
Q 6069 2634 5881 2341 
Q 4931 2738 4325 3356 
L 4325 2691 
L 3575 2691 
L 3575 3384 
Q 3100 2931 2447 2547 
L 5300 2547 
L 5075 1797 
L 5894 1797 
z
M 6313 66 
Q 6125 -416 6006 -747 
L 2794 -716 
Q 1669 -716 1138 -103 
Q 881 -391 456 -884 
L 100 78 
Q 369 325 725 625 
L 725 2309 
L 138 2309 
L 138 3134 
L 1506 3134 
L 1506 538 
Q 1884 59 2800 59 
L 4066 47 
Q 5003 47 6313 66 
z
" transform="scale(0.015625)"/>
     <path id="MicrosoftYaHei-Bold-6210" d="M 1606 9 
Q 1544 541 1456 922 
Q 1753 866 1925 866 
Q 2259 866 2304 1197 
Q 2350 1528 2350 2047 
L 1438 2047 
Q 1428 106 825 -859 
Q 481 -534 88 -247 
Q 606 597 613 2172 
L 613 4291 
L 3547 4291 
L 3519 5322 
L 4406 5322 
L 4416 4291 
L 5269 4291 
Q 5103 4509 4738 4941 
L 5394 5297 
Q 5613 5059 6019 4553 
L 5538 4291 
L 6225 4291 
L 6225 3541 
L 4431 3541 
Q 4463 2569 4566 1856 
Q 4978 2491 5300 3234 
L 6069 2878 
Q 5519 1663 4828 734 
Q 5063 125 5250 125 
Q 5322 125 5369 215 
Q 5416 306 5472 667 
Q 5528 1028 5531 1291 
Q 5813 1128 6331 909 
Q 6313 572 6175 22 
Q 6038 -528 5813 -681 
Q 5588 -834 5359 -834 
Q 4678 -834 4231 16 
Q 3781 -472 3281 -859 
Q 2981 -491 2631 -197 
Q 3322 300 3888 953 
Q 3659 1891 3578 3541 
L 1438 3541 
L 1438 2803 
L 3219 2803 
Q 3219 2709 3181 1714 
Q 3144 719 3012 491 
Q 2881 263 2673 117 
Q 2466 -28 1606 9 
z
" transform="scale(0.015625)"/>
     <path id="MicrosoftYaHei-Bold-50cf" d="M 2913 5328 
L 3794 5328 
Q 3675 5125 3541 4934 
L 5406 4934 
L 5406 4391 
L 5028 3966 
L 6038 3966 
L 6038 2366 
L 5591 2366 
L 6063 1791 
L 5413 1431 
Q 5769 541 6363 53 
Q 6231 -72 5775 -603 
Q 5222 -44 4850 1122 
L 4644 1009 
Q 4722 688 4722 325 
Q 4722 -800 3844 -822 
L 3100 -822 
Q 3044 -534 2969 -200 
Q 2466 -544 1850 -809 
Q 1663 -266 1600 -116 
Q 2903 284 3803 1188 
Q 3763 1297 3709 1409 
Q 2944 688 1913 266 
Q 1806 572 1663 903 
Q 2841 1234 3528 1744 
Q 3481 1825 3425 1909 
Q 2828 1531 1838 1253 
Q 1731 1522 1538 1891 
Q 2494 2069 3009 2366 
L 1963 2366 
L 1963 3494 
Q 1756 3713 1544 3916 
Q 2450 4572 2913 5328 
z
M 2694 3966 
L 4119 3966 
L 4469 4359 
L 3084 4359 
Q 2897 4153 2694 3966 
z
M 2656 2966 
L 3584 2966 
Q 3663 3125 3706 3366 
L 2656 3366 
L 2656 2966 
z
M 5344 2966 
L 5344 3366 
L 4409 3366 
Q 4369 3153 4306 2966 
L 5344 2966 
z
M 5563 2366 
L 3975 2366 
L 3928 2313 
Q 4222 2000 4409 1644 
Q 5003 1969 5563 2366 
z
M 3944 659 
Q 3600 266 3163 -59 
Q 3513 -94 3675 -94 
Q 3975 -94 3975 334 
Q 3975 472 3944 659 
z
M 1025 5284 
L 1788 5153 
Q 1653 4559 1469 3981 
L 1469 -803 
L 719 -803 
L 719 2113 
Q 522 1709 300 1316 
Q 244 1703 81 2484 
Q 763 3909 1025 5284 
z
" transform="scale(0.015625)"/>
     <path id="MicrosoftYaHei-Bold-5149" d="M 5381 1547 
Q 5919 1366 6294 1259 
Q 6131 -197 5873 -469 
Q 5616 -741 5056 -741 
L 4450 -741 
Q 3444 -741 3444 284 
L 3444 2047 
L 2703 2047 
Q 2700 -172 763 -853 
Q 406 -403 81 -109 
Q 1763 528 1722 2047 
L 188 2047 
L 188 2916 
L 2700 2916 
L 2700 5322 
L 3650 5322 
L 3650 2916 
L 6213 2916 
L 6213 2047 
L 4369 2047 
L 4369 478 
Q 4369 78 4706 78 
L 4856 78 
Q 5113 78 5203 297 
Q 5294 516 5381 1547 
z
M 5163 4978 
L 5956 4403 
Q 5150 3466 4688 3034 
L 4000 3622 
Q 4525 4128 5163 4978 
z
M 1156 4978 
Q 1906 4222 2369 3678 
L 1613 3103 
Q 988 3891 463 4447 
L 1156 4978 
z
" transform="scale(0.015625)"/>
     <path id="MicrosoftYaHei-Bold-8def" d="M 438 4966 
L 2613 4966 
L 2613 3916 
Q 3234 4569 3581 5359 
L 4475 5253 
Q 4341 4978 4188 4722 
L 6050 4722 
L 6050 4016 
Q 5734 3316 5156 2813 
Q 5663 2619 6313 2541 
Q 6194 2209 6075 1734 
Q 5106 1916 4409 2306 
Q 3700 1928 2738 1741 
Q 2600 2109 2419 2459 
Q 3153 2588 3703 2816 
Q 3416 3084 3203 3413 
Q 3063 3259 2913 3116 
Q 2834 3244 2613 3556 
L 2613 2816 
L 2063 2816 
L 2063 2066 
L 2550 2066 
L 2550 1341 
L 2063 1341 
L 2063 447 
L 2763 534 
Q 2744 378 2738 -303 
L 200 -653 
L 106 222 
L 313 244 
L 313 2416 
L 938 2416 
L 938 313 
L 1288 353 
L 1288 2816 
L 438 2816 
L 438 4966 
z
M 1213 3516 
L 1838 3516 
L 1838 4166 
L 1213 4166 
L 1213 3516 
z
M 4416 3213 
Q 4863 3538 5088 3978 
L 3728 3978 
Q 3988 3525 4416 3213 
z
M 2975 -853 
L 2975 1722 
L 5900 1722 
L 5900 -841 
L 5113 -841 
L 5113 -516 
L 3763 -516 
L 3763 -853 
L 2975 -853 
z
M 5113 947 
L 3763 947 
L 3763 259 
L 5113 259 
L 5113 947 
z
" transform="scale(0.015625)"/>
     <path id="MicrosoftYaHei-Bold-56fe" d="M 369 -841 
L 369 5072 
L 6019 5072 
L 6019 -834 
L 5156 -834 
L 5156 -591 
L 1231 -591 
L 1231 -841 
L 369 -841 
z
M 4875 3978 
L 4875 3466 
Q 4547 3022 4006 2678 
Q 4513 2541 5156 2463 
L 5156 4316 
L 3256 4316 
Q 3141 4144 3009 3978 
L 4875 3978 
z
M 2394 4316 
L 1231 4316 
L 1231 3231 
Q 2016 3747 2394 4316 
z
M 3228 2959 
Q 3666 3163 3919 3416 
L 2575 3416 
Q 2828 3156 3228 2959 
z
M 1644 2747 
Q 1481 2925 1231 3147 
L 1231 2400 
Q 1950 2522 2500 2688 
Q 2266 2863 2078 3063 
Q 1872 2900 1644 2747 
z
M 1669 1303 
Q 3319 1084 4775 841 
L 4600 166 
L 5156 166 
L 5156 2388 
Q 5019 2159 4825 1822 
Q 3897 1978 3219 2275 
Q 2872 2134 2472 2019 
Q 3509 1888 4500 1722 
L 4375 1128 
Q 3344 1309 2063 1484 
L 2159 1934 
Q 1856 1859 1525 1797 
Q 1409 2059 1231 2347 
L 1231 166 
L 4569 166 
Q 3297 425 1494 647 
L 1669 1303 
z
" transform="scale(0.015625)"/>
    </defs>
    <use xlink:href="#MicrosoftYaHei-Bold-51f8"/>
    <use xlink:href="#MicrosoftYaHei-Bold-900f" transform="translate(100 0)"/>
    <use xlink:href="#MicrosoftYaHei-Bold-955c" transform="translate(200 0)"/>
    <use xlink:href="#MicrosoftYaHei-Bold-6210" transform="translate(300 0)"/>
    <use xlink:href="#MicrosoftYaHei-Bold-50cf" transform="translate(400 0)"/>
    <use xlink:href="#MicrosoftYaHei-Bold-5149" transform="translate(500 0)"/>
    <use xlink:href="#MicrosoftYaHei-Bold-8def" transform="translate(600 0)"/>
    <use xlink:href="#MicrosoftYaHei-Bold-56fe" transform="translate(700 0)"/>
   </g>
  </g>
 </g>
 <defs>
  <clipPath id="pb54d8d3ba3">
   <rect x="7.2" y="66.768" width="249.6" height="176.592"/>
  </clipPath>
  <clipPath id="p859d83c625">
   <rect x="267.6" y="66.768" width="249.6" height="176.592"/>
  </clipPath>
  <clipPath id="p5d03908a38">
   <rect x="528" y="66.768" width="249.6" height="176.592"/>
  </clipPath>
 </defs>
</svg>
