<?xml version="1.0" encoding="utf-8" standalone="no"?>
<!DOCTYPE svg PUBLIC "-//W3C//DTD SVG 1.1//EN"
  "http://www.w3.org/Graphics/SVG/1.1/DTD/svg11.dtd">
<svg xmlns:xlink="http://www.w3.org/1999/xlink" width="568.813594pt" height="249.937812pt" viewBox="0 0 568.813594 249.937812" xmlns="http://www.w3.org/2000/svg" version="1.1">
 <metadata>
  <rdf:RDF xmlns:dc="http://purl.org/dc/elements/1.1/" xmlns:cc="http://creativecommons.org/ns#" xmlns:rdf="http://www.w3.org/1999/02/22-rdf-syntax-ns#">
   <cc:Work>
    <dc:type rdf:resource="http://purl.org/dc/dcmitype/StillImage"/>
    <dc:date>2026-05-22T23:20:28.363688</dc:date>
    <dc:format>image/svg+xml</dc:format>
    <dc:creator>
     <cc:Agent>
      <dc:title>Matplotlib v3.10.9, https://matplotlib.org/</dc:title>
     </cc:Agent>
    </dc:creator>
   </cc:Work>
  </rdf:RDF>
 </metadata>
 <defs>
  <style type="text/css">*{stroke-linejoin: round; stroke-linecap: butt}</style>
 </defs>
 <g id="figure_1">
  <g id="patch_1">
   <path d="M 0 249.937812 
L 568.813594 249.937812 
L 568.813594 0 
L 0 0 
z
" style="fill: #ffffff"/>
  </g>
  <g id="axes_1">
   <g id="patch_2">
    <path d="M 43.863594 224.76125 
L 279.013594 224.76125 
L 279.013594 69.936 
L 43.863594 69.936 
z
" style="fill: #ffffff"/>
   </g>
   <g id="patch_3">
    <path d="M 54.55223 224.76125 
L 125.809806 224.76125 
L 125.809806 202.643357 
L 54.55223 202.643357 
z
" clip-path="url(#pe1b601b508)" style="fill: #3498db; stroke: #333333; stroke-linejoin: miter"/>
   </g>
   <g id="patch_4">
    <path d="M 197.067382 224.76125 
L 268.324957 224.76125 
L 268.324957 114.171786 
L 197.067382 114.171786 
z
" clip-path="url(#pe1b601b508)" style="fill: #c0392b; stroke: #333333; stroke-linejoin: miter"/>
   </g>
   <g id="matplotlib.axis_1">
    <g id="xtick_1">
     <g id="line2d_1">
      <defs>
       <path id="mfa16833750" d="M 0 0 
L 0 3.5 
" style="stroke: #000000; stroke-width: 0.8"/>
      </defs>
      <g>
       <use xlink:href="#mfa16833750" x="90.181018" y="224.76125" style="stroke: #000000; stroke-width: 0.8"/>
      </g>
     </g>
     <g id="text_1">
      <!-- 光滑表面 -->
      <g transform="translate(70.181018 239.755) scale(0.1 -0.1)">
       <defs>
        <path id="MicrosoftYaHei-5149" d="M 169 2691 
L 2931 2691 
L 2931 5309 
L 3444 5309 
L 3444 2691 
L 6256 2691 
L 6256 2228 
L 4206 2228 
L 4206 216 
Q 4206 -22 4269 -116 
Q 4356 -241 4638 -241 
L 5256 -241 
Q 5706 -241 5750 91 
Q 5794 428 5819 984 
Q 6056 884 6344 797 
Q 6288 153 6231 -122 
Q 6175 -441 5963 -559 
Q 5763 -678 5281 -678 
L 4538 -678 
Q 4056 -678 3863 -466 
Q 3700 -284 3700 141 
L 3700 2228 
L 2491 2228 
Q 2466 931 1988 266 
Q 1469 -459 369 -841 
Q 244 -647 50 -397 
Q 1150 -16 1569 603 
Q 1966 1134 1991 2228 
L 169 2228 
L 169 2691 
z
M 4094 3397 
Q 4813 4084 5369 4828 
L 5825 4503 
Q 5200 3766 4481 3059 
L 4094 3397 
z
M 619 4528 
L 1000 4828 
Q 1631 4134 2213 3434 
L 1756 3084 
Q 1188 3866 619 4528 
z
" transform="scale(0.015625)"/>
        <path id="MicrosoftYaHei-6ed1" d="M 2738 -791 
L 2263 -791 
L 2263 2378 
L 5494 2378 
L 5494 -22 
Q 5494 -728 4813 -734 
Q 4456 -741 4025 -734 
Q 3994 -534 3931 -272 
Q 4294 -316 4619 -316 
Q 5019 -316 5019 9 
L 5019 303 
L 2738 303 
L 2738 -791 
z
M 1713 3253 
L 2306 3253 
L 2306 5078 
L 5475 5078 
L 5475 3253 
L 6063 3253 
L 6063 2297 
L 5594 2297 
L 5594 2853 
L 2181 2853 
L 2181 2284 
L 1713 2284 
L 1713 3253 
z
M 5025 4678 
L 2756 4678 
L 2756 4178 
L 4238 4178 
L 4238 3253 
L 5025 3253 
L 5025 4678 
z
M 850 1816 
Q 1106 1716 1363 1628 
Q 1100 541 788 -784 
L 238 -622 
Q 588 541 850 1816 
z
M 2738 691 
L 5019 691 
L 5019 1141 
L 2738 1141 
L 2738 691 
z
M 5019 1978 
L 2738 1978 
L 2738 1528 
L 5019 1528 
L 5019 1978 
z
M 719 5241 
Q 1256 4822 1738 4378 
L 1381 4003 
Q 931 4453 394 4909 
L 719 5241 
z
M 388 3697 
Q 988 3247 1400 2891 
L 1056 2497 
Q 581 2941 81 3328 
L 388 3697 
z
M 3794 3791 
L 2756 3791 
L 2756 3253 
L 3794 3253 
L 3794 3791 
z
" transform="scale(0.015625)"/>
        <path id="MicrosoftYaHei-8868" d="M 5519 1891 
L 5863 1459 
L 4466 759 
Q 5200 159 6306 -34 
Q 6094 -309 5956 -534 
Q 3941 -53 3066 1944 
Q 2747 1538 2338 1172 
L 2338 -166 
Q 3163 103 3869 397 
Q 3863 122 3875 -147 
Q 3125 -403 2325 -709 
Q 2156 -778 1994 -872 
L 1700 -416 
Q 1875 -291 1875 -66 
L 1875 794 
Q 1228 309 406 -84 
Q 269 134 88 347 
Q 1703 1009 2625 2122 
L 156 2122 
L 156 2553 
L 2956 2553 
L 2956 3191 
L 600 3191 
L 600 3622 
L 2956 3622 
L 2956 4234 
L 350 4234 
L 350 4666 
L 2956 4666 
L 2956 5366 
L 3450 5366 
L 3450 4666 
L 6069 4666 
L 6069 4234 
L 3450 4234 
L 3450 3622 
L 5800 3622 
L 5800 3191 
L 3450 3191 
L 3450 2553 
L 6244 2553 
L 6244 2122 
L 3466 2122 
Q 3728 1513 4141 1066 
Q 4769 1378 5519 1891 
z
" transform="scale(0.015625)"/>
        <path id="MicrosoftYaHei-9762" d="M 519 3659 
L 2500 3659 
Q 2681 4134 2794 4484 
L 188 4484 
L 188 4947 
L 6200 4947 
L 6200 4484 
L 3353 4484 
Q 3216 4144 3009 3659 
L 5850 3659 
L 5850 -809 
L 5369 -809 
L 5369 -459 
L 1000 -459 
L 1000 -816 
L 519 -816 
L 519 3659 
z
M 5369 3247 
L 4363 3247 
L 4363 -47 
L 5369 -47 
L 5369 3247 
z
M 1000 -47 
L 2006 -47 
L 2006 3247 
L 1000 3247 
L 1000 -47 
z
M 2456 -47 
L 3913 -47 
L 3913 784 
L 2456 784 
L 2456 -47 
z
M 2456 1184 
L 3913 1184 
L 3913 2016 
L 2456 2016 
L 2456 1184 
z
M 2456 2416 
L 3913 2416 
L 3913 3247 
L 2456 3247 
L 2456 2416 
z
" transform="scale(0.015625)"/>
       </defs>
       <use xlink:href="#MicrosoftYaHei-5149"/>
       <use xlink:href="#MicrosoftYaHei-6ed1" transform="translate(100 0)"/>
       <use xlink:href="#MicrosoftYaHei-8868" transform="translate(200 0)"/>
       <use xlink:href="#MicrosoftYaHei-9762" transform="translate(300 0)"/>
      </g>
     </g>
    </g>
    <g id="xtick_2">
     <g id="line2d_2">
      <g>
       <use xlink:href="#mfa16833750" x="232.69617" y="224.76125" style="stroke: #000000; stroke-width: 0.8"/>
      </g>
     </g>
     <g id="text_2">
      <!-- 粗糙表面 -->
      <g transform="translate(212.69617 239.755) scale(0.1 -0.1)">
       <defs>
        <path id="MicrosoftYaHei-7c97" d="M 2325 -109 
L 3100 -109 
L 3100 4916 
L 5788 4916 
L 5788 -109 
L 6319 -109 
L 6319 -553 
L 2325 -553 
L 2325 -109 
z
M 3563 -109 
L 5325 -109 
L 5325 1134 
L 3563 1134 
L 3563 -109 
z
M 3563 1572 
L 5325 1572 
L 5325 2803 
L 3563 2803 
L 3563 1572 
z
M 5325 4472 
L 3563 4472 
L 3563 3241 
L 5325 3241 
L 5325 4472 
z
M 1800 3547 
Q 2169 4203 2413 4809 
L 2838 4628 
Q 2606 4141 2169 3353 
L 1800 3547 
z
M 100 4647 
L 469 4803 
Q 844 4041 1013 3578 
L 594 3378 
Q 225 4378 100 4647 
z
M 75 597 
Q 819 1616 1125 2591 
L 106 2591 
L 106 3016 
L 1225 3016 
L 1225 5309 
L 1669 5309 
L 1669 3016 
L 2806 3016 
L 2806 2591 
L 1669 2591 
L 1669 1797 
L 1894 2016 
Q 2394 1578 2806 1191 
L 2475 878 
Q 1938 1428 1669 1666 
L 1669 -822 
L 1225 -822 
L 1225 1841 
Q 863 859 269 97 
Q 188 353 75 597 
z
" transform="scale(0.015625)"/>
        <path id="MicrosoftYaHei-7cd9" d="M 56 534 
Q 588 1516 894 2709 
L 131 2709 
L 131 3128 
L 994 3128 
L 994 5303 
L 1388 5303 
L 1388 3128 
L 2225 3128 
L 2225 2709 
L 1388 2709 
L 1388 2003 
L 1625 2184 
Q 1988 1803 2275 1459 
L 1950 1184 
Q 1694 1522 1388 1872 
L 1388 -859 
L 994 -859 
L 994 1941 
Q 700 803 275 34 
Q 194 291 56 534 
z
M 3613 2216 
L 5881 2216 
L 5881 166 
L 5456 166 
L 5456 447 
L 4038 447 
L 4038 166 
L 3613 166 
L 3613 2216 
z
M 3138 3128 
L 4513 3128 
L 4513 3972 
L 3813 3972 
Q 3688 3609 3544 3291 
Q 3363 3384 3144 3478 
Q 3500 4197 3675 5022 
L 4094 4953 
Q 4025 4659 3944 4391 
L 4513 4391 
L 4513 5291 
L 4950 5291 
L 4950 4391 
L 6038 4391 
L 6038 3972 
L 4950 3972 
L 4950 3128 
L 6225 3128 
L 6225 2709 
L 3138 2709 
L 3138 3128 
z
M 4181 -222 
Q 4894 -222 6300 -191 
Q 6200 -441 6119 -672 
Q 4750 -666 4125 -666 
Q 3200 -666 2706 28 
Q 2425 -303 2094 -841 
L 1794 -409 
Q 2088 -16 2531 497 
L 2531 2178 
L 2069 2178 
L 2069 2603 
L 2956 2603 
L 2956 378 
Q 3356 -222 4181 -222 
z
M 5456 1803 
L 4038 1803 
L 4038 859 
L 5456 859 
L 5456 1803 
z
M 2663 5022 
Q 2863 4466 3050 3759 
Q 2831 3691 2638 3622 
Q 2488 4303 2288 4909 
L 2663 5022 
z
M 100 4666 
L 450 4778 
Q 619 4247 800 3534 
L 419 3409 
Q 263 4184 100 4666 
z
M 2244 4672 
Q 2100 4041 1906 3403 
L 1550 3509 
Q 1750 4109 1875 4766 
L 2244 4672 
z
" transform="scale(0.015625)"/>
       </defs>
       <use xlink:href="#MicrosoftYaHei-7c97"/>
       <use xlink:href="#MicrosoftYaHei-7cd9" transform="translate(100 0)"/>
       <use xlink:href="#MicrosoftYaHei-8868" transform="translate(200 0)"/>
       <use xlink:href="#MicrosoftYaHei-9762" transform="translate(300 0)"/>
      </g>
     </g>
    </g>
   </g>
   <g id="matplotlib.axis_2">
    <g id="ytick_1">
     <g id="line2d_3">
      <defs>
       <path id="mae7fcc5b46" d="M 0 0 
L -3.5 0 
" style="stroke: #000000; stroke-width: 0.8"/>
      </defs>
      <g>
       <use xlink:href="#mae7fcc5b46" x="43.863594" y="224.76125" style="stroke: #000000; stroke-width: 0.8"/>
      </g>
     </g>
     <g id="text_3">
      <!-- 0.0 -->
      <g transform="translate(22.727656 228.758125) scale(0.1 -0.1)">
       <defs>
        <path id="MicrosoftYaHei-30" d="M 284 2325 
Q 284 3606 709 4264 
Q 1134 4922 1941 4922 
Q 3478 4922 3478 2441 
Q 3478 1216 3045 567 
Q 2613 -81 1831 -81 
Q 1094 -81 689 534 
Q 284 1150 284 2325 
z
M 909 2353 
Q 909 425 1888 425 
Q 2850 425 2850 2384 
Q 2850 4413 1906 4413 
Q 909 4413 909 2353 
z
" transform="scale(0.015625)"/>
        <path id="MicrosoftYaHei-2e" d="M 372 322 
Q 372 491 487 606 
Q 603 722 775 722 
Q 950 722 1065 605 
Q 1181 488 1181 322 
Q 1181 159 1065 42 
Q 950 -75 772 -75 
Q 600 -75 486 42 
Q 372 159 372 322 
z
" transform="scale(0.015625)"/>
       </defs>
       <use xlink:href="#MicrosoftYaHei-30"/>
       <use xlink:href="#MicrosoftYaHei-2e" transform="translate(58.642578 0)"/>
       <use xlink:href="#MicrosoftYaHei-30" transform="translate(82.714844 0)"/>
      </g>
     </g>
    </g>
    <g id="ytick_2">
     <g id="line2d_4">
      <g>
       <use xlink:href="#mae7fcc5b46" x="43.863594" y="202.643357" style="stroke: #000000; stroke-width: 0.8"/>
      </g>
     </g>
     <g id="text_4">
      <!-- 0.5 -->
      <g transform="translate(22.727656 206.640232) scale(0.1 -0.1)">
       <defs>
        <path id="MicrosoftYaHei-35" d="M 3294 1494 
Q 3294 784 2823 350 
Q 2353 -84 1559 -84 
Q 878 -84 544 119 
L 544 744 
Q 1034 425 1544 425 
Q 2050 425 2361 704 
Q 2672 984 2672 1447 
Q 2672 1909 2348 2167 
Q 2025 2425 1434 2425 
Q 978 2425 613 2384 
L 791 4841 
L 3053 4841 
L 3053 4303 
L 1306 4303 
L 1206 2931 
L 1647 2950 
Q 2416 2950 2855 2567 
Q 3294 2184 3294 1494 
z
" transform="scale(0.015625)"/>
       </defs>
       <use xlink:href="#MicrosoftYaHei-30"/>
       <use xlink:href="#MicrosoftYaHei-2e" transform="translate(58.642578 0)"/>
       <use xlink:href="#MicrosoftYaHei-35" transform="translate(82.714844 0)"/>
      </g>
     </g>
    </g>
    <g id="ytick_3">
     <g id="line2d_5">
      <g>
       <use xlink:href="#mae7fcc5b46" x="43.863594" y="180.525464" style="stroke: #000000; stroke-width: 0.8"/>
      </g>
     </g>
     <g id="text_5">
      <!-- 1.0 -->
      <g transform="translate(22.727656 184.522339) scale(0.1 -0.1)">
       <defs>
        <path id="MicrosoftYaHei-31" d="M 1781 0 
L 1781 4141 
Q 1638 3997 1295 3819 
Q 953 3641 663 3569 
L 663 4169 
Q 1047 4275 1484 4508 
Q 1922 4741 2156 4947 
L 2388 4947 
L 2388 0 
L 1781 0 
z
" transform="scale(0.015625)"/>
       </defs>
       <use xlink:href="#MicrosoftYaHei-31"/>
       <use xlink:href="#MicrosoftYaHei-2e" transform="translate(58.642578 0)"/>
       <use xlink:href="#MicrosoftYaHei-30" transform="translate(82.714844 0)"/>
      </g>
     </g>
    </g>
    <g id="ytick_4">
     <g id="line2d_6">
      <g>
       <use xlink:href="#mae7fcc5b46" x="43.863594" y="158.407571" style="stroke: #000000; stroke-width: 0.8"/>
      </g>
     </g>
     <g id="text_6">
      <!-- 1.5 -->
      <g transform="translate(22.727656 162.404446) scale(0.1 -0.1)">
       <use xlink:href="#MicrosoftYaHei-31"/>
       <use xlink:href="#MicrosoftYaHei-2e" transform="translate(58.642578 0)"/>
       <use xlink:href="#MicrosoftYaHei-35" transform="translate(82.714844 0)"/>
      </g>
     </g>
    </g>
    <g id="ytick_5">
     <g id="line2d_7">
      <g>
       <use xlink:href="#mae7fcc5b46" x="43.863594" y="136.289679" style="stroke: #000000; stroke-width: 0.8"/>
      </g>
     </g>
     <g id="text_7">
      <!-- 2.0 -->
      <g transform="translate(22.727656 140.286554) scale(0.1 -0.1)">
       <defs>
        <path id="MicrosoftYaHei-32" d="M 2666 3572 
Q 2666 3963 2419 4186 
Q 2172 4409 1747 4409 
Q 1447 4409 1140 4256 
Q 834 4103 569 3819 
L 569 4413 
Q 806 4659 1107 4790 
Q 1409 4922 1816 4922 
Q 2472 4922 2872 4570 
Q 3272 4219 3272 3619 
Q 3272 3084 3026 2693 
Q 2781 2303 2188 1894 
Q 1581 1475 1376 1294 
Q 1172 1113 1090 947 
Q 1009 781 1009 544 
L 3416 544 
L 3416 0 
L 372 0 
L 372 241 
Q 372 659 486 951 
Q 600 1244 862 1520 
Q 1125 1797 1681 2184 
Q 2250 2584 2458 2886 
Q 2666 3188 2666 3572 
z
" transform="scale(0.015625)"/>
       </defs>
       <use xlink:href="#MicrosoftYaHei-32"/>
       <use xlink:href="#MicrosoftYaHei-2e" transform="translate(58.642578 0)"/>
       <use xlink:href="#MicrosoftYaHei-30" transform="translate(82.714844 0)"/>
      </g>
     </g>
    </g>
    <g id="ytick_6">
     <g id="line2d_8">
      <g>
       <use xlink:href="#mae7fcc5b46" x="43.863594" y="114.171786" style="stroke: #000000; stroke-width: 0.8"/>
      </g>
     </g>
     <g id="text_8">
      <!-- 2.5 -->
      <g transform="translate(22.727656 118.168661) scale(0.1 -0.1)">
       <use xlink:href="#MicrosoftYaHei-32"/>
       <use xlink:href="#MicrosoftYaHei-2e" transform="translate(58.642578 0)"/>
       <use xlink:href="#MicrosoftYaHei-35" transform="translate(82.714844 0)"/>
      </g>
     </g>
    </g>
    <g id="ytick_7">
     <g id="line2d_9">
      <g>
       <use xlink:href="#mae7fcc5b46" x="43.863594" y="92.053893" style="stroke: #000000; stroke-width: 0.8"/>
      </g>
     </g>
     <g id="text_9">
      <!-- 3.0 -->
      <g transform="translate(22.727656 96.050768) scale(0.1 -0.1)">
       <defs>
        <path id="MicrosoftYaHei-33" d="M 447 809 
Q 944 425 1569 425 
Q 2069 425 2361 670 
Q 2653 916 2653 1328 
Q 2653 2247 1338 2247 
L 934 2247 
L 934 2753 
L 1319 2753 
Q 2484 2753 2484 3616 
Q 2484 4413 1594 4413 
Q 1084 4413 634 4069 
L 634 4647 
Q 1109 4922 1744 4922 
Q 2363 4922 2738 4598 
Q 3113 4275 3113 3759 
Q 3113 2809 2144 2538 
L 2144 2525 
Q 2669 2469 2973 2155 
Q 3278 1841 3278 1372 
Q 3278 719 2808 319 
Q 2338 -81 1556 -81 
Q 869 -81 447 175 
L 447 809 
z
" transform="scale(0.015625)"/>
       </defs>
       <use xlink:href="#MicrosoftYaHei-33"/>
       <use xlink:href="#MicrosoftYaHei-2e" transform="translate(58.642578 0)"/>
       <use xlink:href="#MicrosoftYaHei-30" transform="translate(82.714844 0)"/>
      </g>
     </g>
    </g>
    <g id="ytick_8">
     <g id="line2d_10">
      <g>
       <use xlink:href="#mae7fcc5b46" x="43.863594" y="69.936" style="stroke: #000000; stroke-width: 0.8"/>
      </g>
     </g>
     <g id="text_10">
      <!-- 3.5 -->
      <g transform="translate(22.727656 73.932875) scale(0.1 -0.1)">
       <use xlink:href="#MicrosoftYaHei-33"/>
       <use xlink:href="#MicrosoftYaHei-2e" transform="translate(58.642578 0)"/>
       <use xlink:href="#MicrosoftYaHei-35" transform="translate(82.714844 0)"/>
      </g>
     </g>
    </g>
    <g id="text_11">
     <!-- 摩擦力/N -->
     <g transform="translate(15.993125 170.669484) rotate(-90) scale(0.11 -0.11)">
      <defs>
       <path id="MicrosoftYaHei-6469" d="M 1094 197 
L 1094 572 
L 3375 572 
L 3375 959 
L 1406 959 
L 1406 1322 
L 3375 1322 
L 3375 1716 
Q 2525 1691 1463 1666 
L 1388 2047 
Q 4000 2084 5481 2234 
L 5638 1841 
Q 4938 1784 3813 1734 
L 3813 1322 
L 5794 1322 
L 5794 959 
L 3813 959 
L 3813 572 
L 6219 572 
L 6219 197 
L 3813 197 
L 3813 41 
Q 3813 -747 3094 -747 
Q 2725 -747 2375 -734 
Q 2350 -522 2306 -253 
Q 2669 -309 2988 -309 
Q 3375 -309 3375 122 
L 3375 197 
L 1094 197 
z
M 3069 5109 
L 3488 5341 
Q 3656 5103 3875 4741 
L 6281 4741 
L 6281 4341 
L 1088 4341 
L 1088 2316 
Q 1088 378 438 -809 
Q 363 -672 75 -372 
Q 650 641 650 2316 
L 650 4741 
L 3300 4741 
Q 3200 4909 3069 5109 
z
M 3175 2528 
Q 3831 2878 4344 3434 
L 3594 3434 
L 3594 3778 
L 4481 3778 
L 4481 4247 
L 4875 4247 
L 4875 3778 
L 5988 3778 
L 5988 3434 
L 4988 3434 
Q 5556 2853 6294 2572 
Q 6113 2403 5994 2228 
Q 5369 2578 4875 3166 
L 4875 2353 
L 4481 2353 
L 4481 3159 
Q 4025 2609 3444 2234 
Q 3363 2353 3175 2528 
z
M 1113 2597 
Q 1644 2859 2131 3434 
L 1269 3434 
L 1269 3778 
L 2231 3778 
L 2231 4247 
L 2625 4247 
L 2625 3778 
L 3319 3778 
L 3319 3434 
L 2625 3434 
L 2625 3128 
L 2794 3297 
Q 3113 3091 3381 2891 
L 3131 2653 
Q 2850 2878 2625 3034 
L 2625 2266 
L 2231 2266 
L 2231 3097 
Q 1856 2616 1381 2272 
Q 1269 2428 1113 2597 
z
" transform="scale(0.015625)"/>
       <path id="MicrosoftYaHei-64e6" d="M 1688 2397 
Q 2394 3134 2719 4109 
L 3144 3997 
Q 3094 3859 3038 3728 
L 3844 3728 
L 3844 3341 
Q 3650 2659 3244 2097 
L 4763 2097 
Q 4213 2859 4038 3978 
L 4438 4066 
Q 4463 3878 4506 3703 
L 5969 3703 
L 5969 3309 
Q 5656 2741 5288 2147 
Q 5700 1703 6288 1434 
Q 6131 1234 6000 1028 
Q 5263 1416 4794 2053 
L 4794 1722 
L 3200 1722 
L 3200 2028 
Q 2869 1591 2406 1222 
L 5644 1222 
L 5644 847 
L 4231 847 
L 4231 -178 
Q 4231 -766 3669 -797 
Q 3375 -809 3019 -809 
Q 2994 -566 2938 -328 
Q 3256 -353 3500 -353 
Q 3756 -347 3756 -72 
L 3756 847 
L 2381 847 
L 2381 1197 
Q 2163 1028 1925 878 
Q 1813 1047 1625 1247 
Q 2138 1509 2525 1878 
Q 2381 2034 2219 2166 
L 2444 2447 
Q 2619 2309 2788 2166 
Q 2919 2316 3025 2484 
Q 2838 2647 2663 2753 
L 2856 3059 
Q 3031 2953 3213 2816 
Q 3338 3066 3431 3341 
L 2856 3341 
Q 2538 2703 1981 2091 
Q 1856 2228 1688 2397 
z
M 75 1772 
Q 350 1891 781 2097 
L 781 3516 
L 138 3516 
L 138 3941 
L 781 3941 
L 781 5228 
L 1213 5228 
L 1213 3941 
L 1750 3941 
L 1750 3516 
L 1213 3516 
L 1213 2303 
Q 1413 2403 1644 2522 
Q 1688 2241 1738 2072 
Q 1669 2041 1213 1803 
L 1213 -153 
Q 1213 -791 650 -791 
Q 538 -791 206 -784 
Q 194 -559 163 -291 
Q 413 -328 569 -322 
Q 781 -316 781 -78 
L 781 1578 
Q 544 1459 244 1303 
L 75 1772 
z
M 1963 4672 
L 3744 4672 
Q 3606 4884 3406 5109 
L 3825 5316 
Q 4056 5034 4194 4847 
L 3869 4672 
L 6038 4672 
L 6038 3797 
L 5563 3797 
L 5563 4284 
L 2438 4284 
L 2438 3728 
L 1963 3728 
L 1963 4672 
z
M 5006 603 
Q 5675 84 6106 -297 
L 5769 -672 
Q 5306 -191 4663 297 
L 5006 603 
z
M 2744 603 
L 3106 316 
Q 2600 -216 2069 -672 
Q 1931 -503 1719 -341 
Q 2356 153 2744 603 
z
M 5488 3316 
L 4613 3316 
Q 4763 2866 5006 2503 
Q 5263 2897 5488 3316 
z
" transform="scale(0.015625)"/>
       <path id="MicrosoftYaHei-529b" d="M 400 3916 
L 2425 3916 
Q 2444 4603 2450 5316 
L 2994 5316 
Q 2981 4653 2963 3916 
L 5831 3916 
Q 5756 1472 5688 459 
Q 5606 -616 4538 -628 
Q 4025 -628 3300 -603 
Q 3275 -359 3206 -9 
L 3225 -9 
Q 4038 -84 4488 -78 
Q 5094 -66 5156 591 
Q 5231 1709 5269 3403 
L 2950 3403 
Q 2894 1775 2431 953 
Q 1938 41 506 -803 
Q 331 -578 131 -328 
Q 1488 434 1913 1209 
Q 2353 1913 2406 3403 
L 400 3403 
L 400 3916 
z
" transform="scale(0.015625)"/>
       <path id="MicrosoftYaHei-2f" d="M 2791 4841 
L 469 -803 
L -103 -803 
L 2219 4841 
L 2791 4841 
z
" transform="scale(0.015625)"/>
       <path id="MicrosoftYaHei-4e" d="M 4578 0 
L 3838 0 
L 1403 3766 
Q 1300 3925 1238 4081 
L 1219 4081 
Q 1244 3919 1244 3403 
L 1244 0 
L 625 0 
L 625 4841 
L 1409 4841 
L 3778 1141 
Q 3947 878 3978 806 
L 3991 806 
Q 3959 1013 3959 1513 
L 3959 4841 
L 4578 4841 
L 4578 0 
z
" transform="scale(0.015625)"/>
      </defs>
      <use xlink:href="#MicrosoftYaHei-6469"/>
      <use xlink:href="#MicrosoftYaHei-64e6" transform="translate(100 0)"/>
      <use xlink:href="#MicrosoftYaHei-529b" transform="translate(200 0)"/>
      <use xlink:href="#MicrosoftYaHei-2f" transform="translate(300 0)"/>
      <use xlink:href="#MicrosoftYaHei-4e" transform="translate(342.724609 0)"/>
     </g>
    </g>
   </g>
   <g id="patch_5">
    <path d="M 43.863594 224.76125 
L 43.863594 69.936 
" style="fill: none; stroke: #000000; stroke-width: 0.8; stroke-linejoin: miter; stroke-linecap: square"/>
   </g>
   <g id="patch_6">
    <path d="M 279.013594 224.76125 
L 279.013594 69.936 
" style="fill: none; stroke: #000000; stroke-width: 0.8; stroke-linejoin: miter; stroke-linecap: square"/>
   </g>
   <g id="patch_7">
    <path d="M 43.863594 224.76125 
L 279.013594 224.76125 
" style="fill: none; stroke: #000000; stroke-width: 0.8; stroke-linejoin: miter; stroke-linecap: square"/>
   </g>
   <g id="patch_8">
    <path d="M 43.863594 69.936 
L 279.013594 69.936 
" style="fill: none; stroke: #000000; stroke-width: 0.8; stroke-linejoin: miter; stroke-linecap: square"/>
   </g>
   <g id="text_12">
    <!-- 0.5 -->
    <g transform="translate(81.826174 198.219779) scale(0.11 -0.11)">
     <defs>
      <path id="MicrosoftYaHei-Bold-30" d="M 244 2341 
Q 244 3597 706 4259 
Q 1169 4922 2044 4922 
Q 3713 4922 3713 2453 
Q 3713 1238 3259 577 
Q 2806 -84 1950 -84 
Q 244 -84 244 2341 
z
M 1266 2366 
Q 1266 691 1981 691 
Q 2684 691 2684 2416 
Q 2684 4147 2000 4147 
Q 1266 4147 1266 2366 
z
" transform="scale(0.015625)"/>
      <path id="MicrosoftYaHei-Bold-2e" d="M 313 453 
Q 313 688 491 838 
Q 669 988 916 988 
Q 1166 988 1337 834 
Q 1509 681 1509 453 
Q 1509 213 1337 64 
Q 1166 -84 903 -84 
Q 659 -84 486 69 
Q 313 222 313 453 
z
" transform="scale(0.015625)"/>
      <path id="MicrosoftYaHei-Bold-35" d="M 541 125 
L 541 997 
Q 1044 691 1613 691 
Q 2041 691 2283 902 
Q 2525 1113 2525 1472 
Q 2525 2225 1494 2225 
Q 1113 2225 616 2169 
L 797 4841 
L 3359 4841 
L 3359 4009 
L 1613 4009 
L 1544 2991 
Q 1803 3013 2022 3013 
Q 2731 3013 3142 2625 
Q 3553 2238 3553 1575 
Q 3553 844 3056 380 
Q 2559 -84 1706 -84 
Q 1016 -84 541 125 
z
" transform="scale(0.015625)"/>
     </defs>
     <use xlink:href="#MicrosoftYaHei-Bold-30"/>
     <use xlink:href="#MicrosoftYaHei-Bold-2e" transform="translate(61.669922 0)"/>
     <use xlink:href="#MicrosoftYaHei-Bold-35" transform="translate(90.234375 0)"/>
    </g>
   </g>
   <g id="text_13">
    <!-- 2.5 -->
    <g transform="translate(224.341326 109.748207) scale(0.11 -0.11)">
     <defs>
      <path id="MicrosoftYaHei-Bold-32" d="M 1500 841 
L 3553 841 
L 3553 0 
L 334 0 
L 334 359 
Q 334 738 473 1050 
Q 613 1363 856 1633 
Q 1100 1903 1613 2266 
Q 2081 2616 2268 2886 
Q 2456 3156 2456 3459 
Q 2456 4113 1744 4113 
Q 1119 4113 550 3613 
L 550 4513 
Q 1184 4922 1975 4922 
Q 2700 4922 3122 4551 
Q 3544 4181 3544 3531 
Q 3544 3169 3422 2876 
Q 3300 2584 3069 2328 
Q 2838 2072 2328 1713 
Q 1838 1363 1669 1172 
Q 1500 981 1500 841 
z
" transform="scale(0.015625)"/>
     </defs>
     <use xlink:href="#MicrosoftYaHei-Bold-32"/>
     <use xlink:href="#MicrosoftYaHei-Bold-2e" transform="translate(61.669922 0)"/>
     <use xlink:href="#MicrosoftYaHei-Bold-35" transform="translate(90.234375 0)"/>
    </g>
   </g>
   <g id="text_14">
    <!-- 接触面粗糙程度 -->
    <g style="fill: #c0392b" transform="translate(119.438594 49.441875) scale(0.12 -0.12)">
     <defs>
      <path id="MicrosoftYaHei-Bold-63a5" d="M 6106 4059 
L 5156 4059 
L 5738 3828 
L 5344 3303 
L 6300 3303 
L 6300 2603 
L 3475 2603 
L 4150 2409 
L 3975 2097 
L 6238 2097 
L 6238 1397 
L 5609 1397 
Q 5406 831 5000 397 
L 6213 -103 
L 5794 -841 
Q 5016 -441 4353 -128 
Q 3528 -650 2238 -859 
Q 2075 -509 1844 -116 
Q 2806 -3 3463 275 
Q 2825 550 2331 716 
Q 2541 1047 2722 1397 
L 2075 1397 
L 2075 1631 
Q 1859 1600 1625 1556 
L 1625 3 
Q 1625 -359 1467 -556 
Q 1309 -753 1001 -779 
Q 694 -806 281 -816 
Q 225 -409 94 9 
Q 325 -3 503 -3 
Q 694 -3 753 59 
Q 813 122 813 291 
L 813 1403 
L 194 1272 
L 94 2166 
Q 394 2200 813 2259 
L 813 3347 
L 194 3347 
L 194 4147 
L 813 4147 
L 813 5303 
L 1625 5303 
L 1625 4147 
L 2156 4147 
L 2156 3347 
L 1625 3347 
L 1625 2384 
L 2119 2466 
Q 2109 2266 2109 2097 
L 3056 2097 
Q 3163 2344 3259 2603 
L 2081 2603 
L 2081 3303 
L 2969 3303 
Q 2784 3628 2650 3828 
L 3169 4059 
L 2300 4059 
L 2300 4759 
L 3688 4759 
Q 3597 4991 3500 5197 
L 4438 5353 
Q 4547 5091 4653 4759 
L 6106 4759 
L 6106 4059 
z
M 3931 3472 
L 3541 3303 
L 4391 3303 
Q 4700 3781 4850 4059 
L 3525 4059 
Q 3703 3819 3931 3472 
z
M 3375 1034 
L 4200 716 
Q 4544 1009 4709 1397 
L 3581 1397 
L 3375 1034 
z
" transform="scale(0.015625)"/>
      <path id="MicrosoftYaHei-Bold-89e6" d="M 1069 5359 
L 1825 5259 
Q 1747 5069 1659 4891 
L 2781 4891 
L 2781 4303 
L 2466 3734 
L 2988 3734 
L 2988 -9 
Q 2988 -372 2861 -569 
Q 2734 -766 2501 -806 
Q 2269 -847 1944 -847 
Q 1909 -656 1872 -472 
L 1394 -472 
L 1394 778 
L 1025 778 
Q 934 -347 669 -916 
Q 369 -616 56 -366 
Q 419 459 419 2241 
L 419 3119 
Q 359 3059 300 3003 
Q 225 3403 81 3872 
Q 719 4528 1069 5359 
z
M 953 3734 
L 1681 3734 
L 1981 4278 
L 1328 4278 
Q 1153 3994 953 3734 
z
M 2344 3134 
L 1988 3134 
L 1988 2541 
L 2344 2541 
L 2344 3134 
z
M 1075 2541 
L 1394 2541 
L 1394 3134 
L 1075 3134 
L 1075 2541 
z
M 1988 1366 
L 2344 1366 
L 2344 1953 
L 1988 1953 
L 1988 1366 
z
M 1059 1366 
L 1394 1366 
L 1394 1953 
L 1075 1953 
Q 1072 1644 1059 1366 
z
M 2344 778 
L 1988 778 
L 1988 -131 
Q 2213 -141 2278 -72 
Q 2344 -3 2344 197 
L 2344 778 
z
M 3244 4197 
L 4281 4197 
L 4281 5291 
L 5019 5291 
L 5019 4197 
L 6063 4197 
L 6063 1378 
L 5019 1378 
L 5019 300 
L 5413 338 
L 5244 934 
L 5825 1103 
Q 6144 122 6325 -647 
L 5713 -828 
L 5603 -381 
Q 4516 -488 3188 -653 
L 3069 166 
L 4281 241 
L 4281 1378 
L 3888 1378 
L 3888 1028 
L 3244 1028 
L 3244 4197 
z
M 5413 2078 
L 5413 3497 
L 5019 3497 
L 5019 2078 
L 5413 2078 
z
M 3888 2078 
L 4281 2078 
L 4281 3497 
L 3888 3497 
L 3888 2078 
z
" transform="scale(0.015625)"/>
      <path id="MicrosoftYaHei-Bold-9762" d="M 181 4997 
L 6213 4997 
L 6213 4297 
L 3553 4297 
Q 3400 3950 3269 3678 
L 5881 3678 
L 5881 -828 
L 5081 -828 
L 5081 -503 
L 1319 -503 
L 1319 -828 
L 519 -828 
L 519 3678 
L 2272 3678 
Q 2388 3969 2500 4297 
L 181 4297 
L 181 4997 
z
M 5081 2984 
L 4500 2984 
L 4500 191 
L 5081 191 
L 5081 2984 
z
M 1319 191 
L 1869 191 
L 1869 2984 
L 1319 2984 
L 1319 191 
z
M 2656 2478 
L 3713 2478 
L 3713 2984 
L 2656 2984 
L 2656 2478 
z
M 2656 1341 
L 3713 1341 
L 3713 1847 
L 2656 1847 
L 2656 1341 
z
M 2656 191 
L 3713 191 
L 3713 709 
L 2656 709 
L 2656 191 
z
" transform="scale(0.015625)"/>
      <path id="MicrosoftYaHei-Bold-7c97" d="M 119 3141 
L 1050 3141 
L 1050 5334 
L 1850 5334 
L 1850 3141 
L 2719 3141 
L 2719 2397 
L 1850 2397 
L 1850 1950 
L 2169 2153 
Q 2550 1697 2881 1222 
Q 2613 1034 2250 797 
Q 2044 1131 1850 1416 
L 1850 -822 
L 1050 -822 
L 1050 1081 
Q 756 447 363 -72 
Q 238 441 81 928 
Q 569 1563 944 2397 
L 119 2397 
L 119 3141 
z
M 6319 -628 
L 2363 -628 
L 2363 178 
L 2963 178 
L 2963 5059 
L 5975 5059 
L 5975 178 
L 6319 178 
L 6319 -628 
z
M 5150 4253 
L 3788 4253 
L 3788 3422 
L 5150 3422 
L 5150 4253 
z
M 3788 1803 
L 5150 1803 
L 5150 2634 
L 3788 2634 
L 3788 1803 
z
M 3788 178 
L 5150 178 
L 5150 1016 
L 3788 1016 
L 3788 178 
z
M 2350 4878 
L 2900 4697 
Q 2688 4041 2406 3372 
L 1881 3603 
Q 2131 4159 2350 4878 
z
M 650 4822 
Q 844 4178 988 3522 
L 425 3372 
Q 313 3941 125 4678 
L 650 4822 
z
" transform="scale(0.015625)"/>
      <path id="MicrosoftYaHei-Bold-7cd9" d="M 138 3109 
L 831 3109 
L 831 5291 
L 1519 5291 
L 1519 3594 
Q 1681 4147 1844 4822 
L 2322 4675 
L 2219 5091 
L 2875 5228 
Q 3063 4522 3219 3816 
L 2531 3659 
Q 2453 4103 2338 4603 
Q 2159 3956 1975 3403 
L 1519 3547 
L 1519 3109 
L 2056 3109 
L 2056 2434 
L 1519 2434 
L 1519 1850 
L 1719 2028 
Q 2125 1641 2431 1322 
L 1950 859 
Q 1731 1122 1519 1359 
L 1519 -828 
L 831 -828 
L 831 1081 
Q 575 431 294 -78 
Q 194 322 38 859 
Q 400 1494 784 2434 
L 138 2434 
L 138 3109 
z
M 3319 3341 
L 4544 3341 
L 4544 3853 
L 4038 3853 
L 3925 3409 
L 3250 3578 
Q 3488 4353 3650 5166 
L 4306 5072 
Q 4259 4813 4197 4528 
L 4544 4528 
L 4544 5278 
L 5306 5278 
L 5306 4528 
L 6138 4528 
L 6138 3853 
L 5306 3853 
L 5306 3341 
L 6288 3341 
L 6288 2666 
L 3319 2666 
L 3319 3341 
z
M 550 4809 
Q 706 4166 822 3550 
L 331 3409 
Q 213 3997 56 4678 
L 550 4809 
z
M 6313 72 
Q 6163 -409 6100 -697 
L 4553 -700 
Q 3572 -703 3259 -501 
Q 2947 -300 2850 -78 
Q 2600 -441 2356 -841 
L 1906 -53 
L 2481 619 
L 2481 2141 
L 2131 2141 
L 2131 2866 
L 3213 2866 
L 3213 528 
Q 3478 47 4406 47 
Q 5094 47 6313 72 
z
M 6100 2328 
L 6100 428 
L 3675 428 
L 3675 2328 
L 6100 2328 
z
M 5350 1091 
L 5350 1666 
L 4425 1666 
L 4425 1091 
L 5350 1091 
z
" transform="scale(0.015625)"/>
      <path id="MicrosoftYaHei-Bold-7a0b" d="M 125 3484 
L 956 3484 
L 956 4172 
Q 584 4134 213 4109 
Q 169 4584 100 4909 
Q 1088 4959 2325 5172 
L 2519 4391 
Q 2138 4322 1756 4269 
L 1756 3484 
L 2469 3484 
L 2469 2741 
L 1756 2741 
L 1756 2053 
L 1931 2228 
Q 2244 1966 2744 1491 
L 2188 953 
Q 1966 1228 1756 1466 
L 1756 -866 
L 956 -866 
L 956 1544 
Q 725 841 388 203 
Q 269 741 88 1253 
Q 500 1825 838 2741 
L 125 2741 
L 125 3484 
z
M 2688 5066 
L 5944 5066 
L 5944 2966 
L 2688 2966 
L 2688 5066 
z
M 5113 4341 
L 3519 4341 
L 3519 3691 
L 5113 3691 
L 5113 4341 
z
M 2238 53 
L 3888 53 
L 3888 591 
L 2663 591 
L 2663 1291 
L 3888 1291 
L 3888 1809 
L 2550 1809 
L 2550 2534 
L 6150 2534 
L 6150 1809 
L 4744 1809 
L 4744 1291 
L 5981 1291 
L 5981 591 
L 4744 591 
L 4744 53 
L 6300 53 
L 6300 -672 
L 2238 -672 
L 2238 53 
z
" transform="scale(0.015625)"/>
      <path id="MicrosoftYaHei-Bold-5ea6" d="M 5656 1697 
L 5656 1022 
Q 5156 447 4656 97 
Q 5344 -34 6306 -66 
Q 6119 -428 5938 -822 
Q 4556 -653 3719 -353 
Q 2825 -653 1494 -872 
Q 1338 -522 1088 -178 
Q 2100 -128 2888 78 
Q 2369 453 1938 1022 
L 1538 1022 
L 1538 1697 
L 5656 1697 
z
M 1325 2478 
Q 1338 134 700 -884 
Q 356 -553 19 -297 
Q 550 697 525 2591 
L 525 4772 
L 3013 4772 
Q 2944 4953 2831 5209 
L 3869 5359 
Q 3981 5072 4094 4772 
L 6256 4772 
L 6256 4072 
L 1325 4072 
L 1325 2478 
z
M 1463 3684 
L 2144 3684 
L 2144 3947 
L 2944 3947 
L 2944 3684 
L 4494 3684 
L 4494 3947 
L 5294 3947 
L 5294 3684 
L 6144 3684 
L 6144 3009 
L 5294 3009 
L 5294 1991 
L 2144 1991 
L 2144 3009 
L 1463 3009 
L 1463 3684 
z
M 3756 378 
Q 4325 641 4725 1022 
L 2825 1022 
Q 3225 622 3756 378 
z
M 4494 2628 
L 4494 3009 
L 2944 3009 
L 2944 2628 
L 4494 2628 
z
" transform="scale(0.015625)"/>
     </defs>
     <use xlink:href="#MicrosoftYaHei-Bold-63a5"/>
     <use xlink:href="#MicrosoftYaHei-Bold-89e6" transform="translate(100 0)"/>
     <use xlink:href="#MicrosoftYaHei-Bold-9762" transform="translate(200 0)"/>
     <use xlink:href="#MicrosoftYaHei-Bold-7c97" transform="translate(300 0)"/>
     <use xlink:href="#MicrosoftYaHei-Bold-7cd9" transform="translate(400 0)"/>
     <use xlink:href="#MicrosoftYaHei-Bold-7a0b" transform="translate(500 0)"/>
     <use xlink:href="#MicrosoftYaHei-Bold-5ea6" transform="translate(600 0)"/>
    </g>
    <!-- （压力相同时） -->
    <g style="fill: #c0392b" transform="translate(119.438594 63.936) scale(0.12 -0.12)">
     <defs>
      <path id="MicrosoftYaHei-Bold-ff08" d="M 5197 -1088 
Q 4056 184 4056 1881 
Q 4056 3616 5203 4838 
L 6034 4838 
Q 4922 3503 4922 1888 
Q 4922 266 6028 -1088 
L 5197 -1088 
z
" transform="scale(0.015625)"/>
      <path id="MicrosoftYaHei-Bold-538b" d="M 1563 2459 
Q 1563 322 681 -803 
Q 356 -278 69 59 
Q 688 959 688 2428 
L 688 4922 
L 6219 4922 
L 6219 4109 
L 1563 4109 
L 1563 2459 
z
M 5994 1953 
L 4188 1953 
L 4188 259 
L 6250 259 
L 6250 -541 
L 1363 -541 
L 1363 259 
L 3288 259 
L 3288 1953 
L 1825 1953 
L 1825 2728 
L 3288 2728 
L 3288 3953 
L 4188 3953 
L 4188 2728 
L 5994 2728 
L 5994 1953 
z
M 4469 1409 
L 5050 1884 
Q 5525 1397 5994 872 
L 5350 353 
Q 4944 866 4469 1409 
z
" transform="scale(0.015625)"/>
      <path id="MicrosoftYaHei-Bold-529b" d="M 2094 5309 
L 3063 5309 
L 3022 4066 
L 5988 4066 
L 5931 2203 
Q 5897 1225 5859 593 
Q 5822 -38 5489 -373 
Q 5156 -709 4611 -721 
Q 4066 -734 3225 -728 
Q 3138 -184 3038 247 
Q 3531 197 4188 197 
Q 4503 197 4665 320 
Q 4828 444 4876 623 
Q 4925 803 4964 1515 
Q 5003 2228 5025 3241 
L 2978 3241 
Q 2919 603 769 -891 
Q 444 -491 38 -84 
Q 1963 1059 2031 3241 
L 381 3241 
L 381 4066 
L 2075 4066 
Q 2097 4644 2094 5309 
z
" transform="scale(0.015625)"/>
      <path id="MicrosoftYaHei-Bold-76f8" d="M 75 1559 
Q 663 2469 916 3297 
L 138 3297 
L 138 4116 
L 938 4116 
L 938 5272 
L 1763 5272 
L 1763 4116 
L 2456 4116 
L 2456 3297 
L 1763 3297 
L 1763 2741 
Q 2194 2503 2569 2266 
L 2200 1553 
Q 1988 1722 1763 1888 
L 1763 -834 
L 938 -834 
L 938 1641 
Q 672 1034 306 459 
Q 194 1047 75 1559 
z
M 2625 4966 
L 6050 4966 
L 6050 -859 
L 5188 -859 
L 5188 -547 
L 3488 -547 
L 3488 -859 
L 2625 -859 
L 2625 4966 
z
M 5188 4166 
L 3488 4166 
L 3488 3391 
L 5188 3391 
L 5188 4166 
z
M 3488 1828 
L 5188 1828 
L 5188 2603 
L 3488 2603 
L 3488 1828 
z
M 3488 253 
L 5188 253 
L 5188 1041 
L 3488 1041 
L 3488 253 
z
" transform="scale(0.015625)"/>
      <path id="MicrosoftYaHei-Bold-540c" d="M 381 5078 
L 6019 5078 
L 6019 291 
Q 6019 -253 5776 -523 
Q 5534 -794 5107 -801 
Q 4681 -809 4075 -809 
Q 3981 -309 3881 59 
Q 4272 19 4597 19 
Q 4847 19 4950 45 
Q 5053 72 5117 165 
Q 5181 259 5181 416 
L 5181 4297 
L 1219 4297 
L 1219 -797 
L 381 -797 
L 381 5078 
z
M 4875 3078 
L 1525 3078 
L 1525 3791 
L 4875 3791 
L 4875 3078 
z
M 1738 2591 
L 4638 2591 
L 4638 403 
L 2550 403 
L 2550 3 
L 1738 3 
L 1738 2591 
z
M 3825 1103 
L 3825 1891 
L 2550 1891 
L 2550 1103 
L 3825 1103 
z
" transform="scale(0.015625)"/>
      <path id="MicrosoftYaHei-Bold-65f6" d="M 3038 4241 
L 4888 4241 
L 4888 5291 
L 5781 5291 
L 5781 4241 
L 6306 4241 
L 6306 3409 
L 5781 3409 
L 5781 316 
Q 5781 -209 5547 -478 
Q 5313 -747 4898 -762 
Q 4484 -778 3669 -778 
Q 3569 -209 3456 134 
Q 4344 109 4431 109 
Q 4888 109 4888 584 
L 4888 3409 
L 3038 3409 
L 3038 4241 
z
M 394 -497 
L 394 4897 
L 2856 4897 
L 2856 -459 
L 2031 -459 
L 2031 -28 
L 1219 -28 
L 1219 -497 
L 394 -497 
z
M 2031 4072 
L 1219 4072 
L 1219 2834 
L 2031 2834 
L 2031 4072 
z
M 1219 797 
L 2031 797 
L 2031 2034 
L 1219 2034 
L 1219 797 
z
M 3588 3072 
Q 4013 2541 4713 1559 
L 3956 1066 
Q 3388 2009 2938 2641 
L 3588 3072 
z
" transform="scale(0.015625)"/>
      <path id="MicrosoftYaHei-Bold-ff09" d="M 1191 -1088 
L 359 -1088 
Q 1472 238 1472 1863 
Q 1472 3478 366 4838 
L 1197 4838 
Q 2338 3572 2338 1863 
Q 2338 125 1191 -1088 
z
" transform="scale(0.015625)"/>
     </defs>
     <use xlink:href="#MicrosoftYaHei-Bold-ff08"/>
     <use xlink:href="#MicrosoftYaHei-Bold-538b" transform="translate(100 0)"/>
     <use xlink:href="#MicrosoftYaHei-Bold-529b" transform="translate(200 0)"/>
     <use xlink:href="#MicrosoftYaHei-Bold-76f8" transform="translate(300 0)"/>
     <use xlink:href="#MicrosoftYaHei-Bold-540c" transform="translate(400 0)"/>
     <use xlink:href="#MicrosoftYaHei-Bold-65f6" transform="translate(500 0)"/>
     <use xlink:href="#MicrosoftYaHei-Bold-ff09" transform="translate(600 0)"/>
    </g>
   </g>
  </g>
  <g id="axes_2">
   <g id="patch_9">
    <path d="M 326.463594 224.76125 
L 561.613594 224.76125 
L 561.613594 69.936 
L 326.463594 69.936 
z
" style="fill: #ffffff"/>
   </g>
   <g id="patch_10">
    <path d="M 337.15223 224.76125 
L 408.409806 224.76125 
L 408.409806 180.525464 
L 337.15223 180.525464 
z
" clip-path="url(#p1e146aefa3)" style="fill: #3498db; stroke: #333333; stroke-linejoin: miter"/>
   </g>
   <g id="patch_11">
    <path d="M 479.667382 224.76125 
L 550.924957 224.76125 
L 550.924957 92.053893 
L 479.667382 92.053893 
z
" clip-path="url(#p1e146aefa3)" style="fill: #c0392b; stroke: #333333; stroke-linejoin: miter"/>
   </g>
   <g id="matplotlib.axis_3">
    <g id="xtick_3">
     <g id="line2d_11">
      <g>
       <use xlink:href="#mfa16833750" x="372.781018" y="224.76125" style="stroke: #000000; stroke-width: 0.8"/>
      </g>
     </g>
     <g id="text_15">
      <!-- 轻物 (1kg) -->
      <g transform="translate(349.214612 240.194062) scale(0.1 -0.1)">
       <defs>
        <path id="MicrosoftYaHei-8f7b" d="M 694 2441 
L 1350 2441 
L 1350 3616 
L 1788 3616 
L 1788 2441 
L 2413 2441 
L 2413 2028 
L 1788 2028 
L 1788 1134 
Q 2159 1178 2556 1228 
Q 2525 984 2513 791 
Q 2147 750 1788 709 
L 1788 -847 
L 1350 -847 
L 1350 656 
Q 744 581 150 503 
L 100 966 
Q 681 1016 1350 1088 
L 1350 2028 
L 238 2028 
L 238 2441 
Q 494 3181 728 4022 
L 150 4022 
L 150 4434 
L 844 4434 
Q 969 4900 1088 5397 
L 1550 5303 
Q 1425 4856 1303 4434 
L 2494 4434 
L 2494 4022 
L 1184 4022 
Q 934 3175 694 2441 
z
M 2719 4897 
L 5619 4897 
L 5619 4472 
Q 5266 3906 4763 3425 
Q 5591 2975 6344 2516 
L 6050 2103 
Q 5191 2678 4422 3125 
Q 3713 2550 2756 2116 
Q 2606 2341 2438 2534 
Q 4175 3241 5069 4459 
L 2719 4459 
L 2719 4897 
z
M 2331 -128 
L 4069 -128 
L 4069 1441 
L 2788 1441 
L 2788 1878 
L 5788 1878 
L 5788 1441 
L 4531 1441 
L 4531 -128 
L 6256 -128 
L 6256 -566 
L 2331 -566 
L 2331 -128 
z
" transform="scale(0.015625)"/>
        <path id="MicrosoftYaHei-7269" d="M 2131 2866 
Q 2750 3816 3263 5341 
L 3719 5203 
Q 3541 4706 3363 4278 
L 6075 4278 
Q 5950 1759 5869 422 
Q 5800 -622 4869 -622 
Q 4519 -622 4044 -603 
Q 4013 -372 3956 -72 
Q 4500 -134 4819 -134 
Q 5325 -134 5375 441 
Q 5488 1759 5575 3834 
L 5097 3834 
Q 4934 2241 4569 1322 
Q 4069 134 2869 -716 
Q 2731 -522 2550 -334 
Q 3719 491 4169 1559 
Q 4531 2438 4634 3834 
L 4078 3834 
Q 3909 2641 3575 1916 
Q 3163 1097 2444 447 
Q 2288 647 2119 816 
Q 2831 1434 3175 2116 
Q 3509 2809 3619 3834 
L 3169 3834 
Q 2850 3125 2531 2628 
Q 2375 2734 2131 2866 
z
M 94 1584 
Q 669 1775 1288 1991 
L 1288 3466 
L 722 3466 
Q 597 2872 419 2378 
Q 219 2522 13 2653 
Q 363 3509 456 4709 
L 906 4634 
Q 863 4244 800 3884 
L 1288 3884 
L 1288 5291 
L 1756 5291 
L 1756 3884 
L 2375 3884 
L 2375 3466 
L 1756 3466 
L 1756 2156 
Q 2063 2269 2381 2384 
Q 2413 2109 2450 1909 
Q 2141 1797 1756 1653 
L 1756 -834 
L 1288 -834 
L 1288 1475 
Q 788 1288 188 1053 
L 94 1584 
z
" transform="scale(0.015625)"/>
        <path id="MicrosoftYaHei-20" transform="scale(0.015625)"/>
        <path id="MicrosoftYaHei-28" d="M 1531 -1100 
Q 478 100 478 1847 
Q 478 3594 1531 4841 
L 2072 4841 
Q 1016 3544 1016 1853 
Q 1016 166 2066 -1100 
L 1531 -1100 
z
" transform="scale(0.015625)"/>
        <path id="MicrosoftYaHei-6b" d="M 3484 0 
L 2650 0 
L 1172 1666 
L 1159 1666 
L 1159 0 
L 547 0 
L 547 5116 
L 1159 5116 
L 1159 1872 
L 1172 1872 
L 2575 3456 
L 3363 3456 
L 1800 1794 
L 3484 0 
z
" transform="scale(0.015625)"/>
        <path id="MicrosoftYaHei-67" d="M 3547 291 
Q 3547 -1628 1684 -1628 
Q 1041 -1628 566 -1388 
L 566 -797 
Q 1144 -1119 1675 -1119 
Q 2934 -1119 2934 206 
L 2934 572 
L 2922 572 
Q 2528 -81 1747 -81 
Q 1097 -81 706 384 
Q 316 850 316 1619 
Q 316 2503 747 3020 
Q 1178 3538 1897 3538 
Q 2588 3538 2922 2988 
L 2934 2988 
L 2934 3456 
L 3547 3456 
L 3547 291 
z
M 2934 2056 
Q 2938 2456 2666 2743 
Q 2394 3031 1997 3031 
Q 1497 3031 1219 2664 
Q 941 2297 941 1656 
Q 941 1106 1209 765 
Q 1478 425 1922 425 
Q 2369 425 2653 750 
Q 2938 1075 2934 1575 
L 2934 2056 
z
" transform="scale(0.015625)"/>
        <path id="MicrosoftYaHei-29" d="M 78 -1100 
Q 1131 163 1131 1853 
Q 1131 3547 72 4841 
L 616 4841 
Q 1672 3603 1672 1847 
Q 1672 91 616 -1100 
L 78 -1100 
z
" transform="scale(0.015625)"/>
       </defs>
       <use xlink:href="#MicrosoftYaHei-8f7b"/>
       <use xlink:href="#MicrosoftYaHei-7269" transform="translate(100 0)"/>
       <use xlink:href="#MicrosoftYaHei-20" transform="translate(200 0)"/>
       <use xlink:href="#MicrosoftYaHei-28" transform="translate(229.589844 0)"/>
       <use xlink:href="#MicrosoftYaHei-31" transform="translate(262.988281 0)"/>
       <use xlink:href="#MicrosoftYaHei-6b" transform="translate(321.630859 0)"/>
       <use xlink:href="#MicrosoftYaHei-67" transform="translate(373.949219 0)"/>
       <use xlink:href="#MicrosoftYaHei-29" transform="translate(437.914062 0)"/>
      </g>
     </g>
    </g>
    <g id="xtick_4">
     <g id="line2d_12">
      <g>
       <use xlink:href="#mfa16833750" x="515.29617" y="224.76125" style="stroke: #000000; stroke-width: 0.8"/>
      </g>
     </g>
     <g id="text_16">
      <!-- 重物 (3kg) -->
      <g transform="translate(491.729763 240.106562) scale(0.1 -0.1)">
       <defs>
        <path id="MicrosoftYaHei-91cd" d="M 113 -203 
L 2975 -203 
L 2975 259 
L 600 259 
L 600 628 
L 2975 628 
L 2975 1153 
L 1288 1153 
L 1288 928 
L 850 928 
L 850 3278 
L 2975 3278 
L 2975 3728 
L 163 3728 
L 163 4116 
L 2975 4116 
L 2975 4606 
Q 1841 4572 625 4547 
Q 588 4747 538 4972 
Q 3706 5009 5669 5141 
L 5744 4716 
Q 4631 4663 3425 4619 
L 3425 4116 
L 6263 4116 
L 6263 3728 
L 3425 3728 
L 3425 3278 
L 5569 3278 
L 5569 934 
L 5131 934 
L 5131 1153 
L 3425 1153 
L 3425 628 
L 5806 628 
L 5806 259 
L 3425 259 
L 3425 -203 
L 6263 -203 
L 6263 -591 
L 113 -591 
L 113 -203 
z
M 3425 1516 
L 5131 1516 
L 5131 2053 
L 3425 2053 
L 3425 1516 
z
M 1288 1516 
L 2975 1516 
L 2975 2053 
L 1288 2053 
L 1288 1516 
z
M 5131 2916 
L 3425 2916 
L 3425 2384 
L 5131 2384 
L 5131 2916 
z
M 1288 2384 
L 2975 2384 
L 2975 2916 
L 1288 2916 
L 1288 2384 
z
" transform="scale(0.015625)"/>
       </defs>
       <use xlink:href="#MicrosoftYaHei-91cd"/>
       <use xlink:href="#MicrosoftYaHei-7269" transform="translate(100 0)"/>
       <use xlink:href="#MicrosoftYaHei-20" transform="translate(200 0)"/>
       <use xlink:href="#MicrosoftYaHei-28" transform="translate(229.589844 0)"/>
       <use xlink:href="#MicrosoftYaHei-33" transform="translate(262.988281 0)"/>
       <use xlink:href="#MicrosoftYaHei-6b" transform="translate(321.630859 0)"/>
       <use xlink:href="#MicrosoftYaHei-67" transform="translate(373.949219 0)"/>
       <use xlink:href="#MicrosoftYaHei-29" transform="translate(437.914062 0)"/>
      </g>
     </g>
    </g>
   </g>
   <g id="matplotlib.axis_4">
    <g id="ytick_9">
     <g id="line2d_13">
      <g>
       <use xlink:href="#mae7fcc5b46" x="326.463594" y="224.76125" style="stroke: #000000; stroke-width: 0.8"/>
      </g>
     </g>
     <g id="text_17">
      <!-- 0.0 -->
      <g transform="translate(305.327656 228.758125) scale(0.1 -0.1)">
       <use xlink:href="#MicrosoftYaHei-30"/>
       <use xlink:href="#MicrosoftYaHei-2e" transform="translate(58.642578 0)"/>
       <use xlink:href="#MicrosoftYaHei-30" transform="translate(82.714844 0)"/>
      </g>
     </g>
    </g>
    <g id="ytick_10">
     <g id="line2d_14">
      <g>
       <use xlink:href="#mae7fcc5b46" x="326.463594" y="202.643357" style="stroke: #000000; stroke-width: 0.8"/>
      </g>
     </g>
     <g id="text_18">
      <!-- 0.5 -->
      <g transform="translate(305.327656 206.640232) scale(0.1 -0.1)">
       <use xlink:href="#MicrosoftYaHei-30"/>
       <use xlink:href="#MicrosoftYaHei-2e" transform="translate(58.642578 0)"/>
       <use xlink:href="#MicrosoftYaHei-35" transform="translate(82.714844 0)"/>
      </g>
     </g>
    </g>
    <g id="ytick_11">
     <g id="line2d_15">
      <g>
       <use xlink:href="#mae7fcc5b46" x="326.463594" y="180.525464" style="stroke: #000000; stroke-width: 0.8"/>
      </g>
     </g>
     <g id="text_19">
      <!-- 1.0 -->
      <g transform="translate(305.327656 184.522339) scale(0.1 -0.1)">
       <use xlink:href="#MicrosoftYaHei-31"/>
       <use xlink:href="#MicrosoftYaHei-2e" transform="translate(58.642578 0)"/>
       <use xlink:href="#MicrosoftYaHei-30" transform="translate(82.714844 0)"/>
      </g>
     </g>
    </g>
    <g id="ytick_12">
     <g id="line2d_16">
      <g>
       <use xlink:href="#mae7fcc5b46" x="326.463594" y="158.407571" style="stroke: #000000; stroke-width: 0.8"/>
      </g>
     </g>
     <g id="text_20">
      <!-- 1.5 -->
      <g transform="translate(305.327656 162.404446) scale(0.1 -0.1)">
       <use xlink:href="#MicrosoftYaHei-31"/>
       <use xlink:href="#MicrosoftYaHei-2e" transform="translate(58.642578 0)"/>
       <use xlink:href="#MicrosoftYaHei-35" transform="translate(82.714844 0)"/>
      </g>
     </g>
    </g>
    <g id="ytick_13">
     <g id="line2d_17">
      <g>
       <use xlink:href="#mae7fcc5b46" x="326.463594" y="136.289679" style="stroke: #000000; stroke-width: 0.8"/>
      </g>
     </g>
     <g id="text_21">
      <!-- 2.0 -->
      <g transform="translate(305.327656 140.286554) scale(0.1 -0.1)">
       <use xlink:href="#MicrosoftYaHei-32"/>
       <use xlink:href="#MicrosoftYaHei-2e" transform="translate(58.642578 0)"/>
       <use xlink:href="#MicrosoftYaHei-30" transform="translate(82.714844 0)"/>
      </g>
     </g>
    </g>
    <g id="ytick_14">
     <g id="line2d_18">
      <g>
       <use xlink:href="#mae7fcc5b46" x="326.463594" y="114.171786" style="stroke: #000000; stroke-width: 0.8"/>
      </g>
     </g>
     <g id="text_22">
      <!-- 2.5 -->
      <g transform="translate(305.327656 118.168661) scale(0.1 -0.1)">
       <use xlink:href="#MicrosoftYaHei-32"/>
       <use xlink:href="#MicrosoftYaHei-2e" transform="translate(58.642578 0)"/>
       <use xlink:href="#MicrosoftYaHei-35" transform="translate(82.714844 0)"/>
      </g>
     </g>
    </g>
    <g id="ytick_15">
     <g id="line2d_19">
      <g>
       <use xlink:href="#mae7fcc5b46" x="326.463594" y="92.053893" style="stroke: #000000; stroke-width: 0.8"/>
      </g>
     </g>
     <g id="text_23">
      <!-- 3.0 -->
      <g transform="translate(305.327656 96.050768) scale(0.1 -0.1)">
       <use xlink:href="#MicrosoftYaHei-33"/>
       <use xlink:href="#MicrosoftYaHei-2e" transform="translate(58.642578 0)"/>
       <use xlink:href="#MicrosoftYaHei-30" transform="translate(82.714844 0)"/>
      </g>
     </g>
    </g>
    <g id="ytick_16">
     <g id="line2d_20">
      <g>
       <use xlink:href="#mae7fcc5b46" x="326.463594" y="69.936" style="stroke: #000000; stroke-width: 0.8"/>
      </g>
     </g>
     <g id="text_24">
      <!-- 3.5 -->
      <g transform="translate(305.327656 73.932875) scale(0.1 -0.1)">
       <use xlink:href="#MicrosoftYaHei-33"/>
       <use xlink:href="#MicrosoftYaHei-2e" transform="translate(58.642578 0)"/>
       <use xlink:href="#MicrosoftYaHei-35" transform="translate(82.714844 0)"/>
      </g>
     </g>
    </g>
    <g id="text_25">
     <!-- 摩擦力/N -->
     <g transform="translate(298.593125 170.669484) rotate(-90) scale(0.11 -0.11)">
      <use xlink:href="#MicrosoftYaHei-6469"/>
      <use xlink:href="#MicrosoftYaHei-64e6" transform="translate(100 0)"/>
      <use xlink:href="#MicrosoftYaHei-529b" transform="translate(200 0)"/>
      <use xlink:href="#MicrosoftYaHei-2f" transform="translate(300 0)"/>
      <use xlink:href="#MicrosoftYaHei-4e" transform="translate(342.724609 0)"/>
     </g>
    </g>
   </g>
   <g id="patch_12">
    <path d="M 326.463594 224.76125 
L 326.463594 69.936 
" style="fill: none; stroke: #000000; stroke-width: 0.8; stroke-linejoin: miter; stroke-linecap: square"/>
   </g>
   <g id="patch_13">
    <path d="M 561.613594 224.76125 
L 561.613594 69.936 
" style="fill: none; stroke: #000000; stroke-width: 0.8; stroke-linejoin: miter; stroke-linecap: square"/>
   </g>
   <g id="patch_14">
    <path d="M 326.463594 224.76125 
L 561.613594 224.76125 
" style="fill: none; stroke: #000000; stroke-width: 0.8; stroke-linejoin: miter; stroke-linecap: square"/>
   </g>
   <g id="patch_15">
    <path d="M 326.463594 69.936 
L 561.613594 69.936 
" style="fill: none; stroke: #000000; stroke-width: 0.8; stroke-linejoin: miter; stroke-linecap: square"/>
   </g>
   <g id="text_26">
    <!-- 1.0 -->
    <g transform="translate(364.426174 176.101886) scale(0.11 -0.11)">
     <defs>
      <path id="MicrosoftYaHei-Bold-31" d="M 2716 4947 
L 2716 0 
L 1700 0 
L 1700 3809 
Q 1513 3647 1188 3517 
Q 863 3388 591 3356 
L 591 4222 
Q 1447 4472 2072 4947 
L 2716 4947 
z
" transform="scale(0.015625)"/>
     </defs>
     <use xlink:href="#MicrosoftYaHei-Bold-31"/>
     <use xlink:href="#MicrosoftYaHei-Bold-2e" transform="translate(61.669922 0)"/>
     <use xlink:href="#MicrosoftYaHei-Bold-30" transform="translate(90.234375 0)"/>
    </g>
   </g>
   <g id="text_27">
    <!-- 3.0 -->
    <g transform="translate(506.941326 87.630314) scale(0.11 -0.11)">
     <defs>
      <path id="MicrosoftYaHei-Bold-33" d="M 494 1053 
Q 978 691 1625 691 
Q 2034 691 2275 872 
Q 2516 1053 2516 1388 
Q 2516 1731 2230 1912 
Q 1944 2094 1428 2094 
L 997 2094 
L 997 2872 
L 1394 2872 
Q 2369 2872 2369 3528 
Q 2369 4147 1622 4147 
Q 1134 4147 675 3828 
L 675 4663 
Q 1175 4922 1853 4922 
Q 2541 4922 2969 4605 
Q 3397 4288 3397 3725 
Q 3397 2775 2434 2531 
L 2434 2516 
Q 2941 2459 3244 2145 
Q 3547 1831 3547 1381 
Q 3547 691 3042 303 
Q 2538 -84 1697 -84 
Q 950 -84 494 163 
L 494 1053 
z
" transform="scale(0.015625)"/>
     </defs>
     <use xlink:href="#MicrosoftYaHei-Bold-33"/>
     <use xlink:href="#MicrosoftYaHei-Bold-2e" transform="translate(61.669922 0)"/>
     <use xlink:href="#MicrosoftYaHei-Bold-30" transform="translate(90.234375 0)"/>
    </g>
   </g>
   <g id="text_28">
    <!-- 压力大小 -->
    <g style="fill: #c0392b" transform="translate(420.038594 49.441875) scale(0.12 -0.12)">
     <defs>
      <path id="MicrosoftYaHei-Bold-5927" d="M 213 3728 
L 2681 3728 
Q 2725 4409 2719 5303 
L 3669 5303 
Q 3650 4375 3619 3728 
L 6200 3728 
L 6200 2866 
L 3691 2866 
Q 4228 778 6288 59 
Q 5844 -447 5575 -803 
Q 3872 -3 3203 1775 
Q 2684 147 806 -847 
Q 556 -528 100 -47 
Q 2375 984 2591 2866 
L 213 2866 
L 213 3728 
z
" transform="scale(0.015625)"/>
      <path id="MicrosoftYaHei-Bold-5c0f" d="M 2788 5272 
L 3763 5272 
L 3763 541 
Q 3763 -75 3570 -367 
Q 3378 -659 3076 -712 
Q 2775 -766 1700 -766 
Q 1606 -234 1469 222 
Q 1969 166 2344 166 
Q 2788 166 2788 684 
L 2788 5272 
z
M 5206 3922 
Q 5800 2553 6356 1041 
L 5369 659 
Q 4856 2278 4325 3628 
L 5206 3922 
z
M 1069 3916 
L 2006 3691 
Q 1550 2016 1038 622 
L 113 972 
Q 663 2397 1069 3916 
z
" transform="scale(0.015625)"/>
     </defs>
     <use xlink:href="#MicrosoftYaHei-Bold-538b"/>
     <use xlink:href="#MicrosoftYaHei-Bold-529b" transform="translate(100 0)"/>
     <use xlink:href="#MicrosoftYaHei-Bold-5927" transform="translate(200 0)"/>
     <use xlink:href="#MicrosoftYaHei-Bold-5c0f" transform="translate(300 0)"/>
    </g>
    <!-- （粗糙程度相同时） -->
    <g style="fill: #c0392b" transform="translate(390.038594 63.936) scale(0.12 -0.12)">
     <use xlink:href="#MicrosoftYaHei-Bold-ff08"/>
     <use xlink:href="#MicrosoftYaHei-Bold-7c97" transform="translate(100 0)"/>
     <use xlink:href="#MicrosoftYaHei-Bold-7cd9" transform="translate(200 0)"/>
     <use xlink:href="#MicrosoftYaHei-Bold-7a0b" transform="translate(300 0)"/>
     <use xlink:href="#MicrosoftYaHei-Bold-5ea6" transform="translate(400 0)"/>
     <use xlink:href="#MicrosoftYaHei-Bold-76f8" transform="translate(500 0)"/>
     <use xlink:href="#MicrosoftYaHei-Bold-540c" transform="translate(600 0)"/>
     <use xlink:href="#MicrosoftYaHei-Bold-65f6" transform="translate(700 0)"/>
     <use xlink:href="#MicrosoftYaHei-Bold-ff09" transform="translate(800 0)"/>
    </g>
   </g>
  </g>
  <g id="text_29">
   <!-- f = μN — 摩擦力影响因素 -->
   <g style="fill: #333333" transform="translate(200.714375 18.485312) scale(0.14 -0.14)">
    <defs>
     <path id="MicrosoftYaHei-Bold-66" d="M 2653 4338 
Q 2447 4419 2263 4419 
Q 1744 4419 1744 3844 
L 1744 3456 
L 2531 3456 
L 2531 2703 
L 1744 2703 
L 1744 0 
L 734 0 
L 734 2703 
L 156 2703 
L 156 3456 
L 734 3456 
L 734 3900 
Q 734 4491 1118 4844 
Q 1503 5197 2128 5197 
Q 2447 5197 2653 5131 
L 2653 4338 
z
" transform="scale(0.015625)"/>
     <path id="MicrosoftYaHei-Bold-20" transform="scale(0.015625)"/>
     <path id="MicrosoftYaHei-Bold-3d" d="M 4072 2378 
L 797 2378 
L 797 3041 
L 4072 3041 
L 4072 2378 
z
M 4072 916 
L 797 916 
L 797 1578 
L 4072 1578 
L 4072 916 
z
" transform="scale(0.015625)"/>
     <path id="MicrosoftYaHei-Bold-3bc" d="M 2747 550 
Q 2528 -78 1938 -78 
Q 1647 -78 1484 97 
L 1469 97 
L 1469 -1366 
L 459 -1366 
L 459 3456 
L 1469 3456 
L 1469 1456 
Q 1469 728 2069 728 
Q 2713 728 2713 1613 
L 2713 3456 
L 3731 3456 
L 3728 1328 
Q 3728 1047 3795 906 
Q 3863 766 4041 766 
Q 4125 766 4222 797 
L 4222 28 
Q 3944 -50 3631 -50 
Q 2897 -50 2759 550 
L 2747 550 
z
" transform="scale(0.015625)"/>
     <path id="MicrosoftYaHei-Bold-4e" d="M 4863 0 
L 3806 0 
L 1756 3131 
Q 1597 3375 1525 3525 
L 1509 3525 
Q 1538 3275 1538 2753 
L 1538 0 
L 559 0 
L 559 4841 
L 1684 4841 
L 3659 1797 
Q 3856 1494 3900 1413 
L 3916 1413 
Q 3884 1588 3884 2081 
L 3884 4841 
L 4863 4841 
L 4863 0 
z
" transform="scale(0.015625)"/>
     <path id="MicrosoftYaHei-Bold-2014" d="M 6913 1497 
L 0 1497 
L 0 2209 
L 6913 2209 
L 6913 1497 
z
" transform="scale(0.015625)"/>
     <path id="MicrosoftYaHei-Bold-6469" d="M 3769 3884 
L 4531 3884 
L 4531 4222 
L 2925 4222 
L 2925 3878 
L 3544 3878 
L 3544 3384 
L 2925 3384 
L 2925 3300 
Q 3341 3100 3581 2959 
L 3313 2634 
Q 3119 2763 2925 2866 
L 2925 2322 
L 2288 2322 
L 2288 2988 
Q 1997 2566 1644 2266 
Q 1503 2425 1306 2591 
L 1306 2028 
Q 1306 78 719 -859 
Q 475 -628 88 -328 
Q 556 484 556 2122 
L 556 4841 
L 3028 4841 
L 2875 5166 
L 3788 5384 
L 4003 4841 
L 6281 4841 
L 6281 4222 
L 5169 4222 
L 5169 3884 
L 6156 3884 
L 6156 3391 
L 5341 3391 
Q 5763 2938 6338 2716 
Q 6081 2416 5969 2253 
Q 5525 2563 5169 3006 
L 5169 2384 
L 4531 2384 
L 4531 3053 
Q 4188 2538 3813 2228 
Q 3619 2403 3369 2578 
Q 3903 2906 4306 3391 
L 3769 3391 
L 3769 3884 
z
M 1469 3878 
L 2288 3878 
L 2288 4222 
L 1306 4222 
L 1306 2684 
Q 1728 2928 2106 3384 
L 1469 3384 
L 1469 3878 
z
M 1344 672 
L 3406 672 
L 3406 934 
L 1600 934 
L 1600 1422 
L 3406 1422 
L 3406 1706 
L 1631 1659 
Q 1588 1922 1525 2166 
Q 3275 2184 5644 2297 
Q 5650 2284 5750 1766 
L 4175 1725 
L 4175 1422 
L 5881 1422 
L 5881 934 
L 4175 934 
L 4175 672 
L 6250 672 
L 6250 147 
L 4175 147 
L 4175 72 
Q 4175 -325 4006 -539 
Q 3838 -753 3523 -784 
Q 3209 -816 2469 -822 
Q 2413 -497 2300 -103 
Q 2825 -134 3103 -134 
Q 3378 -134 3403 147 
L 1344 147 
L 1344 672 
z
" transform="scale(0.015625)"/>
     <path id="MicrosoftYaHei-Bold-64e6" d="M 2613 716 
L 3144 178 
Q 2997 50 2856 -66 
Q 3066 -97 3200 -97 
Q 3600 -97 3600 316 
L 3600 747 
L 2388 747 
L 2388 1166 
Q 2209 1019 2013 878 
Q 1744 1259 1544 1484 
Q 2019 1734 2381 2041 
Q 2253 2156 2109 2278 
L 2031 2191 
Q 2025 2209 1791 2597 
Q 1769 2297 1775 1759 
Q 1594 1709 1388 1647 
L 1388 -22 
Q 1388 -359 1272 -546 
Q 1156 -734 912 -775 
Q 669 -816 238 -816 
Q 175 -453 88 -9 
Q 488 -22 563 17 
Q 638 56 638 228 
L 638 1403 
L 144 1234 
L 81 2153 
Q 350 2216 638 2294 
L 638 3422 
L 138 3422 
L 138 4203 
L 638 4203 
L 638 5266 
L 1388 5266 
L 1388 4203 
L 1825 4203 
L 1825 3422 
L 1388 3422 
L 1388 2513 
Q 1575 2569 1769 2631 
Q 1709 2722 1663 2784 
Q 2113 3256 2400 3816 
L 1931 3816 
L 1931 4853 
L 3419 4853 
Q 3341 5084 3244 5316 
L 4231 5316 
L 4388 4853 
L 6119 4853 
L 6119 3934 
L 5381 3934 
L 5381 4259 
L 2669 4259 
L 2669 4119 
L 3106 4059 
L 3025 3841 
L 3906 3841 
Q 3888 3934 3875 4034 
L 4494 4147 
Q 4519 3978 4556 3822 
L 6106 3822 
L 6106 3172 
L 5416 2325 
Q 5794 1978 6319 1753 
Q 6175 1484 5956 991 
Q 5763 1097 5588 1216 
L 5588 747 
L 4388 747 
L 4388 22 
Q 4388 -306 4269 -500 
Q 4150 -694 3933 -755 
Q 3716 -816 2956 -816 
Q 2925 -544 2803 -109 
Q 2384 -453 2006 -709 
Q 1725 -303 1519 -103 
Q 2188 322 2613 716 
z
M 3447 2278 
L 4519 2278 
Q 4147 2831 3975 3519 
L 3975 3384 
Q 3819 2813 3447 2278 
z
M 2747 3234 
Q 2953 3103 3150 2956 
Q 3253 3138 3331 3328 
L 2797 3328 
L 2747 3234 
z
M 5431 3297 
L 4728 3297 
Q 4844 3025 5006 2791 
L 5431 3297 
z
M 2722 2369 
Q 2816 2469 2894 2575 
Q 2719 2725 2538 2863 
Q 2463 2741 2381 2625 
Q 2556 2500 2722 2369 
z
M 3206 1716 
L 3206 1963 
Q 2944 1650 2603 1347 
L 5403 1347 
Q 5028 1631 4744 1975 
L 4744 1716 
L 3206 1716 
z
M 5106 684 
Q 5731 316 6313 -97 
L 5806 -753 
Q 5263 -291 4606 109 
L 5106 684 
z
" transform="scale(0.015625)"/>
     <path id="MicrosoftYaHei-Bold-5f71" d="M 3750 4009 
Q 4750 4559 5563 5278 
L 6125 4691 
Q 5150 3853 4219 3291 
Q 3988 3684 3750 4009 
z
M 138 2853 
L 1650 2853 
L 1578 3109 
L 400 3109 
L 400 5047 
L 3619 5047 
L 3619 3109 
L 2384 3109 
L 2425 2853 
L 3969 2853 
L 3969 2253 
L 138 2253 
L 138 2853 
z
M 2925 4559 
L 1100 4559 
L 1100 4297 
L 2925 4297 
L 2925 4559 
z
M 2925 3597 
L 2925 3859 
L 1100 3859 
L 1100 3597 
L 2925 3597 
z
M 3750 2016 
Q 4819 2672 5775 3628 
L 6356 3034 
Q 5425 2103 4250 1284 
Q 4019 1672 3750 2016 
z
M 50 -259 
Q 550 159 963 659 
L 1481 253 
Q 1300 44 1122 -141 
L 1463 -166 
Q 1725 -166 1725 184 
L 1725 672 
L 513 672 
L 513 2022 
L 3513 2022 
L 3513 672 
L 2438 672 
L 2438 -72 
Q 2438 -366 2330 -530 
Q 2222 -694 2039 -734 
Q 1856 -775 1219 -766 
Q 1159 -450 1091 -175 
Q 788 -494 500 -753 
L 50 -259 
z
M 2813 1191 
L 2813 1503 
L 1213 1503 
L 1213 1191 
L 2813 1191 
z
M 2631 253 
L 3081 666 
Q 3431 356 3828 -19 
Q 4844 706 5738 1691 
L 6350 1072 
Q 5375 -9 4163 -903 
Q 4006 -659 3669 -241 
L 3350 -528 
Q 2975 -84 2631 253 
z
" transform="scale(0.015625)"/>
     <path id="MicrosoftYaHei-Bold-54cd" d="M 2325 4572 
L 3369 4572 
Q 3494 4991 3588 5366 
L 4475 5247 
L 4178 4572 
L 6069 4572 
L 6069 141 
Q 6069 -225 5928 -445 
Q 5788 -666 5533 -728 
Q 5278 -791 4288 -791 
Q 4225 -434 4113 47 
Q 4519 22 4863 22 
Q 5300 22 5300 466 
L 5300 3809 
L 3063 3809 
L 3063 -766 
L 2325 -766 
L 2325 4572 
z
M 338 4741 
L 2063 4741 
L 2063 16 
L 1388 16 
L 1388 416 
L 1063 416 
L 1063 -147 
L 338 -147 
L 338 4741 
z
M 1388 3941 
L 1063 3941 
L 1063 1216 
L 1388 1216 
L 1388 3941 
z
M 3350 3328 
L 5013 3328 
L 5013 616 
L 3988 616 
L 3988 216 
L 3350 216 
L 3350 3328 
z
M 4375 1391 
L 4375 2553 
L 3988 2553 
L 3988 1391 
L 4375 1391 
z
" transform="scale(0.015625)"/>
     <path id="MicrosoftYaHei-Bold-56e0" d="M 431 -822 
L 431 5059 
L 5969 5059 
L 5969 -816 
L 5088 -816 
L 5088 -534 
L 1313 -534 
L 1313 -822 
L 431 -822 
z
M 5088 4228 
L 1313 4228 
L 1313 297 
L 5088 297 
L 5088 4228 
z
M 2781 4103 
L 3650 4103 
Q 3647 3663 3628 3316 
L 4900 3316 
L 4900 2528 
L 3563 2528 
Q 3541 2359 3500 2200 
Q 4188 1753 4975 1172 
L 4394 416 
Q 3866 903 3175 1466 
Q 2741 813 1844 416 
Q 1669 728 1338 1209 
Q 2475 1603 2675 2528 
L 1500 2528 
L 1500 3316 
L 2759 3316 
Q 2778 3666 2781 4103 
z
" transform="scale(0.015625)"/>
     <path id="MicrosoftYaHei-Bold-7d20" d="M 4694 2003 
Q 5713 1284 6269 866 
L 5656 391 
Q 5447 578 5184 794 
L 3731 731 
L 3731 -172 
Q 3731 -469 3578 -626 
Q 3425 -784 3125 -803 
Q 2825 -822 2069 -828 
Q 1988 -428 1906 -122 
Q 2366 -141 2644 -141 
Q 2888 -141 2888 128 
L 2888 688 
Q 1659 616 681 516 
L 463 1172 
Q 1444 1372 2584 1788 
Q 1516 1716 925 1641 
L 694 2291 
Q 1284 2409 1869 2641 
L 150 2641 
L 150 3253 
L 2763 3253 
L 2763 3484 
L 625 3484 
L 625 4097 
L 2763 4097 
L 2763 4328 
L 363 4328 
L 363 4941 
L 2763 4941 
L 2763 5353 
L 3625 5353 
L 3625 4941 
L 6050 4941 
L 6050 4328 
L 3625 4328 
L 3625 4097 
L 5756 4097 
L 5756 3484 
L 3625 3484 
L 3625 3253 
L 6250 3253 
L 6250 2641 
L 4806 2641 
L 5263 2247 
Q 3656 1616 2344 1197 
L 4497 1341 
Q 4325 1475 4138 1616 
L 4694 2003 
z
M 4622 2641 
L 3069 2641 
Q 2575 2438 1938 2222 
L 3972 2347 
Q 4294 2484 4622 2641 
z
M 1806 578 
L 2213 47 
L 525 -797 
Q 331 -459 81 -109 
Q 513 9 1806 578 
z
M 4488 509 
Q 5431 191 6256 -116 
L 5888 -772 
Q 5131 -453 4138 -78 
L 4488 509 
z
" transform="scale(0.015625)"/>
    </defs>
    <use xlink:href="#MicrosoftYaHei-Bold-66"/>
    <use xlink:href="#MicrosoftYaHei-Bold-20" transform="translate(40.527344 0)"/>
    <use xlink:href="#MicrosoftYaHei-Bold-3d" transform="translate(70.3125 0)"/>
    <use xlink:href="#MicrosoftYaHei-Bold-20" transform="translate(146.435547 0)"/>
    <use xlink:href="#MicrosoftYaHei-Bold-3bc" transform="translate(176.220703 0)"/>
    <use xlink:href="#MicrosoftYaHei-Bold-4e" transform="translate(243.310547 0)"/>
    <use xlink:href="#MicrosoftYaHei-Bold-20" transform="translate(328.125 0)"/>
    <use xlink:href="#MicrosoftYaHei-Bold-2014" transform="translate(357.910156 0)"/>
    <use xlink:href="#MicrosoftYaHei-Bold-20" transform="translate(465.917969 0)"/>
    <use xlink:href="#MicrosoftYaHei-Bold-6469" transform="translate(495.703125 0)"/>
    <use xlink:href="#MicrosoftYaHei-Bold-64e6" transform="translate(595.703125 0)"/>
    <use xlink:href="#MicrosoftYaHei-Bold-529b" transform="translate(695.703125 0)"/>
    <use xlink:href="#MicrosoftYaHei-Bold-5f71" transform="translate(795.703125 0)"/>
    <use xlink:href="#MicrosoftYaHei-Bold-54cd" transform="translate(895.703125 0)"/>
    <use xlink:href="#MicrosoftYaHei-Bold-56e0" transform="translate(995.703125 0)"/>
    <use xlink:href="#MicrosoftYaHei-Bold-7d20" transform="translate(1095.703125 0)"/>
   </g>
  </g>
 </g>
 <defs>
  <clipPath id="pe1b601b508">
   <rect x="43.863594" y="69.936" width="235.15" height="154.82525"/>
  </clipPath>
  <clipPath id="p1e146aefa3">
   <rect x="326.463594" y="69.936" width="235.15" height="154.82525"/>
  </clipPath>
 </defs>
</svg>
