<?xml version="1.0" encoding="utf-8" standalone="no"?>
<!DOCTYPE svg PUBLIC "-//W3C//DTD SVG 1.1//EN"
  "http://www.w3.org/Graphics/SVG/1.1/DTD/svg11.dtd">
<svg xmlns:xlink="http://www.w3.org/1999/xlink" width="379.39279pt" height="366.357333pt" viewBox="0 0 379.39279 366.357333" xmlns="http://www.w3.org/2000/svg" version="1.1">
 <metadata>
  <rdf:RDF xmlns:dc="http://purl.org/dc/elements/1.1/" xmlns:cc="http://creativecommons.org/ns#" xmlns:rdf="http://www.w3.org/1999/02/22-rdf-syntax-ns#">
   <cc:Work>
    <dc:type rdf:resource="http://purl.org/dc/dcmitype/StillImage"/>
    <dc:date>2026-05-24T08:51:40.463153</dc:date>
    <dc:format>image/svg+xml</dc:format>
    <dc:creator>
     <cc:Agent>
      <dc:title>Matplotlib v3.10.9, https://matplotlib.org/</dc:title>
     </cc:Agent>
    </dc:creator>
   </cc:Work>
  </rdf:RDF>
 </metadata>
 <defs>
  <style type="text/css">*{stroke-linejoin: round; stroke-linecap: butt}</style>
 </defs>
 <g id="figure_1">
  <g id="patch_1">
   <path d="M 0 366.357333 
L 379.39279 366.357333 
L 379.39279 0 
L 0 0 
z
" style="fill: #ffffff"/>
  </g>
  <g id="axes_1">
   <g id="patch_2">
    <path d="M 189.696395 320.050963 
C 224.266831 320.050963 257.426005 306.315983 281.870994 281.870994 
C 306.315983 257.426005 320.050963 224.266831 320.050963 189.696395 
C 320.050963 155.12596 306.315983 121.966786 281.870994 97.521796 
C 257.426005 73.076807 224.266831 59.341827 189.696395 59.341827 
C 155.12596 59.341827 121.966786 73.076807 97.521796 97.521796 
C 73.076807 121.966786 59.341827 155.12596 59.341827 189.696395 
C 59.341827 224.266831 73.076807 257.426005 97.521796 281.870994 
C 121.966786 306.315983 155.12596 320.050963 189.696395 320.050963 
L 189.696395 320.050963 
z
" clip-path="url(#pb26ea29b55)" style="fill: none; stroke: #1a6fc4; stroke-width: 2.5; stroke-linejoin: miter"/>
   </g>
   <g id="patch_3">
    <path d="M 302.586762 124.519111 
C 293.069671 108.035026 280.056593 93.833743 264.464704 82.916184 
C 248.872814 71.998626 231.077238 64.627457 212.332228 61.322206 
" clip-path="url(#pb26ea29b55)" style="fill: none; stroke: #e74c3c; stroke-width: 3; stroke-linejoin: miter"/>
   </g>
   <g id="line2d_1">
    <path d="M 189.696395 189.696395 
L 302.586762 124.519111 
" clip-path="url(#pb26ea29b55)" style="fill: none; stroke: #27ae60; stroke-width: 2; stroke-linecap: square"/>
   </g>
   <g id="line2d_2">
    <defs>
     <path id="mffe361bab7" d="M 0 2.5 
C 0.663008 2.5 1.29895 2.236584 1.767767 1.767767 
C 2.236584 1.29895 2.5 0.663008 2.5 0 
C 2.5 -0.663008 2.236584 -1.29895 1.767767 -1.767767 
C 1.29895 -2.236584 0.663008 -2.5 0 -2.5 
C -0.663008 -2.5 -1.29895 -2.236584 -1.767767 -1.767767 
C -2.236584 -1.29895 -2.5 -0.663008 -2.5 0 
C -2.5 0.663008 -2.236584 1.29895 -1.767767 1.767767 
C -1.29895 2.236584 -0.663008 2.5 0 2.5 
z
" style="stroke: #27ae60"/>
    </defs>
    <g clip-path="url(#pb26ea29b55)">
     <use xlink:href="#mffe361bab7" x="302.586762" y="124.519111" style="fill: #27ae60; stroke: #27ae60"/>
    </g>
   </g>
   <g id="line2d_3">
    <path d="M 59.341827 189.696395 
L 320.050963 189.696395 
" clip-path="url(#pb26ea29b55)" style="fill: none; stroke-dasharray: 7.4,3.2; stroke-dashoffset: 0; stroke: #e67e22; stroke-width: 2"/>
   </g>
   <g id="line2d_4">
    <defs>
     <path id="mbdfe800146" d="M 0 2.5 
C 0.663008 2.5 1.29895 2.236584 1.767767 1.767767 
C 2.236584 1.29895 2.5 0.663008 2.5 0 
C 2.5 -0.663008 2.236584 -1.29895 1.767767 -1.767767 
C 1.29895 -2.236584 0.663008 -2.5 0 -2.5 
C -0.663008 -2.5 -1.29895 -2.236584 -1.767767 -1.767767 
C -2.236584 -1.29895 -2.5 -0.663008 -2.5 0 
C -2.5 0.663008 -2.236584 1.29895 -1.767767 1.767767 
C -1.29895 2.236584 -0.663008 2.5 0 2.5 
z
" style="stroke: #e67e22"/>
    </defs>
    <g clip-path="url(#pb26ea29b55)">
     <use xlink:href="#mbdfe800146" x="59.341827" y="189.696395" style="fill: #e67e22; stroke: #e67e22"/>
    </g>
   </g>
   <g id="line2d_5">
    <g clip-path="url(#pb26ea29b55)">
     <use xlink:href="#mbdfe800146" x="320.050963" y="189.696395" style="fill: #e67e22; stroke: #e67e22"/>
    </g>
   </g>
   <g id="line2d_6">
    <path d="M 104.965926 287.462321 
L 300.497778 228.802765 
" clip-path="url(#pb26ea29b55)" style="fill: none; stroke: #8e44ad; stroke-width: 2; stroke-linecap: square"/>
   </g>
   <g id="text_1">
    <!-- O -->
    <g style="fill: #333333" transform="translate(184.376551 213.123727) scale(0.13 -0.13)">
     <defs>
      <path id="MicrosoftYaHei-Bold-4f" d="M 256 2356 
Q 256 3494 920 4208 
Q 1584 4922 2675 4922 
Q 3713 4922 4345 4231 
Q 4978 3541 4978 2456 
Q 4978 1325 4320 620 
Q 3663 -84 2597 -84 
Q 1556 -84 906 598 
Q 256 1281 256 2356 
z
M 1341 2413 
Q 1341 1706 1681 1257 
Q 2022 809 2616 809 
Q 3222 809 3559 1239 
Q 3897 1669 3897 2394 
Q 3897 3150 3569 3589 
Q 3241 4028 2644 4028 
Q 2038 4028 1689 3578 
Q 1341 3128 1341 2413 
z
" transform="scale(0.015625)"/>
     </defs>
     <use xlink:href="#MicrosoftYaHei-Bold-4f"/>
    </g>
   </g>
   <g id="text_2">
    <!-- 半径 r -->
    <g style="fill: #27ae60" transform="translate(236.364986 147.33116) scale(0.11 -0.11)">
     <defs>
      <path id="MicrosoftYaHei-Bold-534a" d="M 131 1478 
L 2706 1478 
L 2706 2266 
L 388 2266 
L 388 3091 
L 2706 3091 
L 2706 5291 
L 3688 5291 
L 3688 3091 
L 6013 3091 
L 6013 2266 
L 3688 2266 
L 3688 1478 
L 6269 1478 
L 6269 653 
L 3688 653 
L 3688 -822 
L 2706 -822 
L 2706 653 
L 131 653 
L 131 1478 
z
M 5225 5153 
L 5950 4603 
Q 5363 3941 4644 3222 
L 4031 3766 
Q 4663 4391 5225 5153 
z
M 1075 5128 
Q 1725 4466 2288 3791 
L 1594 3228 
Q 1056 3922 431 4597 
L 1075 5128 
z
" transform="scale(0.015625)"/>
      <path id="MicrosoftYaHei-Bold-5f84" d="M 1450 5366 
L 2144 4797 
Q 1400 3816 444 2947 
Q 344 3328 131 3909 
Q 913 4597 1450 5366 
z
M 1588 -784 
L 781 -784 
L 781 1309 
Q 556 1075 331 866 
Q 250 1253 69 1841 
Q 850 2553 1575 3609 
L 2256 3153 
Q 2141 2984 2025 2825 
Q 3756 3381 4744 4259 
L 2325 4259 
L 2325 5009 
L 5788 5009 
L 5788 4272 
Q 5416 3819 4916 3419 
Q 5747 3056 6350 2772 
L 5863 2034 
Q 5006 2519 4209 2922 
Q 3409 2428 2369 2034 
Q 2188 2381 1966 2741 
Q 1775 2484 1588 2244 
L 1588 -784 
z
M 1913 128 
L 3663 128 
L 3663 1216 
L 2225 1216 
L 2225 1966 
L 6000 1966 
L 6000 1216 
L 4556 1216 
L 4556 128 
L 6300 128 
L 6300 -622 
L 1913 -622 
L 1913 128 
z
" transform="scale(0.015625)"/>
      <path id="MicrosoftYaHei-Bold-20" transform="scale(0.015625)"/>
      <path id="MicrosoftYaHei-Bold-72" d="M 2663 2541 
Q 2478 2647 2216 2647 
Q 1872 2647 1670 2384 
Q 1469 2122 1469 1663 
L 1469 0 
L 459 0 
L 459 3456 
L 1469 3456 
L 1469 2806 
L 1481 2806 
Q 1731 3516 2391 3516 
Q 2569 3516 2663 3475 
L 2663 2541 
z
" transform="scale(0.015625)"/>
     </defs>
     <use xlink:href="#MicrosoftYaHei-Bold-534a"/>
     <use xlink:href="#MicrosoftYaHei-Bold-5f84" transform="translate(100 0)"/>
     <use xlink:href="#MicrosoftYaHei-Bold-20" transform="translate(200 0)"/>
     <use xlink:href="#MicrosoftYaHei-Bold-72" transform="translate(229.785156 0)"/>
    </g>
   </g>
   <g id="text_3">
    <!-- A -->
    <g style="fill: #e67e22" transform="translate(55.205655 211.524977) scale(0.11 -0.11)">
     <defs>
      <path id="MicrosoftYaHei-Bold-41" d="M 4759 0 
L 3634 0 
L 3272 1109 
L 1513 1109 
L 1156 0 
L 38 0 
L 1809 4841 
L 3022 4841 
L 4759 0 
z
M 3028 1906 
L 2478 3584 
Q 2425 3744 2403 4006 
L 2375 4006 
Q 2356 3794 2291 3597 
L 1738 1906 
L 3028 1906 
z
" transform="scale(0.015625)"/>
     </defs>
     <use xlink:href="#MicrosoftYaHei-Bold-41"/>
    </g>
   </g>
   <g id="text_4">
    <!-- B -->
    <g style="fill: #e67e22" transform="translate(316.291197 211.524977) scale(0.11 -0.11)">
     <defs>
      <path id="MicrosoftYaHei-Bold-42" d="M 559 0 
L 559 4841 
L 2278 4841 
Q 3069 4841 3497 4541 
Q 3925 4241 3925 3709 
Q 3925 3316 3659 3019 
Q 3394 2722 2991 2609 
L 2991 2597 
Q 3497 2534 3808 2221 
Q 4119 1909 4119 1438 
Q 4119 778 3650 389 
Q 3181 0 2369 0 
L 559 0 
z
M 1591 4072 
L 1591 2875 
L 2081 2875 
Q 2434 2875 2637 3044 
Q 2841 3213 2841 3516 
Q 2841 4072 2028 4072 
L 1591 4072 
z
M 1591 2097 
L 1591 769 
L 2203 769 
Q 2594 769 2814 950 
Q 3034 1131 3034 1453 
Q 3034 1759 2815 1928 
Q 2597 2097 2194 2097 
L 1591 2097 
z
" transform="scale(0.015625)"/>
     </defs>
     <use xlink:href="#MicrosoftYaHei-Bold-42"/>
    </g>
   </g>
   <g id="text_5">
    <!-- 直径 d=2r -->
    <g style="fill: #e67e22" transform="translate(165.875301 220.502194) scale(0.1 -0.1)">
     <defs>
      <path id="MicrosoftYaHei-Bold-76f4" d="M 113 78 
L 769 78 
L 769 3828 
L 2731 3828 
L 2731 4241 
L 244 4241 
L 244 4922 
L 2731 4922 
L 2731 5341 
L 3619 5341 
L 3619 4922 
L 6175 4922 
L 6175 4241 
L 3619 4241 
L 3619 3828 
L 5650 3828 
L 5650 78 
L 6294 78 
L 6294 -603 
L 113 -603 
L 113 78 
z
M 4813 3166 
L 1613 3166 
L 1613 2797 
L 4813 2797 
L 4813 3166 
z
M 1613 78 
L 4813 78 
L 4813 447 
L 1613 447 
L 1613 78 
z
M 1613 984 
L 4813 984 
L 4813 1353 
L 1613 1353 
L 1613 984 
z
M 1613 1891 
L 4813 1891 
L 4813 2259 
L 1613 2259 
L 1613 1891 
z
" transform="scale(0.015625)"/>
      <path id="MicrosoftYaHei-Bold-64" d="M 3794 0 
L 2788 0 
L 2788 488 
L 2772 488 
Q 2406 -84 1691 -84 
Q 1031 -84 642 381 
Q 253 847 253 1650 
Q 253 2500 689 3020 
Q 1125 3541 1828 3541 
Q 2503 3541 2772 3053 
L 2788 3053 
L 2788 5116 
L 3794 5116 
L 3794 0 
z
M 2803 1956 
Q 2803 2306 2592 2536 
Q 2381 2766 2066 2766 
Q 1697 2766 1486 2473 
Q 1275 2181 1275 1681 
Q 1275 1206 1478 948 
Q 1681 691 2038 691 
Q 2372 691 2587 962 
Q 2803 1234 2803 1669 
L 2803 1956 
z
" transform="scale(0.015625)"/>
      <path id="MicrosoftYaHei-Bold-3d" d="M 4072 2378 
L 797 2378 
L 797 3041 
L 4072 3041 
L 4072 2378 
z
M 4072 916 
L 797 916 
L 797 1578 
L 4072 1578 
L 4072 916 
z
" transform="scale(0.015625)"/>
      <path id="MicrosoftYaHei-Bold-32" d="M 1500 841 
L 3553 841 
L 3553 0 
L 334 0 
L 334 359 
Q 334 738 473 1050 
Q 613 1363 856 1633 
Q 1100 1903 1613 2266 
Q 2081 2616 2268 2886 
Q 2456 3156 2456 3459 
Q 2456 4113 1744 4113 
Q 1119 4113 550 3613 
L 550 4513 
Q 1184 4922 1975 4922 
Q 2700 4922 3122 4551 
Q 3544 4181 3544 3531 
Q 3544 3169 3422 2876 
Q 3300 2584 3069 2328 
Q 2838 2072 2328 1713 
Q 1838 1363 1669 1172 
Q 1500 981 1500 841 
z
" transform="scale(0.015625)"/>
     </defs>
     <use xlink:href="#MicrosoftYaHei-Bold-76f4"/>
     <use xlink:href="#MicrosoftYaHei-Bold-5f84" transform="translate(100 0)"/>
     <use xlink:href="#MicrosoftYaHei-Bold-20" transform="translate(200 0)"/>
     <use xlink:href="#MicrosoftYaHei-Bold-64" transform="translate(229.785156 0)"/>
     <use xlink:href="#MicrosoftYaHei-Bold-3d" transform="translate(296.240234 0)"/>
     <use xlink:href="#MicrosoftYaHei-Bold-32" transform="translate(372.363281 0)"/>
     <use xlink:href="#MicrosoftYaHei-Bold-72" transform="translate(434.033203 0)"/>
    </g>
   </g>
   <g id="text_6">
    <!-- C -->
    <g style="fill: #8e44ad" transform="translate(94.745151 306.032039) scale(0.11 -0.11)">
     <defs>
      <path id="MicrosoftYaHei-Bold-43" d="M 4013 175 
Q 3484 -84 2634 -84 
Q 1541 -84 898 570 
Q 256 1225 256 2316 
Q 256 3463 973 4192 
Q 1691 4922 2825 4922 
Q 3534 4922 4013 4738 
L 4013 3741 
Q 3522 4028 2900 4028 
Q 2191 4028 1766 3575 
Q 1341 3122 1341 2391 
Q 1341 1678 1744 1243 
Q 2147 809 2834 809 
Q 3481 809 4013 1122 
L 4013 175 
z
" transform="scale(0.015625)"/>
     </defs>
     <use xlink:href="#MicrosoftYaHei-Bold-43"/>
    </g>
   </g>
   <g id="text_7">
    <!-- D -->
    <g style="fill: #8e44ad" transform="translate(302.661912 244.113619) scale(0.11 -0.11)">
     <defs>
      <path id="MicrosoftYaHei-Bold-44" d="M 559 0 
L 559 4841 
L 2231 4841 
Q 4809 4841 4809 2481 
Q 4809 1359 4087 679 
Q 3366 0 2225 0 
L 559 0 
z
M 1591 3997 
L 1591 844 
L 2153 844 
Q 2888 844 3306 1281 
Q 3725 1719 3725 2466 
Q 3725 3188 3287 3592 
Q 2850 3997 2150 3997 
L 1591 3997 
z
" transform="scale(0.015625)"/>
     </defs>
     <use xlink:href="#MicrosoftYaHei-Bold-44"/>
    </g>
   </g>
   <g id="text_8">
    <!-- 弦 -->
    <g style="fill: #8e44ad" transform="translate(219.026173 271.168) scale(0.11 -0.11)">
     <defs>
      <path id="MicrosoftYaHei-Bold-5f26" d="M 3656 5191 
L 4588 5359 
Q 4766 4994 4959 4541 
L 6213 4541 
L 6213 3828 
L 4472 3828 
Q 3856 2906 3500 2428 
L 4419 2506 
Q 4734 2981 5050 3516 
L 5925 3091 
Q 4881 1616 3744 253 
Q 4156 297 4947 366 
Q 4747 775 4550 1141 
L 5325 1491 
Q 5869 522 6338 -484 
L 5519 -859 
L 5294 -359 
Q 3628 -503 2650 -647 
L 2388 116 
Q 3159 788 3909 1791 
Q 3103 1725 2675 1634 
L 2388 2366 
Q 2769 2706 3434 3828 
L 2513 3828 
L 2513 4541 
L 3944 4541 
Q 3819 4844 3656 5191 
z
M 1125 2216 
L 2288 2216 
L 2163 178 
Q 2122 -225 1942 -444 
Q 1763 -663 1525 -706 
Q 1288 -750 394 -741 
Q 344 -328 219 109 
Q 588 59 938 59 
Q 1122 59 1228 156 
Q 1334 253 1359 440 
Q 1384 628 1431 1422 
L 300 1422 
L 494 3616 
L 1475 3616 
L 1475 4272 
L 250 4272 
L 250 5066 
L 2269 5066 
L 2269 2822 
L 1175 2822 
L 1125 2216 
z
" transform="scale(0.015625)"/>
     </defs>
     <use xlink:href="#MicrosoftYaHei-Bold-5f26"/>
    </g>
   </g>
   <g id="text_9">
    <!-- 弧 -->
    <g style="fill: #e74c3c" transform="translate(270.17995 66.899153) scale(0.11 -0.11)">
     <defs>
      <path id="MicrosoftYaHei-Bold-5f27" d="M 6238 4466 
L 5569 4403 
Q 5594 1588 6350 16 
Q 6094 -322 5750 -809 
Q 4906 1091 4831 4341 
L 4438 4309 
L 4438 2947 
Q 4438 1588 4119 222 
Q 4206 241 4609 313 
L 4425 1253 
L 4819 1359 
Q 5100 416 5331 -472 
L 4781 -591 
L 4728 -313 
Q 3719 -519 3406 -653 
L 3163 47 
Q 3253 75 3356 184 
Q 3459 294 3509 566 
Q 3559 838 3621 1455 
Q 3684 2072 3700 2797 
L 3700 4256 
L 3281 4228 
L 3281 2353 
Q 3281 381 2613 -891 
Q 2338 -659 1913 -378 
Q 2494 566 2513 2253 
L 2513 4953 
Q 4875 5097 5963 5291 
L 6238 4466 
z
M 1044 2222 
L 2019 2222 
Q 1928 431 1878 61 
Q 1828 -309 1615 -515 
Q 1403 -722 1022 -722 
L 400 -734 
Q 350 -334 225 103 
Q 619 72 806 72 
Q 947 72 1047 178 
Q 1147 284 1172 532 
Q 1197 781 1231 1434 
L 269 1434 
L 450 3622 
L 1406 3622 
L 1406 4278 
L 219 4278 
L 219 5072 
L 2150 5072 
L 2150 2828 
L 1094 2828 
L 1044 2222 
z
" transform="scale(0.015625)"/>
     </defs>
     <use xlink:href="#MicrosoftYaHei-Bold-5f27"/>
    </g>
   </g>
   <g id="text_10">
    <!-- 圆的基本元素 -->
    <g style="fill: #1a1a2e" transform="translate(147.696395 20.235457) scale(0.14 -0.14)">
     <defs>
      <path id="MicrosoftYaHei-Bold-5706" d="M 369 -841 
L 369 5072 
L 6019 5072 
L 6019 -834 
L 5225 -834 
L 5225 -591 
L 1163 -591 
L 1163 -841 
L 369 -841 
z
M 5225 4403 
L 1163 4403 
L 1163 78 
L 5225 78 
L 5225 4403 
z
M 1763 4166 
L 4625 4166 
L 4625 2797 
L 1763 2797 
L 1763 4166 
z
M 3988 3616 
L 2400 3616 
L 2400 3322 
L 3988 3322 
L 3988 3616 
z
M 1538 1078 
L 1538 2547 
L 4850 2547 
L 4850 1078 
L 4175 1078 
L 4175 1978 
L 2213 1978 
L 2213 1078 
L 1538 1078 
z
M 2938 1778 
L 3650 1778 
Q 3625 1488 3525 1253 
Q 4328 991 5169 697 
L 4813 109 
L 3191 781 
Q 2663 328 1613 141 
Q 1488 441 1300 778 
Q 2309 925 2604 1156 
Q 2900 1388 2938 1778 
z
" transform="scale(0.015625)"/>
      <path id="MicrosoftYaHei-Bold-7684" d="M 1250 5303 
L 2181 5159 
L 1900 4309 
L 2963 4309 
L 2963 3091 
Q 3466 3934 3925 5316 
L 4788 5091 
Q 4650 4675 4494 4278 
L 6106 4278 
L 6034 681 
Q 6019 100 5937 -133 
Q 5856 -366 5684 -512 
Q 5513 -659 5205 -712 
Q 4897 -766 3863 -766 
Q 3769 -216 3625 178 
Q 4088 141 4609 141 
Q 4759 141 4868 175 
Q 4978 209 5048 279 
Q 5119 350 5144 437 
Q 5169 525 5184 1206 
L 5213 2484 
Q 5225 3081 5225 3453 
L 4138 3453 
Q 3931 3016 3700 2603 
Q 3403 2797 2963 2988 
L 2963 -734 
L 2094 -734 
L 2094 -284 
L 1206 -284 
L 1206 -772 
L 338 -772 
L 338 4309 
L 997 4309 
Q 1178 4922 1250 5303 
z
M 2094 3491 
L 1206 3491 
L 1206 2422 
L 2094 2422 
L 2094 3491 
z
M 1206 534 
L 2094 534 
L 2094 1603 
L 1206 1603 
L 1206 534 
z
M 3944 2703 
Q 4394 2166 4913 1397 
L 4125 872 
Q 3650 1653 3219 2203 
L 3944 2703 
z
" transform="scale(0.015625)"/>
      <path id="MicrosoftYaHei-Bold-57fa" d="M 6319 853 
Q 6063 484 5856 159 
Q 5369 428 4925 791 
L 4925 384 
L 3631 384 
L 3631 3 
L 5875 3 
L 5875 -653 
L 525 -653 
L 525 3 
L 2775 3 
L 2775 384 
L 1450 384 
L 1450 766 
Q 1016 422 544 159 
Q 363 447 75 847 
Q 856 1141 1397 1584 
L 156 1584 
L 156 2241 
L 1244 2241 
L 1244 4141 
L 338 4141 
L 338 4797 
L 1244 4797 
L 1244 5341 
L 2100 5341 
L 2100 4797 
L 4313 4797 
L 4313 5341 
L 5163 5341 
L 5163 4797 
L 6069 4797 
L 6069 4141 
L 5163 4141 
L 5163 2241 
L 6244 2241 
L 6244 1584 
L 5013 1584 
Q 5675 1091 6319 853 
z
M 2100 3828 
L 4313 3828 
L 4313 4141 
L 2100 4141 
L 2100 3828 
z
M 2100 3028 
L 4313 3028 
L 4313 3341 
L 2100 3341 
L 2100 3028 
z
M 2100 2241 
L 4313 2241 
L 4313 2553 
L 2100 2553 
L 2100 2241 
z
M 2775 1466 
L 3631 1466 
L 3631 1028 
L 4647 1028 
Q 4359 1284 4091 1584 
L 2319 1584 
Q 2050 1284 1759 1028 
L 2775 1028 
L 2775 1466 
z
" transform="scale(0.015625)"/>
      <path id="MicrosoftYaHei-Bold-672c" d="M 356 4403 
L 2744 4403 
L 2744 5328 
L 3619 5328 
L 3619 4403 
L 6044 4403 
L 6044 3591 
L 3878 3591 
Q 4894 2006 6325 1166 
Q 6056 884 5656 366 
Q 4409 1409 3619 2741 
L 3619 1047 
L 4875 1047 
L 4875 259 
L 3619 259 
L 3619 -828 
L 2744 -828 
L 2744 259 
L 1481 259 
L 1481 1016 
Q 1119 634 713 291 
Q 369 741 75 1066 
Q 1553 2069 2506 3591 
L 356 3591 
L 356 4403 
z
M 1509 1047 
L 2744 1047 
L 2744 2681 
Q 2209 1794 1509 1047 
z
" transform="scale(0.015625)"/>
      <path id="MicrosoftYaHei-Bold-5143" d="M 675 4953 
L 5725 4953 
L 5725 4103 
L 675 4103 
L 675 4953 
z
M 5425 1178 
Q 6006 959 6300 866 
Q 6181 269 6073 -103 
Q 5966 -475 5708 -614 
Q 5450 -753 5081 -747 
L 4475 -747 
Q 3481 -747 3481 197 
L 3481 2266 
L 2584 2266 
Q 2494 19 750 -847 
Q 513 -566 88 -109 
Q 1619 609 1694 2266 
L 163 2266 
L 163 3128 
L 6238 3128 
L 6238 2266 
L 4388 2266 
L 4388 509 
Q 4388 59 4769 59 
L 4975 59 
Q 5166 59 5247 217 
Q 5328 375 5425 1178 
z
" transform="scale(0.015625)"/>
      <path id="MicrosoftYaHei-Bold-7d20" d="M 4694 2003 
Q 5713 1284 6269 866 
L 5656 391 
Q 5447 578 5184 794 
L 3731 731 
L 3731 -172 
Q 3731 -469 3578 -626 
Q 3425 -784 3125 -803 
Q 2825 -822 2069 -828 
Q 1988 -428 1906 -122 
Q 2366 -141 2644 -141 
Q 2888 -141 2888 128 
L 2888 688 
Q 1659 616 681 516 
L 463 1172 
Q 1444 1372 2584 1788 
Q 1516 1716 925 1641 
L 694 2291 
Q 1284 2409 1869 2641 
L 150 2641 
L 150 3253 
L 2763 3253 
L 2763 3484 
L 625 3484 
L 625 4097 
L 2763 4097 
L 2763 4328 
L 363 4328 
L 363 4941 
L 2763 4941 
L 2763 5353 
L 3625 5353 
L 3625 4941 
L 6050 4941 
L 6050 4328 
L 3625 4328 
L 3625 4097 
L 5756 4097 
L 5756 3484 
L 3625 3484 
L 3625 3253 
L 6250 3253 
L 6250 2641 
L 4806 2641 
L 5263 2247 
Q 3656 1616 2344 1197 
L 4497 1341 
Q 4325 1475 4138 1616 
L 4694 2003 
z
M 4622 2641 
L 3069 2641 
Q 2575 2438 1938 2222 
L 3972 2347 
Q 4294 2484 4622 2641 
z
M 1806 578 
L 2213 47 
L 525 -797 
Q 331 -459 81 -109 
Q 513 9 1806 578 
z
M 4488 509 
Q 5431 191 6256 -116 
L 5888 -772 
Q 5131 -453 4138 -78 
L 4488 509 
z
" transform="scale(0.015625)"/>
     </defs>
     <use xlink:href="#MicrosoftYaHei-Bold-5706"/>
     <use xlink:href="#MicrosoftYaHei-Bold-7684" transform="translate(100 0)"/>
     <use xlink:href="#MicrosoftYaHei-Bold-57fa" transform="translate(200 0)"/>
     <use xlink:href="#MicrosoftYaHei-Bold-672c" transform="translate(300 0)"/>
     <use xlink:href="#MicrosoftYaHei-Bold-5143" transform="translate(400 0)"/>
     <use xlink:href="#MicrosoftYaHei-Bold-7d20" transform="translate(500 0)"/>
    </g>
   </g>
   <g id="line2d_7">
    <defs>
     <path id="m31e1440baa" d="M 0 4.5 
C 1.193414 4.5 2.338109 4.025852 3.181981 3.181981 
C 4.025852 2.338109 4.5 1.193414 4.5 0 
C 4.5 -1.193414 4.025852 -2.338109 3.181981 -3.181981 
C 2.338109 -4.025852 1.193414 -4.5 0 -4.5 
C -1.193414 -4.5 -2.338109 -4.025852 -3.181981 -3.181981 
C -4.025852 -2.338109 -4.5 -1.193414 -4.5 0 
C -4.5 1.193414 -4.025852 2.338109 -3.181981 3.181981 
C -2.338109 4.025852 -1.193414 4.5 0 4.5 
z
" style="stroke: #e74c3c"/>
    </defs>
    <g clip-path="url(#pb26ea29b55)">
     <use xlink:href="#m31e1440baa" x="189.696395" y="189.696395" style="fill: #e74c3c; stroke: #e74c3c"/>
    </g>
   </g>
  </g>
 </g>
 <defs>
  <clipPath id="pb26ea29b55">
   <rect x="7.2" y="7.2" width="364.99279" height="351.957333"/>
  </clipPath>
 </defs>
</svg>
