<?xml version="1.0" encoding="utf-8" standalone="no"?>
<!DOCTYPE svg PUBLIC "-//W3C//DTD SVG 1.1//EN"
  "http://www.w3.org/Graphics/SVG/1.1/DTD/svg11.dtd">
<svg xmlns:xlink="http://www.w3.org/1999/xlink" width="306.747433pt" height="258.350268pt" viewBox="0 0 306.747433 258.350268" xmlns="http://www.w3.org/2000/svg" version="1.1">
 <metadata>
  <rdf:RDF xmlns:dc="http://purl.org/dc/elements/1.1/" xmlns:cc="http://creativecommons.org/ns#" xmlns:rdf="http://www.w3.org/1999/02/22-rdf-syntax-ns#">
   <cc:Work>
    <dc:type rdf:resource="http://purl.org/dc/dcmitype/StillImage"/>
    <dc:date>2026-05-22T23:04:21.321186</dc:date>
    <dc:format>image/svg+xml</dc:format>
    <dc:creator>
     <cc:Agent>
      <dc:title>Matplotlib v3.10.9, https://matplotlib.org/</dc:title>
     </cc:Agent>
    </dc:creator>
   </cc:Work>
  </rdf:RDF>
 </metadata>
 <defs>
  <style type="text/css">*{stroke-linejoin: round; stroke-linecap: butt}</style>
 </defs>
 <g id="figure_1">
  <g id="patch_1">
   <path d="M 0 258.350268 
L 306.747433 258.350268 
L 306.747433 0 
L 0 0 
z
" style="fill: #ffffff"/>
  </g>
  <g id="axes_1">
   <g id="patch_2">
    <path d="M 47.057143 211.293125 
L 126.771429 211.293125 
L 78.942857 151.507411 
z
" clip-path="url(#p1fd117c9cd)" style="fill: #e74c3c; fill-opacity: 0.25098; stroke: #e74c3c; stroke-width: 2; stroke-linejoin: miter"/>
   </g>
   <g id="patch_3">
    <path d="M 146.7 211.293125 
L 226.414286 211.293125 
L 178.585714 151.507411 
z
" clip-path="url(#p1fd117c9cd)" style="fill: #e74c3c; fill-opacity: 0.25098; stroke: #e74c3c; stroke-width: 2; stroke-linejoin: miter"/>
   </g>
   <g id="patch_4">
    <path d="M 47.057143 127.593125 
L 118.8 127.593125 
L 78.942857 79.764554 
z
" clip-path="url(#p1fd117c9cd)" style="fill: #2980b9; fill-opacity: 0.25098; stroke: #2980b9; stroke-width: 2; stroke-linejoin: miter"/>
   </g>
   <g id="patch_5">
    <path d="M 186.557143 127.593125 
L 258.3 127.593125 
L 218.442857 79.764554 
z
" clip-path="url(#p1fd117c9cd)" style="fill: #2980b9; fill-opacity: 0.25098; stroke: #2980b9; stroke-width: 2; stroke-linejoin: miter"/>
   </g>
   <g id="patch_6">
    <path d="M 47.057143 51.864554 
L 47.057143 -7.921161 
L 106.842857 31.935982 
z
" clip-path="url(#p1fd117c9cd)" style="fill: #27ae60; fill-opacity: 0.25098; stroke: #27ae60; stroke-width: 2; stroke-linejoin: miter"/>
   </g>
   <g id="patch_7">
    <path d="M 186.557143 51.864554 
L 186.557143 -7.921161 
L 246.342857 31.935982 
z
" clip-path="url(#p1fd117c9cd)" style="fill: #27ae60; fill-opacity: 0.25098; stroke: #27ae60; stroke-width: 2; stroke-linejoin: miter"/>
   </g>
   <g id="text_1">
    <!-- SSS -->
    <g style="fill: #e74c3c" transform="translate(69.017076 223.250268) scale(0.11 -0.11)">
     <defs>
      <path id="MicrosoftYaHei-Bold-53" d="M 338 1219 
Q 922 734 1666 734 
Q 2088 734 2300 879 
Q 2513 1025 2513 1253 
Q 2513 1450 2344 1625 
Q 2175 1800 1453 2100 
Q 319 2581 319 3500 
Q 319 4175 833 4548 
Q 1347 4922 2194 4922 
Q 2903 4922 3384 4738 
L 3384 3769 
Q 2897 4100 2244 4100 
Q 1863 4100 1634 3961 
Q 1406 3822 1406 3588 
Q 1406 3400 1562 3242 
Q 1719 3084 2334 2816 
Q 3056 2506 3326 2162 
Q 3597 1819 3597 1344 
Q 3597 647 3103 281 
Q 2609 -84 1700 -84 
Q 869 -84 338 184 
L 338 1219 
z
" transform="scale(0.015625)"/>
     </defs>
     <use xlink:href="#MicrosoftYaHei-Bold-53"/>
     <use xlink:href="#MicrosoftYaHei-Bold-53" transform="translate(60.15625 0)"/>
     <use xlink:href="#MicrosoftYaHei-Bold-53" transform="translate(120.3125 0)"/>
    </g>
   </g>
   <g id="text_2">
    <!-- SAS -->
    <g style="fill: #2980b9" transform="translate(82.928571 95.707411) scale(0.11 -0.11)">
     <defs>
      <path id="MicrosoftYaHei-Bold-41" d="M 4759 0 
L 3634 0 
L 3272 1109 
L 1513 1109 
L 1156 0 
L 38 0 
L 1809 4841 
L 3022 4841 
L 4759 0 
z
M 3028 1906 
L 2478 3584 
Q 2425 3744 2403 4006 
L 2375 4006 
Q 2356 3794 2291 3597 
L 1738 1906 
L 3028 1906 
z
" transform="scale(0.015625)"/>
     </defs>
     <use xlink:href="#MicrosoftYaHei-Bold-53"/>
     <use xlink:href="#MicrosoftYaHei-Bold-41" transform="translate(60.15625 0)"/>
     <use xlink:href="#MicrosoftYaHei-Bold-53" transform="translate(135.351562 0)"/>
    </g>
   </g>
   <g id="text_3">
    <!-- AAS -->
    <g style="fill: #27ae60" transform="translate(76.95 15.993125) scale(0.11 -0.11)">
     <use xlink:href="#MicrosoftYaHei-Bold-41"/>
     <use xlink:href="#MicrosoftYaHei-Bold-41" transform="translate(75.195312 0)"/>
     <use xlink:href="#MicrosoftYaHei-Bold-53" transform="translate(150.390625 0)"/>
    </g>
   </g>
   <g id="text_4">
    <!-- 全等判定：SSS / SAS / ASA / AAS / HL -->
    <g style="fill: #1a6fc4" transform="translate(113.423996 91.721696) scale(0.1 -0.1)">
     <defs>
      <path id="MicrosoftYaHei-Bold-5168" d="M 369 184 
L 2731 184 
L 2731 934 
L 869 934 
L 869 1734 
L 2731 1734 
L 2731 2366 
L 1525 2366 
L 1525 2859 
Q 1113 2566 644 2284 
Q 463 2541 88 3016 
Q 2088 4091 2800 5316 
L 3894 5316 
L 3731 5078 
Q 4538 3922 6313 3091 
Q 5981 2678 5750 2353 
Q 5281 2603 4875 2878 
L 4875 2366 
L 3663 2366 
L 3663 1734 
L 5544 1734 
L 5544 934 
L 3663 934 
L 3663 184 
L 6031 184 
L 6031 -616 
L 369 -616 
L 369 184 
z
M 3200 4416 
Q 2688 3766 1925 3166 
L 4475 3166 
Q 3725 3741 3200 4416 
z
" transform="scale(0.015625)"/>
      <path id="MicrosoftYaHei-Bold-7b49" d="M 338 1328 
L 4069 1328 
L 4069 1666 
L 125 1666 
L 125 2328 
L 2750 2328 
L 2750 2703 
L 563 2703 
L 563 3366 
L 2750 3366 
L 2750 3822 
L 3516 3822 
L 3181 4047 
Q 3247 4131 3313 4222 
L 2144 4222 
Q 2403 3938 2531 3784 
L 1950 3378 
Q 1825 3559 1463 3997 
L 1769 4222 
L 1272 4222 
Q 981 3838 656 3503 
Q 425 3753 81 4053 
Q 675 4653 1063 5347 
L 2000 5347 
Q 1847 5072 1684 4816 
L 3363 4816 
L 3363 4291 
Q 3722 4797 3975 5347 
L 4931 5347 
Q 4803 5069 4666 4816 
L 6225 4816 
L 6225 4222 
L 5231 4222 
Q 5434 4013 5625 3803 
L 5031 3397 
Q 4731 3778 4488 4047 
L 4734 4222 
L 4309 4222 
Q 4084 3881 3838 3591 
Q 3756 3653 3606 3759 
L 3606 3366 
L 5850 3366 
L 5850 2703 
L 3606 2703 
L 3606 2328 
L 6288 2328 
L 6288 1666 
L 4938 1666 
L 4938 1328 
L 6075 1328 
L 6075 653 
L 4938 653 
L 4938 16 
Q 4938 -375 4758 -576 
Q 4578 -778 4236 -790 
Q 3894 -803 3019 -809 
Q 2956 -434 2850 59 
Q 3566 28 3728 28 
Q 4069 28 4069 416 
L 4069 653 
L 2225 653 
Q 2463 341 2675 47 
L 1931 -441 
Q 1609 94 1231 653 
L 338 653 
L 338 1328 
z
" transform="scale(0.015625)"/>
      <path id="MicrosoftYaHei-Bold-5224" d="M 163 1816 
L 1444 1816 
Q 1488 2116 1494 2453 
L 275 2453 
L 275 3203 
L 1509 3203 
L 1538 5266 
L 2369 5266 
L 2325 3203 
L 3550 3203 
L 3550 2453 
L 2300 2453 
Q 2297 2122 2266 1816 
L 3663 1816 
L 3663 1066 
L 2134 1066 
Q 1847 -75 1050 -878 
Q 788 -528 419 -134 
Q 997 325 1263 1066 
L 163 1066 
L 163 1816 
z
M 5163 5241 
L 5994 5241 
L 5994 303 
Q 5994 -181 5822 -437 
Q 5650 -694 5348 -728 
Q 5047 -763 4181 -759 
Q 4119 -316 4000 128 
Q 4444 109 4813 109 
Q 5163 109 5163 503 
L 5163 5241 
z
M 769 4997 
Q 1063 4559 1481 3784 
L 775 3403 
Q 475 4053 113 4634 
L 769 4997 
z
M 3094 4991 
L 3769 4634 
Q 3325 3828 3013 3359 
L 2394 3734 
Q 2750 4266 3094 4991 
z
M 4675 759 
L 3850 759 
L 3850 4666 
L 4675 4666 
L 4675 759 
z
" transform="scale(0.015625)"/>
      <path id="MicrosoftYaHei-Bold-5b9a" d="M 2581 5128 
L 3538 5353 
Q 3666 5028 3806 4634 
L 6063 4634 
L 6063 3403 
L 5200 3403 
L 5200 3872 
L 1225 3872 
L 1225 3403 
L 363 3403 
L 363 4634 
L 2772 4634 
L 2581 5128 
z
M 5831 1741 
L 5831 972 
L 3744 972 
L 3744 125 
Q 4766 103 6313 147 
Q 6138 -372 6044 -697 
Q 3819 -697 2809 -630 
Q 1800 -563 1388 219 
Q 1069 -425 613 -859 
Q 331 -441 94 -134 
Q 875 659 1094 2122 
L 1931 2022 
Q 1850 1541 1728 1122 
Q 2047 300 2850 175 
L 2850 2416 
L 263 2416 
L 263 3184 
L 6156 3184 
L 6156 2416 
L 3744 2416 
L 3744 1741 
L 5831 1741 
z
" transform="scale(0.015625)"/>
      <path id="MicrosoftYaHei-Bold-ff1a" d="M 1594 3506 
Q 1831 3506 2000 3354 
Q 2169 3203 2169 2981 
Q 2169 2766 2003 2614 
Q 1838 2463 1594 2463 
Q 1353 2463 1189 2616 
Q 1025 2769 1025 2981 
Q 1025 3200 1192 3353 
Q 1359 3506 1594 3506 
z
M 1594 959 
Q 1831 959 2000 806 
Q 2169 653 2169 434 
Q 2169 222 2000 69 
Q 1831 -84 1594 -84 
Q 1356 -84 1190 69 
Q 1025 222 1025 434 
Q 1025 653 1190 806 
Q 1356 959 1594 959 
z
" transform="scale(0.015625)"/>
      <path id="MicrosoftYaHei-Bold-20" transform="scale(0.015625)"/>
      <path id="MicrosoftYaHei-Bold-2f" d="M 3100 4841 
L 747 -803 
L -156 -803 
L 2188 4841 
L 3100 4841 
z
" transform="scale(0.015625)"/>
      <path id="MicrosoftYaHei-Bold-48" d="M 4684 0 
L 3653 0 
L 3653 1997 
L 1591 1997 
L 1591 0 
L 559 0 
L 559 4841 
L 1591 4841 
L 1591 2888 
L 3653 2888 
L 3653 4841 
L 4684 4841 
L 4684 0 
z
" transform="scale(0.015625)"/>
      <path id="MicrosoftYaHei-Bold-4c" d="M 3400 0 
L 559 0 
L 559 4841 
L 1591 4841 
L 1591 844 
L 3400 844 
L 3400 0 
z
" transform="scale(0.015625)"/>
     </defs>
     <use xlink:href="#MicrosoftYaHei-Bold-5168"/>
     <use xlink:href="#MicrosoftYaHei-Bold-7b49" transform="translate(100 0)"/>
     <use xlink:href="#MicrosoftYaHei-Bold-5224" transform="translate(200 0)"/>
     <use xlink:href="#MicrosoftYaHei-Bold-5b9a" transform="translate(300 0)"/>
     <use xlink:href="#MicrosoftYaHei-Bold-ff1a" transform="translate(400 0)"/>
     <use xlink:href="#MicrosoftYaHei-Bold-53" transform="translate(500 0)"/>
     <use xlink:href="#MicrosoftYaHei-Bold-53" transform="translate(560.15625 0)"/>
     <use xlink:href="#MicrosoftYaHei-Bold-53" transform="translate(620.3125 0)"/>
     <use xlink:href="#MicrosoftYaHei-Bold-20" transform="translate(680.46875 0)"/>
     <use xlink:href="#MicrosoftYaHei-Bold-2f" transform="translate(710.253906 0)"/>
     <use xlink:href="#MicrosoftYaHei-Bold-20" transform="translate(757.519531 0)"/>
     <use xlink:href="#MicrosoftYaHei-Bold-53" transform="translate(787.304688 0)"/>
     <use xlink:href="#MicrosoftYaHei-Bold-41" transform="translate(847.460938 0)"/>
     <use xlink:href="#MicrosoftYaHei-Bold-53" transform="translate(922.65625 0)"/>
     <use xlink:href="#MicrosoftYaHei-Bold-20" transform="translate(982.8125 0)"/>
     <use xlink:href="#MicrosoftYaHei-Bold-2f" transform="translate(1012.597656 0)"/>
     <use xlink:href="#MicrosoftYaHei-Bold-20" transform="translate(1059.863281 0)"/>
     <use xlink:href="#MicrosoftYaHei-Bold-41" transform="translate(1089.648438 0)"/>
     <use xlink:href="#MicrosoftYaHei-Bold-53" transform="translate(1164.84375 0)"/>
     <use xlink:href="#MicrosoftYaHei-Bold-41" transform="translate(1225 0)"/>
     <use xlink:href="#MicrosoftYaHei-Bold-20" transform="translate(1300.195312 0)"/>
     <use xlink:href="#MicrosoftYaHei-Bold-2f" transform="translate(1329.980469 0)"/>
     <use xlink:href="#MicrosoftYaHei-Bold-20" transform="translate(1377.246094 0)"/>
     <use xlink:href="#MicrosoftYaHei-Bold-41" transform="translate(1407.03125 0)"/>
     <use xlink:href="#MicrosoftYaHei-Bold-41" transform="translate(1482.226562 0)"/>
     <use xlink:href="#MicrosoftYaHei-Bold-53" transform="translate(1557.421875 0)"/>
     <use xlink:href="#MicrosoftYaHei-Bold-20" transform="translate(1617.578125 0)"/>
     <use xlink:href="#MicrosoftYaHei-Bold-2f" transform="translate(1647.363281 0)"/>
     <use xlink:href="#MicrosoftYaHei-Bold-20" transform="translate(1694.628906 0)"/>
     <use xlink:href="#MicrosoftYaHei-Bold-48" transform="translate(1724.414062 0)"/>
     <use xlink:href="#MicrosoftYaHei-Bold-4c" transform="translate(1806.542969 0)"/>
    </g>
   </g>
  </g>
 </g>
 <defs>
  <clipPath id="p1fd117c9cd">
   <rect x="7.2" y="71.793125" width="279" height="179.357143"/>
  </clipPath>
 </defs>
</svg>
