<?xml version="1.0" encoding="utf-8" standalone="no"?>
<!DOCTYPE svg PUBLIC "-//W3C//DTD SVG 1.1//EN"
  "http://www.w3.org/Graphics/SVG/1.1/DTD/svg11.dtd">
<svg xmlns:xlink="http://www.w3.org/1999/xlink" width="496.8pt" height="221.321023pt" viewBox="0 0 496.8 221.321023" xmlns="http://www.w3.org/2000/svg" version="1.1">
 <metadata>
  <rdf:RDF xmlns:dc="http://purl.org/dc/elements/1.1/" xmlns:cc="http://creativecommons.org/ns#" xmlns:rdf="http://www.w3.org/1999/02/22-rdf-syntax-ns#">
   <cc:Work>
    <dc:type rdf:resource="http://purl.org/dc/dcmitype/StillImage"/>
    <dc:date>2026-05-22T23:04:21.381073</dc:date>
    <dc:format>image/svg+xml</dc:format>
    <dc:creator>
     <cc:Agent>
      <dc:title>Matplotlib v3.10.9, https://matplotlib.org/</dc:title>
     </cc:Agent>
    </dc:creator>
   </cc:Work>
  </rdf:RDF>
 </metadata>
 <defs>
  <style type="text/css">*{stroke-linejoin: round; stroke-linecap: butt}</style>
 </defs>
 <g id="figure_1">
  <g id="patch_1">
   <path d="M 0 221.321023 
L 496.8 221.321023 
L 496.8 0 
L 0 0 
z
" style="fill: #ffffff"/>
  </g>
  <g id="axes_1">
   <g id="patch_2">
    <path d="M 50.072727 171.248295 
L 135.818182 171.248295 
L 92.945455 85.502841 
z
" clip-path="url(#pc3a7b89007)" style="fill: #e74c3c; fill-opacity: 0.188235; stroke: #e74c3c; stroke-width: 2; stroke-linejoin: miter"/>
   </g>
   <g id="patch_3">
    <path d="M 92.945455 85.502841 
L 200.127273 158.386477 
L 92.945455 21.19375 
z
" clip-path="url(#pc3a7b89007)" style="fill: #2980b9; fill-opacity: 0.188235; stroke: #2980b9; stroke-width: 2; stroke-linejoin: miter"/>
   </g>
   <g id="text_1">
    <!-- A -->
    <g transform="translate(89.185298 81.215568) scale(0.1 -0.1)">
     <defs>
      <path id="MicrosoftYaHei-Bold-41" d="M 4759 0 
L 3634 0 
L 3272 1109 
L 1513 1109 
L 1156 0 
L 38 0 
L 1809 4841 
L 3022 4841 
L 4759 0 
z
M 3028 1906 
L 2478 3584 
Q 2425 3744 2403 4006 
L 2375 4006 
Q 2356 3794 2291 3597 
L 1738 1906 
L 3028 1906 
z
" transform="scale(0.015625)"/>
     </defs>
     <use xlink:href="#MicrosoftYaHei-Bold-41"/>
    </g>
   </g>
   <g id="text_2">
    <!-- B -->
    <g transform="translate(41.498182 179.822841) scale(0.1 -0.1)">
     <defs>
      <path id="MicrosoftYaHei-Bold-42" d="M 559 0 
L 559 4841 
L 2278 4841 
Q 3069 4841 3497 4541 
Q 3925 4241 3925 3709 
Q 3925 3316 3659 3019 
Q 3394 2722 2991 2609 
L 2991 2597 
Q 3497 2534 3808 2221 
Q 4119 1909 4119 1438 
Q 4119 778 3650 389 
Q 3181 0 2369 0 
L 559 0 
z
M 1591 4072 
L 1591 2875 
L 2081 2875 
Q 2434 2875 2637 3044 
Q 2841 3213 2841 3516 
Q 2841 4072 2028 4072 
L 1591 4072 
z
M 1591 2097 
L 1591 769 
L 2203 769 
Q 2594 769 2814 950 
Q 3034 1131 3034 1453 
Q 3034 1759 2815 1928 
Q 2597 2097 2194 2097 
L 1591 2097 
z
" transform="scale(0.015625)"/>
     </defs>
     <use xlink:href="#MicrosoftYaHei-Bold-42"/>
    </g>
   </g>
   <g id="text_3">
    <!-- C -->
    <g transform="translate(144.392727 179.822841) scale(0.1 -0.1)">
     <defs>
      <path id="MicrosoftYaHei-Bold-43" d="M 4013 175 
Q 3484 -84 2634 -84 
Q 1541 -84 898 570 
Q 256 1225 256 2316 
Q 256 3463 973 4192 
Q 1691 4922 2825 4922 
Q 3534 4922 4013 4738 
L 4013 3741 
Q 3522 4028 2900 4028 
Q 2191 4028 1766 3575 
Q 1341 3122 1341 2391 
Q 1341 1678 1744 1243 
Q 2147 809 2834 809 
Q 3481 809 4013 1122 
L 4013 175 
z
" transform="scale(0.015625)"/>
     </defs>
     <use xlink:href="#MicrosoftYaHei-Bold-43"/>
    </g>
   </g>
   <g id="text_4">
    <!-- D -->
    <g transform="translate(204.414545 166.961023) scale(0.1 -0.1)">
     <defs>
      <path id="MicrosoftYaHei-Bold-44" d="M 559 0 
L 559 4841 
L 2231 4841 
Q 4809 4841 4809 2481 
Q 4809 1359 4087 679 
Q 3366 0 2225 0 
L 559 0 
z
M 1591 3997 
L 1591 844 
L 2153 844 
Q 2888 844 3306 1281 
Q 3725 1719 3725 2466 
Q 3725 3188 3287 3592 
Q 2850 3997 2150 3997 
L 1591 3997 
z
" transform="scale(0.015625)"/>
     </defs>
     <use xlink:href="#MicrosoftYaHei-Bold-44"/>
    </g>
   </g>
   <g id="text_5">
    <!-- E -->
    <g transform="translate(84.370909 21.19375) scale(0.1 -0.1)">
     <defs>
      <path id="MicrosoftYaHei-Bold-45" d="M 3425 0 
L 559 0 
L 559 4841 
L 3313 4841 
L 3313 3997 
L 1591 3997 
L 1591 2856 
L 3191 2856 
L 3191 2016 
L 1591 2016 
L 1591 844 
L 3425 844 
L 3425 0 
z
" transform="scale(0.015625)"/>
     </defs>
     <use xlink:href="#MicrosoftYaHei-Bold-45"/>
    </g>
   </g>
   <g id="text_6">
    <!-- △ABD ≌ △ACE -->
    <g style="fill: #e67e22" transform="translate(50.072727 64.066477) scale(0.09 -0.09)">
     <defs>
      <path id="MicrosoftYaHei-Bold-25b3" d="M 3272 1350 
L 569 1350 
L 1919 3909 
L 3272 1350 
z
M 2881 1588 
L 1919 3406 
L 959 1588 
L 2881 1588 
z
" transform="scale(0.015625)"/>
      <path id="MicrosoftYaHei-Bold-20" transform="scale(0.015625)"/>
      <path id="MicrosoftYaHei-Bold-224c" d="M 2541 3700 
Q 2897 3700 3128 3454 
Q 3359 3209 3359 2881 
Q 3359 2653 3250 2464 
Q 3141 2275 2956 2167 
Q 2772 2059 2541 2059 
Q 2344 2059 2144 2175 
Q 1944 2291 1631 2797 
Q 1425 3156 1278 3273 
Q 1131 3391 978 3391 
Q 772 3391 620 3239 
Q 469 3088 469 2881 
Q 469 2672 620 2520 
Q 772 2369 978 2369 
L 978 2059 
Q 641 2059 400 2298 
Q 159 2538 159 2881 
Q 159 3225 396 3462 
Q 634 3700 978 3700 
Q 1175 3700 1375 3584 
Q 1575 3469 1881 2956 
Q 2097 2603 2239 2486 
Q 2381 2369 2541 2369 
Q 2747 2369 2900 2520 
Q 3053 2672 3053 2881 
Q 3053 3072 2908 3231 
Q 2763 3391 2541 3391 
L 2541 3700 
z
M 3397 1166 
L 116 1166 
L 116 1472 
L 3397 1472 
L 3397 1166 
z
M 3397 0 
L 116 0 
L 116 306 
L 3397 306 
L 3397 0 
z
" transform="scale(0.015625)"/>
     </defs>
     <use xlink:href="#MicrosoftYaHei-Bold-25b3"/>
     <use xlink:href="#MicrosoftYaHei-Bold-41" transform="translate(60.009766 0)"/>
     <use xlink:href="#MicrosoftYaHei-Bold-42" transform="translate(135.205078 0)"/>
     <use xlink:href="#MicrosoftYaHei-Bold-44" transform="translate(203.564453 0)"/>
     <use xlink:href="#MicrosoftYaHei-Bold-20" transform="translate(282.714844 0)"/>
     <use xlink:href="#MicrosoftYaHei-Bold-224c" transform="translate(312.5 0)"/>
     <use xlink:href="#MicrosoftYaHei-Bold-20" transform="translate(367.382812 0)"/>
     <use xlink:href="#MicrosoftYaHei-Bold-25b3" transform="translate(397.167969 0)"/>
     <use xlink:href="#MicrosoftYaHei-Bold-41" transform="translate(457.177734 0)"/>
     <use xlink:href="#MicrosoftYaHei-Bold-43" transform="translate(530.748047 0)"/>
     <use xlink:href="#MicrosoftYaHei-Bold-45" transform="translate(598.082031 0)"/>
    </g>
   </g>
   <g id="text_7">
    <!-- 手拉手模型（旋转全等） -->
    <g style="fill: #e74c3c" transform="translate(70.1 15.19375) scale(0.1 -0.1)">
     <defs>
      <path id="MicrosoftYaHei-Bold-624b" d="M 106 1891 
L 2863 1891 
L 2863 2641 
L 563 2641 
L 563 3466 
L 2863 3466 
L 2863 4200 
L 681 4128 
Q 613 4459 475 4972 
Q 3881 5016 5663 5153 
L 5938 4328 
L 3806 4234 
L 3806 3466 
L 5850 3466 
L 5850 2641 
L 3806 2641 
L 3806 1891 
L 6300 1891 
L 6300 1047 
L 3806 1047 
L 3806 291 
Q 3806 -9 3692 -243 
Q 3578 -478 3354 -597 
Q 3131 -716 2976 -742 
Q 2822 -769 1638 -791 
Q 1525 -259 1425 153 
Q 2069 103 2419 103 
Q 2863 103 2863 566 
L 2863 1047 
L 106 1047 
L 106 1891 
z
" transform="scale(0.015625)"/>
      <path id="MicrosoftYaHei-Bold-62c9" d="M 2450 4297 
L 3863 4297 
Q 3722 4669 3513 5122 
L 4413 5366 
Q 4638 4897 4838 4447 
L 4272 4297 
L 6106 4297 
L 6106 3509 
L 2450 3509 
L 2450 4297 
z
M 150 4203 
L 894 4203 
L 894 5334 
L 1744 5334 
L 1744 4203 
L 2213 4203 
L 2213 3422 
L 1744 3422 
L 1744 2522 
L 2394 2653 
Q 2313 2228 2313 1772 
L 1744 1663 
L 1744 28 
Q 1744 -303 1598 -497 
Q 1453 -691 1195 -741 
Q 938 -791 319 -791 
Q 256 -428 150 41 
Q 384 22 559 22 
Q 744 22 817 84 
Q 891 147 894 291 
L 894 1488 
L 156 1328 
L 88 2222 
L 894 2359 
L 894 3422 
L 150 3422 
L 150 4203 
z
M 2150 216 
L 4281 216 
Q 4719 1688 5006 3266 
L 5950 3041 
Q 5822 2647 5113 216 
L 6319 216 
L 6319 -572 
L 2150 -572 
L 2150 216 
z
M 3369 3184 
Q 3763 1953 4081 753 
Q 3944 709 3231 522 
Q 2950 1766 2594 2953 
L 3369 3184 
z
" transform="scale(0.015625)"/>
      <path id="MicrosoftYaHei-Bold-6a21" d="M 6250 534 
L 4825 534 
Q 5419 84 6325 -53 
Q 6131 -403 5913 -859 
Q 4769 -522 4169 334 
Q 3694 -503 2406 -897 
Q 2206 -509 1925 -159 
Q 3013 66 3419 534 
L 2088 534 
L 2088 1141 
L 3719 1141 
Q 3756 1284 3769 1459 
L 2425 1459 
L 2425 2134 
L 1944 1659 
Q 1800 1878 1638 2109 
L 1638 -841 
L 863 -841 
L 863 1803 
Q 619 1141 275 547 
Q 213 978 75 1691 
Q 525 2453 788 3328 
L 138 3328 
L 138 4066 
L 863 4066 
L 863 5291 
L 1638 5291 
L 1638 4066 
L 2219 4066 
L 2219 3328 
L 1638 3328 
L 1638 2972 
Q 2081 2559 2425 2209 
L 2425 3703 
L 6025 3703 
L 6025 1459 
L 4556 1459 
Q 4544 1291 4519 1141 
L 6250 1141 
L 6250 534 
z
M 5250 2009 
L 5250 2353 
L 3200 2353 
L 3200 2009 
L 5250 2009 
z
M 5250 3147 
L 3200 3147 
L 3200 2816 
L 5250 2816 
L 5250 3147 
z
M 5413 3853 
L 4675 3853 
L 4675 4203 
L 3719 4203 
L 3719 3853 
L 2981 3853 
L 2981 4203 
L 2175 4203 
L 2175 4822 
L 2981 4822 
L 2981 5291 
L 3719 5291 
L 3719 4822 
L 4675 4822 
L 4675 5291 
L 5413 5291 
L 5413 4822 
L 6275 4822 
L 6275 4203 
L 5413 4203 
L 5413 3853 
z
" transform="scale(0.015625)"/>
      <path id="MicrosoftYaHei-Bold-578b" d="M 5963 5216 
L 5963 2547 
Q 5963 2141 5752 1928 
Q 5541 1716 5095 1700 
Q 4650 1684 4269 1684 
Q 4231 2059 4150 2447 
Q 4469 2428 4813 2428 
Q 5150 2428 5150 2709 
L 5150 5216 
L 5963 5216 
z
M 150 3491 
L 891 3491 
Q 900 3616 900 4341 
L 325 4341 
L 325 5066 
L 3625 5066 
L 3625 4341 
L 3113 4341 
L 3113 3491 
L 3750 3491 
L 3750 2766 
L 3113 2766 
L 3113 2091 
L 3656 2091 
L 3656 1441 
L 5781 1441 
L 5781 678 
L 3656 678 
L 3656 103 
L 6294 103 
L 6294 -647 
L 138 -647 
L 138 103 
L 2763 103 
L 2763 678 
L 650 678 
L 650 1441 
L 2763 1441 
L 2763 1766 
L 2350 1766 
L 2350 2766 
L 1559 2766 
Q 1375 2016 888 1522 
Q 675 1697 275 2009 
Q 584 2334 741 2766 
L 150 2766 
L 150 3491 
z
M 1663 3491 
L 2350 3491 
L 2350 4341 
L 1669 4341 
Q 1669 3753 1663 3491 
z
M 3900 4866 
L 4650 4866 
L 4650 2753 
L 3900 2753 
L 3900 4866 
z
" transform="scale(0.015625)"/>
      <path id="MicrosoftYaHei-Bold-ff08" d="M 5197 -1088 
Q 4056 184 4056 1881 
Q 4056 3616 5203 4838 
L 6034 4838 
Q 4922 3503 4922 1888 
Q 4922 266 6028 -1088 
L 5197 -1088 
z
" transform="scale(0.015625)"/>
      <path id="MicrosoftYaHei-Bold-65cb" d="M 3419 5347 
L 4200 5147 
Q 4100 4900 3994 4672 
L 6269 4672 
L 6269 3941 
L 3609 3941 
Q 3447 3663 3269 3416 
L 6213 3416 
L 6213 2753 
L 5831 1972 
Q 5619 2078 5100 2228 
L 5350 2741 
L 4838 2741 
L 4838 1759 
L 6056 1759 
L 6056 1084 
L 4838 1084 
L 4838 63 
Q 5300 41 6325 53 
Q 6269 -166 6169 -709 
Q 5725 -725 5029 -709 
Q 4334 -694 3965 -486 
Q 3597 -278 3363 28 
Q 3197 -519 2931 -891 
Q 2681 -634 2338 -372 
Q 2675 128 2794 640 
Q 2913 1153 2919 2253 
L 3631 2253 
Q 3631 1478 3541 856 
Q 3766 531 4069 334 
L 4069 2741 
L 2856 2741 
L 2856 3188 
Q 2666 3347 2453 3497 
L 1328 3497 
L 1319 2828 
L 2531 2828 
L 2466 928 
Q 2431 34 2312 -183 
Q 2194 -400 2059 -528 
Q 1925 -656 1100 -672 
Q 1025 -266 947 41 
Q 763 -466 488 -853 
Q 356 -547 56 53 
Q 581 969 581 2394 
L 603 3497 
L 150 3497 
L 150 4316 
L 1122 4316 
Q 950 4772 788 5103 
L 1556 5347 
Q 1738 4972 1963 4434 
L 1606 4316 
L 2556 4316 
L 2556 3791 
Q 3075 4447 3419 5347 
z
M 981 141 
Q 1231 128 1419 128 
Q 1697 128 1733 495 
Q 1769 863 1788 2078 
L 1303 2078 
Q 1256 956 981 141 
z
" transform="scale(0.015625)"/>
      <path id="MicrosoftYaHei-Bold-8f6c" d="M 163 153 
L 94 978 
Q 697 1019 1325 1078 
L 1325 1659 
L 131 1659 
L 131 2416 
Q 356 3056 534 3791 
L 106 3791 
L 106 4528 
L 697 4528 
Q 772 4906 838 5309 
L 1656 5253 
Q 1578 4891 1491 4528 
L 2713 4528 
L 2713 3791 
L 1303 3791 
Q 1116 3094 894 2397 
L 1325 2397 
L 1325 3453 
L 2075 3453 
L 2075 2397 
L 2750 2397 
L 2750 1659 
L 2075 1659 
L 2075 1153 
L 2863 1241 
Q 2819 859 2806 459 
L 2075 381 
L 2075 -859 
L 1325 -859 
L 1325 294 
L 163 153 
z
M 2956 359 
L 3400 1016 
Q 3928 772 4509 478 
L 5219 1316 
L 3113 1316 
L 3113 1922 
L 3281 2572 
L 2713 2572 
L 2713 3272 
L 3453 3272 
L 3581 3828 
L 2988 3828 
L 2988 4528 
L 3731 4528 
L 3881 5297 
L 4775 5297 
L 4619 4528 
L 6075 4528 
L 6075 3828 
L 4466 3828 
Q 4403 3541 4338 3272 
L 6300 3272 
L 6300 2572 
L 4166 2572 
Q 4094 2284 4019 2016 
L 6188 2016 
L 6188 1359 
L 5216 116 
Q 5484 -22 5763 -172 
L 5281 -878 
Q 4119 -203 2956 359 
z
" transform="scale(0.015625)"/>
      <path id="MicrosoftYaHei-Bold-5168" d="M 369 184 
L 2731 184 
L 2731 934 
L 869 934 
L 869 1734 
L 2731 1734 
L 2731 2366 
L 1525 2366 
L 1525 2859 
Q 1113 2566 644 2284 
Q 463 2541 88 3016 
Q 2088 4091 2800 5316 
L 3894 5316 
L 3731 5078 
Q 4538 3922 6313 3091 
Q 5981 2678 5750 2353 
Q 5281 2603 4875 2878 
L 4875 2366 
L 3663 2366 
L 3663 1734 
L 5544 1734 
L 5544 934 
L 3663 934 
L 3663 184 
L 6031 184 
L 6031 -616 
L 369 -616 
L 369 184 
z
M 3200 4416 
Q 2688 3766 1925 3166 
L 4475 3166 
Q 3725 3741 3200 4416 
z
" transform="scale(0.015625)"/>
      <path id="MicrosoftYaHei-Bold-7b49" d="M 338 1328 
L 4069 1328 
L 4069 1666 
L 125 1666 
L 125 2328 
L 2750 2328 
L 2750 2703 
L 563 2703 
L 563 3366 
L 2750 3366 
L 2750 3822 
L 3516 3822 
L 3181 4047 
Q 3247 4131 3313 4222 
L 2144 4222 
Q 2403 3938 2531 3784 
L 1950 3378 
Q 1825 3559 1463 3997 
L 1769 4222 
L 1272 4222 
Q 981 3838 656 3503 
Q 425 3753 81 4053 
Q 675 4653 1063 5347 
L 2000 5347 
Q 1847 5072 1684 4816 
L 3363 4816 
L 3363 4291 
Q 3722 4797 3975 5347 
L 4931 5347 
Q 4803 5069 4666 4816 
L 6225 4816 
L 6225 4222 
L 5231 4222 
Q 5434 4013 5625 3803 
L 5031 3397 
Q 4731 3778 4488 4047 
L 4734 4222 
L 4309 4222 
Q 4084 3881 3838 3591 
Q 3756 3653 3606 3759 
L 3606 3366 
L 5850 3366 
L 5850 2703 
L 3606 2703 
L 3606 2328 
L 6288 2328 
L 6288 1666 
L 4938 1666 
L 4938 1328 
L 6075 1328 
L 6075 653 
L 4938 653 
L 4938 16 
Q 4938 -375 4758 -576 
Q 4578 -778 4236 -790 
Q 3894 -803 3019 -809 
Q 2956 -434 2850 59 
Q 3566 28 3728 28 
Q 4069 28 4069 416 
L 4069 653 
L 2225 653 
Q 2463 341 2675 47 
L 1931 -441 
Q 1609 94 1231 653 
L 338 653 
L 338 1328 
z
" transform="scale(0.015625)"/>
      <path id="MicrosoftYaHei-Bold-ff09" d="M 1191 -1088 
L 359 -1088 
Q 1472 238 1472 1863 
Q 1472 3478 366 4838 
L 1197 4838 
Q 2338 3572 2338 1863 
Q 2338 125 1191 -1088 
z
" transform="scale(0.015625)"/>
     </defs>
     <use xlink:href="#MicrosoftYaHei-Bold-624b"/>
     <use xlink:href="#MicrosoftYaHei-Bold-62c9" transform="translate(100 0)"/>
     <use xlink:href="#MicrosoftYaHei-Bold-624b" transform="translate(200 0)"/>
     <use xlink:href="#MicrosoftYaHei-Bold-6a21" transform="translate(300 0)"/>
     <use xlink:href="#MicrosoftYaHei-Bold-578b" transform="translate(400 0)"/>
     <use xlink:href="#MicrosoftYaHei-Bold-ff08" transform="translate(500 0)"/>
     <use xlink:href="#MicrosoftYaHei-Bold-65cb" transform="translate(600 0)"/>
     <use xlink:href="#MicrosoftYaHei-Bold-8f6c" transform="translate(700 0)"/>
     <use xlink:href="#MicrosoftYaHei-Bold-5168" transform="translate(800 0)"/>
     <use xlink:href="#MicrosoftYaHei-Bold-7b49" transform="translate(900 0)"/>
     <use xlink:href="#MicrosoftYaHei-Bold-ff09" transform="translate(1000 0)"/>
    </g>
   </g>
  </g>
  <g id="axes_2">
   <g id="line2d_1">
    <path d="M 296.672727 42.630114 
L 296.672727 171.248295 
" clip-path="url(#pa6430a5e2d)" style="fill: none; stroke: #333333; stroke-width: 2; stroke-linecap: square"/>
   </g>
   <g id="line2d_2">
    <path d="M 296.672727 171.248295 
L 425.290909 171.248295 
" clip-path="url(#pa6430a5e2d)" style="fill: none; stroke: #333333; stroke-width: 2; stroke-linecap: square"/>
   </g>
   <g id="line2d_3">
    <path d="M 425.290909 171.248295 
L 425.290909 42.630114 
" clip-path="url(#pa6430a5e2d)" style="fill: none; stroke: #333333; stroke-width: 2; stroke-linecap: square"/>
   </g>
   <g id="line2d_4">
    <path d="M 296.672727 42.630114 
L 425.290909 171.248295 
" clip-path="url(#pa6430a5e2d)" style="fill: none; stroke-dasharray: 7.4,3.2; stroke-dashoffset: 0; stroke: #e74c3c; stroke-width: 2"/>
   </g>
   <g id="line2d_5">
    <path d="M 425.290909 42.630114 
L 360.981818 171.248295 
" clip-path="url(#pa6430a5e2d)" style="fill: none; stroke-dasharray: 7.4,3.2; stroke-dashoffset: 0; stroke: #2980b9; stroke-width: 2"/>
   </g>
   <g id="line2d_6">
    <path d="M 305.247273 171.248295 
L 305.247273 162.67375 
" clip-path="url(#pa6430a5e2d)" style="fill: none; stroke: #333333; stroke-width: 1.2; stroke-linecap: square"/>
   </g>
   <g id="line2d_7">
    <path d="M 296.672727 162.67375 
L 305.247273 162.67375 
" clip-path="url(#pa6430a5e2d)" style="fill: none; stroke: #333333; stroke-width: 1.2; stroke-linecap: square"/>
   </g>
   <g id="line2d_8">
    <path d="M 416.716364 171.248295 
L 416.716364 162.67375 
" clip-path="url(#pa6430a5e2d)" style="fill: none; stroke: #333333; stroke-width: 1.2; stroke-linecap: square"/>
   </g>
   <g id="line2d_9">
    <path d="M 416.716364 162.67375 
L 425.290909 162.67375 
" clip-path="url(#pa6430a5e2d)" style="fill: none; stroke: #333333; stroke-width: 1.2; stroke-linecap: square"/>
   </g>
   <g id="text_8">
    <!-- A -->
    <g transform="translate(288.098182 34.055568) scale(0.1 -0.1)">
     <use xlink:href="#MicrosoftYaHei-Bold-41"/>
    </g>
   </g>
   <g id="text_9">
    <!-- B -->
    <g transform="translate(288.098182 179.822841) scale(0.1 -0.1)">
     <use xlink:href="#MicrosoftYaHei-Bold-42"/>
    </g>
   </g>
   <g id="text_10">
    <!-- C -->
    <g transform="translate(433.865455 179.822841) scale(0.1 -0.1)">
     <use xlink:href="#MicrosoftYaHei-Bold-43"/>
    </g>
   </g>
   <g id="text_11">
    <!-- D -->
    <g transform="translate(433.865455 34.055568) scale(0.1 -0.1)">
     <use xlink:href="#MicrosoftYaHei-Bold-44"/>
    </g>
   </g>
   <g id="text_12">
    <!-- E -->
    <g transform="translate(352.407273 179.822841) scale(0.1 -0.1)">
     <use xlink:href="#MicrosoftYaHei-Bold-45"/>
    </g>
   </g>
   <g id="text_13">
    <!-- 三垂直模型（K字型全等） -->
    <g style="fill: #3498db" transform="translate(313.235938 15.19375) scale(0.1 -0.1)">
     <defs>
      <path id="MicrosoftYaHei-Bold-4e09" d="M 575 4803 
L 5813 4803 
L 5813 3878 
L 575 3878 
L 575 4803 
z
M 856 2691 
L 5531 2691 
L 5531 1791 
L 856 1791 
L 856 2691 
z
M 188 466 
L 6225 466 
L 6225 -459 
L 188 -459 
L 188 466 
z
" transform="scale(0.015625)"/>
      <path id="MicrosoftYaHei-Bold-5782" d="M 500 72 
L 2775 72 
L 2775 534 
L 300 534 
L 300 1228 
L 1188 1228 
L 1188 1841 
L 106 1841 
L 106 2578 
L 1188 2578 
L 1188 3184 
L 313 3184 
L 313 3878 
L 2775 3878 
L 2775 4356 
L 669 4303 
L 538 4997 
Q 3200 5028 5731 5147 
L 5863 4428 
L 3638 4375 
L 3638 3878 
L 6119 3878 
L 6119 3184 
L 5231 3184 
L 5231 2578 
L 6325 2578 
L 6325 1841 
L 5231 1841 
L 5231 1228 
L 6131 1228 
L 6131 534 
L 3638 534 
L 3638 72 
L 5919 72 
L 5919 -622 
L 500 -622 
L 500 72 
z
M 3638 2578 
L 4413 2578 
L 4413 3184 
L 3638 3184 
L 3638 2578 
z
M 2006 2578 
L 2775 2578 
L 2775 3184 
L 2006 3184 
L 2006 2578 
z
M 3638 1228 
L 4413 1228 
L 4413 1841 
L 3638 1841 
L 3638 1228 
z
M 2006 1228 
L 2775 1228 
L 2775 1841 
L 2006 1841 
L 2006 1228 
z
" transform="scale(0.015625)"/>
      <path id="MicrosoftYaHei-Bold-76f4" d="M 113 78 
L 769 78 
L 769 3828 
L 2731 3828 
L 2731 4241 
L 244 4241 
L 244 4922 
L 2731 4922 
L 2731 5341 
L 3619 5341 
L 3619 4922 
L 6175 4922 
L 6175 4241 
L 3619 4241 
L 3619 3828 
L 5650 3828 
L 5650 78 
L 6294 78 
L 6294 -603 
L 113 -603 
L 113 78 
z
M 4813 3166 
L 1613 3166 
L 1613 2797 
L 4813 2797 
L 4813 3166 
z
M 1613 78 
L 4813 78 
L 4813 447 
L 1613 447 
L 1613 78 
z
M 1613 984 
L 4813 984 
L 4813 1353 
L 1613 1353 
L 1613 984 
z
M 1613 1891 
L 4813 1891 
L 4813 2259 
L 1613 2259 
L 1613 1891 
z
" transform="scale(0.015625)"/>
      <path id="MicrosoftYaHei-Bold-4b" d="M 4506 0 
L 3200 0 
L 1734 2116 
Q 1678 2197 1606 2369 
L 1591 2369 
L 1591 0 
L 559 0 
L 559 4841 
L 1591 4841 
L 1591 2553 
L 1606 2553 
Q 1675 2703 1744 2813 
L 3131 4841 
L 4363 4841 
L 2631 2531 
L 4506 0 
z
" transform="scale(0.015625)"/>
      <path id="MicrosoftYaHei-Bold-5b57" d="M 2556 5147 
L 3613 5347 
Q 3716 5025 3822 4666 
L 6131 4666 
L 6131 3053 
L 5256 3053 
L 5256 3866 
L 1181 3866 
L 1181 3041 
L 306 3041 
L 306 4666 
L 2725 4666 
Q 2641 4916 2556 5147 
z
M 169 1766 
L 2900 1766 
L 2900 2028 
L 3750 2566 
L 1450 2566 
L 1450 3366 
L 4975 3366 
L 4975 2572 
L 3813 1803 
L 3813 1766 
L 6244 1766 
L 6244 941 
L 3813 941 
L 3813 91 
Q 3813 -803 2844 -803 
L 1806 -803 
Q 1731 -372 1588 78 
Q 1978 47 2341 47 
Q 2663 47 2781 133 
Q 2900 219 2900 434 
L 2900 941 
L 169 941 
L 169 1766 
z
" transform="scale(0.015625)"/>
     </defs>
     <use xlink:href="#MicrosoftYaHei-Bold-4e09"/>
     <use xlink:href="#MicrosoftYaHei-Bold-5782" transform="translate(100 0)"/>
     <use xlink:href="#MicrosoftYaHei-Bold-76f4" transform="translate(200 0)"/>
     <use xlink:href="#MicrosoftYaHei-Bold-6a21" transform="translate(300 0)"/>
     <use xlink:href="#MicrosoftYaHei-Bold-578b" transform="translate(400 0)"/>
     <use xlink:href="#MicrosoftYaHei-Bold-ff08" transform="translate(500 0)"/>
     <use xlink:href="#MicrosoftYaHei-Bold-4b" transform="translate(600 0)"/>
     <use xlink:href="#MicrosoftYaHei-Bold-5b57" transform="translate(669.287109 0)"/>
     <use xlink:href="#MicrosoftYaHei-Bold-578b" transform="translate(769.287109 0)"/>
     <use xlink:href="#MicrosoftYaHei-Bold-5168" transform="translate(869.287109 0)"/>
     <use xlink:href="#MicrosoftYaHei-Bold-7b49" transform="translate(969.287109 0)"/>
     <use xlink:href="#MicrosoftYaHei-Bold-ff09" transform="translate(1069.287109 0)"/>
    </g>
   </g>
  </g>
 </g>
 <defs>
  <clipPath id="pc3a7b89007">
   <rect x="7.2" y="21.19375" width="235.8" height="192.927273"/>
  </clipPath>
  <clipPath id="pa6430a5e2d">
   <rect x="253.8" y="21.19375" width="235.8" height="192.927273"/>
  </clipPath>
 </defs>
</svg>
