<?xml version="1.0" encoding="utf-8" standalone="no"?>
<!DOCTYPE svg PUBLIC "-//W3C//DTD SVG 1.1//EN"
  "http://www.w3.org/Graphics/SVG/1.1/DTD/svg11.dtd">
<svg xmlns:xlink="http://www.w3.org/1999/xlink" width="310.590625pt" height="270.500781pt" viewBox="0 0 310.590625 270.500781" xmlns="http://www.w3.org/2000/svg" version="1.1">
 <metadata>
  <rdf:RDF xmlns:dc="http://purl.org/dc/elements/1.1/" xmlns:cc="http://creativecommons.org/ns#" xmlns:rdf="http://www.w3.org/1999/02/22-rdf-syntax-ns#">
   <cc:Work>
    <dc:type rdf:resource="http://purl.org/dc/dcmitype/StillImage"/>
    <dc:date>2026-05-22T22:58:42.533800</dc:date>
    <dc:format>image/svg+xml</dc:format>
    <dc:creator>
     <cc:Agent>
      <dc:title>Matplotlib v3.10.9, https://matplotlib.org/</dc:title>
     </cc:Agent>
    </dc:creator>
   </cc:Work>
  </rdf:RDF>
 </metadata>
 <defs>
  <style type="text/css">*{stroke-linejoin: round; stroke-linecap: butt}</style>
 </defs>
 <g id="figure_1">
  <g id="patch_1">
   <path d="M 0 270.500781 
L 310.590625 270.500781 
L 310.590625 0 
L 0 0 
z
" style="fill: #ffffff"/>
  </g>
  <g id="axes_1">
   <g id="patch_2">
    <path d="M 24.390625 245.821094 
L 303.390625 245.821094 
L 303.390625 24.061094 
L 24.390625 24.061094 
z
" style="fill: #ffffff"/>
   </g>
   <g id="matplotlib.axis_1">
    <g id="xtick_1">
     <g id="line2d_1">
      <path d="M 52.290625 245.821094 
L 52.290625 24.061094 
" clip-path="url(#p498b8d9053)" style="fill: none; stroke: #b0b0b0; stroke-opacity: 0.3; stroke-width: 0.8; stroke-linecap: square"/>
     </g>
     <g id="line2d_2">
      <defs>
       <path id="ma60fd6fa8c" d="M 0 0 
L 0 3.5 
" style="stroke: #000000; stroke-width: 0.8"/>
      </defs>
      <g>
       <use xlink:href="#ma60fd6fa8c" x="52.290625" y="245.821094" style="stroke: #000000; stroke-width: 0.8"/>
      </g>
     </g>
     <g id="text_1">
      <!-- -4 -->
      <g transform="translate(47.195312 260.814844) scale(0.1 -0.1)">
       <defs>
        <path id="MicrosoftYaHei-2d" d="M 2328 1681 
L 488 1681 
L 488 2153 
L 2328 2153 
L 2328 1681 
z
" transform="scale(0.015625)"/>
        <path id="MicrosoftYaHei-34" d="M 2906 4841 
L 2906 1644 
L 3631 1644 
L 3631 1138 
L 2906 1138 
L 2906 0 
L 2313 0 
L 2313 1138 
L 53 1138 
L 53 1616 
Q 656 2294 1265 3178 
Q 1875 4063 2272 4841 
L 2906 4841 
z
M 741 1644 
L 2313 1644 
L 2313 3950 
Q 1988 3366 1616 2817 
Q 1244 2269 741 1644 
z
" transform="scale(0.015625)"/>
       </defs>
       <use xlink:href="#MicrosoftYaHei-2d"/>
       <use xlink:href="#MicrosoftYaHei-34" transform="translate(43.261719 0)"/>
      </g>
     </g>
    </g>
    <g id="xtick_2">
     <g id="line2d_3">
      <path d="M 108.090625 245.821094 
L 108.090625 24.061094 
" clip-path="url(#p498b8d9053)" style="fill: none; stroke: #b0b0b0; stroke-opacity: 0.3; stroke-width: 0.8; stroke-linecap: square"/>
     </g>
     <g id="line2d_4">
      <g>
       <use xlink:href="#ma60fd6fa8c" x="108.090625" y="245.821094" style="stroke: #000000; stroke-width: 0.8"/>
      </g>
     </g>
     <g id="text_2">
      <!-- -2 -->
      <g transform="translate(102.995312 260.814844) scale(0.1 -0.1)">
       <defs>
        <path id="MicrosoftYaHei-32" d="M 2666 3572 
Q 2666 3963 2419 4186 
Q 2172 4409 1747 4409 
Q 1447 4409 1140 4256 
Q 834 4103 569 3819 
L 569 4413 
Q 806 4659 1107 4790 
Q 1409 4922 1816 4922 
Q 2472 4922 2872 4570 
Q 3272 4219 3272 3619 
Q 3272 3084 3026 2693 
Q 2781 2303 2188 1894 
Q 1581 1475 1376 1294 
Q 1172 1113 1090 947 
Q 1009 781 1009 544 
L 3416 544 
L 3416 0 
L 372 0 
L 372 241 
Q 372 659 486 951 
Q 600 1244 862 1520 
Q 1125 1797 1681 2184 
Q 2250 2584 2458 2886 
Q 2666 3188 2666 3572 
z
" transform="scale(0.015625)"/>
       </defs>
       <use xlink:href="#MicrosoftYaHei-2d"/>
       <use xlink:href="#MicrosoftYaHei-32" transform="translate(43.261719 0)"/>
      </g>
     </g>
    </g>
    <g id="xtick_3">
     <g id="line2d_5">
      <path d="M 163.890625 245.821094 
L 163.890625 24.061094 
" clip-path="url(#p498b8d9053)" style="fill: none; stroke: #b0b0b0; stroke-opacity: 0.3; stroke-width: 0.8; stroke-linecap: square"/>
     </g>
     <g id="line2d_6">
      <g>
       <use xlink:href="#ma60fd6fa8c" x="163.890625" y="245.821094" style="stroke: #000000; stroke-width: 0.8"/>
      </g>
     </g>
     <g id="text_3">
      <!-- 0 -->
      <g transform="translate(160.958594 260.814844) scale(0.1 -0.1)">
       <defs>
        <path id="MicrosoftYaHei-30" d="M 284 2325 
Q 284 3606 709 4264 
Q 1134 4922 1941 4922 
Q 3478 4922 3478 2441 
Q 3478 1216 3045 567 
Q 2613 -81 1831 -81 
Q 1094 -81 689 534 
Q 284 1150 284 2325 
z
M 909 2353 
Q 909 425 1888 425 
Q 2850 425 2850 2384 
Q 2850 4413 1906 4413 
Q 909 4413 909 2353 
z
" transform="scale(0.015625)"/>
       </defs>
       <use xlink:href="#MicrosoftYaHei-30"/>
      </g>
     </g>
    </g>
    <g id="xtick_4">
     <g id="line2d_7">
      <path d="M 219.690625 245.821094 
L 219.690625 24.061094 
" clip-path="url(#p498b8d9053)" style="fill: none; stroke: #b0b0b0; stroke-opacity: 0.3; stroke-width: 0.8; stroke-linecap: square"/>
     </g>
     <g id="line2d_8">
      <g>
       <use xlink:href="#ma60fd6fa8c" x="219.690625" y="245.821094" style="stroke: #000000; stroke-width: 0.8"/>
      </g>
     </g>
     <g id="text_4">
      <!-- 2 -->
      <g transform="translate(216.758594 260.814844) scale(0.1 -0.1)">
       <use xlink:href="#MicrosoftYaHei-32"/>
      </g>
     </g>
    </g>
    <g id="xtick_5">
     <g id="line2d_9">
      <path d="M 275.490625 245.821094 
L 275.490625 24.061094 
" clip-path="url(#p498b8d9053)" style="fill: none; stroke: #b0b0b0; stroke-opacity: 0.3; stroke-width: 0.8; stroke-linecap: square"/>
     </g>
     <g id="line2d_10">
      <g>
       <use xlink:href="#ma60fd6fa8c" x="275.490625" y="245.821094" style="stroke: #000000; stroke-width: 0.8"/>
      </g>
     </g>
     <g id="text_5">
      <!-- 4 -->
      <g transform="translate(272.558594 260.814844) scale(0.1 -0.1)">
       <use xlink:href="#MicrosoftYaHei-34"/>
      </g>
     </g>
    </g>
   </g>
   <g id="matplotlib.axis_2">
    <g id="ytick_1">
     <g id="line2d_11">
      <path d="M 24.390625 223.645094 
L 303.390625 223.645094 
" clip-path="url(#p498b8d9053)" style="fill: none; stroke: #b0b0b0; stroke-opacity: 0.3; stroke-width: 0.8; stroke-linecap: square"/>
     </g>
     <g id="line2d_12">
      <defs>
       <path id="m8913e4c44c" d="M 0 0 
L -3.5 0 
" style="stroke: #000000; stroke-width: 0.8"/>
      </defs>
      <g>
       <use xlink:href="#m8913e4c44c" x="24.390625" y="223.645094" style="stroke: #000000; stroke-width: 0.8"/>
      </g>
     </g>
     <g id="text_6">
      <!-- -4 -->
      <g transform="translate(7.2 227.641969) scale(0.1 -0.1)">
       <use xlink:href="#MicrosoftYaHei-2d"/>
       <use xlink:href="#MicrosoftYaHei-34" transform="translate(43.261719 0)"/>
      </g>
     </g>
    </g>
    <g id="ytick_2">
     <g id="line2d_13">
      <path d="M 24.390625 179.293094 
L 303.390625 179.293094 
" clip-path="url(#p498b8d9053)" style="fill: none; stroke: #b0b0b0; stroke-opacity: 0.3; stroke-width: 0.8; stroke-linecap: square"/>
     </g>
     <g id="line2d_14">
      <g>
       <use xlink:href="#m8913e4c44c" x="24.390625" y="179.293094" style="stroke: #000000; stroke-width: 0.8"/>
      </g>
     </g>
     <g id="text_7">
      <!-- -2 -->
      <g transform="translate(7.2 183.289969) scale(0.1 -0.1)">
       <use xlink:href="#MicrosoftYaHei-2d"/>
       <use xlink:href="#MicrosoftYaHei-32" transform="translate(43.261719 0)"/>
      </g>
     </g>
    </g>
    <g id="ytick_3">
     <g id="line2d_15">
      <path d="M 24.390625 134.941094 
L 303.390625 134.941094 
" clip-path="url(#p498b8d9053)" style="fill: none; stroke: #b0b0b0; stroke-opacity: 0.3; stroke-width: 0.8; stroke-linecap: square"/>
     </g>
     <g id="line2d_16">
      <g>
       <use xlink:href="#m8913e4c44c" x="24.390625" y="134.941094" style="stroke: #000000; stroke-width: 0.8"/>
      </g>
     </g>
     <g id="text_8">
      <!-- 0 -->
      <g transform="translate(11.526563 138.937969) scale(0.1 -0.1)">
       <use xlink:href="#MicrosoftYaHei-30"/>
      </g>
     </g>
    </g>
    <g id="ytick_4">
     <g id="line2d_17">
      <path d="M 24.390625 90.589094 
L 303.390625 90.589094 
" clip-path="url(#p498b8d9053)" style="fill: none; stroke: #b0b0b0; stroke-opacity: 0.3; stroke-width: 0.8; stroke-linecap: square"/>
     </g>
     <g id="line2d_18">
      <g>
       <use xlink:href="#m8913e4c44c" x="24.390625" y="90.589094" style="stroke: #000000; stroke-width: 0.8"/>
      </g>
     </g>
     <g id="text_9">
      <!-- 2 -->
      <g transform="translate(11.526563 94.585969) scale(0.1 -0.1)">
       <use xlink:href="#MicrosoftYaHei-32"/>
      </g>
     </g>
    </g>
    <g id="ytick_5">
     <g id="line2d_19">
      <path d="M 24.390625 46.237094 
L 303.390625 46.237094 
" clip-path="url(#p498b8d9053)" style="fill: none; stroke: #b0b0b0; stroke-opacity: 0.3; stroke-width: 0.8; stroke-linecap: square"/>
     </g>
     <g id="line2d_20">
      <g>
       <use xlink:href="#m8913e4c44c" x="24.390625" y="46.237094" style="stroke: #000000; stroke-width: 0.8"/>
      </g>
     </g>
     <g id="text_10">
      <!-- 4 -->
      <g transform="translate(11.526563 50.233969) scale(0.1 -0.1)">
       <use xlink:href="#MicrosoftYaHei-34"/>
      </g>
     </g>
    </g>
   </g>
   <g id="line2d_21">
    <path d="M 24.390625 134.941094 
L 303.390625 134.941094 
" clip-path="url(#p498b8d9053)" style="fill: none; stroke: #333333; stroke-width: 0.8; stroke-linecap: square"/>
   </g>
   <g id="line2d_22">
    <path d="M 163.890625 245.821094 
L 163.890625 24.061094 
" clip-path="url(#p498b8d9053)" style="fill: none; stroke: #333333; stroke-width: 0.8; stroke-linecap: square"/>
   </g>
   <g id="line2d_23">
    <path d="M 177.545149 -1 
L 178.850072 10.863568 
L 180.167962 20.909466 
L 181.485851 29.45048 
L 182.803741 36.801198 
L 184.12163 43.194233 
L 185.439519 48.805297 
L 187.416354 56.043168 
L 189.393188 62.15895 
L 191.370022 67.394808 
L 193.346856 71.9279 
L 195.32369 75.890817 
L 197.300524 79.38477 
L 199.277359 82.488352 
L 201.254193 85.263525 
L 203.889972 88.537056 
L 206.525751 91.405836 
L 209.16153 93.940561 
L 211.797308 96.19637 
L 215.092032 98.689527 
L 218.386756 100.881222 
L 221.681479 102.823015 
L 225.635148 104.879622 
L 229.588816 106.688699 
L 234.201429 108.542147 
L 238.814042 110.167381 
L 244.0856 111.795863 
L 250.016102 113.389617 
L 256.60555 114.921327 
L 263.853942 116.37297 
L 271.761278 117.734086 
L 280.986504 119.089714 
L 291.52962 120.399055 
L 303.390625 121.635494 
L 303.390625 121.635494 
" clip-path="url(#p498b8d9053)" style="fill: none; stroke: #e74c3c; stroke-width: 2.5; stroke-linecap: square"/>
   </g>
   <g id="line2d_24">
    <path d="M 24.390625 148.246694 
L 36.25163 149.483132 
L 46.794746 150.792473 
L 56.019972 152.148102 
L 64.586253 153.632428 
L 71.834645 155.104164 
L 78.424092 156.658732 
L 84.354595 158.278079 
L 89.626153 159.934622 
L 94.238766 161.589789 
L 98.851379 163.479727 
L 102.805047 165.326845 
L 106.758715 167.429614 
L 110.053439 169.417844 
L 113.348163 171.665288 
L 116.642886 174.226174 
L 119.278665 176.547228 
L 121.914444 179.159771 
L 124.550223 182.122391 
L 127.186002 185.510506 
L 129.162836 188.389103 
L 131.13967 191.615203 
L 133.116504 195.255773 
L 135.093339 199.396167 
L 137.070173 204.146907 
L 139.047007 209.65369 
L 141.023841 216.112596 
L 142.341731 221.076891 
L 143.65962 226.687954 
L 144.977509 233.08099 
L 146.295399 240.431707 
L 147.613288 248.972722 
L 148.931178 259.01862 
L 150.296319 271.500781 
L 150.296319 271.500781 
" clip-path="url(#p498b8d9053)" style="fill: none; stroke: #e74c3c; stroke-width: 2.5; stroke-linecap: square"/>
   </g>
   <g id="line2d_25">
    <path d="M 172.95426 271.500781 
L 174.237459 254.53524 
L 175.555349 241.023401 
L 176.873238 230.254787 
L 178.191128 221.470976 
L 179.509017 214.169532 
L 180.826906 208.004405 
L 182.144796 202.729481 
L 183.462685 198.164933 
L 184.780575 194.176315 
L 186.757409 189.055429 
L 188.734243 184.749491 
L 190.711077 181.078302 
L 192.687911 177.911142 
L 194.664746 175.15088 
L 196.64158 172.723833 
L 199.277359 169.909588 
L 201.913138 167.485519 
L 204.548916 165.375742 
L 207.184695 163.522855 
L 210.479419 161.501575 
L 213.774143 159.747299 
L 217.727811 157.925594 
L 221.681479 156.353146 
L 226.294092 154.770453 
L 231.56565 153.225842 
L 237.496153 151.752614 
L 244.0856 150.371248 
L 251.333992 149.092205 
L 259.241329 147.918668 
L 268.466555 146.773843 
L 279.00967 145.690147 
L 291.52962 144.635786 
L 303.390625 143.811494 
L 303.390625 143.811494 
" clip-path="url(#p498b8d9053)" style="fill: none; stroke: #2980b9; stroke-width: 2.5; stroke-linecap: square"/>
   </g>
   <g id="line2d_26">
    <path d="M 24.390625 126.070694 
L 38.887409 125.041982 
L 51.407359 123.940161 
L 61.950474 122.802395 
L 71.1757 121.594582 
L 79.083037 120.350173 
L 86.331429 118.98656 
L 92.261932 117.665603 
L 97.533489 116.2932 
L 102.805047 114.683926 
L 107.41766 113.029356 
L 111.371329 111.379834 
L 115.324997 109.46174 
L 118.61972 107.607405 
L 121.914444 105.461976 
L 124.550223 103.486896 
L 127.186002 101.228153 
L 129.821781 98.619909 
L 131.798615 96.382562 
L 133.775449 93.851485 
L 135.752283 90.964771 
L 137.729117 87.641801 
L 139.705952 83.775598 
L 141.682786 79.221094 
L 143.000675 75.705872 
L 144.318565 71.717254 
L 145.636454 67.152707 
L 146.954344 61.877782 
L 148.272233 55.712656 
L 149.590122 48.411211 
L 150.908012 39.6274 
L 152.225901 28.858786 
L 153.543791 15.346947 
L 154.783263 -1 
L 154.783263 -1 
" clip-path="url(#p498b8d9053)" style="fill: none; stroke: #2980b9; stroke-width: 2.5; stroke-linecap: square"/>
   </g>
   <g id="patch_3">
    <path d="M 24.390625 245.821094 
L 24.390625 24.061094 
" style="fill: none; stroke: #000000; stroke-width: 0.8; stroke-linejoin: miter; stroke-linecap: square"/>
   </g>
   <g id="patch_4">
    <path d="M 303.390625 245.821094 
L 303.390625 24.061094 
" style="fill: none; stroke: #000000; stroke-width: 0.8; stroke-linejoin: miter; stroke-linecap: square"/>
   </g>
   <g id="patch_5">
    <path d="M 24.390625 245.821094 
L 303.390625 245.821094 
" style="fill: none; stroke: #000000; stroke-width: 0.8; stroke-linejoin: miter; stroke-linecap: square"/>
   </g>
   <g id="patch_6">
    <path d="M 24.390625 24.061094 
L 303.390625 24.061094 
" style="fill: none; stroke: #000000; stroke-width: 0.8; stroke-linejoin: miter; stroke-linecap: square"/>
   </g>
   <g id="text_11">
    <!-- 反比例函数 y=k/x -->
    <g style="fill: #2ecc71" transform="translate(110.023906 18.061094) scale(0.13 -0.13)">
     <defs>
      <path id="MicrosoftYaHei-Bold-53cd" d="M 5938 3409 
L 5938 2634 
Q 5431 1544 4578 734 
Q 5350 238 6306 -28 
Q 6219 -147 5750 -872 
Q 4688 -509 3841 134 
Q 2975 -469 1850 -866 
Q 1650 -516 1344 -53 
Q 2378 281 3138 756 
Q 2538 1372 2075 2172 
L 2756 2597 
Q 3228 1853 3856 1288 
Q 4519 1872 4869 2616 
L 1731 2616 
L 1731 2422 
Q 1731 178 813 -853 
Q 575 -591 81 -222 
Q 844 847 844 2484 
L 844 4903 
Q 3588 4972 5738 5259 
L 6031 4447 
Q 4375 4234 1731 4109 
L 1731 3409 
L 5938 3409 
z
" transform="scale(0.015625)"/>
      <path id="MicrosoftYaHei-Bold-6bd4" d="M 5481 4441 
L 6294 3803 
Q 5234 2791 4119 1894 
L 4119 547 
Q 4119 153 4438 153 
L 4875 153 
Q 5119 153 5197 325 
Q 5275 497 5363 1597 
Q 5856 1409 6294 1278 
Q 6231 688 6131 248 
Q 6031 -191 5900 -358 
Q 5769 -525 5511 -617 
Q 5253 -709 4881 -709 
L 4094 -709 
Q 3194 -709 3194 247 
L 3194 5316 
L 4119 5316 
L 4119 3009 
Q 4797 3656 5481 4441 
z
M 1419 5241 
L 1419 3453 
L 2850 3453 
L 2850 2591 
L 1419 2591 
L 1419 372 
L 2869 866 
Q 2856 372 2888 -78 
Q 1500 -503 725 -922 
L 275 -184 
Q 494 -16 494 366 
L 494 5241 
L 1419 5241 
z
" transform="scale(0.015625)"/>
      <path id="MicrosoftYaHei-Bold-4f8b" d="M 1025 5303 
L 1756 5159 
Q 1619 4544 1431 3950 
L 1431 -803 
L 700 -803 
L 700 2103 
Q 513 1713 300 1334 
Q 250 1722 100 2497 
Q 731 3853 1025 5303 
z
M 5275 5234 
L 6056 5234 
L 6056 184 
Q 6056 -244 5868 -472 
Q 5681 -700 5342 -731 
Q 5003 -763 4381 -747 
Q 4338 -391 4225 116 
Q 4706 84 4963 84 
Q 5275 84 5275 484 
L 5275 5234 
z
M 1788 5022 
L 3975 5022 
L 3975 4259 
L 2922 4259 
Q 2878 3944 2813 3647 
L 3938 3647 
Q 3938 428 2131 -822 
Q 1888 -534 1519 -197 
Q 2294 338 2703 1131 
Q 2425 1422 2106 1688 
Q 1991 1475 1856 1284 
Q 1700 1628 1463 2059 
Q 2006 3003 2156 4259 
L 1788 4259 
L 1788 5022 
z
M 3003 1909 
Q 3125 2366 3156 2891 
L 2622 2891 
Q 2534 2613 2428 2353 
Q 2722 2134 3003 1909 
z
M 4194 4766 
L 4894 4766 
L 4894 572 
L 4194 572 
L 4194 4766 
z
" transform="scale(0.015625)"/>
      <path id="MicrosoftYaHei-Bold-51fd" d="M 3900 2378 
Q 4325 2097 5138 1616 
L 5138 3109 
Q 4750 2722 4356 2366 
L 3831 2828 
Q 4419 3409 4719 3722 
L 5138 3328 
L 5138 3728 
L 5975 3728 
L 5975 -841 
L 5138 -841 
L 5138 -622 
L 438 -622 
L 438 3728 
L 1275 3728 
L 1275 1691 
Q 1975 2053 2625 2478 
L 2825 2209 
L 2825 3747 
Q 3550 4084 4038 4341 
L 788 4341 
L 788 5103 
L 5563 5103 
L 5563 4353 
Q 4575 3803 3713 3378 
L 3713 2172 
L 3900 2378 
z
M 3125 403 
Q 2806 391 2156 384 
Q 2113 722 2013 1116 
Q 2300 1091 2581 1091 
Q 2825 1091 2825 1334 
L 2825 1766 
Q 2300 1416 1563 934 
Q 1506 1072 1275 1447 
L 1275 153 
L 5138 153 
L 5138 1341 
L 4750 866 
Q 4344 1184 3713 1628 
L 3713 1066 
Q 3713 441 3125 403 
z
M 1844 3766 
Q 2294 3347 2706 2934 
L 2081 2403 
Q 1638 2916 1281 3284 
L 1844 3766 
z
" transform="scale(0.015625)"/>
      <path id="MicrosoftYaHei-Bold-6570" d="M 238 4091 
L 725 4091 
Q 559 4425 281 4803 
L 844 5153 
Q 1038 4922 1369 4428 
L 806 4091 
L 1506 4091 
L 1506 5316 
L 2300 5316 
L 2300 4091 
L 2956 4091 
L 2438 4428 
Q 2750 4809 2963 5172 
L 3550 4822 
Q 3341 4466 3031 4091 
L 3394 4091 
L 3394 3453 
L 2300 3453 
L 2300 3016 
L 2513 3303 
Q 2903 3094 3253 2891 
Q 3766 3841 4138 5347 
L 4994 5266 
Q 4869 4781 4728 4341 
L 6294 4341 
L 6294 3578 
L 6041 3578 
Q 5906 1922 5338 856 
Q 5738 391 6319 53 
Q 6094 -203 5775 -778 
Q 5228 -413 4828 109 
Q 4313 -497 3631 -872 
Q 3378 -513 3072 -197 
L 2850 -566 
Q 2475 -350 2031 -128 
Q 1347 -584 394 -778 
Q 281 -434 63 -9 
Q 716 59 1213 253 
Q 781 444 300 641 
Q 513 950 681 1259 
L 169 1259 
L 169 1897 
L 991 1897 
Q 1094 2144 1169 2391 
L 1506 2359 
L 1506 2959 
Q 1044 2472 344 2053 
Q 213 2472 50 2803 
Q 672 3044 1172 3453 
L 238 3453 
L 238 4091 
z
M 4394 3400 
Q 4519 2359 4831 1659 
Q 5203 2478 5275 3578 
L 4463 3578 
Q 4431 3488 4394 3400 
z
M 2300 2216 
L 1984 2216 
Q 1913 2063 1825 1897 
L 3281 1897 
L 3281 1316 
Q 3038 806 2672 413 
L 3294 166 
L 3169 -38 
Q 3859 322 4347 894 
Q 4041 1522 3878 2300 
Q 3769 2103 3656 1922 
Q 3513 2172 3322 2438 
L 3138 2159 
Q 2750 2422 2300 2691 
L 2300 2216 
z
M 1300 934 
L 1950 691 
Q 2231 934 2413 1259 
L 1484 1259 
L 1300 934 
z
" transform="scale(0.015625)"/>
      <path id="MicrosoftYaHei-Bold-20" transform="scale(0.015625)"/>
      <path id="MicrosoftYaHei-Bold-79" d="M 3691 3456 
L 2266 -309 
Q 1769 -1622 778 -1622 
Q 388 -1622 172 -1541 
L 172 -731 
Q 375 -847 619 -847 
Q 1031 -847 1200 -447 
L 1391 6 
L -6 3456 
L 1113 3456 
L 1788 1291 
Q 1850 1094 1878 850 
L 1897 850 
Q 1919 1016 2000 1284 
L 2691 3456 
L 3691 3456 
z
" transform="scale(0.015625)"/>
      <path id="MicrosoftYaHei-Bold-3d" d="M 4072 2378 
L 797 2378 
L 797 3041 
L 4072 3041 
L 4072 2378 
z
M 4072 916 
L 797 916 
L 797 1578 
L 4072 1578 
L 4072 916 
z
" transform="scale(0.015625)"/>
      <path id="MicrosoftYaHei-Bold-6b" d="M 3856 0 
L 2631 0 
L 1481 1709 
L 1469 1709 
L 1469 0 
L 459 0 
L 459 5116 
L 1469 5116 
L 1469 1859 
L 1481 1859 
L 2559 3456 
L 3763 3456 
L 2481 1825 
L 3856 0 
z
" transform="scale(0.015625)"/>
      <path id="MicrosoftYaHei-Bold-2f" d="M 3100 4841 
L 747 -803 
L -156 -803 
L 2188 4841 
L 3100 4841 
z
" transform="scale(0.015625)"/>
      <path id="MicrosoftYaHei-Bold-78" d="M 3706 3456 
L 2563 1772 
L 3697 0 
L 2531 0 
L 2016 953 
Q 1909 1150 1869 1263 
L 1856 1263 
Q 1800 1113 1716 963 
L 1191 0 
L 31 0 
L 1200 1719 
L 100 3456 
L 1269 3456 
L 1781 2463 
Q 1856 2319 1922 2144 
L 1934 2144 
Q 1966 2250 2078 2466 
L 2606 3456 
L 3706 3456 
z
" transform="scale(0.015625)"/>
     </defs>
     <use xlink:href="#MicrosoftYaHei-Bold-53cd"/>
     <use xlink:href="#MicrosoftYaHei-Bold-6bd4" transform="translate(100 0)"/>
     <use xlink:href="#MicrosoftYaHei-Bold-4f8b" transform="translate(200 0)"/>
     <use xlink:href="#MicrosoftYaHei-Bold-51fd" transform="translate(300 0)"/>
     <use xlink:href="#MicrosoftYaHei-Bold-6570" transform="translate(400 0)"/>
     <use xlink:href="#MicrosoftYaHei-Bold-20" transform="translate(500 0)"/>
     <use xlink:href="#MicrosoftYaHei-Bold-79" transform="translate(529.785156 0)"/>
     <use xlink:href="#MicrosoftYaHei-Bold-3d" transform="translate(587.207031 0)"/>
     <use xlink:href="#MicrosoftYaHei-Bold-6b" transform="translate(663.330078 0)"/>
     <use xlink:href="#MicrosoftYaHei-Bold-2f" transform="translate(722.949219 0)"/>
     <use xlink:href="#MicrosoftYaHei-Bold-78" transform="translate(770.214844 0)"/>
    </g>
   </g>
   <g id="legend_1">
    <g id="patch_7">
     <path d="M 211.080156 59.228594 
L 297.090625 59.228594 
Q 298.890625 59.228594 298.890625 57.428594 
L 298.890625 30.361094 
Q 298.890625 28.561094 297.090625 28.561094 
L 211.080156 28.561094 
Q 209.280156 28.561094 209.280156 30.361094 
L 209.280156 57.428594 
Q 209.280156 59.228594 211.080156 59.228594 
z
" style="fill: #ffffff; opacity: 0.8; stroke: #cccccc; stroke-linejoin: miter"/>
    </g>
    <g id="line2d_27">
     <path d="M 212.880156 36.205469 
L 221.880156 36.205469 
L 230.880156 36.205469 
" style="fill: none; stroke: #e74c3c; stroke-width: 2.5; stroke-linecap: square"/>
    </g>
    <g id="text_12">
     <!-- y=3/x  (k&gt;0) -->
     <g transform="translate(238.080156 39.355469) scale(0.09 -0.09)">
      <defs>
       <path id="MicrosoftYaHei-79" d="M 3359 3456 
L 1791 -522 
Q 1353 -1628 556 -1628 
Q 328 -1628 166 -1578 
L 166 -1041 
Q 344 -1109 509 -1109 
Q 925 -1109 1131 -622 
L 1397 6 
L 41 3456 
L 719 3456 
L 1622 859 
L 1697 575 
L 1713 575 
Q 1731 672 1788 853 
L 2731 3456 
L 3359 3456 
z
" transform="scale(0.015625)"/>
       <path id="MicrosoftYaHei-3d" d="M 3972 2497 
L 788 2497 
L 788 2969 
L 3972 2969 
L 3972 2497 
z
M 3972 1053 
L 788 1053 
L 788 1525 
L 3972 1525 
L 3972 1053 
z
" transform="scale(0.015625)"/>
       <path id="MicrosoftYaHei-33" d="M 447 809 
Q 944 425 1569 425 
Q 2069 425 2361 670 
Q 2653 916 2653 1328 
Q 2653 2247 1338 2247 
L 934 2247 
L 934 2753 
L 1319 2753 
Q 2484 2753 2484 3616 
Q 2484 4413 1594 4413 
Q 1084 4413 634 4069 
L 634 4647 
Q 1109 4922 1744 4922 
Q 2363 4922 2738 4598 
Q 3113 4275 3113 3759 
Q 3113 2809 2144 2538 
L 2144 2525 
Q 2669 2469 2973 2155 
Q 3278 1841 3278 1372 
Q 3278 719 2808 319 
Q 2338 -81 1556 -81 
Q 869 -81 447 175 
L 447 809 
z
" transform="scale(0.015625)"/>
       <path id="MicrosoftYaHei-2f" d="M 2791 4841 
L 469 -803 
L -103 -803 
L 2219 4841 
L 2791 4841 
z
" transform="scale(0.015625)"/>
       <path id="MicrosoftYaHei-78" d="M 3163 3456 
L 2006 1716 
L 3147 0 
L 2434 0 
L 1775 1100 
Q 1722 1188 1625 1369 
L 1613 1369 
Q 1609 1350 1456 1100 
L 784 0 
L 81 0 
L 1256 1697 
L 134 3456 
L 847 3456 
L 1494 2300 
Q 1553 2194 1638 2025 
L 1650 2025 
L 2491 3456 
L 3163 3456 
z
" transform="scale(0.015625)"/>
       <path id="MicrosoftYaHei-20" transform="scale(0.015625)"/>
       <path id="MicrosoftYaHei-28" d="M 1531 -1100 
Q 478 100 478 1847 
Q 478 3594 1531 4841 
L 2072 4841 
Q 1016 3544 1016 1853 
Q 1016 166 2066 -1100 
L 1531 -1100 
z
" transform="scale(0.015625)"/>
       <path id="MicrosoftYaHei-6b" d="M 3484 0 
L 2650 0 
L 1172 1666 
L 1159 1666 
L 1159 0 
L 547 0 
L 547 5116 
L 1159 5116 
L 1159 1872 
L 1172 1872 
L 2575 3456 
L 3363 3456 
L 1800 1794 
L 3484 0 
z
" transform="scale(0.015625)"/>
       <path id="MicrosoftYaHei-3e" d="M 3844 1866 
L 913 409 
L 913 947 
L 3094 1981 
L 3094 2003 
L 913 3175 
L 913 3716 
L 3844 2103 
L 3844 1866 
z
" transform="scale(0.015625)"/>
       <path id="MicrosoftYaHei-29" d="M 78 -1100 
Q 1131 163 1131 1853 
Q 1131 3547 72 4841 
L 616 4841 
Q 1672 3603 1672 1847 
Q 1672 91 616 -1100 
L 78 -1100 
z
" transform="scale(0.015625)"/>
      </defs>
      <use xlink:href="#MicrosoftYaHei-79"/>
      <use xlink:href="#MicrosoftYaHei-3d" transform="translate(52.929688 0)"/>
      <use xlink:href="#MicrosoftYaHei-33" transform="translate(127.099609 0)"/>
      <use xlink:href="#MicrosoftYaHei-2f" transform="translate(185.742188 0)"/>
      <use xlink:href="#MicrosoftYaHei-78" transform="translate(228.466797 0)"/>
      <use xlink:href="#MicrosoftYaHei-20" transform="translate(279.150391 0)"/>
      <use xlink:href="#MicrosoftYaHei-20" transform="translate(308.740234 0)"/>
      <use xlink:href="#MicrosoftYaHei-28" transform="translate(338.330078 0)"/>
      <use xlink:href="#MicrosoftYaHei-6b" transform="translate(371.728516 0)"/>
      <use xlink:href="#MicrosoftYaHei-3e" transform="translate(426.171875 0)"/>
      <use xlink:href="#MicrosoftYaHei-30" transform="translate(500.341797 0)"/>
      <use xlink:href="#MicrosoftYaHei-29" transform="translate(558.984375 0)"/>
     </g>
    </g>
    <g id="line2d_28">
     <path d="M 212.880156 50.189219 
L 221.880156 50.189219 
L 230.880156 50.189219 
" style="fill: none; stroke: #2980b9; stroke-width: 2.5; stroke-linecap: square"/>
    </g>
    <g id="text_13">
     <!-- y=-2/x  (k&lt;0) -->
     <g transform="translate(238.080156 53.339219) scale(0.09 -0.09)">
      <defs>
       <path id="MicrosoftYaHei-3c" d="M 3844 403 
L 913 1859 
L 913 2097 
L 3844 3713 
L 3844 3172 
L 1666 2000 
L 1666 1984 
L 3844 941 
L 3844 403 
z
" transform="scale(0.015625)"/>
      </defs>
      <use xlink:href="#MicrosoftYaHei-79"/>
      <use xlink:href="#MicrosoftYaHei-3d" transform="translate(52.929688 0)"/>
      <use xlink:href="#MicrosoftYaHei-2d" transform="translate(127.099609 0)"/>
      <use xlink:href="#MicrosoftYaHei-32" transform="translate(170.361328 0)"/>
      <use xlink:href="#MicrosoftYaHei-2f" transform="translate(229.003906 0)"/>
      <use xlink:href="#MicrosoftYaHei-78" transform="translate(271.728516 0)"/>
      <use xlink:href="#MicrosoftYaHei-20" transform="translate(322.412109 0)"/>
      <use xlink:href="#MicrosoftYaHei-20" transform="translate(352.001953 0)"/>
      <use xlink:href="#MicrosoftYaHei-28" transform="translate(381.591797 0)"/>
      <use xlink:href="#MicrosoftYaHei-6b" transform="translate(414.990234 0)"/>
      <use xlink:href="#MicrosoftYaHei-3c" transform="translate(469.433594 0)"/>
      <use xlink:href="#MicrosoftYaHei-30" transform="translate(543.603516 0)"/>
      <use xlink:href="#MicrosoftYaHei-29" transform="translate(602.246094 0)"/>
     </g>
    </g>
   </g>
  </g>
 </g>
 <defs>
  <clipPath id="p498b8d9053">
   <rect x="24.390625" y="24.061094" width="279" height="221.76"/>
  </clipPath>
 </defs>
</svg>
