<?xml version="1.0" encoding="utf-8" standalone="no"?>
<!DOCTYPE svg PUBLIC "-//W3C//DTD SVG 1.1//EN"
  "http://www.w3.org/Graphics/SVG/1.1/DTD/svg11.dtd">
<svg xmlns:xlink="http://www.w3.org/1999/xlink" width="380.424636pt" height="193.281465pt" viewBox="0 0 380.424636 193.281465" xmlns="http://www.w3.org/2000/svg" version="1.1">
 <metadata>
  <rdf:RDF xmlns:dc="http://purl.org/dc/elements/1.1/" xmlns:cc="http://creativecommons.org/ns#" xmlns:rdf="http://www.w3.org/1999/02/22-rdf-syntax-ns#">
   <cc:Work>
    <dc:type rdf:resource="http://purl.org/dc/dcmitype/StillImage"/>
    <dc:date>2026-05-22T23:04:21.539518</dc:date>
    <dc:format>image/svg+xml</dc:format>
    <dc:creator>
     <cc:Agent>
      <dc:title>Matplotlib v3.10.9, https://matplotlib.org/</dc:title>
     </cc:Agent>
    </dc:creator>
   </cc:Work>
  </rdf:RDF>
 </metadata>
 <defs>
  <style type="text/css">*{stroke-linejoin: round; stroke-linecap: butt}</style>
 </defs>
 <g id="figure_1">
  <g id="patch_1">
   <path d="M 0 193.281465 
L 380.424636 193.281465 
L 380.424636 0 
L 0 0 
z
" style="fill: #ffffff"/>
  </g>
  <g id="axes_1">
   <g id="patch_2">
    <path d="M 35.308 105.51775 
L 119.632 105.51775 
L 63.416 35.24775 
z
" clip-path="url(#p392f9615be)" style="fill: #f0e8d0; stroke: #333333; stroke-width: 2; stroke-linejoin: miter"/>
   </g>
   <g id="line2d_1">
    <path d="M 63.416 35.24775 
L 105.578 105.51775 
" clip-path="url(#p392f9615be)" style="fill: none; stroke-dasharray: 7.4,3.2; stroke-dashoffset: 0; stroke: #e74c3c; stroke-width: 2"/>
   </g>
   <g id="line2d_2">
    <path d="M 85.9024 105.51775 
L 46.5512 77.40975 
" clip-path="url(#p392f9615be)" style="fill: none; stroke: #27ae60; stroke-width: 1.5; stroke-linecap: square"/>
   </g>
   <g id="line2d_3">
    <path d="M 85.9024 105.51775 
L 97.1456 91.46375 
" clip-path="url(#p392f9615be)" style="fill: none; stroke: #27ae60; stroke-width: 1.5; stroke-linecap: square"/>
   </g>
   <g id="text_1">
    <!-- B -->
    <g transform="translate(29.6864 111.13935) scale(0.1 -0.1)">
     <defs>
      <path id="MicrosoftYaHei-Bold-42" d="M 559 0 
L 559 4841 
L 2278 4841 
Q 3069 4841 3497 4541 
Q 3925 4241 3925 3709 
Q 3925 3316 3659 3019 
Q 3394 2722 2991 2609 
L 2991 2597 
Q 3497 2534 3808 2221 
Q 4119 1909 4119 1438 
Q 4119 778 3650 389 
Q 3181 0 2369 0 
L 559 0 
z
M 1591 4072 
L 1591 2875 
L 2081 2875 
Q 2434 2875 2637 3044 
Q 2841 3213 2841 3516 
Q 2841 4072 2028 4072 
L 1591 4072 
z
M 1591 2097 
L 1591 769 
L 2203 769 
Q 2594 769 2814 950 
Q 3034 1131 3034 1453 
Q 3034 1759 2815 1928 
Q 2597 2097 2194 2097 
L 1591 2097 
z
" transform="scale(0.015625)"/>
     </defs>
     <use xlink:href="#MicrosoftYaHei-Bold-42"/>
    </g>
   </g>
   <g id="text_2">
    <!-- C -->
    <g transform="translate(125.2536 111.13935) scale(0.1 -0.1)">
     <defs>
      <path id="MicrosoftYaHei-Bold-43" d="M 4013 175 
Q 3484 -84 2634 -84 
Q 1541 -84 898 570 
Q 256 1225 256 2316 
Q 256 3463 973 4192 
Q 1691 4922 2825 4922 
Q 3534 4922 4013 4738 
L 4013 3741 
Q 3522 4028 2900 4028 
Q 2191 4028 1766 3575 
Q 1341 3122 1341 2391 
Q 1341 1678 1744 1243 
Q 2147 809 2834 809 
Q 3481 809 4013 1122 
L 4013 175 
z
" transform="scale(0.015625)"/>
     </defs>
     <use xlink:href="#MicrosoftYaHei-Bold-43"/>
    </g>
   </g>
   <g id="text_3">
    <!-- A -->
    <g transform="translate(59.655844 29.62615) scale(0.1 -0.1)">
     <defs>
      <path id="MicrosoftYaHei-Bold-41" d="M 4759 0 
L 3634 0 
L 3272 1109 
L 1513 1109 
L 1156 0 
L 38 0 
L 1809 4841 
L 3022 4841 
L 4759 0 
z
M 3028 1906 
L 2478 3584 
Q 2425 3744 2403 4006 
L 2375 4006 
Q 2356 3794 2291 3597 
L 1738 1906 
L 3028 1906 
z
" transform="scale(0.015625)"/>
     </defs>
     <use xlink:href="#MicrosoftYaHei-Bold-41"/>
    </g>
   </g>
   <g id="text_4">
    <!-- D -->
    <g style="fill: #e74c3c" transform="translate(88.7132 68.97735) scale(0.1 -0.1)">
     <defs>
      <path id="MicrosoftYaHei-Bold-44" d="M 559 0 
L 559 4841 
L 2231 4841 
Q 4809 4841 4809 2481 
Q 4809 1359 4087 679 
Q 3366 0 2225 0 
L 559 0 
z
M 1591 3997 
L 1591 844 
L 2153 844 
Q 2888 844 3306 1281 
Q 3725 1719 3725 2466 
Q 3725 3188 3287 3592 
Q 2850 3997 2150 3997 
L 1591 3997 
z
" transform="scale(0.015625)"/>
     </defs>
     <use xlink:href="#MicrosoftYaHei-Bold-44"/>
    </g>
   </g>
   <g id="text_5">
    <!-- E -->
    <g style="fill: #27ae60" transform="translate(40.9296 83.03135) scale(0.09 -0.09)">
     <defs>
      <path id="MicrosoftYaHei-45" d="M 3228 0 
L 625 0 
L 625 4841 
L 3119 4841 
L 3119 4284 
L 1250 4284 
L 1250 2734 
L 2981 2734 
L 2981 2181 
L 1250 2181 
L 1250 553 
L 3228 553 
L 3228 0 
z
" transform="scale(0.015625)"/>
     </defs>
     <use xlink:href="#MicrosoftYaHei-45"/>
    </g>
   </g>
   <g id="text_6">
    <!-- F -->
    <g style="fill: #27ae60" transform="translate(102.7672 97.08535) scale(0.09 -0.09)">
     <defs>
      <path id="MicrosoftYaHei-46" d="M 3119 4284 
L 1250 4284 
L 1250 2666 
L 2981 2666 
L 2981 2116 
L 1250 2116 
L 1250 0 
L 625 0 
L 625 4841 
L 3119 4841 
L 3119 4284 
z
" transform="scale(0.015625)"/>
     </defs>
     <use xlink:href="#MicrosoftYaHei-46"/>
    </g>
   </g>
   <g id="text_7">
    <!-- DE = DF -->
    <g style="fill: #27ae60" transform="translate(71.8484 91.46375) scale(0.09 -0.09)">
     <defs>
      <path id="MicrosoftYaHei-Bold-45" d="M 3425 0 
L 559 0 
L 559 4841 
L 3313 4841 
L 3313 3997 
L 1591 3997 
L 1591 2856 
L 3191 2856 
L 3191 2016 
L 1591 2016 
L 1591 844 
L 3425 844 
L 3425 0 
z
" transform="scale(0.015625)"/>
      <path id="MicrosoftYaHei-Bold-20" transform="scale(0.015625)"/>
      <path id="MicrosoftYaHei-Bold-3d" d="M 4072 2378 
L 797 2378 
L 797 3041 
L 4072 3041 
L 4072 2378 
z
M 4072 916 
L 797 916 
L 797 1578 
L 4072 1578 
L 4072 916 
z
" transform="scale(0.015625)"/>
      <path id="MicrosoftYaHei-Bold-46" d="M 3319 3997 
L 1591 3997 
L 1591 2753 
L 3181 2753 
L 3181 1909 
L 1591 1909 
L 1591 0 
L 559 0 
L 559 4841 
L 3319 4841 
L 3319 3997 
z
" transform="scale(0.015625)"/>
     </defs>
     <use xlink:href="#MicrosoftYaHei-Bold-44"/>
     <use xlink:href="#MicrosoftYaHei-Bold-45" transform="translate(79.150391 0)"/>
     <use xlink:href="#MicrosoftYaHei-Bold-20" transform="translate(136.328125 0)"/>
     <use xlink:href="#MicrosoftYaHei-Bold-3d" transform="translate(166.113281 0)"/>
     <use xlink:href="#MicrosoftYaHei-Bold-20" transform="translate(242.236328 0)"/>
     <use xlink:href="#MicrosoftYaHei-Bold-44" transform="translate(272.021484 0)"/>
     <use xlink:href="#MicrosoftYaHei-Bold-46" transform="translate(351.171875 0)"/>
    </g>
   </g>
   <g id="text_8">
    <!-- 角平分线模型 -->
    <g style="fill: #9b59b6" transform="translate(40.443 15.19375) scale(0.1 -0.1)">
     <defs>
      <path id="MicrosoftYaHei-Bold-89d2" d="M 1800 5341 
L 2794 5341 
Q 2703 5147 2600 4959 
L 4900 4959 
L 4900 4278 
L 4516 3778 
L 5731 3778 
L 5731 109 
Q 5731 -275 5589 -489 
Q 5447 -703 5190 -750 
Q 4934 -797 4088 -791 
Q 4031 -372 3913 28 
Q 4213 3 4569 3 
Q 4869 3 4869 397 
L 4869 609 
L 3725 609 
L 3725 -722 
L 2863 -722 
L 2863 609 
L 1672 609 
Q 1497 -291 969 -866 
Q 656 -572 219 -228 
Q 900 516 900 1872 
L 900 2959 
L 700 2803 
Q 463 3103 106 3384 
Q 1188 4228 1800 5341 
z
M 1759 3778 
L 3428 3778 
L 3806 4284 
L 2169 4284 
Q 1978 4025 1759 3778 
z
M 4869 3047 
L 3725 3047 
L 3725 2497 
L 4869 2497 
L 4869 3047 
z
M 1763 2497 
L 2863 2497 
L 2863 3047 
L 1763 3047 
L 1763 2497 
z
M 3725 1278 
L 4869 1278 
L 4869 1828 
L 3725 1828 
L 3725 1278 
z
M 1753 1278 
L 2863 1278 
L 2863 1828 
L 1763 1828 
Q 1763 1597 1753 1278 
z
" transform="scale(0.015625)"/>
      <path id="MicrosoftYaHei-Bold-5e73" d="M 175 1959 
L 2719 1959 
L 2719 4253 
L 450 4253 
L 450 5078 
L 5975 5078 
L 5975 4253 
L 3669 4253 
L 3669 1959 
L 6250 1959 
L 6250 1134 
L 3669 1134 
L 3669 -809 
L 2719 -809 
L 2719 1134 
L 175 1134 
L 175 1959 
z
M 538 3691 
L 1194 4134 
Q 1794 3434 2438 2584 
L 1681 2084 
Q 1050 3041 538 3691 
z
M 5988 3628 
Q 5325 2834 4588 2066 
L 3950 2584 
Q 4675 3334 5250 4128 
L 5988 3628 
z
" transform="scale(0.015625)"/>
      <path id="MicrosoftYaHei-Bold-5206" d="M 6350 3028 
Q 6088 2703 5750 2228 
Q 5519 2409 5303 2603 
Q 5219 606 5172 190 
Q 5125 -225 4862 -451 
Q 4600 -678 4128 -678 
Q 3484 -678 2913 -659 
Q 2856 -141 2781 284 
Q 3594 216 3956 216 
Q 4172 216 4230 408 
Q 4288 600 4325 1978 
L 2781 1978 
Q 2728 1100 2529 631 
Q 2331 163 1907 -215 
Q 1484 -594 844 -872 
Q 456 -353 194 -78 
Q 750 144 1111 414 
Q 1472 684 1630 989 
Q 1788 1294 1841 1978 
L 950 1978 
L 950 2475 
Q 794 2356 631 2247 
Q 344 2653 63 2953 
Q 1475 3947 2194 5316 
L 3031 4953 
Q 2378 3722 1391 2841 
L 5047 2841 
Q 4088 3766 3463 4903 
L 4238 5303 
Q 5038 3922 6350 3028 
z
" transform="scale(0.015625)"/>
      <path id="MicrosoftYaHei-Bold-7ebf" d="M 225 -528 
L 63 347 
Q 1188 491 2369 678 
Q 2353 481 2350 256 
Q 3069 481 3691 806 
Q 3550 1250 3466 1859 
L 2413 1734 
L 2306 2491 
L 3384 2619 
L 3347 3244 
L 2525 3159 
L 2488 3494 
Q 1859 2456 1356 1778 
Q 1919 1859 2294 1928 
Q 2263 1672 2231 1147 
Q 888 972 431 847 
L 200 1547 
Q 597 1922 1075 2641 
Q 738 2613 294 2566 
L 63 3278 
Q 581 3916 1194 5322 
L 1988 5009 
Q 1438 4034 1000 3353 
Q 1234 3356 1531 3372 
Q 1700 3663 1881 3991 
L 2466 3716 
L 2444 3922 
L 3303 4006 
L 3250 5303 
L 4094 5303 
Q 4103 4669 4128 4088 
L 5219 4194 
Q 4844 4469 4350 4778 
L 4756 5316 
Q 5263 5041 5769 4716 
L 5388 4213 
L 5988 4272 
L 6063 3522 
L 4169 3328 
L 4216 2716 
L 6156 2947 
L 6238 2197 
L 5484 2106 
L 6038 1666 
Q 5431 1003 4731 509 
Q 4991 100 5203 100 
Q 5316 100 5387 251 
Q 5459 403 5581 1047 
Q 6013 822 6313 684 
Q 6072 -288 5839 -564 
Q 5606 -841 5300 -841 
Q 4503 -841 4006 56 
Q 3259 -353 2419 -597 
Q 2325 -400 2200 -178 
Q 1084 -353 225 -528 
z
M 5413 2097 
L 4309 1963 
Q 4369 1603 4447 1266 
Q 4972 1638 5413 2097 
z
" transform="scale(0.015625)"/>
      <path id="MicrosoftYaHei-Bold-6a21" d="M 6250 534 
L 4825 534 
Q 5419 84 6325 -53 
Q 6131 -403 5913 -859 
Q 4769 -522 4169 334 
Q 3694 -503 2406 -897 
Q 2206 -509 1925 -159 
Q 3013 66 3419 534 
L 2088 534 
L 2088 1141 
L 3719 1141 
Q 3756 1284 3769 1459 
L 2425 1459 
L 2425 2134 
L 1944 1659 
Q 1800 1878 1638 2109 
L 1638 -841 
L 863 -841 
L 863 1803 
Q 619 1141 275 547 
Q 213 978 75 1691 
Q 525 2453 788 3328 
L 138 3328 
L 138 4066 
L 863 4066 
L 863 5291 
L 1638 5291 
L 1638 4066 
L 2219 4066 
L 2219 3328 
L 1638 3328 
L 1638 2972 
Q 2081 2559 2425 2209 
L 2425 3703 
L 6025 3703 
L 6025 1459 
L 4556 1459 
Q 4544 1291 4519 1141 
L 6250 1141 
L 6250 534 
z
M 5250 2009 
L 5250 2353 
L 3200 2353 
L 3200 2009 
L 5250 2009 
z
M 5250 3147 
L 3200 3147 
L 3200 2816 
L 5250 2816 
L 5250 3147 
z
M 5413 3853 
L 4675 3853 
L 4675 4203 
L 3719 4203 
L 3719 3853 
L 2981 3853 
L 2981 4203 
L 2175 4203 
L 2175 4822 
L 2981 4822 
L 2981 5291 
L 3719 5291 
L 3719 4822 
L 4675 4822 
L 4675 5291 
L 5413 5291 
L 5413 4822 
L 6275 4822 
L 6275 4203 
L 5413 4203 
L 5413 3853 
z
" transform="scale(0.015625)"/>
      <path id="MicrosoftYaHei-Bold-578b" d="M 5963 5216 
L 5963 2547 
Q 5963 2141 5752 1928 
Q 5541 1716 5095 1700 
Q 4650 1684 4269 1684 
Q 4231 2059 4150 2447 
Q 4469 2428 4813 2428 
Q 5150 2428 5150 2709 
L 5150 5216 
L 5963 5216 
z
M 150 3491 
L 891 3491 
Q 900 3616 900 4341 
L 325 4341 
L 325 5066 
L 3625 5066 
L 3625 4341 
L 3113 4341 
L 3113 3491 
L 3750 3491 
L 3750 2766 
L 3113 2766 
L 3113 2091 
L 3656 2091 
L 3656 1441 
L 5781 1441 
L 5781 678 
L 3656 678 
L 3656 103 
L 6294 103 
L 6294 -647 
L 138 -647 
L 138 103 
L 2763 103 
L 2763 678 
L 650 678 
L 650 1441 
L 2763 1441 
L 2763 1766 
L 2350 1766 
L 2350 2766 
L 1559 2766 
Q 1375 2016 888 1522 
Q 675 1697 275 2009 
Q 584 2334 741 2766 
L 150 2766 
L 150 3491 
z
M 1663 3491 
L 2350 3491 
L 2350 4341 
L 1669 4341 
Q 1669 3753 1663 3491 
z
M 3900 4866 
L 4650 4866 
L 4650 2753 
L 3900 2753 
L 3900 4866 
z
" transform="scale(0.015625)"/>
     </defs>
     <use xlink:href="#MicrosoftYaHei-Bold-89d2"/>
     <use xlink:href="#MicrosoftYaHei-Bold-5e73" transform="translate(100 0)"/>
     <use xlink:href="#MicrosoftYaHei-Bold-5206" transform="translate(200 0)"/>
     <use xlink:href="#MicrosoftYaHei-Bold-7ebf" transform="translate(300 0)"/>
     <use xlink:href="#MicrosoftYaHei-Bold-6a21" transform="translate(400 0)"/>
     <use xlink:href="#MicrosoftYaHei-Bold-578b" transform="translate(500 0)"/>
    </g>
   </g>
  </g>
  <g id="axes_2">
   <g id="patch_3">
    <path d="M 285.777525 108.640861 
L 348.239747 108.640861 
L 310.762414 41.181661 
z
" clip-path="url(#p01afd3a15b)" style="fill: #f0e8d0; stroke: #333333; stroke-width: 2; stroke-linejoin: miter"/>
   </g>
   <g id="line2d_4">
    <path d="M 310.762414 41.181661 
L 353.236725 108.640861 
" clip-path="url(#p01afd3a15b)" style="fill: none; stroke: #2980b9; stroke-width: 2; stroke-linecap: square"/>
   </g>
   <g id="line2d_5">
    <path d="M 285.777525 108.640861 
L 317.008636 108.640861 
" clip-path="url(#p01afd3a15b)" style="fill: none; stroke: #999999; stroke-linecap: square"/>
   </g>
   <g id="line2d_6">
    <path d="M 310.762414 41.181661 
L 323.254859 176.100061 
" clip-path="url(#p01afd3a15b)" style="fill: none; stroke-dasharray: 7.4,3.2; stroke-dashoffset: 0; stroke: #e67e22; stroke-width: 2"/>
   </g>
   <g id="text_9">
    <!-- B -->
    <g transform="translate(280.780547 113.637839) scale(0.1 -0.1)">
     <use xlink:href="#MicrosoftYaHei-Bold-42"/>
    </g>
   </g>
   <g id="text_10">
    <!-- C -->
    <g transform="translate(353.236725 113.637839) scale(0.1 -0.1)">
     <use xlink:href="#MicrosoftYaHei-Bold-43"/>
    </g>
   </g>
   <g id="text_11">
    <!-- A -->
    <g transform="translate(307.002258 36.184683) scale(0.1 -0.1)">
     <use xlink:href="#MicrosoftYaHei-Bold-41"/>
    </g>
   </g>
   <g id="text_12">
    <!-- M -->
    <g style="fill: #e74c3c" transform="translate(310.762414 116.136328) scale(0.1 -0.1)">
     <defs>
      <path id="MicrosoftYaHei-Bold-4d" d="M 4991 0 
L 4991 2938 
Q 4991 3344 5031 3959 
L 5006 3959 
Q 4913 3494 4856 3338 
L 3663 0 
L 2841 0 
L 1631 3306 
Q 1588 3425 1478 3959 
L 1450 3959 
Q 1491 3350 1491 2738 
L 1491 0 
L 559 0 
L 559 4841 
L 2059 4841 
L 3103 1916 
Q 3234 1553 3281 1234 
L 3303 1234 
Q 3400 1631 3503 1922 
L 4550 4841 
L 6009 4841 
L 6009 0 
L 4991 0 
z
" transform="scale(0.015625)"/>
     </defs>
     <use xlink:href="#MicrosoftYaHei-Bold-4d"/>
    </g>
   </g>
   <g id="text_13">
    <!-- D -->
    <g style="fill: #e67e22" transform="translate(313.260903 183.595528) scale(0.1 -0.1)">
     <use xlink:href="#MicrosoftYaHei-Bold-44"/>
    </g>
   </g>
   <g id="text_14">
    <!-- AM = MD -->
    <g style="fill: #e67e22" transform="translate(313.260903 71.163528) scale(0.09 -0.09)">
     <use xlink:href="#MicrosoftYaHei-Bold-41"/>
     <use xlink:href="#MicrosoftYaHei-Bold-4d" transform="translate(75.195312 0)"/>
     <use xlink:href="#MicrosoftYaHei-Bold-20" transform="translate(178.027344 0)"/>
     <use xlink:href="#MicrosoftYaHei-Bold-3d" transform="translate(207.8125 0)"/>
     <use xlink:href="#MicrosoftYaHei-Bold-20" transform="translate(283.935547 0)"/>
     <use xlink:href="#MicrosoftYaHei-Bold-4d" transform="translate(313.720703 0)"/>
     <use xlink:href="#MicrosoftYaHei-Bold-44" transform="translate(416.552734 0)"/>
    </g>
   </g>
   <g id="text_15">
    <!-- 倍长中线模型 -->
    <g style="fill: #e74c3c" transform="translate(287.008636 15.19375) scale(0.1 -0.1)">
     <defs>
      <path id="MicrosoftYaHei-Bold-500d" d="M 1900 2978 
L 2869 2978 
Q 2575 3419 2400 3647 
L 2778 3891 
L 2100 3891 
L 2100 4603 
L 3584 4603 
Q 3469 4878 3325 5184 
L 4256 5353 
Q 4409 5066 4603 4603 
L 6075 4603 
L 6075 3891 
L 5325 3891 
L 5744 3653 
Q 5509 3334 5228 2978 
L 6300 2978 
L 6300 2241 
L 1900 2241 
L 1900 2978 
z
M 3769 3159 
L 3478 2978 
L 4506 2978 
L 4319 3097 
Q 4591 3447 4897 3891 
L 3209 3891 
Q 3547 3472 3769 3159 
z
M 1363 5341 
L 2163 5103 
Q 1913 4334 1625 3647 
L 1625 -809 
L 800 -809 
L 800 1981 
Q 588 1619 363 1291 
Q 250 1809 81 2472 
Q 900 3766 1363 5341 
z
M 2225 -797 
L 2225 1778 
L 5913 1778 
L 5913 -797 
L 5063 -797 
L 5063 -484 
L 3075 -484 
L 3075 -797 
L 2225 -797 
z
M 5063 1066 
L 3075 1066 
L 3075 228 
L 5063 228 
L 5063 1066 
z
" transform="scale(0.015625)"/>
      <path id="MicrosoftYaHei-Bold-957f" d="M 175 2816 
L 1031 2816 
L 1031 5322 
L 1900 5322 
L 1900 2816 
L 6194 2816 
L 6194 2009 
L 3825 2009 
Q 4563 728 6313 216 
Q 6031 -153 5681 -647 
Q 3713 172 2969 2009 
L 1900 2009 
L 1900 266 
L 3513 797 
Q 3494 359 3506 -22 
Q 1653 -588 1269 -903 
L 794 -103 
Q 1031 134 1031 628 
L 1031 2009 
L 175 2009 
L 175 2816 
z
M 5006 5272 
L 5663 4491 
Q 4338 3747 2863 3091 
L 2350 3766 
Q 4013 4547 5006 5272 
z
" transform="scale(0.015625)"/>
      <path id="MicrosoftYaHei-Bold-4e2d" d="M 2719 5341 
L 3669 5341 
L 3669 4234 
L 6000 4234 
L 6000 728 
L 5075 728 
L 5075 1159 
L 3669 1159 
L 3669 -853 
L 2719 -853 
L 2719 1159 
L 1313 1159 
L 1313 709 
L 388 709 
L 388 4234 
L 2719 4234 
L 2719 5341 
z
M 5075 3372 
L 3669 3372 
L 3669 2022 
L 5075 2022 
L 5075 3372 
z
M 1313 2022 
L 2719 2022 
L 2719 3372 
L 1313 3372 
L 1313 2022 
z
" transform="scale(0.015625)"/>
     </defs>
     <use xlink:href="#MicrosoftYaHei-Bold-500d"/>
     <use xlink:href="#MicrosoftYaHei-Bold-957f" transform="translate(100 0)"/>
     <use xlink:href="#MicrosoftYaHei-Bold-4e2d" transform="translate(200 0)"/>
     <use xlink:href="#MicrosoftYaHei-Bold-7ebf" transform="translate(300 0)"/>
     <use xlink:href="#MicrosoftYaHei-Bold-6a21" transform="translate(400 0)"/>
     <use xlink:href="#MicrosoftYaHei-Bold-578b" transform="translate(500 0)"/>
    </g>
   </g>
   <g id="line2d_7">
    <defs>
     <path id="m995498389b" d="M 0 4 
C 1.060812 4 2.078319 3.578535 2.828427 2.828427 
C 3.578535 2.078319 4 1.060812 4 0 
C 4 -1.060812 3.578535 -2.078319 2.828427 -2.828427 
C 2.078319 -3.578535 1.060812 -4 0 -4 
C -1.060812 -4 -2.078319 -3.578535 -2.828427 -2.828427 
C -3.578535 -2.078319 -4 -1.060812 -4 0 
C -4 1.060812 -3.578535 2.078319 -2.828427 2.828427 
C -2.078319 3.578535 -1.060812 4 0 4 
z
" style="stroke: #e74c3c"/>
    </defs>
    <g clip-path="url(#p01afd3a15b)">
     <use xlink:href="#m995498389b" x="317.008636" y="108.640861" style="fill: #e74c3c; stroke: #e74c3c"/>
    </g>
   </g>
   <g id="line2d_8">
    <defs>
     <path id="m366c9aebcc" d="M 0 4 
C 1.060812 4 2.078319 3.578535 2.828427 2.828427 
C 3.578535 2.078319 4 1.060812 4 0 
C 4 -1.060812 3.578535 -2.078319 2.828427 -2.828427 
C 2.078319 -3.578535 1.060812 -4 0 -4 
C -1.060812 -4 -2.078319 -3.578535 -2.828427 -2.828427 
C -3.578535 -2.078319 -4 -1.060812 -4 0 
C -4 1.060812 -3.578535 2.078319 -2.828427 2.828427 
C -2.078319 3.578535 -1.060812 4 0 4 
z
" style="stroke: #e67e22"/>
    </defs>
    <g clip-path="url(#p01afd3a15b)">
     <use xlink:href="#m366c9aebcc" x="323.254859" y="176.100061" style="fill: #e67e22; stroke: #e67e22"/>
    </g>
   </g>
  </g>
 </g>
 <defs>
  <clipPath id="p392f9615be">
   <rect x="7.2" y="21.19375" width="126.486" height="112.432"/>
  </clipPath>
  <clipPath id="p01afd3a15b">
   <rect x="260.792636" y="21.19375" width="112.432" height="112.432"/>
  </clipPath>
 </defs>
</svg>
