<?xml version="1.0" encoding="utf-8" standalone="no"?>
<!DOCTYPE svg PUBLIC "-//W3C//DTD SVG 1.1//EN"
  "http://www.w3.org/Graphics/SVG/1.1/DTD/svg11.dtd">
<svg xmlns:xlink="http://www.w3.org/1999/xlink" width="640.8pt" height="281.044375pt" viewBox="0 0 640.8 281.044375" xmlns="http://www.w3.org/2000/svg" version="1.1">
 <metadata>
  <rdf:RDF xmlns:dc="http://purl.org/dc/elements/1.1/" xmlns:cc="http://creativecommons.org/ns#" xmlns:rdf="http://www.w3.org/1999/02/22-rdf-syntax-ns#">
   <cc:Work>
    <dc:type rdf:resource="http://purl.org/dc/dcmitype/StillImage"/>
    <dc:date>2026-05-22T23:20:28.780095</dc:date>
    <dc:format>image/svg+xml</dc:format>
    <dc:creator>
     <cc:Agent>
      <dc:title>Matplotlib v3.10.9, https://matplotlib.org/</dc:title>
     </cc:Agent>
    </dc:creator>
   </cc:Work>
  </rdf:RDF>
 </metadata>
 <defs>
  <style type="text/css">*{stroke-linejoin: round; stroke-linecap: butt}</style>
 </defs>
 <g id="figure_1">
  <g id="patch_1">
   <path d="M 0 281.044375 
L 640.8 281.044375 
L 640.8 0 
L 0 0 
z
" style="fill: #ffffff"/>
  </g>
  <g id="axes_1">
   <g id="patch_2">
    <path d="M 99.54 223.793875 
L 222.66 223.793875 
Q 253.44 223.793875 253.44 198.768625 
L 253.44 98.667625 
Q 253.44 73.642375 222.66 73.642375 
L 99.54 73.642375 
Q 68.76 73.642375 68.76 98.667625 
L 68.76 198.768625 
Q 68.76 223.793875 99.54 223.793875 
z
" clip-path="url(#pdef20e50c0)" style="fill: #ffe0e0; stroke: #c0392b; stroke-width: 2; stroke-linejoin: miter"/>
   </g>
   <g id="line2d_1">
    <path d="M 253.44 188.758525 
L 252.180603 180.520483 
L 248.436764 172.507154 
L 242.310606 164.93712 
L 233.969235 158.016872 
L 223.64018 151.935175 
L 211.605193 146.857924 
L 198.192556 142.923612 
L 183.76813 140.239557 
L 168.725377 138.878973 
L 153.474623 138.878973 
L 138.43187 140.239557 
L 124.007444 142.923612 
L 110.594807 146.857924 
L 98.55982 151.935175 
L 88.230765 158.016872 
L 79.889394 164.93712 
L 73.763236 172.507154 
L 70.019397 180.520483 
L 68.76 188.758525 
" clip-path="url(#pdef20e50c0)" style="fill: none; stroke: #e67e22; stroke-opacity: 0.7; stroke-width: 1.5; stroke-linecap: square"/>
   </g>
   <g id="line2d_2">
    <path d="M 253.44 178.748425 
L 252.180603 170.510383 
L 248.436764 162.497054 
L 242.310606 154.92702 
L 233.969235 148.006772 
L 223.64018 141.925075 
L 211.605193 136.847824 
L 198.192556 132.913512 
L 183.76813 130.229457 
L 168.725377 128.868873 
L 153.474623 128.868873 
L 138.43187 130.229457 
L 124.007444 132.913512 
L 110.594807 136.847824 
L 98.55982 141.925075 
L 88.230765 148.006772 
L 79.889394 154.92702 
L 73.763236 162.497054 
L 70.019397 170.510383 
L 68.76 178.748425 
" clip-path="url(#pdef20e50c0)" style="fill: none; stroke: #e67e22; stroke-opacity: 0.7; stroke-width: 1.5; stroke-linecap: square"/>
   </g>
   <g id="line2d_3">
    <path d="M 253.44 118.687825 
L 252.180603 110.449783 
L 248.436764 102.436454 
L 242.310606 94.86642 
L 233.969235 87.946172 
L 223.64018 81.864475 
L 211.605193 76.787224 
L 198.192556 72.852912 
L 183.76813 70.168857 
L 168.725377 68.808273 
L 153.474623 68.808273 
L 138.43187 70.168857 
L 124.007444 72.852912 
L 110.594807 76.787224 
L 98.55982 81.864475 
L 88.230765 87.946172 
L 79.889394 94.86642 
L 73.763236 102.436454 
L 70.019397 110.449783 
L 68.76 118.687825 
" clip-path="url(#pdef20e50c0)" style="fill: none; stroke: #e67e22; stroke-opacity: 0.7; stroke-width: 1.5; stroke-linecap: square"/>
   </g>
   <g id="line2d_4">
    <path d="M 253.44 108.677725 
L 252.180603 100.439683 
L 248.436764 92.426354 
L 242.310606 84.85632 
L 233.969235 77.936072 
L 223.64018 71.854375 
L 211.605193 66.777124 
L 198.192556 62.842812 
L 183.76813 60.158757 
L 168.725377 58.798173 
L 153.474623 58.798173 
L 138.43187 60.158757 
L 124.007444 62.842812 
L 110.594807 66.777124 
L 98.55982 71.854375 
L 88.230765 77.936072 
L 79.889394 84.85632 
L 73.763236 92.426354 
L 70.019397 100.439683 
L 68.76 108.677725 
" clip-path="url(#pdef20e50c0)" style="fill: none; stroke: #e67e22; stroke-opacity: 0.7; stroke-width: 1.5; stroke-linecap: square"/>
   </g>
   <g id="text_1">
    <!-- N -->
    <g style="fill: #c0392b" transform="translate(154.315 148.718125) scale(0.16 -0.16)">
     <defs>
      <path id="MicrosoftYaHei-Bold-4e" d="M 4863 0 
L 3806 0 
L 1756 3131 
Q 1597 3375 1525 3525 
L 1509 3525 
Q 1538 3275 1538 2753 
L 1538 0 
L 559 0 
L 559 4841 
L 1684 4841 
L 3659 1797 
Q 3856 1494 3900 1413 
L 3916 1413 
Q 3884 1588 3884 2081 
L 3884 4841 
L 4863 4841 
L 4863 0 
z
" transform="scale(0.015625)"/>
     </defs>
     <use xlink:href="#MicrosoftYaHei-Bold-4e"/>
    </g>
   </g>
   <g id="text_2">
    <!-- S -->
    <g style="fill: #2980b9" transform="translate(156.2875 98.667625) scale(0.16 -0.16)">
     <defs>
      <path id="MicrosoftYaHei-Bold-53" d="M 338 1219 
Q 922 734 1666 734 
Q 2088 734 2300 879 
Q 2513 1025 2513 1253 
Q 2513 1450 2344 1625 
Q 2175 1800 1453 2100 
Q 319 2581 319 3500 
Q 319 4175 833 4548 
Q 1347 4922 2194 4922 
Q 2903 4922 3384 4738 
L 3384 3769 
Q 2897 4100 2244 4100 
Q 1863 4100 1634 3961 
Q 1406 3822 1406 3588 
Q 1406 3400 1562 3242 
Q 1719 3084 2334 2816 
Q 3056 2506 3326 2162 
Q 3597 1819 3597 1344 
Q 3597 647 3103 281 
Q 2609 -84 1700 -84 
Q 869 -84 338 184 
L 338 1219 
z
" transform="scale(0.015625)"/>
     </defs>
     <use xlink:href="#MicrosoftYaHei-Bold-53"/>
    </g>
   </g>
   <g id="patch_3">
    <path d="M 297.85439 222.842292 
Q 276.526862 211.28226 256.673731 200.521385 
" style="fill: none; stroke: #e67e22; stroke-width: 1.5; stroke-linecap: round"/>
    <path d="M 259.237321 204.18581 
L 256.673731 200.521385 
L 261.143425 200.669169 
" style="fill: none; stroke: #e67e22; stroke-width: 1.5; stroke-linecap: round"/>
   </g>
   <g id="text_3">
    <!-- N极→S极 -->
    <g style="fill: #e67e22" transform="translate(68.76 236.740688) scale(0.1 -0.1)">
     <defs>
      <path id="MicrosoftYaHei-Bold-6781" d="M 75 1703 
Q 569 2522 809 3391 
L 119 3391 
L 119 4203 
L 875 4203 
L 875 5303 
L 1669 5303 
L 1669 4203 
L 2313 4203 
L 2313 3391 
L 1669 3391 
L 1669 2819 
Q 2125 2534 2469 2284 
L 2106 1534 
Q 1941 1681 1669 1894 
L 1669 -841 
L 875 -841 
L 875 1759 
Q 631 1150 275 559 
Q 213 991 75 1703 
z
M 6075 3284 
L 6075 2541 
Q 5859 1506 5225 678 
Q 5719 228 6319 -3 
Q 5963 -466 5756 -791 
Q 5153 -409 4675 72 
Q 4122 -450 3363 -872 
Q 3106 -453 2844 -103 
Q 3597 269 4116 731 
Q 3663 1356 3375 2113 
Q 3169 213 2263 -847 
Q 1969 -428 1681 -116 
Q 2056 278 2293 889 
Q 2531 1500 2622 2248 
Q 2713 2997 2719 4222 
L 2281 4222 
L 2281 4991 
L 5688 4991 
L 5688 4272 
L 5206 3284 
L 6075 3284 
z
M 3538 3703 
Q 3966 2238 4650 1316 
Q 5059 1869 5194 2528 
L 4288 2528 
L 4288 3284 
L 4725 4222 
L 3544 4222 
L 3538 3703 
z
" transform="scale(0.015625)"/>
      <path id="MicrosoftYaHei-Bold-2192" d="M 4859 3766 
Q 5241 3344 5514 3125 
Q 5788 2906 6150 2713 
L 6150 2572 
Q 5788 2381 5517 2164 
Q 5247 1947 4859 1519 
L 4622 1519 
Q 4766 1822 4866 1983 
Q 4966 2144 5141 2369 
L 247 2369 
L 247 2916 
L 5141 2916 
Q 4972 3131 4869 3298 
Q 4766 3466 4622 3766 
L 4859 3766 
z
" transform="scale(0.015625)"/>
     </defs>
     <use xlink:href="#MicrosoftYaHei-Bold-4e"/>
     <use xlink:href="#MicrosoftYaHei-Bold-6781" transform="translate(84.814453 0)"/>
     <use xlink:href="#MicrosoftYaHei-Bold-2192" transform="translate(184.814453 0)"/>
     <use xlink:href="#MicrosoftYaHei-Bold-53" transform="translate(284.814453 0)"/>
     <use xlink:href="#MicrosoftYaHei-Bold-6781" transform="translate(344.970703 0)"/>
    </g>
    <!-- （外部） -->
    <g style="fill: #e67e22" transform="translate(68.76 248.819125) scale(0.1 -0.1)">
     <defs>
      <path id="MicrosoftYaHei-Bold-ff08" d="M 5197 -1088 
Q 4056 184 4056 1881 
Q 4056 3616 5203 4838 
L 6034 4838 
Q 4922 3503 4922 1888 
Q 4922 266 6028 -1088 
L 5197 -1088 
z
" transform="scale(0.015625)"/>
      <path id="MicrosoftYaHei-Bold-5916" d="M 3419 4359 
L 3419 3578 
Q 3031 697 831 -884 
Q 450 -422 206 -184 
Q 1131 469 1706 1319 
Q 1372 1638 969 1991 
L 1469 2609 
Q 1834 2319 2128 2069 
Q 2441 2747 2563 3528 
L 1628 3528 
Q 1172 2406 475 1516 
Q 213 2128 44 2416 
Q 925 3616 1281 5359 
L 2150 5209 
Q 2050 4769 1925 4359 
L 3419 4359 
z
M 4956 3603 
Q 5800 2659 6363 1916 
L 5663 1347 
Q 5141 2097 4625 2731 
L 4625 -853 
L 3750 -853 
L 3750 5297 
L 4625 5297 
L 4625 3347 
L 4956 3603 
z
" transform="scale(0.015625)"/>
      <path id="MicrosoftYaHei-Bold-90e8" d="M 3488 3941 
L 2666 3941 
L 3344 3666 
Q 3141 3347 2903 3003 
L 3625 3003 
L 3625 2303 
L 119 2303 
L 119 3003 
L 866 3003 
Q 684 3284 450 3591 
L 1059 3941 
L 263 3941 
L 263 4641 
L 1475 4641 
Q 1375 4931 1256 5191 
L 2194 5347 
Q 2316 5028 2422 4641 
L 3488 4641 
L 3488 3941 
z
M 1706 3241 
L 1278 3003 
L 1969 3003 
Q 2278 3475 2484 3941 
L 1159 3941 
Q 1525 3522 1706 3241 
z
M 5500 2716 
Q 6294 1922 6294 997 
Q 6294 481 6017 192 
Q 5741 -97 4875 -84 
Q 4831 359 4719 816 
Q 4959 778 5066 778 
Q 5450 778 5450 1159 
Q 5450 1859 4700 2641 
Q 5025 3409 5313 4291 
L 4631 4291 
L 4631 -847 
L 3831 -847 
L 3831 5016 
L 6175 5016 
L 6175 4416 
Q 5956 3816 5500 2716 
z
M 400 -703 
L 400 1828 
L 3344 1828 
L 3344 -666 
L 2556 -666 
L 2556 -347 
L 1188 -347 
L 1188 -703 
L 400 -703 
z
M 2556 1128 
L 1188 1128 
L 1188 353 
L 2556 353 
L 2556 1128 
z
" transform="scale(0.015625)"/>
      <path id="MicrosoftYaHei-Bold-ff09" d="M 1191 -1088 
L 359 -1088 
Q 1472 238 1472 1863 
Q 1472 3478 366 4838 
L 1197 4838 
Q 2338 3572 2338 1863 
Q 2338 125 1191 -1088 
z
" transform="scale(0.015625)"/>
     </defs>
     <use xlink:href="#MicrosoftYaHei-Bold-ff08"/>
     <use xlink:href="#MicrosoftYaHei-Bold-5916" transform="translate(100 0)"/>
     <use xlink:href="#MicrosoftYaHei-Bold-90e8" transform="translate(200 0)"/>
     <use xlink:href="#MicrosoftYaHei-Bold-ff09" transform="translate(300 0)"/>
    </g>
   </g>
   <g id="text_4">
    <!-- 条形磁铁磁感线 -->
    <g style="fill: #9b59b6" transform="translate(115.6 17.591875) scale(0.13 -0.13)">
     <defs>
      <path id="MicrosoftYaHei-Bold-6761" d="M 5581 4797 
L 5581 4122 
Q 5034 3575 4253 3166 
Q 5059 3006 6244 2959 
Q 6069 2566 5906 2128 
Q 4203 2316 3169 2703 
Q 2028 2300 494 2091 
Q 331 2497 156 2872 
Q 1306 2963 2216 3184 
Q 1831 3434 1506 3753 
Q 1109 3422 656 3147 
Q 444 3434 150 3778 
Q 1381 4478 1956 5328 
L 2900 5328 
Q 2719 5050 2519 4797 
L 5581 4797 
z
M 3197 3491 
Q 3850 3747 4331 4103 
L 2203 4103 
Q 2672 3731 3197 3491 
z
M 425 1891 
L 2781 1891 
L 2781 2378 
L 3688 2378 
L 3688 1891 
L 6000 1891 
L 6000 1166 
L 3688 1166 
L 3688 191 
Q 3688 -194 3530 -422 
Q 3372 -650 3098 -715 
Q 2825 -781 1981 -791 
Q 1894 -341 1775 84 
Q 2163 53 2444 53 
Q 2781 53 2781 441 
L 2781 1166 
L 1763 1166 
L 2338 572 
Q 1481 -28 594 -609 
Q 356 -222 125 91 
Q 997 572 1734 1166 
L 425 1166 
L 425 1891 
z
M 4031 584 
L 4550 1147 
Q 5406 647 6263 47 
L 5725 -609 
L 4031 584 
z
" transform="scale(0.015625)"/>
      <path id="MicrosoftYaHei-Bold-5f62" d="M 5488 5322 
L 6100 4797 
Q 5244 3897 4169 3209 
Q 3900 3591 3569 3934 
Q 4719 4497 5488 5322 
z
M 150 2797 
L 806 2797 
L 806 4216 
L 288 4216 
L 288 4966 
L 3744 4966 
L 3744 4216 
L 3188 4216 
L 3188 2797 
L 3894 2797 
L 3894 2094 
Q 4859 2678 5631 3547 
L 6244 3003 
Q 5325 2003 4188 1241 
Q 3944 1566 3594 1922 
Q 3706 1981 3816 2047 
L 3188 2047 
L 3188 -759 
L 2363 -759 
L 2363 2047 
L 1619 2047 
Q 1528 56 781 -872 
Q 375 -434 75 -172 
Q 725 528 797 2047 
L 150 2047 
L 150 2797 
z
M 1631 2797 
L 2363 2797 
L 2363 4216 
L 1631 4216 
L 1631 2797 
z
M 5669 1659 
L 6319 1134 
Q 5225 -141 3931 -872 
Q 3644 -453 3350 -91 
Q 4688 559 5669 1659 
z
" transform="scale(0.015625)"/>
      <path id="MicrosoftYaHei-Bold-78c1" d="M 156 4753 
L 2288 4753 
L 2288 4303 
L 3219 4303 
Q 2969 4722 2788 4991 
L 3400 5341 
Q 3606 5103 3994 4566 
L 3513 4303 
L 4381 4303 
Q 4788 4872 5056 5341 
L 5831 4903 
Q 5575 4609 5313 4303 
L 6325 4303 
L 6325 3484 
L 5394 3484 
Q 5088 2778 4863 2178 
Q 4975 2184 5163 2203 
Q 5313 2566 5481 2991 
L 6188 2759 
Q 5769 1903 5356 1053 
L 5894 1184 
Q 6050 666 6294 -628 
L 5650 -753 
Q 5613 -547 5575 -359 
Q 4931 -403 4400 -466 
L 4156 191 
Q 4438 422 4900 1591 
Q 4488 1553 4281 1503 
L 4056 2059 
Q 4331 2372 4663 3484 
L 3575 3484 
Q 3250 2766 2919 2228 
Q 3081 2234 3231 2247 
Q 3394 2622 3575 3059 
L 4294 2809 
Q 3906 1959 3400 997 
L 3975 1097 
Q 4019 866 4244 -678 
L 3594 -747 
Q 3563 -522 3544 -359 
Q 2788 -453 2388 -528 
L 2138 234 
Q 2394 378 2950 1622 
Q 2569 1584 2313 1553 
L 2100 2122 
L 2100 -641 
L 1463 -641 
L 1463 -372 
L 1050 -372 
L 1050 -722 
L 413 -722 
L 413 1441 
Q 313 1272 213 1109 
Q 113 2016 75 2291 
Q 394 2922 694 3934 
L 156 3934 
L 156 4753 
z
M 2881 3484 
L 2238 3484 
L 2238 3934 
L 1456 3934 
Q 1294 3397 1100 2916 
L 2100 2916 
L 2100 2222 
Q 2406 2422 2881 3484 
z
M 1463 328 
L 1463 2216 
L 1050 2216 
L 1050 328 
L 1463 328 
z
M 5313 947 
Q 5100 528 4913 234 
Q 5106 253 5444 284 
Q 5369 678 5313 947 
z
M 3450 278 
Q 3400 628 3356 903 
Q 3175 566 2981 216 
Q 3281 253 3450 278 
z
" transform="scale(0.015625)"/>
      <path id="MicrosoftYaHei-Bold-94c1" d="M 2413 3866 
L 1166 3866 
Q 1069 3628 963 3409 
L 2263 3409 
L 2263 2703 
L 1663 2703 
L 1663 2072 
L 2388 2072 
L 2388 1366 
L 1663 1366 
L 1663 597 
Q 1988 797 2363 1041 
Q 2375 641 2431 216 
Q 1463 -422 1113 -797 
L 663 -178 
Q 850 59 850 397 
L 850 1366 
L 131 1366 
L 131 2072 
L 850 2072 
L 850 2703 
L 578 2703 
Q 450 2494 313 2303 
Q 200 2859 81 3303 
Q 594 4247 831 5341 
L 1619 5178 
Q 1528 4863 1428 4566 
L 2413 4566 
L 2413 3866 
z
M 2513 2516 
L 3891 2516 
Q 3925 2753 3959 3428 
L 3378 3428 
Q 3253 3050 3106 2678 
L 2325 2984 
Q 2769 4009 2994 5003 
L 3775 4822 
Q 3700 4506 3613 4191 
L 3981 4191 
Q 3994 4700 3994 5297 
L 4831 5297 
Q 4831 4722 4822 4191 
L 6100 4191 
L 6100 3428 
L 4803 3428 
L 4766 2516 
L 6275 2516 
L 6275 1753 
L 4888 1753 
Q 5347 628 6325 -3 
Q 6056 -384 5788 -834 
Q 4825 -122 4378 1084 
Q 3994 -47 2888 -878 
Q 2500 -491 2156 -222 
Q 3438 641 3731 1753 
L 2513 1753 
L 2513 2516 
z
" transform="scale(0.015625)"/>
      <path id="MicrosoftYaHei-Bold-611f" d="M 631 4766 
L 3769 4766 
Q 3756 5034 3750 5328 
L 4538 5328 
Q 4544 5034 4559 4766 
L 5006 4766 
Q 4903 4963 4806 5122 
L 5506 5316 
Q 5700 4981 5816 4766 
L 6225 4766 
L 6225 4053 
L 4613 4053 
Q 4672 3406 4778 2934 
Q 5050 3341 5275 3816 
L 5919 3441 
Q 5516 2691 5059 2113 
Q 5206 1828 5350 1828 
Q 5472 1828 5531 2051 
Q 5591 2275 5663 2628 
Q 6006 2416 6338 2278 
Q 6169 1572 6019 1326 
Q 5869 1081 5616 1000 
Q 5988 516 6313 -22 
L 5613 -447 
Q 5269 184 4894 728 
L 5313 966 
Q 4838 988 4494 1475 
Q 4278 1263 4050 1084 
Q 3841 1344 3669 1525 
L 3669 1403 
L 3309 1403 
Q 3634 1019 3938 628 
L 3313 191 
Q 3050 597 2625 1128 
L 3053 1403 
L 1613 1403 
L 1613 2947 
L 3669 2947 
L 3669 1725 
Q 3922 1925 4150 2159 
Q 3916 2816 3813 4053 
L 1413 4053 
L 1413 3266 
Q 1413 1950 972 1144 
L 1525 941 
Q 1231 209 838 -578 
L 113 -234 
Q 438 397 631 897 
Q 338 1188 75 1384 
Q 631 2022 631 3347 
L 631 4766 
z
M 2981 1966 
L 2981 2384 
L 2300 2384 
L 2300 1966 
L 2981 1966 
z
M 3681 3222 
L 1594 3222 
L 1594 3778 
L 3681 3778 
L 3681 3222 
z
M 4244 791 
Q 4638 547 5044 391 
Q 4781 -409 4517 -571 
Q 4253 -734 3844 -734 
L 2525 -734 
Q 1594 -734 1594 53 
L 1594 1059 
L 2419 1059 
L 2419 266 
Q 2419 -28 2763 -28 
L 3588 -28 
Q 3909 -28 4040 112 
Q 4172 253 4244 791 
z
" transform="scale(0.015625)"/>
      <path id="MicrosoftYaHei-Bold-7ebf" d="M 225 -528 
L 63 347 
Q 1188 491 2369 678 
Q 2353 481 2350 256 
Q 3069 481 3691 806 
Q 3550 1250 3466 1859 
L 2413 1734 
L 2306 2491 
L 3384 2619 
L 3347 3244 
L 2525 3159 
L 2488 3494 
Q 1859 2456 1356 1778 
Q 1919 1859 2294 1928 
Q 2263 1672 2231 1147 
Q 888 972 431 847 
L 200 1547 
Q 597 1922 1075 2641 
Q 738 2613 294 2566 
L 63 3278 
Q 581 3916 1194 5322 
L 1988 5009 
Q 1438 4034 1000 3353 
Q 1234 3356 1531 3372 
Q 1700 3663 1881 3991 
L 2466 3716 
L 2444 3922 
L 3303 4006 
L 3250 5303 
L 4094 5303 
Q 4103 4669 4128 4088 
L 5219 4194 
Q 4844 4469 4350 4778 
L 4756 5316 
Q 5263 5041 5769 4716 
L 5388 4213 
L 5988 4272 
L 6063 3522 
L 4169 3328 
L 4216 2716 
L 6156 2947 
L 6238 2197 
L 5484 2106 
L 6038 1666 
Q 5431 1003 4731 509 
Q 4991 100 5203 100 
Q 5316 100 5387 251 
Q 5459 403 5581 1047 
Q 6013 822 6313 684 
Q 6072 -288 5839 -564 
Q 5606 -841 5300 -841 
Q 4503 -841 4006 56 
Q 3259 -353 2419 -597 
Q 2325 -400 2200 -178 
Q 1084 -353 225 -528 
z
M 5413 2097 
L 4309 1963 
Q 4369 1603 4447 1266 
Q 4972 1638 5413 2097 
z
" transform="scale(0.015625)"/>
     </defs>
     <use xlink:href="#MicrosoftYaHei-Bold-6761"/>
     <use xlink:href="#MicrosoftYaHei-Bold-5f62" transform="translate(100 0)"/>
     <use xlink:href="#MicrosoftYaHei-Bold-78c1" transform="translate(200 0)"/>
     <use xlink:href="#MicrosoftYaHei-Bold-94c1" transform="translate(300 0)"/>
     <use xlink:href="#MicrosoftYaHei-Bold-78c1" transform="translate(400 0)"/>
     <use xlink:href="#MicrosoftYaHei-Bold-611f" transform="translate(500 0)"/>
     <use xlink:href="#MicrosoftYaHei-Bold-7ebf" transform="translate(600 0)"/>
    </g>
   </g>
  </g>
  <g id="axes_2">
   <g id="patch_4">
    <path d="M 479.7 198.768625 
C 504.188854 198.768625 527.678005 193.494989 544.99424 184.109173 
C 562.310475 174.723357 572.04 161.991673 572.04 148.718125 
C 572.04 135.444577 562.310475 122.712893 544.99424 113.327077 
C 527.678005 103.941261 504.188854 98.667625 479.7 98.667625 
C 455.211146 98.667625 431.721995 103.941261 414.40576 113.327077 
C 397.089525 122.712893 387.36 135.444577 387.36 148.718125 
C 387.36 161.991673 397.089525 174.723357 414.40576 184.109173 
C 431.721995 193.494989 455.211146 198.768625 479.7 198.768625 
L 479.7 198.768625 
z
" clip-path="url(#p20b28333e1)" style="fill: none; stroke: #555555; stroke-width: 2; stroke-linejoin: miter"/>
   </g>
   <g id="patch_5">
    <path d="M 572.04 148.718125 
C 572.04 135.448998 562.304708 122.709767 544.99424 113.327077 
C 527.683772 103.944387 504.180698 98.667625 479.7 98.667625 
C 455.219302 98.667625 431.716228 103.944387 414.40576 113.327077 
C 397.095292 122.709767 387.36 135.448998 387.36 148.718125 
" clip-path="url(#p20b28333e1)" style="fill: none; stroke: #555555; stroke-width: 1.5; stroke-linejoin: miter"/>
   </g>
   <g id="patch_6">
    <path d="M 556.65 148.718125 
C 556.65 137.439367 548.537257 126.61102 534.111867 118.635734 
C 519.686477 110.660448 500.100582 106.1752 479.7 106.1752 
C 459.299418 106.1752 439.713523 110.660448 425.288133 118.635734 
C 410.862743 126.61102 402.75 137.439367 402.75 148.718125 
" clip-path="url(#p20b28333e1)" style="fill: none; stroke: #555555; stroke-width: 1.5; stroke-linejoin: miter"/>
   </g>
   <g id="patch_7">
    <path d="M 541.26 148.718125 
C 541.26 139.429736 534.769805 130.512274 523.229493 123.944391 
C 511.689182 117.376509 496.020465 113.682775 479.7 113.682775 
C 463.379535 113.682775 447.710818 117.376509 436.170507 123.944391 
C 424.630195 130.512274 418.14 139.429736 418.14 148.718125 
" clip-path="url(#p20b28333e1)" style="fill: none; stroke: #555555; stroke-width: 1.5; stroke-linejoin: miter"/>
   </g>
   <g id="patch_8">
    <path d="M 525.87 148.718125 
C 525.87 141.420105 521.002354 134.413528 512.34712 129.253049 
C 503.691886 124.092569 491.940349 121.19035 479.7 121.19035 
C 467.459651 121.19035 455.708114 124.092569 447.05288 129.253049 
C 438.397646 134.413528 433.53 141.420105 433.53 148.718125 
" clip-path="url(#p20b28333e1)" style="fill: none; stroke: #555555; stroke-width: 1.5; stroke-linejoin: miter"/>
   </g>
   <g id="patch_9">
    <path d="M 479.7 121.691955 
Q 479.7 98.665754 479.7 77.875621 
" style="fill: none; stroke: #c0392b; stroke-width: 2; stroke-linecap: round"/>
    <path d="M 477.7 81.875621 
L 479.7 77.875621 
L 481.7 81.875621 
" style="fill: none; stroke: #c0392b; stroke-width: 2; stroke-linecap: round"/>
   </g>
   <g id="text_5">
    <!-- N极 -->
    <g style="fill: #c0392b" transform="translate(495.09 86.155) scale(0.11 -0.11)">
     <use xlink:href="#MicrosoftYaHei-Bold-4e"/>
     <use xlink:href="#MicrosoftYaHei-Bold-6781" transform="translate(84.814453 0)"/>
    </g>
   </g>
   <g id="text_6">
    <g id="patch_10">
     <path d="M 387.36 248.748606 
L 453.36 248.748606 
Q 455.56 248.748606 455.56 246.548606 
L 455.56 235.02095 
Q 455.56 232.82095 453.36 232.82095 
L 387.36 232.82095 
Q 385.16 232.82095 385.16 235.02095 
L 385.16 246.548606 
Q 385.16 248.748606 387.36 248.748606 
z
" style="fill: #f3e8ff; opacity: 0.7; stroke: #9b59b6; stroke-linejoin: miter"/>
    </g>
    <!-- 右手螺旋定则 -->
    <g style="fill: #9b59b6" transform="translate(387.36 243.814075) scale(0.11 -0.11)">
     <defs>
      <path id="MicrosoftYaHei-Bold-53f3" d="M 1425 -822 
L 1425 1591 
Q 941 1069 375 616 
Q 250 1234 144 1597 
Q 1244 2531 1913 3653 
L 213 3653 
L 213 4491 
L 2341 4491 
Q 2513 4894 2638 5316 
L 3563 5191 
Q 3438 4831 3291 4491 
L 6188 4491 
L 6188 3653 
L 2888 3653 
Q 2622 3150 2303 2691 
L 5738 2691 
L 5738 -809 
L 4850 -809 
L 4850 -434 
L 2313 -434 
L 2313 -822 
L 1425 -822 
z
M 4850 1866 
L 2313 1866 
L 2313 391 
L 4850 391 
L 4850 1866 
z
" transform="scale(0.015625)"/>
      <path id="MicrosoftYaHei-Bold-624b" d="M 106 1891 
L 2863 1891 
L 2863 2641 
L 563 2641 
L 563 3466 
L 2863 3466 
L 2863 4200 
L 681 4128 
Q 613 4459 475 4972 
Q 3881 5016 5663 5153 
L 5938 4328 
L 3806 4234 
L 3806 3466 
L 5850 3466 
L 5850 2641 
L 3806 2641 
L 3806 1891 
L 6300 1891 
L 6300 1047 
L 3806 1047 
L 3806 291 
Q 3806 -9 3692 -243 
Q 3578 -478 3354 -597 
Q 3131 -716 2976 -742 
Q 2822 -769 1638 -791 
Q 1525 -259 1425 153 
Q 2069 103 2419 103 
Q 2863 103 2863 566 
L 2863 1047 
L 106 1047 
L 106 1891 
z
" transform="scale(0.015625)"/>
      <path id="MicrosoftYaHei-Bold-87ba" d="M 81 447 
Q 563 478 994 522 
L 994 1591 
L 731 1591 
L 731 1253 
L 263 1253 
L 263 4328 
L 994 4328 
L 994 5303 
L 1644 5303 
L 1644 4328 
L 2375 4328 
L 2375 1591 
L 1644 1591 
L 1644 591 
Q 1775 603 1900 622 
Q 1850 841 1800 1053 
L 2288 1172 
Q 2438 603 2556 103 
Q 2919 328 3256 597 
Q 2969 566 2800 541 
L 2581 1241 
Q 3088 1416 3675 1734 
Q 3206 1703 2938 1659 
L 2713 2241 
Q 3175 2441 3606 2734 
L 2644 2734 
L 2644 5103 
L 6088 5103 
L 6088 2734 
L 5394 2734 
L 5844 2328 
Q 4913 1741 3844 1203 
Q 4513 1259 5106 1316 
Q 5013 1434 4906 1578 
L 5406 1916 
Q 5756 1566 6369 853 
L 5813 428 
Q 5738 516 5531 772 
Q 5100 747 4744 722 
L 4744 -59 
Q 4744 -703 4175 -803 
Q 3969 -834 3381 -834 
Q 3344 -509 3275 -172 
Q 2875 -472 2506 -716 
Q 2450 -622 2388 -522 
L 2175 -591 
Q 2119 -328 2063 -72 
Q 1125 -203 163 -378 
L 81 447 
z
M 5213 647 
Q 5844 234 6375 -159 
L 5944 -728 
Q 5488 -328 4813 153 
L 5213 647 
z
M 3850 -134 
Q 4050 -134 4050 159 
L 4050 672 
Q 3644 641 3350 609 
L 3744 191 
Q 3550 34 3356 -116 
Q 3594 -128 3850 -134 
z
M 1906 2228 
L 1906 3691 
L 1644 3691 
L 1644 2228 
L 1906 2228 
z
M 731 2228 
L 994 2228 
L 994 3691 
L 731 3691 
L 731 2228 
z
M 5213 2734 
L 4550 2734 
L 4600 2697 
Q 4188 2459 3731 2216 
Q 4150 2241 4538 2259 
Q 4863 2478 5213 2734 
z
M 5394 3284 
L 5394 3678 
L 4725 3678 
L 4725 3284 
L 5394 3284 
z
M 3338 3284 
L 4006 3284 
L 4006 3678 
L 3338 3678 
L 3338 3284 
z
M 5394 4553 
L 4725 4553 
L 4725 4159 
L 5394 4159 
L 5394 4553 
z
M 3338 4159 
L 4006 4159 
L 4006 4553 
L 3338 4553 
L 3338 4159 
z
" transform="scale(0.015625)"/>
      <path id="MicrosoftYaHei-Bold-65cb" d="M 3419 5347 
L 4200 5147 
Q 4100 4900 3994 4672 
L 6269 4672 
L 6269 3941 
L 3609 3941 
Q 3447 3663 3269 3416 
L 6213 3416 
L 6213 2753 
L 5831 1972 
Q 5619 2078 5100 2228 
L 5350 2741 
L 4838 2741 
L 4838 1759 
L 6056 1759 
L 6056 1084 
L 4838 1084 
L 4838 63 
Q 5300 41 6325 53 
Q 6269 -166 6169 -709 
Q 5725 -725 5029 -709 
Q 4334 -694 3965 -486 
Q 3597 -278 3363 28 
Q 3197 -519 2931 -891 
Q 2681 -634 2338 -372 
Q 2675 128 2794 640 
Q 2913 1153 2919 2253 
L 3631 2253 
Q 3631 1478 3541 856 
Q 3766 531 4069 334 
L 4069 2741 
L 2856 2741 
L 2856 3188 
Q 2666 3347 2453 3497 
L 1328 3497 
L 1319 2828 
L 2531 2828 
L 2466 928 
Q 2431 34 2312 -183 
Q 2194 -400 2059 -528 
Q 1925 -656 1100 -672 
Q 1025 -266 947 41 
Q 763 -466 488 -853 
Q 356 -547 56 53 
Q 581 969 581 2394 
L 603 3497 
L 150 3497 
L 150 4316 
L 1122 4316 
Q 950 4772 788 5103 
L 1556 5347 
Q 1738 4972 1963 4434 
L 1606 4316 
L 2556 4316 
L 2556 3791 
Q 3075 4447 3419 5347 
z
M 981 141 
Q 1231 128 1419 128 
Q 1697 128 1733 495 
Q 1769 863 1788 2078 
L 1303 2078 
Q 1256 956 981 141 
z
" transform="scale(0.015625)"/>
      <path id="MicrosoftYaHei-Bold-5b9a" d="M 2581 5128 
L 3538 5353 
Q 3666 5028 3806 4634 
L 6063 4634 
L 6063 3403 
L 5200 3403 
L 5200 3872 
L 1225 3872 
L 1225 3403 
L 363 3403 
L 363 4634 
L 2772 4634 
L 2581 5128 
z
M 5831 1741 
L 5831 972 
L 3744 972 
L 3744 125 
Q 4766 103 6313 147 
Q 6138 -372 6044 -697 
Q 3819 -697 2809 -630 
Q 1800 -563 1388 219 
Q 1069 -425 613 -859 
Q 331 -441 94 -134 
Q 875 659 1094 2122 
L 1931 2022 
Q 1850 1541 1728 1122 
Q 2047 300 2850 175 
L 2850 2416 
L 263 2416 
L 263 3184 
L 6156 3184 
L 6156 2416 
L 3744 2416 
L 3744 1741 
L 5831 1741 
z
" transform="scale(0.015625)"/>
      <path id="MicrosoftYaHei-Bold-5219" d="M 3869 4641 
L 4669 4641 
L 4669 647 
L 3869 647 
L 3869 4641 
z
M 5144 5253 
L 5981 5253 
L 5981 184 
Q 5981 -778 5225 -803 
Q 4556 -841 4194 -834 
Q 4144 -559 3975 47 
Q 4506 34 4775 34 
Q 5144 34 5144 409 
L 5144 5253 
z
M 388 5059 
L 3388 5059 
L 3388 1091 
L 2625 1091 
L 2625 4328 
L 1150 4328 
L 1150 1078 
L 388 1078 
L 388 5059 
z
M 2200 1259 
Q 3075 528 3694 -84 
L 3088 -634 
Q 2619 -84 1956 534 
Q 1563 -297 681 -891 
Q 469 -628 94 -197 
Q 1500 516 1500 2216 
L 1500 4066 
L 2275 4066 
L 2275 2041 
Q 2275 1603 2200 1259 
z
" transform="scale(0.015625)"/>
     </defs>
     <use xlink:href="#MicrosoftYaHei-Bold-53f3"/>
     <use xlink:href="#MicrosoftYaHei-Bold-624b" transform="translate(100 0)"/>
     <use xlink:href="#MicrosoftYaHei-Bold-87ba" transform="translate(200 0)"/>
     <use xlink:href="#MicrosoftYaHei-Bold-65cb" transform="translate(300 0)"/>
     <use xlink:href="#MicrosoftYaHei-Bold-5b9a" transform="translate(400 0)"/>
     <use xlink:href="#MicrosoftYaHei-Bold-5219" transform="translate(500 0)"/>
    </g>
   </g>
   <g id="text_7">
    <!-- 安培定则（右手螺旋） -->
    <g style="fill: #9b59b6" transform="translate(414.7 17.591875) scale(0.13 -0.13)">
     <defs>
      <path id="MicrosoftYaHei-Bold-5b89" d="M 2581 5134 
L 3613 5341 
L 3850 4672 
L 6069 4672 
L 6069 3309 
L 5163 3309 
L 5163 3897 
L 1263 3897 
L 1263 3334 
L 356 3334 
L 356 4672 
L 2756 4672 
Q 2669 4916 2581 5134 
z
M 113 2847 
L 2006 2847 
Q 2222 3303 2413 3784 
L 3419 3522 
L 3050 2847 
L 6294 2847 
L 6294 2059 
L 5156 2059 
Q 4863 1197 4328 647 
L 6125 -34 
L 5675 -872 
L 3547 59 
Q 2484 -528 550 -847 
Q 294 -328 106 -9 
Q 1584 172 2488 506 
Q 1663 844 1006 1091 
Q 1322 1556 1600 2059 
L 113 2059 
L 113 2847 
z
M 2219 1434 
L 3413 991 
Q 3894 1369 4153 2059 
L 2600 2059 
Q 2400 1719 2219 1434 
z
" transform="scale(0.015625)"/>
      <path id="MicrosoftYaHei-Bold-57f9" d="M 2194 2941 
L 3084 2941 
Q 2853 3388 2700 3634 
L 3313 3941 
L 2363 3941 
L 2363 4691 
L 3813 4691 
Q 3709 4963 3594 5203 
L 4531 5359 
Q 4647 5066 4769 4691 
L 6138 4691 
L 6138 3941 
L 5128 3941 
L 5806 3628 
Q 5606 3309 5353 2941 
L 6294 2941 
L 6294 2191 
L 2194 2191 
L 2194 2941 
z
M 3981 3172 
L 3503 2941 
L 4406 2941 
Q 4703 3438 4947 3941 
L 3497 3941 
Q 3716 3613 3981 3172 
z
M 244 -291 
L 81 647 
L 781 825 
L 781 3016 
L 150 3016 
L 150 3872 
L 781 3872 
L 781 5328 
L 1644 5328 
L 1644 3872 
L 2244 3872 
L 2244 3016 
L 1644 3016 
L 1644 1053 
L 2325 1241 
Q 2306 841 2325 353 
Q 1150 28 244 -291 
z
M 2513 -822 
L 2513 1791 
L 5988 1791 
L 5988 -822 
L 5163 -822 
L 5163 -497 
L 3338 -497 
L 3338 -822 
L 2513 -822 
z
M 5163 1053 
L 3338 1053 
L 3338 241 
L 5163 241 
L 5163 1053 
z
" transform="scale(0.015625)"/>
     </defs>
     <use xlink:href="#MicrosoftYaHei-Bold-5b89"/>
     <use xlink:href="#MicrosoftYaHei-Bold-57f9" transform="translate(100 0)"/>
     <use xlink:href="#MicrosoftYaHei-Bold-5b9a" transform="translate(200 0)"/>
     <use xlink:href="#MicrosoftYaHei-Bold-5219" transform="translate(300 0)"/>
     <use xlink:href="#MicrosoftYaHei-Bold-ff08" transform="translate(400 0)"/>
     <use xlink:href="#MicrosoftYaHei-Bold-53f3" transform="translate(500 0)"/>
     <use xlink:href="#MicrosoftYaHei-Bold-624b" transform="translate(600 0)"/>
     <use xlink:href="#MicrosoftYaHei-Bold-87ba" transform="translate(700 0)"/>
     <use xlink:href="#MicrosoftYaHei-Bold-65cb" transform="translate(800 0)"/>
     <use xlink:href="#MicrosoftYaHei-Bold-ff09" transform="translate(900 0)"/>
    </g>
   </g>
  </g>
 </g>
 <defs>
  <clipPath id="pdef20e50c0">
   <rect x="7.2" y="23.591875" width="307.8" height="250.2525"/>
  </clipPath>
  <clipPath id="p20b28333e1">
   <rect x="325.8" y="23.591875" width="307.8" height="250.2525"/>
  </clipPath>
 </defs>
</svg>
