<?xml version="1.0" encoding="utf-8" standalone="no"?>
<!DOCTYPE svg PUBLIC "-//W3C//DTD SVG 1.1//EN"
  "http://www.w3.org/Graphics/SVG/1.1/DTD/svg11.dtd">
<svg xmlns:xlink="http://www.w3.org/1999/xlink" width="641.494844pt" height="266.072188pt" viewBox="0 0 641.494844 266.072188" xmlns="http://www.w3.org/2000/svg" version="1.1">
 <metadata>
  <rdf:RDF xmlns:dc="http://purl.org/dc/elements/1.1/" xmlns:cc="http://creativecommons.org/ns#" xmlns:rdf="http://www.w3.org/1999/02/22-rdf-syntax-ns#">
   <cc:Work>
    <dc:type rdf:resource="http://purl.org/dc/dcmitype/StillImage"/>
    <dc:date>2026-05-22T14:45:24.292158</dc:date>
    <dc:format>image/svg+xml</dc:format>
    <dc:creator>
     <cc:Agent>
      <dc:title>Matplotlib v3.10.9, https://matplotlib.org/</dc:title>
     </cc:Agent>
    </dc:creator>
   </cc:Work>
  </rdf:RDF>
 </metadata>
 <defs>
  <style type="text/css">*{stroke-linejoin: round; stroke-linecap: butt}</style>
 </defs>
 <g id="figure_1">
  <g id="patch_1">
   <path d="M 0 266.072188 
L 641.494844 266.072188 
L 641.494844 0 
L 0 0 
L 0 266.072188 
z
" style="fill: none"/>
  </g>
  <g id="axes_1">
   <g id="patch_2">
    <path d="M 47.319844 241.3925 
L 318.619844 241.3925 
L 318.619844 22.7925 
L 47.319844 22.7925 
L 47.319844 241.3925 
z
" style="fill: none"/>
   </g>
   <g id="patch_3">
    <path d="M 59.651662 241.3925 
L 88.109704 241.3925 
L 88.109704 171.995675 
L 59.651662 171.995675 
z
" clip-path="url(#pb5d426670b)" style="fill: #c0392b; opacity: 0.8"/>
   </g>
   <g id="patch_4">
    <path d="M 154.511802 241.3925 
L 182.969844 241.3925 
L 182.969844 224.043294 
L 154.511802 224.043294 
z
" clip-path="url(#pb5d426670b)" style="fill: #c0392b; opacity: 0.8"/>
   </g>
   <g id="patch_5">
    <path d="M 249.371942 241.3925 
L 277.829984 241.3925 
L 277.829984 230.982976 
L 249.371942 230.982976 
z
" clip-path="url(#pb5d426670b)" style="fill: #c0392b; opacity: 0.8"/>
   </g>
   <g id="patch_6">
    <path d="M 88.109704 241.3925 
L 116.567746 241.3925 
L 116.567746 33.202024 
L 88.109704 33.202024 
z
" clip-path="url(#pb5d426670b)" style="fill: #3498db; opacity: 0.8"/>
   </g>
   <g id="patch_7">
    <path d="M 182.969844 241.3925 
L 211.427886 241.3925 
L 211.427886 224.043294 
L 182.969844 224.043294 
z
" clip-path="url(#pb5d426670b)" style="fill: #3498db; opacity: 0.8"/>
   </g>
   <g id="patch_8">
    <path d="M 277.829984 241.3925 
L 306.288026 241.3925 
L 306.288026 237.922659 
L 277.829984 237.922659 
z
" clip-path="url(#pb5d426670b)" style="fill: #3498db; opacity: 0.8"/>
   </g>
   <g id="matplotlib.axis_1">
    <g id="xtick_1">
     <g id="line2d_1">
      <defs>
       <path id="m8af00fcf36" d="M 0 0 
L 0 3.5 
" style="stroke: #000000; stroke-width: 0.8"/>
      </defs>
      <g>
       <use xlink:href="#m8af00fcf36" x="88.109704" y="241.3925" style="stroke: #000000; stroke-width: 0.8"/>
      </g>
     </g>
     <g id="text_1">
      <!-- 撬石头 -->
      <g transform="translate(73.109704 256.38625) scale(0.1 -0.1)">
       <defs>
        <path id="MicrosoftYaHei-64ac" d="M 1750 516 
L 2575 634 
L 2575 1103 
L 1900 1003 
L 1850 1353 
L 2575 1459 
L 2575 1922 
Q 2238 1866 1919 1822 
Q 1900 1959 1875 2091 
Q 1575 1997 1319 1916 
L 1319 -134 
Q 1325 -784 719 -784 
Q 513 -784 181 -778 
Q 156 -522 106 -259 
Q 394 -303 613 -303 
Q 875 -303 881 -22 
L 881 1772 
Q 450 1628 150 1522 
L 81 2022 
Q 406 2109 881 2247 
L 881 3603 
L 119 3603 
L 119 4041 
L 881 4041 
L 881 5241 
L 1319 5241 
L 1319 4041 
L 1950 4041 
L 1950 3603 
L 1319 3603 
L 1319 2378 
Q 1638 2484 2006 2603 
Q 2000 2359 2006 2184 
Q 2925 2316 3588 2453 
L 3656 2122 
Q 3306 2047 2975 1991 
L 2975 1522 
L 3650 1622 
L 3700 1272 
L 2975 1159 
L 2975 691 
L 3775 809 
L 3819 472 
L 2975 347 
L 2975 -203 
Q 3194 -134 3669 28 
Q 3656 -191 3675 -384 
Q 3319 -497 2825 -697 
Q 2594 -803 2513 -872 
L 2319 -453 
Q 2575 -303 2575 -28 
L 2575 284 
L 1794 172 
L 1750 516 
z
M 1969 3022 
L 1950 3384 
L 3675 3466 
L 3675 3872 
L 2231 3809 
L 2200 4147 
L 3675 4216 
L 3675 4597 
Q 2969 4566 2281 4547 
Q 2238 4766 2194 4903 
Q 4006 4941 5781 5072 
L 5838 4716 
Q 4956 4659 4100 4622 
L 4100 4234 
L 5775 4316 
L 5794 3972 
L 4100 3891 
L 4100 3491 
L 6244 3597 
L 6269 3241 
L 5794 3216 
Q 5975 3153 6156 3116 
Q 6106 2722 5931 2578 
Q 5769 2434 5338 2434 
L 4169 2434 
Q 3675 2434 3675 2941 
L 3675 3109 
L 1969 3022 
z
M 3869 428 
L 4688 528 
L 4688 941 
L 3950 853 
L 3906 1203 
L 4688 1297 
L 4688 1709 
Q 4344 1659 3969 1616 
Q 3944 1797 3906 1959 
Q 5106 2091 5881 2247 
L 5950 1916 
Q 5556 1841 5100 1766 
L 5100 1347 
L 6031 1466 
L 6069 1116 
L 5100 991 
L 5100 578 
L 6206 716 
L 6231 384 
L 5100 241 
L 5100 -134 
Q 5100 -334 5281 -334 
L 5700 -334 
Q 5856 -334 5888 -166 
Q 5913 16 5931 241 
Q 6113 172 6325 116 
Q 6275 -241 6244 -403 
Q 6163 -734 5794 -734 
L 5163 -734 
Q 4688 -734 4688 -241 
L 4688 191 
L 3906 91 
L 3869 428 
z
M 4313 2797 
L 5294 2797 
Q 5588 2797 5675 2884 
Q 5763 2966 5769 3216 
L 4100 3128 
L 4100 3016 
Q 4100 2797 4313 2797 
z
" transform="scale(0.015625)"/>
        <path id="MicrosoftYaHei-77f3" d="M 313 4841 
L 6175 4841 
L 6175 4378 
L 2881 4378 
Q 2525 3550 2022 2803 
L 5638 2803 
L 5638 -772 
L 5150 -772 
L 5150 -222 
L 1963 -222 
L 1963 -797 
L 1475 -797 
L 1475 2059 
Q 975 1444 369 891 
Q 244 1147 88 1366 
Q 1544 2622 2331 4378 
L 313 4378 
L 313 4841 
z
M 5150 2341 
L 1963 2341 
L 1963 241 
L 5150 241 
L 5150 2341 
z
" transform="scale(0.015625)"/>
        <path id="MicrosoftYaHei-5934" d="M 156 1903 
L 3263 1903 
Q 3363 3166 3363 5272 
L 3900 5272 
Q 3900 3441 3806 1903 
L 6244 1903 
L 6244 1453 
L 3719 1453 
Q 3675 1247 3575 1041 
Q 4831 409 6125 -322 
L 5806 -803 
Q 4519 3 3306 641 
Q 2556 -253 456 -884 
Q 344 -691 119 -391 
Q 2788 341 3150 1453 
L 156 1453 
L 156 1903 
z
M 775 3741 
Q 1663 3209 2394 2697 
L 2088 2266 
Q 1369 2803 494 3359 
L 775 3741 
z
M 1400 5084 
Q 2344 4509 2981 4059 
L 2669 3634 
Q 1831 4266 1131 4716 
L 1400 5084 
z
" transform="scale(0.015625)"/>
       </defs>
       <use xlink:href="#MicrosoftYaHei-64ac"/>
       <use xlink:href="#MicrosoftYaHei-77f3" transform="translate(100 0)"/>
       <use xlink:href="#MicrosoftYaHei-5934" transform="translate(200 0)"/>
      </g>
     </g>
    </g>
    <g id="xtick_2">
     <g id="line2d_2">
      <g>
       <use xlink:href="#m8af00fcf36" x="182.969844" y="241.3925" style="stroke: #000000; stroke-width: 0.8"/>
      </g>
     </g>
     <g id="text_2">
      <!-- 天平 -->
      <g transform="translate(172.969844 256.38625) scale(0.1 -0.1)">
       <defs>
        <path id="MicrosoftYaHei-5929" d="M 88 -353 
Q 2428 644 2813 2422 
L 169 2422 
L 169 2897 
L 2878 2897 
Q 2906 3341 2906 4428 
L 513 4428 
L 513 4903 
L 5913 4903 
L 5913 4428 
L 3456 4428 
Q 3450 3775 3431 2897 
L 6231 2897 
L 6231 2422 
L 3516 2422 
Q 4113 441 6319 -228 
Q 6063 -534 5888 -747 
Q 3850 75 3206 1969 
Q 2713 206 475 -828 
Q 344 -659 88 -353 
z
" transform="scale(0.015625)"/>
        <path id="MicrosoftYaHei-5e73" d="M 169 1934 
L 2938 1934 
L 2938 4547 
L 450 4547 
L 450 5028 
L 5975 5028 
L 5975 4547 
L 3463 4547 
L 3463 1934 
L 6250 1934 
L 6250 1453 
L 3463 1453 
L 3463 -847 
L 2938 -847 
L 2938 1453 
L 169 1453 
L 169 1934 
z
M 3950 2559 
Q 4638 3284 5188 4159 
L 5656 3859 
Q 4950 2891 4338 2234 
L 3950 2559 
z
M 769 3859 
L 1163 4134 
Q 1863 3316 2369 2553 
L 1925 2222 
Q 1444 3003 769 3859 
z
" transform="scale(0.015625)"/>
       </defs>
       <use xlink:href="#MicrosoftYaHei-5929"/>
       <use xlink:href="#MicrosoftYaHei-5e73" transform="translate(100 0)"/>
      </g>
     </g>
    </g>
    <g id="xtick_3">
     <g id="line2d_3">
      <g>
       <use xlink:href="#m8af00fcf36" x="277.829984" y="241.3925" style="stroke: #000000; stroke-width: 0.8"/>
      </g>
     </g>
     <g id="text_3">
      <!-- 钳子 -->
      <g transform="translate(267.829984 256.38625) scale(0.1 -0.1)">
       <defs>
        <path id="MicrosoftYaHei-94b3" d="M 2394 4203 
L 2813 4203 
L 2813 5291 
L 3288 5291 
L 3288 4203 
L 5200 4203 
L 5200 5291 
L 5675 5291 
L 5675 4203 
L 6250 4203 
L 6250 3753 
L 5675 3753 
L 5675 -809 
L 5200 -809 
L 5200 -341 
L 3288 -341 
L 3288 -809 
L 2813 -809 
L 2813 3753 
L 2394 3753 
L 2394 4203 
z
M 2306 584 
Q 2300 353 2338 66 
Q 1850 -172 1375 -466 
Q 1206 -578 1113 -678 
L 781 -247 
Q 981 -72 981 222 
L 981 1584 
L 144 1584 
L 144 2016 
L 981 2016 
L 981 2859 
L 563 2859 
L 563 3281 
Q 459 3128 350 2984 
Q 231 3222 88 3434 
Q 675 4228 1056 5341 
L 1506 5184 
Q 1350 4759 1172 4378 
L 2250 4378 
L 2250 3947 
L 956 3947 
Q 772 3597 566 3291 
L 2169 3291 
L 2169 2859 
L 1438 2859 
L 1438 2016 
L 2388 2016 
L 2388 1584 
L 1438 1584 
L 1438 97 
Q 1888 341 2306 584 
z
M 3288 97 
L 5200 97 
L 5200 1759 
L 3288 1759 
L 3288 97 
z
M 3288 2197 
L 5200 2197 
L 5200 3753 
L 3288 3753 
L 3288 2197 
z
" transform="scale(0.015625)"/>
        <path id="MicrosoftYaHei-5b50" d="M 125 2497 
L 3031 2497 
L 3031 3184 
L 4825 4491 
L 781 4491 
L 781 4959 
L 5656 4959 
L 5656 4472 
L 3563 2941 
L 3563 2497 
L 6300 2497 
L 6300 2028 
L 3563 2028 
L 3563 59 
Q 3563 -778 2688 -778 
Q 2400 -778 1700 -766 
Q 1675 -516 1625 -197 
Q 2081 -253 2588 -259 
Q 3031 -259 3031 191 
L 3031 2028 
L 125 2028 
L 125 2497 
z
" transform="scale(0.015625)"/>
       </defs>
       <use xlink:href="#MicrosoftYaHei-94b3"/>
       <use xlink:href="#MicrosoftYaHei-5b50" transform="translate(100 0)"/>
      </g>
     </g>
    </g>
   </g>
   <g id="matplotlib.axis_2">
    <g id="ytick_1">
     <g id="line2d_4">
      <path d="M 47.319844 241.3925 
L 318.619844 241.3925 
" clip-path="url(#pb5d426670b)" style="fill: none; stroke: #b0b0b0; stroke-opacity: 0.3; stroke-width: 0.8; stroke-linecap: square"/>
     </g>
     <g id="line2d_5">
      <defs>
       <path id="m57c3b983cc" d="M 0 0 
L -3.5 0 
" style="stroke: #000000; stroke-width: 0.8"/>
      </defs>
      <g>
       <use xlink:href="#m57c3b983cc" x="47.319844" y="241.3925" style="stroke: #000000; stroke-width: 0.8"/>
      </g>
     </g>
     <g id="text_4">
      <!-- 0 -->
      <g transform="translate(34.455781 245.389375) scale(0.1 -0.1)">
       <defs>
        <path id="MicrosoftYaHei-30" d="M 284 2325 
Q 284 3606 709 4264 
Q 1134 4922 1941 4922 
Q 3478 4922 3478 2441 
Q 3478 1216 3045 567 
Q 2613 -81 1831 -81 
Q 1094 -81 689 534 
Q 284 1150 284 2325 
z
M 909 2353 
Q 909 425 1888 425 
Q 2850 425 2850 2384 
Q 2850 4413 1906 4413 
Q 909 4413 909 2353 
z
" transform="scale(0.015625)"/>
       </defs>
       <use xlink:href="#MicrosoftYaHei-30"/>
      </g>
     </g>
    </g>
    <g id="ytick_2">
     <g id="line2d_6">
      <path d="M 47.319844 206.694087 
L 318.619844 206.694087 
" clip-path="url(#pb5d426670b)" style="fill: none; stroke: #b0b0b0; stroke-opacity: 0.3; stroke-width: 0.8; stroke-linecap: square"/>
     </g>
     <g id="line2d_7">
      <g>
       <use xlink:href="#m57c3b983cc" x="47.319844" y="206.694087" style="stroke: #000000; stroke-width: 0.8"/>
      </g>
     </g>
     <g id="text_5">
      <!-- 100 -->
      <g transform="translate(22.727656 210.690962) scale(0.1 -0.1)">
       <defs>
        <path id="MicrosoftYaHei-31" d="M 1781 0 
L 1781 4141 
Q 1638 3997 1295 3819 
Q 953 3641 663 3569 
L 663 4169 
Q 1047 4275 1484 4508 
Q 1922 4741 2156 4947 
L 2388 4947 
L 2388 0 
L 1781 0 
z
" transform="scale(0.015625)"/>
       </defs>
       <use xlink:href="#MicrosoftYaHei-31"/>
       <use xlink:href="#MicrosoftYaHei-30" transform="translate(58.642578 0)"/>
       <use xlink:href="#MicrosoftYaHei-30" transform="translate(117.285156 0)"/>
      </g>
     </g>
    </g>
    <g id="ytick_3">
     <g id="line2d_8">
      <path d="M 47.319844 171.995675 
L 318.619844 171.995675 
" clip-path="url(#pb5d426670b)" style="fill: none; stroke: #b0b0b0; stroke-opacity: 0.3; stroke-width: 0.8; stroke-linecap: square"/>
     </g>
     <g id="line2d_9">
      <g>
       <use xlink:href="#m57c3b983cc" x="47.319844" y="171.995675" style="stroke: #000000; stroke-width: 0.8"/>
      </g>
     </g>
     <g id="text_6">
      <!-- 200 -->
      <g transform="translate(22.727656 175.99255) scale(0.1 -0.1)">
       <defs>
        <path id="MicrosoftYaHei-32" d="M 2666 3572 
Q 2666 3963 2419 4186 
Q 2172 4409 1747 4409 
Q 1447 4409 1140 4256 
Q 834 4103 569 3819 
L 569 4413 
Q 806 4659 1107 4790 
Q 1409 4922 1816 4922 
Q 2472 4922 2872 4570 
Q 3272 4219 3272 3619 
Q 3272 3084 3026 2693 
Q 2781 2303 2188 1894 
Q 1581 1475 1376 1294 
Q 1172 1113 1090 947 
Q 1009 781 1009 544 
L 3416 544 
L 3416 0 
L 372 0 
L 372 241 
Q 372 659 486 951 
Q 600 1244 862 1520 
Q 1125 1797 1681 2184 
Q 2250 2584 2458 2886 
Q 2666 3188 2666 3572 
z
" transform="scale(0.015625)"/>
       </defs>
       <use xlink:href="#MicrosoftYaHei-32"/>
       <use xlink:href="#MicrosoftYaHei-30" transform="translate(58.642578 0)"/>
       <use xlink:href="#MicrosoftYaHei-30" transform="translate(117.285156 0)"/>
      </g>
     </g>
    </g>
    <g id="ytick_4">
     <g id="line2d_10">
      <path d="M 47.319844 137.297262 
L 318.619844 137.297262 
" clip-path="url(#pb5d426670b)" style="fill: none; stroke: #b0b0b0; stroke-opacity: 0.3; stroke-width: 0.8; stroke-linecap: square"/>
     </g>
     <g id="line2d_11">
      <g>
       <use xlink:href="#m57c3b983cc" x="47.319844" y="137.297262" style="stroke: #000000; stroke-width: 0.8"/>
      </g>
     </g>
     <g id="text_7">
      <!-- 300 -->
      <g transform="translate(22.727656 141.294137) scale(0.1 -0.1)">
       <defs>
        <path id="MicrosoftYaHei-33" d="M 447 809 
Q 944 425 1569 425 
Q 2069 425 2361 670 
Q 2653 916 2653 1328 
Q 2653 2247 1338 2247 
L 934 2247 
L 934 2753 
L 1319 2753 
Q 2484 2753 2484 3616 
Q 2484 4413 1594 4413 
Q 1084 4413 634 4069 
L 634 4647 
Q 1109 4922 1744 4922 
Q 2363 4922 2738 4598 
Q 3113 4275 3113 3759 
Q 3113 2809 2144 2538 
L 2144 2525 
Q 2669 2469 2973 2155 
Q 3278 1841 3278 1372 
Q 3278 719 2808 319 
Q 2338 -81 1556 -81 
Q 869 -81 447 175 
L 447 809 
z
" transform="scale(0.015625)"/>
       </defs>
       <use xlink:href="#MicrosoftYaHei-33"/>
       <use xlink:href="#MicrosoftYaHei-30" transform="translate(58.642578 0)"/>
       <use xlink:href="#MicrosoftYaHei-30" transform="translate(117.285156 0)"/>
      </g>
     </g>
    </g>
    <g id="ytick_5">
     <g id="line2d_12">
      <path d="M 47.319844 102.598849 
L 318.619844 102.598849 
" clip-path="url(#pb5d426670b)" style="fill: none; stroke: #b0b0b0; stroke-opacity: 0.3; stroke-width: 0.8; stroke-linecap: square"/>
     </g>
     <g id="line2d_13">
      <g>
       <use xlink:href="#m57c3b983cc" x="47.319844" y="102.598849" style="stroke: #000000; stroke-width: 0.8"/>
      </g>
     </g>
     <g id="text_8">
      <!-- 400 -->
      <g transform="translate(22.727656 106.595724) scale(0.1 -0.1)">
       <defs>
        <path id="MicrosoftYaHei-34" d="M 2906 4841 
L 2906 1644 
L 3631 1644 
L 3631 1138 
L 2906 1138 
L 2906 0 
L 2313 0 
L 2313 1138 
L 53 1138 
L 53 1616 
Q 656 2294 1265 3178 
Q 1875 4063 2272 4841 
L 2906 4841 
z
M 741 1644 
L 2313 1644 
L 2313 3950 
Q 1988 3366 1616 2817 
Q 1244 2269 741 1644 
z
" transform="scale(0.015625)"/>
       </defs>
       <use xlink:href="#MicrosoftYaHei-34"/>
       <use xlink:href="#MicrosoftYaHei-30" transform="translate(58.642578 0)"/>
       <use xlink:href="#MicrosoftYaHei-30" transform="translate(117.285156 0)"/>
      </g>
     </g>
    </g>
    <g id="ytick_6">
     <g id="line2d_14">
      <path d="M 47.319844 67.900437 
L 318.619844 67.900437 
" clip-path="url(#pb5d426670b)" style="fill: none; stroke: #b0b0b0; stroke-opacity: 0.3; stroke-width: 0.8; stroke-linecap: square"/>
     </g>
     <g id="line2d_15">
      <g>
       <use xlink:href="#m57c3b983cc" x="47.319844" y="67.900437" style="stroke: #000000; stroke-width: 0.8"/>
      </g>
     </g>
     <g id="text_9">
      <!-- 500 -->
      <g transform="translate(22.727656 71.897312) scale(0.1 -0.1)">
       <defs>
        <path id="MicrosoftYaHei-35" d="M 3294 1494 
Q 3294 784 2823 350 
Q 2353 -84 1559 -84 
Q 878 -84 544 119 
L 544 744 
Q 1034 425 1544 425 
Q 2050 425 2361 704 
Q 2672 984 2672 1447 
Q 2672 1909 2348 2167 
Q 2025 2425 1434 2425 
Q 978 2425 613 2384 
L 791 4841 
L 3053 4841 
L 3053 4303 
L 1306 4303 
L 1206 2931 
L 1647 2950 
Q 2416 2950 2855 2567 
Q 3294 2184 3294 1494 
z
" transform="scale(0.015625)"/>
       </defs>
       <use xlink:href="#MicrosoftYaHei-35"/>
       <use xlink:href="#MicrosoftYaHei-30" transform="translate(58.642578 0)"/>
       <use xlink:href="#MicrosoftYaHei-30" transform="translate(117.285156 0)"/>
      </g>
     </g>
    </g>
    <g id="ytick_7">
     <g id="line2d_16">
      <path d="M 47.319844 33.202024 
L 318.619844 33.202024 
" clip-path="url(#pb5d426670b)" style="fill: none; stroke: #b0b0b0; stroke-opacity: 0.3; stroke-width: 0.8; stroke-linecap: square"/>
     </g>
     <g id="line2d_17">
      <g>
       <use xlink:href="#m57c3b983cc" x="47.319844" y="33.202024" style="stroke: #000000; stroke-width: 0.8"/>
      </g>
     </g>
     <g id="text_10">
      <!-- 600 -->
      <g transform="translate(22.727656 37.198899) scale(0.1 -0.1)">
       <defs>
        <path id="MicrosoftYaHei-36" d="M 3181 4219 
Q 2803 4413 2391 4413 
Q 1763 4413 1381 3866 
Q 1000 3319 994 2372 
L 1009 2372 
Q 1353 3038 2106 3038 
Q 2734 3038 3109 2628 
Q 3484 2219 3484 1541 
Q 3484 831 3051 375 
Q 2619 -81 1947 -81 
Q 1209 -81 789 495 
Q 369 1072 369 2131 
Q 369 3413 920 4167 
Q 1472 4922 2372 4922 
Q 2888 4922 3181 4781 
L 3181 4219 
z
M 1031 1584 
Q 1031 1106 1286 765 
Q 1541 425 1963 425 
Q 2363 425 2613 719 
Q 2863 1013 2863 1475 
Q 2863 1975 2627 2253 
Q 2391 2531 1956 2531 
Q 1544 2531 1287 2250 
Q 1031 1969 1031 1584 
z
" transform="scale(0.015625)"/>
       </defs>
       <use xlink:href="#MicrosoftYaHei-36"/>
       <use xlink:href="#MicrosoftYaHei-30" transform="translate(58.642578 0)"/>
       <use xlink:href="#MicrosoftYaHei-30" transform="translate(117.285156 0)"/>
      </g>
     </g>
    </g>
    <g id="text_11">
     <!-- 力 / N -->
     <g transform="translate(15.993125 147.668672) rotate(-90) scale(0.11 -0.11)">
      <defs>
       <path id="MicrosoftYaHei-529b" d="M 400 3916 
L 2425 3916 
Q 2444 4603 2450 5316 
L 2994 5316 
Q 2981 4653 2963 3916 
L 5831 3916 
Q 5756 1472 5688 459 
Q 5606 -616 4538 -628 
Q 4025 -628 3300 -603 
Q 3275 -359 3206 -9 
L 3225 -9 
Q 4038 -84 4488 -78 
Q 5094 -66 5156 591 
Q 5231 1709 5269 3403 
L 2950 3403 
Q 2894 1775 2431 953 
Q 1938 41 506 -803 
Q 331 -578 131 -328 
Q 1488 434 1913 1209 
Q 2353 1913 2406 3403 
L 400 3403 
L 400 3916 
z
" transform="scale(0.015625)"/>
       <path id="MicrosoftYaHei-20" transform="scale(0.015625)"/>
       <path id="MicrosoftYaHei-2f" d="M 2791 4841 
L 469 -803 
L -103 -803 
L 2219 4841 
L 2791 4841 
z
" transform="scale(0.015625)"/>
       <path id="MicrosoftYaHei-4e" d="M 4578 0 
L 3838 0 
L 1403 3766 
Q 1300 3925 1238 4081 
L 1219 4081 
Q 1244 3919 1244 3403 
L 1244 0 
L 625 0 
L 625 4841 
L 1409 4841 
L 3778 1141 
Q 3947 878 3978 806 
L 3991 806 
Q 3959 1013 3959 1513 
L 3959 4841 
L 4578 4841 
L 4578 0 
z
" transform="scale(0.015625)"/>
      </defs>
      <use xlink:href="#MicrosoftYaHei-529b"/>
      <use xlink:href="#MicrosoftYaHei-20" transform="translate(100 0)"/>
      <use xlink:href="#MicrosoftYaHei-2f" transform="translate(129.589844 0)"/>
      <use xlink:href="#MicrosoftYaHei-20" transform="translate(172.314453 0)"/>
      <use xlink:href="#MicrosoftYaHei-4e" transform="translate(201.904297 0)"/>
     </g>
    </g>
   </g>
   <g id="patch_9">
    <path d="M 47.319844 241.3925 
L 47.319844 22.7925 
" style="fill: none; stroke: #000000; stroke-width: 0.8; stroke-linejoin: miter; stroke-linecap: square"/>
   </g>
   <g id="patch_10">
    <path d="M 318.619844 241.3925 
L 318.619844 22.7925 
" style="fill: none; stroke: #000000; stroke-width: 0.8; stroke-linejoin: miter; stroke-linecap: square"/>
   </g>
   <g id="patch_11">
    <path d="M 47.319844 241.3925 
L 318.619844 241.3925 
" style="fill: none; stroke: #000000; stroke-width: 0.8; stroke-linejoin: miter; stroke-linecap: square"/>
   </g>
   <g id="patch_12">
    <path d="M 47.319844 22.7925 
L 318.619844 22.7925 
" style="fill: none; stroke: #000000; stroke-width: 0.8; stroke-linejoin: miter; stroke-linecap: square"/>
   </g>
   <g id="text_12">
    <!-- 杠杆力对比 -->
    <g transform="translate(152.969844 16.7925) scale(0.12 -0.12)">
     <defs>
      <path id="MicrosoftYaHei-Bold-6760" d="M 94 1559 
Q 675 2494 938 3272 
L 150 3272 
L 150 4091 
L 975 4091 
L 975 5266 
L 1850 5266 
L 1850 4091 
L 2588 4091 
L 2588 3272 
L 1850 3272 
L 1850 2491 
L 2150 2759 
Q 2575 2359 3050 1878 
L 2444 1328 
Q 2169 1688 1850 2028 
L 1850 -822 
L 975 -822 
L 975 1653 
Q 713 1066 331 459 
Q 250 897 94 1559 
z
M 6313 -534 
L 2275 -534 
L 2275 316 
L 3825 316 
L 3825 4103 
L 2563 4103 
L 2563 4953 
L 6100 4953 
L 6100 4103 
L 4750 4103 
L 4750 316 
L 6313 316 
L 6313 -534 
z
" transform="scale(0.015625)"/>
      <path id="MicrosoftYaHei-Bold-6746" d="M 169 4216 
L 963 4216 
L 963 5309 
L 1763 5309 
L 1763 4216 
L 2519 4216 
L 2519 3397 
L 1763 3397 
L 1763 2394 
L 2125 2684 
L 2500 2241 
L 2500 2778 
L 3925 2778 
L 3925 4103 
L 2713 4103 
L 2713 4966 
L 6100 4966 
L 6100 4103 
L 4825 4103 
L 4825 2778 
L 6288 2778 
L 6288 1916 
L 4825 1916 
L 4825 -809 
L 3925 -809 
L 3925 1916 
L 2759 1916 
Q 2819 1841 2875 1766 
L 2213 1241 
Q 2003 1563 1763 1906 
L 1763 -834 
L 963 -834 
L 963 1641 
Q 694 1069 325 528 
Q 200 1166 88 1678 
Q 681 2491 963 3381 
L 963 3397 
L 169 3397 
L 169 4216 
z
" transform="scale(0.015625)"/>
      <path id="MicrosoftYaHei-Bold-529b" d="M 2094 5309 
L 3063 5309 
L 3022 4066 
L 5988 4066 
L 5931 2203 
Q 5897 1225 5859 593 
Q 5822 -38 5489 -373 
Q 5156 -709 4611 -721 
Q 4066 -734 3225 -728 
Q 3138 -184 3038 247 
Q 3531 197 4188 197 
Q 4503 197 4665 320 
Q 4828 444 4876 623 
Q 4925 803 4964 1515 
Q 5003 2228 5025 3241 
L 2978 3241 
Q 2919 603 769 -891 
Q 444 -491 38 -84 
Q 1963 1059 2031 3241 
L 381 3241 
L 381 4066 
L 2075 4066 
Q 2097 4644 2094 5309 
z
" transform="scale(0.015625)"/>
      <path id="MicrosoftYaHei-Bold-5bf9" d="M 3050 4234 
L 4850 4234 
L 4850 5309 
L 5744 5309 
L 5744 4234 
L 6319 4234 
L 6319 3409 
L 5744 3409 
L 5744 216 
Q 5744 -250 5539 -490 
Q 5334 -731 4987 -754 
Q 4641 -778 3656 -778 
Q 3594 -359 3450 147 
Q 3931 109 4409 109 
Q 4850 109 4850 516 
L 4850 3409 
L 3050 3409 
L 3050 4234 
z
M 863 3772 
L 1691 2509 
Q 1934 3206 2025 4016 
L 188 4016 
L 188 4834 
L 2900 4834 
L 2900 4028 
Q 2709 2722 2247 1669 
L 3169 278 
L 2394 -228 
L 1781 778 
Q 1269 -47 550 -684 
Q 369 -316 88 153 
Q 816 772 1278 1594 
L 181 3341 
L 863 3772 
z
M 3463 3047 
Q 4069 2278 4588 1528 
L 3844 1041 
Q 3375 1841 2813 2609 
L 3463 3047 
z
" transform="scale(0.015625)"/>
      <path id="MicrosoftYaHei-Bold-6bd4" d="M 5481 4441 
L 6294 3803 
Q 5234 2791 4119 1894 
L 4119 547 
Q 4119 153 4438 153 
L 4875 153 
Q 5119 153 5197 325 
Q 5275 497 5363 1597 
Q 5856 1409 6294 1278 
Q 6231 688 6131 248 
Q 6031 -191 5900 -358 
Q 5769 -525 5511 -617 
Q 5253 -709 4881 -709 
L 4094 -709 
Q 3194 -709 3194 247 
L 3194 5316 
L 4119 5316 
L 4119 3009 
Q 4797 3656 5481 4441 
z
M 1419 5241 
L 1419 3453 
L 2850 3453 
L 2850 2591 
L 1419 2591 
L 1419 372 
L 2869 866 
Q 2856 372 2888 -78 
Q 1500 -503 725 -922 
L 275 -184 
Q 494 -16 494 366 
L 494 5241 
L 1419 5241 
z
" transform="scale(0.015625)"/>
     </defs>
     <use xlink:href="#MicrosoftYaHei-Bold-6760"/>
     <use xlink:href="#MicrosoftYaHei-Bold-6746" transform="translate(100 0)"/>
     <use xlink:href="#MicrosoftYaHei-Bold-529b" transform="translate(200 0)"/>
     <use xlink:href="#MicrosoftYaHei-Bold-5bf9" transform="translate(300 0)"/>
     <use xlink:href="#MicrosoftYaHei-Bold-6bd4" transform="translate(400 0)"/>
    </g>
   </g>
   <g id="legend_1">
    <g id="patch_13">
     <path d="M 243.305313 57.855938 
L 312.319844 57.855938 
Q 314.119844 57.855938 314.119844 56.055937 
L 314.119844 29.0925 
Q 314.119844 27.2925 312.319844 27.2925 
L 243.305313 27.2925 
Q 241.505313 27.2925 241.505313 29.0925 
L 241.505313 56.055937 
Q 241.505313 57.855938 243.305313 57.855938 
z
" style="fill: #ffffff; opacity: 0.8; stroke: #cccccc; stroke-linejoin: miter"/>
    </g>
    <g id="patch_14">
     <path d="M 245.105313 38.086875 
L 263.105313 38.086875 
L 263.105313 31.786875 
L 245.105313 31.786875 
z
" style="fill: #c0392b; opacity: 0.8"/>
    </g>
    <g id="text_13">
     <!-- 动力 F₁/N -->
     <g transform="translate(270.305313 38.086875) scale(0.09 -0.09)">
      <defs>
       <path id="MicrosoftYaHei-52a8" d="M 2975 4022 
L 3906 4022 
Q 3916 4650 3913 5309 
L 4425 5309 
Q 4422 4656 4409 4022 
L 6094 4022 
Q 6050 1659 5969 216 
Q 5900 -666 5150 -678 
Q 4763 -678 4306 -659 
Q 4263 -397 4206 -109 
Q 4638 -166 4994 -172 
Q 5456 -172 5475 347 
Q 5569 1897 5588 3547 
L 4400 3547 
Q 4394 3278 4388 3016 
Q 4356 553 2900 -872 
Q 2725 -659 2525 -447 
Q 3831 716 3888 3028 
Q 3894 3284 3900 3547 
L 2975 3547 
L 2975 4022 
z
M 2338 1866 
Q 2731 1016 3063 178 
Q 2788 59 2594 -28 
Q 2550 91 2506 209 
Q 1316 97 338 -16 
L 119 491 
Q 394 647 563 997 
Q 869 1613 1200 2559 
L 144 2559 
L 144 3022 
L 3163 3022 
L 3163 2559 
L 1725 2559 
Q 1191 1228 800 491 
Q 1519 544 2347 631 
Q 2138 1163 1906 1672 
L 2338 1866 
z
M 406 4778 
L 2913 4778 
L 2913 4316 
L 406 4316 
L 406 4778 
z
" transform="scale(0.015625)"/>
       <path id="MicrosoftYaHei-46" d="M 3119 4284 
L 1250 4284 
L 1250 2666 
L 2981 2666 
L 2981 2116 
L 1250 2116 
L 1250 0 
L 625 0 
L 625 4841 
L 3119 4841 
L 3119 4284 
z
" transform="scale(0.015625)"/>
       <path id="DejaVuSans-2081" d="M 488 319 
L 1125 319 
L 1125 2229 
L 428 2101 
L 428 2463 
L 1147 2585 
L 1575 2585 
L 1575 319 
L 2216 319 
L 2216 -24 
L 488 -24 
L 488 319 
z
" transform="scale(0.015625)"/>
      </defs>
      <use xlink:href="#MicrosoftYaHei-52a8"/>
      <use xlink:href="#MicrosoftYaHei-529b" transform="translate(100 0)"/>
      <use xlink:href="#MicrosoftYaHei-20" transform="translate(200 0)"/>
      <use xlink:href="#MicrosoftYaHei-46" transform="translate(229.589844 0)"/>
      <use xlink:href="#DejaVuSans-2081" transform="translate(282.714844 0)"/>
      <use xlink:href="#MicrosoftYaHei-2f" transform="translate(322.802734 0)"/>
      <use xlink:href="#MicrosoftYaHei-4e" transform="translate(365.527344 0)"/>
     </g>
    </g>
    <g id="patch_15">
     <path d="M 245.105313 52.018594 
L 263.105313 52.018594 
L 263.105313 45.718594 
L 245.105313 45.718594 
z
" style="fill: #3498db; opacity: 0.8"/>
    </g>
    <g id="text_14">
     <!-- 阻力 F₂/N -->
     <g transform="translate(270.305313 52.018594) scale(0.09 -0.09)">
      <defs>
       <path id="MicrosoftYaHei-963b" d="M 1900 -122 
L 2700 -122 
L 2700 4928 
L 5688 4928 
L 5688 -122 
L 6288 -122 
L 6288 -566 
L 1900 -566 
L 1900 -122 
z
M 2263 1572 
Q 2444 366 1669 234 
Q 1388 184 1038 222 
Q 988 478 900 747 
Q 1231 672 1475 697 
Q 1913 741 1763 1591 
Q 1675 2097 1200 2716 
Q 1475 3641 1713 4534 
L 875 4534 
L 875 -841 
L 400 -841 
L 400 4972 
L 2231 4972 
L 2231 4534 
Q 1938 3572 1694 2797 
Q 2194 2116 2263 1572 
z
M 3188 1559 
L 5200 1559 
L 5200 2803 
L 3188 2803 
L 3188 1559 
z
M 3188 -122 
L 5200 -122 
L 5200 1122 
L 3188 1122 
L 3188 -122 
z
M 3188 4484 
L 3188 3241 
L 5200 3241 
L 5200 4484 
L 3188 4484 
z
" transform="scale(0.015625)"/>
       <path id="DejaVuSans-2082" d="M 838 332 
L 2163 332 
L 2163 -24 
L 294 -24 
L 294 319 
Q 400 416 597 591 
Q 1672 1544 1672 1838 
Q 1672 2044 1509 2170 
Q 1347 2297 1081 2297 
Q 919 2297 728 2242 
Q 538 2188 313 2079 
L 313 2463 
Q 553 2551 761 2594 
Q 969 2638 1147 2638 
Q 1600 2638 1872 2432 
Q 2144 2226 2144 1888 
Q 2144 1454 1109 566 
Q 934 416 838 332 
z
" transform="scale(0.015625)"/>
      </defs>
      <use xlink:href="#MicrosoftYaHei-963b"/>
      <use xlink:href="#MicrosoftYaHei-529b" transform="translate(100 0)"/>
      <use xlink:href="#MicrosoftYaHei-20" transform="translate(200 0)"/>
      <use xlink:href="#MicrosoftYaHei-46" transform="translate(229.589844 0)"/>
      <use xlink:href="#DejaVuSans-2082" transform="translate(282.714844 0)"/>
      <use xlink:href="#MicrosoftYaHei-2f" transform="translate(322.802734 0)"/>
      <use xlink:href="#MicrosoftYaHei-4e" transform="translate(365.527344 0)"/>
     </g>
    </g>
   </g>
  </g>
  <g id="axes_2">
   <g id="patch_16">
    <path d="M 362.994844 241.3925 
L 634.294844 241.3925 
L 634.294844 22.7925 
L 362.994844 22.7925 
L 362.994844 241.3925 
z
" style="fill: none"/>
   </g>
   <g id="patch_17">
    <path d="M 375.326662 241.3925 
L 403.784704 241.3925 
L 403.784704 33.202024 
L 375.326662 33.202024 
z
" clip-path="url(#p1dd30e750d)" style="fill: #c0392b; opacity: 0.8"/>
   </g>
   <g id="patch_18">
    <path d="M 470.186802 241.3925 
L 498.644844 241.3925 
L 498.644844 206.694087 
L 470.186802 206.694087 
z
" clip-path="url(#p1dd30e750d)" style="fill: #c0392b; opacity: 0.8"/>
   </g>
   <g id="patch_19">
    <path d="M 565.046942 241.3925 
L 593.504984 241.3925 
L 593.504984 225.778214 
L 565.046942 225.778214 
z
" clip-path="url(#p1dd30e750d)" style="fill: #c0392b; opacity: 0.8"/>
   </g>
   <g id="patch_20">
    <path d="M 403.784704 241.3925 
L 432.242746 241.3925 
L 432.242746 33.202024 
L 403.784704 33.202024 
z
" clip-path="url(#p1dd30e750d)" style="fill: #3498db; opacity: 0.8"/>
   </g>
   <g id="patch_21">
    <path d="M 498.644844 241.3925 
L 527.102886 241.3925 
L 527.102886 206.694087 
L 498.644844 206.694087 
z
" clip-path="url(#p1dd30e750d)" style="fill: #3498db; opacity: 0.8"/>
   </g>
   <g id="patch_22">
    <path d="M 593.504984 241.3925 
L 621.963026 241.3925 
L 621.963026 225.778214 
L 593.504984 225.778214 
z
" clip-path="url(#p1dd30e750d)" style="fill: #3498db; opacity: 0.8"/>
   </g>
   <g id="matplotlib.axis_3">
    <g id="xtick_4">
     <g id="line2d_18">
      <g>
       <use xlink:href="#m8af00fcf36" x="403.784704" y="241.3925" style="stroke: #000000; stroke-width: 0.8"/>
      </g>
     </g>
     <g id="text_15">
      <!-- 撬石头 -->
      <g transform="translate(388.784704 256.38625) scale(0.1 -0.1)">
       <use xlink:href="#MicrosoftYaHei-64ac"/>
       <use xlink:href="#MicrosoftYaHei-77f3" transform="translate(100 0)"/>
       <use xlink:href="#MicrosoftYaHei-5934" transform="translate(200 0)"/>
      </g>
     </g>
    </g>
    <g id="xtick_5">
     <g id="line2d_19">
      <g>
       <use xlink:href="#m8af00fcf36" x="498.644844" y="241.3925" style="stroke: #000000; stroke-width: 0.8"/>
      </g>
     </g>
     <g id="text_16">
      <!-- 天平 -->
      <g transform="translate(488.644844 256.38625) scale(0.1 -0.1)">
       <use xlink:href="#MicrosoftYaHei-5929"/>
       <use xlink:href="#MicrosoftYaHei-5e73" transform="translate(100 0)"/>
      </g>
     </g>
    </g>
    <g id="xtick_6">
     <g id="line2d_20">
      <g>
       <use xlink:href="#m8af00fcf36" x="593.504984" y="241.3925" style="stroke: #000000; stroke-width: 0.8"/>
      </g>
     </g>
     <g id="text_17">
      <!-- 钳子 -->
      <g transform="translate(583.504984 256.38625) scale(0.1 -0.1)">
       <use xlink:href="#MicrosoftYaHei-94b3"/>
       <use xlink:href="#MicrosoftYaHei-5b50" transform="translate(100 0)"/>
      </g>
     </g>
    </g>
   </g>
   <g id="matplotlib.axis_4">
    <g id="ytick_8">
     <g id="line2d_21">
      <path d="M 362.994844 241.3925 
L 634.294844 241.3925 
" clip-path="url(#p1dd30e750d)" style="fill: none; stroke: #b0b0b0; stroke-opacity: 0.3; stroke-width: 0.8; stroke-linecap: square"/>
     </g>
     <g id="line2d_22">
      <g>
       <use xlink:href="#m57c3b983cc" x="362.994844" y="241.3925" style="stroke: #000000; stroke-width: 0.8"/>
      </g>
     </g>
     <g id="text_18">
      <!-- 0 -->
      <g transform="translate(350.130781 245.389375) scale(0.1 -0.1)">
       <use xlink:href="#MicrosoftYaHei-30"/>
      </g>
     </g>
    </g>
    <g id="ytick_9">
     <g id="line2d_23">
      <path d="M 362.994844 206.694087 
L 634.294844 206.694087 
" clip-path="url(#p1dd30e750d)" style="fill: none; stroke: #b0b0b0; stroke-opacity: 0.3; stroke-width: 0.8; stroke-linecap: square"/>
     </g>
     <g id="line2d_24">
      <g>
       <use xlink:href="#m57c3b983cc" x="362.994844" y="206.694087" style="stroke: #000000; stroke-width: 0.8"/>
      </g>
     </g>
     <g id="text_19">
      <!-- 10 -->
      <g transform="translate(344.266719 210.690962) scale(0.1 -0.1)">
       <use xlink:href="#MicrosoftYaHei-31"/>
       <use xlink:href="#MicrosoftYaHei-30" transform="translate(58.642578 0)"/>
      </g>
     </g>
    </g>
    <g id="ytick_10">
     <g id="line2d_25">
      <path d="M 362.994844 171.995675 
L 634.294844 171.995675 
" clip-path="url(#p1dd30e750d)" style="fill: none; stroke: #b0b0b0; stroke-opacity: 0.3; stroke-width: 0.8; stroke-linecap: square"/>
     </g>
     <g id="line2d_26">
      <g>
       <use xlink:href="#m57c3b983cc" x="362.994844" y="171.995675" style="stroke: #000000; stroke-width: 0.8"/>
      </g>
     </g>
     <g id="text_20">
      <!-- 20 -->
      <g transform="translate(344.266719 175.99255) scale(0.1 -0.1)">
       <use xlink:href="#MicrosoftYaHei-32"/>
       <use xlink:href="#MicrosoftYaHei-30" transform="translate(58.642578 0)"/>
      </g>
     </g>
    </g>
    <g id="ytick_11">
     <g id="line2d_27">
      <path d="M 362.994844 137.297262 
L 634.294844 137.297262 
" clip-path="url(#p1dd30e750d)" style="fill: none; stroke: #b0b0b0; stroke-opacity: 0.3; stroke-width: 0.8; stroke-linecap: square"/>
     </g>
     <g id="line2d_28">
      <g>
       <use xlink:href="#m57c3b983cc" x="362.994844" y="137.297262" style="stroke: #000000; stroke-width: 0.8"/>
      </g>
     </g>
     <g id="text_21">
      <!-- 30 -->
      <g transform="translate(344.266719 141.294137) scale(0.1 -0.1)">
       <use xlink:href="#MicrosoftYaHei-33"/>
       <use xlink:href="#MicrosoftYaHei-30" transform="translate(58.642578 0)"/>
      </g>
     </g>
    </g>
    <g id="ytick_12">
     <g id="line2d_29">
      <path d="M 362.994844 102.598849 
L 634.294844 102.598849 
" clip-path="url(#p1dd30e750d)" style="fill: none; stroke: #b0b0b0; stroke-opacity: 0.3; stroke-width: 0.8; stroke-linecap: square"/>
     </g>
     <g id="line2d_30">
      <g>
       <use xlink:href="#m57c3b983cc" x="362.994844" y="102.598849" style="stroke: #000000; stroke-width: 0.8"/>
      </g>
     </g>
     <g id="text_22">
      <!-- 40 -->
      <g transform="translate(344.266719 106.595724) scale(0.1 -0.1)">
       <use xlink:href="#MicrosoftYaHei-34"/>
       <use xlink:href="#MicrosoftYaHei-30" transform="translate(58.642578 0)"/>
      </g>
     </g>
    </g>
    <g id="ytick_13">
     <g id="line2d_31">
      <path d="M 362.994844 67.900437 
L 634.294844 67.900437 
" clip-path="url(#p1dd30e750d)" style="fill: none; stroke: #b0b0b0; stroke-opacity: 0.3; stroke-width: 0.8; stroke-linecap: square"/>
     </g>
     <g id="line2d_32">
      <g>
       <use xlink:href="#m57c3b983cc" x="362.994844" y="67.900437" style="stroke: #000000; stroke-width: 0.8"/>
      </g>
     </g>
     <g id="text_23">
      <!-- 50 -->
      <g transform="translate(344.266719 71.897312) scale(0.1 -0.1)">
       <use xlink:href="#MicrosoftYaHei-35"/>
       <use xlink:href="#MicrosoftYaHei-30" transform="translate(58.642578 0)"/>
      </g>
     </g>
    </g>
    <g id="ytick_14">
     <g id="line2d_33">
      <path d="M 362.994844 33.202024 
L 634.294844 33.202024 
" clip-path="url(#p1dd30e750d)" style="fill: none; stroke: #b0b0b0; stroke-opacity: 0.3; stroke-width: 0.8; stroke-linecap: square"/>
     </g>
     <g id="line2d_34">
      <g>
       <use xlink:href="#m57c3b983cc" x="362.994844" y="33.202024" style="stroke: #000000; stroke-width: 0.8"/>
      </g>
     </g>
     <g id="text_24">
      <!-- 60 -->
      <g transform="translate(344.266719 37.198899) scale(0.1 -0.1)">
       <use xlink:href="#MicrosoftYaHei-36"/>
       <use xlink:href="#MicrosoftYaHei-30" transform="translate(58.642578 0)"/>
      </g>
     </g>
    </g>
    <g id="text_25">
     <!-- 力 × 力臂 / N·m -->
     <g transform="translate(337.532188 172.481406) rotate(-90) scale(0.11 -0.11)">
      <defs>
       <path id="MicrosoftYaHei-d7" d="M 3856 869 
L 3519 531 
L 2372 1678 
L 1231 531 
L 894 869 
L 2044 2009 
L 894 3156 
L 1231 3491 
L 2372 2344 
L 3522 3491 
L 3856 3153 
L 2709 2009 
L 3856 869 
z
" transform="scale(0.015625)"/>
       <path id="MicrosoftYaHei-81c2" d="M 1531 -816 
L 1094 -816 
L 1094 1847 
L 5444 1847 
L 5444 -72 
Q 5444 -747 4775 -747 
Q 4281 -747 3925 -741 
Q 3900 -553 3844 -303 
Q 4338 -334 4663 -334 
Q 5006 -334 5006 -9 
L 5006 59 
L 1531 59 
L 1531 -816 
z
M 594 5034 
L 3013 5034 
L 3013 3709 
L 2625 3709 
L 2625 3853 
L 947 3853 
Q 838 2950 369 2309 
Q 250 2484 94 2672 
Q 594 3303 594 4428 
L 594 5034 
z
M 5750 4159 
Q 5575 3919 5388 3691 
L 6275 3691 
L 6275 3353 
L 4875 3353 
L 4875 2872 
L 6081 2872 
L 6081 2534 
L 4875 2534 
L 4875 2009 
L 4463 2009 
L 4463 2534 
L 3313 2534 
L 3313 2872 
L 4463 2872 
L 4463 3353 
L 3150 3353 
L 3150 3691 
L 4009 3691 
Q 3884 3881 3669 4153 
L 3981 4372 
Q 4213 4116 4394 3866 
L 4128 3691 
L 4950 3691 
Q 5197 4041 5369 4359 
L 5750 4159 
z
M 919 3384 
L 3013 3384 
L 3013 2103 
L 2625 2103 
L 2625 2247 
L 1306 2247 
L 1306 2103 
L 919 2103 
L 919 3384 
z
M 5006 1497 
L 1531 1497 
L 1531 1116 
L 5006 1116 
L 5006 1497 
z
M 1531 397 
L 5006 397 
L 5006 778 
L 1531 778 
L 1531 397 
z
M 3288 4747 
L 4566 4747 
Q 4428 4956 4250 5197 
L 4581 5397 
Q 4794 5134 4956 4878 
L 4738 4747 
L 6156 4747 
L 6156 4409 
L 3288 4409 
L 3288 4747 
z
M 2625 4697 
L 981 4697 
Q 981 4428 975 4191 
L 2625 4191 
L 2625 4697 
z
M 2625 3059 
L 1306 3059 
L 1306 2572 
L 2625 2572 
L 2625 3059 
z
" transform="scale(0.015625)"/>
       <path id="MicrosoftYaHei-b7" d="M 372 2113 
Q 372 2278 490 2395 
Q 609 2513 775 2513 
Q 941 2513 1061 2397 
Q 1181 2281 1181 2113 
Q 1181 1950 1064 1831 
Q 947 1713 772 1713 
Q 600 1713 486 1831 
Q 372 1950 372 2113 
z
" transform="scale(0.015625)"/>
       <path id="MicrosoftYaHei-6d" d="M 5522 0 
L 4909 0 
L 4909 1984 
Q 4909 2547 4734 2789 
Q 4559 3031 4159 3031 
Q 3822 3031 3581 2715 
Q 3341 2400 3341 1969 
L 3341 0 
L 2728 0 
L 2728 2047 
Q 2728 3031 1969 3031 
Q 1619 3031 1389 2731 
Q 1159 2431 1159 1966 
L 1159 0 
L 547 0 
L 547 3456 
L 1159 3456 
L 1159 2909 
L 1172 2909 
Q 1541 3538 2250 3538 
Q 2597 3538 2862 3347 
Q 3128 3156 3231 2831 
Q 3616 3538 4381 3538 
Q 5522 3538 5522 2131 
L 5522 0 
z
" transform="scale(0.015625)"/>
      </defs>
      <use xlink:href="#MicrosoftYaHei-529b"/>
      <use xlink:href="#MicrosoftYaHei-20" transform="translate(100 0)"/>
      <use xlink:href="#MicrosoftYaHei-d7" transform="translate(129.589844 0)"/>
      <use xlink:href="#MicrosoftYaHei-20" transform="translate(203.759766 0)"/>
      <use xlink:href="#MicrosoftYaHei-529b" transform="translate(233.349609 0)"/>
      <use xlink:href="#MicrosoftYaHei-81c2" transform="translate(333.349609 0)"/>
      <use xlink:href="#MicrosoftYaHei-20" transform="translate(433.349609 0)"/>
      <use xlink:href="#MicrosoftYaHei-2f" transform="translate(462.939453 0)"/>
      <use xlink:href="#MicrosoftYaHei-20" transform="translate(505.664062 0)"/>
      <use xlink:href="#MicrosoftYaHei-4e" transform="translate(535.253906 0)"/>
      <use xlink:href="#MicrosoftYaHei-b7" transform="translate(616.552734 0)"/>
      <use xlink:href="#MicrosoftYaHei-6d" transform="translate(640.625 0)"/>
     </g>
    </g>
   </g>
   <g id="patch_23">
    <path d="M 362.994844 241.3925 
L 362.994844 22.7925 
" style="fill: none; stroke: #000000; stroke-width: 0.8; stroke-linejoin: miter; stroke-linecap: square"/>
   </g>
   <g id="patch_24">
    <path d="M 634.294844 241.3925 
L 634.294844 22.7925 
" style="fill: none; stroke: #000000; stroke-width: 0.8; stroke-linejoin: miter; stroke-linecap: square"/>
   </g>
   <g id="patch_25">
    <path d="M 362.994844 241.3925 
L 634.294844 241.3925 
" style="fill: none; stroke: #000000; stroke-width: 0.8; stroke-linejoin: miter; stroke-linecap: square"/>
   </g>
   <g id="patch_26">
    <path d="M 362.994844 22.7925 
L 634.294844 22.7925 
" style="fill: none; stroke: #000000; stroke-width: 0.8; stroke-linejoin: miter; stroke-linecap: square"/>
   </g>
   <g id="text_26">
    <!-- F₁L₁ = F₂L₂ 验证 -->
    <g transform="translate(452.945469 16.7925) scale(0.12 -0.12)">
     <defs>
      <path id="MicrosoftYaHei-Bold-46" d="M 3319 3997 
L 1591 3997 
L 1591 2753 
L 3181 2753 
L 3181 1909 
L 1591 1909 
L 1591 0 
L 559 0 
L 559 4841 
L 3319 4841 
L 3319 3997 
z
" transform="scale(0.015625)"/>
      <path id="DejaVuSans-Bold-2081" d="M 441 466 
L 1088 466 
L 1088 2094 
L 384 1932 
L 384 2432 
L 1100 2585 
L 1806 2585 
L 1806 466 
L 2444 466 
L 2444 -24 
L 441 -24 
L 441 466 
z
" transform="scale(0.015625)"/>
      <path id="MicrosoftYaHei-Bold-4c" d="M 3400 0 
L 559 0 
L 559 4841 
L 1591 4841 
L 1591 844 
L 3400 844 
L 3400 0 
z
" transform="scale(0.015625)"/>
      <path id="MicrosoftYaHei-Bold-20" transform="scale(0.015625)"/>
      <path id="MicrosoftYaHei-Bold-3d" d="M 4072 2378 
L 797 2378 
L 797 3041 
L 4072 3041 
L 4072 2378 
z
M 4072 916 
L 797 916 
L 797 1578 
L 4072 1578 
L 4072 916 
z
" transform="scale(0.015625)"/>
      <path id="DejaVuSans-Bold-2082" d="M 1288 501 
L 2444 501 
L 2444 -24 
L 341 -24 
L 341 454 
L 1319 1285 
Q 1509 1451 1590 1576 
Q 1672 1701 1672 1826 
Q 1672 1982 1558 2079 
Q 1444 2176 1259 2176 
Q 1066 2176 844 2105 
Q 622 2035 359 1888 
L 359 2469 
Q 631 2554 886 2596 
Q 1141 2638 1375 2638 
Q 1869 2638 2150 2436 
Q 2431 2235 2431 1888 
Q 2431 1663 2320 1474 
Q 2209 1285 1894 1016 
L 1288 501 
z
" transform="scale(0.015625)"/>
      <path id="MicrosoftYaHei-Bold-9a8c" d="M 1138 4053 
L 969 2491 
L 1419 2491 
L 1563 4241 
L 200 4241 
L 200 4991 
L 2369 4991 
L 2163 2491 
L 2525 2491 
Q 2463 691 2413 203 
Q 2369 -553 1838 -672 
Q 1581 -709 644 -709 
Q 588 -253 519 134 
Q 906 91 1350 78 
Q 1669 78 1694 378 
Q 1731 791 1763 1741 
L 181 1741 
L 400 4053 
L 1138 4053 
z
M 5544 2647 
L 3163 2647 
L 3163 2997 
Q 2944 2797 2706 2603 
Q 2525 2991 2300 3391 
Q 3313 4134 3925 5278 
L 4875 5278 
L 4738 5053 
Q 5469 3984 6381 3466 
Q 6163 3116 5950 2691 
Q 5738 2828 5544 2984 
L 5544 2647 
z
M 2556 116 
L 4694 116 
Q 5063 1253 5250 2303 
L 6025 2103 
Q 5775 1141 5438 116 
L 6213 116 
L 6213 -634 
L 2556 -634 
L 2556 116 
z
M 3263 2172 
Q 3569 1397 3856 503 
L 3175 259 
Q 2981 978 2625 1934 
L 3263 2172 
z
M 4425 2428 
Q 4644 1584 4806 753 
L 4113 584 
Q 3988 1366 3763 2278 
L 4425 2428 
z
M 75 1216 
Q 763 1278 1525 1378 
Q 1531 984 1538 628 
Q 838 541 175 428 
L 75 1216 
z
M 4300 4347 
Q 4013 3897 3544 3384 
L 5113 3384 
Q 4663 3859 4300 4347 
z
" transform="scale(0.015625)"/>
      <path id="MicrosoftYaHei-Bold-8bc1" d="M 994 5334 
Q 1356 4822 1756 4184 
Q 1463 4028 1000 3734 
Q 663 4341 306 4903 
L 994 5334 
z
M 1875 278 
L 2388 278 
L 2388 3397 
L 3231 3397 
L 3231 278 
L 3906 278 
L 3906 4091 
L 2075 4091 
L 2075 4916 
L 6225 4916 
L 6225 4091 
L 4750 4091 
L 4750 2678 
L 6075 2678 
L 6075 1859 
L 4750 1859 
L 4750 278 
L 6300 278 
L 6300 -559 
L 1875 -559 
L 1875 278 
z
M 2019 1384 
Q 2044 1116 2169 528 
Q 1575 109 838 -516 
L 450 172 
Q 606 366 613 641 
L 613 2628 
L 113 2628 
L 113 3441 
L 1463 3441 
L 1463 947 
L 2019 1384 
z
" transform="scale(0.015625)"/>
     </defs>
     <use xlink:href="#MicrosoftYaHei-Bold-46"/>
     <use xlink:href="#DejaVuSans-Bold-2081" transform="translate(55.810547 0)"/>
     <use xlink:href="#MicrosoftYaHei-Bold-4c" transform="translate(99.609375 0)"/>
     <use xlink:href="#DejaVuSans-Bold-2081" transform="translate(154.296875 0)"/>
     <use xlink:href="#MicrosoftYaHei-Bold-20" transform="translate(198.095703 0)"/>
     <use xlink:href="#MicrosoftYaHei-Bold-3d" transform="translate(227.880859 0)"/>
     <use xlink:href="#MicrosoftYaHei-Bold-20" transform="translate(304.003906 0)"/>
     <use xlink:href="#MicrosoftYaHei-Bold-46" transform="translate(333.789062 0)"/>
     <use xlink:href="#DejaVuSans-Bold-2082" transform="translate(389.599609 0)"/>
     <use xlink:href="#MicrosoftYaHei-Bold-4c" transform="translate(433.398438 0)"/>
     <use xlink:href="#DejaVuSans-Bold-2082" transform="translate(488.085938 0)"/>
     <use xlink:href="#MicrosoftYaHei-Bold-20" transform="translate(531.884766 0)"/>
     <use xlink:href="#MicrosoftYaHei-Bold-9a8c" transform="translate(561.669922 0)"/>
     <use xlink:href="#MicrosoftYaHei-Bold-8bc1" transform="translate(661.669922 0)"/>
    </g>
   </g>
   <g id="legend_2">
    <g id="patch_27">
     <path d="M 580.411562 57.855938 
L 627.994844 57.855938 
Q 629.794844 57.855938 629.794844 56.055937 
L 629.794844 29.0925 
Q 629.794844 27.2925 627.994844 27.2925 
L 580.411562 27.2925 
Q 578.611562 27.2925 578.611562 29.0925 
L 578.611562 56.055937 
Q 578.611562 57.855938 580.411562 57.855938 
z
" style="fill: #ffffff; opacity: 0.8; stroke: #cccccc; stroke-linejoin: miter"/>
    </g>
    <g id="patch_28">
     <path d="M 582.211563 38.086875 
L 600.211563 38.086875 
L 600.211563 31.786875 
L 582.211563 31.786875 
z
" style="fill: #c0392b; opacity: 0.8"/>
    </g>
    <g id="text_27">
     <!-- F₁·L₁ -->
     <g transform="translate(607.411563 38.086875) scale(0.09 -0.09)">
      <defs>
       <path id="MicrosoftYaHei-4c" d="M 3178 0 
L 625 0 
L 625 4841 
L 1250 4841 
L 1250 553 
L 3178 553 
L 3178 0 
z
" transform="scale(0.015625)"/>
      </defs>
      <use xlink:href="#MicrosoftYaHei-46"/>
      <use xlink:href="#DejaVuSans-2081" transform="translate(53.125 0)"/>
      <use xlink:href="#MicrosoftYaHei-b7" transform="translate(93.212891 0)"/>
      <use xlink:href="#MicrosoftYaHei-4c" transform="translate(117.285156 0)"/>
      <use xlink:href="#DejaVuSans-2081" transform="translate(168.603516 0)"/>
     </g>
    </g>
    <g id="patch_29">
     <path d="M 582.211563 52.018594 
L 600.211563 52.018594 
L 600.211563 45.718594 
L 582.211563 45.718594 
z
" style="fill: #3498db; opacity: 0.8"/>
    </g>
    <g id="text_28">
     <!-- F₂·L₂ -->
     <g transform="translate(607.411563 52.018594) scale(0.09 -0.09)">
      <use xlink:href="#MicrosoftYaHei-46"/>
      <use xlink:href="#DejaVuSans-2082" transform="translate(53.125 0)"/>
      <use xlink:href="#MicrosoftYaHei-b7" transform="translate(93.212891 0)"/>
      <use xlink:href="#MicrosoftYaHei-4c" transform="translate(117.285156 0)"/>
      <use xlink:href="#DejaVuSans-2082" transform="translate(168.603516 0)"/>
     </g>
    </g>
   </g>
  </g>
 </g>
 <defs>
  <clipPath id="pb5d426670b">
   <rect x="47.319844" y="22.7925" width="271.3" height="218.6"/>
  </clipPath>
  <clipPath id="p1dd30e750d">
   <rect x="362.994844" y="22.7925" width="271.3" height="218.6"/>
  </clipPath>
 </defs>
</svg>
