<?xml version="1.0" encoding="utf-8" standalone="no"?>
<!DOCTYPE svg PUBLIC "-//W3C//DTD SVG 1.1//EN"
  "http://www.w3.org/Graphics/SVG/1.1/DTD/svg11.dtd">
<svg xmlns:xlink="http://www.w3.org/1999/xlink" width="496.742812pt" height="280.447812pt" viewBox="0 0 496.742812 280.447812" xmlns="http://www.w3.org/2000/svg" version="1.1">
 <metadata>
  <rdf:RDF xmlns:dc="http://purl.org/dc/elements/1.1/" xmlns:cc="http://creativecommons.org/ns#" xmlns:rdf="http://www.w3.org/1999/02/22-rdf-syntax-ns#">
   <cc:Work>
    <dc:type rdf:resource="http://purl.org/dc/dcmitype/StillImage"/>
    <dc:date>2026-05-22T14:45:24.822843</dc:date>
    <dc:format>image/svg+xml</dc:format>
    <dc:creator>
     <cc:Agent>
      <dc:title>Matplotlib v3.10.9, https://matplotlib.org/</dc:title>
     </cc:Agent>
    </dc:creator>
   </cc:Work>
  </rdf:RDF>
 </metadata>
 <defs>
  <style type="text/css">*{stroke-linejoin: round; stroke-linecap: butt}</style>
 </defs>
 <g id="figure_1">
  <g id="patch_1">
   <path d="M 0 280.447812 
L 496.742812 280.447812 
L 496.742812 0 
L 0 0 
L 0 280.447812 
z
" style="fill: none"/>
  </g>
  <g id="axes_1">
   <g id="patch_2">
    <path d="M 42.50375 239.1925 
L 483.67875 239.1925 
L 483.67875 22.7925 
L 42.50375 22.7925 
L 42.50375 239.1925 
z
" style="fill: none"/>
   </g>
   <g id="FillBetweenPolyCollection_1">
    <defs>
     <path id="me8fbe47ffe" d="M 237.009762 -257.655313 
L 237.009762 -239.078708 
L 237.89388 -238.832921 
L 238.777998 -238.578895 
L 239.662117 -238.316016 
L 240.546235 -238.043602 
L 241.430353 -237.760886 
L 242.314471 -237.467006 
L 243.19859 -237.16099 
L 244.082708 -236.84173 
L 244.966826 -236.507961 
L 245.850944 -236.158229 
L 246.735063 -235.790849 
L 247.619181 -235.403855 
L 248.503299 -234.994934 
L 249.387417 -234.56134 
L 250.271536 -234.099774 
L 251.155654 -233.606232 
L 252.039772 -233.075784 
L 252.92389 -232.502263 
L 253.808009 -231.877818 
L 254.692127 -231.192234 
L 255.576245 -230.431882 
L 256.460363 -229.577996 
L 257.344481 -228.603723 
L 258.2286 -227.46868 
L 259.112718 -149.455313 
L 259.996836 -149.455313 
L 260.880954 -149.455313 
L 261.765073 -149.455313 
L 262.649191 -149.455313 
L 263.533309 -149.455313 
L 264.417427 -149.455313 
L 265.301546 -149.455313 
L 266.185664 -149.455313 
L 267.069782 -149.455313 
L 267.9539 -71.589932 
L 268.838019 -70.481799 
L 269.722137 -69.534436 
L 270.606255 -68.707463 
L 271.490373 -67.974025 
L 272.374491 -67.315358 
L 273.25861 -66.717832 
L 274.142728 -66.171232 
L 275.026846 -65.667707 
L 275.910964 -65.201092 
L 276.795083 -64.766457 
L 277.679201 -64.359795 
L 278.563319 -63.977811 
L 279.447437 -63.617758 
L 280.331556 -63.277323 
L 281.215674 -62.954539 
L 282.099792 -62.647724 
L 282.98391 -62.355422 
L 283.868029 -62.076369 
L 284.752147 -61.809458 
L 285.636265 -61.553715 
L 286.520383 -61.308279 
L 287.404502 -61.072385 
L 288.28862 -60.845349 
L 289.172738 -60.626559 
L 289.172738 -257.655313 
L 289.172738 -257.655313 
L 288.28862 -257.655313 
L 287.404502 -257.655313 
L 286.520383 -257.655313 
L 285.636265 -257.655313 
L 284.752147 -257.655313 
L 283.868029 -257.655313 
L 282.98391 -257.655313 
L 282.099792 -257.655313 
L 281.215674 -257.655313 
L 280.331556 -257.655313 
L 279.447437 -257.655313 
L 278.563319 -257.655313 
L 277.679201 -257.655313 
L 276.795083 -257.655313 
L 275.910964 -257.655313 
L 275.026846 -257.655313 
L 274.142728 -257.655313 
L 273.25861 -257.655313 
L 272.374491 -257.655313 
L 271.490373 -257.655313 
L 270.606255 -257.655313 
L 269.722137 -257.655313 
L 268.838019 -257.655313 
L 267.9539 -257.655313 
L 267.069782 -257.655313 
L 266.185664 -257.655313 
L 265.301546 -257.655313 
L 264.417427 -257.655313 
L 263.533309 -257.655313 
L 262.649191 -257.655313 
L 261.765073 -257.655313 
L 260.880954 -257.655313 
L 259.996836 -257.655313 
L 259.112718 -257.655313 
L 258.2286 -257.655313 
L 257.344481 -257.655313 
L 256.460363 -257.655313 
L 255.576245 -257.655313 
L 254.692127 -257.655313 
L 253.808009 -257.655313 
L 252.92389 -257.655313 
L 252.039772 -257.655313 
L 251.155654 -257.655313 
L 250.271536 -257.655313 
L 249.387417 -257.655313 
L 248.503299 -257.655313 
L 247.619181 -257.655313 
L 246.735063 -257.655313 
L 245.850944 -257.655313 
L 244.966826 -257.655313 
L 244.082708 -257.655313 
L 243.19859 -257.655313 
L 242.314471 -257.655313 
L 241.430353 -257.655313 
L 240.546235 -257.655313 
L 239.662117 -257.655313 
L 238.777998 -257.655313 
L 237.89388 -257.655313 
L 237.009762 -257.655313 
z
" style="stroke: #fde8e8; stroke-opacity: 0.4"/>
    </defs>
    <g clip-path="url(#pa325b89472)">
     <use xlink:href="#me8fbe47ffe" x="0" y="280.447812" style="fill: #fde8e8; fill-opacity: 0.4; stroke: #fde8e8; stroke-opacity: 0.4"/>
    </g>
   </g>
   <g id="matplotlib.axis_1">
    <g id="xtick_1">
     <g id="line2d_1">
      <path d="M 42.50375 239.1925 
L 42.50375 22.7925 
" clip-path="url(#pa325b89472)" style="fill: none; stroke: #b0b0b0; stroke-opacity: 0.3; stroke-width: 0.8; stroke-linecap: square"/>
     </g>
     <g id="line2d_2">
      <defs>
       <path id="m93a443c6b6" d="M 0 0 
L 0 3.5 
" style="stroke: #000000; stroke-width: 0.8"/>
      </defs>
      <g>
       <use xlink:href="#m93a443c6b6" x="42.50375" y="239.1925" style="stroke: #000000; stroke-width: 0.8"/>
      </g>
     </g>
     <g id="text_1">
      <!-- 0 -->
      <g transform="translate(39.571719 254.18625) scale(0.1 -0.1)">
       <defs>
        <path id="MicrosoftYaHei-30" d="M 284 2325 
Q 284 3606 709 4264 
Q 1134 4922 1941 4922 
Q 3478 4922 3478 2441 
Q 3478 1216 3045 567 
Q 2613 -81 1831 -81 
Q 1094 -81 689 534 
Q 284 1150 284 2325 
z
M 909 2353 
Q 909 425 1888 425 
Q 2850 425 2850 2384 
Q 2850 4413 1906 4413 
Q 909 4413 909 2353 
z
" transform="scale(0.015625)"/>
       </defs>
       <use xlink:href="#MicrosoftYaHei-30"/>
      </g>
     </g>
    </g>
    <g id="xtick_2">
     <g id="line2d_3">
      <path d="M 130.73875 239.1925 
L 130.73875 22.7925 
" clip-path="url(#pa325b89472)" style="fill: none; stroke: #b0b0b0; stroke-opacity: 0.3; stroke-width: 0.8; stroke-linecap: square"/>
     </g>
     <g id="line2d_4">
      <g>
       <use xlink:href="#m93a443c6b6" x="130.73875" y="239.1925" style="stroke: #000000; stroke-width: 0.8"/>
      </g>
     </g>
     <g id="text_2">
      <!-- 10 -->
      <g transform="translate(124.874687 254.18625) scale(0.1 -0.1)">
       <defs>
        <path id="MicrosoftYaHei-31" d="M 1781 0 
L 1781 4141 
Q 1638 3997 1295 3819 
Q 953 3641 663 3569 
L 663 4169 
Q 1047 4275 1484 4508 
Q 1922 4741 2156 4947 
L 2388 4947 
L 2388 0 
L 1781 0 
z
" transform="scale(0.015625)"/>
       </defs>
       <use xlink:href="#MicrosoftYaHei-31"/>
       <use xlink:href="#MicrosoftYaHei-30" transform="translate(58.642578 0)"/>
      </g>
     </g>
    </g>
    <g id="xtick_3">
     <g id="line2d_5">
      <path d="M 218.97375 239.1925 
L 218.97375 22.7925 
" clip-path="url(#pa325b89472)" style="fill: none; stroke: #b0b0b0; stroke-opacity: 0.3; stroke-width: 0.8; stroke-linecap: square"/>
     </g>
     <g id="line2d_6">
      <g>
       <use xlink:href="#m93a443c6b6" x="218.97375" y="239.1925" style="stroke: #000000; stroke-width: 0.8"/>
      </g>
     </g>
     <g id="text_3">
      <!-- 20 -->
      <g transform="translate(213.109687 254.18625) scale(0.1 -0.1)">
       <defs>
        <path id="MicrosoftYaHei-32" d="M 2666 3572 
Q 2666 3963 2419 4186 
Q 2172 4409 1747 4409 
Q 1447 4409 1140 4256 
Q 834 4103 569 3819 
L 569 4413 
Q 806 4659 1107 4790 
Q 1409 4922 1816 4922 
Q 2472 4922 2872 4570 
Q 3272 4219 3272 3619 
Q 3272 3084 3026 2693 
Q 2781 2303 2188 1894 
Q 1581 1475 1376 1294 
Q 1172 1113 1090 947 
Q 1009 781 1009 544 
L 3416 544 
L 3416 0 
L 372 0 
L 372 241 
Q 372 659 486 951 
Q 600 1244 862 1520 
Q 1125 1797 1681 2184 
Q 2250 2584 2458 2886 
Q 2666 3188 2666 3572 
z
" transform="scale(0.015625)"/>
       </defs>
       <use xlink:href="#MicrosoftYaHei-32"/>
       <use xlink:href="#MicrosoftYaHei-30" transform="translate(58.642578 0)"/>
      </g>
     </g>
    </g>
    <g id="xtick_4">
     <g id="line2d_7">
      <path d="M 307.20875 239.1925 
L 307.20875 22.7925 
" clip-path="url(#pa325b89472)" style="fill: none; stroke: #b0b0b0; stroke-opacity: 0.3; stroke-width: 0.8; stroke-linecap: square"/>
     </g>
     <g id="line2d_8">
      <g>
       <use xlink:href="#m93a443c6b6" x="307.20875" y="239.1925" style="stroke: #000000; stroke-width: 0.8"/>
      </g>
     </g>
     <g id="text_4">
      <!-- 30 -->
      <g transform="translate(301.344688 254.18625) scale(0.1 -0.1)">
       <defs>
        <path id="MicrosoftYaHei-33" d="M 447 809 
Q 944 425 1569 425 
Q 2069 425 2361 670 
Q 2653 916 2653 1328 
Q 2653 2247 1338 2247 
L 934 2247 
L 934 2753 
L 1319 2753 
Q 2484 2753 2484 3616 
Q 2484 4413 1594 4413 
Q 1084 4413 634 4069 
L 634 4647 
Q 1109 4922 1744 4922 
Q 2363 4922 2738 4598 
Q 3113 4275 3113 3759 
Q 3113 2809 2144 2538 
L 2144 2525 
Q 2669 2469 2973 2155 
Q 3278 1841 3278 1372 
Q 3278 719 2808 319 
Q 2338 -81 1556 -81 
Q 869 -81 447 175 
L 447 809 
z
" transform="scale(0.015625)"/>
       </defs>
       <use xlink:href="#MicrosoftYaHei-33"/>
       <use xlink:href="#MicrosoftYaHei-30" transform="translate(58.642578 0)"/>
      </g>
     </g>
    </g>
    <g id="xtick_5">
     <g id="line2d_9">
      <path d="M 395.44375 239.1925 
L 395.44375 22.7925 
" clip-path="url(#pa325b89472)" style="fill: none; stroke: #b0b0b0; stroke-opacity: 0.3; stroke-width: 0.8; stroke-linecap: square"/>
     </g>
     <g id="line2d_10">
      <g>
       <use xlink:href="#m93a443c6b6" x="395.44375" y="239.1925" style="stroke: #000000; stroke-width: 0.8"/>
      </g>
     </g>
     <g id="text_5">
      <!-- 40 -->
      <g transform="translate(389.579687 254.18625) scale(0.1 -0.1)">
       <defs>
        <path id="MicrosoftYaHei-34" d="M 2906 4841 
L 2906 1644 
L 3631 1644 
L 3631 1138 
L 2906 1138 
L 2906 0 
L 2313 0 
L 2313 1138 
L 53 1138 
L 53 1616 
Q 656 2294 1265 3178 
Q 1875 4063 2272 4841 
L 2906 4841 
z
M 741 1644 
L 2313 1644 
L 2313 3950 
Q 1988 3366 1616 2817 
Q 1244 2269 741 1644 
z
" transform="scale(0.015625)"/>
       </defs>
       <use xlink:href="#MicrosoftYaHei-34"/>
       <use xlink:href="#MicrosoftYaHei-30" transform="translate(58.642578 0)"/>
      </g>
     </g>
    </g>
    <g id="xtick_6">
     <g id="line2d_11">
      <path d="M 483.67875 239.1925 
L 483.67875 22.7925 
" clip-path="url(#pa325b89472)" style="fill: none; stroke: #b0b0b0; stroke-opacity: 0.3; stroke-width: 0.8; stroke-linecap: square"/>
     </g>
     <g id="line2d_12">
      <g>
       <use xlink:href="#m93a443c6b6" x="483.67875" y="239.1925" style="stroke: #000000; stroke-width: 0.8"/>
      </g>
     </g>
     <g id="text_6">
      <!-- 50 -->
      <g transform="translate(477.814687 254.18625) scale(0.1 -0.1)">
       <defs>
        <path id="MicrosoftYaHei-35" d="M 3294 1494 
Q 3294 784 2823 350 
Q 2353 -84 1559 -84 
Q 878 -84 544 119 
L 544 744 
Q 1034 425 1544 425 
Q 2050 425 2361 704 
Q 2672 984 2672 1447 
Q 2672 1909 2348 2167 
Q 2025 2425 1434 2425 
Q 978 2425 613 2384 
L 791 4841 
L 3053 4841 
L 3053 4303 
L 1306 4303 
L 1206 2931 
L 1647 2950 
Q 2416 2950 2855 2567 
Q 3294 2184 3294 1494 
z
" transform="scale(0.015625)"/>
       </defs>
       <use xlink:href="#MicrosoftYaHei-35"/>
       <use xlink:href="#MicrosoftYaHei-30" transform="translate(58.642578 0)"/>
      </g>
     </g>
    </g>
    <g id="text_7">
     <!-- 加入 HCl 体积 / mL -->
     <g transform="translate(210.474062 270.264687) scale(0.12 -0.12)">
      <defs>
       <path id="MicrosoftYaHei-52a0" d="M 3663 4484 
L 6038 4484 
L 6038 -666 
L 5544 -666 
L 5544 -34 
L 4156 -34 
L 4156 -666 
L 3663 -666 
L 3663 4484 
z
M 231 4178 
L 1103 4178 
Q 1109 4681 1106 5297 
L 1600 5297 
Q 1600 4675 1594 4178 
L 3050 4178 
Q 3019 1778 2969 409 
Q 2944 -716 2119 -672 
Q 1875 -672 1400 -653 
Q 1356 -391 1300 -109 
Q 1738 -166 2013 -166 
Q 2431 -178 2469 428 
Q 2538 1909 2550 3703 
L 1588 3703 
Q 1581 3225 1569 2891 
Q 1544 447 394 -872 
Q 238 -678 25 -453 
Q 1063 684 1081 2941 
Q 1094 3269 1100 3703 
L 231 3703 
L 231 4178 
z
M 5544 4022 
L 4156 4022 
L 4156 416 
L 5544 416 
L 5544 4022 
z
" transform="scale(0.015625)"/>
       <path id="MicrosoftYaHei-5165" d="M 1831 4947 
L 2244 5241 
Q 2944 4809 3781 3028 
Q 4950 472 6319 -91 
L 5881 -641 
Q 4513 172 3350 2784 
Q 3256 2994 3166 3184 
Q 2441 700 469 -678 
Q 300 -428 88 -209 
Q 2116 1069 2819 3834 
Q 2328 4653 1831 4947 
z
" transform="scale(0.015625)"/>
       <path id="MicrosoftYaHei-20" transform="scale(0.015625)"/>
       <path id="MicrosoftYaHei-48" d="M 4325 0 
L 3700 0 
L 3700 2181 
L 1250 2181 
L 1250 0 
L 625 0 
L 625 4841 
L 1250 4841 
L 1250 2738 
L 3700 2738 
L 3700 4841 
L 4325 4841 
L 4325 0 
z
" transform="scale(0.015625)"/>
       <path id="MicrosoftYaHei-43" d="M 3938 200 
Q 3403 -81 2597 -81 
Q 1556 -81 934 580 
Q 313 1241 313 2328 
Q 313 3497 1013 4209 
Q 1713 4922 2791 4922 
Q 3484 4922 3938 4725 
L 3938 4072 
Q 3419 4359 2797 4359 
Q 1988 4359 1478 3820 
Q 969 3281 969 2366 
Q 969 1497 1444 986 
Q 1919 475 2688 475 
Q 3406 475 3938 800 
L 3938 200 
z
" transform="scale(0.015625)"/>
       <path id="MicrosoftYaHei-6c" d="M 544 0 
L 544 5116 
L 1156 5116 
L 1156 0 
L 544 0 
z
" transform="scale(0.015625)"/>
       <path id="MicrosoftYaHei-4f53" d="M 6350 778 
Q 6138 522 5981 316 
Q 4731 1278 4144 3572 
L 4144 934 
L 5063 934 
L 5063 484 
L 4144 484 
L 4144 -822 
L 3681 -822 
L 3681 484 
L 2763 484 
L 2763 934 
L 3681 934 
L 3681 3572 
L 3666 3572 
Q 3084 1413 1750 216 
Q 1606 397 1419 609 
Q 2625 1713 3225 3572 
L 1756 3572 
L 1756 4022 
L 3681 4022 
L 3681 5297 
L 4144 5297 
L 4144 4022 
L 6138 4022 
L 6138 3572 
L 4547 3572 
Q 5144 1628 6350 778 
z
M 56 2297 
Q 963 3622 1406 5316 
L 1881 5178 
Q 1638 4381 1331 3681 
L 1331 -816 
L 869 -816 
L 869 2741 
Q 588 2231 269 1784 
Q 175 2041 56 2297 
z
" transform="scale(0.015625)"/>
       <path id="MicrosoftYaHei-79ef" d="M 2813 4784 
L 5975 4784 
L 5975 1528 
L 5500 1528 
L 5500 1828 
L 3288 1828 
L 3288 1528 
L 2813 1528 
L 2813 4784 
z
M 88 853 
Q 669 1728 1056 2947 
L 119 2947 
L 119 3384 
L 1119 3384 
L 1119 4378 
Q 713 4347 244 4316 
Q 213 4541 150 4772 
Q 1425 4841 2375 4978 
L 2488 4503 
Q 2106 4459 1581 4416 
L 1581 3384 
L 2513 3384 
L 2513 2947 
L 1581 2947 
L 1581 2066 
L 1831 2297 
Q 2213 1922 2644 1441 
L 2288 1128 
Q 1950 1541 1581 1934 
L 1581 -853 
L 1119 -853 
L 1119 1928 
Q 781 997 306 316 
Q 206 591 88 853 
z
M 5500 4359 
L 3288 4359 
L 3288 2253 
L 5500 2253 
L 5500 4359 
z
M 3475 1128 
L 3888 834 
Q 3175 -66 2519 -759 
Q 2369 -597 2163 -416 
Q 2925 353 3475 1128 
z
M 4775 828 
L 5163 1097 
Q 5738 441 6356 -372 
L 5919 -703 
Q 5369 109 4775 828 
z
" transform="scale(0.015625)"/>
       <path id="MicrosoftYaHei-2f" d="M 2791 4841 
L 469 -803 
L -103 -803 
L 2219 4841 
L 2791 4841 
z
" transform="scale(0.015625)"/>
       <path id="MicrosoftYaHei-6d" d="M 5522 0 
L 4909 0 
L 4909 1984 
Q 4909 2547 4734 2789 
Q 4559 3031 4159 3031 
Q 3822 3031 3581 2715 
Q 3341 2400 3341 1969 
L 3341 0 
L 2728 0 
L 2728 2047 
Q 2728 3031 1969 3031 
Q 1619 3031 1389 2731 
Q 1159 2431 1159 1966 
L 1159 0 
L 547 0 
L 547 3456 
L 1159 3456 
L 1159 2909 
L 1172 2909 
Q 1541 3538 2250 3538 
Q 2597 3538 2862 3347 
Q 3128 3156 3231 2831 
Q 3616 3538 4381 3538 
Q 5522 3538 5522 2131 
L 5522 0 
z
" transform="scale(0.015625)"/>
       <path id="MicrosoftYaHei-4c" d="M 3178 0 
L 625 0 
L 625 4841 
L 1250 4841 
L 1250 553 
L 3178 553 
L 3178 0 
z
" transform="scale(0.015625)"/>
      </defs>
      <use xlink:href="#MicrosoftYaHei-52a0"/>
      <use xlink:href="#MicrosoftYaHei-5165" transform="translate(100 0)"/>
      <use xlink:href="#MicrosoftYaHei-20" transform="translate(200 0)"/>
      <use xlink:href="#MicrosoftYaHei-48" transform="translate(229.589844 0)"/>
      <use xlink:href="#MicrosoftYaHei-43" transform="translate(306.933594 0)"/>
      <use xlink:href="#MicrosoftYaHei-6c" transform="translate(373.828125 0)"/>
      <use xlink:href="#MicrosoftYaHei-20" transform="translate(400.439453 0)"/>
      <use xlink:href="#MicrosoftYaHei-4f53" transform="translate(430.029297 0)"/>
      <use xlink:href="#MicrosoftYaHei-79ef" transform="translate(530.029297 0)"/>
      <use xlink:href="#MicrosoftYaHei-20" transform="translate(630.029297 0)"/>
      <use xlink:href="#MicrosoftYaHei-2f" transform="translate(659.619141 0)"/>
      <use xlink:href="#MicrosoftYaHei-20" transform="translate(702.34375 0)"/>
      <use xlink:href="#MicrosoftYaHei-6d" transform="translate(731.933594 0)"/>
      <use xlink:href="#MicrosoftYaHei-4c" transform="translate(825.634766 0)"/>
     </g>
    </g>
   </g>
   <g id="matplotlib.axis_2">
    <g id="ytick_1">
     <g id="line2d_13">
      <path d="M 42.50375 239.1925 
L 483.67875 239.1925 
" clip-path="url(#pa325b89472)" style="fill: none; stroke: #b0b0b0; stroke-opacity: 0.3; stroke-width: 0.8; stroke-linecap: square"/>
     </g>
     <g id="line2d_14">
      <defs>
       <path id="mc15c9d524c" d="M 0 0 
L -3.5 0 
" style="stroke: #000000; stroke-width: 0.8"/>
      </defs>
      <g>
       <use xlink:href="#mc15c9d524c" x="42.50375" y="239.1925" style="stroke: #000000; stroke-width: 0.8"/>
      </g>
     </g>
     <g id="text_8">
      <!-- 0 -->
      <g transform="translate(29.639687 243.189375) scale(0.1 -0.1)">
       <use xlink:href="#MicrosoftYaHei-30"/>
      </g>
     </g>
    </g>
    <g id="ytick_2">
     <g id="line2d_15">
      <path d="M 42.50375 208.278214 
L 483.67875 208.278214 
" clip-path="url(#pa325b89472)" style="fill: none; stroke: #b0b0b0; stroke-opacity: 0.3; stroke-width: 0.8; stroke-linecap: square"/>
     </g>
     <g id="line2d_16">
      <g>
       <use xlink:href="#mc15c9d524c" x="42.50375" y="208.278214" style="stroke: #000000; stroke-width: 0.8"/>
      </g>
     </g>
     <g id="text_9">
      <!-- 2 -->
      <g transform="translate(29.639687 212.275089) scale(0.1 -0.1)">
       <use xlink:href="#MicrosoftYaHei-32"/>
      </g>
     </g>
    </g>
    <g id="ytick_3">
     <g id="line2d_17">
      <path d="M 42.50375 177.363929 
L 483.67875 177.363929 
" clip-path="url(#pa325b89472)" style="fill: none; stroke: #b0b0b0; stroke-opacity: 0.3; stroke-width: 0.8; stroke-linecap: square"/>
     </g>
     <g id="line2d_18">
      <g>
       <use xlink:href="#mc15c9d524c" x="42.50375" y="177.363929" style="stroke: #000000; stroke-width: 0.8"/>
      </g>
     </g>
     <g id="text_10">
      <!-- 4 -->
      <g transform="translate(29.639687 181.360804) scale(0.1 -0.1)">
       <use xlink:href="#MicrosoftYaHei-34"/>
      </g>
     </g>
    </g>
    <g id="ytick_4">
     <g id="line2d_19">
      <path d="M 42.50375 146.449643 
L 483.67875 146.449643 
" clip-path="url(#pa325b89472)" style="fill: none; stroke: #b0b0b0; stroke-opacity: 0.3; stroke-width: 0.8; stroke-linecap: square"/>
     </g>
     <g id="line2d_20">
      <g>
       <use xlink:href="#mc15c9d524c" x="42.50375" y="146.449643" style="stroke: #000000; stroke-width: 0.8"/>
      </g>
     </g>
     <g id="text_11">
      <!-- 6 -->
      <g transform="translate(29.639687 150.446518) scale(0.1 -0.1)">
       <defs>
        <path id="MicrosoftYaHei-36" d="M 3181 4219 
Q 2803 4413 2391 4413 
Q 1763 4413 1381 3866 
Q 1000 3319 994 2372 
L 1009 2372 
Q 1353 3038 2106 3038 
Q 2734 3038 3109 2628 
Q 3484 2219 3484 1541 
Q 3484 831 3051 375 
Q 2619 -81 1947 -81 
Q 1209 -81 789 495 
Q 369 1072 369 2131 
Q 369 3413 920 4167 
Q 1472 4922 2372 4922 
Q 2888 4922 3181 4781 
L 3181 4219 
z
M 1031 1584 
Q 1031 1106 1286 765 
Q 1541 425 1963 425 
Q 2363 425 2613 719 
Q 2863 1013 2863 1475 
Q 2863 1975 2627 2253 
Q 2391 2531 1956 2531 
Q 1544 2531 1287 2250 
Q 1031 1969 1031 1584 
z
" transform="scale(0.015625)"/>
       </defs>
       <use xlink:href="#MicrosoftYaHei-36"/>
      </g>
     </g>
    </g>
    <g id="ytick_5">
     <g id="line2d_21">
      <path d="M 42.50375 115.535357 
L 483.67875 115.535357 
" clip-path="url(#pa325b89472)" style="fill: none; stroke: #b0b0b0; stroke-opacity: 0.3; stroke-width: 0.8; stroke-linecap: square"/>
     </g>
     <g id="line2d_22">
      <g>
       <use xlink:href="#mc15c9d524c" x="42.50375" y="115.535357" style="stroke: #000000; stroke-width: 0.8"/>
      </g>
     </g>
     <g id="text_12">
      <!-- 8 -->
      <g transform="translate(29.639687 119.532232) scale(0.1 -0.1)">
       <defs>
        <path id="MicrosoftYaHei-38" d="M 306 1350 
Q 306 1769 556 2122 
Q 806 2475 1200 2625 
Q 884 2803 700 3081 
Q 516 3359 516 3684 
Q 516 4028 692 4312 
Q 869 4597 1183 4759 
Q 1497 4922 1875 4922 
Q 2256 4922 2572 4761 
Q 2888 4600 3063 4315 
Q 3238 4031 3238 3684 
Q 3238 3366 3058 3086 
Q 2878 2806 2559 2625 
Q 2953 2472 3200 2119 
Q 3447 1766 3447 1350 
Q 3447 938 3250 611 
Q 3053 284 2690 103 
Q 2328 -78 1875 -78 
Q 1425 -78 1065 103 
Q 706 284 506 612 
Q 306 941 306 1350 
z
M 906 1378 
Q 906 947 1172 687 
Q 1438 428 1878 428 
Q 2309 428 2582 692 
Q 2856 956 2856 1378 
Q 2856 1778 2579 2051 
Q 2303 2325 1878 2325 
Q 1456 2325 1181 2058 
Q 906 1791 906 1378 
z
M 1081 3634 
Q 1081 3309 1312 3076 
Q 1544 2844 1878 2844 
Q 2206 2844 2445 3078 
Q 2684 3313 2684 3634 
Q 2684 3963 2454 4191 
Q 2225 4419 1878 4419 
Q 1534 4419 1307 4195 
Q 1081 3972 1081 3634 
z
" transform="scale(0.015625)"/>
       </defs>
       <use xlink:href="#MicrosoftYaHei-38"/>
      </g>
     </g>
    </g>
    <g id="ytick_6">
     <g id="line2d_23">
      <path d="M 42.50375 84.621071 
L 483.67875 84.621071 
" clip-path="url(#pa325b89472)" style="fill: none; stroke: #b0b0b0; stroke-opacity: 0.3; stroke-width: 0.8; stroke-linecap: square"/>
     </g>
     <g id="line2d_24">
      <g>
       <use xlink:href="#mc15c9d524c" x="42.50375" y="84.621071" style="stroke: #000000; stroke-width: 0.8"/>
      </g>
     </g>
     <g id="text_13">
      <!-- 10 -->
      <g transform="translate(23.775625 88.617946) scale(0.1 -0.1)">
       <use xlink:href="#MicrosoftYaHei-31"/>
       <use xlink:href="#MicrosoftYaHei-30" transform="translate(58.642578 0)"/>
      </g>
     </g>
    </g>
    <g id="ytick_7">
     <g id="line2d_25">
      <path d="M 42.50375 53.706786 
L 483.67875 53.706786 
" clip-path="url(#pa325b89472)" style="fill: none; stroke: #b0b0b0; stroke-opacity: 0.3; stroke-width: 0.8; stroke-linecap: square"/>
     </g>
     <g id="line2d_26">
      <g>
       <use xlink:href="#mc15c9d524c" x="42.50375" y="53.706786" style="stroke: #000000; stroke-width: 0.8"/>
      </g>
     </g>
     <g id="text_14">
      <!-- 12 -->
      <g transform="translate(23.775625 57.703661) scale(0.1 -0.1)">
       <use xlink:href="#MicrosoftYaHei-31"/>
       <use xlink:href="#MicrosoftYaHei-32" transform="translate(58.642578 0)"/>
      </g>
     </g>
    </g>
    <g id="ytick_8">
     <g id="line2d_27">
      <path d="M 42.50375 22.7925 
L 483.67875 22.7925 
" clip-path="url(#pa325b89472)" style="fill: none; stroke: #b0b0b0; stroke-opacity: 0.3; stroke-width: 0.8; stroke-linecap: square"/>
     </g>
     <g id="line2d_28">
      <g>
       <use xlink:href="#mc15c9d524c" x="42.50375" y="22.7925" style="stroke: #000000; stroke-width: 0.8"/>
      </g>
     </g>
     <g id="text_15">
      <!-- 14 -->
      <g transform="translate(23.775625 26.789375) scale(0.1 -0.1)">
       <use xlink:href="#MicrosoftYaHei-31"/>
       <use xlink:href="#MicrosoftYaHei-34" transform="translate(58.642578 0)"/>
      </g>
     </g>
    </g>
    <g id="text_16">
     <!-- pH -->
     <g transform="translate(16.7925 139.465625) rotate(-90) scale(0.12 -0.12)">
      <defs>
       <path id="MicrosoftYaHei-70" d="M 1159 488 
L 1159 -1591 
L 547 -1591 
L 547 3456 
L 1159 3456 
L 1159 2859 
L 1172 2859 
Q 1578 3538 2359 3538 
Q 3022 3538 3398 3073 
Q 3775 2609 3775 1828 
Q 3775 966 3348 442 
Q 2922 -81 2200 -81 
Q 1534 -81 1172 488 
L 1159 488 
z
M 1156 1425 
Q 1156 1003 1428 714 
Q 1700 425 2109 425 
Q 2597 425 2872 800 
Q 3147 1175 3147 1838 
Q 3147 2397 2890 2714 
Q 2634 3031 2191 3031 
Q 1738 3031 1447 2709 
Q 1156 2388 1156 1884 
L 1156 1425 
z
" transform="scale(0.015625)"/>
      </defs>
      <use xlink:href="#MicrosoftYaHei-70"/>
      <use xlink:href="#MicrosoftYaHei-48" transform="translate(63.867188 0)"/>
     </g>
    </g>
   </g>
   <g id="line2d_29">
    <path d="M 42.50375 22.7925 
L 105.276145 26.721548 
L 136.220283 28.882424 
L 159.207357 30.698159 
L 177.77384 32.379616 
L 192.80385 33.958196 
L 205.181506 35.478916 
L 214.906806 36.881303 
L 222.86387 38.227476 
L 229.936816 39.642956 
L 235.241526 40.900096 
L 239.662117 42.131796 
L 244.082708 43.606083 
L 247.619181 45.043957 
L 250.271536 46.348038 
L 252.92389 47.94555 
L 254.692127 49.255578 
L 256.460363 50.869817 
L 258.2286 52.979132 
L 259.112718 130.9925 
L 267.069782 130.9925 
L 267.9539 208.857881 
L 269.722137 210.913376 
L 271.490373 212.473788 
L 273.25861 213.729981 
L 275.910964 215.24672 
L 278.563319 216.470001 
L 282.099792 217.800088 
L 285.636265 218.894098 
L 290.056856 220.032349 
L 295.361566 221.162259 
L 301.550393 222.252855 
L 309.507457 223.404787 
L 318.34864 224.454582 
L 328.958059 225.491642 
L 342.219832 226.549741 
L 358.13396 227.577658 
L 376.700443 228.547002 
L 399.687518 229.511427 
L 427.095183 230.427843 
L 460.691676 231.316153 
L 483.67875 231.817569 
L 483.67875 231.817569 
" clip-path="url(#pa325b89472)" style="fill: none; stroke: #c0392b; stroke-width: 2.5; stroke-linecap: square"/>
   </g>
   <g id="line2d_30">
    <path d="M 263.09125 239.1925 
L 263.09125 22.7925 
" clip-path="url(#pa325b89472)" style="fill: none; stroke-dasharray: 4.44,1.92; stroke-dashoffset: 0; stroke: #e67e22; stroke-width: 1.2"/>
   </g>
   <g id="line2d_31">
    <path d="M 42.50375 130.9925 
L 483.67875 130.9925 
" clip-path="url(#pa325b89472)" style="fill: none; stroke-dasharray: 1,1.65; stroke-dashoffset: 0; stroke: #999999"/>
   </g>
   <g id="patch_3">
    <path d="M 42.50375 239.1925 
L 42.50375 22.7925 
" style="fill: none; stroke: #000000; stroke-width: 0.8; stroke-linejoin: miter; stroke-linecap: square"/>
   </g>
   <g id="patch_4">
    <path d="M 483.67875 239.1925 
L 483.67875 22.7925 
" style="fill: none; stroke: #000000; stroke-width: 0.8; stroke-linejoin: miter; stroke-linecap: square"/>
   </g>
   <g id="patch_5">
    <path d="M 42.50375 239.1925 
L 483.67875 239.1925 
" style="fill: none; stroke: #000000; stroke-width: 0.8; stroke-linejoin: miter; stroke-linecap: square"/>
   </g>
   <g id="patch_6">
    <path d="M 42.50375 22.7925 
L 483.67875 22.7925 
" style="fill: none; stroke: #000000; stroke-width: 0.8; stroke-linejoin: miter; stroke-linecap: square"/>
   </g>
   <g id="text_17">
    <g id="patch_7">
     <path d="M 271.91475 121.524107 
L 327.91475 121.524107 
Q 331.91475 121.524107 331.91475 117.524107 
L 331.91475 89.814857 
Q 331.91475 85.814857 327.91475 85.814857 
L 271.91475 85.814857 
Q 267.91475 85.814857 267.91475 89.814857 
L 267.91475 117.524107 
Q 267.91475 121.524107 271.91475 121.524107 
z
" style="fill: #fffbe6; opacity: 0.9; stroke: #000000; stroke-linejoin: miter"/>
    </g>
    <!-- 指示剂变色区间 -->
    <g transform="translate(271.91475 96.209857) scale(0.08 -0.08)">
     <defs>
      <path id="MicrosoftYaHei-6307" d="M 2556 2316 
L 5856 2316 
L 5856 -822 
L 5381 -822 
L 5381 -441 
L 3031 -441 
L 3031 -822 
L 2556 -822 
L 2556 2316 
z
M 88 1978 
Q 550 2088 975 2194 
L 975 3647 
L 144 3647 
L 144 4097 
L 975 4097 
L 975 5309 
L 1444 5309 
L 1444 4097 
L 2250 4097 
L 2250 3647 
L 1444 3647 
L 1444 2319 
Q 1778 2409 2088 2503 
Q 2100 2216 2131 2016 
Q 1775 1916 1444 1822 
L 1444 -59 
Q 1444 -753 825 -759 
Q 594 -766 219 -747 
Q 194 -497 138 -253 
Q 481 -297 694 -297 
Q 975 -297 975 16 
L 975 1684 
Q 534 1556 150 1441 
L 88 1978 
z
M 2494 5322 
L 2969 5322 
L 2969 4359 
Q 4463 4641 5938 5084 
L 6106 4641 
Q 4888 4263 2969 3916 
L 2969 3709 
Q 2969 3259 3431 3259 
L 5156 3259 
Q 5613 3259 5700 3659 
Q 5756 3891 5813 4291 
Q 6038 4197 6281 4122 
Q 6213 3716 6144 3466 
Q 6000 2834 5244 2834 
L 3288 2834 
Q 2494 2834 2494 3678 
L 2494 5322 
z
M 5381 1891 
L 3031 1891 
L 3031 1134 
L 5381 1134 
L 5381 1891 
z
M 3031 -16 
L 5381 -16 
L 5381 734 
L 3031 734 
L 3031 -16 
z
" transform="scale(0.015625)"/>
      <path id="MicrosoftYaHei-793a" d="M 100 3072 
L 6300 3072 
L 6300 2603 
L 3619 2603 
L 3619 78 
Q 3619 -703 2800 -709 
Q 2366 -709 1825 -703 
Q 1788 -447 1731 -128 
Q 2225 -178 2663 -178 
Q 3088 -178 3088 241 
L 3088 2603 
L 100 2603 
L 100 3072 
z
M 675 4916 
L 5744 4916 
L 5744 4447 
L 675 4447 
L 675 4916 
z
M 4413 1847 
L 4831 2128 
Q 5600 1184 6319 159 
L 5863 -141 
Q 5088 991 4413 1847 
z
M 1481 2141 
L 1938 1884 
Q 1281 747 538 -278 
Q 344 -134 125 16 
Q 825 922 1481 2141 
z
" transform="scale(0.015625)"/>
      <path id="MicrosoftYaHei-5242" d="M 50 1947 
Q 1056 2222 1756 2738 
Q 1156 3106 525 3478 
L 775 3822 
Q 1478 3434 2134 3059 
Q 2541 3450 2809 3947 
L 225 3947 
L 225 4384 
L 3825 4384 
L 3825 3947 
L 3350 3947 
Q 3041 3319 2547 2822 
Q 3244 2416 3888 2022 
L 3575 1578 
Q 2897 2025 2169 2481 
Q 1413 1869 319 1497 
Q 219 1703 50 1947 
z
M 5463 5247 
L 5950 5247 
L 5950 103 
Q 5950 -747 5163 -753 
Q 4794 -759 4313 -741 
Q 4281 -497 4219 -197 
Q 4694 -247 5050 -247 
Q 5463 -253 5463 234 
L 5463 5247 
z
M 4175 4597 
L 4650 4597 
L 4650 622 
L 4175 622 
L 4175 4597 
z
M 1050 1747 
L 1525 1747 
Q 1525 609 1331 134 
Q 1138 -384 531 -884 
Q 344 -659 150 -466 
Q 719 -59 888 366 
Q 1050 759 1050 1747 
z
M 2575 1747 
L 3050 1747 
L 3050 -784 
L 2575 -784 
L 2575 1747 
z
M 1550 5178 
L 1938 5416 
Q 2219 5047 2444 4684 
L 2050 4434 
Q 1813 4834 1550 5178 
z
" transform="scale(0.015625)"/>
      <path id="MicrosoftYaHei-53d8" d="M 838 1634 
L 838 2066 
L 5088 2066 
L 5088 1634 
Q 4494 853 3659 309 
Q 4675 -178 6313 -297 
Q 6088 -609 5950 -822 
Q 4275 -594 3178 34 
Q 2122 -509 425 -866 
Q 269 -622 106 -403 
Q 1741 -122 2728 328 
Q 2047 838 1553 1634 
L 838 1634 
z
M 231 4534 
L 3081 4534 
Q 2888 4884 2725 5141 
L 3175 5359 
Q 3481 4884 3600 4659 
L 3359 4534 
L 6200 4534 
L 6200 4091 
L 4181 4091 
L 4181 2353 
L 3700 2353 
L 3700 4091 
L 2694 4091 
L 2694 2341 
L 2213 2341 
L 2213 4091 
L 231 4091 
L 231 4534 
z
M 4475 1634 
L 2116 1634 
Q 2575 953 3197 572 
Q 3947 1016 4475 1634 
z
M 4556 3434 
L 4900 3728 
Q 5700 3009 6213 2459 
L 5825 2116 
Q 5219 2797 4556 3434 
z
M 1381 3741 
L 1756 3422 
Q 1119 2691 500 2097 
Q 344 2272 138 2447 
Q 794 3009 1381 3741 
z
" transform="scale(0.015625)"/>
      <path id="MicrosoftYaHei-8272" d="M 56 3253 
Q 1275 4178 1988 5384 
L 2513 5253 
Q 2344 4984 2153 4728 
L 4625 4728 
L 4625 4284 
Q 4275 3875 3894 3466 
L 5581 3466 
L 5581 1184 
L 5081 1184 
L 5081 1403 
L 1325 1403 
L 1325 297 
Q 1325 -128 1719 -128 
L 5094 -128 
Q 5513 -128 5600 134 
Q 5719 516 5769 1091 
Q 5950 1009 6281 897 
Q 6194 309 6100 -9 
Q 5938 -603 5188 -603 
L 1663 -603 
Q 825 -603 825 253 
L 825 3263 
Q 641 3097 444 2934 
Q 275 3091 56 3253 
z
M 5081 3016 
L 3444 3016 
L 3444 1853 
L 5081 1853 
L 5081 3016 
z
M 1325 1853 
L 2956 1853 
L 2956 3016 
L 1325 3016 
L 1325 1853 
z
M 3994 4291 
L 1809 4291 
Q 1456 3863 1041 3466 
L 3284 3466 
Q 3659 3891 3994 4291 
z
" transform="scale(0.015625)"/>
      <path id="MicrosoftYaHei-533a" d="M 600 4872 
L 5975 4872 
L 5975 4384 
L 1131 4384 
L 1131 22 
L 6075 22 
L 6075 -453 
L 600 -453 
L 600 4872 
z
M 1613 3697 
L 1963 4028 
Q 2744 3384 3597 2616 
Q 4250 3322 4850 4153 
L 5306 3847 
Q 4650 2997 3975 2272 
Q 4753 1563 5588 753 
L 5156 316 
Q 4400 1106 3600 1878 
Q 2697 963 1763 266 
Q 1613 459 1363 672 
Q 2344 1341 3228 2231 
Q 2444 2972 1613 3697 
z
" transform="scale(0.015625)"/>
      <path id="MicrosoftYaHei-95f4" d="M 1863 3647 
L 4513 3647 
L 4513 553 
L 2313 553 
L 2313 166 
L 1863 166 
L 1863 3647 
z
M 2388 4453 
L 2388 4922 
L 6013 4922 
L 6013 -28 
Q 6013 -816 5119 -816 
Q 4756 -816 4169 -803 
Q 4144 -616 4069 -297 
Q 4588 -334 5056 -334 
Q 5525 -334 5525 122 
L 5525 4453 
L 2388 4453 
z
M 419 4084 
L 906 4084 
L 906 -816 
L 419 -816 
L 419 4084 
z
M 2313 997 
L 4063 997 
L 4063 1884 
L 2313 1884 
L 2313 997 
z
M 4063 3203 
L 2313 3203 
L 2313 2328 
L 4063 2328 
L 4063 3203 
z
M 744 5003 
L 1100 5322 
Q 1575 4872 1981 4447 
L 1575 4091 
Q 1194 4541 744 5003 
z
" transform="scale(0.015625)"/>
     </defs>
     <use xlink:href="#MicrosoftYaHei-6307"/>
     <use xlink:href="#MicrosoftYaHei-793a" transform="translate(100 0)"/>
     <use xlink:href="#MicrosoftYaHei-5242" transform="translate(200 0)"/>
     <use xlink:href="#MicrosoftYaHei-53d8" transform="translate(300 0)"/>
     <use xlink:href="#MicrosoftYaHei-8272" transform="translate(400 0)"/>
     <use xlink:href="#MicrosoftYaHei-533a" transform="translate(500 0)"/>
     <use xlink:href="#MicrosoftYaHei-95f4" transform="translate(600 0)"/>
    </g>
    <!-- 酚酞 8.2~10.0 -->
    <g transform="translate(271.91475 105.872607) scale(0.08 -0.08)">
     <defs>
      <path id="MicrosoftYaHei-915a" d="M 344 3672 
L 1088 3672 
L 1088 4509 
L 275 4509 
L 275 4909 
L 3238 4909 
L 3238 4509 
L 2150 4509 
L 2150 3672 
L 2919 3672 
L 2919 -759 
L 2519 -759 
L 2519 -391 
L 744 -391 
L 744 -772 
L 344 -772 
L 344 3672 
z
M 4031 5053 
L 4463 4947 
Q 4119 3534 3438 2491 
L 5800 2491 
Q 5788 1297 5756 341 
Q 5744 -747 4944 -747 
Q 4481 -747 4213 -728 
Q 4188 -441 4138 -209 
Q 4519 -272 4900 -272 
Q 5306 -272 5319 397 
Q 5350 1259 5363 2053 
L 4338 2053 
Q 4331 22 3263 -841 
Q 3113 -634 2956 -434 
Q 3888 191 3900 2053 
L 3431 2053 
L 3431 2478 
Q 3375 2397 3319 2316 
Q 3113 2541 2975 2647 
Q 3763 3728 4031 5053 
z
M 1775 2341 
L 1775 3284 
L 1463 3284 
L 1463 3053 
Q 1463 2059 1006 1372 
Q 881 1497 744 1622 
L 744 1153 
L 2519 1153 
L 2519 1784 
L 2231 1784 
Q 1775 1784 1775 2341 
z
M 744 -3 
L 2519 -3 
L 2519 766 
L 744 766 
L 744 -3 
z
M 5169 5291 
Q 5431 3653 6325 2703 
Q 6144 2528 5981 2341 
Q 5006 3509 4775 5203 
L 5169 5291 
z
M 744 1709 
Q 1088 2216 1088 3053 
L 1088 3284 
L 744 3284 
L 744 1709 
z
M 2519 3284 
L 2150 3284 
L 2150 2422 
Q 2150 2159 2381 2159 
L 2519 2159 
L 2519 3284 
z
M 1463 3672 
L 1775 3672 
L 1775 4509 
L 1463 4509 
L 1463 3672 
z
" transform="scale(0.015625)"/>
      <path id="MicrosoftYaHei-915e" d="M 363 3778 
L 1163 3778 
L 1163 4509 
L 213 4509 
L 213 4922 
L 3213 4922 
L 3213 4509 
L 2269 4509 
L 2269 3778 
L 3063 3778 
L 3063 -828 
L 2663 -828 
L 2663 -359 
L 769 -359 
L 769 -828 
L 363 -828 
L 363 3778 
z
M 3331 3759 
L 4431 3759 
Q 4463 4384 4469 5278 
L 4900 5278 
Q 4894 4428 4875 3759 
L 6263 3759 
L 6263 3303 
L 4919 3303 
Q 5306 759 6350 -372 
Q 6150 -553 5988 -753 
Q 5056 328 4706 2478 
Q 4544 1366 4175 497 
L 4425 659 
Q 4750 166 5075 -409 
L 4688 -678 
Q 4413 -128 4113 347 
Q 3825 -291 3425 -803 
Q 3294 -628 3088 -434 
Q 4181 897 4406 3303 
L 3331 3303 
L 3331 3759 
z
M 769 1184 
L 2663 1184 
L 2663 1772 
L 2356 1772 
Q 1888 1772 1888 2341 
L 1888 3378 
L 1544 3378 
Q 1538 2066 1063 1347 
Q 938 1572 813 1741 
Q 1156 2278 1163 3378 
L 769 3378 
L 769 1184 
z
M 769 41 
L 2663 41 
L 2663 791 
L 769 791 
L 769 41 
z
M 2450 2216 
L 2663 2216 
L 2663 3378 
L 2269 3378 
L 2269 2441 
Q 2269 2216 2450 2216 
z
M 1544 3778 
L 1888 3778 
L 1888 4509 
L 1544 4509 
L 1544 3778 
z
" transform="scale(0.015625)"/>
      <path id="MicrosoftYaHei-2e" d="M 372 322 
Q 372 491 487 606 
Q 603 722 775 722 
Q 950 722 1065 605 
Q 1181 488 1181 322 
Q 1181 159 1065 42 
Q 950 -75 772 -75 
Q 600 -75 486 42 
Q 372 159 372 322 
z
" transform="scale(0.015625)"/>
      <path id="MicrosoftYaHei-7e" d="M 4053 2541 
Q 4025 2028 3772 1750 
Q 3519 1472 3094 1472 
Q 2725 1472 2203 1834 
Q 1869 2056 1669 2056 
Q 1203 2056 1184 1469 
L 700 1469 
Q 722 1981 981 2259 
Q 1241 2538 1663 2538 
Q 2016 2538 2456 2244 
Q 2897 1947 3116 1947 
Q 3322 1947 3444 2109 
Q 3566 2272 3572 2541 
L 4053 2541 
z
" transform="scale(0.015625)"/>
     </defs>
     <use xlink:href="#MicrosoftYaHei-915a"/>
     <use xlink:href="#MicrosoftYaHei-915e" transform="translate(100 0)"/>
     <use xlink:href="#MicrosoftYaHei-20" transform="translate(200 0)"/>
     <use xlink:href="#MicrosoftYaHei-38" transform="translate(229.589844 0)"/>
     <use xlink:href="#MicrosoftYaHei-2e" transform="translate(288.232422 0)"/>
     <use xlink:href="#MicrosoftYaHei-32" transform="translate(312.304688 0)"/>
     <use xlink:href="#MicrosoftYaHei-7e" transform="translate(370.947266 0)"/>
     <use xlink:href="#MicrosoftYaHei-31" transform="translate(445.117188 0)"/>
     <use xlink:href="#MicrosoftYaHei-30" transform="translate(503.759766 0)"/>
     <use xlink:href="#MicrosoftYaHei-2e" transform="translate(562.402344 0)"/>
     <use xlink:href="#MicrosoftYaHei-30" transform="translate(586.474609 0)"/>
    </g>
    <!-- 甲基橙 3.1~4.4 -->
    <g transform="translate(271.91475 115.535357) scale(0.08 -0.08)">
     <defs>
      <path id="MicrosoftYaHei-7532" d="M 719 4953 
L 5681 4953 
L 5681 903 
L 5194 903 
L 5194 1278 
L 3444 1278 
L 3444 -834 
L 2956 -834 
L 2956 1278 
L 1206 1278 
L 1206 903 
L 719 903 
L 719 4953 
z
M 1206 1728 
L 2956 1728 
L 2956 2928 
L 1206 2928 
L 1206 1728 
z
M 3444 1728 
L 5194 1728 
L 5194 2928 
L 3444 2928 
L 3444 1728 
z
M 5194 4503 
L 3444 4503 
L 3444 3378 
L 5194 3378 
L 5194 4503 
z
M 1206 3378 
L 2956 3378 
L 2956 4503 
L 1206 4503 
L 1206 3378 
z
" transform="scale(0.015625)"/>
      <path id="MicrosoftYaHei-57fa" d="M 6319 697 
Q 6113 441 5981 247 
Q 5406 519 4925 897 
L 4925 553 
L 3431 553 
L 3431 -97 
L 5875 -97 
L 5875 -503 
L 519 -503 
L 519 -97 
L 2963 -97 
L 2963 553 
L 1450 553 
L 1450 894 
Q 953 478 413 172 
Q 294 341 88 566 
Q 1050 1034 1753 1753 
L 156 1753 
L 156 2159 
L 1400 2159 
L 1400 4253 
L 350 4253 
L 350 4659 
L 1400 4659 
L 1400 5334 
L 1869 5334 
L 1869 4659 
L 4550 4659 
L 4550 5334 
L 5019 5334 
L 5019 4659 
L 6069 4659 
L 6069 4253 
L 5019 4253 
L 5019 2159 
L 6244 2159 
L 6244 1753 
L 4600 1753 
Q 5303 1053 6319 697 
z
M 2963 1553 
L 3431 1553 
L 3431 947 
L 4863 947 
Q 4416 1306 4047 1753 
L 2325 1753 
Q 1934 1309 1513 947 
L 2963 947 
L 2963 1553 
z
M 1869 2159 
L 4550 2159 
L 4550 2603 
L 1869 2603 
L 1869 2159 
z
M 1869 2991 
L 4550 2991 
L 4550 3428 
L 1869 3428 
L 1869 2991 
z
M 1869 3816 
L 4550 3816 
L 4550 4253 
L 1869 4253 
L 1869 3816 
z
" transform="scale(0.015625)"/>
      <path id="MicrosoftYaHei-6a59" d="M 2175 4066 
L 2494 4309 
Q 2719 4053 2956 3769 
Q 3263 4128 3450 4541 
L 2156 4541 
L 2156 4941 
L 3925 4941 
L 3925 4534 
Q 3616 3872 3147 3341 
L 4991 3341 
Q 4284 4084 4056 5122 
L 4431 5234 
Q 4525 4875 4669 4563 
Q 5097 4869 5438 5166 
L 5731 4822 
Q 5300 4538 4850 4225 
Q 4984 4000 5153 3803 
Q 5519 4059 5894 4384 
L 6181 4041 
Q 5803 3778 5422 3525 
Q 5806 3175 6313 2934 
Q 6119 2672 6031 2541 
Q 5459 2866 5044 3284 
L 5044 2941 
L 3075 2941 
L 3075 3263 
Q 2684 2841 2188 2509 
Q 2063 2672 1881 2878 
Q 2325 3147 2663 3463 
Q 2425 3763 2175 4066 
z
M 2438 2428 
L 5663 2428 
L 5663 741 
L 5213 741 
L 5213 916 
L 2888 916 
L 2888 741 
L 2438 741 
L 2438 2428 
z
M 88 1353 
Q 606 2266 897 3628 
L 163 3628 
L 163 4041 
L 963 4041 
L 963 5284 
L 1388 5284 
L 1388 4041 
L 2025 4041 
L 2025 3628 
L 1388 3628 
L 1388 2725 
L 1619 2897 
Q 1950 2478 2213 2084 
L 1875 1841 
Q 1650 2213 1388 2569 
L 1388 -784 
L 963 -784 
L 963 2566 
Q 688 1519 275 753 
Q 219 1016 88 1353 
z
M 1888 -166 
L 3350 -166 
Q 3125 194 2838 584 
L 3181 828 
Q 3469 453 3750 41 
L 3419 -166 
L 4319 -166 
Q 4616 322 4844 822 
L 5281 622 
Q 5078 278 4797 -166 
L 6213 -166 
L 6213 -578 
L 1888 -578 
L 1888 -166 
z
M 5213 2028 
L 2888 2028 
L 2888 1316 
L 5213 1316 
L 5213 2028 
z
" transform="scale(0.015625)"/>
     </defs>
     <use xlink:href="#MicrosoftYaHei-7532"/>
     <use xlink:href="#MicrosoftYaHei-57fa" transform="translate(100 0)"/>
     <use xlink:href="#MicrosoftYaHei-6a59" transform="translate(200 0)"/>
     <use xlink:href="#MicrosoftYaHei-20" transform="translate(300 0)"/>
     <use xlink:href="#MicrosoftYaHei-33" transform="translate(329.589844 0)"/>
     <use xlink:href="#MicrosoftYaHei-2e" transform="translate(388.232422 0)"/>
     <use xlink:href="#MicrosoftYaHei-31" transform="translate(412.304688 0)"/>
     <use xlink:href="#MicrosoftYaHei-7e" transform="translate(470.947266 0)"/>
     <use xlink:href="#MicrosoftYaHei-34" transform="translate(545.117188 0)"/>
     <use xlink:href="#MicrosoftYaHei-2e" transform="translate(603.759766 0)"/>
     <use xlink:href="#MicrosoftYaHei-34" transform="translate(627.832031 0)"/>
    </g>
   </g>
   <g id="text_18">
    <!-- 强碱滴定强酸滴定曲线 (NaOH + HCl) -->
    <g transform="translate(159.35125 16.7925) scale(0.12 -0.12)">
     <defs>
      <path id="MicrosoftYaHei-Bold-5f3a" d="M 163 1403 
L 325 3622 
L 1375 3622 
L 1375 4353 
L 194 4353 
L 194 5097 
L 2150 5097 
L 2150 2878 
L 1050 2878 
L 994 2147 
L 2081 2147 
Q 2056 622 2017 169 
Q 1978 -284 1847 -478 
Q 1716 -672 1497 -736 
Q 1278 -800 381 -784 
Q 331 -478 200 53 
Q 672 34 866 34 
Q 1113 34 1181 201 
Q 1250 369 1275 1403 
L 163 1403 
z
M 5716 816 
Q 6025 191 6344 -572 
L 5625 -859 
L 5463 -459 
Q 4025 -631 2325 -791 
L 2175 9 
L 3813 128 
L 3813 816 
L 2406 816 
L 2406 2797 
L 3813 2797 
L 3813 3228 
L 2613 3228 
L 2613 5091 
L 5813 5091 
L 5813 3228 
L 4613 3228 
L 4613 2797 
L 6031 2797 
L 6031 816 
L 5716 816 
z
M 5025 4403 
L 3400 4403 
L 3400 3916 
L 5025 3916 
L 5025 4403 
z
M 5256 1503 
L 5256 2109 
L 4613 2109 
L 4613 1503 
L 5256 1503 
z
M 3181 1503 
L 3813 1503 
L 3813 2109 
L 3181 2109 
L 3181 1503 
z
M 5709 816 
L 4613 816 
L 4613 200 
L 5150 253 
L 5013 553 
L 5709 816 
z
" transform="scale(0.015625)"/>
      <path id="MicrosoftYaHei-Bold-78b1" d="M 6213 4503 
L 6213 3741 
L 5144 3741 
Q 5175 2678 5219 1966 
Q 5438 2566 5594 3272 
L 6238 3072 
Q 5900 1778 5363 753 
Q 5444 328 5563 172 
Q 5631 66 5681 84 
Q 5731 91 5744 216 
Q 5794 647 5800 1078 
Q 6075 972 6319 909 
Q 6263 -841 5681 -834 
Q 5175 -834 4900 -3 
Q 4594 -447 4238 -834 
Q 4094 -616 3781 -247 
Q 4056 -3 4300 303 
L 3519 303 
L 3519 -47 
L 3006 -47 
L 3006 2316 
L 4319 2316 
L 4319 328 
Q 4519 578 4694 866 
Q 4519 1822 4494 3741 
L 2819 3741 
L 2819 2197 
Q 2819 -47 2294 -916 
Q 2075 -659 1756 -384 
Q 1800 -297 1844 -203 
L 975 -203 
L 975 -541 
L 388 -541 
L 388 1584 
Q 300 1409 206 1247 
Q 200 1322 75 2416 
Q 406 3266 563 4147 
L 150 4147 
L 150 4966 
L 2013 4966 
L 2013 4147 
L 1250 4147 
Q 1138 3634 1000 3178 
L 1869 3178 
L 1869 -147 
Q 2175 628 2175 2197 
L 2175 4503 
L 4469 4503 
Q 4456 4859 4438 5328 
L 5106 5328 
Q 5106 5153 5125 4503 
L 5531 4503 
Q 5338 4803 5169 5028 
L 5631 5359 
Q 5856 5109 6113 4766 
L 5719 4503 
L 6213 4503 
z
M 3006 3353 
L 4331 3353 
L 4331 2728 
L 3006 2728 
L 3006 3353 
z
M 1275 497 
L 1275 2478 
L 975 2478 
L 975 497 
L 1275 497 
z
M 3806 903 
L 3806 1709 
L 3519 1709 
L 3519 903 
L 3806 903 
z
" transform="scale(0.015625)"/>
      <path id="MicrosoftYaHei-Bold-6ef4" d="M 3331 5209 
L 4238 5366 
Q 4344 5100 4447 4766 
L 6250 4766 
L 6250 4109 
L 5100 4109 
L 5594 3916 
L 5319 3528 
L 6113 3528 
L 6113 66 
Q 6113 -363 5928 -581 
Q 5744 -800 5414 -812 
Q 5084 -825 4431 -816 
Q 4325 -409 4238 -116 
Q 4769 -147 5025 -147 
Q 5306 -147 5306 128 
L 5306 2891 
L 2663 2891 
L 2663 -834 
L 1856 -834 
L 1856 3528 
L 2663 3528 
Q 2541 3744 2425 3928 
L 2878 4109 
L 1713 4109 
L 1713 4766 
L 3516 4766 
Q 3419 5016 3331 5209 
z
M 3641 3528 
L 4344 3528 
Q 4553 3856 4697 4109 
L 3309 4109 
Q 3463 3859 3641 3528 
z
M 725 5278 
Q 1163 4959 1700 4491 
L 1119 3859 
Q 713 4266 213 4703 
L 725 5278 
z
M 600 3622 
Q 1075 3278 1588 2834 
L 1025 2159 
L 88 3028 
L 600 3622 
z
M 2963 1584 
L 3588 1584 
L 3588 1947 
L 2838 1947 
L 2838 2472 
L 3588 2472 
L 3588 2784 
L 4381 2784 
L 4381 2472 
L 5125 2472 
L 5125 1947 
L 4381 1947 
L 4381 1584 
L 5000 1584 
L 5000 97 
L 3656 97 
L 3656 -172 
L 2963 -172 
L 2963 1584 
z
M 3656 1084 
L 3656 597 
L 4306 597 
L 4306 1084 
L 3656 1084 
z
M 838 1834 
Q 1350 1628 1644 1541 
L 1050 -822 
Q 631 -672 225 -566 
Q 544 441 838 1834 
z
" transform="scale(0.015625)"/>
      <path id="MicrosoftYaHei-Bold-5b9a" d="M 2581 5128 
L 3538 5353 
Q 3666 5028 3806 4634 
L 6063 4634 
L 6063 3403 
L 5200 3403 
L 5200 3872 
L 1225 3872 
L 1225 3403 
L 363 3403 
L 363 4634 
L 2772 4634 
L 2581 5128 
z
M 5831 1741 
L 5831 972 
L 3744 972 
L 3744 125 
Q 4766 103 6313 147 
Q 6138 -372 6044 -697 
Q 3819 -697 2809 -630 
Q 1800 -563 1388 219 
Q 1069 -425 613 -859 
Q 331 -441 94 -134 
Q 875 659 1094 2122 
L 1931 2022 
Q 1850 1541 1728 1122 
Q 2047 300 2850 175 
L 2850 2416 
L 263 2416 
L 263 3184 
L 6156 3184 
L 6156 2416 
L 3744 2416 
L 3744 1741 
L 5831 1741 
z
" transform="scale(0.015625)"/>
      <path id="MicrosoftYaHei-Bold-9178" d="M 5938 2147 
L 5938 1528 
Q 5638 872 5169 353 
Q 5663 84 6369 -41 
Q 6213 -428 6069 -828 
Q 5225 -578 4644 -128 
Q 4056 -584 3250 -878 
Q 3138 -522 2988 -159 
Q 3656 34 4144 334 
Q 3894 628 3700 991 
Q 3525 791 3338 584 
Q 3150 822 2938 1041 
L 2938 -834 
L 2350 -834 
L 2350 -403 
L 894 -403 
L 894 -859 
L 306 -859 
L 306 3734 
L 1019 3734 
L 1019 4278 
L 188 4278 
L 188 4991 
L 3100 4991 
L 3100 4278 
L 2225 4278 
L 2225 3734 
L 2938 3734 
L 2938 2534 
Q 3456 2878 3969 3366 
L 4425 2941 
Q 3850 2428 3256 1972 
Q 3088 2209 2938 2391 
L 2938 1066 
Q 3725 1909 3969 2491 
L 4731 2491 
Q 4644 2316 4538 2147 
L 5938 2147 
z
M 5394 4853 
Q 5938 4328 6375 3803 
Q 6163 3528 5963 3234 
Q 5844 3366 5731 3503 
Q 3731 3397 3313 3291 
L 3038 4028 
Q 3231 4122 3375 4266 
Q 3681 4572 4156 5334 
L 4956 5078 
Q 4456 4491 3963 3997 
Q 4538 4028 5244 4072 
Q 5075 4272 4906 4472 
L 5394 4853 
z
M 1200 1384 
Q 1038 1541 894 1678 
L 894 1253 
L 2350 1253 
L 2350 1622 
L 2238 1622 
Q 1750 1622 1750 2178 
L 1750 3078 
L 1500 3078 
Q 1481 1934 1200 1384 
z
M 5213 3397 
Q 5775 3053 6344 2634 
L 5994 2122 
Q 5450 2547 4838 2953 
L 5213 3397 
z
M 894 247 
L 2350 247 
L 2350 634 
L 894 634 
L 894 247 
z
M 4088 1478 
Q 4331 1022 4650 722 
Q 5013 1072 5188 1522 
L 4119 1522 
Q 4100 1497 4088 1478 
z
M 2419 2141 
L 2456 2141 
L 2456 3078 
L 2225 3078 
L 2225 2378 
Q 2225 2141 2419 2141 
z
M 800 1922 
Q 1013 2291 1013 3078 
L 800 3078 
L 800 1922 
z
M 1506 3734 
L 1750 3734 
L 1750 4278 
L 1506 4278 
L 1506 3734 
z
" transform="scale(0.015625)"/>
      <path id="MicrosoftYaHei-Bold-66f2" d="M 413 -822 
L 413 4466 
L 1988 4466 
L 1988 5328 
L 2825 5328 
L 2825 4466 
L 3575 4466 
L 3575 5328 
L 4413 5328 
L 4413 4466 
L 5988 4466 
L 5988 -822 
L 5163 -822 
L 5163 -428 
L 1238 -428 
L 1238 -822 
L 413 -822 
z
M 5163 3647 
L 4413 3647 
L 4413 2453 
L 5163 2453 
L 5163 3647 
z
M 1238 2453 
L 1988 2453 
L 1988 3647 
L 1238 3647 
L 1238 2453 
z
M 2825 2453 
L 3575 2453 
L 3575 3647 
L 2825 3647 
L 2825 2453 
z
M 1238 391 
L 1988 391 
L 1988 1634 
L 1238 1634 
L 1238 391 
z
M 4413 391 
L 5163 391 
L 5163 1634 
L 4413 1634 
L 4413 391 
z
M 2825 391 
L 3575 391 
L 3575 1634 
L 2825 1634 
L 2825 391 
z
" transform="scale(0.015625)"/>
      <path id="MicrosoftYaHei-Bold-7ebf" d="M 225 -528 
L 63 347 
Q 1188 491 2369 678 
Q 2353 481 2350 256 
Q 3069 481 3691 806 
Q 3550 1250 3466 1859 
L 2413 1734 
L 2306 2491 
L 3384 2619 
L 3347 3244 
L 2525 3159 
L 2488 3494 
Q 1859 2456 1356 1778 
Q 1919 1859 2294 1928 
Q 2263 1672 2231 1147 
Q 888 972 431 847 
L 200 1547 
Q 597 1922 1075 2641 
Q 738 2613 294 2566 
L 63 3278 
Q 581 3916 1194 5322 
L 1988 5009 
Q 1438 4034 1000 3353 
Q 1234 3356 1531 3372 
Q 1700 3663 1881 3991 
L 2466 3716 
L 2444 3922 
L 3303 4006 
L 3250 5303 
L 4094 5303 
Q 4103 4669 4128 4088 
L 5219 4194 
Q 4844 4469 4350 4778 
L 4756 5316 
Q 5263 5041 5769 4716 
L 5388 4213 
L 5988 4272 
L 6063 3522 
L 4169 3328 
L 4216 2716 
L 6156 2947 
L 6238 2197 
L 5484 2106 
L 6038 1666 
Q 5431 1003 4731 509 
Q 4991 100 5203 100 
Q 5316 100 5387 251 
Q 5459 403 5581 1047 
Q 6013 822 6313 684 
Q 6072 -288 5839 -564 
Q 5606 -841 5300 -841 
Q 4503 -841 4006 56 
Q 3259 -353 2419 -597 
Q 2325 -400 2200 -178 
Q 1084 -353 225 -528 
z
M 5413 2097 
L 4309 1963 
Q 4369 1603 4447 1266 
Q 4972 1638 5413 2097 
z
" transform="scale(0.015625)"/>
      <path id="MicrosoftYaHei-Bold-20" transform="scale(0.015625)"/>
      <path id="MicrosoftYaHei-Bold-28" d="M 1606 -1100 
Q 525 97 525 1853 
Q 525 3550 1606 4841 
L 2431 4841 
Q 1406 3497 1406 1853 
Q 1406 216 2438 -1100 
L 1606 -1100 
z
" transform="scale(0.015625)"/>
      <path id="MicrosoftYaHei-Bold-4e" d="M 4863 0 
L 3806 0 
L 1756 3131 
Q 1597 3375 1525 3525 
L 1509 3525 
Q 1538 3275 1538 2753 
L 1538 0 
L 559 0 
L 559 4841 
L 1684 4841 
L 3659 1797 
Q 3856 1494 3900 1413 
L 3916 1413 
Q 3884 1588 3884 2081 
L 3884 4841 
L 4863 4841 
L 4863 0 
z
" transform="scale(0.015625)"/>
      <path id="MicrosoftYaHei-Bold-61" d="M 544 3247 
Q 778 3378 1170 3459 
Q 1563 3541 1841 3541 
Q 3291 3541 3291 2088 
L 3291 0 
L 2331 0 
L 2331 503 
L 2319 503 
Q 1966 -84 1284 -84 
Q 794 -84 498 195 
Q 203 475 203 956 
Q 203 1950 1388 2113 
L 2338 2241 
Q 2338 2844 1709 2844 
Q 1091 2844 544 2469 
L 544 3247 
z
M 1684 1566 
Q 1138 1494 1138 1072 
Q 1138 878 1270 759 
Q 1403 641 1628 641 
Q 1938 641 2138 859 
Q 2338 1078 2338 1403 
L 2338 1650 
L 1684 1566 
z
" transform="scale(0.015625)"/>
      <path id="MicrosoftYaHei-Bold-4f" d="M 256 2356 
Q 256 3494 920 4208 
Q 1584 4922 2675 4922 
Q 3713 4922 4345 4231 
Q 4978 3541 4978 2456 
Q 4978 1325 4320 620 
Q 3663 -84 2597 -84 
Q 1556 -84 906 598 
Q 256 1281 256 2356 
z
M 1341 2413 
Q 1341 1706 1681 1257 
Q 2022 809 2616 809 
Q 3222 809 3559 1239 
Q 3897 1669 3897 2394 
Q 3897 3150 3569 3589 
Q 3241 4028 2644 4028 
Q 2038 4028 1689 3578 
Q 1341 3128 1341 2413 
z
" transform="scale(0.015625)"/>
      <path id="MicrosoftYaHei-Bold-48" d="M 4684 0 
L 3653 0 
L 3653 1997 
L 1591 1997 
L 1591 0 
L 559 0 
L 559 4841 
L 1591 4841 
L 1591 2888 
L 3653 2888 
L 3653 4841 
L 4684 4841 
L 4684 0 
z
" transform="scale(0.015625)"/>
      <path id="MicrosoftYaHei-Bold-2b" d="M 4072 1653 
L 2766 1653 
L 2766 347 
L 2109 347 
L 2109 1653 
L 797 1653 
L 797 2313 
L 2109 2313 
L 2109 3625 
L 2766 3625 
L 2766 2313 
L 4072 2313 
L 4072 1653 
z
" transform="scale(0.015625)"/>
      <path id="MicrosoftYaHei-Bold-43" d="M 4013 175 
Q 3484 -84 2634 -84 
Q 1541 -84 898 570 
Q 256 1225 256 2316 
Q 256 3463 973 4192 
Q 1691 4922 2825 4922 
Q 3534 4922 4013 4738 
L 4013 3741 
Q 3522 4028 2900 4028 
Q 2191 4028 1766 3575 
Q 1341 3122 1341 2391 
Q 1341 1678 1744 1243 
Q 2147 809 2834 809 
Q 3481 809 4013 1122 
L 4013 175 
z
" transform="scale(0.015625)"/>
      <path id="MicrosoftYaHei-Bold-6c" d="M 444 0 
L 444 5116 
L 1450 5116 
L 1450 0 
L 444 0 
z
" transform="scale(0.015625)"/>
      <path id="MicrosoftYaHei-Bold-29" d="M 59 -1100 
Q 1097 216 1097 1853 
Q 1097 3484 59 4841 
L 888 4841 
Q 1978 3544 1978 1853 
Q 1978 113 881 -1100 
L 59 -1100 
z
" transform="scale(0.015625)"/>
     </defs>
     <use xlink:href="#MicrosoftYaHei-Bold-5f3a"/>
     <use xlink:href="#MicrosoftYaHei-Bold-78b1" transform="translate(100 0)"/>
     <use xlink:href="#MicrosoftYaHei-Bold-6ef4" transform="translate(200 0)"/>
     <use xlink:href="#MicrosoftYaHei-Bold-5b9a" transform="translate(300 0)"/>
     <use xlink:href="#MicrosoftYaHei-Bold-5f3a" transform="translate(400 0)"/>
     <use xlink:href="#MicrosoftYaHei-Bold-9178" transform="translate(500 0)"/>
     <use xlink:href="#MicrosoftYaHei-Bold-6ef4" transform="translate(600 0)"/>
     <use xlink:href="#MicrosoftYaHei-Bold-5b9a" transform="translate(700 0)"/>
     <use xlink:href="#MicrosoftYaHei-Bold-66f2" transform="translate(800 0)"/>
     <use xlink:href="#MicrosoftYaHei-Bold-7ebf" transform="translate(900 0)"/>
     <use xlink:href="#MicrosoftYaHei-Bold-20" transform="translate(1000 0)"/>
     <use xlink:href="#MicrosoftYaHei-Bold-28" transform="translate(1029.785156 0)"/>
     <use xlink:href="#MicrosoftYaHei-Bold-4e" transform="translate(1068.75 0)"/>
     <use xlink:href="#MicrosoftYaHei-Bold-61" transform="translate(1153.564453 0)"/>
     <use xlink:href="#MicrosoftYaHei-Bold-4f" transform="translate(1211.328125 0)"/>
     <use xlink:href="#MicrosoftYaHei-Bold-48" transform="translate(1293.164062 0)"/>
     <use xlink:href="#MicrosoftYaHei-Bold-20" transform="translate(1375.292969 0)"/>
     <use xlink:href="#MicrosoftYaHei-Bold-2b" transform="translate(1405.078125 0)"/>
     <use xlink:href="#MicrosoftYaHei-Bold-20" transform="translate(1481.201172 0)"/>
     <use xlink:href="#MicrosoftYaHei-Bold-48" transform="translate(1510.986328 0)"/>
     <use xlink:href="#MicrosoftYaHei-Bold-43" transform="translate(1593.115234 0)"/>
     <use xlink:href="#MicrosoftYaHei-Bold-6c" transform="translate(1660.449219 0)"/>
     <use xlink:href="#MicrosoftYaHei-Bold-29" transform="translate(1690.039062 0)"/>
    </g>
   </g>
   <g id="legend_1">
    <g id="patch_8">
     <path d="M 384.31625 62.103437 
L 476.67875 62.103437 
Q 478.67875 62.103437 478.67875 60.103437 
L 478.67875 29.7925 
Q 478.67875 27.7925 476.67875 27.7925 
L 384.31625 27.7925 
Q 382.31625 27.7925 382.31625 29.7925 
L 382.31625 60.103437 
Q 382.31625 62.103437 384.31625 62.103437 
z
" style="fill: #ffffff; opacity: 0.8; stroke: #cccccc; stroke-linejoin: miter"/>
    </g>
    <g id="line2d_32">
     <path d="M 386.31625 36.637812 
L 396.31625 36.637812 
L 406.31625 36.637812 
" style="fill: none; stroke-dasharray: 4.44,1.92; stroke-dashoffset: 0; stroke: #e67e22; stroke-width: 1.2"/>
    </g>
    <g id="text_19">
     <!-- 当量点 pH=7 -->
     <g transform="translate(414.31625 40.137812) scale(0.1 -0.1)">
      <defs>
       <path id="MicrosoftYaHei-5f53" d="M 344 -41 
L 5294 -41 
L 5294 1034 
L 725 1034 
L 725 1478 
L 5294 1478 
L 5294 2534 
L 525 2534 
L 525 2978 
L 2944 2978 
L 2944 5297 
L 3463 5297 
L 3463 2978 
L 5813 2978 
L 5813 -859 
L 5294 -859 
L 5294 -484 
L 344 -484 
L 344 -41 
z
M 5725 4653 
Q 5056 3897 4394 3291 
L 4019 3628 
Q 4656 4203 5300 4997 
L 5725 4653 
z
M 725 4678 
L 1075 4991 
Q 1750 4359 2331 3672 
L 1913 3316 
Q 1388 4003 725 4678 
z
" transform="scale(0.015625)"/>
       <path id="MicrosoftYaHei-91cf" d="M 113 -278 
L 2981 -278 
L 2981 78 
L 475 78 
L 475 403 
L 2981 403 
L 2981 759 
L 1494 759 
L 1494 597 
L 1069 597 
L 1069 2516 
L 5350 2516 
L 5350 597 
L 4925 597 
L 4925 759 
L 3419 759 
L 3419 403 
L 5931 403 
L 5931 78 
L 3419 78 
L 3419 -278 
L 6288 -278 
L 6288 -616 
L 113 -616 
L 113 -278 
z
M 1119 5072 
L 5306 5072 
L 5306 3284 
L 4881 3284 
L 4881 3453 
L 1544 3453 
L 1544 3284 
L 1119 3284 
L 1119 5072 
z
M 163 3153 
L 6263 3153 
L 6263 2816 
L 163 2816 
L 163 3153 
z
M 1544 3778 
L 4881 3778 
L 4881 4116 
L 1544 4116 
L 1544 3778 
z
M 4881 4747 
L 1544 4747 
L 1544 4416 
L 4881 4416 
L 4881 4747 
z
M 3419 1084 
L 4925 1084 
L 4925 1491 
L 3419 1491 
L 3419 1084 
z
M 1494 1084 
L 2981 1084 
L 2981 1491 
L 1494 1491 
L 1494 1084 
z
M 4925 2191 
L 3419 2191 
L 3419 1791 
L 4925 1791 
L 4925 2191 
z
M 1494 1791 
L 2981 1791 
L 2981 2191 
L 1494 2191 
L 1494 1791 
z
" transform="scale(0.015625)"/>
       <path id="MicrosoftYaHei-70b9" d="M 900 3378 
L 2863 3378 
L 2863 5341 
L 3388 5341 
L 3388 4591 
L 6181 4591 
L 6181 4141 
L 3388 4141 
L 3388 3378 
L 5600 3378 
L 5600 991 
L 5088 991 
L 5088 1253 
L 1413 1253 
L 1413 991 
L 900 991 
L 900 3378 
z
M 5088 2928 
L 1413 2928 
L 1413 1703 
L 5088 1703 
L 5088 2928 
z
M 5425 847 
Q 5925 91 6225 -516 
L 5750 -772 
Q 5438 -134 4994 622 
L 5425 847 
z
M 1369 553 
Q 894 -303 531 -791 
L 100 -484 
Q 506 53 931 803 
L 1369 553 
z
M 2413 828 
Q 2700 197 2913 -503 
L 2406 -678 
Q 2213 3 1963 666 
L 2413 828 
z
M 3906 872 
Q 4206 253 4450 -422 
L 3956 -616 
Q 3781 -53 3450 697 
L 3906 872 
z
" transform="scale(0.015625)"/>
       <path id="MicrosoftYaHei-3d" d="M 3972 2497 
L 788 2497 
L 788 2969 
L 3972 2969 
L 3972 2497 
z
M 3972 1053 
L 788 1053 
L 788 1525 
L 3972 1525 
L 3972 1053 
z
" transform="scale(0.015625)"/>
       <path id="MicrosoftYaHei-37" d="M 3422 4463 
Q 2659 3131 2223 1998 
Q 1788 866 1684 0 
L 1047 0 
Q 1163 853 1594 1947 
Q 2025 3041 2747 4300 
L 347 4300 
L 347 4841 
L 3422 4841 
L 3422 4463 
z
" transform="scale(0.015625)"/>
      </defs>
      <use xlink:href="#MicrosoftYaHei-5f53"/>
      <use xlink:href="#MicrosoftYaHei-91cf" transform="translate(100 0)"/>
      <use xlink:href="#MicrosoftYaHei-70b9" transform="translate(200 0)"/>
      <use xlink:href="#MicrosoftYaHei-20" transform="translate(300 0)"/>
      <use xlink:href="#MicrosoftYaHei-70" transform="translate(329.589844 0)"/>
      <use xlink:href="#MicrosoftYaHei-48" transform="translate(393.457031 0)"/>
      <use xlink:href="#MicrosoftYaHei-3d" transform="translate(470.800781 0)"/>
      <use xlink:href="#MicrosoftYaHei-37" transform="translate(544.970703 0)"/>
     </g>
    </g>
    <g id="patch_9">
     <path d="M 386.31625 55.6175 
L 406.31625 55.6175 
L 406.31625 48.6175 
L 386.31625 48.6175 
z
" style="fill: #fde8e8; fill-opacity: 0.4; stroke: #fde8e8; stroke-opacity: 0.4; stroke-linejoin: miter"/>
    </g>
    <g id="text_20">
     <!-- 突跃范围 -->
     <g transform="translate(414.31625 55.6175) scale(0.1 -0.1)">
      <defs>
       <path id="MicrosoftYaHei-7a81" d="M 119 -378 
Q 2309 91 2763 1453 
L 275 1453 
L 275 1903 
L 2856 1903 
Q 2888 2272 2894 3022 
L 3406 3022 
Q 3406 2316 3363 1903 
L 6150 1903 
L 6150 1453 
L 3528 1453 
Q 4397 94 6313 -253 
Q 6100 -541 5956 -772 
Q 4059 -309 3181 1147 
Q 2600 -347 444 -853 
Q 325 -659 119 -378 
z
M 369 4472 
L 3147 4472 
Q 2972 4809 2756 5141 
L 3238 5359 
Q 3475 5003 3669 4641 
L 3322 4472 
L 6038 4472 
L 6038 3422 
L 5531 3422 
L 5531 4022 
L 869 4022 
L 869 3397 
L 369 3397 
L 369 4472 
z
M 3944 3778 
Q 5163 3278 6238 2722 
L 5988 2259 
Q 4788 2934 3706 3416 
L 3944 3778 
z
M 2413 3784 
L 2713 3422 
Q 1613 2778 450 2303 
Q 331 2491 156 2709 
Q 1163 3066 2413 3784 
z
M 3725 2678 
L 4025 2978 
Q 4550 2597 4838 2347 
L 4488 2016 
Q 4188 2309 3725 2678 
z
" transform="scale(0.015625)"/>
       <path id="MicrosoftYaHei-8dc3" d="M 81 209 
Q 247 234 413 263 
L 413 2472 
L 850 2472 
L 850 338 
L 1475 447 
L 1475 3116 
L 975 3116 
L 975 2909 
L 538 2909 
L 538 4978 
L 2588 4978 
L 2588 3116 
L 1919 3116 
L 1919 2072 
L 2738 2072 
L 2738 1647 
L 1919 1647 
L 1919 525 
Q 2359 606 2800 691 
Q 2806 447 2819 228 
Q 1388 -34 200 -291 
L 81 209 
z
M 2600 2847 
L 4109 2847 
Q 4163 3469 4169 4428 
Q 3538 4384 2919 4347 
Q 2881 4559 2825 4797 
Q 4738 4891 5975 5028 
L 6069 4572 
Q 5356 4513 4659 4463 
Q 4647 3553 4606 2847 
L 6263 2847 
L 6263 2372 
L 4628 2372 
Q 4931 519 6319 -316 
Q 6106 -553 5925 -791 
Q 4722 159 4356 1753 
Q 3969 81 2644 -872 
Q 2488 -684 2281 -497 
Q 3800 547 4059 2372 
L 2600 2372 
L 2600 2847 
z
M 2150 3541 
L 2150 4553 
L 975 4553 
L 975 3541 
L 2150 3541 
z
" transform="scale(0.015625)"/>
       <path id="MicrosoftYaHei-8303" d="M 2600 3341 
L 5575 3341 
Q 5525 2416 5481 1828 
Q 5400 941 4550 941 
Q 4188 941 3713 959 
Q 3675 1209 3613 1503 
Q 4163 1428 4538 1428 
Q 4931 1428 4988 1822 
Q 5031 2241 5056 2903 
L 3094 2903 
L 3094 197 
Q 3094 -191 3488 -191 
L 5125 -191 
Q 5625 -209 5694 191 
Q 5781 672 5806 1134 
Q 6069 1028 6313 947 
Q 6263 522 6169 22 
Q 6056 -678 5169 -641 
L 3344 -641 
Q 2600 -628 2600 109 
L 2600 3341 
z
M 150 4653 
L 1863 4653 
L 1863 5328 
L 2363 5328 
L 2363 4653 
L 4050 4653 
L 4050 5328 
L 4550 5328 
L 4550 4653 
L 6269 4653 
L 6269 4209 
L 4550 4209 
L 4550 3659 
L 4050 3659 
L 4050 4209 
L 2363 4209 
L 2363 3659 
L 1863 3659 
L 1863 4209 
L 150 4209 
L 150 4653 
z
M 1525 1559 
Q 1700 1422 1975 1253 
Q 1213 -97 813 -734 
L 344 -422 
Q 988 484 1525 1559 
z
M 1119 3784 
Q 1788 3316 2156 3016 
L 1819 2622 
Q 1275 3109 819 3428 
L 1119 3784 
z
M 431 2747 
Q 1025 2341 1438 1984 
L 1125 1591 
Q 494 2141 131 2378 
L 431 2747 
z
" transform="scale(0.015625)"/>
       <path id="MicrosoftYaHei-56f4" d="M 469 4997 
L 5938 4997 
L 5938 -834 
L 5469 -834 
L 5469 -528 
L 938 -528 
L 938 -841 
L 469 -841 
L 469 4997 
z
M 5469 4553 
L 938 4553 
L 938 -84 
L 5469 -84 
L 5469 4553 
z
M 1200 2016 
L 2794 2016 
L 2794 2541 
L 1481 2541 
L 1481 2953 
L 2794 2953 
L 2794 3472 
L 1325 3472 
L 1325 3884 
L 2794 3884 
L 2794 4409 
L 3250 4409 
L 3250 3884 
L 4963 3884 
L 4963 3472 
L 3250 3472 
L 3250 2953 
L 4756 2953 
L 4756 2541 
L 3250 2541 
L 3250 2016 
L 4925 2016 
Q 4906 1634 4869 1191 
Q 4819 478 4169 478 
Q 3888 478 3569 497 
Q 3538 728 3475 984 
Q 3806 934 4063 928 
Q 4394 909 4419 1234 
Q 4438 1409 4444 1603 
L 3250 1603 
L 3250 72 
L 2794 72 
L 2794 1603 
L 1200 1603 
L 1200 2016 
z
" transform="scale(0.015625)"/>
      </defs>
      <use xlink:href="#MicrosoftYaHei-7a81"/>
      <use xlink:href="#MicrosoftYaHei-8dc3" transform="translate(100 0)"/>
      <use xlink:href="#MicrosoftYaHei-8303" transform="translate(200 0)"/>
      <use xlink:href="#MicrosoftYaHei-56f4" transform="translate(300 0)"/>
     </g>
    </g>
   </g>
  </g>
 </g>
 <defs>
  <clipPath id="pa325b89472">
   <rect x="42.50375" y="22.7925" width="441.175" height="216.4"/>
  </clipPath>
 </defs>
</svg>
