<?xml version="1.0" encoding="utf-8" standalone="no"?>
<!DOCTYPE svg PUBLIC "-//W3C//DTD SVG 1.1//EN"
  "http://www.w3.org/Graphics/SVG/1.1/DTD/svg11.dtd">
<svg xmlns:xlink="http://www.w3.org/1999/xlink" width="316.8pt" height="336.3925pt" viewBox="0 0 316.8 336.3925" xmlns="http://www.w3.org/2000/svg" version="1.1">
 <metadata>
  <rdf:RDF xmlns:dc="http://purl.org/dc/elements/1.1/" xmlns:cc="http://creativecommons.org/ns#" xmlns:rdf="http://www.w3.org/1999/02/22-rdf-syntax-ns#">
   <cc:Work>
    <dc:type rdf:resource="http://purl.org/dc/dcmitype/StillImage"/>
    <dc:date>2026-05-22T14:45:25.127764</dc:date>
    <dc:format>image/svg+xml</dc:format>
    <dc:creator>
     <cc:Agent>
      <dc:title>Matplotlib v3.10.9, https://matplotlib.org/</dc:title>
     </cc:Agent>
    </dc:creator>
   </cc:Work>
  </rdf:RDF>
 </metadata>
 <defs>
  <style type="text/css">*{stroke-linejoin: round; stroke-linecap: butt}</style>
 </defs>
 <g id="figure_1">
  <g id="patch_1">
   <path d="M 0 336.3925 
L 316.8 336.3925 
L 316.8 0 
L 0 0 
L 0 336.3925 
z
" style="fill: none"/>
  </g>
  <g id="axes_1">
   <g id="patch_2">
    <path d="M 34.690909 318.196136 
L 254.618182 318.196136 
L 254.618182 301.701591 
L 34.690909 301.701591 
z
" clip-path="url(#p6dfd263b59)" style="fill: #dddddd; stroke: #555555; stroke-width: 1.5; stroke-linejoin: miter"/>
   </g>
   <g id="patch_3">
    <path d="M 128.16 54.283409 
L 161.149091 54.283409 
L 161.149091 70.777955 
L 144.654545 70.777955 
L 144.654545 92.770682 
L 199.636364 92.770682 
L 199.636364 109.265227 
L 183.141818 109.265227 
L 183.141818 136.756136 
L 216.130909 136.756136 
L 216.130909 147.7525 
L 183.141818 147.7525 
L 183.141818 202.734318 
L 161.149091 202.734318 
L 161.149091 219.228864 
L 128.16 219.228864 
L 128.16 202.734318 
L 106.167273 202.734318 
L 106.167273 147.7525 
L 73.178182 147.7525 
L 73.178182 136.756136 
L 106.167273 136.756136 
L 106.167273 109.265227 
L 89.672727 109.265227 
L 89.672727 70.777955 
L 128.16 70.777955 
z
" clip-path="url(#p6dfd263b59)" style="fill: #f0f0f0; stroke: #555555; stroke-width: 1.5; stroke-linejoin: miter"/>
   </g>
   <g id="line2d_1">
    <path d="M 128.16 48.785227 
L 161.149091 48.785227 
" clip-path="url(#p6dfd263b59)" style="fill: none; stroke: #000000; stroke-width: 2; stroke-linecap: square"/>
   </g>
   <g id="line2d_2">
    <path d="M 144.654545 48.785227 
L 144.654545 70.777955 
" clip-path="url(#p6dfd263b59)" style="fill: none; stroke: #000000; stroke-linecap: square"/>
   </g>
   <g id="line2d_3">
    <path d="M 117.163636 136.756136 
L 144.654545 136.756136 
" clip-path="url(#p6dfd263b59)" style="fill: none; stroke: #000000; stroke-width: 1.5; stroke-linecap: square"/>
   </g>
   <g id="line2d_4">
    <path d="M 172.145455 136.756136 
L 199.636364 136.756136 
" clip-path="url(#p6dfd263b59)" style="fill: none; stroke: #000000; stroke-width: 1.5; stroke-linecap: square"/>
   </g>
   <g id="line2d_5">
    <path d="M 89.672727 199.985227 
L 117.163636 199.985227 
" clip-path="url(#p6dfd263b59)" style="fill: none; stroke: #000000; stroke-width: 2; stroke-linecap: square"/>
   </g>
   <g id="line2d_6">
    <path d="M 172.145455 199.985227 
L 199.636364 199.985227 
" clip-path="url(#p6dfd263b59)" style="fill: none; stroke: #000000; stroke-width: 2; stroke-linecap: square"/>
   </g>
   <g id="line2d_7">
    <path d="M 144.654545 301.701591 
L 144.654545 274.210682 
" clip-path="url(#p6dfd263b59)" style="fill: none; stroke: #000000; stroke-width: 1.5; stroke-linecap: square"/>
   </g>
   <g id="line2d_8">
    <path d="M 106.167273 301.701591 
L 183.141818 301.701591 
" clip-path="url(#p6dfd263b59)" style="fill: none; stroke: #000000; stroke-width: 2; stroke-linecap: square"/>
   </g>
   <g id="line2d_9">
    <path d="M 106.167273 293.454318 
L 183.141818 293.454318 
" clip-path="url(#p6dfd263b59)" style="fill: none; stroke: #000000; stroke-linecap: square"/>
   </g>
   <g id="line2d_10">
    <path d="M 51.185455 109.265227 
L 73.178182 109.265227 
" clip-path="url(#p6dfd263b59)" style="fill: none; stroke: #000000; stroke-width: 2; stroke-linecap: square"/>
   </g>
   <g id="line2d_11">
    <path d="M 216.130909 109.265227 
L 238.123636 109.265227 
" clip-path="url(#p6dfd263b59)" style="fill: none; stroke: #000000; stroke-width: 2; stroke-linecap: square"/>
   </g>
   <g id="line2d_12">
    <path d="M 216.130909 92.770682 
L 243.621818 125.759773 
" clip-path="url(#p6dfd263b59)" style="fill: none; stroke: #000000; stroke-width: 2.5; stroke-linecap: square"/>
   </g>
   <g id="line2d_13">
    <path d="M 243.621818 125.759773 
L 243.621818 191.737955 
" clip-path="url(#p6dfd263b59)" style="fill: none; stroke: #000000; stroke-width: 2.5; stroke-linecap: square"/>
   </g>
   <g id="text_1">
    <!-- 目镜 -->
    <g transform="translate(136.654545 43.287045) scale(0.08 -0.08)">
     <defs>
      <path id="MicrosoftYaHei-76ee" d="M 944 5016 
L 5469 5016 
L 5469 -772 
L 4938 -772 
L 4938 -303 
L 1475 -303 
L 1475 -772 
L 944 -772 
L 944 5016 
z
M 1475 1341 
L 1475 159 
L 4938 159 
L 4938 1341 
L 1475 1341 
z
M 1475 2947 
L 1475 1778 
L 4938 1778 
L 4938 2947 
L 1475 2947 
z
M 1475 4553 
L 1475 3384 
L 4938 3384 
L 4938 4553 
L 1475 4553 
z
" transform="scale(0.015625)"/>
      <path id="MicrosoftYaHei-955c" d="M 2413 2747 
L 5731 2747 
L 5731 653 
L 5294 653 
L 5294 772 
L 4769 772 
L 4769 -34 
Q 4769 -316 5031 -316 
L 5525 -316 
Q 5763 -316 5800 -91 
Q 5844 122 5869 628 
Q 6050 547 6306 453 
Q 6256 -28 6200 -259 
Q 6131 -722 5600 -722 
L 4856 -722 
Q 4325 -722 4325 -78 
L 4325 772 
L 3750 772 
Q 3663 -500 2125 -866 
Q 1975 -559 1881 -441 
Q 3194 -184 3303 772 
L 2850 772 
L 2850 628 
L 2413 628 
L 2413 2747 
z
M 144 1966 
L 913 1966 
L 913 2822 
L 538 2822 
L 538 3197 
Q 466 3069 394 2947 
Q 238 3166 75 3366 
Q 606 4197 850 5297 
L 1306 5203 
Q 1197 4784 1066 4403 
L 2131 4403 
L 2131 3978 
L 903 3978 
Q 747 3594 563 3247 
L 1963 3247 
L 1963 2822 
L 1356 2822 
L 1356 1966 
L 2144 1966 
L 2144 1541 
L 1356 1541 
L 1356 122 
Q 1744 397 2094 659 
Q 2131 441 2194 178 
Q 1744 -128 1363 -422 
Q 1250 -503 1031 -703 
L 706 -303 
Q 913 -128 913 172 
L 913 1541 
L 144 1541 
L 144 1966 
z
M 2088 3553 
L 3188 3553 
Q 3066 3763 2856 4059 
L 3225 4272 
Q 3394 4059 3650 3691 
L 3413 3553 
L 4491 3553 
Q 4697 3888 4875 4272 
L 5313 4059 
Q 5166 3809 4991 3553 
L 6163 3553 
L 6163 3178 
L 2088 3178 
L 2088 3553 
z
M 2338 4666 
L 3988 4666 
Q 3859 4872 3656 5141 
L 4038 5366 
Q 4294 5047 4463 4778 
L 4259 4666 
L 5900 4666 
L 5900 4291 
L 2338 4291 
L 2338 4666 
z
M 2850 1141 
L 5294 1141 
L 5294 1591 
L 2850 1591 
L 2850 1141 
z
M 5294 2378 
L 2850 2378 
L 2850 1934 
L 5294 1934 
L 5294 2378 
z
" transform="scale(0.015625)"/>
     </defs>
     <use xlink:href="#MicrosoftYaHei-76ee"/>
     <use xlink:href="#MicrosoftYaHei-955c" transform="translate(100 0)"/>
    </g>
   </g>
   <g id="text_2">
    <!-- 物镜 -->
    <g transform="translate(123.909091 145.003409) scale(0.07 -0.07)">
     <defs>
      <path id="MicrosoftYaHei-7269" d="M 2131 2866 
Q 2750 3816 3263 5341 
L 3719 5203 
Q 3541 4706 3363 4278 
L 6075 4278 
Q 5950 1759 5869 422 
Q 5800 -622 4869 -622 
Q 4519 -622 4044 -603 
Q 4013 -372 3956 -72 
Q 4500 -134 4819 -134 
Q 5325 -134 5375 441 
Q 5488 1759 5575 3834 
L 5097 3834 
Q 4934 2241 4569 1322 
Q 4069 134 2869 -716 
Q 2731 -522 2550 -334 
Q 3719 491 4169 1559 
Q 4531 2438 4634 3834 
L 4078 3834 
Q 3909 2641 3575 1916 
Q 3163 1097 2444 447 
Q 2288 647 2119 816 
Q 2831 1434 3175 2116 
Q 3509 2809 3619 3834 
L 3169 3834 
Q 2850 3125 2531 2628 
Q 2375 2734 2131 2866 
z
M 94 1584 
Q 669 1775 1288 1991 
L 1288 3466 
L 722 3466 
Q 597 2872 419 2378 
Q 219 2522 13 2653 
Q 363 3509 456 4709 
L 906 4634 
Q 863 4244 800 3884 
L 1288 3884 
L 1288 5291 
L 1756 5291 
L 1756 3884 
L 2375 3884 
L 2375 3466 
L 1756 3466 
L 1756 2156 
Q 2063 2269 2381 2384 
Q 2413 2109 2450 1909 
Q 2141 1797 1756 1653 
L 1756 -834 
L 1288 -834 
L 1288 1475 
Q 788 1288 188 1053 
L 94 1584 
z
" transform="scale(0.015625)"/>
     </defs>
     <use xlink:href="#MicrosoftYaHei-7269"/>
     <use xlink:href="#MicrosoftYaHei-955c" transform="translate(100 0)"/>
    </g>
   </g>
   <g id="text_3">
    <!-- 物镜 -->
    <g transform="translate(178.890909 145.003409) scale(0.07 -0.07)">
     <use xlink:href="#MicrosoftYaHei-7269"/>
     <use xlink:href="#MicrosoftYaHei-955c" transform="translate(100 0)"/>
    </g>
   </g>
   <g id="patch_4">
    <path d="M 62.181818 213.730682 
L 227.127273 213.730682 
L 227.127273 202.734318 
L 62.181818 202.734318 
z
" clip-path="url(#p6dfd263b59)" style="fill: #dddddd; stroke: #555555; stroke-width: 1.5; stroke-linejoin: miter"/>
   </g>
   <g id="text_4">
    <!-- 载物台 -->
    <g transform="translate(132.654545 194.487045) scale(0.08 -0.08)">
     <defs>
      <path id="MicrosoftYaHei-8f7d" d="M 2881 -416 
Q 3622 91 4213 806 
Q 3894 1769 3806 3234 
L 125 3234 
L 125 3653 
L 1681 3653 
L 1681 4234 
L 381 4234 
L 381 4628 
L 1681 4628 
L 1681 5266 
L 2144 5266 
L 2144 4628 
L 3375 4628 
L 3375 4234 
L 2144 4234 
L 2144 3653 
L 3781 3653 
Q 3744 4397 3713 5297 
L 4194 5297 
Q 4197 4419 4241 3653 
L 6319 3653 
L 6319 3234 
L 4266 3234 
Q 4331 2081 4563 1269 
Q 5034 1941 5394 2766 
L 5825 2566 
Q 5344 1531 4744 738 
Q 4938 278 5200 -34 
Q 5363 -222 5500 -222 
Q 5669 -222 5725 28 
Q 5800 366 5869 878 
Q 6119 766 6319 709 
Q 6238 178 6138 -234 
Q 5981 -791 5581 -791 
Q 5125 -791 4713 -209 
Q 4544 22 4406 319 
Q 3869 -297 3250 -741 
Q 3063 -528 2881 -416 
z
M 1006 1472 
L 1863 1472 
L 1863 2047 
L 2306 2047 
L 2306 1472 
L 3488 1472 
L 3488 1078 
L 2306 1078 
L 2306 497 
Q 2878 544 3513 597 
Q 3494 397 3494 191 
Q 2931 153 2306 100 
L 2306 -816 
L 1863 -816 
L 1863 59 
Q 1128 -3 313 -91 
L 213 359 
Q 956 400 1863 466 
L 1863 1078 
L 488 1078 
L 488 1484 
Q 741 1813 984 2216 
L 275 2216 
L 275 2609 
L 1213 2609 
Q 1366 2888 1513 3197 
L 1975 3053 
Q 1847 2819 1725 2609 
L 3538 2609 
L 3538 2216 
L 1491 2216 
Q 1231 1791 1006 1472 
z
M 4613 4841 
L 4919 5147 
Q 5550 4672 5944 4303 
L 5588 3941 
Q 5163 4397 4613 4841 
z
" transform="scale(0.015625)"/>
      <path id="MicrosoftYaHei-53f0" d="M 5431 2022 
L 5431 -816 
L 4919 -816 
L 4919 -403 
L 1481 -403 
L 1481 -816 
L 969 -816 
L 969 2022 
L 5431 2022 
z
M 4513 4503 
Q 5494 3591 6369 2634 
L 5925 2266 
Q 5675 2559 5419 2844 
Q 2613 2725 1131 2641 
Q 788 2616 469 2541 
L 263 3078 
Q 550 3184 781 3372 
Q 1850 4247 2738 5391 
L 3206 5103 
Q 2269 4003 1250 3147 
Q 3166 3206 5019 3284 
Q 4591 3750 4150 4191 
L 4513 4503 
z
M 4919 1559 
L 1481 1559 
L 1481 47 
L 4919 47 
L 4919 1559 
z
" transform="scale(0.015625)"/>
     </defs>
     <use xlink:href="#MicrosoftYaHei-8f7d"/>
     <use xlink:href="#MicrosoftYaHei-7269" transform="translate(100 0)"/>
     <use xlink:href="#MicrosoftYaHei-53f0" transform="translate(200 0)"/>
    </g>
   </g>
   <g id="text_5">
    <!-- 反光镜 -->
    <g transform="translate(132.654545 282.457955) scale(0.08 -0.08)">
     <defs>
      <path id="MicrosoftYaHei-53cd" d="M 881 4884 
Q 3369 4903 5738 5191 
L 5919 4691 
Q 3750 4503 1369 4434 
L 1369 3372 
L 5638 3372 
L 5638 2909 
Q 5125 1525 4100 591 
Q 5019 -25 6331 -247 
Q 6106 -534 5938 -803 
Q 4616 -422 3697 253 
Q 2738 -475 1406 -878 
Q 1263 -659 1063 -397 
Q 2366 -44 3278 597 
Q 2256 1525 1859 2909 
L 1369 2909 
L 1369 2553 
Q 1369 334 413 -853 
Q 250 -653 63 -453 
Q 881 559 881 2553 
L 881 4884 
z
M 5050 2909 
L 2366 2909 
Q 2794 1678 3681 909 
Q 4622 1722 5050 2909 
z
" transform="scale(0.015625)"/>
      <path id="MicrosoftYaHei-5149" d="M 169 2691 
L 2931 2691 
L 2931 5309 
L 3444 5309 
L 3444 2691 
L 6256 2691 
L 6256 2228 
L 4206 2228 
L 4206 216 
Q 4206 -22 4269 -116 
Q 4356 -241 4638 -241 
L 5256 -241 
Q 5706 -241 5750 91 
Q 5794 428 5819 984 
Q 6056 884 6344 797 
Q 6288 153 6231 -122 
Q 6175 -441 5963 -559 
Q 5763 -678 5281 -678 
L 4538 -678 
Q 4056 -678 3863 -466 
Q 3700 -284 3700 141 
L 3700 2228 
L 2491 2228 
Q 2466 931 1988 266 
Q 1469 -459 369 -841 
Q 244 -647 50 -397 
Q 1150 -16 1569 603 
Q 1966 1134 1991 2228 
L 169 2228 
L 169 2691 
z
M 4094 3397 
Q 4813 4084 5369 4828 
L 5825 4503 
Q 5200 3766 4481 3059 
L 4094 3397 
z
M 619 4528 
L 1000 4828 
Q 1631 4134 2213 3434 
L 1756 3084 
Q 1188 3866 619 4528 
z
" transform="scale(0.015625)"/>
     </defs>
     <use xlink:href="#MicrosoftYaHei-53cd"/>
     <use xlink:href="#MicrosoftYaHei-5149" transform="translate(100 0)"/>
     <use xlink:href="#MicrosoftYaHei-955c" transform="translate(200 0)"/>
    </g>
   </g>
   <g id="text_6">
    <!-- 粗准焦螺旋 -->
    <g transform="translate(44.681818 98.268864) scale(0.07 -0.07)">
     <defs>
      <path id="MicrosoftYaHei-7c97" d="M 2325 -109 
L 3100 -109 
L 3100 4916 
L 5788 4916 
L 5788 -109 
L 6319 -109 
L 6319 -553 
L 2325 -553 
L 2325 -109 
z
M 3563 -109 
L 5325 -109 
L 5325 1134 
L 3563 1134 
L 3563 -109 
z
M 3563 1572 
L 5325 1572 
L 5325 2803 
L 3563 2803 
L 3563 1572 
z
M 5325 4472 
L 3563 4472 
L 3563 3241 
L 5325 3241 
L 5325 4472 
z
M 1800 3547 
Q 2169 4203 2413 4809 
L 2838 4628 
Q 2606 4141 2169 3353 
L 1800 3547 
z
M 100 4647 
L 469 4803 
Q 844 4041 1013 3578 
L 594 3378 
Q 225 4378 100 4647 
z
M 75 597 
Q 819 1616 1125 2591 
L 106 2591 
L 106 3016 
L 1225 3016 
L 1225 5309 
L 1669 5309 
L 1669 3016 
L 2806 3016 
L 2806 2591 
L 1669 2591 
L 1669 1797 
L 1894 2016 
Q 2394 1578 2806 1191 
L 2475 878 
Q 1938 1428 1669 1666 
L 1669 -822 
L 1225 -822 
L 1225 1841 
Q 863 859 269 97 
Q 188 353 75 597 
z
" transform="scale(0.015625)"/>
      <path id="MicrosoftYaHei-51c6" d="M 1413 2766 
Q 2313 3866 2869 5334 
L 3331 5172 
Q 3128 4694 2906 4253 
L 6194 4253 
L 6194 3822 
L 4675 3822 
L 4675 2891 
L 6025 2891 
L 6025 2459 
L 4675 2459 
L 4675 1528 
L 6038 1528 
L 6038 1097 
L 4675 1097 
L 4675 78 
L 6275 78 
L 6275 -341 
L 2769 -341 
L 2769 -841 
L 2281 -841 
L 2281 3131 
Q 2034 2738 1769 2384 
Q 1631 2578 1413 2766 
z
M 2769 78 
L 4188 78 
L 4188 1097 
L 2769 1097 
L 2769 78 
z
M 1081 2422 
Q 1325 2291 1556 2209 
Q 1113 916 681 -372 
L 169 -141 
Q 650 1003 1081 2422 
z
M 2769 1528 
L 4188 1528 
L 4188 2459 
L 2769 2459 
L 2769 1528 
z
M 2769 2891 
L 4188 2891 
L 4188 3822 
L 2769 3822 
L 2769 2891 
z
M 531 4991 
Q 1050 4384 1581 3709 
Q 1538 3678 1150 3341 
Q 681 3997 138 4672 
L 531 4991 
z
M 3919 5116 
L 4325 5372 
Q 4569 5072 4881 4622 
L 4450 4334 
Q 4156 4784 3919 5116 
z
" transform="scale(0.015625)"/>
      <path id="MicrosoftYaHei-7126" d="M 113 3222 
Q 956 4109 1475 5347 
L 1950 5178 
Q 1756 4778 1544 4409 
L 3491 4409 
Q 3269 4763 2988 5122 
L 3381 5372 
Q 3744 4934 3950 4628 
L 3591 4409 
L 5975 4409 
L 5975 3997 
L 3844 3997 
L 3844 3347 
L 5738 3347 
L 5738 2934 
L 3844 2934 
L 3844 2284 
L 5738 2284 
L 5738 1872 
L 3844 1872 
L 3844 1222 
L 6075 1222 
L 6075 809 
L 1494 809 
L 1494 666 
L 1006 666 
L 1006 3553 
Q 734 3163 438 2809 
Q 300 3022 113 3222 
z
M 1494 3347 
L 3356 3347 
L 3356 3997 
L 1494 3997 
L 1494 3347 
z
M 1494 1222 
L 3356 1222 
L 3356 1872 
L 1494 1872 
L 1494 1222 
z
M 1494 2284 
L 3356 2284 
L 3356 2934 
L 1494 2934 
L 1494 2284 
z
M 975 534 
L 1413 322 
Q 1175 -197 725 -866 
Q 569 -759 300 -597 
Q 731 -3 975 534 
z
M 5069 309 
L 5475 541 
Q 5850 9 6131 -522 
L 5694 -791 
Q 5450 -259 5069 309 
z
M 3531 353 
L 3975 541 
Q 4275 9 4494 -541 
L 4006 -753 
Q 3775 -116 3531 353 
z
M 2019 322 
L 2481 478 
Q 2656 103 2894 -597 
L 2375 -766 
Q 2200 -91 2019 322 
z
" transform="scale(0.015625)"/>
      <path id="MicrosoftYaHei-87ba" d="M 5300 1847 
Q 5725 1441 6288 784 
L 5944 503 
Q 5813 666 5681 816 
Q 5150 784 4619 753 
L 4619 -34 
Q 4619 -816 3919 -816 
Q 3625 -816 3325 -803 
Q 3294 -559 3244 -322 
Q 3575 -359 3788 -359 
Q 4181 -359 4181 22 
L 4181 722 
Q 3738 697 3294 666 
Q 3000 647 2756 584 
L 2606 1084 
Q 2894 1172 3163 1278 
Q 3650 1528 4119 1791 
Q 3675 1766 3281 1734 
Q 3063 1716 2938 1691 
L 2788 2166 
Q 3031 2222 3213 2322 
Q 3588 2547 3950 2791 
L 3088 2791 
L 3088 2597 
L 2675 2597 
L 2675 5009 
L 6056 5009 
L 6056 2597 
L 5644 2597 
L 5644 2791 
L 4406 2791 
L 4506 2703 
Q 4031 2409 3450 2122 
Q 4075 2141 4763 2172 
Q 5131 2397 5481 2628 
L 5788 2328 
Q 4488 1547 3419 1053 
Q 4494 1116 5375 1172 
Q 5175 1409 4981 1609 
L 5300 1847 
z
M 1806 1253 
L 2169 1366 
Q 2419 547 2569 -16 
L 2169 -141 
Q 2138 3 2094 166 
Q 1175 41 131 -122 
L 81 341 
Q 606 403 1125 466 
L 1125 1784 
L 719 1784 
L 719 1447 
L 338 1447 
L 338 4184 
L 1125 4184 
L 1125 5322 
L 1525 5322 
L 1525 4184 
L 2313 4184 
L 2313 1784 
L 1525 1784 
L 1525 516 
Q 1756 547 1988 578 
Q 1906 884 1806 1253 
z
M 2244 -278 
Q 2975 103 3525 534 
L 3800 191 
Q 3156 -291 2500 -666 
Q 2419 -516 2244 -278 
z
M 4863 197 
L 5100 559 
Q 5719 216 6356 -228 
L 6094 -634 
Q 5538 -209 4863 197 
z
M 1931 2191 
L 1931 3772 
L 1525 3772 
L 1525 2191 
L 1931 2191 
z
M 719 2191 
L 1125 2191 
L 1125 3772 
L 719 3772 
L 719 2191 
z
M 4569 3166 
L 5644 3166 
L 5644 3722 
L 4569 3722 
L 4569 3166 
z
M 3088 3166 
L 4156 3166 
L 4156 3722 
L 3088 3722 
L 3088 3166 
z
M 5644 4634 
L 4569 4634 
L 4569 4084 
L 5644 4084 
L 5644 4634 
z
M 3088 4084 
L 4156 4084 
L 4156 4634 
L 3088 4634 
L 3088 4084 
z
" transform="scale(0.015625)"/>
      <path id="MicrosoftYaHei-65cb" d="M 2244 -597 
Q 2994 372 2956 2153 
L 3406 2153 
Q 3406 1422 3306 822 
Q 3713 141 4169 -34 
L 4169 2884 
L 3006 2884 
L 3006 3316 
L 6106 3316 
L 6106 2891 
Q 5944 2516 5706 2053 
Q 5513 2147 5281 2222 
Q 5475 2584 5606 2884 
L 4625 2884 
L 4625 1684 
L 6000 1684 
L 6000 1253 
L 4625 1253 
L 4625 -159 
Q 5138 -234 6313 -184 
Q 6250 -391 6169 -666 
Q 5425 -666 4894 -647 
Q 4044 -647 3563 -209 
Q 3356 -22 3181 259 
Q 2988 -416 2631 -903 
Q 2456 -734 2244 -597 
z
M 194 4278 
L 1438 4278 
Q 1188 4709 925 5084 
L 1294 5322 
Q 1619 4891 1850 4509 
L 1494 4278 
L 2513 4278 
L 2513 3847 
L 1200 3847 
Q 1194 3378 1181 2916 
L 2306 2916 
Q 2256 1022 2225 359 
Q 2200 -597 1481 -597 
Q 1263 -597 938 -591 
Q 900 -384 844 -116 
Q 1181 -153 1369 -153 
Q 1756 -153 1769 366 
Q 1813 1109 1838 2484 
L 1169 2484 
Q 1163 2303 1156 2122 
Q 1119 191 375 -753 
Q 250 -584 56 -378 
Q 669 434 706 2109 
Q 738 2997 750 3847 
L 194 3847 
L 194 4278 
z
M 2350 3309 
Q 3000 4184 3356 5316 
L 3819 5159 
Q 3694 4816 3556 4503 
L 6263 4503 
L 6263 4072 
L 3356 4072 
Q 3056 3453 2706 2941 
Q 2494 3178 2350 3309 
z
" transform="scale(0.015625)"/>
     </defs>
     <use xlink:href="#MicrosoftYaHei-7c97"/>
     <use xlink:href="#MicrosoftYaHei-51c6" transform="translate(100 0)"/>
     <use xlink:href="#MicrosoftYaHei-7126" transform="translate(200 0)"/>
     <use xlink:href="#MicrosoftYaHei-87ba" transform="translate(300 0)"/>
     <use xlink:href="#MicrosoftYaHei-65cb" transform="translate(400 0)"/>
    </g>
   </g>
   <g id="text_7">
    <!-- 镜臂 -->
    <g transform="translate(252.116364 136.756136) scale(0.08 -0.08)">
     <defs>
      <path id="MicrosoftYaHei-81c2" d="M 1531 -816 
L 1094 -816 
L 1094 1847 
L 5444 1847 
L 5444 -72 
Q 5444 -747 4775 -747 
Q 4281 -747 3925 -741 
Q 3900 -553 3844 -303 
Q 4338 -334 4663 -334 
Q 5006 -334 5006 -9 
L 5006 59 
L 1531 59 
L 1531 -816 
z
M 594 5034 
L 3013 5034 
L 3013 3709 
L 2625 3709 
L 2625 3853 
L 947 3853 
Q 838 2950 369 2309 
Q 250 2484 94 2672 
Q 594 3303 594 4428 
L 594 5034 
z
M 5750 4159 
Q 5575 3919 5388 3691 
L 6275 3691 
L 6275 3353 
L 4875 3353 
L 4875 2872 
L 6081 2872 
L 6081 2534 
L 4875 2534 
L 4875 2009 
L 4463 2009 
L 4463 2534 
L 3313 2534 
L 3313 2872 
L 4463 2872 
L 4463 3353 
L 3150 3353 
L 3150 3691 
L 4009 3691 
Q 3884 3881 3669 4153 
L 3981 4372 
Q 4213 4116 4394 3866 
L 4128 3691 
L 4950 3691 
Q 5197 4041 5369 4359 
L 5750 4159 
z
M 919 3384 
L 3013 3384 
L 3013 2103 
L 2625 2103 
L 2625 2247 
L 1306 2247 
L 1306 2103 
L 919 2103 
L 919 3384 
z
M 5006 1497 
L 1531 1497 
L 1531 1116 
L 5006 1116 
L 5006 1497 
z
M 1531 397 
L 5006 397 
L 5006 778 
L 1531 778 
L 1531 397 
z
M 3288 4747 
L 4566 4747 
Q 4428 4956 4250 5197 
L 4581 5397 
Q 4794 5134 4956 4878 
L 4738 4747 
L 6156 4747 
L 6156 4409 
L 3288 4409 
L 3288 4747 
z
M 2625 4697 
L 981 4697 
Q 981 4428 975 4191 
L 2625 4191 
L 2625 4697 
z
M 2625 3059 
L 1306 3059 
L 1306 2572 
L 2625 2572 
L 2625 3059 
z
" transform="scale(0.015625)"/>
     </defs>
     <use xlink:href="#MicrosoftYaHei-955c"/>
     <use xlink:href="#MicrosoftYaHei-81c2" transform="translate(100 0)"/>
    </g>
   </g>
   <g id="text_8">
    <!-- 镜座 -->
    <g transform="translate(136.654545 309.948864) scale(0.08 -0.08)">
     <defs>
      <path id="MicrosoftYaHei-5ea7" d="M 1113 -109 
L 3413 -109 
L 3413 791 
L 1531 791 
L 1531 1228 
L 3413 1228 
L 3413 4022 
L 3938 4022 
L 3938 1228 
L 5838 1228 
L 5838 791 
L 3938 791 
L 3938 -109 
L 6263 -109 
L 6263 -559 
L 1113 -559 
L 1113 -109 
z
M 1088 2197 
Q 1088 22 525 -816 
Q 331 -578 88 -391 
Q 600 297 600 2247 
L 600 4584 
L 3375 4584 
Q 3134 4944 2969 5128 
L 3381 5353 
Q 3613 5078 3825 4797 
L 3463 4584 
L 6088 4584 
L 6088 4134 
L 1088 4134 
L 1088 2197 
z
M 3981 1941 
Q 4725 2722 4956 3716 
L 5406 3584 
Q 5322 3284 5219 3019 
Q 5731 2556 6219 2053 
L 5825 1703 
Q 5422 2222 5041 2609 
Q 4763 2031 4375 1628 
Q 4188 1834 3981 1941 
z
M 1100 1947 
Q 1850 2684 2081 3703 
L 2538 3584 
Q 2456 3278 2347 3003 
Q 2828 2572 3281 2103 
L 2888 1753 
Q 2509 2234 2166 2594 
Q 1891 2050 1488 1628 
Q 1313 1822 1100 1947 
z
" transform="scale(0.015625)"/>
     </defs>
     <use xlink:href="#MicrosoftYaHei-955c"/>
     <use xlink:href="#MicrosoftYaHei-5ea7" transform="translate(100 0)"/>
    </g>
   </g>
   <g id="text_9">
    <!-- 显微镜结构示意图 -->
    <g transform="translate(110.4 16.7925) scale(0.12 -0.12)">
     <defs>
      <path id="MicrosoftYaHei-Bold-663e" d="M 731 5103 
L 5675 5103 
L 5675 2272 
L 731 2272 
L 731 5103 
z
M 4813 4391 
L 1594 4391 
L 1594 4016 
L 4813 4016 
L 4813 4391 
z
M 4813 2984 
L 4813 3359 
L 1594 3359 
L 1594 2984 
L 4813 2984 
z
M 175 141 
L 2044 141 
L 2044 2097 
L 2919 2097 
L 2919 141 
L 3488 141 
L 3488 2097 
L 4363 2097 
L 4363 141 
L 6231 141 
L 6231 -634 
L 175 -634 
L 175 141 
z
M 5344 2034 
L 6044 1609 
Q 5663 1066 5075 322 
Q 4894 478 4450 797 
Q 4950 1403 5344 2034 
z
M 1000 2009 
Q 1500 1416 1956 803 
L 1269 334 
Q 788 1072 375 1603 
L 1000 2009 
z
" transform="scale(0.015625)"/>
      <path id="MicrosoftYaHei-Bold-5fae" d="M 4275 728 
Q 4288 466 4306 253 
Q 4566 541 4766 884 
Q 4488 1613 4397 2528 
Q 4316 2394 4231 2266 
Q 4113 2597 3919 2959 
Q 3953 3019 3988 3084 
L 1878 3084 
Q 1663 2728 1431 2394 
L 1431 -834 
L 694 -834 
L 694 1428 
Q 509 1213 319 1009 
Q 219 1359 25 1872 
Q 744 2672 1294 3622 
L 1756 3281 
L 1756 4659 
Q 1166 3869 506 3222 
Q 275 3591 38 3922 
Q 713 4534 1263 5322 
L 1906 4866 
Q 1859 4800 1809 4734 
L 2363 4734 
L 2363 3647 
L 2613 3647 
L 2613 5266 
L 3219 5266 
L 3219 3647 
L 3469 3647 
L 3469 4734 
L 4075 4734 
L 4075 3259 
Q 4463 4075 4731 5347 
L 5463 5191 
Q 5350 4719 5203 4278 
L 6306 4278 
L 6306 3534 
L 6094 3534 
Q 6003 1991 5563 881 
Q 5866 378 6313 47 
Q 6075 -497 5975 -834 
Q 5500 -444 5166 81 
Q 4831 -463 4381 -866 
Q 4247 -509 4063 -216 
Q 3659 -494 3388 -716 
L 3031 -247 
Q 3175 -72 3169 134 
L 3169 1053 
L 2613 1053 
Q 2625 -228 1950 -822 
Q 1769 -566 1481 -284 
Q 1672 -109 1784 134 
Q 1897 378 1926 622 
Q 1956 866 1956 1678 
L 3838 1678 
L 3838 403 
Q 3975 497 4275 728 
z
M 5156 1809 
Q 5384 2572 5413 3534 
L 4916 3534 
L 4903 3503 
Q 4938 2547 5156 1809 
z
M 1806 2691 
L 4019 2691 
L 4019 2072 
L 1806 2072 
L 1806 2691 
z
" transform="scale(0.015625)"/>
      <path id="MicrosoftYaHei-Bold-955c" d="M 2138 3947 
L 1150 3947 
Q 1059 3700 953 3472 
L 2063 3472 
L 2063 2766 
L 1506 2766 
L 1506 2159 
L 2250 2159 
L 2250 1453 
L 1506 1453 
L 1506 634 
Q 1806 872 2156 1172 
Q 2175 697 2263 259 
Q 1450 -272 969 -753 
L 550 -166 
Q 719 3 719 366 
L 719 1453 
L 100 1453 
L 100 2159 
L 719 2159 
L 719 2766 
L 572 2766 
Q 459 2584 338 2416 
Q 238 2909 81 3422 
Q 581 4297 781 5353 
L 1531 5228 
Q 1466 4928 1384 4647 
L 2138 4647 
L 2138 3947 
z
M 6056 4241 
L 5025 4241 
L 5631 4084 
Q 5528 3928 5419 3772 
L 6231 3772 
L 6231 3147 
L 2175 3147 
L 2175 3772 
L 2947 3772 
Q 2856 3928 2750 4097 
L 3341 4241 
L 2350 4241 
L 2350 4866 
L 3694 4866 
Q 3606 5031 3500 5209 
L 4475 5328 
Q 4547 5091 4606 4866 
L 6056 4866 
L 6056 4241 
z
M 3825 3772 
L 4494 3772 
Q 4656 4013 4775 4241 
L 3519 4241 
Q 3681 4009 3825 3772 
z
M 2356 2891 
L 5919 2891 
L 5919 609 
L 5063 609 
L 5063 141 
Q 5063 -97 5256 -97 
L 5325 -97 
Q 5450 -97 5509 15 
Q 5569 128 5600 578 
Q 5956 422 6319 316 
Q 6219 -466 5980 -631 
Q 5741 -797 5400 -797 
L 5025 -797 
Q 4275 -797 4275 -103 
L 4275 609 
L 3881 609 
Q 3738 -459 2500 -897 
Q 2281 -572 1963 -234 
Q 2963 41 3078 609 
L 2356 609 
L 2356 2891 
z
M 5131 2297 
L 3144 2297 
L 3144 2016 
L 5131 2016 
L 5131 2297 
z
M 5131 1197 
L 5131 1478 
L 3144 1478 
L 3144 1197 
L 5131 1197 
z
" transform="scale(0.015625)"/>
      <path id="MicrosoftYaHei-Bold-7ed3" d="M 2538 3128 
L 3850 3128 
L 3850 3809 
L 2472 3809 
L 2681 3709 
Q 1906 2528 1350 1784 
Q 1800 1841 2313 1891 
Q 2275 1466 2263 1116 
Q 894 966 400 834 
L 156 1534 
Q 553 1884 1100 2697 
Q 631 2663 288 2616 
L 56 3328 
Q 550 3934 1138 5366 
L 1963 5059 
Q 1469 4134 988 3397 
L 1563 3425 
L 1938 4066 
L 2350 3869 
L 2350 4553 
L 3850 4553 
L 3850 5341 
L 4725 5341 
L 4725 4553 
L 6288 4553 
L 6288 3809 
L 4725 3809 
L 4725 3128 
L 6100 3128 
L 6100 2384 
L 2538 2384 
L 2538 3128 
z
M 2594 -841 
L 2594 1847 
L 6025 1847 
L 6025 -841 
L 5188 -841 
L 5188 -472 
L 3431 -472 
L 3431 -841 
L 2594 -841 
z
M 5188 1084 
L 3431 1084 
L 3431 291 
L 5188 291 
L 5188 1084 
z
M 231 -516 
L 94 359 
Q 1175 497 2406 684 
Q 2369 159 2375 -184 
Q 1263 -341 231 -516 
z
" transform="scale(0.015625)"/>
      <path id="MicrosoftYaHei-Bold-6784" d="M 75 1709 
Q 550 2447 828 3353 
L 138 3353 
L 138 4091 
L 900 4091 
L 900 5303 
L 1713 5303 
L 1713 4091 
L 2313 4091 
L 2313 3756 
Q 2825 4431 3100 5278 
L 3963 5209 
Q 3850 4903 3719 4616 
L 6056 4616 
Q 6056 3244 6042 2212 
Q 6028 1181 6004 565 
Q 5981 -50 5714 -367 
Q 5447 -684 5051 -725 
Q 4656 -766 3675 -747 
Q 3588 -253 3494 122 
Q 4175 66 4600 66 
Q 4863 66 5023 206 
Q 5184 347 5191 822 
L 4775 609 
L 4644 878 
Q 3147 769 2444 622 
L 2188 1334 
Q 2669 1691 3388 3453 
L 4188 3128 
L 3206 1453 
L 4316 1525 
Q 4106 1928 3875 2347 
L 4519 2684 
Q 4866 2113 5209 1481 
Q 5231 2419 5231 3841 
L 3313 3841 
Q 2991 3297 2594 2822 
Q 2319 3125 2072 3353 
L 1713 3353 
L 1713 2991 
Q 2153 2594 2575 2191 
L 2031 1678 
Q 1872 1906 1713 2116 
L 1713 -822 
L 900 -822 
L 900 1816 
Q 647 1156 288 566 
Q 219 997 75 1709 
z
" transform="scale(0.015625)"/>
      <path id="MicrosoftYaHei-Bold-793a" d="M 769 4966 
L 5669 4966 
L 5669 4078 
L 769 4078 
L 769 4966 
z
M 206 3259 
L 6206 3259 
L 6206 2372 
L 3794 2372 
L 3794 303 
Q 3794 -216 3612 -430 
Q 3431 -644 3173 -711 
Q 2916 -778 1850 -778 
Q 1744 -241 1638 159 
Q 2116 109 2431 109 
Q 2850 109 2850 447 
L 2850 2372 
L 206 2372 
L 206 3259 
z
M 1438 2103 
L 2244 1678 
Q 1488 459 825 -353 
Q 513 -97 88 197 
Q 850 1097 1438 2103 
z
M 4869 2072 
Q 5606 1178 6319 203 
Q 5981 -16 5506 -341 
Q 4944 578 4175 1609 
L 4869 2072 
z
" transform="scale(0.015625)"/>
      <path id="MicrosoftYaHei-Bold-610f" d="M 175 3897 
L 1622 3897 
Q 1497 4072 1400 4184 
L 1891 4366 
L 488 4366 
L 488 4903 
L 2731 4903 
L 2569 5272 
L 3631 5366 
Q 3716 5178 3813 4903 
L 5881 4903 
L 5881 4366 
L 4397 4366 
L 4963 4166 
L 4728 3897 
L 6238 3897 
L 6238 3334 
L 175 3334 
L 175 3897 
z
M 2578 3897 
L 3794 3897 
Q 3988 4184 4097 4366 
L 2219 4366 
Q 2416 4116 2578 3897 
z
M 794 966 
L 794 3053 
L 5600 3053 
L 5600 966 
L 3441 966 
Q 3734 734 3906 572 
L 3319 41 
Q 3069 341 2650 722 
L 2934 966 
L 794 966 
z
M 4794 2541 
L 1600 2541 
L 1600 2234 
L 4794 2234 
L 4794 2541 
z
M 4794 1478 
L 4794 1784 
L 1600 1784 
L 1600 1478 
L 4794 1478 
z
M 606 859 
L 1350 572 
Q 1094 -78 781 -634 
L 88 -291 
Q 425 322 606 859 
z
M 4194 728 
Q 4488 559 4975 366 
Q 4806 -363 4540 -548 
Q 4275 -734 3819 -734 
L 2544 -734 
Q 1594 -734 1594 28 
L 1594 834 
L 2419 834 
L 2419 253 
Q 2419 -47 2756 -47 
L 3550 -47 
Q 3888 -47 4016 79 
Q 4144 206 4194 728 
z
M 5688 834 
Q 6100 309 6338 -166 
L 5644 -578 
Q 5331 9 5000 466 
L 5688 834 
z
" transform="scale(0.015625)"/>
      <path id="MicrosoftYaHei-Bold-56fe" d="M 369 -841 
L 369 5072 
L 6019 5072 
L 6019 -834 
L 5156 -834 
L 5156 -591 
L 1231 -591 
L 1231 -841 
L 369 -841 
z
M 4875 3978 
L 4875 3466 
Q 4547 3022 4006 2678 
Q 4513 2541 5156 2463 
L 5156 4316 
L 3256 4316 
Q 3141 4144 3009 3978 
L 4875 3978 
z
M 2394 4316 
L 1231 4316 
L 1231 3231 
Q 2016 3747 2394 4316 
z
M 3228 2959 
Q 3666 3163 3919 3416 
L 2575 3416 
Q 2828 3156 3228 2959 
z
M 1644 2747 
Q 1481 2925 1231 3147 
L 1231 2400 
Q 1950 2522 2500 2688 
Q 2266 2863 2078 3063 
Q 1872 2900 1644 2747 
z
M 1669 1303 
Q 3319 1084 4775 841 
L 4600 166 
L 5156 166 
L 5156 2388 
Q 5019 2159 4825 1822 
Q 3897 1978 3219 2275 
Q 2872 2134 2472 2019 
Q 3509 1888 4500 1722 
L 4375 1128 
Q 3344 1309 2063 1484 
L 2159 1934 
Q 1856 1859 1525 1797 
Q 1409 2059 1231 2347 
L 1231 166 
L 4569 166 
Q 3297 425 1494 647 
L 1669 1303 
z
" transform="scale(0.015625)"/>
     </defs>
     <use xlink:href="#MicrosoftYaHei-Bold-663e"/>
     <use xlink:href="#MicrosoftYaHei-Bold-5fae" transform="translate(100 0)"/>
     <use xlink:href="#MicrosoftYaHei-Bold-955c" transform="translate(200 0)"/>
     <use xlink:href="#MicrosoftYaHei-Bold-7ed3" transform="translate(300 0)"/>
     <use xlink:href="#MicrosoftYaHei-Bold-6784" transform="translate(400 0)"/>
     <use xlink:href="#MicrosoftYaHei-Bold-793a" transform="translate(500 0)"/>
     <use xlink:href="#MicrosoftYaHei-Bold-610f" transform="translate(600 0)"/>
     <use xlink:href="#MicrosoftYaHei-Bold-56fe" transform="translate(700 0)"/>
    </g>
   </g>
  </g>
 </g>
 <defs>
  <clipPath id="p6dfd263b59">
   <rect x="7.2" y="26.7925" width="302.4" height="302.4"/>
  </clipPath>
 </defs>
</svg>
