<?xml version="1.0" encoding="utf-8" standalone="no"?>
<!DOCTYPE svg PUBLIC "-//W3C//DTD SVG 1.1//EN"
  "http://www.w3.org/Graphics/SVG/1.1/DTD/svg11.dtd">
<svg xmlns:xlink="http://www.w3.org/1999/xlink" width="576.612063pt" height="281.193125pt" viewBox="0 0 576.612063 281.193125" xmlns="http://www.w3.org/2000/svg" version="1.1">
 <metadata>
  <rdf:RDF xmlns:dc="http://purl.org/dc/elements/1.1/" xmlns:cc="http://creativecommons.org/ns#" xmlns:rdf="http://www.w3.org/1999/02/22-rdf-syntax-ns#">
   <cc:Work>
    <dc:type rdf:resource="http://purl.org/dc/dcmitype/StillImage"/>
    <dc:date>2026-05-22T14:45:25.362864</dc:date>
    <dc:format>image/svg+xml</dc:format>
    <dc:creator>
     <cc:Agent>
      <dc:title>Matplotlib v3.10.9, https://matplotlib.org/</dc:title>
     </cc:Agent>
    </dc:creator>
   </cc:Work>
  </rdf:RDF>
 </metadata>
 <defs>
  <style type="text/css">*{stroke-linejoin: round; stroke-linecap: butt}</style>
 </defs>
 <g id="figure_1">
  <g id="patch_1">
   <path d="M 0 281.193125 
L 576.612063 281.193125 
L 576.612063 0 
L 0 0 
L 0 281.193125 
z
" style="fill: none"/>
  </g>
  <g id="axes_1">
   <g id="FillBetweenPolyCollection_1">
    <defs>
     <path id="mb450c377fc" d="M 7.2 -106.83638 
L 7.2 -89.260633 
L 241.543293 -89.260633 
L 241.543293 -106.83638 
L 241.543293 -106.83638 
L 7.2 -106.83638 
z
" style="stroke: #555555; stroke-opacity: 0.6"/>
    </defs>
    <g clip-path="url(#p0616b598e1)">
     <use xlink:href="#mb450c377fc" x="0" y="281.193125" style="fill: #8bc34a; fill-opacity: 0.6; stroke: #555555; stroke-opacity: 0.6"/>
    </g>
   </g>
   <g id="FillBetweenPolyCollection_2">
    <defs>
     <path id="m5786e90568" d="M 7.2 -130.270709 
L 7.2 -106.83638 
L 241.543293 -106.83638 
L 241.543293 -130.270709 
L 241.543293 -130.270709 
L 7.2 -130.270709 
z
" style="stroke: #555555; stroke-opacity: 0.6"/>
    </defs>
    <g clip-path="url(#p0616b598e1)">
     <use xlink:href="#m5786e90568" x="0" y="281.193125" style="fill: #4caf50; fill-opacity: 0.6; stroke: #555555; stroke-opacity: 0.6"/>
    </g>
   </g>
   <g id="FillBetweenPolyCollection_3">
    <defs>
     <path id="mfadbd128f9" d="M 7.2 -147.846456 
L 7.2 -130.270709 
L 241.543293 -130.270709 
L 241.543293 -147.846456 
L 241.543293 -147.846456 
L 7.2 -147.846456 
z
" style="stroke: #555555; stroke-opacity: 0.6"/>
    </defs>
    <g clip-path="url(#p0616b598e1)">
     <use xlink:href="#mfadbd128f9" x="0" y="281.193125" style="fill: #81c784; fill-opacity: 0.6; stroke: #555555; stroke-opacity: 0.6"/>
    </g>
   </g>
   <g id="FillBetweenPolyCollection_4">
    <defs>
     <path id="m2741792f92" d="M 7.2 -165.422203 
L 7.2 -147.846456 
L 241.543293 -147.846456 
L 241.543293 -165.422203 
L 241.543293 -165.422203 
L 7.2 -165.422203 
z
" style="stroke: #555555; stroke-opacity: 0.6"/>
    </defs>
    <g clip-path="url(#p0616b598e1)">
     <use xlink:href="#m2741792f92" x="0" y="281.193125" style="fill: #8bc34a; fill-opacity: 0.6; stroke: #555555; stroke-opacity: 0.6"/>
    </g>
   </g>
   <g id="patch_2">
    <path d="M 95.078735 168.498163 
L 153.664558 168.498163 
L 141.947394 145.063834 
L 106.7959 145.063834 
z
" clip-path="url(#p0616b598e1)" style="fill: #b39ddb; stroke: #555555; stroke-linejoin: miter"/>
   </g>
   <g id="line2d_1">
    <path d="M 124.371647 133.346669 
L 147.805976 124.558796 
" clip-path="url(#p0616b598e1)" style="fill: none; stroke: #000000; stroke-width: 2; stroke-linecap: square"/>
   </g>
   <g id="line2d_2">
    <path d="M 124.371647 133.346669 
L 100.937317 124.558796 
" clip-path="url(#p0616b598e1)" style="fill: none; stroke: #000000; stroke-width: 2; stroke-linecap: square"/>
   </g>
   <g id="text_1">
    <!-- 上表皮 -->
    <g transform="translate(253.260458 185.623135) scale(0.09 -0.09)">
     <defs>
      <path id="MicrosoftYaHei-4e0a" d="M 163 47 
L 2613 47 
L 2613 5209 
L 3181 5209 
L 3181 3328 
L 5750 3328 
L 5750 2828 
L 3181 2828 
L 3181 47 
L 6244 47 
L 6244 -453 
L 163 -453 
L 163 47 
z
" transform="scale(0.015625)"/>
      <path id="MicrosoftYaHei-8868" d="M 5519 1891 
L 5863 1459 
L 4466 759 
Q 5200 159 6306 -34 
Q 6094 -309 5956 -534 
Q 3941 -53 3066 1944 
Q 2747 1538 2338 1172 
L 2338 -166 
Q 3163 103 3869 397 
Q 3863 122 3875 -147 
Q 3125 -403 2325 -709 
Q 2156 -778 1994 -872 
L 1700 -416 
Q 1875 -291 1875 -66 
L 1875 794 
Q 1228 309 406 -84 
Q 269 134 88 347 
Q 1703 1009 2625 2122 
L 156 2122 
L 156 2553 
L 2956 2553 
L 2956 3191 
L 600 3191 
L 600 3622 
L 2956 3622 
L 2956 4234 
L 350 4234 
L 350 4666 
L 2956 4666 
L 2956 5366 
L 3450 5366 
L 3450 4666 
L 6069 4666 
L 6069 4234 
L 3450 4234 
L 3450 3622 
L 5800 3622 
L 5800 3191 
L 3450 3191 
L 3450 2553 
L 6244 2553 
L 6244 2122 
L 3466 2122 
Q 3728 1513 4141 1066 
Q 4769 1378 5519 1891 
z
" transform="scale(0.015625)"/>
      <path id="MicrosoftYaHei-76ae" d="M 3188 5316 
L 3700 5316 
L 3700 4578 
L 6075 4578 
L 5944 3134 
Q 5694 3172 5431 3178 
L 5531 4128 
L 3700 4128 
L 3700 2791 
L 5600 2791 
L 5600 2341 
Q 5013 1153 4056 391 
Q 5000 -97 6319 -284 
Q 6106 -597 5944 -847 
Q 4569 -522 3581 72 
Q 2575 -509 1313 -897 
Q 1163 -666 988 -409 
Q 2131 -141 3138 378 
Q 2175 1141 1706 2347 
L 1300 2347 
Q 1269 203 450 -834 
Q 269 -609 88 -403 
Q 788 472 788 2466 
L 788 4578 
L 3188 4578 
L 3188 5316 
z
M 5038 2347 
L 2206 2347 
Q 2681 1297 3594 672 
Q 4513 1341 5038 2347 
z
M 1300 2791 
L 3188 2791 
L 3188 4128 
L 1300 4128 
L 1300 2791 
z
" transform="scale(0.015625)"/>
     </defs>
     <use xlink:href="#MicrosoftYaHei-4e0a"/>
     <use xlink:href="#MicrosoftYaHei-8868" transform="translate(100 0)"/>
     <use xlink:href="#MicrosoftYaHei-76ae" transform="translate(200 0)"/>
    </g>
   </g>
   <g id="text_2">
    <!-- 栅栏组织 -->
    <g transform="translate(253.260458 165.118096) scale(0.09 -0.09)">
     <defs>
      <path id="MicrosoftYaHei-6805" d="M 1981 2709 
L 2275 2709 
L 2275 5016 
L 3775 5016 
L 3775 2709 
L 4238 2709 
L 4238 5028 
L 5819 5028 
L 5819 2709 
L 6288 2709 
L 6288 2284 
L 5819 2284 
L 5819 -59 
Q 5819 -672 5238 -672 
Q 4963 -672 4663 -653 
Q 4644 -472 4588 -222 
Q 4906 -266 5150 -266 
Q 5381 -266 5381 -16 
L 5381 2284 
L 4675 2284 
L 4675 2103 
Q 4675 334 4200 -766 
Q 4013 -597 3794 -447 
Q 4238 416 4238 2091 
L 4238 2284 
L 3775 2284 
L 3775 47 
Q 3775 -634 3225 -634 
Q 2938 -634 2713 -616 
Q 2694 -434 2638 -184 
Q 2850 -228 3113 -228 
Q 3338 -228 3338 91 
L 3338 2284 
L 2713 2284 
Q 2700 238 2000 -772 
Q 1856 -603 1656 -422 
Q 2256 391 2275 2284 
L 1981 2284 
L 1981 2709 
z
M 44 1347 
Q 647 2281 909 3597 
L 144 3597 
L 144 4022 
L 938 4022 
L 938 5316 
L 1363 5316 
L 1363 4022 
L 2038 4022 
L 2038 3597 
L 1363 3597 
L 1363 2784 
L 1556 2903 
Q 1825 2534 2081 2091 
L 1744 1872 
Q 1578 2200 1363 2541 
L 1363 -822 
L 938 -822 
L 938 2388 
Q 663 1456 244 797 
Q 163 1066 44 1347 
z
M 5381 4616 
L 4675 4616 
L 4675 2709 
L 5381 2709 
L 5381 4616 
z
M 3338 4603 
L 2713 4603 
L 2713 2709 
L 3338 2709 
L 3338 4603 
z
" transform="scale(0.015625)"/>
      <path id="MicrosoftYaHei-680f" d="M 94 1384 
Q 775 2341 1131 3603 
L 163 3603 
L 163 4022 
L 1125 4022 
L 1125 5259 
L 1581 5259 
L 1581 4022 
L 2281 4022 
L 2281 3603 
L 1581 3603 
L 1581 2616 
L 1838 2841 
Q 2281 2378 2594 1997 
L 2231 1672 
Q 1931 2091 1581 2497 
L 1581 -809 
L 1125 -809 
L 1125 2391 
Q 788 1478 319 841 
Q 225 1109 94 1384 
z
M 2525 3891 
L 4381 3891 
Q 4856 4578 5244 5328 
L 5744 5022 
Q 5288 4372 4919 3891 
L 6206 3891 
L 6206 3441 
L 2525 3441 
L 2525 3891 
z
M 2200 -3 
L 6288 -3 
L 6288 -453 
L 2200 -453 
L 2200 -3 
z
M 2738 2066 
L 5956 2066 
L 5956 1616 
L 2738 1616 
L 2738 2066 
z
M 2844 5022 
L 3219 5303 
Q 3606 4872 3969 4359 
L 3538 4059 
Q 3275 4478 2844 5022 
z
" transform="scale(0.015625)"/>
      <path id="MicrosoftYaHei-7ec4" d="M 1994 -516 
L 1994 -66 
L 2738 -66 
L 2738 4941 
L 5763 4941 
L 5763 -66 
L 6313 -66 
L 6313 -516 
L 1994 -516 
z
M 969 1703 
Q 1606 1784 2300 1872 
Q 2275 1603 2256 1447 
Q 1331 1328 400 1191 
L 300 1647 
Q 697 1956 1284 2941 
Q 597 2897 256 2866 
L 131 3278 
Q 619 3866 1200 5291 
L 1706 5116 
Q 1163 4091 681 3316 
Q 1197 3319 1506 3328 
Q 1756 3775 2038 4334 
L 2519 4122 
Q 1806 2859 969 1703 
z
M 5288 4491 
L 3213 4491 
L 3213 3259 
L 5288 3259 
L 5288 4491 
z
M 3213 -66 
L 5288 -66 
L 5288 1166 
L 3213 1166 
L 3213 -66 
z
M 3213 1597 
L 5288 1597 
L 5288 2828 
L 3213 2828 
L 3213 1597 
z
M 181 291 
Q 1088 459 2356 741 
Q 2331 453 2331 266 
Q 1031 -3 319 -184 
L 181 291 
z
" transform="scale(0.015625)"/>
      <path id="MicrosoftYaHei-7ec7" d="M 2556 4916 
L 5894 4916 
L 5894 1541 
L 5413 1541 
L 5413 1891 
L 3038 1891 
L 3038 1541 
L 2556 1541 
L 2556 4916 
z
M 5413 4478 
L 3038 4478 
L 3038 2328 
L 5413 2328 
L 5413 4478 
z
M 906 1578 
Q 1613 1678 2169 1772 
Q 2131 1528 2113 1297 
Q 1263 1172 338 1022 
L 238 1484 
Q 638 1913 1169 2794 
Q 609 2763 231 2722 
L 113 3147 
Q 675 3891 1300 5359 
L 1775 5172 
Q 1169 3984 669 3184 
Q 1078 3191 1406 3203 
Q 1641 3616 1900 4109 
L 2369 3903 
Q 1588 2541 906 1578 
z
M 3350 1334 
L 3806 1059 
Q 3063 -28 2263 -859 
Q 2081 -691 1850 -522 
Q 2650 216 3350 1334 
z
M 4544 1016 
L 4956 1309 
Q 5650 497 6381 -422 
L 5925 -759 
Q 5256 153 4544 1016 
z
M 100 141 
Q 1000 322 2219 616 
Q 2200 278 2200 153 
Q 881 -159 238 -341 
L 100 141 
z
" transform="scale(0.015625)"/>
     </defs>
     <use xlink:href="#MicrosoftYaHei-6805"/>
     <use xlink:href="#MicrosoftYaHei-680f" transform="translate(100 0)"/>
     <use xlink:href="#MicrosoftYaHei-7ec4" transform="translate(200 0)"/>
     <use xlink:href="#MicrosoftYaHei-7ec7" transform="translate(300 0)"/>
    </g>
   </g>
   <g id="text_3">
    <!-- 海绵组织 -->
    <g transform="translate(253.260458 144.613058) scale(0.09 -0.09)">
     <defs>
      <path id="MicrosoftYaHei-6d77" d="M 1475 2191 
L 2116 2191 
L 2338 3753 
L 5706 3753 
Q 5688 2884 5669 2191 
L 6325 2191 
L 6325 1753 
L 5653 1753 
Q 5634 1078 5616 603 
L 6125 603 
L 6125 178 
L 5588 178 
Q 5534 -281 5338 -509 
Q 5113 -766 4538 -766 
Q 4213 -766 3700 -741 
Q 3669 -528 3613 -234 
Q 4219 -291 4544 -291 
Q 5016 -291 5106 178 
L 1894 178 
L 1894 641 
L 2053 1753 
L 1475 1753 
L 1475 2191 
z
M 5184 1753 
L 2541 1753 
L 2388 603 
L 5141 603 
Q 5166 1116 5184 1753 
z
M 5225 3328 
L 2750 3328 
L 2597 2191 
L 5197 2191 
Q 5213 2722 5225 3328 
z
M 1425 3553 
Q 2200 4284 2675 5347 
L 3206 5347 
Q 3056 5022 2891 4728 
L 6194 4728 
L 6194 4291 
L 2628 4291 
Q 2225 3663 1744 3184 
Q 1600 3372 1425 3553 
z
M 275 -653 
Q 644 441 913 1741 
Q 1188 1622 1419 1547 
Q 1100 322 825 -822 
L 275 -653 
z
M 88 3253 
L 400 3609 
Q 975 3209 1469 2803 
Q 1244 2547 1106 2403 
Q 550 2903 88 3253 
z
M 325 4916 
L 644 5247 
Q 1019 4959 1688 4378 
Q 1475 4172 1319 4009 
Q 644 4653 325 4916 
z
M 3288 1372 
L 3575 1653 
Q 3994 1334 4356 1009 
L 4031 684 
Q 3663 1041 3288 1372 
z
M 3369 2972 
L 3650 3253 
Q 4050 2947 4438 2616 
L 4119 2291 
Q 3738 2666 3369 2972 
z
" transform="scale(0.015625)"/>
      <path id="MicrosoftYaHei-7ef5" d="M 2344 1709 
L 3956 1709 
L 3956 2366 
L 3031 2366 
L 3031 2166 
L 2581 2166 
L 2581 4616 
L 3650 4616 
Q 3794 4978 3900 5334 
L 4400 5228 
Q 4269 4916 4138 4616 
L 5806 4616 
L 5806 2166 
L 5356 2166 
L 5356 2366 
L 4406 2366 
L 4406 1709 
L 6050 1709 
L 6050 353 
Q 6050 -378 5350 -378 
Q 5094 -378 4763 -359 
Q 4725 -122 4663 141 
Q 5025 78 5288 78 
Q 5581 78 5581 384 
L 5581 1297 
L 4406 1297 
L 4406 -853 
L 3956 -853 
L 3956 1297 
L 2794 1297 
L 2794 -334 
L 2344 -334 
L 2344 1709 
z
M 863 1559 
Q 1469 1647 2100 1759 
Q 2063 1516 2044 1284 
Q 994 1134 306 1003 
L 194 1466 
Q 681 1966 1188 2741 
Q 581 2697 250 2672 
L 131 3097 
Q 813 4003 1394 5328 
L 1869 5141 
Q 1288 4022 694 3134 
Q 1088 3141 1456 3153 
Q 1694 3547 1938 3997 
L 2400 3766 
Q 1594 2472 863 1559 
z
M 5356 4216 
L 3031 4216 
L 3031 3684 
L 5356 3684 
L 5356 4216 
z
M 3031 2766 
L 5356 2766 
L 5356 3297 
L 3031 3297 
L 3031 2766 
z
M 113 66 
Q 994 191 2113 409 
Q 2075 72 2069 -53 
Q 1181 -203 225 -409 
L 113 66 
z
" transform="scale(0.015625)"/>
     </defs>
     <use xlink:href="#MicrosoftYaHei-6d77"/>
     <use xlink:href="#MicrosoftYaHei-7ef5" transform="translate(100 0)"/>
     <use xlink:href="#MicrosoftYaHei-7ec4" transform="translate(200 0)"/>
     <use xlink:href="#MicrosoftYaHei-7ec7" transform="translate(300 0)"/>
    </g>
   </g>
   <g id="text_4">
    <!-- 下表皮 -->
    <g transform="translate(253.260458 127.037311) scale(0.09 -0.09)">
     <defs>
      <path id="MicrosoftYaHei-4e0b" d="M 163 4803 
L 6238 4803 
L 6238 4291 
L 3200 4291 
L 3200 2928 
L 3488 3328 
Q 4919 2484 5888 1809 
L 5519 1303 
Q 4550 2047 3200 2872 
L 3200 -797 
L 2631 -797 
L 2631 4291 
L 163 4291 
L 163 4803 
z
" transform="scale(0.015625)"/>
     </defs>
     <use xlink:href="#MicrosoftYaHei-4e0b"/>
     <use xlink:href="#MicrosoftYaHei-8868" transform="translate(100 0)"/>
     <use xlink:href="#MicrosoftYaHei-76ae" transform="translate(200 0)"/>
    </g>
   </g>
   <g id="text_5">
    <!-- 气孔 -->
    <g transform="translate(116.371647 142.134543) scale(0.08 -0.08)">
     <defs>
      <path id="MicrosoftYaHei-6c14" d="M 738 2159 
L 738 2597 
L 5175 2597 
L 5175 1941 
Q 5175 441 5513 -178 
Q 5663 -409 5744 -128 
Q 5831 316 5869 972 
Q 6094 891 6319 841 
Q 6300 359 6188 -216 
Q 6044 -828 5606 -828 
Q 5263 -828 5063 -422 
Q 4675 328 4675 1916 
L 4675 2159 
L 738 2159 
z
M 88 2828 
Q 988 3953 1431 5353 
L 1938 5203 
Q 1834 4909 1722 4634 
L 5988 4634 
L 5988 4197 
L 1528 4197 
Q 1016 3106 288 2259 
Q 175 2616 88 2828 
z
M 1438 3609 
L 5513 3609 
L 5513 3184 
L 1438 3184 
L 1438 3609 
z
" transform="scale(0.015625)"/>
      <path id="MicrosoftYaHei-5b54" d="M 88 1953 
Q 878 2144 1638 2338 
L 1638 3341 
L 2625 4459 
L 413 4459 
L 413 4916 
L 3288 4916 
L 3288 4428 
L 2138 3184 
L 2138 2469 
Q 2788 2641 3413 2816 
Q 3400 2503 3400 2291 
Q 2750 2125 2138 1959 
L 2138 78 
Q 2138 -691 1350 -691 
Q 1031 -691 544 -678 
Q 519 -472 456 -147 
Q 925 -191 1244 -191 
Q 1638 -191 1638 197 
L 1638 1825 
Q 906 1622 225 1416 
L 88 1953 
z
M 3856 5247 
L 4356 5247 
L 4356 259 
Q 4356 -159 4763 -159 
L 5219 -159 
Q 5638 -159 5700 278 
Q 5756 747 5781 1466 
Q 5963 1384 6319 1266 
Q 6238 309 6175 3 
Q 6050 -641 5294 -641 
L 4613 -641 
Q 3863 -641 3856 178 
L 3856 5247 
z
" transform="scale(0.015625)"/>
     </defs>
     <use xlink:href="#MicrosoftYaHei-6c14"/>
     <use xlink:href="#MicrosoftYaHei-5b54" transform="translate(100 0)"/>
    </g>
   </g>
   <g id="text_6">
    <!-- 叶脉 -->
    <g style="fill: #4a148c" transform="translate(116.371647 156.780998) scale(0.08 -0.08)">
     <defs>
      <path id="MicrosoftYaHei-53f6" d="M 450 4609 
L 2444 4609 
L 2444 197 
L 1931 197 
L 1931 666 
L 963 666 
L 963 84 
L 450 84 
L 450 4609 
z
M 2675 3109 
L 4213 3109 
L 4213 5297 
L 4744 5297 
L 4744 3109 
L 6300 3109 
L 6300 2609 
L 4744 2609 
L 4744 -841 
L 4213 -841 
L 4213 2609 
L 2675 2609 
L 2675 3109 
z
M 1931 4122 
L 963 4122 
L 963 1153 
L 1931 1153 
L 1931 4122 
z
" transform="scale(0.015625)"/>
      <path id="MicrosoftYaHei-8109" d="M 506 4941 
L 2144 4941 
L 2144 -84 
Q 2144 -728 1538 -728 
Q 1319 -728 1031 -716 
Q 1013 -503 956 -266 
Q 1256 -303 1425 -303 
Q 1706 -303 1706 -16 
L 1706 1391 
L 944 1391 
Q 947 -94 444 -859 
Q 313 -678 88 -472 
Q 506 184 506 1472 
L 506 4941 
z
M 5706 3734 
L 6119 3434 
Q 5606 2822 4919 2197 
Q 5441 956 6338 303 
Q 6138 116 5950 -134 
Q 4984 653 4481 2200 
L 4481 34 
Q 4481 -741 3775 -741 
Q 3494 -741 3125 -734 
Q 3113 -466 3013 -197 
Q 3306 -259 3656 -259 
Q 4019 -259 4019 109 
L 4019 3784 
L 2531 3784 
L 2531 4222 
L 4481 4222 
L 4481 3631 
Q 4594 3103 4750 2641 
Q 5288 3172 5706 3734 
z
M 2369 2566 
L 2369 3003 
L 3600 3003 
L 3600 2597 
Q 3394 834 2513 -203 
Q 2369 22 2175 228 
Q 3000 1097 3144 2566 
L 2369 2566 
z
M 944 1791 
L 1706 1791 
L 1706 2959 
L 944 2959 
L 944 1791 
z
M 1706 4528 
L 944 4528 
L 944 3359 
L 1706 3359 
L 1706 4528 
z
M 3450 5359 
Q 4369 5041 5169 4684 
L 4925 4241 
Q 4056 4678 3231 4966 
L 3450 5359 
z
" transform="scale(0.015625)"/>
     </defs>
     <use xlink:href="#MicrosoftYaHei-53f6"/>
     <use xlink:href="#MicrosoftYaHei-8109" transform="translate(100 0)"/>
    </g>
   </g>
   <g id="text_7">
    <!-- 叶片横切面结构 -->
    <g transform="translate(129.811014 98.053758) scale(0.11 -0.11)">
     <defs>
      <path id="MicrosoftYaHei-Bold-53f6" d="M 2906 3391 
L 4150 3391 
L 4150 5328 
L 5050 5328 
L 5050 3391 
L 6300 3391 
L 6300 2553 
L 5050 2553 
L 5050 -822 
L 4150 -822 
L 4150 2553 
L 2906 2553 
L 2906 3391 
z
M 375 4841 
L 2669 4841 
L 2669 -122 
L 1881 -122 
L 1881 403 
L 1163 403 
L 1163 -197 
L 375 -197 
L 375 4841 
z
M 1881 4053 
L 1163 4053 
L 1163 1191 
L 1881 1191 
L 1881 4053 
z
" transform="scale(0.015625)"/>
      <path id="MicrosoftYaHei-Bold-7247" d="M 3806 5309 
L 4744 5309 
L 4744 3703 
L 6244 3703 
L 6244 2878 
L 1981 2878 
Q 1991 2447 1959 2053 
L 5088 2053 
L 5088 -822 
L 4150 -822 
L 4150 1228 
L 1847 1228 
Q 1581 -78 794 -891 
Q 463 -503 75 -153 
Q 1075 722 1075 2834 
L 1075 5197 
L 1981 5197 
L 1981 3703 
L 3806 3703 
L 3806 5309 
z
" transform="scale(0.015625)"/>
      <path id="MicrosoftYaHei-Bold-6a2a" d="M 75 1703 
Q 569 2534 809 3391 
L 119 3391 
L 119 4203 
L 850 4203 
L 850 5309 
L 1613 5309 
L 1613 4203 
L 2156 4203 
L 2156 3391 
L 1613 3391 
L 1613 2778 
Q 1997 2525 2425 2203 
L 1938 1559 
Q 1778 1716 1613 1863 
L 1613 -834 
L 850 -834 
L 850 1700 
Q 613 1125 275 559 
Q 213 991 75 1703 
z
M 2431 2791 
L 3831 2791 
L 3831 3134 
L 2244 3134 
L 2244 3747 
L 2994 3747 
L 2994 4153 
L 2331 4153 
L 2331 4766 
L 2994 4766 
L 2994 5303 
L 3731 5303 
L 3731 4766 
L 4663 4766 
L 4663 5303 
L 5400 5303 
L 5400 4766 
L 6075 4766 
L 6075 4153 
L 5400 4153 
L 5400 3747 
L 6250 3747 
L 6250 3134 
L 4569 3134 
L 4569 2791 
L 5969 2791 
L 5969 353 
L 5050 353 
Q 5666 91 6275 -216 
L 5838 -872 
Q 5131 -484 4425 -147 
L 4763 353 
L 3650 353 
L 4025 -172 
Q 3281 -547 2456 -884 
Q 2263 -534 2044 -209 
Q 2797 56 3409 353 
L 2431 353 
L 2431 2791 
z
M 3731 3747 
L 4663 3747 
L 4663 4153 
L 3731 4153 
L 3731 3747 
z
M 3169 1809 
L 3831 1809 
L 3831 2228 
L 3169 2228 
L 3169 1809 
z
M 5231 2228 
L 4569 2228 
L 4569 1809 
L 5231 1809 
L 5231 2228 
z
M 3169 916 
L 3831 916 
L 3831 1334 
L 3169 1334 
L 3169 916 
z
M 5231 916 
L 5231 1334 
L 4569 1334 
L 4569 916 
L 5231 916 
z
" transform="scale(0.015625)"/>
      <path id="MicrosoftYaHei-Bold-5207" d="M 2481 1803 
Q 2500 1247 2544 878 
Q 1369 -3 1194 -241 
L 613 428 
Q 788 622 788 1053 
L 788 2744 
L 150 2684 
L 100 3503 
L 788 3563 
L 788 5266 
L 1638 5266 
L 1638 3638 
L 2588 3722 
L 2631 2922 
L 1638 2825 
L 1638 1197 
Q 1906 1372 2481 1803 
z
M 3919 -697 
Q 3838 -266 3700 247 
Q 4238 209 4509 209 
Q 4794 209 4903 326 
Q 5013 444 5038 614 
Q 5063 784 5113 4159 
L 4084 4159 
Q 4019 1919 3928 1309 
Q 3838 700 3517 111 
Q 3197 -478 2675 -859 
Q 2413 -584 1963 -216 
Q 3150 675 3150 2397 
L 3203 4159 
L 2431 4159 
L 2431 4947 
L 6013 4947 
L 5941 1394 
L 5913 591 
Q 5913 31 5733 -259 
Q 5553 -550 5248 -612 
Q 4944 -675 3919 -697 
z
" transform="scale(0.015625)"/>
      <path id="MicrosoftYaHei-Bold-9762" d="M 181 4997 
L 6213 4997 
L 6213 4297 
L 3553 4297 
Q 3400 3950 3269 3678 
L 5881 3678 
L 5881 -828 
L 5081 -828 
L 5081 -503 
L 1319 -503 
L 1319 -828 
L 519 -828 
L 519 3678 
L 2272 3678 
Q 2388 3969 2500 4297 
L 181 4297 
L 181 4997 
z
M 5081 2984 
L 4500 2984 
L 4500 191 
L 5081 191 
L 5081 2984 
z
M 1319 191 
L 1869 191 
L 1869 2984 
L 1319 2984 
L 1319 191 
z
M 2656 2478 
L 3713 2478 
L 3713 2984 
L 2656 2984 
L 2656 2478 
z
M 2656 1341 
L 3713 1341 
L 3713 1847 
L 2656 1847 
L 2656 1341 
z
M 2656 191 
L 3713 191 
L 3713 709 
L 2656 709 
L 2656 191 
z
" transform="scale(0.015625)"/>
      <path id="MicrosoftYaHei-Bold-7ed3" d="M 2538 3128 
L 3850 3128 
L 3850 3809 
L 2472 3809 
L 2681 3709 
Q 1906 2528 1350 1784 
Q 1800 1841 2313 1891 
Q 2275 1466 2263 1116 
Q 894 966 400 834 
L 156 1534 
Q 553 1884 1100 2697 
Q 631 2663 288 2616 
L 56 3328 
Q 550 3934 1138 5366 
L 1963 5059 
Q 1469 4134 988 3397 
L 1563 3425 
L 1938 4066 
L 2350 3869 
L 2350 4553 
L 3850 4553 
L 3850 5341 
L 4725 5341 
L 4725 4553 
L 6288 4553 
L 6288 3809 
L 4725 3809 
L 4725 3128 
L 6100 3128 
L 6100 2384 
L 2538 2384 
L 2538 3128 
z
M 2594 -841 
L 2594 1847 
L 6025 1847 
L 6025 -841 
L 5188 -841 
L 5188 -472 
L 3431 -472 
L 3431 -841 
L 2594 -841 
z
M 5188 1084 
L 3431 1084 
L 3431 291 
L 5188 291 
L 5188 1084 
z
M 231 -516 
L 94 359 
Q 1175 497 2406 684 
Q 2369 159 2375 -184 
Q 1263 -341 231 -516 
z
" transform="scale(0.015625)"/>
      <path id="MicrosoftYaHei-Bold-6784" d="M 75 1709 
Q 550 2447 828 3353 
L 138 3353 
L 138 4091 
L 900 4091 
L 900 5303 
L 1713 5303 
L 1713 4091 
L 2313 4091 
L 2313 3756 
Q 2825 4431 3100 5278 
L 3963 5209 
Q 3850 4903 3719 4616 
L 6056 4616 
Q 6056 3244 6042 2212 
Q 6028 1181 6004 565 
Q 5981 -50 5714 -367 
Q 5447 -684 5051 -725 
Q 4656 -766 3675 -747 
Q 3588 -253 3494 122 
Q 4175 66 4600 66 
Q 4863 66 5023 206 
Q 5184 347 5191 822 
L 4775 609 
L 4644 878 
Q 3147 769 2444 622 
L 2188 1334 
Q 2669 1691 3388 3453 
L 4188 3128 
L 3206 1453 
L 4316 1525 
Q 4106 1928 3875 2347 
L 4519 2684 
Q 4866 2113 5209 1481 
Q 5231 2419 5231 3841 
L 3313 3841 
Q 2991 3297 2594 2822 
Q 2319 3125 2072 3353 
L 1713 3353 
L 1713 2991 
Q 2153 2594 2575 2191 
L 2031 1678 
Q 1872 1906 1713 2116 
L 1713 -822 
L 900 -822 
L 900 1816 
Q 647 1156 288 566 
Q 219 997 75 1709 
z
" transform="scale(0.015625)"/>
     </defs>
     <use xlink:href="#MicrosoftYaHei-Bold-53f6"/>
     <use xlink:href="#MicrosoftYaHei-Bold-7247" transform="translate(100 0)"/>
     <use xlink:href="#MicrosoftYaHei-Bold-6a2a" transform="translate(200 0)"/>
     <use xlink:href="#MicrosoftYaHei-Bold-5207" transform="translate(300 0)"/>
     <use xlink:href="#MicrosoftYaHei-Bold-9762" transform="translate(400 0)"/>
     <use xlink:href="#MicrosoftYaHei-Bold-7ed3" transform="translate(500 0)"/>
     <use xlink:href="#MicrosoftYaHei-Bold-6784" transform="translate(600 0)"/>
    </g>
   </g>
  </g>
  <g id="axes_2">
   <g id="patch_3">
    <path d="M 472.488986 186.762356 
C 490.481996 186.762356 507.740482 179.613657 520.463461 166.890677 
C 533.186441 154.167698 540.33514 136.909212 540.33514 118.916202 
C 540.33514 100.923192 533.186441 83.664706 520.463461 70.941726 
C 507.740482 58.218747 490.481996 51.070048 472.488986 51.070048 
C 454.495976 51.070048 437.23749 58.218747 424.514511 70.941726 
C 411.791531 83.664706 404.642832 100.923192 404.642832 118.916202 
C 404.642832 136.909212 411.791531 154.167698 424.514511 166.890677 
C 437.23749 179.613657 454.495976 186.762356 472.488986 186.762356 
z
" clip-path="url(#p2714cfbce0)" style="fill: #4caf50; opacity: 0.5; stroke: #333333; stroke-width: 1.5; stroke-linejoin: miter"/>
   </g>
   <g id="patch_4">
    <path d="M 447.288986 80.146971 
L 466.673601 80.146971 
L 466.673601 99.531587 
L 447.288986 99.531587 
z
" clip-path="url(#p2714cfbce0)" style="fill: #2e7d32; opacity: 0.7; stroke: #1b5e20; stroke-width: 0.5; stroke-linejoin: miter"/>
   </g>
   <g id="patch_5">
    <path d="M 472.488986 109.223894 
L 491.873601 109.223894 
L 491.873601 128.60851 
L 472.488986 128.60851 
z
" clip-path="url(#p2714cfbce0)" style="fill: #2e7d32; opacity: 0.7; stroke: #1b5e20; stroke-width: 0.5; stroke-linejoin: miter"/>
   </g>
   <g id="patch_6">
    <path d="M 443.412063 138.300817 
L 462.796678 138.300817 
L 462.796678 157.685433 
L 443.412063 157.685433 
z
" clip-path="url(#p2714cfbce0)" style="fill: #2e7d32; opacity: 0.7; stroke: #1b5e20; stroke-width: 0.5; stroke-linejoin: miter"/>
   </g>
   <g id="text_8">
    <!-- 叶绿体 -->
    <g transform="translate(460.488986 244.94576) scale(0.08 -0.08)">
     <defs>
      <path id="MicrosoftYaHei-7eff" d="M 2138 2972 
L 5088 2972 
L 5131 3566 
L 2575 3566 
L 2575 3978 
L 5159 3978 
L 5200 4559 
L 2475 4559 
L 2475 4984 
L 5694 4984 
L 5550 2972 
L 6313 2972 
L 6313 2547 
L 4456 2547 
L 4456 2272 
Q 4638 1781 4881 1388 
Q 5381 1788 5794 2266 
L 6163 1947 
Q 5728 1497 5141 1025 
Q 5634 416 6338 116 
Q 6106 -78 5919 -284 
Q 5016 213 4456 1294 
L 4456 28 
Q 4456 -772 3681 -772 
Q 3406 -772 2869 -766 
Q 2831 -528 2775 -247 
Q 3256 -297 3563 -297 
Q 3981 -297 3981 147 
L 3981 2547 
L 2138 2547 
L 2138 2972 
z
M 875 1578 
Q 1463 1659 2094 1766 
Q 2056 1522 2038 1291 
Q 1188 1166 319 1022 
L 225 1484 
Q 553 1819 1119 2791 
Q 566 2756 231 2722 
L 113 3147 
Q 669 3891 1275 5347 
L 1744 5159 
Q 1094 3872 656 3184 
Q 997 3194 1353 3200 
Q 1581 3609 1844 4109 
L 2306 3903 
Q 1513 2522 875 1578 
z
M 94 103 
Q 931 278 2025 559 
Q 2006 222 2006 97 
Q 1156 -109 225 -372 
L 94 103 
z
M 3681 1303 
Q 3763 1072 3881 872 
Q 3313 509 2381 -116 
L 2088 297 
Q 2925 778 3681 1303 
z
M 2594 2328 
Q 3013 1984 3444 1559 
Q 3263 1397 3088 1228 
Q 2663 1697 2288 2041 
L 2594 2328 
z
" transform="scale(0.015625)"/>
      <path id="MicrosoftYaHei-4f53" d="M 6350 778 
Q 6138 522 5981 316 
Q 4731 1278 4144 3572 
L 4144 934 
L 5063 934 
L 5063 484 
L 4144 484 
L 4144 -822 
L 3681 -822 
L 3681 484 
L 2763 484 
L 2763 934 
L 3681 934 
L 3681 3572 
L 3666 3572 
Q 3084 1413 1750 216 
Q 1606 397 1419 609 
Q 2625 1713 3225 3572 
L 1756 3572 
L 1756 4022 
L 3681 4022 
L 3681 5297 
L 4144 5297 
L 4144 4022 
L 6138 4022 
L 6138 3572 
L 4547 3572 
Q 5144 1628 6350 778 
z
M 56 2297 
Q 963 3622 1406 5316 
L 1881 5178 
Q 1638 4381 1331 3681 
L 1331 -816 
L 869 -816 
L 869 2741 
Q 588 2231 269 1784 
Q 175 2041 56 2297 
z
" transform="scale(0.015625)"/>
     </defs>
     <use xlink:href="#MicrosoftYaHei-53f6"/>
     <use xlink:href="#MicrosoftYaHei-7eff" transform="translate(100 0)"/>
     <use xlink:href="#MicrosoftYaHei-4f53" transform="translate(200 0)"/>
    </g>
    <!-- （类囊体堆叠形成基粒） -->
    <g transform="translate(428.488986 254.60851) scale(0.08 -0.08)">
     <defs>
      <path id="MicrosoftYaHei-ff08" d="M 5288 -1100 
Q 4172 119 4172 1850 
Q 4172 3603 5288 4838 
L 5825 4838 
Q 4716 3572 4716 1856 
Q 4716 166 5819 -1100 
L 5288 -1100 
z
" transform="scale(0.015625)"/>
      <path id="MicrosoftYaHei-7c7b" d="M 6338 -359 
Q 6213 -503 6006 -853 
Q 3975 -459 3200 884 
Q 2644 -497 400 -897 
Q 288 -684 131 -434 
Q 2244 -147 2744 1047 
L 275 1047 
L 275 1484 
L 2875 1484 
Q 2925 1691 2956 1978 
L 3456 1978 
Q 3413 1697 3369 1484 
L 6125 1484 
L 6125 1047 
L 3619 1047 
Q 4450 -159 6338 -359 
z
M 325 3741 
L 2975 3741 
L 2975 5303 
L 3450 5303 
L 3450 3741 
L 6075 3741 
L 6075 3322 
L 3450 3322 
L 3450 2953 
L 3625 3191 
Q 5325 2528 6231 2128 
L 6013 1722 
Q 4956 2266 3450 2847 
L 3450 2197 
L 2975 2197 
L 2975 3241 
Q 1863 2191 450 1741 
Q 319 1934 144 2153 
Q 1569 2553 2538 3322 
L 325 3322 
L 325 3741 
z
M 5550 4784 
Q 5163 4459 4394 3891 
L 4069 4222 
Q 4569 4578 5194 5122 
L 5550 4784 
z
M 900 4791 
L 1206 5122 
Q 1875 4647 2306 4266 
L 1969 3897 
Q 1581 4284 900 4791 
z
" transform="scale(0.015625)"/>
      <path id="MicrosoftYaHei-56ca" d="M 3700 -97 
Q 3694 -309 3700 -497 
Q 2613 -666 2119 -778 
Q 1975 -816 1831 -891 
L 1581 -566 
Q 1725 -472 1725 -253 
L 1725 -116 
Q 1119 -328 344 -522 
Q 213 -316 75 -141 
Q 1663 134 2519 547 
L 250 547 
L 250 822 
L 2000 822 
L 2000 1097 
L 663 1097 
L 663 1359 
L 2000 1359 
L 2000 1634 
L 563 1634 
L 563 1897 
L 2000 1897 
L 2000 2159 
L 1438 2159 
L 1438 2066 
L 1050 2066 
L 1050 2909 
L 3000 2909 
L 3000 2066 
L 2613 2066 
L 2613 2159 
L 2400 2159 
L 2400 1897 
L 4006 1897 
L 4006 2159 
L 3794 2159 
L 3794 2066 
L 3406 2066 
L 3406 2909 
L 5356 2909 
L 5356 2066 
L 4969 2066 
L 4969 2159 
L 4406 2159 
L 4406 1897 
L 5838 1897 
L 5838 1634 
L 4406 1634 
L 4406 1359 
L 5738 1359 
L 5738 1097 
L 4406 1097 
L 4406 822 
L 6150 822 
L 6150 547 
L 5375 547 
L 5613 234 
Q 5231 53 4775 -134 
Q 5425 -328 6325 -416 
Q 6188 -584 6069 -803 
Q 4575 -528 3938 -166 
Q 3481 72 3119 516 
Q 2731 266 2150 34 
L 2150 -366 
Q 2744 -272 3700 -97 
z
M 288 3447 
L 2994 3447 
L 2994 3709 
L 1275 3709 
L 1275 3603 
L 875 3603 
L 875 4484 
L 2994 4484 
L 2994 4734 
L 350 4734 
L 350 5022 
L 2994 5022 
L 2994 5334 
L 3406 5334 
L 3406 5022 
L 6063 5022 
L 6063 4734 
L 3406 4734 
L 3406 4484 
L 5525 4484 
L 5525 3603 
L 5125 3603 
L 5125 3709 
L 3406 3709 
L 3406 3447 
L 6119 3447 
L 6119 2622 
L 5713 2622 
L 5713 3159 
L 694 3159 
L 694 2622 
L 288 2622 
L 288 3447 
z
M 5331 547 
L 3519 547 
Q 3819 241 4325 28 
Q 4900 303 5331 547 
z
M 5125 3959 
L 5125 4234 
L 3406 4234 
L 3406 3959 
L 5125 3959 
z
M 1275 3959 
L 2994 3959 
L 2994 4234 
L 1275 4234 
L 1275 3959 
z
M 2400 822 
L 4006 822 
L 4006 1097 
L 2400 1097 
L 2400 822 
z
M 2400 1359 
L 4006 1359 
L 4006 1634 
L 2400 1634 
L 2400 1359 
z
M 1438 2397 
L 2613 2397 
L 2613 2672 
L 1438 2672 
L 1438 2397 
z
M 3794 2397 
L 4969 2397 
L 4969 2672 
L 3794 2672 
L 3794 2397 
z
" transform="scale(0.015625)"/>
      <path id="MicrosoftYaHei-5806" d="M 1963 2691 
Q 2700 3716 3288 5278 
L 3744 5134 
Q 3528 4591 3300 4097 
L 6206 4097 
L 6206 3672 
L 4863 3672 
L 4863 2728 
L 6088 2728 
L 6088 2328 
L 4863 2328 
L 4863 1384 
L 6081 1384 
L 6081 984 
L 4863 984 
L 4863 34 
L 6275 34 
L 6275 -366 
L 3250 -366 
L 3250 -828 
L 2775 -828 
L 2775 3066 
Q 2547 2659 2306 2291 
Q 2181 2472 1963 2691 
z
M 81 478 
Q 519 588 1006 722 
L 1006 3316 
L 169 3316 
L 169 3759 
L 1006 3759 
L 1006 5259 
L 1469 5259 
L 1469 3759 
L 2275 3759 
L 2275 3316 
L 1469 3316 
L 1469 850 
Q 1919 978 2413 1128 
Q 2425 841 2444 634 
Q 1313 316 250 -16 
L 81 478 
z
M 3250 34 
L 4388 34 
L 4388 984 
L 3250 984 
L 3250 34 
z
M 3250 1384 
L 4388 1384 
L 4388 2328 
L 3250 2328 
L 3250 1384 
z
M 3250 2728 
L 4388 2728 
L 4388 3672 
L 3250 3672 
L 3250 2728 
z
M 4156 5097 
L 4544 5303 
Q 4900 4772 5138 4353 
L 4706 4116 
Q 4450 4616 4156 5097 
z
" transform="scale(0.015625)"/>
      <path id="MicrosoftYaHei-53e0" d="M 131 -309 
L 1188 -309 
L 1188 1534 
L 5206 1534 
L 5206 -309 
L 6263 -309 
L 6263 -622 
L 131 -622 
L 131 -309 
z
M 969 4416 
L 1094 4691 
Q 2100 4581 3375 4397 
Q 3972 4563 4538 4791 
L 869 4791 
L 869 5103 
L 5294 5103 
L 5294 4753 
Q 4709 4491 4063 4288 
Q 4819 4159 5638 3997 
L 5513 3653 
Q 4453 3919 3406 4100 
Q 2166 3784 713 3672 
Q 644 3841 550 3984 
Q 1634 4016 2638 4219 
Q 1828 4334 969 4416 
z
M 3288 2934 
L 3413 3209 
Q 4078 3072 4681 2916 
Q 5097 3078 5425 3297 
L 3350 3297 
L 3350 3584 
L 5956 3584 
L 5956 3284 
Q 5591 3006 5144 2794 
Q 5675 2644 6188 2484 
L 6025 2184 
Q 5372 2422 4719 2609 
Q 4094 2372 3338 2241 
Q 3256 2391 3150 2547 
Q 3703 2619 4172 2747 
Q 3766 2841 3288 2934 
z
M 375 2172 
L 6025 2172 
L 6025 1334 
L 5588 1334 
L 5588 1859 
L 813 1859 
L 813 1334 
L 375 1334 
L 375 2172 
z
M 363 2966 
L 494 3234 
Q 1094 3091 1775 2913 
Q 2166 3075 2506 3297 
L 338 3297 
L 338 3584 
L 2988 3584 
L 2988 3284 
Q 2625 3003 2209 2791 
Q 2597 2675 2975 2559 
L 2850 2247 
Q 2341 2438 1791 2600 
Q 1134 2331 356 2209 
Q 281 2359 175 2509 
Q 772 2581 1288 2741 
Q 809 2863 363 2966 
z
M 1600 297 
L 4794 297 
L 4794 622 
L 1600 622 
L 1600 297 
z
M 4794 1234 
L 1600 1234 
L 1600 909 
L 4794 909 
L 4794 1234 
z
M 1600 -309 
L 4794 -309 
L 4794 9 
L 1600 9 
L 1600 -309 
z
" transform="scale(0.015625)"/>
      <path id="MicrosoftYaHei-5f62" d="M 175 2647 
L 1019 2647 
L 1019 4422 
L 350 4422 
L 350 4872 
L 3775 4872 
L 3775 4422 
L 3006 4422 
L 3006 2647 
L 3975 2647 
L 3975 2197 
L 3006 2197 
L 3006 -791 
L 2525 -791 
L 2525 2197 
L 1497 2197 
Q 1500 128 406 -841 
Q 256 -622 75 -428 
Q 1025 366 1016 2197 
L 175 2197 
L 175 2647 
z
M 1500 2647 
L 2525 2647 
L 2525 4422 
L 1500 4422 
L 1500 2647 
z
M 6319 1353 
Q 5331 166 3738 -834 
Q 3631 -666 3388 -422 
Q 4925 397 5956 1672 
L 6319 1353 
z
M 6138 3172 
Q 5250 2159 4019 1347 
Q 3888 1528 3694 1722 
Q 4856 2441 5775 3484 
L 6138 3172 
z
M 6038 4934 
Q 5194 4009 3988 3266 
Q 3875 3428 3675 3666 
Q 4838 4322 5675 5253 
L 6038 4934 
z
" transform="scale(0.015625)"/>
      <path id="MicrosoftYaHei-6210" d="M 2750 -347 
Q 3472 138 4038 781 
Q 3675 1703 3609 3759 
L 1250 3759 
L 1250 2809 
L 3050 2809 
Q 3013 1616 2950 803 
Q 2875 -59 2113 -59 
Q 1856 -59 1431 -34 
Q 1394 197 1331 484 
Q 1769 422 2063 422 
Q 2425 422 2469 922 
Q 2519 1497 2544 2347 
L 1247 2347 
Q 1197 175 369 -866 
Q 213 -653 44 -434 
Q 750 503 750 2528 
L 750 4222 
L 3591 4222 
Q 3569 4716 3550 5291 
L 4069 5291 
Q 4066 4850 4084 4222 
L 6238 4222 
L 6238 3759 
L 4100 3759 
Q 4163 2078 4409 1247 
Q 5016 2069 5406 3109 
L 5900 2903 
Q 5363 1631 4609 691 
Q 5069 -244 5506 -244 
Q 5666 -244 5750 47 
Q 5838 503 5888 984 
Q 6156 878 6363 809 
Q 6269 141 6156 -284 
Q 6038 -741 5631 -778 
Q 5250 -803 4900 -522 
Q 4522 -231 4256 278 
Q 3728 -291 3106 -722 
Q 2944 -534 2750 -347 
z
M 4544 4984 
L 4806 5309 
Q 5331 5009 5788 4684 
L 5488 4309 
Q 5038 4666 4544 4984 
z
" transform="scale(0.015625)"/>
      <path id="MicrosoftYaHei-57fa" d="M 6319 697 
Q 6113 441 5981 247 
Q 5406 519 4925 897 
L 4925 553 
L 3431 553 
L 3431 -97 
L 5875 -97 
L 5875 -503 
L 519 -503 
L 519 -97 
L 2963 -97 
L 2963 553 
L 1450 553 
L 1450 894 
Q 953 478 413 172 
Q 294 341 88 566 
Q 1050 1034 1753 1753 
L 156 1753 
L 156 2159 
L 1400 2159 
L 1400 4253 
L 350 4253 
L 350 4659 
L 1400 4659 
L 1400 5334 
L 1869 5334 
L 1869 4659 
L 4550 4659 
L 4550 5334 
L 5019 5334 
L 5019 4659 
L 6069 4659 
L 6069 4253 
L 5019 4253 
L 5019 2159 
L 6244 2159 
L 6244 1753 
L 4600 1753 
Q 5303 1053 6319 697 
z
M 2963 1553 
L 3431 1553 
L 3431 947 
L 4863 947 
Q 4416 1306 4047 1753 
L 2325 1753 
Q 1934 1309 1513 947 
L 2963 947 
L 2963 1553 
z
M 1869 2159 
L 4550 2159 
L 4550 2603 
L 1869 2603 
L 1869 2159 
z
M 1869 2991 
L 4550 2991 
L 4550 3428 
L 1869 3428 
L 1869 2991 
z
M 1869 3816 
L 4550 3816 
L 4550 4253 
L 1869 4253 
L 1869 3816 
z
" transform="scale(0.015625)"/>
      <path id="MicrosoftYaHei-7c92" d="M 2438 -47 
L 4456 -47 
Q 4850 1328 5288 3391 
L 5794 3272 
Q 5306 1334 4894 -47 
L 6263 -47 
L 6263 -484 
L 2438 -484 
L 2438 -47 
z
M 2750 4141 
L 6069 4141 
L 6069 3703 
L 2750 3703 
L 2750 4141 
z
M 3013 3284 
L 3469 3372 
Q 3738 2072 4006 609 
L 3538 503 
Q 3281 2034 3013 3284 
z
M 1850 3572 
Q 2244 4322 2425 4809 
L 2844 4616 
Q 2594 4047 2213 3366 
L 1850 3572 
z
M 119 4641 
L 488 4809 
Q 656 4472 1056 3584 
L 638 3372 
Q 244 4372 119 4641 
z
M 3856 5141 
L 4275 5341 
Q 4550 4866 4781 4409 
L 4338 4197 
Q 4075 4759 3856 5141 
z
M 94 603 
Q 838 1622 1144 2584 
L 106 2584 
L 106 3022 
L 1244 3022 
L 1244 5316 
L 1688 5316 
L 1688 3022 
L 2819 3022 
L 2819 2584 
L 1688 2584 
L 1688 1803 
L 1913 2022 
Q 2413 1584 2825 1197 
L 2494 884 
Q 1956 1434 1688 1672 
L 1688 -816 
L 1244 -816 
L 1244 1847 
Q 881 866 288 103 
Q 206 359 94 603 
z
" transform="scale(0.015625)"/>
      <path id="MicrosoftYaHei-ff09" d="M 1113 -1100 
L 575 -1100 
Q 1684 163 1684 1888 
Q 1684 3581 581 4838 
L 1113 4838 
Q 2222 3628 2222 1888 
Q 2222 128 1113 -1100 
z
" transform="scale(0.015625)"/>
     </defs>
     <use xlink:href="#MicrosoftYaHei-ff08"/>
     <use xlink:href="#MicrosoftYaHei-7c7b" transform="translate(100 0)"/>
     <use xlink:href="#MicrosoftYaHei-56ca" transform="translate(200 0)"/>
     <use xlink:href="#MicrosoftYaHei-4f53" transform="translate(300 0)"/>
     <use xlink:href="#MicrosoftYaHei-5806" transform="translate(400 0)"/>
     <use xlink:href="#MicrosoftYaHei-53e0" transform="translate(500 0)"/>
     <use xlink:href="#MicrosoftYaHei-5f62" transform="translate(600 0)"/>
     <use xlink:href="#MicrosoftYaHei-6210" transform="translate(700 0)"/>
     <use xlink:href="#MicrosoftYaHei-57fa" transform="translate(800 0)"/>
     <use xlink:href="#MicrosoftYaHei-7c92" transform="translate(900 0)"/>
     <use xlink:href="#MicrosoftYaHei-ff09" transform="translate(1000 0)"/>
    </g>
   </g>
   <g id="text_9">
    <!-- 叶绿体结构放大 -->
    <g transform="translate(433.988986 15.993125) scale(0.11 -0.11)">
     <defs>
      <path id="MicrosoftYaHei-Bold-7eff" d="M 1213 1653 
L 2106 1766 
Q 2050 1372 2056 1022 
Q 1250 959 456 816 
L 244 1541 
Q 519 1794 1000 2713 
Q 556 2678 294 2634 
L 69 3347 
Q 500 3922 1006 5359 
L 1788 5128 
Q 1363 4197 875 3416 
L 1363 3438 
Q 1541 3803 1738 4241 
L 2494 3916 
Q 1725 2397 1213 1653 
z
M 2575 4059 
L 4834 4059 
L 4856 4397 
L 2413 4397 
L 2413 5103 
L 5738 5103 
L 5597 3078 
L 6300 3078 
L 6300 2384 
L 4588 2384 
L 4588 2131 
Q 4700 1859 4841 1622 
Q 5231 1944 5669 2366 
L 6263 1809 
L 5228 1094 
Q 5672 594 6300 291 
Q 6006 -84 5775 -466 
Q 5034 47 4588 838 
L 4588 66 
Q 4588 -369 4391 -589 
Q 4194 -809 3848 -818 
Q 3503 -828 2969 -828 
Q 2900 -422 2781 -28 
Q 3084 -53 3350 -53 
Q 3588 -53 3669 14 
Q 3750 81 3750 259 
L 3750 803 
Q 3203 363 2513 -141 
L 2053 447 
Q 2019 109 2031 -216 
L 250 -528 
L 88 297 
Q 1228 419 2041 578 
Q 3022 1063 3750 1591 
L 3750 2384 
L 2697 2384 
Q 3075 2097 3513 1716 
L 3006 1197 
Q 2681 1522 2188 1916 
L 2638 2384 
L 2088 2384 
L 2088 3078 
L 4775 3078 
L 4794 3416 
L 2575 3416 
L 2575 4059 
z
" transform="scale(0.015625)"/>
      <path id="MicrosoftYaHei-Bold-4f53" d="M 1100 5309 
L 1906 5103 
Q 1697 4303 1450 3613 
L 1450 1072 
Q 2450 2116 2934 3516 
L 1806 3516 
L 1806 4297 
L 3438 4297 
L 3438 5309 
L 4263 5309 
L 4263 4297 
L 6063 4297 
L 6063 3516 
L 4716 3516 
Q 5191 2188 6313 1166 
Q 6044 759 5769 278 
Q 5519 538 5300 853 
L 5300 209 
L 4263 209 
L 4263 -841 
L 3438 -841 
L 3438 209 
L 2431 209 
L 2431 878 
Q 2191 519 1906 191 
Q 1722 491 1450 900 
L 1450 -828 
L 700 -828 
L 700 1922 
Q 500 1563 288 1253 
Q 213 1822 88 2434 
Q 581 3359 1100 5309 
z
M 2509 997 
L 3438 997 
L 3438 3163 
Q 3138 1972 2509 997 
z
M 4263 3128 
L 4263 997 
L 5203 997 
Q 4634 1866 4263 3128 
z
" transform="scale(0.015625)"/>
      <path id="MicrosoftYaHei-Bold-653e" d="M 3850 5353 
L 4706 5128 
Q 4600 4725 4481 4366 
L 6294 4366 
L 6294 3534 
L 5934 3534 
Q 5784 1897 5125 797 
Q 5616 303 6325 22 
Q 6056 -341 5775 -816 
Q 5097 -425 4616 109 
Q 4066 -488 3306 -859 
Q 3069 -403 2825 -41 
Q 3538 294 4088 825 
Q 3681 1516 3516 2384 
Q 3416 2247 3313 2128 
Q 3138 2378 2913 2647 
L 2847 941 
Q 2816 131 2762 -95 
Q 2709 -322 2562 -476 
Q 2416 -631 2137 -670 
Q 1859 -709 1306 -709 
Q 1213 -200 1113 144 
Q 900 -416 563 -853 
Q 406 -547 75 47 
Q 372 491 522 1056 
Q 672 1622 678 2234 
L 691 3509 
L 156 3509 
L 156 4328 
L 1356 4328 
Q 1163 4750 1000 5053 
L 1800 5359 
Q 2000 5022 2269 4466 
L 1925 4328 
L 3113 4328 
L 3113 3509 
L 1500 3509 
L 1488 2841 
L 2856 2841 
Q 3531 3778 3850 5353 
z
M 4600 1500 
Q 5000 2256 5141 3534 
L 4166 3534 
Q 4122 3434 4078 3341 
Q 4175 2263 4600 1500 
z
M 1116 147 
Q 1441 122 1669 122 
Q 2019 122 2019 563 
L 2081 2084 
L 1469 2084 
Q 1431 981 1116 147 
z
" transform="scale(0.015625)"/>
      <path id="MicrosoftYaHei-Bold-5927" d="M 213 3728 
L 2681 3728 
Q 2725 4409 2719 5303 
L 3669 5303 
Q 3650 4375 3619 3728 
L 6200 3728 
L 6200 2866 
L 3691 2866 
Q 4228 778 6288 59 
Q 5844 -447 5575 -803 
Q 3872 -3 3203 1775 
Q 2684 147 806 -847 
Q 556 -528 100 -47 
Q 2375 984 2591 2866 
L 213 2866 
L 213 3728 
z
" transform="scale(0.015625)"/>
     </defs>
     <use xlink:href="#MicrosoftYaHei-Bold-53f6"/>
     <use xlink:href="#MicrosoftYaHei-Bold-7eff" transform="translate(100 0)"/>
     <use xlink:href="#MicrosoftYaHei-Bold-4f53" transform="translate(200 0)"/>
     <use xlink:href="#MicrosoftYaHei-Bold-7ed3" transform="translate(300 0)"/>
     <use xlink:href="#MicrosoftYaHei-Bold-6784" transform="translate(400 0)"/>
     <use xlink:href="#MicrosoftYaHei-Bold-653e" transform="translate(500 0)"/>
     <use xlink:href="#MicrosoftYaHei-Bold-5927" transform="translate(600 0)"/>
    </g>
   </g>
  </g>
 </g>
 <defs>
  <clipPath id="p0616b598e1">
   <rect x="7.2" y="104.053758" width="322.222028" height="87.878735"/>
  </clipPath>
  <clipPath id="p2714cfbce0">
   <rect x="375.565909" y="21.993125" width="193.846154" height="252"/>
  </clipPath>
 </defs>
</svg>
