<?xml version="1.0" encoding="utf-8" standalone="no"?>
<!DOCTYPE svg PUBLIC "-//W3C//DTD SVG 1.1//EN"
  "http://www.w3.org/Graphics/SVG/1.1/DTD/svg11.dtd">
<svg xmlns:xlink="http://www.w3.org/1999/xlink" width="424.82pt" height="207.896875pt" viewBox="0 0 424.82 207.896875" xmlns="http://www.w3.org/2000/svg" version="1.1">
 <metadata>
  <rdf:RDF xmlns:dc="http://purl.org/dc/elements/1.1/" xmlns:cc="http://creativecommons.org/ns#" xmlns:rdf="http://www.w3.org/1999/02/22-rdf-syntax-ns#">
   <cc:Work>
    <dc:type rdf:resource="http://purl.org/dc/dcmitype/StillImage"/>
    <dc:date>2026-05-22T14:16:00.130327</dc:date>
    <dc:format>image/svg+xml</dc:format>
    <dc:creator>
     <cc:Agent>
      <dc:title>Matplotlib v3.10.9, https://matplotlib.org/</dc:title>
     </cc:Agent>
    </dc:creator>
   </cc:Work>
  </rdf:RDF>
 </metadata>
 <defs>
  <style type="text/css">*{stroke-linejoin: round; stroke-linecap: butt}</style>
 </defs>
 <g id="figure_1">
  <g id="patch_1">
   <path d="M 0 207.896875 
L 424.82 207.896875 
L 424.82 0 
L 0 0 
L 0 207.896875 
z
" style="fill: none"/>
  </g>
  <g id="axes_1">
   <g id="patch_2">
    <path d="M 34.2 185.571875 
L 417.62 185.571875 
L 417.62 22.903125 
L 34.2 22.903125 
L 34.2 185.571875 
z
" style="fill: none"/>
   </g>
   <g id="matplotlib.axis_1">
    <g id="xtick_1">
     <g id="line2d_1">
      <path d="M 51.628182 185.571875 
L 51.628182 22.903125 
" clip-path="url(#pb240bb44ae)" style="fill: none; stroke: #b0b0b0; stroke-opacity: 0.3; stroke-width: 0.8; stroke-linecap: square"/>
     </g>
     <g id="line2d_2">
      <defs>
       <path id="m0a05197541" d="M 0 0 
L 0 3.5 
" style="stroke: #000000; stroke-width: 0.8"/>
      </defs>
      <g>
       <use xlink:href="#m0a05197541" x="51.628182" y="185.571875" style="stroke: #000000; stroke-width: 0.8"/>
      </g>
     </g>
     <g id="text_1">
      <!-- -2π -->
      <g transform="translate(41.628182 199.446875) scale(0.1 -0.1)">
       <defs>
        <path id="SimHei-2d" d="M 2975 2125 
L 125 2125 
L 125 2525 
L 2975 2525 
L 2975 2125 
z
" transform="scale(0.015625)"/>
        <path id="SimHei-32" d="M 300 250 
Q 325 625 650 925 
Q 975 1225 1475 1862 
Q 1975 2500 2125 2850 
Q 2275 3200 2237 3450 
Q 2200 3700 2000 3862 
Q 1800 4025 1537 4000 
Q 1275 3975 1037 3800 
Q 800 3625 675 3275 
L 200 3350 
Q 400 3925 712 4187 
Q 1025 4450 1450 4475 
Q 1700 4500 1900 4462 
Q 2100 4425 2312 4287 
Q 2525 4150 2662 3875 
Q 2800 3600 2762 3212 
Q 2725 2825 2375 2287 
Q 2025 1750 1025 600 
L 2825 600 
L 2825 150 
L 300 150 
L 300 250 
z
" transform="scale(0.015625)"/>
        <path id="SimHei-3c0" d="M 1575 3200 
L 4775 3200 
L 4775 2775 
L 4325 2775 
L 4325 750 
Q 4325 600 4500 625 
L 4775 625 
L 4775 225 
L 4300 225 
Q 3875 175 3925 750 
L 3925 2775 
L 2525 2775 
L 2525 225 
L 2100 225 
L 2100 2775 
L 1575 2775 
L 1575 3200 
z
" transform="scale(0.015625)"/>
       </defs>
       <use xlink:href="#SimHei-2d"/>
       <use xlink:href="#SimHei-32" transform="translate(50 0)"/>
       <use xlink:href="#SimHei-3c0" transform="translate(100 0)"/>
      </g>
     </g>
    </g>
    <g id="xtick_2">
     <g id="line2d_3">
      <path d="M 138.769091 185.571875 
L 138.769091 22.903125 
" clip-path="url(#pb240bb44ae)" style="fill: none; stroke: #b0b0b0; stroke-opacity: 0.3; stroke-width: 0.8; stroke-linecap: square"/>
     </g>
     <g id="line2d_4">
      <g>
       <use xlink:href="#m0a05197541" x="138.769091" y="185.571875" style="stroke: #000000; stroke-width: 0.8"/>
      </g>
     </g>
     <g id="text_2">
      <!-- -π -->
      <g transform="translate(131.269091 199.446875) scale(0.1 -0.1)">
       <use xlink:href="#SimHei-2d"/>
       <use xlink:href="#SimHei-3c0" transform="translate(50 0)"/>
      </g>
     </g>
    </g>
    <g id="xtick_3">
     <g id="line2d_5">
      <path d="M 225.91 185.571875 
L 225.91 22.903125 
" clip-path="url(#pb240bb44ae)" style="fill: none; stroke: #b0b0b0; stroke-opacity: 0.3; stroke-width: 0.8; stroke-linecap: square"/>
     </g>
     <g id="line2d_6">
      <g>
       <use xlink:href="#m0a05197541" x="225.91" y="185.571875" style="stroke: #000000; stroke-width: 0.8"/>
      </g>
     </g>
     <g id="text_3">
      <!-- 0 -->
      <g transform="translate(223.41 199.446875) scale(0.1 -0.1)">
       <defs>
        <path id="SimHei-30" d="M 225 2537 
Q 250 3200 412 3587 
Q 575 3975 875 4225 
Q 1175 4475 1612 4475 
Q 2050 4475 2375 4112 
Q 2700 3750 2800 3200 
Q 2900 2650 2862 1937 
Q 2825 1225 2612 775 
Q 2400 325 1975 150 
Q 1550 -25 1125 187 
Q 700 400 525 750 
Q 350 1100 275 1487 
Q 200 1875 225 2537 
z
M 750 2687 
Q 675 2000 800 1462 
Q 925 925 1212 700 
Q 1500 475 1800 612 
Q 2100 750 2237 1162 
Q 2375 1575 2375 2062 
Q 2375 2550 2337 2950 
Q 2300 3350 2112 3675 
Q 1925 4000 1612 4012 
Q 1300 4025 1062 3700 
Q 825 3375 750 2687 
z
" transform="scale(0.015625)"/>
       </defs>
       <use xlink:href="#SimHei-30"/>
      </g>
     </g>
    </g>
    <g id="xtick_4">
     <g id="line2d_7">
      <path d="M 313.050909 185.571875 
L 313.050909 22.903125 
" clip-path="url(#pb240bb44ae)" style="fill: none; stroke: #b0b0b0; stroke-opacity: 0.3; stroke-width: 0.8; stroke-linecap: square"/>
     </g>
     <g id="line2d_8">
      <g>
       <use xlink:href="#m0a05197541" x="313.050909" y="185.571875" style="stroke: #000000; stroke-width: 0.8"/>
      </g>
     </g>
     <g id="text_4">
      <!-- π -->
      <g transform="translate(308.050909 199.446875) scale(0.1 -0.1)">
       <use xlink:href="#SimHei-3c0"/>
      </g>
     </g>
    </g>
    <g id="xtick_5">
     <g id="line2d_9">
      <path d="M 400.191818 185.571875 
L 400.191818 22.903125 
" clip-path="url(#pb240bb44ae)" style="fill: none; stroke: #b0b0b0; stroke-opacity: 0.3; stroke-width: 0.8; stroke-linecap: square"/>
     </g>
     <g id="line2d_10">
      <g>
       <use xlink:href="#m0a05197541" x="400.191818" y="185.571875" style="stroke: #000000; stroke-width: 0.8"/>
      </g>
     </g>
     <g id="text_5">
      <!-- 2π -->
      <g transform="translate(392.691818 199.446875) scale(0.1 -0.1)">
       <use xlink:href="#SimHei-32"/>
       <use xlink:href="#SimHei-3c0" transform="translate(50 0)"/>
      </g>
     </g>
    </g>
   </g>
   <g id="matplotlib.axis_2">
    <g id="ytick_1">
     <g id="line2d_11">
      <path d="M 34.2 178.178414 
L 417.62 178.178414 
" clip-path="url(#pb240bb44ae)" style="fill: none; stroke: #b0b0b0; stroke-opacity: 0.3; stroke-width: 0.8; stroke-linecap: square"/>
     </g>
     <g id="line2d_12">
      <defs>
       <path id="m79d8a905ce" d="M 0 0 
L -3.5 0 
" style="stroke: #000000; stroke-width: 0.8"/>
      </defs>
      <g>
       <use xlink:href="#m79d8a905ce" x="34.2" y="178.178414" style="stroke: #000000; stroke-width: 0.8"/>
      </g>
     </g>
     <g id="text_6">
      <!-- -1.0 -->
      <g transform="translate(7.2 181.615914) scale(0.1 -0.1)">
       <defs>
        <path id="SimHei-31" d="M 1400 3600 
Q 1075 3275 575 2975 
L 575 3450 
Q 1200 3875 1600 4450 
L 1900 4450 
L 1900 150 
L 1400 150 
L 1400 3600 
z
" transform="scale(0.015625)"/>
        <path id="SimHei-2e" d="M 1075 125 
L 500 125 
L 500 675 
L 1075 675 
L 1075 125 
z
" transform="scale(0.015625)"/>
       </defs>
       <use xlink:href="#SimHei-2d"/>
       <use xlink:href="#SimHei-31" transform="translate(50 0)"/>
       <use xlink:href="#SimHei-2e" transform="translate(100 0)"/>
       <use xlink:href="#SimHei-30" transform="translate(150 0)"/>
      </g>
     </g>
    </g>
    <g id="ytick_2">
     <g id="line2d_13">
      <path d="M 34.2 141.2081 
L 417.62 141.2081 
" clip-path="url(#pb240bb44ae)" style="fill: none; stroke: #b0b0b0; stroke-opacity: 0.3; stroke-width: 0.8; stroke-linecap: square"/>
     </g>
     <g id="line2d_14">
      <g>
       <use xlink:href="#m79d8a905ce" x="34.2" y="141.2081" style="stroke: #000000; stroke-width: 0.8"/>
      </g>
     </g>
     <g id="text_7">
      <!-- -0.5 -->
      <g transform="translate(7.2 144.6456) scale(0.1 -0.1)">
       <defs>
        <path id="SimHei-35" d="M 550 1325 
Q 725 650 1150 575 
Q 1575 500 1837 662 
Q 2100 825 2212 1087 
Q 2325 1350 2312 1675 
Q 2300 2000 2137 2225 
Q 1975 2450 1725 2525 
Q 1475 2600 1162 2525 
Q 850 2450 650 2175 
L 225 2225 
Q 275 2375 700 4375 
L 2675 4375 
L 2675 3925 
L 1075 3925 
Q 950 3250 825 2850 
Q 1200 3025 1525 3012 
Q 1850 3000 2150 2862 
Q 2450 2725 2587 2487 
Q 2725 2250 2787 2012 
Q 2850 1775 2837 1500 
Q 2825 1225 2725 937 
Q 2625 650 2425 462 
Q 2225 275 1937 162 
Q 1650 50 1275 75 
Q 900 100 562 350 
Q 225 600 100 1200 
L 550 1325 
z
" transform="scale(0.015625)"/>
       </defs>
       <use xlink:href="#SimHei-2d"/>
       <use xlink:href="#SimHei-30" transform="translate(50 0)"/>
       <use xlink:href="#SimHei-2e" transform="translate(100 0)"/>
       <use xlink:href="#SimHei-35" transform="translate(150 0)"/>
      </g>
     </g>
    </g>
    <g id="ytick_3">
     <g id="line2d_15">
      <path d="M 34.2 104.237786 
L 417.62 104.237786 
" clip-path="url(#pb240bb44ae)" style="fill: none; stroke: #b0b0b0; stroke-opacity: 0.3; stroke-width: 0.8; stroke-linecap: square"/>
     </g>
     <g id="line2d_16">
      <g>
       <use xlink:href="#m79d8a905ce" x="34.2" y="104.237786" style="stroke: #000000; stroke-width: 0.8"/>
      </g>
     </g>
     <g id="text_8">
      <!-- 0.0 -->
      <g transform="translate(12.2 107.675286) scale(0.1 -0.1)">
       <use xlink:href="#SimHei-30"/>
       <use xlink:href="#SimHei-2e" transform="translate(50 0)"/>
       <use xlink:href="#SimHei-30" transform="translate(100 0)"/>
      </g>
     </g>
    </g>
    <g id="ytick_4">
     <g id="line2d_17">
      <path d="M 34.2 67.267473 
L 417.62 67.267473 
" clip-path="url(#pb240bb44ae)" style="fill: none; stroke: #b0b0b0; stroke-opacity: 0.3; stroke-width: 0.8; stroke-linecap: square"/>
     </g>
     <g id="line2d_18">
      <g>
       <use xlink:href="#m79d8a905ce" x="34.2" y="67.267473" style="stroke: #000000; stroke-width: 0.8"/>
      </g>
     </g>
     <g id="text_9">
      <!-- 0.5 -->
      <g transform="translate(12.2 70.704973) scale(0.1 -0.1)">
       <use xlink:href="#SimHei-30"/>
       <use xlink:href="#SimHei-2e" transform="translate(50 0)"/>
       <use xlink:href="#SimHei-35" transform="translate(100 0)"/>
      </g>
     </g>
    </g>
    <g id="ytick_5">
     <g id="line2d_19">
      <path d="M 34.2 30.297159 
L 417.62 30.297159 
" clip-path="url(#pb240bb44ae)" style="fill: none; stroke: #b0b0b0; stroke-opacity: 0.3; stroke-width: 0.8; stroke-linecap: square"/>
     </g>
     <g id="line2d_20">
      <g>
       <use xlink:href="#m79d8a905ce" x="34.2" y="30.297159" style="stroke: #000000; stroke-width: 0.8"/>
      </g>
     </g>
     <g id="text_10">
      <!-- 1.0 -->
      <g transform="translate(12.2 33.734659) scale(0.1 -0.1)">
       <use xlink:href="#SimHei-31"/>
       <use xlink:href="#SimHei-2e" transform="translate(50 0)"/>
       <use xlink:href="#SimHei-30" transform="translate(100 0)"/>
      </g>
     </g>
    </g>
   </g>
   <g id="line2d_21">
    <path d="M 51.628182 104.237786 
L 59.490519 83.558698 
L 63.858485 72.681669 
L 67.352857 64.529977 
L 70.847229 57.00764 
L 73.468009 51.851052 
L 76.088788 47.161785 
L 78.709567 42.981669 
L 81.330346 39.347994 
L 83.077532 37.245338 
L 84.824719 35.408397 
L 86.571905 33.844458 
L 88.319091 32.559723 
L 90.066277 31.559287 
L 91.813463 30.847119 
L 93.560649 30.426044 
L 95.307835 30.297732 
L 97.055022 30.462691 
L 98.802208 30.920268 
L 100.549394 31.668647 
L 102.29658 32.704861 
L 104.043766 34.024798 
L 105.790952 35.623224 
L 107.538139 37.4938 
L 109.285325 39.629104 
L 111.032511 42.02067 
L 113.65329 46.067486 
L 116.274069 50.633216 
L 118.894848 55.67713 
L 121.515628 61.154233 
L 125.01 69.045938 
L 128.504372 77.49542 
L 132.872338 88.636958 
L 140.734675 109.473056 
L 146.849827 125.47518 
L 151.217792 136.319422 
L 154.712165 144.435471 
L 158.206537 151.914401 
L 160.827316 157.033748 
L 163.448095 161.682123 
L 166.068874 165.818061 
L 168.689654 169.404668 
L 170.43684 171.474544 
L 172.184026 173.277735 
L 173.931212 174.807091 
L 175.678398 176.056545 
L 177.425584 177.02114 
L 179.172771 177.697052 
L 180.919957 178.0816 
L 182.667143 178.173257 
L 184.414329 177.971661 
L 186.161515 177.477611 
L 187.908701 176.693067 
L 189.655887 175.62114 
L 191.403074 174.266082 
L 193.15026 172.633268 
L 194.897446 170.729174 
L 196.644632 168.561352 
L 199.265411 164.834217 
L 201.88619 160.566526 
L 204.50697 155.796349 
L 207.127749 150.566241 
L 210.622121 142.95849 
L 214.116494 134.737031 
L 218.484459 123.796453 
L 224.59961 107.72959 
L 234.209134 82.443404 
L 238.5771 71.632621 
L 242.071472 63.552718 
L 245.565844 56.117659 
L 248.186623 51.035872 
L 250.807403 46.428676 
L 253.428182 42.337172 
L 256.048961 38.797857 
L 257.796147 36.760889 
L 259.543333 34.991558 
L 261.290519 33.496881 
L 263.037706 32.282786 
L 264.784892 31.35409 
L 266.532078 30.714476 
L 268.279264 30.36648 
L 270.02645 30.311483 
L 271.773636 30.549704 
L 273.520823 31.080197 
L 275.268009 31.900857 
L 277.015195 33.008431 
L 278.762381 34.398525 
L 280.509567 36.065626 
L 282.256753 38.003121 
L 284.003939 40.203325 
L 286.624719 43.976845 
L 289.245498 48.287928 
L 291.866277 53.098117 
L 294.487056 58.364501 
L 297.981429 66.014251 
L 301.475801 74.269831 
L 305.843766 85.241167 
L 311.958918 101.327619 
L 320.694848 124.357287 
L 325.062814 135.266429 
L 328.557186 143.453259 
L 332.051558 151.018537 
L 334.672338 156.212046 
L 337.293117 160.941915 
L 339.913896 165.165949 
L 342.534675 168.846469 
L 344.281861 170.981773 
L 346.029048 172.852349 
L 347.776234 174.450775 
L 349.52342 175.770712 
L 351.270606 176.806926 
L 353.017792 177.555305 
L 354.764978 178.012882 
L 356.512165 178.177841 
L 358.259351 178.049529 
L 360.006537 177.628454 
L 361.753723 176.916286 
L 363.500909 175.91585 
L 365.248095 174.631115 
L 366.995281 173.067176 
L 368.742468 171.230235 
L 370.489654 169.127579 
L 372.23684 166.767549 
L 374.857619 162.765671 
L 377.478398 158.24169 
L 380.099177 153.235962 
L 382.719957 147.793142 
L 386.214329 139.940555 
L 389.708701 131.522091 
L 394.076667 120.407204 
L 400.191818 104.237786 
L 400.191818 104.237786 
" clip-path="url(#pb240bb44ae)" style="fill: none; stroke: #0000ff; stroke-width: 2; stroke-linecap: square"/>
   </g>
   <g id="line2d_22">
    <path d="M 51.628182 30.297159 
L 53.375368 30.443796 
L 55.122554 30.883125 
L 56.86974 31.613404 
L 58.616926 32.631737 
L 60.364113 33.934083 
L 62.111299 35.515278 
L 63.858485 37.369051 
L 65.605671 39.488047 
L 67.352857 41.863864 
L 69.973636 45.888242 
L 72.594416 50.433133 
L 75.215195 55.457992 
L 77.835974 60.917996 
L 81.330346 68.790203 
L 84.824719 77.224242 
L 89.192684 88.35254 
L 97.055022 109.182655 
L 103.170173 125.19619 
L 107.538139 136.05691 
L 111.032511 144.190843 
L 114.526883 151.691535 
L 117.147662 156.829542 
L 119.768442 161.498399 
L 122.389221 165.656459 
L 125.01 169.266627 
L 126.757186 171.352909 
L 128.504372 173.17299 
L 130.251558 174.719649 
L 131.998745 175.986754 
L 133.745931 176.969277 
L 135.493117 177.663322 
L 137.240303 178.066136 
L 138.987489 178.176122 
L 140.734675 177.992843 
L 142.481861 177.517026 
L 144.229048 176.750558 
L 145.976234 175.69648 
L 147.72342 174.358972 
L 149.470606 172.743339 
L 151.217792 170.85599 
L 152.964978 168.70441 
L 154.712165 166.297133 
L 157.332944 162.227941 
L 159.953723 157.641443 
L 162.574502 152.578553 
L 165.195281 147.084435 
L 168.689654 139.173356 
L 172.184026 130.70856 
L 176.551991 119.553956 
L 185.287922 96.393097 
L 191.403074 80.504809 
L 195.771039 69.816397 
L 199.265411 61.866935 
L 201.88619 56.339044 
L 204.50697 51.238438 
L 207.127749 46.610616 
L 209.748528 42.496863 
L 212.369307 38.933875 
L 214.116494 36.880437 
L 215.86368 35.094162 
L 217.610866 33.582134 
L 219.358052 32.35035 
L 221.105238 31.403697 
L 222.852424 30.745929 
L 224.59961 30.379654 
L 226.346797 30.306327 
L 228.093983 30.526237 
L 229.841169 31.038512 
L 231.588355 31.841121 
L 233.335541 32.93088 
L 235.082727 34.303466 
L 236.829913 35.953436 
L 238.5771 37.874246 
L 240.324286 40.058275 
L 242.945065 43.808632 
L 245.565844 48.098053 
L 248.186623 52.888272 
L 250.807403 58.136559 
L 254.301775 65.765369 
L 257.796147 74.003953 
L 262.164113 84.959994 
L 268.279264 101.036776 
L 277.015195 124.077024 
L 281.38316 135.001968 
L 284.877532 143.206176 
L 288.371905 150.79275 
L 290.992684 156.004599 
L 293.613463 160.754658 
L 296.234242 165.000554 
L 298.855022 168.70441 
L 300.602208 170.85599 
L 302.349394 172.743339 
L 304.09658 174.358972 
L 305.843766 175.69648 
L 307.590952 176.750558 
L 309.338139 177.517026 
L 311.085325 177.992843 
L 312.832511 178.176122 
L 314.579697 178.066136 
L 316.326883 177.663322 
L 318.074069 176.969277 
L 319.821255 175.986754 
L 321.568442 174.719649 
L 323.315628 173.17299 
L 325.062814 171.352909 
L 326.81 169.266627 
L 328.557186 166.922419 
L 331.177965 162.943103 
L 333.798745 158.440102 
L 336.419524 153.453584 
L 339.040303 148.028033 
L 342.534675 140.195186 
L 346.029048 131.792428 
L 350.397013 120.691124 
L 357.385758 102.200401 
L 364.374502 83.838334 
L 368.742468 72.945164 
L 372.23684 64.77584 
L 375.731212 57.231974 
L 378.351991 52.056885 
L 380.972771 47.347281 
L 383.59355 43.145173 
L 386.214329 39.488047 
L 387.961515 37.369051 
L 389.708701 35.515278 
L 391.455887 33.934083 
L 393.203074 32.631737 
L 394.95026 31.613404 
L 396.697446 30.883125 
L 398.444632 30.443796 
L 400.191818 30.297159 
L 400.191818 30.297159 
" clip-path="url(#pb240bb44ae)" style="fill: none; stroke: #ff0000; stroke-width: 2; stroke-linecap: square"/>
   </g>
   <g id="line2d_23">
    <path d="M 34.2 104.237786 
L 417.62 104.237786 
" clip-path="url(#pb240bb44ae)" style="fill: none; stroke: #808080; stroke-width: 0.5; stroke-linecap: square"/>
   </g>
   <g id="line2d_24">
    <path d="M 225.91 185.571875 
L 225.91 22.903125 
" clip-path="url(#pb240bb44ae)" style="fill: none; stroke: #808080; stroke-width: 0.5; stroke-linecap: square"/>
   </g>
   <g id="patch_3">
    <path d="M 34.2 185.571875 
L 34.2 22.903125 
" style="fill: none; stroke: #000000; stroke-width: 0.8; stroke-linejoin: miter; stroke-linecap: square"/>
   </g>
   <g id="patch_4">
    <path d="M 417.62 185.571875 
L 417.62 22.903125 
" style="fill: none; stroke: #000000; stroke-width: 0.8; stroke-linejoin: miter; stroke-linecap: square"/>
   </g>
   <g id="patch_5">
    <path d="M 34.2 185.571875 
L 417.62 185.571875 
" style="fill: none; stroke: #000000; stroke-width: 0.8; stroke-linejoin: miter; stroke-linecap: square"/>
   </g>
   <g id="patch_6">
    <path d="M 34.2 22.903125 
L 417.62 22.903125 
" style="fill: none; stroke: #000000; stroke-width: 0.8; stroke-linejoin: miter; stroke-linecap: square"/>
   </g>
   <g id="text_11">
    <!-- 三角函数图像 -->
    <g transform="translate(189.91 16.903125) scale(0.12 -0.12)">
     <defs>
      <path id="SimHei-4e09" d="M 6000 -200 
Q 5550 -175 5200 -175 
L 1300 -175 
Q 900 -175 375 -200 
L 375 350 
Q 850 325 1300 325 
L 5200 325 
Q 5575 325 6000 375 
L 6000 -200 
z
M 900 4600 
Q 1400 4575 1825 4575 
L 4600 4575 
Q 5075 4575 5475 4600 
L 5475 4075 
Q 5100 4100 4600 4100 
L 1800 4100 
Q 1375 4100 900 4075 
L 900 4600 
z
M 2075 2100 
Q 1700 2100 1275 2075 
L 1275 2625 
Q 1675 2600 2075 2600 
L 4225 2600 
Q 4600 2600 5050 2625 
L 5050 2075 
Q 4550 2100 4225 2100 
L 2075 2100 
z
" transform="scale(0.015625)"/>
      <path id="SimHei-89d2" d="M 3125 900 
L 1625 900 
Q 1475 125 875 -625 
Q 650 -400 400 -300 
Q 775 50 975 475 
Q 1175 900 1250 1575 
Q 1325 2250 1300 3325 
Q 1100 3125 825 2925 
Q 700 3125 425 3325 
Q 650 3425 1075 3737 
Q 1500 4050 1850 4512 
Q 2200 4975 2350 5275 
Q 2550 5125 2825 5000 
Q 2700 4875 2425 4525 
L 4825 4525 
Q 4700 4375 4050 3475 
L 5600 3475 
Q 5575 2925 5575 2500 
L 5575 25 
Q 5575 -350 5325 -450 
Q 5075 -550 4575 -600 
Q 4500 -325 4325 -50 
Q 4825 -50 4975 0 
Q 5125 50 5100 325 
L 5100 900 
L 3600 900 
L 3600 400 
Q 3600 25 3625 -500 
L 3075 -500 
Q 3125 0 3125 500 
L 3125 900 
z
M 3525 3475 
L 3975 4125 
L 2150 4125 
Q 1825 3775 1475 3475 
L 3525 3475 
z
M 5100 1300 
L 5100 2000 
L 3600 2000 
L 3600 1300 
L 5100 1300 
z
M 5100 2400 
L 5100 3050 
L 3600 3050 
L 3600 2400 
L 5100 2400 
z
M 3125 1300 
L 3125 2000 
L 1750 2000 
Q 1750 1625 1700 1300 
L 3125 1300 
z
M 3125 2400 
L 3125 3050 
L 1775 3050 
L 1775 2400 
L 3125 2400 
z
" transform="scale(0.015625)"/>
      <path id="SimHei-51fd" d="M 1200 200 
L 5200 200 
L 5200 2225 
Q 5200 2600 5150 3075 
L 5700 3075 
Q 5675 2500 5675 2225 
L 5675 50 
Q 5675 -275 5700 -625 
L 5200 -625 
L 5200 -225 
L 700 -225 
Q 725 50 725 1375 
Q 725 2700 700 3075 
L 1225 3075 
Q 1200 2800 1200 2475 
L 1200 200 
z
M 5450 4925 
L 5450 4450 
Q 5075 4325 4475 4037 
Q 3875 3750 3475 3575 
L 3475 1100 
Q 3475 700 3200 587 
Q 2925 475 2525 400 
Q 2475 675 2350 950 
Q 2750 950 2887 1000 
Q 3025 1050 3025 1375 
L 3025 3075 
Q 3025 3550 2975 3850 
Q 3225 3925 3700 4125 
Q 4175 4325 4500 4500 
L 1950 4500 
Q 1425 4500 1025 4475 
L 1025 4950 
Q 1525 4925 1950 4925 
L 5450 4925 
z
M 4500 1750 
Q 4700 1575 5000 1275 
Q 4825 1125 4650 900 
Q 4400 1175 4200 1375 
Q 4000 1575 3600 1925 
Q 3775 2100 3900 2275 
L 4500 1750 
z
M 2700 1800 
Q 2525 1675 2237 1487 
Q 1950 1300 1600 1000 
Q 1525 1175 1325 1425 
Q 1500 1500 1887 1737 
Q 2275 1975 2550 2225 
Q 2600 2025 2700 1800 
z
M 4975 3175 
Q 4800 3100 4562 2912 
Q 4325 2725 4000 2475 
Q 3875 2700 3750 2850 
Q 4025 3050 4200 3200 
Q 4375 3350 4600 3575 
Q 4775 3375 4975 3175 
z
M 2350 2550 
Q 2200 2750 2000 2937 
Q 1800 3125 1475 3350 
Q 1650 3525 1750 3700 
Q 2025 3500 2650 2950 
Q 2475 2725 2350 2550 
z
" transform="scale(0.015625)"/>
      <path id="SimHei-6570" d="M 4525 4925 
Q 4475 4800 4400 4587 
Q 4325 4375 4175 3825 
L 5325 3825 
Q 5575 3825 5925 3850 
L 5925 3400 
Q 5650 3425 5500 3425 
Q 5500 3025 5362 2162 
Q 5225 1300 4875 675 
Q 5125 375 5437 137 
Q 5750 -100 6025 -200 
Q 5725 -425 5625 -625 
Q 5325 -450 5075 -225 
Q 4825 0 4575 325 
Q 4300 25 3987 -187 
Q 3675 -400 3200 -650 
Q 3075 -425 2850 -300 
Q 3225 -150 3650 125 
Q 4075 400 4300 675 
Q 4125 1025 3962 1425 
Q 3800 1825 3675 2475 
Q 3600 2275 3425 1950 
Q 3250 2050 3000 2150 
Q 3400 2850 3650 3675 
Q 3900 4500 3975 5100 
Q 4275 4975 4525 4925 
z
M 2100 2250 
Q 2000 2150 1875 1925 
L 3250 1925 
Q 3100 1300 2725 675 
Q 3125 525 3350 400 
Q 3225 225 3125 25 
Q 2900 175 2450 325 
Q 1950 -225 725 -650 
Q 600 -375 400 -275 
Q 1575 0 2000 475 
Q 1300 650 850 775 
Q 1000 1000 1250 1525 
Q 1000 1525 425 1500 
L 425 1950 
Q 900 1925 1400 1925 
Q 1500 2150 1550 2425 
Q 1825 2325 2100 2250 
z
M 1775 3950 
Q 1775 4550 1750 5100 
L 2250 5100 
Q 2225 4575 2225 3950 
Q 3075 3950 3425 3975 
L 3425 3525 
Q 3075 3550 2225 3550 
Q 2225 2825 2250 2425 
L 1750 2425 
Q 1775 2775 1775 3300 
Q 1650 3100 1300 2787 
Q 950 2475 650 2300 
Q 525 2525 275 2625 
Q 500 2700 875 2975 
Q 1250 3250 1450 3550 
Q 950 3550 500 3525 
L 500 3975 
Q 925 3950 1775 3950 
z
M 3975 3175 
Q 4200 1700 4600 1125 
Q 4850 1700 4937 2287 
Q 5025 2875 5050 3425 
L 4075 3425 
L 3975 3175 
z
M 1450 1000 
Q 1750 925 2275 800 
Q 2475 1050 2650 1525 
L 1725 1525 
Q 1600 1275 1450 1000 
z
M 3325 4825 
Q 3200 4625 3125 4450 
Q 3050 4275 2925 4025 
Q 2725 4125 2525 4175 
Q 2725 4500 2900 5000 
Q 3150 4875 3325 4825 
z
M 2575 3375 
Q 2900 3050 3200 2725 
Q 3050 2600 2875 2425 
Q 2525 2850 2300 3100 
Q 2450 3225 2575 3375 
z
M 925 5000 
Q 1275 4650 1500 4300 
L 1125 4075 
Q 950 4425 600 4725 
Q 825 4875 925 5000 
z
" transform="scale(0.015625)"/>
      <path id="SimHei-56fe" d="M 5800 4975 
Q 5775 4350 5775 3600 
L 5775 925 
Q 5775 150 5800 -600 
L 5300 -600 
L 5300 -275 
L 1125 -275 
L 1125 -650 
L 625 -650 
Q 650 125 650 950 
L 650 3600 
Q 650 4325 625 4975 
L 5800 4975 
z
M 5300 150 
L 5300 4575 
L 1125 4575 
L 1125 150 
L 5300 150 
z
M 3225 4250 
Q 3075 4100 2950 3925 
L 4625 3925 
Q 4525 3700 4300 3375 
Q 4075 3050 3600 2600 
Q 4350 2225 5075 2150 
Q 4900 1925 4775 1675 
Q 3850 1950 3225 2350 
Q 2500 1875 1675 1650 
Q 1600 1875 1400 2075 
Q 2200 2200 2875 2600 
Q 2525 2925 2375 3150 
Q 2150 2900 1900 2650 
Q 1725 2850 1525 2950 
Q 1950 3300 2250 3737 
Q 2550 4175 2675 4475 
Q 2925 4350 3225 4250 
z
M 2450 1275 
Q 3550 950 4100 725 
Q 3975 525 3850 300 
Q 2825 725 2275 850 
Q 2375 1050 2450 1275 
z
M 2925 2050 
Q 3775 1700 4075 1600 
Q 3950 1400 3850 1150 
Q 3000 1550 2700 1650 
Q 2825 1825 2925 2050 
z
M 2625 3450 
Q 3000 3025 3275 2850 
Q 3600 3100 3875 3525 
L 2675 3525 
L 2625 3450 
z
" transform="scale(0.015625)"/>
      <path id="SimHei-50cf" d="M 3800 5025 
Q 3575 4875 3375 4575 
L 4975 4575 
Q 4850 4325 4600 3800 
L 5725 3800 
Q 5700 3425 5700 3150 
Q 5700 2875 5725 2550 
L 3950 2550 
Q 3800 2425 3700 2325 
Q 4000 2100 4225 1750 
Q 4775 2025 5150 2400 
Q 5250 2250 5550 2050 
Q 5250 1875 4950 1675 
Q 5300 725 6050 375 
Q 5725 200 5625 25 
Q 4925 575 4600 1525 
Q 4550 1475 4400 1400 
Q 4525 1100 4550 762 
Q 4575 425 4525 100 
Q 4475 -225 4237 -425 
Q 4000 -625 3525 -700 
Q 3475 -450 3275 -200 
Q 3875 -225 4025 37 
Q 4175 300 4100 925 
Q 3175 100 2300 -300 
Q 2225 -50 1950 100 
Q 2900 375 3950 1325 
Q 3875 1525 3800 1650 
Q 2950 875 2200 525 
Q 2075 750 1875 900 
Q 2700 1125 3550 1925 
L 3375 2100 
Q 2700 1650 2200 1425 
Q 2100 1675 1875 1850 
Q 2800 2125 3350 2550 
L 2375 2550 
Q 2400 2800 2400 3500 
Q 2300 3375 2150 3250 
Q 2000 3425 1775 3575 
Q 2200 3900 2600 4362 
Q 3000 4825 3175 5275 
Q 3575 5075 3800 5025 
z
M 2025 4975 
Q 1825 4775 1500 3825 
L 1500 625 
Q 1500 -100 1525 -550 
L 1025 -550 
Q 1075 -75 1075 600 
L 1075 3050 
Q 750 2525 600 2275 
Q 375 2500 200 2625 
Q 550 3000 875 3675 
Q 1200 4350 1400 5225 
Q 1625 5125 2025 4975 
z
M 5250 2900 
L 5250 3450 
L 4225 3450 
Q 4150 3175 4050 2900 
L 5250 2900 
z
M 4125 3800 
Q 4200 3975 4300 4225 
L 3125 4225 
Q 2950 4050 2750 3800 
L 4125 3800 
z
M 3600 2900 
Q 3700 3200 3775 3450 
L 2850 3450 
L 2850 2900 
L 3600 2900 
z
" transform="scale(0.015625)"/>
     </defs>
     <use xlink:href="#SimHei-4e09"/>
     <use xlink:href="#SimHei-89d2" transform="translate(100 0)"/>
     <use xlink:href="#SimHei-51fd" transform="translate(200 0)"/>
     <use xlink:href="#SimHei-6570" transform="translate(300 0)"/>
     <use xlink:href="#SimHei-56fe" transform="translate(400 0)"/>
     <use xlink:href="#SimHei-50cf" transform="translate(500 0)"/>
    </g>
   </g>
   <g id="legend_1">
    <g id="patch_7">
     <path d="M 41.2 180.571875 
L 98.2 180.571875 
Q 100.2 180.571875 100.2 178.571875 
L 100.2 153.071875 
Q 100.2 151.071875 98.2 151.071875 
L 41.2 151.071875 
Q 39.2 151.071875 39.2 153.071875 
L 39.2 178.571875 
Q 39.2 180.571875 41.2 180.571875 
z
" style="fill: #ffffff; opacity: 0.8; stroke: #cccccc; stroke-linejoin: miter"/>
    </g>
    <g id="line2d_25">
     <path d="M 43.2 158.571875 
L 53.2 158.571875 
L 63.2 158.571875 
" style="fill: none; stroke: #0000ff; stroke-width: 2; stroke-linecap: square"/>
    </g>
    <g id="text_12">
     <!-- sin x -->
     <g transform="translate(71.2 162.071875) scale(0.1 -0.1)">
      <defs>
       <path id="SimHei-73" d="M 2750 900 
Q 2750 500 2437 287 
Q 2125 75 1650 75 
Q 1050 75 725 312 
Q 400 550 400 1000 
L 900 1000 
Q 900 700 1112 600 
Q 1325 500 1625 500 
Q 1925 500 2075 612 
Q 2225 725 2225 900 
Q 2225 1025 2100 1150 
Q 1975 1275 1475 1350 
Q 900 1425 687 1637 
Q 475 1850 475 2200 
Q 475 2500 762 2737 
Q 1050 2975 1600 2975 
Q 2100 2975 2387 2750 
Q 2675 2525 2675 2150 
L 2175 2150 
Q 2175 2375 2012 2462 
Q 1850 2550 1600 2550 
Q 1275 2550 1137 2437 
Q 1000 2325 1000 2175 
Q 1000 2000 1125 1900 
Q 1250 1800 1650 1750 
Q 2300 1650 2525 1437 
Q 2750 1225 2750 900 
z
" transform="scale(0.015625)"/>
       <path id="SimHei-69" d="M 1800 3725 
L 1300 3725 
L 1300 4375 
L 1800 4375 
L 1800 3725 
z
M 1800 125 
L 1300 125 
L 1300 2925 
L 1800 2925 
L 1800 125 
z
" transform="scale(0.015625)"/>
       <path id="SimHei-6e" d="M 2800 125 
L 2300 125 
L 2300 1925 
Q 2300 2225 2150 2400 
Q 2000 2575 1750 2575 
Q 1425 2575 1137 2237 
Q 850 1900 850 1400 
L 850 125 
L 350 125 
L 350 2925 
L 850 2925 
L 850 2400 
Q 1050 2675 1287 2825 
Q 1525 2975 1900 2975 
Q 2350 2975 2575 2725 
Q 2800 2475 2800 2100 
L 2800 125 
z
" transform="scale(0.015625)"/>
       <path id="SimHei-20" transform="scale(0.015625)"/>
       <path id="SimHei-78" d="M 2875 125 
L 2275 125 
L 1550 1200 
L 825 125 
L 225 125 
L 1250 1550 
L 300 2925 
L 900 2925 
L 1550 1875 
L 2200 2925 
L 2800 2925 
L 1850 1550 
L 2875 125 
z
" transform="scale(0.015625)"/>
      </defs>
      <use xlink:href="#SimHei-73"/>
      <use xlink:href="#SimHei-69" transform="translate(50 0)"/>
      <use xlink:href="#SimHei-6e" transform="translate(100 0)"/>
      <use xlink:href="#SimHei-20" transform="translate(150 0)"/>
      <use xlink:href="#SimHei-78" transform="translate(200 0)"/>
     </g>
    </g>
    <g id="line2d_26">
     <path d="M 43.2 171.821875 
L 53.2 171.821875 
L 63.2 171.821875 
" style="fill: none; stroke: #ff0000; stroke-width: 2; stroke-linecap: square"/>
    </g>
    <g id="text_13">
     <!-- cos x -->
     <g transform="translate(71.2 175.321875) scale(0.1 -0.1)">
      <defs>
       <path id="SimHei-63" d="M 2850 1250 
Q 2850 725 2487 400 
Q 2125 75 1575 75 
Q 1025 75 625 462 
Q 225 850 225 1525 
Q 225 2200 625 2587 
Q 1025 2975 1575 2975 
Q 2125 2975 2450 2687 
Q 2775 2400 2775 2000 
L 2225 2000 
Q 2200 2300 2012 2412 
Q 1825 2525 1575 2525 
Q 1275 2525 1025 2287 
Q 775 2050 775 1525 
Q 775 1000 1025 762 
Q 1275 525 1575 525 
Q 1900 525 2100 700 
Q 2300 875 2300 1250 
L 2850 1250 
z
" transform="scale(0.015625)"/>
       <path id="SimHei-6f" d="M 2925 1525 
Q 2925 875 2525 475 
Q 2125 75 1575 75 
Q 1025 75 625 475 
Q 225 875 225 1525 
Q 225 2175 625 2575 
Q 1025 2975 1575 2975 
Q 2125 2975 2525 2575 
Q 2925 2175 2925 1525 
z
M 2375 1525 
Q 2375 2025 2125 2275 
Q 1875 2525 1575 2525 
Q 1275 2525 1025 2275 
Q 775 2025 775 1525 
Q 775 1025 1025 775 
Q 1275 525 1575 525 
Q 1875 525 2125 775 
Q 2375 1025 2375 1525 
z
" transform="scale(0.015625)"/>
      </defs>
      <use xlink:href="#SimHei-63"/>
      <use xlink:href="#SimHei-6f" transform="translate(50 0)"/>
      <use xlink:href="#SimHei-73" transform="translate(100 0)"/>
      <use xlink:href="#SimHei-20" transform="translate(150 0)"/>
      <use xlink:href="#SimHei-78" transform="translate(200 0)"/>
     </g>
    </g>
   </g>
  </g>
 </g>
 <defs>
  <clipPath id="pb240bb44ae">
   <rect x="34.2" y="22.903125" width="383.42" height="162.66875"/>
  </clipPath>
 </defs>
</svg>
