<?xml version="1.0" encoding="utf-8" standalone="no"?>
<!DOCTYPE svg PUBLIC "-//W3C//DTD SVG 1.1//EN"
  "http://www.w3.org/Graphics/SVG/1.1/DTD/svg11.dtd">
<svg xmlns:xlink="http://www.w3.org/1999/xlink" width="490.253125pt" height="261.316281pt" viewBox="0 0 490.253125 261.316281" xmlns="http://www.w3.org/2000/svg" version="1.1">
 <metadata>
  <rdf:RDF xmlns:dc="http://purl.org/dc/elements/1.1/" xmlns:cc="http://creativecommons.org/ns#" xmlns:rdf="http://www.w3.org/1999/02/22-rdf-syntax-ns#">
   <cc:Work>
    <dc:type rdf:resource="http://purl.org/dc/dcmitype/StillImage"/>
    <dc:date>2026-05-25T15:44:38.314450</dc:date>
    <dc:format>image/svg+xml</dc:format>
    <dc:creator>
     <cc:Agent>
      <dc:title>Matplotlib v3.10.9, https://matplotlib.org/</dc:title>
     </cc:Agent>
    </dc:creator>
   </cc:Work>
  </rdf:RDF>
 </metadata>
 <defs>
  <style type="text/css">*{stroke-linejoin: round; stroke-linecap: butt}</style>
 </defs>
 <g id="figure_1">
  <g id="patch_1">
   <path d="M 0 261.316281 
L 490.253125 261.316281 
L 490.253125 0 
L 0 0 
z
" style="fill: #ffffff"/>
  </g>
  <g id="axes_1">
   <g id="patch_2">
    <path d="M 35.716563 227.941875 
L 454.536563 227.941875 
L 454.536563 23.591875 
L 35.716563 23.591875 
z
" style="fill: #ffffff"/>
   </g>
   <g id="patch_3">
    <path d="M 54.753835 227.941875 
L 82.957202 227.941875 
L 82.957202 140.363304 
L 54.753835 140.363304 
z
" clip-path="url(#paed373f725)" style="fill: #d18080; stroke: #ffffff; stroke-linejoin: miter"/>
   </g>
   <g id="patch_4">
    <path d="M 125.262253 227.941875 
L 153.46562 227.941875 
L 153.46562 96.574018 
L 125.262253 96.574018 
z
" clip-path="url(#paed373f725)" style="fill: #d18080; stroke: #ffffff; stroke-linejoin: miter"/>
   </g>
   <g id="patch_5">
    <path d="M 195.77067 227.941875 
L 223.974037 227.941875 
L 223.974037 52.784732 
L 195.77067 52.784732 
z
" clip-path="url(#paed373f725)" style="fill: #d18080; stroke: #ffffff; stroke-linejoin: miter"/>
   </g>
   <g id="patch_6">
    <path d="M 266.279088 227.941875 
L 294.482455 227.941875 
L 294.482455 67.381161 
L 266.279088 67.381161 
z
" clip-path="url(#paed373f725)" style="fill: #d18080; stroke: #ffffff; stroke-linejoin: miter"/>
   </g>
   <g id="patch_7">
    <path d="M 336.787505 227.941875 
L 364.990872 227.941875 
L 364.990872 81.977589 
L 336.787505 81.977589 
z
" clip-path="url(#paed373f725)" style="fill: #d18080; stroke: #ffffff; stroke-linejoin: miter"/>
   </g>
   <g id="patch_8">
    <path d="M 407.295923 227.941875 
L 435.49929 227.941875 
L 435.49929 125.766875 
L 407.295923 125.766875 
z
" clip-path="url(#paed373f725)" style="fill: #d18080; stroke: #ffffff; stroke-linejoin: miter"/>
   </g>
   <g id="matplotlib.axis_1">
    <g id="xtick_1">
     <g id="line2d_1">
      <defs>
       <path id="mf510f98099" d="M 0 0 
L 0 3.5 
" style="stroke: #000000; stroke-width: 0.8"/>
      </defs>
      <g>
       <use xlink:href="#mf510f98099" x="68.855519" y="227.941875" style="stroke: #000000; stroke-width: 0.8"/>
      </g>
     </g>
     <g id="text_1">
      <!-- 新课收尾 -->
      <g transform="translate(51.855519 241.736563) scale(0.085 -0.085)">
       <defs>
        <path id="MicrosoftYaHei-65b0" d="M 3594 4797 
Q 4888 4809 5981 5053 
L 6144 4572 
Q 4906 4409 4038 4359 
L 4038 2903 
L 6319 2903 
L 6319 2478 
L 5425 2478 
L 5425 -797 
L 4963 -797 
L 4963 2478 
L 4038 2478 
L 4038 2172 
Q 4038 253 3119 -816 
Q 2969 -622 2788 -416 
Q 3594 466 3594 2191 
L 3594 4797 
z
M 263 1991 
L 1538 1991 
L 1538 2584 
L 1988 2584 
L 1988 1991 
L 3213 1991 
L 3213 1591 
L 1988 1591 
L 1988 -41 
Q 1988 -703 1350 -703 
Q 1081 -703 744 -697 
Q 719 -491 675 -222 
Q 1038 -259 1244 -259 
Q 1538 -259 1538 59 
L 1538 1591 
L 263 1591 
L 263 1991 
z
M 88 3159 
L 1094 3159 
Q 828 3581 594 3884 
L 931 4122 
Q 1138 3872 1463 3416 
L 1109 3159 
L 1934 3159 
Q 2275 3650 2563 4128 
L 3006 3878 
Q 2703 3488 2428 3159 
L 3375 3159 
L 3375 2759 
L 88 2759 
L 88 3159 
z
M 288 4609 
L 1638 4609 
Q 1503 4866 1331 5166 
L 1731 5353 
Q 1925 5034 2094 4709 
L 1884 4609 
L 3213 4609 
L 3213 4209 
L 288 4209 
L 288 4609 
z
M 744 1309 
L 1169 1109 
Q 831 403 500 -166 
Q 319 -53 88 59 
Q 394 534 744 1309 
z
M 2544 1278 
Q 2894 803 3156 403 
L 2756 128 
Q 2481 609 2175 1034 
L 2544 1278 
z
" transform="scale(0.015625)"/>
        <path id="MicrosoftYaHei-8bfe" d="M 6325 -3 
Q 6169 -241 6019 -472 
Q 4884 119 4188 1209 
L 4188 -816 
L 3738 -816 
L 3738 1191 
Q 2953 78 1975 -559 
Q 1794 -328 1613 -147 
Q 2766 469 3513 1409 
L 1819 1409 
L 1819 1822 
L 3738 1822 
L 3738 2503 
L 2575 2503 
L 2575 2303 
L 2138 2303 
L 2138 5053 
L 5788 5053 
L 5788 2303 
L 5350 2303 
L 5350 2503 
L 4188 2503 
L 4188 1822 
L 6150 1822 
L 6150 1409 
L 4413 1409 
Q 5184 425 6325 -3 
z
M 2088 747 
Q 1619 334 1275 -3 
Q 1100 -184 963 -353 
L 613 53 
Q 806 234 806 591 
L 806 2778 
L 113 2778 
L 113 3234 
L 1269 3234 
L 1269 634 
Q 1581 909 1969 1284 
Q 2019 1016 2088 747 
z
M 5350 4653 
L 4188 4653 
L 4188 3972 
L 5350 3972 
L 5350 4653 
z
M 4188 2903 
L 5350 2903 
L 5350 3584 
L 4188 3584 
L 4188 2903 
z
M 2575 3972 
L 3738 3972 
L 3738 4653 
L 2575 4653 
L 2575 3972 
z
M 2575 2903 
L 3738 2903 
L 3738 3584 
L 2575 3584 
L 2575 2903 
z
M 800 5178 
Q 1363 4634 1725 4184 
L 1338 3866 
Q 900 4428 469 4884 
L 800 5178 
z
" transform="scale(0.015625)"/>
        <path id="MicrosoftYaHei-6536" d="M 2244 2659 
Q 3044 4047 3400 5341 
L 3906 5197 
Q 3706 4619 3488 4091 
L 6213 4091 
L 6213 3628 
L 5478 3628 
Q 5384 1819 4550 681 
Q 5184 119 6350 -297 
Q 6156 -541 5994 -797 
Q 4881 -322 4219 300 
Q 3616 -294 2550 -853 
Q 2419 -647 2231 -434 
Q 3297 100 3878 672 
Q 3156 1575 2944 2916 
Q 2769 2575 2581 2259 
Q 2463 2441 2244 2659 
z
M 1681 5291 
L 2156 5291 
L 2156 -816 
L 1681 -816 
L 1681 1113 
Q 1300 900 906 641 
Q 744 522 588 359 
L 231 778 
Q 425 984 425 1316 
L 425 4416 
L 900 4416 
L 900 1216 
Q 1272 1413 1681 1634 
L 1681 5291 
z
M 4984 3628 
L 3322 3628 
Q 3413 2103 4203 1059 
Q 4916 2063 4984 3628 
z
" transform="scale(0.015625)"/>
        <path id="MicrosoftYaHei-5c3e" d="M 1225 2328 
Q 1225 209 406 -872 
Q 256 -666 50 -447 
Q 725 459 725 2316 
L 725 4997 
L 5769 4997 
L 5769 3284 
L 5281 3284 
L 5281 3434 
L 1225 3434 
L 1225 2328 
z
M 1275 784 
L 3094 922 
L 3094 1491 
L 1488 1372 
L 1419 1797 
L 3094 1919 
L 3094 2484 
Q 2322 2422 1550 2372 
Q 1500 2559 1413 2797 
Q 3606 2916 5444 3147 
L 5588 2734 
Q 4584 2619 3581 2528 
L 3581 1956 
L 5744 2116 
L 5800 1697 
L 3581 1528 
L 3581 959 
L 6144 1153 
L 6200 734 
L 3581 531 
L 3581 359 
Q 3581 -191 4075 -191 
L 5244 -191 
Q 5650 -191 5719 141 
Q 5769 359 5800 616 
Q 5963 553 6281 453 
Q 6231 166 6169 -53 
Q 6044 -647 5375 -647 
L 3956 -647 
Q 3094 -647 3094 284 
L 3094 494 
L 1344 359 
L 1275 784 
z
M 5281 4559 
L 1225 4559 
L 1225 3872 
L 5281 3872 
L 5281 4559 
z
" transform="scale(0.015625)"/>
       </defs>
       <use xlink:href="#MicrosoftYaHei-65b0"/>
       <use xlink:href="#MicrosoftYaHei-8bfe" transform="translate(100 0)"/>
       <use xlink:href="#MicrosoftYaHei-6536" transform="translate(200 0)"/>
       <use xlink:href="#MicrosoftYaHei-5c3e" transform="translate(300 0)"/>
      </g>
      <!-- 9-10月 -->
      <g transform="translate(55.29005 252.003234) scale(0.085 -0.085)">
       <defs>
        <path id="MicrosoftYaHei-39" d="M 578 656 
Q 978 425 1441 425 
Q 2091 425 2448 937 
Q 2806 1450 2806 2394 
Q 2800 2388 2794 2394 
Q 2475 1788 1722 1788 
Q 1113 1788 713 2206 
Q 313 2625 313 3294 
Q 313 4006 750 4464 
Q 1188 4922 1884 4922 
Q 2606 4922 3012 4355 
Q 3419 3788 3419 2703 
Q 3419 1363 2894 641 
Q 2369 -81 1441 -81 
Q 931 -81 578 84 
L 578 656 
z
M 931 3372 
Q 931 2884 1181 2598 
Q 1431 2313 1872 2313 
Q 2253 2313 2512 2573 
Q 2772 2834 2772 3206 
Q 2772 3728 2514 4070 
Q 2256 4413 1834 4413 
Q 1444 4413 1187 4116 
Q 931 3819 931 3372 
z
" transform="scale(0.015625)"/>
        <path id="MicrosoftYaHei-2d" d="M 2328 1681 
L 488 1681 
L 488 2153 
L 2328 2153 
L 2328 1681 
z
" transform="scale(0.015625)"/>
        <path id="MicrosoftYaHei-31" d="M 1781 0 
L 1781 4141 
Q 1638 3997 1295 3819 
Q 953 3641 663 3569 
L 663 4169 
Q 1047 4275 1484 4508 
Q 1922 4741 2156 4947 
L 2388 4947 
L 2388 0 
L 1781 0 
z
" transform="scale(0.015625)"/>
        <path id="MicrosoftYaHei-30" d="M 284 2325 
Q 284 3606 709 4264 
Q 1134 4922 1941 4922 
Q 3478 4922 3478 2441 
Q 3478 1216 3045 567 
Q 2613 -81 1831 -81 
Q 1094 -81 689 534 
Q 284 1150 284 2325 
z
M 909 2353 
Q 909 425 1888 425 
Q 2850 425 2850 2384 
Q 2850 4413 1906 4413 
Q 909 4413 909 2353 
z
" transform="scale(0.015625)"/>
        <path id="MicrosoftYaHei-6708" d="M 1603 1284 
Q 1463 78 663 -897 
Q 463 -703 231 -522 
Q 838 134 1044 1041 
Q 1188 1709 1188 2891 
L 1188 5053 
L 5363 5053 
L 5363 178 
Q 5363 -747 4481 -747 
Q 4113 -747 3531 -734 
Q 3500 -509 3438 -209 
Q 4013 -247 4344 -247 
Q 4850 -247 4850 247 
L 4850 1284 
L 1603 1284 
z
M 1653 1741 
L 4850 1741 
L 4850 2941 
L 1700 2941 
Q 1700 2316 1653 1741 
z
M 1700 4584 
L 1700 3397 
L 4850 3397 
L 4850 4584 
L 1700 4584 
z
" transform="scale(0.015625)"/>
       </defs>
       <use xlink:href="#MicrosoftYaHei-39"/>
       <use xlink:href="#MicrosoftYaHei-2d" transform="translate(58.642578 0)"/>
       <use xlink:href="#MicrosoftYaHei-31" transform="translate(101.904297 0)"/>
       <use xlink:href="#MicrosoftYaHei-30" transform="translate(160.546875 0)"/>
       <use xlink:href="#MicrosoftYaHei-6708" transform="translate(219.189453 0)"/>
      </g>
     </g>
    </g>
    <g id="xtick_2">
     <g id="line2d_2">
      <g>
       <use xlink:href="#mf510f98099" x="139.363936" y="227.941875" style="stroke: #000000; stroke-width: 0.8"/>
      </g>
     </g>
     <g id="text_2">
      <!-- 一轮复习 -->
      <g transform="translate(122.363936 241.736563) scale(0.085 -0.085)">
       <defs>
        <path id="MicrosoftYaHei-4e00" d="M 100 2703 
L 6313 2703 
L 6313 2153 
L 100 2153 
L 100 2703 
z
" transform="scale(0.015625)"/>
        <path id="MicrosoftYaHei-8f6e" d="M 688 2228 
L 1438 2228 
L 1438 3597 
L 1888 3597 
L 1888 2228 
L 2688 2228 
L 2688 1803 
L 1888 1803 
L 1888 959 
Q 2344 1016 2763 1078 
Q 2756 922 2744 616 
Q 2313 566 1888 516 
L 1888 -866 
L 1438 -866 
L 1438 466 
Q 781 384 138 303 
L 88 772 
Q 794 834 1438 909 
L 1438 1803 
L 225 1803 
L 225 2197 
Q 550 3116 800 3916 
L 156 3916 
L 156 4341 
L 925 4341 
Q 1081 4859 1194 5322 
L 1675 5216 
Q 1538 4766 1400 4341 
L 2781 4341 
L 2781 3916 
L 1263 3916 
Q 975 3028 688 2228 
z
M 3163 2891 
L 3638 2891 
L 3638 1509 
Q 4456 1984 5150 2653 
L 5544 2359 
Q 4588 1484 3638 997 
L 3638 191 
Q 3638 -197 4075 -197 
L 4925 -197 
Q 5363 -197 5425 178 
Q 5494 584 5525 1097 
Q 5575 1078 5994 916 
Q 5956 441 5881 28 
Q 5775 -653 5013 -653 
L 3925 -653 
Q 3163 -653 3163 72 
L 3163 2891 
z
M 4656 5259 
L 4544 5072 
Q 5244 3722 6313 3178 
Q 6113 2953 5975 2766 
Q 4975 3359 4250 4622 
Q 3531 3422 2625 2697 
Q 2475 2891 2288 3059 
Q 3406 3897 4044 5259 
L 4656 5259 
z
" transform="scale(0.015625)"/>
        <path id="MicrosoftYaHei-590d" d="M 81 3559 
Q 975 4259 1563 5347 
L 2113 5347 
Q 1963 5084 1803 4841 
L 6200 4841 
L 6200 4441 
L 1525 4441 
Q 1356 4209 1175 3997 
L 5575 3997 
L 5575 1697 
L 5138 1697 
L 5138 1859 
L 1463 1859 
L 1463 1634 
L 1031 1634 
L 1031 3828 
Q 716 3475 369 3166 
Q 263 3347 81 3559 
z
M 81 291 
Q 1231 853 1931 1709 
L 2488 1709 
Q 2350 1534 2206 1372 
L 5588 1372 
L 5588 1034 
Q 4981 494 4038 69 
Q 5016 -188 6319 -284 
Q 6150 -566 6025 -797 
Q 4503 -584 3416 -175 
Q 2303 -563 725 -872 
Q 606 -666 438 -447 
Q 1988 -191 2856 59 
Q 2153 397 1678 838 
Q 1084 303 388 -53 
Q 250 128 81 291 
z
M 1463 2247 
L 5138 2247 
L 5138 2747 
L 1463 2747 
L 1463 2247 
z
M 5138 3609 
L 1463 3609 
L 1463 3116 
L 5138 3116 
L 5138 3609 
z
M 4869 1009 
L 2025 1009 
Q 2572 553 3428 253 
Q 4297 591 4869 1009 
z
" transform="scale(0.015625)"/>
        <path id="MicrosoftYaHei-4e60" d="M 500 4803 
L 5725 4803 
Q 5663 1853 5606 784 
Q 5550 -616 4181 -616 
Q 3644 -616 3013 -591 
Q 2988 -347 2913 -9 
Q 3713 -66 4113 -66 
Q 4631 -72 4850 153 
Q 5056 378 5081 916 
Q 5144 2416 5169 4291 
L 500 4291 
L 500 4803 
z
M 363 834 
Q 2856 1591 4688 2253 
Q 4669 1834 4688 1709 
Q 2513 978 556 297 
L 363 834 
z
M 1131 3372 
L 1400 3778 
Q 2713 3203 3563 2766 
L 3275 2291 
Q 2069 2947 1131 3372 
z
" transform="scale(0.015625)"/>
       </defs>
       <use xlink:href="#MicrosoftYaHei-4e00"/>
       <use xlink:href="#MicrosoftYaHei-8f6e" transform="translate(100 0)"/>
       <use xlink:href="#MicrosoftYaHei-590d" transform="translate(200 0)"/>
       <use xlink:href="#MicrosoftYaHei-4e60" transform="translate(300 0)"/>
      </g>
      <!-- 11-1月 -->
      <g transform="translate(125.798467 252.003234) scale(0.085 -0.085)">
       <use xlink:href="#MicrosoftYaHei-31"/>
       <use xlink:href="#MicrosoftYaHei-31" transform="translate(58.642578 0)"/>
       <use xlink:href="#MicrosoftYaHei-2d" transform="translate(117.285156 0)"/>
       <use xlink:href="#MicrosoftYaHei-31" transform="translate(160.546875 0)"/>
       <use xlink:href="#MicrosoftYaHei-6708" transform="translate(219.189453 0)"/>
      </g>
     </g>
    </g>
    <g id="xtick_3">
     <g id="line2d_3">
      <g>
       <use xlink:href="#mf510f98099" x="209.872354" y="227.941875" style="stroke: #000000; stroke-width: 0.8"/>
      </g>
     </g>
     <g id="text_3">
      <!-- 寒假 -->
      <g transform="translate(201.372354 241.736563) scale(0.085 -0.085)">
       <defs>
        <path id="MicrosoftYaHei-5bd2" d="M 6294 409 
Q 6113 203 5956 -9 
Q 4597 497 3853 1459 
L 2556 1459 
Q 1716 553 425 -103 
Q 281 97 100 284 
Q 1200 744 2003 1459 
L 288 1459 
L 288 1853 
L 2013 1853 
L 2013 2378 
L 738 2378 
L 738 2772 
L 2013 2772 
L 2013 3297 
L 600 3297 
L 600 3691 
L 2013 3691 
L 2013 4128 
L 2463 4128 
L 2463 3691 
L 3938 3691 
L 3938 4128 
L 4388 4128 
L 4388 3691 
L 5825 3691 
L 5825 3297 
L 4388 3297 
L 4388 2772 
L 5681 2772 
L 5681 2378 
L 4388 2378 
L 4388 1853 
L 6113 1853 
L 6113 1459 
L 4347 1459 
Q 5056 747 6294 409 
z
M 350 4722 
L 3034 4722 
Q 2913 4938 2769 5153 
L 3225 5366 
Q 3444 5047 3619 4722 
L 6069 4722 
L 6069 3797 
L 5606 3797 
L 5606 4309 
L 813 4309 
L 813 3797 
L 350 3797 
L 350 4722 
z
M 1613 -147 
L 1781 234 
Q 3113 -34 4813 -453 
L 4600 -866 
Q 2963 -441 1613 -147 
z
M 2263 691 
L 2425 1084 
Q 3231 922 4394 666 
L 4225 253 
Q 3281 491 2263 691 
z
M 2463 1853 
L 3938 1853 
L 3938 2378 
L 2463 2378 
L 2463 1853 
z
M 2463 2772 
L 3938 2772 
L 3938 3297 
L 2463 3297 
L 2463 2772 
z
" transform="scale(0.015625)"/>
        <path id="MicrosoftYaHei-5047" d="M 3763 4953 
L 3763 2841 
L 3325 2841 
L 3325 3034 
L 2319 3034 
L 2319 2247 
L 3625 2247 
L 3625 1847 
L 2319 1847 
L 2319 1047 
L 3706 1047 
L 3706 647 
L 2319 647 
L 2319 -847 
L 1856 -847 
L 1856 4953 
L 3763 4953 
z
M 3756 2109 
L 3756 2497 
L 5963 2497 
L 5963 2122 
Q 5763 1094 5191 369 
Q 5663 -106 6381 -378 
Q 6138 -659 6031 -816 
Q 5350 -463 4888 34 
Q 4309 -531 3450 -872 
Q 3325 -684 3156 -472 
Q 4044 -159 4606 375 
Q 4081 1109 3941 2109 
L 3756 2109 
z
M 63 2247 
Q 863 3666 1175 5316 
L 1638 5228 
Q 1478 4528 1256 3881 
L 1256 -859 
L 819 -859 
L 819 2788 
Q 566 2244 263 1741 
Q 181 1984 63 2247 
z
M 3969 3447 
L 5475 3447 
L 5475 4559 
L 4006 4559 
L 4006 4959 
L 5913 4959 
L 5913 2809 
L 5475 2809 
L 5475 3047 
L 3969 3047 
L 3969 3447 
z
M 3325 4553 
L 2319 4553 
L 2319 3434 
L 3325 3434 
L 3325 4553 
z
M 5513 2109 
L 4350 2109 
Q 4484 1288 4903 703 
Q 5366 1297 5513 2109 
z
" transform="scale(0.015625)"/>
       </defs>
       <use xlink:href="#MicrosoftYaHei-5bd2"/>
       <use xlink:href="#MicrosoftYaHei-5047" transform="translate(100 0)"/>
      </g>
      <!-- 1-2月 -->
      <g transform="translate(198.799112 252.003234) scale(0.085 -0.085)">
       <defs>
        <path id="MicrosoftYaHei-32" d="M 2666 3572 
Q 2666 3963 2419 4186 
Q 2172 4409 1747 4409 
Q 1447 4409 1140 4256 
Q 834 4103 569 3819 
L 569 4413 
Q 806 4659 1107 4790 
Q 1409 4922 1816 4922 
Q 2472 4922 2872 4570 
Q 3272 4219 3272 3619 
Q 3272 3084 3026 2693 
Q 2781 2303 2188 1894 
Q 1581 1475 1376 1294 
Q 1172 1113 1090 947 
Q 1009 781 1009 544 
L 3416 544 
L 3416 0 
L 372 0 
L 372 241 
Q 372 659 486 951 
Q 600 1244 862 1520 
Q 1125 1797 1681 2184 
Q 2250 2584 2458 2886 
Q 2666 3188 2666 3572 
z
" transform="scale(0.015625)"/>
       </defs>
       <use xlink:href="#MicrosoftYaHei-31"/>
       <use xlink:href="#MicrosoftYaHei-2d" transform="translate(58.642578 0)"/>
       <use xlink:href="#MicrosoftYaHei-32" transform="translate(101.904297 0)"/>
       <use xlink:href="#MicrosoftYaHei-6708" transform="translate(160.546875 0)"/>
      </g>
     </g>
    </g>
    <g id="xtick_4">
     <g id="line2d_4">
      <g>
       <use xlink:href="#mf510f98099" x="280.380771" y="227.941875" style="stroke: #000000; stroke-width: 0.8"/>
      </g>
     </g>
     <g id="text_4">
      <!-- 二轮专题 -->
      <g transform="translate(263.380771 241.736563) scale(0.085 -0.085)">
       <defs>
        <path id="MicrosoftYaHei-4e8c" d="M 650 4516 
L 5750 4516 
L 5750 3978 
L 650 3978 
L 650 4516 
z
M 188 422 
L 6194 422 
L 6194 -103 
L 188 -103 
L 188 422 
z
" transform="scale(0.015625)"/>
        <path id="MicrosoftYaHei-4e13" d="M 1644 1041 
Q 2472 672 3431 219 
L 4844 1441 
L 1344 1441 
L 1344 1903 
L 1647 2678 
L 156 2678 
L 156 3153 
L 1834 3153 
L 2172 4009 
L 538 4009 
L 538 4484 
L 2359 4484 
L 2688 5316 
L 3256 5316 
L 2928 4484 
L 5888 4484 
L 5888 4009 
L 2741 4009 
L 2403 3153 
L 6288 3153 
L 6288 2678 
L 2216 2678 
L 1913 1909 
L 5556 1909 
L 5556 1422 
L 3894 0 
Q 4313 -200 4756 -416 
L 4450 -891 
Q 2881 -66 1381 622 
L 1644 1041 
z
" transform="scale(0.015625)"/>
        <path id="MicrosoftYaHei-9898" d="M 88 -291 
Q 544 328 581 1622 
L 1013 1622 
Q 994 1234 950 884 
Q 1181 466 1538 209 
L 1538 1916 
L 138 1916 
L 138 2322 
L 3025 2322 
L 3025 1916 
L 1950 1916 
L 1950 1253 
L 2956 1253 
L 2956 847 
L 1950 847 
L 1950 -16 
Q 2369 -184 2906 -197 
Q 4006 -266 6300 -166 
Q 6231 -372 6125 -659 
Q 3888 -716 2906 -634 
Q 1513 -597 850 347 
Q 688 -359 363 -878 
Q 238 -584 88 -291 
z
M 525 5041 
L 2725 5041 
L 2725 2634 
L 2313 2634 
L 2313 2828 
L 938 2828 
L 938 2634 
L 525 2634 
L 525 5041 
z
M 3263 3878 
L 4169 3878 
Q 4231 4247 4275 4591 
L 3031 4591 
L 3031 4997 
L 6169 4997 
L 6169 4591 
L 4738 4591 
Q 4681 4222 4613 3878 
L 5838 3878 
L 5838 1228 
L 5425 1228 
L 5425 3472 
L 3675 3472 
L 3675 1228 
L 3263 1228 
L 3263 3878 
z
M 4344 3203 
L 4756 3203 
L 4756 2422 
Q 4756 1809 4631 1372 
Q 5594 678 6050 284 
L 5713 -47 
Q 5213 422 4481 972 
Q 4444 903 4406 841 
Q 4031 241 3131 -109 
Q 2988 72 2794 259 
Q 3669 547 4006 1028 
Q 4344 1503 4344 2441 
L 4344 3203 
z
M 938 3203 
L 2313 3203 
L 2313 3753 
L 938 3753 
L 938 3203 
z
M 2313 4666 
L 938 4666 
L 938 4122 
L 2313 4122 
L 2313 4666 
z
" transform="scale(0.015625)"/>
       </defs>
       <use xlink:href="#MicrosoftYaHei-4e8c"/>
       <use xlink:href="#MicrosoftYaHei-8f6e" transform="translate(100 0)"/>
       <use xlink:href="#MicrosoftYaHei-4e13" transform="translate(200 0)"/>
       <use xlink:href="#MicrosoftYaHei-9898" transform="translate(300 0)"/>
      </g>
      <!-- 3-4月 -->
      <g transform="translate(269.307529 252.003234) scale(0.085 -0.085)">
       <defs>
        <path id="MicrosoftYaHei-33" d="M 447 809 
Q 944 425 1569 425 
Q 2069 425 2361 670 
Q 2653 916 2653 1328 
Q 2653 2247 1338 2247 
L 934 2247 
L 934 2753 
L 1319 2753 
Q 2484 2753 2484 3616 
Q 2484 4413 1594 4413 
Q 1084 4413 634 4069 
L 634 4647 
Q 1109 4922 1744 4922 
Q 2363 4922 2738 4598 
Q 3113 4275 3113 3759 
Q 3113 2809 2144 2538 
L 2144 2525 
Q 2669 2469 2973 2155 
Q 3278 1841 3278 1372 
Q 3278 719 2808 319 
Q 2338 -81 1556 -81 
Q 869 -81 447 175 
L 447 809 
z
" transform="scale(0.015625)"/>
        <path id="MicrosoftYaHei-34" d="M 2906 4841 
L 2906 1644 
L 3631 1644 
L 3631 1138 
L 2906 1138 
L 2906 0 
L 2313 0 
L 2313 1138 
L 53 1138 
L 53 1616 
Q 656 2294 1265 3178 
Q 1875 4063 2272 4841 
L 2906 4841 
z
M 741 1644 
L 2313 1644 
L 2313 3950 
Q 1988 3366 1616 2817 
Q 1244 2269 741 1644 
z
" transform="scale(0.015625)"/>
       </defs>
       <use xlink:href="#MicrosoftYaHei-33"/>
       <use xlink:href="#MicrosoftYaHei-2d" transform="translate(58.642578 0)"/>
       <use xlink:href="#MicrosoftYaHei-34" transform="translate(101.904297 0)"/>
       <use xlink:href="#MicrosoftYaHei-6708" transform="translate(160.546875 0)"/>
      </g>
     </g>
    </g>
    <g id="xtick_5">
     <g id="line2d_5">
      <g>
       <use xlink:href="#mf510f98099" x="350.889189" y="227.941875" style="stroke: #000000; stroke-width: 0.8"/>
      </g>
     </g>
     <g id="text_5">
      <!-- 三轮模拟 -->
      <g transform="translate(333.889189 241.736563) scale(0.085 -0.085)">
       <defs>
        <path id="MicrosoftYaHei-4e09" d="M 575 4691 
L 5813 4691 
L 5813 4153 
L 575 4153 
L 575 4691 
z
M 188 166 
L 6225 166 
L 6225 -359 
L 188 -359 
L 188 166 
z
M 856 2547 
L 5531 2547 
L 5531 2016 
L 856 2016 
L 856 2547 
z
" transform="scale(0.015625)"/>
        <path id="MicrosoftYaHei-6a21" d="M 2050 984 
L 3859 984 
Q 3900 1213 3913 1547 
L 2950 1547 
L 2950 1372 
L 2500 1372 
L 2500 3634 
L 5844 3634 
L 5844 1372 
L 5394 1372 
L 5394 1547 
L 4344 1547 
Q 4325 1203 4288 984 
L 6250 984 
L 6250 584 
L 4525 584 
Q 5203 -175 6319 -341 
Q 6144 -572 6013 -809 
Q 4803 -456 4128 466 
Q 3681 -431 2075 -847 
Q 1969 -628 1831 -416 
Q 3303 -106 3713 584 
L 2050 584 
L 2050 984 
z
M 63 1409 
Q 603 2316 922 3509 
L 138 3509 
L 138 3922 
L 1006 3922 
L 1006 5309 
L 1444 5309 
L 1444 3922 
L 2256 3922 
L 2256 3509 
L 1444 3509 
L 1444 2684 
L 1688 2884 
Q 2044 2503 2350 2116 
L 2006 1828 
Q 1719 2244 1444 2563 
L 1444 -822 
L 1006 -822 
L 1006 2581 
Q 672 1438 275 859 
Q 188 1128 63 1409 
z
M 4713 5303 
L 5150 5303 
L 5150 4703 
L 6225 4703 
L 6225 4303 
L 5150 4303 
L 5150 3797 
L 4713 3797 
L 4713 4303 
L 3600 4303 
L 3600 3797 
L 3163 3797 
L 3163 4303 
L 2175 4303 
L 2175 4703 
L 3163 4703 
L 3163 5309 
L 3600 5309 
L 3600 4703 
L 4713 4703 
L 4713 5303 
z
M 5394 3247 
L 2950 3247 
L 2950 2778 
L 5394 2778 
L 5394 3247 
z
M 2950 1934 
L 5394 1934 
L 5394 2403 
L 2950 2403 
L 2950 1934 
z
" transform="scale(0.015625)"/>
        <path id="MicrosoftYaHei-62df" d="M 81 1991 
Q 459 2091 925 2234 
L 925 3647 
L 150 3647 
L 150 4066 
L 925 4066 
L 925 5272 
L 1400 5272 
L 1400 4066 
L 2131 4066 
L 2131 3647 
L 1400 3647 
L 1400 2384 
Q 1756 2500 2156 2634 
Q 2144 2328 2144 2153 
Q 1775 2034 1400 1906 
L 1400 -97 
Q 1400 -722 856 -747 
Q 556 -759 231 -753 
Q 200 -522 150 -234 
Q 456 -272 656 -272 
Q 925 -272 925 9 
L 925 1744 
Q 541 1613 150 1472 
L 81 1991 
z
M 5000 5216 
L 5475 5216 
Q 5463 4141 5444 3341 
Q 5403 1831 5119 1044 
Q 5797 278 6325 -391 
L 5906 -734 
Q 5425 -66 4900 588 
Q 4397 -263 3375 -872 
Q 3219 -659 3031 -478 
Q 4206 184 4644 1184 
Q 4938 1916 4963 3347 
Q 4988 4284 5000 5216 
z
M 3838 1878 
Q 3900 1616 4000 1391 
Q 3444 884 2850 316 
Q 2706 172 2563 -41 
L 2238 372 
Q 2431 597 2431 947 
L 2431 4797 
L 2906 4797 
L 2906 991 
Q 3256 1297 3838 1878 
z
M 3213 5147 
L 3619 5353 
Q 4088 4516 4425 3816 
L 3988 3572 
Q 3563 4497 3213 5147 
z
" transform="scale(0.015625)"/>
       </defs>
       <use xlink:href="#MicrosoftYaHei-4e09"/>
       <use xlink:href="#MicrosoftYaHei-8f6e" transform="translate(100 0)"/>
       <use xlink:href="#MicrosoftYaHei-6a21" transform="translate(200 0)"/>
       <use xlink:href="#MicrosoftYaHei-62df" transform="translate(300 0)"/>
      </g>
      <!-- 4-5月 -->
      <g transform="translate(339.815947 252.003234) scale(0.085 -0.085)">
       <defs>
        <path id="MicrosoftYaHei-35" d="M 3294 1494 
Q 3294 784 2823 350 
Q 2353 -84 1559 -84 
Q 878 -84 544 119 
L 544 744 
Q 1034 425 1544 425 
Q 2050 425 2361 704 
Q 2672 984 2672 1447 
Q 2672 1909 2348 2167 
Q 2025 2425 1434 2425 
Q 978 2425 613 2384 
L 791 4841 
L 3053 4841 
L 3053 4303 
L 1306 4303 
L 1206 2931 
L 1647 2950 
Q 2416 2950 2855 2567 
Q 3294 2184 3294 1494 
z
" transform="scale(0.015625)"/>
       </defs>
       <use xlink:href="#MicrosoftYaHei-34"/>
       <use xlink:href="#MicrosoftYaHei-2d" transform="translate(58.642578 0)"/>
       <use xlink:href="#MicrosoftYaHei-35" transform="translate(101.904297 0)"/>
       <use xlink:href="#MicrosoftYaHei-6708" transform="translate(160.546875 0)"/>
      </g>
     </g>
    </g>
    <g id="xtick_6">
     <g id="line2d_6">
      <g>
       <use xlink:href="#mf510f98099" x="421.397606" y="227.941875" style="stroke: #000000; stroke-width: 0.8"/>
      </g>
     </g>
     <g id="text_6">
      <!-- 考前调整 -->
      <g transform="translate(404.397606 241.736563) scale(0.085 -0.085)">
       <defs>
        <path id="MicrosoftYaHei-8003" d="M 225 3334 
L 2413 3334 
L 2413 4128 
L 738 4128 
L 738 4553 
L 2413 4553 
L 2413 5303 
L 2900 5303 
L 2900 4553 
L 4213 4553 
L 4213 4128 
L 2900 4128 
L 2900 3334 
L 3534 3334 
Q 4500 4041 5325 4884 
L 5706 4559 
Q 5000 3900 4278 3334 
L 6200 3334 
L 6200 2903 
L 3709 2903 
Q 3350 2641 2991 2403 
L 5769 2403 
L 5769 1978 
L 2859 1978 
L 2594 1428 
L 5100 1428 
Q 4975 366 4919 128 
Q 4775 -678 3931 -678 
Q 3300 -678 2563 -653 
Q 2519 -384 2431 -109 
Q 3181 -172 3838 -172 
Q 4325 -172 4431 253 
Q 4488 484 4556 1003 
L 2100 1003 
L 2100 1428 
L 2378 1978 
L 2316 1978 
Q 1353 1403 369 984 
Q 231 1222 69 1434 
Q 1606 2053 2906 2903 
L 225 2903 
L 225 3334 
z
" transform="scale(0.015625)"/>
        <path id="MicrosoftYaHei-524d" d="M 1038 -841 
L 563 -841 
L 563 3322 
L 3300 3322 
L 3300 -172 
Q 3300 -784 2669 -772 
Q 2406 -772 1950 -759 
Q 1913 -516 1856 -297 
Q 2238 -328 2563 -328 
Q 2825 -334 2825 -72 
L 2825 722 
L 1038 722 
L 1038 -841 
z
M 150 4372 
L 2169 4372 
Q 1963 4697 1644 5078 
L 2038 5347 
Q 2425 4916 2663 4578 
L 2353 4372 
L 4063 4372 
L 3813 4509 
Q 4144 4916 4388 5359 
L 4863 5084 
Q 4575 4691 4284 4372 
L 6263 4372 
L 6263 3934 
L 150 3934 
L 150 4372 
z
M 5331 3522 
L 5819 3522 
L 5819 28 
Q 5819 -741 5094 -747 
Q 4763 -753 4269 -741 
Q 4238 -484 4181 -216 
Q 4644 -266 4931 -266 
Q 5331 -266 5331 141 
L 5331 3522 
z
M 4044 3222 
L 4519 3222 
L 4519 409 
L 4044 409 
L 4044 3222 
z
M 2825 2897 
L 1038 2897 
L 1038 2228 
L 2825 2228 
L 2825 2897 
z
M 1038 1141 
L 2825 1141 
L 2825 1809 
L 1038 1809 
L 1038 1141 
z
" transform="scale(0.015625)"/>
        <path id="MicrosoftYaHei-8c03" d="M 2600 4509 
L 2600 1941 
Q 2600 109 1606 -841 
Q 1450 -616 1281 -441 
Q 2144 384 2144 1891 
L 2144 4934 
L 5994 4934 
L 5994 -66 
Q 5994 -759 5356 -759 
Q 4988 -759 4369 -741 
Q 4338 -509 4275 -259 
Q 4938 -303 5225 -303 
Q 5538 -303 5538 28 
L 5538 4509 
L 2600 4509 
z
M 3081 1884 
L 4994 1884 
L 4994 291 
L 3519 291 
L 3519 3 
L 3081 3 
L 3081 1884 
z
M 2794 2791 
L 3844 2791 
L 3844 3366 
L 2969 3366 
L 2969 3766 
L 3844 3766 
L 3844 4359 
L 4294 4359 
L 4294 3766 
L 5156 3766 
L 5156 3366 
L 4294 3366 
L 4294 2791 
L 5344 2791 
L 5344 2391 
L 2794 2391 
L 2794 2791 
z
M 1944 1466 
Q 1956 1184 1988 922 
Q 1338 447 863 28 
L 575 434 
Q 781 659 781 997 
L 781 2903 
L 100 2903 
L 100 3341 
L 1238 3341 
L 1238 909 
Q 1569 1153 1944 1466 
z
M 4556 1484 
L 3519 1484 
L 3519 691 
L 4556 691 
L 4556 1484 
z
M 863 5197 
Q 1281 4784 1800 4216 
L 1388 3866 
Q 900 4484 506 4897 
L 863 5197 
z
" transform="scale(0.015625)"/>
        <path id="MicrosoftYaHei-6574" d="M 138 -234 
L 1263 -234 
L 1263 891 
L 1713 891 
L 1713 -234 
L 3025 -234 
L 3025 1178 
L 550 1178 
L 550 1578 
L 5800 1578 
L 5800 1178 
L 3475 1178 
L 3475 697 
L 5525 697 
L 5525 297 
L 3475 297 
L 3475 -234 
L 6256 -234 
L 6256 -634 
L 138 -634 
L 138 -234 
z
M 25 2003 
Q 825 2334 1481 2916 
L 913 2916 
L 913 2759 
L 506 2759 
L 506 4109 
L 1650 4109 
L 1650 4491 
L 250 4491 
L 250 4866 
L 1650 4866 
L 1650 5291 
L 2069 5291 
L 2069 4866 
L 3425 4866 
L 3425 4491 
L 2069 4491 
L 2069 4109 
L 3213 4109 
L 3213 2759 
L 2806 2759 
L 2806 2916 
L 2069 2916 
L 2069 2541 
L 2225 2747 
Q 2781 2484 3288 2216 
L 3075 1872 
Q 2550 2184 2069 2397 
L 2069 1722 
L 1650 1722 
L 1650 2647 
Q 1075 2078 288 1647 
Q 175 1803 25 2003 
z
M 3363 2078 
Q 4050 2341 4519 2716 
Q 4144 3134 3938 3716 
Q 3788 3447 3631 3197 
L 3256 3459 
Q 3850 4253 4163 5322 
L 4600 5191 
Q 4481 4872 4356 4572 
L 6263 4572 
L 6263 4172 
L 5850 4172 
Q 5644 3316 5181 2741 
Q 5638 2428 6325 2247 
Q 6169 2047 6013 1778 
Q 5319 2034 4844 2403 
Q 4363 1984 3650 1678 
Q 3525 1859 3363 2078 
z
M 5400 4172 
L 4219 4172 
Q 4394 3484 4838 3022 
Q 5244 3503 5400 4172 
z
M 2806 3266 
L 2806 3759 
L 2069 3759 
L 2069 3266 
L 2806 3266 
z
M 913 3266 
L 1650 3266 
L 1650 3759 
L 913 3759 
L 913 3266 
z
" transform="scale(0.015625)"/>
       </defs>
       <use xlink:href="#MicrosoftYaHei-8003"/>
       <use xlink:href="#MicrosoftYaHei-524d" transform="translate(100 0)"/>
       <use xlink:href="#MicrosoftYaHei-8c03" transform="translate(200 0)"/>
       <use xlink:href="#MicrosoftYaHei-6574" transform="translate(300 0)"/>
      </g>
      <!-- 5-6月 -->
      <g transform="translate(410.324364 252.003234) scale(0.085 -0.085)">
       <defs>
        <path id="MicrosoftYaHei-36" d="M 3181 4219 
Q 2803 4413 2391 4413 
Q 1763 4413 1381 3866 
Q 1000 3319 994 2372 
L 1009 2372 
Q 1353 3038 2106 3038 
Q 2734 3038 3109 2628 
Q 3484 2219 3484 1541 
Q 3484 831 3051 375 
Q 2619 -81 1947 -81 
Q 1209 -81 789 495 
Q 369 1072 369 2131 
Q 369 3413 920 4167 
Q 1472 4922 2372 4922 
Q 2888 4922 3181 4781 
L 3181 4219 
z
M 1031 1584 
Q 1031 1106 1286 765 
Q 1541 425 1963 425 
Q 2363 425 2613 719 
Q 2863 1013 2863 1475 
Q 2863 1975 2627 2253 
Q 2391 2531 1956 2531 
Q 1544 2531 1287 2250 
Q 1031 1969 1031 1584 
z
" transform="scale(0.015625)"/>
       </defs>
       <use xlink:href="#MicrosoftYaHei-35"/>
       <use xlink:href="#MicrosoftYaHei-2d" transform="translate(58.642578 0)"/>
       <use xlink:href="#MicrosoftYaHei-36" transform="translate(101.904297 0)"/>
       <use xlink:href="#MicrosoftYaHei-6708" transform="translate(160.546875 0)"/>
      </g>
     </g>
    </g>
   </g>
   <g id="matplotlib.axis_2">
    <g id="ytick_1">
     <g id="line2d_7">
      <defs>
       <path id="m8d5fd5b738" d="M 0 0 
L -3.5 0 
" style="stroke: #000000; stroke-width: 0.8"/>
      </defs>
      <g>
       <use xlink:href="#m8d5fd5b738" x="35.716563" y="227.941875" style="stroke: #000000; stroke-width: 0.8"/>
      </g>
     </g>
     <g id="text_7">
      <!-- 0 -->
      <g transform="translate(21.679688 232.738125) scale(0.12 -0.12)">
       <use xlink:href="#MicrosoftYaHei-30"/>
      </g>
     </g>
    </g>
    <g id="ytick_2">
     <g id="line2d_8">
      <g>
       <use xlink:href="#m8d5fd5b738" x="35.716563" y="198.749018" style="stroke: #000000; stroke-width: 0.8"/>
      </g>
     </g>
     <g id="text_8">
      <!-- 1 -->
      <g transform="translate(21.679688 203.545268) scale(0.12 -0.12)">
       <use xlink:href="#MicrosoftYaHei-31"/>
      </g>
     </g>
    </g>
    <g id="ytick_3">
     <g id="line2d_9">
      <g>
       <use xlink:href="#m8d5fd5b738" x="35.716563" y="169.556161" style="stroke: #000000; stroke-width: 0.8"/>
      </g>
     </g>
     <g id="text_9">
      <!-- 2 -->
      <g transform="translate(21.679688 174.352411) scale(0.12 -0.12)">
       <use xlink:href="#MicrosoftYaHei-32"/>
      </g>
     </g>
    </g>
    <g id="ytick_4">
     <g id="line2d_10">
      <g>
       <use xlink:href="#m8d5fd5b738" x="35.716563" y="140.363304" style="stroke: #000000; stroke-width: 0.8"/>
      </g>
     </g>
     <g id="text_10">
      <!-- 3 -->
      <g transform="translate(21.679688 145.159554) scale(0.12 -0.12)">
       <use xlink:href="#MicrosoftYaHei-33"/>
      </g>
     </g>
    </g>
    <g id="ytick_5">
     <g id="line2d_11">
      <g>
       <use xlink:href="#m8d5fd5b738" x="35.716563" y="111.170446" style="stroke: #000000; stroke-width: 0.8"/>
      </g>
     </g>
     <g id="text_11">
      <!-- 4 -->
      <g transform="translate(21.679688 115.966696) scale(0.12 -0.12)">
       <use xlink:href="#MicrosoftYaHei-34"/>
      </g>
     </g>
    </g>
    <g id="ytick_6">
     <g id="line2d_12">
      <g>
       <use xlink:href="#m8d5fd5b738" x="35.716563" y="81.977589" style="stroke: #000000; stroke-width: 0.8"/>
      </g>
     </g>
     <g id="text_12">
      <!-- 5 -->
      <g transform="translate(21.679688 86.773839) scale(0.12 -0.12)">
       <use xlink:href="#MicrosoftYaHei-35"/>
      </g>
     </g>
    </g>
    <g id="ytick_7">
     <g id="line2d_13">
      <g>
       <use xlink:href="#m8d5fd5b738" x="35.716563" y="52.784732" style="stroke: #000000; stroke-width: 0.8"/>
      </g>
     </g>
     <g id="text_13">
      <!-- 6 -->
      <g transform="translate(21.679688 57.580982) scale(0.12 -0.12)">
       <use xlink:href="#MicrosoftYaHei-36"/>
      </g>
     </g>
    </g>
    <g id="ytick_8">
     <g id="line2d_14">
      <g>
       <use xlink:href="#m8d5fd5b738" x="35.716563" y="23.591875" style="stroke: #000000; stroke-width: 0.8"/>
      </g>
     </g>
     <g id="text_14">
      <!-- 7 -->
      <g transform="translate(21.679688 28.388125) scale(0.12 -0.12)">
       <defs>
        <path id="MicrosoftYaHei-37" d="M 3422 4463 
Q 2659 3131 2223 1998 
Q 1788 866 1684 0 
L 1047 0 
Q 1163 853 1594 1947 
Q 2025 3041 2747 4300 
L 347 4300 
L 347 4841 
L 3422 4841 
L 3422 4463 
z
" transform="scale(0.015625)"/>
       </defs>
       <use xlink:href="#MicrosoftYaHei-37"/>
      </g>
     </g>
    </g>
    <g id="text_15">
     <!-- 强度（1-6） -->
     <g transform="translate(15.19375 153.794219) rotate(-90) scale(0.1 -0.1)">
      <defs>
       <path id="MicrosoftYaHei-5f3a" d="M 5250 466 
L 5669 666 
Q 6031 28 6363 -641 
L 5894 -878 
Q 5794 -641 5688 -416 
Q 3750 -547 2219 -653 
L 2150 -134 
Q 3088 -97 3969 -59 
L 3969 866 
L 2894 866 
L 2894 622 
L 2431 622 
L 2431 2616 
L 3969 2616 
L 3969 3297 
L 3144 3297 
L 3144 3047 
L 2681 3047 
L 2681 4972 
L 5731 4972 
L 5731 3047 
L 5269 3047 
L 5269 3297 
L 4444 3297 
L 4444 2616 
L 5988 2616 
L 5988 866 
L 4444 866 
L 4444 -41 
Q 4975 -22 5488 3 
Q 5369 241 5250 466 
z
M 425 3466 
L 1650 3466 
L 1650 4516 
L 238 4516 
L 238 4941 
L 2113 4941 
L 2113 2772 
L 1650 2772 
L 1650 3041 
L 831 3041 
L 719 2072 
L 2056 2072 
Q 1994 741 1944 128 
Q 1888 -722 1100 -722 
Q 819 -722 425 -716 
Q 388 -484 325 -216 
Q 731 -247 1019 -247 
Q 1444 -247 1475 191 
Q 1525 828 1563 1647 
L 225 1647 
L 425 3466 
z
M 5269 4547 
L 3144 4547 
L 3144 3722 
L 5269 3722 
L 5269 4547 
z
M 5525 1291 
L 5525 2191 
L 4444 2191 
L 4444 1291 
L 5525 1291 
z
M 2894 1291 
L 3969 1291 
L 3969 2191 
L 2894 2191 
L 2894 1291 
z
" transform="scale(0.015625)"/>
       <path id="MicrosoftYaHei-5ea6" d="M 1550 1216 
L 1550 1628 
L 5469 1628 
L 5469 1222 
Q 4903 613 4147 163 
Q 5050 -200 6263 -309 
L 6019 -797 
Q 4625 -603 3644 -109 
Q 2600 -619 1250 -866 
Q 1150 -666 994 -416 
Q 2231 -222 3166 166 
Q 2497 600 2066 1216 
L 1550 1216 
z
M 1363 3541 
L 2294 3541 
L 2294 4066 
L 2769 4066 
L 2769 3541 
L 4538 3541 
L 4538 4072 
L 5013 4072 
L 5013 3541 
L 6150 3541 
L 6150 3128 
L 5013 3128 
L 5013 1928 
L 4538 1928 
L 4538 2147 
L 2769 2147 
L 2769 1922 
L 2294 1922 
L 2294 3128 
L 1363 3128 
L 1363 3541 
z
M 3025 5172 
L 3481 5391 
Q 3694 5056 3909 4634 
L 6213 4634 
L 6213 4197 
L 1225 4197 
L 1225 2316 
Q 1225 178 394 -872 
Q 238 -666 38 -447 
Q 725 397 738 2347 
L 738 4634 
L 3331 4634 
Q 3188 4909 3025 5172 
z
M 2769 2547 
L 4538 2547 
L 4538 3128 
L 2769 3128 
L 2769 2547 
z
M 4819 1216 
L 2588 1216 
Q 3031 728 3656 391 
Q 4334 741 4819 1216 
z
" transform="scale(0.015625)"/>
       <path id="MicrosoftYaHei-ff08" d="M 5288 -1100 
Q 4172 119 4172 1850 
Q 4172 3603 5288 4838 
L 5825 4838 
Q 4716 3572 4716 1856 
Q 4716 166 5819 -1100 
L 5288 -1100 
z
" transform="scale(0.015625)"/>
       <path id="MicrosoftYaHei-ff09" d="M 1113 -1100 
L 575 -1100 
Q 1684 163 1684 1888 
Q 1684 3581 581 4838 
L 1113 4838 
Q 2222 3628 2222 1888 
Q 2222 128 1113 -1100 
z
" transform="scale(0.015625)"/>
      </defs>
      <use xlink:href="#MicrosoftYaHei-5f3a"/>
      <use xlink:href="#MicrosoftYaHei-5ea6" transform="translate(100 0)"/>
      <use xlink:href="#MicrosoftYaHei-ff08" transform="translate(200 0)"/>
      <use xlink:href="#MicrosoftYaHei-31" transform="translate(300 0)"/>
      <use xlink:href="#MicrosoftYaHei-2d" transform="translate(358.642578 0)"/>
      <use xlink:href="#MicrosoftYaHei-36" transform="translate(401.904297 0)"/>
      <use xlink:href="#MicrosoftYaHei-ff09" transform="translate(460.546875 0)"/>
     </g>
    </g>
   </g>
   <g id="patch_9">
    <path d="M 35.716563 227.941875 
L 35.716563 23.591875 
" style="fill: none; stroke: #000000; stroke-width: 0.8; stroke-linejoin: miter; stroke-linecap: square"/>
   </g>
   <g id="patch_10">
    <path d="M 35.716563 227.941875 
L 454.536563 227.941875 
" style="fill: none; stroke: #000000; stroke-width: 0.8; stroke-linejoin: miter; stroke-linecap: square"/>
   </g>
   <g id="text_16">
    <!-- ★★★☆☆☆ -->
    <g style="fill: #c46565" transform="translate(51.643722 137.444018) scale(0.07 -0.07)">
     <defs>
      <path id="MicrosoftYaHei-2605" d="M 3128 2828 
L 4316 2928 
Q 4816 2969 4828 2969 
Q 4984 2969 4984 2834 
Q 4984 2781 4953 2751 
Q 4922 2722 4475 2438 
L 3475 1797 
L 4116 191 
Q 4128 166 4128 116 
Q 4128 69 4093 34 
Q 4059 0 4019 0 
Q 3981 0 3940 26 
Q 3900 53 3500 397 
L 2613 1166 
L 1738 409 
Q 1325 53 1286 26 
Q 1247 0 1209 0 
Q 1166 0 1130 36 
Q 1094 72 1094 116 
Q 1094 144 1272 591 
L 1747 1797 
L 728 2450 
Q 297 2725 267 2753 
Q 238 2781 238 2834 
Q 238 2972 397 2972 
Q 409 2972 834 2934 
L 2094 2828 
L 2378 4038 
Q 2488 4509 2514 4556 
Q 2541 4603 2613 4603 
Q 2688 4603 2713 4551 
Q 2738 4500 2856 3991 
L 3128 2828 
z
" transform="scale(0.015625)"/>
      <path id="MicrosoftYaHei-2606" d="M 3181 2841 
L 4775 3053 
Q 4806 3059 4856 3059 
Q 4931 3059 4981 2951 
Q 5031 2844 5031 2753 
Q 5031 2700 5009 2679 
Q 4988 2659 4775 2538 
L 3506 1819 
L 3981 825 
Q 4213 338 4228 297 
Q 4244 256 4244 231 
Q 4244 169 4117 84 
Q 3991 0 3944 0 
Q 3875 0 3813 59 
L 2638 1184 
L 1819 403 
Q 1453 53 1412 26 
Q 1372 0 1338 0 
Q 1291 0 1164 84 
Q 1038 169 1038 225 
Q 1038 272 1234 688 
L 1772 1819 
Q 359 2613 298 2647 
Q 238 2681 238 2753 
Q 238 2844 288 2951 
Q 338 3059 409 3059 
Q 444 3059 2088 2841 
L 2384 4406 
Q 2406 4509 2451 4559 
Q 2497 4609 2613 4609 
Q 2716 4609 2772 4584 
Q 2828 4559 2851 4501 
Q 2875 4444 2978 3900 
L 3181 2841 
z
M 4863 2772 
L 4819 2900 
L 3053 2675 
L 2713 4422 
L 2559 4422 
L 2228 2675 
L 453 2900 
L 416 2772 
L 1978 1888 
L 1222 269 
L 1356 184 
L 2638 1394 
L 3922 184 
L 4056 269 
L 3303 1888 
L 4863 2772 
z
" transform="scale(0.015625)"/>
     </defs>
     <use xlink:href="#MicrosoftYaHei-2605"/>
     <use xlink:href="#MicrosoftYaHei-2605" transform="translate(81.591797 0)"/>
     <use xlink:href="#MicrosoftYaHei-2605" transform="translate(163.183594 0)"/>
     <use xlink:href="#MicrosoftYaHei-2606" transform="translate(244.775391 0)"/>
     <use xlink:href="#MicrosoftYaHei-2606" transform="translate(327.099609 0)"/>
     <use xlink:href="#MicrosoftYaHei-2606" transform="translate(409.423828 0)"/>
    </g>
   </g>
   <g id="text_17">
    <!-- ★★★★☆☆ -->
    <g style="fill: #c46565" transform="translate(122.177842 93.654732) scale(0.07 -0.07)">
     <use xlink:href="#MicrosoftYaHei-2605"/>
     <use xlink:href="#MicrosoftYaHei-2605" transform="translate(81.591797 0)"/>
     <use xlink:href="#MicrosoftYaHei-2605" transform="translate(163.183594 0)"/>
     <use xlink:href="#MicrosoftYaHei-2605" transform="translate(244.775391 0)"/>
     <use xlink:href="#MicrosoftYaHei-2606" transform="translate(326.367188 0)"/>
     <use xlink:href="#MicrosoftYaHei-2606" transform="translate(408.691406 0)"/>
    </g>
   </g>
   <g id="text_18">
    <!-- ★★★★★★ -->
    <g style="fill: #c46565" transform="translate(192.737666 49.865446) scale(0.07 -0.07)">
     <use xlink:href="#MicrosoftYaHei-2605"/>
     <use xlink:href="#MicrosoftYaHei-2605" transform="translate(81.591797 0)"/>
     <use xlink:href="#MicrosoftYaHei-2605" transform="translate(163.183594 0)"/>
     <use xlink:href="#MicrosoftYaHei-2605" transform="translate(244.775391 0)"/>
     <use xlink:href="#MicrosoftYaHei-2605" transform="translate(326.367188 0)"/>
     <use xlink:href="#MicrosoftYaHei-2605" transform="translate(407.958984 0)"/>
    </g>
   </g>
   <g id="text_19">
    <!-- ★★★★★☆ -->
    <g style="fill: #c46565" transform="translate(263.220381 64.461875) scale(0.07 -0.07)">
     <use xlink:href="#MicrosoftYaHei-2605"/>
     <use xlink:href="#MicrosoftYaHei-2605" transform="translate(81.591797 0)"/>
     <use xlink:href="#MicrosoftYaHei-2605" transform="translate(163.183594 0)"/>
     <use xlink:href="#MicrosoftYaHei-2605" transform="translate(244.775391 0)"/>
     <use xlink:href="#MicrosoftYaHei-2605" transform="translate(326.367188 0)"/>
     <use xlink:href="#MicrosoftYaHei-2606" transform="translate(407.958984 0)"/>
    </g>
   </g>
   <g id="text_20">
    <!-- ★★★★★☆ -->
    <g style="fill: #c46565" transform="translate(333.728798 79.058304) scale(0.07 -0.07)">
     <use xlink:href="#MicrosoftYaHei-2605"/>
     <use xlink:href="#MicrosoftYaHei-2605" transform="translate(81.591797 0)"/>
     <use xlink:href="#MicrosoftYaHei-2605" transform="translate(163.183594 0)"/>
     <use xlink:href="#MicrosoftYaHei-2605" transform="translate(244.775391 0)"/>
     <use xlink:href="#MicrosoftYaHei-2605" transform="translate(326.367188 0)"/>
     <use xlink:href="#MicrosoftYaHei-2606" transform="translate(407.958984 0)"/>
    </g>
   </g>
   <g id="text_21">
    <!-- ★★★☆☆☆ -->
    <g style="fill: #c46565" transform="translate(404.185809 122.847589) scale(0.07 -0.07)">
     <use xlink:href="#MicrosoftYaHei-2605"/>
     <use xlink:href="#MicrosoftYaHei-2605" transform="translate(81.591797 0)"/>
     <use xlink:href="#MicrosoftYaHei-2605" transform="translate(163.183594 0)"/>
     <use xlink:href="#MicrosoftYaHei-2606" transform="translate(244.775391 0)"/>
     <use xlink:href="#MicrosoftYaHei-2606" transform="translate(327.099609 0)"/>
     <use xlink:href="#MicrosoftYaHei-2606" transform="translate(409.423828 0)"/>
    </g>
   </g>
   <g id="text_22">
    <!-- 各阶段学习强度与复习广度变化 -->
    <g style="fill: #1a1a2e" transform="translate(154.126563 17.591875) scale(0.13 -0.13)">
     <defs>
      <path id="MicrosoftYaHei-Bold-5404" d="M 5669 4747 
L 5669 4028 
Q 5081 3400 4266 2925 
Q 5178 2700 6306 2678 
Q 6100 2184 5956 1797 
Q 4394 1953 3241 2428 
Q 2028 1941 444 1709 
Q 313 2047 100 2516 
Q 1313 2622 2291 2919 
Q 1831 3213 1463 3578 
Q 1078 3206 631 2891 
Q 419 3209 119 3578 
Q 1256 4322 1844 5347 
L 2713 5197 
Q 2581 4966 2434 4747 
L 5669 4747 
z
M 3244 3272 
Q 3934 3588 4475 4022 
L 2059 4022 
Q 2572 3572 3244 3272 
z
M 1000 -841 
L 1000 1703 
L 5475 1703 
L 5475 -841 
L 4638 -841 
L 4638 -547 
L 1838 -547 
L 1838 -841 
L 1000 -841 
z
M 4638 1003 
L 1838 1003 
L 1838 153 
L 4638 153 
L 4638 1003 
z
" transform="scale(0.015625)"/>
      <path id="MicrosoftYaHei-Bold-9636" d="M 4638 2678 
L 5488 2678 
L 5488 -753 
L 4638 -753 
L 4638 2678 
z
M 6338 3297 
Q 6138 2947 5925 2434 
Q 4825 3197 4256 4297 
Q 3631 3259 2663 2384 
Q 2425 2784 2163 3147 
Q 3269 4053 3856 5253 
L 4756 5253 
L 4675 5047 
Q 5288 3966 6338 3297 
z
M 3006 2672 
L 3863 2672 
Q 3863 1284 3781 872 
Q 3625 -128 2763 -872 
Q 2531 -609 2113 -241 
Q 2775 328 2925 1041 
Q 3006 1322 3006 2672 
z
M 1988 2791 
Q 2525 2003 2525 1209 
Q 2525 747 2288 509 
Q 2019 241 1319 222 
Q 1288 609 1163 1066 
Q 1344 1034 1450 1034 
Q 1719 1034 1719 1297 
Q 1719 1941 1194 2672 
L 1725 4328 
L 1119 4328 
L 1119 -872 
L 331 -872 
L 331 5053 
L 2581 5053 
L 2581 4341 
L 1988 2791 
z
" transform="scale(0.015625)"/>
      <path id="MicrosoftYaHei-Bold-6bb5" d="M 113 22 
L 94 859 
L 525 897 
L 525 4947 
Q 1238 4978 2713 5228 
L 2988 4447 
Q 2094 4303 1356 4241 
L 1356 3716 
L 2625 3716 
L 2625 2953 
L 1356 2953 
L 1356 2397 
L 2625 2397 
L 2625 1634 
L 1356 1634 
L 1356 981 
L 2775 1141 
Q 2750 766 2750 347 
L 1356 178 
L 1356 -822 
L 525 -822 
L 525 75 
L 113 22 
z
M 5900 3816 
L 6319 3816 
Q 6231 3422 6169 3047 
L 5519 3047 
Q 4844 3047 4844 3734 
L 4844 4303 
L 3956 4303 
Q 3956 3672 3806 3372 
Q 3656 3072 3319 2791 
Q 3038 3047 2688 3322 
Q 3181 3628 3181 4278 
L 3181 5078 
L 5638 5078 
L 5638 4109 
Q 5638 3816 5900 3816 
z
M 6038 2728 
L 6038 1978 
Q 5703 1163 5119 541 
Q 5684 209 6356 16 
Q 6138 -378 5906 -816 
Q 5088 -503 4438 -53 
Q 3775 -538 2894 -853 
Q 2731 -578 2350 -66 
Q 3138 163 3731 525 
Q 3284 959 2950 1484 
L 3581 1941 
Q 3953 1431 4413 1041 
Q 4834 1447 5100 1959 
L 2788 1959 
L 2788 2728 
L 6038 2728 
z
" transform="scale(0.015625)"/>
      <path id="MicrosoftYaHei-Bold-5b66" d="M 1425 5341 
Q 1800 4916 2188 4391 
L 1909 4203 
L 2953 4203 
Q 2691 4706 2469 5053 
L 3231 5391 
Q 3481 5009 3819 4403 
L 3388 4203 
L 4153 4203 
Q 4581 4819 4875 5272 
L 5719 4809 
L 5213 4203 
L 6113 4203 
L 6113 2666 
L 5238 2666 
L 5238 3441 
L 1156 3441 
L 1156 2666 
L 281 2666 
L 281 4203 
L 1303 4203 
Q 1028 4581 769 4897 
L 1425 5341 
z
M 175 1528 
L 2906 1528 
L 2906 1691 
L 3744 2234 
L 1456 2234 
L 1456 2997 
L 4975 2997 
L 4975 2241 
L 3900 1528 
L 6231 1528 
L 6231 753 
L 3806 753 
L 3806 116 
Q 3806 -316 3565 -556 
Q 3325 -797 2829 -800 
Q 2334 -803 1813 -803 
Q 1725 -372 1600 22 
Q 2075 -3 2469 -3 
Q 2906 -3 2906 378 
L 2906 753 
L 175 753 
L 175 1528 
z
" transform="scale(0.015625)"/>
      <path id="MicrosoftYaHei-Bold-4e60" d="M 3431 -709 
Q 3344 -272 3206 241 
Q 3878 197 4350 197 
Q 4750 197 4826 562 
Q 4903 928 4925 4066 
L 500 4066 
L 500 4903 
L 5863 4903 
Q 5853 3694 5813 2238 
L 5750 353 
Q 5728 -75 5509 -334 
Q 5291 -594 4930 -647 
Q 4569 -700 3431 -709 
z
M 1300 3259 
L 1813 3916 
Q 2806 3241 3500 2709 
L 2881 1959 
Q 2088 2647 1300 3259 
z
M 300 1009 
Q 2669 1666 4656 2372 
Q 4656 2078 4669 1484 
Q 2856 822 625 53 
L 300 1009 
z
" transform="scale(0.015625)"/>
      <path id="MicrosoftYaHei-Bold-5f3a" d="M 163 1403 
L 325 3622 
L 1375 3622 
L 1375 4353 
L 194 4353 
L 194 5097 
L 2150 5097 
L 2150 2878 
L 1050 2878 
L 994 2147 
L 2081 2147 
Q 2056 622 2017 169 
Q 1978 -284 1847 -478 
Q 1716 -672 1497 -736 
Q 1278 -800 381 -784 
Q 331 -478 200 53 
Q 672 34 866 34 
Q 1113 34 1181 201 
Q 1250 369 1275 1403 
L 163 1403 
z
M 5716 816 
Q 6025 191 6344 -572 
L 5625 -859 
L 5463 -459 
Q 4025 -631 2325 -791 
L 2175 9 
L 3813 128 
L 3813 816 
L 2406 816 
L 2406 2797 
L 3813 2797 
L 3813 3228 
L 2613 3228 
L 2613 5091 
L 5813 5091 
L 5813 3228 
L 4613 3228 
L 4613 2797 
L 6031 2797 
L 6031 816 
L 5716 816 
z
M 5025 4403 
L 3400 4403 
L 3400 3916 
L 5025 3916 
L 5025 4403 
z
M 5256 1503 
L 5256 2109 
L 4613 2109 
L 4613 1503 
L 5256 1503 
z
M 3181 1503 
L 3813 1503 
L 3813 2109 
L 3181 2109 
L 3181 1503 
z
M 5709 816 
L 4613 816 
L 4613 200 
L 5150 253 
L 5013 553 
L 5709 816 
z
" transform="scale(0.015625)"/>
      <path id="MicrosoftYaHei-Bold-5ea6" d="M 5656 1697 
L 5656 1022 
Q 5156 447 4656 97 
Q 5344 -34 6306 -66 
Q 6119 -428 5938 -822 
Q 4556 -653 3719 -353 
Q 2825 -653 1494 -872 
Q 1338 -522 1088 -178 
Q 2100 -128 2888 78 
Q 2369 453 1938 1022 
L 1538 1022 
L 1538 1697 
L 5656 1697 
z
M 1325 2478 
Q 1338 134 700 -884 
Q 356 -553 19 -297 
Q 550 697 525 2591 
L 525 4772 
L 3013 4772 
Q 2944 4953 2831 5209 
L 3869 5359 
Q 3981 5072 4094 4772 
L 6256 4772 
L 6256 4072 
L 1325 4072 
L 1325 2478 
z
M 1463 3684 
L 2144 3684 
L 2144 3947 
L 2944 3947 
L 2944 3684 
L 4494 3684 
L 4494 3947 
L 5294 3947 
L 5294 3684 
L 6144 3684 
L 6144 3009 
L 5294 3009 
L 5294 1991 
L 2144 1991 
L 2144 3009 
L 1463 3009 
L 1463 3684 
z
M 3756 378 
Q 4325 641 4725 1022 
L 2825 1022 
Q 3225 622 3756 378 
z
M 4494 2628 
L 4494 3009 
L 2944 3009 
L 2944 2628 
L 4494 2628 
z
" transform="scale(0.015625)"/>
      <path id="MicrosoftYaHei-Bold-4e0e" d="M 6138 3747 
L 2000 3747 
L 1956 3041 
L 5838 3041 
L 5738 541 
Q 5709 -169 5351 -453 
Q 4994 -738 4381 -741 
L 3031 -741 
Q 2956 -359 2813 166 
Q 3463 134 4081 134 
Q 4731 134 4784 526 
Q 4838 919 4863 2234 
L 969 2234 
L 1144 5272 
L 2094 5272 
L 2050 4566 
L 6138 4566 
L 6138 3747 
z
M 4456 766 
L 181 766 
L 181 1584 
L 4456 1584 
L 4456 766 
z
" transform="scale(0.015625)"/>
      <path id="MicrosoftYaHei-Bold-590d" d="M 5738 1528 
L 5738 1003 
Q 5091 600 4322 259 
Q 5197 78 6306 -16 
Q 6000 -428 5819 -791 
Q 4391 -569 3278 -153 
Q 2125 -559 744 -853 
Q 550 -541 275 -178 
Q 1394 3 2341 256 
Q 1872 500 1478 788 
Q 1069 416 581 116 
Q 363 391 75 691 
Q 925 1194 1459 1816 
L 844 1816 
L 844 3406 
Q 600 3128 325 2872 
Q 238 3266 94 3759 
Q 831 4484 1188 5334 
L 2063 5334 
Q 1978 5144 1888 4959 
L 6181 4959 
L 6181 4334 
L 1538 4334 
Q 1434 4172 1325 4016 
L 5738 4016 
L 5738 1816 
L 2372 1816 
Q 2272 1666 2163 1528 
L 5738 1528 
z
M 4906 3478 
L 1675 3478 
L 1675 3141 
L 4906 3141 
L 4906 3478 
z
M 4906 2353 
L 4906 2691 
L 1675 2691 
L 1675 2353 
L 4906 2353 
z
M 3269 541 
Q 3897 753 4438 1009 
L 2231 1009 
Q 2669 744 3269 541 
z
" transform="scale(0.015625)"/>
      <path id="MicrosoftYaHei-Bold-5e7f" d="M 1650 2491 
Q 1650 244 819 -884 
Q 806 -853 100 -228 
Q 794 641 763 2603 
L 763 4578 
L 3038 4578 
Q 2931 4863 2819 5141 
L 3813 5353 
Q 3959 4969 4097 4578 
L 6225 4578 
L 6225 3753 
L 1650 3753 
L 1650 2491 
z
" transform="scale(0.015625)"/>
      <path id="MicrosoftYaHei-Bold-53d8" d="M 231 4616 
L 2734 4616 
L 2525 5128 
L 3425 5353 
L 3741 4616 
L 6175 4616 
L 6175 3878 
L 4350 3878 
L 4350 2434 
L 3550 2434 
L 3550 3878 
L 2850 3878 
L 2850 2434 
L 2050 2434 
L 2050 3878 
L 231 3878 
L 231 4616 
z
M 1488 3778 
L 2019 3228 
Q 1338 2684 550 2184 
Q 325 2541 88 2828 
Q 844 3272 1488 3778 
z
M 4881 3728 
Q 5538 3328 6306 2778 
L 5769 2159 
Q 5119 2666 4406 3178 
L 4881 3728 
z
M 5300 2272 
L 5300 1566 
Q 4847 913 4144 422 
Q 5063 147 6288 84 
Q 6194 -84 5825 -822 
Q 4297 -663 3200 -116 
Q 2088 -634 544 -884 
Q 363 -497 94 -66 
Q 1359 84 2338 425 
Q 1741 894 1331 1534 
L 900 1534 
L 900 2272 
L 5300 2272 
z
M 3213 794 
Q 3834 1113 4300 1534 
L 2238 1534 
Q 2631 1100 3213 794 
z
" transform="scale(0.015625)"/>
      <path id="MicrosoftYaHei-Bold-5316" d="M 1625 5297 
L 2494 5009 
Q 2200 4284 1856 3641 
L 1856 -797 
L 956 -797 
L 956 2191 
Q 653 1775 325 1403 
Q 219 1991 88 2497 
Q 1063 3728 1625 5297 
z
M 5456 4447 
L 6238 3847 
Q 5306 2809 4106 1900 
L 4106 622 
Q 4106 153 4513 153 
L 4781 153 
Q 5091 153 5189 359 
Q 5288 566 5350 1597 
Q 5863 1434 6300 1322 
Q 6188 419 6105 37 
Q 6022 -344 5705 -542 
Q 5388 -741 4831 -741 
L 4294 -741 
Q 3169 -741 3169 378 
L 3169 1234 
Q 2806 994 2425 766 
Q 2225 1097 1875 1584 
Q 2553 1947 3169 2378 
L 3169 5272 
L 4106 5272 
L 4106 3100 
Q 4834 3719 5456 4447 
z
" transform="scale(0.015625)"/>
     </defs>
     <use xlink:href="#MicrosoftYaHei-Bold-5404"/>
     <use xlink:href="#MicrosoftYaHei-Bold-9636" transform="translate(100 0)"/>
     <use xlink:href="#MicrosoftYaHei-Bold-6bb5" transform="translate(200 0)"/>
     <use xlink:href="#MicrosoftYaHei-Bold-5b66" transform="translate(300 0)"/>
     <use xlink:href="#MicrosoftYaHei-Bold-4e60" transform="translate(400 0)"/>
     <use xlink:href="#MicrosoftYaHei-Bold-5f3a" transform="translate(500 0)"/>
     <use xlink:href="#MicrosoftYaHei-Bold-5ea6" transform="translate(600 0)"/>
     <use xlink:href="#MicrosoftYaHei-Bold-4e0e" transform="translate(700 0)"/>
     <use xlink:href="#MicrosoftYaHei-Bold-590d" transform="translate(800 0)"/>
     <use xlink:href="#MicrosoftYaHei-Bold-4e60" transform="translate(900 0)"/>
     <use xlink:href="#MicrosoftYaHei-Bold-5e7f" transform="translate(1000 0)"/>
     <use xlink:href="#MicrosoftYaHei-Bold-5ea6" transform="translate(1100 0)"/>
     <use xlink:href="#MicrosoftYaHei-Bold-53d8" transform="translate(1200 0)"/>
     <use xlink:href="#MicrosoftYaHei-Bold-5316" transform="translate(1300 0)"/>
    </g>
   </g>
   <g id="legend_1">
    <g id="patch_11">
     <path d="M 41.316563 42.375625 
L 98.916563 42.375625 
Q 100.516563 42.375625 100.516563 40.775625 
L 100.516563 29.191875 
Q 100.516563 27.591875 98.916563 27.591875 
L 41.316563 27.591875 
Q 39.716563 27.591875 39.716563 29.191875 
L 39.716563 40.775625 
Q 39.716563 42.375625 41.316563 42.375625 
z
" style="fill: #ffffff; opacity: 0.8; stroke: #cccccc; stroke-linejoin: miter"/>
    </g>
    <g id="patch_12">
     <path d="M 42.916563 37.186875 
L 58.916563 37.186875 
L 58.916563 31.586875 
L 42.916563 31.586875 
z
" style="fill: #d18080; stroke: #ffffff; stroke-linejoin: miter"/>
    </g>
    <g id="text_23">
     <!-- 学习强度 -->
     <g transform="translate(65.316563 37.186875) scale(0.08 -0.08)">
      <defs>
       <path id="MicrosoftYaHei-5b66" d="M 144 1359 
L 3069 1359 
L 3069 1709 
L 4263 2384 
L 1325 2384 
L 1325 2841 
L 4994 2841 
L 4994 2316 
L 3575 1497 
L 3575 1359 
L 6263 1359 
L 6263 903 
L 3575 903 
L 3575 -41 
Q 3575 -778 2831 -778 
Q 2419 -778 1863 -766 
Q 1844 -553 1788 -234 
Q 2288 -284 2744 -291 
Q 3069 -297 3069 53 
L 3069 903 
L 144 903 
L 144 1359 
z
M 356 3909 
L 6056 3909 
L 6056 2647 
L 5563 2647 
L 5563 3453 
L 850 3453 
L 850 2647 
L 356 2647 
L 356 3909 
z
M 4313 4272 
Q 4731 4722 5100 5241 
L 5550 4909 
Q 5144 4447 4681 3941 
L 4313 4272 
z
M 2538 5116 
L 2944 5353 
Q 3325 4853 3650 4334 
L 3200 4078 
Q 2925 4566 2538 5116 
z
M 850 4928 
L 1219 5197 
Q 1600 4778 1969 4291 
L 1544 3991 
Q 1194 4522 850 4928 
z
" transform="scale(0.015625)"/>
      </defs>
      <use xlink:href="#MicrosoftYaHei-5b66"/>
      <use xlink:href="#MicrosoftYaHei-4e60" transform="translate(100 0)"/>
      <use xlink:href="#MicrosoftYaHei-5f3a" transform="translate(200 0)"/>
      <use xlink:href="#MicrosoftYaHei-5ea6" transform="translate(300 0)"/>
     </g>
    </g>
   </g>
  </g>
  <g id="axes_2">
   <g id="matplotlib.axis_3">
    <g id="ytick_9">
     <g id="line2d_15">
      <defs>
       <path id="m694dc4b1b0" d="M 0 0 
L 3.5 0 
" style="stroke: #000000; stroke-width: 0.8"/>
      </defs>
      <g>
       <use xlink:href="#m694dc4b1b0" x="454.536563" y="227.941875" style="stroke: #000000; stroke-width: 0.8"/>
      </g>
     </g>
     <g id="text_24">
      <!-- 0 -->
      <g transform="translate(461.536563 232.738125) scale(0.12 -0.12)">
       <use xlink:href="#MicrosoftYaHei-30"/>
      </g>
     </g>
    </g>
    <g id="ytick_10">
     <g id="line2d_16">
      <g>
       <use xlink:href="#m694dc4b1b0" x="454.536563" y="198.749018" style="stroke: #000000; stroke-width: 0.8"/>
      </g>
     </g>
     <g id="text_25">
      <!-- 1 -->
      <g transform="translate(461.536563 203.545268) scale(0.12 -0.12)">
       <use xlink:href="#MicrosoftYaHei-31"/>
      </g>
     </g>
    </g>
    <g id="ytick_11">
     <g id="line2d_17">
      <g>
       <use xlink:href="#m694dc4b1b0" x="454.536563" y="169.556161" style="stroke: #000000; stroke-width: 0.8"/>
      </g>
     </g>
     <g id="text_26">
      <!-- 2 -->
      <g transform="translate(461.536563 174.352411) scale(0.12 -0.12)">
       <use xlink:href="#MicrosoftYaHei-32"/>
      </g>
     </g>
    </g>
    <g id="ytick_12">
     <g id="line2d_18">
      <g>
       <use xlink:href="#m694dc4b1b0" x="454.536563" y="140.363304" style="stroke: #000000; stroke-width: 0.8"/>
      </g>
     </g>
     <g id="text_27">
      <!-- 3 -->
      <g transform="translate(461.536563 145.159554) scale(0.12 -0.12)">
       <use xlink:href="#MicrosoftYaHei-33"/>
      </g>
     </g>
    </g>
    <g id="ytick_13">
     <g id="line2d_19">
      <g>
       <use xlink:href="#m694dc4b1b0" x="454.536563" y="111.170446" style="stroke: #000000; stroke-width: 0.8"/>
      </g>
     </g>
     <g id="text_28">
      <!-- 4 -->
      <g transform="translate(461.536563 115.966696) scale(0.12 -0.12)">
       <use xlink:href="#MicrosoftYaHei-34"/>
      </g>
     </g>
    </g>
    <g id="ytick_14">
     <g id="line2d_20">
      <g>
       <use xlink:href="#m694dc4b1b0" x="454.536563" y="81.977589" style="stroke: #000000; stroke-width: 0.8"/>
      </g>
     </g>
     <g id="text_29">
      <!-- 5 -->
      <g transform="translate(461.536563 86.773839) scale(0.12 -0.12)">
       <use xlink:href="#MicrosoftYaHei-35"/>
      </g>
     </g>
    </g>
    <g id="ytick_15">
     <g id="line2d_21">
      <g>
       <use xlink:href="#m694dc4b1b0" x="454.536563" y="52.784732" style="stroke: #000000; stroke-width: 0.8"/>
      </g>
     </g>
     <g id="text_30">
      <!-- 6 -->
      <g transform="translate(461.536563 57.580982) scale(0.12 -0.12)">
       <use xlink:href="#MicrosoftYaHei-36"/>
      </g>
     </g>
    </g>
    <g id="ytick_16">
     <g id="line2d_22">
      <g>
       <use xlink:href="#m694dc4b1b0" x="454.536563" y="23.591875" style="stroke: #000000; stroke-width: 0.8"/>
      </g>
     </g>
     <g id="text_31">
      <!-- 7 -->
      <g transform="translate(461.536563 28.388125) scale(0.12 -0.12)">
       <use xlink:href="#MicrosoftYaHei-37"/>
      </g>
     </g>
    </g>
    <g id="text_32">
     <!-- 复习广度 -->
     <g transform="translate(480.567188 145.766875) rotate(-90) scale(0.1 -0.1)">
      <defs>
       <path id="MicrosoftYaHei-5e7f" d="M 975 4384 
L 3466 4384 
Q 3291 4684 3000 5097 
L 3456 5359 
Q 3763 4966 4000 4591 
L 3650 4384 
L 6213 4384 
L 6213 3878 
L 1531 3878 
L 1531 2328 
Q 1538 366 513 -797 
Q 369 -641 63 -403 
Q 975 591 975 2391 
L 975 4384 
z
" transform="scale(0.015625)"/>
      </defs>
      <use xlink:href="#MicrosoftYaHei-590d"/>
      <use xlink:href="#MicrosoftYaHei-4e60" transform="translate(100 0)"/>
      <use xlink:href="#MicrosoftYaHei-5e7f" transform="translate(200 0)"/>
      <use xlink:href="#MicrosoftYaHei-5ea6" transform="translate(300 0)"/>
     </g>
    </g>
   </g>
   <g id="line2d_23">
    <path d="M 68.855519 111.170446 
L 139.363936 81.977589 
L 209.872354 140.363304 
L 280.380771 140.363304 
L 350.889189 169.556161 
L 421.397606 184.152589 
" clip-path="url(#paed373f725)" style="fill: none; stroke: #5688cc; stroke-width: 2.5; stroke-linecap: square"/>
    <defs>
     <path id="mb8da6b4e2f" d="M 0 4 
C 1.060812 4 2.078319 3.578535 2.828427 2.828427 
C 3.578535 2.078319 4 1.060812 4 0 
C 4 -1.060812 3.578535 -2.078319 2.828427 -2.828427 
C 2.078319 -3.578535 1.060812 -4 0 -4 
C -1.060812 -4 -2.078319 -3.578535 -2.828427 -2.828427 
C -3.578535 -2.078319 -4 -1.060812 -4 0 
C -4 1.060812 -3.578535 2.078319 -2.828427 2.828427 
C -2.078319 3.578535 -1.060812 4 0 4 
z
" style="stroke: #5688cc; stroke-width: 2"/>
    </defs>
    <g clip-path="url(#paed373f725)">
     <use xlink:href="#mb8da6b4e2f" x="68.855519" y="111.170446" style="fill: #ffffff; stroke: #5688cc; stroke-width: 2"/>
     <use xlink:href="#mb8da6b4e2f" x="139.363936" y="81.977589" style="fill: #ffffff; stroke: #5688cc; stroke-width: 2"/>
     <use xlink:href="#mb8da6b4e2f" x="209.872354" y="140.363304" style="fill: #ffffff; stroke: #5688cc; stroke-width: 2"/>
     <use xlink:href="#mb8da6b4e2f" x="280.380771" y="140.363304" style="fill: #ffffff; stroke: #5688cc; stroke-width: 2"/>
     <use xlink:href="#mb8da6b4e2f" x="350.889189" y="169.556161" style="fill: #ffffff; stroke: #5688cc; stroke-width: 2"/>
     <use xlink:href="#mb8da6b4e2f" x="421.397606" y="184.152589" style="fill: #ffffff; stroke: #5688cc; stroke-width: 2"/>
    </g>
   </g>
   <g id="patch_13">
    <path d="M 35.716563 227.941875 
L 35.716563 23.591875 
" style="fill: none; stroke: #000000; stroke-width: 0.8; stroke-linejoin: miter; stroke-linecap: square"/>
   </g>
   <g id="patch_14">
    <path d="M 454.536563 227.941875 
L 454.536563 23.591875 
" style="fill: none; stroke: #000000; stroke-width: 0.8; stroke-linejoin: miter; stroke-linecap: square"/>
   </g>
   <g id="patch_15">
    <path d="M 35.716563 227.941875 
L 454.536563 227.941875 
" style="fill: none; stroke: #000000; stroke-width: 0.8; stroke-linejoin: miter; stroke-linecap: square"/>
   </g>
   <g id="patch_16">
    <path d="M 35.716563 23.591875 
L 454.536563 23.591875 
" style="fill: none; stroke: #000000; stroke-width: 0.8; stroke-linejoin: miter; stroke-linecap: square"/>
   </g>
   <g id="text_33">
    <!-- 4.0 -->
    <g style="fill: #5688cc" transform="translate(62.779269 106.791518) scale(0.08 -0.08)">
     <defs>
      <path id="MicrosoftYaHei-Bold-34" d="M 3184 4841 
L 3184 1766 
L 3869 1766 
L 3869 1031 
L 3184 1031 
L 3184 0 
L 2266 0 
L 2266 1031 
L 103 1031 
L 103 1772 
Q 775 2522 1362 3359 
Q 1950 4197 2250 4841 
L 3184 4841 
z
M 997 1766 
L 2266 1766 
L 2266 3541 
Q 2116 3259 1836 2859 
Q 1556 2459 997 1766 
z
" transform="scale(0.015625)"/>
      <path id="MicrosoftYaHei-Bold-2e" d="M 313 453 
Q 313 688 491 838 
Q 669 988 916 988 
Q 1166 988 1337 834 
Q 1509 681 1509 453 
Q 1509 213 1337 64 
Q 1166 -84 903 -84 
Q 659 -84 486 69 
Q 313 222 313 453 
z
" transform="scale(0.015625)"/>
      <path id="MicrosoftYaHei-Bold-30" d="M 244 2341 
Q 244 3597 706 4259 
Q 1169 4922 2044 4922 
Q 3713 4922 3713 2453 
Q 3713 1238 3259 577 
Q 2806 -84 1950 -84 
Q 244 -84 244 2341 
z
M 1266 2366 
Q 1266 691 1981 691 
Q 2684 691 2684 2416 
Q 2684 4147 2000 4147 
Q 1266 4147 1266 2366 
z
" transform="scale(0.015625)"/>
     </defs>
     <use xlink:href="#MicrosoftYaHei-Bold-34"/>
     <use xlink:href="#MicrosoftYaHei-Bold-2e" transform="translate(61.669922 0)"/>
     <use xlink:href="#MicrosoftYaHei-Bold-30" transform="translate(90.234375 0)"/>
    </g>
   </g>
   <g id="text_34">
    <!-- 5.0 -->
    <g style="fill: #5688cc" transform="translate(133.287686 77.598661) scale(0.08 -0.08)">
     <defs>
      <path id="MicrosoftYaHei-Bold-35" d="M 541 125 
L 541 997 
Q 1044 691 1613 691 
Q 2041 691 2283 902 
Q 2525 1113 2525 1472 
Q 2525 2225 1494 2225 
Q 1113 2225 616 2169 
L 797 4841 
L 3359 4841 
L 3359 4009 
L 1613 4009 
L 1544 2991 
Q 1803 3013 2022 3013 
Q 2731 3013 3142 2625 
Q 3553 2238 3553 1575 
Q 3553 844 3056 380 
Q 2559 -84 1706 -84 
Q 1016 -84 541 125 
z
" transform="scale(0.015625)"/>
     </defs>
     <use xlink:href="#MicrosoftYaHei-Bold-35"/>
     <use xlink:href="#MicrosoftYaHei-Bold-2e" transform="translate(61.669922 0)"/>
     <use xlink:href="#MicrosoftYaHei-Bold-30" transform="translate(90.234375 0)"/>
    </g>
   </g>
   <g id="text_35">
    <!-- 3.0 -->
    <g style="fill: #5688cc" transform="translate(203.796104 135.984375) scale(0.08 -0.08)">
     <defs>
      <path id="MicrosoftYaHei-Bold-33" d="M 494 1053 
Q 978 691 1625 691 
Q 2034 691 2275 872 
Q 2516 1053 2516 1388 
Q 2516 1731 2230 1912 
Q 1944 2094 1428 2094 
L 997 2094 
L 997 2872 
L 1394 2872 
Q 2369 2872 2369 3528 
Q 2369 4147 1622 4147 
Q 1134 4147 675 3828 
L 675 4663 
Q 1175 4922 1853 4922 
Q 2541 4922 2969 4605 
Q 3397 4288 3397 3725 
Q 3397 2775 2434 2531 
L 2434 2516 
Q 2941 2459 3244 2145 
Q 3547 1831 3547 1381 
Q 3547 691 3042 303 
Q 2538 -84 1697 -84 
Q 950 -84 494 163 
L 494 1053 
z
" transform="scale(0.015625)"/>
     </defs>
     <use xlink:href="#MicrosoftYaHei-Bold-33"/>
     <use xlink:href="#MicrosoftYaHei-Bold-2e" transform="translate(61.669922 0)"/>
     <use xlink:href="#MicrosoftYaHei-Bold-30" transform="translate(90.234375 0)"/>
    </g>
   </g>
   <g id="text_36">
    <!-- 3.0 -->
    <g style="fill: #5688cc" transform="translate(274.304521 135.984375) scale(0.08 -0.08)">
     <use xlink:href="#MicrosoftYaHei-Bold-33"/>
     <use xlink:href="#MicrosoftYaHei-Bold-2e" transform="translate(61.669922 0)"/>
     <use xlink:href="#MicrosoftYaHei-Bold-30" transform="translate(90.234375 0)"/>
    </g>
   </g>
   <g id="text_37">
    <!-- 2.0 -->
    <g style="fill: #5688cc" transform="translate(344.812939 165.177232) scale(0.08 -0.08)">
     <defs>
      <path id="MicrosoftYaHei-Bold-32" d="M 1500 841 
L 3553 841 
L 3553 0 
L 334 0 
L 334 359 
Q 334 738 473 1050 
Q 613 1363 856 1633 
Q 1100 1903 1613 2266 
Q 2081 2616 2268 2886 
Q 2456 3156 2456 3459 
Q 2456 4113 1744 4113 
Q 1119 4113 550 3613 
L 550 4513 
Q 1184 4922 1975 4922 
Q 2700 4922 3122 4551 
Q 3544 4181 3544 3531 
Q 3544 3169 3422 2876 
Q 3300 2584 3069 2328 
Q 2838 2072 2328 1713 
Q 1838 1363 1669 1172 
Q 1500 981 1500 841 
z
" transform="scale(0.015625)"/>
     </defs>
     <use xlink:href="#MicrosoftYaHei-Bold-32"/>
     <use xlink:href="#MicrosoftYaHei-Bold-2e" transform="translate(61.669922 0)"/>
     <use xlink:href="#MicrosoftYaHei-Bold-30" transform="translate(90.234375 0)"/>
    </g>
   </g>
   <g id="text_38">
    <!-- 1.5 -->
    <g style="fill: #5688cc" transform="translate(415.321356 179.773661) scale(0.08 -0.08)">
     <defs>
      <path id="MicrosoftYaHei-Bold-31" d="M 2716 4947 
L 2716 0 
L 1700 0 
L 1700 3809 
Q 1513 3647 1188 3517 
Q 863 3388 591 3356 
L 591 4222 
Q 1447 4472 2072 4947 
L 2716 4947 
z
" transform="scale(0.015625)"/>
     </defs>
     <use xlink:href="#MicrosoftYaHei-Bold-31"/>
     <use xlink:href="#MicrosoftYaHei-Bold-2e" transform="translate(61.669922 0)"/>
     <use xlink:href="#MicrosoftYaHei-Bold-35" transform="translate(90.234375 0)"/>
    </g>
   </g>
   <g id="legend_2">
    <g id="patch_17">
     <path d="M 391.336563 42.375625 
L 448.936563 42.375625 
Q 450.536563 42.375625 450.536563 40.775625 
L 450.536563 29.191875 
Q 450.536563 27.591875 448.936563 27.591875 
L 391.336563 27.591875 
Q 389.736563 27.591875 389.736563 29.191875 
L 389.736563 40.775625 
Q 389.736563 42.375625 391.336563 42.375625 
z
" style="fill: #ffffff; opacity: 0.8; stroke: #cccccc; stroke-linejoin: miter"/>
    </g>
    <g id="line2d_24">
     <path d="M 392.936563 34.386875 
L 400.936563 34.386875 
L 408.936563 34.386875 
" style="fill: none; stroke: #5688cc; stroke-width: 2.5; stroke-linecap: square"/>
     <g>
      <use xlink:href="#mb8da6b4e2f" x="400.936563" y="34.386875" style="fill: #ffffff; stroke: #5688cc; stroke-width: 2"/>
     </g>
    </g>
    <g id="text_39">
     <!-- 复习广度 -->
     <g transform="translate(415.336563 37.186875) scale(0.08 -0.08)">
      <use xlink:href="#MicrosoftYaHei-590d"/>
      <use xlink:href="#MicrosoftYaHei-4e60" transform="translate(100 0)"/>
      <use xlink:href="#MicrosoftYaHei-5e7f" transform="translate(200 0)"/>
      <use xlink:href="#MicrosoftYaHei-5ea6" transform="translate(300 0)"/>
     </g>
    </g>
   </g>
  </g>
 </g>
 <defs>
  <clipPath id="paed373f725">
   <rect x="35.716563" y="23.591875" width="418.82" height="204.35"/>
  </clipPath>
 </defs>
</svg>
