<?xml version="1.0" encoding="utf-8" standalone="no"?>
<!DOCTYPE svg PUBLIC "-//W3C//DTD SVG 1.1//EN"
  "http://www.w3.org/Graphics/SVG/1.1/DTD/svg11.dtd">
<svg xmlns:xlink="http://www.w3.org/1999/xlink" width="380.208857pt" height="226.935125pt" viewBox="0 0 380.208857 226.935125" xmlns="http://www.w3.org/2000/svg" version="1.1">
 <metadata>
  <rdf:RDF xmlns:dc="http://purl.org/dc/elements/1.1/" xmlns:cc="http://creativecommons.org/ns#" xmlns:rdf="http://www.w3.org/1999/02/22-rdf-syntax-ns#">
   <cc:Work>
    <dc:type rdf:resource="http://purl.org/dc/dcmitype/StillImage"/>
    <dc:date>2026-05-29T22:13:22.970443</dc:date>
    <dc:format>image/svg+xml</dc:format>
    <dc:creator>
     <cc:Agent>
      <dc:title>Matplotlib v3.10.9, https://matplotlib.org/</dc:title>
     </cc:Agent>
    </dc:creator>
   </cc:Work>
  </rdf:RDF>
 </metadata>
 <defs>
  <style type="text/css">*{stroke-linejoin: round; stroke-linecap: butt}</style>
 </defs>
 <g id="figure_1">
  <g id="patch_1">
   <path d="M 0 226.935125 
L 380.208857 226.935125 
L 380.208857 0 
L 0 0 
z
" style="fill: #ffffff"/>
  </g>
  <g id="axes_1">
   <g id="patch_2">
    <path d="M 10.308857 212.458625 
L 269.380286 212.458625 
L 269.380286 194.671625 
L 10.308857 194.671625 
z
" clip-path="url(#p783af751c3)" style="fill: #c0392b; opacity: 0.75; stroke: #ffffff; stroke-linejoin: miter"/>
   </g>
   <g id="patch_3">
    <path d="M 10.308857 180.118625 
L 217.566 180.118625 
L 217.566 162.331625 
L 10.308857 162.331625 
z
" clip-path="url(#p783af751c3)" style="fill: #2980b9; opacity: 0.75; stroke: #ffffff; stroke-linejoin: miter"/>
   </g>
   <g id="patch_4">
    <path d="M 10.308857 147.778625 
L 269.380286 147.778625 
L 269.380286 129.991625 
L 10.308857 129.991625 
z
" clip-path="url(#p783af751c3)" style="fill: #27ae60; opacity: 0.75; stroke: #ffffff; stroke-linejoin: miter"/>
   </g>
   <g id="patch_5">
    <path d="M 10.308857 115.438625 
L 165.751714 115.438625 
L 165.751714 97.651625 
L 10.308857 97.651625 
z
" clip-path="url(#p783af751c3)" style="fill: #e67e22; opacity: 0.75; stroke: #ffffff; stroke-linejoin: miter"/>
   </g>
   <g id="patch_6">
    <path d="M 10.308857 83.098625 
L 165.751714 83.098625 
L 165.751714 65.311625 
L 10.308857 65.311625 
z
" clip-path="url(#p783af751c3)" style="fill: #8e44ad; opacity: 0.75; stroke: #ffffff; stroke-linejoin: miter"/>
   </g>
   <g id="text_1">
    <!-- 25% -->
    <g style="fill: #c0392b" transform="translate(274.561714 206.319031) scale(0.1 -0.1)">
     <defs>
      <path id="MicrosoftYaHei-Bold-32" d="M 1500 841 
L 3553 841 
L 3553 0 
L 334 0 
L 334 359 
Q 334 738 473 1050 
Q 613 1363 856 1633 
Q 1100 1903 1613 2266 
Q 2081 2616 2268 2886 
Q 2456 3156 2456 3459 
Q 2456 4113 1744 4113 
Q 1119 4113 550 3613 
L 550 4513 
Q 1184 4922 1975 4922 
Q 2700 4922 3122 4551 
Q 3544 4181 3544 3531 
Q 3544 3169 3422 2876 
Q 3300 2584 3069 2328 
Q 2838 2072 2328 1713 
Q 1838 1363 1669 1172 
Q 1500 981 1500 841 
z
" transform="scale(0.015625)"/>
      <path id="MicrosoftYaHei-Bold-35" d="M 541 125 
L 541 997 
Q 1044 691 1613 691 
Q 2041 691 2283 902 
Q 2525 1113 2525 1472 
Q 2525 2225 1494 2225 
Q 1113 2225 616 2169 
L 797 4841 
L 3359 4841 
L 3359 4009 
L 1613 4009 
L 1544 2991 
Q 1803 3013 2022 3013 
Q 2731 3013 3142 2625 
Q 3553 2238 3553 1575 
Q 3553 844 3056 380 
Q 2559 -84 1706 -84 
Q 1016 -84 541 125 
z
" transform="scale(0.015625)"/>
      <path id="MicrosoftYaHei-Bold-25" d="M 297 3597 
Q 297 4191 626 4548 
Q 956 4906 1519 4906 
Q 2056 4906 2354 4581 
Q 2653 4256 2653 3684 
Q 2653 3097 2322 2744 
Q 1991 2391 1438 2391 
Q 919 2391 608 2722 
Q 297 3053 297 3597 
z
M 984 3631 
Q 984 2959 1478 2959 
Q 1981 2959 1981 3659 
Q 1981 4338 1500 4338 
Q 984 4338 984 3631 
z
M 4938 4841 
L 1791 -3 
L 1006 -3 
L 4147 4841 
L 4938 4841 
z
M 3297 1141 
Q 3297 1741 3631 2095 
Q 3966 2450 4522 2450 
Q 5059 2450 5357 2131 
Q 5656 1813 5656 1234 
Q 5656 641 5322 286 
Q 4988 -69 4438 -69 
Q 3922 -69 3609 264 
Q 3297 597 3297 1141 
z
M 3981 1175 
Q 3981 500 4478 500 
Q 4978 500 4978 1200 
Q 4978 1528 4845 1704 
Q 4713 1881 4491 1881 
Q 3981 1881 3981 1175 
z
" transform="scale(0.015625)"/>
     </defs>
     <use xlink:href="#MicrosoftYaHei-Bold-32"/>
     <use xlink:href="#MicrosoftYaHei-Bold-35" transform="translate(61.669922 0)"/>
     <use xlink:href="#MicrosoftYaHei-Bold-25" transform="translate(123.339844 0)"/>
    </g>
   </g>
   <g id="text_2">
    <!-- 实验原理题 -->
    <g style="fill: #2c3e50" transform="translate(7.2 191.625781) scale(0.09 -0.09)">
     <defs>
      <path id="MicrosoftYaHei-Bold-5b9e" d="M 4219 3716 
Q 4181 2422 4056 1653 
L 6238 1653 
L 6238 878 
L 3863 878 
Q 3850 841 3813 766 
Q 5019 372 6206 -66 
L 5881 -847 
Q 4619 -316 3369 153 
Q 2550 -616 863 -916 
Q 556 -384 331 -78 
Q 2338 209 2894 878 
L 169 878 
L 169 1653 
L 2144 1653 
Q 1481 2053 931 2328 
L 1319 2934 
Q 1894 2659 2638 2247 
L 2244 1653 
L 3175 1653 
Q 3331 2453 3350 3716 
L 4219 3716 
z
M 300 3078 
L 300 4703 
L 2819 4703 
Q 2700 5009 2606 5228 
L 3675 5341 
Q 3769 5084 3888 4703 
L 6094 4703 
L 6094 3078 
L 5225 3078 
L 5225 3953 
L 1169 3953 
L 1169 3078 
L 300 3078 
z
M 1813 3772 
Q 2469 3484 3163 3134 
L 2769 2497 
Q 2031 2909 1450 3184 
L 1813 3772 
z
" transform="scale(0.015625)"/>
      <path id="MicrosoftYaHei-Bold-9a8c" d="M 1138 4053 
L 969 2491 
L 1419 2491 
L 1563 4241 
L 200 4241 
L 200 4991 
L 2369 4991 
L 2163 2491 
L 2525 2491 
Q 2463 691 2413 203 
Q 2369 -553 1838 -672 
Q 1581 -709 644 -709 
Q 588 -253 519 134 
Q 906 91 1350 78 
Q 1669 78 1694 378 
Q 1731 791 1763 1741 
L 181 1741 
L 400 4053 
L 1138 4053 
z
M 5544 2647 
L 3163 2647 
L 3163 2997 
Q 2944 2797 2706 2603 
Q 2525 2991 2300 3391 
Q 3313 4134 3925 5278 
L 4875 5278 
L 4738 5053 
Q 5469 3984 6381 3466 
Q 6163 3116 5950 2691 
Q 5738 2828 5544 2984 
L 5544 2647 
z
M 2556 116 
L 4694 116 
Q 5063 1253 5250 2303 
L 6025 2103 
Q 5775 1141 5438 116 
L 6213 116 
L 6213 -634 
L 2556 -634 
L 2556 116 
z
M 3263 2172 
Q 3569 1397 3856 503 
L 3175 259 
Q 2981 978 2625 1934 
L 3263 2172 
z
M 4425 2428 
Q 4644 1584 4806 753 
L 4113 584 
Q 3988 1366 3763 2278 
L 4425 2428 
z
M 75 1216 
Q 763 1278 1525 1378 
Q 1531 984 1538 628 
Q 838 541 175 428 
L 75 1216 
z
M 4300 4347 
Q 4013 3897 3544 3384 
L 5113 3384 
Q 4663 3859 4300 4347 
z
" transform="scale(0.015625)"/>
      <path id="MicrosoftYaHei-Bold-539f" d="M 2450 1178 
L 3150 709 
Q 2894 375 2594 41 
Q 2922 9 3200 9 
Q 3525 9 3525 284 
L 3525 1253 
L 1950 1253 
L 1950 3872 
L 3006 3872 
Q 3106 4106 3184 4347 
L 1556 4347 
L 1556 2491 
Q 1556 216 775 -872 
Q 438 -528 69 -272 
Q 694 559 694 2603 
L 694 5078 
L 6250 5078 
L 6250 4347 
L 4106 4347 
Q 4003 4097 3888 3872 
L 5888 3872 
L 5888 1253 
L 4400 1253 
L 4400 34 
Q 4400 -344 4217 -547 
Q 4034 -750 3636 -767 
Q 3238 -784 2719 -778 
Q 2666 -359 2556 0 
Q 2266 -319 1938 -641 
L 1306 -84 
Q 1975 534 2450 1178 
z
M 5063 3234 
L 2775 3234 
L 2775 2853 
L 5063 2853 
L 5063 3234 
z
M 5063 1891 
L 5063 2278 
L 2775 2278 
L 2775 1891 
L 5063 1891 
z
M 5181 1203 
Q 5744 616 6325 -91 
L 5613 -609 
Q 5106 66 4531 759 
L 5181 1203 
z
" transform="scale(0.015625)"/>
      <path id="MicrosoftYaHei-Bold-7406" d="M 256 -503 
L 81 384 
L 825 553 
L 825 2091 
L 225 2091 
L 225 2866 
L 825 2866 
L 825 4178 
L 200 4178 
L 200 4966 
L 2250 4966 
L 2250 4178 
L 1625 4178 
L 1625 2866 
L 2206 2866 
L 2206 2091 
L 1625 2091 
L 1625 756 
Q 1959 847 2275 941 
Q 2250 497 2269 84 
L 3819 84 
L 3819 628 
L 2394 628 
L 2394 1341 
L 3819 1341 
L 3819 1791 
L 2425 1791 
L 2425 5034 
L 6013 5034 
L 6013 1791 
L 4619 1791 
L 4619 1341 
L 6044 1341 
L 6044 628 
L 4619 628 
L 4619 84 
L 6319 84 
L 6319 -628 
L 2031 -628 
L 2031 31 
Q 1206 -197 256 -503 
z
M 5231 4334 
L 4619 4334 
L 4619 3741 
L 5231 3741 
L 5231 4334 
z
M 3206 3741 
L 3819 3741 
L 3819 4334 
L 3206 4334 
L 3206 3741 
z
M 5231 2491 
L 5231 3091 
L 4619 3091 
L 4619 2491 
L 5231 2491 
z
M 3206 2491 
L 3819 2491 
L 3819 3091 
L 3206 3091 
L 3206 2491 
z
" transform="scale(0.015625)"/>
      <path id="MicrosoftYaHei-Bold-9898" d="M 406 5091 
L 2856 5091 
L 2856 2666 
L 406 2666 
L 406 5091 
z
M 2131 4503 
L 1131 4503 
L 1131 4141 
L 2131 4141 
L 2131 4503 
z
M 2131 3253 
L 2131 3616 
L 1131 3616 
L 1131 3253 
L 2131 3253 
z
M 3213 3966 
L 4041 3966 
Q 4084 4219 4116 4453 
L 3100 4453 
L 3100 5078 
L 6169 5078 
L 6169 4453 
L 4906 4453 
Q 4866 4206 4819 3966 
L 5981 3966 
L 5981 1341 
L 5269 1341 
L 5269 3341 
L 3925 3341 
L 3925 1347 
L 3213 1347 
L 3213 3966 
z
M 425 1491 
L 1106 1491 
Q 1109 1134 1094 822 
Q 1238 688 1394 575 
L 1394 1753 
L 138 1753 
L 138 2378 
L 3000 2378 
L 3000 1753 
L 2163 1753 
L 2163 1353 
L 2906 1353 
L 2906 741 
L 2163 741 
L 2163 178 
Q 2594 28 3172 19 
Q 2953 347 2713 609 
Q 3400 797 3831 1211 
Q 4263 1625 4263 2509 
L 4263 3072 
L 4938 3072 
L 4938 2472 
Q 4938 1956 4825 1541 
Q 5659 1050 6306 591 
L 5828 25 
L 6319 34 
Q 6175 -303 6094 -691 
Q 4706 -691 3689 -680 
Q 2672 -669 2331 -597 
Q 1991 -525 1653 -358 
Q 1316 -191 1013 66 
Q 909 -544 688 -909 
Q 463 -628 75 -266 
Q 431 278 425 1491 
z
M 3428 16 
L 5744 25 
Q 5163 506 4544 909 
Q 4166 369 3428 16 
z
" transform="scale(0.015625)"/>
     </defs>
     <use xlink:href="#MicrosoftYaHei-Bold-5b9e"/>
     <use xlink:href="#MicrosoftYaHei-Bold-9a8c" transform="translate(100 0)"/>
     <use xlink:href="#MicrosoftYaHei-Bold-539f" transform="translate(200 0)"/>
     <use xlink:href="#MicrosoftYaHei-Bold-7406" transform="translate(300 0)"/>
     <use xlink:href="#MicrosoftYaHei-Bold-9898" transform="translate(400 0)"/>
    </g>
   </g>
   <g id="text_3">
    <!-- 考实验依据 -->
    <g style="fill: #7f8c8d" transform="translate(113.937429 214.411437) scale(0.075 -0.075)">
     <defs>
      <path id="MicrosoftYaHei-8003" d="M 225 3334 
L 2413 3334 
L 2413 4128 
L 738 4128 
L 738 4553 
L 2413 4553 
L 2413 5303 
L 2900 5303 
L 2900 4553 
L 4213 4553 
L 4213 4128 
L 2900 4128 
L 2900 3334 
L 3534 3334 
Q 4500 4041 5325 4884 
L 5706 4559 
Q 5000 3900 4278 3334 
L 6200 3334 
L 6200 2903 
L 3709 2903 
Q 3350 2641 2991 2403 
L 5769 2403 
L 5769 1978 
L 2859 1978 
L 2594 1428 
L 5100 1428 
Q 4975 366 4919 128 
Q 4775 -678 3931 -678 
Q 3300 -678 2563 -653 
Q 2519 -384 2431 -109 
Q 3181 -172 3838 -172 
Q 4325 -172 4431 253 
Q 4488 484 4556 1003 
L 2100 1003 
L 2100 1428 
L 2378 1978 
L 2316 1978 
Q 1353 1403 369 984 
Q 231 1222 69 1434 
Q 1606 2053 2906 2903 
L 225 2903 
L 225 3334 
z
" transform="scale(0.015625)"/>
      <path id="MicrosoftYaHei-5b9e" d="M 113 -397 
Q 2419 34 3081 972 
L 213 972 
L 213 1434 
L 3313 1434 
Q 3525 2084 3506 3703 
L 4031 3703 
Q 4031 2097 3856 1434 
L 6225 1434 
L 6225 972 
L 3681 972 
Q 3631 872 3563 759 
Q 4900 197 6181 -403 
L 5906 -878 
Q 4569 -197 3263 391 
Q 2413 -441 413 -891 
Q 269 -616 113 -397 
z
M 331 4422 
L 3194 4422 
Q 3038 4703 2775 5078 
L 3231 5334 
Q 3438 5059 3731 4609 
L 3388 4422 
L 6063 4422 
L 6063 3303 
L 5563 3303 
L 5563 3959 
L 831 3959 
L 831 3303 
L 331 3303 
L 331 4422 
z
M 1100 2734 
Q 1819 2409 2450 2053 
L 2181 1622 
Q 1556 2003 863 2334 
L 1100 2734 
z
M 1663 3691 
Q 2388 3341 2981 2984 
L 2700 2559 
Q 2119 2934 1419 3322 
L 1663 3691 
z
" transform="scale(0.015625)"/>
      <path id="MicrosoftYaHei-9a8c" d="M 963 4116 
L 819 2397 
L 1450 2397 
L 1613 4503 
L 194 4503 
L 194 4928 
L 2088 4928 
L 1894 2397 
L 2288 2397 
Q 2244 1078 2206 228 
Q 2188 -722 1381 -722 
Q 1044 -722 588 -703 
Q 556 -472 506 -209 
Q 956 -266 1306 -266 
Q 1744 -266 1769 266 
Q 1806 953 1831 1972 
L 331 1972 
L 531 4116 
L 963 4116 
z
M 2338 -103 
L 4594 -103 
Q 5044 1009 5394 2222 
L 5869 2072 
Q 5500 953 5088 -103 
L 6188 -103 
L 6188 -534 
L 2338 -534 
L 2338 -103 
z
M 4606 5278 
L 4488 5078 
Q 5244 3734 6363 3122 
Q 6163 2872 6031 2684 
Q 4931 3497 4238 4641 
Q 3600 3509 2456 2609 
Q 2344 2772 2144 3003 
Q 3388 3866 4050 5278 
L 4606 5278 
z
M 2975 2978 
L 5550 2978 
L 5550 2547 
L 2975 2547 
L 2975 2978 
z
M 3731 2178 
L 4175 2297 
Q 4438 1359 4606 659 
L 4150 528 
Q 3969 1391 3731 2178 
z
M 2656 1897 
L 3094 2034 
Q 3400 1147 3606 453 
L 3144 297 
Q 2938 1097 2656 1897 
z
M 38 1034 
Q 763 1178 1631 1384 
Q 1625 1134 1638 941 
Q 925 791 131 572 
L 38 1034 
z
" transform="scale(0.015625)"/>
      <path id="MicrosoftYaHei-4f9d" d="M 5681 3141 
L 6038 2753 
Q 5388 2222 4644 1688 
Q 5250 531 6331 -3 
Q 6106 -253 5938 -478 
Q 4159 622 3675 3138 
Q 3413 2719 3100 2322 
L 3100 22 
Q 3631 322 4194 666 
Q 4238 366 4294 159 
Q 3650 -197 3094 -559 
Q 2906 -691 2731 -853 
L 2394 -422 
Q 2613 -216 2613 141 
L 2613 1759 
Q 2153 1266 1600 816 
Q 1494 1034 1344 1297 
Q 2784 2416 3497 3847 
L 1738 3847 
L 1738 4272 
L 6263 4272 
L 6263 3847 
L 4066 3847 
Q 4038 3791 4009 3731 
Q 4153 2831 4441 2125 
Q 5100 2613 5681 3141 
z
M 69 2272 
Q 906 3522 1369 5303 
L 1831 5166 
Q 1578 4341 1275 3625 
L 1275 -841 
L 825 -841 
L 825 2681 
Q 559 2188 263 1759 
Q 175 2022 69 2272 
z
M 3338 5116 
L 3750 5372 
Q 4075 4966 4338 4591 
L 3900 4303 
Q 3638 4741 3338 5116 
z
" transform="scale(0.015625)"/>
      <path id="MicrosoftYaHei-636e" d="M 2900 1334 
L 4188 1334 
L 4188 2128 
L 2731 2128 
Q 2663 206 1844 -841 
Q 1694 -647 1506 -447 
Q 2288 516 2288 2509 
L 2288 4947 
L 5975 4947 
L 5975 3134 
L 5525 3134 
L 5525 3328 
L 2738 3328 
L 2738 2553 
L 4188 2553 
L 4188 3209 
L 4638 3209 
L 4638 2553 
L 6288 2553 
L 6288 2128 
L 4638 2128 
L 4638 1334 
L 5938 1334 
L 5938 -778 
L 5488 -778 
L 5488 -416 
L 3350 -416 
L 3350 -778 
L 2900 -778 
L 2900 1334 
z
M 100 1966 
Q 544 2088 963 2213 
L 963 3641 
L 175 3641 
L 175 4091 
L 963 4091 
L 963 5284 
L 1425 5284 
L 1425 4091 
L 2106 4091 
L 2106 3641 
L 1425 3641 
L 1425 2356 
Q 1722 2450 2006 2547 
Q 2013 2266 2044 2059 
Q 1722 1956 1425 1856 
L 1425 -34 
Q 1425 -741 806 -753 
Q 613 -759 231 -747 
Q 206 -497 156 -228 
Q 500 -266 681 -266 
Q 963 -266 963 53 
L 963 1703 
Q 534 1559 163 1428 
L 100 1966 
z
M 5525 4534 
L 2738 4534 
L 2738 3741 
L 5525 3741 
L 5525 4534 
z
M 5488 922 
L 3350 922 
L 3350 -9 
L 5488 -9 
L 5488 922 
z
" transform="scale(0.015625)"/>
     </defs>
     <use xlink:href="#MicrosoftYaHei-8003"/>
     <use xlink:href="#MicrosoftYaHei-5b9e" transform="translate(100 0)"/>
     <use xlink:href="#MicrosoftYaHei-9a8c" transform="translate(200 0)"/>
     <use xlink:href="#MicrosoftYaHei-4f9d" transform="translate(300 0)"/>
     <use xlink:href="#MicrosoftYaHei-636e" transform="translate(400 0)"/>
    </g>
   </g>
   <g id="text_4">
    <!-- 20% -->
    <g style="fill: #2980b9" transform="translate(222.747429 173.979031) scale(0.1 -0.1)">
     <defs>
      <path id="MicrosoftYaHei-Bold-30" d="M 244 2341 
Q 244 3597 706 4259 
Q 1169 4922 2044 4922 
Q 3713 4922 3713 2453 
Q 3713 1238 3259 577 
Q 2806 -84 1950 -84 
Q 244 -84 244 2341 
z
M 1266 2366 
Q 1266 691 1981 691 
Q 2684 691 2684 2416 
Q 2684 4147 2000 4147 
Q 1266 4147 1266 2366 
z
" transform="scale(0.015625)"/>
     </defs>
     <use xlink:href="#MicrosoftYaHei-Bold-32"/>
     <use xlink:href="#MicrosoftYaHei-Bold-30" transform="translate(61.669922 0)"/>
     <use xlink:href="#MicrosoftYaHei-Bold-25" transform="translate(123.339844 0)"/>
    </g>
   </g>
   <g id="text_5">
    <!-- 步骤设计题 -->
    <g style="fill: #2c3e50" transform="translate(7.2 159.285781) scale(0.09 -0.09)">
     <defs>
      <path id="MicrosoftYaHei-Bold-6b65" d="M 156 3266 
L 1050 3266 
L 1050 4866 
L 1925 4866 
L 1925 3266 
L 2956 3266 
L 2956 5328 
L 3844 5328 
L 3844 4678 
L 5763 4678 
L 5763 3922 
L 3844 3922 
L 3844 3266 
L 6269 3266 
L 6269 2497 
L 156 2497 
L 156 3266 
z
M 5300 1966 
L 5938 1341 
Q 4031 -441 575 -859 
Q 363 -397 131 16 
Q 1700 141 2906 550 
L 2906 2353 
L 3781 2353 
L 3781 906 
Q 4666 1338 5300 1966 
z
M 1725 2266 
L 2338 1728 
Q 1575 1003 719 409 
Q 519 691 194 1066 
Q 1031 1591 1725 2266 
z
" transform="scale(0.015625)"/>
      <path id="MicrosoftYaHei-Bold-9aa4" d="M 2563 1372 
Q 2494 1728 2400 2047 
Q 4144 2066 5594 2253 
L 5806 1641 
Q 5234 1572 4550 1513 
L 4550 1428 
Q 4728 1181 4941 959 
Q 5428 1209 5900 1528 
L 6300 997 
Q 5894 753 5431 509 
Q 5831 191 6319 -59 
Q 6100 -328 5869 -678 
Q 5100 -228 4550 513 
L 4550 -816 
L 3813 -816 
L 3813 -31 
Q 3263 -497 2563 -866 
Q 2419 -603 2138 -266 
Q 2925 103 3494 609 
L 3813 284 
L 3813 1453 
L 3384 1422 
L 3725 1022 
Q 3169 597 2544 309 
Q 2438 513 2238 838 
Q 2200 -159 2101 -336 
Q 2003 -513 1856 -631 
Q 1709 -750 1166 -750 
Q 931 -750 600 -734 
Q 550 -284 481 91 
Q 931 34 1188 34 
Q 1463 34 1491 295 
Q 1519 556 1569 1791 
L 169 1791 
L 356 4072 
L 1019 4072 
L 875 2441 
L 1291 2441 
L 1425 4378 
L 206 4378 
L 206 5028 
L 2119 5028 
L 1956 2441 
L 2291 2441 
L 2238 2778 
L 2438 2791 
L 2438 4541 
L 2231 4541 
L 2231 5066 
L 4481 5066 
L 4481 4828 
L 6213 4828 
L 6213 4253 
Q 6066 3706 5766 3247 
Q 6038 2978 6325 2678 
L 5825 2241 
L 5366 2744 
Q 5097 2466 4756 2228 
Q 4613 2425 4444 2625 
L 4444 2484 
L 4275 2469 
L 4275 2178 
L 3650 2178 
L 3650 2409 
L 2319 2259 
L 2297 2391 
L 2238 841 
Q 2834 1069 3356 1422 
Q 2972 1394 2563 1372 
z
M 4319 3822 
L 4744 4197 
Q 5013 3966 5297 3700 
Q 5481 3947 5606 4241 
L 4431 4241 
L 4431 4541 
L 4275 4541 
L 4275 2959 
L 4450 2978 
Q 4450 2963 4447 2947 
Q 4688 3084 4884 3253 
Q 4578 3572 4319 3822 
z
M 3063 4278 
L 3650 4278 
L 3650 4541 
L 3063 4541 
L 3063 4278 
z
M 3063 3578 
L 3650 3578 
L 3650 3841 
L 3063 3841 
L 3063 3578 
z
M 3650 2894 
L 3650 3141 
L 3063 3141 
L 3063 2838 
L 3650 2894 
z
M 75 1284 
Q 600 1334 1344 1447 
Q 1344 909 1350 691 
Q 644 584 163 491 
L 75 1284 
z
" transform="scale(0.015625)"/>
      <path id="MicrosoftYaHei-Bold-8bbe" d="M 1100 5341 
Q 1613 4728 1994 4222 
L 1219 3697 
Q 769 4441 400 4878 
L 1100 5341 
z
M 6281 3828 
Q 6163 3322 6125 3059 
Q 5544 3047 5275 3047 
Q 4569 3047 4569 3716 
L 4569 4347 
L 3500 4347 
Q 3494 3456 2659 2753 
L 5825 2753 
L 5825 2016 
Q 5384 1147 4747 525 
Q 5441 197 6313 59 
Q 6063 -322 5825 -816 
Q 4809 -575 4006 -72 
Q 3197 -609 2150 -859 
Q 1988 -466 1663 -41 
Q 2569 156 3247 500 
Q 2716 984 2306 1622 
L 2853 1978 
L 2181 1978 
L 2181 2753 
L 2609 2753 
Q 2363 3038 1969 3416 
Q 2644 3891 2644 4703 
L 2644 5109 
L 5413 5109 
L 5413 4109 
Q 5413 3869 5561 3841 
Q 5709 3813 6281 3828 
z
M 3997 975 
Q 4534 1406 4844 1978 
L 3044 1978 
Q 3441 1391 3997 975 
z
M 2125 1553 
Q 2175 1078 2306 597 
Q 1431 -178 1019 -641 
L 563 28 
Q 694 203 700 516 
L 700 2384 
L 94 2384 
L 94 3234 
L 1544 3234 
L 1544 966 
Q 1719 1153 2125 1553 
z
" transform="scale(0.015625)"/>
      <path id="MicrosoftYaHei-Bold-8ba1" d="M 1194 5334 
Q 1681 4678 2019 4172 
L 1219 3691 
Q 913 4241 463 4916 
L 1194 5334 
z
M 2175 3428 
L 3763 3428 
L 3763 5328 
L 4700 5328 
L 4700 3428 
L 6300 3428 
L 6300 2591 
L 4700 2591 
L 4700 -847 
L 3763 -847 
L 3763 2591 
L 2175 2591 
L 2175 3428 
z
M 2481 1341 
Q 2531 759 2588 416 
Q 1388 -366 1063 -722 
L 600 -109 
Q 756 78 756 416 
L 756 2422 
L 119 2422 
L 119 3234 
L 1588 3234 
L 1588 766 
Q 1844 916 2481 1341 
z
" transform="scale(0.015625)"/>
     </defs>
     <use xlink:href="#MicrosoftYaHei-Bold-6b65"/>
     <use xlink:href="#MicrosoftYaHei-Bold-9aa4" transform="translate(100 0)"/>
     <use xlink:href="#MicrosoftYaHei-Bold-8bbe" transform="translate(200 0)"/>
     <use xlink:href="#MicrosoftYaHei-Bold-8ba1" transform="translate(300 0)"/>
     <use xlink:href="#MicrosoftYaHei-Bold-9898" transform="translate(400 0)"/>
    </g>
   </g>
   <g id="text_6">
    <!-- 考操作顺序 -->
    <g style="fill: #7f8c8d" transform="translate(113.937429 182.071437) scale(0.075 -0.075)">
     <defs>
      <path id="MicrosoftYaHei-64cd" d="M 6356 -209 
Q 6181 -434 6050 -634 
Q 4859 -166 4194 606 
L 4194 -847 
L 3781 -847 
L 3781 606 
Q 3000 -159 1850 -659 
Q 1744 -472 1563 -259 
Q 2778 169 3547 878 
L 1831 878 
L 1831 1266 
L 3781 1266 
L 3781 1647 
L 4194 1647 
L 4194 1266 
L 6231 1266 
L 6231 878 
L 4397 878 
Q 5094 153 6356 -209 
z
M 88 2016 
Q 431 2122 856 2275 
L 856 3697 
L 144 3697 
L 144 4122 
L 856 4122 
L 856 5284 
L 1319 5284 
L 1319 4122 
L 2013 4122 
L 2013 3697 
L 1319 3697 
L 1319 2447 
Q 1597 2553 1906 2678 
Q 1913 2372 1919 2184 
Q 1666 2088 1319 1953 
L 1319 -122 
Q 1319 -747 731 -766 
Q 494 -778 138 -766 
Q 106 -516 56 -266 
Q 406 -303 631 -303 
Q 856 -303 856 -66 
L 856 1769 
Q 534 1644 156 1491 
L 88 2016 
z
M 2538 5041 
L 5500 5041 
L 5500 3509 
L 5050 3509 
L 5050 3678 
L 2988 3678 
L 2988 3509 
L 2538 3509 
L 2538 5041 
z
M 4263 3253 
L 5950 3253 
L 5950 1716 
L 5563 1716 
L 5563 1909 
L 4650 1909 
L 4650 1734 
L 4263 1734 
L 4263 3253 
z
M 2094 3241 
L 3744 3241 
L 3744 1734 
L 3356 1734 
L 3356 1903 
L 2481 1903 
L 2481 1716 
L 2094 1716 
L 2094 3241 
z
M 5050 4666 
L 2988 4666 
L 2988 4053 
L 5050 4053 
L 5050 4666 
z
M 5563 2891 
L 4650 2891 
L 4650 2272 
L 5563 2272 
L 5563 2891 
z
M 3356 2878 
L 2481 2878 
L 2481 2266 
L 3356 2266 
L 3356 2878 
z
" transform="scale(0.015625)"/>
      <path id="MicrosoftYaHei-4f5c" d="M 1806 2784 
Q 2638 3922 3031 5322 
L 3544 5228 
Q 3397 4747 3213 4297 
L 6294 4297 
L 6294 3859 
L 4019 3859 
L 4019 2766 
L 6044 2766 
L 6044 2328 
L 4019 2328 
L 4019 1191 
L 6125 1191 
L 6125 753 
L 4019 753 
L 4019 -822 
L 3531 -822 
L 3531 3859 
L 3022 3859 
Q 2669 3097 2200 2428 
Q 2025 2597 1806 2784 
z
M 69 2209 
Q 950 3516 1463 5303 
L 1975 5153 
Q 1734 4416 1463 3769 
L 1463 -822 
L 975 -822 
L 975 2750 
Q 659 2159 306 1672 
Q 213 1909 69 2209 
z
" transform="scale(0.015625)"/>
      <path id="MicrosoftYaHei-987a" d="M 3175 3728 
L 4131 3728 
L 4288 4516 
L 2963 4516 
L 2963 4941 
L 6281 4941 
L 6281 4516 
L 4788 4516 
L 4606 3728 
L 6006 3728 
L 6006 572 
L 5556 572 
L 5556 3303 
L 3625 3303 
L 3625 572 
L 3175 572 
L 3175 3728 
z
M 4388 2916 
L 4838 2916 
Q 4838 1434 4750 1066 
Q 4719 878 4663 709 
Q 5588 122 6344 -447 
L 6019 -853 
Q 5313 -272 4481 303 
Q 4056 -466 3038 -916 
Q 2913 -734 2731 -516 
Q 4119 72 4300 1153 
Q 4388 1497 4388 2916 
z
M 513 5116 
L 950 5116 
L 950 2728 
Q 950 191 406 -841 
Q 225 -659 44 -497 
Q 513 403 513 2441 
L 513 5116 
z
M 2225 5141 
L 2663 5141 
L 2663 -591 
L 2225 -591 
L 2225 5141 
z
M 1363 4928 
L 1800 4928 
L 1800 -303 
L 1363 -303 
L 1363 4928 
z
" transform="scale(0.015625)"/>
      <path id="MicrosoftYaHei-5e8f" d="M 1438 1966 
L 3634 1966 
Q 3053 2394 2525 2722 
L 2825 3041 
Q 3294 2756 3719 2478 
L 4850 3147 
L 1806 3147 
L 1806 3597 
L 5756 3597 
L 5756 3141 
L 4141 2191 
Q 4219 2138 4294 2084 
L 4128 1966 
L 6181 1966 
L 6181 1503 
L 5638 384 
Q 5450 484 5175 609 
L 5619 1509 
L 4119 1509 
L 4119 22 
Q 4119 -734 3400 -734 
Q 3019 -734 2463 -722 
Q 2438 -509 2388 -184 
Q 2881 -253 3250 -253 
Q 3606 -253 3606 103 
L 3606 1509 
L 1438 1509 
L 1438 1966 
z
M 2981 5147 
L 3431 5391 
Q 3675 5078 3881 4747 
L 3584 4572 
L 6244 4572 
L 6244 4116 
L 1263 4116 
L 1263 2416 
Q 1263 191 406 -872 
Q 256 -666 50 -447 
Q 738 353 738 2291 
L 738 4572 
L 3369 4572 
Q 3178 4884 2981 5147 
z
" transform="scale(0.015625)"/>
     </defs>
     <use xlink:href="#MicrosoftYaHei-8003"/>
     <use xlink:href="#MicrosoftYaHei-64cd" transform="translate(100 0)"/>
     <use xlink:href="#MicrosoftYaHei-4f5c" transform="translate(200 0)"/>
     <use xlink:href="#MicrosoftYaHei-987a" transform="translate(300 0)"/>
     <use xlink:href="#MicrosoftYaHei-5e8f" transform="translate(400 0)"/>
    </g>
   </g>
   <g id="text_7">
    <!-- 25% -->
    <g style="fill: #27ae60" transform="translate(274.561714 141.639031) scale(0.1 -0.1)">
     <use xlink:href="#MicrosoftYaHei-Bold-32"/>
     <use xlink:href="#MicrosoftYaHei-Bold-35" transform="translate(61.669922 0)"/>
     <use xlink:href="#MicrosoftYaHei-Bold-25" transform="translate(123.339844 0)"/>
    </g>
   </g>
   <g id="text_8">
    <!-- 数据分析题 -->
    <g style="fill: #2c3e50" transform="translate(7.2 126.945781) scale(0.09 -0.09)">
     <defs>
      <path id="MicrosoftYaHei-Bold-6570" d="M 238 4091 
L 725 4091 
Q 559 4425 281 4803 
L 844 5153 
Q 1038 4922 1369 4428 
L 806 4091 
L 1506 4091 
L 1506 5316 
L 2300 5316 
L 2300 4091 
L 2956 4091 
L 2438 4428 
Q 2750 4809 2963 5172 
L 3550 4822 
Q 3341 4466 3031 4091 
L 3394 4091 
L 3394 3453 
L 2300 3453 
L 2300 3016 
L 2513 3303 
Q 2903 3094 3253 2891 
Q 3766 3841 4138 5347 
L 4994 5266 
Q 4869 4781 4728 4341 
L 6294 4341 
L 6294 3578 
L 6041 3578 
Q 5906 1922 5338 856 
Q 5738 391 6319 53 
Q 6094 -203 5775 -778 
Q 5228 -413 4828 109 
Q 4313 -497 3631 -872 
Q 3378 -513 3072 -197 
L 2850 -566 
Q 2475 -350 2031 -128 
Q 1347 -584 394 -778 
Q 281 -434 63 -9 
Q 716 59 1213 253 
Q 781 444 300 641 
Q 513 950 681 1259 
L 169 1259 
L 169 1897 
L 991 1897 
Q 1094 2144 1169 2391 
L 1506 2359 
L 1506 2959 
Q 1044 2472 344 2053 
Q 213 2472 50 2803 
Q 672 3044 1172 3453 
L 238 3453 
L 238 4091 
z
M 4394 3400 
Q 4519 2359 4831 1659 
Q 5203 2478 5275 3578 
L 4463 3578 
Q 4431 3488 4394 3400 
z
M 2300 2216 
L 1984 2216 
Q 1913 2063 1825 1897 
L 3281 1897 
L 3281 1316 
Q 3038 806 2672 413 
L 3294 166 
L 3169 -38 
Q 3859 322 4347 894 
Q 4041 1522 3878 2300 
Q 3769 2103 3656 1922 
Q 3513 2172 3322 2438 
L 3138 2159 
Q 2750 2422 2300 2691 
L 2300 2216 
z
M 1300 934 
L 1950 691 
Q 2231 934 2413 1259 
L 1484 1259 
L 1300 934 
z
" transform="scale(0.015625)"/>
      <path id="MicrosoftYaHei-Bold-636e" d="M 6294 1916 
L 4869 1916 
L 4869 1391 
L 5919 1391 
L 5919 -853 
L 5181 -853 
L 5181 -541 
L 3788 -541 
L 3788 -853 
L 3050 -853 
L 3050 1391 
L 4081 1391 
L 4081 1916 
L 2988 1916 
Q 2875 203 2188 -803 
Q 1925 -459 1625 -166 
Q 2250 928 2250 2803 
L 2250 5084 
L 6031 5084 
L 6031 3128 
L 4869 3128 
L 4869 2572 
L 6294 2572 
L 6294 1916 
z
M 169 4147 
L 763 4147 
L 763 5253 
L 1519 5253 
L 1519 4147 
L 2056 4147 
L 2056 3347 
L 1519 3347 
L 1519 2472 
Q 1788 2528 2088 2603 
Q 2056 2103 2063 1791 
Q 1788 1722 1519 1653 
L 1519 -59 
Q 1519 -753 950 -772 
Q 619 -803 313 -791 
Q 250 -422 131 22 
Q 338 16 550 9 
Q 763 3 763 309 
L 763 1459 
Q 463 1378 163 1303 
L 94 2166 
Q 375 2222 763 2303 
L 763 3347 
L 169 3347 
L 169 4147 
z
M 5263 3784 
L 5263 4428 
L 3013 4428 
L 3013 3784 
L 5263 3784 
z
M 5181 734 
L 3788 734 
L 3788 116 
L 5181 116 
L 5181 734 
z
M 4081 2572 
L 4081 3128 
L 3013 3128 
L 3013 2572 
L 4081 2572 
z
" transform="scale(0.015625)"/>
      <path id="MicrosoftYaHei-Bold-5206" d="M 6350 3028 
Q 6088 2703 5750 2228 
Q 5519 2409 5303 2603 
Q 5219 606 5172 190 
Q 5125 -225 4862 -451 
Q 4600 -678 4128 -678 
Q 3484 -678 2913 -659 
Q 2856 -141 2781 284 
Q 3594 216 3956 216 
Q 4172 216 4230 408 
Q 4288 600 4325 1978 
L 2781 1978 
Q 2728 1100 2529 631 
Q 2331 163 1907 -215 
Q 1484 -594 844 -872 
Q 456 -353 194 -78 
Q 750 144 1111 414 
Q 1472 684 1630 989 
Q 1788 1294 1841 1978 
L 950 1978 
L 950 2475 
Q 794 2356 631 2247 
Q 344 2653 63 2953 
Q 1475 3947 2194 5316 
L 3031 4953 
Q 2378 3722 1391 2841 
L 5047 2841 
Q 4088 3766 3463 4903 
L 4238 5303 
Q 5038 3922 6350 3028 
z
" transform="scale(0.015625)"/>
      <path id="MicrosoftYaHei-Bold-6790" d="M 94 1559 
Q 653 2478 878 3297 
L 150 3297 
L 150 4116 
L 888 4116 
L 888 5266 
L 1725 5266 
L 1725 4116 
L 2363 4116 
L 2363 3297 
L 1725 3297 
L 1725 2722 
Q 2256 2453 2594 2253 
L 2181 1528 
Q 1978 1678 1725 1841 
L 1725 -822 
L 888 -822 
L 888 1563 
Q 653 1003 319 459 
Q 225 997 94 1559 
z
M 5963 5191 
L 6238 4353 
Q 5244 4178 3506 4041 
L 3506 3091 
L 6306 3091 
L 6306 2266 
L 5275 2266 
L 5275 -791 
L 4425 -791 
L 4425 2266 
L 3506 2266 
Q 3506 281 2656 -859 
Q 2331 -453 1988 -141 
Q 2656 716 2656 2216 
L 2656 4859 
Q 4756 4966 5963 5191 
z
" transform="scale(0.015625)"/>
     </defs>
     <use xlink:href="#MicrosoftYaHei-Bold-6570"/>
     <use xlink:href="#MicrosoftYaHei-Bold-636e" transform="translate(100 0)"/>
     <use xlink:href="#MicrosoftYaHei-Bold-5206" transform="translate(200 0)"/>
     <use xlink:href="#MicrosoftYaHei-Bold-6790" transform="translate(300 0)"/>
     <use xlink:href="#MicrosoftYaHei-Bold-9898" transform="translate(400 0)"/>
    </g>
   </g>
   <g id="text_9">
    <!-- 考读图读表 -->
    <g style="fill: #7f8c8d" transform="translate(113.937429 149.731437) scale(0.075 -0.075)">
     <defs>
      <path id="MicrosoftYaHei-8bfb" d="M 1844 3516 
L 3750 3516 
L 3750 4141 
L 2075 4141 
L 2075 4578 
L 3750 4578 
L 3750 5303 
L 4225 5303 
L 4225 4578 
L 6013 4578 
L 6013 4141 
L 4225 4141 
L 4225 3516 
L 6138 3516 
L 6063 2291 
Q 5838 2316 5581 2322 
L 5650 3078 
L 1844 3078 
L 1844 3516 
z
M 1794 1291 
L 4063 1291 
Q 4188 1803 4156 2916 
L 4631 2916 
Q 4650 1741 4556 1291 
L 6219 1291 
L 6219 853 
L 4463 853 
Q 4419 734 4369 634 
Q 5300 134 6200 -391 
L 5888 -816 
Q 4950 -222 4125 247 
Q 3563 -434 2044 -884 
Q 1906 -666 1731 -434 
Q 3544 53 3950 853 
L 1794 853 
L 1794 1291 
z
M 2025 672 
Q 2038 384 2069 128 
Q 1381 -316 913 -691 
L 625 -278 
Q 838 -91 838 259 
L 838 2678 
L 88 2678 
L 88 3128 
L 1306 3128 
L 1306 166 
Q 1619 378 2025 672 
z
M 813 5147 
Q 1288 4672 1763 4141 
L 1331 3784 
Q 894 4334 431 4834 
L 813 5147 
z
M 2056 1997 
L 2281 2334 
Q 2869 2053 3425 1728 
L 3181 1353 
Q 2675 1678 2056 1997 
z
M 2513 2678 
L 2744 3022 
Q 3331 2734 3869 2434 
L 3619 2053 
Q 3088 2384 2513 2678 
z
" transform="scale(0.015625)"/>
      <path id="MicrosoftYaHei-56fe" d="M 431 5072 
L 5944 5072 
L 5944 -809 
L 5475 -809 
L 5475 -509 
L 900 -509 
L 900 -809 
L 431 -809 
L 431 5072 
z
M 5475 4622 
L 900 4622 
L 900 -59 
L 5475 -59 
L 5475 4622 
z
M 1113 3091 
Q 1969 3709 2519 4547 
L 2931 4353 
Q 2816 4181 2681 4016 
L 4894 4016 
L 4894 3647 
Q 4434 3091 3722 2644 
Q 4381 2422 5338 2297 
Q 5194 2016 5131 1828 
Q 4022 2081 3256 2400 
Q 2491 2056 1225 1728 
Q 1138 1934 1013 2128 
Q 2109 2353 2825 2644 
Q 2384 2947 2066 3341 
Q 1769 3056 1419 2784 
Q 1294 2916 1113 3091 
z
M 1563 672 
L 1694 1103 
Q 3256 897 4700 622 
L 4531 147 
Q 3150 453 1563 672 
z
M 4275 3628 
L 2347 3628 
Q 2338 3616 2328 3606 
Q 2691 3141 3244 2841 
Q 3891 3188 4275 3628 
z
M 2219 1503 
L 2344 1922 
Q 3263 1784 4275 1609 
L 4144 1172 
Q 3119 1378 2219 1503 
z
" transform="scale(0.015625)"/>
      <path id="MicrosoftYaHei-8868" d="M 5519 1891 
L 5863 1459 
L 4466 759 
Q 5200 159 6306 -34 
Q 6094 -309 5956 -534 
Q 3941 -53 3066 1944 
Q 2747 1538 2338 1172 
L 2338 -166 
Q 3163 103 3869 397 
Q 3863 122 3875 -147 
Q 3125 -403 2325 -709 
Q 2156 -778 1994 -872 
L 1700 -416 
Q 1875 -291 1875 -66 
L 1875 794 
Q 1228 309 406 -84 
Q 269 134 88 347 
Q 1703 1009 2625 2122 
L 156 2122 
L 156 2553 
L 2956 2553 
L 2956 3191 
L 600 3191 
L 600 3622 
L 2956 3622 
L 2956 4234 
L 350 4234 
L 350 4666 
L 2956 4666 
L 2956 5366 
L 3450 5366 
L 3450 4666 
L 6069 4666 
L 6069 4234 
L 3450 4234 
L 3450 3622 
L 5800 3622 
L 5800 3191 
L 3450 3191 
L 3450 2553 
L 6244 2553 
L 6244 2122 
L 3466 2122 
Q 3728 1513 4141 1066 
Q 4769 1378 5519 1891 
z
" transform="scale(0.015625)"/>
     </defs>
     <use xlink:href="#MicrosoftYaHei-8003"/>
     <use xlink:href="#MicrosoftYaHei-8bfb" transform="translate(100 0)"/>
     <use xlink:href="#MicrosoftYaHei-56fe" transform="translate(200 0)"/>
     <use xlink:href="#MicrosoftYaHei-8bfb" transform="translate(300 0)"/>
     <use xlink:href="#MicrosoftYaHei-8868" transform="translate(400 0)"/>
    </g>
   </g>
   <g id="text_10">
    <!-- 15% -->
    <g style="fill: #e67e22" transform="translate(170.933143 109.299031) scale(0.1 -0.1)">
     <defs>
      <path id="MicrosoftYaHei-Bold-31" d="M 2716 4947 
L 2716 0 
L 1700 0 
L 1700 3809 
Q 1513 3647 1188 3517 
Q 863 3388 591 3356 
L 591 4222 
Q 1447 4472 2072 4947 
L 2716 4947 
z
" transform="scale(0.015625)"/>
     </defs>
     <use xlink:href="#MicrosoftYaHei-Bold-31"/>
     <use xlink:href="#MicrosoftYaHei-Bold-35" transform="translate(61.669922 0)"/>
     <use xlink:href="#MicrosoftYaHei-Bold-25" transform="translate(123.339844 0)"/>
    </g>
   </g>
   <g id="text_11">
    <!-- 误差分析题 -->
    <g style="fill: #2c3e50" transform="translate(7.2 94.605781) scale(0.09 -0.09)">
     <defs>
      <path id="MicrosoftYaHei-Bold-8bef" d="M 1056 5322 
Q 1506 4728 1863 4172 
L 1056 3691 
Q 763 4247 300 4884 
L 1056 5322 
z
M 2244 5066 
L 5944 5066 
L 5944 3066 
L 2244 3066 
L 2244 5066 
z
M 5113 4341 
L 3081 4341 
L 3081 3791 
L 5113 3791 
L 5113 4341 
z
M 1831 1222 
Q 1825 647 1913 253 
Q 1331 -166 944 -559 
L 469 59 
Q 619 209 619 559 
L 619 2422 
L 113 2422 
L 113 3234 
L 1463 3234 
L 1463 866 
Q 1675 1066 1831 1222 
z
M 6075 1984 
L 4456 1984 
Q 4456 1728 4425 1509 
L 6288 1509 
L 6288 803 
L 4769 803 
Q 5303 203 6319 3 
Q 6063 -397 5825 -847 
Q 4713 -475 4122 531 
Q 3575 -475 2131 -878 
Q 1956 -541 1631 -84 
Q 2925 166 3359 803 
L 1931 803 
L 1931 1509 
L 3644 1509 
Q 3684 1731 3688 1984 
L 2113 1984 
L 2113 2691 
L 6075 2691 
L 6075 1984 
z
" transform="scale(0.015625)"/>
      <path id="MicrosoftYaHei-Bold-5dee" d="M 1013 72 
L 3206 72 
L 3206 722 
L 1788 722 
L 1788 866 
Q 1213 269 444 -241 
Q 263 322 88 678 
Q 941 1150 1506 1803 
L 256 1803 
L 256 2478 
L 1988 2478 
Q 2094 2659 2181 2853 
L 656 2853 
L 656 3528 
L 2425 3528 
Q 2478 3713 2516 3903 
L 381 3903 
L 381 4578 
L 1675 4578 
Q 1513 4888 1363 5134 
L 2225 5347 
L 2672 4578 
L 3759 4578 
Q 4016 5016 4188 5341 
L 5113 5116 
L 4719 4578 
L 6038 4578 
L 6038 3903 
L 3366 3903 
Q 3331 3713 3284 3528 
L 5763 3528 
L 5763 2853 
L 3072 2853 
Q 3000 2663 2913 2478 
L 6163 2478 
L 6163 1803 
L 2534 1803 
Q 2406 1603 2256 1409 
L 5700 1409 
L 5700 722 
L 4094 722 
L 4094 72 
L 6231 72 
L 6231 -628 
L 1013 -628 
L 1013 72 
z
" transform="scale(0.015625)"/>
     </defs>
     <use xlink:href="#MicrosoftYaHei-Bold-8bef"/>
     <use xlink:href="#MicrosoftYaHei-Bold-5dee" transform="translate(100 0)"/>
     <use xlink:href="#MicrosoftYaHei-Bold-5206" transform="translate(200 0)"/>
     <use xlink:href="#MicrosoftYaHei-Bold-6790" transform="translate(300 0)"/>
     <use xlink:href="#MicrosoftYaHei-Bold-9898" transform="translate(400 0)"/>
    </g>
   </g>
   <g id="text_12">
    <!-- 考误差原因 -->
    <g style="fill: #7f8c8d" transform="translate(113.937429 117.391437) scale(0.075 -0.075)">
     <defs>
      <path id="MicrosoftYaHei-8bef" d="M 1819 1484 
L 3706 1484 
Q 3750 1769 3756 2222 
L 2044 2222 
L 2044 2659 
L 6069 2659 
L 6069 2222 
L 4244 2222 
Q 4234 1753 4203 1484 
L 6288 1484 
L 6288 1047 
L 4356 1047 
Q 4913 -53 6363 -359 
Q 6138 -628 5981 -828 
Q 4538 -406 3984 850 
Q 3569 -272 1969 -847 
Q 1819 -653 1631 -441 
Q 3188 53 3588 1047 
L 1819 1047 
L 1819 1484 
z
M 2325 5034 
L 5750 5034 
L 5750 2991 
L 5275 2991 
L 5275 3272 
L 2800 3272 
L 2800 2991 
L 2325 2991 
L 2325 5034 
z
M 2044 784 
Q 2063 459 2088 247 
Q 1294 -272 925 -584 
L 631 -166 
Q 844 9 844 378 
L 844 2716 
L 100 2716 
L 100 3166 
L 1325 3166 
L 1325 284 
Q 1763 578 2044 784 
z
M 5275 4616 
L 2800 4616 
L 2800 3691 
L 5275 3691 
L 5275 4616 
z
M 831 5153 
Q 1281 4697 1725 4184 
L 1294 3822 
Q 881 4347 450 4822 
L 831 5153 
z
" transform="scale(0.015625)"/>
      <path id="MicrosoftYaHei-5dee" d="M 1094 -172 
L 3419 -172 
L 3419 891 
L 1813 891 
L 1813 1088 
Q 1200 394 331 -197 
Q 206 3 31 247 
Q 1213 1028 1859 1984 
L 200 1984 
L 200 2409 
L 2119 2409 
Q 2275 2694 2409 3028 
L 638 3028 
L 638 3447 
L 2569 3447 
Q 2666 3728 2750 4041 
L 488 4041 
L 488 4466 
L 2075 4466 
Q 1813 4797 1513 5122 
L 1869 5397 
Q 2231 5047 2563 4672 
L 2278 4466 
L 4219 4466 
L 3975 4684 
Q 4344 5047 4631 5403 
L 5056 5122 
Q 4738 4772 4413 4466 
L 6050 4466 
L 6050 4041 
L 3291 4041 
Q 3206 3731 3109 3447 
L 5813 3447 
L 5813 3028 
L 2963 3028 
Q 2838 2700 2697 2409 
L 6294 2409 
L 6294 1984 
L 2469 1984 
Q 2259 1634 1997 1309 
L 5613 1309 
L 5613 891 
L 3925 891 
L 3925 -172 
L 6213 -172 
L 6213 -597 
L 1094 -597 
L 1094 -172 
z
" transform="scale(0.015625)"/>
      <path id="MicrosoftYaHei-539f" d="M 1950 3853 
L 3081 3853 
Q 3200 4153 3306 4472 
L 1256 4472 
L 1256 2772 
Q 1256 1322 1088 634 
Q 919 -103 394 -866 
Q 238 -653 44 -434 
Q 475 209 613 834 
Q 756 1428 756 2659 
L 756 4928 
L 6219 4928 
L 6219 4472 
L 3856 4472 
Q 3716 4134 3584 3853 
L 5719 3853 
L 5719 1291 
L 5250 1291 
L 5250 1416 
L 4094 1416 
L 4094 16 
Q 4094 -772 3381 -766 
Q 3163 -766 2594 -753 
Q 2569 -516 2513 -209 
Q 3000 -272 3281 -272 
Q 3594 -272 3594 91 
L 3594 1416 
L 2419 1416 
L 2419 1291 
L 1950 1291 
L 1950 3853 
z
M 2419 1834 
L 5250 1834 
L 5250 2434 
L 2419 2434 
L 2419 1834 
z
M 5250 3434 
L 2419 3434 
L 2419 2841 
L 5250 2841 
L 5250 3434 
z
M 2488 1172 
L 2919 891 
Q 2313 -9 1613 -703 
Q 1450 -566 1206 -397 
Q 1838 184 2488 1172 
z
M 4925 1159 
Q 5738 391 6313 -266 
L 5894 -641 
Q 5294 122 4556 859 
L 4925 1159 
z
" transform="scale(0.015625)"/>
      <path id="MicrosoftYaHei-56e0" d="M 525 4934 
L 5869 4934 
L 5869 -834 
L 5369 -834 
L 5369 -434 
L 1025 -434 
L 1025 -834 
L 525 -834 
L 525 4934 
z
M 5369 4466 
L 1025 4466 
L 1025 22 
L 5369 22 
L 5369 4466 
z
M 1400 3209 
L 2944 3209 
L 2944 4259 
L 3419 4259 
L 3419 3209 
L 5000 3209 
L 5000 2772 
L 3400 2772 
Q 3388 2522 3331 2291 
Q 4206 1591 5131 778 
L 4750 384 
Q 4031 1116 3194 1853 
Q 2788 866 1550 266 
Q 1381 497 1219 684 
Q 2844 1416 2925 2772 
L 1400 2772 
L 1400 3209 
z
" transform="scale(0.015625)"/>
     </defs>
     <use xlink:href="#MicrosoftYaHei-8003"/>
     <use xlink:href="#MicrosoftYaHei-8bef" transform="translate(100 0)"/>
     <use xlink:href="#MicrosoftYaHei-5dee" transform="translate(200 0)"/>
     <use xlink:href="#MicrosoftYaHei-539f" transform="translate(300 0)"/>
     <use xlink:href="#MicrosoftYaHei-56e0" transform="translate(400 0)"/>
    </g>
   </g>
   <g id="text_13">
    <!-- 15% -->
    <g style="fill: #8e44ad" transform="translate(170.933143 76.959031) scale(0.1 -0.1)">
     <use xlink:href="#MicrosoftYaHei-Bold-31"/>
     <use xlink:href="#MicrosoftYaHei-Bold-35" transform="translate(61.669922 0)"/>
     <use xlink:href="#MicrosoftYaHei-Bold-25" transform="translate(123.339844 0)"/>
    </g>
   </g>
   <g id="text_14">
    <!-- 结论表述题 -->
    <g style="fill: #2c3e50" transform="translate(7.2 62.265781) scale(0.09 -0.09)">
     <defs>
      <path id="MicrosoftYaHei-Bold-7ed3" d="M 2538 3128 
L 3850 3128 
L 3850 3809 
L 2472 3809 
L 2681 3709 
Q 1906 2528 1350 1784 
Q 1800 1841 2313 1891 
Q 2275 1466 2263 1116 
Q 894 966 400 834 
L 156 1534 
Q 553 1884 1100 2697 
Q 631 2663 288 2616 
L 56 3328 
Q 550 3934 1138 5366 
L 1963 5059 
Q 1469 4134 988 3397 
L 1563 3425 
L 1938 4066 
L 2350 3869 
L 2350 4553 
L 3850 4553 
L 3850 5341 
L 4725 5341 
L 4725 4553 
L 6288 4553 
L 6288 3809 
L 4725 3809 
L 4725 3128 
L 6100 3128 
L 6100 2384 
L 2538 2384 
L 2538 3128 
z
M 2594 -841 
L 2594 1847 
L 6025 1847 
L 6025 -841 
L 5188 -841 
L 5188 -472 
L 3431 -472 
L 3431 -841 
L 2594 -841 
z
M 5188 1084 
L 3431 1084 
L 3431 291 
L 5188 291 
L 5188 1084 
z
M 231 -516 
L 94 359 
Q 1175 497 2406 684 
Q 2369 159 2375 -184 
Q 1263 -341 231 -516 
z
" transform="scale(0.015625)"/>
      <path id="MicrosoftYaHei-Bold-8bba" d="M 6331 3391 
Q 6044 2941 5869 2541 
Q 4719 3328 4088 4384 
Q 3513 3528 2756 2878 
L 3450 2878 
L 3450 1928 
Q 4275 2272 5056 2809 
L 5613 2116 
Q 4550 1497 3450 1091 
L 3450 516 
Q 3444 91 3875 91 
L 4619 91 
Q 5056 91 5119 497 
Q 5181 853 5225 1347 
Q 5625 1203 6144 1059 
Q 6013 272 5913 -53 
Q 5744 -697 4856 -697 
L 3469 -697 
Q 2575 -697 2575 309 
L 2575 2722 
Q 2413 2597 2250 2484 
Q 2088 2841 1788 3284 
Q 3006 4084 3675 5259 
L 4713 5259 
L 4594 5072 
Q 5338 3897 6331 3391 
z
M 2244 1247 
Q 2313 653 2388 309 
Q 1463 -366 1044 -791 
L 594 -172 
Q 731 -3 738 341 
L 738 2391 
L 125 2391 
L 125 3234 
L 1594 3234 
L 1594 741 
Q 1781 878 2244 1247 
z
M 1213 5278 
Q 1619 4753 2050 4128 
Q 1781 3953 1238 3622 
Q 856 4297 481 4847 
L 1213 5278 
z
" transform="scale(0.015625)"/>
      <path id="MicrosoftYaHei-Bold-8868" d="M 5925 1259 
L 4825 684 
Q 5459 291 6313 109 
Q 5994 -291 5744 -666 
Q 4638 -309 3894 344 
Q 3878 -91 3888 -328 
Q 2419 -678 1856 -884 
L 1500 -172 
Q 1675 3 1675 403 
L 1675 522 
Q 1078 94 363 -278 
Q 219 203 69 591 
Q 1206 1109 2044 1891 
L 150 1891 
L 150 2591 
L 2750 2591 
L 2750 3003 
L 625 3003 
L 625 3703 
L 2750 3703 
L 2750 4116 
L 363 4116 
L 363 4816 
L 2750 4816 
L 2750 5353 
L 3631 5353 
L 3631 4816 
L 6044 4816 
L 6044 4116 
L 3631 4116 
L 3631 3703 
L 5750 3703 
L 5750 3003 
L 3631 3003 
L 3631 2591 
L 6244 2591 
L 6244 1891 
L 5453 1891 
L 5925 1259 
z
M 4209 1169 
Q 4600 1391 5284 1891 
L 3647 1891 
Q 3888 1488 4209 1169 
z
M 2916 1619 
Q 2722 1406 2506 1203 
L 2506 166 
L 3713 513 
Q 3225 994 2916 1619 
z
" transform="scale(0.015625)"/>
      <path id="MicrosoftYaHei-Bold-8ff0" d="M 2000 4066 
L 3575 4066 
L 3575 5316 
L 4413 5316 
L 4413 4066 
L 5322 4066 
Q 4991 4369 4631 4672 
L 5150 5172 
Q 5688 4703 5963 4441 
L 5572 4066 
L 6088 4066 
L 6088 3328 
L 4413 3328 
L 4413 2591 
L 4875 2991 
L 6300 1491 
L 5688 928 
L 4413 2441 
L 4413 291 
L 3575 291 
L 3575 2306 
Q 3031 1463 2356 809 
Q 2019 1166 1713 1441 
Q 2784 2209 3450 3328 
L 2000 3328 
L 2000 4066 
z
M 1025 5228 
Q 1494 4616 1869 4078 
L 1138 3584 
Q 756 4234 356 4816 
L 1025 5228 
z
M 6306 141 
Q 6131 -353 6044 -691 
Q 5416 -703 4088 -703 
L 3097 -703 
Q 2484 -703 2014 -553 
Q 1544 -403 1238 -103 
Q 819 -522 513 -847 
L 156 109 
L 781 644 
L 781 2472 
L 125 2472 
L 125 3266 
L 1600 3266 
L 1600 634 
Q 2084 97 3106 97 
Q 5872 97 6306 141 
z
" transform="scale(0.015625)"/>
     </defs>
     <use xlink:href="#MicrosoftYaHei-Bold-7ed3"/>
     <use xlink:href="#MicrosoftYaHei-Bold-8bba" transform="translate(100 0)"/>
     <use xlink:href="#MicrosoftYaHei-Bold-8868" transform="translate(200 0)"/>
     <use xlink:href="#MicrosoftYaHei-Bold-8ff0" transform="translate(300 0)"/>
     <use xlink:href="#MicrosoftYaHei-Bold-9898" transform="translate(400 0)"/>
    </g>
   </g>
   <g id="text_15">
    <!-- 考总结结论 -->
    <g style="fill: #7f8c8d" transform="translate(113.937429 85.051437) scale(0.075 -0.075)">
     <defs>
      <path id="MicrosoftYaHei-603b" d="M 900 4253 
L 3631 4253 
Q 4022 4822 4331 5353 
L 4813 5103 
Q 4500 4675 4175 4253 
L 5500 4253 
L 5500 1703 
L 5000 1703 
L 5000 1978 
L 1400 1978 
L 1400 1703 
L 900 1703 
L 900 4253 
z
M 5000 3803 
L 1400 3803 
L 1400 2428 
L 5000 2428 
L 5000 3803 
z
M 1694 1378 
L 2181 1378 
L 2181 284 
Q 2181 -203 2619 -203 
L 3875 -203 
Q 4244 -203 4338 172 
Q 4394 366 4450 872 
Q 4631 791 4931 684 
Q 4850 209 4750 -97 
Q 4556 -641 3900 -641 
L 2519 -641 
Q 1694 -641 1694 197 
L 1694 1378 
z
M 719 1422 
L 1188 1272 
Q 931 491 538 -334 
Q 338 -247 81 -134 
Q 444 597 719 1422 
z
M 4881 1203 
L 5238 1478 
Q 5813 841 6319 197 
L 5900 -134 
Q 5456 491 4881 1203 
z
M 2663 1591 
L 3044 1841 
Q 3488 1372 3863 841 
L 3444 547 
Q 3069 1109 2663 1591 
z
M 1594 5109 
L 1975 5353 
Q 2350 4959 2650 4541 
L 2225 4266 
Q 1956 4653 1594 5109 
z
" transform="scale(0.015625)"/>
      <path id="MicrosoftYaHei-7ed3" d="M 2625 1709 
L 5925 1709 
L 5925 -828 
L 5438 -828 
L 5438 -441 
L 3113 -441 
L 3113 -828 
L 2625 -828 
L 2625 1709 
z
M 2500 2897 
L 4025 2897 
L 4025 3872 
L 2294 3872 
L 2294 4322 
L 4025 4322 
L 4025 5322 
L 4525 5322 
L 4525 4322 
L 6275 4322 
L 6275 3872 
L 4525 3872 
L 4525 2897 
L 6056 2897 
L 6056 2447 
L 2500 2447 
L 2500 2897 
z
M 894 1566 
Q 1725 1684 2269 1778 
Q 2231 1534 2213 1303 
Q 1519 1203 319 1009 
L 219 1472 
Q 619 1888 1172 2791 
Q 647 2756 219 2722 
L 100 3147 
Q 675 3916 1294 5366 
L 1769 5178 
Q 1094 3853 663 3184 
Q 1025 3194 1419 3206 
Q 1631 3569 1863 3997 
L 2325 3766 
Q 1613 2578 894 1566 
z
M 5438 1272 
L 3113 1272 
L 3113 -3 
L 5438 -3 
L 5438 1272 
z
M 75 91 
Q 1231 316 2331 584 
Q 2313 334 2313 109 
Q 1300 -103 213 -391 
L 75 91 
z
" transform="scale(0.015625)"/>
      <path id="MicrosoftYaHei-8bba" d="M 2725 2866 
L 3225 2866 
L 3225 1553 
Q 4425 2072 5188 2753 
L 5538 2341 
Q 4569 1578 3225 1034 
L 3225 216 
Q 3225 -197 3600 -197 
L 4844 -197 
Q 5294 -197 5363 203 
Q 5444 659 5475 1191 
Q 5675 1103 5981 1009 
Q 5925 497 5844 53 
Q 5719 -672 4869 -672 
L 3450 -672 
Q 2725 -672 2725 122 
L 2725 2866 
z
M 4413 5253 
L 4331 5109 
Q 5075 3791 6344 3166 
Q 6163 2947 5981 2697 
Q 4744 3516 4056 4666 
Q 3388 3559 2106 2678 
Q 1925 2941 1763 3109 
Q 3181 3947 3831 5253 
L 4413 5253 
z
M 2206 691 
Q 2225 366 2250 153 
Q 1550 -316 994 -747 
L 700 -328 
Q 913 -153 913 209 
L 913 2678 
L 100 2678 
L 100 3141 
L 1400 3141 
L 1400 122 
Q 1769 372 2206 691 
z
M 856 5197 
Q 1538 4497 1844 4159 
L 1406 3791 
Q 1013 4309 475 4866 
L 856 5197 
z
" transform="scale(0.015625)"/>
     </defs>
     <use xlink:href="#MicrosoftYaHei-8003"/>
     <use xlink:href="#MicrosoftYaHei-603b" transform="translate(100 0)"/>
     <use xlink:href="#MicrosoftYaHei-7ed3" transform="translate(200 0)"/>
     <use xlink:href="#MicrosoftYaHei-7ed3" transform="translate(300 0)"/>
     <use xlink:href="#MicrosoftYaHei-8bba" transform="translate(400 0)"/>
    </g>
   </g>
   <g id="text_16">
    <!-- 实验探究题常见题型分布 -->
    <g style="fill: #2c3e50" transform="translate(131.158857 15.993125) scale(0.11 -0.11)">
     <defs>
      <path id="MicrosoftYaHei-Bold-63a2" d="M 175 4147 
L 800 4147 
L 800 5303 
L 1625 5303 
L 1625 4147 
L 2075 4147 
L 2075 3347 
L 1625 3347 
L 1625 2413 
L 2025 2528 
Q 2016 2322 2016 2147 
Q 2016 1881 2038 1678 
Q 1828 1625 1625 1569 
L 1625 -3 
Q 1625 -297 1506 -486 
Q 1388 -675 1166 -742 
Q 944 -809 275 -809 
Q 219 -372 113 16 
Q 375 -3 569 -3 
Q 800 -3 800 291 
L 800 1341 
L 225 1172 
L 81 2059 
Q 438 2125 800 2206 
L 800 3347 
L 175 3347 
L 175 4147 
z
M 2213 3753 
L 2213 4997 
L 6131 4997 
L 6131 3753 
L 5294 3753 
L 5294 4234 
L 3050 4234 
L 3050 3753 
L 2213 3753 
z
M 4838 4072 
L 6175 3066 
L 5625 2453 
L 4338 3541 
L 4838 4072 
z
M 3456 4059 
L 4044 3534 
Q 3456 2991 2744 2409 
L 2231 2997 
Q 2950 3547 3456 4059 
z
M 2188 2328 
L 3756 2328 
L 3756 3041 
L 4563 3041 
L 4563 2328 
L 6256 2328 
L 6256 1584 
L 4900 1584 
Q 5563 672 6344 247 
Q 6088 -166 5900 -503 
Q 5097 113 4563 1063 
L 4563 -834 
L 3756 -834 
L 3756 1075 
Q 3138 150 2275 -547 
Q 1931 -147 1688 72 
Q 2666 688 3344 1584 
L 2188 1584 
L 2188 2328 
z
" transform="scale(0.015625)"/>
      <path id="MicrosoftYaHei-Bold-7a76" d="M 3506 5334 
Q 3625 5019 3719 4728 
L 6075 4728 
L 6075 3391 
L 5275 3391 
L 5275 3978 
L 1125 3978 
L 1125 3391 
L 325 3391 
L 325 4728 
L 2741 4728 
Q 2656 4988 2569 5234 
L 3506 5334 
z
M 3956 3959 
Q 5038 3409 5988 2853 
L 5506 2122 
L 3463 3334 
L 3956 3959 
z
M 2331 3953 
L 2800 3297 
Q 1794 2734 750 2253 
Q 538 2628 300 2984 
Q 1431 3416 2331 3953 
z
M 4775 2191 
L 4775 303 
Q 4775 22 5031 22 
L 5169 22 
Q 5391 22 5445 189 
Q 5500 356 5588 1234 
L 6338 997 
Q 6200 -284 5934 -478 
Q 5669 -672 5356 -672 
L 4719 -672 
Q 3925 -672 3925 97 
L 3925 1466 
L 2988 1466 
Q 2769 -206 825 -859 
Q 619 -522 319 -59 
Q 1881 394 2122 1466 
L 588 1466 
L 588 2191 
L 2194 2191 
L 2250 2922 
L 3100 2922 
Q 3088 2591 3056 2191 
L 4775 2191 
z
" transform="scale(0.015625)"/>
      <path id="MicrosoftYaHei-Bold-5e38" d="M 2788 5303 
L 3613 5303 
L 3613 4403 
L 4341 4403 
L 4150 4566 
Q 4556 4934 4925 5316 
L 5519 4891 
Q 5275 4659 4988 4403 
L 6144 4403 
L 6144 3022 
L 5381 3022 
L 5381 3741 
L 1031 3741 
L 1031 3022 
L 269 3022 
L 269 4403 
L 1391 4403 
Q 1159 4659 925 4891 
L 1456 5316 
Q 1831 4984 2200 4603 
L 1950 4403 
L 2788 4403 
L 2788 5303 
z
M 1431 -484 
L 606 -484 
L 606 1509 
L 2781 1509 
L 2781 1859 
L 1250 1859 
L 1250 3397 
L 5163 3397 
L 5163 1859 
L 3631 1859 
L 3631 1509 
L 5863 1509 
L 5863 284 
Q 5863 53 5789 -109 
Q 5716 -272 5569 -367 
Q 5422 -463 5253 -483 
Q 5084 -503 4338 -503 
Q 4269 -191 4144 203 
Q 4466 184 4759 184 
Q 5038 184 5038 516 
L 5038 847 
L 3631 847 
L 3631 -853 
L 2781 -853 
L 2781 847 
L 1431 847 
L 1431 -484 
z
M 2013 2434 
L 4400 2434 
L 4400 2822 
L 2013 2822 
L 2013 2434 
z
" transform="scale(0.015625)"/>
      <path id="MicrosoftYaHei-Bold-89c1" d="M 813 1216 
L 813 5066 
L 5594 5066 
L 5594 1266 
L 4694 1266 
L 4694 4278 
L 1713 4278 
L 1713 1216 
L 813 1216 
z
M 5400 1178 
Q 5819 991 6325 853 
Q 6284 488 6218 144 
Q 6153 -200 6054 -361 
Q 5956 -522 5718 -619 
Q 5481 -716 5125 -716 
L 4038 -716 
Q 3169 -716 3169 172 
L 3169 1253 
Q 2581 -78 644 -878 
Q 344 -378 69 -28 
Q 1656 531 2201 1340 
Q 2747 2150 2706 3866 
L 3600 3866 
Q 3609 2822 3428 2041 
L 4069 2041 
L 4069 359 
Q 4069 78 4319 78 
L 4975 78 
Q 5163 78 5272 231 
Q 5381 384 5400 1178 
z
" transform="scale(0.015625)"/>
      <path id="MicrosoftYaHei-Bold-578b" d="M 5963 5216 
L 5963 2547 
Q 5963 2141 5752 1928 
Q 5541 1716 5095 1700 
Q 4650 1684 4269 1684 
Q 4231 2059 4150 2447 
Q 4469 2428 4813 2428 
Q 5150 2428 5150 2709 
L 5150 5216 
L 5963 5216 
z
M 150 3491 
L 891 3491 
Q 900 3616 900 4341 
L 325 4341 
L 325 5066 
L 3625 5066 
L 3625 4341 
L 3113 4341 
L 3113 3491 
L 3750 3491 
L 3750 2766 
L 3113 2766 
L 3113 2091 
L 3656 2091 
L 3656 1441 
L 5781 1441 
L 5781 678 
L 3656 678 
L 3656 103 
L 6294 103 
L 6294 -647 
L 138 -647 
L 138 103 
L 2763 103 
L 2763 678 
L 650 678 
L 650 1441 
L 2763 1441 
L 2763 1766 
L 2350 1766 
L 2350 2766 
L 1559 2766 
Q 1375 2016 888 1522 
Q 675 1697 275 2009 
Q 584 2334 741 2766 
L 150 2766 
L 150 3491 
z
M 1663 3491 
L 2350 3491 
L 2350 4341 
L 1669 4341 
Q 1669 3753 1663 3491 
z
M 3900 4866 
L 4650 4866 
L 4650 2753 
L 3900 2753 
L 3900 4866 
z
" transform="scale(0.015625)"/>
      <path id="MicrosoftYaHei-Bold-5e03" d="M 3919 -834 
L 3050 -834 
L 3050 2034 
L 2063 2034 
L 2063 -359 
L 1200 -359 
L 1200 1641 
Q 825 1238 400 866 
Q 244 1403 113 1741 
Q 1128 2669 1731 3709 
L 200 3709 
L 200 4541 
L 2141 4541 
Q 2294 4916 2400 5303 
L 3275 5203 
Q 3169 4866 3038 4541 
L 6250 4541 
L 6250 3709 
L 2659 3709 
Q 2406 3222 2094 2766 
L 3050 2766 
L 3050 3566 
L 3919 3566 
L 3919 2766 
L 5800 2766 
L 5800 741 
Q 5800 338 5628 112 
Q 5456 -113 5178 -164 
Q 4900 -216 4306 -216 
Q 4225 291 4156 609 
Q 4456 584 4544 584 
Q 4950 584 4950 1034 
L 4950 2034 
L 3919 2034 
L 3919 -834 
z
" transform="scale(0.015625)"/>
     </defs>
     <use xlink:href="#MicrosoftYaHei-Bold-5b9e"/>
     <use xlink:href="#MicrosoftYaHei-Bold-9a8c" transform="translate(100 0)"/>
     <use xlink:href="#MicrosoftYaHei-Bold-63a2" transform="translate(200 0)"/>
     <use xlink:href="#MicrosoftYaHei-Bold-7a76" transform="translate(300 0)"/>
     <use xlink:href="#MicrosoftYaHei-Bold-9898" transform="translate(400 0)"/>
     <use xlink:href="#MicrosoftYaHei-Bold-5e38" transform="translate(500 0)"/>
     <use xlink:href="#MicrosoftYaHei-Bold-89c1" transform="translate(600 0)"/>
     <use xlink:href="#MicrosoftYaHei-Bold-9898" transform="translate(700 0)"/>
     <use xlink:href="#MicrosoftYaHei-Bold-578b" transform="translate(800 0)"/>
     <use xlink:href="#MicrosoftYaHei-Bold-5206" transform="translate(900 0)"/>
     <use xlink:href="#MicrosoftYaHei-Bold-5e03" transform="translate(1000 0)"/>
    </g>
   </g>
   <g id="text_17">
    <!-- 原理题和数据分析题占比最高，是复习重点 -->
    <g style="fill: #7f8c8d" transform="translate(110.908857 32.163125) scale(0.085 -0.085)">
     <defs>
      <path id="MicrosoftYaHei-7406" d="M 2031 -166 
L 3988 -166 
L 3988 734 
L 2394 734 
L 2394 1172 
L 3988 1172 
L 3988 1997 
L 2988 1997 
L 2988 1766 
L 2525 1766 
L 2525 4991 
L 5913 4991 
L 5913 1766 
L 5450 1766 
L 5450 1997 
L 4450 1997 
L 4450 1172 
L 6044 1172 
L 6044 734 
L 4450 734 
L 4450 -166 
L 6319 -166 
L 6319 -603 
L 2031 -603 
L 2031 -166 
z
M 44 203 
Q 525 319 975 434 
L 975 2328 
L 194 2328 
L 194 2766 
L 975 2766 
L 975 4328 
L 131 4328 
L 131 4766 
L 2281 4766 
L 2281 4328 
L 1438 4328 
L 1438 2766 
L 2231 2766 
L 2231 2328 
L 1438 2328 
L 1438 559 
Q 1850 675 2238 791 
Q 2269 509 2306 303 
Q 1238 16 213 -303 
L 44 203 
z
M 4450 2422 
L 5450 2422 
L 5450 3291 
L 4450 3291 
L 4450 2422 
z
M 2988 2422 
L 3988 2422 
L 3988 3291 
L 2988 3291 
L 2988 2422 
z
M 5450 4566 
L 4450 4566 
L 4450 3703 
L 5450 3703 
L 5450 4566 
z
M 2988 3703 
L 3988 3703 
L 3988 4566 
L 2988 4566 
L 2988 3703 
z
" transform="scale(0.015625)"/>
      <path id="MicrosoftYaHei-9898" d="M 88 -291 
Q 544 328 581 1622 
L 1013 1622 
Q 994 1234 950 884 
Q 1181 466 1538 209 
L 1538 1916 
L 138 1916 
L 138 2322 
L 3025 2322 
L 3025 1916 
L 1950 1916 
L 1950 1253 
L 2956 1253 
L 2956 847 
L 1950 847 
L 1950 -16 
Q 2369 -184 2906 -197 
Q 4006 -266 6300 -166 
Q 6231 -372 6125 -659 
Q 3888 -716 2906 -634 
Q 1513 -597 850 347 
Q 688 -359 363 -878 
Q 238 -584 88 -291 
z
M 525 5041 
L 2725 5041 
L 2725 2634 
L 2313 2634 
L 2313 2828 
L 938 2828 
L 938 2634 
L 525 2634 
L 525 5041 
z
M 3263 3878 
L 4169 3878 
Q 4231 4247 4275 4591 
L 3031 4591 
L 3031 4997 
L 6169 4997 
L 6169 4591 
L 4738 4591 
Q 4681 4222 4613 3878 
L 5838 3878 
L 5838 1228 
L 5425 1228 
L 5425 3472 
L 3675 3472 
L 3675 1228 
L 3263 1228 
L 3263 3878 
z
M 4344 3203 
L 4756 3203 
L 4756 2422 
Q 4756 1809 4631 1372 
Q 5594 678 6050 284 
L 5713 -47 
Q 5213 422 4481 972 
Q 4444 903 4406 841 
Q 4031 241 3131 -109 
Q 2988 72 2794 259 
Q 3669 547 4006 1028 
Q 4344 1503 4344 2441 
L 4344 3203 
z
M 938 3203 
L 2313 3203 
L 2313 3753 
L 938 3753 
L 938 3203 
z
M 2313 4666 
L 938 4666 
L 938 4122 
L 2313 4122 
L 2313 4666 
z
" transform="scale(0.015625)"/>
      <path id="MicrosoftYaHei-548c" d="M 3263 4553 
L 6025 4553 
L 6025 -666 
L 5525 -666 
L 5525 -59 
L 3763 -59 
L 3763 -666 
L 3263 -666 
L 3263 4553 
z
M 5525 4091 
L 3763 4091 
L 3763 391 
L 5525 391 
L 5525 4091 
z
M 75 897 
Q 788 1841 1206 2997 
L 113 2997 
L 113 3422 
L 1306 3422 
L 1306 4409 
Q 819 4334 319 4272 
Q 263 4478 181 4703 
Q 1481 4847 2700 5128 
L 2844 4691 
Q 2325 4584 1781 4491 
L 1781 3422 
L 2950 3422 
L 2950 2997 
L 1781 2997 
L 1781 2191 
L 2006 2416 
Q 2500 1991 2975 1516 
L 2619 1153 
Q 2244 1584 1781 2034 
L 1781 -872 
L 1306 -872 
L 1306 2128 
Q 938 1203 313 359 
Q 213 603 75 897 
z
" transform="scale(0.015625)"/>
      <path id="MicrosoftYaHei-6570" d="M 4175 5303 
L 4675 5228 
Q 4544 4622 4369 4097 
L 6281 4097 
L 6281 3672 
L 5888 3672 
Q 5731 1834 5088 753 
Q 5594 66 6375 -372 
Q 6175 -647 6038 -866 
Q 5275 -372 4769 309 
Q 4194 -403 3400 -928 
Q 3263 -747 3044 -534 
Q 3919 41 4463 772 
Q 3956 1647 3794 2791 
Q 3663 2559 3519 2359 
Q 3394 2541 3206 2759 
Q 3931 3803 4175 5303 
z
M 150 1697 
L 1100 1697 
Q 1238 1934 1369 2184 
L 1819 2041 
Q 1719 1866 1619 1697 
L 3150 1697 
L 3150 1291 
Q 2913 678 2431 216 
Q 2775 53 3131 -109 
L 2856 -541 
Q 2469 -322 2050 -103 
Q 1344 -609 269 -903 
Q 169 -703 56 -466 
Q 969 -259 1600 128 
Q 1063 403 475 691 
Q 675 978 863 1284 
L 150 1284 
L 150 1697 
z
M 219 3847 
L 1656 3847 
L 1656 5247 
L 2119 5247 
L 2119 3847 
L 3319 3847 
L 3319 3434 
L 2119 3434 
L 2119 3053 
L 2306 3266 
Q 2888 2841 3281 2516 
L 2981 2166 
Q 2638 2491 2119 2897 
L 2119 2184 
L 1656 2184 
L 1656 3059 
Q 1088 2466 331 2016 
Q 213 2197 63 2397 
Q 850 2822 1506 3434 
L 219 3434 
L 219 3847 
z
M 5388 3672 
L 4219 3672 
Q 4188 3591 4150 3516 
Q 4263 2191 4775 1247 
Q 5275 2159 5388 3672 
z
M 1088 834 
Q 1531 634 2000 416 
Q 2431 784 2675 1284 
L 1375 1284 
Q 1231 1053 1088 834 
z
M 3038 5091 
L 3425 4834 
Q 3081 4384 2738 4003 
Q 2594 4128 2400 4266 
Q 2725 4647 3038 5091 
z
M 381 4816 
L 738 5059 
Q 1019 4716 1319 4322 
L 931 4047 
Q 656 4453 381 4816 
z
" transform="scale(0.015625)"/>
      <path id="MicrosoftYaHei-5206" d="M 900 2559 
L 5056 2559 
Q 5025 1497 4963 484 
Q 4888 -684 3856 -678 
Q 3350 -684 2788 -647 
Q 2750 -384 2700 -116 
Q 3181 -184 3775 -191 
Q 4400 -203 4463 541 
Q 4513 1216 4538 2097 
L 2616 2097 
Q 2541 1053 2181 416 
Q 1706 -422 588 -878 
Q 425 -666 231 -459 
Q 1269 -72 1725 666 
Q 2053 1225 2103 2097 
L 900 2097 
L 900 2559 
z
M 3488 5159 
L 3938 5353 
Q 4625 3678 6350 2847 
Q 6069 2553 5944 2372 
Q 4225 3366 3488 5159 
z
M 50 2766 
Q 1338 3678 2250 5253 
L 2694 5009 
Q 1744 3347 413 2341 
Q 281 2534 50 2766 
z
" transform="scale(0.015625)"/>
      <path id="MicrosoftYaHei-6790" d="M 2775 4797 
Q 4319 4822 5863 5066 
L 6031 4616 
Q 4713 4422 3256 4359 
L 3256 2966 
L 6306 2966 
L 6306 2509 
L 5131 2509 
L 5131 -816 
L 4650 -816 
L 4650 2509 
L 3256 2509 
L 3256 2272 
Q 3256 241 2225 -853 
Q 2069 -628 1900 -441 
Q 2775 497 2775 2278 
L 2775 4797 
z
M 88 1391 
Q 738 2341 1069 3584 
L 175 3584 
L 175 4016 
L 1081 4016 
L 1081 5259 
L 1538 5259 
L 1538 4016 
L 2400 4016 
L 2400 3584 
L 1538 3584 
L 1538 2872 
L 1769 3053 
Q 2338 2384 2594 1984 
L 2206 1697 
Q 1913 2159 1538 2659 
L 1538 -816 
L 1081 -816 
L 1081 2397 
Q 763 1459 306 834 
Q 231 1053 88 1391 
z
" transform="scale(0.015625)"/>
      <path id="MicrosoftYaHei-5360" d="M 863 2434 
L 2775 2434 
L 2775 5259 
L 3288 5259 
L 3288 4209 
L 6150 4209 
L 6150 3747 
L 3288 3747 
L 3288 2434 
L 5525 2434 
L 5525 -841 
L 5025 -841 
L 5025 -453 
L 1363 -453 
L 1363 -853 
L 863 -853 
L 863 2434 
z
M 5025 1984 
L 1363 1984 
L 1363 -9 
L 5025 -9 
L 5025 1984 
z
" transform="scale(0.015625)"/>
      <path id="MicrosoftYaHei-6bd4" d="M 3225 5316 
L 3744 5316 
L 3744 2672 
Q 4959 3550 5744 4509 
L 6188 4178 
Q 5175 3063 3744 2056 
L 3744 247 
Q 3744 -166 4106 -166 
L 5175 -166 
Q 5588 -166 5650 203 
Q 5725 678 5763 1247 
Q 6025 1147 6300 1066 
Q 6244 484 6150 22 
Q 6019 -622 5319 -622 
L 3944 -622 
Q 3225 -622 3225 159 
L 3225 5316 
z
M 1063 5153 
L 1063 3278 
L 2825 3278 
L 2825 2809 
L 1063 2809 
L 1063 153 
Q 1713 428 2763 928 
Q 2763 634 2788 366 
Q 1869 -3 1231 -328 
Q 956 -472 725 -672 
L 344 -184 
Q 544 -34 544 272 
L 544 5153 
L 1063 5153 
z
" transform="scale(0.015625)"/>
      <path id="MicrosoftYaHei-6700" d="M 169 -28 
Q 475 3 781 38 
L 781 2416 
L 94 2416 
L 94 2791 
L 6288 2791 
L 6288 2416 
L 3025 2416 
L 3025 331 
Q 3325 375 3625 422 
Q 3619 309 3631 22 
Q 3338 -19 3025 -63 
L 3025 -859 
L 2600 -859 
L 2600 -125 
Q 1525 -278 281 -472 
L 169 -28 
z
M 1038 5053 
L 5363 5053 
L 5363 3047 
L 4925 3047 
L 4925 3191 
L 1475 3191 
L 1475 3047 
L 1038 3047 
L 1038 5053 
z
M 3338 1609 
L 3338 1972 
L 5819 1972 
L 5819 1609 
Q 5500 844 4981 278 
Q 5516 -113 6306 -316 
Q 6144 -553 6025 -753 
Q 5219 -488 4666 -34 
Q 4128 -516 3413 -822 
Q 3306 -634 3125 -428 
Q 3834 -156 4347 266 
Q 3825 825 3603 1609 
L 3338 1609 
z
M 1475 3553 
L 4925 3553 
L 4925 3953 
L 1475 3953 
L 1475 3553 
z
M 4925 4691 
L 1475 4691 
L 1475 4291 
L 4925 4291 
L 4925 4691 
z
M 5344 1609 
L 4025 1609 
Q 4222 994 4659 556 
Q 5094 1013 5344 1609 
z
M 2600 269 
L 2600 691 
L 1206 691 
L 1206 88 
Q 1913 172 2600 269 
z
M 1206 1916 
L 2600 1916 
L 2600 2416 
L 1206 2416 
L 1206 1916 
z
M 1206 1053 
L 2600 1053 
L 2600 1553 
L 1206 1553 
L 1206 1053 
z
" transform="scale(0.015625)"/>
      <path id="MicrosoftYaHei-9ad8" d="M 1194 3922 
L 5250 3922 
L 5250 2397 
L 4775 2397 
L 4775 2597 
L 1669 2597 
L 1669 2403 
L 1194 2403 
L 1194 3922 
z
M 969 -784 
L 494 -784 
L 494 2147 
L 5956 2147 
L 5956 22 
Q 5956 -747 5231 -747 
Q 4825 -747 4319 -734 
Q 4281 -522 4219 -241 
Q 4794 -284 5100 -284 
Q 5481 -284 5481 97 
L 5481 1747 
L 969 1747 
L 969 -784 
z
M 1813 1334 
L 4638 1334 
L 4638 28 
L 2263 28 
L 2263 -241 
L 1813 -241 
L 1813 1334 
z
M 125 4747 
L 2988 4747 
Q 2850 5013 2725 5216 
L 3194 5403 
Q 3372 5094 3541 4747 
L 6275 4747 
L 6275 4334 
L 125 4334 
L 125 4747 
z
M 4775 3534 
L 1669 3534 
L 1669 2984 
L 4775 2984 
L 4775 3534 
z
M 4188 416 
L 4188 947 
L 2263 947 
L 2263 416 
L 4188 416 
z
" transform="scale(0.015625)"/>
      <path id="MicrosoftYaHei-ff0c" d="M 1931 775 
L 1403 -891 
L 966 -891 
L 1350 775 
L 1931 775 
z
" transform="scale(0.015625)"/>
      <path id="MicrosoftYaHei-662f" d="M 1088 5078 
L 5338 5078 
L 5338 2472 
L 4863 2472 
L 4863 2722 
L 1563 2722 
L 1563 2472 
L 1088 2472 
L 1088 5078 
z
M 1400 1553 
L 1875 1409 
Q 1775 1081 1647 788 
Q 2122 19 3063 -134 
L 3063 1747 
L 213 1747 
L 213 2184 
L 6225 2184 
L 6225 1747 
L 3563 1747 
L 3563 1122 
L 5788 1122 
L 5788 697 
L 3563 697 
L 3563 -172 
Q 4763 -197 6344 -147 
Q 6244 -416 6169 -641 
Q 4331 -647 3344 -622 
Q 2022 -606 1434 359 
Q 1006 -413 350 -891 
Q 225 -703 44 -484 
Q 1050 191 1400 1553 
z
M 1563 3147 
L 4863 3147 
L 4863 3697 
L 1563 3697 
L 1563 3147 
z
M 4863 4653 
L 1563 4653 
L 1563 4109 
L 4863 4109 
L 4863 4653 
z
" transform="scale(0.015625)"/>
      <path id="MicrosoftYaHei-590d" d="M 81 3559 
Q 975 4259 1563 5347 
L 2113 5347 
Q 1963 5084 1803 4841 
L 6200 4841 
L 6200 4441 
L 1525 4441 
Q 1356 4209 1175 3997 
L 5575 3997 
L 5575 1697 
L 5138 1697 
L 5138 1859 
L 1463 1859 
L 1463 1634 
L 1031 1634 
L 1031 3828 
Q 716 3475 369 3166 
Q 263 3347 81 3559 
z
M 81 291 
Q 1231 853 1931 1709 
L 2488 1709 
Q 2350 1534 2206 1372 
L 5588 1372 
L 5588 1034 
Q 4981 494 4038 69 
Q 5016 -188 6319 -284 
Q 6150 -566 6025 -797 
Q 4503 -584 3416 -175 
Q 2303 -563 725 -872 
Q 606 -666 438 -447 
Q 1988 -191 2856 59 
Q 2153 397 1678 838 
Q 1084 303 388 -53 
Q 250 128 81 291 
z
M 1463 2247 
L 5138 2247 
L 5138 2747 
L 1463 2747 
L 1463 2247 
z
M 5138 3609 
L 1463 3609 
L 1463 3116 
L 5138 3116 
L 5138 3609 
z
M 4869 1009 
L 2025 1009 
Q 2572 553 3428 253 
Q 4297 591 4869 1009 
z
" transform="scale(0.015625)"/>
      <path id="MicrosoftYaHei-4e60" d="M 500 4803 
L 5725 4803 
Q 5663 1853 5606 784 
Q 5550 -616 4181 -616 
Q 3644 -616 3013 -591 
Q 2988 -347 2913 -9 
Q 3713 -66 4113 -66 
Q 4631 -72 4850 153 
Q 5056 378 5081 916 
Q 5144 2416 5169 4291 
L 500 4291 
L 500 4803 
z
M 363 834 
Q 2856 1591 4688 2253 
Q 4669 1834 4688 1709 
Q 2513 978 556 297 
L 363 834 
z
M 1131 3372 
L 1400 3778 
Q 2713 3203 3563 2766 
L 3275 2291 
Q 2069 2947 1131 3372 
z
" transform="scale(0.015625)"/>
      <path id="MicrosoftYaHei-91cd" d="M 113 -203 
L 2975 -203 
L 2975 259 
L 600 259 
L 600 628 
L 2975 628 
L 2975 1153 
L 1288 1153 
L 1288 928 
L 850 928 
L 850 3278 
L 2975 3278 
L 2975 3728 
L 163 3728 
L 163 4116 
L 2975 4116 
L 2975 4606 
Q 1841 4572 625 4547 
Q 588 4747 538 4972 
Q 3706 5009 5669 5141 
L 5744 4716 
Q 4631 4663 3425 4619 
L 3425 4116 
L 6263 4116 
L 6263 3728 
L 3425 3728 
L 3425 3278 
L 5569 3278 
L 5569 934 
L 5131 934 
L 5131 1153 
L 3425 1153 
L 3425 628 
L 5806 628 
L 5806 259 
L 3425 259 
L 3425 -203 
L 6263 -203 
L 6263 -591 
L 113 -591 
L 113 -203 
z
M 3425 1516 
L 5131 1516 
L 5131 2053 
L 3425 2053 
L 3425 1516 
z
M 1288 1516 
L 2975 1516 
L 2975 2053 
L 1288 2053 
L 1288 1516 
z
M 5131 2916 
L 3425 2916 
L 3425 2384 
L 5131 2384 
L 5131 2916 
z
M 1288 2384 
L 2975 2384 
L 2975 2916 
L 1288 2916 
L 1288 2384 
z
" transform="scale(0.015625)"/>
      <path id="MicrosoftYaHei-70b9" d="M 900 3378 
L 2863 3378 
L 2863 5341 
L 3388 5341 
L 3388 4591 
L 6181 4591 
L 6181 4141 
L 3388 4141 
L 3388 3378 
L 5600 3378 
L 5600 991 
L 5088 991 
L 5088 1253 
L 1413 1253 
L 1413 991 
L 900 991 
L 900 3378 
z
M 5088 2928 
L 1413 2928 
L 1413 1703 
L 5088 1703 
L 5088 2928 
z
M 5425 847 
Q 5925 91 6225 -516 
L 5750 -772 
Q 5438 -134 4994 622 
L 5425 847 
z
M 1369 553 
Q 894 -303 531 -791 
L 100 -484 
Q 506 53 931 803 
L 1369 553 
z
M 2413 828 
Q 2700 197 2913 -503 
L 2406 -678 
Q 2213 3 1963 666 
L 2413 828 
z
M 3906 872 
Q 4206 253 4450 -422 
L 3956 -616 
Q 3781 -53 3450 697 
L 3906 872 
z
" transform="scale(0.015625)"/>
     </defs>
     <use xlink:href="#MicrosoftYaHei-539f"/>
     <use xlink:href="#MicrosoftYaHei-7406" transform="translate(100 0)"/>
     <use xlink:href="#MicrosoftYaHei-9898" transform="translate(200 0)"/>
     <use xlink:href="#MicrosoftYaHei-548c" transform="translate(300 0)"/>
     <use xlink:href="#MicrosoftYaHei-6570" transform="translate(400 0)"/>
     <use xlink:href="#MicrosoftYaHei-636e" transform="translate(500 0)"/>
     <use xlink:href="#MicrosoftYaHei-5206" transform="translate(600 0)"/>
     <use xlink:href="#MicrosoftYaHei-6790" transform="translate(700 0)"/>
     <use xlink:href="#MicrosoftYaHei-9898" transform="translate(800 0)"/>
     <use xlink:href="#MicrosoftYaHei-5360" transform="translate(900 0)"/>
     <use xlink:href="#MicrosoftYaHei-6bd4" transform="translate(1000 0)"/>
     <use xlink:href="#MicrosoftYaHei-6700" transform="translate(1100 0)"/>
     <use xlink:href="#MicrosoftYaHei-9ad8" transform="translate(1200 0)"/>
     <use xlink:href="#MicrosoftYaHei-ff0c" transform="translate(1300 0)"/>
     <use xlink:href="#MicrosoftYaHei-662f" transform="translate(1400 0)"/>
     <use xlink:href="#MicrosoftYaHei-590d" transform="translate(1500 0)"/>
     <use xlink:href="#MicrosoftYaHei-4e60" transform="translate(1600 0)"/>
     <use xlink:href="#MicrosoftYaHei-91cd" transform="translate(1700 0)"/>
     <use xlink:href="#MicrosoftYaHei-70b9" transform="translate(1800 0)"/>
    </g>
   </g>
  </g>
 </g>
 <defs>
  <clipPath id="p783af751c3">
   <rect x="10.308857" y="25.695125" width="362.7" height="194.04"/>
  </clipPath>
 </defs>
</svg>
