<?xml version="1.0" encoding="utf-8" standalone="no"?>
<!DOCTYPE svg PUBLIC "-//W3C//DTD SVG 1.1//EN"
  "http://www.w3.org/Graphics/SVG/1.1/DTD/svg11.dtd">
<svg xmlns:xlink="http://www.w3.org/1999/xlink" width="3225.707891pt" height="1112.428pt" viewBox="0 0 3225.707891 1112.428" xmlns="http://www.w3.org/2000/svg" version="1.1">
 <metadata>
  <rdf:RDF xmlns:dc="http://purl.org/dc/elements/1.1/" xmlns:cc="http://creativecommons.org/ns#" xmlns:rdf="http://www.w3.org/1999/02/22-rdf-syntax-ns#">
   <cc:Work>
    <dc:type rdf:resource="http://purl.org/dc/dcmitype/StillImage"/>
    <dc:date>2026-05-29T22:28:06.315734</dc:date>
    <dc:format>image/svg+xml</dc:format>
    <dc:creator>
     <cc:Agent>
      <dc:title>Matplotlib v3.10.9, https://matplotlib.org/</dc:title>
     </cc:Agent>
    </dc:creator>
   </cc:Work>
  </rdf:RDF>
 </metadata>
 <defs>
  <style type="text/css">*{stroke-linejoin: round; stroke-linecap: butt}</style>
 </defs>
 <g id="figure_1">
  <g id="patch_1">
   <path d="M 0 1112.428 
L 3225.707891 1112.428 
L 3225.707891 0 
L 0 0 
z
" style="fill: #ffffff"/>
  </g>
  <g id="axes_1">
   <g id="text_1">
    <!-- 力学 -->
    <g style="fill: #c0392b" transform="translate(485.24 119.782) scale(0.13 -0.13)">
     <defs>
      <path id="MicrosoftYaHei-Bold-529b" d="M 2094 5309 
L 3063 5309 
L 3022 4066 
L 5988 4066 
L 5931 2203 
Q 5897 1225 5859 593 
Q 5822 -38 5489 -373 
Q 5156 -709 4611 -721 
Q 4066 -734 3225 -728 
Q 3138 -184 3038 247 
Q 3531 197 4188 197 
Q 4503 197 4665 320 
Q 4828 444 4876 623 
Q 4925 803 4964 1515 
Q 5003 2228 5025 3241 
L 2978 3241 
Q 2919 603 769 -891 
Q 444 -491 38 -84 
Q 1963 1059 2031 3241 
L 381 3241 
L 381 4066 
L 2075 4066 
Q 2097 4644 2094 5309 
z
" transform="scale(0.015625)"/>
      <path id="MicrosoftYaHei-Bold-5b66" d="M 1425 5341 
Q 1800 4916 2188 4391 
L 1909 4203 
L 2953 4203 
Q 2691 4706 2469 5053 
L 3231 5391 
Q 3481 5009 3819 4403 
L 3388 4203 
L 4153 4203 
Q 4581 4819 4875 5272 
L 5719 4809 
L 5213 4203 
L 6113 4203 
L 6113 2666 
L 5238 2666 
L 5238 3441 
L 1156 3441 
L 1156 2666 
L 281 2666 
L 281 4203 
L 1303 4203 
Q 1028 4581 769 4897 
L 1425 5341 
z
M 175 1528 
L 2906 1528 
L 2906 1691 
L 3744 2234 
L 1456 2234 
L 1456 2997 
L 4975 2997 
L 4975 2241 
L 3900 1528 
L 6231 1528 
L 6231 753 
L 3806 753 
L 3806 116 
Q 3806 -316 3565 -556 
Q 3325 -797 2829 -800 
Q 2334 -803 1813 -803 
Q 1725 -372 1600 22 
Q 2075 -3 2469 -3 
Q 2906 -3 2906 378 
L 2906 753 
L 175 753 
L 175 1528 
z
" transform="scale(0.015625)"/>
     </defs>
     <use xlink:href="#MicrosoftYaHei-Bold-529b"/>
     <use xlink:href="#MicrosoftYaHei-Bold-5b66" transform="translate(100 0)"/>
    </g>
   </g>
   <g id="text_2">
    <!-- 重力 -->
    <g style="fill: #2c3e50" transform="translate(488.24 259.749906) scale(0.1 -0.1)">
     <defs>
      <path id="MicrosoftYaHei-91cd" d="M 113 -203 
L 2975 -203 
L 2975 259 
L 600 259 
L 600 628 
L 2975 628 
L 2975 1153 
L 1288 1153 
L 1288 928 
L 850 928 
L 850 3278 
L 2975 3278 
L 2975 3728 
L 163 3728 
L 163 4116 
L 2975 4116 
L 2975 4606 
Q 1841 4572 625 4547 
Q 588 4747 538 4972 
Q 3706 5009 5669 5141 
L 5744 4716 
Q 4631 4663 3425 4619 
L 3425 4116 
L 6263 4116 
L 6263 3728 
L 3425 3728 
L 3425 3278 
L 5569 3278 
L 5569 934 
L 5131 934 
L 5131 1153 
L 3425 1153 
L 3425 628 
L 5806 628 
L 5806 259 
L 3425 259 
L 3425 -203 
L 6263 -203 
L 6263 -591 
L 113 -591 
L 113 -203 
z
M 3425 1516 
L 5131 1516 
L 5131 2053 
L 3425 2053 
L 3425 1516 
z
M 1288 1516 
L 2975 1516 
L 2975 2053 
L 1288 2053 
L 1288 1516 
z
M 5131 2916 
L 3425 2916 
L 3425 2384 
L 5131 2384 
L 5131 2916 
z
M 1288 2384 
L 2975 2384 
L 2975 2916 
L 1288 2916 
L 1288 2384 
z
" transform="scale(0.015625)"/>
      <path id="MicrosoftYaHei-529b" d="M 400 3916 
L 2425 3916 
Q 2444 4603 2450 5316 
L 2994 5316 
Q 2981 4653 2963 3916 
L 5831 3916 
Q 5756 1472 5688 459 
Q 5606 -616 4538 -628 
Q 4025 -628 3300 -603 
Q 3275 -359 3206 -9 
L 3225 -9 
Q 4038 -84 4488 -78 
Q 5094 -66 5156 591 
Q 5231 1709 5269 3403 
L 2950 3403 
Q 2894 1775 2431 953 
Q 1938 41 506 -803 
Q 331 -578 131 -328 
Q 1488 434 1913 1209 
Q 2353 1913 2406 3403 
L 400 3403 
L 400 3916 
z
" transform="scale(0.015625)"/>
     </defs>
     <use xlink:href="#MicrosoftYaHei-91cd"/>
     <use xlink:href="#MicrosoftYaHei-529b" transform="translate(100 0)"/>
    </g>
   </g>
   <g id="text_3">
    <g id="patch_2">
     <path d="M 477.513594 334.814228 
L 518.966406 334.814228 
Q 521.166406 334.814228 521.166406 332.614228 
L 521.166406 321.086572 
Q 521.166406 318.886572 518.966406 318.886572 
L 477.513594 318.886572 
Q 475.313594 318.886572 475.313594 321.086572 
L 475.313594 332.614228 
Q 475.313594 334.814228 477.513594 334.814228 
z
" style="fill: #fdf2f2; stroke: #c0392b; stroke-linejoin: miter"/>
    </g>
    <!-- G = mg -->
    <g style="fill: #c0392b" transform="translate(477.513594 329.826416) scale(0.11 -0.11)">
     <defs>
      <path id="MicrosoftYaHei-Bold-47" d="M 4494 325 
Q 3784 -84 2750 -84 
Q 1594 -84 925 566 
Q 256 1216 256 2344 
Q 256 3488 992 4205 
Q 1728 4922 2931 4922 
Q 3706 4922 4284 4703 
L 4284 3725 
Q 3722 4053 2909 4053 
Q 2209 4053 1775 3597 
Q 1341 3141 1341 2394 
Q 1341 1634 1733 1209 
Q 2125 784 2803 784 
Q 3206 784 3463 909 
L 3463 1903 
L 2484 1903 
L 2484 2731 
L 4494 2731 
L 4494 325 
z
" transform="scale(0.015625)"/>
      <path id="MicrosoftYaHei-Bold-20" transform="scale(0.015625)"/>
      <path id="MicrosoftYaHei-Bold-3d" d="M 4072 2378 
L 797 2378 
L 797 3041 
L 4072 3041 
L 4072 2378 
z
M 4072 916 
L 797 916 
L 797 1578 
L 4072 1578 
L 4072 916 
z
" transform="scale(0.015625)"/>
      <path id="MicrosoftYaHei-Bold-6d" d="M 5881 0 
L 4875 0 
L 4875 1972 
Q 4875 2766 4297 2766 
Q 4028 2766 3850 2525 
Q 3672 2284 3672 1938 
L 3672 0 
L 2666 0 
L 2666 1997 
Q 2666 2766 2094 2766 
Q 1809 2766 1639 2536 
Q 1469 2306 1469 1928 
L 1469 0 
L 459 0 
L 459 3456 
L 1469 3456 
L 1469 2916 
L 1481 2916 
Q 1663 3213 1963 3377 
Q 2263 3541 2594 3541 
Q 3322 3541 3591 2888 
Q 3991 3541 4753 3541 
Q 5881 3541 5881 2147 
L 5881 0 
z
" transform="scale(0.015625)"/>
      <path id="MicrosoftYaHei-Bold-67" d="M 3800 381 
Q 3800 -581 3251 -1101 
Q 2703 -1622 1672 -1622 
Q 972 -1622 559 -1422 
L 559 -559 
Q 1097 -872 1644 -872 
Q 2184 -872 2489 -583 
Q 2794 -294 2794 219 
L 2794 506 
L 2778 506 
Q 2413 -84 1691 -84 
Q 1038 -84 645 381 
Q 253 847 253 1628 
Q 253 2500 686 3020 
Q 1119 3541 1822 3541 
Q 2459 3541 2778 3044 
L 2794 3044 
L 2794 3456 
L 3800 3456 
L 3800 381 
z
M 2803 1950 
Q 2803 2294 2595 2530 
Q 2388 2766 2072 2766 
Q 1703 2766 1489 2477 
Q 1275 2188 1275 1666 
Q 1275 1213 1481 952 
Q 1688 691 2028 691 
Q 2372 691 2587 956 
Q 2803 1222 2803 1647 
L 2803 1950 
z
" transform="scale(0.015625)"/>
     </defs>
     <use xlink:href="#MicrosoftYaHei-Bold-47"/>
     <use xlink:href="#MicrosoftYaHei-Bold-20" transform="translate(76.513672 0)"/>
     <use xlink:href="#MicrosoftYaHei-Bold-3d" transform="translate(106.298828 0)"/>
     <use xlink:href="#MicrosoftYaHei-Bold-20" transform="translate(182.421875 0)"/>
     <use xlink:href="#MicrosoftYaHei-Bold-6d" transform="translate(212.207031 0)"/>
     <use xlink:href="#MicrosoftYaHei-Bold-67" transform="translate(310.400391 0)"/>
    </g>
   </g>
   <g id="text_4">
    <!-- 密度 -->
    <g style="fill: #2c3e50" transform="translate(488.24 372.015906) scale(0.1 -0.1)">
     <defs>
      <path id="MicrosoftYaHei-5bc6" d="M 63 1622 
Q 947 1872 1800 2228 
L 1800 3659 
L 2244 3659 
L 2244 2419 
Q 3594 3034 4850 3909 
L 5144 3534 
Q 3834 2656 2391 1997 
Q 2522 1872 2775 1872 
L 3975 1872 
Q 4350 1872 4425 2084 
Q 4506 2291 4550 2753 
Q 4756 2666 5025 2572 
Q 4931 2091 4888 1953 
Q 4756 1441 4094 1441 
L 2669 1441 
Q 2128 1441 1925 1794 
Q 1131 1459 300 1191 
Q 197 1419 63 1622 
z
M 5063 -809 
L 5063 -566 
L 850 -566 
L 850 1078 
L 1325 1078 
L 1325 -116 
L 2944 -116 
L 2944 1322 
L 3444 1322 
L 3444 -116 
L 5063 -116 
L 5063 1078 
L 5538 1078 
L 5538 -809 
L 5063 -809 
z
M 331 4672 
L 3009 4672 
Q 2894 4897 2750 5141 
L 3213 5359 
Q 3406 5041 3569 4672 
L 6075 4672 
L 6075 3559 
L 5569 3559 
L 5569 4222 
L 838 4222 
L 838 3559 
L 331 3559 
L 331 4672 
z
M 1063 3534 
L 1500 3366 
Q 1206 2684 863 2116 
Q 663 2216 406 2316 
Q 750 2809 1063 3534 
z
M 5075 3053 
L 5438 3322 
Q 5925 2791 6275 2322 
L 5863 2016 
Q 5531 2503 5075 3053 
z
M 2588 3847 
L 2913 4128 
Q 3331 3797 3656 3478 
L 3294 3141 
Q 2938 3528 2588 3847 
z
" transform="scale(0.015625)"/>
      <path id="MicrosoftYaHei-5ea6" d="M 1550 1216 
L 1550 1628 
L 5469 1628 
L 5469 1222 
Q 4903 613 4147 163 
Q 5050 -200 6263 -309 
L 6019 -797 
Q 4625 -603 3644 -109 
Q 2600 -619 1250 -866 
Q 1150 -666 994 -416 
Q 2231 -222 3166 166 
Q 2497 600 2066 1216 
L 1550 1216 
z
M 1363 3541 
L 2294 3541 
L 2294 4066 
L 2769 4066 
L 2769 3541 
L 4538 3541 
L 4538 4072 
L 5013 4072 
L 5013 3541 
L 6150 3541 
L 6150 3128 
L 5013 3128 
L 5013 1928 
L 4538 1928 
L 4538 2147 
L 2769 2147 
L 2769 1922 
L 2294 1922 
L 2294 3128 
L 1363 3128 
L 1363 3541 
z
M 3025 5172 
L 3481 5391 
Q 3694 5056 3909 4634 
L 6213 4634 
L 6213 4197 
L 1225 4197 
L 1225 2316 
Q 1225 178 394 -872 
Q 238 -666 38 -447 
Q 725 397 738 2347 
L 738 4634 
L 3331 4634 
Q 3188 4909 3025 5172 
z
M 2769 2547 
L 4538 2547 
L 4538 3128 
L 2769 3128 
L 2769 2547 
z
M 4819 1216 
L 2588 1216 
Q 3031 728 3656 391 
Q 4334 741 4819 1216 
z
" transform="scale(0.015625)"/>
     </defs>
     <use xlink:href="#MicrosoftYaHei-5bc6"/>
     <use xlink:href="#MicrosoftYaHei-5ea6" transform="translate(100 0)"/>
    </g>
   </g>
   <g id="text_5">
    <g id="patch_3">
     <path d="M 471.919922 447.080228 
L 524.560078 447.080228 
Q 526.760078 447.080228 526.760078 444.880228 
L 526.760078 433.352572 
Q 526.760078 431.152572 524.560078 431.152572 
L 471.919922 431.152572 
Q 469.719922 431.152572 469.719922 433.352572 
L 469.719922 444.880228 
Q 469.719922 447.080228 471.919922 447.080228 
z
" style="fill: #fdf2f2; stroke: #c0392b; stroke-linejoin: miter"/>
    </g>
    <!-- ρ = m / V -->
    <g style="fill: #c0392b" transform="translate(471.919922 442.145697) scale(0.11 -0.11)">
     <defs>
      <path id="MicrosoftYaHei-Bold-3c1" d="M 1459 250 
L 1459 -1334 
L 447 -1334 
L 447 1722 
Q 447 2594 901 3067 
Q 1356 3541 2197 3541 
Q 3016 3541 3506 3058 
Q 3997 2575 3997 1759 
Q 3997 919 3567 417 
Q 3138 -84 2422 -84 
Q 1844 -84 1472 250 
L 1459 250 
z
M 1459 1019 
Q 1747 694 2163 694 
Q 2969 694 2969 1734 
Q 2969 2178 2745 2470 
Q 2522 2763 2175 2763 
Q 1459 2763 1459 1819 
L 1459 1019 
z
" transform="scale(0.015625)"/>
      <path id="MicrosoftYaHei-Bold-2f" d="M 3100 4841 
L 747 -803 
L -156 -803 
L 2188 4841 
L 3100 4841 
z
" transform="scale(0.015625)"/>
      <path id="MicrosoftYaHei-Bold-56" d="M 4541 4841 
L 2859 0 
L 1694 0 
L 34 4841 
L 1147 4841 
L 2194 1419 
Q 2272 1166 2291 941 
L 2309 941 
Q 2334 1172 2416 1431 
L 3463 4841 
L 4541 4841 
z
" transform="scale(0.015625)"/>
     </defs>
     <use xlink:href="#MicrosoftYaHei-Bold-3c1"/>
     <use xlink:href="#MicrosoftYaHei-Bold-20" transform="translate(66.357422 0)"/>
     <use xlink:href="#MicrosoftYaHei-Bold-3d" transform="translate(96.142578 0)"/>
     <use xlink:href="#MicrosoftYaHei-Bold-20" transform="translate(172.265625 0)"/>
     <use xlink:href="#MicrosoftYaHei-Bold-6d" transform="translate(202.050781 0)"/>
     <use xlink:href="#MicrosoftYaHei-Bold-20" transform="translate(300.244141 0)"/>
     <use xlink:href="#MicrosoftYaHei-Bold-2f" transform="translate(330.029297 0)"/>
     <use xlink:href="#MicrosoftYaHei-Bold-20" transform="translate(377.294922 0)"/>
     <use xlink:href="#MicrosoftYaHei-Bold-56" transform="translate(407.080078 0)"/>
    </g>
   </g>
   <g id="text_6">
    <!-- 压强 -->
    <g style="fill: #2c3e50" transform="translate(488.24 484.281906) scale(0.1 -0.1)">
     <defs>
      <path id="MicrosoftYaHei-538b" d="M 1363 3 
L 3538 3 
L 3538 2216 
L 1819 2216 
L 1819 2684 
L 3538 2684 
L 3538 4078 
L 4063 4078 
L 4063 2684 
L 5994 2684 
L 5994 2216 
L 4063 2216 
L 4063 3 
L 6250 3 
L 6250 -459 
L 1363 -459 
L 1363 3 
z
M 1363 2772 
Q 1363 1378 1188 672 
Q 1006 -59 488 -803 
Q 338 -622 100 -384 
Q 563 303 694 884 
Q 838 1459 838 2653 
L 838 4866 
L 6219 4866 
L 6219 4391 
L 1363 4391 
L 1363 2772 
z
M 4588 1516 
L 4938 1803 
Q 5413 1316 5881 791 
L 5469 459 
Q 4875 1191 4588 1516 
z
" transform="scale(0.015625)"/>
      <path id="MicrosoftYaHei-5f3a" d="M 5250 466 
L 5669 666 
Q 6031 28 6363 -641 
L 5894 -878 
Q 5794 -641 5688 -416 
Q 3750 -547 2219 -653 
L 2150 -134 
Q 3088 -97 3969 -59 
L 3969 866 
L 2894 866 
L 2894 622 
L 2431 622 
L 2431 2616 
L 3969 2616 
L 3969 3297 
L 3144 3297 
L 3144 3047 
L 2681 3047 
L 2681 4972 
L 5731 4972 
L 5731 3047 
L 5269 3047 
L 5269 3297 
L 4444 3297 
L 4444 2616 
L 5988 2616 
L 5988 866 
L 4444 866 
L 4444 -41 
Q 4975 -22 5488 3 
Q 5369 241 5250 466 
z
M 425 3466 
L 1650 3466 
L 1650 4516 
L 238 4516 
L 238 4941 
L 2113 4941 
L 2113 2772 
L 1650 2772 
L 1650 3041 
L 831 3041 
L 719 2072 
L 2056 2072 
Q 1994 741 1944 128 
Q 1888 -722 1100 -722 
Q 819 -722 425 -716 
Q 388 -484 325 -216 
Q 731 -247 1019 -247 
Q 1444 -247 1475 191 
Q 1525 828 1563 1647 
L 225 1647 
L 425 3466 
z
M 5269 4547 
L 3144 4547 
L 3144 3722 
L 5269 3722 
L 5269 4547 
z
M 5525 1291 
L 5525 2191 
L 4444 2191 
L 4444 1291 
L 5525 1291 
z
M 2894 1291 
L 3969 1291 
L 3969 2191 
L 2894 2191 
L 2894 1291 
z
" transform="scale(0.015625)"/>
     </defs>
     <use xlink:href="#MicrosoftYaHei-538b"/>
     <use xlink:href="#MicrosoftYaHei-5f3a" transform="translate(100 0)"/>
    </g>
   </g>
   <g id="text_7">
    <g id="patch_4">
     <path d="M 474.859844 559.346228 
L 521.620156 559.346228 
Q 523.820156 559.346228 523.820156 557.146228 
L 523.820156 545.618572 
Q 523.820156 543.418572 521.620156 543.418572 
L 474.859844 543.418572 
Q 472.659844 543.418572 472.659844 545.618572 
L 472.659844 557.146228 
Q 472.659844 559.346228 474.859844 559.346228 
z
" style="fill: #fdf2f2; stroke: #c0392b; stroke-linejoin: miter"/>
    </g>
    <!-- p = F / S -->
    <g style="fill: #c0392b" transform="translate(474.859844 554.411697) scale(0.11 -0.11)">
     <defs>
      <path id="MicrosoftYaHei-Bold-70" d="M 1469 416 
L 1469 -1591 
L 459 -1591 
L 459 3456 
L 1469 3456 
L 1469 2928 
L 1481 2928 
Q 1878 3541 2603 3541 
Q 3263 3541 3634 3080 
Q 4006 2619 4006 1825 
Q 4006 959 3575 437 
Q 3144 -84 2444 -84 
Q 1809 -84 1481 416 
L 1469 416 
z
M 1453 1528 
Q 1453 1159 1653 925 
Q 1853 691 2172 691 
Q 2550 691 2761 984 
Q 2972 1278 2972 1816 
Q 2972 2766 2231 2766 
Q 1888 2766 1670 2503 
Q 1453 2241 1453 1828 
L 1453 1528 
z
" transform="scale(0.015625)"/>
      <path id="MicrosoftYaHei-Bold-46" d="M 3319 3997 
L 1591 3997 
L 1591 2753 
L 3181 2753 
L 3181 1909 
L 1591 1909 
L 1591 0 
L 559 0 
L 559 4841 
L 3319 4841 
L 3319 3997 
z
" transform="scale(0.015625)"/>
      <path id="MicrosoftYaHei-Bold-53" d="M 338 1219 
Q 922 734 1666 734 
Q 2088 734 2300 879 
Q 2513 1025 2513 1253 
Q 2513 1450 2344 1625 
Q 2175 1800 1453 2100 
Q 319 2581 319 3500 
Q 319 4175 833 4548 
Q 1347 4922 2194 4922 
Q 2903 4922 3384 4738 
L 3384 3769 
Q 2897 4100 2244 4100 
Q 1863 4100 1634 3961 
Q 1406 3822 1406 3588 
Q 1406 3400 1562 3242 
Q 1719 3084 2334 2816 
Q 3056 2506 3326 2162 
Q 3597 1819 3597 1344 
Q 3597 647 3103 281 
Q 2609 -84 1700 -84 
Q 869 -84 338 184 
L 338 1219 
z
" transform="scale(0.015625)"/>
     </defs>
     <use xlink:href="#MicrosoftYaHei-Bold-70"/>
     <use xlink:href="#MicrosoftYaHei-Bold-20" transform="translate(66.601562 0)"/>
     <use xlink:href="#MicrosoftYaHei-Bold-3d" transform="translate(96.386719 0)"/>
     <use xlink:href="#MicrosoftYaHei-Bold-20" transform="translate(172.509766 0)"/>
     <use xlink:href="#MicrosoftYaHei-Bold-46" transform="translate(202.294922 0)"/>
     <use xlink:href="#MicrosoftYaHei-Bold-20" transform="translate(258.105469 0)"/>
     <use xlink:href="#MicrosoftYaHei-Bold-2f" transform="translate(287.890625 0)"/>
     <use xlink:href="#MicrosoftYaHei-Bold-20" transform="translate(335.15625 0)"/>
     <use xlink:href="#MicrosoftYaHei-Bold-53" transform="translate(364.941406 0)"/>
    </g>
   </g>
   <g id="text_8">
    <!-- 液体压强 -->
    <g style="fill: #2c3e50" transform="translate(478.24 596.547906) scale(0.1 -0.1)">
     <defs>
      <path id="MicrosoftYaHei-6db2" d="M 2750 1841 
Q 3575 2941 3875 4016 
L 4331 3916 
Q 4231 3584 4100 3266 
L 5881 3266 
L 5881 2847 
Q 5563 1328 4825 466 
Q 5381 -34 6294 -359 
Q 6213 -459 5975 -816 
Q 5069 -416 4494 122 
Q 3913 -416 3044 -878 
Q 2888 -653 2719 -459 
Q 3588 -22 4156 497 
Q 3694 1072 3413 1972 
Q 3213 1672 2981 1372 
Q 2869 1634 2750 1841 
z
M 1381 1747 
Q 2244 2853 2631 4041 
L 3081 3934 
Q 2875 3359 2625 2841 
L 2625 -859 
L 2175 -859 
L 2175 2041 
Q 1900 1609 1588 1234 
Q 1481 1559 1381 1747 
z
M 1850 4522 
L 3931 4522 
Q 3738 4891 3594 5141 
L 4038 5334 
Q 4188 5084 4419 4653 
L 4119 4522 
L 6238 4522 
L 6238 4103 
L 1850 4103 
L 1850 4522 
z
M 3719 2472 
Q 4019 1428 4481 828 
Q 5150 1603 5375 2853 
L 3913 2853 
Q 3819 2666 3719 2472 
z
M 288 -634 
Q 656 491 931 1784 
Q 1138 1691 1406 1591 
Q 1119 453 806 -803 
L 288 -634 
z
M 81 3222 
L 400 3578 
Q 981 3184 1481 2772 
Q 1250 2516 1113 2372 
Q 544 2878 81 3222 
z
M 325 4853 
L 650 5184 
Q 1063 4872 1725 4303 
Q 1513 4097 1350 3934 
Q 706 4541 325 4853 
z
M 4056 2409 
L 4438 2591 
Q 4638 2253 4863 1822 
L 4475 1622 
Q 4300 1984 4056 2409 
z
" transform="scale(0.015625)"/>
      <path id="MicrosoftYaHei-4f53" d="M 6350 778 
Q 6138 522 5981 316 
Q 4731 1278 4144 3572 
L 4144 934 
L 5063 934 
L 5063 484 
L 4144 484 
L 4144 -822 
L 3681 -822 
L 3681 484 
L 2763 484 
L 2763 934 
L 3681 934 
L 3681 3572 
L 3666 3572 
Q 3084 1413 1750 216 
Q 1606 397 1419 609 
Q 2625 1713 3225 3572 
L 1756 3572 
L 1756 4022 
L 3681 4022 
L 3681 5297 
L 4144 5297 
L 4144 4022 
L 6138 4022 
L 6138 3572 
L 4547 3572 
Q 5144 1628 6350 778 
z
M 56 2297 
Q 963 3622 1406 5316 
L 1881 5178 
Q 1638 4381 1331 3681 
L 1331 -816 
L 869 -816 
L 869 2741 
Q 588 2231 269 1784 
Q 175 2041 56 2297 
z
" transform="scale(0.015625)"/>
     </defs>
     <use xlink:href="#MicrosoftYaHei-6db2"/>
     <use xlink:href="#MicrosoftYaHei-4f53" transform="translate(100 0)"/>
     <use xlink:href="#MicrosoftYaHei-538b" transform="translate(200 0)"/>
     <use xlink:href="#MicrosoftYaHei-5f3a" transform="translate(300 0)"/>
    </g>
   </g>
   <g id="text_9">
    <g id="patch_5">
     <path d="M 472.982969 671.638869 
L 523.497031 671.638869 
Q 525.697031 671.638869 525.697031 669.438869 
L 525.697031 657.857931 
Q 525.697031 655.657931 523.497031 655.657931 
L 472.982969 655.657931 
Q 470.782969 655.657931 470.782969 657.857931 
L 470.782969 669.438869 
Q 470.782969 671.638869 472.982969 671.638869 
z
" style="fill: #fdf2f2; stroke: #c0392b; stroke-linejoin: miter"/>
    </g>
    <!-- p = ρ g h -->
    <g style="fill: #c0392b" transform="translate(472.982969 666.651056) scale(0.11 -0.11)">
     <defs>
      <path id="MicrosoftYaHei-Bold-68" d="M 3725 0 
L 2719 0 
L 2719 1969 
Q 2719 2766 2138 2766 
Q 1847 2766 1658 2544 
Q 1469 2322 1469 1969 
L 1469 0 
L 459 0 
L 459 5116 
L 1469 5116 
L 1469 2938 
L 1481 2938 
Q 1878 3541 2550 3541 
Q 3725 3541 3725 2122 
L 3725 0 
z
" transform="scale(0.015625)"/>
     </defs>
     <use xlink:href="#MicrosoftYaHei-Bold-70"/>
     <use xlink:href="#MicrosoftYaHei-Bold-20" transform="translate(66.601562 0)"/>
     <use xlink:href="#MicrosoftYaHei-Bold-3d" transform="translate(96.386719 0)"/>
     <use xlink:href="#MicrosoftYaHei-Bold-20" transform="translate(172.509766 0)"/>
     <use xlink:href="#MicrosoftYaHei-Bold-3c1" transform="translate(202.294922 0)"/>
     <use xlink:href="#MicrosoftYaHei-Bold-20" transform="translate(268.652344 0)"/>
     <use xlink:href="#MicrosoftYaHei-Bold-67" transform="translate(298.4375 0)"/>
     <use xlink:href="#MicrosoftYaHei-Bold-20" transform="translate(364.892578 0)"/>
     <use xlink:href="#MicrosoftYaHei-Bold-68" transform="translate(394.677734 0)"/>
    </g>
   </g>
   <g id="text_10">
    <!-- 浮力 -->
    <g style="fill: #2c3e50" transform="translate(488.24 708.813906) scale(0.1 -0.1)">
     <defs>
      <path id="MicrosoftYaHei-6d6e" d="M 1519 1359 
L 3806 1359 
L 3806 1728 
L 4981 2484 
L 2031 2484 
L 2031 2928 
L 5700 2928 
L 5700 2434 
L 4294 1509 
L 4294 1359 
L 6319 1359 
L 6319 909 
L 4294 909 
L 4294 -59 
Q 4294 -766 3550 -766 
Q 3225 -766 2656 -753 
Q 2625 -528 2575 -247 
Q 3150 -297 3444 -297 
Q 3806 -297 3806 59 
L 3806 909 
L 1519 909 
L 1519 1359 
z
M 1894 4428 
Q 1856 4647 1806 4891 
Q 4050 4941 5938 5128 
L 6025 4672 
Q 4725 4547 1894 4428 
z
M 813 1766 
Q 1075 1641 1319 1559 
Q 1075 609 769 -791 
L 219 -628 
Q 544 391 813 1766 
z
M 4569 3278 
Q 4988 3828 5350 4484 
L 5806 4247 
Q 5438 3647 4981 3016 
L 4569 3278 
z
M 388 3572 
Q 956 3159 1456 2741 
Q 1263 2534 1094 2341 
Q 556 2841 75 3216 
L 388 3572 
z
M 631 5184 
Q 1119 4803 1675 4309 
Q 1463 4103 1300 3934 
Q 769 4459 313 4841 
L 631 5184 
z
M 1906 4047 
L 2281 4266 
Q 2625 3797 2938 3297 
L 2525 3053 
Q 2225 3591 1906 4047 
z
M 3250 4197 
L 3644 4391 
Q 3919 3972 4206 3428 
L 3781 3209 
Q 3525 3747 3250 4197 
z
" transform="scale(0.015625)"/>
     </defs>
     <use xlink:href="#MicrosoftYaHei-6d6e"/>
     <use xlink:href="#MicrosoftYaHei-529b" transform="translate(100 0)"/>
    </g>
   </g>
   <g id="text_11">
    <g id="patch_6">
     <path d="M 462.195234 784.076744 
L 534.284766 784.076744 
Q 536.484766 784.076744 536.484766 781.876744 
L 536.484766 769.952056 
Q 536.484766 767.752056 534.284766 767.752056 
L 462.195234 767.752056 
Q 459.995234 767.752056 459.995234 769.952056 
L 459.995234 781.876744 
Q 459.995234 784.076744 462.195234 784.076744 
z
" style="fill: #fdf2f2; stroke: #c0392b; stroke-linejoin: miter"/>
    </g>
    <!-- F浮 = ρ g V排 -->
    <g style="fill: #c0392b" transform="translate(462.195234 779.088931) scale(0.11 -0.11)">
     <defs>
      <path id="MicrosoftYaHei-Bold-6d6e" d="M 706 5278 
Q 1156 4941 1744 4422 
L 1163 3809 
Q 663 4303 181 4716 
L 706 5278 
z
M 1750 1541 
L 3544 1541 
L 3544 1716 
Q 4181 2116 4456 2316 
L 2075 2316 
L 2075 3059 
L 4956 3059 
L 4494 3272 
Q 4922 3956 5172 4459 
L 1919 4272 
Q 1856 4703 1775 5028 
Q 4050 5084 5944 5234 
L 6050 4516 
L 5184 4459 
L 5950 4103 
Q 5647 3628 5259 3059 
L 5688 3059 
L 5688 2303 
Q 5184 1934 4575 1541 
L 6238 1541 
L 6238 784 
L 4431 784 
L 4431 -84 
Q 4431 -372 4304 -536 
Q 4178 -700 3898 -748 
Q 3619 -797 2594 -809 
Q 2519 -316 2425 9 
Q 2831 -22 3313 -22 
Q 3544 -22 3544 253 
L 3544 784 
L 1750 784 
L 1750 1541 
z
M 3919 4334 
Q 4075 4059 4363 3472 
L 3700 3197 
Q 3525 3622 3275 4066 
L 3919 4334 
z
M 2569 4247 
Q 2806 3884 3075 3422 
L 2400 3097 
Q 2188 3478 1900 3934 
L 2569 4247 
z
M 638 3634 
Q 1244 3191 1663 2822 
L 1075 2172 
Q 681 2559 94 3041 
L 638 3634 
z
M 719 1909 
Q 1219 1716 1556 1628 
L 1013 -797 
Q 550 -647 150 -547 
Q 463 522 719 1909 
z
" transform="scale(0.015625)"/>
      <path id="MicrosoftYaHei-Bold-6392" d="M 4300 5316 
L 5100 5316 
L 5100 4228 
L 6188 4228 
L 6188 3428 
L 5100 3428 
L 5100 2778 
L 6075 2778 
L 6075 1978 
L 5100 1978 
L 5100 1316 
L 6294 1316 
L 6294 516 
L 5100 516 
L 5100 -847 
L 4300 -847 
L 4300 5316 
z
M 1844 1316 
L 2925 1316 
L 2925 1978 
L 2150 1978 
L 2150 2778 
L 2925 2778 
L 2925 3428 
L 2138 3428 
L 2138 4228 
L 2925 4228 
L 2925 5316 
L 3750 5316 
L 3750 -847 
L 2925 -847 
L 2925 516 
L 1844 516 
L 1844 1316 
z
M 113 4153 
L 738 4153 
L 738 5253 
L 1531 5253 
L 1531 4153 
L 2000 4153 
L 2000 3378 
L 1531 3378 
L 1531 2597 
Q 1759 2681 1938 2753 
Q 1981 2259 2025 1922 
L 1531 1719 
L 1531 -3 
Q 1531 -350 1406 -542 
Q 1281 -734 1007 -771 
Q 734 -809 250 -809 
Q 188 -447 94 3 
L 581 3 
Q 738 3 738 253 
L 738 1375 
L 263 1159 
L 100 2059 
L 738 2297 
L 738 3378 
L 113 3378 
L 113 4153 
z
" transform="scale(0.015625)"/>
     </defs>
     <use xlink:href="#MicrosoftYaHei-Bold-46"/>
     <use xlink:href="#MicrosoftYaHei-Bold-6d6e" transform="translate(55.810547 0)"/>
     <use xlink:href="#MicrosoftYaHei-Bold-20" transform="translate(155.810547 0)"/>
     <use xlink:href="#MicrosoftYaHei-Bold-3d" transform="translate(185.595703 0)"/>
     <use xlink:href="#MicrosoftYaHei-Bold-20" transform="translate(261.71875 0)"/>
     <use xlink:href="#MicrosoftYaHei-Bold-3c1" transform="translate(291.503906 0)"/>
     <use xlink:href="#MicrosoftYaHei-Bold-20" transform="translate(357.861328 0)"/>
     <use xlink:href="#MicrosoftYaHei-Bold-67" transform="translate(387.646484 0)"/>
     <use xlink:href="#MicrosoftYaHei-Bold-20" transform="translate(454.101562 0)"/>
     <use xlink:href="#MicrosoftYaHei-Bold-56" transform="translate(483.886719 0)"/>
     <use xlink:href="#MicrosoftYaHei-Bold-6392" transform="translate(555.371094 0)"/>
    </g>
   </g>
   <g id="text_12">
    <!-- 电学 -->
    <g style="fill: #c0392b" transform="translate(1378.04 119.782) scale(0.13 -0.13)">
     <defs>
      <path id="MicrosoftYaHei-Bold-7535" d="M 5563 4522 
L 5563 1125 
Q 5866 997 6300 878 
Q 6131 -222 5828 -447 
Q 5525 -672 5025 -672 
L 3525 -672 
Q 2506 -672 2506 253 
L 2506 878 
L 1281 878 
L 1281 391 
L 381 391 
L 381 4522 
L 2506 4522 
L 2506 5291 
L 3413 5291 
L 3413 4522 
L 5563 4522 
z
M 4663 3734 
L 3413 3734 
L 3413 3097 
L 4663 3097 
L 4663 3734 
z
M 1281 3734 
L 1281 3097 
L 2506 3097 
L 2506 3734 
L 1281 3734 
z
M 4663 1666 
L 4663 2309 
L 3413 2309 
L 3413 1666 
L 4663 1666 
z
M 1281 1666 
L 2506 1666 
L 2506 2309 
L 1281 2309 
L 1281 1666 
z
M 3794 103 
L 4731 103 
Q 4963 103 5097 183 
Q 5231 263 5270 402 
Q 5309 541 5366 878 
L 3413 878 
L 3413 434 
Q 3413 103 3794 103 
z
" transform="scale(0.015625)"/>
     </defs>
     <use xlink:href="#MicrosoftYaHei-Bold-7535"/>
     <use xlink:href="#MicrosoftYaHei-Bold-5b66" transform="translate(100 0)"/>
    </g>
   </g>
   <g id="text_13">
    <!-- 欧姆定律 -->
    <g style="fill: #2c3e50" transform="translate(1371.04 259.749906) scale(0.1 -0.1)">
     <defs>
      <path id="MicrosoftYaHei-6b27" d="M 400 4791 
L 3038 4791 
L 3038 4328 
L 863 4328 
L 863 316 
L 2925 316 
L 2925 -147 
L 400 -147 
L 400 4791 
z
M 4306 3684 
L 4775 3684 
Q 4778 3250 4763 2891 
Q 4997 391 6319 -378 
Q 6119 -597 5931 -809 
Q 4888 -47 4569 1653 
Q 4247 84 2969 -841 
Q 2775 -597 2625 -434 
Q 4088 553 4275 2372 
Q 4306 2734 4306 3684 
z
M 5306 2709 
Q 5563 3509 5706 3991 
L 3950 3991 
Q 3700 3203 3400 2547 
Q 3200 2653 2981 2741 
Q 3538 3916 3813 5316 
L 4288 5222 
Q 4194 4825 4088 4453 
L 6194 4453 
L 6194 3966 
Q 5988 3309 5763 2572 
Q 5519 2659 5306 2709 
z
M 1100 3603 
L 1475 3809 
Q 1797 3294 2078 2841 
Q 2359 3431 2606 4028 
L 3044 3828 
Q 2697 3050 2363 2384 
Q 2856 1588 3213 1009 
L 2794 759 
Q 2484 1294 2119 1906 
Q 1769 1244 1438 709 
Q 1244 834 1056 928 
Q 1478 1644 1844 2366 
Q 1497 2953 1100 3603 
z
" transform="scale(0.015625)"/>
      <path id="MicrosoftYaHei-59c6" d="M 2300 2834 
L 2734 2834 
L 2863 4934 
L 5775 4934 
Q 5759 3859 5738 2834 
L 6256 2834 
L 6256 2409 
L 5728 2409 
Q 5706 1559 5681 747 
L 6169 747 
L 6169 322 
L 5666 322 
Q 5663 269 5663 216 
Q 5650 -741 4750 -722 
Q 4381 -722 3913 -716 
Q 3888 -453 3819 -197 
Q 4281 -234 4694 -241 
Q 5166 -256 5184 322 
L 2581 322 
L 2706 2409 
L 2300 2409 
L 2300 2834 
z
M 2538 122 
L 2163 -259 
Q 1844 78 1503 406 
Q 1081 -247 381 -753 
Q 288 -566 94 -347 
Q 772 128 1153 738 
Q 759 1097 344 1447 
Q 556 2509 694 3603 
L 175 3603 
L 175 4072 
L 747 4072 
Q 819 4697 863 5334 
L 1356 5284 
Q 1291 4656 1219 4072 
L 2281 4072 
L 2281 3609 
Q 2206 1791 1744 841 
Q 2134 503 2538 122 
z
M 5250 2409 
L 3188 2409 
L 3088 747 
L 5200 747 
Q 5228 1569 5250 2409 
z
M 5288 4509 
L 3313 4509 
L 3213 2834 
L 5259 2834 
Q 5278 3663 5288 4509 
z
M 1372 1153 
Q 1781 2078 1813 3603 
L 1159 3603 
Q 1013 2516 838 1578 
Q 1103 1375 1372 1153 
z
M 3725 1903 
L 4113 2109 
Q 4388 1691 4650 1191 
L 4244 966 
Q 4006 1453 3725 1903 
z
M 3819 3991 
L 4200 4191 
Q 4481 3772 4706 3328 
L 4306 3103 
Q 4081 3572 3819 3991 
z
" transform="scale(0.015625)"/>
      <path id="MicrosoftYaHei-5b9a" d="M 81 -384 
Q 1119 509 1281 2241 
L 1806 2159 
Q 1731 1581 1578 1081 
Q 2063 50 3081 -103 
L 3081 2647 
L 225 2647 
L 225 3116 
L 6163 3116 
L 6163 2647 
L 3600 2647 
L 3600 1634 
L 5775 1634 
L 5775 1172 
L 3600 1172 
L 3600 -138 
Q 4844 -169 6306 -116 
Q 6200 -359 6125 -634 
Q 4594 -653 3450 -616 
Q 2041 -616 1378 528 
Q 1022 -300 413 -872 
Q 269 -628 81 -384 
z
M 450 4566 
L 3116 4566 
Q 2931 4834 2725 5091 
L 3200 5347 
Q 3444 5066 3731 4716 
L 3450 4566 
L 5981 4566 
L 5981 3378 
L 5488 3378 
L 5488 4097 
L 944 4097 
L 944 3384 
L 450 3384 
L 450 4566 
z
" transform="scale(0.015625)"/>
      <path id="MicrosoftYaHei-5f8b" d="M 2288 2666 
L 3681 2666 
L 3681 3253 
L 2063 3253 
L 2063 3653 
L 3681 3653 
L 3681 4234 
L 2338 4234 
L 2338 4634 
L 3681 4634 
L 3681 5291 
L 4150 5291 
L 4150 4634 
L 5700 4634 
L 5700 3653 
L 6313 3653 
L 6313 3253 
L 5700 3253 
L 5700 2034 
L 5238 2034 
L 5238 2266 
L 4150 2266 
L 4150 1634 
L 5900 1634 
L 5900 1234 
L 4150 1234 
L 4150 647 
L 6206 647 
L 6206 247 
L 4150 247 
L 4150 -828 
L 3681 -828 
L 3681 247 
L 1813 247 
L 1813 647 
L 3681 647 
L 3681 1234 
L 2163 1234 
L 2163 1634 
L 3681 1634 
L 3681 2266 
L 2288 2266 
L 2288 2666 
z
M 81 1634 
Q 850 2409 1550 3678 
L 1975 3453 
Q 1694 2963 1406 2531 
L 1406 -828 
L 944 -828 
L 944 1888 
Q 625 1475 300 1134 
Q 200 1409 81 1634 
z
M 106 3584 
Q 975 4284 1581 5341 
L 2019 5091 
Q 1363 4041 363 3134 
Q 256 3366 106 3584 
z
M 4150 2666 
L 5238 2666 
L 5238 3253 
L 4150 3253 
L 4150 2666 
z
M 5238 4234 
L 4150 4234 
L 4150 3653 
L 5238 3653 
L 5238 4234 
z
" transform="scale(0.015625)"/>
     </defs>
     <use xlink:href="#MicrosoftYaHei-6b27"/>
     <use xlink:href="#MicrosoftYaHei-59c6" transform="translate(100 0)"/>
     <use xlink:href="#MicrosoftYaHei-5b9a" transform="translate(200 0)"/>
     <use xlink:href="#MicrosoftYaHei-5f8b" transform="translate(300 0)"/>
    </g>
   </g>
   <g id="text_14">
    <g id="patch_7">
     <path d="M 1367.745781 334.814228 
L 1414.334219 334.814228 
Q 1416.534219 334.814228 1416.534219 332.614228 
L 1416.534219 321.086572 
Q 1416.534219 318.886572 1414.334219 318.886572 
L 1367.745781 318.886572 
Q 1365.545781 318.886572 1365.545781 321.086572 
L 1365.545781 332.614228 
Q 1365.545781 334.814228 1367.745781 334.814228 
z
" style="fill: #fdf2f2; stroke: #c0392b; stroke-linejoin: miter"/>
    </g>
    <!-- I = U / R -->
    <g style="fill: #c0392b" transform="translate(1367.745781 329.879697) scale(0.11 -0.11)">
     <defs>
      <path id="MicrosoftYaHei-Bold-49" d="M 1588 4841 
L 1588 0 
L 556 0 
L 556 4841 
L 1588 4841 
z
" transform="scale(0.015625)"/>
      <path id="MicrosoftYaHei-Bold-55" d="M 4466 2081 
Q 4466 -84 2453 -84 
Q 509 -84 509 2025 
L 509 4841 
L 1544 4841 
L 1544 2019 
Q 1544 809 2497 809 
Q 3434 809 3434 1975 
L 3434 4841 
L 4466 4841 
L 4466 2081 
z
" transform="scale(0.015625)"/>
      <path id="MicrosoftYaHei-Bold-52" d="M 4553 0 
L 3366 0 
L 2606 1259 
Q 2372 1650 2222 1762 
Q 2072 1875 1903 1875 
L 1591 1875 
L 1591 0 
L 559 0 
L 559 4841 
L 2256 4841 
Q 3984 4841 3984 3528 
Q 3984 3034 3695 2681 
Q 3406 2328 2900 2184 
L 2900 2172 
Q 3234 2059 3641 1434 
L 4553 0 
z
M 1591 4056 
L 1591 2663 
L 2097 2663 
Q 2459 2663 2679 2873 
Q 2900 3084 2900 3400 
Q 2900 4056 2116 4056 
L 1591 4056 
z
" transform="scale(0.015625)"/>
     </defs>
     <use xlink:href="#MicrosoftYaHei-Bold-49"/>
     <use xlink:href="#MicrosoftYaHei-Bold-20" transform="translate(33.544922 0)"/>
     <use xlink:href="#MicrosoftYaHei-Bold-3d" transform="translate(63.330078 0)"/>
     <use xlink:href="#MicrosoftYaHei-Bold-20" transform="translate(139.453125 0)"/>
     <use xlink:href="#MicrosoftYaHei-Bold-55" transform="translate(169.238281 0)"/>
     <use xlink:href="#MicrosoftYaHei-Bold-20" transform="translate(246.875 0)"/>
     <use xlink:href="#MicrosoftYaHei-Bold-2f" transform="translate(276.660156 0)"/>
     <use xlink:href="#MicrosoftYaHei-Bold-20" transform="translate(323.925781 0)"/>
     <use xlink:href="#MicrosoftYaHei-Bold-52" transform="translate(353.710938 0)"/>
    </g>
   </g>
   <g id="text_15">
    <!-- 电功率 -->
    <g style="fill: #2c3e50" transform="translate(1376.04 372.015906) scale(0.1 -0.1)">
     <defs>
      <path id="MicrosoftYaHei-7535" d="M 406 4497 
L 2713 4497 
L 2713 5297 
L 3231 5297 
L 3231 4497 
L 5544 4497 
L 5544 984 
L 3231 984 
L 3231 253 
Q 3231 -128 3631 -128 
L 5094 -128 
Q 5519 -128 5613 153 
Q 5713 459 5756 1034 
Q 5938 953 6275 841 
Q 6200 341 6106 -16 
Q 5950 -603 5256 -603 
L 3594 -603 
Q 2713 -603 2713 259 
L 2713 984 
L 925 984 
L 925 553 
L 406 553 
L 406 4497 
z
M 5025 1453 
L 5025 2522 
L 3231 2522 
L 3231 1453 
L 5025 1453 
z
M 925 1453 
L 2713 1453 
L 2713 2522 
L 925 2522 
L 925 1453 
z
M 5025 4028 
L 3231 4028 
L 3231 2966 
L 5025 2966 
L 5025 4028 
z
M 925 2966 
L 2713 2966 
L 2713 4028 
L 925 4028 
L 925 2966 
z
" transform="scale(0.015625)"/>
      <path id="MicrosoftYaHei-529f" d="M 2500 3978 
L 3475 3978 
Q 3488 4538 3494 5278 
L 4000 5278 
Q 3991 4531 3975 3978 
L 5969 3978 
Q 5913 1791 5844 291 
Q 5775 -691 4956 -709 
Q 4413 -716 3756 -684 
Q 3713 -397 3656 -122 
Q 4306 -197 4844 -191 
Q 5313 -178 5344 378 
Q 5425 1847 5450 3497 
L 3963 3497 
Q 3950 3003 3931 2734 
Q 3813 266 1938 -847 
Q 1800 -653 1575 -422 
Q 3325 553 3431 2772 
Q 3450 3063 3463 3497 
L 2500 3497 
L 2500 3978 
z
M 81 822 
Q 619 941 1119 1056 
L 1119 4134 
L 169 4134 
L 169 4622 
L 2675 4622 
L 2675 4134 
L 1625 4134 
L 1625 1178 
Q 2166 1313 2656 1447 
Q 2669 1122 2700 947 
Q 1594 672 225 291 
L 81 822 
z
" transform="scale(0.015625)"/>
      <path id="MicrosoftYaHei-7387" d="M 2525 2009 
Q 2622 2016 3928 2081 
Q 3772 2300 3625 2491 
L 3963 2703 
Q 4413 2203 4794 1653 
L 4394 1403 
Q 4284 1569 4178 1725 
Q 2991 1659 2213 1597 
Q 2075 1584 1881 1541 
L 1725 1966 
Q 1913 2028 2006 2084 
Q 2534 2441 3050 2913 
Q 2597 2894 2275 2866 
Q 2144 2847 1988 2809 
L 1800 3191 
Q 1956 3247 2088 3366 
Q 2509 3722 2875 4228 
L 231 4228 
L 231 4666 
L 3031 4666 
Q 2878 4944 2744 5153 
L 3194 5372 
Q 3438 5000 3616 4666 
L 6175 4666 
L 6175 4228 
L 3053 4228 
L 3350 4072 
Q 2844 3553 2494 3247 
Q 2850 3256 3425 3269 
Q 3675 3519 3925 3797 
L 4356 3547 
Q 3363 2603 2525 2009 
z
M 144 991 
L 2994 991 
L 2994 1541 
L 3488 1541 
L 3488 991 
L 6275 991 
L 6275 553 
L 3488 553 
L 3488 -853 
L 2994 -853 
L 2994 553 
L 144 553 
L 144 991 
z
M 1719 2672 
L 1944 2303 
Q 1200 1866 425 1409 
L 163 1828 
Q 813 2134 1719 2672 
z
M 4856 2678 
Q 5750 2172 6250 1816 
L 5975 1409 
Q 5331 1909 4600 2341 
L 4856 2678 
z
M 5994 3591 
Q 5519 3178 4963 2809 
L 4644 3141 
Q 5244 3534 5638 3928 
L 5994 3591 
z
M 363 3634 
L 681 3941 
Q 1200 3528 1588 3159 
L 1238 2816 
Q 875 3197 363 3634 
z
" transform="scale(0.015625)"/>
     </defs>
     <use xlink:href="#MicrosoftYaHei-7535"/>
     <use xlink:href="#MicrosoftYaHei-529f" transform="translate(100 0)"/>
     <use xlink:href="#MicrosoftYaHei-7387" transform="translate(200 0)"/>
    </g>
   </g>
   <g id="text_16">
    <g id="patch_8">
     <path d="M 1372.209375 447.080228 
L 1409.870625 447.080228 
Q 1412.070625 447.080228 1412.070625 444.880228 
L 1412.070625 433.352572 
Q 1412.070625 431.152572 1409.870625 431.152572 
L 1372.209375 431.152572 
Q 1370.009375 431.152572 1370.009375 433.352572 
L 1370.009375 444.880228 
Q 1370.009375 447.080228 1372.209375 447.080228 
z
" style="fill: #fdf2f2; stroke: #c0392b; stroke-linejoin: miter"/>
    </g>
    <!-- P = U I -->
    <g style="fill: #c0392b" transform="translate(1372.209375 442.145697) scale(0.11 -0.11)">
     <defs>
      <path id="MicrosoftYaHei-Bold-50" d="M 1591 1688 
L 1591 0 
L 559 0 
L 559 4841 
L 2225 4841 
Q 4031 4841 4031 3309 
Q 4031 2566 3486 2117 
Q 2941 1669 2122 1688 
L 1591 1688 
z
M 1591 4041 
L 1591 2478 
L 2038 2478 
Q 2947 2478 2947 3269 
Q 2947 4041 2047 4041 
L 1591 4041 
z
" transform="scale(0.015625)"/>
     </defs>
     <use xlink:href="#MicrosoftYaHei-Bold-50"/>
     <use xlink:href="#MicrosoftYaHei-Bold-20" transform="translate(65.722656 0)"/>
     <use xlink:href="#MicrosoftYaHei-Bold-3d" transform="translate(95.507812 0)"/>
     <use xlink:href="#MicrosoftYaHei-Bold-20" transform="translate(171.630859 0)"/>
     <use xlink:href="#MicrosoftYaHei-Bold-55" transform="translate(201.416016 0)"/>
     <use xlink:href="#MicrosoftYaHei-Bold-20" transform="translate(279.052734 0)"/>
     <use xlink:href="#MicrosoftYaHei-Bold-49" transform="translate(308.837891 0)"/>
    </g>
   </g>
   <g id="text_17">
    <!-- 电功 -->
    <g style="fill: #2c3e50" transform="translate(1381.04 484.281906) scale(0.1 -0.1)">
     <use xlink:href="#MicrosoftYaHei-7535"/>
     <use xlink:href="#MicrosoftYaHei-529f" transform="translate(100 0)"/>
    </g>
   </g>
   <g id="text_18">
    <g id="patch_9">
     <path d="M 1365.989219 559.346228 
L 1416.090781 559.346228 
Q 1418.290781 559.346228 1418.290781 557.146228 
L 1418.290781 545.618572 
Q 1418.290781 543.418572 1416.090781 543.418572 
L 1365.989219 543.418572 
Q 1363.789219 543.418572 1363.789219 545.618572 
L 1363.789219 557.146228 
Q 1363.789219 559.346228 1365.989219 559.346228 
z
" style="fill: #fdf2f2; stroke: #c0392b; stroke-linejoin: miter"/>
    </g>
    <!-- W = U I t -->
    <g style="fill: #c0392b" transform="translate(1365.989219 554.411697) scale(0.11 -0.11)">
     <defs>
      <path id="MicrosoftYaHei-Bold-57" d="M 6825 4841 
L 5534 0 
L 4388 0 
L 3563 3156 
Q 3497 3413 3484 3691 
L 3472 3691 
Q 3441 3366 3384 3156 
L 2541 0 
L 1350 0 
L 59 4841 
L 1191 4841 
L 1909 1559 
Q 1956 1344 1975 1016 
L 1997 1016 
Q 2013 1272 2094 1575 
L 2994 4841 
L 4091 4841 
L 4909 1534 
Q 4959 1338 4988 1022 
L 5003 1022 
Q 5016 1294 5075 1553 
L 5778 4841 
L 6825 4841 
z
" transform="scale(0.015625)"/>
      <path id="MicrosoftYaHei-Bold-74" d="M 2494 41 
Q 2266 -84 1803 -84 
Q 703 -84 703 1072 
L 703 2703 
L 134 2703 
L 134 3456 
L 703 3456 
L 703 4216 
L 1706 4503 
L 1706 3456 
L 2494 3456 
L 2494 2703 
L 1706 2703 
L 1706 1247 
Q 1706 694 2144 694 
Q 2313 694 2494 794 
L 2494 41 
z
" transform="scale(0.015625)"/>
     </defs>
     <use xlink:href="#MicrosoftYaHei-Bold-57"/>
     <use xlink:href="#MicrosoftYaHei-Bold-20" transform="translate(107.617188 0)"/>
     <use xlink:href="#MicrosoftYaHei-Bold-3d" transform="translate(137.402344 0)"/>
     <use xlink:href="#MicrosoftYaHei-Bold-20" transform="translate(213.525391 0)"/>
     <use xlink:href="#MicrosoftYaHei-Bold-55" transform="translate(243.310547 0)"/>
     <use xlink:href="#MicrosoftYaHei-Bold-20" transform="translate(320.947266 0)"/>
     <use xlink:href="#MicrosoftYaHei-Bold-49" transform="translate(350.732422 0)"/>
     <use xlink:href="#MicrosoftYaHei-Bold-20" transform="translate(384.277344 0)"/>
     <use xlink:href="#MicrosoftYaHei-Bold-74" transform="translate(414.0625 0)"/>
    </g>
   </g>
   <g id="text_19">
    <!-- 焦耳定律 -->
    <g style="fill: #2c3e50" transform="translate(1371.04 596.547906) scale(0.1 -0.1)">
     <defs>
      <path id="MicrosoftYaHei-7126" d="M 113 3222 
Q 956 4109 1475 5347 
L 1950 5178 
Q 1756 4778 1544 4409 
L 3491 4409 
Q 3269 4763 2988 5122 
L 3381 5372 
Q 3744 4934 3950 4628 
L 3591 4409 
L 5975 4409 
L 5975 3997 
L 3844 3997 
L 3844 3347 
L 5738 3347 
L 5738 2934 
L 3844 2934 
L 3844 2284 
L 5738 2284 
L 5738 1872 
L 3844 1872 
L 3844 1222 
L 6075 1222 
L 6075 809 
L 1494 809 
L 1494 666 
L 1006 666 
L 1006 3553 
Q 734 3163 438 2809 
Q 300 3022 113 3222 
z
M 1494 3347 
L 3356 3347 
L 3356 3997 
L 1494 3997 
L 1494 3347 
z
M 1494 1222 
L 3356 1222 
L 3356 1872 
L 1494 1872 
L 1494 1222 
z
M 1494 2284 
L 3356 2284 
L 3356 2934 
L 1494 2934 
L 1494 2284 
z
M 975 534 
L 1413 322 
Q 1175 -197 725 -866 
Q 569 -759 300 -597 
Q 731 -3 975 534 
z
M 5069 309 
L 5475 541 
Q 5850 9 6131 -522 
L 5694 -791 
Q 5450 -259 5069 309 
z
M 3531 353 
L 3975 541 
Q 4275 9 4494 -541 
L 4006 -753 
Q 3775 -116 3531 353 
z
M 2019 322 
L 2481 478 
Q 2656 103 2894 -597 
L 2375 -766 
Q 2200 -91 2019 322 
z
" transform="scale(0.015625)"/>
      <path id="MicrosoftYaHei-8033" d="M 106 672 
Q 622 700 1138 728 
L 1138 4491 
L 200 4491 
L 200 4941 
L 6250 4941 
L 6250 4491 
L 5113 4491 
L 5113 953 
Q 5706 988 6294 1022 
L 6256 572 
Q 5688 541 5113 509 
L 5113 -772 
L 4625 -772 
L 4625 481 
Q 2416 359 144 209 
L 106 672 
z
M 4625 925 
L 4625 1766 
L 1625 1766 
L 1625 753 
Q 3144 841 4625 925 
z
M 1625 2203 
L 4625 2203 
L 4625 3128 
L 1625 3128 
L 1625 2203 
z
M 1625 3566 
L 4625 3566 
L 4625 4491 
L 1625 4491 
L 1625 3566 
z
" transform="scale(0.015625)"/>
     </defs>
     <use xlink:href="#MicrosoftYaHei-7126"/>
     <use xlink:href="#MicrosoftYaHei-8033" transform="translate(100 0)"/>
     <use xlink:href="#MicrosoftYaHei-5b9a" transform="translate(200 0)"/>
     <use xlink:href="#MicrosoftYaHei-5f8b" transform="translate(300 0)"/>
    </g>
   </g>
   <g id="text_20">
    <g id="patch_10">
     <path d="M 1365.459844 671.612228 
L 1416.620156 671.612228 
Q 1418.820156 671.612228 1418.820156 669.412228 
L 1418.820156 657.884572 
Q 1418.820156 655.684572 1416.620156 655.684572 
L 1365.459844 655.684572 
Q 1363.259844 655.684572 1363.259844 657.884572 
L 1363.259844 669.412228 
Q 1363.259844 671.612228 1365.459844 671.612228 
z
" style="fill: #fdf2f2; stroke: #c0392b; stroke-linejoin: miter"/>
    </g>
    <!-- Q = I² R t -->
    <g style="fill: #c0392b" transform="translate(1365.459844 666.677697) scale(0.11 -0.11)">
     <defs>
      <path id="MicrosoftYaHei-Bold-51" d="M 256 2356 
Q 256 3494 920 4208 
Q 1584 4922 2675 4922 
Q 3713 4922 4345 4231 
Q 4978 3541 4978 2456 
Q 4978 1325 4319 619 
Q 4278 575 4238 534 
L 5469 -653 
L 3941 -653 
L 3297 3 
Q 2972 -84 2597 -84 
Q 1556 -84 906 598 
Q 256 1281 256 2356 
z
M 1341 2413 
Q 1341 1706 1681 1257 
Q 2022 809 2616 809 
Q 3222 809 3559 1239 
Q 3897 1669 3897 2394 
Q 3897 3150 3569 3589 
Q 3241 4028 2644 4028 
Q 2038 4028 1689 3578 
Q 1341 3128 1341 2413 
z
" transform="scale(0.015625)"/>
      <path id="MicrosoftYaHei-Bold-b2" d="M 2413 1972 
L 391 1972 
L 391 2484 
L 1225 3275 
Q 1497 3531 1562 3659 
Q 1628 3788 1628 3950 
Q 1628 4100 1529 4195 
Q 1431 4291 1266 4291 
Q 925 4291 550 3944 
L 550 4644 
Q 934 4906 1388 4906 
Q 1838 4906 2105 4676 
Q 2372 4447 2372 4044 
Q 2372 3738 2230 3519 
Q 2088 3300 1641 2900 
L 1266 2563 
L 1266 2550 
L 2413 2550 
L 2413 1972 
z
" transform="scale(0.015625)"/>
     </defs>
     <use xlink:href="#MicrosoftYaHei-Bold-51"/>
     <use xlink:href="#MicrosoftYaHei-Bold-20" transform="translate(81.835938 0)"/>
     <use xlink:href="#MicrosoftYaHei-Bold-3d" transform="translate(111.621094 0)"/>
     <use xlink:href="#MicrosoftYaHei-Bold-20" transform="translate(187.744141 0)"/>
     <use xlink:href="#MicrosoftYaHei-Bold-49" transform="translate(217.529297 0)"/>
     <use xlink:href="#MicrosoftYaHei-Bold-b2" transform="translate(251.074219 0)"/>
     <use xlink:href="#MicrosoftYaHei-Bold-20" transform="translate(294.287109 0)"/>
     <use xlink:href="#MicrosoftYaHei-Bold-52" transform="translate(324.072266 0)"/>
     <use xlink:href="#MicrosoftYaHei-Bold-20" transform="translate(393.896484 0)"/>
     <use xlink:href="#MicrosoftYaHei-Bold-74" transform="translate(423.681641 0)"/>
    </g>
   </g>
   <g id="text_21">
    <!-- 电阻串联 -->
    <g style="fill: #2c3e50" transform="translate(1371.04 708.813906) scale(0.1 -0.1)">
     <defs>
      <path id="MicrosoftYaHei-963b" d="M 1900 -122 
L 2700 -122 
L 2700 4928 
L 5688 4928 
L 5688 -122 
L 6288 -122 
L 6288 -566 
L 1900 -566 
L 1900 -122 
z
M 2263 1572 
Q 2444 366 1669 234 
Q 1388 184 1038 222 
Q 988 478 900 747 
Q 1231 672 1475 697 
Q 1913 741 1763 1591 
Q 1675 2097 1200 2716 
Q 1475 3641 1713 4534 
L 875 4534 
L 875 -841 
L 400 -841 
L 400 4972 
L 2231 4972 
L 2231 4534 
Q 1938 3572 1694 2797 
Q 2194 2116 2263 1572 
z
M 3188 1559 
L 5200 1559 
L 5200 2803 
L 3188 2803 
L 3188 1559 
z
M 3188 -122 
L 5200 -122 
L 5200 1122 
L 3188 1122 
L 3188 -122 
z
M 3188 4484 
L 3188 3241 
L 5200 3241 
L 5200 4484 
L 3188 4484 
z
" transform="scale(0.015625)"/>
      <path id="MicrosoftYaHei-4e32" d="M 531 2216 
L 2944 2216 
L 2944 2872 
L 1300 2872 
L 1300 2666 
L 806 2666 
L 806 4578 
L 2944 4578 
L 2944 5309 
L 3450 5309 
L 3450 4578 
L 5594 4578 
L 5594 2666 
L 5100 2666 
L 5100 2872 
L 3450 2872 
L 3450 2216 
L 5869 2216 
L 5869 134 
L 5375 134 
L 5375 366 
L 3450 366 
L 3450 -822 
L 2944 -822 
L 2944 366 
L 1025 366 
L 1025 134 
L 531 134 
L 531 2216 
z
M 5375 1778 
L 3450 1778 
L 3450 803 
L 5375 803 
L 5375 1778 
z
M 1025 803 
L 2944 803 
L 2944 1778 
L 1025 1778 
L 1025 803 
z
M 5100 4141 
L 3450 4141 
L 3450 3309 
L 5100 3309 
L 5100 4141 
z
M 1300 3309 
L 2944 3309 
L 2944 4141 
L 1300 4141 
L 1300 3309 
z
" transform="scale(0.015625)"/>
      <path id="MicrosoftYaHei-8054" d="M 81 553 
Q 319 591 556 631 
L 556 4428 
L 150 4428 
L 150 4866 
L 2850 4866 
L 2850 4428 
L 2381 4428 
L 2381 953 
Q 2666 1006 2950 1059 
Q 2963 803 2994 622 
Q 2697 563 2381 500 
L 2381 -822 
L 1925 -822 
L 1925 406 
Q 1122 244 200 53 
L 81 553 
z
M 2600 2397 
L 4044 2397 
Q 4069 2853 4066 3528 
L 2775 3528 
L 2775 3991 
L 4463 3991 
Q 4744 4441 5200 5309 
L 5688 5078 
Q 5300 4475 4966 3991 
L 6013 3991 
L 6013 3528 
L 4550 3528 
Q 4550 2850 4528 2397 
L 6225 2397 
L 6225 1934 
L 4591 1934 
Q 5069 441 6313 -284 
Q 6088 -509 5913 -753 
Q 4803 88 4350 1353 
Q 4006 13 2831 -816 
Q 2638 -572 2481 -409 
Q 3784 413 4006 1934 
L 2600 1934 
L 2600 2397 
z
M 1925 869 
L 1925 1753 
L 1013 1753 
L 1013 709 
Q 1472 788 1925 869 
z
M 1013 2178 
L 1925 2178 
L 1925 3091 
L 1013 3091 
L 1013 2178 
z
M 1013 3516 
L 1925 3516 
L 1925 4428 
L 1013 4428 
L 1013 3516 
z
M 3013 5053 
L 3375 5309 
Q 3750 4884 4081 4378 
L 3675 4097 
Q 3413 4528 3013 5053 
z
" transform="scale(0.015625)"/>
     </defs>
     <use xlink:href="#MicrosoftYaHei-7535"/>
     <use xlink:href="#MicrosoftYaHei-963b" transform="translate(100 0)"/>
     <use xlink:href="#MicrosoftYaHei-4e32" transform="translate(200 0)"/>
     <use xlink:href="#MicrosoftYaHei-8054" transform="translate(300 0)"/>
    </g>
   </g>
   <g id="text_22">
    <g id="patch_11">
     <path d="M 1357.808828 783.878228 
L 1424.271172 783.878228 
Q 1426.471172 783.878228 1426.471172 781.678228 
L 1426.471172 770.150572 
Q 1426.471172 767.950572 1424.271172 767.950572 
L 1357.808828 767.950572 
Q 1355.608828 767.950572 1355.608828 770.150572 
L 1355.608828 781.678228 
Q 1355.608828 783.878228 1357.808828 783.878228 
z
" style="fill: #fdf2f2; stroke: #c0392b; stroke-linejoin: miter"/>
    </g>
    <!-- R = R1 + R2 -->
    <g style="fill: #c0392b" transform="translate(1357.808828 778.943697) scale(0.11 -0.11)">
     <defs>
      <path id="MicrosoftYaHei-Bold-31" d="M 2716 4947 
L 2716 0 
L 1700 0 
L 1700 3809 
Q 1513 3647 1188 3517 
Q 863 3388 591 3356 
L 591 4222 
Q 1447 4472 2072 4947 
L 2716 4947 
z
" transform="scale(0.015625)"/>
      <path id="MicrosoftYaHei-Bold-2b" d="M 4072 1653 
L 2766 1653 
L 2766 347 
L 2109 347 
L 2109 1653 
L 797 1653 
L 797 2313 
L 2109 2313 
L 2109 3625 
L 2766 3625 
L 2766 2313 
L 4072 2313 
L 4072 1653 
z
" transform="scale(0.015625)"/>
      <path id="MicrosoftYaHei-Bold-32" d="M 1500 841 
L 3553 841 
L 3553 0 
L 334 0 
L 334 359 
Q 334 738 473 1050 
Q 613 1363 856 1633 
Q 1100 1903 1613 2266 
Q 2081 2616 2268 2886 
Q 2456 3156 2456 3459 
Q 2456 4113 1744 4113 
Q 1119 4113 550 3613 
L 550 4513 
Q 1184 4922 1975 4922 
Q 2700 4922 3122 4551 
Q 3544 4181 3544 3531 
Q 3544 3169 3422 2876 
Q 3300 2584 3069 2328 
Q 2838 2072 2328 1713 
Q 1838 1363 1669 1172 
Q 1500 981 1500 841 
z
" transform="scale(0.015625)"/>
     </defs>
     <use xlink:href="#MicrosoftYaHei-Bold-52"/>
     <use xlink:href="#MicrosoftYaHei-Bold-20" transform="translate(69.824219 0)"/>
     <use xlink:href="#MicrosoftYaHei-Bold-3d" transform="translate(99.609375 0)"/>
     <use xlink:href="#MicrosoftYaHei-Bold-20" transform="translate(175.732422 0)"/>
     <use xlink:href="#MicrosoftYaHei-Bold-52" transform="translate(205.517578 0)"/>
     <use xlink:href="#MicrosoftYaHei-Bold-31" transform="translate(275.341797 0)"/>
     <use xlink:href="#MicrosoftYaHei-Bold-20" transform="translate(337.011719 0)"/>
     <use xlink:href="#MicrosoftYaHei-Bold-2b" transform="translate(366.796875 0)"/>
     <use xlink:href="#MicrosoftYaHei-Bold-20" transform="translate(442.919922 0)"/>
     <use xlink:href="#MicrosoftYaHei-Bold-52" transform="translate(472.705078 0)"/>
     <use xlink:href="#MicrosoftYaHei-Bold-32" transform="translate(542.529297 0)"/>
    </g>
   </g>
   <g id="text_23">
    <!-- 热学 -->
    <g style="fill: #c0392b" transform="translate(2270.84 119.782) scale(0.13 -0.13)">
     <defs>
      <path id="MicrosoftYaHei-Bold-70ed" d="M 5731 2897 
Q 6038 2753 6350 2634 
Q 6297 1594 6090 1283 
Q 5884 972 5538 972 
Q 5106 972 4848 1230 
Q 4591 1488 4591 2306 
L 4100 1603 
L 3550 2022 
Q 3209 1366 2631 878 
Q 2331 1222 2031 1534 
Q 2556 1941 2856 2519 
Q 2572 2719 2288 2903 
Q 2291 2744 2306 2578 
L 1694 2463 
L 1694 1666 
Q 1694 1331 1556 1147 
Q 1419 963 1186 930 
Q 953 897 350 878 
Q 269 1334 156 1653 
Q 331 1634 625 1634 
Q 875 1634 875 1859 
L 875 2306 
L 219 2172 
L 113 2972 
L 875 3081 
L 875 3791 
L 163 3791 
L 163 4541 
L 875 4541 
L 875 5328 
L 1694 5328 
L 1694 4541 
L 2306 4541 
L 2306 3791 
L 1694 3791 
L 1694 3213 
L 2300 3316 
Q 2284 3122 2288 2919 
L 2731 3522 
L 3103 3288 
Q 3144 3525 3163 3784 
L 2525 3784 
L 2525 4534 
L 3175 4534 
L 3175 5316 
L 3981 5316 
L 3981 4534 
L 5400 4534 
Q 5375 3672 5375 2991 
Q 5375 2134 5400 2003 
Q 5425 1872 5538 1872 
Q 5634 1872 5667 2003 
Q 5700 2134 5731 2897 
z
M 3831 2825 
L 4591 2338 
L 4588 3784 
L 3963 3784 
Q 3931 3288 3831 2825 
z
M 5613 922 
Q 5931 328 6275 -509 
L 5481 -841 
Q 5200 -122 4850 584 
L 5613 922 
z
M 806 841 
L 1575 516 
Q 1263 -166 850 -903 
L 113 -516 
Q 563 247 806 841 
z
M 4163 803 
Q 4456 116 4663 -416 
L 3844 -691 
Q 3681 -159 3394 566 
L 4163 803 
z
M 2688 716 
Q 2919 103 3113 -509 
L 2313 -741 
Q 2113 -66 1906 503 
L 2688 716 
z
" transform="scale(0.015625)"/>
     </defs>
     <use xlink:href="#MicrosoftYaHei-Bold-70ed"/>
     <use xlink:href="#MicrosoftYaHei-Bold-5b66" transform="translate(100 0)"/>
    </g>
   </g>
   <g id="text_24">
    <!-- 吸放热 -->
    <g style="fill: #2c3e50" transform="translate(2268.84 259.749906) scale(0.1 -0.1)">
     <defs>
      <path id="MicrosoftYaHei-5438" d="M 3263 2478 
Q 3175 491 1975 -834 
Q 1794 -647 1575 -484 
Q 2388 391 2631 1416 
Q 2856 2316 2850 4466 
L 2288 4466 
L 2288 4909 
L 5406 4909 
L 5406 4441 
L 4800 3184 
L 5838 3184 
L 5838 2734 
Q 5538 1591 4869 703 
Q 5500 47 6331 -322 
Q 6144 -497 5913 -784 
Q 5125 -316 4538 309 
Q 3906 -366 3025 -878 
Q 2850 -647 2675 -478 
Q 3594 41 4213 697 
Q 3606 1478 3263 2478 
z
M 381 4709 
L 2056 4709 
L 2056 859 
L 838 859 
L 838 434 
L 381 434 
L 381 4709 
z
M 4281 3197 
L 4881 4466 
L 3325 4466 
Q 3325 3991 3313 3578 
Q 3750 2066 4538 1078 
Q 5113 1828 5331 2741 
L 4281 2741 
L 4281 3197 
z
M 1600 1284 
L 1600 4284 
L 838 4284 
L 838 1284 
L 1600 1284 
z
" transform="scale(0.015625)"/>
      <path id="MicrosoftYaHei-653e" d="M 3956 5359 
L 4456 5272 
Q 4322 4681 4106 4128 
L 6281 4128 
L 6281 3666 
L 5759 3666 
Q 5638 1816 4884 725 
Q 5447 25 6338 -353 
Q 6131 -628 5994 -847 
Q 5153 -394 4559 322 
Q 3947 -356 3094 -903 
Q 2950 -722 2738 -509 
Q 3669 56 4259 731 
Q 3713 1625 3563 2988 
Q 3378 2669 3163 2366 
Q 3031 2553 2850 2766 
Q 3663 3884 3956 5359 
z
M 156 4184 
L 3169 4184 
L 3169 3722 
L 1400 3722 
Q 1394 3166 1378 2703 
L 2813 2703 
Q 2750 1166 2694 241 
Q 2638 -584 1981 -616 
Q 1600 -622 1263 -609 
Q 1225 -378 1156 -84 
Q 1569 -128 1794 -128 
Q 2175 -128 2206 347 
Q 2269 1078 2306 2241 
L 1359 2241 
Q 1338 216 369 -853 
Q 225 -641 38 -416 
Q 625 247 750 1003 
Q 909 1713 906 3722 
L 156 3722 
L 156 4184 
z
M 5263 3666 
L 3934 3666 
Q 4034 2134 4584 1166 
Q 5188 2131 5263 3666 
z
M 1206 5141 
L 1631 5366 
Q 1900 4966 2144 4503 
L 1706 4272 
Q 1456 4753 1206 5141 
z
" transform="scale(0.015625)"/>
      <path id="MicrosoftYaHei-70ed" d="M 2456 3028 
L 2725 3384 
Q 3013 3209 3297 3031 
Q 3394 3453 3400 3953 
L 2631 3953 
L 2631 4403 
L 3409 4403 
Q 3422 4922 3419 5347 
L 3900 5347 
Q 3900 4941 3888 4403 
L 5338 4403 
Q 5281 2553 5419 1897 
Q 5500 1528 5656 1528 
Q 5781 1528 5819 1741 
Q 5875 2047 5919 2578 
Q 6156 2491 6381 2428 
Q 6319 1872 6250 1547 
Q 6119 972 5669 972 
Q 5131 972 4944 1841 
Q 4831 2422 4850 3953 
L 3878 3953 
Q 3869 3300 3728 2756 
Q 4169 2472 4594 2178 
L 4281 1734 
Q 3913 2019 3569 2269 
Q 3178 1334 2313 816 
Q 2156 1009 1950 1222 
Q 2803 1672 3153 2563 
Q 2791 2816 2456 3028 
z
M 175 2753 
Q 663 2878 1138 3013 
L 1138 3966 
L 250 3966 
L 250 4397 
L 1138 4397 
L 1138 5322 
L 1613 5322 
L 1613 4397 
L 2350 4397 
L 2350 3966 
L 1613 3966 
L 1613 3150 
Q 1956 3256 2294 3366 
Q 2294 3078 2306 2891 
Q 2272 2878 1613 2672 
L 1613 1753 
Q 1613 997 906 997 
Q 638 997 325 1009 
Q 300 1222 250 1522 
Q 556 1472 806 1472 
Q 1138 1472 1138 1809 
L 1138 2525 
Q 763 2406 269 2253 
L 175 2753 
z
M 5044 634 
L 5444 872 
Q 5850 272 6250 -397 
L 5806 -659 
Q 5475 -41 5044 634 
z
M 900 728 
L 1338 541 
Q 1056 -103 650 -791 
Q 463 -684 219 -572 
Q 650 103 900 728 
z
M 1919 478 
L 2331 659 
Q 2619 134 2925 -503 
L 2463 -703 
Q 2194 -59 1919 478 
z
M 3506 509 
L 3919 691 
Q 4238 134 4519 -453 
L 4063 -647 
Q 3825 -59 3506 509 
z
" transform="scale(0.015625)"/>
     </defs>
     <use xlink:href="#MicrosoftYaHei-5438"/>
     <use xlink:href="#MicrosoftYaHei-653e" transform="translate(100 0)"/>
     <use xlink:href="#MicrosoftYaHei-70ed" transform="translate(200 0)"/>
    </g>
   </g>
   <g id="text_25">
    <g id="patch_12">
     <path d="M 2253.944922 334.814228 
L 2313.735078 334.814228 
Q 2315.935078 334.814228 2315.935078 332.614228 
L 2315.935078 321.086572 
Q 2315.935078 318.886572 2313.735078 318.886572 
L 2253.944922 318.886572 
Q 2251.744922 318.886572 2251.744922 321.086572 
L 2251.744922 332.614228 
Q 2251.744922 334.814228 2253.944922 334.814228 
z
" style="fill: #fdf2f2; stroke: #c0392b; stroke-linejoin: miter"/>
    </g>
    <!-- Q = c m Δt -->
    <g style="fill: #c0392b" transform="translate(2253.944922 329.879697) scale(0.11 -0.11)">
     <defs>
      <path id="MicrosoftYaHei-Bold-63" d="M 3050 128 
Q 2688 -84 2019 -84 
Q 1228 -84 740 397 
Q 253 878 253 1644 
Q 253 2525 778 3033 
Q 1303 3541 2178 3541 
Q 2769 3541 3053 3378 
L 3053 2513 
Q 2706 2766 2297 2766 
Q 1834 2766 1554 2484 
Q 1275 2203 1275 1713 
Q 1275 1238 1540 964 
Q 1806 691 2263 691 
Q 2666 691 3050 947 
L 3050 128 
z
" transform="scale(0.015625)"/>
      <path id="MicrosoftYaHei-Bold-394" d="M 128 0 
L 128 403 
L 1781 4841 
L 2991 4841 
L 4613 403 
L 4613 0 
L 128 0 
z
M 2484 3500 
Q 2388 3788 2369 3981 
L 2341 3981 
Q 2322 3775 2047 2956 
L 1334 844 
L 3381 844 
L 2484 3500 
z
" transform="scale(0.015625)"/>
     </defs>
     <use xlink:href="#MicrosoftYaHei-Bold-51"/>
     <use xlink:href="#MicrosoftYaHei-Bold-20" transform="translate(81.835938 0)"/>
     <use xlink:href="#MicrosoftYaHei-Bold-3d" transform="translate(111.621094 0)"/>
     <use xlink:href="#MicrosoftYaHei-Bold-20" transform="translate(187.744141 0)"/>
     <use xlink:href="#MicrosoftYaHei-Bold-63" transform="translate(217.529297 0)"/>
     <use xlink:href="#MicrosoftYaHei-Bold-20" transform="translate(269.189453 0)"/>
     <use xlink:href="#MicrosoftYaHei-Bold-6d" transform="translate(298.974609 0)"/>
     <use xlink:href="#MicrosoftYaHei-Bold-20" transform="translate(397.167969 0)"/>
     <use xlink:href="#MicrosoftYaHei-Bold-394" transform="translate(426.953125 0)"/>
     <use xlink:href="#MicrosoftYaHei-Bold-74" transform="translate(502.148438 0)"/>
    </g>
   </g>
   <g id="text_26">
    <!-- 热值 -->
    <g style="fill: #2c3e50" transform="translate(2273.84 372.015906) scale(0.1 -0.1)">
     <defs>
      <path id="MicrosoftYaHei-503c" d="M 1619 -216 
L 2250 -216 
L 2250 3653 
L 3725 3653 
L 3725 4222 
L 1913 4222 
L 1913 4647 
L 3725 4647 
L 3725 5309 
L 4200 5309 
L 4200 4647 
L 6169 4647 
L 6169 4222 
L 4200 4222 
L 4200 3653 
L 5713 3653 
L 5713 -216 
L 6306 -216 
L 6306 -641 
L 1619 -641 
L 1619 -216 
z
M 69 2247 
Q 906 3497 1369 5278 
L 1831 5141 
Q 1581 4334 1288 3628 
L 1288 -816 
L 831 -816 
L 831 2666 
Q 563 2166 263 1734 
Q 175 1997 69 2247 
z
M 2713 -216 
L 5250 -216 
L 5250 353 
L 2713 353 
L 2713 -216 
z
M 5250 3241 
L 2713 3241 
L 2713 2678 
L 5250 2678 
L 5250 3241 
z
M 2713 1716 
L 5250 1716 
L 5250 2278 
L 2713 2278 
L 2713 1716 
z
M 2713 753 
L 5250 753 
L 5250 1316 
L 2713 1316 
L 2713 753 
z
" transform="scale(0.015625)"/>
     </defs>
     <use xlink:href="#MicrosoftYaHei-70ed"/>
     <use xlink:href="#MicrosoftYaHei-503c" transform="translate(100 0)"/>
    </g>
   </g>
   <g id="text_27">
    <g id="patch_13">
     <path d="M 2261.182578 447.080228 
L 2306.497422 447.080228 
Q 2308.697422 447.080228 2308.697422 444.880228 
L 2308.697422 433.352572 
Q 2308.697422 431.152572 2306.497422 431.152572 
L 2261.182578 431.152572 
Q 2258.982578 431.152572 2258.982578 433.352572 
L 2258.982578 444.880228 
Q 2258.982578 447.080228 2261.182578 447.080228 
z
" style="fill: #fdf2f2; stroke: #c0392b; stroke-linejoin: miter"/>
    </g>
    <!-- Q = m q -->
    <g style="fill: #c0392b" transform="translate(2261.182578 442.145697) scale(0.11 -0.11)">
     <defs>
      <path id="MicrosoftYaHei-Bold-71" d="M 3794 -1591 
L 2788 -1591 
L 2788 488 
L 2772 488 
Q 2409 -84 1697 -84 
Q 1044 -84 648 370 
Q 253 825 253 1644 
Q 253 2509 689 3025 
Q 1125 3541 1825 3541 
Q 2466 3541 2772 3044 
L 2788 3044 
L 2788 3456 
L 3794 3456 
L 3794 -1591 
z
M 2803 1944 
Q 2803 2288 2597 2527 
Q 2391 2766 2072 2766 
Q 1709 2766 1492 2478 
Q 1275 2191 1275 1672 
Q 1275 1206 1484 948 
Q 1694 691 2022 691 
Q 2375 691 2589 955 
Q 2803 1219 2803 1641 
L 2803 1944 
z
" transform="scale(0.015625)"/>
     </defs>
     <use xlink:href="#MicrosoftYaHei-Bold-51"/>
     <use xlink:href="#MicrosoftYaHei-Bold-20" transform="translate(81.835938 0)"/>
     <use xlink:href="#MicrosoftYaHei-Bold-3d" transform="translate(111.621094 0)"/>
     <use xlink:href="#MicrosoftYaHei-Bold-20" transform="translate(187.744141 0)"/>
     <use xlink:href="#MicrosoftYaHei-Bold-6d" transform="translate(217.529297 0)"/>
     <use xlink:href="#MicrosoftYaHei-Bold-20" transform="translate(315.722656 0)"/>
     <use xlink:href="#MicrosoftYaHei-Bold-71" transform="translate(345.507812 0)"/>
    </g>
   </g>
   <g id="text_28">
    <!-- 光学 -->
    <g style="fill: #c0392b" transform="translate(3163.64 119.782) scale(0.13 -0.13)">
     <defs>
      <path id="MicrosoftYaHei-Bold-5149" d="M 5381 1547 
Q 5919 1366 6294 1259 
Q 6131 -197 5873 -469 
Q 5616 -741 5056 -741 
L 4450 -741 
Q 3444 -741 3444 284 
L 3444 2047 
L 2703 2047 
Q 2700 -172 763 -853 
Q 406 -403 81 -109 
Q 1763 528 1722 2047 
L 188 2047 
L 188 2916 
L 2700 2916 
L 2700 5322 
L 3650 5322 
L 3650 2916 
L 6213 2916 
L 6213 2047 
L 4369 2047 
L 4369 478 
Q 4369 78 4706 78 
L 4856 78 
Q 5113 78 5203 297 
Q 5294 516 5381 1547 
z
M 5163 4978 
L 5956 4403 
Q 5150 3466 4688 3034 
L 4000 3622 
Q 4525 4128 5163 4978 
z
M 1156 4978 
Q 1906 4222 2369 3678 
L 1613 3103 
Q 988 3891 463 4447 
L 1156 4978 
z
" transform="scale(0.015625)"/>
     </defs>
     <use xlink:href="#MicrosoftYaHei-Bold-5149"/>
     <use xlink:href="#MicrosoftYaHei-Bold-5b66" transform="translate(100 0)"/>
    </g>
   </g>
   <g id="text_29">
    <!-- 像距公式 -->
    <g style="fill: #2c3e50" transform="translate(3156.64 259.749906) scale(0.1 -0.1)">
     <defs>
      <path id="MicrosoftYaHei-50cf" d="M 5638 2322 
L 5963 1978 
Q 5575 1716 5147 1463 
Q 5481 547 6313 -9 
Q 6075 -197 5900 -391 
Q 5163 266 4794 1263 
Q 4647 1181 4497 1100 
Q 4606 709 4600 291 
Q 4588 -778 3625 -759 
Q 3388 -759 3013 -747 
Q 2969 -503 2906 -284 
Q 3400 -334 3594 -334 
Q 4150 -347 4169 316 
Q 4169 544 4131 766 
Q 3331 25 1913 -616 
Q 1794 -434 1625 -228 
Q 3072 294 4019 1197 
Q 3956 1369 3869 1534 
Q 3031 791 1875 303 
Q 1750 491 1588 678 
Q 2791 1091 3663 1859 
Q 3572 1984 3466 2106 
Q 2897 1666 1869 1216 
Q 1731 1409 1581 1578 
Q 2794 2053 3319 2516 
L 2606 2516 
L 2606 2372 
L 2175 2372 
L 2175 3578 
Q 2003 3428 1825 3284 
Q 1763 3409 1563 3684 
Q 2513 4403 3169 5316 
L 3700 5316 
Q 3534 5066 3350 4828 
L 5106 4828 
L 5106 4459 
L 4544 3878 
L 5894 3878 
L 5894 2516 
L 3891 2516 
Q 3834 2447 3769 2378 
Q 4159 1947 4366 1472 
Q 5122 1916 5638 2322 
z
M 81 2291 
Q 900 3534 1425 5322 
L 1894 5203 
Q 1600 4328 1275 3594 
L 1275 -828 
L 838 -828 
L 838 2700 
Q 566 2197 275 1778 
Q 188 2041 81 2291 
z
M 4506 4441 
L 3031 4441 
Q 2778 4150 2497 3878 
L 3994 3878 
L 4506 4441 
z
M 5463 2903 
L 5463 3491 
L 4306 3491 
Q 4247 3175 4122 2903 
L 5463 2903 
z
M 2606 2903 
L 3644 2903 
Q 3800 3169 3853 3491 
L 2606 3491 
L 2606 2903 
z
" transform="scale(0.015625)"/>
      <path id="MicrosoftYaHei-8ddd" d="M 2988 4953 
L 6225 4953 
L 6225 4503 
L 3463 4503 
L 3463 3328 
L 5913 3328 
L 5913 991 
L 5450 991 
L 5450 1228 
L 3463 1228 
L 3463 -128 
L 6300 -128 
L 6300 -578 
L 2988 -578 
L 2988 4953 
z
M 69 -34 
L 425 22 
L 425 2478 
L 831 2478 
L 831 91 
Q 1134 144 1438 203 
L 1438 3122 
L 938 3122 
L 938 2916 
L 525 2916 
L 525 4984 
L 2444 4984 
L 2444 3122 
L 1856 3122 
L 1856 2022 
L 2588 2022 
L 2588 1628 
L 1856 1628 
L 1856 284 
Q 2241 363 2631 447 
Q 2638 178 2656 -9 
Q 1219 -272 219 -516 
L 69 -34 
z
M 5450 2891 
L 3463 2891 
L 3463 1666 
L 5450 1666 
L 5450 2891 
z
M 2025 3484 
L 2025 4622 
L 938 4622 
L 938 3484 
L 2025 3484 
z
" transform="scale(0.015625)"/>
      <path id="MicrosoftYaHei-516c" d="M 4144 1591 
Q 5044 422 5663 -534 
L 5188 -847 
Q 5013 -559 4816 -250 
Q 2753 -350 1463 -453 
Q 1225 -478 888 -559 
L 613 -28 
Q 894 84 1131 316 
Q 1863 1159 2719 2809 
L 3256 2566 
Q 2481 1234 1600 78 
Q 2891 119 4522 194 
Q 4166 734 3738 1334 
L 4144 1591 
z
M 3606 4953 
L 4069 5134 
Q 4675 3503 6325 2547 
Q 6156 2372 5938 2059 
Q 4213 3247 3606 4953 
z
M 75 2366 
Q 1469 3503 2156 5047 
L 2650 4841 
Q 1806 3084 475 1966 
Q 313 2172 75 2366 
z
" transform="scale(0.015625)"/>
      <path id="MicrosoftYaHei-5f0f" d="M 94 4122 
L 3569 4122 
Q 3544 4700 3531 5347 
L 4063 5347 
Q 4059 4728 4081 4122 
L 6231 4122 
L 6231 3653 
L 4103 3653 
Q 4225 503 5156 -172 
Q 5494 -447 5631 -22 
Q 5725 303 5800 941 
Q 6094 834 6306 778 
Q 6188 47 6050 -403 
Q 5900 -834 5475 -834 
Q 5044 -834 4619 -397 
Q 3725 553 3597 3653 
L 94 3653 
L 94 4122 
z
M 119 159 
Q 825 244 1569 344 
L 1569 2097 
L 350 2097 
L 350 2566 
L 3288 2566 
L 3288 2097 
L 2081 2097 
L 2081 416 
Q 2809 519 3575 634 
Q 3563 391 3563 128 
Q 1681 -141 244 -366 
L 119 159 
z
M 4544 4978 
L 4844 5297 
Q 5294 4972 5756 4559 
L 5400 4191 
Q 5000 4597 4544 4978 
z
" transform="scale(0.015625)"/>
     </defs>
     <use xlink:href="#MicrosoftYaHei-50cf"/>
     <use xlink:href="#MicrosoftYaHei-8ddd" transform="translate(100 0)"/>
     <use xlink:href="#MicrosoftYaHei-516c" transform="translate(200 0)"/>
     <use xlink:href="#MicrosoftYaHei-5f0f" transform="translate(300 0)"/>
    </g>
   </g>
   <g id="text_30">
    <g id="patch_14">
     <path d="M 3134.772109 334.814228 
L 3218.507891 334.814228 
Q 3220.707891 334.814228 3220.707891 332.614228 
L 3220.707891 321.086572 
Q 3220.707891 318.886572 3218.507891 318.886572 
L 3134.772109 318.886572 
Q 3132.572109 318.886572 3132.572109 321.086572 
L 3132.572109 332.614228 
Q 3132.572109 334.814228 3134.772109 334.814228 
z
" style="fill: #fdf2f2; stroke: #c0392b; stroke-linejoin: miter"/>
    </g>
    <!-- 1/f = 1/u + 1/v -->
    <g style="fill: #c0392b" transform="translate(3134.772109 329.879697) scale(0.11 -0.11)">
     <defs>
      <path id="MicrosoftYaHei-Bold-66" d="M 2653 4338 
Q 2447 4419 2263 4419 
Q 1744 4419 1744 3844 
L 1744 3456 
L 2531 3456 
L 2531 2703 
L 1744 2703 
L 1744 0 
L 734 0 
L 734 2703 
L 156 2703 
L 156 3456 
L 734 3456 
L 734 3900 
Q 734 4491 1118 4844 
Q 1503 5197 2128 5197 
Q 2447 5197 2653 5131 
L 2653 4338 
z
" transform="scale(0.015625)"/>
      <path id="MicrosoftYaHei-Bold-75" d="M 3691 0 
L 2688 0 
L 2688 528 
L 2672 528 
Q 2284 -84 1613 -84 
Q 406 -84 406 1372 
L 406 3456 
L 1416 3456 
L 1416 1466 
Q 1416 691 2022 691 
Q 2325 691 2506 903 
Q 2688 1116 2688 1478 
L 2688 3456 
L 3691 3456 
L 3691 0 
z
" transform="scale(0.015625)"/>
      <path id="MicrosoftYaHei-Bold-76" d="M 3688 3456 
L 2391 0 
L 1250 0 
L 16 3456 
L 1097 3456 
L 1731 1281 
Q 1834 925 1847 684 
L 1863 684 
Q 1888 931 1984 1263 
L 2631 3456 
L 3688 3456 
z
" transform="scale(0.015625)"/>
     </defs>
     <use xlink:href="#MicrosoftYaHei-Bold-31"/>
     <use xlink:href="#MicrosoftYaHei-Bold-2f" transform="translate(61.669922 0)"/>
     <use xlink:href="#MicrosoftYaHei-Bold-66" transform="translate(108.935547 0)"/>
     <use xlink:href="#MicrosoftYaHei-Bold-20" transform="translate(149.462891 0)"/>
     <use xlink:href="#MicrosoftYaHei-Bold-3d" transform="translate(179.248047 0)"/>
     <use xlink:href="#MicrosoftYaHei-Bold-20" transform="translate(255.371094 0)"/>
     <use xlink:href="#MicrosoftYaHei-Bold-31" transform="translate(285.15625 0)"/>
     <use xlink:href="#MicrosoftYaHei-Bold-2f" transform="translate(346.826172 0)"/>
     <use xlink:href="#MicrosoftYaHei-Bold-75" transform="translate(394.091797 0)"/>
     <use xlink:href="#MicrosoftYaHei-Bold-20" transform="translate(458.886719 0)"/>
     <use xlink:href="#MicrosoftYaHei-Bold-2b" transform="translate(488.671875 0)"/>
     <use xlink:href="#MicrosoftYaHei-Bold-20" transform="translate(564.794922 0)"/>
     <use xlink:href="#MicrosoftYaHei-Bold-31" transform="translate(594.580078 0)"/>
     <use xlink:href="#MicrosoftYaHei-Bold-2f" transform="translate(656.25 0)"/>
     <use xlink:href="#MicrosoftYaHei-Bold-76" transform="translate(703.515625 0)"/>
    </g>
   </g>
   <g id="text_31">
    <!-- 折射率 -->
    <g style="fill: #2c3e50" transform="translate(3161.64 372.015906) scale(0.1 -0.1)">
     <defs>
      <path id="MicrosoftYaHei-6298" d="M 2631 4816 
Q 4256 4822 5975 5078 
L 6144 4591 
Q 4281 4397 3119 4372 
L 3119 2916 
L 6300 2916 
L 6300 2453 
L 5163 2453 
L 5163 -822 
L 4663 -822 
L 4663 2453 
L 3119 2453 
Q 3103 203 2250 -859 
Q 2081 -672 1856 -472 
Q 2631 441 2631 2447 
L 2631 4816 
z
M 75 1953 
Q 513 2072 1013 2216 
L 1013 3591 
L 181 3591 
L 181 4022 
L 1013 4022 
L 1013 5259 
L 1500 5259 
L 1500 4022 
L 2275 4022 
L 2275 3591 
L 1500 3591 
L 1500 2363 
Q 1834 2463 2194 2578 
Q 2200 2259 2206 2078 
Q 1922 1997 1500 1866 
L 1500 -22 
Q 1500 -703 938 -722 
Q 650 -734 263 -728 
Q 225 -466 181 -203 
Q 556 -241 756 -241 
Q 1013 -241 1013 66 
L 1013 1709 
Q 622 1584 144 1428 
L 75 1953 
z
" transform="scale(0.015625)"/>
      <path id="MicrosoftYaHei-5c04" d="M 50 -147 
Q 1116 394 1881 1278 
L 125 1278 
L 125 1684 
L 494 1684 
L 494 4584 
L 1231 4584 
Q 1400 5009 1500 5359 
L 2006 5228 
Q 1869 4894 1728 4584 
L 2856 4584 
L 2856 -59 
Q 2856 -772 2238 -772 
Q 1969 -772 1581 -759 
Q 1544 -503 1488 -278 
Q 1850 -309 2106 -309 
Q 2394 -309 2394 -3 
L 2394 1278 
Q 1572 178 356 -547 
Q 194 -303 50 -147 
z
M 3069 3934 
L 5088 3934 
L 5088 5278 
L 5563 5278 
L 5563 3934 
L 6325 3934 
L 6325 3466 
L 5563 3466 
L 5563 216 
Q 5563 -722 4663 -722 
Q 4381 -722 3744 -709 
Q 3713 -478 3644 -178 
Q 4269 -234 4594 -234 
Q 5088 -234 5088 291 
L 5088 3466 
L 3069 3466 
L 3069 3934 
z
M 2394 4178 
L 956 4178 
L 956 3609 
L 2394 3609 
L 2394 4178 
z
M 956 1684 
L 2394 1684 
L 2394 2253 
L 956 2253 
L 956 1684 
z
M 956 2647 
L 2394 2647 
L 2394 3216 
L 956 3216 
L 956 2647 
z
M 3250 2684 
L 3638 2891 
Q 4156 2072 4456 1472 
L 4013 1228 
Q 3694 1916 3250 2684 
z
" transform="scale(0.015625)"/>
     </defs>
     <use xlink:href="#MicrosoftYaHei-6298"/>
     <use xlink:href="#MicrosoftYaHei-5c04" transform="translate(100 0)"/>
     <use xlink:href="#MicrosoftYaHei-7387" transform="translate(200 0)"/>
    </g>
   </g>
   <g id="text_32">
    <g id="patch_15">
     <path d="M 3136.690234 447.080228 
L 3216.589766 447.080228 
Q 3218.789766 447.080228 3218.789766 444.880228 
L 3218.789766 433.352572 
Q 3218.789766 431.152572 3216.589766 431.152572 
L 3136.690234 431.152572 
Q 3134.490234 431.152572 3134.490234 433.352572 
L 3134.490234 444.880228 
Q 3134.490234 447.080228 3136.690234 447.080228 
z
" style="fill: #fdf2f2; stroke: #c0392b; stroke-linejoin: miter"/>
    </g>
    <!-- n = sin i / sin r -->
    <g style="fill: #c0392b" transform="translate(3136.690234 442.145697) scale(0.11 -0.11)">
     <defs>
      <path id="MicrosoftYaHei-Bold-6e" d="M 3744 0 
L 2741 0 
L 2741 1928 
Q 2741 2766 2138 2766 
Q 1850 2766 1659 2542 
Q 1469 2319 1469 1972 
L 1469 0 
L 459 0 
L 459 3456 
L 1469 3456 
L 1469 2906 
L 1481 2906 
Q 1859 3541 2594 3541 
Q 3744 3541 3744 2116 
L 3744 0 
z
" transform="scale(0.015625)"/>
      <path id="MicrosoftYaHei-Bold-73" d="M 369 928 
Q 888 613 1384 613 
Q 2009 613 2009 947 
Q 2009 1184 1494 1344 
Q 850 1544 609 1789 
Q 369 2034 369 2453 
Q 369 2963 781 3252 
Q 1194 3541 1863 3541 
Q 2338 3541 2778 3400 
L 2778 2606 
Q 2375 2844 1891 2844 
Q 1650 2844 1503 2758 
Q 1356 2672 1356 2531 
Q 1356 2294 1794 2147 
Q 2263 1991 2498 1862 
Q 2734 1734 2857 1525 
Q 2981 1316 2981 1041 
Q 2981 506 2553 211 
Q 2125 -84 1409 -84 
Q 847 -84 369 94 
L 369 928 
z
" transform="scale(0.015625)"/>
      <path id="MicrosoftYaHei-Bold-69" d="M 369 4572 
Q 369 4803 533 4948 
Q 697 5094 953 5094 
Q 1216 5094 1378 4945 
Q 1541 4797 1541 4572 
Q 1541 4344 1375 4192 
Q 1209 4041 953 4041 
Q 700 4041 534 4194 
Q 369 4347 369 4572 
z
M 444 0 
L 444 3456 
L 1450 3456 
L 1450 0 
L 444 0 
z
" transform="scale(0.015625)"/>
      <path id="MicrosoftYaHei-Bold-72" d="M 2663 2541 
Q 2478 2647 2216 2647 
Q 1872 2647 1670 2384 
Q 1469 2122 1469 1663 
L 1469 0 
L 459 0 
L 459 3456 
L 1469 3456 
L 1469 2806 
L 1481 2806 
Q 1731 3516 2391 3516 
Q 2569 3516 2663 3475 
L 2663 2541 
z
" transform="scale(0.015625)"/>
     </defs>
     <use xlink:href="#MicrosoftYaHei-Bold-6e"/>
     <use xlink:href="#MicrosoftYaHei-Bold-20" transform="translate(64.794922 0)"/>
     <use xlink:href="#MicrosoftYaHei-Bold-3d" transform="translate(94.580078 0)"/>
     <use xlink:href="#MicrosoftYaHei-Bold-20" transform="translate(170.703125 0)"/>
     <use xlink:href="#MicrosoftYaHei-Bold-73" transform="translate(200.488281 0)"/>
     <use xlink:href="#MicrosoftYaHei-Bold-69" transform="translate(249.853516 0)"/>
     <use xlink:href="#MicrosoftYaHei-Bold-6e" transform="translate(279.443359 0)"/>
     <use xlink:href="#MicrosoftYaHei-Bold-20" transform="translate(344.238281 0)"/>
     <use xlink:href="#MicrosoftYaHei-Bold-69" transform="translate(374.023438 0)"/>
     <use xlink:href="#MicrosoftYaHei-Bold-20" transform="translate(403.613281 0)"/>
     <use xlink:href="#MicrosoftYaHei-Bold-2f" transform="translate(433.398438 0)"/>
     <use xlink:href="#MicrosoftYaHei-Bold-20" transform="translate(480.664062 0)"/>
     <use xlink:href="#MicrosoftYaHei-Bold-73" transform="translate(510.449219 0)"/>
     <use xlink:href="#MicrosoftYaHei-Bold-69" transform="translate(559.814453 0)"/>
     <use xlink:href="#MicrosoftYaHei-Bold-6e" transform="translate(589.404297 0)"/>
     <use xlink:href="#MicrosoftYaHei-Bold-20" transform="translate(654.199219 0)"/>
     <use xlink:href="#MicrosoftYaHei-Bold-72" transform="translate(683.984375 0)"/>
    </g>
   </g>
   <g id="text_33">
    <!-- 公式定位速查表 -->
    <g style="fill: #2c3e50" transform="translate(1826.08 19.99) scale(0.16 -0.16)">
     <defs>
      <path id="MicrosoftYaHei-Bold-516c" d="M 4500 5222 
Q 5206 3791 6313 2859 
Q 5856 2403 5600 2116 
Q 4494 3141 3681 4834 
L 4500 5222 
z
M 1869 5159 
L 2725 4797 
Q 2038 3241 750 2053 
Q 538 2328 125 2778 
Q 1263 3784 1869 5159 
z
M 4269 2059 
Q 5250 872 6031 -297 
L 5213 -866 
Q 5059 -606 4884 -331 
L 1628 -500 
Q 1313 -534 981 -616 
L 594 228 
Q 1016 472 1717 1503 
Q 2419 2534 2781 3241 
L 3706 2828 
Q 2644 1184 1969 428 
Q 3194 456 4322 506 
Q 3959 1025 3525 1591 
L 4269 2059 
z
" transform="scale(0.015625)"/>
      <path id="MicrosoftYaHei-Bold-5f0f" d="M 100 4222 
L 3350 4222 
L 3281 5322 
L 4219 5322 
Q 4234 4769 4266 4222 
L 5125 4222 
Q 4856 4572 4594 4853 
L 5150 5272 
Q 5519 4891 5863 4478 
L 5531 4222 
L 6169 4222 
L 6169 3397 
L 4322 3397 
Q 4463 1363 4698 727 
Q 4934 91 5144 91 
Q 5200 91 5247 156 
Q 5294 222 5358 530 
Q 5422 838 5481 1347 
Q 5913 1072 6300 909 
Q 6131 -263 5887 -561 
Q 5644 -859 5150 -859 
Q 4269 -859 3916 128 
Q 3563 1116 3409 3397 
L 100 3397 
L 100 4222 
z
M 375 2716 
L 3200 2716 
L 3200 1897 
L 2263 1897 
L 2263 681 
L 3500 866 
Q 3481 253 3488 -34 
L 200 -516 
L 94 416 
L 1369 566 
L 1369 1897 
L 375 1897 
L 375 2716 
z
" transform="scale(0.015625)"/>
      <path id="MicrosoftYaHei-Bold-5b9a" d="M 2581 5128 
L 3538 5353 
Q 3666 5028 3806 4634 
L 6063 4634 
L 6063 3403 
L 5200 3403 
L 5200 3872 
L 1225 3872 
L 1225 3403 
L 363 3403 
L 363 4634 
L 2772 4634 
L 2581 5128 
z
M 5831 1741 
L 5831 972 
L 3744 972 
L 3744 125 
Q 4766 103 6313 147 
Q 6138 -372 6044 -697 
Q 3819 -697 2809 -630 
Q 1800 -563 1388 219 
Q 1069 -425 613 -859 
Q 331 -441 94 -134 
Q 875 659 1094 2122 
L 1931 2022 
Q 1850 1541 1728 1122 
Q 2047 300 2850 175 
L 2850 2416 
L 263 2416 
L 263 3184 
L 6156 3184 
L 6156 2416 
L 3744 2416 
L 3744 1741 
L 5831 1741 
z
" transform="scale(0.015625)"/>
      <path id="MicrosoftYaHei-Bold-4f4d" d="M 2075 4297 
L 3725 4297 
Q 3584 4663 3381 5103 
L 4281 5347 
Q 4513 4878 4706 4428 
L 4213 4297 
L 6106 4297 
L 6106 3491 
L 2075 3491 
L 2075 4297 
z
M 1363 5297 
L 2163 5053 
Q 1919 4388 1669 3791 
L 1669 -866 
L 831 -866 
L 831 2050 
Q 597 1628 356 1259 
Q 263 1709 81 2328 
Q 719 3384 1363 5297 
z
M 1944 234 
L 4047 234 
Q 4566 1672 4925 3266 
L 5906 2991 
Q 5756 2584 4938 234 
L 6319 234 
L 6319 -572 
L 1944 -572 
L 1944 234 
z
M 3075 3228 
Q 3313 2597 3913 834 
L 3056 559 
Q 2619 2066 2288 2972 
L 3075 3228 
z
" transform="scale(0.015625)"/>
      <path id="MicrosoftYaHei-Bold-901f" d="M 4650 1772 
Q 5488 1366 6250 941 
L 5850 284 
Q 5063 766 4388 1128 
L 4388 153 
L 3594 153 
L 3594 1191 
Q 3031 603 2319 247 
Q 2119 578 1806 959 
Q 2669 1216 3356 1828 
L 2113 1828 
L 2113 3628 
L 3594 3628 
L 3594 4016 
L 1900 4016 
L 1900 4766 
L 3594 4766 
L 3594 5303 
L 4388 5303 
L 4388 4766 
L 6100 4766 
L 6100 4016 
L 4388 4016 
L 4388 3628 
L 5875 3628 
L 5875 1828 
L 4388 1828 
L 4388 1347 
L 4650 1772 
z
M 2825 22 
Q 4075 -16 6306 34 
Q 6125 -428 6006 -753 
Q 4181 -753 2644 -722 
Q 1694 -722 1138 -116 
Q 888 -403 456 -891 
L 106 41 
Q 356 266 694 553 
L 694 2297 
L 138 2297 
L 138 3122 
L 1475 3122 
L 1475 547 
Q 1844 22 2825 22 
z
M 969 5309 
Q 1406 4647 1725 4084 
Q 1250 3841 956 3678 
Q 650 4316 275 4941 
L 969 5309 
z
M 5175 2978 
L 4388 2978 
L 4388 2478 
L 5175 2478 
L 5175 2978 
z
M 2813 2478 
L 3594 2478 
L 3594 2978 
L 2813 2978 
L 2813 2478 
z
" transform="scale(0.015625)"/>
      <path id="MicrosoftYaHei-Bold-67e5" d="M 875 441 
L 875 2719 
Q 634 2609 375 2509 
Q 256 2891 88 3241 
Q 1316 3584 2109 4172 
L 325 4172 
L 325 4803 
L 2794 4803 
L 2794 5341 
L 3600 5341 
L 3600 4803 
L 6075 4803 
L 6075 4172 
L 4200 4172 
Q 4972 3603 6294 3359 
Q 6156 3028 6019 2591 
Q 5753 2672 5513 2763 
L 5513 441 
L 875 441 
z
M 3600 3981 
L 3600 3203 
L 2794 3203 
L 2794 3953 
Q 2316 3481 1584 3072 
L 4809 3072 
Q 4050 3463 3600 3981 
z
M 4688 2441 
L 1700 2441 
L 1700 2047 
L 4688 2047 
L 4688 2441 
z
M 4688 1072 
L 4688 1466 
L 1700 1466 
L 1700 1072 
L 4688 1072 
z
M 6181 -622 
L 200 -622 
L 200 103 
L 6181 103 
L 6181 -622 
z
" transform="scale(0.015625)"/>
      <path id="MicrosoftYaHei-Bold-8868" d="M 5925 1259 
L 4825 684 
Q 5459 291 6313 109 
Q 5994 -291 5744 -666 
Q 4638 -309 3894 344 
Q 3878 -91 3888 -328 
Q 2419 -678 1856 -884 
L 1500 -172 
Q 1675 3 1675 403 
L 1675 522 
Q 1078 94 363 -278 
Q 219 203 69 591 
Q 1206 1109 2044 1891 
L 150 1891 
L 150 2591 
L 2750 2591 
L 2750 3003 
L 625 3003 
L 625 3703 
L 2750 3703 
L 2750 4116 
L 363 4116 
L 363 4816 
L 2750 4816 
L 2750 5353 
L 3631 5353 
L 3631 4816 
L 6044 4816 
L 6044 4116 
L 3631 4116 
L 3631 3703 
L 5750 3703 
L 5750 3003 
L 3631 3003 
L 3631 2591 
L 6244 2591 
L 6244 1891 
L 5453 1891 
L 5925 1259 
z
M 4209 1169 
Q 4600 1391 5284 1891 
L 3647 1891 
Q 3888 1488 4209 1169 
z
M 2916 1619 
Q 2722 1406 2506 1203 
L 2506 166 
L 3713 513 
Q 3225 994 2916 1619 
z
" transform="scale(0.015625)"/>
     </defs>
     <use xlink:href="#MicrosoftYaHei-Bold-516c"/>
     <use xlink:href="#MicrosoftYaHei-Bold-5f0f" transform="translate(100 0)"/>
     <use xlink:href="#MicrosoftYaHei-Bold-5b9a" transform="translate(200 0)"/>
     <use xlink:href="#MicrosoftYaHei-Bold-4f4d" transform="translate(300 0)"/>
     <use xlink:href="#MicrosoftYaHei-Bold-901f" transform="translate(400 0)"/>
     <use xlink:href="#MicrosoftYaHei-Bold-67e5" transform="translate(500 0)"/>
     <use xlink:href="#MicrosoftYaHei-Bold-8868" transform="translate(600 0)"/>
    </g>
   </g>
   <g id="text_34">
    <!-- 根据所求量直接查找对应公式 -->
    <g style="fill: #7f8c8d" transform="translate(1804.08 94.834) scale(0.12 -0.12)">
     <defs>
      <path id="MicrosoftYaHei-6839" d="M 2706 5028 
L 5788 5028 
L 5788 1872 
L 5331 1872 
L 5331 2009 
L 4163 2009 
Q 4356 1447 4663 997 
Q 5300 1372 5856 1778 
L 6163 1384 
Q 5550 1003 4919 672 
Q 5475 41 6319 -316 
Q 6113 -516 5925 -753 
Q 4275 191 3706 2009 
L 3169 2009 
L 3169 -47 
Q 3594 128 4256 459 
Q 4263 159 4294 -34 
Q 3700 -297 3194 -597 
Q 2969 -741 2831 -866 
L 2494 -434 
Q 2706 -253 2706 128 
L 2706 5028 
z
M 88 1378 
Q 669 2328 1006 3597 
L 144 3597 
L 144 4016 
L 1044 4016 
L 1044 5266 
L 1500 5266 
L 1500 4016 
L 2375 4016 
L 2375 3597 
L 1500 3597 
L 1500 2791 
L 1688 2953 
Q 2075 2566 2519 2072 
L 2181 1759 
Q 1794 2241 1500 2559 
L 1500 -841 
L 1044 -841 
L 1044 2566 
Q 700 1484 288 828 
Q 200 1097 88 1378 
z
M 5331 4597 
L 3169 4597 
L 3169 3728 
L 5331 3728 
L 5331 4597 
z
M 5331 2441 
L 5331 3309 
L 3169 3309 
L 3169 2441 
L 5331 2441 
z
" transform="scale(0.015625)"/>
      <path id="MicrosoftYaHei-636e" d="M 2900 1334 
L 4188 1334 
L 4188 2128 
L 2731 2128 
Q 2663 206 1844 -841 
Q 1694 -647 1506 -447 
Q 2288 516 2288 2509 
L 2288 4947 
L 5975 4947 
L 5975 3134 
L 5525 3134 
L 5525 3328 
L 2738 3328 
L 2738 2553 
L 4188 2553 
L 4188 3209 
L 4638 3209 
L 4638 2553 
L 6288 2553 
L 6288 2128 
L 4638 2128 
L 4638 1334 
L 5938 1334 
L 5938 -778 
L 5488 -778 
L 5488 -416 
L 3350 -416 
L 3350 -778 
L 2900 -778 
L 2900 1334 
z
M 100 1966 
Q 544 2088 963 2213 
L 963 3641 
L 175 3641 
L 175 4091 
L 963 4091 
L 963 5284 
L 1425 5284 
L 1425 4091 
L 2106 4091 
L 2106 3641 
L 1425 3641 
L 1425 2356 
Q 1722 2450 2006 2547 
Q 2013 2266 2044 2059 
Q 1722 1956 1425 1856 
L 1425 -34 
Q 1425 -741 806 -753 
Q 613 -759 231 -747 
Q 206 -497 156 -228 
Q 500 -266 681 -266 
Q 963 -266 963 53 
L 963 1703 
Q 534 1559 163 1428 
L 100 1966 
z
M 5525 4534 
L 2738 4534 
L 2738 3741 
L 5525 3741 
L 5525 4534 
z
M 5488 922 
L 3350 922 
L 3350 -9 
L 5488 -9 
L 5488 922 
z
" transform="scale(0.015625)"/>
      <path id="MicrosoftYaHei-6240" d="M 638 4853 
Q 1675 4872 2806 5109 
L 2969 4641 
Q 2044 4503 1088 4434 
L 1088 3466 
L 2725 3466 
L 2725 1159 
L 2288 1159 
L 2288 1434 
L 1063 1434 
Q 959 3 406 -834 
Q 238 -628 63 -453 
Q 638 334 638 2134 
L 638 4853 
z
M 3325 4816 
Q 4813 4872 6031 5091 
L 6200 4616 
Q 4638 4441 3788 4391 
L 3788 2997 
L 6319 2997 
L 6319 2566 
L 5350 2566 
L 5350 -809 
L 4881 -809 
L 4881 2566 
L 3788 2566 
L 3788 2216 
Q 3788 247 2694 -878 
Q 2513 -666 2338 -466 
Q 3325 547 3325 2228 
L 3325 4816 
z
M 2288 1847 
L 2288 3053 
L 1088 3053 
Q 1088 2122 1084 1847 
L 2288 1847 
z
" transform="scale(0.015625)"/>
      <path id="MicrosoftYaHei-6c42" d="M 225 4178 
L 2969 4178 
L 2969 5309 
L 3494 5309 
L 3494 4178 
L 6225 4178 
L 6225 3728 
L 3494 3728 
L 3494 3341 
Q 3800 2641 4219 2066 
Q 4869 2628 5444 3316 
L 5888 2947 
Q 5119 2184 4525 1684 
Q 5275 809 6319 284 
Q 6088 16 5944 -203 
Q 4331 741 3494 2322 
L 3494 28 
Q 3494 -778 2650 -778 
Q 2200 -778 1819 -766 
Q 1781 -509 1719 -209 
Q 2213 -266 2525 -266 
Q 2969 -266 2969 191 
L 2969 1372 
Q 1494 616 400 -3 
L 131 509 
Q 1438 1116 2969 1953 
L 2969 3728 
L 225 3728 
L 225 4178 
z
M 1144 3353 
Q 1644 2859 2163 2247 
Q 1969 2084 1731 1897 
Q 1294 2466 769 3047 
L 1144 3353 
z
M 4069 4978 
L 4369 5309 
Q 4963 4934 5313 4628 
L 4975 4253 
Q 4606 4578 4069 4978 
z
" transform="scale(0.015625)"/>
      <path id="MicrosoftYaHei-91cf" d="M 113 -278 
L 2981 -278 
L 2981 78 
L 475 78 
L 475 403 
L 2981 403 
L 2981 759 
L 1494 759 
L 1494 597 
L 1069 597 
L 1069 2516 
L 5350 2516 
L 5350 597 
L 4925 597 
L 4925 759 
L 3419 759 
L 3419 403 
L 5931 403 
L 5931 78 
L 3419 78 
L 3419 -278 
L 6288 -278 
L 6288 -616 
L 113 -616 
L 113 -278 
z
M 1119 5072 
L 5306 5072 
L 5306 3284 
L 4881 3284 
L 4881 3453 
L 1544 3453 
L 1544 3284 
L 1119 3284 
L 1119 5072 
z
M 163 3153 
L 6263 3153 
L 6263 2816 
L 163 2816 
L 163 3153 
z
M 1544 3778 
L 4881 3778 
L 4881 4116 
L 1544 4116 
L 1544 3778 
z
M 4881 4747 
L 1544 4747 
L 1544 4416 
L 4881 4416 
L 4881 4747 
z
M 3419 1084 
L 4925 1084 
L 4925 1491 
L 3419 1491 
L 3419 1084 
z
M 1494 1084 
L 2981 1084 
L 2981 1491 
L 1494 1491 
L 1494 1084 
z
M 4925 2191 
L 3419 2191 
L 3419 1791 
L 4925 1791 
L 4925 2191 
z
M 1494 1791 
L 2981 1791 
L 2981 2191 
L 1494 2191 
L 1494 1791 
z
" transform="scale(0.015625)"/>
      <path id="MicrosoftYaHei-76f4" d="M 119 -153 
L 969 -153 
L 969 3741 
L 2900 3741 
L 2900 4316 
L 244 4316 
L 244 4753 
L 2900 4753 
L 2900 5328 
L 3400 5328 
L 3400 4753 
L 6175 4753 
L 6175 4316 
L 3400 4316 
L 3400 3741 
L 5400 3741 
L 5400 -153 
L 6294 -153 
L 6294 -591 
L 119 -591 
L 119 -153 
z
M 1450 -153 
L 4919 -153 
L 4919 422 
L 1450 422 
L 1450 -153 
z
M 4919 3328 
L 1450 3328 
L 1450 2759 
L 4919 2759 
L 4919 3328 
z
M 1450 822 
L 4919 822 
L 4919 1391 
L 1450 1391 
L 1450 822 
z
M 1450 1791 
L 4919 1791 
L 4919 2359 
L 1450 2359 
L 1450 1791 
z
" transform="scale(0.015625)"/>
      <path id="MicrosoftYaHei-63a5" d="M 1800 -366 
Q 3019 -188 3784 222 
Q 3200 484 2531 772 
Q 2800 1119 3028 1466 
L 2000 1466 
L 2000 1884 
L 3291 1884 
Q 3491 2222 3656 2559 
L 4119 2366 
Q 3969 2116 3822 1884 
L 6225 1884 
L 6225 1466 
L 5403 1466 
Q 5156 778 4672 306 
Q 5469 -25 6219 -353 
L 5944 -816 
Q 5241 -444 4288 -3 
Q 3450 -572 2038 -841 
Q 1950 -634 1800 -366 
z
M 100 1966 
Q 544 2088 963 2213 
L 963 3641 
L 175 3641 
L 175 4091 
L 963 4091 
L 963 5259 
L 1425 5259 
L 1425 4091 
L 2144 4091 
L 2144 3641 
L 1425 3641 
L 1425 2356 
Q 1722 2450 2006 2547 
Q 2013 2266 2044 2059 
Q 1722 1956 1425 1856 
L 1425 -72 
Q 1425 -747 819 -753 
Q 588 -759 231 -747 
Q 206 -491 156 -228 
Q 531 -266 688 -266 
Q 963 -266 963 66 
L 963 1703 
Q 534 1559 163 1428 
L 100 1966 
z
M 2019 3072 
L 4453 3072 
Q 4850 3622 5156 4103 
L 5625 3847 
Q 5300 3456 4966 3072 
L 6269 3072 
L 6269 2653 
L 2019 2653 
L 2019 3072 
z
M 2263 4591 
L 4028 4591 
Q 3881 4875 3719 5153 
L 4138 5347 
Q 4338 5009 4519 4666 
L 4359 4591 
L 6119 4591 
L 6119 4172 
L 2263 4172 
L 2263 4591 
z
M 3181 909 
Q 3703 703 4203 497 
Q 4694 894 4900 1466 
L 3553 1466 
Q 3363 1175 3181 909 
z
M 2825 3853 
L 3188 4097 
Q 3481 3753 3756 3372 
L 3356 3103 
Q 3119 3491 2825 3853 
z
" transform="scale(0.015625)"/>
      <path id="MicrosoftYaHei-67e5" d="M 306 4659 
L 2975 4659 
L 2975 5328 
L 3419 5328 
L 3419 4659 
L 6125 4659 
L 6125 4241 
L 3809 4241 
Q 4797 3488 6306 3103 
Q 6144 2859 6019 2659 
Q 5681 2775 5369 2909 
L 5369 197 
L 4894 197 
L 4894 478 
L 1525 478 
L 1525 191 
L 1050 191 
L 1050 2878 
Q 731 2731 381 2597 
Q 250 2791 88 2997 
Q 1700 3506 2559 4241 
L 306 4241 
L 306 4659 
z
M 156 -141 
L 6244 -141 
L 6244 -591 
L 156 -591 
L 156 -141 
z
M 2975 3066 
L 2975 4138 
Q 2256 3444 1119 2909 
L 5366 2909 
Q 4213 3400 3419 4125 
L 3419 3066 
L 2975 3066 
z
M 1525 909 
L 4894 909 
L 4894 1484 
L 1525 1484 
L 1525 909 
z
M 4894 2478 
L 1525 2478 
L 1525 1909 
L 4894 1909 
L 4894 2478 
z
" transform="scale(0.015625)"/>
      <path id="MicrosoftYaHei-627e" d="M 2094 209 
Q 3075 656 3841 1209 
Q 3653 1884 3575 3022 
L 2375 2884 
L 2300 3347 
L 3547 3488 
Q 3503 4297 3463 5291 
L 3975 5291 
Q 3984 4325 4022 3544 
L 6131 3784 
L 6188 3328 
L 4050 3078 
Q 4109 2125 4250 1522 
Q 5003 2141 5513 2878 
L 5919 2572 
Q 5263 1725 4391 1034 
Q 4647 284 5075 -91 
Q 5313 -291 5456 -291 
Q 5619 -291 5688 16 
Q 5775 466 5831 978 
Q 6119 853 6313 797 
Q 6194 78 6088 -291 
Q 5938 -797 5513 -797 
Q 5113 -797 4806 -528 
Q 4294 -97 3994 734 
Q 3269 216 2406 -203 
Q 2294 -28 2094 209 
z
M 88 1991 
Q 575 2063 1188 2172 
L 1188 3634 
L 181 3634 
L 181 4072 
L 1188 4072 
L 1188 5266 
L 1669 5266 
L 1669 4072 
L 2575 4072 
L 2575 3634 
L 1669 3634 
L 1669 2263 
Q 2100 2344 2588 2441 
Q 2594 2197 2606 1972 
Q 2141 1884 1669 1794 
L 1669 -91 
Q 1669 -741 1081 -753 
Q 756 -759 344 -747 
Q 319 -509 256 -222 
Q 675 -266 919 -266 
Q 1188 -266 1188 3 
L 1188 1694 
Q 691 1594 188 1484 
L 88 1991 
z
M 4369 4822 
L 4644 5134 
Q 5200 4759 5731 4353 
L 5413 3991 
Q 4881 4459 4369 4822 
z
" transform="scale(0.015625)"/>
      <path id="MicrosoftYaHei-5bf9" d="M 694 3691 
Q 1234 2909 1741 2166 
Q 2113 3081 2213 4147 
L 250 4147 
L 250 4622 
L 2725 4622 
L 2725 4166 
Q 2553 2809 2059 1700 
Q 2569 953 3044 247 
L 2594 -53 
Q 2203 563 1803 1181 
Q 1247 163 388 -622 
Q 263 -428 81 -166 
Q 975 638 1500 1647 
Q 919 2538 319 3434 
L 694 3691 
z
M 2975 3941 
L 5056 3941 
L 5056 5278 
L 5563 5278 
L 5563 3941 
L 6325 3941 
L 6325 3466 
L 5563 3466 
L 5563 191 
Q 5563 -716 4669 -716 
Q 4388 -716 3744 -709 
Q 3713 -478 3644 -147 
Q 4263 -197 4588 -197 
Q 5056 -197 5056 278 
L 5056 3466 
L 2975 3466 
L 2975 3941 
z
M 3088 2684 
L 3494 2928 
Q 4000 2184 4388 1484 
L 3919 1216 
Q 3550 1922 3088 2684 
z
" transform="scale(0.015625)"/>
      <path id="MicrosoftYaHei-5e94" d="M 2969 5134 
L 3425 5378 
Q 3694 5034 3938 4634 
L 3634 4459 
L 6169 4459 
L 6169 3984 
L 1300 3984 
L 1300 2453 
Q 1300 241 388 -853 
Q 238 -647 25 -422 
Q 775 416 775 2441 
L 775 4459 
L 3419 4459 
Q 3216 4803 2969 5134 
z
M 1263 -9 
L 4153 -9 
Q 4641 1238 5188 3403 
L 5731 3253 
Q 5147 1191 4694 -9 
L 6238 -9 
L 6238 -484 
L 1263 -484 
L 1263 -9 
z
M 1600 3059 
L 2075 3222 
Q 2463 2084 2825 672 
L 2294 509 
Q 2006 1747 1600 3059 
z
M 3106 3372 
L 3588 3509 
Q 3913 2384 4163 991 
L 3613 847 
Q 3431 2084 3106 3372 
z
" transform="scale(0.015625)"/>
     </defs>
     <use xlink:href="#MicrosoftYaHei-6839"/>
     <use xlink:href="#MicrosoftYaHei-636e" transform="translate(100 0)"/>
     <use xlink:href="#MicrosoftYaHei-6240" transform="translate(200 0)"/>
     <use xlink:href="#MicrosoftYaHei-6c42" transform="translate(300 0)"/>
     <use xlink:href="#MicrosoftYaHei-91cf" transform="translate(400 0)"/>
     <use xlink:href="#MicrosoftYaHei-76f4" transform="translate(500 0)"/>
     <use xlink:href="#MicrosoftYaHei-63a5" transform="translate(600 0)"/>
     <use xlink:href="#MicrosoftYaHei-67e5" transform="translate(700 0)"/>
     <use xlink:href="#MicrosoftYaHei-627e" transform="translate(800 0)"/>
     <use xlink:href="#MicrosoftYaHei-5bf9" transform="translate(900 0)"/>
     <use xlink:href="#MicrosoftYaHei-5e94" transform="translate(1000 0)"/>
     <use xlink:href="#MicrosoftYaHei-516c" transform="translate(1100 0)"/>
     <use xlink:href="#MicrosoftYaHei-5f0f" transform="translate(1200 0)"/>
    </g>
   </g>
  </g>
 </g>
</svg>
