<?xml version="1.0" encoding="utf-8" standalone="no"?>
<!DOCTYPE svg PUBLIC "-//W3C//DTD SVG 1.1//EN"
  "http://www.w3.org/Graphics/SVG/1.1/DTD/svg11.dtd">
<svg xmlns:xlink="http://www.w3.org/1999/xlink" width="396pt" height="252pt" viewBox="0 0 396 252" xmlns="http://www.w3.org/2000/svg" version="1.1">
 <metadata>
  <rdf:RDF xmlns:dc="http://purl.org/dc/elements/1.1/" xmlns:cc="http://creativecommons.org/ns#" xmlns:rdf="http://www.w3.org/1999/02/22-rdf-syntax-ns#">
   <cc:Work>
    <dc:type rdf:resource="http://purl.org/dc/dcmitype/StillImage"/>
    <dc:date>2026-05-22T22:12:51.791559</dc:date>
    <dc:format>image/svg+xml</dc:format>
    <dc:creator>
     <cc:Agent>
      <dc:title>Matplotlib v3.10.9, https://matplotlib.org/</dc:title>
     </cc:Agent>
    </dc:creator>
   </cc:Work>
  </rdf:RDF>
 </metadata>
 <defs>
  <style type="text/css">*{stroke-linejoin: round; stroke-linecap: butt}</style>
 </defs>
 <g id="figure_1">
  <g id="patch_1">
   <path d="M 0 252 
L 396 252 
L 396 0 
L 0 0 
z
" style="fill: #ffffff"/>
  </g>
  <g id="axes_1">
   <g id="patch_2">
    <path d="M 39.6 221.76 
L 376.2 221.76 
L 376.2 20.16 
L 39.6 20.16 
z
" style="fill: #ffffff"/>
   </g>
   <g id="patch_3">
    <path d="M 279.504 192.927928 
L 272.16 194.367928 
L 272.16 192.942328 
L 223.2 192.942328 
L 223.2 192.913528 
L 272.16 192.913528 
L 272.16 191.487928 
z
" clip-path="url(#pdfead64eff)" style="fill: #e67e22; stroke: #e67e22; stroke-width: 2; stroke-linejoin: miter"/>
   </g>
   <g id="patch_4">
    <path d="M 223.2 166.431928 
L 226.26 169.887928 
L 223.2306 169.887928 
L 223.2306 192.927928 
L 223.1694 192.927928 
L 223.1694 169.887928 
L 220.14 169.887928 
z
" clip-path="url(#pdfead64eff)" style="fill: #e67e22; stroke: #e67e22; stroke-width: 2; stroke-linejoin: miter"/>
   </g>
   <g id="patch_5">
    <path d="M 265.112992 173.204167 
L 262.083747 176.666162 
L 259.941637 175.65811 
L 223.221637 192.93811 
L 223.178363 192.917746 
L 259.898363 175.637746 
L 257.756253 174.629694 
z
" clip-path="url(#pdfead64eff)" style="fill: #e74c3c; stroke: #e74c3c; stroke-width: 2; stroke-linejoin: miter"/>
   </g>
   <g id="matplotlib.axis_1">
    <g id="xtick_1">
     <g id="line2d_1">
      <path d="M 39.6 221.76 
L 39.6 20.16 
" clip-path="url(#pdfead64eff)" style="fill: none; stroke: #b0b0b0; stroke-opacity: 0.3; stroke-width: 0.8; stroke-linecap: square"/>
     </g>
     <g id="line2d_2">
      <defs>
       <path id="m9c86f8608e" d="M 0 0 
L 0 3.5 
" style="stroke: #000000; stroke-width: 0.8"/>
      </defs>
      <g>
       <use xlink:href="#m9c86f8608e" x="39.6" y="221.76" style="stroke: #000000; stroke-width: 0.8"/>
      </g>
     </g>
     <g id="text_1">
      <!-- 0 -->
      <g transform="translate(36.667969 236.75375) scale(0.1 -0.1)">
       <defs>
        <path id="MicrosoftYaHei-30" d="M 284 2325 
Q 284 3606 709 4264 
Q 1134 4922 1941 4922 
Q 3478 4922 3478 2441 
Q 3478 1216 3045 567 
Q 2613 -81 1831 -81 
Q 1094 -81 689 534 
Q 284 1150 284 2325 
z
M 909 2353 
Q 909 425 1888 425 
Q 2850 425 2850 2384 
Q 2850 4413 1906 4413 
Q 909 4413 909 2353 
z
" transform="scale(0.015625)"/>
       </defs>
       <use xlink:href="#MicrosoftYaHei-30"/>
      </g>
     </g>
    </g>
    <g id="xtick_2">
     <g id="line2d_3">
      <path d="M 100.8 221.76 
L 100.8 20.16 
" clip-path="url(#pdfead64eff)" style="fill: none; stroke: #b0b0b0; stroke-opacity: 0.3; stroke-width: 0.8; stroke-linecap: square"/>
     </g>
     <g id="line2d_4">
      <g>
       <use xlink:href="#m9c86f8608e" x="100.8" y="221.76" style="stroke: #000000; stroke-width: 0.8"/>
      </g>
     </g>
     <g id="text_2">
      <!-- 1 -->
      <g transform="translate(97.867969 236.75375) scale(0.1 -0.1)">
       <defs>
        <path id="MicrosoftYaHei-31" d="M 1781 0 
L 1781 4141 
Q 1638 3997 1295 3819 
Q 953 3641 663 3569 
L 663 4169 
Q 1047 4275 1484 4508 
Q 1922 4741 2156 4947 
L 2388 4947 
L 2388 0 
L 1781 0 
z
" transform="scale(0.015625)"/>
       </defs>
       <use xlink:href="#MicrosoftYaHei-31"/>
      </g>
     </g>
    </g>
    <g id="xtick_3">
     <g id="line2d_5">
      <path d="M 162 221.76 
L 162 20.16 
" clip-path="url(#pdfead64eff)" style="fill: none; stroke: #b0b0b0; stroke-opacity: 0.3; stroke-width: 0.8; stroke-linecap: square"/>
     </g>
     <g id="line2d_6">
      <g>
       <use xlink:href="#m9c86f8608e" x="162" y="221.76" style="stroke: #000000; stroke-width: 0.8"/>
      </g>
     </g>
     <g id="text_3">
      <!-- 2 -->
      <g transform="translate(159.067969 236.75375) scale(0.1 -0.1)">
       <defs>
        <path id="MicrosoftYaHei-32" d="M 2666 3572 
Q 2666 3963 2419 4186 
Q 2172 4409 1747 4409 
Q 1447 4409 1140 4256 
Q 834 4103 569 3819 
L 569 4413 
Q 806 4659 1107 4790 
Q 1409 4922 1816 4922 
Q 2472 4922 2872 4570 
Q 3272 4219 3272 3619 
Q 3272 3084 3026 2693 
Q 2781 2303 2188 1894 
Q 1581 1475 1376 1294 
Q 1172 1113 1090 947 
Q 1009 781 1009 544 
L 3416 544 
L 3416 0 
L 372 0 
L 372 241 
Q 372 659 486 951 
Q 600 1244 862 1520 
Q 1125 1797 1681 2184 
Q 2250 2584 2458 2886 
Q 2666 3188 2666 3572 
z
" transform="scale(0.015625)"/>
       </defs>
       <use xlink:href="#MicrosoftYaHei-32"/>
      </g>
     </g>
    </g>
    <g id="xtick_4">
     <g id="line2d_7">
      <path d="M 223.2 221.76 
L 223.2 20.16 
" clip-path="url(#pdfead64eff)" style="fill: none; stroke: #b0b0b0; stroke-opacity: 0.3; stroke-width: 0.8; stroke-linecap: square"/>
     </g>
     <g id="line2d_8">
      <g>
       <use xlink:href="#m9c86f8608e" x="223.2" y="221.76" style="stroke: #000000; stroke-width: 0.8"/>
      </g>
     </g>
     <g id="text_4">
      <!-- 3 -->
      <g transform="translate(220.267969 236.75375) scale(0.1 -0.1)">
       <defs>
        <path id="MicrosoftYaHei-33" d="M 447 809 
Q 944 425 1569 425 
Q 2069 425 2361 670 
Q 2653 916 2653 1328 
Q 2653 2247 1338 2247 
L 934 2247 
L 934 2753 
L 1319 2753 
Q 2484 2753 2484 3616 
Q 2484 4413 1594 4413 
Q 1084 4413 634 4069 
L 634 4647 
Q 1109 4922 1744 4922 
Q 2363 4922 2738 4598 
Q 3113 4275 3113 3759 
Q 3113 2809 2144 2538 
L 2144 2525 
Q 2669 2469 2973 2155 
Q 3278 1841 3278 1372 
Q 3278 719 2808 319 
Q 2338 -81 1556 -81 
Q 869 -81 447 175 
L 447 809 
z
" transform="scale(0.015625)"/>
       </defs>
       <use xlink:href="#MicrosoftYaHei-33"/>
      </g>
     </g>
    </g>
    <g id="xtick_5">
     <g id="line2d_9">
      <path d="M 284.4 221.76 
L 284.4 20.16 
" clip-path="url(#pdfead64eff)" style="fill: none; stroke: #b0b0b0; stroke-opacity: 0.3; stroke-width: 0.8; stroke-linecap: square"/>
     </g>
     <g id="line2d_10">
      <g>
       <use xlink:href="#m9c86f8608e" x="284.4" y="221.76" style="stroke: #000000; stroke-width: 0.8"/>
      </g>
     </g>
     <g id="text_5">
      <!-- 4 -->
      <g transform="translate(281.467969 236.75375) scale(0.1 -0.1)">
       <defs>
        <path id="MicrosoftYaHei-34" d="M 2906 4841 
L 2906 1644 
L 3631 1644 
L 3631 1138 
L 2906 1138 
L 2906 0 
L 2313 0 
L 2313 1138 
L 53 1138 
L 53 1616 
Q 656 2294 1265 3178 
Q 1875 4063 2272 4841 
L 2906 4841 
z
M 741 1644 
L 2313 1644 
L 2313 3950 
Q 1988 3366 1616 2817 
Q 1244 2269 741 1644 
z
" transform="scale(0.015625)"/>
       </defs>
       <use xlink:href="#MicrosoftYaHei-34"/>
      </g>
     </g>
    </g>
    <g id="xtick_6">
     <g id="line2d_11">
      <path d="M 345.6 221.76 
L 345.6 20.16 
" clip-path="url(#pdfead64eff)" style="fill: none; stroke: #b0b0b0; stroke-opacity: 0.3; stroke-width: 0.8; stroke-linecap: square"/>
     </g>
     <g id="line2d_12">
      <g>
       <use xlink:href="#m9c86f8608e" x="345.6" y="221.76" style="stroke: #000000; stroke-width: 0.8"/>
      </g>
     </g>
     <g id="text_6">
      <!-- 5 -->
      <g transform="translate(342.667969 236.75375) scale(0.1 -0.1)">
       <defs>
        <path id="MicrosoftYaHei-35" d="M 3294 1494 
Q 3294 784 2823 350 
Q 2353 -84 1559 -84 
Q 878 -84 544 119 
L 544 744 
Q 1034 425 1544 425 
Q 2050 425 2361 704 
Q 2672 984 2672 1447 
Q 2672 1909 2348 2167 
Q 2025 2425 1434 2425 
Q 978 2425 613 2384 
L 791 4841 
L 3053 4841 
L 3053 4303 
L 1306 4303 
L 1206 2931 
L 1647 2950 
Q 2416 2950 2855 2567 
Q 3294 2184 3294 1494 
z
" transform="scale(0.015625)"/>
       </defs>
       <use xlink:href="#MicrosoftYaHei-35"/>
      </g>
     </g>
    </g>
    <g id="text_7">
     <!-- x/m -->
     <g transform="translate(197.608984 252.032813) scale(0.11 -0.11)">
      <defs>
       <path id="MicrosoftYaHei-78" d="M 3163 3456 
L 2006 1716 
L 3147 0 
L 2434 0 
L 1775 1100 
Q 1722 1188 1625 1369 
L 1613 1369 
Q 1609 1350 1456 1100 
L 784 0 
L 81 0 
L 1256 1697 
L 134 3456 
L 847 3456 
L 1494 2300 
Q 1553 2194 1638 2025 
L 1650 2025 
L 2491 3456 
L 3163 3456 
z
" transform="scale(0.015625)"/>
       <path id="MicrosoftYaHei-2f" d="M 2791 4841 
L 469 -803 
L -103 -803 
L 2219 4841 
L 2791 4841 
z
" transform="scale(0.015625)"/>
       <path id="MicrosoftYaHei-6d" d="M 5522 0 
L 4909 0 
L 4909 1984 
Q 4909 2547 4734 2789 
Q 4559 3031 4159 3031 
Q 3822 3031 3581 2715 
Q 3341 2400 3341 1969 
L 3341 0 
L 2728 0 
L 2728 2047 
Q 2728 3031 1969 3031 
Q 1619 3031 1389 2731 
Q 1159 2431 1159 1966 
L 1159 0 
L 547 0 
L 547 3456 
L 1159 3456 
L 1159 2909 
L 1172 2909 
Q 1541 3538 2250 3538 
Q 2597 3538 2862 3347 
Q 3128 3156 3231 2831 
Q 3616 3538 4381 3538 
Q 5522 3538 5522 2131 
L 5522 0 
z
" transform="scale(0.015625)"/>
      </defs>
      <use xlink:href="#MicrosoftYaHei-78"/>
      <use xlink:href="#MicrosoftYaHei-2f" transform="translate(50.683594 0)"/>
      <use xlink:href="#MicrosoftYaHei-6d" transform="translate(93.408203 0)"/>
     </g>
    </g>
   </g>
   <g id="matplotlib.axis_2">
    <g id="ytick_1">
     <g id="line2d_13">
      <path d="M 39.6 221.76 
L 376.2 221.76 
" clip-path="url(#pdfead64eff)" style="fill: none; stroke: #b0b0b0; stroke-opacity: 0.3; stroke-width: 0.8; stroke-linecap: square"/>
     </g>
     <g id="line2d_14">
      <defs>
       <path id="m9f80aa6adf" d="M 0 0 
L -3.5 0 
" style="stroke: #000000; stroke-width: 0.8"/>
      </defs>
      <g>
       <use xlink:href="#m9f80aa6adf" x="39.6" y="221.76" style="stroke: #000000; stroke-width: 0.8"/>
      </g>
     </g>
     <g id="text_8">
      <!-- -1 -->
      <g transform="translate(22.409375 225.756875) scale(0.1 -0.1)">
       <defs>
        <path id="MicrosoftYaHei-2d" d="M 2328 1681 
L 488 1681 
L 488 2153 
L 2328 2153 
L 2328 1681 
z
" transform="scale(0.015625)"/>
       </defs>
       <use xlink:href="#MicrosoftYaHei-2d"/>
       <use xlink:href="#MicrosoftYaHei-31" transform="translate(43.261719 0)"/>
      </g>
     </g>
    </g>
    <g id="ytick_2">
     <g id="line2d_15">
      <path d="M 39.6 192.96 
L 376.2 192.96 
" clip-path="url(#pdfead64eff)" style="fill: none; stroke: #b0b0b0; stroke-opacity: 0.3; stroke-width: 0.8; stroke-linecap: square"/>
     </g>
     <g id="line2d_16">
      <g>
       <use xlink:href="#m9f80aa6adf" x="39.6" y="192.96" style="stroke: #000000; stroke-width: 0.8"/>
      </g>
     </g>
     <g id="text_9">
      <!-- 0 -->
      <g transform="translate(26.735938 196.956875) scale(0.1 -0.1)">
       <use xlink:href="#MicrosoftYaHei-30"/>
      </g>
     </g>
    </g>
    <g id="ytick_3">
     <g id="line2d_17">
      <path d="M 39.6 164.16 
L 376.2 164.16 
" clip-path="url(#pdfead64eff)" style="fill: none; stroke: #b0b0b0; stroke-opacity: 0.3; stroke-width: 0.8; stroke-linecap: square"/>
     </g>
     <g id="line2d_18">
      <g>
       <use xlink:href="#m9f80aa6adf" x="39.6" y="164.16" style="stroke: #000000; stroke-width: 0.8"/>
      </g>
     </g>
     <g id="text_10">
      <!-- 1 -->
      <g transform="translate(26.735938 168.156875) scale(0.1 -0.1)">
       <use xlink:href="#MicrosoftYaHei-31"/>
      </g>
     </g>
    </g>
    <g id="ytick_4">
     <g id="line2d_19">
      <path d="M 39.6 135.36 
L 376.2 135.36 
" clip-path="url(#pdfead64eff)" style="fill: none; stroke: #b0b0b0; stroke-opacity: 0.3; stroke-width: 0.8; stroke-linecap: square"/>
     </g>
     <g id="line2d_20">
      <g>
       <use xlink:href="#m9f80aa6adf" x="39.6" y="135.36" style="stroke: #000000; stroke-width: 0.8"/>
      </g>
     </g>
     <g id="text_11">
      <!-- 2 -->
      <g transform="translate(26.735938 139.356875) scale(0.1 -0.1)">
       <use xlink:href="#MicrosoftYaHei-32"/>
      </g>
     </g>
    </g>
    <g id="ytick_5">
     <g id="line2d_21">
      <path d="M 39.6 106.56 
L 376.2 106.56 
" clip-path="url(#pdfead64eff)" style="fill: none; stroke: #b0b0b0; stroke-opacity: 0.3; stroke-width: 0.8; stroke-linecap: square"/>
     </g>
     <g id="line2d_22">
      <g>
       <use xlink:href="#m9f80aa6adf" x="39.6" y="106.56" style="stroke: #000000; stroke-width: 0.8"/>
      </g>
     </g>
     <g id="text_12">
      <!-- 3 -->
      <g transform="translate(26.735938 110.556875) scale(0.1 -0.1)">
       <use xlink:href="#MicrosoftYaHei-33"/>
      </g>
     </g>
    </g>
    <g id="ytick_6">
     <g id="line2d_23">
      <path d="M 39.6 77.76 
L 376.2 77.76 
" clip-path="url(#pdfead64eff)" style="fill: none; stroke: #b0b0b0; stroke-opacity: 0.3; stroke-width: 0.8; stroke-linecap: square"/>
     </g>
     <g id="line2d_24">
      <g>
       <use xlink:href="#m9f80aa6adf" x="39.6" y="77.76" style="stroke: #000000; stroke-width: 0.8"/>
      </g>
     </g>
     <g id="text_13">
      <!-- 4 -->
      <g transform="translate(26.735938 81.756875) scale(0.1 -0.1)">
       <use xlink:href="#MicrosoftYaHei-34"/>
      </g>
     </g>
    </g>
    <g id="ytick_7">
     <g id="line2d_25">
      <path d="M 39.6 48.96 
L 376.2 48.96 
" clip-path="url(#pdfead64eff)" style="fill: none; stroke: #b0b0b0; stroke-opacity: 0.3; stroke-width: 0.8; stroke-linecap: square"/>
     </g>
     <g id="line2d_26">
      <g>
       <use xlink:href="#m9f80aa6adf" x="39.6" y="48.96" style="stroke: #000000; stroke-width: 0.8"/>
      </g>
     </g>
     <g id="text_14">
      <!-- 5 -->
      <g transform="translate(26.735938 52.956875) scale(0.1 -0.1)">
       <use xlink:href="#MicrosoftYaHei-35"/>
      </g>
     </g>
    </g>
    <g id="ytick_8">
     <g id="line2d_27">
      <path d="M 39.6 20.16 
L 376.2 20.16 
" clip-path="url(#pdfead64eff)" style="fill: none; stroke: #b0b0b0; stroke-opacity: 0.3; stroke-width: 0.8; stroke-linecap: square"/>
     </g>
     <g id="line2d_28">
      <g>
       <use xlink:href="#m9f80aa6adf" x="39.6" y="20.16" style="stroke: #000000; stroke-width: 0.8"/>
      </g>
     </g>
     <g id="text_15">
      <!-- 6 -->
      <g transform="translate(26.735938 24.156875) scale(0.1 -0.1)">
       <defs>
        <path id="MicrosoftYaHei-36" d="M 3181 4219 
Q 2803 4413 2391 4413 
Q 1763 4413 1381 3866 
Q 1000 3319 994 2372 
L 1009 2372 
Q 1353 3038 2106 3038 
Q 2734 3038 3109 2628 
Q 3484 2219 3484 1541 
Q 3484 831 3051 375 
Q 2619 -81 1947 -81 
Q 1209 -81 789 495 
Q 369 1072 369 2131 
Q 369 3413 920 4167 
Q 1472 4922 2372 4922 
Q 2888 4922 3181 4781 
L 3181 4219 
z
M 1031 1584 
Q 1031 1106 1286 765 
Q 1541 425 1963 425 
Q 2363 425 2613 719 
Q 2863 1013 2863 1475 
Q 2863 1975 2627 2253 
Q 2391 2531 1956 2531 
Q 1544 2531 1287 2250 
Q 1031 1969 1031 1584 
z
" transform="scale(0.015625)"/>
       </defs>
       <use xlink:href="#MicrosoftYaHei-36"/>
      </g>
     </g>
    </g>
    <g id="text_16">
     <!-- y/m -->
     <g transform="translate(15.61125 131.374766) rotate(-90) scale(0.11 -0.11)">
      <defs>
       <path id="MicrosoftYaHei-79" d="M 3359 3456 
L 1791 -522 
Q 1353 -1628 556 -1628 
Q 328 -1628 166 -1578 
L 166 -1041 
Q 344 -1109 509 -1109 
Q 925 -1109 1131 -622 
L 1397 6 
L 41 3456 
L 719 3456 
L 1622 859 
L 1697 575 
L 1713 575 
Q 1731 672 1788 853 
L 2731 3456 
L 3359 3456 
z
" transform="scale(0.015625)"/>
      </defs>
      <use xlink:href="#MicrosoftYaHei-79"/>
      <use xlink:href="#MicrosoftYaHei-2f" transform="translate(52.929688 0)"/>
      <use xlink:href="#MicrosoftYaHei-6d" transform="translate(95.654297 0)"/>
     </g>
    </g>
   </g>
   <g id="line2d_29">
    <path d="M 39.6 192.96 
L 48.826131 192.831712 
L 58.052261 192.446849 
L 67.278392 191.805411 
L 76.504523 190.907397 
L 85.730653 189.752808 
L 94.956784 188.341644 
L 104.182915 186.673904 
L 113.409045 184.749589 
L 122.635176 182.568699 
L 131.861307 180.131233 
L 141.087437 177.437192 
L 150.313568 174.486576 
L 159.539698 171.279384 
L 168.765829 167.815617 
L 177.99196 164.095274 
L 187.21809 160.118357 
L 196.444221 155.884864 
L 205.670352 151.394795 
L 214.896482 146.648151 
L 224.122613 141.644932 
L 233.348744 136.385138 
L 242.574874 130.868768 
L 251.801005 125.095823 
L 261.027136 119.066302 
L 270.253266 112.780207 
L 279.479397 106.237535 
L 288.705528 99.438289 
L 297.931658 92.382467 
L 307.157789 85.07007 
L 316.38392 77.501097 
L 325.61005 69.67555 
L 334.836181 61.593426 
L 344.062312 53.254728 
L 345.6 51.84 
L 345.6 51.84 
" clip-path="url(#pdfead64eff)" style="fill: none; stroke: #0000ff; stroke-width: 2.5; stroke-linecap: square"/>
   </g>
   <g id="patch_6">
    <path d="M 39.6 221.76 
L 39.6 20.16 
" style="fill: none; stroke: #000000; stroke-width: 0.8; stroke-linejoin: miter; stroke-linecap: square"/>
   </g>
   <g id="patch_7">
    <path d="M 376.2 221.76 
L 376.2 20.16 
" style="fill: none; stroke: #000000; stroke-width: 0.8; stroke-linejoin: miter; stroke-linecap: square"/>
   </g>
   <g id="patch_8">
    <path d="M 39.6 221.76 
L 376.2 221.76 
" style="fill: none; stroke: #000000; stroke-width: 0.8; stroke-linejoin: miter; stroke-linecap: square"/>
   </g>
   <g id="patch_9">
    <path d="M 39.6 20.16 
L 376.2 20.16 
" style="fill: none; stroke: #000000; stroke-width: 0.8; stroke-linejoin: miter; stroke-linecap: square"/>
   </g>
   <g id="text_17">
    <!-- v_x -->
    <g style="fill: #e67e22" transform="translate(266.04 191.52) scale(0.1 -0.1)">
     <defs>
      <path id="MicrosoftYaHei-Bold-76" d="M 3688 3456 
L 2391 0 
L 1250 0 
L 16 3456 
L 1097 3456 
L 1731 1281 
Q 1834 925 1847 684 
L 1863 684 
Q 1888 931 1984 1263 
L 2631 3456 
L 3688 3456 
z
" transform="scale(0.015625)"/>
      <path id="MicrosoftYaHei-Bold-5f" d="M 2869 -1675 
L 0 -1675 
L 0 -1272 
L 2869 -1272 
L 2869 -1675 
z
" transform="scale(0.015625)"/>
      <path id="MicrosoftYaHei-Bold-78" d="M 3706 3456 
L 2563 1772 
L 3697 0 
L 2531 0 
L 2016 953 
Q 1909 1150 1869 1263 
L 1856 1263 
Q 1800 1113 1716 963 
L 1191 0 
L 31 0 
L 1200 1719 
L 100 3456 
L 1269 3456 
L 1781 2463 
Q 1856 2319 1922 2144 
L 1934 2144 
Q 1966 2250 2078 2466 
L 2606 3456 
L 3706 3456 
z
" transform="scale(0.015625)"/>
     </defs>
     <use xlink:href="#MicrosoftYaHei-Bold-76"/>
     <use xlink:href="#MicrosoftYaHei-Bold-5f" transform="translate(57.714844 0)"/>
     <use xlink:href="#MicrosoftYaHei-Bold-78" transform="translate(102.539062 0)"/>
    </g>
   </g>
   <g id="text_18">
    <!-- v_y -->
    <g style="fill: #e67e22" transform="translate(229.32 169.92) scale(0.1 -0.1)">
     <defs>
      <path id="MicrosoftYaHei-Bold-79" d="M 3691 3456 
L 2266 -309 
Q 1769 -1622 778 -1622 
Q 388 -1622 172 -1541 
L 172 -731 
Q 375 -847 619 -847 
Q 1031 -847 1200 -447 
L 1391 6 
L -6 3456 
L 1113 3456 
L 1788 1291 
Q 1850 1094 1878 850 
L 1897 850 
Q 1919 1016 2000 1284 
L 2691 3456 
L 3691 3456 
z
" transform="scale(0.015625)"/>
     </defs>
     <use xlink:href="#MicrosoftYaHei-Bold-76"/>
     <use xlink:href="#MicrosoftYaHei-Bold-5f" transform="translate(57.714844 0)"/>
     <use xlink:href="#MicrosoftYaHei-Bold-79" transform="translate(102.539062 0)"/>
    </g>
   </g>
   <g id="text_19">
    <!-- v -->
    <g style="fill: #e74c3c" transform="translate(253.8 175.68) scale(0.1 -0.1)">
     <use xlink:href="#MicrosoftYaHei-Bold-76"/>
    </g>
   </g>
   <g id="patch_10">
    <path d="M 341.919867 201.6 
Q 192.598083 201.6 43.276298 201.6 
" style="fill: none; stroke: #3498db; stroke-width: 1.5; stroke-linecap: round"/>
    <path d="M 337.919867 199.6 
L 341.919867 201.6 
L 337.919867 203.6 
" style="fill: none; stroke: #3498db; stroke-width: 1.5; stroke-linecap: round"/>
    <path d="M 47.276298 203.6 
L 43.276298 201.6 
L 47.276298 199.6 
" style="fill: none; stroke: #3498db; stroke-width: 1.5; stroke-linecap: round"/>
   </g>
   <g id="text_20">
    <!-- x = v₀t（匀速直线） -->
    <g style="fill: #3498db" transform="translate(145.424219 210.24) scale(0.1 -0.1)">
     <defs>
      <path id="MicrosoftYaHei-20" transform="scale(0.015625)"/>
      <path id="MicrosoftYaHei-3d" d="M 3972 2497 
L 788 2497 
L 788 2969 
L 3972 2969 
L 3972 2497 
z
M 3972 1053 
L 788 1053 
L 788 1525 
L 3972 1525 
L 3972 1053 
z
" transform="scale(0.015625)"/>
      <path id="MicrosoftYaHei-76" d="M 3331 3456 
L 1963 0 
L 1344 0 
L 44 3456 
L 713 3456 
L 1556 988 
Q 1659 691 1678 491 
L 1694 491 
Q 1725 753 1803 975 
L 2688 3456 
L 3331 3456 
z
" transform="scale(0.015625)"/>
      <path id="MicrosoftYaHei-2080" d="M 559 0 
L 559 4719 
L 3900 4719 
L 3900 0 
L 559 0 
z
M 1059 500 
L 3403 500 
L 3403 4219 
L 1059 4219 
L 1059 500 
z
" transform="scale(0.015625)"/>
      <path id="MicrosoftYaHei-74" d="M 2206 34 
Q 2006 -75 1666 -75 
Q 738 -75 738 953 
L 738 2950 
L 144 2950 
L 144 3456 
L 738 3456 
L 738 4288 
L 1347 4481 
L 1347 3456 
L 2206 3456 
L 2206 2950 
L 1347 2950 
L 1347 1063 
Q 1347 722 1462 575 
Q 1578 428 1847 428 
Q 2053 428 2206 544 
L 2206 34 
z
" transform="scale(0.015625)"/>
      <path id="MicrosoftYaHei-ff08" d="M 5288 -1100 
Q 4172 119 4172 1850 
Q 4172 3603 5288 4838 
L 5825 4838 
Q 4716 3572 4716 1856 
Q 4716 166 5819 -1100 
L 5288 -1100 
z
" transform="scale(0.015625)"/>
      <path id="MicrosoftYaHei-5300" d="M 1763 5328 
L 2281 5197 
Q 2109 4788 1913 4409 
L 5831 4409 
Q 5769 1572 5719 466 
Q 5675 -678 4506 -697 
Q 4025 -697 3131 -678 
Q 3100 -384 3038 -116 
Q 3863 -184 4419 -184 
Q 5125 -172 5194 522 
Q 5256 1772 5288 3941 
L 1653 3941 
Q 1166 3113 550 2459 
Q 394 2616 169 2803 
Q 1206 3934 1763 5328 
z
M 400 728 
Q 2450 1284 4788 2028 
Q 4788 1697 4800 1484 
Q 4750 1466 631 184 
L 400 728 
z
M 1588 3097 
L 1900 3428 
Q 2750 2841 3500 2272 
L 3125 1866 
Q 2469 2428 1588 3097 
z
" transform="scale(0.015625)"/>
      <path id="MicrosoftYaHei-901f" d="M 2231 3572 
L 3800 3572 
L 3800 4178 
L 1938 4178 
L 1938 4609 
L 3800 4609 
L 3800 5291 
L 4263 5291 
L 4263 4609 
L 6225 4609 
L 6225 4178 
L 4263 4178 
L 4263 3572 
L 5831 3572 
L 5831 1778 
L 5381 1778 
L 5381 1972 
L 4263 1972 
L 4263 1522 
L 4425 1772 
Q 5350 1266 6206 766 
L 5919 322 
Q 5044 916 4263 1347 
L 4263 -9 
L 3800 -9 
L 3800 1603 
Q 3044 766 2069 184 
Q 1963 347 1731 591 
Q 2869 1153 3644 1972 
L 2681 1972 
L 2681 1778 
L 2231 1778 
L 2231 3572 
z
M 2663 -222 
Q 4219 -247 6300 -197 
Q 6231 -403 6125 -691 
Q 4056 -703 2569 -666 
Q 1506 -653 1081 66 
Q 825 -172 331 -772 
L 75 -253 
Q 625 278 875 509 
L 875 2616 
L 131 2616 
L 131 3078 
L 1356 3078 
L 1356 403 
Q 1738 -216 2663 -222 
z
M 5381 3166 
L 4263 3166 
L 4263 2378 
L 5381 2378 
L 5381 3166 
z
M 2681 2378 
L 3800 2378 
L 3800 3166 
L 2681 3166 
L 2681 2378 
z
M 800 5178 
Q 1119 4791 1675 3997 
L 1231 3684 
Q 725 4478 400 4909 
L 800 5178 
z
" transform="scale(0.015625)"/>
      <path id="MicrosoftYaHei-76f4" d="M 119 -153 
L 969 -153 
L 969 3741 
L 2900 3741 
L 2900 4316 
L 244 4316 
L 244 4753 
L 2900 4753 
L 2900 5328 
L 3400 5328 
L 3400 4753 
L 6175 4753 
L 6175 4316 
L 3400 4316 
L 3400 3741 
L 5400 3741 
L 5400 -153 
L 6294 -153 
L 6294 -591 
L 119 -591 
L 119 -153 
z
M 1450 -153 
L 4919 -153 
L 4919 422 
L 1450 422 
L 1450 -153 
z
M 4919 3328 
L 1450 3328 
L 1450 2759 
L 4919 2759 
L 4919 3328 
z
M 1450 822 
L 4919 822 
L 4919 1391 
L 1450 1391 
L 1450 822 
z
M 1450 1791 
L 4919 1791 
L 4919 2359 
L 1450 2359 
L 1450 1791 
z
" transform="scale(0.015625)"/>
      <path id="MicrosoftYaHei-7ebf" d="M 1969 -347 
Q 3144 75 4003 631 
Q 3781 1197 3653 1972 
L 2319 1784 
L 2244 2234 
L 3591 2422 
Q 3538 2859 3513 3356 
L 2381 3228 
L 2306 3678 
L 3488 3809 
Q 3453 4459 3425 5303 
L 3938 5303 
Q 3953 4497 3978 3866 
L 6069 4103 
L 6125 3659 
L 3997 3413 
Q 4019 2919 4069 2488 
L 6225 2791 
L 6281 2347 
L 4128 2041 
Q 4234 1394 4416 916 
Q 5078 1416 5519 2009 
L 5925 1703 
Q 5363 1025 4619 475 
Q 4859 44 5194 -184 
Q 5606 -428 5725 66 
Q 5806 466 5856 953 
Q 6144 828 6338 772 
Q 6231 97 6125 -247 
Q 5944 -778 5506 -778 
Q 5050 -778 4663 -403 
Q 4409 -163 4209 194 
Q 3350 -363 2281 -772 
Q 2169 -597 1969 -347 
z
M 900 1541 
Q 1456 1622 2213 1753 
Q 2175 1522 2156 1272 
Q 1113 1109 325 978 
L 225 1447 
Q 659 1913 1178 2775 
Q 672 2747 225 2703 
L 106 3128 
Q 688 3922 1300 5353 
L 1775 5166 
Q 1131 3897 669 3166 
Q 1041 3178 1422 3194 
Q 1638 3578 1869 4028 
L 2331 3797 
Q 1569 2478 900 1541 
z
M 106 97 
Q 1206 334 2331 616 
Q 2313 366 2313 141 
Q 1269 -103 244 -378 
L 106 97 
z
M 4463 4972 
L 4731 5284 
Q 5175 5003 5681 4609 
L 5381 4247 
Q 4863 4691 4463 4972 
z
" transform="scale(0.015625)"/>
      <path id="MicrosoftYaHei-ff09" d="M 1113 -1100 
L 575 -1100 
Q 1684 163 1684 1888 
Q 1684 3581 581 4838 
L 1113 4838 
Q 2222 3628 2222 1888 
Q 2222 128 1113 -1100 
z
" transform="scale(0.015625)"/>
     </defs>
     <use xlink:href="#MicrosoftYaHei-78"/>
     <use xlink:href="#MicrosoftYaHei-20" transform="translate(50.683594 0)"/>
     <use xlink:href="#MicrosoftYaHei-3d" transform="translate(80.273438 0)"/>
     <use xlink:href="#MicrosoftYaHei-20" transform="translate(154.443359 0)"/>
     <use xlink:href="#MicrosoftYaHei-76" transform="translate(184.033203 0)"/>
     <use xlink:href="#MicrosoftYaHei-2080" transform="translate(236.523438 0)"/>
     <use xlink:href="#MicrosoftYaHei-74" transform="translate(306.25 0)"/>
     <use xlink:href="#MicrosoftYaHei-ff08" transform="translate(343.505859 0)"/>
     <use xlink:href="#MicrosoftYaHei-5300" transform="translate(443.505859 0)"/>
     <use xlink:href="#MicrosoftYaHei-901f" transform="translate(543.505859 0)"/>
     <use xlink:href="#MicrosoftYaHei-76f4" transform="translate(643.505859 0)"/>
     <use xlink:href="#MicrosoftYaHei-7ebf" transform="translate(743.505859 0)"/>
     <use xlink:href="#MicrosoftYaHei-ff09" transform="translate(843.505859 0)"/>
    </g>
   </g>
   <g id="patch_11">
    <path d="M 357.84 55.519639 
Q 357.84 122.401472 357.84 189.283306 
" style="fill: none; stroke: #27ae60; stroke-width: 1.5; stroke-linecap: round"/>
    <path d="M 355.84 59.519639 
L 357.84 55.519639 
L 359.84 59.519639 
" style="fill: none; stroke: #27ae60; stroke-width: 1.5; stroke-linecap: round"/>
    <path d="M 359.84 185.283306 
L 357.84 189.283306 
L 355.84 185.283306 
" style="fill: none; stroke: #27ae60; stroke-width: 1.5; stroke-linecap: round"/>
   </g>
   <g id="text_21">
    <!-- y = ½gt² -->
    <g style="fill: #27ae60" transform="translate(357.84 119.056875) scale(0.1 -0.1)">
     <defs>
      <path id="MicrosoftYaHei-bd" d="M 2188 1972 
L 466 1972 
L 466 2372 
L 1088 2372 
L 1088 4331 
L 434 4153 
L 434 4594 
L 1556 4913 
L 1556 2372 
L 2188 2372 
L 2188 1972 
z
M 4790 4841 
L 1881 0 
L 1356 0 
L 4265 4841 
L 4790 4841 
z
M 5927 -12 
L 4036 -12 
L 4036 388 
L 4849 1185 
Q 5183 1513 5277 1680 
Q 5371 1847 5371 2054 
Q 5371 2244 5247 2363 
Q 5124 2482 4918 2482 
Q 4530 2482 4193 2138 
L 4193 2666 
Q 4486 2922 4993 2922 
Q 5393 2922 5630 2698 
Q 5868 2475 5868 2107 
Q 5868 1597 5174 935 
L 4643 435 
L 4643 419 
L 5927 419 
L 5927 -12 
z
" transform="scale(0.015625)"/>
      <path id="MicrosoftYaHei-67" d="M 3547 291 
Q 3547 -1628 1684 -1628 
Q 1041 -1628 566 -1388 
L 566 -797 
Q 1144 -1119 1675 -1119 
Q 2934 -1119 2934 206 
L 2934 572 
L 2922 572 
Q 2528 -81 1747 -81 
Q 1097 -81 706 384 
Q 316 850 316 1619 
Q 316 2503 747 3020 
Q 1178 3538 1897 3538 
Q 2588 3538 2922 2988 
L 2934 2988 
L 2934 3456 
L 3547 3456 
L 3547 291 
z
M 2934 2056 
Q 2938 2456 2666 2743 
Q 2394 3031 1997 3031 
Q 1497 3031 1219 2664 
Q 941 2297 941 1656 
Q 941 1106 1209 765 
Q 1478 425 1922 425 
Q 2369 425 2653 750 
Q 2938 1075 2934 1575 
L 2934 2056 
z
" transform="scale(0.015625)"/>
      <path id="MicrosoftYaHei-b2" d="M 2247 1972 
L 356 1972 
L 356 2372 
L 1169 3169 
Q 1503 3497 1597 3664 
Q 1691 3831 1691 4038 
Q 1691 4228 1567 4347 
Q 1444 4466 1238 4466 
Q 850 4466 513 4122 
L 513 4650 
Q 806 4906 1313 4906 
Q 1713 4906 1950 4682 
Q 2188 4459 2188 4091 
Q 2188 3581 1494 2919 
L 963 2419 
L 963 2403 
L 2247 2403 
L 2247 1972 
z
" transform="scale(0.015625)"/>
     </defs>
     <use xlink:href="#MicrosoftYaHei-79"/>
     <use xlink:href="#MicrosoftYaHei-20" transform="translate(52.929688 0)"/>
     <use xlink:href="#MicrosoftYaHei-3d" transform="translate(82.519531 0)"/>
     <use xlink:href="#MicrosoftYaHei-20" transform="translate(156.689453 0)"/>
     <use xlink:href="#MicrosoftYaHei-bd" transform="translate(186.279297 0)"/>
     <use xlink:href="#MicrosoftYaHei-67" transform="translate(286.767578 0)"/>
     <use xlink:href="#MicrosoftYaHei-74" transform="translate(350.732422 0)"/>
     <use xlink:href="#MicrosoftYaHei-b2" transform="translate(387.988281 0)"/>
    </g>
    <!-- （自由落体） -->
    <g style="fill: #27ae60" transform="translate(357.84 131.193125) scale(0.1 -0.1)">
     <defs>
      <path id="MicrosoftYaHei-81ea" d="M 775 4466 
L 2391 4466 
Q 2525 4828 2688 5328 
L 3219 5166 
Q 3059 4778 2909 4466 
L 5625 4466 
L 5625 -822 
L 5125 -822 
L 5125 -447 
L 1275 -447 
L 1275 -822 
L 775 -822 
L 775 4466 
z
M 1275 3 
L 5125 3 
L 5125 1053 
L 1275 1053 
L 1275 3 
z
M 1275 1497 
L 5125 1497 
L 5125 2534 
L 1275 2534 
L 1275 1497 
z
M 5125 4016 
L 1275 4016 
L 1275 2978 
L 5125 2978 
L 5125 4016 
z
" transform="scale(0.015625)"/>
      <path id="MicrosoftYaHei-7531" d="M 638 -734 
L 638 4141 
L 2950 4141 
L 2950 5328 
L 3475 5328 
L 3475 4141 
L 5788 4141 
L 5788 -734 
L 5275 -734 
L 5275 -372 
L 1150 -372 
L 1150 -734 
L 638 -734 
z
M 1150 91 
L 2950 91 
L 2950 1678 
L 1150 1678 
L 1150 91 
z
M 3475 91 
L 5275 91 
L 5275 1678 
L 3475 1678 
L 3475 91 
z
M 1150 2128 
L 2950 2128 
L 2950 3678 
L 1150 3678 
L 1150 2128 
z
M 5275 3678 
L 3475 3678 
L 3475 2128 
L 5275 2128 
L 5275 3678 
z
" transform="scale(0.015625)"/>
      <path id="MicrosoftYaHei-843d" d="M 1663 2447 
Q 2500 3172 2919 4053 
L 3388 3953 
Q 3278 3744 3156 3547 
L 5594 3547 
L 5594 3147 
Q 5178 2559 4447 2122 
Q 5256 1813 6344 1753 
Q 6219 1491 6138 1272 
Q 4850 1447 3969 1866 
Q 3063 1438 1781 1191 
Q 1694 1384 1569 1616 
Q 2675 1772 3513 2116 
Q 3009 2434 2681 2856 
Q 2369 2456 2000 2109 
Q 1856 2272 1663 2447 
z
M 2288 1203 
L 5519 1203 
L 5519 -822 
L 5056 -822 
L 5056 -491 
L 2750 -491 
L 2750 -822 
L 2288 -822 
L 2288 1203 
z
M 138 4691 
L 1863 4691 
L 1863 5328 
L 2338 5328 
L 2338 4691 
L 4075 4691 
L 4075 5328 
L 4550 5328 
L 4550 4691 
L 6263 4691 
L 6263 4266 
L 4550 4266 
L 4550 3809 
L 4075 3809 
L 4075 4266 
L 2338 4266 
L 2338 3784 
L 1863 3784 
L 1863 4266 
L 138 4266 
L 138 4691 
z
M 5056 791 
L 2750 791 
L 2750 -78 
L 5056 -78 
L 5056 791 
z
M 181 -622 
Q 619 278 1031 1478 
Q 1244 1359 1500 1247 
Q 1119 322 700 -834 
L 181 -622 
z
M 5069 3147 
L 2972 3147 
Q 3381 2656 3981 2334 
Q 4622 2675 5069 3147 
z
M 44 2459 
L 325 2828 
Q 850 2522 1356 2172 
Q 1181 1953 1038 1759 
Q 575 2122 44 2459 
z
M 475 3641 
L 756 3991 
Q 1350 3616 1738 3316 
Q 1569 3109 1438 2928 
Q 956 3316 475 3641 
z
" transform="scale(0.015625)"/>
      <path id="MicrosoftYaHei-4f53" d="M 6350 778 
Q 6138 522 5981 316 
Q 4731 1278 4144 3572 
L 4144 934 
L 5063 934 
L 5063 484 
L 4144 484 
L 4144 -822 
L 3681 -822 
L 3681 484 
L 2763 484 
L 2763 934 
L 3681 934 
L 3681 3572 
L 3666 3572 
Q 3084 1413 1750 216 
Q 1606 397 1419 609 
Q 2625 1713 3225 3572 
L 1756 3572 
L 1756 4022 
L 3681 4022 
L 3681 5297 
L 4144 5297 
L 4144 4022 
L 6138 4022 
L 6138 3572 
L 4547 3572 
Q 5144 1628 6350 778 
z
M 56 2297 
Q 963 3622 1406 5316 
L 1881 5178 
Q 1638 4381 1331 3681 
L 1331 -816 
L 869 -816 
L 869 2741 
Q 588 2231 269 1784 
Q 175 2041 56 2297 
z
" transform="scale(0.015625)"/>
     </defs>
     <use xlink:href="#MicrosoftYaHei-ff08"/>
     <use xlink:href="#MicrosoftYaHei-81ea" transform="translate(100 0)"/>
     <use xlink:href="#MicrosoftYaHei-7531" transform="translate(200 0)"/>
     <use xlink:href="#MicrosoftYaHei-843d" transform="translate(300 0)"/>
     <use xlink:href="#MicrosoftYaHei-4f53" transform="translate(400 0)"/>
     <use xlink:href="#MicrosoftYaHei-ff09" transform="translate(500 0)"/>
    </g>
   </g>
   <g id="text_22">
    <!-- 平抛运动——水平匀速·竖直自由落体 -->
    <g style="fill: #1a1a2e" transform="translate(101.292891 14.16) scale(0.13 -0.13)">
     <defs>
      <path id="MicrosoftYaHei-5e73" d="M 169 1934 
L 2938 1934 
L 2938 4547 
L 450 4547 
L 450 5028 
L 5975 5028 
L 5975 4547 
L 3463 4547 
L 3463 1934 
L 6250 1934 
L 6250 1453 
L 3463 1453 
L 3463 -847 
L 2938 -847 
L 2938 1453 
L 169 1453 
L 169 1934 
z
M 3950 2559 
Q 4638 3284 5188 4159 
L 5656 3859 
Q 4950 2891 4338 2234 
L 3950 2559 
z
M 769 3859 
L 1163 4134 
Q 1863 3316 2369 2553 
L 1925 2222 
Q 1444 3003 769 3859 
z
" transform="scale(0.015625)"/>
      <path id="MicrosoftYaHei-629b" d="M 1950 3772 
L 2331 3772 
Q 2338 4434 2344 5253 
L 2794 5253 
Q 2788 4366 2781 3772 
L 3713 3772 
L 3713 203 
Q 3713 -209 4131 -209 
L 5306 -209 
Q 5694 -209 5769 147 
Q 5819 409 5863 884 
Q 6075 778 6319 684 
Q 6263 297 6200 -3 
Q 6094 -634 5406 -634 
L 4006 -634 
Q 3263 -634 3263 159 
L 3263 3347 
L 2781 3347 
Q 2775 1428 2600 691 
Q 2450 -84 1850 -828 
Q 1738 -659 1550 -391 
Q 2056 272 2181 978 
Q 2319 1616 2331 3347 
L 1950 3347 
L 1950 3772 
z
M 3856 4172 
L 4431 4172 
Q 4444 4678 4456 5253 
L 4900 5253 
Q 4888 4678 4875 4172 
L 5906 4172 
Q 5844 2072 5794 1234 
Q 5750 484 5213 472 
Q 4975 466 4700 466 
Q 4663 691 4600 947 
Q 4888 928 5081 934 
Q 5350 941 5375 1372 
Q 5419 2191 5456 3747 
L 4856 3747 
Q 4850 1266 4106 322 
Q 3950 534 3794 728 
Q 4413 1478 4419 3747 
L 3856 3747 
L 3856 4172 
z
M 94 2028 
Q 450 2141 875 2291 
L 875 3672 
L 150 3672 
L 150 4097 
L 875 4097 
L 875 5247 
L 1325 5247 
L 1325 4097 
L 1900 4097 
L 1900 3672 
L 1325 3672 
L 1325 2453 
Q 1613 2553 1931 2678 
Q 1944 2372 1950 2184 
Q 1650 2072 1325 1953 
L 1325 -91 
Q 1325 -728 781 -741 
Q 519 -747 206 -741 
Q 175 -497 125 -228 
Q 425 -266 625 -266 
Q 875 -266 875 28 
L 875 1778 
Q 525 1653 156 1509 
L 94 2028 
z
" transform="scale(0.015625)"/>
      <path id="MicrosoftYaHei-8fd0" d="M 4319 2197 
L 4713 2447 
Q 5419 1522 5963 666 
L 5513 359 
Q 5372 597 5225 834 
Q 3450 722 2681 622 
Q 2469 591 2238 516 
L 2006 966 
Q 2250 1134 2413 1366 
Q 2838 2009 3250 2859 
L 1919 2859 
L 1919 3334 
L 6200 3334 
L 6200 2859 
L 3844 2859 
Q 3303 1866 2800 1116 
Q 3750 1172 4959 1253 
Q 4650 1731 4319 2197 
z
M 2756 -141 
L 4588 -178 
L 6313 -109 
Q 6206 -366 6113 -609 
L 4250 -622 
L 2650 -603 
Q 1656 -578 1156 122 
Q 769 -209 369 -697 
L 100 -166 
Q 116 -147 931 547 
L 931 2678 
L 131 2678 
L 131 3141 
L 1431 3141 
L 1431 459 
Q 1903 -125 2756 -141 
z
M 2338 4947 
L 5838 4947 
L 5838 4472 
L 2338 4472 
L 2338 4947 
z
M 794 5278 
Q 1275 4697 1744 4078 
L 1300 3778 
Q 881 4403 413 5003 
L 794 5278 
z
" transform="scale(0.015625)"/>
      <path id="MicrosoftYaHei-52a8" d="M 2975 4022 
L 3906 4022 
Q 3916 4650 3913 5309 
L 4425 5309 
Q 4422 4656 4409 4022 
L 6094 4022 
Q 6050 1659 5969 216 
Q 5900 -666 5150 -678 
Q 4763 -678 4306 -659 
Q 4263 -397 4206 -109 
Q 4638 -166 4994 -172 
Q 5456 -172 5475 347 
Q 5569 1897 5588 3547 
L 4400 3547 
Q 4394 3278 4388 3016 
Q 4356 553 2900 -872 
Q 2725 -659 2525 -447 
Q 3831 716 3888 3028 
Q 3894 3284 3900 3547 
L 2975 3547 
L 2975 4022 
z
M 2338 1866 
Q 2731 1016 3063 178 
Q 2788 59 2594 -28 
Q 2550 91 2506 209 
Q 1316 97 338 -16 
L 119 491 
Q 394 647 563 997 
Q 869 1613 1200 2559 
L 144 2559 
L 144 3022 
L 3163 3022 
L 3163 2559 
L 1725 2559 
Q 1191 1228 800 491 
Q 1519 544 2347 631 
Q 2138 1163 1906 1672 
L 2338 1866 
z
M 406 4778 
L 2913 4778 
L 2913 4316 
L 406 4316 
L 406 4778 
z
" transform="scale(0.015625)"/>
      <path id="MicrosoftYaHei-2014" d="M 6913 1681 
L 0 1681 
L 0 2153 
L 6913 2153 
L 6913 1681 
z
" transform="scale(0.015625)"/>
      <path id="MicrosoftYaHei-6c34" d="M 2925 5297 
L 3431 5297 
L 3431 4294 
Q 3700 3563 4047 2934 
Q 4738 3509 5425 4309 
L 5844 3934 
Q 5113 3169 4300 2506 
Q 5125 1200 6319 384 
Q 6056 122 5894 -84 
Q 4250 1209 3431 3119 
L 3431 197 
Q 3431 -734 2538 -734 
Q 2263 -734 1725 -728 
Q 1694 -497 1625 -166 
Q 2125 -216 2438 -216 
Q 2925 -216 2925 253 
L 2925 5297 
z
M 256 3297 
L 256 3772 
L 2413 3772 
L 2413 3316 
Q 1881 1266 475 -197 
Q 263 47 94 184 
Q 1506 1672 1913 3297 
L 256 3297 
z
" transform="scale(0.015625)"/>
      <path id="MicrosoftYaHei-b7" d="M 372 2113 
Q 372 2278 490 2395 
Q 609 2513 775 2513 
Q 941 2513 1061 2397 
Q 1181 2281 1181 2113 
Q 1181 1950 1064 1831 
Q 947 1713 772 1713 
Q 600 1713 486 1831 
Q 372 1950 372 2113 
z
" transform="scale(0.015625)"/>
      <path id="MicrosoftYaHei-7ad6" d="M 2538 4478 
L 2538 4934 
L 5788 4934 
L 5788 4534 
Q 5375 3791 4572 3269 
Q 5250 2888 6231 2772 
Q 6088 2497 5969 2278 
Q 4834 2472 4081 2991 
Q 3416 2656 2544 2441 
Q 2469 2653 2331 2897 
Q 3094 3075 3675 3322 
Q 3175 3800 2913 4478 
L 2538 4478 
z
M 138 -9 
L 3713 -9 
Q 4156 750 4463 1328 
L 4988 1078 
Q 4581 472 4250 -9 
L 6263 -9 
L 6263 -472 
L 138 -472 
L 138 -9 
z
M 775 1853 
L 3091 1853 
Q 2988 2075 2869 2309 
L 3319 2484 
Q 3463 2181 3606 1853 
L 5788 1853 
L 5788 1391 
L 775 1391 
L 775 1853 
z
M 1738 5253 
L 2213 5253 
L 2213 2216 
L 1738 2216 
L 1738 5253 
z
M 544 5003 
L 1013 5003 
L 1013 2316 
L 544 2316 
L 544 5003 
z
M 5188 4478 
L 3422 4478 
Q 3684 3931 4150 3553 
Q 4853 3944 5188 4478 
z
M 1569 1084 
L 1981 1328 
Q 2256 947 2663 378 
L 2225 103 
Q 1869 653 1569 1084 
z
" transform="scale(0.015625)"/>
     </defs>
     <use xlink:href="#MicrosoftYaHei-5e73"/>
     <use xlink:href="#MicrosoftYaHei-629b" transform="translate(100 0)"/>
     <use xlink:href="#MicrosoftYaHei-8fd0" transform="translate(200 0)"/>
     <use xlink:href="#MicrosoftYaHei-52a8" transform="translate(300 0)"/>
     <use xlink:href="#MicrosoftYaHei-2014" transform="translate(400 0)"/>
     <use xlink:href="#MicrosoftYaHei-2014" transform="translate(508.007812 0)"/>
     <use xlink:href="#MicrosoftYaHei-6c34" transform="translate(616.015625 0)"/>
     <use xlink:href="#MicrosoftYaHei-5e73" transform="translate(716.015625 0)"/>
     <use xlink:href="#MicrosoftYaHei-5300" transform="translate(816.015625 0)"/>
     <use xlink:href="#MicrosoftYaHei-901f" transform="translate(916.015625 0)"/>
     <use xlink:href="#MicrosoftYaHei-b7" transform="translate(1016.015625 0)"/>
     <use xlink:href="#MicrosoftYaHei-7ad6" transform="translate(1040.087891 0)"/>
     <use xlink:href="#MicrosoftYaHei-76f4" transform="translate(1140.087891 0)"/>
     <use xlink:href="#MicrosoftYaHei-81ea" transform="translate(1240.087891 0)"/>
     <use xlink:href="#MicrosoftYaHei-7531" transform="translate(1340.087891 0)"/>
     <use xlink:href="#MicrosoftYaHei-843d" transform="translate(1440.087891 0)"/>
     <use xlink:href="#MicrosoftYaHei-4f53" transform="translate(1540.087891 0)"/>
    </g>
   </g>
   <g id="PathCollection_1">
    <defs>
     <path id="mab24088b0a" d="M 0 2.738613 
C 0.726289 2.738613 1.422928 2.450055 1.936492 1.936492 
C 2.450055 1.422928 2.738613 0.726289 2.738613 0 
C 2.738613 -0.726289 2.450055 -1.422928 1.936492 -1.936492 
C 1.422928 -2.450055 0.726289 -2.738613 0 -2.738613 
C -0.726289 -2.738613 -1.422928 -2.450055 -1.936492 -1.936492 
C -2.450055 -1.422928 -2.738613 -0.726289 -2.738613 0 
C -2.738613 0.726289 -2.450055 1.422928 -1.936492 1.936492 
C -1.422928 2.450055 -0.726289 2.738613 0 2.738613 
z
" style="stroke: #ff0000"/>
    </defs>
    <g clip-path="url(#pdfead64eff)">
     <use xlink:href="#mab24088b0a" x="100.8" y="187.3152" style="fill: #ff0000; stroke: #ff0000"/>
    </g>
   </g>
   <g id="PathCollection_2">
    <g clip-path="url(#pdfead64eff)">
     <use xlink:href="#mab24088b0a" x="162" y="170.3808" style="fill: #ff0000; stroke: #ff0000"/>
    </g>
   </g>
   <g id="PathCollection_3">
    <g clip-path="url(#pdfead64eff)">
     <use xlink:href="#mab24088b0a" x="223.2" y="142.1568" style="fill: #ff0000; stroke: #ff0000"/>
    </g>
   </g>
   <g id="PathCollection_4">
    <g clip-path="url(#pdfead64eff)">
     <use xlink:href="#mab24088b0a" x="284.4" y="102.6432" style="fill: #ff0000; stroke: #ff0000"/>
    </g>
   </g>
   <g id="PathCollection_5">
    <g clip-path="url(#pdfead64eff)">
     <use xlink:href="#mab24088b0a" x="345.6" y="51.84" style="fill: #ff0000; stroke: #ff0000"/>
    </g>
   </g>
   <g id="legend_1">
    <g id="patch_12">
     <path d="M 269.239219 41.677031 
L 369.9 41.677031 
Q 371.7 41.677031 371.7 39.877031 
L 371.7 26.46 
Q 371.7 24.66 369.9 24.66 
L 269.239219 24.66 
Q 267.439219 24.66 267.439219 26.46 
L 267.439219 39.877031 
Q 267.439219 41.677031 269.239219 41.677031 
z
" style="fill: #ffffff; opacity: 0.8; stroke: #cccccc; stroke-linejoin: miter"/>
    </g>
    <g id="line2d_30">
     <path d="M 271.039219 32.637656 
L 280.039219 32.637656 
L 289.039219 32.637656 
" style="fill: none; stroke: #0000ff; stroke-width: 2.5; stroke-linecap: square"/>
    </g>
    <g id="text_23">
     <!-- 平抛轨迹 y=½gt² -->
     <g transform="translate(296.239219 35.787656) scale(0.09 -0.09)">
      <defs>
       <path id="MicrosoftYaHei-8f68" d="M 2700 3934 
L 3406 3934 
L 3406 5303 
L 3894 5303 
L 3894 3934 
L 5313 3934 
L 5313 78 
Q 5313 -166 5475 -166 
L 5556 -166 
Q 5731 -166 5775 184 
Q 5831 591 5869 1309 
Q 6081 1203 6319 1134 
Q 6281 591 6206 47 
Q 6106 -641 5619 -641 
L 5331 -641 
Q 4838 -641 4838 22 
L 4838 3472 
L 3894 3472 
Q 3881 1634 3706 859 
Q 3506 -116 2869 -891 
Q 2688 -672 2463 -491 
Q 3044 109 3244 1072 
Q 3394 1709 3406 3472 
L 2700 3472 
L 2700 3934 
z
M 825 2434 
L 1500 2434 
L 1500 3603 
L 1975 3603 
L 1975 2434 
L 2694 2434 
L 2694 1972 
L 1975 1972 
L 1975 1166 
Q 2325 1234 2694 1309 
Q 2681 1022 2681 828 
Q 2338 766 1975 697 
L 1975 -859 
L 1500 -859 
L 1500 603 
Q 869 478 181 334 
L 75 834 
Q 756 934 1500 1072 
L 1500 1972 
L 300 1972 
L 300 2366 
Q 569 3141 813 4028 
L 163 4028 
L 163 4466 
L 925 4466 
Q 1031 4884 1138 5328 
L 1644 5228 
Q 1538 4834 1438 4466 
L 2675 4466 
L 2675 4028 
L 1313 4028 
Q 1063 3159 825 2434 
z
" transform="scale(0.015625)"/>
       <path id="MicrosoftYaHei-8ff9" d="M 1950 4422 
L 3963 4422 
Q 3772 4772 3519 5109 
L 3919 5353 
Q 4200 5003 4425 4641 
L 4059 4422 
L 6150 4422 
L 6150 3966 
L 4938 3966 
L 4938 959 
Q 4938 203 4175 159 
Q 3888 147 3419 147 
Q 3388 391 3325 666 
Q 3700 634 4056 634 
Q 4488 634 4488 1122 
L 4488 3966 
L 3569 3966 
L 3569 2797 
Q 3569 853 2438 -16 
Q 2281 197 2113 372 
Q 3119 1172 3119 2791 
L 3119 3966 
L 1950 3966 
L 1950 4422 
z
M 2903 -228 
L 4163 -253 
L 6319 -191 
Q 6213 -441 6113 -672 
L 4159 -703 
L 2763 -672 
Q 1575 -641 1088 47 
Q 806 -216 356 -753 
L 88 -222 
Q 559 197 863 459 
L 863 2641 
L 150 2641 
L 150 3097 
L 1325 3097 
L 1325 397 
Q 1778 -200 2903 -228 
z
M 5194 2853 
L 5638 3053 
Q 6056 2153 6300 1478 
L 5844 1284 
Q 5550 2134 5194 2853 
z
M 2269 3047 
L 2725 2884 
Q 2413 2141 2013 1328 
Q 1981 1341 1550 1528 
Q 1956 2247 2269 3047 
z
M 769 5272 
Q 1281 4591 1656 4009 
L 1225 3703 
Q 850 4341 369 5009 
L 769 5272 
z
" transform="scale(0.015625)"/>
      </defs>
      <use xlink:href="#MicrosoftYaHei-5e73"/>
      <use xlink:href="#MicrosoftYaHei-629b" transform="translate(100 0)"/>
      <use xlink:href="#MicrosoftYaHei-8f68" transform="translate(200 0)"/>
      <use xlink:href="#MicrosoftYaHei-8ff9" transform="translate(300 0)"/>
      <use xlink:href="#MicrosoftYaHei-20" transform="translate(400 0)"/>
      <use xlink:href="#MicrosoftYaHei-79" transform="translate(429.589844 0)"/>
      <use xlink:href="#MicrosoftYaHei-3d" transform="translate(482.519531 0)"/>
      <use xlink:href="#MicrosoftYaHei-bd" transform="translate(556.689453 0)"/>
      <use xlink:href="#MicrosoftYaHei-67" transform="translate(657.177734 0)"/>
      <use xlink:href="#MicrosoftYaHei-74" transform="translate(721.142578 0)"/>
      <use xlink:href="#MicrosoftYaHei-b2" transform="translate(758.398438 0)"/>
     </g>
    </g>
   </g>
  </g>
 </g>
 <defs>
  <clipPath id="pdfead64eff">
   <rect x="39.6" y="20.16" width="336.6" height="201.6"/>
  </clipPath>
 </defs>
</svg>
