<?xml version="1.0" encoding="utf-8" standalone="no"?>
<!DOCTYPE svg PUBLIC "-//W3C//DTD SVG 1.1//EN"
  "http://www.w3.org/Graphics/SVG/1.1/DTD/svg11.dtd">
<svg xmlns:xlink="http://www.w3.org/1999/xlink" width="3297.798906pt" height="667.522pt" viewBox="0 0 3297.798906 667.522" xmlns="http://www.w3.org/2000/svg" version="1.1">
 <metadata>
  <rdf:RDF xmlns:dc="http://purl.org/dc/elements/1.1/" xmlns:cc="http://creativecommons.org/ns#" xmlns:rdf="http://www.w3.org/1999/02/22-rdf-syntax-ns#">
   <cc:Work>
    <dc:type rdf:resource="http://purl.org/dc/dcmitype/StillImage"/>
    <dc:date>2026-05-29T22:28:06.426230</dc:date>
    <dc:format>image/svg+xml</dc:format>
    <dc:creator>
     <cc:Agent>
      <dc:title>Matplotlib v3.10.9, https://matplotlib.org/</dc:title>
     </cc:Agent>
    </dc:creator>
   </cc:Work>
  </rdf:RDF>
 </metadata>
 <defs>
  <style type="text/css">*{stroke-linejoin: round; stroke-linecap: butt}</style>
 </defs>
 <g id="figure_1">
  <g id="patch_1">
   <path d="M 0 667.522 
L 3297.798906 667.522 
L 3297.798906 0 
L 0 0 
z
" style="fill: #ffffff"/>
  </g>
  <g id="axes_1">
   <g id="patch_2">
    <path d="M 141.12 456.58 
L 676.8 456.58 
Q 743.76 456.58 743.76 427.474 
L 743.76 233.434 
Q 743.76 204.328 676.8 204.328 
L 141.12 204.328 
Q 74.16 204.328 74.16 233.434 
L 74.16 427.474 
Q 74.16 456.58 141.12 456.58 
z
" clip-path="url(#p0610e40ca5)" style="fill: #c0392b; opacity: 0.8; stroke: #ffffff; stroke-width: 2; stroke-linejoin: miter"/>
   </g>
   <g id="patch_3">
    <path d="M 810.72 456.58 
L 1346.4 456.58 
Q 1413.36 456.58 1413.36 427.474 
L 1413.36 233.434 
Q 1413.36 204.328 1346.4 204.328 
L 810.72 204.328 
Q 743.76 204.328 743.76 233.434 
L 743.76 427.474 
Q 743.76 456.58 810.72 456.58 
z
" clip-path="url(#p0610e40ca5)" style="fill: #e74c3c; opacity: 0.8; stroke: #ffffff; stroke-width: 2; stroke-linejoin: miter"/>
   </g>
   <g id="patch_4">
    <path d="M 1480.32 456.58 
L 2016 456.58 
Q 2082.96 456.58 2082.96 427.474 
L 2082.96 233.434 
Q 2082.96 204.328 2016 204.328 
L 1480.32 204.328 
Q 1413.36 204.328 1413.36 233.434 
L 1413.36 427.474 
Q 1413.36 456.58 1480.32 456.58 
z
" clip-path="url(#p0610e40ca5)" style="fill: #2980b9; opacity: 0.8; stroke: #ffffff; stroke-width: 2; stroke-linejoin: miter"/>
   </g>
   <g id="patch_5">
    <path d="M 2149.92 456.58 
L 2685.6 456.58 
Q 2752.56 456.58 2752.56 427.474 
L 2752.56 233.434 
Q 2752.56 204.328 2685.6 204.328 
L 2149.92 204.328 
Q 2082.96 204.328 2082.96 233.434 
L 2082.96 427.474 
Q 2082.96 456.58 2149.92 456.58 
z
" clip-path="url(#p0610e40ca5)" style="fill: #27ae60; opacity: 0.8; stroke: #ffffff; stroke-width: 2; stroke-linejoin: miter"/>
   </g>
   <g id="patch_6">
    <path d="M 2819.52 456.58 
L 3355.2 456.58 
Q 3422.16 456.58 3422.16 427.474 
L 3422.16 233.434 
Q 3422.16 204.328 3355.2 204.328 
L 2819.52 204.328 
Q 2752.56 204.328 2752.56 233.434 
L 2752.56 427.474 
Q 2752.56 456.58 2819.52 456.58 
z
" clip-path="url(#p0610e40ca5)" style="fill: #8e44ad; opacity: 0.8; stroke: #ffffff; stroke-width: 2; stroke-linejoin: miter"/>
   </g>
   <g id="text_1">
    <!-- 写公式 -->
    <g style="fill: #ffffff" transform="translate(387.96 334.309469) scale(0.14 -0.14)">
     <defs>
      <path id="MicrosoftYaHei-Bold-5199" d="M 825 1628 
L 1116 3753 
L 331 3753 
L 331 5091 
L 6069 5091 
L 6069 3753 
L 5181 3753 
L 5181 4303 
L 1219 4303 
L 1219 3991 
L 1994 3991 
L 1944 3628 
L 5588 3628 
L 5588 2853 
L 1841 2853 
L 1781 2403 
L 5919 2403 
L 5850 538 
Q 5825 -81 5528 -404 
Q 5231 -728 4765 -750 
Q 4300 -772 3325 -772 
Q 3250 -422 3119 97 
L 4331 72 
Q 4628 72 4784 206 
Q 4941 341 4958 564 
Q 4975 788 5000 1628 
L 825 1628 
z
M 125 1166 
L 4600 1166 
L 4600 391 
L 125 391 
L 125 1166 
z
" transform="scale(0.015625)"/>
      <path id="MicrosoftYaHei-Bold-516c" d="M 4500 5222 
Q 5206 3791 6313 2859 
Q 5856 2403 5600 2116 
Q 4494 3141 3681 4834 
L 4500 5222 
z
M 1869 5159 
L 2725 4797 
Q 2038 3241 750 2053 
Q 538 2328 125 2778 
Q 1263 3784 1869 5159 
z
M 4269 2059 
Q 5250 872 6031 -297 
L 5213 -866 
Q 5059 -606 4884 -331 
L 1628 -500 
Q 1313 -534 981 -616 
L 594 228 
Q 1016 472 1717 1503 
Q 2419 2534 2781 3241 
L 3706 2828 
Q 2644 1184 1969 428 
Q 3194 456 4322 506 
Q 3959 1025 3525 1591 
L 4269 2059 
z
" transform="scale(0.015625)"/>
      <path id="MicrosoftYaHei-Bold-5f0f" d="M 100 4222 
L 3350 4222 
L 3281 5322 
L 4219 5322 
Q 4234 4769 4266 4222 
L 5125 4222 
Q 4856 4572 4594 4853 
L 5150 5272 
Q 5519 4891 5863 4478 
L 5531 4222 
L 6169 4222 
L 6169 3397 
L 4322 3397 
Q 4463 1363 4698 727 
Q 4934 91 5144 91 
Q 5200 91 5247 156 
Q 5294 222 5358 530 
Q 5422 838 5481 1347 
Q 5913 1072 6300 909 
Q 6131 -263 5887 -561 
Q 5644 -859 5150 -859 
Q 4269 -859 3916 128 
Q 3563 1116 3409 3397 
L 100 3397 
L 100 4222 
z
M 375 2716 
L 3200 2716 
L 3200 1897 
L 2263 1897 
L 2263 681 
L 3500 866 
Q 3481 253 3488 -34 
L 200 -516 
L 94 416 
L 1369 566 
L 1369 1897 
L 375 1897 
L 375 2716 
z
" transform="scale(0.015625)"/>
     </defs>
     <use xlink:href="#MicrosoftYaHei-Bold-5199"/>
     <use xlink:href="#MicrosoftYaHei-Bold-516c" transform="translate(100 0)"/>
     <use xlink:href="#MicrosoftYaHei-Bold-5f0f" transform="translate(200 0)"/>
    </g>
   </g>
   <g id="text_2">
    <!-- 列出原始公式 -->
    <g style="fill: #ffffff; opacity: 0.9" transform="translate(378.96 435.46775) scale(0.1 -0.1)">
     <defs>
      <path id="MicrosoftYaHei-5217" d="M 1163 1953 
L 1469 2303 
Q 1944 1913 2334 1538 
Q 2753 2263 2925 3109 
L 1519 3109 
Q 1028 1984 313 1084 
Q 175 1403 63 1584 
Q 1006 2853 1516 4553 
L 269 4553 
L 269 5003 
L 3775 5003 
L 3775 4553 
L 2031 4553 
Q 1884 4038 1703 3559 
L 3438 3559 
L 3438 3103 
Q 2925 541 744 -853 
Q 581 -666 356 -472 
Q 1425 219 2069 1125 
Q 1713 1475 1163 1953 
z
M 5419 5228 
L 5919 5228 
L 5919 66 
Q 5919 -728 5200 -734 
Q 4856 -741 4181 -728 
Q 4150 -441 4081 -166 
Q 4725 -222 5031 -222 
Q 5419 -222 5419 197 
L 5419 5228 
z
M 4519 709 
L 4038 709 
L 4038 4534 
L 4519 4534 
L 4519 709 
z
" transform="scale(0.015625)"/>
      <path id="MicrosoftYaHei-51fa" d="M 5100 2172 
L 5100 2403 
L 3456 2403 
L 3456 -47 
L 5288 -47 
L 5288 1734 
L 5813 1734 
L 5813 -747 
L 5288 -747 
L 5288 -522 
L 588 -522 
L 588 1734 
L 1119 1734 
L 1119 -47 
L 2913 -47 
L 2913 2403 
L 756 2403 
L 756 4647 
L 1288 4647 
L 1288 2878 
L 2913 2878 
L 2913 5222 
L 3456 5222 
L 3456 2878 
L 5100 2878 
L 5100 4647 
L 5631 4647 
L 5631 2172 
L 5100 2172 
z
" transform="scale(0.015625)"/>
      <path id="MicrosoftYaHei-539f" d="M 1950 3853 
L 3081 3853 
Q 3200 4153 3306 4472 
L 1256 4472 
L 1256 2772 
Q 1256 1322 1088 634 
Q 919 -103 394 -866 
Q 238 -653 44 -434 
Q 475 209 613 834 
Q 756 1428 756 2659 
L 756 4928 
L 6219 4928 
L 6219 4472 
L 3856 4472 
Q 3716 4134 3584 3853 
L 5719 3853 
L 5719 1291 
L 5250 1291 
L 5250 1416 
L 4094 1416 
L 4094 16 
Q 4094 -772 3381 -766 
Q 3163 -766 2594 -753 
Q 2569 -516 2513 -209 
Q 3000 -272 3281 -272 
Q 3594 -272 3594 91 
L 3594 1416 
L 2419 1416 
L 2419 1291 
L 1950 1291 
L 1950 3853 
z
M 2419 1834 
L 5250 1834 
L 5250 2434 
L 2419 2434 
L 2419 1834 
z
M 5250 3434 
L 2419 3434 
L 2419 2841 
L 5250 2841 
L 5250 3434 
z
M 2488 1172 
L 2919 891 
Q 2313 -9 1613 -703 
Q 1450 -566 1206 -397 
Q 1838 184 2488 1172 
z
M 4925 1159 
Q 5738 391 6313 -266 
L 5894 -641 
Q 5294 122 4556 859 
L 4925 1159 
z
" transform="scale(0.015625)"/>
      <path id="MicrosoftYaHei-59cb" d="M 2838 1984 
L 5850 1984 
L 5850 -828 
L 5375 -828 
L 5375 -391 
L 3313 -391 
L 3313 -834 
L 2838 -834 
L 2838 1984 
z
M 2638 222 
L 2269 -191 
Q 1928 156 1588 484 
Q 1125 -184 381 -778 
Q 250 -584 94 -372 
Q 809 156 1244 809 
Q 797 1228 350 1616 
Q 572 2456 753 3497 
L 113 3497 
L 113 3966 
L 834 3966 
Q 934 4597 1025 5297 
L 1531 5222 
Q 1428 4544 1325 3966 
L 2488 3966 
L 2488 3503 
Q 2341 1828 1863 931 
Q 2288 559 2638 222 
z
M 5225 4484 
Q 5863 3478 6325 2522 
L 5831 2291 
Q 5700 2591 5559 2884 
Q 4572 2825 3200 2697 
Q 3025 2678 2756 2591 
L 2525 3041 
Q 2744 3172 2900 3391 
Q 3406 4147 3925 5334 
L 4450 5166 
Q 3881 4078 3319 3191 
Q 4569 3269 5350 3306 
Q 5097 3803 4819 4284 
L 5225 4484 
z
M 5375 1547 
L 3313 1547 
L 3313 34 
L 5375 34 
L 5375 1547 
z
M 2006 3497 
L 1241 3497 
Q 1044 2463 850 1778 
Q 1191 1503 1497 1247 
Q 1922 2119 2006 3497 
z
" transform="scale(0.015625)"/>
      <path id="MicrosoftYaHei-516c" d="M 4144 1591 
Q 5044 422 5663 -534 
L 5188 -847 
Q 5013 -559 4816 -250 
Q 2753 -350 1463 -453 
Q 1225 -478 888 -559 
L 613 -28 
Q 894 84 1131 316 
Q 1863 1159 2719 2809 
L 3256 2566 
Q 2481 1234 1600 78 
Q 2891 119 4522 194 
Q 4166 734 3738 1334 
L 4144 1591 
z
M 3606 4953 
L 4069 5134 
Q 4675 3503 6325 2547 
Q 6156 2372 5938 2059 
Q 4213 3247 3606 4953 
z
M 75 2366 
Q 1469 3503 2156 5047 
L 2650 4841 
Q 1806 3084 475 1966 
Q 313 2172 75 2366 
z
" transform="scale(0.015625)"/>
      <path id="MicrosoftYaHei-5f0f" d="M 94 4122 
L 3569 4122 
Q 3544 4700 3531 5347 
L 4063 5347 
Q 4059 4728 4081 4122 
L 6231 4122 
L 6231 3653 
L 4103 3653 
Q 4225 503 5156 -172 
Q 5494 -447 5631 -22 
Q 5725 303 5800 941 
Q 6094 834 6306 778 
Q 6188 47 6050 -403 
Q 5900 -834 5475 -834 
Q 5044 -834 4619 -397 
Q 3725 553 3597 3653 
L 94 3653 
L 94 4122 
z
M 119 159 
Q 825 244 1569 344 
L 1569 2097 
L 350 2097 
L 350 2566 
L 3288 2566 
L 3288 2097 
L 2081 2097 
L 2081 416 
Q 2809 519 3575 634 
Q 3563 391 3563 128 
Q 1681 -141 244 -366 
L 119 159 
z
M 4544 4978 
L 4844 5297 
Q 5294 4972 5756 4559 
L 5400 4191 
Q 5000 4597 4544 4978 
z
" transform="scale(0.015625)"/>
     </defs>
     <use xlink:href="#MicrosoftYaHei-5217"/>
     <use xlink:href="#MicrosoftYaHei-51fa" transform="translate(100 0)"/>
     <use xlink:href="#MicrosoftYaHei-539f" transform="translate(200 0)"/>
     <use xlink:href="#MicrosoftYaHei-59cb" transform="translate(300 0)"/>
     <use xlink:href="#MicrosoftYaHei-516c" transform="translate(400 0)"/>
     <use xlink:href="#MicrosoftYaHei-5f0f" transform="translate(500 0)"/>
    </g>
    <!-- 得 2 分 -->
    <g style="fill: #ffffff; opacity: 0.9" transform="translate(393.068594 448.345562) scale(0.1 -0.1)">
     <defs>
      <path id="MicrosoftYaHei-5f97" d="M 2531 5034 
L 5725 5034 
L 5725 2547 
L 5275 2547 
L 5275 2759 
L 2981 2759 
L 2981 2547 
L 2531 2547 
L 2531 5034 
z
M 1925 1322 
L 4925 1322 
L 4925 1834 
L 2188 1834 
L 2188 2247 
L 6163 2247 
L 6163 1834 
L 5400 1834 
L 5400 1322 
L 6313 1322 
L 6313 909 
L 5400 909 
L 5400 3 
Q 5400 -741 4650 -741 
Q 4313 -741 3719 -734 
Q 3688 -528 3625 -228 
Q 4038 -272 4538 -272 
Q 4925 -272 4925 122 
L 4925 909 
L 1925 909 
L 1925 1322 
z
M 81 1634 
Q 869 2378 1594 3684 
L 2031 3459 
Q 1750 2984 1469 2572 
L 1469 -834 
L 1000 -834 
L 1000 1928 
Q 653 1491 300 1134 
Q 206 1378 81 1634 
z
M 2981 3153 
L 5275 3153 
L 5275 3709 
L 2981 3709 
L 2981 3153 
z
M 5275 4641 
L 2981 4641 
L 2981 4091 
L 5275 4091 
L 5275 4641 
z
M 106 3578 
Q 988 4278 1594 5334 
L 2038 5078 
Q 1269 3928 363 3134 
Q 250 3353 106 3578 
z
M 2525 622 
L 2881 891 
Q 3244 509 3563 122 
L 3175 -159 
Q 2875 228 2525 622 
z
" transform="scale(0.015625)"/>
      <path id="MicrosoftYaHei-20" transform="scale(0.015625)"/>
      <path id="MicrosoftYaHei-32" d="M 2666 3572 
Q 2666 3963 2419 4186 
Q 2172 4409 1747 4409 
Q 1447 4409 1140 4256 
Q 834 4103 569 3819 
L 569 4413 
Q 806 4659 1107 4790 
Q 1409 4922 1816 4922 
Q 2472 4922 2872 4570 
Q 3272 4219 3272 3619 
Q 3272 3084 3026 2693 
Q 2781 2303 2188 1894 
Q 1581 1475 1376 1294 
Q 1172 1113 1090 947 
Q 1009 781 1009 544 
L 3416 544 
L 3416 0 
L 372 0 
L 372 241 
Q 372 659 486 951 
Q 600 1244 862 1520 
Q 1125 1797 1681 2184 
Q 2250 2584 2458 2886 
Q 2666 3188 2666 3572 
z
" transform="scale(0.015625)"/>
      <path id="MicrosoftYaHei-5206" d="M 900 2559 
L 5056 2559 
Q 5025 1497 4963 484 
Q 4888 -684 3856 -678 
Q 3350 -684 2788 -647 
Q 2750 -384 2700 -116 
Q 3181 -184 3775 -191 
Q 4400 -203 4463 541 
Q 4513 1216 4538 2097 
L 2616 2097 
Q 2541 1053 2181 416 
Q 1706 -422 588 -878 
Q 425 -666 231 -459 
Q 1269 -72 1725 666 
Q 2053 1225 2103 2097 
L 900 2097 
L 900 2559 
z
M 3488 5159 
L 3938 5353 
Q 4625 3678 6350 2847 
Q 6069 2553 5944 2372 
Q 4225 3366 3488 5159 
z
M 50 2766 
Q 1338 3678 2250 5253 
L 2694 5009 
Q 1744 3347 413 2341 
Q 281 2534 50 2766 
z
" transform="scale(0.015625)"/>
     </defs>
     <use xlink:href="#MicrosoftYaHei-5f97"/>
     <use xlink:href="#MicrosoftYaHei-20" transform="translate(100 0)"/>
     <use xlink:href="#MicrosoftYaHei-32" transform="translate(129.589844 0)"/>
     <use xlink:href="#MicrosoftYaHei-20" transform="translate(188.232422 0)"/>
     <use xlink:href="#MicrosoftYaHei-5206" transform="translate(217.822266 0)"/>
    </g>
   </g>
   <g id="text_3">
    <!-- 代数据 -->
    <g style="fill: #ffffff" transform="translate(1057.56 334.309469) scale(0.14 -0.14)">
     <defs>
      <path id="MicrosoftYaHei-Bold-4ee3" d="M 1469 5347 
L 2319 5078 
Q 2078 4359 1750 3691 
L 1750 -797 
L 931 -797 
L 931 2300 
Q 641 1884 313 1491 
Q 225 2041 88 2647 
Q 956 3797 1469 5347 
z
M 4869 5303 
Q 5444 4891 5950 4434 
Q 5600 4097 5369 3859 
Q 4844 4397 4344 4772 
L 4869 5303 
z
M 1975 3291 
L 3247 3441 
Q 3172 4288 3144 5284 
L 4013 5284 
Q 4016 4356 4088 3541 
L 6113 3784 
L 6188 3003 
L 4175 2750 
Q 4406 1206 4711 643 
Q 5016 81 5203 81 
Q 5263 81 5311 147 
Q 5359 213 5436 547 
Q 5513 881 5550 1222 
Q 5925 972 6319 797 
Q 6191 16 5970 -409 
Q 5750 -834 5275 -834 
Q 3756 -834 3334 2647 
L 2075 2491 
L 1975 3291 
z
" transform="scale(0.015625)"/>
      <path id="MicrosoftYaHei-Bold-6570" d="M 238 4091 
L 725 4091 
Q 559 4425 281 4803 
L 844 5153 
Q 1038 4922 1369 4428 
L 806 4091 
L 1506 4091 
L 1506 5316 
L 2300 5316 
L 2300 4091 
L 2956 4091 
L 2438 4428 
Q 2750 4809 2963 5172 
L 3550 4822 
Q 3341 4466 3031 4091 
L 3394 4091 
L 3394 3453 
L 2300 3453 
L 2300 3016 
L 2513 3303 
Q 2903 3094 3253 2891 
Q 3766 3841 4138 5347 
L 4994 5266 
Q 4869 4781 4728 4341 
L 6294 4341 
L 6294 3578 
L 6041 3578 
Q 5906 1922 5338 856 
Q 5738 391 6319 53 
Q 6094 -203 5775 -778 
Q 5228 -413 4828 109 
Q 4313 -497 3631 -872 
Q 3378 -513 3072 -197 
L 2850 -566 
Q 2475 -350 2031 -128 
Q 1347 -584 394 -778 
Q 281 -434 63 -9 
Q 716 59 1213 253 
Q 781 444 300 641 
Q 513 950 681 1259 
L 169 1259 
L 169 1897 
L 991 1897 
Q 1094 2144 1169 2391 
L 1506 2359 
L 1506 2959 
Q 1044 2472 344 2053 
Q 213 2472 50 2803 
Q 672 3044 1172 3453 
L 238 3453 
L 238 4091 
z
M 4394 3400 
Q 4519 2359 4831 1659 
Q 5203 2478 5275 3578 
L 4463 3578 
Q 4431 3488 4394 3400 
z
M 2300 2216 
L 1984 2216 
Q 1913 2063 1825 1897 
L 3281 1897 
L 3281 1316 
Q 3038 806 2672 413 
L 3294 166 
L 3169 -38 
Q 3859 322 4347 894 
Q 4041 1522 3878 2300 
Q 3769 2103 3656 1922 
Q 3513 2172 3322 2438 
L 3138 2159 
Q 2750 2422 2300 2691 
L 2300 2216 
z
M 1300 934 
L 1950 691 
Q 2231 934 2413 1259 
L 1484 1259 
L 1300 934 
z
" transform="scale(0.015625)"/>
      <path id="MicrosoftYaHei-Bold-636e" d="M 6294 1916 
L 4869 1916 
L 4869 1391 
L 5919 1391 
L 5919 -853 
L 5181 -853 
L 5181 -541 
L 3788 -541 
L 3788 -853 
L 3050 -853 
L 3050 1391 
L 4081 1391 
L 4081 1916 
L 2988 1916 
Q 2875 203 2188 -803 
Q 1925 -459 1625 -166 
Q 2250 928 2250 2803 
L 2250 5084 
L 6031 5084 
L 6031 3128 
L 4869 3128 
L 4869 2572 
L 6294 2572 
L 6294 1916 
z
M 169 4147 
L 763 4147 
L 763 5253 
L 1519 5253 
L 1519 4147 
L 2056 4147 
L 2056 3347 
L 1519 3347 
L 1519 2472 
Q 1788 2528 2088 2603 
Q 2056 2103 2063 1791 
Q 1788 1722 1519 1653 
L 1519 -59 
Q 1519 -753 950 -772 
Q 619 -803 313 -791 
Q 250 -422 131 22 
Q 338 16 550 9 
Q 763 3 763 309 
L 763 1459 
Q 463 1378 163 1303 
L 94 2166 
Q 375 2222 763 2303 
L 763 3347 
L 169 3347 
L 169 4147 
z
M 5263 3784 
L 5263 4428 
L 3013 4428 
L 3013 3784 
L 5263 3784 
z
M 5181 734 
L 3788 734 
L 3788 116 
L 5181 116 
L 5181 734 
z
M 4081 2572 
L 4081 3128 
L 3013 3128 
L 3013 2572 
L 4081 2572 
z
" transform="scale(0.015625)"/>
     </defs>
     <use xlink:href="#MicrosoftYaHei-Bold-4ee3"/>
     <use xlink:href="#MicrosoftYaHei-Bold-6570" transform="translate(100 0)"/>
     <use xlink:href="#MicrosoftYaHei-Bold-636e" transform="translate(200 0)"/>
    </g>
   </g>
   <g id="text_4">
    <!-- 代入数值和单位 -->
    <g style="fill: #ffffff; opacity: 0.9" transform="translate(1043.56 435.46775) scale(0.1 -0.1)">
     <defs>
      <path id="MicrosoftYaHei-4ee3" d="M 1850 3141 
L 3328 3303 
Q 3253 4097 3225 5284 
L 3769 5284 
Q 3756 4350 3847 3359 
L 6138 3609 
L 6194 3147 
L 3897 2894 
Q 4250 306 5256 -209 
Q 5531 -322 5613 -28 
Q 5731 416 5813 978 
Q 6075 866 6313 797 
Q 6219 191 6088 -278 
Q 5919 -822 5419 -809 
Q 4881 -791 4394 -166 
Q 3669 678 3384 2838 
L 1925 2678 
L 1850 3141 
z
M 38 2322 
Q 1013 3634 1581 5322 
L 2081 5147 
Q 1803 4419 1500 3794 
L 1500 -841 
L 988 -841 
L 988 2834 
Q 631 2238 250 1759 
Q 163 2016 38 2322 
z
M 4344 4791 
L 4669 5122 
Q 5219 4703 5794 4191 
L 5413 3803 
Q 4888 4341 4344 4791 
z
" transform="scale(0.015625)"/>
      <path id="MicrosoftYaHei-5165" d="M 1831 4947 
L 2244 5241 
Q 2944 4809 3781 3028 
Q 4950 472 6319 -91 
L 5881 -641 
Q 4513 172 3350 2784 
Q 3256 2994 3166 3184 
Q 2441 700 469 -678 
Q 300 -428 88 -209 
Q 2116 1069 2819 3834 
Q 2328 4653 1831 4947 
z
" transform="scale(0.015625)"/>
      <path id="MicrosoftYaHei-6570" d="M 4175 5303 
L 4675 5228 
Q 4544 4622 4369 4097 
L 6281 4097 
L 6281 3672 
L 5888 3672 
Q 5731 1834 5088 753 
Q 5594 66 6375 -372 
Q 6175 -647 6038 -866 
Q 5275 -372 4769 309 
Q 4194 -403 3400 -928 
Q 3263 -747 3044 -534 
Q 3919 41 4463 772 
Q 3956 1647 3794 2791 
Q 3663 2559 3519 2359 
Q 3394 2541 3206 2759 
Q 3931 3803 4175 5303 
z
M 150 1697 
L 1100 1697 
Q 1238 1934 1369 2184 
L 1819 2041 
Q 1719 1866 1619 1697 
L 3150 1697 
L 3150 1291 
Q 2913 678 2431 216 
Q 2775 53 3131 -109 
L 2856 -541 
Q 2469 -322 2050 -103 
Q 1344 -609 269 -903 
Q 169 -703 56 -466 
Q 969 -259 1600 128 
Q 1063 403 475 691 
Q 675 978 863 1284 
L 150 1284 
L 150 1697 
z
M 219 3847 
L 1656 3847 
L 1656 5247 
L 2119 5247 
L 2119 3847 
L 3319 3847 
L 3319 3434 
L 2119 3434 
L 2119 3053 
L 2306 3266 
Q 2888 2841 3281 2516 
L 2981 2166 
Q 2638 2491 2119 2897 
L 2119 2184 
L 1656 2184 
L 1656 3059 
Q 1088 2466 331 2016 
Q 213 2197 63 2397 
Q 850 2822 1506 3434 
L 219 3434 
L 219 3847 
z
M 5388 3672 
L 4219 3672 
Q 4188 3591 4150 3516 
Q 4263 2191 4775 1247 
Q 5275 2159 5388 3672 
z
M 1088 834 
Q 1531 634 2000 416 
Q 2431 784 2675 1284 
L 1375 1284 
Q 1231 1053 1088 834 
z
M 3038 5091 
L 3425 4834 
Q 3081 4384 2738 4003 
Q 2594 4128 2400 4266 
Q 2725 4647 3038 5091 
z
M 381 4816 
L 738 5059 
Q 1019 4716 1319 4322 
L 931 4047 
Q 656 4453 381 4816 
z
" transform="scale(0.015625)"/>
      <path id="MicrosoftYaHei-503c" d="M 1619 -216 
L 2250 -216 
L 2250 3653 
L 3725 3653 
L 3725 4222 
L 1913 4222 
L 1913 4647 
L 3725 4647 
L 3725 5309 
L 4200 5309 
L 4200 4647 
L 6169 4647 
L 6169 4222 
L 4200 4222 
L 4200 3653 
L 5713 3653 
L 5713 -216 
L 6306 -216 
L 6306 -641 
L 1619 -641 
L 1619 -216 
z
M 69 2247 
Q 906 3497 1369 5278 
L 1831 5141 
Q 1581 4334 1288 3628 
L 1288 -816 
L 831 -816 
L 831 2666 
Q 563 2166 263 1734 
Q 175 1997 69 2247 
z
M 2713 -216 
L 5250 -216 
L 5250 353 
L 2713 353 
L 2713 -216 
z
M 5250 3241 
L 2713 3241 
L 2713 2678 
L 5250 2678 
L 5250 3241 
z
M 2713 1716 
L 5250 1716 
L 5250 2278 
L 2713 2278 
L 2713 1716 
z
M 2713 753 
L 5250 753 
L 5250 1316 
L 2713 1316 
L 2713 753 
z
" transform="scale(0.015625)"/>
      <path id="MicrosoftYaHei-548c" d="M 3263 4553 
L 6025 4553 
L 6025 -666 
L 5525 -666 
L 5525 -59 
L 3763 -59 
L 3763 -666 
L 3263 -666 
L 3263 4553 
z
M 5525 4091 
L 3763 4091 
L 3763 391 
L 5525 391 
L 5525 4091 
z
M 75 897 
Q 788 1841 1206 2997 
L 113 2997 
L 113 3422 
L 1306 3422 
L 1306 4409 
Q 819 4334 319 4272 
Q 263 4478 181 4703 
Q 1481 4847 2700 5128 
L 2844 4691 
Q 2325 4584 1781 4491 
L 1781 3422 
L 2950 3422 
L 2950 2997 
L 1781 2997 
L 1781 2191 
L 2006 2416 
Q 2500 1991 2975 1516 
L 2619 1153 
Q 2244 1584 1781 2034 
L 1781 -872 
L 1306 -872 
L 1306 2128 
Q 938 1203 313 359 
Q 213 603 75 897 
z
" transform="scale(0.015625)"/>
      <path id="MicrosoftYaHei-5355" d="M 125 909 
L 2956 909 
L 2956 1616 
L 1225 1616 
L 1225 1322 
L 750 1322 
L 750 4353 
L 2047 4353 
Q 1747 4703 1400 5072 
L 1756 5366 
Q 2219 4922 2569 4547 
L 2338 4353 
L 3803 4353 
Q 4147 4809 4500 5347 
L 5000 5078 
Q 4678 4688 4378 4353 
L 5656 4353 
L 5656 1322 
L 5181 1322 
L 5181 1616 
L 3444 1616 
L 3444 909 
L 6275 909 
L 6275 459 
L 3444 459 
L 3444 -859 
L 2956 -859 
L 2956 459 
L 125 459 
L 125 909 
z
M 3444 2053 
L 5181 2053 
L 5181 2778 
L 3444 2778 
L 3444 2053 
z
M 1225 2053 
L 2956 2053 
L 2956 2778 
L 1225 2778 
L 1225 2053 
z
M 5181 3916 
L 3444 3916 
L 3444 3203 
L 5181 3203 
L 5181 3916 
z
M 1225 3203 
L 2956 3203 
L 2956 3916 
L 1225 3916 
L 1225 3203 
z
" transform="scale(0.015625)"/>
      <path id="MicrosoftYaHei-4f4d" d="M 1788 -59 
L 4228 -59 
Q 4678 1144 5269 3372 
L 5831 3203 
Q 5453 2044 4756 -59 
L 6319 -59 
L 6319 -522 
L 1788 -522 
L 1788 -59 
z
M 81 2291 
Q 975 3641 1431 5322 
L 1963 5191 
Q 1703 4397 1406 3709 
L 1406 -853 
L 938 -853 
L 938 2731 
Q 644 2181 319 1716 
Q 231 1953 81 2291 
z
M 1919 4191 
L 4122 4191 
Q 3844 4659 3506 5059 
L 3931 5353 
Q 4206 5034 4613 4497 
L 4150 4191 
L 6206 4191 
L 6206 3728 
L 1919 3728 
L 1919 4191 
z
M 2769 3309 
Q 3181 2184 3669 584 
L 3150 434 
Q 2725 1966 2294 3147 
L 2769 3309 
z
" transform="scale(0.015625)"/>
     </defs>
     <use xlink:href="#MicrosoftYaHei-4ee3"/>
     <use xlink:href="#MicrosoftYaHei-5165" transform="translate(100 0)"/>
     <use xlink:href="#MicrosoftYaHei-6570" transform="translate(200 0)"/>
     <use xlink:href="#MicrosoftYaHei-503c" transform="translate(300 0)"/>
     <use xlink:href="#MicrosoftYaHei-548c" transform="translate(400 0)"/>
     <use xlink:href="#MicrosoftYaHei-5355" transform="translate(500 0)"/>
     <use xlink:href="#MicrosoftYaHei-4f4d" transform="translate(600 0)"/>
    </g>
    <!-- 得 2 分 -->
    <g style="fill: #ffffff; opacity: 0.9" transform="translate(1062.668594 448.345562) scale(0.1 -0.1)">
     <use xlink:href="#MicrosoftYaHei-5f97"/>
     <use xlink:href="#MicrosoftYaHei-20" transform="translate(100 0)"/>
     <use xlink:href="#MicrosoftYaHei-32" transform="translate(129.589844 0)"/>
     <use xlink:href="#MicrosoftYaHei-20" transform="translate(188.232422 0)"/>
     <use xlink:href="#MicrosoftYaHei-5206" transform="translate(217.822266 0)"/>
    </g>
   </g>
   <g id="text_5">
    <!-- 算结果 -->
    <g style="fill: #ffffff" transform="translate(1727.16 334.309469) scale(0.14 -0.14)">
     <defs>
      <path id="MicrosoftYaHei-Bold-7b97" d="M 100 697 
L 1575 697 
Q 1603 844 1613 1003 
L 706 1003 
L 706 3694 
Q 572 3581 431 3478 
Q 325 3803 75 4228 
Q 700 4634 1119 5341 
L 2006 5341 
Q 1888 5122 1759 4922 
L 3113 4922 
L 3113 4381 
Q 3563 4788 3800 5347 
L 4619 5347 
Q 4541 5125 4450 4922 
L 6213 4922 
L 6213 4347 
L 5338 4347 
L 5513 3972 
L 4738 3816 
L 5719 3816 
L 5719 1003 
L 4906 1003 
L 4906 697 
L 6300 697 
L 6300 97 
L 4906 97 
L 4906 -809 
L 4081 -809 
L 4081 97 
L 2281 97 
Q 2050 -534 1388 -897 
Q 994 -616 581 -384 
Q 1031 -209 1291 97 
L 100 97 
L 100 697 
z
M 2575 3972 
L 1800 3816 
L 3519 3816 
Q 3203 4013 2856 4178 
Q 2969 4259 3069 4347 
L 2403 4347 
Q 2494 4156 2575 3972 
z
M 3694 3816 
L 4703 3816 
Q 4603 4106 4484 4347 
L 4131 4347 
Q 3934 4056 3694 3816 
z
M 841 3816 
L 1766 3816 
Q 1703 4031 1572 4347 
L 1344 4347 
Q 1106 4059 841 3816 
z
M 4900 3303 
L 1525 3303 
L 1525 2991 
L 4900 2991 
L 4900 3303 
z
M 1525 2253 
L 4900 2253 
L 4900 2566 
L 1525 2566 
L 1525 2253 
z
M 4900 1516 
L 4900 1828 
L 1525 1828 
L 1525 1516 
L 4900 1516 
z
M 2406 697 
L 4081 697 
L 4081 1003 
L 2428 1003 
Q 2425 856 2406 697 
z
" transform="scale(0.015625)"/>
      <path id="MicrosoftYaHei-Bold-7ed3" d="M 2538 3128 
L 3850 3128 
L 3850 3809 
L 2472 3809 
L 2681 3709 
Q 1906 2528 1350 1784 
Q 1800 1841 2313 1891 
Q 2275 1466 2263 1116 
Q 894 966 400 834 
L 156 1534 
Q 553 1884 1100 2697 
Q 631 2663 288 2616 
L 56 3328 
Q 550 3934 1138 5366 
L 1963 5059 
Q 1469 4134 988 3397 
L 1563 3425 
L 1938 4066 
L 2350 3869 
L 2350 4553 
L 3850 4553 
L 3850 5341 
L 4725 5341 
L 4725 4553 
L 6288 4553 
L 6288 3809 
L 4725 3809 
L 4725 3128 
L 6100 3128 
L 6100 2384 
L 2538 2384 
L 2538 3128 
z
M 2594 -841 
L 2594 1847 
L 6025 1847 
L 6025 -841 
L 5188 -841 
L 5188 -472 
L 3431 -472 
L 3431 -841 
L 2594 -841 
z
M 5188 1084 
L 3431 1084 
L 3431 291 
L 5188 291 
L 5188 1084 
z
M 231 -516 
L 94 359 
Q 1175 497 2406 684 
Q 2369 159 2375 -184 
Q 1263 -341 231 -516 
z
" transform="scale(0.015625)"/>
      <path id="MicrosoftYaHei-Bold-679c" d="M 225 1753 
L 2788 1753 
L 2788 2178 
L 788 2178 
L 788 5091 
L 5638 5091 
L 5638 2178 
L 3638 2178 
L 3638 1753 
L 6181 1753 
L 6181 978 
L 4197 978 
Q 5197 353 6338 178 
Q 6100 -291 5975 -659 
Q 4516 -222 3638 663 
L 3638 -841 
L 2788 -841 
L 2788 616 
Q 1991 -172 581 -691 
Q 388 -316 150 91 
Q 1481 384 2269 978 
L 225 978 
L 225 1753 
z
M 4800 4416 
L 3638 4416 
L 3638 3972 
L 4800 3972 
L 4800 4416 
z
M 1625 3972 
L 2788 3972 
L 2788 4416 
L 1625 4416 
L 1625 3972 
z
M 4800 2853 
L 4800 3297 
L 3638 3297 
L 3638 2853 
L 4800 2853 
z
M 1625 2853 
L 2788 2853 
L 2788 3297 
L 1625 3297 
L 1625 2853 
z
" transform="scale(0.015625)"/>
     </defs>
     <use xlink:href="#MicrosoftYaHei-Bold-7b97"/>
     <use xlink:href="#MicrosoftYaHei-Bold-7ed3" transform="translate(100 0)"/>
     <use xlink:href="#MicrosoftYaHei-Bold-679c" transform="translate(200 0)"/>
    </g>
   </g>
   <g id="text_6">
    <!-- 正确算出 -->
    <g style="fill: #ffffff; opacity: 0.9" transform="translate(1728.16 435.46775) scale(0.1 -0.1)">
     <defs>
      <path id="MicrosoftYaHei-6b63" d="M 88 66 
L 1106 66 
L 1106 3416 
L 1644 3416 
L 1644 66 
L 3231 66 
L 3231 4309 
L 375 4309 
L 375 4797 
L 6063 4797 
L 6063 4309 
L 3769 4309 
L 3769 2672 
L 5850 2672 
L 5850 2191 
L 3769 2191 
L 3769 66 
L 6313 66 
L 6313 -422 
L 88 -422 
L 88 66 
z
" transform="scale(0.015625)"/>
      <path id="MicrosoftYaHei-786e" d="M 2075 3453 
Q 2956 4334 3456 5359 
L 3931 5272 
Q 3781 4991 3619 4722 
L 5438 4722 
L 5438 4328 
L 4909 3666 
L 6063 3666 
L 6063 -53 
Q 6063 -728 5475 -728 
Q 5144 -728 4906 -716 
Q 4869 -497 4813 -259 
Q 5156 -291 5331 -291 
Q 5619 -291 5619 16 
L 5619 734 
L 4588 734 
L 4588 -659 
L 4144 -659 
L 4144 734 
L 3113 734 
Q 2944 -263 2444 -884 
Q 2288 -703 2081 -509 
Q 2756 291 2756 1841 
L 2756 3506 
Q 2597 3316 2431 3134 
Q 2281 3278 2075 3453 
z
M 31 1691 
Q 741 2834 1066 4291 
L 231 4291 
L 231 4716 
L 2469 4716 
L 2469 4291 
L 1509 4291 
Q 1356 3613 1128 2991 
L 2200 2991 
L 2200 128 
L 1150 128 
L 1150 -347 
L 738 -347 
L 738 2059 
Q 559 1691 350 1347 
Q 225 1497 31 1691 
z
M 1788 541 
L 1788 2578 
L 1150 2578 
L 1150 541 
L 1788 541 
z
M 4875 4322 
L 3366 4322 
Q 3138 3981 2884 3666 
L 4384 3666 
L 4875 4322 
z
M 4588 1134 
L 5619 1134 
L 5619 1991 
L 4588 1991 
L 4588 1134 
z
M 5619 3241 
L 4588 3241 
L 4588 2391 
L 5619 2391 
L 5619 3241 
z
M 3166 1134 
L 4144 1134 
L 4144 1991 
L 3200 1991 
Q 3200 1841 3166 1134 
z
M 3200 2391 
L 4144 2391 
L 4144 3241 
L 3200 3241 
L 3200 2391 
z
" transform="scale(0.015625)"/>
      <path id="MicrosoftYaHei-7b97" d="M 969 3728 
L 2006 3728 
Q 1775 4016 1544 4266 
L 1769 4428 
L 1244 4428 
Q 875 3963 400 3566 
Q 263 3722 88 3884 
Q 856 4484 1300 5347 
L 1831 5347 
Q 1684 5059 1506 4791 
L 3325 4791 
L 3325 4428 
L 1919 4428 
Q 2144 4200 2369 3953 
L 2072 3728 
L 4953 3728 
Q 4716 4003 4425 4266 
L 4641 4428 
L 4019 4428 
Q 3772 4050 3506 3753 
Q 3344 3897 3125 4047 
Q 3656 4603 4000 5347 
L 4538 5347 
Q 4394 5053 4244 4791 
L 6225 4791 
L 6225 4428 
L 4800 4428 
Q 5069 4206 5294 3972 
L 4991 3728 
L 5475 3728 
L 5475 916 
L 5038 916 
L 5038 1122 
L 1406 1122 
L 1406 916 
L 969 916 
L 969 3728 
z
M 150 609 
L 1850 609 
Q 1875 788 1875 1003 
L 2331 1003 
Q 2331 794 2309 609 
L 4356 609 
L 4356 997 
L 4819 997 
L 4819 609 
L 6300 609 
L 6300 222 
L 4819 222 
L 4819 -828 
L 4356 -828 
L 4356 222 
L 2244 222 
Q 2019 -619 763 -884 
Q 644 -691 488 -472 
Q 1525 -297 1756 222 
L 150 222 
L 150 609 
z
M 5038 3378 
L 1406 3378 
L 1406 2959 
L 5038 2959 
L 5038 3378 
z
M 1406 1472 
L 5038 1472 
L 5038 1891 
L 1406 1891 
L 1406 1472 
z
M 1406 2216 
L 5038 2216 
L 5038 2634 
L 1406 2634 
L 1406 2216 
z
" transform="scale(0.015625)"/>
     </defs>
     <use xlink:href="#MicrosoftYaHei-6b63"/>
     <use xlink:href="#MicrosoftYaHei-786e" transform="translate(100 0)"/>
     <use xlink:href="#MicrosoftYaHei-7b97" transform="translate(200 0)"/>
     <use xlink:href="#MicrosoftYaHei-51fa" transform="translate(300 0)"/>
    </g>
    <!-- 得 1 分 -->
    <g style="fill: #ffffff; opacity: 0.9" transform="translate(1732.268594 448.345562) scale(0.1 -0.1)">
     <defs>
      <path id="MicrosoftYaHei-31" d="M 1781 0 
L 1781 4141 
Q 1638 3997 1295 3819 
Q 953 3641 663 3569 
L 663 4169 
Q 1047 4275 1484 4508 
Q 1922 4741 2156 4947 
L 2388 4947 
L 2388 0 
L 1781 0 
z
" transform="scale(0.015625)"/>
     </defs>
     <use xlink:href="#MicrosoftYaHei-5f97"/>
     <use xlink:href="#MicrosoftYaHei-20" transform="translate(100 0)"/>
     <use xlink:href="#MicrosoftYaHei-31" transform="translate(129.589844 0)"/>
     <use xlink:href="#MicrosoftYaHei-20" transform="translate(188.232422 0)"/>
     <use xlink:href="#MicrosoftYaHei-5206" transform="translate(217.822266 0)"/>
    </g>
   </g>
   <g id="text_7">
    <!-- 写单位 -->
    <g style="fill: #ffffff" transform="translate(2396.76 334.309469) scale(0.14 -0.14)">
     <defs>
      <path id="MicrosoftYaHei-Bold-5355" d="M 606 4403 
L 1750 4403 
Q 1534 4713 1306 5003 
L 2056 5341 
L 2706 4578 
L 2313 4403 
L 3569 4403 
Q 3944 4884 4244 5353 
L 5188 5016 
Q 4969 4781 4628 4403 
L 5806 4403 
L 5806 1297 
L 3644 1297 
L 3644 866 
L 6288 866 
L 6288 97 
L 3644 97 
L 3644 -834 
L 2769 -834 
L 2769 97 
L 113 97 
L 113 866 
L 2769 866 
L 2769 1297 
L 606 1297 
L 606 4403 
z
M 4981 3678 
L 3644 3678 
L 3644 3172 
L 4981 3172 
L 4981 3678 
z
M 1431 3172 
L 2769 3172 
L 2769 3678 
L 1431 3678 
L 1431 3172 
z
M 4981 2022 
L 4981 2528 
L 3644 2528 
L 3644 2022 
L 4981 2022 
z
M 1431 2022 
L 2769 2022 
L 2769 2528 
L 1431 2528 
L 1431 2022 
z
" transform="scale(0.015625)"/>
      <path id="MicrosoftYaHei-Bold-4f4d" d="M 2075 4297 
L 3725 4297 
Q 3584 4663 3381 5103 
L 4281 5347 
Q 4513 4878 4706 4428 
L 4213 4297 
L 6106 4297 
L 6106 3491 
L 2075 3491 
L 2075 4297 
z
M 1363 5297 
L 2163 5053 
Q 1919 4388 1669 3791 
L 1669 -866 
L 831 -866 
L 831 2050 
Q 597 1628 356 1259 
Q 263 1709 81 2328 
Q 719 3384 1363 5297 
z
M 1944 234 
L 4047 234 
Q 4566 1672 4925 3266 
L 5906 2991 
Q 5756 2584 4938 234 
L 6319 234 
L 6319 -572 
L 1944 -572 
L 1944 234 
z
M 3075 3228 
Q 3313 2597 3913 834 
L 3056 559 
Q 2619 2066 2288 2972 
L 3075 3228 
z
" transform="scale(0.015625)"/>
     </defs>
     <use xlink:href="#MicrosoftYaHei-Bold-5199"/>
     <use xlink:href="#MicrosoftYaHei-Bold-5355" transform="translate(100 0)"/>
     <use xlink:href="#MicrosoftYaHei-Bold-4f4d" transform="translate(200 0)"/>
    </g>
   </g>
   <g id="text_8">
    <!-- 结果加单位 -->
    <g style="fill: #ffffff; opacity: 0.9" transform="translate(2392.76 435.46775) scale(0.1 -0.1)">
     <defs>
      <path id="MicrosoftYaHei-7ed3" d="M 2625 1709 
L 5925 1709 
L 5925 -828 
L 5438 -828 
L 5438 -441 
L 3113 -441 
L 3113 -828 
L 2625 -828 
L 2625 1709 
z
M 2500 2897 
L 4025 2897 
L 4025 3872 
L 2294 3872 
L 2294 4322 
L 4025 4322 
L 4025 5322 
L 4525 5322 
L 4525 4322 
L 6275 4322 
L 6275 3872 
L 4525 3872 
L 4525 2897 
L 6056 2897 
L 6056 2447 
L 2500 2447 
L 2500 2897 
z
M 894 1566 
Q 1725 1684 2269 1778 
Q 2231 1534 2213 1303 
Q 1519 1203 319 1009 
L 219 1472 
Q 619 1888 1172 2791 
Q 647 2756 219 2722 
L 100 3147 
Q 675 3916 1294 5366 
L 1769 5178 
Q 1094 3853 663 3184 
Q 1025 3194 1419 3206 
Q 1631 3569 1863 3997 
L 2325 3766 
Q 1613 2578 894 1566 
z
M 5438 1272 
L 3113 1272 
L 3113 -3 
L 5438 -3 
L 5438 1272 
z
M 75 91 
Q 1231 316 2331 584 
Q 2313 334 2313 109 
Q 1300 -103 213 -391 
L 75 91 
z
" transform="scale(0.015625)"/>
      <path id="MicrosoftYaHei-679c" d="M 6338 -53 
Q 6100 -309 5944 -522 
Q 4425 -41 3438 1181 
L 3438 -841 
L 2963 -841 
L 2963 1188 
Q 2084 172 450 -603 
Q 300 -416 75 -203 
Q 1550 363 2472 1259 
L 213 1259 
L 213 1709 
L 2963 1709 
L 2963 2384 
L 1306 2384 
L 1306 2141 
L 831 2141 
L 831 5016 
L 5569 5016 
L 5569 2141 
L 5094 2141 
L 5094 2384 
L 3438 2384 
L 3438 1709 
L 6200 1709 
L 6200 1259 
L 3856 1259 
Q 4769 294 6338 -53 
z
M 3438 2809 
L 5094 2809 
L 5094 3497 
L 3438 3497 
L 3438 2809 
z
M 5094 4591 
L 3438 4591 
L 3438 3903 
L 5094 3903 
L 5094 4591 
z
M 1306 2809 
L 2963 2809 
L 2963 3497 
L 1306 3497 
L 1306 2809 
z
M 1306 3903 
L 2963 3903 
L 2963 4591 
L 1306 4591 
L 1306 3903 
z
" transform="scale(0.015625)"/>
      <path id="MicrosoftYaHei-52a0" d="M 3663 4484 
L 6038 4484 
L 6038 -666 
L 5544 -666 
L 5544 -34 
L 4156 -34 
L 4156 -666 
L 3663 -666 
L 3663 4484 
z
M 231 4178 
L 1103 4178 
Q 1109 4681 1106 5297 
L 1600 5297 
Q 1600 4675 1594 4178 
L 3050 4178 
Q 3019 1778 2969 409 
Q 2944 -716 2119 -672 
Q 1875 -672 1400 -653 
Q 1356 -391 1300 -109 
Q 1738 -166 2013 -166 
Q 2431 -178 2469 428 
Q 2538 1909 2550 3703 
L 1588 3703 
Q 1581 3225 1569 2891 
Q 1544 447 394 -872 
Q 238 -678 25 -453 
Q 1063 684 1081 2941 
Q 1094 3269 1100 3703 
L 231 3703 
L 231 4178 
z
M 5544 4022 
L 4156 4022 
L 4156 416 
L 5544 416 
L 5544 4022 
z
" transform="scale(0.015625)"/>
     </defs>
     <use xlink:href="#MicrosoftYaHei-7ed3"/>
     <use xlink:href="#MicrosoftYaHei-679c" transform="translate(100 0)"/>
     <use xlink:href="#MicrosoftYaHei-52a0" transform="translate(200 0)"/>
     <use xlink:href="#MicrosoftYaHei-5355" transform="translate(300 0)"/>
     <use xlink:href="#MicrosoftYaHei-4f4d" transform="translate(400 0)"/>
    </g>
    <!-- 得 0.5 分 -->
    <g style="fill: #ffffff; opacity: 0.9" transform="translate(2397.732656 448.345562) scale(0.1 -0.1)">
     <defs>
      <path id="MicrosoftYaHei-30" d="M 284 2325 
Q 284 3606 709 4264 
Q 1134 4922 1941 4922 
Q 3478 4922 3478 2441 
Q 3478 1216 3045 567 
Q 2613 -81 1831 -81 
Q 1094 -81 689 534 
Q 284 1150 284 2325 
z
M 909 2353 
Q 909 425 1888 425 
Q 2850 425 2850 2384 
Q 2850 4413 1906 4413 
Q 909 4413 909 2353 
z
" transform="scale(0.015625)"/>
      <path id="MicrosoftYaHei-2e" d="M 372 322 
Q 372 491 487 606 
Q 603 722 775 722 
Q 950 722 1065 605 
Q 1181 488 1181 322 
Q 1181 159 1065 42 
Q 950 -75 772 -75 
Q 600 -75 486 42 
Q 372 159 372 322 
z
" transform="scale(0.015625)"/>
      <path id="MicrosoftYaHei-35" d="M 3294 1494 
Q 3294 784 2823 350 
Q 2353 -84 1559 -84 
Q 878 -84 544 119 
L 544 744 
Q 1034 425 1544 425 
Q 2050 425 2361 704 
Q 2672 984 2672 1447 
Q 2672 1909 2348 2167 
Q 2025 2425 1434 2425 
Q 978 2425 613 2384 
L 791 4841 
L 3053 4841 
L 3053 4303 
L 1306 4303 
L 1206 2931 
L 1647 2950 
Q 2416 2950 2855 2567 
Q 3294 2184 3294 1494 
z
" transform="scale(0.015625)"/>
     </defs>
     <use xlink:href="#MicrosoftYaHei-5f97"/>
     <use xlink:href="#MicrosoftYaHei-20" transform="translate(100 0)"/>
     <use xlink:href="#MicrosoftYaHei-30" transform="translate(129.589844 0)"/>
     <use xlink:href="#MicrosoftYaHei-2e" transform="translate(188.232422 0)"/>
     <use xlink:href="#MicrosoftYaHei-35" transform="translate(212.304688 0)"/>
     <use xlink:href="#MicrosoftYaHei-20" transform="translate(270.947266 0)"/>
     <use xlink:href="#MicrosoftYaHei-5206" transform="translate(300.537109 0)"/>
    </g>
   </g>
   <g id="text_9">
    <!-- 作答 -->
    <g style="fill: #ffffff" transform="translate(3073.36 334.309469) scale(0.14 -0.14)">
     <defs>
      <path id="MicrosoftYaHei-Bold-4f5c" d="M 5944 1984 
L 4250 1984 
L 4250 1216 
L 6088 1216 
L 6088 428 
L 4250 428 
L 4250 -834 
L 3369 -834 
L 3369 3541 
L 3184 3541 
Q 2800 2681 2313 2041 
Q 2131 2384 1831 2853 
Q 2544 3922 2944 5328 
L 3756 5134 
Q 3638 4722 3506 4347 
L 6300 4347 
L 6300 3541 
L 4250 3541 
L 4250 2772 
L 5944 2772 
L 5944 1984 
z
M 1319 5291 
L 2156 5047 
Q 1956 4419 1706 3828 
L 1706 -828 
L 856 -828 
L 856 2163 
Q 600 1744 313 1347 
Q 244 1828 100 2509 
Q 856 3703 1319 5291 
z
" transform="scale(0.015625)"/>
      <path id="MicrosoftYaHei-Bold-7b54" d="M 6213 4197 
L 4969 4197 
Q 5322 3919 5669 3566 
L 5081 3059 
Q 4700 3453 4350 3772 
L 4903 4197 
L 4241 4197 
Q 4047 3897 3797 3606 
Q 4653 2716 6313 2372 
Q 6019 1922 5806 1559 
Q 5216 1766 4700 2034 
L 4700 1741 
L 1713 1741 
L 1713 2041 
Q 1203 1781 588 1553 
Q 413 1847 88 2291 
Q 2106 2816 2913 3841 
L 3263 3841 
L 3069 3984 
Q 3550 4528 3900 5347 
L 4763 5347 
Q 4691 5088 4581 4834 
L 6213 4834 
L 6213 4197 
z
M 3238 3084 
Q 2856 2709 2319 2378 
L 4119 2378 
Q 3638 2697 3238 3084 
z
M 3231 4197 
L 2047 4197 
Q 2353 3878 2550 3634 
L 1938 3153 
Q 1681 3509 1431 3828 
L 1931 4197 
L 1556 4197 
Q 1169 3569 625 3084 
Q 413 3378 100 3728 
Q 844 4422 1219 5347 
L 2094 5347 
Q 2003 5081 1894 4834 
L 3231 4834 
L 3231 4197 
z
M 1019 -872 
L 1019 1416 
L 5394 1416 
L 5394 -866 
L 4544 -866 
L 4544 -566 
L 1869 -566 
L 1869 -872 
L 1019 -872 
z
M 4544 703 
L 1869 703 
L 1869 147 
L 4544 147 
L 4544 703 
z
" transform="scale(0.015625)"/>
     </defs>
     <use xlink:href="#MicrosoftYaHei-Bold-4f5c"/>
     <use xlink:href="#MicrosoftYaHei-Bold-7b54" transform="translate(100 0)"/>
    </g>
   </g>
   <g id="text_10">
    <!-- 写答:... -->
    <g style="fill: #ffffff; opacity: 0.9" transform="translate(3072.544375 435.46775) scale(0.1 -0.1)">
     <defs>
      <path id="MicrosoftYaHei-5199" d="M 1125 1853 
L 1125 2303 
L 1550 4303 
L 2075 4303 
L 1922 3559 
L 5588 3559 
L 5588 3097 
L 1828 3097 
L 1669 2322 
L 5750 2322 
Q 5688 1016 5606 172 
Q 5500 -722 4550 -728 
Q 3956 -728 3194 -697 
Q 3163 -447 3106 -153 
Q 3781 -228 4456 -228 
Q 5019 -228 5100 272 
Q 5163 872 5206 1853 
L 1125 1853 
z
M 369 4959 
L 6038 4959 
L 6038 3784 
L 5525 3784 
L 5525 4491 
L 881 4491 
L 881 3784 
L 369 3784 
L 369 4959 
z
M 113 1072 
L 4725 1072 
L 4725 609 
L 113 609 
L 113 1072 
z
" transform="scale(0.015625)"/>
      <path id="MicrosoftYaHei-7b54" d="M 1206 1247 
L 5206 1247 
L 5206 -834 
L 4719 -834 
L 4719 -447 
L 1694 -447 
L 1694 -847 
L 1206 -847 
L 1206 1247 
z
M 3419 3722 
Q 4450 2559 6350 2034 
Q 6169 1766 6044 1547 
Q 5313 1809 4700 2153 
L 4700 1778 
L 1713 1778 
L 1713 2138 
Q 1078 1763 319 1453 
Q 188 1684 44 1884 
Q 2038 2622 2963 3722 
L 3419 3722 
z
M 4719 809 
L 1694 809 
L 1694 -9 
L 4719 -9 
L 4719 809 
z
M 1319 5353 
L 1863 5353 
Q 1734 5022 1581 4716 
L 3394 4716 
L 3394 4284 
L 1347 4284 
Q 963 3641 450 3116 
Q 275 3303 88 3472 
Q 894 4259 1319 5353 
z
M 4006 5353 
L 4544 5353 
Q 4444 5019 4319 4716 
L 6275 4716 
L 6275 4284 
L 4113 4284 
Q 3916 3913 3669 3591 
Q 3481 3753 3263 3909 
Q 3800 4584 4006 5353 
z
M 3206 3272 
Q 2606 2678 1800 2191 
L 4634 2191 
Q 3809 2659 3206 3272 
z
M 4969 3159 
Q 4731 3553 4406 3966 
L 4788 4203 
Q 5131 3803 5381 3416 
L 4969 3159 
z
M 2013 3234 
Q 1800 3597 1513 3984 
L 1869 4203 
Q 2163 3847 2406 3497 
L 2013 3234 
z
" transform="scale(0.015625)"/>
      <path id="MicrosoftYaHei-3a" d="M 372 3134 
Q 372 3303 490 3415 
Q 609 3528 775 3528 
Q 944 3528 1062 3414 
Q 1181 3300 1181 3134 
Q 1181 2969 1065 2853 
Q 950 2738 772 2738 
Q 603 2738 487 2853 
Q 372 2969 372 3134 
z
M 372 322 
Q 372 491 487 606 
Q 603 722 775 722 
Q 950 722 1065 605 
Q 1181 488 1181 322 
Q 1181 159 1065 42 
Q 950 -75 772 -75 
Q 600 -75 486 42 
Q 372 159 372 322 
z
" transform="scale(0.015625)"/>
     </defs>
     <use xlink:href="#MicrosoftYaHei-5199"/>
     <use xlink:href="#MicrosoftYaHei-7b54" transform="translate(100 0)"/>
     <use xlink:href="#MicrosoftYaHei-3a" transform="translate(200 0)"/>
     <use xlink:href="#MicrosoftYaHei-2e" transform="translate(224.072266 0)"/>
     <use xlink:href="#MicrosoftYaHei-2e" transform="translate(248.144531 0)"/>
     <use xlink:href="#MicrosoftYaHei-2e" transform="translate(272.216797 0)"/>
    </g>
    <!-- 得 0.5 分 -->
    <g style="fill: #ffffff; opacity: 0.9" transform="translate(3067.332656 448.345562) scale(0.1 -0.1)">
     <use xlink:href="#MicrosoftYaHei-5f97"/>
     <use xlink:href="#MicrosoftYaHei-20" transform="translate(100 0)"/>
     <use xlink:href="#MicrosoftYaHei-30" transform="translate(129.589844 0)"/>
     <use xlink:href="#MicrosoftYaHei-2e" transform="translate(188.232422 0)"/>
     <use xlink:href="#MicrosoftYaHei-35" transform="translate(212.304688 0)"/>
     <use xlink:href="#MicrosoftYaHei-20" transform="translate(270.947266 0)"/>
     <use xlink:href="#MicrosoftYaHei-5206" transform="translate(300.537109 0)"/>
    </g>
   </g>
   <g id="text_11">
    <!-- 即使算不出最终结果 -->
    <g style="fill: #2c3e50" transform="translate(141.12 117.01) scale(0.11 -0.11)">
     <defs>
      <path id="MicrosoftYaHei-Bold-5373" d="M 3456 66 
L 2731 -334 
L 2500 128 
Q 1197 -341 650 -622 
L 250 9 
Q 450 234 450 647 
L 450 5091 
L 3200 5091 
L 3200 1728 
L 2519 1728 
Q 3016 906 3456 66 
z
M 2400 4316 
L 1263 4316 
L 1263 3759 
L 2400 3759 
L 2400 4316 
z
M 2400 2503 
L 2400 3059 
L 1263 3059 
L 1263 2503 
L 2400 2503 
z
M 1844 1416 
L 2413 1728 
L 1263 1728 
L 1263 447 
L 2175 772 
L 1844 1416 
z
M 3525 4941 
L 6000 4941 
L 6000 1047 
Q 6000 613 5831 388 
Q 5663 163 5358 145 
Q 5053 128 4488 134 
Q 4431 634 4363 972 
Q 4722 934 4956 934 
Q 5188 934 5188 1209 
L 5188 4141 
L 4338 4141 
L 4338 -797 
L 3525 -797 
L 3525 4941 
z
" transform="scale(0.015625)"/>
      <path id="MicrosoftYaHei-Bold-4f7f" d="M 2138 997 
L 2663 1409 
L 2075 1409 
L 2075 3516 
L 3600 3516 
L 3600 3997 
L 1894 3997 
L 1894 4716 
L 3600 4716 
L 3600 5303 
L 4431 5303 
L 4431 4716 
L 6213 4716 
L 6213 3997 
L 4431 3997 
L 4431 3516 
L 5969 3516 
L 5969 1153 
L 5169 1153 
L 5169 1409 
L 4419 1409 
Q 4381 778 4219 403 
Q 5088 109 6306 78 
Q 6013 -509 5863 -822 
Q 4606 -691 3675 -234 
Q 3175 -572 2144 -884 
Q 1975 -603 1675 -159 
Q 2494 22 2919 228 
Q 2481 559 2138 997 
z
M 1150 5291 
L 1981 5084 
Q 1800 4397 1550 3734 
L 1550 -872 
L 769 -872 
L 769 2022 
Q 550 1616 306 1228 
Q 238 1803 100 2416 
Q 806 3734 1150 5291 
z
M 5169 2103 
L 5169 2822 
L 4431 2822 
L 4431 2103 
L 5169 2103 
z
M 2875 2103 
L 3600 2103 
L 3600 2822 
L 2875 2822 
L 2875 2103 
z
M 3463 747 
Q 3563 1003 3594 1409 
L 2713 1409 
Q 3006 1022 3463 747 
z
" transform="scale(0.015625)"/>
      <path id="MicrosoftYaHei-Bold-4e0d" d="M 350 4928 
L 6088 4928 
L 6088 4078 
L 3866 4078 
Q 3659 3556 3375 3072 
L 3675 3072 
L 3675 2341 
L 4300 2928 
Q 5144 2178 6338 1078 
L 5606 359 
Q 4809 1284 3675 2316 
L 3675 -853 
L 2731 -853 
L 2731 2141 
Q 1925 1138 725 303 
Q 525 591 88 1128 
Q 2069 2419 2813 4078 
L 350 4078 
L 350 4928 
z
" transform="scale(0.015625)"/>
      <path id="MicrosoftYaHei-Bold-51fa" d="M 4869 3184 
L 4869 4753 
L 5744 4753 
L 5744 2359 
L 3663 2359 
L 3663 284 
L 5094 284 
L 5094 1816 
L 5969 1816 
L 5969 -834 
L 5094 -834 
L 5094 -541 
L 425 -541 
L 425 1816 
L 1300 1816 
L 1300 284 
L 2725 284 
L 2725 2359 
L 650 2359 
L 650 4753 
L 1525 4753 
L 1525 3184 
L 2725 3184 
L 2725 5297 
L 3663 5297 
L 3663 3184 
L 4869 3184 
z
" transform="scale(0.015625)"/>
      <path id="MicrosoftYaHei-Bold-6700" d="M 838 5109 
L 5563 5109 
L 5563 3134 
L 838 3134 
L 838 5109 
z
M 4700 4609 
L 1700 4609 
L 1700 4341 
L 4700 4341 
L 4700 4609 
z
M 4700 3634 
L 4700 3903 
L 1700 3903 
L 1700 3634 
L 4700 3634 
z
M 6038 1909 
L 6038 1328 
Q 5772 741 5366 294 
Q 5794 100 6313 -3 
Q 6156 -266 5938 -766 
Q 5284 -584 4747 -244 
Q 4256 -588 3631 -797 
Q 3534 -644 3363 -341 
Q 3259 -353 3163 -359 
L 3163 -866 
L 2400 -866 
L 2400 -428 
L 250 -641 
L 144 59 
L 613 84 
L 613 2241 
L 94 2241 
L 94 2853 
L 6306 2853 
L 6306 2241 
L 3163 2241 
L 3163 291 
L 3513 328 
Q 3488 169 3472 6 
Q 3819 109 4106 256 
Q 3741 609 3450 1066 
L 3813 1309 
L 3338 1309 
L 3338 1909 
L 6038 1909 
z
M 1375 1891 
L 2400 1891 
L 2400 2241 
L 1375 2241 
L 1375 1891 
z
M 1375 1066 
L 2400 1066 
L 2400 1416 
L 1375 1416 
L 1375 1066 
z
M 4722 672 
Q 5031 950 5238 1309 
L 4088 1309 
Q 4359 944 4722 672 
z
M 2400 219 
L 2400 591 
L 1375 591 
L 1375 138 
L 2400 219 
z
" transform="scale(0.015625)"/>
      <path id="MicrosoftYaHei-Bold-7ec8" d="M 5956 4759 
L 5956 4091 
Q 5569 3341 4919 2741 
Q 5544 2453 6369 2297 
Q 6213 1928 6050 1497 
Q 4963 1797 4250 2241 
Q 3506 1778 2519 1478 
Q 2350 1866 2138 2222 
Q 2981 2434 3613 2747 
Q 3338 3022 3106 3347 
Q 2888 3053 2656 2784 
Q 2406 3053 2119 3316 
Q 2963 4266 3381 5353 
L 4175 5209 
Q 4069 4978 3963 4759 
L 5956 4759 
z
M 913 3403 
Q 1075 3409 1344 3422 
Q 1525 3784 1731 4222 
L 2438 3928 
Q 1869 2859 1238 1772 
Q 1681 1828 2181 1897 
Q 2125 1572 2106 1147 
Q 1131 1084 425 922 
L 213 1628 
Q 525 1934 969 2716 
Q 625 2691 300 2659 
L 88 3347 
Q 413 3728 1019 5341 
L 1788 5109 
Q 1319 4128 913 3403 
z
M 2669 578 
Q 4344 291 5781 3 
L 5588 -809 
Q 4000 -472 2463 -184 
L 2669 578 
z
M 100 347 
Q 1319 528 2275 691 
Q 2244 166 2250 -172 
Q 1063 -366 225 -528 
L 100 347 
z
M 3288 1703 
Q 4719 1453 5481 1303 
L 5300 578 
Q 4231 809 3094 1022 
L 3288 1703 
z
M 3525 3966 
Q 3800 3484 4250 3134 
Q 4788 3541 5075 4047 
L 3569 4047 
Q 3550 4003 3525 3966 
z
" transform="scale(0.015625)"/>
     </defs>
     <use xlink:href="#MicrosoftYaHei-Bold-5373"/>
     <use xlink:href="#MicrosoftYaHei-Bold-4f7f" transform="translate(100 0)"/>
     <use xlink:href="#MicrosoftYaHei-Bold-7b97" transform="translate(200 0)"/>
     <use xlink:href="#MicrosoftYaHei-Bold-4e0d" transform="translate(300 0)"/>
     <use xlink:href="#MicrosoftYaHei-Bold-51fa" transform="translate(400 0)"/>
     <use xlink:href="#MicrosoftYaHei-Bold-6700" transform="translate(500 0)"/>
     <use xlink:href="#MicrosoftYaHei-Bold-7ec8" transform="translate(600 0)"/>
     <use xlink:href="#MicrosoftYaHei-Bold-7ed3" transform="translate(700 0)"/>
     <use xlink:href="#MicrosoftYaHei-Bold-679c" transform="translate(800 0)"/>
    </g>
   </g>
   <g id="text_12">
    <!-- 写对公式 + 代入数据 -->
    <g style="fill: #c0392b" transform="translate(1792.8 117.01) scale(0.11 -0.11)">
     <defs>
      <path id="MicrosoftYaHei-Bold-5bf9" d="M 3050 4234 
L 4850 4234 
L 4850 5309 
L 5744 5309 
L 5744 4234 
L 6319 4234 
L 6319 3409 
L 5744 3409 
L 5744 216 
Q 5744 -250 5539 -490 
Q 5334 -731 4987 -754 
Q 4641 -778 3656 -778 
Q 3594 -359 3450 147 
Q 3931 109 4409 109 
Q 4850 109 4850 516 
L 4850 3409 
L 3050 3409 
L 3050 4234 
z
M 863 3772 
L 1691 2509 
Q 1934 3206 2025 4016 
L 188 4016 
L 188 4834 
L 2900 4834 
L 2900 4028 
Q 2709 2722 2247 1669 
L 3169 278 
L 2394 -228 
L 1781 778 
Q 1269 -47 550 -684 
Q 369 -316 88 153 
Q 816 772 1278 1594 
L 181 3341 
L 863 3772 
z
M 3463 3047 
Q 4069 2278 4588 1528 
L 3844 1041 
Q 3375 1841 2813 2609 
L 3463 3047 
z
" transform="scale(0.015625)"/>
      <path id="MicrosoftYaHei-Bold-20" transform="scale(0.015625)"/>
      <path id="MicrosoftYaHei-Bold-2b" d="M 4072 1653 
L 2766 1653 
L 2766 347 
L 2109 347 
L 2109 1653 
L 797 1653 
L 797 2313 
L 2109 2313 
L 2109 3625 
L 2766 3625 
L 2766 2313 
L 4072 2313 
L 4072 1653 
z
" transform="scale(0.015625)"/>
      <path id="MicrosoftYaHei-Bold-5165" d="M 1606 4822 
L 2438 5303 
Q 3106 4778 4019 2934 
Q 4900 1134 6300 128 
Q 5769 -441 5488 -797 
Q 4138 525 3238 2369 
Q 2447 466 813 -822 
Q 525 -459 75 -3 
Q 2013 1391 2709 3494 
Q 2309 4197 1606 4822 
z
" transform="scale(0.015625)"/>
     </defs>
     <use xlink:href="#MicrosoftYaHei-Bold-5199"/>
     <use xlink:href="#MicrosoftYaHei-Bold-5bf9" transform="translate(100 0)"/>
     <use xlink:href="#MicrosoftYaHei-Bold-516c" transform="translate(200 0)"/>
     <use xlink:href="#MicrosoftYaHei-Bold-5f0f" transform="translate(300 0)"/>
     <use xlink:href="#MicrosoftYaHei-Bold-20" transform="translate(400 0)"/>
     <use xlink:href="#MicrosoftYaHei-Bold-2b" transform="translate(429.785156 0)"/>
     <use xlink:href="#MicrosoftYaHei-Bold-20" transform="translate(505.908203 0)"/>
     <use xlink:href="#MicrosoftYaHei-Bold-4ee3" transform="translate(535.693359 0)"/>
     <use xlink:href="#MicrosoftYaHei-Bold-5165" transform="translate(635.693359 0)"/>
     <use xlink:href="#MicrosoftYaHei-Bold-6570" transform="translate(735.693359 0)"/>
     <use xlink:href="#MicrosoftYaHei-Bold-636e" transform="translate(835.693359 0)"/>
    </g>
   </g>
   <g id="text_13">
    <!-- 也能拿 4/6 分 -->
    <g style="fill: #27ae60" transform="translate(3221.28 117.01) scale(0.11 -0.11)">
     <defs>
      <path id="MicrosoftYaHei-Bold-4e5f" d="M 3969 1103 
Q 3863 1591 3756 1966 
Q 4113 1938 4372 1938 
Q 4616 1938 4691 1980 
Q 4766 2022 4805 2120 
Q 4844 2219 4859 2559 
L 4894 3391 
L 3600 3163 
L 3600 534 
L 2725 534 
L 2725 3006 
L 1681 2822 
L 1681 522 
Q 1681 166 2100 166 
L 4838 166 
Q 5138 166 5242 311 
Q 5347 456 5463 1234 
Q 5819 1084 6338 884 
Q 6256 491 6161 145 
Q 6066 -200 5967 -350 
Q 5869 -500 5636 -592 
Q 5403 -684 5063 -684 
L 1875 -684 
Q 806 -684 806 322 
L 806 2669 
L 225 2566 
L 100 3366 
L 806 3491 
L 806 4591 
L 1681 4591 
L 1681 3647 
L 2725 3834 
L 2725 5309 
L 3600 5309 
L 3600 3991 
L 5788 4384 
L 5713 2316 
Q 5703 1809 5543 1523 
Q 5384 1238 5081 1159 
Q 4778 1081 3969 1103 
z
" transform="scale(0.015625)"/>
      <path id="MicrosoftYaHei-Bold-80fd" d="M 2644 4797 
Q 3100 4172 3569 3447 
Q 3188 3222 2906 3066 
L 2731 3369 
L 319 3197 
L 100 3897 
Q 519 4116 1331 5353 
L 2125 5053 
L 1213 3947 
L 2353 3994 
Q 2200 4238 2044 4472 
L 2644 4797 
z
M 5513 3916 
Q 5981 3697 6288 3597 
Q 6200 3228 6114 2942 
Q 6028 2656 5798 2520 
Q 5569 2384 5200 2384 
L 4556 2384 
Q 3594 2384 3588 3322 
L 3588 5291 
L 4381 5291 
L 4381 4347 
Q 5153 4700 5681 5003 
L 6231 4366 
Q 5553 4056 4381 3616 
L 4381 3422 
Q 4381 3072 4800 3072 
L 5000 3072 
Q 5341 3072 5392 3269 
Q 5444 3466 5513 3916 
z
M 1213 -797 
L 431 -797 
L 431 2978 
L 3106 2978 
L 3106 41 
Q 3106 -325 2972 -525 
Q 2838 -725 2566 -759 
Q 2294 -794 1681 -784 
Q 1594 -422 1481 -41 
Q 1791 -59 1969 -59 
Q 2213 -59 2269 28 
Q 2325 116 2325 228 
L 2325 378 
L 1213 378 
L 1213 -797 
z
M 2325 2303 
L 1213 2303 
L 1213 1947 
L 2325 1947 
L 2325 2303 
z
M 1213 984 
L 2325 984 
L 2325 1341 
L 1213 1341 
L 1213 984 
z
M 5531 953 
Q 5913 797 6313 647 
Q 6194 -78 6081 -287 
Q 5969 -497 5750 -605 
Q 5531 -713 5206 -716 
L 4550 -716 
Q 3588 -716 3588 228 
L 3588 2216 
L 4381 2216 
L 4381 1438 
Q 5072 1781 5675 2147 
L 6225 1491 
Q 5372 1084 4381 672 
L 4381 353 
Q 4381 -28 4738 -28 
L 5000 -28 
Q 5275 -28 5365 90 
Q 5456 209 5531 953 
z
" transform="scale(0.015625)"/>
      <path id="MicrosoftYaHei-Bold-62ff" d="M 175 591 
L 2925 591 
L 2925 853 
L 625 853 
L 625 1303 
L 2925 1303 
L 2925 1566 
Q 1831 1553 575 1547 
Q 513 1816 450 2059 
Q 3669 2041 5750 2141 
L 5844 1634 
Q 4913 1603 3775 1578 
L 3775 1303 
L 5788 1303 
L 5788 853 
L 3775 853 
L 3775 591 
L 6225 591 
L 6225 66 
L 3775 66 
L 3775 47 
Q 3763 -722 3038 -803 
Q 2650 -834 1763 -834 
Q 1688 -397 1619 -128 
Q 2313 -159 2544 -153 
Q 2856 -141 2913 66 
L 175 66 
L 175 591 
z
M 4006 5316 
L 3794 5147 
Q 4750 4472 6325 4166 
Q 6225 3978 6044 3453 
Q 5294 3634 4675 3891 
L 4675 3803 
L 1800 3803 
L 1800 3922 
Q 1206 3659 444 3416 
Q 256 3834 100 4116 
Q 1963 4534 2800 5316 
L 4006 5316 
z
M 1056 3547 
L 5344 3547 
L 5344 2291 
L 1056 2291 
L 1056 3547 
z
M 4556 2766 
L 4556 3072 
L 1844 3072 
L 1844 2766 
L 4556 2766 
z
M 3194 4722 
Q 2819 4447 2494 4266 
L 3900 4266 
Q 3556 4466 3194 4722 
z
" transform="scale(0.015625)"/>
      <path id="MicrosoftYaHei-Bold-34" d="M 3184 4841 
L 3184 1766 
L 3869 1766 
L 3869 1031 
L 3184 1031 
L 3184 0 
L 2266 0 
L 2266 1031 
L 103 1031 
L 103 1772 
Q 775 2522 1362 3359 
Q 1950 4197 2250 4841 
L 3184 4841 
z
M 997 1766 
L 2266 1766 
L 2266 3541 
Q 2116 3259 1836 2859 
Q 1556 2459 997 1766 
z
" transform="scale(0.015625)"/>
      <path id="MicrosoftYaHei-Bold-2f" d="M 3100 4841 
L 747 -803 
L -156 -803 
L 2188 4841 
L 3100 4841 
z
" transform="scale(0.015625)"/>
      <path id="MicrosoftYaHei-Bold-36" d="M 3378 3938 
Q 3009 4147 2575 4147 
Q 2016 4147 1680 3708 
Q 1344 3269 1344 2572 
L 1363 2572 
Q 1709 3103 2391 3103 
Q 3000 3103 3358 2686 
Q 3716 2269 3716 1600 
Q 3716 869 3250 392 
Q 2784 -84 2059 -84 
Q 1228 -84 786 516 
Q 344 1116 344 2159 
Q 344 3388 917 4155 
Q 1491 4922 2513 4922 
Q 3063 4922 3378 4791 
L 3378 3938 
z
M 1378 1591 
Q 1378 1216 1565 953 
Q 1753 691 2059 691 
Q 2369 691 2547 931 
Q 2725 1172 2725 1534 
Q 2725 2350 2053 2350 
Q 1750 2350 1564 2134 
Q 1378 1919 1378 1591 
z
" transform="scale(0.015625)"/>
      <path id="MicrosoftYaHei-Bold-5206" d="M 6350 3028 
Q 6088 2703 5750 2228 
Q 5519 2409 5303 2603 
Q 5219 606 5172 190 
Q 5125 -225 4862 -451 
Q 4600 -678 4128 -678 
Q 3484 -678 2913 -659 
Q 2856 -141 2781 284 
Q 3594 216 3956 216 
Q 4172 216 4230 408 
Q 4288 600 4325 1978 
L 2781 1978 
Q 2728 1100 2529 631 
Q 2331 163 1907 -215 
Q 1484 -594 844 -872 
Q 456 -353 194 -78 
Q 750 144 1111 414 
Q 1472 684 1630 989 
Q 1788 1294 1841 1978 
L 950 1978 
L 950 2475 
Q 794 2356 631 2247 
Q 344 2653 63 2953 
Q 1475 3947 2194 5316 
L 3031 4953 
Q 2378 3722 1391 2841 
L 5047 2841 
Q 4088 3766 3463 4903 
L 4238 5303 
Q 5038 3922 6350 3028 
z
" transform="scale(0.015625)"/>
     </defs>
     <use xlink:href="#MicrosoftYaHei-Bold-4e5f"/>
     <use xlink:href="#MicrosoftYaHei-Bold-80fd" transform="translate(100 0)"/>
     <use xlink:href="#MicrosoftYaHei-Bold-62ff" transform="translate(200 0)"/>
     <use xlink:href="#MicrosoftYaHei-Bold-20" transform="translate(300 0)"/>
     <use xlink:href="#MicrosoftYaHei-Bold-34" transform="translate(329.785156 0)"/>
     <use xlink:href="#MicrosoftYaHei-Bold-2f" transform="translate(391.455078 0)"/>
     <use xlink:href="#MicrosoftYaHei-Bold-36" transform="translate(438.720703 0)"/>
     <use xlink:href="#MicrosoftYaHei-Bold-20" transform="translate(500.390625 0)"/>
     <use xlink:href="#MicrosoftYaHei-Bold-5206" transform="translate(530.175781 0)"/>
    </g>
   </g>
   <g id="text_14">
    <!-- 计算题步骤分策略 -->
    <g style="fill: #2c3e50" transform="translate(1818.08 19.99) scale(0.16 -0.16)">
     <defs>
      <path id="MicrosoftYaHei-Bold-8ba1" d="M 1194 5334 
Q 1681 4678 2019 4172 
L 1219 3691 
Q 913 4241 463 4916 
L 1194 5334 
z
M 2175 3428 
L 3763 3428 
L 3763 5328 
L 4700 5328 
L 4700 3428 
L 6300 3428 
L 6300 2591 
L 4700 2591 
L 4700 -847 
L 3763 -847 
L 3763 2591 
L 2175 2591 
L 2175 3428 
z
M 2481 1341 
Q 2531 759 2588 416 
Q 1388 -366 1063 -722 
L 600 -109 
Q 756 78 756 416 
L 756 2422 
L 119 2422 
L 119 3234 
L 1588 3234 
L 1588 766 
Q 1844 916 2481 1341 
z
" transform="scale(0.015625)"/>
      <path id="MicrosoftYaHei-Bold-9898" d="M 406 5091 
L 2856 5091 
L 2856 2666 
L 406 2666 
L 406 5091 
z
M 2131 4503 
L 1131 4503 
L 1131 4141 
L 2131 4141 
L 2131 4503 
z
M 2131 3253 
L 2131 3616 
L 1131 3616 
L 1131 3253 
L 2131 3253 
z
M 3213 3966 
L 4041 3966 
Q 4084 4219 4116 4453 
L 3100 4453 
L 3100 5078 
L 6169 5078 
L 6169 4453 
L 4906 4453 
Q 4866 4206 4819 3966 
L 5981 3966 
L 5981 1341 
L 5269 1341 
L 5269 3341 
L 3925 3341 
L 3925 1347 
L 3213 1347 
L 3213 3966 
z
M 425 1491 
L 1106 1491 
Q 1109 1134 1094 822 
Q 1238 688 1394 575 
L 1394 1753 
L 138 1753 
L 138 2378 
L 3000 2378 
L 3000 1753 
L 2163 1753 
L 2163 1353 
L 2906 1353 
L 2906 741 
L 2163 741 
L 2163 178 
Q 2594 28 3172 19 
Q 2953 347 2713 609 
Q 3400 797 3831 1211 
Q 4263 1625 4263 2509 
L 4263 3072 
L 4938 3072 
L 4938 2472 
Q 4938 1956 4825 1541 
Q 5659 1050 6306 591 
L 5828 25 
L 6319 34 
Q 6175 -303 6094 -691 
Q 4706 -691 3689 -680 
Q 2672 -669 2331 -597 
Q 1991 -525 1653 -358 
Q 1316 -191 1013 66 
Q 909 -544 688 -909 
Q 463 -628 75 -266 
Q 431 278 425 1491 
z
M 3428 16 
L 5744 25 
Q 5163 506 4544 909 
Q 4166 369 3428 16 
z
" transform="scale(0.015625)"/>
      <path id="MicrosoftYaHei-Bold-6b65" d="M 156 3266 
L 1050 3266 
L 1050 4866 
L 1925 4866 
L 1925 3266 
L 2956 3266 
L 2956 5328 
L 3844 5328 
L 3844 4678 
L 5763 4678 
L 5763 3922 
L 3844 3922 
L 3844 3266 
L 6269 3266 
L 6269 2497 
L 156 2497 
L 156 3266 
z
M 5300 1966 
L 5938 1341 
Q 4031 -441 575 -859 
Q 363 -397 131 16 
Q 1700 141 2906 550 
L 2906 2353 
L 3781 2353 
L 3781 906 
Q 4666 1338 5300 1966 
z
M 1725 2266 
L 2338 1728 
Q 1575 1003 719 409 
Q 519 691 194 1066 
Q 1031 1591 1725 2266 
z
" transform="scale(0.015625)"/>
      <path id="MicrosoftYaHei-Bold-9aa4" d="M 2563 1372 
Q 2494 1728 2400 2047 
Q 4144 2066 5594 2253 
L 5806 1641 
Q 5234 1572 4550 1513 
L 4550 1428 
Q 4728 1181 4941 959 
Q 5428 1209 5900 1528 
L 6300 997 
Q 5894 753 5431 509 
Q 5831 191 6319 -59 
Q 6100 -328 5869 -678 
Q 5100 -228 4550 513 
L 4550 -816 
L 3813 -816 
L 3813 -31 
Q 3263 -497 2563 -866 
Q 2419 -603 2138 -266 
Q 2925 103 3494 609 
L 3813 284 
L 3813 1453 
L 3384 1422 
L 3725 1022 
Q 3169 597 2544 309 
Q 2438 513 2238 838 
Q 2200 -159 2101 -336 
Q 2003 -513 1856 -631 
Q 1709 -750 1166 -750 
Q 931 -750 600 -734 
Q 550 -284 481 91 
Q 931 34 1188 34 
Q 1463 34 1491 295 
Q 1519 556 1569 1791 
L 169 1791 
L 356 4072 
L 1019 4072 
L 875 2441 
L 1291 2441 
L 1425 4378 
L 206 4378 
L 206 5028 
L 2119 5028 
L 1956 2441 
L 2291 2441 
L 2238 2778 
L 2438 2791 
L 2438 4541 
L 2231 4541 
L 2231 5066 
L 4481 5066 
L 4481 4828 
L 6213 4828 
L 6213 4253 
Q 6066 3706 5766 3247 
Q 6038 2978 6325 2678 
L 5825 2241 
L 5366 2744 
Q 5097 2466 4756 2228 
Q 4613 2425 4444 2625 
L 4444 2484 
L 4275 2469 
L 4275 2178 
L 3650 2178 
L 3650 2409 
L 2319 2259 
L 2297 2391 
L 2238 841 
Q 2834 1069 3356 1422 
Q 2972 1394 2563 1372 
z
M 4319 3822 
L 4744 4197 
Q 5013 3966 5297 3700 
Q 5481 3947 5606 4241 
L 4431 4241 
L 4431 4541 
L 4275 4541 
L 4275 2959 
L 4450 2978 
Q 4450 2963 4447 2947 
Q 4688 3084 4884 3253 
Q 4578 3572 4319 3822 
z
M 3063 4278 
L 3650 4278 
L 3650 4541 
L 3063 4541 
L 3063 4278 
z
M 3063 3578 
L 3650 3578 
L 3650 3841 
L 3063 3841 
L 3063 3578 
z
M 3650 2894 
L 3650 3141 
L 3063 3141 
L 3063 2838 
L 3650 2894 
z
M 75 1284 
Q 600 1334 1344 1447 
Q 1344 909 1350 691 
Q 644 584 163 491 
L 75 1284 
z
" transform="scale(0.015625)"/>
      <path id="MicrosoftYaHei-Bold-7b56" d="M 6225 4284 
L 5281 4284 
Q 5419 4013 5525 3753 
L 4719 3591 
Q 4603 3963 4450 4284 
L 4075 4284 
Q 3881 3988 3638 3697 
L 3613 3709 
L 3613 3453 
L 6200 3453 
L 6200 2803 
L 3613 2803 
L 3613 2403 
L 5913 2403 
L 5913 1409 
Q 5913 1106 5727 882 
Q 5541 659 4719 659 
Q 5428 284 6313 147 
Q 6094 -203 5875 -653 
Q 4475 -225 3613 659 
L 3613 -853 
L 2788 -853 
L 2788 681 
Q 1872 -216 525 -697 
Q 350 -341 94 72 
Q 1759 528 2788 1509 
L 2788 1766 
L 1444 1766 
L 1444 647 
L 631 647 
L 631 2403 
L 2788 2403 
L 2788 2803 
L 225 2803 
L 225 3453 
L 2788 3453 
L 2788 3734 
L 3566 3734 
Q 3263 3891 2906 4053 
Q 3450 4578 3800 5347 
L 4619 5347 
Q 4531 5113 4419 4884 
L 6225 4884 
L 6225 4284 
z
M 4275 1353 
Q 4581 1303 4856 1303 
Q 5100 1303 5100 1522 
L 5100 1766 
L 3613 1766 
L 3613 1491 
Q 3966 1128 4381 856 
Q 4347 1094 4275 1353 
z
M 3113 4284 
L 2225 4284 
Q 2359 4016 2494 3703 
L 1688 3541 
Q 1566 3922 1416 4284 
L 1288 4284 
Q 894 3822 431 3484 
Q 325 3803 75 4228 
Q 700 4634 1119 5341 
L 2006 5341 
Q 1875 5100 1734 4884 
L 3113 4884 
L 3113 4284 
z
" transform="scale(0.015625)"/>
      <path id="MicrosoftYaHei-Bold-7565" d="M 6056 4716 
L 6056 3978 
Q 5775 3350 5269 2863 
Q 5738 2666 6325 2591 
Q 6194 2209 6075 1753 
Q 5244 1931 4597 2347 
Q 3994 1966 3188 1716 
L 5950 1716 
L 5950 -847 
L 5175 -847 
L 5175 -522 
L 3881 -522 
L 3881 -859 
L 3106 -859 
L 3106 1691 
L 3000 1659 
Q 2891 1934 2756 2213 
L 2756 -459 
L 2119 -459 
L 2119 -3 
L 969 -3 
L 969 -497 
L 331 -497 
L 331 4866 
L 2756 4866 
L 2756 3619 
Q 3469 4422 3769 5359 
L 4544 5241 
Q 4459 4969 4356 4716 
L 6056 4716 
z
M 2119 4266 
L 1806 4266 
L 1806 2734 
L 2119 2734 
L 2119 4266 
z
M 969 2734 
L 1281 2734 
L 1281 4266 
L 969 4266 
L 969 2734 
z
M 3978 3934 
Q 4231 3541 4588 3259 
Q 4972 3578 5188 3997 
L 4013 3997 
Q 3994 3966 3978 3934 
z
M 3219 2922 
Q 3050 3125 2756 3413 
L 2756 2444 
Q 3447 2600 3963 2856 
Q 3747 3069 3559 3316 
Q 3400 3109 3219 2922 
z
M 969 597 
L 1281 597 
L 1281 2134 
L 969 2134 
L 969 597 
z
M 1806 597 
L 2119 597 
L 2119 2134 
L 1806 2134 
L 1806 597 
z
M 5175 966 
L 3881 966 
L 3881 228 
L 5175 228 
L 5175 966 
z
" transform="scale(0.015625)"/>
     </defs>
     <use xlink:href="#MicrosoftYaHei-Bold-8ba1"/>
     <use xlink:href="#MicrosoftYaHei-Bold-7b97" transform="translate(100 0)"/>
     <use xlink:href="#MicrosoftYaHei-Bold-9898" transform="translate(200 0)"/>
     <use xlink:href="#MicrosoftYaHei-Bold-6b65" transform="translate(300 0)"/>
     <use xlink:href="#MicrosoftYaHei-Bold-9aa4" transform="translate(400 0)"/>
     <use xlink:href="#MicrosoftYaHei-Bold-5206" transform="translate(500 0)"/>
     <use xlink:href="#MicrosoftYaHei-Bold-7b56" transform="translate(600 0)"/>
     <use xlink:href="#MicrosoftYaHei-Bold-7565" transform="translate(700 0)"/>
    </g>
   </g>
  </g>
 </g>
 <defs>
  <clipPath id="p0610e40ca5">
   <rect x="7.2" y="466.282" width="446.4" height="194.04"/>
  </clipPath>
 </defs>
</svg>
