<?xml version="1.0" encoding="utf-8" standalone="no"?>
<!DOCTYPE svg PUBLIC "-//W3C//DTD SVG 1.1//EN"
  "http://www.w3.org/Graphics/SVG/1.1/DTD/svg11.dtd">
<svg xmlns:xlink="http://www.w3.org/1999/xlink" width="424.859062pt" height="243.603438pt" viewBox="0 0 424.859062 243.603438" xmlns="http://www.w3.org/2000/svg" version="1.1">
 <metadata>
  <rdf:RDF xmlns:dc="http://purl.org/dc/elements/1.1/" xmlns:cc="http://creativecommons.org/ns#" xmlns:rdf="http://www.w3.org/1999/02/22-rdf-syntax-ns#">
   <cc:Work>
    <dc:type rdf:resource="http://purl.org/dc/dcmitype/StillImage"/>
    <dc:date>2026-05-22T14:15:56.928801</dc:date>
    <dc:format>image/svg+xml</dc:format>
    <dc:creator>
     <cc:Agent>
      <dc:title>Matplotlib v3.10.9, https://matplotlib.org/</dc:title>
     </cc:Agent>
    </dc:creator>
   </cc:Work>
  </rdf:RDF>
 </metadata>
 <defs>
  <style type="text/css">*{stroke-linejoin: round; stroke-linecap: butt}</style>
 </defs>
 <g id="figure_1">
  <g id="patch_1">
   <path d="M 0 243.603438 
L 424.859062 243.603438 
L 424.859062 0 
L 0 0 
L 0 243.603438 
z
" style="fill: none"/>
  </g>
  <g id="axes_1">
   <g id="patch_2">
    <path d="M 42.457813 208.020625 
L 417.659063 208.020625 
L 417.659063 22.903125 
L 42.457813 22.903125 
L 42.457813 208.020625 
z
" style="fill: none"/>
   </g>
   <g id="matplotlib.axis_1">
    <g id="xtick_1">
     <g id="line2d_1">
      <path d="M 59.512415 208.020625 
L 59.512415 22.903125 
" clip-path="url(#pd5c21195f2)" style="fill: none; stroke: #b0b0b0; stroke-opacity: 0.3; stroke-width: 0.8; stroke-linecap: square"/>
     </g>
     <g id="line2d_2">
      <defs>
       <path id="ma3587f5e28" d="M 0 0 
L 0 3.5 
" style="stroke: #000000; stroke-width: 0.8"/>
      </defs>
      <g>
       <use xlink:href="#ma3587f5e28" x="59.512415" y="208.020625" style="stroke: #000000; stroke-width: 0.8"/>
      </g>
     </g>
     <g id="text_1">
      <!-- 0 -->
      <g transform="translate(57.012415 221.895625) scale(0.1 -0.1)">
       <defs>
        <path id="SimHei-30" d="M 225 2537 
Q 250 3200 412 3587 
Q 575 3975 875 4225 
Q 1175 4475 1612 4475 
Q 2050 4475 2375 4112 
Q 2700 3750 2800 3200 
Q 2900 2650 2862 1937 
Q 2825 1225 2612 775 
Q 2400 325 1975 150 
Q 1550 -25 1125 187 
Q 700 400 525 750 
Q 350 1100 275 1487 
Q 200 1875 225 2537 
z
M 750 2687 
Q 675 2000 800 1462 
Q 925 925 1212 700 
Q 1500 475 1800 612 
Q 2100 750 2237 1162 
Q 2375 1575 2375 2062 
Q 2375 2550 2337 2950 
Q 2300 3350 2112 3675 
Q 1925 4000 1612 4012 
Q 1300 4025 1062 3700 
Q 825 3375 750 2687 
z
" transform="scale(0.015625)"/>
       </defs>
       <use xlink:href="#SimHei-30"/>
      </g>
     </g>
    </g>
    <g id="xtick_2">
     <g id="line2d_3">
      <path d="M 102.14892 208.020625 
L 102.14892 22.903125 
" clip-path="url(#pd5c21195f2)" style="fill: none; stroke: #b0b0b0; stroke-opacity: 0.3; stroke-width: 0.8; stroke-linecap: square"/>
     </g>
     <g id="line2d_4">
      <g>
       <use xlink:href="#ma3587f5e28" x="102.14892" y="208.020625" style="stroke: #000000; stroke-width: 0.8"/>
      </g>
     </g>
     <g id="text_2">
      <!-- 2 -->
      <g transform="translate(99.64892 221.895625) scale(0.1 -0.1)">
       <defs>
        <path id="SimHei-32" d="M 300 250 
Q 325 625 650 925 
Q 975 1225 1475 1862 
Q 1975 2500 2125 2850 
Q 2275 3200 2237 3450 
Q 2200 3700 2000 3862 
Q 1800 4025 1537 4000 
Q 1275 3975 1037 3800 
Q 800 3625 675 3275 
L 200 3350 
Q 400 3925 712 4187 
Q 1025 4450 1450 4475 
Q 1700 4500 1900 4462 
Q 2100 4425 2312 4287 
Q 2525 4150 2662 3875 
Q 2800 3600 2762 3212 
Q 2725 2825 2375 2287 
Q 2025 1750 1025 600 
L 2825 600 
L 2825 150 
L 300 150 
L 300 250 
z
" transform="scale(0.015625)"/>
       </defs>
       <use xlink:href="#SimHei-32"/>
      </g>
     </g>
    </g>
    <g id="xtick_3">
     <g id="line2d_5">
      <path d="M 144.785426 208.020625 
L 144.785426 22.903125 
" clip-path="url(#pd5c21195f2)" style="fill: none; stroke: #b0b0b0; stroke-opacity: 0.3; stroke-width: 0.8; stroke-linecap: square"/>
     </g>
     <g id="line2d_6">
      <g>
       <use xlink:href="#ma3587f5e28" x="144.785426" y="208.020625" style="stroke: #000000; stroke-width: 0.8"/>
      </g>
     </g>
     <g id="text_3">
      <!-- 4 -->
      <g transform="translate(142.285426 221.895625) scale(0.1 -0.1)">
       <defs>
        <path id="SimHei-34" d="M 2000 1100 
L 75 1100 
L 75 1525 
L 2100 4450 
L 2475 4450 
L 2475 1525 
L 3075 1525 
L 3075 1100 
L 2475 1100 
L 2475 150 
L 2000 150 
L 2000 1100 
z
M 2000 1525 
L 2000 3500 
L 600 1525 
L 2000 1525 
z
" transform="scale(0.015625)"/>
       </defs>
       <use xlink:href="#SimHei-34"/>
      </g>
     </g>
    </g>
    <g id="xtick_4">
     <g id="line2d_7">
      <path d="M 187.421932 208.020625 
L 187.421932 22.903125 
" clip-path="url(#pd5c21195f2)" style="fill: none; stroke: #b0b0b0; stroke-opacity: 0.3; stroke-width: 0.8; stroke-linecap: square"/>
     </g>
     <g id="line2d_8">
      <g>
       <use xlink:href="#ma3587f5e28" x="187.421932" y="208.020625" style="stroke: #000000; stroke-width: 0.8"/>
      </g>
     </g>
     <g id="text_4">
      <!-- 6 -->
      <g transform="translate(184.921932 221.895625) scale(0.1 -0.1)">
       <defs>
        <path id="SimHei-36" d="M 250 1612 
Q 275 1975 387 2225 
Q 500 2475 725 2850 
L 1750 4450 
L 2325 4450 
L 1275 2800 
Q 1950 2975 2350 2750 
Q 2750 2525 2887 2237 
Q 3025 1950 3037 1612 
Q 3050 1275 2937 950 
Q 2825 625 2537 362 
Q 2250 100 1737 75 
Q 1225 50 862 262 
Q 500 475 362 862 
Q 225 1250 250 1612 
z
M 1025 787 
Q 1250 550 1625 525 
Q 2000 500 2250 775 
Q 2500 1050 2500 1575 
Q 2500 2100 2187 2300 
Q 1875 2500 1487 2450 
Q 1100 2400 925 2075 
Q 750 1750 775 1387 
Q 800 1025 1025 787 
z
" transform="scale(0.015625)"/>
       </defs>
       <use xlink:href="#SimHei-36"/>
      </g>
     </g>
    </g>
    <g id="xtick_5">
     <g id="line2d_9">
      <path d="M 230.058438 208.020625 
L 230.058438 22.903125 
" clip-path="url(#pd5c21195f2)" style="fill: none; stroke: #b0b0b0; stroke-opacity: 0.3; stroke-width: 0.8; stroke-linecap: square"/>
     </g>
     <g id="line2d_10">
      <g>
       <use xlink:href="#ma3587f5e28" x="230.058438" y="208.020625" style="stroke: #000000; stroke-width: 0.8"/>
      </g>
     </g>
     <g id="text_5">
      <!-- 8 -->
      <g transform="translate(227.558438 221.895625) scale(0.1 -0.1)">
       <defs>
        <path id="SimHei-38" d="M 175 1375 
Q 175 1675 325 1962 
Q 475 2250 825 2425 
Q 525 2600 425 2812 
Q 325 3025 312 3300 
Q 300 3575 387 3775 
Q 475 3975 650 4150 
Q 825 4325 1037 4387 
Q 1250 4450 1500 4450 
Q 1750 4450 1950 4400 
Q 2150 4350 2375 4187 
Q 2600 4025 2700 3725 
Q 2800 3425 2687 3025 
Q 2575 2625 2100 2400 
Q 2525 2275 2700 2012 
Q 2875 1750 2875 1375 
Q 2875 1000 2762 775 
Q 2650 550 2512 400 
Q 2375 250 2137 162 
Q 1900 75 1537 75 
Q 1175 75 912 162 
Q 650 250 475 425 
Q 300 600 237 837 
Q 175 1075 175 1375 
z
M 687 1400 
Q 675 1100 787 875 
Q 900 650 1200 587 
Q 1500 525 1825 600 
Q 2150 675 2275 950 
Q 2400 1225 2362 1500 
Q 2325 1775 2050 1962 
Q 1775 2150 1450 2125 
Q 1125 2100 912 1900 
Q 700 1700 687 1400 
z
M 775 3350 
Q 775 3100 950 2875 
Q 1125 2650 1500 2650 
Q 1875 2650 2062 2875 
Q 2250 3100 2237 3412 
Q 2225 3725 2012 3875 
Q 1800 4025 1437 4000 
Q 1075 3975 925 3787 
Q 775 3600 775 3350 
z
" transform="scale(0.015625)"/>
       </defs>
       <use xlink:href="#SimHei-38"/>
      </g>
     </g>
    </g>
    <g id="xtick_6">
     <g id="line2d_11">
      <path d="M 272.694943 208.020625 
L 272.694943 22.903125 
" clip-path="url(#pd5c21195f2)" style="fill: none; stroke: #b0b0b0; stroke-opacity: 0.3; stroke-width: 0.8; stroke-linecap: square"/>
     </g>
     <g id="line2d_12">
      <g>
       <use xlink:href="#ma3587f5e28" x="272.694943" y="208.020625" style="stroke: #000000; stroke-width: 0.8"/>
      </g>
     </g>
     <g id="text_6">
      <!-- 10 -->
      <g transform="translate(267.694943 221.895625) scale(0.1 -0.1)">
       <defs>
        <path id="SimHei-31" d="M 1400 3600 
Q 1075 3275 575 2975 
L 575 3450 
Q 1200 3875 1600 4450 
L 1900 4450 
L 1900 150 
L 1400 150 
L 1400 3600 
z
" transform="scale(0.015625)"/>
       </defs>
       <use xlink:href="#SimHei-31"/>
       <use xlink:href="#SimHei-30" transform="translate(50 0)"/>
      </g>
     </g>
    </g>
    <g id="xtick_7">
     <g id="line2d_13">
      <path d="M 315.331449 208.020625 
L 315.331449 22.903125 
" clip-path="url(#pd5c21195f2)" style="fill: none; stroke: #b0b0b0; stroke-opacity: 0.3; stroke-width: 0.8; stroke-linecap: square"/>
     </g>
     <g id="line2d_14">
      <g>
       <use xlink:href="#ma3587f5e28" x="315.331449" y="208.020625" style="stroke: #000000; stroke-width: 0.8"/>
      </g>
     </g>
     <g id="text_7">
      <!-- 12 -->
      <g transform="translate(310.331449 221.895625) scale(0.1 -0.1)">
       <use xlink:href="#SimHei-31"/>
       <use xlink:href="#SimHei-32" transform="translate(50 0)"/>
      </g>
     </g>
    </g>
    <g id="xtick_8">
     <g id="line2d_15">
      <path d="M 357.967955 208.020625 
L 357.967955 22.903125 
" clip-path="url(#pd5c21195f2)" style="fill: none; stroke: #b0b0b0; stroke-opacity: 0.3; stroke-width: 0.8; stroke-linecap: square"/>
     </g>
     <g id="line2d_16">
      <g>
       <use xlink:href="#ma3587f5e28" x="357.967955" y="208.020625" style="stroke: #000000; stroke-width: 0.8"/>
      </g>
     </g>
     <g id="text_8">
      <!-- 14 -->
      <g transform="translate(352.967955 221.895625) scale(0.1 -0.1)">
       <use xlink:href="#SimHei-31"/>
       <use xlink:href="#SimHei-34" transform="translate(50 0)"/>
      </g>
     </g>
    </g>
    <g id="xtick_9">
     <g id="line2d_17">
      <path d="M 400.60446 208.020625 
L 400.60446 22.903125 
" clip-path="url(#pd5c21195f2)" style="fill: none; stroke: #b0b0b0; stroke-opacity: 0.3; stroke-width: 0.8; stroke-linecap: square"/>
     </g>
     <g id="line2d_18">
      <g>
       <use xlink:href="#ma3587f5e28" x="400.60446" y="208.020625" style="stroke: #000000; stroke-width: 0.8"/>
      </g>
     </g>
     <g id="text_9">
      <!-- 16 -->
      <g transform="translate(395.60446 221.895625) scale(0.1 -0.1)">
       <use xlink:href="#SimHei-31"/>
       <use xlink:href="#SimHei-36" transform="translate(50 0)"/>
      </g>
     </g>
    </g>
    <g id="text_10">
     <!-- 时间/min -->
     <g transform="translate(210.058438 235.153437) scale(0.1 -0.1)">
      <defs>
       <path id="SimHei-65f6" d="M 2525 4575 
Q 2500 3675 2500 2400 
Q 2500 1125 2525 400 
L 2000 400 
L 2000 875 
L 1000 875 
L 1000 50 
L 475 50 
Q 500 1200 500 2350 
Q 500 3525 475 4575 
L 2525 4575 
z
M 4875 3825 
Q 4875 4575 4850 5225 
L 5400 5225 
Q 5375 4575 5375 3825 
Q 5750 3825 6175 3850 
L 6175 3375 
Q 5750 3400 5375 3400 
L 5375 50 
Q 5375 -325 5075 -425 
Q 4775 -525 4300 -575 
Q 4300 -275 4025 0 
Q 4500 -50 4687 -25 
Q 4875 0 4875 300 
L 4875 3400 
Q 3625 3400 2775 3375 
L 2775 3850 
Q 3575 3825 4875 3825 
z
M 2000 1300 
L 2000 2550 
L 1000 2550 
L 1000 1300 
L 2000 1300 
z
M 2000 2975 
L 2000 4150 
L 1000 4150 
L 1000 2975 
L 2000 2975 
z
M 3550 2725 
Q 3875 2200 4175 1600 
Q 3925 1525 3650 1375 
Q 3450 1975 3075 2500 
Q 3300 2600 3550 2725 
z
" transform="scale(0.015625)"/>
       <path id="SimHei-95f4" d="M 4450 3550 
Q 4425 3075 4425 2725 
L 4425 1400 
Q 4425 1075 4450 625 
L 1925 625 
Q 1950 1075 1950 1425 
L 1950 2725 
Q 1950 3075 1925 3550 
L 4450 3550 
z
M 5800 4875 
Q 5775 4400 5775 3925 
L 5775 250 
Q 5800 -325 5462 -450 
Q 5125 -575 4725 -625 
Q 4700 -325 4525 -25 
Q 5000 -50 5137 25 
Q 5275 100 5275 350 
L 5275 4450 
L 3775 4450 
Q 3175 4450 2650 4425 
L 2650 4900 
Q 3175 4875 3775 4875 
L 5800 4875 
z
M 550 -525 
Q 600 -25 600 525 
L 600 3150 
Q 600 3675 550 4025 
L 1125 4025 
Q 1100 3650 1100 3300 
L 1100 500 
Q 1100 0 1125 -525 
L 550 -525 
z
M 3950 1025 
L 3950 1950 
L 2425 1950 
L 2425 1025 
L 3950 1025 
z
M 3950 2350 
L 3950 3150 
L 2425 3150 
L 2425 2350 
L 3950 2350 
z
M 1525 5300 
Q 1750 5000 2225 4350 
Q 1950 4225 1700 4075 
Q 1450 4575 1075 5025 
Q 1350 5225 1525 5300 
z
" transform="scale(0.015625)"/>
       <path id="SimHei-2f" d="M 3000 4550 
L 350 -175 
L 100 -25 
L 2750 4700 
L 3000 4550 
z
" transform="scale(0.015625)"/>
       <path id="SimHei-6d" d="M 3050 125 
L 2550 125 
L 2550 2150 
Q 2550 2300 2500 2400 
Q 2450 2500 2300 2500 
Q 2125 2500 1975 2312 
Q 1825 2125 1825 1825 
L 1825 125 
L 1325 125 
L 1325 2150 
Q 1325 2300 1275 2400 
Q 1225 2500 1075 2500 
Q 900 2500 750 2312 
Q 600 2125 600 1825 
L 600 125 
L 100 125 
L 100 2925 
L 600 2925 
L 600 2550 
Q 725 2750 900 2862 
Q 1075 2975 1275 2975 
Q 1475 2975 1612 2862 
Q 1750 2750 1800 2550 
Q 1925 2750 2087 2862 
Q 2250 2975 2450 2975 
Q 2750 2975 2900 2812 
Q 3050 2650 3050 2350 
L 3050 125 
z
" transform="scale(0.015625)"/>
       <path id="SimHei-69" d="M 1800 3725 
L 1300 3725 
L 1300 4375 
L 1800 4375 
L 1800 3725 
z
M 1800 125 
L 1300 125 
L 1300 2925 
L 1800 2925 
L 1800 125 
z
" transform="scale(0.015625)"/>
       <path id="SimHei-6e" d="M 2800 125 
L 2300 125 
L 2300 1925 
Q 2300 2225 2150 2400 
Q 2000 2575 1750 2575 
Q 1425 2575 1137 2237 
Q 850 1900 850 1400 
L 850 125 
L 350 125 
L 350 2925 
L 850 2925 
L 850 2400 
Q 1050 2675 1287 2825 
Q 1525 2975 1900 2975 
Q 2350 2975 2575 2725 
Q 2800 2475 2800 2100 
L 2800 125 
z
" transform="scale(0.015625)"/>
      </defs>
      <use xlink:href="#SimHei-65f6"/>
      <use xlink:href="#SimHei-95f4" transform="translate(100 0)"/>
      <use xlink:href="#SimHei-2f" transform="translate(200 0)"/>
      <use xlink:href="#SimHei-6d" transform="translate(250 0)"/>
      <use xlink:href="#SimHei-69" transform="translate(300 0)"/>
      <use xlink:href="#SimHei-6e" transform="translate(350 0)"/>
     </g>
    </g>
   </g>
   <g id="matplotlib.axis_2">
    <g id="ytick_1">
     <g id="line2d_19">
      <path d="M 42.457813 199.606193 
L 417.659063 199.606193 
" clip-path="url(#pd5c21195f2)" style="fill: none; stroke: #b0b0b0; stroke-opacity: 0.3; stroke-width: 0.8; stroke-linecap: square"/>
     </g>
     <g id="line2d_20">
      <defs>
       <path id="me9b91bb9ca" d="M 0 0 
L -3.5 0 
" style="stroke: #000000; stroke-width: 0.8"/>
      </defs>
      <g>
       <use xlink:href="#me9b91bb9ca" x="42.457813" y="199.606193" style="stroke: #000000; stroke-width: 0.8"/>
      </g>
     </g>
     <g id="text_11">
      <!-- -20 -->
      <g transform="translate(20.457813 203.043693) scale(0.1 -0.1)">
       <defs>
        <path id="SimHei-2d" d="M 2975 2125 
L 125 2125 
L 125 2525 
L 2975 2525 
L 2975 2125 
z
" transform="scale(0.015625)"/>
       </defs>
       <use xlink:href="#SimHei-2d"/>
       <use xlink:href="#SimHei-32" transform="translate(50 0)"/>
       <use xlink:href="#SimHei-30" transform="translate(100 0)"/>
      </g>
     </g>
    </g>
    <g id="ytick_2">
     <g id="line2d_21">
      <path d="M 42.457813 165.948466 
L 417.659063 165.948466 
" clip-path="url(#pd5c21195f2)" style="fill: none; stroke: #b0b0b0; stroke-opacity: 0.3; stroke-width: 0.8; stroke-linecap: square"/>
     </g>
     <g id="line2d_22">
      <g>
       <use xlink:href="#me9b91bb9ca" x="42.457813" y="165.948466" style="stroke: #000000; stroke-width: 0.8"/>
      </g>
     </g>
     <g id="text_12">
      <!-- -10 -->
      <g transform="translate(20.457813 169.385966) scale(0.1 -0.1)">
       <use xlink:href="#SimHei-2d"/>
       <use xlink:href="#SimHei-31" transform="translate(50 0)"/>
       <use xlink:href="#SimHei-30" transform="translate(100 0)"/>
      </g>
     </g>
    </g>
    <g id="ytick_3">
     <g id="line2d_23">
      <path d="M 42.457813 132.290739 
L 417.659063 132.290739 
" clip-path="url(#pd5c21195f2)" style="fill: none; stroke: #b0b0b0; stroke-opacity: 0.3; stroke-width: 0.8; stroke-linecap: square"/>
     </g>
     <g id="line2d_24">
      <g>
       <use xlink:href="#me9b91bb9ca" x="42.457813" y="132.290739" style="stroke: #000000; stroke-width: 0.8"/>
      </g>
     </g>
     <g id="text_13">
      <!-- 0 -->
      <g transform="translate(30.457813 135.728239) scale(0.1 -0.1)">
       <use xlink:href="#SimHei-30"/>
      </g>
     </g>
    </g>
    <g id="ytick_4">
     <g id="line2d_25">
      <path d="M 42.457813 98.633011 
L 417.659063 98.633011 
" clip-path="url(#pd5c21195f2)" style="fill: none; stroke: #b0b0b0; stroke-opacity: 0.3; stroke-width: 0.8; stroke-linecap: square"/>
     </g>
     <g id="line2d_26">
      <g>
       <use xlink:href="#me9b91bb9ca" x="42.457813" y="98.633011" style="stroke: #000000; stroke-width: 0.8"/>
      </g>
     </g>
     <g id="text_14">
      <!-- 10 -->
      <g transform="translate(25.457813 102.070511) scale(0.1 -0.1)">
       <use xlink:href="#SimHei-31"/>
       <use xlink:href="#SimHei-30" transform="translate(50 0)"/>
      </g>
     </g>
    </g>
    <g id="ytick_5">
     <g id="line2d_27">
      <path d="M 42.457813 64.975284 
L 417.659063 64.975284 
" clip-path="url(#pd5c21195f2)" style="fill: none; stroke: #b0b0b0; stroke-opacity: 0.3; stroke-width: 0.8; stroke-linecap: square"/>
     </g>
     <g id="line2d_28">
      <g>
       <use xlink:href="#me9b91bb9ca" x="42.457813" y="64.975284" style="stroke: #000000; stroke-width: 0.8"/>
      </g>
     </g>
     <g id="text_15">
      <!-- 20 -->
      <g transform="translate(25.457813 68.412784) scale(0.1 -0.1)">
       <use xlink:href="#SimHei-32"/>
       <use xlink:href="#SimHei-30" transform="translate(50 0)"/>
      </g>
     </g>
    </g>
    <g id="ytick_6">
     <g id="line2d_29">
      <path d="M 42.457813 31.317557 
L 417.659063 31.317557 
" clip-path="url(#pd5c21195f2)" style="fill: none; stroke: #b0b0b0; stroke-opacity: 0.3; stroke-width: 0.8; stroke-linecap: square"/>
     </g>
     <g id="line2d_30">
      <g>
       <use xlink:href="#me9b91bb9ca" x="42.457813" y="31.317557" style="stroke: #000000; stroke-width: 0.8"/>
      </g>
     </g>
     <g id="text_16">
      <!-- 30 -->
      <g transform="translate(25.457813 34.755057) scale(0.1 -0.1)">
       <defs>
        <path id="SimHei-33" d="M 250 1225 
L 700 1300 
Q 800 975 1025 762 
Q 1250 550 1587 562 
Q 1925 575 2125 837 
Q 2325 1100 2300 1437 
Q 2275 1775 2037 1962 
Q 1800 2150 1275 2225 
L 1275 2550 
Q 1800 2600 2037 2825 
Q 2275 3050 2250 3412 
Q 2225 3775 1925 3937 
Q 1625 4100 1287 3975 
Q 950 3850 750 3275 
L 300 3350 
Q 450 3800 712 4100 
Q 975 4400 1425 4450 
Q 1875 4500 2212 4337 
Q 2550 4175 2687 3837 
Q 2825 3500 2725 3100 
Q 2625 2700 2150 2400 
Q 2500 2250 2687 1950 
Q 2875 1650 2812 1162 
Q 2750 675 2375 375 
Q 2000 75 1525 87 
Q 1050 100 700 387 
Q 350 675 250 1225 
z
" transform="scale(0.015625)"/>
       </defs>
       <use xlink:href="#SimHei-33"/>
       <use xlink:href="#SimHei-30" transform="translate(50 0)"/>
      </g>
     </g>
    </g>
    <g id="text_17">
     <!-- 温度/℃ -->
     <g transform="translate(15.207813 132.961875) rotate(-90) scale(0.1 -0.1)">
      <defs>
       <path id="SimHei-6e29" d="M 5625 1925 
Q 5600 1475 5600 0 
Q 5875 0 6125 25 
L 6125 -425 
Q 5725 -400 5325 -400 
L 2275 -400 
Q 1825 -400 1400 -425 
L 1400 25 
Q 1725 0 2000 0 
Q 2000 1425 1975 1925 
L 5625 1925 
z
M 5325 2525 
L 2250 2525 
Q 2275 2950 2275 3675 
Q 2275 4400 2250 4925 
L 5325 4925 
L 5325 2525 
z
M 4875 2950 
L 4875 3500 
L 2725 3500 
L 2725 2950 
L 4875 2950 
z
M 1550 1775 
Q 1375 1300 1162 600 
Q 950 -100 800 -500 
Q 550 -275 275 -175 
Q 525 250 787 950 
Q 1050 1650 1100 2075 
Q 1300 1875 1550 1775 
z
M 4875 3925 
L 4875 4450 
L 2725 4450 
L 2725 3925 
L 4875 3925 
z
M 5150 0 
L 5150 1500 
L 4525 1500 
L 4525 0 
L 5150 0 
z
M 4075 0 
L 4075 1500 
L 3475 1500 
L 3475 0 
L 4075 0 
z
M 3075 0 
L 3075 1500 
L 2475 1500 
L 2475 0 
L 3075 0 
z
M 875 5050 
Q 1475 4600 1825 4325 
Q 1675 4100 1525 3925 
Q 1300 4200 575 4700 
Q 750 4875 875 5050 
z
M 575 3625 
Q 1000 3400 1550 2900 
Q 1350 2750 1225 2550 
Q 975 2825 325 3300 
Q 425 3400 575 3625 
z
" transform="scale(0.015625)"/>
       <path id="SimHei-5ea6" d="M 1750 1675 
Q 2450 1650 2875 1650 
L 5200 1650 
Q 4975 1250 4650 850 
Q 4325 450 4025 200 
Q 4350 50 4950 -50 
Q 5550 -150 6100 -150 
Q 5950 -300 5825 -650 
Q 5100 -550 4550 -412 
Q 4000 -275 3625 -100 
Q 3100 -325 2587 -462 
Q 2075 -600 1525 -675 
Q 1450 -475 1225 -250 
Q 1675 -250 2250 -125 
Q 2825 0 3250 200 
Q 2825 550 2400 1275 
L 1750 1250 
L 1750 1675 
z
M 2975 5075 
Q 3250 5150 3475 5250 
Q 3625 4975 3775 4525 
L 4700 4525 
Q 4975 4525 5700 4550 
L 5700 4100 
Q 5000 4125 4650 4125 
L 1375 4125 
Q 1375 3000 1350 2312 
Q 1325 1625 1212 950 
Q 1100 275 725 -525 
Q 500 -375 250 -300 
Q 650 400 762 1075 
Q 875 1750 887 2800 
Q 900 3850 875 4525 
L 3200 4525 
Q 3100 4850 2975 5075 
z
M 2475 3300 
Q 2475 3700 2450 3925 
L 2975 3925 
Q 2950 3725 2950 3300 
L 4300 3300 
Q 4300 3700 4275 3950 
L 4800 3950 
Q 4775 3650 4775 3300 
Q 5325 3300 5725 3325 
L 5725 2900 
Q 5350 2925 4775 2925 
Q 4775 2250 4800 1950 
L 2450 1950 
Q 2475 2350 2475 2925 
Q 2175 2925 1600 2900 
L 1600 3325 
Q 2175 3300 2475 3300 
z
M 4300 2350 
L 4300 2925 
L 2950 2925 
L 2950 2350 
L 4300 2350 
z
M 2875 1275 
Q 3200 775 3650 425 
Q 4025 700 4425 1275 
L 2900 1275 
L 2875 1275 
z
" transform="scale(0.015625)"/>
       <path id="SimHei-2103" d="M 1050 5050 
Q 1500 5025 1675 4525 
L 1675 4300 
Q 1550 3900 1175 3825 
L 975 3825 
Q 500 3875 450 4450 
Q 475 4925 1025 5050 
L 1050 5050 
z
M 1025 4850 
Q 675 4750 650 4450 
Q 675 4125 950 4025 
L 1100 4000 
Q 1500 4125 1475 4475 
L 1475 4500 
Q 1375 4775 1150 4850 
L 1025 4850 
z
M 4025 4425 
Q 5375 4350 5750 3300 
L 5775 3250 
L 5300 3050 
Q 5000 3850 4300 3900 
L 3925 3925 
Q 2500 3850 2450 2025 
Q 2525 775 3475 425 
Q 3675 325 4125 350 
Q 4975 450 5400 1450 
L 5400 1475 
L 5900 1375 
L 5900 1350 
Q 5325 -75 4075 -125 
L 3725 -125 
Q 2400 100 2100 1175 
Q 1975 1525 1975 2100 
Q 2050 3550 2975 4125 
Q 3375 4400 3925 4425 
L 4025 4425 
z
" transform="scale(0.015625)"/>
      </defs>
      <use xlink:href="#SimHei-6e29"/>
      <use xlink:href="#SimHei-5ea6" transform="translate(100 0)"/>
      <use xlink:href="#SimHei-2f" transform="translate(200 0)"/>
      <use xlink:href="#SimHei-2103" transform="translate(250 0)"/>
     </g>
    </g>
   </g>
   <g id="line2d_31">
    <path d="M 59.512415 199.606193 
L 102.14892 165.948466 
L 144.785426 132.290739 
L 187.421932 132.290739 
L 230.058438 132.290739 
L 272.694943 115.461875 
L 315.331449 81.804148 
L 357.967955 48.14642 
L 400.60446 31.317557 
" clip-path="url(#pd5c21195f2)" style="fill: none; stroke: #0000ff; stroke-width: 2; stroke-linecap: square"/>
    <defs>
     <path id="mb64b0f969e" d="M 0 2 
C 0.530406 2 1.03916 1.789267 1.414214 1.414214 
C 1.789267 1.03916 2 0.530406 2 0 
C 2 -0.530406 1.789267 -1.03916 1.414214 -1.414214 
C 1.03916 -1.789267 0.530406 -2 0 -2 
C -0.530406 -2 -1.03916 -1.789267 -1.414214 -1.414214 
C -1.789267 -1.03916 -2 -0.530406 -2 0 
C -2 0.530406 -1.789267 1.03916 -1.414214 1.414214 
C -1.03916 1.789267 -0.530406 2 0 2 
z
" style="stroke: #0000ff"/>
    </defs>
    <g clip-path="url(#pd5c21195f2)">
     <use xlink:href="#mb64b0f969e" x="59.512415" y="199.606193" style="fill: #0000ff; stroke: #0000ff"/>
     <use xlink:href="#mb64b0f969e" x="102.14892" y="165.948466" style="fill: #0000ff; stroke: #0000ff"/>
     <use xlink:href="#mb64b0f969e" x="144.785426" y="132.290739" style="fill: #0000ff; stroke: #0000ff"/>
     <use xlink:href="#mb64b0f969e" x="187.421932" y="132.290739" style="fill: #0000ff; stroke: #0000ff"/>
     <use xlink:href="#mb64b0f969e" x="230.058438" y="132.290739" style="fill: #0000ff; stroke: #0000ff"/>
     <use xlink:href="#mb64b0f969e" x="272.694943" y="115.461875" style="fill: #0000ff; stroke: #0000ff"/>
     <use xlink:href="#mb64b0f969e" x="315.331449" y="81.804148" style="fill: #0000ff; stroke: #0000ff"/>
     <use xlink:href="#mb64b0f969e" x="357.967955" y="48.14642" style="fill: #0000ff; stroke: #0000ff"/>
     <use xlink:href="#mb64b0f969e" x="400.60446" y="31.317557" style="fill: #0000ff; stroke: #0000ff"/>
    </g>
   </g>
   <g id="line2d_32">
    <path d="M 42.457813 132.290739 
L 417.659063 132.290739 
" clip-path="url(#pd5c21195f2)" style="fill: none; stroke-dasharray: 5.55,2.4; stroke-dashoffset: 0; stroke: #808080; stroke-opacity: 0.5; stroke-width: 1.5"/>
   </g>
   <g id="patch_3">
    <path d="M 42.457813 208.020625 
L 42.457813 22.903125 
" style="fill: none; stroke: #000000; stroke-width: 0.8; stroke-linejoin: miter; stroke-linecap: square"/>
   </g>
   <g id="patch_4">
    <path d="M 417.659063 208.020625 
L 417.659063 22.903125 
" style="fill: none; stroke: #000000; stroke-width: 0.8; stroke-linejoin: miter; stroke-linecap: square"/>
   </g>
   <g id="patch_5">
    <path d="M 42.457813 208.020625 
L 417.659063 208.020625 
" style="fill: none; stroke: #000000; stroke-width: 0.8; stroke-linejoin: miter; stroke-linecap: square"/>
   </g>
   <g id="patch_6">
    <path d="M 42.457813 22.903125 
L 417.659063 22.903125 
" style="fill: none; stroke: #000000; stroke-width: 0.8; stroke-linejoin: miter; stroke-linecap: square"/>
   </g>
   <g id="text_18">
    <!-- 固液共存 -->
    <g style="fill: #e74c3c" transform="translate(148.103679 149.119602) scale(0.09 -0.09)">
     <defs>
      <path id="SimHei-56fa" d="M 5800 5025 
Q 5775 4350 5775 3600 
L 5775 925 
Q 5775 150 5800 -575 
L 5300 -575 
L 5300 -250 
L 1075 -250 
L 1075 -625 
L 575 -625 
Q 600 150 600 950 
L 600 3600 
Q 600 4325 575 5025 
L 5800 5025 
z
M 5300 200 
L 5300 4575 
L 1075 4575 
L 1075 200 
L 5300 200 
z
M 4875 3025 
Q 4650 3050 4050 3050 
L 3475 3050 
L 3475 2325 
L 4575 2325 
Q 4550 1900 4550 1475 
Q 4550 1075 4575 650 
L 1900 650 
Q 1925 1050 1925 1450 
Q 1925 1875 1900 2325 
L 3000 2325 
L 3000 3050 
L 2350 3050 
Q 2125 3050 1550 3025 
L 1550 3500 
Q 2125 3475 2350 3475 
L 3000 3475 
Q 3000 3850 2975 4225 
L 3500 4225 
Q 3475 3800 3475 3475 
L 4025 3475 
Q 4525 3475 4875 3500 
L 4875 3025 
z
M 4075 1075 
L 4075 1900 
L 2375 1900 
L 2375 1075 
L 4075 1075 
z
" transform="scale(0.015625)"/>
      <path id="SimHei-6db2" d="M 4800 3775 
Q 4625 3575 4500 3250 
L 5950 3250 
Q 5825 2550 5587 1737 
Q 5350 925 5025 500 
Q 5600 0 6200 -150 
Q 5875 -375 5800 -600 
Q 5175 -275 4700 175 
Q 4300 -200 3675 -600 
Q 3525 -375 3175 -200 
Q 3875 25 4400 525 
Q 4100 875 3725 1725 
Q 3650 1575 3500 1325 
Q 3325 1525 3100 1700 
Q 3375 1975 3725 2700 
Q 4075 3425 4200 3950 
Q 4450 3850 4800 3775 
z
M 3600 3725 
Q 3475 3600 3337 3337 
Q 3200 3075 2975 2675 
L 2975 250 
Q 2975 -100 3000 -625 
L 2475 -625 
Q 2500 -25 2500 325 
L 2500 2100 
Q 2300 1825 2000 1475 
Q 1875 1650 1625 1850 
Q 1925 2100 2200 2450 
Q 2475 2800 2712 3225 
Q 2950 3650 3025 3925 
Q 3350 3775 3600 3725 
z
M 4275 5300 
Q 4400 4975 4500 4550 
L 5275 4550 
Q 5650 4550 6100 4600 
L 6100 4125 
Q 5750 4150 5275 4150 
L 3025 4150 
Q 2625 4150 2175 4100 
L 2175 4600 
Q 2500 4550 2875 4550 
L 3925 4550 
Q 3875 4850 3725 5175 
Q 4025 5225 4275 5300 
z
M 4025 2200 
Q 4300 1400 4700 850 
Q 5125 1375 5375 2825 
L 4300 2825 
Q 4150 2475 4025 2200 
z
M 1550 1600 
Q 1325 875 1175 287 
Q 1025 -300 925 -625 
Q 650 -450 300 -375 
Q 500 -50 687 450 
Q 875 950 1100 1925 
Q 1325 1725 1550 1600 
z
M 550 3500 
Q 1200 3150 1625 2925 
Q 1400 2650 1300 2450 
Q 875 2725 275 3050 
Q 425 3300 550 3500 
z
M 975 5025 
Q 1400 4675 1950 4275 
Q 1775 4100 1600 3850 
Q 1175 4250 675 4625 
Q 850 4825 975 5025 
z
M 4850 2500 
Q 4925 2150 4975 1750 
Q 4700 1725 4525 1675 
Q 4475 2100 4400 2425 
Q 4575 2475 4850 2500 
z
" transform="scale(0.015625)"/>
      <path id="SimHei-5171" d="M 2025 3700 
Q 2025 4700 2000 5000 
L 2600 5000 
Q 2550 4700 2550 3700 
L 3925 3700 
Q 3925 4725 3900 5025 
L 4500 5025 
Q 4450 4725 4450 3700 
L 4950 3700 
Q 5400 3700 5725 3725 
L 5725 3275 
Q 5400 3300 4950 3300 
L 4450 3300 
L 4450 1850 
L 5300 1850 
Q 5750 1850 6050 1875 
L 6050 1425 
Q 5775 1450 5325 1450 
L 1075 1450 
Q 600 1450 325 1425 
L 325 1875 
Q 600 1850 1075 1850 
L 2025 1850 
L 2025 3300 
L 1600 3300 
Q 1000 3300 700 3275 
L 700 3725 
Q 1025 3700 1625 3700 
L 2025 3700 
z
M 3925 1850 
L 3925 3300 
L 2550 3300 
L 2550 1850 
L 3925 1850 
z
M 2875 725 
Q 2525 550 1962 137 
Q 1400 -275 850 -525 
Q 675 -275 450 -100 
Q 975 125 1437 412 
Q 1900 700 2325 1125 
Q 2600 900 2875 725 
z
M 4050 1125 
Q 4350 950 4925 600 
Q 5500 250 5925 -100 
Q 5700 -275 5525 -500 
Q 5100 -175 4587 162 
Q 4075 500 3675 700 
Q 3875 900 4050 1125 
z
" transform="scale(0.015625)"/>
      <path id="SimHei-5b58" d="M 1700 3100 
Q 2000 3475 2250 3950 
L 1650 3950 
Q 1200 3950 675 3925 
L 675 4400 
Q 1200 4375 1650 4375 
L 2400 4375 
Q 2600 4825 2700 5275 
Q 3050 5125 3350 5075 
Q 3125 4850 2925 4375 
L 4875 4375 
Q 5275 4375 5800 4400 
L 5800 3925 
Q 5275 3950 4850 3950 
L 2750 3950 
Q 2400 3275 1875 2550 
L 1875 250 
Q 1875 -175 1900 -575 
L 1400 -575 
Q 1425 -100 1425 250 
L 1425 2050 
Q 1025 1625 725 1350 
Q 525 1575 300 1675 
Q 600 1925 887 2175 
Q 1175 2425 1425 2750 
L 1375 3100 
L 1700 3100 
z
M 5625 3150 
L 5625 2675 
L 5000 2300 
Q 4750 2150 4475 1950 
L 4475 1650 
L 5175 1650 
Q 5600 1650 6050 1675 
L 6050 1200 
Q 5600 1225 5175 1225 
L 4475 1225 
L 4475 75 
Q 4500 -425 4187 -537 
Q 3875 -650 3475 -675 
Q 3425 -400 3300 -125 
Q 3675 -150 3837 -112 
Q 4000 -75 4000 100 
L 4000 1225 
L 3125 1225 
Q 2700 1225 2250 1200 
L 2250 1675 
Q 2700 1650 3125 1650 
L 4000 1650 
Q 4000 1900 3950 2125 
Q 4175 2225 4400 2375 
Q 4625 2525 4825 2725 
L 3375 2725 
Q 3050 2725 2675 2700 
L 2675 3175 
Q 3075 3150 3350 3150 
L 5625 3150 
z
" transform="scale(0.015625)"/>
     </defs>
     <use xlink:href="#SimHei-56fa"/>
     <use xlink:href="#SimHei-6db2" transform="translate(100 0)"/>
     <use xlink:href="#SimHei-5171" transform="translate(200 0)"/>
     <use xlink:href="#SimHei-5b58" transform="translate(300 0)"/>
    </g>
   </g>
   <g id="text_19">
    <!-- 晶体熔化曲线（冰） -->
    <g transform="translate(176.058438 16.903125) scale(0.12 -0.12)">
     <defs>
      <path id="SimHei-6676" d="M 4975 4975 
Q 4950 4525 4950 3900 
Q 4950 3275 4975 2800 
L 1425 2800 
Q 1450 3275 1450 3900 
Q 1450 4525 1425 4975 
L 4975 4975 
z
M 5825 2325 
Q 5800 1950 5800 950 
Q 5800 -50 5825 -575 
L 5350 -575 
L 5350 -175 
L 3900 -175 
L 3900 -525 
L 3425 -525 
Q 3450 -175 3450 875 
Q 3450 1950 3425 2325 
L 5825 2325 
z
M 2850 2300 
Q 2825 1925 2825 900 
Q 2825 -125 2850 -575 
L 2375 -575 
L 2375 -175 
L 1025 -175 
L 1025 -575 
L 550 -575 
Q 575 -250 575 825 
Q 575 1900 550 2300 
L 2850 2300 
z
M 4500 4100 
L 4500 4600 
L 1875 4600 
L 1875 4100 
L 4500 4100 
z
M 4500 3200 
L 4500 3700 
L 1875 3700 
L 1875 3200 
L 4500 3200 
z
M 5350 200 
L 5350 875 
L 3900 875 
L 3900 200 
L 5350 200 
z
M 5350 1250 
L 5350 1925 
L 3900 1925 
L 3900 1250 
L 5350 1250 
z
M 2375 1250 
L 2375 1925 
L 1025 1925 
L 1025 1250 
L 2375 1250 
z
M 2375 200 
L 2375 875 
L 1025 875 
L 1025 200 
L 2375 200 
z
" transform="scale(0.015625)"/>
      <path id="SimHei-4f53" d="M 3650 3850 
Q 3650 4750 3625 5125 
L 4125 5125 
Q 4100 4775 4100 3850 
L 5200 3850 
Q 5700 3850 5925 3875 
L 5925 3425 
Q 5700 3450 5200 3450 
L 4525 3450 
Q 4925 1850 6200 1200 
Q 5925 1050 5775 775 
Q 4425 1800 4100 3425 
L 4100 1025 
Q 4825 1025 5050 1050 
L 5050 600 
Q 4825 625 4100 625 
Q 4100 75 4125 -575 
L 3625 -575 
Q 3650 100 3650 625 
Q 3200 625 2700 600 
L 2700 1050 
Q 3200 1025 3650 1025 
L 3650 3450 
Q 3375 1800 2000 650 
Q 1850 875 1550 1025 
Q 2850 1875 3200 3450 
L 2675 3450 
Q 2275 3450 1975 3425 
L 1975 3875 
Q 2275 3850 2675 3850 
L 3650 3850 
z
M 2000 4900 
Q 1825 4675 1525 3775 
L 1525 575 
Q 1525 -200 1550 -550 
L 1050 -550 
Q 1075 -225 1075 550 
L 1075 2900 
Q 950 2625 575 2050 
Q 450 2275 225 2425 
Q 525 2725 925 3612 
Q 1325 4500 1425 5125 
Q 1700 5000 2000 4900 
z
" transform="scale(0.015625)"/>
      <path id="SimHei-7194" d="M 4350 2700 
Q 4575 2450 5012 2137 
Q 5450 1825 6150 1650 
Q 5950 1400 5850 1175 
Q 5500 1350 5300 1475 
Q 5300 -200 5325 -575 
L 4875 -575 
L 4875 -200 
L 3325 -200 
L 3325 -600 
L 2875 -600 
Q 2900 -125 2900 1425 
Q 2750 1300 2525 1150 
Q 2375 1400 2125 1575 
Q 2675 1750 3187 2187 
Q 3700 2625 4025 3150 
Q 4250 3000 4525 2875 
L 4350 2700 
z
M 2025 3850 
Q 2175 3675 2375 3475 
Q 2050 3300 1600 2975 
Q 1600 2525 1550 1700 
Q 2075 1200 2500 675 
Q 2275 525 2125 325 
Q 1850 850 1475 1200 
Q 1200 100 775 -550 
Q 550 -350 275 -300 
Q 650 150 850 650 
Q 1050 1150 1125 1775 
Q 1200 2400 1187 3237 
Q 1175 4075 1125 5100 
Q 1425 5050 1625 5050 
Q 1600 4525 1600 3425 
Q 1850 3625 2025 3850 
z
M 4275 5225 
Q 4375 4850 4425 4550 
L 5950 4550 
Q 5925 4275 5925 4000 
Q 5925 3725 5950 3475 
L 5450 3475 
L 5450 4175 
L 2925 4175 
L 2925 3350 
L 2450 3350 
Q 2475 3625 2475 3950 
Q 2475 4275 2450 4550 
L 3900 4550 
Q 3850 4875 3750 5150 
Q 4000 5175 4275 5225 
z
M 4875 150 
L 4875 1125 
L 3325 1125 
L 3325 150 
L 4875 150 
z
M 5275 1475 
Q 4725 1750 4100 2450 
Q 3525 1800 2975 1475 
L 5275 1475 
z
M 900 3650 
Q 875 2450 850 1975 
Q 600 2000 350 1975 
Q 450 2425 425 3675 
Q 675 3650 900 3650 
z
M 2500 2750 
Q 2775 2900 3012 3200 
Q 3250 3500 3400 3825 
Q 3575 3700 3850 3550 
Q 3350 2825 2900 2425 
Q 2700 2650 2500 2750 
z
M 4875 3825 
Q 5325 3375 5850 2900 
Q 5650 2775 5450 2550 
Q 5025 3100 4525 3525 
Q 4750 3675 4875 3825 
z
" transform="scale(0.015625)"/>
      <path id="SimHei-5316" d="M 3925 5025 
Q 3900 4900 3900 4400 
L 3900 2625 
Q 4375 3025 4775 3450 
Q 5175 3875 5400 4300 
Q 5600 4100 5900 3925 
Q 5700 3700 5225 3212 
Q 4750 2725 4487 2512 
Q 4225 2300 3900 2025 
L 3900 450 
Q 3900 50 4225 50 
L 5200 50 
Q 5400 75 5462 262 
Q 5525 450 5575 850 
Q 5800 650 6150 600 
Q 6000 -100 5825 -250 
Q 5650 -400 5350 -400 
L 3950 -400 
Q 3425 -400 3400 200 
L 3400 1675 
Q 3225 1525 2962 1350 
Q 2700 1175 2375 975 
Q 2225 1225 2025 1400 
Q 2350 1550 2737 1787 
Q 3125 2025 3400 2250 
L 3400 4500 
Q 3400 4800 3375 5025 
L 3925 5025 
z
M 2400 4850 
Q 2175 4550 2075 4337 
Q 1975 4125 1825 3775 
L 1825 675 
Q 1825 -75 1850 -550 
L 1325 -550 
Q 1350 -125 1350 650 
L 1350 3050 
Q 1125 2725 962 2525 
Q 800 2325 675 2175 
Q 500 2375 275 2525 
Q 625 2850 875 3212 
Q 1125 3575 1312 3912 
Q 1500 4250 1625 4575 
Q 1750 4900 1825 5100 
Q 1975 4975 2400 4850 
z
" transform="scale(0.015625)"/>
      <path id="SimHei-66f2" d="M 5825 500 
Q 5825 -200 5850 -550 
L 5275 -550 
L 5275 -50 
L 1150 -50 
L 1150 -550 
L 575 -550 
Q 600 125 600 550 
L 600 2775 
Q 600 3425 575 3900 
L 2150 3900 
L 2150 4450 
Q 2125 4850 2125 5150 
L 2700 5150 
Q 2650 4825 2650 4475 
L 2650 3900 
L 3700 3900 
L 3700 4525 
Q 3700 4850 3675 5175 
L 4250 5175 
Q 4225 4875 4225 4550 
L 4225 3900 
L 5850 3900 
Q 5825 3525 5825 2750 
L 5825 500 
z
M 3700 325 
L 3700 1875 
L 2650 1875 
L 2650 325 
L 3700 325 
z
M 5275 325 
L 5275 1875 
L 4225 1875 
L 4225 325 
L 5275 325 
z
M 2150 325 
L 2150 1875 
L 1150 1875 
L 1150 325 
L 2150 325 
z
M 3700 2250 
L 3700 3525 
L 2650 3525 
L 2650 2250 
L 3700 2250 
z
M 5275 2250 
L 5275 3525 
L 4225 3525 
L 4225 2250 
L 5275 2250 
z
M 2150 2250 
L 2150 3525 
L 1150 3525 
L 1150 2250 
L 2150 2250 
z
" transform="scale(0.015625)"/>
      <path id="SimHei-7ebf" d="M 3450 4300 
Q 3450 4675 3375 5125 
Q 3700 5100 4050 5050 
Q 3975 4900 3950 4562 
Q 3925 4225 3950 3600 
L 4800 3750 
Q 5225 3850 5650 3975 
L 5750 3500 
Q 5325 3450 4875 3375 
L 3975 3200 
Q 3975 2800 4025 2500 
L 5000 2675 
Q 5500 2775 5950 2925 
L 6025 2450 
Q 5575 2375 5075 2275 
L 4100 2100 
Q 4150 1600 4350 1175 
Q 4575 1350 4787 1575 
Q 5000 1800 5175 2075 
Q 5550 1775 5750 1675 
Q 5425 1525 5237 1337 
Q 5050 1150 4625 750 
Q 4925 250 5162 112 
Q 5400 -25 5500 100 
Q 5600 225 5675 625 
Q 5900 450 6200 350 
Q 5775 -750 5275 -537 
Q 4775 -325 4225 450 
Q 3875 175 3537 -62 
Q 3200 -300 2700 -550 
Q 2575 -300 2325 -100 
Q 2825 75 3175 275 
Q 3525 475 3975 850 
Q 3750 1350 3650 2025 
Q 2900 1900 2600 1800 
L 2525 2275 
Q 2825 2275 3550 2425 
Q 3500 2825 3500 3100 
Q 2825 2950 2575 2875 
L 2475 3350 
Q 2725 3350 3450 3500 
L 3450 4300 
z
M 1950 4875 
Q 1700 4650 1462 4237 
Q 1225 3825 825 3225 
Q 1425 3250 1650 3250 
Q 1875 3625 2050 4075 
Q 2300 3900 2600 3800 
Q 2350 3550 2087 3125 
Q 1825 2700 1175 1675 
Q 1850 1725 2375 1775 
Q 2300 1525 2300 1350 
Q 2125 1350 1525 1287 
Q 925 1225 550 1125 
Q 525 1375 400 1650 
Q 700 1725 950 2050 
Q 1200 2375 1475 2875 
Q 650 2825 425 2675 
Q 350 2950 200 3225 
Q 525 3450 825 3962 
Q 1125 4475 1375 5150 
Q 1625 4975 1950 4875 
z
M 2575 875 
Q 2550 600 2575 450 
Q 1950 325 1450 200 
Q 950 75 525 -75 
Q 450 200 250 475 
Q 950 550 1325 612 
Q 1700 675 2575 875 
z
M 4850 4025 
Q 4675 4300 4375 4675 
L 4775 4875 
Q 4875 4750 5275 4275 
Q 5025 4175 4850 4025 
z
" transform="scale(0.015625)"/>
      <path id="SimHei-ff08" d="M 5425 5100 
L 5700 4775 
Q 4275 3725 4325 2350 
Q 4350 1025 5675 50 
L 5400 -275 
Q 3875 825 3925 2500 
Q 3925 3875 5425 5100 
z
" transform="scale(0.015625)"/>
      <path id="SimHei-51b0" d="M 4150 5175 
Q 4100 4925 4100 4375 
Q 4100 3825 4162 3475 
Q 4225 3125 4375 2825 
Q 4975 3375 5325 4050 
Q 5550 3775 5825 3550 
Q 5550 3400 5312 3137 
Q 5075 2875 4575 2375 
Q 4900 1750 5225 1325 
Q 5550 900 6125 525 
Q 5775 375 5600 75 
Q 4625 950 4075 2450 
L 4075 150 
Q 4075 -375 3800 -475 
Q 3525 -575 3125 -650 
Q 3075 -300 2900 25 
Q 3300 -50 3450 0 
Q 3600 50 3600 350 
L 3600 4250 
Q 3600 4800 3575 5175 
L 4150 5175 
z
M 3300 3550 
Q 3200 2275 2912 1512 
Q 2625 750 1925 -100 
Q 1675 150 1375 275 
Q 1825 575 2275 1300 
Q 2725 2025 2825 3100 
Q 2200 3100 1850 3075 
L 1850 3575 
Q 2200 3550 2650 3550 
L 3300 3550 
z
M 1825 2250 
Q 1550 1800 1200 1162 
Q 850 525 675 175 
Q 450 475 225 650 
Q 675 1200 975 1725 
Q 1275 2250 1475 2675 
Q 1650 2400 1825 2250 
z
M 800 4650 
Q 1250 4125 1700 3525 
Q 1425 3350 1225 3175 
Q 1125 3400 400 4300 
Q 625 4475 800 4650 
z
" transform="scale(0.015625)"/>
      <path id="SimHei-ff09" d="M 1000 5100 
Q 2500 3875 2500 2500 
Q 2550 825 1025 -275 
L 750 50 
Q 2075 1025 2100 2350 
Q 2150 3725 725 4775 
L 1000 5100 
z
" transform="scale(0.015625)"/>
     </defs>
     <use xlink:href="#SimHei-6676"/>
     <use xlink:href="#SimHei-4f53" transform="translate(100 0)"/>
     <use xlink:href="#SimHei-7194" transform="translate(200 0)"/>
     <use xlink:href="#SimHei-5316" transform="translate(300 0)"/>
     <use xlink:href="#SimHei-66f2" transform="translate(400 0)"/>
     <use xlink:href="#SimHei-7ebf" transform="translate(500 0)"/>
     <use xlink:href="#SimHei-ff08" transform="translate(600 0)"/>
     <use xlink:href="#SimHei-51b0" transform="translate(700 0)"/>
     <use xlink:href="#SimHei-ff09" transform="translate(800 0)"/>
    </g>
   </g>
  </g>
 </g>
 <defs>
  <clipPath id="pd5c21195f2">
   <rect x="42.457813" y="22.903125" width="375.20125" height="185.1175"/>
  </clipPath>
 </defs>
</svg>
