<?xml version="1.0" encoding="utf-8" standalone="no"?>
<!DOCTYPE svg PUBLIC "-//W3C//DTD SVG 1.1//EN"
  "http://www.w3.org/Graphics/SVG/1.1/DTD/svg11.dtd">
<svg xmlns:xlink="http://www.w3.org/1999/xlink" width="360pt" height="252pt" viewBox="0 0 360 252" xmlns="http://www.w3.org/2000/svg" version="1.1">
 <metadata>
  <rdf:RDF xmlns:dc="http://purl.org/dc/elements/1.1/" xmlns:cc="http://creativecommons.org/ns#" xmlns:rdf="http://www.w3.org/1999/02/22-rdf-syntax-ns#">
   <cc:Work>
    <dc:type rdf:resource="http://purl.org/dc/dcmitype/StillImage"/>
    <dc:date>2026-05-22T22:12:49.950016</dc:date>
    <dc:format>image/svg+xml</dc:format>
    <dc:creator>
     <cc:Agent>
      <dc:title>Matplotlib v3.10.9, https://matplotlib.org/</dc:title>
     </cc:Agent>
    </dc:creator>
   </cc:Work>
  </rdf:RDF>
 </metadata>
 <defs>
  <style type="text/css">*{stroke-linejoin: round; stroke-linecap: butt}</style>
 </defs>
 <g id="figure_1">
  <g id="patch_1">
   <path d="M 0 252 
L 360 252 
L 360 0 
L 0 0 
z
" style="fill: #ffffff"/>
  </g>
  <g id="axes_1">
   <g id="patch_2">
    <path d="M 55.8 110.88 
L 88.2 110.88 
L 88.2 82.32 
L 55.8 82.32 
z
" clip-path="url(#p6deaa624de)" style="fill: #ffffff; stroke: #2c3e50; stroke-width: 2; stroke-linejoin: miter"/>
   </g>
   <g id="patch_3">
    <path d="M 261 115.64 
L 315 115.64 
L 315 77.56 
L 261 77.56 
z
" clip-path="url(#p6deaa624de)" style="fill: #f5f0fa; stroke: #8e44ad; stroke-width: 2; stroke-linejoin: miter"/>
   </g>
   <g id="line2d_1">
    <path d="M 72 49 
L 288 49 
" clip-path="url(#p6deaa624de)" style="fill: none; stroke: #000000; stroke-width: 2; stroke-linecap: square"/>
   </g>
   <g id="line2d_2">
    <path d="M 72 144.2 
L 288 144.2 
" clip-path="url(#p6deaa624de)" style="fill: none; stroke: #000000; stroke-width: 2; stroke-linecap: square"/>
   </g>
   <g id="line2d_3">
    <path d="M 72 144.2 
L 72 49 
" clip-path="url(#p6deaa624de)" style="fill: none; stroke: #000000; stroke-width: 2; stroke-linecap: square"/>
   </g>
   <g id="line2d_4">
    <path d="M 288 144.2 
L 288 49 
" clip-path="url(#p6deaa624de)" style="fill: none; stroke: #000000; stroke-width: 2; stroke-linecap: square"/>
   </g>
   <g id="line2d_5">
    <path d="M 55.8 101.36 
L 55.8 91.84 
" clip-path="url(#p6deaa624de)" style="fill: none; stroke: #000000; stroke-width: 3; stroke-linecap: square"/>
   </g>
   <g id="line2d_6">
    <path d="M 72 103.74 
L 72 89.46 
" clip-path="url(#p6deaa624de)" style="fill: none; stroke: #000000; stroke-width: 1.5; stroke-linecap: square"/>
   </g>
   <g id="text_1">
    <!-- E, r -->
    <g style="fill: #2c3e50" transform="translate(62.525625 129.92) scale(0.12 -0.12)">
     <defs>
      <path id="MicrosoftYaHei-Bold-45" d="M 3425 0 
L 559 0 
L 559 4841 
L 3313 4841 
L 3313 3997 
L 1591 3997 
L 1591 2856 
L 3191 2856 
L 3191 2016 
L 1591 2016 
L 1591 844 
L 3425 844 
L 3425 0 
z
" transform="scale(0.015625)"/>
      <path id="MicrosoftYaHei-Bold-2c" d="M 1419 841 
L 916 -859 
L 134 -859 
L 484 841 
L 1419 841 
z
" transform="scale(0.015625)"/>
      <path id="MicrosoftYaHei-Bold-20" transform="scale(0.015625)"/>
      <path id="MicrosoftYaHei-Bold-72" d="M 2663 2541 
Q 2478 2647 2216 2647 
Q 1872 2647 1670 2384 
Q 1469 2122 1469 1663 
L 1469 0 
L 459 0 
L 459 3456 
L 1469 3456 
L 1469 2806 
L 1481 2806 
Q 1731 3516 2391 3516 
Q 2569 3516 2663 3475 
L 2663 2541 
z
" transform="scale(0.015625)"/>
     </defs>
     <use xlink:href="#MicrosoftYaHei-Bold-45"/>
     <use xlink:href="#MicrosoftYaHei-Bold-2c" transform="translate(57.177734 0)"/>
     <use xlink:href="#MicrosoftYaHei-Bold-20" transform="translate(85.742188 0)"/>
     <use xlink:href="#MicrosoftYaHei-Bold-72" transform="translate(115.527344 0)"/>
    </g>
   </g>
   <g id="text_2">
    <!-- R -->
    <g style="fill: #8e44ad" transform="translate(283.461172 100.180078) scale(0.13 -0.13)">
     <defs>
      <path id="MicrosoftYaHei-Bold-52" d="M 4553 0 
L 3366 0 
L 2606 1259 
Q 2372 1650 2222 1762 
Q 2072 1875 1903 1875 
L 1591 1875 
L 1591 0 
L 559 0 
L 559 4841 
L 2256 4841 
Q 3984 4841 3984 3528 
Q 3984 3034 3695 2681 
Q 3406 2328 2900 2184 
L 2900 2172 
Q 3234 2059 3641 1434 
L 4553 0 
z
M 1591 4056 
L 1591 2663 
L 2097 2663 
Q 2459 2663 2679 2873 
Q 2900 3084 2900 3400 
Q 2900 4056 2116 4056 
L 1591 4056 
z
" transform="scale(0.015625)"/>
     </defs>
     <use xlink:href="#MicrosoftYaHei-Bold-52"/>
    </g>
   </g>
   <g id="patch_4">
    <path d="M 285.99939 72.8 
Q 180.000531 72.8 76.237741 72.8 
" style="fill: none; stroke: #e74c3c; stroke-width: 2; stroke-linecap: round"/>
    <path d="M 80.237741 74.8 
L 76.237741 72.8 
L 80.237741 70.8 
" style="fill: none; stroke: #e74c3c; stroke-width: 2; stroke-linecap: round"/>
   </g>
   <g id="text_3">
    <!-- I -->
    <g style="fill: #e74c3c" transform="translate(177.651719 63.28) scale(0.14 -0.14)">
     <defs>
      <path id="MicrosoftYaHei-Bold-49" d="M 1588 4841 
L 1588 0 
L 556 0 
L 556 4841 
L 1588 4841 
z
" transform="scale(0.015625)"/>
     </defs>
     <use xlink:href="#MicrosoftYaHei-Bold-49"/>
    </g>
   </g>
   <g id="text_4">
    <g id="patch_5">
     <path d="M 136.80375 202.1775 
L 223.19625 202.1775 
Q 229.59625 202.1775 229.59625 195.7775 
L 229.59625 179.01 
Q 229.59625 172.61 223.19625 172.61 
L 136.80375 172.61 
Q 130.40375 172.61 130.40375 179.01 
L 130.40375 195.7775 
Q 130.40375 202.1775 136.80375 202.1775 
z
" style="fill: #e8f8f5; stroke: #1abc9c; stroke-linejoin: miter"/>
    </g>
    <!-- I = E/(R+r) -->
    <g style="fill: #1a1a2e" transform="translate(136.80375 191.8) scale(0.16 -0.16)">
     <defs>
      <path id="MicrosoftYaHei-Bold-3d" d="M 4072 2378 
L 797 2378 
L 797 3041 
L 4072 3041 
L 4072 2378 
z
M 4072 916 
L 797 916 
L 797 1578 
L 4072 1578 
L 4072 916 
z
" transform="scale(0.015625)"/>
      <path id="MicrosoftYaHei-Bold-2f" d="M 3100 4841 
L 747 -803 
L -156 -803 
L 2188 4841 
L 3100 4841 
z
" transform="scale(0.015625)"/>
      <path id="MicrosoftYaHei-Bold-28" d="M 1606 -1100 
Q 525 97 525 1853 
Q 525 3550 1606 4841 
L 2431 4841 
Q 1406 3497 1406 1853 
Q 1406 216 2438 -1100 
L 1606 -1100 
z
" transform="scale(0.015625)"/>
      <path id="MicrosoftYaHei-Bold-2b" d="M 4072 1653 
L 2766 1653 
L 2766 347 
L 2109 347 
L 2109 1653 
L 797 1653 
L 797 2313 
L 2109 2313 
L 2109 3625 
L 2766 3625 
L 2766 2313 
L 4072 2313 
L 4072 1653 
z
" transform="scale(0.015625)"/>
      <path id="MicrosoftYaHei-Bold-29" d="M 59 -1100 
Q 1097 216 1097 1853 
Q 1097 3484 59 4841 
L 888 4841 
Q 1978 3544 1978 1853 
Q 1978 113 881 -1100 
L 59 -1100 
z
" transform="scale(0.015625)"/>
     </defs>
     <use xlink:href="#MicrosoftYaHei-Bold-49"/>
     <use xlink:href="#MicrosoftYaHei-Bold-20" transform="translate(33.544922 0)"/>
     <use xlink:href="#MicrosoftYaHei-Bold-3d" transform="translate(63.330078 0)"/>
     <use xlink:href="#MicrosoftYaHei-Bold-20" transform="translate(139.453125 0)"/>
     <use xlink:href="#MicrosoftYaHei-Bold-45" transform="translate(169.238281 0)"/>
     <use xlink:href="#MicrosoftYaHei-Bold-2f" transform="translate(226.416016 0)"/>
     <use xlink:href="#MicrosoftYaHei-Bold-28" transform="translate(273.681641 0)"/>
     <use xlink:href="#MicrosoftYaHei-Bold-52" transform="translate(312.646484 0)"/>
     <use xlink:href="#MicrosoftYaHei-Bold-2b" transform="translate(382.470703 0)"/>
     <use xlink:href="#MicrosoftYaHei-Bold-72" transform="translate(458.59375 0)"/>
     <use xlink:href="#MicrosoftYaHei-Bold-29" transform="translate(500.976562 0)"/>
    </g>
   </g>
   <g id="text_5">
    <!-- 路端电压 U = E − Ir = IR -->
    <g style="fill: #555555" transform="translate(112.70625 220.36) scale(0.12 -0.12)">
     <defs>
      <path id="MicrosoftYaHei-8def" d="M 481 2416 
L 894 2416 
L 894 106 
Q 1147 144 1413 184 
L 1413 3041 
L 913 3041 
L 913 2834 
L 463 2834 
L 463 4953 
L 2513 4953 
L 2513 3041 
L 1850 3041 
L 1850 1984 
L 2500 1984 
L 2500 1559 
L 1850 1559 
L 1850 250 
Q 2241 313 2650 384 
Q 2638 172 2638 -72 
Q 1419 -278 225 -484 
L 100 3 
Q 288 25 481 50 
L 481 2416 
z
M 2575 3428 
Q 3231 4234 3713 5359 
L 4175 5191 
Q 4041 4909 3906 4653 
L 5881 4653 
L 5881 4234 
Q 5472 3463 4797 2809 
Q 5413 2388 6313 2178 
Q 6188 1903 6106 1659 
Q 5125 1994 4441 2500 
Q 3759 1972 2788 1559 
Q 2725 1684 2538 2003 
Q 3384 2306 4072 2816 
Q 3694 3191 3391 3756 
Q 3138 3366 2888 3059 
Q 2738 3259 2575 3428 
z
M 3038 1584 
L 5756 1584 
L 5756 -847 
L 5288 -847 
L 5288 -547 
L 3506 -547 
L 3506 -847 
L 3038 -847 
L 3038 1584 
z
M 5288 1147 
L 3506 1147 
L 3506 -109 
L 5288 -109 
L 5288 1147 
z
M 2063 3466 
L 2063 4528 
L 913 4528 
L 913 3466 
L 2063 3466 
z
M 5344 4228 
L 3675 4228 
Q 3656 4197 3638 4166 
Q 3953 3531 4425 3103 
Q 4988 3606 5344 4228 
z
" transform="scale(0.015625)"/>
      <path id="MicrosoftYaHei-7aef" d="M 2263 2953 
L 6306 2953 
L 6306 2547 
L 4431 2547 
L 4259 1866 
L 6013 1866 
L 6013 -209 
Q 6013 -747 5538 -747 
Q 5375 -747 5081 -741 
Q 5038 -484 4956 -278 
Q 5169 -297 5388 -297 
Q 5575 -297 5575 -103 
L 5575 1478 
L 4931 1478 
L 4931 -484 
L 4513 -484 
L 4513 1478 
L 3894 1478 
L 3894 -447 
L 3475 -447 
L 3475 1478 
L 2850 1478 
L 2850 -803 
L 2413 -803 
L 2413 1866 
L 3806 1866 
L 3950 2547 
L 2263 2547 
L 2263 2953 
z
M 5406 3359 
L 5406 3553 
L 2581 3553 
L 2581 4959 
L 3019 4959 
L 3019 3941 
L 3988 3941 
L 3988 5353 
L 4438 5353 
L 4438 3941 
L 5406 3941 
L 5406 4959 
L 5844 4959 
L 5844 3359 
L 5406 3359 
z
M 2088 3178 
Q 1969 2256 1644 584 
Q 1966 653 2238 722 
Q 2231 478 2244 278 
Q 1538 103 181 -172 
L 88 297 
Q 716 400 1231 500 
Q 1538 2378 1644 3259 
L 2088 3178 
z
M 238 3091 
L 663 3184 
Q 869 2291 1075 991 
L 644 878 
Q 475 2128 238 3091 
z
M 156 4072 
L 2300 4072 
L 2300 3666 
L 156 3666 
L 156 4072 
z
M 669 5091 
L 1050 5316 
Q 1419 4859 1681 4378 
L 1269 4128 
Q 1044 4566 669 5091 
z
" transform="scale(0.015625)"/>
      <path id="MicrosoftYaHei-7535" d="M 406 4497 
L 2713 4497 
L 2713 5297 
L 3231 5297 
L 3231 4497 
L 5544 4497 
L 5544 984 
L 3231 984 
L 3231 253 
Q 3231 -128 3631 -128 
L 5094 -128 
Q 5519 -128 5613 153 
Q 5713 459 5756 1034 
Q 5938 953 6275 841 
Q 6200 341 6106 -16 
Q 5950 -603 5256 -603 
L 3594 -603 
Q 2713 -603 2713 259 
L 2713 984 
L 925 984 
L 925 553 
L 406 553 
L 406 4497 
z
M 5025 1453 
L 5025 2522 
L 3231 2522 
L 3231 1453 
L 5025 1453 
z
M 925 1453 
L 2713 1453 
L 2713 2522 
L 925 2522 
L 925 1453 
z
M 5025 4028 
L 3231 4028 
L 3231 2966 
L 5025 2966 
L 5025 4028 
z
M 925 2966 
L 2713 2966 
L 2713 4028 
L 925 4028 
L 925 2966 
z
" transform="scale(0.015625)"/>
      <path id="MicrosoftYaHei-538b" d="M 1363 3 
L 3538 3 
L 3538 2216 
L 1819 2216 
L 1819 2684 
L 3538 2684 
L 3538 4078 
L 4063 4078 
L 4063 2684 
L 5994 2684 
L 5994 2216 
L 4063 2216 
L 4063 3 
L 6250 3 
L 6250 -459 
L 1363 -459 
L 1363 3 
z
M 1363 2772 
Q 1363 1378 1188 672 
Q 1006 -59 488 -803 
Q 338 -622 100 -384 
Q 563 303 694 884 
Q 838 1459 838 2653 
L 838 4866 
L 6219 4866 
L 6219 4391 
L 1363 4391 
L 1363 2772 
z
M 4588 1516 
L 4938 1803 
Q 5413 1316 5881 791 
L 5469 459 
Q 4875 1191 4588 1516 
z
" transform="scale(0.015625)"/>
      <path id="MicrosoftYaHei-20" transform="scale(0.015625)"/>
      <path id="MicrosoftYaHei-55" d="M 4213 1972 
Q 4213 -81 2350 -81 
Q 566 -81 566 1900 
L 566 4841 
L 1191 4841 
L 1191 1928 
Q 1191 475 2409 475 
Q 3588 475 3588 1881 
L 3588 4841 
L 4213 4841 
L 4213 1972 
z
" transform="scale(0.015625)"/>
      <path id="MicrosoftYaHei-3d" d="M 3972 2497 
L 788 2497 
L 788 2969 
L 3972 2969 
L 3972 2497 
z
M 3972 1053 
L 788 1053 
L 788 1525 
L 3972 1525 
L 3972 1053 
z
" transform="scale(0.015625)"/>
      <path id="MicrosoftYaHei-45" d="M 3228 0 
L 625 0 
L 625 4841 
L 3119 4841 
L 3119 4284 
L 1250 4284 
L 1250 2734 
L 2981 2734 
L 2981 2181 
L 1250 2181 
L 1250 553 
L 3228 553 
L 3228 0 
z
" transform="scale(0.015625)"/>
      <path id="MicrosoftYaHei-2212" d="M 3972 1772 
L 788 1772 
L 788 2250 
L 3972 2250 
L 3972 1772 
z
" transform="scale(0.015625)"/>
      <path id="MicrosoftYaHei-49" d="M 1250 4841 
L 1250 0 
L 625 0 
L 625 4841 
L 1250 4841 
z
" transform="scale(0.015625)"/>
      <path id="MicrosoftYaHei-72" d="M 2400 2850 
Q 2247 2959 1978 2959 
Q 1622 2959 1390 2626 
Q 1159 2294 1159 1750 
L 1159 0 
L 547 0 
L 547 3456 
L 1159 3456 
L 1159 2753 
L 1172 2753 
Q 1434 3516 2078 3516 
Q 2288 3516 2400 3469 
L 2400 2850 
z
" transform="scale(0.015625)"/>
      <path id="MicrosoftYaHei-52" d="M 4159 0 
L 3422 0 
L 2619 1344 
Q 2378 1747 2178 1892 
Q 1978 2038 1700 2038 
L 1250 2038 
L 1250 0 
L 625 0 
L 625 4841 
L 2100 4841 
Q 2806 4841 3206 4500 
Q 3606 4159 3606 3547 
Q 3606 2541 2531 2241 
L 2531 2225 
Q 2731 2141 2876 1984 
Q 3022 1828 3253 1450 
L 4159 0 
z
M 1250 4294 
L 1250 2584 
L 1988 2584 
Q 2416 2584 2683 2834 
Q 2950 3084 2950 3491 
Q 2950 3869 2706 4081 
Q 2463 4294 1997 4294 
L 1250 4294 
z
" transform="scale(0.015625)"/>
     </defs>
     <use xlink:href="#MicrosoftYaHei-8def"/>
     <use xlink:href="#MicrosoftYaHei-7aef" transform="translate(100 0)"/>
     <use xlink:href="#MicrosoftYaHei-7535" transform="translate(200 0)"/>
     <use xlink:href="#MicrosoftYaHei-538b" transform="translate(300 0)"/>
     <use xlink:href="#MicrosoftYaHei-20" transform="translate(400 0)"/>
     <use xlink:href="#MicrosoftYaHei-55" transform="translate(429.589844 0)"/>
     <use xlink:href="#MicrosoftYaHei-20" transform="translate(504.248047 0)"/>
     <use xlink:href="#MicrosoftYaHei-3d" transform="translate(533.837891 0)"/>
     <use xlink:href="#MicrosoftYaHei-20" transform="translate(608.007812 0)"/>
     <use xlink:href="#MicrosoftYaHei-45" transform="translate(637.597656 0)"/>
     <use xlink:href="#MicrosoftYaHei-20" transform="translate(692.578125 0)"/>
     <use xlink:href="#MicrosoftYaHei-2212" transform="translate(722.167969 0)"/>
     <use xlink:href="#MicrosoftYaHei-20" transform="translate(796.337891 0)"/>
     <use xlink:href="#MicrosoftYaHei-49" transform="translate(825.927734 0)"/>
     <use xlink:href="#MicrosoftYaHei-72" transform="translate(855.322266 0)"/>
     <use xlink:href="#MicrosoftYaHei-20" transform="translate(893.505859 0)"/>
     <use xlink:href="#MicrosoftYaHei-3d" transform="translate(923.095703 0)"/>
     <use xlink:href="#MicrosoftYaHei-20" transform="translate(997.265625 0)"/>
     <use xlink:href="#MicrosoftYaHei-49" transform="translate(1026.855469 0)"/>
     <use xlink:href="#MicrosoftYaHei-52" transform="translate(1056.25 0)"/>
    </g>
   </g>
   <g id="text_6">
    <!-- 闭合电路欧姆定律 -->
    <g style="fill: #1a1a2e" transform="translate(128 17.2) scale(0.13 -0.13)">
     <defs>
      <path id="MicrosoftYaHei-95ed" d="M 1406 3253 
L 3563 3253 
L 3563 4172 
L 4025 4172 
L 4025 3253 
L 5138 3253 
L 5138 2803 
L 4025 2803 
L 4025 434 
Q 4025 -253 3319 -253 
Q 3063 -253 2500 -241 
Q 2463 47 2425 241 
Q 2894 209 3175 203 
Q 3556 203 3563 603 
L 3563 2278 
Q 2731 1172 1531 303 
Q 1388 491 1194 678 
Q 2541 1609 3416 2803 
L 1406 2803 
L 1406 3253 
z
M 2388 4478 
L 2388 4947 
L 6013 4947 
L 6013 116 
Q 6013 -791 5175 -791 
Q 4756 -791 4169 -778 
Q 4144 -591 4069 -272 
Q 4588 -309 5056 -309 
Q 5525 -309 5525 141 
L 5525 4478 
L 2388 4478 
z
M 419 4134 
L 906 4134 
L 906 -791 
L 419 -791 
L 419 4134 
z
M 744 5028 
L 1100 5341 
Q 1625 4853 2050 4391 
L 1644 4041 
Q 1206 4559 744 5028 
z
" transform="scale(0.015625)"/>
      <path id="MicrosoftYaHei-5408" d="M 1025 1909 
L 5381 1909 
L 5381 -866 
L 4881 -866 
L 4881 -447 
L 1525 -447 
L 1525 -878 
L 1025 -878 
L 1025 1909 
z
M 3700 5234 
L 3550 5053 
Q 4594 3697 6319 3009 
Q 6125 2734 5988 2509 
Q 5481 2753 5025 3059 
L 5025 2703 
L 1369 2703 
L 1369 3016 
Q 913 2716 394 2428 
Q 269 2641 81 2897 
Q 2013 3866 3000 5234 
L 3700 5234 
z
M 4881 1453 
L 1525 1453 
L 1525 -3 
L 4881 -3 
L 4881 1453 
z
M 3219 4691 
Q 2581 3872 1550 3147 
L 4894 3147 
Q 3944 3797 3219 4691 
z
" transform="scale(0.015625)"/>
      <path id="MicrosoftYaHei-6b27" d="M 400 4791 
L 3038 4791 
L 3038 4328 
L 863 4328 
L 863 316 
L 2925 316 
L 2925 -147 
L 400 -147 
L 400 4791 
z
M 4306 3684 
L 4775 3684 
Q 4778 3250 4763 2891 
Q 4997 391 6319 -378 
Q 6119 -597 5931 -809 
Q 4888 -47 4569 1653 
Q 4247 84 2969 -841 
Q 2775 -597 2625 -434 
Q 4088 553 4275 2372 
Q 4306 2734 4306 3684 
z
M 5306 2709 
Q 5563 3509 5706 3991 
L 3950 3991 
Q 3700 3203 3400 2547 
Q 3200 2653 2981 2741 
Q 3538 3916 3813 5316 
L 4288 5222 
Q 4194 4825 4088 4453 
L 6194 4453 
L 6194 3966 
Q 5988 3309 5763 2572 
Q 5519 2659 5306 2709 
z
M 1100 3603 
L 1475 3809 
Q 1797 3294 2078 2841 
Q 2359 3431 2606 4028 
L 3044 3828 
Q 2697 3050 2363 2384 
Q 2856 1588 3213 1009 
L 2794 759 
Q 2484 1294 2119 1906 
Q 1769 1244 1438 709 
Q 1244 834 1056 928 
Q 1478 1644 1844 2366 
Q 1497 2953 1100 3603 
z
" transform="scale(0.015625)"/>
      <path id="MicrosoftYaHei-59c6" d="M 2300 2834 
L 2734 2834 
L 2863 4934 
L 5775 4934 
Q 5759 3859 5738 2834 
L 6256 2834 
L 6256 2409 
L 5728 2409 
Q 5706 1559 5681 747 
L 6169 747 
L 6169 322 
L 5666 322 
Q 5663 269 5663 216 
Q 5650 -741 4750 -722 
Q 4381 -722 3913 -716 
Q 3888 -453 3819 -197 
Q 4281 -234 4694 -241 
Q 5166 -256 5184 322 
L 2581 322 
L 2706 2409 
L 2300 2409 
L 2300 2834 
z
M 2538 122 
L 2163 -259 
Q 1844 78 1503 406 
Q 1081 -247 381 -753 
Q 288 -566 94 -347 
Q 772 128 1153 738 
Q 759 1097 344 1447 
Q 556 2509 694 3603 
L 175 3603 
L 175 4072 
L 747 4072 
Q 819 4697 863 5334 
L 1356 5284 
Q 1291 4656 1219 4072 
L 2281 4072 
L 2281 3609 
Q 2206 1791 1744 841 
Q 2134 503 2538 122 
z
M 5250 2409 
L 3188 2409 
L 3088 747 
L 5200 747 
Q 5228 1569 5250 2409 
z
M 5288 4509 
L 3313 4509 
L 3213 2834 
L 5259 2834 
Q 5278 3663 5288 4509 
z
M 1372 1153 
Q 1781 2078 1813 3603 
L 1159 3603 
Q 1013 2516 838 1578 
Q 1103 1375 1372 1153 
z
M 3725 1903 
L 4113 2109 
Q 4388 1691 4650 1191 
L 4244 966 
Q 4006 1453 3725 1903 
z
M 3819 3991 
L 4200 4191 
Q 4481 3772 4706 3328 
L 4306 3103 
Q 4081 3572 3819 3991 
z
" transform="scale(0.015625)"/>
      <path id="MicrosoftYaHei-5b9a" d="M 81 -384 
Q 1119 509 1281 2241 
L 1806 2159 
Q 1731 1581 1578 1081 
Q 2063 50 3081 -103 
L 3081 2647 
L 225 2647 
L 225 3116 
L 6163 3116 
L 6163 2647 
L 3600 2647 
L 3600 1634 
L 5775 1634 
L 5775 1172 
L 3600 1172 
L 3600 -138 
Q 4844 -169 6306 -116 
Q 6200 -359 6125 -634 
Q 4594 -653 3450 -616 
Q 2041 -616 1378 528 
Q 1022 -300 413 -872 
Q 269 -628 81 -384 
z
M 450 4566 
L 3116 4566 
Q 2931 4834 2725 5091 
L 3200 5347 
Q 3444 5066 3731 4716 
L 3450 4566 
L 5981 4566 
L 5981 3378 
L 5488 3378 
L 5488 4097 
L 944 4097 
L 944 3384 
L 450 3384 
L 450 4566 
z
" transform="scale(0.015625)"/>
      <path id="MicrosoftYaHei-5f8b" d="M 2288 2666 
L 3681 2666 
L 3681 3253 
L 2063 3253 
L 2063 3653 
L 3681 3653 
L 3681 4234 
L 2338 4234 
L 2338 4634 
L 3681 4634 
L 3681 5291 
L 4150 5291 
L 4150 4634 
L 5700 4634 
L 5700 3653 
L 6313 3653 
L 6313 3253 
L 5700 3253 
L 5700 2034 
L 5238 2034 
L 5238 2266 
L 4150 2266 
L 4150 1634 
L 5900 1634 
L 5900 1234 
L 4150 1234 
L 4150 647 
L 6206 647 
L 6206 247 
L 4150 247 
L 4150 -828 
L 3681 -828 
L 3681 247 
L 1813 247 
L 1813 647 
L 3681 647 
L 3681 1234 
L 2163 1234 
L 2163 1634 
L 3681 1634 
L 3681 2266 
L 2288 2266 
L 2288 2666 
z
M 81 1634 
Q 850 2409 1550 3678 
L 1975 3453 
Q 1694 2963 1406 2531 
L 1406 -828 
L 944 -828 
L 944 1888 
Q 625 1475 300 1134 
Q 200 1409 81 1634 
z
M 106 3584 
Q 975 4284 1581 5341 
L 2019 5091 
Q 1363 4041 363 3134 
Q 256 3366 106 3584 
z
M 4150 2666 
L 5238 2666 
L 5238 3253 
L 4150 3253 
L 4150 2666 
z
M 5238 4234 
L 4150 4234 
L 4150 3653 
L 5238 3653 
L 5238 4234 
z
" transform="scale(0.015625)"/>
     </defs>
     <use xlink:href="#MicrosoftYaHei-95ed"/>
     <use xlink:href="#MicrosoftYaHei-5408" transform="translate(100 0)"/>
     <use xlink:href="#MicrosoftYaHei-7535" transform="translate(200 0)"/>
     <use xlink:href="#MicrosoftYaHei-8def" transform="translate(300 0)"/>
     <use xlink:href="#MicrosoftYaHei-6b27" transform="translate(400 0)"/>
     <use xlink:href="#MicrosoftYaHei-59c6" transform="translate(500 0)"/>
     <use xlink:href="#MicrosoftYaHei-5b9a" transform="translate(600 0)"/>
     <use xlink:href="#MicrosoftYaHei-5f8b" transform="translate(700 0)"/>
    </g>
   </g>
  </g>
 </g>
 <defs>
  <clipPath id="p6deaa624de">
   <rect x="18" y="25.2" width="324" height="214.2"/>
  </clipPath>
 </defs>
</svg>
