<?xml version="1.0" encoding="utf-8" standalone="no"?>
<!DOCTYPE svg PUBLIC "-//W3C//DTD SVG 1.1//EN"
  "http://www.w3.org/Graphics/SVG/1.1/DTD/svg11.dtd">
<svg xmlns:xlink="http://www.w3.org/1999/xlink" width="405pt" height="1949.021875pt" viewBox="0 0 405 1949.021875" xmlns="http://www.w3.org/2000/svg" version="1.1">
 <metadata>
  <rdf:RDF xmlns:dc="http://purl.org/dc/elements/1.1/" xmlns:cc="http://creativecommons.org/ns#" xmlns:rdf="http://www.w3.org/1999/02/22-rdf-syntax-ns#">
   <cc:Work>
    <dc:type rdf:resource="http://purl.org/dc/dcmitype/StillImage"/>
    <dc:date>2026-05-29T22:13:22.818625</dc:date>
    <dc:format>image/svg+xml</dc:format>
    <dc:creator>
     <cc:Agent>
      <dc:title>Matplotlib v3.10.9, https://matplotlib.org/</dc:title>
     </cc:Agent>
    </dc:creator>
   </cc:Work>
  </rdf:RDF>
 </metadata>
 <defs>
  <style type="text/css">*{stroke-linejoin: round; stroke-linecap: butt}</style>
 </defs>
 <g id="figure_1">
  <g id="patch_1">
   <path d="M 0 1949.021875 
L 405 1949.021875 
L 405 0 
L 0 0 
z
" style="fill: #ffffff"/>
  </g>
  <g id="axes_1">
   <g id="line2d_1">
    <path d="M 24.954545 275.193125 
L 380.045455 275.193125 
" clip-path="url(#p041c7808f3)" style="fill: none; stroke: #7f8c8d; stroke-width: 0.5; stroke-linecap: square"/>
   </g>
   <g id="text_1">
    <!-- 已知条件 - - -&gt; -->
    <g style="fill: #2c3e50" transform="translate(35.554274 217.593125) scale(0.09 -0.09)">
     <defs>
      <path id="MicrosoftYaHei-Bold-5df2" d="M 5363 1678 
Q 5913 1441 6319 1316 
Q 6172 563 6073 169 
Q 5975 -225 5639 -417 
Q 5303 -609 4731 -609 
L 2019 -609 
Q 681 -609 681 791 
L 681 3466 
L 1606 3466 
L 1606 2859 
L 4631 2859 
L 4631 4178 
L 513 4178 
L 513 5034 
L 5563 5034 
L 5563 2003 
L 1606 2003 
L 1606 878 
Q 1606 247 2200 247 
L 4531 247 
Q 4822 247 5001 337 
Q 5181 428 5225 661 
Q 5269 894 5363 1678 
z
" transform="scale(0.015625)"/>
      <path id="MicrosoftYaHei-Bold-77e5" d="M 138 2716 
L 1375 2716 
Q 1381 2800 1381 3734 
L 1128 3734 
Q 897 3213 613 2784 
Q 331 3153 50 3478 
Q 563 4272 806 5347 
L 1638 5203 
Q 1544 4844 1431 4516 
L 3038 4516 
L 3038 3734 
L 2219 3734 
L 2219 2716 
L 3200 2716 
L 3200 1934 
L 2153 1934 
Q 2128 1769 2091 1613 
Q 2728 991 3331 316 
L 2656 -297 
Q 2238 259 1809 763 
Q 1397 -163 569 -866 
Q 281 -384 38 -72 
Q 1019 681 1284 1934 
L 138 1934 
L 138 2716 
z
M 3356 -728 
L 3356 4803 
L 6050 4803 
L 6050 -691 
L 5194 -691 
L 5194 -166 
L 4213 -166 
L 4213 -728 
L 3356 -728 
z
M 5194 3984 
L 4213 3984 
L 4213 653 
L 5194 653 
L 5194 3984 
z
" transform="scale(0.015625)"/>
      <path id="MicrosoftYaHei-Bold-6761" d="M 5581 4797 
L 5581 4122 
Q 5034 3575 4253 3166 
Q 5059 3006 6244 2959 
Q 6069 2566 5906 2128 
Q 4203 2316 3169 2703 
Q 2028 2300 494 2091 
Q 331 2497 156 2872 
Q 1306 2963 2216 3184 
Q 1831 3434 1506 3753 
Q 1109 3422 656 3147 
Q 444 3434 150 3778 
Q 1381 4478 1956 5328 
L 2900 5328 
Q 2719 5050 2519 4797 
L 5581 4797 
z
M 3197 3491 
Q 3850 3747 4331 4103 
L 2203 4103 
Q 2672 3731 3197 3491 
z
M 425 1891 
L 2781 1891 
L 2781 2378 
L 3688 2378 
L 3688 1891 
L 6000 1891 
L 6000 1166 
L 3688 1166 
L 3688 191 
Q 3688 -194 3530 -422 
Q 3372 -650 3098 -715 
Q 2825 -781 1981 -791 
Q 1894 -341 1775 84 
Q 2163 53 2444 53 
Q 2781 53 2781 441 
L 2781 1166 
L 1763 1166 
L 2338 572 
Q 1481 -28 594 -609 
Q 356 -222 125 91 
Q 997 572 1734 1166 
L 425 1166 
L 425 1891 
z
M 4031 584 
L 4550 1147 
Q 5406 647 6263 47 
L 5725 -609 
L 4031 584 
z
" transform="scale(0.015625)"/>
      <path id="MicrosoftYaHei-Bold-4ef6" d="M 1944 1959 
L 3938 1959 
L 3938 3153 
L 3078 3153 
Q 2897 2563 2694 2097 
Q 2350 2284 1913 2466 
Q 2331 3472 2625 4903 
L 3469 4697 
Q 3388 4309 3300 3959 
L 3938 3959 
L 3938 5309 
L 4844 5309 
L 4844 3959 
L 6150 3959 
L 6150 3153 
L 4844 3153 
L 4844 1959 
L 6319 1959 
L 6319 1153 
L 4844 1153 
L 4844 -853 
L 3938 -853 
L 3938 1153 
L 1944 1153 
L 1944 1959 
z
M 1269 5303 
L 2131 5053 
Q 1906 4384 1669 3794 
L 1669 -847 
L 831 -847 
L 831 2000 
Q 578 1541 313 1153 
Q 200 1834 94 2322 
Q 750 3559 1269 5303 
z
" transform="scale(0.015625)"/>
      <path id="MicrosoftYaHei-Bold-20" transform="scale(0.015625)"/>
      <path id="MicrosoftYaHei-Bold-2d" d="M 2328 1497 
L 481 1497 
L 481 2209 
L 2328 2209 
L 2328 1497 
z
" transform="scale(0.015625)"/>
      <path id="MicrosoftYaHei-Bold-3e" d="M 4000 1716 
L 878 275 
L 878 1041 
L 3122 1959 
L 3122 1975 
L 878 2969 
L 878 3738 
L 4000 2222 
L 4000 1716 
z
" transform="scale(0.015625)"/>
     </defs>
     <use xlink:href="#MicrosoftYaHei-Bold-5df2"/>
     <use xlink:href="#MicrosoftYaHei-Bold-77e5" transform="translate(100 0)"/>
     <use xlink:href="#MicrosoftYaHei-Bold-6761" transform="translate(200 0)"/>
     <use xlink:href="#MicrosoftYaHei-Bold-4ef6" transform="translate(300 0)"/>
     <use xlink:href="#MicrosoftYaHei-Bold-20" transform="translate(400 0)"/>
     <use xlink:href="#MicrosoftYaHei-Bold-2d" transform="translate(429.785156 0)"/>
     <use xlink:href="#MicrosoftYaHei-Bold-2d" transform="translate(473.4375 0)"/>
     <use xlink:href="#MicrosoftYaHei-Bold-2d" transform="translate(517.089844 0)"/>
     <use xlink:href="#MicrosoftYaHei-Bold-3e" transform="translate(560.742188 0)"/>
    </g>
   </g>
   <g id="text_2">
    <!-- 公式 -->
    <g style="fill: #c0392b" transform="translate(242.248982 217.593125) scale(0.09 -0.09)">
     <defs>
      <path id="MicrosoftYaHei-Bold-516c" d="M 4500 5222 
Q 5206 3791 6313 2859 
Q 5856 2403 5600 2116 
Q 4494 3141 3681 4834 
L 4500 5222 
z
M 1869 5159 
L 2725 4797 
Q 2038 3241 750 2053 
Q 538 2328 125 2778 
Q 1263 3784 1869 5159 
z
M 4269 2059 
Q 5250 872 6031 -297 
L 5213 -866 
Q 5059 -606 4884 -331 
L 1628 -500 
Q 1313 -534 981 -616 
L 594 228 
Q 1016 472 1717 1503 
Q 2419 2534 2781 3241 
L 3706 2828 
Q 2644 1184 1969 428 
Q 3194 456 4322 506 
Q 3959 1025 3525 1591 
L 4269 2059 
z
" transform="scale(0.015625)"/>
      <path id="MicrosoftYaHei-Bold-5f0f" d="M 100 4222 
L 3350 4222 
L 3281 5322 
L 4219 5322 
Q 4234 4769 4266 4222 
L 5125 4222 
Q 4856 4572 4594 4853 
L 5150 5272 
Q 5519 4891 5863 4478 
L 5531 4222 
L 6169 4222 
L 6169 3397 
L 4322 3397 
Q 4463 1363 4698 727 
Q 4934 91 5144 91 
Q 5200 91 5247 156 
Q 5294 222 5358 530 
Q 5422 838 5481 1347 
Q 5913 1072 6300 909 
Q 6131 -263 5887 -561 
Q 5644 -859 5150 -859 
Q 4269 -859 3916 128 
Q 3563 1116 3409 3397 
L 100 3397 
L 100 4222 
z
M 375 2716 
L 3200 2716 
L 3200 1897 
L 2263 1897 
L 2263 681 
L 3500 866 
Q 3481 253 3488 -34 
L 200 -516 
L 94 416 
L 1369 566 
L 1369 1897 
L 375 1897 
L 375 2716 
z
" transform="scale(0.015625)"/>
     </defs>
     <use xlink:href="#MicrosoftYaHei-Bold-516c"/>
     <use xlink:href="#MicrosoftYaHei-Bold-5f0f" transform="translate(100 0)"/>
    </g>
   </g>
   <g id="text_3">
    <!-- - - - &gt; 所求 -->
    <g style="fill: #2c3e50" transform="translate(327.046811 217.593125) scale(0.09 -0.09)">
     <defs>
      <path id="MicrosoftYaHei-Bold-6240" d="M 6300 2484 
L 5600 2484 
L 5600 -803 
L 4775 -803 
L 4775 2484 
L 4113 2484 
L 4113 2303 
Q 4113 188 3281 -866 
Q 2900 -509 2538 -259 
Q 3300 566 3300 2334 
L 3300 4841 
Q 4919 4972 5925 5291 
L 6281 4453 
Q 5400 4228 4113 4097 
L 4113 3259 
L 6300 3259 
L 6300 2484 
z
M 2856 1178 
L 1316 1178 
Q 1225 -225 788 -859 
Q 463 -491 81 -147 
Q 550 591 538 2134 
L 538 4784 
Q 1788 4878 2756 5228 
L 3113 4409 
Q 2250 4184 1338 4128 
L 1338 3503 
L 2856 3503 
L 2856 1178 
z
M 1338 1891 
L 2069 1891 
L 2069 2791 
L 1338 2791 
L 1338 1891 
z
" transform="scale(0.015625)"/>
      <path id="MicrosoftYaHei-Bold-6c42" d="M 6119 2716 
L 4691 1650 
Q 5353 1041 6306 722 
Q 6050 316 5788 -178 
Q 4369 459 3600 1766 
L 3600 309 
Q 3600 -191 3372 -461 
Q 3144 -731 2651 -764 
Q 2159 -797 1700 -797 
Q 1606 -297 1475 159 
Q 1900 134 2206 134 
Q 2725 134 2725 641 
L 2725 1216 
Q 1434 544 506 9 
L 94 834 
Q 1531 1438 2725 2081 
L 2725 3516 
L 200 3516 
L 200 4291 
L 2725 4291 
L 2725 5328 
L 3600 5328 
L 3600 4291 
L 4950 4291 
Q 4581 4578 4169 4847 
L 4719 5347 
Q 5175 5066 5656 4703 
L 5203 4291 
L 6213 4291 
L 6213 3516 
L 3600 3516 
L 3600 3294 
Q 3828 2694 4178 2219 
Q 4894 2763 5506 3359 
L 6119 2716 
z
M 1044 3303 
Q 1681 2841 2263 2341 
L 1688 1759 
Q 1144 2253 513 2753 
L 1044 3303 
z
" transform="scale(0.015625)"/>
     </defs>
     <use xlink:href="#MicrosoftYaHei-Bold-2d"/>
     <use xlink:href="#MicrosoftYaHei-Bold-2d" transform="translate(43.652344 0)"/>
     <use xlink:href="#MicrosoftYaHei-Bold-2d" transform="translate(87.304688 0)"/>
     <use xlink:href="#MicrosoftYaHei-Bold-20" transform="translate(130.957031 0)"/>
     <use xlink:href="#MicrosoftYaHei-Bold-3e" transform="translate(160.742188 0)"/>
     <use xlink:href="#MicrosoftYaHei-Bold-20" transform="translate(236.865234 0)"/>
     <use xlink:href="#MicrosoftYaHei-Bold-6240" transform="translate(266.650391 0)"/>
     <use xlink:href="#MicrosoftYaHei-Bold-6c42" transform="translate(366.650391 0)"/>
    </g>
   </g>
   <g id="text_4">
    <!-- 已知: m, g  求: G -->
    <g style="fill: #2c3e50" transform="translate(35.554274 447.993125) scale(0.075 -0.075)">
     <defs>
      <path id="MicrosoftYaHei-5df2" d="M 738 3684 
L 1275 3684 
L 1275 2828 
L 5013 2828 
L 5013 4434 
L 506 4434 
L 506 4897 
L 5538 4897 
L 5538 1984 
L 5013 1984 
L 5013 2366 
L 1275 2366 
L 1275 547 
Q 1275 -28 1819 -28 
L 4900 -28 
Q 5438 -28 5550 359 
Q 5663 741 5719 1378 
Q 5963 1272 6256 1191 
Q 6169 541 6069 153 
Q 5881 -553 5019 -553 
L 1694 -553 
Q 738 -553 738 434 
L 738 3684 
z
" transform="scale(0.015625)"/>
      <path id="MicrosoftYaHei-77e5" d="M 3375 4641 
L 6038 4641 
L 6038 -684 
L 5544 -684 
L 5544 -53 
L 3869 -53 
L 3869 -684 
L 3375 -684 
L 3375 4641 
z
M 138 2528 
L 1419 2528 
Q 1456 3103 1463 3978 
L 931 3978 
Q 744 3447 544 3028 
Q 263 3147 69 3216 
Q 556 4147 844 5341 
L 1331 5228 
Q 1213 4803 1088 4428 
L 2994 4428 
L 2994 3978 
L 1963 3978 
Q 1956 3116 1925 2528 
L 3119 2528 
L 3119 2078 
L 1888 2078 
Q 1869 1916 1850 1772 
Q 2644 872 3206 153 
L 2781 -166 
Q 2181 634 1713 1184 
Q 1356 -16 381 -834 
Q 219 -616 31 -403 
Q 1206 547 1381 2078 
L 138 2078 
L 138 2528 
z
M 5544 4178 
L 3869 4178 
L 3869 397 
L 5544 397 
L 5544 4178 
z
" transform="scale(0.015625)"/>
      <path id="MicrosoftYaHei-3a" d="M 372 3134 
Q 372 3303 490 3415 
Q 609 3528 775 3528 
Q 944 3528 1062 3414 
Q 1181 3300 1181 3134 
Q 1181 2969 1065 2853 
Q 950 2738 772 2738 
Q 603 2738 487 2853 
Q 372 2969 372 3134 
z
M 372 322 
Q 372 491 487 606 
Q 603 722 775 722 
Q 950 722 1065 605 
Q 1181 488 1181 322 
Q 1181 159 1065 42 
Q 950 -75 772 -75 
Q 600 -75 486 42 
Q 372 159 372 322 
z
" transform="scale(0.015625)"/>
      <path id="MicrosoftYaHei-20" transform="scale(0.015625)"/>
      <path id="MicrosoftYaHei-6d" d="M 5522 0 
L 4909 0 
L 4909 1984 
Q 4909 2547 4734 2789 
Q 4559 3031 4159 3031 
Q 3822 3031 3581 2715 
Q 3341 2400 3341 1969 
L 3341 0 
L 2728 0 
L 2728 2047 
Q 2728 3031 1969 3031 
Q 1619 3031 1389 2731 
Q 1159 2431 1159 1966 
L 1159 0 
L 547 0 
L 547 3456 
L 1159 3456 
L 1159 2909 
L 1172 2909 
Q 1541 3538 2250 3538 
Q 2597 3538 2862 3347 
Q 3128 3156 3231 2831 
Q 3616 3538 4381 3538 
Q 5522 3538 5522 2131 
L 5522 0 
z
" transform="scale(0.015625)"/>
      <path id="MicrosoftYaHei-2c" d="M 1109 778 
L 575 -888 
L 131 -888 
L 519 778 
L 1109 778 
z
" transform="scale(0.015625)"/>
      <path id="MicrosoftYaHei-67" d="M 3547 291 
Q 3547 -1628 1684 -1628 
Q 1041 -1628 566 -1388 
L 566 -797 
Q 1144 -1119 1675 -1119 
Q 2934 -1119 2934 206 
L 2934 572 
L 2922 572 
Q 2528 -81 1747 -81 
Q 1097 -81 706 384 
Q 316 850 316 1619 
Q 316 2503 747 3020 
Q 1178 3538 1897 3538 
Q 2588 3538 2922 2988 
L 2934 2988 
L 2934 3456 
L 3547 3456 
L 3547 291 
z
M 2934 2056 
Q 2938 2456 2666 2743 
Q 2394 3031 1997 3031 
Q 1497 3031 1219 2664 
Q 941 2297 941 1656 
Q 941 1106 1209 765 
Q 1478 425 1922 425 
Q 2369 425 2653 750 
Q 2938 1075 2934 1575 
L 2934 2056 
z
" transform="scale(0.015625)"/>
      <path id="MicrosoftYaHei-6c42" d="M 225 4178 
L 2969 4178 
L 2969 5309 
L 3494 5309 
L 3494 4178 
L 6225 4178 
L 6225 3728 
L 3494 3728 
L 3494 3341 
Q 3800 2641 4219 2066 
Q 4869 2628 5444 3316 
L 5888 2947 
Q 5119 2184 4525 1684 
Q 5275 809 6319 284 
Q 6088 16 5944 -203 
Q 4331 741 3494 2322 
L 3494 28 
Q 3494 -778 2650 -778 
Q 2200 -778 1819 -766 
Q 1781 -509 1719 -209 
Q 2213 -266 2525 -266 
Q 2969 -266 2969 191 
L 2969 1372 
Q 1494 616 400 -3 
L 131 509 
Q 1438 1116 2969 1953 
L 2969 3728 
L 225 3728 
L 225 4178 
z
M 1144 3353 
Q 1644 2859 2163 2247 
Q 1969 2084 1731 1897 
Q 1294 2466 769 3047 
L 1144 3353 
z
M 4069 4978 
L 4369 5309 
Q 4963 4934 5313 4628 
L 4975 4253 
Q 4606 4578 4069 4978 
z
" transform="scale(0.015625)"/>
      <path id="MicrosoftYaHei-47" d="M 4284 331 
Q 3559 -81 2647 -81 
Q 1597 -81 955 583 
Q 313 1247 313 2356 
Q 313 3478 1022 4200 
Q 1731 4922 2841 4922 
Q 3625 4922 4169 4672 
L 4169 3997 
Q 3588 4363 2784 4363 
Q 1994 4363 1481 3822 
Q 969 3281 969 2397 
Q 969 1488 1441 981 
Q 1913 475 2716 475 
Q 3269 475 3656 688 
L 3656 1997 
L 2606 1997 
L 2606 2550 
L 4284 2550 
L 4284 331 
z
" transform="scale(0.015625)"/>
     </defs>
     <use xlink:href="#MicrosoftYaHei-5df2"/>
     <use xlink:href="#MicrosoftYaHei-77e5" transform="translate(100 0)"/>
     <use xlink:href="#MicrosoftYaHei-3a" transform="translate(200 0)"/>
     <use xlink:href="#MicrosoftYaHei-20" transform="translate(224.072266 0)"/>
     <use xlink:href="#MicrosoftYaHei-6d" transform="translate(253.662109 0)"/>
     <use xlink:href="#MicrosoftYaHei-2c" transform="translate(347.363281 0)"/>
     <use xlink:href="#MicrosoftYaHei-20" transform="translate(371.435547 0)"/>
     <use xlink:href="#MicrosoftYaHei-67" transform="translate(401.025391 0)"/>
     <use xlink:href="#MicrosoftYaHei-20" transform="translate(464.990234 0)"/>
     <use xlink:href="#MicrosoftYaHei-20" transform="translate(494.580078 0)"/>
     <use xlink:href="#MicrosoftYaHei-6c42" transform="translate(524.169922 0)"/>
     <use xlink:href="#MicrosoftYaHei-3a" transform="translate(624.169922 0)"/>
     <use xlink:href="#MicrosoftYaHei-20" transform="translate(648.242188 0)"/>
     <use xlink:href="#MicrosoftYaHei-47" transform="translate(677.832031 0)"/>
    </g>
   </g>
   <g id="text_5">
    <g id="patch_2">
     <path d="M 242.248982 450.820625 
L 272.396482 450.820625 
Q 273.196482 450.820625 273.196482 450.020625 
L 273.196482 441.636875 
Q 273.196482 440.836875 272.396482 440.836875 
L 242.248982 440.836875 
Q 241.448982 440.836875 241.448982 441.636875 
L 241.448982 450.020625 
Q 241.448982 450.820625 242.248982 450.820625 
z
" style="fill: #fadbd8"/>
    </g>
    <!-- G = mg -->
    <g style="fill: #c0392b" transform="translate(242.248982 447.993125) scale(0.08 -0.08)">
     <defs>
      <path id="MicrosoftYaHei-Bold-47" d="M 4494 325 
Q 3784 -84 2750 -84 
Q 1594 -84 925 566 
Q 256 1216 256 2344 
Q 256 3488 992 4205 
Q 1728 4922 2931 4922 
Q 3706 4922 4284 4703 
L 4284 3725 
Q 3722 4053 2909 4053 
Q 2209 4053 1775 3597 
Q 1341 3141 1341 2394 
Q 1341 1634 1733 1209 
Q 2125 784 2803 784 
Q 3206 784 3463 909 
L 3463 1903 
L 2484 1903 
L 2484 2731 
L 4494 2731 
L 4494 325 
z
" transform="scale(0.015625)"/>
      <path id="MicrosoftYaHei-Bold-3d" d="M 4072 2378 
L 797 2378 
L 797 3041 
L 4072 3041 
L 4072 2378 
z
M 4072 916 
L 797 916 
L 797 1578 
L 4072 1578 
L 4072 916 
z
" transform="scale(0.015625)"/>
      <path id="MicrosoftYaHei-Bold-6d" d="M 5881 0 
L 4875 0 
L 4875 1972 
Q 4875 2766 4297 2766 
Q 4028 2766 3850 2525 
Q 3672 2284 3672 1938 
L 3672 0 
L 2666 0 
L 2666 1997 
Q 2666 2766 2094 2766 
Q 1809 2766 1639 2536 
Q 1469 2306 1469 1928 
L 1469 0 
L 459 0 
L 459 3456 
L 1469 3456 
L 1469 2916 
L 1481 2916 
Q 1663 3213 1963 3377 
Q 2263 3541 2594 3541 
Q 3322 3541 3591 2888 
Q 3991 3541 4753 3541 
Q 5881 3541 5881 2147 
L 5881 0 
z
" transform="scale(0.015625)"/>
      <path id="MicrosoftYaHei-Bold-67" d="M 3800 381 
Q 3800 -581 3251 -1101 
Q 2703 -1622 1672 -1622 
Q 972 -1622 559 -1422 
L 559 -559 
Q 1097 -872 1644 -872 
Q 2184 -872 2489 -583 
Q 2794 -294 2794 219 
L 2794 506 
L 2778 506 
Q 2413 -84 1691 -84 
Q 1038 -84 645 381 
Q 253 847 253 1628 
Q 253 2500 686 3020 
Q 1119 3541 1822 3541 
Q 2459 3541 2778 3044 
L 2794 3044 
L 2794 3456 
L 3800 3456 
L 3800 381 
z
M 2803 1950 
Q 2803 2294 2595 2530 
Q 2388 2766 2072 2766 
Q 1703 2766 1489 2477 
Q 1275 2188 1275 1666 
Q 1275 1213 1481 952 
Q 1688 691 2028 691 
Q 2372 691 2587 956 
Q 2803 1222 2803 1647 
L 2803 1950 
z
" transform="scale(0.015625)"/>
     </defs>
     <use xlink:href="#MicrosoftYaHei-Bold-47"/>
     <use xlink:href="#MicrosoftYaHei-Bold-20" transform="translate(76.513672 0)"/>
     <use xlink:href="#MicrosoftYaHei-Bold-3d" transform="translate(106.298828 0)"/>
     <use xlink:href="#MicrosoftYaHei-Bold-20" transform="translate(182.421875 0)"/>
     <use xlink:href="#MicrosoftYaHei-Bold-6d" transform="translate(212.207031 0)"/>
     <use xlink:href="#MicrosoftYaHei-Bold-67" transform="translate(310.400391 0)"/>
    </g>
   </g>
   <g id="text_6">
    <!-- 重力 -->
    <g style="fill: #27ae60" transform="translate(327.046811 447.993125) scale(0.075 -0.075)">
     <defs>
      <path id="MicrosoftYaHei-91cd" d="M 113 -203 
L 2975 -203 
L 2975 259 
L 600 259 
L 600 628 
L 2975 628 
L 2975 1153 
L 1288 1153 
L 1288 928 
L 850 928 
L 850 3278 
L 2975 3278 
L 2975 3728 
L 163 3728 
L 163 4116 
L 2975 4116 
L 2975 4606 
Q 1841 4572 625 4547 
Q 588 4747 538 4972 
Q 3706 5009 5669 5141 
L 5744 4716 
Q 4631 4663 3425 4619 
L 3425 4116 
L 6263 4116 
L 6263 3728 
L 3425 3728 
L 3425 3278 
L 5569 3278 
L 5569 934 
L 5131 934 
L 5131 1153 
L 3425 1153 
L 3425 628 
L 5806 628 
L 5806 259 
L 3425 259 
L 3425 -203 
L 6263 -203 
L 6263 -591 
L 113 -591 
L 113 -203 
z
M 3425 1516 
L 5131 1516 
L 5131 2053 
L 3425 2053 
L 3425 1516 
z
M 1288 1516 
L 2975 1516 
L 2975 2053 
L 1288 2053 
L 1288 1516 
z
M 5131 2916 
L 3425 2916 
L 3425 2384 
L 5131 2384 
L 5131 2916 
z
M 1288 2384 
L 2975 2384 
L 2975 2916 
L 1288 2916 
L 1288 2384 
z
" transform="scale(0.015625)"/>
      <path id="MicrosoftYaHei-529b" d="M 400 3916 
L 2425 3916 
Q 2444 4603 2450 5316 
L 2994 5316 
Q 2981 4653 2963 3916 
L 5831 3916 
Q 5756 1472 5688 459 
Q 5606 -616 4538 -628 
Q 4025 -628 3300 -603 
Q 3275 -359 3206 -9 
L 3225 -9 
Q 4038 -84 4488 -78 
Q 5094 -66 5156 591 
Q 5231 1709 5269 3403 
L 2950 3403 
Q 2894 1775 2431 953 
Q 1938 41 506 -803 
Q 331 -578 131 -328 
Q 1488 434 1913 1209 
Q 2353 1913 2406 3403 
L 400 3403 
L 400 3916 
z
" transform="scale(0.015625)"/>
     </defs>
     <use xlink:href="#MicrosoftYaHei-91cd"/>
     <use xlink:href="#MicrosoftYaHei-529b" transform="translate(100 0)"/>
    </g>
   </g>
   <g id="text_7">
    <!-- 已知: rho, V  求: m -->
    <g style="fill: #2c3e50" transform="translate(35.554274 661.113125) scale(0.075 -0.075)">
     <defs>
      <path id="MicrosoftYaHei-72" d="M 2400 2850 
Q 2247 2959 1978 2959 
Q 1622 2959 1390 2626 
Q 1159 2294 1159 1750 
L 1159 0 
L 547 0 
L 547 3456 
L 1159 3456 
L 1159 2753 
L 1172 2753 
Q 1434 3516 2078 3516 
Q 2288 3516 2400 3469 
L 2400 2850 
z
" transform="scale(0.015625)"/>
      <path id="MicrosoftYaHei-68" d="M 3466 0 
L 2856 0 
L 2856 1988 
Q 2856 3031 2081 3031 
Q 1684 3031 1421 2726 
Q 1159 2422 1159 1959 
L 1159 0 
L 547 0 
L 547 5116 
L 1159 5116 
L 1159 2888 
L 1172 2888 
Q 1569 3538 2300 3538 
Q 3466 3538 3466 2128 
L 3466 0 
z
" transform="scale(0.015625)"/>
      <path id="MicrosoftYaHei-6f" d="M 316 1691 
Q 316 2547 794 3042 
Q 1272 3538 2091 3538 
Q 2869 3538 3311 3061 
Q 3753 2584 3753 1744 
Q 3753 925 3281 422 
Q 2809 -81 2016 -81 
Q 1241 -81 778 406 
Q 316 894 316 1691 
z
M 941 1709 
Q 941 1113 1242 769 
Q 1544 425 2053 425 
Q 2578 425 2853 761 
Q 3128 1097 3128 1725 
Q 3128 2356 2853 2693 
Q 2578 3031 2053 3031 
Q 1538 3031 1239 2678 
Q 941 2325 941 1709 
z
" transform="scale(0.015625)"/>
      <path id="MicrosoftYaHei-56" d="M 4272 4841 
L 2494 0 
L 1800 0 
L 56 4841 
L 750 4841 
L 2053 1056 
Q 2119 869 2150 622 
L 2166 622 
Q 2191 838 2275 1063 
L 3603 4841 
L 4272 4841 
z
" transform="scale(0.015625)"/>
     </defs>
     <use xlink:href="#MicrosoftYaHei-5df2"/>
     <use xlink:href="#MicrosoftYaHei-77e5" transform="translate(100 0)"/>
     <use xlink:href="#MicrosoftYaHei-3a" transform="translate(200 0)"/>
     <use xlink:href="#MicrosoftYaHei-20" transform="translate(224.072266 0)"/>
     <use xlink:href="#MicrosoftYaHei-72" transform="translate(253.662109 0)"/>
     <use xlink:href="#MicrosoftYaHei-68" transform="translate(291.845703 0)"/>
     <use xlink:href="#MicrosoftYaHei-6f" transform="translate(353.417969 0)"/>
     <use xlink:href="#MicrosoftYaHei-2c" transform="translate(416.992188 0)"/>
     <use xlink:href="#MicrosoftYaHei-20" transform="translate(441.064453 0)"/>
     <use xlink:href="#MicrosoftYaHei-56" transform="translate(470.654297 0)"/>
     <use xlink:href="#MicrosoftYaHei-20" transform="translate(538.28125 0)"/>
     <use xlink:href="#MicrosoftYaHei-20" transform="translate(567.871094 0)"/>
     <use xlink:href="#MicrosoftYaHei-6c42" transform="translate(597.460938 0)"/>
     <use xlink:href="#MicrosoftYaHei-3a" transform="translate(697.460938 0)"/>
     <use xlink:href="#MicrosoftYaHei-20" transform="translate(721.533203 0)"/>
     <use xlink:href="#MicrosoftYaHei-6d" transform="translate(751.123047 0)"/>
    </g>
   </g>
   <g id="text_8">
    <g id="patch_3">
     <path d="M 242.248982 663.901875 
L 282.892732 663.901875 
Q 283.692732 663.901875 283.692732 663.101875 
L 283.692732 654.718125 
Q 283.692732 653.918125 282.892732 653.918125 
L 242.248982 653.918125 
Q 241.448982 653.918125 241.448982 654.718125 
L 241.448982 663.101875 
Q 241.448982 663.901875 242.248982 663.901875 
z
" style="fill: #fadbd8"/>
    </g>
    <!-- m = rho V -->
    <g style="fill: #c0392b" transform="translate(242.248982 661.113125) scale(0.08 -0.08)">
     <defs>
      <path id="MicrosoftYaHei-Bold-72" d="M 2663 2541 
Q 2478 2647 2216 2647 
Q 1872 2647 1670 2384 
Q 1469 2122 1469 1663 
L 1469 0 
L 459 0 
L 459 3456 
L 1469 3456 
L 1469 2806 
L 1481 2806 
Q 1731 3516 2391 3516 
Q 2569 3516 2663 3475 
L 2663 2541 
z
" transform="scale(0.015625)"/>
      <path id="MicrosoftYaHei-Bold-68" d="M 3725 0 
L 2719 0 
L 2719 1969 
Q 2719 2766 2138 2766 
Q 1847 2766 1658 2544 
Q 1469 2322 1469 1969 
L 1469 0 
L 459 0 
L 459 5116 
L 1469 5116 
L 1469 2938 
L 1481 2938 
Q 1878 3541 2550 3541 
Q 3725 3541 3725 2122 
L 3725 0 
z
" transform="scale(0.015625)"/>
      <path id="MicrosoftYaHei-Bold-6f" d="M 253 1713 
Q 253 2566 764 3053 
Q 1275 3541 2138 3541 
Q 2972 3541 3462 3061 
Q 3953 2581 3953 1772 
Q 3953 922 3450 419 
Q 2947 -84 2088 -84 
Q 1244 -84 748 398 
Q 253 881 253 1713 
z
M 1275 1725 
Q 1275 691 2119 691 
Q 2928 691 2928 1753 
Q 2928 2766 2113 2766 
Q 1716 2766 1495 2494 
Q 1275 2222 1275 1725 
z
" transform="scale(0.015625)"/>
      <path id="MicrosoftYaHei-Bold-56" d="M 4541 4841 
L 2859 0 
L 1694 0 
L 34 4841 
L 1147 4841 
L 2194 1419 
Q 2272 1166 2291 941 
L 2309 941 
Q 2334 1172 2416 1431 
L 3463 4841 
L 4541 4841 
z
" transform="scale(0.015625)"/>
     </defs>
     <use xlink:href="#MicrosoftYaHei-Bold-6d"/>
     <use xlink:href="#MicrosoftYaHei-Bold-20" transform="translate(98.193359 0)"/>
     <use xlink:href="#MicrosoftYaHei-Bold-3d" transform="translate(127.978516 0)"/>
     <use xlink:href="#MicrosoftYaHei-Bold-20" transform="translate(204.101562 0)"/>
     <use xlink:href="#MicrosoftYaHei-Bold-72" transform="translate(233.886719 0)"/>
     <use xlink:href="#MicrosoftYaHei-Bold-68" transform="translate(276.519531 0)"/>
     <use xlink:href="#MicrosoftYaHei-Bold-6f" transform="translate(341.070312 0)"/>
     <use xlink:href="#MicrosoftYaHei-Bold-20" transform="translate(406.792969 0)"/>
     <use xlink:href="#MicrosoftYaHei-Bold-56" transform="translate(436.578125 0)"/>
    </g>
   </g>
   <g id="text_9">
    <!-- 质量 -->
    <g style="fill: #27ae60" transform="translate(327.046811 661.113125) scale(0.075 -0.075)">
     <defs>
      <path id="MicrosoftYaHei-8d28" d="M 1838 2628 
L 3500 2628 
L 3500 3353 
L 1450 3353 
L 1450 3791 
L 3500 3791 
L 3500 4472 
L 4000 4472 
L 4000 3791 
L 6125 3791 
L 6125 3353 
L 4000 3353 
L 4000 2628 
L 5681 2628 
L 5681 428 
L 5194 428 
L 5194 2191 
L 2325 2191 
L 2325 428 
L 1838 428 
L 1838 2628 
z
M 713 4934 
Q 3744 4947 5988 5197 
L 6163 4709 
Q 3813 4541 1213 4497 
L 1213 2578 
Q 1213 178 406 -872 
Q 219 -653 31 -466 
Q 713 372 713 2534 
L 713 4934 
z
M 4000 1866 
Q 4013 1053 3919 691 
Q 5063 191 6263 -403 
L 5994 -866 
Q 4794 -203 3763 272 
Q 3275 -559 1344 -884 
Q 1238 -684 1075 -428 
Q 3019 -128 3350 534 
Q 3525 822 3513 1866 
L 4000 1866 
z
" transform="scale(0.015625)"/>
      <path id="MicrosoftYaHei-91cf" d="M 113 -278 
L 2981 -278 
L 2981 78 
L 475 78 
L 475 403 
L 2981 403 
L 2981 759 
L 1494 759 
L 1494 597 
L 1069 597 
L 1069 2516 
L 5350 2516 
L 5350 597 
L 4925 597 
L 4925 759 
L 3419 759 
L 3419 403 
L 5931 403 
L 5931 78 
L 3419 78 
L 3419 -278 
L 6288 -278 
L 6288 -616 
L 113 -616 
L 113 -278 
z
M 1119 5072 
L 5306 5072 
L 5306 3284 
L 4881 3284 
L 4881 3453 
L 1544 3453 
L 1544 3284 
L 1119 3284 
L 1119 5072 
z
M 163 3153 
L 6263 3153 
L 6263 2816 
L 163 2816 
L 163 3153 
z
M 1544 3778 
L 4881 3778 
L 4881 4116 
L 1544 4116 
L 1544 3778 
z
M 4881 4747 
L 1544 4747 
L 1544 4416 
L 4881 4416 
L 4881 4747 
z
M 3419 1084 
L 4925 1084 
L 4925 1491 
L 3419 1491 
L 3419 1084 
z
M 1494 1084 
L 2981 1084 
L 2981 1491 
L 1494 1491 
L 1494 1084 
z
M 4925 2191 
L 3419 2191 
L 3419 1791 
L 4925 1791 
L 4925 2191 
z
M 1494 1791 
L 2981 1791 
L 2981 2191 
L 1494 2191 
L 1494 1791 
z
" transform="scale(0.015625)"/>
     </defs>
     <use xlink:href="#MicrosoftYaHei-8d28"/>
     <use xlink:href="#MicrosoftYaHei-91cf" transform="translate(100 0)"/>
    </g>
   </g>
   <g id="text_10">
    <!-- 已知: F, S  求: p -->
    <g style="fill: #2c3e50" transform="translate(35.554274 874.233125) scale(0.075 -0.075)">
     <defs>
      <path id="MicrosoftYaHei-46" d="M 3119 4284 
L 1250 4284 
L 1250 2666 
L 2981 2666 
L 2981 2116 
L 1250 2116 
L 1250 0 
L 625 0 
L 625 4841 
L 3119 4841 
L 3119 4284 
z
" transform="scale(0.015625)"/>
      <path id="MicrosoftYaHei-53" d="M 400 909 
Q 622 716 994 591 
Q 1366 466 1700 466 
Q 2719 466 2719 1191 
Q 2719 1394 2609 1556 
Q 2500 1719 2309 1844 
Q 2119 1969 1594 2228 
Q 866 2591 634 2902 
Q 403 3213 403 3613 
Q 403 4216 887 4569 
Q 1372 4922 2109 4922 
Q 2831 4922 3169 4747 
L 3169 4066 
Q 2731 4369 2063 4369 
Q 1619 4369 1339 4183 
Q 1059 3997 1059 3666 
Q 1059 3372 1253 3187 
Q 1447 3003 2094 2684 
Q 2806 2344 3090 2003 
Q 3375 1663 3375 1238 
Q 3375 600 2912 259 
Q 2450 -81 1628 -81 
Q 1341 -81 958 -1 
Q 575 78 400 197 
L 400 909 
z
" transform="scale(0.015625)"/>
      <path id="MicrosoftYaHei-70" d="M 1159 488 
L 1159 -1591 
L 547 -1591 
L 547 3456 
L 1159 3456 
L 1159 2859 
L 1172 2859 
Q 1578 3538 2359 3538 
Q 3022 3538 3398 3073 
Q 3775 2609 3775 1828 
Q 3775 966 3348 442 
Q 2922 -81 2200 -81 
Q 1534 -81 1172 488 
L 1159 488 
z
M 1156 1425 
Q 1156 1003 1428 714 
Q 1700 425 2109 425 
Q 2597 425 2872 800 
Q 3147 1175 3147 1838 
Q 3147 2397 2890 2714 
Q 2634 3031 2191 3031 
Q 1738 3031 1447 2709 
Q 1156 2388 1156 1884 
L 1156 1425 
z
" transform="scale(0.015625)"/>
     </defs>
     <use xlink:href="#MicrosoftYaHei-5df2"/>
     <use xlink:href="#MicrosoftYaHei-77e5" transform="translate(100 0)"/>
     <use xlink:href="#MicrosoftYaHei-3a" transform="translate(200 0)"/>
     <use xlink:href="#MicrosoftYaHei-20" transform="translate(224.072266 0)"/>
     <use xlink:href="#MicrosoftYaHei-46" transform="translate(253.662109 0)"/>
     <use xlink:href="#MicrosoftYaHei-2c" transform="translate(298.662109 0)"/>
     <use xlink:href="#MicrosoftYaHei-20" transform="translate(322.734375 0)"/>
     <use xlink:href="#MicrosoftYaHei-53" transform="translate(352.324219 0)"/>
     <use xlink:href="#MicrosoftYaHei-20" transform="translate(410.039062 0)"/>
     <use xlink:href="#MicrosoftYaHei-20" transform="translate(439.628906 0)"/>
     <use xlink:href="#MicrosoftYaHei-6c42" transform="translate(469.21875 0)"/>
     <use xlink:href="#MicrosoftYaHei-3a" transform="translate(569.21875 0)"/>
     <use xlink:href="#MicrosoftYaHei-20" transform="translate(593.291016 0)"/>
     <use xlink:href="#MicrosoftYaHei-70" transform="translate(622.880859 0)"/>
    </g>
   </g>
   <g id="text_11">
    <g id="patch_4">
     <path d="M 242.248982 877.021875 
L 271.491482 877.021875 
Q 272.291482 877.021875 272.291482 876.221875 
L 272.291482 867.838125 
Q 272.291482 867.038125 271.491482 867.038125 
L 242.248982 867.038125 
Q 241.448982 867.038125 241.448982 867.838125 
L 241.448982 876.221875 
Q 241.448982 877.021875 242.248982 877.021875 
z
" style="fill: #fadbd8"/>
    </g>
    <!-- p = F/S -->
    <g style="fill: #c0392b" transform="translate(242.248982 874.233125) scale(0.08 -0.08)">
     <defs>
      <path id="MicrosoftYaHei-Bold-70" d="M 1469 416 
L 1469 -1591 
L 459 -1591 
L 459 3456 
L 1469 3456 
L 1469 2928 
L 1481 2928 
Q 1878 3541 2603 3541 
Q 3263 3541 3634 3080 
Q 4006 2619 4006 1825 
Q 4006 959 3575 437 
Q 3144 -84 2444 -84 
Q 1809 -84 1481 416 
L 1469 416 
z
M 1453 1528 
Q 1453 1159 1653 925 
Q 1853 691 2172 691 
Q 2550 691 2761 984 
Q 2972 1278 2972 1816 
Q 2972 2766 2231 2766 
Q 1888 2766 1670 2503 
Q 1453 2241 1453 1828 
L 1453 1528 
z
" transform="scale(0.015625)"/>
      <path id="MicrosoftYaHei-Bold-46" d="M 3319 3997 
L 1591 3997 
L 1591 2753 
L 3181 2753 
L 3181 1909 
L 1591 1909 
L 1591 0 
L 559 0 
L 559 4841 
L 3319 4841 
L 3319 3997 
z
" transform="scale(0.015625)"/>
      <path id="MicrosoftYaHei-Bold-2f" d="M 3100 4841 
L 747 -803 
L -156 -803 
L 2188 4841 
L 3100 4841 
z
" transform="scale(0.015625)"/>
      <path id="MicrosoftYaHei-Bold-53" d="M 338 1219 
Q 922 734 1666 734 
Q 2088 734 2300 879 
Q 2513 1025 2513 1253 
Q 2513 1450 2344 1625 
Q 2175 1800 1453 2100 
Q 319 2581 319 3500 
Q 319 4175 833 4548 
Q 1347 4922 2194 4922 
Q 2903 4922 3384 4738 
L 3384 3769 
Q 2897 4100 2244 4100 
Q 1863 4100 1634 3961 
Q 1406 3822 1406 3588 
Q 1406 3400 1562 3242 
Q 1719 3084 2334 2816 
Q 3056 2506 3326 2162 
Q 3597 1819 3597 1344 
Q 3597 647 3103 281 
Q 2609 -84 1700 -84 
Q 869 -84 338 184 
L 338 1219 
z
" transform="scale(0.015625)"/>
     </defs>
     <use xlink:href="#MicrosoftYaHei-Bold-70"/>
     <use xlink:href="#MicrosoftYaHei-Bold-20" transform="translate(66.601562 0)"/>
     <use xlink:href="#MicrosoftYaHei-Bold-3d" transform="translate(96.386719 0)"/>
     <use xlink:href="#MicrosoftYaHei-Bold-20" transform="translate(172.509766 0)"/>
     <use xlink:href="#MicrosoftYaHei-Bold-46" transform="translate(202.294922 0)"/>
     <use xlink:href="#MicrosoftYaHei-Bold-2f" transform="translate(258.105469 0)"/>
     <use xlink:href="#MicrosoftYaHei-Bold-53" transform="translate(305.371094 0)"/>
    </g>
   </g>
   <g id="text_12">
    <!-- 压强 -->
    <g style="fill: #27ae60" transform="translate(327.046811 874.233125) scale(0.075 -0.075)">
     <defs>
      <path id="MicrosoftYaHei-538b" d="M 1363 3 
L 3538 3 
L 3538 2216 
L 1819 2216 
L 1819 2684 
L 3538 2684 
L 3538 4078 
L 4063 4078 
L 4063 2684 
L 5994 2684 
L 5994 2216 
L 4063 2216 
L 4063 3 
L 6250 3 
L 6250 -459 
L 1363 -459 
L 1363 3 
z
M 1363 2772 
Q 1363 1378 1188 672 
Q 1006 -59 488 -803 
Q 338 -622 100 -384 
Q 563 303 694 884 
Q 838 1459 838 2653 
L 838 4866 
L 6219 4866 
L 6219 4391 
L 1363 4391 
L 1363 2772 
z
M 4588 1516 
L 4938 1803 
Q 5413 1316 5881 791 
L 5469 459 
Q 4875 1191 4588 1516 
z
" transform="scale(0.015625)"/>
      <path id="MicrosoftYaHei-5f3a" d="M 5250 466 
L 5669 666 
Q 6031 28 6363 -641 
L 5894 -878 
Q 5794 -641 5688 -416 
Q 3750 -547 2219 -653 
L 2150 -134 
Q 3088 -97 3969 -59 
L 3969 866 
L 2894 866 
L 2894 622 
L 2431 622 
L 2431 2616 
L 3969 2616 
L 3969 3297 
L 3144 3297 
L 3144 3047 
L 2681 3047 
L 2681 4972 
L 5731 4972 
L 5731 3047 
L 5269 3047 
L 5269 3297 
L 4444 3297 
L 4444 2616 
L 5988 2616 
L 5988 866 
L 4444 866 
L 4444 -41 
Q 4975 -22 5488 3 
Q 5369 241 5250 466 
z
M 425 3466 
L 1650 3466 
L 1650 4516 
L 238 4516 
L 238 4941 
L 2113 4941 
L 2113 2772 
L 1650 2772 
L 1650 3041 
L 831 3041 
L 719 2072 
L 2056 2072 
Q 1994 741 1944 128 
Q 1888 -722 1100 -722 
Q 819 -722 425 -716 
Q 388 -484 325 -216 
Q 731 -247 1019 -247 
Q 1444 -247 1475 191 
Q 1525 828 1563 1647 
L 225 1647 
L 425 3466 
z
M 5269 4547 
L 3144 4547 
L 3144 3722 
L 5269 3722 
L 5269 4547 
z
M 5525 1291 
L 5525 2191 
L 4444 2191 
L 4444 1291 
L 5525 1291 
z
M 2894 1291 
L 3969 1291 
L 3969 2191 
L 2894 2191 
L 2894 1291 
z
" transform="scale(0.015625)"/>
     </defs>
     <use xlink:href="#MicrosoftYaHei-538b"/>
     <use xlink:href="#MicrosoftYaHei-5f3a" transform="translate(100 0)"/>
    </g>
   </g>
   <g id="text_13">
    <!-- 已知: rho, g, h  求: p -->
    <g style="fill: #2c3e50" transform="translate(35.554274 1087.353125) scale(0.075 -0.075)">
     <use xlink:href="#MicrosoftYaHei-5df2"/>
     <use xlink:href="#MicrosoftYaHei-77e5" transform="translate(100 0)"/>
     <use xlink:href="#MicrosoftYaHei-3a" transform="translate(200 0)"/>
     <use xlink:href="#MicrosoftYaHei-20" transform="translate(224.072266 0)"/>
     <use xlink:href="#MicrosoftYaHei-72" transform="translate(253.662109 0)"/>
     <use xlink:href="#MicrosoftYaHei-68" transform="translate(291.845703 0)"/>
     <use xlink:href="#MicrosoftYaHei-6f" transform="translate(353.417969 0)"/>
     <use xlink:href="#MicrosoftYaHei-2c" transform="translate(416.992188 0)"/>
     <use xlink:href="#MicrosoftYaHei-20" transform="translate(441.064453 0)"/>
     <use xlink:href="#MicrosoftYaHei-67" transform="translate(470.654297 0)"/>
     <use xlink:href="#MicrosoftYaHei-2c" transform="translate(534.619141 0)"/>
     <use xlink:href="#MicrosoftYaHei-20" transform="translate(558.691406 0)"/>
     <use xlink:href="#MicrosoftYaHei-68" transform="translate(588.28125 0)"/>
     <use xlink:href="#MicrosoftYaHei-20" transform="translate(649.853516 0)"/>
     <use xlink:href="#MicrosoftYaHei-20" transform="translate(679.443359 0)"/>
     <use xlink:href="#MicrosoftYaHei-6c42" transform="translate(709.033203 0)"/>
     <use xlink:href="#MicrosoftYaHei-3a" transform="translate(809.033203 0)"/>
     <use xlink:href="#MicrosoftYaHei-20" transform="translate(833.105469 0)"/>
     <use xlink:href="#MicrosoftYaHei-70" transform="translate(862.695312 0)"/>
    </g>
   </g>
   <g id="text_14">
    <g id="patch_5">
     <path d="M 242.248982 1090.180625 
L 287.510232 1090.180625 
Q 288.310232 1090.180625 288.310232 1089.380625 
L 288.310232 1080.958125 
Q 288.310232 1080.158125 287.510232 1080.158125 
L 242.248982 1080.158125 
Q 241.448982 1080.158125 241.448982 1080.958125 
L 241.448982 1089.380625 
Q 241.448982 1090.180625 242.248982 1090.180625 
z
" style="fill: #fadbd8"/>
    </g>
    <!-- p = rho g h -->
    <g style="fill: #c0392b" transform="translate(242.248982 1087.353125) scale(0.08 -0.08)">
     <use xlink:href="#MicrosoftYaHei-Bold-70"/>
     <use xlink:href="#MicrosoftYaHei-Bold-20" transform="translate(66.601562 0)"/>
     <use xlink:href="#MicrosoftYaHei-Bold-3d" transform="translate(96.386719 0)"/>
     <use xlink:href="#MicrosoftYaHei-Bold-20" transform="translate(172.509766 0)"/>
     <use xlink:href="#MicrosoftYaHei-Bold-72" transform="translate(202.294922 0)"/>
     <use xlink:href="#MicrosoftYaHei-Bold-68" transform="translate(244.927734 0)"/>
     <use xlink:href="#MicrosoftYaHei-Bold-6f" transform="translate(309.478516 0)"/>
     <use xlink:href="#MicrosoftYaHei-Bold-20" transform="translate(375.201172 0)"/>
     <use xlink:href="#MicrosoftYaHei-Bold-67" transform="translate(404.986328 0)"/>
     <use xlink:href="#MicrosoftYaHei-Bold-20" transform="translate(471.441406 0)"/>
     <use xlink:href="#MicrosoftYaHei-Bold-68" transform="translate(501.226562 0)"/>
    </g>
   </g>
   <g id="text_15">
    <!-- 液体压强 -->
    <g style="fill: #27ae60" transform="translate(327.046811 1087.353125) scale(0.075 -0.075)">
     <defs>
      <path id="MicrosoftYaHei-6db2" d="M 2750 1841 
Q 3575 2941 3875 4016 
L 4331 3916 
Q 4231 3584 4100 3266 
L 5881 3266 
L 5881 2847 
Q 5563 1328 4825 466 
Q 5381 -34 6294 -359 
Q 6213 -459 5975 -816 
Q 5069 -416 4494 122 
Q 3913 -416 3044 -878 
Q 2888 -653 2719 -459 
Q 3588 -22 4156 497 
Q 3694 1072 3413 1972 
Q 3213 1672 2981 1372 
Q 2869 1634 2750 1841 
z
M 1381 1747 
Q 2244 2853 2631 4041 
L 3081 3934 
Q 2875 3359 2625 2841 
L 2625 -859 
L 2175 -859 
L 2175 2041 
Q 1900 1609 1588 1234 
Q 1481 1559 1381 1747 
z
M 1850 4522 
L 3931 4522 
Q 3738 4891 3594 5141 
L 4038 5334 
Q 4188 5084 4419 4653 
L 4119 4522 
L 6238 4522 
L 6238 4103 
L 1850 4103 
L 1850 4522 
z
M 3719 2472 
Q 4019 1428 4481 828 
Q 5150 1603 5375 2853 
L 3913 2853 
Q 3819 2666 3719 2472 
z
M 288 -634 
Q 656 491 931 1784 
Q 1138 1691 1406 1591 
Q 1119 453 806 -803 
L 288 -634 
z
M 81 3222 
L 400 3578 
Q 981 3184 1481 2772 
Q 1250 2516 1113 2372 
Q 544 2878 81 3222 
z
M 325 4853 
L 650 5184 
Q 1063 4872 1725 4303 
Q 1513 4097 1350 3934 
Q 706 4541 325 4853 
z
M 4056 2409 
L 4438 2591 
Q 4638 2253 4863 1822 
L 4475 1622 
Q 4300 1984 4056 2409 
z
" transform="scale(0.015625)"/>
      <path id="MicrosoftYaHei-4f53" d="M 6350 778 
Q 6138 522 5981 316 
Q 4731 1278 4144 3572 
L 4144 934 
L 5063 934 
L 5063 484 
L 4144 484 
L 4144 -822 
L 3681 -822 
L 3681 484 
L 2763 484 
L 2763 934 
L 3681 934 
L 3681 3572 
L 3666 3572 
Q 3084 1413 1750 216 
Q 1606 397 1419 609 
Q 2625 1713 3225 3572 
L 1756 3572 
L 1756 4022 
L 3681 4022 
L 3681 5297 
L 4144 5297 
L 4144 4022 
L 6138 4022 
L 6138 3572 
L 4547 3572 
Q 5144 1628 6350 778 
z
M 56 2297 
Q 963 3622 1406 5316 
L 1881 5178 
Q 1638 4381 1331 3681 
L 1331 -816 
L 869 -816 
L 869 2741 
Q 588 2231 269 1784 
Q 175 2041 56 2297 
z
" transform="scale(0.015625)"/>
     </defs>
     <use xlink:href="#MicrosoftYaHei-6db2"/>
     <use xlink:href="#MicrosoftYaHei-4f53" transform="translate(100 0)"/>
     <use xlink:href="#MicrosoftYaHei-538b" transform="translate(200 0)"/>
     <use xlink:href="#MicrosoftYaHei-5f3a" transform="translate(300 0)"/>
    </g>
   </g>
   <g id="text_16">
    <!-- 已知: rho, g, V排  求: F浮 -->
    <g style="fill: #2c3e50" transform="translate(35.554274 1300.473125) scale(0.075 -0.075)">
     <defs>
      <path id="MicrosoftYaHei-6392" d="M 4375 5309 
L 4863 5309 
L 4863 4159 
L 6188 4159 
L 6188 3684 
L 4863 3684 
L 4863 2609 
L 6038 2609 
L 6038 2134 
L 4863 2134 
L 4863 1047 
L 6294 1047 
L 6294 572 
L 4863 572 
L 4863 -841 
L 4375 -841 
L 4375 5309 
z
M 1844 1047 
L 3138 1047 
L 3138 2134 
L 2150 2134 
L 2150 2609 
L 3138 2609 
L 3138 3684 
L 2163 3684 
L 2163 4159 
L 3138 4159 
L 3138 5309 
L 3625 5309 
L 3625 -841 
L 3138 -841 
L 3138 572 
L 1844 572 
L 1844 1047 
z
M 131 4166 
L 875 4166 
L 875 5316 
L 1350 5316 
L 1350 4166 
L 1969 4166 
L 1969 3728 
L 1350 3728 
L 1350 2563 
Q 1650 2716 1938 2872 
Q 1956 2603 1988 2372 
Q 1681 2216 1350 2044 
L 1350 -134 
Q 1350 -772 669 -778 
Q 481 -784 156 -778 
Q 131 -528 75 -259 
Q 419 -284 613 -284 
Q 875 -284 875 3 
L 875 1797 
Q 525 1616 150 1416 
L 88 1966 
Q 491 2144 875 2328 
L 875 3728 
L 131 3728 
L 131 4166 
z
" transform="scale(0.015625)"/>
      <path id="MicrosoftYaHei-6d6e" d="M 1519 1359 
L 3806 1359 
L 3806 1728 
L 4981 2484 
L 2031 2484 
L 2031 2928 
L 5700 2928 
L 5700 2434 
L 4294 1509 
L 4294 1359 
L 6319 1359 
L 6319 909 
L 4294 909 
L 4294 -59 
Q 4294 -766 3550 -766 
Q 3225 -766 2656 -753 
Q 2625 -528 2575 -247 
Q 3150 -297 3444 -297 
Q 3806 -297 3806 59 
L 3806 909 
L 1519 909 
L 1519 1359 
z
M 1894 4428 
Q 1856 4647 1806 4891 
Q 4050 4941 5938 5128 
L 6025 4672 
Q 4725 4547 1894 4428 
z
M 813 1766 
Q 1075 1641 1319 1559 
Q 1075 609 769 -791 
L 219 -628 
Q 544 391 813 1766 
z
M 4569 3278 
Q 4988 3828 5350 4484 
L 5806 4247 
Q 5438 3647 4981 3016 
L 4569 3278 
z
M 388 3572 
Q 956 3159 1456 2741 
Q 1263 2534 1094 2341 
Q 556 2841 75 3216 
L 388 3572 
z
M 631 5184 
Q 1119 4803 1675 4309 
Q 1463 4103 1300 3934 
Q 769 4459 313 4841 
L 631 5184 
z
M 1906 4047 
L 2281 4266 
Q 2625 3797 2938 3297 
L 2525 3053 
Q 2225 3591 1906 4047 
z
M 3250 4197 
L 3644 4391 
Q 3919 3972 4206 3428 
L 3781 3209 
Q 3525 3747 3250 4197 
z
" transform="scale(0.015625)"/>
     </defs>
     <use xlink:href="#MicrosoftYaHei-5df2"/>
     <use xlink:href="#MicrosoftYaHei-77e5" transform="translate(100 0)"/>
     <use xlink:href="#MicrosoftYaHei-3a" transform="translate(200 0)"/>
     <use xlink:href="#MicrosoftYaHei-20" transform="translate(224.072266 0)"/>
     <use xlink:href="#MicrosoftYaHei-72" transform="translate(253.662109 0)"/>
     <use xlink:href="#MicrosoftYaHei-68" transform="translate(291.845703 0)"/>
     <use xlink:href="#MicrosoftYaHei-6f" transform="translate(353.417969 0)"/>
     <use xlink:href="#MicrosoftYaHei-2c" transform="translate(416.992188 0)"/>
     <use xlink:href="#MicrosoftYaHei-20" transform="translate(441.064453 0)"/>
     <use xlink:href="#MicrosoftYaHei-67" transform="translate(470.654297 0)"/>
     <use xlink:href="#MicrosoftYaHei-2c" transform="translate(534.619141 0)"/>
     <use xlink:href="#MicrosoftYaHei-20" transform="translate(558.691406 0)"/>
     <use xlink:href="#MicrosoftYaHei-56" transform="translate(588.28125 0)"/>
     <use xlink:href="#MicrosoftYaHei-6392" transform="translate(655.908203 0)"/>
     <use xlink:href="#MicrosoftYaHei-20" transform="translate(755.908203 0)"/>
     <use xlink:href="#MicrosoftYaHei-20" transform="translate(785.498047 0)"/>
     <use xlink:href="#MicrosoftYaHei-6c42" transform="translate(815.087891 0)"/>
     <use xlink:href="#MicrosoftYaHei-3a" transform="translate(915.087891 0)"/>
     <use xlink:href="#MicrosoftYaHei-20" transform="translate(939.160156 0)"/>
     <use xlink:href="#MicrosoftYaHei-46" transform="translate(968.75 0)"/>
     <use xlink:href="#MicrosoftYaHei-6d6e" transform="translate(1021.875 0)"/>
    </g>
   </g>
   <g id="text_17">
    <g id="patch_6">
     <path d="M 242.248982 1303.300625 
L 303.201482 1303.300625 
Q 304.001482 1303.300625 304.001482 1302.500625 
L 304.001482 1293.828125 
Q 304.001482 1293.028125 303.201482 1293.028125 
L 242.248982 1293.028125 
Q 241.448982 1293.028125 241.448982 1293.828125 
L 241.448982 1302.500625 
Q 241.448982 1303.300625 242.248982 1303.300625 
z
" style="fill: #fadbd8"/>
    </g>
    <!-- F浮 = rho g V排 -->
    <g style="fill: #c0392b" transform="translate(242.248982 1300.473125) scale(0.08 -0.08)">
     <defs>
      <path id="MicrosoftYaHei-Bold-6d6e" d="M 706 5278 
Q 1156 4941 1744 4422 
L 1163 3809 
Q 663 4303 181 4716 
L 706 5278 
z
M 1750 1541 
L 3544 1541 
L 3544 1716 
Q 4181 2116 4456 2316 
L 2075 2316 
L 2075 3059 
L 4956 3059 
L 4494 3272 
Q 4922 3956 5172 4459 
L 1919 4272 
Q 1856 4703 1775 5028 
Q 4050 5084 5944 5234 
L 6050 4516 
L 5184 4459 
L 5950 4103 
Q 5647 3628 5259 3059 
L 5688 3059 
L 5688 2303 
Q 5184 1934 4575 1541 
L 6238 1541 
L 6238 784 
L 4431 784 
L 4431 -84 
Q 4431 -372 4304 -536 
Q 4178 -700 3898 -748 
Q 3619 -797 2594 -809 
Q 2519 -316 2425 9 
Q 2831 -22 3313 -22 
Q 3544 -22 3544 253 
L 3544 784 
L 1750 784 
L 1750 1541 
z
M 3919 4334 
Q 4075 4059 4363 3472 
L 3700 3197 
Q 3525 3622 3275 4066 
L 3919 4334 
z
M 2569 4247 
Q 2806 3884 3075 3422 
L 2400 3097 
Q 2188 3478 1900 3934 
L 2569 4247 
z
M 638 3634 
Q 1244 3191 1663 2822 
L 1075 2172 
Q 681 2559 94 3041 
L 638 3634 
z
M 719 1909 
Q 1219 1716 1556 1628 
L 1013 -797 
Q 550 -647 150 -547 
Q 463 522 719 1909 
z
" transform="scale(0.015625)"/>
      <path id="MicrosoftYaHei-Bold-6392" d="M 4300 5316 
L 5100 5316 
L 5100 4228 
L 6188 4228 
L 6188 3428 
L 5100 3428 
L 5100 2778 
L 6075 2778 
L 6075 1978 
L 5100 1978 
L 5100 1316 
L 6294 1316 
L 6294 516 
L 5100 516 
L 5100 -847 
L 4300 -847 
L 4300 5316 
z
M 1844 1316 
L 2925 1316 
L 2925 1978 
L 2150 1978 
L 2150 2778 
L 2925 2778 
L 2925 3428 
L 2138 3428 
L 2138 4228 
L 2925 4228 
L 2925 5316 
L 3750 5316 
L 3750 -847 
L 2925 -847 
L 2925 516 
L 1844 516 
L 1844 1316 
z
M 113 4153 
L 738 4153 
L 738 5253 
L 1531 5253 
L 1531 4153 
L 2000 4153 
L 2000 3378 
L 1531 3378 
L 1531 2597 
Q 1759 2681 1938 2753 
Q 1981 2259 2025 1922 
L 1531 1719 
L 1531 -3 
Q 1531 -350 1406 -542 
Q 1281 -734 1007 -771 
Q 734 -809 250 -809 
Q 188 -447 94 3 
L 581 3 
Q 738 3 738 253 
L 738 1375 
L 263 1159 
L 100 2059 
L 738 2297 
L 738 3378 
L 113 3378 
L 113 4153 
z
" transform="scale(0.015625)"/>
     </defs>
     <use xlink:href="#MicrosoftYaHei-Bold-46"/>
     <use xlink:href="#MicrosoftYaHei-Bold-6d6e" transform="translate(55.810547 0)"/>
     <use xlink:href="#MicrosoftYaHei-Bold-20" transform="translate(155.810547 0)"/>
     <use xlink:href="#MicrosoftYaHei-Bold-3d" transform="translate(185.595703 0)"/>
     <use xlink:href="#MicrosoftYaHei-Bold-20" transform="translate(261.71875 0)"/>
     <use xlink:href="#MicrosoftYaHei-Bold-72" transform="translate(291.503906 0)"/>
     <use xlink:href="#MicrosoftYaHei-Bold-68" transform="translate(334.136719 0)"/>
     <use xlink:href="#MicrosoftYaHei-Bold-6f" transform="translate(398.6875 0)"/>
     <use xlink:href="#MicrosoftYaHei-Bold-20" transform="translate(464.410156 0)"/>
     <use xlink:href="#MicrosoftYaHei-Bold-67" transform="translate(494.195312 0)"/>
     <use xlink:href="#MicrosoftYaHei-Bold-20" transform="translate(560.650391 0)"/>
     <use xlink:href="#MicrosoftYaHei-Bold-56" transform="translate(590.435547 0)"/>
     <use xlink:href="#MicrosoftYaHei-Bold-6392" transform="translate(661.919922 0)"/>
    </g>
   </g>
   <g id="text_18">
    <!-- 浮力 -->
    <g style="fill: #27ae60" transform="translate(327.046811 1300.473125) scale(0.075 -0.075)">
     <use xlink:href="#MicrosoftYaHei-6d6e"/>
     <use xlink:href="#MicrosoftYaHei-529b" transform="translate(100 0)"/>
    </g>
   </g>
   <g id="text_19">
    <!-- 已知: U, I  求: R -->
    <g style="fill: #2c3e50" transform="translate(35.554274 1513.593125) scale(0.075 -0.075)">
     <defs>
      <path id="MicrosoftYaHei-55" d="M 4213 1972 
Q 4213 -81 2350 -81 
Q 566 -81 566 1900 
L 566 4841 
L 1191 4841 
L 1191 1928 
Q 1191 475 2409 475 
Q 3588 475 3588 1881 
L 3588 4841 
L 4213 4841 
L 4213 1972 
z
" transform="scale(0.015625)"/>
      <path id="MicrosoftYaHei-49" d="M 1250 4841 
L 1250 0 
L 625 0 
L 625 4841 
L 1250 4841 
z
" transform="scale(0.015625)"/>
      <path id="MicrosoftYaHei-52" d="M 4159 0 
L 3422 0 
L 2619 1344 
Q 2378 1747 2178 1892 
Q 1978 2038 1700 2038 
L 1250 2038 
L 1250 0 
L 625 0 
L 625 4841 
L 2100 4841 
Q 2806 4841 3206 4500 
Q 3606 4159 3606 3547 
Q 3606 2541 2531 2241 
L 2531 2225 
Q 2731 2141 2876 1984 
Q 3022 1828 3253 1450 
L 4159 0 
z
M 1250 4294 
L 1250 2584 
L 1988 2584 
Q 2416 2584 2683 2834 
Q 2950 3084 2950 3491 
Q 2950 3869 2706 4081 
Q 2463 4294 1997 4294 
L 1250 4294 
z
" transform="scale(0.015625)"/>
     </defs>
     <use xlink:href="#MicrosoftYaHei-5df2"/>
     <use xlink:href="#MicrosoftYaHei-77e5" transform="translate(100 0)"/>
     <use xlink:href="#MicrosoftYaHei-3a" transform="translate(200 0)"/>
     <use xlink:href="#MicrosoftYaHei-20" transform="translate(224.072266 0)"/>
     <use xlink:href="#MicrosoftYaHei-55" transform="translate(253.662109 0)"/>
     <use xlink:href="#MicrosoftYaHei-2c" transform="translate(328.320312 0)"/>
     <use xlink:href="#MicrosoftYaHei-20" transform="translate(352.392578 0)"/>
     <use xlink:href="#MicrosoftYaHei-49" transform="translate(381.982422 0)"/>
     <use xlink:href="#MicrosoftYaHei-20" transform="translate(411.376953 0)"/>
     <use xlink:href="#MicrosoftYaHei-20" transform="translate(440.966797 0)"/>
     <use xlink:href="#MicrosoftYaHei-6c42" transform="translate(470.556641 0)"/>
     <use xlink:href="#MicrosoftYaHei-3a" transform="translate(570.556641 0)"/>
     <use xlink:href="#MicrosoftYaHei-20" transform="translate(594.628906 0)"/>
     <use xlink:href="#MicrosoftYaHei-52" transform="translate(624.21875 0)"/>
    </g>
   </g>
   <g id="text_20">
    <g id="patch_7">
     <path d="M 242.248982 1516.381875 
L 271.366482 1516.381875 
Q 272.166482 1516.381875 272.166482 1515.581875 
L 272.166482 1507.198125 
Q 272.166482 1506.398125 271.366482 1506.398125 
L 242.248982 1506.398125 
Q 241.448982 1506.398125 241.448982 1507.198125 
L 241.448982 1515.581875 
Q 241.448982 1516.381875 242.248982 1516.381875 
z
" style="fill: #fadbd8"/>
    </g>
    <!-- R = U/I -->
    <g style="fill: #c0392b" transform="translate(242.248982 1513.593125) scale(0.08 -0.08)">
     <defs>
      <path id="MicrosoftYaHei-Bold-52" d="M 4553 0 
L 3366 0 
L 2606 1259 
Q 2372 1650 2222 1762 
Q 2072 1875 1903 1875 
L 1591 1875 
L 1591 0 
L 559 0 
L 559 4841 
L 2256 4841 
Q 3984 4841 3984 3528 
Q 3984 3034 3695 2681 
Q 3406 2328 2900 2184 
L 2900 2172 
Q 3234 2059 3641 1434 
L 4553 0 
z
M 1591 4056 
L 1591 2663 
L 2097 2663 
Q 2459 2663 2679 2873 
Q 2900 3084 2900 3400 
Q 2900 4056 2116 4056 
L 1591 4056 
z
" transform="scale(0.015625)"/>
      <path id="MicrosoftYaHei-Bold-55" d="M 4466 2081 
Q 4466 -84 2453 -84 
Q 509 -84 509 2025 
L 509 4841 
L 1544 4841 
L 1544 2019 
Q 1544 809 2497 809 
Q 3434 809 3434 1975 
L 3434 4841 
L 4466 4841 
L 4466 2081 
z
" transform="scale(0.015625)"/>
      <path id="MicrosoftYaHei-Bold-49" d="M 1588 4841 
L 1588 0 
L 556 0 
L 556 4841 
L 1588 4841 
z
" transform="scale(0.015625)"/>
     </defs>
     <use xlink:href="#MicrosoftYaHei-Bold-52"/>
     <use xlink:href="#MicrosoftYaHei-Bold-20" transform="translate(69.824219 0)"/>
     <use xlink:href="#MicrosoftYaHei-Bold-3d" transform="translate(99.609375 0)"/>
     <use xlink:href="#MicrosoftYaHei-Bold-20" transform="translate(175.732422 0)"/>
     <use xlink:href="#MicrosoftYaHei-Bold-55" transform="translate(205.517578 0)"/>
     <use xlink:href="#MicrosoftYaHei-Bold-2f" transform="translate(283.154297 0)"/>
     <use xlink:href="#MicrosoftYaHei-Bold-49" transform="translate(330.419922 0)"/>
    </g>
   </g>
   <g id="text_21">
    <!-- 电阻 -->
    <g style="fill: #27ae60" transform="translate(327.046811 1513.593125) scale(0.075 -0.075)">
     <defs>
      <path id="MicrosoftYaHei-7535" d="M 406 4497 
L 2713 4497 
L 2713 5297 
L 3231 5297 
L 3231 4497 
L 5544 4497 
L 5544 984 
L 3231 984 
L 3231 253 
Q 3231 -128 3631 -128 
L 5094 -128 
Q 5519 -128 5613 153 
Q 5713 459 5756 1034 
Q 5938 953 6275 841 
Q 6200 341 6106 -16 
Q 5950 -603 5256 -603 
L 3594 -603 
Q 2713 -603 2713 259 
L 2713 984 
L 925 984 
L 925 553 
L 406 553 
L 406 4497 
z
M 5025 1453 
L 5025 2522 
L 3231 2522 
L 3231 1453 
L 5025 1453 
z
M 925 1453 
L 2713 1453 
L 2713 2522 
L 925 2522 
L 925 1453 
z
M 5025 4028 
L 3231 4028 
L 3231 2966 
L 5025 2966 
L 5025 4028 
z
M 925 2966 
L 2713 2966 
L 2713 4028 
L 925 4028 
L 925 2966 
z
" transform="scale(0.015625)"/>
      <path id="MicrosoftYaHei-963b" d="M 1900 -122 
L 2700 -122 
L 2700 4928 
L 5688 4928 
L 5688 -122 
L 6288 -122 
L 6288 -566 
L 1900 -566 
L 1900 -122 
z
M 2263 1572 
Q 2444 366 1669 234 
Q 1388 184 1038 222 
Q 988 478 900 747 
Q 1231 672 1475 697 
Q 1913 741 1763 1591 
Q 1675 2097 1200 2716 
Q 1475 3641 1713 4534 
L 875 4534 
L 875 -841 
L 400 -841 
L 400 4972 
L 2231 4972 
L 2231 4534 
Q 1938 3572 1694 2797 
Q 2194 2116 2263 1572 
z
M 3188 1559 
L 5200 1559 
L 5200 2803 
L 3188 2803 
L 3188 1559 
z
M 3188 -122 
L 5200 -122 
L 5200 1122 
L 3188 1122 
L 3188 -122 
z
M 3188 4484 
L 3188 3241 
L 5200 3241 
L 5200 4484 
L 3188 4484 
z
" transform="scale(0.015625)"/>
     </defs>
     <use xlink:href="#MicrosoftYaHei-7535"/>
     <use xlink:href="#MicrosoftYaHei-963b" transform="translate(100 0)"/>
    </g>
   </g>
   <g id="text_22">
    <!-- 已知: U, I  求: P -->
    <g style="fill: #2c3e50" transform="translate(35.554274 1726.713125) scale(0.075 -0.075)">
     <defs>
      <path id="MicrosoftYaHei-50" d="M 1250 1809 
L 1250 0 
L 625 0 
L 625 4841 
L 2000 4841 
Q 2784 4841 3217 4462 
Q 3650 4084 3650 3381 
Q 3650 2669 3144 2226 
Q 2638 1784 1878 1809 
L 1250 1809 
z
M 1250 4291 
L 1250 2359 
L 1828 2359 
Q 2400 2359 2697 2617 
Q 2994 2875 2994 3356 
Q 2994 4291 1888 4291 
L 1250 4291 
z
" transform="scale(0.015625)"/>
     </defs>
     <use xlink:href="#MicrosoftYaHei-5df2"/>
     <use xlink:href="#MicrosoftYaHei-77e5" transform="translate(100 0)"/>
     <use xlink:href="#MicrosoftYaHei-3a" transform="translate(200 0)"/>
     <use xlink:href="#MicrosoftYaHei-20" transform="translate(224.072266 0)"/>
     <use xlink:href="#MicrosoftYaHei-55" transform="translate(253.662109 0)"/>
     <use xlink:href="#MicrosoftYaHei-2c" transform="translate(328.320312 0)"/>
     <use xlink:href="#MicrosoftYaHei-20" transform="translate(352.392578 0)"/>
     <use xlink:href="#MicrosoftYaHei-49" transform="translate(381.982422 0)"/>
     <use xlink:href="#MicrosoftYaHei-20" transform="translate(411.376953 0)"/>
     <use xlink:href="#MicrosoftYaHei-20" transform="translate(440.966797 0)"/>
     <use xlink:href="#MicrosoftYaHei-6c42" transform="translate(470.556641 0)"/>
     <use xlink:href="#MicrosoftYaHei-3a" transform="translate(570.556641 0)"/>
     <use xlink:href="#MicrosoftYaHei-20" transform="translate(594.628906 0)"/>
     <use xlink:href="#MicrosoftYaHei-50" transform="translate(624.21875 0)"/>
    </g>
   </g>
   <g id="text_23">
    <g id="patch_8">
     <path d="M 242.248982 1729.501875 
L 267.256482 1729.501875 
Q 268.056482 1729.501875 268.056482 1728.701875 
L 268.056482 1720.318125 
Q 268.056482 1719.518125 267.256482 1719.518125 
L 242.248982 1719.518125 
Q 241.448982 1719.518125 241.448982 1720.318125 
L 241.448982 1728.701875 
Q 241.448982 1729.501875 242.248982 1729.501875 
z
" style="fill: #fadbd8"/>
    </g>
    <!-- P = UI -->
    <g style="fill: #c0392b" transform="translate(242.248982 1726.713125) scale(0.08 -0.08)">
     <defs>
      <path id="MicrosoftYaHei-Bold-50" d="M 1591 1688 
L 1591 0 
L 559 0 
L 559 4841 
L 2225 4841 
Q 4031 4841 4031 3309 
Q 4031 2566 3486 2117 
Q 2941 1669 2122 1688 
L 1591 1688 
z
M 1591 4041 
L 1591 2478 
L 2038 2478 
Q 2947 2478 2947 3269 
Q 2947 4041 2047 4041 
L 1591 4041 
z
" transform="scale(0.015625)"/>
     </defs>
     <use xlink:href="#MicrosoftYaHei-Bold-50"/>
     <use xlink:href="#MicrosoftYaHei-Bold-20" transform="translate(65.722656 0)"/>
     <use xlink:href="#MicrosoftYaHei-Bold-3d" transform="translate(95.507812 0)"/>
     <use xlink:href="#MicrosoftYaHei-Bold-20" transform="translate(171.630859 0)"/>
     <use xlink:href="#MicrosoftYaHei-Bold-55" transform="translate(201.416016 0)"/>
     <use xlink:href="#MicrosoftYaHei-Bold-49" transform="translate(279.052734 0)"/>
    </g>
   </g>
   <g id="text_24">
    <!-- 电功率 -->
    <g style="fill: #27ae60" transform="translate(327.046811 1726.713125) scale(0.075 -0.075)">
     <defs>
      <path id="MicrosoftYaHei-529f" d="M 2500 3978 
L 3475 3978 
Q 3488 4538 3494 5278 
L 4000 5278 
Q 3991 4531 3975 3978 
L 5969 3978 
Q 5913 1791 5844 291 
Q 5775 -691 4956 -709 
Q 4413 -716 3756 -684 
Q 3713 -397 3656 -122 
Q 4306 -197 4844 -191 
Q 5313 -178 5344 378 
Q 5425 1847 5450 3497 
L 3963 3497 
Q 3950 3003 3931 2734 
Q 3813 266 1938 -847 
Q 1800 -653 1575 -422 
Q 3325 553 3431 2772 
Q 3450 3063 3463 3497 
L 2500 3497 
L 2500 3978 
z
M 81 822 
Q 619 941 1119 1056 
L 1119 4134 
L 169 4134 
L 169 4622 
L 2675 4622 
L 2675 4134 
L 1625 4134 
L 1625 1178 
Q 2166 1313 2656 1447 
Q 2669 1122 2700 947 
Q 1594 672 225 291 
L 81 822 
z
" transform="scale(0.015625)"/>
      <path id="MicrosoftYaHei-7387" d="M 2525 2009 
Q 2622 2016 3928 2081 
Q 3772 2300 3625 2491 
L 3963 2703 
Q 4413 2203 4794 1653 
L 4394 1403 
Q 4284 1569 4178 1725 
Q 2991 1659 2213 1597 
Q 2075 1584 1881 1541 
L 1725 1966 
Q 1913 2028 2006 2084 
Q 2534 2441 3050 2913 
Q 2597 2894 2275 2866 
Q 2144 2847 1988 2809 
L 1800 3191 
Q 1956 3247 2088 3366 
Q 2509 3722 2875 4228 
L 231 4228 
L 231 4666 
L 3031 4666 
Q 2878 4944 2744 5153 
L 3194 5372 
Q 3438 5000 3616 4666 
L 6175 4666 
L 6175 4228 
L 3053 4228 
L 3350 4072 
Q 2844 3553 2494 3247 
Q 2850 3256 3425 3269 
Q 3675 3519 3925 3797 
L 4356 3547 
Q 3363 2603 2525 2009 
z
M 144 991 
L 2994 991 
L 2994 1541 
L 3488 1541 
L 3488 991 
L 6275 991 
L 6275 553 
L 3488 553 
L 3488 -853 
L 2994 -853 
L 2994 553 
L 144 553 
L 144 991 
z
M 1719 2672 
L 1944 2303 
Q 1200 1866 425 1409 
L 163 1828 
Q 813 2134 1719 2672 
z
M 4856 2678 
Q 5750 2172 6250 1816 
L 5975 1409 
Q 5331 1909 4600 2341 
L 4856 2678 
z
M 5994 3591 
Q 5519 3178 4963 2809 
L 4644 3141 
Q 5244 3534 5638 3928 
L 5994 3591 
z
M 363 3634 
L 681 3941 
Q 1200 3528 1588 3159 
L 1238 2816 
Q 875 3197 363 3634 
z
" transform="scale(0.015625)"/>
     </defs>
     <use xlink:href="#MicrosoftYaHei-7535"/>
     <use xlink:href="#MicrosoftYaHei-529f" transform="translate(100 0)"/>
     <use xlink:href="#MicrosoftYaHei-7387" transform="translate(200 0)"/>
    </g>
   </g>
   <g id="text_25">
    <!-- 已知: m, c, DeltaT  求: Q -->
    <g style="fill: #2c3e50" transform="translate(35.554274 1939.833125) scale(0.075 -0.075)">
     <defs>
      <path id="MicrosoftYaHei-63" d="M 2934 156 
Q 2538 -81 1978 -81 
Q 1228 -81 772 400 
Q 316 881 316 1647 
Q 316 2497 808 3017 
Q 1300 3538 2125 3538 
Q 2600 3538 2938 3369 
L 2938 2763 
Q 2572 3031 2125 3031 
Q 1600 3031 1270 2667 
Q 941 2303 941 1697 
Q 941 1100 1252 762 
Q 1563 425 2091 425 
Q 2538 425 2934 719 
L 2934 156 
z
" transform="scale(0.015625)"/>
      <path id="MicrosoftYaHei-44" d="M 625 0 
L 625 4841 
L 2006 4841 
Q 3106 4841 3836 4200 
Q 4566 3559 4566 2481 
Q 4566 1356 3836 678 
Q 3106 0 1956 0 
L 625 0 
z
M 1250 4284 
L 1250 553 
L 1953 553 
Q 2875 553 3392 1056 
Q 3909 1559 3909 2466 
Q 3909 3372 3378 3828 
Q 2847 4284 1981 4284 
L 1250 4284 
z
" transform="scale(0.015625)"/>
      <path id="MicrosoftYaHei-65" d="M 3363 1572 
L 944 1572 
Q 959 1019 1246 717 
Q 1534 416 2050 416 
Q 2631 416 3116 788 
L 3116 241 
Q 2659 -81 1906 -81 
Q 1156 -81 736 394 
Q 316 869 316 1713 
Q 316 2506 777 3022 
Q 1238 3538 1922 3538 
Q 2600 3538 2981 3102 
Q 3363 2666 3363 1881 
L 3363 1572 
z
M 2750 2063 
Q 2747 2531 2528 2787 
Q 2309 3044 1913 3044 
Q 1547 3044 1280 2772 
Q 1013 2500 944 2063 
L 2750 2063 
z
" transform="scale(0.015625)"/>
      <path id="MicrosoftYaHei-6c" d="M 544 0 
L 544 5116 
L 1156 5116 
L 1156 0 
L 544 0 
z
" transform="scale(0.015625)"/>
      <path id="MicrosoftYaHei-74" d="M 2206 34 
Q 2006 -75 1666 -75 
Q 738 -75 738 953 
L 738 2950 
L 144 2950 
L 144 3456 
L 738 3456 
L 738 4288 
L 1347 4481 
L 1347 3456 
L 2206 3456 
L 2206 2950 
L 1347 2950 
L 1347 1063 
Q 1347 722 1462 575 
Q 1578 428 1847 428 
Q 2053 428 2206 544 
L 2206 34 
z
" transform="scale(0.015625)"/>
      <path id="MicrosoftYaHei-61" d="M 628 3216 
Q 1144 3538 1819 3538 
Q 3069 3538 3069 2225 
L 3069 0 
L 2463 0 
L 2463 534 
L 2447 534 
Q 2088 -81 1388 -81 
Q 884 -81 587 191 
Q 291 463 291 925 
Q 291 1894 1438 2053 
L 2463 2197 
Q 2463 3044 1763 3044 
Q 1141 3044 628 2625 
L 628 3216 
z
M 1653 1625 
Q 1228 1569 1067 1412 
Q 906 1256 906 975 
Q 906 728 1081 572 
Q 1256 416 1544 416 
Q 1944 416 2203 697 
Q 2463 978 2463 1403 
L 2463 1734 
L 1653 1625 
z
" transform="scale(0.015625)"/>
      <path id="MicrosoftYaHei-54" d="M 3550 4284 
L 2153 4284 
L 2153 0 
L 1525 0 
L 1525 4284 
L 134 4284 
L 134 4841 
L 3550 4841 
L 3550 4284 
z
" transform="scale(0.015625)"/>
      <path id="MicrosoftYaHei-51" d="M 313 2363 
Q 313 3534 947 4228 
Q 1581 4922 2666 4922 
Q 3675 4922 4290 4244 
Q 4906 3566 4906 2478 
Q 4906 1300 4275 609 
Q 4125 447 3953 322 
L 5313 -653 
L 4284 -653 
L 3366 28 
Q 3009 -81 2588 -81 
Q 1556 -81 934 597 
Q 313 1275 313 2363 
z
M 969 2413 
Q 969 1534 1417 1004 
Q 1866 475 2588 475 
Q 3363 475 3805 983 
Q 4247 1491 4247 2403 
Q 4247 3341 3814 3850 
Q 3381 4359 2628 4359 
Q 1888 4359 1428 3821 
Q 969 3284 969 2413 
z
" transform="scale(0.015625)"/>
     </defs>
     <use xlink:href="#MicrosoftYaHei-5df2"/>
     <use xlink:href="#MicrosoftYaHei-77e5" transform="translate(100 0)"/>
     <use xlink:href="#MicrosoftYaHei-3a" transform="translate(200 0)"/>
     <use xlink:href="#MicrosoftYaHei-20" transform="translate(224.072266 0)"/>
     <use xlink:href="#MicrosoftYaHei-6d" transform="translate(253.662109 0)"/>
     <use xlink:href="#MicrosoftYaHei-2c" transform="translate(347.363281 0)"/>
     <use xlink:href="#MicrosoftYaHei-20" transform="translate(371.435547 0)"/>
     <use xlink:href="#MicrosoftYaHei-63" transform="translate(401.025391 0)"/>
     <use xlink:href="#MicrosoftYaHei-2c" transform="translate(451.171875 0)"/>
     <use xlink:href="#MicrosoftYaHei-20" transform="translate(475.244141 0)"/>
     <use xlink:href="#MicrosoftYaHei-44" transform="translate(504.833984 0)"/>
     <use xlink:href="#MicrosoftYaHei-65" transform="translate(581.005859 0)"/>
     <use xlink:href="#MicrosoftYaHei-6c" transform="translate(637.744141 0)"/>
     <use xlink:href="#MicrosoftYaHei-74" transform="translate(664.355469 0)"/>
     <use xlink:href="#MicrosoftYaHei-61" transform="translate(701.611328 0)"/>
     <use xlink:href="#MicrosoftYaHei-54" transform="translate(756.884766 0)"/>
     <use xlink:href="#MicrosoftYaHei-20" transform="translate(814.208984 0)"/>
     <use xlink:href="#MicrosoftYaHei-20" transform="translate(843.798828 0)"/>
     <use xlink:href="#MicrosoftYaHei-6c42" transform="translate(873.388672 0)"/>
     <use xlink:href="#MicrosoftYaHei-3a" transform="translate(973.388672 0)"/>
     <use xlink:href="#MicrosoftYaHei-20" transform="translate(997.460938 0)"/>
     <use xlink:href="#MicrosoftYaHei-51" transform="translate(1027.050781 0)"/>
    </g>
   </g>
   <g id="text_26">
    <g id="patch_9">
     <path d="M 242.248982 1942.621875 
L 297.932732 1942.621875 
Q 298.732732 1942.621875 298.732732 1941.821875 
L 298.732732 1933.438125 
Q 298.732732 1932.638125 297.932732 1932.638125 
L 242.248982 1932.638125 
Q 241.448982 1932.638125 241.448982 1933.438125 
L 241.448982 1941.821875 
Q 241.448982 1942.621875 242.248982 1942.621875 
z
" style="fill: #fadbd8"/>
    </g>
    <!-- Q = cmDeltaT -->
    <g style="fill: #c0392b" transform="translate(242.248982 1939.833125) scale(0.08 -0.08)">
     <defs>
      <path id="MicrosoftYaHei-Bold-51" d="M 256 2356 
Q 256 3494 920 4208 
Q 1584 4922 2675 4922 
Q 3713 4922 4345 4231 
Q 4978 3541 4978 2456 
Q 4978 1325 4319 619 
Q 4278 575 4238 534 
L 5469 -653 
L 3941 -653 
L 3297 3 
Q 2972 -84 2597 -84 
Q 1556 -84 906 598 
Q 256 1281 256 2356 
z
M 1341 2413 
Q 1341 1706 1681 1257 
Q 2022 809 2616 809 
Q 3222 809 3559 1239 
Q 3897 1669 3897 2394 
Q 3897 3150 3569 3589 
Q 3241 4028 2644 4028 
Q 2038 4028 1689 3578 
Q 1341 3128 1341 2413 
z
" transform="scale(0.015625)"/>
      <path id="MicrosoftYaHei-Bold-63" d="M 3050 128 
Q 2688 -84 2019 -84 
Q 1228 -84 740 397 
Q 253 878 253 1644 
Q 253 2525 778 3033 
Q 1303 3541 2178 3541 
Q 2769 3541 3053 3378 
L 3053 2513 
Q 2706 2766 2297 2766 
Q 1834 2766 1554 2484 
Q 1275 2203 1275 1713 
Q 1275 1238 1540 964 
Q 1806 691 2263 691 
Q 2666 691 3050 947 
L 3050 128 
z
" transform="scale(0.015625)"/>
      <path id="MicrosoftYaHei-Bold-44" d="M 559 0 
L 559 4841 
L 2231 4841 
Q 4809 4841 4809 2481 
Q 4809 1359 4087 679 
Q 3366 0 2225 0 
L 559 0 
z
M 1591 3997 
L 1591 844 
L 2153 844 
Q 2888 844 3306 1281 
Q 3725 1719 3725 2466 
Q 3725 3188 3287 3592 
Q 2850 3997 2150 3997 
L 1591 3997 
z
" transform="scale(0.015625)"/>
      <path id="MicrosoftYaHei-Bold-65" d="M 3528 1444 
L 1253 1444 
Q 1306 641 2222 641 
Q 2794 641 3231 922 
L 3231 181 
Q 2759 -84 1994 -84 
Q 1169 -84 711 381 
Q 253 847 253 1678 
Q 253 2506 740 3023 
Q 1228 3541 1966 3541 
Q 2700 3541 3114 3095 
Q 3528 2650 3528 1872 
L 3528 1444 
z
M 2588 2075 
Q 2588 2850 1959 2850 
Q 1700 2850 1500 2637 
Q 1300 2425 1250 2075 
L 2588 2075 
z
" transform="scale(0.015625)"/>
      <path id="MicrosoftYaHei-Bold-6c" d="M 444 0 
L 444 5116 
L 1450 5116 
L 1450 0 
L 444 0 
z
" transform="scale(0.015625)"/>
      <path id="MicrosoftYaHei-Bold-74" d="M 2494 41 
Q 2266 -84 1803 -84 
Q 703 -84 703 1072 
L 703 2703 
L 134 2703 
L 134 3456 
L 703 3456 
L 703 4216 
L 1706 4503 
L 1706 3456 
L 2494 3456 
L 2494 2703 
L 1706 2703 
L 1706 1247 
Q 1706 694 2144 694 
Q 2313 694 2494 794 
L 2494 41 
z
" transform="scale(0.015625)"/>
      <path id="MicrosoftYaHei-Bold-61" d="M 544 3247 
Q 778 3378 1170 3459 
Q 1563 3541 1841 3541 
Q 3291 3541 3291 2088 
L 3291 0 
L 2331 0 
L 2331 503 
L 2319 503 
Q 1966 -84 1284 -84 
Q 794 -84 498 195 
Q 203 475 203 956 
Q 203 1950 1388 2113 
L 2338 2241 
Q 2338 2844 1709 2844 
Q 1091 2844 544 2469 
L 544 3247 
z
M 1684 1566 
Q 1138 1494 1138 1072 
Q 1138 878 1270 759 
Q 1403 641 1628 641 
Q 1938 641 2138 859 
Q 2338 1078 2338 1403 
L 2338 1650 
L 1684 1566 
z
" transform="scale(0.015625)"/>
      <path id="MicrosoftYaHei-Bold-54" d="M 3900 3997 
L 2519 3997 
L 2519 0 
L 1484 0 
L 1484 3997 
L 106 3997 
L 106 4841 
L 3900 4841 
L 3900 3997 
z
" transform="scale(0.015625)"/>
     </defs>
     <use xlink:href="#MicrosoftYaHei-Bold-51"/>
     <use xlink:href="#MicrosoftYaHei-Bold-20" transform="translate(81.835938 0)"/>
     <use xlink:href="#MicrosoftYaHei-Bold-3d" transform="translate(111.621094 0)"/>
     <use xlink:href="#MicrosoftYaHei-Bold-20" transform="translate(187.744141 0)"/>
     <use xlink:href="#MicrosoftYaHei-Bold-63" transform="translate(217.529297 0)"/>
     <use xlink:href="#MicrosoftYaHei-Bold-6d" transform="translate(269.189453 0)"/>
     <use xlink:href="#MicrosoftYaHei-Bold-44" transform="translate(367.382812 0)"/>
     <use xlink:href="#MicrosoftYaHei-Bold-65" transform="translate(446.533203 0)"/>
     <use xlink:href="#MicrosoftYaHei-Bold-6c" transform="translate(504.736328 0)"/>
     <use xlink:href="#MicrosoftYaHei-Bold-74" transform="translate(534.326172 0)"/>
     <use xlink:href="#MicrosoftYaHei-Bold-61" transform="translate(575.732422 0)"/>
     <use xlink:href="#MicrosoftYaHei-Bold-54" transform="translate(633.496094 0)"/>
    </g>
   </g>
   <g id="text_27">
    <!-- 热量 -->
    <g style="fill: #27ae60" transform="translate(327.046811 1939.833125) scale(0.075 -0.075)">
     <defs>
      <path id="MicrosoftYaHei-70ed" d="M 2456 3028 
L 2725 3384 
Q 3013 3209 3297 3031 
Q 3394 3453 3400 3953 
L 2631 3953 
L 2631 4403 
L 3409 4403 
Q 3422 4922 3419 5347 
L 3900 5347 
Q 3900 4941 3888 4403 
L 5338 4403 
Q 5281 2553 5419 1897 
Q 5500 1528 5656 1528 
Q 5781 1528 5819 1741 
Q 5875 2047 5919 2578 
Q 6156 2491 6381 2428 
Q 6319 1872 6250 1547 
Q 6119 972 5669 972 
Q 5131 972 4944 1841 
Q 4831 2422 4850 3953 
L 3878 3953 
Q 3869 3300 3728 2756 
Q 4169 2472 4594 2178 
L 4281 1734 
Q 3913 2019 3569 2269 
Q 3178 1334 2313 816 
Q 2156 1009 1950 1222 
Q 2803 1672 3153 2563 
Q 2791 2816 2456 3028 
z
M 175 2753 
Q 663 2878 1138 3013 
L 1138 3966 
L 250 3966 
L 250 4397 
L 1138 4397 
L 1138 5322 
L 1613 5322 
L 1613 4397 
L 2350 4397 
L 2350 3966 
L 1613 3966 
L 1613 3150 
Q 1956 3256 2294 3366 
Q 2294 3078 2306 2891 
Q 2272 2878 1613 2672 
L 1613 1753 
Q 1613 997 906 997 
Q 638 997 325 1009 
Q 300 1222 250 1522 
Q 556 1472 806 1472 
Q 1138 1472 1138 1809 
L 1138 2525 
Q 763 2406 269 2253 
L 175 2753 
z
M 5044 634 
L 5444 872 
Q 5850 272 6250 -397 
L 5806 -659 
Q 5475 -41 5044 634 
z
M 900 728 
L 1338 541 
Q 1056 -103 650 -791 
Q 463 -684 219 -572 
Q 650 103 900 728 
z
M 1919 478 
L 2331 659 
Q 2619 134 2925 -503 
L 2463 -703 
Q 2194 -59 1919 478 
z
M 3506 509 
L 3919 691 
Q 4238 134 4519 -453 
L 4063 -647 
Q 3825 -59 3506 509 
z
" transform="scale(0.015625)"/>
     </defs>
     <use xlink:href="#MicrosoftYaHei-70ed"/>
     <use xlink:href="#MicrosoftYaHei-91cf" transform="translate(100 0)"/>
    </g>
   </g>
   <g id="text_28">
    <!-- 公式选择策略: 已知 rarr 公式 rarr 所求 -->
    <g style="fill: #2c3e50" transform="translate(109.046026 15.993125) scale(0.11 -0.11)">
     <defs>
      <path id="MicrosoftYaHei-Bold-9009" d="M 5419 2003 
Q 5781 1834 6169 1691 
Q 6059 981 5973 786 
Q 5888 591 5697 487 
Q 5506 384 5219 384 
L 4781 384 
Q 4038 384 4038 1216 
L 4038 2216 
L 3566 2216 
Q 3525 1400 3262 1004 
Q 3000 609 2481 291 
Q 2256 572 1919 909 
Q 2213 1084 2466 1364 
Q 2719 1644 2759 2216 
L 1869 2216 
L 1869 2953 
L 3694 2953 
L 3694 3647 
L 2841 3647 
Q 2722 3344 2606 3097 
Q 2300 3253 1906 3434 
Q 2263 4159 2550 5147 
L 3281 4909 
L 3109 4384 
L 3694 4384 
L 3694 5316 
L 4525 5316 
L 4525 4384 
L 5963 4384 
L 5963 3647 
L 4525 3647 
L 4525 2953 
L 6194 2953 
L 6194 2216 
L 4844 2216 
L 4844 1391 
Q 4844 1134 5031 1134 
L 5106 1134 
Q 5278 1134 5325 1254 
Q 5372 1375 5419 2003 
z
M 1025 5228 
Q 1494 4616 1869 4078 
L 1138 3584 
Q 756 4234 356 4816 
L 1025 5228 
z
M 6294 122 
Q 6131 -378 6031 -716 
L 3181 -697 
Q 1841 -697 1238 -103 
L 513 -841 
L 156 109 
Q 494 391 781 644 
L 781 2222 
L 200 2222 
L 200 3016 
L 1600 3016 
L 1600 638 
Q 2088 97 3131 97 
L 4409 91 
Q 5144 91 6294 122 
z
" transform="scale(0.015625)"/>
      <path id="MicrosoftYaHei-Bold-62e9" d="M 138 4203 
L 813 4203 
L 813 5259 
L 1631 5259 
L 1631 4203 
L 2213 4203 
L 2213 3422 
L 1631 3422 
L 1631 2450 
L 2238 2572 
Q 2163 2047 2156 1728 
L 1631 1631 
L 1631 22 
Q 1631 -359 1481 -556 
Q 1331 -753 1038 -766 
L 300 -797 
Q 238 -434 131 34 
Q 369 16 606 16 
Q 813 16 813 284 
L 813 1469 
L 156 1328 
L 106 2222 
Q 422 2253 813 2309 
L 813 3422 
L 138 3422 
L 138 4203 
z
M 5925 5066 
L 5925 4372 
Q 5522 3794 4925 3350 
Q 5547 3131 6300 3066 
Q 6100 2641 5969 2309 
Q 4938 2491 4159 2878 
Q 3403 2494 2425 2266 
Q 2294 2609 2094 2991 
Q 2834 3141 3406 3353 
Q 2975 3691 2656 4122 
L 3097 4372 
L 2350 4372 
L 2350 5066 
L 5925 5066 
z
M 4166 3706 
Q 4672 4000 4963 4372 
L 3344 4372 
Q 3706 3981 4166 3706 
z
M 1969 872 
L 3725 872 
L 3725 1322 
L 2281 1322 
L 2281 2022 
L 3725 2022 
L 3725 2434 
L 4569 2434 
L 4569 2022 
L 6013 2022 
L 6013 1322 
L 4569 1322 
L 4569 872 
L 6244 872 
L 6244 172 
L 4569 172 
L 4569 -841 
L 3725 -841 
L 3725 172 
L 1969 172 
L 1969 872 
z
" transform="scale(0.015625)"/>
      <path id="MicrosoftYaHei-Bold-7b56" d="M 6225 4284 
L 5281 4284 
Q 5419 4013 5525 3753 
L 4719 3591 
Q 4603 3963 4450 4284 
L 4075 4284 
Q 3881 3988 3638 3697 
L 3613 3709 
L 3613 3453 
L 6200 3453 
L 6200 2803 
L 3613 2803 
L 3613 2403 
L 5913 2403 
L 5913 1409 
Q 5913 1106 5727 882 
Q 5541 659 4719 659 
Q 5428 284 6313 147 
Q 6094 -203 5875 -653 
Q 4475 -225 3613 659 
L 3613 -853 
L 2788 -853 
L 2788 681 
Q 1872 -216 525 -697 
Q 350 -341 94 72 
Q 1759 528 2788 1509 
L 2788 1766 
L 1444 1766 
L 1444 647 
L 631 647 
L 631 2403 
L 2788 2403 
L 2788 2803 
L 225 2803 
L 225 3453 
L 2788 3453 
L 2788 3734 
L 3566 3734 
Q 3263 3891 2906 4053 
Q 3450 4578 3800 5347 
L 4619 5347 
Q 4531 5113 4419 4884 
L 6225 4884 
L 6225 4284 
z
M 4275 1353 
Q 4581 1303 4856 1303 
Q 5100 1303 5100 1522 
L 5100 1766 
L 3613 1766 
L 3613 1491 
Q 3966 1128 4381 856 
Q 4347 1094 4275 1353 
z
M 3113 4284 
L 2225 4284 
Q 2359 4016 2494 3703 
L 1688 3541 
Q 1566 3922 1416 4284 
L 1288 4284 
Q 894 3822 431 3484 
Q 325 3803 75 4228 
Q 700 4634 1119 5341 
L 2006 5341 
Q 1875 5100 1734 4884 
L 3113 4884 
L 3113 4284 
z
" transform="scale(0.015625)"/>
      <path id="MicrosoftYaHei-Bold-7565" d="M 6056 4716 
L 6056 3978 
Q 5775 3350 5269 2863 
Q 5738 2666 6325 2591 
Q 6194 2209 6075 1753 
Q 5244 1931 4597 2347 
Q 3994 1966 3188 1716 
L 5950 1716 
L 5950 -847 
L 5175 -847 
L 5175 -522 
L 3881 -522 
L 3881 -859 
L 3106 -859 
L 3106 1691 
L 3000 1659 
Q 2891 1934 2756 2213 
L 2756 -459 
L 2119 -459 
L 2119 -3 
L 969 -3 
L 969 -497 
L 331 -497 
L 331 4866 
L 2756 4866 
L 2756 3619 
Q 3469 4422 3769 5359 
L 4544 5241 
Q 4459 4969 4356 4716 
L 6056 4716 
z
M 2119 4266 
L 1806 4266 
L 1806 2734 
L 2119 2734 
L 2119 4266 
z
M 969 2734 
L 1281 2734 
L 1281 4266 
L 969 4266 
L 969 2734 
z
M 3978 3934 
Q 4231 3541 4588 3259 
Q 4972 3578 5188 3997 
L 4013 3997 
Q 3994 3966 3978 3934 
z
M 3219 2922 
Q 3050 3125 2756 3413 
L 2756 2444 
Q 3447 2600 3963 2856 
Q 3747 3069 3559 3316 
Q 3400 3109 3219 2922 
z
M 969 597 
L 1281 597 
L 1281 2134 
L 969 2134 
L 969 597 
z
M 1806 597 
L 2119 597 
L 2119 2134 
L 1806 2134 
L 1806 597 
z
M 5175 966 
L 3881 966 
L 3881 228 
L 5175 228 
L 5175 966 
z
" transform="scale(0.015625)"/>
      <path id="MicrosoftYaHei-Bold-3a" d="M 313 2969 
Q 313 3200 491 3350 
Q 669 3500 916 3500 
Q 1166 3500 1337 3350 
Q 1509 3200 1509 2969 
Q 1509 2728 1337 2579 
Q 1166 2431 903 2431 
Q 653 2431 483 2584 
Q 313 2738 313 2969 
z
M 313 453 
Q 313 688 491 838 
Q 669 988 916 988 
Q 1166 988 1337 834 
Q 1509 681 1509 453 
Q 1509 213 1337 64 
Q 1166 -84 903 -84 
Q 659 -84 486 69 
Q 313 222 313 453 
z
" transform="scale(0.015625)"/>
     </defs>
     <use xlink:href="#MicrosoftYaHei-Bold-516c"/>
     <use xlink:href="#MicrosoftYaHei-Bold-5f0f" transform="translate(100 0)"/>
     <use xlink:href="#MicrosoftYaHei-Bold-9009" transform="translate(200 0)"/>
     <use xlink:href="#MicrosoftYaHei-Bold-62e9" transform="translate(300 0)"/>
     <use xlink:href="#MicrosoftYaHei-Bold-7b56" transform="translate(400 0)"/>
     <use xlink:href="#MicrosoftYaHei-Bold-7565" transform="translate(500 0)"/>
     <use xlink:href="#MicrosoftYaHei-Bold-3a" transform="translate(600 0)"/>
     <use xlink:href="#MicrosoftYaHei-Bold-20" transform="translate(628.564453 0)"/>
     <use xlink:href="#MicrosoftYaHei-Bold-5df2" transform="translate(658.349609 0)"/>
     <use xlink:href="#MicrosoftYaHei-Bold-77e5" transform="translate(758.349609 0)"/>
     <use xlink:href="#MicrosoftYaHei-Bold-20" transform="translate(858.349609 0)"/>
     <use xlink:href="#MicrosoftYaHei-Bold-72" transform="translate(888.134766 0)"/>
     <use xlink:href="#MicrosoftYaHei-Bold-61" transform="translate(930.517578 0)"/>
     <use xlink:href="#MicrosoftYaHei-Bold-72" transform="translate(988.28125 0)"/>
     <use xlink:href="#MicrosoftYaHei-Bold-72" transform="translate(1030.664062 0)"/>
     <use xlink:href="#MicrosoftYaHei-Bold-20" transform="translate(1073.046875 0)"/>
     <use xlink:href="#MicrosoftYaHei-Bold-516c" transform="translate(1102.832031 0)"/>
     <use xlink:href="#MicrosoftYaHei-Bold-5f0f" transform="translate(1202.832031 0)"/>
     <use xlink:href="#MicrosoftYaHei-Bold-20" transform="translate(1302.832031 0)"/>
     <use xlink:href="#MicrosoftYaHei-Bold-72" transform="translate(1332.617188 0)"/>
     <use xlink:href="#MicrosoftYaHei-Bold-61" transform="translate(1375 0)"/>
     <use xlink:href="#MicrosoftYaHei-Bold-72" transform="translate(1432.763672 0)"/>
     <use xlink:href="#MicrosoftYaHei-Bold-72" transform="translate(1475.146484 0)"/>
     <use xlink:href="#MicrosoftYaHei-Bold-20" transform="translate(1517.529297 0)"/>
     <use xlink:href="#MicrosoftYaHei-Bold-6240" transform="translate(1547.314453 0)"/>
     <use xlink:href="#MicrosoftYaHei-Bold-6c42" transform="translate(1647.314453 0)"/>
    </g>
   </g>
  </g>
 </g>
 <defs>
  <clipPath id="p041c7808f3">
   <rect x="7.2" y="164.313125" width="390.6" height="221.76"/>
  </clipPath>
 </defs>
</svg>
