<?xml version="1.0" encoding="utf-8" standalone="no"?>
<!DOCTYPE svg PUBLIC "-//W3C//DTD SVG 1.1//EN"
  "http://www.w3.org/Graphics/SVG/1.1/DTD/svg11.dtd">
<svg xmlns:xlink="http://www.w3.org/1999/xlink" width="2225.76pt" height="924.606437pt" viewBox="0 0 2225.76 924.606437" xmlns="http://www.w3.org/2000/svg" version="1.1">
 <metadata>
  <rdf:RDF xmlns:dc="http://purl.org/dc/elements/1.1/" xmlns:cc="http://creativecommons.org/ns#" xmlns:rdf="http://www.w3.org/1999/02/22-rdf-syntax-ns#">
   <cc:Work>
    <dc:type rdf:resource="http://purl.org/dc/dcmitype/StillImage"/>
    <dc:date>2026-05-29T22:13:22.763791</dc:date>
    <dc:format>image/svg+xml</dc:format>
    <dc:creator>
     <cc:Agent>
      <dc:title>Matplotlib v3.10.9, https://matplotlib.org/</dc:title>
     </cc:Agent>
    </dc:creator>
   </cc:Work>
  </rdf:RDF>
 </metadata>
 <defs>
  <style type="text/css">*{stroke-linejoin: round; stroke-linecap: butt}</style>
 </defs>
 <g id="figure_1">
  <g id="patch_1">
   <path d="M 0 924.606437 
L 2225.76 924.606437 
L 2225.76 0 
L 0 0 
z
" style="fill: #ffffff"/>
  </g>
  <g id="axes_1">
   <g id="text_1">
    <!-- 力学模型 -->
    <g style="fill: #c0392b" transform="translate(85.32 94.4085) scale(0.1 -0.1)">
     <defs>
      <path id="MicrosoftYaHei-Bold-529b" d="M 2094 5309 
L 3063 5309 
L 3022 4066 
L 5988 4066 
L 5931 2203 
Q 5897 1225 5859 593 
Q 5822 -38 5489 -373 
Q 5156 -709 4611 -721 
Q 4066 -734 3225 -728 
Q 3138 -184 3038 247 
Q 3531 197 4188 197 
Q 4503 197 4665 320 
Q 4828 444 4876 623 
Q 4925 803 4964 1515 
Q 5003 2228 5025 3241 
L 2978 3241 
Q 2919 603 769 -891 
Q 444 -491 38 -84 
Q 1963 1059 2031 3241 
L 381 3241 
L 381 4066 
L 2075 4066 
Q 2097 4644 2094 5309 
z
" transform="scale(0.015625)"/>
      <path id="MicrosoftYaHei-Bold-5b66" d="M 1425 5341 
Q 1800 4916 2188 4391 
L 1909 4203 
L 2953 4203 
Q 2691 4706 2469 5053 
L 3231 5391 
Q 3481 5009 3819 4403 
L 3388 4203 
L 4153 4203 
Q 4581 4819 4875 5272 
L 5719 4809 
L 5213 4203 
L 6113 4203 
L 6113 2666 
L 5238 2666 
L 5238 3441 
L 1156 3441 
L 1156 2666 
L 281 2666 
L 281 4203 
L 1303 4203 
Q 1028 4581 769 4897 
L 1425 5341 
z
M 175 1528 
L 2906 1528 
L 2906 1691 
L 3744 2234 
L 1456 2234 
L 1456 2997 
L 4975 2997 
L 4975 2241 
L 3900 1528 
L 6231 1528 
L 6231 753 
L 3806 753 
L 3806 116 
Q 3806 -316 3565 -556 
Q 3325 -797 2829 -800 
Q 2334 -803 1813 -803 
Q 1725 -372 1600 22 
Q 2075 -3 2469 -3 
Q 2906 -3 2906 378 
L 2906 753 
L 175 753 
L 175 1528 
z
" transform="scale(0.015625)"/>
      <path id="MicrosoftYaHei-Bold-6a21" d="M 6250 534 
L 4825 534 
Q 5419 84 6325 -53 
Q 6131 -403 5913 -859 
Q 4769 -522 4169 334 
Q 3694 -503 2406 -897 
Q 2206 -509 1925 -159 
Q 3013 66 3419 534 
L 2088 534 
L 2088 1141 
L 3719 1141 
Q 3756 1284 3769 1459 
L 2425 1459 
L 2425 2134 
L 1944 1659 
Q 1800 1878 1638 2109 
L 1638 -841 
L 863 -841 
L 863 1803 
Q 619 1141 275 547 
Q 213 978 75 1691 
Q 525 2453 788 3328 
L 138 3328 
L 138 4066 
L 863 4066 
L 863 5291 
L 1638 5291 
L 1638 4066 
L 2219 4066 
L 2219 3328 
L 1638 3328 
L 1638 2972 
Q 2081 2559 2425 2209 
L 2425 3703 
L 6025 3703 
L 6025 1459 
L 4556 1459 
Q 4544 1291 4519 1141 
L 6250 1141 
L 6250 534 
z
M 5250 2009 
L 5250 2353 
L 3200 2353 
L 3200 2009 
L 5250 2009 
z
M 5250 3147 
L 3200 3147 
L 3200 2816 
L 5250 2816 
L 5250 3147 
z
M 5413 3853 
L 4675 3853 
L 4675 4203 
L 3719 4203 
L 3719 3853 
L 2981 3853 
L 2981 4203 
L 2175 4203 
L 2175 4822 
L 2981 4822 
L 2981 5291 
L 3719 5291 
L 3719 4822 
L 4675 4822 
L 4675 5291 
L 5413 5291 
L 5413 4822 
L 6275 4822 
L 6275 4203 
L 5413 4203 
L 5413 3853 
z
" transform="scale(0.015625)"/>
      <path id="MicrosoftYaHei-Bold-578b" d="M 5963 5216 
L 5963 2547 
Q 5963 2141 5752 1928 
Q 5541 1716 5095 1700 
Q 4650 1684 4269 1684 
Q 4231 2059 4150 2447 
Q 4469 2428 4813 2428 
Q 5150 2428 5150 2709 
L 5150 5216 
L 5963 5216 
z
M 150 3491 
L 891 3491 
Q 900 3616 900 4341 
L 325 4341 
L 325 5066 
L 3625 5066 
L 3625 4341 
L 3113 4341 
L 3113 3491 
L 3750 3491 
L 3750 2766 
L 3113 2766 
L 3113 2091 
L 3656 2091 
L 3656 1441 
L 5781 1441 
L 5781 678 
L 3656 678 
L 3656 103 
L 6294 103 
L 6294 -647 
L 138 -647 
L 138 103 
L 2763 103 
L 2763 678 
L 650 678 
L 650 1441 
L 2763 1441 
L 2763 1766 
L 2350 1766 
L 2350 2766 
L 1559 2766 
Q 1375 2016 888 1522 
Q 675 1697 275 2009 
Q 584 2334 741 2766 
L 150 2766 
L 150 3491 
z
M 1663 3491 
L 2350 3491 
L 2350 4341 
L 1669 4341 
Q 1669 3753 1663 3491 
z
M 3900 4866 
L 4650 4866 
L 4650 2753 
L 3900 2753 
L 3900 4866 
z
" transform="scale(0.015625)"/>
     </defs>
     <use xlink:href="#MicrosoftYaHei-Bold-529b"/>
     <use xlink:href="#MicrosoftYaHei-Bold-5b66" transform="translate(100 0)"/>
     <use xlink:href="#MicrosoftYaHei-Bold-6a21" transform="translate(200 0)"/>
     <use xlink:href="#MicrosoftYaHei-Bold-578b" transform="translate(300 0)"/>
    </g>
   </g>
   <g id="text_2">
    <g id="patch_2">
     <path d="M 764.4 97.59725 
L 812.4 97.59725 
Q 813.6 97.59725 813.6 96.39725 
L 813.6 88.0135 
Q 813.6 86.8135 812.4 86.8135 
L 764.4 86.8135 
Q 763.2 86.8135 763.2 88.0135 
L 763.2 96.39725 
Q 763.2 97.59725 764.4 97.59725 
z
" style="fill: #fadbd8; opacity: 0.8; stroke: #c0392b; stroke-linejoin: miter"/>
    </g>
    <!-- 受力平衡模型 -->
    <g transform="translate(764.4 94.4085) scale(0.08 -0.08)">
     <defs>
      <path id="MicrosoftYaHei-53d7" d="M 1075 1684 
L 1075 2116 
L 5025 2116 
L 5025 1672 
Q 4478 881 3616 275 
Q 4544 -150 6313 -309 
Q 6125 -566 5975 -847 
Q 4141 -591 3144 -13 
Q 2150 -534 400 -884 
Q 275 -666 106 -416 
Q 1741 -125 2688 297 
Q 1984 850 1506 1684 
L 1075 1684 
z
M 319 3241 
L 4138 3241 
Q 4453 3697 4894 4522 
L 5388 4241 
Q 4978 3644 4675 3241 
L 6075 3241 
L 6075 1959 
L 5569 1959 
L 5569 2803 
L 825 2803 
L 825 1959 
L 319 1959 
L 319 3241 
z
M 625 4484 
Q 588 4703 538 4947 
Q 3550 4978 5669 5134 
L 5744 4672 
Q 3256 4541 625 4484 
z
M 4456 1684 
L 2013 1684 
Q 2459 1009 3153 538 
Q 3941 1016 4456 1684 
z
M 2644 4272 
L 3050 4472 
Q 3356 4028 3588 3566 
L 3131 3347 
Q 2919 3822 2644 4272 
z
M 931 4159 
L 1319 4397 
Q 1656 3953 1906 3547 
L 1463 3291 
Q 1213 3741 931 4159 
z
" transform="scale(0.015625)"/>
      <path id="MicrosoftYaHei-529b" d="M 400 3916 
L 2425 3916 
Q 2444 4603 2450 5316 
L 2994 5316 
Q 2981 4653 2963 3916 
L 5831 3916 
Q 5756 1472 5688 459 
Q 5606 -616 4538 -628 
Q 4025 -628 3300 -603 
Q 3275 -359 3206 -9 
L 3225 -9 
Q 4038 -84 4488 -78 
Q 5094 -66 5156 591 
Q 5231 1709 5269 3403 
L 2950 3403 
Q 2894 1775 2431 953 
Q 1938 41 506 -803 
Q 331 -578 131 -328 
Q 1488 434 1913 1209 
Q 2353 1913 2406 3403 
L 400 3403 
L 400 3916 
z
" transform="scale(0.015625)"/>
      <path id="MicrosoftYaHei-5e73" d="M 169 1934 
L 2938 1934 
L 2938 4547 
L 450 4547 
L 450 5028 
L 5975 5028 
L 5975 4547 
L 3463 4547 
L 3463 1934 
L 6250 1934 
L 6250 1453 
L 3463 1453 
L 3463 -847 
L 2938 -847 
L 2938 1453 
L 169 1453 
L 169 1934 
z
M 3950 2559 
Q 4638 3284 5188 4159 
L 5656 3859 
Q 4950 2891 4338 2234 
L 3950 2559 
z
M 769 3859 
L 1163 4134 
Q 1863 3316 2369 2553 
L 1925 2222 
Q 1444 3003 769 3859 
z
" transform="scale(0.015625)"/>
      <path id="MicrosoftYaHei-8861" d="M 1456 3784 
Q 2081 4434 2538 5241 
L 2925 5091 
Q 2847 4959 2766 4828 
L 4063 4828 
L 4063 4491 
L 3703 3966 
L 4375 3966 
L 4375 1491 
L 3988 1491 
L 3988 1647 
L 2238 1647 
L 2238 1453 
L 1850 1453 
L 1850 3603 
Q 1800 3547 1750 3491 
Q 1606 3647 1456 3784 
z
M 1644 1153 
L 2869 1153 
Q 2894 1334 2894 1553 
L 3319 1553 
Q 3319 1338 3300 1153 
L 4450 1153 
L 4450 753 
L 3228 753 
Q 3216 706 3200 659 
Q 3784 309 4300 -9 
L 4038 -391 
Q 3606 -84 3022 306 
Q 2678 -191 1725 -653 
Q 1638 -522 1469 -266 
Q 2563 222 2772 753 
L 1644 753 
L 1644 1153 
z
M 4519 3016 
L 6300 3016 
L 6300 2559 
L 5650 2559 
L 5650 -97 
Q 5650 -778 5006 -791 
Q 4744 -797 4350 -791 
Q 4325 -641 4256 -328 
Q 4613 -366 4881 -366 
Q 5225 -366 5225 -41 
L 5225 2559 
L 4519 2559 
L 4519 3016 
z
M 50 1659 
Q 694 2378 1263 3659 
L 1650 3434 
Q 1409 2953 1181 2553 
L 1181 -834 
L 756 -834 
L 756 1850 
Q 494 1447 250 1159 
Q 163 1403 50 1659 
z
M 44 3616 
Q 788 4341 1275 5341 
L 1675 5084 
Q 1031 3928 275 3166 
Q 175 3391 44 3616 
z
M 4688 4841 
L 6125 4841 
L 6125 4391 
L 4688 4391 
L 4688 4841 
z
M 3513 4428 
L 2494 4428 
Q 2331 4200 2147 3966 
L 3219 3966 
L 3513 4428 
z
M 3988 3572 
L 3294 3572 
L 3294 2984 
L 3988 2984 
L 3988 3572 
z
M 2238 2984 
L 2931 2984 
L 2931 3572 
L 2238 3572 
L 2238 2984 
z
M 2238 2041 
L 2931 2041 
L 2931 2622 
L 2238 2622 
L 2238 2041 
z
M 3294 2041 
L 3988 2041 
L 3988 2622 
L 3294 2622 
L 3294 2041 
z
" transform="scale(0.015625)"/>
      <path id="MicrosoftYaHei-6a21" d="M 2050 984 
L 3859 984 
Q 3900 1213 3913 1547 
L 2950 1547 
L 2950 1372 
L 2500 1372 
L 2500 3634 
L 5844 3634 
L 5844 1372 
L 5394 1372 
L 5394 1547 
L 4344 1547 
Q 4325 1203 4288 984 
L 6250 984 
L 6250 584 
L 4525 584 
Q 5203 -175 6319 -341 
Q 6144 -572 6013 -809 
Q 4803 -456 4128 466 
Q 3681 -431 2075 -847 
Q 1969 -628 1831 -416 
Q 3303 -106 3713 584 
L 2050 584 
L 2050 984 
z
M 63 1409 
Q 603 2316 922 3509 
L 138 3509 
L 138 3922 
L 1006 3922 
L 1006 5309 
L 1444 5309 
L 1444 3922 
L 2256 3922 
L 2256 3509 
L 1444 3509 
L 1444 2684 
L 1688 2884 
Q 2044 2503 2350 2116 
L 2006 1828 
Q 1719 2244 1444 2563 
L 1444 -822 
L 1006 -822 
L 1006 2581 
Q 672 1438 275 859 
Q 188 1128 63 1409 
z
M 4713 5303 
L 5150 5303 
L 5150 4703 
L 6225 4703 
L 6225 4303 
L 5150 4303 
L 5150 3797 
L 4713 3797 
L 4713 4303 
L 3600 4303 
L 3600 3797 
L 3163 3797 
L 3163 4303 
L 2175 4303 
L 2175 4703 
L 3163 4703 
L 3163 5309 
L 3600 5309 
L 3600 4703 
L 4713 4703 
L 4713 5303 
z
M 5394 3247 
L 2950 3247 
L 2950 2778 
L 5394 2778 
L 5394 3247 
z
M 2950 1934 
L 5394 1934 
L 5394 2403 
L 2950 2403 
L 2950 1934 
z
" transform="scale(0.015625)"/>
      <path id="MicrosoftYaHei-578b" d="M 150 3503 
L 1100 3503 
Q 1106 3638 1106 4547 
L 413 4547 
L 413 4959 
L 3675 4959 
L 3675 4547 
L 2994 4547 
L 2994 3503 
L 3881 3503 
L 3881 3091 
L 2994 3091 
L 2994 1747 
L 2538 1747 
L 2538 3091 
L 1528 3091 
Q 1450 2191 638 1534 
Q 475 1716 294 1897 
Q 1013 2453 1066 3091 
L 150 3091 
L 150 3503 
z
M 138 -103 
L 2938 -103 
L 2938 741 
L 706 741 
L 706 1172 
L 2938 1172 
L 2938 1659 
L 3425 1659 
L 3425 1172 
L 5713 1172 
L 5713 741 
L 3425 741 
L 3425 -103 
L 6256 -103 
L 6256 -534 
L 138 -534 
L 138 -103 
z
M 5856 5209 
L 5856 2334 
Q 5856 1672 5200 1659 
Q 4825 1647 4331 1659 
Q 4306 1897 4256 2153 
Q 4781 2122 5044 2122 
Q 5400 2122 5400 2516 
L 5400 5209 
L 5856 5209 
z
M 1556 3503 
L 2538 3503 
L 2538 4547 
L 1563 4547 
Q 1563 3791 1556 3503 
z
M 4138 4859 
L 4588 4859 
L 4588 2697 
L 4138 2697 
L 4138 4859 
z
" transform="scale(0.015625)"/>
     </defs>
     <use xlink:href="#MicrosoftYaHei-53d7"/>
     <use xlink:href="#MicrosoftYaHei-529b" transform="translate(100 0)"/>
     <use xlink:href="#MicrosoftYaHei-5e73" transform="translate(200 0)"/>
     <use xlink:href="#MicrosoftYaHei-8861" transform="translate(300 0)"/>
     <use xlink:href="#MicrosoftYaHei-6a21" transform="translate(400 0)"/>
     <use xlink:href="#MicrosoftYaHei-578b" transform="translate(500 0)"/>
    </g>
   </g>
   <g id="text_3">
    <g id="patch_3">
     <path d="M 1233.12 97.59725 
L 1281.12 97.59725 
Q 1282.32 97.59725 1282.32 96.39725 
L 1282.32 88.0135 
Q 1282.32 86.8135 1281.12 86.8135 
L 1233.12 86.8135 
Q 1231.92 86.8135 1231.92 88.0135 
L 1231.92 96.39725 
Q 1231.92 97.59725 1233.12 97.59725 
z
" style="fill: #fadbd8; opacity: 0.8; stroke: #c0392b; stroke-linejoin: miter"/>
    </g>
    <!-- 压强浮力模型 -->
    <g transform="translate(1233.12 94.4085) scale(0.08 -0.08)">
     <defs>
      <path id="MicrosoftYaHei-538b" d="M 1363 3 
L 3538 3 
L 3538 2216 
L 1819 2216 
L 1819 2684 
L 3538 2684 
L 3538 4078 
L 4063 4078 
L 4063 2684 
L 5994 2684 
L 5994 2216 
L 4063 2216 
L 4063 3 
L 6250 3 
L 6250 -459 
L 1363 -459 
L 1363 3 
z
M 1363 2772 
Q 1363 1378 1188 672 
Q 1006 -59 488 -803 
Q 338 -622 100 -384 
Q 563 303 694 884 
Q 838 1459 838 2653 
L 838 4866 
L 6219 4866 
L 6219 4391 
L 1363 4391 
L 1363 2772 
z
M 4588 1516 
L 4938 1803 
Q 5413 1316 5881 791 
L 5469 459 
Q 4875 1191 4588 1516 
z
" transform="scale(0.015625)"/>
      <path id="MicrosoftYaHei-5f3a" d="M 5250 466 
L 5669 666 
Q 6031 28 6363 -641 
L 5894 -878 
Q 5794 -641 5688 -416 
Q 3750 -547 2219 -653 
L 2150 -134 
Q 3088 -97 3969 -59 
L 3969 866 
L 2894 866 
L 2894 622 
L 2431 622 
L 2431 2616 
L 3969 2616 
L 3969 3297 
L 3144 3297 
L 3144 3047 
L 2681 3047 
L 2681 4972 
L 5731 4972 
L 5731 3047 
L 5269 3047 
L 5269 3297 
L 4444 3297 
L 4444 2616 
L 5988 2616 
L 5988 866 
L 4444 866 
L 4444 -41 
Q 4975 -22 5488 3 
Q 5369 241 5250 466 
z
M 425 3466 
L 1650 3466 
L 1650 4516 
L 238 4516 
L 238 4941 
L 2113 4941 
L 2113 2772 
L 1650 2772 
L 1650 3041 
L 831 3041 
L 719 2072 
L 2056 2072 
Q 1994 741 1944 128 
Q 1888 -722 1100 -722 
Q 819 -722 425 -716 
Q 388 -484 325 -216 
Q 731 -247 1019 -247 
Q 1444 -247 1475 191 
Q 1525 828 1563 1647 
L 225 1647 
L 425 3466 
z
M 5269 4547 
L 3144 4547 
L 3144 3722 
L 5269 3722 
L 5269 4547 
z
M 5525 1291 
L 5525 2191 
L 4444 2191 
L 4444 1291 
L 5525 1291 
z
M 2894 1291 
L 3969 1291 
L 3969 2191 
L 2894 2191 
L 2894 1291 
z
" transform="scale(0.015625)"/>
      <path id="MicrosoftYaHei-6d6e" d="M 1519 1359 
L 3806 1359 
L 3806 1728 
L 4981 2484 
L 2031 2484 
L 2031 2928 
L 5700 2928 
L 5700 2434 
L 4294 1509 
L 4294 1359 
L 6319 1359 
L 6319 909 
L 4294 909 
L 4294 -59 
Q 4294 -766 3550 -766 
Q 3225 -766 2656 -753 
Q 2625 -528 2575 -247 
Q 3150 -297 3444 -297 
Q 3806 -297 3806 59 
L 3806 909 
L 1519 909 
L 1519 1359 
z
M 1894 4428 
Q 1856 4647 1806 4891 
Q 4050 4941 5938 5128 
L 6025 4672 
Q 4725 4547 1894 4428 
z
M 813 1766 
Q 1075 1641 1319 1559 
Q 1075 609 769 -791 
L 219 -628 
Q 544 391 813 1766 
z
M 4569 3278 
Q 4988 3828 5350 4484 
L 5806 4247 
Q 5438 3647 4981 3016 
L 4569 3278 
z
M 388 3572 
Q 956 3159 1456 2741 
Q 1263 2534 1094 2341 
Q 556 2841 75 3216 
L 388 3572 
z
M 631 5184 
Q 1119 4803 1675 4309 
Q 1463 4103 1300 3934 
Q 769 4459 313 4841 
L 631 5184 
z
M 1906 4047 
L 2281 4266 
Q 2625 3797 2938 3297 
L 2525 3053 
Q 2225 3591 1906 4047 
z
M 3250 4197 
L 3644 4391 
Q 3919 3972 4206 3428 
L 3781 3209 
Q 3525 3747 3250 4197 
z
" transform="scale(0.015625)"/>
     </defs>
     <use xlink:href="#MicrosoftYaHei-538b"/>
     <use xlink:href="#MicrosoftYaHei-5f3a" transform="translate(100 0)"/>
     <use xlink:href="#MicrosoftYaHei-6d6e" transform="translate(200 0)"/>
     <use xlink:href="#MicrosoftYaHei-529b" transform="translate(300 0)"/>
     <use xlink:href="#MicrosoftYaHei-6a21" transform="translate(400 0)"/>
     <use xlink:href="#MicrosoftYaHei-578b" transform="translate(500 0)"/>
    </g>
   </g>
   <g id="text_4">
    <g id="patch_4">
     <path d="M 1701.84 97.59725 
L 1749.84 97.59725 
Q 1751.04 97.59725 1751.04 96.39725 
L 1751.04 88.0135 
Q 1751.04 86.8135 1749.84 86.8135 
L 1701.84 86.8135 
Q 1700.64 86.8135 1700.64 88.0135 
L 1700.64 96.39725 
Q 1700.64 97.59725 1701.84 97.59725 
z
" style="fill: #fadbd8; opacity: 0.8; stroke: #c0392b; stroke-linejoin: miter"/>
    </g>
    <!-- 机械功与功率 -->
    <g transform="translate(1701.84 94.4085) scale(0.08 -0.08)">
     <defs>
      <path id="MicrosoftYaHei-673a" d="M 3375 4434 
L 3375 2366 
Q 3375 128 2256 -878 
Q 2081 -666 1888 -453 
Q 2875 416 2875 2253 
L 2875 4909 
L 5200 4909 
L 5200 209 
Q 5200 -103 5419 -103 
L 5563 -103 
Q 5763 -103 5819 247 
Q 5881 728 5906 1284 
Q 6125 1178 6381 1084 
Q 6325 466 6269 72 
Q 6169 -591 5631 -591 
L 5300 -591 
Q 4700 -591 4700 122 
L 4700 4434 
L 3375 4434 
z
M 81 1403 
Q 781 2447 1078 3653 
L 144 3653 
L 144 4078 
L 1119 4078 
L 1119 5309 
L 1569 5309 
L 1569 4078 
L 2444 4078 
L 2444 3653 
L 1569 3653 
L 1569 2616 
L 1819 2866 
Q 2300 2428 2575 2153 
L 2238 1809 
Q 1853 2234 1569 2516 
L 1569 -784 
L 1119 -784 
L 1119 2566 
Q 784 1506 288 853 
Q 188 1134 81 1403 
z
" transform="scale(0.015625)"/>
      <path id="MicrosoftYaHei-68b0" d="M 6100 3059 
Q 5775 1772 5081 778 
Q 5275 28 5569 -203 
Q 5694 -303 5744 -134 
Q 5825 147 5888 947 
Q 6100 834 6313 766 
Q 6238 28 6150 -322 
Q 6044 -728 5744 -784 
Q 5438 -822 5163 -472 
Q 4919 -203 4744 334 
Q 4419 -47 4031 -384 
Q 3938 -191 3788 -16 
Q 4244 397 4600 872 
Q 4400 1778 4306 3691 
L 2275 3691 
L 2275 4109 
L 4288 4109 
Q 4269 4641 4250 5266 
L 4706 5266 
Q 4713 4628 4731 4109 
L 6175 4109 
L 6175 3691 
L 4750 3691 
Q 4813 2366 4956 1397 
Q 5444 2216 5663 3184 
L 6100 3059 
z
M 75 1359 
Q 631 2309 925 3578 
L 194 3578 
L 194 3997 
L 975 3997 
L 975 5234 
L 1413 5234 
L 1413 3997 
L 2063 3997 
L 2063 3578 
L 1413 3578 
L 1413 3053 
L 1631 3184 
Q 1900 2809 2150 2409 
L 1788 2184 
Q 1600 2522 1413 2822 
L 1413 -834 
L 975 -834 
L 975 2509 
Q 663 1422 275 809 
Q 188 1122 75 1359 
z
M 1919 1997 
L 2381 1997 
L 2381 3284 
L 2806 3284 
L 2806 1997 
L 3350 1997 
L 3350 3284 
L 3775 3284 
L 3775 1997 
L 4250 1997 
L 4250 1578 
L 3775 1578 
L 3775 -634 
L 3350 -634 
L 3350 1578 
L 2800 1578 
Q 2769 53 2050 -722 
Q 1931 -559 1725 -372 
Q 2344 291 2375 1578 
L 1919 1578 
L 1919 1997 
z
M 4988 4916 
L 5263 5203 
Q 5719 4872 5988 4616 
L 5669 4278 
Q 5381 4584 4988 4916 
z
" transform="scale(0.015625)"/>
      <path id="MicrosoftYaHei-529f" d="M 2500 3978 
L 3475 3978 
Q 3488 4538 3494 5278 
L 4000 5278 
Q 3991 4531 3975 3978 
L 5969 3978 
Q 5913 1791 5844 291 
Q 5775 -691 4956 -709 
Q 4413 -716 3756 -684 
Q 3713 -397 3656 -122 
Q 4306 -197 4844 -191 
Q 5313 -178 5344 378 
Q 5425 1847 5450 3497 
L 3963 3497 
Q 3950 3003 3931 2734 
Q 3813 266 1938 -847 
Q 1800 -653 1575 -422 
Q 3325 553 3431 2772 
Q 3450 3063 3463 3497 
L 2500 3497 
L 2500 3978 
z
M 81 822 
Q 619 941 1119 1056 
L 1119 4134 
L 169 4134 
L 169 4622 
L 2675 4622 
L 2675 4134 
L 1625 4134 
L 1625 1178 
Q 2166 1313 2656 1447 
Q 2669 1122 2700 947 
Q 1594 672 225 291 
L 81 822 
z
" transform="scale(0.015625)"/>
      <path id="MicrosoftYaHei-4e0e" d="M 1163 2384 
L 1163 2859 
L 1413 5328 
L 1931 5328 
L 1834 4334 
L 6269 4334 
L 6269 3859 
L 1791 3859 
L 1694 2859 
L 5813 2859 
Q 5738 1547 5644 416 
Q 5556 -247 5263 -478 
Q 4981 -703 4322 -703 
Q 3706 -697 2900 -678 
Q 2863 -466 2794 -134 
Q 3744 -203 4213 -209 
Q 5050 -266 5125 447 
Q 5206 1278 5263 2384 
L 1163 2384 
z
M 106 1409 
L 4738 1409 
L 4738 934 
L 106 934 
L 106 1409 
z
" transform="scale(0.015625)"/>
      <path id="MicrosoftYaHei-7387" d="M 2525 2009 
Q 2622 2016 3928 2081 
Q 3772 2300 3625 2491 
L 3963 2703 
Q 4413 2203 4794 1653 
L 4394 1403 
Q 4284 1569 4178 1725 
Q 2991 1659 2213 1597 
Q 2075 1584 1881 1541 
L 1725 1966 
Q 1913 2028 2006 2084 
Q 2534 2441 3050 2913 
Q 2597 2894 2275 2866 
Q 2144 2847 1988 2809 
L 1800 3191 
Q 1956 3247 2088 3366 
Q 2509 3722 2875 4228 
L 231 4228 
L 231 4666 
L 3031 4666 
Q 2878 4944 2744 5153 
L 3194 5372 
Q 3438 5000 3616 4666 
L 6175 4666 
L 6175 4228 
L 3053 4228 
L 3350 4072 
Q 2844 3553 2494 3247 
Q 2850 3256 3425 3269 
Q 3675 3519 3925 3797 
L 4356 3547 
Q 3363 2603 2525 2009 
z
M 144 991 
L 2994 991 
L 2994 1541 
L 3488 1541 
L 3488 991 
L 6275 991 
L 6275 553 
L 3488 553 
L 3488 -853 
L 2994 -853 
L 2994 553 
L 144 553 
L 144 991 
z
M 1719 2672 
L 1944 2303 
Q 1200 1866 425 1409 
L 163 1828 
Q 813 2134 1719 2672 
z
M 4856 2678 
Q 5750 2172 6250 1816 
L 5975 1409 
Q 5331 1909 4600 2341 
L 4856 2678 
z
M 5994 3591 
Q 5519 3178 4963 2809 
L 4644 3141 
Q 5244 3534 5638 3928 
L 5994 3591 
z
M 363 3634 
L 681 3941 
Q 1200 3528 1588 3159 
L 1238 2816 
Q 875 3197 363 3634 
z
" transform="scale(0.015625)"/>
     </defs>
     <use xlink:href="#MicrosoftYaHei-673a"/>
     <use xlink:href="#MicrosoftYaHei-68b0" transform="translate(100 0)"/>
     <use xlink:href="#MicrosoftYaHei-529f" transform="translate(200 0)"/>
     <use xlink:href="#MicrosoftYaHei-4e0e" transform="translate(300 0)"/>
     <use xlink:href="#MicrosoftYaHei-529f" transform="translate(400 0)"/>
     <use xlink:href="#MicrosoftYaHei-7387" transform="translate(500 0)"/>
    </g>
   </g>
   <g id="text_5">
    <g id="patch_5">
     <path d="M 2178.56 97.59725 
L 2210.56 97.59725 
Q 2211.76 97.59725 2211.76 96.39725 
L 2211.76 88.0135 
Q 2211.76 86.8135 2210.56 86.8135 
L 2178.56 86.8135 
Q 2177.36 86.8135 2177.36 88.0135 
L 2177.36 96.39725 
Q 2177.36 97.59725 2178.56 97.59725 
z
" style="fill: #fadbd8; opacity: 0.8; stroke: #c0392b; stroke-linejoin: miter"/>
    </g>
    <!-- 简单机械 -->
    <g transform="translate(2178.56 94.4085) scale(0.08 -0.08)">
     <defs>
      <path id="MicrosoftYaHei-7b80" d="M 1894 2441 
L 4525 2441 
L 4525 103 
L 2331 103 
L 2331 -147 
L 1894 -147 
L 1894 2441 
z
M 2300 3009 
L 2300 3403 
L 5881 3403 
L 5881 -16 
Q 5881 -822 5081 -822 
Q 4713 -822 4325 -803 
Q 4300 -622 4231 -328 
Q 4681 -366 5050 -366 
Q 5419 -366 5419 3 
L 5419 3009 
L 2300 3009 
z
M 1306 5322 
L 1831 5322 
Q 1681 5016 1513 4734 
L 3288 4734 
L 3288 4341 
L 1250 4341 
Q 875 3816 413 3397 
Q 288 3547 88 3734 
Q 856 4409 1306 5322 
z
M 4019 5322 
L 4544 5322 
Q 4400 5016 4231 4734 
L 6225 4734 
L 6225 4341 
L 4000 4341 
Q 3719 3903 3400 3509 
Q 3231 3628 2994 3772 
Q 3588 4441 4019 5322 
z
M 569 2791 
L 1031 2791 
L 1031 -834 
L 569 -834 
L 569 2791 
z
M 2331 478 
L 4088 478 
L 4088 1097 
L 2331 1097 
L 2331 478 
z
M 4088 2066 
L 2331 2066 
L 2331 1459 
L 4088 1459 
L 4088 2066 
z
M 919 3484 
L 1225 3753 
Q 1613 3416 1944 3053 
L 1594 2734 
Q 1300 3103 919 3484 
z
M 4825 3434 
Q 4706 3622 4319 4072 
L 4644 4303 
Q 4981 3978 5194 3716 
L 4825 3434 
z
M 2169 3441 
Q 1944 3753 1675 4059 
L 2000 4297 
Q 2281 4034 2538 3722 
L 2169 3441 
z
" transform="scale(0.015625)"/>
      <path id="MicrosoftYaHei-5355" d="M 125 909 
L 2956 909 
L 2956 1616 
L 1225 1616 
L 1225 1322 
L 750 1322 
L 750 4353 
L 2047 4353 
Q 1747 4703 1400 5072 
L 1756 5366 
Q 2219 4922 2569 4547 
L 2338 4353 
L 3803 4353 
Q 4147 4809 4500 5347 
L 5000 5078 
Q 4678 4688 4378 4353 
L 5656 4353 
L 5656 1322 
L 5181 1322 
L 5181 1616 
L 3444 1616 
L 3444 909 
L 6275 909 
L 6275 459 
L 3444 459 
L 3444 -859 
L 2956 -859 
L 2956 459 
L 125 459 
L 125 909 
z
M 3444 2053 
L 5181 2053 
L 5181 2778 
L 3444 2778 
L 3444 2053 
z
M 1225 2053 
L 2956 2053 
L 2956 2778 
L 1225 2778 
L 1225 2053 
z
M 5181 3916 
L 3444 3916 
L 3444 3203 
L 5181 3203 
L 5181 3916 
z
M 1225 3203 
L 2956 3203 
L 2956 3916 
L 1225 3916 
L 1225 3203 
z
" transform="scale(0.015625)"/>
     </defs>
     <use xlink:href="#MicrosoftYaHei-7b80"/>
     <use xlink:href="#MicrosoftYaHei-5355" transform="translate(100 0)"/>
     <use xlink:href="#MicrosoftYaHei-673a" transform="translate(200 0)"/>
     <use xlink:href="#MicrosoftYaHei-68b0" transform="translate(300 0)"/>
    </g>
   </g>
   <g id="text_6">
    <!-- 电学模型 -->
    <g style="fill: #2980b9" transform="translate(85.32 271.8165) scale(0.1 -0.1)">
     <defs>
      <path id="MicrosoftYaHei-Bold-7535" d="M 5563 4522 
L 5563 1125 
Q 5866 997 6300 878 
Q 6131 -222 5828 -447 
Q 5525 -672 5025 -672 
L 3525 -672 
Q 2506 -672 2506 253 
L 2506 878 
L 1281 878 
L 1281 391 
L 381 391 
L 381 4522 
L 2506 4522 
L 2506 5291 
L 3413 5291 
L 3413 4522 
L 5563 4522 
z
M 4663 3734 
L 3413 3734 
L 3413 3097 
L 4663 3097 
L 4663 3734 
z
M 1281 3734 
L 1281 3097 
L 2506 3097 
L 2506 3734 
L 1281 3734 
z
M 4663 1666 
L 4663 2309 
L 3413 2309 
L 3413 1666 
L 4663 1666 
z
M 1281 1666 
L 2506 1666 
L 2506 2309 
L 1281 2309 
L 1281 1666 
z
M 3794 103 
L 4731 103 
Q 4963 103 5097 183 
Q 5231 263 5270 402 
Q 5309 541 5366 878 
L 3413 878 
L 3413 434 
Q 3413 103 3794 103 
z
" transform="scale(0.015625)"/>
     </defs>
     <use xlink:href="#MicrosoftYaHei-Bold-7535"/>
     <use xlink:href="#MicrosoftYaHei-Bold-5b66" transform="translate(100 0)"/>
     <use xlink:href="#MicrosoftYaHei-Bold-6a21" transform="translate(200 0)"/>
     <use xlink:href="#MicrosoftYaHei-Bold-578b" transform="translate(300 0)"/>
    </g>
   </g>
   <g id="text_7">
    <g id="patch_6">
     <path d="M 764.4 275.00525 
L 812.4 275.00525 
Q 813.6 275.00525 813.6 273.80525 
L 813.6 265.4215 
Q 813.6 264.2215 812.4 264.2215 
L 764.4 264.2215 
Q 763.2 264.2215 763.2 265.4215 
L 763.2 273.80525 
Q 763.2 275.00525 764.4 275.00525 
z
" style="fill: #d4e6f1; opacity: 0.8; stroke: #2980b9; stroke-linejoin: miter"/>
    </g>
    <!-- 欧姆定律模型 -->
    <g transform="translate(764.4 271.8165) scale(0.08 -0.08)">
     <defs>
      <path id="MicrosoftYaHei-6b27" d="M 400 4791 
L 3038 4791 
L 3038 4328 
L 863 4328 
L 863 316 
L 2925 316 
L 2925 -147 
L 400 -147 
L 400 4791 
z
M 4306 3684 
L 4775 3684 
Q 4778 3250 4763 2891 
Q 4997 391 6319 -378 
Q 6119 -597 5931 -809 
Q 4888 -47 4569 1653 
Q 4247 84 2969 -841 
Q 2775 -597 2625 -434 
Q 4088 553 4275 2372 
Q 4306 2734 4306 3684 
z
M 5306 2709 
Q 5563 3509 5706 3991 
L 3950 3991 
Q 3700 3203 3400 2547 
Q 3200 2653 2981 2741 
Q 3538 3916 3813 5316 
L 4288 5222 
Q 4194 4825 4088 4453 
L 6194 4453 
L 6194 3966 
Q 5988 3309 5763 2572 
Q 5519 2659 5306 2709 
z
M 1100 3603 
L 1475 3809 
Q 1797 3294 2078 2841 
Q 2359 3431 2606 4028 
L 3044 3828 
Q 2697 3050 2363 2384 
Q 2856 1588 3213 1009 
L 2794 759 
Q 2484 1294 2119 1906 
Q 1769 1244 1438 709 
Q 1244 834 1056 928 
Q 1478 1644 1844 2366 
Q 1497 2953 1100 3603 
z
" transform="scale(0.015625)"/>
      <path id="MicrosoftYaHei-59c6" d="M 2300 2834 
L 2734 2834 
L 2863 4934 
L 5775 4934 
Q 5759 3859 5738 2834 
L 6256 2834 
L 6256 2409 
L 5728 2409 
Q 5706 1559 5681 747 
L 6169 747 
L 6169 322 
L 5666 322 
Q 5663 269 5663 216 
Q 5650 -741 4750 -722 
Q 4381 -722 3913 -716 
Q 3888 -453 3819 -197 
Q 4281 -234 4694 -241 
Q 5166 -256 5184 322 
L 2581 322 
L 2706 2409 
L 2300 2409 
L 2300 2834 
z
M 2538 122 
L 2163 -259 
Q 1844 78 1503 406 
Q 1081 -247 381 -753 
Q 288 -566 94 -347 
Q 772 128 1153 738 
Q 759 1097 344 1447 
Q 556 2509 694 3603 
L 175 3603 
L 175 4072 
L 747 4072 
Q 819 4697 863 5334 
L 1356 5284 
Q 1291 4656 1219 4072 
L 2281 4072 
L 2281 3609 
Q 2206 1791 1744 841 
Q 2134 503 2538 122 
z
M 5250 2409 
L 3188 2409 
L 3088 747 
L 5200 747 
Q 5228 1569 5250 2409 
z
M 5288 4509 
L 3313 4509 
L 3213 2834 
L 5259 2834 
Q 5278 3663 5288 4509 
z
M 1372 1153 
Q 1781 2078 1813 3603 
L 1159 3603 
Q 1013 2516 838 1578 
Q 1103 1375 1372 1153 
z
M 3725 1903 
L 4113 2109 
Q 4388 1691 4650 1191 
L 4244 966 
Q 4006 1453 3725 1903 
z
M 3819 3991 
L 4200 4191 
Q 4481 3772 4706 3328 
L 4306 3103 
Q 4081 3572 3819 3991 
z
" transform="scale(0.015625)"/>
      <path id="MicrosoftYaHei-5b9a" d="M 81 -384 
Q 1119 509 1281 2241 
L 1806 2159 
Q 1731 1581 1578 1081 
Q 2063 50 3081 -103 
L 3081 2647 
L 225 2647 
L 225 3116 
L 6163 3116 
L 6163 2647 
L 3600 2647 
L 3600 1634 
L 5775 1634 
L 5775 1172 
L 3600 1172 
L 3600 -138 
Q 4844 -169 6306 -116 
Q 6200 -359 6125 -634 
Q 4594 -653 3450 -616 
Q 2041 -616 1378 528 
Q 1022 -300 413 -872 
Q 269 -628 81 -384 
z
M 450 4566 
L 3116 4566 
Q 2931 4834 2725 5091 
L 3200 5347 
Q 3444 5066 3731 4716 
L 3450 4566 
L 5981 4566 
L 5981 3378 
L 5488 3378 
L 5488 4097 
L 944 4097 
L 944 3384 
L 450 3384 
L 450 4566 
z
" transform="scale(0.015625)"/>
      <path id="MicrosoftYaHei-5f8b" d="M 2288 2666 
L 3681 2666 
L 3681 3253 
L 2063 3253 
L 2063 3653 
L 3681 3653 
L 3681 4234 
L 2338 4234 
L 2338 4634 
L 3681 4634 
L 3681 5291 
L 4150 5291 
L 4150 4634 
L 5700 4634 
L 5700 3653 
L 6313 3653 
L 6313 3253 
L 5700 3253 
L 5700 2034 
L 5238 2034 
L 5238 2266 
L 4150 2266 
L 4150 1634 
L 5900 1634 
L 5900 1234 
L 4150 1234 
L 4150 647 
L 6206 647 
L 6206 247 
L 4150 247 
L 4150 -828 
L 3681 -828 
L 3681 247 
L 1813 247 
L 1813 647 
L 3681 647 
L 3681 1234 
L 2163 1234 
L 2163 1634 
L 3681 1634 
L 3681 2266 
L 2288 2266 
L 2288 2666 
z
M 81 1634 
Q 850 2409 1550 3678 
L 1975 3453 
Q 1694 2963 1406 2531 
L 1406 -828 
L 944 -828 
L 944 1888 
Q 625 1475 300 1134 
Q 200 1409 81 1634 
z
M 106 3584 
Q 975 4284 1581 5341 
L 2019 5091 
Q 1363 4041 363 3134 
Q 256 3366 106 3584 
z
M 4150 2666 
L 5238 2666 
L 5238 3253 
L 4150 3253 
L 4150 2666 
z
M 5238 4234 
L 4150 4234 
L 4150 3653 
L 5238 3653 
L 5238 4234 
z
" transform="scale(0.015625)"/>
     </defs>
     <use xlink:href="#MicrosoftYaHei-6b27"/>
     <use xlink:href="#MicrosoftYaHei-59c6" transform="translate(100 0)"/>
     <use xlink:href="#MicrosoftYaHei-5b9a" transform="translate(200 0)"/>
     <use xlink:href="#MicrosoftYaHei-5f8b" transform="translate(300 0)"/>
     <use xlink:href="#MicrosoftYaHei-6a21" transform="translate(400 0)"/>
     <use xlink:href="#MicrosoftYaHei-578b" transform="translate(500 0)"/>
    </g>
   </g>
   <g id="text_8">
    <g id="patch_7">
     <path d="M 1237.12 275.00525 
L 1277.12 275.00525 
Q 1278.32 275.00525 1278.32 273.80525 
L 1278.32 265.4215 
Q 1278.32 264.2215 1277.12 264.2215 
L 1237.12 264.2215 
Q 1235.92 264.2215 1235.92 265.4215 
L 1235.92 273.80525 
Q 1235.92 275.00525 1237.12 275.00525 
z
" style="fill: #d4e6f1; opacity: 0.8; stroke: #2980b9; stroke-linejoin: miter"/>
    </g>
    <!-- 电功率模型 -->
    <g transform="translate(1237.12 271.8165) scale(0.08 -0.08)">
     <defs>
      <path id="MicrosoftYaHei-7535" d="M 406 4497 
L 2713 4497 
L 2713 5297 
L 3231 5297 
L 3231 4497 
L 5544 4497 
L 5544 984 
L 3231 984 
L 3231 253 
Q 3231 -128 3631 -128 
L 5094 -128 
Q 5519 -128 5613 153 
Q 5713 459 5756 1034 
Q 5938 953 6275 841 
Q 6200 341 6106 -16 
Q 5950 -603 5256 -603 
L 3594 -603 
Q 2713 -603 2713 259 
L 2713 984 
L 925 984 
L 925 553 
L 406 553 
L 406 4497 
z
M 5025 1453 
L 5025 2522 
L 3231 2522 
L 3231 1453 
L 5025 1453 
z
M 925 1453 
L 2713 1453 
L 2713 2522 
L 925 2522 
L 925 1453 
z
M 5025 4028 
L 3231 4028 
L 3231 2966 
L 5025 2966 
L 5025 4028 
z
M 925 2966 
L 2713 2966 
L 2713 4028 
L 925 4028 
L 925 2966 
z
" transform="scale(0.015625)"/>
     </defs>
     <use xlink:href="#MicrosoftYaHei-7535"/>
     <use xlink:href="#MicrosoftYaHei-529f" transform="translate(100 0)"/>
     <use xlink:href="#MicrosoftYaHei-7387" transform="translate(200 0)"/>
     <use xlink:href="#MicrosoftYaHei-6a21" transform="translate(300 0)"/>
     <use xlink:href="#MicrosoftYaHei-578b" transform="translate(400 0)"/>
    </g>
   </g>
   <g id="text_9">
    <g id="patch_8">
     <path d="M 1701.84 275.00525 
L 1749.84 275.00525 
Q 1751.04 275.00525 1751.04 273.80525 
L 1751.04 265.4215 
Q 1751.04 264.2215 1749.84 264.2215 
L 1701.84 264.2215 
Q 1700.64 264.2215 1700.64 265.4215 
L 1700.64 273.80525 
Q 1700.64 275.00525 1701.84 275.00525 
z
" style="fill: #d4e6f1; opacity: 0.8; stroke: #2980b9; stroke-linejoin: miter"/>
    </g>
    <!-- 电路故障分析 -->
    <g transform="translate(1701.84 271.8165) scale(0.08 -0.08)">
     <defs>
      <path id="MicrosoftYaHei-8def" d="M 481 2416 
L 894 2416 
L 894 106 
Q 1147 144 1413 184 
L 1413 3041 
L 913 3041 
L 913 2834 
L 463 2834 
L 463 4953 
L 2513 4953 
L 2513 3041 
L 1850 3041 
L 1850 1984 
L 2500 1984 
L 2500 1559 
L 1850 1559 
L 1850 250 
Q 2241 313 2650 384 
Q 2638 172 2638 -72 
Q 1419 -278 225 -484 
L 100 3 
Q 288 25 481 50 
L 481 2416 
z
M 2575 3428 
Q 3231 4234 3713 5359 
L 4175 5191 
Q 4041 4909 3906 4653 
L 5881 4653 
L 5881 4234 
Q 5472 3463 4797 2809 
Q 5413 2388 6313 2178 
Q 6188 1903 6106 1659 
Q 5125 1994 4441 2500 
Q 3759 1972 2788 1559 
Q 2725 1684 2538 2003 
Q 3384 2306 4072 2816 
Q 3694 3191 3391 3756 
Q 3138 3366 2888 3059 
Q 2738 3259 2575 3428 
z
M 3038 1584 
L 5756 1584 
L 5756 -847 
L 5288 -847 
L 5288 -547 
L 3506 -547 
L 3506 -847 
L 3038 -847 
L 3038 1584 
z
M 5288 1147 
L 3506 1147 
L 3506 -109 
L 5288 -109 
L 5288 1147 
z
M 2063 3466 
L 2063 4528 
L 913 4528 
L 913 3466 
L 2063 3466 
z
M 5344 4228 
L 3675 4228 
Q 3656 4197 3638 4166 
Q 3953 3531 4425 3103 
Q 4988 3606 5344 4228 
z
" transform="scale(0.015625)"/>
      <path id="MicrosoftYaHei-6545" d="M 3900 5359 
L 4400 5278 
Q 4256 4672 4053 4128 
L 6275 4128 
L 6275 3691 
L 5731 3691 
Q 5578 1872 4881 791 
Q 5459 66 6369 -366 
Q 6156 -647 6019 -866 
Q 5119 -334 4553 359 
Q 3925 -363 3044 -903 
Q 2906 -722 2688 -509 
Q 3678 103 4241 800 
Q 3694 1706 3534 2994 
Q 3334 2634 3100 2309 
Q 2969 2497 2781 2709 
Q 3619 3903 3900 5359 
z
M 363 2234 
L 1381 2234 
L 1381 3591 
L 100 3591 
L 100 4053 
L 1381 4053 
L 1381 5309 
L 1869 5309 
L 1869 4053 
L 3119 4053 
L 3119 3591 
L 1869 3591 
L 1869 2234 
L 2863 2234 
L 2863 -159 
L 838 -159 
L 838 -572 
L 363 -572 
L 363 2234 
z
M 2388 278 
L 2388 1784 
L 838 1784 
L 838 278 
L 2388 278 
z
M 5241 3691 
L 3903 3691 
Q 4009 2228 4563 1259 
Q 5128 2213 5241 3691 
z
" transform="scale(0.015625)"/>
      <path id="MicrosoftYaHei-969c" d="M 2000 391 
L 3931 391 
L 3931 891 
L 2944 891 
L 2944 703 
L 2519 703 
L 2519 2847 
L 5806 2847 
L 5806 703 
L 5381 703 
L 5381 891 
L 4381 891 
L 4381 391 
L 6319 391 
L 6319 16 
L 4381 16 
L 4381 -859 
L 3931 -859 
L 3931 16 
L 2000 16 
L 2000 391 
z
M 2113 1728 
Q 2275 503 1531 378 
Q 1288 328 950 359 
Q 900 606 819 859 
L 819 -816 
L 356 -816 
L 356 4978 
L 2100 4978 
L 2100 4541 
Q 1838 3672 1581 2853 
Q 2056 2247 2113 1728 
z
M 2038 3628 
L 3247 3628 
Q 3069 3869 2856 4116 
L 3178 4347 
L 2300 4347 
L 2300 4722 
L 4081 4722 
Q 3869 4966 3681 5141 
L 4019 5397 
Q 4269 5159 4525 4884 
L 4319 4722 
L 6131 4722 
L 6131 4347 
L 3194 4347 
Q 3478 4044 3713 3753 
L 3541 3628 
L 4644 3628 
Q 4897 3963 5119 4322 
L 5556 4091 
Q 5347 3847 5153 3628 
L 6300 3628 
L 6300 3253 
L 2038 3253 
L 2038 3628 
z
M 1375 828 
Q 1800 903 1663 1716 
Q 1581 2172 1113 2772 
Q 1400 3709 1613 4541 
L 819 4541 
L 819 875 
Q 1122 803 1375 828 
z
M 2944 1253 
L 5381 1253 
L 5381 1697 
L 2944 1697 
L 2944 1253 
z
M 5381 2484 
L 2944 2484 
L 2944 2047 
L 5381 2047 
L 5381 2484 
z
" transform="scale(0.015625)"/>
      <path id="MicrosoftYaHei-5206" d="M 900 2559 
L 5056 2559 
Q 5025 1497 4963 484 
Q 4888 -684 3856 -678 
Q 3350 -684 2788 -647 
Q 2750 -384 2700 -116 
Q 3181 -184 3775 -191 
Q 4400 -203 4463 541 
Q 4513 1216 4538 2097 
L 2616 2097 
Q 2541 1053 2181 416 
Q 1706 -422 588 -878 
Q 425 -666 231 -459 
Q 1269 -72 1725 666 
Q 2053 1225 2103 2097 
L 900 2097 
L 900 2559 
z
M 3488 5159 
L 3938 5353 
Q 4625 3678 6350 2847 
Q 6069 2553 5944 2372 
Q 4225 3366 3488 5159 
z
M 50 2766 
Q 1338 3678 2250 5253 
L 2694 5009 
Q 1744 3347 413 2341 
Q 281 2534 50 2766 
z
" transform="scale(0.015625)"/>
      <path id="MicrosoftYaHei-6790" d="M 2775 4797 
Q 4319 4822 5863 5066 
L 6031 4616 
Q 4713 4422 3256 4359 
L 3256 2966 
L 6306 2966 
L 6306 2509 
L 5131 2509 
L 5131 -816 
L 4650 -816 
L 4650 2509 
L 3256 2509 
L 3256 2272 
Q 3256 241 2225 -853 
Q 2069 -628 1900 -441 
Q 2775 497 2775 2278 
L 2775 4797 
z
M 88 1391 
Q 738 2341 1069 3584 
L 175 3584 
L 175 4016 
L 1081 4016 
L 1081 5259 
L 1538 5259 
L 1538 4016 
L 2400 4016 
L 2400 3584 
L 1538 3584 
L 1538 2872 
L 1769 3053 
Q 2338 2384 2594 1984 
L 2206 1697 
Q 1913 2159 1538 2659 
L 1538 -816 
L 1081 -816 
L 1081 2397 
Q 763 1459 306 834 
Q 231 1053 88 1391 
z
" transform="scale(0.015625)"/>
     </defs>
     <use xlink:href="#MicrosoftYaHei-7535"/>
     <use xlink:href="#MicrosoftYaHei-8def" transform="translate(100 0)"/>
     <use xlink:href="#MicrosoftYaHei-6545" transform="translate(200 0)"/>
     <use xlink:href="#MicrosoftYaHei-969c" transform="translate(300 0)"/>
     <use xlink:href="#MicrosoftYaHei-5206" transform="translate(400 0)"/>
     <use xlink:href="#MicrosoftYaHei-6790" transform="translate(500 0)"/>
    </g>
   </g>
   <g id="text_10">
    <g id="patch_9">
     <path d="M 2170.56 275.00525 
L 2218.56 275.00525 
Q 2219.76 275.00525 2219.76 273.80525 
L 2219.76 265.4215 
Q 2219.76 264.2215 2218.56 264.2215 
L 2170.56 264.2215 
Q 2169.36 264.2215 2169.36 265.4215 
L 2169.36 273.80525 
Q 2169.36 275.00525 2170.56 275.00525 
z
" style="fill: #d4e6f1; opacity: 0.8; stroke: #2980b9; stroke-linejoin: miter"/>
    </g>
    <!-- 电磁感应模型 -->
    <g transform="translate(2170.56 271.8165) scale(0.08 -0.08)">
     <defs>
      <path id="MicrosoftYaHei-78c1" d="M 2238 4203 
L 3553 4203 
Q 3184 4725 2888 5066 
L 3238 5341 
Q 3556 4997 3969 4484 
L 3578 4203 
L 4600 4203 
Q 4934 4697 5288 5328 
L 5763 5072 
Q 5456 4647 5116 4203 
L 6319 4203 
L 6319 3797 
L 5278 3797 
Q 4928 2919 4525 2091 
Q 4825 2103 5153 2131 
Q 5325 2575 5488 3047 
L 5919 2916 
Q 5406 1584 4719 184 
Q 5028 206 5491 259 
Q 5391 513 5281 784 
L 5650 928 
Q 6025 103 6306 -659 
L 5869 -816 
Q 5763 -469 5622 -91 
Q 4666 -203 4325 -266 
L 4169 122 
Q 4350 297 4481 572 
Q 4747 1119 4994 1725 
Q 4519 1691 4106 1641 
L 3963 2022 
Q 4156 2197 4288 2472 
Q 4584 3128 4813 3797 
L 3538 3797 
Q 3122 2816 2781 2141 
Q 3000 2141 3328 2166 
Q 3503 2584 3663 3003 
L 4113 2853 
Q 3625 1716 2750 -3 
Q 3059 13 3606 84 
Q 3481 419 3344 766 
L 3706 903 
Q 3994 253 4275 -497 
L 3856 -647 
Q 3794 -456 3728 -263 
Q 2966 -363 2325 -453 
L 2169 -78 
Q 2344 84 2500 378 
Q 2847 1069 3156 1766 
Q 2731 1709 2338 1672 
L 2194 2078 
Q 2388 2259 2525 2522 
Q 2797 3063 3075 3797 
L 2238 3797 
L 2238 4203 
z
M 44 1672 
Q 728 2813 1075 4297 
L 194 4297 
L 194 4697 
L 2413 4697 
L 2413 4297 
L 1531 4297 
Q 1334 3513 1069 2828 
L 2125 2828 
L 2125 -3 
L 1113 -3 
L 1113 -384 
L 688 -384 
L 688 1950 
Q 528 1625 350 1328 
Q 219 1491 44 1672 
z
M 1700 378 
L 1700 2434 
L 1113 2434 
L 1113 378 
L 1700 378 
z
" transform="scale(0.015625)"/>
      <path id="MicrosoftYaHei-611f" d="M 3531 1422 
Q 4013 1741 4388 2131 
Q 4022 2909 3944 4147 
L 1213 4147 
L 1213 3322 
Q 1213 1803 463 872 
Q 331 1134 138 1347 
Q 763 2034 763 3328 
L 763 4547 
L 3922 4547 
Q 3903 4928 3900 5284 
L 4363 5284 
Q 4363 4928 4378 4547 
L 6200 4547 
L 6200 4147 
L 4400 4147 
Q 4466 3184 4728 2531 
Q 5150 3088 5394 3772 
L 5819 3559 
Q 5456 2741 4947 2103 
Q 5059 1922 5194 1778 
Q 5344 1622 5475 1622 
Q 5594 1622 5669 1822 
Q 5763 2084 5856 2522 
Q 6019 2434 6319 2322 
Q 6175 1766 6069 1503 
Q 5888 1066 5538 1066 
Q 5250 1066 4925 1366 
Q 4756 1522 4616 1725 
Q 4278 1375 3888 1091 
Q 3738 1259 3531 1422 
z
M 1638 2891 
L 3563 2891 
L 3563 1541 
L 2063 1541 
L 2063 1366 
L 1638 1366 
L 1638 2891 
z
M 1713 997 
L 2188 997 
L 2188 134 
Q 2188 -253 2588 -253 
L 3713 -253 
Q 4194 -253 4263 109 
Q 4313 316 4375 778 
Q 4588 691 4869 591 
Q 4788 166 4706 -103 
Q 4556 -691 3813 -691 
L 2488 -691 
Q 1713 -691 1713 78 
L 1713 997 
z
M 1444 3697 
L 3719 3697 
L 3719 3322 
L 1444 3322 
L 1444 3697 
z
M 844 1028 
L 1288 853 
Q 969 47 594 -534 
Q 438 -441 175 -297 
Q 581 291 844 1028 
z
M 3138 1916 
L 3138 2516 
L 2063 2516 
L 2063 1916 
L 3138 1916 
z
M 5113 634 
L 5463 884 
Q 5863 422 6275 -166 
L 5863 -459 
Q 5563 34 5113 634 
z
M 2706 1072 
L 3044 1328 
Q 3456 891 3781 491 
L 3388 191 
Q 3050 678 2706 1072 
z
M 5656 4866 
L 5350 4559 
Q 5081 4809 4763 5066 
L 5038 5353 
Q 5363 5116 5656 4866 
z
" transform="scale(0.015625)"/>
      <path id="MicrosoftYaHei-5e94" d="M 2969 5134 
L 3425 5378 
Q 3694 5034 3938 4634 
L 3634 4459 
L 6169 4459 
L 6169 3984 
L 1300 3984 
L 1300 2453 
Q 1300 241 388 -853 
Q 238 -647 25 -422 
Q 775 416 775 2441 
L 775 4459 
L 3419 4459 
Q 3216 4803 2969 5134 
z
M 1263 -9 
L 4153 -9 
Q 4641 1238 5188 3403 
L 5731 3253 
Q 5147 1191 4694 -9 
L 6238 -9 
L 6238 -484 
L 1263 -484 
L 1263 -9 
z
M 1600 3059 
L 2075 3222 
Q 2463 2084 2825 672 
L 2294 509 
Q 2006 1747 1600 3059 
z
M 3106 3372 
L 3588 3509 
Q 3913 2384 4163 991 
L 3613 847 
Q 3431 2084 3106 3372 
z
" transform="scale(0.015625)"/>
     </defs>
     <use xlink:href="#MicrosoftYaHei-7535"/>
     <use xlink:href="#MicrosoftYaHei-78c1" transform="translate(100 0)"/>
     <use xlink:href="#MicrosoftYaHei-611f" transform="translate(200 0)"/>
     <use xlink:href="#MicrosoftYaHei-5e94" transform="translate(300 0)"/>
     <use xlink:href="#MicrosoftYaHei-6a21" transform="translate(400 0)"/>
     <use xlink:href="#MicrosoftYaHei-578b" transform="translate(500 0)"/>
    </g>
   </g>
   <g id="text_11">
    <!-- 热学模型 -->
    <g style="fill: #e67e22" transform="translate(85.32 449.2245) scale(0.1 -0.1)">
     <defs>
      <path id="MicrosoftYaHei-Bold-70ed" d="M 5731 2897 
Q 6038 2753 6350 2634 
Q 6297 1594 6090 1283 
Q 5884 972 5538 972 
Q 5106 972 4848 1230 
Q 4591 1488 4591 2306 
L 4100 1603 
L 3550 2022 
Q 3209 1366 2631 878 
Q 2331 1222 2031 1534 
Q 2556 1941 2856 2519 
Q 2572 2719 2288 2903 
Q 2291 2744 2306 2578 
L 1694 2463 
L 1694 1666 
Q 1694 1331 1556 1147 
Q 1419 963 1186 930 
Q 953 897 350 878 
Q 269 1334 156 1653 
Q 331 1634 625 1634 
Q 875 1634 875 1859 
L 875 2306 
L 219 2172 
L 113 2972 
L 875 3081 
L 875 3791 
L 163 3791 
L 163 4541 
L 875 4541 
L 875 5328 
L 1694 5328 
L 1694 4541 
L 2306 4541 
L 2306 3791 
L 1694 3791 
L 1694 3213 
L 2300 3316 
Q 2284 3122 2288 2919 
L 2731 3522 
L 3103 3288 
Q 3144 3525 3163 3784 
L 2525 3784 
L 2525 4534 
L 3175 4534 
L 3175 5316 
L 3981 5316 
L 3981 4534 
L 5400 4534 
Q 5375 3672 5375 2991 
Q 5375 2134 5400 2003 
Q 5425 1872 5538 1872 
Q 5634 1872 5667 2003 
Q 5700 2134 5731 2897 
z
M 3831 2825 
L 4591 2338 
L 4588 3784 
L 3963 3784 
Q 3931 3288 3831 2825 
z
M 5613 922 
Q 5931 328 6275 -509 
L 5481 -841 
Q 5200 -122 4850 584 
L 5613 922 
z
M 806 841 
L 1575 516 
Q 1263 -166 850 -903 
L 113 -516 
Q 563 247 806 841 
z
M 4163 803 
Q 4456 116 4663 -416 
L 3844 -691 
Q 3681 -159 3394 566 
L 4163 803 
z
M 2688 716 
Q 2919 103 3113 -509 
L 2313 -741 
Q 2113 -66 1906 503 
L 2688 716 
z
" transform="scale(0.015625)"/>
     </defs>
     <use xlink:href="#MicrosoftYaHei-Bold-70ed"/>
     <use xlink:href="#MicrosoftYaHei-Bold-5b66" transform="translate(100 0)"/>
     <use xlink:href="#MicrosoftYaHei-Bold-6a21" transform="translate(200 0)"/>
     <use xlink:href="#MicrosoftYaHei-Bold-578b" transform="translate(300 0)"/>
    </g>
   </g>
   <g id="text_12">
    <g id="patch_10">
     <path d="M 764.4 452.41325 
L 812.4 452.41325 
Q 813.6 452.41325 813.6 451.21325 
L 813.6 442.8295 
Q 813.6 441.6295 812.4 441.6295 
L 764.4 441.6295 
Q 763.2 441.6295 763.2 442.8295 
L 763.2 451.21325 
Q 763.2 452.41325 764.4 452.41325 
z
" style="fill: #fdebd0; opacity: 0.8; stroke: #e67e22; stroke-linejoin: miter"/>
    </g>
    <!-- 物态变化模型 -->
    <g transform="translate(764.4 449.2245) scale(0.08 -0.08)">
     <defs>
      <path id="MicrosoftYaHei-7269" d="M 2131 2866 
Q 2750 3816 3263 5341 
L 3719 5203 
Q 3541 4706 3363 4278 
L 6075 4278 
Q 5950 1759 5869 422 
Q 5800 -622 4869 -622 
Q 4519 -622 4044 -603 
Q 4013 -372 3956 -72 
Q 4500 -134 4819 -134 
Q 5325 -134 5375 441 
Q 5488 1759 5575 3834 
L 5097 3834 
Q 4934 2241 4569 1322 
Q 4069 134 2869 -716 
Q 2731 -522 2550 -334 
Q 3719 491 4169 1559 
Q 4531 2438 4634 3834 
L 4078 3834 
Q 3909 2641 3575 1916 
Q 3163 1097 2444 447 
Q 2288 647 2119 816 
Q 2831 1434 3175 2116 
Q 3509 2809 3619 3834 
L 3169 3834 
Q 2850 3125 2531 2628 
Q 2375 2734 2131 2866 
z
M 94 1584 
Q 669 1775 1288 1991 
L 1288 3466 
L 722 3466 
Q 597 2872 419 2378 
Q 219 2522 13 2653 
Q 363 3509 456 4709 
L 906 4634 
Q 863 4244 800 3884 
L 1288 3884 
L 1288 5291 
L 1756 5291 
L 1756 3884 
L 2375 3884 
L 2375 3466 
L 1756 3466 
L 1756 2156 
Q 2063 2269 2381 2384 
Q 2413 2109 2450 1909 
Q 2141 1797 1756 1653 
L 1756 -834 
L 1288 -834 
L 1288 1475 
Q 788 1288 188 1053 
L 94 1584 
z
" transform="scale(0.015625)"/>
      <path id="MicrosoftYaHei-6001" d="M 325 4434 
L 2888 4434 
Q 2972 4822 2969 5328 
L 3438 5328 
Q 3444 4841 3372 4434 
L 6075 4434 
L 6075 3991 
L 3528 3991 
Q 4419 2706 6231 2241 
Q 6050 2034 5881 1759 
Q 4041 2394 3172 3772 
Q 2975 3331 2588 2953 
Q 3078 2616 3538 2259 
L 3225 1891 
Q 2828 2244 2259 2675 
Q 1556 2138 388 1703 
Q 294 1922 113 2178 
Q 2250 2866 2750 3991 
L 325 3991 
L 325 4434 
z
M 1713 1547 
L 2200 1547 
L 2200 203 
Q 2200 -172 2575 -172 
L 3763 -172 
Q 4175 -172 4256 134 
Q 4331 428 4381 1028 
Q 4556 953 4863 847 
Q 4763 128 4706 -47 
Q 4563 -616 3869 -616 
L 2488 -616 
Q 1713 -616 1713 172 
L 1713 1547 
z
M 813 1447 
L 1281 1297 
Q 1038 522 663 -297 
Q 463 -203 194 -116 
Q 569 591 813 1447 
z
M 4894 1272 
L 5263 1553 
Q 5781 972 6306 309 
L 5888 -9 
Q 5425 641 4894 1272 
z
M 2594 1503 
L 2913 1809 
Q 3419 1403 3850 991 
L 3488 641 
Q 3094 1059 2594 1503 
z
" transform="scale(0.015625)"/>
      <path id="MicrosoftYaHei-53d8" d="M 838 1634 
L 838 2066 
L 5088 2066 
L 5088 1634 
Q 4494 853 3659 309 
Q 4675 -178 6313 -297 
Q 6088 -609 5950 -822 
Q 4275 -594 3178 34 
Q 2122 -509 425 -866 
Q 269 -622 106 -403 
Q 1741 -122 2728 328 
Q 2047 838 1553 1634 
L 838 1634 
z
M 231 4534 
L 3081 4534 
Q 2888 4884 2725 5141 
L 3175 5359 
Q 3481 4884 3600 4659 
L 3359 4534 
L 6200 4534 
L 6200 4091 
L 4181 4091 
L 4181 2353 
L 3700 2353 
L 3700 4091 
L 2694 4091 
L 2694 2341 
L 2213 2341 
L 2213 4091 
L 231 4091 
L 231 4534 
z
M 4475 1634 
L 2116 1634 
Q 2575 953 3197 572 
Q 3947 1016 4475 1634 
z
M 4556 3434 
L 4900 3728 
Q 5700 3009 6213 2459 
L 5825 2116 
Q 5219 2797 4556 3434 
z
M 1381 3741 
L 1756 3422 
Q 1119 2691 500 2097 
Q 344 2272 138 2447 
Q 794 3009 1381 3741 
z
" transform="scale(0.015625)"/>
      <path id="MicrosoftYaHei-5316" d="M 1844 1453 
Q 2663 1834 3375 2331 
L 3375 5197 
L 3913 5197 
L 3913 2734 
Q 4869 3506 5613 4516 
L 6069 4184 
Q 5159 2975 3913 2069 
L 3913 303 
Q 3913 -122 4363 -122 
L 5156 -122 
Q 5581 -122 5650 284 
Q 5738 709 5763 1266 
Q 6025 1166 6313 1084 
Q 6263 559 6181 122 
Q 6063 -597 5281 -597 
L 4225 -597 
Q 3375 -597 3375 241 
L 3375 1703 
Q 2791 1328 2144 1016 
Q 2013 1222 1844 1453 
z
M 88 2222 
Q 1175 3666 1688 5291 
L 2231 5134 
Q 1934 4359 1588 3675 
L 1588 -797 
L 1063 -797 
L 1063 2734 
Q 716 2172 325 1678 
Q 219 1947 88 2222 
z
" transform="scale(0.015625)"/>
     </defs>
     <use xlink:href="#MicrosoftYaHei-7269"/>
     <use xlink:href="#MicrosoftYaHei-6001" transform="translate(100 0)"/>
     <use xlink:href="#MicrosoftYaHei-53d8" transform="translate(200 0)"/>
     <use xlink:href="#MicrosoftYaHei-5316" transform="translate(300 0)"/>
     <use xlink:href="#MicrosoftYaHei-6a21" transform="translate(400 0)"/>
     <use xlink:href="#MicrosoftYaHei-578b" transform="translate(500 0)"/>
    </g>
   </g>
   <g id="text_13">
    <g id="patch_11">
     <path d="M 1237.12 452.41325 
L 1277.12 452.41325 
Q 1278.32 452.41325 1278.32 451.21325 
L 1278.32 442.8295 
Q 1278.32 441.6295 1277.12 441.6295 
L 1237.12 441.6295 
Q 1235.92 441.6295 1235.92 442.8295 
L 1235.92 451.21325 
Q 1235.92 452.41325 1237.12 452.41325 
z
" style="fill: #fdebd0; opacity: 0.8; stroke: #e67e22; stroke-linejoin: miter"/>
    </g>
    <!-- 内能比热容 -->
    <g transform="translate(1237.12 449.2245) scale(0.08 -0.08)">
     <defs>
      <path id="MicrosoftYaHei-5185" d="M 638 4184 
L 2944 4184 
L 2944 5259 
L 3456 5259 
L 3456 4184 
L 5750 4184 
L 5750 59 
Q 5750 -734 4969 -728 
Q 4556 -728 3956 -716 
Q 3938 -503 3863 -172 
Q 4456 -222 4850 -228 
Q 5244 -241 5244 166 
L 5244 3709 
L 3444 3709 
Q 3419 3141 3306 2697 
Q 4413 1809 5094 1134 
L 4713 728 
Q 4044 1459 3156 2247 
Q 2731 1328 1538 647 
Q 1275 1009 1188 1097 
Q 2206 1634 2581 2291 
Q 2881 2772 2931 3709 
L 1144 3709 
L 1144 -784 
L 638 -784 
L 638 4184 
z
" transform="scale(0.015625)"/>
      <path id="MicrosoftYaHei-80fd" d="M 950 -759 
L 463 -759 
L 463 2928 
L 3000 2928 
L 3000 -28 
Q 3000 -703 2375 -703 
Q 2100 -709 1669 -709 
Q 1638 -516 1575 -234 
Q 1969 -266 2206 -266 
Q 2513 -266 2513 53 
L 2513 572 
L 950 572 
L 950 -759 
z
M 3606 2253 
L 4094 2253 
L 4094 1222 
Q 4981 1553 5950 2091 
L 6231 1659 
Q 5209 1122 4094 706 
L 4094 166 
Q 4094 -228 4400 -228 
L 5319 -228 
Q 5638 -228 5688 78 
Q 5731 353 5763 897 
Q 6000 803 6250 722 
Q 6200 172 6144 -109 
Q 6063 -659 5363 -659 
L 4319 -659 
Q 3606 -659 3606 72 
L 3606 2253 
z
M 3619 5303 
L 4106 5303 
L 4106 4231 
Q 4966 4572 5813 5053 
L 6094 4622 
Q 5119 4128 4106 3719 
L 4106 3359 
Q 4106 2941 4438 2941 
L 5231 2941 
Q 5625 2941 5675 3266 
Q 5719 3534 5750 4047 
Q 5988 3953 6238 3866 
Q 6188 3366 6131 3053 
Q 6038 2509 5288 2509 
L 4375 2509 
Q 3619 2509 3619 3259 
L 3619 5303 
z
M 2463 4772 
Q 3031 4034 3450 3353 
Q 3213 3191 3019 3066 
Q 2897 3281 2759 3506 
Q 1231 3394 313 3303 
L 113 3828 
Q 388 3978 719 4391 
Q 1063 4841 1394 5397 
L 1888 5216 
Q 1369 4466 794 3797 
Q 1731 3856 2497 3919 
Q 2300 4216 2075 4528 
L 2463 4772 
z
M 950 947 
L 2513 947 
L 2513 1553 
L 950 1553 
L 950 947 
z
M 2513 2528 
L 950 2528 
L 950 1928 
L 2513 1928 
L 2513 2528 
z
" transform="scale(0.015625)"/>
      <path id="MicrosoftYaHei-6bd4" d="M 3225 5316 
L 3744 5316 
L 3744 2672 
Q 4959 3550 5744 4509 
L 6188 4178 
Q 5175 3063 3744 2056 
L 3744 247 
Q 3744 -166 4106 -166 
L 5175 -166 
Q 5588 -166 5650 203 
Q 5725 678 5763 1247 
Q 6025 1147 6300 1066 
Q 6244 484 6150 22 
Q 6019 -622 5319 -622 
L 3944 -622 
Q 3225 -622 3225 159 
L 3225 5316 
z
M 1063 5153 
L 1063 3278 
L 2825 3278 
L 2825 2809 
L 1063 2809 
L 1063 153 
Q 1713 428 2763 928 
Q 2763 634 2788 366 
Q 1869 -3 1231 -328 
Q 956 -472 725 -672 
L 344 -184 
Q 544 -34 544 272 
L 544 5153 
L 1063 5153 
z
" transform="scale(0.015625)"/>
      <path id="MicrosoftYaHei-70ed" d="M 2456 3028 
L 2725 3384 
Q 3013 3209 3297 3031 
Q 3394 3453 3400 3953 
L 2631 3953 
L 2631 4403 
L 3409 4403 
Q 3422 4922 3419 5347 
L 3900 5347 
Q 3900 4941 3888 4403 
L 5338 4403 
Q 5281 2553 5419 1897 
Q 5500 1528 5656 1528 
Q 5781 1528 5819 1741 
Q 5875 2047 5919 2578 
Q 6156 2491 6381 2428 
Q 6319 1872 6250 1547 
Q 6119 972 5669 972 
Q 5131 972 4944 1841 
Q 4831 2422 4850 3953 
L 3878 3953 
Q 3869 3300 3728 2756 
Q 4169 2472 4594 2178 
L 4281 1734 
Q 3913 2019 3569 2269 
Q 3178 1334 2313 816 
Q 2156 1009 1950 1222 
Q 2803 1672 3153 2563 
Q 2791 2816 2456 3028 
z
M 175 2753 
Q 663 2878 1138 3013 
L 1138 3966 
L 250 3966 
L 250 4397 
L 1138 4397 
L 1138 5322 
L 1613 5322 
L 1613 4397 
L 2350 4397 
L 2350 3966 
L 1613 3966 
L 1613 3150 
Q 1956 3256 2294 3366 
Q 2294 3078 2306 2891 
Q 2272 2878 1613 2672 
L 1613 1753 
Q 1613 997 906 997 
Q 638 997 325 1009 
Q 300 1222 250 1522 
Q 556 1472 806 1472 
Q 1138 1472 1138 1809 
L 1138 2525 
Q 763 2406 269 2253 
L 175 2753 
z
M 5044 634 
L 5444 872 
Q 5850 272 6250 -397 
L 5806 -659 
Q 5475 -41 5044 634 
z
M 900 728 
L 1338 541 
Q 1056 -103 650 -791 
Q 463 -684 219 -572 
Q 650 103 900 728 
z
M 1919 478 
L 2331 659 
Q 2619 134 2925 -503 
L 2463 -703 
Q 2194 -59 1919 478 
z
M 3506 509 
L 3919 691 
Q 4238 134 4519 -453 
L 4063 -647 
Q 3825 -59 3506 509 
z
" transform="scale(0.015625)"/>
      <path id="MicrosoftYaHei-5bb9" d="M 3550 3147 
Q 3500 3091 3444 3022 
Q 4644 1872 6313 1447 
Q 6106 1134 6006 916 
Q 5594 1066 5225 1247 
L 5225 -859 
L 4725 -859 
L 4725 -578 
L 1669 -578 
L 1669 -859 
L 1169 -859 
L 1169 1191 
Q 763 972 338 797 
Q 225 1028 63 1241 
Q 2000 2059 3025 3228 
L 3550 3147 
z
M 363 4572 
L 3038 4572 
Q 2900 4822 2725 5109 
L 3206 5328 
Q 3438 4972 3644 4572 
L 6031 4572 
L 6031 3522 
L 5525 3522 
L 5525 4122 
L 863 4122 
L 863 3497 
L 363 3497 
L 363 4572 
z
M 4725 934 
L 1669 934 
L 1669 -128 
L 4725 -128 
L 4725 934 
z
M 3163 2684 
Q 2394 1928 1494 1384 
L 4950 1384 
Q 3869 1953 3163 2684 
z
M 2338 3847 
L 2638 3441 
Q 1488 2734 706 2359 
Q 594 2566 419 2791 
Q 1494 3259 2338 3847 
z
M 4006 3841 
Q 4944 3409 5938 2859 
L 5650 2416 
Q 4875 2891 3744 3453 
L 4006 3841 
z
" transform="scale(0.015625)"/>
     </defs>
     <use xlink:href="#MicrosoftYaHei-5185"/>
     <use xlink:href="#MicrosoftYaHei-80fd" transform="translate(100 0)"/>
     <use xlink:href="#MicrosoftYaHei-6bd4" transform="translate(200 0)"/>
     <use xlink:href="#MicrosoftYaHei-70ed" transform="translate(300 0)"/>
     <use xlink:href="#MicrosoftYaHei-5bb9" transform="translate(400 0)"/>
    </g>
   </g>
   <g id="text_14">
    <g id="patch_12">
     <path d="M 1709.84 452.41325 
L 1741.84 452.41325 
Q 1743.04 452.41325 1743.04 451.21325 
L 1743.04 442.8295 
Q 1743.04 441.6295 1741.84 441.6295 
L 1709.84 441.6295 
Q 1708.64 441.6295 1708.64 442.8295 
L 1708.64 451.21325 
Q 1708.64 452.41325 1709.84 452.41325 
z
" style="fill: #fdebd0; opacity: 0.8; stroke: #e67e22; stroke-linejoin: miter"/>
    </g>
    <!-- 热值计算 -->
    <g transform="translate(1709.84 449.2245) scale(0.08 -0.08)">
     <defs>
      <path id="MicrosoftYaHei-503c" d="M 1619 -216 
L 2250 -216 
L 2250 3653 
L 3725 3653 
L 3725 4222 
L 1913 4222 
L 1913 4647 
L 3725 4647 
L 3725 5309 
L 4200 5309 
L 4200 4647 
L 6169 4647 
L 6169 4222 
L 4200 4222 
L 4200 3653 
L 5713 3653 
L 5713 -216 
L 6306 -216 
L 6306 -641 
L 1619 -641 
L 1619 -216 
z
M 69 2247 
Q 906 3497 1369 5278 
L 1831 5141 
Q 1581 4334 1288 3628 
L 1288 -816 
L 831 -816 
L 831 2666 
Q 563 2166 263 1734 
Q 175 1997 69 2247 
z
M 2713 -216 
L 5250 -216 
L 5250 353 
L 2713 353 
L 2713 -216 
z
M 5250 3241 
L 2713 3241 
L 2713 2678 
L 5250 2678 
L 5250 3241 
z
M 2713 1716 
L 5250 1716 
L 5250 2278 
L 2713 2278 
L 2713 1716 
z
M 2713 753 
L 5250 753 
L 5250 1316 
L 2713 1316 
L 2713 753 
z
" transform="scale(0.015625)"/>
      <path id="MicrosoftYaHei-8ba1" d="M 2100 3153 
L 3919 3153 
L 3919 5303 
L 4456 5303 
L 4456 3153 
L 6288 3153 
L 6288 2703 
L 4456 2703 
L 4456 -822 
L 3919 -822 
L 3919 2703 
L 2100 2703 
L 2100 3153 
z
M 2675 903 
Q 2694 578 2719 359 
Q 1719 -266 1069 -728 
L 769 -303 
Q 988 -116 988 266 
L 988 2741 
L 100 2741 
L 100 3191 
L 1488 3191 
L 1488 153 
Q 2031 484 2675 903 
z
M 738 5222 
Q 1419 4522 1725 4184 
L 1288 3816 
Q 894 4334 356 4891 
L 738 5222 
z
" transform="scale(0.015625)"/>
      <path id="MicrosoftYaHei-7b97" d="M 969 3728 
L 2006 3728 
Q 1775 4016 1544 4266 
L 1769 4428 
L 1244 4428 
Q 875 3963 400 3566 
Q 263 3722 88 3884 
Q 856 4484 1300 5347 
L 1831 5347 
Q 1684 5059 1506 4791 
L 3325 4791 
L 3325 4428 
L 1919 4428 
Q 2144 4200 2369 3953 
L 2072 3728 
L 4953 3728 
Q 4716 4003 4425 4266 
L 4641 4428 
L 4019 4428 
Q 3772 4050 3506 3753 
Q 3344 3897 3125 4047 
Q 3656 4603 4000 5347 
L 4538 5347 
Q 4394 5053 4244 4791 
L 6225 4791 
L 6225 4428 
L 4800 4428 
Q 5069 4206 5294 3972 
L 4991 3728 
L 5475 3728 
L 5475 916 
L 5038 916 
L 5038 1122 
L 1406 1122 
L 1406 916 
L 969 916 
L 969 3728 
z
M 150 609 
L 1850 609 
Q 1875 788 1875 1003 
L 2331 1003 
Q 2331 794 2309 609 
L 4356 609 
L 4356 997 
L 4819 997 
L 4819 609 
L 6300 609 
L 6300 222 
L 4819 222 
L 4819 -828 
L 4356 -828 
L 4356 222 
L 2244 222 
Q 2019 -619 763 -884 
Q 644 -691 488 -472 
Q 1525 -297 1756 222 
L 150 222 
L 150 609 
z
M 5038 3378 
L 1406 3378 
L 1406 2959 
L 5038 2959 
L 5038 3378 
z
M 1406 1472 
L 5038 1472 
L 5038 1891 
L 1406 1891 
L 1406 1472 
z
M 1406 2216 
L 5038 2216 
L 5038 2634 
L 1406 2634 
L 1406 2216 
z
" transform="scale(0.015625)"/>
     </defs>
     <use xlink:href="#MicrosoftYaHei-70ed"/>
     <use xlink:href="#MicrosoftYaHei-503c" transform="translate(100 0)"/>
     <use xlink:href="#MicrosoftYaHei-8ba1" transform="translate(200 0)"/>
     <use xlink:href="#MicrosoftYaHei-7b97" transform="translate(300 0)"/>
    </g>
   </g>
   <g id="text_15">
    <!-- 光学模型 -->
    <g style="fill: #8e44ad" transform="translate(85.32 626.6325) scale(0.1 -0.1)">
     <defs>
      <path id="MicrosoftYaHei-Bold-5149" d="M 5381 1547 
Q 5919 1366 6294 1259 
Q 6131 -197 5873 -469 
Q 5616 -741 5056 -741 
L 4450 -741 
Q 3444 -741 3444 284 
L 3444 2047 
L 2703 2047 
Q 2700 -172 763 -853 
Q 406 -403 81 -109 
Q 1763 528 1722 2047 
L 188 2047 
L 188 2916 
L 2700 2916 
L 2700 5322 
L 3650 5322 
L 3650 2916 
L 6213 2916 
L 6213 2047 
L 4369 2047 
L 4369 478 
Q 4369 78 4706 78 
L 4856 78 
Q 5113 78 5203 297 
Q 5294 516 5381 1547 
z
M 5163 4978 
L 5956 4403 
Q 5150 3466 4688 3034 
L 4000 3622 
Q 4525 4128 5163 4978 
z
M 1156 4978 
Q 1906 4222 2369 3678 
L 1613 3103 
Q 988 3891 463 4447 
L 1156 4978 
z
" transform="scale(0.015625)"/>
     </defs>
     <use xlink:href="#MicrosoftYaHei-Bold-5149"/>
     <use xlink:href="#MicrosoftYaHei-Bold-5b66" transform="translate(100 0)"/>
     <use xlink:href="#MicrosoftYaHei-Bold-6a21" transform="translate(200 0)"/>
     <use xlink:href="#MicrosoftYaHei-Bold-578b" transform="translate(300 0)"/>
    </g>
   </g>
   <g id="text_16">
    <g id="patch_13">
     <path d="M 764.4 629.82125 
L 812.4 629.82125 
Q 813.6 629.82125 813.6 628.62125 
L 813.6 620.2375 
Q 813.6 619.0375 812.4 619.0375 
L 764.4 619.0375 
Q 763.2 619.0375 763.2 620.2375 
L 763.2 628.62125 
Q 763.2 629.82125 764.4 629.82125 
z
" style="fill: #e8daef; opacity: 0.8; stroke: #8e44ad; stroke-linejoin: miter"/>
    </g>
    <!-- 反射成像模型 -->
    <g transform="translate(764.4 626.6325) scale(0.08 -0.08)">
     <defs>
      <path id="MicrosoftYaHei-53cd" d="M 881 4884 
Q 3369 4903 5738 5191 
L 5919 4691 
Q 3750 4503 1369 4434 
L 1369 3372 
L 5638 3372 
L 5638 2909 
Q 5125 1525 4100 591 
Q 5019 -25 6331 -247 
Q 6106 -534 5938 -803 
Q 4616 -422 3697 253 
Q 2738 -475 1406 -878 
Q 1263 -659 1063 -397 
Q 2366 -44 3278 597 
Q 2256 1525 1859 2909 
L 1369 2909 
L 1369 2553 
Q 1369 334 413 -853 
Q 250 -653 63 -453 
Q 881 559 881 2553 
L 881 4884 
z
M 5050 2909 
L 2366 2909 
Q 2794 1678 3681 909 
Q 4622 1722 5050 2909 
z
" transform="scale(0.015625)"/>
      <path id="MicrosoftYaHei-5c04" d="M 50 -147 
Q 1116 394 1881 1278 
L 125 1278 
L 125 1684 
L 494 1684 
L 494 4584 
L 1231 4584 
Q 1400 5009 1500 5359 
L 2006 5228 
Q 1869 4894 1728 4584 
L 2856 4584 
L 2856 -59 
Q 2856 -772 2238 -772 
Q 1969 -772 1581 -759 
Q 1544 -503 1488 -278 
Q 1850 -309 2106 -309 
Q 2394 -309 2394 -3 
L 2394 1278 
Q 1572 178 356 -547 
Q 194 -303 50 -147 
z
M 3069 3934 
L 5088 3934 
L 5088 5278 
L 5563 5278 
L 5563 3934 
L 6325 3934 
L 6325 3466 
L 5563 3466 
L 5563 216 
Q 5563 -722 4663 -722 
Q 4381 -722 3744 -709 
Q 3713 -478 3644 -178 
Q 4269 -234 4594 -234 
Q 5088 -234 5088 291 
L 5088 3466 
L 3069 3466 
L 3069 3934 
z
M 2394 4178 
L 956 4178 
L 956 3609 
L 2394 3609 
L 2394 4178 
z
M 956 1684 
L 2394 1684 
L 2394 2253 
L 956 2253 
L 956 1684 
z
M 956 2647 
L 2394 2647 
L 2394 3216 
L 956 3216 
L 956 2647 
z
M 3250 2684 
L 3638 2891 
Q 4156 2072 4456 1472 
L 4013 1228 
Q 3694 1916 3250 2684 
z
" transform="scale(0.015625)"/>
      <path id="MicrosoftYaHei-6210" d="M 2750 -347 
Q 3472 138 4038 781 
Q 3675 1703 3609 3759 
L 1250 3759 
L 1250 2809 
L 3050 2809 
Q 3013 1616 2950 803 
Q 2875 -59 2113 -59 
Q 1856 -59 1431 -34 
Q 1394 197 1331 484 
Q 1769 422 2063 422 
Q 2425 422 2469 922 
Q 2519 1497 2544 2347 
L 1247 2347 
Q 1197 175 369 -866 
Q 213 -653 44 -434 
Q 750 503 750 2528 
L 750 4222 
L 3591 4222 
Q 3569 4716 3550 5291 
L 4069 5291 
Q 4066 4850 4084 4222 
L 6238 4222 
L 6238 3759 
L 4100 3759 
Q 4163 2078 4409 1247 
Q 5016 2069 5406 3109 
L 5900 2903 
Q 5363 1631 4609 691 
Q 5069 -244 5506 -244 
Q 5666 -244 5750 47 
Q 5838 503 5888 984 
Q 6156 878 6363 809 
Q 6269 141 6156 -284 
Q 6038 -741 5631 -778 
Q 5250 -803 4900 -522 
Q 4522 -231 4256 278 
Q 3728 -291 3106 -722 
Q 2944 -534 2750 -347 
z
M 4544 4984 
L 4806 5309 
Q 5331 5009 5788 4684 
L 5488 4309 
Q 5038 4666 4544 4984 
z
" transform="scale(0.015625)"/>
      <path id="MicrosoftYaHei-50cf" d="M 5638 2322 
L 5963 1978 
Q 5575 1716 5147 1463 
Q 5481 547 6313 -9 
Q 6075 -197 5900 -391 
Q 5163 266 4794 1263 
Q 4647 1181 4497 1100 
Q 4606 709 4600 291 
Q 4588 -778 3625 -759 
Q 3388 -759 3013 -747 
Q 2969 -503 2906 -284 
Q 3400 -334 3594 -334 
Q 4150 -347 4169 316 
Q 4169 544 4131 766 
Q 3331 25 1913 -616 
Q 1794 -434 1625 -228 
Q 3072 294 4019 1197 
Q 3956 1369 3869 1534 
Q 3031 791 1875 303 
Q 1750 491 1588 678 
Q 2791 1091 3663 1859 
Q 3572 1984 3466 2106 
Q 2897 1666 1869 1216 
Q 1731 1409 1581 1578 
Q 2794 2053 3319 2516 
L 2606 2516 
L 2606 2372 
L 2175 2372 
L 2175 3578 
Q 2003 3428 1825 3284 
Q 1763 3409 1563 3684 
Q 2513 4403 3169 5316 
L 3700 5316 
Q 3534 5066 3350 4828 
L 5106 4828 
L 5106 4459 
L 4544 3878 
L 5894 3878 
L 5894 2516 
L 3891 2516 
Q 3834 2447 3769 2378 
Q 4159 1947 4366 1472 
Q 5122 1916 5638 2322 
z
M 81 2291 
Q 900 3534 1425 5322 
L 1894 5203 
Q 1600 4328 1275 3594 
L 1275 -828 
L 838 -828 
L 838 2700 
Q 566 2197 275 1778 
Q 188 2041 81 2291 
z
M 4506 4441 
L 3031 4441 
Q 2778 4150 2497 3878 
L 3994 3878 
L 4506 4441 
z
M 5463 2903 
L 5463 3491 
L 4306 3491 
Q 4247 3175 4122 2903 
L 5463 2903 
z
M 2606 2903 
L 3644 2903 
Q 3800 3169 3853 3491 
L 2606 3491 
L 2606 2903 
z
" transform="scale(0.015625)"/>
     </defs>
     <use xlink:href="#MicrosoftYaHei-53cd"/>
     <use xlink:href="#MicrosoftYaHei-5c04" transform="translate(100 0)"/>
     <use xlink:href="#MicrosoftYaHei-6210" transform="translate(200 0)"/>
     <use xlink:href="#MicrosoftYaHei-50cf" transform="translate(300 0)"/>
     <use xlink:href="#MicrosoftYaHei-6a21" transform="translate(400 0)"/>
     <use xlink:href="#MicrosoftYaHei-578b" transform="translate(500 0)"/>
    </g>
   </g>
   <g id="text_17">
    <g id="patch_14">
     <path d="M 1237.12 629.82125 
L 1277.12 629.82125 
Q 1278.32 629.82125 1278.32 628.62125 
L 1278.32 620.2375 
Q 1278.32 619.0375 1277.12 619.0375 
L 1237.12 619.0375 
Q 1235.92 619.0375 1235.92 620.2375 
L 1235.92 628.62125 
Q 1235.92 629.82125 1237.12 629.82125 
z
" style="fill: #e8daef; opacity: 0.8; stroke: #8e44ad; stroke-linejoin: miter"/>
    </g>
    <!-- 折射与透镜 -->
    <g transform="translate(1237.12 626.6325) scale(0.08 -0.08)">
     <defs>
      <path id="MicrosoftYaHei-6298" d="M 2631 4816 
Q 4256 4822 5975 5078 
L 6144 4591 
Q 4281 4397 3119 4372 
L 3119 2916 
L 6300 2916 
L 6300 2453 
L 5163 2453 
L 5163 -822 
L 4663 -822 
L 4663 2453 
L 3119 2453 
Q 3103 203 2250 -859 
Q 2081 -672 1856 -472 
Q 2631 441 2631 2447 
L 2631 4816 
z
M 75 1953 
Q 513 2072 1013 2216 
L 1013 3591 
L 181 3591 
L 181 4022 
L 1013 4022 
L 1013 5259 
L 1500 5259 
L 1500 4022 
L 2275 4022 
L 2275 3591 
L 1500 3591 
L 1500 2363 
Q 1834 2463 2194 2578 
Q 2200 2259 2206 2078 
Q 1922 1997 1500 1866 
L 1500 -22 
Q 1500 -703 938 -722 
Q 650 -734 263 -728 
Q 225 -466 181 -203 
Q 556 -241 756 -241 
Q 1013 -241 1013 66 
L 1013 1709 
Q 622 1584 144 1428 
L 75 1953 
z
" transform="scale(0.015625)"/>
      <path id="MicrosoftYaHei-900f" d="M 6300 2941 
Q 6144 2728 6006 2491 
Q 4794 2853 4125 3513 
L 4125 2641 
L 3700 2641 
L 3700 3513 
Q 3003 2900 1863 2466 
Q 1713 2684 1538 2859 
Q 2638 3150 3416 3684 
L 1856 3684 
L 1856 4097 
L 3700 4097 
L 3700 4609 
Q 2984 4572 2163 4541 
Q 2125 4747 2075 4959 
Q 3925 5003 5588 5172 
L 5675 4759 
Q 4984 4691 4125 4638 
L 4125 4097 
L 6069 4097 
L 6069 3684 
L 4356 3684 
Q 5122 3138 6300 2941 
z
M 2775 -153 
L 4150 -178 
L 6313 -116 
Q 6206 -372 6113 -616 
L 4069 -641 
L 2675 -609 
Q 1638 -591 1156 122 
Q 769 -209 369 -697 
L 100 -166 
Q 581 253 919 538 
L 919 2628 
L 163 2628 
L 163 3078 
L 1394 3078 
L 1394 503 
Q 1850 -131 2775 -153 
z
M 4594 2041 
L 3375 2041 
Q 3303 763 2194 66 
Q 2069 241 1856 453 
Q 2863 997 2928 2041 
L 2231 2041 
L 2231 2466 
L 5163 2466 
L 4969 1747 
L 5831 1747 
Q 5788 1116 5744 778 
Q 5669 172 4888 172 
L 4163 172 
Q 4125 428 4056 647 
Q 4506 616 4838 616 
Q 5250 603 5300 909 
Q 5331 1109 5344 1347 
L 4400 1347 
L 4594 2041 
z
M 913 5272 
Q 1269 4703 1613 4047 
L 1150 3797 
Q 875 4422 494 5059 
L 913 5272 
z
" transform="scale(0.015625)"/>
      <path id="MicrosoftYaHei-955c" d="M 2413 2747 
L 5731 2747 
L 5731 653 
L 5294 653 
L 5294 772 
L 4769 772 
L 4769 -34 
Q 4769 -316 5031 -316 
L 5525 -316 
Q 5763 -316 5800 -91 
Q 5844 122 5869 628 
Q 6050 547 6306 453 
Q 6256 -28 6200 -259 
Q 6131 -722 5600 -722 
L 4856 -722 
Q 4325 -722 4325 -78 
L 4325 772 
L 3750 772 
Q 3663 -500 2125 -866 
Q 1975 -559 1881 -441 
Q 3194 -184 3303 772 
L 2850 772 
L 2850 628 
L 2413 628 
L 2413 2747 
z
M 144 1966 
L 913 1966 
L 913 2822 
L 538 2822 
L 538 3197 
Q 466 3069 394 2947 
Q 238 3166 75 3366 
Q 606 4197 850 5297 
L 1306 5203 
Q 1197 4784 1066 4403 
L 2131 4403 
L 2131 3978 
L 903 3978 
Q 747 3594 563 3247 
L 1963 3247 
L 1963 2822 
L 1356 2822 
L 1356 1966 
L 2144 1966 
L 2144 1541 
L 1356 1541 
L 1356 122 
Q 1744 397 2094 659 
Q 2131 441 2194 178 
Q 1744 -128 1363 -422 
Q 1250 -503 1031 -703 
L 706 -303 
Q 913 -128 913 172 
L 913 1541 
L 144 1541 
L 144 1966 
z
M 2088 3553 
L 3188 3553 
Q 3066 3763 2856 4059 
L 3225 4272 
Q 3394 4059 3650 3691 
L 3413 3553 
L 4491 3553 
Q 4697 3888 4875 4272 
L 5313 4059 
Q 5166 3809 4991 3553 
L 6163 3553 
L 6163 3178 
L 2088 3178 
L 2088 3553 
z
M 2338 4666 
L 3988 4666 
Q 3859 4872 3656 5141 
L 4038 5366 
Q 4294 5047 4463 4778 
L 4259 4666 
L 5900 4666 
L 5900 4291 
L 2338 4291 
L 2338 4666 
z
M 2850 1141 
L 5294 1141 
L 5294 1591 
L 2850 1591 
L 2850 1141 
z
M 5294 2378 
L 2850 2378 
L 2850 1934 
L 5294 1934 
L 5294 2378 
z
" transform="scale(0.015625)"/>
     </defs>
     <use xlink:href="#MicrosoftYaHei-6298"/>
     <use xlink:href="#MicrosoftYaHei-5c04" transform="translate(100 0)"/>
     <use xlink:href="#MicrosoftYaHei-4e0e" transform="translate(200 0)"/>
     <use xlink:href="#MicrosoftYaHei-900f" transform="translate(300 0)"/>
     <use xlink:href="#MicrosoftYaHei-955c" transform="translate(400 0)"/>
    </g>
   </g>
   <g id="text_18">
    <g id="patch_15">
     <path d="M 1705.84 629.82125 
L 1745.84 629.82125 
Q 1747.04 629.82125 1747.04 628.62125 
L 1747.04 620.2375 
Q 1747.04 619.0375 1745.84 619.0375 
L 1705.84 619.0375 
Q 1704.64 619.0375 1704.64 620.2375 
L 1704.64 628.62125 
Q 1704.64 629.82125 1705.84 629.82125 
z
" style="fill: #e8daef; opacity: 0.8; stroke: #8e44ad; stroke-linejoin: miter"/>
    </g>
    <!-- 凸透镜成像 -->
    <g transform="translate(1705.84 626.6325) scale(0.08 -0.08)">
     <defs>
      <path id="MicrosoftYaHei-51f8" d="M 513 -816 
L 513 3003 
L 1838 3003 
L 1838 5022 
L 4588 5022 
L 4588 3003 
L 5913 3003 
L 5913 -816 
L 5400 -816 
L 5400 -441 
L 1025 -441 
L 1025 -816 
L 513 -816 
z
M 4088 2553 
L 4088 4572 
L 2338 4572 
L 2338 2553 
L 1025 2553 
L 1025 9 
L 5400 9 
L 5400 2553 
L 4088 2553 
z
" transform="scale(0.015625)"/>
     </defs>
     <use xlink:href="#MicrosoftYaHei-51f8"/>
     <use xlink:href="#MicrosoftYaHei-900f" transform="translate(100 0)"/>
     <use xlink:href="#MicrosoftYaHei-955c" transform="translate(200 0)"/>
     <use xlink:href="#MicrosoftYaHei-6210" transform="translate(300 0)"/>
     <use xlink:href="#MicrosoftYaHei-50cf" transform="translate(400 0)"/>
    </g>
   </g>
   <g id="text_19">
    <!-- 中考物理常见模型分类 -->
    <g style="fill: #2c3e50" transform="translate(1314.3 16.7925) scale(0.12 -0.12)">
     <defs>
      <path id="MicrosoftYaHei-Bold-4e2d" d="M 2719 5341 
L 3669 5341 
L 3669 4234 
L 6000 4234 
L 6000 728 
L 5075 728 
L 5075 1159 
L 3669 1159 
L 3669 -853 
L 2719 -853 
L 2719 1159 
L 1313 1159 
L 1313 709 
L 388 709 
L 388 4234 
L 2719 4234 
L 2719 5341 
z
M 5075 3372 
L 3669 3372 
L 3669 2022 
L 5075 2022 
L 5075 3372 
z
M 1313 2022 
L 2719 2022 
L 2719 3372 
L 1313 3372 
L 1313 2022 
z
" transform="scale(0.015625)"/>
      <path id="MicrosoftYaHei-Bold-8003" d="M 144 3584 
L 2294 3584 
L 2294 4084 
L 650 4084 
L 650 4797 
L 2294 4797 
L 2294 5353 
L 3144 5353 
L 3144 4797 
L 4644 4797 
L 4644 4188 
Q 5056 4569 5469 5028 
L 6094 4553 
Q 5616 4028 5088 3584 
L 6319 3584 
L 6319 2872 
L 4131 2872 
Q 3847 2684 3550 2516 
L 5794 2516 
L 5794 1816 
L 3081 1816 
L 3006 1428 
L 5375 1428 
Q 5297 719 5222 231 
Q 5147 -256 4805 -504 
Q 4463 -753 3850 -753 
Q 3269 -753 2575 -741 
Q 2494 -253 2388 103 
Q 2984 47 3763 47 
Q 4019 47 4164 137 
Q 4309 228 4343 389 
Q 4378 550 4406 728 
L 1925 728 
L 2209 1816 
L 2075 1816 
Q 1266 1488 350 1222 
Q 263 1553 94 1997 
Q 1709 2350 2772 2872 
L 144 2872 
L 144 3584 
z
M 4528 4084 
L 3144 4084 
L 3144 3584 
L 3919 3584 
Q 4222 3813 4528 4084 
z
" transform="scale(0.015625)"/>
      <path id="MicrosoftYaHei-Bold-7269" d="M 1969 -847 
L 1181 -847 
L 1181 1078 
Q 669 984 206 884 
L 94 1791 
Q 597 1838 1181 1922 
L 1181 3172 
L 775 3172 
Q 697 2731 594 2322 
Q 300 2509 88 2603 
Q 313 3566 381 4784 
L 956 4728 
Q 931 4344 891 3978 
L 1181 3978 
L 1181 5291 
L 1969 5291 
L 1969 3978 
L 2425 3978 
L 2425 3728 
Q 2856 4553 3100 5341 
Q 3550 5259 3938 5178 
Q 3772 4738 3609 4359 
L 6075 4359 
Q 6066 3275 6028 2016 
L 5972 400 
Q 5953 47 5834 -204 
Q 5716 -456 5466 -568 
Q 5216 -681 4150 -647 
Q 4056 -134 3934 216 
Q 3497 -331 2888 -772 
Q 2494 -353 2219 -109 
Q 4194 1163 4425 3534 
L 4116 3534 
Q 3891 1925 2781 966 
Q 2597 1144 2441 1284 
L 1969 1213 
L 1969 -847 
z
M 5300 3534 
L 5025 3534 
Q 4994 1578 3966 253 
Q 4356 222 4694 222 
Q 5122 222 5187 645 
Q 5253 1069 5300 3534 
z
M 2638 2647 
Q 2384 3003 2228 3172 
L 1969 3172 
L 1969 2044 
Q 2241 2088 2531 2141 
Q 2522 2006 2516 1850 
Q 3275 2559 3519 3534 
L 3213 3534 
Q 2925 3000 2638 2647 
z
" transform="scale(0.015625)"/>
      <path id="MicrosoftYaHei-Bold-7406" d="M 256 -503 
L 81 384 
L 825 553 
L 825 2091 
L 225 2091 
L 225 2866 
L 825 2866 
L 825 4178 
L 200 4178 
L 200 4966 
L 2250 4966 
L 2250 4178 
L 1625 4178 
L 1625 2866 
L 2206 2866 
L 2206 2091 
L 1625 2091 
L 1625 756 
Q 1959 847 2275 941 
Q 2250 497 2269 84 
L 3819 84 
L 3819 628 
L 2394 628 
L 2394 1341 
L 3819 1341 
L 3819 1791 
L 2425 1791 
L 2425 5034 
L 6013 5034 
L 6013 1791 
L 4619 1791 
L 4619 1341 
L 6044 1341 
L 6044 628 
L 4619 628 
L 4619 84 
L 6319 84 
L 6319 -628 
L 2031 -628 
L 2031 31 
Q 1206 -197 256 -503 
z
M 5231 4334 
L 4619 4334 
L 4619 3741 
L 5231 3741 
L 5231 4334 
z
M 3206 3741 
L 3819 3741 
L 3819 4334 
L 3206 4334 
L 3206 3741 
z
M 5231 2491 
L 5231 3091 
L 4619 3091 
L 4619 2491 
L 5231 2491 
z
M 3206 2491 
L 3819 2491 
L 3819 3091 
L 3206 3091 
L 3206 2491 
z
" transform="scale(0.015625)"/>
      <path id="MicrosoftYaHei-Bold-5e38" d="M 2788 5303 
L 3613 5303 
L 3613 4403 
L 4341 4403 
L 4150 4566 
Q 4556 4934 4925 5316 
L 5519 4891 
Q 5275 4659 4988 4403 
L 6144 4403 
L 6144 3022 
L 5381 3022 
L 5381 3741 
L 1031 3741 
L 1031 3022 
L 269 3022 
L 269 4403 
L 1391 4403 
Q 1159 4659 925 4891 
L 1456 5316 
Q 1831 4984 2200 4603 
L 1950 4403 
L 2788 4403 
L 2788 5303 
z
M 1431 -484 
L 606 -484 
L 606 1509 
L 2781 1509 
L 2781 1859 
L 1250 1859 
L 1250 3397 
L 5163 3397 
L 5163 1859 
L 3631 1859 
L 3631 1509 
L 5863 1509 
L 5863 284 
Q 5863 53 5789 -109 
Q 5716 -272 5569 -367 
Q 5422 -463 5253 -483 
Q 5084 -503 4338 -503 
Q 4269 -191 4144 203 
Q 4466 184 4759 184 
Q 5038 184 5038 516 
L 5038 847 
L 3631 847 
L 3631 -853 
L 2781 -853 
L 2781 847 
L 1431 847 
L 1431 -484 
z
M 2013 2434 
L 4400 2434 
L 4400 2822 
L 2013 2822 
L 2013 2434 
z
" transform="scale(0.015625)"/>
      <path id="MicrosoftYaHei-Bold-89c1" d="M 813 1216 
L 813 5066 
L 5594 5066 
L 5594 1266 
L 4694 1266 
L 4694 4278 
L 1713 4278 
L 1713 1216 
L 813 1216 
z
M 5400 1178 
Q 5819 991 6325 853 
Q 6284 488 6218 144 
Q 6153 -200 6054 -361 
Q 5956 -522 5718 -619 
Q 5481 -716 5125 -716 
L 4038 -716 
Q 3169 -716 3169 172 
L 3169 1253 
Q 2581 -78 644 -878 
Q 344 -378 69 -28 
Q 1656 531 2201 1340 
Q 2747 2150 2706 3866 
L 3600 3866 
Q 3609 2822 3428 2041 
L 4069 2041 
L 4069 359 
Q 4069 78 4319 78 
L 4975 78 
Q 5163 78 5272 231 
Q 5381 384 5400 1178 
z
" transform="scale(0.015625)"/>
      <path id="MicrosoftYaHei-Bold-5206" d="M 6350 3028 
Q 6088 2703 5750 2228 
Q 5519 2409 5303 2603 
Q 5219 606 5172 190 
Q 5125 -225 4862 -451 
Q 4600 -678 4128 -678 
Q 3484 -678 2913 -659 
Q 2856 -141 2781 284 
Q 3594 216 3956 216 
Q 4172 216 4230 408 
Q 4288 600 4325 1978 
L 2781 1978 
Q 2728 1100 2529 631 
Q 2331 163 1907 -215 
Q 1484 -594 844 -872 
Q 456 -353 194 -78 
Q 750 144 1111 414 
Q 1472 684 1630 989 
Q 1788 1294 1841 1978 
L 950 1978 
L 950 2475 
Q 794 2356 631 2247 
Q 344 2653 63 2953 
Q 1475 3947 2194 5316 
L 3031 4953 
Q 2378 3722 1391 2841 
L 5047 2841 
Q 4088 3766 3463 4903 
L 4238 5303 
Q 5038 3922 6350 3028 
z
" transform="scale(0.015625)"/>
      <path id="MicrosoftYaHei-Bold-7c7b" d="M 331 3953 
L 1781 3953 
Q 1319 4347 838 4728 
L 1306 5247 
Q 1863 4866 2431 4422 
Q 2425 4409 1975 3953 
L 2763 3953 
L 2763 5303 
L 3613 5303 
L 3613 3953 
L 4456 3953 
L 4038 4372 
Q 4513 4753 5106 5259 
L 5663 4728 
Q 5138 4297 4688 3953 
L 6069 3953 
L 6069 3216 
L 3925 3216 
Q 5069 2809 6025 2441 
L 5675 1734 
Q 4844 2122 3613 2653 
L 3613 2141 
L 2763 2141 
L 2763 2722 
Q 2038 2116 813 1747 
Q 644 2122 400 2509 
Q 1588 2747 2256 3216 
L 331 3216 
L 331 3953 
z
M 225 1603 
L 2719 1603 
Q 2744 1772 2750 1966 
L 3606 1966 
Q 3588 1772 3563 1603 
L 6181 1603 
L 6181 841 
L 4013 841 
Q 4788 66 6238 -91 
Q 5863 -603 5681 -891 
Q 4006 -528 3225 734 
Q 2850 -359 694 -872 
Q 388 -391 169 -109 
Q 1844 134 2419 841 
L 225 841 
L 225 1603 
z
" transform="scale(0.015625)"/>
     </defs>
     <use xlink:href="#MicrosoftYaHei-Bold-4e2d"/>
     <use xlink:href="#MicrosoftYaHei-Bold-8003" transform="translate(100 0)"/>
     <use xlink:href="#MicrosoftYaHei-Bold-7269" transform="translate(200 0)"/>
     <use xlink:href="#MicrosoftYaHei-Bold-7406" transform="translate(300 0)"/>
     <use xlink:href="#MicrosoftYaHei-Bold-5e38" transform="translate(400 0)"/>
     <use xlink:href="#MicrosoftYaHei-Bold-89c1" transform="translate(500 0)"/>
     <use xlink:href="#MicrosoftYaHei-Bold-6a21" transform="translate(600 0)"/>
     <use xlink:href="#MicrosoftYaHei-Bold-578b" transform="translate(700 0)"/>
     <use xlink:href="#MicrosoftYaHei-Bold-5206" transform="translate(800 0)"/>
     <use xlink:href="#MicrosoftYaHei-Bold-7c7b" transform="translate(900 0)"/>
    </g>
   </g>
   <g id="text_20">
    <g id="patch_16">
     <path d="M 85.32 919.406437 
L 241.991875 919.406437 
Q 243.991875 919.406437 243.991875 917.406437 
L 243.991875 906.92675 
Q 243.991875 904.92675 241.991875 904.92675 
L 85.32 904.92675 
Q 83.32 904.92675 83.32 906.92675 
L 83.32 917.406437 
Q 83.32 919.406437 85.32 919.406437 
z
" style="fill: #ecf0f1"/>
    </g>
    <!-- 识别模型 = 知道考什么 = 选对公式 -->
    <g style="fill: #2c3e50" transform="translate(85.32 914.9205) scale(0.1 -0.1)">
     <defs>
      <path id="MicrosoftYaHei-8bc6" d="M 2431 4884 
L 5875 4884 
L 5875 1597 
L 5394 1597 
L 5394 1972 
L 2913 1972 
L 2913 1597 
L 2431 1597 
L 2431 4884 
z
M 5394 4447 
L 2913 4447 
L 2913 2409 
L 5394 2409 
L 5394 4447 
z
M 2313 1309 
Q 2344 1047 2394 791 
Q 1831 372 1325 -41 
Q 1200 -153 1050 -328 
L 681 59 
Q 881 259 881 609 
L 881 2772 
L 88 2772 
L 88 3222 
L 1363 3222 
L 1363 566 
Q 1875 947 2313 1309 
z
M 4469 997 
L 4875 1297 
Q 5619 503 6381 -422 
L 5931 -759 
Q 5225 153 4469 997 
z
M 3306 1322 
L 3725 1022 
Q 2981 116 2063 -784 
Q 1906 -634 1681 -447 
Q 2544 334 3306 1322 
z
M 1025 5203 
Q 1638 4578 2000 4172 
L 1569 3816 
Q 1088 4434 656 4891 
L 1025 5203 
z
" transform="scale(0.015625)"/>
      <path id="MicrosoftYaHei-522b" d="M 538 4959 
L 3375 4959 
L 3375 2772 
L 2888 2772 
L 2888 3028 
L 1025 3028 
L 1025 2772 
L 538 2772 
L 538 4959 
z
M 300 2116 
L 1316 2116 
Q 1331 2431 1338 2822 
L 1825 2822 
Q 1816 2431 1797 2116 
L 3431 2116 
Q 3413 1028 3363 328 
Q 3319 -684 2431 -678 
Q 2006 -678 1563 -641 
Q 1531 -347 1469 -122 
Q 1963 -203 2350 -203 
Q 2850 -209 2875 378 
Q 2925 891 2938 1666 
L 1769 1666 
Q 1688 53 431 -859 
Q 300 -666 88 -441 
Q 1238 366 1288 1666 
L 300 1666 
L 300 2116 
z
M 5425 5278 
L 5944 5278 
L 5944 53 
Q 5944 -747 5163 -747 
Q 4756 -747 4175 -741 
Q 4138 -484 4081 -178 
Q 4725 -228 4994 -228 
Q 5425 -228 5425 191 
L 5425 5278 
z
M 4138 4647 
L 4644 4647 
L 4644 666 
L 4138 666 
L 4138 4647 
z
M 2888 4509 
L 1025 4509 
L 1025 3478 
L 2888 3478 
L 2888 4509 
z
" transform="scale(0.015625)"/>
      <path id="MicrosoftYaHei-20" transform="scale(0.015625)"/>
      <path id="MicrosoftYaHei-3d" d="M 3972 2497 
L 788 2497 
L 788 2969 
L 3972 2969 
L 3972 2497 
z
M 3972 1053 
L 788 1053 
L 788 1525 
L 3972 1525 
L 3972 1053 
z
" transform="scale(0.015625)"/>
      <path id="MicrosoftYaHei-77e5" d="M 3375 4641 
L 6038 4641 
L 6038 -684 
L 5544 -684 
L 5544 -53 
L 3869 -53 
L 3869 -684 
L 3375 -684 
L 3375 4641 
z
M 138 2528 
L 1419 2528 
Q 1456 3103 1463 3978 
L 931 3978 
Q 744 3447 544 3028 
Q 263 3147 69 3216 
Q 556 4147 844 5341 
L 1331 5228 
Q 1213 4803 1088 4428 
L 2994 4428 
L 2994 3978 
L 1963 3978 
Q 1956 3116 1925 2528 
L 3119 2528 
L 3119 2078 
L 1888 2078 
Q 1869 1916 1850 1772 
Q 2644 872 3206 153 
L 2781 -166 
Q 2181 634 1713 1184 
Q 1356 -16 381 -834 
Q 219 -616 31 -403 
Q 1206 547 1381 2078 
L 138 2078 
L 138 2528 
z
M 5544 4178 
L 3869 4178 
L 3869 397 
L 5544 397 
L 5544 4178 
z
" transform="scale(0.015625)"/>
      <path id="MicrosoftYaHei-9053" d="M 2213 3559 
L 3500 3559 
L 3622 4103 
L 1856 4103 
L 1856 4516 
L 3031 4516 
Q 2884 4725 2575 5097 
L 2938 5366 
Q 3263 5016 3494 4728 
L 3209 4516 
L 4359 4516 
Q 4631 4891 4906 5347 
L 5381 5103 
Q 5181 4847 4903 4516 
L 6231 4516 
L 6231 4103 
L 4128 4103 
L 3969 3559 
L 5775 3559 
L 5775 153 
L 5313 153 
L 5313 384 
L 2675 384 
L 2675 153 
L 2213 153 
L 2213 3559 
z
M 2688 -228 
L 4200 -247 
L 6319 -197 
Q 6213 -441 6113 -678 
L 4031 -697 
L 2644 -672 
Q 1594 -666 1088 47 
Q 906 -97 356 -753 
L 88 -222 
Q 494 141 875 469 
L 875 2641 
L 150 2641 
L 150 3097 
L 1350 3097 
L 1350 363 
Q 1803 -200 2688 -228 
z
M 2675 766 
L 5313 766 
L 5313 1328 
L 2675 1328 
L 2675 766 
z
M 2675 1697 
L 5313 1697 
L 5313 2253 
L 2675 2253 
L 2675 1697 
z
M 5313 3178 
L 2675 3178 
L 2675 2622 
L 5313 2622 
L 5313 3178 
z
M 700 5178 
Q 1131 4678 1550 4091 
L 1113 3791 
Q 694 4441 319 4903 
L 700 5178 
z
" transform="scale(0.015625)"/>
      <path id="MicrosoftYaHei-8003" d="M 225 3334 
L 2413 3334 
L 2413 4128 
L 738 4128 
L 738 4553 
L 2413 4553 
L 2413 5303 
L 2900 5303 
L 2900 4553 
L 4213 4553 
L 4213 4128 
L 2900 4128 
L 2900 3334 
L 3534 3334 
Q 4500 4041 5325 4884 
L 5706 4559 
Q 5000 3900 4278 3334 
L 6200 3334 
L 6200 2903 
L 3709 2903 
Q 3350 2641 2991 2403 
L 5769 2403 
L 5769 1978 
L 2859 1978 
L 2594 1428 
L 5100 1428 
Q 4975 366 4919 128 
Q 4775 -678 3931 -678 
Q 3300 -678 2563 -653 
Q 2519 -384 2431 -109 
Q 3181 -172 3838 -172 
Q 4325 -172 4431 253 
Q 4488 484 4556 1003 
L 2100 1003 
L 2100 1428 
L 2378 1978 
L 2316 1978 
Q 1353 1403 369 984 
Q 231 1222 69 1434 
Q 1606 2053 2906 2903 
L 225 2903 
L 225 3334 
z
" transform="scale(0.015625)"/>
      <path id="MicrosoftYaHei-4ec0" d="M 2019 3016 
L 3906 3016 
L 3906 5253 
L 4438 5253 
L 4438 3016 
L 6306 3016 
L 6306 2516 
L 4438 2516 
L 4438 -797 
L 3906 -797 
L 3906 2516 
L 2019 2516 
L 2019 3016 
z
M 88 2191 
Q 1019 3478 1550 5266 
L 2081 5116 
Q 1831 4391 1550 3763 
L 1550 -803 
L 1038 -803 
L 1038 2741 
Q 694 2134 313 1647 
Q 213 1916 88 2191 
z
" transform="scale(0.015625)"/>
      <path id="MicrosoftYaHei-4e48" d="M 4663 1972 
Q 5506 778 6263 -441 
L 5763 -753 
Q 5594 -469 5428 -197 
Q 2459 -369 1706 -434 
Q 1213 -478 919 -547 
L 663 3 
Q 1044 159 1400 497 
Q 3031 2147 4263 4141 
L 4806 3866 
Q 3375 1728 1738 97 
Q 2903 144 5141 263 
Q 4663 1034 4219 1697 
L 4663 1972 
z
M 69 2022 
Q 1806 3366 2956 5322 
L 3469 5066 
Q 2213 2941 456 1609 
Q 300 1803 69 2022 
z
" transform="scale(0.015625)"/>
      <path id="MicrosoftYaHei-9009" d="M 1756 2753 
L 3825 2753 
L 3825 3797 
L 2772 3797 
Q 2584 3322 2381 2947 
Q 2219 3053 1944 3172 
Q 2431 4028 2669 5072 
L 3156 4966 
Q 3047 4575 2928 4228 
L 3825 4228 
L 3825 5316 
L 4313 5316 
L 4313 4228 
L 5944 4228 
L 5944 3797 
L 4313 3797 
L 4313 2753 
L 6244 2753 
L 6244 2322 
L 4769 2322 
L 4769 984 
Q 4769 653 5044 653 
L 5344 653 
Q 5631 653 5675 953 
Q 5713 1197 5744 1691 
Q 5938 1603 6219 1509 
Q 6169 1078 6113 784 
Q 6013 228 5400 228 
L 4938 228 
Q 4288 228 4288 934 
L 4288 2322 
L 3447 2322 
Q 3444 2038 3431 1816 
Q 3394 647 2119 84 
Q 1994 266 1806 503 
Q 2906 959 2950 1816 
Q 2963 2003 2972 2322 
L 1756 2322 
L 1756 2753 
z
M 2694 -197 
L 4000 -209 
L 6300 -166 
Q 6231 -372 6125 -659 
L 3947 -684 
L 2638 -666 
Q 1513 -628 1081 91 
Q 825 -147 331 -747 
L 75 -228 
Q 628 306 875 538 
L 875 2641 
L 131 2641 
L 131 3103 
L 1356 3103 
L 1356 431 
Q 1741 -184 2694 -197 
z
M 856 5203 
Q 1175 4816 1731 4022 
L 1288 3709 
Q 781 4503 456 4934 
L 856 5203 
z
" transform="scale(0.015625)"/>
      <path id="MicrosoftYaHei-5bf9" d="M 694 3691 
Q 1234 2909 1741 2166 
Q 2113 3081 2213 4147 
L 250 4147 
L 250 4622 
L 2725 4622 
L 2725 4166 
Q 2553 2809 2059 1700 
Q 2569 953 3044 247 
L 2594 -53 
Q 2203 563 1803 1181 
Q 1247 163 388 -622 
Q 263 -428 81 -166 
Q 975 638 1500 1647 
Q 919 2538 319 3434 
L 694 3691 
z
M 2975 3941 
L 5056 3941 
L 5056 5278 
L 5563 5278 
L 5563 3941 
L 6325 3941 
L 6325 3466 
L 5563 3466 
L 5563 191 
Q 5563 -716 4669 -716 
Q 4388 -716 3744 -709 
Q 3713 -478 3644 -147 
Q 4263 -197 4588 -197 
Q 5056 -197 5056 278 
L 5056 3466 
L 2975 3466 
L 2975 3941 
z
M 3088 2684 
L 3494 2928 
Q 4000 2184 4388 1484 
L 3919 1216 
Q 3550 1922 3088 2684 
z
" transform="scale(0.015625)"/>
      <path id="MicrosoftYaHei-516c" d="M 4144 1591 
Q 5044 422 5663 -534 
L 5188 -847 
Q 5013 -559 4816 -250 
Q 2753 -350 1463 -453 
Q 1225 -478 888 -559 
L 613 -28 
Q 894 84 1131 316 
Q 1863 1159 2719 2809 
L 3256 2566 
Q 2481 1234 1600 78 
Q 2891 119 4522 194 
Q 4166 734 3738 1334 
L 4144 1591 
z
M 3606 4953 
L 4069 5134 
Q 4675 3503 6325 2547 
Q 6156 2372 5938 2059 
Q 4213 3247 3606 4953 
z
M 75 2366 
Q 1469 3503 2156 5047 
L 2650 4841 
Q 1806 3084 475 1966 
Q 313 2172 75 2366 
z
" transform="scale(0.015625)"/>
      <path id="MicrosoftYaHei-5f0f" d="M 94 4122 
L 3569 4122 
Q 3544 4700 3531 5347 
L 4063 5347 
Q 4059 4728 4081 4122 
L 6231 4122 
L 6231 3653 
L 4103 3653 
Q 4225 503 5156 -172 
Q 5494 -447 5631 -22 
Q 5725 303 5800 941 
Q 6094 834 6306 778 
Q 6188 47 6050 -403 
Q 5900 -834 5475 -834 
Q 5044 -834 4619 -397 
Q 3725 553 3597 3653 
L 94 3653 
L 94 4122 
z
M 119 159 
Q 825 244 1569 344 
L 1569 2097 
L 350 2097 
L 350 2566 
L 3288 2566 
L 3288 2097 
L 2081 2097 
L 2081 416 
Q 2809 519 3575 634 
Q 3563 391 3563 128 
Q 1681 -141 244 -366 
L 119 159 
z
M 4544 4978 
L 4844 5297 
Q 5294 4972 5756 4559 
L 5400 4191 
Q 5000 4597 4544 4978 
z
" transform="scale(0.015625)"/>
     </defs>
     <use xlink:href="#MicrosoftYaHei-8bc6"/>
     <use xlink:href="#MicrosoftYaHei-522b" transform="translate(100 0)"/>
     <use xlink:href="#MicrosoftYaHei-6a21" transform="translate(200 0)"/>
     <use xlink:href="#MicrosoftYaHei-578b" transform="translate(300 0)"/>
     <use xlink:href="#MicrosoftYaHei-20" transform="translate(400 0)"/>
     <use xlink:href="#MicrosoftYaHei-3d" transform="translate(429.589844 0)"/>
     <use xlink:href="#MicrosoftYaHei-20" transform="translate(503.759766 0)"/>
     <use xlink:href="#MicrosoftYaHei-77e5" transform="translate(533.349609 0)"/>
     <use xlink:href="#MicrosoftYaHei-9053" transform="translate(633.349609 0)"/>
     <use xlink:href="#MicrosoftYaHei-8003" transform="translate(733.349609 0)"/>
     <use xlink:href="#MicrosoftYaHei-4ec0" transform="translate(833.349609 0)"/>
     <use xlink:href="#MicrosoftYaHei-4e48" transform="translate(933.349609 0)"/>
     <use xlink:href="#MicrosoftYaHei-20" transform="translate(1033.349609 0)"/>
     <use xlink:href="#MicrosoftYaHei-3d" transform="translate(1062.939453 0)"/>
     <use xlink:href="#MicrosoftYaHei-20" transform="translate(1137.109375 0)"/>
     <use xlink:href="#MicrosoftYaHei-9009" transform="translate(1166.699219 0)"/>
     <use xlink:href="#MicrosoftYaHei-5bf9" transform="translate(1266.699219 0)"/>
     <use xlink:href="#MicrosoftYaHei-516c" transform="translate(1366.699219 0)"/>
     <use xlink:href="#MicrosoftYaHei-5f0f" transform="translate(1466.699219 0)"/>
    </g>
   </g>
  </g>
 </g>
</svg>
