<?xml version="1.0" encoding="utf-8" standalone="no"?>
<!DOCTYPE svg PUBLIC "-//W3C//DTD SVG 1.1//EN"
  "http://www.w3.org/Graphics/SVG/1.1/DTD/svg11.dtd">
<svg xmlns:xlink="http://www.w3.org/1999/xlink" width="432pt" height="288pt" viewBox="0 0 432 288" xmlns="http://www.w3.org/2000/svg" version="1.1">
 <metadata>
  <rdf:RDF xmlns:dc="http://purl.org/dc/elements/1.1/" xmlns:cc="http://creativecommons.org/ns#" xmlns:rdf="http://www.w3.org/1999/02/22-rdf-syntax-ns#">
   <cc:Work>
    <dc:type rdf:resource="http://purl.org/dc/dcmitype/StillImage"/>
    <dc:date>2026-05-22T22:12:51.444455</dc:date>
    <dc:format>image/svg+xml</dc:format>
    <dc:creator>
     <cc:Agent>
      <dc:title>Matplotlib v3.10.9, https://matplotlib.org/</dc:title>
     </cc:Agent>
    </dc:creator>
   </cc:Work>
  </rdf:RDF>
 </metadata>
 <defs>
  <style type="text/css">*{stroke-linejoin: round; stroke-linecap: butt}</style>
 </defs>
 <g id="figure_1">
  <g id="patch_1">
   <path d="M 0 288 
L 432 288 
L 432 0 
L 0 0 
z
" style="fill: #ffffff"/>
  </g>
  <g id="axes_1">
   <g id="patch_2">
    <path d="M 34.56 112.00896 
L 138.24 112.00896 
Q 146.016 112.00896 146.016 106.272 
L 146.016 58.464 
Q 146.016 52.72704 138.24 52.72704 
L 34.56 52.72704 
Q 26.784 52.72704 26.784 58.464 
L 26.784 106.272 
Q 26.784 112.00896 34.56 112.00896 
z
" clip-path="url(#p31aeb2662d)" style="fill: #3498db; opacity: 0.2; stroke: #3498db; stroke-width: 2; stroke-linejoin: miter"/>
   </g>
   <g id="patch_3">
    <path d="M 164.16 112.00896 
L 267.84 112.00896 
Q 275.616 112.00896 275.616 106.272 
L 275.616 58.464 
Q 275.616 52.72704 267.84 52.72704 
L 164.16 52.72704 
Q 156.384 52.72704 156.384 58.464 
L 156.384 106.272 
Q 156.384 112.00896 164.16 112.00896 
z
" clip-path="url(#p31aeb2662d)" style="fill: #e74c3c; opacity: 0.2; stroke: #e74c3c; stroke-width: 2; stroke-linejoin: miter"/>
   </g>
   <g id="patch_4">
    <path d="M 293.76 112.00896 
L 397.44 112.00896 
Q 405.216 112.00896 405.216 106.272 
L 405.216 58.464 
Q 405.216 52.72704 397.44 52.72704 
L 293.76 52.72704 
Q 285.984 52.72704 285.984 58.464 
L 285.984 106.272 
Q 285.984 112.00896 293.76 112.00896 
z
" clip-path="url(#p31aeb2662d)" style="fill: #27ae60; opacity: 0.2; stroke: #27ae60; stroke-width: 2; stroke-linejoin: miter"/>
   </g>
   <g id="patch_5">
    <path d="M 164.16 231.52896 
L 267.84 231.52896 
Q 275.616 231.52896 275.616 225.792 
L 275.616 177.984 
Q 275.616 172.24704 267.84 172.24704 
L 164.16 172.24704 
Q 156.384 172.24704 156.384 177.984 
L 156.384 225.792 
Q 156.384 231.52896 164.16 231.52896 
z
" clip-path="url(#p31aeb2662d)" style="fill: #e67e22; opacity: 0.2; stroke: #e67e22; stroke-width: 2; stroke-linejoin: miter"/>
   </g>
   <g id="patch_6">
    <path d="M 293.76 231.52896 
L 397.44 231.52896 
Q 405.216 231.52896 405.216 225.792 
L 405.216 177.984 
Q 405.216 172.24704 397.44 172.24704 
L 293.76 172.24704 
Q 285.984 172.24704 285.984 177.984 
L 285.984 225.792 
Q 285.984 231.52896 293.76 231.52896 
z
" clip-path="url(#p31aeb2662d)" style="fill: #8e44ad; opacity: 0.2; stroke: #8e44ad; stroke-width: 2; stroke-linejoin: miter"/>
   </g>
   <g id="text_1">
    <!-- 重力势能 -->
    <g style="fill: #1a1a2e" transform="translate(66.4 79.058469) scale(0.1 -0.1)">
     <defs>
      <path id="MicrosoftYaHei-Bold-91cd" d="M 106 -78 
L 2788 -78 
L 2788 241 
L 513 241 
L 513 766 
L 2788 766 
L 2788 1072 
L 731 1072 
L 731 3272 
L 2788 3272 
L 2788 3578 
L 125 3578 
L 125 4141 
L 2788 4141 
L 2788 4453 
L 663 4416 
Q 613 4691 544 4978 
Q 3200 5009 5731 5122 
Q 5738 5103 5850 4534 
L 3613 4475 
L 3613 4141 
L 6313 4141 
L 6313 3578 
L 3613 3578 
L 3613 3272 
L 5694 3272 
L 5694 1072 
L 3613 1072 
L 3613 766 
L 5925 766 
L 5925 241 
L 3613 241 
L 3613 -78 
L 6313 -78 
L 6313 -641 
L 106 -641 
L 106 -78 
z
M 4888 2753 
L 3613 2753 
L 3613 2397 
L 4888 2397 
L 4888 2753 
z
M 1538 2397 
L 2788 2397 
L 2788 2753 
L 1538 2753 
L 1538 2397 
z
M 4888 1591 
L 4888 1947 
L 3613 1947 
L 3613 1591 
L 4888 1591 
z
M 1538 1591 
L 2788 1591 
L 2788 1947 
L 1538 1947 
L 1538 1591 
z
" transform="scale(0.015625)"/>
      <path id="MicrosoftYaHei-Bold-529b" d="M 2094 5309 
L 3063 5309 
L 3022 4066 
L 5988 4066 
L 5931 2203 
Q 5897 1225 5859 593 
Q 5822 -38 5489 -373 
Q 5156 -709 4611 -721 
Q 4066 -734 3225 -728 
Q 3138 -184 3038 247 
Q 3531 197 4188 197 
Q 4503 197 4665 320 
Q 4828 444 4876 623 
Q 4925 803 4964 1515 
Q 5003 2228 5025 3241 
L 2978 3241 
Q 2919 603 769 -891 
Q 444 -491 38 -84 
Q 1963 1059 2031 3241 
L 381 3241 
L 381 4066 
L 2075 4066 
Q 2097 4644 2094 5309 
z
" transform="scale(0.015625)"/>
      <path id="MicrosoftYaHei-Bold-52bf" d="M 3400 -766 
Q 3325 -309 3244 34 
Q 4075 -9 4269 -9 
Q 4475 -9 4628 87 
Q 4781 184 4815 401 
Q 4850 619 4875 909 
L 3038 909 
Q 2613 -469 538 -909 
Q 275 -372 88 -72 
Q 1763 169 2134 909 
L 538 909 
L 538 1628 
L 2353 1628 
Q 2372 1741 2388 1866 
L 2675 1866 
Q 2475 2138 2231 2397 
Q 2709 2638 2988 2997 
Q 2753 3131 2519 3259 
L 2850 3797 
L 3288 3584 
Q 3347 3791 3363 4022 
L 2713 4022 
L 2713 4722 
L 3391 4722 
Q 3400 5069 3400 5328 
L 4163 5328 
Q 4163 5063 4153 4722 
L 5500 4722 
L 5488 3453 
Q 5488 2653 5644 2653 
Q 5731 2653 5800 3478 
Q 6063 3384 6350 3309 
Q 6213 1828 5550 1828 
Q 5166 1828 4970 2093 
Q 4775 2359 4761 2871 
Q 4747 3384 4744 4022 
L 4122 4022 
Q 4084 3609 3959 3247 
L 4669 2878 
L 4231 2234 
L 3641 2606 
Q 3359 2188 2919 1866 
L 3231 1866 
Q 3219 1747 3200 1628 
L 5781 1628 
L 5684 263 
Q 5656 -88 5492 -336 
Q 5328 -584 5012 -684 
Q 4697 -784 3400 -766 
z
M 200 3491 
L 1088 3566 
L 1088 3947 
L 313 3947 
L 313 4647 
L 1088 4647 
L 1088 5316 
L 1850 5316 
L 1850 4647 
L 2475 4647 
L 2475 3947 
L 1850 3947 
L 1850 3647 
L 2494 3722 
Q 2500 3372 2500 3009 
L 1850 2938 
L 1850 2753 
Q 1850 2391 1719 2162 
Q 1588 1934 1355 1854 
Q 1122 1775 419 1766 
Q 363 2128 281 2447 
Q 419 2428 763 2428 
Q 1088 2428 1088 2766 
L 1088 2853 
L 313 2766 
L 200 3491 
z
" transform="scale(0.015625)"/>
      <path id="MicrosoftYaHei-Bold-80fd" d="M 2644 4797 
Q 3100 4172 3569 3447 
Q 3188 3222 2906 3066 
L 2731 3369 
L 319 3197 
L 100 3897 
Q 519 4116 1331 5353 
L 2125 5053 
L 1213 3947 
L 2353 3994 
Q 2200 4238 2044 4472 
L 2644 4797 
z
M 5513 3916 
Q 5981 3697 6288 3597 
Q 6200 3228 6114 2942 
Q 6028 2656 5798 2520 
Q 5569 2384 5200 2384 
L 4556 2384 
Q 3594 2384 3588 3322 
L 3588 5291 
L 4381 5291 
L 4381 4347 
Q 5153 4700 5681 5003 
L 6231 4366 
Q 5553 4056 4381 3616 
L 4381 3422 
Q 4381 3072 4800 3072 
L 5000 3072 
Q 5341 3072 5392 3269 
Q 5444 3466 5513 3916 
z
M 1213 -797 
L 431 -797 
L 431 2978 
L 3106 2978 
L 3106 41 
Q 3106 -325 2972 -525 
Q 2838 -725 2566 -759 
Q 2294 -794 1681 -784 
Q 1594 -422 1481 -41 
Q 1791 -59 1969 -59 
Q 2213 -59 2269 28 
Q 2325 116 2325 228 
L 2325 378 
L 1213 378 
L 1213 -797 
z
M 2325 2303 
L 1213 2303 
L 1213 1947 
L 2325 1947 
L 2325 2303 
z
M 1213 984 
L 2325 984 
L 2325 1341 
L 1213 1341 
L 1213 984 
z
M 5531 953 
Q 5913 797 6313 647 
Q 6194 -78 6081 -287 
Q 5969 -497 5750 -605 
Q 5531 -713 5206 -716 
L 4550 -716 
Q 3588 -716 3588 228 
L 3588 2216 
L 4381 2216 
L 4381 1438 
Q 5072 1781 5675 2147 
L 6225 1491 
Q 5372 1084 4381 672 
L 4381 353 
Q 4381 -28 4738 -28 
L 5000 -28 
Q 5275 -28 5365 90 
Q 5456 209 5531 953 
z
" transform="scale(0.015625)"/>
     </defs>
     <use xlink:href="#MicrosoftYaHei-Bold-91cd"/>
     <use xlink:href="#MicrosoftYaHei-Bold-529b" transform="translate(100 0)"/>
     <use xlink:href="#MicrosoftYaHei-Bold-52bf" transform="translate(200 0)"/>
     <use xlink:href="#MicrosoftYaHei-Bold-80fd" transform="translate(300 0)"/>
    </g>
    <!-- mgh -->
    <g style="fill: #1a1a2e" transform="translate(74.940625 91.136906) scale(0.1 -0.1)">
     <defs>
      <path id="MicrosoftYaHei-Bold-6d" d="M 5881 0 
L 4875 0 
L 4875 1972 
Q 4875 2766 4297 2766 
Q 4028 2766 3850 2525 
Q 3672 2284 3672 1938 
L 3672 0 
L 2666 0 
L 2666 1997 
Q 2666 2766 2094 2766 
Q 1809 2766 1639 2536 
Q 1469 2306 1469 1928 
L 1469 0 
L 459 0 
L 459 3456 
L 1469 3456 
L 1469 2916 
L 1481 2916 
Q 1663 3213 1963 3377 
Q 2263 3541 2594 3541 
Q 3322 3541 3591 2888 
Q 3991 3541 4753 3541 
Q 5881 3541 5881 2147 
L 5881 0 
z
" transform="scale(0.015625)"/>
      <path id="MicrosoftYaHei-Bold-67" d="M 3800 381 
Q 3800 -581 3251 -1101 
Q 2703 -1622 1672 -1622 
Q 972 -1622 559 -1422 
L 559 -559 
Q 1097 -872 1644 -872 
Q 2184 -872 2489 -583 
Q 2794 -294 2794 219 
L 2794 506 
L 2778 506 
Q 2413 -84 1691 -84 
Q 1038 -84 645 381 
Q 253 847 253 1628 
Q 253 2500 686 3020 
Q 1119 3541 1822 3541 
Q 2459 3541 2778 3044 
L 2794 3044 
L 2794 3456 
L 3800 3456 
L 3800 381 
z
M 2803 1950 
Q 2803 2294 2595 2530 
Q 2388 2766 2072 2766 
Q 1703 2766 1489 2477 
Q 1275 2188 1275 1666 
Q 1275 1213 1481 952 
Q 1688 691 2028 691 
Q 2372 691 2587 956 
Q 2803 1222 2803 1647 
L 2803 1950 
z
" transform="scale(0.015625)"/>
      <path id="MicrosoftYaHei-Bold-68" d="M 3725 0 
L 2719 0 
L 2719 1969 
Q 2719 2766 2138 2766 
Q 1847 2766 1658 2544 
Q 1469 2322 1469 1969 
L 1469 0 
L 459 0 
L 459 5116 
L 1469 5116 
L 1469 2938 
L 1481 2938 
Q 1878 3541 2550 3541 
Q 3725 3541 3725 2122 
L 3725 0 
z
" transform="scale(0.015625)"/>
     </defs>
     <use xlink:href="#MicrosoftYaHei-Bold-6d"/>
     <use xlink:href="#MicrosoftYaHei-Bold-67" transform="translate(98.193359 0)"/>
     <use xlink:href="#MicrosoftYaHei-Bold-68" transform="translate(164.648438 0)"/>
    </g>
   </g>
   <g id="text_2">
    <!-- 动能 -->
    <g style="fill: #1a1a2e" transform="translate(206 79.082687) scale(0.1 -0.1)">
     <defs>
      <path id="MicrosoftYaHei-Bold-52a8" d="M 2469 2178 
L 3134 603 
Q 3563 1378 3553 3441 
L 2919 3441 
L 2919 4266 
L 3572 4266 
L 3581 5328 
L 4413 5328 
L 4400 4266 
L 6038 4266 
L 5966 734 
Q 5947 22 5905 -156 
Q 5863 -334 5731 -473 
Q 5600 -613 5387 -675 
Q 5175 -738 4269 -747 
Q 4169 -272 4044 191 
Q 4456 166 4728 166 
Q 4909 166 5006 237 
Q 5103 309 5120 445 
Q 5138 581 5161 1404 
Q 5184 2228 5194 3441 
L 4384 3441 
Q 4356 2047 4272 1445 
Q 4188 844 3925 228 
Q 3663 -388 3244 -866 
Q 2888 -584 2481 -341 
Q 2663 -156 2813 50 
L 1078 -97 
Q 688 -144 481 -228 
L 94 528 
Q 422 794 897 2491 
L 119 2491 
L 119 3291 
L 3006 3291 
L 3006 2491 
L 1806 2491 
Q 1516 1594 1188 747 
Q 1756 763 2216 788 
Q 1991 1416 1775 1947 
L 2469 2178 
z
M 2788 4066 
L 388 4066 
L 388 4866 
L 2788 4866 
L 2788 4066 
z
" transform="scale(0.015625)"/>
     </defs>
     <use xlink:href="#MicrosoftYaHei-Bold-52a8"/>
     <use xlink:href="#MicrosoftYaHei-Bold-80fd" transform="translate(100 0)"/>
    </g>
    <!-- ½mv² -->
    <g style="fill: #1a1a2e" transform="translate(200.855469 91.161125) scale(0.1 -0.1)">
     <defs>
      <path id="MicrosoftYaHei-Bold-bd" d="M 2267 1972 
L 389 1972 
L 389 2528 
L 986 2528 
L 986 4184 
L 339 4038 
L 339 4628 
L 1680 4906 
L 1680 2528 
L 2267 2528 
L 2267 1972 
z
M 5117 4841 
L 2123 0 
L 1339 0 
L 4333 4841 
L 5117 4841 
z
M 5949 -12 
L 3927 -12 
L 3927 500 
L 4761 1291 
Q 5033 1547 5098 1675 
Q 5164 1804 5164 1966 
Q 5164 2116 5065 2211 
Q 4967 2307 4802 2307 
Q 4461 2307 4086 1960 
L 4086 2660 
Q 4470 2922 4924 2922 
Q 5374 2922 5641 2692 
Q 5908 2463 5908 2060 
Q 5908 1754 5766 1535 
Q 5624 1316 5177 916 
L 4802 579 
L 4802 566 
L 5949 566 
L 5949 -12 
z
" transform="scale(0.015625)"/>
      <path id="MicrosoftYaHei-Bold-76" d="M 3688 3456 
L 2391 0 
L 1250 0 
L 16 3456 
L 1097 3456 
L 1731 1281 
Q 1834 925 1847 684 
L 1863 684 
Q 1888 931 1984 1263 
L 2631 3456 
L 3688 3456 
z
" transform="scale(0.015625)"/>
      <path id="MicrosoftYaHei-Bold-b2" d="M 2413 1972 
L 391 1972 
L 391 2484 
L 1225 3275 
Q 1497 3531 1562 3659 
Q 1628 3788 1628 3950 
Q 1628 4100 1529 4195 
Q 1431 4291 1266 4291 
Q 925 4291 550 3944 
L 550 4644 
Q 934 4906 1388 4906 
Q 1838 4906 2105 4676 
Q 2372 4447 2372 4044 
Q 2372 3738 2230 3519 
Q 2088 3300 1641 2900 
L 1266 2563 
L 1266 2550 
L 2413 2550 
L 2413 1972 
z
" transform="scale(0.015625)"/>
     </defs>
     <use xlink:href="#MicrosoftYaHei-Bold-bd"/>
     <use xlink:href="#MicrosoftYaHei-Bold-6d" transform="translate(103.759766 0)"/>
     <use xlink:href="#MicrosoftYaHei-Bold-76" transform="translate(201.953125 0)"/>
     <use xlink:href="#MicrosoftYaHei-Bold-b2" transform="translate(259.667969 0)"/>
    </g>
   </g>
   <g id="text_3">
    <!-- 弹性势能 -->
    <g style="fill: #1a1a2e" transform="translate(325.6 79.082687) scale(0.1 -0.1)">
     <defs>
      <path id="MicrosoftYaHei-Bold-5f39" d="M 6319 141 
L 4675 141 
L 4675 -841 
L 3863 -841 
L 3863 141 
L 2325 141 
L 2325 953 
L 3863 953 
L 3863 1422 
L 2463 1422 
L 2463 4441 
L 3213 4441 
Q 3013 4747 2831 4966 
L 3469 5359 
Q 3788 5022 4069 4634 
L 3750 4441 
L 4541 4441 
Q 4884 4919 5156 5366 
L 5900 5009 
Q 5684 4722 5450 4441 
L 6081 4441 
L 6081 1422 
L 4675 1422 
L 4675 953 
L 6319 953 
L 6319 141 
z
M 5306 3778 
L 4675 3778 
L 4675 3241 
L 5306 3241 
L 5306 3778 
z
M 3238 3241 
L 3863 3241 
L 3863 3778 
L 3238 3778 
L 3238 3241 
z
M 4675 2084 
L 5306 2084 
L 5306 2628 
L 4675 2628 
L 4675 2084 
z
M 3238 2084 
L 3863 2084 
L 3863 2628 
L 3238 2628 
L 3238 2084 
z
M 131 5028 
L 2081 5028 
L 2081 2853 
L 1044 2853 
L 963 2128 
L 2063 2128 
L 2044 1247 
Q 2013 -34 1977 -167 
Q 1941 -300 1805 -495 
Q 1669 -691 1284 -734 
Q 900 -778 294 -778 
Q 256 -409 144 59 
Q 519 34 850 34 
Q 1025 34 1122 114 
Q 1219 194 1236 358 
Q 1253 522 1281 1441 
L 150 1441 
L 319 3541 
L 1325 3541 
L 1325 4334 
L 131 4334 
L 131 5028 
z
" transform="scale(0.015625)"/>
      <path id="MicrosoftYaHei-Bold-6027" d="M 2250 216 
L 3975 216 
L 3975 1378 
L 2563 1378 
L 2563 2191 
L 3975 2191 
L 3975 3303 
L 3213 3303 
Q 3075 2734 2913 2272 
Q 2538 2491 2175 2684 
Q 2563 3684 2738 4947 
L 3506 4891 
Q 3447 4484 3381 4116 
L 3975 4116 
L 3975 5316 
L 4825 5316 
L 4825 4116 
L 6125 4116 
L 6125 3303 
L 4825 3303 
L 4825 2191 
L 6100 2191 
L 6100 1378 
L 4825 1378 
L 4825 216 
L 6313 216 
L 6313 -597 
L 2250 -597 
L 2250 216 
z
M 1788 5316 
L 1788 4456 
Q 2125 4316 2494 4134 
L 2175 3453 
L 1788 3713 
L 1788 -841 
L 950 -841 
L 950 5316 
L 1788 5316 
z
M 269 4103 
L 800 4041 
Q 719 3009 619 2178 
Q 350 2284 106 2316 
Q 225 3284 269 4103 
z
" transform="scale(0.015625)"/>
     </defs>
     <use xlink:href="#MicrosoftYaHei-Bold-5f39"/>
     <use xlink:href="#MicrosoftYaHei-Bold-6027" transform="translate(100 0)"/>
     <use xlink:href="#MicrosoftYaHei-Bold-52bf" transform="translate(200 0)"/>
     <use xlink:href="#MicrosoftYaHei-Bold-80fd" transform="translate(300 0)"/>
    </g>
    <!-- ½kx² -->
    <g style="fill: #1a1a2e" transform="translate(332.344531 91.161125) scale(0.1 -0.1)">
     <defs>
      <path id="MicrosoftYaHei-Bold-6b" d="M 3856 0 
L 2631 0 
L 1481 1709 
L 1469 1709 
L 1469 0 
L 459 0 
L 459 5116 
L 1469 5116 
L 1469 1859 
L 1481 1859 
L 2559 3456 
L 3763 3456 
L 2481 1825 
L 3856 0 
z
" transform="scale(0.015625)"/>
      <path id="MicrosoftYaHei-Bold-78" d="M 3706 3456 
L 2563 1772 
L 3697 0 
L 2531 0 
L 2016 953 
Q 1909 1150 1869 1263 
L 1856 1263 
Q 1800 1113 1716 963 
L 1191 0 
L 31 0 
L 1200 1719 
L 100 3456 
L 1269 3456 
L 1781 2463 
Q 1856 2319 1922 2144 
L 1934 2144 
Q 1966 2250 2078 2466 
L 2606 3456 
L 3706 3456 
z
" transform="scale(0.015625)"/>
     </defs>
     <use xlink:href="#MicrosoftYaHei-Bold-bd"/>
     <use xlink:href="#MicrosoftYaHei-Bold-6b" transform="translate(103.759766 0)"/>
     <use xlink:href="#MicrosoftYaHei-Bold-78" transform="translate(163.378906 0)"/>
     <use xlink:href="#MicrosoftYaHei-Bold-b2" transform="translate(221.875 0)"/>
    </g>
   </g>
   <g id="text_4">
    <!-- 内能 -->
    <g style="fill: #1a1a2e" transform="translate(206 198.602687) scale(0.1 -0.1)">
     <defs>
      <path id="MicrosoftYaHei-Bold-5185" d="M 488 4347 
L 2806 4347 
Q 2822 4881 2825 5353 
L 3644 5353 
Q 3644 4803 3634 4347 
L 5925 4347 
L 5925 266 
Q 5925 -203 5711 -451 
Q 5497 -700 5084 -734 
Q 4672 -769 3950 -753 
Q 3881 -397 3763 66 
Q 4181 34 4575 34 
Q 4791 34 4878 62 
Q 4966 91 5020 186 
Q 5075 281 5075 434 
L 5075 3528 
L 3613 3528 
Q 3575 3028 3503 2666 
Q 4150 2197 5031 1478 
L 4400 847 
Q 3984 1275 3206 1963 
Q 2806 1284 2013 759 
Q 1694 1134 1369 1416 
Q 2700 2216 2781 3528 
L 1338 3528 
L 1338 -803 
L 488 -803 
L 488 4347 
z
" transform="scale(0.015625)"/>
     </defs>
     <use xlink:href="#MicrosoftYaHei-Bold-5185"/>
     <use xlink:href="#MicrosoftYaHei-Bold-80fd" transform="translate(100 0)"/>
    </g>
    <!-- Q=f·s相对 -->
    <g style="fill: #1a1a2e" transform="translate(191.409375 210.681125) scale(0.1 -0.1)">
     <defs>
      <path id="MicrosoftYaHei-Bold-51" d="M 256 2356 
Q 256 3494 920 4208 
Q 1584 4922 2675 4922 
Q 3713 4922 4345 4231 
Q 4978 3541 4978 2456 
Q 4978 1325 4319 619 
Q 4278 575 4238 534 
L 5469 -653 
L 3941 -653 
L 3297 3 
Q 2972 -84 2597 -84 
Q 1556 -84 906 598 
Q 256 1281 256 2356 
z
M 1341 2413 
Q 1341 1706 1681 1257 
Q 2022 809 2616 809 
Q 3222 809 3559 1239 
Q 3897 1669 3897 2394 
Q 3897 3150 3569 3589 
Q 3241 4028 2644 4028 
Q 2038 4028 1689 3578 
Q 1341 3128 1341 2413 
z
" transform="scale(0.015625)"/>
      <path id="MicrosoftYaHei-Bold-3d" d="M 4072 2378 
L 797 2378 
L 797 3041 
L 4072 3041 
L 4072 2378 
z
M 4072 916 
L 797 916 
L 797 1578 
L 4072 1578 
L 4072 916 
z
" transform="scale(0.015625)"/>
      <path id="MicrosoftYaHei-Bold-66" d="M 2653 4338 
Q 2447 4419 2263 4419 
Q 1744 4419 1744 3844 
L 1744 3456 
L 2531 3456 
L 2531 2703 
L 1744 2703 
L 1744 0 
L 734 0 
L 734 2703 
L 156 2703 
L 156 3456 
L 734 3456 
L 734 3900 
Q 734 4491 1118 4844 
Q 1503 5197 2128 5197 
Q 2447 5197 2653 5131 
L 2653 4338 
z
" transform="scale(0.015625)"/>
      <path id="MicrosoftYaHei-Bold-b7" d="M 1406 2959 
Q 1769 2959 2028 2700 
Q 2288 2441 2288 2078 
Q 2288 1713 2028 1455 
Q 1769 1197 1406 1197 
Q 1041 1197 783 1455 
Q 525 1713 525 2078 
Q 525 2441 783 2700 
Q 1041 2959 1406 2959 
z
" transform="scale(0.015625)"/>
      <path id="MicrosoftYaHei-Bold-73" d="M 369 928 
Q 888 613 1384 613 
Q 2009 613 2009 947 
Q 2009 1184 1494 1344 
Q 850 1544 609 1789 
Q 369 2034 369 2453 
Q 369 2963 781 3252 
Q 1194 3541 1863 3541 
Q 2338 3541 2778 3400 
L 2778 2606 
Q 2375 2844 1891 2844 
Q 1650 2844 1503 2758 
Q 1356 2672 1356 2531 
Q 1356 2294 1794 2147 
Q 2263 1991 2498 1862 
Q 2734 1734 2857 1525 
Q 2981 1316 2981 1041 
Q 2981 506 2553 211 
Q 2125 -84 1409 -84 
Q 847 -84 369 94 
L 369 928 
z
" transform="scale(0.015625)"/>
      <path id="MicrosoftYaHei-Bold-76f8" d="M 75 1559 
Q 663 2469 916 3297 
L 138 3297 
L 138 4116 
L 938 4116 
L 938 5272 
L 1763 5272 
L 1763 4116 
L 2456 4116 
L 2456 3297 
L 1763 3297 
L 1763 2741 
Q 2194 2503 2569 2266 
L 2200 1553 
Q 1988 1722 1763 1888 
L 1763 -834 
L 938 -834 
L 938 1641 
Q 672 1034 306 459 
Q 194 1047 75 1559 
z
M 2625 4966 
L 6050 4966 
L 6050 -859 
L 5188 -859 
L 5188 -547 
L 3488 -547 
L 3488 -859 
L 2625 -859 
L 2625 4966 
z
M 5188 4166 
L 3488 4166 
L 3488 3391 
L 5188 3391 
L 5188 4166 
z
M 3488 1828 
L 5188 1828 
L 5188 2603 
L 3488 2603 
L 3488 1828 
z
M 3488 253 
L 5188 253 
L 5188 1041 
L 3488 1041 
L 3488 253 
z
" transform="scale(0.015625)"/>
      <path id="MicrosoftYaHei-Bold-5bf9" d="M 3050 4234 
L 4850 4234 
L 4850 5309 
L 5744 5309 
L 5744 4234 
L 6319 4234 
L 6319 3409 
L 5744 3409 
L 5744 216 
Q 5744 -250 5539 -490 
Q 5334 -731 4987 -754 
Q 4641 -778 3656 -778 
Q 3594 -359 3450 147 
Q 3931 109 4409 109 
Q 4850 109 4850 516 
L 4850 3409 
L 3050 3409 
L 3050 4234 
z
M 863 3772 
L 1691 2509 
Q 1934 3206 2025 4016 
L 188 4016 
L 188 4834 
L 2900 4834 
L 2900 4028 
Q 2709 2722 2247 1669 
L 3169 278 
L 2394 -228 
L 1781 778 
Q 1269 -47 550 -684 
Q 369 -316 88 153 
Q 816 772 1278 1594 
L 181 3341 
L 863 3772 
z
M 3463 3047 
Q 4069 2278 4588 1528 
L 3844 1041 
Q 3375 1841 2813 2609 
L 3463 3047 
z
" transform="scale(0.015625)"/>
     </defs>
     <use xlink:href="#MicrosoftYaHei-Bold-51"/>
     <use xlink:href="#MicrosoftYaHei-Bold-3d" transform="translate(81.835938 0)"/>
     <use xlink:href="#MicrosoftYaHei-Bold-66" transform="translate(157.958984 0)"/>
     <use xlink:href="#MicrosoftYaHei-Bold-b7" transform="translate(198.486328 0)"/>
     <use xlink:href="#MicrosoftYaHei-Bold-73" transform="translate(242.431641 0)"/>
     <use xlink:href="#MicrosoftYaHei-Bold-76f8" transform="translate(291.796875 0)"/>
     <use xlink:href="#MicrosoftYaHei-Bold-5bf9" transform="translate(391.796875 0)"/>
    </g>
   </g>
   <g id="text_5">
    <!-- 其他能 -->
    <g style="fill: #1a1a2e" transform="translate(330.6 198.602687) scale(0.1 -0.1)">
     <defs>
      <path id="MicrosoftYaHei-Bold-5176" d="M 5406 5291 
L 5406 4684 
L 6150 4684 
L 6150 3934 
L 5406 3934 
L 5406 1353 
L 6288 1353 
L 6288 603 
L 2344 603 
L 2731 -103 
Q 2044 -366 575 -884 
Q 369 -447 156 -109 
Q 1350 241 2319 603 
L 125 603 
L 125 1353 
L 981 1353 
L 981 3934 
L 250 3934 
L 250 4684 
L 981 4684 
L 981 5291 
L 1856 5291 
L 1856 4684 
L 4531 4684 
L 4531 5291 
L 5406 5291 
z
M 1856 3534 
L 4531 3534 
L 4531 3934 
L 1856 3934 
L 1856 3534 
z
M 1856 2447 
L 4531 2447 
L 4531 2847 
L 1856 2847 
L 1856 2447 
z
M 1856 1353 
L 4531 1353 
L 4531 1759 
L 1856 1759 
L 1856 1353 
z
M 3975 591 
Q 5250 247 6281 -84 
L 5888 -872 
Q 4825 -478 3613 -97 
L 3975 591 
z
" transform="scale(0.015625)"/>
      <path id="MicrosoftYaHei-Bold-4ed6" d="M 5994 4378 
L 5931 2063 
Q 5913 1525 5695 1331 
Q 5478 1138 4781 1103 
Q 4700 1478 4569 1934 
Q 4634 1922 4922 1922 
Q 5163 1922 5163 2172 
L 5194 3366 
L 4538 3209 
L 4538 484 
L 3706 484 
L 3706 3013 
L 3094 2869 
L 3094 559 
Q 3094 47 3550 59 
L 4781 59 
Q 5163 59 5283 206 
Q 5403 353 5488 1147 
Q 5994 928 6331 797 
Q 6163 -209 5889 -443 
Q 5616 -678 5150 -678 
L 3238 -678 
Q 2263 -678 2263 353 
L 2263 2675 
L 1850 2578 
L 1669 3384 
L 2263 3519 
L 2263 4784 
L 3094 4784 
L 3094 3709 
L 3706 3850 
L 3706 5341 
L 4538 5341 
L 4538 4041 
L 5994 4378 
z
M 1319 5309 
L 2094 5047 
Q 1869 4284 1575 3584 
L 1575 -809 
L 775 -809 
L 775 2006 
Q 575 1675 356 1359 
Q 269 1866 100 2497 
Q 850 3666 1319 5309 
z
" transform="scale(0.015625)"/>
     </defs>
     <use xlink:href="#MicrosoftYaHei-Bold-5176"/>
     <use xlink:href="#MicrosoftYaHei-Bold-4ed6" transform="translate(100 0)"/>
     <use xlink:href="#MicrosoftYaHei-Bold-80fd" transform="translate(200 0)"/>
    </g>
    <!-- W其他 -->
    <g style="fill: #1a1a2e" transform="translate(330.21875 210.681125) scale(0.1 -0.1)">
     <defs>
      <path id="MicrosoftYaHei-Bold-57" d="M 6825 4841 
L 5534 0 
L 4388 0 
L 3563 3156 
Q 3497 3413 3484 3691 
L 3472 3691 
Q 3441 3366 3384 3156 
L 2541 0 
L 1350 0 
L 59 4841 
L 1191 4841 
L 1909 1559 
Q 1956 1344 1975 1016 
L 1997 1016 
Q 2013 1272 2094 1575 
L 2994 4841 
L 4091 4841 
L 4909 1534 
Q 4959 1338 4988 1022 
L 5003 1022 
Q 5016 1294 5075 1553 
L 5778 4841 
L 6825 4841 
z
" transform="scale(0.015625)"/>
     </defs>
     <use xlink:href="#MicrosoftYaHei-Bold-57"/>
     <use xlink:href="#MicrosoftYaHei-Bold-5176" transform="translate(107.617188 0)"/>
     <use xlink:href="#MicrosoftYaHei-Bold-4ed6" transform="translate(207.617188 0)"/>
    </g>
   </g>
   <g id="patch_7">
    <path d="M 140.242852 72.8064 
Q 151.201472 72.8064 159.924024 72.8064 
" style="fill: none; stroke: #555555; stroke-width: 2; stroke-linecap: round"/>
    <path d="M 155.924024 70.8064 
L 159.924024 72.8064 
L 155.924024 74.8064 
" style="fill: none; stroke: #555555; stroke-width: 2; stroke-linecap: round"/>
   </g>
   <g id="patch_8">
    <path d="M 188.077148 91.9296 
Q 177.118528 91.9296 168.395976 91.9296 
" style="fill: none; stroke: #555555; stroke-width: 2; stroke-linecap: round"/>
    <path d="M 172.395976 93.9296 
L 168.395976 91.9296 
L 172.395976 89.9296 
" style="fill: none; stroke: #555555; stroke-width: 2; stroke-linecap: round"/>
   </g>
   <g id="text_6">
    <!-- WG -->
    <g style="fill: #555555" transform="translate(156.234375 58.464) scale(0.09 -0.09)">
     <defs>
      <path id="MicrosoftYaHei-57" d="M 6431 4841 
L 5075 0 
L 4347 0 
L 3372 3488 
Q 3306 3725 3294 3988 
L 3281 3988 
Q 3263 3728 3194 3494 
L 2209 0 
L 1488 0 
L 84 4841 
L 775 4841 
L 1763 1184 
Q 1828 938 1841 688 
L 1859 688 
Q 1875 875 1963 1184 
L 3009 4841 
L 3625 4841 
L 4625 1156 
Q 4675 975 4706 694 
L 4719 694 
Q 4734 897 4809 1169 
L 5759 4841 
L 6431 4841 
z
" transform="scale(0.015625)"/>
      <path id="MicrosoftYaHei-47" d="M 4284 331 
Q 3559 -81 2647 -81 
Q 1597 -81 955 583 
Q 313 1247 313 2356 
Q 313 3478 1022 4200 
Q 1731 4922 2841 4922 
Q 3625 4922 4169 4672 
L 4169 3997 
Q 3588 4363 2784 4363 
Q 1994 4363 1481 3822 
Q 969 3281 969 2397 
Q 969 1488 1441 981 
Q 1913 475 2716 475 
Q 3269 475 3656 688 
L 3656 1997 
L 2606 1997 
L 2606 2550 
L 4284 2550 
L 4284 331 
z
" transform="scale(0.015625)"/>
     </defs>
     <use xlink:href="#MicrosoftYaHei-57"/>
     <use xlink:href="#MicrosoftYaHei-47" transform="translate(101.757812 0)"/>
    </g>
   </g>
   <g id="patch_9">
    <path d="M 317.677148 72.8064 
Q 306.718528 72.8064 297.995976 72.8064 
" style="fill: none; stroke: #555555; stroke-width: 2; stroke-linecap: round"/>
    <path d="M 301.995976 74.8064 
L 297.995976 72.8064 
L 301.995976 70.8064 
" style="fill: none; stroke: #555555; stroke-width: 2; stroke-linecap: round"/>
   </g>
   <g id="text_7">
    <!-- W弹 -->
    <g style="fill: #555555" transform="translate(297.640547 58.464) scale(0.09 -0.09)">
     <defs>
      <path id="MicrosoftYaHei-5f39" d="M 2950 5084 
L 3325 5341 
Q 3631 4997 3956 4534 
L 3584 4284 
L 4494 4284 
Q 4834 4828 5119 5341 
L 5581 5072 
Q 5325 4697 5028 4284 
L 6006 4284 
L 6006 1309 
L 5569 1309 
L 5569 1528 
L 4506 1528 
L 4506 759 
L 6319 759 
L 6319 341 
L 4506 341 
L 4506 -834 
L 4056 -834 
L 4056 341 
L 2213 341 
L 2213 759 
L 4056 759 
L 4056 1528 
L 2994 1528 
L 2994 1309 
L 2556 1309 
L 2556 4284 
L 3509 4284 
Q 3266 4684 2950 5084 
z
M 156 4972 
L 1969 4972 
L 1969 2859 
L 1531 2859 
L 1531 3072 
L 831 3072 
L 731 1997 
L 1956 1997 
Q 1944 1103 1906 241 
Q 1863 -703 1063 -703 
Q 844 -703 281 -691 
Q 244 -453 175 -197 
Q 750 -241 981 -241 
Q 1425 -241 1444 272 
Q 1481 966 1494 1572 
L 250 1572 
L 431 3497 
L 1531 3497 
L 1531 4547 
L 156 4547 
L 156 4972 
z
M 4506 1947 
L 5569 1947 
L 5569 2703 
L 4506 2703 
L 4506 1947 
z
M 2994 3866 
L 2994 3109 
L 4056 3109 
L 4056 3866 
L 2994 3866 
z
M 5569 3866 
L 4506 3866 
L 4506 3109 
L 5569 3109 
L 5569 3866 
z
M 2994 1947 
L 4056 1947 
L 4056 2703 
L 2994 2703 
L 2994 1947 
z
" transform="scale(0.015625)"/>
     </defs>
     <use xlink:href="#MicrosoftYaHei-57"/>
     <use xlink:href="#MicrosoftYaHei-5f39" transform="translate(101.757812 0)"/>
    </g>
   </g>
   <g id="patch_10">
    <path d="M 201.169676 153.375881 
Q 170.040203 141.205361 164.841417 110.454549 
" style="fill: none; stroke: #e74c3c; stroke-width: 2; stroke-linecap: round"/>
    <path d="M 163.536185 114.731975 
L 164.841417 110.454549 
L 167.480219 114.06519 
" style="fill: none; stroke: #e74c3c; stroke-width: 2; stroke-linecap: round"/>
   </g>
   <g id="text_8">
    <!-- W合=ΔEk -->
    <g style="fill: #e74c3c" transform="translate(151.2 139.7376) scale(0.09 -0.09)">
     <defs>
      <path id="MicrosoftYaHei-5408" d="M 1025 1909 
L 5381 1909 
L 5381 -866 
L 4881 -866 
L 4881 -447 
L 1525 -447 
L 1525 -878 
L 1025 -878 
L 1025 1909 
z
M 3700 5234 
L 3550 5053 
Q 4594 3697 6319 3009 
Q 6125 2734 5988 2509 
Q 5481 2753 5025 3059 
L 5025 2703 
L 1369 2703 
L 1369 3016 
Q 913 2716 394 2428 
Q 269 2641 81 2897 
Q 2013 3866 3000 5234 
L 3700 5234 
z
M 4881 1453 
L 1525 1453 
L 1525 -3 
L 4881 -3 
L 4881 1453 
z
M 3219 4691 
Q 2581 3872 1550 3147 
L 4894 3147 
Q 3944 3797 3219 4691 
z
" transform="scale(0.015625)"/>
      <path id="MicrosoftYaHei-3d" d="M 3972 2497 
L 788 2497 
L 788 2969 
L 3972 2969 
L 3972 2497 
z
M 3972 1053 
L 788 1053 
L 788 1525 
L 3972 1525 
L 3972 1053 
z
" transform="scale(0.015625)"/>
      <path id="MicrosoftYaHei-394" d="M 166 0 
L 166 275 
L 1913 4841 
L 2578 4841 
L 4334 275 
L 4334 0 
L 166 0 
z
M 2366 3744 
Q 2313 3894 2280 4012 
Q 2247 4131 2241 4225 
L 2225 4225 
Q 2213 4138 2181 4019 
Q 2150 3900 2091 3747 
Q 1856 3097 1570 2301 
Q 1284 1506 941 553 
L 3544 553 
L 2366 3744 
z
" transform="scale(0.015625)"/>
      <path id="MicrosoftYaHei-45" d="M 3228 0 
L 625 0 
L 625 4841 
L 3119 4841 
L 3119 4284 
L 1250 4284 
L 1250 2734 
L 2981 2734 
L 2981 2181 
L 1250 2181 
L 1250 553 
L 3228 553 
L 3228 0 
z
" transform="scale(0.015625)"/>
      <path id="MicrosoftYaHei-6b" d="M 3484 0 
L 2650 0 
L 1172 1666 
L 1159 1666 
L 1159 0 
L 547 0 
L 547 5116 
L 1159 5116 
L 1159 1872 
L 1172 1872 
L 2575 3456 
L 3363 3456 
L 1800 1794 
L 3484 0 
z
" transform="scale(0.015625)"/>
     </defs>
     <use xlink:href="#MicrosoftYaHei-57"/>
     <use xlink:href="#MicrosoftYaHei-5408" transform="translate(101.757812 0)"/>
     <use xlink:href="#MicrosoftYaHei-3d" transform="translate(201.757812 0)"/>
     <use xlink:href="#MicrosoftYaHei-394" transform="translate(275.927734 0)"/>
     <use xlink:href="#MicrosoftYaHei-45" transform="translate(346.289062 0)"/>
     <use xlink:href="#MicrosoftYaHei-6b" transform="translate(401.269531 0)"/>
    </g>
   </g>
   <g id="patch_11">
    <path d="M 248.4 108.270809 
Q 248.4 130.175845 248.4 149.844813 
" style="fill: none; stroke: #e67e22; stroke-width: 2; stroke-linecap: round"/>
    <path d="M 250.4 145.844813 
L 248.4 149.844813 
L 246.4 145.844813 
" style="fill: none; stroke: #e67e22; stroke-width: 2; stroke-linecap: round"/>
   </g>
   <g id="text_9">
    <!-- Wf→Q -->
    <g style="fill: #e67e22" transform="translate(280.8 130.176) scale(0.09 -0.09)">
     <defs>
      <path id="MicrosoftYaHei-66" d="M 2319 4594 
Q 2147 4684 1947 4684 
Q 1372 4684 1372 3972 
L 1372 3456 
L 2181 3456 
L 2181 2950 
L 1372 2950 
L 1372 0 
L 766 0 
L 766 2950 
L 175 2950 
L 175 3456 
L 766 3456 
L 766 4000 
Q 766 4556 1086 4873 
Q 1406 5191 1900 5191 
Q 2163 5191 2319 5131 
L 2319 4594 
z
" transform="scale(0.015625)"/>
      <path id="MicrosoftYaHei-2192" d="M 4859 3766 
Q 5241 3344 5514 3125 
Q 5788 2906 6150 2713 
L 6150 2572 
Q 5788 2381 5517 2164 
Q 5247 1947 4859 1519 
L 4622 1519 
Q 4766 1822 4866 1983 
Q 4966 2144 5141 2369 
L 247 2369 
L 247 2916 
L 5141 2916 
Q 4972 3131 4869 3298 
Q 4766 3466 4622 3766 
L 4859 3766 
z
" transform="scale(0.015625)"/>
      <path id="MicrosoftYaHei-51" d="M 313 2363 
Q 313 3534 947 4228 
Q 1581 4922 2666 4922 
Q 3675 4922 4290 4244 
Q 4906 3566 4906 2478 
Q 4906 1300 4275 609 
Q 4125 447 3953 322 
L 5313 -653 
L 4284 -653 
L 3366 28 
Q 3009 -81 2588 -81 
Q 1556 -81 934 597 
Q 313 1275 313 2363 
z
M 969 2413 
Q 969 1534 1417 1004 
Q 1866 475 2588 475 
Q 3363 475 3805 983 
Q 4247 1491 4247 2403 
Q 4247 3341 3814 3850 
Q 3381 4359 2628 4359 
Q 1888 4359 1428 3821 
Q 969 3284 969 2413 
z
" transform="scale(0.015625)"/>
     </defs>
     <use xlink:href="#MicrosoftYaHei-57"/>
     <use xlink:href="#MicrosoftYaHei-66" transform="translate(101.757812 0)"/>
     <use xlink:href="#MicrosoftYaHei-2192" transform="translate(136.425781 0)"/>
     <use xlink:href="#MicrosoftYaHei-51" transform="translate(236.425781 0)"/>
    </g>
   </g>
   <g id="text_10">
    <g id="patch_12">
     <path d="M 160.474687 297.022713 
L 271.525312 297.022713 
Q 277.125312 297.022713 277.125312 291.422712 
L 277.125312 276.75115 
Q 277.125312 271.15115 271.525312 271.15115 
L 160.474687 271.15115 
Q 154.874687 271.15115 154.874687 276.75115 
L 154.874687 291.422712 
Q 154.874687 297.022713 160.474687 297.022713 
z
" style="fill: #e8f8f5; stroke: #1abc9c; stroke-linejoin: miter"/>
    </g>
    <!-- W其 = ΔE机 + Q -->
    <g style="fill: #1a1a2e" transform="translate(160.474687 287.9424) scale(0.14 -0.14)">
     <defs>
      <path id="MicrosoftYaHei-Bold-20" transform="scale(0.015625)"/>
      <path id="MicrosoftYaHei-Bold-394" d="M 128 0 
L 128 403 
L 1781 4841 
L 2991 4841 
L 4613 403 
L 4613 0 
L 128 0 
z
M 2484 3500 
Q 2388 3788 2369 3981 
L 2341 3981 
Q 2322 3775 2047 2956 
L 1334 844 
L 3381 844 
L 2484 3500 
z
" transform="scale(0.015625)"/>
      <path id="MicrosoftYaHei-Bold-45" d="M 3425 0 
L 559 0 
L 559 4841 
L 3313 4841 
L 3313 3997 
L 1591 3997 
L 1591 2856 
L 3191 2856 
L 3191 2016 
L 1591 2016 
L 1591 844 
L 3425 844 
L 3425 0 
z
" transform="scale(0.015625)"/>
      <path id="MicrosoftYaHei-Bold-673a" d="M 81 1597 
Q 594 2397 841 3372 
L 138 3372 
L 138 4203 
L 856 4203 
L 856 5322 
L 1675 5322 
L 1675 4203 
L 2400 4203 
L 2400 3372 
L 1675 3372 
L 1675 2788 
Q 2072 2559 2538 2272 
L 2131 1566 
L 1675 1888 
L 1675 -809 
L 856 -809 
L 856 1388 
Q 647 919 369 491 
Q 269 903 81 1597 
z
M 5694 1634 
Q 5988 1503 6306 1391 
Q 6241 91 6181 -189 
Q 6122 -469 5961 -580 
Q 5800 -691 5525 -691 
L 5038 -691 
Q 4438 -691 4438 59 
L 4438 4159 
L 3550 4159 
L 3550 2409 
Q 3550 1031 3328 412 
Q 3106 -206 2531 -828 
Q 2238 -478 1875 -84 
Q 2391 466 2548 1023 
Q 2706 1581 2706 2941 
L 2706 5041 
L 5331 5041 
L 5331 316 
Q 5331 103 5469 103 
Q 5544 103 5580 151 
Q 5616 200 5648 562 
Q 5681 925 5694 1634 
z
" transform="scale(0.015625)"/>
      <path id="MicrosoftYaHei-Bold-2b" d="M 4072 1653 
L 2766 1653 
L 2766 347 
L 2109 347 
L 2109 1653 
L 797 1653 
L 797 2313 
L 2109 2313 
L 2109 3625 
L 2766 3625 
L 2766 2313 
L 4072 2313 
L 4072 1653 
z
" transform="scale(0.015625)"/>
     </defs>
     <use xlink:href="#MicrosoftYaHei-Bold-57"/>
     <use xlink:href="#MicrosoftYaHei-Bold-5176" transform="translate(107.617188 0)"/>
     <use xlink:href="#MicrosoftYaHei-Bold-20" transform="translate(207.617188 0)"/>
     <use xlink:href="#MicrosoftYaHei-Bold-3d" transform="translate(237.402344 0)"/>
     <use xlink:href="#MicrosoftYaHei-Bold-20" transform="translate(313.525391 0)"/>
     <use xlink:href="#MicrosoftYaHei-Bold-394" transform="translate(343.310547 0)"/>
     <use xlink:href="#MicrosoftYaHei-Bold-45" transform="translate(418.505859 0)"/>
     <use xlink:href="#MicrosoftYaHei-Bold-673a" transform="translate(475.683594 0)"/>
     <use xlink:href="#MicrosoftYaHei-Bold-20" transform="translate(575.683594 0)"/>
     <use xlink:href="#MicrosoftYaHei-Bold-2b" transform="translate(605.46875 0)"/>
     <use xlink:href="#MicrosoftYaHei-Bold-20" transform="translate(681.591797 0)"/>
     <use xlink:href="#MicrosoftYaHei-Bold-51" transform="translate(711.376953 0)"/>
    </g>
   </g>
   <g id="text_11">
    <!-- 功能关系——力做功与能量转化 -->
    <g style="fill: #1a1a2e" transform="translate(116.877812 26.56) scale(0.14 -0.14)">
     <defs>
      <path id="MicrosoftYaHei-529f" d="M 2500 3978 
L 3475 3978 
Q 3488 4538 3494 5278 
L 4000 5278 
Q 3991 4531 3975 3978 
L 5969 3978 
Q 5913 1791 5844 291 
Q 5775 -691 4956 -709 
Q 4413 -716 3756 -684 
Q 3713 -397 3656 -122 
Q 4306 -197 4844 -191 
Q 5313 -178 5344 378 
Q 5425 1847 5450 3497 
L 3963 3497 
Q 3950 3003 3931 2734 
Q 3813 266 1938 -847 
Q 1800 -653 1575 -422 
Q 3325 553 3431 2772 
Q 3450 3063 3463 3497 
L 2500 3497 
L 2500 3978 
z
M 81 822 
Q 619 941 1119 1056 
L 1119 4134 
L 169 4134 
L 169 4622 
L 2675 4622 
L 2675 4134 
L 1625 4134 
L 1625 1178 
Q 2166 1313 2656 1447 
Q 2669 1122 2700 947 
Q 1594 672 225 291 
L 81 822 
z
" transform="scale(0.015625)"/>
      <path id="MicrosoftYaHei-80fd" d="M 950 -759 
L 463 -759 
L 463 2928 
L 3000 2928 
L 3000 -28 
Q 3000 -703 2375 -703 
Q 2100 -709 1669 -709 
Q 1638 -516 1575 -234 
Q 1969 -266 2206 -266 
Q 2513 -266 2513 53 
L 2513 572 
L 950 572 
L 950 -759 
z
M 3606 2253 
L 4094 2253 
L 4094 1222 
Q 4981 1553 5950 2091 
L 6231 1659 
Q 5209 1122 4094 706 
L 4094 166 
Q 4094 -228 4400 -228 
L 5319 -228 
Q 5638 -228 5688 78 
Q 5731 353 5763 897 
Q 6000 803 6250 722 
Q 6200 172 6144 -109 
Q 6063 -659 5363 -659 
L 4319 -659 
Q 3606 -659 3606 72 
L 3606 2253 
z
M 3619 5303 
L 4106 5303 
L 4106 4231 
Q 4966 4572 5813 5053 
L 6094 4622 
Q 5119 4128 4106 3719 
L 4106 3359 
Q 4106 2941 4438 2941 
L 5231 2941 
Q 5625 2941 5675 3266 
Q 5719 3534 5750 4047 
Q 5988 3953 6238 3866 
Q 6188 3366 6131 3053 
Q 6038 2509 5288 2509 
L 4375 2509 
Q 3619 2509 3619 3259 
L 3619 5303 
z
M 2463 4772 
Q 3031 4034 3450 3353 
Q 3213 3191 3019 3066 
Q 2897 3281 2759 3506 
Q 1231 3394 313 3303 
L 113 3828 
Q 388 3978 719 4391 
Q 1063 4841 1394 5397 
L 1888 5216 
Q 1369 4466 794 3797 
Q 1731 3856 2497 3919 
Q 2300 4216 2075 4528 
L 2463 4772 
z
M 950 947 
L 2513 947 
L 2513 1553 
L 950 1553 
L 950 947 
z
M 2513 2528 
L 950 2528 
L 950 1928 
L 2513 1928 
L 2513 2528 
z
" transform="scale(0.015625)"/>
      <path id="MicrosoftYaHei-5173" d="M 131 -397 
Q 2372 400 2803 1897 
L 256 1897 
L 256 2372 
L 2894 2372 
Q 2906 2506 2906 3566 
L 625 3566 
L 625 4041 
L 2125 4041 
Q 1588 4631 1206 4991 
L 1569 5316 
Q 2106 4834 2550 4397 
L 2150 4041 
L 3641 4041 
Q 4125 4725 4494 5322 
L 5013 5034 
Q 4581 4484 4219 4041 
L 5800 4041 
L 5800 3566 
L 3438 3566 
Q 3438 2647 3428 2372 
L 6169 2372 
L 6169 1897 
L 3516 1897 
Q 4250 325 6281 -259 
Q 6025 -522 5819 -766 
Q 3894 -16 3203 1491 
Q 2694 28 494 -847 
Q 331 -634 131 -397 
z
" transform="scale(0.015625)"/>
      <path id="MicrosoftYaHei-7cfb" d="M 4494 2747 
Q 5294 2103 6131 1334 
Q 5925 1134 5750 953 
Q 5491 1209 5225 1459 
Q 4391 1425 3519 1378 
L 3519 -28 
Q 3519 -741 2769 -741 
Q 2463 -741 1963 -728 
Q 1931 -497 1881 -216 
Q 2406 -272 2688 -272 
Q 3031 -272 3031 66 
L 3031 1353 
Q 2272 1313 1488 1266 
Q 1131 1247 781 1184 
L 575 1722 
Q 988 1797 1356 1966 
Q 2313 2434 3131 2909 
Q 2044 2825 1306 2759 
Q 981 2728 813 2691 
L 613 3216 
Q 913 3291 1175 3434 
Q 1959 3872 2747 4469 
Q 1675 4403 575 4353 
Q 531 4572 463 4791 
Q 3444 4903 5756 5134 
L 5850 4691 
Q 4494 4578 3097 4488 
L 3350 4309 
Q 2369 3653 1538 3203 
Q 2938 3281 3856 3353 
Q 4481 3753 5013 4159 
L 5419 3828 
Q 3850 2709 1775 1734 
Q 3019 1778 4791 1866 
Q 4478 2153 4163 2428 
L 4494 2747 
z
M 4125 697 
L 4444 1034 
Q 5231 509 6175 -222 
L 5806 -628 
Q 4931 97 4125 697 
z
M 1681 1028 
L 2088 709 
Q 1288 -9 406 -678 
Q 256 -497 63 -297 
Q 875 259 1681 1028 
z
" transform="scale(0.015625)"/>
      <path id="MicrosoftYaHei-2014" d="M 6913 1681 
L 0 1681 
L 0 2153 
L 6913 2153 
L 6913 1681 
z
" transform="scale(0.015625)"/>
      <path id="MicrosoftYaHei-529b" d="M 400 3916 
L 2425 3916 
Q 2444 4603 2450 5316 
L 2994 5316 
Q 2981 4653 2963 3916 
L 5831 3916 
Q 5756 1472 5688 459 
Q 5606 -616 4538 -628 
Q 4025 -628 3300 -603 
Q 3275 -359 3206 -9 
L 3225 -9 
Q 4038 -84 4488 -78 
Q 5094 -66 5156 591 
Q 5231 1709 5269 3403 
L 2950 3403 
Q 2894 1775 2431 953 
Q 1938 41 506 -803 
Q 331 -578 131 -328 
Q 1488 434 1913 1209 
Q 2353 1913 2406 3403 
L 400 3403 
L 400 3916 
z
" transform="scale(0.015625)"/>
      <path id="MicrosoftYaHei-505a" d="M 4581 5284 
L 5038 5209 
Q 4925 4616 4781 4097 
L 6263 4097 
L 6263 3691 
L 5944 3691 
Q 5856 1897 5313 784 
Q 5713 97 6331 -316 
Q 6169 -547 6038 -778 
Q 5444 -303 5050 334 
Q 4613 -322 3950 -903 
Q 3825 -722 3638 -509 
Q 4394 128 4794 797 
Q 4394 1647 4281 2741 
Q 4131 2422 3963 2141 
Q 3850 2328 3688 2541 
Q 4331 3672 4581 5284 
z
M 1825 2359 
L 2538 2359 
L 2538 3603 
L 1544 3603 
L 1544 4028 
L 2538 4028 
L 2538 5241 
L 3000 5241 
L 3000 4028 
L 3994 4028 
L 3994 3603 
L 3000 3603 
L 3000 2359 
L 3750 2359 
L 3750 66 
L 2275 66 
L 2275 -366 
L 1825 -366 
L 1825 2359 
z
M 38 2328 
Q 850 3622 1238 5284 
L 1700 5166 
Q 1500 4434 1263 3797 
L 1263 -847 
L 838 -847 
L 838 2822 
Q 556 2266 238 1803 
Q 150 2053 38 2328 
z
M 3300 1947 
L 2275 1947 
L 2275 478 
L 3300 478 
L 3300 1947 
z
M 5481 3691 
L 4656 3691 
Q 4631 3616 4606 3547 
Q 4681 2241 5056 1316 
Q 5425 2222 5481 3691 
z
" transform="scale(0.015625)"/>
      <path id="MicrosoftYaHei-4e0e" d="M 1163 2384 
L 1163 2859 
L 1413 5328 
L 1931 5328 
L 1834 4334 
L 6269 4334 
L 6269 3859 
L 1791 3859 
L 1694 2859 
L 5813 2859 
Q 5738 1547 5644 416 
Q 5556 -247 5263 -478 
Q 4981 -703 4322 -703 
Q 3706 -697 2900 -678 
Q 2863 -466 2794 -134 
Q 3744 -203 4213 -209 
Q 5050 -266 5125 447 
Q 5206 1278 5263 2384 
L 1163 2384 
z
M 106 1409 
L 4738 1409 
L 4738 934 
L 106 934 
L 106 1409 
z
" transform="scale(0.015625)"/>
      <path id="MicrosoftYaHei-91cf" d="M 113 -278 
L 2981 -278 
L 2981 78 
L 475 78 
L 475 403 
L 2981 403 
L 2981 759 
L 1494 759 
L 1494 597 
L 1069 597 
L 1069 2516 
L 5350 2516 
L 5350 597 
L 4925 597 
L 4925 759 
L 3419 759 
L 3419 403 
L 5931 403 
L 5931 78 
L 3419 78 
L 3419 -278 
L 6288 -278 
L 6288 -616 
L 113 -616 
L 113 -278 
z
M 1119 5072 
L 5306 5072 
L 5306 3284 
L 4881 3284 
L 4881 3453 
L 1544 3453 
L 1544 3284 
L 1119 3284 
L 1119 5072 
z
M 163 3153 
L 6263 3153 
L 6263 2816 
L 163 2816 
L 163 3153 
z
M 1544 3778 
L 4881 3778 
L 4881 4116 
L 1544 4116 
L 1544 3778 
z
M 4881 4747 
L 1544 4747 
L 1544 4416 
L 4881 4416 
L 4881 4747 
z
M 3419 1084 
L 4925 1084 
L 4925 1491 
L 3419 1491 
L 3419 1084 
z
M 1494 1084 
L 2981 1084 
L 2981 1491 
L 1494 1491 
L 1494 1084 
z
M 4925 2191 
L 3419 2191 
L 3419 1791 
L 4925 1791 
L 4925 2191 
z
M 1494 1791 
L 2981 1791 
L 2981 2191 
L 1494 2191 
L 1494 1791 
z
" transform="scale(0.015625)"/>
      <path id="MicrosoftYaHei-8f6c" d="M 3125 584 
L 3406 959 
Q 3925 634 4431 303 
L 5400 1428 
L 3244 1428 
L 3244 1859 
Q 3363 2238 3481 2666 
L 2769 2666 
L 2769 3091 
L 3600 3091 
Q 3703 3484 3809 3916 
L 3063 3916 
L 3063 4341 
L 3913 4341 
Q 4022 4800 4131 5297 
L 4613 5297 
Q 4506 4806 4394 4341 
L 6075 4341 
L 6075 3916 
L 4294 3916 
Q 4188 3491 4084 3091 
L 6300 3091 
L 6300 2666 
L 3969 2666 
Q 3853 2247 3738 1853 
L 6006 1853 
L 6006 1409 
L 4819 50 
Q 5191 -197 5556 -447 
L 5231 -859 
Q 4219 -103 3125 584 
z
M 744 2303 
L 1506 2303 
L 1506 3534 
L 1969 3534 
L 1969 2303 
L 2813 2303 
L 2813 1878 
L 1969 1878 
L 1969 1034 
Q 2441 1100 2944 1172 
Q 2919 953 2900 722 
Q 2431 653 1969 584 
L 1969 -841 
L 1506 -841 
L 1506 516 
Q 825 413 150 309 
L 81 791 
Q 756 872 1506 972 
L 1506 1878 
L 225 1878 
L 225 2297 
Q 553 2994 844 3922 
L 156 3922 
L 156 4347 
L 972 4347 
Q 1109 4819 1238 5347 
L 1750 5247 
Q 1609 4788 1466 4347 
L 2813 4347 
L 2813 3922 
L 1325 3922 
Q 1044 3084 744 2303 
z
" transform="scale(0.015625)"/>
      <path id="MicrosoftYaHei-5316" d="M 1844 1453 
Q 2663 1834 3375 2331 
L 3375 5197 
L 3913 5197 
L 3913 2734 
Q 4869 3506 5613 4516 
L 6069 4184 
Q 5159 2975 3913 2069 
L 3913 303 
Q 3913 -122 4363 -122 
L 5156 -122 
Q 5581 -122 5650 284 
Q 5738 709 5763 1266 
Q 6025 1166 6313 1084 
Q 6263 559 6181 122 
Q 6063 -597 5281 -597 
L 4225 -597 
Q 3375 -597 3375 241 
L 3375 1703 
Q 2791 1328 2144 1016 
Q 2013 1222 1844 1453 
z
M 88 2222 
Q 1175 3666 1688 5291 
L 2231 5134 
Q 1934 4359 1588 3675 
L 1588 -797 
L 1063 -797 
L 1063 2734 
Q 716 2172 325 1678 
Q 219 1947 88 2222 
z
" transform="scale(0.015625)"/>
     </defs>
     <use xlink:href="#MicrosoftYaHei-529f"/>
     <use xlink:href="#MicrosoftYaHei-80fd" transform="translate(100 0)"/>
     <use xlink:href="#MicrosoftYaHei-5173" transform="translate(200 0)"/>
     <use xlink:href="#MicrosoftYaHei-7cfb" transform="translate(300 0)"/>
     <use xlink:href="#MicrosoftYaHei-2014" transform="translate(400 0)"/>
     <use xlink:href="#MicrosoftYaHei-2014" transform="translate(508.007812 0)"/>
     <use xlink:href="#MicrosoftYaHei-529b" transform="translate(616.015625 0)"/>
     <use xlink:href="#MicrosoftYaHei-505a" transform="translate(716.015625 0)"/>
     <use xlink:href="#MicrosoftYaHei-529f" transform="translate(816.015625 0)"/>
     <use xlink:href="#MicrosoftYaHei-4e0e" transform="translate(916.015625 0)"/>
     <use xlink:href="#MicrosoftYaHei-80fd" transform="translate(1016.015625 0)"/>
     <use xlink:href="#MicrosoftYaHei-91cf" transform="translate(1116.015625 0)"/>
     <use xlink:href="#MicrosoftYaHei-8f6c" transform="translate(1216.015625 0)"/>
     <use xlink:href="#MicrosoftYaHei-5316" transform="translate(1316.015625 0)"/>
    </g>
   </g>
  </g>
 </g>
 <defs>
  <clipPath id="p31aeb2662d">
   <rect x="21.6" y="34.56" width="388.8" height="239.04"/>
  </clipPath>
 </defs>
</svg>
