<?xml version="1.0" encoding="utf-8" standalone="no"?>
<!DOCTYPE svg PUBLIC "-//W3C//DTD SVG 1.1//EN"
  "http://www.w3.org/Graphics/SVG/1.1/DTD/svg11.dtd">
<svg xmlns:xlink="http://www.w3.org/1999/xlink" width="516.202656pt" height="268.759688pt" viewBox="0 0 516.202656 268.759688" xmlns="http://www.w3.org/2000/svg" version="1.1">
 <metadata>
  <rdf:RDF xmlns:dc="http://purl.org/dc/elements/1.1/" xmlns:cc="http://creativecommons.org/ns#" xmlns:rdf="http://www.w3.org/1999/02/22-rdf-syntax-ns#">
   <cc:Work>
    <dc:type rdf:resource="http://purl.org/dc/dcmitype/StillImage"/>
    <dc:date>2026-05-22T22:12:49.119315</dc:date>
    <dc:format>image/svg+xml</dc:format>
    <dc:creator>
     <cc:Agent>
      <dc:title>Matplotlib v3.10.9, https://matplotlib.org/</dc:title>
     </cc:Agent>
    </dc:creator>
   </cc:Work>
  </rdf:RDF>
 </metadata>
 <defs>
  <style type="text/css">*{stroke-linejoin: round; stroke-linecap: butt}</style>
 </defs>
 <g id="figure_1">
  <g id="patch_1">
   <path d="M 0 268.759688 
L 516.202656 268.759688 
L 516.202656 -0 
L 0 -0 
z
" style="fill: #ffffff"/>
  </g>
  <g id="axes_1">
   <g id="patch_2">
    <path d="M 24.390625 244.08 
L 236.070625 244.08 
L 236.070625 32.4 
L 24.390625 32.4 
z
" style="fill: #ffffff"/>
   </g>
   <g id="patch_3">
    <path d="M 227.250625 138.24 
L 221.958625 140.886 
L 221.958625 138.25764 
L 144.342625 138.25764 
L 144.342625 138.22236 
L 221.958625 138.22236 
L 221.958625 135.594 
z
" clip-path="url(#pec2bc49b06)" style="fill: #e74c3c; opacity: 0.7; stroke: #e74c3c; stroke-linejoin: miter"/>
   </g>
   <g id="patch_4">
    <path d="M 219.865417 101.112053 
L 215.988827 105.581799 
L 214.982997 103.153511 
L 143.275163 132.855869 
L 143.261662 132.823274 
L 214.969496 103.120917 
L 213.963666 100.692629 
z
" clip-path="url(#pec2bc49b06)" style="fill: #e74c3c; opacity: 0.7; stroke: #e74c3c; stroke-linejoin: miter"/>
   </g>
   <g id="patch_5">
    <path d="M 198.834125 69.6365 
L 196.96312 75.249514 
L 195.104589 73.390983 
L 140.221789 128.273782 
L 140.196843 128.248836 
L 195.079642 73.366036 
L 193.221111 71.507505 
z
" clip-path="url(#pec2bc49b06)" style="fill: #e74c3c; opacity: 0.7; stroke: #e74c3c; stroke-linejoin: miter"/>
   </g>
   <g id="patch_6">
    <path d="M 167.358572 48.605208 
L 167.777996 54.506959 
L 165.349708 53.501129 
L 135.647351 125.208963 
L 135.614756 125.195462 
L 165.317114 53.487628 
L 162.888826 52.481798 
z
" clip-path="url(#pec2bc49b06)" style="fill: #e74c3c; opacity: 0.7; stroke: #e74c3c; stroke-linejoin: miter"/>
   </g>
   <g id="patch_7">
    <path d="M 130.230625 41.22 
L 132.876625 46.512 
L 130.248265 46.512 
L 130.248265 124.128 
L 130.212985 124.128 
L 130.212985 46.512 
L 127.584625 46.512 
z
" clip-path="url(#pec2bc49b06)" style="fill: #e74c3c; opacity: 0.7; stroke: #e74c3c; stroke-linejoin: miter"/>
   </g>
   <g id="patch_8">
    <path d="M 93.102678 48.605208 
L 97.572424 52.481798 
L 95.144136 53.487628 
L 124.846494 125.195462 
L 124.813899 125.208963 
L 95.111542 53.501129 
L 92.683254 54.506959 
z
" clip-path="url(#pec2bc49b06)" style="fill: #e74c3c; opacity: 0.7; stroke: #e74c3c; stroke-linejoin: miter"/>
   </g>
   <g id="patch_9">
    <path d="M 61.627125 69.6365 
L 67.240139 71.507505 
L 65.381608 73.366036 
L 120.264407 128.248836 
L 120.239461 128.273782 
L 65.356661 73.390983 
L 63.49813 75.249514 
z
" clip-path="url(#pec2bc49b06)" style="fill: #e74c3c; opacity: 0.7; stroke: #e74c3c; stroke-linejoin: miter"/>
   </g>
   <g id="patch_10">
    <path d="M 40.595833 101.112053 
L 46.497584 100.692629 
L 45.491754 103.120917 
L 117.199588 132.823274 
L 117.186087 132.855869 
L 45.478253 103.153511 
L 44.472423 105.581799 
z
" clip-path="url(#pec2bc49b06)" style="fill: #e74c3c; opacity: 0.7; stroke: #e74c3c; stroke-linejoin: miter"/>
   </g>
   <g id="patch_11">
    <path d="M 33.210625 138.24 
L 38.502625 135.594 
L 38.502625 138.22236 
L 116.118625 138.22236 
L 116.118625 138.25764 
L 38.502625 138.25764 
L 38.502625 140.886 
z
" clip-path="url(#pec2bc49b06)" style="fill: #e74c3c; opacity: 0.7; stroke: #e74c3c; stroke-linejoin: miter"/>
   </g>
   <g id="patch_12">
    <path d="M 40.595833 175.367947 
L 44.472423 170.898201 
L 45.478253 173.326489 
L 117.186087 143.624131 
L 117.199588 143.656726 
L 45.491754 173.359083 
L 46.497584 175.787371 
z
" clip-path="url(#pec2bc49b06)" style="fill: #e74c3c; opacity: 0.7; stroke: #e74c3c; stroke-linejoin: miter"/>
   </g>
   <g id="patch_13">
    <path d="M 61.627125 206.8435 
L 63.49813 201.230486 
L 65.356661 203.089017 
L 120.239461 148.206218 
L 120.264407 148.231164 
L 65.381608 203.113964 
L 67.240139 204.972495 
z
" clip-path="url(#pec2bc49b06)" style="fill: #e74c3c; opacity: 0.7; stroke: #e74c3c; stroke-linejoin: miter"/>
   </g>
   <g id="patch_14">
    <path d="M 93.102678 227.874792 
L 92.683254 221.973041 
L 95.111542 222.978871 
L 124.813899 151.271037 
L 124.846494 151.284538 
L 95.144136 222.992372 
L 97.572424 223.998202 
z
" clip-path="url(#pec2bc49b06)" style="fill: #e74c3c; opacity: 0.7; stroke: #e74c3c; stroke-linejoin: miter"/>
   </g>
   <g id="patch_15">
    <path d="M 130.230625 235.26 
L 127.584625 229.968 
L 130.212985 229.968 
L 130.212985 152.352 
L 130.248265 152.352 
L 130.248265 229.968 
L 132.876625 229.968 
z
" clip-path="url(#pec2bc49b06)" style="fill: #e74c3c; opacity: 0.7; stroke: #e74c3c; stroke-linejoin: miter"/>
   </g>
   <g id="patch_16">
    <path d="M 167.358572 227.874792 
L 162.888826 223.998202 
L 165.317114 222.992372 
L 135.614756 151.284538 
L 135.647351 151.271037 
L 165.349708 222.978871 
L 167.777996 221.973041 
z
" clip-path="url(#pec2bc49b06)" style="fill: #e74c3c; opacity: 0.7; stroke: #e74c3c; stroke-linejoin: miter"/>
   </g>
   <g id="patch_17">
    <path d="M 198.834125 206.8435 
L 193.221111 204.972495 
L 195.079642 203.113964 
L 140.196843 148.231164 
L 140.221789 148.206218 
L 195.104589 203.089017 
L 196.96312 201.230486 
z
" clip-path="url(#pec2bc49b06)" style="fill: #e74c3c; opacity: 0.7; stroke: #e74c3c; stroke-linejoin: miter"/>
   </g>
   <g id="patch_18">
    <path d="M 219.865417 175.367947 
L 213.963666 175.787371 
L 214.969496 173.359083 
L 143.261662 143.656726 
L 143.275163 143.624131 
L 214.982997 173.326489 
L 215.988827 170.898201 
z
" clip-path="url(#pec2bc49b06)" style="fill: #e74c3c; opacity: 0.7; stroke: #e74c3c; stroke-linejoin: miter"/>
   </g>
   <g id="matplotlib.axis_1">
    <g id="xtick_1">
     <g id="line2d_1">
      <path d="M 24.390625 244.08 
L 24.390625 32.4 
" clip-path="url(#pec2bc49b06)" style="fill: none; stroke: #b0b0b0; stroke-opacity: 0.15; stroke-width: 0.8; stroke-linecap: square"/>
     </g>
     <g id="line2d_2">
      <defs>
       <path id="m4d0c9b3a07" d="M 0 0 
L 0 3.5 
" style="stroke: #000000; stroke-width: 0.8"/>
      </defs>
      <g>
       <use xlink:href="#m4d0c9b3a07" x="24.390625" y="244.08" style="stroke: #000000; stroke-width: 0.8"/>
      </g>
     </g>
     <g id="text_1">
      <!-- -3 -->
      <g transform="translate(19.295313 259.07375) scale(0.1 -0.1)">
       <defs>
        <path id="MicrosoftYaHei-2d" d="M 2328 1681 
L 488 1681 
L 488 2153 
L 2328 2153 
L 2328 1681 
z
" transform="scale(0.015625)"/>
        <path id="MicrosoftYaHei-33" d="M 447 809 
Q 944 425 1569 425 
Q 2069 425 2361 670 
Q 2653 916 2653 1328 
Q 2653 2247 1338 2247 
L 934 2247 
L 934 2753 
L 1319 2753 
Q 2484 2753 2484 3616 
Q 2484 4413 1594 4413 
Q 1084 4413 634 4069 
L 634 4647 
Q 1109 4922 1744 4922 
Q 2363 4922 2738 4598 
Q 3113 4275 3113 3759 
Q 3113 2809 2144 2538 
L 2144 2525 
Q 2669 2469 2973 2155 
Q 3278 1841 3278 1372 
Q 3278 719 2808 319 
Q 2338 -81 1556 -81 
Q 869 -81 447 175 
L 447 809 
z
" transform="scale(0.015625)"/>
       </defs>
       <use xlink:href="#MicrosoftYaHei-2d"/>
       <use xlink:href="#MicrosoftYaHei-33" transform="translate(43.261719 0)"/>
      </g>
     </g>
    </g>
    <g id="xtick_2">
     <g id="line2d_3">
      <path d="M 59.670625 244.08 
L 59.670625 32.4 
" clip-path="url(#pec2bc49b06)" style="fill: none; stroke: #b0b0b0; stroke-opacity: 0.15; stroke-width: 0.8; stroke-linecap: square"/>
     </g>
     <g id="line2d_4">
      <g>
       <use xlink:href="#m4d0c9b3a07" x="59.670625" y="244.08" style="stroke: #000000; stroke-width: 0.8"/>
      </g>
     </g>
     <g id="text_2">
      <!-- -2 -->
      <g transform="translate(54.575313 259.07375) scale(0.1 -0.1)">
       <defs>
        <path id="MicrosoftYaHei-32" d="M 2666 3572 
Q 2666 3963 2419 4186 
Q 2172 4409 1747 4409 
Q 1447 4409 1140 4256 
Q 834 4103 569 3819 
L 569 4413 
Q 806 4659 1107 4790 
Q 1409 4922 1816 4922 
Q 2472 4922 2872 4570 
Q 3272 4219 3272 3619 
Q 3272 3084 3026 2693 
Q 2781 2303 2188 1894 
Q 1581 1475 1376 1294 
Q 1172 1113 1090 947 
Q 1009 781 1009 544 
L 3416 544 
L 3416 0 
L 372 0 
L 372 241 
Q 372 659 486 951 
Q 600 1244 862 1520 
Q 1125 1797 1681 2184 
Q 2250 2584 2458 2886 
Q 2666 3188 2666 3572 
z
" transform="scale(0.015625)"/>
       </defs>
       <use xlink:href="#MicrosoftYaHei-2d"/>
       <use xlink:href="#MicrosoftYaHei-32" transform="translate(43.261719 0)"/>
      </g>
     </g>
    </g>
    <g id="xtick_3">
     <g id="line2d_5">
      <path d="M 94.950625 244.08 
L 94.950625 32.4 
" clip-path="url(#pec2bc49b06)" style="fill: none; stroke: #b0b0b0; stroke-opacity: 0.15; stroke-width: 0.8; stroke-linecap: square"/>
     </g>
     <g id="line2d_6">
      <g>
       <use xlink:href="#m4d0c9b3a07" x="94.950625" y="244.08" style="stroke: #000000; stroke-width: 0.8"/>
      </g>
     </g>
     <g id="text_3">
      <!-- -1 -->
      <g transform="translate(89.855313 259.07375) scale(0.1 -0.1)">
       <defs>
        <path id="MicrosoftYaHei-31" d="M 1781 0 
L 1781 4141 
Q 1638 3997 1295 3819 
Q 953 3641 663 3569 
L 663 4169 
Q 1047 4275 1484 4508 
Q 1922 4741 2156 4947 
L 2388 4947 
L 2388 0 
L 1781 0 
z
" transform="scale(0.015625)"/>
       </defs>
       <use xlink:href="#MicrosoftYaHei-2d"/>
       <use xlink:href="#MicrosoftYaHei-31" transform="translate(43.261719 0)"/>
      </g>
     </g>
    </g>
    <g id="xtick_4">
     <g id="line2d_7">
      <path d="M 130.230625 244.08 
L 130.230625 32.4 
" clip-path="url(#pec2bc49b06)" style="fill: none; stroke: #b0b0b0; stroke-opacity: 0.15; stroke-width: 0.8; stroke-linecap: square"/>
     </g>
     <g id="line2d_8">
      <g>
       <use xlink:href="#m4d0c9b3a07" x="130.230625" y="244.08" style="stroke: #000000; stroke-width: 0.8"/>
      </g>
     </g>
     <g id="text_4">
      <!-- 0 -->
      <g transform="translate(127.298594 259.07375) scale(0.1 -0.1)">
       <defs>
        <path id="MicrosoftYaHei-30" d="M 284 2325 
Q 284 3606 709 4264 
Q 1134 4922 1941 4922 
Q 3478 4922 3478 2441 
Q 3478 1216 3045 567 
Q 2613 -81 1831 -81 
Q 1094 -81 689 534 
Q 284 1150 284 2325 
z
M 909 2353 
Q 909 425 1888 425 
Q 2850 425 2850 2384 
Q 2850 4413 1906 4413 
Q 909 4413 909 2353 
z
" transform="scale(0.015625)"/>
       </defs>
       <use xlink:href="#MicrosoftYaHei-30"/>
      </g>
     </g>
    </g>
    <g id="xtick_5">
     <g id="line2d_9">
      <path d="M 165.510625 244.08 
L 165.510625 32.4 
" clip-path="url(#pec2bc49b06)" style="fill: none; stroke: #b0b0b0; stroke-opacity: 0.15; stroke-width: 0.8; stroke-linecap: square"/>
     </g>
     <g id="line2d_10">
      <g>
       <use xlink:href="#m4d0c9b3a07" x="165.510625" y="244.08" style="stroke: #000000; stroke-width: 0.8"/>
      </g>
     </g>
     <g id="text_5">
      <!-- 1 -->
      <g transform="translate(162.578594 259.07375) scale(0.1 -0.1)">
       <use xlink:href="#MicrosoftYaHei-31"/>
      </g>
     </g>
    </g>
    <g id="xtick_6">
     <g id="line2d_11">
      <path d="M 200.790625 244.08 
L 200.790625 32.4 
" clip-path="url(#pec2bc49b06)" style="fill: none; stroke: #b0b0b0; stroke-opacity: 0.15; stroke-width: 0.8; stroke-linecap: square"/>
     </g>
     <g id="line2d_12">
      <g>
       <use xlink:href="#m4d0c9b3a07" x="200.790625" y="244.08" style="stroke: #000000; stroke-width: 0.8"/>
      </g>
     </g>
     <g id="text_6">
      <!-- 2 -->
      <g transform="translate(197.858594 259.07375) scale(0.1 -0.1)">
       <use xlink:href="#MicrosoftYaHei-32"/>
      </g>
     </g>
    </g>
    <g id="xtick_7">
     <g id="line2d_13">
      <path d="M 236.070625 244.08 
L 236.070625 32.4 
" clip-path="url(#pec2bc49b06)" style="fill: none; stroke: #b0b0b0; stroke-opacity: 0.15; stroke-width: 0.8; stroke-linecap: square"/>
     </g>
     <g id="line2d_14">
      <g>
       <use xlink:href="#m4d0c9b3a07" x="236.070625" y="244.08" style="stroke: #000000; stroke-width: 0.8"/>
      </g>
     </g>
     <g id="text_7">
      <!-- 3 -->
      <g transform="translate(233.138594 259.07375) scale(0.1 -0.1)">
       <use xlink:href="#MicrosoftYaHei-33"/>
      </g>
     </g>
    </g>
   </g>
   <g id="matplotlib.axis_2">
    <g id="ytick_1">
     <g id="line2d_15">
      <path d="M 24.390625 244.08 
L 236.070625 244.08 
" clip-path="url(#pec2bc49b06)" style="fill: none; stroke: #b0b0b0; stroke-opacity: 0.15; stroke-width: 0.8; stroke-linecap: square"/>
     </g>
     <g id="line2d_16">
      <defs>
       <path id="m4323b71876" d="M 0 0 
L -3.5 0 
" style="stroke: #000000; stroke-width: 0.8"/>
      </defs>
      <g>
       <use xlink:href="#m4323b71876" x="24.390625" y="244.08" style="stroke: #000000; stroke-width: 0.8"/>
      </g>
     </g>
     <g id="text_8">
      <!-- -3 -->
      <g transform="translate(7.2 248.076875) scale(0.1 -0.1)">
       <use xlink:href="#MicrosoftYaHei-2d"/>
       <use xlink:href="#MicrosoftYaHei-33" transform="translate(43.261719 0)"/>
      </g>
     </g>
    </g>
    <g id="ytick_2">
     <g id="line2d_17">
      <path d="M 24.390625 208.8 
L 236.070625 208.8 
" clip-path="url(#pec2bc49b06)" style="fill: none; stroke: #b0b0b0; stroke-opacity: 0.15; stroke-width: 0.8; stroke-linecap: square"/>
     </g>
     <g id="line2d_18">
      <g>
       <use xlink:href="#m4323b71876" x="24.390625" y="208.8" style="stroke: #000000; stroke-width: 0.8"/>
      </g>
     </g>
     <g id="text_9">
      <!-- -2 -->
      <g transform="translate(7.2 212.796875) scale(0.1 -0.1)">
       <use xlink:href="#MicrosoftYaHei-2d"/>
       <use xlink:href="#MicrosoftYaHei-32" transform="translate(43.261719 0)"/>
      </g>
     </g>
    </g>
    <g id="ytick_3">
     <g id="line2d_19">
      <path d="M 24.390625 173.52 
L 236.070625 173.52 
" clip-path="url(#pec2bc49b06)" style="fill: none; stroke: #b0b0b0; stroke-opacity: 0.15; stroke-width: 0.8; stroke-linecap: square"/>
     </g>
     <g id="line2d_20">
      <g>
       <use xlink:href="#m4323b71876" x="24.390625" y="173.52" style="stroke: #000000; stroke-width: 0.8"/>
      </g>
     </g>
     <g id="text_10">
      <!-- -1 -->
      <g transform="translate(7.2 177.516875) scale(0.1 -0.1)">
       <use xlink:href="#MicrosoftYaHei-2d"/>
       <use xlink:href="#MicrosoftYaHei-31" transform="translate(43.261719 0)"/>
      </g>
     </g>
    </g>
    <g id="ytick_4">
     <g id="line2d_21">
      <path d="M 24.390625 138.24 
L 236.070625 138.24 
" clip-path="url(#pec2bc49b06)" style="fill: none; stroke: #b0b0b0; stroke-opacity: 0.15; stroke-width: 0.8; stroke-linecap: square"/>
     </g>
     <g id="line2d_22">
      <g>
       <use xlink:href="#m4323b71876" x="24.390625" y="138.24" style="stroke: #000000; stroke-width: 0.8"/>
      </g>
     </g>
     <g id="text_11">
      <!-- 0 -->
      <g transform="translate(11.526563 142.236875) scale(0.1 -0.1)">
       <use xlink:href="#MicrosoftYaHei-30"/>
      </g>
     </g>
    </g>
    <g id="ytick_5">
     <g id="line2d_23">
      <path d="M 24.390625 102.96 
L 236.070625 102.96 
" clip-path="url(#pec2bc49b06)" style="fill: none; stroke: #b0b0b0; stroke-opacity: 0.15; stroke-width: 0.8; stroke-linecap: square"/>
     </g>
     <g id="line2d_24">
      <g>
       <use xlink:href="#m4323b71876" x="24.390625" y="102.96" style="stroke: #000000; stroke-width: 0.8"/>
      </g>
     </g>
     <g id="text_12">
      <!-- 1 -->
      <g transform="translate(11.526563 106.956875) scale(0.1 -0.1)">
       <use xlink:href="#MicrosoftYaHei-31"/>
      </g>
     </g>
    </g>
    <g id="ytick_6">
     <g id="line2d_25">
      <path d="M 24.390625 67.68 
L 236.070625 67.68 
" clip-path="url(#pec2bc49b06)" style="fill: none; stroke: #b0b0b0; stroke-opacity: 0.15; stroke-width: 0.8; stroke-linecap: square"/>
     </g>
     <g id="line2d_26">
      <g>
       <use xlink:href="#m4323b71876" x="24.390625" y="67.68" style="stroke: #000000; stroke-width: 0.8"/>
      </g>
     </g>
     <g id="text_13">
      <!-- 2 -->
      <g transform="translate(11.526563 71.676875) scale(0.1 -0.1)">
       <use xlink:href="#MicrosoftYaHei-32"/>
      </g>
     </g>
    </g>
    <g id="ytick_7">
     <g id="line2d_27">
      <path d="M 24.390625 32.4 
L 236.070625 32.4 
" clip-path="url(#pec2bc49b06)" style="fill: none; stroke: #b0b0b0; stroke-opacity: 0.15; stroke-width: 0.8; stroke-linecap: square"/>
     </g>
     <g id="line2d_28">
      <g>
       <use xlink:href="#m4323b71876" x="24.390625" y="32.4" style="stroke: #000000; stroke-width: 0.8"/>
      </g>
     </g>
     <g id="text_14">
      <!-- 3 -->
      <g transform="translate(11.526563 36.396875) scale(0.1 -0.1)">
       <use xlink:href="#MicrosoftYaHei-33"/>
      </g>
     </g>
    </g>
   </g>
   <g id="line2d_29">
    <path d="M 24.390625 138.24 
L 236.070625 138.24 
" clip-path="url(#pec2bc49b06)" style="fill: none; stroke: #808080; stroke-width: 0.3; stroke-linecap: square"/>
   </g>
   <g id="line2d_30">
    <path d="M 130.230625 244.08 
L 130.230625 32.4 
" clip-path="url(#pec2bc49b06)" style="fill: none; stroke: #808080; stroke-width: 0.3; stroke-linecap: square"/>
   </g>
   <g id="patch_19">
    <path d="M 24.390625 244.08 
L 24.390625 32.4 
" style="fill: none; stroke: #000000; stroke-width: 0.8; stroke-linejoin: miter; stroke-linecap: square"/>
   </g>
   <g id="patch_20">
    <path d="M 236.070625 244.08 
L 236.070625 32.4 
" style="fill: none; stroke: #000000; stroke-width: 0.8; stroke-linejoin: miter; stroke-linecap: square"/>
   </g>
   <g id="patch_21">
    <path d="M 24.390625 244.08 
L 236.070625 244.08 
" style="fill: none; stroke: #000000; stroke-width: 0.8; stroke-linejoin: miter; stroke-linecap: square"/>
   </g>
   <g id="patch_22">
    <path d="M 24.390625 32.4 
L 236.070625 32.4 
" style="fill: none; stroke: #000000; stroke-width: 0.8; stroke-linejoin: miter; stroke-linecap: square"/>
   </g>
   <g id="text_15">
    <!-- 正点电荷 -->
    <g style="fill: #1a1a2e" transform="translate(106.230625 26.4) scale(0.12 -0.12)">
     <defs>
      <path id="MicrosoftYaHei-6b63" d="M 88 66 
L 1106 66 
L 1106 3416 
L 1644 3416 
L 1644 66 
L 3231 66 
L 3231 4309 
L 375 4309 
L 375 4797 
L 6063 4797 
L 6063 4309 
L 3769 4309 
L 3769 2672 
L 5850 2672 
L 5850 2191 
L 3769 2191 
L 3769 66 
L 6313 66 
L 6313 -422 
L 88 -422 
L 88 66 
z
" transform="scale(0.015625)"/>
      <path id="MicrosoftYaHei-70b9" d="M 900 3378 
L 2863 3378 
L 2863 5341 
L 3388 5341 
L 3388 4591 
L 6181 4591 
L 6181 4141 
L 3388 4141 
L 3388 3378 
L 5600 3378 
L 5600 991 
L 5088 991 
L 5088 1253 
L 1413 1253 
L 1413 991 
L 900 991 
L 900 3378 
z
M 5088 2928 
L 1413 2928 
L 1413 1703 
L 5088 1703 
L 5088 2928 
z
M 5425 847 
Q 5925 91 6225 -516 
L 5750 -772 
Q 5438 -134 4994 622 
L 5425 847 
z
M 1369 553 
Q 894 -303 531 -791 
L 100 -484 
Q 506 53 931 803 
L 1369 553 
z
M 2413 828 
Q 2700 197 2913 -503 
L 2406 -678 
Q 2213 3 1963 666 
L 2413 828 
z
M 3906 872 
Q 4206 253 4450 -422 
L 3956 -616 
Q 3781 -53 3450 697 
L 3906 872 
z
" transform="scale(0.015625)"/>
      <path id="MicrosoftYaHei-7535" d="M 406 4497 
L 2713 4497 
L 2713 5297 
L 3231 5297 
L 3231 4497 
L 5544 4497 
L 5544 984 
L 3231 984 
L 3231 253 
Q 3231 -128 3631 -128 
L 5094 -128 
Q 5519 -128 5613 153 
Q 5713 459 5756 1034 
Q 5938 953 6275 841 
Q 6200 341 6106 -16 
Q 5950 -603 5256 -603 
L 3594 -603 
Q 2713 -603 2713 259 
L 2713 984 
L 925 984 
L 925 553 
L 406 553 
L 406 4497 
z
M 5025 1453 
L 5025 2522 
L 3231 2522 
L 3231 1453 
L 5025 1453 
z
M 925 1453 
L 2713 1453 
L 2713 2522 
L 925 2522 
L 925 1453 
z
M 5025 4028 
L 3231 4028 
L 3231 2966 
L 5025 2966 
L 5025 4028 
z
M 925 2966 
L 2713 2966 
L 2713 4028 
L 925 4028 
L 925 2966 
z
" transform="scale(0.015625)"/>
      <path id="MicrosoftYaHei-8377" d="M 2175 3503 
L 6231 3503 
L 6231 3066 
L 5556 3066 
L 5556 116 
Q 5556 -716 4744 -716 
L 3856 -716 
Q 3831 -528 3744 -197 
Q 4238 -241 4619 -241 
Q 5069 -241 5069 241 
L 5069 3066 
L 2175 3066 
L 2175 3503 
z
M 2350 2422 
L 4350 2422 
L 4350 541 
L 2813 541 
L 2813 209 
L 2350 209 
L 2350 2422 
z
M 219 4728 
L 1975 4728 
L 1975 5328 
L 2463 5328 
L 2463 4728 
L 4013 4728 
L 4013 5328 
L 4500 5328 
L 4500 4728 
L 6275 4728 
L 6275 4278 
L 4500 4278 
L 4500 3828 
L 4013 3828 
L 4013 4278 
L 2463 4278 
L 2463 3859 
L 1975 3859 
L 1975 4278 
L 219 4278 
L 219 4728 
z
M 69 1653 
Q 1006 2628 1538 3847 
L 2006 3659 
Q 1759 3169 1506 2744 
L 1506 -797 
L 1019 -797 
L 1019 2006 
Q 688 1553 344 1209 
Q 225 1409 69 1653 
z
M 3888 966 
L 3888 1997 
L 2813 1997 
L 2813 966 
L 3888 966 
z
" transform="scale(0.015625)"/>
     </defs>
     <use xlink:href="#MicrosoftYaHei-6b63"/>
     <use xlink:href="#MicrosoftYaHei-70b9" transform="translate(100 0)"/>
     <use xlink:href="#MicrosoftYaHei-7535" transform="translate(200 0)"/>
     <use xlink:href="#MicrosoftYaHei-8377" transform="translate(300 0)"/>
    </g>
   </g>
   <g id="PathCollection_1">
    <defs>
     <path id="m37b5a20cc3" d="M 0 5.477226 
C 1.452577 5.477226 2.845856 4.900111 3.872983 3.872983 
C 4.900111 2.845856 5.477226 1.452577 5.477226 0 
C 5.477226 -1.452577 4.900111 -2.845856 3.872983 -3.872983 
C 2.845856 -4.900111 1.452577 -5.477226 0 -5.477226 
C -1.452577 -5.477226 -2.845856 -4.900111 -3.872983 -3.872983 
C -4.900111 -2.845856 -5.477226 -1.452577 -5.477226 0 
C -5.477226 1.452577 -4.900111 2.845856 -3.872983 3.872983 
C -2.845856 4.900111 -1.452577 5.477226 0 5.477226 
z
" style="stroke: #ff0000"/>
    </defs>
    <g clip-path="url(#pec2bc49b06)">
     <use xlink:href="#m37b5a20cc3" x="130.230625" y="138.24" style="fill: #ff0000; stroke: #ff0000"/>
    </g>
   </g>
   <g id="text_16">
    <!-- + -->
    <g style="fill: #ffffff" transform="translate(133.758625 148.824) scale(0.16 -0.16)">
     <defs>
      <path id="MicrosoftYaHei-Bold-2b" d="M 4072 1653 
L 2766 1653 
L 2766 347 
L 2109 347 
L 2109 1653 
L 797 1653 
L 797 2313 
L 2109 2313 
L 2109 3625 
L 2766 3625 
L 2766 2313 
L 4072 2313 
L 4072 1653 
z
" transform="scale(0.015625)"/>
     </defs>
     <use xlink:href="#MicrosoftYaHei-Bold-2b"/>
    </g>
   </g>
  </g>
  <g id="axes_2">
   <g id="patch_23">
    <path d="M 294.390625 244.08 
L 506.070625 244.08 
L 506.070625 32.4 
L 294.390625 32.4 
z
" style="fill: #ffffff"/>
   </g>
   <g id="patch_24">
    <path d="M 303.210625 138.24 
L 308.502625 135.594 
L 308.502625 138.22236 
L 386.118625 138.22236 
L 386.118625 138.25764 
L 308.502625 138.25764 
L 308.502625 140.886 
z
" clip-path="url(#p93659034fe)" style="fill: #3498db; opacity: 0.7; stroke: #3498db; stroke-linejoin: miter"/>
   </g>
   <g id="patch_25">
    <path d="M 310.595833 175.367947 
L 314.472423 170.898201 
L 315.478253 173.326489 
L 387.186087 143.624131 
L 387.199588 143.656726 
L 315.491754 173.359083 
L 316.497584 175.787371 
z
" clip-path="url(#p93659034fe)" style="fill: #3498db; opacity: 0.7; stroke: #3498db; stroke-linejoin: miter"/>
   </g>
   <g id="patch_26">
    <path d="M 331.627125 206.8435 
L 333.49813 201.230486 
L 335.356661 203.089017 
L 390.239461 148.206218 
L 390.264407 148.231164 
L 335.381608 203.113964 
L 337.240139 204.972495 
z
" clip-path="url(#p93659034fe)" style="fill: #3498db; opacity: 0.7; stroke: #3498db; stroke-linejoin: miter"/>
   </g>
   <g id="patch_27">
    <path d="M 363.102678 227.874792 
L 362.683254 221.973041 
L 365.111542 222.978871 
L 394.813899 151.271037 
L 394.846494 151.284538 
L 365.144136 222.992372 
L 367.572424 223.998202 
z
" clip-path="url(#p93659034fe)" style="fill: #3498db; opacity: 0.7; stroke: #3498db; stroke-linejoin: miter"/>
   </g>
   <g id="patch_28">
    <path d="M 400.230625 235.26 
L 397.584625 229.968 
L 400.212985 229.968 
L 400.212985 152.352 
L 400.248265 152.352 
L 400.248265 229.968 
L 402.876625 229.968 
z
" clip-path="url(#p93659034fe)" style="fill: #3498db; opacity: 0.7; stroke: #3498db; stroke-linejoin: miter"/>
   </g>
   <g id="patch_29">
    <path d="M 437.358572 227.874792 
L 432.888826 223.998202 
L 435.317114 222.992372 
L 405.614756 151.284538 
L 405.647351 151.271037 
L 435.349708 222.978871 
L 437.777996 221.973041 
z
" clip-path="url(#p93659034fe)" style="fill: #3498db; opacity: 0.7; stroke: #3498db; stroke-linejoin: miter"/>
   </g>
   <g id="patch_30">
    <path d="M 468.834125 206.8435 
L 463.221111 204.972495 
L 465.079642 203.113964 
L 410.196843 148.231164 
L 410.221789 148.206218 
L 465.104589 203.089017 
L 466.96312 201.230486 
z
" clip-path="url(#p93659034fe)" style="fill: #3498db; opacity: 0.7; stroke: #3498db; stroke-linejoin: miter"/>
   </g>
   <g id="patch_31">
    <path d="M 489.865417 175.367947 
L 483.963666 175.787371 
L 484.969496 173.359083 
L 413.261662 143.656726 
L 413.275163 143.624131 
L 484.982997 173.326489 
L 485.988827 170.898201 
z
" clip-path="url(#p93659034fe)" style="fill: #3498db; opacity: 0.7; stroke: #3498db; stroke-linejoin: miter"/>
   </g>
   <g id="patch_32">
    <path d="M 497.250625 138.24 
L 491.958625 140.886 
L 491.958625 138.25764 
L 414.342625 138.25764 
L 414.342625 138.22236 
L 491.958625 138.22236 
L 491.958625 135.594 
z
" clip-path="url(#p93659034fe)" style="fill: #3498db; opacity: 0.7; stroke: #3498db; stroke-linejoin: miter"/>
   </g>
   <g id="patch_33">
    <path d="M 489.865417 101.112053 
L 485.988827 105.581799 
L 484.982997 103.153511 
L 413.275163 132.855869 
L 413.261662 132.823274 
L 484.969496 103.120917 
L 483.963666 100.692629 
z
" clip-path="url(#p93659034fe)" style="fill: #3498db; opacity: 0.7; stroke: #3498db; stroke-linejoin: miter"/>
   </g>
   <g id="patch_34">
    <path d="M 468.834125 69.6365 
L 466.96312 75.249514 
L 465.104589 73.390983 
L 410.221789 128.273782 
L 410.196843 128.248836 
L 465.079642 73.366036 
L 463.221111 71.507505 
z
" clip-path="url(#p93659034fe)" style="fill: #3498db; opacity: 0.7; stroke: #3498db; stroke-linejoin: miter"/>
   </g>
   <g id="patch_35">
    <path d="M 437.358572 48.605208 
L 437.777996 54.506959 
L 435.349708 53.501129 
L 405.647351 125.208963 
L 405.614756 125.195462 
L 435.317114 53.487628 
L 432.888826 52.481798 
z
" clip-path="url(#p93659034fe)" style="fill: #3498db; opacity: 0.7; stroke: #3498db; stroke-linejoin: miter"/>
   </g>
   <g id="patch_36">
    <path d="M 400.230625 41.22 
L 402.876625 46.512 
L 400.248265 46.512 
L 400.248265 124.128 
L 400.212985 124.128 
L 400.212985 46.512 
L 397.584625 46.512 
z
" clip-path="url(#p93659034fe)" style="fill: #3498db; opacity: 0.7; stroke: #3498db; stroke-linejoin: miter"/>
   </g>
   <g id="patch_37">
    <path d="M 363.102678 48.605208 
L 367.572424 52.481798 
L 365.144136 53.487628 
L 394.846494 125.195462 
L 394.813899 125.208963 
L 365.111542 53.501129 
L 362.683254 54.506959 
z
" clip-path="url(#p93659034fe)" style="fill: #3498db; opacity: 0.7; stroke: #3498db; stroke-linejoin: miter"/>
   </g>
   <g id="patch_38">
    <path d="M 331.627125 69.6365 
L 337.240139 71.507505 
L 335.381608 73.366036 
L 390.264407 128.248836 
L 390.239461 128.273782 
L 335.356661 73.390983 
L 333.49813 75.249514 
z
" clip-path="url(#p93659034fe)" style="fill: #3498db; opacity: 0.7; stroke: #3498db; stroke-linejoin: miter"/>
   </g>
   <g id="patch_39">
    <path d="M 310.595833 101.112053 
L 316.497584 100.692629 
L 315.491754 103.120917 
L 387.199588 132.823274 
L 387.186087 132.855869 
L 315.478253 103.153511 
L 314.472423 105.581799 
z
" clip-path="url(#p93659034fe)" style="fill: #3498db; opacity: 0.7; stroke: #3498db; stroke-linejoin: miter"/>
   </g>
   <g id="matplotlib.axis_3">
    <g id="xtick_8">
     <g id="line2d_31">
      <path d="M 294.390625 244.08 
L 294.390625 32.4 
" clip-path="url(#p93659034fe)" style="fill: none; stroke: #b0b0b0; stroke-opacity: 0.15; stroke-width: 0.8; stroke-linecap: square"/>
     </g>
     <g id="line2d_32">
      <g>
       <use xlink:href="#m4d0c9b3a07" x="294.390625" y="244.08" style="stroke: #000000; stroke-width: 0.8"/>
      </g>
     </g>
     <g id="text_17">
      <!-- -3 -->
      <g transform="translate(289.295313 259.07375) scale(0.1 -0.1)">
       <use xlink:href="#MicrosoftYaHei-2d"/>
       <use xlink:href="#MicrosoftYaHei-33" transform="translate(43.261719 0)"/>
      </g>
     </g>
    </g>
    <g id="xtick_9">
     <g id="line2d_33">
      <path d="M 329.670625 244.08 
L 329.670625 32.4 
" clip-path="url(#p93659034fe)" style="fill: none; stroke: #b0b0b0; stroke-opacity: 0.15; stroke-width: 0.8; stroke-linecap: square"/>
     </g>
     <g id="line2d_34">
      <g>
       <use xlink:href="#m4d0c9b3a07" x="329.670625" y="244.08" style="stroke: #000000; stroke-width: 0.8"/>
      </g>
     </g>
     <g id="text_18">
      <!-- -2 -->
      <g transform="translate(324.575313 259.07375) scale(0.1 -0.1)">
       <use xlink:href="#MicrosoftYaHei-2d"/>
       <use xlink:href="#MicrosoftYaHei-32" transform="translate(43.261719 0)"/>
      </g>
     </g>
    </g>
    <g id="xtick_10">
     <g id="line2d_35">
      <path d="M 364.950625 244.08 
L 364.950625 32.4 
" clip-path="url(#p93659034fe)" style="fill: none; stroke: #b0b0b0; stroke-opacity: 0.15; stroke-width: 0.8; stroke-linecap: square"/>
     </g>
     <g id="line2d_36">
      <g>
       <use xlink:href="#m4d0c9b3a07" x="364.950625" y="244.08" style="stroke: #000000; stroke-width: 0.8"/>
      </g>
     </g>
     <g id="text_19">
      <!-- -1 -->
      <g transform="translate(359.855313 259.07375) scale(0.1 -0.1)">
       <use xlink:href="#MicrosoftYaHei-2d"/>
       <use xlink:href="#MicrosoftYaHei-31" transform="translate(43.261719 0)"/>
      </g>
     </g>
    </g>
    <g id="xtick_11">
     <g id="line2d_37">
      <path d="M 400.230625 244.08 
L 400.230625 32.4 
" clip-path="url(#p93659034fe)" style="fill: none; stroke: #b0b0b0; stroke-opacity: 0.15; stroke-width: 0.8; stroke-linecap: square"/>
     </g>
     <g id="line2d_38">
      <g>
       <use xlink:href="#m4d0c9b3a07" x="400.230625" y="244.08" style="stroke: #000000; stroke-width: 0.8"/>
      </g>
     </g>
     <g id="text_20">
      <!-- 0 -->
      <g transform="translate(397.298594 259.07375) scale(0.1 -0.1)">
       <use xlink:href="#MicrosoftYaHei-30"/>
      </g>
     </g>
    </g>
    <g id="xtick_12">
     <g id="line2d_39">
      <path d="M 435.510625 244.08 
L 435.510625 32.4 
" clip-path="url(#p93659034fe)" style="fill: none; stroke: #b0b0b0; stroke-opacity: 0.15; stroke-width: 0.8; stroke-linecap: square"/>
     </g>
     <g id="line2d_40">
      <g>
       <use xlink:href="#m4d0c9b3a07" x="435.510625" y="244.08" style="stroke: #000000; stroke-width: 0.8"/>
      </g>
     </g>
     <g id="text_21">
      <!-- 1 -->
      <g transform="translate(432.578594 259.07375) scale(0.1 -0.1)">
       <use xlink:href="#MicrosoftYaHei-31"/>
      </g>
     </g>
    </g>
    <g id="xtick_13">
     <g id="line2d_41">
      <path d="M 470.790625 244.08 
L 470.790625 32.4 
" clip-path="url(#p93659034fe)" style="fill: none; stroke: #b0b0b0; stroke-opacity: 0.15; stroke-width: 0.8; stroke-linecap: square"/>
     </g>
     <g id="line2d_42">
      <g>
       <use xlink:href="#m4d0c9b3a07" x="470.790625" y="244.08" style="stroke: #000000; stroke-width: 0.8"/>
      </g>
     </g>
     <g id="text_22">
      <!-- 2 -->
      <g transform="translate(467.858594 259.07375) scale(0.1 -0.1)">
       <use xlink:href="#MicrosoftYaHei-32"/>
      </g>
     </g>
    </g>
    <g id="xtick_14">
     <g id="line2d_43">
      <path d="M 506.070625 244.08 
L 506.070625 32.4 
" clip-path="url(#p93659034fe)" style="fill: none; stroke: #b0b0b0; stroke-opacity: 0.15; stroke-width: 0.8; stroke-linecap: square"/>
     </g>
     <g id="line2d_44">
      <g>
       <use xlink:href="#m4d0c9b3a07" x="506.070625" y="244.08" style="stroke: #000000; stroke-width: 0.8"/>
      </g>
     </g>
     <g id="text_23">
      <!-- 3 -->
      <g transform="translate(503.138594 259.07375) scale(0.1 -0.1)">
       <use xlink:href="#MicrosoftYaHei-33"/>
      </g>
     </g>
    </g>
   </g>
   <g id="matplotlib.axis_4">
    <g id="ytick_8">
     <g id="line2d_45">
      <path d="M 294.390625 244.08 
L 506.070625 244.08 
" clip-path="url(#p93659034fe)" style="fill: none; stroke: #b0b0b0; stroke-opacity: 0.15; stroke-width: 0.8; stroke-linecap: square"/>
     </g>
     <g id="line2d_46">
      <g>
       <use xlink:href="#m4323b71876" x="294.390625" y="244.08" style="stroke: #000000; stroke-width: 0.8"/>
      </g>
     </g>
     <g id="text_24">
      <!-- -3 -->
      <g transform="translate(277.2 248.076875) scale(0.1 -0.1)">
       <use xlink:href="#MicrosoftYaHei-2d"/>
       <use xlink:href="#MicrosoftYaHei-33" transform="translate(43.261719 0)"/>
      </g>
     </g>
    </g>
    <g id="ytick_9">
     <g id="line2d_47">
      <path d="M 294.390625 208.8 
L 506.070625 208.8 
" clip-path="url(#p93659034fe)" style="fill: none; stroke: #b0b0b0; stroke-opacity: 0.15; stroke-width: 0.8; stroke-linecap: square"/>
     </g>
     <g id="line2d_48">
      <g>
       <use xlink:href="#m4323b71876" x="294.390625" y="208.8" style="stroke: #000000; stroke-width: 0.8"/>
      </g>
     </g>
     <g id="text_25">
      <!-- -2 -->
      <g transform="translate(277.2 212.796875) scale(0.1 -0.1)">
       <use xlink:href="#MicrosoftYaHei-2d"/>
       <use xlink:href="#MicrosoftYaHei-32" transform="translate(43.261719 0)"/>
      </g>
     </g>
    </g>
    <g id="ytick_10">
     <g id="line2d_49">
      <path d="M 294.390625 173.52 
L 506.070625 173.52 
" clip-path="url(#p93659034fe)" style="fill: none; stroke: #b0b0b0; stroke-opacity: 0.15; stroke-width: 0.8; stroke-linecap: square"/>
     </g>
     <g id="line2d_50">
      <g>
       <use xlink:href="#m4323b71876" x="294.390625" y="173.52" style="stroke: #000000; stroke-width: 0.8"/>
      </g>
     </g>
     <g id="text_26">
      <!-- -1 -->
      <g transform="translate(277.2 177.516875) scale(0.1 -0.1)">
       <use xlink:href="#MicrosoftYaHei-2d"/>
       <use xlink:href="#MicrosoftYaHei-31" transform="translate(43.261719 0)"/>
      </g>
     </g>
    </g>
    <g id="ytick_11">
     <g id="line2d_51">
      <path d="M 294.390625 138.24 
L 506.070625 138.24 
" clip-path="url(#p93659034fe)" style="fill: none; stroke: #b0b0b0; stroke-opacity: 0.15; stroke-width: 0.8; stroke-linecap: square"/>
     </g>
     <g id="line2d_52">
      <g>
       <use xlink:href="#m4323b71876" x="294.390625" y="138.24" style="stroke: #000000; stroke-width: 0.8"/>
      </g>
     </g>
     <g id="text_27">
      <!-- 0 -->
      <g transform="translate(281.526563 142.236875) scale(0.1 -0.1)">
       <use xlink:href="#MicrosoftYaHei-30"/>
      </g>
     </g>
    </g>
    <g id="ytick_12">
     <g id="line2d_53">
      <path d="M 294.390625 102.96 
L 506.070625 102.96 
" clip-path="url(#p93659034fe)" style="fill: none; stroke: #b0b0b0; stroke-opacity: 0.15; stroke-width: 0.8; stroke-linecap: square"/>
     </g>
     <g id="line2d_54">
      <g>
       <use xlink:href="#m4323b71876" x="294.390625" y="102.96" style="stroke: #000000; stroke-width: 0.8"/>
      </g>
     </g>
     <g id="text_28">
      <!-- 1 -->
      <g transform="translate(281.526563 106.956875) scale(0.1 -0.1)">
       <use xlink:href="#MicrosoftYaHei-31"/>
      </g>
     </g>
    </g>
    <g id="ytick_13">
     <g id="line2d_55">
      <path d="M 294.390625 67.68 
L 506.070625 67.68 
" clip-path="url(#p93659034fe)" style="fill: none; stroke: #b0b0b0; stroke-opacity: 0.15; stroke-width: 0.8; stroke-linecap: square"/>
     </g>
     <g id="line2d_56">
      <g>
       <use xlink:href="#m4323b71876" x="294.390625" y="67.68" style="stroke: #000000; stroke-width: 0.8"/>
      </g>
     </g>
     <g id="text_29">
      <!-- 2 -->
      <g transform="translate(281.526563 71.676875) scale(0.1 -0.1)">
       <use xlink:href="#MicrosoftYaHei-32"/>
      </g>
     </g>
    </g>
    <g id="ytick_14">
     <g id="line2d_57">
      <path d="M 294.390625 32.4 
L 506.070625 32.4 
" clip-path="url(#p93659034fe)" style="fill: none; stroke: #b0b0b0; stroke-opacity: 0.15; stroke-width: 0.8; stroke-linecap: square"/>
     </g>
     <g id="line2d_58">
      <g>
       <use xlink:href="#m4323b71876" x="294.390625" y="32.4" style="stroke: #000000; stroke-width: 0.8"/>
      </g>
     </g>
     <g id="text_30">
      <!-- 3 -->
      <g transform="translate(281.526563 36.396875) scale(0.1 -0.1)">
       <use xlink:href="#MicrosoftYaHei-33"/>
      </g>
     </g>
    </g>
   </g>
   <g id="line2d_59">
    <path d="M 294.390625 138.24 
L 506.070625 138.24 
" clip-path="url(#p93659034fe)" style="fill: none; stroke: #808080; stroke-width: 0.3; stroke-linecap: square"/>
   </g>
   <g id="line2d_60">
    <path d="M 400.230625 244.08 
L 400.230625 32.4 
" clip-path="url(#p93659034fe)" style="fill: none; stroke: #808080; stroke-width: 0.3; stroke-linecap: square"/>
   </g>
   <g id="patch_40">
    <path d="M 294.390625 244.08 
L 294.390625 32.4 
" style="fill: none; stroke: #000000; stroke-width: 0.8; stroke-linejoin: miter; stroke-linecap: square"/>
   </g>
   <g id="patch_41">
    <path d="M 506.070625 244.08 
L 506.070625 32.4 
" style="fill: none; stroke: #000000; stroke-width: 0.8; stroke-linejoin: miter; stroke-linecap: square"/>
   </g>
   <g id="patch_42">
    <path d="M 294.390625 244.08 
L 506.070625 244.08 
" style="fill: none; stroke: #000000; stroke-width: 0.8; stroke-linejoin: miter; stroke-linecap: square"/>
   </g>
   <g id="patch_43">
    <path d="M 294.390625 32.4 
L 506.070625 32.4 
" style="fill: none; stroke: #000000; stroke-width: 0.8; stroke-linejoin: miter; stroke-linecap: square"/>
   </g>
   <g id="text_31">
    <!-- 负点电荷 -->
    <g style="fill: #1a1a2e" transform="translate(376.230625 26.4) scale(0.12 -0.12)">
     <defs>
      <path id="MicrosoftYaHei-8d1f" d="M 963 3353 
L 3250 3353 
Q 3556 3659 4031 4216 
L 1819 4216 
Q 1163 3503 463 3009 
Q 325 3172 94 3384 
Q 1356 4303 2094 5334 
L 2600 5147 
Q 2406 4891 2213 4659 
L 4700 4659 
L 4700 4241 
Q 4294 3778 3881 3353 
L 5600 3353 
L 5600 641 
L 5100 641 
L 5100 2909 
L 1463 2909 
L 1463 603 
L 963 603 
L 963 3353 
z
M 188 -403 
Q 1806 -97 2550 422 
Q 3019 728 3019 1603 
L 3019 2609 
L 3525 2609 
L 3525 1716 
Q 3525 1297 3469 997 
Q 4906 334 6163 -416 
L 5831 -878 
Q 4513 -53 3325 534 
Q 2863 -391 475 -891 
Q 344 -653 188 -403 
z
" transform="scale(0.015625)"/>
     </defs>
     <use xlink:href="#MicrosoftYaHei-8d1f"/>
     <use xlink:href="#MicrosoftYaHei-70b9" transform="translate(100 0)"/>
     <use xlink:href="#MicrosoftYaHei-7535" transform="translate(200 0)"/>
     <use xlink:href="#MicrosoftYaHei-8377" transform="translate(300 0)"/>
    </g>
   </g>
   <g id="PathCollection_2">
    <defs>
     <path id="mc30d841e1b" d="M 0 5.477226 
C 1.452577 5.477226 2.845856 4.900111 3.872983 3.872983 
C 4.900111 2.845856 5.477226 1.452577 5.477226 0 
C 5.477226 -1.452577 4.900111 -2.845856 3.872983 -3.872983 
C 2.845856 -4.900111 1.452577 -5.477226 0 -5.477226 
C -1.452577 -5.477226 -2.845856 -4.900111 -3.872983 -3.872983 
C -4.900111 -2.845856 -5.477226 -1.452577 -5.477226 0 
C -5.477226 1.452577 -4.900111 2.845856 -3.872983 3.872983 
C -2.845856 4.900111 -1.452577 5.477226 0 5.477226 
z
" style="stroke: #0000ff"/>
    </defs>
    <g clip-path="url(#p93659034fe)">
     <use xlink:href="#mc30d841e1b" x="400.230625" y="138.24" style="fill: #0000ff; stroke: #0000ff"/>
    </g>
   </g>
   <g id="text_32">
    <!-- − -->
    <g style="fill: #ffffff" transform="translate(403.758625 148.824) scale(0.16 -0.16)">
     <defs>
      <path id="MicrosoftYaHei-Bold-2212" d="M 4072 1653 
L 797 1653 
L 797 2313 
L 4072 2313 
L 4072 1653 
z
" transform="scale(0.015625)"/>
     </defs>
     <use xlink:href="#MicrosoftYaHei-Bold-2212"/>
    </g>
   </g>
  </g>
  <g id="text_33">
   <!-- 点电荷的电场线分布 -->
   <g style="fill: #1a1a2e" transform="translate(202.230625 18.39125) scale(0.14 -0.14)">
    <defs>
     <path id="MicrosoftYaHei-7684" d="M 356 4284 
L 988 4284 
Q 1219 4853 1369 5322 
L 1894 5172 
Q 1697 4694 1513 4284 
L 2763 4284 
L 2763 -691 
L 2263 -691 
L 2263 -203 
L 856 -203 
L 856 -734 
L 356 -734 
L 356 4284 
z
M 2856 3003 
Q 3444 3934 3850 5322 
L 4375 5191 
Q 4216 4719 4050 4303 
L 6063 4303 
Q 5988 1091 5938 259 
Q 5894 -722 4906 -722 
Q 4338 -722 3750 -684 
Q 3713 -372 3650 -128 
L 3669 -128 
Q 4294 -216 4813 -216 
Q 5381 -216 5425 384 
Q 5494 1316 5525 3834 
L 3850 3834 
Q 3578 3231 3288 2772 
Q 3119 2891 2856 3003 
z
M 856 266 
L 2263 266 
L 2263 1847 
L 856 1847 
L 856 266 
z
M 2263 3816 
L 856 3816 
L 856 2297 
L 2263 2297 
L 2263 3816 
z
M 3406 2578 
L 3788 2859 
Q 4481 2041 4894 1441 
L 4431 1116 
Q 3988 1841 3406 2578 
z
" transform="scale(0.015625)"/>
     <path id="MicrosoftYaHei-573a" d="M 4800 4491 
L 2363 4491 
L 2363 4941 
L 5688 4941 
L 5688 4484 
L 3225 2928 
L 6063 2928 
Q 5988 1197 5919 253 
Q 5838 -703 5038 -703 
Q 4763 -703 4194 -684 
Q 4150 -372 4088 -141 
Q 4519 -209 4962 -209 
Q 5406 -209 5450 322 
Q 5513 1103 5575 2478 
L 4906 2478 
Q 4628 375 2963 -853 
Q 2788 -634 2613 -472 
Q 4163 600 4441 2478 
L 3641 2478 
Q 3281 913 1863 -103 
Q 1713 78 1538 259 
Q 2831 1144 3175 2478 
L 2431 2478 
L 2431 2953 
L 4800 4491 
z
M 94 703 
Q 547 888 1006 1088 
L 1006 3247 
L 169 3247 
L 169 3697 
L 1006 3697 
L 1006 5259 
L 1469 5259 
L 1469 3697 
L 2231 3697 
L 2231 3247 
L 1469 3247 
L 1469 1294 
Q 1819 1453 2175 1622 
Q 2188 1359 2231 1153 
Q 1319 741 288 222 
L 94 703 
z
" transform="scale(0.015625)"/>
     <path id="MicrosoftYaHei-7ebf" d="M 1969 -347 
Q 3144 75 4003 631 
Q 3781 1197 3653 1972 
L 2319 1784 
L 2244 2234 
L 3591 2422 
Q 3538 2859 3513 3356 
L 2381 3228 
L 2306 3678 
L 3488 3809 
Q 3453 4459 3425 5303 
L 3938 5303 
Q 3953 4497 3978 3866 
L 6069 4103 
L 6125 3659 
L 3997 3413 
Q 4019 2919 4069 2488 
L 6225 2791 
L 6281 2347 
L 4128 2041 
Q 4234 1394 4416 916 
Q 5078 1416 5519 2009 
L 5925 1703 
Q 5363 1025 4619 475 
Q 4859 44 5194 -184 
Q 5606 -428 5725 66 
Q 5806 466 5856 953 
Q 6144 828 6338 772 
Q 6231 97 6125 -247 
Q 5944 -778 5506 -778 
Q 5050 -778 4663 -403 
Q 4409 -163 4209 194 
Q 3350 -363 2281 -772 
Q 2169 -597 1969 -347 
z
M 900 1541 
Q 1456 1622 2213 1753 
Q 2175 1522 2156 1272 
Q 1113 1109 325 978 
L 225 1447 
Q 659 1913 1178 2775 
Q 672 2747 225 2703 
L 106 3128 
Q 688 3922 1300 5353 
L 1775 5166 
Q 1131 3897 669 3166 
Q 1041 3178 1422 3194 
Q 1638 3578 1869 4028 
L 2331 3797 
Q 1569 2478 900 1541 
z
M 106 97 
Q 1206 334 2331 616 
Q 2313 366 2313 141 
Q 1269 -103 244 -378 
L 106 97 
z
M 4463 4972 
L 4731 5284 
Q 5175 5003 5681 4609 
L 5381 4247 
Q 4863 4691 4463 4972 
z
" transform="scale(0.015625)"/>
     <path id="MicrosoftYaHei-5206" d="M 900 2559 
L 5056 2559 
Q 5025 1497 4963 484 
Q 4888 -684 3856 -678 
Q 3350 -684 2788 -647 
Q 2750 -384 2700 -116 
Q 3181 -184 3775 -191 
Q 4400 -203 4463 541 
Q 4513 1216 4538 2097 
L 2616 2097 
Q 2541 1053 2181 416 
Q 1706 -422 588 -878 
Q 425 -666 231 -459 
Q 1269 -72 1725 666 
Q 2053 1225 2103 2097 
L 900 2097 
L 900 2559 
z
M 3488 5159 
L 3938 5353 
Q 4625 3678 6350 2847 
Q 6069 2553 5944 2372 
Q 4225 3366 3488 5159 
z
M 50 2766 
Q 1338 3678 2250 5253 
L 2694 5009 
Q 1744 3347 413 2341 
Q 281 2534 50 2766 
z
" transform="scale(0.015625)"/>
     <path id="MicrosoftYaHei-5e03" d="M 3250 3666 
L 3750 3666 
L 3750 2703 
L 5681 2703 
L 5681 541 
Q 5681 -197 5050 -197 
Q 4888 -197 4119 -191 
Q 4081 16 4019 316 
Q 4644 278 4769 278 
Q 5188 266 5188 666 
L 5188 2253 
L 3750 2253 
L 3750 -828 
L 3250 -828 
L 3250 2253 
L 1844 2253 
L 1844 -353 
L 1350 -353 
L 1350 2113 
Q 928 1553 450 1028 
Q 294 1253 94 1447 
Q 1241 2647 1969 3984 
L 200 3984 
L 200 4434 
L 2200 4434 
Q 2419 4884 2594 5353 
L 3088 5153 
Q 2934 4788 2766 4434 
L 6250 4434 
L 6250 3984 
L 2538 3984 
Q 2188 3325 1772 2703 
L 3250 2703 
L 3250 3666 
z
" transform="scale(0.015625)"/>
    </defs>
    <use xlink:href="#MicrosoftYaHei-70b9"/>
    <use xlink:href="#MicrosoftYaHei-7535" transform="translate(100 0)"/>
    <use xlink:href="#MicrosoftYaHei-8377" transform="translate(200 0)"/>
    <use xlink:href="#MicrosoftYaHei-7684" transform="translate(300 0)"/>
    <use xlink:href="#MicrosoftYaHei-7535" transform="translate(400 0)"/>
    <use xlink:href="#MicrosoftYaHei-573a" transform="translate(500 0)"/>
    <use xlink:href="#MicrosoftYaHei-7ebf" transform="translate(600 0)"/>
    <use xlink:href="#MicrosoftYaHei-5206" transform="translate(700 0)"/>
    <use xlink:href="#MicrosoftYaHei-5e03" transform="translate(800 0)"/>
   </g>
  </g>
 </g>
 <defs>
  <clipPath id="pec2bc49b06">
   <rect x="24.390625" y="32.4" width="211.68" height="211.68"/>
  </clipPath>
  <clipPath id="p93659034fe">
   <rect x="294.390625" y="32.4" width="211.68" height="211.68"/>
  </clipPath>
 </defs>
</svg>
