<?xml version="1.0" encoding="utf-8" standalone="no"?>
<!DOCTYPE svg PUBLIC "-//W3C//DTD SVG 1.1//EN"
  "http://www.w3.org/Graphics/SVG/1.1/DTD/svg11.dtd">
<svg xmlns:xlink="http://www.w3.org/1999/xlink" width="568.8pt" height="280.8pt" viewBox="0 0 568.8 280.8" xmlns="http://www.w3.org/2000/svg" version="1.1">
 <metadata>
  <rdf:RDF xmlns:dc="http://purl.org/dc/elements/1.1/" xmlns:cc="http://creativecommons.org/ns#" xmlns:rdf="http://www.w3.org/1999/02/22-rdf-syntax-ns#">
   <cc:Work>
    <dc:type rdf:resource="http://purl.org/dc/dcmitype/StillImage"/>
    <dc:date>2026-05-29T22:28:06.212435</dc:date>
    <dc:format>image/svg+xml</dc:format>
    <dc:creator>
     <cc:Agent>
      <dc:title>Matplotlib v3.10.9, https://matplotlib.org/</dc:title>
     </cc:Agent>
    </dc:creator>
   </cc:Work>
  </rdf:RDF>
 </metadata>
 <defs>
  <style type="text/css">*{stroke-linejoin: round; stroke-linecap: butt}</style>
 </defs>
 <g id="figure_1">
  <g id="patch_1">
   <path d="M 0 280.8 
L 568.8 280.8 
L 568.8 0 
L 0 0 
z
" style="fill: #ffffff"/>
  </g>
  <g id="axes_1">
   <g id="patch_2">
    <path d="M 23.832 148.011429 
L 95.904 148.011429 
Q 104.22 148.011429 104.22 136.594286 
L 104.22 60.48 
Q 104.22 49.062857 95.904 49.062857 
L 23.832 49.062857 
Q 15.516 49.062857 15.516 60.48 
L 15.516 136.594286 
Q 15.516 148.011429 23.832 148.011429 
z
" clip-path="url(#p59734642d2)" style="fill: #c0392b; opacity: 0.85; stroke: #ffffff; stroke-width: 2.5; stroke-linejoin: miter"/>
   </g>
   <g id="patch_3">
    <path d="M 123.624 148.011429 
L 195.696 148.011429 
Q 204.012 148.011429 204.012 136.594286 
L 204.012 60.48 
Q 204.012 49.062857 195.696 49.062857 
L 123.624 49.062857 
Q 115.308 49.062857 115.308 60.48 
L 115.308 136.594286 
Q 115.308 148.011429 123.624 148.011429 
z
" clip-path="url(#p59734642d2)" style="fill: #2980b9; opacity: 0.85; stroke: #ffffff; stroke-width: 2.5; stroke-linejoin: miter"/>
   </g>
   <g id="patch_4">
    <path d="M 223.416 148.011429 
L 295.488 148.011429 
Q 303.804 148.011429 303.804 136.594286 
L 303.804 60.48 
Q 303.804 49.062857 295.488 49.062857 
L 223.416 49.062857 
Q 215.1 49.062857 215.1 60.48 
L 215.1 136.594286 
Q 215.1 148.011429 223.416 148.011429 
z
" clip-path="url(#p59734642d2)" style="fill: #27ae60; opacity: 0.85; stroke: #ffffff; stroke-width: 2.5; stroke-linejoin: miter"/>
   </g>
   <g id="patch_5">
    <path d="M 323.208 148.011429 
L 395.28 148.011429 
Q 403.596 148.011429 403.596 136.594286 
L 403.596 60.48 
Q 403.596 49.062857 395.28 49.062857 
L 323.208 49.062857 
Q 314.892 49.062857 314.892 60.48 
L 314.892 136.594286 
Q 314.892 148.011429 323.208 148.011429 
z
" clip-path="url(#p59734642d2)" style="fill: #e67e22; opacity: 0.85; stroke: #ffffff; stroke-width: 2.5; stroke-linejoin: miter"/>
   </g>
   <g id="patch_6">
    <path d="M 423 148.011429 
L 495.072 148.011429 
Q 503.388 148.011429 503.388 136.594286 
L 503.388 60.48 
Q 503.388 49.062857 495.072 49.062857 
L 423 49.062857 
Q 414.684 49.062857 414.684 60.48 
L 414.684 136.594286 
Q 414.684 148.011429 423 148.011429 
z
" clip-path="url(#p59734642d2)" style="fill: #8e44ad; opacity: 0.85; stroke: #ffffff; stroke-width: 2.5; stroke-linejoin: miter"/>
   </g>
   <g id="text_1">
    <!-- 1 审题 -->
    <g style="fill: #ffffff" transform="translate(40.923547 92.707455) scale(0.13 -0.13)">
     <defs>
      <path id="MicrosoftYaHei-Bold-31" d="M 2716 4947 
L 2716 0 
L 1700 0 
L 1700 3809 
Q 1513 3647 1188 3517 
Q 863 3388 591 3356 
L 591 4222 
Q 1447 4472 2072 4947 
L 2716 4947 
z
" transform="scale(0.015625)"/>
      <path id="MicrosoftYaHei-Bold-20" transform="scale(0.015625)"/>
      <path id="MicrosoftYaHei-Bold-5ba1" d="M 2556 5241 
L 3625 5341 
Q 3709 5088 3816 4741 
L 6100 4741 
L 6100 3578 
L 5231 3578 
L 5231 4053 
L 1181 4053 
L 1181 3578 
L 313 3578 
L 313 4741 
L 2741 4741 
Q 2644 5025 2556 5241 
z
M 731 84 
L 731 3422 
L 2750 3422 
L 2750 3909 
L 3650 3909 
L 3650 3422 
L 5669 3422 
L 5669 84 
L 4819 84 
L 4819 384 
L 3650 384 
L 3650 -853 
L 2750 -853 
L 2750 384 
L 1581 384 
L 1581 84 
L 731 84 
z
M 4819 2759 
L 3650 2759 
L 3650 2222 
L 4819 2222 
L 4819 2759 
z
M 1581 2222 
L 2750 2222 
L 2750 2759 
L 1581 2759 
L 1581 2222 
z
M 1581 1047 
L 2750 1047 
L 2750 1584 
L 1581 1584 
L 1581 1047 
z
M 3650 1047 
L 4819 1047 
L 4819 1584 
L 3650 1584 
L 3650 1047 
z
" transform="scale(0.015625)"/>
      <path id="MicrosoftYaHei-Bold-9898" d="M 406 5091 
L 2856 5091 
L 2856 2666 
L 406 2666 
L 406 5091 
z
M 2131 4503 
L 1131 4503 
L 1131 4141 
L 2131 4141 
L 2131 4503 
z
M 2131 3253 
L 2131 3616 
L 1131 3616 
L 1131 3253 
L 2131 3253 
z
M 3213 3966 
L 4041 3966 
Q 4084 4219 4116 4453 
L 3100 4453 
L 3100 5078 
L 6169 5078 
L 6169 4453 
L 4906 4453 
Q 4866 4206 4819 3966 
L 5981 3966 
L 5981 1341 
L 5269 1341 
L 5269 3341 
L 3925 3341 
L 3925 1347 
L 3213 1347 
L 3213 3966 
z
M 425 1491 
L 1106 1491 
Q 1109 1134 1094 822 
Q 1238 688 1394 575 
L 1394 1753 
L 138 1753 
L 138 2378 
L 3000 2378 
L 3000 1753 
L 2163 1753 
L 2163 1353 
L 2906 1353 
L 2906 741 
L 2163 741 
L 2163 178 
Q 2594 28 3172 19 
Q 2953 347 2713 609 
Q 3400 797 3831 1211 
Q 4263 1625 4263 2509 
L 4263 3072 
L 4938 3072 
L 4938 2472 
Q 4938 1956 4825 1541 
Q 5659 1050 6306 591 
L 5828 25 
L 6319 34 
Q 6175 -303 6094 -691 
Q 4706 -691 3689 -680 
Q 2672 -669 2331 -597 
Q 1991 -525 1653 -358 
Q 1316 -191 1013 66 
Q 909 -544 688 -909 
Q 463 -628 75 -266 
Q 431 278 425 1491 
z
M 3428 16 
L 5744 25 
Q 5163 506 4544 909 
Q 4166 369 3428 16 
z
" transform="scale(0.015625)"/>
     </defs>
     <use xlink:href="#MicrosoftYaHei-Bold-31"/>
     <use xlink:href="#MicrosoftYaHei-Bold-20" transform="translate(61.669922 0)"/>
     <use xlink:href="#MicrosoftYaHei-Bold-5ba1" transform="translate(91.455078 0)"/>
     <use xlink:href="#MicrosoftYaHei-Bold-9898" transform="translate(191.455078 0)"/>
    </g>
    <!-- 圈关键量 -->
    <g style="fill: #ffffff" transform="translate(33.868 111.526987) scale(0.13 -0.13)">
     <defs>
      <path id="MicrosoftYaHei-Bold-5708" d="M 375 -841 
L 375 5066 
L 6025 5066 
L 6025 -834 
L 5225 -834 
L 5225 -597 
L 1175 -597 
L 1175 -841 
L 375 -841 
z
M 2213 4278 
Q 2347 4103 2600 3734 
L 2822 3734 
Q 2866 3988 2875 4291 
L 3594 4291 
Q 3584 3994 3544 3734 
L 3838 3734 
Q 4044 4009 4206 4272 
L 4881 4103 
Q 4772 3981 4541 3734 
L 5025 3734 
L 5025 3234 
L 3425 3234 
Q 3381 3103 3325 2984 
L 5106 2984 
L 5106 2484 
L 4250 2484 
Q 4663 2181 5225 2056 
L 5225 4403 
L 1175 4403 
L 1175 1928 
Q 1750 2175 2119 2484 
L 1306 2484 
L 1306 2984 
L 2566 2984 
Q 2634 3097 2688 3234 
L 1388 3234 
L 1388 3734 
L 1878 3734 
L 1600 4084 
L 2213 4278 
z
M 2681 2141 
L 3838 2141 
Q 3669 2300 3513 2484 
L 3006 2484 
Q 2863 2309 2681 2141 
z
M 4331 1384 
Q 4588 1284 4988 1197 
Q 4884 722 4779 569 
Q 4675 416 4450 337 
Q 4225 259 3881 259 
L 2588 259 
Q 1881 259 1881 941 
L 1881 1544 
Q 1650 1403 1388 1266 
Q 1281 1419 1175 1559 
L 1175 66 
L 5225 66 
L 5225 1822 
L 4963 1416 
Q 4541 1578 4169 1856 
Q 4153 1322 4064 1217 
Q 3975 1113 3873 1045 
Q 3772 978 2919 978 
Q 2856 1209 2781 1416 
Q 3063 1403 3219 1403 
Q 3316 1403 3402 1436 
Q 3488 1469 3494 1678 
L 2569 1678 
L 2569 1041 
Q 2569 772 2856 772 
L 3875 772 
Q 4084 772 4176 873 
Q 4269 975 4331 1384 
z
" transform="scale(0.015625)"/>
      <path id="MicrosoftYaHei-Bold-5173" d="M 156 2459 
L 2725 2459 
Q 2725 2491 2741 3266 
L 481 3266 
L 481 4066 
L 1834 4066 
Q 1475 4538 1219 4841 
L 1925 5341 
Q 2188 5053 2813 4347 
L 2406 4066 
L 3488 4066 
Q 3975 4731 4331 5341 
L 5231 4872 
L 4550 4066 
L 5938 4066 
L 5938 3266 
L 3672 3266 
Q 3672 3009 3666 2459 
L 6250 2459 
L 6250 1659 
L 3819 1659 
Q 4416 441 6300 72 
Q 5856 -503 5663 -797 
Q 3906 -300 3203 1031 
Q 2600 -128 781 -866 
Q 488 -509 94 -72 
Q 2059 541 2556 1659 
L 156 1659 
L 156 2459 
z
" transform="scale(0.015625)"/>
      <path id="MicrosoftYaHei-Bold-952e" d="M 1894 3916 
L 1025 3916 
Q 928 3678 819 3453 
L 1831 3453 
L 1831 2803 
L 1300 2803 
L 1300 2253 
L 1988 2253 
L 1988 1731 
L 2263 1841 
Q 2378 1453 2534 1156 
Q 2675 1634 2675 2353 
L 1950 2353 
L 1950 2997 
L 2569 4297 
L 1975 4297 
L 1975 4947 
L 3294 4947 
L 3294 4284 
L 2688 2991 
L 3313 2991 
L 3313 2541 
Q 3313 1384 3003 541 
Q 3584 34 4719 34 
Q 5631 34 6325 66 
Q 6150 -428 6106 -684 
L 4819 -684 
Q 3391 -684 2713 -56 
Q 2450 -491 2063 -878 
Q 1744 -603 1438 -391 
Q 1981 106 2247 522 
Q 1972 972 1763 1603 
L 1300 1603 
L 1300 578 
Q 1544 753 1800 947 
Q 1813 591 1869 241 
Q 1306 -166 850 -634 
L 431 -97 
Q 606 78 606 478 
L 606 1603 
L 106 1603 
L 106 2253 
L 606 2253 
L 606 2803 
L 469 2803 
Q 381 2663 294 2528 
Q 194 3053 75 3528 
Q 469 4297 719 5359 
L 1456 5197 
Q 1369 4872 1266 4566 
L 1894 4566 
L 1894 3916 
z
M 3325 1234 
L 4213 1234 
L 4213 1566 
L 3438 1566 
L 3438 2153 
L 4213 2153 
L 4213 2478 
L 3475 2478 
L 3475 3041 
L 4213 3041 
L 4213 3397 
L 3250 3397 
L 3250 3972 
L 4213 3972 
L 4213 4322 
L 3488 4322 
L 3488 4884 
L 4213 4884 
L 4213 5322 
L 4913 5322 
L 4913 4884 
L 6006 4884 
L 6006 3972 
L 6244 3972 
L 6244 3397 
L 6006 3397 
L 6006 2478 
L 4913 2478 
L 4913 2153 
L 6038 2153 
L 6038 1566 
L 4913 1566 
L 4913 1234 
L 6131 1234 
L 6131 647 
L 4913 647 
L 4913 141 
L 4213 141 
L 4213 647 
L 3325 647 
L 3325 1234 
z
M 5431 4322 
L 4913 4322 
L 4913 3972 
L 5431 3972 
L 5431 4322 
z
M 5431 3041 
L 5431 3397 
L 4913 3397 
L 4913 3041 
L 5431 3041 
z
" transform="scale(0.015625)"/>
      <path id="MicrosoftYaHei-Bold-91cf" d="M 725 5103 
L 5675 5103 
L 5675 3416 
L 725 3416 
L 725 5103 
z
M 4825 4666 
L 1575 4666 
L 1575 4447 
L 4825 4447 
L 4825 4666 
z
M 4825 3853 
L 4825 4072 
L 1575 4072 
L 1575 3853 
L 4825 3853 
z
M 138 3209 
L 6288 3209 
L 6288 2747 
L 138 2747 
L 138 3209 
z
M 113 -184 
L 2781 -184 
L 2781 53 
L 506 53 
L 506 491 
L 2781 491 
L 2781 716 
L 713 716 
L 713 2534 
L 5681 2534 
L 5681 716 
L 3606 716 
L 3606 491 
L 5925 491 
L 5925 53 
L 3606 53 
L 3606 -184 
L 6300 -184 
L 6300 -647 
L 113 -647 
L 113 -184 
z
M 4881 2097 
L 3606 2097 
L 3606 1816 
L 4881 1816 
L 4881 2097 
z
M 1513 1816 
L 2781 1816 
L 2781 2097 
L 1513 2097 
L 1513 1816 
z
M 4881 1153 
L 4881 1434 
L 3606 1434 
L 3606 1153 
L 4881 1153 
z
M 1513 1153 
L 2781 1153 
L 2781 1434 
L 1513 1434 
L 1513 1153 
z
" transform="scale(0.015625)"/>
     </defs>
     <use xlink:href="#MicrosoftYaHei-Bold-5708"/>
     <use xlink:href="#MicrosoftYaHei-Bold-5173" transform="translate(100 0)"/>
     <use xlink:href="#MicrosoftYaHei-Bold-952e" transform="translate(200 0)"/>
     <use xlink:href="#MicrosoftYaHei-Bold-91cf" transform="translate(300 0)"/>
    </g>
   </g>
   <g id="text_2">
    <!-- 2 识别 -->
    <g style="fill: #ffffff" transform="translate(140.715547 92.707455) scale(0.13 -0.13)">
     <defs>
      <path id="MicrosoftYaHei-Bold-32" d="M 1500 841 
L 3553 841 
L 3553 0 
L 334 0 
L 334 359 
Q 334 738 473 1050 
Q 613 1363 856 1633 
Q 1100 1903 1613 2266 
Q 2081 2616 2268 2886 
Q 2456 3156 2456 3459 
Q 2456 4113 1744 4113 
Q 1119 4113 550 3613 
L 550 4513 
Q 1184 4922 1975 4922 
Q 2700 4922 3122 4551 
Q 3544 4181 3544 3531 
Q 3544 3169 3422 2876 
Q 3300 2584 3069 2328 
Q 2838 2072 2328 1713 
Q 1838 1363 1669 1172 
Q 1500 981 1500 841 
z
" transform="scale(0.015625)"/>
      <path id="MicrosoftYaHei-Bold-8bc6" d="M 1156 5284 
Q 1556 4753 1988 4128 
L 1188 3628 
Q 813 4278 425 4853 
L 1156 5284 
z
M 2338 4978 
L 5863 4978 
L 5863 1597 
L 2338 1597 
L 2338 4978 
z
M 5000 2359 
L 5000 4216 
L 3200 4216 
L 3200 2359 
L 5000 2359 
z
M 2231 1484 
Q 2294 897 2375 559 
Q 1494 -97 1050 -547 
L 606 28 
Q 738 228 744 541 
L 744 2553 
L 125 2553 
L 125 3397 
L 1600 3397 
L 1600 972 
L 2231 1484 
z
M 3144 1397 
L 3881 909 
Q 3163 -59 2438 -891 
Q 2125 -603 1725 -297 
Q 2469 409 3144 1397 
z
M 4975 1391 
Q 5694 584 6375 -303 
L 5600 -853 
Q 4969 72 4281 941 
L 4975 1391 
z
" transform="scale(0.015625)"/>
      <path id="MicrosoftYaHei-Bold-522b" d="M 3463 466 
Q 3469 -703 2463 -716 
Q 2281 -722 1756 -734 
Q 1688 -241 1538 203 
Q 2006 178 2194 178 
Q 2619 184 2619 622 
Q 2619 672 2638 1466 
L 1844 1466 
Q 1644 -47 700 -872 
Q 406 -484 63 -116 
Q 781 447 975 1466 
L 213 1466 
L 213 2191 
L 1056 2191 
Q 1075 2466 1081 2622 
L 1919 2622 
Q 1913 2472 1900 2191 
L 3481 2191 
Q 3481 1441 3463 466 
z
M 5144 5253 
L 5981 5253 
L 5981 166 
Q 5981 -784 5213 -803 
Q 5013 -828 4188 -834 
Q 4144 -559 3975 47 
Q 4506 34 4838 41 
Q 5144 59 5144 397 
L 5144 5253 
z
M 3850 4641 
L 4650 4641 
L 4650 647 
L 3850 647 
L 3850 4641 
z
M 2575 4328 
L 1213 4328 
L 1213 3541 
L 2575 3541 
L 2575 4328 
z
M 3375 2791 
L 388 2791 
L 388 5078 
L 3375 5078 
L 3375 2791 
z
" transform="scale(0.015625)"/>
     </defs>
     <use xlink:href="#MicrosoftYaHei-Bold-32"/>
     <use xlink:href="#MicrosoftYaHei-Bold-20" transform="translate(61.669922 0)"/>
     <use xlink:href="#MicrosoftYaHei-Bold-8bc6" transform="translate(91.455078 0)"/>
     <use xlink:href="#MicrosoftYaHei-Bold-522b" transform="translate(191.455078 0)"/>
    </g>
    <!-- 物理模型 -->
    <g style="fill: #ffffff" transform="translate(133.66 111.526987) scale(0.13 -0.13)">
     <defs>
      <path id="MicrosoftYaHei-Bold-7269" d="M 1969 -847 
L 1181 -847 
L 1181 1078 
Q 669 984 206 884 
L 94 1791 
Q 597 1838 1181 1922 
L 1181 3172 
L 775 3172 
Q 697 2731 594 2322 
Q 300 2509 88 2603 
Q 313 3566 381 4784 
L 956 4728 
Q 931 4344 891 3978 
L 1181 3978 
L 1181 5291 
L 1969 5291 
L 1969 3978 
L 2425 3978 
L 2425 3728 
Q 2856 4553 3100 5341 
Q 3550 5259 3938 5178 
Q 3772 4738 3609 4359 
L 6075 4359 
Q 6066 3275 6028 2016 
L 5972 400 
Q 5953 47 5834 -204 
Q 5716 -456 5466 -568 
Q 5216 -681 4150 -647 
Q 4056 -134 3934 216 
Q 3497 -331 2888 -772 
Q 2494 -353 2219 -109 
Q 4194 1163 4425 3534 
L 4116 3534 
Q 3891 1925 2781 966 
Q 2597 1144 2441 1284 
L 1969 1213 
L 1969 -847 
z
M 5300 3534 
L 5025 3534 
Q 4994 1578 3966 253 
Q 4356 222 4694 222 
Q 5122 222 5187 645 
Q 5253 1069 5300 3534 
z
M 2638 2647 
Q 2384 3003 2228 3172 
L 1969 3172 
L 1969 2044 
Q 2241 2088 2531 2141 
Q 2522 2006 2516 1850 
Q 3275 2559 3519 3534 
L 3213 3534 
Q 2925 3000 2638 2647 
z
" transform="scale(0.015625)"/>
      <path id="MicrosoftYaHei-Bold-7406" d="M 256 -503 
L 81 384 
L 825 553 
L 825 2091 
L 225 2091 
L 225 2866 
L 825 2866 
L 825 4178 
L 200 4178 
L 200 4966 
L 2250 4966 
L 2250 4178 
L 1625 4178 
L 1625 2866 
L 2206 2866 
L 2206 2091 
L 1625 2091 
L 1625 756 
Q 1959 847 2275 941 
Q 2250 497 2269 84 
L 3819 84 
L 3819 628 
L 2394 628 
L 2394 1341 
L 3819 1341 
L 3819 1791 
L 2425 1791 
L 2425 5034 
L 6013 5034 
L 6013 1791 
L 4619 1791 
L 4619 1341 
L 6044 1341 
L 6044 628 
L 4619 628 
L 4619 84 
L 6319 84 
L 6319 -628 
L 2031 -628 
L 2031 31 
Q 1206 -197 256 -503 
z
M 5231 4334 
L 4619 4334 
L 4619 3741 
L 5231 3741 
L 5231 4334 
z
M 3206 3741 
L 3819 3741 
L 3819 4334 
L 3206 4334 
L 3206 3741 
z
M 5231 2491 
L 5231 3091 
L 4619 3091 
L 4619 2491 
L 5231 2491 
z
M 3206 2491 
L 3819 2491 
L 3819 3091 
L 3206 3091 
L 3206 2491 
z
" transform="scale(0.015625)"/>
      <path id="MicrosoftYaHei-Bold-6a21" d="M 6250 534 
L 4825 534 
Q 5419 84 6325 -53 
Q 6131 -403 5913 -859 
Q 4769 -522 4169 334 
Q 3694 -503 2406 -897 
Q 2206 -509 1925 -159 
Q 3013 66 3419 534 
L 2088 534 
L 2088 1141 
L 3719 1141 
Q 3756 1284 3769 1459 
L 2425 1459 
L 2425 2134 
L 1944 1659 
Q 1800 1878 1638 2109 
L 1638 -841 
L 863 -841 
L 863 1803 
Q 619 1141 275 547 
Q 213 978 75 1691 
Q 525 2453 788 3328 
L 138 3328 
L 138 4066 
L 863 4066 
L 863 5291 
L 1638 5291 
L 1638 4066 
L 2219 4066 
L 2219 3328 
L 1638 3328 
L 1638 2972 
Q 2081 2559 2425 2209 
L 2425 3703 
L 6025 3703 
L 6025 1459 
L 4556 1459 
Q 4544 1291 4519 1141 
L 6250 1141 
L 6250 534 
z
M 5250 2009 
L 5250 2353 
L 3200 2353 
L 3200 2009 
L 5250 2009 
z
M 5250 3147 
L 3200 3147 
L 3200 2816 
L 5250 2816 
L 5250 3147 
z
M 5413 3853 
L 4675 3853 
L 4675 4203 
L 3719 4203 
L 3719 3853 
L 2981 3853 
L 2981 4203 
L 2175 4203 
L 2175 4822 
L 2981 4822 
L 2981 5291 
L 3719 5291 
L 3719 4822 
L 4675 4822 
L 4675 5291 
L 5413 5291 
L 5413 4822 
L 6275 4822 
L 6275 4203 
L 5413 4203 
L 5413 3853 
z
" transform="scale(0.015625)"/>
      <path id="MicrosoftYaHei-Bold-578b" d="M 5963 5216 
L 5963 2547 
Q 5963 2141 5752 1928 
Q 5541 1716 5095 1700 
Q 4650 1684 4269 1684 
Q 4231 2059 4150 2447 
Q 4469 2428 4813 2428 
Q 5150 2428 5150 2709 
L 5150 5216 
L 5963 5216 
z
M 150 3491 
L 891 3491 
Q 900 3616 900 4341 
L 325 4341 
L 325 5066 
L 3625 5066 
L 3625 4341 
L 3113 4341 
L 3113 3491 
L 3750 3491 
L 3750 2766 
L 3113 2766 
L 3113 2091 
L 3656 2091 
L 3656 1441 
L 5781 1441 
L 5781 678 
L 3656 678 
L 3656 103 
L 6294 103 
L 6294 -647 
L 138 -647 
L 138 103 
L 2763 103 
L 2763 678 
L 650 678 
L 650 1441 
L 2763 1441 
L 2763 1766 
L 2350 1766 
L 2350 2766 
L 1559 2766 
Q 1375 2016 888 1522 
Q 675 1697 275 2009 
Q 584 2334 741 2766 
L 150 2766 
L 150 3491 
z
M 1663 3491 
L 2350 3491 
L 2350 4341 
L 1669 4341 
Q 1669 3753 1663 3491 
z
M 3900 4866 
L 4650 4866 
L 4650 2753 
L 3900 2753 
L 3900 4866 
z
" transform="scale(0.015625)"/>
     </defs>
     <use xlink:href="#MicrosoftYaHei-Bold-7269"/>
     <use xlink:href="#MicrosoftYaHei-Bold-7406" transform="translate(100 0)"/>
     <use xlink:href="#MicrosoftYaHei-Bold-6a21" transform="translate(200 0)"/>
     <use xlink:href="#MicrosoftYaHei-Bold-578b" transform="translate(300 0)"/>
    </g>
   </g>
   <g id="text_3">
    <!-- 3 选择 -->
    <g style="fill: #ffffff" transform="translate(240.507547 92.707455) scale(0.13 -0.13)">
     <defs>
      <path id="MicrosoftYaHei-Bold-33" d="M 494 1053 
Q 978 691 1625 691 
Q 2034 691 2275 872 
Q 2516 1053 2516 1388 
Q 2516 1731 2230 1912 
Q 1944 2094 1428 2094 
L 997 2094 
L 997 2872 
L 1394 2872 
Q 2369 2872 2369 3528 
Q 2369 4147 1622 4147 
Q 1134 4147 675 3828 
L 675 4663 
Q 1175 4922 1853 4922 
Q 2541 4922 2969 4605 
Q 3397 4288 3397 3725 
Q 3397 2775 2434 2531 
L 2434 2516 
Q 2941 2459 3244 2145 
Q 3547 1831 3547 1381 
Q 3547 691 3042 303 
Q 2538 -84 1697 -84 
Q 950 -84 494 163 
L 494 1053 
z
" transform="scale(0.015625)"/>
      <path id="MicrosoftYaHei-Bold-9009" d="M 5419 2003 
Q 5781 1834 6169 1691 
Q 6059 981 5973 786 
Q 5888 591 5697 487 
Q 5506 384 5219 384 
L 4781 384 
Q 4038 384 4038 1216 
L 4038 2216 
L 3566 2216 
Q 3525 1400 3262 1004 
Q 3000 609 2481 291 
Q 2256 572 1919 909 
Q 2213 1084 2466 1364 
Q 2719 1644 2759 2216 
L 1869 2216 
L 1869 2953 
L 3694 2953 
L 3694 3647 
L 2841 3647 
Q 2722 3344 2606 3097 
Q 2300 3253 1906 3434 
Q 2263 4159 2550 5147 
L 3281 4909 
L 3109 4384 
L 3694 4384 
L 3694 5316 
L 4525 5316 
L 4525 4384 
L 5963 4384 
L 5963 3647 
L 4525 3647 
L 4525 2953 
L 6194 2953 
L 6194 2216 
L 4844 2216 
L 4844 1391 
Q 4844 1134 5031 1134 
L 5106 1134 
Q 5278 1134 5325 1254 
Q 5372 1375 5419 2003 
z
M 1025 5228 
Q 1494 4616 1869 4078 
L 1138 3584 
Q 756 4234 356 4816 
L 1025 5228 
z
M 6294 122 
Q 6131 -378 6031 -716 
L 3181 -697 
Q 1841 -697 1238 -103 
L 513 -841 
L 156 109 
Q 494 391 781 644 
L 781 2222 
L 200 2222 
L 200 3016 
L 1600 3016 
L 1600 638 
Q 2088 97 3131 97 
L 4409 91 
Q 5144 91 6294 122 
z
" transform="scale(0.015625)"/>
      <path id="MicrosoftYaHei-Bold-62e9" d="M 138 4203 
L 813 4203 
L 813 5259 
L 1631 5259 
L 1631 4203 
L 2213 4203 
L 2213 3422 
L 1631 3422 
L 1631 2450 
L 2238 2572 
Q 2163 2047 2156 1728 
L 1631 1631 
L 1631 22 
Q 1631 -359 1481 -556 
Q 1331 -753 1038 -766 
L 300 -797 
Q 238 -434 131 34 
Q 369 16 606 16 
Q 813 16 813 284 
L 813 1469 
L 156 1328 
L 106 2222 
Q 422 2253 813 2309 
L 813 3422 
L 138 3422 
L 138 4203 
z
M 5925 5066 
L 5925 4372 
Q 5522 3794 4925 3350 
Q 5547 3131 6300 3066 
Q 6100 2641 5969 2309 
Q 4938 2491 4159 2878 
Q 3403 2494 2425 2266 
Q 2294 2609 2094 2991 
Q 2834 3141 3406 3353 
Q 2975 3691 2656 4122 
L 3097 4372 
L 2350 4372 
L 2350 5066 
L 5925 5066 
z
M 4166 3706 
Q 4672 4000 4963 4372 
L 3344 4372 
Q 3706 3981 4166 3706 
z
M 1969 872 
L 3725 872 
L 3725 1322 
L 2281 1322 
L 2281 2022 
L 3725 2022 
L 3725 2434 
L 4569 2434 
L 4569 2022 
L 6013 2022 
L 6013 1322 
L 4569 1322 
L 4569 872 
L 6244 872 
L 6244 172 
L 4569 172 
L 4569 -841 
L 3725 -841 
L 3725 172 
L 1969 172 
L 1969 872 
z
" transform="scale(0.015625)"/>
     </defs>
     <use xlink:href="#MicrosoftYaHei-Bold-33"/>
     <use xlink:href="#MicrosoftYaHei-Bold-20" transform="translate(61.669922 0)"/>
     <use xlink:href="#MicrosoftYaHei-Bold-9009" transform="translate(91.455078 0)"/>
     <use xlink:href="#MicrosoftYaHei-Bold-62e9" transform="translate(191.455078 0)"/>
    </g>
    <!-- 对应公式 -->
    <g style="fill: #ffffff" transform="translate(233.452 111.526987) scale(0.13 -0.13)">
     <defs>
      <path id="MicrosoftYaHei-Bold-5bf9" d="M 3050 4234 
L 4850 4234 
L 4850 5309 
L 5744 5309 
L 5744 4234 
L 6319 4234 
L 6319 3409 
L 5744 3409 
L 5744 216 
Q 5744 -250 5539 -490 
Q 5334 -731 4987 -754 
Q 4641 -778 3656 -778 
Q 3594 -359 3450 147 
Q 3931 109 4409 109 
Q 4850 109 4850 516 
L 4850 3409 
L 3050 3409 
L 3050 4234 
z
M 863 3772 
L 1691 2509 
Q 1934 3206 2025 4016 
L 188 4016 
L 188 4834 
L 2900 4834 
L 2900 4028 
Q 2709 2722 2247 1669 
L 3169 278 
L 2394 -228 
L 1781 778 
Q 1269 -47 550 -684 
Q 369 -316 88 153 
Q 816 772 1278 1594 
L 181 3341 
L 863 3772 
z
M 3463 3047 
Q 4069 2278 4588 1528 
L 3844 1041 
Q 3375 1841 2813 2609 
L 3463 3047 
z
" transform="scale(0.015625)"/>
      <path id="MicrosoftYaHei-Bold-5e94" d="M 1438 2491 
Q 1438 119 794 -866 
Q 506 -597 88 -266 
Q 619 622 613 2603 
L 613 4566 
L 3009 4566 
Q 2894 4853 2781 5116 
L 3788 5353 
Q 3928 5016 4103 4566 
L 6225 4566 
L 6225 3797 
L 1438 3797 
L 1438 2491 
z
M 3013 3309 
L 3794 3541 
Q 4125 2678 4513 1316 
L 3669 1084 
Q 3300 2416 3013 3309 
z
M 1325 316 
L 4300 316 
Q 4681 1541 5200 3453 
L 6069 3228 
Q 5744 2006 5184 316 
L 6250 316 
L 6250 -553 
L 1325 -553 
L 1325 316 
z
M 1475 2984 
L 2225 3303 
Q 2775 2103 3244 828 
L 2406 516 
Q 2006 1684 1475 2984 
z
" transform="scale(0.015625)"/>
      <path id="MicrosoftYaHei-Bold-516c" d="M 4500 5222 
Q 5206 3791 6313 2859 
Q 5856 2403 5600 2116 
Q 4494 3141 3681 4834 
L 4500 5222 
z
M 1869 5159 
L 2725 4797 
Q 2038 3241 750 2053 
Q 538 2328 125 2778 
Q 1263 3784 1869 5159 
z
M 4269 2059 
Q 5250 872 6031 -297 
L 5213 -866 
Q 5059 -606 4884 -331 
L 1628 -500 
Q 1313 -534 981 -616 
L 594 228 
Q 1016 472 1717 1503 
Q 2419 2534 2781 3241 
L 3706 2828 
Q 2644 1184 1969 428 
Q 3194 456 4322 506 
Q 3959 1025 3525 1591 
L 4269 2059 
z
" transform="scale(0.015625)"/>
      <path id="MicrosoftYaHei-Bold-5f0f" d="M 100 4222 
L 3350 4222 
L 3281 5322 
L 4219 5322 
Q 4234 4769 4266 4222 
L 5125 4222 
Q 4856 4572 4594 4853 
L 5150 5272 
Q 5519 4891 5863 4478 
L 5531 4222 
L 6169 4222 
L 6169 3397 
L 4322 3397 
Q 4463 1363 4698 727 
Q 4934 91 5144 91 
Q 5200 91 5247 156 
Q 5294 222 5358 530 
Q 5422 838 5481 1347 
Q 5913 1072 6300 909 
Q 6131 -263 5887 -561 
Q 5644 -859 5150 -859 
Q 4269 -859 3916 128 
Q 3563 1116 3409 3397 
L 100 3397 
L 100 4222 
z
M 375 2716 
L 3200 2716 
L 3200 1897 
L 2263 1897 
L 2263 681 
L 3500 866 
Q 3481 253 3488 -34 
L 200 -516 
L 94 416 
L 1369 566 
L 1369 1897 
L 375 1897 
L 375 2716 
z
" transform="scale(0.015625)"/>
     </defs>
     <use xlink:href="#MicrosoftYaHei-Bold-5bf9"/>
     <use xlink:href="#MicrosoftYaHei-Bold-5e94" transform="translate(100 0)"/>
     <use xlink:href="#MicrosoftYaHei-Bold-516c" transform="translate(200 0)"/>
     <use xlink:href="#MicrosoftYaHei-Bold-5f0f" transform="translate(300 0)"/>
    </g>
   </g>
   <g id="text_4">
    <!-- 4 代入 -->
    <g style="fill: #ffffff" transform="translate(340.299547 92.707455) scale(0.13 -0.13)">
     <defs>
      <path id="MicrosoftYaHei-Bold-34" d="M 3184 4841 
L 3184 1766 
L 3869 1766 
L 3869 1031 
L 3184 1031 
L 3184 0 
L 2266 0 
L 2266 1031 
L 103 1031 
L 103 1772 
Q 775 2522 1362 3359 
Q 1950 4197 2250 4841 
L 3184 4841 
z
M 997 1766 
L 2266 1766 
L 2266 3541 
Q 2116 3259 1836 2859 
Q 1556 2459 997 1766 
z
" transform="scale(0.015625)"/>
      <path id="MicrosoftYaHei-Bold-4ee3" d="M 1469 5347 
L 2319 5078 
Q 2078 4359 1750 3691 
L 1750 -797 
L 931 -797 
L 931 2300 
Q 641 1884 313 1491 
Q 225 2041 88 2647 
Q 956 3797 1469 5347 
z
M 4869 5303 
Q 5444 4891 5950 4434 
Q 5600 4097 5369 3859 
Q 4844 4397 4344 4772 
L 4869 5303 
z
M 1975 3291 
L 3247 3441 
Q 3172 4288 3144 5284 
L 4013 5284 
Q 4016 4356 4088 3541 
L 6113 3784 
L 6188 3003 
L 4175 2750 
Q 4406 1206 4711 643 
Q 5016 81 5203 81 
Q 5263 81 5311 147 
Q 5359 213 5436 547 
Q 5513 881 5550 1222 
Q 5925 972 6319 797 
Q 6191 16 5970 -409 
Q 5750 -834 5275 -834 
Q 3756 -834 3334 2647 
L 2075 2491 
L 1975 3291 
z
" transform="scale(0.015625)"/>
      <path id="MicrosoftYaHei-Bold-5165" d="M 1606 4822 
L 2438 5303 
Q 3106 4778 4019 2934 
Q 4900 1134 6300 128 
Q 5769 -441 5488 -797 
Q 4138 525 3238 2369 
Q 2447 466 813 -822 
Q 525 -459 75 -3 
Q 2013 1391 2709 3494 
Q 2309 4197 1606 4822 
z
" transform="scale(0.015625)"/>
     </defs>
     <use xlink:href="#MicrosoftYaHei-Bold-34"/>
     <use xlink:href="#MicrosoftYaHei-Bold-20" transform="translate(61.669922 0)"/>
     <use xlink:href="#MicrosoftYaHei-Bold-4ee3" transform="translate(91.455078 0)"/>
     <use xlink:href="#MicrosoftYaHei-Bold-5165" transform="translate(191.455078 0)"/>
    </g>
    <!-- 计算求解 -->
    <g style="fill: #ffffff" transform="translate(333.244 111.526987) scale(0.13 -0.13)">
     <defs>
      <path id="MicrosoftYaHei-Bold-8ba1" d="M 1194 5334 
Q 1681 4678 2019 4172 
L 1219 3691 
Q 913 4241 463 4916 
L 1194 5334 
z
M 2175 3428 
L 3763 3428 
L 3763 5328 
L 4700 5328 
L 4700 3428 
L 6300 3428 
L 6300 2591 
L 4700 2591 
L 4700 -847 
L 3763 -847 
L 3763 2591 
L 2175 2591 
L 2175 3428 
z
M 2481 1341 
Q 2531 759 2588 416 
Q 1388 -366 1063 -722 
L 600 -109 
Q 756 78 756 416 
L 756 2422 
L 119 2422 
L 119 3234 
L 1588 3234 
L 1588 766 
Q 1844 916 2481 1341 
z
" transform="scale(0.015625)"/>
      <path id="MicrosoftYaHei-Bold-7b97" d="M 100 697 
L 1575 697 
Q 1603 844 1613 1003 
L 706 1003 
L 706 3694 
Q 572 3581 431 3478 
Q 325 3803 75 4228 
Q 700 4634 1119 5341 
L 2006 5341 
Q 1888 5122 1759 4922 
L 3113 4922 
L 3113 4381 
Q 3563 4788 3800 5347 
L 4619 5347 
Q 4541 5125 4450 4922 
L 6213 4922 
L 6213 4347 
L 5338 4347 
L 5513 3972 
L 4738 3816 
L 5719 3816 
L 5719 1003 
L 4906 1003 
L 4906 697 
L 6300 697 
L 6300 97 
L 4906 97 
L 4906 -809 
L 4081 -809 
L 4081 97 
L 2281 97 
Q 2050 -534 1388 -897 
Q 994 -616 581 -384 
Q 1031 -209 1291 97 
L 100 97 
L 100 697 
z
M 2575 3972 
L 1800 3816 
L 3519 3816 
Q 3203 4013 2856 4178 
Q 2969 4259 3069 4347 
L 2403 4347 
Q 2494 4156 2575 3972 
z
M 3694 3816 
L 4703 3816 
Q 4603 4106 4484 4347 
L 4131 4347 
Q 3934 4056 3694 3816 
z
M 841 3816 
L 1766 3816 
Q 1703 4031 1572 4347 
L 1344 4347 
Q 1106 4059 841 3816 
z
M 4900 3303 
L 1525 3303 
L 1525 2991 
L 4900 2991 
L 4900 3303 
z
M 1525 2253 
L 4900 2253 
L 4900 2566 
L 1525 2566 
L 1525 2253 
z
M 4900 1516 
L 4900 1828 
L 1525 1828 
L 1525 1516 
L 4900 1516 
z
M 2406 697 
L 4081 697 
L 4081 1003 
L 2428 1003 
Q 2425 856 2406 697 
z
" transform="scale(0.015625)"/>
      <path id="MicrosoftYaHei-Bold-6c42" d="M 6119 2716 
L 4691 1650 
Q 5353 1041 6306 722 
Q 6050 316 5788 -178 
Q 4369 459 3600 1766 
L 3600 309 
Q 3600 -191 3372 -461 
Q 3144 -731 2651 -764 
Q 2159 -797 1700 -797 
Q 1606 -297 1475 159 
Q 1900 134 2206 134 
Q 2725 134 2725 641 
L 2725 1216 
Q 1434 544 506 9 
L 94 834 
Q 1531 1438 2725 2081 
L 2725 3516 
L 200 3516 
L 200 4291 
L 2725 4291 
L 2725 5328 
L 3600 5328 
L 3600 4291 
L 4950 4291 
Q 4581 4578 4169 4847 
L 4719 5347 
Q 5175 5066 5656 4703 
L 5203 4291 
L 6213 4291 
L 6213 3516 
L 3600 3516 
L 3600 3294 
Q 3828 2694 4178 2219 
Q 4894 2763 5506 3359 
L 6119 2716 
z
M 1044 3303 
Q 1681 2841 2263 2341 
L 1688 1759 
Q 1144 2253 513 2753 
L 1044 3303 
z
" transform="scale(0.015625)"/>
      <path id="MicrosoftYaHei-Bold-89e3" d="M 3188 953 
L 4475 953 
L 4475 1641 
L 3888 1641 
Q 3769 1331 3619 1078 
Q 3288 1263 3013 1381 
L 3013 47 
Q 3013 -316 2888 -517 
Q 2763 -719 2517 -758 
Q 2272 -797 1963 -797 
L 1884 -403 
L 1406 -403 
L 1406 778 
L 1034 778 
Q 941 -281 656 -897 
Q 350 -516 69 -259 
Q 419 541 419 2078 
L 419 3113 
Q 359 3053 300 2997 
Q 225 3403 81 3866 
Q 725 4522 1075 5359 
L 1838 5259 
Q 1759 5072 1672 4891 
L 2806 4891 
L 2806 4303 
L 2488 3734 
L 3013 3734 
L 3013 1541 
Q 3384 2147 3488 2803 
L 4169 2709 
Q 4134 2513 4091 2328 
L 4475 2328 
L 4475 2853 
L 5263 2853 
L 5263 2328 
L 6131 2328 
L 6131 1641 
L 5263 1641 
L 5263 953 
L 6281 953 
L 6281 266 
L 5263 266 
L 5263 -822 
L 4475 -822 
L 4475 266 
L 3188 266 
L 3188 953 
z
M 963 3734 
L 1697 3734 
L 2000 4278 
L 1338 4278 
Q 1166 3997 963 3734 
z
M 2363 3134 
L 2006 3134 
L 2006 2541 
L 2363 2541 
L 2363 3134 
z
M 1081 2541 
L 1406 2541 
L 1406 3134 
L 1081 3134 
L 1081 2541 
z
M 2006 1366 
L 2363 1366 
L 2363 1953 
L 2006 1953 
L 2006 1366 
z
M 1072 1366 
L 1406 1366 
L 1406 1953 
L 1081 1953 
Q 1081 1909 1072 1366 
z
M 2363 778 
L 2006 778 
L 2006 -81 
Q 2231 -91 2297 -22 
Q 2363 47 2363 247 
L 2363 778 
z
M 4581 2978 
Q 4522 3366 4416 3697 
Q 4206 3203 3581 2816 
Q 3338 3153 3019 3484 
Q 3725 3841 3775 4416 
L 3194 4416 
L 3194 5097 
L 6119 5097 
Q 6103 3772 5973 3492 
Q 5844 3213 5614 3095 
Q 5384 2978 4581 2978 
z
M 4428 3725 
Q 4741 3709 4894 3709 
Q 5122 3709 5198 3821 
Q 5275 3934 5275 4416 
L 4581 4416 
Q 4544 4019 4428 3725 
z
" transform="scale(0.015625)"/>
     </defs>
     <use xlink:href="#MicrosoftYaHei-Bold-8ba1"/>
     <use xlink:href="#MicrosoftYaHei-Bold-7b97" transform="translate(100 0)"/>
     <use xlink:href="#MicrosoftYaHei-Bold-6c42" transform="translate(200 0)"/>
     <use xlink:href="#MicrosoftYaHei-Bold-89e3" transform="translate(300 0)"/>
    </g>
   </g>
   <g id="text_5">
    <!-- 5 检查 -->
    <g style="fill: #ffffff" transform="translate(440.091547 92.707455) scale(0.13 -0.13)">
     <defs>
      <path id="MicrosoftYaHei-Bold-35" d="M 541 125 
L 541 997 
Q 1044 691 1613 691 
Q 2041 691 2283 902 
Q 2525 1113 2525 1472 
Q 2525 2225 1494 2225 
Q 1113 2225 616 2169 
L 797 4841 
L 3359 4841 
L 3359 4009 
L 1613 4009 
L 1544 2991 
Q 1803 3013 2022 3013 
Q 2731 3013 3142 2625 
Q 3553 2238 3553 1575 
Q 3553 844 3056 380 
Q 2559 -84 1706 -84 
Q 1016 -84 541 125 
z
" transform="scale(0.015625)"/>
      <path id="MicrosoftYaHei-Bold-68c0" d="M 5463 2653 
L 2900 2653 
L 2900 2966 
Q 2688 2784 2463 2616 
Q 2238 3072 2031 3403 
L 1656 3403 
L 1656 2972 
Q 2100 2622 2519 2247 
L 2000 1616 
Q 1838 1828 1656 2028 
L 1656 -853 
L 863 -853 
L 863 1784 
Q 613 1172 275 597 
Q 175 1234 75 1741 
Q 538 2534 806 3403 
L 138 3403 
L 138 4216 
L 863 4216 
L 863 5291 
L 1656 5291 
L 1656 4216 
L 2300 4216 
L 2300 3603 
Q 3194 4291 3781 5303 
L 4781 5303 
L 4675 5128 
Q 5356 4028 6350 3484 
L 5894 2703 
Q 5669 2847 5463 3003 
L 5463 2653 
z
M 2200 122 
L 4550 122 
Q 4950 1266 5144 2316 
L 5975 2116 
Q 5756 1341 5344 122 
L 6175 122 
L 6175 -641 
L 2200 -641 
L 2200 122 
z
M 2956 2147 
Q 3313 1347 3588 503 
L 2850 259 
Q 2631 1047 2281 1884 
L 2956 2147 
z
M 4263 2441 
Q 4513 1584 4669 759 
L 3931 591 
Q 3844 1203 3581 2272 
L 4263 2441 
z
M 4194 4422 
Q 3813 3872 3363 3403 
L 5013 3403 
Q 4581 3834 4194 4422 
z
" transform="scale(0.015625)"/>
      <path id="MicrosoftYaHei-Bold-67e5" d="M 875 441 
L 875 2719 
Q 634 2609 375 2509 
Q 256 2891 88 3241 
Q 1316 3584 2109 4172 
L 325 4172 
L 325 4803 
L 2794 4803 
L 2794 5341 
L 3600 5341 
L 3600 4803 
L 6075 4803 
L 6075 4172 
L 4200 4172 
Q 4972 3603 6294 3359 
Q 6156 3028 6019 2591 
Q 5753 2672 5513 2763 
L 5513 441 
L 875 441 
z
M 3600 3981 
L 3600 3203 
L 2794 3203 
L 2794 3953 
Q 2316 3481 1584 3072 
L 4809 3072 
Q 4050 3463 3600 3981 
z
M 4688 2441 
L 1700 2441 
L 1700 2047 
L 4688 2047 
L 4688 2441 
z
M 4688 1072 
L 4688 1466 
L 1700 1466 
L 1700 1072 
L 4688 1072 
z
M 6181 -622 
L 200 -622 
L 200 103 
L 6181 103 
L 6181 -622 
z
" transform="scale(0.015625)"/>
     </defs>
     <use xlink:href="#MicrosoftYaHei-Bold-35"/>
     <use xlink:href="#MicrosoftYaHei-Bold-20" transform="translate(61.669922 0)"/>
     <use xlink:href="#MicrosoftYaHei-Bold-68c0" transform="translate(91.455078 0)"/>
     <use xlink:href="#MicrosoftYaHei-Bold-67e5" transform="translate(191.455078 0)"/>
    </g>
    <!-- 单位和结果 -->
    <g style="fill: #ffffff" transform="translate(426.536 111.526987) scale(0.13 -0.13)">
     <defs>
      <path id="MicrosoftYaHei-Bold-5355" d="M 606 4403 
L 1750 4403 
Q 1534 4713 1306 5003 
L 2056 5341 
L 2706 4578 
L 2313 4403 
L 3569 4403 
Q 3944 4884 4244 5353 
L 5188 5016 
Q 4969 4781 4628 4403 
L 5806 4403 
L 5806 1297 
L 3644 1297 
L 3644 866 
L 6288 866 
L 6288 97 
L 3644 97 
L 3644 -834 
L 2769 -834 
L 2769 97 
L 113 97 
L 113 866 
L 2769 866 
L 2769 1297 
L 606 1297 
L 606 4403 
z
M 4981 3678 
L 3644 3678 
L 3644 3172 
L 4981 3172 
L 4981 3678 
z
M 1431 3172 
L 2769 3172 
L 2769 3678 
L 1431 3678 
L 1431 3172 
z
M 4981 2022 
L 4981 2528 
L 3644 2528 
L 3644 2022 
L 4981 2022 
z
M 1431 2022 
L 2769 2022 
L 2769 2528 
L 1431 2528 
L 1431 2022 
z
" transform="scale(0.015625)"/>
      <path id="MicrosoftYaHei-Bold-4f4d" d="M 2075 4297 
L 3725 4297 
Q 3584 4663 3381 5103 
L 4281 5347 
Q 4513 4878 4706 4428 
L 4213 4297 
L 6106 4297 
L 6106 3491 
L 2075 3491 
L 2075 4297 
z
M 1363 5297 
L 2163 5053 
Q 1919 4388 1669 3791 
L 1669 -866 
L 831 -866 
L 831 2050 
Q 597 1628 356 1259 
Q 263 1709 81 2328 
Q 719 3384 1363 5297 
z
M 1944 234 
L 4047 234 
Q 4566 1672 4925 3266 
L 5906 2991 
Q 5756 2584 4938 234 
L 6319 234 
L 6319 -572 
L 1944 -572 
L 1944 234 
z
M 3075 3228 
Q 3313 2597 3913 834 
L 3056 559 
Q 2619 2066 2288 2972 
L 3075 3228 
z
" transform="scale(0.015625)"/>
      <path id="MicrosoftYaHei-Bold-548c" d="M 94 1147 
Q 725 1816 1106 2716 
L 150 2716 
L 150 3522 
L 1225 3522 
L 1225 4209 
Q 784 4169 338 4141 
Q 300 4472 238 4903 
Q 1681 5016 2875 5166 
L 3025 4403 
Q 2547 4341 2056 4288 
L 2056 3522 
L 3044 3522 
L 3044 2716 
L 2056 2716 
L 2056 1997 
L 2288 2241 
Q 2756 1878 3188 1491 
L 2650 853 
Q 2344 1181 2056 1453 
L 2056 -803 
L 1225 -803 
L 1225 1441 
Q 875 734 419 159 
Q 306 559 94 1147 
z
M 3244 -553 
L 3244 4797 
L 5994 4797 
L 5994 -516 
L 5156 -516 
L 5156 28 
L 4081 28 
L 4081 -553 
L 3244 -553 
z
M 5156 3966 
L 4081 3966 
L 4081 859 
L 5156 859 
L 5156 3966 
z
" transform="scale(0.015625)"/>
      <path id="MicrosoftYaHei-Bold-7ed3" d="M 2538 3128 
L 3850 3128 
L 3850 3809 
L 2472 3809 
L 2681 3709 
Q 1906 2528 1350 1784 
Q 1800 1841 2313 1891 
Q 2275 1466 2263 1116 
Q 894 966 400 834 
L 156 1534 
Q 553 1884 1100 2697 
Q 631 2663 288 2616 
L 56 3328 
Q 550 3934 1138 5366 
L 1963 5059 
Q 1469 4134 988 3397 
L 1563 3425 
L 1938 4066 
L 2350 3869 
L 2350 4553 
L 3850 4553 
L 3850 5341 
L 4725 5341 
L 4725 4553 
L 6288 4553 
L 6288 3809 
L 4725 3809 
L 4725 3128 
L 6100 3128 
L 6100 2384 
L 2538 2384 
L 2538 3128 
z
M 2594 -841 
L 2594 1847 
L 6025 1847 
L 6025 -841 
L 5188 -841 
L 5188 -472 
L 3431 -472 
L 3431 -841 
L 2594 -841 
z
M 5188 1084 
L 3431 1084 
L 3431 291 
L 5188 291 
L 5188 1084 
z
M 231 -516 
L 94 359 
Q 1175 497 2406 684 
Q 2369 159 2375 -184 
Q 1263 -341 231 -516 
z
" transform="scale(0.015625)"/>
      <path id="MicrosoftYaHei-Bold-679c" d="M 225 1753 
L 2788 1753 
L 2788 2178 
L 788 2178 
L 788 5091 
L 5638 5091 
L 5638 2178 
L 3638 2178 
L 3638 1753 
L 6181 1753 
L 6181 978 
L 4197 978 
Q 5197 353 6338 178 
Q 6100 -291 5975 -659 
Q 4516 -222 3638 663 
L 3638 -841 
L 2788 -841 
L 2788 616 
Q 1991 -172 581 -691 
Q 388 -316 150 91 
Q 1481 384 2269 978 
L 225 978 
L 225 1753 
z
M 4800 4416 
L 3638 4416 
L 3638 3972 
L 4800 3972 
L 4800 4416 
z
M 1625 3972 
L 2788 3972 
L 2788 4416 
L 1625 4416 
L 1625 3972 
z
M 4800 2853 
L 4800 3297 
L 3638 3297 
L 3638 2853 
L 4800 2853 
z
M 1625 2853 
L 2788 2853 
L 2788 3297 
L 1625 3297 
L 1625 2853 
z
" transform="scale(0.015625)"/>
     </defs>
     <use xlink:href="#MicrosoftYaHei-Bold-5355"/>
     <use xlink:href="#MicrosoftYaHei-Bold-4f4d" transform="translate(100 0)"/>
     <use xlink:href="#MicrosoftYaHei-Bold-548c" transform="translate(200 0)"/>
     <use xlink:href="#MicrosoftYaHei-Bold-7ed3" transform="translate(300 0)"/>
     <use xlink:href="#MicrosoftYaHei-Bold-679c" transform="translate(400 0)"/>
    </g>
   </g>
   <g id="patch_7">
    <path d="M 103.675887 98.537143 
Q 109.762588 98.537143 113.054204 98.537143 
" style="fill: none; stroke: #7f8c8d; stroke-width: 2.5; stroke-linecap: round"/>
    <path d="M 109.054204 96.537143 
L 113.054204 98.537143 
L 109.054204 100.537143 
" style="fill: none; stroke: #7f8c8d; stroke-width: 2.5; stroke-linecap: round"/>
   </g>
   <g id="patch_8">
    <path d="M 203.467887 98.537143 
Q 209.554588 98.537143 212.846204 98.537143 
" style="fill: none; stroke: #7f8c8d; stroke-width: 2.5; stroke-linecap: round"/>
    <path d="M 208.846204 96.537143 
L 212.846204 98.537143 
L 208.846204 100.537143 
" style="fill: none; stroke: #7f8c8d; stroke-width: 2.5; stroke-linecap: round"/>
   </g>
   <g id="patch_9">
    <path d="M 303.259887 98.537143 
Q 309.346588 98.537143 312.638204 98.537143 
" style="fill: none; stroke: #7f8c8d; stroke-width: 2.5; stroke-linecap: round"/>
    <path d="M 308.638204 96.537143 
L 312.638204 98.537143 
L 308.638204 100.537143 
" style="fill: none; stroke: #7f8c8d; stroke-width: 2.5; stroke-linecap: round"/>
   </g>
   <g id="patch_10">
    <path d="M 403.051887 98.537143 
Q 409.138588 98.537143 412.430204 98.537143 
" style="fill: none; stroke: #7f8c8d; stroke-width: 2.5; stroke-linecap: round"/>
    <path d="M 408.430204 96.537143 
L 412.430204 98.537143 
L 408.430204 100.537143 
" style="fill: none; stroke: #7f8c8d; stroke-width: 2.5; stroke-linecap: round"/>
   </g>
   <g id="text_6">
    <g id="patch_11">
     <path d="M 167.4 243.974576 
L 401.4 243.974576 
Q 406.6 243.974576 406.6 238.774576 
L 406.6 225.150982 
Q 406.6 219.950982 401.4 219.950982 
L 167.4 219.950982 
Q 162.2 219.950982 162.2 225.150982 
L 162.2 238.774576 
Q 162.2 243.974576 167.4 243.974576 
z
" style="fill: #ecf0f1"/>
    </g>
    <!-- 每做一题跑一遍流程，养成解题肌肉记忆 -->
    <g style="fill: #2c3e50" transform="translate(167.4 235.542857) scale(0.13 -0.13)">
     <defs>
      <path id="MicrosoftYaHei-6bcf" d="M 125 2203 
L 1044 2203 
L 1325 3766 
L 5456 3766 
Q 5422 2928 5391 2203 
L 6300 2203 
L 6300 1753 
L 5372 1753 
Q 5344 1141 5319 616 
L 6075 616 
L 6075 178 
L 5284 178 
Q 5222 -278 5031 -484 
Q 4788 -753 4181 -753 
Q 3831 -753 3288 -728 
Q 3256 -516 3194 -222 
Q 3838 -278 4119 -278 
Q 4513 -278 4638 -128 
Q 4722 -41 4766 178 
L 763 178 
L 763 647 
L 963 1753 
L 125 1753 
L 125 2203 
z
M 4866 1753 
L 1472 1753 
L 1275 616 
L 4813 616 
Q 4844 1172 4866 1753 
z
M 4925 3328 
L 1750 3328 
L 1553 2203 
L 4888 2203 
Q 4906 2753 4925 3328 
z
M 100 3522 
Q 1025 4309 1550 5359 
L 2113 5359 
Q 1966 5069 1803 4803 
L 6156 4803 
L 6156 4353 
L 1509 4353 
Q 1022 3659 413 3134 
Q 281 3316 100 3522 
z
M 2619 2978 
L 2913 3303 
Q 3388 2934 3750 2622 
L 3413 2247 
Q 3025 2628 2619 2978 
z
M 2569 1391 
L 2863 1716 
Q 3338 1347 3700 1034 
L 3369 666 
Q 2888 1116 2569 1391 
z
" transform="scale(0.015625)"/>
      <path id="MicrosoftYaHei-505a" d="M 4581 5284 
L 5038 5209 
Q 4925 4616 4781 4097 
L 6263 4097 
L 6263 3691 
L 5944 3691 
Q 5856 1897 5313 784 
Q 5713 97 6331 -316 
Q 6169 -547 6038 -778 
Q 5444 -303 5050 334 
Q 4613 -322 3950 -903 
Q 3825 -722 3638 -509 
Q 4394 128 4794 797 
Q 4394 1647 4281 2741 
Q 4131 2422 3963 2141 
Q 3850 2328 3688 2541 
Q 4331 3672 4581 5284 
z
M 1825 2359 
L 2538 2359 
L 2538 3603 
L 1544 3603 
L 1544 4028 
L 2538 4028 
L 2538 5241 
L 3000 5241 
L 3000 4028 
L 3994 4028 
L 3994 3603 
L 3000 3603 
L 3000 2359 
L 3750 2359 
L 3750 66 
L 2275 66 
L 2275 -366 
L 1825 -366 
L 1825 2359 
z
M 38 2328 
Q 850 3622 1238 5284 
L 1700 5166 
Q 1500 4434 1263 3797 
L 1263 -847 
L 838 -847 
L 838 2822 
Q 556 2266 238 1803 
Q 150 2053 38 2328 
z
M 3300 1947 
L 2275 1947 
L 2275 478 
L 3300 478 
L 3300 1947 
z
M 5481 3691 
L 4656 3691 
Q 4631 3616 4606 3547 
Q 4681 2241 5056 1316 
Q 5425 2222 5481 3691 
z
" transform="scale(0.015625)"/>
      <path id="MicrosoftYaHei-4e00" d="M 100 2703 
L 6313 2703 
L 6313 2153 
L 100 2153 
L 100 2703 
z
" transform="scale(0.015625)"/>
      <path id="MicrosoftYaHei-9898" d="M 88 -291 
Q 544 328 581 1622 
L 1013 1622 
Q 994 1234 950 884 
Q 1181 466 1538 209 
L 1538 1916 
L 138 1916 
L 138 2322 
L 3025 2322 
L 3025 1916 
L 1950 1916 
L 1950 1253 
L 2956 1253 
L 2956 847 
L 1950 847 
L 1950 -16 
Q 2369 -184 2906 -197 
Q 4006 -266 6300 -166 
Q 6231 -372 6125 -659 
Q 3888 -716 2906 -634 
Q 1513 -597 850 347 
Q 688 -359 363 -878 
Q 238 -584 88 -291 
z
M 525 5041 
L 2725 5041 
L 2725 2634 
L 2313 2634 
L 2313 2828 
L 938 2828 
L 938 2634 
L 525 2634 
L 525 5041 
z
M 3263 3878 
L 4169 3878 
Q 4231 4247 4275 4591 
L 3031 4591 
L 3031 4997 
L 6169 4997 
L 6169 4591 
L 4738 4591 
Q 4681 4222 4613 3878 
L 5838 3878 
L 5838 1228 
L 5425 1228 
L 5425 3472 
L 3675 3472 
L 3675 1228 
L 3263 1228 
L 3263 3878 
z
M 4344 3203 
L 4756 3203 
L 4756 2422 
Q 4756 1809 4631 1372 
Q 5594 678 6050 284 
L 5713 -47 
Q 5213 422 4481 972 
Q 4444 903 4406 841 
Q 4031 241 3131 -109 
Q 2988 72 2794 259 
Q 3669 547 4006 1028 
Q 4344 1503 4344 2441 
L 4344 3203 
z
M 938 3203 
L 2313 3203 
L 2313 3753 
L 938 3753 
L 938 3203 
z
M 2313 4666 
L 938 4666 
L 938 4122 
L 2313 4122 
L 2313 4666 
z
" transform="scale(0.015625)"/>
      <path id="MicrosoftYaHei-8dd1" d="M 88 -34 
Q 253 -9 425 16 
L 425 2428 
L 844 2428 
L 844 81 
Q 1097 122 1356 166 
L 1356 3059 
L 950 3059 
L 950 2866 
L 525 2866 
L 525 4984 
L 2413 4984 
L 2413 3400 
Q 3038 4272 3456 5334 
L 3900 5178 
Q 3756 4844 3603 4534 
L 5856 4534 
Q 5800 2484 5738 1591 
Q 5669 566 4756 566 
Q 4450 566 3950 591 
Q 3931 847 3863 1084 
Q 4363 1022 4706 1022 
Q 5231 1016 5288 1672 
Q 5350 2509 5388 4109 
L 3384 4109 
Q 3172 3713 2947 3359 
L 4675 3359 
L 4675 1591 
L 3288 1591 
L 3288 272 
Q 3288 -134 3700 -134 
L 5213 -134 
Q 5638 -134 5725 228 
Q 5788 484 5844 866 
Q 6125 722 6319 672 
Q 6244 303 6150 -16 
Q 6000 -572 5313 -572 
L 3631 -572 
Q 2850 -572 2850 203 
L 2850 3209 
Q 2691 2972 2525 2753 
Q 2463 2878 2322 3059 
L 1781 3059 
L 1781 1997 
L 2531 1997 
L 2531 1591 
L 1781 1591 
L 1781 241 
Q 2169 313 2569 391 
Q 2563 141 2581 -59 
Q 1538 -259 206 -528 
L 88 -34 
z
M 1988 3447 
L 1988 4597 
L 950 4597 
L 950 3447 
L 1988 3447 
z
M 4238 2009 
L 4238 2941 
L 3288 2941 
L 3288 2009 
L 4238 2009 
z
" transform="scale(0.015625)"/>
      <path id="MicrosoftYaHei-904d" d="M 2038 4747 
L 3900 4747 
Q 3769 4981 3644 5166 
L 4088 5378 
Q 4269 5094 4463 4747 
L 5956 4747 
L 5956 3116 
L 5519 3116 
L 5519 3316 
L 2475 3316 
Q 2450 1375 1750 416 
Q 1619 622 1431 803 
Q 2038 1666 2038 3472 
L 2038 4747 
z
M 3000 28 
L 2600 28 
L 2600 2766 
L 6050 2766 
L 6050 609 
Q 6050 34 5550 22 
Q 5356 9 5138 16 
Q 5106 191 5044 428 
Q 5250 409 5381 409 
Q 5631 409 5631 659 
L 5631 1247 
L 5000 1247 
L 5000 241 
L 4613 241 
L 4613 1247 
L 4000 1247 
L 4000 197 
L 3613 197 
L 3613 1247 
L 3000 1247 
L 3000 28 
z
M 2688 -228 
L 4200 -247 
L 6319 -197 
Q 6213 -441 6113 -678 
L 4031 -697 
L 2644 -672 
Q 1594 -666 1088 47 
Q 906 -97 356 -753 
L 88 -222 
Q 488 138 863 456 
L 863 2641 
L 150 2641 
L 150 3097 
L 1350 3097 
L 1350 363 
Q 1803 -200 2688 -228 
z
M 5519 4359 
L 2475 4359 
L 2475 3703 
L 5519 3703 
L 5519 4359 
z
M 731 5266 
Q 1125 4809 1600 4197 
L 1150 3897 
Q 719 4534 344 4984 
L 731 5266 
z
M 5631 2391 
L 5000 2391 
L 5000 1609 
L 5631 1609 
L 5631 2391 
z
M 4000 1609 
L 4613 1609 
L 4613 2391 
L 4000 2391 
L 4000 1609 
z
M 3000 1609 
L 3613 1609 
L 3613 2391 
L 3000 2391 
L 3000 1609 
z
" transform="scale(0.015625)"/>
      <path id="MicrosoftYaHei-6d41" d="M 5013 3741 
Q 5500 3178 6094 2372 
Q 5863 2228 5644 2078 
Q 5488 2306 5341 2516 
Q 3806 2447 2519 2378 
Q 2319 2372 2019 2303 
L 1806 2772 
Q 2038 2891 2244 3059 
Q 2728 3472 3206 4078 
L 1819 4078 
L 1819 4522 
L 3803 4522 
Q 3566 4891 3350 5166 
L 3763 5422 
Q 3994 5128 4288 4734 
L 3963 4522 
L 6088 4522 
L 6088 4078 
L 3325 4078 
L 3738 3903 
Q 3156 3278 2650 2853 
Q 3659 2884 5041 2934 
Q 4822 3228 4625 3478 
L 5013 3741 
z
M 4681 2109 
L 5150 2109 
L 5150 16 
Q 5150 -272 5375 -272 
L 5594 -272 
Q 5788 -272 5838 47 
Q 5881 384 5894 834 
Q 6113 734 6363 653 
Q 6319 128 6269 -153 
Q 6194 -709 5675 -709 
L 5288 -709 
Q 4681 -709 4681 22 
L 4681 2109 
z
M 2306 2084 
L 2781 2084 
Q 2781 716 2525 166 
Q 2269 -441 1488 -866 
Q 1344 -634 1169 -453 
Q 1881 -78 2075 409 
Q 2306 884 2306 2084 
z
M 275 -616 
Q 650 484 925 1809 
Q 1200 1691 1431 1616 
Q 1150 534 825 -784 
L 275 -616 
z
M 3538 2084 
L 4006 2084 
L 4006 -703 
L 3538 -703 
L 3538 2084 
z
M 81 3247 
L 394 3609 
Q 900 3259 1456 2803 
Q 1231 2541 1094 2397 
Q 444 2978 81 3247 
z
M 325 4878 
L 644 5209 
Q 1100 4847 1663 4347 
L 1294 3978 
Q 775 4503 325 4878 
z
" transform="scale(0.015625)"/>
      <path id="MicrosoftYaHei-7a0b" d="M 2750 5028 
L 5850 5028 
L 5850 2884 
L 5375 2884 
L 5375 3141 
L 3225 3141 
L 3225 2884 
L 2750 2884 
L 2750 5028 
z
M 44 903 
Q 663 1806 994 3041 
L 119 3041 
L 119 3453 
L 1094 3453 
L 1094 4431 
Q 700 4375 288 4328 
Q 238 4541 156 4759 
Q 1219 4847 2300 5097 
L 2438 4659 
Q 2003 4572 1544 4497 
L 1544 3453 
L 2413 3453 
L 2413 3041 
L 1544 3041 
L 1544 2216 
L 1788 2428 
Q 2038 2172 2519 1609 
L 2144 1303 
Q 1781 1766 1544 2050 
L 1544 -841 
L 1094 -841 
L 1094 2153 
Q 763 1078 256 359 
Q 156 628 44 903 
z
M 2250 -84 
L 4038 -84 
L 4038 841 
L 2619 841 
L 2619 1259 
L 4038 1259 
L 4038 2109 
L 2469 2109 
L 2469 2528 
L 6113 2528 
L 6113 2109 
L 4538 2109 
L 4538 1259 
L 5956 1259 
L 5956 841 
L 4538 841 
L 4538 -84 
L 6325 -84 
L 6325 -503 
L 2250 -503 
L 2250 -84 
z
M 5375 4603 
L 3225 4603 
L 3225 3566 
L 5375 3566 
L 5375 4603 
z
" transform="scale(0.015625)"/>
      <path id="MicrosoftYaHei-ff0c" d="M 1931 775 
L 1403 -891 
L 966 -891 
L 1350 775 
L 1931 775 
z
" transform="scale(0.015625)"/>
      <path id="MicrosoftYaHei-517b" d="M 3950 1347 
L 4431 1347 
Q 3994 1641 3669 2047 
L 2806 2047 
Q 2550 1684 1988 1341 
L 2400 1341 
Q 2400 397 2100 -28 
Q 1813 -466 869 -897 
Q 744 -697 556 -472 
Q 1456 -97 1669 222 
Q 1906 497 1913 1291 
Q 1319 947 413 622 
Q 288 841 106 1066 
Q 1588 1491 2169 2047 
L 238 2047 
L 238 2478 
L 2500 2478 
Q 2644 2722 2731 3059 
L 756 3059 
L 756 3491 
L 2813 3491 
Q 2844 3753 2850 4059 
L 531 4059 
L 531 4491 
L 2138 4491 
Q 1900 4784 1638 5047 
L 1963 5334 
Q 2300 5053 2600 4716 
L 2350 4491 
L 3700 4491 
Q 3981 4828 4356 5341 
L 4794 5066 
Q 4544 4772 4269 4491 
L 5869 4491 
L 5869 4059 
L 3338 4059 
Q 3325 3753 3294 3491 
L 5569 3491 
L 5569 3059 
L 3225 3059 
Q 3156 2728 3050 2478 
L 6163 2478 
L 6163 2047 
L 4275 2047 
Q 4994 1397 6300 1203 
Q 6150 947 6013 684 
Q 5094 897 4438 1341 
L 4438 -859 
L 3950 -859 
L 3950 1347 
z
" transform="scale(0.015625)"/>
      <path id="MicrosoftYaHei-6210" d="M 2750 -347 
Q 3472 138 4038 781 
Q 3675 1703 3609 3759 
L 1250 3759 
L 1250 2809 
L 3050 2809 
Q 3013 1616 2950 803 
Q 2875 -59 2113 -59 
Q 1856 -59 1431 -34 
Q 1394 197 1331 484 
Q 1769 422 2063 422 
Q 2425 422 2469 922 
Q 2519 1497 2544 2347 
L 1247 2347 
Q 1197 175 369 -866 
Q 213 -653 44 -434 
Q 750 503 750 2528 
L 750 4222 
L 3591 4222 
Q 3569 4716 3550 5291 
L 4069 5291 
Q 4066 4850 4084 4222 
L 6238 4222 
L 6238 3759 
L 4100 3759 
Q 4163 2078 4409 1247 
Q 5016 2069 5406 3109 
L 5900 2903 
Q 5363 1631 4609 691 
Q 5069 -244 5506 -244 
Q 5666 -244 5750 47 
Q 5838 503 5888 984 
Q 6156 878 6363 809 
Q 6269 141 6156 -284 
Q 6038 -741 5631 -778 
Q 5250 -803 4900 -522 
Q 4522 -231 4256 278 
Q 3728 -291 3106 -722 
Q 2944 -534 2750 -347 
z
M 4544 4984 
L 4806 5309 
Q 5331 5009 5788 4684 
L 5488 4309 
Q 5038 4666 4544 4984 
z
" transform="scale(0.015625)"/>
      <path id="MicrosoftYaHei-89e3" d="M 75 3559 
Q 756 4316 1188 5322 
L 1625 5203 
Q 1497 4941 1366 4697 
L 2544 4697 
L 2544 4309 
L 2084 3641 
L 2881 3641 
L 2881 -128 
Q 2881 -753 2263 -759 
Q 1994 -766 1706 -747 
Q 1688 -591 1638 -328 
Q 1938 -359 2175 -359 
Q 2475 -359 2475 -66 
L 2475 953 
L 1913 953 
L 1913 -203 
L 1506 -203 
L 1506 953 
L 950 953 
Q 897 -225 438 -847 
Q 294 -684 88 -528 
Q 550 153 550 1303 
L 550 3428 
Q 463 3319 375 3216 
Q 269 3359 75 3559 
z
M 3075 897 
L 4550 897 
L 4550 1797 
L 3794 1797 
Q 3659 1438 3513 1122 
Q 3331 1228 3106 1309 
Q 3456 2059 3663 2828 
L 4094 2709 
Q 4019 2456 3941 2222 
L 4550 2222 
L 4550 2897 
L 5013 2897 
L 5013 2222 
L 6131 2222 
L 6131 1797 
L 5013 1797 
L 5013 897 
L 6281 897 
L 6281 472 
L 5013 472 
L 5013 -841 
L 4550 -841 
L 4550 472 
L 3075 472 
L 3075 897 
z
M 3138 4997 
L 5950 4997 
Q 5931 4384 5888 3847 
Q 5844 3084 5081 3084 
Q 4819 3084 4438 3103 
Q 4400 3366 4350 3603 
Q 4800 3547 5056 3547 
Q 5394 3547 5425 3909 
Q 5456 4191 5469 4572 
L 4284 4572 
Q 4263 3950 4063 3584 
Q 3844 3159 3219 2759 
Q 3119 2916 2919 3159 
Q 3438 3441 3638 3778 
Q 3806 4050 3828 4572 
L 3138 4572 
L 3138 4997 
z
M 709 3641 
L 1581 3641 
L 2038 4316 
L 1150 4316 
Q 934 3950 709 3641 
z
M 1913 1322 
L 2475 1322 
L 2475 2116 
L 1913 2116 
L 1913 1322 
z
M 2475 3272 
L 1913 3272 
L 1913 2484 
L 2475 2484 
L 2475 3272 
z
M 956 1322 
L 1506 1322 
L 1506 2116 
L 956 2116 
L 956 1322 
z
M 956 2484 
L 1506 2484 
L 1506 3272 
L 956 3272 
L 956 2484 
z
" transform="scale(0.015625)"/>
      <path id="MicrosoftYaHei-808c" d="M 569 4941 
L 2344 4941 
L 2344 -78 
Q 2344 -722 1738 -722 
Q 1444 -722 1125 -709 
Q 1106 -534 1050 -247 
Q 1381 -284 1638 -284 
Q 1875 -284 1875 -16 
L 1875 1416 
L 1038 1416 
Q 1034 -50 469 -847 
Q 306 -666 81 -497 
Q 569 272 569 1447 
L 569 4941 
z
M 3638 4459 
L 3638 2778 
Q 3638 1209 3475 566 
Q 3300 -159 2744 -834 
Q 2588 -628 2406 -434 
Q 2869 116 3025 772 
Q 3163 1359 3163 2778 
L 3163 4928 
L 5219 4928 
L 5219 53 
Q 5219 -153 5400 -153 
L 5550 -153 
Q 5744 -153 5781 216 
Q 5813 491 5850 1253 
Q 6106 1147 6319 1059 
Q 6294 753 6231 53 
Q 6156 -603 5644 -603 
L 5344 -603 
Q 4744 -603 4744 66 
L 4744 4459 
L 3638 4459 
z
M 1038 1828 
L 1875 1828 
L 1875 2972 
L 1038 2972 
L 1038 1828 
z
M 1875 4522 
L 1038 4522 
L 1038 3384 
L 1875 3384 
L 1875 4522 
z
" transform="scale(0.015625)"/>
      <path id="MicrosoftYaHei-8089" d="M 3006 5291 
L 3500 5291 
Q 3503 4803 3456 4416 
L 5850 4416 
L 5850 -28 
Q 5850 -709 5138 -709 
Q 4731 -709 4125 -697 
Q 4094 -478 4038 -178 
Q 4613 -222 5006 -222 
Q 5356 -222 5356 97 
L 5356 3966 
L 3378 3966 
Q 3341 3809 3294 3678 
Q 4394 3022 5106 2541 
L 4781 2153 
Q 3928 2788 3097 3288 
Q 2713 2684 1663 2097 
Q 1500 2328 1331 2509 
Q 2656 3172 2863 3966 
L 1038 3966 
L 1038 -803 
L 544 -803 
L 544 4416 
L 2959 4416 
Q 3009 4791 3006 5291 
z
M 3456 2622 
Q 3459 2197 3338 1828 
Q 4344 1203 5069 678 
L 4756 278 
Q 3928 900 3156 1416 
Q 2709 631 1594 141 
Q 1463 334 1269 553 
Q 2981 1203 2969 2622 
L 3456 2622 
z
" transform="scale(0.015625)"/>
      <path id="MicrosoftYaHei-8bb0" d="M 2975 2466 
L 2975 341 
Q 2975 -128 3425 -128 
L 5019 -128 
Q 5588 -128 5663 291 
Q 5731 628 5794 1266 
Q 6063 1159 6319 1084 
Q 6238 503 6138 72 
Q 6000 -603 5125 -603 
L 3250 -603 
Q 2488 -603 2488 197 
L 2488 2928 
L 5375 2928 
L 5375 4534 
L 2225 4534 
L 2225 4997 
L 5863 4997 
L 5863 2166 
L 5375 2166 
L 5375 2466 
L 2975 2466 
z
M 2206 716 
Q 2225 391 2250 178 
Q 1438 -366 994 -722 
L 700 -303 
Q 913 -141 913 259 
L 913 2703 
L 100 2703 
L 100 3166 
L 1400 3166 
L 1400 147 
Q 1775 403 2206 716 
z
M 806 5222 
Q 1488 4522 1794 4184 
L 1356 3816 
Q 963 4334 425 4891 
L 806 5222 
z
" transform="scale(0.015625)"/>
      <path id="MicrosoftYaHei-5fc6" d="M 1038 5259 
L 1531 5259 
L 1531 3947 
L 1769 4134 
Q 2200 3703 2563 3228 
L 2188 2922 
Q 1881 3397 1531 3772 
L 1531 -847 
L 1038 -847 
L 1038 5259 
z
M 381 3816 
L 819 3753 
Q 700 2903 531 2153 
Q 344 2203 88 2253 
Q 263 2903 381 3816 
z
M 5794 1628 
Q 5950 1553 6319 1441 
Q 6269 772 6175 234 
Q 6044 -547 5119 -566 
Q 4075 -603 3181 -566 
Q 2363 -522 2194 -34 
Q 2038 453 2581 1241 
Q 3350 2334 5131 4322 
L 2350 4322 
L 2350 4797 
L 5769 4797 
L 5769 4278 
Q 4069 2409 3150 1153 
Q 2625 422 2681 172 
Q 2731 -78 3369 -91 
Q 4131 -122 5025 -84 
Q 5594 -66 5675 422 
Q 5750 816 5794 1628 
z
" transform="scale(0.015625)"/>
     </defs>
     <use xlink:href="#MicrosoftYaHei-6bcf"/>
     <use xlink:href="#MicrosoftYaHei-505a" transform="translate(100 0)"/>
     <use xlink:href="#MicrosoftYaHei-4e00" transform="translate(200 0)"/>
     <use xlink:href="#MicrosoftYaHei-9898" transform="translate(300 0)"/>
     <use xlink:href="#MicrosoftYaHei-8dd1" transform="translate(400 0)"/>
     <use xlink:href="#MicrosoftYaHei-4e00" transform="translate(500 0)"/>
     <use xlink:href="#MicrosoftYaHei-904d" transform="translate(600 0)"/>
     <use xlink:href="#MicrosoftYaHei-6d41" transform="translate(700 0)"/>
     <use xlink:href="#MicrosoftYaHei-7a0b" transform="translate(800 0)"/>
     <use xlink:href="#MicrosoftYaHei-ff0c" transform="translate(900 0)"/>
     <use xlink:href="#MicrosoftYaHei-517b" transform="translate(1000 0)"/>
     <use xlink:href="#MicrosoftYaHei-6210" transform="translate(1100 0)"/>
     <use xlink:href="#MicrosoftYaHei-89e3" transform="translate(1200 0)"/>
     <use xlink:href="#MicrosoftYaHei-9898" transform="translate(1300 0)"/>
     <use xlink:href="#MicrosoftYaHei-808c" transform="translate(1400 0)"/>
     <use xlink:href="#MicrosoftYaHei-8089" transform="translate(1500 0)"/>
     <use xlink:href="#MicrosoftYaHei-8bb0" transform="translate(1600 0)"/>
     <use xlink:href="#MicrosoftYaHei-5fc6" transform="translate(1700 0)"/>
    </g>
   </g>
   <g id="text_7">
    <!-- 中考物理解题思维流程图 -->
    <g style="fill: #2c3e50" transform="translate(201.9 22.422857) scale(0.15 -0.15)">
     <defs>
      <path id="MicrosoftYaHei-Bold-4e2d" d="M 2719 5341 
L 3669 5341 
L 3669 4234 
L 6000 4234 
L 6000 728 
L 5075 728 
L 5075 1159 
L 3669 1159 
L 3669 -853 
L 2719 -853 
L 2719 1159 
L 1313 1159 
L 1313 709 
L 388 709 
L 388 4234 
L 2719 4234 
L 2719 5341 
z
M 5075 3372 
L 3669 3372 
L 3669 2022 
L 5075 2022 
L 5075 3372 
z
M 1313 2022 
L 2719 2022 
L 2719 3372 
L 1313 3372 
L 1313 2022 
z
" transform="scale(0.015625)"/>
      <path id="MicrosoftYaHei-Bold-8003" d="M 144 3584 
L 2294 3584 
L 2294 4084 
L 650 4084 
L 650 4797 
L 2294 4797 
L 2294 5353 
L 3144 5353 
L 3144 4797 
L 4644 4797 
L 4644 4188 
Q 5056 4569 5469 5028 
L 6094 4553 
Q 5616 4028 5088 3584 
L 6319 3584 
L 6319 2872 
L 4131 2872 
Q 3847 2684 3550 2516 
L 5794 2516 
L 5794 1816 
L 3081 1816 
L 3006 1428 
L 5375 1428 
Q 5297 719 5222 231 
Q 5147 -256 4805 -504 
Q 4463 -753 3850 -753 
Q 3269 -753 2575 -741 
Q 2494 -253 2388 103 
Q 2984 47 3763 47 
Q 4019 47 4164 137 
Q 4309 228 4343 389 
Q 4378 550 4406 728 
L 1925 728 
L 2209 1816 
L 2075 1816 
Q 1266 1488 350 1222 
Q 263 1553 94 1997 
Q 1709 2350 2772 2872 
L 144 2872 
L 144 3584 
z
M 4528 4084 
L 3144 4084 
L 3144 3584 
L 3919 3584 
Q 4222 3813 4528 4084 
z
" transform="scale(0.015625)"/>
      <path id="MicrosoftYaHei-Bold-601d" d="M 650 5066 
L 5750 5066 
L 5750 1841 
L 3363 1841 
Q 3794 1447 4144 1072 
L 3506 516 
Q 3075 1047 2644 1484 
L 3063 1841 
L 650 1841 
L 650 5066 
z
M 4900 4353 
L 3625 4353 
L 3625 3809 
L 4900 3809 
L 4900 4353 
z
M 1500 3809 
L 2775 3809 
L 2775 4353 
L 1500 4353 
L 1500 3809 
z
M 4900 2553 
L 4900 3097 
L 3625 3097 
L 3625 2553 
L 4900 2553 
z
M 1500 2553 
L 2775 2553 
L 2775 3097 
L 1500 3097 
L 1500 2553 
z
M 4250 909 
Q 4763 672 5113 534 
Q 4888 -366 4609 -553 
Q 4331 -741 3963 -741 
L 2550 -741 
Q 1613 -741 1613 122 
L 1613 1528 
L 2438 1528 
L 2438 378 
Q 2438 9 2788 9 
L 3613 9 
Q 3822 9 3958 75 
Q 4094 141 4137 305 
Q 4181 469 4250 909 
z
M 5719 1528 
Q 6013 841 6325 28 
L 5519 -272 
Q 5231 578 4944 1241 
L 5719 1528 
z
M 669 1453 
L 1444 1191 
Q 1131 284 844 -397 
L 88 -66 
Q 419 659 669 1453 
z
" transform="scale(0.015625)"/>
      <path id="MicrosoftYaHei-Bold-7ef4" d="M 4650 5353 
Q 5025 4822 5244 4459 
L 4709 4178 
L 6175 4178 
L 6175 3503 
L 5100 3503 
L 5100 2853 
L 6125 2853 
L 6125 2209 
L 5100 2209 
L 5100 1559 
L 6125 1559 
L 6125 916 
L 5100 916 
L 5100 266 
L 6250 266 
L 6250 -397 
L 3363 -397 
L 3363 -834 
L 2538 -834 
L 2538 2238 
Q 2400 2034 2256 1847 
Q 2094 2366 1919 2678 
Q 2688 3859 3063 5328 
L 3863 5116 
Q 3716 4628 3541 4178 
L 4500 4178 
Q 4306 4566 4031 5009 
L 4650 5353 
z
M 3363 2853 
L 4275 2853 
L 4275 3503 
L 3363 3503 
L 3363 2853 
z
M 3363 1559 
L 4275 1559 
L 4275 2209 
L 3363 2209 
L 3363 1559 
z
M 3363 266 
L 4275 266 
L 4275 916 
L 3363 916 
L 3363 266 
z
M 913 3416 
Q 1053 3416 1272 3425 
Q 1459 3803 1669 4259 
L 2369 3997 
Q 1725 2653 1231 1816 
Q 1581 1847 2138 1922 
Q 2081 1622 2063 1172 
Q 994 1084 444 966 
L 231 1672 
Q 500 1966 909 2725 
L 300 2672 
L 88 3359 
Q 400 3722 1019 5353 
L 1788 5122 
Q 1319 4141 913 3416 
z
M 94 397 
Q 1006 516 2294 741 
Q 2263 216 2269 -128 
Q 1294 -278 219 -478 
L 94 397 
z
" transform="scale(0.015625)"/>
      <path id="MicrosoftYaHei-Bold-6d41" d="M 1775 4666 
L 3359 4666 
Q 3256 4906 3131 5172 
L 4063 5341 
Q 4228 5003 4375 4666 
L 6038 4666 
L 6038 3928 
L 3925 3928 
Q 3528 3463 3088 3016 
L 4728 3088 
Q 4572 3278 4419 3453 
L 5094 3884 
Q 5756 3153 6275 2528 
L 5550 2022 
L 5266 2403 
Q 2725 2313 2006 2216 
L 1744 2909 
Q 2163 3056 2825 3928 
L 1775 3928 
L 1775 4666 
z
M 700 5253 
Q 1188 4909 1725 4447 
L 1163 3809 
Q 619 4347 181 4697 
L 700 5253 
z
M 631 3591 
Q 1206 3178 1656 2784 
L 1069 2134 
Q 669 2528 88 3003 
L 631 3591 
z
M 5694 1253 
Q 6000 1128 6306 1022 
Q 6241 141 6189 -156 
Q 6138 -453 5945 -618 
Q 5753 -784 5419 -784 
L 5194 -784 
Q 4475 -784 4475 -3 
L 4475 2103 
L 5281 2103 
L 5281 103 
Q 5281 -84 5406 -84 
L 5450 -84 
Q 5578 -84 5614 100 
Q 5650 284 5694 1253 
z
M 3000 2084 
L 3000 1422 
Q 3000 -128 2000 -859 
Q 1738 -591 1375 -284 
Q 2194 322 2194 1597 
L 2194 2084 
L 3000 2084 
z
M 3319 2084 
L 4125 2084 
L 4125 -709 
L 3319 -709 
L 3319 2084 
z
M 813 1916 
Q 1219 1728 1631 1591 
L 969 -803 
Q 519 -634 119 -509 
Q 481 528 813 1916 
z
" transform="scale(0.015625)"/>
      <path id="MicrosoftYaHei-Bold-7a0b" d="M 125 3484 
L 956 3484 
L 956 4172 
Q 584 4134 213 4109 
Q 169 4584 100 4909 
Q 1088 4959 2325 5172 
L 2519 4391 
Q 2138 4322 1756 4269 
L 1756 3484 
L 2469 3484 
L 2469 2741 
L 1756 2741 
L 1756 2053 
L 1931 2228 
Q 2244 1966 2744 1491 
L 2188 953 
Q 1966 1228 1756 1466 
L 1756 -866 
L 956 -866 
L 956 1544 
Q 725 841 388 203 
Q 269 741 88 1253 
Q 500 1825 838 2741 
L 125 2741 
L 125 3484 
z
M 2688 5066 
L 5944 5066 
L 5944 2966 
L 2688 2966 
L 2688 5066 
z
M 5113 4341 
L 3519 4341 
L 3519 3691 
L 5113 3691 
L 5113 4341 
z
M 2238 53 
L 3888 53 
L 3888 591 
L 2663 591 
L 2663 1291 
L 3888 1291 
L 3888 1809 
L 2550 1809 
L 2550 2534 
L 6150 2534 
L 6150 1809 
L 4744 1809 
L 4744 1291 
L 5981 1291 
L 5981 591 
L 4744 591 
L 4744 53 
L 6300 53 
L 6300 -672 
L 2238 -672 
L 2238 53 
z
" transform="scale(0.015625)"/>
      <path id="MicrosoftYaHei-Bold-56fe" d="M 369 -841 
L 369 5072 
L 6019 5072 
L 6019 -834 
L 5156 -834 
L 5156 -591 
L 1231 -591 
L 1231 -841 
L 369 -841 
z
M 4875 3978 
L 4875 3466 
Q 4547 3022 4006 2678 
Q 4513 2541 5156 2463 
L 5156 4316 
L 3256 4316 
Q 3141 4144 3009 3978 
L 4875 3978 
z
M 2394 4316 
L 1231 4316 
L 1231 3231 
Q 2016 3747 2394 4316 
z
M 3228 2959 
Q 3666 3163 3919 3416 
L 2575 3416 
Q 2828 3156 3228 2959 
z
M 1644 2747 
Q 1481 2925 1231 3147 
L 1231 2400 
Q 1950 2522 2500 2688 
Q 2266 2863 2078 3063 
Q 1872 2900 1644 2747 
z
M 1669 1303 
Q 3319 1084 4775 841 
L 4600 166 
L 5156 166 
L 5156 2388 
Q 5019 2159 4825 1822 
Q 3897 1978 3219 2275 
Q 2872 2134 2472 2019 
Q 3509 1888 4500 1722 
L 4375 1128 
Q 3344 1309 2063 1484 
L 2159 1934 
Q 1856 1859 1525 1797 
Q 1409 2059 1231 2347 
L 1231 166 
L 4569 166 
Q 3297 425 1494 647 
L 1669 1303 
z
" transform="scale(0.015625)"/>
     </defs>
     <use xlink:href="#MicrosoftYaHei-Bold-4e2d"/>
     <use xlink:href="#MicrosoftYaHei-Bold-8003" transform="translate(100 0)"/>
     <use xlink:href="#MicrosoftYaHei-Bold-7269" transform="translate(200 0)"/>
     <use xlink:href="#MicrosoftYaHei-Bold-7406" transform="translate(300 0)"/>
     <use xlink:href="#MicrosoftYaHei-Bold-89e3" transform="translate(400 0)"/>
     <use xlink:href="#MicrosoftYaHei-Bold-9898" transform="translate(500 0)"/>
     <use xlink:href="#MicrosoftYaHei-Bold-601d" transform="translate(600 0)"/>
     <use xlink:href="#MicrosoftYaHei-Bold-7ef4" transform="translate(700 0)"/>
     <use xlink:href="#MicrosoftYaHei-Bold-6d41" transform="translate(800 0)"/>
     <use xlink:href="#MicrosoftYaHei-Bold-7a0b" transform="translate(900 0)"/>
     <use xlink:href="#MicrosoftYaHei-Bold-56fe" transform="translate(1000 0)"/>
    </g>
   </g>
  </g>
 </g>
 <defs>
  <clipPath id="p59734642d2">
   <rect x="7.2" y="7.2" width="554.4" height="266.4"/>
  </clipPath>
 </defs>
</svg>
