<?xml version="1.0" encoding="utf-8" standalone="no"?>
<!DOCTYPE svg PUBLIC "-//W3C//DTD SVG 1.1//EN"
  "http://www.w3.org/Graphics/SVG/1.1/DTD/svg11.dtd">
<svg xmlns:xlink="http://www.w3.org/1999/xlink" width="456.48pt" height="240.28375pt" viewBox="0 0 456.48 240.28375" xmlns="http://www.w3.org/2000/svg" version="1.1">
 <metadata>
  <rdf:RDF xmlns:dc="http://purl.org/dc/elements/1.1/" xmlns:cc="http://creativecommons.org/ns#" xmlns:rdf="http://www.w3.org/1999/02/22-rdf-syntax-ns#">
   <cc:Work>
    <dc:type rdf:resource="http://purl.org/dc/dcmitype/StillImage"/>
    <dc:date>2026-05-25T15:33:27.383643</dc:date>
    <dc:format>image/svg+xml</dc:format>
    <dc:creator>
     <cc:Agent>
      <dc:title>Matplotlib v3.10.9, https://matplotlib.org/</dc:title>
     </cc:Agent>
    </dc:creator>
   </cc:Work>
  </rdf:RDF>
 </metadata>
 <defs>
  <style type="text/css">*{stroke-linejoin: round; stroke-linecap: butt}</style>
 </defs>
 <g id="figure_1">
  <g id="patch_1">
   <path d="M 0 240.28375 
L 456.48 240.28375 
L 456.48 0 
L 0 0 
z
" style="fill: #ffffff"/>
  </g>
  <g id="axes_1">
   <g id="patch_2">
    <path d="M 50.2 213.508125 
L 449.28 213.508125 
L 449.28 23.591875 
L 50.2 23.591875 
z
" style="fill: #ffffff"/>
   </g>
   <g id="patch_3">
    <path d="M 50.2 195.6264 
L 394.86 195.6264 
L 394.86 186.377232 
L 50.2 186.377232 
z
" clip-path="url(#p36c6aedba1)" style="fill: #d18080; stroke: #ffffff; stroke-linejoin: miter"/>
   </g>
   <g id="patch_4">
    <path d="M 50.2 164.79584 
L 369.464 164.79584 
L 369.464 155.546672 
L 50.2 155.546672 
z
" clip-path="url(#p36c6aedba1)" style="fill: #d18080; stroke: #ffffff; stroke-linejoin: miter"/>
   </g>
   <g id="patch_5">
    <path d="M 50.2 133.96528 
L 322.3 133.96528 
L 322.3 124.716112 
L 50.2 124.716112 
z
" clip-path="url(#p36c6aedba1)" style="fill: #d18080; stroke: #ffffff; stroke-linejoin: miter"/>
   </g>
   <g id="patch_6">
    <path d="M 50.2 103.13472 
L 275.136 103.13472 
L 275.136 93.885552 
L 50.2 93.885552 
z
" clip-path="url(#p36c6aedba1)" style="fill: #d18080; stroke: #ffffff; stroke-linejoin: miter"/>
   </g>
   <g id="patch_7">
    <path d="M 50.2 72.30416 
L 224.344 72.30416 
L 224.344 63.054992 
L 50.2 63.054992 
z
" clip-path="url(#p36c6aedba1)" style="fill: #d18080; stroke: #ffffff; stroke-linejoin: miter"/>
   </g>
   <g id="patch_8">
    <path d="M 50.2 41.4736 
L 177.18 41.4736 
L 177.18 32.224432 
L 50.2 32.224432 
z
" clip-path="url(#p36c6aedba1)" style="fill: #d18080; stroke: #ffffff; stroke-linejoin: miter"/>
   </g>
   <g id="patch_9">
    <path d="M 50.2 204.875568 
L 383.976 204.875568 
L 383.976 195.6264 
L 50.2 195.6264 
z
" clip-path="url(#p36c6aedba1)" style="fill: #73bfaa; stroke: #ffffff; stroke-linejoin: miter"/>
   </g>
   <g id="patch_10">
    <path d="M 50.2 174.045008 
L 376.72 174.045008 
L 376.72 164.79584 
L 50.2 164.79584 
z
" clip-path="url(#p36c6aedba1)" style="fill: #73bfaa; stroke: #ffffff; stroke-linejoin: miter"/>
   </g>
   <g id="patch_11">
    <path d="M 50.2 143.214448 
L 286.02 143.214448 
L 286.02 133.96528 
L 50.2 133.96528 
z
" clip-path="url(#p36c6aedba1)" style="fill: #73bfaa; stroke: #ffffff; stroke-linejoin: miter"/>
   </g>
   <g id="patch_12">
    <path d="M 50.2 112.383888 
L 249.74 112.383888 
L 249.74 103.13472 
L 50.2 103.13472 
z
" clip-path="url(#p36c6aedba1)" style="fill: #73bfaa; stroke: #ffffff; stroke-linejoin: miter"/>
   </g>
   <g id="patch_13">
    <path d="M 50.2 81.553328 
L 231.6 81.553328 
L 231.6 72.30416 
L 50.2 72.30416 
z
" clip-path="url(#p36c6aedba1)" style="fill: #73bfaa; stroke: #ffffff; stroke-linejoin: miter"/>
   </g>
   <g id="patch_14">
    <path d="M 50.2 50.722768 
L 195.32 50.722768 
L 195.32 41.4736 
L 50.2 41.4736 
z
" clip-path="url(#p36c6aedba1)" style="fill: #73bfaa; stroke: #ffffff; stroke-linejoin: miter"/>
   </g>
   <g id="matplotlib.axis_1">
    <g id="xtick_1">
     <g id="line2d_1">
      <defs>
       <path id="mfbaf641a3e" d="M 0 0 
L 0 3.5 
" style="stroke: #000000; stroke-width: 0.8"/>
      </defs>
      <g>
       <use xlink:href="#mfbaf641a3e" x="50.2" y="213.508125" style="stroke: #000000; stroke-width: 0.8"/>
      </g>
     </g>
     <g id="text_1">
      <!-- 0 -->
      <g transform="translate(46.681563 230.100625) scale(0.12 -0.12)">
       <defs>
        <path id="MicrosoftYaHei-30" d="M 284 2325 
Q 284 3606 709 4264 
Q 1134 4922 1941 4922 
Q 3478 4922 3478 2441 
Q 3478 1216 3045 567 
Q 2613 -81 1831 -81 
Q 1094 -81 689 534 
Q 284 1150 284 2325 
z
M 909 2353 
Q 909 425 1888 425 
Q 2850 425 2850 2384 
Q 2850 4413 1906 4413 
Q 909 4413 909 2353 
z
" transform="scale(0.015625)"/>
       </defs>
       <use xlink:href="#MicrosoftYaHei-30"/>
      </g>
     </g>
    </g>
    <g id="xtick_2">
     <g id="line2d_2">
      <g>
       <use xlink:href="#mfbaf641a3e" x="122.76" y="213.508125" style="stroke: #000000; stroke-width: 0.8"/>
      </g>
     </g>
     <g id="text_2">
      <!-- 20 -->
      <g transform="translate(115.723125 230.100625) scale(0.12 -0.12)">
       <defs>
        <path id="MicrosoftYaHei-32" d="M 2666 3572 
Q 2666 3963 2419 4186 
Q 2172 4409 1747 4409 
Q 1447 4409 1140 4256 
Q 834 4103 569 3819 
L 569 4413 
Q 806 4659 1107 4790 
Q 1409 4922 1816 4922 
Q 2472 4922 2872 4570 
Q 3272 4219 3272 3619 
Q 3272 3084 3026 2693 
Q 2781 2303 2188 1894 
Q 1581 1475 1376 1294 
Q 1172 1113 1090 947 
Q 1009 781 1009 544 
L 3416 544 
L 3416 0 
L 372 0 
L 372 241 
Q 372 659 486 951 
Q 600 1244 862 1520 
Q 1125 1797 1681 2184 
Q 2250 2584 2458 2886 
Q 2666 3188 2666 3572 
z
" transform="scale(0.015625)"/>
       </defs>
       <use xlink:href="#MicrosoftYaHei-32"/>
       <use xlink:href="#MicrosoftYaHei-30" transform="translate(58.642578 0)"/>
      </g>
     </g>
    </g>
    <g id="xtick_3">
     <g id="line2d_3">
      <g>
       <use xlink:href="#mfbaf641a3e" x="195.32" y="213.508125" style="stroke: #000000; stroke-width: 0.8"/>
      </g>
     </g>
     <g id="text_3">
      <!-- 40 -->
      <g transform="translate(188.283125 230.100625) scale(0.12 -0.12)">
       <defs>
        <path id="MicrosoftYaHei-34" d="M 2906 4841 
L 2906 1644 
L 3631 1644 
L 3631 1138 
L 2906 1138 
L 2906 0 
L 2313 0 
L 2313 1138 
L 53 1138 
L 53 1616 
Q 656 2294 1265 3178 
Q 1875 4063 2272 4841 
L 2906 4841 
z
M 741 1644 
L 2313 1644 
L 2313 3950 
Q 1988 3366 1616 2817 
Q 1244 2269 741 1644 
z
" transform="scale(0.015625)"/>
       </defs>
       <use xlink:href="#MicrosoftYaHei-34"/>
       <use xlink:href="#MicrosoftYaHei-30" transform="translate(58.642578 0)"/>
      </g>
     </g>
    </g>
    <g id="xtick_4">
     <g id="line2d_4">
      <g>
       <use xlink:href="#mfbaf641a3e" x="267.88" y="213.508125" style="stroke: #000000; stroke-width: 0.8"/>
      </g>
     </g>
     <g id="text_4">
      <!-- 60 -->
      <g transform="translate(260.843125 230.100625) scale(0.12 -0.12)">
       <defs>
        <path id="MicrosoftYaHei-36" d="M 3181 4219 
Q 2803 4413 2391 4413 
Q 1763 4413 1381 3866 
Q 1000 3319 994 2372 
L 1009 2372 
Q 1353 3038 2106 3038 
Q 2734 3038 3109 2628 
Q 3484 2219 3484 1541 
Q 3484 831 3051 375 
Q 2619 -81 1947 -81 
Q 1209 -81 789 495 
Q 369 1072 369 2131 
Q 369 3413 920 4167 
Q 1472 4922 2372 4922 
Q 2888 4922 3181 4781 
L 3181 4219 
z
M 1031 1584 
Q 1031 1106 1286 765 
Q 1541 425 1963 425 
Q 2363 425 2613 719 
Q 2863 1013 2863 1475 
Q 2863 1975 2627 2253 
Q 2391 2531 1956 2531 
Q 1544 2531 1287 2250 
Q 1031 1969 1031 1584 
z
" transform="scale(0.015625)"/>
       </defs>
       <use xlink:href="#MicrosoftYaHei-36"/>
       <use xlink:href="#MicrosoftYaHei-30" transform="translate(58.642578 0)"/>
      </g>
     </g>
    </g>
    <g id="xtick_5">
     <g id="line2d_5">
      <g>
       <use xlink:href="#mfbaf641a3e" x="340.44" y="213.508125" style="stroke: #000000; stroke-width: 0.8"/>
      </g>
     </g>
     <g id="text_5">
      <!-- 80 -->
      <g transform="translate(333.403125 230.100625) scale(0.12 -0.12)">
       <defs>
        <path id="MicrosoftYaHei-38" d="M 306 1350 
Q 306 1769 556 2122 
Q 806 2475 1200 2625 
Q 884 2803 700 3081 
Q 516 3359 516 3684 
Q 516 4028 692 4312 
Q 869 4597 1183 4759 
Q 1497 4922 1875 4922 
Q 2256 4922 2572 4761 
Q 2888 4600 3063 4315 
Q 3238 4031 3238 3684 
Q 3238 3366 3058 3086 
Q 2878 2806 2559 2625 
Q 2953 2472 3200 2119 
Q 3447 1766 3447 1350 
Q 3447 938 3250 611 
Q 3053 284 2690 103 
Q 2328 -78 1875 -78 
Q 1425 -78 1065 103 
Q 706 284 506 612 
Q 306 941 306 1350 
z
M 906 1378 
Q 906 947 1172 687 
Q 1438 428 1878 428 
Q 2309 428 2582 692 
Q 2856 956 2856 1378 
Q 2856 1778 2579 2051 
Q 2303 2325 1878 2325 
Q 1456 2325 1181 2058 
Q 906 1791 906 1378 
z
M 1081 3634 
Q 1081 3309 1312 3076 
Q 1544 2844 1878 2844 
Q 2206 2844 2445 3078 
Q 2684 3313 2684 3634 
Q 2684 3963 2454 4191 
Q 2225 4419 1878 4419 
Q 1534 4419 1307 4195 
Q 1081 3972 1081 3634 
z
" transform="scale(0.015625)"/>
       </defs>
       <use xlink:href="#MicrosoftYaHei-38"/>
       <use xlink:href="#MicrosoftYaHei-30" transform="translate(58.642578 0)"/>
      </g>
     </g>
    </g>
    <g id="xtick_6">
     <g id="line2d_6">
      <g>
       <use xlink:href="#mfbaf641a3e" x="413" y="213.508125" style="stroke: #000000; stroke-width: 0.8"/>
      </g>
     </g>
     <g id="text_6">
      <!-- 100 -->
      <g transform="translate(402.444687 230.100625) scale(0.12 -0.12)">
       <defs>
        <path id="MicrosoftYaHei-31" d="M 1781 0 
L 1781 4141 
Q 1638 3997 1295 3819 
Q 953 3641 663 3569 
L 663 4169 
Q 1047 4275 1484 4508 
Q 1922 4741 2156 4947 
L 2388 4947 
L 2388 0 
L 1781 0 
z
" transform="scale(0.015625)"/>
       </defs>
       <use xlink:href="#MicrosoftYaHei-31"/>
       <use xlink:href="#MicrosoftYaHei-30" transform="translate(58.642578 0)"/>
       <use xlink:href="#MicrosoftYaHei-30" transform="translate(117.285156 0)"/>
      </g>
     </g>
    </g>
   </g>
   <g id="matplotlib.axis_2">
    <g id="ytick_1">
     <g id="line2d_7">
      <defs>
       <path id="mb2d8a95f25" d="M 0 0 
L -3.5 0 
" style="stroke: #000000; stroke-width: 0.8"/>
      </defs>
      <g>
       <use xlink:href="#mb2d8a95f25" x="50.2" y="195.6264" style="stroke: #000000; stroke-width: 0.8"/>
      </g>
     </g>
     <g id="text_7">
      <!-- 真题试卷 -->
      <g transform="translate(7.2 199.223588) scale(0.09 -0.09)">
       <defs>
        <path id="MicrosoftYaHei-771f" d="M 156 778 
L 1056 778 
L 1056 3978 
L 2894 3978 
L 2894 4428 
L 250 4428 
L 250 4828 
L 2894 4828 
L 2894 5328 
L 3381 5328 
L 3381 4828 
L 6144 4828 
L 6144 4428 
L 3381 4428 
L 3381 3978 
L 5344 3978 
L 5344 778 
L 6263 778 
L 6263 378 
L 156 378 
L 156 778 
z
M 1531 778 
L 4869 778 
L 4869 1209 
L 1531 1209 
L 1531 778 
z
M 4869 3591 
L 1531 3591 
L 1531 3166 
L 4869 3166 
L 4869 3591 
z
M 1531 2372 
L 4869 2372 
L 4869 2797 
L 1531 2797 
L 1531 2372 
z
M 1531 1578 
L 4869 1578 
L 4869 2003 
L 1531 2003 
L 1531 1578 
z
M 3744 -72 
L 3975 316 
Q 4925 28 6169 -416 
L 5944 -859 
Q 4819 -422 3744 -72 
z
M 2369 334 
L 2663 -41 
Q 1656 -503 481 -891 
Q 388 -691 256 -453 
Q 1219 -172 2369 334 
z
" transform="scale(0.015625)"/>
        <path id="MicrosoftYaHei-9898" d="M 88 -291 
Q 544 328 581 1622 
L 1013 1622 
Q 994 1234 950 884 
Q 1181 466 1538 209 
L 1538 1916 
L 138 1916 
L 138 2322 
L 3025 2322 
L 3025 1916 
L 1950 1916 
L 1950 1253 
L 2956 1253 
L 2956 847 
L 1950 847 
L 1950 -16 
Q 2369 -184 2906 -197 
Q 4006 -266 6300 -166 
Q 6231 -372 6125 -659 
Q 3888 -716 2906 -634 
Q 1513 -597 850 347 
Q 688 -359 363 -878 
Q 238 -584 88 -291 
z
M 525 5041 
L 2725 5041 
L 2725 2634 
L 2313 2634 
L 2313 2828 
L 938 2828 
L 938 2634 
L 525 2634 
L 525 5041 
z
M 3263 3878 
L 4169 3878 
Q 4231 4247 4275 4591 
L 3031 4591 
L 3031 4997 
L 6169 4997 
L 6169 4591 
L 4738 4591 
Q 4681 4222 4613 3878 
L 5838 3878 
L 5838 1228 
L 5425 1228 
L 5425 3472 
L 3675 3472 
L 3675 1228 
L 3263 1228 
L 3263 3878 
z
M 4344 3203 
L 4756 3203 
L 4756 2422 
Q 4756 1809 4631 1372 
Q 5594 678 6050 284 
L 5713 -47 
Q 5213 422 4481 972 
Q 4444 903 4406 841 
Q 4031 241 3131 -109 
Q 2988 72 2794 259 
Q 3669 547 4006 1028 
Q 4344 1503 4344 2441 
L 4344 3203 
z
M 938 3203 
L 2313 3203 
L 2313 3753 
L 938 3753 
L 938 3203 
z
M 2313 4666 
L 938 4666 
L 938 4122 
L 2313 4122 
L 2313 4666 
z
" transform="scale(0.015625)"/>
        <path id="MicrosoftYaHei-8bd5" d="M 1913 4078 
L 4194 4078 
Q 4188 4656 4188 5334 
L 4681 5334 
Q 4669 4591 4675 4078 
L 6219 4078 
L 6219 3622 
L 4684 3622 
Q 4747 978 5275 22 
Q 5469 -303 5600 -303 
Q 5706 -303 5750 -53 
Q 5813 328 5844 941 
Q 6113 834 6313 778 
Q 6231 72 6156 -297 
Q 6056 -822 5631 -822 
Q 5281 -822 4938 -341 
Q 4300 584 4206 3622 
L 1913 3622 
L 1913 4078 
z
M 1800 66 
Q 2272 128 2788 209 
L 2788 2147 
L 1894 2147 
L 1894 2591 
L 4056 2591 
L 4056 2147 
L 3250 2147 
L 3250 281 
Q 3741 363 4269 459 
Q 4256 209 4256 -28 
Q 2888 -247 1925 -422 
L 1800 66 
z
M 2038 1334 
Q 2069 984 2106 728 
Q 1688 328 1269 -103 
Q 1075 -303 944 -484 
L 594 -84 
Q 813 159 813 516 
L 813 2816 
L 88 2816 
L 88 3259 
L 1288 3259 
L 1288 572 
Q 1625 897 2038 1334 
z
M 700 5172 
Q 1263 4622 1688 4134 
L 1275 3778 
Q 881 4297 344 4853 
L 700 5172 
z
M 4919 4897 
L 5206 5197 
Q 5706 4828 6000 4547 
L 5656 4197 
Q 5313 4566 4919 4897 
z
" transform="scale(0.015625)"/>
        <path id="MicrosoftYaHei-5377" d="M 150 2978 
L 2119 2978 
Q 2325 3275 2484 3609 
L 513 3609 
L 513 4041 
L 2669 4041 
Q 2900 4628 3038 5347 
L 3556 5241 
Q 3394 4594 3197 4041 
L 5925 4041 
L 5925 3609 
L 3034 3609 
Q 2897 3281 2713 2978 
L 6244 2978 
L 6244 2547 
L 4513 2547 
Q 5203 1756 6344 1522 
Q 6163 1291 5975 1022 
Q 5253 1272 4700 1728 
Q 4681 1375 4650 966 
Q 4588 209 3863 203 
Q 3569 197 3100 222 
Q 3075 459 3006 722 
Q 3469 659 3731 659 
Q 4163 653 4188 1028 
Q 4206 1197 4213 1403 
L 2081 1403 
L 2081 147 
Q 2081 -253 2475 -253 
L 4469 -253 
Q 4981 -253 5075 41 
Q 5156 297 5206 716 
Q 5394 628 5688 534 
Q 5600 122 5519 -141 
Q 5350 -691 4600 -691 
L 2406 -691 
Q 1594 -691 1594 103 
L 1594 1678 
Q 1069 1238 400 884 
Q 231 1091 25 1297 
Q 1094 1784 1778 2547 
L 150 2547 
L 150 2978 
z
M 1756 1822 
L 4594 1822 
Q 4241 2141 3963 2547 
L 2422 2547 
Q 2131 2159 1756 1822 
z
M 4225 4347 
Q 4644 4778 4956 5253 
L 5394 4984 
Q 5031 4509 4606 4066 
L 4225 4347 
z
M 919 4959 
L 1275 5247 
Q 1719 4822 2081 4434 
L 1681 4103 
Q 1331 4528 919 4959 
z
" transform="scale(0.015625)"/>
       </defs>
       <use xlink:href="#MicrosoftYaHei-771f"/>
       <use xlink:href="#MicrosoftYaHei-9898" transform="translate(100 0)"/>
       <use xlink:href="#MicrosoftYaHei-8bd5" transform="translate(200 0)"/>
       <use xlink:href="#MicrosoftYaHei-5377" transform="translate(300 0)"/>
      </g>
     </g>
    </g>
    <g id="ytick_2">
     <g id="line2d_8">
      <g>
       <use xlink:href="#mb2d8a95f25" x="50.2" y="164.79584" style="stroke: #000000; stroke-width: 0.8"/>
      </g>
     </g>
     <g id="text_8">
      <!-- 错题本 -->
      <g transform="translate(16.2 168.393028) scale(0.09 -0.09)">
       <defs>
        <path id="MicrosoftYaHei-9519" d="M 2625 2172 
L 5806 2172 
L 5806 -847 
L 5331 -847 
L 5331 -484 
L 3100 -484 
L 3100 -847 
L 2625 -847 
L 2625 2172 
z
M 2206 3128 
L 3125 3128 
L 3125 3966 
L 2394 3966 
L 2394 4391 
L 3125 4391 
L 3125 5291 
L 3600 5291 
L 3600 4391 
L 4738 4391 
L 4738 5291 
L 5213 5291 
L 5213 4391 
L 6094 4391 
L 6094 3966 
L 5213 3966 
L 5213 3128 
L 6275 3128 
L 6275 2703 
L 2206 2703 
L 2206 3128 
z
M 2081 847 
Q 2138 566 2188 378 
Q 1600 -178 1256 -528 
Q 1206 -591 1081 -759 
L 738 -372 
Q 913 -178 913 197 
L 913 1566 
L 113 1566 
L 113 2003 
L 913 2003 
L 913 2778 
L 644 2778 
L 644 3216 
L 1981 3216 
L 1981 2778 
L 1369 2778 
L 1369 2003 
L 2150 2003 
L 2150 1566 
L 1369 1566 
L 1369 178 
Q 1763 534 2081 847 
z
M 75 3166 
Q 613 4041 881 5316 
L 1350 5216 
Q 1241 4769 1103 4359 
L 2175 4359 
L 2175 3922 
L 944 3922 
Q 681 3244 331 2678 
Q 213 2916 75 3166 
z
M 3100 -72 
L 5331 -72 
L 5331 647 
L 3100 647 
L 3100 -72 
z
M 5331 1759 
L 3100 1759 
L 3100 1047 
L 5331 1047 
L 5331 1759 
z
M 3600 3128 
L 4738 3128 
L 4738 3966 
L 3600 3966 
L 3600 3128 
z
" transform="scale(0.015625)"/>
        <path id="MicrosoftYaHei-672c" d="M 6281 803 
Q 6119 641 5856 366 
Q 4344 1531 3444 3353 
L 3444 878 
L 4875 878 
L 4875 441 
L 3444 441 
L 3444 -841 
L 2956 -841 
L 2956 441 
L 1475 441 
L 1475 878 
L 2956 878 
L 2956 3353 
Q 2159 1766 513 291 
Q 269 522 100 666 
Q 1878 2125 2759 3753 
L 238 3753 
L 238 4216 
L 2956 4216 
L 2956 5341 
L 3444 5341 
L 3444 4216 
L 6163 4216 
L 6163 3753 
L 3622 3753 
Q 4616 1884 6281 803 
z
" transform="scale(0.015625)"/>
       </defs>
       <use xlink:href="#MicrosoftYaHei-9519"/>
       <use xlink:href="#MicrosoftYaHei-9898" transform="translate(100 0)"/>
       <use xlink:href="#MicrosoftYaHei-672c" transform="translate(200 0)"/>
      </g>
     </g>
    </g>
    <g id="ytick_3">
     <g id="line2d_9">
      <g>
       <use xlink:href="#mb2d8a95f25" x="50.2" y="133.96528" style="stroke: #000000; stroke-width: 0.8"/>
      </g>
     </g>
     <g id="text_9">
      <!-- 教材课本 -->
      <g transform="translate(7.2 137.562468) scale(0.09 -0.09)">
       <defs>
        <path id="MicrosoftYaHei-6559" d="M 2975 2153 
Q 3681 3453 4106 5216 
L 4563 5103 
Q 4438 4591 4275 4084 
L 6225 4084 
L 6225 3634 
L 5613 3634 
Q 5569 2022 4825 859 
Q 5394 78 6319 -359 
Q 6144 -616 6025 -822 
Q 5113 -297 4538 459 
Q 3906 -328 2900 -884 
Q 2788 -722 2594 -472 
Q 3638 59 4263 872 
Q 3825 1603 3669 2522 
Q 3525 2216 3375 1916 
Q 3175 2047 2975 2153 
z
M 3163 4678 
L 3538 4434 
Q 3156 3866 2688 3309 
L 3150 3309 
L 3150 2897 
L 2331 2897 
Q 2081 2616 1819 2353 
L 2844 2353 
L 2844 1978 
L 2038 1184 
L 2038 1072 
Q 2544 1159 3156 1272 
Q 3138 1034 3131 841 
Q 2619 753 2038 647 
L 2038 -34 
Q 2081 -809 1313 -778 
Q 1044 -778 619 -766 
Q 594 -566 556 -297 
Q 850 -328 1225 -334 
Q 1619 -372 1588 16 
L 1588 566 
Q 981 453 313 322 
L 238 778 
Q 756 853 1588 991 
L 1588 1303 
L 2244 1953 
L 1406 1953 
Q 888 1478 369 1078 
Q 244 1253 75 1434 
Q 438 1691 750 1953 
L 231 1953 
L 231 2353 
L 1200 2353 
Q 1494 2616 1769 2897 
L 150 2897 
L 150 3309 
L 1381 3309 
L 1381 3947 
L 400 3947 
L 400 4359 
L 1381 4359 
L 1381 5209 
L 1831 5209 
L 1831 4359 
L 2600 4359 
L 2600 3947 
L 1831 3947 
L 1831 3309 
L 2138 3309 
Q 2700 3941 3163 4678 
z
M 3981 3272 
Q 4106 2134 4550 1303 
Q 5119 2291 5156 3634 
L 4119 3634 
Q 4056 3453 3981 3272 
z
" transform="scale(0.015625)"/>
        <path id="MicrosoftYaHei-6750" d="M 2863 3997 
L 4925 3997 
L 4925 5278 
L 5419 5278 
L 5419 3997 
L 6306 3997 
L 6306 3541 
L 5419 3541 
L 5419 166 
Q 5419 -716 4600 -716 
Q 4244 -716 3625 -709 
Q 3594 -478 3525 -159 
Q 4144 -203 4450 -203 
Q 4925 -203 4925 191 
L 4925 3003 
Q 4138 1297 2588 59 
Q 2438 241 2219 478 
Q 3856 1716 4681 3541 
L 2863 3541 
L 2863 3997 
z
M 88 1309 
Q 819 2341 1138 3572 
L 188 3572 
L 188 4016 
L 1219 4016 
L 1219 5278 
L 1700 5278 
L 1700 4016 
L 2606 4016 
L 2606 3572 
L 1700 3572 
L 1700 2728 
L 1956 2959 
Q 2481 2472 2938 2003 
L 2563 1659 
Q 2144 2153 1700 2597 
L 1700 -834 
L 1219 -834 
L 1219 2578 
Q 838 1484 331 759 
Q 219 1028 88 1309 
z
" transform="scale(0.015625)"/>
        <path id="MicrosoftYaHei-8bfe" d="M 6325 -3 
Q 6169 -241 6019 -472 
Q 4884 119 4188 1209 
L 4188 -816 
L 3738 -816 
L 3738 1191 
Q 2953 78 1975 -559 
Q 1794 -328 1613 -147 
Q 2766 469 3513 1409 
L 1819 1409 
L 1819 1822 
L 3738 1822 
L 3738 2503 
L 2575 2503 
L 2575 2303 
L 2138 2303 
L 2138 5053 
L 5788 5053 
L 5788 2303 
L 5350 2303 
L 5350 2503 
L 4188 2503 
L 4188 1822 
L 6150 1822 
L 6150 1409 
L 4413 1409 
Q 5184 425 6325 -3 
z
M 2088 747 
Q 1619 334 1275 -3 
Q 1100 -184 963 -353 
L 613 53 
Q 806 234 806 591 
L 806 2778 
L 113 2778 
L 113 3234 
L 1269 3234 
L 1269 634 
Q 1581 909 1969 1284 
Q 2019 1016 2088 747 
z
M 5350 4653 
L 4188 4653 
L 4188 3972 
L 5350 3972 
L 5350 4653 
z
M 4188 2903 
L 5350 2903 
L 5350 3584 
L 4188 3584 
L 4188 2903 
z
M 2575 3972 
L 3738 3972 
L 3738 4653 
L 2575 4653 
L 2575 3972 
z
M 2575 2903 
L 3738 2903 
L 3738 3584 
L 2575 3584 
L 2575 2903 
z
M 800 5178 
Q 1363 4634 1725 4184 
L 1338 3866 
Q 900 4428 469 4884 
L 800 5178 
z
" transform="scale(0.015625)"/>
       </defs>
       <use xlink:href="#MicrosoftYaHei-6559"/>
       <use xlink:href="#MicrosoftYaHei-6750" transform="translate(100 0)"/>
       <use xlink:href="#MicrosoftYaHei-8bfe" transform="translate(200 0)"/>
       <use xlink:href="#MicrosoftYaHei-672c" transform="translate(300 0)"/>
      </g>
     </g>
    </g>
    <g id="ytick_4">
     <g id="line2d_10">
      <g>
       <use xlink:href="#mb2d8a95f25" x="50.2" y="103.13472" style="stroke: #000000; stroke-width: 0.8"/>
      </g>
     </g>
     <g id="text_10">
      <!-- 参考书 -->
      <g transform="translate(16.2 106.731907) scale(0.09 -0.09)">
       <defs>
        <path id="MicrosoftYaHei-53c2" d="M 256 3159 
L 2234 3159 
Q 2428 3391 2600 3641 
Q 2031 3609 1469 3578 
Q 1288 3566 988 3522 
L 825 4003 
Q 1144 4091 1400 4291 
Q 1944 4697 2606 5372 
L 3100 5109 
Q 2394 4497 1738 4034 
Q 2906 4066 4397 4122 
Q 4072 4388 3744 4628 
L 4050 4947 
Q 5006 4278 5606 3772 
L 5256 3397 
Q 5053 3575 4853 3747 
Q 3778 3700 2719 3647 
L 3069 3497 
Q 2944 3322 2813 3159 
L 6144 3159 
L 6144 2741 
L 4353 2741 
Q 5128 1941 6325 1578 
Q 6119 1297 6000 1109 
Q 4644 1697 3828 2741 
L 2453 2741 
Q 1550 1750 363 1116 
Q 231 1328 56 1509 
Q 1091 2009 1841 2741 
L 256 2741 
L 256 3159 
z
M 4969 1016 
L 5313 697 
Q 3525 -509 1019 -891 
Q 906 -666 781 -478 
Q 3331 -59 4969 1016 
z
M 4231 1703 
L 4525 1353 
Q 2813 391 1119 47 
Q 988 341 913 466 
Q 2694 828 4231 1703 
z
M 3556 2453 
L 3863 2128 
Q 2694 1397 1388 1009 
Q 1288 1216 1150 1422 
Q 2344 1734 3556 2453 
z
" transform="scale(0.015625)"/>
        <path id="MicrosoftYaHei-8003" d="M 225 3334 
L 2413 3334 
L 2413 4128 
L 738 4128 
L 738 4553 
L 2413 4553 
L 2413 5303 
L 2900 5303 
L 2900 4553 
L 4213 4553 
L 4213 4128 
L 2900 4128 
L 2900 3334 
L 3534 3334 
Q 4500 4041 5325 4884 
L 5706 4559 
Q 5000 3900 4278 3334 
L 6200 3334 
L 6200 2903 
L 3709 2903 
Q 3350 2641 2991 2403 
L 5769 2403 
L 5769 1978 
L 2859 1978 
L 2594 1428 
L 5100 1428 
Q 4975 366 4919 128 
Q 4775 -678 3931 -678 
Q 3300 -678 2563 -653 
Q 2519 -384 2431 -109 
Q 3181 -172 3838 -172 
Q 4325 -172 4431 253 
Q 4488 484 4556 1003 
L 2100 1003 
L 2100 1428 
L 2378 1978 
L 2316 1978 
Q 1353 1403 369 984 
Q 231 1222 69 1434 
Q 1606 2053 2906 2903 
L 225 2903 
L 225 3334 
z
" transform="scale(0.015625)"/>
        <path id="MicrosoftYaHei-4e66" d="M 175 2416 
L 2525 2416 
L 2525 3747 
L 581 3747 
L 581 4209 
L 2525 4209 
L 2525 5284 
L 3044 5284 
L 3044 4209 
L 5200 4209 
L 5084 2416 
L 5944 2416 
Q 5931 1722 5900 984 
Q 5863 -47 4925 -34 
Q 4438 -41 3875 9 
Q 3844 297 3781 559 
Q 4356 453 4863 453 
Q 5381 441 5406 1022 
Q 5425 1466 5431 1953 
L 3044 1953 
L 3044 -809 
L 2525 -809 
L 2525 1953 
L 175 1953 
L 175 2416 
z
M 4669 3747 
L 3044 3747 
L 3044 2416 
L 4581 2416 
L 4669 3747 
z
M 4513 4922 
L 4819 5272 
Q 5481 4828 6006 4434 
L 5675 4041 
Q 5188 4453 4513 4922 
z
" transform="scale(0.015625)"/>
       </defs>
       <use xlink:href="#MicrosoftYaHei-53c2"/>
       <use xlink:href="#MicrosoftYaHei-8003" transform="translate(100 0)"/>
       <use xlink:href="#MicrosoftYaHei-4e66" transform="translate(200 0)"/>
      </g>
     </g>
    </g>
    <g id="ytick_5">
     <g id="line2d_11">
      <g>
       <use xlink:href="#mb2d8a95f25" x="50.2" y="72.30416" style="stroke: #000000; stroke-width: 0.8"/>
      </g>
     </g>
     <g id="text_11">
      <!-- 网课视频 -->
      <g transform="translate(7.2 75.901347) scale(0.09 -0.09)">
       <defs>
        <path id="MicrosoftYaHei-7f51" d="M 1075 3641 
L 1444 3834 
Q 1816 3244 2184 2628 
Q 2488 3281 2706 3928 
L 3131 3772 
Q 2822 2931 2450 2175 
Q 2809 1563 3163 922 
L 2738 697 
Q 2478 1191 2203 1691 
Q 1819 969 1375 328 
L 1000 544 
L 1000 -759 
L 531 -759 
L 531 4953 
L 5856 4953 
L 5856 -59 
Q 5856 -728 5138 -728 
Q 4738 -728 4181 -716 
Q 4150 -516 4094 -228 
Q 4619 -272 4988 -272 
Q 5388 -272 5388 72 
L 5388 4503 
L 1000 4503 
L 1000 572 
Q 1538 1363 1947 2150 
Q 1531 2891 1075 3641 
z
M 3156 3341 
L 3519 3553 
Q 3831 3047 4166 2481 
Q 4525 3197 4775 3891 
L 5200 3728 
Q 4847 2838 4428 2028 
Q 4822 1353 5244 597 
L 4825 359 
Q 4513 953 4175 1559 
Q 3788 866 3350 241 
L 2969 484 
Q 3506 1263 3919 2016 
Q 3553 2672 3156 3341 
z
" transform="scale(0.015625)"/>
        <path id="MicrosoftYaHei-89c6" d="M 3925 4047 
L 4413 4047 
Q 4413 2291 4325 1841 
L 4719 1841 
L 4719 128 
Q 4719 -241 5063 -241 
L 5400 -241 
Q 5769 -241 5831 84 
Q 5875 428 5900 966 
Q 6119 866 6375 778 
Q 6325 234 6275 -97 
Q 6194 -672 5519 -672 
L 4981 -672 
Q 4238 -672 4238 66 
L 4238 1403 
Q 3813 -191 2138 -903 
Q 2000 -709 1813 -491 
Q 3756 253 3888 2334 
Q 3925 3028 3925 4047 
z
M 2631 4953 
L 5769 4953 
L 5769 1103 
L 5281 1103 
L 5281 4516 
L 3119 4516 
L 3119 1103 
L 2631 1103 
L 2631 4953 
z
M 119 3559 
L 119 4009 
L 2150 4009 
L 2150 3547 
Q 1831 2984 1431 2466 
L 1431 2122 
L 1700 2366 
Q 2144 1966 2525 1584 
L 2163 1266 
Q 1844 1628 1431 2047 
L 1431 -822 
L 956 -822 
L 956 1891 
Q 625 1522 250 1178 
Q 181 1422 81 1716 
Q 1050 2566 1594 3559 
L 119 3559 
z
M 731 5078 
L 1169 5297 
Q 1406 4916 1663 4434 
L 1200 4197 
Q 950 4709 731 5078 
z
" transform="scale(0.015625)"/>
        <path id="MicrosoftYaHei-9891" d="M 3200 3716 
L 4113 3716 
L 4269 4522 
L 2938 4522 
L 2938 4947 
L 6294 4947 
L 6294 4522 
L 4788 4522 
L 4600 3716 
L 6019 3716 
L 6019 478 
L 5550 478 
L 5550 3291 
L 3669 3291 
L 3669 478 
L 3200 478 
L 3200 3716 
z
M 94 3034 
L 525 3034 
L 525 4691 
L 963 4691 
L 963 3034 
L 1600 3034 
L 1600 5272 
L 2050 5272 
L 2050 4291 
L 2925 4291 
L 2925 3878 
L 2050 3878 
L 2050 3034 
L 3006 3034 
L 3006 2609 
L 94 2609 
L 94 3034 
z
M 4356 2884 
L 4825 2884 
L 4825 1934 
Q 4825 1216 4650 716 
Q 5619 128 6375 -403 
L 6075 -841 
Q 5306 -234 4450 303 
Q 4413 241 4369 184 
Q 3913 -447 2763 -884 
Q 2625 -691 2444 -478 
Q 3525 -72 3944 447 
Q 4356 947 4356 1966 
L 4356 2884 
z
M 1550 2459 
L 2000 2459 
L 2000 853 
Q 2394 1309 2663 1866 
L 3100 1609 
Q 2206 -47 394 -909 
Q 275 -741 69 -503 
Q 1125 -47 1819 659 
L 1550 659 
L 1550 2459 
z
M 38 578 
Q 381 1191 669 2084 
L 1113 1947 
Q 806 1028 456 366 
Q 269 472 38 578 
z
" transform="scale(0.015625)"/>
       </defs>
       <use xlink:href="#MicrosoftYaHei-7f51"/>
       <use xlink:href="#MicrosoftYaHei-8bfe" transform="translate(100 0)"/>
       <use xlink:href="#MicrosoftYaHei-89c6" transform="translate(200 0)"/>
       <use xlink:href="#MicrosoftYaHei-9891" transform="translate(300 0)"/>
      </g>
     </g>
    </g>
    <g id="ytick_6">
     <g id="line2d_12">
      <g>
       <use xlink:href="#mb2d8a95f25" x="50.2" y="41.4736" style="stroke: #000000; stroke-width: 0.8"/>
      </g>
     </g>
     <g id="text_12">
      <!-- APP刷题 -->
      <g transform="translate(7.853906 45.070787) scale(0.09 -0.09)">
       <defs>
        <path id="MicrosoftYaHei-41" d="M 4428 0 
L 3738 0 
L 3244 1325 
L 1228 1325 
L 763 0 
L 72 0 
L 1916 4841 
L 2584 4841 
L 4428 0 
z
M 3050 1872 
L 2319 3884 
Q 2284 3981 2244 4222 
L 2228 4222 
Q 2194 4003 2150 3884 
L 1425 1872 
L 3050 1872 
z
" transform="scale(0.015625)"/>
        <path id="MicrosoftYaHei-50" d="M 1250 1809 
L 1250 0 
L 625 0 
L 625 4841 
L 2000 4841 
Q 2784 4841 3217 4462 
Q 3650 4084 3650 3381 
Q 3650 2669 3144 2226 
Q 2638 1784 1878 1809 
L 1250 1809 
z
M 1250 4291 
L 1250 2359 
L 1828 2359 
Q 2400 2359 2697 2617 
Q 2994 2875 2994 3356 
Q 2994 4291 1888 4291 
L 1250 4291 
z
" transform="scale(0.015625)"/>
        <path id="MicrosoftYaHei-5237" d="M 656 4959 
L 3938 4959 
L 3938 3103 
L 3488 3103 
L 3488 3322 
L 1106 3322 
L 1106 2366 
Q 1106 359 369 -697 
Q 219 -478 81 -291 
Q 656 628 656 2359 
L 656 4959 
z
M 2881 -828 
L 2450 -828 
L 2450 2109 
L 1838 2109 
L 1838 -128 
L 1413 -128 
L 1413 2509 
L 2450 2509 
L 2450 3116 
L 2881 3116 
L 2881 2509 
L 3969 2509 
L 3969 478 
Q 3969 -84 3500 -84 
Q 3363 -84 3050 -78 
Q 3013 134 2963 341 
Q 3194 322 3325 322 
Q 3544 322 3544 572 
L 3544 2109 
L 2881 2109 
L 2881 -828 
z
M 5506 5228 
L 5963 5228 
L 5963 28 
Q 5963 -741 5250 -741 
Q 4919 -741 4406 -728 
Q 4375 -441 4313 -209 
Q 4825 -272 5106 -272 
Q 5506 -272 5506 172 
L 5506 5228 
z
M 3488 4534 
L 1106 4534 
L 1106 3747 
L 3488 3747 
L 3488 4534 
z
M 4944 784 
L 4506 784 
L 4506 4634 
L 4944 4634 
L 4944 784 
z
" transform="scale(0.015625)"/>
       </defs>
       <use xlink:href="#MicrosoftYaHei-41"/>
       <use xlink:href="#MicrosoftYaHei-50" transform="translate(70.361328 0)"/>
       <use xlink:href="#MicrosoftYaHei-50" transform="translate(131.542969 0)"/>
       <use xlink:href="#MicrosoftYaHei-5237" transform="translate(192.724609 0)"/>
       <use xlink:href="#MicrosoftYaHei-9898" transform="translate(292.724609 0)"/>
      </g>
     </g>
    </g>
   </g>
   <g id="patch_15">
    <path d="M 50.2 213.508125 
L 50.2 23.591875 
" style="fill: none; stroke: #000000; stroke-width: 0.8; stroke-linejoin: miter; stroke-linecap: square"/>
   </g>
   <g id="patch_16">
    <path d="M 50.2 213.508125 
L 449.28 213.508125 
" style="fill: none; stroke: #000000; stroke-width: 0.8; stroke-linejoin: miter; stroke-linecap: square"/>
   </g>
   <g id="text_13">
    <!-- 95% -->
    <g style="fill: #c46565" transform="translate(398.488 193.067246) scale(0.075 -0.075)">
     <defs>
      <path id="MicrosoftYaHei-Bold-39" d="M 544 941 
Q 931 691 1456 691 
Q 2628 691 2653 2216 
L 2634 2222 
Q 2316 1731 1650 1731 
Q 1047 1731 658 2154 
Q 269 2578 269 3222 
Q 269 3978 737 4450 
Q 1206 4922 1959 4922 
Q 2744 4922 3191 4325 
Q 3638 3728 3638 2659 
Q 3638 1391 3098 653 
Q 2559 -84 1547 -84 
Q 975 -84 544 100 
L 544 941 
z
M 1259 3313 
Q 1259 2928 1445 2709 
Q 1631 2491 1953 2491 
Q 2241 2491 2427 2700 
Q 2613 2909 2613 3219 
Q 2613 3591 2427 3869 
Q 2241 4147 1928 4147 
Q 1625 4147 1442 3906 
Q 1259 3666 1259 3313 
z
" transform="scale(0.015625)"/>
      <path id="MicrosoftYaHei-Bold-35" d="M 541 125 
L 541 997 
Q 1044 691 1613 691 
Q 2041 691 2283 902 
Q 2525 1113 2525 1472 
Q 2525 2225 1494 2225 
Q 1113 2225 616 2169 
L 797 4841 
L 3359 4841 
L 3359 4009 
L 1613 4009 
L 1544 2991 
Q 1803 3013 2022 3013 
Q 2731 3013 3142 2625 
Q 3553 2238 3553 1575 
Q 3553 844 3056 380 
Q 2559 -84 1706 -84 
Q 1016 -84 541 125 
z
" transform="scale(0.015625)"/>
      <path id="MicrosoftYaHei-Bold-25" d="M 297 3597 
Q 297 4191 626 4548 
Q 956 4906 1519 4906 
Q 2056 4906 2354 4581 
Q 2653 4256 2653 3684 
Q 2653 3097 2322 2744 
Q 1991 2391 1438 2391 
Q 919 2391 608 2722 
Q 297 3053 297 3597 
z
M 984 3631 
Q 984 2959 1478 2959 
Q 1981 2959 1981 3659 
Q 1981 4338 1500 4338 
Q 984 4338 984 3631 
z
M 4938 4841 
L 1791 -3 
L 1006 -3 
L 4147 4841 
L 4938 4841 
z
M 3297 1141 
Q 3297 1741 3631 2095 
Q 3966 2450 4522 2450 
Q 5059 2450 5357 2131 
Q 5656 1813 5656 1234 
Q 5656 641 5322 286 
Q 4988 -69 4438 -69 
Q 3922 -69 3609 264 
Q 3297 597 3297 1141 
z
M 3981 1175 
Q 3981 500 4478 500 
Q 4978 500 4978 1200 
Q 4978 1528 4845 1704 
Q 4713 1881 4491 1881 
Q 3981 1881 3981 1175 
z
" transform="scale(0.015625)"/>
     </defs>
     <use xlink:href="#MicrosoftYaHei-Bold-39"/>
     <use xlink:href="#MicrosoftYaHei-Bold-35" transform="translate(61.669922 0)"/>
     <use xlink:href="#MicrosoftYaHei-Bold-25" transform="translate(123.339844 0)"/>
    </g>
   </g>
   <g id="text_14">
    <!-- 92% -->
    <g style="fill: #27ae60" transform="translate(387.604 202.316414) scale(0.075 -0.075)">
     <defs>
      <path id="MicrosoftYaHei-Bold-32" d="M 1500 841 
L 3553 841 
L 3553 0 
L 334 0 
L 334 359 
Q 334 738 473 1050 
Q 613 1363 856 1633 
Q 1100 1903 1613 2266 
Q 2081 2616 2268 2886 
Q 2456 3156 2456 3459 
Q 2456 4113 1744 4113 
Q 1119 4113 550 3613 
L 550 4513 
Q 1184 4922 1975 4922 
Q 2700 4922 3122 4551 
Q 3544 4181 3544 3531 
Q 3544 3169 3422 2876 
Q 3300 2584 3069 2328 
Q 2838 2072 2328 1713 
Q 1838 1363 1669 1172 
Q 1500 981 1500 841 
z
" transform="scale(0.015625)"/>
     </defs>
     <use xlink:href="#MicrosoftYaHei-Bold-39"/>
     <use xlink:href="#MicrosoftYaHei-Bold-32" transform="translate(61.669922 0)"/>
     <use xlink:href="#MicrosoftYaHei-Bold-25" transform="translate(123.339844 0)"/>
    </g>
   </g>
   <g id="text_15">
    <!-- 88% -->
    <g style="fill: #c46565" transform="translate(373.092 162.236686) scale(0.075 -0.075)">
     <defs>
      <path id="MicrosoftYaHei-Bold-38" d="M 269 1303 
Q 269 1725 512 2053 
Q 756 2381 1219 2534 
Q 850 2719 648 3003 
Q 447 3288 447 3634 
Q 447 3997 645 4292 
Q 844 4588 1200 4755 
Q 1556 4922 1997 4922 
Q 2441 4922 2800 4758 
Q 3159 4594 3359 4298 
Q 3559 4003 3559 3647 
Q 3559 3309 3339 3018 
Q 3119 2728 2747 2559 
Q 3200 2403 3453 2076 
Q 3706 1750 3706 1313 
Q 3706 697 3228 309 
Q 2750 -78 1988 -78 
Q 1225 -78 747 309 
Q 269 697 269 1303 
z
M 1278 1394 
Q 1278 1056 1472 853 
Q 1666 650 1991 650 
Q 2303 650 2503 853 
Q 2703 1056 2703 1394 
Q 2703 1709 2500 1920 
Q 2297 2131 1991 2131 
Q 1675 2131 1476 1920 
Q 1278 1709 1278 1394 
z
M 1428 3531 
Q 1428 3266 1592 3077 
Q 1756 2888 2006 2888 
Q 2247 2888 2415 3072 
Q 2584 3256 2584 3531 
Q 2584 3806 2420 3997 
Q 2256 4188 2006 4188 
Q 1750 4188 1589 3997 
Q 1428 3806 1428 3531 
z
" transform="scale(0.015625)"/>
     </defs>
     <use xlink:href="#MicrosoftYaHei-Bold-38"/>
     <use xlink:href="#MicrosoftYaHei-Bold-38" transform="translate(61.669922 0)"/>
     <use xlink:href="#MicrosoftYaHei-Bold-25" transform="translate(123.339844 0)"/>
    </g>
   </g>
   <g id="text_16">
    <!-- 90% -->
    <g style="fill: #27ae60" transform="translate(380.348 171.485854) scale(0.075 -0.075)">
     <defs>
      <path id="MicrosoftYaHei-Bold-30" d="M 244 2341 
Q 244 3597 706 4259 
Q 1169 4922 2044 4922 
Q 3713 4922 3713 2453 
Q 3713 1238 3259 577 
Q 2806 -84 1950 -84 
Q 244 -84 244 2341 
z
M 1266 2366 
Q 1266 691 1981 691 
Q 2684 691 2684 2416 
Q 2684 4147 2000 4147 
Q 1266 4147 1266 2366 
z
" transform="scale(0.015625)"/>
     </defs>
     <use xlink:href="#MicrosoftYaHei-Bold-39"/>
     <use xlink:href="#MicrosoftYaHei-Bold-30" transform="translate(61.669922 0)"/>
     <use xlink:href="#MicrosoftYaHei-Bold-25" transform="translate(123.339844 0)"/>
    </g>
   </g>
   <g id="text_17">
    <!-- 75% -->
    <g style="fill: #c46565" transform="translate(325.928 131.406126) scale(0.075 -0.075)">
     <defs>
      <path id="MicrosoftYaHei-Bold-37" d="M 3675 4225 
Q 3088 3172 2798 2528 
Q 2509 1884 2328 1275 
Q 2147 666 2050 0 
L 966 0 
Q 1122 947 1517 1917 
Q 1913 2888 2609 4009 
L 300 4009 
L 300 4841 
L 3675 4841 
L 3675 4225 
z
" transform="scale(0.015625)"/>
     </defs>
     <use xlink:href="#MicrosoftYaHei-Bold-37"/>
     <use xlink:href="#MicrosoftYaHei-Bold-35" transform="translate(61.669922 0)"/>
     <use xlink:href="#MicrosoftYaHei-Bold-25" transform="translate(123.339844 0)"/>
    </g>
   </g>
   <g id="text_18">
    <!-- 65% -->
    <g style="fill: #27ae60" transform="translate(289.648 140.655294) scale(0.075 -0.075)">
     <defs>
      <path id="MicrosoftYaHei-Bold-36" d="M 3378 3938 
Q 3009 4147 2575 4147 
Q 2016 4147 1680 3708 
Q 1344 3269 1344 2572 
L 1363 2572 
Q 1709 3103 2391 3103 
Q 3000 3103 3358 2686 
Q 3716 2269 3716 1600 
Q 3716 869 3250 392 
Q 2784 -84 2059 -84 
Q 1228 -84 786 516 
Q 344 1116 344 2159 
Q 344 3388 917 4155 
Q 1491 4922 2513 4922 
Q 3063 4922 3378 4791 
L 3378 3938 
z
M 1378 1591 
Q 1378 1216 1565 953 
Q 1753 691 2059 691 
Q 2369 691 2547 931 
Q 2725 1172 2725 1534 
Q 2725 2350 2053 2350 
Q 1750 2350 1564 2134 
Q 1378 1919 1378 1591 
z
" transform="scale(0.015625)"/>
     </defs>
     <use xlink:href="#MicrosoftYaHei-Bold-36"/>
     <use xlink:href="#MicrosoftYaHei-Bold-35" transform="translate(61.669922 0)"/>
     <use xlink:href="#MicrosoftYaHei-Bold-25" transform="translate(123.339844 0)"/>
    </g>
   </g>
   <g id="text_19">
    <!-- 62% -->
    <g style="fill: #c46565" transform="translate(278.764 100.575566) scale(0.075 -0.075)">
     <use xlink:href="#MicrosoftYaHei-Bold-36"/>
     <use xlink:href="#MicrosoftYaHei-Bold-32" transform="translate(61.669922 0)"/>
     <use xlink:href="#MicrosoftYaHei-Bold-25" transform="translate(123.339844 0)"/>
    </g>
   </g>
   <g id="text_20">
    <!-- 55% -->
    <g style="fill: #27ae60" transform="translate(253.368 109.824734) scale(0.075 -0.075)">
     <use xlink:href="#MicrosoftYaHei-Bold-35"/>
     <use xlink:href="#MicrosoftYaHei-Bold-35" transform="translate(61.669922 0)"/>
     <use xlink:href="#MicrosoftYaHei-Bold-25" transform="translate(123.339844 0)"/>
    </g>
   </g>
   <g id="text_21">
    <!-- 48% -->
    <g style="fill: #c46565" transform="translate(227.972 69.745006) scale(0.075 -0.075)">
     <defs>
      <path id="MicrosoftYaHei-Bold-34" d="M 3184 4841 
L 3184 1766 
L 3869 1766 
L 3869 1031 
L 3184 1031 
L 3184 0 
L 2266 0 
L 2266 1031 
L 103 1031 
L 103 1772 
Q 775 2522 1362 3359 
Q 1950 4197 2250 4841 
L 3184 4841 
z
M 997 1766 
L 2266 1766 
L 2266 3541 
Q 2116 3259 1836 2859 
Q 1556 2459 997 1766 
z
" transform="scale(0.015625)"/>
     </defs>
     <use xlink:href="#MicrosoftYaHei-Bold-34"/>
     <use xlink:href="#MicrosoftYaHei-Bold-38" transform="translate(61.669922 0)"/>
     <use xlink:href="#MicrosoftYaHei-Bold-25" transform="translate(123.339844 0)"/>
    </g>
   </g>
   <g id="text_22">
    <!-- 50% -->
    <g style="fill: #27ae60" transform="translate(235.228 78.994174) scale(0.075 -0.075)">
     <use xlink:href="#MicrosoftYaHei-Bold-35"/>
     <use xlink:href="#MicrosoftYaHei-Bold-30" transform="translate(61.669922 0)"/>
     <use xlink:href="#MicrosoftYaHei-Bold-25" transform="translate(123.339844 0)"/>
    </g>
   </g>
   <g id="text_23">
    <!-- 35% -->
    <g style="fill: #c46565" transform="translate(180.808 38.914446) scale(0.075 -0.075)">
     <defs>
      <path id="MicrosoftYaHei-Bold-33" d="M 494 1053 
Q 978 691 1625 691 
Q 2034 691 2275 872 
Q 2516 1053 2516 1388 
Q 2516 1731 2230 1912 
Q 1944 2094 1428 2094 
L 997 2094 
L 997 2872 
L 1394 2872 
Q 2369 2872 2369 3528 
Q 2369 4147 1622 4147 
Q 1134 4147 675 3828 
L 675 4663 
Q 1175 4922 1853 4922 
Q 2541 4922 2969 4605 
Q 3397 4288 3397 3725 
Q 3397 2775 2434 2531 
L 2434 2516 
Q 2941 2459 3244 2145 
Q 3547 1831 3547 1381 
Q 3547 691 3042 303 
Q 2538 -84 1697 -84 
Q 950 -84 494 163 
L 494 1053 
z
" transform="scale(0.015625)"/>
     </defs>
     <use xlink:href="#MicrosoftYaHei-Bold-33"/>
     <use xlink:href="#MicrosoftYaHei-Bold-35" transform="translate(61.669922 0)"/>
     <use xlink:href="#MicrosoftYaHei-Bold-25" transform="translate(123.339844 0)"/>
    </g>
   </g>
   <g id="text_24">
    <!-- 40% -->
    <g style="fill: #27ae60" transform="translate(198.948 48.163614) scale(0.075 -0.075)">
     <use xlink:href="#MicrosoftYaHei-Bold-34"/>
     <use xlink:href="#MicrosoftYaHei-Bold-30" transform="translate(61.669922 0)"/>
     <use xlink:href="#MicrosoftYaHei-Bold-25" transform="translate(123.339844 0)"/>
    </g>
   </g>
   <g id="text_25">
    <!-- 往届生 · 备考资源使用率与评价 -->
    <g style="fill: #1a1a2e" transform="translate(158.511484 17.591875) scale(0.13 -0.13)">
     <defs>
      <path id="MicrosoftYaHei-Bold-5f80" d="M 1600 5353 
L 2350 4897 
Q 1550 3897 531 2997 
Q 419 3384 225 3934 
Q 975 4547 1600 5353 
z
M 1988 247 
L 3725 247 
L 3725 1453 
L 2394 1453 
L 2394 2259 
L 3725 2259 
L 3725 3366 
L 2284 3366 
L 2444 3259 
Q 2075 2750 1725 2316 
L 1725 -784 
L 863 -784 
L 863 1344 
Q 588 1066 325 841 
Q 200 1434 81 1834 
Q 950 2641 1713 3753 
L 2238 3397 
L 2238 4172 
L 3956 4172 
Q 3728 4619 3475 5053 
L 4288 5347 
Q 4713 4672 4894 4341 
L 4456 4172 
L 6138 4172 
L 6138 3366 
L 4625 3366 
L 4625 2259 
L 5938 2259 
L 5938 1453 
L 4625 1453 
L 4625 247 
L 6300 247 
L 6300 -559 
L 1988 -559 
L 1988 247 
z
" transform="scale(0.015625)"/>
      <path id="MicrosoftYaHei-Bold-5c4a" d="M 694 5072 
L 5969 5072 
L 5969 3116 
L 1575 3116 
Q 1566 1322 1353 545 
Q 1141 -231 788 -803 
Q 381 -347 94 -59 
Q 344 325 516 892 
Q 688 1459 694 3053 
L 694 5072 
z
M 5088 3841 
L 5088 4347 
L 1575 4347 
L 1575 3841 
L 5088 3841 
z
M 1731 -847 
L 1731 2597 
L 3425 2597 
L 3425 3028 
L 4263 3028 
L 4263 2597 
L 5956 2597 
L 5956 -847 
L 5131 -847 
L 5131 -541 
L 2556 -541 
L 2556 -847 
L 1731 -847 
z
M 2556 1359 
L 3425 1359 
L 3425 1909 
L 2556 1909 
L 2556 1359 
z
M 5131 1909 
L 4263 1909 
L 4263 1359 
L 5131 1359 
L 5131 1909 
z
M 2556 147 
L 3425 147 
L 3425 697 
L 2556 697 
L 2556 147 
z
M 4263 147 
L 5131 147 
L 5131 697 
L 4263 697 
L 4263 147 
z
" transform="scale(0.015625)"/>
      <path id="MicrosoftYaHei-Bold-751f" d="M 350 291 
L 2981 291 
L 2981 1353 
L 1131 1353 
L 1131 2197 
L 2981 2197 
L 2981 3234 
L 1469 3234 
Q 1059 2428 550 1728 
Q 356 2247 125 2803 
Q 769 3659 1219 5084 
L 2150 4853 
Q 2013 4456 1856 4078 
L 2981 4078 
L 2981 5316 
L 3919 5316 
L 3919 4078 
L 5994 4078 
L 5994 3234 
L 3919 3234 
L 3919 2197 
L 5750 2197 
L 5750 1353 
L 3919 1353 
L 3919 291 
L 6219 291 
L 6219 -578 
L 350 -578 
L 350 291 
z
" transform="scale(0.015625)"/>
      <path id="MicrosoftYaHei-Bold-20" transform="scale(0.015625)"/>
      <path id="MicrosoftYaHei-Bold-b7" d="M 1406 2959 
Q 1769 2959 2028 2700 
Q 2288 2441 2288 2078 
Q 2288 1713 2028 1455 
Q 1769 1197 1406 1197 
Q 1041 1197 783 1455 
Q 525 1713 525 2078 
Q 525 2441 783 2700 
Q 1041 2959 1406 2959 
z
" transform="scale(0.015625)"/>
      <path id="MicrosoftYaHei-Bold-5907" d="M 5669 4847 
L 5669 4203 
Q 5119 3644 4275 3213 
Q 5159 3019 6306 2972 
Q 6088 2528 5944 2172 
Q 4325 2325 3194 2750 
Q 2184 2391 884 2153 
L 5600 2153 
L 5600 -828 
L 4738 -828 
L 4738 -584 
L 1663 -584 
L 1663 -828 
L 800 -828 
L 800 2138 
Q 609 2103 413 2072 
Q 269 2416 88 2816 
Q 1294 2978 2219 3219 
Q 1797 3481 1484 3800 
Q 1091 3469 663 3209 
Q 481 3422 119 3759 
Q 1156 4384 1900 5347 
L 2794 5247 
Q 2647 5041 2494 4847 
L 5669 4847 
z
M 3206 3534 
Q 3959 3825 4431 4197 
L 2116 4197 
Q 2550 3803 3206 3534 
z
M 4738 1522 
L 3606 1522 
L 3606 1072 
L 4738 1072 
L 4738 1522 
z
M 1663 1072 
L 2794 1072 
L 2794 1522 
L 1663 1522 
L 1663 1072 
z
M 3606 47 
L 4738 47 
L 4738 497 
L 3606 497 
L 3606 47 
z
M 1663 47 
L 2794 47 
L 2794 497 
L 1663 497 
L 1663 47 
z
" transform="scale(0.015625)"/>
      <path id="MicrosoftYaHei-Bold-8003" d="M 144 3584 
L 2294 3584 
L 2294 4084 
L 650 4084 
L 650 4797 
L 2294 4797 
L 2294 5353 
L 3144 5353 
L 3144 4797 
L 4644 4797 
L 4644 4188 
Q 5056 4569 5469 5028 
L 6094 4553 
Q 5616 4028 5088 3584 
L 6319 3584 
L 6319 2872 
L 4131 2872 
Q 3847 2684 3550 2516 
L 5794 2516 
L 5794 1816 
L 3081 1816 
L 3006 1428 
L 5375 1428 
Q 5297 719 5222 231 
Q 5147 -256 4805 -504 
Q 4463 -753 3850 -753 
Q 3269 -753 2575 -741 
Q 2494 -253 2388 103 
Q 2984 47 3763 47 
Q 4019 47 4164 137 
Q 4309 228 4343 389 
Q 4378 550 4406 728 
L 1925 728 
L 2209 1816 
L 2075 1816 
Q 1266 1488 350 1222 
Q 263 1553 94 1997 
Q 1709 2350 2772 2872 
L 144 2872 
L 144 3584 
z
M 4528 4084 
L 3144 4084 
L 3144 3584 
L 3919 3584 
Q 4222 3813 4528 4084 
z
" transform="scale(0.015625)"/>
      <path id="MicrosoftYaHei-Bold-8d44" d="M 6138 4916 
L 6138 4322 
L 5719 3559 
L 5063 3803 
L 5263 4209 
L 4344 4209 
Q 4319 4103 4288 4003 
Q 4866 3178 6306 3059 
Q 6081 2603 5944 2291 
Q 4528 2472 3975 3303 
Q 3463 2528 2269 2316 
L 5594 2316 
L 5594 553 
L 4719 553 
L 4719 1566 
L 1731 1566 
L 1731 484 
L 856 484 
L 856 2316 
L 1994 2316 
L 1606 2972 
Q 3325 3191 3528 4209 
L 2834 4209 
Q 2603 3834 2356 3534 
Q 2088 3722 1663 3959 
Q 2238 4578 2531 5347 
L 3394 5291 
Q 3306 5097 3219 4916 
L 6138 4916 
z
M 219 4691 
L 731 5328 
Q 1388 4903 1725 4641 
L 1169 3941 
Q 738 4334 219 4691 
z
M 463 2309 
L 94 3153 
Q 875 3572 1519 3991 
L 1875 3209 
Q 1025 2691 463 2309 
z
M 2831 1384 
L 3744 1384 
Q 3688 1006 3569 700 
Q 4603 428 6156 -53 
L 5731 -859 
Q 4894 -544 3159 25 
Q 2538 -684 550 -866 
Q 394 -509 125 -9 
Q 1322 50 2039 320 
Q 2756 591 2831 1384 
z
" transform="scale(0.015625)"/>
      <path id="MicrosoftYaHei-Bold-6e90" d="M 719 5278 
Q 1425 4772 1744 4509 
L 1163 3878 
Q 719 4309 200 4734 
L 719 5278 
z
M 3281 1053 
L 3894 678 
Q 3688 344 3422 -22 
Q 3584 -47 3844 -53 
Q 4119 -16 4125 203 
L 4125 1191 
L 3019 1191 
L 3019 3834 
L 3691 3834 
Q 3803 4094 3888 4372 
L 2669 4372 
L 2669 2491 
Q 2669 141 1975 -884 
Q 1575 -484 1269 -284 
Q 1875 616 1869 2603 
L 1869 5072 
L 6250 5072 
L 6250 4372 
L 4709 4372 
Q 4634 4188 4459 3834 
L 5981 3834 
L 5981 1191 
L 4925 1191 
L 4925 9 
Q 4925 -347 4776 -547 
Q 4628 -747 4323 -790 
Q 4019 -834 3525 -822 
Q 3472 -481 3372 -91 
Q 3191 -334 2988 -591 
L 2406 -122 
Q 2863 359 3281 1053 
z
M 5206 3197 
L 3781 3197 
L 3781 2803 
L 5206 2803 
L 5206 3197 
z
M 5206 1828 
L 5206 2228 
L 3781 2228 
L 3781 1828 
L 5206 1828 
z
M 594 3666 
Q 1069 3322 1581 2878 
L 1019 2203 
Q 563 2647 81 3072 
L 594 3666 
z
M 781 1878 
Q 1250 1666 1550 1578 
L 988 -778 
Q 575 -622 163 -522 
Q 481 434 781 1878 
z
M 5569 1078 
Q 5963 566 6350 -91 
L 5706 -472 
Q 5406 103 4981 734 
L 5569 1078 
z
" transform="scale(0.015625)"/>
      <path id="MicrosoftYaHei-Bold-4f7f" d="M 2138 997 
L 2663 1409 
L 2075 1409 
L 2075 3516 
L 3600 3516 
L 3600 3997 
L 1894 3997 
L 1894 4716 
L 3600 4716 
L 3600 5303 
L 4431 5303 
L 4431 4716 
L 6213 4716 
L 6213 3997 
L 4431 3997 
L 4431 3516 
L 5969 3516 
L 5969 1153 
L 5169 1153 
L 5169 1409 
L 4419 1409 
Q 4381 778 4219 403 
Q 5088 109 6306 78 
Q 6013 -509 5863 -822 
Q 4606 -691 3675 -234 
Q 3175 -572 2144 -884 
Q 1975 -603 1675 -159 
Q 2494 22 2919 228 
Q 2481 559 2138 997 
z
M 1150 5291 
L 1981 5084 
Q 1800 4397 1550 3734 
L 1550 -872 
L 769 -872 
L 769 2022 
Q 550 1616 306 1228 
Q 238 1803 100 2416 
Q 806 3734 1150 5291 
z
M 5169 2103 
L 5169 2822 
L 4431 2822 
L 4431 2103 
L 5169 2103 
z
M 2875 2103 
L 3600 2103 
L 3600 2822 
L 2875 2822 
L 2875 2103 
z
M 3463 747 
Q 3563 1003 3594 1409 
L 2713 1409 
Q 3006 1022 3463 747 
z
" transform="scale(0.015625)"/>
      <path id="MicrosoftYaHei-Bold-7528" d="M 5925 134 
Q 5925 -263 5744 -480 
Q 5563 -697 5189 -736 
Q 4816 -775 4206 -766 
Q 4100 -284 3956 141 
Q 4600 103 4656 103 
Q 5050 103 5050 484 
L 5050 1053 
L 3750 1053 
L 3750 -697 
L 2869 -697 
L 2869 1053 
L 1516 1053 
Q 1419 -325 988 -872 
Q 588 -584 181 -347 
Q 688 341 669 2097 
L 669 5041 
L 5925 5041 
L 5925 134 
z
M 1544 3441 
L 2869 3441 
L 2869 4216 
L 1544 4216 
L 1544 3441 
z
M 5050 4216 
L 3750 4216 
L 3750 3441 
L 5050 3441 
L 5050 4216 
z
M 1544 1859 
L 2869 1859 
L 2869 2634 
L 1544 2634 
L 1544 1859 
z
M 3750 1859 
L 5050 1859 
L 5050 2634 
L 3750 2634 
L 3750 1859 
z
" transform="scale(0.015625)"/>
      <path id="MicrosoftYaHei-Bold-7387" d="M 213 4766 
L 2719 4766 
L 2613 5303 
L 3588 5341 
Q 3631 5119 3684 4766 
L 6200 4766 
L 6200 4028 
L 3447 4028 
L 2775 3391 
L 3391 3403 
Q 3672 3675 3969 3991 
L 4606 3622 
Q 3894 2928 2919 2122 
L 3684 2172 
Q 3588 2322 3500 2447 
L 4069 2772 
Q 4506 2203 4888 1603 
L 4263 1253 
L 4063 1581 
Q 2722 1488 1938 1397 
L 1681 2053 
Q 2163 2328 2722 2797 
Q 2322 2766 2013 2728 
L 1719 3309 
Q 2050 3463 2519 4028 
L 213 4028 
L 213 4766 
z
M 5944 3484 
L 5119 2803 
Q 5609 2513 6188 2141 
L 5725 1472 
Q 5125 1972 4488 2416 
L 4800 2844 
L 4500 3216 
Q 5044 3616 5438 3966 
L 5944 3484 
z
M 375 3472 
L 856 3959 
Q 1225 3672 1650 3272 
L 1144 2759 
Q 713 3191 375 3472 
z
M 1569 2941 
L 1950 2372 
L 544 1372 
L 175 2122 
Q 700 2397 1569 2941 
z
M 88 1066 
L 2763 1066 
L 2763 1341 
L 3638 1341 
L 3638 1066 
L 6288 1066 
L 6288 328 
L 3638 328 
L 3638 -872 
L 2763 -872 
L 2763 328 
L 88 328 
L 88 1066 
z
" transform="scale(0.015625)"/>
      <path id="MicrosoftYaHei-Bold-4e0e" d="M 6138 3747 
L 2000 3747 
L 1956 3041 
L 5838 3041 
L 5738 541 
Q 5709 -169 5351 -453 
Q 4994 -738 4381 -741 
L 3031 -741 
Q 2956 -359 2813 166 
Q 3463 134 4081 134 
Q 4731 134 4784 526 
Q 4838 919 4863 2234 
L 969 2234 
L 1144 5272 
L 2094 5272 
L 2050 4566 
L 6138 4566 
L 6138 3747 
z
M 4456 766 
L 181 766 
L 181 1584 
L 4456 1584 
L 4456 766 
z
" transform="scale(0.015625)"/>
      <path id="MicrosoftYaHei-Bold-8bc4" d="M 1194 5334 
Q 1625 4753 2013 4172 
L 1219 3684 
Q 919 4228 463 4916 
L 1194 5334 
z
M 1963 2078 
L 3725 2078 
L 3725 4216 
L 2269 4216 
L 2269 5016 
L 6100 5016 
L 6100 4216 
L 4638 4216 
L 4638 2078 
L 6294 2078 
L 6294 1278 
L 4638 1278 
L 4638 -834 
L 3725 -834 
L 3725 1278 
L 1963 1278 
L 1963 2078 
z
M 5463 4103 
L 6238 3816 
L 5550 2284 
L 4844 2597 
Q 5125 3216 5463 4103 
z
M 2931 4053 
L 3456 2584 
L 2669 2328 
Q 2413 3084 2131 3816 
L 2931 4053 
z
M 2294 1216 
Q 2338 666 2419 291 
Q 1463 -328 1063 -784 
L 600 -172 
Q 756 28 756 353 
L 756 2422 
L 119 2422 
L 119 3234 
L 1588 3234 
L 1588 672 
Q 2094 1047 2294 1216 
z
" transform="scale(0.015625)"/>
      <path id="MicrosoftYaHei-Bold-4ef7" d="M 4525 2684 
L 5381 2684 
Q 4613 3391 4131 4291 
Q 3613 3428 2813 2678 
L 3625 2678 
Q 3625 2041 3613 1703 
Q 3613 -41 2606 -853 
Q 2375 -578 1938 -222 
Q 2688 484 2713 1591 
Q 2725 1903 2725 2591 
Q 2500 2384 2256 2191 
Q 2081 2553 1825 3028 
Q 2938 3884 3719 5184 
L 4744 5184 
L 4606 4984 
Q 5250 3859 6319 3147 
L 5900 2253 
Q 5650 2434 5431 2634 
L 5431 -766 
L 4525 -766 
L 4525 2684 
z
M 1394 5278 
L 2250 5022 
Q 2025 4322 1731 3666 
L 1731 -797 
L 875 -797 
L 875 2103 
Q 650 1753 400 1422 
Q 313 1809 88 2516 
Q 831 3547 1394 5278 
z
" transform="scale(0.015625)"/>
     </defs>
     <use xlink:href="#MicrosoftYaHei-Bold-5f80"/>
     <use xlink:href="#MicrosoftYaHei-Bold-5c4a" transform="translate(100 0)"/>
     <use xlink:href="#MicrosoftYaHei-Bold-751f" transform="translate(200 0)"/>
     <use xlink:href="#MicrosoftYaHei-Bold-20" transform="translate(300 0)"/>
     <use xlink:href="#MicrosoftYaHei-Bold-b7" transform="translate(329.785156 0)"/>
     <use xlink:href="#MicrosoftYaHei-Bold-20" transform="translate(373.730469 0)"/>
     <use xlink:href="#MicrosoftYaHei-Bold-5907" transform="translate(403.515625 0)"/>
     <use xlink:href="#MicrosoftYaHei-Bold-8003" transform="translate(503.515625 0)"/>
     <use xlink:href="#MicrosoftYaHei-Bold-8d44" transform="translate(603.515625 0)"/>
     <use xlink:href="#MicrosoftYaHei-Bold-6e90" transform="translate(703.515625 0)"/>
     <use xlink:href="#MicrosoftYaHei-Bold-4f7f" transform="translate(803.515625 0)"/>
     <use xlink:href="#MicrosoftYaHei-Bold-7528" transform="translate(903.515625 0)"/>
     <use xlink:href="#MicrosoftYaHei-Bold-7387" transform="translate(1003.515625 0)"/>
     <use xlink:href="#MicrosoftYaHei-Bold-4e0e" transform="translate(1103.515625 0)"/>
     <use xlink:href="#MicrosoftYaHei-Bold-8bc4" transform="translate(1203.515625 0)"/>
     <use xlink:href="#MicrosoftYaHei-Bold-4ef7" transform="translate(1303.515625 0)"/>
    </g>
   </g>
   <g id="legend_1">
    <g id="patch_17">
     <path d="M 370.172813 209.008125 
L 442.98 209.008125 
Q 444.78 209.008125 444.78 207.208125 
L 444.78 180.244687 
Q 444.78 178.444687 442.98 178.444687 
L 370.172813 178.444687 
Q 368.372813 178.444687 368.372813 180.244687 
L 368.372813 207.208125 
Q 368.372813 209.008125 370.172813 209.008125 
z
" style="fill: #ffffff; opacity: 0.8; stroke: #cccccc; stroke-linejoin: miter"/>
    </g>
    <g id="patch_18">
     <path d="M 371.972813 189.239062 
L 389.972813 189.239062 
L 389.972813 182.939062 
L 371.972813 182.939062 
z
" style="fill: #d18080; stroke: #ffffff; stroke-linejoin: miter"/>
    </g>
    <g id="text_26">
     <!-- 使用率% -->
     <g transform="translate(397.172813 189.239062) scale(0.09 -0.09)">
      <defs>
       <path id="MicrosoftYaHei-4f7f" d="M 2269 1247 
L 2688 1478 
Q 2972 997 3409 644 
Q 3634 969 3719 1684 
L 2088 1684 
L 2088 3403 
L 3775 3403 
L 3775 4022 
L 1775 4022 
L 1775 4447 
L 3775 4447 
L 3775 5291 
L 4256 5291 
L 4256 4447 
L 6275 4447 
L 6275 4022 
L 4256 4022 
L 4256 3403 
L 5938 3403 
L 5938 1416 
L 5463 1416 
L 5463 1684 
L 4203 1684 
Q 4106 813 3825 372 
Q 3822 366 3819 363 
Q 4788 -203 6325 -297 
Q 6138 -566 5981 -816 
Q 4472 -631 3488 -3 
Q 2941 -488 1881 -866 
Q 1738 -666 1556 -447 
Q 2572 -128 3081 291 
Q 2594 700 2269 1247 
z
M 94 2284 
Q 931 3553 1394 5316 
L 1856 5178 
Q 1600 4338 1294 3619 
L 1294 -847 
L 850 -847 
L 850 2697 
Q 581 2203 281 1784 
Q 188 2047 94 2284 
z
M 4238 2103 
L 5463 2103 
L 5463 2984 
L 4256 2984 
Q 4256 2741 4238 2103 
z
M 3756 2103 
Q 3775 2400 3775 2984 
L 2563 2984 
L 2563 2103 
L 3756 2103 
z
" transform="scale(0.015625)"/>
       <path id="MicrosoftYaHei-7528" d="M 3088 -734 
L 3088 1253 
L 1269 1253 
Q 1163 -47 513 -903 
Q 350 -697 144 -472 
Q 550 103 694 803 
Q 831 1478 831 2716 
L 831 4947 
L 5925 4947 
L 5925 -22 
Q 5925 -766 5219 -766 
Q 4788 -766 4250 -747 
Q 4219 -541 4156 -228 
Q 4700 -266 5038 -266 
Q 5425 -266 5425 103 
L 5425 1253 
L 3588 1253 
L 3588 -734 
L 3088 -734 
z
M 3588 1703 
L 5425 1703 
L 5425 2872 
L 3588 2872 
L 3588 1703 
z
M 5425 4484 
L 3588 4484 
L 3588 3322 
L 5425 3322 
L 5425 4484 
z
M 1303 1703 
L 3088 1703 
L 3088 2872 
L 1331 2872 
Q 1350 2266 1303 1703 
z
M 1331 4484 
L 1331 3322 
L 3088 3322 
L 3088 4484 
L 1331 4484 
z
" transform="scale(0.015625)"/>
       <path id="MicrosoftYaHei-7387" d="M 2525 2009 
Q 2622 2016 3928 2081 
Q 3772 2300 3625 2491 
L 3963 2703 
Q 4413 2203 4794 1653 
L 4394 1403 
Q 4284 1569 4178 1725 
Q 2991 1659 2213 1597 
Q 2075 1584 1881 1541 
L 1725 1966 
Q 1913 2028 2006 2084 
Q 2534 2441 3050 2913 
Q 2597 2894 2275 2866 
Q 2144 2847 1988 2809 
L 1800 3191 
Q 1956 3247 2088 3366 
Q 2509 3722 2875 4228 
L 231 4228 
L 231 4666 
L 3031 4666 
Q 2878 4944 2744 5153 
L 3194 5372 
Q 3438 5000 3616 4666 
L 6175 4666 
L 6175 4228 
L 3053 4228 
L 3350 4072 
Q 2844 3553 2494 3247 
Q 2850 3256 3425 3269 
Q 3675 3519 3925 3797 
L 4356 3547 
Q 3363 2603 2525 2009 
z
M 144 991 
L 2994 991 
L 2994 1541 
L 3488 1541 
L 3488 991 
L 6275 991 
L 6275 553 
L 3488 553 
L 3488 -853 
L 2994 -853 
L 2994 553 
L 144 553 
L 144 991 
z
M 1719 2672 
L 1944 2303 
Q 1200 1866 425 1409 
L 163 1828 
Q 813 2134 1719 2672 
z
M 4856 2678 
Q 5750 2172 6250 1816 
L 5975 1409 
Q 5331 1909 4600 2341 
L 4856 2678 
z
M 5994 3591 
Q 5519 3178 4963 2809 
L 4644 3141 
Q 5244 3534 5638 3928 
L 5994 3591 
z
M 363 3634 
L 681 3941 
Q 1200 3528 1588 3159 
L 1238 2816 
Q 875 3197 363 3634 
z
" transform="scale(0.015625)"/>
       <path id="MicrosoftYaHei-25" d="M 272 3619 
Q 272 4213 589 4563 
Q 906 4913 1444 4913 
Q 1959 4913 2248 4591 
Q 2538 4269 2538 3694 
Q 2538 3122 2219 2765 
Q 1900 2409 1372 2409 
Q 872 2409 572 2740 
Q 272 3072 272 3619 
z
M 753 3650 
Q 753 3247 928 3028 
Q 1103 2809 1406 2809 
Q 1719 2809 1889 3036 
Q 2059 3263 2059 3675 
Q 2059 4078 1892 4298 
Q 1725 4519 1422 4519 
Q 1113 4519 933 4289 
Q 753 4059 753 3650 
z
M 4647 4841 
L 1538 -31 
L 1016 -31 
L 4125 4841 
L 4647 4841 
z
M 3172 1134 
Q 3172 1728 3489 2083 
Q 3806 2438 4341 2438 
Q 4853 2438 5143 2114 
Q 5434 1791 5434 1203 
Q 5434 634 5112 279 
Q 4791 -75 4272 -75 
Q 3769 -75 3470 261 
Q 3172 597 3172 1134 
z
M 3650 1163 
Q 3650 769 3825 548 
Q 4000 328 4303 328 
Q 4616 328 4786 556 
Q 4956 784 4956 1194 
Q 4956 1600 4786 1815 
Q 4616 2031 4319 2031 
Q 4000 2031 3825 1801 
Q 3650 1572 3650 1163 
z
" transform="scale(0.015625)"/>
      </defs>
      <use xlink:href="#MicrosoftYaHei-4f7f"/>
      <use xlink:href="#MicrosoftYaHei-7528" transform="translate(100 0)"/>
      <use xlink:href="#MicrosoftYaHei-7387" transform="translate(200 0)"/>
      <use xlink:href="#MicrosoftYaHei-25" transform="translate(300 0)"/>
     </g>
    </g>
    <g id="patch_19">
     <path d="M 371.972813 203.170781 
L 389.972813 203.170781 
L 389.972813 196.870781 
L 371.972813 196.870781 
z
" style="fill: #73bfaa; stroke: #ffffff; stroke-linejoin: miter"/>
    </g>
    <g id="text_27">
     <!-- 认为有用% -->
     <g transform="translate(397.172813 203.170781) scale(0.09 -0.09)">
      <defs>
       <path id="MicrosoftYaHei-8ba4" d="M 3788 5253 
L 4294 5253 
Q 4288 4431 4272 3644 
Q 4616 791 6325 -222 
Q 6100 -472 5919 -703 
Q 4584 234 4103 2297 
Q 3759 409 2181 -816 
Q 2038 -641 1819 -416 
Q 3756 978 3769 3678 
Q 3788 4378 3788 5253 
z
M 2525 1634 
Q 2563 1359 2625 1128 
Q 1975 628 1381 97 
Q 1213 -59 1094 -228 
L 725 159 
Q 925 366 925 709 
L 925 2816 
L 88 2816 
L 88 3266 
L 1413 3266 
L 1413 716 
Q 1875 1084 2525 1634 
z
M 1025 5203 
Q 1625 4597 2081 4097 
L 1650 3741 
Q 1213 4291 656 4891 
L 1025 5203 
z
" transform="scale(0.015625)"/>
       <path id="MicrosoftYaHei-4e3a" d="M 356 3684 
L 2703 3684 
Q 2794 4450 2794 5341 
L 3331 5341 
Q 3331 4413 3244 3684 
L 5900 3684 
Q 5863 1753 5788 497 
Q 5725 -672 4550 -672 
Q 4063 -672 3394 -641 
Q 3369 -397 3300 -59 
Q 3888 -141 4456 -141 
Q 5206 -141 5244 597 
Q 5331 1822 5356 3197 
L 3175 3197 
Q 2716 441 606 -903 
Q 431 -684 225 -441 
Q 2169 706 2628 3197 
L 356 3197 
L 356 3684 
z
M 3325 2072 
L 3669 2378 
Q 4269 1822 4756 1284 
L 4369 934 
Q 3888 1503 3325 2072 
z
M 800 4922 
L 1138 5234 
Q 1656 4784 2138 4309 
L 1756 3953 
Q 1294 4459 800 4922 
z
" transform="scale(0.015625)"/>
       <path id="MicrosoftYaHei-6709" d="M 1856 -816 
L 1363 -816 
L 1363 2419 
Q 909 1891 363 1403 
Q 231 1622 63 1859 
Q 1269 2869 1947 4097 
L 238 4097 
L 238 4559 
L 2181 4559 
Q 2359 4950 2488 5359 
L 3006 5241 
Q 2881 4894 2731 4559 
L 6263 4559 
L 6263 4097 
L 2506 4097 
Q 2313 3728 2081 3378 
L 5506 3378 
L 5506 41 
Q 5506 -734 4750 -734 
Q 4419 -741 3744 -741 
Q 3713 -528 3650 -228 
Q 4225 -272 4575 -272 
Q 5006 -272 5006 153 
L 5006 597 
L 1856 597 
L 1856 -816 
z
M 1856 1022 
L 5006 1022 
L 5006 1772 
L 1856 1772 
L 1856 1022 
z
M 5006 2941 
L 1856 2941 
L 1856 2197 
L 5006 2197 
L 5006 2941 
z
" transform="scale(0.015625)"/>
      </defs>
      <use xlink:href="#MicrosoftYaHei-8ba4"/>
      <use xlink:href="#MicrosoftYaHei-4e3a" transform="translate(100 0)"/>
      <use xlink:href="#MicrosoftYaHei-6709" transform="translate(200 0)"/>
      <use xlink:href="#MicrosoftYaHei-7528" transform="translate(300 0)"/>
      <use xlink:href="#MicrosoftYaHei-25" transform="translate(400 0)"/>
     </g>
    </g>
   </g>
  </g>
 </g>
 <defs>
  <clipPath id="p36c6aedba1">
   <rect x="50.2" y="23.591875" width="399.08" height="189.91625"/>
  </clipPath>
 </defs>
</svg>
