<?xml version="1.0" encoding="utf-8" standalone="no"?>
<!DOCTYPE svg PUBLIC "-//W3C//DTD SVG 1.1//EN"
  "http://www.w3.org/Graphics/SVG/1.1/DTD/svg11.dtd">
<svg xmlns:xlink="http://www.w3.org/1999/xlink" width="564.076953pt" height="238.379844pt" viewBox="0 0 564.076953 238.379844" xmlns="http://www.w3.org/2000/svg" version="1.1">
 <metadata>
  <rdf:RDF xmlns:dc="http://purl.org/dc/elements/1.1/" xmlns:cc="http://creativecommons.org/ns#" xmlns:rdf="http://www.w3.org/1999/02/22-rdf-syntax-ns#">
   <cc:Work>
    <dc:type rdf:resource="http://purl.org/dc/dcmitype/StillImage"/>
    <dc:date>2026-05-25T15:44:38.752470</dc:date>
    <dc:format>image/svg+xml</dc:format>
    <dc:creator>
     <cc:Agent>
      <dc:title>Matplotlib v3.10.9, https://matplotlib.org/</dc:title>
     </cc:Agent>
    </dc:creator>
   </cc:Work>
  </rdf:RDF>
 </metadata>
 <defs>
  <style type="text/css">*{stroke-linejoin: round; stroke-linecap: butt}</style>
 </defs>
 <g id="figure_1">
  <g id="patch_1">
   <path d="M 0 238.379844 
L 564.076953 238.379844 
L 564.076953 0 
L 0 0 
z
" style="fill: #ffffff"/>
  </g>
  <g id="axes_1">
   <g id="patch_2">
    <path d="M 73.7 202.364375 
L 549.17 202.364375 
L 549.17 23.591875 
L 73.7 23.591875 
z
" style="fill: #ffffff"/>
   </g>
   <g id="patch_3">
    <path d="M 86.9075 194.238352 
L 126.53 194.238352 
L 126.53 180.591597 
L 86.9075 180.591597 
z
" clip-path="url(#pca5167b635)" style="fill: #e8a060; stroke: #ffffff; stroke-linejoin: miter"/>
   </g>
   <g id="patch_4">
    <path d="M 139.7375 169.426069 
L 232.19 169.426069 
L 232.19 155.779313 
L 139.7375 155.779313 
z
" clip-path="url(#pca5167b635)" style="fill: #d18080; stroke: #ffffff; stroke-linejoin: miter"/>
   </g>
   <g id="patch_5">
    <path d="M 258.605 144.613786 
L 285.02 144.613786 
L 285.02 130.96703 
L 258.605 130.96703 
z
" clip-path="url(#pca5167b635)" style="fill: #95a5a6; stroke: #ffffff; stroke-linejoin: miter"/>
   </g>
   <g id="patch_6">
    <path d="M 298.2275 119.801503 
L 364.265 119.801503 
L 364.265 106.154747 
L 298.2275 106.154747 
z
" clip-path="url(#pca5167b635)" style="fill: #5688cc; stroke: #ffffff; stroke-linejoin: miter"/>
   </g>
   <g id="patch_7">
    <path d="M 377.4725 94.98922 
L 390.68 94.98922 
L 390.68 81.342464 
L 377.4725 81.342464 
z
" clip-path="url(#pca5167b635)" style="fill: #27ae60; stroke: #ffffff; stroke-linejoin: miter"/>
   </g>
   <g id="patch_8">
    <path d="M 443.51 70.176937 
L 509.5475 70.176937 
L 509.5475 56.530181 
L 443.51 56.530181 
z
" clip-path="url(#pca5167b635)" style="fill: #c46565; stroke: #ffffff; stroke-linejoin: miter"/>
   </g>
   <g id="patch_9">
    <path d="M 509.5475 45.364653 
L 529.35875 45.364653 
L 529.35875 31.717898 
L 509.5475 31.717898 
z
" clip-path="url(#pca5167b635)" style="fill: #8e44ad; stroke: #ffffff; stroke-linejoin: miter"/>
   </g>
   <g id="matplotlib.axis_1">
    <g id="xtick_1">
     <g id="line2d_1">
      <defs>
       <path id="m726e092db3" d="M 0 0 
L 0 3.5 
" style="stroke: #000000; stroke-width: 0.8"/>
      </defs>
      <g>
       <use xlink:href="#m726e092db3" x="86.9075" y="202.364375" style="stroke: #000000; stroke-width: 0.8"/>
      </g>
     </g>
     <g id="text_1">
      <!-- 6:00 -->
      <g transform="translate(79.9075 214.96) scale(0.07 -0.07)">
       <defs>
        <path id="MicrosoftYaHei-36" d="M 3181 4219 
Q 2803 4413 2391 4413 
Q 1763 4413 1381 3866 
Q 1000 3319 994 2372 
L 1009 2372 
Q 1353 3038 2106 3038 
Q 2734 3038 3109 2628 
Q 3484 2219 3484 1541 
Q 3484 831 3051 375 
Q 2619 -81 1947 -81 
Q 1209 -81 789 495 
Q 369 1072 369 2131 
Q 369 3413 920 4167 
Q 1472 4922 2372 4922 
Q 2888 4922 3181 4781 
L 3181 4219 
z
M 1031 1584 
Q 1031 1106 1286 765 
Q 1541 425 1963 425 
Q 2363 425 2613 719 
Q 2863 1013 2863 1475 
Q 2863 1975 2627 2253 
Q 2391 2531 1956 2531 
Q 1544 2531 1287 2250 
Q 1031 1969 1031 1584 
z
" transform="scale(0.015625)"/>
        <path id="MicrosoftYaHei-3a" d="M 372 3134 
Q 372 3303 490 3415 
Q 609 3528 775 3528 
Q 944 3528 1062 3414 
Q 1181 3300 1181 3134 
Q 1181 2969 1065 2853 
Q 950 2738 772 2738 
Q 603 2738 487 2853 
Q 372 2969 372 3134 
z
M 372 322 
Q 372 491 487 606 
Q 603 722 775 722 
Q 950 722 1065 605 
Q 1181 488 1181 322 
Q 1181 159 1065 42 
Q 950 -75 772 -75 
Q 600 -75 486 42 
Q 372 159 372 322 
z
" transform="scale(0.015625)"/>
        <path id="MicrosoftYaHei-30" d="M 284 2325 
Q 284 3606 709 4264 
Q 1134 4922 1941 4922 
Q 3478 4922 3478 2441 
Q 3478 1216 3045 567 
Q 2613 -81 1831 -81 
Q 1094 -81 689 534 
Q 284 1150 284 2325 
z
M 909 2353 
Q 909 425 1888 425 
Q 2850 425 2850 2384 
Q 2850 4413 1906 4413 
Q 909 4413 909 2353 
z
" transform="scale(0.015625)"/>
       </defs>
       <use xlink:href="#MicrosoftYaHei-36"/>
       <use xlink:href="#MicrosoftYaHei-3a" transform="translate(58.642578 0)"/>
       <use xlink:href="#MicrosoftYaHei-30" transform="translate(82.714844 0)"/>
       <use xlink:href="#MicrosoftYaHei-30" transform="translate(141.357422 0)"/>
      </g>
     </g>
    </g>
    <g id="xtick_2">
     <g id="line2d_2">
      <g>
       <use xlink:href="#m726e092db3" x="139.7375" y="202.364375" style="stroke: #000000; stroke-width: 0.8"/>
      </g>
     </g>
     <g id="text_2">
      <!-- 8:00 -->
      <g transform="translate(132.7375 214.96) scale(0.07 -0.07)">
       <defs>
        <path id="MicrosoftYaHei-38" d="M 306 1350 
Q 306 1769 556 2122 
Q 806 2475 1200 2625 
Q 884 2803 700 3081 
Q 516 3359 516 3684 
Q 516 4028 692 4312 
Q 869 4597 1183 4759 
Q 1497 4922 1875 4922 
Q 2256 4922 2572 4761 
Q 2888 4600 3063 4315 
Q 3238 4031 3238 3684 
Q 3238 3366 3058 3086 
Q 2878 2806 2559 2625 
Q 2953 2472 3200 2119 
Q 3447 1766 3447 1350 
Q 3447 938 3250 611 
Q 3053 284 2690 103 
Q 2328 -78 1875 -78 
Q 1425 -78 1065 103 
Q 706 284 506 612 
Q 306 941 306 1350 
z
M 906 1378 
Q 906 947 1172 687 
Q 1438 428 1878 428 
Q 2309 428 2582 692 
Q 2856 956 2856 1378 
Q 2856 1778 2579 2051 
Q 2303 2325 1878 2325 
Q 1456 2325 1181 2058 
Q 906 1791 906 1378 
z
M 1081 3634 
Q 1081 3309 1312 3076 
Q 1544 2844 1878 2844 
Q 2206 2844 2445 3078 
Q 2684 3313 2684 3634 
Q 2684 3963 2454 4191 
Q 2225 4419 1878 4419 
Q 1534 4419 1307 4195 
Q 1081 3972 1081 3634 
z
" transform="scale(0.015625)"/>
       </defs>
       <use xlink:href="#MicrosoftYaHei-38"/>
       <use xlink:href="#MicrosoftYaHei-3a" transform="translate(58.642578 0)"/>
       <use xlink:href="#MicrosoftYaHei-30" transform="translate(82.714844 0)"/>
       <use xlink:href="#MicrosoftYaHei-30" transform="translate(141.357422 0)"/>
      </g>
     </g>
    </g>
    <g id="xtick_3">
     <g id="line2d_3">
      <g>
       <use xlink:href="#m726e092db3" x="192.5675" y="202.364375" style="stroke: #000000; stroke-width: 0.8"/>
      </g>
     </g>
     <g id="text_3">
      <!-- 10:00 -->
      <g transform="translate(183.515078 214.96) scale(0.07 -0.07)">
       <defs>
        <path id="MicrosoftYaHei-31" d="M 1781 0 
L 1781 4141 
Q 1638 3997 1295 3819 
Q 953 3641 663 3569 
L 663 4169 
Q 1047 4275 1484 4508 
Q 1922 4741 2156 4947 
L 2388 4947 
L 2388 0 
L 1781 0 
z
" transform="scale(0.015625)"/>
       </defs>
       <use xlink:href="#MicrosoftYaHei-31"/>
       <use xlink:href="#MicrosoftYaHei-30" transform="translate(58.642578 0)"/>
       <use xlink:href="#MicrosoftYaHei-3a" transform="translate(117.285156 0)"/>
       <use xlink:href="#MicrosoftYaHei-30" transform="translate(141.357422 0)"/>
       <use xlink:href="#MicrosoftYaHei-30" transform="translate(200 0)"/>
      </g>
     </g>
    </g>
    <g id="xtick_4">
     <g id="line2d_4">
      <g>
       <use xlink:href="#m726e092db3" x="245.3975" y="202.364375" style="stroke: #000000; stroke-width: 0.8"/>
      </g>
     </g>
     <g id="text_4">
      <!-- 12:00 -->
      <g transform="translate(236.345078 214.96) scale(0.07 -0.07)">
       <defs>
        <path id="MicrosoftYaHei-32" d="M 2666 3572 
Q 2666 3963 2419 4186 
Q 2172 4409 1747 4409 
Q 1447 4409 1140 4256 
Q 834 4103 569 3819 
L 569 4413 
Q 806 4659 1107 4790 
Q 1409 4922 1816 4922 
Q 2472 4922 2872 4570 
Q 3272 4219 3272 3619 
Q 3272 3084 3026 2693 
Q 2781 2303 2188 1894 
Q 1581 1475 1376 1294 
Q 1172 1113 1090 947 
Q 1009 781 1009 544 
L 3416 544 
L 3416 0 
L 372 0 
L 372 241 
Q 372 659 486 951 
Q 600 1244 862 1520 
Q 1125 1797 1681 2184 
Q 2250 2584 2458 2886 
Q 2666 3188 2666 3572 
z
" transform="scale(0.015625)"/>
       </defs>
       <use xlink:href="#MicrosoftYaHei-31"/>
       <use xlink:href="#MicrosoftYaHei-32" transform="translate(58.642578 0)"/>
       <use xlink:href="#MicrosoftYaHei-3a" transform="translate(117.285156 0)"/>
       <use xlink:href="#MicrosoftYaHei-30" transform="translate(141.357422 0)"/>
       <use xlink:href="#MicrosoftYaHei-30" transform="translate(200 0)"/>
      </g>
     </g>
    </g>
    <g id="xtick_5">
     <g id="line2d_5">
      <g>
       <use xlink:href="#m726e092db3" x="298.2275" y="202.364375" style="stroke: #000000; stroke-width: 0.8"/>
      </g>
     </g>
     <g id="text_5">
      <!-- 14:00 -->
      <g transform="translate(289.175078 214.96) scale(0.07 -0.07)">
       <defs>
        <path id="MicrosoftYaHei-34" d="M 2906 4841 
L 2906 1644 
L 3631 1644 
L 3631 1138 
L 2906 1138 
L 2906 0 
L 2313 0 
L 2313 1138 
L 53 1138 
L 53 1616 
Q 656 2294 1265 3178 
Q 1875 4063 2272 4841 
L 2906 4841 
z
M 741 1644 
L 2313 1644 
L 2313 3950 
Q 1988 3366 1616 2817 
Q 1244 2269 741 1644 
z
" transform="scale(0.015625)"/>
       </defs>
       <use xlink:href="#MicrosoftYaHei-31"/>
       <use xlink:href="#MicrosoftYaHei-34" transform="translate(58.642578 0)"/>
       <use xlink:href="#MicrosoftYaHei-3a" transform="translate(117.285156 0)"/>
       <use xlink:href="#MicrosoftYaHei-30" transform="translate(141.357422 0)"/>
       <use xlink:href="#MicrosoftYaHei-30" transform="translate(200 0)"/>
      </g>
     </g>
    </g>
    <g id="xtick_6">
     <g id="line2d_6">
      <g>
       <use xlink:href="#m726e092db3" x="351.0575" y="202.364375" style="stroke: #000000; stroke-width: 0.8"/>
      </g>
     </g>
     <g id="text_6">
      <!-- 16:00 -->
      <g transform="translate(342.005078 214.96) scale(0.07 -0.07)">
       <use xlink:href="#MicrosoftYaHei-31"/>
       <use xlink:href="#MicrosoftYaHei-36" transform="translate(58.642578 0)"/>
       <use xlink:href="#MicrosoftYaHei-3a" transform="translate(117.285156 0)"/>
       <use xlink:href="#MicrosoftYaHei-30" transform="translate(141.357422 0)"/>
       <use xlink:href="#MicrosoftYaHei-30" transform="translate(200 0)"/>
      </g>
     </g>
    </g>
    <g id="xtick_7">
     <g id="line2d_7">
      <g>
       <use xlink:href="#m726e092db3" x="403.8875" y="202.364375" style="stroke: #000000; stroke-width: 0.8"/>
      </g>
     </g>
     <g id="text_7">
      <!-- 18:00 -->
      <g transform="translate(394.835078 214.96) scale(0.07 -0.07)">
       <use xlink:href="#MicrosoftYaHei-31"/>
       <use xlink:href="#MicrosoftYaHei-38" transform="translate(58.642578 0)"/>
       <use xlink:href="#MicrosoftYaHei-3a" transform="translate(117.285156 0)"/>
       <use xlink:href="#MicrosoftYaHei-30" transform="translate(141.357422 0)"/>
       <use xlink:href="#MicrosoftYaHei-30" transform="translate(200 0)"/>
      </g>
     </g>
    </g>
    <g id="xtick_8">
     <g id="line2d_8">
      <g>
       <use xlink:href="#m726e092db3" x="456.7175" y="202.364375" style="stroke: #000000; stroke-width: 0.8"/>
      </g>
     </g>
     <g id="text_8">
      <!-- 20:00 -->
      <g transform="translate(447.665078 214.96) scale(0.07 -0.07)">
       <use xlink:href="#MicrosoftYaHei-32"/>
       <use xlink:href="#MicrosoftYaHei-30" transform="translate(58.642578 0)"/>
       <use xlink:href="#MicrosoftYaHei-3a" transform="translate(117.285156 0)"/>
       <use xlink:href="#MicrosoftYaHei-30" transform="translate(141.357422 0)"/>
       <use xlink:href="#MicrosoftYaHei-30" transform="translate(200 0)"/>
      </g>
     </g>
    </g>
    <g id="xtick_9">
     <g id="line2d_9">
      <g>
       <use xlink:href="#m726e092db3" x="509.5475" y="202.364375" style="stroke: #000000; stroke-width: 0.8"/>
      </g>
     </g>
     <g id="text_9">
      <!-- 22:00 -->
      <g transform="translate(500.495078 214.96) scale(0.07 -0.07)">
       <use xlink:href="#MicrosoftYaHei-32"/>
       <use xlink:href="#MicrosoftYaHei-32" transform="translate(58.642578 0)"/>
       <use xlink:href="#MicrosoftYaHei-3a" transform="translate(117.285156 0)"/>
       <use xlink:href="#MicrosoftYaHei-30" transform="translate(141.357422 0)"/>
       <use xlink:href="#MicrosoftYaHei-30" transform="translate(200 0)"/>
      </g>
     </g>
    </g>
    <g id="text_10">
     <!-- 时间 -->
     <g transform="translate(301.435 228.693906) scale(0.1 -0.1)">
      <defs>
       <path id="MicrosoftYaHei-65f6" d="M 344 4728 
L 2500 4728 
L 2500 -366 
L 2006 -366 
L 2006 153 
L 838 153 
L 838 -441 
L 344 -441 
L 344 4728 
z
M 2706 3941 
L 4925 3941 
L 4925 5322 
L 5425 5322 
L 5425 3941 
L 6313 3941 
L 6313 3478 
L 5425 3478 
L 5425 116 
Q 5425 -722 4625 -722 
Q 4263 -722 3563 -703 
Q 3531 -478 3463 -178 
Q 4119 -228 4488 -228 
Q 4925 -228 4925 216 
L 4925 3478 
L 2706 3478 
L 2706 3941 
z
M 838 616 
L 2006 616 
L 2006 2234 
L 838 2234 
L 838 616 
z
M 2006 4266 
L 838 4266 
L 838 2684 
L 2006 2684 
L 2006 4266 
z
M 3406 2878 
Q 3906 1966 4163 1422 
Q 4000 1347 3663 1172 
Q 3419 1766 2963 2653 
L 3406 2878 
z
" transform="scale(0.015625)"/>
       <path id="MicrosoftYaHei-95f4" d="M 1863 3647 
L 4513 3647 
L 4513 553 
L 2313 553 
L 2313 166 
L 1863 166 
L 1863 3647 
z
M 2388 4453 
L 2388 4922 
L 6013 4922 
L 6013 -28 
Q 6013 -816 5119 -816 
Q 4756 -816 4169 -803 
Q 4144 -616 4069 -297 
Q 4588 -334 5056 -334 
Q 5525 -334 5525 122 
L 5525 4453 
L 2388 4453 
z
M 419 4084 
L 906 4084 
L 906 -816 
L 419 -816 
L 419 4084 
z
M 2313 997 
L 4063 997 
L 4063 1884 
L 2313 1884 
L 2313 997 
z
M 4063 3203 
L 2313 3203 
L 2313 2328 
L 4063 2328 
L 4063 3203 
z
M 744 5003 
L 1100 5322 
Q 1575 4872 1981 4447 
L 1575 4091 
Q 1194 4541 744 5003 
z
" transform="scale(0.015625)"/>
      </defs>
      <use xlink:href="#MicrosoftYaHei-65f6"/>
      <use xlink:href="#MicrosoftYaHei-95f4" transform="translate(100 0)"/>
     </g>
    </g>
   </g>
   <g id="matplotlib.axis_2">
    <g id="ytick_1">
     <g id="line2d_10">
      <defs>
       <path id="m5c08da08de" d="M 0 0 
L -3.5 0 
" style="stroke: #000000; stroke-width: 0.8"/>
      </defs>
      <g>
       <use xlink:href="#m5c08da08de" x="73.7" y="187.414974" style="stroke: #000000; stroke-width: 0.8"/>
      </g>
     </g>
     <g id="text_11">
      <!-- 晨读记忆 -->
      <g transform="translate(32.7 186.358451) scale(0.085 -0.085)">
       <defs>
        <path id="MicrosoftYaHei-6668" d="M 1013 5016 
L 5469 5016 
L 5469 2947 
L 5019 2947 
L 5019 3122 
L 1463 3122 
L 1463 2947 
L 1013 2947 
L 1013 5016 
z
M 5400 772 
L 5719 466 
Q 5288 216 4806 -22 
Q 5450 -272 6306 -316 
Q 6194 -503 6069 -741 
Q 4094 -591 3119 816 
L 2238 816 
L 2238 -247 
Q 2688 -172 3556 -9 
Q 3538 -191 3531 -447 
Q 2744 -578 2281 -678 
Q 2050 -734 1850 -841 
L 1631 -428 
Q 1800 -322 1800 34 
L 1800 816 
L 1150 816 
Q 975 -228 419 -891 
Q 406 -878 381 -841 
Q 175 -578 106 -516 
Q 781 322 781 1834 
L 781 2753 
L 6013 2753 
L 6013 2366 
L 1231 2366 
Q 1231 1828 1200 1203 
L 6056 1203 
L 6056 816 
L 3625 816 
Q 3950 428 4400 172 
Q 4975 484 5400 772 
z
M 1481 1978 
L 5544 1978 
L 5544 1603 
L 1481 1603 
L 1481 1978 
z
M 1463 3497 
L 5019 3497 
L 5019 3891 
L 1463 3891 
L 1463 3497 
z
M 5019 4641 
L 1463 4641 
L 1463 4253 
L 5019 4253 
L 5019 4641 
z
" transform="scale(0.015625)"/>
        <path id="MicrosoftYaHei-8bfb" d="M 1844 3516 
L 3750 3516 
L 3750 4141 
L 2075 4141 
L 2075 4578 
L 3750 4578 
L 3750 5303 
L 4225 5303 
L 4225 4578 
L 6013 4578 
L 6013 4141 
L 4225 4141 
L 4225 3516 
L 6138 3516 
L 6063 2291 
Q 5838 2316 5581 2322 
L 5650 3078 
L 1844 3078 
L 1844 3516 
z
M 1794 1291 
L 4063 1291 
Q 4188 1803 4156 2916 
L 4631 2916 
Q 4650 1741 4556 1291 
L 6219 1291 
L 6219 853 
L 4463 853 
Q 4419 734 4369 634 
Q 5300 134 6200 -391 
L 5888 -816 
Q 4950 -222 4125 247 
Q 3563 -434 2044 -884 
Q 1906 -666 1731 -434 
Q 3544 53 3950 853 
L 1794 853 
L 1794 1291 
z
M 2025 672 
Q 2038 384 2069 128 
Q 1381 -316 913 -691 
L 625 -278 
Q 838 -91 838 259 
L 838 2678 
L 88 2678 
L 88 3128 
L 1306 3128 
L 1306 166 
Q 1619 378 2025 672 
z
M 813 5147 
Q 1288 4672 1763 4141 
L 1331 3784 
Q 894 4334 431 4834 
L 813 5147 
z
M 2056 1997 
L 2281 2334 
Q 2869 2053 3425 1728 
L 3181 1353 
Q 2675 1678 2056 1997 
z
M 2513 2678 
L 2744 3022 
Q 3331 2734 3869 2434 
L 3619 2053 
Q 3088 2384 2513 2678 
z
" transform="scale(0.015625)"/>
        <path id="MicrosoftYaHei-8bb0" d="M 2975 2466 
L 2975 341 
Q 2975 -128 3425 -128 
L 5019 -128 
Q 5588 -128 5663 291 
Q 5731 628 5794 1266 
Q 6063 1159 6319 1084 
Q 6238 503 6138 72 
Q 6000 -603 5125 -603 
L 3250 -603 
Q 2488 -603 2488 197 
L 2488 2928 
L 5375 2928 
L 5375 4534 
L 2225 4534 
L 2225 4997 
L 5863 4997 
L 5863 2166 
L 5375 2166 
L 5375 2466 
L 2975 2466 
z
M 2206 716 
Q 2225 391 2250 178 
Q 1438 -366 994 -722 
L 700 -303 
Q 913 -141 913 259 
L 913 2703 
L 100 2703 
L 100 3166 
L 1400 3166 
L 1400 147 
Q 1775 403 2206 716 
z
M 806 5222 
Q 1488 4522 1794 4184 
L 1356 3816 
Q 963 4334 425 4891 
L 806 5222 
z
" transform="scale(0.015625)"/>
        <path id="MicrosoftYaHei-5fc6" d="M 1038 5259 
L 1531 5259 
L 1531 3947 
L 1769 4134 
Q 2200 3703 2563 3228 
L 2188 2922 
Q 1881 3397 1531 3772 
L 1531 -847 
L 1038 -847 
L 1038 5259 
z
M 381 3816 
L 819 3753 
Q 700 2903 531 2153 
Q 344 2203 88 2253 
Q 263 2903 381 3816 
z
M 5794 1628 
Q 5950 1553 6319 1441 
Q 6269 772 6175 234 
Q 6044 -547 5119 -566 
Q 4075 -603 3181 -566 
Q 2363 -522 2194 -34 
Q 2038 453 2581 1241 
Q 3350 2334 5131 4322 
L 2350 4322 
L 2350 4797 
L 5769 4797 
L 5769 4278 
Q 4069 2409 3150 1153 
Q 2625 422 2681 172 
Q 2731 -78 3369 -91 
Q 4131 -122 5025 -84 
Q 5594 -66 5675 422 
Q 5750 816 5794 1628 
z
" transform="scale(0.015625)"/>
       </defs>
       <use xlink:href="#MicrosoftYaHei-6668"/>
       <use xlink:href="#MicrosoftYaHei-8bfb" transform="translate(100 0)"/>
       <use xlink:href="#MicrosoftYaHei-8bb0" transform="translate(200 0)"/>
       <use xlink:href="#MicrosoftYaHei-5fc6" transform="translate(300 0)"/>
      </g>
      <!-- （黄金记忆期） -->
      <g transform="translate(7.2 196.625123) scale(0.085 -0.085)">
       <defs>
        <path id="MicrosoftYaHei-ff08" d="M 5288 -1100 
Q 4172 119 4172 1850 
Q 4172 3603 5288 4838 
L 5825 4838 
Q 4716 3572 4716 1856 
Q 4716 166 5819 -1100 
L 5288 -1100 
z
" transform="scale(0.015625)"/>
        <path id="MicrosoftYaHei-9ec4" d="M 900 2759 
L 2963 2759 
L 2963 3303 
L 175 3303 
L 175 3728 
L 1869 3728 
L 1869 4328 
L 369 4328 
L 369 4753 
L 1869 4753 
L 1869 5341 
L 2344 5341 
L 2344 4753 
L 4069 4753 
L 4069 5341 
L 4544 5341 
L 4544 4753 
L 6044 4753 
L 6044 4328 
L 4544 4328 
L 4544 3728 
L 6250 3728 
L 6250 3303 
L 3438 3303 
L 3438 2759 
L 5506 2759 
L 5506 172 
L 5038 172 
L 5038 359 
L 1369 359 
L 1369 172 
L 900 172 
L 900 2759 
z
M 3744 -134 
L 3925 241 
Q 5250 -109 6156 -422 
L 5956 -847 
Q 4788 -453 3744 -134 
z
M 2344 3728 
L 4069 3728 
L 4069 4328 
L 2344 4328 
L 2344 3728 
z
M 2325 241 
L 2600 -153 
Q 1513 -622 456 -909 
Q 369 -722 238 -484 
Q 1363 -209 2325 241 
z
M 5038 2347 
L 3438 2347 
L 3438 1759 
L 5038 1759 
L 5038 2347 
z
M 3438 772 
L 5038 772 
L 5038 1359 
L 3438 1359 
L 3438 772 
z
M 1369 1759 
L 2963 1759 
L 2963 2347 
L 1369 2347 
L 1369 1759 
z
M 1369 772 
L 2963 772 
L 2963 1359 
L 1369 1359 
L 1369 772 
z
" transform="scale(0.015625)"/>
        <path id="MicrosoftYaHei-91d1" d="M 300 -141 
L 2950 -141 
L 2950 1384 
L 713 1384 
L 713 1841 
L 2950 1841 
L 2950 2716 
L 1325 2716 
L 1325 3153 
Q 881 2872 363 2591 
Q 231 2828 50 3059 
Q 2131 4034 2994 5297 
L 3675 5297 
L 3531 5122 
Q 4525 3853 6344 3147 
Q 6175 2909 6013 2647 
Q 5525 2853 5069 3141 
L 5069 2716 
L 3450 2716 
L 3450 1841 
L 5675 1841 
L 5675 1384 
L 3450 1384 
L 3450 -141 
L 6113 -141 
L 6113 -603 
L 300 -603 
L 300 -141 
z
M 3206 4766 
Q 2563 3953 1350 3172 
L 5019 3172 
Q 4044 3791 3206 4766 
z
M 4094 284 
Q 4600 809 4950 1309 
L 5388 1028 
Q 4950 484 4469 -16 
L 4094 284 
z
M 1000 1003 
L 1369 1297 
Q 1825 834 2263 334 
L 1838 -3 
Q 1463 491 1000 1003 
z
" transform="scale(0.015625)"/>
        <path id="MicrosoftYaHei-671f" d="M 3769 5066 
L 5981 5066 
L 5981 -3 
Q 5981 -741 5281 -741 
Q 4931 -741 4594 -722 
Q 4569 -516 4519 -241 
Q 4975 -284 5175 -284 
Q 5519 -284 5519 59 
L 5519 1372 
L 4181 1372 
Q 4113 3 3350 -903 
Q 3181 -728 2975 -553 
Q 3481 28 3619 653 
Q 3769 1253 3769 2741 
L 3769 5066 
z
M 125 1141 
L 713 1141 
L 713 4028 
L 200 4028 
L 200 4453 
L 713 4453 
L 713 5216 
L 1175 5216 
L 1175 4453 
L 2475 4453 
L 2475 5241 
L 2938 5241 
L 2938 4453 
L 3444 4453 
L 3444 4028 
L 2938 4028 
L 2938 1141 
L 3438 1141 
L 3438 716 
L 125 716 
L 125 1141 
z
M 4209 1784 
L 5519 1784 
L 5519 3009 
L 4231 3009 
Q 4238 2203 4209 1784 
z
M 5519 4641 
L 4231 4641 
L 4231 3422 
L 5519 3422 
L 5519 4641 
z
M 1175 1141 
L 2475 1141 
L 2475 1841 
L 1175 1841 
L 1175 1141 
z
M 1175 2241 
L 2475 2241 
L 2475 2934 
L 1175 2934 
L 1175 2241 
z
M 1175 3334 
L 2475 3334 
L 2475 4028 
L 1175 4028 
L 1175 3334 
z
M 1175 597 
L 1556 297 
Q 925 -384 406 -847 
Q 275 -697 75 -516 
Q 669 -9 1175 597 
z
M 1994 303 
L 2294 609 
Q 2731 284 3119 -47 
L 2788 -403 
Q 2438 -53 1994 303 
z
" transform="scale(0.015625)"/>
        <path id="MicrosoftYaHei-ff09" d="M 1113 -1100 
L 575 -1100 
Q 1684 163 1684 1888 
Q 1684 3581 581 4838 
L 1113 4838 
Q 2222 3628 2222 1888 
Q 2222 128 1113 -1100 
z
" transform="scale(0.015625)"/>
       </defs>
       <use xlink:href="#MicrosoftYaHei-ff08"/>
       <use xlink:href="#MicrosoftYaHei-9ec4" transform="translate(100 0)"/>
       <use xlink:href="#MicrosoftYaHei-91d1" transform="translate(200 0)"/>
       <use xlink:href="#MicrosoftYaHei-8bb0" transform="translate(300 0)"/>
       <use xlink:href="#MicrosoftYaHei-5fc6" transform="translate(400 0)"/>
       <use xlink:href="#MicrosoftYaHei-671f" transform="translate(500 0)"/>
       <use xlink:href="#MicrosoftYaHei-ff09" transform="translate(600 0)"/>
      </g>
     </g>
    </g>
    <g id="ytick_2">
     <g id="line2d_11">
      <g>
       <use xlink:href="#m5c08da08de" x="73.7" y="162.602691" style="stroke: #000000; stroke-width: 0.8"/>
      </g>
     </g>
     <g id="text_12">
      <!-- 上午主攻 -->
      <g transform="translate(32.7 161.546168) scale(0.085 -0.085)">
       <defs>
        <path id="MicrosoftYaHei-4e0a" d="M 163 47 
L 2613 47 
L 2613 5209 
L 3181 5209 
L 3181 3328 
L 5750 3328 
L 5750 2828 
L 3181 2828 
L 3181 47 
L 6244 47 
L 6244 -453 
L 163 -453 
L 163 47 
z
" transform="scale(0.015625)"/>
        <path id="MicrosoftYaHei-5348" d="M 175 2184 
L 3175 2184 
L 3175 4034 
L 1647 4034 
Q 1281 3328 794 2734 
Q 606 2891 356 3053 
Q 1275 4066 1681 5372 
L 2169 5278 
Q 2038 4878 1872 4509 
L 5794 4509 
L 5794 4034 
L 3700 4034 
L 3700 2184 
L 6300 2184 
L 6300 1709 
L 3700 1709 
L 3700 -847 
L 3175 -847 
L 3175 1709 
L 175 1709 
L 175 2184 
z
" transform="scale(0.015625)"/>
        <path id="MicrosoftYaHei-4e3b" d="M 150 9 
L 2931 9 
L 2931 1809 
L 644 1809 
L 644 2284 
L 2931 2284 
L 2931 3709 
L 400 3709 
L 400 4184 
L 5975 4184 
L 5975 3709 
L 3469 3709 
L 3469 2284 
L 5756 2284 
L 5756 1809 
L 3469 1809 
L 3469 9 
L 6250 9 
L 6250 -453 
L 150 -453 
L 150 9 
z
M 2694 5109 
L 3156 5347 
Q 3538 4778 3706 4466 
L 3213 4203 
Q 2875 4828 2694 5109 
z
" transform="scale(0.015625)"/>
        <path id="MicrosoftYaHei-653b" d="M 3419 5222 
L 3925 5091 
Q 3794 4634 3650 4234 
L 6200 4234 
L 6200 3759 
L 5728 3759 
Q 5475 1897 4625 772 
Q 5281 94 6325 -297 
Q 6056 -628 5950 -784 
Q 4944 -325 4278 375 
Q 3522 -384 2394 -866 
Q 2219 -591 2031 -416 
Q 3203 31 3941 781 
Q 3309 1659 3063 2891 
Q 2831 2463 2575 2147 
Q 2456 2422 2300 2647 
Q 3025 3628 3419 5222 
z
M 188 4528 
L 2556 4528 
L 2556 4041 
L 1600 4041 
L 1600 919 
Q 2113 1044 2675 1191 
Q 2688 859 2719 684 
Q 1600 416 231 53 
L 88 584 
Q 563 681 1094 800 
L 1094 4041 
L 188 4041 
L 188 4528 
z
M 3403 3600 
Q 3603 2134 4288 1178 
Q 5028 2166 5216 3759 
L 3472 3759 
Q 3438 3678 3403 3600 
z
" transform="scale(0.015625)"/>
       </defs>
       <use xlink:href="#MicrosoftYaHei-4e0a"/>
       <use xlink:href="#MicrosoftYaHei-5348" transform="translate(100 0)"/>
       <use xlink:href="#MicrosoftYaHei-4e3b" transform="translate(200 0)"/>
       <use xlink:href="#MicrosoftYaHei-653b" transform="translate(300 0)"/>
      </g>
      <!-- （理科/难题） -->
      <g transform="translate(12.068906 171.81284) scale(0.085 -0.085)">
       <defs>
        <path id="MicrosoftYaHei-7406" d="M 2031 -166 
L 3988 -166 
L 3988 734 
L 2394 734 
L 2394 1172 
L 3988 1172 
L 3988 1997 
L 2988 1997 
L 2988 1766 
L 2525 1766 
L 2525 4991 
L 5913 4991 
L 5913 1766 
L 5450 1766 
L 5450 1997 
L 4450 1997 
L 4450 1172 
L 6044 1172 
L 6044 734 
L 4450 734 
L 4450 -166 
L 6319 -166 
L 6319 -603 
L 2031 -603 
L 2031 -166 
z
M 44 203 
Q 525 319 975 434 
L 975 2328 
L 194 2328 
L 194 2766 
L 975 2766 
L 975 4328 
L 131 4328 
L 131 4766 
L 2281 4766 
L 2281 4328 
L 1438 4328 
L 1438 2766 
L 2231 2766 
L 2231 2328 
L 1438 2328 
L 1438 559 
Q 1850 675 2238 791 
Q 2269 509 2306 303 
Q 1238 16 213 -303 
L 44 203 
z
M 4450 2422 
L 5450 2422 
L 5450 3291 
L 4450 3291 
L 4450 2422 
z
M 2988 2422 
L 3988 2422 
L 3988 3291 
L 2988 3291 
L 2988 2422 
z
M 5450 4566 
L 4450 4566 
L 4450 3703 
L 5450 3703 
L 5450 4566 
z
M 2988 3703 
L 3988 3703 
L 3988 4566 
L 2988 4566 
L 2988 3703 
z
" transform="scale(0.015625)"/>
        <path id="MicrosoftYaHei-79d1" d="M 75 872 
Q 788 1828 1150 3003 
L 163 3003 
L 163 3447 
L 1188 3447 
L 1188 4366 
Q 706 4316 281 4278 
Q 238 4509 156 4741 
Q 1369 4828 2563 5016 
L 2725 4553 
Q 2163 4478 1656 4422 
L 1656 3447 
L 2650 3447 
L 2650 3003 
L 1656 3003 
L 1656 2297 
L 1931 2547 
Q 2381 2159 2763 1791 
L 2413 1434 
Q 2013 1884 1656 2216 
L 1656 -847 
L 1188 -847 
L 1188 1972 
Q 819 1009 313 341 
Q 206 597 75 872 
z
M 2331 1203 
L 4781 1422 
L 4781 5284 
L 5263 5284 
L 5263 1466 
L 6250 1559 
L 6288 1109 
L 5263 1016 
L 5263 -847 
L 4781 -847 
L 4781 972 
L 2381 753 
L 2331 1203 
z
M 3075 4309 
L 3363 4622 
Q 4056 4091 4488 3691 
L 4163 3322 
Q 3719 3778 3075 4309 
z
M 2706 2809 
L 3006 3128 
Q 3719 2572 4081 2241 
L 3756 1859 
Q 3463 2166 2706 2809 
z
" transform="scale(0.015625)"/>
        <path id="MicrosoftYaHei-2f" d="M 2791 4841 
L 469 -803 
L -103 -803 
L 2219 4841 
L 2791 4841 
z
" transform="scale(0.015625)"/>
        <path id="MicrosoftYaHei-96be" d="M 2000 2734 
Q 2775 3891 3131 5284 
L 3594 5141 
Q 3441 4694 3281 4297 
L 4609 4297 
Q 4338 4778 4081 5134 
L 4463 5366 
Q 4744 4991 5069 4503 
L 4697 4297 
L 6125 4297 
L 6125 3866 
L 4763 3866 
L 4763 2897 
L 6000 2897 
L 6000 2466 
L 4763 2466 
L 4763 1497 
L 6000 1497 
L 6000 1066 
L 4763 1066 
L 4763 78 
L 6250 78 
L 6250 -353 
L 3188 -353 
L 3188 -809 
L 2725 -809 
L 2725 3072 
Q 2463 2575 2188 2197 
Q 2106 2453 2000 2734 
z
M 638 3716 
Q 997 2991 1331 2306 
Q 1597 3213 1650 4216 
L 269 4216 
L 269 4666 
L 2131 4666 
L 2131 4241 
Q 2009 2875 1616 1719 
Q 2009 903 2363 147 
L 1913 -109 
Q 1644 503 1378 1094 
Q 984 163 394 -622 
Q 275 -428 88 -166 
Q 734 691 1116 1672 
Q 678 2625 244 3516 
L 638 3716 
z
M 3188 78 
L 4300 78 
L 4300 1066 
L 3188 1066 
L 3188 78 
z
M 3188 1497 
L 4300 1497 
L 4300 2466 
L 3188 2466 
L 3188 1497 
z
M 3188 2897 
L 4300 2897 
L 4300 3866 
L 3188 3866 
L 3188 2897 
z
" transform="scale(0.015625)"/>
        <path id="MicrosoftYaHei-9898" d="M 88 -291 
Q 544 328 581 1622 
L 1013 1622 
Q 994 1234 950 884 
Q 1181 466 1538 209 
L 1538 1916 
L 138 1916 
L 138 2322 
L 3025 2322 
L 3025 1916 
L 1950 1916 
L 1950 1253 
L 2956 1253 
L 2956 847 
L 1950 847 
L 1950 -16 
Q 2369 -184 2906 -197 
Q 4006 -266 6300 -166 
Q 6231 -372 6125 -659 
Q 3888 -716 2906 -634 
Q 1513 -597 850 347 
Q 688 -359 363 -878 
Q 238 -584 88 -291 
z
M 525 5041 
L 2725 5041 
L 2725 2634 
L 2313 2634 
L 2313 2828 
L 938 2828 
L 938 2634 
L 525 2634 
L 525 5041 
z
M 3263 3878 
L 4169 3878 
Q 4231 4247 4275 4591 
L 3031 4591 
L 3031 4997 
L 6169 4997 
L 6169 4591 
L 4738 4591 
Q 4681 4222 4613 3878 
L 5838 3878 
L 5838 1228 
L 5425 1228 
L 5425 3472 
L 3675 3472 
L 3675 1228 
L 3263 1228 
L 3263 3878 
z
M 4344 3203 
L 4756 3203 
L 4756 2422 
Q 4756 1809 4631 1372 
Q 5594 678 6050 284 
L 5713 -47 
Q 5213 422 4481 972 
Q 4444 903 4406 841 
Q 4031 241 3131 -109 
Q 2988 72 2794 259 
Q 3669 547 4006 1028 
Q 4344 1503 4344 2441 
L 4344 3203 
z
M 938 3203 
L 2313 3203 
L 2313 3753 
L 938 3753 
L 938 3203 
z
M 2313 4666 
L 938 4666 
L 938 4122 
L 2313 4122 
L 2313 4666 
z
" transform="scale(0.015625)"/>
       </defs>
       <use xlink:href="#MicrosoftYaHei-ff08"/>
       <use xlink:href="#MicrosoftYaHei-7406" transform="translate(100 0)"/>
       <use xlink:href="#MicrosoftYaHei-79d1" transform="translate(200 0)"/>
       <use xlink:href="#MicrosoftYaHei-2f" transform="translate(300 0)"/>
       <use xlink:href="#MicrosoftYaHei-96be" transform="translate(342.724609 0)"/>
       <use xlink:href="#MicrosoftYaHei-9898" transform="translate(442.724609 0)"/>
       <use xlink:href="#MicrosoftYaHei-ff09" transform="translate(542.724609 0)"/>
      </g>
     </g>
    </g>
    <g id="ytick_3">
     <g id="line2d_12">
      <g>
       <use xlink:href="#m5c08da08de" x="73.7" y="137.790408" style="stroke: #000000; stroke-width: 0.8"/>
      </g>
     </g>
     <g id="text_13">
      <!-- 午休充电 -->
      <g transform="translate(32.7 136.733885) scale(0.085 -0.085)">
       <defs>
        <path id="MicrosoftYaHei-4f11" d="M 6375 534 
Q 6131 291 5944 72 
Q 4844 1156 4200 2944 
L 4200 -841 
L 3725 -841 
L 3725 3016 
Q 3144 1356 1906 3 
Q 1744 203 1544 416 
Q 2856 1784 3519 3484 
L 1869 3484 
L 1869 3934 
L 3725 3934 
L 3725 5303 
L 4200 5303 
L 4200 3934 
L 6119 3934 
L 6119 3484 
L 4391 3484 
Q 5066 1616 6375 534 
z
M 81 2391 
Q 1063 3716 1556 5341 
L 2063 5172 
Q 1753 4303 1388 3572 
L 1388 -841 
L 913 -841 
L 913 2716 
Q 616 2234 288 1828 
Q 200 2097 81 2391 
z
" transform="scale(0.015625)"/>
        <path id="MicrosoftYaHei-5145" d="M 4381 3653 
Q 5344 2684 5925 1941 
L 5488 1622 
Q 5294 1875 5094 2122 
Q 4631 2109 4219 2097 
L 4219 241 
Q 4219 -41 4288 -116 
Q 4369 -228 4619 -228 
L 5213 -228 
Q 5625 -228 5675 84 
Q 5719 347 5744 903 
Q 5969 816 6294 716 
Q 6250 278 6188 -78 
Q 6088 -659 5319 -659 
L 4531 -659 
Q 4063 -659 3888 -459 
Q 3713 -291 3713 159 
L 3713 2078 
Q 3094 2056 2600 2038 
Q 2566 1025 2200 447 
Q 1706 -347 406 -797 
Q 281 -591 94 -334 
Q 1338 53 1769 747 
Q 2078 1238 2109 2016 
Q 1697 1997 1400 1978 
Q 1219 1966 900 1878 
L 644 2416 
Q 975 2491 1225 2716 
Q 1838 3294 2384 3978 
L 213 3978 
L 213 4441 
L 3156 4441 
Q 2938 4828 2750 5091 
L 3194 5341 
Q 3419 5034 3669 4622 
L 3338 4441 
L 6206 4441 
L 6206 3978 
L 3063 3978 
Q 2466 3275 1650 2478 
Q 3591 2519 4741 2550 
Q 4388 2975 4019 3384 
L 4381 3653 
z
" transform="scale(0.015625)"/>
        <path id="MicrosoftYaHei-7535" d="M 406 4497 
L 2713 4497 
L 2713 5297 
L 3231 5297 
L 3231 4497 
L 5544 4497 
L 5544 984 
L 3231 984 
L 3231 253 
Q 3231 -128 3631 -128 
L 5094 -128 
Q 5519 -128 5613 153 
Q 5713 459 5756 1034 
Q 5938 953 6275 841 
Q 6200 341 6106 -16 
Q 5950 -603 5256 -603 
L 3594 -603 
Q 2713 -603 2713 259 
L 2713 984 
L 925 984 
L 925 553 
L 406 553 
L 406 4497 
z
M 5025 1453 
L 5025 2522 
L 3231 2522 
L 3231 1453 
L 5025 1453 
z
M 925 1453 
L 2713 1453 
L 2713 2522 
L 925 2522 
L 925 1453 
z
M 5025 4028 
L 3231 4028 
L 3231 2966 
L 5025 2966 
L 5025 4028 
z
M 925 2966 
L 2713 2966 
L 2713 4028 
L 925 4028 
L 925 2966 
z
" transform="scale(0.015625)"/>
       </defs>
       <use xlink:href="#MicrosoftYaHei-5348"/>
       <use xlink:href="#MicrosoftYaHei-4f11" transform="translate(100 0)"/>
       <use xlink:href="#MicrosoftYaHei-5145" transform="translate(200 0)"/>
       <use xlink:href="#MicrosoftYaHei-7535" transform="translate(300 0)"/>
      </g>
      <!-- （必须休息） -->
      <g transform="translate(15.7 147.000557) scale(0.085 -0.085)">
       <defs>
        <path id="MicrosoftYaHei-5fc5" d="M 119 47 
Q 991 497 1750 1053 
L 1750 4259 
L 2238 4259 
L 2238 1431 
Q 3956 2834 5038 4834 
L 5506 4597 
Q 4222 2306 2238 769 
L 2238 391 
Q 2238 -41 2638 -41 
L 4213 -41 
Q 4631 -41 4700 372 
Q 4756 622 4794 1184 
Q 5100 1059 5306 997 
Q 5219 359 5150 122 
Q 4994 -503 4300 -503 
L 2513 -503 
Q 1750 -503 1750 297 
L 1750 409 
Q 1138 -16 469 -378 
Q 344 -191 119 47 
z
M 825 3559 
L 1306 3409 
Q 938 1953 613 1184 
Q 413 1284 144 1384 
Q 506 2284 825 3559 
z
M 4913 2941 
L 5350 3153 
Q 5856 2259 6275 1359 
L 5781 1091 
Q 5444 1916 4913 2941 
z
M 2431 5009 
L 2781 5328 
Q 3356 4816 3906 4247 
L 3519 3884 
Q 3113 4353 2431 5009 
z
" transform="scale(0.015625)"/>
        <path id="MicrosoftYaHei-987b" d="M 2575 3653 
L 3794 3653 
Q 3869 4066 3938 4503 
L 2406 4503 
L 2406 4959 
L 6244 4959 
L 6244 4503 
L 4463 4503 
Q 4363 4047 4269 3653 
L 5963 3653 
L 5963 653 
L 5475 653 
L 5475 3197 
L 3063 3197 
L 3063 628 
L 2575 628 
L 2575 3653 
z
M 4025 2891 
L 4513 2891 
L 4513 2228 
Q 4513 1409 4350 859 
Q 5425 216 6294 -434 
L 5938 -866 
Q 5100 -166 4175 428 
Q 4113 309 4038 216 
Q 3544 -484 2231 -897 
Q 2113 -691 1931 -459 
Q 3119 -122 3600 478 
Q 4025 997 4025 2222 
L 4025 2891 
z
M 119 -328 
Q 1163 447 1963 1709 
L 2356 1378 
Q 1481 47 356 -853 
Q 263 -591 119 -328 
z
M 100 1647 
Q 1063 2366 1800 3522 
L 2200 3197 
Q 1363 1966 319 1141 
Q 219 1403 100 1647 
z
M 125 3534 
Q 1138 4284 1794 5316 
L 2188 4997 
Q 1488 3972 375 3053 
Q 263 3291 125 3534 
z
" transform="scale(0.015625)"/>
        <path id="MicrosoftYaHei-606f" d="M 913 4709 
L 2441 4709 
Q 2575 5044 2663 5353 
L 3150 5222 
Q 3047 4956 2934 4709 
L 5425 4709 
L 5425 1297 
L 4944 1297 
L 4944 1491 
L 1394 1491 
L 1394 1297 
L 913 1297 
L 913 4709 
z
M 1569 1059 
L 2044 1059 
L 2044 141 
Q 2044 -247 2456 -247 
L 3844 -247 
Q 4344 -247 4425 97 
Q 4488 322 4550 778 
Q 4781 684 5038 597 
Q 4963 166 4888 -97 
Q 4744 -691 3956 -691 
L 2381 -691 
Q 1569 -691 1569 84 
L 1569 1059 
z
M 1394 2841 
L 4944 2841 
L 4944 3366 
L 1394 3366 
L 1394 2841 
z
M 1394 1916 
L 4944 1916 
L 4944 2441 
L 1394 2441 
L 1394 1916 
z
M 4944 4284 
L 1394 4284 
L 1394 3766 
L 4944 3766 
L 4944 4284 
z
M 638 1122 
L 1094 966 
Q 819 216 519 -403 
Q 319 -316 56 -222 
Q 363 322 638 1122 
z
M 5119 922 
L 5481 1203 
Q 5925 722 6388 147 
L 5988 -159 
Q 5563 416 5119 922 
z
M 2663 1128 
L 3000 1416 
Q 3381 1066 3838 578 
L 3456 253 
Q 2994 797 2663 1128 
z
" transform="scale(0.015625)"/>
       </defs>
       <use xlink:href="#MicrosoftYaHei-ff08"/>
       <use xlink:href="#MicrosoftYaHei-5fc5" transform="translate(100 0)"/>
       <use xlink:href="#MicrosoftYaHei-987b" transform="translate(200 0)"/>
       <use xlink:href="#MicrosoftYaHei-4f11" transform="translate(300 0)"/>
       <use xlink:href="#MicrosoftYaHei-606f" transform="translate(400 0)"/>
       <use xlink:href="#MicrosoftYaHei-ff09" transform="translate(500 0)"/>
      </g>
     </g>
    </g>
    <g id="ytick_4">
     <g id="line2d_13">
      <g>
       <use xlink:href="#m5c08da08de" x="73.7" y="112.978125" style="stroke: #000000; stroke-width: 0.8"/>
      </g>
     </g>
     <g id="text_14">
      <!-- 下午复习 -->
      <g transform="translate(32.7 111.921602) scale(0.085 -0.085)">
       <defs>
        <path id="MicrosoftYaHei-4e0b" d="M 163 4803 
L 6238 4803 
L 6238 4291 
L 3200 4291 
L 3200 2928 
L 3488 3328 
Q 4919 2484 5888 1809 
L 5519 1303 
Q 4550 2047 3200 2872 
L 3200 -797 
L 2631 -797 
L 2631 4291 
L 163 4291 
L 163 4803 
z
" transform="scale(0.015625)"/>
        <path id="MicrosoftYaHei-590d" d="M 81 3559 
Q 975 4259 1563 5347 
L 2113 5347 
Q 1963 5084 1803 4841 
L 6200 4841 
L 6200 4441 
L 1525 4441 
Q 1356 4209 1175 3997 
L 5575 3997 
L 5575 1697 
L 5138 1697 
L 5138 1859 
L 1463 1859 
L 1463 1634 
L 1031 1634 
L 1031 3828 
Q 716 3475 369 3166 
Q 263 3347 81 3559 
z
M 81 291 
Q 1231 853 1931 1709 
L 2488 1709 
Q 2350 1534 2206 1372 
L 5588 1372 
L 5588 1034 
Q 4981 494 4038 69 
Q 5016 -188 6319 -284 
Q 6150 -566 6025 -797 
Q 4503 -584 3416 -175 
Q 2303 -563 725 -872 
Q 606 -666 438 -447 
Q 1988 -191 2856 59 
Q 2153 397 1678 838 
Q 1084 303 388 -53 
Q 250 128 81 291 
z
M 1463 2247 
L 5138 2247 
L 5138 2747 
L 1463 2747 
L 1463 2247 
z
M 5138 3609 
L 1463 3609 
L 1463 3116 
L 5138 3116 
L 5138 3609 
z
M 4869 1009 
L 2025 1009 
Q 2572 553 3428 253 
Q 4297 591 4869 1009 
z
" transform="scale(0.015625)"/>
        <path id="MicrosoftYaHei-4e60" d="M 500 4803 
L 5725 4803 
Q 5663 1853 5606 784 
Q 5550 -616 4181 -616 
Q 3644 -616 3013 -591 
Q 2988 -347 2913 -9 
Q 3713 -66 4113 -66 
Q 4631 -72 4850 153 
Q 5056 378 5081 916 
Q 5144 2416 5169 4291 
L 500 4291 
L 500 4803 
z
M 363 834 
Q 2856 1591 4688 2253 
Q 4669 1834 4688 1709 
Q 2513 978 556 297 
L 363 834 
z
M 1131 3372 
L 1400 3778 
Q 2713 3203 3563 2766 
L 3275 2291 
Q 2069 2947 1131 3372 
z
" transform="scale(0.015625)"/>
       </defs>
       <use xlink:href="#MicrosoftYaHei-4e0b"/>
       <use xlink:href="#MicrosoftYaHei-5348" transform="translate(100 0)"/>
       <use xlink:href="#MicrosoftYaHei-590d" transform="translate(200 0)"/>
       <use xlink:href="#MicrosoftYaHei-4e60" transform="translate(300 0)"/>
      </g>
      <!-- （文科/阅读） -->
      <g transform="translate(12.068906 122.188273) scale(0.085 -0.085)">
       <defs>
        <path id="MicrosoftYaHei-6587" d="M 194 4241 
L 3194 4241 
Q 2878 4841 2700 5116 
L 3181 5341 
Q 3356 5072 3706 4466 
L 3256 4241 
L 6194 4241 
L 6194 3778 
L 5041 3778 
Q 4706 1994 3603 909 
Q 4434 303 6244 -178 
Q 5956 -503 5806 -722 
Q 4044 -113 3203 553 
Q 2359 -103 506 -772 
Q 344 -553 131 -284 
Q 1919 253 2822 913 
Q 1681 2131 1372 3778 
L 194 3778 
L 194 4241 
z
M 4506 3778 
L 1872 3778 
Q 2153 2241 3216 1238 
Q 4231 2181 4506 3778 
z
" transform="scale(0.015625)"/>
        <path id="MicrosoftYaHei-9605" d="M 1675 3284 
L 2538 3284 
Q 2281 3634 1950 4022 
L 2288 4284 
Q 2713 3841 2969 3497 
L 2669 3284 
L 3381 3284 
Q 3731 3772 4019 4278 
L 4450 4028 
Q 4175 3641 3888 3284 
L 4738 3284 
L 4738 1522 
L 3863 1522 
L 3863 672 
Q 3863 403 4113 403 
L 4413 403 
Q 4731 403 4763 709 
Q 4788 941 4788 1266 
Q 4931 1216 5225 1103 
Q 5200 684 5163 503 
Q 5088 -3 4494 -3 
L 3969 -3 
Q 3425 -3 3425 578 
L 3425 1522 
L 2938 1522 
Q 2894 822 2588 434 
Q 2288 22 1419 -309 
Q 1300 -97 1144 91 
Q 1894 334 2231 709 
Q 2456 991 2494 1522 
L 2125 1522 
L 2125 1347 
L 1675 1347 
L 1675 3284 
z
M 2350 4472 
L 2350 4922 
L 6006 4922 
L 6006 -9 
Q 6006 -816 5106 -816 
Q 4631 -816 4169 -803 
Q 4131 -584 4069 -322 
Q 4588 -359 5025 -359 
Q 5525 -359 5525 72 
L 5525 4472 
L 2350 4472 
z
M 419 4084 
L 900 4084 
L 900 -816 
L 419 -816 
L 419 4084 
z
M 4288 2872 
L 2125 2872 
L 2125 1934 
L 4288 1934 
L 4288 2872 
z
M 744 5016 
L 1088 5322 
Q 1644 4816 1931 4478 
L 1544 4134 
Q 1225 4516 744 5016 
z
" transform="scale(0.015625)"/>
       </defs>
       <use xlink:href="#MicrosoftYaHei-ff08"/>
       <use xlink:href="#MicrosoftYaHei-6587" transform="translate(100 0)"/>
       <use xlink:href="#MicrosoftYaHei-79d1" transform="translate(200 0)"/>
       <use xlink:href="#MicrosoftYaHei-2f" transform="translate(300 0)"/>
       <use xlink:href="#MicrosoftYaHei-9605" transform="translate(342.724609 0)"/>
       <use xlink:href="#MicrosoftYaHei-8bfb" transform="translate(442.724609 0)"/>
       <use xlink:href="#MicrosoftYaHei-ff09" transform="translate(542.724609 0)"/>
      </g>
     </g>
    </g>
    <g id="ytick_5">
     <g id="line2d_14">
      <g>
       <use xlink:href="#m5c08da08de" x="73.7" y="88.165842" style="stroke: #000000; stroke-width: 0.8"/>
      </g>
     </g>
     <g id="text_15">
      <!-- 体育锻炼 -->
      <g transform="translate(32.7 87.109318) scale(0.085 -0.085)">
       <defs>
        <path id="MicrosoftYaHei-4f53" d="M 6350 778 
Q 6138 522 5981 316 
Q 4731 1278 4144 3572 
L 4144 934 
L 5063 934 
L 5063 484 
L 4144 484 
L 4144 -822 
L 3681 -822 
L 3681 484 
L 2763 484 
L 2763 934 
L 3681 934 
L 3681 3572 
L 3666 3572 
Q 3084 1413 1750 216 
Q 1606 397 1419 609 
Q 2625 1713 3225 3572 
L 1756 3572 
L 1756 4022 
L 3681 4022 
L 3681 5297 
L 4144 5297 
L 4144 4022 
L 6138 4022 
L 6138 3572 
L 4547 3572 
Q 5144 1628 6350 778 
z
M 56 2297 
Q 963 3622 1406 5316 
L 1881 5178 
Q 1638 4381 1331 3681 
L 1331 -816 
L 869 -816 
L 869 2741 
Q 588 2231 269 1784 
Q 175 2041 56 2297 
z
" transform="scale(0.015625)"/>
        <path id="MicrosoftYaHei-80b2" d="M 988 2578 
L 5438 2578 
L 5438 -3 
Q 5438 -741 4563 -741 
Q 4269 -741 3844 -734 
Q 3831 -672 3744 -222 
Q 4175 -284 4531 -284 
Q 4950 -284 4963 72 
L 4963 266 
L 1463 266 
L 1463 -797 
L 988 -797 
L 988 2578 
z
M 4519 4128 
Q 5319 3578 6100 2984 
L 5744 2628 
Q 5484 2853 5203 3078 
Q 2753 3069 1463 3009 
Q 1069 2991 788 2941 
L 613 3466 
Q 1044 3547 1306 3703 
Q 1681 3925 2050 4228 
L 169 4228 
L 169 4666 
L 3100 4666 
Q 2969 4894 2813 5147 
L 3244 5359 
Q 3528 4916 3666 4666 
L 6238 4666 
L 6238 4228 
L 2788 4228 
Q 2169 3791 1656 3466 
Q 3122 3466 4650 3497 
Q 4444 3650 4225 3803 
L 4519 4128 
z
M 1463 678 
L 4963 678 
L 4963 1209 
L 1463 1209 
L 1463 678 
z
M 4963 2153 
L 1463 2153 
L 1463 1622 
L 4963 1622 
L 4963 2153 
z
" transform="scale(0.015625)"/>
        <path id="MicrosoftYaHei-953b" d="M 3694 2003 
L 3694 2434 
L 5950 2434 
L 5950 2022 
Q 5675 1097 5128 425 
Q 5606 -34 6331 -291 
Q 6181 -472 6006 -759 
Q 5281 -453 4788 53 
Q 4209 -500 3400 -841 
Q 3288 -641 3119 -409 
Q 3934 -91 4484 416 
Q 4006 1075 3828 2003 
L 3694 2003 
z
M 125 1972 
L 819 1972 
L 819 2816 
L 531 2816 
L 531 3200 
Q 463 3072 388 2947 
Q 238 3184 88 3359 
Q 594 4159 850 5316 
L 1300 5216 
Q 1191 4781 1050 4384 
L 2031 4384 
L 2031 3966 
L 891 3966 
Q 734 3581 550 3234 
L 1856 3234 
L 1856 2816 
L 1250 2816 
L 1250 1972 
L 2000 1972 
L 2000 1553 
L 1250 1553 
L 1250 47 
Q 1575 222 1919 434 
Q 1938 159 1988 -22 
Q 1606 -234 1250 -472 
Q 1031 -628 919 -747 
L 613 -372 
Q 819 -197 819 122 
L 819 1553 
L 125 1553 
L 125 1972 
z
M 1719 984 
Q 1959 1019 2231 1063 
L 2231 4928 
Q 2981 4991 3588 5147 
L 3756 4722 
Q 3275 4622 2669 4553 
L 2669 3766 
L 3563 3766 
L 3563 3347 
L 2669 3347 
L 2669 2497 
L 3525 2497 
L 3525 2078 
L 2669 2078 
L 2669 1131 
Q 3119 1209 3638 1303 
Q 3631 1178 3631 853 
Q 3106 763 2669 678 
L 2669 -828 
L 2231 -828 
L 2231 594 
Q 2019 550 1831 509 
L 1719 984 
z
M 5925 3228 
Q 6019 3228 6338 3241 
L 6250 2797 
Q 6006 2791 5831 2791 
Q 5213 2791 5213 3459 
L 5213 4584 
L 4488 4584 
L 4488 4122 
Q 4488 3072 3869 2497 
Q 3675 2697 3531 2803 
Q 4063 3247 4063 4134 
L 4063 5009 
L 5638 5009 
L 5638 3503 
Q 5638 3228 5925 3228 
z
M 5450 2003 
L 4288 2003 
Q 4438 1291 4822 772 
Q 5253 1306 5450 2003 
z
" transform="scale(0.015625)"/>
        <path id="MicrosoftYaHei-70bc" d="M 2263 4578 
L 3309 4578 
Q 3419 4944 3525 5341 
L 4031 5341 
Q 3916 4950 3800 4578 
L 6163 4578 
L 6163 4141 
L 3659 4141 
Q 3534 3759 3409 3397 
L 4619 3397 
L 4619 2128 
L 6156 2128 
L 6156 1691 
L 4619 1691 
L 4619 22 
Q 4619 -716 3888 -716 
Q 3681 -716 3194 -703 
Q 3169 -447 3113 -191 
Q 3569 -241 3819 -241 
Q 4150 -241 4150 78 
L 4150 1691 
L 2438 1691 
L 2438 2128 
Q 2606 2516 2772 2959 
L 2300 2959 
L 2300 3397 
L 2931 3397 
Q 3056 3753 3175 4141 
L 2263 4141 
L 2263 4578 
z
M 975 5272 
L 1431 5272 
Q 1425 2141 1306 1578 
L 1550 1722 
Q 1938 1128 2313 391 
L 1894 134 
Q 1613 778 1272 1350 
Q 1044 -31 400 -759 
Q 256 -572 63 -378 
Q 944 647 950 2966 
Q 975 3928 975 5272 
z
M 2944 2128 
L 4150 2128 
L 4150 2959 
L 3256 2959 
Q 3100 2531 2944 2128 
z
M 3113 1384 
L 3531 1159 
Q 3050 291 2513 -441 
Q 2363 -322 2119 -172 
Q 2688 547 3113 1384 
z
M 5031 1147 
L 5413 1359 
Q 5881 678 6338 -109 
L 5888 -359 
Q 5456 472 5031 1147 
z
M 1406 2747 
Q 1656 3316 1956 4166 
L 2369 3978 
Q 2081 3234 1775 2566 
L 1406 2747 
z
M 63 3959 
L 450 4084 
Q 650 3441 881 2653 
L 444 2484 
Q 219 3428 63 3959 
z
" transform="scale(0.015625)"/>
       </defs>
       <use xlink:href="#MicrosoftYaHei-4f53"/>
       <use xlink:href="#MicrosoftYaHei-80b2" transform="translate(100 0)"/>
       <use xlink:href="#MicrosoftYaHei-953b" transform="translate(200 0)"/>
       <use xlink:href="#MicrosoftYaHei-70bc" transform="translate(300 0)"/>
      </g>
      <!-- （激活身体） -->
      <g transform="translate(15.7 97.37599) scale(0.085 -0.085)">
       <defs>
        <path id="MicrosoftYaHei-6fc0" d="M 4681 5316 
L 5125 5241 
Q 5019 4647 4878 4128 
L 6263 4128 
L 6263 3722 
L 5963 3722 
Q 5834 1809 5363 822 
Q 5738 69 6338 -366 
Q 6181 -622 6056 -834 
Q 5488 -331 5116 378 
Q 4681 -309 4025 -878 
Q 3888 -691 3700 -484 
Q 4484 188 4884 881 
Q 4547 1731 4438 2828 
Q 4297 2503 4138 2222 
Q 4025 2409 3869 2622 
Q 4438 3628 4681 5316 
z
M 1625 4666 
L 2338 4666 
Q 2475 4988 2581 5359 
L 3013 5253 
Q 2894 4950 2769 4666 
L 3819 4666 
L 3819 2359 
L 3394 2359 
L 3394 2522 
L 2050 2522 
L 2050 2359 
L 1625 2359 
L 1625 4666 
z
M 1231 1959 
L 2544 1959 
Q 2434 2153 2319 2328 
L 2656 2503 
Q 2828 2241 2984 1959 
L 4119 1959 
L 4119 1559 
L 2375 1559 
Q 2369 1331 2356 1134 
L 3756 1134 
Q 3719 403 3669 -16 
Q 3606 -647 2988 -647 
Q 2731 -647 2450 -641 
Q 2413 -447 2356 -209 
Q 2700 -247 2894 -247 
Q 3213 -247 3250 53 
Q 3294 366 3313 747 
L 2319 747 
Q 2200 -172 1419 -859 
Q 1269 -691 1081 -509 
Q 1613 -47 1775 403 
Q 1928 791 1941 1559 
L 1231 1559 
L 1231 1959 
z
M 5506 3722 
L 4763 3722 
Q 4750 3675 4734 3628 
Q 4800 2328 5122 1397 
Q 5456 2297 5506 3722 
z
M 706 1603 
Q 950 1497 1175 1416 
Q 919 447 663 -778 
L 156 -609 
Q 425 209 706 1603 
z
M 2050 2884 
L 3394 2884 
L 3394 3422 
L 2050 3422 
L 2050 2884 
z
M 3394 4303 
L 2050 4303 
L 2050 3772 
L 3394 3772 
L 3394 4303 
z
M 325 3609 
Q 744 3303 1263 2866 
Q 1219 2816 925 2478 
Q 488 2903 38 3272 
L 325 3609 
z
M 588 5191 
Q 1069 4822 1488 4434 
Q 1300 4247 1138 4072 
Q 688 4522 281 4866 
L 588 5191 
z
" transform="scale(0.015625)"/>
        <path id="MicrosoftYaHei-6d3b" d="M 2219 1841 
L 3769 1841 
L 3769 2891 
L 1800 2891 
L 1800 3366 
L 3769 3366 
L 3769 4413 
Q 3003 4375 2100 4341 
Q 2056 4566 2006 4816 
Q 4156 4872 6013 5072 
L 6113 4578 
Q 5356 4503 4275 4441 
L 4275 3366 
L 6313 3366 
L 6313 2891 
L 4275 2891 
L 4275 1841 
L 5825 1841 
L 5825 -847 
L 5338 -847 
L 5338 -472 
L 2706 -472 
L 2706 -847 
L 2219 -847 
L 2219 1841 
z
M 5338 1391 
L 2706 1391 
L 2706 -22 
L 5338 -22 
L 5338 1391 
z
M 1019 1766 
Q 1338 1597 1550 1516 
Q 1181 341 831 -772 
L 275 -516 
Q 706 522 1019 1766 
z
M 344 3616 
Q 988 3228 1538 2816 
Q 1350 2566 1194 2366 
Q 500 2922 44 3216 
L 344 3616 
z
M 644 5241 
Q 1244 4828 1769 4403 
Q 1600 4191 1425 3978 
Q 844 4484 331 4872 
L 644 5241 
z
" transform="scale(0.015625)"/>
        <path id="MicrosoftYaHei-8eab" d="M 150 1666 
L 1013 1666 
L 1013 4653 
L 2441 4653 
Q 2588 5022 2681 5341 
L 3206 5209 
Q 3088 4941 2953 4653 
L 5219 4653 
L 5219 1997 
Q 5628 2303 6006 2641 
L 6319 2297 
Q 5791 1844 5219 1441 
L 5219 191 
Q 5219 -753 4394 -759 
Q 3881 -772 3356 -747 
Q 3319 -528 3256 -228 
Q 3713 -272 4238 -272 
Q 4725 -272 4725 241 
L 4725 1109 
Q 2819 -116 419 -828 
Q 300 -584 138 -353 
Q 2347 216 4094 1247 
L 150 1247 
L 150 1666 
z
M 1506 1666 
L 4725 1666 
L 4725 2259 
L 1506 2259 
L 1506 1666 
z
M 4725 4234 
L 1506 4234 
L 1506 3647 
L 4725 3647 
L 4725 4234 
z
M 1506 2659 
L 4725 2659 
L 4725 3247 
L 1506 3247 
L 1506 2659 
z
" transform="scale(0.015625)"/>
       </defs>
       <use xlink:href="#MicrosoftYaHei-ff08"/>
       <use xlink:href="#MicrosoftYaHei-6fc0" transform="translate(100 0)"/>
       <use xlink:href="#MicrosoftYaHei-6d3b" transform="translate(200 0)"/>
       <use xlink:href="#MicrosoftYaHei-8eab" transform="translate(300 0)"/>
       <use xlink:href="#MicrosoftYaHei-4f53" transform="translate(400 0)"/>
       <use xlink:href="#MicrosoftYaHei-ff09" transform="translate(500 0)"/>
      </g>
     </g>
    </g>
    <g id="ytick_6">
     <g id="line2d_15">
      <g>
       <use xlink:href="#m5c08da08de" x="73.7" y="63.353559" style="stroke: #000000; stroke-width: 0.8"/>
      </g>
     </g>
     <g id="text_16">
      <!-- 晚间自习 -->
      <g transform="translate(32.7 62.297035) scale(0.085 -0.085)">
       <defs>
        <path id="MicrosoftYaHei-665a" d="M 2219 3497 
Q 3038 4303 3494 5316 
L 3988 5228 
Q 3838 4922 3669 4634 
L 5456 4634 
L 5456 4222 
L 4869 3428 
L 5931 3428 
L 5931 1266 
L 5488 1266 
L 5488 1497 
L 4256 1497 
Q 4025 16 2313 -884 
Q 2169 -691 1994 -484 
Q 3550 291 3794 1497 
L 2963 1497 
L 2963 1266 
L 2519 1266 
L 2519 3259 
Q 2388 3372 2219 3497 
z
M 425 4709 
L 2075 4709 
L 2075 134 
L 875 134 
L 875 -284 
L 425 -284 
L 425 4709 
z
M 1625 559 
L 1625 2228 
L 875 2228 
L 875 559 
L 1625 559 
z
M 5488 3016 
L 4394 3016 
Q 4388 2397 4325 1909 
L 5488 1909 
L 5488 3016 
z
M 1625 4284 
L 875 4284 
L 875 2641 
L 1625 2641 
L 1625 4284 
z
M 4875 4222 
L 3413 4222 
Q 3131 3797 2813 3428 
L 4319 3428 
L 4875 4222 
z
M 2963 1909 
L 3875 1909 
Q 3944 2384 3950 3016 
L 2963 3016 
L 2963 1909 
z
M 4356 1266 
L 4800 1266 
L 4800 59 
Q 4800 -247 5081 -247 
L 5463 -247 
Q 5775 -247 5831 53 
Q 5888 334 5919 766 
Q 6119 672 6363 584 
Q 6306 172 6244 -122 
Q 6131 -678 5575 -678 
L 4969 -678 
Q 4356 -678 4356 -3 
L 4356 1266 
z
" transform="scale(0.015625)"/>
        <path id="MicrosoftYaHei-81ea" d="M 775 4466 
L 2391 4466 
Q 2525 4828 2688 5328 
L 3219 5166 
Q 3059 4778 2909 4466 
L 5625 4466 
L 5625 -822 
L 5125 -822 
L 5125 -447 
L 1275 -447 
L 1275 -822 
L 775 -822 
L 775 4466 
z
M 1275 3 
L 5125 3 
L 5125 1053 
L 1275 1053 
L 1275 3 
z
M 1275 1497 
L 5125 1497 
L 5125 2534 
L 1275 2534 
L 1275 1497 
z
M 5125 4016 
L 1275 4016 
L 1275 2978 
L 5125 2978 
L 5125 4016 
z
" transform="scale(0.015625)"/>
       </defs>
       <use xlink:href="#MicrosoftYaHei-665a"/>
       <use xlink:href="#MicrosoftYaHei-95f4" transform="translate(100 0)"/>
       <use xlink:href="#MicrosoftYaHei-81ea" transform="translate(200 0)"/>
       <use xlink:href="#MicrosoftYaHei-4e60" transform="translate(300 0)"/>
      </g>
      <!-- （整理/错题） -->
      <g transform="translate(12.068906 72.563707) scale(0.085 -0.085)">
       <defs>
        <path id="MicrosoftYaHei-6574" d="M 138 -234 
L 1263 -234 
L 1263 891 
L 1713 891 
L 1713 -234 
L 3025 -234 
L 3025 1178 
L 550 1178 
L 550 1578 
L 5800 1578 
L 5800 1178 
L 3475 1178 
L 3475 697 
L 5525 697 
L 5525 297 
L 3475 297 
L 3475 -234 
L 6256 -234 
L 6256 -634 
L 138 -634 
L 138 -234 
z
M 25 2003 
Q 825 2334 1481 2916 
L 913 2916 
L 913 2759 
L 506 2759 
L 506 4109 
L 1650 4109 
L 1650 4491 
L 250 4491 
L 250 4866 
L 1650 4866 
L 1650 5291 
L 2069 5291 
L 2069 4866 
L 3425 4866 
L 3425 4491 
L 2069 4491 
L 2069 4109 
L 3213 4109 
L 3213 2759 
L 2806 2759 
L 2806 2916 
L 2069 2916 
L 2069 2541 
L 2225 2747 
Q 2781 2484 3288 2216 
L 3075 1872 
Q 2550 2184 2069 2397 
L 2069 1722 
L 1650 1722 
L 1650 2647 
Q 1075 2078 288 1647 
Q 175 1803 25 2003 
z
M 3363 2078 
Q 4050 2341 4519 2716 
Q 4144 3134 3938 3716 
Q 3788 3447 3631 3197 
L 3256 3459 
Q 3850 4253 4163 5322 
L 4600 5191 
Q 4481 4872 4356 4572 
L 6263 4572 
L 6263 4172 
L 5850 4172 
Q 5644 3316 5181 2741 
Q 5638 2428 6325 2247 
Q 6169 2047 6013 1778 
Q 5319 2034 4844 2403 
Q 4363 1984 3650 1678 
Q 3525 1859 3363 2078 
z
M 5400 4172 
L 4219 4172 
Q 4394 3484 4838 3022 
Q 5244 3503 5400 4172 
z
M 2806 3266 
L 2806 3759 
L 2069 3759 
L 2069 3266 
L 2806 3266 
z
M 913 3266 
L 1650 3266 
L 1650 3759 
L 913 3759 
L 913 3266 
z
" transform="scale(0.015625)"/>
        <path id="MicrosoftYaHei-9519" d="M 2625 2172 
L 5806 2172 
L 5806 -847 
L 5331 -847 
L 5331 -484 
L 3100 -484 
L 3100 -847 
L 2625 -847 
L 2625 2172 
z
M 2206 3128 
L 3125 3128 
L 3125 3966 
L 2394 3966 
L 2394 4391 
L 3125 4391 
L 3125 5291 
L 3600 5291 
L 3600 4391 
L 4738 4391 
L 4738 5291 
L 5213 5291 
L 5213 4391 
L 6094 4391 
L 6094 3966 
L 5213 3966 
L 5213 3128 
L 6275 3128 
L 6275 2703 
L 2206 2703 
L 2206 3128 
z
M 2081 847 
Q 2138 566 2188 378 
Q 1600 -178 1256 -528 
Q 1206 -591 1081 -759 
L 738 -372 
Q 913 -178 913 197 
L 913 1566 
L 113 1566 
L 113 2003 
L 913 2003 
L 913 2778 
L 644 2778 
L 644 3216 
L 1981 3216 
L 1981 2778 
L 1369 2778 
L 1369 2003 
L 2150 2003 
L 2150 1566 
L 1369 1566 
L 1369 178 
Q 1763 534 2081 847 
z
M 75 3166 
Q 613 4041 881 5316 
L 1350 5216 
Q 1241 4769 1103 4359 
L 2175 4359 
L 2175 3922 
L 944 3922 
Q 681 3244 331 2678 
Q 213 2916 75 3166 
z
M 3100 -72 
L 5331 -72 
L 5331 647 
L 3100 647 
L 3100 -72 
z
M 5331 1759 
L 3100 1759 
L 3100 1047 
L 5331 1047 
L 5331 1759 
z
M 3600 3128 
L 4738 3128 
L 4738 3966 
L 3600 3966 
L 3600 3128 
z
" transform="scale(0.015625)"/>
       </defs>
       <use xlink:href="#MicrosoftYaHei-ff08"/>
       <use xlink:href="#MicrosoftYaHei-6574" transform="translate(100 0)"/>
       <use xlink:href="#MicrosoftYaHei-7406" transform="translate(200 0)"/>
       <use xlink:href="#MicrosoftYaHei-2f" transform="translate(300 0)"/>
       <use xlink:href="#MicrosoftYaHei-9519" transform="translate(342.724609 0)"/>
       <use xlink:href="#MicrosoftYaHei-9898" transform="translate(442.724609 0)"/>
       <use xlink:href="#MicrosoftYaHei-ff09" transform="translate(542.724609 0)"/>
      </g>
     </g>
    </g>
    <g id="ytick_7">
     <g id="line2d_16">
      <g>
       <use xlink:href="#m5c08da08de" x="73.7" y="38.541276" style="stroke: #000000; stroke-width: 0.8"/>
      </g>
     </g>
     <g id="text_17">
      <!-- 睡前回顾 -->
      <g transform="translate(32.7 37.484752) scale(0.085 -0.085)">
       <defs>
        <path id="MicrosoftYaHei-7761" d="M 2356 -116 
L 3950 -116 
L 3950 734 
L 2225 734 
L 2225 1134 
L 2825 1134 
L 2825 2041 
L 2088 2041 
L 2088 2453 
L 2825 2453 
L 2825 3353 
L 2213 3353 
L 2213 3753 
L 3950 3753 
L 3950 4503 
Q 3184 4456 2413 4428 
Q 2375 4641 2325 4872 
Q 3994 4916 5869 5103 
L 5956 4653 
Q 5175 4584 4388 4531 
L 4388 3753 
L 6125 3753 
L 6125 3353 
L 5513 3353 
L 5513 2453 
L 6306 2453 
L 6306 2041 
L 5513 2041 
L 5513 1134 
L 6138 1134 
L 6138 734 
L 4388 734 
L 4388 -116 
L 5994 -116 
L 5994 -516 
L 2356 -516 
L 2356 -116 
z
M 338 4859 
L 1938 4859 
L 1938 -434 
L 1500 -434 
L 1500 9 
L 775 9 
L 775 -609 
L 338 -609 
L 338 4859 
z
M 775 441 
L 1500 441 
L 1500 1503 
L 775 1503 
L 775 441 
z
M 1500 4428 
L 775 4428 
L 775 3384 
L 1500 3384 
L 1500 4428 
z
M 775 1922 
L 1500 1922 
L 1500 2966 
L 775 2966 
L 775 1922 
z
M 3250 1134 
L 3950 1134 
L 3950 2041 
L 3250 2041 
L 3250 1134 
z
M 4388 1134 
L 5088 1134 
L 5088 2041 
L 4388 2041 
L 4388 1134 
z
M 3250 2453 
L 3950 2453 
L 3950 3353 
L 3250 3353 
L 3250 2453 
z
M 4388 2453 
L 5088 2453 
L 5088 3353 
L 4388 3353 
L 4388 2453 
z
" transform="scale(0.015625)"/>
        <path id="MicrosoftYaHei-524d" d="M 1038 -841 
L 563 -841 
L 563 3322 
L 3300 3322 
L 3300 -172 
Q 3300 -784 2669 -772 
Q 2406 -772 1950 -759 
Q 1913 -516 1856 -297 
Q 2238 -328 2563 -328 
Q 2825 -334 2825 -72 
L 2825 722 
L 1038 722 
L 1038 -841 
z
M 150 4372 
L 2169 4372 
Q 1963 4697 1644 5078 
L 2038 5347 
Q 2425 4916 2663 4578 
L 2353 4372 
L 4063 4372 
L 3813 4509 
Q 4144 4916 4388 5359 
L 4863 5084 
Q 4575 4691 4284 4372 
L 6263 4372 
L 6263 3934 
L 150 3934 
L 150 4372 
z
M 5331 3522 
L 5819 3522 
L 5819 28 
Q 5819 -741 5094 -747 
Q 4763 -753 4269 -741 
Q 4238 -484 4181 -216 
Q 4644 -266 4931 -266 
Q 5331 -266 5331 141 
L 5331 3522 
z
M 4044 3222 
L 4519 3222 
L 4519 409 
L 4044 409 
L 4044 3222 
z
M 2825 2897 
L 1038 2897 
L 1038 2228 
L 2825 2228 
L 2825 2897 
z
M 1038 1141 
L 2825 1141 
L 2825 1809 
L 1038 1809 
L 1038 1141 
z
" transform="scale(0.015625)"/>
        <path id="MicrosoftYaHei-56de" d="M 475 4947 
L 5938 4947 
L 5938 -778 
L 5413 -778 
L 5413 -378 
L 1000 -378 
L 1000 -778 
L 475 -778 
L 475 4947 
z
M 5413 4484 
L 1000 4484 
L 1000 72 
L 5413 72 
L 5413 4484 
z
M 1875 3528 
L 4531 3528 
L 4531 797 
L 4044 797 
L 4044 1147 
L 2363 1147 
L 2363 797 
L 1875 797 
L 1875 3528 
z
M 4044 3091 
L 2363 3091 
L 2363 1584 
L 4044 1584 
L 4044 3091 
z
" transform="scale(0.015625)"/>
        <path id="MicrosoftYaHei-987e" d="M 3406 3747 
L 4175 3747 
L 4338 4516 
L 3300 4516 
L 3300 4941 
L 6288 4941 
L 6288 4516 
L 4844 4516 
L 4656 3747 
L 6019 3747 
L 6019 509 
L 5594 509 
L 5594 3334 
L 3831 3334 
L 3831 509 
L 3406 509 
L 3406 3747 
z
M 1394 3753 
L 2963 3753 
L 2963 1934 
Q 2963 1497 2788 1372 
Q 2619 1222 2075 1228 
Q 2050 1528 1988 1734 
Q 2350 1672 2450 1722 
Q 2550 1766 2550 1953 
L 2550 3316 
L 1819 3316 
L 1819 78 
Q 2438 353 3056 703 
Q 3056 403 3106 234 
Q 2175 -241 1831 -434 
Q 1588 -572 1469 -709 
L 1194 -359 
Q 1394 -172 1394 178 
L 1394 3753 
z
M 975 4509 
L 975 1978 
Q 975 191 438 -834 
Q 250 -628 81 -509 
Q 538 403 538 2166 
L 538 4947 
L 3075 4947 
L 3075 4509 
L 975 4509 
z
M 4494 2978 
L 4931 2978 
L 4931 2047 
Q 4931 1334 4781 803 
Q 5594 141 6269 -491 
L 5919 -866 
Q 5325 -228 4619 372 
Q 4600 334 4581 303 
Q 4206 -416 3238 -909 
Q 3069 -672 2913 -528 
Q 3813 -97 4156 491 
Q 4494 1059 4494 2047 
L 4494 2978 
z
" transform="scale(0.015625)"/>
       </defs>
       <use xlink:href="#MicrosoftYaHei-7761"/>
       <use xlink:href="#MicrosoftYaHei-524d" transform="translate(100 0)"/>
       <use xlink:href="#MicrosoftYaHei-56de" transform="translate(200 0)"/>
       <use xlink:href="#MicrosoftYaHei-987e" transform="translate(300 0)"/>
      </g>
      <!-- （巩固记忆） -->
      <g transform="translate(15.7 47.751424) scale(0.085 -0.085)">
       <defs>
        <path id="MicrosoftYaHei-5de9" d="M 3119 4447 
L 3119 2766 
Q 3119 1141 2956 541 
Q 2769 -166 2181 -847 
Q 2044 -672 1819 -428 
Q 2344 166 2475 759 
Q 2625 1291 2619 2766 
L 2619 4916 
L 5244 4916 
L 5244 103 
Q 5250 -134 5413 -147 
L 5575 -147 
Q 5731 -128 5775 216 
Q 5813 559 5850 1234 
Q 6063 1134 6319 1041 
Q 6256 366 6219 34 
Q 6131 -616 5606 -634 
L 5356 -634 
Q 4756 -622 4744 53 
L 4744 4447 
L 3119 4447 
z
M 81 666 
Q 469 766 894 878 
L 894 4034 
L 169 4034 
L 169 4497 
L 2169 4497 
L 2169 4034 
L 1388 4034 
L 1388 1016 
Q 1794 1128 2225 1259 
Q 2206 966 2219 766 
Q 1169 466 163 134 
L 81 666 
z
M 3325 3041 
L 3713 3284 
Q 4181 2616 4569 2003 
L 4125 1722 
Q 3681 2516 3325 3041 
z
" transform="scale(0.015625)"/>
        <path id="MicrosoftYaHei-56fa" d="M 469 4997 
L 5938 4997 
L 5938 -834 
L 5469 -834 
L 5469 -509 
L 944 -509 
L 944 -841 
L 469 -841 
L 469 4997 
z
M 5469 4541 
L 944 4541 
L 944 -53 
L 5469 -53 
L 5469 4541 
z
M 1869 2459 
L 2963 2459 
L 2963 3216 
L 1313 3216 
L 1313 3641 
L 2963 3641 
L 2963 4366 
L 3425 4366 
L 3425 3641 
L 5081 3641 
L 5081 3216 
L 3425 3216 
L 3425 2459 
L 4531 2459 
L 4531 434 
L 4081 434 
L 4081 691 
L 2319 691 
L 2319 434 
L 1869 434 
L 1869 2459 
z
M 4081 2047 
L 2319 2047 
L 2319 1103 
L 4081 1103 
L 4081 2047 
z
" transform="scale(0.015625)"/>
       </defs>
       <use xlink:href="#MicrosoftYaHei-ff08"/>
       <use xlink:href="#MicrosoftYaHei-5de9" transform="translate(100 0)"/>
       <use xlink:href="#MicrosoftYaHei-56fa" transform="translate(200 0)"/>
       <use xlink:href="#MicrosoftYaHei-8bb0" transform="translate(300 0)"/>
       <use xlink:href="#MicrosoftYaHei-5fc6" transform="translate(400 0)"/>
       <use xlink:href="#MicrosoftYaHei-ff09" transform="translate(500 0)"/>
      </g>
     </g>
    </g>
   </g>
   <g id="patch_10">
    <path d="M 73.7 202.364375 
L 73.7 23.591875 
" style="fill: none; stroke: #000000; stroke-width: 0.8; stroke-linejoin: miter; stroke-linecap: square"/>
   </g>
   <g id="patch_11">
    <path d="M 73.7 202.364375 
L 549.17 202.364375 
" style="fill: none; stroke: #000000; stroke-width: 0.8; stroke-linejoin: miter; stroke-linecap: square"/>
   </g>
   <g id="text_18">
    <!-- 6:00-7:00 -->
    <g style="fill: #ffffff" transform="translate(89.063281 184.95099) scale(0.075 -0.075)">
     <defs>
      <path id="MicrosoftYaHei-Bold-36" d="M 3378 3938 
Q 3009 4147 2575 4147 
Q 2016 4147 1680 3708 
Q 1344 3269 1344 2572 
L 1363 2572 
Q 1709 3103 2391 3103 
Q 3000 3103 3358 2686 
Q 3716 2269 3716 1600 
Q 3716 869 3250 392 
Q 2784 -84 2059 -84 
Q 1228 -84 786 516 
Q 344 1116 344 2159 
Q 344 3388 917 4155 
Q 1491 4922 2513 4922 
Q 3063 4922 3378 4791 
L 3378 3938 
z
M 1378 1591 
Q 1378 1216 1565 953 
Q 1753 691 2059 691 
Q 2369 691 2547 931 
Q 2725 1172 2725 1534 
Q 2725 2350 2053 2350 
Q 1750 2350 1564 2134 
Q 1378 1919 1378 1591 
z
" transform="scale(0.015625)"/>
      <path id="MicrosoftYaHei-Bold-3a" d="M 313 2969 
Q 313 3200 491 3350 
Q 669 3500 916 3500 
Q 1166 3500 1337 3350 
Q 1509 3200 1509 2969 
Q 1509 2728 1337 2579 
Q 1166 2431 903 2431 
Q 653 2431 483 2584 
Q 313 2738 313 2969 
z
M 313 453 
Q 313 688 491 838 
Q 669 988 916 988 
Q 1166 988 1337 834 
Q 1509 681 1509 453 
Q 1509 213 1337 64 
Q 1166 -84 903 -84 
Q 659 -84 486 69 
Q 313 222 313 453 
z
" transform="scale(0.015625)"/>
      <path id="MicrosoftYaHei-Bold-30" d="M 244 2341 
Q 244 3597 706 4259 
Q 1169 4922 2044 4922 
Q 3713 4922 3713 2453 
Q 3713 1238 3259 577 
Q 2806 -84 1950 -84 
Q 244 -84 244 2341 
z
M 1266 2366 
Q 1266 691 1981 691 
Q 2684 691 2684 2416 
Q 2684 4147 2000 4147 
Q 1266 4147 1266 2366 
z
" transform="scale(0.015625)"/>
      <path id="MicrosoftYaHei-Bold-2d" d="M 2328 1497 
L 481 1497 
L 481 2209 
L 2328 2209 
L 2328 1497 
z
" transform="scale(0.015625)"/>
      <path id="MicrosoftYaHei-Bold-37" d="M 3675 4225 
Q 3088 3172 2798 2528 
Q 2509 1884 2328 1275 
Q 2147 666 2050 0 
L 966 0 
Q 1122 947 1517 1917 
Q 1913 2888 2609 4009 
L 300 4009 
L 300 4841 
L 3675 4841 
L 3675 4225 
z
" transform="scale(0.015625)"/>
     </defs>
     <use xlink:href="#MicrosoftYaHei-Bold-36"/>
     <use xlink:href="#MicrosoftYaHei-Bold-3a" transform="translate(61.669922 0)"/>
     <use xlink:href="#MicrosoftYaHei-Bold-30" transform="translate(90.234375 0)"/>
     <use xlink:href="#MicrosoftYaHei-Bold-30" transform="translate(151.904297 0)"/>
     <use xlink:href="#MicrosoftYaHei-Bold-2d" transform="translate(213.574219 0)"/>
     <use xlink:href="#MicrosoftYaHei-Bold-37" transform="translate(257.226562 0)"/>
     <use xlink:href="#MicrosoftYaHei-Bold-3a" transform="translate(318.896484 0)"/>
     <use xlink:href="#MicrosoftYaHei-Bold-30" transform="translate(347.460938 0)"/>
     <use xlink:href="#MicrosoftYaHei-Bold-30" transform="translate(409.130859 0)"/>
    </g>
    <!-- 1.5h -->
    <g style="fill: #ffffff" transform="translate(98.601758 194.009818) scale(0.075 -0.075)">
     <defs>
      <path id="MicrosoftYaHei-Bold-31" d="M 2716 4947 
L 2716 0 
L 1700 0 
L 1700 3809 
Q 1513 3647 1188 3517 
Q 863 3388 591 3356 
L 591 4222 
Q 1447 4472 2072 4947 
L 2716 4947 
z
" transform="scale(0.015625)"/>
      <path id="MicrosoftYaHei-Bold-2e" d="M 313 453 
Q 313 688 491 838 
Q 669 988 916 988 
Q 1166 988 1337 834 
Q 1509 681 1509 453 
Q 1509 213 1337 64 
Q 1166 -84 903 -84 
Q 659 -84 486 69 
Q 313 222 313 453 
z
" transform="scale(0.015625)"/>
      <path id="MicrosoftYaHei-Bold-35" d="M 541 125 
L 541 997 
Q 1044 691 1613 691 
Q 2041 691 2283 902 
Q 2525 1113 2525 1472 
Q 2525 2225 1494 2225 
Q 1113 2225 616 2169 
L 797 4841 
L 3359 4841 
L 3359 4009 
L 1613 4009 
L 1544 2991 
Q 1803 3013 2022 3013 
Q 2731 3013 3142 2625 
Q 3553 2238 3553 1575 
Q 3553 844 3056 380 
Q 2559 -84 1706 -84 
Q 1016 -84 541 125 
z
" transform="scale(0.015625)"/>
      <path id="MicrosoftYaHei-Bold-68" d="M 3725 0 
L 2719 0 
L 2719 1969 
Q 2719 2766 2138 2766 
Q 1847 2766 1658 2544 
Q 1469 2322 1469 1969 
L 1469 0 
L 459 0 
L 459 5116 
L 1469 5116 
L 1469 2938 
L 1481 2938 
Q 1878 3541 2550 3541 
Q 3725 3541 3725 2122 
L 3725 0 
z
" transform="scale(0.015625)"/>
     </defs>
     <use xlink:href="#MicrosoftYaHei-Bold-31"/>
     <use xlink:href="#MicrosoftYaHei-Bold-2e" transform="translate(61.669922 0)"/>
     <use xlink:href="#MicrosoftYaHei-Bold-35" transform="translate(90.234375 0)"/>
     <use xlink:href="#MicrosoftYaHei-Bold-68" transform="translate(151.904297 0)"/>
    </g>
   </g>
   <g id="text_19">
    <!-- 8:00-11:00 -->
    <g style="fill: #ffffff" transform="translate(165.995586 160.138707) scale(0.075 -0.075)">
     <defs>
      <path id="MicrosoftYaHei-Bold-38" d="M 269 1303 
Q 269 1725 512 2053 
Q 756 2381 1219 2534 
Q 850 2719 648 3003 
Q 447 3288 447 3634 
Q 447 3997 645 4292 
Q 844 4588 1200 4755 
Q 1556 4922 1997 4922 
Q 2441 4922 2800 4758 
Q 3159 4594 3359 4298 
Q 3559 4003 3559 3647 
Q 3559 3309 3339 3018 
Q 3119 2728 2747 2559 
Q 3200 2403 3453 2076 
Q 3706 1750 3706 1313 
Q 3706 697 3228 309 
Q 2750 -78 1988 -78 
Q 1225 -78 747 309 
Q 269 697 269 1303 
z
M 1278 1394 
Q 1278 1056 1472 853 
Q 1666 650 1991 650 
Q 2303 650 2503 853 
Q 2703 1056 2703 1394 
Q 2703 1709 2500 1920 
Q 2297 2131 1991 2131 
Q 1675 2131 1476 1920 
Q 1278 1709 1278 1394 
z
M 1428 3531 
Q 1428 3266 1592 3077 
Q 1756 2888 2006 2888 
Q 2247 2888 2415 3072 
Q 2584 3256 2584 3531 
Q 2584 3806 2420 3997 
Q 2256 4188 2006 4188 
Q 1750 4188 1589 3997 
Q 1428 3806 1428 3531 
z
" transform="scale(0.015625)"/>
     </defs>
     <use xlink:href="#MicrosoftYaHei-Bold-38"/>
     <use xlink:href="#MicrosoftYaHei-Bold-3a" transform="translate(61.669922 0)"/>
     <use xlink:href="#MicrosoftYaHei-Bold-30" transform="translate(90.234375 0)"/>
     <use xlink:href="#MicrosoftYaHei-Bold-30" transform="translate(151.904297 0)"/>
     <use xlink:href="#MicrosoftYaHei-Bold-2d" transform="translate(213.574219 0)"/>
     <use xlink:href="#MicrosoftYaHei-Bold-31" transform="translate(257.226562 0)"/>
     <use xlink:href="#MicrosoftYaHei-Bold-31" transform="translate(318.896484 0)"/>
     <use xlink:href="#MicrosoftYaHei-Bold-3a" transform="translate(380.566406 0)"/>
     <use xlink:href="#MicrosoftYaHei-Bold-30" transform="translate(409.130859 0)"/>
     <use xlink:href="#MicrosoftYaHei-Bold-30" transform="translate(470.800781 0)"/>
    </g>
    <!-- 3.5h -->
    <g style="fill: #ffffff" transform="translate(177.846758 169.197535) scale(0.075 -0.075)">
     <defs>
      <path id="MicrosoftYaHei-Bold-33" d="M 494 1053 
Q 978 691 1625 691 
Q 2034 691 2275 872 
Q 2516 1053 2516 1388 
Q 2516 1731 2230 1912 
Q 1944 2094 1428 2094 
L 997 2094 
L 997 2872 
L 1394 2872 
Q 2369 2872 2369 3528 
Q 2369 4147 1622 4147 
Q 1134 4147 675 3828 
L 675 4663 
Q 1175 4922 1853 4922 
Q 2541 4922 2969 4605 
Q 3397 4288 3397 3725 
Q 3397 2775 2434 2531 
L 2434 2516 
Q 2941 2459 3244 2145 
Q 3547 1831 3547 1381 
Q 3547 691 3042 303 
Q 2538 -84 1697 -84 
Q 950 -84 494 163 
L 494 1053 
z
" transform="scale(0.015625)"/>
     </defs>
     <use xlink:href="#MicrosoftYaHei-Bold-33"/>
     <use xlink:href="#MicrosoftYaHei-Bold-2e" transform="translate(61.669922 0)"/>
     <use xlink:href="#MicrosoftYaHei-Bold-35" transform="translate(90.234375 0)"/>
     <use xlink:href="#MicrosoftYaHei-Bold-68" transform="translate(151.904297 0)"/>
    </g>
   </g>
   <g id="text_20">
    <!-- 12:00-13:00 -->
    <g style="fill: #ffffff" transform="translate(249.531641 135.326424) scale(0.075 -0.075)">
     <defs>
      <path id="MicrosoftYaHei-Bold-32" d="M 1500 841 
L 3553 841 
L 3553 0 
L 334 0 
L 334 359 
Q 334 738 473 1050 
Q 613 1363 856 1633 
Q 1100 1903 1613 2266 
Q 2081 2616 2268 2886 
Q 2456 3156 2456 3459 
Q 2456 4113 1744 4113 
Q 1119 4113 550 3613 
L 550 4513 
Q 1184 4922 1975 4922 
Q 2700 4922 3122 4551 
Q 3544 4181 3544 3531 
Q 3544 3169 3422 2876 
Q 3300 2584 3069 2328 
Q 2838 2072 2328 1713 
Q 1838 1363 1669 1172 
Q 1500 981 1500 841 
z
" transform="scale(0.015625)"/>
     </defs>
     <use xlink:href="#MicrosoftYaHei-Bold-31"/>
     <use xlink:href="#MicrosoftYaHei-Bold-32" transform="translate(61.669922 0)"/>
     <use xlink:href="#MicrosoftYaHei-Bold-3a" transform="translate(123.339844 0)"/>
     <use xlink:href="#MicrosoftYaHei-Bold-30" transform="translate(151.904297 0)"/>
     <use xlink:href="#MicrosoftYaHei-Bold-30" transform="translate(213.574219 0)"/>
     <use xlink:href="#MicrosoftYaHei-Bold-2d" transform="translate(275.244141 0)"/>
     <use xlink:href="#MicrosoftYaHei-Bold-31" transform="translate(318.896484 0)"/>
     <use xlink:href="#MicrosoftYaHei-Bold-33" transform="translate(380.566406 0)"/>
     <use xlink:href="#MicrosoftYaHei-Bold-3a" transform="translate(442.236328 0)"/>
     <use xlink:href="#MicrosoftYaHei-Bold-30" transform="translate(470.800781 0)"/>
     <use xlink:href="#MicrosoftYaHei-Bold-30" transform="translate(532.470703 0)"/>
    </g>
    <!-- 1.0h -->
    <g style="fill: #ffffff" transform="translate(263.695508 144.385252) scale(0.075 -0.075)">
     <use xlink:href="#MicrosoftYaHei-Bold-31"/>
     <use xlink:href="#MicrosoftYaHei-Bold-2e" transform="translate(61.669922 0)"/>
     <use xlink:href="#MicrosoftYaHei-Bold-30" transform="translate(90.234375 0)"/>
     <use xlink:href="#MicrosoftYaHei-Bold-68" transform="translate(151.904297 0)"/>
    </g>
   </g>
   <g id="text_21">
    <!-- 14:00-16:00 -->
    <g style="fill: #ffffff" transform="translate(308.965391 110.514141) scale(0.075 -0.075)">
     <defs>
      <path id="MicrosoftYaHei-Bold-34" d="M 3184 4841 
L 3184 1766 
L 3869 1766 
L 3869 1031 
L 3184 1031 
L 3184 0 
L 2266 0 
L 2266 1031 
L 103 1031 
L 103 1772 
Q 775 2522 1362 3359 
Q 1950 4197 2250 4841 
L 3184 4841 
z
M 997 1766 
L 2266 1766 
L 2266 3541 
Q 2116 3259 1836 2859 
Q 1556 2459 997 1766 
z
" transform="scale(0.015625)"/>
     </defs>
     <use xlink:href="#MicrosoftYaHei-Bold-31"/>
     <use xlink:href="#MicrosoftYaHei-Bold-34" transform="translate(61.669922 0)"/>
     <use xlink:href="#MicrosoftYaHei-Bold-3a" transform="translate(123.339844 0)"/>
     <use xlink:href="#MicrosoftYaHei-Bold-30" transform="translate(151.904297 0)"/>
     <use xlink:href="#MicrosoftYaHei-Bold-30" transform="translate(213.574219 0)"/>
     <use xlink:href="#MicrosoftYaHei-Bold-2d" transform="translate(275.244141 0)"/>
     <use xlink:href="#MicrosoftYaHei-Bold-31" transform="translate(318.896484 0)"/>
     <use xlink:href="#MicrosoftYaHei-Bold-36" transform="translate(380.566406 0)"/>
     <use xlink:href="#MicrosoftYaHei-Bold-3a" transform="translate(442.236328 0)"/>
     <use xlink:href="#MicrosoftYaHei-Bold-30" transform="translate(470.800781 0)"/>
     <use xlink:href="#MicrosoftYaHei-Bold-30" transform="translate(532.470703 0)"/>
    </g>
    <!-- 2.5h -->
    <g style="fill: #ffffff" transform="translate(323.129258 119.572969) scale(0.075 -0.075)">
     <use xlink:href="#MicrosoftYaHei-Bold-32"/>
     <use xlink:href="#MicrosoftYaHei-Bold-2e" transform="translate(61.669922 0)"/>
     <use xlink:href="#MicrosoftYaHei-Bold-35" transform="translate(90.234375 0)"/>
     <use xlink:href="#MicrosoftYaHei-Bold-68" transform="translate(151.904297 0)"/>
    </g>
   </g>
   <g id="text_22">
    <!-- 17:00-17:00 -->
    <g style="fill: #ffffff" transform="translate(361.795391 85.701857) scale(0.075 -0.075)">
     <use xlink:href="#MicrosoftYaHei-Bold-31"/>
     <use xlink:href="#MicrosoftYaHei-Bold-37" transform="translate(61.669922 0)"/>
     <use xlink:href="#MicrosoftYaHei-Bold-3a" transform="translate(123.339844 0)"/>
     <use xlink:href="#MicrosoftYaHei-Bold-30" transform="translate(151.904297 0)"/>
     <use xlink:href="#MicrosoftYaHei-Bold-30" transform="translate(213.574219 0)"/>
     <use xlink:href="#MicrosoftYaHei-Bold-2d" transform="translate(275.244141 0)"/>
     <use xlink:href="#MicrosoftYaHei-Bold-31" transform="translate(318.896484 0)"/>
     <use xlink:href="#MicrosoftYaHei-Bold-37" transform="translate(380.566406 0)"/>
     <use xlink:href="#MicrosoftYaHei-Bold-3a" transform="translate(442.236328 0)"/>
     <use xlink:href="#MicrosoftYaHei-Bold-30" transform="translate(470.800781 0)"/>
     <use xlink:href="#MicrosoftYaHei-Bold-30" transform="translate(532.470703 0)"/>
    </g>
    <!-- 0.5h -->
    <g style="fill: #ffffff" transform="translate(375.959258 94.760686) scale(0.075 -0.075)">
     <use xlink:href="#MicrosoftYaHei-Bold-30"/>
     <use xlink:href="#MicrosoftYaHei-Bold-2e" transform="translate(61.669922 0)"/>
     <use xlink:href="#MicrosoftYaHei-Bold-35" transform="translate(90.234375 0)"/>
     <use xlink:href="#MicrosoftYaHei-Bold-68" transform="translate(151.904297 0)"/>
    </g>
   </g>
   <g id="text_23">
    <!-- 19:00-22:00 -->
    <g style="fill: #ffffff" transform="translate(454.247891 60.889574) scale(0.075 -0.075)">
     <defs>
      <path id="MicrosoftYaHei-Bold-39" d="M 544 941 
Q 931 691 1456 691 
Q 2628 691 2653 2216 
L 2634 2222 
Q 2316 1731 1650 1731 
Q 1047 1731 658 2154 
Q 269 2578 269 3222 
Q 269 3978 737 4450 
Q 1206 4922 1959 4922 
Q 2744 4922 3191 4325 
Q 3638 3728 3638 2659 
Q 3638 1391 3098 653 
Q 2559 -84 1547 -84 
Q 975 -84 544 100 
L 544 941 
z
M 1259 3313 
Q 1259 2928 1445 2709 
Q 1631 2491 1953 2491 
Q 2241 2491 2427 2700 
Q 2613 2909 2613 3219 
Q 2613 3591 2427 3869 
Q 2241 4147 1928 4147 
Q 1625 4147 1442 3906 
Q 1259 3666 1259 3313 
z
" transform="scale(0.015625)"/>
     </defs>
     <use xlink:href="#MicrosoftYaHei-Bold-31"/>
     <use xlink:href="#MicrosoftYaHei-Bold-39" transform="translate(61.669922 0)"/>
     <use xlink:href="#MicrosoftYaHei-Bold-3a" transform="translate(123.339844 0)"/>
     <use xlink:href="#MicrosoftYaHei-Bold-30" transform="translate(151.904297 0)"/>
     <use xlink:href="#MicrosoftYaHei-Bold-30" transform="translate(213.574219 0)"/>
     <use xlink:href="#MicrosoftYaHei-Bold-2d" transform="translate(275.244141 0)"/>
     <use xlink:href="#MicrosoftYaHei-Bold-32" transform="translate(318.896484 0)"/>
     <use xlink:href="#MicrosoftYaHei-Bold-32" transform="translate(380.566406 0)"/>
     <use xlink:href="#MicrosoftYaHei-Bold-3a" transform="translate(442.236328 0)"/>
     <use xlink:href="#MicrosoftYaHei-Bold-30" transform="translate(470.800781 0)"/>
     <use xlink:href="#MicrosoftYaHei-Bold-30" transform="translate(532.470703 0)"/>
    </g>
    <!-- 2.5h -->
    <g style="fill: #ffffff" transform="translate(468.411758 69.948402) scale(0.075 -0.075)">
     <use xlink:href="#MicrosoftYaHei-Bold-32"/>
     <use xlink:href="#MicrosoftYaHei-Bold-2e" transform="translate(61.669922 0)"/>
     <use xlink:href="#MicrosoftYaHei-Bold-35" transform="translate(90.234375 0)"/>
     <use xlink:href="#MicrosoftYaHei-Bold-68" transform="translate(151.904297 0)"/>
    </g>
   </g>
   <g id="text_24">
    <!-- 22:00-22:00 -->
    <g style="fill: #ffffff" transform="translate(497.172266 36.077291) scale(0.075 -0.075)">
     <use xlink:href="#MicrosoftYaHei-Bold-32"/>
     <use xlink:href="#MicrosoftYaHei-Bold-32" transform="translate(61.669922 0)"/>
     <use xlink:href="#MicrosoftYaHei-Bold-3a" transform="translate(123.339844 0)"/>
     <use xlink:href="#MicrosoftYaHei-Bold-30" transform="translate(151.904297 0)"/>
     <use xlink:href="#MicrosoftYaHei-Bold-30" transform="translate(213.574219 0)"/>
     <use xlink:href="#MicrosoftYaHei-Bold-2d" transform="translate(275.244141 0)"/>
     <use xlink:href="#MicrosoftYaHei-Bold-32" transform="translate(318.896484 0)"/>
     <use xlink:href="#MicrosoftYaHei-Bold-32" transform="translate(380.566406 0)"/>
     <use xlink:href="#MicrosoftYaHei-Bold-3a" transform="translate(442.236328 0)"/>
     <use xlink:href="#MicrosoftYaHei-Bold-30" transform="translate(470.800781 0)"/>
     <use xlink:href="#MicrosoftYaHei-Bold-30" transform="translate(532.470703 0)"/>
    </g>
    <!-- 0.8h -->
    <g style="fill: #ffffff" transform="translate(511.336133 45.136119) scale(0.075 -0.075)">
     <use xlink:href="#MicrosoftYaHei-Bold-30"/>
     <use xlink:href="#MicrosoftYaHei-Bold-2e" transform="translate(61.669922 0)"/>
     <use xlink:href="#MicrosoftYaHei-Bold-38" transform="translate(90.234375 0)"/>
     <use xlink:href="#MicrosoftYaHei-Bold-68" transform="translate(151.904297 0)"/>
    </g>
   </g>
   <g id="text_25">
    <!-- 一天 -->
    <g style="fill: #999999" transform="translate(535.9625 150.646836) scale(0.075 -0.075)">
     <defs>
      <path id="MicrosoftYaHei-4e00" d="M 100 2703 
L 6313 2703 
L 6313 2153 
L 100 2153 
L 100 2703 
z
" transform="scale(0.015625)"/>
      <path id="MicrosoftYaHei-5929" d="M 88 -353 
Q 2428 644 2813 2422 
L 169 2422 
L 169 2897 
L 2878 2897 
Q 2906 3341 2906 4428 
L 513 4428 
L 513 4903 
L 5913 4903 
L 5913 4428 
L 3456 4428 
Q 3450 3775 3431 2897 
L 6231 2897 
L 6231 2422 
L 3516 2422 
Q 4113 441 6319 -228 
Q 6063 -534 5888 -747 
Q 3850 75 3206 1969 
Q 2713 206 475 -828 
Q 344 -659 88 -353 
z
" transform="scale(0.015625)"/>
     </defs>
     <use xlink:href="#MicrosoftYaHei-4e00"/>
     <use xlink:href="#MicrosoftYaHei-5929" transform="translate(100 0)"/>
    </g>
    <!-- 合计 -->
    <g style="fill: #999999" transform="translate(535.9625 159.705664) scale(0.075 -0.075)">
     <defs>
      <path id="MicrosoftYaHei-5408" d="M 1025 1909 
L 5381 1909 
L 5381 -866 
L 4881 -866 
L 4881 -447 
L 1525 -447 
L 1525 -878 
L 1025 -878 
L 1025 1909 
z
M 3700 5234 
L 3550 5053 
Q 4594 3697 6319 3009 
Q 6125 2734 5988 2509 
Q 5481 2753 5025 3059 
L 5025 2703 
L 1369 2703 
L 1369 3016 
Q 913 2716 394 2428 
Q 269 2641 81 2897 
Q 2013 3866 3000 5234 
L 3700 5234 
z
M 4881 1453 
L 1525 1453 
L 1525 -3 
L 4881 -3 
L 4881 1453 
z
M 3219 4691 
Q 2581 3872 1550 3147 
L 4894 3147 
Q 3944 3797 3219 4691 
z
" transform="scale(0.015625)"/>
      <path id="MicrosoftYaHei-8ba1" d="M 2100 3153 
L 3919 3153 
L 3919 5303 
L 4456 5303 
L 4456 3153 
L 6288 3153 
L 6288 2703 
L 4456 2703 
L 4456 -822 
L 3919 -822 
L 3919 2703 
L 2100 2703 
L 2100 3153 
z
M 2675 903 
Q 2694 578 2719 359 
Q 1719 -266 1069 -728 
L 769 -303 
Q 988 -116 988 266 
L 988 2741 
L 100 2741 
L 100 3191 
L 1488 3191 
L 1488 153 
Q 2031 484 2675 903 
z
M 738 5222 
Q 1419 4522 1725 4184 
L 1288 3816 
Q 894 4334 356 4891 
L 738 5222 
z
" transform="scale(0.015625)"/>
     </defs>
     <use xlink:href="#MicrosoftYaHei-5408"/>
     <use xlink:href="#MicrosoftYaHei-8ba1" transform="translate(100 0)"/>
    </g>
    <!-- 约12h -->
    <g style="fill: #999999" transform="translate(535.9625 168.764492) scale(0.075 -0.075)">
     <defs>
      <path id="MicrosoftYaHei-7ea6" d="M 2269 2884 
Q 3056 4047 3463 5341 
L 3981 5197 
Q 3794 4731 3613 4322 
L 6056 4322 
Q 5969 1472 5913 316 
Q 5856 -678 4850 -678 
Q 4263 -678 3600 -641 
Q 3556 -397 3488 -78 
Q 4200 -166 4794 -166 
Q 5369 -166 5394 441 
Q 5463 1322 5519 3853 
L 3394 3853 
Q 3053 3153 2719 2641 
Q 2519 2759 2269 2884 
z
M 981 1534 
Q 1938 1666 2556 1766 
Q 2513 1516 2500 1291 
Q 1481 1153 413 978 
L 300 1441 
Q 772 1922 1309 2766 
Q 597 2722 244 2691 
L 125 3116 
Q 813 4028 1394 5347 
L 1869 5159 
Q 1275 4016 688 3153 
Q 1150 3163 1566 3178 
Q 1813 3591 2075 4078 
L 2538 3847 
Q 1731 2509 981 1534 
z
M 113 97 
Q 1488 278 2669 484 
Q 2644 234 2631 -3 
Q 1619 -128 225 -391 
L 113 97 
z
M 3144 2584 
L 3544 2847 
Q 4144 2078 4600 1403 
L 4131 1103 
Q 3713 1791 3144 2584 
z
" transform="scale(0.015625)"/>
      <path id="MicrosoftYaHei-68" d="M 3466 0 
L 2856 0 
L 2856 1988 
Q 2856 3031 2081 3031 
Q 1684 3031 1421 2726 
Q 1159 2422 1159 1959 
L 1159 0 
L 547 0 
L 547 5116 
L 1159 5116 
L 1159 2888 
L 1172 2888 
Q 1569 3538 2300 3538 
Q 3466 3538 3466 2128 
L 3466 0 
z
" transform="scale(0.015625)"/>
     </defs>
     <use xlink:href="#MicrosoftYaHei-7ea6"/>
     <use xlink:href="#MicrosoftYaHei-31" transform="translate(100 0)"/>
     <use xlink:href="#MicrosoftYaHei-32" transform="translate(158.642578 0)"/>
     <use xlink:href="#MicrosoftYaHei-68" transform="translate(217.285156 0)"/>
    </g>
   </g>
   <g id="text_26">
    <!-- 科学作息时间表 · 基于大脑节律 -->
    <g style="fill: #1a1a2e" transform="translate(220.206484 17.591875) scale(0.13 -0.13)">
     <defs>
      <path id="MicrosoftYaHei-Bold-79d1" d="M 2494 1316 
L 4525 1500 
L 4525 5309 
L 5406 5309 
L 5406 1581 
L 6256 1659 
L 6325 866 
L 5406 781 
L 5406 -834 
L 4525 -834 
L 4525 703 
L 2600 528 
L 2494 1316 
z
M 88 1128 
Q 684 1850 1009 2709 
L 144 2709 
L 144 3516 
L 1038 3516 
L 1038 4216 
L 281 4147 
Q 219 4572 138 4891 
Q 1431 4991 2525 5147 
L 2763 4416 
Q 2341 4356 1850 4300 
L 1850 3516 
L 2663 3516 
L 2663 2709 
L 1850 2709 
L 1850 2172 
L 2150 2453 
Q 2600 2053 2913 1728 
L 2388 1253 
Q 2078 1616 1850 1863 
L 1850 -834 
L 1038 -834 
L 1038 1278 
Q 744 659 375 128 
Q 269 541 88 1128 
z
M 3419 4866 
Q 3894 4516 4475 3991 
L 3894 3416 
Q 3425 3916 2894 4334 
L 3419 4866 
z
M 3206 3278 
Q 3756 2872 4275 2397 
L 3688 1828 
Q 3263 2278 2675 2734 
L 3206 3278 
z
" transform="scale(0.015625)"/>
      <path id="MicrosoftYaHei-Bold-5b66" d="M 1425 5341 
Q 1800 4916 2188 4391 
L 1909 4203 
L 2953 4203 
Q 2691 4706 2469 5053 
L 3231 5391 
Q 3481 5009 3819 4403 
L 3388 4203 
L 4153 4203 
Q 4581 4819 4875 5272 
L 5719 4809 
L 5213 4203 
L 6113 4203 
L 6113 2666 
L 5238 2666 
L 5238 3441 
L 1156 3441 
L 1156 2666 
L 281 2666 
L 281 4203 
L 1303 4203 
Q 1028 4581 769 4897 
L 1425 5341 
z
M 175 1528 
L 2906 1528 
L 2906 1691 
L 3744 2234 
L 1456 2234 
L 1456 2997 
L 4975 2997 
L 4975 2241 
L 3900 1528 
L 6231 1528 
L 6231 753 
L 3806 753 
L 3806 116 
Q 3806 -316 3565 -556 
Q 3325 -797 2829 -800 
Q 2334 -803 1813 -803 
Q 1725 -372 1600 22 
Q 2075 -3 2469 -3 
Q 2906 -3 2906 378 
L 2906 753 
L 175 753 
L 175 1528 
z
" transform="scale(0.015625)"/>
      <path id="MicrosoftYaHei-Bold-4f5c" d="M 5944 1984 
L 4250 1984 
L 4250 1216 
L 6088 1216 
L 6088 428 
L 4250 428 
L 4250 -834 
L 3369 -834 
L 3369 3541 
L 3184 3541 
Q 2800 2681 2313 2041 
Q 2131 2384 1831 2853 
Q 2544 3922 2944 5328 
L 3756 5134 
Q 3638 4722 3506 4347 
L 6300 4347 
L 6300 3541 
L 4250 3541 
L 4250 2772 
L 5944 2772 
L 5944 1984 
z
M 1319 5291 
L 2156 5047 
Q 1956 4419 1706 3828 
L 1706 -828 
L 856 -828 
L 856 2163 
Q 600 1744 313 1347 
Q 244 1828 100 2509 
Q 856 3703 1319 5291 
z
" transform="scale(0.015625)"/>
      <path id="MicrosoftYaHei-Bold-606f" d="M 706 4828 
L 2531 4828 
Q 2606 5075 2669 5353 
L 3738 5241 
L 3547 4828 
L 5713 4828 
L 5713 1384 
L 3550 1384 
L 4094 716 
L 3400 228 
Q 3175 578 2738 1134 
L 3122 1384 
L 706 1384 
L 706 4828 
z
M 4894 4184 
L 1525 4184 
L 1525 3834 
L 4894 3834 
L 4894 4184 
z
M 1525 2934 
L 4894 2934 
L 4894 3284 
L 1525 3284 
L 1525 2934 
z
M 4894 2028 
L 4894 2384 
L 1525 2384 
L 1525 2028 
L 4894 2028 
z
M 5569 1328 
Q 6081 466 6313 22 
L 5569 -372 
Q 5275 309 4863 991 
L 5569 1328 
z
M 644 1197 
L 1425 922 
Q 1019 -97 819 -534 
L 88 -197 
Q 431 484 644 1197 
z
M 4288 791 
Q 4806 484 5106 347 
Q 4875 -384 4609 -559 
Q 4344 -734 3938 -734 
L 2531 -734 
Q 1594 -734 1594 78 
L 1594 1122 
L 2456 1122 
L 2456 284 
Q 2456 -28 2863 -28 
L 3606 -28 
Q 3947 -28 4078 105 
Q 4209 238 4288 791 
z
" transform="scale(0.015625)"/>
      <path id="MicrosoftYaHei-Bold-65f6" d="M 3038 4241 
L 4888 4241 
L 4888 5291 
L 5781 5291 
L 5781 4241 
L 6306 4241 
L 6306 3409 
L 5781 3409 
L 5781 316 
Q 5781 -209 5547 -478 
Q 5313 -747 4898 -762 
Q 4484 -778 3669 -778 
Q 3569 -209 3456 134 
Q 4344 109 4431 109 
Q 4888 109 4888 584 
L 4888 3409 
L 3038 3409 
L 3038 4241 
z
M 394 -497 
L 394 4897 
L 2856 4897 
L 2856 -459 
L 2031 -459 
L 2031 -28 
L 1219 -28 
L 1219 -497 
L 394 -497 
z
M 2031 4072 
L 1219 4072 
L 1219 2834 
L 2031 2834 
L 2031 4072 
z
M 1219 797 
L 2031 797 
L 2031 2034 
L 1219 2034 
L 1219 797 
z
M 3588 3072 
Q 4013 2541 4713 1559 
L 3956 1066 
Q 3388 2009 2938 2641 
L 3588 3072 
z
" transform="scale(0.015625)"/>
      <path id="MicrosoftYaHei-Bold-95f4" d="M 1088 5059 
L 1906 5347 
Q 2200 4884 2506 4334 
L 1638 4003 
Q 1356 4597 1088 5059 
z
M 6056 347 
Q 6056 -106 5904 -378 
Q 5753 -650 5422 -736 
Q 5091 -822 3950 -822 
Q 3875 -359 3750 53 
Q 4150 28 4769 28 
Q 5188 28 5188 397 
L 5188 4278 
L 2719 4278 
L 2719 5047 
L 6056 5047 
L 6056 347 
z
M 344 4522 
L 1213 4522 
L 1213 -803 
L 344 -803 
L 344 4522 
z
M 1788 3772 
L 4581 3772 
L 4581 484 
L 2575 484 
L 2575 141 
L 1788 141 
L 1788 3772 
z
M 3794 3072 
L 2575 3072 
L 2575 2478 
L 3794 2478 
L 3794 3072 
z
M 3794 1184 
L 3794 1778 
L 2575 1778 
L 2575 1184 
L 3794 1184 
z
" transform="scale(0.015625)"/>
      <path id="MicrosoftYaHei-Bold-8868" d="M 5925 1259 
L 4825 684 
Q 5459 291 6313 109 
Q 5994 -291 5744 -666 
Q 4638 -309 3894 344 
Q 3878 -91 3888 -328 
Q 2419 -678 1856 -884 
L 1500 -172 
Q 1675 3 1675 403 
L 1675 522 
Q 1078 94 363 -278 
Q 219 203 69 591 
Q 1206 1109 2044 1891 
L 150 1891 
L 150 2591 
L 2750 2591 
L 2750 3003 
L 625 3003 
L 625 3703 
L 2750 3703 
L 2750 4116 
L 363 4116 
L 363 4816 
L 2750 4816 
L 2750 5353 
L 3631 5353 
L 3631 4816 
L 6044 4816 
L 6044 4116 
L 3631 4116 
L 3631 3703 
L 5750 3703 
L 5750 3003 
L 3631 3003 
L 3631 2591 
L 6244 2591 
L 6244 1891 
L 5453 1891 
L 5925 1259 
z
M 4209 1169 
Q 4600 1391 5284 1891 
L 3647 1891 
Q 3888 1488 4209 1169 
z
M 2916 1619 
Q 2722 1406 2506 1203 
L 2506 166 
L 3713 513 
Q 3225 994 2916 1619 
z
" transform="scale(0.015625)"/>
      <path id="MicrosoftYaHei-Bold-20" transform="scale(0.015625)"/>
      <path id="MicrosoftYaHei-Bold-b7" d="M 1406 2959 
Q 1769 2959 2028 2700 
Q 2288 2441 2288 2078 
Q 2288 1713 2028 1455 
Q 1769 1197 1406 1197 
Q 1041 1197 783 1455 
Q 525 1713 525 2078 
Q 525 2441 783 2700 
Q 1041 2959 1406 2959 
z
" transform="scale(0.015625)"/>
      <path id="MicrosoftYaHei-Bold-57fa" d="M 6319 853 
Q 6063 484 5856 159 
Q 5369 428 4925 791 
L 4925 384 
L 3631 384 
L 3631 3 
L 5875 3 
L 5875 -653 
L 525 -653 
L 525 3 
L 2775 3 
L 2775 384 
L 1450 384 
L 1450 766 
Q 1016 422 544 159 
Q 363 447 75 847 
Q 856 1141 1397 1584 
L 156 1584 
L 156 2241 
L 1244 2241 
L 1244 4141 
L 338 4141 
L 338 4797 
L 1244 4797 
L 1244 5341 
L 2100 5341 
L 2100 4797 
L 4313 4797 
L 4313 5341 
L 5163 5341 
L 5163 4797 
L 6069 4797 
L 6069 4141 
L 5163 4141 
L 5163 2241 
L 6244 2241 
L 6244 1584 
L 5013 1584 
Q 5675 1091 6319 853 
z
M 2100 3828 
L 4313 3828 
L 4313 4141 
L 2100 4141 
L 2100 3828 
z
M 2100 3028 
L 4313 3028 
L 4313 3341 
L 2100 3341 
L 2100 3028 
z
M 2100 2241 
L 4313 2241 
L 4313 2553 
L 2100 2553 
L 2100 2241 
z
M 2775 1466 
L 3631 1466 
L 3631 1028 
L 4647 1028 
Q 4359 1284 4091 1584 
L 2319 1584 
Q 2050 1284 1759 1028 
L 2775 1028 
L 2775 1466 
z
" transform="scale(0.015625)"/>
      <path id="MicrosoftYaHei-Bold-4e8e" d="M 163 2841 
L 2800 2841 
L 2800 4078 
L 625 4078 
L 625 4966 
L 5800 4966 
L 5800 4078 
L 3750 4078 
L 3750 2841 
L 6244 2841 
L 6244 1953 
L 3750 1953 
L 3750 584 
Q 3750 -44 3495 -358 
Q 3241 -672 2755 -683 
Q 2269 -694 1438 -697 
Q 1350 -228 1213 253 
Q 1750 197 2281 197 
Q 2800 197 2800 716 
L 2800 1953 
L 163 1953 
L 163 2841 
z
" transform="scale(0.015625)"/>
      <path id="MicrosoftYaHei-Bold-5927" d="M 213 3728 
L 2681 3728 
Q 2725 4409 2719 5303 
L 3669 5303 
Q 3650 4375 3619 3728 
L 6200 3728 
L 6200 2866 
L 3691 2866 
Q 4228 778 6288 59 
Q 5844 -447 5575 -803 
Q 3872 -3 3203 1775 
Q 2684 147 806 -847 
Q 556 -528 100 -47 
Q 2375 984 2591 2866 
L 213 2866 
L 213 3728 
z
" transform="scale(0.015625)"/>
      <path id="MicrosoftYaHei-Bold-8111" d="M 2569 4466 
L 4044 4466 
Q 3931 4725 3744 5084 
L 4481 5353 
Q 4756 4866 4894 4572 
Q 4728 4519 4581 4466 
L 6281 4466 
L 6281 3734 
L 2569 3734 
L 2569 4466 
z
M 663 -872 
Q 438 -522 88 -153 
Q 247 172 358 712 
Q 469 1253 469 2941 
L 469 5028 
L 2400 5028 
L 2400 16 
Q 2400 -294 2254 -503 
Q 2109 -713 1244 -766 
Q 1206 -447 1047 28 
Q 928 -453 663 -872 
z
M 1663 4228 
L 1206 4228 
L 1206 3366 
L 1663 3366 
L 1663 4228 
z
M 1197 1841 
L 1663 1841 
L 1663 2622 
L 1206 2622 
L 1197 1841 
z
M 1172 1097 
Q 1147 463 1059 84 
Q 1250 59 1422 59 
Q 1663 59 1663 416 
L 1663 1097 
L 1172 1097 
z
M 4756 3684 
L 5375 3428 
Q 5097 2725 4772 2081 
Q 5056 1553 5344 988 
L 5344 3122 
L 6069 3122 
L 6069 -822 
L 5344 -822 
L 5344 -553 
L 2706 -553 
L 2706 3122 
L 3431 3122 
L 3431 1122 
Q 3747 1575 4031 2094 
Q 3684 2756 3313 3384 
L 3869 3672 
Q 4122 3247 4378 2794 
Q 4578 3219 4756 3684 
z
M 3431 203 
L 5344 203 
L 5344 744 
Q 5106 638 4806 478 
Q 4603 934 4391 1375 
Q 4106 884 3794 434 
Q 3631 613 3431 775 
L 3431 203 
z
" transform="scale(0.015625)"/>
      <path id="MicrosoftYaHei-Bold-8282" d="M 125 4666 
L 1638 4666 
L 1638 5309 
L 2563 5309 
L 2563 4666 
L 3850 4666 
L 3850 5309 
L 4775 5309 
L 4775 4666 
L 6263 4666 
L 6263 3853 
L 4775 3853 
L 4775 3328 
L 3850 3328 
L 3850 3853 
L 2563 3853 
L 2563 3328 
L 1638 3328 
L 1638 3853 
L 125 3853 
L 125 4666 
z
M 3363 -128 
Q 3294 272 3156 803 
Q 3806 747 4213 747 
Q 4456 747 4590 853 
Q 4725 959 4751 1154 
Q 4778 1350 4794 2159 
L 2775 2159 
L 2775 -859 
L 1800 -859 
L 1800 2159 
L 419 2159 
L 419 2972 
L 5788 2972 
Q 5728 1291 5692 905 
Q 5656 519 5484 281 
Q 5313 44 5023 -45 
Q 4734 -134 3363 -128 
z
" transform="scale(0.015625)"/>
      <path id="MicrosoftYaHei-Bold-5f8b" d="M 1475 5347 
L 2156 4791 
Q 1375 3741 456 2941 
Q 319 3428 144 3903 
Q 925 4497 1475 5347 
z
M 1875 522 
L 3513 522 
L 3513 953 
L 2100 953 
L 2100 1616 
L 3513 1616 
L 3513 2041 
L 2300 2041 
L 2300 2703 
L 3513 2703 
L 3513 3097 
L 2019 3097 
L 2156 2972 
Q 1891 2566 1600 2194 
L 1600 -834 
L 794 -834 
L 794 1281 
Q 575 1063 344 859 
Q 219 1391 81 1834 
Q 938 2584 1538 3547 
L 2013 3103 
L 2013 3784 
L 3513 3784 
L 3513 4191 
L 2313 4191 
L 2313 4853 
L 3513 4853 
L 3513 5316 
L 4338 5316 
L 4338 4853 
L 5900 4853 
L 5900 3784 
L 6313 3784 
L 6313 3097 
L 5900 3097 
L 5900 2041 
L 4338 2041 
L 4338 1616 
L 5950 1616 
L 5950 953 
L 4338 953 
L 4338 522 
L 6213 522 
L 6213 -141 
L 4338 -141 
L 4338 -834 
L 3513 -834 
L 3513 -141 
L 1875 -141 
L 1875 522 
z
M 5125 4191 
L 4338 4191 
L 4338 3784 
L 5125 3784 
L 5125 4191 
z
M 5125 2703 
L 5125 3097 
L 4338 3097 
L 4338 2703 
L 5125 2703 
z
" transform="scale(0.015625)"/>
     </defs>
     <use xlink:href="#MicrosoftYaHei-Bold-79d1"/>
     <use xlink:href="#MicrosoftYaHei-Bold-5b66" transform="translate(100 0)"/>
     <use xlink:href="#MicrosoftYaHei-Bold-4f5c" transform="translate(200 0)"/>
     <use xlink:href="#MicrosoftYaHei-Bold-606f" transform="translate(300 0)"/>
     <use xlink:href="#MicrosoftYaHei-Bold-65f6" transform="translate(400 0)"/>
     <use xlink:href="#MicrosoftYaHei-Bold-95f4" transform="translate(500 0)"/>
     <use xlink:href="#MicrosoftYaHei-Bold-8868" transform="translate(600 0)"/>
     <use xlink:href="#MicrosoftYaHei-Bold-20" transform="translate(700 0)"/>
     <use xlink:href="#MicrosoftYaHei-Bold-b7" transform="translate(729.785156 0)"/>
     <use xlink:href="#MicrosoftYaHei-Bold-20" transform="translate(773.730469 0)"/>
     <use xlink:href="#MicrosoftYaHei-Bold-57fa" transform="translate(803.515625 0)"/>
     <use xlink:href="#MicrosoftYaHei-Bold-4e8e" transform="translate(903.515625 0)"/>
     <use xlink:href="#MicrosoftYaHei-Bold-5927" transform="translate(1003.515625 0)"/>
     <use xlink:href="#MicrosoftYaHei-Bold-8111" transform="translate(1103.515625 0)"/>
     <use xlink:href="#MicrosoftYaHei-Bold-8282" transform="translate(1203.515625 0)"/>
     <use xlink:href="#MicrosoftYaHei-Bold-5f8b" transform="translate(1303.515625 0)"/>
    </g>
   </g>
  </g>
 </g>
 <defs>
  <clipPath id="pca5167b635">
   <rect x="73.7" y="23.591875" width="475.47" height="178.7725"/>
  </clipPath>
 </defs>
</svg>
