<?xml version="1.0" encoding="utf-8" standalone="no"?>
<!DOCTYPE svg PUBLIC "-//W3C//DTD SVG 1.1//EN"
  "http://www.w3.org/Graphics/SVG/1.1/DTD/svg11.dtd">
<svg xmlns:xlink="http://www.w3.org/1999/xlink" width="454.179224pt" height="239.367188pt" viewBox="0 0 454.179224 239.367188" xmlns="http://www.w3.org/2000/svg" version="1.1">
 <metadata>
  <rdf:RDF xmlns:dc="http://purl.org/dc/elements/1.1/" xmlns:cc="http://creativecommons.org/ns#" xmlns:rdf="http://www.w3.org/1999/02/22-rdf-syntax-ns#">
   <cc:Work>
    <dc:type rdf:resource="http://purl.org/dc/dcmitype/StillImage"/>
    <dc:date>2026-05-25T15:25:20.073446</dc:date>
    <dc:format>image/svg+xml</dc:format>
    <dc:creator>
     <cc:Agent>
      <dc:title>Matplotlib v3.10.9, https://matplotlib.org/</dc:title>
     </cc:Agent>
    </dc:creator>
   </cc:Work>
  </rdf:RDF>
 </metadata>
 <defs>
  <style type="text/css">*{stroke-linejoin: round; stroke-linecap: butt}</style>
 </defs>
 <g id="figure_1">
  <g id="patch_1">
   <path d="M 0 239.367188 
L 454.179224 239.367188 
L 454.179224 0 
L 0 0 
z
" style="fill: #ffffff"/>
  </g>
  <g id="axes_1">
   <g id="patch_2">
    <path d="M 35.716563 198.111875 
L 434.216562 198.111875 
L 434.216562 23.591875 
L 35.716563 23.591875 
z
" style="fill: #ffffff"/>
   </g>
   <g id="patch_3">
    <path d="M 37.644788 198.111875 
L 46.643175 198.111875 
L 46.643175 89.918525 
L 37.644788 89.918525 
z
" clip-path="url(#p7a8958e55d)" style="fill: #d18080"/>
   </g>
   <g id="patch_4">
    <path d="M 50.499627 198.111875 
L 59.498014 198.111875 
L 59.498014 85.562527 
L 50.499627 85.562527 
z
" clip-path="url(#p7a8958e55d)" style="fill: #d18080"/>
   </g>
   <g id="patch_5">
    <path d="M 63.354466 198.111875 
L 72.352853 198.111875 
L 72.352853 84.52724 
L 63.354466 84.52724 
z
" clip-path="url(#p7a8958e55d)" style="fill: #d18080"/>
   </g>
   <g id="patch_6">
    <path d="M 76.209304 198.111875 
L 85.207692 198.111875 
L 85.207692 76.829673 
L 76.209304 76.829673 
z
" clip-path="url(#p7a8958e55d)" style="fill: #d18080"/>
   </g>
   <g id="patch_7">
    <path d="M 89.064143 198.111875 
L 98.06253 198.111875 
L 98.06253 91.319426 
L 89.064143 91.319426 
z
" clip-path="url(#p7a8958e55d)" style="fill: #d18080"/>
   </g>
   <g id="patch_8">
    <path d="M 101.918982 198.111875 
L 110.917369 198.111875 
L 110.917369 86.237207 
L 101.918982 86.237207 
z
" clip-path="url(#p7a8958e55d)" style="fill: #d18080"/>
   </g>
   <g id="patch_9">
    <path d="M 114.773821 198.111875 
L 123.772208 198.111875 
L 123.772208 79.363716 
L 114.773821 79.363716 
z
" clip-path="url(#p7a8958e55d)" style="fill: #d18080"/>
   </g>
   <g id="patch_10">
    <path d="M 127.628659 198.111875 
L 136.627046 198.111875 
L 136.627046 86.629639 
L 127.628659 86.629639 
z
" clip-path="url(#p7a8958e55d)" style="fill: #d18080"/>
   </g>
   <g id="patch_11">
    <path d="M 140.483498 198.111875 
L 149.481885 198.111875 
L 149.481885 85.259681 
L 140.483498 85.259681 
z
" clip-path="url(#p7a8958e55d)" style="fill: #d18080"/>
   </g>
   <g id="patch_12">
    <path d="M 153.338337 198.111875 
L 162.336724 198.111875 
L 162.336724 78.972252 
L 153.338337 78.972252 
z
" clip-path="url(#p7a8958e55d)" style="fill: #d18080"/>
   </g>
   <g id="patch_13">
    <path d="M 166.193175 198.111875 
L 175.191562 198.111875 
L 175.191562 72.567314 
L 166.193175 72.567314 
z
" clip-path="url(#p7a8958e55d)" style="fill: #d18080"/>
   </g>
   <g id="patch_14">
    <path d="M 179.048014 198.111875 
L 188.046401 198.111875 
L 188.046401 77.36867 
L 179.048014 77.36867 
z
" clip-path="url(#p7a8958e55d)" style="fill: #d18080"/>
   </g>
   <g id="patch_15">
    <path d="M 191.902853 198.111875 
L 200.90124 198.111875 
L 200.90124 76.261302 
L 191.902853 76.261302 
z
" clip-path="url(#p7a8958e55d)" style="fill: #d18080"/>
   </g>
   <g id="patch_16">
    <path d="M 204.757692 198.111875 
L 213.756079 198.111875 
L 213.756079 73.104703 
L 204.757692 73.104703 
z
" clip-path="url(#p7a8958e55d)" style="fill: #d18080"/>
   </g>
   <g id="patch_17">
    <path d="M 217.61253 198.111875 
L 226.610917 198.111875 
L 226.610917 91.456659 
L 217.61253 91.456659 
z
" clip-path="url(#p7a8958e55d)" style="fill: #d18080"/>
   </g>
   <g id="patch_18">
    <path d="M 230.467369 198.111875 
L 239.465756 198.111875 
L 239.465756 83.928237 
L 230.467369 83.928237 
z
" clip-path="url(#p7a8958e55d)" style="fill: #d18080"/>
   </g>
   <g id="patch_19">
    <path d="M 243.322208 198.111875 
L 252.320595 198.111875 
L 252.320595 83.565655 
L 243.322208 83.565655 
z
" clip-path="url(#p7a8958e55d)" style="fill: #d18080"/>
   </g>
   <g id="patch_20">
    <path d="M 256.177046 198.111875 
L 265.175433 198.111875 
L 265.175433 83.862556 
L 256.177046 83.862556 
z
" clip-path="url(#p7a8958e55d)" style="fill: #d18080"/>
   </g>
   <g id="patch_21">
    <path d="M 269.031885 198.111875 
L 278.030272 198.111875 
L 278.030272 74.422915 
L 269.031885 74.422915 
z
" clip-path="url(#p7a8958e55d)" style="fill: #d18080"/>
   </g>
   <g id="patch_22">
    <path d="M 281.886724 198.111875 
L 290.885111 198.111875 
L 290.885111 73.704934 
L 281.886724 73.704934 
z
" clip-path="url(#p7a8958e55d)" style="fill: #d18080"/>
   </g>
   <g id="patch_23">
    <path d="M 294.741562 198.111875 
L 303.73995 198.111875 
L 303.73995 69.231319 
L 294.741562 69.231319 
z
" clip-path="url(#p7a8958e55d)" style="fill: #e8a060"/>
   </g>
   <g id="patch_24">
    <path d="M 307.596401 198.111875 
L 316.594788 198.111875 
L 316.594788 63.733577 
L 307.596401 63.733577 
z
" clip-path="url(#p7a8958e55d)" style="fill: #e8a060"/>
   </g>
   <g id="patch_25">
    <path d="M 320.45124 198.111875 
L 329.449627 198.111875 
L 329.449627 58.226043 
L 320.45124 58.226043 
z
" clip-path="url(#p7a8958e55d)" style="fill: #e8a060"/>
   </g>
   <g id="patch_26">
    <path d="M 333.306079 198.111875 
L 342.304466 198.111875 
L 342.304466 67.681665 
L 333.306079 67.681665 
z
" clip-path="url(#p7a8958e55d)" style="fill: #e8a060"/>
   </g>
   <g id="patch_27">
    <path d="M 346.160917 198.111875 
L 355.159304 198.111875 
L 355.159304 55.679139 
L 346.160917 55.679139 
z
" clip-path="url(#p7a8958e55d)" style="fill: #e8a060"/>
   </g>
   <g id="patch_28">
    <path d="M 359.015756 198.111875 
L 368.014143 198.111875 
L 368.014143 104.932551 
L 359.015756 104.932551 
z
" clip-path="url(#p7a8958e55d)" style="fill: #73bfaa"/>
   </g>
   <g id="patch_29">
    <path d="M 371.870595 198.111875 
L 380.868982 198.111875 
L 380.868982 110.472854 
L 371.870595 110.472854 
z
" clip-path="url(#p7a8958e55d)" style="fill: #73bfaa"/>
   </g>
   <g id="patch_30">
    <path d="M 384.725433 198.111875 
L 393.723821 198.111875 
L 393.723821 98.057549 
L 384.725433 98.057549 
z
" clip-path="url(#p7a8958e55d)" style="fill: #73bfaa"/>
   </g>
   <g id="patch_31">
    <path d="M 397.580272 198.111875 
L 406.578659 198.111875 
L 406.578659 106.425573 
L 397.580272 106.425573 
z
" clip-path="url(#p7a8958e55d)" style="fill: #73bfaa"/>
   </g>
   <g id="patch_32">
    <path d="M 410.435111 198.111875 
L 419.433498 198.111875 
L 419.433498 99.378369 
L 410.435111 99.378369 
z
" clip-path="url(#p7a8958e55d)" style="fill: #73bfaa"/>
   </g>
   <g id="matplotlib.axis_1">
    <g id="xtick_1">
     <g id="line2d_1">
      <defs>
       <path id="mb6ee5d3e65" d="M 0 0 
L 0 3.5 
" style="stroke: #000000; stroke-width: 0.8"/>
      </defs>
      <g>
       <use xlink:href="#mb6ee5d3e65" x="93.563337" y="198.111875" style="stroke: #000000; stroke-width: 0.8"/>
      </g>
     </g>
     <g id="text_1">
      <!-- 5 -->
      <g transform="translate(90.044899 214.704375) scale(0.12 -0.12)">
       <defs>
        <path id="MicrosoftYaHei-35" d="M 3294 1494 
Q 3294 784 2823 350 
Q 2353 -84 1559 -84 
Q 878 -84 544 119 
L 544 744 
Q 1034 425 1544 425 
Q 2050 425 2361 704 
Q 2672 984 2672 1447 
Q 2672 1909 2348 2167 
Q 2025 2425 1434 2425 
Q 978 2425 613 2384 
L 791 4841 
L 3053 4841 
L 3053 4303 
L 1306 4303 
L 1206 2931 
L 1647 2950 
Q 2416 2950 2855 2567 
Q 3294 2184 3294 1494 
z
" transform="scale(0.015625)"/>
       </defs>
       <use xlink:href="#MicrosoftYaHei-35"/>
      </g>
     </g>
    </g>
    <g id="xtick_2">
     <g id="line2d_2">
      <g>
       <use xlink:href="#mb6ee5d3e65" x="157.83753" y="198.111875" style="stroke: #000000; stroke-width: 0.8"/>
      </g>
     </g>
     <g id="text_2">
      <!-- 10 -->
      <g transform="translate(150.800655 214.704375) scale(0.12 -0.12)">
       <defs>
        <path id="MicrosoftYaHei-31" d="M 1781 0 
L 1781 4141 
Q 1638 3997 1295 3819 
Q 953 3641 663 3569 
L 663 4169 
Q 1047 4275 1484 4508 
Q 1922 4741 2156 4947 
L 2388 4947 
L 2388 0 
L 1781 0 
z
" transform="scale(0.015625)"/>
        <path id="MicrosoftYaHei-30" d="M 284 2325 
Q 284 3606 709 4264 
Q 1134 4922 1941 4922 
Q 3478 4922 3478 2441 
Q 3478 1216 3045 567 
Q 2613 -81 1831 -81 
Q 1094 -81 689 534 
Q 284 1150 284 2325 
z
M 909 2353 
Q 909 425 1888 425 
Q 2850 425 2850 2384 
Q 2850 4413 1906 4413 
Q 909 4413 909 2353 
z
" transform="scale(0.015625)"/>
       </defs>
       <use xlink:href="#MicrosoftYaHei-31"/>
       <use xlink:href="#MicrosoftYaHei-30" transform="translate(58.642578 0)"/>
      </g>
     </g>
    </g>
    <g id="xtick_3">
     <g id="line2d_3">
      <g>
       <use xlink:href="#mb6ee5d3e65" x="222.111724" y="198.111875" style="stroke: #000000; stroke-width: 0.8"/>
      </g>
     </g>
     <g id="text_3">
      <!-- 15 -->
      <g transform="translate(215.074849 214.704375) scale(0.12 -0.12)">
       <use xlink:href="#MicrosoftYaHei-31"/>
       <use xlink:href="#MicrosoftYaHei-35" transform="translate(58.642578 0)"/>
      </g>
     </g>
    </g>
    <g id="xtick_4">
     <g id="line2d_4">
      <g>
       <use xlink:href="#mb6ee5d3e65" x="286.385917" y="198.111875" style="stroke: #000000; stroke-width: 0.8"/>
      </g>
     </g>
     <g id="text_4">
      <!-- 20 -->
      <g transform="translate(279.349042 214.704375) scale(0.12 -0.12)">
       <defs>
        <path id="MicrosoftYaHei-32" d="M 2666 3572 
Q 2666 3963 2419 4186 
Q 2172 4409 1747 4409 
Q 1447 4409 1140 4256 
Q 834 4103 569 3819 
L 569 4413 
Q 806 4659 1107 4790 
Q 1409 4922 1816 4922 
Q 2472 4922 2872 4570 
Q 3272 4219 3272 3619 
Q 3272 3084 3026 2693 
Q 2781 2303 2188 1894 
Q 1581 1475 1376 1294 
Q 1172 1113 1090 947 
Q 1009 781 1009 544 
L 3416 544 
L 3416 0 
L 372 0 
L 372 241 
Q 372 659 486 951 
Q 600 1244 862 1520 
Q 1125 1797 1681 2184 
Q 2250 2584 2458 2886 
Q 2666 3188 2666 3572 
z
" transform="scale(0.015625)"/>
       </defs>
       <use xlink:href="#MicrosoftYaHei-32"/>
       <use xlink:href="#MicrosoftYaHei-30" transform="translate(58.642578 0)"/>
      </g>
     </g>
    </g>
    <g id="xtick_5">
     <g id="line2d_5">
      <g>
       <use xlink:href="#mb6ee5d3e65" x="350.660111" y="198.111875" style="stroke: #000000; stroke-width: 0.8"/>
      </g>
     </g>
     <g id="text_5">
      <!-- 25 -->
      <g transform="translate(343.623236 214.704375) scale(0.12 -0.12)">
       <use xlink:href="#MicrosoftYaHei-32"/>
       <use xlink:href="#MicrosoftYaHei-35" transform="translate(58.642578 0)"/>
      </g>
     </g>
    </g>
    <g id="xtick_6">
     <g id="line2d_6">
      <g>
       <use xlink:href="#mb6ee5d3e65" x="414.934304" y="198.111875" style="stroke: #000000; stroke-width: 0.8"/>
      </g>
     </g>
     <g id="text_6">
      <!-- 30 -->
      <g transform="translate(407.897429 214.704375) scale(0.12 -0.12)">
       <defs>
        <path id="MicrosoftYaHei-33" d="M 447 809 
Q 944 425 1569 425 
Q 2069 425 2361 670 
Q 2653 916 2653 1328 
Q 2653 2247 1338 2247 
L 934 2247 
L 934 2753 
L 1319 2753 
Q 2484 2753 2484 3616 
Q 2484 4413 1594 4413 
Q 1084 4413 634 4069 
L 634 4647 
Q 1109 4922 1744 4922 
Q 2363 4922 2738 4598 
Q 3113 4275 3113 3759 
Q 3113 2809 2144 2538 
L 2144 2525 
Q 2669 2469 2973 2155 
Q 3278 1841 3278 1372 
Q 3278 719 2808 319 
Q 2338 -81 1556 -81 
Q 869 -81 447 175 
L 447 809 
z
" transform="scale(0.015625)"/>
       </defs>
       <use xlink:href="#MicrosoftYaHei-33"/>
       <use xlink:href="#MicrosoftYaHei-30" transform="translate(58.642578 0)"/>
      </g>
     </g>
    </g>
    <g id="text_7">
     <!-- 距离中考天数 -->
     <g transform="translate(204.966562 229.68125) scale(0.1 -0.1)">
      <defs>
       <path id="MicrosoftYaHei-8ddd" d="M 2988 4953 
L 6225 4953 
L 6225 4503 
L 3463 4503 
L 3463 3328 
L 5913 3328 
L 5913 991 
L 5450 991 
L 5450 1228 
L 3463 1228 
L 3463 -128 
L 6300 -128 
L 6300 -578 
L 2988 -578 
L 2988 4953 
z
M 69 -34 
L 425 22 
L 425 2478 
L 831 2478 
L 831 91 
Q 1134 144 1438 203 
L 1438 3122 
L 938 3122 
L 938 2916 
L 525 2916 
L 525 4984 
L 2444 4984 
L 2444 3122 
L 1856 3122 
L 1856 2022 
L 2588 2022 
L 2588 1628 
L 1856 1628 
L 1856 284 
Q 2241 363 2631 447 
Q 2638 178 2656 -9 
Q 1219 -272 219 -516 
L 69 -34 
z
M 5450 2891 
L 3463 2891 
L 3463 1666 
L 5450 1666 
L 5450 2891 
z
M 2025 3484 
L 2025 4622 
L 938 4622 
L 938 3484 
L 2025 3484 
z
" transform="scale(0.015625)"/>
       <path id="MicrosoftYaHei-79bb" d="M 2381 459 
Q 3106 484 3878 519 
Q 3716 700 3550 878 
L 3863 1122 
Q 4350 634 4781 147 
L 4450 -141 
Q 4331 0 4213 141 
Q 3416 103 2450 41 
Q 2175 22 1863 -28 
L 1688 416 
Q 1950 578 2131 822 
Q 2278 1025 2425 1278 
L 1056 1278 
L 1056 -822 
L 588 -822 
L 588 1691 
L 2650 1691 
Q 2784 1950 2916 2253 
L 825 2253 
L 825 4066 
L 1281 4066 
L 1281 2653 
L 5113 2653 
L 5113 4072 
L 5569 4072 
L 5569 2028 
L 5113 2028 
L 5113 2253 
L 3472 2253 
Q 3322 1963 3169 1691 
L 5800 1691 
L 5800 -122 
Q 5800 -791 5175 -791 
Q 4875 -791 4519 -778 
Q 4494 -559 4431 -297 
Q 4800 -334 5063 -334 
Q 5331 -334 5331 -53 
L 5331 1278 
L 2928 1278 
Q 2659 838 2381 459 
z
M 200 4734 
L 2919 4734 
Q 2788 4969 2669 5153 
L 3150 5372 
Q 3309 5141 3541 4734 
L 6200 4734 
L 6200 4309 
L 200 4309 
L 200 4734 
z
M 1613 3884 
L 1781 4216 
Q 2500 3984 3294 3700 
Q 3934 3956 4500 4247 
L 4688 3928 
Q 4269 3709 3816 3513 
Q 4281 3341 4775 3153 
L 4606 2797 
Q 3938 3072 3325 3303 
Q 2569 3000 1731 2747 
Q 1619 2947 1506 3103 
Q 2169 3288 2772 3503 
Q 2159 3719 1613 3884 
z
" transform="scale(0.015625)"/>
       <path id="MicrosoftYaHei-4e2d" d="M 525 3972 
L 2931 3972 
L 2931 5334 
L 3469 5334 
L 3469 3972 
L 5900 3972 
L 5900 1122 
L 5388 1122 
L 5388 1459 
L 3469 1459 
L 3469 -866 
L 2931 -866 
L 2931 1459 
L 1038 1459 
L 1038 1122 
L 525 1122 
L 525 3972 
z
M 5388 3509 
L 3469 3509 
L 3469 1922 
L 5388 1922 
L 5388 3509 
z
M 1038 1922 
L 2931 1922 
L 2931 3509 
L 1038 3509 
L 1038 1922 
z
" transform="scale(0.015625)"/>
       <path id="MicrosoftYaHei-8003" d="M 225 3334 
L 2413 3334 
L 2413 4128 
L 738 4128 
L 738 4553 
L 2413 4553 
L 2413 5303 
L 2900 5303 
L 2900 4553 
L 4213 4553 
L 4213 4128 
L 2900 4128 
L 2900 3334 
L 3534 3334 
Q 4500 4041 5325 4884 
L 5706 4559 
Q 5000 3900 4278 3334 
L 6200 3334 
L 6200 2903 
L 3709 2903 
Q 3350 2641 2991 2403 
L 5769 2403 
L 5769 1978 
L 2859 1978 
L 2594 1428 
L 5100 1428 
Q 4975 366 4919 128 
Q 4775 -678 3931 -678 
Q 3300 -678 2563 -653 
Q 2519 -384 2431 -109 
Q 3181 -172 3838 -172 
Q 4325 -172 4431 253 
Q 4488 484 4556 1003 
L 2100 1003 
L 2100 1428 
L 2378 1978 
L 2316 1978 
Q 1353 1403 369 984 
Q 231 1222 69 1434 
Q 1606 2053 2906 2903 
L 225 2903 
L 225 3334 
z
" transform="scale(0.015625)"/>
       <path id="MicrosoftYaHei-5929" d="M 88 -353 
Q 2428 644 2813 2422 
L 169 2422 
L 169 2897 
L 2878 2897 
Q 2906 3341 2906 4428 
L 513 4428 
L 513 4903 
L 5913 4903 
L 5913 4428 
L 3456 4428 
Q 3450 3775 3431 2897 
L 6231 2897 
L 6231 2422 
L 3516 2422 
Q 4113 441 6319 -228 
Q 6063 -534 5888 -747 
Q 3850 75 3206 1969 
Q 2713 206 475 -828 
Q 344 -659 88 -353 
z
" transform="scale(0.015625)"/>
       <path id="MicrosoftYaHei-6570" d="M 4175 5303 
L 4675 5228 
Q 4544 4622 4369 4097 
L 6281 4097 
L 6281 3672 
L 5888 3672 
Q 5731 1834 5088 753 
Q 5594 66 6375 -372 
Q 6175 -647 6038 -866 
Q 5275 -372 4769 309 
Q 4194 -403 3400 -928 
Q 3263 -747 3044 -534 
Q 3919 41 4463 772 
Q 3956 1647 3794 2791 
Q 3663 2559 3519 2359 
Q 3394 2541 3206 2759 
Q 3931 3803 4175 5303 
z
M 150 1697 
L 1100 1697 
Q 1238 1934 1369 2184 
L 1819 2041 
Q 1719 1866 1619 1697 
L 3150 1697 
L 3150 1291 
Q 2913 678 2431 216 
Q 2775 53 3131 -109 
L 2856 -541 
Q 2469 -322 2050 -103 
Q 1344 -609 269 -903 
Q 169 -703 56 -466 
Q 969 -259 1600 128 
Q 1063 403 475 691 
Q 675 978 863 1284 
L 150 1284 
L 150 1697 
z
M 219 3847 
L 1656 3847 
L 1656 5247 
L 2119 5247 
L 2119 3847 
L 3319 3847 
L 3319 3434 
L 2119 3434 
L 2119 3053 
L 2306 3266 
Q 2888 2841 3281 2516 
L 2981 2166 
Q 2638 2491 2119 2897 
L 2119 2184 
L 1656 2184 
L 1656 3059 
Q 1088 2466 331 2016 
Q 213 2197 63 2397 
Q 850 2822 1506 3434 
L 219 3434 
L 219 3847 
z
M 5388 3672 
L 4219 3672 
Q 4188 3591 4150 3516 
Q 4263 2191 4775 1247 
Q 5275 2159 5388 3672 
z
M 1088 834 
Q 1531 634 2000 416 
Q 2431 784 2675 1284 
L 1375 1284 
Q 1231 1053 1088 834 
z
M 3038 5091 
L 3425 4834 
Q 3081 4384 2738 4003 
Q 2594 4128 2400 4266 
Q 2725 4647 3038 5091 
z
M 381 4816 
L 738 5059 
Q 1019 4716 1319 4322 
L 931 4047 
Q 656 4453 381 4816 
z
" transform="scale(0.015625)"/>
      </defs>
      <use xlink:href="#MicrosoftYaHei-8ddd"/>
      <use xlink:href="#MicrosoftYaHei-79bb" transform="translate(100 0)"/>
      <use xlink:href="#MicrosoftYaHei-4e2d" transform="translate(200 0)"/>
      <use xlink:href="#MicrosoftYaHei-8003" transform="translate(300 0)"/>
      <use xlink:href="#MicrosoftYaHei-5929" transform="translate(400 0)"/>
      <use xlink:href="#MicrosoftYaHei-6570" transform="translate(500 0)"/>
     </g>
    </g>
   </g>
   <g id="matplotlib.axis_2">
    <g id="ytick_1">
     <g id="line2d_7">
      <defs>
       <path id="md7e6841627" d="M 0 0 
L -3.5 0 
" style="stroke: #000000; stroke-width: 0.8"/>
      </defs>
      <g>
       <use xlink:href="#md7e6841627" x="35.716563" y="198.111875" style="stroke: #000000; stroke-width: 0.8"/>
      </g>
     </g>
     <g id="text_8">
      <!-- 0 -->
      <g transform="translate(21.679688 202.908125) scale(0.12 -0.12)">
       <use xlink:href="#MicrosoftYaHei-30"/>
      </g>
     </g>
    </g>
    <g id="ytick_2">
     <g id="line2d_8">
      <g>
       <use xlink:href="#md7e6841627" x="35.716563" y="159.329653" style="stroke: #000000; stroke-width: 0.8"/>
      </g>
     </g>
     <g id="text_9">
      <!-- 2 -->
      <g transform="translate(21.679688 164.125903) scale(0.12 -0.12)">
       <use xlink:href="#MicrosoftYaHei-32"/>
      </g>
     </g>
    </g>
    <g id="ytick_3">
     <g id="line2d_9">
      <g>
       <use xlink:href="#md7e6841627" x="35.716563" y="120.547431" style="stroke: #000000; stroke-width: 0.8"/>
      </g>
     </g>
     <g id="text_10">
      <!-- 4 -->
      <g transform="translate(21.679688 125.343681) scale(0.12 -0.12)">
       <defs>
        <path id="MicrosoftYaHei-34" d="M 2906 4841 
L 2906 1644 
L 3631 1644 
L 3631 1138 
L 2906 1138 
L 2906 0 
L 2313 0 
L 2313 1138 
L 53 1138 
L 53 1616 
Q 656 2294 1265 3178 
Q 1875 4063 2272 4841 
L 2906 4841 
z
M 741 1644 
L 2313 1644 
L 2313 3950 
Q 1988 3366 1616 2817 
Q 1244 2269 741 1644 
z
" transform="scale(0.015625)"/>
       </defs>
       <use xlink:href="#MicrosoftYaHei-34"/>
      </g>
     </g>
    </g>
    <g id="ytick_4">
     <g id="line2d_10">
      <g>
       <use xlink:href="#md7e6841627" x="35.716563" y="81.765208" style="stroke: #000000; stroke-width: 0.8"/>
      </g>
     </g>
     <g id="text_11">
      <!-- 6 -->
      <g transform="translate(21.679688 86.561458) scale(0.12 -0.12)">
       <defs>
        <path id="MicrosoftYaHei-36" d="M 3181 4219 
Q 2803 4413 2391 4413 
Q 1763 4413 1381 3866 
Q 1000 3319 994 2372 
L 1009 2372 
Q 1353 3038 2106 3038 
Q 2734 3038 3109 2628 
Q 3484 2219 3484 1541 
Q 3484 831 3051 375 
Q 2619 -81 1947 -81 
Q 1209 -81 789 495 
Q 369 1072 369 2131 
Q 369 3413 920 4167 
Q 1472 4922 2372 4922 
Q 2888 4922 3181 4781 
L 3181 4219 
z
M 1031 1584 
Q 1031 1106 1286 765 
Q 1541 425 1963 425 
Q 2363 425 2613 719 
Q 2863 1013 2863 1475 
Q 2863 1975 2627 2253 
Q 2391 2531 1956 2531 
Q 1544 2531 1287 2250 
Q 1031 1969 1031 1584 
z
" transform="scale(0.015625)"/>
       </defs>
       <use xlink:href="#MicrosoftYaHei-36"/>
      </g>
     </g>
    </g>
    <g id="ytick_5">
     <g id="line2d_11">
      <g>
       <use xlink:href="#md7e6841627" x="35.716563" y="42.982986" style="stroke: #000000; stroke-width: 0.8"/>
      </g>
     </g>
     <g id="text_12">
      <!-- 8 -->
      <g transform="translate(21.679688 47.779236) scale(0.12 -0.12)">
       <defs>
        <path id="MicrosoftYaHei-38" d="M 306 1350 
Q 306 1769 556 2122 
Q 806 2475 1200 2625 
Q 884 2803 700 3081 
Q 516 3359 516 3684 
Q 516 4028 692 4312 
Q 869 4597 1183 4759 
Q 1497 4922 1875 4922 
Q 2256 4922 2572 4761 
Q 2888 4600 3063 4315 
Q 3238 4031 3238 3684 
Q 3238 3366 3058 3086 
Q 2878 2806 2559 2625 
Q 2953 2472 3200 2119 
Q 3447 1766 3447 1350 
Q 3447 938 3250 611 
Q 3053 284 2690 103 
Q 2328 -78 1875 -78 
Q 1425 -78 1065 103 
Q 706 284 506 612 
Q 306 941 306 1350 
z
M 906 1378 
Q 906 947 1172 687 
Q 1438 428 1878 428 
Q 2309 428 2582 692 
Q 2856 956 2856 1378 
Q 2856 1778 2579 2051 
Q 2303 2325 1878 2325 
Q 1456 2325 1181 2058 
Q 906 1791 906 1378 
z
M 1081 3634 
Q 1081 3309 1312 3076 
Q 1544 2844 1878 2844 
Q 2206 2844 2445 3078 
Q 2684 3313 2684 3634 
Q 2684 3963 2454 4191 
Q 2225 4419 1878 4419 
Q 1534 4419 1307 4195 
Q 1081 3972 1081 3634 
z
" transform="scale(0.015625)"/>
       </defs>
       <use xlink:href="#MicrosoftYaHei-38"/>
      </g>
     </g>
    </g>
    <g id="text_13">
     <!-- 每日学习时长 (h) -->
     <g transform="translate(15.19375 148.751094) rotate(-90) scale(0.1 -0.1)">
      <defs>
       <path id="MicrosoftYaHei-6bcf" d="M 125 2203 
L 1044 2203 
L 1325 3766 
L 5456 3766 
Q 5422 2928 5391 2203 
L 6300 2203 
L 6300 1753 
L 5372 1753 
Q 5344 1141 5319 616 
L 6075 616 
L 6075 178 
L 5284 178 
Q 5222 -278 5031 -484 
Q 4788 -753 4181 -753 
Q 3831 -753 3288 -728 
Q 3256 -516 3194 -222 
Q 3838 -278 4119 -278 
Q 4513 -278 4638 -128 
Q 4722 -41 4766 178 
L 763 178 
L 763 647 
L 963 1753 
L 125 1753 
L 125 2203 
z
M 4866 1753 
L 1472 1753 
L 1275 616 
L 4813 616 
Q 4844 1172 4866 1753 
z
M 4925 3328 
L 1750 3328 
L 1553 2203 
L 4888 2203 
Q 4906 2753 4925 3328 
z
M 100 3522 
Q 1025 4309 1550 5359 
L 2113 5359 
Q 1966 5069 1803 4803 
L 6156 4803 
L 6156 4353 
L 1509 4353 
Q 1022 3659 413 3134 
Q 281 3316 100 3522 
z
M 2619 2978 
L 2913 3303 
Q 3388 2934 3750 2622 
L 3413 2247 
Q 3025 2628 2619 2978 
z
M 2569 1391 
L 2863 1716 
Q 3338 1347 3700 1034 
L 3369 666 
Q 2888 1116 2569 1391 
z
" transform="scale(0.015625)"/>
       <path id="MicrosoftYaHei-65e5" d="M 975 4909 
L 5431 4909 
L 5431 -766 
L 4900 -766 
L 4900 -322 
L 1506 -322 
L 1506 -766 
L 975 -766 
L 975 4909 
z
M 1506 2103 
L 1506 134 
L 4900 134 
L 4900 2103 
L 1506 2103 
z
M 1506 4441 
L 1506 2572 
L 4900 2572 
L 4900 4441 
L 1506 4441 
z
" transform="scale(0.015625)"/>
       <path id="MicrosoftYaHei-5b66" d="M 144 1359 
L 3069 1359 
L 3069 1709 
L 4263 2384 
L 1325 2384 
L 1325 2841 
L 4994 2841 
L 4994 2316 
L 3575 1497 
L 3575 1359 
L 6263 1359 
L 6263 903 
L 3575 903 
L 3575 -41 
Q 3575 -778 2831 -778 
Q 2419 -778 1863 -766 
Q 1844 -553 1788 -234 
Q 2288 -284 2744 -291 
Q 3069 -297 3069 53 
L 3069 903 
L 144 903 
L 144 1359 
z
M 356 3909 
L 6056 3909 
L 6056 2647 
L 5563 2647 
L 5563 3453 
L 850 3453 
L 850 2647 
L 356 2647 
L 356 3909 
z
M 4313 4272 
Q 4731 4722 5100 5241 
L 5550 4909 
Q 5144 4447 4681 3941 
L 4313 4272 
z
M 2538 5116 
L 2944 5353 
Q 3325 4853 3650 4334 
L 3200 4078 
Q 2925 4566 2538 5116 
z
M 850 4928 
L 1219 5197 
Q 1600 4778 1969 4291 
L 1544 3991 
Q 1194 4522 850 4928 
z
" transform="scale(0.015625)"/>
       <path id="MicrosoftYaHei-4e60" d="M 500 4803 
L 5725 4803 
Q 5663 1853 5606 784 
Q 5550 -616 4181 -616 
Q 3644 -616 3013 -591 
Q 2988 -347 2913 -9 
Q 3713 -66 4113 -66 
Q 4631 -72 4850 153 
Q 5056 378 5081 916 
Q 5144 2416 5169 4291 
L 500 4291 
L 500 4803 
z
M 363 834 
Q 2856 1591 4688 2253 
Q 4669 1834 4688 1709 
Q 2513 978 556 297 
L 363 834 
z
M 1131 3372 
L 1400 3778 
Q 2713 3203 3563 2766 
L 3275 2291 
Q 2069 2947 1131 3372 
z
" transform="scale(0.015625)"/>
       <path id="MicrosoftYaHei-65f6" d="M 344 4728 
L 2500 4728 
L 2500 -366 
L 2006 -366 
L 2006 153 
L 838 153 
L 838 -441 
L 344 -441 
L 344 4728 
z
M 2706 3941 
L 4925 3941 
L 4925 5322 
L 5425 5322 
L 5425 3941 
L 6313 3941 
L 6313 3478 
L 5425 3478 
L 5425 116 
Q 5425 -722 4625 -722 
Q 4263 -722 3563 -703 
Q 3531 -478 3463 -178 
Q 4119 -228 4488 -228 
Q 4925 -228 4925 216 
L 4925 3478 
L 2706 3478 
L 2706 3941 
z
M 838 616 
L 2006 616 
L 2006 2234 
L 838 2234 
L 838 616 
z
M 2006 4266 
L 838 4266 
L 838 2684 
L 2006 2684 
L 2006 4266 
z
M 3406 2878 
Q 3906 1966 4163 1422 
Q 4000 1347 3663 1172 
Q 3419 1766 2963 2653 
L 3406 2878 
z
" transform="scale(0.015625)"/>
       <path id="MicrosoftYaHei-957f" d="M 169 2766 
L 1269 2766 
L 1269 5316 
L 1781 5316 
L 1781 2766 
L 6194 2766 
L 6194 2278 
L 3456 2278 
Q 4238 566 6325 -78 
Q 6113 -359 5944 -591 
Q 3697 266 2925 2278 
L 1781 2278 
L 1781 16 
Q 2494 303 3294 678 
Q 3294 384 3319 116 
Q 2575 -191 1894 -528 
Q 1644 -666 1431 -834 
L 1056 -353 
Q 1269 -184 1269 103 
L 1269 2278 
L 169 2278 
L 169 2766 
z
M 2156 3528 
Q 3706 4047 5138 5109 
L 5463 4703 
Q 4000 3634 2400 3066 
Q 2300 3278 2156 3528 
z
" transform="scale(0.015625)"/>
       <path id="MicrosoftYaHei-20" transform="scale(0.015625)"/>
       <path id="MicrosoftYaHei-28" d="M 1531 -1100 
Q 478 100 478 1847 
Q 478 3594 1531 4841 
L 2072 4841 
Q 1016 3544 1016 1853 
Q 1016 166 2066 -1100 
L 1531 -1100 
z
" transform="scale(0.015625)"/>
       <path id="MicrosoftYaHei-68" d="M 3466 0 
L 2856 0 
L 2856 1988 
Q 2856 3031 2081 3031 
Q 1684 3031 1421 2726 
Q 1159 2422 1159 1959 
L 1159 0 
L 547 0 
L 547 5116 
L 1159 5116 
L 1159 2888 
L 1172 2888 
Q 1569 3538 2300 3538 
Q 3466 3538 3466 2128 
L 3466 0 
z
" transform="scale(0.015625)"/>
       <path id="MicrosoftYaHei-29" d="M 78 -1100 
Q 1131 163 1131 1853 
Q 1131 3547 72 4841 
L 616 4841 
Q 1672 3603 1672 1847 
Q 1672 91 616 -1100 
L 78 -1100 
z
" transform="scale(0.015625)"/>
      </defs>
      <use xlink:href="#MicrosoftYaHei-6bcf"/>
      <use xlink:href="#MicrosoftYaHei-65e5" transform="translate(100 0)"/>
      <use xlink:href="#MicrosoftYaHei-5b66" transform="translate(200 0)"/>
      <use xlink:href="#MicrosoftYaHei-4e60" transform="translate(300 0)"/>
      <use xlink:href="#MicrosoftYaHei-65f6" transform="translate(400 0)"/>
      <use xlink:href="#MicrosoftYaHei-957f" transform="translate(500 0)"/>
      <use xlink:href="#MicrosoftYaHei-20" transform="translate(600 0)"/>
      <use xlink:href="#MicrosoftYaHei-28" transform="translate(629.589844 0)"/>
      <use xlink:href="#MicrosoftYaHei-68" transform="translate(662.988281 0)"/>
      <use xlink:href="#MicrosoftYaHei-29" transform="translate(724.560547 0)"/>
     </g>
    </g>
   </g>
   <g id="line2d_12">
    <path d="M 35.716563 81.765208 
L 434.216562 81.765208 
" clip-path="url(#p7a8958e55d)" style="fill: none; stroke-dasharray: 3.7,1.6; stroke-dashoffset: 0; stroke: #95a5a6; stroke-opacity: 0.5"/>
   </g>
   <g id="patch_33">
    <path d="M 35.716563 198.111875 
L 35.716563 23.591875 
" style="fill: none; stroke: #000000; stroke-width: 0.8; stroke-linejoin: miter; stroke-linecap: square"/>
   </g>
   <g id="patch_34">
    <path d="M 35.716563 198.111875 
L 434.216562 198.111875 
" style="fill: none; stroke: #000000; stroke-width: 0.8; stroke-linejoin: miter; stroke-linecap: square"/>
   </g>
   <g id="text_14">
    <!-- 日均6h -->
    <g style="fill: #999999" transform="translate(421.361724 83.968333) scale(0.08 -0.08)">
     <defs>
      <path id="MicrosoftYaHei-5747" d="M 2244 2803 
Q 2931 3953 3338 5322 
L 3838 5172 
Q 3691 4744 3531 4347 
L 6013 4347 
Q 5925 1053 5875 297 
Q 5831 -697 4806 -697 
Q 4188 -697 3706 -672 
Q 3669 -422 3606 -141 
L 3625 -141 
Q 4250 -209 4775 -209 
Q 5350 -209 5394 378 
Q 5456 1447 5513 3891 
L 3341 3891 
Q 3028 3172 2675 2572 
Q 2481 2691 2244 2803 
z
M 81 428 
Q 559 600 1006 769 
L 1006 3253 
L 169 3253 
L 169 3697 
L 1006 3697 
L 1006 5259 
L 1469 5259 
L 1469 3697 
L 2281 3697 
L 2281 3253 
L 1469 3253 
L 1469 947 
Q 1922 1125 2338 1303 
Q 2350 991 2369 784 
Q 1363 403 250 -53 
L 81 428 
z
M 2513 853 
Q 3769 1353 5119 1934 
Q 5150 1641 5188 1434 
Q 4031 947 2706 359 
L 2513 853 
z
M 3138 2909 
L 3481 3216 
Q 4025 2716 4531 2216 
L 4125 1859 
Q 3644 2409 3138 2909 
z
" transform="scale(0.015625)"/>
     </defs>
     <use xlink:href="#MicrosoftYaHei-65e5"/>
     <use xlink:href="#MicrosoftYaHei-5747" transform="translate(100 0)"/>
     <use xlink:href="#MicrosoftYaHei-36" transform="translate(200 0)"/>
     <use xlink:href="#MicrosoftYaHei-68" transform="translate(258.642578 0)"/>
    </g>
   </g>
   <g id="text_15">
    <!-- 强化冲刺期 -->
    <g style="fill: #d18080" transform="translate(141.76495 39.104764) scale(0.09 -0.09)">
     <defs>
      <path id="MicrosoftYaHei-Bold-5f3a" d="M 163 1403 
L 325 3622 
L 1375 3622 
L 1375 4353 
L 194 4353 
L 194 5097 
L 2150 5097 
L 2150 2878 
L 1050 2878 
L 994 2147 
L 2081 2147 
Q 2056 622 2017 169 
Q 1978 -284 1847 -478 
Q 1716 -672 1497 -736 
Q 1278 -800 381 -784 
Q 331 -478 200 53 
Q 672 34 866 34 
Q 1113 34 1181 201 
Q 1250 369 1275 1403 
L 163 1403 
z
M 5716 816 
Q 6025 191 6344 -572 
L 5625 -859 
L 5463 -459 
Q 4025 -631 2325 -791 
L 2175 9 
L 3813 128 
L 3813 816 
L 2406 816 
L 2406 2797 
L 3813 2797 
L 3813 3228 
L 2613 3228 
L 2613 5091 
L 5813 5091 
L 5813 3228 
L 4613 3228 
L 4613 2797 
L 6031 2797 
L 6031 816 
L 5716 816 
z
M 5025 4403 
L 3400 4403 
L 3400 3916 
L 5025 3916 
L 5025 4403 
z
M 5256 1503 
L 5256 2109 
L 4613 2109 
L 4613 1503 
L 5256 1503 
z
M 3181 1503 
L 3813 1503 
L 3813 2109 
L 3181 2109 
L 3181 1503 
z
M 5709 816 
L 4613 816 
L 4613 200 
L 5150 253 
L 5013 553 
L 5709 816 
z
" transform="scale(0.015625)"/>
      <path id="MicrosoftYaHei-Bold-5316" d="M 1625 5297 
L 2494 5009 
Q 2200 4284 1856 3641 
L 1856 -797 
L 956 -797 
L 956 2191 
Q 653 1775 325 1403 
Q 219 1991 88 2497 
Q 1063 3728 1625 5297 
z
M 5456 4447 
L 6238 3847 
Q 5306 2809 4106 1900 
L 4106 622 
Q 4106 153 4513 153 
L 4781 153 
Q 5091 153 5189 359 
Q 5288 566 5350 1597 
Q 5863 1434 6300 1322 
Q 6188 419 6105 37 
Q 6022 -344 5705 -542 
Q 5388 -741 4831 -741 
L 4294 -741 
Q 3169 -741 3169 378 
L 3169 1234 
Q 2806 994 2425 766 
Q 2225 1097 1875 1584 
Q 2553 1947 3169 2378 
L 3169 5272 
L 4106 5272 
L 4106 3100 
Q 4834 3719 5456 4447 
z
" transform="scale(0.015625)"/>
      <path id="MicrosoftYaHei-Bold-51b2" d="M 3563 -809 
L 3563 1234 
L 2769 1234 
L 2769 853 
L 1913 853 
L 1913 4222 
L 3563 4222 
L 3563 5291 
L 4425 5291 
L 4425 4222 
L 6075 4222 
L 6075 866 
L 5219 866 
L 5219 1234 
L 4425 1234 
L 4425 -809 
L 3563 -809 
z
M 5219 3447 
L 4425 3447 
L 4425 2009 
L 5219 2009 
L 5219 3447 
z
M 2769 2009 
L 3563 2009 
L 3563 3447 
L 2769 3447 
L 2769 2009 
z
M 663 5003 
Q 1113 4559 1769 3791 
L 1100 3172 
Q 600 3834 50 4441 
L 663 5003 
z
M 1031 2484 
Q 1431 2241 1825 2041 
Q 1525 1253 775 -584 
Q 444 -309 19 -47 
Q 481 947 1031 2484 
z
" transform="scale(0.015625)"/>
      <path id="MicrosoftYaHei-Bold-523a" d="M 375 3584 
L 1588 3584 
L 1588 4034 
L 200 4034 
L 200 4772 
L 1588 4772 
L 1588 5328 
L 2350 5328 
L 2350 4772 
L 3788 4772 
L 3788 4034 
L 2350 4034 
L 2350 3584 
L 3688 3584 
L 3688 2166 
Q 3688 1903 3581 1742 
Q 3475 1581 3289 1529 
Q 3103 1478 2569 1478 
Q 2513 1891 2431 2259 
Q 2603 2241 2694 2241 
Q 2938 2241 2938 2441 
L 2938 2884 
L 2350 2884 
L 2350 972 
L 2625 1341 
Q 3206 1028 3888 616 
L 3425 -47 
Q 2844 353 2350 675 
L 2350 -822 
L 1588 -822 
L 1588 938 
Q 1141 138 419 -522 
Q 269 -84 75 359 
Q 1088 1106 1588 2194 
L 1588 2884 
L 1131 2884 
L 1131 1484 
L 375 1484 
L 375 3584 
z
M 5213 5322 
L 6025 5322 
L 6025 103 
Q 6025 -275 5856 -492 
Q 5688 -709 5406 -759 
Q 5125 -809 4281 -809 
Q 4200 -322 4119 72 
Q 4538 41 4863 41 
Q 5213 41 5213 397 
L 5213 5322 
z
M 4056 4834 
L 4819 4834 
L 4819 653 
L 4056 653 
L 4056 4834 
z
" transform="scale(0.015625)"/>
      <path id="MicrosoftYaHei-Bold-671f" d="M 3444 3997 
L 3088 3997 
L 3088 1334 
L 3444 1334 
L 3444 597 
L 2500 597 
Q 2850 253 3191 -131 
Q 3638 484 3638 2191 
L 3638 5059 
L 5994 5059 
L 5994 -72 
Q 5994 -391 5845 -561 
Q 5697 -731 5423 -757 
Q 5150 -784 4581 -784 
Q 4525 -466 4394 47 
Q 4738 22 4938 22 
Q 5219 22 5219 309 
L 5219 1109 
L 4375 1109 
Q 4313 -47 3775 -878 
Q 3516 -678 3172 -459 
L 2719 -803 
Q 2319 -291 1900 172 
L 2469 597 
L 1094 597 
L 1656 172 
Q 1194 -403 719 -872 
Q 406 -572 131 -341 
Q 597 84 969 597 
L 106 597 
L 106 1334 
L 588 1334 
L 588 3997 
L 188 3997 
L 188 4734 
L 588 4734 
L 588 5253 
L 1350 5253 
L 1350 4734 
L 2306 4734 
L 2306 5253 
L 3088 5253 
L 3088 4734 
L 3444 4734 
L 3444 3997 
z
M 5219 4259 
L 4413 4259 
L 4413 3403 
L 5219 3403 
L 5219 4259 
z
M 1350 3572 
L 2306 3572 
L 2306 3997 
L 1350 3997 
L 1350 3572 
z
M 1350 2472 
L 2306 2472 
L 2306 2897 
L 1350 2897 
L 1350 2472 
z
M 4409 1853 
L 5219 1853 
L 5219 2659 
L 4413 2659 
L 4409 1853 
z
M 1350 1334 
L 2306 1334 
L 2306 1797 
L 1350 1797 
L 1350 1334 
z
" transform="scale(0.015625)"/>
     </defs>
     <use xlink:href="#MicrosoftYaHei-Bold-5f3a"/>
     <use xlink:href="#MicrosoftYaHei-Bold-5316" transform="translate(100 0)"/>
     <use xlink:href="#MicrosoftYaHei-Bold-51b2" transform="translate(200 0)"/>
     <use xlink:href="#MicrosoftYaHei-Bold-523a" transform="translate(300 0)"/>
     <use xlink:href="#MicrosoftYaHei-Bold-671f" transform="translate(400 0)"/>
    </g>
   </g>
   <g id="text_16">
    <!-- 调整期 -->
    <g style="fill: #e8a060" transform="translate(305.023014 39.104764) scale(0.09 -0.09)">
     <defs>
      <path id="MicrosoftYaHei-Bold-8c03" d="M 5225 4341 
L 2644 4341 
L 2644 2078 
Q 2644 184 2088 -884 
Q 1706 -622 1225 -366 
Q 1856 484 1856 1997 
L 1856 5078 
L 6013 5078 
L 6013 84 
Q 6013 -753 5281 -791 
Q 4988 -816 4400 -816 
Q 4313 -384 4213 16 
Q 4631 -16 4900 -9 
Q 5225 -9 5225 303 
L 5225 4341 
z
M 2894 -41 
L 2894 1978 
L 4931 1978 
L 4931 266 
L 3581 266 
L 3581 -41 
L 2894 -41 
z
M 1663 1853 
Q 1656 1372 1738 891 
Q 1369 553 769 -147 
L 325 459 
Q 481 641 488 991 
L 488 2641 
L 100 2641 
L 100 3453 
L 1281 3453 
L 1281 1441 
Q 1406 1578 1663 1853 
z
M 2775 2891 
L 3550 2891 
L 3550 3253 
L 2881 3253 
L 2881 3841 
L 3550 3841 
L 3550 4228 
L 4313 4228 
L 4313 3841 
L 4994 3841 
L 4994 3253 
L 4313 3253 
L 4313 2891 
L 5094 2891 
L 5094 2303 
L 2775 2303 
L 2775 2891 
z
M 938 5247 
Q 1375 4684 1694 4172 
Q 1394 3991 963 3734 
Q 644 4334 263 4853 
L 938 5247 
z
M 4244 1391 
L 3581 1391 
L 3581 853 
L 4244 853 
L 4244 1391 
z
" transform="scale(0.015625)"/>
      <path id="MicrosoftYaHei-Bold-6574" d="M 150 -66 
L 1106 -66 
L 1106 903 
L 1944 903 
L 1944 -66 
L 2844 -66 
L 2844 1091 
L 513 1091 
L 513 1572 
L 444 1534 
Q 269 1809 44 2128 
Q 669 2366 1156 2791 
L 356 2791 
L 356 4141 
L 1488 4141 
L 1488 4397 
L 213 4397 
L 213 4966 
L 1488 4966 
L 1488 5309 
L 2194 5309 
L 2194 4966 
L 3425 4966 
L 3425 4397 
L 2194 4397 
L 2194 4141 
L 3325 4141 
L 3325 3803 
Q 3781 4509 4006 5347 
L 4744 5209 
Q 4663 4972 4581 4759 
L 6263 4759 
L 6263 4103 
L 5956 4103 
Q 5744 3297 5356 2784 
Q 5788 2516 6369 2416 
Q 6188 2153 5963 1716 
Q 5294 1922 4825 2259 
Q 4413 1947 3744 1666 
Q 3625 1828 3338 2216 
L 3044 1722 
Q 2600 2009 2194 2191 
L 2194 1784 
L 1488 1784 
L 1488 2378 
Q 1094 1947 638 1653 
L 5900 1653 
L 5900 1091 
L 3681 1091 
L 3681 778 
L 5531 778 
L 5531 247 
L 3681 247 
L 3681 -66 
L 6263 -66 
L 6263 -678 
L 150 -678 
L 150 -66 
z
M 2194 2791 
L 2194 2403 
L 2413 2753 
Q 2888 2547 3344 2309 
Q 3913 2484 4306 2747 
Q 4075 3022 3900 3384 
Q 3813 3259 3731 3153 
Q 3600 3253 3325 3441 
L 3325 2791 
L 2194 2791 
z
M 5225 4103 
L 4319 4103 
Q 4506 3597 4819 3234 
Q 5075 3597 5225 4103 
z
M 1019 3278 
L 1488 3278 
L 1488 3653 
L 1019 3653 
L 1019 3278 
z
M 2663 3278 
L 2663 3653 
L 2194 3653 
L 2194 3278 
L 2663 3278 
z
" transform="scale(0.015625)"/>
     </defs>
     <use xlink:href="#MicrosoftYaHei-Bold-8c03"/>
     <use xlink:href="#MicrosoftYaHei-Bold-6574" transform="translate(100 0)"/>
     <use xlink:href="#MicrosoftYaHei-Bold-671f" transform="translate(200 0)"/>
    </g>
   </g>
   <g id="text_17">
    <!-- 放松期 -->
    <g style="fill: #73bfaa" transform="translate(375.724627 39.104764) scale(0.09 -0.09)">
     <defs>
      <path id="MicrosoftYaHei-Bold-653e" d="M 3850 5353 
L 4706 5128 
Q 4600 4725 4481 4366 
L 6294 4366 
L 6294 3534 
L 5934 3534 
Q 5784 1897 5125 797 
Q 5616 303 6325 22 
Q 6056 -341 5775 -816 
Q 5097 -425 4616 109 
Q 4066 -488 3306 -859 
Q 3069 -403 2825 -41 
Q 3538 294 4088 825 
Q 3681 1516 3516 2384 
Q 3416 2247 3313 2128 
Q 3138 2378 2913 2647 
L 2847 941 
Q 2816 131 2762 -95 
Q 2709 -322 2562 -476 
Q 2416 -631 2137 -670 
Q 1859 -709 1306 -709 
Q 1213 -200 1113 144 
Q 900 -416 563 -853 
Q 406 -547 75 47 
Q 372 491 522 1056 
Q 672 1622 678 2234 
L 691 3509 
L 156 3509 
L 156 4328 
L 1356 4328 
Q 1163 4750 1000 5053 
L 1800 5359 
Q 2000 5022 2269 4466 
L 1925 4328 
L 3113 4328 
L 3113 3509 
L 1500 3509 
L 1488 2841 
L 2856 2841 
Q 3531 3778 3850 5353 
z
M 4600 1500 
Q 5000 2256 5141 3534 
L 4166 3534 
Q 4122 3434 4078 3341 
Q 4175 2263 4600 1500 
z
M 1116 147 
Q 1441 122 1669 122 
Q 2019 122 2019 563 
L 2081 2084 
L 1469 2084 
Q 1431 981 1116 147 
z
" transform="scale(0.015625)"/>
      <path id="MicrosoftYaHei-Bold-677e" d="M 81 1584 
Q 656 2503 894 3359 
L 138 3359 
L 138 4191 
L 888 4191 
L 888 5309 
L 1706 5309 
L 1706 4191 
L 2463 4191 
L 2463 3359 
L 1706 3359 
L 1706 2753 
Q 2044 2559 2538 2259 
L 2131 1553 
Q 1906 1716 1706 1853 
L 1706 -822 
L 888 -822 
L 888 1453 
Q 669 947 369 478 
Q 219 1084 81 1584 
z
M 5206 1747 
Q 5831 434 6225 -547 
L 5481 -891 
Q 5381 -641 5294 -409 
Q 3344 -516 2744 -616 
L 2381 184 
Q 3031 722 3788 2991 
L 4675 2678 
Q 4163 1441 3525 247 
Q 4163 284 4981 334 
Q 4713 972 4475 1428 
L 5206 1747 
z
M 5081 5316 
Q 5556 3891 6375 2928 
Q 6138 2566 5850 2066 
Q 4825 3141 4344 5103 
L 5081 5316 
z
M 3319 5297 
L 4138 5066 
Q 3713 3297 2688 2009 
Q 2544 2416 2213 2878 
Q 2981 3784 3319 5297 
z
" transform="scale(0.015625)"/>
     </defs>
     <use xlink:href="#MicrosoftYaHei-Bold-653e"/>
     <use xlink:href="#MicrosoftYaHei-Bold-677e" transform="translate(100 0)"/>
     <use xlink:href="#MicrosoftYaHei-Bold-671f" transform="translate(200 0)"/>
    </g>
   </g>
   <g id="patch_35">
    <path d="M 44.145293 44.922097 
Q 164.265756 44.922097 284.38622 44.922097 
" style="fill: none; stroke: #d18080; stroke-width: 2; stroke-linecap: round"/>
   </g>
   <g id="patch_36">
    <path d="M 301.239909 44.922097 
Q 324.950084 44.922097 348.660258 44.922097 
" style="fill: none; stroke: #e8a060; stroke-width: 2; stroke-linecap: round"/>
   </g>
   <g id="patch_37">
    <path d="M 365.514103 44.922097 
Q 389.224277 44.922097 412.934451 44.922097 
" style="fill: none; stroke: #73bfaa; stroke-width: 2; stroke-linecap: round"/>
   </g>
   <g id="text_18">
    <!-- 考前30天 · 学习强度建议 -->
    <g style="fill: #1a1a2e" transform="translate(161.720703 17.591875) scale(0.13 -0.13)">
     <defs>
      <path id="MicrosoftYaHei-Bold-8003" d="M 144 3584 
L 2294 3584 
L 2294 4084 
L 650 4084 
L 650 4797 
L 2294 4797 
L 2294 5353 
L 3144 5353 
L 3144 4797 
L 4644 4797 
L 4644 4188 
Q 5056 4569 5469 5028 
L 6094 4553 
Q 5616 4028 5088 3584 
L 6319 3584 
L 6319 2872 
L 4131 2872 
Q 3847 2684 3550 2516 
L 5794 2516 
L 5794 1816 
L 3081 1816 
L 3006 1428 
L 5375 1428 
Q 5297 719 5222 231 
Q 5147 -256 4805 -504 
Q 4463 -753 3850 -753 
Q 3269 -753 2575 -741 
Q 2494 -253 2388 103 
Q 2984 47 3763 47 
Q 4019 47 4164 137 
Q 4309 228 4343 389 
Q 4378 550 4406 728 
L 1925 728 
L 2209 1816 
L 2075 1816 
Q 1266 1488 350 1222 
Q 263 1553 94 1997 
Q 1709 2350 2772 2872 
L 144 2872 
L 144 3584 
z
M 4528 4084 
L 3144 4084 
L 3144 3584 
L 3919 3584 
Q 4222 3813 4528 4084 
z
" transform="scale(0.015625)"/>
      <path id="MicrosoftYaHei-Bold-524d" d="M 4256 5359 
L 5275 5103 
Q 5094 4878 4897 4653 
L 6294 4653 
L 6294 3916 
L 100 3916 
L 100 4653 
L 1428 4653 
Q 1288 4881 1138 5103 
L 2075 5359 
Q 2316 4997 2528 4653 
L 3797 4653 
Q 4038 5003 4256 5359 
z
M 5106 3647 
L 5950 3647 
L 5950 191 
Q 5950 -231 5765 -465 
Q 5581 -700 5250 -745 
Q 4919 -791 4063 -791 
Q 4006 -428 3881 91 
Q 4450 66 4744 66 
Q 5106 66 5106 459 
L 5106 3647 
z
M 1306 -784 
L 456 -784 
L 456 3572 
L 3425 3572 
L 3425 103 
Q 3425 -303 3237 -518 
Q 3050 -734 2706 -761 
Q 2363 -788 1881 -791 
Q 1781 -253 1706 41 
Q 2181 16 2269 16 
Q 2575 16 2575 359 
L 2575 559 
L 1306 559 
L 1306 -784 
z
M 2575 2809 
L 1306 2809 
L 1306 2359 
L 2575 2359 
L 2575 2809 
z
M 1306 1234 
L 2575 1234 
L 2575 1684 
L 1306 1684 
L 1306 1234 
z
M 3869 3466 
L 4650 3466 
L 4650 491 
L 3869 491 
L 3869 3466 
z
" transform="scale(0.015625)"/>
      <path id="MicrosoftYaHei-Bold-33" d="M 494 1053 
Q 978 691 1625 691 
Q 2034 691 2275 872 
Q 2516 1053 2516 1388 
Q 2516 1731 2230 1912 
Q 1944 2094 1428 2094 
L 997 2094 
L 997 2872 
L 1394 2872 
Q 2369 2872 2369 3528 
Q 2369 4147 1622 4147 
Q 1134 4147 675 3828 
L 675 4663 
Q 1175 4922 1853 4922 
Q 2541 4922 2969 4605 
Q 3397 4288 3397 3725 
Q 3397 2775 2434 2531 
L 2434 2516 
Q 2941 2459 3244 2145 
Q 3547 1831 3547 1381 
Q 3547 691 3042 303 
Q 2538 -84 1697 -84 
Q 950 -84 494 163 
L 494 1053 
z
" transform="scale(0.015625)"/>
      <path id="MicrosoftYaHei-Bold-30" d="M 244 2341 
Q 244 3597 706 4259 
Q 1169 4922 2044 4922 
Q 3713 4922 3713 2453 
Q 3713 1238 3259 577 
Q 2806 -84 1950 -84 
Q 244 -84 244 2341 
z
M 1266 2366 
Q 1266 691 1981 691 
Q 2684 691 2684 2416 
Q 2684 4147 2000 4147 
Q 1266 4147 1266 2366 
z
" transform="scale(0.015625)"/>
      <path id="MicrosoftYaHei-Bold-5929" d="M 169 2966 
L 2628 2966 
Q 2706 3475 2728 4116 
L 513 4116 
L 513 4966 
L 5913 4966 
L 5913 4116 
L 3641 4116 
Q 3616 3569 3572 2966 
L 6231 2966 
L 6231 2103 
L 3841 2103 
Q 4531 525 6288 9 
Q 6031 -278 5563 -878 
Q 3913 -184 3163 1553 
Q 2606 125 806 -847 
Q 563 -534 100 -47 
Q 2100 859 2434 2103 
L 169 2103 
L 169 2966 
z
" transform="scale(0.015625)"/>
      <path id="MicrosoftYaHei-Bold-20" transform="scale(0.015625)"/>
      <path id="MicrosoftYaHei-Bold-b7" d="M 1406 2959 
Q 1769 2959 2028 2700 
Q 2288 2441 2288 2078 
Q 2288 1713 2028 1455 
Q 1769 1197 1406 1197 
Q 1041 1197 783 1455 
Q 525 1713 525 2078 
Q 525 2441 783 2700 
Q 1041 2959 1406 2959 
z
" transform="scale(0.015625)"/>
      <path id="MicrosoftYaHei-Bold-5b66" d="M 1425 5341 
Q 1800 4916 2188 4391 
L 1909 4203 
L 2953 4203 
Q 2691 4706 2469 5053 
L 3231 5391 
Q 3481 5009 3819 4403 
L 3388 4203 
L 4153 4203 
Q 4581 4819 4875 5272 
L 5719 4809 
L 5213 4203 
L 6113 4203 
L 6113 2666 
L 5238 2666 
L 5238 3441 
L 1156 3441 
L 1156 2666 
L 281 2666 
L 281 4203 
L 1303 4203 
Q 1028 4581 769 4897 
L 1425 5341 
z
M 175 1528 
L 2906 1528 
L 2906 1691 
L 3744 2234 
L 1456 2234 
L 1456 2997 
L 4975 2997 
L 4975 2241 
L 3900 1528 
L 6231 1528 
L 6231 753 
L 3806 753 
L 3806 116 
Q 3806 -316 3565 -556 
Q 3325 -797 2829 -800 
Q 2334 -803 1813 -803 
Q 1725 -372 1600 22 
Q 2075 -3 2469 -3 
Q 2906 -3 2906 378 
L 2906 753 
L 175 753 
L 175 1528 
z
" transform="scale(0.015625)"/>
      <path id="MicrosoftYaHei-Bold-4e60" d="M 3431 -709 
Q 3344 -272 3206 241 
Q 3878 197 4350 197 
Q 4750 197 4826 562 
Q 4903 928 4925 4066 
L 500 4066 
L 500 4903 
L 5863 4903 
Q 5853 3694 5813 2238 
L 5750 353 
Q 5728 -75 5509 -334 
Q 5291 -594 4930 -647 
Q 4569 -700 3431 -709 
z
M 1300 3259 
L 1813 3916 
Q 2806 3241 3500 2709 
L 2881 1959 
Q 2088 2647 1300 3259 
z
M 300 1009 
Q 2669 1666 4656 2372 
Q 4656 2078 4669 1484 
Q 2856 822 625 53 
L 300 1009 
z
" transform="scale(0.015625)"/>
      <path id="MicrosoftYaHei-Bold-5ea6" d="M 5656 1697 
L 5656 1022 
Q 5156 447 4656 97 
Q 5344 -34 6306 -66 
Q 6119 -428 5938 -822 
Q 4556 -653 3719 -353 
Q 2825 -653 1494 -872 
Q 1338 -522 1088 -178 
Q 2100 -128 2888 78 
Q 2369 453 1938 1022 
L 1538 1022 
L 1538 1697 
L 5656 1697 
z
M 1325 2478 
Q 1338 134 700 -884 
Q 356 -553 19 -297 
Q 550 697 525 2591 
L 525 4772 
L 3013 4772 
Q 2944 4953 2831 5209 
L 3869 5359 
Q 3981 5072 4094 4772 
L 6256 4772 
L 6256 4072 
L 1325 4072 
L 1325 2478 
z
M 1463 3684 
L 2144 3684 
L 2144 3947 
L 2944 3947 
L 2944 3684 
L 4494 3684 
L 4494 3947 
L 5294 3947 
L 5294 3684 
L 6144 3684 
L 6144 3009 
L 5294 3009 
L 5294 1991 
L 2144 1991 
L 2144 3009 
L 1463 3009 
L 1463 3684 
z
M 3756 378 
Q 4325 641 4725 1022 
L 2825 1022 
Q 3225 622 3756 378 
z
M 4494 2628 
L 4494 3009 
L 2944 3009 
L 2944 2628 
L 4494 2628 
z
" transform="scale(0.015625)"/>
      <path id="MicrosoftYaHei-Bold-5efa" d="M 356 -853 
Q 250 -422 94 16 
Q 394 278 619 597 
Q 316 1075 100 1778 
L 744 2059 
Q 872 1666 1019 1363 
Q 1172 1769 1238 2241 
L 300 2241 
L 300 3053 
L 1025 4091 
L 175 4091 
L 175 4853 
L 1988 4853 
L 1988 4134 
L 1163 3003 
L 2000 3003 
L 2000 2228 
Q 1866 1334 1528 628 
Q 2094 91 3475 91 
L 3475 484 
L 2075 484 
L 2075 1053 
L 3475 1053 
L 3475 1391 
L 2288 1391 
L 2288 1966 
L 3475 1966 
L 3475 2297 
L 2375 2297 
L 2375 2841 
L 3475 2841 
L 3475 3203 
L 2050 3203 
L 2050 3841 
L 3475 3841 
L 3475 4203 
L 2375 4203 
L 2375 4816 
L 3475 4816 
L 3475 5316 
L 4275 5316 
L 4275 4816 
L 5863 4816 
L 5863 3841 
L 6244 3841 
L 6244 3203 
L 5863 3203 
L 5863 2297 
L 4275 2297 
L 4275 1966 
L 5863 1966 
L 5863 1391 
L 4275 1391 
L 4275 1053 
L 6075 1053 
L 6075 484 
L 4275 484 
L 4275 94 
L 6319 122 
Q 6206 -247 6113 -666 
L 3506 -666 
Q 2478 -666 1928 -441 
Q 1378 -216 1150 -13 
Q 816 -488 356 -853 
z
M 5125 4203 
L 4275 4203 
L 4275 3841 
L 5125 3841 
L 5125 4203 
z
M 4275 2841 
L 5125 2841 
L 5125 3203 
L 4275 3203 
L 4275 2841 
z
" transform="scale(0.015625)"/>
      <path id="MicrosoftYaHei-Bold-8bae" d="M 4075 5353 
Q 4425 4641 4719 3934 
L 3994 3616 
Q 3706 4347 3375 5084 
L 4075 5353 
z
M 1106 5259 
Q 1563 4659 1931 4103 
L 1144 3622 
Q 725 4359 381 4847 
L 1106 5259 
z
M 6056 4634 
Q 5734 2438 4684 1066 
Q 5388 409 6325 22 
Q 6006 -397 5738 -822 
Q 4778 -372 4053 363 
Q 3331 -331 2319 -878 
Q 2056 -447 1731 -78 
Q 2738 391 3463 1066 
Q 2519 2400 2075 4534 
L 2850 4797 
Q 3244 2925 4081 1750 
Q 4994 2991 5250 4822 
L 6056 4634 
z
M 2244 1528 
Q 2306 922 2388 578 
Q 1406 -147 1044 -522 
L 594 97 
Q 731 259 738 609 
L 738 2484 
L 125 2484 
L 125 3328 
L 1588 3328 
L 1588 991 
Q 1894 1222 2244 1528 
z
" transform="scale(0.015625)"/>
     </defs>
     <use xlink:href="#MicrosoftYaHei-Bold-8003"/>
     <use xlink:href="#MicrosoftYaHei-Bold-524d" transform="translate(100 0)"/>
     <use xlink:href="#MicrosoftYaHei-Bold-33" transform="translate(200 0)"/>
     <use xlink:href="#MicrosoftYaHei-Bold-30" transform="translate(261.669922 0)"/>
     <use xlink:href="#MicrosoftYaHei-Bold-5929" transform="translate(323.339844 0)"/>
     <use xlink:href="#MicrosoftYaHei-Bold-20" transform="translate(423.339844 0)"/>
     <use xlink:href="#MicrosoftYaHei-Bold-b7" transform="translate(453.125 0)"/>
     <use xlink:href="#MicrosoftYaHei-Bold-20" transform="translate(497.070312 0)"/>
     <use xlink:href="#MicrosoftYaHei-Bold-5b66" transform="translate(526.855469 0)"/>
     <use xlink:href="#MicrosoftYaHei-Bold-4e60" transform="translate(626.855469 0)"/>
     <use xlink:href="#MicrosoftYaHei-Bold-5f3a" transform="translate(726.855469 0)"/>
     <use xlink:href="#MicrosoftYaHei-Bold-5ea6" transform="translate(826.855469 0)"/>
     <use xlink:href="#MicrosoftYaHei-Bold-5efa" transform="translate(926.855469 0)"/>
     <use xlink:href="#MicrosoftYaHei-Bold-8bae" transform="translate(1026.855469 0)"/>
    </g>
   </g>
  </g>
 </g>
 <defs>
  <clipPath id="p7a8958e55d">
   <rect x="35.716563" y="23.591875" width="398.5" height="174.52"/>
  </clipPath>
 </defs>
</svg>
