<?xml version="1.0" encoding="utf-8" standalone="no"?>
<!DOCTYPE svg PUBLIC "-//W3C//DTD SVG 1.1//EN"
  "http://www.w3.org/Graphics/SVG/1.1/DTD/svg11.dtd">
<svg xmlns:xlink="http://www.w3.org/1999/xlink" width="455.383437pt" height="239.751563pt" viewBox="0 0 455.383437 239.751563" xmlns="http://www.w3.org/2000/svg" version="1.1">
 <metadata>
  <rdf:RDF xmlns:dc="http://purl.org/dc/elements/1.1/" xmlns:cc="http://creativecommons.org/ns#" xmlns:rdf="http://www.w3.org/1999/02/22-rdf-syntax-ns#">
   <cc:Work>
    <dc:type rdf:resource="http://purl.org/dc/dcmitype/StillImage"/>
    <dc:date>2026-05-25T15:33:27.041755</dc:date>
    <dc:format>image/svg+xml</dc:format>
    <dc:creator>
     <cc:Agent>
      <dc:title>Matplotlib v3.10.9, https://matplotlib.org/</dc:title>
     </cc:Agent>
    </dc:creator>
   </cc:Work>
  </rdf:RDF>
 </metadata>
 <defs>
  <style type="text/css">*{stroke-linejoin: round; stroke-linecap: butt}</style>
 </defs>
 <g id="figure_1">
  <g id="patch_1">
   <path d="M 0 239.751563 
L 455.383437 239.751563 
L 455.383437 0 
L 0 0 
z
" style="fill: #ffffff"/>
  </g>
  <g id="axes_1">
   <g id="patch_2">
    <path d="M 42.753438 215.071875 
L 448.183437 215.071875 
L 448.183437 23.591875 
L 42.753438 23.591875 
z
" style="fill: #ffffff"/>
   </g>
   <g id="patch_3">
    <path d="M 61.182074 215.071875 
L 83.616936 215.071875 
L 83.616936 74.653208 
L 61.182074 74.653208 
z
" clip-path="url(#pf467f5df6c)" style="fill: #d5b0b0; stroke: #ffffff; stroke-linejoin: miter"/>
   </g>
   <g id="patch_4">
    <path d="M 125.281679 215.071875 
L 147.71654 215.071875 
L 147.71654 125.714542 
L 125.281679 125.714542 
z
" clip-path="url(#pf467f5df6c)" style="fill: #d5b0b0; stroke: #ffffff; stroke-linejoin: miter"/>
   </g>
   <g id="patch_5">
    <path d="M 189.381283 215.071875 
L 211.816145 215.071875 
L 211.816145 138.479875 
L 189.381283 138.479875 
z
" clip-path="url(#pf467f5df6c)" style="fill: #d5b0b0; stroke: #ffffff; stroke-linejoin: miter"/>
   </g>
   <g id="patch_6">
    <path d="M 253.480888 215.071875 
L 275.91575 215.071875 
L 275.91575 106.566542 
L 253.480888 106.566542 
z
" clip-path="url(#pf467f5df6c)" style="fill: #d5b0b0; stroke: #ffffff; stroke-linejoin: miter"/>
   </g>
   <g id="patch_7">
    <path d="M 317.580493 215.071875 
L 340.015354 215.071875 
L 340.015354 100.183875 
L 317.580493 100.183875 
z
" clip-path="url(#pf467f5df6c)" style="fill: #d5b0b0; stroke: #ffffff; stroke-linejoin: miter"/>
   </g>
   <g id="patch_8">
    <path d="M 381.680098 215.071875 
L 404.114959 215.071875 
L 404.114959 106.566542 
L 381.680098 106.566542 
z
" clip-path="url(#pf467f5df6c)" style="fill: #d5b0b0; stroke: #ffffff; stroke-linejoin: miter"/>
   </g>
   <g id="patch_9">
    <path d="M 86.821916 215.071875 
L 109.256777 215.071875 
L 109.256777 87.418542 
L 86.821916 87.418542 
z
" clip-path="url(#pf467f5df6c)" style="fill: #73bfaa; stroke: #ffffff; stroke-linejoin: miter"/>
   </g>
   <g id="patch_10">
    <path d="M 150.921521 215.071875 
L 173.356382 215.071875 
L 173.356382 138.479875 
L 150.921521 138.479875 
z
" clip-path="url(#pf467f5df6c)" style="fill: #73bfaa; stroke: #ffffff; stroke-linejoin: miter"/>
   </g>
   <g id="patch_11">
    <path d="M 215.021125 215.071875 
L 237.455987 215.071875 
L 237.455987 151.245208 
L 215.021125 151.245208 
z
" clip-path="url(#pf467f5df6c)" style="fill: #73bfaa; stroke: #ffffff; stroke-linejoin: miter"/>
   </g>
   <g id="patch_12">
    <path d="M 279.12073 215.071875 
L 301.555592 215.071875 
L 301.555592 119.331875 
L 279.12073 119.331875 
z
" clip-path="url(#pf467f5df6c)" style="fill: #73bfaa; stroke: #ffffff; stroke-linejoin: miter"/>
   </g>
   <g id="patch_13">
    <path d="M 343.220335 215.071875 
L 365.655196 215.071875 
L 365.655196 112.949208 
L 343.220335 112.949208 
z
" clip-path="url(#pf467f5df6c)" style="fill: #73bfaa; stroke: #ffffff; stroke-linejoin: miter"/>
   </g>
   <g id="patch_14">
    <path d="M 407.319939 215.071875 
L 429.754801 215.071875 
L 429.754801 125.714542 
L 407.319939 125.714542 
z
" clip-path="url(#pf467f5df6c)" style="fill: #73bfaa; stroke: #ffffff; stroke-linejoin: miter"/>
   </g>
   <g id="matplotlib.axis_1">
    <g id="xtick_1">
     <g id="line2d_1">
      <defs>
       <path id="mb64b425af2" d="M 0 0 
L 0 3.5 
" style="stroke: #000000; stroke-width: 0.8"/>
      </defs>
      <g>
       <use xlink:href="#mb64b425af2" x="85.219426" y="215.071875" style="stroke: #000000; stroke-width: 0.8"/>
      </g>
     </g>
     <g id="text_1">
      <!-- 数学 -->
      <g transform="translate(75.219426 230.065625) scale(0.1 -0.1)">
       <defs>
        <path id="MicrosoftYaHei-6570" d="M 4175 5303 
L 4675 5228 
Q 4544 4622 4369 4097 
L 6281 4097 
L 6281 3672 
L 5888 3672 
Q 5731 1834 5088 753 
Q 5594 66 6375 -372 
Q 6175 -647 6038 -866 
Q 5275 -372 4769 309 
Q 4194 -403 3400 -928 
Q 3263 -747 3044 -534 
Q 3919 41 4463 772 
Q 3956 1647 3794 2791 
Q 3663 2559 3519 2359 
Q 3394 2541 3206 2759 
Q 3931 3803 4175 5303 
z
M 150 1697 
L 1100 1697 
Q 1238 1934 1369 2184 
L 1819 2041 
Q 1719 1866 1619 1697 
L 3150 1697 
L 3150 1291 
Q 2913 678 2431 216 
Q 2775 53 3131 -109 
L 2856 -541 
Q 2469 -322 2050 -103 
Q 1344 -609 269 -903 
Q 169 -703 56 -466 
Q 969 -259 1600 128 
Q 1063 403 475 691 
Q 675 978 863 1284 
L 150 1284 
L 150 1697 
z
M 219 3847 
L 1656 3847 
L 1656 5247 
L 2119 5247 
L 2119 3847 
L 3319 3847 
L 3319 3434 
L 2119 3434 
L 2119 3053 
L 2306 3266 
Q 2888 2841 3281 2516 
L 2981 2166 
Q 2638 2491 2119 2897 
L 2119 2184 
L 1656 2184 
L 1656 3059 
Q 1088 2466 331 2016 
Q 213 2197 63 2397 
Q 850 2822 1506 3434 
L 219 3434 
L 219 3847 
z
M 5388 3672 
L 4219 3672 
Q 4188 3591 4150 3516 
Q 4263 2191 4775 1247 
Q 5275 2159 5388 3672 
z
M 1088 834 
Q 1531 634 2000 416 
Q 2431 784 2675 1284 
L 1375 1284 
Q 1231 1053 1088 834 
z
M 3038 5091 
L 3425 4834 
Q 3081 4384 2738 4003 
Q 2594 4128 2400 4266 
Q 2725 4647 3038 5091 
z
M 381 4816 
L 738 5059 
Q 1019 4716 1319 4322 
L 931 4047 
Q 656 4453 381 4816 
z
" transform="scale(0.015625)"/>
        <path id="MicrosoftYaHei-5b66" d="M 144 1359 
L 3069 1359 
L 3069 1709 
L 4263 2384 
L 1325 2384 
L 1325 2841 
L 4994 2841 
L 4994 2316 
L 3575 1497 
L 3575 1359 
L 6263 1359 
L 6263 903 
L 3575 903 
L 3575 -41 
Q 3575 -778 2831 -778 
Q 2419 -778 1863 -766 
Q 1844 -553 1788 -234 
Q 2288 -284 2744 -291 
Q 3069 -297 3069 53 
L 3069 903 
L 144 903 
L 144 1359 
z
M 356 3909 
L 6056 3909 
L 6056 2647 
L 5563 2647 
L 5563 3453 
L 850 3453 
L 850 2647 
L 356 2647 
L 356 3909 
z
M 4313 4272 
Q 4731 4722 5100 5241 
L 5550 4909 
Q 5144 4447 4681 3941 
L 4313 4272 
z
M 2538 5116 
L 2944 5353 
Q 3325 4853 3650 4334 
L 3200 4078 
Q 2925 4566 2538 5116 
z
M 850 4928 
L 1219 5197 
Q 1600 4778 1969 4291 
L 1544 3991 
Q 1194 4522 850 4928 
z
" transform="scale(0.015625)"/>
       </defs>
       <use xlink:href="#MicrosoftYaHei-6570"/>
       <use xlink:href="#MicrosoftYaHei-5b66" transform="translate(100 0)"/>
      </g>
     </g>
    </g>
    <g id="xtick_2">
     <g id="line2d_2">
      <g>
       <use xlink:href="#mb64b425af2" x="149.31903" y="215.071875" style="stroke: #000000; stroke-width: 0.8"/>
      </g>
     </g>
     <g id="text_2">
      <!-- 物理 -->
      <g transform="translate(139.31903 230.065625) scale(0.1 -0.1)">
       <defs>
        <path id="MicrosoftYaHei-7269" d="M 2131 2866 
Q 2750 3816 3263 5341 
L 3719 5203 
Q 3541 4706 3363 4278 
L 6075 4278 
Q 5950 1759 5869 422 
Q 5800 -622 4869 -622 
Q 4519 -622 4044 -603 
Q 4013 -372 3956 -72 
Q 4500 -134 4819 -134 
Q 5325 -134 5375 441 
Q 5488 1759 5575 3834 
L 5097 3834 
Q 4934 2241 4569 1322 
Q 4069 134 2869 -716 
Q 2731 -522 2550 -334 
Q 3719 491 4169 1559 
Q 4531 2438 4634 3834 
L 4078 3834 
Q 3909 2641 3575 1916 
Q 3163 1097 2444 447 
Q 2288 647 2119 816 
Q 2831 1434 3175 2116 
Q 3509 2809 3619 3834 
L 3169 3834 
Q 2850 3125 2531 2628 
Q 2375 2734 2131 2866 
z
M 94 1584 
Q 669 1775 1288 1991 
L 1288 3466 
L 722 3466 
Q 597 2872 419 2378 
Q 219 2522 13 2653 
Q 363 3509 456 4709 
L 906 4634 
Q 863 4244 800 3884 
L 1288 3884 
L 1288 5291 
L 1756 5291 
L 1756 3884 
L 2375 3884 
L 2375 3466 
L 1756 3466 
L 1756 2156 
Q 2063 2269 2381 2384 
Q 2413 2109 2450 1909 
Q 2141 1797 1756 1653 
L 1756 -834 
L 1288 -834 
L 1288 1475 
Q 788 1288 188 1053 
L 94 1584 
z
" transform="scale(0.015625)"/>
        <path id="MicrosoftYaHei-7406" d="M 2031 -166 
L 3988 -166 
L 3988 734 
L 2394 734 
L 2394 1172 
L 3988 1172 
L 3988 1997 
L 2988 1997 
L 2988 1766 
L 2525 1766 
L 2525 4991 
L 5913 4991 
L 5913 1766 
L 5450 1766 
L 5450 1997 
L 4450 1997 
L 4450 1172 
L 6044 1172 
L 6044 734 
L 4450 734 
L 4450 -166 
L 6319 -166 
L 6319 -603 
L 2031 -603 
L 2031 -166 
z
M 44 203 
Q 525 319 975 434 
L 975 2328 
L 194 2328 
L 194 2766 
L 975 2766 
L 975 4328 
L 131 4328 
L 131 4766 
L 2281 4766 
L 2281 4328 
L 1438 4328 
L 1438 2766 
L 2231 2766 
L 2231 2328 
L 1438 2328 
L 1438 559 
Q 1850 675 2238 791 
Q 2269 509 2306 303 
Q 1238 16 213 -303 
L 44 203 
z
M 4450 2422 
L 5450 2422 
L 5450 3291 
L 4450 3291 
L 4450 2422 
z
M 2988 2422 
L 3988 2422 
L 3988 3291 
L 2988 3291 
L 2988 2422 
z
M 5450 4566 
L 4450 4566 
L 4450 3703 
L 5450 3703 
L 5450 4566 
z
M 2988 3703 
L 3988 3703 
L 3988 4566 
L 2988 4566 
L 2988 3703 
z
" transform="scale(0.015625)"/>
       </defs>
       <use xlink:href="#MicrosoftYaHei-7269"/>
       <use xlink:href="#MicrosoftYaHei-7406" transform="translate(100 0)"/>
      </g>
     </g>
    </g>
    <g id="xtick_3">
     <g id="line2d_3">
      <g>
       <use xlink:href="#mb64b425af2" x="213.418635" y="215.071875" style="stroke: #000000; stroke-width: 0.8"/>
      </g>
     </g>
     <g id="text_3">
      <!-- 化学 -->
      <g transform="translate(203.418635 230.065625) scale(0.1 -0.1)">
       <defs>
        <path id="MicrosoftYaHei-5316" d="M 1844 1453 
Q 2663 1834 3375 2331 
L 3375 5197 
L 3913 5197 
L 3913 2734 
Q 4869 3506 5613 4516 
L 6069 4184 
Q 5159 2975 3913 2069 
L 3913 303 
Q 3913 -122 4363 -122 
L 5156 -122 
Q 5581 -122 5650 284 
Q 5738 709 5763 1266 
Q 6025 1166 6313 1084 
Q 6263 559 6181 122 
Q 6063 -597 5281 -597 
L 4225 -597 
Q 3375 -597 3375 241 
L 3375 1703 
Q 2791 1328 2144 1016 
Q 2013 1222 1844 1453 
z
M 88 2222 
Q 1175 3666 1688 5291 
L 2231 5134 
Q 1934 4359 1588 3675 
L 1588 -797 
L 1063 -797 
L 1063 2734 
Q 716 2172 325 1678 
Q 219 1947 88 2222 
z
" transform="scale(0.015625)"/>
       </defs>
       <use xlink:href="#MicrosoftYaHei-5316"/>
       <use xlink:href="#MicrosoftYaHei-5b66" transform="translate(100 0)"/>
      </g>
     </g>
    </g>
    <g id="xtick_4">
     <g id="line2d_4">
      <g>
       <use xlink:href="#mb64b425af2" x="277.51824" y="215.071875" style="stroke: #000000; stroke-width: 0.8"/>
      </g>
     </g>
     <g id="text_4">
      <!-- 英语 -->
      <g transform="translate(267.51824 230.065625) scale(0.1 -0.1)">
       <defs>
        <path id="MicrosoftYaHei-82f1" d="M 144 1572 
L 931 1572 
L 931 3222 
L 2966 3222 
Q 2966 3513 2963 3834 
L 3463 3834 
Q 3463 3513 3459 3222 
L 5469 3222 
L 5469 1572 
L 6281 1572 
L 6281 1134 
L 3572 1134 
Q 4300 -91 6319 -278 
Q 6106 -553 5956 -784 
Q 3847 -363 3209 963 
Q 2734 -159 444 -878 
Q 300 -672 88 -422 
Q 2288 150 2797 1134 
L 144 1134 
L 144 1572 
z
M 175 4591 
L 1813 4591 
L 1813 5328 
L 2300 5328 
L 2300 4591 
L 4113 4591 
L 4113 5328 
L 4600 5328 
L 4600 4591 
L 6250 4591 
L 6250 4153 
L 4600 4153 
L 4600 3584 
L 4113 3584 
L 4113 4153 
L 2300 4153 
L 2300 3584 
L 1813 3584 
L 1813 4153 
L 175 4153 
L 175 4591 
z
M 2963 2797 
L 1419 2797 
L 1419 1572 
L 2934 1572 
Q 2956 2069 2963 2797 
z
M 3431 1572 
L 4981 1572 
L 4981 2797 
L 3456 2797 
Q 3450 2072 3431 1572 
z
" transform="scale(0.015625)"/>
        <path id="MicrosoftYaHei-8bed" d="M 1825 2547 
L 2881 2547 
L 3006 3428 
L 2113 3428 
L 2113 3859 
L 3066 3859 
L 3169 4584 
L 1975 4584 
L 1975 5022 
L 6025 5022 
L 6025 4584 
L 3641 4584 
L 3541 3859 
L 5506 3859 
L 5506 2547 
L 6288 2547 
L 6288 2109 
L 1825 2109 
L 1825 2547 
z
M 2375 1466 
L 5719 1466 
L 5719 -822 
L 5250 -822 
L 5250 -441 
L 2844 -441 
L 2844 -822 
L 2375 -822 
L 2375 1466 
z
M 2094 716 
Q 2113 391 2138 178 
Q 1519 -216 888 -722 
L 594 -303 
Q 806 -103 806 259 
L 806 2716 
L 100 2716 
L 100 3166 
L 1288 3166 
L 1288 147 
Q 1725 441 2094 716 
z
M 5250 1028 
L 2844 1028 
L 2844 -3 
L 5250 -3 
L 5250 1028 
z
M 5038 3428 
L 3481 3428 
L 3363 2547 
L 5038 2547 
L 5038 3428 
z
M 738 5222 
Q 1419 4522 1725 4184 
L 1288 3816 
Q 894 4334 356 4891 
L 738 5222 
z
" transform="scale(0.015625)"/>
       </defs>
       <use xlink:href="#MicrosoftYaHei-82f1"/>
       <use xlink:href="#MicrosoftYaHei-8bed" transform="translate(100 0)"/>
      </g>
     </g>
    </g>
    <g id="xtick_5">
     <g id="line2d_5">
      <g>
       <use xlink:href="#mb64b425af2" x="341.617845" y="215.071875" style="stroke: #000000; stroke-width: 0.8"/>
      </g>
     </g>
     <g id="text_5">
      <!-- 语文 -->
      <g transform="translate(331.617845 230.065625) scale(0.1 -0.1)">
       <defs>
        <path id="MicrosoftYaHei-6587" d="M 194 4241 
L 3194 4241 
Q 2878 4841 2700 5116 
L 3181 5341 
Q 3356 5072 3706 4466 
L 3256 4241 
L 6194 4241 
L 6194 3778 
L 5041 3778 
Q 4706 1994 3603 909 
Q 4434 303 6244 -178 
Q 5956 -503 5806 -722 
Q 4044 -113 3203 553 
Q 2359 -103 506 -772 
Q 344 -553 131 -284 
Q 1919 253 2822 913 
Q 1681 2131 1372 3778 
L 194 3778 
L 194 4241 
z
M 4506 3778 
L 1872 3778 
Q 2153 2241 3216 1238 
Q 4231 2181 4506 3778 
z
" transform="scale(0.015625)"/>
       </defs>
       <use xlink:href="#MicrosoftYaHei-8bed"/>
       <use xlink:href="#MicrosoftYaHei-6587" transform="translate(100 0)"/>
      </g>
     </g>
    </g>
    <g id="xtick_6">
     <g id="line2d_6">
      <g>
       <use xlink:href="#mb64b425af2" x="405.717449" y="215.071875" style="stroke: #000000; stroke-width: 0.8"/>
      </g>
     </g>
     <g id="text_6">
      <!-- 历史/道法 -->
      <g transform="translate(383.581512 230.065625) scale(0.1 -0.1)">
       <defs>
        <path id="MicrosoftYaHei-5386" d="M 1669 3084 
L 3028 3084 
Q 3044 3650 3044 4222 
L 3569 4222 
Q 3563 3650 3547 3084 
L 5800 3084 
Q 5725 1422 5656 341 
Q 5556 -616 4688 -634 
Q 4219 -634 3588 -603 
Q 3556 -366 3494 -41 
Q 4113 -109 4588 -109 
Q 5088 -103 5156 466 
Q 5225 1366 5269 2603 
L 3531 2603 
Q 3478 1334 3138 691 
Q 2681 -166 1513 -847 
Q 1338 -641 1144 -422 
Q 2294 284 2644 947 
Q 2969 1528 3013 2603 
L 1669 2603 
L 1669 3084 
z
M 1325 2766 
Q 1319 1384 1144 647 
Q 963 -116 456 -841 
Q 300 -628 81 -416 
Q 506 197 650 816 
Q 794 1416 794 2653 
L 794 4916 
L 6244 4916 
L 6244 4434 
L 1325 4434 
L 1325 2766 
z
" transform="scale(0.015625)"/>
        <path id="MicrosoftYaHei-53f2" d="M 1331 1953 
Q 1813 1213 2519 750 
Q 2881 1275 2953 2047 
L 725 2047 
L 725 4472 
L 2969 4472 
L 2969 5291 
L 3469 5291 
L 3469 4472 
L 5713 4472 
L 5713 1722 
L 5225 1722 
L 5225 2047 
L 3459 2047 
Q 3394 1144 2969 494 
Q 4241 -119 6313 -228 
Q 6206 -441 6094 -741 
Q 3928 -578 2638 91 
Q 1881 -634 369 -872 
Q 281 -678 113 -416 
Q 1506 -213 2181 369 
Q 1434 888 944 1697 
L 1331 1953 
z
M 5225 4022 
L 3469 4022 
L 3469 2497 
L 5225 2497 
L 5225 4022 
z
M 1213 2497 
L 2969 2497 
L 2969 4022 
L 1213 4022 
L 1213 2497 
z
" transform="scale(0.015625)"/>
        <path id="MicrosoftYaHei-2f" d="M 2791 4841 
L 469 -803 
L -103 -803 
L 2219 4841 
L 2791 4841 
z
" transform="scale(0.015625)"/>
        <path id="MicrosoftYaHei-9053" d="M 2213 3559 
L 3500 3559 
L 3622 4103 
L 1856 4103 
L 1856 4516 
L 3031 4516 
Q 2884 4725 2575 5097 
L 2938 5366 
Q 3263 5016 3494 4728 
L 3209 4516 
L 4359 4516 
Q 4631 4891 4906 5347 
L 5381 5103 
Q 5181 4847 4903 4516 
L 6231 4516 
L 6231 4103 
L 4128 4103 
L 3969 3559 
L 5775 3559 
L 5775 153 
L 5313 153 
L 5313 384 
L 2675 384 
L 2675 153 
L 2213 153 
L 2213 3559 
z
M 2688 -228 
L 4200 -247 
L 6319 -197 
Q 6213 -441 6113 -678 
L 4031 -697 
L 2644 -672 
Q 1594 -666 1088 47 
Q 906 -97 356 -753 
L 88 -222 
Q 494 141 875 469 
L 875 2641 
L 150 2641 
L 150 3097 
L 1350 3097 
L 1350 363 
Q 1803 -200 2688 -228 
z
M 2675 766 
L 5313 766 
L 5313 1328 
L 2675 1328 
L 2675 766 
z
M 2675 1697 
L 5313 1697 
L 5313 2253 
L 2675 2253 
L 2675 1697 
z
M 5313 3178 
L 2675 3178 
L 2675 2622 
L 5313 2622 
L 5313 3178 
z
M 700 5178 
Q 1131 4678 1550 4091 
L 1113 3791 
Q 694 4441 319 4903 
L 700 5178 
z
" transform="scale(0.015625)"/>
        <path id="MicrosoftYaHei-6cd5" d="M 4888 1328 
Q 5488 509 6181 -553 
Q 5931 -697 5694 -841 
Q 5519 -550 5350 -278 
Q 3300 -447 2138 -559 
L 1906 -16 
Q 2300 159 2675 716 
Q 3088 1303 3441 1953 
L 1800 1953 
L 1800 2403 
L 3763 2403 
L 3763 3728 
L 2106 3728 
L 2106 4178 
L 3763 4178 
L 3763 5322 
L 4263 5322 
L 4263 4178 
L 5994 4178 
L 5994 3728 
L 4263 3728 
L 4263 2403 
L 6288 2403 
L 6288 1953 
L 4069 1953 
Q 3372 806 2706 -28 
Q 3897 28 5088 141 
Q 4766 644 4475 1066 
L 4888 1328 
z
M 1013 1828 
Q 1244 1728 1506 1622 
Q 1063 291 731 -784 
L 194 -603 
Q 606 497 1013 1828 
z
M 400 3622 
Q 869 3291 1500 2772 
Q 1269 2509 1138 2366 
Q 431 2997 88 3259 
L 400 3622 
z
M 644 5241 
Q 1144 4841 1719 4328 
Q 1506 4109 1350 3941 
Q 775 4509 325 4897 
L 644 5241 
z
" transform="scale(0.015625)"/>
       </defs>
       <use xlink:href="#MicrosoftYaHei-5386"/>
       <use xlink:href="#MicrosoftYaHei-53f2" transform="translate(100 0)"/>
       <use xlink:href="#MicrosoftYaHei-2f" transform="translate(200 0)"/>
       <use xlink:href="#MicrosoftYaHei-9053" transform="translate(242.724609 0)"/>
       <use xlink:href="#MicrosoftYaHei-6cd5" transform="translate(342.724609 0)"/>
      </g>
     </g>
    </g>
   </g>
   <g id="matplotlib.axis_2">
    <g id="ytick_1">
     <g id="line2d_7">
      <defs>
       <path id="m39f9878355" d="M 0 0 
L -3.5 0 
" style="stroke: #000000; stroke-width: 0.8"/>
      </defs>
      <g>
       <use xlink:href="#m39f9878355" x="42.753438" y="215.071875" style="stroke: #000000; stroke-width: 0.8"/>
      </g>
     </g>
     <g id="text_7">
      <!-- 0 -->
      <g transform="translate(28.716563 219.868125) scale(0.12 -0.12)">
       <defs>
        <path id="MicrosoftYaHei-30" d="M 284 2325 
Q 284 3606 709 4264 
Q 1134 4922 1941 4922 
Q 3478 4922 3478 2441 
Q 3478 1216 3045 567 
Q 2613 -81 1831 -81 
Q 1094 -81 689 534 
Q 284 1150 284 2325 
z
M 909 2353 
Q 909 425 1888 425 
Q 2850 425 2850 2384 
Q 2850 4413 1906 4413 
Q 909 4413 909 2353 
z
" transform="scale(0.015625)"/>
       </defs>
       <use xlink:href="#MicrosoftYaHei-30"/>
      </g>
     </g>
    </g>
    <g id="ytick_2">
     <g id="line2d_8">
      <g>
       <use xlink:href="#m39f9878355" x="42.753438" y="183.158542" style="stroke: #000000; stroke-width: 0.8"/>
      </g>
     </g>
     <g id="text_8">
      <!-- 5 -->
      <g transform="translate(28.716563 187.954792) scale(0.12 -0.12)">
       <defs>
        <path id="MicrosoftYaHei-35" d="M 3294 1494 
Q 3294 784 2823 350 
Q 2353 -84 1559 -84 
Q 878 -84 544 119 
L 544 744 
Q 1034 425 1544 425 
Q 2050 425 2361 704 
Q 2672 984 2672 1447 
Q 2672 1909 2348 2167 
Q 2025 2425 1434 2425 
Q 978 2425 613 2384 
L 791 4841 
L 3053 4841 
L 3053 4303 
L 1306 4303 
L 1206 2931 
L 1647 2950 
Q 2416 2950 2855 2567 
Q 3294 2184 3294 1494 
z
" transform="scale(0.015625)"/>
       </defs>
       <use xlink:href="#MicrosoftYaHei-35"/>
      </g>
     </g>
    </g>
    <g id="ytick_3">
     <g id="line2d_9">
      <g>
       <use xlink:href="#m39f9878355" x="42.753438" y="151.245208" style="stroke: #000000; stroke-width: 0.8"/>
      </g>
     </g>
     <g id="text_9">
      <!-- 10 -->
      <g transform="translate(21.679688 156.041458) scale(0.12 -0.12)">
       <defs>
        <path id="MicrosoftYaHei-31" d="M 1781 0 
L 1781 4141 
Q 1638 3997 1295 3819 
Q 953 3641 663 3569 
L 663 4169 
Q 1047 4275 1484 4508 
Q 1922 4741 2156 4947 
L 2388 4947 
L 2388 0 
L 1781 0 
z
" transform="scale(0.015625)"/>
       </defs>
       <use xlink:href="#MicrosoftYaHei-31"/>
       <use xlink:href="#MicrosoftYaHei-30" transform="translate(58.642578 0)"/>
      </g>
     </g>
    </g>
    <g id="ytick_4">
     <g id="line2d_10">
      <g>
       <use xlink:href="#m39f9878355" x="42.753438" y="119.331875" style="stroke: #000000; stroke-width: 0.8"/>
      </g>
     </g>
     <g id="text_10">
      <!-- 15 -->
      <g transform="translate(21.679688 124.128125) scale(0.12 -0.12)">
       <use xlink:href="#MicrosoftYaHei-31"/>
       <use xlink:href="#MicrosoftYaHei-35" transform="translate(58.642578 0)"/>
      </g>
     </g>
    </g>
    <g id="ytick_5">
     <g id="line2d_11">
      <g>
       <use xlink:href="#m39f9878355" x="42.753438" y="87.418542" style="stroke: #000000; stroke-width: 0.8"/>
      </g>
     </g>
     <g id="text_11">
      <!-- 20 -->
      <g transform="translate(21.679688 92.214792) scale(0.12 -0.12)">
       <defs>
        <path id="MicrosoftYaHei-32" d="M 2666 3572 
Q 2666 3963 2419 4186 
Q 2172 4409 1747 4409 
Q 1447 4409 1140 4256 
Q 834 4103 569 3819 
L 569 4413 
Q 806 4659 1107 4790 
Q 1409 4922 1816 4922 
Q 2472 4922 2872 4570 
Q 3272 4219 3272 3619 
Q 3272 3084 3026 2693 
Q 2781 2303 2188 1894 
Q 1581 1475 1376 1294 
Q 1172 1113 1090 947 
Q 1009 781 1009 544 
L 3416 544 
L 3416 0 
L 372 0 
L 372 241 
Q 372 659 486 951 
Q 600 1244 862 1520 
Q 1125 1797 1681 2184 
Q 2250 2584 2458 2886 
Q 2666 3188 2666 3572 
z
" transform="scale(0.015625)"/>
       </defs>
       <use xlink:href="#MicrosoftYaHei-32"/>
       <use xlink:href="#MicrosoftYaHei-30" transform="translate(58.642578 0)"/>
      </g>
     </g>
    </g>
    <g id="ytick_6">
     <g id="line2d_12">
      <g>
       <use xlink:href="#m39f9878355" x="42.753438" y="55.505208" style="stroke: #000000; stroke-width: 0.8"/>
      </g>
     </g>
     <g id="text_12">
      <!-- 25 -->
      <g transform="translate(21.679688 60.301458) scale(0.12 -0.12)">
       <use xlink:href="#MicrosoftYaHei-32"/>
       <use xlink:href="#MicrosoftYaHei-35" transform="translate(58.642578 0)"/>
      </g>
     </g>
    </g>
    <g id="ytick_7">
     <g id="line2d_13">
      <g>
       <use xlink:href="#m39f9878355" x="42.753438" y="23.591875" style="stroke: #000000; stroke-width: 0.8"/>
      </g>
     </g>
     <g id="text_13">
      <!-- 30 -->
      <g transform="translate(21.679688 28.388125) scale(0.12 -0.12)">
       <defs>
        <path id="MicrosoftYaHei-33" d="M 447 809 
Q 944 425 1569 425 
Q 2069 425 2361 670 
Q 2653 916 2653 1328 
Q 2653 2247 1338 2247 
L 934 2247 
L 934 2753 
L 1319 2753 
Q 2484 2753 2484 3616 
Q 2484 4413 1594 4413 
Q 1084 4413 634 4069 
L 634 4647 
Q 1109 4922 1744 4922 
Q 2363 4922 2738 4598 
Q 3113 4275 3113 3759 
Q 3113 2809 2144 2538 
L 2144 2525 
Q 2669 2469 2973 2155 
Q 3278 1841 3278 1372 
Q 3278 719 2808 319 
Q 2338 -81 1556 -81 
Q 869 -81 447 175 
L 447 809 
z
" transform="scale(0.015625)"/>
       </defs>
       <use xlink:href="#MicrosoftYaHei-33"/>
       <use xlink:href="#MicrosoftYaHei-30" transform="translate(58.642578 0)"/>
      </g>
     </g>
    </g>
    <g id="text_14">
     <!-- 占比 (%) -->
     <g transform="translate(15.19375 138.600625) rotate(-90) scale(0.1 -0.1)">
      <defs>
       <path id="MicrosoftYaHei-5360" d="M 863 2434 
L 2775 2434 
L 2775 5259 
L 3288 5259 
L 3288 4209 
L 6150 4209 
L 6150 3747 
L 3288 3747 
L 3288 2434 
L 5525 2434 
L 5525 -841 
L 5025 -841 
L 5025 -453 
L 1363 -453 
L 1363 -853 
L 863 -853 
L 863 2434 
z
M 5025 1984 
L 1363 1984 
L 1363 -9 
L 5025 -9 
L 5025 1984 
z
" transform="scale(0.015625)"/>
       <path id="MicrosoftYaHei-6bd4" d="M 3225 5316 
L 3744 5316 
L 3744 2672 
Q 4959 3550 5744 4509 
L 6188 4178 
Q 5175 3063 3744 2056 
L 3744 247 
Q 3744 -166 4106 -166 
L 5175 -166 
Q 5588 -166 5650 203 
Q 5725 678 5763 1247 
Q 6025 1147 6300 1066 
Q 6244 484 6150 22 
Q 6019 -622 5319 -622 
L 3944 -622 
Q 3225 -622 3225 159 
L 3225 5316 
z
M 1063 5153 
L 1063 3278 
L 2825 3278 
L 2825 2809 
L 1063 2809 
L 1063 153 
Q 1713 428 2763 928 
Q 2763 634 2788 366 
Q 1869 -3 1231 -328 
Q 956 -472 725 -672 
L 344 -184 
Q 544 -34 544 272 
L 544 5153 
L 1063 5153 
z
" transform="scale(0.015625)"/>
       <path id="MicrosoftYaHei-20" transform="scale(0.015625)"/>
       <path id="MicrosoftYaHei-28" d="M 1531 -1100 
Q 478 100 478 1847 
Q 478 3594 1531 4841 
L 2072 4841 
Q 1016 3544 1016 1853 
Q 1016 166 2066 -1100 
L 1531 -1100 
z
" transform="scale(0.015625)"/>
       <path id="MicrosoftYaHei-25" d="M 272 3619 
Q 272 4213 589 4563 
Q 906 4913 1444 4913 
Q 1959 4913 2248 4591 
Q 2538 4269 2538 3694 
Q 2538 3122 2219 2765 
Q 1900 2409 1372 2409 
Q 872 2409 572 2740 
Q 272 3072 272 3619 
z
M 753 3650 
Q 753 3247 928 3028 
Q 1103 2809 1406 2809 
Q 1719 2809 1889 3036 
Q 2059 3263 2059 3675 
Q 2059 4078 1892 4298 
Q 1725 4519 1422 4519 
Q 1113 4519 933 4289 
Q 753 4059 753 3650 
z
M 4647 4841 
L 1538 -31 
L 1016 -31 
L 4125 4841 
L 4647 4841 
z
M 3172 1134 
Q 3172 1728 3489 2083 
Q 3806 2438 4341 2438 
Q 4853 2438 5143 2114 
Q 5434 1791 5434 1203 
Q 5434 634 5112 279 
Q 4791 -75 4272 -75 
Q 3769 -75 3470 261 
Q 3172 597 3172 1134 
z
M 3650 1163 
Q 3650 769 3825 548 
Q 4000 328 4303 328 
Q 4616 328 4786 556 
Q 4956 784 4956 1194 
Q 4956 1600 4786 1815 
Q 4616 2031 4319 2031 
Q 4000 2031 3825 1801 
Q 3650 1572 3650 1163 
z
" transform="scale(0.015625)"/>
       <path id="MicrosoftYaHei-29" d="M 78 -1100 
Q 1131 163 1131 1853 
Q 1131 3547 72 4841 
L 616 4841 
Q 1672 3603 1672 1847 
Q 1672 91 616 -1100 
L 78 -1100 
z
" transform="scale(0.015625)"/>
      </defs>
      <use xlink:href="#MicrosoftYaHei-5360"/>
      <use xlink:href="#MicrosoftYaHei-6bd4" transform="translate(100 0)"/>
      <use xlink:href="#MicrosoftYaHei-20" transform="translate(200 0)"/>
      <use xlink:href="#MicrosoftYaHei-28" transform="translate(229.589844 0)"/>
      <use xlink:href="#MicrosoftYaHei-25" transform="translate(262.988281 0)"/>
      <use xlink:href="#MicrosoftYaHei-29" transform="translate(351.953125 0)"/>
     </g>
    </g>
   </g>
   <g id="patch_15">
    <path d="M 42.753438 215.071875 
L 42.753438 23.591875 
" style="fill: none; stroke: #000000; stroke-width: 0.8; stroke-linejoin: miter; stroke-linecap: square"/>
   </g>
   <g id="patch_16">
    <path d="M 42.753437 215.071875 
L 448.183437 215.071875 
" style="fill: none; stroke: #000000; stroke-width: 0.8; stroke-linejoin: miter; stroke-linecap: square"/>
   </g>
   <g id="text_15">
    <!-- 91% -->
    <g style="fill: #27ae60" transform="translate(76.561301 61.887875) scale(0.08 -0.08)">
     <defs>
      <path id="MicrosoftYaHei-Bold-39" d="M 544 941 
Q 931 691 1456 691 
Q 2628 691 2653 2216 
L 2634 2222 
Q 2316 1731 1650 1731 
Q 1047 1731 658 2154 
Q 269 2578 269 3222 
Q 269 3978 737 4450 
Q 1206 4922 1959 4922 
Q 2744 4922 3191 4325 
Q 3638 3728 3638 2659 
Q 3638 1391 3098 653 
Q 2559 -84 1547 -84 
Q 975 -84 544 100 
L 544 941 
z
M 1259 3313 
Q 1259 2928 1445 2709 
Q 1631 2491 1953 2491 
Q 2241 2491 2427 2700 
Q 2613 2909 2613 3219 
Q 2613 3591 2427 3869 
Q 2241 4147 1928 4147 
Q 1625 4147 1442 3906 
Q 1259 3666 1259 3313 
z
" transform="scale(0.015625)"/>
      <path id="MicrosoftYaHei-Bold-31" d="M 2716 4947 
L 2716 0 
L 1700 0 
L 1700 3809 
Q 1513 3647 1188 3517 
Q 863 3388 591 3356 
L 591 4222 
Q 1447 4472 2072 4947 
L 2716 4947 
z
" transform="scale(0.015625)"/>
      <path id="MicrosoftYaHei-Bold-25" d="M 297 3597 
Q 297 4191 626 4548 
Q 956 4906 1519 4906 
Q 2056 4906 2354 4581 
Q 2653 4256 2653 3684 
Q 2653 3097 2322 2744 
Q 1991 2391 1438 2391 
Q 919 2391 608 2722 
Q 297 3053 297 3597 
z
M 984 3631 
Q 984 2959 1478 2959 
Q 1981 2959 1981 3659 
Q 1981 4338 1500 4338 
Q 984 4338 984 3631 
z
M 4938 4841 
L 1791 -3 
L 1006 -3 
L 4147 4841 
L 4938 4841 
z
M 3297 1141 
Q 3297 1741 3631 2095 
Q 3966 2450 4522 2450 
Q 5059 2450 5357 2131 
Q 5656 1813 5656 1234 
Q 5656 641 5322 286 
Q 4988 -69 4438 -69 
Q 3922 -69 3609 264 
Q 3297 597 3297 1141 
z
M 3981 1175 
Q 3981 500 4478 500 
Q 4978 500 4978 1200 
Q 4978 1528 4845 1704 
Q 4713 1881 4491 1881 
Q 3981 1881 3981 1175 
z
" transform="scale(0.015625)"/>
     </defs>
     <use xlink:href="#MicrosoftYaHei-Bold-39"/>
     <use xlink:href="#MicrosoftYaHei-Bold-31" transform="translate(61.669922 0)"/>
     <use xlink:href="#MicrosoftYaHei-Bold-25" transform="translate(123.339844 0)"/>
    </g>
   </g>
   <g id="text_16">
    <!-- 86% -->
    <g style="fill: #27ae60" transform="translate(140.660905 112.949208) scale(0.08 -0.08)">
     <defs>
      <path id="MicrosoftYaHei-Bold-38" d="M 269 1303 
Q 269 1725 512 2053 
Q 756 2381 1219 2534 
Q 850 2719 648 3003 
Q 447 3288 447 3634 
Q 447 3997 645 4292 
Q 844 4588 1200 4755 
Q 1556 4922 1997 4922 
Q 2441 4922 2800 4758 
Q 3159 4594 3359 4298 
Q 3559 4003 3559 3647 
Q 3559 3309 3339 3018 
Q 3119 2728 2747 2559 
Q 3200 2403 3453 2076 
Q 3706 1750 3706 1313 
Q 3706 697 3228 309 
Q 2750 -78 1988 -78 
Q 1225 -78 747 309 
Q 269 697 269 1303 
z
M 1278 1394 
Q 1278 1056 1472 853 
Q 1666 650 1991 650 
Q 2303 650 2503 853 
Q 2703 1056 2703 1394 
Q 2703 1709 2500 1920 
Q 2297 2131 1991 2131 
Q 1675 2131 1476 1920 
Q 1278 1709 1278 1394 
z
M 1428 3531 
Q 1428 3266 1592 3077 
Q 1756 2888 2006 2888 
Q 2247 2888 2415 3072 
Q 2584 3256 2584 3531 
Q 2584 3806 2420 3997 
Q 2256 4188 2006 4188 
Q 1750 4188 1589 3997 
Q 1428 3806 1428 3531 
z
" transform="scale(0.015625)"/>
      <path id="MicrosoftYaHei-Bold-36" d="M 3378 3938 
Q 3009 4147 2575 4147 
Q 2016 4147 1680 3708 
Q 1344 3269 1344 2572 
L 1363 2572 
Q 1709 3103 2391 3103 
Q 3000 3103 3358 2686 
Q 3716 2269 3716 1600 
Q 3716 869 3250 392 
Q 2784 -84 2059 -84 
Q 1228 -84 786 516 
Q 344 1116 344 2159 
Q 344 3388 917 4155 
Q 1491 4922 2513 4922 
Q 3063 4922 3378 4791 
L 3378 3938 
z
M 1378 1591 
Q 1378 1216 1565 953 
Q 1753 691 2059 691 
Q 2369 691 2547 931 
Q 2725 1172 2725 1534 
Q 2725 2350 2053 2350 
Q 1750 2350 1564 2134 
Q 1378 1919 1378 1591 
z
" transform="scale(0.015625)"/>
     </defs>
     <use xlink:href="#MicrosoftYaHei-Bold-38"/>
     <use xlink:href="#MicrosoftYaHei-Bold-36" transform="translate(61.669922 0)"/>
     <use xlink:href="#MicrosoftYaHei-Bold-25" transform="translate(123.339844 0)"/>
    </g>
   </g>
   <g id="text_17">
    <!-- 83% -->
    <g style="fill: #27ae60" transform="translate(204.76051 125.714542) scale(0.08 -0.08)">
     <defs>
      <path id="MicrosoftYaHei-Bold-33" d="M 494 1053 
Q 978 691 1625 691 
Q 2034 691 2275 872 
Q 2516 1053 2516 1388 
Q 2516 1731 2230 1912 
Q 1944 2094 1428 2094 
L 997 2094 
L 997 2872 
L 1394 2872 
Q 2369 2872 2369 3528 
Q 2369 4147 1622 4147 
Q 1134 4147 675 3828 
L 675 4663 
Q 1175 4922 1853 4922 
Q 2541 4922 2969 4605 
Q 3397 4288 3397 3725 
Q 3397 2775 2434 2531 
L 2434 2516 
Q 2941 2459 3244 2145 
Q 3547 1831 3547 1381 
Q 3547 691 3042 303 
Q 2538 -84 1697 -84 
Q 950 -84 494 163 
L 494 1053 
z
" transform="scale(0.015625)"/>
     </defs>
     <use xlink:href="#MicrosoftYaHei-Bold-38"/>
     <use xlink:href="#MicrosoftYaHei-Bold-33" transform="translate(61.669922 0)"/>
     <use xlink:href="#MicrosoftYaHei-Bold-25" transform="translate(123.339844 0)"/>
    </g>
   </g>
   <g id="text_18">
    <!-- 88% -->
    <g style="fill: #27ae60" transform="translate(268.860115 93.801208) scale(0.08 -0.08)">
     <use xlink:href="#MicrosoftYaHei-Bold-38"/>
     <use xlink:href="#MicrosoftYaHei-Bold-38" transform="translate(61.669922 0)"/>
     <use xlink:href="#MicrosoftYaHei-Bold-25" transform="translate(123.339844 0)"/>
    </g>
   </g>
   <g id="text_19">
    <!-- 89% -->
    <g style="fill: #27ae60" transform="translate(332.95972 87.418542) scale(0.08 -0.08)">
     <use xlink:href="#MicrosoftYaHei-Bold-38"/>
     <use xlink:href="#MicrosoftYaHei-Bold-39" transform="translate(61.669922 0)"/>
     <use xlink:href="#MicrosoftYaHei-Bold-25" transform="translate(123.339844 0)"/>
    </g>
   </g>
   <g id="text_20">
    <!-- 82% -->
    <g style="fill: #27ae60" transform="translate(397.059324 93.801208) scale(0.08 -0.08)">
     <defs>
      <path id="MicrosoftYaHei-Bold-32" d="M 1500 841 
L 3553 841 
L 3553 0 
L 334 0 
L 334 359 
Q 334 738 473 1050 
Q 613 1363 856 1633 
Q 1100 1903 1613 2266 
Q 2081 2616 2268 2886 
Q 2456 3156 2456 3459 
Q 2456 4113 1744 4113 
Q 1119 4113 550 3613 
L 550 4513 
Q 1184 4922 1975 4922 
Q 2700 4922 3122 4551 
Q 3544 4181 3544 3531 
Q 3544 3169 3422 2876 
Q 3300 2584 3069 2328 
Q 2838 2072 2328 1713 
Q 1838 1363 1669 1172 
Q 1500 981 1500 841 
z
" transform="scale(0.015625)"/>
     </defs>
     <use xlink:href="#MicrosoftYaHei-Bold-38"/>
     <use xlink:href="#MicrosoftYaHei-Bold-32" transform="translate(61.669922 0)"/>
     <use xlink:href="#MicrosoftYaHei-Bold-25" transform="translate(123.339844 0)"/>
    </g>
   </g>
   <g id="text_21">
    <!-- 各科复习时间 · 计划 vs 实际有效利用 -->
    <g style="fill: #1a1a2e" transform="translate(136.908281 17.591875) scale(0.13 -0.13)">
     <defs>
      <path id="MicrosoftYaHei-Bold-5404" d="M 5669 4747 
L 5669 4028 
Q 5081 3400 4266 2925 
Q 5178 2700 6306 2678 
Q 6100 2184 5956 1797 
Q 4394 1953 3241 2428 
Q 2028 1941 444 1709 
Q 313 2047 100 2516 
Q 1313 2622 2291 2919 
Q 1831 3213 1463 3578 
Q 1078 3206 631 2891 
Q 419 3209 119 3578 
Q 1256 4322 1844 5347 
L 2713 5197 
Q 2581 4966 2434 4747 
L 5669 4747 
z
M 3244 3272 
Q 3934 3588 4475 4022 
L 2059 4022 
Q 2572 3572 3244 3272 
z
M 1000 -841 
L 1000 1703 
L 5475 1703 
L 5475 -841 
L 4638 -841 
L 4638 -547 
L 1838 -547 
L 1838 -841 
L 1000 -841 
z
M 4638 1003 
L 1838 1003 
L 1838 153 
L 4638 153 
L 4638 1003 
z
" transform="scale(0.015625)"/>
      <path id="MicrosoftYaHei-Bold-79d1" d="M 2494 1316 
L 4525 1500 
L 4525 5309 
L 5406 5309 
L 5406 1581 
L 6256 1659 
L 6325 866 
L 5406 781 
L 5406 -834 
L 4525 -834 
L 4525 703 
L 2600 528 
L 2494 1316 
z
M 88 1128 
Q 684 1850 1009 2709 
L 144 2709 
L 144 3516 
L 1038 3516 
L 1038 4216 
L 281 4147 
Q 219 4572 138 4891 
Q 1431 4991 2525 5147 
L 2763 4416 
Q 2341 4356 1850 4300 
L 1850 3516 
L 2663 3516 
L 2663 2709 
L 1850 2709 
L 1850 2172 
L 2150 2453 
Q 2600 2053 2913 1728 
L 2388 1253 
Q 2078 1616 1850 1863 
L 1850 -834 
L 1038 -834 
L 1038 1278 
Q 744 659 375 128 
Q 269 541 88 1128 
z
M 3419 4866 
Q 3894 4516 4475 3991 
L 3894 3416 
Q 3425 3916 2894 4334 
L 3419 4866 
z
M 3206 3278 
Q 3756 2872 4275 2397 
L 3688 1828 
Q 3263 2278 2675 2734 
L 3206 3278 
z
" transform="scale(0.015625)"/>
      <path id="MicrosoftYaHei-Bold-590d" d="M 5738 1528 
L 5738 1003 
Q 5091 600 4322 259 
Q 5197 78 6306 -16 
Q 6000 -428 5819 -791 
Q 4391 -569 3278 -153 
Q 2125 -559 744 -853 
Q 550 -541 275 -178 
Q 1394 3 2341 256 
Q 1872 500 1478 788 
Q 1069 416 581 116 
Q 363 391 75 691 
Q 925 1194 1459 1816 
L 844 1816 
L 844 3406 
Q 600 3128 325 2872 
Q 238 3266 94 3759 
Q 831 4484 1188 5334 
L 2063 5334 
Q 1978 5144 1888 4959 
L 6181 4959 
L 6181 4334 
L 1538 4334 
Q 1434 4172 1325 4016 
L 5738 4016 
L 5738 1816 
L 2372 1816 
Q 2272 1666 2163 1528 
L 5738 1528 
z
M 4906 3478 
L 1675 3478 
L 1675 3141 
L 4906 3141 
L 4906 3478 
z
M 4906 2353 
L 4906 2691 
L 1675 2691 
L 1675 2353 
L 4906 2353 
z
M 3269 541 
Q 3897 753 4438 1009 
L 2231 1009 
Q 2669 744 3269 541 
z
" transform="scale(0.015625)"/>
      <path id="MicrosoftYaHei-Bold-4e60" d="M 3431 -709 
Q 3344 -272 3206 241 
Q 3878 197 4350 197 
Q 4750 197 4826 562 
Q 4903 928 4925 4066 
L 500 4066 
L 500 4903 
L 5863 4903 
Q 5853 3694 5813 2238 
L 5750 353 
Q 5728 -75 5509 -334 
Q 5291 -594 4930 -647 
Q 4569 -700 3431 -709 
z
M 1300 3259 
L 1813 3916 
Q 2806 3241 3500 2709 
L 2881 1959 
Q 2088 2647 1300 3259 
z
M 300 1009 
Q 2669 1666 4656 2372 
Q 4656 2078 4669 1484 
Q 2856 822 625 53 
L 300 1009 
z
" transform="scale(0.015625)"/>
      <path id="MicrosoftYaHei-Bold-65f6" d="M 3038 4241 
L 4888 4241 
L 4888 5291 
L 5781 5291 
L 5781 4241 
L 6306 4241 
L 6306 3409 
L 5781 3409 
L 5781 316 
Q 5781 -209 5547 -478 
Q 5313 -747 4898 -762 
Q 4484 -778 3669 -778 
Q 3569 -209 3456 134 
Q 4344 109 4431 109 
Q 4888 109 4888 584 
L 4888 3409 
L 3038 3409 
L 3038 4241 
z
M 394 -497 
L 394 4897 
L 2856 4897 
L 2856 -459 
L 2031 -459 
L 2031 -28 
L 1219 -28 
L 1219 -497 
L 394 -497 
z
M 2031 4072 
L 1219 4072 
L 1219 2834 
L 2031 2834 
L 2031 4072 
z
M 1219 797 
L 2031 797 
L 2031 2034 
L 1219 2034 
L 1219 797 
z
M 3588 3072 
Q 4013 2541 4713 1559 
L 3956 1066 
Q 3388 2009 2938 2641 
L 3588 3072 
z
" transform="scale(0.015625)"/>
      <path id="MicrosoftYaHei-Bold-95f4" d="M 1088 5059 
L 1906 5347 
Q 2200 4884 2506 4334 
L 1638 4003 
Q 1356 4597 1088 5059 
z
M 6056 347 
Q 6056 -106 5904 -378 
Q 5753 -650 5422 -736 
Q 5091 -822 3950 -822 
Q 3875 -359 3750 53 
Q 4150 28 4769 28 
Q 5188 28 5188 397 
L 5188 4278 
L 2719 4278 
L 2719 5047 
L 6056 5047 
L 6056 347 
z
M 344 4522 
L 1213 4522 
L 1213 -803 
L 344 -803 
L 344 4522 
z
M 1788 3772 
L 4581 3772 
L 4581 484 
L 2575 484 
L 2575 141 
L 1788 141 
L 1788 3772 
z
M 3794 3072 
L 2575 3072 
L 2575 2478 
L 3794 2478 
L 3794 3072 
z
M 3794 1184 
L 3794 1778 
L 2575 1778 
L 2575 1184 
L 3794 1184 
z
" transform="scale(0.015625)"/>
      <path id="MicrosoftYaHei-Bold-20" transform="scale(0.015625)"/>
      <path id="MicrosoftYaHei-Bold-b7" d="M 1406 2959 
Q 1769 2959 2028 2700 
Q 2288 2441 2288 2078 
Q 2288 1713 2028 1455 
Q 1769 1197 1406 1197 
Q 1041 1197 783 1455 
Q 525 1713 525 2078 
Q 525 2441 783 2700 
Q 1041 2959 1406 2959 
z
" transform="scale(0.015625)"/>
      <path id="MicrosoftYaHei-Bold-8ba1" d="M 1194 5334 
Q 1681 4678 2019 4172 
L 1219 3691 
Q 913 4241 463 4916 
L 1194 5334 
z
M 2175 3428 
L 3763 3428 
L 3763 5328 
L 4700 5328 
L 4700 3428 
L 6300 3428 
L 6300 2591 
L 4700 2591 
L 4700 -847 
L 3763 -847 
L 3763 2591 
L 2175 2591 
L 2175 3428 
z
M 2481 1341 
Q 2531 759 2588 416 
Q 1388 -366 1063 -722 
L 600 -109 
Q 756 78 756 416 
L 756 2422 
L 119 2422 
L 119 3234 
L 1588 3234 
L 1588 766 
Q 1844 916 2481 1341 
z
" transform="scale(0.015625)"/>
      <path id="MicrosoftYaHei-Bold-5212" d="M 2456 5322 
Q 2913 4984 3381 4547 
L 2838 4022 
Q 2444 4441 1963 4841 
L 2456 5322 
z
M 6031 5272 
L 6031 -22 
Q 6031 -369 5864 -551 
Q 5697 -734 5280 -756 
Q 4863 -778 4538 -772 
Q 4456 -328 4325 47 
Q 4609 28 4847 28 
Q 5056 28 5118 89 
Q 5181 150 5181 328 
L 5181 5272 
L 6031 5272 
z
M 2769 2891 
L 3506 2503 
Q 2978 1538 2219 763 
Q 2341 475 2520 294 
Q 2700 113 2834 113 
Q 2872 113 2922 136 
Q 2972 159 3039 501 
Q 3106 844 3138 1091 
Q 3269 1016 3900 741 
Q 3725 -234 3509 -521 
Q 3294 -809 2944 -809 
Q 2009 -809 1531 138 
Q 1078 -228 563 -541 
Q 338 -122 81 234 
Q 722 566 1241 981 
Q 1041 1838 972 2825 
L 244 2709 
L 106 3497 
L 931 3622 
L 850 5266 
L 1731 5266 
Q 1744 4500 1778 3750 
L 3425 3997 
L 3550 3234 
L 1822 2959 
Q 1872 2328 1981 1694 
Q 2453 2238 2769 2891 
z
M 4625 897 
L 3800 897 
L 3800 4678 
L 4625 4678 
L 4625 897 
z
" transform="scale(0.015625)"/>
      <path id="MicrosoftYaHei-Bold-76" d="M 3688 3456 
L 2391 0 
L 1250 0 
L 16 3456 
L 1097 3456 
L 1731 1281 
Q 1834 925 1847 684 
L 1863 684 
Q 1888 931 1984 1263 
L 2631 3456 
L 3688 3456 
z
" transform="scale(0.015625)"/>
      <path id="MicrosoftYaHei-Bold-73" d="M 369 928 
Q 888 613 1384 613 
Q 2009 613 2009 947 
Q 2009 1184 1494 1344 
Q 850 1544 609 1789 
Q 369 2034 369 2453 
Q 369 2963 781 3252 
Q 1194 3541 1863 3541 
Q 2338 3541 2778 3400 
L 2778 2606 
Q 2375 2844 1891 2844 
Q 1650 2844 1503 2758 
Q 1356 2672 1356 2531 
Q 1356 2294 1794 2147 
Q 2263 1991 2498 1862 
Q 2734 1734 2857 1525 
Q 2981 1316 2981 1041 
Q 2981 506 2553 211 
Q 2125 -84 1409 -84 
Q 847 -84 369 94 
L 369 928 
z
" transform="scale(0.015625)"/>
      <path id="MicrosoftYaHei-Bold-5b9e" d="M 4219 3716 
Q 4181 2422 4056 1653 
L 6238 1653 
L 6238 878 
L 3863 878 
Q 3850 841 3813 766 
Q 5019 372 6206 -66 
L 5881 -847 
Q 4619 -316 3369 153 
Q 2550 -616 863 -916 
Q 556 -384 331 -78 
Q 2338 209 2894 878 
L 169 878 
L 169 1653 
L 2144 1653 
Q 1481 2053 931 2328 
L 1319 2934 
Q 1894 2659 2638 2247 
L 2244 1653 
L 3175 1653 
Q 3331 2453 3350 3716 
L 4219 3716 
z
M 300 3078 
L 300 4703 
L 2819 4703 
Q 2700 5009 2606 5228 
L 3675 5341 
Q 3769 5084 3888 4703 
L 6094 4703 
L 6094 3078 
L 5225 3078 
L 5225 3953 
L 1169 3953 
L 1169 3078 
L 300 3078 
z
M 1813 3772 
Q 2469 3484 3163 3134 
L 2769 2497 
Q 2031 2909 1450 3184 
L 1813 3772 
z
" transform="scale(0.015625)"/>
      <path id="MicrosoftYaHei-Bold-9645" d="M 1894 2759 
Q 2431 2147 2431 1247 
Q 2431 694 2147 459 
Q 1863 225 1288 209 
Q 1238 722 1125 1134 
Q 1250 1116 1350 1116 
Q 1694 1116 1694 1416 
Q 1694 2028 1138 2666 
Q 1413 3541 1606 4322 
L 1106 4322 
L 1106 -859 
L 331 -859 
L 331 5047 
L 2419 5047 
L 2419 4447 
Q 2206 3716 1894 2759 
z
M 2744 4972 
L 5994 4972 
L 5994 4159 
L 2744 4159 
L 2744 4972 
z
M 2969 2166 
L 3694 1959 
Q 3366 906 3009 53 
Q 3294 22 3575 22 
Q 3944 22 3944 397 
L 3944 2597 
L 2488 2597 
L 2488 3409 
L 6225 3409 
L 6225 2597 
L 4794 2597 
L 4794 53 
Q 4794 -291 4655 -495 
Q 4516 -700 4277 -754 
Q 4038 -809 3175 -809 
Q 3100 -344 3006 44 
L 2931 -134 
Q 2563 41 2206 166 
Q 2619 1009 2969 2166 
z
M 5638 2147 
Q 5981 1309 6375 166 
L 5625 -122 
Q 5275 978 4913 1884 
L 5638 2147 
z
" transform="scale(0.015625)"/>
      <path id="MicrosoftYaHei-Bold-6709" d="M 2094 -816 
L 1194 -816 
L 1194 1938 
Q 778 1509 306 1134 
Q 206 1641 94 2109 
Q 1022 2906 1603 3891 
L 150 3891 
L 150 4672 
L 2000 4672 
Q 2141 5006 2250 5359 
L 3238 5209 
Q 3134 4934 3019 4672 
L 6256 4672 
L 6256 3891 
L 2631 3891 
Q 2506 3656 2366 3434 
L 5663 3434 
L 5663 47 
Q 5663 -344 5475 -555 
Q 5288 -766 4953 -797 
Q 4619 -828 3650 -828 
Q 3563 -403 3406 28 
Q 3944 -3 4406 -3 
Q 4763 -3 4763 347 
L 4763 453 
L 2094 453 
L 2094 -816 
z
M 4763 2703 
L 2094 2703 
L 2094 2247 
L 4763 2247 
L 4763 2703 
z
M 2094 1122 
L 4763 1122 
L 4763 1578 
L 2094 1578 
L 2094 1122 
z
" transform="scale(0.015625)"/>
      <path id="MicrosoftYaHei-Bold-6548" d="M 1169 2122 
L 1806 1500 
Q 2019 1891 2131 2341 
L 2778 2159 
Q 2425 2663 1944 3203 
L 2550 3634 
Q 2841 3325 3084 3041 
Q 3653 4084 3956 5359 
L 4769 5247 
Q 4666 4809 4506 4366 
L 6294 4366 
L 6294 3534 
L 5931 3534 
Q 5778 1931 5213 928 
Q 5666 353 6319 22 
Q 6100 -278 5788 -809 
Q 5156 -378 4703 216 
Q 4141 -419 3331 -866 
Q 3069 -478 2756 -147 
Q 3644 325 4213 1000 
Q 3863 1697 3688 2556 
Q 3534 2281 3363 2003 
Q 3259 2166 3128 2363 
L 2838 2144 
L 2919 2122 
Q 2725 1472 2394 919 
Q 2791 519 3081 209 
L 2475 -372 
Q 2219 -59 1928 266 
Q 1375 -388 581 -866 
Q 350 -484 56 -91 
Q 856 300 1366 872 
Q 1013 1241 619 1628 
L 1169 2122 
z
M 4713 1772 
Q 5038 2481 5147 3534 
L 4256 3534 
Q 4378 2525 4713 1772 
z
M 200 4553 
L 1388 4553 
Q 1294 4847 1163 5178 
L 2000 5359 
Q 2163 4922 2259 4553 
L 3325 4553 
L 3325 3778 
L 200 3778 
L 200 4553 
z
M 950 3609 
L 1663 3272 
Q 1200 2441 625 1872 
Q 269 2284 75 2466 
Q 588 2984 950 3609 
z
" transform="scale(0.015625)"/>
      <path id="MicrosoftYaHei-Bold-5229" d="M 6031 5272 
L 6031 72 
Q 6031 -456 5684 -632 
Q 5338 -809 4119 -784 
Q 4031 -297 3906 59 
Q 4184 44 4513 44 
Q 4719 44 4872 48 
Q 5025 53 5103 154 
Q 5181 256 5181 453 
L 5181 5272 
L 6031 5272 
z
M 75 928 
Q 934 1853 1338 2709 
L 125 2709 
L 125 3516 
L 1400 3516 
L 1400 4203 
L 288 4103 
Q 206 4622 144 4897 
Q 1581 4984 3169 5166 
L 3325 4397 
L 2238 4284 
L 2238 3516 
L 3400 3516 
L 3400 2709 
L 2238 2709 
L 2238 2025 
L 2431 2228 
Q 2806 1928 3563 1272 
L 2963 666 
L 2238 1406 
L 2238 -859 
L 1400 -859 
L 1400 1344 
Q 988 600 413 -78 
Q 294 328 75 928 
z
M 4475 641 
L 3650 641 
L 3650 4678 
L 4475 4678 
L 4475 641 
z
" transform="scale(0.015625)"/>
      <path id="MicrosoftYaHei-Bold-7528" d="M 5925 134 
Q 5925 -263 5744 -480 
Q 5563 -697 5189 -736 
Q 4816 -775 4206 -766 
Q 4100 -284 3956 141 
Q 4600 103 4656 103 
Q 5050 103 5050 484 
L 5050 1053 
L 3750 1053 
L 3750 -697 
L 2869 -697 
L 2869 1053 
L 1516 1053 
Q 1419 -325 988 -872 
Q 588 -584 181 -347 
Q 688 341 669 2097 
L 669 5041 
L 5925 5041 
L 5925 134 
z
M 1544 3441 
L 2869 3441 
L 2869 4216 
L 1544 4216 
L 1544 3441 
z
M 5050 4216 
L 3750 4216 
L 3750 3441 
L 5050 3441 
L 5050 4216 
z
M 1544 1859 
L 2869 1859 
L 2869 2634 
L 1544 2634 
L 1544 1859 
z
M 3750 1859 
L 5050 1859 
L 5050 2634 
L 3750 2634 
L 3750 1859 
z
" transform="scale(0.015625)"/>
     </defs>
     <use xlink:href="#MicrosoftYaHei-Bold-5404"/>
     <use xlink:href="#MicrosoftYaHei-Bold-79d1" transform="translate(100 0)"/>
     <use xlink:href="#MicrosoftYaHei-Bold-590d" transform="translate(200 0)"/>
     <use xlink:href="#MicrosoftYaHei-Bold-4e60" transform="translate(300 0)"/>
     <use xlink:href="#MicrosoftYaHei-Bold-65f6" transform="translate(400 0)"/>
     <use xlink:href="#MicrosoftYaHei-Bold-95f4" transform="translate(500 0)"/>
     <use xlink:href="#MicrosoftYaHei-Bold-20" transform="translate(600 0)"/>
     <use xlink:href="#MicrosoftYaHei-Bold-b7" transform="translate(629.785156 0)"/>
     <use xlink:href="#MicrosoftYaHei-Bold-20" transform="translate(673.730469 0)"/>
     <use xlink:href="#MicrosoftYaHei-Bold-8ba1" transform="translate(703.515625 0)"/>
     <use xlink:href="#MicrosoftYaHei-Bold-5212" transform="translate(803.515625 0)"/>
     <use xlink:href="#MicrosoftYaHei-Bold-20" transform="translate(903.515625 0)"/>
     <use xlink:href="#MicrosoftYaHei-Bold-76" transform="translate(933.300781 0)"/>
     <use xlink:href="#MicrosoftYaHei-Bold-73" transform="translate(991.015625 0)"/>
     <use xlink:href="#MicrosoftYaHei-Bold-20" transform="translate(1040.380859 0)"/>
     <use xlink:href="#MicrosoftYaHei-Bold-5b9e" transform="translate(1070.166016 0)"/>
     <use xlink:href="#MicrosoftYaHei-Bold-9645" transform="translate(1170.166016 0)"/>
     <use xlink:href="#MicrosoftYaHei-Bold-6709" transform="translate(1270.166016 0)"/>
     <use xlink:href="#MicrosoftYaHei-Bold-6548" transform="translate(1370.166016 0)"/>
     <use xlink:href="#MicrosoftYaHei-Bold-5229" transform="translate(1470.166016 0)"/>
     <use xlink:href="#MicrosoftYaHei-Bold-7528" transform="translate(1570.166016 0)"/>
    </g>
   </g>
   <g id="legend_1">
    <g id="patch_17">
     <path d="M 377.083438 58.655312 
L 441.883438 58.655312 
Q 443.683438 58.655312 443.683438 56.855312 
L 443.683438 29.891875 
Q 443.683438 28.091875 441.883438 28.091875 
L 377.083438 28.091875 
Q 375.283437 28.091875 375.283437 29.891875 
L 375.283437 56.855312 
Q 375.283437 58.655312 377.083438 58.655312 
z
" style="fill: #ffffff; opacity: 0.8; stroke: #cccccc; stroke-linejoin: miter"/>
    </g>
    <g id="patch_18">
     <path d="M 378.883438 38.88625 
L 396.883438 38.88625 
L 396.883438 32.58625 
L 378.883438 32.58625 
z
" style="fill: #d5b0b0; stroke: #ffffff; stroke-linejoin: miter"/>
    </g>
    <g id="text_22">
     <!-- 计划时间 -->
     <g transform="translate(404.083438 38.88625) scale(0.09 -0.09)">
      <defs>
       <path id="MicrosoftYaHei-8ba1" d="M 2100 3153 
L 3919 3153 
L 3919 5303 
L 4456 5303 
L 4456 3153 
L 6288 3153 
L 6288 2703 
L 4456 2703 
L 4456 -822 
L 3919 -822 
L 3919 2703 
L 2100 2703 
L 2100 3153 
z
M 2675 903 
Q 2694 578 2719 359 
Q 1719 -266 1069 -728 
L 769 -303 
Q 988 -116 988 266 
L 988 2741 
L 100 2741 
L 100 3191 
L 1488 3191 
L 1488 153 
Q 2031 484 2675 903 
z
M 738 5222 
Q 1419 4522 1725 4184 
L 1288 3816 
Q 894 4334 356 4891 
L 738 5222 
z
" transform="scale(0.015625)"/>
       <path id="MicrosoftYaHei-5212" d="M 75 -28 
Q 881 394 1547 975 
Q 1297 1694 1209 3053 
L 256 2884 
L 181 3328 
L 1184 3503 
Q 1144 4291 1113 5266 
L 1613 5266 
Q 1628 4341 1659 3584 
L 3688 3941 
L 3744 3503 
L 1681 3138 
Q 1753 1975 1934 1331 
Q 2622 2019 3144 2897 
L 3563 2634 
Q 2913 1609 2100 831 
Q 2391 91 2850 -191 
Q 3188 -391 3281 -9 
Q 3363 422 3425 953 
Q 3725 828 3919 772 
Q 3800 66 3700 -291 
Q 3575 -791 3131 -791 
Q 2781 -791 2456 -547 
Q 2019 -178 1728 494 
Q 1122 -25 431 -422 
Q 300 -259 75 -28 
z
M 5425 5272 
L 5919 5272 
L 5919 53 
Q 5919 -728 5194 -734 
Q 4856 -741 4256 -728 
Q 4225 -441 4156 -197 
Q 4619 -241 5031 -247 
Q 5425 -253 5425 172 
L 5425 5272 
z
M 4594 853 
L 4113 853 
L 4113 4672 
L 4594 4672 
L 4594 853 
z
M 2000 4803 
L 2288 5109 
Q 2719 4797 3131 4441 
L 2800 4084 
Q 2463 4428 2000 4803 
z
" transform="scale(0.015625)"/>
       <path id="MicrosoftYaHei-65f6" d="M 344 4728 
L 2500 4728 
L 2500 -366 
L 2006 -366 
L 2006 153 
L 838 153 
L 838 -441 
L 344 -441 
L 344 4728 
z
M 2706 3941 
L 4925 3941 
L 4925 5322 
L 5425 5322 
L 5425 3941 
L 6313 3941 
L 6313 3478 
L 5425 3478 
L 5425 116 
Q 5425 -722 4625 -722 
Q 4263 -722 3563 -703 
Q 3531 -478 3463 -178 
Q 4119 -228 4488 -228 
Q 4925 -228 4925 216 
L 4925 3478 
L 2706 3478 
L 2706 3941 
z
M 838 616 
L 2006 616 
L 2006 2234 
L 838 2234 
L 838 616 
z
M 2006 4266 
L 838 4266 
L 838 2684 
L 2006 2684 
L 2006 4266 
z
M 3406 2878 
Q 3906 1966 4163 1422 
Q 4000 1347 3663 1172 
Q 3419 1766 2963 2653 
L 3406 2878 
z
" transform="scale(0.015625)"/>
       <path id="MicrosoftYaHei-95f4" d="M 1863 3647 
L 4513 3647 
L 4513 553 
L 2313 553 
L 2313 166 
L 1863 166 
L 1863 3647 
z
M 2388 4453 
L 2388 4922 
L 6013 4922 
L 6013 -28 
Q 6013 -816 5119 -816 
Q 4756 -816 4169 -803 
Q 4144 -616 4069 -297 
Q 4588 -334 5056 -334 
Q 5525 -334 5525 122 
L 5525 4453 
L 2388 4453 
z
M 419 4084 
L 906 4084 
L 906 -816 
L 419 -816 
L 419 4084 
z
M 2313 997 
L 4063 997 
L 4063 1884 
L 2313 1884 
L 2313 997 
z
M 4063 3203 
L 2313 3203 
L 2313 2328 
L 4063 2328 
L 4063 3203 
z
M 744 5003 
L 1100 5322 
Q 1575 4872 1981 4447 
L 1575 4091 
Q 1194 4541 744 5003 
z
" transform="scale(0.015625)"/>
      </defs>
      <use xlink:href="#MicrosoftYaHei-8ba1"/>
      <use xlink:href="#MicrosoftYaHei-5212" transform="translate(100 0)"/>
      <use xlink:href="#MicrosoftYaHei-65f6" transform="translate(200 0)"/>
      <use xlink:href="#MicrosoftYaHei-95f4" transform="translate(300 0)"/>
     </g>
    </g>
    <g id="patch_19">
     <path d="M 378.883438 52.817969 
L 396.883438 52.817969 
L 396.883438 46.517969 
L 378.883438 46.517969 
z
" style="fill: #73bfaa; stroke: #ffffff; stroke-linejoin: miter"/>
    </g>
    <g id="text_23">
     <!-- 实际有效 -->
     <g transform="translate(404.083438 52.817969) scale(0.09 -0.09)">
      <defs>
       <path id="MicrosoftYaHei-5b9e" d="M 113 -397 
Q 2419 34 3081 972 
L 213 972 
L 213 1434 
L 3313 1434 
Q 3525 2084 3506 3703 
L 4031 3703 
Q 4031 2097 3856 1434 
L 6225 1434 
L 6225 972 
L 3681 972 
Q 3631 872 3563 759 
Q 4900 197 6181 -403 
L 5906 -878 
Q 4569 -197 3263 391 
Q 2413 -441 413 -891 
Q 269 -616 113 -397 
z
M 331 4422 
L 3194 4422 
Q 3038 4703 2775 5078 
L 3231 5334 
Q 3438 5059 3731 4609 
L 3388 4422 
L 6063 4422 
L 6063 3303 
L 5563 3303 
L 5563 3959 
L 831 3959 
L 831 3303 
L 331 3303 
L 331 4422 
z
M 1100 2734 
Q 1819 2409 2450 2053 
L 2181 1622 
Q 1556 2003 863 2334 
L 1100 2734 
z
M 1663 3691 
Q 2388 3341 2981 2984 
L 2700 2559 
Q 2119 2934 1419 3322 
L 1663 3691 
z
" transform="scale(0.015625)"/>
       <path id="MicrosoftYaHei-9645" d="M 2256 1678 
Q 2419 503 1656 334 
Q 1413 284 1025 328 
Q 975 584 888 834 
Q 1219 753 1469 784 
Q 1906 834 1763 1678 
Q 1675 2166 1169 2828 
Q 1425 3591 1681 4491 
L 850 4491 
L 850 -841 
L 375 -841 
L 375 4953 
L 2200 4953 
L 2200 4503 
Q 1913 3572 1694 2884 
Q 2194 2203 2256 1678 
z
M 2150 3228 
L 6225 3228 
L 6225 2766 
L 4425 2766 
L 4425 16 
Q 4425 -747 3688 -747 
Q 3394 -747 2938 -741 
Q 2881 -403 2838 -209 
Q 3313 -259 3575 -259 
Q 3938 -259 3938 122 
L 3938 2766 
L 2150 2766 
L 2150 3228 
z
M 2488 4803 
L 5888 4803 
L 5888 4341 
L 2488 4341 
L 2488 4803 
z
M 2969 2097 
L 3431 1928 
Q 2988 747 2481 -222 
Q 2206 -72 2038 -3 
Q 2594 1003 2969 2097 
z
M 4900 1872 
L 5331 2084 
Q 5844 1041 6300 53 
L 5844 -166 
Q 5494 641 4900 1872 
z
" transform="scale(0.015625)"/>
       <path id="MicrosoftYaHei-6709" d="M 1856 -816 
L 1363 -816 
L 1363 2419 
Q 909 1891 363 1403 
Q 231 1622 63 1859 
Q 1269 2869 1947 4097 
L 238 4097 
L 238 4559 
L 2181 4559 
Q 2359 4950 2488 5359 
L 3006 5241 
Q 2881 4894 2731 4559 
L 6263 4559 
L 6263 4097 
L 2506 4097 
Q 2313 3728 2081 3378 
L 5506 3378 
L 5506 41 
Q 5506 -734 4750 -734 
Q 4419 -741 3744 -741 
Q 3713 -528 3650 -228 
Q 4225 -272 4575 -272 
Q 5006 -272 5006 153 
L 5006 597 
L 1856 597 
L 1856 -816 
z
M 1856 1022 
L 5006 1022 
L 5006 1772 
L 1856 1772 
L 1856 1022 
z
M 5006 2941 
L 1856 2941 
L 1856 2197 
L 5006 2197 
L 5006 2941 
z
" transform="scale(0.015625)"/>
       <path id="MicrosoftYaHei-6548" d="M 4088 5334 
L 4581 5253 
Q 4453 4653 4259 4122 
L 6269 4122 
L 6269 3697 
L 5838 3697 
Q 5672 1869 5050 841 
Q 5572 128 6388 -347 
Q 6188 -622 6050 -841 
Q 5250 -313 4728 391 
Q 4153 -328 3300 -891 
Q 3163 -709 2944 -497 
Q 3872 125 4428 853 
Q 3897 1797 3753 3025 
Q 3603 2766 3431 2528 
Q 3300 2716 3119 2928 
Q 3844 3941 4088 5334 
z
M 694 1909 
L 1031 2203 
Q 1456 1800 1863 1394 
Q 2138 1847 2350 2378 
L 2800 2141 
Q 2538 1550 2209 1047 
Q 2659 591 3088 134 
L 2669 -222 
Q 2275 225 1913 625 
Q 1250 -238 356 -809 
Q 238 -641 31 -397 
Q 947 128 1584 981 
Q 1113 1491 694 1909 
z
M 5344 3697 
L 4125 3697 
Q 4222 2322 4741 1338 
Q 5263 2306 5344 3697 
z
M 175 4297 
L 3325 4297 
L 3325 3872 
L 175 3872 
L 175 4297 
z
M 1063 3628 
L 1475 3372 
Q 963 2641 413 1953 
Q 256 2084 44 2241 
Q 506 2797 1063 3628 
z
M 2344 3609 
Q 2744 3197 3263 2591 
L 2894 2278 
Q 2506 2759 2006 3341 
L 2344 3609 
z
M 1306 5141 
L 1731 5359 
Q 1988 4953 2206 4547 
L 1769 4322 
Q 1544 4772 1306 5141 
z
" transform="scale(0.015625)"/>
      </defs>
      <use xlink:href="#MicrosoftYaHei-5b9e"/>
      <use xlink:href="#MicrosoftYaHei-9645" transform="translate(100 0)"/>
      <use xlink:href="#MicrosoftYaHei-6709" transform="translate(200 0)"/>
      <use xlink:href="#MicrosoftYaHei-6548" transform="translate(300 0)"/>
     </g>
    </g>
   </g>
  </g>
 </g>
 <defs>
  <clipPath id="pf467f5df6c">
   <rect x="42.753438" y="23.591875" width="405.43" height="191.48"/>
  </clipPath>
 </defs>
</svg>
