<?xml version="1.0" encoding="utf-8" standalone="no"?>
<!DOCTYPE svg PUBLIC "-//W3C//DTD SVG 1.1//EN"
  "http://www.w3.org/Graphics/SVG/1.1/DTD/svg11.dtd">
<svg xmlns:xlink="http://www.w3.org/1999/xlink" width="259.04037pt" height="276.791875pt" viewBox="0 0 259.04037 276.791875" xmlns="http://www.w3.org/2000/svg" version="1.1">
 <metadata>
  <rdf:RDF xmlns:dc="http://purl.org/dc/elements/1.1/" xmlns:cc="http://creativecommons.org/ns#" xmlns:rdf="http://www.w3.org/1999/02/22-rdf-syntax-ns#">
   <cc:Work>
    <dc:type rdf:resource="http://purl.org/dc/dcmitype/StillImage"/>
    <dc:date>2026-05-25T15:25:19.560045</dc:date>
    <dc:format>image/svg+xml</dc:format>
    <dc:creator>
     <cc:Agent>
      <dc:title>Matplotlib v3.10.9, https://matplotlib.org/</dc:title>
     </cc:Agent>
    </dc:creator>
   </cc:Work>
  </rdf:RDF>
 </metadata>
 <defs>
  <style type="text/css">*{stroke-linejoin: round; stroke-linecap: butt}</style>
 </defs>
 <g id="figure_1">
  <g id="patch_1">
   <path d="M 0 276.791875 
L 259.04037 276.791875 
L 259.04037 0 
L 0 0 
z
" style="fill: #ffffff"/>
  </g>
  <g id="axes_1">
   <g id="patch_2">
    <path d="M 128.2 51.791875 
C 105.679406 51.791875 83.849776 59.651025 66.49736 74.006191 
C 49.144944 88.361358 37.334535 108.331667 33.114595 130.453359 
L 66.394487 136.801839 
C 69.137448 122.42274 76.814213 109.442039 88.093284 100.111181 
C 99.372354 90.780323 113.561614 85.671875 128.2 85.671875 
z
" style="fill: #2980b9; stroke: #ffffff; stroke-width: 2; stroke-linejoin: miter"/>
   </g>
   <g id="patch_3">
    <path d="M 33.114596 130.453365 
C 29.672958 148.49507 31.43628 167.149092 38.197636 184.226331 
C 44.958992 201.303571 56.443125 216.108824 71.302365 226.904704 
L 91.216537 199.495214 
C 81.558031 192.477892 74.093344 182.854477 69.698463 171.754271 
C 65.303582 160.654066 64.157423 148.528952 66.394488 136.801844 
z
" style="fill: #e74c3c; stroke: #ffffff; stroke-width: 2; stroke-linejoin: miter"/>
   </g>
   <g id="patch_4">
    <path d="M 71.302365 226.904704 
C 85.326207 237.093631 101.832817 243.330956 119.090313 244.962272 
C 136.347809 246.593583 153.730794 243.559772 169.415452 236.179128 
L 154.990044 205.52359 
C 144.795016 210.321008 133.496076 212.292985 122.278704 211.232633 
C 111.061331 210.172278 100.332034 206.118016 91.216537 199.495214 
z
" style="fill: #27ae60; stroke: #ffffff; stroke-width: 2; stroke-linejoin: miter"/>
   </g>
   <g id="patch_5">
    <path d="M 169.415452 236.179128 
C 182.307936 230.112385 193.703331 221.273199 202.785704 210.294489 
C 211.868078 199.315778 218.415377 186.46597 221.958851 172.665049 
L 189.143253 164.239438 
C 186.839995 173.210037 182.584251 181.562412 176.680708 188.698574 
C 170.777165 195.834736 163.370158 201.580206 154.990044 205.52359 
z
" style="fill: #e67e22; stroke: #ffffff; stroke-width: 2; stroke-linejoin: miter"/>
   </g>
   <g id="patch_6">
    <path d="M 221.958851 172.665049 
C 224.992903 160.848191 225.765782 148.563589 224.236705 136.459642 
C 222.707623 124.355696 218.903958 112.6492 213.02649 101.958128 
L 183.337218 118.279939 
C 187.157572 125.229136 189.629955 132.838359 190.623858 140.705924 
C 191.617758 148.573489 191.115387 156.558481 189.143253 164.239438 
z
" style="fill: #8e44ad; stroke: #ffffff; stroke-width: 2; stroke-linejoin: miter"/>
   </g>
   <g id="patch_7">
    <path d="M 213.02649 101.958128 
C 204.675574 86.767866 192.395696 74.096005 177.475239 65.272064 
C 162.554782 56.448122 145.534473 51.791887 128.20006 51.791875 
L 128.200039 85.671875 
C 139.467408 85.671883 150.530608 88.698435 160.228905 94.433998 
C 169.927203 100.16956 177.909123 108.406269 183.337218 118.279939 
z
" style="fill: #d18080; stroke: #ffffff; stroke-width: 2; stroke-linejoin: miter"/>
   </g>
   <g id="matplotlib.axis_1"/>
   <g id="matplotlib.axis_2"/>
   <g id="text_1">
    <!-- 数学 -->
    <g transform="translate(42.327077 69.026155) scale(0.09 -0.09)">
     <defs>
      <path id="MicrosoftYaHei-6570" d="M 4175 5303 
L 4675 5228 
Q 4544 4622 4369 4097 
L 6281 4097 
L 6281 3672 
L 5888 3672 
Q 5731 1834 5088 753 
Q 5594 66 6375 -372 
Q 6175 -647 6038 -866 
Q 5275 -372 4769 309 
Q 4194 -403 3400 -928 
Q 3263 -747 3044 -534 
Q 3919 41 4463 772 
Q 3956 1647 3794 2791 
Q 3663 2559 3519 2359 
Q 3394 2541 3206 2759 
Q 3931 3803 4175 5303 
z
M 150 1697 
L 1100 1697 
Q 1238 1934 1369 2184 
L 1819 2041 
Q 1719 1866 1619 1697 
L 3150 1697 
L 3150 1291 
Q 2913 678 2431 216 
Q 2775 53 3131 -109 
L 2856 -541 
Q 2469 -322 2050 -103 
Q 1344 -609 269 -903 
Q 169 -703 56 -466 
Q 969 -259 1600 128 
Q 1063 403 475 691 
Q 675 978 863 1284 
L 150 1284 
L 150 1697 
z
M 219 3847 
L 1656 3847 
L 1656 5247 
L 2119 5247 
L 2119 3847 
L 3319 3847 
L 3319 3434 
L 2119 3434 
L 2119 3053 
L 2306 3266 
Q 2888 2841 3281 2516 
L 2981 2166 
Q 2638 2491 2119 2897 
L 2119 2184 
L 1656 2184 
L 1656 3059 
Q 1088 2466 331 2016 
Q 213 2197 63 2397 
Q 850 2822 1506 3434 
L 219 3434 
L 219 3847 
z
M 5388 3672 
L 4219 3672 
Q 4188 3591 4150 3516 
Q 4263 2191 4775 1247 
Q 5275 2159 5388 3672 
z
M 1088 834 
Q 1531 634 2000 416 
Q 2431 784 2675 1284 
L 1375 1284 
Q 1231 1053 1088 834 
z
M 3038 5091 
L 3425 4834 
Q 3081 4384 2738 4003 
Q 2594 4128 2400 4266 
Q 2725 4647 3038 5091 
z
M 381 4816 
L 738 5059 
Q 1019 4716 1319 4322 
L 931 4047 
Q 656 4453 381 4816 
z
" transform="scale(0.015625)"/>
      <path id="MicrosoftYaHei-5b66" d="M 144 1359 
L 3069 1359 
L 3069 1709 
L 4263 2384 
L 1325 2384 
L 1325 2841 
L 4994 2841 
L 4994 2316 
L 3575 1497 
L 3575 1359 
L 6263 1359 
L 6263 903 
L 3575 903 
L 3575 -41 
Q 3575 -778 2831 -778 
Q 2419 -778 1863 -766 
Q 1844 -553 1788 -234 
Q 2288 -284 2744 -291 
Q 3069 -297 3069 53 
L 3069 903 
L 144 903 
L 144 1359 
z
M 356 3909 
L 6056 3909 
L 6056 2647 
L 5563 2647 
L 5563 3453 
L 850 3453 
L 850 2647 
L 356 2647 
L 356 3909 
z
M 4313 4272 
Q 4731 4722 5100 5241 
L 5550 4909 
Q 5144 4447 4681 3941 
L 4313 4272 
z
M 2538 5116 
L 2944 5353 
Q 3325 4853 3650 4334 
L 3200 4078 
Q 2925 4566 2538 5116 
z
M 850 4928 
L 1219 5197 
Q 1600 4778 1969 4291 
L 1544 3991 
Q 1194 4522 850 4928 
z
" transform="scale(0.015625)"/>
     </defs>
     <use xlink:href="#MicrosoftYaHei-6570"/>
     <use xlink:href="#MicrosoftYaHei-5b66" transform="translate(100 0)"/>
    </g>
   </g>
   <g id="text_2">
    <!-- 22% -->
    <g transform="translate(72.182616 95.131139) scale(0.09 -0.09)">
     <defs>
      <path id="MicrosoftYaHei-Bold-32" d="M 1500 841 
L 3553 841 
L 3553 0 
L 334 0 
L 334 359 
Q 334 738 473 1050 
Q 613 1363 856 1633 
Q 1100 1903 1613 2266 
Q 2081 2616 2268 2886 
Q 2456 3156 2456 3459 
Q 2456 4113 1744 4113 
Q 1119 4113 550 3613 
L 550 4513 
Q 1184 4922 1975 4922 
Q 2700 4922 3122 4551 
Q 3544 4181 3544 3531 
Q 3544 3169 3422 2876 
Q 3300 2584 3069 2328 
Q 2838 2072 2328 1713 
Q 1838 1363 1669 1172 
Q 1500 981 1500 841 
z
" transform="scale(0.015625)"/>
      <path id="MicrosoftYaHei-Bold-25" d="M 297 3597 
Q 297 4191 626 4548 
Q 956 4906 1519 4906 
Q 2056 4906 2354 4581 
Q 2653 4256 2653 3684 
Q 2653 3097 2322 2744 
Q 1991 2391 1438 2391 
Q 919 2391 608 2722 
Q 297 3053 297 3597 
z
M 984 3631 
Q 984 2959 1478 2959 
Q 1981 2959 1981 3659 
Q 1981 4338 1500 4338 
Q 984 4338 984 3631 
z
M 4938 4841 
L 1791 -3 
L 1006 -3 
L 4147 4841 
L 4938 4841 
z
M 3297 1141 
Q 3297 1741 3631 2095 
Q 3966 2450 4522 2450 
Q 5059 2450 5357 2131 
Q 5656 1813 5656 1234 
Q 5656 641 5322 286 
Q 4988 -69 4438 -69 
Q 3922 -69 3609 264 
Q 3297 597 3297 1141 
z
M 3981 1175 
Q 3981 500 4478 500 
Q 4978 500 4978 1200 
Q 4978 1528 4845 1704 
Q 4713 1881 4491 1881 
Q 3981 1881 3981 1175 
z
" transform="scale(0.015625)"/>
     </defs>
     <use xlink:href="#MicrosoftYaHei-Bold-32"/>
     <use xlink:href="#MicrosoftYaHei-Bold-32" transform="translate(61.669922 0)"/>
     <use xlink:href="#MicrosoftYaHei-Bold-25" transform="translate(123.339844 0)"/>
    </g>
   </g>
   <g id="text_3">
    <!-- 语文 -->
    <g transform="translate(11.1974 190.268293) scale(0.09 -0.09)">
     <defs>
      <path id="MicrosoftYaHei-8bed" d="M 1825 2547 
L 2881 2547 
L 3006 3428 
L 2113 3428 
L 2113 3859 
L 3066 3859 
L 3169 4584 
L 1975 4584 
L 1975 5022 
L 6025 5022 
L 6025 4584 
L 3641 4584 
L 3541 3859 
L 5506 3859 
L 5506 2547 
L 6288 2547 
L 6288 2109 
L 1825 2109 
L 1825 2547 
z
M 2375 1466 
L 5719 1466 
L 5719 -822 
L 5250 -822 
L 5250 -441 
L 2844 -441 
L 2844 -822 
L 2375 -822 
L 2375 1466 
z
M 2094 716 
Q 2113 391 2138 178 
Q 1519 -216 888 -722 
L 594 -303 
Q 806 -103 806 259 
L 806 2716 
L 100 2716 
L 100 3166 
L 1288 3166 
L 1288 147 
Q 1725 441 2094 716 
z
M 5250 1028 
L 2844 1028 
L 2844 -3 
L 5250 -3 
L 5250 1028 
z
M 5038 3428 
L 3481 3428 
L 3363 2547 
L 5038 2547 
L 5038 3428 
z
M 738 5222 
Q 1419 4522 1725 4184 
L 1288 3816 
Q 894 4334 356 4891 
L 738 5222 
z
" transform="scale(0.015625)"/>
      <path id="MicrosoftYaHei-6587" d="M 194 4241 
L 3194 4241 
Q 2878 4841 2700 5116 
L 3181 5341 
Q 3356 5072 3706 4466 
L 3256 4241 
L 6194 4241 
L 6194 3778 
L 5041 3778 
Q 4706 1994 3603 909 
Q 4434 303 6244 -178 
Q 5956 -503 5806 -722 
Q 4044 -113 3203 553 
Q 2359 -103 506 -772 
Q 344 -553 131 -284 
Q 1919 253 2822 913 
Q 1681 2131 1372 3778 
L 194 3778 
L 194 4241 
z
M 4506 3778 
L 1872 3778 
Q 2153 2241 3216 1238 
Q 4231 2181 4506 3778 
z
" transform="scale(0.015625)"/>
     </defs>
     <use xlink:href="#MicrosoftYaHei-8bed"/>
     <use xlink:href="#MicrosoftYaHei-6587" transform="translate(100 0)"/>
    </g>
   </g>
   <g id="text_4">
    <!-- 18% -->
    <g transform="translate(50.957837 177.796233) scale(0.09 -0.09)">
     <defs>
      <path id="MicrosoftYaHei-Bold-31" d="M 2716 4947 
L 2716 0 
L 1700 0 
L 1700 3809 
Q 1513 3647 1188 3517 
Q 863 3388 591 3356 
L 591 4222 
Q 1447 4472 2072 4947 
L 2716 4947 
z
" transform="scale(0.015625)"/>
      <path id="MicrosoftYaHei-Bold-38" d="M 269 1303 
Q 269 1725 512 2053 
Q 756 2381 1219 2534 
Q 850 2719 648 3003 
Q 447 3288 447 3634 
Q 447 3997 645 4292 
Q 844 4588 1200 4755 
Q 1556 4922 1997 4922 
Q 2441 4922 2800 4758 
Q 3159 4594 3359 4298 
Q 3559 4003 3559 3647 
Q 3559 3309 3339 3018 
Q 3119 2728 2747 2559 
Q 3200 2403 3453 2076 
Q 3706 1750 3706 1313 
Q 3706 697 3228 309 
Q 2750 -78 1988 -78 
Q 1225 -78 747 309 
Q 269 697 269 1303 
z
M 1278 1394 
Q 1278 1056 1472 853 
Q 1666 650 1991 650 
Q 2303 650 2503 853 
Q 2703 1056 2703 1394 
Q 2703 1709 2500 1920 
Q 2297 2131 1991 2131 
Q 1675 2131 1476 1920 
Q 1278 1709 1278 1394 
z
M 1428 3531 
Q 1428 3266 1592 3077 
Q 1756 2888 2006 2888 
Q 2247 2888 2415 3072 
Q 2584 3256 2584 3531 
Q 2584 3806 2420 3997 
Q 2256 4188 2006 4188 
Q 1750 4188 1589 3997 
Q 1428 3806 1428 3531 
z
" transform="scale(0.015625)"/>
     </defs>
     <use xlink:href="#MicrosoftYaHei-Bold-31"/>
     <use xlink:href="#MicrosoftYaHei-Bold-38" transform="translate(61.669922 0)"/>
     <use xlink:href="#MicrosoftYaHei-Bold-25" transform="translate(123.339844 0)"/>
    </g>
   </g>
   <g id="text_5">
    <!-- 英语 -->
    <g transform="translate(100.179395 257.077833) scale(0.09 -0.09)">
     <defs>
      <path id="MicrosoftYaHei-82f1" d="M 144 1572 
L 931 1572 
L 931 3222 
L 2966 3222 
Q 2966 3513 2963 3834 
L 3463 3834 
Q 3463 3513 3459 3222 
L 5469 3222 
L 5469 1572 
L 6281 1572 
L 6281 1134 
L 3572 1134 
Q 4300 -91 6319 -278 
Q 6106 -553 5956 -784 
Q 3847 -363 3209 963 
Q 2734 -159 444 -878 
Q 300 -672 88 -422 
Q 2288 150 2797 1134 
L 144 1134 
L 144 1572 
z
M 175 4591 
L 1813 4591 
L 1813 5328 
L 2300 5328 
L 2300 4591 
L 4113 4591 
L 4113 5328 
L 4600 5328 
L 4600 4591 
L 6250 4591 
L 6250 4153 
L 4600 4153 
L 4600 3584 
L 4113 3584 
L 4113 4153 
L 2300 4153 
L 2300 3584 
L 1813 3584 
L 1813 4153 
L 175 4153 
L 175 4591 
z
M 2963 2797 
L 1419 2797 
L 1419 1572 
L 2934 1572 
Q 2956 2069 2963 2797 
z
M 3431 1572 
L 4981 1572 
L 4981 2797 
L 3456 2797 
Q 3450 2072 3431 1572 
z
" transform="scale(0.015625)"/>
     </defs>
     <use xlink:href="#MicrosoftYaHei-82f1"/>
     <use xlink:href="#MicrosoftYaHei-8bed" transform="translate(100 0)"/>
    </g>
   </g>
   <g id="text_6">
    <!-- 17% -->
    <g transform="translate(111.627378 223.348192) scale(0.09 -0.09)">
     <defs>
      <path id="MicrosoftYaHei-Bold-37" d="M 3675 4225 
Q 3088 3172 2798 2528 
Q 2509 1884 2328 1275 
Q 2147 666 2050 0 
L 966 0 
Q 1122 947 1517 1917 
Q 1913 2888 2609 4009 
L 300 4009 
L 300 4841 
L 3675 4841 
L 3675 4225 
z
" transform="scale(0.015625)"/>
     </defs>
     <use xlink:href="#MicrosoftYaHei-Bold-31"/>
     <use xlink:href="#MicrosoftYaHei-Bold-37" transform="translate(61.669922 0)"/>
     <use xlink:href="#MicrosoftYaHei-Bold-25" transform="translate(123.339844 0)"/>
    </g>
   </g>
   <g id="text_7">
    <!-- 物理 -->
    <g transform="translate(210.244243 218.943306) scale(0.09 -0.09)">
     <defs>
      <path id="MicrosoftYaHei-7269" d="M 2131 2866 
Q 2750 3816 3263 5341 
L 3719 5203 
Q 3541 4706 3363 4278 
L 6075 4278 
Q 5950 1759 5869 422 
Q 5800 -622 4869 -622 
Q 4519 -622 4044 -603 
Q 4013 -372 3956 -72 
Q 4500 -134 4819 -134 
Q 5325 -134 5375 441 
Q 5488 1759 5575 3834 
L 5097 3834 
Q 4934 2241 4569 1322 
Q 4069 134 2869 -716 
Q 2731 -522 2550 -334 
Q 3719 491 4169 1559 
Q 4531 2438 4634 3834 
L 4078 3834 
Q 3909 2641 3575 1916 
Q 3163 1097 2444 447 
Q 2288 647 2119 816 
Q 2831 1434 3175 2116 
Q 3509 2809 3619 3834 
L 3169 3834 
Q 2850 3125 2531 2628 
Q 2375 2734 2131 2866 
z
M 94 1584 
Q 669 1775 1288 1991 
L 1288 3466 
L 722 3466 
Q 597 2872 419 2378 
Q 219 2522 13 2653 
Q 363 3509 456 4709 
L 906 4634 
Q 863 4244 800 3884 
L 1288 3884 
L 1288 5291 
L 1756 5291 
L 1756 3884 
L 2375 3884 
L 2375 3466 
L 1756 3466 
L 1756 2156 
Q 2063 2269 2381 2384 
Q 2413 2109 2450 1909 
Q 2141 1797 1756 1653 
L 1756 -834 
L 1288 -834 
L 1288 1475 
Q 788 1288 188 1053 
L 94 1584 
z
" transform="scale(0.015625)"/>
      <path id="MicrosoftYaHei-7406" d="M 2031 -166 
L 3988 -166 
L 3988 734 
L 2394 734 
L 2394 1172 
L 3988 1172 
L 3988 1997 
L 2988 1997 
L 2988 1766 
L 2525 1766 
L 2525 4991 
L 5913 4991 
L 5913 1766 
L 5450 1766 
L 5450 1997 
L 4450 1997 
L 4450 1172 
L 6044 1172 
L 6044 734 
L 4450 734 
L 4450 -166 
L 6319 -166 
L 6319 -603 
L 2031 -603 
L 2031 -166 
z
M 44 203 
Q 525 319 975 434 
L 975 2328 
L 194 2328 
L 194 2766 
L 975 2766 
L 975 4328 
L 131 4328 
L 131 4766 
L 2281 4766 
L 2281 4328 
L 1438 4328 
L 1438 2766 
L 2231 2766 
L 2231 2328 
L 1438 2328 
L 1438 559 
Q 1850 675 2238 791 
Q 2269 509 2306 303 
Q 1238 16 213 -303 
L 44 203 
z
M 4450 2422 
L 5450 2422 
L 5450 3291 
L 4450 3291 
L 4450 2422 
z
M 2988 2422 
L 3988 2422 
L 3988 3291 
L 2988 3291 
L 2988 2422 
z
M 5450 4566 
L 4450 4566 
L 4450 3703 
L 5450 3703 
L 5450 4566 
z
M 2988 3703 
L 3988 3703 
L 3988 4566 
L 2988 4566 
L 2988 3703 
z
" transform="scale(0.015625)"/>
     </defs>
     <use xlink:href="#MicrosoftYaHei-7269"/>
     <use xlink:href="#MicrosoftYaHei-7406" transform="translate(100 0)"/>
    </g>
   </g>
   <g id="text_8">
    <!-- 14% -->
    <g transform="translate(174.398866 197.347378) scale(0.09 -0.09)">
     <defs>
      <path id="MicrosoftYaHei-Bold-34" d="M 3184 4841 
L 3184 1766 
L 3869 1766 
L 3869 1031 
L 3184 1031 
L 3184 0 
L 2266 0 
L 2266 1031 
L 103 1031 
L 103 1772 
Q 775 2522 1362 3359 
Q 1950 4197 2250 4841 
L 3184 4841 
z
M 997 1766 
L 2266 1766 
L 2266 3541 
Q 2116 3259 1836 2859 
Q 1556 2459 997 1766 
z
" transform="scale(0.015625)"/>
     </defs>
     <use xlink:href="#MicrosoftYaHei-Bold-31"/>
     <use xlink:href="#MicrosoftYaHei-Bold-34" transform="translate(61.669922 0)"/>
     <use xlink:href="#MicrosoftYaHei-Bold-25" transform="translate(123.339844 0)"/>
    </g>
   </g>
   <g id="text_9">
    <!-- 化学 -->
    <g transform="translate(233.84037 137.724884) scale(0.09 -0.09)">
     <defs>
      <path id="MicrosoftYaHei-5316" d="M 1844 1453 
Q 2663 1834 3375 2331 
L 3375 5197 
L 3913 5197 
L 3913 2734 
Q 4869 3506 5613 4516 
L 6069 4184 
Q 5159 2975 3913 2069 
L 3913 303 
Q 3913 -122 4363 -122 
L 5156 -122 
Q 5581 -122 5650 284 
Q 5738 709 5763 1266 
Q 6025 1166 6313 1084 
Q 6263 559 6181 122 
Q 6063 -597 5281 -597 
L 4225 -597 
Q 3375 -597 3375 241 
L 3375 1703 
Q 2791 1328 2144 1016 
Q 2013 1222 1844 1453 
z
M 88 2222 
Q 1175 3666 1688 5291 
L 2231 5134 
Q 1934 4359 1588 3675 
L 1588 -797 
L 1063 -797 
L 1063 2734 
Q 716 2172 325 1678 
Q 219 1947 88 2222 
z
" transform="scale(0.015625)"/>
     </defs>
     <use xlink:href="#MicrosoftYaHei-5316"/>
     <use xlink:href="#MicrosoftYaHei-5b66" transform="translate(100 0)"/>
    </g>
   </g>
   <g id="text_10">
    <!-- 12% -->
    <g transform="translate(190.487135 141.971182) scale(0.09 -0.09)">
     <use xlink:href="#MicrosoftYaHei-Bold-31"/>
     <use xlink:href="#MicrosoftYaHei-Bold-32" transform="translate(61.669922 0)"/>
     <use xlink:href="#MicrosoftYaHei-Bold-25" transform="translate(123.339844 0)"/>
    </g>
   </g>
   <g id="text_11">
    <!-- 历史/道法 -->
    <g transform="translate(182.402719 59.418573) scale(0.09 -0.09)">
     <defs>
      <path id="MicrosoftYaHei-5386" d="M 1669 3084 
L 3028 3084 
Q 3044 3650 3044 4222 
L 3569 4222 
Q 3563 3650 3547 3084 
L 5800 3084 
Q 5725 1422 5656 341 
Q 5556 -616 4688 -634 
Q 4219 -634 3588 -603 
Q 3556 -366 3494 -41 
Q 4113 -109 4588 -109 
Q 5088 -103 5156 466 
Q 5225 1366 5269 2603 
L 3531 2603 
Q 3478 1334 3138 691 
Q 2681 -166 1513 -847 
Q 1338 -641 1144 -422 
Q 2294 284 2644 947 
Q 2969 1528 3013 2603 
L 1669 2603 
L 1669 3084 
z
M 1325 2766 
Q 1319 1384 1144 647 
Q 963 -116 456 -841 
Q 300 -628 81 -416 
Q 506 197 650 816 
Q 794 1416 794 2653 
L 794 4916 
L 6244 4916 
L 6244 4434 
L 1325 4434 
L 1325 2766 
z
" transform="scale(0.015625)"/>
      <path id="MicrosoftYaHei-53f2" d="M 1331 1953 
Q 1813 1213 2519 750 
Q 2881 1275 2953 2047 
L 725 2047 
L 725 4472 
L 2969 4472 
L 2969 5291 
L 3469 5291 
L 3469 4472 
L 5713 4472 
L 5713 1722 
L 5225 1722 
L 5225 2047 
L 3459 2047 
Q 3394 1144 2969 494 
Q 4241 -119 6313 -228 
Q 6206 -441 6094 -741 
Q 3928 -578 2638 91 
Q 1881 -634 369 -872 
Q 281 -678 113 -416 
Q 1506 -213 2181 369 
Q 1434 888 944 1697 
L 1331 1953 
z
M 5225 4022 
L 3469 4022 
L 3469 2497 
L 5225 2497 
L 5225 4022 
z
M 1213 2497 
L 2969 2497 
L 2969 4022 
L 1213 4022 
L 1213 2497 
z
" transform="scale(0.015625)"/>
      <path id="MicrosoftYaHei-2f" d="M 2791 4841 
L 469 -803 
L -103 -803 
L 2219 4841 
L 2791 4841 
z
" transform="scale(0.015625)"/>
      <path id="MicrosoftYaHei-9053" d="M 2213 3559 
L 3500 3559 
L 3622 4103 
L 1856 4103 
L 1856 4516 
L 3031 4516 
Q 2884 4725 2575 5097 
L 2938 5366 
Q 3263 5016 3494 4728 
L 3209 4516 
L 4359 4516 
Q 4631 4891 4906 5347 
L 5381 5103 
Q 5181 4847 4903 4516 
L 6231 4516 
L 6231 4103 
L 4128 4103 
L 3969 3559 
L 5775 3559 
L 5775 153 
L 5313 153 
L 5313 384 
L 2675 384 
L 2675 153 
L 2213 153 
L 2213 3559 
z
M 2688 -228 
L 4200 -247 
L 6319 -197 
Q 6213 -441 6113 -678 
L 4031 -697 
L 2644 -672 
Q 1594 -666 1088 47 
Q 906 -97 356 -753 
L 88 -222 
Q 494 141 875 469 
L 875 2641 
L 150 2641 
L 150 3097 
L 1350 3097 
L 1350 363 
Q 1803 -200 2688 -228 
z
M 2675 766 
L 5313 766 
L 5313 1328 
L 2675 1328 
L 2675 766 
z
M 2675 1697 
L 5313 1697 
L 5313 2253 
L 2675 2253 
L 2675 1697 
z
M 5313 3178 
L 2675 3178 
L 2675 2622 
L 5313 2622 
L 5313 3178 
z
M 700 5178 
Q 1131 4678 1550 4091 
L 1113 3791 
Q 694 4441 319 4903 
L 700 5178 
z
" transform="scale(0.015625)"/>
      <path id="MicrosoftYaHei-6cd5" d="M 4888 1328 
Q 5488 509 6181 -553 
Q 5931 -697 5694 -841 
Q 5519 -550 5350 -278 
Q 3300 -447 2138 -559 
L 1906 -16 
Q 2300 159 2675 716 
Q 3088 1303 3441 1953 
L 1800 1953 
L 1800 2403 
L 3763 2403 
L 3763 3728 
L 2106 3728 
L 2106 4178 
L 3763 4178 
L 3763 5322 
L 4263 5322 
L 4263 4178 
L 5994 4178 
L 5994 3728 
L 4263 3728 
L 4263 2403 
L 6288 2403 
L 6288 1953 
L 4069 1953 
Q 3372 806 2706 -28 
Q 3897 28 5088 141 
Q 4766 644 4475 1066 
L 4888 1328 
z
M 1013 1828 
Q 1244 1728 1506 1622 
Q 1063 291 731 -784 
L 194 -603 
Q 606 497 1013 1828 
z
M 400 3622 
Q 869 3291 1500 2772 
Q 1269 2509 1138 2366 
Q 431 2997 88 3259 
L 400 3622 
z
M 644 5241 
Q 1144 4841 1719 4328 
Q 1506 4109 1350 3941 
Q 775 4509 325 4897 
L 644 5241 
z
" transform="scale(0.015625)"/>
     </defs>
     <use xlink:href="#MicrosoftYaHei-5386"/>
     <use xlink:href="#MicrosoftYaHei-53f2" transform="translate(100 0)"/>
     <use xlink:href="#MicrosoftYaHei-2f" transform="translate(200 0)"/>
     <use xlink:href="#MicrosoftYaHei-9053" transform="translate(242.724609 0)"/>
     <use xlink:href="#MicrosoftYaHei-6cd5" transform="translate(342.724609 0)"/>
    </g>
   </g>
   <g id="text_12">
    <!-- 17% -->
    <g transform="translate(155.416009 88.580515) scale(0.09 -0.09)">
     <use xlink:href="#MicrosoftYaHei-Bold-31"/>
     <use xlink:href="#MicrosoftYaHei-Bold-37" transform="translate(61.669922 0)"/>
     <use xlink:href="#MicrosoftYaHei-Bold-25" transform="translate(123.339844 0)"/>
    </g>
   </g>
   <g id="text_13">
    <!-- 冲刺期各科复习时间推荐分配 -->
    <g style="fill: #1a1a2e" transform="translate(43.7 17.591875) scale(0.13 -0.13)">
     <defs>
      <path id="MicrosoftYaHei-Bold-51b2" d="M 3563 -809 
L 3563 1234 
L 2769 1234 
L 2769 853 
L 1913 853 
L 1913 4222 
L 3563 4222 
L 3563 5291 
L 4425 5291 
L 4425 4222 
L 6075 4222 
L 6075 866 
L 5219 866 
L 5219 1234 
L 4425 1234 
L 4425 -809 
L 3563 -809 
z
M 5219 3447 
L 4425 3447 
L 4425 2009 
L 5219 2009 
L 5219 3447 
z
M 2769 2009 
L 3563 2009 
L 3563 3447 
L 2769 3447 
L 2769 2009 
z
M 663 5003 
Q 1113 4559 1769 3791 
L 1100 3172 
Q 600 3834 50 4441 
L 663 5003 
z
M 1031 2484 
Q 1431 2241 1825 2041 
Q 1525 1253 775 -584 
Q 444 -309 19 -47 
Q 481 947 1031 2484 
z
" transform="scale(0.015625)"/>
      <path id="MicrosoftYaHei-Bold-523a" d="M 375 3584 
L 1588 3584 
L 1588 4034 
L 200 4034 
L 200 4772 
L 1588 4772 
L 1588 5328 
L 2350 5328 
L 2350 4772 
L 3788 4772 
L 3788 4034 
L 2350 4034 
L 2350 3584 
L 3688 3584 
L 3688 2166 
Q 3688 1903 3581 1742 
Q 3475 1581 3289 1529 
Q 3103 1478 2569 1478 
Q 2513 1891 2431 2259 
Q 2603 2241 2694 2241 
Q 2938 2241 2938 2441 
L 2938 2884 
L 2350 2884 
L 2350 972 
L 2625 1341 
Q 3206 1028 3888 616 
L 3425 -47 
Q 2844 353 2350 675 
L 2350 -822 
L 1588 -822 
L 1588 938 
Q 1141 138 419 -522 
Q 269 -84 75 359 
Q 1088 1106 1588 2194 
L 1588 2884 
L 1131 2884 
L 1131 1484 
L 375 1484 
L 375 3584 
z
M 5213 5322 
L 6025 5322 
L 6025 103 
Q 6025 -275 5856 -492 
Q 5688 -709 5406 -759 
Q 5125 -809 4281 -809 
Q 4200 -322 4119 72 
Q 4538 41 4863 41 
Q 5213 41 5213 397 
L 5213 5322 
z
M 4056 4834 
L 4819 4834 
L 4819 653 
L 4056 653 
L 4056 4834 
z
" transform="scale(0.015625)"/>
      <path id="MicrosoftYaHei-Bold-671f" d="M 3444 3997 
L 3088 3997 
L 3088 1334 
L 3444 1334 
L 3444 597 
L 2500 597 
Q 2850 253 3191 -131 
Q 3638 484 3638 2191 
L 3638 5059 
L 5994 5059 
L 5994 -72 
Q 5994 -391 5845 -561 
Q 5697 -731 5423 -757 
Q 5150 -784 4581 -784 
Q 4525 -466 4394 47 
Q 4738 22 4938 22 
Q 5219 22 5219 309 
L 5219 1109 
L 4375 1109 
Q 4313 -47 3775 -878 
Q 3516 -678 3172 -459 
L 2719 -803 
Q 2319 -291 1900 172 
L 2469 597 
L 1094 597 
L 1656 172 
Q 1194 -403 719 -872 
Q 406 -572 131 -341 
Q 597 84 969 597 
L 106 597 
L 106 1334 
L 588 1334 
L 588 3997 
L 188 3997 
L 188 4734 
L 588 4734 
L 588 5253 
L 1350 5253 
L 1350 4734 
L 2306 4734 
L 2306 5253 
L 3088 5253 
L 3088 4734 
L 3444 4734 
L 3444 3997 
z
M 5219 4259 
L 4413 4259 
L 4413 3403 
L 5219 3403 
L 5219 4259 
z
M 1350 3572 
L 2306 3572 
L 2306 3997 
L 1350 3997 
L 1350 3572 
z
M 1350 2472 
L 2306 2472 
L 2306 2897 
L 1350 2897 
L 1350 2472 
z
M 4409 1853 
L 5219 1853 
L 5219 2659 
L 4413 2659 
L 4409 1853 
z
M 1350 1334 
L 2306 1334 
L 2306 1797 
L 1350 1797 
L 1350 1334 
z
" transform="scale(0.015625)"/>
      <path id="MicrosoftYaHei-Bold-5404" d="M 5669 4747 
L 5669 4028 
Q 5081 3400 4266 2925 
Q 5178 2700 6306 2678 
Q 6100 2184 5956 1797 
Q 4394 1953 3241 2428 
Q 2028 1941 444 1709 
Q 313 2047 100 2516 
Q 1313 2622 2291 2919 
Q 1831 3213 1463 3578 
Q 1078 3206 631 2891 
Q 419 3209 119 3578 
Q 1256 4322 1844 5347 
L 2713 5197 
Q 2581 4966 2434 4747 
L 5669 4747 
z
M 3244 3272 
Q 3934 3588 4475 4022 
L 2059 4022 
Q 2572 3572 3244 3272 
z
M 1000 -841 
L 1000 1703 
L 5475 1703 
L 5475 -841 
L 4638 -841 
L 4638 -547 
L 1838 -547 
L 1838 -841 
L 1000 -841 
z
M 4638 1003 
L 1838 1003 
L 1838 153 
L 4638 153 
L 4638 1003 
z
" transform="scale(0.015625)"/>
      <path id="MicrosoftYaHei-Bold-79d1" d="M 2494 1316 
L 4525 1500 
L 4525 5309 
L 5406 5309 
L 5406 1581 
L 6256 1659 
L 6325 866 
L 5406 781 
L 5406 -834 
L 4525 -834 
L 4525 703 
L 2600 528 
L 2494 1316 
z
M 88 1128 
Q 684 1850 1009 2709 
L 144 2709 
L 144 3516 
L 1038 3516 
L 1038 4216 
L 281 4147 
Q 219 4572 138 4891 
Q 1431 4991 2525 5147 
L 2763 4416 
Q 2341 4356 1850 4300 
L 1850 3516 
L 2663 3516 
L 2663 2709 
L 1850 2709 
L 1850 2172 
L 2150 2453 
Q 2600 2053 2913 1728 
L 2388 1253 
Q 2078 1616 1850 1863 
L 1850 -834 
L 1038 -834 
L 1038 1278 
Q 744 659 375 128 
Q 269 541 88 1128 
z
M 3419 4866 
Q 3894 4516 4475 3991 
L 3894 3416 
Q 3425 3916 2894 4334 
L 3419 4866 
z
M 3206 3278 
Q 3756 2872 4275 2397 
L 3688 1828 
Q 3263 2278 2675 2734 
L 3206 3278 
z
" transform="scale(0.015625)"/>
      <path id="MicrosoftYaHei-Bold-590d" d="M 5738 1528 
L 5738 1003 
Q 5091 600 4322 259 
Q 5197 78 6306 -16 
Q 6000 -428 5819 -791 
Q 4391 -569 3278 -153 
Q 2125 -559 744 -853 
Q 550 -541 275 -178 
Q 1394 3 2341 256 
Q 1872 500 1478 788 
Q 1069 416 581 116 
Q 363 391 75 691 
Q 925 1194 1459 1816 
L 844 1816 
L 844 3406 
Q 600 3128 325 2872 
Q 238 3266 94 3759 
Q 831 4484 1188 5334 
L 2063 5334 
Q 1978 5144 1888 4959 
L 6181 4959 
L 6181 4334 
L 1538 4334 
Q 1434 4172 1325 4016 
L 5738 4016 
L 5738 1816 
L 2372 1816 
Q 2272 1666 2163 1528 
L 5738 1528 
z
M 4906 3478 
L 1675 3478 
L 1675 3141 
L 4906 3141 
L 4906 3478 
z
M 4906 2353 
L 4906 2691 
L 1675 2691 
L 1675 2353 
L 4906 2353 
z
M 3269 541 
Q 3897 753 4438 1009 
L 2231 1009 
Q 2669 744 3269 541 
z
" transform="scale(0.015625)"/>
      <path id="MicrosoftYaHei-Bold-4e60" d="M 3431 -709 
Q 3344 -272 3206 241 
Q 3878 197 4350 197 
Q 4750 197 4826 562 
Q 4903 928 4925 4066 
L 500 4066 
L 500 4903 
L 5863 4903 
Q 5853 3694 5813 2238 
L 5750 353 
Q 5728 -75 5509 -334 
Q 5291 -594 4930 -647 
Q 4569 -700 3431 -709 
z
M 1300 3259 
L 1813 3916 
Q 2806 3241 3500 2709 
L 2881 1959 
Q 2088 2647 1300 3259 
z
M 300 1009 
Q 2669 1666 4656 2372 
Q 4656 2078 4669 1484 
Q 2856 822 625 53 
L 300 1009 
z
" transform="scale(0.015625)"/>
      <path id="MicrosoftYaHei-Bold-65f6" d="M 3038 4241 
L 4888 4241 
L 4888 5291 
L 5781 5291 
L 5781 4241 
L 6306 4241 
L 6306 3409 
L 5781 3409 
L 5781 316 
Q 5781 -209 5547 -478 
Q 5313 -747 4898 -762 
Q 4484 -778 3669 -778 
Q 3569 -209 3456 134 
Q 4344 109 4431 109 
Q 4888 109 4888 584 
L 4888 3409 
L 3038 3409 
L 3038 4241 
z
M 394 -497 
L 394 4897 
L 2856 4897 
L 2856 -459 
L 2031 -459 
L 2031 -28 
L 1219 -28 
L 1219 -497 
L 394 -497 
z
M 2031 4072 
L 1219 4072 
L 1219 2834 
L 2031 2834 
L 2031 4072 
z
M 1219 797 
L 2031 797 
L 2031 2034 
L 1219 2034 
L 1219 797 
z
M 3588 3072 
Q 4013 2541 4713 1559 
L 3956 1066 
Q 3388 2009 2938 2641 
L 3588 3072 
z
" transform="scale(0.015625)"/>
      <path id="MicrosoftYaHei-Bold-95f4" d="M 1088 5059 
L 1906 5347 
Q 2200 4884 2506 4334 
L 1638 4003 
Q 1356 4597 1088 5059 
z
M 6056 347 
Q 6056 -106 5904 -378 
Q 5753 -650 5422 -736 
Q 5091 -822 3950 -822 
Q 3875 -359 3750 53 
Q 4150 28 4769 28 
Q 5188 28 5188 397 
L 5188 4278 
L 2719 4278 
L 2719 5047 
L 6056 5047 
L 6056 347 
z
M 344 4522 
L 1213 4522 
L 1213 -803 
L 344 -803 
L 344 4522 
z
M 1788 3772 
L 4581 3772 
L 4581 484 
L 2575 484 
L 2575 141 
L 1788 141 
L 1788 3772 
z
M 3794 3072 
L 2575 3072 
L 2575 2478 
L 3794 2478 
L 3794 3072 
z
M 3794 1184 
L 3794 1778 
L 2575 1778 
L 2575 1184 
L 3794 1184 
z
" transform="scale(0.015625)"/>
      <path id="MicrosoftYaHei-Bold-63a8" d="M 4488 5353 
Q 4863 4822 5081 4459 
L 4650 4234 
L 6175 4234 
L 6175 3559 
L 4988 3559 
L 4988 2891 
L 6125 2891 
L 6125 2247 
L 4988 2247 
L 4988 1572 
L 6125 1572 
L 6125 928 
L 4988 928 
L 4988 253 
L 6250 253 
L 6250 -409 
L 3200 -409 
L 3200 -847 
L 2388 -847 
L 2388 2484 
Q 2319 2384 2256 2284 
Q 2063 2722 1856 3072 
Q 2650 4209 2944 5347 
L 3744 5153 
Q 3575 4703 3356 4234 
L 4306 4234 
Q 4119 4597 3869 5009 
L 4488 5353 
z
M 144 4172 
L 788 4172 
L 788 5303 
L 1613 5303 
L 1613 4172 
L 2031 4172 
L 2031 3372 
L 1613 3372 
L 1613 2484 
Q 1813 2547 2031 2616 
Q 2000 2084 2006 1766 
Q 1806 1703 1613 1634 
L 1613 -59 
Q 1613 -759 1013 -784 
Q 669 -816 319 -822 
Q 256 -447 131 3 
Q 313 -16 581 -16 
Q 788 -16 788 284 
L 788 1366 
Q 456 1253 119 1141 
L 69 2041 
Q 356 2109 788 2234 
L 788 3372 
L 144 3372 
L 144 4172 
z
M 3200 253 
L 4175 253 
L 4175 928 
L 3200 928 
L 3200 253 
z
M 3200 1572 
L 4175 1572 
L 4175 2247 
L 3200 2247 
L 3200 1572 
z
M 3200 2891 
L 4175 2891 
L 4175 3559 
L 3200 3559 
L 3200 2891 
z
" transform="scale(0.015625)"/>
      <path id="MicrosoftYaHei-Bold-8350" d="M 4825 5297 
L 4825 4828 
L 6238 4828 
L 6238 4116 
L 4825 4116 
L 4825 3753 
L 3975 3753 
L 3975 4116 
L 2456 4116 
L 2456 3816 
L 2781 3759 
Q 2738 3663 2691 3566 
L 6225 3566 
L 6225 2853 
L 2306 2853 
Q 2084 2488 1819 2134 
L 1819 -822 
L 975 -822 
L 975 1163 
Q 666 850 319 547 
Q 219 1034 94 1541 
Q 831 2163 1319 2853 
L 175 2853 
L 175 3566 
L 1741 3566 
Q 1788 3659 1828 3753 
L 1606 3753 
L 1606 4116 
L 150 4116 
L 150 4828 
L 1606 4828 
L 1606 5278 
L 2456 5278 
L 2456 4828 
L 3975 4828 
L 3975 5297 
L 4825 5297 
z
M 2100 1284 
L 3906 1284 
L 3906 1522 
L 4713 1853 
L 2456 1853 
L 2456 2541 
L 5913 2541 
L 5913 1803 
L 4763 1322 
L 4763 1284 
L 6263 1284 
L 6263 584 
L 4763 584 
L 4763 47 
Q 4763 -200 4678 -372 
Q 4594 -544 4414 -650 
Q 4234 -756 3915 -770 
Q 3597 -784 2906 -791 
Q 2844 -459 2744 -28 
Q 3213 -53 3488 -53 
Q 3781 -53 3843 36 
Q 3906 125 3906 234 
L 3906 584 
L 2100 584 
L 2100 1284 
z
" transform="scale(0.015625)"/>
      <path id="MicrosoftYaHei-Bold-5206" d="M 6350 3028 
Q 6088 2703 5750 2228 
Q 5519 2409 5303 2603 
Q 5219 606 5172 190 
Q 5125 -225 4862 -451 
Q 4600 -678 4128 -678 
Q 3484 -678 2913 -659 
Q 2856 -141 2781 284 
Q 3594 216 3956 216 
Q 4172 216 4230 408 
Q 4288 600 4325 1978 
L 2781 1978 
Q 2728 1100 2529 631 
Q 2331 163 1907 -215 
Q 1484 -594 844 -872 
Q 456 -353 194 -78 
Q 750 144 1111 414 
Q 1472 684 1630 989 
Q 1788 1294 1841 1978 
L 950 1978 
L 950 2475 
Q 794 2356 631 2247 
Q 344 2653 63 2953 
Q 1475 3947 2194 5316 
L 3031 4953 
Q 2378 3722 1391 2841 
L 5047 2841 
Q 4088 3766 3463 4903 
L 4238 5303 
Q 5038 3922 6350 3028 
z
" transform="scale(0.015625)"/>
      <path id="MicrosoftYaHei-Bold-914d" d="M 163 5009 
L 3406 5009 
L 3406 4297 
L 2519 4297 
L 2519 3753 
L 3325 3753 
L 3325 -797 
L 2663 -797 
L 2663 -391 
L 994 -391 
L 994 -784 
L 331 -784 
L 331 3753 
L 1138 3753 
L 1138 4297 
L 163 4297 
L 163 5009 
z
M 1700 3753 
L 1981 3753 
L 1981 4297 
L 1700 4297 
L 1700 3753 
z
M 1350 1397 
Q 1166 1556 994 1694 
L 994 1266 
L 2663 1266 
L 2663 1634 
L 2531 1634 
Q 1981 1634 1981 2197 
L 1981 3097 
L 1697 3097 
Q 1672 1950 1350 1397 
z
M 2738 2159 
L 2781 2159 
L 2781 3097 
L 2519 3097 
L 2519 2397 
Q 2519 2159 2738 2159 
z
M 888 1941 
Q 1131 2303 1131 3097 
L 888 3097 
L 888 1941 
z
M 994 259 
L 2663 259 
L 2663 647 
L 994 647 
L 994 259 
z
M 5538 1334 
Q 5819 1209 6331 1047 
Q 6209 119 6125 -164 
Q 6041 -447 5842 -578 
Q 5644 -709 5325 -709 
L 4513 -709 
Q 3713 -709 3713 153 
L 3713 3003 
L 5188 3003 
L 5188 4184 
L 3619 4184 
L 3619 4984 
L 6000 4984 
L 6000 2203 
L 4519 2203 
L 4519 359 
Q 4519 78 4788 78 
L 5081 78 
Q 5316 78 5394 250 
Q 5472 422 5538 1334 
z
" transform="scale(0.015625)"/>
     </defs>
     <use xlink:href="#MicrosoftYaHei-Bold-51b2"/>
     <use xlink:href="#MicrosoftYaHei-Bold-523a" transform="translate(100 0)"/>
     <use xlink:href="#MicrosoftYaHei-Bold-671f" transform="translate(200 0)"/>
     <use xlink:href="#MicrosoftYaHei-Bold-5404" transform="translate(300 0)"/>
     <use xlink:href="#MicrosoftYaHei-Bold-79d1" transform="translate(400 0)"/>
     <use xlink:href="#MicrosoftYaHei-Bold-590d" transform="translate(500 0)"/>
     <use xlink:href="#MicrosoftYaHei-Bold-4e60" transform="translate(600 0)"/>
     <use xlink:href="#MicrosoftYaHei-Bold-65f6" transform="translate(700 0)"/>
     <use xlink:href="#MicrosoftYaHei-Bold-95f4" transform="translate(800 0)"/>
     <use xlink:href="#MicrosoftYaHei-Bold-63a8" transform="translate(900 0)"/>
     <use xlink:href="#MicrosoftYaHei-Bold-8350" transform="translate(1000 0)"/>
     <use xlink:href="#MicrosoftYaHei-Bold-5206" transform="translate(1100 0)"/>
     <use xlink:href="#MicrosoftYaHei-Bold-914d" transform="translate(1200 0)"/>
    </g>
   </g>
  </g>
 </g>
</svg>
