<?xml version="1.0" encoding="utf-8" standalone="no"?>
<!DOCTYPE svg PUBLIC "-//W3C//DTD SVG 1.1//EN"
  "http://www.w3.org/Graphics/SVG/1.1/DTD/svg11.dtd">
<svg xmlns:xlink="http://www.w3.org/1999/xlink" width="630.403636pt" height="327.396136pt" viewBox="0 0 630.403636 327.396136" xmlns="http://www.w3.org/2000/svg" version="1.1">
 <metadata>
  <rdf:RDF xmlns:dc="http://purl.org/dc/elements/1.1/" xmlns:cc="http://creativecommons.org/ns#" xmlns:rdf="http://www.w3.org/1999/02/22-rdf-syntax-ns#">
   <cc:Work>
    <dc:type rdf:resource="http://purl.org/dc/dcmitype/StillImage"/>
    <dc:date>2026-05-22T15:09:00.464644</dc:date>
    <dc:format>image/svg+xml</dc:format>
    <dc:creator>
     <cc:Agent>
      <dc:title>Matplotlib v3.10.9, https://matplotlib.org/</dc:title>
     </cc:Agent>
    </dc:creator>
   </cc:Work>
  </rdf:RDF>
 </metadata>
 <defs>
  <style type="text/css">*{stroke-linejoin: round; stroke-linecap: butt}</style>
 </defs>
 <g id="figure_1">
  <g id="patch_1">
   <path d="M 0 327.396136 
L 630.403636 327.396136 
L 630.403636 0 
L 0 0 
L 0 327.396136 
z
" style="fill: none"/>
  </g>
  <g id="axes_1">
   <g id="patch_2">
    <path d="M 36.940364 308.299991 
L 245.122909 308.299991 
Q 262.967127 308.299991 262.967127 290.455773 
L 262.967127 82.273227 
Q 262.967127 64.429009 245.122909 64.429009 
L 36.940364 64.429009 
Q 19.096145 64.429009 19.096145 82.273227 
L 19.096145 290.455773 
Q 19.096145 308.299991 36.940364 308.299991 
z
" clip-path="url(#p177d8824aa)" style="fill: #e8f5e9; stroke: #2e7d32; stroke-width: 2.5; stroke-linejoin: miter"/>
   </g>
   <g id="patch_3">
    <path d="M 25.044218 320.196136 
L 257.019055 320.196136 
Q 274.863273 320.196136 274.863273 302.351918 
L 274.863273 70.377082 
Q 274.863273 52.532864 257.019055 52.532864 
L 25.044218 52.532864 
Q 7.2 52.532864 7.2 70.377082 
L 7.2 302.351918 
Q 7.2 320.196136 25.044218 320.196136 
L 25.044218 320.196136 
z
" clip-path="url(#p177d8824aa)" style="fill: none; stroke: #555555; stroke-width: 2; stroke-linejoin: miter"/>
   </g>
   <g id="patch_4">
    <path d="M 155.901818 189.338536 
C 165.366502 189.338536 174.444811 185.578178 181.137354 178.885635 
C 187.829896 172.193093 191.590255 163.114784 191.590255 153.6501 
C 191.590255 144.185416 187.829896 135.107107 181.137354 128.414565 
C 174.444811 121.722022 165.366502 117.961664 155.901818 117.961664 
C 146.437134 117.961664 137.358825 121.722022 130.666283 128.414565 
C 123.973741 135.107107 120.213382 144.185416 120.213382 153.6501 
C 120.213382 163.114784 123.973741 172.193093 130.666283 178.885635 
C 137.358825 185.578178 146.437134 189.338536 155.901818 189.338536 
z
" clip-path="url(#p177d8824aa)" style="fill: #7b1fa2; opacity: 0.3; stroke: #7b1fa2; stroke-width: 1.5; stroke-linejoin: miter"/>
   </g>
   <g id="patch_5">
    <path d="M 78.576873 284.5077 
L 197.538327 284.5077 
Q 209.434473 284.5077 209.434473 272.611555 
L 209.434473 195.286609 
Q 209.434473 183.390464 197.538327 183.390464 
L 78.576873 183.390464 
Q 66.680727 183.390464 66.680727 195.286609 
L 66.680727 272.611555 
Q 66.680727 284.5077 78.576873 284.5077 
z
" clip-path="url(#p177d8824aa)" style="fill: #bbdefb; opacity: 0.4; stroke: #1976d2; stroke-width: 1.2; stroke-linejoin: miter"/>
   </g>
   <g id="patch_6">
    <path d="M 66.680727 126.883773 
C 70.624346 126.883773 74.406974 125.316957 77.195534 122.528397 
C 79.984093 119.739838 81.550909 115.957209 81.550909 112.013591 
C 81.550909 108.069973 79.984093 104.287344 77.195534 101.498785 
C 74.406974 98.710225 70.624346 97.143409 66.680727 97.143409 
C 62.737109 97.143409 58.95448 98.710225 56.165921 101.498785 
C 53.377362 104.287344 51.810545 108.069973 51.810545 112.013591 
C 51.810545 115.957209 53.377362 119.739838 56.165921 122.528397 
C 58.95448 125.316957 62.737109 126.883773 66.680727 126.883773 
z
" clip-path="url(#p177d8824aa)" style="fill: #4caf50; opacity: 0.6; stroke: #2e7d32; stroke-linejoin: miter"/>
   </g>
   <g id="patch_7">
    <path d="M 215.382545 109.039555 
C 219.326164 109.039555 223.108793 107.472738 225.897352 104.684179 
C 228.685911 101.89562 230.252727 98.112991 230.252727 94.169373 
C 230.252727 90.225754 228.685911 86.443126 225.897352 83.654566 
C 223.108793 80.866007 219.326164 79.299191 215.382545 79.299191 
C 211.438927 79.299191 207.656298 80.866007 204.867739 83.654566 
C 202.07918 86.443126 200.512364 90.225754 200.512364 94.169373 
C 200.512364 98.112991 202.07918 101.89562 204.867739 104.684179 
C 207.656298 107.472738 211.438927 109.039555 215.382545 109.039555 
z
" clip-path="url(#p177d8824aa)" style="fill: #4caf50; opacity: 0.6; stroke: #2e7d32; stroke-linejoin: miter"/>
   </g>
   <g id="patch_8">
    <path d="M 197.538327 228.001009 
C 201.481946 228.001009 205.264574 226.434193 208.053134 223.645634 
C 210.841693 220.857074 212.408509 217.074446 212.408509 213.130827 
C 212.408509 209.187209 210.841693 205.40458 208.053134 202.616021 
C 205.264574 199.827462 201.481946 198.260645 197.538327 198.260645 
C 193.594709 198.260645 189.81208 199.827462 187.023521 202.616021 
C 184.234962 205.40458 182.668145 209.187209 182.668145 213.130827 
C 182.668145 217.074446 184.234962 220.857074 187.023521 223.645634 
C 189.81208 226.434193 193.594709 228.001009 197.538327 228.001009 
z
" clip-path="url(#p177d8824aa)" style="fill: #4caf50; opacity: 0.6; stroke: #2e7d32; stroke-linejoin: miter"/>
   </g>
   <g id="text_1">
    <!-- 细胞核 -->
    <g transform="translate(143.901818 155.853225) scale(0.08 -0.08)">
     <defs>
      <path id="MicrosoftYaHei-Bold-7ec6" d="M 1225 1722 
Q 1444 1741 2156 1834 
Q 2100 1366 2088 1084 
Q 750 941 431 841 
L 181 1584 
Q 488 1828 1031 2728 
Q 400 2691 300 2634 
L 75 3359 
Q 475 3716 1156 5359 
L 1894 5053 
Q 1206 3753 981 3409 
L 1425 3425 
Q 1581 3722 1738 4041 
L 2288 3781 
L 2288 5053 
L 6050 5053 
L 6050 -809 
L 5250 -809 
L 5250 -428 
L 3088 -428 
L 3088 -809 
L 2288 -809 
L 2288 3497 
Q 1634 2338 1225 1722 
z
M 5250 4291 
L 4569 4291 
L 4569 2722 
L 5250 2722 
L 5250 4291 
z
M 3088 2722 
L 3769 2722 
L 3769 4291 
L 3088 4291 
L 3088 2722 
z
M 3088 334 
L 3769 334 
L 3769 1959 
L 3088 1959 
L 3088 334 
z
M 4569 334 
L 5250 334 
L 5250 1959 
L 4569 1959 
L 4569 334 
z
M 238 -572 
L 94 259 
Q 1156 384 2175 534 
Q 2131 84 2119 -266 
L 238 -572 
z
" transform="scale(0.015625)"/>
      <path id="MicrosoftYaHei-Bold-80de" d="M 5944 1959 
Q 5938 1341 5719 1041 
Q 6025 878 6325 728 
Q 6194 28 6100 -216 
Q 5906 -709 5181 -709 
L 3581 -709 
Q 2725 -709 2725 216 
L 2725 2922 
Q 2681 2859 2644 2803 
Q 2563 2916 2319 3191 
L 2319 -41 
Q 2319 -584 1894 -678 
Q 1644 -741 1188 -759 
Q 1138 -403 975 66 
Q 869 -441 638 -884 
Q 394 -553 63 -166 
Q 294 334 356 922 
Q 425 1472 425 2934 
L 425 5016 
L 2319 5016 
L 2319 3734 
Q 2856 4559 3156 5359 
L 3931 5191 
Q 3838 4972 3744 4759 
L 5988 4759 
L 5944 1959 
z
M 3044 3434 
L 4813 3434 
L 4813 1497 
L 4900 1497 
Q 5206 1491 5206 1959 
Q 5219 2997 5219 4028 
L 3381 4028 
Q 3219 3728 3044 3434 
z
M 3863 47 
L 4925 47 
Q 5381 47 5431 253 
Q 5519 497 5575 891 
Q 5400 759 5131 753 
Q 4669 741 4269 734 
Q 4219 984 4169 1216 
L 3475 1216 
L 3475 409 
Q 3475 47 3863 47 
z
M 1100 1091 
Q 1069 509 981 84 
Q 1150 66 1350 59 
Q 1606 53 1606 416 
L 1606 1091 
L 1100 1091 
z
M 4081 1891 
L 4081 2759 
L 3475 2759 
L 3475 1891 
L 4081 1891 
z
M 1606 4216 
L 1138 4216 
L 1138 3359 
L 1606 3359 
L 1606 4216 
z
M 1131 1834 
L 1606 1834 
L 1606 2616 
L 1138 2616 
Q 1138 2191 1131 1834 
z
" transform="scale(0.015625)"/>
      <path id="MicrosoftYaHei-Bold-6838" d="M 6288 3866 
L 4253 3866 
Q 3941 3403 3575 2909 
L 4359 2941 
Q 4694 3359 4944 3816 
L 5675 3403 
Q 4575 1509 2475 322 
Q 2169 697 1925 941 
Q 2913 1497 3641 2169 
Q 2922 2116 2563 2078 
L 2338 2709 
Q 2713 2972 3209 3866 
L 2350 3866 
L 2350 4603 
L 3772 4603 
Q 3653 4891 3519 5172 
L 4450 5341 
Q 4619 5009 4791 4603 
L 6288 4603 
L 6288 3866 
z
M 75 1703 
Q 569 2528 809 3391 
L 119 3391 
L 119 4203 
L 863 4203 
L 863 5303 
L 1656 5303 
L 1656 4203 
L 2281 4203 
L 2281 3391 
L 1656 3391 
L 1656 2903 
Q 2047 2594 2469 2228 
L 1906 1628 
Q 1781 1759 1656 1884 
L 1656 -841 
L 863 -841 
L 863 1731 
Q 622 1141 275 559 
Q 169 1228 75 1703 
z
M 5619 2584 
L 6313 2159 
Q 5800 1409 5169 800 
Q 5822 288 6306 -184 
L 5669 -866 
Q 5094 -228 4538 250 
Q 3694 -416 2675 -872 
Q 2406 -534 2125 -222 
Q 4431 897 5619 2584 
z
" transform="scale(0.015625)"/>
     </defs>
     <use xlink:href="#MicrosoftYaHei-Bold-7ec6"/>
     <use xlink:href="#MicrosoftYaHei-Bold-80de" transform="translate(100 0)"/>
     <use xlink:href="#MicrosoftYaHei-Bold-6838" transform="translate(200 0)"/>
    </g>
   </g>
   <g id="text_2">
    <!-- 液泡 -->
    <g style="fill: #1976d2" transform="translate(130.0576 230.975045) scale(0.08 -0.08)">
     <defs>
      <path id="MicrosoftYaHei-Bold-6db2" d="M 2750 -866 
L 1975 -866 
L 1975 1753 
Q 1769 1428 1544 1091 
Q 1500 1259 1456 1416 
Q 1206 453 919 -822 
Q 488 -653 113 -528 
Q 419 459 713 1872 
Q 1088 1691 1413 1572 
Q 1344 1834 1269 2041 
Q 2000 3041 2281 3941 
L 1663 3941 
L 1663 4691 
L 3600 4691 
Q 3500 4922 3381 5184 
L 4313 5353 
Q 4450 5084 4619 4691 
L 6275 4691 
L 6275 3941 
L 3794 3941 
L 4488 3784 
Q 4425 3609 4356 3447 
L 6075 3447 
L 6075 2778 
Q 5894 1491 5131 566 
Q 5638 209 6363 -22 
Q 6138 -384 5888 -847 
Q 5056 -472 4531 -28 
Q 4038 -441 3250 -884 
Q 3000 -534 2750 -241 
L 2750 -866 
z
M 5263 2709 
L 4025 2709 
Q 3938 2522 3838 2341 
Q 4119 1609 4544 1103 
Q 5138 1803 5263 2709 
z
M 3963 572 
Q 3638 991 3381 1547 
Q 3231 1309 3075 1078 
Q 2900 1478 2750 1784 
L 2750 -153 
Q 3506 241 3963 572 
z
M 606 3609 
Q 1056 3247 1538 2834 
L 944 2147 
Q 513 2591 81 2972 
L 606 3609 
z
M 644 5266 
Q 1125 4897 1575 4497 
L 1000 3853 
Q 544 4291 113 4684 
L 644 5266 
z
M 3106 3834 
Q 2944 3478 2750 3103 
L 2750 1997 
Q 3369 2903 3738 3941 
L 2719 3941 
L 3106 3834 
z
M 4038 2447 
L 4550 2697 
Q 4788 2272 4975 1928 
L 4456 1659 
Q 4269 2028 4038 2447 
z
" transform="scale(0.015625)"/>
      <path id="MicrosoftYaHei-Bold-6ce1" d="M 5684 1122 
Q 6003 956 6331 816 
Q 6188 -241 5905 -469 
Q 5622 -697 5150 -697 
L 3106 -697 
Q 2125 -697 2125 341 
L 2125 2803 
L 1988 2634 
Q 1738 2972 1456 3272 
Q 2213 4184 2600 5347 
L 3413 5178 
Q 3341 4963 3256 4753 
L 5913 4753 
L 5888 2178 
Q 5891 1466 5684 1122 
z
M 2581 3441 
L 4531 3441 
L 4531 1506 
Q 4847 1497 4931 1558 
Q 5016 1619 5042 1736 
Q 5069 1853 5075 2534 
L 5088 4022 
L 2919 4022 
Q 2763 3725 2581 3441 
z
M 3738 1891 
L 3738 2766 
L 2919 2766 
L 2919 1891 
L 3738 1891 
z
M 3281 59 
L 4838 59 
Q 5066 59 5202 111 
Q 5338 163 5394 297 
Q 5450 431 5522 931 
Q 5322 766 4956 750 
Q 4591 734 4075 734 
Q 4031 975 3969 1216 
L 2919 1216 
L 2919 441 
Q 2919 59 3281 59 
z
M 838 5234 
Q 1325 4903 1906 4434 
L 1356 3809 
Q 769 4341 313 4672 
L 838 5234 
z
M 606 3572 
Q 1150 3197 1681 2734 
L 1119 2103 
Q 669 2553 88 3003 
L 606 3572 
z
M 994 1903 
Q 1369 1716 1813 1578 
Q 1406 397 1069 -803 
Q 600 -628 219 -509 
Q 619 572 994 1903 
z
" transform="scale(0.015625)"/>
     </defs>
     <use xlink:href="#MicrosoftYaHei-Bold-6db2"/>
     <use xlink:href="#MicrosoftYaHei-Bold-6ce1" transform="translate(100 0)"/>
    </g>
   </g>
   <g id="text_3">
    <!-- 叶绿体 -->
    <g style="fill: #2e7d32" transform="translate(55.430727 82.273227) scale(0.075 -0.075)">
     <defs>
      <path id="MicrosoftYaHei-Bold-53f6" d="M 2906 3391 
L 4150 3391 
L 4150 5328 
L 5050 5328 
L 5050 3391 
L 6300 3391 
L 6300 2553 
L 5050 2553 
L 5050 -822 
L 4150 -822 
L 4150 2553 
L 2906 2553 
L 2906 3391 
z
M 375 4841 
L 2669 4841 
L 2669 -122 
L 1881 -122 
L 1881 403 
L 1163 403 
L 1163 -197 
L 375 -197 
L 375 4841 
z
M 1881 4053 
L 1163 4053 
L 1163 1191 
L 1881 1191 
L 1881 4053 
z
" transform="scale(0.015625)"/>
      <path id="MicrosoftYaHei-Bold-7eff" d="M 1213 1653 
L 2106 1766 
Q 2050 1372 2056 1022 
Q 1250 959 456 816 
L 244 1541 
Q 519 1794 1000 2713 
Q 556 2678 294 2634 
L 69 3347 
Q 500 3922 1006 5359 
L 1788 5128 
Q 1363 4197 875 3416 
L 1363 3438 
Q 1541 3803 1738 4241 
L 2494 3916 
Q 1725 2397 1213 1653 
z
M 2575 4059 
L 4834 4059 
L 4856 4397 
L 2413 4397 
L 2413 5103 
L 5738 5103 
L 5597 3078 
L 6300 3078 
L 6300 2384 
L 4588 2384 
L 4588 2131 
Q 4700 1859 4841 1622 
Q 5231 1944 5669 2366 
L 6263 1809 
L 5228 1094 
Q 5672 594 6300 291 
Q 6006 -84 5775 -466 
Q 5034 47 4588 838 
L 4588 66 
Q 4588 -369 4391 -589 
Q 4194 -809 3848 -818 
Q 3503 -828 2969 -828 
Q 2900 -422 2781 -28 
Q 3084 -53 3350 -53 
Q 3588 -53 3669 14 
Q 3750 81 3750 259 
L 3750 803 
Q 3203 363 2513 -141 
L 2053 447 
Q 2019 109 2031 -216 
L 250 -528 
L 88 297 
Q 1228 419 2041 578 
Q 3022 1063 3750 1591 
L 3750 2384 
L 2697 2384 
Q 3075 2097 3513 1716 
L 3006 1197 
Q 2681 1522 2188 1916 
L 2638 2384 
L 2088 2384 
L 2088 3078 
L 4775 3078 
L 4794 3416 
L 2575 3416 
L 2575 4059 
z
" transform="scale(0.015625)"/>
      <path id="MicrosoftYaHei-Bold-4f53" d="M 1100 5309 
L 1906 5103 
Q 1697 4303 1450 3613 
L 1450 1072 
Q 2450 2116 2934 3516 
L 1806 3516 
L 1806 4297 
L 3438 4297 
L 3438 5309 
L 4263 5309 
L 4263 4297 
L 6063 4297 
L 6063 3516 
L 4716 3516 
Q 5191 2188 6313 1166 
Q 6044 759 5769 278 
Q 5519 538 5300 853 
L 5300 209 
L 4263 209 
L 4263 -841 
L 3438 -841 
L 3438 209 
L 2431 209 
L 2431 878 
Q 2191 519 1906 191 
Q 1722 491 1450 900 
L 1450 -828 
L 700 -828 
L 700 1922 
Q 500 1563 288 1253 
Q 213 1822 88 2434 
Q 581 3359 1100 5309 
z
M 2509 997 
L 3438 997 
L 3438 3163 
Q 3138 1972 2509 997 
z
M 4263 3128 
L 4263 997 
L 5203 997 
Q 4634 1866 4263 3128 
z
" transform="scale(0.015625)"/>
     </defs>
     <use xlink:href="#MicrosoftYaHei-Bold-53f6"/>
     <use xlink:href="#MicrosoftYaHei-Bold-7eff" transform="translate(100 0)"/>
     <use xlink:href="#MicrosoftYaHei-Bold-4f53" transform="translate(200 0)"/>
    </g>
   </g>
   <g id="text_4">
    <!-- 植物细胞结构 -->
    <g transform="translate(119.901818 16.7925) scale(0.12 -0.12)">
     <defs>
      <path id="MicrosoftYaHei-Bold-690d" d="M 1975 3 
L 2425 3 
L 2425 2128 
L 1975 1534 
Q 1800 1703 1613 1872 
L 1613 -847 
L 850 -847 
L 850 1684 
Q 613 1109 275 547 
Q 175 1178 75 1691 
Q 569 2522 806 3378 
L 119 3378 
L 119 4191 
L 850 4191 
L 850 5297 
L 1613 5297 
L 1613 4191 
L 2194 4191 
L 2194 3378 
L 1613 3378 
L 1613 2778 
Q 2013 2509 2425 2203 
L 2425 3728 
L 3744 3728 
L 3744 4097 
L 2206 4097 
L 2206 4797 
L 3744 4797 
L 3744 5303 
L 4569 5303 
L 4569 4797 
L 6175 4797 
L 6175 4097 
L 4569 4097 
L 4569 3728 
L 5938 3728 
L 5938 3 
L 6325 3 
L 6325 -697 
L 1975 -697 
L 1975 3 
z
M 3213 3 
L 5150 3 
L 5150 328 
L 3213 328 
L 3213 3 
z
M 3213 928 
L 5150 928 
L 5150 1253 
L 3213 1253 
L 3213 928 
z
M 3213 1853 
L 5150 1853 
L 5150 2178 
L 3213 2178 
L 3213 1853 
z
M 5150 3103 
L 3213 3103 
L 3213 2778 
L 5150 2778 
L 5150 3103 
z
" transform="scale(0.015625)"/>
      <path id="MicrosoftYaHei-Bold-7269" d="M 1969 -847 
L 1181 -847 
L 1181 1078 
Q 669 984 206 884 
L 94 1791 
Q 597 1838 1181 1922 
L 1181 3172 
L 775 3172 
Q 697 2731 594 2322 
Q 300 2509 88 2603 
Q 313 3566 381 4784 
L 956 4728 
Q 931 4344 891 3978 
L 1181 3978 
L 1181 5291 
L 1969 5291 
L 1969 3978 
L 2425 3978 
L 2425 3728 
Q 2856 4553 3100 5341 
Q 3550 5259 3938 5178 
Q 3772 4738 3609 4359 
L 6075 4359 
Q 6066 3275 6028 2016 
L 5972 400 
Q 5953 47 5834 -204 
Q 5716 -456 5466 -568 
Q 5216 -681 4150 -647 
Q 4056 -134 3934 216 
Q 3497 -331 2888 -772 
Q 2494 -353 2219 -109 
Q 4194 1163 4425 3534 
L 4116 3534 
Q 3891 1925 2781 966 
Q 2597 1144 2441 1284 
L 1969 1213 
L 1969 -847 
z
M 5300 3534 
L 5025 3534 
Q 4994 1578 3966 253 
Q 4356 222 4694 222 
Q 5122 222 5187 645 
Q 5253 1069 5300 3534 
z
M 2638 2647 
Q 2384 3003 2228 3172 
L 1969 3172 
L 1969 2044 
Q 2241 2088 2531 2141 
Q 2522 2006 2516 1850 
Q 3275 2559 3519 3534 
L 3213 3534 
Q 2925 3000 2638 2647 
z
" transform="scale(0.015625)"/>
      <path id="MicrosoftYaHei-Bold-7ed3" d="M 2538 3128 
L 3850 3128 
L 3850 3809 
L 2472 3809 
L 2681 3709 
Q 1906 2528 1350 1784 
Q 1800 1841 2313 1891 
Q 2275 1466 2263 1116 
Q 894 966 400 834 
L 156 1534 
Q 553 1884 1100 2697 
Q 631 2663 288 2616 
L 56 3328 
Q 550 3934 1138 5366 
L 1963 5059 
Q 1469 4134 988 3397 
L 1563 3425 
L 1938 4066 
L 2350 3869 
L 2350 4553 
L 3850 4553 
L 3850 5341 
L 4725 5341 
L 4725 4553 
L 6288 4553 
L 6288 3809 
L 4725 3809 
L 4725 3128 
L 6100 3128 
L 6100 2384 
L 2538 2384 
L 2538 3128 
z
M 2594 -841 
L 2594 1847 
L 6025 1847 
L 6025 -841 
L 5188 -841 
L 5188 -472 
L 3431 -472 
L 3431 -841 
L 2594 -841 
z
M 5188 1084 
L 3431 1084 
L 3431 291 
L 5188 291 
L 5188 1084 
z
M 231 -516 
L 94 359 
Q 1175 497 2406 684 
Q 2369 159 2375 -184 
Q 1263 -341 231 -516 
z
" transform="scale(0.015625)"/>
      <path id="MicrosoftYaHei-Bold-6784" d="M 75 1709 
Q 550 2447 828 3353 
L 138 3353 
L 138 4091 
L 900 4091 
L 900 5303 
L 1713 5303 
L 1713 4091 
L 2313 4091 
L 2313 3756 
Q 2825 4431 3100 5278 
L 3963 5209 
Q 3850 4903 3719 4616 
L 6056 4616 
Q 6056 3244 6042 2212 
Q 6028 1181 6004 565 
Q 5981 -50 5714 -367 
Q 5447 -684 5051 -725 
Q 4656 -766 3675 -747 
Q 3588 -253 3494 122 
Q 4175 66 4600 66 
Q 4863 66 5023 206 
Q 5184 347 5191 822 
L 4775 609 
L 4644 878 
Q 3147 769 2444 622 
L 2188 1334 
Q 2669 1691 3388 3453 
L 4188 3128 
L 3206 1453 
L 4316 1525 
Q 4106 1928 3875 2347 
L 4519 2684 
Q 4866 2113 5209 1481 
Q 5231 2419 5231 3841 
L 3313 3841 
Q 2991 3297 2594 2822 
Q 2319 3125 2072 3353 
L 1713 3353 
L 1713 2991 
Q 2153 2594 2575 2191 
L 2031 1678 
Q 1872 1906 1713 2116 
L 1713 -822 
L 900 -822 
L 900 1816 
Q 647 1156 288 566 
Q 219 997 75 1709 
z
" transform="scale(0.015625)"/>
     </defs>
     <use xlink:href="#MicrosoftYaHei-Bold-690d"/>
     <use xlink:href="#MicrosoftYaHei-Bold-7269" transform="translate(100 0)"/>
     <use xlink:href="#MicrosoftYaHei-Bold-7ec6" transform="translate(200 0)"/>
     <use xlink:href="#MicrosoftYaHei-Bold-80de" transform="translate(300 0)"/>
     <use xlink:href="#MicrosoftYaHei-Bold-7ed3" transform="translate(400 0)"/>
     <use xlink:href="#MicrosoftYaHei-Bold-6784" transform="translate(500 0)"/>
    </g>
   </g>
  </g>
  <g id="axes_2">
   <g id="patch_9">
    <path d="M 373.384582 296.403845 
L 551.826764 296.403845 
Q 575.619055 296.403845 575.619055 272.611555 
L 575.619055 94.169373 
Q 575.619055 70.377082 551.826764 70.377082 
L 373.384582 70.377082 
Q 349.592291 70.377082 349.592291 94.169373 
L 349.592291 272.611555 
Q 349.592291 296.403845 373.384582 296.403845 
z
" clip-path="url(#pe65a783f5c)" style="fill: #fce4ec; stroke: #c62828; stroke-width: 2.5; stroke-linejoin: miter"/>
   </g>
   <g id="patch_10">
    <path d="M 462.605673 186.3645 
C 471.281633 186.3645 479.603416 182.917504 485.738247 176.782674 
C 491.873077 170.647844 495.320073 162.32606 495.320073 153.6501 
C 495.320073 144.97414 491.873077 136.652356 485.738247 130.517526 
C 479.603416 124.382696 471.281633 120.9357 462.605673 120.9357 
C 453.929712 120.9357 445.607929 124.382696 439.473099 130.517526 
C 433.338268 136.652356 429.891273 144.97414 429.891273 153.6501 
C 429.891273 162.32606 433.338268 170.647844 439.473099 176.782674 
C 445.607929 182.917504 453.929712 186.3645 462.605673 186.3645 
z
" clip-path="url(#pe65a783f5c)" style="fill: #7b1fa2; opacity: 0.3; stroke: #7b1fa2; stroke-width: 1.5; stroke-linejoin: miter"/>
   </g>
   <g id="patch_11">
    <path d="M 415.021091 207.182755 
C 417.781624 207.182755 420.429464 206.556028 422.381455 205.440604 
C 424.333447 204.325181 425.430218 202.812129 425.430218 201.234682 
C 425.430218 199.657234 424.333447 198.144183 422.381455 197.028759 
C 420.429464 195.913336 417.781624 195.286609 415.021091 195.286609 
C 412.260558 195.286609 409.612718 195.913336 407.660726 197.028759 
C 405.708735 198.144183 404.611964 199.657234 404.611964 201.234682 
C 404.611964 202.812129 405.708735 204.325181 407.660726 205.440604 
C 409.612718 206.556028 412.260558 207.182755 415.021091 207.182755 
z
" clip-path="url(#pe65a783f5c)" style="fill: #ff9800; opacity: 0.6; stroke: #e65100; stroke-linejoin: miter"/>
   </g>
   <g id="patch_12">
    <path d="M 516.138327 195.286609 
C 518.89886 195.286609 521.5467 194.659883 523.498692 193.544459 
C 525.450683 192.429035 526.547455 190.915984 526.547455 189.338536 
C 526.547455 187.761089 525.450683 186.248038 523.498692 185.132614 
C 521.5467 184.01719 518.89886 183.390464 516.138327 183.390464 
C 513.377794 183.390464 510.729954 184.01719 508.777963 185.132614 
C 506.825971 186.248038 505.7292 187.761089 505.7292 189.338536 
C 505.7292 190.915984 506.825971 192.429035 508.777963 193.544459 
C 510.729954 194.659883 513.377794 195.286609 516.138327 195.286609 
z
" clip-path="url(#pe65a783f5c)" style="fill: #ff9800; opacity: 0.6; stroke: #e65100; stroke-linejoin: miter"/>
   </g>
   <g id="line2d_1">
    <path d="M 462.605673 123.909736 
L 563.722909 82.273227 
" clip-path="url(#pe65a783f5c)" style="fill: none; stroke: #000000; stroke-width: 0.8; stroke-linecap: square"/>
   </g>
   <g id="text_5">
    <!-- 细胞核 -->
    <g transform="translate(450.605673 155.853225) scale(0.08 -0.08)">
     <use xlink:href="#MicrosoftYaHei-Bold-7ec6"/>
     <use xlink:href="#MicrosoftYaHei-Bold-80de" transform="translate(100 0)"/>
     <use xlink:href="#MicrosoftYaHei-Bold-6838" transform="translate(200 0)"/>
    </g>
   </g>
   <g id="text_6">
    <!-- 线粒体 -->
    <g style="fill: #e65100" transform="translate(504.888327 171.494318) scale(0.075 -0.075)">
     <defs>
      <path id="MicrosoftYaHei-Bold-7ebf" d="M 225 -528 
L 63 347 
Q 1188 491 2369 678 
Q 2353 481 2350 256 
Q 3069 481 3691 806 
Q 3550 1250 3466 1859 
L 2413 1734 
L 2306 2491 
L 3384 2619 
L 3347 3244 
L 2525 3159 
L 2488 3494 
Q 1859 2456 1356 1778 
Q 1919 1859 2294 1928 
Q 2263 1672 2231 1147 
Q 888 972 431 847 
L 200 1547 
Q 597 1922 1075 2641 
Q 738 2613 294 2566 
L 63 3278 
Q 581 3916 1194 5322 
L 1988 5009 
Q 1438 4034 1000 3353 
Q 1234 3356 1531 3372 
Q 1700 3663 1881 3991 
L 2466 3716 
L 2444 3922 
L 3303 4006 
L 3250 5303 
L 4094 5303 
Q 4103 4669 4128 4088 
L 5219 4194 
Q 4844 4469 4350 4778 
L 4756 5316 
Q 5263 5041 5769 4716 
L 5388 4213 
L 5988 4272 
L 6063 3522 
L 4169 3328 
L 4216 2716 
L 6156 2947 
L 6238 2197 
L 5484 2106 
L 6038 1666 
Q 5431 1003 4731 509 
Q 4991 100 5203 100 
Q 5316 100 5387 251 
Q 5459 403 5581 1047 
Q 6013 822 6313 684 
Q 6072 -288 5839 -564 
Q 5606 -841 5300 -841 
Q 4503 -841 4006 56 
Q 3259 -353 2419 -597 
Q 2325 -400 2200 -178 
Q 1084 -353 225 -528 
z
M 5413 2097 
L 4309 1963 
Q 4369 1603 4447 1266 
Q 4972 1638 5413 2097 
z
" transform="scale(0.015625)"/>
      <path id="MicrosoftYaHei-Bold-7c92" d="M 2350 4841 
L 2900 4659 
Q 2838 4472 2775 4297 
L 4022 4297 
Q 3878 4700 3713 5122 
L 4563 5366 
Q 4775 4928 4969 4447 
L 4425 4297 
L 6119 4297 
L 6119 3509 
L 2750 3509 
L 2750 4222 
Q 2578 3747 2406 3341 
L 1881 3566 
Q 2156 4191 2350 4841 
z
M 100 3141 
L 1050 3141 
L 1050 5334 
L 1850 5334 
L 1850 3141 
L 2775 3141 
L 2775 2397 
L 1850 2397 
L 1850 1950 
L 2169 2153 
Q 2500 1772 2881 1222 
L 2250 797 
Q 2044 1131 1850 1416 
L 1850 -822 
L 1050 -822 
L 1050 1081 
Q 756 447 363 -72 
Q 238 441 81 928 
Q 581 1566 944 2397 
L 100 2397 
L 100 3141 
z
M 650 4822 
Q 844 4178 988 3522 
L 425 3372 
Q 300 3991 125 4678 
L 650 4822 
z
M 2450 203 
L 4422 203 
Q 4809 1528 5131 3209 
L 6025 3003 
L 5238 203 
L 6319 203 
L 6319 -584 
L 2450 -584 
L 2450 203 
z
M 3600 3166 
Q 3969 1953 4275 734 
L 3444 509 
Q 3169 1791 2838 2941 
L 3600 3166 
z
" transform="scale(0.015625)"/>
     </defs>
     <use xlink:href="#MicrosoftYaHei-Bold-7ebf"/>
     <use xlink:href="#MicrosoftYaHei-Bold-7c92" transform="translate(100 0)"/>
     <use xlink:href="#MicrosoftYaHei-Bold-4f53" transform="translate(200 0)"/>
    </g>
   </g>
   <g id="text_7">
    <!-- 细胞膜 -->
    <g style="fill: #c62828" transform="translate(450.605673 242.871191) scale(0.08 -0.08)">
     <defs>
      <path id="MicrosoftYaHei-Bold-819c" d="M 6325 553 
L 4944 553 
Q 5506 97 6363 -41 
Q 6175 -403 5969 -853 
Q 4919 -553 4331 334 
Q 3881 -484 2688 -891 
Q 2531 -597 2256 -197 
Q 2194 -591 1825 -684 
Q 1619 -741 1169 -772 
Q 1131 -459 981 3 
Q 875 -472 625 -916 
Q 413 -547 88 -197 
Q 300 297 363 878 
Q 425 1434 425 2903 
L 425 5078 
L 2275 5078 
L 2275 -128 
Q 3181 59 3606 553 
L 2463 553 
L 2463 1166 
L 3900 1166 
Q 3938 1316 3950 1491 
L 2681 1491 
L 2681 3772 
L 6081 3772 
L 6081 1491 
L 4713 1491 
Q 4694 1322 4675 1166 
L 6325 1166 
L 6325 553 
z
M 5350 2053 
L 5350 2397 
L 3413 2397 
L 3413 2053 
L 5350 2053 
z
M 5350 3209 
L 3413 3209 
L 3413 2872 
L 5350 2872 
L 5350 3209 
z
M 1100 1078 
Q 1075 428 1000 72 
Q 1138 53 1319 47 
Q 1563 47 1563 403 
L 1563 1078 
L 1100 1078 
z
M 1125 1822 
L 1563 1822 
L 1563 2678 
L 1131 2678 
Q 1131 2209 1125 1822 
z
M 1563 4278 
L 1131 4278 
L 1131 3422 
L 1563 3422 
L 1563 4278 
z
M 5531 3897 
L 4806 3897 
L 4806 4247 
L 3956 4247 
L 3956 3897 
L 3231 3897 
L 3231 4247 
L 2488 4247 
L 2488 4853 
L 3231 4853 
L 3231 5284 
L 3956 5284 
L 3956 4853 
L 4806 4853 
L 4806 5284 
L 5531 5284 
L 5531 4853 
L 6313 4853 
L 6313 4247 
L 5531 4247 
L 5531 3897 
z
" transform="scale(0.015625)"/>
     </defs>
     <use xlink:href="#MicrosoftYaHei-Bold-7ec6"/>
     <use xlink:href="#MicrosoftYaHei-Bold-80de" transform="translate(100 0)"/>
     <use xlink:href="#MicrosoftYaHei-Bold-819c" transform="translate(200 0)"/>
    </g>
   </g>
   <g id="text_8">
    <!-- 无细胞壁 -->
    <g style="fill: #555555" transform="translate(575.619055 82.273227) scale(0.08 -0.08)">
     <defs>
      <path id="MicrosoftYaHei-65e0" d="M 200 2878 
L 2650 2878 
Q 2781 3528 2806 4328 
L 675 4328 
L 675 4816 
L 5750 4816 
L 5750 4328 
L 3331 4328 
Q 3288 3528 3169 2878 
L 6225 2878 
L 6225 2391 
L 3063 2391 
Q 2588 278 450 -884 
Q 313 -672 113 -441 
Q 1975 491 2538 2391 
L 200 2391 
L 200 2878 
z
M 3400 1941 
L 3906 1941 
L 3906 297 
Q 3906 -197 4363 -197 
L 5219 -197 
Q 5644 -197 5700 172 
Q 5750 528 5775 1097 
Q 6013 1009 6300 916 
Q 6238 297 6188 -16 
Q 6106 -641 5300 -641 
L 4219 -641 
Q 3400 -641 3400 222 
L 3400 1941 
z
" transform="scale(0.015625)"/>
      <path id="MicrosoftYaHei-7ec6" d="M 2444 4791 
L 6013 4791 
L 6013 -747 
L 5525 -747 
L 5525 -228 
L 2931 -228 
L 2931 -759 
L 2444 -759 
L 2444 4791 
z
M 894 1572 
Q 1531 1666 2200 1778 
Q 2163 1534 2144 1297 
Q 1313 1172 319 1003 
L 219 1478 
Q 634 1906 1178 2794 
Q 675 2763 219 2722 
L 100 3147 
Q 675 3916 1294 5366 
L 1769 5178 
Q 1094 3853 663 3184 
Q 1003 3194 1425 3206 
Q 1634 3569 1863 3997 
L 2325 3766 
Q 1750 2778 894 1572 
z
M 4463 241 
L 5525 241 
L 5525 2091 
L 4463 2091 
L 4463 241 
z
M 2931 241 
L 3988 241 
L 3988 2091 
L 2931 2091 
L 2931 241 
z
M 5525 4322 
L 4463 4322 
L 4463 2541 
L 5525 2541 
L 5525 4322 
z
M 2931 2541 
L 3988 2541 
L 3988 4322 
L 2931 4322 
L 2931 2541 
z
M 81 84 
Q 1150 284 2219 528 
Q 2200 278 2200 53 
Q 1294 -122 219 -397 
L 81 84 
z
" transform="scale(0.015625)"/>
      <path id="MicrosoftYaHei-80de" d="M 2169 3128 
Q 2819 4034 3206 5309 
L 3663 5159 
Q 3544 4822 3419 4522 
L 5913 4522 
Q 5888 1972 5856 1641 
Q 5819 522 4725 553 
Q 4400 553 3956 572 
Q 3925 841 3863 1072 
Q 4425 1016 4675 1016 
Q 5388 959 5394 1766 
Q 5419 2172 5438 4084 
L 3231 4084 
Q 3050 3678 2850 3334 
L 4844 3334 
L 4844 1528 
L 3225 1528 
L 3225 253 
Q 3225 -241 3681 -241 
L 5081 -241 
Q 5575 -241 5700 134 
Q 5781 372 5869 866 
Q 6094 747 6319 672 
Q 6213 178 6119 -97 
Q 5919 -678 5200 -678 
L 3588 -678 
Q 2781 -678 2781 191 
L 2781 3216 
Q 2644 2984 2531 2816 
Q 2338 2997 2169 3128 
z
M 525 4972 
L 2138 4972 
L 2138 -166 
Q 2138 -678 1656 -741 
Q 1456 -766 963 -741 
Q 931 -491 888 -278 
Q 1231 -316 1450 -316 
Q 1700 -316 1700 -53 
L 1700 1397 
L 963 1397 
Q 975 -28 425 -878 
Q 256 -678 56 -528 
Q 563 259 525 1566 
L 525 4972 
z
M 4406 1953 
L 4406 2909 
L 3225 2909 
L 3225 1953 
L 4406 1953 
z
M 963 1809 
L 1700 1809 
L 1700 2984 
L 963 2984 
L 963 1809 
z
M 1700 4559 
L 963 4559 
L 963 3397 
L 1700 3397 
L 1700 4559 
z
" transform="scale(0.015625)"/>
      <path id="MicrosoftYaHei-58c1" d="M 175 -191 
L 2988 -191 
L 2988 422 
L 750 422 
L 750 847 
L 2988 847 
L 2988 1353 
L 3475 1353 
L 3475 847 
L 5650 847 
L 5650 422 
L 3475 422 
L 3475 -191 
L 6250 -191 
L 6250 -628 
L 175 -628 
L 175 -191 
z
M 675 4959 
L 3000 4959 
L 3000 3366 
L 2575 3366 
L 2575 3497 
L 1094 3497 
Q 1038 2328 300 1391 
Q 200 1653 88 1916 
Q 675 2616 675 3997 
L 675 4959 
z
M 3338 2322 
L 4400 2322 
L 4400 2872 
L 3175 2872 
L 3175 3272 
L 3906 3272 
Q 3731 3597 3531 3891 
L 3881 4109 
Q 4125 3778 4344 3416 
L 4081 3272 
L 4831 3272 
Q 5100 3691 5319 4103 
L 5744 3891 
Q 5531 3578 5306 3272 
L 6175 3272 
L 6175 2872 
L 4838 2872 
L 4838 2322 
L 5975 2322 
L 5975 1922 
L 4838 1922 
L 4838 1209 
L 4400 1209 
L 4400 1922 
L 3338 1922 
L 3338 2322 
z
M 1063 2972 
L 3025 2972 
L 3025 1428 
L 2600 1428 
L 2600 1547 
L 1488 1547 
L 1488 1297 
L 1063 1297 
L 1063 2972 
z
M 3275 4584 
L 4431 4584 
Q 4331 4853 4175 5178 
L 4581 5334 
Q 4750 5003 4875 4691 
L 4569 4584 
L 6063 4584 
L 6063 4184 
L 3275 4184 
L 3275 4584 
z
M 2575 3897 
L 2575 4559 
L 1113 4559 
L 1113 3897 
L 2575 3897 
z
M 2600 1947 
L 2600 2572 
L 1488 2572 
L 1488 1947 
L 2600 1947 
z
" transform="scale(0.015625)"/>
     </defs>
     <use xlink:href="#MicrosoftYaHei-65e0"/>
     <use xlink:href="#MicrosoftYaHei-7ec6" transform="translate(100 0)"/>
     <use xlink:href="#MicrosoftYaHei-80de" transform="translate(200 0)"/>
     <use xlink:href="#MicrosoftYaHei-58c1" transform="translate(300 0)"/>
    </g>
   </g>
   <g id="text_9">
    <!-- 动物细胞结构 -->
    <g transform="translate(438.501818 16.7925) scale(0.12 -0.12)">
     <defs>
      <path id="MicrosoftYaHei-Bold-52a8" d="M 2469 2178 
L 3134 603 
Q 3563 1378 3553 3441 
L 2919 3441 
L 2919 4266 
L 3572 4266 
L 3581 5328 
L 4413 5328 
L 4400 4266 
L 6038 4266 
L 5966 734 
Q 5947 22 5905 -156 
Q 5863 -334 5731 -473 
Q 5600 -613 5387 -675 
Q 5175 -738 4269 -747 
Q 4169 -272 4044 191 
Q 4456 166 4728 166 
Q 4909 166 5006 237 
Q 5103 309 5120 445 
Q 5138 581 5161 1404 
Q 5184 2228 5194 3441 
L 4384 3441 
Q 4356 2047 4272 1445 
Q 4188 844 3925 228 
Q 3663 -388 3244 -866 
Q 2888 -584 2481 -341 
Q 2663 -156 2813 50 
L 1078 -97 
Q 688 -144 481 -228 
L 94 528 
Q 422 794 897 2491 
L 119 2491 
L 119 3291 
L 3006 3291 
L 3006 2491 
L 1806 2491 
Q 1516 1594 1188 747 
Q 1756 763 2216 788 
Q 1991 1416 1775 1947 
L 2469 2178 
z
M 2788 4066 
L 388 4066 
L 388 4866 
L 2788 4866 
L 2788 4066 
z
" transform="scale(0.015625)"/>
     </defs>
     <use xlink:href="#MicrosoftYaHei-Bold-52a8"/>
     <use xlink:href="#MicrosoftYaHei-Bold-7269" transform="translate(100 0)"/>
     <use xlink:href="#MicrosoftYaHei-Bold-7ec6" transform="translate(200 0)"/>
     <use xlink:href="#MicrosoftYaHei-Bold-80de" transform="translate(300 0)"/>
     <use xlink:href="#MicrosoftYaHei-Bold-7ed3" transform="translate(400 0)"/>
     <use xlink:href="#MicrosoftYaHei-Bold-6784" transform="translate(500 0)"/>
    </g>
   </g>
  </g>
 </g>
 <defs>
  <clipPath id="p177d8824aa">
   <rect x="7.2" y="22.7925" width="297.403636" height="297.403636"/>
  </clipPath>
  <clipPath id="pe65a783f5c">
   <rect x="325.8" y="22.7925" width="297.403636" height="297.403636"/>
  </clipPath>
 </defs>
</svg>
