<?xml version="1.0" encoding="utf-8" standalone="no"?>
<!DOCTYPE svg PUBLIC "-//W3C//DTD SVG 1.1//EN"
  "http://www.w3.org/Graphics/SVG/1.1/DTD/svg11.dtd">
<svg xmlns:xlink="http://www.w3.org/1999/xlink" width="337.2pt" height="352.7925pt" viewBox="0 0 337.2 352.7925" xmlns="http://www.w3.org/2000/svg" version="1.1">
 <metadata>
  <rdf:RDF xmlns:dc="http://purl.org/dc/elements/1.1/" xmlns:cc="http://creativecommons.org/ns#" xmlns:rdf="http://www.w3.org/1999/02/22-rdf-syntax-ns#">
   <cc:Work>
    <dc:type rdf:resource="http://purl.org/dc/dcmitype/StillImage"/>
    <dc:date>2026-05-22T15:09:00.207007</dc:date>
    <dc:format>image/svg+xml</dc:format>
    <dc:creator>
     <cc:Agent>
      <dc:title>Matplotlib v3.10.9, https://matplotlib.org/</dc:title>
     </cc:Agent>
    </dc:creator>
   </cc:Work>
  </rdf:RDF>
 </metadata>
 <defs>
  <style type="text/css">*{stroke-linejoin: round; stroke-linecap: butt}</style>
 </defs>
 <g id="figure_1">
  <g id="patch_1">
   <path d="M -0 352.7925 
L 337.2 352.7925 
L 337.2 0 
L -0 0 
L -0 352.7925 
z
" style="fill: none"/>
  </g>
  <g id="axes_1">
   <g id="patch_2">
    <path d="M 174.781979 189.379796 
L 166.525082 186.665291 
L 168.582709 184.213107 
L 65.549731 97.758173 
L 65.584313 97.71696 
L 168.617291 184.171893 
L 170.674918 181.719709 
z
" clip-path="url(#p6acfa0cb84)" style="fill: #c0392b; stroke: #c0392b; stroke-width: 2; stroke-linejoin: miter"/>
   </g>
   <g id="patch_3">
    <path d="M 250.374793 300.979007 
L 243.101808 296.219955 
L 245.723995 294.383879 
L 168.577965 184.207929 
L 168.622035 184.177071 
L 245.768066 294.353021 
L 248.390253 292.516945 
z
" clip-path="url(#p6acfa0cb84)" style="fill: #3498db; stroke: #3498db; stroke-width: 2; stroke-linejoin: miter"/>
   </g>
   <g id="patch_4">
    <path d="M 277.814956 92.55027 
L 273.707896 100.210358 
L 271.650269 97.758173 
L 168.617291 184.213107 
L 168.582709 184.171893 
L 271.615687 97.71696 
L 269.558059 95.264775 
z
" clip-path="url(#p6acfa0cb84)" style="fill: #2ecc71; stroke: #2ecc71; stroke-width: 2; stroke-linejoin: miter"/>
   </g>
   <g id="patch_5">
    <path d="M 193.327915 163.443316 
C 190.298149 159.832582 186.513979 156.928887 182.242117 154.936885 
C 177.970256 152.944883 173.313478 151.9125 168.6 151.9125 
" clip-path="url(#p6acfa0cb84)" style="fill: none; stroke: #c0392b; stroke-width: 1.5; stroke-linejoin: miter"/>
   </g>
   <g id="patch_6">
    <path d="M 168.6 211.0925 
C 171.344024 211.0925 174.071964 210.67263 176.688986 209.847486 
C 179.306008 209.022342 181.781433 207.801598 184.029206 206.22769 
" clip-path="url(#p6acfa0cb84)" style="fill: none; stroke: #3498db; stroke-width: 1.5; stroke-linejoin: miter"/>
   </g>
   <g id="line2d_1">
    <path d="M 7.2 184.1925 
L 330 184.1925 
" clip-path="url(#p6acfa0cb84)" style="fill: none; stroke: #000000; stroke-width: 2; stroke-linecap: square"/>
   </g>
   <g id="line2d_2">
    <path d="M 168.6 345.5925 
L 168.6 22.7925 
" clip-path="url(#p6acfa0cb84)" style="fill: none; stroke-dasharray: 4.44,1.92; stroke-dashoffset: 0; stroke: #999999; stroke-width: 1.2"/>
   </g>
   <g id="text_1">
    <!-- 空气 -->
    <g style="fill: #3498db" transform="translate(299.24 200.3325) scale(0.1 -0.1)">
     <defs>
      <path id="MicrosoftYaHei-7a7a" d="M 331 -34 
L 2931 -34 
L 2931 1603 
L 975 1603 
L 975 2078 
L 5425 2078 
L 5425 1603 
L 3463 1603 
L 3463 -34 
L 6069 -34 
L 6069 -509 
L 331 -509 
L 331 -34 
z
M 369 4528 
L 3084 4528 
Q 2941 4800 2725 5141 
L 3188 5366 
Q 3444 4997 3631 4641 
L 3403 4528 
L 6038 4528 
L 6038 3316 
L 5525 3316 
L 5525 4053 
L 881 4053 
L 881 3316 
L 369 3316 
L 369 4528 
z
M 2381 3741 
L 2750 3384 
Q 1538 2434 469 1834 
Q 275 2091 94 2241 
Q 1319 2866 2381 3741 
z
M 3988 3734 
Q 5300 2953 6269 2259 
L 5913 1828 
Q 4969 2566 3688 3372 
L 3988 3734 
z
" transform="scale(0.015625)"/>
      <path id="MicrosoftYaHei-6c14" d="M 738 2159 
L 738 2597 
L 5175 2597 
L 5175 1941 
Q 5175 441 5513 -178 
Q 5663 -409 5744 -128 
Q 5831 316 5869 972 
Q 6094 891 6319 841 
Q 6300 359 6188 -216 
Q 6044 -828 5606 -828 
Q 5263 -828 5063 -422 
Q 4675 328 4675 1916 
L 4675 2159 
L 738 2159 
z
M 88 2828 
Q 988 3953 1431 5353 
L 1938 5203 
Q 1834 4909 1722 4634 
L 5988 4634 
L 5988 4197 
L 1528 4197 
Q 1016 3106 288 2259 
Q 175 2616 88 2828 
z
M 1438 3609 
L 5513 3609 
L 5513 3184 
L 1438 3184 
L 1438 3609 
z
" transform="scale(0.015625)"/>
     </defs>
     <use xlink:href="#MicrosoftYaHei-7a7a"/>
     <use xlink:href="#MicrosoftYaHei-6c14" transform="translate(100 0)"/>
    </g>
   </g>
   <g id="text_2">
    <!-- 水 -->
    <g style="fill: #2ecc71" transform="translate(309.24 168.0525) scale(0.1 -0.1)">
     <defs>
      <path id="MicrosoftYaHei-6c34" d="M 2925 5297 
L 3431 5297 
L 3431 4294 
Q 3700 3563 4047 2934 
Q 4738 3509 5425 4309 
L 5844 3934 
Q 5113 3169 4300 2506 
Q 5125 1200 6319 384 
Q 6056 122 5894 -84 
Q 4250 1209 3431 3119 
L 3431 197 
Q 3431 -734 2538 -734 
Q 2263 -734 1725 -728 
Q 1694 -497 1625 -166 
Q 2125 -216 2438 -216 
Q 2925 -216 2925 253 
L 2925 5297 
z
M 256 3297 
L 256 3772 
L 2413 3772 
L 2413 3316 
Q 1881 1266 475 -197 
Q 263 47 94 184 
Q 1506 1672 1913 3297 
L 256 3297 
z
" transform="scale(0.015625)"/>
     </defs>
     <use xlink:href="#MicrosoftYaHei-6c34"/>
    </g>
   </g>
   <g id="text_3">
    <!-- 入射光线 -->
    <g style="fill: #c0392b" transform="translate(91.398254 98.942625) rotate(-320) scale(0.09 -0.09)">
     <defs>
      <path id="MicrosoftYaHei-5165" d="M 1831 4947 
L 2244 5241 
Q 2944 4809 3781 3028 
Q 4950 472 6319 -91 
L 5881 -641 
Q 4513 172 3350 2784 
Q 3256 2994 3166 3184 
Q 2441 700 469 -678 
Q 300 -428 88 -209 
Q 2116 1069 2819 3834 
Q 2328 4653 1831 4947 
z
" transform="scale(0.015625)"/>
      <path id="MicrosoftYaHei-5c04" d="M 50 -147 
Q 1116 394 1881 1278 
L 125 1278 
L 125 1684 
L 494 1684 
L 494 4584 
L 1231 4584 
Q 1400 5009 1500 5359 
L 2006 5228 
Q 1869 4894 1728 4584 
L 2856 4584 
L 2856 -59 
Q 2856 -772 2238 -772 
Q 1969 -772 1581 -759 
Q 1544 -503 1488 -278 
Q 1850 -309 2106 -309 
Q 2394 -309 2394 -3 
L 2394 1278 
Q 1572 178 356 -547 
Q 194 -303 50 -147 
z
M 3069 3934 
L 5088 3934 
L 5088 5278 
L 5563 5278 
L 5563 3934 
L 6325 3934 
L 6325 3466 
L 5563 3466 
L 5563 216 
Q 5563 -722 4663 -722 
Q 4381 -722 3744 -709 
Q 3713 -478 3644 -178 
Q 4269 -234 4594 -234 
Q 5088 -234 5088 291 
L 5088 3466 
L 3069 3466 
L 3069 3934 
z
M 2394 4178 
L 956 4178 
L 956 3609 
L 2394 3609 
L 2394 4178 
z
M 956 1684 
L 2394 1684 
L 2394 2253 
L 956 2253 
L 956 1684 
z
M 956 2647 
L 2394 2647 
L 2394 3216 
L 956 3216 
L 956 2647 
z
M 3250 2684 
L 3638 2891 
Q 4156 2072 4456 1472 
L 4013 1228 
Q 3694 1916 3250 2684 
z
" transform="scale(0.015625)"/>
      <path id="MicrosoftYaHei-5149" d="M 169 2691 
L 2931 2691 
L 2931 5309 
L 3444 5309 
L 3444 2691 
L 6256 2691 
L 6256 2228 
L 4206 2228 
L 4206 216 
Q 4206 -22 4269 -116 
Q 4356 -241 4638 -241 
L 5256 -241 
Q 5706 -241 5750 91 
Q 5794 428 5819 984 
Q 6056 884 6344 797 
Q 6288 153 6231 -122 
Q 6175 -441 5963 -559 
Q 5763 -678 5281 -678 
L 4538 -678 
Q 4056 -678 3863 -466 
Q 3700 -284 3700 141 
L 3700 2228 
L 2491 2228 
Q 2466 931 1988 266 
Q 1469 -459 369 -841 
Q 244 -647 50 -397 
Q 1150 -16 1569 603 
Q 1966 1134 1991 2228 
L 169 2228 
L 169 2691 
z
M 4094 3397 
Q 4813 4084 5369 4828 
L 5825 4503 
Q 5200 3766 4481 3059 
L 4094 3397 
z
M 619 4528 
L 1000 4828 
Q 1631 4134 2213 3434 
L 1756 3084 
Q 1188 3866 619 4528 
z
" transform="scale(0.015625)"/>
      <path id="MicrosoftYaHei-7ebf" d="M 1969 -347 
Q 3144 75 4003 631 
Q 3781 1197 3653 1972 
L 2319 1784 
L 2244 2234 
L 3591 2422 
Q 3538 2859 3513 3356 
L 2381 3228 
L 2306 3678 
L 3488 3809 
Q 3453 4459 3425 5303 
L 3938 5303 
Q 3953 4497 3978 3866 
L 6069 4103 
L 6125 3659 
L 3997 3413 
Q 4019 2919 4069 2488 
L 6225 2791 
L 6281 2347 
L 4128 2041 
Q 4234 1394 4416 916 
Q 5078 1416 5519 2009 
L 5925 1703 
Q 5363 1025 4619 475 
Q 4859 44 5194 -184 
Q 5606 -428 5725 66 
Q 5806 466 5856 953 
Q 6144 828 6338 772 
Q 6231 97 6125 -247 
Q 5944 -778 5506 -778 
Q 5050 -778 4663 -403 
Q 4409 -163 4209 194 
Q 3350 -363 2281 -772 
Q 2169 -597 1969 -347 
z
M 900 1541 
Q 1456 1622 2213 1753 
Q 2175 1522 2156 1272 
Q 1113 1109 325 978 
L 225 1447 
Q 659 1913 1178 2775 
Q 672 2747 225 2703 
L 106 3128 
Q 688 3922 1300 5353 
L 1775 5166 
Q 1131 3897 669 3166 
Q 1041 3178 1422 3194 
Q 1638 3578 1869 4028 
L 2331 3797 
Q 1569 2478 900 1541 
z
M 106 97 
Q 1206 334 2331 616 
Q 2313 366 2313 141 
Q 1269 -103 244 -378 
L 106 97 
z
M 4463 4972 
L 4731 5284 
Q 5175 5003 5681 4609 
L 5381 4247 
Q 4863 4691 4463 4972 
z
" transform="scale(0.015625)"/>
     </defs>
     <use xlink:href="#MicrosoftYaHei-5165"/>
     <use xlink:href="#MicrosoftYaHei-5c04" transform="translate(100 0)"/>
     <use xlink:href="#MicrosoftYaHei-5149" transform="translate(200 0)"/>
     <use xlink:href="#MicrosoftYaHei-7ebf" transform="translate(300 0)"/>
    </g>
   </g>
   <g id="text_4">
    <!-- 折射光线 -->
    <g style="fill: #3498db" transform="translate(207.978787 259.415051) rotate(-325) scale(0.09 -0.09)">
     <defs>
      <path id="MicrosoftYaHei-6298" d="M 2631 4816 
Q 4256 4822 5975 5078 
L 6144 4591 
Q 4281 4397 3119 4372 
L 3119 2916 
L 6300 2916 
L 6300 2453 
L 5163 2453 
L 5163 -822 
L 4663 -822 
L 4663 2453 
L 3119 2453 
Q 3103 203 2250 -859 
Q 2081 -672 1856 -472 
Q 2631 441 2631 2447 
L 2631 4816 
z
M 75 1953 
Q 513 2072 1013 2216 
L 1013 3591 
L 181 3591 
L 181 4022 
L 1013 4022 
L 1013 5259 
L 1500 5259 
L 1500 4022 
L 2275 4022 
L 2275 3591 
L 1500 3591 
L 1500 2363 
Q 1834 2463 2194 2578 
Q 2200 2259 2206 2078 
Q 1922 1997 1500 1866 
L 1500 -22 
Q 1500 -703 938 -722 
Q 650 -734 263 -728 
Q 225 -466 181 -203 
Q 556 -241 756 -241 
Q 1013 -241 1013 66 
L 1013 1709 
Q 622 1584 144 1428 
L 75 1953 
z
" transform="scale(0.015625)"/>
     </defs>
     <use xlink:href="#MicrosoftYaHei-6298"/>
     <use xlink:href="#MicrosoftYaHei-5c04" transform="translate(100 0)"/>
     <use xlink:href="#MicrosoftYaHei-5149" transform="translate(200 0)"/>
     <use xlink:href="#MicrosoftYaHei-7ebf" transform="translate(300 0)"/>
    </g>
   </g>
   <g id="text_5">
    <!-- 反射光线 -->
    <g style="fill: #2ecc71" transform="translate(218.224146 122.082979) rotate(-40) scale(0.09 -0.09)">
     <defs>
      <path id="MicrosoftYaHei-53cd" d="M 881 4884 
Q 3369 4903 5738 5191 
L 5919 4691 
Q 3750 4503 1369 4434 
L 1369 3372 
L 5638 3372 
L 5638 2909 
Q 5125 1525 4100 591 
Q 5019 -25 6331 -247 
Q 6106 -534 5938 -803 
Q 4616 -422 3697 253 
Q 2738 -475 1406 -878 
Q 1263 -659 1063 -397 
Q 2366 -44 3278 597 
Q 2256 1525 1859 2909 
L 1369 2909 
L 1369 2553 
Q 1369 334 413 -853 
Q 250 -653 63 -453 
Q 881 559 881 2553 
L 881 4884 
z
M 5050 2909 
L 2366 2909 
Q 2794 1678 3681 909 
Q 4622 1722 5050 2909 
z
" transform="scale(0.015625)"/>
     </defs>
     <use xlink:href="#MicrosoftYaHei-53cd"/>
     <use xlink:href="#MicrosoftYaHei-5c04" transform="translate(100 0)"/>
     <use xlink:href="#MicrosoftYaHei-5149" transform="translate(200 0)"/>
     <use xlink:href="#MicrosoftYaHei-7ebf" transform="translate(300 0)"/>
    </g>
   </g>
   <g id="text_6">
    <!-- θ₁ -->
    <g style="fill: #c0392b" transform="translate(179.968431 154.432821) scale(0.11 -0.11)">
     <defs>
      <path id="MicrosoftYaHei-Bold-3b8" d="M 253 2541 
Q 253 3784 751 4486 
Q 1250 5188 2141 5188 
Q 2994 5188 3473 4511 
Q 3953 3834 3953 2616 
Q 3953 1344 3458 630 
Q 2963 -84 2081 -84 
Q 1231 -84 742 606 
Q 253 1297 253 2541 
z
M 2913 2947 
Q 2844 4400 2106 4400 
Q 1378 4400 1291 2947 
L 2913 2947 
z
M 1288 2216 
Q 1353 700 2113 700 
Q 2850 700 2913 2216 
L 1288 2216 
z
" transform="scale(0.015625)"/>
      <path id="DejaVuSans-Bold-2081" d="M 441 466 
L 1088 466 
L 1088 2094 
L 384 1932 
L 384 2432 
L 1100 2585 
L 1806 2585 
L 1806 466 
L 2444 466 
L 2444 -24 
L 441 -24 
L 441 466 
z
" transform="scale(0.015625)"/>
     </defs>
     <use xlink:href="#MicrosoftYaHei-Bold-3b8"/>
     <use xlink:href="#DejaVuSans-Bold-2081" transform="translate(65.771484 0)"/>
    </g>
   </g>
   <g id="text_7">
    <!-- θ₂ -->
    <g style="fill: #3498db" transform="translate(175.071189 212.786489) scale(0.11 -0.11)">
     <defs>
      <path id="DejaVuSans-Bold-2082" d="M 1288 501 
L 2444 501 
L 2444 -24 
L 341 -24 
L 341 454 
L 1319 1285 
Q 1509 1451 1590 1576 
Q 1672 1701 1672 1826 
Q 1672 1982 1558 2079 
Q 1444 2176 1259 2176 
Q 1066 2176 844 2105 
Q 622 2035 359 1888 
L 359 2469 
Q 631 2554 886 2596 
Q 1141 2638 1375 2638 
Q 1869 2638 2150 2436 
Q 2431 2235 2431 1888 
Q 2431 1663 2320 1474 
Q 2209 1285 1894 1016 
L 1288 501 
z
" transform="scale(0.015625)"/>
     </defs>
     <use xlink:href="#MicrosoftYaHei-Bold-3b8"/>
     <use xlink:href="#DejaVuSans-Bold-2082" transform="translate(65.771484 0)"/>
    </g>
   </g>
   <g id="text_8">
    <!-- 光的折射：光从空气斜射入水中 -->
    <g transform="translate(84.6 16.7925) scale(0.12 -0.12)">
     <defs>
      <path id="MicrosoftYaHei-Bold-5149" d="M 5381 1547 
Q 5919 1366 6294 1259 
Q 6131 -197 5873 -469 
Q 5616 -741 5056 -741 
L 4450 -741 
Q 3444 -741 3444 284 
L 3444 2047 
L 2703 2047 
Q 2700 -172 763 -853 
Q 406 -403 81 -109 
Q 1763 528 1722 2047 
L 188 2047 
L 188 2916 
L 2700 2916 
L 2700 5322 
L 3650 5322 
L 3650 2916 
L 6213 2916 
L 6213 2047 
L 4369 2047 
L 4369 478 
Q 4369 78 4706 78 
L 4856 78 
Q 5113 78 5203 297 
Q 5294 516 5381 1547 
z
M 5163 4978 
L 5956 4403 
Q 5150 3466 4688 3034 
L 4000 3622 
Q 4525 4128 5163 4978 
z
M 1156 4978 
Q 1906 4222 2369 3678 
L 1613 3103 
Q 988 3891 463 4447 
L 1156 4978 
z
" transform="scale(0.015625)"/>
      <path id="MicrosoftYaHei-Bold-7684" d="M 1250 5303 
L 2181 5159 
L 1900 4309 
L 2963 4309 
L 2963 3091 
Q 3466 3934 3925 5316 
L 4788 5091 
Q 4650 4675 4494 4278 
L 6106 4278 
L 6034 681 
Q 6019 100 5937 -133 
Q 5856 -366 5684 -512 
Q 5513 -659 5205 -712 
Q 4897 -766 3863 -766 
Q 3769 -216 3625 178 
Q 4088 141 4609 141 
Q 4759 141 4868 175 
Q 4978 209 5048 279 
Q 5119 350 5144 437 
Q 5169 525 5184 1206 
L 5213 2484 
Q 5225 3081 5225 3453 
L 4138 3453 
Q 3931 3016 3700 2603 
Q 3403 2797 2963 2988 
L 2963 -734 
L 2094 -734 
L 2094 -284 
L 1206 -284 
L 1206 -772 
L 338 -772 
L 338 4309 
L 997 4309 
Q 1178 4922 1250 5303 
z
M 2094 3491 
L 1206 3491 
L 1206 2422 
L 2094 2422 
L 2094 3491 
z
M 1206 534 
L 2094 534 
L 2094 1603 
L 1206 1603 
L 1206 534 
z
M 3944 2703 
Q 4394 2166 4913 1397 
L 4125 872 
Q 3650 1653 3219 2203 
L 3944 2703 
z
" transform="scale(0.015625)"/>
      <path id="MicrosoftYaHei-Bold-6298" d="M 138 4203 
L 813 4203 
L 813 5259 
L 1663 5259 
L 1663 4203 
L 2300 4203 
L 2300 3422 
L 1663 3422 
L 1663 2456 
L 2388 2591 
Q 2369 2522 2306 1741 
L 1663 1613 
L 1663 22 
Q 1663 -334 1511 -537 
Q 1359 -741 1009 -769 
Q 659 -797 300 -797 
Q 238 -434 131 31 
L 606 16 
Q 813 16 813 284 
L 813 1447 
L 156 1316 
L 106 2216 
Q 441 2256 813 2313 
L 813 3422 
L 138 3422 
L 138 4203 
z
M 5963 5191 
L 6238 4353 
Q 5263 4209 3419 4066 
L 3419 3091 
L 6306 3091 
L 6306 2291 
L 5394 2291 
L 5394 -803 
L 4544 -803 
L 4544 2291 
L 3419 2291 
L 3419 2253 
Q 3419 269 2563 -866 
Q 2281 -503 1894 -147 
Q 2569 666 2569 2441 
L 2569 4853 
Q 4325 4878 5963 5191 
z
" transform="scale(0.015625)"/>
      <path id="MicrosoftYaHei-Bold-5c04" d="M 125 1841 
L 456 1841 
L 456 4659 
L 1134 4659 
Q 1278 4997 1394 5347 
L 2244 5272 
Q 2109 5044 1906 4659 
L 3150 4659 
L 3150 -3 
Q 3150 -809 2306 -809 
L 1700 -797 
Q 1638 -372 1531 -16 
Q 1891 -53 2169 -53 
Q 2363 -53 2369 222 
L 2369 947 
Q 1631 9 519 -628 
Q 319 -247 69 147 
Q 978 572 1616 1134 
L 125 1134 
L 125 1841 
z
M 2369 3953 
L 1238 3953 
L 1238 3628 
L 2369 3628 
L 2369 3953 
z
M 1238 2734 
L 2369 2734 
L 2369 3059 
L 1238 3059 
L 1238 2734 
z
M 1238 1841 
L 2369 1841 
L 2369 2166 
L 1238 2166 
L 1238 1841 
z
M 3350 4091 
L 4919 4091 
L 4919 5284 
L 5763 5284 
L 5763 4091 
L 6319 4091 
L 6319 3291 
L 5763 3291 
L 5763 297 
Q 5763 -200 5570 -450 
Q 5378 -700 5067 -739 
Q 4756 -778 3725 -778 
Q 3650 -328 3531 122 
Q 3947 91 4466 91 
Q 4938 91 4919 578 
L 4919 3291 
L 3350 3291 
L 3350 4091 
z
M 4150 2991 
Q 4463 2197 4756 1278 
L 3944 1041 
Q 3694 2041 3444 2766 
L 4150 2991 
z
" transform="scale(0.015625)"/>
      <path id="MicrosoftYaHei-Bold-ff1a" d="M 1594 3506 
Q 1831 3506 2000 3354 
Q 2169 3203 2169 2981 
Q 2169 2766 2003 2614 
Q 1838 2463 1594 2463 
Q 1353 2463 1189 2616 
Q 1025 2769 1025 2981 
Q 1025 3200 1192 3353 
Q 1359 3506 1594 3506 
z
M 1594 959 
Q 1831 959 2000 806 
Q 2169 653 2169 434 
Q 2169 222 2000 69 
Q 1831 -84 1594 -84 
Q 1356 -84 1190 69 
Q 1025 222 1025 434 
Q 1025 653 1190 806 
Q 1356 959 1594 959 
z
" transform="scale(0.015625)"/>
      <path id="MicrosoftYaHei-Bold-4ece" d="M 3763 5266 
L 4638 5266 
Q 4641 4069 4572 3209 
Q 5066 922 6319 -203 
Q 6206 -284 5556 -878 
Q 4784 -156 4269 1497 
Q 3944 444 2813 -859 
Q 2519 -578 2075 -247 
Q 2309 -6 2854 733 
Q 3400 1472 3584 2394 
Q 3769 3316 3763 5266 
z
M 1281 5266 
L 2163 5266 
Q 2169 3988 2094 3069 
L 3269 1759 
L 2625 1122 
Q 2284 1569 1956 1975 
Q 1706 572 675 -816 
Q 306 -253 69 9 
Q 866 1122 1077 2101 
Q 1288 3081 1281 5266 
z
" transform="scale(0.015625)"/>
      <path id="MicrosoftYaHei-Bold-7a7a" d="M 3531 5347 
Q 3644 5009 3734 4691 
L 6169 4691 
L 6169 3291 
L 5294 3291 
L 5294 3903 
L 1125 3903 
L 1125 3291 
L 250 3291 
L 250 4691 
L 2756 4691 
Q 2681 4947 2588 5234 
L 3531 5347 
z
M 3981 3759 
Q 5256 3166 6306 2578 
L 5881 1822 
Q 4763 2503 3513 3097 
L 3981 3759 
z
M 169 247 
L 2750 247 
L 2750 1341 
L 1088 1341 
L 1088 2000 
Q 816 1856 538 1722 
Q 319 2141 94 2478 
Q 1406 3016 2300 3741 
L 2881 3134 
Q 2153 2591 1347 2141 
L 5313 2141 
L 5313 1341 
L 3650 1341 
L 3650 247 
L 6231 247 
L 6231 -553 
L 169 -553 
L 169 247 
z
" transform="scale(0.015625)"/>
      <path id="MicrosoftYaHei-Bold-6c14" d="M 1281 5316 
L 2238 5316 
Q 2134 5053 2006 4791 
L 5988 4791 
L 5988 4053 
L 1606 4053 
Q 1166 3328 544 2597 
Q 294 3147 81 3522 
Q 919 4459 1281 5316 
z
M 1413 3678 
L 5575 3678 
L 5575 2966 
L 1413 2966 
L 1413 3678 
z
M 738 1841 
L 738 2578 
L 5138 2578 
L 5138 1534 
Q 5138 122 5475 122 
Q 5719 122 5775 1141 
Q 6063 928 6319 822 
Q 6247 -47 6056 -444 
Q 5866 -841 5500 -841 
Q 4891 -841 4595 -292 
Q 4300 256 4300 1453 
L 4300 1841 
L 738 1841 
z
" transform="scale(0.015625)"/>
      <path id="MicrosoftYaHei-Bold-659c" d="M 2800 2809 
L 2219 2809 
L 2219 2297 
L 3138 2297 
L 3138 1572 
L 2219 1572 
L 2219 41 
Q 2219 -709 1625 -778 
Q 1425 -797 825 -803 
Q 806 -553 756 -322 
L 75 -128 
Q 319 572 450 1378 
L 1200 1216 
Q 1075 597 906 -3 
Q 1025 -9 1169 -9 
Q 1406 -9 1406 272 
L 1406 1572 
L 206 1572 
L 206 2297 
L 1406 2297 
L 1406 2809 
L 738 2809 
L 738 3066 
Q 594 2934 444 2809 
Q 313 3109 44 3597 
Q 763 4141 1444 5272 
L 2425 5272 
L 2300 5078 
Q 2863 4572 3475 3928 
L 2888 3284 
Q 2844 3334 2800 3391 
L 2800 2809 
z
M 2888 1378 
Q 3050 1116 3238 784 
L 3144 1378 
L 4838 1547 
L 4838 3897 
Q 4544 3609 4344 3409 
Q 3925 3859 3394 4297 
L 3919 4828 
Q 4369 4491 4838 4059 
L 4838 5309 
L 5681 5309 
L 5681 1628 
L 6256 1691 
L 6331 909 
L 5681 841 
L 5681 -847 
L 4838 -847 
L 4838 753 
L 3338 603 
Q 3431 434 3531 247 
L 2856 -116 
Q 2588 466 2256 1059 
L 2888 1378 
z
M 3631 3247 
Q 4144 2866 4663 2403 
Q 4313 2059 4081 1828 
Q 3656 2266 3106 2716 
L 3631 3247 
z
M 1844 4416 
Q 1506 3903 1188 3528 
L 2681 3528 
Q 2381 3866 1844 4416 
z
" transform="scale(0.015625)"/>
      <path id="MicrosoftYaHei-Bold-5165" d="M 1606 4822 
L 2438 5303 
Q 3106 4778 4019 2934 
Q 4900 1134 6300 128 
Q 5769 -441 5488 -797 
Q 4138 525 3238 2369 
Q 2447 466 813 -822 
Q 525 -459 75 -3 
Q 2013 1391 2709 3494 
Q 2309 4197 1606 4822 
z
" transform="scale(0.015625)"/>
      <path id="MicrosoftYaHei-Bold-6c34" d="M 6175 3903 
Q 5469 3197 4559 2472 
Q 5272 1403 6306 716 
Q 6063 372 5781 -172 
Q 4497 756 3688 2522 
L 3688 278 
Q 3688 -156 3498 -406 
Q 3309 -656 2967 -714 
Q 2625 -772 1750 -772 
Q 1656 -247 1525 203 
Q 1975 153 2419 153 
Q 2819 153 2819 641 
L 2819 5297 
L 3688 5297 
L 3688 4250 
Q 3881 3697 4131 3206 
Q 4897 3888 5463 4522 
L 6175 3903 
z
M 2488 3978 
L 2488 3222 
Q 2044 1047 500 -278 
Q 269 259 63 603 
Q 1200 1572 1663 3153 
L 275 3153 
L 275 3978 
L 2488 3978 
z
" transform="scale(0.015625)"/>
      <path id="MicrosoftYaHei-Bold-4e2d" d="M 2719 5341 
L 3669 5341 
L 3669 4234 
L 6000 4234 
L 6000 728 
L 5075 728 
L 5075 1159 
L 3669 1159 
L 3669 -853 
L 2719 -853 
L 2719 1159 
L 1313 1159 
L 1313 709 
L 388 709 
L 388 4234 
L 2719 4234 
L 2719 5341 
z
M 5075 3372 
L 3669 3372 
L 3669 2022 
L 5075 2022 
L 5075 3372 
z
M 1313 2022 
L 2719 2022 
L 2719 3372 
L 1313 3372 
L 1313 2022 
z
" transform="scale(0.015625)"/>
     </defs>
     <use xlink:href="#MicrosoftYaHei-Bold-5149"/>
     <use xlink:href="#MicrosoftYaHei-Bold-7684" transform="translate(100 0)"/>
     <use xlink:href="#MicrosoftYaHei-Bold-6298" transform="translate(200 0)"/>
     <use xlink:href="#MicrosoftYaHei-Bold-5c04" transform="translate(300 0)"/>
     <use xlink:href="#MicrosoftYaHei-Bold-ff1a" transform="translate(400 0)"/>
     <use xlink:href="#MicrosoftYaHei-Bold-5149" transform="translate(500 0)"/>
     <use xlink:href="#MicrosoftYaHei-Bold-4ece" transform="translate(600 0)"/>
     <use xlink:href="#MicrosoftYaHei-Bold-7a7a" transform="translate(700 0)"/>
     <use xlink:href="#MicrosoftYaHei-Bold-6c14" transform="translate(800 0)"/>
     <use xlink:href="#MicrosoftYaHei-Bold-659c" transform="translate(900 0)"/>
     <use xlink:href="#MicrosoftYaHei-Bold-5c04" transform="translate(1000 0)"/>
     <use xlink:href="#MicrosoftYaHei-Bold-5165" transform="translate(1100 0)"/>
     <use xlink:href="#MicrosoftYaHei-Bold-6c34" transform="translate(1200 0)"/>
     <use xlink:href="#MicrosoftYaHei-Bold-4e2d" transform="translate(1300 0)"/>
    </g>
   </g>
  </g>
 </g>
 <defs>
  <clipPath id="p6acfa0cb84">
   <rect x="7.2" y="22.7925" width="322.8" height="322.8"/>
  </clipPath>
 </defs>
</svg>
