<?xml version="1.0" encoding="utf-8" standalone="no"?>
<!DOCTYPE svg PUBLIC "-//W3C//DTD SVG 1.1//EN"
  "http://www.w3.org/Graphics/SVG/1.1/DTD/svg11.dtd">
<svg xmlns:xlink="http://www.w3.org/1999/xlink" width="424.8pt" height="497.111875pt" viewBox="0 0 424.8 497.111875" xmlns="http://www.w3.org/2000/svg" version="1.1">
 <metadata>
  <rdf:RDF xmlns:dc="http://purl.org/dc/elements/1.1/" xmlns:cc="http://creativecommons.org/ns#" xmlns:rdf="http://www.w3.org/1999/02/22-rdf-syntax-ns#">
   <cc:Work>
    <dc:type rdf:resource="http://purl.org/dc/dcmitype/StillImage"/>
    <dc:date>2026-05-25T22:58:36.302951</dc:date>
    <dc:format>image/svg+xml</dc:format>
    <dc:creator>
     <cc:Agent>
      <dc:title>Matplotlib v3.10.9, https://matplotlib.org/</dc:title>
     </cc:Agent>
    </dc:creator>
   </cc:Work>
  </rdf:RDF>
 </metadata>
 <defs>
  <style type="text/css">*{stroke-linejoin: round; stroke-linecap: butt}</style>
 </defs>
 <g id="figure_1">
  <g id="patch_1">
   <path d="M 0 497.111875 
L 424.8 497.111875 
L 424.8 0 
L 0 0 
z
" style="fill: #ffffff"/>
  </g>
  <g id="axes_1">
   <g id="line2d_1">
    <path d="M 204.192 59.977475 
L 220.608 59.977475 
" clip-path="url(#p69c9938bb4)" style="fill: none; stroke: #000000; stroke-width: 3; stroke-linecap: square"/>
   </g>
   <g id="line2d_2">
    <path d="M 204.192 59.977475 
L 204.192 78.670275 
" clip-path="url(#p69c9938bb4)" style="fill: none; stroke: #000000; stroke-width: 2; stroke-linecap: square"/>
   </g>
   <g id="line2d_3">
    <path d="M 220.608 59.977475 
L 220.608 78.670275 
" clip-path="url(#p69c9938bb4)" style="fill: none; stroke: #000000; stroke-width: 2; stroke-linecap: square"/>
   </g>
   <g id="line2d_4">
    <path d="M 204.192 78.670275 
L 204.192 139.421875 
" clip-path="url(#p69c9938bb4)" style="fill: none; stroke: #000000; stroke-width: 2; stroke-linecap: square"/>
   </g>
   <g id="line2d_5">
    <path d="M 220.608 78.670275 
L 220.608 139.421875 
" clip-path="url(#p69c9938bb4)" style="fill: none; stroke: #000000; stroke-width: 2; stroke-linecap: square"/>
   </g>
   <g id="line2d_6">
    <path d="M 232.92 116.055875 
L 273.96 116.055875 
" clip-path="url(#p69c9938bb4)" style="fill: none; stroke: #000000; stroke-width: 2.5; stroke-linecap: square"/>
   </g>
   <g id="line2d_7">
    <path d="M 232.92 148.768275 
L 273.96 148.768275 
" clip-path="url(#p69c9938bb4)" style="fill: none; stroke: #000000; stroke-width: 2; stroke-linecap: square"/>
   </g>
   <g id="line2d_8">
    <path d="M 220.608 139.421875 
L 220.608 232.885875 
" clip-path="url(#p69c9938bb4)" style="fill: none; stroke: #000000; stroke-width: 2.5; stroke-linecap: square"/>
   </g>
   <g id="line2d_9">
    <path d="M 220.608 232.885875 
L 179.568 232.885875 
" clip-path="url(#p69c9938bb4)" style="fill: none; stroke: #000000; stroke-width: 2.5; stroke-linecap: square"/>
   </g>
   <g id="line2d_10">
    <path d="M 179.568 232.885875 
L 179.568 265.598275 
" clip-path="url(#p69c9938bb4)" style="fill: none; stroke: #000000; stroke-width: 1.5; stroke-linecap: square"/>
   </g>
   <g id="line2d_11">
    <path d="M 159.048 265.598275 
L 200.088 265.598275 
" clip-path="url(#p69c9938bb4)" style="fill: none; stroke: #000000; stroke-width: 2; stroke-linecap: square"/>
   </g>
   <g id="line2d_12">
    <path d="M 159.048 265.598275 
L 159.048 288.964275 
" clip-path="url(#p69c9938bb4)" style="fill: none; stroke: #000000; stroke-width: 1.5; stroke-linecap: square"/>
   </g>
   <g id="line2d_13">
    <path d="M 200.088 265.598275 
L 200.088 288.964275 
" clip-path="url(#p69c9938bb4)" style="fill: none; stroke: #000000; stroke-width: 1.5; stroke-linecap: square"/>
   </g>
   <g id="line2d_14">
    <path d="M 109.8 326.349875 
L 273.96 326.349875 
" clip-path="url(#p69c9938bb4)" style="fill: none; stroke: #000000; stroke-width: 2.5; stroke-linecap: square"/>
   </g>
   <g id="line2d_15">
    <path d="M 191.88 326.349875 
L 191.88 373.081875 
" clip-path="url(#p69c9938bb4)" style="fill: none; stroke-dasharray: 3.7,1.6; stroke-dashoffset: 0; stroke: #000000; stroke-opacity: 0.5"/>
   </g>
   <g id="line2d_16">
    <path d="M 163.152 405.794275 
L 220.608 373.081875 
" clip-path="url(#p69c9938bb4)" style="fill: none; stroke: #000000; stroke-width: 2; stroke-linecap: square"/>
   </g>
   <g id="line2d_17">
    <path d="M 163.152 405.794275 
L 220.608 373.081875 
" clip-path="url(#p69c9938bb4)" style="fill: none; stroke: #0000ff; stroke-opacity: 0.3; stroke-linecap: square"/>
   </g>
   <g id="line2d_18">
    <path d="M 109.8 443.179875 
L 273.96 443.179875 
" clip-path="url(#p69c9938bb4)" style="fill: none; stroke: #000000; stroke-width: 2.5; stroke-linecap: square"/>
   </g>
   <g id="text_1">
    <!-- 目镜 -->
    <g style="fill: #2c3e50" transform="translate(203.4 45.957875) scale(0.09 -0.09)">
     <defs>
      <path id="MicrosoftYaHei-Bold-76ee" d="M 738 -834 
L 738 4941 
L 5663 4941 
L 5663 -834 
L 4775 -834 
L 4775 -409 
L 1625 -409 
L 1625 -834 
L 738 -834 
z
M 4775 4116 
L 1625 4116 
L 1625 3428 
L 4775 3428 
L 4775 4116 
z
M 1625 1941 
L 4775 1941 
L 4775 2628 
L 1625 2628 
L 1625 1941 
z
M 1625 416 
L 4775 416 
L 4775 1141 
L 1625 1141 
L 1625 416 
z
" transform="scale(0.015625)"/>
      <path id="MicrosoftYaHei-Bold-955c" d="M 2138 3947 
L 1150 3947 
Q 1059 3700 953 3472 
L 2063 3472 
L 2063 2766 
L 1506 2766 
L 1506 2159 
L 2250 2159 
L 2250 1453 
L 1506 1453 
L 1506 634 
Q 1806 872 2156 1172 
Q 2175 697 2263 259 
Q 1450 -272 969 -753 
L 550 -166 
Q 719 3 719 366 
L 719 1453 
L 100 1453 
L 100 2159 
L 719 2159 
L 719 2766 
L 572 2766 
Q 459 2584 338 2416 
Q 238 2909 81 3422 
Q 581 4297 781 5353 
L 1531 5228 
Q 1466 4928 1384 4647 
L 2138 4647 
L 2138 3947 
z
M 6056 4241 
L 5025 4241 
L 5631 4084 
Q 5528 3928 5419 3772 
L 6231 3772 
L 6231 3147 
L 2175 3147 
L 2175 3772 
L 2947 3772 
Q 2856 3928 2750 4097 
L 3341 4241 
L 2350 4241 
L 2350 4866 
L 3694 4866 
Q 3606 5031 3500 5209 
L 4475 5328 
Q 4547 5091 4606 4866 
L 6056 4866 
L 6056 4241 
z
M 3825 3772 
L 4494 3772 
Q 4656 4013 4775 4241 
L 3519 4241 
Q 3681 4009 3825 3772 
z
M 2356 2891 
L 5919 2891 
L 5919 609 
L 5063 609 
L 5063 141 
Q 5063 -97 5256 -97 
L 5325 -97 
Q 5450 -97 5509 15 
Q 5569 128 5600 578 
Q 5956 422 6319 316 
Q 6219 -466 5980 -631 
Q 5741 -797 5400 -797 
L 5025 -797 
Q 4275 -797 4275 -103 
L 4275 609 
L 3881 609 
Q 3738 -459 2500 -897 
Q 2281 -572 1963 -234 
Q 2963 41 3078 609 
L 2356 609 
L 2356 2891 
z
M 5131 2297 
L 3144 2297 
L 3144 2016 
L 5131 2016 
L 5131 2297 
z
M 5131 1197 
L 5131 1478 
L 3144 1478 
L 3144 1197 
L 5131 1197 
z
" transform="scale(0.015625)"/>
     </defs>
     <use xlink:href="#MicrosoftYaHei-Bold-76ee"/>
     <use xlink:href="#MicrosoftYaHei-Bold-955c" transform="translate(100 0)"/>
    </g>
   </g>
   <g id="text_2">
    <!-- 粗准焦螺旋 -->
    <g style="fill: #555555" transform="translate(286.272 120.729075) scale(0.08 -0.08)">
     <defs>
      <path id="MicrosoftYaHei-7c97" d="M 2325 -109 
L 3100 -109 
L 3100 4916 
L 5788 4916 
L 5788 -109 
L 6319 -109 
L 6319 -553 
L 2325 -553 
L 2325 -109 
z
M 3563 -109 
L 5325 -109 
L 5325 1134 
L 3563 1134 
L 3563 -109 
z
M 3563 1572 
L 5325 1572 
L 5325 2803 
L 3563 2803 
L 3563 1572 
z
M 5325 4472 
L 3563 4472 
L 3563 3241 
L 5325 3241 
L 5325 4472 
z
M 1800 3547 
Q 2169 4203 2413 4809 
L 2838 4628 
Q 2606 4141 2169 3353 
L 1800 3547 
z
M 100 4647 
L 469 4803 
Q 844 4041 1013 3578 
L 594 3378 
Q 225 4378 100 4647 
z
M 75 597 
Q 819 1616 1125 2591 
L 106 2591 
L 106 3016 
L 1225 3016 
L 1225 5309 
L 1669 5309 
L 1669 3016 
L 2806 3016 
L 2806 2591 
L 1669 2591 
L 1669 1797 
L 1894 2016 
Q 2394 1578 2806 1191 
L 2475 878 
Q 1938 1428 1669 1666 
L 1669 -822 
L 1225 -822 
L 1225 1841 
Q 863 859 269 97 
Q 188 353 75 597 
z
" transform="scale(0.015625)"/>
      <path id="MicrosoftYaHei-51c6" d="M 1413 2766 
Q 2313 3866 2869 5334 
L 3331 5172 
Q 3128 4694 2906 4253 
L 6194 4253 
L 6194 3822 
L 4675 3822 
L 4675 2891 
L 6025 2891 
L 6025 2459 
L 4675 2459 
L 4675 1528 
L 6038 1528 
L 6038 1097 
L 4675 1097 
L 4675 78 
L 6275 78 
L 6275 -341 
L 2769 -341 
L 2769 -841 
L 2281 -841 
L 2281 3131 
Q 2034 2738 1769 2384 
Q 1631 2578 1413 2766 
z
M 2769 78 
L 4188 78 
L 4188 1097 
L 2769 1097 
L 2769 78 
z
M 1081 2422 
Q 1325 2291 1556 2209 
Q 1113 916 681 -372 
L 169 -141 
Q 650 1003 1081 2422 
z
M 2769 1528 
L 4188 1528 
L 4188 2459 
L 2769 2459 
L 2769 1528 
z
M 2769 2891 
L 4188 2891 
L 4188 3822 
L 2769 3822 
L 2769 2891 
z
M 531 4991 
Q 1050 4384 1581 3709 
Q 1538 3678 1150 3341 
Q 681 3997 138 4672 
L 531 4991 
z
M 3919 5116 
L 4325 5372 
Q 4569 5072 4881 4622 
L 4450 4334 
Q 4156 4784 3919 5116 
z
" transform="scale(0.015625)"/>
      <path id="MicrosoftYaHei-7126" d="M 113 3222 
Q 956 4109 1475 5347 
L 1950 5178 
Q 1756 4778 1544 4409 
L 3491 4409 
Q 3269 4763 2988 5122 
L 3381 5372 
Q 3744 4934 3950 4628 
L 3591 4409 
L 5975 4409 
L 5975 3997 
L 3844 3997 
L 3844 3347 
L 5738 3347 
L 5738 2934 
L 3844 2934 
L 3844 2284 
L 5738 2284 
L 5738 1872 
L 3844 1872 
L 3844 1222 
L 6075 1222 
L 6075 809 
L 1494 809 
L 1494 666 
L 1006 666 
L 1006 3553 
Q 734 3163 438 2809 
Q 300 3022 113 3222 
z
M 1494 3347 
L 3356 3347 
L 3356 3997 
L 1494 3997 
L 1494 3347 
z
M 1494 1222 
L 3356 1222 
L 3356 1872 
L 1494 1872 
L 1494 1222 
z
M 1494 2284 
L 3356 2284 
L 3356 2934 
L 1494 2934 
L 1494 2284 
z
M 975 534 
L 1413 322 
Q 1175 -197 725 -866 
Q 569 -759 300 -597 
Q 731 -3 975 534 
z
M 5069 309 
L 5475 541 
Q 5850 9 6131 -522 
L 5694 -791 
Q 5450 -259 5069 309 
z
M 3531 353 
L 3975 541 
Q 4275 9 4494 -541 
L 4006 -753 
Q 3775 -116 3531 353 
z
M 2019 322 
L 2481 478 
Q 2656 103 2894 -597 
L 2375 -766 
Q 2200 -91 2019 322 
z
" transform="scale(0.015625)"/>
      <path id="MicrosoftYaHei-87ba" d="M 5300 1847 
Q 5725 1441 6288 784 
L 5944 503 
Q 5813 666 5681 816 
Q 5150 784 4619 753 
L 4619 -34 
Q 4619 -816 3919 -816 
Q 3625 -816 3325 -803 
Q 3294 -559 3244 -322 
Q 3575 -359 3788 -359 
Q 4181 -359 4181 22 
L 4181 722 
Q 3738 697 3294 666 
Q 3000 647 2756 584 
L 2606 1084 
Q 2894 1172 3163 1278 
Q 3650 1528 4119 1791 
Q 3675 1766 3281 1734 
Q 3063 1716 2938 1691 
L 2788 2166 
Q 3031 2222 3213 2322 
Q 3588 2547 3950 2791 
L 3088 2791 
L 3088 2597 
L 2675 2597 
L 2675 5009 
L 6056 5009 
L 6056 2597 
L 5644 2597 
L 5644 2791 
L 4406 2791 
L 4506 2703 
Q 4031 2409 3450 2122 
Q 4075 2141 4763 2172 
Q 5131 2397 5481 2628 
L 5788 2328 
Q 4488 1547 3419 1053 
Q 4494 1116 5375 1172 
Q 5175 1409 4981 1609 
L 5300 1847 
z
M 1806 1253 
L 2169 1366 
Q 2419 547 2569 -16 
L 2169 -141 
Q 2138 3 2094 166 
Q 1175 41 131 -122 
L 81 341 
Q 606 403 1125 466 
L 1125 1784 
L 719 1784 
L 719 1447 
L 338 1447 
L 338 4184 
L 1125 4184 
L 1125 5322 
L 1525 5322 
L 1525 4184 
L 2313 4184 
L 2313 1784 
L 1525 1784 
L 1525 516 
Q 1756 547 1988 578 
Q 1906 884 1806 1253 
z
M 2244 -278 
Q 2975 103 3525 534 
L 3800 191 
Q 3156 -291 2500 -666 
Q 2419 -516 2244 -278 
z
M 4863 197 
L 5100 559 
Q 5719 216 6356 -228 
L 6094 -634 
Q 5538 -209 4863 197 
z
M 1931 2191 
L 1931 3772 
L 1525 3772 
L 1525 2191 
L 1931 2191 
z
M 719 2191 
L 1125 2191 
L 1125 3772 
L 719 3772 
L 719 2191 
z
M 4569 3166 
L 5644 3166 
L 5644 3722 
L 4569 3722 
L 4569 3166 
z
M 3088 3166 
L 4156 3166 
L 4156 3722 
L 3088 3722 
L 3088 3166 
z
M 5644 4634 
L 4569 4634 
L 4569 4084 
L 5644 4084 
L 5644 4634 
z
M 3088 4084 
L 4156 4084 
L 4156 4634 
L 3088 4634 
L 3088 4084 
z
" transform="scale(0.015625)"/>
      <path id="MicrosoftYaHei-65cb" d="M 2244 -597 
Q 2994 372 2956 2153 
L 3406 2153 
Q 3406 1422 3306 822 
Q 3713 141 4169 -34 
L 4169 2884 
L 3006 2884 
L 3006 3316 
L 6106 3316 
L 6106 2891 
Q 5944 2516 5706 2053 
Q 5513 2147 5281 2222 
Q 5475 2584 5606 2884 
L 4625 2884 
L 4625 1684 
L 6000 1684 
L 6000 1253 
L 4625 1253 
L 4625 -159 
Q 5138 -234 6313 -184 
Q 6250 -391 6169 -666 
Q 5425 -666 4894 -647 
Q 4044 -647 3563 -209 
Q 3356 -22 3181 259 
Q 2988 -416 2631 -903 
Q 2456 -734 2244 -597 
z
M 194 4278 
L 1438 4278 
Q 1188 4709 925 5084 
L 1294 5322 
Q 1619 4891 1850 4509 
L 1494 4278 
L 2513 4278 
L 2513 3847 
L 1200 3847 
Q 1194 3378 1181 2916 
L 2306 2916 
Q 2256 1022 2225 359 
Q 2200 -597 1481 -597 
Q 1263 -597 938 -591 
Q 900 -384 844 -116 
Q 1181 -153 1369 -153 
Q 1756 -153 1769 366 
Q 1813 1109 1838 2484 
L 1169 2484 
Q 1163 2303 1156 2122 
Q 1119 191 375 -753 
Q 250 -584 56 -378 
Q 669 434 706 2109 
Q 738 2997 750 3847 
L 194 3847 
L 194 4278 
z
M 2350 3309 
Q 3000 4184 3356 5316 
L 3819 5159 
Q 3694 4816 3556 4503 
L 6263 4503 
L 6263 4072 
L 3356 4072 
Q 3056 3453 2706 2941 
Q 2494 3178 2350 3309 
z
" transform="scale(0.015625)"/>
     </defs>
     <use xlink:href="#MicrosoftYaHei-7c97"/>
     <use xlink:href="#MicrosoftYaHei-51c6" transform="translate(100 0)"/>
     <use xlink:href="#MicrosoftYaHei-7126" transform="translate(200 0)"/>
     <use xlink:href="#MicrosoftYaHei-87ba" transform="translate(300 0)"/>
     <use xlink:href="#MicrosoftYaHei-65cb" transform="translate(400 0)"/>
    </g>
   </g>
   <g id="text_3">
    <!-- 细准焦螺旋 -->
    <g style="fill: #555555" transform="translate(286.272 153.441475) scale(0.08 -0.08)">
     <defs>
      <path id="MicrosoftYaHei-7ec6" d="M 2444 4791 
L 6013 4791 
L 6013 -747 
L 5525 -747 
L 5525 -228 
L 2931 -228 
L 2931 -759 
L 2444 -759 
L 2444 4791 
z
M 894 1572 
Q 1531 1666 2200 1778 
Q 2163 1534 2144 1297 
Q 1313 1172 319 1003 
L 219 1478 
Q 634 1906 1178 2794 
Q 675 2763 219 2722 
L 100 3147 
Q 675 3916 1294 5366 
L 1769 5178 
Q 1094 3853 663 3184 
Q 1003 3194 1425 3206 
Q 1634 3569 1863 3997 
L 2325 3766 
Q 1750 2778 894 1572 
z
M 4463 241 
L 5525 241 
L 5525 2091 
L 4463 2091 
L 4463 241 
z
M 2931 241 
L 3988 241 
L 3988 2091 
L 2931 2091 
L 2931 241 
z
M 5525 4322 
L 4463 4322 
L 4463 2541 
L 5525 2541 
L 5525 4322 
z
M 2931 2541 
L 3988 2541 
L 3988 4322 
L 2931 4322 
L 2931 2541 
z
M 81 84 
Q 1150 284 2219 528 
Q 2200 278 2200 53 
Q 1294 -122 219 -397 
L 81 84 
z
" transform="scale(0.015625)"/>
     </defs>
     <use xlink:href="#MicrosoftYaHei-7ec6"/>
     <use xlink:href="#MicrosoftYaHei-51c6" transform="translate(100 0)"/>
     <use xlink:href="#MicrosoftYaHei-7126" transform="translate(200 0)"/>
     <use xlink:href="#MicrosoftYaHei-87ba" transform="translate(300 0)"/>
     <use xlink:href="#MicrosoftYaHei-65cb" transform="translate(400 0)"/>
    </g>
   </g>
   <g id="text_4">
    <!-- 物镜 -->
    <g style="fill: #e74c3c" transform="translate(151.048 298.310675) scale(0.08 -0.08)">
     <defs>
      <path id="MicrosoftYaHei-Bold-7269" d="M 1969 -847 
L 1181 -847 
L 1181 1078 
Q 669 984 206 884 
L 94 1791 
Q 597 1838 1181 1922 
L 1181 3172 
L 775 3172 
Q 697 2731 594 2322 
Q 300 2509 88 2603 
Q 313 3566 381 4784 
L 956 4728 
Q 931 4344 891 3978 
L 1181 3978 
L 1181 5291 
L 1969 5291 
L 1969 3978 
L 2425 3978 
L 2425 3728 
Q 2856 4553 3100 5341 
Q 3550 5259 3938 5178 
Q 3772 4738 3609 4359 
L 6075 4359 
Q 6066 3275 6028 2016 
L 5972 400 
Q 5953 47 5834 -204 
Q 5716 -456 5466 -568 
Q 5216 -681 4150 -647 
Q 4056 -134 3934 216 
Q 3497 -331 2888 -772 
Q 2494 -353 2219 -109 
Q 4194 1163 4425 3534 
L 4116 3534 
Q 3891 1925 2781 966 
Q 2597 1144 2441 1284 
L 1969 1213 
L 1969 -847 
z
M 5300 3534 
L 5025 3534 
Q 4994 1578 3966 253 
Q 4356 222 4694 222 
Q 5122 222 5187 645 
Q 5253 1069 5300 3534 
z
M 2638 2647 
Q 2384 3003 2228 3172 
L 1969 3172 
L 1969 2044 
Q 2241 2088 2531 2141 
Q 2522 2006 2516 1850 
Q 3275 2559 3519 3534 
L 3213 3534 
Q 2925 3000 2638 2647 
z
" transform="scale(0.015625)"/>
     </defs>
     <use xlink:href="#MicrosoftYaHei-Bold-7269"/>
     <use xlink:href="#MicrosoftYaHei-Bold-955c" transform="translate(100 0)"/>
    </g>
   </g>
   <g id="text_5">
    <!-- 物镜 -->
    <g style="fill: #e74c3c" transform="translate(192.088 298.310675) scale(0.08 -0.08)">
     <use xlink:href="#MicrosoftYaHei-Bold-7269"/>
     <use xlink:href="#MicrosoftYaHei-Bold-955c" transform="translate(100 0)"/>
    </g>
   </g>
   <g id="text_6">
    <!-- 载物台 -->
    <g style="fill: #555555" transform="translate(232.92 340.369475) scale(0.08 -0.08)">
     <defs>
      <path id="MicrosoftYaHei-8f7d" d="M 2881 -416 
Q 3622 91 4213 806 
Q 3894 1769 3806 3234 
L 125 3234 
L 125 3653 
L 1681 3653 
L 1681 4234 
L 381 4234 
L 381 4628 
L 1681 4628 
L 1681 5266 
L 2144 5266 
L 2144 4628 
L 3375 4628 
L 3375 4234 
L 2144 4234 
L 2144 3653 
L 3781 3653 
Q 3744 4397 3713 5297 
L 4194 5297 
Q 4197 4419 4241 3653 
L 6319 3653 
L 6319 3234 
L 4266 3234 
Q 4331 2081 4563 1269 
Q 5034 1941 5394 2766 
L 5825 2566 
Q 5344 1531 4744 738 
Q 4938 278 5200 -34 
Q 5363 -222 5500 -222 
Q 5669 -222 5725 28 
Q 5800 366 5869 878 
Q 6119 766 6319 709 
Q 6238 178 6138 -234 
Q 5981 -791 5581 -791 
Q 5125 -791 4713 -209 
Q 4544 22 4406 319 
Q 3869 -297 3250 -741 
Q 3063 -528 2881 -416 
z
M 1006 1472 
L 1863 1472 
L 1863 2047 
L 2306 2047 
L 2306 1472 
L 3488 1472 
L 3488 1078 
L 2306 1078 
L 2306 497 
Q 2878 544 3513 597 
Q 3494 397 3494 191 
Q 2931 153 2306 100 
L 2306 -816 
L 1863 -816 
L 1863 59 
Q 1128 -3 313 -91 
L 213 359 
Q 956 400 1863 466 
L 1863 1078 
L 488 1078 
L 488 1484 
Q 741 1813 984 2216 
L 275 2216 
L 275 2609 
L 1213 2609 
Q 1366 2888 1513 3197 
L 1975 3053 
Q 1847 2819 1725 2609 
L 3538 2609 
L 3538 2216 
L 1491 2216 
Q 1231 1791 1006 1472 
z
M 4613 4841 
L 4919 5147 
Q 5550 4672 5944 4303 
L 5588 3941 
Q 5163 4397 4613 4841 
z
" transform="scale(0.015625)"/>
      <path id="MicrosoftYaHei-7269" d="M 2131 2866 
Q 2750 3816 3263 5341 
L 3719 5203 
Q 3541 4706 3363 4278 
L 6075 4278 
Q 5950 1759 5869 422 
Q 5800 -622 4869 -622 
Q 4519 -622 4044 -603 
Q 4013 -372 3956 -72 
Q 4500 -134 4819 -134 
Q 5325 -134 5375 441 
Q 5488 1759 5575 3834 
L 5097 3834 
Q 4934 2241 4569 1322 
Q 4069 134 2869 -716 
Q 2731 -522 2550 -334 
Q 3719 491 4169 1559 
Q 4531 2438 4634 3834 
L 4078 3834 
Q 3909 2641 3575 1916 
Q 3163 1097 2444 447 
Q 2288 647 2119 816 
Q 2831 1434 3175 2116 
Q 3509 2809 3619 3834 
L 3169 3834 
Q 2850 3125 2531 2628 
Q 2375 2734 2131 2866 
z
M 94 1584 
Q 669 1775 1288 1991 
L 1288 3466 
L 722 3466 
Q 597 2872 419 2378 
Q 219 2522 13 2653 
Q 363 3509 456 4709 
L 906 4634 
Q 863 4244 800 3884 
L 1288 3884 
L 1288 5291 
L 1756 5291 
L 1756 3884 
L 2375 3884 
L 2375 3466 
L 1756 3466 
L 1756 2156 
Q 2063 2269 2381 2384 
Q 2413 2109 2450 1909 
Q 2141 1797 1756 1653 
L 1756 -834 
L 1288 -834 
L 1288 1475 
Q 788 1288 188 1053 
L 94 1584 
z
" transform="scale(0.015625)"/>
      <path id="MicrosoftYaHei-53f0" d="M 5431 2022 
L 5431 -816 
L 4919 -816 
L 4919 -403 
L 1481 -403 
L 1481 -816 
L 969 -816 
L 969 2022 
L 5431 2022 
z
M 4513 4503 
Q 5494 3591 6369 2634 
L 5925 2266 
Q 5675 2559 5419 2844 
Q 2613 2725 1131 2641 
Q 788 2616 469 2541 
L 263 3078 
Q 550 3184 781 3372 
Q 1850 4247 2738 5391 
L 3206 5103 
Q 2269 4003 1250 3147 
Q 3166 3206 5019 3284 
Q 4591 3750 4150 4191 
L 4513 4503 
z
M 4919 1559 
L 1481 1559 
L 1481 47 
L 4919 47 
L 4919 1559 
z
" transform="scale(0.015625)"/>
     </defs>
     <use xlink:href="#MicrosoftYaHei-8f7d"/>
     <use xlink:href="#MicrosoftYaHei-7269" transform="translate(100 0)"/>
     <use xlink:href="#MicrosoftYaHei-53f0" transform="translate(200 0)"/>
    </g>
   </g>
   <g id="patch_2">
    <path d="M 191.88 330.088435 
C 192.750715 330.088435 193.585885 329.694517 194.201573 328.993436 
C 194.817261 328.292356 195.1632 327.341353 195.1632 326.349875 
C 195.1632 325.358397 194.817261 324.407394 194.201573 323.706314 
C 193.585885 323.005233 192.750715 322.611315 191.88 322.611315 
C 191.009285 322.611315 190.174115 323.005233 189.558427 323.706314 
C 188.942739 324.407394 188.5968 325.358397 188.5968 326.349875 
C 188.5968 327.341353 188.942739 328.292356 189.558427 328.993436 
C 190.174115 329.694517 191.009285 330.088435 191.88 330.088435 
z
" clip-path="url(#p69c9938bb4)" style="fill: #e74c3c; stroke: #e74c3c; stroke-linejoin: miter"/>
   </g>
   <g id="text_7">
    <!-- 标本 -->
    <g style="fill: #e74c3c" transform="translate(184.88 312.330275) scale(0.07 -0.07)">
     <defs>
      <path id="MicrosoftYaHei-6807" d="M 75 1409 
Q 769 2478 1025 3647 
L 119 3647 
L 119 4072 
L 1069 4072 
L 1069 5297 
L 1506 5297 
L 1506 4072 
L 2356 4072 
L 2356 3647 
L 1506 3647 
L 1506 2541 
L 1775 2822 
Q 2175 2478 2481 2159 
L 2150 1816 
Q 1850 2156 1506 2503 
L 1506 -797 
L 1069 -797 
L 1069 2588 
Q 738 1513 281 859 
Q 194 1128 75 1409 
z
M 2350 3097 
L 6250 3097 
L 6250 2659 
L 4525 2659 
L 4525 47 
Q 4525 -734 3806 -734 
Q 3469 -741 2975 -728 
Q 2944 -503 2888 -209 
Q 3319 -259 3675 -259 
Q 4050 -259 4050 203 
L 4050 2659 
L 2350 2659 
L 2350 3097 
z
M 2638 4928 
L 5963 4928 
L 5963 4491 
L 2638 4491 
L 2638 4928 
z
M 4938 1853 
L 5381 2066 
Q 5975 928 6369 72 
L 5869 -147 
Q 5463 822 4938 1853 
z
M 2931 2066 
L 3400 1878 
Q 2888 734 2381 -153 
Q 2188 -41 1925 66 
Q 2425 872 2931 2066 
z
" transform="scale(0.015625)"/>
      <path id="MicrosoftYaHei-672c" d="M 6281 803 
Q 6119 641 5856 366 
Q 4344 1531 3444 3353 
L 3444 878 
L 4875 878 
L 4875 441 
L 3444 441 
L 3444 -841 
L 2956 -841 
L 2956 441 
L 1475 441 
L 1475 878 
L 2956 878 
L 2956 3353 
Q 2159 1766 513 291 
Q 269 522 100 666 
Q 1878 2125 2759 3753 
L 238 3753 
L 238 4216 
L 2956 4216 
L 2956 5341 
L 3444 5341 
L 3444 4216 
L 6163 4216 
L 6163 3753 
L 3622 3753 
Q 4616 1884 6281 803 
z
" transform="scale(0.015625)"/>
     </defs>
     <use xlink:href="#MicrosoftYaHei-6807"/>
     <use xlink:href="#MicrosoftYaHei-672c" transform="translate(100 0)"/>
    </g>
   </g>
   <g id="text_8">
    <!-- 反光镜 -->
    <g style="fill: #555555" transform="translate(179.88 419.813875) scale(0.08 -0.08)">
     <defs>
      <path id="MicrosoftYaHei-53cd" d="M 881 4884 
Q 3369 4903 5738 5191 
L 5919 4691 
Q 3750 4503 1369 4434 
L 1369 3372 
L 5638 3372 
L 5638 2909 
Q 5125 1525 4100 591 
Q 5019 -25 6331 -247 
Q 6106 -534 5938 -803 
Q 4616 -422 3697 253 
Q 2738 -475 1406 -878 
Q 1263 -659 1063 -397 
Q 2366 -44 3278 597 
Q 2256 1525 1859 2909 
L 1369 2909 
L 1369 2553 
Q 1369 334 413 -853 
Q 250 -653 63 -453 
Q 881 559 881 2553 
L 881 4884 
z
M 5050 2909 
L 2366 2909 
Q 2794 1678 3681 909 
Q 4622 1722 5050 2909 
z
" transform="scale(0.015625)"/>
      <path id="MicrosoftYaHei-5149" d="M 169 2691 
L 2931 2691 
L 2931 5309 
L 3444 5309 
L 3444 2691 
L 6256 2691 
L 6256 2228 
L 4206 2228 
L 4206 216 
Q 4206 -22 4269 -116 
Q 4356 -241 4638 -241 
L 5256 -241 
Q 5706 -241 5750 91 
Q 5794 428 5819 984 
Q 6056 884 6344 797 
Q 6288 153 6231 -122 
Q 6175 -441 5963 -559 
Q 5763 -678 5281 -678 
L 4538 -678 
Q 4056 -678 3863 -466 
Q 3700 -284 3700 141 
L 3700 2228 
L 2491 2228 
Q 2466 931 1988 266 
Q 1469 -459 369 -841 
Q 244 -647 50 -397 
Q 1150 -16 1569 603 
Q 1966 1134 1991 2228 
L 169 2228 
L 169 2691 
z
M 4094 3397 
Q 4813 4084 5369 4828 
L 5825 4503 
Q 5200 3766 4481 3059 
L 4094 3397 
z
M 619 4528 
L 1000 4828 
Q 1631 4134 2213 3434 
L 1756 3084 
Q 1188 3866 619 4528 
z
" transform="scale(0.015625)"/>
      <path id="MicrosoftYaHei-955c" d="M 2413 2747 
L 5731 2747 
L 5731 653 
L 5294 653 
L 5294 772 
L 4769 772 
L 4769 -34 
Q 4769 -316 5031 -316 
L 5525 -316 
Q 5763 -316 5800 -91 
Q 5844 122 5869 628 
Q 6050 547 6306 453 
Q 6256 -28 6200 -259 
Q 6131 -722 5600 -722 
L 4856 -722 
Q 4325 -722 4325 -78 
L 4325 772 
L 3750 772 
Q 3663 -500 2125 -866 
Q 1975 -559 1881 -441 
Q 3194 -184 3303 772 
L 2850 772 
L 2850 628 
L 2413 628 
L 2413 2747 
z
M 144 1966 
L 913 1966 
L 913 2822 
L 538 2822 
L 538 3197 
Q 466 3069 394 2947 
Q 238 3166 75 3366 
Q 606 4197 850 5297 
L 1306 5203 
Q 1197 4784 1066 4403 
L 2131 4403 
L 2131 3978 
L 903 3978 
Q 747 3594 563 3247 
L 1963 3247 
L 1963 2822 
L 1356 2822 
L 1356 1966 
L 2144 1966 
L 2144 1541 
L 1356 1541 
L 1356 122 
Q 1744 397 2094 659 
Q 2131 441 2194 178 
Q 1744 -128 1363 -422 
Q 1250 -503 1031 -703 
L 706 -303 
Q 913 -128 913 172 
L 913 1541 
L 144 1541 
L 144 1966 
z
M 2088 3553 
L 3188 3553 
Q 3066 3763 2856 4059 
L 3225 4272 
Q 3394 4059 3650 3691 
L 3413 3553 
L 4491 3553 
Q 4697 3888 4875 4272 
L 5313 4059 
Q 5166 3809 4991 3553 
L 6163 3553 
L 6163 3178 
L 2088 3178 
L 2088 3553 
z
M 2338 4666 
L 3988 4666 
Q 3859 4872 3656 5141 
L 4038 5366 
Q 4294 5047 4463 4778 
L 4259 4666 
L 5900 4666 
L 5900 4291 
L 2338 4291 
L 2338 4666 
z
M 2850 1141 
L 5294 1141 
L 5294 1591 
L 2850 1591 
L 2850 1141 
z
M 5294 2378 
L 2850 2378 
L 2850 1934 
L 5294 1934 
L 5294 2378 
z
" transform="scale(0.015625)"/>
     </defs>
     <use xlink:href="#MicrosoftYaHei-53cd"/>
     <use xlink:href="#MicrosoftYaHei-5149" transform="translate(100 0)"/>
     <use xlink:href="#MicrosoftYaHei-955c" transform="translate(200 0)"/>
    </g>
   </g>
   <g id="text_9">
    <!-- 镜座 -->
    <g style="fill: #555555" transform="translate(183.88 457.199475) scale(0.08 -0.08)">
     <defs>
      <path id="MicrosoftYaHei-5ea7" d="M 1113 -109 
L 3413 -109 
L 3413 791 
L 1531 791 
L 1531 1228 
L 3413 1228 
L 3413 4022 
L 3938 4022 
L 3938 1228 
L 5838 1228 
L 5838 791 
L 3938 791 
L 3938 -109 
L 6263 -109 
L 6263 -559 
L 1113 -559 
L 1113 -109 
z
M 1088 2197 
Q 1088 22 525 -816 
Q 331 -578 88 -391 
Q 600 297 600 2247 
L 600 4584 
L 3375 4584 
Q 3134 4944 2969 5128 
L 3381 5353 
Q 3613 5078 3825 4797 
L 3463 4584 
L 6088 4584 
L 6088 4134 
L 1088 4134 
L 1088 2197 
z
M 3981 1941 
Q 4725 2722 4956 3716 
L 5406 3584 
Q 5322 3284 5219 3019 
Q 5731 2556 6219 2053 
L 5825 1703 
Q 5422 2222 5041 2609 
Q 4763 2031 4375 1628 
Q 4188 1834 3981 1941 
z
M 1100 1947 
Q 1850 2684 2081 3703 
L 2538 3584 
Q 2456 3278 2347 3003 
Q 2828 2572 3281 2103 
L 2888 1753 
Q 2509 2234 2166 2594 
Q 1891 2050 1488 1628 
Q 1313 1822 1100 1947 
z
" transform="scale(0.015625)"/>
     </defs>
     <use xlink:href="#MicrosoftYaHei-955c"/>
     <use xlink:href="#MicrosoftYaHei-5ea7" transform="translate(100 0)"/>
    </g>
   </g>
   <g id="patch_3">
    <path d="M 315 207.521842 
Q 315 174.471495 315 143.657216 
" style="fill: none; stroke: #3498db; stroke-width: 2; stroke-linecap: round"/>
    <path d="M 313 147.657216 
L 315 143.657216 
L 317 147.657216 
" style="fill: none; stroke: #3498db; stroke-width: 2; stroke-linecap: round"/>
   </g>
   <g id="text_10">
    <!-- 成像 -->
    <g style="fill: #3498db" transform="translate(306 174.470875) scale(0.09 -0.09)">
     <defs>
      <path id="MicrosoftYaHei-Bold-6210" d="M 1606 9 
Q 1544 541 1456 922 
Q 1753 866 1925 866 
Q 2259 866 2304 1197 
Q 2350 1528 2350 2047 
L 1438 2047 
Q 1428 106 825 -859 
Q 481 -534 88 -247 
Q 606 597 613 2172 
L 613 4291 
L 3547 4291 
L 3519 5322 
L 4406 5322 
L 4416 4291 
L 5269 4291 
Q 5103 4509 4738 4941 
L 5394 5297 
Q 5613 5059 6019 4553 
L 5538 4291 
L 6225 4291 
L 6225 3541 
L 4431 3541 
Q 4463 2569 4566 1856 
Q 4978 2491 5300 3234 
L 6069 2878 
Q 5519 1663 4828 734 
Q 5063 125 5250 125 
Q 5322 125 5369 215 
Q 5416 306 5472 667 
Q 5528 1028 5531 1291 
Q 5813 1128 6331 909 
Q 6313 572 6175 22 
Q 6038 -528 5813 -681 
Q 5588 -834 5359 -834 
Q 4678 -834 4231 16 
Q 3781 -472 3281 -859 
Q 2981 -491 2631 -197 
Q 3322 300 3888 953 
Q 3659 1891 3578 3541 
L 1438 3541 
L 1438 2803 
L 3219 2803 
Q 3219 2709 3181 1714 
Q 3144 719 3012 491 
Q 2881 263 2673 117 
Q 2466 -28 1606 9 
z
" transform="scale(0.015625)"/>
      <path id="MicrosoftYaHei-Bold-50cf" d="M 2913 5328 
L 3794 5328 
Q 3675 5125 3541 4934 
L 5406 4934 
L 5406 4391 
L 5028 3966 
L 6038 3966 
L 6038 2366 
L 5591 2366 
L 6063 1791 
L 5413 1431 
Q 5769 541 6363 53 
Q 6231 -72 5775 -603 
Q 5222 -44 4850 1122 
L 4644 1009 
Q 4722 688 4722 325 
Q 4722 -800 3844 -822 
L 3100 -822 
Q 3044 -534 2969 -200 
Q 2466 -544 1850 -809 
Q 1663 -266 1600 -116 
Q 2903 284 3803 1188 
Q 3763 1297 3709 1409 
Q 2944 688 1913 266 
Q 1806 572 1663 903 
Q 2841 1234 3528 1744 
Q 3481 1825 3425 1909 
Q 2828 1531 1838 1253 
Q 1731 1522 1538 1891 
Q 2494 2069 3009 2366 
L 1963 2366 
L 1963 3494 
Q 1756 3713 1544 3916 
Q 2450 4572 2913 5328 
z
M 2694 3966 
L 4119 3966 
L 4469 4359 
L 3084 4359 
Q 2897 4153 2694 3966 
z
M 2656 2966 
L 3584 2966 
Q 3663 3125 3706 3366 
L 2656 3366 
L 2656 2966 
z
M 5344 2966 
L 5344 3366 
L 4409 3366 
Q 4369 3153 4306 2966 
L 5344 2966 
z
M 5563 2366 
L 3975 2366 
L 3928 2313 
Q 4222 2000 4409 1644 
Q 5003 1969 5563 2366 
z
M 3944 659 
Q 3600 266 3163 -59 
Q 3513 -94 3675 -94 
Q 3975 -94 3975 334 
Q 3975 472 3944 659 
z
M 1025 5284 
L 1788 5153 
Q 1653 4559 1469 3981 
L 1469 -803 
L 719 -803 
L 719 2113 
Q 522 1709 300 1316 
Q 244 1703 81 2484 
Q 763 3909 1025 5284 
z
" transform="scale(0.015625)"/>
     </defs>
     <use xlink:href="#MicrosoftYaHei-Bold-6210"/>
     <use xlink:href="#MicrosoftYaHei-Bold-50cf" transform="translate(100 0)"/>
    </g>
   </g>
   <g id="text_11">
    <g id="patch_4">
     <path d="M 263.460938 238.371812 
L 366.539062 238.371812 
Q 369.539062 238.371812 369.539062 235.371812 
L 369.539062 224.5015 
Q 369.539062 221.5015 366.539062 221.5015 
L 263.460938 221.5015 
Q 260.460938 221.5015 260.460938 224.5015 
L 260.460938 235.371812 
Q 260.460938 238.371812 263.460938 238.371812 
z
" style="fill: #fffbe6; stroke: #fadb14; stroke-linejoin: miter"/>
    </g>
    <!-- "b" 在显微镜下 → "q" -->
    <g style="fill: #e74c3c" transform="translate(263.460938 232.885875) scale(0.1 -0.1)">
     <defs>
      <path id="MicrosoftYaHei-Bold-22" d="M 1434 4841 
L 1334 3347 
L 681 3347 
L 584 4841 
L 1434 4841 
z
M 2747 4841 
L 2641 3344 
L 1997 3344 
L 1894 4841 
L 2747 4841 
z
" transform="scale(0.015625)"/>
      <path id="MicrosoftYaHei-Bold-62" d="M 1469 416 
L 1469 0 
L 459 0 
L 459 5116 
L 1469 5116 
L 1469 2928 
L 1481 2928 
Q 1878 3541 2613 3541 
Q 3266 3541 3636 3084 
Q 4006 2628 4006 1825 
Q 4006 966 3581 441 
Q 3156 -84 2453 -84 
Q 1809 -84 1481 416 
L 1469 416 
z
M 1453 1494 
Q 1453 1153 1656 922 
Q 1859 691 2172 691 
Q 2550 691 2761 984 
Q 2972 1278 2972 1816 
Q 2972 2263 2780 2514 
Q 2588 2766 2231 2766 
Q 1894 2766 1673 2512 
Q 1453 2259 1453 1863 
L 1453 1494 
z
" transform="scale(0.015625)"/>
      <path id="MicrosoftYaHei-Bold-20" transform="scale(0.015625)"/>
      <path id="MicrosoftYaHei-Bold-5728" d="M 263 4659 
L 2006 4659 
Q 2144 5003 2244 5366 
L 3188 5297 
Q 3103 4972 2994 4659 
L 6225 4659 
L 6225 3828 
L 2656 3828 
Q 2288 3047 1756 2350 
L 1756 -834 
L 919 -834 
L 919 1400 
Q 688 1175 438 959 
Q 256 1528 88 1928 
Q 1034 2778 1616 3828 
L 263 3828 
L 263 4659 
z
M 1981 284 
L 3681 284 
L 3681 1684 
L 2319 1684 
L 2319 2509 
L 3681 2509 
L 3681 3634 
L 4575 3634 
L 4575 2509 
L 5956 2509 
L 5956 1684 
L 4575 1684 
L 4575 284 
L 6238 284 
L 6238 -541 
L 1981 -541 
L 1981 284 
z
" transform="scale(0.015625)"/>
      <path id="MicrosoftYaHei-Bold-663e" d="M 731 5103 
L 5675 5103 
L 5675 2272 
L 731 2272 
L 731 5103 
z
M 4813 4391 
L 1594 4391 
L 1594 4016 
L 4813 4016 
L 4813 4391 
z
M 4813 2984 
L 4813 3359 
L 1594 3359 
L 1594 2984 
L 4813 2984 
z
M 175 141 
L 2044 141 
L 2044 2097 
L 2919 2097 
L 2919 141 
L 3488 141 
L 3488 2097 
L 4363 2097 
L 4363 141 
L 6231 141 
L 6231 -634 
L 175 -634 
L 175 141 
z
M 5344 2034 
L 6044 1609 
Q 5663 1066 5075 322 
Q 4894 478 4450 797 
Q 4950 1403 5344 2034 
z
M 1000 2009 
Q 1500 1416 1956 803 
L 1269 334 
Q 788 1072 375 1603 
L 1000 2009 
z
" transform="scale(0.015625)"/>
      <path id="MicrosoftYaHei-Bold-5fae" d="M 4275 728 
Q 4288 466 4306 253 
Q 4566 541 4766 884 
Q 4488 1613 4397 2528 
Q 4316 2394 4231 2266 
Q 4113 2597 3919 2959 
Q 3953 3019 3988 3084 
L 1878 3084 
Q 1663 2728 1431 2394 
L 1431 -834 
L 694 -834 
L 694 1428 
Q 509 1213 319 1009 
Q 219 1359 25 1872 
Q 744 2672 1294 3622 
L 1756 3281 
L 1756 4659 
Q 1166 3869 506 3222 
Q 275 3591 38 3922 
Q 713 4534 1263 5322 
L 1906 4866 
Q 1859 4800 1809 4734 
L 2363 4734 
L 2363 3647 
L 2613 3647 
L 2613 5266 
L 3219 5266 
L 3219 3647 
L 3469 3647 
L 3469 4734 
L 4075 4734 
L 4075 3259 
Q 4463 4075 4731 5347 
L 5463 5191 
Q 5350 4719 5203 4278 
L 6306 4278 
L 6306 3534 
L 6094 3534 
Q 6003 1991 5563 881 
Q 5866 378 6313 47 
Q 6075 -497 5975 -834 
Q 5500 -444 5166 81 
Q 4831 -463 4381 -866 
Q 4247 -509 4063 -216 
Q 3659 -494 3388 -716 
L 3031 -247 
Q 3175 -72 3169 134 
L 3169 1053 
L 2613 1053 
Q 2625 -228 1950 -822 
Q 1769 -566 1481 -284 
Q 1672 -109 1784 134 
Q 1897 378 1926 622 
Q 1956 866 1956 1678 
L 3838 1678 
L 3838 403 
Q 3975 497 4275 728 
z
M 5156 1809 
Q 5384 2572 5413 3534 
L 4916 3534 
L 4903 3503 
Q 4938 2547 5156 1809 
z
M 1806 2691 
L 4019 2691 
L 4019 2072 
L 1806 2072 
L 1806 2691 
z
" transform="scale(0.015625)"/>
      <path id="MicrosoftYaHei-Bold-4e0b" d="M 4038 3372 
Q 5050 2647 6069 1866 
L 5425 1078 
Q 4363 1997 3488 2647 
L 3488 -822 
L 2475 -822 
L 2475 4066 
L 175 4066 
L 175 4947 
L 6213 4947 
L 6213 4066 
L 3488 4066 
L 3488 2822 
L 4038 3372 
z
" transform="scale(0.015625)"/>
      <path id="MicrosoftYaHei-Bold-2192" d="M 4859 3766 
Q 5241 3344 5514 3125 
Q 5788 2906 6150 2713 
L 6150 2572 
Q 5788 2381 5517 2164 
Q 5247 1947 4859 1519 
L 4622 1519 
Q 4766 1822 4866 1983 
Q 4966 2144 5141 2369 
L 247 2369 
L 247 2916 
L 5141 2916 
Q 4972 3131 4869 3298 
Q 4766 3466 4622 3766 
L 4859 3766 
z
" transform="scale(0.015625)"/>
      <path id="MicrosoftYaHei-Bold-71" d="M 3794 -1591 
L 2788 -1591 
L 2788 488 
L 2772 488 
Q 2409 -84 1697 -84 
Q 1044 -84 648 370 
Q 253 825 253 1644 
Q 253 2509 689 3025 
Q 1125 3541 1825 3541 
Q 2466 3541 2772 3044 
L 2788 3044 
L 2788 3456 
L 3794 3456 
L 3794 -1591 
z
M 2803 1944 
Q 2803 2288 2597 2527 
Q 2391 2766 2072 2766 
Q 1709 2766 1492 2478 
Q 1275 2191 1275 1672 
Q 1275 1206 1484 948 
Q 1694 691 2022 691 
Q 2375 691 2589 955 
Q 2803 1219 2803 1641 
L 2803 1944 
z
" transform="scale(0.015625)"/>
     </defs>
     <use xlink:href="#MicrosoftYaHei-Bold-22"/>
     <use xlink:href="#MicrosoftYaHei-Bold-62" transform="translate(52.099609 0)"/>
     <use xlink:href="#MicrosoftYaHei-Bold-22" transform="translate(118.701172 0)"/>
     <use xlink:href="#MicrosoftYaHei-Bold-20" transform="translate(170.800781 0)"/>
     <use xlink:href="#MicrosoftYaHei-Bold-5728" transform="translate(200.585938 0)"/>
     <use xlink:href="#MicrosoftYaHei-Bold-663e" transform="translate(300.585938 0)"/>
     <use xlink:href="#MicrosoftYaHei-Bold-5fae" transform="translate(400.585938 0)"/>
     <use xlink:href="#MicrosoftYaHei-Bold-955c" transform="translate(500.585938 0)"/>
     <use xlink:href="#MicrosoftYaHei-Bold-4e0b" transform="translate(600.585938 0)"/>
     <use xlink:href="#MicrosoftYaHei-Bold-20" transform="translate(700.585938 0)"/>
     <use xlink:href="#MicrosoftYaHei-Bold-2192" transform="translate(730.371094 0)"/>
     <use xlink:href="#MicrosoftYaHei-Bold-20" transform="translate(830.371094 0)"/>
     <use xlink:href="#MicrosoftYaHei-Bold-22" transform="translate(860.15625 0)"/>
     <use xlink:href="#MicrosoftYaHei-Bold-71" transform="translate(912.255859 0)"/>
     <use xlink:href="#MicrosoftYaHei-Bold-22" transform="translate(978.710938 0)"/>
    </g>
   </g>
   <g id="text_12">
    <!-- • 放大倍数 = 目镜 × 物镜 -->
    <g style="fill: #444444" transform="translate(269.389375 279.617875) scale(0.08 -0.08)">
     <defs>
      <path id="MicrosoftYaHei-2022" d="M 525 2084 
Q 525 2459 778 2712 
Q 1031 2966 1406 2966 
Q 1800 2966 2044 2712 
Q 2288 2459 2288 2084 
Q 2288 1706 2044 1454 
Q 1800 1203 1406 1203 
Q 1031 1203 778 1456 
Q 525 1709 525 2084 
z
" transform="scale(0.015625)"/>
      <path id="MicrosoftYaHei-20" transform="scale(0.015625)"/>
      <path id="MicrosoftYaHei-653e" d="M 3956 5359 
L 4456 5272 
Q 4322 4681 4106 4128 
L 6281 4128 
L 6281 3666 
L 5759 3666 
Q 5638 1816 4884 725 
Q 5447 25 6338 -353 
Q 6131 -628 5994 -847 
Q 5153 -394 4559 322 
Q 3947 -356 3094 -903 
Q 2950 -722 2738 -509 
Q 3669 56 4259 731 
Q 3713 1625 3563 2988 
Q 3378 2669 3163 2366 
Q 3031 2553 2850 2766 
Q 3663 3884 3956 5359 
z
M 156 4184 
L 3169 4184 
L 3169 3722 
L 1400 3722 
Q 1394 3166 1378 2703 
L 2813 2703 
Q 2750 1166 2694 241 
Q 2638 -584 1981 -616 
Q 1600 -622 1263 -609 
Q 1225 -378 1156 -84 
Q 1569 -128 1794 -128 
Q 2175 -128 2206 347 
Q 2269 1078 2306 2241 
L 1359 2241 
Q 1338 216 369 -853 
Q 225 -641 38 -416 
Q 625 247 750 1003 
Q 909 1713 906 3722 
L 156 3722 
L 156 4184 
z
M 5263 3666 
L 3934 3666 
Q 4034 2134 4584 1166 
Q 5188 2131 5263 3666 
z
M 1206 5141 
L 1631 5366 
Q 1900 4966 2144 4503 
L 1706 4272 
Q 1456 4753 1206 5141 
z
" transform="scale(0.015625)"/>
      <path id="MicrosoftYaHei-5927" d="M 88 -341 
Q 2666 806 2869 3103 
L 200 3103 
L 200 3591 
L 2891 3591 
Q 2906 4431 2906 5284 
L 3450 5284 
Q 3450 4444 3434 3591 
L 6206 3591 
L 6206 3103 
L 3425 3103 
Q 3869 606 6338 -191 
Q 6019 -497 5863 -697 
Q 3828 122 3203 2219 
Q 2716 322 475 -822 
Q 350 -653 88 -341 
z
" transform="scale(0.015625)"/>
      <path id="MicrosoftYaHei-500d" d="M 2338 1709 
L 5750 1709 
L 5750 -816 
L 5275 -816 
L 5275 -409 
L 2813 -409 
L 2813 -816 
L 2338 -816 
L 2338 1709 
z
M 56 2278 
Q 919 3516 1394 5303 
L 1875 5166 
Q 1619 4331 1300 3603 
L 1300 -822 
L 838 -822 
L 838 2669 
Q 566 2178 263 1753 
Q 169 2016 56 2278 
z
M 5275 1278 
L 2813 1278 
L 2813 9 
L 5275 9 
L 5275 1278 
z
M 1775 2766 
L 4850 2766 
L 4506 2959 
Q 4875 3447 5125 3953 
L 5588 3728 
Q 5297 3253 4947 2766 
L 6313 2766 
L 6313 2328 
L 1775 2328 
L 1775 2766 
z
M 2006 4409 
L 3984 4409 
Q 3769 4778 3506 5141 
L 3925 5384 
Q 4206 5009 4444 4622 
L 4072 4409 
L 6094 4409 
L 6094 3972 
L 2006 3972 
L 2006 4409 
z
M 2525 3716 
L 2925 3959 
Q 3288 3459 3556 3041 
L 3131 2772 
Q 2825 3309 2525 3716 
z
" transform="scale(0.015625)"/>
      <path id="MicrosoftYaHei-6570" d="M 4175 5303 
L 4675 5228 
Q 4544 4622 4369 4097 
L 6281 4097 
L 6281 3672 
L 5888 3672 
Q 5731 1834 5088 753 
Q 5594 66 6375 -372 
Q 6175 -647 6038 -866 
Q 5275 -372 4769 309 
Q 4194 -403 3400 -928 
Q 3263 -747 3044 -534 
Q 3919 41 4463 772 
Q 3956 1647 3794 2791 
Q 3663 2559 3519 2359 
Q 3394 2541 3206 2759 
Q 3931 3803 4175 5303 
z
M 150 1697 
L 1100 1697 
Q 1238 1934 1369 2184 
L 1819 2041 
Q 1719 1866 1619 1697 
L 3150 1697 
L 3150 1291 
Q 2913 678 2431 216 
Q 2775 53 3131 -109 
L 2856 -541 
Q 2469 -322 2050 -103 
Q 1344 -609 269 -903 
Q 169 -703 56 -466 
Q 969 -259 1600 128 
Q 1063 403 475 691 
Q 675 978 863 1284 
L 150 1284 
L 150 1697 
z
M 219 3847 
L 1656 3847 
L 1656 5247 
L 2119 5247 
L 2119 3847 
L 3319 3847 
L 3319 3434 
L 2119 3434 
L 2119 3053 
L 2306 3266 
Q 2888 2841 3281 2516 
L 2981 2166 
Q 2638 2491 2119 2897 
L 2119 2184 
L 1656 2184 
L 1656 3059 
Q 1088 2466 331 2016 
Q 213 2197 63 2397 
Q 850 2822 1506 3434 
L 219 3434 
L 219 3847 
z
M 5388 3672 
L 4219 3672 
Q 4188 3591 4150 3516 
Q 4263 2191 4775 1247 
Q 5275 2159 5388 3672 
z
M 1088 834 
Q 1531 634 2000 416 
Q 2431 784 2675 1284 
L 1375 1284 
Q 1231 1053 1088 834 
z
M 3038 5091 
L 3425 4834 
Q 3081 4384 2738 4003 
Q 2594 4128 2400 4266 
Q 2725 4647 3038 5091 
z
M 381 4816 
L 738 5059 
Q 1019 4716 1319 4322 
L 931 4047 
Q 656 4453 381 4816 
z
" transform="scale(0.015625)"/>
      <path id="MicrosoftYaHei-3d" d="M 3972 2497 
L 788 2497 
L 788 2969 
L 3972 2969 
L 3972 2497 
z
M 3972 1053 
L 788 1053 
L 788 1525 
L 3972 1525 
L 3972 1053 
z
" transform="scale(0.015625)"/>
      <path id="MicrosoftYaHei-76ee" d="M 944 5016 
L 5469 5016 
L 5469 -772 
L 4938 -772 
L 4938 -303 
L 1475 -303 
L 1475 -772 
L 944 -772 
L 944 5016 
z
M 1475 1341 
L 1475 159 
L 4938 159 
L 4938 1341 
L 1475 1341 
z
M 1475 2947 
L 1475 1778 
L 4938 1778 
L 4938 2947 
L 1475 2947 
z
M 1475 4553 
L 1475 3384 
L 4938 3384 
L 4938 4553 
L 1475 4553 
z
" transform="scale(0.015625)"/>
      <path id="MicrosoftYaHei-d7" d="M 3856 869 
L 3519 531 
L 2372 1678 
L 1231 531 
L 894 869 
L 2044 2009 
L 894 3156 
L 1231 3491 
L 2372 2344 
L 3522 3491 
L 3856 3153 
L 2709 2009 
L 3856 869 
z
" transform="scale(0.015625)"/>
     </defs>
     <use xlink:href="#MicrosoftYaHei-2022"/>
     <use xlink:href="#MicrosoftYaHei-20" transform="translate(43.945312 0)"/>
     <use xlink:href="#MicrosoftYaHei-653e" transform="translate(73.535156 0)"/>
     <use xlink:href="#MicrosoftYaHei-5927" transform="translate(173.535156 0)"/>
     <use xlink:href="#MicrosoftYaHei-500d" transform="translate(273.535156 0)"/>
     <use xlink:href="#MicrosoftYaHei-6570" transform="translate(373.535156 0)"/>
     <use xlink:href="#MicrosoftYaHei-20" transform="translate(473.535156 0)"/>
     <use xlink:href="#MicrosoftYaHei-3d" transform="translate(503.125 0)"/>
     <use xlink:href="#MicrosoftYaHei-20" transform="translate(577.294922 0)"/>
     <use xlink:href="#MicrosoftYaHei-76ee" transform="translate(606.884766 0)"/>
     <use xlink:href="#MicrosoftYaHei-955c" transform="translate(706.884766 0)"/>
     <use xlink:href="#MicrosoftYaHei-20" transform="translate(806.884766 0)"/>
     <use xlink:href="#MicrosoftYaHei-d7" transform="translate(836.474609 0)"/>
     <use xlink:href="#MicrosoftYaHei-20" transform="translate(910.644531 0)"/>
     <use xlink:href="#MicrosoftYaHei-7269" transform="translate(940.234375 0)"/>
     <use xlink:href="#MicrosoftYaHei-955c" transform="translate(1040.234375 0)"/>
    </g>
   </g>
   <g id="text_13">
    <!-- • 目镜越长放大倍数越小 -->
    <g style="fill: #444444" transform="translate(272.058125 298.310675) scale(0.08 -0.08)">
     <defs>
      <path id="MicrosoftYaHei-8d8a" d="M 119 -334 
Q 600 534 619 2241 
L 1050 2216 
Q 1044 1597 981 1072 
Q 1206 606 1563 316 
L 1563 2616 
L 138 2616 
L 138 3047 
L 1375 3047 
L 1375 3966 
L 356 3966 
L 356 4397 
L 1375 4397 
L 1375 5303 
L 1813 5303 
L 1813 4397 
L 2775 4397 
L 2775 3966 
L 1813 3966 
L 1813 3047 
L 2875 3047 
L 2875 2616 
L 2000 2616 
L 2000 1628 
L 2800 1628 
L 2800 1197 
L 2000 1197 
L 2000 47 
Q 2459 -159 3069 -166 
Q 4519 -184 6313 -141 
Q 6200 -422 6138 -634 
Q 4363 -634 2938 -616 
Q 1456 -594 881 463 
Q 716 -338 381 -853 
Q 256 -559 119 -334 
z
M 3550 409 
Q 4125 956 4553 1563 
Q 4303 2409 4228 3716 
L 3494 3716 
L 3494 1591 
Q 3775 1834 4131 2159 
Q 4169 1916 4225 1697 
Q 3856 1384 3481 1028 
Q 3344 897 3188 697 
L 2875 1016 
Q 3069 1266 3069 1622 
L 3069 4128 
L 4206 4128 
Q 4188 4709 4188 5322 
L 4613 5322 
Q 4606 4753 4631 4128 
L 6175 4128 
L 6175 3716 
L 4653 3716 
Q 4700 2753 4872 2050 
Q 5219 2641 5438 3284 
L 5856 3109 
Q 5516 2241 5038 1506 
Q 5159 1181 5319 934 
Q 5431 747 5538 747 
Q 5631 747 5669 978 
Q 5725 1378 5775 1941 
Q 6063 1834 6206 1784 
Q 6138 1103 6075 766 
Q 5981 228 5600 228 
Q 5263 228 5013 578 
Q 4856 788 4731 1069 
Q 4347 553 3888 116 
Q 3769 259 3550 409 
z
M 4950 5066 
L 5275 5303 
Q 5544 5009 5894 4572 
L 5525 4316 
Q 5206 4766 4950 5066 
z
" transform="scale(0.015625)"/>
      <path id="MicrosoftYaHei-957f" d="M 169 2766 
L 1269 2766 
L 1269 5316 
L 1781 5316 
L 1781 2766 
L 6194 2766 
L 6194 2278 
L 3456 2278 
Q 4238 566 6325 -78 
Q 6113 -359 5944 -591 
Q 3697 266 2925 2278 
L 1781 2278 
L 1781 16 
Q 2494 303 3294 678 
Q 3294 384 3319 116 
Q 2575 -191 1894 -528 
Q 1644 -666 1431 -834 
L 1056 -353 
Q 1269 -184 1269 103 
L 1269 2278 
L 169 2278 
L 169 2766 
z
M 2156 3528 
Q 3706 4047 5138 5109 
L 5463 4703 
Q 4000 3634 2400 3066 
Q 2300 3278 2156 3528 
z
" transform="scale(0.015625)"/>
      <path id="MicrosoftYaHei-5c0f" d="M 1513 3878 
L 2025 3697 
Q 1425 1984 625 478 
Q 413 609 113 759 
Q 831 1972 1513 3878 
z
M 4300 3641 
L 4769 3866 
Q 5563 2422 6319 828 
L 5750 559 
Q 4988 2328 4300 3641 
z
M 3000 5247 
L 3556 5247 
L 3556 66 
Q 3556 -747 2675 -747 
Q 2325 -747 1744 -728 
Q 1700 -453 1638 -141 
Q 2238 -197 2556 -197 
Q 3000 -197 3000 203 
L 3000 5247 
z
" transform="scale(0.015625)"/>
     </defs>
     <use xlink:href="#MicrosoftYaHei-2022"/>
     <use xlink:href="#MicrosoftYaHei-20" transform="translate(43.945312 0)"/>
     <use xlink:href="#MicrosoftYaHei-76ee" transform="translate(73.535156 0)"/>
     <use xlink:href="#MicrosoftYaHei-955c" transform="translate(173.535156 0)"/>
     <use xlink:href="#MicrosoftYaHei-8d8a" transform="translate(273.535156 0)"/>
     <use xlink:href="#MicrosoftYaHei-957f" transform="translate(373.535156 0)"/>
     <use xlink:href="#MicrosoftYaHei-653e" transform="translate(473.535156 0)"/>
     <use xlink:href="#MicrosoftYaHei-5927" transform="translate(573.535156 0)"/>
     <use xlink:href="#MicrosoftYaHei-500d" transform="translate(673.535156 0)"/>
     <use xlink:href="#MicrosoftYaHei-6570" transform="translate(773.535156 0)"/>
     <use xlink:href="#MicrosoftYaHei-8d8a" transform="translate(873.535156 0)"/>
     <use xlink:href="#MicrosoftYaHei-5c0f" transform="translate(973.535156 0)"/>
    </g>
   </g>
   <g id="text_14">
    <!-- • 物镜越长放大倍数越大 -->
    <g style="fill: #444444" transform="translate(272.058125 317.003475) scale(0.08 -0.08)">
     <use xlink:href="#MicrosoftYaHei-2022"/>
     <use xlink:href="#MicrosoftYaHei-20" transform="translate(43.945312 0)"/>
     <use xlink:href="#MicrosoftYaHei-7269" transform="translate(73.535156 0)"/>
     <use xlink:href="#MicrosoftYaHei-955c" transform="translate(173.535156 0)"/>
     <use xlink:href="#MicrosoftYaHei-8d8a" transform="translate(273.535156 0)"/>
     <use xlink:href="#MicrosoftYaHei-957f" transform="translate(373.535156 0)"/>
     <use xlink:href="#MicrosoftYaHei-653e" transform="translate(473.535156 0)"/>
     <use xlink:href="#MicrosoftYaHei-5927" transform="translate(573.535156 0)"/>
     <use xlink:href="#MicrosoftYaHei-500d" transform="translate(673.535156 0)"/>
     <use xlink:href="#MicrosoftYaHei-6570" transform="translate(773.535156 0)"/>
     <use xlink:href="#MicrosoftYaHei-8d8a" transform="translate(873.535156 0)"/>
     <use xlink:href="#MicrosoftYaHei-5927" transform="translate(973.535156 0)"/>
    </g>
   </g>
   <g id="text_15">
    <!-- • 低→高倍镜：视野变暗、细胞变少 -->
    <g style="fill: #444444" transform="translate(252.058125 335.696275) scale(0.08 -0.08)">
     <defs>
      <path id="MicrosoftYaHei-4f4e" d="M 2275 4809 
Q 4069 4809 5994 5072 
L 6169 4603 
Q 5306 4522 4497 4469 
Q 4513 3594 4556 2872 
L 6250 2872 
L 6250 2422 
L 4591 2422 
Q 4775 250 5581 -172 
Q 5756 -247 5806 -41 
Q 5863 278 5913 897 
Q 6156 784 6363 728 
Q 6300 141 6225 -241 
Q 6119 -728 5738 -728 
Q 5275 -728 4856 -178 
Q 4259 644 4122 2422 
L 2750 2422 
L 2750 209 
Q 3425 597 3913 878 
Q 3950 591 4006 397 
Q 3206 -59 2744 -353 
Q 2563 -472 2388 -634 
L 2063 -222 
Q 2275 -41 2275 316 
L 2275 4809 
z
M 38 2397 
Q 1000 3697 1531 5334 
L 1988 5172 
Q 1678 4309 1306 3578 
L 1306 -828 
L 856 -828 
L 856 2778 
Q 550 2288 213 1872 
Q 138 2122 38 2397 
z
M 4016 4441 
Q 3366 4403 2750 4384 
L 2750 2872 
L 4094 2872 
Q 4059 3481 4016 4441 
z
M 3531 -116 
L 3856 141 
Q 4206 -191 4544 -566 
L 4181 -859 
Q 3888 -491 3531 -116 
z
" transform="scale(0.015625)"/>
      <path id="MicrosoftYaHei-2192" d="M 4859 3766 
Q 5241 3344 5514 3125 
Q 5788 2906 6150 2713 
L 6150 2572 
Q 5788 2381 5517 2164 
Q 5247 1947 4859 1519 
L 4622 1519 
Q 4766 1822 4866 1983 
Q 4966 2144 5141 2369 
L 247 2369 
L 247 2916 
L 5141 2916 
Q 4972 3131 4869 3298 
Q 4766 3466 4622 3766 
L 4859 3766 
z
" transform="scale(0.015625)"/>
      <path id="MicrosoftYaHei-9ad8" d="M 1194 3922 
L 5250 3922 
L 5250 2397 
L 4775 2397 
L 4775 2597 
L 1669 2597 
L 1669 2403 
L 1194 2403 
L 1194 3922 
z
M 969 -784 
L 494 -784 
L 494 2147 
L 5956 2147 
L 5956 22 
Q 5956 -747 5231 -747 
Q 4825 -747 4319 -734 
Q 4281 -522 4219 -241 
Q 4794 -284 5100 -284 
Q 5481 -284 5481 97 
L 5481 1747 
L 969 1747 
L 969 -784 
z
M 1813 1334 
L 4638 1334 
L 4638 28 
L 2263 28 
L 2263 -241 
L 1813 -241 
L 1813 1334 
z
M 125 4747 
L 2988 4747 
Q 2850 5013 2725 5216 
L 3194 5403 
Q 3372 5094 3541 4747 
L 6275 4747 
L 6275 4334 
L 125 4334 
L 125 4747 
z
M 4775 3534 
L 1669 3534 
L 1669 2984 
L 4775 2984 
L 4775 3534 
z
M 4188 416 
L 4188 947 
L 2263 947 
L 2263 416 
L 4188 416 
z
" transform="scale(0.015625)"/>
      <path id="MicrosoftYaHei-ff1a" d="M 1606 3531 
Q 1772 3531 1890 3415 
Q 2009 3300 2009 3138 
Q 2009 2975 1893 2858 
Q 1778 2741 1606 2741 
Q 1434 2741 1318 2858 
Q 1203 2975 1203 3138 
Q 1203 3300 1322 3415 
Q 1441 3531 1606 3531 
z
M 1606 716 
Q 1772 716 1890 600 
Q 2009 484 2009 319 
Q 2009 150 1890 36 
Q 1772 -78 1606 -78 
Q 1441 -78 1322 36 
Q 1203 150 1203 319 
Q 1203 484 1322 600 
Q 1441 716 1606 716 
z
" transform="scale(0.015625)"/>
      <path id="MicrosoftYaHei-89c6" d="M 3925 4047 
L 4413 4047 
Q 4413 2291 4325 1841 
L 4719 1841 
L 4719 128 
Q 4719 -241 5063 -241 
L 5400 -241 
Q 5769 -241 5831 84 
Q 5875 428 5900 966 
Q 6119 866 6375 778 
Q 6325 234 6275 -97 
Q 6194 -672 5519 -672 
L 4981 -672 
Q 4238 -672 4238 66 
L 4238 1403 
Q 3813 -191 2138 -903 
Q 2000 -709 1813 -491 
Q 3756 253 3888 2334 
Q 3925 3028 3925 4047 
z
M 2631 4953 
L 5769 4953 
L 5769 1103 
L 5281 1103 
L 5281 4516 
L 3119 4516 
L 3119 1103 
L 2631 1103 
L 2631 4953 
z
M 119 3559 
L 119 4009 
L 2150 4009 
L 2150 3547 
Q 1831 2984 1431 2466 
L 1431 2122 
L 1700 2366 
Q 2144 1966 2525 1584 
L 2163 1266 
Q 1844 1628 1431 2047 
L 1431 -822 
L 956 -822 
L 956 1891 
Q 625 1522 250 1178 
Q 181 1422 81 1716 
Q 1050 2566 1594 3559 
L 119 3559 
z
M 731 5078 
L 1169 5297 
Q 1406 4916 1663 4434 
L 1200 4197 
Q 950 4709 731 5078 
z
" transform="scale(0.015625)"/>
      <path id="MicrosoftYaHei-91ce" d="M 113 78 
Q 831 125 1538 184 
L 1538 1078 
L 275 1078 
L 275 1503 
L 1538 1503 
L 1538 2316 
L 806 2316 
L 806 2128 
L 369 2128 
L 369 4991 
L 3150 4991 
L 3150 2128 
L 2713 2128 
L 2713 2316 
L 1988 2316 
L 1988 1503 
L 3250 1503 
L 3250 1078 
L 1988 1078 
L 1988 222 
Q 2681 281 3363 353 
Q 3338 191 3325 -103 
Q 813 -347 163 -416 
L 113 78 
z
M 3369 2459 
L 3369 2891 
L 4706 2891 
Q 4328 3328 3725 3922 
L 4038 4191 
Q 4406 3844 4703 3544 
L 5556 4534 
L 3488 4534 
L 3488 4966 
L 6100 4966 
L 6100 4472 
L 5000 3238 
Q 5109 3122 5206 3016 
L 5047 2891 
L 6288 2891 
L 6288 2522 
Q 6106 1984 5856 1422 
Q 5525 1528 5400 1559 
Q 5631 2059 5775 2459 
L 4975 2459 
L 4975 -109 
Q 4975 -741 4294 -741 
Q 3938 -741 3531 -728 
Q 3506 -509 3456 -228 
Q 3906 -272 4200 -272 
Q 4513 -272 4513 34 
L 4513 2459 
L 3369 2459 
z
M 806 2722 
L 1538 2722 
L 1538 3459 
L 806 3459 
L 806 2722 
z
M 806 3853 
L 1538 3853 
L 1538 4584 
L 806 4584 
L 806 3853 
z
M 1988 2722 
L 2713 2722 
L 2713 3459 
L 1988 3459 
L 1988 2722 
z
M 2713 4584 
L 1988 4584 
L 1988 3853 
L 2713 3853 
L 2713 4584 
z
" transform="scale(0.015625)"/>
      <path id="MicrosoftYaHei-53d8" d="M 838 1634 
L 838 2066 
L 5088 2066 
L 5088 1634 
Q 4494 853 3659 309 
Q 4675 -178 6313 -297 
Q 6088 -609 5950 -822 
Q 4275 -594 3178 34 
Q 2122 -509 425 -866 
Q 269 -622 106 -403 
Q 1741 -122 2728 328 
Q 2047 838 1553 1634 
L 838 1634 
z
M 231 4534 
L 3081 4534 
Q 2888 4884 2725 5141 
L 3175 5359 
Q 3481 4884 3600 4659 
L 3359 4534 
L 6200 4534 
L 6200 4091 
L 4181 4091 
L 4181 2353 
L 3700 2353 
L 3700 4091 
L 2694 4091 
L 2694 2341 
L 2213 2341 
L 2213 4091 
L 231 4091 
L 231 4534 
z
M 4475 1634 
L 2116 1634 
Q 2575 953 3197 572 
Q 3947 1016 4475 1634 
z
M 4556 3434 
L 4900 3728 
Q 5700 3009 6213 2459 
L 5825 2116 
Q 5219 2797 4556 3434 
z
M 1381 3741 
L 1756 3422 
Q 1119 2691 500 2097 
Q 344 2272 138 2447 
Q 794 3009 1381 3741 
z
" transform="scale(0.015625)"/>
      <path id="MicrosoftYaHei-6697" d="M 2744 2147 
L 5806 2147 
L 5806 -803 
L 5356 -803 
L 5356 -503 
L 3194 -503 
L 3194 -803 
L 2744 -803 
L 2744 2147 
z
M 413 4703 
L 2150 4703 
L 2150 -97 
L 1694 -97 
L 1694 222 
L 869 222 
L 869 -247 
L 413 -247 
L 413 4703 
z
M 2300 3122 
L 3447 3122 
Q 3191 3578 2963 3872 
L 3344 4097 
Q 3544 3834 3869 3341 
L 3525 3122 
L 4581 3122 
Q 4966 3641 5238 4097 
L 5694 3847 
Q 5375 3453 5094 3122 
L 6269 3122 
L 6269 2703 
L 2300 2703 
L 2300 3122 
z
M 2550 4603 
L 4244 4603 
Q 4059 4913 3850 5166 
L 4225 5378 
Q 4481 5066 4650 4803 
L 4338 4603 
L 6044 4603 
L 6044 4184 
L 2550 4184 
L 2550 4603 
z
M 3194 -91 
L 5356 -91 
L 5356 622 
L 3194 622 
L 3194 -91 
z
M 5356 1734 
L 3194 1734 
L 3194 1022 
L 5356 1022 
L 5356 1734 
z
M 869 666 
L 1694 666 
L 1694 2247 
L 869 2247 
L 869 666 
z
M 1694 4259 
L 869 4259 
L 869 2691 
L 1694 2691 
L 1694 4259 
z
" transform="scale(0.015625)"/>
      <path id="MicrosoftYaHei-3001" d="M 1931 -413 
L 1556 -791 
Q 1028 -216 397 306 
L 728 650 
Q 1506 22 1931 -413 
z
" transform="scale(0.015625)"/>
      <path id="MicrosoftYaHei-80de" d="M 2169 3128 
Q 2819 4034 3206 5309 
L 3663 5159 
Q 3544 4822 3419 4522 
L 5913 4522 
Q 5888 1972 5856 1641 
Q 5819 522 4725 553 
Q 4400 553 3956 572 
Q 3925 841 3863 1072 
Q 4425 1016 4675 1016 
Q 5388 959 5394 1766 
Q 5419 2172 5438 4084 
L 3231 4084 
Q 3050 3678 2850 3334 
L 4844 3334 
L 4844 1528 
L 3225 1528 
L 3225 253 
Q 3225 -241 3681 -241 
L 5081 -241 
Q 5575 -241 5700 134 
Q 5781 372 5869 866 
Q 6094 747 6319 672 
Q 6213 178 6119 -97 
Q 5919 -678 5200 -678 
L 3588 -678 
Q 2781 -678 2781 191 
L 2781 3216 
Q 2644 2984 2531 2816 
Q 2338 2997 2169 3128 
z
M 525 4972 
L 2138 4972 
L 2138 -166 
Q 2138 -678 1656 -741 
Q 1456 -766 963 -741 
Q 931 -491 888 -278 
Q 1231 -316 1450 -316 
Q 1700 -316 1700 -53 
L 1700 1397 
L 963 1397 
Q 975 -28 425 -878 
Q 256 -678 56 -528 
Q 563 259 525 1566 
L 525 4972 
z
M 4406 1953 
L 4406 2909 
L 3225 2909 
L 3225 1953 
L 4406 1953 
z
M 963 1809 
L 1700 1809 
L 1700 2984 
L 963 2984 
L 963 1809 
z
M 1700 4559 
L 963 4559 
L 963 3397 
L 1700 3397 
L 1700 4559 
z
" transform="scale(0.015625)"/>
      <path id="MicrosoftYaHei-5c11" d="M 1631 4428 
L 2144 4228 
Q 1463 2722 669 1484 
Q 475 1609 200 1766 
Q 994 2916 1631 4428 
z
M 4138 4266 
L 4531 4566 
Q 5531 3491 6331 2528 
L 5881 2166 
Q 5006 3278 4138 4266 
z
M 2925 5284 
L 3463 5284 
L 3463 1359 
L 2925 1359 
L 2925 5284 
z
M 4988 2416 
L 5444 2116 
Q 3631 -216 413 -859 
Q 275 -609 100 -359 
Q 3350 272 4988 2416 
z
" transform="scale(0.015625)"/>
     </defs>
     <use xlink:href="#MicrosoftYaHei-2022"/>
     <use xlink:href="#MicrosoftYaHei-20" transform="translate(43.945312 0)"/>
     <use xlink:href="#MicrosoftYaHei-4f4e" transform="translate(73.535156 0)"/>
     <use xlink:href="#MicrosoftYaHei-2192" transform="translate(173.535156 0)"/>
     <use xlink:href="#MicrosoftYaHei-9ad8" transform="translate(273.535156 0)"/>
     <use xlink:href="#MicrosoftYaHei-500d" transform="translate(373.535156 0)"/>
     <use xlink:href="#MicrosoftYaHei-955c" transform="translate(473.535156 0)"/>
     <use xlink:href="#MicrosoftYaHei-ff1a" transform="translate(573.535156 0)"/>
     <use xlink:href="#MicrosoftYaHei-89c6" transform="translate(673.535156 0)"/>
     <use xlink:href="#MicrosoftYaHei-91ce" transform="translate(773.535156 0)"/>
     <use xlink:href="#MicrosoftYaHei-53d8" transform="translate(873.535156 0)"/>
     <use xlink:href="#MicrosoftYaHei-6697" transform="translate(973.535156 0)"/>
     <use xlink:href="#MicrosoftYaHei-3001" transform="translate(1073.535156 0)"/>
     <use xlink:href="#MicrosoftYaHei-7ec6" transform="translate(1173.535156 0)"/>
     <use xlink:href="#MicrosoftYaHei-80de" transform="translate(1273.535156 0)"/>
     <use xlink:href="#MicrosoftYaHei-53d8" transform="translate(1373.535156 0)"/>
     <use xlink:href="#MicrosoftYaHei-5c11" transform="translate(1473.535156 0)"/>
    </g>
   </g>
   <g id="text_16">
    <!-- • 物像偏哪，玻片向哪移 -->
    <g style="fill: #444444" transform="translate(272.058125 354.389075) scale(0.08 -0.08)">
     <defs>
      <path id="MicrosoftYaHei-50cf" d="M 5638 2322 
L 5963 1978 
Q 5575 1716 5147 1463 
Q 5481 547 6313 -9 
Q 6075 -197 5900 -391 
Q 5163 266 4794 1263 
Q 4647 1181 4497 1100 
Q 4606 709 4600 291 
Q 4588 -778 3625 -759 
Q 3388 -759 3013 -747 
Q 2969 -503 2906 -284 
Q 3400 -334 3594 -334 
Q 4150 -347 4169 316 
Q 4169 544 4131 766 
Q 3331 25 1913 -616 
Q 1794 -434 1625 -228 
Q 3072 294 4019 1197 
Q 3956 1369 3869 1534 
Q 3031 791 1875 303 
Q 1750 491 1588 678 
Q 2791 1091 3663 1859 
Q 3572 1984 3466 2106 
Q 2897 1666 1869 1216 
Q 1731 1409 1581 1578 
Q 2794 2053 3319 2516 
L 2606 2516 
L 2606 2372 
L 2175 2372 
L 2175 3578 
Q 2003 3428 1825 3284 
Q 1763 3409 1563 3684 
Q 2513 4403 3169 5316 
L 3700 5316 
Q 3534 5066 3350 4828 
L 5106 4828 
L 5106 4459 
L 4544 3878 
L 5894 3878 
L 5894 2516 
L 3891 2516 
Q 3834 2447 3769 2378 
Q 4159 1947 4366 1472 
Q 5122 1916 5638 2322 
z
M 81 2291 
Q 900 3534 1425 5322 
L 1894 5203 
Q 1600 4328 1275 3594 
L 1275 -828 
L 838 -828 
L 838 2700 
Q 566 2197 275 1778 
Q 188 2041 81 2291 
z
M 4506 4441 
L 3031 4441 
Q 2778 4150 2497 3878 
L 3994 3878 
L 4506 4441 
z
M 5463 2903 
L 5463 3491 
L 4306 3491 
Q 4247 3175 4122 2903 
L 5463 2903 
z
M 2606 2903 
L 3644 2903 
Q 3800 3169 3853 3491 
L 2606 3491 
L 2606 2903 
z
" transform="scale(0.015625)"/>
      <path id="MicrosoftYaHei-504f" d="M 3088 -803 
L 2675 -803 
L 2675 2522 
L 6050 2522 
L 6050 -128 
Q 6050 -497 5919 -628 
Q 5794 -766 5444 -784 
Q 5213 -791 5019 -791 
Q 4994 -616 4953 -466 
L 4644 -466 
L 4644 797 
L 4063 797 
L 4063 -491 
L 3669 -491 
L 3669 797 
L 3088 797 
L 3088 -803 
z
M 2013 4678 
L 3884 4678 
Q 3738 4941 3606 5141 
L 4081 5359 
Q 4259 5075 4481 4678 
L 5956 4678 
L 5956 2966 
L 5525 2966 
L 5525 3166 
L 2450 3166 
L 2450 2816 
Q 2450 1316 2294 616 
Q 2138 -153 1706 -841 
Q 1575 -647 1363 -428 
Q 1744 159 1875 834 
Q 2013 1491 2013 2784 
L 2013 4678 
z
M 81 2291 
Q 913 3553 1381 5322 
L 1850 5203 
Q 1594 4353 1275 3609 
L 1275 -828 
L 838 -828 
L 838 2703 
Q 572 2209 275 1778 
Q 188 2041 81 2291 
z
M 5525 4278 
L 2450 4278 
L 2450 3566 
L 5525 3566 
L 5525 4278 
z
M 5381 -391 
Q 5631 -391 5631 -103 
L 5631 797 
L 5038 797 
L 5038 -375 
Q 5238 -391 5381 -391 
z
M 5631 2122 
L 5038 2122 
L 5038 1178 
L 5631 1178 
L 5631 2122 
z
M 4063 1178 
L 4644 1178 
L 4644 2122 
L 4063 2122 
L 4063 1178 
z
M 3088 1178 
L 3669 1178 
L 3669 2122 
L 3088 2122 
L 3088 1178 
z
" transform="scale(0.015625)"/>
      <path id="MicrosoftYaHei-54ea" d="M 1906 1872 
L 2322 1872 
Q 2359 2356 2372 3009 
L 1913 3009 
L 1913 3397 
L 2378 3397 
Q 2388 3922 2391 4534 
L 1913 4534 
L 1913 4934 
L 3863 4934 
Q 3844 1397 3788 122 
Q 3731 -622 3050 -622 
Q 2769 -622 2369 -609 
Q 2331 -391 2275 -134 
Q 2738 -172 2944 -172 
Q 3313 -178 3350 266 
Q 3372 681 3391 1484 
L 2725 1484 
Q 2563 88 1525 -866 
Q 1388 -672 1206 -491 
Q 2119 297 2284 1484 
L 1906 1484 
L 1906 1872 
z
M 363 4666 
L 1725 4666 
L 1725 734 
L 788 734 
L 788 391 
L 363 391 
L 363 4666 
z
M 6213 1166 
Q 6213 128 5425 128 
Q 5206 128 4844 159 
Q 4819 416 4763 678 
Q 5106 584 5338 584 
Q 5763 584 5763 1197 
Q 5763 1941 4981 2709 
Q 5394 3728 5644 4522 
L 4725 4522 
L 4725 -866 
L 4300 -866 
L 4300 4934 
L 6113 4934 
L 6113 4516 
Q 5775 3509 5475 2803 
Q 6213 2066 6213 1166 
z
M 1300 1147 
L 1300 4253 
L 788 4253 
L 788 1147 
L 1300 1147 
z
M 3413 3009 
L 2797 3009 
Q 2788 2378 2756 1872 
L 3397 1872 
Q 3406 2378 3413 3009 
z
M 3425 4534 
L 2825 4534 
Q 2822 3969 2806 3397 
L 3416 3397 
Q 3422 3922 3425 4534 
z
" transform="scale(0.015625)"/>
      <path id="MicrosoftYaHei-ff0c" d="M 1931 775 
L 1403 -891 
L 966 -891 
L 1350 775 
L 1931 775 
z
" transform="scale(0.015625)"/>
      <path id="MicrosoftYaHei-73bb" d="M 2544 4459 
L 4169 4459 
L 4169 5278 
L 4606 5278 
L 4606 4459 
L 6125 4459 
L 6125 4016 
L 5994 3159 
Q 5731 3216 5513 3228 
L 5656 4022 
L 4606 4022 
L 4606 2828 
L 5825 2828 
L 5825 2397 
Q 5481 1256 4766 456 
Q 5384 -106 6313 -403 
Q 6106 -678 5969 -866 
Q 5050 -497 4425 109 
Q 3756 -500 2825 -872 
Q 2713 -684 2525 -422 
Q 3450 -103 4103 466 
Q 3463 1259 3238 2384 
L 2994 2384 
L 2994 2047 
Q 2994 247 2006 -828 
Q 1856 -616 1669 -434 
Q 2544 491 2544 2078 
L 2544 4459 
z
M 69 516 
Q 553 691 1019 863 
L 1019 2459 
L 269 2459 
L 269 2884 
L 1019 2884 
L 1019 4278 
L 213 4278 
L 213 4703 
L 2275 4703 
L 2275 4278 
L 1469 4278 
L 1469 2884 
L 2188 2884 
L 2188 2459 
L 1469 2459 
L 1469 1031 
Q 1866 1178 2244 1328 
Q 2256 1053 2275 847 
Q 1269 478 238 22 
L 69 516 
z
M 5338 2384 
L 3688 2384 
Q 3900 1453 4441 800 
Q 5034 1459 5338 2384 
z
M 2994 2828 
L 4169 2828 
L 4169 4022 
L 2994 4022 
L 2994 2828 
z
" transform="scale(0.015625)"/>
      <path id="MicrosoftYaHei-7247" d="M 1263 5178 
L 1794 5178 
L 1794 3484 
L 4056 3484 
L 4056 5291 
L 4588 5291 
L 4588 3484 
L 6263 3484 
L 6263 3016 
L 1794 3016 
Q 1794 2616 1775 1916 
L 4856 1916 
L 4856 -809 
L 4319 -809 
L 4319 1441 
L 1738 1441 
Q 1613 91 694 -841 
Q 525 -616 300 -397 
Q 875 209 1069 822 
Q 1263 1372 1263 2584 
L 1263 5178 
z
" transform="scale(0.015625)"/>
      <path id="MicrosoftYaHei-5411" d="M 1038 -772 
L 550 -772 
L 550 4359 
L 2394 4359 
Q 2550 4822 2694 5328 
L 3231 5178 
Q 3069 4741 2913 4359 
L 5838 4359 
L 5838 -34 
Q 5838 -741 5131 -741 
Q 4738 -741 4181 -728 
Q 4150 -509 4094 -241 
Q 4631 -284 5006 -284 
Q 5350 -284 5350 78 
L 5350 3897 
L 1038 3897 
L 1038 -772 
z
M 1894 2997 
L 4481 2997 
L 4481 803 
L 2369 803 
L 2369 372 
L 1894 372 
L 1894 2997 
z
M 4006 2547 
L 2369 2547 
L 2369 1253 
L 4006 1253 
L 4006 2547 
z
" transform="scale(0.015625)"/>
      <path id="MicrosoftYaHei-79fb" d="M 2244 703 
Q 3244 1434 3875 2441 
Q 3300 2159 2594 1928 
Q 2494 2122 2363 2347 
Q 3288 2616 4013 3022 
Q 3744 3284 3306 3641 
L 3594 3953 
Q 4050 3597 4400 3284 
Q 4981 3653 5488 4341 
L 3619 4341 
Q 3256 3834 2638 3303 
Q 2506 3472 2331 3653 
Q 3231 4384 3713 5353 
L 4156 5184 
Q 4050 4978 3925 4784 
L 6013 4784 
L 6013 4334 
Q 5475 3291 4113 2559 
L 4444 2447 
Q 4344 2284 4238 2128 
L 6219 2128 
L 6219 1672 
Q 5388 -234 2431 -922 
Q 2319 -684 2206 -509 
Q 3200 -297 4094 153 
Q 3825 447 3450 797 
L 3750 1097 
Q 4156 734 4494 397 
Q 5288 959 5706 1684 
L 3913 1684 
Q 3338 941 2531 309 
Q 2413 484 2244 703 
z
M 50 859 
Q 681 1759 1056 2947 
L 131 2947 
L 131 3391 
L 1119 3391 
L 1119 4372 
Q 719 4341 263 4309 
Q 231 4522 169 4766 
Q 1444 4834 2394 4972 
L 2506 4497 
Q 2119 4453 1581 4409 
L 1581 3391 
L 2450 3391 
L 2450 2947 
L 1581 2947 
L 1581 2147 
L 1788 2378 
Q 2200 2053 2606 1697 
L 2275 1328 
Q 1956 1628 1581 1972 
L 1581 -859 
L 1119 -859 
L 1119 1897 
Q 781 1009 269 322 
Q 169 591 50 859 
z
" transform="scale(0.015625)"/>
     </defs>
     <use xlink:href="#MicrosoftYaHei-2022"/>
     <use xlink:href="#MicrosoftYaHei-20" transform="translate(43.945312 0)"/>
     <use xlink:href="#MicrosoftYaHei-7269" transform="translate(73.535156 0)"/>
     <use xlink:href="#MicrosoftYaHei-50cf" transform="translate(173.535156 0)"/>
     <use xlink:href="#MicrosoftYaHei-504f" transform="translate(273.535156 0)"/>
     <use xlink:href="#MicrosoftYaHei-54ea" transform="translate(373.535156 0)"/>
     <use xlink:href="#MicrosoftYaHei-ff0c" transform="translate(473.535156 0)"/>
     <use xlink:href="#MicrosoftYaHei-73bb" transform="translate(573.535156 0)"/>
     <use xlink:href="#MicrosoftYaHei-7247" transform="translate(673.535156 0)"/>
     <use xlink:href="#MicrosoftYaHei-5411" transform="translate(773.535156 0)"/>
     <use xlink:href="#MicrosoftYaHei-54ea" transform="translate(873.535156 0)"/>
     <use xlink:href="#MicrosoftYaHei-79fb" transform="translate(973.535156 0)"/>
    </g>
   </g>
   <g id="text_17">
    <!-- Microscope: Structure &amp; Imaging Principles -->
    <g style="fill: #2c3e50" transform="translate(69.990078 17.591875) scale(0.13 -0.13)">
     <defs>
      <path id="MicrosoftYaHei-Bold-4d" d="M 4991 0 
L 4991 2938 
Q 4991 3344 5031 3959 
L 5006 3959 
Q 4913 3494 4856 3338 
L 3663 0 
L 2841 0 
L 1631 3306 
Q 1588 3425 1478 3959 
L 1450 3959 
Q 1491 3350 1491 2738 
L 1491 0 
L 559 0 
L 559 4841 
L 2059 4841 
L 3103 1916 
Q 3234 1553 3281 1234 
L 3303 1234 
Q 3400 1631 3503 1922 
L 4550 4841 
L 6009 4841 
L 6009 0 
L 4991 0 
z
" transform="scale(0.015625)"/>
      <path id="MicrosoftYaHei-Bold-69" d="M 369 4572 
Q 369 4803 533 4948 
Q 697 5094 953 5094 
Q 1216 5094 1378 4945 
Q 1541 4797 1541 4572 
Q 1541 4344 1375 4192 
Q 1209 4041 953 4041 
Q 700 4041 534 4194 
Q 369 4347 369 4572 
z
M 444 0 
L 444 3456 
L 1450 3456 
L 1450 0 
L 444 0 
z
" transform="scale(0.015625)"/>
      <path id="MicrosoftYaHei-Bold-63" d="M 3050 128 
Q 2688 -84 2019 -84 
Q 1228 -84 740 397 
Q 253 878 253 1644 
Q 253 2525 778 3033 
Q 1303 3541 2178 3541 
Q 2769 3541 3053 3378 
L 3053 2513 
Q 2706 2766 2297 2766 
Q 1834 2766 1554 2484 
Q 1275 2203 1275 1713 
Q 1275 1238 1540 964 
Q 1806 691 2263 691 
Q 2666 691 3050 947 
L 3050 128 
z
" transform="scale(0.015625)"/>
      <path id="MicrosoftYaHei-Bold-72" d="M 2663 2541 
Q 2478 2647 2216 2647 
Q 1872 2647 1670 2384 
Q 1469 2122 1469 1663 
L 1469 0 
L 459 0 
L 459 3456 
L 1469 3456 
L 1469 2806 
L 1481 2806 
Q 1731 3516 2391 3516 
Q 2569 3516 2663 3475 
L 2663 2541 
z
" transform="scale(0.015625)"/>
      <path id="MicrosoftYaHei-Bold-6f" d="M 253 1713 
Q 253 2566 764 3053 
Q 1275 3541 2138 3541 
Q 2972 3541 3462 3061 
Q 3953 2581 3953 1772 
Q 3953 922 3450 419 
Q 2947 -84 2088 -84 
Q 1244 -84 748 398 
Q 253 881 253 1713 
z
M 1275 1725 
Q 1275 691 2119 691 
Q 2928 691 2928 1753 
Q 2928 2766 2113 2766 
Q 1716 2766 1495 2494 
Q 1275 2222 1275 1725 
z
" transform="scale(0.015625)"/>
      <path id="MicrosoftYaHei-Bold-73" d="M 369 928 
Q 888 613 1384 613 
Q 2009 613 2009 947 
Q 2009 1184 1494 1344 
Q 850 1544 609 1789 
Q 369 2034 369 2453 
Q 369 2963 781 3252 
Q 1194 3541 1863 3541 
Q 2338 3541 2778 3400 
L 2778 2606 
Q 2375 2844 1891 2844 
Q 1650 2844 1503 2758 
Q 1356 2672 1356 2531 
Q 1356 2294 1794 2147 
Q 2263 1991 2498 1862 
Q 2734 1734 2857 1525 
Q 2981 1316 2981 1041 
Q 2981 506 2553 211 
Q 2125 -84 1409 -84 
Q 847 -84 369 94 
L 369 928 
z
" transform="scale(0.015625)"/>
      <path id="MicrosoftYaHei-Bold-70" d="M 1469 416 
L 1469 -1591 
L 459 -1591 
L 459 3456 
L 1469 3456 
L 1469 2928 
L 1481 2928 
Q 1878 3541 2603 3541 
Q 3263 3541 3634 3080 
Q 4006 2619 4006 1825 
Q 4006 959 3575 437 
Q 3144 -84 2444 -84 
Q 1809 -84 1481 416 
L 1469 416 
z
M 1453 1528 
Q 1453 1159 1653 925 
Q 1853 691 2172 691 
Q 2550 691 2761 984 
Q 2972 1278 2972 1816 
Q 2972 2766 2231 2766 
Q 1888 2766 1670 2503 
Q 1453 2241 1453 1828 
L 1453 1528 
z
" transform="scale(0.015625)"/>
      <path id="MicrosoftYaHei-Bold-65" d="M 3528 1444 
L 1253 1444 
Q 1306 641 2222 641 
Q 2794 641 3231 922 
L 3231 181 
Q 2759 -84 1994 -84 
Q 1169 -84 711 381 
Q 253 847 253 1678 
Q 253 2506 740 3023 
Q 1228 3541 1966 3541 
Q 2700 3541 3114 3095 
Q 3528 2650 3528 1872 
L 3528 1444 
z
M 2588 2075 
Q 2588 2850 1959 2850 
Q 1700 2850 1500 2637 
Q 1300 2425 1250 2075 
L 2588 2075 
z
" transform="scale(0.015625)"/>
      <path id="MicrosoftYaHei-Bold-3a" d="M 313 2969 
Q 313 3200 491 3350 
Q 669 3500 916 3500 
Q 1166 3500 1337 3350 
Q 1509 3200 1509 2969 
Q 1509 2728 1337 2579 
Q 1166 2431 903 2431 
Q 653 2431 483 2584 
Q 313 2738 313 2969 
z
M 313 453 
Q 313 688 491 838 
Q 669 988 916 988 
Q 1166 988 1337 834 
Q 1509 681 1509 453 
Q 1509 213 1337 64 
Q 1166 -84 903 -84 
Q 659 -84 486 69 
Q 313 222 313 453 
z
" transform="scale(0.015625)"/>
      <path id="MicrosoftYaHei-Bold-53" d="M 338 1219 
Q 922 734 1666 734 
Q 2088 734 2300 879 
Q 2513 1025 2513 1253 
Q 2513 1450 2344 1625 
Q 2175 1800 1453 2100 
Q 319 2581 319 3500 
Q 319 4175 833 4548 
Q 1347 4922 2194 4922 
Q 2903 4922 3384 4738 
L 3384 3769 
Q 2897 4100 2244 4100 
Q 1863 4100 1634 3961 
Q 1406 3822 1406 3588 
Q 1406 3400 1562 3242 
Q 1719 3084 2334 2816 
Q 3056 2506 3326 2162 
Q 3597 1819 3597 1344 
Q 3597 647 3103 281 
Q 2609 -84 1700 -84 
Q 869 -84 338 184 
L 338 1219 
z
" transform="scale(0.015625)"/>
      <path id="MicrosoftYaHei-Bold-74" d="M 2494 41 
Q 2266 -84 1803 -84 
Q 703 -84 703 1072 
L 703 2703 
L 134 2703 
L 134 3456 
L 703 3456 
L 703 4216 
L 1706 4503 
L 1706 3456 
L 2494 3456 
L 2494 2703 
L 1706 2703 
L 1706 1247 
Q 1706 694 2144 694 
Q 2313 694 2494 794 
L 2494 41 
z
" transform="scale(0.015625)"/>
      <path id="MicrosoftYaHei-Bold-75" d="M 3691 0 
L 2688 0 
L 2688 528 
L 2672 528 
Q 2284 -84 1613 -84 
Q 406 -84 406 1372 
L 406 3456 
L 1416 3456 
L 1416 1466 
Q 1416 691 2022 691 
Q 2325 691 2506 903 
Q 2688 1116 2688 1478 
L 2688 3456 
L 3691 3456 
L 3691 0 
z
" transform="scale(0.015625)"/>
      <path id="MicrosoftYaHei-Bold-26" d="M 3831 538 
Q 3075 -78 2078 -78 
Q 1247 -78 759 314 
Q 272 706 272 1394 
Q 272 2344 1441 2800 
Q 853 3259 853 3809 
Q 853 4319 1242 4620 
Q 1631 4922 2297 4922 
Q 2906 4922 3289 4628 
Q 3672 4334 3672 3872 
Q 3672 3134 2806 2772 
Q 3475 2472 3975 1731 
Q 4494 2384 4494 3319 
Q 4494 3578 4428 3784 
L 5297 3784 
Q 5363 3600 5363 3334 
Q 5363 2094 4428 1091 
Q 4794 700 5122 700 
Q 5450 700 5725 834 
L 5725 63 
Q 5381 -78 4981 -78 
Q 4369 -78 3831 538 
z
M 2188 3153 
Q 2775 3369 2775 3800 
Q 2775 3997 2633 4119 
Q 2491 4241 2297 4241 
Q 2066 4241 1912 4108 
Q 1759 3975 1759 3781 
Q 1759 3403 2188 3153 
z
M 3391 1181 
Q 2853 2041 2028 2381 
Q 1297 2044 1297 1434 
Q 1297 1100 1526 895 
Q 1756 691 2128 691 
Q 2822 691 3391 1181 
z
" transform="scale(0.015625)"/>
      <path id="MicrosoftYaHei-Bold-49" d="M 1588 4841 
L 1588 0 
L 556 0 
L 556 4841 
L 1588 4841 
z
" transform="scale(0.015625)"/>
      <path id="MicrosoftYaHei-Bold-6d" d="M 5881 0 
L 4875 0 
L 4875 1972 
Q 4875 2766 4297 2766 
Q 4028 2766 3850 2525 
Q 3672 2284 3672 1938 
L 3672 0 
L 2666 0 
L 2666 1997 
Q 2666 2766 2094 2766 
Q 1809 2766 1639 2536 
Q 1469 2306 1469 1928 
L 1469 0 
L 459 0 
L 459 3456 
L 1469 3456 
L 1469 2916 
L 1481 2916 
Q 1663 3213 1963 3377 
Q 2263 3541 2594 3541 
Q 3322 3541 3591 2888 
Q 3991 3541 4753 3541 
Q 5881 3541 5881 2147 
L 5881 0 
z
" transform="scale(0.015625)"/>
      <path id="MicrosoftYaHei-Bold-61" d="M 544 3247 
Q 778 3378 1170 3459 
Q 1563 3541 1841 3541 
Q 3291 3541 3291 2088 
L 3291 0 
L 2331 0 
L 2331 503 
L 2319 503 
Q 1966 -84 1284 -84 
Q 794 -84 498 195 
Q 203 475 203 956 
Q 203 1950 1388 2113 
L 2338 2241 
Q 2338 2844 1709 2844 
Q 1091 2844 544 2469 
L 544 3247 
z
M 1684 1566 
Q 1138 1494 1138 1072 
Q 1138 878 1270 759 
Q 1403 641 1628 641 
Q 1938 641 2138 859 
Q 2338 1078 2338 1403 
L 2338 1650 
L 1684 1566 
z
" transform="scale(0.015625)"/>
      <path id="MicrosoftYaHei-Bold-67" d="M 3800 381 
Q 3800 -581 3251 -1101 
Q 2703 -1622 1672 -1622 
Q 972 -1622 559 -1422 
L 559 -559 
Q 1097 -872 1644 -872 
Q 2184 -872 2489 -583 
Q 2794 -294 2794 219 
L 2794 506 
L 2778 506 
Q 2413 -84 1691 -84 
Q 1038 -84 645 381 
Q 253 847 253 1628 
Q 253 2500 686 3020 
Q 1119 3541 1822 3541 
Q 2459 3541 2778 3044 
L 2794 3044 
L 2794 3456 
L 3800 3456 
L 3800 381 
z
M 2803 1950 
Q 2803 2294 2595 2530 
Q 2388 2766 2072 2766 
Q 1703 2766 1489 2477 
Q 1275 2188 1275 1666 
Q 1275 1213 1481 952 
Q 1688 691 2028 691 
Q 2372 691 2587 956 
Q 2803 1222 2803 1647 
L 2803 1950 
z
" transform="scale(0.015625)"/>
      <path id="MicrosoftYaHei-Bold-6e" d="M 3744 0 
L 2741 0 
L 2741 1928 
Q 2741 2766 2138 2766 
Q 1850 2766 1659 2542 
Q 1469 2319 1469 1972 
L 1469 0 
L 459 0 
L 459 3456 
L 1469 3456 
L 1469 2906 
L 1481 2906 
Q 1859 3541 2594 3541 
Q 3744 3541 3744 2116 
L 3744 0 
z
" transform="scale(0.015625)"/>
      <path id="MicrosoftYaHei-Bold-50" d="M 1591 1688 
L 1591 0 
L 559 0 
L 559 4841 
L 2225 4841 
Q 4031 4841 4031 3309 
Q 4031 2566 3486 2117 
Q 2941 1669 2122 1688 
L 1591 1688 
z
M 1591 4041 
L 1591 2478 
L 2038 2478 
Q 2947 2478 2947 3269 
Q 2947 4041 2047 4041 
L 1591 4041 
z
" transform="scale(0.015625)"/>
      <path id="MicrosoftYaHei-Bold-6c" d="M 444 0 
L 444 5116 
L 1450 5116 
L 1450 0 
L 444 0 
z
" transform="scale(0.015625)"/>
     </defs>
     <use xlink:href="#MicrosoftYaHei-Bold-4d"/>
     <use xlink:href="#MicrosoftYaHei-Bold-69" transform="translate(102.832031 0)"/>
     <use xlink:href="#MicrosoftYaHei-Bold-63" transform="translate(132.421875 0)"/>
     <use xlink:href="#MicrosoftYaHei-Bold-72" transform="translate(184.082031 0)"/>
     <use xlink:href="#MicrosoftYaHei-Bold-6f" transform="translate(225.964844 0)"/>
     <use xlink:href="#MicrosoftYaHei-Bold-73" transform="translate(291.6875 0)"/>
     <use xlink:href="#MicrosoftYaHei-Bold-63" transform="translate(341.052734 0)"/>
     <use xlink:href="#MicrosoftYaHei-Bold-6f" transform="translate(392.712891 0)"/>
     <use xlink:href="#MicrosoftYaHei-Bold-70" transform="translate(458.435547 0)"/>
     <use xlink:href="#MicrosoftYaHei-Bold-65" transform="translate(525.037109 0)"/>
     <use xlink:href="#MicrosoftYaHei-Bold-3a" transform="translate(583.240234 0)"/>
     <use xlink:href="#MicrosoftYaHei-Bold-20" transform="translate(611.804688 0)"/>
     <use xlink:href="#MicrosoftYaHei-Bold-53" transform="translate(641.589844 0)"/>
     <use xlink:href="#MicrosoftYaHei-Bold-74" transform="translate(698.996094 0)"/>
     <use xlink:href="#MicrosoftYaHei-Bold-72" transform="translate(740.402344 0)"/>
     <use xlink:href="#MicrosoftYaHei-Bold-75" transform="translate(783.035156 0)"/>
     <use xlink:href="#MicrosoftYaHei-Bold-63" transform="translate(847.830078 0)"/>
     <use xlink:href="#MicrosoftYaHei-Bold-74" transform="translate(899.490234 0)"/>
     <use xlink:href="#MicrosoftYaHei-Bold-75" transform="translate(940.896484 0)"/>
     <use xlink:href="#MicrosoftYaHei-Bold-72" transform="translate(1005.691406 0)"/>
     <use xlink:href="#MicrosoftYaHei-Bold-65" transform="translate(1047.574219 0)"/>
     <use xlink:href="#MicrosoftYaHei-Bold-20" transform="translate(1105.777344 0)"/>
     <use xlink:href="#MicrosoftYaHei-Bold-26" transform="translate(1135.5625 0)"/>
     <use xlink:href="#MicrosoftYaHei-Bold-20" transform="translate(1226.675781 0)"/>
     <use xlink:href="#MicrosoftYaHei-Bold-49" transform="translate(1256.460938 0)"/>
     <use xlink:href="#MicrosoftYaHei-Bold-6d" transform="translate(1290.005859 0)"/>
     <use xlink:href="#MicrosoftYaHei-Bold-61" transform="translate(1388.199219 0)"/>
     <use xlink:href="#MicrosoftYaHei-Bold-67" transform="translate(1445.962891 0)"/>
     <use xlink:href="#MicrosoftYaHei-Bold-69" transform="translate(1512.417969 0)"/>
     <use xlink:href="#MicrosoftYaHei-Bold-6e" transform="translate(1542.007812 0)"/>
     <use xlink:href="#MicrosoftYaHei-Bold-67" transform="translate(1606.802734 0)"/>
     <use xlink:href="#MicrosoftYaHei-Bold-20" transform="translate(1673.257812 0)"/>
     <use xlink:href="#MicrosoftYaHei-Bold-50" transform="translate(1703.042969 0)"/>
     <use xlink:href="#MicrosoftYaHei-Bold-72" transform="translate(1768.765625 0)"/>
     <use xlink:href="#MicrosoftYaHei-Bold-69" transform="translate(1811.523438 0)"/>
     <use xlink:href="#MicrosoftYaHei-Bold-6e" transform="translate(1841.113281 0)"/>
     <use xlink:href="#MicrosoftYaHei-Bold-63" transform="translate(1905.908203 0)"/>
     <use xlink:href="#MicrosoftYaHei-Bold-69" transform="translate(1957.568359 0)"/>
     <use xlink:href="#MicrosoftYaHei-Bold-70" transform="translate(1987.158203 0)"/>
     <use xlink:href="#MicrosoftYaHei-Bold-6c" transform="translate(2053.759766 0)"/>
     <use xlink:href="#MicrosoftYaHei-Bold-65" transform="translate(2083.349609 0)"/>
     <use xlink:href="#MicrosoftYaHei-Bold-73" transform="translate(2141.552734 0)"/>
    </g>
   </g>
  </g>
 </g>
 <defs>
  <clipPath id="p69c9938bb4">
   <rect x="7.2" y="22.591875" width="410.4" height="467.32"/>
  </clipPath>
 </defs>
</svg>
