<?xml version="1.0" encoding="utf-8" standalone="no"?>
<svg xmlns:xlink="http://www.w3.org/1999/xlink" width="496.608pt" height="275.36pt" viewBox="0 0 496.608 275.36" xmlns="http://www.w3.org/2000/svg" version="1.1">
<defs><style type="text/css">*{stroke-linejoin:round;stroke-linecap:butt}</style>

  <style type="text/css">*{stroke-linejoin: round; stroke-linecap: butt}</style>
 

  <style type="text/css">*{stroke-linejoin: round; stroke-linecap: butt}</style>
 
</defs>
<text x="128.184" y="22" text-anchor="middle" font-size="16" font-weight="bold" font-family="Microsoft YaHei, sans-serif" fill="#333">串联电路</text>
<text x="391.488" y="22" text-anchor="middle" font-size="16" font-weight="bold" font-family="Microsoft YaHei, sans-serif" fill="#333">并联电路</text>
<g transform="translate(0, 40)">
<g id="patch_1">
   <path d="M 0 225.36 
L 256.368 225.36 
L 256.368 0 
L 0 0 
L 0 225.36 
z
" style="fill: none"/>
  </g>
  <g id="axes_1">
   <g id="patch_2">
    <path d="M 220.68 202.68 
C 225.453656 202.68 230.032438 200.783406 233.407922 197.407922 
C 236.783406 194.032438 238.68 189.453656 238.68 184.68 
C 238.68 179.906344 236.783406 175.327562 233.407922 171.952078 
C 230.032438 168.576594 225.453656 166.68 220.68 166.68 
C 215.906344 166.68 211.327562 168.576594 207.952078 171.952078 
C 204.576594 175.327562 202.68 179.906344 202.68 184.68 
C 202.68 189.453656 204.576594 194.032438 207.952078 197.407922 
C 211.327562 200.783406 215.906344 202.68 220.68 202.68 
L 220.68 202.68 
z
" clip-path="url(#p75bf0127d2)" style="fill: none; stroke: #000000; stroke-width: 2; stroke-linejoin: miter"/>
   </g>
   <g id="line2d_1">
    <path d="M 220.68 220.68 
L 220.68 202.68 
L 220.68 202.68 
M 220.68 166.68 
L 220.68 166.68 
L 220.68 148.68 
" clip-path="url(#p75bf0127d2)" style="fill: none; stroke: #000000; stroke-width: 2; stroke-linecap: round"/>
   </g>
   <g id="line2d_2">
    <path d="M 217.08 175.68 
L 224.28 175.68 
" clip-path="url(#p75bf0127d2)" style="fill: none; stroke: #000000; stroke-width: 2; stroke-linecap: round"/>
   </g>
   <g id="line2d_3">
    <path d="M 220.68 197.28 
L 220.68 190.08 
" clip-path="url(#p75bf0127d2)" style="fill: none; stroke: #000000; stroke-width: 2; stroke-linecap: round"/>
   </g>
   <g id="line2d_4">
    <path d="M 217.08 193.68 
L 224.28 193.68 
" clip-path="url(#p75bf0127d2)" style="fill: none; stroke: #000000; stroke-width: 2; stroke-linecap: round"/>
   </g>
   <g id="line2d_5">
    <path d="M 220.68 148.68 
L 220.68 130.68 
L 211.68 127.68 
L 229.68 121.68 
L 211.68 115.68 
L 229.68 109.68 
L 211.68 103.68 
L 229.68 97.68 
L 220.68 94.68 
L 220.68 76.68 
" clip-path="url(#p75bf0127d2)" style="fill: none; stroke: #000000; stroke-width: 2; stroke-linecap: round"/>
   </g>
   <g id="line2d_6">
    <path d="M 220.68 76.68 
L 220.68 58.68 
L 211.68 55.68 
L 229.68 49.68 
L 211.68 43.68 
L 229.68 37.68 
L 211.68 31.68 
L 229.68 25.68 
L 220.68 22.68 
L 220.68 4.68 
" clip-path="url(#p75bf0127d2)" style="fill: none; stroke: #000000; stroke-width: 2; stroke-linecap: round"/>
   </g>
   <g id="line2d_7">
    <path d="M 220.68 4.68 
L 220.68 40.68 
L 220.68 76.68 
" clip-path="url(#p75bf0127d2)" style="fill: none; stroke: #000000; stroke-width: 2; stroke-linecap: round"/>
   </g>
   <g id="line2d_8">
    <path d="M 220.68 76.68 
L 112.68 76.68 
L 4.68 76.68 
" clip-path="url(#p75bf0127d2)" style="fill: none; stroke: #000000; stroke-width: 2; stroke-linecap: round"/>
   </g>
   <g id="line2d_9">
    <path d="M 4.68 76.68 
L 4.68 40.68 
L 4.68 4.68 
" clip-path="url(#p75bf0127d2)" style="fill: none; stroke: #000000; stroke-width: 2; stroke-linecap: round"/>
   </g>
   <g id="text_1">
    <!-- E -->
    <g transform="translate(242.28 188.543125) scale(0.14 -0.14)">
     <defs>
      <path id="DejaVuSans-45" d="M 628 4666 
L 3578 4666 
L 3578 4134 
L 1259 4134 
L 1259 2753 
L 3481 2753 
L 3481 2222 
L 1259 2222 
L 1259 531 
L 3634 531 
L 3634 0 
L 628 0 
L 628 4666 
z
" transform="scale(0.015625)"/>
     </defs>
     <use xlink:href="#DejaVuSans-45"/>
    </g>
   </g>
   <g id="text_2">
    <!-- R₁ -->
    <g transform="translate(233.28 116.543125) scale(0.14 -0.14)">
     <defs>
      <path id="DejaVuSans-52" d="M 2841 2188 
Q 3044 2119 3236 1894 
Q 3428 1669 3622 1275 
L 4263 0 
L 3584 0 
L 2988 1197 
Q 2756 1666 2539 1819 
Q 2322 1972 1947 1972 
L 1259 1972 
L 1259 0 
L 628 0 
L 628 4666 
L 2053 4666 
Q 2853 4666 3247 4331 
Q 3641 3997 3641 3322 
Q 3641 2881 3436 2590 
Q 3231 2300 2841 2188 
z
M 1259 4147 
L 1259 2491 
L 2053 2491 
Q 2509 2491 2742 2702 
Q 2975 2913 2975 3322 
Q 2975 3731 2742 3939 
Q 2509 4147 2053 4147 
L 1259 4147 
z
" transform="scale(0.015625)"/>
      <path id="DejaVuSans-2081" d="M 488 319 
L 1125 319 
L 1125 2229 
L 428 2101 
L 428 2463 
L 1147 2585 
L 1575 2585 
L 1575 319 
L 2216 319 
L 2216 -24 
L 488 -24 
L 488 319 
z
" transform="scale(0.015625)"/>
     </defs>
     <use xlink:href="#DejaVuSans-52"/>
     <use xlink:href="#DejaVuSans-2081" transform="translate(69.482422 0)"/>
    </g>
   </g>
   <g id="text_3">
    <!-- R₂ -->
    <g transform="translate(233.28 44.543125) scale(0.14 -0.14)">
     <defs>
      <path id="DejaVuSans-2082" d="M 838 332 
L 2163 332 
L 2163 -24 
L 294 -24 
L 294 319 
Q 400 416 597 591 
Q 1672 1544 1672 1838 
Q 1672 2044 1509 2170 
Q 1347 2297 1081 2297 
Q 919 2297 728 2242 
Q 538 2188 313 2079 
L 313 2463 
Q 553 2551 761 2594 
Q 969 2638 1147 2638 
Q 1600 2638 1872 2432 
Q 2144 2226 2144 1888 
Q 2144 1454 1109 566 
Q 934 416 838 332 
z
" transform="scale(0.015625)"/>
     </defs>
     <use xlink:href="#DejaVuSans-52"/>
     <use xlink:href="#DejaVuSans-2082" transform="translate(69.482422 0)"/>
    </g>
   </g>
  </g>
</g>
<g transform="translate(286.368, 40)">
<g id="patch_1">
   <path d="M 0 207.36 
L 210.24 207.36 
L 210.24 0 
L 0 0 
L 0 207.36 
z
" style="fill: none"/>
  </g>
  <g id="axes_1">
   <g id="patch_2">
    <path d="M 58.68 184.68 
C 63.453656 184.68 68.032438 182.783406 71.407922 179.407922 
C 74.783406 176.032438 76.68 171.453656 76.68 166.68 
C 76.68 161.906344 74.783406 157.327562 71.407922 153.952078 
C 68.032438 150.576594 63.453656 148.68 58.68 148.68 
C 53.906344 148.68 49.327562 150.576594 45.952078 153.952078 
C 42.576594 157.327562 40.68 161.906344 40.68 166.68 
C 40.68 171.453656 42.576594 176.032438 45.952078 179.407922 
C 49.327562 182.783406 53.906344 184.68 58.68 184.68 
L 58.68 184.68 
z
" clip-path="url(#pb74275bbb8)" style="fill: none; stroke: #000000; stroke-width: 2; stroke-linejoin: miter"/>
   </g>
   <g id="line2d_1">
    <path d="M 58.68 202.68 
L 58.68 184.68 
L 58.68 184.68 
M 58.68 148.68 
L 58.68 148.68 
L 58.68 130.68 
" clip-path="url(#pb74275bbb8)" style="fill: none; stroke: #000000; stroke-width: 2; stroke-linecap: round"/>
   </g>
   <g id="line2d_2">
    <path d="M 55.08 157.68 
L 62.28 157.68 
" clip-path="url(#pb74275bbb8)" style="fill: none; stroke: #000000; stroke-width: 2; stroke-linecap: round"/>
   </g>
   <g id="line2d_3">
    <path d="M 58.68 179.28 
L 58.68 172.08 
" clip-path="url(#pb74275bbb8)" style="fill: none; stroke: #000000; stroke-width: 2; stroke-linecap: round"/>
   </g>
   <g id="line2d_4">
    <path d="M 55.08 175.68 
L 62.28 175.68 
" clip-path="url(#pb74275bbb8)" style="fill: none; stroke: #000000; stroke-width: 2; stroke-linecap: round"/>
   </g>
   <g id="line2d_5">
    <path d="M 58.68 130.68 
L 94.68 130.68 
L 130.68 130.68 
" clip-path="url(#pb74275bbb8)" style="fill: none; stroke: #000000; stroke-width: 2; stroke-linecap: round"/>
   </g>
   <g id="line2d_6">
    <path d="M 130.68 130.68 
L 148.68 130.68 
L 151.68 121.68 
L 157.68 139.68 
L 163.68 121.68 
L 169.68 139.68 
L 175.68 121.68 
L 181.68 139.68 
L 184.68 130.68 
L 202.68 130.68 
" clip-path="url(#pb74275bbb8)" style="fill: none; stroke: #000000; stroke-width: 2; stroke-linecap: round"/>
   </g>
   <g id="line2d_7">
    <path d="M 130.68 130.68 
L 130.68 103.68 
L 130.68 76.68 
" clip-path="url(#pb74275bbb8)" style="fill: none; stroke: #000000; stroke-width: 2; stroke-linecap: round"/>
   </g>
   <g id="line2d_8">
    <path d="M 130.68 76.68 
L 130.68 58.68 
L 121.68 55.68 
L 139.68 49.68 
L 121.68 43.68 
L 139.68 37.68 
L 121.68 31.68 
L 139.68 25.68 
L 130.68 22.68 
L 130.68 4.68 
" clip-path="url(#pb74275bbb8)" style="fill: none; stroke: #000000; stroke-width: 2; stroke-linecap: round"/>
   </g>
   <g id="line2d_9">
    <path d="M 130.68 4.68 
L 130.68 31.68 
L 130.68 58.68 
" clip-path="url(#pb74275bbb8)" style="fill: none; stroke: #000000; stroke-width: 2; stroke-linecap: round"/>
   </g>
   <g id="line2d_10">
    <path d="M 130.68 58.68 
L 139.68 58.68 
L 148.68 58.68 
" clip-path="url(#pb74275bbb8)" style="fill: none; stroke: #000000; stroke-width: 2; stroke-linecap: round"/>
   </g>
   <g id="line2d_11">
    <path d="M 148.68 58.68 
L 148.68 72.18 
L 148.68 85.68 
" clip-path="url(#pb74275bbb8)" style="fill: none; stroke: #000000; stroke-width: 2; stroke-linecap: round"/>
   </g>
   <g id="line2d_12">
    <path d="M 148.68 85.68 
L 76.68 85.68 
L 4.68 85.68 
" clip-path="url(#pb74275bbb8)" style="fill: none; stroke: #000000; stroke-width: 2; stroke-linecap: round"/>
   </g>
   <g id="line2d_13">
    <path d="M 4.68 85.68 
L 4.68 72.18 
L 4.68 58.68 
" clip-path="url(#pb74275bbb8)" style="fill: none; stroke: #000000; stroke-width: 2; stroke-linecap: round"/>
   </g>
   <g id="text_1">
    <!-- E -->
    <g transform="translate(80.28 170.543125) scale(0.14 -0.14)">
     <defs>
      <path id="DejaVuSans-45" d="M 628 4666 
L 3578 4666 
L 3578 4134 
L 1259 4134 
L 1259 2753 
L 3481 2753 
L 3481 2222 
L 1259 2222 
L 1259 531 
L 3634 531 
L 3634 0 
L 628 0 
L 628 4666 
z
" transform="scale(0.015625)"/>
     </defs>
     <use xlink:href="#DejaVuSans-45"/>
    </g>
   </g>
   <g id="text_2">
    <!-- R₂ -->
    <g transform="translate(159.009531 153.917812) scale(0.14 -0.14)">
     <defs>
      <path id="DejaVuSans-52" d="M 2841 2188 
Q 3044 2119 3236 1894 
Q 3428 1669 3622 1275 
L 4263 0 
L 3584 0 
L 2988 1197 
Q 2756 1666 2539 1819 
Q 2322 1972 1947 1972 
L 1259 1972 
L 1259 0 
L 628 0 
L 628 4666 
L 2053 4666 
Q 2853 4666 3247 4331 
Q 3641 3997 3641 3322 
Q 3641 2881 3436 2590 
Q 3231 2300 2841 2188 
z
M 1259 4147 
L 1259 2491 
L 2053 2491 
Q 2509 2491 2742 2702 
Q 2975 2913 2975 3322 
Q 2975 3731 2742 3939 
Q 2509 4147 2053 4147 
L 1259 4147 
z
" transform="scale(0.015625)"/>
      <path id="DejaVuSans-2082" d="M 838 332 
L 2163 332 
L 2163 -24 
L 294 -24 
L 294 319 
Q 400 416 597 591 
Q 1672 1544 1672 1838 
Q 1672 2044 1509 2170 
Q 1347 2297 1081 2297 
Q 919 2297 728 2242 
Q 538 2188 313 2079 
L 313 2463 
Q 553 2551 761 2594 
Q 969 2638 1147 2638 
Q 1600 2638 1872 2432 
Q 2144 2226 2144 1888 
Q 2144 1454 1109 566 
Q 934 416 838 332 
z
" transform="scale(0.015625)"/>
     </defs>
     <use xlink:href="#DejaVuSans-52"/>
     <use xlink:href="#DejaVuSans-2082" transform="translate(69.482422 0)"/>
    </g>
   </g>
   <g id="text_3">
    <!-- R₁ -->
    <g transform="translate(143.28 44.543125) scale(0.14 -0.14)">
     <defs>
      <path id="DejaVuSans-2081" d="M 488 319 
L 1125 319 
L 1125 2229 
L 428 2101 
L 428 2463 
L 1147 2585 
L 1575 2585 
L 1575 319 
L 2216 319 
L 2216 -24 
L 488 -24 
L 488 319 
z
" transform="scale(0.015625)"/>
     </defs>
     <use xlink:href="#DejaVuSans-52"/>
     <use xlink:href="#DejaVuSans-2081" transform="translate(69.482422 0)"/>
    </g>
   </g>
   <g id="patch_3">
    <path d="M 130.68 133.56 
C 131.443785 133.56 132.17639 133.256545 132.716468 132.716468 
C 133.256545 132.17639 133.56 131.443785 133.56 130.68 
C 133.56 129.916215 133.256545 129.18361 132.716468 128.643532 
C 132.17639 128.103455 131.443785 127.8 130.68 127.8 
C 129.916215 127.8 129.18361 128.103455 128.643532 128.643532 
C 128.103455 129.18361 127.8 129.916215 127.8 130.68 
C 127.8 131.443785 128.103455 132.17639 128.643532 132.716468 
C 129.18361 133.256545 129.916215 133.56 130.68 133.56 
z
" clip-path="url(#pb74275bbb8)" style="stroke: #000000; stroke-width: 2; stroke-linejoin: miter"/>
   </g>
   <g id="patch_4">
    <path d="M 202.68 133.56 
C 203.443785 133.56 204.17639 133.256545 204.716468 132.716468 
C 205.256545 132.17639 205.56 131.443785 205.56 130.68 
C 205.56 129.916215 205.256545 129.18361 204.716468 128.643532 
C 204.17639 128.103455 203.443785 127.8 202.68 127.8 
C 201.916215 127.8 201.18361 128.103455 200.643532 128.643532 
C 200.103455 129.18361 199.8 129.916215 199.8 130.68 
C 199.8 131.443785 200.103455 132.17639 200.643532 132.716468 
C 201.18361 133.256545 201.916215 133.56 202.68 133.56 
z
" clip-path="url(#pb74275bbb8)" style="stroke: #000000; stroke-width: 2; stroke-linejoin: miter"/>
   </g>
   <g id="patch_5">
    <path d="M 130.68 61.56 
C 131.443785 61.56 132.17639 61.256545 132.716468 60.716468 
C 133.256545 60.17639 133.56 59.443785 133.56 58.68 
C 133.56 57.916215 133.256545 57.18361 132.716468 56.643532 
C 132.17639 56.103455 131.443785 55.8 130.68 55.8 
C 129.916215 55.8 129.18361 56.103455 128.643532 56.643532 
C 128.103455 57.18361 127.8 57.916215 127.8 58.68 
C 127.8 59.443785 128.103455 60.17639 128.643532 60.716468 
C 129.18361 61.256545 129.916215 61.56 130.68 61.56 
z
" clip-path="url(#pb74275bbb8)" style="stroke: #000000; stroke-width: 2; stroke-linejoin: miter"/>
   </g>
  </g>
</g>
</svg>