<?xml version="1.0" encoding="utf-8" standalone="no"?>
<!DOCTYPE svg PUBLIC "-//W3C//DTD SVG 1.1//EN"
  "http://www.w3.org/Graphics/SVG/1.1/DTD/svg11.dtd">
<svg xmlns:xlink="http://www.w3.org/1999/xlink" width="349.2pt" height="367.143431pt" viewBox="0 0 349.2 367.143431" xmlns="http://www.w3.org/2000/svg" version="1.1">
 <metadata>
  <rdf:RDF xmlns:dc="http://purl.org/dc/elements/1.1/" xmlns:cc="http://creativecommons.org/ns#" xmlns:rdf="http://www.w3.org/1999/02/22-rdf-syntax-ns#">
   <cc:Work>
    <dc:type rdf:resource="http://purl.org/dc/dcmitype/StillImage"/>
    <dc:date>2026-05-25T22:58:36.721392</dc:date>
    <dc:format>image/svg+xml</dc:format>
    <dc:creator>
     <cc:Agent>
      <dc:title>Matplotlib v3.10.9, https://matplotlib.org/</dc:title>
     </cc:Agent>
    </dc:creator>
   </cc:Work>
  </rdf:RDF>
 </metadata>
 <defs>
  <style type="text/css">*{stroke-linejoin: round; stroke-linecap: butt}</style>
 </defs>
 <g id="figure_1">
  <g id="patch_1">
   <path d="M 0 367.143431 
L 349.2 367.143431 
L 349.2 0 
L 0 0 
z
" style="fill: #ffffff"/>
  </g>
  <g id="axes_1">
   <g id="patch_2">
    <path d="M 191.34 175.251275 
L 251.604 175.251275 
Q 254.952 175.251275 254.952 171.924875 
L 254.952 122.028875 
Q 254.952 118.702475 251.604 118.702475 
L 191.34 118.702475 
Q 187.992 118.702475 187.992 122.028875 
L 187.992 171.924875 
Q 187.992 175.251275 191.34 175.251275 
z
" clip-path="url(#pae1557f797)" style="fill: #e74c3c; opacity: 0.2; stroke: #e74c3c; stroke-width: 2; stroke-linejoin: miter"/>
   </g>
   <g id="patch_3">
    <path d="M 191.34 251.758475 
L 251.604 251.758475 
Q 254.952 251.758475 254.952 248.432075 
L 254.952 198.536075 
Q 254.952 195.209675 251.604 195.209675 
L 191.34 195.209675 
Q 187.992 195.209675 187.992 198.536075 
L 187.992 248.432075 
Q 187.992 251.758475 191.34 251.758475 
z
" clip-path="url(#pae1557f797)" style="fill: #e74c3c; opacity: 0.15; stroke: #e74c3c; stroke-width: 2; stroke-linejoin: miter"/>
   </g>
   <g id="patch_4">
    <path d="M 90.9 175.251275 
L 151.164 175.251275 
Q 154.512 175.251275 154.512 171.924875 
L 154.512 122.028875 
Q 154.512 118.702475 151.164 118.702475 
L 90.9 118.702475 
Q 87.552 118.702475 87.552 122.028875 
L 87.552 171.924875 
Q 87.552 175.251275 90.9 175.251275 
z
" clip-path="url(#pae1557f797)" style="fill: #3498db; opacity: 0.2; stroke: #3498db; stroke-width: 2; stroke-linejoin: miter"/>
   </g>
   <g id="patch_5">
    <path d="M 90.9 251.758475 
L 151.164 251.758475 
Q 154.512 251.758475 154.512 248.432075 
L 154.512 198.536075 
Q 154.512 195.209675 151.164 195.209675 
L 90.9 195.209675 
Q 87.552 195.209675 87.552 198.536075 
L 87.552 248.432075 
Q 87.552 251.758475 90.9 251.758475 
z
" clip-path="url(#pae1557f797)" style="fill: #3498db; opacity: 0.15; stroke: #3498db; stroke-width: 2; stroke-linejoin: miter"/>
   </g>
   <g id="patch_6">
    <path d="M 224.82 93.754475 
L 291.78 93.754475 
Q 296.802 93.754475 296.802 88.764875 
L 296.802 38.868875 
Q 296.802 33.879275 291.78 33.879275 
L 224.82 33.879275 
Q 219.798 33.879275 219.798 38.868875 
L 219.798 88.764875 
Q 219.798 93.754475 224.82 93.754475 
z
" clip-path="url(#pae1557f797)" style="fill: #e67e22; opacity: 0.15; stroke: #e67e22; stroke-width: 2; stroke-linejoin: miter"/>
   </g>
   <g id="patch_7">
    <path d="M 23.94 343.234475 
L 124.38 343.234475 
Q 129.402 343.234475 129.402 338.244875 
L 129.402 298.328075 
Q 129.402 293.338475 124.38 293.338475 
L 23.94 293.338475 
Q 18.918 293.338475 18.918 298.328075 
L 18.918 338.244875 
Q 18.918 343.234475 23.94 343.234475 
z
" clip-path="url(#pae1557f797)" style="fill: #9b59b6; opacity: 0.1; stroke: #9b59b6; stroke-width: 2; stroke-linejoin: miter"/>
   </g>
   <g id="line2d_1">
    <defs>
     <path id="m2dd8f403b6" d="M -4 4 
L 4 4 
L 4 -4 
L -4 -4 
z
" style="stroke: #e74c3c; stroke-linejoin: miter"/>
    </defs>
    <g clip-path="url(#pae1557f797)">
     <use xlink:href="#m2dd8f403b6" x="23.94" y="38.868875" style="fill: #e74c3c; stroke: #e74c3c; stroke-linejoin: miter"/>
    </g>
   </g>
   <g id="line2d_2">
    <defs>
     <path id="mf8463bab19" d="M -4 4 
L 4 4 
L 4 -4 
L -4 -4 
z
" style="stroke: #3498db; stroke-linejoin: miter"/>
    </defs>
    <g clip-path="url(#pae1557f797)">
     <use xlink:href="#mf8463bab19" x="23.94" y="55.500875" style="fill: #3498db; stroke: #3498db; stroke-linejoin: miter"/>
    </g>
   </g>
   <g id="text_1">
    <!-- 右心房 -->
    <g style="fill: #e74c3c" transform="translate(209.472 148.640075) scale(0.08 -0.08)">
     <defs>
      <path id="MicrosoftYaHei-Bold-53f3" d="M 1425 -822 
L 1425 1591 
Q 941 1069 375 616 
Q 250 1234 144 1597 
Q 1244 2531 1913 3653 
L 213 3653 
L 213 4491 
L 2341 4491 
Q 2513 4894 2638 5316 
L 3563 5191 
Q 3438 4831 3291 4491 
L 6188 4491 
L 6188 3653 
L 2888 3653 
Q 2622 3150 2303 2691 
L 5738 2691 
L 5738 -809 
L 4850 -809 
L 4850 -434 
L 2313 -434 
L 2313 -822 
L 1425 -822 
z
M 4850 1866 
L 2313 1866 
L 2313 391 
L 4850 391 
L 4850 1866 
z
" transform="scale(0.015625)"/>
      <path id="MicrosoftYaHei-Bold-5fc3" d="M 3138 5359 
Q 3681 4672 4306 3734 
L 3475 3222 
Q 2944 4178 2419 4916 
L 3138 5359 
z
M 4300 1403 
Q 4863 1172 5244 1047 
Q 5200 750 5083 251 
Q 4966 -247 4806 -394 
Q 4647 -541 4408 -612 
Q 4169 -684 3831 -684 
L 2806 -684 
Q 1756 -684 1756 378 
L 1756 3978 
L 2681 3978 
L 2681 666 
Q 2681 128 3238 128 
L 3556 128 
Q 3838 128 3994 223 
Q 4150 319 4187 501 
Q 4225 684 4300 1403 
z
M 769 3547 
L 1625 3353 
Q 1356 1866 925 597 
L 94 903 
Q 450 2041 769 3547 
z
M 5450 3447 
Q 5950 2422 6325 1391 
L 5463 1034 
Q 5113 2053 4619 3109 
L 5450 3447 
z
" transform="scale(0.015625)"/>
      <path id="MicrosoftYaHei-Bold-623f" d="M 6288 1791 
L 3353 1791 
Q 3347 1622 3328 1466 
L 5694 1466 
Q 5681 947 5629 337 
Q 5578 -272 5367 -483 
Q 5156 -694 4929 -739 
Q 4703 -784 3675 -784 
Q 3613 -416 3463 84 
Q 3822 53 4191 53 
Q 4466 53 4561 92 
Q 4656 131 4703 256 
Q 4750 381 4769 778 
L 3194 778 
Q 2875 -313 1950 -891 
Q 1744 -666 1288 -234 
Q 2375 369 2475 1791 
L 1550 1791 
Q 1434 138 794 -803 
L 94 -91 
Q 694 741 694 2547 
L 694 4828 
L 2884 4828 
Q 2778 5069 2694 5247 
L 3738 5359 
Q 3828 5144 3938 4828 
L 5975 4828 
L 5975 2966 
L 4125 2966 
Q 4203 2766 4303 2491 
L 6288 2491 
L 6288 1791 
z
M 5094 3659 
L 5094 4134 
L 1575 4134 
L 1575 3659 
L 5094 3659 
z
M 3063 2847 
L 3797 2966 
L 1575 2966 
L 1575 2491 
L 3247 2491 
Q 3153 2688 3063 2847 
z
" transform="scale(0.015625)"/>
     </defs>
     <use xlink:href="#MicrosoftYaHei-Bold-53f3"/>
     <use xlink:href="#MicrosoftYaHei-Bold-5fc3" transform="translate(100 0)"/>
     <use xlink:href="#MicrosoftYaHei-Bold-623f" transform="translate(200 0)"/>
    </g>
   </g>
   <g id="text_2">
    <!-- 右心室 -->
    <g style="fill: #e74c3c" transform="translate(209.472 225.147275) scale(0.08 -0.08)">
     <defs>
      <path id="MicrosoftYaHei-Bold-5ba4" d="M 269 3266 
L 269 4772 
L 2738 4772 
Q 2619 5034 2531 5228 
L 3619 5341 
Q 3713 5109 3831 4772 
L 6144 4772 
L 6144 3266 
L 5375 3266 
L 5375 4059 
L 1038 4059 
L 1038 3266 
L 269 3266 
z
M 3731 2822 
L 4000 3009 
L 3050 3009 
Q 2606 2703 2144 2391 
Q 3206 2416 4306 2447 
Q 4019 2634 3731 2822 
z
M 5175 3684 
L 5175 3009 
L 4644 3009 
Q 5256 2641 6088 2134 
L 5625 1553 
Q 5419 1691 5219 1834 
Q 4413 1809 3656 1791 
L 3656 1353 
L 5769 1353 
L 5769 591 
L 3656 591 
L 3656 166 
L 6163 166 
L 6163 -622 
L 256 -622 
L 256 166 
L 2750 166 
L 2750 591 
L 644 591 
L 644 1353 
L 2750 1353 
L 2750 1759 
Q 1494 1734 925 1653 
L 631 2297 
Q 1119 2522 1850 3009 
L 1238 3009 
L 1238 3684 
L 5175 3684 
z
" transform="scale(0.015625)"/>
     </defs>
     <use xlink:href="#MicrosoftYaHei-Bold-53f3"/>
     <use xlink:href="#MicrosoftYaHei-Bold-5fc3" transform="translate(100 0)"/>
     <use xlink:href="#MicrosoftYaHei-Bold-5ba4" transform="translate(200 0)"/>
    </g>
   </g>
   <g id="text_3">
    <!-- 左心房 -->
    <g style="fill: #3498db" transform="translate(109.032 148.640075) scale(0.08 -0.08)">
     <defs>
      <path id="MicrosoftYaHei-Bold-5de6" d="M 1150 353 
L 3225 353 
L 3225 1816 
L 1894 1816 
Q 1344 1000 525 153 
Q 381 703 188 1128 
Q 1388 2547 1822 3628 
L 300 3628 
L 300 4466 
L 2106 4466 
Q 2222 4881 2294 5328 
L 3238 5241 
Q 3147 4834 3047 4466 
L 6250 4466 
L 6250 3628 
L 2794 3628 
Q 2575 2984 2384 2641 
L 5850 2641 
L 5850 1816 
L 4163 1816 
L 4163 353 
L 6250 353 
L 6250 -472 
L 1150 -472 
L 1150 353 
z
" transform="scale(0.015625)"/>
     </defs>
     <use xlink:href="#MicrosoftYaHei-Bold-5de6"/>
     <use xlink:href="#MicrosoftYaHei-Bold-5fc3" transform="translate(100 0)"/>
     <use xlink:href="#MicrosoftYaHei-Bold-623f" transform="translate(200 0)"/>
    </g>
   </g>
   <g id="text_4">
    <!-- 左心室 -->
    <g style="fill: #3498db" transform="translate(109.032 225.147275) scale(0.08 -0.08)">
     <use xlink:href="#MicrosoftYaHei-Bold-5de6"/>
     <use xlink:href="#MicrosoftYaHei-Bold-5fc3" transform="translate(100 0)"/>
     <use xlink:href="#MicrosoftYaHei-Bold-5ba4" transform="translate(200 0)"/>
    </g>
   </g>
   <g id="text_5">
    <!-- Heart 心脏 -->
    <g style="fill: #2c3e50" transform="translate(126.198172 88.764875) scale(0.11 -0.11)">
     <defs>
      <path id="MicrosoftYaHei-Bold-48" d="M 4684 0 
L 3653 0 
L 3653 1997 
L 1591 1997 
L 1591 0 
L 559 0 
L 559 4841 
L 1591 4841 
L 1591 2888 
L 3653 2888 
L 3653 4841 
L 4684 4841 
L 4684 0 
z
" transform="scale(0.015625)"/>
      <path id="MicrosoftYaHei-Bold-65" d="M 3528 1444 
L 1253 1444 
Q 1306 641 2222 641 
Q 2794 641 3231 922 
L 3231 181 
Q 2759 -84 1994 -84 
Q 1169 -84 711 381 
Q 253 847 253 1678 
Q 253 2506 740 3023 
Q 1228 3541 1966 3541 
Q 2700 3541 3114 3095 
Q 3528 2650 3528 1872 
L 3528 1444 
z
M 2588 2075 
Q 2588 2850 1959 2850 
Q 1700 2850 1500 2637 
Q 1300 2425 1250 2075 
L 2588 2075 
z
" transform="scale(0.015625)"/>
      <path id="MicrosoftYaHei-Bold-61" d="M 544 3247 
Q 778 3378 1170 3459 
Q 1563 3541 1841 3541 
Q 3291 3541 3291 2088 
L 3291 0 
L 2331 0 
L 2331 503 
L 2319 503 
Q 1966 -84 1284 -84 
Q 794 -84 498 195 
Q 203 475 203 956 
Q 203 1950 1388 2113 
L 2338 2241 
Q 2338 2844 1709 2844 
Q 1091 2844 544 2469 
L 544 3247 
z
M 1684 1566 
Q 1138 1494 1138 1072 
Q 1138 878 1270 759 
Q 1403 641 1628 641 
Q 1938 641 2138 859 
Q 2338 1078 2338 1403 
L 2338 1650 
L 1684 1566 
z
" transform="scale(0.015625)"/>
      <path id="MicrosoftYaHei-Bold-72" d="M 2663 2541 
Q 2478 2647 2216 2647 
Q 1872 2647 1670 2384 
Q 1469 2122 1469 1663 
L 1469 0 
L 459 0 
L 459 3456 
L 1469 3456 
L 1469 2806 
L 1481 2806 
Q 1731 3516 2391 3516 
Q 2569 3516 2663 3475 
L 2663 2541 
z
" transform="scale(0.015625)"/>
      <path id="MicrosoftYaHei-Bold-74" d="M 2494 41 
Q 2266 -84 1803 -84 
Q 703 -84 703 1072 
L 703 2703 
L 134 2703 
L 134 3456 
L 703 3456 
L 703 4216 
L 1706 4503 
L 1706 3456 
L 2494 3456 
L 2494 2703 
L 1706 2703 
L 1706 1247 
Q 1706 694 2144 694 
Q 2313 694 2494 794 
L 2494 41 
z
" transform="scale(0.015625)"/>
      <path id="MicrosoftYaHei-Bold-20" transform="scale(0.015625)"/>
      <path id="MicrosoftYaHei-Bold-810f" d="M 3588 2572 
Q 3588 413 3000 -797 
L 2341 -153 
Q 2288 -488 2084 -617 
Q 1881 -747 1181 -747 
Q 1100 -334 994 53 
Q 1144 28 1338 28 
Q 1619 28 1619 384 
L 1619 1128 
L 1084 1128 
Q 1025 -122 606 -909 
Q 294 -434 69 -153 
Q 263 331 322 959 
Q 381 1588 381 2941 
L 381 5053 
L 2356 5053 
L 2356 -53 
Q 2781 747 2775 2684 
L 2775 4666 
L 4166 4666 
Q 4072 4925 3931 5266 
L 4950 5353 
Q 5066 4991 5138 4666 
L 6275 4666 
L 6275 3878 
L 3588 3878 
L 3588 2572 
z
M 1619 4303 
L 1119 4303 
L 1119 3428 
L 1619 3428 
L 1619 4303 
z
M 1113 1841 
L 1619 1841 
L 1619 2716 
L 1119 2716 
Q 1119 2416 1113 1841 
z
M 3400 172 
L 4513 172 
L 4513 1797 
L 3725 1797 
L 3725 2566 
L 4513 2566 
L 4513 3672 
L 5350 3672 
L 5350 2566 
L 6131 2566 
L 6131 1797 
L 5350 1797 
L 5350 172 
L 6313 172 
L 6313 -603 
L 3400 -603 
L 3400 172 
z
" transform="scale(0.015625)"/>
     </defs>
     <use xlink:href="#MicrosoftYaHei-Bold-48"/>
     <use xlink:href="#MicrosoftYaHei-Bold-65" transform="translate(82.128906 0)"/>
     <use xlink:href="#MicrosoftYaHei-Bold-61" transform="translate(140.332031 0)"/>
     <use xlink:href="#MicrosoftYaHei-Bold-72" transform="translate(198.095703 0)"/>
     <use xlink:href="#MicrosoftYaHei-Bold-74" transform="translate(243.603516 0)"/>
     <use xlink:href="#MicrosoftYaHei-Bold-20" transform="translate(285.009766 0)"/>
     <use xlink:href="#MicrosoftYaHei-Bold-5fc3" transform="translate(314.794922 0)"/>
     <use xlink:href="#MicrosoftYaHei-Bold-810f" transform="translate(414.794922 0)"/>
    </g>
   </g>
   <g id="patch_8">
    <path d="M 251.604 90.762664 
Q 251.604 141.986898 251.604 190.416046 
" style="fill: none; stroke: #e74c3c; stroke-width: 2.5; stroke-linecap: round"/>
    <path d="M 253.604 186.416046 
L 251.604 190.416046 
L 249.604 186.416046 
" style="fill: none; stroke: #e74c3c; stroke-width: 2.5; stroke-linecap: round"/>
   </g>
   <g id="text_6">
    <!-- 肺（气体交换） -->
    <g style="fill: #e67e22" transform="translate(226.8 63.816875) scale(0.09 -0.09)">
     <defs>
      <path id="MicrosoftYaHei-Bold-80ba" d="M 2625 4566 
L 3988 4566 
L 3988 5266 
L 4825 5266 
L 4825 4566 
L 6275 4566 
L 6275 3791 
L 4825 3791 
L 4825 3166 
L 6100 3166 
L 6100 1028 
Q 6100 84 5431 72 
Q 5344 66 4944 66 
Q 4888 372 4825 697 
L 4825 -859 
L 3988 -859 
L 3988 2391 
L 3475 2391 
L 3475 72 
L 2744 72 
L 2744 3166 
L 3988 3166 
L 3988 3791 
L 2625 3791 
L 2625 4566 
z
M 669 -903 
Q 444 -534 81 -184 
Q 331 322 406 916 
Q 475 1503 475 2916 
L 475 5091 
L 2450 5091 
L 2450 -47 
Q 2450 -647 1988 -734 
Q 1738 -803 1269 -816 
Q 1238 -559 1063 -41 
Q 944 -491 669 -903 
z
M 5125 966 
Q 5369 966 5369 1234 
L 5369 2391 
L 4825 2391 
L 4825 978 
Q 4963 966 5125 966 
z
M 1194 1091 
Q 1163 359 1081 16 
Q 1225 -3 1438 -3 
Q 1700 -3 1694 309 
L 1694 1091 
L 1194 1091 
z
M 1219 1834 
L 1694 1834 
L 1694 2691 
L 1231 2691 
Q 1225 2222 1219 1834 
z
M 1694 4291 
L 1231 4291 
L 1231 3434 
L 1694 3434 
L 1694 4291 
z
" transform="scale(0.015625)"/>
      <path id="MicrosoftYaHei-Bold-ff08" d="M 5197 -1088 
Q 4056 184 4056 1881 
Q 4056 3616 5203 4838 
L 6034 4838 
Q 4922 3503 4922 1888 
Q 4922 266 6028 -1088 
L 5197 -1088 
z
" transform="scale(0.015625)"/>
      <path id="MicrosoftYaHei-Bold-6c14" d="M 1281 5316 
L 2238 5316 
Q 2134 5053 2006 4791 
L 5988 4791 
L 5988 4053 
L 1606 4053 
Q 1166 3328 544 2597 
Q 294 3147 81 3522 
Q 919 4459 1281 5316 
z
M 1413 3678 
L 5575 3678 
L 5575 2966 
L 1413 2966 
L 1413 3678 
z
M 738 1841 
L 738 2578 
L 5138 2578 
L 5138 1534 
Q 5138 122 5475 122 
Q 5719 122 5775 1141 
Q 6063 928 6319 822 
Q 6247 -47 6056 -444 
Q 5866 -841 5500 -841 
Q 4891 -841 4595 -292 
Q 4300 256 4300 1453 
L 4300 1841 
L 738 1841 
z
" transform="scale(0.015625)"/>
      <path id="MicrosoftYaHei-Bold-4f53" d="M 1100 5309 
L 1906 5103 
Q 1697 4303 1450 3613 
L 1450 1072 
Q 2450 2116 2934 3516 
L 1806 3516 
L 1806 4297 
L 3438 4297 
L 3438 5309 
L 4263 5309 
L 4263 4297 
L 6063 4297 
L 6063 3516 
L 4716 3516 
Q 5191 2188 6313 1166 
Q 6044 759 5769 278 
Q 5519 538 5300 853 
L 5300 209 
L 4263 209 
L 4263 -841 
L 3438 -841 
L 3438 209 
L 2431 209 
L 2431 878 
Q 2191 519 1906 191 
Q 1722 491 1450 900 
L 1450 -828 
L 700 -828 
L 700 1922 
Q 500 1563 288 1253 
Q 213 1822 88 2434 
Q 581 3359 1100 5309 
z
M 2509 997 
L 3438 997 
L 3438 3163 
Q 3138 1972 2509 997 
z
M 4263 3128 
L 4263 997 
L 5203 997 
Q 4634 1866 4263 3128 
z
" transform="scale(0.015625)"/>
      <path id="MicrosoftYaHei-Bold-4ea4" d="M 163 4559 
L 2684 4559 
Q 2559 4856 2463 5072 
L 3388 5353 
Q 3538 5056 3775 4559 
L 6194 4559 
L 6194 3772 
L 163 3772 
L 163 4559 
z
M 200 2322 
Q 1238 3016 2006 3759 
L 2681 3141 
Q 1788 2328 788 1597 
Q 581 1891 200 2322 
z
M 4331 3741 
Q 5363 3009 6188 2372 
L 5538 1653 
Q 4675 2441 3756 3134 
L 4331 3741 
z
M 2294 2503 
Q 2703 1794 3203 1309 
Q 3741 1819 4075 2516 
L 4813 2022 
Q 4419 1309 3909 769 
Q 4819 250 6300 78 
Q 5988 -447 5781 -816 
Q 4291 -613 3206 150 
Q 2128 -597 594 -841 
Q 438 -491 88 53 
Q 1525 234 2494 778 
Q 1978 1319 1594 1984 
L 2294 2503 
z
" transform="scale(0.015625)"/>
      <path id="MicrosoftYaHei-Bold-6362" d="M 125 1284 
L 75 2184 
Q 350 2250 763 2369 
L 763 3353 
L 144 3353 
L 144 4153 
L 763 4153 
L 763 5266 
L 1538 5266 
L 1538 4153 
L 2000 4153 
L 2000 3566 
Q 2844 4525 3169 5341 
L 4081 5234 
Q 3969 5009 3847 4791 
L 5631 4791 
L 5631 4109 
L 5138 3503 
L 5938 3503 
L 5938 1628 
L 6294 1628 
L 6294 922 
L 4638 922 
Q 5109 244 6288 9 
Q 6031 -422 5800 -841 
Q 4681 -484 4138 416 
Q 3650 -416 2244 -866 
Q 2038 -491 1744 -78 
Q 3175 209 3509 922 
L 1775 922 
L 1775 1628 
L 2288 1628 
L 2288 3366 
Q 2153 3463 2000 3556 
L 2000 3353 
L 1538 3353 
L 1538 2603 
L 2038 2759 
Q 2006 2222 2013 1909 
L 1538 1753 
L 1538 -91 
Q 1538 -388 1422 -553 
Q 1306 -719 1095 -756 
Q 884 -794 294 -809 
Q 231 -434 106 16 
Q 288 -3 544 -3 
Q 763 -3 763 284 
L 763 1497 
L 125 1284 
z
M 2981 3503 
L 4169 3503 
L 4650 4116 
L 3431 4116 
Q 3219 3800 2981 3503 
z
M 4481 1628 
L 5169 1628 
L 5169 2797 
L 4494 2797 
Q 4494 1947 4481 1628 
z
M 3703 1628 
Q 3725 1822 3725 2797 
L 3056 2797 
L 3056 1628 
L 3703 1628 
z
" transform="scale(0.015625)"/>
      <path id="MicrosoftYaHei-Bold-ff09" d="M 1191 -1088 
L 359 -1088 
Q 1472 238 1472 1863 
Q 1472 3478 366 4838 
L 1197 4838 
Q 2338 3572 2338 1863 
Q 2338 125 1191 -1088 
z
" transform="scale(0.015625)"/>
     </defs>
     <use xlink:href="#MicrosoftYaHei-Bold-80ba"/>
     <use xlink:href="#MicrosoftYaHei-Bold-ff08" transform="translate(100 0)"/>
     <use xlink:href="#MicrosoftYaHei-Bold-6c14" transform="translate(200 0)"/>
     <use xlink:href="#MicrosoftYaHei-Bold-4f53" transform="translate(300 0)"/>
     <use xlink:href="#MicrosoftYaHei-Bold-4ea4" transform="translate(400 0)"/>
     <use xlink:href="#MicrosoftYaHei-Bold-6362" transform="translate(500 0)"/>
     <use xlink:href="#MicrosoftYaHei-Bold-ff09" transform="translate(600 0)"/>
    </g>
   </g>
   <g id="patch_9">
    <path d="M 151.164 120.027025 
Q 151.164 105.397698 151.164 93.563455 
" style="fill: none; stroke: #3498db; stroke-width: 2.5; stroke-linecap: round"/>
    <path d="M 149.164 97.563455 
L 151.164 93.563455 
L 153.164 97.563455 
" style="fill: none; stroke: #3498db; stroke-width: 2.5; stroke-linecap: round"/>
   </g>
   <g id="text_7">
    <g id="patch_10">
     <path d="M 239.604 115.238425 
L 263.604 115.238425 
Q 264.804 115.238425 264.804 114.038425 
L 264.804 105.654675 
Q 264.804 104.454675 263.604 104.454675 
L 239.604 104.454675 
Q 238.404 104.454675 238.404 105.654675 
L 238.404 114.038425 
Q 238.404 115.238425 239.604 115.238425 
z
" style="fill: #ffffff; opacity: 0.8; stroke: #e74c3c; stroke-linejoin: miter"/>
    </g>
    <!-- 肺循环 -->
    <g style="fill: #e74c3c" transform="translate(239.604 112.049675) scale(0.08 -0.08)">
     <defs>
      <path id="MicrosoftYaHei-Bold-5faa" d="M 1425 3534 
L 2038 3128 
L 2038 4922 
Q 4244 4984 5963 5172 
L 6188 4509 
Q 5575 4441 4963 4391 
L 4963 3897 
L 6238 3897 
L 6238 3259 
L 4963 3259 
L 4963 2841 
L 6100 2841 
L 6100 -847 
L 5363 -847 
L 5363 -628 
L 3838 -628 
L 3838 -847 
L 3100 -847 
L 3100 2841 
L 4181 2841 
L 4181 3259 
L 2775 3259 
L 2775 2028 
Q 2788 222 2075 -866 
Q 1806 -522 1525 -234 
L 1525 -828 
L 781 -828 
L 781 1372 
Q 575 1159 363 966 
Q 250 1316 63 1803 
Q 744 2409 1425 3534 
z
M 1350 5316 
L 2006 4891 
Q 1350 3816 500 3059 
Q 300 3403 56 3784 
Q 819 4384 1350 5316 
z
M 1525 2266 
L 1525 -184 
Q 2050 653 2038 2234 
L 2038 3034 
Q 1794 2634 1525 2266 
z
M 3838 -16 
L 5363 -16 
L 5363 353 
L 3838 353 
L 3838 -16 
z
M 3838 928 
L 5363 928 
L 5363 1291 
L 3838 1291 
L 3838 928 
z
M 5363 2228 
L 3838 2228 
L 3838 1866 
L 5363 1866 
L 5363 2228 
z
M 2775 4272 
L 2775 3897 
L 4181 3897 
L 4181 4341 
Q 3475 4297 2775 4272 
z
" transform="scale(0.015625)"/>
      <path id="MicrosoftYaHei-Bold-73af" d="M 5163 2916 
Q 5825 1797 6300 878 
L 5544 472 
Q 5081 1400 4550 2413 
L 4550 -834 
L 3706 -834 
L 3706 2013 
Q 3272 1200 2700 484 
Q 2525 641 2378 766 
Q 2347 503 2331 9 
L 175 -328 
L 81 522 
L 863 613 
L 863 2003 
L 213 2003 
L 213 2834 
L 863 2834 
L 863 4066 
L 175 4066 
L 175 4897 
L 2375 4897 
L 2375 4066 
L 1694 4066 
L 1694 2834 
L 2356 2834 
L 2356 2003 
L 1694 2003 
L 1694 728 
L 2306 825 
Q 2134 972 2000 1072 
Q 3194 2478 3675 4084 
L 2606 4084 
L 2606 4916 
L 6075 4916 
L 6075 4084 
L 4556 4084 
Q 4400 3559 4200 3066 
L 4550 3066 
L 4550 2591 
L 5163 2916 
z
" transform="scale(0.015625)"/>
     </defs>
     <use xlink:href="#MicrosoftYaHei-Bold-80ba"/>
     <use xlink:href="#MicrosoftYaHei-Bold-5faa" transform="translate(100 0)"/>
     <use xlink:href="#MicrosoftYaHei-Bold-73af" transform="translate(200 0)"/>
    </g>
   </g>
   <g id="text_8">
    <!-- CO₂排出·获得O₂ -->
    <g style="fill: #888888" transform="translate(223.881813 128.681675) scale(0.07 -0.07)">
     <defs>
      <path id="MicrosoftYaHei-43" d="M 3938 200 
Q 3403 -81 2597 -81 
Q 1556 -81 934 580 
Q 313 1241 313 2328 
Q 313 3497 1013 4209 
Q 1713 4922 2791 4922 
Q 3484 4922 3938 4725 
L 3938 4072 
Q 3419 4359 2797 4359 
Q 1988 4359 1478 3820 
Q 969 3281 969 2366 
Q 969 1497 1444 986 
Q 1919 475 2688 475 
Q 3406 475 3938 800 
L 3938 200 
z
" transform="scale(0.015625)"/>
      <path id="MicrosoftYaHei-4f" d="M 313 2363 
Q 313 3534 947 4228 
Q 1581 4922 2666 4922 
Q 3675 4922 4290 4244 
Q 4906 3566 4906 2478 
Q 4906 1300 4275 609 
Q 3644 -81 2588 -81 
Q 1556 -81 934 597 
Q 313 1275 313 2363 
z
M 969 2413 
Q 969 1534 1417 1004 
Q 1866 475 2588 475 
Q 3363 475 3805 983 
Q 4247 1491 4247 2403 
Q 4247 3341 3814 3850 
Q 3381 4359 2628 4359 
Q 1888 4359 1428 3821 
Q 969 3284 969 2413 
z
" transform="scale(0.015625)"/>
      <path id="MicrosoftYaHei-2082" d="M 559 0 
L 559 4719 
L 3900 4719 
L 3900 0 
L 559 0 
z
M 1059 500 
L 3403 500 
L 3403 4219 
L 1059 4219 
L 1059 500 
z
" transform="scale(0.015625)"/>
      <path id="MicrosoftYaHei-6392" d="M 4375 5309 
L 4863 5309 
L 4863 4159 
L 6188 4159 
L 6188 3684 
L 4863 3684 
L 4863 2609 
L 6038 2609 
L 6038 2134 
L 4863 2134 
L 4863 1047 
L 6294 1047 
L 6294 572 
L 4863 572 
L 4863 -841 
L 4375 -841 
L 4375 5309 
z
M 1844 1047 
L 3138 1047 
L 3138 2134 
L 2150 2134 
L 2150 2609 
L 3138 2609 
L 3138 3684 
L 2163 3684 
L 2163 4159 
L 3138 4159 
L 3138 5309 
L 3625 5309 
L 3625 -841 
L 3138 -841 
L 3138 572 
L 1844 572 
L 1844 1047 
z
M 131 4166 
L 875 4166 
L 875 5316 
L 1350 5316 
L 1350 4166 
L 1969 4166 
L 1969 3728 
L 1350 3728 
L 1350 2563 
Q 1650 2716 1938 2872 
Q 1956 2603 1988 2372 
Q 1681 2216 1350 2044 
L 1350 -134 
Q 1350 -772 669 -778 
Q 481 -784 156 -778 
Q 131 -528 75 -259 
Q 419 -284 613 -284 
Q 875 -284 875 3 
L 875 1797 
Q 525 1616 150 1416 
L 88 1966 
Q 491 2144 875 2328 
L 875 3728 
L 131 3728 
L 131 4166 
z
" transform="scale(0.015625)"/>
      <path id="MicrosoftYaHei-51fa" d="M 5100 2172 
L 5100 2403 
L 3456 2403 
L 3456 -47 
L 5288 -47 
L 5288 1734 
L 5813 1734 
L 5813 -747 
L 5288 -747 
L 5288 -522 
L 588 -522 
L 588 1734 
L 1119 1734 
L 1119 -47 
L 2913 -47 
L 2913 2403 
L 756 2403 
L 756 4647 
L 1288 4647 
L 1288 2878 
L 2913 2878 
L 2913 5222 
L 3456 5222 
L 3456 2878 
L 5100 2878 
L 5100 4647 
L 5631 4647 
L 5631 2172 
L 5100 2172 
z
" transform="scale(0.015625)"/>
      <path id="MicrosoftYaHei-b7" d="M 372 2113 
Q 372 2278 490 2395 
Q 609 2513 775 2513 
Q 941 2513 1061 2397 
Q 1181 2281 1181 2113 
Q 1181 1950 1064 1831 
Q 947 1713 772 1713 
Q 600 1713 486 1831 
Q 372 1950 372 2113 
z
" transform="scale(0.015625)"/>
      <path id="MicrosoftYaHei-83b7" d="M 2419 2453 
L 3934 2453 
Q 3950 2919 3944 3597 
L 4431 3597 
Q 4431 3056 4416 2453 
L 6194 2453 
L 6194 2009 
L 4453 2009 
Q 4850 225 6281 -403 
Q 6081 -622 5888 -834 
Q 4656 -156 4216 1300 
Q 3859 -50 2456 -878 
Q 2313 -672 2138 -466 
Q 3722 384 3906 2009 
L 2419 2009 
L 2419 2453 
z
M 56 503 
Q 931 1006 1522 1897 
Q 1434 2116 1322 2328 
Q 847 1956 319 1647 
Q 206 1803 31 2028 
Q 606 2319 1094 2703 
Q 819 3106 431 3484 
L 744 3772 
Q 1147 3400 1441 2997 
Q 1794 3319 2094 3697 
L 2481 3434 
Q 2106 3003 1681 2628 
Q 2278 1619 2231 428 
Q 2206 -722 1206 -722 
Q 944 -722 575 -709 
Q 544 -491 488 -203 
Q 869 -253 1175 -253 
Q 1738 -253 1763 434 
Q 1781 919 1678 1378 
Q 1128 644 350 134 
Q 231 291 56 503 
z
M 150 4641 
L 1869 4641 
L 1869 5328 
L 2356 5328 
L 2356 4641 
L 4069 4641 
L 4069 5328 
L 4556 5328 
L 4556 4641 
L 6269 4641 
L 6269 4197 
L 4556 4197 
L 4556 3778 
L 4069 3778 
L 4069 4197 
L 2356 4197 
L 2356 3784 
L 1869 3784 
L 1869 4197 
L 150 4197 
L 150 4641 
z
M 4781 3316 
L 5031 3634 
Q 5538 3322 5950 3022 
L 5669 2659 
Q 5319 2941 4781 3316 
z
" transform="scale(0.015625)"/>
      <path id="MicrosoftYaHei-5f97" d="M 2531 5034 
L 5725 5034 
L 5725 2547 
L 5275 2547 
L 5275 2759 
L 2981 2759 
L 2981 2547 
L 2531 2547 
L 2531 5034 
z
M 1925 1322 
L 4925 1322 
L 4925 1834 
L 2188 1834 
L 2188 2247 
L 6163 2247 
L 6163 1834 
L 5400 1834 
L 5400 1322 
L 6313 1322 
L 6313 909 
L 5400 909 
L 5400 3 
Q 5400 -741 4650 -741 
Q 4313 -741 3719 -734 
Q 3688 -528 3625 -228 
Q 4038 -272 4538 -272 
Q 4925 -272 4925 122 
L 4925 909 
L 1925 909 
L 1925 1322 
z
M 81 1634 
Q 869 2378 1594 3684 
L 2031 3459 
Q 1750 2984 1469 2572 
L 1469 -834 
L 1000 -834 
L 1000 1928 
Q 653 1491 300 1134 
Q 206 1378 81 1634 
z
M 2981 3153 
L 5275 3153 
L 5275 3709 
L 2981 3709 
L 2981 3153 
z
M 5275 4641 
L 2981 4641 
L 2981 4091 
L 5275 4091 
L 5275 4641 
z
M 106 3578 
Q 988 4278 1594 5334 
L 2038 5078 
Q 1269 3928 363 3134 
Q 250 3353 106 3578 
z
M 2525 622 
L 2881 891 
Q 3244 509 3563 122 
L 3175 -159 
Q 2875 228 2525 622 
z
" transform="scale(0.015625)"/>
     </defs>
     <use xlink:href="#MicrosoftYaHei-43"/>
     <use xlink:href="#MicrosoftYaHei-4f" transform="translate(65.519531 0)"/>
     <use xlink:href="#MicrosoftYaHei-2082" transform="translate(147.013672 0)"/>
     <use xlink:href="#MicrosoftYaHei-6392" transform="translate(216.740234 0)"/>
     <use xlink:href="#MicrosoftYaHei-51fa" transform="translate(316.740234 0)"/>
     <use xlink:href="#MicrosoftYaHei-b7" transform="translate(416.740234 0)"/>
     <use xlink:href="#MicrosoftYaHei-83b7" transform="translate(440.8125 0)"/>
     <use xlink:href="#MicrosoftYaHei-5f97" transform="translate(540.8125 0)"/>
     <use xlink:href="#MicrosoftYaHei-4f" transform="translate(640.8125 0)"/>
     <use xlink:href="#MicrosoftYaHei-2082" transform="translate(722.306641 0)"/>
    </g>
   </g>
   <g id="patch_11">
    <path d="M 90.9 319.610822 
Q 90.9 258.410606 90.9 200.005474 
" style="fill: none; stroke: #3498db; stroke-width: 2.5; stroke-linecap: round"/>
    <path d="M 88.9 204.005474 
L 90.9 200.005474 
L 92.9 204.005474 
" style="fill: none; stroke: #3498db; stroke-width: 2.5; stroke-linecap: round"/>
   </g>
   <g id="text_9">
    <!-- 全身组织细胞 -->
    <g style="fill: #9b59b6" transform="translate(47.16 307.415881) scale(0.09 -0.09)">
     <defs>
      <path id="MicrosoftYaHei-Bold-5168" d="M 369 184 
L 2731 184 
L 2731 934 
L 869 934 
L 869 1734 
L 2731 1734 
L 2731 2366 
L 1525 2366 
L 1525 2859 
Q 1113 2566 644 2284 
Q 463 2541 88 3016 
Q 2088 4091 2800 5316 
L 3894 5316 
L 3731 5078 
Q 4538 3922 6313 3091 
Q 5981 2678 5750 2353 
Q 5281 2603 4875 2878 
L 4875 2366 
L 3663 2366 
L 3663 1734 
L 5544 1734 
L 5544 934 
L 3663 934 
L 3663 184 
L 6031 184 
L 6031 -616 
L 369 -616 
L 369 184 
z
M 3200 4416 
Q 2688 3766 1925 3166 
L 4475 3166 
Q 3725 3741 3200 4416 
z
" transform="scale(0.015625)"/>
      <path id="MicrosoftYaHei-Bold-8eab" d="M 150 1791 
L 875 1791 
L 875 4766 
L 2253 4766 
L 2556 5341 
Q 3125 5284 3538 5228 
L 3238 4766 
L 5350 4766 
L 5350 2228 
Q 5606 2428 5838 2641 
L 6363 2053 
Q 5894 1666 5350 1313 
L 5350 234 
Q 5350 -784 4413 -797 
L 3356 -797 
Q 3269 -259 3213 9 
Q 3650 -22 4150 -22 
Q 4500 -22 4500 328 
L 4500 809 
Q 2816 -100 531 -734 
Q 275 -184 75 103 
Q 1888 447 3281 1041 
L 150 1041 
L 150 1791 
z
M 4500 4028 
L 1725 4028 
L 1725 3653 
L 4500 3653 
L 4500 4028 
z
M 1725 2728 
L 4500 2728 
L 4500 3103 
L 1725 3103 
L 1725 2728 
z
M 1725 1791 
L 4500 1791 
L 4500 2178 
L 1725 2178 
L 1725 1791 
z
" transform="scale(0.015625)"/>
      <path id="MicrosoftYaHei-Bold-7ec4" d="M 244 -559 
L 94 272 
Q 1200 397 2388 566 
Q 2375 384 2369 203 
L 2694 203 
L 2694 3769 
Q 2003 2625 1363 1728 
L 2463 1859 
Q 2406 1409 2394 1109 
Q 788 941 488 834 
L 181 1584 
Q 500 1766 1144 2734 
Q 538 2703 325 2634 
L 75 3366 
Q 413 3578 1231 5366 
L 2025 5059 
Q 1513 4153 1038 3409 
L 1584 3438 
Q 1791 3788 1994 4172 
L 2694 3838 
L 2694 5059 
L 5913 5059 
L 5913 203 
L 6306 203 
L 6306 -603 
L 2256 -603 
L 2256 -263 
L 244 -559 
z
M 5038 4253 
L 3569 4253 
L 3569 3434 
L 5038 3434 
L 5038 4253 
z
M 3569 1828 
L 5038 1828 
L 5038 2647 
L 3569 2647 
L 3569 1828 
z
M 3569 203 
L 5038 203 
L 5038 1041 
L 3569 1041 
L 3569 203 
z
" transform="scale(0.015625)"/>
      <path id="MicrosoftYaHei-Bold-7ec7" d="M 1019 3334 
Q 1213 3334 1472 3347 
Q 1653 3663 1850 4028 
L 2506 3703 
Q 1894 2603 1325 1784 
L 2313 1922 
Q 2263 1597 2231 1147 
Q 1213 1009 450 847 
L 213 1516 
Q 556 1856 1047 2638 
Q 506 2591 331 2547 
L 94 3259 
Q 544 3759 1181 5316 
L 1944 5009 
Q 1531 4172 1019 3334 
z
M 2563 4916 
L 5938 4916 
L 5938 1597 
L 2563 1597 
L 2563 4916 
z
M 5088 2391 
L 5088 4122 
L 3413 4122 
L 3413 2391 
L 5088 2391 
z
M 3219 1447 
L 3969 1028 
Q 3231 -284 2750 -909 
Q 2456 -678 2006 -384 
L 2144 -216 
L 250 -528 
L 94 328 
Q 994 422 2238 616 
Q 2209 138 2216 -125 
Q 2738 550 3219 1447 
z
M 5181 1428 
Q 5800 528 6344 -391 
L 5538 -872 
Q 5038 122 4469 1047 
L 5181 1428 
z
" transform="scale(0.015625)"/>
      <path id="MicrosoftYaHei-Bold-7ec6" d="M 1225 1722 
Q 1444 1741 2156 1834 
Q 2100 1366 2088 1084 
Q 750 941 431 841 
L 181 1584 
Q 488 1828 1031 2728 
Q 400 2691 300 2634 
L 75 3359 
Q 475 3716 1156 5359 
L 1894 5053 
Q 1206 3753 981 3409 
L 1425 3425 
Q 1581 3722 1738 4041 
L 2288 3781 
L 2288 5053 
L 6050 5053 
L 6050 -809 
L 5250 -809 
L 5250 -428 
L 3088 -428 
L 3088 -809 
L 2288 -809 
L 2288 3497 
Q 1634 2338 1225 1722 
z
M 5250 4291 
L 4569 4291 
L 4569 2722 
L 5250 2722 
L 5250 4291 
z
M 3088 2722 
L 3769 2722 
L 3769 4291 
L 3088 4291 
L 3088 2722 
z
M 3088 334 
L 3769 334 
L 3769 1959 
L 3088 1959 
L 3088 334 
z
M 4569 334 
L 5250 334 
L 5250 1959 
L 4569 1959 
L 4569 334 
z
M 238 -572 
L 94 259 
Q 1156 384 2175 534 
Q 2131 84 2119 -266 
L 238 -572 
z
" transform="scale(0.015625)"/>
      <path id="MicrosoftYaHei-Bold-80de" d="M 5944 1959 
Q 5938 1341 5719 1041 
Q 6025 878 6325 728 
Q 6194 28 6100 -216 
Q 5906 -709 5181 -709 
L 3581 -709 
Q 2725 -709 2725 216 
L 2725 2922 
Q 2681 2859 2644 2803 
Q 2563 2916 2319 3191 
L 2319 -41 
Q 2319 -584 1894 -678 
Q 1644 -741 1188 -759 
Q 1138 -403 975 66 
Q 869 -441 638 -884 
Q 394 -553 63 -166 
Q 294 334 356 922 
Q 425 1472 425 2934 
L 425 5016 
L 2319 5016 
L 2319 3734 
Q 2856 4559 3156 5359 
L 3931 5191 
Q 3838 4972 3744 4759 
L 5988 4759 
L 5944 1959 
z
M 3044 3434 
L 4813 3434 
L 4813 1497 
L 4900 1497 
Q 5206 1491 5206 1959 
Q 5219 2997 5219 4028 
L 3381 4028 
Q 3219 3728 3044 3434 
z
M 3863 47 
L 4925 47 
Q 5381 47 5431 253 
Q 5519 497 5575 891 
Q 5400 759 5131 753 
Q 4669 741 4269 734 
Q 4219 984 4169 1216 
L 3475 1216 
L 3475 409 
Q 3475 47 3863 47 
z
M 1100 1091 
Q 1069 509 981 84 
Q 1150 66 1350 59 
Q 1606 53 1606 416 
L 1606 1091 
L 1100 1091 
z
M 4081 1891 
L 4081 2759 
L 3475 2759 
L 3475 1891 
L 4081 1891 
z
M 1606 4216 
L 1138 4216 
L 1138 3359 
L 1606 3359 
L 1606 4216 
z
M 1131 1834 
L 1606 1834 
L 1606 2616 
L 1138 2616 
Q 1138 2191 1131 1834 
z
" transform="scale(0.015625)"/>
     </defs>
     <use xlink:href="#MicrosoftYaHei-Bold-5168"/>
     <use xlink:href="#MicrosoftYaHei-Bold-8eab" transform="translate(100 0)"/>
     <use xlink:href="#MicrosoftYaHei-Bold-7ec4" transform="translate(200 0)"/>
     <use xlink:href="#MicrosoftYaHei-Bold-7ec7" transform="translate(300 0)"/>
     <use xlink:href="#MicrosoftYaHei-Bold-7ec6" transform="translate(400 0)"/>
     <use xlink:href="#MicrosoftYaHei-Bold-80de" transform="translate(500 0)"/>
    </g>
    <!-- （物质交换） -->
    <g style="fill: #9b59b6" transform="translate(47.16 318.286475) scale(0.09 -0.09)">
     <defs>
      <path id="MicrosoftYaHei-Bold-7269" d="M 1969 -847 
L 1181 -847 
L 1181 1078 
Q 669 984 206 884 
L 94 1791 
Q 597 1838 1181 1922 
L 1181 3172 
L 775 3172 
Q 697 2731 594 2322 
Q 300 2509 88 2603 
Q 313 3566 381 4784 
L 956 4728 
Q 931 4344 891 3978 
L 1181 3978 
L 1181 5291 
L 1969 5291 
L 1969 3978 
L 2425 3978 
L 2425 3728 
Q 2856 4553 3100 5341 
Q 3550 5259 3938 5178 
Q 3772 4738 3609 4359 
L 6075 4359 
Q 6066 3275 6028 2016 
L 5972 400 
Q 5953 47 5834 -204 
Q 5716 -456 5466 -568 
Q 5216 -681 4150 -647 
Q 4056 -134 3934 216 
Q 3497 -331 2888 -772 
Q 2494 -353 2219 -109 
Q 4194 1163 4425 3534 
L 4116 3534 
Q 3891 1925 2781 966 
Q 2597 1144 2441 1284 
L 1969 1213 
L 1969 -847 
z
M 5300 3534 
L 5025 3534 
Q 4994 1578 3966 253 
Q 4356 222 4694 222 
Q 5122 222 5187 645 
Q 5253 1069 5300 3534 
z
M 2638 2647 
Q 2384 3003 2228 3172 
L 1969 3172 
L 1969 2044 
Q 2241 2088 2531 2141 
Q 2522 2006 2516 1850 
Q 3275 2559 3519 3534 
L 3213 3534 
Q 2925 3000 2638 2647 
z
" transform="scale(0.015625)"/>
      <path id="MicrosoftYaHei-Bold-8d28" d="M 1706 3847 
L 3400 3847 
L 3400 4313 
Q 2384 4256 1475 4228 
L 1475 2309 
Q 1475 191 781 -853 
Q 519 -578 81 -209 
Q 625 684 625 2347 
L 625 5016 
Q 3150 4997 5763 5266 
L 6150 4497 
L 4256 4363 
L 4256 3847 
L 6038 3847 
L 6038 3141 
L 4256 3141 
L 4256 2716 
L 5825 2716 
L 5825 541 
L 5013 541 
L 5013 2009 
L 2700 2009 
L 2700 541 
L 1888 541 
L 1888 2716 
L 3400 2716 
L 3400 3141 
L 1706 3141 
L 1706 3847 
z
M 3488 1778 
L 4363 1778 
Q 4347 1203 4197 772 
Q 5091 431 6275 -84 
L 5769 -834 
Q 4819 -297 3869 166 
Q 3269 -522 1756 -859 
Q 1538 -428 1331 -128 
Q 2506 119 2979 478 
Q 3453 838 3488 1778 
z
" transform="scale(0.015625)"/>
     </defs>
     <use xlink:href="#MicrosoftYaHei-Bold-ff08"/>
     <use xlink:href="#MicrosoftYaHei-Bold-7269" transform="translate(100 0)"/>
     <use xlink:href="#MicrosoftYaHei-Bold-8d28" transform="translate(200 0)"/>
     <use xlink:href="#MicrosoftYaHei-Bold-4ea4" transform="translate(300 0)"/>
     <use xlink:href="#MicrosoftYaHei-Bold-6362" transform="translate(400 0)"/>
     <use xlink:href="#MicrosoftYaHei-Bold-ff09" transform="translate(500 0)"/>
    </g>
   </g>
   <g id="patch_12">
    <path d="M 191.34 173.926725 
Q 191.34 238.451936 191.34 300.182063 
" style="fill: none; stroke: #e74c3c; stroke-width: 2.5; stroke-linecap: round"/>
    <path d="M 193.34 296.182063 
L 191.34 300.182063 
L 189.34 296.182063 
" style="fill: none; stroke: #e74c3c; stroke-width: 2.5; stroke-linecap: round"/>
   </g>
   <g id="text_10">
    <!-- 体循环 -->
    <g style="fill: #3498db" transform="translate(62.16 344.897675) scale(0.08 -0.08)">
     <use xlink:href="#MicrosoftYaHei-Bold-4f53"/>
     <use xlink:href="#MicrosoftYaHei-Bold-5faa" transform="translate(100 0)"/>
     <use xlink:href="#MicrosoftYaHei-Bold-73af" transform="translate(200 0)"/>
    </g>
   </g>
   <g id="text_11">
    <!-- 供给O₂·带走CO₂ -->
    <g style="fill: #888888" transform="translate(46.437812 358.203275) scale(0.07 -0.07)">
     <defs>
      <path id="MicrosoftYaHei-4f9b" d="M 4669 5259 
L 5181 5259 
L 5181 3884 
L 6075 3884 
L 6075 3434 
L 5181 3434 
L 5181 1709 
L 6294 1709 
L 6294 1259 
L 1750 1259 
L 1750 1709 
L 2806 1709 
L 2806 3434 
L 2000 3434 
L 2000 3884 
L 2806 3884 
L 2806 5253 
L 3319 5253 
L 3319 3884 
L 4669 3884 
L 4669 5259 
z
M 25 2309 
Q 1006 3628 1569 5316 
L 2069 5134 
Q 1747 4300 1400 3603 
L 1400 -841 
L 900 -841 
L 900 2694 
Q 578 2169 238 1747 
Q 150 2003 25 2309 
z
M 3319 1709 
L 4669 1709 
L 4669 3434 
L 3319 3434 
L 3319 1709 
z
M 4369 766 
L 4738 1078 
Q 5725 166 6281 -447 
L 5869 -828 
Q 5231 -72 4369 766 
z
M 3625 753 
Q 2888 -147 2088 -853 
Q 1919 -659 1706 -491 
Q 2500 109 3194 1053 
L 3625 753 
z
" transform="scale(0.015625)"/>
      <path id="MicrosoftYaHei-7ed9" d="M 2538 1791 
L 5700 1791 
L 5700 -853 
L 5225 -853 
L 5225 -434 
L 3013 -434 
L 3013 -859 
L 2538 -859 
L 2538 1791 
z
M 856 1572 
Q 881 1572 2150 1672 
Q 2119 1478 2094 1266 
Q 1050 1172 313 1091 
L 213 1491 
Q 588 1847 1156 2803 
Q 763 2778 213 2734 
L 81 3128 
Q 619 3741 1256 5278 
L 1750 5103 
Q 1138 3922 625 3166 
Q 1000 3172 1369 3178 
Q 1594 3566 1838 4034 
L 2306 3834 
Q 1431 2384 856 1572 
z
M 5225 1359 
L 3013 1359 
L 3013 -3 
L 5225 -3 
L 5225 1359 
z
M 4475 5278 
L 4344 5066 
Q 5075 3872 6350 3091 
Q 6169 2903 5988 2684 
Q 4763 3553 4081 4641 
Q 3400 3491 2313 2603 
Q 2194 2741 1950 2953 
Q 3213 3916 3919 5278 
L 4475 5278 
z
M 2750 2959 
L 5488 2959 
L 5488 2528 
L 2750 2528 
L 2750 2959 
z
M 106 122 
Q 1269 341 2194 553 
Q 2188 322 2200 109 
Q 925 -159 269 -341 
L 106 122 
z
" transform="scale(0.015625)"/>
      <path id="MicrosoftYaHei-5e26" d="M 1500 -303 
L 1013 -303 
L 1013 1959 
L 2956 1959 
L 2956 2541 
L 3456 2541 
L 3456 1959 
L 5406 1959 
L 5406 341 
Q 5406 -234 4775 -234 
Q 4550 -234 3956 -228 
Q 3925 -28 3863 241 
Q 4431 203 4625 203 
Q 4919 203 4919 466 
L 4919 1522 
L 3456 1522 
L 3456 -841 
L 2956 -841 
L 2956 1522 
L 1500 1522 
L 1500 -303 
z
M 125 4534 
L 1413 4534 
L 1413 5297 
L 1881 5297 
L 1881 4534 
L 2956 4534 
L 2956 5297 
L 3425 5297 
L 3425 4534 
L 4506 4534 
L 4506 5297 
L 4975 5297 
L 4975 4534 
L 6263 4534 
L 6263 4097 
L 4975 4097 
L 4975 3409 
L 4506 3409 
L 4506 4097 
L 3425 4097 
L 3425 3409 
L 2956 3409 
L 2956 4097 
L 1881 4097 
L 1881 3409 
L 1413 3409 
L 1413 4097 
L 125 4097 
L 125 4534 
z
M 338 3159 
L 6069 3159 
L 6069 2022 
L 5581 2022 
L 5581 2722 
L 825 2722 
L 825 2022 
L 338 2022 
L 338 3159 
z
" transform="scale(0.015625)"/>
      <path id="MicrosoftYaHei-8d70" d="M 163 -416 
Q 1125 497 1331 1978 
L 1800 1866 
Q 1688 1291 1513 809 
Q 2044 -84 3006 -159 
L 3006 2234 
L 3519 2234 
L 3519 1434 
L 5600 1434 
L 5600 997 
L 3519 997 
L 3519 -172 
Q 4931 -184 6269 -134 
Q 6175 -378 6094 -628 
Q 4269 -653 3063 -609 
Q 1950 -572 1319 353 
Q 981 -341 469 -816 
Q 313 -584 163 -416 
z
M 6100 2384 
L 300 2384 
L 300 2822 
L 2894 2822 
L 2894 3884 
L 850 3884 
L 850 4322 
L 2894 4322 
L 2894 5297 
L 3406 5297 
L 3406 4322 
L 5550 4322 
L 5550 3884 
L 3406 3884 
L 3406 2822 
L 6100 2822 
L 6100 2384 
z
" transform="scale(0.015625)"/>
     </defs>
     <use xlink:href="#MicrosoftYaHei-4f9b"/>
     <use xlink:href="#MicrosoftYaHei-7ed9" transform="translate(100 0)"/>
     <use xlink:href="#MicrosoftYaHei-4f" transform="translate(200 0)"/>
     <use xlink:href="#MicrosoftYaHei-2082" transform="translate(281.494141 0)"/>
     <use xlink:href="#MicrosoftYaHei-b7" transform="translate(351.220703 0)"/>
     <use xlink:href="#MicrosoftYaHei-5e26" transform="translate(375.292969 0)"/>
     <use xlink:href="#MicrosoftYaHei-8d70" transform="translate(475.292969 0)"/>
     <use xlink:href="#MicrosoftYaHei-43" transform="translate(575.292969 0)"/>
     <use xlink:href="#MicrosoftYaHei-4f" transform="translate(640.8125 0)"/>
     <use xlink:href="#MicrosoftYaHei-2082" transform="translate(722.306641 0)"/>
    </g>
   </g>
   <g id="text_12">
    <!-- 含氧多 -->
    <g style="fill: #3498db" transform="translate(73.059625 206.929031) rotate(-90) scale(0.07 -0.07)">
     <defs>
      <path id="MicrosoftYaHei-542b" d="M 975 1572 
L 5438 1572 
L 5438 -822 
L 4950 -822 
L 4950 -478 
L 1463 -478 
L 1463 -834 
L 975 -834 
L 975 1572 
z
M 1188 2622 
L 1188 3053 
L 4950 3053 
L 4950 2622 
Q 4550 2147 3981 1628 
Q 3800 1784 3594 1922 
Q 3981 2228 4350 2622 
L 1188 2622 
z
M 2631 3872 
L 2975 4134 
Q 3288 3809 3619 3422 
L 3244 3128 
Q 2975 3484 2631 3872 
z
M 3663 5291 
L 3519 5134 
Q 4525 3909 6313 3259 
Q 6100 2991 5988 2778 
Q 4094 3622 3206 4834 
Q 2050 3516 369 2672 
Q 244 2903 81 3109 
Q 1838 3934 2981 5291 
L 3663 5291 
z
M 4950 -34 
L 4950 1128 
L 1463 1128 
L 1463 -34 
L 4950 -34 
z
" transform="scale(0.015625)"/>
      <path id="MicrosoftYaHei-6c27" d="M 3719 2616 
Q 3456 2328 3219 2097 
L 4525 2097 
L 4525 1709 
L 2656 1709 
L 2656 1222 
L 4275 1222 
L 4275 847 
L 2656 847 
L 2656 353 
L 4638 353 
L 4638 -34 
L 2656 -34 
L 2656 -866 
L 2181 -866 
L 2181 -34 
L 144 -34 
L 144 353 
L 2181 353 
L 2181 847 
L 556 847 
L 556 1222 
L 2181 1222 
L 2181 1709 
L 375 1709 
L 375 2097 
L 1569 2097 
Q 1375 2328 1113 2622 
L 1325 2816 
L 756 2816 
L 756 3203 
L 5231 3203 
Q 5181 416 5563 -103 
Q 5675 -247 5731 -84 
Q 5806 322 5850 909 
Q 6050 828 6313 734 
Q 6256 191 6194 -159 
Q 6069 -797 5731 -797 
Q 5369 -797 5106 -334 
Q 4738 272 4750 2816 
L 3400 2816 
L 3719 2616 
z
M 1250 5316 
L 1738 5197 
Q 1669 5009 1594 4841 
L 6075 4841 
L 6075 4453 
L 1419 4453 
Q 981 3528 413 2872 
Q 163 3222 100 3284 
Q 856 4153 1250 5316 
z
M 1363 4022 
L 5600 4022 
L 5600 3634 
L 1363 3634 
L 1363 4022 
z
M 1963 2322 
L 1706 2097 
L 2694 2097 
Q 3019 2472 3263 2816 
L 1475 2816 
Q 1763 2547 1963 2322 
z
" transform="scale(0.015625)"/>
      <path id="MicrosoftYaHei-591a" d="M 3719 2803 
L 4338 2803 
Q 4050 2522 3744 2272 
L 6019 2272 
L 6019 1816 
Q 4006 -366 650 -891 
Q 538 -666 369 -422 
Q 1894 -203 3100 322 
Q 2919 559 2581 903 
L 2956 1178 
Q 3275 847 3538 522 
Q 4588 1059 5344 1834 
L 3200 1834 
Q 2100 1009 881 484 
Q 769 666 581 909 
Q 2319 1609 3719 2803 
z
M 2775 5316 
L 3406 5316 
Q 3088 4972 2756 4672 
L 5700 4672 
L 5700 4247 
Q 3550 2516 481 1666 
Q 350 1916 194 2103 
Q 1481 2441 2506 2872 
Q 2281 3122 1913 3484 
L 2263 3759 
Q 2631 3403 2944 3066 
Q 4088 3584 4950 4234 
L 2256 4234 
Q 1606 3678 713 3172 
Q 575 3359 369 3566 
Q 1800 4328 2775 5316 
z
" transform="scale(0.015625)"/>
     </defs>
     <use xlink:href="#MicrosoftYaHei-542b"/>
     <use xlink:href="#MicrosoftYaHei-6c27" transform="translate(100 0)"/>
     <use xlink:href="#MicrosoftYaHei-591a" transform="translate(200 0)"/>
    </g>
   </g>
   <g id="text_13">
    <!-- 含氧少 -->
    <g style="fill: #e74c3c" transform="translate(280.635625 140.401031) rotate(-90) scale(0.07 -0.07)">
     <defs>
      <path id="MicrosoftYaHei-5c11" d="M 1631 4428 
L 2144 4228 
Q 1463 2722 669 1484 
Q 475 1609 200 1766 
Q 994 2916 1631 4428 
z
M 4138 4266 
L 4531 4566 
Q 5531 3491 6331 2528 
L 5881 2166 
Q 5006 3278 4138 4266 
z
M 2925 5284 
L 3463 5284 
L 3463 1359 
L 2925 1359 
L 2925 5284 
z
M 4988 2416 
L 5444 2116 
Q 3631 -216 413 -859 
Q 275 -609 100 -359 
Q 3350 272 4988 2416 
z
" transform="scale(0.015625)"/>
     </defs>
     <use xlink:href="#MicrosoftYaHei-542b"/>
     <use xlink:href="#MicrosoftYaHei-6c27" transform="translate(100 0)"/>
     <use xlink:href="#MicrosoftYaHei-5c11" transform="translate(200 0)"/>
    </g>
   </g>
   <g id="text_14">
    <!-- 含氧少的血液（静脉血） -->
    <g style="fill: #555555" transform="translate(37.332 40.532075) scale(0.07 -0.07)">
     <defs>
      <path id="MicrosoftYaHei-7684" d="M 356 4284 
L 988 4284 
Q 1219 4853 1369 5322 
L 1894 5172 
Q 1697 4694 1513 4284 
L 2763 4284 
L 2763 -691 
L 2263 -691 
L 2263 -203 
L 856 -203 
L 856 -734 
L 356 -734 
L 356 4284 
z
M 2856 3003 
Q 3444 3934 3850 5322 
L 4375 5191 
Q 4216 4719 4050 4303 
L 6063 4303 
Q 5988 1091 5938 259 
Q 5894 -722 4906 -722 
Q 4338 -722 3750 -684 
Q 3713 -372 3650 -128 
L 3669 -128 
Q 4294 -216 4813 -216 
Q 5381 -216 5425 384 
Q 5494 1316 5525 3834 
L 3850 3834 
Q 3578 3231 3288 2772 
Q 3119 2891 2856 3003 
z
M 856 266 
L 2263 266 
L 2263 1847 
L 856 1847 
L 856 266 
z
M 2263 3816 
L 856 3816 
L 856 2297 
L 2263 2297 
L 2263 3816 
z
M 3406 2578 
L 3788 2859 
Q 4481 2041 4894 1441 
L 4431 1116 
Q 3988 1841 3406 2578 
z
" transform="scale(0.015625)"/>
      <path id="MicrosoftYaHei-8840" d="M 144 66 
L 825 66 
L 825 4353 
L 2378 4353 
Q 2544 4806 2694 5359 
L 3244 5247 
Q 3106 4828 2938 4353 
L 5563 4353 
L 5563 66 
L 6263 66 
L 6263 -409 
L 144 -409 
L 144 66 
z
M 1300 66 
L 2250 66 
L 2250 3884 
L 1300 3884 
L 1300 66 
z
M 2719 66 
L 3669 66 
L 3669 3884 
L 2719 3884 
L 2719 66 
z
M 5088 3884 
L 4138 3884 
L 4138 66 
L 5088 66 
L 5088 3884 
z
" transform="scale(0.015625)"/>
      <path id="MicrosoftYaHei-6db2" d="M 2750 1841 
Q 3575 2941 3875 4016 
L 4331 3916 
Q 4231 3584 4100 3266 
L 5881 3266 
L 5881 2847 
Q 5563 1328 4825 466 
Q 5381 -34 6294 -359 
Q 6213 -459 5975 -816 
Q 5069 -416 4494 122 
Q 3913 -416 3044 -878 
Q 2888 -653 2719 -459 
Q 3588 -22 4156 497 
Q 3694 1072 3413 1972 
Q 3213 1672 2981 1372 
Q 2869 1634 2750 1841 
z
M 1381 1747 
Q 2244 2853 2631 4041 
L 3081 3934 
Q 2875 3359 2625 2841 
L 2625 -859 
L 2175 -859 
L 2175 2041 
Q 1900 1609 1588 1234 
Q 1481 1559 1381 1747 
z
M 1850 4522 
L 3931 4522 
Q 3738 4891 3594 5141 
L 4038 5334 
Q 4188 5084 4419 4653 
L 4119 4522 
L 6238 4522 
L 6238 4103 
L 1850 4103 
L 1850 4522 
z
M 3719 2472 
Q 4019 1428 4481 828 
Q 5150 1603 5375 2853 
L 3913 2853 
Q 3819 2666 3719 2472 
z
M 288 -634 
Q 656 491 931 1784 
Q 1138 1691 1406 1591 
Q 1119 453 806 -803 
L 288 -634 
z
M 81 3222 
L 400 3578 
Q 981 3184 1481 2772 
Q 1250 2516 1113 2372 
Q 544 2878 81 3222 
z
M 325 4853 
L 650 5184 
Q 1063 4872 1725 4303 
Q 1513 4097 1350 3934 
Q 706 4541 325 4853 
z
M 4056 2409 
L 4438 2591 
Q 4638 2253 4863 1822 
L 4475 1622 
Q 4300 1984 4056 2409 
z
" transform="scale(0.015625)"/>
      <path id="MicrosoftYaHei-ff08" d="M 5288 -1100 
Q 4172 119 4172 1850 
Q 4172 3603 5288 4838 
L 5825 4838 
Q 4716 3572 4716 1856 
Q 4716 166 5819 -1100 
L 5288 -1100 
z
" transform="scale(0.015625)"/>
      <path id="MicrosoftYaHei-9759" d="M 3006 1322 
L 4163 1322 
L 4163 2059 
L 2825 2059 
L 2825 2459 
L 4163 2459 
L 4163 3191 
L 3031 3191 
L 3031 3591 
L 4300 3591 
L 4831 4328 
L 3788 4328 
Q 3509 3925 3194 3616 
Q 3050 3741 2831 3903 
Q 3506 4541 3856 5359 
L 4338 5272 
Q 4197 4984 4044 4728 
L 5394 4728 
L 5394 4316 
L 4825 3591 
L 5869 3591 
L 5869 2459 
L 6306 2459 
L 6306 2059 
L 5869 2059 
L 5869 647 
L 5419 647 
L 5419 922 
L 4613 922 
L 4613 3 
Q 4613 -728 3888 -728 
Q 3588 -728 3200 -722 
Q 3175 -516 3119 -228 
Q 3475 -278 3775 -278 
Q 4163 -278 4163 128 
L 4163 922 
L 3006 922 
L 3006 1322 
z
M 906 -791 
L 469 -791 
L 469 2397 
L 2606 2397 
L 2606 -122 
Q 2606 -753 1988 -753 
L 1456 -753 
Q 1431 -572 1369 -309 
Q 1675 -341 1856 -341 
Q 2169 -341 2169 -59 
L 2169 409 
L 906 409 
L 906 -791 
z
M 131 3116 
L 1313 3116 
L 1313 3547 
L 394 3547 
L 394 3909 
L 1313 3909 
L 1313 4303 
L 238 4303 
L 238 4678 
L 1313 4678 
L 1313 5316 
L 1763 5316 
L 1763 4678 
L 2838 4678 
L 2838 4303 
L 1763 4303 
L 1763 3909 
L 2681 3909 
L 2681 3547 
L 1763 3547 
L 1763 3116 
L 2931 3116 
L 2931 2741 
L 131 2741 
L 131 3116 
z
M 4613 1322 
L 5419 1322 
L 5419 2059 
L 4613 2059 
L 4613 1322 
z
M 5419 3191 
L 4613 3191 
L 4613 2459 
L 5419 2459 
L 5419 3191 
z
M 2169 2034 
L 906 2034 
L 906 1572 
L 2169 1572 
L 2169 2034 
z
M 906 759 
L 2169 759 
L 2169 1222 
L 906 1222 
L 906 759 
z
" transform="scale(0.015625)"/>
      <path id="MicrosoftYaHei-8109" d="M 506 4941 
L 2144 4941 
L 2144 -84 
Q 2144 -728 1538 -728 
Q 1319 -728 1031 -716 
Q 1013 -503 956 -266 
Q 1256 -303 1425 -303 
Q 1706 -303 1706 -16 
L 1706 1391 
L 944 1391 
Q 947 -94 444 -859 
Q 313 -678 88 -472 
Q 506 184 506 1472 
L 506 4941 
z
M 5706 3734 
L 6119 3434 
Q 5606 2822 4919 2197 
Q 5441 956 6338 303 
Q 6138 116 5950 -134 
Q 4984 653 4481 2200 
L 4481 34 
Q 4481 -741 3775 -741 
Q 3494 -741 3125 -734 
Q 3113 -466 3013 -197 
Q 3306 -259 3656 -259 
Q 4019 -259 4019 109 
L 4019 3784 
L 2531 3784 
L 2531 4222 
L 4481 4222 
L 4481 3631 
Q 4594 3103 4750 2641 
Q 5288 3172 5706 3734 
z
M 2369 2566 
L 2369 3003 
L 3600 3003 
L 3600 2597 
Q 3394 834 2513 -203 
Q 2369 22 2175 228 
Q 3000 1097 3144 2566 
L 2369 2566 
z
M 944 1791 
L 1706 1791 
L 1706 2959 
L 944 2959 
L 944 1791 
z
M 1706 4528 
L 944 4528 
L 944 3359 
L 1706 3359 
L 1706 4528 
z
M 3450 5359 
Q 4369 5041 5169 4684 
L 4925 4241 
Q 4056 4678 3231 4966 
L 3450 5359 
z
" transform="scale(0.015625)"/>
      <path id="MicrosoftYaHei-ff09" d="M 1113 -1100 
L 575 -1100 
Q 1684 163 1684 1888 
Q 1684 3581 581 4838 
L 1113 4838 
Q 2222 3628 2222 1888 
Q 2222 128 1113 -1100 
z
" transform="scale(0.015625)"/>
     </defs>
     <use xlink:href="#MicrosoftYaHei-542b"/>
     <use xlink:href="#MicrosoftYaHei-6c27" transform="translate(100 0)"/>
     <use xlink:href="#MicrosoftYaHei-5c11" transform="translate(200 0)"/>
     <use xlink:href="#MicrosoftYaHei-7684" transform="translate(300 0)"/>
     <use xlink:href="#MicrosoftYaHei-8840" transform="translate(400 0)"/>
     <use xlink:href="#MicrosoftYaHei-6db2" transform="translate(500 0)"/>
     <use xlink:href="#MicrosoftYaHei-ff08" transform="translate(600 0)"/>
     <use xlink:href="#MicrosoftYaHei-9759" transform="translate(700 0)"/>
     <use xlink:href="#MicrosoftYaHei-8109" transform="translate(800 0)"/>
     <use xlink:href="#MicrosoftYaHei-8840" transform="translate(900 0)"/>
     <use xlink:href="#MicrosoftYaHei-ff09" transform="translate(1000 0)"/>
    </g>
   </g>
   <g id="text_15">
    <!-- 含氧多的血液（动脉血） -->
    <g style="fill: #555555" transform="translate(37.332 57.164075) scale(0.07 -0.07)">
     <defs>
      <path id="MicrosoftYaHei-52a8" d="M 2975 4022 
L 3906 4022 
Q 3916 4650 3913 5309 
L 4425 5309 
Q 4422 4656 4409 4022 
L 6094 4022 
Q 6050 1659 5969 216 
Q 5900 -666 5150 -678 
Q 4763 -678 4306 -659 
Q 4263 -397 4206 -109 
Q 4638 -166 4994 -172 
Q 5456 -172 5475 347 
Q 5569 1897 5588 3547 
L 4400 3547 
Q 4394 3278 4388 3016 
Q 4356 553 2900 -872 
Q 2725 -659 2525 -447 
Q 3831 716 3888 3028 
Q 3894 3284 3900 3547 
L 2975 3547 
L 2975 4022 
z
M 2338 1866 
Q 2731 1016 3063 178 
Q 2788 59 2594 -28 
Q 2550 91 2506 209 
Q 1316 97 338 -16 
L 119 491 
Q 394 647 563 997 
Q 869 1613 1200 2559 
L 144 2559 
L 144 3022 
L 3163 3022 
L 3163 2559 
L 1725 2559 
Q 1191 1228 800 491 
Q 1519 544 2347 631 
Q 2138 1163 1906 1672 
L 2338 1866 
z
M 406 4778 
L 2913 4778 
L 2913 4316 
L 406 4316 
L 406 4778 
z
" transform="scale(0.015625)"/>
     </defs>
     <use xlink:href="#MicrosoftYaHei-542b"/>
     <use xlink:href="#MicrosoftYaHei-6c27" transform="translate(100 0)"/>
     <use xlink:href="#MicrosoftYaHei-591a" transform="translate(200 0)"/>
     <use xlink:href="#MicrosoftYaHei-7684" transform="translate(300 0)"/>
     <use xlink:href="#MicrosoftYaHei-8840" transform="translate(400 0)"/>
     <use xlink:href="#MicrosoftYaHei-6db2" transform="translate(500 0)"/>
     <use xlink:href="#MicrosoftYaHei-ff08" transform="translate(600 0)"/>
     <use xlink:href="#MicrosoftYaHei-52a8" transform="translate(700 0)"/>
     <use xlink:href="#MicrosoftYaHei-8109" transform="translate(800 0)"/>
     <use xlink:href="#MicrosoftYaHei-8840" transform="translate(900 0)"/>
     <use xlink:href="#MicrosoftYaHei-ff09" transform="translate(1000 0)"/>
    </g>
   </g>
   <g id="text_16">
    <!-- Blood Circulation: Double Loop (血液循环) -->
    <g style="fill: #2c3e50" transform="translate(49.654687 17.236875) scale(0.12 -0.12)">
     <defs>
      <path id="MicrosoftYaHei-Bold-42" d="M 559 0 
L 559 4841 
L 2278 4841 
Q 3069 4841 3497 4541 
Q 3925 4241 3925 3709 
Q 3925 3316 3659 3019 
Q 3394 2722 2991 2609 
L 2991 2597 
Q 3497 2534 3808 2221 
Q 4119 1909 4119 1438 
Q 4119 778 3650 389 
Q 3181 0 2369 0 
L 559 0 
z
M 1591 4072 
L 1591 2875 
L 2081 2875 
Q 2434 2875 2637 3044 
Q 2841 3213 2841 3516 
Q 2841 4072 2028 4072 
L 1591 4072 
z
M 1591 2097 
L 1591 769 
L 2203 769 
Q 2594 769 2814 950 
Q 3034 1131 3034 1453 
Q 3034 1759 2815 1928 
Q 2597 2097 2194 2097 
L 1591 2097 
z
" transform="scale(0.015625)"/>
      <path id="MicrosoftYaHei-Bold-6c" d="M 444 0 
L 444 5116 
L 1450 5116 
L 1450 0 
L 444 0 
z
" transform="scale(0.015625)"/>
      <path id="MicrosoftYaHei-Bold-6f" d="M 253 1713 
Q 253 2566 764 3053 
Q 1275 3541 2138 3541 
Q 2972 3541 3462 3061 
Q 3953 2581 3953 1772 
Q 3953 922 3450 419 
Q 2947 -84 2088 -84 
Q 1244 -84 748 398 
Q 253 881 253 1713 
z
M 1275 1725 
Q 1275 691 2119 691 
Q 2928 691 2928 1753 
Q 2928 2766 2113 2766 
Q 1716 2766 1495 2494 
Q 1275 2222 1275 1725 
z
" transform="scale(0.015625)"/>
      <path id="MicrosoftYaHei-Bold-64" d="M 3794 0 
L 2788 0 
L 2788 488 
L 2772 488 
Q 2406 -84 1691 -84 
Q 1031 -84 642 381 
Q 253 847 253 1650 
Q 253 2500 689 3020 
Q 1125 3541 1828 3541 
Q 2503 3541 2772 3053 
L 2788 3053 
L 2788 5116 
L 3794 5116 
L 3794 0 
z
M 2803 1956 
Q 2803 2306 2592 2536 
Q 2381 2766 2066 2766 
Q 1697 2766 1486 2473 
Q 1275 2181 1275 1681 
Q 1275 1206 1478 948 
Q 1681 691 2038 691 
Q 2372 691 2587 962 
Q 2803 1234 2803 1669 
L 2803 1956 
z
" transform="scale(0.015625)"/>
      <path id="MicrosoftYaHei-Bold-43" d="M 4013 175 
Q 3484 -84 2634 -84 
Q 1541 -84 898 570 
Q 256 1225 256 2316 
Q 256 3463 973 4192 
Q 1691 4922 2825 4922 
Q 3534 4922 4013 4738 
L 4013 3741 
Q 3522 4028 2900 4028 
Q 2191 4028 1766 3575 
Q 1341 3122 1341 2391 
Q 1341 1678 1744 1243 
Q 2147 809 2834 809 
Q 3481 809 4013 1122 
L 4013 175 
z
" transform="scale(0.015625)"/>
      <path id="MicrosoftYaHei-Bold-69" d="M 369 4572 
Q 369 4803 533 4948 
Q 697 5094 953 5094 
Q 1216 5094 1378 4945 
Q 1541 4797 1541 4572 
Q 1541 4344 1375 4192 
Q 1209 4041 953 4041 
Q 700 4041 534 4194 
Q 369 4347 369 4572 
z
M 444 0 
L 444 3456 
L 1450 3456 
L 1450 0 
L 444 0 
z
" transform="scale(0.015625)"/>
      <path id="MicrosoftYaHei-Bold-63" d="M 3050 128 
Q 2688 -84 2019 -84 
Q 1228 -84 740 397 
Q 253 878 253 1644 
Q 253 2525 778 3033 
Q 1303 3541 2178 3541 
Q 2769 3541 3053 3378 
L 3053 2513 
Q 2706 2766 2297 2766 
Q 1834 2766 1554 2484 
Q 1275 2203 1275 1713 
Q 1275 1238 1540 964 
Q 1806 691 2263 691 
Q 2666 691 3050 947 
L 3050 128 
z
" transform="scale(0.015625)"/>
      <path id="MicrosoftYaHei-Bold-75" d="M 3691 0 
L 2688 0 
L 2688 528 
L 2672 528 
Q 2284 -84 1613 -84 
Q 406 -84 406 1372 
L 406 3456 
L 1416 3456 
L 1416 1466 
Q 1416 691 2022 691 
Q 2325 691 2506 903 
Q 2688 1116 2688 1478 
L 2688 3456 
L 3691 3456 
L 3691 0 
z
" transform="scale(0.015625)"/>
      <path id="MicrosoftYaHei-Bold-6e" d="M 3744 0 
L 2741 0 
L 2741 1928 
Q 2741 2766 2138 2766 
Q 1850 2766 1659 2542 
Q 1469 2319 1469 1972 
L 1469 0 
L 459 0 
L 459 3456 
L 1469 3456 
L 1469 2906 
L 1481 2906 
Q 1859 3541 2594 3541 
Q 3744 3541 3744 2116 
L 3744 0 
z
" transform="scale(0.015625)"/>
      <path id="MicrosoftYaHei-Bold-3a" d="M 313 2969 
Q 313 3200 491 3350 
Q 669 3500 916 3500 
Q 1166 3500 1337 3350 
Q 1509 3200 1509 2969 
Q 1509 2728 1337 2579 
Q 1166 2431 903 2431 
Q 653 2431 483 2584 
Q 313 2738 313 2969 
z
M 313 453 
Q 313 688 491 838 
Q 669 988 916 988 
Q 1166 988 1337 834 
Q 1509 681 1509 453 
Q 1509 213 1337 64 
Q 1166 -84 903 -84 
Q 659 -84 486 69 
Q 313 222 313 453 
z
" transform="scale(0.015625)"/>
      <path id="MicrosoftYaHei-Bold-44" d="M 559 0 
L 559 4841 
L 2231 4841 
Q 4809 4841 4809 2481 
Q 4809 1359 4087 679 
Q 3366 0 2225 0 
L 559 0 
z
M 1591 3997 
L 1591 844 
L 2153 844 
Q 2888 844 3306 1281 
Q 3725 1719 3725 2466 
Q 3725 3188 3287 3592 
Q 2850 3997 2150 3997 
L 1591 3997 
z
" transform="scale(0.015625)"/>
      <path id="MicrosoftYaHei-Bold-62" d="M 1469 416 
L 1469 0 
L 459 0 
L 459 5116 
L 1469 5116 
L 1469 2928 
L 1481 2928 
Q 1878 3541 2613 3541 
Q 3266 3541 3636 3084 
Q 4006 2628 4006 1825 
Q 4006 966 3581 441 
Q 3156 -84 2453 -84 
Q 1809 -84 1481 416 
L 1469 416 
z
M 1453 1494 
Q 1453 1153 1656 922 
Q 1859 691 2172 691 
Q 2550 691 2761 984 
Q 2972 1278 2972 1816 
Q 2972 2263 2780 2514 
Q 2588 2766 2231 2766 
Q 1894 2766 1673 2512 
Q 1453 2259 1453 1863 
L 1453 1494 
z
" transform="scale(0.015625)"/>
      <path id="MicrosoftYaHei-Bold-4c" d="M 3400 0 
L 559 0 
L 559 4841 
L 1591 4841 
L 1591 844 
L 3400 844 
L 3400 0 
z
" transform="scale(0.015625)"/>
      <path id="MicrosoftYaHei-Bold-70" d="M 1469 416 
L 1469 -1591 
L 459 -1591 
L 459 3456 
L 1469 3456 
L 1469 2928 
L 1481 2928 
Q 1878 3541 2603 3541 
Q 3263 3541 3634 3080 
Q 4006 2619 4006 1825 
Q 4006 959 3575 437 
Q 3144 -84 2444 -84 
Q 1809 -84 1481 416 
L 1469 416 
z
M 1453 1528 
Q 1453 1159 1653 925 
Q 1853 691 2172 691 
Q 2550 691 2761 984 
Q 2972 1278 2972 1816 
Q 2972 2766 2231 2766 
Q 1888 2766 1670 2503 
Q 1453 2241 1453 1828 
L 1453 1528 
z
" transform="scale(0.015625)"/>
      <path id="MicrosoftYaHei-Bold-28" d="M 1606 -1100 
Q 525 97 525 1853 
Q 525 3550 1606 4841 
L 2431 4841 
Q 1406 3497 1406 1853 
Q 1406 216 2438 -1100 
L 1606 -1100 
z
" transform="scale(0.015625)"/>
      <path id="MicrosoftYaHei-Bold-8840" d="M 2588 5341 
L 3619 5197 
Q 3441 4738 3306 4416 
L 5756 4416 
L 5756 353 
L 6275 353 
L 6275 -459 
L 125 -459 
L 125 353 
L 644 353 
L 644 4416 
L 2356 4416 
Q 2509 4959 2588 5341 
z
M 1513 353 
L 2081 353 
L 2081 3616 
L 1513 3616 
L 1513 353 
z
M 4888 3616 
L 4319 3616 
L 4319 353 
L 4888 353 
L 4888 3616 
z
M 2919 353 
L 3481 353 
L 3481 3616 
L 2919 3616 
L 2919 353 
z
" transform="scale(0.015625)"/>
      <path id="MicrosoftYaHei-Bold-6db2" d="M 2750 -866 
L 1975 -866 
L 1975 1753 
Q 1769 1428 1544 1091 
Q 1500 1259 1456 1416 
Q 1206 453 919 -822 
Q 488 -653 113 -528 
Q 419 459 713 1872 
Q 1088 1691 1413 1572 
Q 1344 1834 1269 2041 
Q 2000 3041 2281 3941 
L 1663 3941 
L 1663 4691 
L 3600 4691 
Q 3500 4922 3381 5184 
L 4313 5353 
Q 4450 5084 4619 4691 
L 6275 4691 
L 6275 3941 
L 3794 3941 
L 4488 3784 
Q 4425 3609 4356 3447 
L 6075 3447 
L 6075 2778 
Q 5894 1491 5131 566 
Q 5638 209 6363 -22 
Q 6138 -384 5888 -847 
Q 5056 -472 4531 -28 
Q 4038 -441 3250 -884 
Q 3000 -534 2750 -241 
L 2750 -866 
z
M 5263 2709 
L 4025 2709 
Q 3938 2522 3838 2341 
Q 4119 1609 4544 1103 
Q 5138 1803 5263 2709 
z
M 3963 572 
Q 3638 991 3381 1547 
Q 3231 1309 3075 1078 
Q 2900 1478 2750 1784 
L 2750 -153 
Q 3506 241 3963 572 
z
M 606 3609 
Q 1056 3247 1538 2834 
L 944 2147 
Q 513 2591 81 2972 
L 606 3609 
z
M 644 5266 
Q 1125 4897 1575 4497 
L 1000 3853 
Q 544 4291 113 4684 
L 644 5266 
z
M 3106 3834 
Q 2944 3478 2750 3103 
L 2750 1997 
Q 3369 2903 3738 3941 
L 2719 3941 
L 3106 3834 
z
M 4038 2447 
L 4550 2697 
Q 4788 2272 4975 1928 
L 4456 1659 
Q 4269 2028 4038 2447 
z
" transform="scale(0.015625)"/>
      <path id="MicrosoftYaHei-Bold-29" d="M 59 -1100 
Q 1097 216 1097 1853 
Q 1097 3484 59 4841 
L 888 4841 
Q 1978 3544 1978 1853 
Q 1978 113 881 -1100 
L 59 -1100 
z
" transform="scale(0.015625)"/>
     </defs>
     <use xlink:href="#MicrosoftYaHei-Bold-42"/>
     <use xlink:href="#MicrosoftYaHei-Bold-6c" transform="translate(68.359375 0)"/>
     <use xlink:href="#MicrosoftYaHei-Bold-6f" transform="translate(97.949219 0)"/>
     <use xlink:href="#MicrosoftYaHei-Bold-6f" transform="translate(163.671875 0)"/>
     <use xlink:href="#MicrosoftYaHei-Bold-64" transform="translate(229.394531 0)"/>
     <use xlink:href="#MicrosoftYaHei-Bold-20" transform="translate(295.849609 0)"/>
     <use xlink:href="#MicrosoftYaHei-Bold-43" transform="translate(325.634766 0)"/>
     <use xlink:href="#MicrosoftYaHei-Bold-69" transform="translate(392.96875 0)"/>
     <use xlink:href="#MicrosoftYaHei-Bold-72" transform="translate(422.558594 0)"/>
     <use xlink:href="#MicrosoftYaHei-Bold-63" transform="translate(464.441406 0)"/>
     <use xlink:href="#MicrosoftYaHei-Bold-75" transform="translate(516.101562 0)"/>
     <use xlink:href="#MicrosoftYaHei-Bold-6c" transform="translate(580.896484 0)"/>
     <use xlink:href="#MicrosoftYaHei-Bold-61" transform="translate(610.486328 0)"/>
     <use xlink:href="#MicrosoftYaHei-Bold-74" transform="translate(668.25 0)"/>
     <use xlink:href="#MicrosoftYaHei-Bold-69" transform="translate(709.65625 0)"/>
     <use xlink:href="#MicrosoftYaHei-Bold-6f" transform="translate(739.246094 0)"/>
     <use xlink:href="#MicrosoftYaHei-Bold-6e" transform="translate(804.96875 0)"/>
     <use xlink:href="#MicrosoftYaHei-Bold-3a" transform="translate(869.763672 0)"/>
     <use xlink:href="#MicrosoftYaHei-Bold-20" transform="translate(898.328125 0)"/>
     <use xlink:href="#MicrosoftYaHei-Bold-44" transform="translate(928.113281 0)"/>
     <use xlink:href="#MicrosoftYaHei-Bold-6f" transform="translate(1007.263672 0)"/>
     <use xlink:href="#MicrosoftYaHei-Bold-75" transform="translate(1072.986328 0)"/>
     <use xlink:href="#MicrosoftYaHei-Bold-62" transform="translate(1137.78125 0)"/>
     <use xlink:href="#MicrosoftYaHei-Bold-6c" transform="translate(1204.382812 0)"/>
     <use xlink:href="#MicrosoftYaHei-Bold-65" transform="translate(1233.972656 0)"/>
     <use xlink:href="#MicrosoftYaHei-Bold-20" transform="translate(1292.175781 0)"/>
     <use xlink:href="#MicrosoftYaHei-Bold-4c" transform="translate(1321.960938 0)"/>
     <use xlink:href="#MicrosoftYaHei-Bold-6f" transform="translate(1376.648438 0)"/>
     <use xlink:href="#MicrosoftYaHei-Bold-6f" transform="translate(1442.371094 0)"/>
     <use xlink:href="#MicrosoftYaHei-Bold-70" transform="translate(1508.09375 0)"/>
     <use xlink:href="#MicrosoftYaHei-Bold-20" transform="translate(1574.695312 0)"/>
     <use xlink:href="#MicrosoftYaHei-Bold-28" transform="translate(1604.480469 0)"/>
     <use xlink:href="#MicrosoftYaHei-Bold-8840" transform="translate(1643.445312 0)"/>
     <use xlink:href="#MicrosoftYaHei-Bold-6db2" transform="translate(1743.445312 0)"/>
     <use xlink:href="#MicrosoftYaHei-Bold-5faa" transform="translate(1843.445312 0)"/>
     <use xlink:href="#MicrosoftYaHei-Bold-73af" transform="translate(1943.445312 0)"/>
     <use xlink:href="#MicrosoftYaHei-Bold-29" transform="translate(2043.445312 0)"/>
    </g>
   </g>
  </g>
 </g>
 <defs>
  <clipPath id="pae1557f797">
   <rect x="7.2" y="22.236875" width="334.8" height="332.64"/>
  </clipPath>
 </defs>
</svg>
