<?xml version="1.0" encoding="utf-8" standalone="no"?>
<!DOCTYPE svg PUBLIC "-//W3C//DTD SVG 1.1//EN"
  "http://www.w3.org/Graphics/SVG/1.1/DTD/svg11.dtd">
<svg xmlns:xlink="http://www.w3.org/1999/xlink" width="534.395602pt" height="285.84pt" viewBox="0 0 534.395602 285.84" xmlns="http://www.w3.org/2000/svg" version="1.1">
 <metadata>
  <rdf:RDF xmlns:dc="http://purl.org/dc/elements/1.1/" xmlns:cc="http://creativecommons.org/ns#" xmlns:rdf="http://www.w3.org/1999/02/22-rdf-syntax-ns#">
   <cc:Work>
    <dc:type rdf:resource="http://purl.org/dc/dcmitype/StillImage"/>
    <dc:date>2026-05-25T22:58:36.617898</dc:date>
    <dc:format>image/svg+xml</dc:format>
    <dc:creator>
     <cc:Agent>
      <dc:title>Matplotlib v3.10.9, https://matplotlib.org/</dc:title>
     </cc:Agent>
    </dc:creator>
   </cc:Work>
  </rdf:RDF>
 </metadata>
 <defs>
  <style type="text/css">*{stroke-linejoin: round; stroke-linecap: butt}</style>
 </defs>
 <g id="figure_1">
  <g id="patch_1">
   <path d="M 0 285.84 
L 534.395602 285.84 
L 534.395602 0 
L 0 0 
z
" style="fill: #ffffff"/>
  </g>
  <g id="axes_1">
   <g id="patch_2">
    <path d="M 126.997875 256.086375 
L 61.65358 210.979125 
L 50.762864 165.871875 
L 83.435011 120.764625 
L 126.997875 98.211 
L 170.560739 120.764625 
L 203.232886 165.871875 
L 192.34217 210.979125 
z
" clip-path="url(#p0a84304a79)" style="fill: #27ae60; opacity: 0.2; stroke: #27ae60; stroke-width: 2; stroke-linejoin: miter"/>
   </g>
   <g id="patch_3">
    <path d="M 203.232886 111.743175 
C 206.121138 111.743175 208.891483 109.366783 210.933785 105.137371 
C 212.976088 100.90796 214.123602 95.170841 214.123602 89.18955 
C 214.123602 83.208259 212.976088 77.47114 210.933785 73.241729 
C 208.891483 69.012317 206.121138 66.635925 203.232886 66.635925 
C 200.344635 66.635925 197.57429 69.012317 195.531987 73.241729 
C 193.489685 77.47114 192.34217 83.208259 192.34217 89.18955 
C 192.34217 95.170841 193.489685 100.90796 195.531987 105.137371 
C 197.57429 109.366783 200.344635 111.743175 203.232886 111.743175 
z
" clip-path="url(#p0a84304a79)" style="fill: #f1c40f; opacity: 0.6; stroke: #f39c12; stroke-width: 1.5; stroke-linejoin: miter"/>
   </g>
   <g id="text_1">
    <!-- ☀ -->
    <g transform="translate(197.654136 93.5958) scale(0.16 -0.16)">
     <defs>
      <path id="MicrosoftYaHei-2600" d="M 559 0 
L 559 4719 
L 3900 4719 
L 3900 0 
L 559 0 
z
M 1059 500 
L 3403 500 
L 3403 4219 
L 1059 4219 
L 1059 500 
z
" transform="scale(0.015625)"/>
     </defs>
     <use xlink:href="#MicrosoftYaHei-2600"/>
    </g>
   </g>
   <g id="patch_4">
    <path d="M 32.698984 201.569571 
Q 46.266149 195.410695 57.79722 190.176112 
" style="fill: none; stroke: #e74c3c; stroke-width: 2; stroke-linecap: round"/>
    <path d="M 53.328229 190.008402 
L 57.79722 190.176112 
L 54.981657 193.650678 
" style="fill: none; stroke: #e74c3c; stroke-width: 2; stroke-linecap: round"/>
   </g>
   <g id="text_2">
    <!-- CO₂ -->
    <g transform="translate(7.2 210.979125) scale(0.1 -0.1)">
     <defs>
      <path id="MicrosoftYaHei-43" d="M 3938 200 
Q 3403 -81 2597 -81 
Q 1556 -81 934 580 
Q 313 1241 313 2328 
Q 313 3497 1013 4209 
Q 1713 4922 2791 4922 
Q 3484 4922 3938 4725 
L 3938 4072 
Q 3419 4359 2797 4359 
Q 1988 4359 1478 3820 
Q 969 3281 969 2366 
Q 969 1497 1444 986 
Q 1919 475 2688 475 
Q 3406 475 3938 800 
L 3938 200 
z
" transform="scale(0.015625)"/>
      <path id="MicrosoftYaHei-4f" d="M 313 2363 
Q 313 3534 947 4228 
Q 1581 4922 2666 4922 
Q 3675 4922 4290 4244 
Q 4906 3566 4906 2478 
Q 4906 1300 4275 609 
Q 3644 -81 2588 -81 
Q 1556 -81 934 597 
Q 313 1275 313 2363 
z
M 969 2413 
Q 969 1534 1417 1004 
Q 1866 475 2588 475 
Q 3363 475 3805 983 
Q 4247 1491 4247 2403 
Q 4247 3341 3814 3850 
Q 3381 4359 2628 4359 
Q 1888 4359 1428 3821 
Q 969 3284 969 2413 
z
" transform="scale(0.015625)"/>
      <path id="MicrosoftYaHei-2082" d="M 559 0 
L 559 4719 
L 3900 4719 
L 3900 0 
L 559 0 
z
M 1059 500 
L 3403 500 
L 3403 4219 
L 1059 4219 
L 1059 500 
z
" transform="scale(0.015625)"/>
     </defs>
     <use xlink:href="#MicrosoftYaHei-43"/>
     <use xlink:href="#MicrosoftYaHei-4f" transform="translate(65.519531 0)"/>
     <use xlink:href="#MicrosoftYaHei-2082" transform="translate(147.013672 0)"/>
    </g>
   </g>
   <g id="patch_5">
    <path d="M 32.753287 254.106184 
Q 57.229553 239.813611 79.774858 226.648596 
" style="fill: none; stroke: #3498db; stroke-width: 2; stroke-linecap: round"/>
    <path d="M 75.31213 226.938528 
L 79.774858 226.648596 
L 77.329167 230.392737 
" style="fill: none; stroke: #3498db; stroke-width: 2; stroke-linecap: round"/>
   </g>
   <g id="text_3">
    <!-- H₂O -->
    <g transform="translate(7.2 265.107825) scale(0.1 -0.1)">
     <defs>
      <path id="MicrosoftYaHei-48" d="M 4325 0 
L 3700 0 
L 3700 2181 
L 1250 2181 
L 1250 0 
L 625 0 
L 625 4841 
L 1250 4841 
L 1250 2738 
L 3700 2738 
L 3700 4841 
L 4325 4841 
L 4325 0 
z
" transform="scale(0.015625)"/>
     </defs>
     <use xlink:href="#MicrosoftYaHei-48"/>
     <use xlink:href="#MicrosoftYaHei-2082" transform="translate(77.34375 0)"/>
     <use xlink:href="#MicrosoftYaHei-4f" transform="translate(147.070312 0)"/>
    </g>
   </g>
   <g id="patch_6">
    <path d="M 231.964977 107.49907 
Q 207.674768 113.878018 185.547292 119.689001 
" style="fill: none; stroke: #e74c3c; stroke-width: 2; stroke-linecap: round"/>
    <path d="M 189.92411 120.607404 
L 185.547292 119.689001 
L 188.908106 116.738588 
" style="fill: none; stroke: #e74c3c; stroke-width: 2; stroke-linecap: round"/>
   </g>
   <g id="text_4">
    <!-- O₂ -->
    <g transform="translate(235.905034 107.23245) scale(0.1 -0.1)">
     <use xlink:href="#MicrosoftYaHei-4f"/>
     <use xlink:href="#MicrosoftYaHei-2082" transform="translate(81.494141 0)"/>
    </g>
   </g>
   <g id="patch_7">
    <path d="M 221.029425 219.210551 
Q 191.340298 215.227725 163.867385 211.542205 
" style="fill: none; stroke: #f39c12; stroke-width: 2; stroke-linecap: round"/>
    <path d="M 167.565951 214.056288 
L 163.867385 211.542205 
L 168.097791 210.091802 
" style="fill: none; stroke: #f39c12; stroke-width: 2; stroke-linecap: round"/>
   </g>
   <g id="text_5">
    <!-- 有机物 -->
    <g transform="translate(225.014318 224.5113) scale(0.1 -0.1)">
     <defs>
      <path id="MicrosoftYaHei-6709" d="M 1856 -816 
L 1363 -816 
L 1363 2419 
Q 909 1891 363 1403 
Q 231 1622 63 1859 
Q 1269 2869 1947 4097 
L 238 4097 
L 238 4559 
L 2181 4559 
Q 2359 4950 2488 5359 
L 3006 5241 
Q 2881 4894 2731 4559 
L 6263 4559 
L 6263 4097 
L 2506 4097 
Q 2313 3728 2081 3378 
L 5506 3378 
L 5506 41 
Q 5506 -734 4750 -734 
Q 4419 -741 3744 -741 
Q 3713 -528 3650 -228 
Q 4225 -272 4575 -272 
Q 5006 -272 5006 153 
L 5006 597 
L 1856 597 
L 1856 -816 
z
M 1856 1022 
L 5006 1022 
L 5006 1772 
L 1856 1772 
L 1856 1022 
z
M 5006 2941 
L 1856 2941 
L 1856 2197 
L 5006 2197 
L 5006 2941 
z
" transform="scale(0.015625)"/>
      <path id="MicrosoftYaHei-673a" d="M 3375 4434 
L 3375 2366 
Q 3375 128 2256 -878 
Q 2081 -666 1888 -453 
Q 2875 416 2875 2253 
L 2875 4909 
L 5200 4909 
L 5200 209 
Q 5200 -103 5419 -103 
L 5563 -103 
Q 5763 -103 5819 247 
Q 5881 728 5906 1284 
Q 6125 1178 6381 1084 
Q 6325 466 6269 72 
Q 6169 -591 5631 -591 
L 5300 -591 
Q 4700 -591 4700 122 
L 4700 4434 
L 3375 4434 
z
M 81 1403 
Q 781 2447 1078 3653 
L 144 3653 
L 144 4078 
L 1119 4078 
L 1119 5309 
L 1569 5309 
L 1569 4078 
L 2444 4078 
L 2444 3653 
L 1569 3653 
L 1569 2616 
L 1819 2866 
Q 2300 2428 2575 2153 
L 2238 1809 
Q 1853 2234 1569 2516 
L 1569 -784 
L 1119 -784 
L 1119 2566 
Q 784 1506 288 853 
Q 188 1134 81 1403 
z
" transform="scale(0.015625)"/>
      <path id="MicrosoftYaHei-7269" d="M 2131 2866 
Q 2750 3816 3263 5341 
L 3719 5203 
Q 3541 4706 3363 4278 
L 6075 4278 
Q 5950 1759 5869 422 
Q 5800 -622 4869 -622 
Q 4519 -622 4044 -603 
Q 4013 -372 3956 -72 
Q 4500 -134 4819 -134 
Q 5325 -134 5375 441 
Q 5488 1759 5575 3834 
L 5097 3834 
Q 4934 2241 4569 1322 
Q 4069 134 2869 -716 
Q 2731 -522 2550 -334 
Q 3719 491 4169 1559 
Q 4531 2438 4634 3834 
L 4078 3834 
Q 3909 2641 3575 1916 
Q 3163 1097 2444 447 
Q 2288 647 2119 816 
Q 2831 1434 3175 2116 
Q 3509 2809 3619 3834 
L 3169 3834 
Q 2850 3125 2531 2628 
Q 2375 2734 2131 2866 
z
M 94 1584 
Q 669 1775 1288 1991 
L 1288 3466 
L 722 3466 
Q 597 2872 419 2378 
Q 219 2522 13 2653 
Q 363 3509 456 4709 
L 906 4634 
Q 863 4244 800 3884 
L 1288 3884 
L 1288 5291 
L 1756 5291 
L 1756 3884 
L 2375 3884 
L 2375 3466 
L 1756 3466 
L 1756 2156 
Q 2063 2269 2381 2384 
Q 2413 2109 2450 1909 
Q 2141 1797 1756 1653 
L 1756 -834 
L 1288 -834 
L 1288 1475 
Q 788 1288 188 1053 
L 94 1584 
z
" transform="scale(0.015625)"/>
     </defs>
     <use xlink:href="#MicrosoftYaHei-6709"/>
     <use xlink:href="#MicrosoftYaHei-673a" transform="translate(100 0)"/>
     <use xlink:href="#MicrosoftYaHei-7269" transform="translate(200 0)"/>
    </g>
   </g>
   <g id="text_6">
    <g id="patch_8">
     <path d="M 65.638969 139.234144 
L 188.356781 139.234144 
Q 191.056781 139.234144 191.056781 136.534144 
L 191.056781 127.102425 
Q 191.056781 124.402425 188.356781 124.402425 
L 65.638969 124.402425 
Q 62.938969 124.402425 62.938969 127.102425 
L 62.938969 136.534144 
Q 62.938969 139.234144 65.638969 139.234144 
z
" style="fill: #ffffff; stroke: #27ae60; stroke-linejoin: miter"/>
    </g>
    <!-- CO₂ + H₂O  → 有机物 + O₂ -->
    <g style="fill: #2c3e50" transform="translate(65.638969 134.2968) scale(0.09 -0.09)">
     <defs>
      <path id="MicrosoftYaHei-Bold-43" d="M 4013 175 
Q 3484 -84 2634 -84 
Q 1541 -84 898 570 
Q 256 1225 256 2316 
Q 256 3463 973 4192 
Q 1691 4922 2825 4922 
Q 3534 4922 4013 4738 
L 4013 3741 
Q 3522 4028 2900 4028 
Q 2191 4028 1766 3575 
Q 1341 3122 1341 2391 
Q 1341 1678 1744 1243 
Q 2147 809 2834 809 
Q 3481 809 4013 1122 
L 4013 175 
z
" transform="scale(0.015625)"/>
      <path id="MicrosoftYaHei-Bold-4f" d="M 256 2356 
Q 256 3494 920 4208 
Q 1584 4922 2675 4922 
Q 3713 4922 4345 4231 
Q 4978 3541 4978 2456 
Q 4978 1325 4320 620 
Q 3663 -84 2597 -84 
Q 1556 -84 906 598 
Q 256 1281 256 2356 
z
M 1341 2413 
Q 1341 1706 1681 1257 
Q 2022 809 2616 809 
Q 3222 809 3559 1239 
Q 3897 1669 3897 2394 
Q 3897 3150 3569 3589 
Q 3241 4028 2644 4028 
Q 2038 4028 1689 3578 
Q 1341 3128 1341 2413 
z
" transform="scale(0.015625)"/>
      <path id="MicrosoftYaHei-Bold-2082" d="M 559 0 
L 559 4719 
L 3900 4719 
L 3900 0 
L 559 0 
z
M 1059 500 
L 3403 500 
L 3403 4219 
L 1059 4219 
L 1059 500 
z
" transform="scale(0.015625)"/>
      <path id="MicrosoftYaHei-Bold-20" transform="scale(0.015625)"/>
      <path id="MicrosoftYaHei-Bold-2b" d="M 4072 1653 
L 2766 1653 
L 2766 347 
L 2109 347 
L 2109 1653 
L 797 1653 
L 797 2313 
L 2109 2313 
L 2109 3625 
L 2766 3625 
L 2766 2313 
L 4072 2313 
L 4072 1653 
z
" transform="scale(0.015625)"/>
      <path id="MicrosoftYaHei-Bold-48" d="M 4684 0 
L 3653 0 
L 3653 1997 
L 1591 1997 
L 1591 0 
L 559 0 
L 559 4841 
L 1591 4841 
L 1591 2888 
L 3653 2888 
L 3653 4841 
L 4684 4841 
L 4684 0 
z
" transform="scale(0.015625)"/>
      <path id="MicrosoftYaHei-Bold-2192" d="M 4859 3766 
Q 5241 3344 5514 3125 
Q 5788 2906 6150 2713 
L 6150 2572 
Q 5788 2381 5517 2164 
Q 5247 1947 4859 1519 
L 4622 1519 
Q 4766 1822 4866 1983 
Q 4966 2144 5141 2369 
L 247 2369 
L 247 2916 
L 5141 2916 
Q 4972 3131 4869 3298 
Q 4766 3466 4622 3766 
L 4859 3766 
z
" transform="scale(0.015625)"/>
      <path id="MicrosoftYaHei-Bold-6709" d="M 2094 -816 
L 1194 -816 
L 1194 1938 
Q 778 1509 306 1134 
Q 206 1641 94 2109 
Q 1022 2906 1603 3891 
L 150 3891 
L 150 4672 
L 2000 4672 
Q 2141 5006 2250 5359 
L 3238 5209 
Q 3134 4934 3019 4672 
L 6256 4672 
L 6256 3891 
L 2631 3891 
Q 2506 3656 2366 3434 
L 5663 3434 
L 5663 47 
Q 5663 -344 5475 -555 
Q 5288 -766 4953 -797 
Q 4619 -828 3650 -828 
Q 3563 -403 3406 28 
Q 3944 -3 4406 -3 
Q 4763 -3 4763 347 
L 4763 453 
L 2094 453 
L 2094 -816 
z
M 4763 2703 
L 2094 2703 
L 2094 2247 
L 4763 2247 
L 4763 2703 
z
M 2094 1122 
L 4763 1122 
L 4763 1578 
L 2094 1578 
L 2094 1122 
z
" transform="scale(0.015625)"/>
      <path id="MicrosoftYaHei-Bold-673a" d="M 81 1597 
Q 594 2397 841 3372 
L 138 3372 
L 138 4203 
L 856 4203 
L 856 5322 
L 1675 5322 
L 1675 4203 
L 2400 4203 
L 2400 3372 
L 1675 3372 
L 1675 2788 
Q 2072 2559 2538 2272 
L 2131 1566 
L 1675 1888 
L 1675 -809 
L 856 -809 
L 856 1388 
Q 647 919 369 491 
Q 269 903 81 1597 
z
M 5694 1634 
Q 5988 1503 6306 1391 
Q 6241 91 6181 -189 
Q 6122 -469 5961 -580 
Q 5800 -691 5525 -691 
L 5038 -691 
Q 4438 -691 4438 59 
L 4438 4159 
L 3550 4159 
L 3550 2409 
Q 3550 1031 3328 412 
Q 3106 -206 2531 -828 
Q 2238 -478 1875 -84 
Q 2391 466 2548 1023 
Q 2706 1581 2706 2941 
L 2706 5041 
L 5331 5041 
L 5331 316 
Q 5331 103 5469 103 
Q 5544 103 5580 151 
Q 5616 200 5648 562 
Q 5681 925 5694 1634 
z
" transform="scale(0.015625)"/>
      <path id="MicrosoftYaHei-Bold-7269" d="M 1969 -847 
L 1181 -847 
L 1181 1078 
Q 669 984 206 884 
L 94 1791 
Q 597 1838 1181 1922 
L 1181 3172 
L 775 3172 
Q 697 2731 594 2322 
Q 300 2509 88 2603 
Q 313 3566 381 4784 
L 956 4728 
Q 931 4344 891 3978 
L 1181 3978 
L 1181 5291 
L 1969 5291 
L 1969 3978 
L 2425 3978 
L 2425 3728 
Q 2856 4553 3100 5341 
Q 3550 5259 3938 5178 
Q 3772 4738 3609 4359 
L 6075 4359 
Q 6066 3275 6028 2016 
L 5972 400 
Q 5953 47 5834 -204 
Q 5716 -456 5466 -568 
Q 5216 -681 4150 -647 
Q 4056 -134 3934 216 
Q 3497 -331 2888 -772 
Q 2494 -353 2219 -109 
Q 4194 1163 4425 3534 
L 4116 3534 
Q 3891 1925 2781 966 
Q 2597 1144 2441 1284 
L 1969 1213 
L 1969 -847 
z
M 5300 3534 
L 5025 3534 
Q 4994 1578 3966 253 
Q 4356 222 4694 222 
Q 5122 222 5187 645 
Q 5253 1069 5300 3534 
z
M 2638 2647 
Q 2384 3003 2228 3172 
L 1969 3172 
L 1969 2044 
Q 2241 2088 2531 2141 
Q 2522 2006 2516 1850 
Q 3275 2559 3519 3534 
L 3213 3534 
Q 2925 3000 2638 2647 
z
" transform="scale(0.015625)"/>
     </defs>
     <use xlink:href="#MicrosoftYaHei-Bold-43"/>
     <use xlink:href="#MicrosoftYaHei-Bold-4f" transform="translate(65.958984 0)"/>
     <use xlink:href="#MicrosoftYaHei-Bold-2082" transform="translate(147.794922 0)"/>
     <use xlink:href="#MicrosoftYaHei-Bold-20" transform="translate(217.521484 0)"/>
     <use xlink:href="#MicrosoftYaHei-Bold-2b" transform="translate(247.306641 0)"/>
     <use xlink:href="#MicrosoftYaHei-Bold-20" transform="translate(323.429688 0)"/>
     <use xlink:href="#MicrosoftYaHei-Bold-48" transform="translate(353.214844 0)"/>
     <use xlink:href="#MicrosoftYaHei-Bold-2082" transform="translate(435.34375 0)"/>
     <use xlink:href="#MicrosoftYaHei-Bold-4f" transform="translate(505.070312 0)"/>
     <use xlink:href="#MicrosoftYaHei-Bold-20" transform="translate(586.90625 0)"/>
     <use xlink:href="#MicrosoftYaHei-Bold-20" transform="translate(616.691406 0)"/>
     <use xlink:href="#MicrosoftYaHei-Bold-2192" transform="translate(646.476562 0)"/>
     <use xlink:href="#MicrosoftYaHei-Bold-20" transform="translate(746.476562 0)"/>
     <use xlink:href="#MicrosoftYaHei-Bold-6709" transform="translate(776.261719 0)"/>
     <use xlink:href="#MicrosoftYaHei-Bold-673a" transform="translate(876.261719 0)"/>
     <use xlink:href="#MicrosoftYaHei-Bold-7269" transform="translate(976.261719 0)"/>
     <use xlink:href="#MicrosoftYaHei-Bold-20" transform="translate(1076.261719 0)"/>
     <use xlink:href="#MicrosoftYaHei-Bold-2b" transform="translate(1106.046875 0)"/>
     <use xlink:href="#MicrosoftYaHei-Bold-20" transform="translate(1182.169922 0)"/>
     <use xlink:href="#MicrosoftYaHei-Bold-4f" transform="translate(1211.955078 0)"/>
     <use xlink:href="#MicrosoftYaHei-Bold-2082" transform="translate(1293.791016 0)"/>
    </g>
   </g>
   <g id="text_7">
    <!-- 光 + 叶绿体 -->
    <g style="fill: #888888" transform="translate(102.996703 165.871875) scale(0.09 -0.09)">
     <defs>
      <path id="MicrosoftYaHei-5149" d="M 169 2691 
L 2931 2691 
L 2931 5309 
L 3444 5309 
L 3444 2691 
L 6256 2691 
L 6256 2228 
L 4206 2228 
L 4206 216 
Q 4206 -22 4269 -116 
Q 4356 -241 4638 -241 
L 5256 -241 
Q 5706 -241 5750 91 
Q 5794 428 5819 984 
Q 6056 884 6344 797 
Q 6288 153 6231 -122 
Q 6175 -441 5963 -559 
Q 5763 -678 5281 -678 
L 4538 -678 
Q 4056 -678 3863 -466 
Q 3700 -284 3700 141 
L 3700 2228 
L 2491 2228 
Q 2466 931 1988 266 
Q 1469 -459 369 -841 
Q 244 -647 50 -397 
Q 1150 -16 1569 603 
Q 1966 1134 1991 2228 
L 169 2228 
L 169 2691 
z
M 4094 3397 
Q 4813 4084 5369 4828 
L 5825 4503 
Q 5200 3766 4481 3059 
L 4094 3397 
z
M 619 4528 
L 1000 4828 
Q 1631 4134 2213 3434 
L 1756 3084 
Q 1188 3866 619 4528 
z
" transform="scale(0.015625)"/>
      <path id="MicrosoftYaHei-20" transform="scale(0.015625)"/>
      <path id="MicrosoftYaHei-2b" d="M 3972 1772 
L 2613 1772 
L 2613 419 
L 2141 419 
L 2141 1772 
L 788 1772 
L 788 2250 
L 2141 2250 
L 2141 3603 
L 2613 3603 
L 2613 2250 
L 3972 2250 
L 3972 1772 
z
" transform="scale(0.015625)"/>
      <path id="MicrosoftYaHei-53f6" d="M 450 4609 
L 2444 4609 
L 2444 197 
L 1931 197 
L 1931 666 
L 963 666 
L 963 84 
L 450 84 
L 450 4609 
z
M 2675 3109 
L 4213 3109 
L 4213 5297 
L 4744 5297 
L 4744 3109 
L 6300 3109 
L 6300 2609 
L 4744 2609 
L 4744 -841 
L 4213 -841 
L 4213 2609 
L 2675 2609 
L 2675 3109 
z
M 1931 4122 
L 963 4122 
L 963 1153 
L 1931 1153 
L 1931 4122 
z
" transform="scale(0.015625)"/>
      <path id="MicrosoftYaHei-7eff" d="M 2138 2972 
L 5088 2972 
L 5131 3566 
L 2575 3566 
L 2575 3978 
L 5159 3978 
L 5200 4559 
L 2475 4559 
L 2475 4984 
L 5694 4984 
L 5550 2972 
L 6313 2972 
L 6313 2547 
L 4456 2547 
L 4456 2272 
Q 4638 1781 4881 1388 
Q 5381 1788 5794 2266 
L 6163 1947 
Q 5728 1497 5141 1025 
Q 5634 416 6338 116 
Q 6106 -78 5919 -284 
Q 5016 213 4456 1294 
L 4456 28 
Q 4456 -772 3681 -772 
Q 3406 -772 2869 -766 
Q 2831 -528 2775 -247 
Q 3256 -297 3563 -297 
Q 3981 -297 3981 147 
L 3981 2547 
L 2138 2547 
L 2138 2972 
z
M 875 1578 
Q 1463 1659 2094 1766 
Q 2056 1522 2038 1291 
Q 1188 1166 319 1022 
L 225 1484 
Q 553 1819 1119 2791 
Q 566 2756 231 2722 
L 113 3147 
Q 669 3891 1275 5347 
L 1744 5159 
Q 1094 3872 656 3184 
Q 997 3194 1353 3200 
Q 1581 3609 1844 4109 
L 2306 3903 
Q 1513 2522 875 1578 
z
M 94 103 
Q 931 278 2025 559 
Q 2006 222 2006 97 
Q 1156 -109 225 -372 
L 94 103 
z
M 3681 1303 
Q 3763 1072 3881 872 
Q 3313 509 2381 -116 
L 2088 297 
Q 2925 778 3681 1303 
z
M 2594 2328 
Q 3013 1984 3444 1559 
Q 3263 1397 3088 1228 
Q 2663 1697 2288 2041 
L 2594 2328 
z
" transform="scale(0.015625)"/>
      <path id="MicrosoftYaHei-4f53" d="M 6350 778 
Q 6138 522 5981 316 
Q 4731 1278 4144 3572 
L 4144 934 
L 5063 934 
L 5063 484 
L 4144 484 
L 4144 -822 
L 3681 -822 
L 3681 484 
L 2763 484 
L 2763 934 
L 3681 934 
L 3681 3572 
L 3666 3572 
Q 3084 1413 1750 216 
Q 1606 397 1419 609 
Q 2625 1713 3225 3572 
L 1756 3572 
L 1756 4022 
L 3681 4022 
L 3681 5297 
L 4144 5297 
L 4144 4022 
L 6138 4022 
L 6138 3572 
L 4547 3572 
Q 5144 1628 6350 778 
z
M 56 2297 
Q 963 3622 1406 5316 
L 1881 5178 
Q 1638 4381 1331 3681 
L 1331 -816 
L 869 -816 
L 869 2741 
Q 588 2231 269 1784 
Q 175 2041 56 2297 
z
" transform="scale(0.015625)"/>
     </defs>
     <use xlink:href="#MicrosoftYaHei-5149"/>
     <use xlink:href="#MicrosoftYaHei-20" transform="translate(100 0)"/>
     <use xlink:href="#MicrosoftYaHei-2b" transform="translate(129.589844 0)"/>
     <use xlink:href="#MicrosoftYaHei-20" transform="translate(203.759766 0)"/>
     <use xlink:href="#MicrosoftYaHei-53f6" transform="translate(233.349609 0)"/>
     <use xlink:href="#MicrosoftYaHei-7eff" transform="translate(333.349609 0)"/>
     <use xlink:href="#MicrosoftYaHei-4f53" transform="translate(433.349609 0)"/>
    </g>
   </g>
   <g id="text_8">
    <!-- 合成有机物，储存能量 -->
    <g style="fill: #27ae60" transform="translate(81.997875 197.44695) scale(0.09 -0.09)">
     <defs>
      <path id="MicrosoftYaHei-Bold-5408" d="M 875 -872 
L 875 2028 
L 5525 2028 
L 5525 -872 
L 4675 -872 
L 4675 -584 
L 1725 -584 
L 1725 -872 
L 875 -872 
z
M 3988 5316 
L 3763 5041 
Q 4619 3947 6306 3228 
Q 5975 2809 5738 2484 
Q 5338 2672 4975 2897 
L 4975 2553 
L 1425 2553 
L 1425 2922 
Q 1063 2684 644 2441 
Q 388 2828 88 3178 
Q 2031 4178 2800 5316 
L 3988 5316 
z
M 4675 1216 
L 1725 1216 
L 1725 228 
L 4675 228 
L 4675 1216 
z
M 3194 4409 
Q 2756 3891 2031 3353 
L 4313 3353 
Q 3694 3822 3194 4409 
z
" transform="scale(0.015625)"/>
      <path id="MicrosoftYaHei-Bold-6210" d="M 1606 9 
Q 1544 541 1456 922 
Q 1753 866 1925 866 
Q 2259 866 2304 1197 
Q 2350 1528 2350 2047 
L 1438 2047 
Q 1428 106 825 -859 
Q 481 -534 88 -247 
Q 606 597 613 2172 
L 613 4291 
L 3547 4291 
L 3519 5322 
L 4406 5322 
L 4416 4291 
L 5269 4291 
Q 5103 4509 4738 4941 
L 5394 5297 
Q 5613 5059 6019 4553 
L 5538 4291 
L 6225 4291 
L 6225 3541 
L 4431 3541 
Q 4463 2569 4566 1856 
Q 4978 2491 5300 3234 
L 6069 2878 
Q 5519 1663 4828 734 
Q 5063 125 5250 125 
Q 5322 125 5369 215 
Q 5416 306 5472 667 
Q 5528 1028 5531 1291 
Q 5813 1128 6331 909 
Q 6313 572 6175 22 
Q 6038 -528 5813 -681 
Q 5588 -834 5359 -834 
Q 4678 -834 4231 16 
Q 3781 -472 3281 -859 
Q 2981 -491 2631 -197 
Q 3322 300 3888 953 
Q 3659 1891 3578 3541 
L 1438 3541 
L 1438 2803 
L 3219 2803 
Q 3219 2709 3181 1714 
Q 3144 719 3012 491 
Q 2881 263 2673 117 
Q 2466 -28 1606 9 
z
" transform="scale(0.015625)"/>
      <path id="MicrosoftYaHei-Bold-ff0c" d="M 2075 831 
L 1569 -863 
L 831 -863 
L 1191 831 
L 2075 831 
z
" transform="scale(0.015625)"/>
      <path id="MicrosoftYaHei-Bold-50a8" d="M 5669 4834 
L 6306 4466 
Q 6006 3919 5588 3409 
L 6288 3409 
L 6288 2753 
L 4988 2753 
Q 4744 2513 4469 2278 
L 5963 2278 
L 5963 -822 
L 5200 -822 
L 5200 -522 
L 4125 -522 
L 4125 -834 
L 3363 -834 
L 3363 1450 
Q 3172 1325 2975 1203 
Q 2850 1500 2650 1916 
L 2650 772 
Q 2850 903 3106 1091 
Q 3119 653 3175 259 
Q 2575 -178 2163 -578 
L 1731 -9 
Q 1900 147 1900 472 
L 1900 2584 
L 1538 2584 
L 1538 3309 
L 2650 3309 
L 2650 1963 
Q 3331 2306 3900 2753 
L 2875 2753 
L 2875 3409 
L 3794 3409 
L 3794 3978 
L 3081 3978 
L 3081 4634 
L 3794 4634 
L 3794 5353 
L 4575 5353 
L 4575 4634 
L 5244 4634 
L 5244 4156 
Q 5475 4478 5669 4834 
z
M 5113 3978 
L 4575 3978 
L 4575 3409 
L 4628 3409 
Q 4888 3678 5113 3978 
z
M 5200 1628 
L 4125 1628 
L 4125 1197 
L 5200 1197 
L 5200 1628 
z
M 4125 128 
L 5200 128 
L 5200 572 
L 4125 572 
L 4125 128 
z
M 1050 5347 
L 1806 5203 
Q 1647 4509 1438 3875 
L 1438 -803 
L 688 -803 
L 688 2075 
Q 503 1722 300 1391 
Q 238 1778 88 2559 
Q 731 3816 1050 5347 
z
M 2431 5122 
Q 2713 4516 2919 3947 
L 2181 3653 
Q 1988 4228 1738 4859 
L 2431 5122 
z
" transform="scale(0.015625)"/>
      <path id="MicrosoftYaHei-Bold-5b58" d="M 1731 -847 
L 888 -847 
L 888 1703 
Q 609 1406 306 1147 
L 94 2109 
Q 906 2959 1400 3978 
L 125 3978 
L 125 4759 
L 1722 4759 
Q 1822 5050 1900 5353 
L 2819 5191 
Q 2750 4972 2672 4759 
L 6281 4759 
L 6281 3978 
L 2359 3978 
Q 2078 3347 1731 2800 
L 1731 -847 
z
M 1913 1759 
L 3888 1759 
L 3888 2091 
Q 4431 2434 4794 2691 
L 2288 2691 
L 2288 3434 
L 6019 3434 
L 6019 2678 
Q 5394 2228 4775 1822 
L 4775 1759 
L 6319 1759 
L 6319 1003 
L 4775 1003 
L 4775 9 
Q 4775 -372 4567 -556 
Q 4359 -741 3992 -759 
Q 3625 -778 2850 -797 
Q 2769 -284 2681 22 
Q 2997 -6 3331 -6 
Q 3659 -6 3771 58 
Q 3884 122 3888 297 
L 3888 1003 
L 1913 1003 
L 1913 1759 
z
" transform="scale(0.015625)"/>
      <path id="MicrosoftYaHei-Bold-80fd" d="M 2644 4797 
Q 3100 4172 3569 3447 
Q 3188 3222 2906 3066 
L 2731 3369 
L 319 3197 
L 100 3897 
Q 519 4116 1331 5353 
L 2125 5053 
L 1213 3947 
L 2353 3994 
Q 2200 4238 2044 4472 
L 2644 4797 
z
M 5513 3916 
Q 5981 3697 6288 3597 
Q 6200 3228 6114 2942 
Q 6028 2656 5798 2520 
Q 5569 2384 5200 2384 
L 4556 2384 
Q 3594 2384 3588 3322 
L 3588 5291 
L 4381 5291 
L 4381 4347 
Q 5153 4700 5681 5003 
L 6231 4366 
Q 5553 4056 4381 3616 
L 4381 3422 
Q 4381 3072 4800 3072 
L 5000 3072 
Q 5341 3072 5392 3269 
Q 5444 3466 5513 3916 
z
M 1213 -797 
L 431 -797 
L 431 2978 
L 3106 2978 
L 3106 41 
Q 3106 -325 2972 -525 
Q 2838 -725 2566 -759 
Q 2294 -794 1681 -784 
Q 1594 -422 1481 -41 
Q 1791 -59 1969 -59 
Q 2213 -59 2269 28 
Q 2325 116 2325 228 
L 2325 378 
L 1213 378 
L 1213 -797 
z
M 2325 2303 
L 1213 2303 
L 1213 1947 
L 2325 1947 
L 2325 2303 
z
M 1213 984 
L 2325 984 
L 2325 1341 
L 1213 1341 
L 1213 984 
z
M 5531 953 
Q 5913 797 6313 647 
Q 6194 -78 6081 -287 
Q 5969 -497 5750 -605 
Q 5531 -713 5206 -716 
L 4550 -716 
Q 3588 -716 3588 228 
L 3588 2216 
L 4381 2216 
L 4381 1438 
Q 5072 1781 5675 2147 
L 6225 1491 
Q 5372 1084 4381 672 
L 4381 353 
Q 4381 -28 4738 -28 
L 5000 -28 
Q 5275 -28 5365 90 
Q 5456 209 5531 953 
z
" transform="scale(0.015625)"/>
      <path id="MicrosoftYaHei-Bold-91cf" d="M 725 5103 
L 5675 5103 
L 5675 3416 
L 725 3416 
L 725 5103 
z
M 4825 4666 
L 1575 4666 
L 1575 4447 
L 4825 4447 
L 4825 4666 
z
M 4825 3853 
L 4825 4072 
L 1575 4072 
L 1575 3853 
L 4825 3853 
z
M 138 3209 
L 6288 3209 
L 6288 2747 
L 138 2747 
L 138 3209 
z
M 113 -184 
L 2781 -184 
L 2781 53 
L 506 53 
L 506 491 
L 2781 491 
L 2781 716 
L 713 716 
L 713 2534 
L 5681 2534 
L 5681 716 
L 3606 716 
L 3606 491 
L 5925 491 
L 5925 53 
L 3606 53 
L 3606 -184 
L 6300 -184 
L 6300 -647 
L 113 -647 
L 113 -184 
z
M 4881 2097 
L 3606 2097 
L 3606 1816 
L 4881 1816 
L 4881 2097 
z
M 1513 1816 
L 2781 1816 
L 2781 2097 
L 1513 2097 
L 1513 1816 
z
M 4881 1153 
L 4881 1434 
L 3606 1434 
L 3606 1153 
L 4881 1153 
z
M 1513 1153 
L 2781 1153 
L 2781 1434 
L 1513 1434 
L 1513 1153 
z
" transform="scale(0.015625)"/>
     </defs>
     <use xlink:href="#MicrosoftYaHei-Bold-5408"/>
     <use xlink:href="#MicrosoftYaHei-Bold-6210" transform="translate(100 0)"/>
     <use xlink:href="#MicrosoftYaHei-Bold-6709" transform="translate(200 0)"/>
     <use xlink:href="#MicrosoftYaHei-Bold-673a" transform="translate(300 0)"/>
     <use xlink:href="#MicrosoftYaHei-Bold-7269" transform="translate(400 0)"/>
     <use xlink:href="#MicrosoftYaHei-Bold-ff0c" transform="translate(500 0)"/>
     <use xlink:href="#MicrosoftYaHei-Bold-50a8" transform="translate(600 0)"/>
     <use xlink:href="#MicrosoftYaHei-Bold-5b58" transform="translate(700 0)"/>
     <use xlink:href="#MicrosoftYaHei-Bold-80fd" transform="translate(800 0)"/>
     <use xlink:href="#MicrosoftYaHei-Bold-91cf" transform="translate(900 0)"/>
    </g>
   </g>
   <g id="text_9">
    <!-- Photosynthesis 光合作用 -->
    <g style="fill: #27ae60" transform="translate(55.211625 47.10375) scale(0.12 -0.12)">
     <defs>
      <path id="MicrosoftYaHei-Bold-50" d="M 1591 1688 
L 1591 0 
L 559 0 
L 559 4841 
L 2225 4841 
Q 4031 4841 4031 3309 
Q 4031 2566 3486 2117 
Q 2941 1669 2122 1688 
L 1591 1688 
z
M 1591 4041 
L 1591 2478 
L 2038 2478 
Q 2947 2478 2947 3269 
Q 2947 4041 2047 4041 
L 1591 4041 
z
" transform="scale(0.015625)"/>
      <path id="MicrosoftYaHei-Bold-68" d="M 3725 0 
L 2719 0 
L 2719 1969 
Q 2719 2766 2138 2766 
Q 1847 2766 1658 2544 
Q 1469 2322 1469 1969 
L 1469 0 
L 459 0 
L 459 5116 
L 1469 5116 
L 1469 2938 
L 1481 2938 
Q 1878 3541 2550 3541 
Q 3725 3541 3725 2122 
L 3725 0 
z
" transform="scale(0.015625)"/>
      <path id="MicrosoftYaHei-Bold-6f" d="M 253 1713 
Q 253 2566 764 3053 
Q 1275 3541 2138 3541 
Q 2972 3541 3462 3061 
Q 3953 2581 3953 1772 
Q 3953 922 3450 419 
Q 2947 -84 2088 -84 
Q 1244 -84 748 398 
Q 253 881 253 1713 
z
M 1275 1725 
Q 1275 691 2119 691 
Q 2928 691 2928 1753 
Q 2928 2766 2113 2766 
Q 1716 2766 1495 2494 
Q 1275 2222 1275 1725 
z
" transform="scale(0.015625)"/>
      <path id="MicrosoftYaHei-Bold-74" d="M 2494 41 
Q 2266 -84 1803 -84 
Q 703 -84 703 1072 
L 703 2703 
L 134 2703 
L 134 3456 
L 703 3456 
L 703 4216 
L 1706 4503 
L 1706 3456 
L 2494 3456 
L 2494 2703 
L 1706 2703 
L 1706 1247 
Q 1706 694 2144 694 
Q 2313 694 2494 794 
L 2494 41 
z
" transform="scale(0.015625)"/>
      <path id="MicrosoftYaHei-Bold-73" d="M 369 928 
Q 888 613 1384 613 
Q 2009 613 2009 947 
Q 2009 1184 1494 1344 
Q 850 1544 609 1789 
Q 369 2034 369 2453 
Q 369 2963 781 3252 
Q 1194 3541 1863 3541 
Q 2338 3541 2778 3400 
L 2778 2606 
Q 2375 2844 1891 2844 
Q 1650 2844 1503 2758 
Q 1356 2672 1356 2531 
Q 1356 2294 1794 2147 
Q 2263 1991 2498 1862 
Q 2734 1734 2857 1525 
Q 2981 1316 2981 1041 
Q 2981 506 2553 211 
Q 2125 -84 1409 -84 
Q 847 -84 369 94 
L 369 928 
z
" transform="scale(0.015625)"/>
      <path id="MicrosoftYaHei-Bold-79" d="M 3691 3456 
L 2266 -309 
Q 1769 -1622 778 -1622 
Q 388 -1622 172 -1541 
L 172 -731 
Q 375 -847 619 -847 
Q 1031 -847 1200 -447 
L 1391 6 
L -6 3456 
L 1113 3456 
L 1788 1291 
Q 1850 1094 1878 850 
L 1897 850 
Q 1919 1016 2000 1284 
L 2691 3456 
L 3691 3456 
z
" transform="scale(0.015625)"/>
      <path id="MicrosoftYaHei-Bold-6e" d="M 3744 0 
L 2741 0 
L 2741 1928 
Q 2741 2766 2138 2766 
Q 1850 2766 1659 2542 
Q 1469 2319 1469 1972 
L 1469 0 
L 459 0 
L 459 3456 
L 1469 3456 
L 1469 2906 
L 1481 2906 
Q 1859 3541 2594 3541 
Q 3744 3541 3744 2116 
L 3744 0 
z
" transform="scale(0.015625)"/>
      <path id="MicrosoftYaHei-Bold-65" d="M 3528 1444 
L 1253 1444 
Q 1306 641 2222 641 
Q 2794 641 3231 922 
L 3231 181 
Q 2759 -84 1994 -84 
Q 1169 -84 711 381 
Q 253 847 253 1678 
Q 253 2506 740 3023 
Q 1228 3541 1966 3541 
Q 2700 3541 3114 3095 
Q 3528 2650 3528 1872 
L 3528 1444 
z
M 2588 2075 
Q 2588 2850 1959 2850 
Q 1700 2850 1500 2637 
Q 1300 2425 1250 2075 
L 2588 2075 
z
" transform="scale(0.015625)"/>
      <path id="MicrosoftYaHei-Bold-69" d="M 369 4572 
Q 369 4803 533 4948 
Q 697 5094 953 5094 
Q 1216 5094 1378 4945 
Q 1541 4797 1541 4572 
Q 1541 4344 1375 4192 
Q 1209 4041 953 4041 
Q 700 4041 534 4194 
Q 369 4347 369 4572 
z
M 444 0 
L 444 3456 
L 1450 3456 
L 1450 0 
L 444 0 
z
" transform="scale(0.015625)"/>
      <path id="MicrosoftYaHei-Bold-5149" d="M 5381 1547 
Q 5919 1366 6294 1259 
Q 6131 -197 5873 -469 
Q 5616 -741 5056 -741 
L 4450 -741 
Q 3444 -741 3444 284 
L 3444 2047 
L 2703 2047 
Q 2700 -172 763 -853 
Q 406 -403 81 -109 
Q 1763 528 1722 2047 
L 188 2047 
L 188 2916 
L 2700 2916 
L 2700 5322 
L 3650 5322 
L 3650 2916 
L 6213 2916 
L 6213 2047 
L 4369 2047 
L 4369 478 
Q 4369 78 4706 78 
L 4856 78 
Q 5113 78 5203 297 
Q 5294 516 5381 1547 
z
M 5163 4978 
L 5956 4403 
Q 5150 3466 4688 3034 
L 4000 3622 
Q 4525 4128 5163 4978 
z
M 1156 4978 
Q 1906 4222 2369 3678 
L 1613 3103 
Q 988 3891 463 4447 
L 1156 4978 
z
" transform="scale(0.015625)"/>
      <path id="MicrosoftYaHei-Bold-4f5c" d="M 5944 1984 
L 4250 1984 
L 4250 1216 
L 6088 1216 
L 6088 428 
L 4250 428 
L 4250 -834 
L 3369 -834 
L 3369 3541 
L 3184 3541 
Q 2800 2681 2313 2041 
Q 2131 2384 1831 2853 
Q 2544 3922 2944 5328 
L 3756 5134 
Q 3638 4722 3506 4347 
L 6300 4347 
L 6300 3541 
L 4250 3541 
L 4250 2772 
L 5944 2772 
L 5944 1984 
z
M 1319 5291 
L 2156 5047 
Q 1956 4419 1706 3828 
L 1706 -828 
L 856 -828 
L 856 2163 
Q 600 1744 313 1347 
Q 244 1828 100 2509 
Q 856 3703 1319 5291 
z
" transform="scale(0.015625)"/>
      <path id="MicrosoftYaHei-Bold-7528" d="M 5925 134 
Q 5925 -263 5744 -480 
Q 5563 -697 5189 -736 
Q 4816 -775 4206 -766 
Q 4100 -284 3956 141 
Q 4600 103 4656 103 
Q 5050 103 5050 484 
L 5050 1053 
L 3750 1053 
L 3750 -697 
L 2869 -697 
L 2869 1053 
L 1516 1053 
Q 1419 -325 988 -872 
Q 588 -584 181 -347 
Q 688 341 669 2097 
L 669 5041 
L 5925 5041 
L 5925 134 
z
M 1544 3441 
L 2869 3441 
L 2869 4216 
L 1544 4216 
L 1544 3441 
z
M 5050 4216 
L 3750 4216 
L 3750 3441 
L 5050 3441 
L 5050 4216 
z
M 1544 1859 
L 2869 1859 
L 2869 2634 
L 1544 2634 
L 1544 1859 
z
M 3750 1859 
L 5050 1859 
L 5050 2634 
L 3750 2634 
L 3750 1859 
z
" transform="scale(0.015625)"/>
     </defs>
     <use xlink:href="#MicrosoftYaHei-Bold-50"/>
     <use xlink:href="#MicrosoftYaHei-Bold-68" transform="translate(65.722656 0)"/>
     <use xlink:href="#MicrosoftYaHei-Bold-6f" transform="translate(130.273438 0)"/>
     <use xlink:href="#MicrosoftYaHei-Bold-74" transform="translate(195.996094 0)"/>
     <use xlink:href="#MicrosoftYaHei-Bold-6f" transform="translate(236.902344 0)"/>
     <use xlink:href="#MicrosoftYaHei-Bold-73" transform="translate(302.625 0)"/>
     <use xlink:href="#MicrosoftYaHei-Bold-79" transform="translate(351.990234 0)"/>
     <use xlink:href="#MicrosoftYaHei-Bold-6e" transform="translate(409.412109 0)"/>
     <use xlink:href="#MicrosoftYaHei-Bold-74" transform="translate(474.207031 0)"/>
     <use xlink:href="#MicrosoftYaHei-Bold-68" transform="translate(515.613281 0)"/>
     <use xlink:href="#MicrosoftYaHei-Bold-65" transform="translate(580.164062 0)"/>
     <use xlink:href="#MicrosoftYaHei-Bold-73" transform="translate(638.367188 0)"/>
     <use xlink:href="#MicrosoftYaHei-Bold-69" transform="translate(687.732422 0)"/>
     <use xlink:href="#MicrosoftYaHei-Bold-73" transform="translate(717.322266 0)"/>
     <use xlink:href="#MicrosoftYaHei-Bold-20" transform="translate(766.6875 0)"/>
     <use xlink:href="#MicrosoftYaHei-Bold-5149" transform="translate(796.472656 0)"/>
     <use xlink:href="#MicrosoftYaHei-Bold-5408" transform="translate(896.472656 0)"/>
     <use xlink:href="#MicrosoftYaHei-Bold-4f5c" transform="translate(996.472656 0)"/>
     <use xlink:href="#MicrosoftYaHei-Bold-7528" transform="translate(1096.472656 0)"/>
    </g>
   </g>
  </g>
  <g id="axes_2">
   <g id="patch_9">
    <path d="M 385.582193 256.086375 
L 309.347182 233.53275 
L 298.456466 165.871875 
L 342.01933 98.211 
L 385.582193 75.657375 
L 429.145057 98.211 
L 472.70792 165.871875 
L 461.817205 233.53275 
z
" clip-path="url(#p3d4bb17d40)" style="fill: #e74c3c; opacity: 0.12; stroke: #e74c3c; stroke-width: 2; stroke-linejoin: miter"/>
   </g>
   <g id="patch_10">
    <path d="M 299.635502 125.801636 
Q 319.902598 134.177729 338.103159 141.699754 
" style="fill: none; stroke: #f39c12; stroke-width: 2; stroke-linecap: round"/>
    <path d="M 335.17033 138.323585 
L 338.103159 141.699754 
L 333.642526 142.020315 
" style="fill: none; stroke: #f39c12; stroke-width: 2; stroke-linecap: round"/>
   </g>
   <g id="text_10">
    <!-- 有机物 -->
    <g transform="translate(265.784318 120.764625) scale(0.1 -0.1)">
     <use xlink:href="#MicrosoftYaHei-6709"/>
     <use xlink:href="#MicrosoftYaHei-673a" transform="translate(100 0)"/>
     <use xlink:href="#MicrosoftYaHei-7269" transform="translate(200 0)"/>
    </g>
   </g>
   <g id="patch_11">
    <path d="M 284.85827 205.705295 
Q 323.353817 197.278969 359.665013 189.330778 
" style="fill: none; stroke: #e74c3c; stroke-width: 2; stroke-linecap: round"/>
    <path d="M 355.329871 188.232348 
L 359.665013 189.330778 
L 356.185184 192.139833 
" style="fill: none; stroke: #e74c3c; stroke-width: 2; stroke-linecap: round"/>
   </g>
   <g id="text_11">
    <!-- O₂ -->
    <g transform="translate(265.784318 210.979125) scale(0.1 -0.1)">
     <use xlink:href="#MicrosoftYaHei-4f"/>
     <use xlink:href="#MicrosoftYaHei-2082" transform="translate(81.494141 0)"/>
    </g>
   </g>
   <g id="patch_12">
    <path d="M 490.490019 118.547057 
Q 460.815367 119.619771 433.375323 120.611705 
" style="fill: none; stroke: #e74c3c; stroke-width: 2; stroke-linecap: round"/>
    <path d="M 437.444964 122.465897 
L 433.375323 120.611705 
L 437.300461 118.468508 
" style="fill: none; stroke: #e74c3c; stroke-width: 2; stroke-linecap: round"/>
   </g>
   <g id="text_12">
    <!-- CO₂ -->
    <g transform="translate(494.489352 120.764625) scale(0.1 -0.1)">
     <use xlink:href="#MicrosoftYaHei-43"/>
     <use xlink:href="#MicrosoftYaHei-4f" transform="translate(65.519531 0)"/>
     <use xlink:href="#MicrosoftYaHei-2082" transform="translate(147.013672 0)"/>
    </g>
   </g>
   <g id="patch_13">
    <path d="M 490.494294 208.778487 
Q 460.817574 209.843011 433.375485 210.827377 
" style="fill: none; stroke: #3498db; stroke-width: 2; stroke-linecap: round"/>
    <path d="M 437.444609 212.682701 
L 433.375485 210.827377 
L 437.301219 208.685272 
" style="fill: none; stroke: #3498db; stroke-width: 2; stroke-linecap: round"/>
   </g>
   <g id="text_13">
    <!-- H₂O -->
    <g transform="translate(494.489352 210.979125) scale(0.1 -0.1)">
     <use xlink:href="#MicrosoftYaHei-48"/>
     <use xlink:href="#MicrosoftYaHei-2082" transform="translate(77.34375 0)"/>
     <use xlink:href="#MicrosoftYaHei-4f" transform="translate(147.070312 0)"/>
    </g>
   </g>
   <g id="patch_14">
    <path d="M 490.525167 249.491401 
Q 449.92529 241.700309 411.521412 234.330627 
" style="fill: none; stroke: #f39c12; stroke-width: 2; stroke-linecap: round"/>
    <path d="M 415.072814 237.048631 
L 411.521412 234.330627 
L 415.826657 233.120308 
" style="fill: none; stroke: #f39c12; stroke-width: 2; stroke-linecap: round"/>
   </g>
   <g id="text_14">
    <!-- Energy -->
    <g transform="translate(494.489352 256.086375) scale(0.1 -0.1)">
     <defs>
      <path id="MicrosoftYaHei-45" d="M 3228 0 
L 625 0 
L 625 4841 
L 3119 4841 
L 3119 4284 
L 1250 4284 
L 1250 2734 
L 2981 2734 
L 2981 2181 
L 1250 2181 
L 1250 553 
L 3228 553 
L 3228 0 
z
" transform="scale(0.015625)"/>
      <path id="MicrosoftYaHei-6e" d="M 3469 0 
L 2859 0 
L 2859 1966 
Q 2859 3031 2081 3031 
Q 1678 3031 1418 2731 
Q 1159 2431 1159 1972 
L 1159 0 
L 547 0 
L 547 3456 
L 1159 3456 
L 1159 2884 
L 1172 2884 
Q 1563 3538 2306 3538 
Q 2875 3538 3172 3173 
Q 3469 2809 3469 2113 
L 3469 0 
z
" transform="scale(0.015625)"/>
      <path id="MicrosoftYaHei-65" d="M 3363 1572 
L 944 1572 
Q 959 1019 1246 717 
Q 1534 416 2050 416 
Q 2631 416 3116 788 
L 3116 241 
Q 2659 -81 1906 -81 
Q 1156 -81 736 394 
Q 316 869 316 1713 
Q 316 2506 777 3022 
Q 1238 3538 1922 3538 
Q 2600 3538 2981 3102 
Q 3363 2666 3363 1881 
L 3363 1572 
z
M 2750 2063 
Q 2747 2531 2528 2787 
Q 2309 3044 1913 3044 
Q 1547 3044 1280 2772 
Q 1013 2500 944 2063 
L 2750 2063 
z
" transform="scale(0.015625)"/>
      <path id="MicrosoftYaHei-72" d="M 2400 2850 
Q 2247 2959 1978 2959 
Q 1622 2959 1390 2626 
Q 1159 2294 1159 1750 
L 1159 0 
L 547 0 
L 547 3456 
L 1159 3456 
L 1159 2753 
L 1172 2753 
Q 1434 3516 2078 3516 
Q 2288 3516 2400 3469 
L 2400 2850 
z
" transform="scale(0.015625)"/>
      <path id="MicrosoftYaHei-67" d="M 3547 291 
Q 3547 -1628 1684 -1628 
Q 1041 -1628 566 -1388 
L 566 -797 
Q 1144 -1119 1675 -1119 
Q 2934 -1119 2934 206 
L 2934 572 
L 2922 572 
Q 2528 -81 1747 -81 
Q 1097 -81 706 384 
Q 316 850 316 1619 
Q 316 2503 747 3020 
Q 1178 3538 1897 3538 
Q 2588 3538 2922 2988 
L 2934 2988 
L 2934 3456 
L 3547 3456 
L 3547 291 
z
M 2934 2056 
Q 2938 2456 2666 2743 
Q 2394 3031 1997 3031 
Q 1497 3031 1219 2664 
Q 941 2297 941 1656 
Q 941 1106 1209 765 
Q 1478 425 1922 425 
Q 2369 425 2653 750 
Q 2938 1075 2934 1575 
L 2934 2056 
z
" transform="scale(0.015625)"/>
      <path id="MicrosoftYaHei-79" d="M 3359 3456 
L 1791 -522 
Q 1353 -1628 556 -1628 
Q 328 -1628 166 -1578 
L 166 -1041 
Q 344 -1109 509 -1109 
Q 925 -1109 1131 -622 
L 1397 6 
L 41 3456 
L 719 3456 
L 1622 859 
L 1697 575 
L 1713 575 
Q 1731 672 1788 853 
L 2731 3456 
L 3359 3456 
z
" transform="scale(0.015625)"/>
     </defs>
     <use xlink:href="#MicrosoftYaHei-45"/>
     <use xlink:href="#MicrosoftYaHei-6e" transform="translate(54.980469 0)"/>
     <use xlink:href="#MicrosoftYaHei-65" transform="translate(116.601562 0)"/>
     <use xlink:href="#MicrosoftYaHei-72" transform="translate(173.339844 0)"/>
     <use xlink:href="#MicrosoftYaHei-67" transform="translate(210.148438 0)"/>
     <use xlink:href="#MicrosoftYaHei-79" transform="translate(274.113281 0)"/>
    </g>
   </g>
   <g id="text_15">
    <g id="patch_15">
     <path d="M 307.777193 139.234144 
L 463.387193 139.234144 
Q 466.087193 139.234144 466.087193 136.534144 
L 466.087193 127.102425 
Q 466.087193 124.402425 463.387193 124.402425 
L 307.777193 124.402425 
Q 305.077193 124.402425 305.077193 127.102425 
L 305.077193 136.534144 
Q 305.077193 139.234144 307.777193 139.234144 
z
" style="fill: #ffffff; stroke: #e74c3c; stroke-linejoin: miter"/>
    </g>
    <!-- 有机物 + O₂  →  CO₂ + H₂O + 能量 -->
    <g style="fill: #2c3e50" transform="translate(307.777193 134.2968) scale(0.09 -0.09)">
     <use xlink:href="#MicrosoftYaHei-Bold-6709"/>
     <use xlink:href="#MicrosoftYaHei-Bold-673a" transform="translate(100 0)"/>
     <use xlink:href="#MicrosoftYaHei-Bold-7269" transform="translate(200 0)"/>
     <use xlink:href="#MicrosoftYaHei-Bold-20" transform="translate(300 0)"/>
     <use xlink:href="#MicrosoftYaHei-Bold-2b" transform="translate(329.785156 0)"/>
     <use xlink:href="#MicrosoftYaHei-Bold-20" transform="translate(405.908203 0)"/>
     <use xlink:href="#MicrosoftYaHei-Bold-4f" transform="translate(435.693359 0)"/>
     <use xlink:href="#MicrosoftYaHei-Bold-2082" transform="translate(517.529297 0)"/>
     <use xlink:href="#MicrosoftYaHei-Bold-20" transform="translate(587.255859 0)"/>
     <use xlink:href="#MicrosoftYaHei-Bold-20" transform="translate(617.041016 0)"/>
     <use xlink:href="#MicrosoftYaHei-Bold-2192" transform="translate(646.826172 0)"/>
     <use xlink:href="#MicrosoftYaHei-Bold-20" transform="translate(746.826172 0)"/>
     <use xlink:href="#MicrosoftYaHei-Bold-20" transform="translate(776.611328 0)"/>
     <use xlink:href="#MicrosoftYaHei-Bold-43" transform="translate(806.396484 0)"/>
     <use xlink:href="#MicrosoftYaHei-Bold-4f" transform="translate(872.355469 0)"/>
     <use xlink:href="#MicrosoftYaHei-Bold-2082" transform="translate(954.191406 0)"/>
     <use xlink:href="#MicrosoftYaHei-Bold-20" transform="translate(1023.917969 0)"/>
     <use xlink:href="#MicrosoftYaHei-Bold-2b" transform="translate(1053.703125 0)"/>
     <use xlink:href="#MicrosoftYaHei-Bold-20" transform="translate(1129.826172 0)"/>
     <use xlink:href="#MicrosoftYaHei-Bold-48" transform="translate(1159.611328 0)"/>
     <use xlink:href="#MicrosoftYaHei-Bold-2082" transform="translate(1241.740234 0)"/>
     <use xlink:href="#MicrosoftYaHei-Bold-4f" transform="translate(1311.466797 0)"/>
     <use xlink:href="#MicrosoftYaHei-Bold-20" transform="translate(1393.302734 0)"/>
     <use xlink:href="#MicrosoftYaHei-Bold-2b" transform="translate(1423.087891 0)"/>
     <use xlink:href="#MicrosoftYaHei-Bold-20" transform="translate(1499.210938 0)"/>
     <use xlink:href="#MicrosoftYaHei-Bold-80fd" transform="translate(1528.996094 0)"/>
     <use xlink:href="#MicrosoftYaHei-Bold-91cf" transform="translate(1628.996094 0)"/>
    </g>
   </g>
   <g id="text_16">
    <!-- 有光/无光均可（线粒体） -->
    <g style="fill: #888888" transform="translate(334.159849 165.871875) scale(0.09 -0.09)">
     <defs>
      <path id="MicrosoftYaHei-2f" d="M 2791 4841 
L 469 -803 
L -103 -803 
L 2219 4841 
L 2791 4841 
z
" transform="scale(0.015625)"/>
      <path id="MicrosoftYaHei-65e0" d="M 200 2878 
L 2650 2878 
Q 2781 3528 2806 4328 
L 675 4328 
L 675 4816 
L 5750 4816 
L 5750 4328 
L 3331 4328 
Q 3288 3528 3169 2878 
L 6225 2878 
L 6225 2391 
L 3063 2391 
Q 2588 278 450 -884 
Q 313 -672 113 -441 
Q 1975 491 2538 2391 
L 200 2391 
L 200 2878 
z
M 3400 1941 
L 3906 1941 
L 3906 297 
Q 3906 -197 4363 -197 
L 5219 -197 
Q 5644 -197 5700 172 
Q 5750 528 5775 1097 
Q 6013 1009 6300 916 
Q 6238 297 6188 -16 
Q 6106 -641 5300 -641 
L 4219 -641 
Q 3400 -641 3400 222 
L 3400 1941 
z
" transform="scale(0.015625)"/>
      <path id="MicrosoftYaHei-5747" d="M 2244 2803 
Q 2931 3953 3338 5322 
L 3838 5172 
Q 3691 4744 3531 4347 
L 6013 4347 
Q 5925 1053 5875 297 
Q 5831 -697 4806 -697 
Q 4188 -697 3706 -672 
Q 3669 -422 3606 -141 
L 3625 -141 
Q 4250 -209 4775 -209 
Q 5350 -209 5394 378 
Q 5456 1447 5513 3891 
L 3341 3891 
Q 3028 3172 2675 2572 
Q 2481 2691 2244 2803 
z
M 81 428 
Q 559 600 1006 769 
L 1006 3253 
L 169 3253 
L 169 3697 
L 1006 3697 
L 1006 5259 
L 1469 5259 
L 1469 3697 
L 2281 3697 
L 2281 3253 
L 1469 3253 
L 1469 947 
Q 1922 1125 2338 1303 
Q 2350 991 2369 784 
Q 1363 403 250 -53 
L 81 428 
z
M 2513 853 
Q 3769 1353 5119 1934 
Q 5150 1641 5188 1434 
Q 4031 947 2706 359 
L 2513 853 
z
M 3138 2909 
L 3481 3216 
Q 4025 2716 4531 2216 
L 4125 1859 
Q 3644 2409 3138 2909 
z
" transform="scale(0.015625)"/>
      <path id="MicrosoftYaHei-53ef" d="M 813 3409 
L 3569 3409 
L 3569 941 
L 1306 941 
L 1306 497 
L 813 497 
L 813 3409 
z
M 119 4809 
L 6294 4809 
L 6294 4334 
L 5256 4334 
L 5256 103 
Q 5256 -741 4438 -747 
Q 3850 -747 3294 -741 
Q 3263 -453 3194 -172 
Q 3900 -222 4269 -222 
Q 4731 -222 4731 278 
L 4731 4334 
L 119 4334 
L 119 4809 
z
M 3075 2966 
L 1306 2966 
L 1306 1384 
L 3075 1384 
L 3075 2966 
z
" transform="scale(0.015625)"/>
      <path id="MicrosoftYaHei-ff08" d="M 5288 -1100 
Q 4172 119 4172 1850 
Q 4172 3603 5288 4838 
L 5825 4838 
Q 4716 3572 4716 1856 
Q 4716 166 5819 -1100 
L 5288 -1100 
z
" transform="scale(0.015625)"/>
      <path id="MicrosoftYaHei-7ebf" d="M 1969 -347 
Q 3144 75 4003 631 
Q 3781 1197 3653 1972 
L 2319 1784 
L 2244 2234 
L 3591 2422 
Q 3538 2859 3513 3356 
L 2381 3228 
L 2306 3678 
L 3488 3809 
Q 3453 4459 3425 5303 
L 3938 5303 
Q 3953 4497 3978 3866 
L 6069 4103 
L 6125 3659 
L 3997 3413 
Q 4019 2919 4069 2488 
L 6225 2791 
L 6281 2347 
L 4128 2041 
Q 4234 1394 4416 916 
Q 5078 1416 5519 2009 
L 5925 1703 
Q 5363 1025 4619 475 
Q 4859 44 5194 -184 
Q 5606 -428 5725 66 
Q 5806 466 5856 953 
Q 6144 828 6338 772 
Q 6231 97 6125 -247 
Q 5944 -778 5506 -778 
Q 5050 -778 4663 -403 
Q 4409 -163 4209 194 
Q 3350 -363 2281 -772 
Q 2169 -597 1969 -347 
z
M 900 1541 
Q 1456 1622 2213 1753 
Q 2175 1522 2156 1272 
Q 1113 1109 325 978 
L 225 1447 
Q 659 1913 1178 2775 
Q 672 2747 225 2703 
L 106 3128 
Q 688 3922 1300 5353 
L 1775 5166 
Q 1131 3897 669 3166 
Q 1041 3178 1422 3194 
Q 1638 3578 1869 4028 
L 2331 3797 
Q 1569 2478 900 1541 
z
M 106 97 
Q 1206 334 2331 616 
Q 2313 366 2313 141 
Q 1269 -103 244 -378 
L 106 97 
z
M 4463 4972 
L 4731 5284 
Q 5175 5003 5681 4609 
L 5381 4247 
Q 4863 4691 4463 4972 
z
" transform="scale(0.015625)"/>
      <path id="MicrosoftYaHei-7c92" d="M 2438 -47 
L 4456 -47 
Q 4850 1328 5288 3391 
L 5794 3272 
Q 5306 1334 4894 -47 
L 6263 -47 
L 6263 -484 
L 2438 -484 
L 2438 -47 
z
M 2750 4141 
L 6069 4141 
L 6069 3703 
L 2750 3703 
L 2750 4141 
z
M 3013 3284 
L 3469 3372 
Q 3738 2072 4006 609 
L 3538 503 
Q 3281 2034 3013 3284 
z
M 1850 3572 
Q 2244 4322 2425 4809 
L 2844 4616 
Q 2594 4047 2213 3366 
L 1850 3572 
z
M 119 4641 
L 488 4809 
Q 656 4472 1056 3584 
L 638 3372 
Q 244 4372 119 4641 
z
M 3856 5141 
L 4275 5341 
Q 4550 4866 4781 4409 
L 4338 4197 
Q 4075 4759 3856 5141 
z
M 94 603 
Q 838 1622 1144 2584 
L 106 2584 
L 106 3022 
L 1244 3022 
L 1244 5316 
L 1688 5316 
L 1688 3022 
L 2819 3022 
L 2819 2584 
L 1688 2584 
L 1688 1803 
L 1913 2022 
Q 2413 1584 2825 1197 
L 2494 884 
Q 1956 1434 1688 1672 
L 1688 -816 
L 1244 -816 
L 1244 1847 
Q 881 866 288 103 
Q 206 359 94 603 
z
" transform="scale(0.015625)"/>
      <path id="MicrosoftYaHei-ff09" d="M 1113 -1100 
L 575 -1100 
Q 1684 163 1684 1888 
Q 1684 3581 581 4838 
L 1113 4838 
Q 2222 3628 2222 1888 
Q 2222 128 1113 -1100 
z
" transform="scale(0.015625)"/>
     </defs>
     <use xlink:href="#MicrosoftYaHei-6709"/>
     <use xlink:href="#MicrosoftYaHei-5149" transform="translate(100 0)"/>
     <use xlink:href="#MicrosoftYaHei-2f" transform="translate(200 0)"/>
     <use xlink:href="#MicrosoftYaHei-65e0" transform="translate(242.724609 0)"/>
     <use xlink:href="#MicrosoftYaHei-5149" transform="translate(342.724609 0)"/>
     <use xlink:href="#MicrosoftYaHei-5747" transform="translate(442.724609 0)"/>
     <use xlink:href="#MicrosoftYaHei-53ef" transform="translate(542.724609 0)"/>
     <use xlink:href="#MicrosoftYaHei-ff08" transform="translate(642.724609 0)"/>
     <use xlink:href="#MicrosoftYaHei-7ebf" transform="translate(742.724609 0)"/>
     <use xlink:href="#MicrosoftYaHei-7c92" transform="translate(842.724609 0)"/>
     <use xlink:href="#MicrosoftYaHei-4f53" transform="translate(942.724609 0)"/>
     <use xlink:href="#MicrosoftYaHei-ff09" transform="translate(1042.724609 0)"/>
    </g>
   </g>
   <g id="text_17">
    <!-- 分解有机物，释放能量 -->
    <g style="fill: #e74c3c" transform="translate(340.582193 197.44695) scale(0.09 -0.09)">
     <defs>
      <path id="MicrosoftYaHei-Bold-5206" d="M 6350 3028 
Q 6088 2703 5750 2228 
Q 5519 2409 5303 2603 
Q 5219 606 5172 190 
Q 5125 -225 4862 -451 
Q 4600 -678 4128 -678 
Q 3484 -678 2913 -659 
Q 2856 -141 2781 284 
Q 3594 216 3956 216 
Q 4172 216 4230 408 
Q 4288 600 4325 1978 
L 2781 1978 
Q 2728 1100 2529 631 
Q 2331 163 1907 -215 
Q 1484 -594 844 -872 
Q 456 -353 194 -78 
Q 750 144 1111 414 
Q 1472 684 1630 989 
Q 1788 1294 1841 1978 
L 950 1978 
L 950 2475 
Q 794 2356 631 2247 
Q 344 2653 63 2953 
Q 1475 3947 2194 5316 
L 3031 4953 
Q 2378 3722 1391 2841 
L 5047 2841 
Q 4088 3766 3463 4903 
L 4238 5303 
Q 5038 3922 6350 3028 
z
" transform="scale(0.015625)"/>
      <path id="MicrosoftYaHei-Bold-89e3" d="M 3188 953 
L 4475 953 
L 4475 1641 
L 3888 1641 
Q 3769 1331 3619 1078 
Q 3288 1263 3013 1381 
L 3013 47 
Q 3013 -316 2888 -517 
Q 2763 -719 2517 -758 
Q 2272 -797 1963 -797 
L 1884 -403 
L 1406 -403 
L 1406 778 
L 1034 778 
Q 941 -281 656 -897 
Q 350 -516 69 -259 
Q 419 541 419 2078 
L 419 3113 
Q 359 3053 300 2997 
Q 225 3403 81 3866 
Q 725 4522 1075 5359 
L 1838 5259 
Q 1759 5072 1672 4891 
L 2806 4891 
L 2806 4303 
L 2488 3734 
L 3013 3734 
L 3013 1541 
Q 3384 2147 3488 2803 
L 4169 2709 
Q 4134 2513 4091 2328 
L 4475 2328 
L 4475 2853 
L 5263 2853 
L 5263 2328 
L 6131 2328 
L 6131 1641 
L 5263 1641 
L 5263 953 
L 6281 953 
L 6281 266 
L 5263 266 
L 5263 -822 
L 4475 -822 
L 4475 266 
L 3188 266 
L 3188 953 
z
M 963 3734 
L 1697 3734 
L 2000 4278 
L 1338 4278 
Q 1166 3997 963 3734 
z
M 2363 3134 
L 2006 3134 
L 2006 2541 
L 2363 2541 
L 2363 3134 
z
M 1081 2541 
L 1406 2541 
L 1406 3134 
L 1081 3134 
L 1081 2541 
z
M 2006 1366 
L 2363 1366 
L 2363 1953 
L 2006 1953 
L 2006 1366 
z
M 1072 1366 
L 1406 1366 
L 1406 1953 
L 1081 1953 
Q 1081 1909 1072 1366 
z
M 2363 778 
L 2006 778 
L 2006 -81 
Q 2231 -91 2297 -22 
Q 2363 47 2363 247 
L 2363 778 
z
M 4581 2978 
Q 4522 3366 4416 3697 
Q 4206 3203 3581 2816 
Q 3338 3153 3019 3484 
Q 3725 3841 3775 4416 
L 3194 4416 
L 3194 5097 
L 6119 5097 
Q 6103 3772 5973 3492 
Q 5844 3213 5614 3095 
Q 5384 2978 4581 2978 
z
M 4428 3725 
Q 4741 3709 4894 3709 
Q 5122 3709 5198 3821 
Q 5275 3934 5275 4416 
L 4581 4416 
Q 4544 4019 4428 3725 
z
" transform="scale(0.015625)"/>
      <path id="MicrosoftYaHei-Bold-91ca" d="M 100 747 
Q 584 1394 938 2191 
L 150 2191 
L 150 2891 
L 1025 2891 
L 1025 4284 
L 225 4216 
Q 169 4559 100 4916 
Q 1306 4978 2525 5128 
L 2675 4453 
L 1775 4353 
L 1775 3263 
Q 2050 3753 2231 4266 
L 2806 4041 
Q 2525 3478 2269 3022 
L 1775 3250 
L 1775 2891 
L 2613 2891 
L 2613 2191 
L 1775 2191 
L 1775 2022 
Q 2300 1650 2700 1334 
L 2225 741 
Q 2003 966 1775 1184 
L 1775 -809 
L 1025 -809 
L 1025 944 
Q 713 266 369 -216 
Q 231 328 100 747 
z
M 5988 5066 
L 5988 4303 
Q 5650 3747 5156 3319 
Q 5631 3150 6300 3059 
Q 6131 2684 5988 2303 
Q 5078 2459 4431 2816 
Q 3844 2494 3038 2253 
Q 2888 2622 2656 2997 
Q 3241 3144 3706 3334 
Q 3353 3659 3088 4078 
L 3500 4372 
L 2838 4372 
L 2838 5066 
L 5988 5066 
z
M 4422 3700 
Q 4878 3997 5125 4372 
L 3709 4372 
Q 4063 3956 4422 3700 
z
M 94 3984 
L 550 4184 
Q 788 3716 1000 3266 
L 463 3028 
Q 319 3459 94 3984 
z
M 2500 816 
L 4013 816 
L 4013 1266 
L 2775 1266 
L 2775 1991 
L 4013 1991 
L 4013 2434 
L 4838 2434 
L 4838 1991 
L 6050 1991 
L 6050 1266 
L 4838 1266 
L 4838 816 
L 6250 816 
L 6250 91 
L 4838 91 
L 4838 -822 
L 4013 -822 
L 4013 91 
L 2500 91 
L 2500 816 
z
" transform="scale(0.015625)"/>
      <path id="MicrosoftYaHei-Bold-653e" d="M 3850 5353 
L 4706 5128 
Q 4600 4725 4481 4366 
L 6294 4366 
L 6294 3534 
L 5934 3534 
Q 5784 1897 5125 797 
Q 5616 303 6325 22 
Q 6056 -341 5775 -816 
Q 5097 -425 4616 109 
Q 4066 -488 3306 -859 
Q 3069 -403 2825 -41 
Q 3538 294 4088 825 
Q 3681 1516 3516 2384 
Q 3416 2247 3313 2128 
Q 3138 2378 2913 2647 
L 2847 941 
Q 2816 131 2762 -95 
Q 2709 -322 2562 -476 
Q 2416 -631 2137 -670 
Q 1859 -709 1306 -709 
Q 1213 -200 1113 144 
Q 900 -416 563 -853 
Q 406 -547 75 47 
Q 372 491 522 1056 
Q 672 1622 678 2234 
L 691 3509 
L 156 3509 
L 156 4328 
L 1356 4328 
Q 1163 4750 1000 5053 
L 1800 5359 
Q 2000 5022 2269 4466 
L 1925 4328 
L 3113 4328 
L 3113 3509 
L 1500 3509 
L 1488 2841 
L 2856 2841 
Q 3531 3778 3850 5353 
z
M 4600 1500 
Q 5000 2256 5141 3534 
L 4166 3534 
Q 4122 3434 4078 3341 
Q 4175 2263 4600 1500 
z
M 1116 147 
Q 1441 122 1669 122 
Q 2019 122 2019 563 
L 2081 2084 
L 1469 2084 
Q 1431 981 1116 147 
z
" transform="scale(0.015625)"/>
     </defs>
     <use xlink:href="#MicrosoftYaHei-Bold-5206"/>
     <use xlink:href="#MicrosoftYaHei-Bold-89e3" transform="translate(100 0)"/>
     <use xlink:href="#MicrosoftYaHei-Bold-6709" transform="translate(200 0)"/>
     <use xlink:href="#MicrosoftYaHei-Bold-673a" transform="translate(300 0)"/>
     <use xlink:href="#MicrosoftYaHei-Bold-7269" transform="translate(400 0)"/>
     <use xlink:href="#MicrosoftYaHei-Bold-ff0c" transform="translate(500 0)"/>
     <use xlink:href="#MicrosoftYaHei-Bold-91ca" transform="translate(600 0)"/>
     <use xlink:href="#MicrosoftYaHei-Bold-653e" transform="translate(700 0)"/>
     <use xlink:href="#MicrosoftYaHei-Bold-80fd" transform="translate(800 0)"/>
     <use xlink:href="#MicrosoftYaHei-Bold-91cf" transform="translate(900 0)"/>
    </g>
   </g>
   <g id="text_18">
    <!-- Respiration 呼吸作用 -->
    <g style="fill: #e74c3c" transform="translate(325.444381 47.10375) scale(0.12 -0.12)">
     <defs>
      <path id="MicrosoftYaHei-Bold-52" d="M 4553 0 
L 3366 0 
L 2606 1259 
Q 2372 1650 2222 1762 
Q 2072 1875 1903 1875 
L 1591 1875 
L 1591 0 
L 559 0 
L 559 4841 
L 2256 4841 
Q 3984 4841 3984 3528 
Q 3984 3034 3695 2681 
Q 3406 2328 2900 2184 
L 2900 2172 
Q 3234 2059 3641 1434 
L 4553 0 
z
M 1591 4056 
L 1591 2663 
L 2097 2663 
Q 2459 2663 2679 2873 
Q 2900 3084 2900 3400 
Q 2900 4056 2116 4056 
L 1591 4056 
z
" transform="scale(0.015625)"/>
      <path id="MicrosoftYaHei-Bold-70" d="M 1469 416 
L 1469 -1591 
L 459 -1591 
L 459 3456 
L 1469 3456 
L 1469 2928 
L 1481 2928 
Q 1878 3541 2603 3541 
Q 3263 3541 3634 3080 
Q 4006 2619 4006 1825 
Q 4006 959 3575 437 
Q 3144 -84 2444 -84 
Q 1809 -84 1481 416 
L 1469 416 
z
M 1453 1528 
Q 1453 1159 1653 925 
Q 1853 691 2172 691 
Q 2550 691 2761 984 
Q 2972 1278 2972 1816 
Q 2972 2766 2231 2766 
Q 1888 2766 1670 2503 
Q 1453 2241 1453 1828 
L 1453 1528 
z
" transform="scale(0.015625)"/>
      <path id="MicrosoftYaHei-Bold-72" d="M 2663 2541 
Q 2478 2647 2216 2647 
Q 1872 2647 1670 2384 
Q 1469 2122 1469 1663 
L 1469 0 
L 459 0 
L 459 3456 
L 1469 3456 
L 1469 2806 
L 1481 2806 
Q 1731 3516 2391 3516 
Q 2569 3516 2663 3475 
L 2663 2541 
z
" transform="scale(0.015625)"/>
      <path id="MicrosoftYaHei-Bold-61" d="M 544 3247 
Q 778 3378 1170 3459 
Q 1563 3541 1841 3541 
Q 3291 3541 3291 2088 
L 3291 0 
L 2331 0 
L 2331 503 
L 2319 503 
Q 1966 -84 1284 -84 
Q 794 -84 498 195 
Q 203 475 203 956 
Q 203 1950 1388 2113 
L 2338 2241 
Q 2338 2844 1709 2844 
Q 1091 2844 544 2469 
L 544 3247 
z
M 1684 1566 
Q 1138 1494 1138 1072 
Q 1138 878 1270 759 
Q 1403 641 1628 641 
Q 1938 641 2138 859 
Q 2338 1078 2338 1403 
L 2338 1650 
L 1684 1566 
z
" transform="scale(0.015625)"/>
      <path id="MicrosoftYaHei-Bold-547c" d="M 2600 2309 
L 4025 2309 
L 4025 4313 
L 2750 4228 
Q 2656 4616 2550 4959 
Q 4519 5003 5931 5141 
L 6194 4447 
L 4900 4369 
L 4900 2309 
L 6263 2309 
L 6263 1478 
L 4900 1478 
L 4900 234 
Q 4900 -222 4698 -464 
Q 4497 -706 4142 -739 
Q 3788 -772 3100 -772 
Q 3013 -303 2906 91 
Q 3316 41 3694 41 
Q 4025 41 4025 491 
L 4025 1478 
L 2600 1478 
L 2600 2309 
z
M 388 4866 
L 2413 4866 
L 2413 -47 
L 1650 -47 
L 1650 428 
L 1150 428 
L 1150 -122 
L 388 -122 
L 388 4866 
z
M 1650 4078 
L 1150 4078 
L 1150 1216 
L 1650 1216 
L 1650 4078 
z
M 5569 4034 
L 6206 3784 
Q 6000 3178 5669 2516 
L 5000 2816 
Q 5331 3441 5569 4034 
z
M 3375 4028 
Q 3650 3384 3875 2778 
L 3175 2541 
Q 2981 3128 2725 3797 
L 3375 4028 
z
" transform="scale(0.015625)"/>
      <path id="MicrosoftYaHei-Bold-5438" d="M 313 4853 
L 2188 4853 
L 2188 416 
Q 2738 1447 2800 3197 
Q 2813 3503 2819 4209 
L 2388 4209 
L 2388 4978 
L 5694 4978 
L 5694 4259 
L 5219 3266 
L 6075 3266 
L 6075 2534 
Q 5856 1472 5269 659 
Q 5744 209 6319 -28 
Q 6025 -422 5775 -822 
Q 5194 -472 4731 28 
Q 4181 -491 3438 -891 
Q 3163 -428 2925 -128 
Q 3681 222 4194 716 
Q 3775 1353 3475 2178 
Q 3288 216 2375 -878 
Q 2106 -466 1800 -147 
Q 2013 97 2181 416 
L 1063 416 
L 1063 -84 
L 313 -84 
L 313 4853 
z
M 3625 3791 
Q 4031 2272 4706 1316 
Q 5063 1853 5206 2509 
L 4313 2509 
L 4313 3266 
L 4744 4209 
L 3631 4209 
Q 3625 3978 3625 3791 
z
M 1463 1178 
L 1463 4091 
L 1063 4091 
L 1063 1178 
L 1463 1178 
z
" transform="scale(0.015625)"/>
     </defs>
     <use xlink:href="#MicrosoftYaHei-Bold-52"/>
     <use xlink:href="#MicrosoftYaHei-Bold-65" transform="translate(67.074219 0)"/>
     <use xlink:href="#MicrosoftYaHei-Bold-73" transform="translate(125.277344 0)"/>
     <use xlink:href="#MicrosoftYaHei-Bold-70" transform="translate(174.642578 0)"/>
     <use xlink:href="#MicrosoftYaHei-Bold-69" transform="translate(241.244141 0)"/>
     <use xlink:href="#MicrosoftYaHei-Bold-72" transform="translate(270.833984 0)"/>
     <use xlink:href="#MicrosoftYaHei-Bold-61" transform="translate(313.216797 0)"/>
     <use xlink:href="#MicrosoftYaHei-Bold-74" transform="translate(370.980469 0)"/>
     <use xlink:href="#MicrosoftYaHei-Bold-69" transform="translate(412.386719 0)"/>
     <use xlink:href="#MicrosoftYaHei-Bold-6f" transform="translate(441.976562 0)"/>
     <use xlink:href="#MicrosoftYaHei-Bold-6e" transform="translate(507.699219 0)"/>
     <use xlink:href="#MicrosoftYaHei-Bold-20" transform="translate(572.494141 0)"/>
     <use xlink:href="#MicrosoftYaHei-Bold-547c" transform="translate(602.279297 0)"/>
     <use xlink:href="#MicrosoftYaHei-Bold-5438" transform="translate(702.279297 0)"/>
     <use xlink:href="#MicrosoftYaHei-Bold-4f5c" transform="translate(802.279297 0)"/>
     <use xlink:href="#MicrosoftYaHei-Bold-7528" transform="translate(902.279297 0)"/>
    </g>
   </g>
  </g>
  <g id="text_19">
   <!-- Photosynthesis vs Respiration (光合 vs 呼吸) -->
   <g style="fill: #2c3e50" transform="translate(126.06818 18.010312) scale(0.13 -0.13)">
    <defs>
     <path id="MicrosoftYaHei-Bold-76" d="M 3688 3456 
L 2391 0 
L 1250 0 
L 16 3456 
L 1097 3456 
L 1731 1281 
Q 1834 925 1847 684 
L 1863 684 
Q 1888 931 1984 1263 
L 2631 3456 
L 3688 3456 
z
" transform="scale(0.015625)"/>
     <path id="MicrosoftYaHei-Bold-28" d="M 1606 -1100 
Q 525 97 525 1853 
Q 525 3550 1606 4841 
L 2431 4841 
Q 1406 3497 1406 1853 
Q 1406 216 2438 -1100 
L 1606 -1100 
z
" transform="scale(0.015625)"/>
     <path id="MicrosoftYaHei-Bold-29" d="M 59 -1100 
Q 1097 216 1097 1853 
Q 1097 3484 59 4841 
L 888 4841 
Q 1978 3544 1978 1853 
Q 1978 113 881 -1100 
L 59 -1100 
z
" transform="scale(0.015625)"/>
    </defs>
    <use xlink:href="#MicrosoftYaHei-Bold-50"/>
    <use xlink:href="#MicrosoftYaHei-Bold-68" transform="translate(65.722656 0)"/>
    <use xlink:href="#MicrosoftYaHei-Bold-6f" transform="translate(130.273438 0)"/>
    <use xlink:href="#MicrosoftYaHei-Bold-74" transform="translate(195.996094 0)"/>
    <use xlink:href="#MicrosoftYaHei-Bold-6f" transform="translate(236.902344 0)"/>
    <use xlink:href="#MicrosoftYaHei-Bold-73" transform="translate(302.625 0)"/>
    <use xlink:href="#MicrosoftYaHei-Bold-79" transform="translate(351.990234 0)"/>
    <use xlink:href="#MicrosoftYaHei-Bold-6e" transform="translate(409.412109 0)"/>
    <use xlink:href="#MicrosoftYaHei-Bold-74" transform="translate(474.207031 0)"/>
    <use xlink:href="#MicrosoftYaHei-Bold-68" transform="translate(515.613281 0)"/>
    <use xlink:href="#MicrosoftYaHei-Bold-65" transform="translate(580.164062 0)"/>
    <use xlink:href="#MicrosoftYaHei-Bold-73" transform="translate(638.367188 0)"/>
    <use xlink:href="#MicrosoftYaHei-Bold-69" transform="translate(687.732422 0)"/>
    <use xlink:href="#MicrosoftYaHei-Bold-73" transform="translate(717.322266 0)"/>
    <use xlink:href="#MicrosoftYaHei-Bold-20" transform="translate(766.6875 0)"/>
    <use xlink:href="#MicrosoftYaHei-Bold-76" transform="translate(796.472656 0)"/>
    <use xlink:href="#MicrosoftYaHei-Bold-73" transform="translate(854.1875 0)"/>
    <use xlink:href="#MicrosoftYaHei-Bold-20" transform="translate(903.552734 0)"/>
    <use xlink:href="#MicrosoftYaHei-Bold-52" transform="translate(933.337891 0)"/>
    <use xlink:href="#MicrosoftYaHei-Bold-65" transform="translate(1000.412109 0)"/>
    <use xlink:href="#MicrosoftYaHei-Bold-73" transform="translate(1058.615234 0)"/>
    <use xlink:href="#MicrosoftYaHei-Bold-70" transform="translate(1107.980469 0)"/>
    <use xlink:href="#MicrosoftYaHei-Bold-69" transform="translate(1174.582031 0)"/>
    <use xlink:href="#MicrosoftYaHei-Bold-72" transform="translate(1204.171875 0)"/>
    <use xlink:href="#MicrosoftYaHei-Bold-61" transform="translate(1246.554688 0)"/>
    <use xlink:href="#MicrosoftYaHei-Bold-74" transform="translate(1304.318359 0)"/>
    <use xlink:href="#MicrosoftYaHei-Bold-69" transform="translate(1345.724609 0)"/>
    <use xlink:href="#MicrosoftYaHei-Bold-6f" transform="translate(1375.314453 0)"/>
    <use xlink:href="#MicrosoftYaHei-Bold-6e" transform="translate(1441.037109 0)"/>
    <use xlink:href="#MicrosoftYaHei-Bold-20" transform="translate(1505.832031 0)"/>
    <use xlink:href="#MicrosoftYaHei-Bold-28" transform="translate(1535.617188 0)"/>
    <use xlink:href="#MicrosoftYaHei-Bold-5149" transform="translate(1574.582031 0)"/>
    <use xlink:href="#MicrosoftYaHei-Bold-5408" transform="translate(1674.582031 0)"/>
    <use xlink:href="#MicrosoftYaHei-Bold-20" transform="translate(1774.582031 0)"/>
    <use xlink:href="#MicrosoftYaHei-Bold-76" transform="translate(1804.367188 0)"/>
    <use xlink:href="#MicrosoftYaHei-Bold-73" transform="translate(1862.082031 0)"/>
    <use xlink:href="#MicrosoftYaHei-Bold-20" transform="translate(1911.447266 0)"/>
    <use xlink:href="#MicrosoftYaHei-Bold-547c" transform="translate(1941.232422 0)"/>
    <use xlink:href="#MicrosoftYaHei-Bold-5438" transform="translate(2041.232422 0)"/>
    <use xlink:href="#MicrosoftYaHei-Bold-29" transform="translate(2141.232422 0)"/>
   </g>
  </g>
 </g>
 <defs>
  <clipPath id="p0a84304a79">
   <rect x="18.090716" y="53.10375" width="217.814318" height="225.53625"/>
  </clipPath>
  <clipPath id="p3d4bb17d40">
   <rect x="276.675034" y="53.10375" width="217.814318" height="225.53625"/>
  </clipPath>
 </defs>
</svg>
