<?xml version="1.0" encoding="utf-8" standalone="no"?>
<!DOCTYPE svg PUBLIC "-//W3C//DTD SVG 1.1//EN"
  "http://www.w3.org/Graphics/SVG/1.1/DTD/svg11.dtd">
<svg xmlns:xlink="http://www.w3.org/1999/xlink" width="460.8pt" height="223.831875pt" viewBox="0 0 460.8 223.831875" xmlns="http://www.w3.org/2000/svg" version="1.1">
 <metadata>
  <rdf:RDF xmlns:dc="http://purl.org/dc/elements/1.1/" xmlns:cc="http://creativecommons.org/ns#" xmlns:rdf="http://www.w3.org/1999/02/22-rdf-syntax-ns#">
   <cc:Work>
    <dc:type rdf:resource="http://purl.org/dc/dcmitype/StillImage"/>
    <dc:date>2026-05-25T22:58:36.794865</dc:date>
    <dc:format>image/svg+xml</dc:format>
    <dc:creator>
     <cc:Agent>
      <dc:title>Matplotlib v3.10.9, https://matplotlib.org/</dc:title>
     </cc:Agent>
    </dc:creator>
   </cc:Work>
  </rdf:RDF>
 </metadata>
 <defs>
  <style type="text/css">*{stroke-linejoin: round; stroke-linecap: butt}</style>
 </defs>
 <g id="figure_1">
  <g id="patch_1">
   <path d="M 0 223.831875 
L 460.8 223.831875 
L 460.8 0 
L 0 0 
z
" style="fill: #ffffff"/>
  </g>
  <g id="axes_1">
   <g id="patch_2">
    <path d="M 211.8 196.257675 
L 256.44 196.257675 
Q 259.416 196.257675 259.416 192.376875 
L 259.416 46.846875 
Q 259.416 42.966075 256.44 42.966075 
L 211.8 42.966075 
Q 208.824 42.966075 208.824 46.846875 
L 208.824 192.376875 
Q 208.824 196.257675 211.8 196.257675 
z
" clip-path="url(#pb3dc4b5e28)" style="fill: #f5f0e8; opacity: 0.3; stroke: #8b7355; stroke-width: 2; stroke-linejoin: miter"/>
   </g>
   <g id="patch_3">
    <path d="M 25.8 139.015875 
C 29.746222 139.015875 33.531348 136.971347 36.321749 133.332575 
C 39.112149 129.693803 40.68 124.757876 40.68 119.611875 
C 40.68 114.465874 39.112149 109.529947 36.321749 105.891175 
C 33.531348 102.252403 29.746222 100.207875 25.8 100.207875 
C 21.853778 100.207875 18.068652 102.252403 15.278251 105.891175 
C 12.487851 109.529947 10.92 114.465874 10.92 119.611875 
C 10.92 124.757876 12.487851 129.693803 15.278251 133.332575 
C 18.068652 136.971347 21.853778 139.015875 25.8 139.015875 
z
" clip-path="url(#pb3dc4b5e28)" style="fill: #e74c3c; opacity: 0.3; stroke: #e74c3c; stroke-width: 2; stroke-linejoin: miter"/>
   </g>
   <g id="patch_4">
    <path d="M 416.4 139.015875 
C 420.346222 139.015875 424.131348 136.971347 426.921749 133.332575 
C 429.712149 129.693803 431.28 124.757876 431.28 119.611875 
C 431.28 114.465874 429.712149 109.529947 426.921749 105.891175 
C 424.131348 102.252403 420.346222 100.207875 416.4 100.207875 
C 412.453778 100.207875 408.668652 102.252403 405.878251 105.891175 
C 403.087851 109.529947 401.52 114.465874 401.52 119.611875 
C 401.52 124.757876 403.087851 129.693803 405.878251 133.332575 
C 408.668652 136.971347 412.453778 139.015875 416.4 139.015875 
z
" clip-path="url(#pb3dc4b5e28)" style="fill: #e67e22; opacity: 0.3; stroke: #e67e22; stroke-width: 2; stroke-linejoin: miter"/>
   </g>
   <g id="line2d_1">
    <path d="M 63 119.611875 
L 211.8 95.356875 
" clip-path="url(#pb3dc4b5e28)" style="fill: none; stroke: #3498db; stroke-width: 2.5; stroke-linecap: square"/>
   </g>
   <g id="line2d_2">
    <path d="M 256.44 143.866875 
L 379.2 119.611875 
" clip-path="url(#pb3dc4b5e28)" style="fill: none; stroke: #27ae60; stroke-width: 2.5; stroke-linecap: square"/>
   </g>
   <g id="text_1">
    <!-- 脊髓 -->
    <g style="fill: #8b7355" transform="translate(225.12 116.655094) scale(0.09 -0.09)">
     <defs>
      <path id="MicrosoftYaHei-Bold-810a" d="M 619 4709 
L 975 5309 
Q 1819 5053 2300 4859 
L 2056 4447 
Q 2206 4484 2350 4522 
L 2544 4078 
Q 2831 4572 2831 5341 
L 3606 5341 
Q 3606 4859 3513 4472 
Q 3656 4259 3831 4072 
L 4044 4522 
L 4344 4447 
L 4119 4884 
Q 4888 5109 5463 5359 
L 5794 4766 
Q 5225 4547 4694 4366 
Q 5400 4184 6044 4009 
L 5769 3341 
Q 5350 3484 3963 3941 
Q 4781 3166 6319 2841 
Q 6075 2341 5931 2034 
Q 5706 2103 5500 2178 
L 5500 184 
Q 5500 -766 4575 -784 
Q 4181 -797 3600 -797 
Q 3550 -466 3419 3 
Q 3881 -34 4250 -28 
Q 4606 -34 4631 322 
L 1775 322 
L 1775 -816 
L 913 -816 
L 913 2066 
Q 725 1984 525 1909 
Q 375 2228 88 2691 
Q 1881 3209 2413 3878 
Q 1250 3522 581 3297 
L 281 4034 
Q 1031 4197 1675 4353 
Q 1088 4566 619 4709 
z
M 4638 2122 
L 1775 2122 
L 1775 1784 
L 4638 1784 
L 4638 2122 
z
M 1775 884 
L 4638 884 
L 4638 1222 
L 1775 1222 
L 1775 884 
z
M 3231 3747 
Q 2925 3228 2250 2772 
L 4288 2772 
Q 3625 3191 3231 3747 
z
" transform="scale(0.015625)"/>
      <path id="MicrosoftYaHei-Bold-9ad3" d="M 4544 -84 
Q 5688 -97 6363 -66 
L 6188 -778 
Q 5556 -791 4663 -784 
Q 3913 -772 3606 -678 
Q 3250 -541 2994 -228 
Q 2813 -516 2606 -859 
L 2244 -391 
Q 2119 -772 1700 -778 
L 1181 -778 
Q 1169 -572 1113 -103 
Q 1313 -134 1488 -141 
Q 1688 -147 1688 91 
L 1688 234 
L 1044 234 
L 1044 -834 
L 431 -834 
L 431 2291 
L 100 2291 
L 100 3353 
L 344 3353 
L 344 5116 
L 2338 5116 
L 2338 3353 
L 2525 3353 
L 2525 3178 
L 3331 3178 
L 3331 316 
Q 3450 178 3600 66 
Q 3900 -78 4544 -84 
z
M 4225 84 
L 3600 84 
L 3600 2741 
L 6119 2741 
L 6119 797 
Q 6119 109 5581 91 
Q 5294 72 4838 72 
Q 4794 266 4713 597 
Q 5075 572 5275 572 
Q 5494 566 5494 841 
L 5494 859 
L 4225 859 
L 4225 84 
z
M 3494 4909 
L 4075 4909 
Q 4156 5091 4231 5291 
L 4900 5191 
Q 4844 5047 4781 4909 
L 6281 4909 
L 6281 4384 
L 4519 4384 
Q 4456 4272 4388 4172 
L 6050 4172 
L 6050 3697 
L 5244 3697 
L 5244 3434 
L 6231 3434 
L 6231 2959 
L 3619 2959 
L 3619 3222 
Q 3531 3141 3444 3066 
Q 3250 3397 3069 3603 
Q 3481 3934 3781 4384 
L 3494 4384 
L 3494 4909 
z
M 2694 2447 
L 2525 2447 
L 2525 2291 
L 2300 2291 
L 2300 -116 
Q 2519 172 2694 391 
L 2694 2447 
z
M 3100 5216 
Q 3281 4597 3425 4041 
L 2831 3872 
Q 2706 4441 2525 5066 
L 3100 5216 
z
M 1763 4528 
L 875 4528 
L 875 4253 
L 1544 4253 
L 1544 3353 
L 1763 3353 
L 1763 4528 
z
M 2019 2791 
L 619 2791 
L 619 2528 
L 2019 2528 
L 2019 2791 
z
M 4225 1297 
L 5494 1297 
L 5494 1559 
L 4225 1559 
L 4225 1297 
z
M 5494 2259 
L 4225 2259 
L 4225 1997 
L 5494 1997 
L 5494 2259 
z
M 1688 1972 
L 1044 1972 
L 1044 1616 
L 1688 1616 
L 1688 1972 
z
M 1044 747 
L 1688 747 
L 1688 1103 
L 1044 1103 
L 1044 747 
z
M 3825 3434 
L 4625 3434 
L 4625 3697 
L 4050 3697 
Q 3944 3559 3825 3434 
z
M 1106 3728 
L 875 3728 
L 875 3353 
L 1106 3353 
L 1106 3728 
z
" transform="scale(0.015625)"/>
     </defs>
     <use xlink:href="#MicrosoftYaHei-Bold-810a"/>
     <use xlink:href="#MicrosoftYaHei-Bold-9ad3" transform="translate(100 0)"/>
    </g>
    <!-- （神经中枢） -->
    <g style="fill: #8b7355" transform="translate(207.12 127.525687) scale(0.09 -0.09)">
     <defs>
      <path id="MicrosoftYaHei-Bold-ff08" d="M 5197 -1088 
Q 4056 184 4056 1881 
Q 4056 3616 5203 4838 
L 6034 4838 
Q 4922 3503 4922 1888 
Q 4922 266 6028 -1088 
L 5197 -1088 
z
" transform="scale(0.015625)"/>
      <path id="MicrosoftYaHei-Bold-795e" d="M 3844 -834 
L 3844 622 
L 3213 622 
L 3213 303 
L 2438 303 
L 2438 1528 
L 1938 1241 
Q 1788 1550 1638 1828 
L 1638 -834 
L 825 -834 
L 825 1416 
Q 581 1134 319 891 
Q 188 1522 88 1916 
Q 825 2641 1213 3384 
L 175 3384 
L 175 4209 
L 1153 4209 
Q 853 4697 613 5022 
L 1350 5391 
Q 1600 5091 1956 4566 
L 1291 4209 
L 2163 4209 
L 2163 3516 
Q 1913 2994 1638 2541 
L 1638 2353 
L 1900 2522 
Q 2138 2203 2438 1731 
L 2438 4334 
L 3844 4334 
L 3844 5278 
L 4656 5278 
L 4656 4334 
L 6069 4334 
L 6069 322 
L 5294 322 
L 5294 622 
L 4656 622 
L 4656 -834 
L 3844 -834 
z
M 5294 3566 
L 4656 3566 
L 4656 2841 
L 5294 2841 
L 5294 3566 
z
M 3213 2841 
L 3844 2841 
L 3844 3566 
L 3213 3566 
L 3213 2841 
z
M 4656 1391 
L 5294 1391 
L 5294 2116 
L 4656 2116 
L 4656 1391 
z
M 3213 1391 
L 3844 1391 
L 3844 2116 
L 3213 2116 
L 3213 1391 
z
" transform="scale(0.015625)"/>
      <path id="MicrosoftYaHei-Bold-7ecf" d="M 988 3397 
L 1513 3419 
Q 1744 3784 1988 4209 
L 2738 3834 
Q 1788 2472 1238 1797 
Q 1863 1841 2263 1884 
Q 2213 1441 2213 1122 
Q 888 1034 331 928 
L 138 1647 
Q 550 2034 1025 2694 
Q 606 2663 319 2616 
L 31 3328 
Q 613 4028 1181 5366 
L 2006 5072 
Q 1488 4109 988 3397 
z
M 5769 5047 
L 5769 4353 
Q 5447 3906 5053 3525 
Q 5694 3203 6331 2859 
L 5831 2147 
Q 5094 2622 4431 2997 
Q 3638 2406 2619 2022 
Q 2406 2434 2188 2778 
Q 3813 3341 4744 4297 
L 2594 4297 
L 2594 5047 
L 5769 5047 
z
M 2613 1959 
L 6000 1959 
L 6000 1209 
L 4756 1209 
L 4756 91 
L 6263 91 
L 6263 -659 
L 2288 -659 
L 2288 -200 
Q 1194 -306 219 -466 
L 88 409 
Q 1106 484 2344 672 
Q 2322 400 2319 91 
L 3863 91 
L 3863 1209 
L 2613 1209 
L 2613 1959 
z
" transform="scale(0.015625)"/>
      <path id="MicrosoftYaHei-Bold-4e2d" d="M 2719 5341 
L 3669 5341 
L 3669 4234 
L 6000 4234 
L 6000 728 
L 5075 728 
L 5075 1159 
L 3669 1159 
L 3669 -853 
L 2719 -853 
L 2719 1159 
L 1313 1159 
L 1313 709 
L 388 709 
L 388 4234 
L 2719 4234 
L 2719 5341 
z
M 5075 3372 
L 3669 3372 
L 3669 2022 
L 5075 2022 
L 5075 3372 
z
M 1313 2022 
L 2719 2022 
L 2719 3372 
L 1313 3372 
L 1313 2022 
z
" transform="scale(0.015625)"/>
      <path id="MicrosoftYaHei-Bold-67a2" d="M 75 1703 
Q 569 2534 809 3391 
L 119 3391 
L 119 4203 
L 863 4203 
L 863 5303 
L 1656 5303 
L 1656 4203 
L 2281 4203 
L 2281 3391 
L 1656 3391 
L 1656 2778 
Q 2044 2525 2463 2234 
L 2463 4941 
L 6225 4941 
L 6225 4191 
L 3288 4191 
L 3288 116 
L 6263 116 
L 6263 -634 
L 2463 -634 
L 2463 2147 
L 2000 1553 
L 1656 1844 
L 1656 -841 
L 863 -841 
L 863 1734 
Q 622 1144 275 559 
Q 213 991 75 1703 
z
M 3388 3659 
L 4013 4009 
L 4722 2900 
Q 5047 3488 5313 4091 
L 6013 3809 
Q 5622 2969 5169 2188 
L 6063 753 
L 5356 322 
L 4716 1444 
Q 4347 869 3944 328 
L 3306 778 
Q 3844 1463 4291 2172 
Q 3813 2981 3388 3659 
z
" transform="scale(0.015625)"/>
      <path id="MicrosoftYaHei-Bold-ff09" d="M 1191 -1088 
L 359 -1088 
Q 1472 238 1472 1863 
Q 1472 3478 366 4838 
L 1197 4838 
Q 2338 3572 2338 1863 
Q 2338 125 1191 -1088 
z
" transform="scale(0.015625)"/>
     </defs>
     <use xlink:href="#MicrosoftYaHei-Bold-ff08"/>
     <use xlink:href="#MicrosoftYaHei-Bold-795e" transform="translate(100 0)"/>
     <use xlink:href="#MicrosoftYaHei-Bold-7ecf" transform="translate(200 0)"/>
     <use xlink:href="#MicrosoftYaHei-Bold-4e2d" transform="translate(300 0)"/>
     <use xlink:href="#MicrosoftYaHei-Bold-67a2" transform="translate(400 0)"/>
     <use xlink:href="#MicrosoftYaHei-Bold-ff09" transform="translate(500 0)"/>
    </g>
   </g>
   <g id="text_2">
    <!-- 感受器 -->
    <g style="fill: #e74c3c" transform="translate(12.3 85.654875) scale(0.09 -0.09)">
     <defs>
      <path id="MicrosoftYaHei-Bold-611f" d="M 631 4766 
L 3769 4766 
Q 3756 5034 3750 5328 
L 4538 5328 
Q 4544 5034 4559 4766 
L 5006 4766 
Q 4903 4963 4806 5122 
L 5506 5316 
Q 5700 4981 5816 4766 
L 6225 4766 
L 6225 4053 
L 4613 4053 
Q 4672 3406 4778 2934 
Q 5050 3341 5275 3816 
L 5919 3441 
Q 5516 2691 5059 2113 
Q 5206 1828 5350 1828 
Q 5472 1828 5531 2051 
Q 5591 2275 5663 2628 
Q 6006 2416 6338 2278 
Q 6169 1572 6019 1326 
Q 5869 1081 5616 1000 
Q 5988 516 6313 -22 
L 5613 -447 
Q 5269 184 4894 728 
L 5313 966 
Q 4838 988 4494 1475 
Q 4278 1263 4050 1084 
Q 3841 1344 3669 1525 
L 3669 1403 
L 3309 1403 
Q 3634 1019 3938 628 
L 3313 191 
Q 3050 597 2625 1128 
L 3053 1403 
L 1613 1403 
L 1613 2947 
L 3669 2947 
L 3669 1725 
Q 3922 1925 4150 2159 
Q 3916 2816 3813 4053 
L 1413 4053 
L 1413 3266 
Q 1413 1950 972 1144 
L 1525 941 
Q 1231 209 838 -578 
L 113 -234 
Q 438 397 631 897 
Q 338 1188 75 1384 
Q 631 2022 631 3347 
L 631 4766 
z
M 2981 1966 
L 2981 2384 
L 2300 2384 
L 2300 1966 
L 2981 1966 
z
M 3681 3222 
L 1594 3222 
L 1594 3778 
L 3681 3778 
L 3681 3222 
z
M 4244 791 
Q 4638 547 5044 391 
Q 4781 -409 4517 -571 
Q 4253 -734 3844 -734 
L 2525 -734 
Q 1594 -734 1594 53 
L 1594 1059 
L 2419 1059 
L 2419 266 
Q 2419 -28 2763 -28 
L 3588 -28 
Q 3909 -28 4040 112 
Q 4172 253 4244 791 
z
" transform="scale(0.015625)"/>
      <path id="MicrosoftYaHei-Bold-53d7" d="M 300 2303 
L 300 3441 
L 1081 3441 
Q 881 3784 750 3978 
L 1675 4091 
Q 1825 3778 1994 3441 
L 2888 3441 
Q 2713 3747 2531 4047 
L 3494 4172 
Q 3675 3759 3800 3441 
L 4356 3441 
Q 4556 3753 4856 4216 
L 5744 4016 
Q 5581 3803 5313 3441 
L 6094 3441 
L 6094 2303 
L 5250 2303 
L 5250 2666 
L 1144 2666 
L 1144 2303 
L 300 2303 
z
M 5719 5134 
Q 5719 5128 5850 4372 
Q 3575 4253 519 4172 
Q 475 4628 419 4959 
Q 3813 4997 5719 5134 
z
M 3219 716 
Q 3850 1016 4338 1422 
L 2106 1422 
Q 2594 1009 3219 716 
z
M 5475 2178 
L 5475 1516 
Q 4994 847 4219 347 
Q 5144 103 6300 47 
Q 6194 -216 5963 -828 
Q 4431 -697 3200 -166 
Q 2088 -628 569 -853 
Q 394 -478 175 -22 
Q 1313 78 2231 341 
Q 1700 678 1244 1109 
L 1588 1422 
L 981 1422 
L 981 2178 
L 5475 2178 
z
" transform="scale(0.015625)"/>
      <path id="MicrosoftYaHei-Bold-5668" d="M 506 5059 
L 2956 5059 
L 2956 3297 
L 506 3297 
L 506 5059 
z
M 2194 3934 
L 2194 4422 
L 1269 4422 
L 1269 3934 
L 2194 3934 
z
M 3444 5059 
L 5888 5059 
L 5888 3297 
L 3444 3297 
L 3444 5059 
z
M 5125 3934 
L 5125 4422 
L 4213 4422 
L 4213 3934 
L 5125 3934 
z
M 3438 -797 
L 3438 1228 
L 4738 1228 
Q 3700 1456 3194 1984 
Q 2763 1466 1522 1228 
L 2950 1228 
L 2950 -809 
L 2225 -809 
L 2225 -572 
L 1231 -572 
L 1231 -809 
L 506 -809 
L 506 1097 
Q 372 1084 231 1078 
Q 194 1378 100 1716 
Q 2025 1766 2428 2253 
L 181 2253 
L 181 2891 
L 2728 2891 
Q 2756 3034 2769 3203 
L 3644 3203 
Q 3628 3038 3600 2891 
L 4444 2891 
L 4344 3134 
L 5144 3234 
L 5288 2891 
L 6231 2891 
L 6231 2253 
L 3772 2253 
Q 4438 1738 6306 1709 
Q 6200 1359 6144 1066 
Q 6013 1069 5888 1078 
L 5888 -809 
L 5163 -809 
L 5163 -572 
L 4163 -572 
L 4163 -797 
L 3438 -797 
z
M 5163 591 
L 4163 591 
L 4163 66 
L 5163 66 
L 5163 591 
z
M 2225 591 
L 1231 591 
L 1231 66 
L 2225 66 
L 2225 591 
z
" transform="scale(0.015625)"/>
     </defs>
     <use xlink:href="#MicrosoftYaHei-Bold-611f"/>
     <use xlink:href="#MicrosoftYaHei-Bold-53d7" transform="translate(100 0)"/>
     <use xlink:href="#MicrosoftYaHei-Bold-5668" transform="translate(200 0)"/>
    </g>
   </g>
   <g id="patch_5">
    <path d="M 42.682588 119.611875 
Q 51.841792 119.611875 58.205912 119.611875 
" style="fill: none; stroke: #3498db; stroke-width: 2.5; stroke-linecap: round"/>
    <path d="M 54.205912 117.611875 
L 58.205912 119.611875 
L 54.205912 121.611875 
" style="fill: none; stroke: #3498db; stroke-width: 2.5; stroke-linecap: round"/>
   </g>
   <g id="text_3">
    <!-- 传入神经 -->
    <g style="fill: #3498db" transform="translate(28.4 143.866875) scale(0.08 -0.08)">
     <defs>
      <path id="MicrosoftYaHei-Bold-4f20" d="M 1306 5347 
L 2131 5128 
Q 1891 4375 1600 3681 
L 1600 -853 
L 806 -853 
L 806 2041 
Q 556 1597 281 1178 
Q 206 1672 75 2347 
Q 856 3609 1306 5347 
z
M 2325 334 
L 2738 1009 
Q 3278 816 4028 516 
L 4819 1297 
L 2450 1297 
L 2450 1978 
Q 2550 2263 2647 2559 
L 1875 2559 
L 1875 3272 
L 2866 3272 
L 3025 3828 
L 2175 3828 
L 2175 4528 
L 3209 4528 
L 3388 5278 
L 4319 5278 
L 4134 4528 
L 6075 4528 
L 6075 3828 
L 3950 3828 
L 3794 3272 
L 6300 3272 
L 6300 2559 
L 3578 2559 
Q 3488 2269 3394 1997 
L 6019 1997 
L 6019 1341 
L 4872 169 
L 5650 -159 
L 5206 -897 
Q 4088 -359 2325 334 
z
" transform="scale(0.015625)"/>
      <path id="MicrosoftYaHei-Bold-5165" d="M 1606 4822 
L 2438 5303 
Q 3106 4778 4019 2934 
Q 4900 1134 6300 128 
Q 5769 -441 5488 -797 
Q 4138 525 3238 2369 
Q 2447 466 813 -822 
Q 525 -459 75 -3 
Q 2013 1391 2709 3494 
Q 2309 4197 1606 4822 
z
" transform="scale(0.015625)"/>
     </defs>
     <use xlink:href="#MicrosoftYaHei-Bold-4f20"/>
     <use xlink:href="#MicrosoftYaHei-Bold-5165" transform="translate(100 0)"/>
     <use xlink:href="#MicrosoftYaHei-Bold-795e" transform="translate(200 0)"/>
     <use xlink:href="#MicrosoftYaHei-Bold-7ecf" transform="translate(300 0)"/>
    </g>
   </g>
   <g id="patch_6">
    <path d="M 234.12 97.355425 
Q 234.12 119.610461 234.12 140.188446 
" style="fill: none; stroke: #8b7355; stroke-width: 1.5; stroke-linecap: round"/>
    <path d="M 236.12 136.188446 
L 234.12 140.188446 
L 232.12 136.188446 
" style="fill: none; stroke: #8b7355; stroke-width: 1.5; stroke-linecap: round"/>
   </g>
   <g id="patch_7">
    <path d="M 362.602588 119.611875 
Q 369.902451 119.611875 374.407228 119.611875 
" style="fill: none; stroke: #27ae60; stroke-width: 2.5; stroke-linecap: round"/>
    <path d="M 370.407228 117.611875 
L 374.407228 119.611875 
L 370.407228 121.611875 
" style="fill: none; stroke: #27ae60; stroke-width: 2.5; stroke-linecap: round"/>
   </g>
   <g id="text_4">
    <!-- 传出神经 -->
    <g style="fill: #27ae60" transform="translate(307.4 143.866875) scale(0.08 -0.08)">
     <defs>
      <path id="MicrosoftYaHei-Bold-51fa" d="M 4869 3184 
L 4869 4753 
L 5744 4753 
L 5744 2359 
L 3663 2359 
L 3663 284 
L 5094 284 
L 5094 1816 
L 5969 1816 
L 5969 -834 
L 5094 -834 
L 5094 -541 
L 425 -541 
L 425 1816 
L 1300 1816 
L 1300 284 
L 2725 284 
L 2725 2359 
L 650 2359 
L 650 4753 
L 1525 4753 
L 1525 3184 
L 2725 3184 
L 2725 5297 
L 3663 5297 
L 3663 3184 
L 4869 3184 
z
" transform="scale(0.015625)"/>
     </defs>
     <use xlink:href="#MicrosoftYaHei-Bold-4f20"/>
     <use xlink:href="#MicrosoftYaHei-Bold-51fa" transform="translate(100 0)"/>
     <use xlink:href="#MicrosoftYaHei-Bold-795e" transform="translate(200 0)"/>
     <use xlink:href="#MicrosoftYaHei-Bold-7ecf" transform="translate(300 0)"/>
    </g>
   </g>
   <g id="text_5">
    <!-- 效应器 -->
    <g style="fill: #e67e22" transform="translate(402.9 74.784281) scale(0.09 -0.09)">
     <defs>
      <path id="MicrosoftYaHei-Bold-6548" d="M 1169 2122 
L 1806 1500 
Q 2019 1891 2131 2341 
L 2778 2159 
Q 2425 2663 1944 3203 
L 2550 3634 
Q 2841 3325 3084 3041 
Q 3653 4084 3956 5359 
L 4769 5247 
Q 4666 4809 4506 4366 
L 6294 4366 
L 6294 3534 
L 5931 3534 
Q 5778 1931 5213 928 
Q 5666 353 6319 22 
Q 6100 -278 5788 -809 
Q 5156 -378 4703 216 
Q 4141 -419 3331 -866 
Q 3069 -478 2756 -147 
Q 3644 325 4213 1000 
Q 3863 1697 3688 2556 
Q 3534 2281 3363 2003 
Q 3259 2166 3128 2363 
L 2838 2144 
L 2919 2122 
Q 2725 1472 2394 919 
Q 2791 519 3081 209 
L 2475 -372 
Q 2219 -59 1928 266 
Q 1375 -388 581 -866 
Q 350 -484 56 -91 
Q 856 300 1366 872 
Q 1013 1241 619 1628 
L 1169 2122 
z
M 4713 1772 
Q 5038 2481 5147 3534 
L 4256 3534 
Q 4378 2525 4713 1772 
z
M 200 4553 
L 1388 4553 
Q 1294 4847 1163 5178 
L 2000 5359 
Q 2163 4922 2259 4553 
L 3325 4553 
L 3325 3778 
L 200 3778 
L 200 4553 
z
M 950 3609 
L 1663 3272 
Q 1200 2441 625 1872 
Q 269 2284 75 2466 
Q 588 2984 950 3609 
z
" transform="scale(0.015625)"/>
      <path id="MicrosoftYaHei-Bold-5e94" d="M 1438 2491 
Q 1438 119 794 -866 
Q 506 -597 88 -266 
Q 619 622 613 2603 
L 613 4566 
L 3009 4566 
Q 2894 4853 2781 5116 
L 3788 5353 
Q 3928 5016 4103 4566 
L 6225 4566 
L 6225 3797 
L 1438 3797 
L 1438 2491 
z
M 3013 3309 
L 3794 3541 
Q 4125 2678 4513 1316 
L 3669 1084 
Q 3300 2416 3013 3309 
z
M 1325 316 
L 4300 316 
Q 4681 1541 5200 3453 
L 6069 3228 
Q 5744 2006 5184 316 
L 6250 316 
L 6250 -553 
L 1325 -553 
L 1325 316 
z
M 1475 2984 
L 2225 3303 
Q 2775 2103 3244 828 
L 2406 516 
Q 2006 1684 1475 2984 
z
" transform="scale(0.015625)"/>
     </defs>
     <use xlink:href="#MicrosoftYaHei-Bold-6548"/>
     <use xlink:href="#MicrosoftYaHei-Bold-5e94" transform="translate(100 0)"/>
     <use xlink:href="#MicrosoftYaHei-Bold-5668" transform="translate(200 0)"/>
    </g>
    <!-- （肌肉/腺体） -->
    <g style="fill: #e67e22" transform="translate(387.273047 85.654875) scale(0.09 -0.09)">
     <defs>
      <path id="MicrosoftYaHei-Bold-808c" d="M 5694 1634 
Q 5975 1509 6306 1391 
Q 6225 131 6184 -159 
Q 6144 -450 5981 -570 
Q 5819 -691 5525 -691 
L 5144 -691 
Q 4531 -691 4531 -3 
L 4531 4197 
L 3819 4197 
L 3819 2366 
Q 3819 966 3595 312 
Q 3372 -341 2956 -847 
Q 2756 -609 2497 -319 
Q 2403 -566 2168 -655 
Q 1934 -744 1269 -766 
Q 1219 -441 1025 84 
Q 1244 53 1431 53 
Q 1775 53 1775 409 
L 1775 1116 
L 1141 1116 
Q 1103 0 644 -866 
Q 419 -559 69 -116 
Q 284 391 351 1002 
Q 419 1613 419 2978 
L 419 5078 
L 2556 5078 
L 2556 191 
Q 2863 613 2941 1141 
Q 3019 1669 3019 2472 
L 3019 5041 
L 5331 5041 
L 5331 322 
Q 5331 116 5444 116 
Q 5588 116 5627 292 
Q 5666 469 5694 1634 
z
M 1775 4278 
L 1175 4278 
L 1175 3441 
L 1775 3441 
L 1775 4278 
z
M 1169 1859 
L 1775 1859 
L 1775 2697 
L 1175 2697 
Q 1175 2453 1169 1859 
z
" transform="scale(0.015625)"/>
      <path id="MicrosoftYaHei-Bold-8089" d="M 488 4491 
L 2841 4491 
Q 2859 4869 2869 5353 
L 3663 5353 
Q 3656 5000 3628 4491 
L 5925 4491 
L 5925 284 
Q 5925 -159 5729 -436 
Q 5534 -713 4996 -744 
Q 4459 -775 3950 -759 
Q 3888 -441 3763 66 
Q 4250 28 4669 28 
Q 5100 28 5100 447 
L 5100 3703 
L 3531 3703 
Q 3519 3653 3500 3603 
Q 4416 3078 5088 2641 
L 4556 2009 
Q 3856 2528 3169 3000 
Q 2722 2409 1825 1884 
Q 1588 2259 1325 2566 
Q 2359 3066 2681 3703 
L 1313 3703 
L 1313 872 
Q 2250 1247 2542 1605 
Q 2834 1963 2850 2603 
L 3625 2603 
Q 3603 2156 3500 1800 
L 5075 884 
L 4550 191 
Q 3834 719 3181 1159 
Q 2728 572 1769 91 
Q 1581 359 1313 691 
L 1313 -803 
L 488 -803 
L 488 4491 
z
" transform="scale(0.015625)"/>
      <path id="MicrosoftYaHei-Bold-2f" d="M 3100 4841 
L 747 -803 
L -156 -803 
L 2188 4841 
L 3100 4841 
z
" transform="scale(0.015625)"/>
      <path id="MicrosoftYaHei-Bold-817a" d="M 3750 5359 
L 4606 5222 
Q 4544 5066 4450 4828 
L 5875 4828 
L 5875 2209 
L 4675 2209 
L 4675 1953 
Q 4831 1591 5013 1297 
Q 5481 1691 5788 2047 
L 6313 1553 
Q 5894 1178 5400 816 
Q 5788 434 6363 172 
Q 6219 -16 5888 -559 
Q 5119 -59 4675 659 
L 4675 9 
Q 4675 -741 4019 -791 
Q 3656 -803 3263 -803 
Q 3188 -384 3100 -91 
Q 3363 -109 3650 -109 
Q 3894 -109 3894 128 
L 3894 2209 
L 2588 2209 
L 2588 4828 
L 3600 4828 
Q 3681 5091 3750 5359 
z
M 2425 1234 
L 2425 1872 
L 3769 1872 
L 3769 1253 
Q 3494 209 2494 -553 
Q 2369 -384 2250 -234 
Q 2200 -622 1906 -703 
Q 1663 -772 1219 -784 
Q 1119 -372 1019 16 
Q 1031 16 1275 3 
Q 1544 -3 1544 234 
L 1544 1097 
L 1075 1097 
Q 1050 -328 650 -922 
Q 438 -553 88 -203 
Q 369 328 369 1753 
L 369 5028 
L 2263 5028 
L 2263 203 
Q 2869 653 3125 1234 
L 2425 1234 
z
M 5113 2884 
L 5113 3253 
L 3350 3253 
L 3350 2884 
L 5113 2884 
z
M 5113 4153 
L 3350 4153 
L 3350 3784 
L 5113 3784 
L 5113 4153 
z
M 1544 4228 
L 1088 4228 
L 1088 3366 
L 1544 3366 
L 1544 4228 
z
M 1088 1841 
L 1544 1841 
L 1544 2622 
L 1088 2622 
L 1088 1841 
z
" transform="scale(0.015625)"/>
      <path id="MicrosoftYaHei-Bold-4f53" d="M 1100 5309 
L 1906 5103 
Q 1697 4303 1450 3613 
L 1450 1072 
Q 2450 2116 2934 3516 
L 1806 3516 
L 1806 4297 
L 3438 4297 
L 3438 5309 
L 4263 5309 
L 4263 4297 
L 6063 4297 
L 6063 3516 
L 4716 3516 
Q 5191 2188 6313 1166 
Q 6044 759 5769 278 
Q 5519 538 5300 853 
L 5300 209 
L 4263 209 
L 4263 -841 
L 3438 -841 
L 3438 209 
L 2431 209 
L 2431 878 
Q 2191 519 1906 191 
Q 1722 491 1450 900 
L 1450 -828 
L 700 -828 
L 700 1922 
Q 500 1563 288 1253 
Q 213 1822 88 2434 
Q 581 3359 1100 5309 
z
M 2509 997 
L 3438 997 
L 3438 3163 
Q 3138 1972 2509 997 
z
M 4263 3128 
L 4263 997 
L 5203 997 
Q 4634 1866 4263 3128 
z
" transform="scale(0.015625)"/>
     </defs>
     <use xlink:href="#MicrosoftYaHei-Bold-ff08"/>
     <use xlink:href="#MicrosoftYaHei-Bold-808c" transform="translate(100 0)"/>
     <use xlink:href="#MicrosoftYaHei-Bold-8089" transform="translate(200 0)"/>
     <use xlink:href="#MicrosoftYaHei-Bold-2f" transform="translate(300 0)"/>
     <use xlink:href="#MicrosoftYaHei-Bold-817a" transform="translate(347.265625 0)"/>
     <use xlink:href="#MicrosoftYaHei-Bold-4f53" transform="translate(447.265625 0)"/>
     <use xlink:href="#MicrosoftYaHei-Bold-ff09" transform="translate(547.265625 0)"/>
    </g>
   </g>
   <g id="text_6">
    <!-- 刺激 -->
    <g style="fill: #8b7355" transform="translate(16.8 51.697875) scale(0.09 -0.09)">
     <defs>
      <path id="MicrosoftYaHei-Bold-523a" d="M 375 3584 
L 1588 3584 
L 1588 4034 
L 200 4034 
L 200 4772 
L 1588 4772 
L 1588 5328 
L 2350 5328 
L 2350 4772 
L 3788 4772 
L 3788 4034 
L 2350 4034 
L 2350 3584 
L 3688 3584 
L 3688 2166 
Q 3688 1903 3581 1742 
Q 3475 1581 3289 1529 
Q 3103 1478 2569 1478 
Q 2513 1891 2431 2259 
Q 2603 2241 2694 2241 
Q 2938 2241 2938 2441 
L 2938 2884 
L 2350 2884 
L 2350 972 
L 2625 1341 
Q 3206 1028 3888 616 
L 3425 -47 
Q 2844 353 2350 675 
L 2350 -822 
L 1588 -822 
L 1588 938 
Q 1141 138 419 -522 
Q 269 -84 75 359 
Q 1088 1106 1588 2194 
L 1588 2884 
L 1131 2884 
L 1131 1484 
L 375 1484 
L 375 3584 
z
M 5213 5322 
L 6025 5322 
L 6025 103 
Q 6025 -275 5856 -492 
Q 5688 -709 5406 -759 
Q 5125 -809 4281 -809 
Q 4200 -322 4119 72 
Q 4538 41 4863 41 
Q 5213 41 5213 397 
L 5213 5322 
z
M 4056 4834 
L 4819 4834 
L 4819 653 
L 4056 653 
L 4056 4834 
z
" transform="scale(0.015625)"/>
      <path id="MicrosoftYaHei-Bold-6fc0" d="M 4606 5359 
L 5388 5203 
Q 5250 4722 5100 4291 
L 6288 4291 
L 6288 3547 
L 6072 3547 
Q 5997 2041 5519 900 
Q 5838 394 6306 53 
L 5944 -816 
Q 5459 -406 5113 113 
Q 4775 -428 4319 -866 
Q 4100 -472 3838 -109 
Q 4350 338 4691 919 
Q 4394 1653 4300 2553 
Q 4206 2397 4106 2253 
L 3881 2603 
L 3881 2497 
L 1688 2497 
L 1688 4841 
L 2225 4841 
Q 2331 5100 2406 5334 
L 3250 5334 
Q 3150 5094 3034 4841 
L 3881 4841 
L 3881 3175 
Q 4306 4044 4606 5359 
z
M 3181 4284 
L 2381 4284 
L 2381 3884 
L 3181 3884 
L 3181 4284 
z
M 5094 1825 
Q 5344 2600 5372 3547 
L 4828 3547 
Q 4859 2575 5094 1825 
z
M 3181 3053 
L 3181 3453 
L 2381 3453 
L 2381 3053 
L 3181 3053 
z
M 738 5253 
Q 1288 4828 1669 4484 
L 1125 3866 
Q 750 4247 244 4709 
L 738 5253 
z
M 569 3622 
Q 1081 3234 1506 2847 
L 988 2216 
Q 588 2584 88 3028 
L 569 3622 
z
M 2494 -747 
Q 2444 -475 2344 -128 
Q 2138 -547 1775 -853 
Q 1531 -616 1188 -359 
Q 1913 234 1913 1147 
L 1913 1509 
L 1525 1509 
L 1525 2059 
L 2453 2059 
Q 2388 2228 2319 2378 
L 3113 2378 
Q 3153 2250 3206 2059 
L 4056 2059 
L 4056 1509 
L 2613 1509 
L 2613 1172 
L 3844 1172 
Q 3813 63 3813 28 
Q 3813 -313 3658 -497 
Q 3503 -681 3208 -709 
Q 2913 -738 2494 -747 
z
M 2356 -103 
Q 2572 -116 2831 -116 
Q 3069 -116 3092 17 
Q 3116 150 3125 622 
L 2575 622 
Q 2513 225 2356 -103 
z
M 675 1872 
Q 1119 1703 1400 1616 
L 931 -828 
Q 531 -697 144 -609 
Q 388 328 675 1872 
z
" transform="scale(0.015625)"/>
     </defs>
     <use xlink:href="#MicrosoftYaHei-Bold-523a"/>
     <use xlink:href="#MicrosoftYaHei-Bold-6fc0" transform="translate(100 0)"/>
    </g>
   </g>
   <g id="text_7">
    <!-- ① -->
    <g style="fill: #8b7355" transform="translate(36.18 158.419875) scale(0.09 -0.09)">
     <defs>
      <path id="MicrosoftYaHei-Bold-2460" d="M 3200 4781 
Q 4453 4781 5353 3881 
Q 6253 2981 6253 1728 
Q 6253 475 5353 -425 
Q 4453 -1325 3200 -1325 
Q 1947 -1325 1047 -425 
Q 147 475 147 1728 
Q 147 2981 1047 3881 
Q 1947 4781 3200 4781 
z
M 3200 -800 
Q 4238 -800 4983 -59 
Q 5728 681 5728 1728 
Q 5728 2769 4984 3512 
Q 4241 4256 3200 4256 
Q 2156 4256 1414 3512 
Q 672 2769 672 1728 
Q 672 684 1417 -58 
Q 2163 -800 3200 -800 
z
M 2234 197 
L 2234 884 
L 2919 884 
L 2919 2731 
L 2216 2566 
L 2216 3278 
L 3719 3584 
L 3719 884 
L 4391 884 
L 4391 197 
L 2234 197 
z
" transform="scale(0.015625)"/>
     </defs>
     <use xlink:href="#MicrosoftYaHei-Bold-2460"/>
    </g>
   </g>
   <g id="text_8">
    <!-- ② -->
    <g style="fill: #8b7355" transform="translate(114.3 153.568875) scale(0.09 -0.09)">
     <defs>
      <path id="MicrosoftYaHei-Bold-2461" d="M 3200 4781 
Q 4453 4781 5353 3881 
Q 6253 2981 6253 1728 
Q 6253 475 5353 -425 
Q 4453 -1325 3200 -1325 
Q 1947 -1325 1047 -425 
Q 147 475 147 1728 
Q 147 2981 1047 3881 
Q 1947 4781 3200 4781 
z
M 3200 -800 
Q 4238 -800 4983 -59 
Q 5728 681 5728 1728 
Q 5728 2769 4984 3512 
Q 4241 4256 3200 4256 
Q 2156 4256 1414 3512 
Q 672 2769 672 1728 
Q 672 684 1417 -58 
Q 2163 -800 3200 -800 
z
M 2053 197 
L 2053 819 
Q 3106 1791 3315 2031 
Q 3525 2272 3525 2516 
Q 3525 2881 3097 2881 
Q 2753 2881 2209 2472 
L 2209 3256 
Q 2681 3566 3231 3566 
Q 3753 3566 4042 3300 
Q 4331 3034 4331 2591 
Q 4331 2209 4079 1865 
Q 3828 1522 3097 903 
L 4300 903 
L 4300 197 
L 2053 197 
z
" transform="scale(0.015625)"/>
     </defs>
     <use xlink:href="#MicrosoftYaHei-Bold-2461"/>
    </g>
   </g>
   <g id="text_9">
    <!-- ③ -->
    <g style="fill: #8b7355" transform="translate(244.5 168.121875) scale(0.09 -0.09)">
     <defs>
      <path id="MicrosoftYaHei-Bold-2462" d="M 3200 4781 
Q 4453 4781 5353 3881 
Q 6253 2981 6253 1728 
Q 6253 475 5353 -425 
Q 4453 -1325 3200 -1325 
Q 1947 -1325 1047 -425 
Q 147 475 147 1728 
Q 147 2981 1047 3881 
Q 1947 4781 3200 4781 
z
M 3200 -800 
Q 4238 -800 4983 -59 
Q 5728 681 5728 1728 
Q 5728 2769 4984 3512 
Q 4241 4256 3200 4256 
Q 2156 4256 1414 3512 
Q 672 2769 672 1728 
Q 672 684 1417 -58 
Q 2163 -800 3200 -800 
z
M 2105 347 
L 2105 1100 
Q 2490 819 2930 819 
Q 3474 819 3474 1184 
Q 3474 1563 2796 1563 
L 2440 1563 
L 2440 2228 
L 2784 2228 
Q 3359 2228 3359 2578 
Q 3359 2900 2924 2900 
Q 2534 2900 2221 2694 
L 2221 3372 
Q 2602 3559 3084 3559 
Q 3609 3559 3894 3318 
Q 4180 3078 4180 2700 
Q 4180 2144 3743 1941 
Q 3999 1847 4139 1636 
Q 4280 1425 4280 1184 
Q 4280 716 3928 431 
Q 3577 147 2977 147 
Q 2499 147 2105 347 
z
" transform="scale(0.015625)"/>
     </defs>
     <use xlink:href="#MicrosoftYaHei-Bold-2462"/>
    </g>
   </g>
   <g id="text_10">
    <!-- ④ -->
    <g style="fill: #8b7355" transform="translate(318.9 153.568875) scale(0.09 -0.09)">
     <defs>
      <path id="MicrosoftYaHei-Bold-2463" d="M 3200 4781 
Q 4453 4781 5353 3881 
Q 6253 2981 6253 1728 
Q 6253 475 5353 -425 
Q 4453 -1325 3200 -1325 
Q 1947 -1325 1047 -425 
Q 147 475 147 1728 
Q 147 2981 1047 3881 
Q 1947 4781 3200 4781 
z
M 3200 -800 
Q 4238 -800 4983 -59 
Q 5728 681 5728 1728 
Q 5728 2769 4984 3512 
Q 4241 4256 3200 4256 
Q 2156 4256 1414 3512 
Q 672 2769 672 1728 
Q 672 684 1417 -58 
Q 2163 -800 3200 -800 
z
M 3872 903 
L 3872 197 
L 3138 197 
L 3138 903 
L 1704 903 
L 1704 1422 
L 3113 3513 
L 3872 3513 
L 3872 1538 
L 4275 1538 
L 4275 903 
L 3872 903 
z
M 3138 2497 
Q 3079 2400 2638 1750 
Q 2572 1653 2497 1538 
L 3138 1538 
L 3138 2497 
z
" transform="scale(0.015625)"/>
     </defs>
     <use xlink:href="#MicrosoftYaHei-Bold-2463"/>
    </g>
   </g>
   <g id="text_11">
    <!-- ⑤ -->
    <g style="fill: #8b7355" transform="translate(411.9 158.419875) scale(0.09 -0.09)">
     <defs>
      <path id="MicrosoftYaHei-Bold-2464" d="M 3200 4781 
Q 4453 4781 5353 3881 
Q 6253 2981 6253 1728 
Q 6253 475 5353 -425 
Q 4453 -1325 3200 -1325 
Q 1947 -1325 1047 -425 
Q 147 475 147 1728 
Q 147 2981 1047 3881 
Q 1947 4781 3200 4781 
z
M 3200 -800 
Q 4238 -800 4983 -59 
Q 5728 681 5728 1728 
Q 5728 2769 4984 3512 
Q 4241 4256 3200 4256 
Q 2156 4256 1414 3512 
Q 672 2769 672 1728 
Q 672 684 1417 -58 
Q 2163 -800 3200 -800 
z
M 2181 300 
L 2181 1038 
Q 2578 819 2963 819 
Q 3525 819 3525 1241 
Q 3525 1419 3373 1537 
Q 3222 1656 2888 1656 
Q 2616 1656 2272 1613 
L 2272 3513 
L 4172 3513 
L 4172 2822 
L 2988 2822 
L 2988 2322 
L 3088 2328 
Q 3628 2363 3976 2088 
Q 4325 1813 4325 1294 
Q 4325 797 3979 469 
Q 3634 141 3022 141 
Q 2538 141 2181 300 
z
" transform="scale(0.015625)"/>
     </defs>
     <use xlink:href="#MicrosoftYaHei-Bold-2464"/>
    </g>
   </g>
   <g id="text_12">
    <!-- 反应 -->
    <g style="fill: #8b7355" transform="translate(426 51.697875) scale(0.09 -0.09)">
     <defs>
      <path id="MicrosoftYaHei-Bold-53cd" d="M 5938 3409 
L 5938 2634 
Q 5431 1544 4578 734 
Q 5350 238 6306 -28 
Q 6219 -147 5750 -872 
Q 4688 -509 3841 134 
Q 2975 -469 1850 -866 
Q 1650 -516 1344 -53 
Q 2378 281 3138 756 
Q 2538 1372 2075 2172 
L 2756 2597 
Q 3228 1853 3856 1288 
Q 4519 1872 4869 2616 
L 1731 2616 
L 1731 2422 
Q 1731 178 813 -853 
Q 575 -591 81 -222 
Q 844 847 844 2484 
L 844 4903 
Q 3588 4972 5738 5259 
L 6031 4447 
Q 4375 4234 1731 4109 
L 1731 3409 
L 5938 3409 
z
" transform="scale(0.015625)"/>
     </defs>
     <use xlink:href="#MicrosoftYaHei-Bold-53cd"/>
     <use xlink:href="#MicrosoftYaHei-Bold-5e94" transform="translate(100 0)"/>
    </g>
   </g>
   <g id="text_13">
    <g id="patch_8">
     <path d="M 88.4875 212.415812 
L 372.3125 212.415812 
Q 375.3125 212.415812 375.3125 209.415812 
L 375.3125 198.936125 
Q 375.3125 195.936125 372.3125 195.936125 
L 88.4875 195.936125 
Q 85.4875 195.936125 85.4875 198.936125 
L 85.4875 209.415812 
Q 85.4875 212.415812 88.4875 212.415812 
z
" style="fill: #fffbe6; stroke: #fadb14; stroke-linejoin: miter"/>
    </g>
    <!-- 反射弧：感受器 → 传入神经 → 神经中枢 → 传出神经 → 效应器 -->
    <g style="fill: #2c3e50" transform="translate(88.4875 206.929875) scale(0.1 -0.1)">
     <defs>
      <path id="MicrosoftYaHei-Bold-5c04" d="M 125 1841 
L 456 1841 
L 456 4659 
L 1134 4659 
Q 1278 4997 1394 5347 
L 2244 5272 
Q 2109 5044 1906 4659 
L 3150 4659 
L 3150 -3 
Q 3150 -809 2306 -809 
L 1700 -797 
Q 1638 -372 1531 -16 
Q 1891 -53 2169 -53 
Q 2363 -53 2369 222 
L 2369 947 
Q 1631 9 519 -628 
Q 319 -247 69 147 
Q 978 572 1616 1134 
L 125 1134 
L 125 1841 
z
M 2369 3953 
L 1238 3953 
L 1238 3628 
L 2369 3628 
L 2369 3953 
z
M 1238 2734 
L 2369 2734 
L 2369 3059 
L 1238 3059 
L 1238 2734 
z
M 1238 1841 
L 2369 1841 
L 2369 2166 
L 1238 2166 
L 1238 1841 
z
M 3350 4091 
L 4919 4091 
L 4919 5284 
L 5763 5284 
L 5763 4091 
L 6319 4091 
L 6319 3291 
L 5763 3291 
L 5763 297 
Q 5763 -200 5570 -450 
Q 5378 -700 5067 -739 
Q 4756 -778 3725 -778 
Q 3650 -328 3531 122 
Q 3947 91 4466 91 
Q 4938 91 4919 578 
L 4919 3291 
L 3350 3291 
L 3350 4091 
z
M 4150 2991 
Q 4463 2197 4756 1278 
L 3944 1041 
Q 3694 2041 3444 2766 
L 4150 2991 
z
" transform="scale(0.015625)"/>
      <path id="MicrosoftYaHei-Bold-5f27" d="M 6238 4466 
L 5569 4403 
Q 5594 1588 6350 16 
Q 6094 -322 5750 -809 
Q 4906 1091 4831 4341 
L 4438 4309 
L 4438 2947 
Q 4438 1588 4119 222 
Q 4206 241 4609 313 
L 4425 1253 
L 4819 1359 
Q 5100 416 5331 -472 
L 4781 -591 
L 4728 -313 
Q 3719 -519 3406 -653 
L 3163 47 
Q 3253 75 3356 184 
Q 3459 294 3509 566 
Q 3559 838 3621 1455 
Q 3684 2072 3700 2797 
L 3700 4256 
L 3281 4228 
L 3281 2353 
Q 3281 381 2613 -891 
Q 2338 -659 1913 -378 
Q 2494 566 2513 2253 
L 2513 4953 
Q 4875 5097 5963 5291 
L 6238 4466 
z
M 1044 2222 
L 2019 2222 
Q 1928 431 1878 61 
Q 1828 -309 1615 -515 
Q 1403 -722 1022 -722 
L 400 -734 
Q 350 -334 225 103 
Q 619 72 806 72 
Q 947 72 1047 178 
Q 1147 284 1172 532 
Q 1197 781 1231 1434 
L 269 1434 
L 450 3622 
L 1406 3622 
L 1406 4278 
L 219 4278 
L 219 5072 
L 2150 5072 
L 2150 2828 
L 1094 2828 
L 1044 2222 
z
" transform="scale(0.015625)"/>
      <path id="MicrosoftYaHei-Bold-ff1a" d="M 1594 3506 
Q 1831 3506 2000 3354 
Q 2169 3203 2169 2981 
Q 2169 2766 2003 2614 
Q 1838 2463 1594 2463 
Q 1353 2463 1189 2616 
Q 1025 2769 1025 2981 
Q 1025 3200 1192 3353 
Q 1359 3506 1594 3506 
z
M 1594 959 
Q 1831 959 2000 806 
Q 2169 653 2169 434 
Q 2169 222 2000 69 
Q 1831 -84 1594 -84 
Q 1356 -84 1190 69 
Q 1025 222 1025 434 
Q 1025 653 1190 806 
Q 1356 959 1594 959 
z
" transform="scale(0.015625)"/>
      <path id="MicrosoftYaHei-Bold-20" transform="scale(0.015625)"/>
      <path id="MicrosoftYaHei-Bold-2192" d="M 4859 3766 
Q 5241 3344 5514 3125 
Q 5788 2906 6150 2713 
L 6150 2572 
Q 5788 2381 5517 2164 
Q 5247 1947 4859 1519 
L 4622 1519 
Q 4766 1822 4866 1983 
Q 4966 2144 5141 2369 
L 247 2369 
L 247 2916 
L 5141 2916 
Q 4972 3131 4869 3298 
Q 4766 3466 4622 3766 
L 4859 3766 
z
" transform="scale(0.015625)"/>
     </defs>
     <use xlink:href="#MicrosoftYaHei-Bold-53cd"/>
     <use xlink:href="#MicrosoftYaHei-Bold-5c04" transform="translate(100 0)"/>
     <use xlink:href="#MicrosoftYaHei-Bold-5f27" transform="translate(200 0)"/>
     <use xlink:href="#MicrosoftYaHei-Bold-ff1a" transform="translate(300 0)"/>
     <use xlink:href="#MicrosoftYaHei-Bold-611f" transform="translate(400 0)"/>
     <use xlink:href="#MicrosoftYaHei-Bold-53d7" transform="translate(500 0)"/>
     <use xlink:href="#MicrosoftYaHei-Bold-5668" transform="translate(600 0)"/>
     <use xlink:href="#MicrosoftYaHei-Bold-20" transform="translate(700 0)"/>
     <use xlink:href="#MicrosoftYaHei-Bold-2192" transform="translate(729.785156 0)"/>
     <use xlink:href="#MicrosoftYaHei-Bold-20" transform="translate(829.785156 0)"/>
     <use xlink:href="#MicrosoftYaHei-Bold-4f20" transform="translate(859.570312 0)"/>
     <use xlink:href="#MicrosoftYaHei-Bold-5165" transform="translate(959.570312 0)"/>
     <use xlink:href="#MicrosoftYaHei-Bold-795e" transform="translate(1059.570312 0)"/>
     <use xlink:href="#MicrosoftYaHei-Bold-7ecf" transform="translate(1159.570312 0)"/>
     <use xlink:href="#MicrosoftYaHei-Bold-20" transform="translate(1259.570312 0)"/>
     <use xlink:href="#MicrosoftYaHei-Bold-2192" transform="translate(1289.355469 0)"/>
     <use xlink:href="#MicrosoftYaHei-Bold-20" transform="translate(1389.355469 0)"/>
     <use xlink:href="#MicrosoftYaHei-Bold-795e" transform="translate(1419.140625 0)"/>
     <use xlink:href="#MicrosoftYaHei-Bold-7ecf" transform="translate(1519.140625 0)"/>
     <use xlink:href="#MicrosoftYaHei-Bold-4e2d" transform="translate(1619.140625 0)"/>
     <use xlink:href="#MicrosoftYaHei-Bold-67a2" transform="translate(1719.140625 0)"/>
     <use xlink:href="#MicrosoftYaHei-Bold-20" transform="translate(1819.140625 0)"/>
     <use xlink:href="#MicrosoftYaHei-Bold-2192" transform="translate(1848.925781 0)"/>
     <use xlink:href="#MicrosoftYaHei-Bold-20" transform="translate(1948.925781 0)"/>
     <use xlink:href="#MicrosoftYaHei-Bold-4f20" transform="translate(1978.710938 0)"/>
     <use xlink:href="#MicrosoftYaHei-Bold-51fa" transform="translate(2078.710938 0)"/>
     <use xlink:href="#MicrosoftYaHei-Bold-795e" transform="translate(2178.710938 0)"/>
     <use xlink:href="#MicrosoftYaHei-Bold-7ecf" transform="translate(2278.710938 0)"/>
     <use xlink:href="#MicrosoftYaHei-Bold-20" transform="translate(2378.710938 0)"/>
     <use xlink:href="#MicrosoftYaHei-Bold-2192" transform="translate(2408.496094 0)"/>
     <use xlink:href="#MicrosoftYaHei-Bold-20" transform="translate(2508.496094 0)"/>
     <use xlink:href="#MicrosoftYaHei-Bold-6548" transform="translate(2538.28125 0)"/>
     <use xlink:href="#MicrosoftYaHei-Bold-5e94" transform="translate(2638.28125 0)"/>
     <use xlink:href="#MicrosoftYaHei-Bold-5668" transform="translate(2738.28125 0)"/>
    </g>
   </g>
   <g id="text_14">
    <!-- Reflex Arc Structure (反射弧结构) -->
    <g style="fill: #2c3e50" transform="translate(125.565156 17.591875) scale(0.13 -0.13)">
     <defs>
      <path id="MicrosoftYaHei-Bold-52" d="M 4553 0 
L 3366 0 
L 2606 1259 
Q 2372 1650 2222 1762 
Q 2072 1875 1903 1875 
L 1591 1875 
L 1591 0 
L 559 0 
L 559 4841 
L 2256 4841 
Q 3984 4841 3984 3528 
Q 3984 3034 3695 2681 
Q 3406 2328 2900 2184 
L 2900 2172 
Q 3234 2059 3641 1434 
L 4553 0 
z
M 1591 4056 
L 1591 2663 
L 2097 2663 
Q 2459 2663 2679 2873 
Q 2900 3084 2900 3400 
Q 2900 4056 2116 4056 
L 1591 4056 
z
" transform="scale(0.015625)"/>
      <path id="MicrosoftYaHei-Bold-65" d="M 3528 1444 
L 1253 1444 
Q 1306 641 2222 641 
Q 2794 641 3231 922 
L 3231 181 
Q 2759 -84 1994 -84 
Q 1169 -84 711 381 
Q 253 847 253 1678 
Q 253 2506 740 3023 
Q 1228 3541 1966 3541 
Q 2700 3541 3114 3095 
Q 3528 2650 3528 1872 
L 3528 1444 
z
M 2588 2075 
Q 2588 2850 1959 2850 
Q 1700 2850 1500 2637 
Q 1300 2425 1250 2075 
L 2588 2075 
z
" transform="scale(0.015625)"/>
      <path id="MicrosoftYaHei-Bold-66" d="M 2653 4338 
Q 2447 4419 2263 4419 
Q 1744 4419 1744 3844 
L 1744 3456 
L 2531 3456 
L 2531 2703 
L 1744 2703 
L 1744 0 
L 734 0 
L 734 2703 
L 156 2703 
L 156 3456 
L 734 3456 
L 734 3900 
Q 734 4491 1118 4844 
Q 1503 5197 2128 5197 
Q 2447 5197 2653 5131 
L 2653 4338 
z
" transform="scale(0.015625)"/>
      <path id="MicrosoftYaHei-Bold-6c" d="M 444 0 
L 444 5116 
L 1450 5116 
L 1450 0 
L 444 0 
z
" transform="scale(0.015625)"/>
      <path id="MicrosoftYaHei-Bold-78" d="M 3706 3456 
L 2563 1772 
L 3697 0 
L 2531 0 
L 2016 953 
Q 1909 1150 1869 1263 
L 1856 1263 
Q 1800 1113 1716 963 
L 1191 0 
L 31 0 
L 1200 1719 
L 100 3456 
L 1269 3456 
L 1781 2463 
Q 1856 2319 1922 2144 
L 1934 2144 
Q 1966 2250 2078 2466 
L 2606 3456 
L 3706 3456 
z
" transform="scale(0.015625)"/>
      <path id="MicrosoftYaHei-Bold-41" d="M 4759 0 
L 3634 0 
L 3272 1109 
L 1513 1109 
L 1156 0 
L 38 0 
L 1809 4841 
L 3022 4841 
L 4759 0 
z
M 3028 1906 
L 2478 3584 
Q 2425 3744 2403 4006 
L 2375 4006 
Q 2356 3794 2291 3597 
L 1738 1906 
L 3028 1906 
z
" transform="scale(0.015625)"/>
      <path id="MicrosoftYaHei-Bold-72" d="M 2663 2541 
Q 2478 2647 2216 2647 
Q 1872 2647 1670 2384 
Q 1469 2122 1469 1663 
L 1469 0 
L 459 0 
L 459 3456 
L 1469 3456 
L 1469 2806 
L 1481 2806 
Q 1731 3516 2391 3516 
Q 2569 3516 2663 3475 
L 2663 2541 
z
" transform="scale(0.015625)"/>
      <path id="MicrosoftYaHei-Bold-63" d="M 3050 128 
Q 2688 -84 2019 -84 
Q 1228 -84 740 397 
Q 253 878 253 1644 
Q 253 2525 778 3033 
Q 1303 3541 2178 3541 
Q 2769 3541 3053 3378 
L 3053 2513 
Q 2706 2766 2297 2766 
Q 1834 2766 1554 2484 
Q 1275 2203 1275 1713 
Q 1275 1238 1540 964 
Q 1806 691 2263 691 
Q 2666 691 3050 947 
L 3050 128 
z
" transform="scale(0.015625)"/>
      <path id="MicrosoftYaHei-Bold-53" d="M 338 1219 
Q 922 734 1666 734 
Q 2088 734 2300 879 
Q 2513 1025 2513 1253 
Q 2513 1450 2344 1625 
Q 2175 1800 1453 2100 
Q 319 2581 319 3500 
Q 319 4175 833 4548 
Q 1347 4922 2194 4922 
Q 2903 4922 3384 4738 
L 3384 3769 
Q 2897 4100 2244 4100 
Q 1863 4100 1634 3961 
Q 1406 3822 1406 3588 
Q 1406 3400 1562 3242 
Q 1719 3084 2334 2816 
Q 3056 2506 3326 2162 
Q 3597 1819 3597 1344 
Q 3597 647 3103 281 
Q 2609 -84 1700 -84 
Q 869 -84 338 184 
L 338 1219 
z
" transform="scale(0.015625)"/>
      <path id="MicrosoftYaHei-Bold-74" d="M 2494 41 
Q 2266 -84 1803 -84 
Q 703 -84 703 1072 
L 703 2703 
L 134 2703 
L 134 3456 
L 703 3456 
L 703 4216 
L 1706 4503 
L 1706 3456 
L 2494 3456 
L 2494 2703 
L 1706 2703 
L 1706 1247 
Q 1706 694 2144 694 
Q 2313 694 2494 794 
L 2494 41 
z
" transform="scale(0.015625)"/>
      <path id="MicrosoftYaHei-Bold-75" d="M 3691 0 
L 2688 0 
L 2688 528 
L 2672 528 
Q 2284 -84 1613 -84 
Q 406 -84 406 1372 
L 406 3456 
L 1416 3456 
L 1416 1466 
Q 1416 691 2022 691 
Q 2325 691 2506 903 
Q 2688 1116 2688 1478 
L 2688 3456 
L 3691 3456 
L 3691 0 
z
" transform="scale(0.015625)"/>
      <path id="MicrosoftYaHei-Bold-28" d="M 1606 -1100 
Q 525 97 525 1853 
Q 525 3550 1606 4841 
L 2431 4841 
Q 1406 3497 1406 1853 
Q 1406 216 2438 -1100 
L 1606 -1100 
z
" transform="scale(0.015625)"/>
      <path id="MicrosoftYaHei-Bold-7ed3" d="M 2538 3128 
L 3850 3128 
L 3850 3809 
L 2472 3809 
L 2681 3709 
Q 1906 2528 1350 1784 
Q 1800 1841 2313 1891 
Q 2275 1466 2263 1116 
Q 894 966 400 834 
L 156 1534 
Q 553 1884 1100 2697 
Q 631 2663 288 2616 
L 56 3328 
Q 550 3934 1138 5366 
L 1963 5059 
Q 1469 4134 988 3397 
L 1563 3425 
L 1938 4066 
L 2350 3869 
L 2350 4553 
L 3850 4553 
L 3850 5341 
L 4725 5341 
L 4725 4553 
L 6288 4553 
L 6288 3809 
L 4725 3809 
L 4725 3128 
L 6100 3128 
L 6100 2384 
L 2538 2384 
L 2538 3128 
z
M 2594 -841 
L 2594 1847 
L 6025 1847 
L 6025 -841 
L 5188 -841 
L 5188 -472 
L 3431 -472 
L 3431 -841 
L 2594 -841 
z
M 5188 1084 
L 3431 1084 
L 3431 291 
L 5188 291 
L 5188 1084 
z
M 231 -516 
L 94 359 
Q 1175 497 2406 684 
Q 2369 159 2375 -184 
Q 1263 -341 231 -516 
z
" transform="scale(0.015625)"/>
      <path id="MicrosoftYaHei-Bold-6784" d="M 75 1709 
Q 550 2447 828 3353 
L 138 3353 
L 138 4091 
L 900 4091 
L 900 5303 
L 1713 5303 
L 1713 4091 
L 2313 4091 
L 2313 3756 
Q 2825 4431 3100 5278 
L 3963 5209 
Q 3850 4903 3719 4616 
L 6056 4616 
Q 6056 3244 6042 2212 
Q 6028 1181 6004 565 
Q 5981 -50 5714 -367 
Q 5447 -684 5051 -725 
Q 4656 -766 3675 -747 
Q 3588 -253 3494 122 
Q 4175 66 4600 66 
Q 4863 66 5023 206 
Q 5184 347 5191 822 
L 4775 609 
L 4644 878 
Q 3147 769 2444 622 
L 2188 1334 
Q 2669 1691 3388 3453 
L 4188 3128 
L 3206 1453 
L 4316 1525 
Q 4106 1928 3875 2347 
L 4519 2684 
Q 4866 2113 5209 1481 
Q 5231 2419 5231 3841 
L 3313 3841 
Q 2991 3297 2594 2822 
Q 2319 3125 2072 3353 
L 1713 3353 
L 1713 2991 
Q 2153 2594 2575 2191 
L 2031 1678 
Q 1872 1906 1713 2116 
L 1713 -822 
L 900 -822 
L 900 1816 
Q 647 1156 288 566 
Q 219 997 75 1709 
z
" transform="scale(0.015625)"/>
      <path id="MicrosoftYaHei-Bold-29" d="M 59 -1100 
Q 1097 216 1097 1853 
Q 1097 3484 59 4841 
L 888 4841 
Q 1978 3544 1978 1853 
Q 1978 113 881 -1100 
L 59 -1100 
z
" transform="scale(0.015625)"/>
     </defs>
     <use xlink:href="#MicrosoftYaHei-Bold-52"/>
     <use xlink:href="#MicrosoftYaHei-Bold-65" transform="translate(67.074219 0)"/>
     <use xlink:href="#MicrosoftYaHei-Bold-66" transform="translate(125.277344 0)"/>
     <use xlink:href="#MicrosoftYaHei-Bold-6c" transform="translate(166.304688 0)"/>
     <use xlink:href="#MicrosoftYaHei-Bold-65" transform="translate(195.894531 0)"/>
     <use xlink:href="#MicrosoftYaHei-Bold-78" transform="translate(254.097656 0)"/>
     <use xlink:href="#MicrosoftYaHei-Bold-20" transform="translate(312.59375 0)"/>
     <use xlink:href="#MicrosoftYaHei-Bold-41" transform="translate(342.378906 0)"/>
     <use xlink:href="#MicrosoftYaHei-Bold-72" transform="translate(417.574219 0)"/>
     <use xlink:href="#MicrosoftYaHei-Bold-63" transform="translate(459.457031 0)"/>
     <use xlink:href="#MicrosoftYaHei-Bold-20" transform="translate(511.117188 0)"/>
     <use xlink:href="#MicrosoftYaHei-Bold-53" transform="translate(540.902344 0)"/>
     <use xlink:href="#MicrosoftYaHei-Bold-74" transform="translate(598.308594 0)"/>
     <use xlink:href="#MicrosoftYaHei-Bold-72" transform="translate(639.714844 0)"/>
     <use xlink:href="#MicrosoftYaHei-Bold-75" transform="translate(682.347656 0)"/>
     <use xlink:href="#MicrosoftYaHei-Bold-63" transform="translate(747.142578 0)"/>
     <use xlink:href="#MicrosoftYaHei-Bold-74" transform="translate(798.802734 0)"/>
     <use xlink:href="#MicrosoftYaHei-Bold-75" transform="translate(840.208984 0)"/>
     <use xlink:href="#MicrosoftYaHei-Bold-72" transform="translate(905.003906 0)"/>
     <use xlink:href="#MicrosoftYaHei-Bold-65" transform="translate(946.886719 0)"/>
     <use xlink:href="#MicrosoftYaHei-Bold-20" transform="translate(1005.089844 0)"/>
     <use xlink:href="#MicrosoftYaHei-Bold-28" transform="translate(1034.875 0)"/>
     <use xlink:href="#MicrosoftYaHei-Bold-53cd" transform="translate(1073.839844 0)"/>
     <use xlink:href="#MicrosoftYaHei-Bold-5c04" transform="translate(1173.839844 0)"/>
     <use xlink:href="#MicrosoftYaHei-Bold-5f27" transform="translate(1273.839844 0)"/>
     <use xlink:href="#MicrosoftYaHei-Bold-7ed3" transform="translate(1373.839844 0)"/>
     <use xlink:href="#MicrosoftYaHei-Bold-6784" transform="translate(1473.839844 0)"/>
     <use xlink:href="#MicrosoftYaHei-Bold-29" transform="translate(1573.839844 0)"/>
    </g>
   </g>
  </g>
 </g>
 <defs>
  <clipPath id="pb3dc4b5e28">
   <rect x="7.2" y="22.591875" width="446.4" height="194.04"/>
  </clipPath>
 </defs>
</svg>
