<?xml version="1.0" encoding="utf-8" standalone="no"?>
<!DOCTYPE svg PUBLIC "-//W3C//DTD SVG 1.1//EN"
  "http://www.w3.org/Graphics/SVG/1.1/DTD/svg11.dtd">
<svg xmlns:xlink="http://www.w3.org/1999/xlink" width="342.665625pt" height="424.710625pt" viewBox="0 0 342.665625 424.710625" xmlns="http://www.w3.org/2000/svg" version="1.1">
 <metadata>
  <rdf:RDF xmlns:dc="http://purl.org/dc/elements/1.1/" xmlns:cc="http://creativecommons.org/ns#" xmlns:rdf="http://www.w3.org/1999/02/22-rdf-syntax-ns#">
   <cc:Work>
    <dc:type rdf:resource="http://purl.org/dc/dcmitype/StillImage"/>
    <dc:date>2026-05-22T15:09:00.662094</dc:date>
    <dc:format>image/svg+xml</dc:format>
    <dc:creator>
     <cc:Agent>
      <dc:title>Matplotlib v3.10.9, https://matplotlib.org/</dc:title>
     </cc:Agent>
    </dc:creator>
   </cc:Work>
  </rdf:RDF>
 </metadata>
 <defs>
  <style type="text/css">*{stroke-linejoin: round; stroke-linecap: butt}</style>
 </defs>
 <g id="figure_1">
  <g id="patch_1">
   <path d="M 0 424.710625 
L 342.665625 424.710625 
L 342.665625 0 
L 0 0 
L 0 424.710625 
z
" style="fill: none"/>
  </g>
  <g id="axes_1">
   <g id="patch_2">
    <path d="M 105.679687 56.418438 
L 236.985937 56.418438 
L 236.985937 89.245 
L 105.679687 89.245 
z
" clip-path="url(#pb20dd664ac)" style="fill: #fce4ec; stroke: #c62828; stroke-width: 1.5; stroke-linejoin: miter"/>
   </g>
   <g id="patch_3">
    <path d="M 105.679687 243.529844 
L 236.985937 243.529844 
Q 246.833906 243.529844 246.833906 233.681875 
L 246.833906 154.898125 
Q 246.833906 145.050156 236.985937 145.050156 
L 105.679687 145.050156 
Q 95.831719 145.050156 95.831719 154.898125 
L 95.831719 233.681875 
Q 95.831719 243.529844 105.679687 243.529844 
z
" clip-path="url(#pb20dd664ac)" style="fill: #f3e5f5; stroke: #7b1fa2; stroke-width: 1.5; stroke-linejoin: miter"/>
   </g>
   <g id="patch_4">
    <path d="M 125.375625 345.292187 
L 217.29 345.292187 
Q 223.855312 345.292187 223.855312 338.726875 
L 223.855312 233.681875 
Q 223.855312 227.116562 217.29 227.116562 
L 125.375625 227.116562 
Q 118.810312 227.116562 118.810312 233.681875 
L 118.810312 338.726875 
Q 118.810312 345.292187 125.375625 345.292187 
z
" clip-path="url(#pb20dd664ac)" style="fill: #e8f5e9; stroke: #2e7d32; stroke-width: 1.5; stroke-linejoin: miter"/>
   </g>
   <g id="line2d_1">
    <path d="M 171.332812 89.245 
L 171.332812 154.898125 
" clip-path="url(#pb20dd664ac)" style="fill: none; stroke: #000000; stroke-width: 3; stroke-linecap: square"/>
   </g>
   <g id="line2d_2">
    <path d="M 40.026562 273.07375 
L 40.026562 338.726875 
" clip-path="url(#pb20dd664ac)" style="fill: none; stroke: #000000; stroke-width: 2; stroke-linecap: square"/>
   </g>
   <g id="line2d_3">
    <path d="M 40.026562 338.726875 
L 269.8125 338.726875 
" clip-path="url(#pb20dd664ac)" style="fill: none; stroke: #000000; stroke-width: 2; stroke-linecap: square"/>
   </g>
   <g id="line2d_4">
    <path d="M 269.8125 338.726875 
L 269.8125 273.07375 
" clip-path="url(#pb20dd664ac)" style="fill: none; stroke: #000000; stroke-width: 2; stroke-linecap: square"/>
   </g>
   <g id="text_1">
    <!-- 口腔 -->
    <g style="fill: #c62828" transform="translate(161.332812 72.831719) scale(0.1 -0.1)">
     <defs>
      <path id="MicrosoftYaHei-Bold-53e3" d="M 538 -672 
L 538 4784 
L 5869 4784 
L 5869 -672 
L 4931 -672 
L 4931 -228 
L 1475 -228 
L 1475 -672 
L 538 -672 
z
M 4931 3928 
L 1475 3928 
L 1475 628 
L 4931 628 
L 4931 3928 
z
" transform="scale(0.015625)"/>
      <path id="MicrosoftYaHei-Bold-8154" d="M 669 -884 
Q 425 -516 88 -172 
Q 325 334 394 934 
Q 469 1516 469 2928 
L 469 5078 
L 2413 5078 
L 2413 -28 
Q 2406 -584 1956 -684 
Q 1625 -766 1250 -766 
Q 1188 -447 1050 9 
Q 931 -459 669 -884 
z
M 2863 1884 
L 5919 1884 
L 5919 1122 
L 4744 1122 
L 4744 172 
L 6225 172 
L 6225 -597 
L 2563 -597 
L 2563 172 
L 3944 172 
L 3944 1122 
L 2863 1122 
L 2863 1884 
z
M 2638 4591 
L 4000 4591 
Q 3925 4866 3844 5147 
L 4681 5316 
Q 4800 4922 4875 4591 
L 6144 4591 
L 6144 3328 
L 5394 3328 
L 5394 3866 
L 3388 3866 
L 3388 3328 
L 2638 3328 
L 2638 4591 
z
M 4269 3078 
Q 3706 2503 3063 1922 
L 2519 2459 
Q 3131 2966 3688 3559 
L 4269 3078 
z
M 5019 3534 
Q 5788 2816 6156 2441 
L 5588 1903 
Q 5025 2478 4463 3059 
L 5019 3534 
z
M 1175 1078 
Q 1150 397 1063 72 
Q 1200 53 1419 47 
Q 1669 41 1669 403 
L 1669 1078 
L 1175 1078 
z
M 1200 1822 
L 1669 1822 
L 1669 2678 
L 1213 2678 
Q 1206 2209 1200 1822 
z
M 1669 4278 
L 1213 4278 
L 1213 3422 
L 1669 3422 
L 1669 4278 
z
" transform="scale(0.015625)"/>
     </defs>
     <use xlink:href="#MicrosoftYaHei-Bold-53e3"/>
     <use xlink:href="#MicrosoftYaHei-Bold-8154" transform="translate(100 0)"/>
    </g>
   </g>
   <g id="text_2">
    <!-- 胃 -->
    <g style="fill: #7b1fa2" transform="translate(166.332812 194.29) scale(0.1 -0.1)">
     <defs>
      <path id="MicrosoftYaHei-Bold-80c3" d="M 1675 -822 
L 813 -822 
L 813 2516 
L 5575 2516 
L 5575 41 
Q 5575 -722 4756 -772 
Q 4163 -803 3381 -797 
Q 3319 -491 3181 -91 
Q 3869 -116 4344 -109 
Q 4713 -116 4713 216 
L 4713 247 
L 1675 247 
L 1675 -822 
z
M 619 5109 
L 5775 5109 
L 5775 2816 
L 619 2816 
L 619 5109 
z
M 1675 766 
L 4713 766 
L 4713 1091 
L 1675 1091 
L 1675 766 
z
M 4713 1928 
L 1675 1928 
L 1675 1603 
L 4713 1603 
L 4713 1928 
z
M 4925 4553 
L 3613 4553 
L 3613 4209 
L 4925 4209 
L 4925 4553 
z
M 1475 4209 
L 2781 4209 
L 2781 4553 
L 1475 4553 
L 1475 4209 
z
M 4925 3372 
L 4925 3709 
L 3613 3709 
L 3613 3372 
L 4925 3372 
z
M 1475 3372 
L 2781 3372 
L 2781 3709 
L 1475 3709 
L 1475 3372 
z
" transform="scale(0.015625)"/>
     </defs>
     <use xlink:href="#MicrosoftYaHei-Bold-80c3"/>
    </g>
   </g>
   <g id="text_3">
    <!-- 小肠 -->
    <g style="fill: #2e7d32" transform="translate(161.332812 286.204375) scale(0.1 -0.1)">
     <defs>
      <path id="MicrosoftYaHei-Bold-5c0f" d="M 2788 5272 
L 3763 5272 
L 3763 541 
Q 3763 -75 3570 -367 
Q 3378 -659 3076 -712 
Q 2775 -766 1700 -766 
Q 1606 -234 1469 222 
Q 1969 166 2344 166 
Q 2788 166 2788 684 
L 2788 5272 
z
M 5206 3922 
Q 5800 2553 6356 1041 
L 5369 659 
Q 4856 2278 4325 3628 
L 5206 3922 
z
M 1069 3916 
L 2006 3691 
Q 1550 2016 1038 622 
L 113 972 
Q 663 2397 1069 3916 
z
" transform="scale(0.015625)"/>
      <path id="MicrosoftYaHei-Bold-80a0" d="M 4000 3066 
L 6113 3066 
Q 6113 1759 6044 416 
Q 6031 -709 5081 -734 
Q 4725 -759 4350 -753 
Q 4306 -322 4188 141 
Q 4206 141 4738 109 
Q 5250 116 5275 559 
Q 5319 1078 5350 2341 
L 5050 2341 
Q 4694 384 3300 -853 
Q 2975 -591 2563 -316 
Q 3975 822 4300 2341 
L 3888 2341 
Q 3569 1303 2688 441 
Q 2544 597 2369 766 
L 2369 66 
Q 2369 -622 1888 -728 
Q 1625 -778 1213 -791 
Q 1138 -334 1006 59 
Q 1181 28 1369 28 
Q 1644 28 1644 384 
L 1644 1184 
L 1106 1184 
Q 1063 -134 631 -878 
Q 406 -547 81 -159 
Q 419 609 419 2428 
L 419 5072 
L 2369 5072 
L 2369 1266 
Q 2900 1766 3125 2341 
L 2569 2341 
L 2569 3059 
L 4413 4291 
L 2625 4291 
L 2625 5016 
L 5775 5016 
L 5775 4297 
L 4000 3066 
z
M 1644 4278 
L 1144 4278 
L 1144 3472 
L 1644 3472 
L 1644 4278 
z
M 1131 1928 
L 1644 1928 
L 1644 2728 
L 1144 2728 
Q 1144 2291 1131 1928 
z
" transform="scale(0.015625)"/>
     </defs>
     <use xlink:href="#MicrosoftYaHei-Bold-5c0f"/>
     <use xlink:href="#MicrosoftYaHei-Bold-80a0" transform="translate(100 0)"/>
    </g>
   </g>
   <g id="text_4">
    <!-- 大肠 -->
    <g style="fill: #e65100" transform="translate(32.026562 351.8575) scale(0.08 -0.08)">
     <defs>
      <path id="MicrosoftYaHei-5927" d="M 88 -341 
Q 2666 806 2869 3103 
L 200 3103 
L 200 3591 
L 2891 3591 
Q 2906 4431 2906 5284 
L 3450 5284 
Q 3450 4444 3434 3591 
L 6206 3591 
L 6206 3103 
L 3425 3103 
Q 3869 606 6338 -191 
Q 6019 -497 5863 -697 
Q 3828 122 3203 2219 
Q 2716 322 475 -822 
Q 350 -653 88 -341 
z
" transform="scale(0.015625)"/>
      <path id="MicrosoftYaHei-80a0" d="M 494 4984 
L 2206 4984 
L 2206 772 
Q 3175 1441 3469 2466 
L 2563 2466 
L 2563 2941 
L 5056 4491 
L 2638 4491 
L 2638 4941 
L 5881 4941 
L 5881 4484 
L 3369 2916 
L 6138 2916 
Q 6056 1166 6013 322 
Q 5938 -747 4963 -709 
Q 4550 -709 4200 -691 
Q 4156 -422 4088 -159 
Q 4488 -228 4913 -228 
Q 5481 -266 5538 366 
Q 5588 1097 5650 2466 
L 5050 2466 
Q 4744 322 3075 -841 
Q 2900 -597 2750 -428 
Q 4294 559 4581 2466 
L 3931 2466 
Q 3581 1153 2481 353 
Q 2350 541 2206 722 
L 2206 -41 
Q 2238 -778 1556 -741 
Q 1313 -741 1069 -728 
Q 1050 -528 994 -266 
Q 1300 -297 1450 -297 
Q 1769 -316 1756 22 
L 1756 1416 
L 938 1416 
Q 888 22 406 -866 
Q 244 -684 31 -541 
Q 494 247 494 1797 
L 494 4984 
z
M 944 1828 
L 1756 1828 
L 1756 2997 
L 944 2997 
L 944 1828 
z
M 1756 4572 
L 944 4572 
L 944 3409 
L 1756 3409 
L 1756 4572 
z
" transform="scale(0.015625)"/>
     </defs>
     <use xlink:href="#MicrosoftYaHei-5927"/>
     <use xlink:href="#MicrosoftYaHei-80a0" transform="translate(100 0)"/>
    </g>
   </g>
   <g id="patch_5">
    <path d="M 171.332812 154.898125 
Q 171.332812 154.898125 171.332812 154.898125 
" style="fill: none"/>
   </g>
   <g id="text_5">
    <!-- 人体消化系统（示意） -->
    <g transform="translate(106.332812 17.591875) scale(0.13 -0.13)">
     <defs>
      <path id="MicrosoftYaHei-Bold-4eba" d="M 2731 5297 
L 3644 5297 
Q 3647 4619 3584 3984 
Q 4053 1066 6300 147 
Q 5806 -434 5581 -759 
Q 3900 94 3206 2147 
Q 2547 313 719 -822 
Q 525 -478 88 72 
Q 1491 872 2117 2009 
Q 2744 3147 2731 5297 
z
" transform="scale(0.015625)"/>
      <path id="MicrosoftYaHei-Bold-4f53" d="M 1100 5309 
L 1906 5103 
Q 1697 4303 1450 3613 
L 1450 1072 
Q 2450 2116 2934 3516 
L 1806 3516 
L 1806 4297 
L 3438 4297 
L 3438 5309 
L 4263 5309 
L 4263 4297 
L 6063 4297 
L 6063 3516 
L 4716 3516 
Q 5191 2188 6313 1166 
Q 6044 759 5769 278 
Q 5519 538 5300 853 
L 5300 209 
L 4263 209 
L 4263 -841 
L 3438 -841 
L 3438 209 
L 2431 209 
L 2431 878 
Q 2191 519 1906 191 
Q 1722 491 1450 900 
L 1450 -828 
L 700 -828 
L 700 1922 
Q 500 1563 288 1253 
Q 213 1822 88 2434 
Q 581 3359 1100 5309 
z
M 2509 997 
L 3438 997 
L 3438 3163 
Q 3138 1972 2509 997 
z
M 4263 3128 
L 4263 997 
L 5203 997 
Q 4634 1866 4263 3128 
z
" transform="scale(0.015625)"/>
      <path id="MicrosoftYaHei-Bold-6d88" d="M 3538 5353 
L 4406 5353 
L 4406 3641 
L 5988 3641 
L 5988 97 
Q 5988 -281 5809 -492 
Q 5631 -703 5275 -747 
Q 4919 -791 4050 -778 
Q 3963 -366 3819 66 
Q 4325 47 4688 47 
Q 5106 47 5106 447 
L 5106 553 
L 2838 553 
L 2838 -734 
L 1956 -734 
L 1956 3641 
L 3538 3641 
L 3538 5353 
z
M 5106 2891 
L 2838 2891 
L 2838 2416 
L 5106 2416 
L 5106 2891 
z
M 2838 1247 
L 5106 1247 
L 5106 1722 
L 2838 1722 
L 2838 1247 
z
M 700 5253 
Q 1188 4909 1725 4447 
L 1163 3809 
Q 619 4347 181 4697 
L 700 5253 
z
M 2375 5216 
Q 2881 4716 3313 4228 
L 2669 3741 
Q 2281 4222 1781 4759 
L 2375 5216 
z
M 5519 5209 
L 6194 4716 
Q 5706 4166 5200 3684 
L 4613 4184 
Q 5100 4666 5519 5209 
z
M 631 3591 
Q 1206 3178 1656 2784 
L 1069 2134 
Q 681 2522 88 3003 
L 631 3591 
z
M 719 1909 
Q 1213 1716 1556 1628 
L 1013 -797 
Q 556 -647 150 -547 
Q 463 528 719 1909 
z
" transform="scale(0.015625)"/>
      <path id="MicrosoftYaHei-Bold-5316" d="M 1625 5297 
L 2494 5009 
Q 2200 4284 1856 3641 
L 1856 -797 
L 956 -797 
L 956 2191 
Q 653 1775 325 1403 
Q 219 1991 88 2497 
Q 1063 3728 1625 5297 
z
M 5456 4447 
L 6238 3847 
Q 5306 2809 4106 1900 
L 4106 622 
Q 4106 153 4513 153 
L 4781 153 
Q 5091 153 5189 359 
Q 5288 566 5350 1597 
Q 5863 1434 6300 1322 
Q 6188 419 6105 37 
Q 6022 -344 5705 -542 
Q 5388 -741 4831 -741 
L 4294 -741 
Q 3169 -741 3169 378 
L 3169 1234 
Q 2806 994 2425 766 
Q 2225 1097 1875 1584 
Q 2553 1947 3169 2378 
L 3169 5272 
L 4106 5272 
L 4106 3100 
Q 4834 3719 5456 4447 
z
" transform="scale(0.015625)"/>
      <path id="MicrosoftYaHei-Bold-7cfb" d="M 344 4916 
Q 3406 4903 5900 5159 
L 6025 4472 
Q 4769 4353 3397 4278 
Q 2747 3884 2019 3528 
L 4084 3622 
Q 4550 3884 5038 4178 
L 5625 3591 
Q 3875 2622 1900 1878 
Q 3247 1938 4613 2034 
Q 4372 2272 4156 2466 
L 4738 2934 
Q 5219 2516 6263 1466 
L 5669 922 
Q 5447 1169 5241 1388 
L 3731 1328 
L 3731 -141 
Q 3731 -456 3547 -622 
Q 3363 -788 2984 -802 
Q 2606 -816 1975 -816 
Q 1919 -359 1813 34 
Q 2119 9 2466 9 
Q 2719 9 2800 65 
Q 2881 122 2881 278 
L 2881 1288 
Q 1481 1216 738 1128 
L 519 1903 
Q 1575 2303 2803 2931 
Q 1563 2856 888 2759 
L 656 3522 
Q 1338 3775 2075 4213 
L 481 4166 
Q 438 4522 344 4916 
z
M 4738 1153 
Q 5431 678 6294 -3 
L 5719 -603 
Q 5050 -28 4213 603 
L 4738 1153 
z
M 1569 1091 
L 2200 534 
Q 1494 -128 656 -678 
Q 369 -309 88 -9 
Q 894 447 1569 1091 
z
" transform="scale(0.015625)"/>
      <path id="MicrosoftYaHei-Bold-7edf" d="M 5569 1084 
Q 5944 897 6319 772 
Q 6234 -184 6023 -453 
Q 5813 -722 5356 -722 
L 4988 -722 
Q 4269 -722 4263 72 
L 4263 2066 
L 3756 2028 
Q 3722 656 3337 29 
Q 2953 -597 2406 -872 
Q 2144 -575 1788 -219 
Q 950 -303 213 -416 
L 144 416 
Q 763 459 2275 641 
Q 2259 406 2256 138 
Q 2938 591 2966 1950 
Q 2616 1909 2406 1866 
L 2181 2628 
Q 2675 2941 3250 3953 
L 2194 3953 
L 2194 4666 
L 3578 4666 
Q 3475 4916 3344 5191 
L 4275 5359 
Q 4444 5019 4597 4666 
L 6169 4666 
L 6169 3953 
L 4169 3953 
Q 3759 3316 3225 2697 
Q 4009 2725 4956 2781 
Q 4744 3103 4506 3434 
L 5131 3791 
Q 5794 2916 6269 2159 
L 5588 1747 
Q 5481 1938 5366 2131 
L 5063 2116 
L 5063 316 
Q 5063 72 5225 72 
L 5281 72 
Q 5428 72 5475 225 
Q 5522 378 5569 1084 
z
M 1256 1678 
L 2181 1784 
Q 2131 1397 2138 1072 
Q 1125 1022 431 897 
L 238 1591 
Q 597 1950 1113 2722 
Q 625 2688 306 2641 
L 81 3347 
Q 675 4159 1156 5359 
L 1975 5034 
Q 1519 4178 988 3422 
Q 1247 3425 1578 3444 
L 1863 3916 
L 2513 3566 
Q 1863 2541 1256 1678 
z
" transform="scale(0.015625)"/>
      <path id="MicrosoftYaHei-Bold-ff08" d="M 5197 -1088 
Q 4056 184 4056 1881 
Q 4056 3616 5203 4838 
L 6034 4838 
Q 4922 3503 4922 1888 
Q 4922 266 6028 -1088 
L 5197 -1088 
z
" transform="scale(0.015625)"/>
      <path id="MicrosoftYaHei-Bold-793a" d="M 769 4966 
L 5669 4966 
L 5669 4078 
L 769 4078 
L 769 4966 
z
M 206 3259 
L 6206 3259 
L 6206 2372 
L 3794 2372 
L 3794 303 
Q 3794 -216 3612 -430 
Q 3431 -644 3173 -711 
Q 2916 -778 1850 -778 
Q 1744 -241 1638 159 
Q 2116 109 2431 109 
Q 2850 109 2850 447 
L 2850 2372 
L 206 2372 
L 206 3259 
z
M 1438 2103 
L 2244 1678 
Q 1488 459 825 -353 
Q 513 -97 88 197 
Q 850 1097 1438 2103 
z
M 4869 2072 
Q 5606 1178 6319 203 
Q 5981 -16 5506 -341 
Q 4944 578 4175 1609 
L 4869 2072 
z
" transform="scale(0.015625)"/>
      <path id="MicrosoftYaHei-Bold-610f" d="M 175 3897 
L 1622 3897 
Q 1497 4072 1400 4184 
L 1891 4366 
L 488 4366 
L 488 4903 
L 2731 4903 
L 2569 5272 
L 3631 5366 
Q 3716 5178 3813 4903 
L 5881 4903 
L 5881 4366 
L 4397 4366 
L 4963 4166 
L 4728 3897 
L 6238 3897 
L 6238 3334 
L 175 3334 
L 175 3897 
z
M 2578 3897 
L 3794 3897 
Q 3988 4184 4097 4366 
L 2219 4366 
Q 2416 4116 2578 3897 
z
M 794 966 
L 794 3053 
L 5600 3053 
L 5600 966 
L 3441 966 
Q 3734 734 3906 572 
L 3319 41 
Q 3069 341 2650 722 
L 2934 966 
L 794 966 
z
M 4794 2541 
L 1600 2541 
L 1600 2234 
L 4794 2234 
L 4794 2541 
z
M 4794 1478 
L 4794 1784 
L 1600 1784 
L 1600 1478 
L 4794 1478 
z
M 606 859 
L 1350 572 
Q 1094 -78 781 -634 
L 88 -291 
Q 425 322 606 859 
z
M 4194 728 
Q 4488 559 4975 366 
Q 4806 -363 4540 -548 
Q 4275 -734 3819 -734 
L 2544 -734 
Q 1594 -734 1594 28 
L 1594 834 
L 2419 834 
L 2419 253 
Q 2419 -47 2756 -47 
L 3550 -47 
Q 3888 -47 4016 79 
Q 4144 206 4194 728 
z
M 5688 834 
Q 6100 309 6338 -166 
L 5644 -578 
Q 5331 9 5000 466 
L 5688 834 
z
" transform="scale(0.015625)"/>
      <path id="MicrosoftYaHei-Bold-ff09" d="M 1191 -1088 
L 359 -1088 
Q 1472 238 1472 1863 
Q 1472 3478 366 4838 
L 1197 4838 
Q 2338 3572 2338 1863 
Q 2338 125 1191 -1088 
z
" transform="scale(0.015625)"/>
     </defs>
     <use xlink:href="#MicrosoftYaHei-Bold-4eba"/>
     <use xlink:href="#MicrosoftYaHei-Bold-4f53" transform="translate(100 0)"/>
     <use xlink:href="#MicrosoftYaHei-Bold-6d88" transform="translate(200 0)"/>
     <use xlink:href="#MicrosoftYaHei-Bold-5316" transform="translate(300 0)"/>
     <use xlink:href="#MicrosoftYaHei-Bold-7cfb" transform="translate(400 0)"/>
     <use xlink:href="#MicrosoftYaHei-Bold-7edf" transform="translate(500 0)"/>
     <use xlink:href="#MicrosoftYaHei-Bold-ff08" transform="translate(600 0)"/>
     <use xlink:href="#MicrosoftYaHei-Bold-793a" transform="translate(700 0)"/>
     <use xlink:href="#MicrosoftYaHei-Bold-610f" transform="translate(800 0)"/>
     <use xlink:href="#MicrosoftYaHei-Bold-ff09" transform="translate(900 0)"/>
    </g>
   </g>
  </g>
 </g>
 <defs>
  <clipPath id="pb20dd664ac">
   <rect x="7.2" y="23.591875" width="328.265625" height="393.91875"/>
  </clipPath>
 </defs>
</svg>
