<?xml version="1.0" encoding="utf-8" standalone="no"?>
<!DOCTYPE svg PUBLIC "-//W3C//DTD SVG 1.1//EN"
  "http://www.w3.org/Graphics/SVG/1.1/DTD/svg11.dtd">
<svg xmlns:xlink="http://www.w3.org/1999/xlink" width="630.9pt" height="317.193125pt" viewBox="0 0 630.9 317.193125" xmlns="http://www.w3.org/2000/svg" version="1.1">
 <metadata>
  <rdf:RDF xmlns:dc="http://purl.org/dc/elements/1.1/" xmlns:cc="http://creativecommons.org/ns#" xmlns:rdf="http://www.w3.org/1999/02/22-rdf-syntax-ns#">
   <cc:Work>
    <dc:type rdf:resource="http://purl.org/dc/dcmitype/StillImage"/>
    <dc:date>2026-05-22T15:08:59.676562</dc:date>
    <dc:format>image/svg+xml</dc:format>
    <dc:creator>
     <cc:Agent>
      <dc:title>Matplotlib v3.10.9, https://matplotlib.org/</dc:title>
     </cc:Agent>
    </dc:creator>
   </cc:Work>
  </rdf:RDF>
 </metadata>
 <defs>
  <style type="text/css">*{stroke-linejoin: round; stroke-linecap: butt}</style>
 </defs>
 <g id="figure_1">
  <g id="patch_1">
   <path d="M -0 317.193125 
L 630.9 317.193125 
L 630.9 0 
L -0 0 
L -0 317.193125 
z
" style="fill: none"/>
  </g>
  <g id="axes_1">
   <g id="patch_2">
    <path d="M 36 252.393125 
L 266.4 252.393125 
L 266.4 62.313125 
L 36 62.313125 
z
" clip-path="url(#pd62a2dfaec)" style="fill: #3498db; opacity: 0.15"/>
   </g>
   <g id="patch_3">
    <path d="M 116.64 206.313125 
L 185.76 206.313125 
Q 191.52 206.313125 191.52 200.553125 
L 191.52 131.433125 
Q 191.52 125.673125 185.76 125.673125 
L 116.64 125.673125 
Q 110.88 125.673125 110.88 131.433125 
L 110.88 200.553125 
Q 110.88 206.313125 116.64 206.313125 
z
" clip-path="url(#pd62a2dfaec)" style="fill: #f0f0f0; stroke: #333333; stroke-width: 2; stroke-linejoin: miter"/>
   </g>
   <g id="patch_4">
    <path d="M 151.2 266.793125 
L 146.88 258.153125 
L 151.1712 258.153125 
L 151.1712 206.313125 
L 151.2288 206.313125 
L 151.2288 258.153125 
L 155.52 258.153125 
z
" clip-path="url(#pd62a2dfaec)" style="fill: #c0392b; stroke: #c0392b; stroke-width: 2; stroke-linejoin: miter"/>
   </g>
   <g id="patch_5">
    <path d="M 151.2 65.193125 
L 155.52 73.833125 
L 151.2288 73.833125 
L 151.2288 125.673125 
L 151.1712 125.673125 
L 151.1712 73.833125 
L 146.88 73.833125 
z
" clip-path="url(#pd62a2dfaec)" style="fill: #3498db; stroke: #3498db; stroke-width: 2; stroke-linejoin: miter"/>
   </g>
   <g id="line2d_1">
    <path d="M 36 252.393125 
L 266.4 252.393125 
" clip-path="url(#pd62a2dfaec)" style="fill: none; stroke: #3498db; stroke-width: 2; stroke-linecap: square"/>
   </g>
   <g id="line2d_2">
    <path d="M 36 252.393125 
L 36 50.793125 
" clip-path="url(#pd62a2dfaec)" style="fill: none; stroke: #3498db; stroke-width: 2; stroke-linecap: square"/>
   </g>
   <g id="line2d_3">
    <path d="M 266.4 252.393125 
L 266.4 50.793125 
" clip-path="url(#pd62a2dfaec)" style="fill: none; stroke: #3498db; stroke-width: 2; stroke-linecap: square"/>
   </g>
   <g id="line2d_4">
    <path d="M 36 50.793125 
L 266.4 50.793125 
" clip-path="url(#pd62a2dfaec)" style="fill: none; stroke: #3498db; stroke-linecap: square"/>
   </g>
   <g id="text_1">
    <!-- 物体 -->
    <g transform="translate(141.2 168.747031) scale(0.1 -0.1)">
     <defs>
      <path id="MicrosoftYaHei-Bold-7269" d="M 1969 -847 
L 1181 -847 
L 1181 1078 
Q 669 984 206 884 
L 94 1791 
Q 597 1838 1181 1922 
L 1181 3172 
L 775 3172 
Q 697 2731 594 2322 
Q 300 2509 88 2603 
Q 313 3566 381 4784 
L 956 4728 
Q 931 4344 891 3978 
L 1181 3978 
L 1181 5291 
L 1969 5291 
L 1969 3978 
L 2425 3978 
L 2425 3728 
Q 2856 4553 3100 5341 
Q 3550 5259 3938 5178 
Q 3772 4738 3609 4359 
L 6075 4359 
Q 6066 3275 6028 2016 
L 5972 400 
Q 5953 47 5834 -204 
Q 5716 -456 5466 -568 
Q 5216 -681 4150 -647 
Q 4056 -134 3934 216 
Q 3497 -331 2888 -772 
Q 2494 -353 2219 -109 
Q 4194 1163 4425 3534 
L 4116 3534 
Q 3891 1925 2781 966 
Q 2597 1144 2441 1284 
L 1969 1213 
L 1969 -847 
z
M 5300 3534 
L 5025 3534 
Q 4994 1578 3966 253 
Q 4356 222 4694 222 
Q 5122 222 5187 645 
Q 5253 1069 5300 3534 
z
M 2638 2647 
Q 2384 3003 2228 3172 
L 1969 3172 
L 1969 2044 
Q 2241 2088 2531 2141 
Q 2522 2006 2516 1850 
Q 3275 2559 3519 3534 
L 3213 3534 
Q 2925 3000 2638 2647 
z
" transform="scale(0.015625)"/>
      <path id="MicrosoftYaHei-Bold-4f53" d="M 1100 5309 
L 1906 5103 
Q 1697 4303 1450 3613 
L 1450 1072 
Q 2450 2116 2934 3516 
L 1806 3516 
L 1806 4297 
L 3438 4297 
L 3438 5309 
L 4263 5309 
L 4263 4297 
L 6063 4297 
L 6063 3516 
L 4716 3516 
Q 5191 2188 6313 1166 
Q 6044 759 5769 278 
Q 5519 538 5300 853 
L 5300 209 
L 4263 209 
L 4263 -841 
L 3438 -841 
L 3438 209 
L 2431 209 
L 2431 878 
Q 2191 519 1906 191 
Q 1722 491 1450 900 
L 1450 -828 
L 700 -828 
L 700 1922 
Q 500 1563 288 1253 
Q 213 1822 88 2434 
Q 581 3359 1100 5309 
z
M 2509 997 
L 3438 997 
L 3438 3163 
Q 3138 1972 2509 997 
z
M 4263 3128 
L 4263 997 
L 5203 997 
Q 4634 1866 4263 3128 
z
" transform="scale(0.015625)"/>
     </defs>
     <use xlink:href="#MicrosoftYaHei-Bold-7269"/>
     <use xlink:href="#MicrosoftYaHei-Bold-4f53" transform="translate(100 0)"/>
    </g>
   </g>
   <g id="text_2">
    <!-- G -->
    <g style="fill: #c0392b" transform="translate(162.72 229.353125) scale(0.11 -0.11)">
     <defs>
      <path id="MicrosoftYaHei-Bold-47" d="M 4494 325 
Q 3784 -84 2750 -84 
Q 1594 -84 925 566 
Q 256 1216 256 2344 
Q 256 3488 992 4205 
Q 1728 4922 2931 4922 
Q 3706 4922 4284 4703 
L 4284 3725 
Q 3722 4053 2909 4053 
Q 2209 4053 1775 3597 
Q 1341 3141 1341 2394 
Q 1341 1634 1733 1209 
Q 2125 784 2803 784 
Q 3206 784 3463 909 
L 3463 1903 
L 2484 1903 
L 2484 2731 
L 4494 2731 
L 4494 325 
z
" transform="scale(0.015625)"/>
     </defs>
     <use xlink:href="#MicrosoftYaHei-Bold-47"/>
    </g>
   </g>
   <g id="text_3">
    <!-- F浮 -->
    <g style="fill: #3498db" transform="translate(162.72 102.633125) scale(0.11 -0.11)">
     <defs>
      <path id="MicrosoftYaHei-Bold-46" d="M 3319 3997 
L 1591 3997 
L 1591 2753 
L 3181 2753 
L 3181 1909 
L 1591 1909 
L 1591 0 
L 559 0 
L 559 4841 
L 3319 4841 
L 3319 3997 
z
" transform="scale(0.015625)"/>
      <path id="MicrosoftYaHei-Bold-6d6e" d="M 706 5278 
Q 1156 4941 1744 4422 
L 1163 3809 
Q 663 4303 181 4716 
L 706 5278 
z
M 1750 1541 
L 3544 1541 
L 3544 1716 
Q 4181 2116 4456 2316 
L 2075 2316 
L 2075 3059 
L 4956 3059 
L 4494 3272 
Q 4922 3956 5172 4459 
L 1919 4272 
Q 1856 4703 1775 5028 
Q 4050 5084 5944 5234 
L 6050 4516 
L 5184 4459 
L 5950 4103 
Q 5647 3628 5259 3059 
L 5688 3059 
L 5688 2303 
Q 5184 1934 4575 1541 
L 6238 1541 
L 6238 784 
L 4431 784 
L 4431 -84 
Q 4431 -372 4304 -536 
Q 4178 -700 3898 -748 
Q 3619 -797 2594 -809 
Q 2519 -316 2425 9 
Q 2831 -22 3313 -22 
Q 3544 -22 3544 253 
L 3544 784 
L 1750 784 
L 1750 1541 
z
M 3919 4334 
Q 4075 4059 4363 3472 
L 3700 3197 
Q 3525 3622 3275 4066 
L 3919 4334 
z
M 2569 4247 
Q 2806 3884 3075 3422 
L 2400 3097 
Q 2188 3478 1900 3934 
L 2569 4247 
z
M 638 3634 
Q 1244 3191 1663 2822 
L 1075 2172 
Q 681 2559 94 3041 
L 638 3634 
z
M 719 1909 
Q 1219 1716 1556 1628 
L 1013 -797 
Q 550 -647 150 -547 
Q 463 522 719 1909 
z
" transform="scale(0.015625)"/>
     </defs>
     <use xlink:href="#MicrosoftYaHei-Bold-46"/>
     <use xlink:href="#MicrosoftYaHei-Bold-6d6e" transform="translate(55.810547 0)"/>
    </g>
   </g>
   <g id="text_4">
    <!-- F浮 = ρ液 g V排 -->
    <g style="fill: #c0392b" transform="translate(105.878437 281.193125) scale(0.12 -0.12)">
     <defs>
      <path id="MicrosoftYaHei-Bold-20" transform="scale(0.015625)"/>
      <path id="MicrosoftYaHei-Bold-3d" d="M 4072 2378 
L 797 2378 
L 797 3041 
L 4072 3041 
L 4072 2378 
z
M 4072 916 
L 797 916 
L 797 1578 
L 4072 1578 
L 4072 916 
z
" transform="scale(0.015625)"/>
      <path id="MicrosoftYaHei-Bold-3c1" d="M 1459 250 
L 1459 -1334 
L 447 -1334 
L 447 1722 
Q 447 2594 901 3067 
Q 1356 3541 2197 3541 
Q 3016 3541 3506 3058 
Q 3997 2575 3997 1759 
Q 3997 919 3567 417 
Q 3138 -84 2422 -84 
Q 1844 -84 1472 250 
L 1459 250 
z
M 1459 1019 
Q 1747 694 2163 694 
Q 2969 694 2969 1734 
Q 2969 2178 2745 2470 
Q 2522 2763 2175 2763 
Q 1459 2763 1459 1819 
L 1459 1019 
z
" transform="scale(0.015625)"/>
      <path id="MicrosoftYaHei-Bold-6db2" d="M 2750 -866 
L 1975 -866 
L 1975 1753 
Q 1769 1428 1544 1091 
Q 1500 1259 1456 1416 
Q 1206 453 919 -822 
Q 488 -653 113 -528 
Q 419 459 713 1872 
Q 1088 1691 1413 1572 
Q 1344 1834 1269 2041 
Q 2000 3041 2281 3941 
L 1663 3941 
L 1663 4691 
L 3600 4691 
Q 3500 4922 3381 5184 
L 4313 5353 
Q 4450 5084 4619 4691 
L 6275 4691 
L 6275 3941 
L 3794 3941 
L 4488 3784 
Q 4425 3609 4356 3447 
L 6075 3447 
L 6075 2778 
Q 5894 1491 5131 566 
Q 5638 209 6363 -22 
Q 6138 -384 5888 -847 
Q 5056 -472 4531 -28 
Q 4038 -441 3250 -884 
Q 3000 -534 2750 -241 
L 2750 -866 
z
M 5263 2709 
L 4025 2709 
Q 3938 2522 3838 2341 
Q 4119 1609 4544 1103 
Q 5138 1803 5263 2709 
z
M 3963 572 
Q 3638 991 3381 1547 
Q 3231 1309 3075 1078 
Q 2900 1478 2750 1784 
L 2750 -153 
Q 3506 241 3963 572 
z
M 606 3609 
Q 1056 3247 1538 2834 
L 944 2147 
Q 513 2591 81 2972 
L 606 3609 
z
M 644 5266 
Q 1125 4897 1575 4497 
L 1000 3853 
Q 544 4291 113 4684 
L 644 5266 
z
M 3106 3834 
Q 2944 3478 2750 3103 
L 2750 1997 
Q 3369 2903 3738 3941 
L 2719 3941 
L 3106 3834 
z
M 4038 2447 
L 4550 2697 
Q 4788 2272 4975 1928 
L 4456 1659 
Q 4269 2028 4038 2447 
z
" transform="scale(0.015625)"/>
      <path id="MicrosoftYaHei-Bold-67" d="M 3800 381 
Q 3800 -581 3251 -1101 
Q 2703 -1622 1672 -1622 
Q 972 -1622 559 -1422 
L 559 -559 
Q 1097 -872 1644 -872 
Q 2184 -872 2489 -583 
Q 2794 -294 2794 219 
L 2794 506 
L 2778 506 
Q 2413 -84 1691 -84 
Q 1038 -84 645 381 
Q 253 847 253 1628 
Q 253 2500 686 3020 
Q 1119 3541 1822 3541 
Q 2459 3541 2778 3044 
L 2794 3044 
L 2794 3456 
L 3800 3456 
L 3800 381 
z
M 2803 1950 
Q 2803 2294 2595 2530 
Q 2388 2766 2072 2766 
Q 1703 2766 1489 2477 
Q 1275 2188 1275 1666 
Q 1275 1213 1481 952 
Q 1688 691 2028 691 
Q 2372 691 2587 956 
Q 2803 1222 2803 1647 
L 2803 1950 
z
" transform="scale(0.015625)"/>
      <path id="MicrosoftYaHei-Bold-56" d="M 4541 4841 
L 2859 0 
L 1694 0 
L 34 4841 
L 1147 4841 
L 2194 1419 
Q 2272 1166 2291 941 
L 2309 941 
Q 2334 1172 2416 1431 
L 3463 4841 
L 4541 4841 
z
" transform="scale(0.015625)"/>
      <path id="MicrosoftYaHei-Bold-6392" d="M 4300 5316 
L 5100 5316 
L 5100 4228 
L 6188 4228 
L 6188 3428 
L 5100 3428 
L 5100 2778 
L 6075 2778 
L 6075 1978 
L 5100 1978 
L 5100 1316 
L 6294 1316 
L 6294 516 
L 5100 516 
L 5100 -847 
L 4300 -847 
L 4300 5316 
z
M 1844 1316 
L 2925 1316 
L 2925 1978 
L 2150 1978 
L 2150 2778 
L 2925 2778 
L 2925 3428 
L 2138 3428 
L 2138 4228 
L 2925 4228 
L 2925 5316 
L 3750 5316 
L 3750 -847 
L 2925 -847 
L 2925 516 
L 1844 516 
L 1844 1316 
z
M 113 4153 
L 738 4153 
L 738 5253 
L 1531 5253 
L 1531 4153 
L 2000 4153 
L 2000 3378 
L 1531 3378 
L 1531 2597 
Q 1759 2681 1938 2753 
Q 1981 2259 2025 1922 
L 1531 1719 
L 1531 -3 
Q 1531 -350 1406 -542 
Q 1281 -734 1007 -771 
Q 734 -809 250 -809 
Q 188 -447 94 3 
L 581 3 
Q 738 3 738 253 
L 738 1375 
L 263 1159 
L 100 2059 
L 738 2297 
L 738 3378 
L 113 3378 
L 113 4153 
z
" transform="scale(0.015625)"/>
     </defs>
     <use xlink:href="#MicrosoftYaHei-Bold-46"/>
     <use xlink:href="#MicrosoftYaHei-Bold-6d6e" transform="translate(55.810547 0)"/>
     <use xlink:href="#MicrosoftYaHei-Bold-20" transform="translate(155.810547 0)"/>
     <use xlink:href="#MicrosoftYaHei-Bold-3d" transform="translate(185.595703 0)"/>
     <use xlink:href="#MicrosoftYaHei-Bold-20" transform="translate(261.71875 0)"/>
     <use xlink:href="#MicrosoftYaHei-Bold-3c1" transform="translate(291.503906 0)"/>
     <use xlink:href="#MicrosoftYaHei-Bold-6db2" transform="translate(357.861328 0)"/>
     <use xlink:href="#MicrosoftYaHei-Bold-20" transform="translate(457.861328 0)"/>
     <use xlink:href="#MicrosoftYaHei-Bold-67" transform="translate(487.646484 0)"/>
     <use xlink:href="#MicrosoftYaHei-Bold-20" transform="translate(554.101562 0)"/>
     <use xlink:href="#MicrosoftYaHei-Bold-56" transform="translate(583.886719 0)"/>
     <use xlink:href="#MicrosoftYaHei-Bold-6392" transform="translate(655.371094 0)"/>
    </g>
   </g>
   <g id="text_5">
    <!-- 物体在液体中的受力分析 -->
    <g transform="translate(90.7 15.993125) scale(0.11 -0.11)">
     <defs>
      <path id="MicrosoftYaHei-Bold-5728" d="M 263 4659 
L 2006 4659 
Q 2144 5003 2244 5366 
L 3188 5297 
Q 3103 4972 2994 4659 
L 6225 4659 
L 6225 3828 
L 2656 3828 
Q 2288 3047 1756 2350 
L 1756 -834 
L 919 -834 
L 919 1400 
Q 688 1175 438 959 
Q 256 1528 88 1928 
Q 1034 2778 1616 3828 
L 263 3828 
L 263 4659 
z
M 1981 284 
L 3681 284 
L 3681 1684 
L 2319 1684 
L 2319 2509 
L 3681 2509 
L 3681 3634 
L 4575 3634 
L 4575 2509 
L 5956 2509 
L 5956 1684 
L 4575 1684 
L 4575 284 
L 6238 284 
L 6238 -541 
L 1981 -541 
L 1981 284 
z
" transform="scale(0.015625)"/>
      <path id="MicrosoftYaHei-Bold-4e2d" d="M 2719 5341 
L 3669 5341 
L 3669 4234 
L 6000 4234 
L 6000 728 
L 5075 728 
L 5075 1159 
L 3669 1159 
L 3669 -853 
L 2719 -853 
L 2719 1159 
L 1313 1159 
L 1313 709 
L 388 709 
L 388 4234 
L 2719 4234 
L 2719 5341 
z
M 5075 3372 
L 3669 3372 
L 3669 2022 
L 5075 2022 
L 5075 3372 
z
M 1313 2022 
L 2719 2022 
L 2719 3372 
L 1313 3372 
L 1313 2022 
z
" transform="scale(0.015625)"/>
      <path id="MicrosoftYaHei-Bold-7684" d="M 1250 5303 
L 2181 5159 
L 1900 4309 
L 2963 4309 
L 2963 3091 
Q 3466 3934 3925 5316 
L 4788 5091 
Q 4650 4675 4494 4278 
L 6106 4278 
L 6034 681 
Q 6019 100 5937 -133 
Q 5856 -366 5684 -512 
Q 5513 -659 5205 -712 
Q 4897 -766 3863 -766 
Q 3769 -216 3625 178 
Q 4088 141 4609 141 
Q 4759 141 4868 175 
Q 4978 209 5048 279 
Q 5119 350 5144 437 
Q 5169 525 5184 1206 
L 5213 2484 
Q 5225 3081 5225 3453 
L 4138 3453 
Q 3931 3016 3700 2603 
Q 3403 2797 2963 2988 
L 2963 -734 
L 2094 -734 
L 2094 -284 
L 1206 -284 
L 1206 -772 
L 338 -772 
L 338 4309 
L 997 4309 
Q 1178 4922 1250 5303 
z
M 2094 3491 
L 1206 3491 
L 1206 2422 
L 2094 2422 
L 2094 3491 
z
M 1206 534 
L 2094 534 
L 2094 1603 
L 1206 1603 
L 1206 534 
z
M 3944 2703 
Q 4394 2166 4913 1397 
L 4125 872 
Q 3650 1653 3219 2203 
L 3944 2703 
z
" transform="scale(0.015625)"/>
      <path id="MicrosoftYaHei-Bold-53d7" d="M 300 2303 
L 300 3441 
L 1081 3441 
Q 881 3784 750 3978 
L 1675 4091 
Q 1825 3778 1994 3441 
L 2888 3441 
Q 2713 3747 2531 4047 
L 3494 4172 
Q 3675 3759 3800 3441 
L 4356 3441 
Q 4556 3753 4856 4216 
L 5744 4016 
Q 5581 3803 5313 3441 
L 6094 3441 
L 6094 2303 
L 5250 2303 
L 5250 2666 
L 1144 2666 
L 1144 2303 
L 300 2303 
z
M 5719 5134 
Q 5719 5128 5850 4372 
Q 3575 4253 519 4172 
Q 475 4628 419 4959 
Q 3813 4997 5719 5134 
z
M 3219 716 
Q 3850 1016 4338 1422 
L 2106 1422 
Q 2594 1009 3219 716 
z
M 5475 2178 
L 5475 1516 
Q 4994 847 4219 347 
Q 5144 103 6300 47 
Q 6194 -216 5963 -828 
Q 4431 -697 3200 -166 
Q 2088 -628 569 -853 
Q 394 -478 175 -22 
Q 1313 78 2231 341 
Q 1700 678 1244 1109 
L 1588 1422 
L 981 1422 
L 981 2178 
L 5475 2178 
z
" transform="scale(0.015625)"/>
      <path id="MicrosoftYaHei-Bold-529b" d="M 2094 5309 
L 3063 5309 
L 3022 4066 
L 5988 4066 
L 5931 2203 
Q 5897 1225 5859 593 
Q 5822 -38 5489 -373 
Q 5156 -709 4611 -721 
Q 4066 -734 3225 -728 
Q 3138 -184 3038 247 
Q 3531 197 4188 197 
Q 4503 197 4665 320 
Q 4828 444 4876 623 
Q 4925 803 4964 1515 
Q 5003 2228 5025 3241 
L 2978 3241 
Q 2919 603 769 -891 
Q 444 -491 38 -84 
Q 1963 1059 2031 3241 
L 381 3241 
L 381 4066 
L 2075 4066 
Q 2097 4644 2094 5309 
z
" transform="scale(0.015625)"/>
      <path id="MicrosoftYaHei-Bold-5206" d="M 6350 3028 
Q 6088 2703 5750 2228 
Q 5519 2409 5303 2603 
Q 5219 606 5172 190 
Q 5125 -225 4862 -451 
Q 4600 -678 4128 -678 
Q 3484 -678 2913 -659 
Q 2856 -141 2781 284 
Q 3594 216 3956 216 
Q 4172 216 4230 408 
Q 4288 600 4325 1978 
L 2781 1978 
Q 2728 1100 2529 631 
Q 2331 163 1907 -215 
Q 1484 -594 844 -872 
Q 456 -353 194 -78 
Q 750 144 1111 414 
Q 1472 684 1630 989 
Q 1788 1294 1841 1978 
L 950 1978 
L 950 2475 
Q 794 2356 631 2247 
Q 344 2653 63 2953 
Q 1475 3947 2194 5316 
L 3031 4953 
Q 2378 3722 1391 2841 
L 5047 2841 
Q 4088 3766 3463 4903 
L 4238 5303 
Q 5038 3922 6350 3028 
z
" transform="scale(0.015625)"/>
      <path id="MicrosoftYaHei-Bold-6790" d="M 94 1559 
Q 653 2478 878 3297 
L 150 3297 
L 150 4116 
L 888 4116 
L 888 5266 
L 1725 5266 
L 1725 4116 
L 2363 4116 
L 2363 3297 
L 1725 3297 
L 1725 2722 
Q 2256 2453 2594 2253 
L 2181 1528 
Q 1978 1678 1725 1841 
L 1725 -822 
L 888 -822 
L 888 1563 
Q 653 1003 319 459 
Q 225 997 94 1559 
z
M 5963 5191 
L 6238 4353 
Q 5244 4178 3506 4041 
L 3506 3091 
L 6306 3091 
L 6306 2266 
L 5275 2266 
L 5275 -791 
L 4425 -791 
L 4425 2266 
L 3506 2266 
Q 3506 281 2656 -859 
Q 2331 -453 1988 -141 
Q 2656 716 2656 2216 
L 2656 4859 
Q 4756 4966 5963 5191 
z
" transform="scale(0.015625)"/>
     </defs>
     <use xlink:href="#MicrosoftYaHei-Bold-7269"/>
     <use xlink:href="#MicrosoftYaHei-Bold-4f53" transform="translate(100 0)"/>
     <use xlink:href="#MicrosoftYaHei-Bold-5728" transform="translate(200 0)"/>
     <use xlink:href="#MicrosoftYaHei-Bold-6db2" transform="translate(300 0)"/>
     <use xlink:href="#MicrosoftYaHei-Bold-4f53" transform="translate(400 0)"/>
     <use xlink:href="#MicrosoftYaHei-Bold-4e2d" transform="translate(500 0)"/>
     <use xlink:href="#MicrosoftYaHei-Bold-7684" transform="translate(600 0)"/>
     <use xlink:href="#MicrosoftYaHei-Bold-53d7" transform="translate(700 0)"/>
     <use xlink:href="#MicrosoftYaHei-Bold-529b" transform="translate(800 0)"/>
     <use xlink:href="#MicrosoftYaHei-Bold-5206" transform="translate(900 0)"/>
     <use xlink:href="#MicrosoftYaHei-Bold-6790" transform="translate(1000 0)"/>
    </g>
   </g>
  </g>
  <g id="axes_2">
   <g id="patch_6">
    <path d="M 315.9 105.193125 
L 521.1 105.193125 
L 521.1 66.793125 
L 315.9 66.793125 
z
" clip-path="url(#p3d337cc527)" style="fill: #2ecc71; opacity: 0.7"/>
   </g>
   <g id="patch_7">
    <path d="M 315.9 181.993125 
L 521.1 181.993125 
L 521.1 143.593125 
L 315.9 143.593125 
z
" clip-path="url(#p3d337cc527)" style="fill: #f39c12; opacity: 0.7"/>
   </g>
   <g id="patch_8">
    <path d="M 315.9 258.793125 
L 521.1 258.793125 
L 521.1 220.393125 
L 315.9 220.393125 
z
" clip-path="url(#p3d337cc527)" style="fill: #e74c3c; opacity: 0.7"/>
   </g>
   <g id="line2d_5">
    <path d="M 418.5 277.993125 
L 418.5 21.993125 
" clip-path="url(#p3d337cc527)" style="fill: none; stroke: #000000; stroke-width: 1.5; stroke-linecap: square"/>
   </g>
   <g id="text_6">
    <!-- ρ物 &lt; ρ液 -->
    <g style="fill: #ffffff" transform="translate(395.079687 82.707812) scale(0.1 -0.1)">
     <defs>
      <path id="MicrosoftYaHei-Bold-3c" d="M 4000 238 
L 878 1678 
L 878 2184 
L 4000 3706 
L 4000 2938 
L 1763 1947 
L 1763 1928 
L 4000 1006 
L 4000 238 
z
" transform="scale(0.015625)"/>
     </defs>
     <use xlink:href="#MicrosoftYaHei-Bold-3c1"/>
     <use xlink:href="#MicrosoftYaHei-Bold-7269" transform="translate(66.357422 0)"/>
     <use xlink:href="#MicrosoftYaHei-Bold-20" transform="translate(166.357422 0)"/>
     <use xlink:href="#MicrosoftYaHei-Bold-3c" transform="translate(196.142578 0)"/>
     <use xlink:href="#MicrosoftYaHei-Bold-20" transform="translate(272.265625 0)"/>
     <use xlink:href="#MicrosoftYaHei-Bold-3c1" transform="translate(302.050781 0)"/>
     <use xlink:href="#MicrosoftYaHei-Bold-6db2" transform="translate(368.408203 0)"/>
    </g>
    <!-- (漂浮) -->
    <g style="fill: #ffffff" transform="translate(404.603125 94.78625) scale(0.1 -0.1)">
     <defs>
      <path id="MicrosoftYaHei-Bold-28" d="M 1606 -1100 
Q 525 97 525 1853 
Q 525 3550 1606 4841 
L 2431 4841 
Q 1406 3497 1406 1853 
Q 1406 216 2438 -1100 
L 1606 -1100 
z
" transform="scale(0.015625)"/>
      <path id="MicrosoftYaHei-Bold-6f02" d="M 1750 4022 
L 2919 4022 
L 2919 4428 
L 1688 4428 
L 1688 5097 
L 6150 5097 
L 6150 4428 
L 4900 4428 
L 4900 4022 
L 6075 4022 
L 6075 2378 
L 1750 2378 
L 1750 4022 
z
M 1638 1216 
L 6188 1216 
L 6188 547 
L 4350 547 
L 4350 -122 
Q 4350 -822 3588 -841 
Q 3313 -847 2881 -853 
Q 2788 -409 2719 -147 
Q 2900 -159 3263 -172 
Q 3513 -172 3513 97 
L 3513 547 
L 2725 547 
L 3050 47 
Q 2381 -316 1650 -703 
Q 1475 -366 1263 -53 
Q 1913 191 2588 547 
L 1638 547 
L 1638 1216 
z
M 2025 2116 
L 5788 2116 
L 5788 1497 
L 2025 1497 
L 2025 2116 
z
M 719 1897 
Q 1244 1697 1556 1616 
Q 1325 628 1013 -809 
Q 569 -666 144 -559 
Q 481 609 719 1897 
z
M 631 3578 
Q 1206 3166 1656 2772 
L 1069 2122 
Q 681 2503 88 2991 
L 631 3578 
z
M 4944 528 
Q 5744 197 6306 -47 
L 6006 -722 
Q 5319 -372 4619 -22 
L 4944 528 
z
M 700 5241 
Q 1106 4959 1656 4491 
L 1100 3859 
Q 631 4328 181 4684 
L 700 5241 
z
M 5413 2966 
L 5413 3441 
L 4900 3441 
L 4900 2966 
L 5413 2966 
z
M 2413 2966 
L 2919 2966 
L 2919 3441 
L 2413 3441 
L 2413 2966 
z
M 3656 2966 
L 4163 2966 
L 4163 3441 
L 3656 3441 
L 3656 2966 
z
M 3656 4022 
L 4163 4022 
L 4163 4428 
L 3656 4428 
L 3656 4022 
z
" transform="scale(0.015625)"/>
      <path id="MicrosoftYaHei-Bold-29" d="M 59 -1100 
Q 1097 216 1097 1853 
Q 1097 3484 59 4841 
L 888 4841 
Q 1978 3544 1978 1853 
Q 1978 113 881 -1100 
L 59 -1100 
z
" transform="scale(0.015625)"/>
     </defs>
     <use xlink:href="#MicrosoftYaHei-Bold-28"/>
     <use xlink:href="#MicrosoftYaHei-Bold-6f02" transform="translate(38.964844 0)"/>
     <use xlink:href="#MicrosoftYaHei-Bold-6d6e" transform="translate(138.964844 0)"/>
     <use xlink:href="#MicrosoftYaHei-Bold-29" transform="translate(238.964844 0)"/>
    </g>
   </g>
   <g id="text_7">
    <!-- ρ物 = ρ液 -->
    <g style="fill: #ffffff" transform="translate(395.079687 159.507812) scale(0.1 -0.1)">
     <use xlink:href="#MicrosoftYaHei-Bold-3c1"/>
     <use xlink:href="#MicrosoftYaHei-Bold-7269" transform="translate(66.357422 0)"/>
     <use xlink:href="#MicrosoftYaHei-Bold-20" transform="translate(166.357422 0)"/>
     <use xlink:href="#MicrosoftYaHei-Bold-3d" transform="translate(196.142578 0)"/>
     <use xlink:href="#MicrosoftYaHei-Bold-20" transform="translate(272.265625 0)"/>
     <use xlink:href="#MicrosoftYaHei-Bold-3c1" transform="translate(302.050781 0)"/>
     <use xlink:href="#MicrosoftYaHei-Bold-6db2" transform="translate(368.408203 0)"/>
    </g>
    <!-- (悬浮) -->
    <g style="fill: #ffffff" transform="translate(404.603125 171.58625) scale(0.1 -0.1)">
     <defs>
      <path id="MicrosoftYaHei-Bold-60ac" d="M 863 5097 
L 5519 5097 
L 5519 2697 
L 6275 2697 
L 6275 2097 
L 4884 2097 
Q 5513 1713 6088 1322 
L 5697 875 
Q 6056 344 6319 -109 
L 5594 -509 
Q 5350 9 4956 616 
L 5413 838 
Q 5191 1013 4969 1175 
L 3506 1125 
Q 3734 875 3981 584 
L 3319 109 
Q 3088 447 2706 897 
L 3019 1106 
Q 1363 1038 838 966 
L 575 1597 
Q 1031 1759 1478 2097 
L 125 2097 
L 125 2697 
L 863 2697 
L 863 5097 
z
M 4719 4534 
L 1663 4534 
L 1663 4247 
L 4719 4247 
L 4719 4534 
z
M 1663 3472 
L 4719 3472 
L 4719 3759 
L 1663 3759 
L 1663 3472 
z
M 1663 2697 
L 4719 2697 
L 4719 2984 
L 1663 2984 
L 1663 2697 
z
M 3931 1916 
L 4128 2097 
L 2547 2097 
L 1894 1647 
Q 2791 1659 4231 1709 
L 3931 1916 
z
M 613 928 
L 1381 647 
Q 1081 -78 819 -584 
L 100 -247 
Q 394 316 613 928 
z
M 4219 734 
Q 4725 453 5025 328 
Q 4825 -363 4575 -548 
Q 4325 -734 3869 -734 
L 2531 -734 
Q 1600 -734 1600 16 
L 1600 884 
L 2463 884 
L 2463 222 
Q 2463 -84 2844 -84 
L 3563 -84 
Q 3866 -84 4006 34 
Q 4147 153 4219 734 
z
" transform="scale(0.015625)"/>
     </defs>
     <use xlink:href="#MicrosoftYaHei-Bold-28"/>
     <use xlink:href="#MicrosoftYaHei-Bold-60ac" transform="translate(38.964844 0)"/>
     <use xlink:href="#MicrosoftYaHei-Bold-6d6e" transform="translate(138.964844 0)"/>
     <use xlink:href="#MicrosoftYaHei-Bold-29" transform="translate(238.964844 0)"/>
    </g>
   </g>
   <g id="text_8">
    <!-- ρ物 &gt; ρ液 -->
    <g style="fill: #ffffff" transform="translate(395.079687 236.307812) scale(0.1 -0.1)">
     <defs>
      <path id="MicrosoftYaHei-Bold-3e" d="M 4000 1716 
L 878 275 
L 878 1041 
L 3122 1959 
L 3122 1975 
L 878 2969 
L 878 3738 
L 4000 2222 
L 4000 1716 
z
" transform="scale(0.015625)"/>
     </defs>
     <use xlink:href="#MicrosoftYaHei-Bold-3c1"/>
     <use xlink:href="#MicrosoftYaHei-Bold-7269" transform="translate(66.357422 0)"/>
     <use xlink:href="#MicrosoftYaHei-Bold-20" transform="translate(166.357422 0)"/>
     <use xlink:href="#MicrosoftYaHei-Bold-3e" transform="translate(196.142578 0)"/>
     <use xlink:href="#MicrosoftYaHei-Bold-20" transform="translate(272.265625 0)"/>
     <use xlink:href="#MicrosoftYaHei-Bold-3c1" transform="translate(302.050781 0)"/>
     <use xlink:href="#MicrosoftYaHei-Bold-6db2" transform="translate(368.408203 0)"/>
    </g>
    <!-- (沉底) -->
    <g style="fill: #ffffff" transform="translate(404.603125 248.38625) scale(0.1 -0.1)">
     <defs>
      <path id="MicrosoftYaHei-Bold-6c89" d="M 1775 3578 
L 1775 4472 
L 1256 3853 
Q 681 4372 175 4741 
L 681 5309 
Q 1097 5031 1775 4522 
L 1775 5003 
L 6063 5003 
L 6063 3578 
L 5225 3578 
L 5225 4216 
L 2613 4216 
L 2613 3578 
L 1775 3578 
z
M 563 3647 
Q 1188 3234 1750 2822 
L 1194 2141 
Q 625 2591 81 2997 
L 563 3647 
z
M 5688 1541 
Q 5931 1441 6300 1297 
Q 6241 38 6156 -206 
Q 6072 -450 5900 -570 
Q 5728 -691 5463 -691 
L 5031 -691 
Q 4350 -691 4350 103 
L 4350 2616 
L 3325 2616 
L 3325 1753 
Q 3325 925 3020 289 
Q 2716 -347 1919 -916 
Q 1600 -509 1294 -222 
Q 2016 259 2245 732 
Q 2475 1206 2475 1922 
L 2475 3403 
L 5200 3403 
L 5200 328 
Q 5200 97 5406 97 
Q 5578 97 5615 251 
Q 5653 406 5688 1541 
z
M 900 1872 
Q 1294 1678 1719 1547 
L 988 -834 
Q 556 -672 138 -541 
Q 500 403 900 1872 
z
" transform="scale(0.015625)"/>
      <path id="MicrosoftYaHei-Bold-5e95" d="M 2738 5203 
L 3763 5316 
Q 3853 5091 3984 4728 
L 6213 4728 
L 6213 4041 
L 1513 4041 
L 1513 2703 
Q 1513 225 719 -822 
Q 394 -422 88 -78 
Q 675 803 663 2409 
L 663 4728 
L 2953 4728 
L 2738 5203 
z
M 2688 453 
L 3775 984 
Q 3813 509 3881 203 
L 3731 134 
Q 3997 -184 4219 -497 
L 3556 -866 
Q 3325 -459 3116 -163 
Q 2403 -525 2038 -797 
L 1600 -109 
Q 1881 109 1875 628 
L 1875 3622 
Q 4231 3616 5831 3897 
L 6050 3128 
Q 5403 3041 4675 2984 
Q 4681 2569 4697 2191 
L 6225 2191 
L 6225 1453 
L 4747 1453 
Q 4800 969 4917 634 
Q 5034 300 5134 192 
Q 5234 84 5344 84 
Q 5447 84 5520 220 
Q 5594 356 5631 1259 
Q 5956 1128 6306 1041 
Q 6244 -153 6003 -447 
Q 5763 -741 5375 -741 
Q 4138 -741 3959 1453 
L 2688 1453 
L 2688 453 
z
M 2688 2903 
L 2688 2191 
L 3916 2191 
L 3888 2938 
Q 3309 2909 2688 2903 
z
" transform="scale(0.015625)"/>
     </defs>
     <use xlink:href="#MicrosoftYaHei-Bold-28"/>
     <use xlink:href="#MicrosoftYaHei-Bold-6c89" transform="translate(38.964844 0)"/>
     <use xlink:href="#MicrosoftYaHei-Bold-5e95" transform="translate(138.964844 0)"/>
     <use xlink:href="#MicrosoftYaHei-Bold-29" transform="translate(238.964844 0)"/>
    </g>
   </g>
   <g id="text_9">
    <!-- 密度增大→ -->
    <g transform="translate(396 297.193125) scale(0.09 -0.09)">
     <defs>
      <path id="MicrosoftYaHei-5bc6" d="M 63 1622 
Q 947 1872 1800 2228 
L 1800 3659 
L 2244 3659 
L 2244 2419 
Q 3594 3034 4850 3909 
L 5144 3534 
Q 3834 2656 2391 1997 
Q 2522 1872 2775 1872 
L 3975 1872 
Q 4350 1872 4425 2084 
Q 4506 2291 4550 2753 
Q 4756 2666 5025 2572 
Q 4931 2091 4888 1953 
Q 4756 1441 4094 1441 
L 2669 1441 
Q 2128 1441 1925 1794 
Q 1131 1459 300 1191 
Q 197 1419 63 1622 
z
M 5063 -809 
L 5063 -566 
L 850 -566 
L 850 1078 
L 1325 1078 
L 1325 -116 
L 2944 -116 
L 2944 1322 
L 3444 1322 
L 3444 -116 
L 5063 -116 
L 5063 1078 
L 5538 1078 
L 5538 -809 
L 5063 -809 
z
M 331 4672 
L 3009 4672 
Q 2894 4897 2750 5141 
L 3213 5359 
Q 3406 5041 3569 4672 
L 6075 4672 
L 6075 3559 
L 5569 3559 
L 5569 4222 
L 838 4222 
L 838 3559 
L 331 3559 
L 331 4672 
z
M 1063 3534 
L 1500 3366 
Q 1206 2684 863 2116 
Q 663 2216 406 2316 
Q 750 2809 1063 3534 
z
M 5075 3053 
L 5438 3322 
Q 5925 2791 6275 2322 
L 5863 2016 
Q 5531 2503 5075 3053 
z
M 2588 3847 
L 2913 4128 
Q 3331 3797 3656 3478 
L 3294 3141 
Q 2938 3528 2588 3847 
z
" transform="scale(0.015625)"/>
      <path id="MicrosoftYaHei-5ea6" d="M 1550 1216 
L 1550 1628 
L 5469 1628 
L 5469 1222 
Q 4903 613 4147 163 
Q 5050 -200 6263 -309 
L 6019 -797 
Q 4625 -603 3644 -109 
Q 2600 -619 1250 -866 
Q 1150 -666 994 -416 
Q 2231 -222 3166 166 
Q 2497 600 2066 1216 
L 1550 1216 
z
M 1363 3541 
L 2294 3541 
L 2294 4066 
L 2769 4066 
L 2769 3541 
L 4538 3541 
L 4538 4072 
L 5013 4072 
L 5013 3541 
L 6150 3541 
L 6150 3128 
L 5013 3128 
L 5013 1928 
L 4538 1928 
L 4538 2147 
L 2769 2147 
L 2769 1922 
L 2294 1922 
L 2294 3128 
L 1363 3128 
L 1363 3541 
z
M 3025 5172 
L 3481 5391 
Q 3694 5056 3909 4634 
L 6213 4634 
L 6213 4197 
L 1225 4197 
L 1225 2316 
Q 1225 178 394 -872 
Q 238 -666 38 -447 
Q 725 397 738 2347 
L 738 4634 
L 3331 4634 
Q 3188 4909 3025 5172 
z
M 2769 2547 
L 4538 2547 
L 4538 3128 
L 2769 3128 
L 2769 2547 
z
M 4819 1216 
L 2588 1216 
Q 3031 728 3656 391 
Q 4334 741 4819 1216 
z
" transform="scale(0.015625)"/>
      <path id="MicrosoftYaHei-589e" d="M 2188 4459 
L 3259 4459 
Q 3041 4781 2775 5116 
L 3131 5366 
Q 3456 4991 3694 4666 
L 3403 4459 
L 4453 4459 
Q 4759 4888 5050 5372 
L 5500 5116 
Q 5234 4772 4978 4459 
L 6038 4459 
L 6038 2122 
L 5600 2122 
L 5600 2309 
L 2625 2309 
L 2625 2122 
L 2188 2122 
L 2188 4459 
z
M 2438 1797 
L 5788 1797 
L 5788 -847 
L 5338 -847 
L 5338 -547 
L 2888 -547 
L 2888 -847 
L 2438 -847 
L 2438 1797 
z
M 81 428 
Q 466 538 894 672 
L 894 3253 
L 144 3253 
L 144 3697 
L 894 3697 
L 894 5259 
L 1356 5259 
L 1356 3697 
L 2000 3697 
L 2000 3253 
L 1356 3253 
L 1356 819 
Q 1709 931 2094 1059 
Q 2106 759 2125 553 
Q 1306 316 250 -53 
L 81 428 
z
M 5600 4084 
L 4325 4084 
L 4325 2684 
L 5600 2684 
L 5600 4084 
z
M 2625 2684 
L 3894 2684 
L 3894 4084 
L 2625 4084 
L 2625 2684 
z
M 5338 1409 
L 2888 1409 
L 2888 809 
L 5338 809 
L 5338 1409 
z
M 2888 -159 
L 5338 -159 
L 5338 434 
L 2888 434 
L 2888 -159 
z
M 5350 3609 
Q 5006 3066 4856 2884 
L 4519 3084 
Q 4744 3391 4981 3828 
L 5350 3609 
z
M 2863 3597 
L 3181 3803 
Q 3463 3441 3669 3122 
L 3319 2897 
Q 3119 3228 2863 3597 
z
" transform="scale(0.015625)"/>
      <path id="MicrosoftYaHei-5927" d="M 88 -341 
Q 2666 806 2869 3103 
L 200 3103 
L 200 3591 
L 2891 3591 
Q 2906 4431 2906 5284 
L 3450 5284 
Q 3450 4444 3434 3591 
L 6206 3591 
L 6206 3103 
L 3425 3103 
Q 3869 606 6338 -191 
Q 6019 -497 5863 -697 
Q 3828 122 3203 2219 
Q 2716 322 475 -822 
Q 350 -653 88 -341 
z
" transform="scale(0.015625)"/>
      <path id="MicrosoftYaHei-2192" d="M 4859 3766 
Q 5241 3344 5514 3125 
Q 5788 2906 6150 2713 
L 6150 2572 
Q 5788 2381 5517 2164 
Q 5247 1947 4859 1519 
L 4622 1519 
Q 4766 1822 4866 1983 
Q 4966 2144 5141 2369 
L 247 2369 
L 247 2916 
L 5141 2916 
Q 4972 3131 4869 3298 
Q 4766 3466 4622 3766 
L 4859 3766 
z
" transform="scale(0.015625)"/>
     </defs>
     <use xlink:href="#MicrosoftYaHei-5bc6"/>
     <use xlink:href="#MicrosoftYaHei-5ea6" transform="translate(100 0)"/>
     <use xlink:href="#MicrosoftYaHei-589e" transform="translate(200 0)"/>
     <use xlink:href="#MicrosoftYaHei-5927" transform="translate(300 0)"/>
     <use xlink:href="#MicrosoftYaHei-2192" transform="translate(400 0)"/>
    </g>
   </g>
   <g id="patch_9">
    <path d="M 418.5 23.989219 
Q 418.5 149.98928 418.5 273.753273 
" style="fill: none; stroke: #888888; stroke-width: 2; stroke-linecap: round"/>
    <path d="M 420.5 269.753273 
L 418.5 273.753273 
L 416.5 269.753273 
" style="fill: none; stroke: #888888; stroke-width: 2; stroke-linecap: round"/>
   </g>
   <g id="text_10">
    <!-- 浮沉条件与密度关系 -->
    <g transform="translate(420.3 15.993125) scale(0.11 -0.11)">
     <defs>
      <path id="MicrosoftYaHei-Bold-6761" d="M 5581 4797 
L 5581 4122 
Q 5034 3575 4253 3166 
Q 5059 3006 6244 2959 
Q 6069 2566 5906 2128 
Q 4203 2316 3169 2703 
Q 2028 2300 494 2091 
Q 331 2497 156 2872 
Q 1306 2963 2216 3184 
Q 1831 3434 1506 3753 
Q 1109 3422 656 3147 
Q 444 3434 150 3778 
Q 1381 4478 1956 5328 
L 2900 5328 
Q 2719 5050 2519 4797 
L 5581 4797 
z
M 3197 3491 
Q 3850 3747 4331 4103 
L 2203 4103 
Q 2672 3731 3197 3491 
z
M 425 1891 
L 2781 1891 
L 2781 2378 
L 3688 2378 
L 3688 1891 
L 6000 1891 
L 6000 1166 
L 3688 1166 
L 3688 191 
Q 3688 -194 3530 -422 
Q 3372 -650 3098 -715 
Q 2825 -781 1981 -791 
Q 1894 -341 1775 84 
Q 2163 53 2444 53 
Q 2781 53 2781 441 
L 2781 1166 
L 1763 1166 
L 2338 572 
Q 1481 -28 594 -609 
Q 356 -222 125 91 
Q 997 572 1734 1166 
L 425 1166 
L 425 1891 
z
M 4031 584 
L 4550 1147 
Q 5406 647 6263 47 
L 5725 -609 
L 4031 584 
z
" transform="scale(0.015625)"/>
      <path id="MicrosoftYaHei-Bold-4ef6" d="M 1944 1959 
L 3938 1959 
L 3938 3153 
L 3078 3153 
Q 2897 2563 2694 2097 
Q 2350 2284 1913 2466 
Q 2331 3472 2625 4903 
L 3469 4697 
Q 3388 4309 3300 3959 
L 3938 3959 
L 3938 5309 
L 4844 5309 
L 4844 3959 
L 6150 3959 
L 6150 3153 
L 4844 3153 
L 4844 1959 
L 6319 1959 
L 6319 1153 
L 4844 1153 
L 4844 -853 
L 3938 -853 
L 3938 1153 
L 1944 1153 
L 1944 1959 
z
M 1269 5303 
L 2131 5053 
Q 1906 4384 1669 3794 
L 1669 -847 
L 831 -847 
L 831 2000 
Q 578 1541 313 1153 
Q 200 1834 94 2322 
Q 750 3559 1269 5303 
z
" transform="scale(0.015625)"/>
      <path id="MicrosoftYaHei-Bold-4e0e" d="M 6138 3747 
L 2000 3747 
L 1956 3041 
L 5838 3041 
L 5738 541 
Q 5709 -169 5351 -453 
Q 4994 -738 4381 -741 
L 3031 -741 
Q 2956 -359 2813 166 
Q 3463 134 4081 134 
Q 4731 134 4784 526 
Q 4838 919 4863 2234 
L 969 2234 
L 1144 5272 
L 2094 5272 
L 2050 4566 
L 6138 4566 
L 6138 3747 
z
M 4456 766 
L 181 766 
L 181 1584 
L 4456 1584 
L 4456 766 
z
" transform="scale(0.015625)"/>
      <path id="MicrosoftYaHei-Bold-5bc6" d="M 2488 5228 
L 3563 5359 
Q 3616 5159 3703 4797 
L 6100 4797 
L 6100 3384 
L 5256 3384 
L 5256 4078 
L 3272 4078 
Q 3463 3844 3713 3503 
L 3081 3103 
Q 2788 3559 2506 3909 
L 2778 4078 
L 1156 4078 
L 1156 3613 
L 1706 3197 
Q 1231 2603 744 2128 
L 200 2634 
Q 594 3028 903 3384 
L 313 3384 
L 313 4797 
L 2628 4797 
Q 2547 5059 2488 5228 
z
M 4369 3991 
L 5019 3547 
Q 4028 2322 2675 1744 
Q 2750 1656 2925 1659 
L 3813 1659 
Q 4066 1659 4130 1818 
Q 4194 1978 4250 2503 
Q 4725 2303 5031 2203 
Q 4938 1759 4852 1515 
Q 4766 1272 4653 1176 
Q 4541 1081 4348 1032 
Q 4156 984 3894 984 
L 3656 984 
L 3656 153 
L 4919 153 
L 4919 1097 
L 5769 1097 
L 5769 -828 
L 4919 -828 
L 4919 -572 
L 625 -572 
L 625 972 
L 1475 972 
L 1475 153 
L 2738 153 
L 2738 984 
L 2581 984 
Q 1997 984 1844 1444 
Q 1200 1244 456 1097 
Q 256 1572 113 1878 
Q 1041 2028 1788 2256 
L 1788 3591 
L 2619 3591 
L 2619 2563 
Q 3625 3019 4369 3991 
z
M 5256 3341 
Q 5713 2872 6300 2147 
L 5613 1653 
Q 5156 2322 4650 2909 
L 5256 3341 
z
" transform="scale(0.015625)"/>
      <path id="MicrosoftYaHei-Bold-5ea6" d="M 5656 1697 
L 5656 1022 
Q 5156 447 4656 97 
Q 5344 -34 6306 -66 
Q 6119 -428 5938 -822 
Q 4556 -653 3719 -353 
Q 2825 -653 1494 -872 
Q 1338 -522 1088 -178 
Q 2100 -128 2888 78 
Q 2369 453 1938 1022 
L 1538 1022 
L 1538 1697 
L 5656 1697 
z
M 1325 2478 
Q 1338 134 700 -884 
Q 356 -553 19 -297 
Q 550 697 525 2591 
L 525 4772 
L 3013 4772 
Q 2944 4953 2831 5209 
L 3869 5359 
Q 3981 5072 4094 4772 
L 6256 4772 
L 6256 4072 
L 1325 4072 
L 1325 2478 
z
M 1463 3684 
L 2144 3684 
L 2144 3947 
L 2944 3947 
L 2944 3684 
L 4494 3684 
L 4494 3947 
L 5294 3947 
L 5294 3684 
L 6144 3684 
L 6144 3009 
L 5294 3009 
L 5294 1991 
L 2144 1991 
L 2144 3009 
L 1463 3009 
L 1463 3684 
z
M 3756 378 
Q 4325 641 4725 1022 
L 2825 1022 
Q 3225 622 3756 378 
z
M 4494 2628 
L 4494 3009 
L 2944 3009 
L 2944 2628 
L 4494 2628 
z
" transform="scale(0.015625)"/>
      <path id="MicrosoftYaHei-Bold-5173" d="M 156 2459 
L 2725 2459 
Q 2725 2491 2741 3266 
L 481 3266 
L 481 4066 
L 1834 4066 
Q 1475 4538 1219 4841 
L 1925 5341 
Q 2188 5053 2813 4347 
L 2406 4066 
L 3488 4066 
Q 3975 4731 4331 5341 
L 5231 4872 
L 4550 4066 
L 5938 4066 
L 5938 3266 
L 3672 3266 
Q 3672 3009 3666 2459 
L 6250 2459 
L 6250 1659 
L 3819 1659 
Q 4416 441 6300 72 
Q 5856 -503 5663 -797 
Q 3906 -300 3203 1031 
Q 2600 -128 781 -866 
Q 488 -509 94 -72 
Q 2059 541 2556 1659 
L 156 1659 
L 156 2459 
z
" transform="scale(0.015625)"/>
      <path id="MicrosoftYaHei-Bold-7cfb" d="M 344 4916 
Q 3406 4903 5900 5159 
L 6025 4472 
Q 4769 4353 3397 4278 
Q 2747 3884 2019 3528 
L 4084 3622 
Q 4550 3884 5038 4178 
L 5625 3591 
Q 3875 2622 1900 1878 
Q 3247 1938 4613 2034 
Q 4372 2272 4156 2466 
L 4738 2934 
Q 5219 2516 6263 1466 
L 5669 922 
Q 5447 1169 5241 1388 
L 3731 1328 
L 3731 -141 
Q 3731 -456 3547 -622 
Q 3363 -788 2984 -802 
Q 2606 -816 1975 -816 
Q 1919 -359 1813 34 
Q 2119 9 2466 9 
Q 2719 9 2800 65 
Q 2881 122 2881 278 
L 2881 1288 
Q 1481 1216 738 1128 
L 519 1903 
Q 1575 2303 2803 2931 
Q 1563 2856 888 2759 
L 656 3522 
Q 1338 3775 2075 4213 
L 481 4166 
Q 438 4522 344 4916 
z
M 4738 1153 
Q 5431 678 6294 -3 
L 5719 -603 
Q 5050 -28 4213 603 
L 4738 1153 
z
M 1569 1091 
L 2200 534 
Q 1494 -128 656 -678 
Q 369 -309 88 -9 
Q 894 447 1569 1091 
z
" transform="scale(0.015625)"/>
     </defs>
     <use xlink:href="#MicrosoftYaHei-Bold-6d6e"/>
     <use xlink:href="#MicrosoftYaHei-Bold-6c89" transform="translate(100 0)"/>
     <use xlink:href="#MicrosoftYaHei-Bold-6761" transform="translate(200 0)"/>
     <use xlink:href="#MicrosoftYaHei-Bold-4ef6" transform="translate(300 0)"/>
     <use xlink:href="#MicrosoftYaHei-Bold-4e0e" transform="translate(400 0)"/>
     <use xlink:href="#MicrosoftYaHei-Bold-5bc6" transform="translate(500 0)"/>
     <use xlink:href="#MicrosoftYaHei-Bold-5ea6" transform="translate(600 0)"/>
     <use xlink:href="#MicrosoftYaHei-Bold-5173" transform="translate(700 0)"/>
     <use xlink:href="#MicrosoftYaHei-Bold-7cfb" transform="translate(800 0)"/>
    </g>
   </g>
  </g>
 </g>
 <defs>
  <clipPath id="pd62a2dfaec">
   <rect x="7.2" y="21.993125" width="288" height="288"/>
  </clipPath>
  <clipPath id="p3d337cc527">
   <rect x="315.9" y="21.993125" width="307.8" height="288"/>
  </clipPath>
 </defs>
</svg>
