<?xml version="1.0" encoding="utf-8" standalone="no"?>
<!DOCTYPE svg PUBLIC "-//W3C//DTD SVG 1.1//EN"
  "http://www.w3.org/Graphics/SVG/1.1/DTD/svg11.dtd">
<svg xmlns:xlink="http://www.w3.org/1999/xlink" width="640.790625pt" height="280.622969pt" viewBox="0 0 640.790625 280.622969" xmlns="http://www.w3.org/2000/svg" version="1.1">
 <metadata>
  <rdf:RDF xmlns:dc="http://purl.org/dc/elements/1.1/" xmlns:cc="http://creativecommons.org/ns#" xmlns:rdf="http://www.w3.org/1999/02/22-rdf-syntax-ns#">
   <cc:Work>
    <dc:type rdf:resource="http://purl.org/dc/dcmitype/StillImage"/>
    <dc:date>2026-05-22T14:57:20.064206</dc:date>
    <dc:format>image/svg+xml</dc:format>
    <dc:creator>
     <cc:Agent>
      <dc:title>Matplotlib v3.10.9, https://matplotlib.org/</dc:title>
     </cc:Agent>
    </dc:creator>
   </cc:Work>
  </rdf:RDF>
 </metadata>
 <defs>
  <style type="text/css">*{stroke-linejoin: round; stroke-linecap: butt}</style>
 </defs>
 <g id="figure_1">
  <g id="patch_1">
   <path d="M 0 280.622969 
L 640.790625 280.622969 
L 640.790625 0 
L 0 0 
L 0 280.622969 
z
" style="fill: none"/>
  </g>
  <g id="axes_1">
   <g id="patch_2">
    <path d="M 24.390625 255.943281 
L 314.990625 255.943281 
L 314.990625 22.390156 
L 24.390625 22.390156 
L 24.390625 255.943281 
z
" style="fill: none"/>
   </g>
   <g id="matplotlib.axis_1">
    <g id="xtick_1">
     <g id="line2d_1">
      <path d="M 53.450625 255.943281 
L 53.450625 22.390156 
" clip-path="url(#p0823d1a312)" style="fill: none; stroke: #b0b0b0; stroke-opacity: 0.3; stroke-width: 0.8; stroke-linecap: square"/>
     </g>
     <g id="line2d_2">
      <defs>
       <path id="m1f50dd879f" d="M 0 0 
L 0 3.5 
" style="stroke: #000000; stroke-width: 0.8"/>
      </defs>
      <g>
       <use xlink:href="#m1f50dd879f" x="53.450625" y="255.943281" style="stroke: #000000; stroke-width: 0.8"/>
      </g>
     </g>
     <g id="text_1">
      <!-- -2 -->
      <g transform="translate(48.355313 270.937031) scale(0.1 -0.1)">
       <defs>
        <path id="MicrosoftYaHei-2d" d="M 2328 1681 
L 488 1681 
L 488 2153 
L 2328 2153 
L 2328 1681 
z
" transform="scale(0.015625)"/>
        <path id="MicrosoftYaHei-32" d="M 2666 3572 
Q 2666 3963 2419 4186 
Q 2172 4409 1747 4409 
Q 1447 4409 1140 4256 
Q 834 4103 569 3819 
L 569 4413 
Q 806 4659 1107 4790 
Q 1409 4922 1816 4922 
Q 2472 4922 2872 4570 
Q 3272 4219 3272 3619 
Q 3272 3084 3026 2693 
Q 2781 2303 2188 1894 
Q 1581 1475 1376 1294 
Q 1172 1113 1090 947 
Q 1009 781 1009 544 
L 3416 544 
L 3416 0 
L 372 0 
L 372 241 
Q 372 659 486 951 
Q 600 1244 862 1520 
Q 1125 1797 1681 2184 
Q 2250 2584 2458 2886 
Q 2666 3188 2666 3572 
z
" transform="scale(0.015625)"/>
       </defs>
       <use xlink:href="#MicrosoftYaHei-2d"/>
       <use xlink:href="#MicrosoftYaHei-32" transform="translate(43.261719 0)"/>
      </g>
     </g>
    </g>
    <g id="xtick_2">
     <g id="line2d_3">
      <path d="M 111.570625 255.943281 
L 111.570625 22.390156 
" clip-path="url(#p0823d1a312)" style="fill: none; stroke: #b0b0b0; stroke-opacity: 0.3; stroke-width: 0.8; stroke-linecap: square"/>
     </g>
     <g id="line2d_4">
      <g>
       <use xlink:href="#m1f50dd879f" x="111.570625" y="255.943281" style="stroke: #000000; stroke-width: 0.8"/>
      </g>
     </g>
     <g id="text_2">
      <!-- -1 -->
      <g transform="translate(106.475313 270.937031) scale(0.1 -0.1)">
       <defs>
        <path id="MicrosoftYaHei-31" d="M 1781 0 
L 1781 4141 
Q 1638 3997 1295 3819 
Q 953 3641 663 3569 
L 663 4169 
Q 1047 4275 1484 4508 
Q 1922 4741 2156 4947 
L 2388 4947 
L 2388 0 
L 1781 0 
z
" transform="scale(0.015625)"/>
       </defs>
       <use xlink:href="#MicrosoftYaHei-2d"/>
       <use xlink:href="#MicrosoftYaHei-31" transform="translate(43.261719 0)"/>
      </g>
     </g>
    </g>
    <g id="xtick_3">
     <g id="line2d_5">
      <path d="M 169.690625 255.943281 
L 169.690625 22.390156 
" clip-path="url(#p0823d1a312)" style="fill: none; stroke: #b0b0b0; stroke-opacity: 0.3; stroke-width: 0.8; stroke-linecap: square"/>
     </g>
     <g id="line2d_6">
      <g>
       <use xlink:href="#m1f50dd879f" x="169.690625" y="255.943281" style="stroke: #000000; stroke-width: 0.8"/>
      </g>
     </g>
     <g id="text_3">
      <!-- 0 -->
      <g transform="translate(166.758594 270.937031) scale(0.1 -0.1)">
       <defs>
        <path id="MicrosoftYaHei-30" d="M 284 2325 
Q 284 3606 709 4264 
Q 1134 4922 1941 4922 
Q 3478 4922 3478 2441 
Q 3478 1216 3045 567 
Q 2613 -81 1831 -81 
Q 1094 -81 689 534 
Q 284 1150 284 2325 
z
M 909 2353 
Q 909 425 1888 425 
Q 2850 425 2850 2384 
Q 2850 4413 1906 4413 
Q 909 4413 909 2353 
z
" transform="scale(0.015625)"/>
       </defs>
       <use xlink:href="#MicrosoftYaHei-30"/>
      </g>
     </g>
    </g>
    <g id="xtick_4">
     <g id="line2d_7">
      <path d="M 227.810625 255.943281 
L 227.810625 22.390156 
" clip-path="url(#p0823d1a312)" style="fill: none; stroke: #b0b0b0; stroke-opacity: 0.3; stroke-width: 0.8; stroke-linecap: square"/>
     </g>
     <g id="line2d_8">
      <g>
       <use xlink:href="#m1f50dd879f" x="227.810625" y="255.943281" style="stroke: #000000; stroke-width: 0.8"/>
      </g>
     </g>
     <g id="text_4">
      <!-- 1 -->
      <g transform="translate(224.878594 270.937031) scale(0.1 -0.1)">
       <use xlink:href="#MicrosoftYaHei-31"/>
      </g>
     </g>
    </g>
    <g id="xtick_5">
     <g id="line2d_9">
      <path d="M 285.930625 255.943281 
L 285.930625 22.390156 
" clip-path="url(#p0823d1a312)" style="fill: none; stroke: #b0b0b0; stroke-opacity: 0.3; stroke-width: 0.8; stroke-linecap: square"/>
     </g>
     <g id="line2d_10">
      <g>
       <use xlink:href="#m1f50dd879f" x="285.930625" y="255.943281" style="stroke: #000000; stroke-width: 0.8"/>
      </g>
     </g>
     <g id="text_5">
      <!-- 2 -->
      <g transform="translate(282.998594 270.937031) scale(0.1 -0.1)">
       <use xlink:href="#MicrosoftYaHei-32"/>
      </g>
     </g>
    </g>
   </g>
   <g id="matplotlib.axis_2">
    <g id="ytick_1">
     <g id="line2d_11">
      <path d="M 24.390625 255.943281 
L 314.990625 255.943281 
" clip-path="url(#p0823d1a312)" style="fill: none; stroke: #b0b0b0; stroke-opacity: 0.3; stroke-width: 0.8; stroke-linecap: square"/>
     </g>
     <g id="line2d_12">
      <defs>
       <path id="m8b822dfcc0" d="M 0 0 
L -3.5 0 
" style="stroke: #000000; stroke-width: 0.8"/>
      </defs>
      <g>
       <use xlink:href="#m8b822dfcc0" x="24.390625" y="255.943281" style="stroke: #000000; stroke-width: 0.8"/>
      </g>
     </g>
     <g id="text_6">
      <!-- -2 -->
      <g transform="translate(7.2 259.940156) scale(0.1 -0.1)">
       <use xlink:href="#MicrosoftYaHei-2d"/>
       <use xlink:href="#MicrosoftYaHei-32" transform="translate(43.261719 0)"/>
      </g>
     </g>
    </g>
    <g id="ytick_2">
     <g id="line2d_13">
      <path d="M 24.390625 222.578549 
L 314.990625 222.578549 
" clip-path="url(#p0823d1a312)" style="fill: none; stroke: #b0b0b0; stroke-opacity: 0.3; stroke-width: 0.8; stroke-linecap: square"/>
     </g>
     <g id="line2d_14">
      <g>
       <use xlink:href="#m8b822dfcc0" x="24.390625" y="222.578549" style="stroke: #000000; stroke-width: 0.8"/>
      </g>
     </g>
     <g id="text_7">
      <!-- -1 -->
      <g transform="translate(7.2 226.575424) scale(0.1 -0.1)">
       <use xlink:href="#MicrosoftYaHei-2d"/>
       <use xlink:href="#MicrosoftYaHei-31" transform="translate(43.261719 0)"/>
      </g>
     </g>
    </g>
    <g id="ytick_3">
     <g id="line2d_15">
      <path d="M 24.390625 189.213817 
L 314.990625 189.213817 
" clip-path="url(#p0823d1a312)" style="fill: none; stroke: #b0b0b0; stroke-opacity: 0.3; stroke-width: 0.8; stroke-linecap: square"/>
     </g>
     <g id="line2d_16">
      <g>
       <use xlink:href="#m8b822dfcc0" x="24.390625" y="189.213817" style="stroke: #000000; stroke-width: 0.8"/>
      </g>
     </g>
     <g id="text_8">
      <!-- 0 -->
      <g transform="translate(11.526563 193.210692) scale(0.1 -0.1)">
       <use xlink:href="#MicrosoftYaHei-30"/>
      </g>
     </g>
    </g>
    <g id="ytick_4">
     <g id="line2d_17">
      <path d="M 24.390625 155.849085 
L 314.990625 155.849085 
" clip-path="url(#p0823d1a312)" style="fill: none; stroke: #b0b0b0; stroke-opacity: 0.3; stroke-width: 0.8; stroke-linecap: square"/>
     </g>
     <g id="line2d_18">
      <g>
       <use xlink:href="#m8b822dfcc0" x="24.390625" y="155.849085" style="stroke: #000000; stroke-width: 0.8"/>
      </g>
     </g>
     <g id="text_9">
      <!-- 1 -->
      <g transform="translate(11.526563 159.84596) scale(0.1 -0.1)">
       <use xlink:href="#MicrosoftYaHei-31"/>
      </g>
     </g>
    </g>
    <g id="ytick_5">
     <g id="line2d_19">
      <path d="M 24.390625 122.484353 
L 314.990625 122.484353 
" clip-path="url(#p0823d1a312)" style="fill: none; stroke: #b0b0b0; stroke-opacity: 0.3; stroke-width: 0.8; stroke-linecap: square"/>
     </g>
     <g id="line2d_20">
      <g>
       <use xlink:href="#m8b822dfcc0" x="24.390625" y="122.484353" style="stroke: #000000; stroke-width: 0.8"/>
      </g>
     </g>
     <g id="text_10">
      <!-- 2 -->
      <g transform="translate(11.526563 126.481228) scale(0.1 -0.1)">
       <use xlink:href="#MicrosoftYaHei-32"/>
      </g>
     </g>
    </g>
    <g id="ytick_6">
     <g id="line2d_21">
      <path d="M 24.390625 89.119621 
L 314.990625 89.119621 
" clip-path="url(#p0823d1a312)" style="fill: none; stroke: #b0b0b0; stroke-opacity: 0.3; stroke-width: 0.8; stroke-linecap: square"/>
     </g>
     <g id="line2d_22">
      <g>
       <use xlink:href="#m8b822dfcc0" x="24.390625" y="89.119621" style="stroke: #000000; stroke-width: 0.8"/>
      </g>
     </g>
     <g id="text_11">
      <!-- 3 -->
      <g transform="translate(11.526563 93.116496) scale(0.1 -0.1)">
       <defs>
        <path id="MicrosoftYaHei-33" d="M 447 809 
Q 944 425 1569 425 
Q 2069 425 2361 670 
Q 2653 916 2653 1328 
Q 2653 2247 1338 2247 
L 934 2247 
L 934 2753 
L 1319 2753 
Q 2484 2753 2484 3616 
Q 2484 4413 1594 4413 
Q 1084 4413 634 4069 
L 634 4647 
Q 1109 4922 1744 4922 
Q 2363 4922 2738 4598 
Q 3113 4275 3113 3759 
Q 3113 2809 2144 2538 
L 2144 2525 
Q 2669 2469 2973 2155 
Q 3278 1841 3278 1372 
Q 3278 719 2808 319 
Q 2338 -81 1556 -81 
Q 869 -81 447 175 
L 447 809 
z
" transform="scale(0.015625)"/>
       </defs>
       <use xlink:href="#MicrosoftYaHei-33"/>
      </g>
     </g>
    </g>
    <g id="ytick_7">
     <g id="line2d_23">
      <path d="M 24.390625 55.754888 
L 314.990625 55.754888 
" clip-path="url(#p0823d1a312)" style="fill: none; stroke: #b0b0b0; stroke-opacity: 0.3; stroke-width: 0.8; stroke-linecap: square"/>
     </g>
     <g id="line2d_24">
      <g>
       <use xlink:href="#m8b822dfcc0" x="24.390625" y="55.754888" style="stroke: #000000; stroke-width: 0.8"/>
      </g>
     </g>
     <g id="text_12">
      <!-- 4 -->
      <g transform="translate(11.526563 59.751763) scale(0.1 -0.1)">
       <defs>
        <path id="MicrosoftYaHei-34" d="M 2906 4841 
L 2906 1644 
L 3631 1644 
L 3631 1138 
L 2906 1138 
L 2906 0 
L 2313 0 
L 2313 1138 
L 53 1138 
L 53 1616 
Q 656 2294 1265 3178 
Q 1875 4063 2272 4841 
L 2906 4841 
z
M 741 1644 
L 2313 1644 
L 2313 3950 
Q 1988 3366 1616 2817 
Q 1244 2269 741 1644 
z
" transform="scale(0.015625)"/>
       </defs>
       <use xlink:href="#MicrosoftYaHei-34"/>
      </g>
     </g>
    </g>
    <g id="ytick_8">
     <g id="line2d_25">
      <path d="M 24.390625 22.390156 
L 314.990625 22.390156 
" clip-path="url(#p0823d1a312)" style="fill: none; stroke: #b0b0b0; stroke-opacity: 0.3; stroke-width: 0.8; stroke-linecap: square"/>
     </g>
     <g id="line2d_26">
      <g>
       <use xlink:href="#m8b822dfcc0" x="24.390625" y="22.390156" style="stroke: #000000; stroke-width: 0.8"/>
      </g>
     </g>
     <g id="text_13">
      <!-- 5 -->
      <g transform="translate(11.526563 26.387031) scale(0.1 -0.1)">
       <defs>
        <path id="MicrosoftYaHei-35" d="M 3294 1494 
Q 3294 784 2823 350 
Q 2353 -84 1559 -84 
Q 878 -84 544 119 
L 544 744 
Q 1034 425 1544 425 
Q 2050 425 2361 704 
Q 2672 984 2672 1447 
Q 2672 1909 2348 2167 
Q 2025 2425 1434 2425 
Q 978 2425 613 2384 
L 791 4841 
L 3053 4841 
L 3053 4303 
L 1306 4303 
L 1206 2931 
L 1647 2950 
Q 2416 2950 2855 2567 
Q 3294 2184 3294 1494 
z
" transform="scale(0.015625)"/>
       </defs>
       <use xlink:href="#MicrosoftYaHei-35"/>
      </g>
     </g>
    </g>
   </g>
   <g id="line2d_27">
    <path d="M 60.144142 281.622969 
L 306.302973 -1 
L 306.302973 -1 
" clip-path="url(#p0823d1a312)" style="fill: none; stroke: #c0392b; stroke-width: 2; stroke-linecap: square"/>
   </g>
   <g id="line2d_28">
    <path d="M 30.920682 -1 
L 35.634947 11.710341 
L 40.892032 25.359205 
L 46.149117 38.462115 
L 51.406203 51.01907 
L 56.663288 63.03007 
L 61.920374 74.495116 
L 67.177459 85.414207 
L 72.434545 95.787343 
L 77.69163 105.614525 
L 82.948715 114.895753 
L 88.205801 123.631026 
L 93.462886 131.820344 
L 98.719972 139.463708 
L 103.977057 146.561117 
L 107.481781 150.989415 
L 110.986504 155.175067 
L 114.491228 159.118072 
L 117.995952 162.818431 
L 121.500675 166.276143 
L 125.005399 169.491209 
L 128.510122 172.463628 
L 132.014846 175.193401 
L 135.51957 177.680527 
L 139.024293 179.925007 
L 142.529017 181.92684 
L 146.033741 183.686027 
L 149.538464 185.202568 
L 153.043188 186.476461 
L 156.547911 187.507709 
L 160.052635 188.29631 
L 163.557359 188.842265 
L 167.062082 189.145573 
L 170.566806 189.206234 
L 174.07153 189.024249 
L 177.576253 188.599618 
L 181.080977 187.93234 
L 184.5857 187.022416 
L 188.090424 185.869845 
L 191.595148 184.474628 
L 195.099871 182.836764 
L 198.604595 180.956254 
L 202.109318 178.833098 
L 205.614042 176.467295 
L 209.118766 173.858845 
L 212.623489 171.007749 
L 216.128213 167.914007 
L 219.632937 164.577618 
L 223.13766 160.998582 
L 226.642384 157.1769 
L 230.147107 153.112572 
L 233.651831 148.805597 
L 237.156555 144.255976 
L 242.41364 136.976582 
L 247.670726 129.151233 
L 252.927811 120.77993 
L 258.184896 111.862672 
L 263.441982 102.39946 
L 268.699067 92.390293 
L 273.956153 81.835171 
L 279.213238 70.734095 
L 284.470323 59.087065 
L 289.727409 46.89408 
L 294.984494 34.15514 
L 300.24158 20.870246 
L 305.498665 7.039397 
L 308.460568 -1 
L 308.460568 -1 
" clip-path="url(#p0823d1a312)" style="fill: none; stroke: #3498db; stroke-width: 2; stroke-linecap: square"/>
   </g>
   <g id="line2d_29">
    <path d="M 42.759822 281.622969 
L 47.901479 268.989742 
L 53.158565 256.614772 
L 58.41565 244.785756 
L 63.672736 233.502695 
L 68.929821 222.765589 
L 74.186906 212.574437 
L 79.443992 202.92924 
L 84.701077 193.829998 
L 89.958163 185.276709 
L 95.215248 177.269376 
L 100.472334 169.807997 
L 105.729419 162.892573 
L 109.234143 158.585598 
L 112.738866 154.521269 
L 116.24359 150.699588 
L 119.748313 147.120552 
L 123.253037 143.784163 
L 126.757761 140.690421 
L 130.262484 137.839325 
L 133.767208 135.230875 
L 137.271932 132.865072 
L 140.776655 130.741915 
L 144.281379 128.861405 
L 147.786102 127.223542 
L 151.290826 125.828324 
L 154.79555 124.675754 
L 158.300273 123.765829 
L 161.804997 123.098552 
L 165.30972 122.67392 
L 168.814444 122.491935 
L 172.319168 122.552597 
L 175.823891 122.855905 
L 179.328615 123.40186 
L 182.833339 124.190461 
L 186.338062 125.221708 
L 189.842786 126.495602 
L 193.347509 128.012143 
L 196.852233 129.771329 
L 200.356957 131.773163 
L 203.86168 134.017643 
L 207.366404 136.504769 
L 210.871128 139.234542 
L 214.375851 142.206961 
L 217.880575 145.422027 
L 221.385298 148.879739 
L 224.890022 152.580098 
L 228.394746 156.523103 
L 231.899469 160.708754 
L 235.404193 165.137052 
L 240.661278 172.234462 
L 245.918364 179.877826 
L 251.175449 188.067144 
L 256.432535 196.802417 
L 261.68962 206.083644 
L 266.946705 215.910826 
L 272.203791 226.283963 
L 277.460876 237.203054 
L 282.717962 248.6681 
L 287.975047 260.6791 
L 293.232133 273.236055 
L 296.621428 281.622969 
L 296.621428 281.622969 
" clip-path="url(#p0823d1a312)" style="fill: none; stroke: #2ecc71; stroke-width: 2; stroke-linecap: square"/>
   </g>
   <g id="line2d_30">
    <path d="M 24.390625 189.213817 
L 314.990625 189.213817 
" clip-path="url(#p0823d1a312)" style="fill: none; stroke: #999999; stroke-width: 0.8; stroke-linecap: square"/>
   </g>
   <g id="line2d_31">
    <path d="M 169.690625 255.943281 
L 169.690625 22.390156 
" clip-path="url(#p0823d1a312)" style="fill: none; stroke: #999999; stroke-width: 0.8; stroke-linecap: square"/>
   </g>
   <g id="patch_3">
    <path d="M 24.390625 255.943281 
L 24.390625 22.390156 
" style="fill: none; stroke: #000000; stroke-width: 0.8; stroke-linejoin: miter; stroke-linecap: square"/>
   </g>
   <g id="patch_4">
    <path d="M 314.990625 255.943281 
L 314.990625 22.390156 
" style="fill: none; stroke: #000000; stroke-width: 0.8; stroke-linejoin: miter; stroke-linecap: square"/>
   </g>
   <g id="patch_5">
    <path d="M 24.390625 255.943281 
L 314.990625 255.943281 
" style="fill: none; stroke: #000000; stroke-width: 0.8; stroke-linejoin: miter; stroke-linecap: square"/>
   </g>
   <g id="patch_6">
    <path d="M 24.390625 22.390156 
L 314.990625 22.390156 
" style="fill: none; stroke: #000000; stroke-width: 0.8; stroke-linejoin: miter; stroke-linecap: square"/>
   </g>
   <g id="text_14">
    <!-- 一次函数与二次函数 -->
    <g transform="translate(120.190625 16.390156) scale(0.11 -0.11)">
     <defs>
      <path id="MicrosoftYaHei-Bold-4e00" d="M 188 2716 
L 6225 2716 
L 6225 1791 
L 188 1791 
L 188 2716 
z
" transform="scale(0.015625)"/>
      <path id="MicrosoftYaHei-Bold-6b21" d="M 6163 4466 
L 6163 3741 
L 5663 2572 
L 4838 2734 
L 5288 3697 
L 3153 3697 
Q 2884 3081 2550 2528 
Q 2113 2778 1700 2966 
Q 2425 4059 2856 5353 
L 3706 5228 
Q 3594 4838 3459 4466 
L 6163 4466 
z
M 844 5109 
Q 1400 4422 1869 3766 
L 1081 3203 
Q 669 3922 138 4647 
L 844 5109 
z
M 3525 3328 
L 4350 3328 
Q 4334 2925 4278 2553 
Q 4934 606 6325 59 
Q 6050 -297 5800 -784 
Q 4588 -66 3978 1409 
Q 3422 -19 2031 -878 
Q 1725 -428 1400 -109 
Q 3469 916 3525 3328 
z
M 1150 2653 
Q 1588 2428 2006 2247 
Q 1500 1053 944 -391 
L 88 16 
Q 650 1209 1150 2653 
z
" transform="scale(0.015625)"/>
      <path id="MicrosoftYaHei-Bold-51fd" d="M 3900 2378 
Q 4325 2097 5138 1616 
L 5138 3109 
Q 4750 2722 4356 2366 
L 3831 2828 
Q 4419 3409 4719 3722 
L 5138 3328 
L 5138 3728 
L 5975 3728 
L 5975 -841 
L 5138 -841 
L 5138 -622 
L 438 -622 
L 438 3728 
L 1275 3728 
L 1275 1691 
Q 1975 2053 2625 2478 
L 2825 2209 
L 2825 3747 
Q 3550 4084 4038 4341 
L 788 4341 
L 788 5103 
L 5563 5103 
L 5563 4353 
Q 4575 3803 3713 3378 
L 3713 2172 
L 3900 2378 
z
M 3125 403 
Q 2806 391 2156 384 
Q 2113 722 2013 1116 
Q 2300 1091 2581 1091 
Q 2825 1091 2825 1334 
L 2825 1766 
Q 2300 1416 1563 934 
Q 1506 1072 1275 1447 
L 1275 153 
L 5138 153 
L 5138 1341 
L 4750 866 
Q 4344 1184 3713 1628 
L 3713 1066 
Q 3713 441 3125 403 
z
M 1844 3766 
Q 2294 3347 2706 2934 
L 2081 2403 
Q 1638 2916 1281 3284 
L 1844 3766 
z
" transform="scale(0.015625)"/>
      <path id="MicrosoftYaHei-Bold-6570" d="M 238 4091 
L 725 4091 
Q 559 4425 281 4803 
L 844 5153 
Q 1038 4922 1369 4428 
L 806 4091 
L 1506 4091 
L 1506 5316 
L 2300 5316 
L 2300 4091 
L 2956 4091 
L 2438 4428 
Q 2750 4809 2963 5172 
L 3550 4822 
Q 3341 4466 3031 4091 
L 3394 4091 
L 3394 3453 
L 2300 3453 
L 2300 3016 
L 2513 3303 
Q 2903 3094 3253 2891 
Q 3766 3841 4138 5347 
L 4994 5266 
Q 4869 4781 4728 4341 
L 6294 4341 
L 6294 3578 
L 6041 3578 
Q 5906 1922 5338 856 
Q 5738 391 6319 53 
Q 6094 -203 5775 -778 
Q 5228 -413 4828 109 
Q 4313 -497 3631 -872 
Q 3378 -513 3072 -197 
L 2850 -566 
Q 2475 -350 2031 -128 
Q 1347 -584 394 -778 
Q 281 -434 63 -9 
Q 716 59 1213 253 
Q 781 444 300 641 
Q 513 950 681 1259 
L 169 1259 
L 169 1897 
L 991 1897 
Q 1094 2144 1169 2391 
L 1506 2359 
L 1506 2959 
Q 1044 2472 344 2053 
Q 213 2472 50 2803 
Q 672 3044 1172 3453 
L 238 3453 
L 238 4091 
z
M 4394 3400 
Q 4519 2359 4831 1659 
Q 5203 2478 5275 3578 
L 4463 3578 
Q 4431 3488 4394 3400 
z
M 2300 2216 
L 1984 2216 
Q 1913 2063 1825 1897 
L 3281 1897 
L 3281 1316 
Q 3038 806 2672 413 
L 3294 166 
L 3169 -38 
Q 3859 322 4347 894 
Q 4041 1522 3878 2300 
Q 3769 2103 3656 1922 
Q 3513 2172 3322 2438 
L 3138 2159 
Q 2750 2422 2300 2691 
L 2300 2216 
z
M 1300 934 
L 1950 691 
Q 2231 934 2413 1259 
L 1484 1259 
L 1300 934 
z
" transform="scale(0.015625)"/>
      <path id="MicrosoftYaHei-Bold-4e0e" d="M 6138 3747 
L 2000 3747 
L 1956 3041 
L 5838 3041 
L 5738 541 
Q 5709 -169 5351 -453 
Q 4994 -738 4381 -741 
L 3031 -741 
Q 2956 -359 2813 166 
Q 3463 134 4081 134 
Q 4731 134 4784 526 
Q 4838 919 4863 2234 
L 969 2234 
L 1144 5272 
L 2094 5272 
L 2050 4566 
L 6138 4566 
L 6138 3747 
z
M 4456 766 
L 181 766 
L 181 1584 
L 4456 1584 
L 4456 766 
z
" transform="scale(0.015625)"/>
      <path id="MicrosoftYaHei-Bold-4e8c" d="M 650 4641 
L 5750 4641 
L 5750 3703 
L 650 3703 
L 650 4641 
z
M 200 778 
L 6213 778 
L 6213 -172 
L 200 -172 
L 200 778 
z
" transform="scale(0.015625)"/>
     </defs>
     <use xlink:href="#MicrosoftYaHei-Bold-4e00"/>
     <use xlink:href="#MicrosoftYaHei-Bold-6b21" transform="translate(100 0)"/>
     <use xlink:href="#MicrosoftYaHei-Bold-51fd" transform="translate(200 0)"/>
     <use xlink:href="#MicrosoftYaHei-Bold-6570" transform="translate(300 0)"/>
     <use xlink:href="#MicrosoftYaHei-Bold-4e0e" transform="translate(400 0)"/>
     <use xlink:href="#MicrosoftYaHei-Bold-4e8c" transform="translate(500 0)"/>
     <use xlink:href="#MicrosoftYaHei-Bold-6b21" transform="translate(600 0)"/>
     <use xlink:href="#MicrosoftYaHei-Bold-51fd" transform="translate(700 0)"/>
     <use xlink:href="#MicrosoftYaHei-Bold-6570" transform="translate(800 0)"/>
    </g>
   </g>
   <g id="legend_1">
    <g id="patch_7">
     <path d="M 134.900703 251.443281 
L 204.480547 251.443281 
Q 206.280547 251.443281 206.280547 249.643281 
L 206.280547 208.592031 
Q 206.280547 206.792031 204.480547 206.792031 
L 134.900703 206.792031 
Q 133.100703 206.792031 133.100703 208.592031 
L 133.100703 249.643281 
Q 133.100703 251.443281 134.900703 251.443281 
z
" style="fill: #ffffff; opacity: 0.8; stroke: #cccccc; stroke-linejoin: miter"/>
    </g>
    <g id="line2d_32">
     <path d="M 136.700703 214.436406 
L 145.700703 214.436406 
L 154.700703 214.436406 
" style="fill: none; stroke: #c0392b; stroke-width: 2; stroke-linecap: square"/>
    </g>
    <g id="text_15">
     <!-- y = 2x+1 -->
     <g transform="translate(161.900703 217.586406) scale(0.09 -0.09)">
      <defs>
       <path id="MicrosoftYaHei-79" d="M 3359 3456 
L 1791 -522 
Q 1353 -1628 556 -1628 
Q 328 -1628 166 -1578 
L 166 -1041 
Q 344 -1109 509 -1109 
Q 925 -1109 1131 -622 
L 1397 6 
L 41 3456 
L 719 3456 
L 1622 859 
L 1697 575 
L 1713 575 
Q 1731 672 1788 853 
L 2731 3456 
L 3359 3456 
z
" transform="scale(0.015625)"/>
       <path id="MicrosoftYaHei-20" transform="scale(0.015625)"/>
       <path id="MicrosoftYaHei-3d" d="M 3972 2497 
L 788 2497 
L 788 2969 
L 3972 2969 
L 3972 2497 
z
M 3972 1053 
L 788 1053 
L 788 1525 
L 3972 1525 
L 3972 1053 
z
" transform="scale(0.015625)"/>
       <path id="MicrosoftYaHei-78" d="M 3163 3456 
L 2006 1716 
L 3147 0 
L 2434 0 
L 1775 1100 
Q 1722 1188 1625 1369 
L 1613 1369 
Q 1609 1350 1456 1100 
L 784 0 
L 81 0 
L 1256 1697 
L 134 3456 
L 847 3456 
L 1494 2300 
Q 1553 2194 1638 2025 
L 1650 2025 
L 2491 3456 
L 3163 3456 
z
" transform="scale(0.015625)"/>
       <path id="MicrosoftYaHei-2b" d="M 3972 1772 
L 2613 1772 
L 2613 419 
L 2141 419 
L 2141 1772 
L 788 1772 
L 788 2250 
L 2141 2250 
L 2141 3603 
L 2613 3603 
L 2613 2250 
L 3972 2250 
L 3972 1772 
z
" transform="scale(0.015625)"/>
      </defs>
      <use xlink:href="#MicrosoftYaHei-79"/>
      <use xlink:href="#MicrosoftYaHei-20" transform="translate(52.929688 0)"/>
      <use xlink:href="#MicrosoftYaHei-3d" transform="translate(82.519531 0)"/>
      <use xlink:href="#MicrosoftYaHei-20" transform="translate(156.689453 0)"/>
      <use xlink:href="#MicrosoftYaHei-32" transform="translate(186.279297 0)"/>
      <use xlink:href="#MicrosoftYaHei-78" transform="translate(244.921875 0)"/>
      <use xlink:href="#MicrosoftYaHei-2b" transform="translate(295.605469 0)"/>
      <use xlink:href="#MicrosoftYaHei-31" transform="translate(369.775391 0)"/>
     </g>
    </g>
    <g id="line2d_33">
     <path d="M 136.700703 228.420156 
L 145.700703 228.420156 
L 154.700703 228.420156 
" style="fill: none; stroke: #3498db; stroke-width: 2; stroke-linecap: square"/>
    </g>
    <g id="text_16">
     <!-- y = x² -->
     <g transform="translate(161.900703 231.570156) scale(0.09 -0.09)">
      <defs>
       <path id="MicrosoftYaHei-b2" d="M 2247 1972 
L 356 1972 
L 356 2372 
L 1169 3169 
Q 1503 3497 1597 3664 
Q 1691 3831 1691 4038 
Q 1691 4228 1567 4347 
Q 1444 4466 1238 4466 
Q 850 4466 513 4122 
L 513 4650 
Q 806 4906 1313 4906 
Q 1713 4906 1950 4682 
Q 2188 4459 2188 4091 
Q 2188 3581 1494 2919 
L 963 2419 
L 963 2403 
L 2247 2403 
L 2247 1972 
z
" transform="scale(0.015625)"/>
      </defs>
      <use xlink:href="#MicrosoftYaHei-79"/>
      <use xlink:href="#MicrosoftYaHei-20" transform="translate(52.929688 0)"/>
      <use xlink:href="#MicrosoftYaHei-3d" transform="translate(82.519531 0)"/>
      <use xlink:href="#MicrosoftYaHei-20" transform="translate(156.689453 0)"/>
      <use xlink:href="#MicrosoftYaHei-78" transform="translate(186.279297 0)"/>
      <use xlink:href="#MicrosoftYaHei-b2" transform="translate(236.962891 0)"/>
     </g>
    </g>
    <g id="line2d_34">
     <path d="M 136.700703 242.403906 
L 145.700703 242.403906 
L 154.700703 242.403906 
" style="fill: none; stroke: #2ecc71; stroke-width: 2; stroke-linecap: square"/>
    </g>
    <g id="text_17">
     <!-- y = -x²+2 -->
     <g transform="translate(161.900703 245.553906) scale(0.09 -0.09)">
      <use xlink:href="#MicrosoftYaHei-79"/>
      <use xlink:href="#MicrosoftYaHei-20" transform="translate(52.929688 0)"/>
      <use xlink:href="#MicrosoftYaHei-3d" transform="translate(82.519531 0)"/>
      <use xlink:href="#MicrosoftYaHei-20" transform="translate(156.689453 0)"/>
      <use xlink:href="#MicrosoftYaHei-2d" transform="translate(186.279297 0)"/>
      <use xlink:href="#MicrosoftYaHei-78" transform="translate(229.541016 0)"/>
      <use xlink:href="#MicrosoftYaHei-b2" transform="translate(280.224609 0)"/>
      <use xlink:href="#MicrosoftYaHei-2b" transform="translate(320.263672 0)"/>
      <use xlink:href="#MicrosoftYaHei-32" transform="translate(394.433594 0)"/>
     </g>
    </g>
   </g>
  </g>
  <g id="axes_2">
   <g id="patch_8">
    <path d="M 342.990625 255.943281 
L 633.590625 255.943281 
L 633.590625 22.390156 
L 342.990625 22.390156 
L 342.990625 255.943281 
z
" style="fill: none"/>
   </g>
   <g id="matplotlib.axis_3">
    <g id="xtick_6">
     <g id="line2d_35">
      <path d="M 372.050625 255.943281 
L 372.050625 22.390156 
" clip-path="url(#p8a69f793e4)" style="fill: none; stroke: #b0b0b0; stroke-opacity: 0.3; stroke-width: 0.8; stroke-linecap: square"/>
     </g>
     <g id="line2d_36">
      <g>
       <use xlink:href="#m1f50dd879f" x="372.050625" y="255.943281" style="stroke: #000000; stroke-width: 0.8"/>
      </g>
     </g>
     <g id="text_18">
      <!-- -4 -->
      <g transform="translate(366.955313 270.937031) scale(0.1 -0.1)">
       <use xlink:href="#MicrosoftYaHei-2d"/>
       <use xlink:href="#MicrosoftYaHei-34" transform="translate(43.261719 0)"/>
      </g>
     </g>
    </g>
    <g id="xtick_7">
     <g id="line2d_37">
      <path d="M 430.170625 255.943281 
L 430.170625 22.390156 
" clip-path="url(#p8a69f793e4)" style="fill: none; stroke: #b0b0b0; stroke-opacity: 0.3; stroke-width: 0.8; stroke-linecap: square"/>
     </g>
     <g id="line2d_38">
      <g>
       <use xlink:href="#m1f50dd879f" x="430.170625" y="255.943281" style="stroke: #000000; stroke-width: 0.8"/>
      </g>
     </g>
     <g id="text_19">
      <!-- -2 -->
      <g transform="translate(425.075313 270.937031) scale(0.1 -0.1)">
       <use xlink:href="#MicrosoftYaHei-2d"/>
       <use xlink:href="#MicrosoftYaHei-32" transform="translate(43.261719 0)"/>
      </g>
     </g>
    </g>
    <g id="xtick_8">
     <g id="line2d_39">
      <path d="M 488.290625 255.943281 
L 488.290625 22.390156 
" clip-path="url(#p8a69f793e4)" style="fill: none; stroke: #b0b0b0; stroke-opacity: 0.3; stroke-width: 0.8; stroke-linecap: square"/>
     </g>
     <g id="line2d_40">
      <g>
       <use xlink:href="#m1f50dd879f" x="488.290625" y="255.943281" style="stroke: #000000; stroke-width: 0.8"/>
      </g>
     </g>
     <g id="text_20">
      <!-- 0 -->
      <g transform="translate(485.358594 270.937031) scale(0.1 -0.1)">
       <use xlink:href="#MicrosoftYaHei-30"/>
      </g>
     </g>
    </g>
    <g id="xtick_9">
     <g id="line2d_41">
      <path d="M 546.410625 255.943281 
L 546.410625 22.390156 
" clip-path="url(#p8a69f793e4)" style="fill: none; stroke: #b0b0b0; stroke-opacity: 0.3; stroke-width: 0.8; stroke-linecap: square"/>
     </g>
     <g id="line2d_42">
      <g>
       <use xlink:href="#m1f50dd879f" x="546.410625" y="255.943281" style="stroke: #000000; stroke-width: 0.8"/>
      </g>
     </g>
     <g id="text_21">
      <!-- 2 -->
      <g transform="translate(543.478594 270.937031) scale(0.1 -0.1)">
       <use xlink:href="#MicrosoftYaHei-32"/>
      </g>
     </g>
    </g>
    <g id="xtick_10">
     <g id="line2d_43">
      <path d="M 604.530625 255.943281 
L 604.530625 22.390156 
" clip-path="url(#p8a69f793e4)" style="fill: none; stroke: #b0b0b0; stroke-opacity: 0.3; stroke-width: 0.8; stroke-linecap: square"/>
     </g>
     <g id="line2d_44">
      <g>
       <use xlink:href="#m1f50dd879f" x="604.530625" y="255.943281" style="stroke: #000000; stroke-width: 0.8"/>
      </g>
     </g>
     <g id="text_22">
      <!-- 4 -->
      <g transform="translate(601.598594 270.937031) scale(0.1 -0.1)">
       <use xlink:href="#MicrosoftYaHei-34"/>
      </g>
     </g>
    </g>
   </g>
   <g id="matplotlib.axis_4">
    <g id="ytick_9">
     <g id="line2d_45">
      <path d="M 342.990625 255.943281 
L 633.590625 255.943281 
" clip-path="url(#p8a69f793e4)" style="fill: none; stroke: #b0b0b0; stroke-opacity: 0.3; stroke-width: 0.8; stroke-linecap: square"/>
     </g>
     <g id="line2d_46">
      <g>
       <use xlink:href="#m8b822dfcc0" x="342.990625" y="255.943281" style="stroke: #000000; stroke-width: 0.8"/>
      </g>
     </g>
     <g id="text_23">
      <!-- -8 -->
      <g transform="translate(325.8 259.940156) scale(0.1 -0.1)">
       <defs>
        <path id="MicrosoftYaHei-38" d="M 306 1350 
Q 306 1769 556 2122 
Q 806 2475 1200 2625 
Q 884 2803 700 3081 
Q 516 3359 516 3684 
Q 516 4028 692 4312 
Q 869 4597 1183 4759 
Q 1497 4922 1875 4922 
Q 2256 4922 2572 4761 
Q 2888 4600 3063 4315 
Q 3238 4031 3238 3684 
Q 3238 3366 3058 3086 
Q 2878 2806 2559 2625 
Q 2953 2472 3200 2119 
Q 3447 1766 3447 1350 
Q 3447 938 3250 611 
Q 3053 284 2690 103 
Q 2328 -78 1875 -78 
Q 1425 -78 1065 103 
Q 706 284 506 612 
Q 306 941 306 1350 
z
M 906 1378 
Q 906 947 1172 687 
Q 1438 428 1878 428 
Q 2309 428 2582 692 
Q 2856 956 2856 1378 
Q 2856 1778 2579 2051 
Q 2303 2325 1878 2325 
Q 1456 2325 1181 2058 
Q 906 1791 906 1378 
z
M 1081 3634 
Q 1081 3309 1312 3076 
Q 1544 2844 1878 2844 
Q 2206 2844 2445 3078 
Q 2684 3313 2684 3634 
Q 2684 3963 2454 4191 
Q 2225 4419 1878 4419 
Q 1534 4419 1307 4195 
Q 1081 3972 1081 3634 
z
" transform="scale(0.015625)"/>
       </defs>
       <use xlink:href="#MicrosoftYaHei-2d"/>
       <use xlink:href="#MicrosoftYaHei-38" transform="translate(43.261719 0)"/>
      </g>
     </g>
    </g>
    <g id="ytick_10">
     <g id="line2d_47">
      <path d="M 342.990625 226.749141 
L 633.590625 226.749141 
" clip-path="url(#p8a69f793e4)" style="fill: none; stroke: #b0b0b0; stroke-opacity: 0.3; stroke-width: 0.8; stroke-linecap: square"/>
     </g>
     <g id="line2d_48">
      <g>
       <use xlink:href="#m8b822dfcc0" x="342.990625" y="226.749141" style="stroke: #000000; stroke-width: 0.8"/>
      </g>
     </g>
     <g id="text_24">
      <!-- -6 -->
      <g transform="translate(325.8 230.746016) scale(0.1 -0.1)">
       <defs>
        <path id="MicrosoftYaHei-36" d="M 3181 4219 
Q 2803 4413 2391 4413 
Q 1763 4413 1381 3866 
Q 1000 3319 994 2372 
L 1009 2372 
Q 1353 3038 2106 3038 
Q 2734 3038 3109 2628 
Q 3484 2219 3484 1541 
Q 3484 831 3051 375 
Q 2619 -81 1947 -81 
Q 1209 -81 789 495 
Q 369 1072 369 2131 
Q 369 3413 920 4167 
Q 1472 4922 2372 4922 
Q 2888 4922 3181 4781 
L 3181 4219 
z
M 1031 1584 
Q 1031 1106 1286 765 
Q 1541 425 1963 425 
Q 2363 425 2613 719 
Q 2863 1013 2863 1475 
Q 2863 1975 2627 2253 
Q 2391 2531 1956 2531 
Q 1544 2531 1287 2250 
Q 1031 1969 1031 1584 
z
" transform="scale(0.015625)"/>
       </defs>
       <use xlink:href="#MicrosoftYaHei-2d"/>
       <use xlink:href="#MicrosoftYaHei-36" transform="translate(43.261719 0)"/>
      </g>
     </g>
    </g>
    <g id="ytick_11">
     <g id="line2d_49">
      <path d="M 342.990625 197.555 
L 633.590625 197.555 
" clip-path="url(#p8a69f793e4)" style="fill: none; stroke: #b0b0b0; stroke-opacity: 0.3; stroke-width: 0.8; stroke-linecap: square"/>
     </g>
     <g id="line2d_50">
      <g>
       <use xlink:href="#m8b822dfcc0" x="342.990625" y="197.555" style="stroke: #000000; stroke-width: 0.8"/>
      </g>
     </g>
     <g id="text_25">
      <!-- -4 -->
      <g transform="translate(325.8 201.551875) scale(0.1 -0.1)">
       <use xlink:href="#MicrosoftYaHei-2d"/>
       <use xlink:href="#MicrosoftYaHei-34" transform="translate(43.261719 0)"/>
      </g>
     </g>
    </g>
    <g id="ytick_12">
     <g id="line2d_51">
      <path d="M 342.990625 168.360859 
L 633.590625 168.360859 
" clip-path="url(#p8a69f793e4)" style="fill: none; stroke: #b0b0b0; stroke-opacity: 0.3; stroke-width: 0.8; stroke-linecap: square"/>
     </g>
     <g id="line2d_52">
      <g>
       <use xlink:href="#m8b822dfcc0" x="342.990625" y="168.360859" style="stroke: #000000; stroke-width: 0.8"/>
      </g>
     </g>
     <g id="text_26">
      <!-- -2 -->
      <g transform="translate(325.8 172.357734) scale(0.1 -0.1)">
       <use xlink:href="#MicrosoftYaHei-2d"/>
       <use xlink:href="#MicrosoftYaHei-32" transform="translate(43.261719 0)"/>
      </g>
     </g>
    </g>
    <g id="ytick_13">
     <g id="line2d_53">
      <path d="M 342.990625 139.166719 
L 633.590625 139.166719 
" clip-path="url(#p8a69f793e4)" style="fill: none; stroke: #b0b0b0; stroke-opacity: 0.3; stroke-width: 0.8; stroke-linecap: square"/>
     </g>
     <g id="line2d_54">
      <g>
       <use xlink:href="#m8b822dfcc0" x="342.990625" y="139.166719" style="stroke: #000000; stroke-width: 0.8"/>
      </g>
     </g>
     <g id="text_27">
      <!-- 0 -->
      <g transform="translate(330.126563 143.163594) scale(0.1 -0.1)">
       <use xlink:href="#MicrosoftYaHei-30"/>
      </g>
     </g>
    </g>
    <g id="ytick_14">
     <g id="line2d_55">
      <path d="M 342.990625 109.972578 
L 633.590625 109.972578 
" clip-path="url(#p8a69f793e4)" style="fill: none; stroke: #b0b0b0; stroke-opacity: 0.3; stroke-width: 0.8; stroke-linecap: square"/>
     </g>
     <g id="line2d_56">
      <g>
       <use xlink:href="#m8b822dfcc0" x="342.990625" y="109.972578" style="stroke: #000000; stroke-width: 0.8"/>
      </g>
     </g>
     <g id="text_28">
      <!-- 2 -->
      <g transform="translate(330.126563 113.969453) scale(0.1 -0.1)">
       <use xlink:href="#MicrosoftYaHei-32"/>
      </g>
     </g>
    </g>
    <g id="ytick_15">
     <g id="line2d_57">
      <path d="M 342.990625 80.778437 
L 633.590625 80.778437 
" clip-path="url(#p8a69f793e4)" style="fill: none; stroke: #b0b0b0; stroke-opacity: 0.3; stroke-width: 0.8; stroke-linecap: square"/>
     </g>
     <g id="line2d_58">
      <g>
       <use xlink:href="#m8b822dfcc0" x="342.990625" y="80.778437" style="stroke: #000000; stroke-width: 0.8"/>
      </g>
     </g>
     <g id="text_29">
      <!-- 4 -->
      <g transform="translate(330.126563 84.775312) scale(0.1 -0.1)">
       <use xlink:href="#MicrosoftYaHei-34"/>
      </g>
     </g>
    </g>
    <g id="ytick_16">
     <g id="line2d_59">
      <path d="M 342.990625 51.584297 
L 633.590625 51.584297 
" clip-path="url(#p8a69f793e4)" style="fill: none; stroke: #b0b0b0; stroke-opacity: 0.3; stroke-width: 0.8; stroke-linecap: square"/>
     </g>
     <g id="line2d_60">
      <g>
       <use xlink:href="#m8b822dfcc0" x="342.990625" y="51.584297" style="stroke: #000000; stroke-width: 0.8"/>
      </g>
     </g>
     <g id="text_30">
      <!-- 6 -->
      <g transform="translate(330.126563 55.581172) scale(0.1 -0.1)">
       <use xlink:href="#MicrosoftYaHei-36"/>
      </g>
     </g>
    </g>
    <g id="ytick_17">
     <g id="line2d_61">
      <path d="M 342.990625 22.390156 
L 633.590625 22.390156 
" clip-path="url(#p8a69f793e4)" style="fill: none; stroke: #b0b0b0; stroke-opacity: 0.3; stroke-width: 0.8; stroke-linecap: square"/>
     </g>
     <g id="line2d_62">
      <g>
       <use xlink:href="#m8b822dfcc0" x="342.990625" y="22.390156" style="stroke: #000000; stroke-width: 0.8"/>
      </g>
     </g>
     <g id="text_31">
      <!-- 8 -->
      <g transform="translate(330.126563 26.387031) scale(0.1 -0.1)">
       <use xlink:href="#MicrosoftYaHei-38"/>
      </g>
     </g>
    </g>
   </g>
   <g id="line2d_63">
    <path d="M 506.462521 -1 
L 506.665938 0.657777 
L 508.045554 10.330764 
L 509.42517 18.740889 
L 510.804787 26.120307 
L 512.184403 32.647557 
L 513.564019 38.462192 
L 514.943635 43.674871 
L 516.323251 48.37447 
L 517.702867 52.633188 
L 519.082484 56.510286 
L 520.4621 60.05486 
L 521.841716 63.307928 
L 523.221332 66.304032 
L 524.600948 69.07246 
L 525.980564 71.638216 
L 527.360181 74.022769 
L 528.739797 76.244659 
L 530.119413 78.319984 
L 531.499029 80.26278 
L 532.878645 82.085351 
L 534.258261 83.798521 
L 535.637878 85.411853 
L 537.017494 86.933829 
L 538.39711 88.371993 
L 539.776726 89.733083 
L 541.156342 91.023133 
L 542.535958 92.247564 
L 543.915574 93.411258 
L 545.295191 94.518625 
L 546.674807 95.573658 
L 548.054423 96.579981 
L 549.434039 97.540892 
L 550.813655 98.459396 
L 552.193271 99.33824 
L 553.572888 100.179939 
L 554.952504 100.986799 
L 556.33212 101.760939 
L 557.711736 102.50431 
L 559.091352 103.21871 
L 560.470968 103.905801 
L 561.850585 104.567119 
L 563.230201 105.204087 
L 564.609817 105.818027 
L 565.989433 106.410165 
L 567.369049 106.981642 
L 568.748665 107.53352 
L 570.128282 108.066791 
L 571.507898 108.582381 
L 572.887514 109.081154 
L 574.26713 109.56392 
L 575.646746 110.031437 
L 577.026362 110.484417 
L 578.405979 110.923527 
L 579.785595 111.349395 
L 581.165211 111.762611 
L 582.544827 112.16373 
L 583.924443 112.553276 
L 585.304059 112.931742 
L 586.683676 113.299595 
L 588.063292 113.657275 
L 589.442908 114.005199 
L 590.822524 114.343759 
L 592.20214 114.67333 
L 593.581756 114.994263 
L 594.961372 115.306896 
L 596.340989 115.611544 
L 597.720605 115.908511 
L 599.100221 116.198084 
L 600.479837 116.480534 
L 601.859453 116.756122 
L 603.239069 117.025095 
L 604.618686 117.287688 
L 605.998302 117.544126 
L 607.377918 117.794622 
L 608.757534 118.03938 
L 610.13715 118.278596 
L 611.516766 118.512455 
L 612.896383 118.741136 
L 614.275999 118.964809 
L 615.655615 119.183636 
L 617.035231 119.397773 
L 618.414847 119.607369 
L 619.794463 119.812567 
L 621.17408 120.013505 
L 622.553696 120.210313 
L 623.933312 120.403118 
L 625.312928 120.592041 
L 626.692544 120.777196 
L 628.07216 120.958697 
L 629.451777 121.136651 
L 630.831393 121.311159 
L 632.211009 121.482322 
L 633.590625 121.650234 
" clip-path="url(#p8a69f793e4)" style="fill: none; stroke: #c0392b; stroke-width: 2; stroke-linecap: square"/>
   </g>
   <g id="line2d_64">
    <path d="M 470.399665 281.622969 
L 469.915312 277.675661 
L 468.535696 268.002674 
L 467.15608 259.592549 
L 465.776463 252.21313 
L 464.396847 245.68588 
L 463.017231 239.871246 
L 461.637615 234.658566 
L 460.257999 229.958968 
L 458.878383 225.700249 
L 457.498766 221.823151 
L 456.11915 218.278578 
L 454.739534 215.025509 
L 453.359918 212.029406 
L 451.980302 209.260977 
L 450.600686 206.695222 
L 449.221069 204.310669 
L 447.841453 202.088778 
L 446.461837 200.013454 
L 445.082221 198.070657 
L 443.702605 196.248087 
L 442.322989 194.534916 
L 440.943372 192.921584 
L 439.563756 191.399609 
L 438.18414 189.961445 
L 436.804524 188.600355 
L 435.424908 187.310304 
L 434.045292 186.085873 
L 432.665676 184.922179 
L 431.286059 183.814812 
L 429.906443 182.759779 
L 428.526827 181.753456 
L 427.147211 180.792546 
L 425.767595 179.874042 
L 424.387979 178.995197 
L 423.008362 178.153498 
L 421.628746 177.346638 
L 420.24913 176.572499 
L 418.869514 175.829128 
L 417.489898 175.114728 
L 416.110282 174.427637 
L 414.730665 173.766319 
L 413.351049 173.12935 
L 411.971433 172.51541 
L 410.591817 171.923272 
L 409.212201 171.351796 
L 407.832585 170.799917 
L 406.452968 170.266646 
L 405.073352 169.751057 
L 403.693736 169.252284 
L 402.31412 168.769518 
L 400.934504 168.302 
L 399.554888 167.84902 
L 398.175271 167.40991 
L 396.795655 166.984042 
L 395.416039 166.570827 
L 394.036423 166.169708 
L 392.656807 165.780162 
L 391.277191 165.401695 
L 389.897574 165.033842 
L 388.517958 164.676162 
L 387.138342 164.328239 
L 385.758726 163.989678 
L 384.37911 163.660108 
L 382.999494 163.339174 
L 381.619878 163.026542 
L 380.240261 162.721893 
L 378.860645 162.424926 
L 377.481029 162.135354 
L 376.101413 161.852903 
L 374.721797 161.577315 
L 373.342181 161.308342 
L 371.962564 161.045749 
L 370.582948 160.789312 
L 369.203332 160.538816 
L 367.823716 160.294057 
L 366.4441 160.054842 
L 365.064484 159.820982 
L 363.684867 159.592301 
L 362.305251 159.368629 
L 360.925635 159.149802 
L 359.546019 158.935665 
L 358.166403 158.726069 
L 356.786787 158.52087 
L 355.40717 158.319932 
L 354.027554 158.123124 
L 352.647938 157.930319 
L 351.268322 157.741397 
L 349.888706 157.556241 
L 348.50909 157.37474 
L 347.129473 157.196787 
L 345.749857 157.022278 
L 344.370241 156.851116 
L 342.990625 156.683203 
" clip-path="url(#p8a69f793e4)" style="fill: none; stroke: #3498db; stroke-width: 2; stroke-linecap: square"/>
   </g>
   <g id="line2d_65">
    <path d="M 342.990625 139.166719 
L 633.590625 139.166719 
" clip-path="url(#p8a69f793e4)" style="fill: none; stroke: #999999; stroke-width: 0.8; stroke-linecap: square"/>
   </g>
   <g id="line2d_66">
    <path d="M 488.290625 255.943281 
L 488.290625 22.390156 
" clip-path="url(#p8a69f793e4)" style="fill: none; stroke: #999999; stroke-width: 0.8; stroke-linecap: square"/>
   </g>
   <g id="patch_9">
    <path d="M 342.990625 255.943281 
L 342.990625 22.390156 
" style="fill: none; stroke: #000000; stroke-width: 0.8; stroke-linejoin: miter; stroke-linecap: square"/>
   </g>
   <g id="patch_10">
    <path d="M 633.590625 255.943281 
L 633.590625 22.390156 
" style="fill: none; stroke: #000000; stroke-width: 0.8; stroke-linejoin: miter; stroke-linecap: square"/>
   </g>
   <g id="patch_11">
    <path d="M 342.990625 255.943281 
L 633.590625 255.943281 
" style="fill: none; stroke: #000000; stroke-width: 0.8; stroke-linejoin: miter; stroke-linecap: square"/>
   </g>
   <g id="patch_12">
    <path d="M 342.990625 22.390156 
L 633.590625 22.390156 
" style="fill: none; stroke: #000000; stroke-width: 0.8; stroke-linejoin: miter; stroke-linecap: square"/>
   </g>
   <g id="text_32">
    <!-- 反比例函数 y=k/x -->
    <g transform="translate(442.711094 16.390156) scale(0.11 -0.11)">
     <defs>
      <path id="MicrosoftYaHei-Bold-53cd" d="M 5938 3409 
L 5938 2634 
Q 5431 1544 4578 734 
Q 5350 238 6306 -28 
Q 6219 -147 5750 -872 
Q 4688 -509 3841 134 
Q 2975 -469 1850 -866 
Q 1650 -516 1344 -53 
Q 2378 281 3138 756 
Q 2538 1372 2075 2172 
L 2756 2597 
Q 3228 1853 3856 1288 
Q 4519 1872 4869 2616 
L 1731 2616 
L 1731 2422 
Q 1731 178 813 -853 
Q 575 -591 81 -222 
Q 844 847 844 2484 
L 844 4903 
Q 3588 4972 5738 5259 
L 6031 4447 
Q 4375 4234 1731 4109 
L 1731 3409 
L 5938 3409 
z
" transform="scale(0.015625)"/>
      <path id="MicrosoftYaHei-Bold-6bd4" d="M 5481 4441 
L 6294 3803 
Q 5234 2791 4119 1894 
L 4119 547 
Q 4119 153 4438 153 
L 4875 153 
Q 5119 153 5197 325 
Q 5275 497 5363 1597 
Q 5856 1409 6294 1278 
Q 6231 688 6131 248 
Q 6031 -191 5900 -358 
Q 5769 -525 5511 -617 
Q 5253 -709 4881 -709 
L 4094 -709 
Q 3194 -709 3194 247 
L 3194 5316 
L 4119 5316 
L 4119 3009 
Q 4797 3656 5481 4441 
z
M 1419 5241 
L 1419 3453 
L 2850 3453 
L 2850 2591 
L 1419 2591 
L 1419 372 
L 2869 866 
Q 2856 372 2888 -78 
Q 1500 -503 725 -922 
L 275 -184 
Q 494 -16 494 366 
L 494 5241 
L 1419 5241 
z
" transform="scale(0.015625)"/>
      <path id="MicrosoftYaHei-Bold-4f8b" d="M 1025 5303 
L 1756 5159 
Q 1619 4544 1431 3950 
L 1431 -803 
L 700 -803 
L 700 2103 
Q 513 1713 300 1334 
Q 250 1722 100 2497 
Q 731 3853 1025 5303 
z
M 5275 5234 
L 6056 5234 
L 6056 184 
Q 6056 -244 5868 -472 
Q 5681 -700 5342 -731 
Q 5003 -763 4381 -747 
Q 4338 -391 4225 116 
Q 4706 84 4963 84 
Q 5275 84 5275 484 
L 5275 5234 
z
M 1788 5022 
L 3975 5022 
L 3975 4259 
L 2922 4259 
Q 2878 3944 2813 3647 
L 3938 3647 
Q 3938 428 2131 -822 
Q 1888 -534 1519 -197 
Q 2294 338 2703 1131 
Q 2425 1422 2106 1688 
Q 1991 1475 1856 1284 
Q 1700 1628 1463 2059 
Q 2006 3003 2156 4259 
L 1788 4259 
L 1788 5022 
z
M 3003 1909 
Q 3125 2366 3156 2891 
L 2622 2891 
Q 2534 2613 2428 2353 
Q 2722 2134 3003 1909 
z
M 4194 4766 
L 4894 4766 
L 4894 572 
L 4194 572 
L 4194 4766 
z
" transform="scale(0.015625)"/>
      <path id="MicrosoftYaHei-Bold-20" transform="scale(0.015625)"/>
      <path id="MicrosoftYaHei-Bold-79" d="M 3691 3456 
L 2266 -309 
Q 1769 -1622 778 -1622 
Q 388 -1622 172 -1541 
L 172 -731 
Q 375 -847 619 -847 
Q 1031 -847 1200 -447 
L 1391 6 
L -6 3456 
L 1113 3456 
L 1788 1291 
Q 1850 1094 1878 850 
L 1897 850 
Q 1919 1016 2000 1284 
L 2691 3456 
L 3691 3456 
z
" transform="scale(0.015625)"/>
      <path id="MicrosoftYaHei-Bold-3d" d="M 4072 2378 
L 797 2378 
L 797 3041 
L 4072 3041 
L 4072 2378 
z
M 4072 916 
L 797 916 
L 797 1578 
L 4072 1578 
L 4072 916 
z
" transform="scale(0.015625)"/>
      <path id="MicrosoftYaHei-Bold-6b" d="M 3856 0 
L 2631 0 
L 1481 1709 
L 1469 1709 
L 1469 0 
L 459 0 
L 459 5116 
L 1469 5116 
L 1469 1859 
L 1481 1859 
L 2559 3456 
L 3763 3456 
L 2481 1825 
L 3856 0 
z
" transform="scale(0.015625)"/>
      <path id="MicrosoftYaHei-Bold-2f" d="M 3100 4841 
L 747 -803 
L -156 -803 
L 2188 4841 
L 3100 4841 
z
" transform="scale(0.015625)"/>
      <path id="MicrosoftYaHei-Bold-78" d="M 3706 3456 
L 2563 1772 
L 3697 0 
L 2531 0 
L 2016 953 
Q 1909 1150 1869 1263 
L 1856 1263 
Q 1800 1113 1716 963 
L 1191 0 
L 31 0 
L 1200 1719 
L 100 3456 
L 1269 3456 
L 1781 2463 
Q 1856 2319 1922 2144 
L 1934 2144 
Q 1966 2250 2078 2466 
L 2606 3456 
L 3706 3456 
z
" transform="scale(0.015625)"/>
     </defs>
     <use xlink:href="#MicrosoftYaHei-Bold-53cd"/>
     <use xlink:href="#MicrosoftYaHei-Bold-6bd4" transform="translate(100 0)"/>
     <use xlink:href="#MicrosoftYaHei-Bold-4f8b" transform="translate(200 0)"/>
     <use xlink:href="#MicrosoftYaHei-Bold-51fd" transform="translate(300 0)"/>
     <use xlink:href="#MicrosoftYaHei-Bold-6570" transform="translate(400 0)"/>
     <use xlink:href="#MicrosoftYaHei-Bold-20" transform="translate(500 0)"/>
     <use xlink:href="#MicrosoftYaHei-Bold-79" transform="translate(529.785156 0)"/>
     <use xlink:href="#MicrosoftYaHei-Bold-3d" transform="translate(587.207031 0)"/>
     <use xlink:href="#MicrosoftYaHei-Bold-6b" transform="translate(663.330078 0)"/>
     <use xlink:href="#MicrosoftYaHei-Bold-2f" transform="translate(722.949219 0)"/>
     <use xlink:href="#MicrosoftYaHei-Bold-78" transform="translate(770.214844 0)"/>
    </g>
   </g>
   <g id="legend_2">
    <g id="patch_13">
     <path d="M 542.848125 57.557656 
L 627.290625 57.557656 
Q 629.090625 57.557656 629.090625 55.757656 
L 629.090625 28.690156 
Q 629.090625 26.890156 627.290625 26.890156 
L 542.848125 26.890156 
Q 541.048125 26.890156 541.048125 28.690156 
L 541.048125 55.757656 
Q 541.048125 57.557656 542.848125 57.557656 
z
" style="fill: #ffffff; opacity: 0.8; stroke: #cccccc; stroke-linejoin: miter"/>
    </g>
    <g id="line2d_67">
     <path d="M 544.648125 34.534531 
L 553.648125 34.534531 
L 562.648125 34.534531 
" style="fill: none; stroke: #c0392b; stroke-width: 2; stroke-linecap: square"/>
    </g>
    <g id="text_33">
     <!-- y = 6/x (x&gt;0) -->
     <g transform="translate(569.848125 37.684531) scale(0.09 -0.09)">
      <defs>
       <path id="MicrosoftYaHei-2f" d="M 2791 4841 
L 469 -803 
L -103 -803 
L 2219 4841 
L 2791 4841 
z
" transform="scale(0.015625)"/>
       <path id="MicrosoftYaHei-28" d="M 1531 -1100 
Q 478 100 478 1847 
Q 478 3594 1531 4841 
L 2072 4841 
Q 1016 3544 1016 1853 
Q 1016 166 2066 -1100 
L 1531 -1100 
z
" transform="scale(0.015625)"/>
       <path id="MicrosoftYaHei-3e" d="M 3844 1866 
L 913 409 
L 913 947 
L 3094 1981 
L 3094 2003 
L 913 3175 
L 913 3716 
L 3844 2103 
L 3844 1866 
z
" transform="scale(0.015625)"/>
       <path id="MicrosoftYaHei-29" d="M 78 -1100 
Q 1131 163 1131 1853 
Q 1131 3547 72 4841 
L 616 4841 
Q 1672 3603 1672 1847 
Q 1672 91 616 -1100 
L 78 -1100 
z
" transform="scale(0.015625)"/>
      </defs>
      <use xlink:href="#MicrosoftYaHei-79"/>
      <use xlink:href="#MicrosoftYaHei-20" transform="translate(52.929688 0)"/>
      <use xlink:href="#MicrosoftYaHei-3d" transform="translate(82.519531 0)"/>
      <use xlink:href="#MicrosoftYaHei-20" transform="translate(156.689453 0)"/>
      <use xlink:href="#MicrosoftYaHei-36" transform="translate(186.279297 0)"/>
      <use xlink:href="#MicrosoftYaHei-2f" transform="translate(244.921875 0)"/>
      <use xlink:href="#MicrosoftYaHei-78" transform="translate(287.646484 0)"/>
      <use xlink:href="#MicrosoftYaHei-20" transform="translate(338.330078 0)"/>
      <use xlink:href="#MicrosoftYaHei-28" transform="translate(367.919922 0)"/>
      <use xlink:href="#MicrosoftYaHei-78" transform="translate(401.318359 0)"/>
      <use xlink:href="#MicrosoftYaHei-3e" transform="translate(452.001953 0)"/>
      <use xlink:href="#MicrosoftYaHei-30" transform="translate(526.171875 0)"/>
      <use xlink:href="#MicrosoftYaHei-29" transform="translate(584.814453 0)"/>
     </g>
    </g>
    <g id="line2d_68">
     <path d="M 544.648125 48.518281 
L 553.648125 48.518281 
L 562.648125 48.518281 
" style="fill: none; stroke: #3498db; stroke-width: 2; stroke-linecap: square"/>
    </g>
    <g id="text_34">
     <!-- y = 6/x (x&lt;0) -->
     <g transform="translate(569.848125 51.668281) scale(0.09 -0.09)">
      <defs>
       <path id="MicrosoftYaHei-3c" d="M 3844 403 
L 913 1859 
L 913 2097 
L 3844 3713 
L 3844 3172 
L 1666 2000 
L 1666 1984 
L 3844 941 
L 3844 403 
z
" transform="scale(0.015625)"/>
      </defs>
      <use xlink:href="#MicrosoftYaHei-79"/>
      <use xlink:href="#MicrosoftYaHei-20" transform="translate(52.929688 0)"/>
      <use xlink:href="#MicrosoftYaHei-3d" transform="translate(82.519531 0)"/>
      <use xlink:href="#MicrosoftYaHei-20" transform="translate(156.689453 0)"/>
      <use xlink:href="#MicrosoftYaHei-36" transform="translate(186.279297 0)"/>
      <use xlink:href="#MicrosoftYaHei-2f" transform="translate(244.921875 0)"/>
      <use xlink:href="#MicrosoftYaHei-78" transform="translate(287.646484 0)"/>
      <use xlink:href="#MicrosoftYaHei-20" transform="translate(338.330078 0)"/>
      <use xlink:href="#MicrosoftYaHei-28" transform="translate(367.919922 0)"/>
      <use xlink:href="#MicrosoftYaHei-78" transform="translate(401.318359 0)"/>
      <use xlink:href="#MicrosoftYaHei-3c" transform="translate(452.001953 0)"/>
      <use xlink:href="#MicrosoftYaHei-30" transform="translate(526.171875 0)"/>
      <use xlink:href="#MicrosoftYaHei-29" transform="translate(584.814453 0)"/>
     </g>
    </g>
   </g>
  </g>
 </g>
 <defs>
  <clipPath id="p0823d1a312">
   <rect x="24.390625" y="22.390156" width="290.6" height="233.553125"/>
  </clipPath>
  <clipPath id="p8a69f793e4">
   <rect x="342.990625" y="22.390156" width="290.6" height="233.553125"/>
  </clipPath>
 </defs>
</svg>
