<?xml version="1.0" encoding="utf-8" standalone="no"?>
<!DOCTYPE svg PUBLIC "-//W3C//DTD SVG 1.1//EN"
  "http://www.w3.org/Graphics/SVG/1.1/DTD/svg11.dtd">
<svg xmlns:xlink="http://www.w3.org/1999/xlink" width="424.8pt" height="280.7925pt" viewBox="0 0 424.8 280.7925" xmlns="http://www.w3.org/2000/svg" version="1.1">
 <metadata>
  <rdf:RDF xmlns:dc="http://purl.org/dc/elements/1.1/" xmlns:cc="http://creativecommons.org/ns#" xmlns:rdf="http://www.w3.org/1999/02/22-rdf-syntax-ns#">
   <cc:Work>
    <dc:type rdf:resource="http://purl.org/dc/dcmitype/StillImage"/>
    <dc:date>2026-05-22T15:08:59.378558</dc:date>
    <dc:format>image/svg+xml</dc:format>
    <dc:creator>
     <cc:Agent>
      <dc:title>Matplotlib v3.10.9, https://matplotlib.org/</dc:title>
     </cc:Agent>
    </dc:creator>
   </cc:Work>
  </rdf:RDF>
 </metadata>
 <defs>
  <style type="text/css">*{stroke-linejoin: round; stroke-linecap: butt}</style>
 </defs>
 <g id="figure_1">
  <g id="patch_1">
   <path d="M 0 280.7925 
L 424.8 280.7925 
L 424.8 0 
L 0 0 
L 0 280.7925 
z
" style="fill: none"/>
  </g>
  <g id="axes_1">
   <g id="line2d_1">
    <defs>
     <path id="m1329d61ca5" d="M 0 5 
C 1.326016 5 2.597899 4.473168 3.535534 3.535534 
C 4.473168 2.597899 5 1.326016 5 0 
C 5 -1.326016 4.473168 -2.597899 3.535534 -3.535534 
C 2.597899 -4.473168 1.326016 -5 0 -5 
C -1.326016 -5 -2.597899 -4.473168 -3.535534 -3.535534 
C -4.473168 -2.597899 -5 -1.326016 -5 0 
C -5 1.326016 -4.473168 2.597899 -3.535534 3.535534 
C -2.597899 4.473168 -1.326016 5 0 5 
z
" style="stroke: #c0392b"/>
    </defs>
    <g clip-path="url(#p94e6a73c0d)">
     <use xlink:href="#m1329d61ca5" x="41.4" y="85.4925" style="fill: #c0392b; stroke: #c0392b"/>
    </g>
   </g>
   <g id="line2d_2">
    <path d="M 41.4 85.4925 
L 144 116.8425 
" clip-path="url(#p94e6a73c0d)" style="fill: none; stroke: #000000; stroke-width: 1.5; stroke-linecap: square"/>
   </g>
   <g id="line2d_3">
    <defs>
     <path id="m1e2a9b63a7" d="M 0 4 
C 1.060812 4 2.078319 3.578535 2.828427 2.828427 
C 3.578535 2.078319 4 1.060812 4 0 
C 4 -1.060812 3.578535 -2.078319 2.828427 -2.828427 
C 2.078319 -3.578535 1.060812 -4 0 -4 
C -1.060812 -4 -2.078319 -3.578535 -2.828427 -2.828427 
C -3.578535 -2.078319 -4 -1.060812 -4 0 
C -4 1.060812 -3.578535 2.078319 -2.828427 2.828427 
C -2.078319 3.578535 -1.060812 4 0 4 
z
" style="stroke: #3498db"/>
    </defs>
    <g clip-path="url(#p94e6a73c0d)">
     <use xlink:href="#m1e2a9b63a7" x="144" y="116.8425" style="fill: #3498db; stroke: #3498db"/>
    </g>
   </g>
   <g id="line2d_4">
    <path d="M 144 116.8425 
L 280.8 94.8975 
" clip-path="url(#p94e6a73c0d)" style="fill: none; stroke: #000000; stroke-width: 1.2; stroke-linecap: square"/>
   </g>
   <g id="line2d_5">
    <defs>
     <path id="me6172f7d31" d="M 0 3 
C 0.795609 3 1.55874 2.683901 2.12132 2.12132 
C 2.683901 1.55874 3 0.795609 3 0 
C 3 -0.795609 2.683901 -1.55874 2.12132 -2.12132 
C 1.55874 -2.683901 0.795609 -3 0 -3 
C -0.795609 -3 -1.55874 -2.683901 -2.12132 -2.12132 
C -2.683901 -1.55874 -3 -0.795609 -3 0 
C -3 0.795609 -2.683901 1.55874 -2.12132 2.12132 
C -1.55874 2.683901 -0.795609 3 0 3 
z
" style="stroke: #3498db"/>
    </defs>
    <g clip-path="url(#p94e6a73c0d)">
     <use xlink:href="#me6172f7d31" x="280.8" y="94.8975" style="fill: #3498db; stroke: #3498db"/>
    </g>
   </g>
   <g id="line2d_6">
    <path d="M 144 116.8425 
L 280.8 138.7875 
" clip-path="url(#p94e6a73c0d)" style="fill: none; stroke: #000000; stroke-width: 1.2; stroke-linecap: square"/>
   </g>
   <g id="line2d_7">
    <defs>
     <path id="mcff6411586" d="M 0 3 
C 0.795609 3 1.55874 2.683901 2.12132 2.12132 
C 2.683901 1.55874 3 0.795609 3 0 
C 3 -0.795609 2.683901 -1.55874 2.12132 -2.12132 
C 1.55874 -2.683901 0.795609 -3 0 -3 
C -0.795609 -3 -1.55874 -2.683901 -2.12132 -2.12132 
C -2.683901 -1.55874 -3 -0.795609 -3 0 
C -3 0.795609 -2.683901 1.55874 -2.12132 2.12132 
C -1.55874 2.683901 -0.795609 3 0 3 
z
" style="stroke: #2ecc71"/>
    </defs>
    <g clip-path="url(#p94e6a73c0d)">
     <use xlink:href="#mcff6411586" x="280.8" y="138.7875" style="fill: #2ecc71; stroke: #2ecc71"/>
    </g>
   </g>
   <g id="line2d_8">
    <path d="M 41.4 85.4925 
L 144 179.5425 
" clip-path="url(#p94e6a73c0d)" style="fill: none; stroke: #000000; stroke-width: 1.5; stroke-linecap: square"/>
   </g>
   <g id="line2d_9">
    <defs>
     <path id="m4e684134c8" d="M 0 4 
C 1.060812 4 2.078319 3.578535 2.828427 2.828427 
C 3.578535 2.078319 4 1.060812 4 0 
C 4 -1.060812 3.578535 -2.078319 2.828427 -2.828427 
C 2.078319 -3.578535 1.060812 -4 0 -4 
C -1.060812 -4 -2.078319 -3.578535 -2.828427 -2.828427 
C -3.578535 -2.078319 -4 -1.060812 -4 0 
C -4 1.060812 -3.578535 2.078319 -2.828427 2.828427 
C -2.078319 3.578535 -1.060812 4 0 4 
z
" style="stroke: #2ecc71"/>
    </defs>
    <g clip-path="url(#p94e6a73c0d)">
     <use xlink:href="#m4e684134c8" x="144" y="179.5425" style="fill: #2ecc71; stroke: #2ecc71"/>
    </g>
   </g>
   <g id="line2d_10">
    <path d="M 144 179.5425 
L 280.8 157.5975 
" clip-path="url(#p94e6a73c0d)" style="fill: none; stroke: #000000; stroke-width: 1.2; stroke-linecap: square"/>
   </g>
   <g id="line2d_11">
    <g clip-path="url(#p94e6a73c0d)">
     <use xlink:href="#me6172f7d31" x="280.8" y="157.5975" style="fill: #3498db; stroke: #3498db"/>
    </g>
   </g>
   <g id="line2d_12">
    <path d="M 144 179.5425 
L 280.8 201.4875 
" clip-path="url(#p94e6a73c0d)" style="fill: none; stroke: #000000; stroke-width: 1.2; stroke-linecap: square"/>
   </g>
   <g id="line2d_13">
    <g clip-path="url(#p94e6a73c0d)">
     <use xlink:href="#mcff6411586" x="280.8" y="201.4875" style="fill: #2ecc71; stroke: #2ecc71"/>
    </g>
   </g>
   <g id="text_1">
    <!-- 开始 -->
    <g style="fill: #c0392b" transform="translate(31.4 72.9525) scale(0.1 -0.1)">
     <defs>
      <path id="MicrosoftYaHei-Bold-5f00" d="M 119 2622 
L 1569 2622 
L 1569 4153 
L 463 4153 
L 463 4966 
L 6044 4966 
L 6044 4153 
L 5038 4153 
L 5038 2622 
L 6306 2622 
L 6306 1809 
L 5038 1809 
L 5038 -753 
L 4131 -753 
L 4131 1809 
L 2456 1809 
Q 2394 672 2030 101 
Q 1666 -469 919 -878 
Q 569 -572 131 -241 
Q 709 69 1092 500 
Q 1475 931 1534 1809 
L 119 1809 
L 119 2622 
z
M 2475 2622 
L 4131 2622 
L 4131 4153 
L 2475 4153 
L 2475 2622 
z
" transform="scale(0.015625)"/>
      <path id="MicrosoftYaHei-Bold-59cb" d="M 2863 -853 
L 2863 356 
L 2256 -291 
Q 2000 -25 1744 225 
Q 1309 -381 638 -847 
Q 350 -466 69 -153 
Q 706 259 1119 816 
Q 669 1228 225 1597 
Q 441 2363 616 3359 
L 119 3359 
L 119 4134 
L 741 4134 
Q 825 4706 900 5347 
L 1731 5259 
L 1550 4134 
L 2669 4134 
Q 2663 3728 2638 3363 
Q 3213 3972 3875 5359 
L 4800 5097 
Q 4225 4159 3594 3378 
Q 4328 3422 5075 3484 
Q 4847 3944 4619 4359 
L 5294 4634 
Q 5831 3747 6369 2659 
L 5613 2341 
L 5391 2828 
Q 3522 2697 2863 2578 
L 2625 3169 
Q 2519 1791 2156 953 
L 2863 394 
L 2863 2116 
L 5981 2116 
L 5981 -828 
L 5144 -828 
L 5144 -472 
L 3700 -472 
L 3700 -853 
L 2863 -853 
z
M 1088 1797 
L 1503 1469 
Q 1809 2241 1863 3359 
L 1413 3359 
Q 1259 2541 1088 1797 
z
M 5144 1328 
L 3700 1328 
L 3700 316 
L 5144 316 
L 5144 1328 
z
" transform="scale(0.015625)"/>
     </defs>
     <use xlink:href="#MicrosoftYaHei-Bold-5f00"/>
     <use xlink:href="#MicrosoftYaHei-Bold-59cb" transform="translate(100 0)"/>
    </g>
   </g>
   <g id="text_2">
    <!-- 正面 ½ -->
    <g style="fill: #3498db" transform="translate(128.990391 104.3025) scale(0.09 -0.09)">
     <defs>
      <path id="MicrosoftYaHei-Bold-6b63" d="M 138 303 
L 1050 303 
L 1050 3397 
L 1975 3397 
L 1975 303 
L 3056 303 
L 3056 4078 
L 388 4078 
L 388 4934 
L 6056 4934 
L 6056 4078 
L 4000 4078 
L 4000 2709 
L 5838 2709 
L 5838 1859 
L 4000 1859 
L 4000 303 
L 6263 303 
L 6263 -553 
L 138 -553 
L 138 303 
z
" transform="scale(0.015625)"/>
      <path id="MicrosoftYaHei-Bold-9762" d="M 181 4997 
L 6213 4997 
L 6213 4297 
L 3553 4297 
Q 3400 3950 3269 3678 
L 5881 3678 
L 5881 -828 
L 5081 -828 
L 5081 -503 
L 1319 -503 
L 1319 -828 
L 519 -828 
L 519 3678 
L 2272 3678 
Q 2388 3969 2500 4297 
L 181 4297 
L 181 4997 
z
M 5081 2984 
L 4500 2984 
L 4500 191 
L 5081 191 
L 5081 2984 
z
M 1319 191 
L 1869 191 
L 1869 2984 
L 1319 2984 
L 1319 191 
z
M 2656 2478 
L 3713 2478 
L 3713 2984 
L 2656 2984 
L 2656 2478 
z
M 2656 1341 
L 3713 1341 
L 3713 1847 
L 2656 1847 
L 2656 1341 
z
M 2656 191 
L 3713 191 
L 3713 709 
L 2656 709 
L 2656 191 
z
" transform="scale(0.015625)"/>
      <path id="MicrosoftYaHei-Bold-20" transform="scale(0.015625)"/>
      <path id="MicrosoftYaHei-Bold-bd" d="M 2267 1972 
L 389 1972 
L 389 2528 
L 986 2528 
L 986 4184 
L 339 4038 
L 339 4628 
L 1680 4906 
L 1680 2528 
L 2267 2528 
L 2267 1972 
z
M 5117 4841 
L 2123 0 
L 1339 0 
L 4333 4841 
L 5117 4841 
z
M 5949 -12 
L 3927 -12 
L 3927 500 
L 4761 1291 
Q 5033 1547 5098 1675 
Q 5164 1804 5164 1966 
Q 5164 2116 5065 2211 
Q 4967 2307 4802 2307 
Q 4461 2307 4086 1960 
L 4086 2660 
Q 4470 2922 4924 2922 
Q 5374 2922 5641 2692 
Q 5908 2463 5908 2060 
Q 5908 1754 5766 1535 
Q 5624 1316 5177 916 
L 4802 579 
L 4802 566 
L 5949 566 
L 5949 -12 
z
" transform="scale(0.015625)"/>
     </defs>
     <use xlink:href="#MicrosoftYaHei-Bold-6b63"/>
     <use xlink:href="#MicrosoftYaHei-Bold-9762" transform="translate(100 0)"/>
     <use xlink:href="#MicrosoftYaHei-Bold-20" transform="translate(200 0)"/>
     <use xlink:href="#MicrosoftYaHei-Bold-bd" transform="translate(229.785156 0)"/>
    </g>
   </g>
   <g id="text_3">
    <!-- 正面 -->
    <g transform="translate(301.32 97.100625) scale(0.08 -0.08)">
     <defs>
      <path id="MicrosoftYaHei-6b63" d="M 88 66 
L 1106 66 
L 1106 3416 
L 1644 3416 
L 1644 66 
L 3231 66 
L 3231 4309 
L 375 4309 
L 375 4797 
L 6063 4797 
L 6063 4309 
L 3769 4309 
L 3769 2672 
L 5850 2672 
L 5850 2191 
L 3769 2191 
L 3769 66 
L 6313 66 
L 6313 -422 
L 88 -422 
L 88 66 
z
" transform="scale(0.015625)"/>
      <path id="MicrosoftYaHei-9762" d="M 519 3659 
L 2500 3659 
Q 2681 4134 2794 4484 
L 188 4484 
L 188 4947 
L 6200 4947 
L 6200 4484 
L 3353 4484 
Q 3216 4144 3009 3659 
L 5850 3659 
L 5850 -809 
L 5369 -809 
L 5369 -459 
L 1000 -459 
L 1000 -816 
L 519 -816 
L 519 3659 
z
M 5369 3247 
L 4363 3247 
L 4363 -47 
L 5369 -47 
L 5369 3247 
z
M 1000 -47 
L 2006 -47 
L 2006 3247 
L 1000 3247 
L 1000 -47 
z
M 2456 -47 
L 3913 -47 
L 3913 784 
L 2456 784 
L 2456 -47 
z
M 2456 1184 
L 3913 1184 
L 3913 2016 
L 2456 2016 
L 2456 1184 
z
M 2456 2416 
L 3913 2416 
L 3913 3247 
L 2456 3247 
L 2456 2416 
z
" transform="scale(0.015625)"/>
     </defs>
     <use xlink:href="#MicrosoftYaHei-6b63"/>
     <use xlink:href="#MicrosoftYaHei-9762" transform="translate(100 0)"/>
    </g>
   </g>
   <g id="text_4">
    <!-- P=¼ -->
    <g style="fill: #888888" transform="translate(272.617109 107.4375) scale(0.07 -0.07)">
     <defs>
      <path id="MicrosoftYaHei-50" d="M 1250 1809 
L 1250 0 
L 625 0 
L 625 4841 
L 2000 4841 
Q 2784 4841 3217 4462 
Q 3650 4084 3650 3381 
Q 3650 2669 3144 2226 
Q 2638 1784 1878 1809 
L 1250 1809 
z
M 1250 4291 
L 1250 2359 
L 1828 2359 
Q 2400 2359 2697 2617 
Q 2994 2875 2994 3356 
Q 2994 4291 1888 4291 
L 1250 4291 
z
" transform="scale(0.015625)"/>
      <path id="MicrosoftYaHei-3d" d="M 3972 2497 
L 788 2497 
L 788 2969 
L 3972 2969 
L 3972 2497 
z
M 3972 1053 
L 788 1053 
L 788 1525 
L 3972 1525 
L 3972 1053 
z
" transform="scale(0.015625)"/>
      <path id="MicrosoftYaHei-bc" d="M 2188 1972 
L 466 1972 
L 466 2372 
L 1088 2372 
L 1088 4331 
L 434 4153 
L 434 4594 
L 1556 4913 
L 1556 2372 
L 2188 2372 
L 2188 1972 
z
M 4798 4841 
L 1889 0 
L 1364 0 
L 4273 4841 
L 4798 4841 
z
M 5816 666 
L 5444 666 
L 5444 -12 
L 4966 -12 
L 4966 666 
L 3641 666 
L 3641 994 
L 4875 2857 
L 5444 2857 
L 5444 1050 
L 5816 1050 
L 5816 666 
z
M 4963 2413 
Q 4916 2300 4835 2166 
L 4119 1050 
L 4966 1050 
L 4966 2119 
Q 4966 2188 4981 2413 
L 4963 2413 
z
" transform="scale(0.015625)"/>
     </defs>
     <use xlink:href="#MicrosoftYaHei-50"/>
     <use xlink:href="#MicrosoftYaHei-3d" transform="translate(61.181641 0)"/>
     <use xlink:href="#MicrosoftYaHei-bc" transform="translate(135.351562 0)"/>
    </g>
   </g>
   <g id="text_5">
    <!-- 反面 -->
    <g transform="translate(301.32 140.990625) scale(0.08 -0.08)">
     <defs>
      <path id="MicrosoftYaHei-53cd" d="M 881 4884 
Q 3369 4903 5738 5191 
L 5919 4691 
Q 3750 4503 1369 4434 
L 1369 3372 
L 5638 3372 
L 5638 2909 
Q 5125 1525 4100 591 
Q 5019 -25 6331 -247 
Q 6106 -534 5938 -803 
Q 4616 -422 3697 253 
Q 2738 -475 1406 -878 
Q 1263 -659 1063 -397 
Q 2366 -44 3278 597 
Q 2256 1525 1859 2909 
L 1369 2909 
L 1369 2553 
Q 1369 334 413 -853 
Q 250 -653 63 -453 
Q 881 559 881 2553 
L 881 4884 
z
M 5050 2909 
L 2366 2909 
Q 2794 1678 3681 909 
Q 4622 1722 5050 2909 
z
" transform="scale(0.015625)"/>
     </defs>
     <use xlink:href="#MicrosoftYaHei-53cd"/>
     <use xlink:href="#MicrosoftYaHei-9762" transform="translate(100 0)"/>
    </g>
   </g>
   <g id="text_6">
    <!-- P=¼ -->
    <g style="fill: #888888" transform="translate(272.617109 151.3275) scale(0.07 -0.07)">
     <use xlink:href="#MicrosoftYaHei-50"/>
     <use xlink:href="#MicrosoftYaHei-3d" transform="translate(61.181641 0)"/>
     <use xlink:href="#MicrosoftYaHei-bc" transform="translate(135.351562 0)"/>
    </g>
   </g>
   <g id="text_7">
    <!-- 反面 ½ -->
    <g style="fill: #2ecc71" transform="translate(128.990391 167.0025) scale(0.09 -0.09)">
     <defs>
      <path id="MicrosoftYaHei-Bold-53cd" d="M 5938 3409 
L 5938 2634 
Q 5431 1544 4578 734 
Q 5350 238 6306 -28 
Q 6219 -147 5750 -872 
Q 4688 -509 3841 134 
Q 2975 -469 1850 -866 
Q 1650 -516 1344 -53 
Q 2378 281 3138 756 
Q 2538 1372 2075 2172 
L 2756 2597 
Q 3228 1853 3856 1288 
Q 4519 1872 4869 2616 
L 1731 2616 
L 1731 2422 
Q 1731 178 813 -853 
Q 575 -591 81 -222 
Q 844 847 844 2484 
L 844 4903 
Q 3588 4972 5738 5259 
L 6031 4447 
Q 4375 4234 1731 4109 
L 1731 3409 
L 5938 3409 
z
" transform="scale(0.015625)"/>
     </defs>
     <use xlink:href="#MicrosoftYaHei-Bold-53cd"/>
     <use xlink:href="#MicrosoftYaHei-Bold-9762" transform="translate(100 0)"/>
     <use xlink:href="#MicrosoftYaHei-Bold-20" transform="translate(200 0)"/>
     <use xlink:href="#MicrosoftYaHei-Bold-bd" transform="translate(229.785156 0)"/>
    </g>
   </g>
   <g id="text_8">
    <!-- 正面 -->
    <g transform="translate(301.32 159.800625) scale(0.08 -0.08)">
     <use xlink:href="#MicrosoftYaHei-6b63"/>
     <use xlink:href="#MicrosoftYaHei-9762" transform="translate(100 0)"/>
    </g>
   </g>
   <g id="text_9">
    <!-- P=¼ -->
    <g style="fill: #888888" transform="translate(272.617109 170.1375) scale(0.07 -0.07)">
     <use xlink:href="#MicrosoftYaHei-50"/>
     <use xlink:href="#MicrosoftYaHei-3d" transform="translate(61.181641 0)"/>
     <use xlink:href="#MicrosoftYaHei-bc" transform="translate(135.351562 0)"/>
    </g>
   </g>
   <g id="text_10">
    <!-- 反面 -->
    <g transform="translate(301.32 203.690625) scale(0.08 -0.08)">
     <use xlink:href="#MicrosoftYaHei-53cd"/>
     <use xlink:href="#MicrosoftYaHei-9762" transform="translate(100 0)"/>
    </g>
   </g>
   <g id="text_11">
    <!-- P=¼ -->
    <g style="fill: #888888" transform="translate(272.617109 214.0275) scale(0.07 -0.07)">
     <use xlink:href="#MicrosoftYaHei-50"/>
     <use xlink:href="#MicrosoftYaHei-3d" transform="translate(61.181641 0)"/>
     <use xlink:href="#MicrosoftYaHei-bc" transform="translate(135.351562 0)"/>
    </g>
   </g>
   <g id="text_12">
    <!-- 掷硬币两次的概率树状图 -->
    <g transform="translate(146.4 16.7925) scale(0.12 -0.12)">
     <defs>
      <path id="MicrosoftYaHei-Bold-63b7" d="M 200 4291 
L 725 4291 
L 725 5266 
L 1481 5266 
L 1481 4291 
L 1938 4291 
L 1938 3509 
L 1481 3509 
L 1481 2738 
Q 1716 2831 1944 2928 
L 2019 2447 
L 2538 2447 
Q 2544 2553 2544 3322 
L 2000 3322 
L 2000 4059 
L 2275 4059 
Q 2072 4528 1813 4934 
L 2388 5259 
Q 2663 4847 2938 4359 
L 2400 4059 
L 2950 4059 
Q 3153 4556 3381 5334 
L 4144 5066 
Q 3969 4638 3678 4059 
L 4038 4059 
L 4038 3322 
L 3344 3322 
Q 3344 2684 3334 2447 
L 4144 2447 
L 4144 1709 
L 3256 1709 
Q 3225 1509 3178 1316 
L 3419 1466 
Q 3975 653 4225 175 
L 4225 4997 
L 6219 4997 
L 6219 4309 
Q 5925 3203 5738 2584 
Q 6288 1847 6288 922 
Q 6288 309 6038 95 
Q 5788 -119 5094 -153 
Q 5016 122 4925 403 
L 4925 -803 
L 4225 -803 
L 4225 16 
L 3625 -334 
Q 3328 241 3016 756 
Q 2697 -153 2063 -872 
Q 1731 -403 1519 -184 
Q 2275 466 2472 1709 
L 1838 1709 
L 1838 2000 
L 1481 1844 
L 1481 -22 
Q 1481 -366 1364 -555 
Q 1247 -744 981 -783 
Q 716 -822 256 -816 
Q 200 -453 106 -9 
Q 491 -16 608 -5 
Q 725 6 725 253 
L 725 1513 
L 294 1322 
L 94 2222 
Q 413 2331 725 2447 
L 725 3509 
L 200 3509 
L 200 4291 
z
M 4981 2559 
Q 5169 3128 5444 4303 
L 4925 4303 
L 4925 659 
Q 5366 634 5461 718 
Q 5556 803 5556 947 
Q 5556 1694 4981 2559 
z
" transform="scale(0.015625)"/>
      <path id="MicrosoftYaHei-Bold-786c" d="M 2469 953 
L 2819 1222 
L 2556 1222 
L 2556 3978 
L 3944 3978 
L 3944 4378 
L 2463 4378 
L 2463 5078 
L 6244 5078 
L 6244 4378 
L 4681 4378 
L 4681 3978 
L 6069 3978 
L 6069 872 
L 5356 872 
L 5356 1222 
L 4653 1222 
Q 4594 641 4409 297 
Q 5206 -13 6294 -16 
L 5925 -822 
Q 4741 -713 3884 -281 
Q 3434 -600 2613 -872 
Q 2419 -497 2194 -159 
Q 2816 -6 3184 172 
Q 2772 506 2469 953 
z
M 3269 2891 
L 3944 2891 
L 3944 3328 
L 3269 3328 
L 3269 2891 
z
M 5356 3328 
L 4681 3328 
L 4681 2891 
L 5356 2891 
L 5356 3328 
z
M 3269 1872 
L 3944 1872 
L 3944 2309 
L 3269 2309 
L 3269 1872 
z
M 5356 1872 
L 5356 2309 
L 4681 2309 
L 4681 1872 
L 5356 1872 
z
M 3738 650 
Q 3859 869 3909 1222 
L 3116 1222 
Q 3384 891 3738 650 
z
M 2375 4241 
L 1641 4241 
Q 1516 3716 1338 3228 
L 2275 3228 
L 2275 -66 
L 1231 -66 
L 1231 -459 
L 544 -459 
L 544 1603 
Q 450 1456 350 1316 
Q 231 1847 25 2278 
Q 600 3125 847 4241 
L 231 4241 
L 231 4941 
L 2375 4941 
L 2375 4241 
z
M 1600 616 
L 1600 2547 
L 1231 2547 
L 1231 616 
L 1600 616 
z
" transform="scale(0.015625)"/>
      <path id="MicrosoftYaHei-Bold-5e01" d="M 600 3266 
L 2725 3266 
L 2725 4206 
L 494 4116 
Q 419 4566 344 4953 
Q 2769 4978 5950 5166 
L 6088 4353 
L 3638 4244 
L 3638 3266 
L 5838 3266 
L 5838 897 
Q 5838 394 5631 134 
Q 5425 -125 5072 -150 
Q 4719 -175 4113 -166 
Q 4044 216 3950 609 
Q 4553 584 4581 584 
Q 5000 584 5000 978 
L 5000 2484 
L 3638 2484 
L 3638 -834 
L 2725 -834 
L 2725 2484 
L 1438 2484 
L 1438 -209 
L 600 -209 
L 600 3266 
z
" transform="scale(0.015625)"/>
      <path id="MicrosoftYaHei-Bold-4e24" d="M 1288 -772 
L 438 -772 
L 438 3491 
L 1913 3491 
L 1913 4166 
L 163 4166 
L 163 4991 
L 6238 4991 
L 6238 4166 
L 4463 4166 
L 4463 3491 
L 5931 3491 
L 5931 84 
Q 5931 -256 5797 -461 
Q 5663 -666 5414 -728 
Q 5166 -791 4388 -791 
Q 4338 -503 4219 41 
Q 4563 16 4794 16 
Q 5081 16 5081 359 
L 5081 797 
L 4725 459 
Q 4413 838 4091 1191 
Q 3806 513 3306 -34 
Q 3013 216 2613 497 
Q 3531 1491 3644 2691 
L 2669 2691 
Q 2653 2503 2625 2322 
L 3338 1766 
L 2825 1116 
L 2425 1488 
Q 2159 688 1644 59 
Q 1475 238 1288 416 
L 1288 -772 
z
M 2700 3491 
L 3663 3491 
L 3663 4166 
L 2700 4166 
L 2700 3491 
z
M 5081 1381 
L 5081 2691 
L 4441 2691 
Q 4416 2366 4353 2063 
Q 4744 1709 5081 1381 
z
M 1288 997 
Q 1759 1722 1875 2691 
L 1288 2691 
L 1288 997 
z
" transform="scale(0.015625)"/>
      <path id="MicrosoftYaHei-Bold-6b21" d="M 6163 4466 
L 6163 3741 
L 5663 2572 
L 4838 2734 
L 5288 3697 
L 3153 3697 
Q 2884 3081 2550 2528 
Q 2113 2778 1700 2966 
Q 2425 4059 2856 5353 
L 3706 5228 
Q 3594 4838 3459 4466 
L 6163 4466 
z
M 844 5109 
Q 1400 4422 1869 3766 
L 1081 3203 
Q 669 3922 138 4647 
L 844 5109 
z
M 3525 3328 
L 4350 3328 
Q 4334 2925 4278 2553 
Q 4934 606 6325 59 
Q 6050 -297 5800 -784 
Q 4588 -66 3978 1409 
Q 3422 -19 2031 -878 
Q 1725 -428 1400 -109 
Q 3469 916 3525 3328 
z
M 1150 2653 
Q 1588 2428 2006 2247 
Q 1500 1053 944 -391 
L 88 16 
Q 650 1209 1150 2653 
z
" transform="scale(0.015625)"/>
      <path id="MicrosoftYaHei-Bold-7684" d="M 1250 5303 
L 2181 5159 
L 1900 4309 
L 2963 4309 
L 2963 3091 
Q 3466 3934 3925 5316 
L 4788 5091 
Q 4650 4675 4494 4278 
L 6106 4278 
L 6034 681 
Q 6019 100 5937 -133 
Q 5856 -366 5684 -512 
Q 5513 -659 5205 -712 
Q 4897 -766 3863 -766 
Q 3769 -216 3625 178 
Q 4088 141 4609 141 
Q 4759 141 4868 175 
Q 4978 209 5048 279 
Q 5119 350 5144 437 
Q 5169 525 5184 1206 
L 5213 2484 
Q 5225 3081 5225 3453 
L 4138 3453 
Q 3931 3016 3700 2603 
Q 3403 2797 2963 2988 
L 2963 -734 
L 2094 -734 
L 2094 -284 
L 1206 -284 
L 1206 -772 
L 338 -772 
L 338 4309 
L 997 4309 
Q 1178 4922 1250 5303 
z
M 2094 3491 
L 1206 3491 
L 1206 2422 
L 2094 2422 
L 2094 3491 
z
M 1206 534 
L 2094 534 
L 2094 1603 
L 1206 1603 
L 1206 534 
z
M 3944 2703 
Q 4394 2166 4913 1397 
L 4125 872 
Q 3650 1653 3219 2203 
L 3944 2703 
z
" transform="scale(0.015625)"/>
      <path id="MicrosoftYaHei-Bold-6982" d="M 5825 1003 
Q 6056 859 6313 747 
Q 6313 -753 5575 -753 
L 5413 -753 
Q 4788 -753 4788 172 
L 4788 638 
Q 4347 -225 3656 -878 
Q 3288 -566 2981 -341 
Q 3441 25 3800 497 
L 3431 266 
Q 3375 384 3316 500 
Q 2550 -41 2219 -416 
L 1713 141 
Q 1956 341 1956 766 
L 1956 2297 
L 1744 1753 
Q 1625 1875 1494 2003 
L 1494 -816 
L 756 -816 
L 756 1753 
Q 541 1003 294 478 
Q 181 1103 75 1572 
Q 453 2331 706 3422 
L 163 3422 
L 163 4184 
L 756 4184 
L 756 5322 
L 1494 5322 
L 1494 4184 
L 1850 4184 
L 1850 3422 
L 1494 3422 
L 1494 2847 
L 1956 2506 
L 1956 5047 
L 3669 5047 
L 3669 1922 
L 2594 1922 
L 2594 816 
Q 2800 959 3006 1113 
L 2763 1559 
L 3325 1834 
Q 3675 1284 3972 738 
Q 4400 1347 4559 2016 
L 3781 2016 
L 3938 4066 
L 4531 4066 
L 4444 2716 
L 4706 2716 
Q 4806 3375 4806 4366 
L 3900 4366 
L 3900 5066 
L 6100 5066 
L 6100 4366 
L 5531 4366 
Q 5531 3478 5422 2716 
L 6200 2716 
L 6200 2016 
L 5284 2016 
Q 5238 1822 5178 1634 
L 5525 1634 
L 5525 266 
Q 5525 47 5625 47 
Q 5738 47 5781 292 
Q 5825 538 5825 1003 
z
M 3044 4422 
L 2594 4422 
L 2594 3784 
L 3044 3784 
L 3044 4422 
z
M 3044 2547 
L 3044 3184 
L 2594 3184 
L 2594 2547 
L 3044 2547 
z
" transform="scale(0.015625)"/>
      <path id="MicrosoftYaHei-Bold-7387" d="M 213 4766 
L 2719 4766 
L 2613 5303 
L 3588 5341 
Q 3631 5119 3684 4766 
L 6200 4766 
L 6200 4028 
L 3447 4028 
L 2775 3391 
L 3391 3403 
Q 3672 3675 3969 3991 
L 4606 3622 
Q 3894 2928 2919 2122 
L 3684 2172 
Q 3588 2322 3500 2447 
L 4069 2772 
Q 4506 2203 4888 1603 
L 4263 1253 
L 4063 1581 
Q 2722 1488 1938 1397 
L 1681 2053 
Q 2163 2328 2722 2797 
Q 2322 2766 2013 2728 
L 1719 3309 
Q 2050 3463 2519 4028 
L 213 4028 
L 213 4766 
z
M 5944 3484 
L 5119 2803 
Q 5609 2513 6188 2141 
L 5725 1472 
Q 5125 1972 4488 2416 
L 4800 2844 
L 4500 3216 
Q 5044 3616 5438 3966 
L 5944 3484 
z
M 375 3472 
L 856 3959 
Q 1225 3672 1650 3272 
L 1144 2759 
Q 713 3191 375 3472 
z
M 1569 2941 
L 1950 2372 
L 544 1372 
L 175 2122 
Q 700 2397 1569 2941 
z
M 88 1066 
L 2763 1066 
L 2763 1341 
L 3638 1341 
L 3638 1066 
L 6288 1066 
L 6288 328 
L 3638 328 
L 3638 -872 
L 2763 -872 
L 2763 328 
L 88 328 
L 88 1066 
z
" transform="scale(0.015625)"/>
      <path id="MicrosoftYaHei-Bold-6811" d="M 1994 4753 
L 3863 4753 
Q 3863 3075 3519 1822 
L 4269 516 
L 3588 97 
Q 3400 494 3197 897 
Q 2838 78 2281 -497 
Q 2038 -53 1806 272 
Q 2413 934 2734 1781 
Q 2391 2416 2013 3066 
L 2581 3416 
L 2994 2725 
Q 3100 3300 3100 3947 
L 2169 3947 
L 2169 3397 
L 1569 3397 
L 1569 2841 
Q 2050 2453 2463 2059 
L 1963 1428 
Q 1766 1709 1569 1950 
L 1569 -834 
L 794 -834 
L 794 1544 
Q 588 1050 306 566 
Q 225 1128 113 1709 
Q 559 2488 794 3306 
L 794 3397 
L 138 3397 
L 138 4209 
L 794 4209 
L 794 5309 
L 1569 5309 
L 1569 4209 
L 1994 4209 
L 1994 4753 
z
M 3931 4191 
L 5050 4191 
L 5050 5266 
L 5863 5266 
L 5863 4191 
L 6306 4191 
L 6306 3378 
L 5863 3378 
L 5863 209 
Q 5863 -178 5714 -409 
Q 5566 -641 5323 -703 
Q 5081 -766 4238 -766 
Q 4181 -347 4069 41 
Q 4438 22 4663 22 
Q 5050 22 5050 447 
L 5050 3378 
L 3931 3378 
L 3931 4191 
z
M 3806 2791 
L 4413 2978 
Q 4719 2178 4913 1472 
L 4300 1278 
Q 4106 1991 3806 2791 
z
" transform="scale(0.015625)"/>
      <path id="MicrosoftYaHei-Bold-72b6" d="M 2300 5316 
L 2300 -34 
Q 3438 963 3656 2728 
L 2513 2728 
L 2513 3547 
L 3709 3547 
Q 3738 4566 3731 5316 
L 4588 5316 
Q 4588 4419 4556 3547 
L 6163 3547 
L 6163 2728 
L 4706 2728 
Q 5091 722 6325 -41 
Q 6019 -347 5694 -828 
Q 4669 -81 4266 1772 
Q 3928 100 2863 -872 
Q 2603 -469 2300 -119 
L 2300 -847 
L 1463 -847 
L 1463 1206 
Q 934 813 369 334 
L 94 1328 
Q 709 1706 1463 2288 
L 1463 5316 
L 2300 5316 
z
M 5363 5234 
Q 5719 4866 6181 4284 
L 5531 3778 
Q 5113 4391 4769 4809 
L 5363 5234 
z
M 850 4516 
Q 1169 3766 1444 2878 
L 713 2616 
Q 488 3459 181 4284 
L 850 4516 
z
" transform="scale(0.015625)"/>
      <path id="MicrosoftYaHei-Bold-56fe" d="M 369 -841 
L 369 5072 
L 6019 5072 
L 6019 -834 
L 5156 -834 
L 5156 -591 
L 1231 -591 
L 1231 -841 
L 369 -841 
z
M 4875 3978 
L 4875 3466 
Q 4547 3022 4006 2678 
Q 4513 2541 5156 2463 
L 5156 4316 
L 3256 4316 
Q 3141 4144 3009 3978 
L 4875 3978 
z
M 2394 4316 
L 1231 4316 
L 1231 3231 
Q 2016 3747 2394 4316 
z
M 3228 2959 
Q 3666 3163 3919 3416 
L 2575 3416 
Q 2828 3156 3228 2959 
z
M 1644 2747 
Q 1481 2925 1231 3147 
L 1231 2400 
Q 1950 2522 2500 2688 
Q 2266 2863 2078 3063 
Q 1872 2900 1644 2747 
z
M 1669 1303 
Q 3319 1084 4775 841 
L 4600 166 
L 5156 166 
L 5156 2388 
Q 5019 2159 4825 1822 
Q 3897 1978 3219 2275 
Q 2872 2134 2472 2019 
Q 3509 1888 4500 1722 
L 4375 1128 
Q 3344 1309 2063 1484 
L 2159 1934 
Q 1856 1859 1525 1797 
Q 1409 2059 1231 2347 
L 1231 166 
L 4569 166 
Q 3297 425 1494 647 
L 1669 1303 
z
" transform="scale(0.015625)"/>
     </defs>
     <use xlink:href="#MicrosoftYaHei-Bold-63b7"/>
     <use xlink:href="#MicrosoftYaHei-Bold-786c" transform="translate(100 0)"/>
     <use xlink:href="#MicrosoftYaHei-Bold-5e01" transform="translate(200 0)"/>
     <use xlink:href="#MicrosoftYaHei-Bold-4e24" transform="translate(300 0)"/>
     <use xlink:href="#MicrosoftYaHei-Bold-6b21" transform="translate(400 0)"/>
     <use xlink:href="#MicrosoftYaHei-Bold-7684" transform="translate(500 0)"/>
     <use xlink:href="#MicrosoftYaHei-Bold-6982" transform="translate(600 0)"/>
     <use xlink:href="#MicrosoftYaHei-Bold-7387" transform="translate(700 0)"/>
     <use xlink:href="#MicrosoftYaHei-Bold-6811" transform="translate(800 0)"/>
     <use xlink:href="#MicrosoftYaHei-Bold-72b6" transform="translate(900 0)"/>
     <use xlink:href="#MicrosoftYaHei-Bold-56fe" transform="translate(1000 0)"/>
    </g>
   </g>
  </g>
 </g>
 <defs>
  <clipPath id="p94e6a73c0d">
   <rect x="7.2" y="22.7925" width="410.4" height="250.8"/>
  </clipPath>
 </defs>
</svg>
